# Blender v3.3.0 OBJ File: ''
# www.blender.org
o FernStage00.005
v -0.001744 -0.004753 -0.002334
v 0.004789 0.021709 0.034189
v 0.078689 0.036420 0.023168
v 0.048555 0.023048 0.143824
v 0.025528 0.044257 0.153840
v 0.073431 0.007893 0.160163
v -0.054884 0.063227 0.085434
v 0.018569 0.040623 0.072336
v 0.085000 0.045552 0.080709
v -0.008964 0.066528 0.135247
v 0.029733 0.039067 0.116060
v 0.067116 0.028598 0.127836
v -0.152901 0.065735 -0.142568
v -0.103526 0.078102 -0.087711
v -0.092708 0.090780 -0.127301
v -0.003861 0.070454 -0.097913
v -0.039793 0.043932 -0.037576
v -0.000428 -0.004611 -0.004295
v 0.034553 0.029964 -0.074483
v -0.053545 0.096182 -0.111846
v -0.070495 0.067334 -0.059358
v -0.145600 0.087551 -0.090454
v -0.129642 0.102027 -0.053282
v -0.090210 0.087137 -0.005456
v -0.059244 0.056228 0.022652
v 0.177754 0.028303 -0.088838
v 0.118000 0.050643 -0.064622
v 0.150471 0.057589 -0.043183
v 0.094030 0.050643 0.024177
v 0.049335 0.032043 -0.024857
v 0.000000 -0.003603 -0.000000
v 0.054802 0.020795 0.051068
v 0.126068 0.067663 -0.014834
v 0.081659 0.047505 -0.045033
v 0.135222 0.055255 -0.100089
v 0.101318 0.074393 -0.098877
v 0.045715 0.070686 -0.079887
v 0.006587 0.049389 -0.061226
v -0.104227 0.230909 0.131295
v -0.033513 0.212635 0.068011
v -0.086233 0.216497 0.057003
v -0.083476 0.140901 -0.026841
v 0.008901 0.135372 0.016796
v 0.010713 -0.004139 -0.006869
v -0.077289 0.068519 -0.059908
v -0.081588 0.185918 0.019266
v -0.004062 0.185633 0.038023
v -0.041443 0.205078 0.132274
v -0.005485 0.181011 0.124009
v 0.035157 0.134502 0.098026
v 0.048777 0.073061 0.082525
v 0.058427 0.146895 -0.160140
v 0.021966 0.131407 -0.089912
v 0.073357 0.127610 -0.110221
v 0.083186 0.066122 -0.020692
v 0.002330 0.066047 -0.020872
v -0.008276 -0.002893 0.014584
v 0.080835 0.008336 0.012827
v 0.073727 0.109244 -0.066217
v 0.008479 0.103949 -0.051307
v 0.016393 0.128162 -0.149995
v -0.015181 0.119196 -0.118499
v -0.044833 0.080510 -0.068246
v -0.056095 0.033159 -0.037584
v -0.001587 -0.005932 -0.001639
v 0.078889 0.035093 0.023561
v 0.004838 0.020451 0.034777
v 0.048002 0.021784 0.143659
v 0.072975 0.006615 0.159854
v 0.024780 0.043109 0.153942
v -0.055111 0.061947 0.085931
v 0.085077 0.044144 0.080741
v 0.018437 0.039244 0.072580
v -0.009464 0.065258 0.135508
v 0.067005 0.027275 0.127398
v 0.029289 0.037745 0.115970
v -0.152813 0.064737 -0.142457
v -0.092459 0.089841 -0.127539
v -0.103579 0.077094 -0.087678
v -0.004159 0.069651 -0.098392
v 0.034185 0.029210 -0.074981
v -0.000926 -0.005384 -0.004628
v -0.040263 0.043111 -0.037846
v -0.053586 0.095267 -0.112239
v -0.070796 0.066390 -0.059498
v -0.145849 0.086643 -0.090130
v -0.130026 0.101136 -0.053067
v -0.090754 0.086319 -0.005428
v -0.059878 0.055494 0.022574
v 0.177451 0.027434 -0.088760
v 0.150425 0.056741 -0.042858
v 0.117807 0.049744 -0.064640
v 0.094384 0.049839 0.024106
v 0.055203 0.020026 0.050941
v 0.000298 -0.004377 -0.000290
v 0.049563 0.031236 -0.025141
v 0.126249 0.066792 -0.014708
v 0.081702 0.046620 -0.045210
v 0.134861 0.054468 -0.100371
v 0.101095 0.073597 -0.099241
v 0.045714 0.069915 -0.080331
v 0.006719 0.048672 -0.061715
v -0.104348 0.229518 0.131102
v -0.086007 0.215193 0.057239
v -0.033740 0.211311 0.067972
v -0.083815 0.140162 -0.026118
v -0.078070 0.068082 -0.058926
v 0.009779 -0.004552 -0.006030
v 0.008126 0.134642 0.017278
v -0.081404 0.184815 0.019698
v -0.004434 0.184457 0.038144
v -0.041827 0.203899 0.131744
v -0.006039 0.180025 0.123545
v 0.034306 0.133784 0.097961
v 0.047620 0.072702 0.083020
v 0.058551 0.145825 -0.160275
v 0.073200 0.126611 -0.110586
v 0.022108 0.130376 -0.090200
v 0.083176 0.065454 -0.021482
v 0.080858 0.007780 0.011967
v -0.008059 -0.003474 0.013766
v 0.002566 0.065357 -0.021609
v 0.073634 0.108363 -0.066797
v 0.008677 0.103052 -0.051838
v 0.016784 0.127162 -0.150048
v -0.014757 0.118252 -0.118761
v -0.044363 0.079767 -0.068807
v -0.055619 0.032581 -0.038286
vt 0.411600 1.000000
vt 0.399800 0.800700
vt 0.562400 0.723100
vt 0.432000 0.184400
vt 0.372000 0.181000
vt 0.494400 0.068600
vt 0.234100 0.597600
vt 0.403500 0.587600
vt 0.540500 0.443500
vt 0.303300 0.312400
vt 0.402700 0.356300
vt 0.479800 0.236400
vt 0.171300 1.000000
vt 0.136700 0.620800
vt 0.216200 0.740800
vt 0.277300 0.371600
vt 0.132800 0.275000
vt 0.129200 0.000100
vt 0.288800 0.131200
vt 0.237600 0.585300
vt 0.129900 0.431300
vt 0.088700 0.830300
vt 0.043400 0.698200
vt 0.011300 0.448800
vt 0.005500 0.241100
vt 0.171300 1.000000
vt 0.136700 0.620800
vt 0.216200 0.740800
vt 0.277300 0.371600
vt 0.132800 0.275000
vt 0.129200 0.000100
vt 0.288800 0.131200
vt 0.237600 0.585300
vt 0.129900 0.431300
vt 0.088700 0.830300
vt 0.043400 0.698200
vt 0.011300 0.448800
vt 0.005500 0.241100
vt 0.171300 1.000000
vt 0.136700 0.620800
vt 0.216200 0.740800
vt 0.277300 0.371600
vt 0.132800 0.275000
vt 0.129200 0.000100
vt 0.288800 0.131200
vt 0.237600 0.585300
vt 0.129900 0.431300
vt 0.088700 0.830300
vt 0.043400 0.698200
vt 0.011300 0.448800
vt 0.005500 0.241100
vt 0.171300 1.000000
vt 0.136700 0.620800
vt 0.216200 0.740800
vt 0.277300 0.371600
vt 0.132800 0.275000
vt 0.129200 0.000100
vt 0.288800 0.131200
vt 0.237600 0.585300
vt 0.129900 0.431300
vt 0.088700 0.830300
vt 0.043400 0.698200
vt 0.011300 0.448800
vt 0.005500 0.241100
vt 0.411600 1.000000
vt 0.562400 0.723100
vt 0.399800 0.800700
vt 0.432000 0.184400
vt 0.494400 0.068600
vt 0.372000 0.181000
vt 0.234100 0.597600
vt 0.540500 0.443500
vt 0.403500 0.587600
vt 0.303300 0.312400
vt 0.479800 0.236400
vt 0.402700 0.356300
vt 0.171300 1.000000
vt 0.216200 0.740800
vt 0.136700 0.620800
vt 0.277300 0.371600
vt 0.288800 0.131200
vt 0.129200 0.000100
vt 0.132800 0.275000
vt 0.237600 0.585300
vt 0.129900 0.431300
vt 0.088700 0.830300
vt 0.043400 0.698200
vt 0.011300 0.448800
vt 0.005500 0.241100
vt 0.171300 1.000000
vt 0.216200 0.740800
vt 0.136700 0.620800
vt 0.277300 0.371600
vt 0.288800 0.131200
vt 0.129200 0.000100
vt 0.132800 0.275000
vt 0.237600 0.585300
vt 0.129900 0.431300
vt 0.088700 0.830300
vt 0.043400 0.698200
vt 0.011300 0.448800
vt 0.005500 0.241100
vt 0.171300 1.000000
vt 0.216200 0.740800
vt 0.136700 0.620800
vt 0.277300 0.371600
vt 0.288800 0.131200
vt 0.129200 0.000100
vt 0.132800 0.275000
vt 0.237600 0.585300
vt 0.129900 0.431300
vt 0.088700 0.830300
vt 0.043400 0.698200
vt 0.011300 0.448800
vt 0.005500 0.241100
vt 0.171300 1.000000
vt 0.216200 0.740800
vt 0.136700 0.620800
vt 0.277300 0.371600
vt 0.288800 0.131200
vt 0.129200 0.000100
vt 0.132800 0.275000
vt 0.237600 0.585300
vt 0.129900 0.431300
vt 0.088700 0.830300
vt 0.043400 0.698200
vt 0.011300 0.448800
vt 0.005500 0.241100
vn -0.1291 0.8138 -0.5666
vn -0.0703 0.8599 -0.5057
vn -0.1530 0.9381 -0.3108
vn 0.4520 0.8812 0.1385
vn 0.6077 0.7898 -0.0826
vn 0.3752 0.8911 0.2553
vn 0.2760 0.8784 -0.3902
vn -0.0412 0.9658 -0.2559
vn -0.0145 0.9993 0.0349
vn 0.4304 0.8762 -0.2167
vn 0.3048 0.9492 0.0781
vn 0.1418 0.8899 0.4336
vn -0.1034 0.9862 -0.1293
vn 0.1358 0.9894 -0.0509
vn -0.2905 0.9160 0.2766
vn 0.3402 0.7696 0.5403
vn 0.5451 0.7768 0.3154
vn 0.5707 0.7256 0.3844
vn 0.4146 0.7173 0.5600
vn -0.0222 0.8812 0.4723
vn 0.3693 0.9116 0.1807
vn 0.2250 0.8807 -0.4168
vn 0.3948 0.8761 -0.2766
vn 0.5935 0.8035 -0.0449
vn 0.7000 0.7095 0.0812
vn 0.3189 0.9441 -0.0841
vn 0.1660 0.9797 0.1124
vn -0.0019 0.9171 -0.3988
vn -0.4727 0.8756 0.0993
vn -0.3369 0.8670 0.3671
vn -0.4157 0.8315 0.3685
vn -0.5242 0.8359 0.1631
vn -0.2724 0.9373 -0.2175
vn -0.1356 0.9591 0.2485
vn 0.4558 0.8271 0.3289
vn 0.2696 0.8591 0.4350
vn -0.0228 0.8426 0.5380
vn -0.1891 0.7813 0.5949
vn 0.2606 0.9654 0.0124
vn 0.4042 0.8963 -0.1824
vn 0.1362 0.9112 -0.3889
vn 0.4762 0.4408 -0.7609
vn 0.6853 0.3207 -0.6538
vn 0.7100 0.1830 -0.6800
vn 0.6790 0.3523 -0.6441
vn 0.2413 0.6850 -0.6875
vn 0.5829 0.6502 -0.4873
vn 0.4680 0.8692 0.1600
vn 0.6841 0.7233 0.0937
vn 0.8832 0.4350 -0.1752
vn 0.9058 0.1706 -0.3878
vn -0.1338 0.9801 0.1467
vn -0.1161 0.9117 0.3942
vn 0.1613 0.9088 0.3848
vn -0.0149 0.6065 0.7949
vn -0.2304 0.5675 0.7904
vn -0.2120 0.4834 0.8494
vn -0.0463 0.5026 0.8633
vn 0.0271 0.8342 0.5508
vn -0.1938 0.7562 0.6250
vn -0.3699 0.9289 -0.0159
vn -0.4141 0.8915 0.1836
vn -0.4898 0.6745 0.5524
vn -0.4885 0.5068 0.7103
vn 0.1292 -0.8137 0.5667
vn 0.1525 -0.9382 0.3106
vn 0.0703 -0.8597 0.5059
vn -0.4529 -0.8810 -0.1371
vn -0.3748 -0.8909 -0.2565
vn -0.6069 -0.7906 0.0813
vn -0.2756 -0.8787 0.3898
vn 0.0137 -0.9993 -0.0348
vn 0.0407 -0.9657 0.2565
vn -0.4300 -0.8766 0.2161
vn -0.1447 -0.8897 -0.4331
vn -0.3075 -0.9483 -0.0781
vn 0.1036 -0.9862 0.1294
vn 0.2896 -0.9167 -0.2754
vn -0.1352 -0.9895 0.0506
vn -0.3408 -0.7696 -0.5400
vn -0.4148 -0.7174 -0.5598
vn -0.5709 -0.7256 -0.3843
vn -0.5451 -0.7767 -0.3154
vn 0.0213 -0.8818 -0.4711
vn -0.3694 -0.9116 -0.1805
vn -0.2233 -0.8814 0.4163
vn -0.3937 -0.8768 0.2760
vn -0.5931 -0.8039 0.0443
vn -0.6997 -0.7097 -0.0817
vn -0.3190 -0.9440 0.0842
vn 0.0010 -0.9176 0.3976
vn -0.1660 -0.9798 -0.1117
vn 0.4726 -0.8756 -0.0999
vn 0.5240 -0.8359 -0.1635
vn 0.4157 -0.8314 -0.3687
vn 0.3370 -0.8670 -0.3671
vn 0.2715 -0.9378 0.2163
vn 0.1354 -0.9591 -0.2487
vn -0.4560 -0.8277 -0.3271
vn -0.2696 -0.8598 -0.4337
vn 0.0232 -0.8430 -0.5374
vn 0.1894 -0.7816 -0.5944
vn -0.2604 -0.9654 -0.0129
vn -0.1358 -0.9117 0.3877
vn -0.4039 -0.8964 0.1826
vn -0.4765 -0.4375 0.7626
vn -0.6779 -0.3486 0.6472
vn -0.7104 -0.1804 0.6803
vn -0.6857 -0.3173 0.6551
vn -0.2412 -0.6842 0.6883
vn -0.5838 -0.6482 0.4889
vn -0.4667 -0.8698 -0.1603
vn -0.6839 -0.7235 -0.0943
vn -0.8848 -0.4315 0.1762
vn -0.9067 -0.1669 0.3874
vn 0.1339 -0.9801 -0.1465
vn -0.1624 -0.9086 -0.3848
vn 0.1156 -0.9115 -0.3948
vn 0.0146 -0.6064 -0.7950
vn 0.0461 -0.5025 -0.8633
vn 0.2120 -0.4833 -0.8494
vn 0.2304 -0.5673 -0.7906
vn -0.0273 -0.8344 -0.5505
vn 0.1937 -0.7559 -0.6254
vn 0.3706 -0.9286 0.0169
vn 0.4142 -0.8916 -0.1828
vn 0.4902 -0.6744 -0.5521
vn 0.4889 -0.5067 -0.7101
s 1
f 1/1/1 2/2/2 3/3/3
f 4/4/4 5/5/5 6/6/6
f 1/1/1 7/7/7 2/2/2
f 3/3/3 2/2/2 8/8/8
f 8/8/8 9/9/9 3/3/3
f 2/2/2 7/7/7 10/10/10
f 10/10/10 8/8/8 2/2/2
f 9/9/9 8/8/8 11/11/11
f 11/11/11 12/12/12 9/9/9
f 8/8/8 10/10/10 5/5/5
f 5/5/5 11/11/11 8/8/8
f 12/12/12 11/11/11 4/4/4
f 11/11/11 5/5/5 4/4/4
f 12/12/12 4/4/4 6/6/6
s 2
f 13/13/13 14/14/14 15/15/15
f 16/16/16 17/17/17 18/18/18
f 18/18/18 19/19/19 16/16/16
f 20/20/20 21/21/21 17/17/17
f 17/17/17 16/16/16 20/20/20
f 15/15/15 14/14/14 21/21/21
f 21/21/21 20/20/20 15/15/15
f 22/22/22 14/14/14 13/13/13
f 23/23/23 21/21/21 14/14/14
f 14/14/14 22/22/22 23/23/23
f 24/24/24 17/17/17 21/21/21
f 21/21/21 23/23/23 24/24/24
f 25/25/25 18/18/18 17/17/17
f 17/17/17 24/24/24 25/25/25
s 3
f 26/26/26 27/27/27 28/28/28
f 29/29/29 30/30/30 31/31/31
f 31/31/31 32/32/32 29/29/29
f 33/33/33 34/34/34 30/30/30
f 30/30/30 29/29/29 33/33/33
f 28/28/28 27/27/27 34/34/34
f 34/34/34 33/33/33 28/28/28
f 35/35/35 27/27/27 26/26/26
f 36/36/36 34/34/34 27/27/27
f 27/27/27 35/35/35 36/36/36
f 37/37/37 30/30/30 34/34/34
f 34/34/34 36/36/36 37/37/37
f 38/38/38 31/31/31 30/30/30
f 30/30/30 37/37/37 38/38/38
s 4
f 39/39/39 40/40/40 41/41/41
f 42/42/42 43/43/43 44/44/44
f 44/44/44 45/45/45 42/42/42
f 46/46/46 47/47/47 43/43/43
f 43/43/43 42/42/42 46/46/46
f 41/41/41 40/40/40 47/47/47
f 47/47/47 46/46/46 41/41/41
f 48/48/48 40/40/40 39/39/39
f 49/49/49 47/47/47 40/40/40
f 40/40/40 48/48/48 49/49/49
f 50/50/50 43/43/43 47/47/47
f 47/47/47 49/49/49 50/50/50
f 51/51/51 44/44/44 43/43/43
f 43/43/43 50/50/50 51/51/51
s 5
f 52/52/52 53/53/53 54/54/54
f 55/55/55 56/56/56 57/57/57
f 57/57/57 58/58/58 55/55/55
f 59/59/59 60/60/60 56/56/56
f 56/56/56 55/55/55 59/59/59
f 54/54/54 53/53/53 60/60/60
f 60/60/60 59/59/59 54/54/54
f 61/61/61 53/53/53 52/52/52
f 62/62/62 60/60/60 53/53/53
f 53/53/53 61/61/61 62/62/62
f 63/63/63 56/56/56 60/60/60
f 60/60/60 62/62/62 63/63/63
f 64/64/64 57/57/57 56/56/56
f 56/56/56 63/63/63 64/64/64
s 6
f 65/65/65 66/66/66 67/67/67
f 68/68/68 69/69/69 70/70/70
f 65/65/65 67/67/67 71/71/71
f 66/66/66 72/72/72 73/73/73
f 73/73/73 67/67/67 66/66/66
f 67/67/67 73/73/73 74/74/74
f 74/74/74 71/71/71 67/67/67
f 72/72/72 75/75/75 76/76/76
f 76/76/76 73/73/73 72/72/72
f 73/73/73 76/76/76 70/70/70
f 70/70/70 74/74/74 73/73/73
f 75/75/75 68/68/68 76/76/76
f 76/76/76 68/68/68 70/70/70
f 75/75/75 69/69/69 68/68/68
s 7
f 77/77/77 78/78/78 79/79/79
f 80/80/80 81/81/81 82/82/82
f 82/82/82 83/83/83 80/80/80
f 84/84/84 80/80/80 83/83/83
f 83/83/83 85/85/85 84/84/84
f 78/78/78 84/84/84 85/85/85
f 85/85/85 79/79/79 78/78/78
f 86/86/86 77/77/77 79/79/79
f 87/87/87 86/86/86 79/79/79
f 79/79/79 85/85/85 87/87/87
f 88/88/88 87/87/87 85/85/85
f 85/85/85 83/83/83 88/88/88
f 89/89/89 88/88/88 83/83/83
f 83/83/83 82/82/82 89/89/89
s 8
f 90/90/90 91/91/91 92/92/92
f 93/93/93 94/94/94 95/95/95
f 95/95/95 96/96/96 93/93/93
f 97/97/97 93/93/93 96/96/96
f 96/96/96 98/98/98 97/97/97
f 91/91/91 97/97/97 98/98/98
f 98/98/98 92/92/92 91/91/91
f 99/99/99 90/90/90 92/92/92
f 100/100/100 99/99/99 92/92/92
f 92/92/92 98/98/98 100/100/100
f 101/101/101 100/100/100 98/98/98
f 98/98/98 96/96/96 101/101/101
f 102/102/102 101/101/101 96/96/96
f 96/96/96 95/95/95 102/102/102
s 9
f 103/103/103 104/104/104 105/105/105
f 106/106/106 107/107/107 108/108/108
f 108/108/108 109/109/109 106/106/106
f 110/110/110 106/106/106 109/109/109
f 109/109/109 111/111/111 110/110/110
f 104/104/104 110/110/110 111/111/111
f 111/111/111 105/105/105 104/104/104
f 112/112/112 103/103/103 105/105/105
f 113/113/113 112/112/112 105/105/105
f 105/105/105 111/111/111 113/113/113
f 114/114/114 113/113/113 111/111/111
f 111/111/111 109/109/109 114/114/114
f 115/115/115 114/114/114 109/109/109
f 109/109/109 108/108/108 115/115/115
s 10
f 116/116/116 117/117/117 118/118/118
f 119/119/119 120/120/120 121/121/121
f 121/121/121 122/122/122 119/119/119
f 123/123/123 119/119/119 122/122/122
f 122/122/122 124/124/124 123/123/123
f 117/117/117 123/123/123 124/124/124
f 124/124/124 118/118/118 117/117/117
f 125/125/125 116/116/116 118/118/118
f 126/126/126 125/125/125 118/118/118
f 118/118/118 124/124/124 126/126/126
f 127/127/127 126/126/126 124/124/124
f 124/124/124 122/122/122 127/127/127
f 128/128/128 127/127/127 122/122/122
f 122/122/122 121/121/121 128/128/128
