# Blender v3.3.0 OBJ File: ''
# www.blender.org
o FernStageDead.005
v 0.554762 0.063670 -0.139579
v 0.473348 0.122081 -0.020044
v 0.376880 0.091132 -0.096129
v 0.087687 0.040889 -0.028395
v -0.023105 -0.010849 0.000019
v 0.090633 0.102152 -0.197917
v 0.231324 0.098509 -0.062825
v 0.265955 0.127682 -0.190920
v 0.374933 0.115392 -0.221341
v 0.125064 0.109736 0.097829
v 0.300292 0.158176 0.064972
v -0.136121 0.067570 0.428489
v -0.200876 0.106745 0.319392
v -0.096214 0.088133 0.285326
v -0.031107 0.038844 0.090610
v -0.000571 -0.010746 0.002082
v 0.094904 0.114129 0.164546
v -0.065959 0.092890 0.186903
v 0.017890 0.133960 0.263036
v -0.000906 0.125229 0.342783
v -0.152717 0.085949 0.059569
v -0.202458 0.131567 0.179960
v -0.157778 -0.001942 -0.396801
v -0.054516 0.063475 -0.363200
v -0.109936 0.057244 -0.277796
v -0.025356 0.026161 -0.082776
v 0.008218 -0.010956 0.009123
v -0.166078 0.061930 -0.076302
v -0.068416 0.063820 -0.186528
v -0.039634 0.042307 -0.119001
v -0.174271 0.074399 -0.116739
v -0.178992 0.085302 -0.204647
v -0.091754 0.066567 -0.237550
v -0.201841 0.082973 -0.244263
v -0.214392 0.072907 -0.273917
v 0.076280 0.075378 -0.132124
v 0.031563 0.099193 -0.262047
v 0.070781 0.090795 -0.177382
v -0.010442 0.087529 -0.326125
v -0.282465 0.194240 -0.199675
v -0.359647 0.212999 -0.282362
v -0.341792 0.253110 -0.188885
v -0.100555 0.118341 -0.049729
v -0.003304 -0.009648 -0.001216
v -0.191902 0.228421 0.133465
v -0.180918 0.324219 -0.092240
v -0.158312 0.206428 -0.076685
v -0.242870 0.319841 0.082142
v -0.325962 0.363546 0.014280
v -0.329635 0.324801 -0.159979
v -0.285554 0.360972 -0.131189
v -0.398089 0.303595 -0.011131
v -0.418677 0.265181 -0.027447
v -0.021511 0.172486 -0.221687
v -0.165683 0.348993 -0.292791
v -0.092507 0.259069 -0.277841
v -0.355076 0.277051 -0.316206
v -0.313827 0.355516 -0.320037
v -0.393763 0.216064 -0.098239
v 0.321480 0.299228 -0.420519
v 0.347743 0.307236 -0.244963
v 0.208678 0.255191 -0.259837
v 0.062204 0.096510 -0.075519
v 0.001977 -0.009731 -0.002825
v -0.085753 0.208419 -0.193688
v 0.129871 0.212595 -0.153977
v 0.044884 0.287909 -0.268282
v 0.102888 0.315524 -0.358550
v 0.188762 0.157100 0.036108
v 0.286988 0.275409 -0.067549
v 0.342755 0.108004 0.250105
v 0.311305 0.213846 0.334460
v 0.306817 0.210710 0.213240
v 0.087393 0.082250 0.064061
v 0.002516 -0.010138 0.001704
v 0.206660 0.165444 -0.064729
v 0.189704 0.193419 0.130696
v 0.133884 0.133622 0.096014
v 0.250986 0.210160 -0.015996
v 0.320488 0.251893 0.065473
v 0.249804 0.235706 0.167065
v 0.385051 0.238388 0.099427
v 0.423839 0.187472 0.136357
v -0.000805 0.133210 0.193412
v 0.131027 0.235233 0.282791
v 0.046528 0.184206 0.246144
v 0.225069 0.278755 0.306520
v 0.004036 0.354112 0.410578
v -0.073062 0.404913 0.358965
v 0.043977 0.451571 0.303313
v 0.001818 0.165000 0.034167
v -0.000783 -0.007436 0.004476
v 0.186101 0.162938 0.151361
v 0.025921 0.325774 0.102577
v 0.010566 0.258481 0.066936
v 0.180365 0.260579 0.196595
v 0.157618 0.321663 0.209415
v 0.065239 0.434529 0.207756
v 0.053202 0.401733 0.148456
v 0.162089 0.340498 0.250413
v 0.151900 0.340755 0.285411
v -0.166889 0.171044 0.082088
v -0.159964 0.348529 0.168521
v -0.188311 0.281854 0.127987
v -0.087809 0.417489 0.295809
v -0.114021 0.400204 0.216064
v 0.088886 0.387443 0.319039
v 0.555302 0.068198 -0.140231
v 0.377252 0.095698 -0.096613
v 0.473397 0.126287 -0.021923
v 0.085964 0.045160 -0.028424
v 0.089489 0.106434 -0.196662
v -0.025057 -0.006677 -0.000000
v 0.230530 0.103040 -0.063063
v 0.265923 0.132153 -0.189813
v 0.375665 0.119840 -0.220392
v 0.123288 0.113749 0.096429
v 0.299510 0.162405 0.063322
v -0.136406 0.072132 0.429064
v -0.096535 0.092712 0.285710
v -0.199762 0.111141 0.320200
v -0.030629 0.042994 0.088669
v 0.094073 0.118140 0.162438
v 0.000000 -0.006676 -0.000000
v -0.065820 0.097389 0.185924
v 0.016492 0.138243 0.262077
v -0.002655 0.129490 0.342747
v -0.151064 0.090033 0.058224
v -0.201098 0.135964 0.179769
v -0.158672 0.002237 -0.398519
v -0.110528 0.061616 -0.279122
v -0.056376 0.067609 -0.364020
v -0.025287 0.030458 -0.081118
v -0.164967 0.066213 -0.075020
v 0.008284 -0.006677 0.010827
v -0.068485 0.068381 -0.185888
v -0.178121 0.089826 -0.204624
v -0.173263 0.078787 -0.115764
v -0.039602 0.046705 -0.117630
v -0.213785 0.077091 -0.275744
v -0.201112 0.087380 -0.245388
v -0.092029 0.071145 -0.237974
v 0.075302 0.079475 -0.130257
v 0.030522 0.103619 -0.261308
v 0.069834 0.095048 -0.175888
v -0.011817 0.091923 -0.326283
v -0.285748 0.191009 -0.199754
v -0.346265 0.252264 -0.189587
v -0.364051 0.212278 -0.281217
v -0.097201 0.121263 -0.048531
v -0.188087 0.230985 0.133770
v 0.000000 -0.006677 -0.000000
v -0.178262 0.327880 -0.091368
v -0.324786 0.367980 0.014706
v -0.239261 0.322569 0.083009
v -0.154751 0.209101 -0.075505
v -0.333531 0.327183 -0.160583
v -0.422271 0.267669 -0.028899
v -0.400375 0.307527 -0.011859
v -0.286798 0.365404 -0.131369
v -0.018684 0.175503 -0.219656
v -0.163222 0.352820 -0.292065
v -0.088937 0.261544 -0.276310
v -0.359349 0.278724 -0.315808
v -0.315898 0.359626 -0.319836
v -0.397743 0.216537 -0.100510
v 0.320995 0.303721 -0.419628
v 0.208166 0.259640 -0.258758
v 0.346057 0.311520 -0.244813
v 0.060339 0.099696 -0.072764
v -0.086418 0.211543 -0.190369
v 0.000000 -0.006677 -0.000000
v 0.128540 0.216465 -0.151863
v 0.045035 0.291730 -0.265713
v 0.103647 0.319668 -0.356689
v 0.185993 0.160314 0.037903
v 0.284774 0.279333 -0.066592
v 0.346543 0.109968 0.251840
v 0.309694 0.214130 0.214358
v 0.314810 0.216810 0.334070
v 0.084908 0.085762 0.062413
v 0.203629 0.168844 -0.065419
v 0.000000 -0.006676 -0.000000
v 0.187744 0.197417 0.129515
v 0.318883 0.256205 0.065245
v 0.248245 0.213805 -0.016642
v 0.131524 0.137288 0.094527
v 0.425745 0.190818 0.138885
v 0.385656 0.242753 0.100770
v 0.249714 0.240303 0.166783
v -0.002548 0.136720 0.190990
v 0.129306 0.239099 0.280971
v 0.044714 0.187837 0.243965
v 0.225747 0.283162 0.305361
v 0.004971 0.357283 0.413786
v 0.045121 0.455822 0.304668
v -0.073600 0.409197 0.360570
v 0.002477 0.166169 0.029761
v 0.188593 0.164156 0.147683
v 0.000000 -0.006676 -0.000000
v 0.026866 0.328184 0.098767
v 0.160518 0.323279 0.206222
v 0.182965 0.262021 0.193076
v 0.011328 0.260364 0.062802
v 0.066818 0.438790 0.206998
v 0.155289 0.343855 0.285053
v 0.165423 0.343105 0.248593
v 0.054479 0.405211 0.145719
v -0.168030 0.172375 0.077828
v -0.160961 0.351253 0.164942
v -0.189335 0.283919 0.123999
v -0.088833 0.421931 0.295145
v -0.115026 0.403966 0.213602
v 0.091966 0.390455 0.320673
vt 0.649900 1.000000
vt 0.729300 0.808400
vt 0.654200 0.646500
vt 0.653700 0.189200
vt 0.653700 0.014300
vt 0.529000 0.318800
vt 0.655200 0.431200
vt 0.565900 0.569700
vt 0.560700 0.733500
vt 0.759400 0.264900
vt 0.767300 0.542600
vt 0.649900 1.000000
vt 0.729300 0.808400
vt 0.654200 0.646500
vt 0.653700 0.189200
vt 0.653700 0.014300
vt 0.529000 0.318800
vt 0.655200 0.431200
vt 0.565900 0.569700
vt 0.560700 0.733500
vt 0.759400 0.264900
vt 0.767300 0.542600
vt 0.881700 -0.006200
vt 0.802300 0.185400
vt 0.877300 0.347300
vt 0.877800 0.804600
vt 0.877900 0.979500
vt 1.002600 0.675000
vt 0.876400 0.562600
vt 0.877300 0.719600
vt 0.989600 0.586900
vt 0.965600 0.424100
vt 0.876900 0.443000
vt 0.968500 0.333100
vt 0.970800 0.260300
vt 0.772200 0.728900
vt 0.764200 0.451200
vt 0.769400 0.631300
vt 0.785400 0.303600
vt 0.881700 -0.006200
vt 0.834100 0.108600
vt 0.879000 0.213500
vt 0.877800 0.804600
vt 0.877900 0.979500
vt 1.002600 0.675000
vt 0.876400 0.562600
vt 0.877000 0.670500
vt 0.982100 0.535900
vt 0.965600 0.424100
vt 0.877300 0.347300
vt 0.876900 0.437800
vt 0.968600 0.329100
vt 0.970800 0.260300
vt 0.772200 0.728900
vt 0.764200 0.451200
vt 0.767800 0.574900
vt 0.802300 0.185400
vt 0.786300 0.297000
vt 0.938200 0.162600
vt 0.649900 1.000000
vt 0.729300 0.808400
vt 0.654200 0.646500
vt 0.653700 0.189200
vt 0.653700 0.014300
vt 0.529000 0.318800
vt 0.655200 0.431200
vt 0.565900 0.569700
vt 0.560700 0.733500
vt 0.759400 0.264900
vt 0.767300 0.542600
vt 0.881700 -0.006200
vt 0.802300 0.185400
vt 0.877300 0.347300
vt 0.877800 0.804600
vt 0.877900 0.979500
vt 1.002600 0.675000
vt 0.876400 0.562600
vt 0.877100 0.689700
vt 0.985000 0.555900
vt 0.965600 0.424100
vt 0.876900 0.452100
vt 0.968300 0.340000
vt 0.970800 0.260300
vt 0.772200 0.728900
vt 0.764200 0.451200
vt 0.768400 0.597000
vt 0.783800 0.314800
vt 0.881700 -0.006200
vt 0.830500 0.117300
vt 0.879000 0.209500
vt 0.877800 0.804600
vt 0.877900 0.979500
vt 1.002600 0.675000
vt 0.876400 0.562600
vt 0.877100 0.677300
vt 0.983100 0.543000
vt 0.965600 0.424100
vt 0.877300 0.347300
vt 0.876900 0.437000
vt 0.968700 0.328600
vt 0.970800 0.260300
vt 0.772200 0.728900
vt 0.764200 0.451200
vt 0.768000 0.582800
vt 0.802300 0.185400
vt 0.786400 0.296100
vt 0.936200 0.156800
vt 0.649900 1.000000
vt 0.654200 0.646500
vt 0.729300 0.808400
vt 0.653700 0.189200
vt 0.529000 0.318800
vt 0.653700 0.014300
vt 0.655200 0.431200
vt 0.565900 0.569700
vt 0.560700 0.733500
vt 0.759400 0.264900
vt 0.767300 0.542600
vt 0.649900 1.000000
vt 0.654200 0.646500
vt 0.729300 0.808400
vt 0.653700 0.189200
vt 0.529000 0.318800
vt 0.653700 0.014300
vt 0.655200 0.431200
vt 0.565900 0.569700
vt 0.560700 0.733500
vt 0.759400 0.264900
vt 0.767300 0.542600
vt 0.881700 -0.006200
vt 0.877300 0.347300
vt 0.802300 0.185400
vt 0.877800 0.804600
vt 1.002600 0.675000
vt 0.877900 0.979500
vt 0.876400 0.562600
vt 0.965600 0.424100
vt 0.989600 0.586900
vt 0.877300 0.719600
vt 0.970800 0.260300
vt 0.968500 0.333100
vt 0.876900 0.443000
vt 0.772200 0.728900
vt 0.764200 0.451200
vt 0.769400 0.631300
vt 0.785400 0.303600
vt 0.881700 -0.006200
vt 0.879000 0.213500
vt 0.834100 0.108600
vt 0.877800 0.804600
vt 1.002600 0.675000
vt 0.877900 0.979500
vt 0.876400 0.562600
vt 0.965600 0.424100
vt 0.982100 0.535900
vt 0.877000 0.670500
vt 0.877300 0.347300
vt 0.970800 0.260300
vt 0.968600 0.329100
vt 0.876900 0.437800
vt 0.772200 0.728900
vt 0.764200 0.451200
vt 0.767800 0.574900
vt 0.802300 0.185400
vt 0.786300 0.297000
vt 0.938200 0.162600
vt 0.649900 1.000000
vt 0.654200 0.646500
vt 0.729300 0.808400
vt 0.653700 0.189200
vt 0.529000 0.318800
vt 0.653700 0.014300
vt 0.655200 0.431200
vt 0.565900 0.569700
vt 0.560700 0.733500
vt 0.759400 0.264900
vt 0.767300 0.542600
vt 0.881700 -0.006200
vt 0.877300 0.347300
vt 0.802300 0.185400
vt 0.877800 0.804600
vt 1.002600 0.675000
vt 0.877900 0.979500
vt 0.876400 0.562600
vt 0.965600 0.424100
vt 0.985000 0.555900
vt 0.877100 0.689700
vt 0.970800 0.260300
vt 0.968300 0.340000
vt 0.876900 0.452100
vt 0.772200 0.728900
vt 0.764200 0.451200
vt 0.768400 0.597000
vt 0.783800 0.314800
vt 0.881700 -0.006200
vt 0.879000 0.209500
vt 0.830500 0.117300
vt 0.877800 0.804600
vt 1.002600 0.675000
vt 0.877900 0.979500
vt 0.876400 0.562600
vt 0.965600 0.424100
vt 0.983100 0.543000
vt 0.877100 0.677300
vt 0.877300 0.347300
vt 0.970800 0.260300
vt 0.968700 0.328600
vt 0.876900 0.437000
vt 0.772200 0.728900
vt 0.764200 0.451200
vt 0.768000 0.582800
vt 0.802300 0.185400
vt 0.786400 0.296100
vt 0.936200 0.156800
vn -0.1172 -0.9830 0.1415
vn -0.0107 -0.9151 0.4031
vn -0.0777 -0.9932 0.0872
vn 0.3872 -0.9220 -0.0055
vn 0.4240 -0.9057 0.0040
vn 0.2493 -0.9295 -0.2717
vn 0.1884 -0.9819 0.0169
vn -0.0224 -0.9783 -0.2060
vn -0.1758 -0.9670 -0.1846
vn 0.3524 -0.8615 0.3656
vn 0.1691 -0.9145 0.3676
vn 0.0619 -0.9902 -0.1250
vn -0.2388 -0.9553 -0.1745
vn 0.0826 -0.9942 -0.0689
vn -0.1017 -0.8908 0.4429
vn -0.1240 -0.8833 0.4521
vn 0.1783 -0.8771 0.4460
vn -0.0049 -0.9658 0.2593
vn 0.2935 -0.9441 0.1500
vn 0.3733 -0.9275 -0.0204
vn -0.4001 -0.8906 0.2161
vn -0.3045 -0.9520 0.0313
vn 0.1942 -0.9072 0.3731
vn 0.4102 -0.8938 0.1813
vn 0.0986 -0.9567 0.2737
vn -0.0245 -0.9276 -0.3728
vn -0.0141 -0.9289 -0.3700
vn -0.2355 -0.9361 -0.2614
vn -0.0360 -0.9843 -0.1727
vn -0.0399 -0.9424 -0.3322
vn -0.2092 -0.9593 -0.1899
vn -0.1682 -0.9852 0.0342
vn 0.0118 -0.9981 0.0599
vn -0.1403 -0.9490 0.2824
vn -0.1195 -0.9003 0.4185
vn 0.2582 -0.8958 -0.3617
vn 0.2728 -0.9520 -0.1386
vn 0.2705 -0.9198 -0.2844
vn 0.3299 -0.9429 0.0458
vn 0.7058 0.7082 0.0165
vn 0.9588 0.1504 -0.2409
vn 0.9708 0.1889 0.1481
vn -0.7316 -0.6319 -0.2558
vn -0.7171 -0.6450 -0.2640
vn -0.8327 -0.5495 -0.0679
vn -0.7422 -0.6504 -0.1618
vn -0.8449 -0.4765 -0.2430
vn -0.7229 -0.6699 -0.1693
vn 0.0746 -0.9972 0.0102
vn 0.7456 -0.6373 0.1945
vn 0.1039 -0.9921 0.0707
vn 0.7018 -0.6731 0.2334
vn 0.8350 -0.4226 0.3525
vn -0.5357 -0.7031 -0.4676
vn -0.4299 -0.8721 -0.2339
vn -0.6454 -0.6454 -0.4085
vn 0.9376 -0.3331 -0.1001
vn 0.5315 -0.8396 -0.1120
vn 0.8729 -0.0338 0.4867
vn 0.1051 -0.9754 -0.1935
vn 0.3642 -0.9307 -0.0345
vn 0.1034 -0.9621 -0.2521
vn 0.4072 -0.6753 -0.6150
vn 0.4292 -0.6630 -0.6134
vn 0.1439 -0.6877 -0.7116
vn 0.2773 -0.8165 -0.5064
vn -0.0385 -0.8613 -0.5066
vn -0.1670 -0.9108 -0.3776
vn 0.6181 -0.7231 -0.3083
vn 0.4860 -0.8520 -0.1944
vn -0.8236 -0.4236 -0.3771
vn -0.7642 -0.6396 0.0838
vn -0.5576 -0.7896 -0.2561
vn 0.5512 -0.7527 0.3600
vn 0.5463 -0.7515 0.3698
vn 0.6472 -0.7487 0.1436
vn 0.5186 -0.8078 0.2803
vn 0.5683 -0.7532 0.3311
vn 0.5651 -0.8157 0.1241
vn 0.2003 -0.9786 -0.0474
vn 0.1279 -0.9860 0.1069
vn -0.2891 -0.8771 -0.3835
vn -0.5100 -0.6297 -0.5860
vn 0.3160 -0.7893 0.5264
vn 0.3434 -0.8480 0.4037
vn 0.3213 -0.8144 0.4833
vn -0.1868 -0.9438 0.2726
vn -0.2024 -0.6861 -0.6988
vn 0.0624 -0.9178 -0.3921
vn -0.1658 -0.9627 -0.2137
vn -0.1380 -0.2363 0.9618
vn -0.1700 -0.1647 0.9716
vn -0.5490 -0.2866 0.7852
vn -0.1773 -0.4688 0.8653
vn -0.1585 -0.3855 0.9090
vn -0.5754 -0.3601 0.7343
vn -0.6579 -0.4761 0.5835
vn -0.2919 -0.9063 0.3056
vn -0.2267 -0.6770 0.7002
vn -0.7008 -0.7073 0.0925
vn -0.6773 -0.7133 -0.1804
vn 0.2525 -0.2842 0.9249
vn 0.1725 -0.6382 0.7503
vn 0.2106 -0.4667 0.8590
vn 0.0610 -0.9981 -0.0098
vn 0.1467 -0.8668 0.4766
vn -0.6195 -0.5670 -0.5429
vn 0.1171 0.9830 -0.1417
vn 0.0773 0.9932 -0.0869
vn 0.0100 0.9144 -0.4047
vn -0.3871 0.9220 0.0052
vn -0.2493 0.9291 0.2734
vn -0.4239 0.9057 -0.0040
vn -0.1887 0.9819 -0.0166
vn 0.0228 0.9779 0.2079
vn 0.1760 0.9666 0.1863
vn -0.3525 0.8607 -0.3675
vn -0.1692 0.9139 -0.3689
vn -0.0618 0.9902 0.1250
vn -0.0826 0.9943 0.0680
vn 0.2409 0.9548 0.1744
vn 0.1017 0.8911 -0.4422
vn -0.1797 0.8764 -0.4468
vn 0.1239 0.8834 -0.4520
vn 0.0047 0.9656 -0.2598
vn -0.2952 0.9435 -0.1508
vn -0.3748 0.9269 0.0192
vn 0.4020 0.8901 -0.2150
vn 0.3058 0.9516 -0.0308
vn -0.1941 0.9073 -0.3729
vn -0.0984 0.9568 -0.2734
vn -0.4118 0.8933 -0.1802
vn 0.0244 0.9277 0.3726
vn 0.2364 0.9359 0.2612
vn 0.0141 0.9289 0.3700
vn 0.0360 0.9844 0.1723
vn 0.1692 0.9850 -0.0338
vn 0.2100 0.9591 0.1898
vn 0.0397 0.9425 0.3317
vn 0.1212 0.8999 -0.4189
vn 0.1418 0.9490 -0.2816
vn -0.0117 0.9981 -0.0600
vn -0.2596 0.8954 0.3618
vn -0.2734 0.9518 0.1390
vn -0.2716 0.9193 0.2847
vn -0.3305 0.9427 -0.0449
vn -0.7127 -0.7013 -0.0169
vn -0.9716 -0.1857 -0.1469
vn -0.9566 -0.1548 0.2469
vn 0.7316 0.6319 0.2558
vn 0.8328 0.5495 0.0675
vn 0.7172 0.6450 0.2639
vn 0.7393 0.6540 0.1600
vn -0.0655 0.9978 -0.0030
vn 0.7232 0.6693 0.1704
vn 0.8440 0.4785 0.2423
vn -0.7461 0.6364 -0.1961
vn -0.8332 0.4271 -0.3513
vn -0.6955 0.6821 -0.2259
vn -0.1065 0.9917 -0.0724
vn 0.5339 0.7041 0.4681
vn 0.4289 0.8727 0.2335
vn 0.6443 0.6465 0.4085
vn -0.9360 0.3370 0.1011
vn -0.5275 0.8421 0.1123
vn -0.8715 0.0362 -0.4891
vn -0.1052 0.9754 0.1935
vn -0.1036 0.9620 0.2528
vn -0.3656 0.9302 0.0339
vn -0.4071 0.6757 0.6146
vn -0.1430 0.6871 0.7123
vn -0.4292 0.6630 0.6134
vn -0.2772 0.8163 0.5068
vn 0.0396 0.8607 0.5075
vn 0.1679 0.9102 0.3787
vn -0.6191 0.7229 0.3069
vn -0.4868 0.8518 0.1936
vn 0.8223 0.4265 0.3767
vn 0.5550 0.7911 0.2571
vn 0.7640 0.6394 -0.0865
vn -0.5511 0.7528 -0.3600
vn -0.6476 0.7484 -0.1431
vn -0.5463 0.7515 -0.3698
vn -0.5167 0.8095 -0.2788
vn -0.2037 0.9781 0.0435
vn -0.5653 0.8155 -0.1239
vn -0.5680 0.7536 -0.3309
vn 0.5078 0.6316 0.5858
vn 0.2841 0.8804 0.3797
vn -0.1248 0.9866 -0.1049
vn -0.3151 0.7892 -0.5271
vn -0.3412 0.8490 -0.4034
vn -0.3209 0.8143 -0.4837
vn 0.1879 0.9433 -0.2736
vn 0.2028 0.6885 0.6963
vn 0.1667 0.9624 0.2146
vn -0.0627 0.9192 0.3887
vn 0.1380 0.2365 -0.9618
vn 0.5475 0.2871 -0.7860
vn 0.1699 0.1649 -0.9716
vn 0.1776 0.4700 -0.8646
vn 0.6557 0.4737 -0.5879
vn 0.5737 0.3602 -0.7356
vn 0.1584 0.3856 -0.9090
vn 0.2924 0.9074 -0.3019
vn 0.6805 0.7130 0.1692
vn 0.7031 0.7031 -0.1060
vn 0.2269 0.6795 -0.6977
vn -0.2505 0.2849 -0.9253
vn -0.1710 0.6380 -0.7508
vn -0.2090 0.4665 -0.8595
vn -0.0612 0.9981 0.0054
vn -0.1450 0.8663 -0.4780
vn 0.6226 0.5759 0.5298
s 1
f 1/1/1 2/2/2 3/3/3
f 4/4/4 5/5/5 6/6/6
f 7/7/7 4/4/4 6/6/6
f 6/6/6 8/8/8 7/7/7
f 3/3/3 7/7/7 8/8/8
f 8/8/8 9/9/9 3/3/3
f 10/10/10 5/5/5 4/4/4
f 11/11/11 10/10/10 4/4/4
f 4/4/4 7/7/7 11/11/11
f 2/2/2 11/11/11 7/7/7
f 7/7/7 3/3/3 2/2/2
f 1/1/1 3/3/3 9/9/9
s 2
f 12/12/12 13/13/13 14/14/14
f 15/15/15 16/16/16 17/17/17
f 18/18/18 15/15/15 17/17/17
f 17/17/17 19/19/19 18/18/18
f 14/14/14 18/18/18 19/19/19
f 19/19/19 20/20/20 14/14/14
f 21/21/21 16/16/16 15/15/15
f 22/22/22 21/21/21 15/15/15
f 15/15/15 18/18/18 22/22/22
f 13/13/13 22/22/22 18/18/18
f 18/18/18 14/14/14 13/13/13
f 12/12/12 14/14/14 20/20/20
s 3
f 23/23/23 24/24/24 25/25/25
f 26/26/26 27/27/27 28/28/28
f 29/29/29 30/30/30 31/31/31
f 31/31/31 32/32/32 29/29/29
f 25/25/25 33/33/33 34/34/34
f 34/34/34 35/35/35 25/25/25
f 36/36/36 27/27/27 26/26/26
f 37/37/37 38/38/38 30/30/30
f 30/30/30 29/29/29 37/37/37
f 24/24/24 39/39/39 33/33/33
f 33/33/33 25/25/25 24/24/24
f 23/23/23 25/25/25 35/35/35
s 4
f 40/40/40 41/41/41 42/42/42
f 43/43/43 44/44/44 45/45/45
f 46/46/46 47/47/47 48/48/48
f 48/48/48 49/49/49 46/46/46
f 50/50/50 51/51/51 52/52/52
f 52/52/52 53/53/53 50/50/50
f 54/54/54 44/44/44 43/43/43
f 55/55/55 56/56/56 47/47/47
f 47/47/47 46/46/46 55/55/55
f 57/57/57 58/58/58 51/51/51
f 51/51/51 50/50/50 57/57/57
f 40/40/40 42/42/42 59/59/59
s 5
f 60/60/60 61/61/61 62/62/62
f 63/63/63 64/64/64 65/65/65
f 66/66/66 63/63/63 65/65/65
f 65/65/65 67/67/67 66/66/66
f 62/62/62 66/66/66 67/67/67
f 67/67/67 68/68/68 62/62/62
f 69/69/69 64/64/64 63/63/63
f 70/70/70 69/69/69 63/63/63
f 63/63/63 66/66/66 70/70/70
f 61/61/61 70/70/70 66/66/66
f 66/66/66 62/62/62 61/61/61
f 60/60/60 62/62/62 68/68/68
s 6
f 71/71/71 72/72/72 73/73/73
f 74/74/74 75/75/75 76/76/76
f 77/77/77 78/78/78 79/79/79
f 79/79/79 80/80/80 77/77/77
f 73/73/73 81/81/81 82/82/82
f 82/82/82 83/83/83 73/73/73
f 84/84/84 75/75/75 74/74/74
f 85/85/85 86/86/86 78/78/78
f 78/78/78 77/77/77 85/85/85
f 72/72/72 87/87/87 81/81/81
f 81/81/81 73/73/73 72/72/72
f 71/71/71 73/73/73 83/83/83
s 7
f 88/88/88 89/89/89 90/90/90
f 91/91/91 92/92/92 93/93/93
f 94/94/94 95/95/95 96/96/96
f 96/96/96 97/97/97 94/94/94
f 98/98/98 99/99/99 100/100/100
f 100/100/100 101/101/101 98/98/98
f 102/102/102 92/92/92 91/91/91
f 103/103/103 104/104/104 95/95/95
f 95/95/95 94/94/94 103/103/103
f 105/105/105 106/106/106 99/99/99
f 99/99/99 98/98/98 105/105/105
f 88/88/88 90/90/90 107/107/107
f 95/95/95 91/91/91 93/93/93
f 93/93/93 96/96/96 95/95/95
f 104/104/104 102/102/102 91/91/91
f 91/91/91 95/95/95 104/104/104
f 99/99/99 94/94/94 97/97/97
f 97/97/97 100/100/100 99/99/99
f 106/106/106 103/103/103 94/94/94
f 94/94/94 99/99/99 106/106/106
s 4
f 47/47/47 43/43/43 45/45/45
f 45/45/45 48/48/48 47/47/47
f 56/56/56 54/54/54 43/43/43
f 43/43/43 47/47/47 56/56/56
f 51/51/51 46/46/46 49/49/49
f 49/49/49 52/52/52 51/51/51
f 58/58/58 55/55/55 46/46/46
f 46/46/46 51/51/51 58/58/58
s 6
f 81/81/81 77/77/77 80/80/80
f 80/80/80 82/82/82 81/81/81
f 87/87/87 85/85/85 77/77/77
f 77/77/77 81/81/81 87/87/87
f 78/78/78 74/74/74 76/76/76
f 76/76/76 79/79/79 78/78/78
f 86/86/86 84/84/84 74/74/74
f 74/74/74 78/78/78 86/86/86
s 3
f 33/33/33 29/29/29 32/32/32
f 32/32/32 34/34/34 33/33/33
f 39/39/39 37/37/37 29/29/29
f 29/29/29 33/33/33 39/39/39
f 30/30/30 26/26/26 28/28/28
f 28/28/28 31/31/31 30/30/30
f 38/38/38 36/36/36 26/26/26
f 26/26/26 30/30/30 38/38/38
s 7
f 90/90/90 98/98/98 101/101/101
f 101/101/101 107/107/107 90/90/90
f 89/89/89 105/105/105 98/98/98
f 98/98/98 90/90/90 89/89/89
s 4
f 42/42/42 50/50/50 53/53/53
f 53/53/53 59/59/59 42/42/42
f 41/41/41 57/57/57 50/50/50
f 50/50/50 42/42/42 41/41/41
s 8
f 108/108/108 109/109/109 110/110/110
f 111/111/111 112/112/112 113/113/113
f 114/114/114 115/115/115 112/112/112
f 112/112/112 111/111/111 114/114/114
f 109/109/109 116/116/116 115/115/115
f 115/115/115 114/114/114 109/109/109
f 117/117/117 111/111/111 113/113/113
f 118/118/118 114/114/114 111/111/111
f 111/111/111 117/117/117 118/118/118
f 110/110/110 109/109/109 114/114/114
f 114/114/114 118/118/118 110/110/110
f 108/108/108 116/116/116 109/109/109
s 9
f 119/119/119 120/120/120 121/121/121
f 122/122/122 123/123/123 124/124/124
f 125/125/125 126/126/126 123/123/123
f 123/123/123 122/122/122 125/125/125
f 120/120/120 127/127/127 126/126/126
f 126/126/126 125/125/125 120/120/120
f 128/128/128 122/122/122 124/124/124
f 129/129/129 125/125/125 122/122/122
f 122/122/122 128/128/128 129/129/129
f 121/121/121 120/120/120 125/125/125
f 125/125/125 129/129/129 121/121/121
f 119/119/119 127/127/127 120/120/120
s 10
f 130/130/130 131/131/131 132/132/132
f 133/133/133 134/134/134 135/135/135
f 136/136/136 137/137/137 138/138/138
f 138/138/138 139/139/139 136/136/136
f 131/131/131 140/140/140 141/141/141
f 141/141/141 142/142/142 131/131/131
f 143/143/143 133/133/133 135/135/135
f 144/144/144 136/136/136 139/139/139
f 139/139/139 145/145/145 144/144/144
f 132/132/132 131/131/131 142/142/142
f 142/142/142 146/146/146 132/132/132
f 130/130/130 140/140/140 131/131/131
s 11
f 147/147/147 148/148/148 149/149/149
f 150/150/150 151/151/151 152/152/152
f 153/153/153 154/154/154 155/155/155
f 155/155/155 156/156/156 153/153/153
f 157/157/157 158/158/158 159/159/159
f 159/159/159 160/160/160 157/157/157
f 161/161/161 150/150/150 152/152/152
f 162/162/162 153/153/153 156/156/156
f 156/156/156 163/163/163 162/162/162
f 164/164/164 157/157/157 160/160/160
f 160/160/160 165/165/165 164/164/164
f 147/147/147 166/166/166 148/148/148
s 12
f 167/167/167 168/168/168 169/169/169
f 170/170/170 171/171/171 172/172/172
f 173/173/173 174/174/174 171/171/171
f 171/171/171 170/170/170 173/173/173
f 168/168/168 175/175/175 174/174/174
f 174/174/174 173/173/173 168/168/168
f 176/176/176 170/170/170 172/172/172
f 177/177/177 173/173/173 170/170/170
f 170/170/170 176/176/176 177/177/177
f 169/169/169 168/168/168 173/173/173
f 173/173/173 177/177/177 169/169/169
f 167/167/167 175/175/175 168/168/168
s 13
f 178/178/178 179/179/179 180/180/180
f 181/181/181 182/182/182 183/183/183
f 184/184/184 185/185/185 186/186/186
f 186/186/186 187/187/187 184/184/184
f 179/179/179 188/188/188 189/189/189
f 189/189/189 190/190/190 179/179/179
f 191/191/191 181/181/181 183/183/183
f 192/192/192 184/184/184 187/187/187
f 187/187/187 193/193/193 192/192/192
f 180/180/180 179/179/179 190/190/190
f 190/190/190 194/194/194 180/180/180
f 178/178/178 188/188/188 179/179/179
s 14
f 195/195/195 196/196/196 197/197/197
f 198/198/198 199/199/199 200/200/200
f 201/201/201 202/202/202 203/203/203
f 203/203/203 204/204/204 201/201/201
f 205/205/205 206/206/206 207/207/207
f 207/207/207 208/208/208 205/205/205
f 209/209/209 198/198/198 200/200/200
f 210/210/210 201/201/201 204/204/204
f 204/204/204 211/211/211 210/210/210
f 212/212/212 205/205/205 208/208/208
f 208/208/208 213/213/213 212/212/212
f 195/195/195 214/214/214 196/196/196
f 204/204/204 203/203/203 199/199/199
f 199/199/199 198/198/198 204/204/204
f 211/211/211 204/204/204 198/198/198
f 198/198/198 209/209/209 211/211/211
f 208/208/208 207/207/207 202/202/202
f 202/202/202 201/201/201 208/208/208
f 213/213/213 208/208/208 201/201/201
f 201/201/201 210/210/210 213/213/213
s 11
f 156/156/156 155/155/155 151/151/151
f 151/151/151 150/150/150 156/156/156
f 163/163/163 156/156/156 150/150/150
f 150/150/150 161/161/161 163/163/163
f 160/160/160 159/159/159 154/154/154
f 154/154/154 153/153/153 160/160/160
f 165/165/165 160/160/160 153/153/153
f 153/153/153 162/162/162 165/165/165
s 13
f 190/190/190 189/189/189 185/185/185
f 185/185/185 184/184/184 190/190/190
f 194/194/194 190/190/190 184/184/184
f 184/184/184 192/192/192 194/194/194
f 187/187/187 186/186/186 182/182/182
f 182/182/182 181/181/181 187/187/187
f 193/193/193 187/187/187 181/181/181
f 181/181/181 191/191/191 193/193/193
s 10
f 142/142/142 141/141/141 137/137/137
f 137/137/137 136/136/136 142/142/142
f 146/146/146 142/142/142 136/136/136
f 136/136/136 144/144/144 146/146/146
f 139/139/139 138/138/138 134/134/134
f 134/134/134 133/133/133 139/139/139
f 145/145/145 139/139/139 133/133/133
f 133/133/133 143/143/143 145/145/145
s 14
f 196/196/196 214/214/214 206/206/206
f 206/206/206 205/205/205 196/196/196
f 197/197/197 196/196/196 205/205/205
f 205/205/205 212/212/212 197/197/197
s 11
f 148/148/148 166/166/166 158/158/158
f 158/158/158 157/157/157 148/148/148
f 149/149/149 148/148/148 157/157/157
f 157/157/157 164/164/164 149/149/149
