# Blender v3.3.0 OBJ File: ''
# www.blender.org
o FernStage02.005
v 0.001071 -0.008838 -0.000072
v 0.032512 0.059255 -0.090920
v -0.147141 0.126119 -0.140834
v 0.045489 0.073021 -0.395636
v 0.116597 0.117838 -0.393404
v -0.000395 0.042840 -0.461561
v 0.232372 0.135795 -0.153978
v 0.046302 0.110724 -0.193832
v -0.098686 0.148494 -0.282620
v 0.184152 0.168647 -0.312349
v 0.065517 0.108435 -0.308965
v -0.012895 0.095356 -0.376771
v -0.488849 0.025908 -0.184440
v -0.336109 0.103535 -0.117250
v -0.352441 0.110702 -0.219446
v -0.120896 0.105963 -0.232430
v -0.136085 0.072910 -0.054959
v 0.001071 -0.008838 -0.000072
v 0.002053 0.036498 -0.201490
v -0.254222 0.143887 -0.225645
v -0.233275 0.105458 -0.082659
v -0.435812 0.112555 -0.086606
v -0.373685 0.174720 -0.026734
v -0.237716 0.181242 0.045950
v -0.131189 0.135236 0.090329
v 0.466278 0.131587 0.204690
v 0.314530 0.170822 0.111879
v 0.320471 0.205516 0.210369
v 0.090164 0.175669 0.207942
v 0.124791 0.100879 0.044486
v 0.001071 -0.008838 -0.000071
v -0.022789 0.085605 0.184837
v 0.219678 0.227032 0.202221
v 0.215702 0.151286 0.070838
v 0.415459 0.184103 0.087124
v 0.354163 0.221413 0.011098
v 0.225686 0.192636 -0.070138
v 0.128253 0.123872 -0.110307
v 0.001071 -0.008838 -0.000072
v -0.046864 0.071359 0.073583
v 0.115544 0.183211 0.113396
v -0.082411 0.153086 0.367290
v -0.159296 0.181267 0.353951
v -0.036956 0.148744 0.438985
v -0.266287 0.119688 0.105158
v -0.075611 0.141974 0.162893
v 0.054775 0.228038 0.245613
v -0.228015 0.191422 0.263050
v -0.101902 0.162795 0.275014
v -0.027357 0.181826 0.345918
v 0.001071 -0.008838 -0.000072
v 0.034678 0.037220 0.055077
v 0.147648 0.062827 -0.009354
v 0.174749 0.039552 0.205407
v 0.143694 0.076468 0.236163
v 0.225406 0.013172 0.216250
v -0.029872 0.109487 0.175815
v 0.081064 0.070142 0.108295
v 0.194131 0.078722 0.080038
v 0.076014 0.115234 0.227719
v 0.126721 0.067435 0.172211
v 0.194797 0.049212 0.167773
v -0.240386 0.162143 -0.438238
v -0.170147 0.192201 -0.273173
v -0.114045 0.223016 -0.355656
v 0.067029 0.173613 -0.218006
v -0.063174 0.109150 -0.107637
v 0.001071 -0.008838 -0.000072
v 0.136860 0.075199 -0.133840
v -0.036203 0.236144 -0.289231
v -0.116576 0.166027 -0.181934
v -0.264711 0.215167 -0.312669
v -0.257346 0.250351 -0.214621
v -0.204419 0.214162 -0.073565
v -0.155403 0.139036 0.015482
v 0.482967 0.078983 -0.214589
v 0.320639 0.138423 -0.159112
v 0.403723 0.156905 -0.097345
v 0.243802 0.138422 0.073237
v 0.132334 0.088934 -0.063647
v -0.002412 -0.005909 -0.004923
v 0.135607 0.059005 0.138862
v 0.334695 0.183707 -0.025651
v 0.221194 0.130074 -0.112457
v 0.371644 0.150694 -0.250780
v 0.281398 0.201616 -0.252585
v 0.130869 0.191750 -0.210375
v 0.024159 0.135086 -0.166597
v -0.136236 0.358393 0.393230
v -0.008075 0.362540 0.183363
v -0.135212 0.343640 0.233813
v -0.143099 0.241226 0.017911
v 0.040741 0.234110 0.027666
v 0.018997 -0.007769 -0.015498
v -0.141051 0.118698 -0.069404
v -0.128678 0.304952 0.131085
v 0.028054 0.314318 0.094510
v -0.018815 0.321031 0.336635
v 0.057556 0.292088 0.271773
v 0.132550 0.228817 0.158634
v 0.155905 0.126604 0.082244
v -0.001480 0.333432 -0.380139
v -0.020843 0.298468 -0.202558
v 0.070719 0.289896 -0.287281
v 0.164542 0.151088 -0.106896
v -0.005765 0.150919 -0.041222
v 0.000880 -0.004713 0.042058
v 0.186978 0.020636 -0.034435
v 0.107445 0.248437 -0.194976
v -0.017687 0.236482 -0.110296
v -0.081654 0.291142 -0.324449
v -0.122371 0.270901 -0.232374
v -0.143720 0.183568 -0.102392
v -0.142373 0.076674 -0.028665
v 0.001016 -0.007741 -0.000139
v -0.107650 0.030111 0.013221
v -0.094029 0.084638 0.197629
v -0.326829 0.048867 0.099702
v -0.363851 0.071367 0.049762
v -0.354037 0.023470 0.151898
v -0.260879 0.074002 -0.142967
v -0.201624 0.061265 0.042512
v -0.217635 0.083211 0.194747
v -0.353335 0.079873 -0.027241
v -0.282409 0.055209 0.062847
v -0.296099 0.063031 0.141017
v 0.001221 -0.010882 -0.001316
v -0.147463 0.123867 -0.141679
v 0.032844 0.057058 -0.091873
v 0.045970 0.070705 -0.395058
v -0.000170 0.040531 -0.460823
v 0.117637 0.115684 -0.393093
v 0.233279 0.133588 -0.154381
v -0.099087 0.146086 -0.282808
v 0.046587 0.108304 -0.194087
v 0.185095 0.166414 -0.312340
v -0.013314 0.093064 -0.376074
v 0.065909 0.106054 -0.308571
v -0.488134 0.023662 -0.183870
v -0.351704 0.108415 -0.219817
v -0.335771 0.101179 -0.116709
v -0.121640 0.103692 -0.232858
v 0.001116 0.034311 -0.201913
v 0.000000 -0.010999 -0.000000
v -0.137019 0.070684 -0.054757
v -0.254275 0.141479 -0.226088
v -0.233669 0.103073 -0.082285
v -0.435696 0.110568 -0.085284
v -0.373972 0.172668 -0.025526
v -0.238554 0.179194 0.046874
v -0.132354 0.133293 0.091074
v 0.465817 0.129185 0.204586
v 0.319902 0.203310 0.211183
v 0.314450 0.168367 0.111854
v 0.091058 0.173674 0.208911
v -0.021712 0.083713 0.185796
v 0.002326 -0.010812 0.000412
v 0.125927 0.098793 0.044848
v 0.219895 0.224824 0.203187
v 0.216333 0.148937 0.071031
v 0.415640 0.181835 0.086275
v 0.354738 0.219161 0.010402
v 0.226781 0.190528 -0.070522
v 0.129645 0.121952 -0.110518
v 0.001319 -0.010473 0.001597
v 0.116164 0.181314 0.114690
v -0.046652 0.069500 0.075044
v -0.082474 0.150633 0.367190
v -0.036757 0.146313 0.438735
v -0.159913 0.178908 0.354082
v -0.266394 0.117573 0.106303
v 0.055542 0.225853 0.246302
v -0.075329 0.139724 0.163755
v -0.228338 0.189078 0.263644
v -0.026532 0.179550 0.345722
v -0.101839 0.160343 0.275128
v 0.001765 -0.010891 0.000957
v 0.148221 0.060517 -0.008841
v 0.035126 0.035032 0.055999
v 0.173748 0.037352 0.205487
v 0.224472 0.010948 0.216036
v 0.142544 0.074470 0.236800
v -0.029927 0.107259 0.176764
v 0.194277 0.076271 0.080042
v 0.081005 0.067743 0.108774
v 0.075367 0.113022 0.228458
v 0.194342 0.046909 0.167132
v 0.125944 0.065133 0.172345
v -0.240270 0.159715 -0.437913
v -0.113286 0.220734 -0.356006
v -0.170294 0.189751 -0.273139
v 0.066723 0.171661 -0.219343
v 0.136408 0.073367 -0.135275
v 0.000190 -0.010718 -0.001230
v -0.064040 0.107154 -0.108629
v -0.035986 0.233922 -0.290169
v -0.117157 0.163733 -0.182494
v -0.265539 0.212960 -0.312122
v -0.258398 0.248187 -0.214431
v -0.205693 0.212172 -0.073931
v -0.156799 0.137251 0.014802
v 0.482152 0.076672 -0.214427
v 0.403552 0.154648 -0.096490
v 0.320127 0.136031 -0.159187
v 0.244754 0.136283 0.073101
v 0.136692 0.056961 0.138586
v -0.001576 -0.007969 -0.005649
v 0.132981 0.086788 -0.064368
v 0.335158 0.181390 -0.025290
v 0.221334 0.127720 -0.112921
v 0.370729 0.148600 -0.251583
v 0.280860 0.199496 -0.253584
v 0.130933 0.189700 -0.211554
v 0.024582 0.133179 -0.167879
v -0.136542 0.355970 0.392987
v -0.134797 0.341287 0.234279
v -0.008588 0.360164 0.183608
v -0.143347 0.239770 0.019702
v -0.141640 0.117938 -0.067343
v 0.018046 -0.008489 -0.013563
v 0.039809 0.232742 0.029286
v -0.128356 0.302844 0.132180
v 0.027351 0.312148 0.095288
v -0.019869 0.318912 0.336158
v 0.056098 0.290207 0.271730
v 0.130978 0.227388 0.159581
v 0.154480 0.125980 0.083898
v -0.001330 0.331017 -0.380525
v 0.070090 0.287642 -0.287920
v -0.020778 0.296141 -0.203280
v 0.163876 0.149580 -0.108551
v 0.186324 0.019381 -0.036264
v 0.000667 -0.006026 0.040160
v -0.005872 0.149361 -0.042966
v 0.106776 0.246447 -0.196120
v -0.017704 0.234456 -0.111575
v -0.080874 0.288884 -0.324880
v -0.121693 0.268770 -0.233271
v -0.143191 0.181891 -0.103957
v -0.141945 0.075370 -0.030531
v 0.000385 -0.010055 0.000280
v -0.094347 0.082268 0.198129
v -0.108171 0.027743 0.013519
v -0.326502 0.046486 0.099253
v -0.353283 0.021228 0.151368
v -0.363998 0.069001 0.049174
v -0.261337 0.071597 -0.142956
v -0.217651 0.080792 0.195142
v -0.201816 0.058824 0.042666
v -0.353619 0.077449 -0.027463
v -0.295517 0.060663 0.141167
v -0.282362 0.052760 0.062687
vt 0.411600 1.000000
vt 0.399800 0.800700
vt 0.562400 0.723100
vt 0.432000 0.184400
vt 0.372000 0.181000
vt 0.494400 0.068600
vt 0.234100 0.597600
vt 0.403500 0.587600
vt 0.540500 0.443500
vt 0.303300 0.312400
vt 0.402700 0.356300
vt 0.479800 0.236400
vt 0.171300 1.000000
vt 0.136700 0.620800
vt 0.216200 0.740800
vt 0.277300 0.371600
vt 0.132800 0.275000
vt 0.129200 0.000100
vt 0.288800 0.131200
vt 0.237600 0.585300
vt 0.129900 0.431300
vt 0.088700 0.830300
vt 0.043400 0.698200
vt 0.011300 0.448800
vt 0.005500 0.241100
vt 0.171300 1.000000
vt 0.136700 0.620800
vt 0.216200 0.740800
vt 0.277300 0.371600
vt 0.132800 0.275000
vt 0.129200 0.000100
vt 0.288800 0.131200
vt 0.237600 0.585300
vt 0.129900 0.431300
vt 0.088700 0.830300
vt 0.043400 0.698200
vt 0.011300 0.448800
vt 0.005500 0.241100
vt 0.411600 1.000000
vt 0.399800 0.800700
vt 0.562400 0.723100
vt 0.432000 0.184400
vt 0.372000 0.181000
vt 0.494400 0.068600
vt 0.234100 0.597600
vt 0.403500 0.587600
vt 0.540500 0.443500
vt 0.303300 0.312400
vt 0.402700 0.356300
vt 0.479800 0.236400
vt 0.411600 1.000000
vt 0.399800 0.800700
vt 0.562400 0.723100
vt 0.432000 0.184400
vt 0.372000 0.181000
vt 0.494400 0.068600
vt 0.234100 0.597600
vt 0.403500 0.587600
vt 0.540500 0.443500
vt 0.303300 0.312400
vt 0.402700 0.356300
vt 0.479800 0.236400
vt 0.171300 1.000000
vt 0.136700 0.620800
vt 0.216200 0.740800
vt 0.277300 0.371600
vt 0.132800 0.275000
vt 0.129200 0.000100
vt 0.288800 0.131200
vt 0.237600 0.585300
vt 0.129900 0.431300
vt 0.088700 0.830300
vt 0.043400 0.698200
vt 0.011300 0.448800
vt 0.005500 0.241100
vt 0.171300 1.000000
vt 0.136700 0.620800
vt 0.216200 0.740800
vt 0.277300 0.371600
vt 0.132800 0.275000
vt 0.129200 0.000100
vt 0.288800 0.131200
vt 0.237600 0.585300
vt 0.129900 0.431300
vt 0.088700 0.830300
vt 0.043400 0.698200
vt 0.011300 0.448800
vt 0.005500 0.241100
vt 0.171300 1.000000
vt 0.136700 0.620800
vt 0.216200 0.740800
vt 0.277300 0.371600
vt 0.132800 0.275000
vt 0.129200 0.000100
vt 0.288800 0.131200
vt 0.237600 0.585300
vt 0.129900 0.431300
vt 0.088700 0.830300
vt 0.043400 0.698200
vt 0.011300 0.448800
vt 0.005500 0.241100
vt 0.171300 1.000000
vt 0.136700 0.620800
vt 0.216200 0.740800
vt 0.277300 0.371600
vt 0.132800 0.275000
vt 0.129200 0.000100
vt 0.288800 0.131200
vt 0.237600 0.585300
vt 0.129900 0.431300
vt 0.088700 0.830300
vt 0.043400 0.698200
vt 0.011300 0.448800
vt 0.005500 0.241100
vt 0.411600 1.000000
vt 0.399800 0.800700
vt 0.562400 0.723100
vt 0.432000 0.184400
vt 0.372000 0.181000
vt 0.494400 0.068600
vt 0.234100 0.597600
vt 0.403500 0.587600
vt 0.540500 0.443500
vt 0.303300 0.312400
vt 0.402700 0.356300
vt 0.479800 0.236400
vt 0.411600 1.000000
vt 0.562400 0.723100
vt 0.399800 0.800700
vt 0.432000 0.184400
vt 0.494400 0.068600
vt 0.372000 0.181000
vt 0.234100 0.597600
vt 0.540500 0.443500
vt 0.403500 0.587600
vt 0.303300 0.312400
vt 0.479800 0.236400
vt 0.402700 0.356300
vt 0.171300 1.000000
vt 0.216200 0.740800
vt 0.136700 0.620800
vt 0.277300 0.371600
vt 0.288800 0.131200
vt 0.129200 0.000100
vt 0.132800 0.275000
vt 0.237600 0.585300
vt 0.129900 0.431300
vt 0.088700 0.830300
vt 0.043400 0.698200
vt 0.011300 0.448800
vt 0.005500 0.241100
vt 0.171300 1.000000
vt 0.216200 0.740800
vt 0.136700 0.620800
vt 0.277300 0.371600
vt 0.288800 0.131200
vt 0.129200 0.000100
vt 0.132800 0.275000
vt 0.237600 0.585300
vt 0.129900 0.431300
vt 0.088700 0.830300
vt 0.043400 0.698200
vt 0.011300 0.448800
vt 0.005500 0.241100
vt 0.411600 1.000000
vt 0.562400 0.723100
vt 0.399800 0.800700
vt 0.432000 0.184400
vt 0.494400 0.068600
vt 0.372000 0.181000
vt 0.234100 0.597600
vt 0.540500 0.443500
vt 0.403500 0.587600
vt 0.303300 0.312400
vt 0.479800 0.236400
vt 0.402700 0.356300
vt 0.411600 1.000000
vt 0.562400 0.723100
vt 0.399800 0.800700
vt 0.432000 0.184400
vt 0.494400 0.068600
vt 0.372000 0.181000
vt 0.234100 0.597600
vt 0.540500 0.443500
vt 0.403500 0.587600
vt 0.303300 0.312400
vt 0.479800 0.236400
vt 0.402700 0.356300
vt 0.171300 1.000000
vt 0.216200 0.740800
vt 0.136700 0.620800
vt 0.277300 0.371600
vt 0.288800 0.131200
vt 0.129200 0.000100
vt 0.132800 0.275000
vt 0.237600 0.585300
vt 0.129900 0.431300
vt 0.088700 0.830300
vt 0.043400 0.698200
vt 0.011300 0.448800
vt 0.005500 0.241100
vt 0.171300 1.000000
vt 0.216200 0.740800
vt 0.136700 0.620800
vt 0.277300 0.371600
vt 0.288800 0.131200
vt 0.129200 0.000100
vt 0.132800 0.275000
vt 0.237600 0.585300
vt 0.129900 0.431300
vt 0.088700 0.830300
vt 0.043400 0.698200
vt 0.011300 0.448800
vt 0.005500 0.241100
vt 0.171300 1.000000
vt 0.216200 0.740800
vt 0.136700 0.620800
vt 0.277300 0.371600
vt 0.288800 0.131200
vt 0.129200 0.000100
vt 0.132800 0.275000
vt 0.237600 0.585300
vt 0.129900 0.431300
vt 0.088700 0.830300
vt 0.043400 0.698200
vt 0.011300 0.448800
vt 0.005500 0.241100
vt 0.171300 1.000000
vt 0.216200 0.740800
vt 0.136700 0.620800
vt 0.277300 0.371600
vt 0.288800 0.131200
vt 0.129200 0.000100
vt 0.132800 0.275000
vt 0.237600 0.585300
vt 0.129900 0.431300
vt 0.088700 0.830300
vt 0.043400 0.698200
vt 0.011300 0.448800
vt 0.005500 0.241100
vt 0.411600 1.000000
vt 0.562400 0.723100
vt 0.399800 0.800700
vt 0.432000 0.184400
vt 0.494400 0.068600
vt 0.372000 0.181000
vt 0.234100 0.597600
vt 0.540500 0.443500
vt 0.403500 0.587600
vt 0.303300 0.312400
vt 0.479800 0.236400
vt 0.402700 0.356300
vn 0.0211 0.7965 0.6043
vn -0.0024 0.8467 0.5320
vn 0.1487 0.9128 0.3803
vn -0.2280 0.9338 -0.2757
vn -0.4905 0.8590 -0.1467
vn -0.1079 0.9302 -0.3507
vn -0.2496 0.9144 0.3188
vn 0.0536 0.9567 0.2862
vn 0.1725 0.9849 0.0139
vn -0.3761 0.9245 0.0612
vn -0.1067 0.9817 -0.1578
vn 0.1773 0.8909 -0.4182
vn -0.3400 0.9013 -0.2685
vn -0.0975 0.9505 -0.2950
vn -0.3518 0.9187 0.1794
vn 0.3571 0.9124 0.2000
vn 0.4586 0.8842 -0.0885
vn 0.5198 0.8539 -0.0256
vn 0.4437 0.8738 0.1989
vn -0.0254 0.9656 0.2588
vn 0.2164 0.9620 -0.1666
vn -0.1248 0.7654 -0.6314
vn 0.0828 0.8139 -0.5750
vn 0.3631 0.8226 -0.4375
vn 0.5265 0.7747 -0.3501
vn 0.2206 0.9740 0.0511
vn -0.0293 0.9985 0.0472
vn 0.2704 0.8811 -0.3879
vn -0.4197 0.7887 -0.4492
vn -0.5489 0.8177 -0.1734
vn -0.5990 0.7675 -0.2286
vn -0.5013 0.7426 -0.4440
vn -0.0460 0.8681 -0.4943
vn -0.3285 0.9390 -0.1018
vn -0.0140 0.9038 0.4277
vn -0.2193 0.9128 0.3446
vn -0.4860 0.8542 0.1848
vn -0.6337 0.7671 0.0998
vn -0.1107 0.6356 -0.7641
vn -0.1065 0.7028 -0.7033
vn -0.2875 0.7607 -0.5819
vn 0.0307 0.9984 0.0482
vn 0.2948 0.9535 -0.0626
vn -0.0946 0.9883 0.1198
vn 0.1206 0.8653 -0.4865
vn -0.2295 0.8317 -0.5056
vn -0.3508 0.9018 -0.2524
vn 0.1754 0.9465 -0.2708
vn -0.0906 0.9925 -0.0821
vn -0.3718 0.9094 0.1866
vn -0.3253 0.8139 -0.4814
vn -0.2485 0.8599 -0.4459
vn -0.2551 0.9381 -0.2343
vn 0.4715 0.8812 -0.0344
vn 0.5366 0.7898 -0.2969
vn 0.4421 0.8911 0.1023
vn 0.1161 0.8784 -0.4637
vn -0.1310 0.9658 -0.2236
vn -0.0009 0.9993 0.0377
vn 0.3228 0.8762 -0.3578
vn 0.3123 0.9492 -0.0375
vn 0.2891 0.8899 0.3529
vn -0.0558 0.9862 -0.1558
vn 0.1450 0.9894 -0.0040
vn -0.3646 0.9160 0.1674
vn 0.1464 0.7696 0.6215
vn 0.4132 0.7768 0.4753
vn 0.4151 0.7256 0.5488
vn 0.2104 0.7173 0.6642
vn -0.1743 0.8812 0.4395
vn 0.2907 0.9116 0.2908
vn 0.3481 0.8807 -0.3212
vn 0.4632 0.8761 -0.1335
vn 0.5760 0.8035 0.1502
vn 0.6358 0.7095 0.3040
vn 0.3231 0.9441 -0.0662
vn 0.1595 0.9797 0.1215
vn 0.0203 0.9171 -0.3982
vn -0.4775 0.8756 0.0728
vn -0.3569 0.8670 0.3478
vn -0.4356 0.8315 0.3448
vn -0.5324 0.8358 0.1337
vn -0.2599 0.9373 -0.2324
vn -0.1492 0.9591 0.2406
vn 0.4367 0.8271 0.3537
vn 0.2450 0.8591 0.4493
vn -0.0528 0.8426 0.5359
vn -0.2219 0.7813 0.5834
vn 0.1424 0.9841 0.1064
vn 0.2262 0.9504 -0.2134
vn -0.1949 0.9546 -0.2252
vn 0.2028 0.6210 -0.7571
vn 0.3521 0.4659 -0.8118
vn 0.3898 0.2365 -0.8900
vn 0.5934 0.4737 -0.6507
vn -0.0905 0.8771 -0.4717
vn 0.3051 0.7974 -0.5207
vn 0.4460 0.8555 0.2629
vn 0.6174 0.7782 0.1150
vn 0.7059 0.6426 -0.2980
vn 0.6249 0.3044 -0.7189
vn -0.0716 0.9801 0.1852
vn 0.0344 0.9117 0.4095
vn 0.2896 0.9088 0.3003
vn 0.2738 0.6065 0.7464
vn 0.0713 0.5675 0.8203
vn 0.1097 0.4833 0.8685
vn 0.2692 0.5026 0.8215
vn 0.2245 0.8342 0.5037
vn 0.0455 0.7562 0.6528
vn -0.3506 0.9289 0.1191
vn -0.3196 0.8915 0.3211
vn -0.2567 0.6745 0.6922
vn -0.1983 0.5068 0.8389
vn 0.3005 0.9328 -0.1989
vn 0.2734 0.9473 -0.1669
vn 0.1286 0.9661 -0.2239
vn -0.1570 0.9641 0.2144
vn 0.0700 0.9616 0.2652
vn -0.3558 0.8998 0.2524
vn 0.2067 0.9758 0.0715
vn 0.1209 0.9769 -0.1764
vn -0.0618 0.9878 -0.1427
vn 0.1328 0.9887 0.0702
vn -0.0200 0.9723 0.2330
vn -0.2924 0.9542 -0.0640
vn -0.0205 -0.7963 -0.6046
vn -0.1480 -0.9130 -0.3800
vn 0.0032 -0.8466 -0.5322
vn 0.2289 -0.9338 0.2750
vn 0.1074 -0.9301 0.3514
vn 0.4895 -0.8595 0.1471
vn 0.2496 -0.9143 -0.3191
vn -0.1718 -0.9850 -0.0136
vn -0.0527 -0.9566 -0.2865
vn 0.3756 -0.9247 -0.0616
vn -0.1753 -0.8910 0.4187
vn 0.1081 -0.9815 0.1583
vn 0.3402 -0.9012 0.2685
vn 0.3515 -0.9191 -0.1778
vn 0.0980 -0.9506 0.2946
vn -0.3575 -0.9124 -0.1995
vn -0.4438 -0.8738 -0.1985
vn -0.5199 -0.8538 0.0258
vn -0.4586 -0.8842 0.0885
vn 0.0251 -0.9660 -0.2572
vn -0.2164 -0.9620 0.1668
vn 0.1263 -0.7660 0.6304
vn -0.0819 -0.8146 0.5742
vn -0.3629 -0.8231 0.4369
vn -0.5263 -0.7751 0.3496
vn -0.2208 -0.9740 -0.0511
vn -0.2700 -0.8818 0.3866
vn 0.0288 -0.9985 -0.0467
vn 0.4202 -0.7887 0.4488
vn 0.5015 -0.7427 0.4437
vn 0.5990 -0.7674 0.2285
vn 0.5489 -0.8177 0.1735
vn 0.0464 -0.8688 0.4929
vn 0.3285 -0.9390 0.1015
vn 0.0125 -0.9043 -0.4266
vn 0.2184 -0.9133 -0.3436
vn 0.4858 -0.8545 -0.1841
vn 0.6335 -0.7673 -0.0992
vn 0.1107 -0.6354 0.7642
vn 0.2873 -0.7610 0.5817
vn 0.1064 -0.7027 0.7034
vn -0.0316 -0.9984 -0.0476
vn 0.0951 -0.9881 -0.1205
vn -0.2937 -0.9539 0.0622
vn -0.1201 -0.8654 0.4864
vn 0.3504 -0.9020 0.2522
vn 0.2290 -0.8317 0.5058
vn -0.1749 -0.9467 0.2706
vn 0.3700 -0.9100 -0.1871
vn 0.0889 -0.9927 0.0812
vn 0.3255 -0.8137 0.4816
vn 0.2546 -0.9382 0.2344
vn 0.2486 -0.8597 0.4462
vn -0.4718 -0.8810 0.0361
vn -0.4422 -0.8909 -0.1035
vn -0.5364 -0.7906 0.2954
vn -0.1159 -0.8787 0.4631
vn 0.0002 -0.9993 -0.0374
vn 0.1308 -0.9657 0.2244
vn -0.3227 -0.8766 0.3571
vn -0.2916 -0.8897 -0.3514
vn -0.3149 -0.9483 0.0384
vn 0.0560 -0.9862 0.1560
vn 0.3634 -0.9166 -0.1665
vn -0.1443 -0.9895 0.0040
vn -0.1470 -0.7696 -0.6214
vn -0.2107 -0.7173 -0.6641
vn -0.4153 -0.7256 -0.5487
vn -0.4132 -0.7767 -0.4753
vn 0.1730 -0.8818 -0.4386
vn -0.2908 -0.9116 -0.2906
vn -0.3463 -0.8814 0.3213
vn -0.4620 -0.8768 0.1333
vn -0.5754 -0.8039 -0.1506
vn -0.6353 -0.7097 -0.3044
vn -0.3232 -0.9440 0.0663
vn -0.0211 -0.9176 0.3970
vn -0.1595 -0.9798 -0.1208
vn 0.4774 -0.8756 -0.0734
vn 0.5323 -0.8359 -0.1340
vn 0.4356 -0.8314 -0.3450
vn 0.3569 -0.8670 -0.3478
vn 0.2590 -0.9378 0.2311
vn 0.1490 -0.9591 -0.2408
vn -0.4370 -0.8277 -0.3519
vn -0.2450 -0.8598 -0.4481
vn 0.0531 -0.8430 -0.5353
vn 0.2222 -0.7816 -0.5829
vn -0.1425 -0.9840 -0.1068
vn 0.1966 -0.9542 0.2253
vn -0.2259 -0.9503 0.2142
vn -0.2029 -0.6207 0.7573
vn -0.5938 -0.4732 0.6507
vn -0.3899 -0.2358 0.8902
vn -0.3519 -0.4654 0.8122
vn 0.0916 -0.8773 0.4711
vn -0.3048 -0.7969 0.5216
vn -0.4465 -0.8549 -0.2642
vn -0.6175 -0.7778 -0.1168
vn -0.7061 -0.6430 0.2966
vn -0.6255 -0.3044 0.7184
vn 0.0718 -0.9801 -0.1850
vn -0.2906 -0.9086 -0.3000
vn -0.0351 -0.9115 -0.4099
vn -0.2741 -0.6064 -0.7464
vn -0.2694 -0.5025 -0.8215
vn -0.1098 -0.4833 -0.8686
vn -0.0713 -0.5673 -0.8204
vn -0.2246 -0.8344 -0.5034
vn -0.0457 -0.7559 -0.6531
vn 0.3516 -0.9286 -0.1184
vn 0.3200 -0.8916 -0.3203
vn 0.2572 -0.6744 -0.6921
vn 0.1988 -0.5067 -0.8389
vn -0.3005 -0.9328 0.1989
vn -0.1285 -0.9661 0.2238
vn -0.2735 -0.9473 0.1669
vn 0.1557 -0.9642 -0.2146
vn 0.3573 -0.8993 -0.2522
vn -0.0696 -0.9620 -0.2639
vn -0.2065 -0.9758 -0.0714
vn 0.0618 -0.9879 0.1425
vn -0.1211 -0.9769 0.1762
vn -0.1328 -0.9887 -0.0701
vn 0.2918 -0.9544 0.0632
vn 0.0208 -0.9723 -0.2330
s 1
f 1/1/1 2/2/2 3/3/3
f 4/4/4 5/5/5 6/6/6
f 1/1/1 7/7/7 2/2/2
f 3/3/3 2/2/2 8/8/8
f 8/8/8 9/9/9 3/3/3
f 2/2/2 7/7/7 10/10/10
f 10/10/10 8/8/8 2/2/2
f 9/9/9 8/8/8 11/11/11
f 11/11/11 12/12/12 9/9/9
f 8/8/8 10/10/10 5/5/5
f 5/5/5 11/11/11 8/8/8
f 12/12/12 11/11/11 4/4/4
f 11/11/11 5/5/5 4/4/4
f 12/12/12 4/4/4 6/6/6
s 2
f 13/13/13 14/14/14 15/15/15
f 16/16/16 17/17/17 18/18/18
f 18/18/18 19/19/19 16/16/16
f 20/20/20 21/21/21 17/17/17
f 17/17/17 16/16/16 20/20/20
f 15/15/15 14/14/14 21/21/21
f 21/21/21 20/20/20 15/15/15
f 22/22/22 14/14/14 13/13/13
f 23/23/23 21/21/21 14/14/14
f 14/14/14 22/22/22 23/23/23
f 24/24/24 17/17/17 21/21/21
f 21/21/21 23/23/23 24/24/24
f 25/25/25 18/18/18 17/17/17
f 17/17/17 24/24/24 25/25/25
s 3
f 26/26/26 27/27/27 28/28/28
f 29/29/29 30/30/30 31/31/31
f 31/31/31 32/32/32 29/29/29
f 33/33/33 34/34/34 30/30/30
f 30/30/30 29/29/29 33/33/33
f 28/28/28 27/27/27 34/34/34
f 34/34/34 33/33/33 28/28/28
f 35/35/35 27/27/27 26/26/26
f 36/36/36 34/34/34 27/27/27
f 27/27/27 35/35/35 36/36/36
f 37/37/37 30/30/30 34/34/34
f 34/34/34 36/36/36 37/37/37
f 38/38/38 31/31/31 30/30/30
f 30/30/30 37/37/37 38/38/38
s 4
f 39/39/39 40/40/40 41/41/41
f 42/42/42 43/43/43 44/44/44
f 39/39/39 45/45/45 40/40/40
f 41/41/41 40/40/40 46/46/46
f 46/46/46 47/47/47 41/41/41
f 40/40/40 45/45/45 48/48/48
f 48/48/48 46/46/46 40/40/40
f 47/47/47 46/46/46 49/49/49
f 49/49/49 50/50/50 47/47/47
f 46/46/46 48/48/48 43/43/43
f 43/43/43 49/49/49 46/46/46
f 50/50/50 49/49/49 42/42/42
f 49/49/49 43/43/43 42/42/42
f 50/50/50 42/42/42 44/44/44
s 5
f 51/51/51 52/52/52 53/53/53
f 54/54/54 55/55/55 56/56/56
f 51/51/51 57/57/57 52/52/52
f 53/53/53 52/52/52 58/58/58
f 58/58/58 59/59/59 53/53/53
f 52/52/52 57/57/57 60/60/60
f 60/60/60 58/58/58 52/52/52
f 59/59/59 58/58/58 61/61/61
f 61/61/61 62/62/62 59/59/59
f 58/58/58 60/60/60 55/55/55
f 55/55/55 61/61/61 58/58/58
f 62/62/62 61/61/61 54/54/54
f 61/61/61 55/55/55 54/54/54
f 62/62/62 54/54/54 56/56/56
s 6
f 63/63/63 64/64/64 65/65/65
f 66/66/66 67/67/67 68/68/68
f 68/68/68 69/69/69 66/66/66
f 70/70/70 71/71/71 67/67/67
f 67/67/67 66/66/66 70/70/70
f 65/65/65 64/64/64 71/71/71
f 71/71/71 70/70/70 65/65/65
f 72/72/72 64/64/64 63/63/63
f 73/73/73 71/71/71 64/64/64
f 64/64/64 72/72/72 73/73/73
f 74/74/74 67/67/67 71/71/71
f 71/71/71 73/73/73 74/74/74
f 75/75/75 68/68/68 67/67/67
f 67/67/67 74/74/74 75/75/75
s 7
f 76/76/76 77/77/77 78/78/78
f 79/79/79 80/80/80 81/81/81
f 81/81/81 82/82/82 79/79/79
f 83/83/83 84/84/84 80/80/80
f 80/80/80 79/79/79 83/83/83
f 78/78/78 77/77/77 84/84/84
f 84/84/84 83/83/83 78/78/78
f 85/85/85 77/77/77 76/76/76
f 86/86/86 84/84/84 77/77/77
f 77/77/77 85/85/85 86/86/86
f 87/87/87 80/80/80 84/84/84
f 84/84/84 86/86/86 87/87/87
f 88/88/88 81/81/81 80/80/80
f 80/80/80 87/87/87 88/88/88
s 8
f 89/89/89 90/90/90 91/91/91
f 92/92/92 93/93/93 94/94/94
f 94/94/94 95/95/95 92/92/92
f 96/96/96 97/97/97 93/93/93
f 93/93/93 92/92/92 96/96/96
f 91/91/91 90/90/90 97/97/97
f 97/97/97 96/96/96 91/91/91
f 98/98/98 90/90/90 89/89/89
f 99/99/99 97/97/97 90/90/90
f 90/90/90 98/98/98 99/99/99
f 100/100/100 93/93/93 97/97/97
f 97/97/97 99/99/99 100/100/100
f 101/101/101 94/94/94 93/93/93
f 93/93/93 100/100/100 101/101/101
s 9
f 102/102/102 103/103/103 104/104/104
f 105/105/105 106/106/106 107/107/107
f 107/107/107 108/108/108 105/105/105
f 109/109/109 110/110/110 106/106/106
f 106/106/106 105/105/105 109/109/109
f 104/104/104 103/103/103 110/110/110
f 110/110/110 109/109/109 104/104/104
f 111/111/111 103/103/103 102/102/102
f 112/112/112 110/110/110 103/103/103
f 103/103/103 111/111/111 112/112/112
f 113/113/113 106/106/106 110/110/110
f 110/110/110 112/112/112 113/113/113
f 114/114/114 107/107/107 106/106/106
f 106/106/106 113/113/113 114/114/114
s 10
f 115/115/115 116/116/116 117/117/117
f 118/118/118 119/119/119 120/120/120
f 115/115/115 121/121/121 116/116/116
f 117/117/117 116/116/116 122/122/122
f 122/122/122 123/123/123 117/117/117
f 116/116/116 121/121/121 124/124/124
f 124/124/124 122/122/122 116/116/116
f 123/123/123 122/122/122 125/125/125
f 125/125/125 126/126/126 123/123/123
f 122/122/122 124/124/124 119/119/119
f 119/119/119 125/125/125 122/122/122
f 126/126/126 125/125/125 118/118/118
f 125/125/125 119/119/119 118/118/118
f 126/126/126 118/118/118 120/120/120
s 11
f 127/127/127 128/128/128 129/129/129
f 130/130/130 131/131/131 132/132/132
f 127/127/127 129/129/129 133/133/133
f 128/128/128 134/134/134 135/135/135
f 135/135/135 129/129/129 128/128/128
f 129/129/129 135/135/135 136/136/136
f 136/136/136 133/133/133 129/129/129
f 134/134/134 137/137/137 138/138/138
f 138/138/138 135/135/135 134/134/134
f 135/135/135 138/138/138 132/132/132
f 132/132/132 136/136/136 135/135/135
f 137/137/137 130/130/130 138/138/138
f 138/138/138 130/130/130 132/132/132
f 137/137/137 131/131/131 130/130/130
s 12
f 139/139/139 140/140/140 141/141/141
f 142/142/142 143/143/143 144/144/144
f 144/144/144 145/145/145 142/142/142
f 146/146/146 142/142/142 145/145/145
f 145/145/145 147/147/147 146/146/146
f 140/140/140 146/146/146 147/147/147
f 147/147/147 141/141/141 140/140/140
f 148/148/148 139/139/139 141/141/141
f 149/149/149 148/148/148 141/141/141
f 141/141/141 147/147/147 149/149/149
f 150/150/150 149/149/149 147/147/147
f 147/147/147 145/145/145 150/150/150
f 151/151/151 150/150/150 145/145/145
f 145/145/145 144/144/144 151/151/151
s 13
f 152/152/152 153/153/153 154/154/154
f 155/155/155 156/156/156 157/157/157
f 157/157/157 158/158/158 155/155/155
f 159/159/159 155/155/155 158/158/158
f 158/158/158 160/160/160 159/159/159
f 153/153/153 159/159/159 160/160/160
f 160/160/160 154/154/154 153/153/153
f 161/161/161 152/152/152 154/154/154
f 162/162/162 161/161/161 154/154/154
f 154/154/154 160/160/160 162/162/162
f 163/163/163 162/162/162 160/160/160
f 160/160/160 158/158/158 163/163/163
f 164/164/164 163/163/163 158/158/158
f 158/158/158 157/157/157 164/164/164
s 14
f 165/165/165 166/166/166 167/167/167
f 168/168/168 169/169/169 170/170/170
f 165/165/165 167/167/167 171/171/171
f 166/166/166 172/172/172 173/173/173
f 173/173/173 167/167/167 166/166/166
f 167/167/167 173/173/173 174/174/174
f 174/174/174 171/171/171 167/167/167
f 172/172/172 175/175/175 176/176/176
f 176/176/176 173/173/173 172/172/172
f 173/173/173 176/176/176 170/170/170
f 170/170/170 174/174/174 173/173/173
f 175/175/175 168/168/168 176/176/176
f 176/176/176 168/168/168 170/170/170
f 175/175/175 169/169/169 168/168/168
s 15
f 177/177/177 178/178/178 179/179/179
f 180/180/180 181/181/181 182/182/182
f 177/177/177 179/179/179 183/183/183
f 178/178/178 184/184/184 185/185/185
f 185/185/185 179/179/179 178/178/178
f 179/179/179 185/185/185 186/186/186
f 186/186/186 183/183/183 179/179/179
f 184/184/184 187/187/187 188/188/188
f 188/188/188 185/185/185 184/184/184
f 185/185/185 188/188/188 182/182/182
f 182/182/182 186/186/186 185/185/185
f 187/187/187 180/180/180 188/188/188
f 188/188/188 180/180/180 182/182/182
f 187/187/187 181/181/181 180/180/180
s 16
f 189/189/189 190/190/190 191/191/191
f 192/192/192 193/193/193 194/194/194
f 194/194/194 195/195/195 192/192/192
f 196/196/196 192/192/192 195/195/195
f 195/195/195 197/197/197 196/196/196
f 190/190/190 196/196/196 197/197/197
f 197/197/197 191/191/191 190/190/190
f 198/198/198 189/189/189 191/191/191
f 199/199/199 198/198/198 191/191/191
f 191/191/191 197/197/197 199/199/199
f 200/200/200 199/199/199 197/197/197
f 197/197/197 195/195/195 200/200/200
f 201/201/201 200/200/200 195/195/195
f 195/195/195 194/194/194 201/201/201
s 17
f 202/202/202 203/203/203 204/204/204
f 205/205/205 206/206/206 207/207/207
f 207/207/207 208/208/208 205/205/205
f 209/209/209 205/205/205 208/208/208
f 208/208/208 210/210/210 209/209/209
f 203/203/203 209/209/209 210/210/210
f 210/210/210 204/204/204 203/203/203
f 211/211/211 202/202/202 204/204/204
f 212/212/212 211/211/211 204/204/204
f 204/204/204 210/210/210 212/212/212
f 213/213/213 212/212/212 210/210/210
f 210/210/210 208/208/208 213/213/213
f 214/214/214 213/213/213 208/208/208
f 208/208/208 207/207/207 214/214/214
s 18
f 215/215/215 216/216/216 217/217/217
f 218/218/218 219/219/219 220/220/220
f 220/220/220 221/221/221 218/218/218
f 222/222/222 218/218/218 221/221/221
f 221/221/221 223/223/223 222/222/222
f 216/216/216 222/222/222 223/223/223
f 223/223/223 217/217/217 216/216/216
f 224/224/224 215/215/215 217/217/217
f 225/225/225 224/224/224 217/217/217
f 217/217/217 223/223/223 225/225/225
f 226/226/226 225/225/225 223/223/223
f 223/223/223 221/221/221 226/226/226
f 227/227/227 226/226/226 221/221/221
f 221/221/221 220/220/220 227/227/227
s 19
f 228/228/228 229/229/229 230/230/230
f 231/231/231 232/232/232 233/233/233
f 233/233/233 234/234/234 231/231/231
f 235/235/235 231/231/231 234/234/234
f 234/234/234 236/236/236 235/235/235
f 229/229/229 235/235/235 236/236/236
f 236/236/236 230/230/230 229/229/229
f 237/237/237 228/228/228 230/230/230
f 238/238/238 237/237/237 230/230/230
f 230/230/230 236/236/236 238/238/238
f 239/239/239 238/238/238 236/236/236
f 236/236/236 234/234/234 239/239/239
f 240/240/240 239/239/239 234/234/234
f 234/234/234 233/233/233 240/240/240
s 20
f 241/241/241 242/242/242 243/243/243
f 244/244/244 245/245/245 246/246/246
f 241/241/241 243/243/243 247/247/247
f 242/242/242 248/248/248 249/249/249
f 249/249/249 243/243/243 242/242/242
f 243/243/243 249/249/249 250/250/250
f 250/250/250 247/247/247 243/243/243
f 248/248/248 251/251/251 252/252/252
f 252/252/252 249/249/249 248/248/248
f 249/249/249 252/252/252 246/246/246
f 246/246/246 250/250/250 249/249/249
f 251/251/251 244/244/244 252/252/252
f 252/252/252 244/244/244 246/246/246
f 251/251/251 245/245/245 244/244/244
