# Blender v3.3.0 OBJ File: ''
# www.blender.org
o FernStage01.005
v 0.000776 -0.012128 0.000243
v 0.047861 0.039431 -0.055269
v -0.065273 0.090059 -0.139727
v 0.140514 0.049854 -0.266803
v 0.190095 0.083789 -0.245743
v 0.126190 0.027001 -0.325909
v 0.206214 0.097385 -0.045018
v 0.085793 0.078402 -0.124133
v 0.007780 0.107001 -0.226533
v 0.215572 0.122260 -0.170019
v 0.130904 0.076669 -0.200137
v 0.094134 0.066765 -0.269484
v 0.273045 0.094199 0.272246
v 0.191362 0.123907 0.165154
v 0.168568 0.150177 0.236302
v 0.006667 0.127577 0.171485
v 0.075897 0.070948 0.065594
v 0.000776 -0.012128 0.000243
v -0.066732 0.059382 0.124226
v 0.099654 0.166469 0.202934
v 0.132847 0.109115 0.109105
v 0.269387 0.133963 0.175335
v 0.246952 0.162214 0.104875
v 0.178523 0.140424 0.012330
v 0.120754 0.088358 -0.042721
v 0.000776 -0.012128 0.000243
v 0.009387 0.022746 0.048379
v 0.106783 0.042135 0.033853
v 0.067068 0.024512 0.192872
v 0.036719 0.052464 0.206072
v 0.099854 0.004538 0.214406
v -0.069259 0.077466 0.115917
v 0.027547 0.047674 0.098654
v 0.115100 0.054171 0.109689
v -0.008740 0.081817 0.181568
v 0.042262 0.045624 0.156280
v 0.091531 0.031827 0.171800
v -0.049603 0.117336 -0.375204
v -0.045251 0.140095 -0.239445
v 0.016950 0.163428 -0.282295
v 0.107048 0.126020 -0.135518
v -0.015100 0.077210 -0.093288
v 0.000776 -0.012128 0.000243
v 0.133277 0.051503 -0.056973
v 0.053695 0.173368 -0.214079
v -0.032437 0.120277 -0.160363
v -0.101179 0.157485 -0.293234
v -0.122845 0.184125 -0.222008
v -0.124136 0.156723 -0.107938
v -0.113936 0.099839 -0.031653
v 0.399709 0.054368 -0.019138
v 0.269926 0.099375 -0.024456
v 0.311648 0.113370 0.041908
v 0.152025 0.099375 0.118498
v 0.110850 0.061903 -0.008666
v -0.000354 -0.009910 -0.004136
v 0.057672 0.039242 0.135175
v 0.243279 0.133663 0.073601
v 0.186948 0.093053 -0.018772
v 0.331046 0.108667 -0.075186
v 0.267838 0.147224 -0.101188
v 0.150019 0.139754 -0.112638
v 0.062701 0.096849 -0.110976
v -0.203911 0.265933 0.240240
v -0.055942 0.269073 0.127218
v -0.159507 0.254763 0.127993
v -0.105917 0.177216 -0.026567
v 0.021177 0.171828 0.030692
v 0.017656 -0.011319 -0.005734
v -0.080547 0.084440 -0.087638
v -0.126747 0.225468 0.057271
v -0.006094 0.232560 0.074398
v -0.105520 0.237643 0.232464
v -0.033839 0.215728 0.207606
v 0.050096 0.167820 0.148293
v 0.087513 0.090426 0.100772
v 0.103114 0.247033 -0.268733
v 0.040789 0.220558 -0.148690
v 0.128634 0.214068 -0.183405
v 0.145435 0.108965 -0.030369
v 0.007226 0.108837 -0.030677
v -0.010903 -0.009005 0.029929
v 0.141417 0.010189 0.026926
v 0.129266 0.182676 -0.108187
v 0.017736 0.173624 -0.082701
v 0.031263 0.215011 -0.251391
v -0.022707 0.199685 -0.197555
v -0.073391 0.133558 -0.111655
v -0.092643 0.052620 -0.059244
v 0.000755 -0.011297 0.000181
v -0.079609 0.017363 -0.020164
v -0.120523 0.058650 0.113736
v -0.258017 0.031565 -0.019176
v -0.270466 0.048602 -0.064571
v -0.291524 0.012335 0.010213
v -0.144973 0.050597 -0.172397
v -0.153969 0.040953 -0.025238
v -0.206983 0.057569 0.077833
v -0.241943 0.055043 -0.116043
v -0.216564 0.036367 -0.033019
v -0.247646 0.042290 0.018407
v 0.001223 -0.013676 -0.000595
v -0.065269 0.088354 -0.140411
v 0.048357 0.037767 -0.055850
v 0.140696 0.048100 -0.266263
v 0.126147 0.025253 -0.325327
v 0.190745 0.082158 -0.245239
v 0.206965 0.095714 -0.045053
v 0.007548 0.105178 -0.226775
v 0.086064 0.076569 -0.124235
v 0.216235 0.120570 -0.169754
v 0.093647 0.065030 -0.269106
v 0.131072 0.074866 -0.199751
v 0.272748 0.092380 0.272045
v 0.167944 0.148506 0.236721
v 0.191312 0.122049 0.165114
v 0.007033 0.126067 0.172414
v -0.066234 0.057950 0.125198
v 0.001529 -0.013623 0.000928
v 0.076599 0.069368 0.066161
v 0.099543 0.164797 0.203675
v 0.133240 0.107336 0.109414
v 0.269747 0.132246 0.174785
v 0.247548 0.160509 0.104542
v 0.179400 0.138828 0.012360
v 0.121795 0.086904 -0.042488
v 0.000984 -0.013683 0.001159
v 0.107047 0.040386 0.034372
v 0.009451 0.021089 0.049153
v 0.066339 0.022846 0.192654
v 0.099253 0.002854 0.213999
v 0.035733 0.050951 0.206207
v -0.069559 0.075779 0.116572
v 0.115202 0.052315 0.109732
v 0.027374 0.045857 0.098975
v -0.009399 0.080142 0.181912
v 0.091385 0.030083 0.171223
v 0.041677 0.043882 0.156161
v -0.049610 0.115498 -0.374943
v 0.017582 0.161700 -0.282334
v -0.045364 0.138240 -0.239461
v 0.107198 0.124542 -0.136545
v 0.133352 0.050116 -0.058110
v 0.000471 -0.013551 -0.000816
v -0.015439 0.075699 -0.094225
v 0.054106 0.171685 -0.214681
v -0.032694 0.118540 -0.160918
v -0.101913 0.155814 -0.293075
v -0.123640 0.182487 -0.222161
v -0.124934 0.155217 -0.108546
v -0.114735 0.098488 -0.032515
v 0.399089 0.052618 -0.019246
v 0.311293 0.111661 0.042465
v 0.269585 0.097564 -0.024649
v 0.152734 0.097755 0.118663
v 0.058513 0.037694 0.135277
v 0.000435 -0.011470 -0.004419
v 0.111504 0.060278 -0.008998
v 0.243506 0.131909 0.073983
v 0.187173 0.091271 -0.019061
v 0.330620 0.107081 -0.076004
v 0.267733 0.145619 -0.102040
v 0.150388 0.138201 -0.113453
v 0.063351 0.095405 -0.111765
v -0.204060 0.264099 0.239984
v -0.159342 0.252980 0.128435
v -0.056371 0.267274 0.127250
v -0.106582 0.176114 -0.025370
v -0.081527 0.083865 -0.086345
v 0.016454 -0.011864 -0.004629
v 0.020076 0.170792 0.031580
v -0.126820 0.223872 0.058131
v -0.006803 0.230917 0.074755
v -0.106133 0.236039 0.231839
v -0.034857 0.214304 0.207177
v 0.048727 0.166738 0.148531
v 0.086054 0.089954 0.101549
v 0.103326 0.245205 -0.268964
v 0.128365 0.212361 -0.184029
v 0.041033 0.218797 -0.149182
v 0.145418 0.107823 -0.031720
v 0.141457 0.009238 0.025456
v -0.010533 -0.009999 0.028530
v 0.007628 0.107658 -0.031937
v 0.129107 0.181169 -0.109178
v 0.018075 0.172090 -0.083608
v 0.031931 0.213302 -0.251482
v -0.021982 0.198072 -0.198003
v -0.072589 0.132289 -0.112614
v -0.091829 0.051633 -0.060444
v 0.000195 -0.013050 0.000303
v -0.120884 0.056856 0.114002
v -0.080059 0.015570 -0.020097
v -0.257663 0.029762 -0.019403
v -0.290846 0.010637 0.010045
v -0.270408 0.046810 -0.065026
v -0.145299 0.048776 -0.172515
v -0.207102 0.055738 0.078108
v -0.154146 0.039104 -0.025182
v -0.242083 0.053207 -0.116278
v -0.247276 0.040497 0.018673
v -0.216487 0.034512 -0.033119
vt 0.411600 1.000000
vt 0.399800 0.800700
vt 0.562400 0.723100
vt 0.432000 0.184400
vt 0.372000 0.181000
vt 0.494400 0.068600
vt 0.234100 0.597600
vt 0.403500 0.587600
vt 0.540500 0.443500
vt 0.303300 0.312400
vt 0.402700 0.356300
vt 0.479800 0.236400
vt 0.171300 1.000000
vt 0.136700 0.620800
vt 0.216200 0.740800
vt 0.277300 0.371600
vt 0.132800 0.275000
vt 0.129200 0.000100
vt 0.288800 0.131200
vt 0.237600 0.585300
vt 0.129900 0.431300
vt 0.088700 0.830300
vt 0.043400 0.698200
vt 0.011300 0.448800
vt 0.005500 0.241100
vt 0.411600 1.000000
vt 0.399800 0.800700
vt 0.562400 0.723100
vt 0.432000 0.184400
vt 0.372000 0.181000
vt 0.494400 0.068600
vt 0.234100 0.597600
vt 0.403500 0.587600
vt 0.540500 0.443500
vt 0.303300 0.312400
vt 0.402700 0.356300
vt 0.479800 0.236400
vt 0.171300 1.000000
vt 0.136700 0.620800
vt 0.216200 0.740800
vt 0.277300 0.371600
vt 0.132800 0.275000
vt 0.129200 0.000100
vt 0.288800 0.131200
vt 0.237600 0.585300
vt 0.129900 0.431300
vt 0.088700 0.830300
vt 0.043400 0.698200
vt 0.011300 0.448800
vt 0.005500 0.241100
vt 0.171300 1.000000
vt 0.136700 0.620800
vt 0.216200 0.740800
vt 0.277300 0.371600
vt 0.132800 0.275000
vt 0.129200 0.000100
vt 0.288800 0.131200
vt 0.237600 0.585300
vt 0.129900 0.431300
vt 0.088700 0.830300
vt 0.043400 0.698200
vt 0.011300 0.448800
vt 0.005500 0.241100
vt 0.171300 1.000000
vt 0.136700 0.620800
vt 0.216200 0.740800
vt 0.277300 0.371600
vt 0.132800 0.275000
vt 0.129200 0.000100
vt 0.288800 0.131200
vt 0.237600 0.585300
vt 0.129900 0.431300
vt 0.088700 0.830300
vt 0.043400 0.698200
vt 0.011300 0.448800
vt 0.005500 0.241100
vt 0.171300 1.000000
vt 0.136700 0.620800
vt 0.216200 0.740800
vt 0.277300 0.371600
vt 0.132800 0.275000
vt 0.129200 0.000100
vt 0.288800 0.131200
vt 0.237600 0.585300
vt 0.129900 0.431300
vt 0.088700 0.830300
vt 0.043400 0.698200
vt 0.011300 0.448800
vt 0.005500 0.241100
vt 0.411600 1.000000
vt 0.399800 0.800700
vt 0.562400 0.723100
vt 0.432000 0.184400
vt 0.372000 0.181000
vt 0.494400 0.068600
vt 0.234100 0.597600
vt 0.403500 0.587600
vt 0.540500 0.443500
vt 0.303300 0.312400
vt 0.402700 0.356300
vt 0.479800 0.236400
vt 0.411600 1.000000
vt 0.562400 0.723100
vt 0.399800 0.800700
vt 0.432000 0.184400
vt 0.494400 0.068600
vt 0.372000 0.181000
vt 0.234100 0.597600
vt 0.540500 0.443500
vt 0.403500 0.587600
vt 0.303300 0.312400
vt 0.479800 0.236400
vt 0.402700 0.356300
vt 0.171300 1.000000
vt 0.216200 0.740800
vt 0.136700 0.620800
vt 0.277300 0.371600
vt 0.288800 0.131200
vt 0.129200 0.000100
vt 0.132800 0.275000
vt 0.237600 0.585300
vt 0.129900 0.431300
vt 0.088700 0.830300
vt 0.043400 0.698200
vt 0.011300 0.448800
vt 0.005500 0.241100
vt 0.411600 1.000000
vt 0.562400 0.723100
vt 0.399800 0.800700
vt 0.432000 0.184400
vt 0.494400 0.068600
vt 0.372000 0.181000
vt 0.234100 0.597600
vt 0.540500 0.443500
vt 0.403500 0.587600
vt 0.303300 0.312400
vt 0.479800 0.236400
vt 0.402700 0.356300
vt 0.171300 1.000000
vt 0.216200 0.740800
vt 0.136700 0.620800
vt 0.277300 0.371600
vt 0.288800 0.131200
vt 0.129200 0.000100
vt 0.132800 0.275000
vt 0.237600 0.585300
vt 0.129900 0.431300
vt 0.088700 0.830300
vt 0.043400 0.698200
vt 0.011300 0.448800
vt 0.005500 0.241100
vt 0.171300 1.000000
vt 0.216200 0.740800
vt 0.136700 0.620800
vt 0.277300 0.371600
vt 0.288800 0.131200
vt 0.129200 0.000100
vt 0.132800 0.275000
vt 0.237600 0.585300
vt 0.129900 0.431300
vt 0.088700 0.830300
vt 0.043400 0.698200
vt 0.011300 0.448800
vt 0.005500 0.241100
vt 0.171300 1.000000
vt 0.216200 0.740800
vt 0.136700 0.620800
vt 0.277300 0.371600
vt 0.288800 0.131200
vt 0.129200 0.000100
vt 0.132800 0.275000
vt 0.237600 0.585300
vt 0.129900 0.431300
vt 0.088700 0.830300
vt 0.043400 0.698200
vt 0.011300 0.448800
vt 0.005500 0.241100
vt 0.171300 1.000000
vt 0.216200 0.740800
vt 0.136700 0.620800
vt 0.277300 0.371600
vt 0.288800 0.131200
vt 0.129200 0.000100
vt 0.132800 0.275000
vt 0.237600 0.585300
vt 0.129900 0.431300
vt 0.088700 0.830300
vt 0.043400 0.698200
vt 0.011300 0.448800
vt 0.005500 0.241100
vt 0.411600 1.000000
vt 0.562400 0.723100
vt 0.399800 0.800700
vt 0.432000 0.184400
vt 0.494400 0.068600
vt 0.372000 0.181000
vt 0.234100 0.597600
vt 0.540500 0.443500
vt 0.403500 0.587600
vt 0.303300 0.312400
vt 0.479800 0.236400
vt 0.402700 0.356300
vn -0.1990 0.7965 0.5710
vn -0.1947 0.8467 0.4951
vn 0.0010 0.9128 0.4083
vn -0.1128 0.9338 -0.3395
vn -0.4042 0.8590 -0.3143
vn 0.0263 0.9302 -0.3660
vn -0.3480 0.9144 0.2069
vn -0.0536 0.9567 0.2862
vn 0.1558 0.9849 0.0754
vn -0.3728 0.9245 -0.0790
vn -0.0424 0.9817 -0.1857
vn 0.3166 0.8909 -0.3257
vn 0.1872 0.9740 0.1274
vn -0.0444 0.9985 0.0334
vn 0.3925 0.8811 -0.2638
vn -0.2287 0.7887 -0.5707
vn -0.4489 0.8177 -0.3603
vn -0.4756 0.7675 -0.4299
vn -0.3067 0.7426 -0.5953
vn 0.1360 0.8681 -0.4775
vn -0.2694 0.9390 -0.2138
vn -0.1678 0.9038 0.3936
vn -0.3292 0.9128 0.2418
vn -0.5200 0.8542 -0.0036
vn -0.6269 0.7671 -0.1363
vn -0.1291 0.8139 -0.5665
vn -0.0703 0.8599 -0.5056
vn -0.1530 0.9381 -0.3108
vn 0.4520 0.8812 0.1386
vn 0.6077 0.7898 -0.0826
vn 0.3752 0.8911 0.2554
vn 0.2761 0.8784 -0.3902
vn -0.0412 0.9658 -0.2559
vn -0.0145 0.9993 0.0349
vn 0.4305 0.8762 -0.2168
vn 0.3047 0.9492 0.0781
vn 0.1418 0.8899 0.4336
vn 0.0044 0.9862 -0.1655
vn 0.1366 0.9894 0.0487
vn -0.4004 0.9160 0.0241
vn -0.0884 0.7696 0.6324
vn 0.2132 0.7768 0.5926
vn 0.1884 0.7256 0.6618
vn -0.0442 0.7173 0.6953
vn -0.3215 0.8812 0.3467
vn 0.1657 0.9116 0.3763
vn 0.4407 0.8807 -0.1735
vn 0.4801 0.8761 0.0432
vn 0.4826 0.8035 0.3484
vn 0.4827 0.7095 0.5135
vn 0.3251 0.9441 0.0552
vn 0.1047 0.9797 0.1710
vn 0.1630 0.9171 -0.3639
vn -0.4714 0.8756 -0.1049
vn -0.4585 0.8670 0.1951
vn -0.5309 0.8315 0.1638
vn -0.5447 0.8359 -0.0680
vn -0.1582 0.9373 -0.3107
vn -0.2262 0.9591 0.1703
vn 0.2791 0.8271 0.4878
vn 0.0658 0.8591 0.5075
vn -0.2431 0.8426 0.4805
vn -0.4180 0.7813 0.4636
vn 0.0942 0.9841 0.1507
vn 0.2881 0.9504 -0.1171
vn -0.1002 0.9546 -0.2805
vn 0.4631 0.6210 -0.6324
vn 0.6220 0.4659 -0.6293
vn 0.6855 0.2365 -0.6886
vn 0.7887 0.4736 -0.3919
vn 0.0863 0.8771 -0.4725
vn 0.4728 0.7974 -0.3750
vn 0.3206 0.8555 0.4065
vn 0.5340 0.7782 0.3306
vn 0.7659 0.6426 -0.0223
vn 0.8427 0.3044 -0.4441
vn -0.1338 0.9801 0.1467
vn -0.1161 0.9117 0.3942
vn 0.1613 0.9088 0.3848
vn -0.0149 0.6065 0.7949
vn -0.2304 0.5675 0.7904
vn -0.2120 0.4834 0.8494
vn -0.0463 0.5026 0.8633
vn 0.0271 0.8342 0.5508
vn -0.1938 0.7562 0.6250
vn -0.3699 0.9289 -0.0159
vn -0.4142 0.8915 0.1836
vn -0.4898 0.6745 0.5524
vn -0.4885 0.5068 0.7103
vn 0.3521 0.9328 -0.0767
vn 0.3153 0.9473 -0.0567
vn 0.2010 0.9661 -0.1622
vn -0.2239 0.9641 0.1430
vn -0.0307 0.9616 0.2726
vn -0.4230 0.8998 0.1065
vn 0.1668 0.9758 0.1414
vn 0.1766 0.9769 -0.1207
vn -0.0060 0.9878 -0.1554
vn 0.0983 0.9887 0.1135
vn -0.1030 0.9723 0.2100
vn -0.2494 0.9542 -0.1655
vn 0.1996 -0.7963 -0.5710
vn -0.0005 -0.9130 -0.4079
vn 0.1956 -0.8466 -0.4950
vn 0.1139 -0.9338 0.3392
vn -0.0270 -0.9301 0.3664
vn 0.4031 -0.8595 0.3143
vn 0.3481 -0.9143 -0.2072
vn -0.1553 -0.9850 -0.0748
vn 0.0545 -0.9566 -0.2861
vn 0.3724 -0.9247 0.0785
vn -0.3150 -0.8910 0.3269
vn 0.0435 -0.9815 0.1867
vn -0.1874 -0.9740 -0.1275
vn -0.3916 -0.8818 0.2627
vn 0.0437 -0.9985 -0.0331
vn 0.2293 -0.7887 0.5704
vn 0.3070 -0.7427 0.5951
vn 0.4758 -0.7674 0.4298
vn 0.4490 -0.8177 0.3604
vn -0.1351 -0.8688 0.4763
vn 0.2695 -0.9390 0.2135
vn 0.1660 -0.9043 -0.3932
vn 0.3280 -0.9133 -0.2413
vn 0.5195 -0.8545 0.0041
vn 0.6265 -0.7673 0.1368
vn 0.1292 -0.8137 0.5667
vn 0.1525 -0.9382 0.3106
vn 0.0703 -0.8597 0.5059
vn -0.4528 -0.8810 -0.1371
vn -0.3748 -0.8909 -0.2565
vn -0.6069 -0.7906 0.0813
vn -0.2756 -0.8787 0.3898
vn 0.0137 -0.9993 -0.0348
vn 0.0407 -0.9657 0.2565
vn -0.4300 -0.8766 0.2161
vn -0.1447 -0.8897 -0.4331
vn -0.3075 -0.9483 -0.0781
vn -0.0043 -0.9862 0.1657
vn 0.3990 -0.9166 -0.0237
vn -0.1360 -0.9895 -0.0485
vn 0.0878 -0.7696 -0.6325
vn 0.0439 -0.7174 -0.6953
vn -0.1885 -0.7256 -0.6618
vn -0.2132 -0.7767 -0.5926
vn 0.3200 -0.8818 -0.3463
vn -0.1660 -0.9116 -0.3762
vn -0.4391 -0.8814 0.1742
vn -0.4789 -0.8768 -0.0429
vn -0.4819 -0.8039 -0.3486
vn -0.4821 -0.7097 -0.5137
vn -0.3253 -0.9440 -0.0551
vn -0.1634 -0.9176 0.3624
vn -0.1050 -0.9798 -0.1703
vn 0.4716 -0.8756 0.1043
vn 0.5448 -0.8359 0.0677
vn 0.5309 -0.8314 -0.1640
vn 0.4586 -0.8670 -0.1951
vn 0.1578 -0.9378 0.3092
vn 0.2261 -0.9591 -0.1705
vn -0.2801 -0.8277 -0.4862
vn -0.0663 -0.8598 -0.5063
vn 0.2432 -0.8430 -0.4798
vn 0.4181 -0.7816 -0.4630
vn -0.0942 -0.9840 -0.1511
vn 0.1018 -0.9542 0.2812
vn -0.2881 -0.9503 0.1179
vn -0.4632 -0.6207 0.6326
vn -0.7891 -0.4732 0.3917
vn -0.6856 -0.2358 0.6888
vn -0.6219 -0.4654 0.6298
vn -0.0851 -0.8773 0.4723
vn -0.4729 -0.7969 0.3759
vn -0.3207 -0.8549 -0.4079
vn -0.5334 -0.7778 -0.3324
vn -0.7656 -0.6430 0.0210
vn -0.8431 -0.3044 0.4433
vn 0.1339 -0.9801 -0.1465
vn -0.1624 -0.9086 -0.3848
vn 0.1156 -0.9115 -0.3948
vn 0.0146 -0.6064 -0.7950
vn 0.0461 -0.5025 -0.8633
vn 0.2120 -0.4832 -0.8494
vn 0.2304 -0.5673 -0.7906
vn -0.0273 -0.8344 -0.5505
vn 0.1937 -0.7559 -0.6254
vn 0.3706 -0.9286 0.0169
vn 0.4142 -0.8916 -0.1828
vn 0.4902 -0.6744 -0.5521
vn 0.4889 -0.5067 -0.7101
vn -0.3521 -0.9328 0.0767
vn -0.2008 -0.9661 0.1621
vn -0.3154 -0.9473 0.0566
vn 0.2228 -0.9642 -0.1437
vn 0.4244 -0.8993 -0.1058
vn 0.0306 -0.9620 -0.2712
vn -0.1666 -0.9758 -0.1413
vn 0.0061 -0.9879 0.1552
vn -0.1766 -0.9769 0.1205
vn -0.0984 -0.9887 -0.1134
vn 0.2491 -0.9544 0.1645
vn 0.1037 -0.9723 -0.2097
s 1
f 1/1/1 2/2/2 3/3/3
f 4/4/4 5/5/5 6/6/6
f 1/1/1 7/7/7 2/2/2
f 3/3/3 2/2/2 8/8/8
f 8/8/8 9/9/9 3/3/3
f 2/2/2 7/7/7 10/10/10
f 10/10/10 8/8/8 2/2/2
f 9/9/9 8/8/8 11/11/11
f 11/11/11 12/12/12 9/9/9
f 8/8/8 10/10/10 5/5/5
f 5/5/5 11/11/11 8/8/8
f 12/12/12 11/11/11 4/4/4
f 11/11/11 5/5/5 4/4/4
f 12/12/12 4/4/4 6/6/6
s 2
f 13/13/13 14/14/14 15/15/15
f 16/16/16 17/17/17 18/18/18
f 18/18/18 19/19/19 16/16/16
f 20/20/20 21/21/21 17/17/17
f 17/17/17 16/16/16 20/20/20
f 15/15/15 14/14/14 21/21/21
f 21/21/21 20/20/20 15/15/15
f 22/22/22 14/14/14 13/13/13
f 23/23/23 21/21/21 14/14/14
f 14/14/14 22/22/22 23/23/23
f 24/24/24 17/17/17 21/21/21
f 21/21/21 23/23/23 24/24/24
f 25/25/25 18/18/18 17/17/17
f 17/17/17 24/24/24 25/25/25
s 3
f 26/26/26 27/27/27 28/28/28
f 29/29/29 30/30/30 31/31/31
f 26/26/26 32/32/32 27/27/27
f 28/28/28 27/27/27 33/33/33
f 33/33/33 34/34/34 28/28/28
f 27/27/27 32/32/32 35/35/35
f 35/35/35 33/33/33 27/27/27
f 34/34/34 33/33/33 36/36/36
f 36/36/36 37/37/37 34/34/34
f 33/33/33 35/35/35 30/30/30
f 30/30/30 36/36/36 33/33/33
f 37/37/37 36/36/36 29/29/29
f 36/36/36 30/30/30 29/29/29
f 37/37/37 29/29/29 31/31/31
s 4
f 38/38/38 39/39/39 40/40/40
f 41/41/41 42/42/42 43/43/43
f 43/43/43 44/44/44 41/41/41
f 45/45/45 46/46/46 42/42/42
f 42/42/42 41/41/41 45/45/45
f 40/40/40 39/39/39 46/46/46
f 46/46/46 45/45/45 40/40/40
f 47/47/47 39/39/39 38/38/38
f 48/48/48 46/46/46 39/39/39
f 39/39/39 47/47/47 48/48/48
f 49/49/49 42/42/42 46/46/46
f 46/46/46 48/48/48 49/49/49
f 50/50/50 43/43/43 42/42/42
f 42/42/42 49/49/49 50/50/50
s 5
f 51/51/51 52/52/52 53/53/53
f 54/54/54 55/55/55 56/56/56
f 56/56/56 57/57/57 54/54/54
f 58/58/58 59/59/59 55/55/55
f 55/55/55 54/54/54 58/58/58
f 53/53/53 52/52/52 59/59/59
f 59/59/59 58/58/58 53/53/53
f 60/60/60 52/52/52 51/51/51
f 61/61/61 59/59/59 52/52/52
f 52/52/52 60/60/60 61/61/61
f 62/62/62 55/55/55 59/59/59
f 59/59/59 61/61/61 62/62/62
f 63/63/63 56/56/56 55/55/55
f 55/55/55 62/62/62 63/63/63
s 6
f 64/64/64 65/65/65 66/66/66
f 67/67/67 68/68/68 69/69/69
f 69/69/69 70/70/70 67/67/67
f 71/71/71 72/72/72 68/68/68
f 68/68/68 67/67/67 71/71/71
f 66/66/66 65/65/65 72/72/72
f 72/72/72 71/71/71 66/66/66
f 73/73/73 65/65/65 64/64/64
f 74/74/74 72/72/72 65/65/65
f 65/65/65 73/73/73 74/74/74
f 75/75/75 68/68/68 72/72/72
f 72/72/72 74/74/74 75/75/75
f 76/76/76 69/69/69 68/68/68
f 68/68/68 75/75/75 76/76/76
s 7
f 77/77/77 78/78/78 79/79/79
f 80/80/80 81/81/81 82/82/82
f 82/82/82 83/83/83 80/80/80
f 84/84/84 85/85/85 81/81/81
f 81/81/81 80/80/80 84/84/84
f 79/79/79 78/78/78 85/85/85
f 85/85/85 84/84/84 79/79/79
f 86/86/86 78/78/78 77/77/77
f 87/87/87 85/85/85 78/78/78
f 78/78/78 86/86/86 87/87/87
f 88/88/88 81/81/81 85/85/85
f 85/85/85 87/87/87 88/88/88
f 89/89/89 82/82/82 81/81/81
f 81/81/81 88/88/88 89/89/89
s 8
f 90/90/90 91/91/91 92/92/92
f 93/93/93 94/94/94 95/95/95
f 90/90/90 96/96/96 91/91/91
f 92/92/92 91/91/91 97/97/97
f 97/97/97 98/98/98 92/92/92
f 91/91/91 96/96/96 99/99/99
f 99/99/99 97/97/97 91/91/91
f 98/98/98 97/97/97 100/100/100
f 100/100/100 101/101/101 98/98/98
f 97/97/97 99/99/99 94/94/94
f 94/94/94 100/100/100 97/97/97
f 101/101/101 100/100/100 93/93/93
f 100/100/100 94/94/94 93/93/93
f 101/101/101 93/93/93 95/95/95
s 9
f 102/102/102 103/103/103 104/104/104
f 105/105/105 106/106/106 107/107/107
f 102/102/102 104/104/104 108/108/108
f 103/103/103 109/109/109 110/110/110
f 110/110/110 104/104/104 103/103/103
f 104/104/104 110/110/110 111/111/111
f 111/111/111 108/108/108 104/104/104
f 109/109/109 112/112/112 113/113/113
f 113/113/113 110/110/110 109/109/109
f 110/110/110 113/113/113 107/107/107
f 107/107/107 111/111/111 110/110/110
f 112/112/112 105/105/105 113/113/113
f 113/113/113 105/105/105 107/107/107
f 112/112/112 106/106/106 105/105/105
s 10
f 114/114/114 115/115/115 116/116/116
f 117/117/117 118/118/118 119/119/119
f 119/119/119 120/120/120 117/117/117
f 121/121/121 117/117/117 120/120/120
f 120/120/120 122/122/122 121/121/121
f 115/115/115 121/121/121 122/122/122
f 122/122/122 116/116/116 115/115/115
f 123/123/123 114/114/114 116/116/116
f 124/124/124 123/123/123 116/116/116
f 116/116/116 122/122/122 124/124/124
f 125/125/125 124/124/124 122/122/122
f 122/122/122 120/120/120 125/125/125
f 126/126/126 125/125/125 120/120/120
f 120/120/120 119/119/119 126/126/126
s 11
f 127/127/127 128/128/128 129/129/129
f 130/130/130 131/131/131 132/132/132
f 127/127/127 129/129/129 133/133/133
f 128/128/128 134/134/134 135/135/135
f 135/135/135 129/129/129 128/128/128
f 129/129/129 135/135/135 136/136/136
f 136/136/136 133/133/133 129/129/129
f 134/134/134 137/137/137 138/138/138
f 138/138/138 135/135/135 134/134/134
f 135/135/135 138/138/138 132/132/132
f 132/132/132 136/136/136 135/135/135
f 137/137/137 130/130/130 138/138/138
f 138/138/138 130/130/130 132/132/132
f 137/137/137 131/131/131 130/130/130
s 12
f 139/139/139 140/140/140 141/141/141
f 142/142/142 143/143/143 144/144/144
f 144/144/144 145/145/145 142/142/142
f 146/146/146 142/142/142 145/145/145
f 145/145/145 147/147/147 146/146/146
f 140/140/140 146/146/146 147/147/147
f 147/147/147 141/141/141 140/140/140
f 148/148/148 139/139/139 141/141/141
f 149/149/149 148/148/148 141/141/141
f 141/141/141 147/147/147 149/149/149
f 150/150/150 149/149/149 147/147/147
f 147/147/147 145/145/145 150/150/150
f 151/151/151 150/150/150 145/145/145
f 145/145/145 144/144/144 151/151/151
s 13
f 152/152/152 153/153/153 154/154/154
f 155/155/155 156/156/156 157/157/157
f 157/157/157 158/158/158 155/155/155
f 159/159/159 155/155/155 158/158/158
f 158/158/158 160/160/160 159/159/159
f 153/153/153 159/159/159 160/160/160
f 160/160/160 154/154/154 153/153/153
f 161/161/161 152/152/152 154/154/154
f 162/162/162 161/161/161 154/154/154
f 154/154/154 160/160/160 162/162/162
f 163/163/163 162/162/162 160/160/160
f 160/160/160 158/158/158 163/163/163
f 164/164/164 163/163/163 158/158/158
f 158/158/158 157/157/157 164/164/164
s 14
f 165/165/165 166/166/166 167/167/167
f 168/168/168 169/169/169 170/170/170
f 170/170/170 171/171/171 168/168/168
f 172/172/172 168/168/168 171/171/171
f 171/171/171 173/173/173 172/172/172
f 166/166/166 172/172/172 173/173/173
f 173/173/173 167/167/167 166/166/166
f 174/174/174 165/165/165 167/167/167
f 175/175/175 174/174/174 167/167/167
f 167/167/167 173/173/173 175/175/175
f 176/176/176 175/175/175 173/173/173
f 173/173/173 171/171/171 176/176/176
f 177/177/177 176/176/176 171/171/171
f 171/171/171 170/170/170 177/177/177
s 15
f 178/178/178 179/179/179 180/180/180
f 181/181/181 182/182/182 183/183/183
f 183/183/183 184/184/184 181/181/181
f 185/185/185 181/181/181 184/184/184
f 184/184/184 186/186/186 185/185/185
f 179/179/179 185/185/185 186/186/186
f 186/186/186 180/180/180 179/179/179
f 187/187/187 178/178/178 180/180/180
f 188/188/188 187/187/187 180/180/180
f 180/180/180 186/186/186 188/188/188
f 189/189/189 188/188/188 186/186/186
f 186/186/186 184/184/184 189/189/189
f 190/190/190 189/189/189 184/184/184
f 184/184/184 183/183/183 190/190/190
s 16
f 191/191/191 192/192/192 193/193/193
f 194/194/194 195/195/195 196/196/196
f 191/191/191 193/193/193 197/197/197
f 192/192/192 198/198/198 199/199/199
f 199/199/199 193/193/193 192/192/192
f 193/193/193 199/199/199 200/200/200
f 200/200/200 197/197/197 193/193/193
f 198/198/198 201/201/201 202/202/202
f 202/202/202 199/199/199 198/198/198
f 199/199/199 202/202/202 196/196/196
f 196/196/196 200/200/200 199/199/199
f 201/201/201 194/194/194 202/202/202
f 202/202/202 194/194/194 196/196/196
f 201/201/201 195/195/195 194/194/194
