# Blender v3.3.0 OBJ File: ''
# www.blender.org
o ItemStrawberry
v 0.010197 0.015938 -0.002114
v -0.007178 0.023548 -0.013830
v -0.004855 0.032208 0.000391
v 0.004537 0.030127 0.014179
v 0.015472 0.018540 0.019431
v 0.021580 0.004211 0.013107
v -0.021379 0.021957 -0.014666
v -0.018092 0.034212 0.005457
v -0.004801 0.031267 0.024967
v 0.010708 0.014846 0.032434
v 0.019352 -0.005431 0.023485
v -0.044888 0.004961 0.000020
v -0.041718 0.016784 0.019433
v -0.029982 0.030655 0.011266
v -0.033665 0.016918 -0.011292
v -0.028896 0.013943 0.038254
v -0.015083 0.027354 0.033135
v -0.013934 -0.001898 0.045458
v 0.002302 0.008947 0.041505
v -0.005595 -0.021460 0.036825
v 0.011991 -0.013782 0.031474
v -0.050157 -0.025229 0.032832
v -0.050033 -0.001451 0.027194
v -0.052105 -0.009176 0.014509
v -0.041655 -0.003307 0.039493
v -0.031878 -0.013658 0.044200
v -0.026430 -0.026440 0.038558
v -0.001069 0.009218 -0.020154
v 0.009891 -0.002386 -0.014877
v 0.019284 -0.004468 -0.001090
v -0.012735 0.001680 -0.023615
v 0.002774 -0.014741 -0.016148
v 0.016065 -0.017686 0.003362
v -0.023977 -0.005812 -0.021323
v -0.036550 -0.014600 -0.008614
v -0.006591 -0.024218 -0.012953
v -0.021588 -0.030441 -0.001410
v 0.008307 -0.027520 0.008917
v -0.008766 -0.033283 0.017411
v -0.046656 -0.021958 0.008868
v -0.036880 -0.032309 0.013575
v -0.028502 -0.034165 0.025873
v 0.017973 0.015938 0.008878
v 0.031723 0.023548 0.024692
v 0.033160 0.032208 0.010354
v 0.027656 0.030127 -0.005395
v 0.018454 0.018540 -0.013298
v 0.010917 0.004211 -0.008770
v 0.045223 0.021957 0.029175
v 0.047257 0.034212 0.008887
v 0.039469 0.031267 -0.013398
v 0.026420 0.014846 -0.024625
v 0.015755 -0.005431 -0.018218
v 0.071733 0.004961 0.021074
v 0.073695 0.016784 0.001502
v 0.060245 0.030655 0.006353
v 0.057965 0.016918 0.029095
v 0.066181 0.013943 -0.019996
v 0.051514 0.027354 -0.018627
v 0.053593 -0.001898 -0.030827
v 0.036888 0.008947 -0.031212
v 0.043305 -0.021460 -0.024646
v 0.024933 -0.013782 -0.024029
v 0.085314 -0.025229 -0.009256
v 0.083736 -0.001451 -0.003843
v 0.082454 -0.009176 0.008946
v 0.078826 -0.003307 -0.017890
v 0.070601 -0.013658 -0.024967
v 0.063878 -0.026440 -0.020929
v 0.024186 0.009218 0.029220
v 0.014964 -0.002386 0.021285
v 0.009460 -0.004468 0.005537
v 0.034558 0.001680 0.035582
v 0.021510 -0.014741 0.024355
v 0.013721 -0.017686 0.002070
v 0.046010 -0.005812 0.036278
v 0.061444 -0.014600 0.027256
v 0.031383 -0.024218 0.023693
v 0.048856 -0.030441 0.016425
v 0.022653 -0.027520 -0.001287
v 0.041342 -0.033283 -0.005074
v 0.075731 -0.021958 0.012985
v 0.067505 -0.032309 0.005908
v 0.062596 -0.034165 -0.008139
v 0.025296 0.034160 0.046565
v 0.026712 0.051790 0.051538
v 0.013578 0.047382 0.051642
v 0.006999 0.036087 0.047051
v 0.010831 0.024551 0.040468
v 0.022826 0.019490 0.035730
v 0.026085 0.062585 0.046825
v 0.007499 0.056348 0.046972
v -0.001811 0.040365 0.040476
v 0.003607 0.023999 0.031140
v 0.020580 0.016838 0.024435
v 0.021762 0.073811 0.022882
v 0.003833 0.067794 0.023024
v 0.003871 0.063239 0.038796
v 0.024704 0.070231 0.038631
v -0.005149 0.052375 0.016757
v -0.006565 0.045323 0.031514
v 0.000078 0.036587 0.007751
v -0.000492 0.026978 0.021050
v 0.016452 0.029678 0.001282
v 0.018534 0.018950 0.013533
v 0.014762 0.064119 -0.012133
v 0.006681 0.069198 0.005600
v 0.018396 0.073129 0.005507
v 0.000812 0.059123 0.001505
v 0.004227 0.048806 -0.004379
v 0.014926 0.044292 -0.008606
v 0.038707 0.046729 0.046800
v 0.042536 0.035163 0.040202
v 0.035957 0.023868 0.035611
v 0.043058 0.055424 0.040120
v 0.048476 0.039058 0.030784
v 0.039166 0.023075 0.024288
v 0.043730 0.062203 0.031115
v 0.038137 0.066902 0.016413
v 0.049804 0.043858 0.020650
v 0.043364 0.051114 0.007407
v 0.039367 0.025942 0.013368
v 0.034382 0.035695 0.001140
v 0.029095 0.068615 0.001281
v 0.032511 0.058299 -0.004604
v 0.026642 0.048224 -0.008699
v -0.026486 0.026866 -0.049298
v -0.022292 0.044729 -0.058047
v -0.009936 0.035702 -0.057150
v -0.006584 0.022599 -0.049934
v -0.014196 0.013126 -0.040646
v -0.028320 0.012789 -0.034698
v -0.017807 0.056581 -0.054924
v -0.000322 0.043807 -0.053655
v 0.004420 0.025267 -0.043444
v -0.006358 0.011820 -0.030272
v -0.026344 0.011344 -0.021855
v -0.008436 0.071148 -0.030863
v 0.008432 0.058825 -0.029639
v 0.006170 0.051228 -0.045982
v -0.013430 0.065546 -0.047404
v 0.013007 0.040939 -0.019788
v 0.011486 0.030445 -0.034536
v 0.002609 0.027967 -0.007081
v -0.000597 0.015372 -0.019771
v -0.016672 0.027508 0.001039
v -0.023000 0.014839 -0.010336
v -0.002763 0.065128 0.009230
v 0.006671 0.064428 -0.010944
v -0.004351 0.072480 -0.011744
v 0.009660 0.052741 -0.004508
v 0.002866 0.044265 0.003796
v -0.009733 0.043965 0.009101
v -0.036416 0.044392 -0.052098
v -0.044033 0.034890 -0.042790
v -0.040682 0.021787 -0.035573
v -0.037792 0.056105 -0.046506
v -0.048571 0.042658 -0.033334
v -0.043829 0.024118 -0.023123
v -0.035833 0.065013 -0.037969
v -0.027716 0.070689 -0.022743
v -0.047915 0.049940 -0.023204
v -0.038115 0.057717 -0.010036
v -0.042600 0.029157 -0.011758
v -0.033540 0.039830 -0.000185
v -0.016949 0.072180 -0.006438
v -0.023744 0.063704 0.001865
v -0.020755 0.052017 0.008302
v 0.040612 0.015938 -0.059720
v 0.026862 0.023548 -0.075534
v 0.025424 0.032208 -0.061196
v 0.030929 0.030127 -0.045448
v 0.040131 0.018540 -0.037544
v 0.047668 0.004211 -0.042072
v 0.013361 0.021957 -0.080018
v 0.011327 0.034212 -0.059729
v 0.019116 0.031267 -0.037444
v 0.032164 0.014846 -0.026217
v 0.042829 -0.005431 -0.032624
v -0.013148 0.004961 -0.071917
v -0.015111 0.016784 -0.052345
v -0.001660 0.030655 -0.057196
v 0.000620 0.016918 -0.079938
v -0.007597 0.013943 -0.030846
v 0.007070 0.027354 -0.032216
v 0.004991 -0.001898 -0.020015
v 0.021697 0.008947 -0.019631
v 0.015280 -0.021460 -0.026196
v 0.033652 -0.013782 -0.026813
v -0.026730 -0.025229 -0.041586
v -0.025151 -0.001451 -0.047000
v -0.023869 -0.009176 -0.059789
v -0.020242 -0.003307 -0.032952
v -0.012016 -0.013658 -0.025875
v -0.005294 -0.026440 -0.029914
v 0.034399 0.009218 -0.080062
v 0.043620 -0.002386 -0.072128
v 0.049124 -0.004468 -0.056379
v 0.024026 0.001680 -0.086425
v 0.037075 -0.014741 -0.075198
v 0.044863 -0.017686 -0.052913
v 0.012574 -0.005812 -0.087120
v -0.002860 -0.014600 -0.078098
v 0.027201 -0.024218 -0.074535
v 0.009728 -0.030441 -0.067267
v 0.035932 -0.027520 -0.049555
v 0.017242 -0.033283 -0.045769
v -0.017146 -0.021958 -0.063828
v -0.008921 -0.032309 -0.056751
v -0.004011 -0.034165 -0.042703
v -0.038370 0.008110 -0.010199
v -0.027231 0.014537 -0.023957
v -0.039370 0.021853 -0.023049
v -0.051663 0.020095 -0.016160
v -0.056888 0.010307 -0.007346
v -0.052016 -0.001797 -0.001740
v -0.025482 0.013193 -0.035845
v -0.042658 0.023546 -0.034561
v -0.060054 0.021058 -0.024813
v -0.067480 0.007187 -0.012312
v -0.060585 -0.009941 -0.004379
v -0.036109 -0.001163 -0.056710
v -0.052679 0.008824 -0.055471
v -0.046670 0.020541 -0.044994
v -0.027417 0.008937 -0.046433
v -0.069461 0.006424 -0.046067
v -0.066170 0.017752 -0.034067
v -0.076625 -0.006957 -0.034007
v -0.074494 0.002204 -0.020053
v -0.069974 -0.023481 -0.026354
v -0.066766 -0.016996 -0.011162
v -0.063333 -0.026665 -0.063559
v -0.058598 -0.006579 -0.063040
v -0.047771 -0.013105 -0.063849
v -0.069564 -0.008148 -0.056895
v -0.074245 -0.016891 -0.049015
v -0.069899 -0.027688 -0.044015
v -0.022359 0.002433 -0.018351
v -0.027607 -0.007369 -0.009516
v -0.039900 -0.009128 -0.002627
v -0.018587 -0.003935 -0.027913
v -0.026013 -0.017806 -0.015411
v -0.043409 -0.020294 -0.005663
v -0.019689 -0.010263 -0.037542
v -0.029458 -0.017687 -0.049058
v -0.028013 -0.025811 -0.023528
v -0.036622 -0.031068 -0.036997
v -0.047512 -0.028600 -0.012601
v -0.053404 -0.033468 -0.027593
v -0.043425 -0.023902 -0.058849
v -0.048106 -0.032646 -0.050969
v -0.059072 -0.034214 -0.044824
v 0.014181 0.008240 0.027643
v 0.002384 0.014408 0.039863
v 0.014062 0.021427 0.040010
v 0.026390 0.019740 0.034454
v 0.032121 0.010349 0.026465
v 0.027933 -0.001266 0.020699
v -0.000282 0.013118 0.051080
v 0.016243 0.023051 0.051289
v 0.033687 0.020664 0.043426
v 0.041830 0.007355 0.032097
v 0.035903 -0.009080 0.023939
v 0.008131 -0.000657 0.071913
v 0.024073 0.008926 0.072115
v 0.019206 0.020168 0.061597
v 0.000682 0.009034 0.061363
v 0.040902 0.006623 0.064529
v 0.038759 0.017493 0.052783
v 0.048758 -0.006217 0.053600
v 0.047888 0.002573 0.040084
v 0.043040 -0.022072 0.045729
v 0.041244 -0.015849 0.030938
v 0.033581 -0.025128 0.080737
v 0.029098 -0.005854 0.079845
v 0.018681 -0.012116 0.079713
v 0.040094 -0.007359 0.074888
v 0.045228 -0.015749 0.067747
v 0.041491 -0.026109 0.062604
v -0.001805 0.002793 0.034097
v 0.003950 -0.006613 0.026091
v 0.016278 -0.008300 0.020534
v -0.006209 -0.003317 0.042922
v 0.001934 -0.016626 0.031592
v 0.019378 -0.019014 0.023729
v -0.005962 -0.009389 0.052217
v 0.002413 -0.016512 0.064042
v 0.003167 -0.024308 0.039518
v 0.010269 -0.029352 0.053113
v 0.022720 -0.026984 0.030704
v 0.027098 -0.031655 0.045527
v 0.014945 -0.022476 0.074570
v 0.020079 -0.030866 0.067428
v 0.031074 -0.032370 0.062472
vt 0.656100 0.992600
vt 0.631200 0.911200
vt 0.697100 0.916300
vt 0.807200 0.988100
vt 0.740700 0.923500
vt 0.803700 0.906300
vt 0.869200 0.920300
vt 0.945900 0.994300
vt 0.910300 0.916600
vt 0.976000 0.911600
vt 0.621400 0.860000
vt 0.712300 0.865100
vt 0.805000 0.864000
vt 0.893900 0.864600
vt 0.989500 0.851700
vt 0.649500 0.723800
vt 0.728500 0.750100
vt 0.713700 0.816500
vt 0.620300 0.802300
vt 0.809300 0.758900
vt 0.807200 0.823700
vt 0.888200 0.744400
vt 0.898300 0.814700
vt 0.958700 0.701700
vt 0.993800 0.786400
vt 0.790300 0.600400
vt 0.754000 0.680800
vt 0.705800 0.653900
vt 0.806700 0.687400
vt 0.855600 0.671700
vt 0.889000 0.633800
vt 0.697100 0.916300
vt 0.803700 0.906300
vt 0.740700 0.923500
vt 0.869200 0.920300
vt 0.910300 0.916600
vt 0.712300 0.865100
vt 0.805000 0.864000
vt 0.893900 0.864600
vt 0.713700 0.816500
vt 0.728500 0.750100
vt 0.807200 0.823700
vt 0.809300 0.758900
vt 0.898300 0.814700
vt 0.888200 0.744400
vt 0.754000 0.680800
vt 0.806700 0.687400
vt 0.855600 0.671700
vt 0.656100 0.992600
vt 0.631200 0.911200
vt 0.697100 0.916300
vt 0.807200 0.988100
vt 0.740700 0.923500
vt 0.803700 0.906300
vt 0.869200 0.920300
vt 0.945900 0.994300
vt 0.910300 0.916600
vt 0.976000 0.911600
vt 0.621400 0.860000
vt 0.712300 0.865100
vt 0.805000 0.864000
vt 0.893900 0.864600
vt 0.989500 0.851700
vt 0.649500 0.723800
vt 0.728500 0.750100
vt 0.713700 0.816500
vt 0.620300 0.802300
vt 0.809300 0.758900
vt 0.807200 0.823700
vt 0.888200 0.744400
vt 0.898300 0.814700
vt 0.958700 0.701700
vt 0.993800 0.786400
vt 0.790300 0.600400
vt 0.754000 0.680800
vt 0.705800 0.653900
vt 0.806700 0.687400
vt 0.855600 0.671700
vt 0.889000 0.633800
vt 0.697100 0.916300
vt 0.803700 0.906300
vt 0.740700 0.923500
vt 0.869200 0.920300
vt 0.910300 0.916600
vt 0.712300 0.865100
vt 0.805000 0.864000
vt 0.893900 0.864600
vt 0.713700 0.816500
vt 0.728500 0.750100
vt 0.807200 0.823700
vt 0.809300 0.758900
vt 0.898300 0.814700
vt 0.888200 0.744400
vt 0.754000 0.680800
vt 0.806700 0.687400
vt 0.855600 0.671700
vt 0.656100 0.992600
vt 0.631200 0.911200
vt 0.697100 0.916300
vt 0.807200 0.988100
vt 0.740700 0.923500
vt 0.803700 0.906300
vt 0.869200 0.920300
vt 0.945900 0.994300
vt 0.910300 0.916600
vt 0.976000 0.911600
vt 0.621400 0.860000
vt 0.712300 0.865100
vt 0.805000 0.864000
vt 0.893900 0.864600
vt 0.989500 0.851700
vt 0.649500 0.723800
vt 0.728500 0.750100
vt 0.713700 0.816500
vt 0.620300 0.802300
vt 0.809300 0.758900
vt 0.807200 0.823700
vt 0.888200 0.744400
vt 0.898300 0.814700
vt 0.958700 0.701700
vt 0.993800 0.786400
vt 0.790300 0.600400
vt 0.754000 0.680800
vt 0.705800 0.653900
vt 0.806700 0.687400
vt 0.855600 0.671700
vt 0.889000 0.633800
vt 0.697100 0.916300
vt 0.803700 0.906300
vt 0.740700 0.923500
vt 0.869200 0.920300
vt 0.910300 0.916600
vt 0.712300 0.865100
vt 0.805000 0.864000
vt 0.893900 0.864600
vt 0.713700 0.816500
vt 0.728500 0.750100
vt 0.807200 0.823700
vt 0.809300 0.758900
vt 0.898300 0.814700
vt 0.888200 0.744400
vt 0.754000 0.680800
vt 0.806700 0.687400
vt 0.855600 0.671700
vt 0.656100 0.992600
vt 0.631200 0.911200
vt 0.697100 0.916300
vt 0.807200 0.988100
vt 0.740700 0.923500
vt 0.803700 0.906300
vt 0.869200 0.920300
vt 0.945900 0.994300
vt 0.910300 0.916600
vt 0.976000 0.911600
vt 0.621400 0.860000
vt 0.712300 0.865100
vt 0.805000 0.864000
vt 0.893900 0.864600
vt 0.989500 0.851700
vt 0.649500 0.723800
vt 0.728500 0.750100
vt 0.713700 0.816500
vt 0.620300 0.802300
vt 0.809300 0.758900
vt 0.807200 0.823700
vt 0.888200 0.744400
vt 0.898300 0.814700
vt 0.958700 0.701700
vt 0.993800 0.786400
vt 0.790300 0.600400
vt 0.754000 0.680800
vt 0.705800 0.653900
vt 0.806700 0.687400
vt 0.855600 0.671700
vt 0.889000 0.633800
vt 0.697100 0.916300
vt 0.803700 0.906300
vt 0.740700 0.923500
vt 0.869200 0.920300
vt 0.910300 0.916600
vt 0.712300 0.865100
vt 0.805000 0.864000
vt 0.893900 0.864600
vt 0.713700 0.816500
vt 0.728500 0.750100
vt 0.807200 0.823700
vt 0.809300 0.758900
vt 0.898300 0.814700
vt 0.888200 0.744400
vt 0.754000 0.680800
vt 0.806700 0.687400
vt 0.855600 0.671700
vt 0.656100 0.992600
vt 0.631200 0.911200
vt 0.697100 0.916300
vt 0.807200 0.988100
vt 0.740700 0.923500
vt 0.803700 0.906300
vt 0.869200 0.920300
vt 0.945900 0.994300
vt 0.910300 0.916600
vt 0.976000 0.911600
vt 0.621400 0.860000
vt 0.712300 0.865100
vt 0.805000 0.864000
vt 0.893900 0.864600
vt 0.989500 0.851700
vt 0.649500 0.723800
vt 0.728500 0.750100
vt 0.713700 0.816500
vt 0.620300 0.802300
vt 0.809300 0.758900
vt 0.807200 0.823700
vt 0.888200 0.744400
vt 0.898300 0.814700
vt 0.958700 0.701700
vt 0.993800 0.786400
vt 0.790300 0.600400
vt 0.754000 0.680800
vt 0.705800 0.653900
vt 0.806700 0.687400
vt 0.855600 0.671700
vt 0.889000 0.633800
vt 0.697100 0.916300
vt 0.803700 0.906300
vt 0.740700 0.923500
vt 0.869200 0.920300
vt 0.910300 0.916600
vt 0.712300 0.865100
vt 0.805000 0.864000
vt 0.893900 0.864600
vt 0.713700 0.816500
vt 0.728500 0.750100
vt 0.807200 0.823700
vt 0.809300 0.758900
vt 0.898300 0.814700
vt 0.888200 0.744400
vt 0.754000 0.680800
vt 0.806700 0.687400
vt 0.855600 0.671700
vt 0.656100 0.992600
vt 0.631200 0.911200
vt 0.697100 0.916300
vt 0.807200 0.988100
vt 0.740700 0.923500
vt 0.803700 0.906300
vt 0.869200 0.920300
vt 0.945900 0.994300
vt 0.910300 0.916600
vt 0.976000 0.911600
vt 0.621400 0.860000
vt 0.712300 0.865100
vt 0.805000 0.864000
vt 0.893900 0.864600
vt 0.989500 0.851700
vt 0.649500 0.723800
vt 0.728500 0.750100
vt 0.713700 0.816500
vt 0.620300 0.802300
vt 0.809300 0.758900
vt 0.807200 0.823700
vt 0.888200 0.744400
vt 0.898300 0.814700
vt 0.958700 0.701700
vt 0.993800 0.786400
vt 0.790300 0.600400
vt 0.754000 0.680800
vt 0.705800 0.653900
vt 0.806700 0.687400
vt 0.855600 0.671700
vt 0.889000 0.633800
vt 0.697100 0.916300
vt 0.803700 0.906300
vt 0.740700 0.923500
vt 0.869200 0.920300
vt 0.910300 0.916600
vt 0.712300 0.865100
vt 0.805000 0.864000
vt 0.893900 0.864600
vt 0.713700 0.816500
vt 0.728500 0.750100
vt 0.807200 0.823700
vt 0.809300 0.758900
vt 0.898300 0.814700
vt 0.888200 0.744400
vt 0.754000 0.680800
vt 0.806700 0.687400
vt 0.855600 0.671700
vt 0.656100 0.992600
vt 0.631200 0.911200
vt 0.697100 0.916300
vt 0.807200 0.988100
vt 0.740700 0.923500
vt 0.803700 0.906300
vt 0.869200 0.920300
vt 0.945900 0.994300
vt 0.910300 0.916600
vt 0.976000 0.911600
vt 0.621400 0.860000
vt 0.712300 0.865100
vt 0.805000 0.864000
vt 0.893900 0.864600
vt 0.989500 0.851700
vt 0.649500 0.723800
vt 0.728500 0.750100
vt 0.713700 0.816500
vt 0.620300 0.802300
vt 0.809300 0.758900
vt 0.807200 0.823700
vt 0.888200 0.744400
vt 0.898300 0.814700
vt 0.958700 0.701700
vt 0.993800 0.786400
vt 0.790300 0.600400
vt 0.754000 0.680800
vt 0.705800 0.653900
vt 0.806700 0.687400
vt 0.855600 0.671700
vt 0.889000 0.633800
vt 0.697100 0.916300
vt 0.803700 0.906300
vt 0.740700 0.923500
vt 0.869200 0.920300
vt 0.910300 0.916600
vt 0.712300 0.865100
vt 0.805000 0.864000
vt 0.893900 0.864600
vt 0.713700 0.816500
vt 0.728500 0.750100
vt 0.807200 0.823700
vt 0.809300 0.758900
vt 0.898300 0.814700
vt 0.888200 0.744400
vt 0.754000 0.680800
vt 0.806700 0.687400
vt 0.855600 0.671700
vn 0.7454 0.5083 -0.4313
vn 0.2456 0.6681 -0.7023
vn 0.3054 0.8906 -0.3369
vn 0.5469 0.8370 0.0175
vn 0.8283 0.5393 0.1520
vn 0.9851 0.1718 -0.0103
vn -0.2539 0.6209 -0.7416
vn -0.1593 0.9738 -0.1621
vn 0.2236 0.8890 0.3996
vn 0.6705 0.4163 0.6142
vn 0.9193 -0.1671 0.3564
vn -0.8779 0.2305 -0.4197
vn -0.7791 0.5989 0.1852
vn -0.5383 0.8423 0.0273
vn -0.6440 0.4481 -0.6201
vn -0.3796 0.5104 0.7716
vn -0.1107 0.7476 0.6549
vn 0.0866 0.0168 0.9961
vn 0.3882 0.2194 0.8951
vn 0.3465 -0.5927 0.7271
vn 0.6662 -0.4329 0.6072
vn -0.7456 -0.5081 0.4312
vn -0.8973 0.3249 0.2990
vn -0.9791 0.0196 -0.2023
vn -0.5662 0.2515 0.7850
vn -0.1798 -0.1576 0.9710
vn 0.0355 -0.6627 0.7480
vn 0.4027 0.2999 -0.8648
vn 0.6843 0.0018 -0.7292
vn 0.9257 -0.0513 -0.3748
vn -0.0050 0.0371 -0.9993
vn 0.4416 -0.4358 -0.7843
vn 0.8245 -0.5204 -0.2224
vn -0.3659 -0.2042 -0.9080
vn -0.6181 -0.3790 -0.6887
vn 0.1330 -0.7324 -0.6677
vn -0.1519 -0.8726 -0.4643
vn 0.5605 -0.8272 -0.0401
vn 0.2477 -0.9611 0.1222
vn -0.7638 -0.4856 -0.4253
vn -0.3775 -0.8946 -0.2392
vn -0.0464 -0.9680 0.2468
vn -0.8316 0.5083 0.2237
vn -0.4191 0.6681 0.6148
vn -0.3822 0.8906 0.2464
vn -0.5238 0.8370 -0.1585
vn -0.7607 0.5393 -0.3612
vn -0.9542 0.1718 -0.2450
vn 0.0533 0.6209 0.7821
vn 0.1119 0.9738 0.1979
vn -0.1125 0.8890 -0.4439
vn -0.4887 0.4163 -0.7667
vn -0.7957 -0.1671 -0.5821
vn 0.7393 0.2305 0.6326
vn 0.8005 0.5989 0.0228
vn 0.5270 0.8423 0.1130
vn 0.4616 0.4481 0.7656
vn 0.5664 0.5104 -0.6471
vn 0.2764 0.7476 -0.6039
vn 0.1741 0.0168 -0.9846
vn -0.1433 0.2193 -0.9651
vn -0.1465 -0.5927 -0.7920
vn -0.4864 -0.4329 -0.7590
vn 0.8318 -0.5081 -0.2236
vn 0.9441 0.3249 -0.0566
vn 0.8934 0.0196 0.4488
vn 0.7500 0.2515 -0.6117
vn 0.4250 -0.1575 -0.8914
vn 0.1593 -0.6627 -0.7318
vn -0.6128 0.2999 0.7312
vn -0.8497 0.0018 0.5272
vn -0.9912 -0.0514 0.1222
vn -0.2538 0.0371 0.9665
vn -0.6295 -0.4358 0.6433
vn -0.8539 -0.5204 0.0014
vn 0.1185 -0.2042 0.9717
vn 0.4188 -0.3790 0.8252
vn -0.3013 -0.7324 0.6106
vn 0.0265 -0.8726 0.4878
vn -0.5518 -0.8272 -0.1063
vn -0.2076 -0.9611 -0.1821
vn 0.6277 -0.4856 0.6084
vn 0.3027 -0.8946 0.3288
vn 0.1087 -0.9680 -0.2264
vn 0.1578 -0.4491 0.8794
vn 0.1908 0.1331 0.9726
vn -0.2186 -0.0044 0.9758
vn -0.4237 -0.3568 0.8325
vn -0.3038 -0.7168 0.6276
vn 0.0696 -0.8743 0.4803
vn 0.1665 0.5988 0.7834
vn -0.4829 0.3809 0.7885
vn -0.8082 -0.1777 0.5615
vn -0.6185 -0.7496 0.2358
vn -0.0258 -0.9997 0.0016
vn 0.0441 0.9945 0.0950
vn -0.6338 0.7670 0.1003
vn -0.6157 0.6427 0.4559
vn 0.1098 0.8862 0.4501
vn -0.9734 0.1840 -0.1366
vn -0.9791 0.0188 0.2023
vn -0.7757 -0.4130 -0.4772
vn -0.7676 -0.6200 -0.1621
vn -0.1566 -0.6742 -0.7218
vn -0.1051 -0.8996 -0.4239
vn -0.1578 0.4493 -0.8793
vn -0.5784 0.7873 -0.2136
vn -0.0166 0.9758 -0.2180
vn -0.8599 0.3041 -0.4100
vn -0.6961 -0.1906 -0.6921
vn -0.1830 -0.4071 -0.8949
vn 0.5649 -0.0248 0.8248
vn 0.6842 -0.3854 0.6192
vn 0.4787 -0.7377 0.4761
vn 0.7596 0.3486 0.5490
vn 0.9489 -0.2232 0.2229
vn 0.6235 -0.7818 -0.0040
vn 0.7723 0.6066 0.1884
vn 0.6633 0.7333 -0.1496
vn 0.9839 -0.0322 -0.1760
vn 0.8609 0.1363 -0.4901
vn 0.6204 -0.6561 -0.4296
vn 0.5213 -0.4467 -0.7271
vn 0.4964 0.7593 -0.4207
vn 0.6602 0.2646 -0.7029
vn 0.3788 -0.2185 -0.8993
vn -0.3213 -0.5184 -0.7925
vn -0.1803 0.0224 -0.9834
vn 0.1679 -0.2321 -0.9581
vn 0.2623 -0.6015 -0.7546
vn 0.0473 -0.8686 -0.4932
vn -0.3501 -0.8781 -0.3260
vn -0.0085 0.4831 -0.8755
vn 0.5437 0.0796 -0.8355
vn 0.6934 -0.5060 -0.5131
vn 0.3526 -0.9307 -0.0975
vn -0.2783 -0.9457 0.1679
vn 0.2553 0.9305 -0.2627
vn 0.8317 0.5094 -0.2209
vn 0.7627 0.3396 -0.5504
vn 0.1458 0.7903 -0.5952
vn 0.9880 -0.1018 0.1157
vn 0.9300 -0.3145 -0.1902
vn 0.6327 -0.5452 0.5500
vn 0.5497 -0.7889 0.2746
vn -0.0262 -0.5609 0.8275
vn -0.1554 -0.8057 0.5715
vn 0.3213 0.5186 0.7923
vn 0.7977 0.5971 0.0843
vn 0.3200 0.9461 0.0497
vn 0.9273 0.0906 0.3633
vn 0.6328 -0.2768 0.7232
vn 0.0867 -0.2898 0.9532
vn -0.5783 0.0128 -0.8157
vn -0.7929 -0.2550 -0.5535
vn -0.6982 -0.6244 -0.3503
vn -0.6397 0.4680 -0.6097
vn -0.9801 0.0433 -0.1937
vn -0.8302 -0.5424 0.1286
vn -0.5593 0.7735 -0.2982
vn -0.4036 0.9148 0.0148
vn -0.9396 0.2990 0.1665
vn -0.7590 0.4715 0.4490
vn -0.7723 -0.3551 0.5268
vn -0.6026 -0.1398 0.7857
vn -0.2260 0.9331 0.2796
vn -0.5205 0.5658 0.6395
vn -0.3910 0.0592 0.9185
vn 0.8317 0.5082 -0.2237
vn 0.4191 0.6681 -0.6148
vn 0.3822 0.8906 -0.2464
vn 0.5238 0.8370 0.1584
vn 0.7607 0.5393 0.3612
vn 0.9542 0.1718 0.2450
vn -0.0533 0.6209 -0.7820
vn -0.1119 0.9738 -0.1978
vn 0.1125 0.8890 0.4439
vn 0.4886 0.4163 0.7668
vn 0.7955 -0.1672 0.5824
vn -0.7393 0.2305 -0.6326
vn -0.8005 0.5989 -0.0228
vn -0.5270 0.8423 -0.1130
vn -0.4616 0.4481 -0.7656
vn -0.5664 0.5104 0.6471
vn -0.2765 0.7476 0.6039
vn -0.1741 0.0168 0.9846
vn 0.1433 0.2194 0.9651
vn 0.1465 -0.5927 0.7920
vn 0.4864 -0.4329 0.7590
vn -0.8318 -0.5081 0.2236
vn -0.9441 0.3249 0.0566
vn -0.8934 0.0196 -0.4488
vn -0.7501 0.2515 0.6117
vn -0.4250 -0.1576 0.8914
vn -0.1593 -0.6627 0.7318
vn 0.6128 0.2999 -0.7311
vn 0.8497 0.0019 -0.5272
vn 0.9912 -0.0516 -0.1219
vn 0.2538 0.0371 -0.9666
vn 0.6295 -0.4358 -0.6433
vn 0.8539 -0.5204 -0.0015
vn -0.1185 -0.2042 -0.9717
vn -0.4188 -0.3790 -0.8252
vn 0.3013 -0.7324 -0.6106
vn -0.0265 -0.8726 -0.4878
vn 0.5518 -0.8272 0.1063
vn 0.2076 -0.9611 0.1821
vn -0.6277 -0.4855 -0.6085
vn -0.3027 -0.8946 -0.3288
vn -0.1087 -0.9680 0.2264
vn 0.3647 0.5083 0.7802
vn 0.6783 0.6681 0.3059
vn 0.3090 0.8906 0.3336
vn -0.0651 0.8370 0.5433
vn -0.2236 0.5393 0.8119
vn -0.0756 0.1718 0.9822
vn 0.7609 0.6209 -0.1883
vn 0.1754 0.9738 -0.1445
vn -0.4176 0.8890 0.1879
vn -0.6702 0.4163 0.6144
vn -0.4351 -0.1671 0.8847
vn 0.4946 0.2305 -0.8380
vn -0.1166 0.5989 -0.7923
vn 0.0197 0.8423 -0.5386
vn 0.6738 0.4481 -0.5875
vn -0.7356 0.5104 -0.4454
vn -0.6427 0.7476 -0.1674
vn -0.9999 0.0168 -0.0005
vn -0.9255 0.2194 0.3087
vn -0.7545 -0.5927 0.2818
vn -0.6630 -0.4329 0.6108
vn -0.3646 -0.5081 -0.7803
vn -0.2196 0.3249 -0.9199
vn 0.2869 0.0196 -0.9578
vn -0.7327 0.2515 -0.6324
vn -0.9516 -0.1575 -0.2638
vn -0.7483 -0.6627 -0.0298
vn 0.8264 0.2999 0.4765
vn 0.6668 0.0019 0.7453
vn 0.2927 -0.0513 0.9548
vn 0.9959 0.0370 0.0821
vn 0.7428 -0.4358 0.5083
vn 0.1497 -0.5204 0.8407
vn 0.9364 -0.2042 -0.2854
vn 0.7400 -0.3790 -0.5557
vn 0.6536 -0.7324 0.1906
vn 0.4757 -0.8726 -0.1108
vn -0.0089 -0.8272 0.5619
vn -0.1433 -0.9611 0.2361
vn 0.4902 -0.4855 -0.7238
vn 0.2712 -0.8946 -0.3552
vn -0.2418 -0.9680 -0.0677
vn -0.2953 0.5082 -0.8090
vn -0.6490 0.6681 -0.3639
vn -0.2788 0.8906 -0.3593
vn 0.1122 0.8370 -0.5356
vn 0.2935 0.5393 -0.7893
vn 0.1609 0.1718 -0.9719
vn -0.7744 0.6209 0.1213
vn -0.1873 0.9738 0.1287
vn 0.4324 0.8890 -0.1508
vn 0.7212 0.4163 -0.5536
vn 0.5106 -0.1671 -0.8434
vn -0.5658 0.2305 0.7917
vn 0.0470 0.5989 0.7994
vn -0.0666 0.8423 0.5348
vn -0.7225 0.4481 0.5265
vn 0.6940 0.5104 0.5078
vn 0.6257 0.7476 0.2228
vn 0.9960 0.0168 0.0876
vn 0.9489 0.2193 -0.2269
vn 0.7762 -0.5927 -0.2149
vn 0.7137 -0.4329 -0.5507
vn 0.2952 -0.5081 0.8091
vn 0.1386 0.3249 0.9355
vn -0.3693 0.0196 0.9291
vn 0.6747 0.2515 0.6939
vn 0.9250 -0.1576 0.3457
vn 0.7428 -0.6627 0.0949
vn -0.7818 0.2999 -0.5467
vn -0.5993 0.0018 -0.8005
vn -0.2082 -0.0514 -0.9767
vn -0.9850 0.0371 -0.1686
vn -0.6957 -0.4358 -0.5711
vn -0.0758 -0.5204 -0.8506
vn -0.9577 -0.2042 0.2027
vn -0.7856 -0.3790 0.4891
vn -0.6345 -0.7324 -0.2469
vn -0.4836 -0.8726 0.0689
vn 0.0578 -0.8272 -0.5590
vn 0.1634 -0.9611 -0.2227
vn -0.5514 -0.4855 0.6784
vn -0.3011 -0.8946 0.3301
vn 0.2350 -0.9680 0.0885
s 1
f 1/1/1 2/2/2 3/3/3
f 1/4/1 3/5/3 4/6/4
f 1/4/1 4/6/4 5/7/5
f 1/8/1 5/9/5 6/10/6
f 7/11/7 8/12/8 3/3/3
f 3/3/3 2/2/2 7/11/7
f 8/12/8 9/13/9 4/6/4
f 4/6/4 3/5/3 8/12/8
f 9/13/9 10/14/10 5/7/5
f 5/7/5 4/6/4 9/13/9
f 10/14/10 11/15/11 6/10/6
f 6/10/6 5/9/5 10/14/10
f 12/16/12 13/17/13 14/18/14
f 14/18/14 15/19/15 12/16/12
f 13/17/13 16/20/16 17/21/17
f 17/21/17 14/18/14 13/17/13
f 16/20/16 18/22/18 19/23/19
f 19/23/19 17/21/17 16/20/16
f 18/22/18 20/24/20 21/25/21
f 21/25/21 19/23/19 18/22/18
f 22/26/22 23/27/23 24/28/24
f 22/26/22 25/29/25 23/27/23
f 22/26/22 26/30/26 25/29/25
f 22/26/22 27/31/27 26/30/26
f 15/19/15 14/18/14 8/12/8
f 8/12/8 7/11/7 15/19/15
f 14/18/14 17/21/17 9/13/9
f 9/13/9 8/12/8 14/18/14
f 17/21/17 19/23/19 10/14/10
f 10/14/10 9/13/9 17/21/17
f 19/23/19 21/25/21 11/15/11
f 11/15/11 10/14/10 19/23/19
f 24/28/24 23/27/23 13/17/13
f 13/17/13 12/16/12 24/28/24
f 23/27/23 25/29/25 16/20/16
f 16/20/16 13/17/13 23/27/23
f 25/29/25 26/30/26 18/22/18
f 18/22/18 16/20/16 25/29/25
f 26/30/26 27/31/27 20/24/20
f 20/24/20 18/22/18 26/30/26
f 1/1/1 28/32/28 2/2/2
f 1/4/1 29/33/29 28/34/28
f 1/4/1 30/35/30 29/33/29
f 1/8/1 6/10/6 30/36/30
f 7/11/7 2/2/2 28/32/28
f 28/32/28 31/37/31 7/11/7
f 31/37/31 28/34/28 29/33/29
f 29/33/29 32/38/32 31/37/31
f 32/38/32 29/33/29 30/35/30
f 30/35/30 33/39/33 32/38/32
f 33/39/33 30/36/30 6/10/6
f 6/10/6 11/15/11 33/39/33
f 12/16/12 15/19/15 34/40/34
f 34/40/34 35/41/35 12/16/12
f 35/41/35 34/40/34 36/42/36
f 36/42/36 37/43/37 35/41/35
f 37/43/37 36/42/36 38/44/38
f 38/44/38 39/45/39 37/43/37
f 39/45/39 38/44/38 21/25/21
f 21/25/21 20/24/20 39/45/39
f 22/26/22 24/28/24 40/46/40
f 22/26/22 40/46/40 41/47/41
f 22/26/22 41/47/41 42/48/42
f 22/26/22 42/48/42 27/31/27
f 15/19/15 7/11/7 31/37/31
f 31/37/31 34/40/34 15/19/15
f 34/40/34 31/37/31 32/38/32
f 32/38/32 36/42/36 34/40/34
f 36/42/36 32/38/32 33/39/33
f 33/39/33 38/44/38 36/42/36
f 38/44/38 33/39/33 11/15/11
f 11/15/11 21/25/21 38/44/38
f 24/28/24 12/16/12 35/41/35
f 35/41/35 40/46/40 24/28/24
f 40/46/40 35/41/35 37/43/37
f 37/43/37 41/47/41 40/46/40
f 41/47/41 37/43/37 39/45/39
f 39/45/39 42/48/42 41/47/41
f 42/48/42 39/45/39 20/24/20
f 20/24/20 27/31/27 42/48/42
s 2
f 43/49/43 44/50/44 45/51/45
f 43/52/43 45/53/45 46/54/46
f 43/52/43 46/54/46 47/55/47
f 43/56/43 47/57/47 48/58/48
f 49/59/49 50/60/50 45/51/45
f 45/51/45 44/50/44 49/59/49
f 50/60/50 51/61/51 46/54/46
f 46/54/46 45/53/45 50/60/50
f 51/61/51 52/62/52 47/55/47
f 47/55/47 46/54/46 51/61/51
f 52/62/52 53/63/53 48/58/48
f 48/58/48 47/57/47 52/62/52
f 54/64/54 55/65/55 56/66/56
f 56/66/56 57/67/57 54/64/54
f 55/65/55 58/68/58 59/69/59
f 59/69/59 56/66/56 55/65/55
f 58/68/58 60/70/60 61/71/61
f 61/71/61 59/69/59 58/68/58
f 60/70/60 62/72/62 63/73/63
f 63/73/63 61/71/61 60/70/60
f 64/74/64 65/75/65 66/76/66
f 64/74/64 67/77/67 65/75/65
f 64/74/64 68/78/68 67/77/67
f 64/74/64 69/79/69 68/78/68
f 57/67/57 56/66/56 50/60/50
f 50/60/50 49/59/49 57/67/57
f 56/66/56 59/69/59 51/61/51
f 51/61/51 50/60/50 56/66/56
f 59/69/59 61/71/61 52/62/52
f 52/62/52 51/61/51 59/69/59
f 61/71/61 63/73/63 53/63/53
f 53/63/53 52/62/52 61/71/61
f 66/76/66 65/75/65 55/65/55
f 55/65/55 54/64/54 66/76/66
f 65/75/65 67/77/67 58/68/58
f 58/68/58 55/65/55 65/75/65
f 67/77/67 68/78/68 60/70/60
f 60/70/60 58/68/58 67/77/67
f 68/78/68 69/79/69 62/72/62
f 62/72/62 60/70/60 68/78/68
f 43/49/43 70/80/70 44/50/44
f 43/52/43 71/81/71 70/82/70
f 43/52/43 72/83/72 71/81/71
f 43/56/43 48/58/48 72/84/72
f 49/59/49 44/50/44 70/80/70
f 70/80/70 73/85/73 49/59/49
f 73/85/73 70/82/70 71/81/71
f 71/81/71 74/86/74 73/85/73
f 74/86/74 71/81/71 72/83/72
f 72/83/72 75/87/75 74/86/74
f 75/87/75 72/84/72 48/58/48
f 48/58/48 53/63/53 75/87/75
f 54/64/54 57/67/57 76/88/76
f 76/88/76 77/89/77 54/64/54
f 77/89/77 76/88/76 78/90/78
f 78/90/78 79/91/79 77/89/77
f 79/91/79 78/90/78 80/92/80
f 80/92/80 81/93/81 79/91/79
f 81/93/81 80/92/80 63/73/63
f 63/73/63 62/72/62 81/93/81
f 64/74/64 66/76/66 82/94/82
f 64/74/64 82/94/82 83/95/83
f 64/74/64 83/95/83 84/96/84
f 64/74/64 84/96/84 69/79/69
f 57/67/57 49/59/49 73/85/73
f 73/85/73 76/88/76 57/67/57
f 76/88/76 73/85/73 74/86/74
f 74/86/74 78/90/78 76/88/76
f 78/90/78 74/86/74 75/87/75
f 75/87/75 80/92/80 78/90/78
f 80/92/80 75/87/75 53/63/53
f 53/63/53 63/73/63 80/92/80
f 66/76/66 54/64/54 77/89/77
f 77/89/77 82/94/82 66/76/66
f 82/94/82 77/89/77 79/91/79
f 79/91/79 83/95/83 82/94/82
f 83/95/83 79/91/79 81/93/81
f 81/93/81 84/96/84 83/95/83
f 84/96/84 81/93/81 62/72/62
f 62/72/62 69/79/69 84/96/84
s 3
f 85/97/85 86/98/86 87/99/87
f 85/100/85 87/101/87 88/102/88
f 85/100/85 88/102/88 89/103/89
f 85/104/85 89/105/89 90/106/90
f 91/107/91 92/108/92 87/99/87
f 87/99/87 86/98/86 91/107/91
f 92/108/92 93/109/93 88/102/88
f 88/102/88 87/101/87 92/108/92
f 93/109/93 94/110/94 89/103/89
f 89/103/89 88/102/88 93/109/93
f 94/110/94 95/111/95 90/106/90
f 90/106/90 89/105/89 94/110/94
f 96/112/96 97/113/97 98/114/98
f 98/114/98 99/115/99 96/112/96
f 97/113/97 100/116/100 101/117/101
f 101/117/101 98/114/98 97/113/97
f 100/116/100 102/118/102 103/119/103
f 103/119/103 101/117/101 100/116/100
f 102/118/102 104/120/104 105/121/105
f 105/121/105 103/119/103 102/118/102
f 106/122/106 107/123/107 108/124/108
f 106/122/106 109/125/109 107/123/107
f 106/122/106 110/126/110 109/125/109
f 106/122/106 111/127/111 110/126/110
f 99/115/99 98/114/98 92/108/92
f 92/108/92 91/107/91 99/115/99
f 98/114/98 101/117/101 93/109/93
f 93/109/93 92/108/92 98/114/98
f 101/117/101 103/119/103 94/110/94
f 94/110/94 93/109/93 101/117/101
f 103/119/103 105/121/105 95/111/95
f 95/111/95 94/110/94 103/119/103
f 108/124/108 107/123/107 97/113/97
f 97/113/97 96/112/96 108/124/108
f 107/123/107 109/125/109 100/116/100
f 100/116/100 97/113/97 107/123/107
f 109/125/109 110/126/110 102/118/102
f 102/118/102 100/116/100 109/125/109
f 110/126/110 111/127/111 104/120/104
f 104/120/104 102/118/102 110/126/110
f 85/97/85 112/128/112 86/98/86
f 85/100/85 113/129/113 112/130/112
f 85/100/85 114/131/114 113/129/113
f 85/104/85 90/106/90 114/132/114
f 91/107/91 86/98/86 112/128/112
f 112/128/112 115/133/115 91/107/91
f 115/133/115 112/130/112 113/129/113
f 113/129/113 116/134/116 115/133/115
f 116/134/116 113/129/113 114/131/114
f 114/131/114 117/135/117 116/134/116
f 117/135/117 114/132/114 90/106/90
f 90/106/90 95/111/95 117/135/117
f 96/112/96 99/115/99 118/136/118
f 118/136/118 119/137/119 96/112/96
f 119/137/119 118/136/118 120/138/120
f 120/138/120 121/139/121 119/137/119
f 121/139/121 120/138/120 122/140/122
f 122/140/122 123/141/123 121/139/121
f 123/141/123 122/140/122 105/121/105
f 105/121/105 104/120/104 123/141/123
f 106/122/106 108/124/108 124/142/124
f 106/122/106 124/142/124 125/143/125
f 106/122/106 125/143/125 126/144/126
f 106/122/106 126/144/126 111/127/111
f 99/115/99 91/107/91 115/133/115
f 115/133/115 118/136/118 99/115/99
f 118/136/118 115/133/115 116/134/116
f 116/134/116 120/138/120 118/136/118
f 120/138/120 116/134/116 117/135/117
f 117/135/117 122/140/122 120/138/120
f 122/140/122 117/135/117 95/111/95
f 95/111/95 105/121/105 122/140/122
f 108/124/108 96/112/96 119/137/119
f 119/137/119 124/142/124 108/124/108
f 124/142/124 119/137/119 121/139/121
f 121/139/121 125/143/125 124/142/124
f 125/143/125 121/139/121 123/141/123
f 123/141/123 126/144/126 125/143/125
f 126/144/126 123/141/123 104/120/104
f 104/120/104 111/127/111 126/144/126
s 4
f 127/145/127 128/146/128 129/147/129
f 127/148/127 129/149/129 130/150/130
f 127/148/127 130/150/130 131/151/131
f 127/152/127 131/153/131 132/154/132
f 133/155/133 134/156/134 129/147/129
f 129/147/129 128/146/128 133/155/133
f 134/156/134 135/157/135 130/150/130
f 130/150/130 129/149/129 134/156/134
f 135/157/135 136/158/136 131/151/131
f 131/151/131 130/150/130 135/157/135
f 136/158/136 137/159/137 132/154/132
f 132/154/132 131/153/131 136/158/136
f 138/160/138 139/161/139 140/162/140
f 140/162/140 141/163/141 138/160/138
f 139/161/139 142/164/142 143/165/143
f 143/165/143 140/162/140 139/161/139
f 142/164/142 144/166/144 145/167/145
f 145/167/145 143/165/143 142/164/142
f 144/166/144 146/168/146 147/169/147
f 147/169/147 145/167/145 144/166/144
f 148/170/148 149/171/149 150/172/150
f 148/170/148 151/173/151 149/171/149
f 148/170/148 152/174/152 151/173/151
f 148/170/148 153/175/153 152/174/152
f 141/163/141 140/162/140 134/156/134
f 134/156/134 133/155/133 141/163/141
f 140/162/140 143/165/143 135/157/135
f 135/157/135 134/156/134 140/162/140
f 143/165/143 145/167/145 136/158/136
f 136/158/136 135/157/135 143/165/143
f 145/167/145 147/169/147 137/159/137
f 137/159/137 136/158/136 145/167/145
f 150/172/150 149/171/149 139/161/139
f 139/161/139 138/160/138 150/172/150
f 149/171/149 151/173/151 142/164/142
f 142/164/142 139/161/139 149/171/149
f 151/173/151 152/174/152 144/166/144
f 144/166/144 142/164/142 151/173/151
f 152/174/152 153/175/153 146/168/146
f 146/168/146 144/166/144 152/174/152
f 127/145/127 154/176/154 128/146/128
f 127/148/127 155/177/155 154/178/154
f 127/148/127 156/179/156 155/177/155
f 127/152/127 132/154/132 156/180/156
f 133/155/133 128/146/128 154/176/154
f 154/176/154 157/181/157 133/155/133
f 157/181/157 154/178/154 155/177/155
f 155/177/155 158/182/158 157/181/157
f 158/182/158 155/177/155 156/179/156
f 156/179/156 159/183/159 158/182/158
f 159/183/159 156/180/156 132/154/132
f 132/154/132 137/159/137 159/183/159
f 138/160/138 141/163/141 160/184/160
f 160/184/160 161/185/161 138/160/138
f 161/185/161 160/184/160 162/186/162
f 162/186/162 163/187/163 161/185/161
f 163/187/163 162/186/162 164/188/164
f 164/188/164 165/189/165 163/187/163
f 165/189/165 164/188/164 147/169/147
f 147/169/147 146/168/146 165/189/165
f 148/170/148 150/172/150 166/190/166
f 148/170/148 166/190/166 167/191/167
f 148/170/148 167/191/167 168/192/168
f 148/170/148 168/192/168 153/175/153
f 141/163/141 133/155/133 157/181/157
f 157/181/157 160/184/160 141/163/141
f 160/184/160 157/181/157 158/182/158
f 158/182/158 162/186/162 160/184/160
f 162/186/162 158/182/158 159/183/159
f 159/183/159 164/188/164 162/186/162
f 164/188/164 159/183/159 137/159/137
f 137/159/137 147/169/147 164/188/164
f 150/172/150 138/160/138 161/185/161
f 161/185/161 166/190/166 150/172/150
f 166/190/166 161/185/161 163/187/163
f 163/187/163 167/191/167 166/190/166
f 167/191/167 163/187/163 165/189/165
f 165/189/165 168/192/168 167/191/167
f 168/192/168 165/189/165 146/168/146
f 146/168/146 153/175/153 168/192/168
s 5
f 169/193/169 170/194/170 171/195/171
f 169/196/169 171/197/171 172/198/172
f 169/196/169 172/198/172 173/199/173
f 169/200/169 173/201/173 174/202/174
f 175/203/175 176/204/176 171/195/171
f 171/195/171 170/194/170 175/203/175
f 176/204/176 177/205/177 172/198/172
f 172/198/172 171/197/171 176/204/176
f 177/205/177 178/206/178 173/199/173
f 173/199/173 172/198/172 177/205/177
f 178/206/178 179/207/179 174/202/174
f 174/202/174 173/201/173 178/206/178
f 180/208/180 181/209/181 182/210/182
f 182/210/182 183/211/183 180/208/180
f 181/209/181 184/212/184 185/213/185
f 185/213/185 182/210/182 181/209/181
f 184/212/184 186/214/186 187/215/187
f 187/215/187 185/213/185 184/212/184
f 186/214/186 188/216/188 189/217/189
f 189/217/189 187/215/187 186/214/186
f 190/218/190 191/219/191 192/220/192
f 190/218/190 193/221/193 191/219/191
f 190/218/190 194/222/194 193/221/193
f 190/218/190 195/223/195 194/222/194
f 183/211/183 182/210/182 176/204/176
f 176/204/176 175/203/175 183/211/183
f 182/210/182 185/213/185 177/205/177
f 177/205/177 176/204/176 182/210/182
f 185/213/185 187/215/187 178/206/178
f 178/206/178 177/205/177 185/213/185
f 187/215/187 189/217/189 179/207/179
f 179/207/179 178/206/178 187/215/187
f 192/220/192 191/219/191 181/209/181
f 181/209/181 180/208/180 192/220/192
f 191/219/191 193/221/193 184/212/184
f 184/212/184 181/209/181 191/219/191
f 193/221/193 194/222/194 186/214/186
f 186/214/186 184/212/184 193/221/193
f 194/222/194 195/223/195 188/216/188
f 188/216/188 186/214/186 194/222/194
f 169/193/169 196/224/196 170/194/170
f 169/196/169 197/225/197 196/226/196
f 169/196/169 198/227/198 197/225/197
f 169/200/169 174/202/174 198/228/198
f 175/203/175 170/194/170 196/224/196
f 196/224/196 199/229/199 175/203/175
f 199/229/199 196/226/196 197/225/197
f 197/225/197 200/230/200 199/229/199
f 200/230/200 197/225/197 198/227/198
f 198/227/198 201/231/201 200/230/200
f 201/231/201 198/228/198 174/202/174
f 174/202/174 179/207/179 201/231/201
f 180/208/180 183/211/183 202/232/202
f 202/232/202 203/233/203 180/208/180
f 203/233/203 202/232/202 204/234/204
f 204/234/204 205/235/205 203/233/203
f 205/235/205 204/234/204 206/236/206
f 206/236/206 207/237/207 205/235/205
f 207/237/207 206/236/206 189/217/189
f 189/217/189 188/216/188 207/237/207
f 190/218/190 192/220/192 208/238/208
f 190/218/190 208/238/208 209/239/209
f 190/218/190 209/239/209 210/240/210
f 190/218/190 210/240/210 195/223/195
f 183/211/183 175/203/175 199/229/199
f 199/229/199 202/232/202 183/211/183
f 202/232/202 199/229/199 200/230/200
f 200/230/200 204/234/204 202/232/202
f 204/234/204 200/230/200 201/231/201
f 201/231/201 206/236/206 204/234/204
f 206/236/206 201/231/201 179/207/179
f 179/207/179 189/217/189 206/236/206
f 192/220/192 180/208/180 203/233/203
f 203/233/203 208/238/208 192/220/192
f 208/238/208 203/233/203 205/235/205
f 205/235/205 209/239/209 208/238/208
f 209/239/209 205/235/205 207/237/207
f 207/237/207 210/240/210 209/239/209
f 210/240/210 207/237/207 188/216/188
f 188/216/188 195/223/195 210/240/210
s 6
f 211/241/211 212/242/212 213/243/213
f 211/244/211 213/245/213 214/246/214
f 211/244/211 214/246/214 215/247/215
f 211/248/211 215/249/215 216/250/216
f 217/251/217 218/252/218 213/243/213
f 213/243/213 212/242/212 217/251/217
f 218/252/218 219/253/219 214/246/214
f 214/246/214 213/245/213 218/252/218
f 219/253/219 220/254/220 215/247/215
f 215/247/215 214/246/214 219/253/219
f 220/254/220 221/255/221 216/250/216
f 216/250/216 215/249/215 220/254/220
f 222/256/222 223/257/223 224/258/224
f 224/258/224 225/259/225 222/256/222
f 223/257/223 226/260/226 227/261/227
f 227/261/227 224/258/224 223/257/223
f 226/260/226 228/262/228 229/263/229
f 229/263/229 227/261/227 226/260/226
f 228/262/228 230/264/230 231/265/231
f 231/265/231 229/263/229 228/262/228
f 232/266/232 233/267/233 234/268/234
f 232/266/232 235/269/235 233/267/233
f 232/266/232 236/270/236 235/269/235
f 232/266/232 237/271/237 236/270/236
f 225/259/225 224/258/224 218/252/218
f 218/252/218 217/251/217 225/259/225
f 224/258/224 227/261/227 219/253/219
f 219/253/219 218/252/218 224/258/224
f 227/261/227 229/263/229 220/254/220
f 220/254/220 219/253/219 227/261/227
f 229/263/229 231/265/231 221/255/221
f 221/255/221 220/254/220 229/263/229
f 234/268/234 233/267/233 223/257/223
f 223/257/223 222/256/222 234/268/234
f 233/267/233 235/269/235 226/260/226
f 226/260/226 223/257/223 233/267/233
f 235/269/235 236/270/236 228/262/228
f 228/262/228 226/260/226 235/269/235
f 236/270/236 237/271/237 230/264/230
f 230/264/230 228/262/228 236/270/236
f 211/241/211 238/272/238 212/242/212
f 211/244/211 239/273/239 238/274/238
f 211/244/211 240/275/240 239/273/239
f 211/248/211 216/250/216 240/276/240
f 217/251/217 212/242/212 238/272/238
f 238/272/238 241/277/241 217/251/217
f 241/277/241 238/274/238 239/273/239
f 239/273/239 242/278/242 241/277/241
f 242/278/242 239/273/239 240/275/240
f 240/275/240 243/279/243 242/278/242
f 243/279/243 240/276/240 216/250/216
f 216/250/216 221/255/221 243/279/243
f 222/256/222 225/259/225 244/280/244
f 244/280/244 245/281/245 222/256/222
f 245/281/245 244/280/244 246/282/246
f 246/282/246 247/283/247 245/281/245
f 247/283/247 246/282/246 248/284/248
f 248/284/248 249/285/249 247/283/247
f 249/285/249 248/284/248 231/265/231
f 231/265/231 230/264/230 249/285/249
f 232/266/232 234/268/234 250/286/250
f 232/266/232 250/286/250 251/287/251
f 232/266/232 251/287/251 252/288/252
f 232/266/232 252/288/252 237/271/237
f 225/259/225 217/251/217 241/277/241
f 241/277/241 244/280/244 225/259/225
f 244/280/244 241/277/241 242/278/242
f 242/278/242 246/282/246 244/280/244
f 246/282/246 242/278/242 243/279/243
f 243/279/243 248/284/248 246/282/246
f 248/284/248 243/279/243 221/255/221
f 221/255/221 231/265/231 248/284/248
f 234/268/234 222/256/222 245/281/245
f 245/281/245 250/286/250 234/268/234
f 250/286/250 245/281/245 247/283/247
f 247/283/247 251/287/251 250/286/250
f 251/287/251 247/283/247 249/285/249
f 249/285/249 252/288/252 251/287/251
f 252/288/252 249/285/249 230/264/230
f 230/264/230 237/271/237 252/288/252
s 7
f 253/289/253 254/290/254 255/291/255
f 253/292/253 255/293/255 256/294/256
f 253/292/253 256/294/256 257/295/257
f 253/296/253 257/297/257 258/298/258
f 259/299/259 260/300/260 255/291/255
f 255/291/255 254/290/254 259/299/259
f 260/300/260 261/301/261 256/294/256
f 256/294/256 255/293/255 260/300/260
f 261/301/261 262/302/262 257/295/257
f 257/295/257 256/294/256 261/301/261
f 262/302/262 263/303/263 258/298/258
f 258/298/258 257/297/257 262/302/262
f 264/304/264 265/305/265 266/306/266
f 266/306/266 267/307/267 264/304/264
f 265/305/265 268/308/268 269/309/269
f 269/309/269 266/306/266 265/305/265
f 268/308/268 270/310/270 271/311/271
f 271/311/271 269/309/269 268/308/268
f 270/310/270 272/312/272 273/313/273
f 273/313/273 271/311/271 270/310/270
f 274/314/274 275/315/275 276/316/276
f 274/314/274 277/317/277 275/315/275
f 274/314/274 278/318/278 277/317/277
f 274/314/274 279/319/279 278/318/278
f 267/307/267 266/306/266 260/300/260
f 260/300/260 259/299/259 267/307/267
f 266/306/266 269/309/269 261/301/261
f 261/301/261 260/300/260 266/306/266
f 269/309/269 271/311/271 262/302/262
f 262/302/262 261/301/261 269/309/269
f 271/311/271 273/313/273 263/303/263
f 263/303/263 262/302/262 271/311/271
f 276/316/276 275/315/275 265/305/265
f 265/305/265 264/304/264 276/316/276
f 275/315/275 277/317/277 268/308/268
f 268/308/268 265/305/265 275/315/275
f 277/317/277 278/318/278 270/310/270
f 270/310/270 268/308/268 277/317/277
f 278/318/278 279/319/279 272/312/272
f 272/312/272 270/310/270 278/318/278
f 253/289/253 280/320/280 254/290/254
f 253/292/253 281/321/281 280/322/280
f 253/292/253 282/323/282 281/321/281
f 253/296/253 258/298/258 282/324/282
f 259/299/259 254/290/254 280/320/280
f 280/320/280 283/325/283 259/299/259
f 283/325/283 280/322/280 281/321/281
f 281/321/281 284/326/284 283/325/283
f 284/326/284 281/321/281 282/323/282
f 282/323/282 285/327/285 284/326/284
f 285/327/285 282/324/282 258/298/258
f 258/298/258 263/303/263 285/327/285
f 264/304/264 267/307/267 286/328/286
f 286/328/286 287/329/287 264/304/264
f 287/329/287 286/328/286 288/330/288
f 288/330/288 289/331/289 287/329/287
f 289/331/289 288/330/288 290/332/290
f 290/332/290 291/333/291 289/331/289
f 291/333/291 290/332/290 273/313/273
f 273/313/273 272/312/272 291/333/291
f 274/314/274 276/316/276 292/334/292
f 274/314/274 292/334/292 293/335/293
f 274/314/274 293/335/293 294/336/294
f 274/314/274 294/336/294 279/319/279
f 267/307/267 259/299/259 283/325/283
f 283/325/283 286/328/286 267/307/267
f 286/328/286 283/325/283 284/326/284
f 284/326/284 288/330/288 286/328/286
f 288/330/288 284/326/284 285/327/285
f 285/327/285 290/332/290 288/330/288
f 290/332/290 285/327/285 263/303/263
f 263/303/263 273/313/273 290/332/290
f 276/316/276 264/304/264 287/329/287
f 287/329/287 292/334/292 276/316/276
f 292/334/292 287/329/287 289/331/289
f 289/331/289 293/335/293 292/334/292
f 293/335/293 289/331/289 291/333/291
f 291/333/291 294/336/294 293/335/293
f 294/336/294 291/333/291 272/312/272
f 272/312/272 279/319/279 294/336/294
