# Blender v3.3.0 OBJ File: ''
# www.blender.org
o PlantStrawberryStage01.005
v 0.000000 -0.010787 -0.001060
v 0.000000 0.000593 -0.006838
v 0.006749 0.000005 -0.000115
v -0.006749 0.000005 -0.000115
v 0.000000 -0.000583 0.006608
v 0.019348 0.216711 -0.018843
v 0.020365 0.215757 -0.019938
v 0.018970 0.215485 -0.020997
v 0.017953 0.216439 -0.019902
v 0.013653 0.185051 -0.009163
v 0.016340 0.185016 -0.006736
v 0.011412 0.186407 -0.006663
v 0.014099 0.186372 -0.004236
v 0.000000 0.006057 -0.004031
v 0.004428 0.005671 0.000380
v -0.004428 0.005671 0.000380
v 0.000000 0.005285 0.004791
v -0.001469 0.094927 -0.001082
v 0.002006 0.094511 0.002403
v -0.004944 0.094956 0.002403
v -0.001469 0.094541 0.005889
v 0.034006 0.196999 -0.020232
v 0.060947 0.173718 -0.013172
v 0.057685 0.200138 -0.027475
v 0.105642 0.171190 -0.015573
v 0.097351 0.182561 -0.023356
v 0.080232 0.191587 -0.028852
v 0.108436 0.177297 -0.021115
v 0.093294 0.189984 -0.028534
v 0.078460 0.198905 -0.033398
v 0.028464 0.163798 -0.000361
v 0.072893 0.147618 -0.002536
v 0.092290 0.152241 -0.005208
v 0.104108 0.162001 -0.010074
v 0.104521 0.153838 -0.007074
v 0.085862 0.145458 -0.001883
v 0.049392 0.150450 0.002264
v 0.068775 0.140878 0.001333
v 0.110333 0.165943 -0.012391
v 0.033967 0.196873 -0.020454
v 0.057646 0.200012 -0.027697
v 0.060908 0.173593 -0.013393
v 0.080193 0.191461 -0.029074
v 0.097312 0.182435 -0.023577
v 0.105603 0.171064 -0.015795
v 0.108397 0.177171 -0.021336
v 0.093255 0.189858 -0.028755
v 0.078421 0.198779 -0.033619
v 0.028425 0.163672 -0.000582
v 0.016301 0.184890 -0.006957
v 0.104069 0.161875 -0.010295
v 0.092252 0.152115 -0.005429
v 0.072854 0.147492 -0.002757
v 0.104482 0.153712 -0.007295
v 0.085823 0.145332 -0.002105
v 0.068736 0.140752 0.001112
v 0.049353 0.150324 0.002043
v 0.110295 0.165817 -0.012613
v 0.005453 0.210767 -0.009384
v -0.028632 0.207948 0.002776
v -0.011073 0.229471 -0.009127
v -0.067003 0.231130 0.003064
v -0.052942 0.238031 -0.000579
v -0.032990 0.237665 -0.003138
v -0.065169 0.239482 0.001423
v -0.044889 0.243294 -0.002994
v -0.027167 0.243595 -0.006017
v -0.009038 0.177480 0.005102
v 0.011343 0.186334 -0.006900
v -0.052182 0.193582 0.016047
v -0.066176 0.207632 0.012650
v -0.071014 0.221918 0.007073
v -0.075408 0.215962 0.011659
v -0.064324 0.198652 0.016434
v -0.032761 0.179654 0.012553
v -0.052495 0.185417 0.019301
v -0.074084 0.228675 0.004932
v 0.005522 0.210840 -0.009148
v -0.011004 0.229544 -0.008890
v -0.028563 0.208022 0.003013
v -0.032921 0.237739 -0.002901
v -0.052873 0.238104 -0.000342
v -0.066934 0.231203 0.003301
v -0.065100 0.239555 0.001660
v -0.044820 0.243367 -0.002757
v -0.027098 0.243669 -0.005780
v -0.008969 0.177553 0.005338
v -0.070945 0.221991 0.007310
v -0.066107 0.207705 0.012887
v -0.052113 0.193656 0.016283
v -0.075339 0.216035 0.011896
v -0.064255 0.198725 0.016671
v -0.052426 0.185490 0.019538
v -0.032692 0.179727 0.012790
v -0.074015 0.228748 0.005169
v 0.003519 0.232935 -0.025610
v 0.030096 0.255637 -0.035402
v 0.000005 0.256582 -0.032785
v 0.036632 0.299134 -0.044068
v 0.021900 0.292714 -0.043483
v 0.009220 0.277262 -0.041200
v 0.028907 0.302782 -0.045752
v 0.012403 0.289854 -0.043344
v 0.000452 0.276652 -0.040860
v 0.041131 0.222311 -0.026170
v 0.018545 0.213859 -0.018670
v 0.059031 0.263193 -0.041942
v 0.056249 0.283012 -0.043995
v 0.047041 0.296194 -0.044223
v 0.055483 0.295275 -0.046147
v 0.062846 0.275606 -0.044095
v 0.056295 0.240683 -0.033624
v 0.066190 0.258084 -0.041839
v 0.043317 0.302938 -0.044783
v 0.003496 0.232868 -0.025857
v -0.000017 0.256516 -0.033033
v 0.030074 0.255571 -0.035650
v 0.009197 0.277196 -0.041447
v 0.021877 0.292648 -0.043731
v 0.036609 0.299068 -0.044316
v 0.028885 0.302715 -0.045999
v 0.012381 0.289787 -0.043591
v 0.000430 0.276586 -0.041107
v 0.041109 0.222245 -0.026418
v 0.018523 0.213793 -0.018918
v 0.047019 0.296128 -0.044471
v 0.056226 0.282946 -0.044242
v 0.059009 0.263126 -0.042189
v 0.055461 0.295209 -0.046395
v 0.062824 0.275540 -0.044342
v 0.066168 0.258018 -0.042086
v 0.056273 0.240616 -0.033871
v 0.043294 0.302872 -0.045030
v 0.071652 0.088275 0.007768
v 0.072301 0.086942 0.006796
v 0.071438 0.087557 0.005375
v 0.070788 0.088890 0.006347
v 0.037195 0.066353 0.004880
v 0.038426 0.064700 0.007857
v 0.035336 0.068679 0.006941
v 0.036567 0.067026 0.009918
v 0.000027 0.033559 -0.002515
v 0.001133 0.030559 0.001500
v -0.002775 0.036187 0.000262
v -0.002147 0.033146 0.004102
v 0.085104 0.107415 0.007387
v 0.111556 0.089297 0.024406
v 0.106526 0.117616 0.015137
v 0.149552 0.097109 0.046881
v 0.142625 0.108379 0.037738
v 0.128323 0.114897 0.025179
v 0.152315 0.105121 0.044887
v 0.139241 0.116052 0.032442
v 0.126511 0.122748 0.021653
v 0.082761 0.069192 0.015226
v 0.068623 0.088291 0.006670
v 0.125220 0.064278 0.035560
v 0.140486 0.073473 0.044897
v 0.148903 0.086530 0.049051
v 0.150660 0.078114 0.050425
v 0.136099 0.064792 0.042955
v 0.103019 0.060413 0.026868
v 0.122416 0.055944 0.035353
v 0.153641 0.092222 0.051248
v 0.085223 0.107362 0.007165
v 0.106645 0.117563 0.014915
v 0.111675 0.089244 0.024184
v 0.128442 0.114844 0.024957
v 0.142744 0.108326 0.037516
v 0.149671 0.097056 0.046659
v 0.152434 0.105068 0.044665
v 0.139360 0.116000 0.032220
v 0.126630 0.122695 0.021431
v 0.082880 0.069139 0.015004
v 0.068742 0.088238 0.006448
v 0.149022 0.086477 0.048828
v 0.140605 0.073420 0.044674
v 0.125339 0.064225 0.035338
v 0.150779 0.078061 0.050203
v 0.136218 0.064739 0.042733
v 0.122535 0.055891 0.035131
v 0.103138 0.060360 0.026646
v 0.153759 0.092169 0.051026
v -0.065370 0.094131 -0.014400
v -0.066214 0.092874 -0.013478
v -0.065425 0.093434 -0.011992
v -0.064581 0.094691 -0.012915
v -0.033337 0.069357 -0.008365
v -0.034448 0.067772 -0.011425
v -0.031112 0.071482 -0.010274
v -0.032223 0.069897 -0.013334
v 0.000046 0.033586 0.002478
v -0.000970 0.030633 -0.001595
v 0.003296 0.035921 -0.000065
v 0.002736 0.032887 -0.003922
v -0.066787 0.116181 -0.014494
v -0.097462 0.112812 -0.033607
v -0.079616 0.135291 -0.024152
v -0.124737 0.137367 -0.059355
v -0.113774 0.144135 -0.049731
v -0.099068 0.143286 -0.036028
v -0.123255 0.145780 -0.057669
v -0.107393 0.149358 -0.044220
v -0.093829 0.149357 -0.032417
v -0.083327 0.081529 -0.021809
v -0.062184 0.091455 -0.012204
v -0.120973 0.097394 -0.045716
v -0.128879 0.112489 -0.056412
v -0.129314 0.127777 -0.061380
v -0.134942 0.121295 -0.062838
v -0.129575 0.102885 -0.054030
v -0.104369 0.083431 -0.035100
v -0.122737 0.088793 -0.045202
v -0.130398 0.134954 -0.064023
v -0.066932 0.116206 -0.014283
v -0.079761 0.135315 -0.023940
v -0.097607 0.112837 -0.033396
v -0.099213 0.143310 -0.035816
v -0.113919 0.144159 -0.049520
v -0.124881 0.137392 -0.059144
v -0.123400 0.145805 -0.057458
v -0.107538 0.149383 -0.044009
v -0.093974 0.149382 -0.032206
v -0.083472 0.081553 -0.021598
v -0.062329 0.091479 -0.011992
v -0.129459 0.127802 -0.061168
v -0.129024 0.112513 -0.056200
v -0.121118 0.097419 -0.045504
v -0.135087 0.121320 -0.062627
v -0.129720 0.102910 -0.053819
v -0.122882 0.088818 -0.044991
v -0.104514 0.083455 -0.034888
v -0.130543 0.134978 -0.063812
vt 0.691200 0.149200
vt 0.658300 0.170900
vt 0.653600 0.149700
vt 0.669900 0.192900
vt 0.657200 0.128500
vt 0.668700 0.106300
vt 0.338000 0.145200
vt 0.339100 0.150700
vt 0.333600 0.151700
vt 0.332600 0.146200
vt 0.443800 0.164900
vt 0.339200 0.156500
vt 0.444600 0.153800
vt 0.443000 0.176200
vt 0.338100 0.162000
vt 0.444500 0.142600
vt 0.337900 0.139600
vt 0.443300 0.131400
vt 0.642000 0.172400
vt 0.639100 0.150100
vt 0.643600 0.192900
vt 0.640300 0.127500
vt 0.643000 0.106700
vt 0.542900 0.168600
vt 0.541800 0.152000
vt 0.543300 0.184600
vt 0.542400 0.135100
vt 0.543100 0.119000
vt 0.399100 0.472100
vt 0.493200 0.619500
vt 0.352400 0.582800
vt 0.467700 0.833800
vt 0.407500 0.786100
vt 0.367800 0.697900
vt 0.427100 0.842700
vt 0.366900 0.761200
vt 0.327800 0.683900
vt 0.587200 0.472100
vt 0.493200 0.396100
vt 0.618500 0.697900
vt 0.578900 0.786100
vt 0.518600 0.833800
vt 0.559200 0.842700
vt 0.619500 0.761200
vt 0.634000 0.582800
vt 0.658600 0.683900
vt 0.493200 0.860300
vt 0.399100 0.472100
vt 0.352400 0.582800
vt 0.493200 0.619500
vt 0.367800 0.697900
vt 0.407500 0.786100
vt 0.467700 0.833800
vt 0.427100 0.842700
vt 0.366900 0.761200
vt 0.327800 0.683900
vt 0.587200 0.472100
vt 0.493200 0.396100
vt 0.518600 0.833800
vt 0.578900 0.786100
vt 0.618500 0.697900
vt 0.559200 0.842700
vt 0.619500 0.761200
vt 0.658600 0.683900
vt 0.634000 0.582800
vt 0.493200 0.860300
vt 0.080100 0.606700
vt 0.174100 0.754100
vt 0.033400 0.717400
vt 0.148700 0.968500
vt 0.088400 0.920700
vt 0.048800 0.832600
vt 0.108100 0.977300
vt 0.047800 0.895900
vt 0.008700 0.818500
vt 0.268200 0.606700
vt 0.174100 0.530700
vt 0.299500 0.832600
vt 0.259800 0.920700
vt 0.199600 0.968500
vt 0.240200 0.977300
vt 0.300500 0.895900
vt 0.314900 0.717400
vt 0.339600 0.818500
vt 0.174100 0.995000
vt 0.080100 0.606700
vt 0.033400 0.717400
vt 0.174100 0.754100
vt 0.048800 0.832600
vt 0.088400 0.920700
vt 0.148700 0.968500
vt 0.108100 0.977300
vt 0.047800 0.895900
vt 0.008700 0.818500
vt 0.268200 0.606700
vt 0.174100 0.530700
vt 0.199600 0.968500
vt 0.259800 0.920700
vt 0.299500 0.832600
vt 0.240200 0.977300
vt 0.300500 0.895900
vt 0.339600 0.818500
vt 0.314900 0.717400
vt 0.174100 0.995000
vt 0.080100 0.606700
vt 0.174100 0.754100
vt 0.033400 0.717400
vt 0.148700 0.968500
vt 0.088400 0.920700
vt 0.048800 0.832600
vt 0.108100 0.977300
vt 0.047800 0.895900
vt 0.008700 0.818500
vt 0.268200 0.606700
vt 0.174100 0.530700
vt 0.299500 0.832600
vt 0.259800 0.920700
vt 0.199600 0.968500
vt 0.240200 0.977300
vt 0.300500 0.895900
vt 0.314900 0.717400
vt 0.339600 0.818500
vt 0.174100 0.995000
vt 0.080100 0.606700
vt 0.033400 0.717400
vt 0.174100 0.754100
vt 0.048800 0.832600
vt 0.088400 0.920700
vt 0.148700 0.968500
vt 0.108100 0.977300
vt 0.047800 0.895900
vt 0.008700 0.818500
vt 0.268200 0.606700
vt 0.174100 0.530700
vt 0.199600 0.968500
vt 0.259800 0.920700
vt 0.299500 0.832600
vt 0.240200 0.977300
vt 0.300500 0.895900
vt 0.339600 0.818500
vt 0.314900 0.717400
vt 0.174100 0.995000
vt 0.338000 0.145200
vt 0.339100 0.150700
vt 0.333600 0.151700
vt 0.332600 0.146200
vt 0.443800 0.164900
vt 0.339200 0.156500
vt 0.444600 0.153800
vt 0.443000 0.176200
vt 0.338100 0.162000
vt 0.444500 0.142600
vt 0.337900 0.139600
vt 0.443300 0.131400
vt 0.542900 0.168600
vt 0.541800 0.152000
vt 0.543300 0.184600
vt 0.542400 0.135100
vt 0.543100 0.119000
vt 0.080100 0.606700
vt 0.174100 0.754100
vt 0.033400 0.717400
vt 0.148700 0.968500
vt 0.088400 0.920700
vt 0.048800 0.832600
vt 0.108100 0.977300
vt 0.047800 0.895900
vt 0.008700 0.818500
vt 0.268200 0.606700
vt 0.174100 0.530700
vt 0.299500 0.832600
vt 0.259800 0.920700
vt 0.199600 0.968500
vt 0.240200 0.977300
vt 0.300500 0.895900
vt 0.314900 0.717400
vt 0.339600 0.818500
vt 0.174100 0.995000
vt 0.080100 0.606700
vt 0.033400 0.717400
vt 0.174100 0.754100
vt 0.048800 0.832600
vt 0.088400 0.920700
vt 0.148700 0.968500
vt 0.108100 0.977300
vt 0.047800 0.895900
vt 0.008700 0.818500
vt 0.268200 0.606700
vt 0.174100 0.530700
vt 0.199600 0.968500
vt 0.259800 0.920700
vt 0.299500 0.832600
vt 0.240200 0.977300
vt 0.300500 0.895900
vt 0.339600 0.818500
vt 0.314900 0.717400
vt 0.174100 0.995000
vt 0.338000 0.145200
vt 0.339100 0.150700
vt 0.333600 0.151700
vt 0.332600 0.146200
vt 0.443800 0.164900
vt 0.339200 0.156500
vt 0.444600 0.153800
vt 0.443000 0.176200
vt 0.338100 0.162000
vt 0.444500 0.142600
vt 0.337900 0.139600
vt 0.443300 0.131400
vt 0.542900 0.168600
vt 0.541800 0.152000
vt 0.543300 0.184600
vt 0.542400 0.135100
vt 0.543100 0.119000
vt 0.399100 0.472100
vt 0.493200 0.619500
vt 0.352400 0.582800
vt 0.467700 0.833800
vt 0.407500 0.786100
vt 0.367800 0.697900
vt 0.427100 0.842700
vt 0.366900 0.761200
vt 0.327800 0.683900
vt 0.587200 0.472100
vt 0.493200 0.396100
vt 0.618500 0.697900
vt 0.578900 0.786100
vt 0.518600 0.833800
vt 0.559200 0.842700
vt 0.619500 0.761200
vt 0.634000 0.582800
vt 0.658600 0.683900
vt 0.493200 0.860300
vt 0.399100 0.472100
vt 0.352400 0.582800
vt 0.493200 0.619500
vt 0.367800 0.697900
vt 0.407500 0.786100
vt 0.467700 0.833800
vt 0.427100 0.842700
vt 0.366900 0.761200
vt 0.327800 0.683900
vt 0.587200 0.472100
vt 0.493200 0.396100
vt 0.518600 0.833800
vt 0.578900 0.786100
vt 0.618500 0.697900
vt 0.559200 0.842700
vt 0.619500 0.761200
vt 0.658600 0.683900
vt 0.634000 0.582800
vt 0.493200 0.860300
vn -0.0000 -0.9962 -0.0872
vn 0.0000 0.0158 -0.9999
vn 0.9974 -0.0711 -0.0062
vn -0.9974 -0.0711 -0.0062
vn 0.0000 -0.1580 0.9874
vn 0.2131 0.8692 0.4462
vn 0.9017 0.3304 -0.2789
vn 0.0008 0.1617 -0.9868
vn -0.6663 0.7075 -0.2358
vn -0.0732 -0.2133 -0.9743
vn 0.9461 0.0399 0.3214
vn -0.8316 0.3156 0.4570
vn 0.0758 0.2624 0.9620
vn 0.0038 0.2699 -0.9629
vn 0.9743 0.2230 0.0325
vn -0.9778 0.2072 0.0314
vn 0.0031 0.1615 0.9869
vn -0.0542 -0.0245 -0.9982
vn 0.9979 -0.0621 0.0197
vn -0.9955 0.0886 0.0344
vn -0.0273 0.0471 0.9985
vn 0.2318 0.5180 0.8234
vn 0.1700 0.4850 0.8578
vn 0.2197 0.4942 0.8411
vn 0.0738 0.5592 0.8257
vn 0.0810 0.6079 0.7898
vn 0.1611 0.5633 0.8104
vn 0.1437 0.6282 0.7647
vn 0.0529 0.5906 0.8052
vn 0.2585 0.5541 0.7913
vn 0.2165 0.4258 0.8785
vn 0.1358 0.4116 0.9012
vn 0.0451 0.3934 0.9183
vn 0.0552 0.4476 0.8925
vn 0.0969 0.3476 0.9326
vn 0.0245 0.4212 0.9066
vn 0.2131 0.4546 0.8648
vn 0.2287 0.3758 0.8980
vn -0.0065 0.5143 0.8576
vn -0.2318 -0.5180 -0.8233
vn -0.2197 -0.4942 -0.8411
vn -0.1700 -0.4851 -0.8578
vn -0.1611 -0.5633 -0.8104
vn -0.0810 -0.6079 -0.7898
vn -0.0738 -0.5592 -0.8257
vn -0.1437 -0.6281 -0.7647
vn -0.0528 -0.5906 -0.8053
vn -0.2585 -0.5541 -0.7913
vn -0.2164 -0.4258 -0.8785
vn -0.2413 -0.4684 -0.8499
vn -0.0552 -0.4477 -0.8925
vn -0.0452 -0.3934 -0.9183
vn -0.1358 -0.4115 -0.9012
vn -0.0969 -0.3476 -0.9326
vn -0.0245 -0.4211 -0.9067
vn -0.2287 -0.3758 -0.8980
vn -0.2130 -0.4546 -0.8648
vn 0.0064 -0.5143 -0.8576
vn -0.3141 -0.2031 -0.9274
vn -0.2855 -0.2752 -0.9180
vn -0.3187 -0.2337 -0.9186
vn -0.1645 -0.2648 -0.9502
vn -0.1400 -0.2117 -0.9673
vn -0.2323 -0.2075 -0.9503
vn -0.1773 -0.1521 -0.9723
vn -0.1278 -0.2455 -0.9609
vn -0.3121 -0.1490 -0.9383
vn -0.3543 -0.2956 -0.8872
vn -0.3497 -0.2416 -0.9051
vn -0.2986 -0.3597 -0.8840
vn -0.2336 -0.4268 -0.8736
vn -0.2132 -0.3766 -0.9015
vn -0.2997 -0.4333 -0.8499
vn -0.2017 -0.4154 -0.8870
vn -0.3360 -0.2734 -0.9013
vn -0.3900 -0.3280 -0.8604
vn -0.1235 -0.3503 -0.9285
vn 0.3141 0.2032 0.9274
vn 0.3187 0.2336 0.9186
vn 0.2855 0.2752 0.9180
vn 0.2323 0.2075 0.9503
vn 0.1400 0.2117 0.9673
vn 0.1645 0.2648 0.9502
vn 0.1773 0.1521 0.9723
vn 0.1277 0.2455 0.9609
vn 0.3121 0.1490 0.9383
vn 0.3543 0.2956 0.8872
vn 0.2132 0.3766 0.9015
vn 0.2336 0.4268 0.8737
vn 0.2985 0.3597 0.8840
vn 0.2997 0.4333 0.8499
vn 0.2018 0.4154 0.8870
vn 0.3900 0.3280 0.8604
vn 0.3360 0.2734 0.9013
vn 0.1235 0.3503 0.9285
vn 0.0540 0.3415 0.9383
vn 0.0922 0.2759 0.9568
vn 0.0819 0.3259 0.9419
vn 0.0009 0.1931 0.9812
vn -0.0581 0.2075 0.9765
vn 0.0003 0.2793 0.9602
vn -0.0805 0.2721 0.9589
vn -0.0390 0.1773 0.9834
vn 0.0100 0.3731 0.9278
vn 0.1585 0.3120 0.9368
vn 0.1108 0.3430 0.9328
vn 0.1723 0.2307 0.9576
vn 0.1850 0.1389 0.9729
vn 0.1273 0.1574 0.9793
vn 0.2373 0.1823 0.9542
vn 0.1530 0.1230 0.9805
vn 0.1267 0.3132 0.9412
vn 0.2122 0.3159 0.9248
vn 0.0451 0.1074 0.9932
vn -0.0540 -0.3415 -0.9383
vn -0.0819 -0.3259 -0.9419
vn -0.0922 -0.2759 -0.9568
vn -0.0003 -0.2793 -0.9602
vn 0.0581 -0.2075 -0.9765
vn -0.0009 -0.1931 -0.9812
vn 0.0805 -0.2721 -0.9589
vn 0.0389 -0.1773 -0.9834
vn -0.0100 -0.3730 -0.9278
vn -0.1585 -0.3120 -0.9368
vn -0.1108 -0.3430 -0.9328
vn -0.1273 -0.1574 -0.9793
vn -0.1849 -0.1389 -0.9729
vn -0.1723 -0.2307 -0.9576
vn -0.2373 -0.1823 -0.9542
vn -0.1530 -0.1230 -0.9805
vn -0.2121 -0.3159 -0.9248
vn -0.1267 -0.3132 -0.9412
vn -0.0451 -0.1072 -0.9932
vn 0.5064 0.4982 0.7038
vn 0.9403 -0.3296 0.0851
vn 0.4857 0.1320 -0.8641
vn 0.0249 0.9786 -0.2044
vn 0.1480 -0.0633 -0.9870
vn 0.5880 -0.7778 0.2222
vn -0.5651 0.8132 -0.1388
vn -0.1492 0.1562 0.9764
vn 0.2431 -0.0578 -0.9683
vn 0.6291 -0.7357 0.2509
vn -0.6323 0.7666 -0.1121
vn -0.1805 0.0382 0.9828
vn -0.3898 0.2605 0.8833
vn -0.4445 0.2060 0.8717
vn -0.3998 0.2303 0.8872
vn -0.5325 0.2647 0.8040
vn -0.5267 0.3227 0.7864
vn -0.4564 0.2917 0.8406
vn -0.4713 0.3626 0.8040
vn -0.5506 0.2959 0.7806
vn -0.3657 0.3098 0.8777
vn -0.3963 0.1544 0.9050
vn -0.3776 0.2082 0.9023
vn -0.4671 0.1170 0.8764
vn -0.5418 0.0757 0.8371
vn -0.5404 0.1363 0.8303
vn -0.4909 0.0396 0.8703
vn -0.5626 0.1007 0.8206
vn -0.4026 0.1847 0.8965
vn -0.3783 0.1044 0.9198
vn -0.5966 0.1962 0.7782
vn 0.3898 -0.2605 -0.8833
vn 0.3998 -0.2303 -0.8872
vn 0.4445 -0.2060 -0.8717
vn 0.4564 -0.2917 -0.8406
vn 0.5267 -0.3227 -0.7864
vn 0.5326 -0.2647 -0.8039
vn 0.4713 -0.3626 -0.8040
vn 0.5506 -0.2959 -0.7806
vn 0.3657 -0.3098 -0.8777
vn 0.3963 -0.1544 -0.9050
vn 0.3776 -0.2082 -0.9023
vn 0.5404 -0.1362 -0.8303
vn 0.5418 -0.0757 -0.8371
vn 0.4671 -0.1170 -0.8764
vn 0.4910 -0.0397 -0.8702
vn 0.5626 -0.1008 -0.8206
vn 0.3783 -0.1044 -0.9198
vn 0.4026 -0.1847 -0.8965
vn 0.5967 -0.1961 -0.7781
vn -0.3987 0.5294 -0.7488
vn -0.9547 -0.2484 -0.1639
vn -0.5445 0.1866 0.8178
vn 0.0431 0.9801 0.1939
vn -0.2371 -0.0352 0.9709
vn -0.6325 -0.7273 -0.2665
vn 0.6201 0.7633 0.1811
vn 0.2455 0.1279 -0.9609
vn -0.3295 -0.0219 0.9439
vn -0.6672 -0.6822 -0.2990
vn 0.6849 0.7106 0.1608
vn 0.2668 0.0076 -0.9637
vn 0.5298 -0.0126 -0.8480
vn 0.5489 -0.0865 -0.8314
vn 0.5236 -0.0440 -0.8509
vn 0.6493 -0.0761 -0.7567
vn 0.6721 -0.0221 -0.7402
vn 0.5998 -0.0166 -0.8000
vn 0.6455 0.0392 -0.7628
vn 0.6788 -0.0569 -0.7321
vn 0.5332 0.0424 -0.8449
vn 0.4839 -0.1088 -0.8683
vn 0.4944 -0.0528 -0.8676
vn 0.5242 -0.1751 -0.8334
vn 0.5652 -0.2460 -0.7874
vn 0.5938 -0.1925 -0.7813
vn 0.5057 -0.2536 -0.8246
vn 0.5944 -0.2339 -0.7694
vn 0.5038 -0.0853 -0.8596
vn 0.4443 -0.1440 -0.8842
vn 0.6685 -0.1660 -0.7249
vn -0.5298 0.0127 0.8480
vn -0.5236 0.0440 0.8509
vn -0.5489 0.0865 0.8314
vn -0.5998 0.0166 0.8000
vn -0.6721 0.0221 0.7401
vn -0.6493 0.0762 0.7567
vn -0.6455 -0.0392 0.7628
vn -0.6789 0.0570 0.7320
vn -0.5332 -0.0423 0.8449
vn -0.4839 0.1088 0.8683
vn -0.4944 0.0528 0.8676
vn -0.5938 0.1926 0.7812
vn -0.5652 0.2460 0.7874
vn -0.5242 0.1751 0.8334
vn -0.5058 0.2535 0.8246
vn -0.5944 0.2338 0.7694
vn -0.4443 0.1439 0.8842
vn -0.5038 0.0853 0.8596
vn -0.6685 0.1661 0.7249
s 1
f 1/1/1 2/2/2 3/3/3
f 1/1/1 4/4/4 2/2/2
f 1/1/1 5/5/5 4/6/4
f 1/1/1 3/3/3 5/5/5
f 6/7/6 7/8/7 8/9/8 9/10/9
f 10/11/10 8/12/8 7/8/7 11/13/11
f 12/14/12 9/15/9 8/12/8 10/11/10
f 13/16/13 6/7/6 9/17/9 12/18/12
f 11/13/11 7/8/7 6/7/6 13/16/13
f 2/2/2 14/19/14 15/20/15 3/3/3
f 4/4/4 16/21/16 14/19/14 2/2/2
f 5/5/5 17/22/17 16/23/16 4/6/4
f 3/3/3 15/20/15 17/22/17 5/5/5
f 14/19/14 18/24/18 19/25/19 15/20/15
f 16/21/16 20/26/20 18/24/18 14/19/14
f 17/22/17 21/27/21 20/28/20 16/23/16
f 15/20/15 19/25/19 21/27/21 17/22/17
s 2
f 22/29/22 23/30/23 24/31/24
f 23/30/23 25/32/25 26/33/26 27/34/27
f 25/32/25 28/35/28 26/33/26
f 26/33/26 29/36/29 27/34/27
f 27/34/27 30/37/30 24/31/24
f 31/38/31 23/30/23 11/39/11
f 23/30/23 32/40/32 33/41/33 34/42/34
f 23/30/23 34/42/34 25/32/25
f 34/42/34 33/41/33 35/43/35
f 33/41/33 32/40/32 36/44/36
f 32/40/32 37/45/37 38/46/38
f 34/42/34 39/47/39 25/32/25
f 22/29/22 11/39/11 23/30/23
f 31/38/31 37/45/37 23/30/23
f 23/30/23 27/34/27 24/31/24
f 37/45/37 32/40/32 23/30/23
s 3
f 40/48/40 41/49/41 42/50/42
f 42/50/42 43/51/43 44/52/44 45/53/45
f 45/53/45 44/52/44 46/54/46
f 44/52/44 43/51/43 47/55/47
f 43/51/43 41/49/41 48/56/48
f 49/57/49 50/58/50 42/50/42
f 42/50/42 51/59/51 52/60/52 53/61/53
f 42/50/42 45/53/45 51/59/51
f 51/59/51 54/62/54 52/60/52
f 52/60/52 55/63/55 53/61/53
f 53/61/53 56/64/56 57/65/57
f 51/59/51 45/53/45 58/66/58
f 40/48/40 42/50/42 50/58/50
f 49/57/49 42/50/42 57/65/57
f 42/50/42 41/49/41 43/51/43
f 57/65/57 42/50/42 53/61/53
s 4
f 59/67/59 60/68/60 61/69/61
f 60/68/60 62/70/62 63/71/63 64/72/64
f 62/70/62 65/73/65 63/71/63
f 63/71/63 66/74/66 64/72/64
f 64/72/64 67/75/67 61/69/61
f 68/76/68 60/68/60 69/77/69
f 60/68/60 70/78/70 71/79/71 72/80/72
f 60/68/60 72/80/72 62/70/62
f 72/80/72 71/79/71 73/81/73
f 71/79/71 70/78/70 74/82/74
f 70/78/70 75/83/75 76/84/76
f 72/80/72 77/85/77 62/70/62
f 59/67/59 69/77/69 60/68/60
f 68/76/68 75/83/75 60/68/60
f 60/68/60 64/72/64 61/69/61
f 75/83/75 70/78/70 60/68/60
s 5
f 78/86/78 79/87/79 80/88/80
f 80/88/80 81/89/81 82/90/82 83/91/83
f 83/91/83 82/90/82 84/92/84
f 82/90/82 81/89/81 85/93/85
f 81/89/81 79/87/79 86/94/86
f 87/95/87 12/96/12 80/88/80
f 80/88/80 88/97/88 89/98/89 90/99/90
f 80/88/80 83/91/83 88/97/88
f 88/97/88 91/100/91 89/98/89
f 89/98/89 92/101/92 90/99/90
f 90/99/90 93/102/93 94/103/94
f 88/97/88 83/91/83 95/104/95
f 78/86/78 80/88/80 12/96/12
f 87/95/87 80/88/80 94/103/94
f 80/88/80 79/87/79 81/89/81
f 94/103/94 80/88/80 90/99/90
s 6
f 96/105/96 97/106/97 98/107/98
f 97/106/97 99/108/99 100/109/100 101/110/101
f 99/108/99 102/111/102 100/109/100
f 100/109/100 103/112/103 101/110/101
f 101/110/101 104/113/104 98/107/98
f 105/114/105 97/106/97 106/115/106
f 97/106/97 107/116/107 108/117/108 109/118/109
f 97/106/97 109/118/109 99/108/99
f 109/118/109 108/117/108 110/119/110
f 108/117/108 107/116/107 111/120/111
f 107/116/107 112/121/112 113/122/113
f 109/118/109 114/123/114 99/108/99
f 96/105/96 106/115/106 97/106/97
f 105/114/105 112/121/112 97/106/97
f 97/106/97 101/110/101 98/107/98
f 112/121/112 107/116/107 97/106/97
s 7
f 115/124/115 116/125/116 117/126/117
f 117/126/117 118/127/118 119/128/119 120/129/120
f 120/129/120 119/128/119 121/130/121
f 119/128/119 118/127/118 122/131/122
f 118/127/118 116/125/116 123/132/123
f 124/133/124 125/134/125 117/126/117
f 117/126/117 126/135/126 127/136/127 128/137/128
f 117/126/117 120/129/120 126/135/126
f 126/135/126 129/138/129 127/136/127
f 127/136/127 130/139/130 128/137/128
f 128/137/128 131/140/131 132/141/132
f 126/135/126 120/129/120 133/142/133
f 115/124/115 117/126/117 125/134/125
f 124/133/124 117/126/117 132/141/132
f 117/126/117 116/125/116 118/127/118
f 132/141/132 117/126/117 128/137/128
s 1
f 18/24/18 10/11/10 11/13/11 19/25/19
f 20/26/20 12/14/12 10/11/10 18/24/18
f 21/27/21 13/16/13 12/18/12 20/28/20
f 19/25/19 11/13/11 13/16/13 21/27/21
s 8
f 134/143/134 135/144/135 136/145/136 137/146/137
f 138/147/138 136/148/136 135/144/135 139/149/139
f 140/150/140 137/151/137 136/148/136 138/147/138
f 141/152/141 134/143/134 137/153/137 140/154/140
f 139/149/139 135/144/135 134/143/134 141/152/141
f 142/155/142 138/147/138 139/149/139 143/156/143
f 144/157/144 140/150/140 138/147/138 142/155/142
f 145/158/145 141/152/141 140/154/140 144/159/144
f 143/156/143 139/149/139 141/152/141 145/158/145
s 9
f 146/160/146 147/161/147 148/162/148
f 147/161/147 149/163/149 150/164/150 151/165/151
f 149/163/149 152/166/152 150/164/150
f 150/164/150 153/167/153 151/165/151
f 151/165/151 154/168/154 148/162/148
f 155/169/155 147/161/147 156/170/156
f 147/161/147 157/171/157 158/172/158 159/173/159
f 147/161/147 159/173/159 149/163/149
f 159/173/159 158/172/158 160/174/160
f 158/172/158 157/171/157 161/175/161
f 157/171/157 162/176/162 163/177/163
f 159/173/159 164/178/164 149/163/149
f 146/160/146 156/170/156 147/161/147
f 155/169/155 162/176/162 147/161/147
f 147/161/147 151/165/151 148/162/148
f 162/176/162 157/171/157 147/161/147
s 10
f 165/179/165 166/180/166 167/181/167
f 167/181/167 168/182/168 169/183/169 170/184/170
f 170/184/170 169/183/169 171/185/171
f 169/183/169 168/182/168 172/186/172
f 168/182/168 166/180/166 173/187/173
f 174/188/174 175/189/175 167/181/167
f 167/181/167 176/190/176 177/191/177 178/192/178
f 167/181/167 170/184/170 176/190/176
f 176/190/176 179/193/179 177/191/177
f 177/191/177 180/194/180 178/192/178
f 178/192/178 181/195/181 182/196/182
f 176/190/176 170/184/170 183/197/183
f 165/179/165 167/181/167 175/189/175
f 174/188/174 167/181/167 182/196/182
f 167/181/167 166/180/166 168/182/168
f 182/196/182 167/181/167 178/192/178
s 11
f 184/198/184 185/199/185 186/200/186 187/201/187
f 188/202/188 186/203/186 185/199/185 189/204/189
f 190/205/190 187/206/187 186/203/186 188/202/188
f 191/207/191 184/198/184 187/208/187 190/209/190
f 189/204/189 185/199/185 184/198/184 191/207/191
f 192/210/192 188/202/188 189/204/189 193/211/193
f 194/212/194 190/205/190 188/202/188 192/210/192
f 195/213/195 191/207/191 190/209/190 194/214/194
f 193/211/193 189/204/189 191/207/191 195/213/195
s 12
f 196/215/196 197/216/197 198/217/198
f 197/216/197 199/218/199 200/219/200 201/220/201
f 199/218/199 202/221/202 200/219/200
f 200/219/200 203/222/203 201/220/201
f 201/220/201 204/223/204 198/217/198
f 205/224/205 197/216/197 206/225/206
f 197/216/197 207/226/207 208/227/208 209/228/209
f 197/216/197 209/228/209 199/218/199
f 209/228/209 208/227/208 210/229/210
f 208/227/208 207/226/207 211/230/211
f 207/226/207 212/231/212 213/232/213
f 209/228/209 214/233/214 199/218/199
f 196/215/196 206/225/206 197/216/197
f 205/224/205 212/231/212 197/216/197
f 197/216/197 201/220/201 198/217/198
f 212/231/212 207/226/207 197/216/197
s 13
f 215/234/215 216/235/216 217/236/217
f 217/236/217 218/237/218 219/238/219 220/239/220
f 220/239/220 219/238/219 221/240/221
f 219/238/219 218/237/218 222/241/222
f 218/237/218 216/235/216 223/242/223
f 224/243/224 225/244/225 217/236/217
f 217/236/217 226/245/226 227/246/227 228/247/228
f 217/236/217 220/239/220 226/245/226
f 226/245/226 229/248/229 227/246/227
f 227/246/227 230/249/230 228/247/228
f 228/247/228 231/250/231 232/251/232
f 226/245/226 220/239/220 233/252/233
f 215/234/215 217/236/217 225/244/225
f 224/243/224 217/236/217 232/251/232
f 217/236/217 216/235/216 218/237/218
f 232/251/232 217/236/217 228/247/228
