# Blender v3.3.0 OBJ File: ''
# www.blender.org
o PlantStrawberryStage00.005
v 0.000000 -0.009836 -0.000966
v 0.000000 0.000541 -0.006235
v 0.006153 0.000005 -0.000105
v -0.006153 0.000005 -0.000105
v 0.000000 -0.000532 0.006025
v 0.000000 0.092690 0.001104
v 0.001143 0.092394 0.000000
v 0.000000 0.092099 -0.001104
v -0.001143 0.092394 0.000000
v 0.002722 0.062188 0.001702
v 0.005057 0.062188 0.004036
v 0.000388 0.062188 0.004036
v 0.002722 0.062188 0.006371
v 0.000000 0.005523 -0.003675
v 0.004037 0.005171 0.000347
v -0.004037 0.005171 0.000347
v 0.000000 0.004819 0.004369
v 0.017763 0.079816 -0.003584
v 0.047077 0.064719 -0.000722
v 0.037855 0.089831 -0.007319
v 0.086949 0.073684 0.000129
v 0.076959 0.083276 -0.004685
v 0.059774 0.088244 -0.008746
v 0.087960 0.080876 -0.003075
v 0.071627 0.089881 -0.007805
v 0.056465 0.095141 -0.011154
v 0.020869 0.045521 0.005605
v 0.063888 0.042827 0.003424
v 0.079796 0.051957 0.003707
v 0.087809 0.064192 0.002672
v 0.090155 0.056645 0.003418
v 0.075793 0.043888 0.004519
v 0.042504 0.038507 0.006433
v 0.061894 0.035202 0.004906
v 0.092324 0.069563 0.002060
v 0.017763 0.079755 -0.003811
v 0.037855 0.089770 -0.007546
v 0.047077 0.064658 -0.000948
v 0.059774 0.088184 -0.008972
v 0.076959 0.083215 -0.004911
v 0.086949 0.073623 -0.000098
v 0.087960 0.080816 -0.003302
v 0.071627 0.089820 -0.008032
v 0.056465 0.095080 -0.011381
v 0.020869 0.045461 0.005379
v 0.005057 0.062127 0.003809
v 0.087809 0.064131 0.002445
v 0.079796 0.051896 0.003481
v 0.063888 0.042766 0.003197
v 0.090155 0.056584 0.003191
v 0.075793 0.043827 0.004292
v 0.061894 0.035141 0.004679
v 0.042504 0.038446 0.006206
v 0.092324 0.069502 0.001833
v -0.010841 0.082055 0.006901
v -0.040207 0.068645 0.014199
v -0.029980 0.093917 0.010211
v -0.079621 0.079151 0.016852
v -0.068947 0.089193 0.016396
v -0.051318 0.094209 0.015651
v -0.080060 0.087049 0.017522
v -0.063154 0.096134 0.016154
v -0.047641 0.101304 0.014981
v -0.015496 0.046918 0.010634
v 0.000349 0.062169 0.003806
v -0.057482 0.047676 0.020594
v -0.073198 0.057104 0.019804
v -0.080909 0.069426 0.017885
v -0.083349 0.062222 0.020159
v -0.069397 0.049011 0.021160
v -0.036946 0.041332 0.015797
v -0.055776 0.039893 0.021505
v -0.085250 0.074947 0.017352
v -0.010802 0.082074 0.007132
v -0.029940 0.093937 0.010442
v -0.040168 0.068664 0.014430
v -0.051278 0.094228 0.015881
v -0.068907 0.089212 0.016626
v -0.079582 0.079170 0.017083
v -0.080021 0.087068 0.017753
v -0.063115 0.096153 0.016385
v -0.047602 0.101323 0.015212
v -0.015457 0.046937 0.010864
v -0.080870 0.069446 0.018116
v -0.073158 0.057123 0.020035
v -0.057443 0.047695 0.020824
v -0.083310 0.062241 0.020390
v -0.069357 0.049030 0.021391
v -0.055737 0.039912 0.021735
v -0.036906 0.041352 0.016028
v -0.085210 0.074966 0.017582
v -0.017820 0.104361 -0.002276
v 0.000000 0.132228 -0.003419
v -0.026669 0.125304 -0.003292
v -0.004932 0.172684 -0.000277
v -0.016274 0.163648 -0.002444
v -0.023600 0.147038 -0.005081
v -0.012591 0.174368 -0.001510
v -0.023899 0.158963 -0.003748
v -0.031145 0.144377 -0.005623
v 0.017820 0.104361 -0.002276
v 0.000000 0.090047 0.000522
v 0.023600 0.147038 -0.005081
v 0.016274 0.163648 -0.002444
v 0.004932 0.172684 -0.000277
v 0.012591 0.174368 -0.001510
v 0.023899 0.158963 -0.003748
v 0.026669 0.125304 -0.003292
v 0.031145 0.144377 -0.005623
v 0.000000 0.177648 0.000522
v -0.017820 0.104361 -0.002511
v -0.026669 0.125304 -0.003527
v 0.000000 0.132228 -0.003654
v -0.023600 0.147038 -0.005315
v -0.016274 0.163648 -0.002679
v -0.004932 0.172684 -0.000512
v -0.012591 0.174368 -0.001745
v -0.023899 0.158963 -0.003983
v -0.031145 0.144377 -0.005857
v 0.017820 0.104361 -0.002511
v 0.000000 0.090047 0.000287
v 0.004932 0.172684 -0.000512
v 0.016274 0.163648 -0.002679
v 0.023600 0.147038 -0.005315
v 0.012591 0.174368 -0.001745
v 0.023899 0.158963 -0.003983
v 0.031145 0.144377 -0.005857
v 0.026669 0.125304 -0.003527
v 0.000000 0.177648 0.000287
vt 0.691200 0.149200
vt 0.658300 0.170900
vt 0.653600 0.149700
vt 0.669900 0.192900
vt 0.657200 0.128500
vt 0.668700 0.106300
vt 0.338000 0.145200
vt 0.339100 0.150700
vt 0.333600 0.151700
vt 0.332600 0.146200
vt 0.443800 0.164900
vt 0.339200 0.156500
vt 0.444600 0.153800
vt 0.443000 0.176200
vt 0.338100 0.162000
vt 0.444500 0.142600
vt 0.337900 0.139600
vt 0.443300 0.131400
vt 0.642000 0.172400
vt 0.639100 0.150100
vt 0.643600 0.192900
vt 0.640300 0.127500
vt 0.643000 0.106700
vt 0.080100 0.606700
vt 0.174100 0.754100
vt 0.033400 0.717400
vt 0.148700 0.968500
vt 0.088400 0.920700
vt 0.048800 0.832600
vt 0.108100 0.977300
vt 0.047800 0.895900
vt 0.008700 0.818500
vt 0.268200 0.606700
vt 0.174100 0.530700
vt 0.299500 0.832600
vt 0.259800 0.920700
vt 0.199600 0.968500
vt 0.240200 0.977300
vt 0.300500 0.895900
vt 0.314900 0.717400
vt 0.339600 0.818500
vt 0.174100 0.995000
vt 0.080100 0.606700
vt 0.033400 0.717400
vt 0.174100 0.754100
vt 0.048800 0.832600
vt 0.088400 0.920700
vt 0.148700 0.968500
vt 0.108100 0.977300
vt 0.047800 0.895900
vt 0.008700 0.818500
vt 0.268200 0.606700
vt 0.174100 0.530700
vt 0.199600 0.968500
vt 0.259800 0.920700
vt 0.299500 0.832600
vt 0.240200 0.977300
vt 0.300500 0.895900
vt 0.339600 0.818500
vt 0.314900 0.717400
vt 0.174100 0.995000
vt 0.080100 0.606700
vt 0.174100 0.754100
vt 0.033400 0.717400
vt 0.148700 0.968500
vt 0.088400 0.920700
vt 0.048800 0.832600
vt 0.108100 0.977300
vt 0.047800 0.895900
vt 0.008700 0.818500
vt 0.268200 0.606700
vt 0.174100 0.530700
vt 0.299500 0.832600
vt 0.259800 0.920700
vt 0.199600 0.968500
vt 0.240200 0.977300
vt 0.300500 0.895900
vt 0.314900 0.717400
vt 0.339600 0.818500
vt 0.174100 0.995000
vt 0.080100 0.606700
vt 0.033400 0.717400
vt 0.174100 0.754100
vt 0.048800 0.832600
vt 0.088400 0.920700
vt 0.148700 0.968500
vt 0.108100 0.977300
vt 0.047800 0.895900
vt 0.008700 0.818500
vt 0.268200 0.606700
vt 0.174100 0.530700
vt 0.199600 0.968500
vt 0.259800 0.920700
vt 0.299500 0.832600
vt 0.240200 0.977300
vt 0.300500 0.895900
vt 0.339600 0.818500
vt 0.314900 0.717400
vt 0.174100 0.995000
vt 0.080100 0.606700
vt 0.174100 0.754100
vt 0.033400 0.717400
vt 0.148700 0.968500
vt 0.088400 0.920700
vt 0.048800 0.832600
vt 0.108100 0.977300
vt 0.047800 0.895900
vt 0.008700 0.818500
vt 0.268200 0.606700
vt 0.174100 0.530700
vt 0.299500 0.832600
vt 0.259800 0.920700
vt 0.199600 0.968500
vt 0.240200 0.977300
vt 0.300500 0.895900
vt 0.314900 0.717400
vt 0.339600 0.818500
vt 0.174100 0.995000
vt 0.080100 0.606700
vt 0.033400 0.717400
vt 0.174100 0.754100
vt 0.048800 0.832600
vt 0.088400 0.920700
vt 0.148700 0.968500
vt 0.108100 0.977300
vt 0.047800 0.895900
vt 0.008700 0.818500
vt 0.268200 0.606700
vt 0.174100 0.530700
vt 0.199600 0.968500
vt 0.259800 0.920700
vt 0.299500 0.832600
vt 0.240200 0.977300
vt 0.300500 0.895900
vt 0.339600 0.818500
vt 0.314900 0.717400
vt 0.174100 0.995000
vn 0.0000 -0.9962 -0.0872
vn 0.0000 0.0158 -0.9999
vn 0.9974 -0.0711 -0.0062
vn -0.9974 -0.0711 -0.0062
vn -0.0000 -0.1581 0.9874
vn -0.0376 0.7396 0.6720
vn 0.7818 0.6147 -0.1047
vn -0.0292 0.4186 -0.9077
vn -0.8302 0.5480 -0.1024
vn 0.0304 0.0015 -0.9995
vn 0.9122 0.1457 0.3829
vn -0.9041 0.0439 0.4251
vn 0.0303 0.0661 0.9973
vn -0.0095 0.2994 -0.9541
vn 0.9792 0.2016 0.0225
vn -0.9688 0.2465 0.0253
vn -0.0097 0.1510 0.9885
vn 0.0705 0.3163 0.9460
vn 0.0195 0.2604 0.9653
vn 0.0650 0.2862 0.9560
vn -0.0928 0.3131 0.9452
vn -0.0987 0.3699 0.9238
vn -0.0097 0.3436 0.9391
vn -0.0434 0.4116 0.9103
vn -0.1212 0.3423 0.9318
vn 0.0868 0.3652 0.9269
vn 0.0800 0.2118 0.9740
vn 0.0059 0.1716 0.9851
vn -0.0766 0.1268 0.9890
vn -0.0814 0.1867 0.9790
vn -0.0147 0.0938 0.9955
vn -0.1038 0.1504 0.9831
vn 0.0690 0.2414 0.9680
vn 0.1051 0.1632 0.9810
vn -0.1583 0.2421 0.9573
vn -0.0705 -0.3163 -0.9460
vn -0.0650 -0.2863 -0.9559
vn -0.0195 -0.2604 -0.9653
vn 0.0097 -0.3436 -0.9391
vn 0.0986 -0.3699 -0.9238
vn 0.0928 -0.3131 -0.9452
vn 0.0434 -0.4116 -0.9103
vn 0.1212 -0.3424 -0.9317
vn -0.0867 -0.3654 -0.9268
vn -0.0800 -0.2119 -0.9740
vn -0.0926 -0.2656 -0.9596
vn 0.0813 -0.1867 -0.9790
vn 0.0766 -0.1268 -0.9890
vn -0.0059 -0.1716 -0.9851
vn 0.0146 -0.0939 -0.9955
vn 0.1038 -0.1503 -0.9832
vn -0.1051 -0.1632 -0.9810
vn -0.0691 -0.2414 -0.9680
vn 0.1583 -0.2421 -0.9573
vn -0.2337 -0.0173 -0.9722
vn -0.1868 -0.0793 -0.9792
vn -0.2300 -0.0491 -0.9719
vn -0.0728 -0.0296 -0.9969
vn -0.0633 0.0305 -0.9975
vn -0.1535 0.0060 -0.9881
vn -0.1153 0.0776 -0.9903
vn -0.0424 0.0005 -0.9991
vn -0.2464 0.0362 -0.9685
vn -0.2479 -0.1243 -0.9608
vn -0.2579 -0.0682 -0.9638
vn -0.1769 -0.1702 -0.9694
vn -0.0963 -0.2185 -0.9711
vn -0.0899 -0.1591 -0.9832
vn -0.1585 -0.2480 -0.9557
vn -0.0684 -0.1960 -0.9782
vn -0.2361 -0.0951 -0.9671
vn -0.2739 -0.1708 -0.9465
vn -0.0105 -0.1042 -0.9945
vn 0.2337 0.0173 0.9722
vn 0.2300 0.0491 0.9720
vn 0.1868 0.0793 0.9792
vn 0.1535 -0.0060 0.9881
vn 0.0633 -0.0305 0.9975
vn 0.0727 0.0297 0.9969
vn 0.1154 -0.0776 0.9903
vn 0.0424 -0.0007 0.9991
vn 0.2464 -0.0363 0.9685
vn 0.2479 0.1243 0.9608
vn -0.9041 0.0439 0.4250
vn 0.0899 0.1591 0.9832
vn 0.0963 0.2185 0.9711
vn 0.1769 0.1702 0.9694
vn 0.1584 0.2480 0.9557
vn 0.0685 0.1961 0.9782
vn 0.2738 0.1708 0.9465
vn 0.2361 0.0951 0.9671
vn 0.0103 0.1043 0.9945
vn -0.0543 0.0755 0.9957
vn -0.0000 0.0195 0.9998
vn -0.0233 0.0673 0.9975
vn -0.0657 -0.0874 0.9940
vn -0.1263 -0.0880 0.9881
vn -0.0894 -0.0019 0.9960
vn -0.1651 -0.0292 0.9858
vn -0.0996 -0.1130 0.9886
vn -0.1051 0.0963 0.9898
vn 0.0543 0.0755 0.9957
vn 0.0000 0.0930 0.9957
vn 0.0894 -0.0019 0.9960
vn 0.1263 -0.0880 0.9881
vn 0.0657 -0.0874 0.9940
vn 0.1651 -0.0292 0.9858
vn 0.0996 -0.1130 0.9886
vn 0.0233 0.0673 0.9975
vn 0.1051 0.0963 0.9898
vn 0.0000 -0.1589 0.9873
vn 0.0543 -0.0755 -0.9957
vn 0.0233 -0.0673 -0.9975
vn -0.0000 -0.0195 -0.9998
vn 0.0893 0.0019 -0.9960
vn 0.1263 0.0880 -0.9881
vn 0.0657 0.0874 -0.9940
vn 0.1651 0.0292 -0.9858
vn 0.0997 0.1129 -0.9886
vn 0.1051 -0.0963 -0.9898
vn -0.0543 -0.0755 -0.9957
vn 0.0000 -0.0930 -0.9957
vn -0.0657 0.0874 -0.9940
vn -0.1263 0.0880 -0.9881
vn -0.0893 0.0019 -0.9960
vn -0.1651 0.0292 -0.9858
vn -0.0997 0.1129 -0.9886
vn -0.1051 -0.0963 -0.9898
vn -0.0233 -0.0673 -0.9975
vn 0.0000 0.1589 -0.9873
s 1
f 1/1/1 2/2/2 3/3/3
f 1/1/1 4/4/4 2/2/2
f 1/1/1 5/5/5 4/6/4
f 1/1/1 3/3/3 5/5/5
f 6/7/6 7/8/7 8/9/8 9/10/9
f 10/11/10 8/12/8 7/8/7 11/13/11
f 12/14/12 9/15/9 8/12/8 10/11/10
f 13/16/13 6/7/6 9/17/9 12/18/12
f 11/13/11 7/8/7 6/7/6 13/16/13
f 2/2/2 14/19/14 15/20/15 3/3/3
f 4/4/4 16/21/16 14/19/14 2/2/2
f 5/5/5 17/22/17 16/23/16 4/6/4
f 3/3/3 15/20/15 17/22/17 5/5/5
f 14/19/14 10/11/10 11/13/11 15/20/15
f 16/21/16 12/14/12 10/11/10 14/19/14
f 17/22/17 13/16/13 12/18/12 16/23/16
f 15/20/15 11/13/11 13/16/13 17/22/17
s 2
f 18/24/18 19/25/19 20/26/20
f 19/25/19 21/27/21 22/28/22 23/29/23
f 21/27/21 24/30/24 22/28/22
f 22/28/22 25/31/25 23/29/23
f 23/29/23 26/32/26 20/26/20
f 27/33/27 19/25/19 11/34/11
f 19/25/19 28/35/28 29/36/29 30/37/30
f 19/25/19 30/37/30 21/27/21
f 30/37/30 29/36/29 31/38/31
f 29/36/29 28/35/28 32/39/32
f 28/35/28 33/40/33 34/41/34
f 30/37/30 35/42/35 21/27/21
f 18/24/18 11/34/11 19/25/19
f 27/33/27 33/40/33 19/25/19
f 19/25/19 23/29/23 20/26/20
f 33/40/33 28/35/28 19/25/19
s 3
f 36/43/36 37/44/37 38/45/38
f 38/45/38 39/46/39 40/47/40 41/48/41
f 41/48/41 40/47/40 42/49/42
f 40/47/40 39/46/39 43/50/43
f 39/46/39 37/44/37 44/51/44
f 45/52/45 46/53/46 38/45/38
f 38/45/38 47/54/47 48/55/48 49/56/49
f 38/45/38 41/48/41 47/54/47
f 47/54/47 50/57/50 48/55/48
f 48/55/48 51/58/51 49/56/49
f 49/56/49 52/59/52 53/60/53
f 47/54/47 41/48/41 54/61/54
f 36/43/36 38/45/38 46/53/46
f 45/52/45 38/45/38 53/60/53
f 38/45/38 37/44/37 39/46/39
f 53/60/53 38/45/38 49/56/49
s 4
f 55/62/55 56/63/56 57/64/57
f 56/63/56 58/65/58 59/66/59 60/67/60
f 58/65/58 61/68/61 59/66/59
f 59/66/59 62/69/62 60/67/60
f 60/67/60 63/70/63 57/64/57
f 64/71/64 56/63/56 65/72/65
f 56/63/56 66/73/66 67/74/67 68/75/68
f 56/63/56 68/75/68 58/65/58
f 68/75/68 67/74/67 69/76/69
f 67/74/67 66/73/66 70/77/70
f 66/73/66 71/78/71 72/79/72
f 68/75/68 73/80/73 58/65/58
f 55/62/55 65/72/65 56/63/56
f 64/71/64 71/78/71 56/63/56
f 56/63/56 60/67/60 57/64/57
f 71/78/71 66/73/66 56/63/56
s 5
f 74/81/74 75/82/75 76/83/76
f 76/83/76 77/84/77 78/85/78 79/86/79
f 79/86/79 78/85/78 80/87/80
f 78/85/78 77/84/77 81/88/81
f 77/84/77 75/82/75 82/89/82
f 83/90/83 12/91/84 76/83/76
f 76/83/76 84/92/85 85/93/86 86/94/87
f 76/83/76 79/86/79 84/92/85
f 84/92/85 87/95/88 85/93/86
f 85/93/86 88/96/89 86/94/87
f 86/94/87 89/97/90 90/98/91
f 84/92/85 79/86/79 91/99/92
f 74/81/74 76/83/76 12/91/84
f 83/90/83 76/83/76 90/98/91
f 76/83/76 75/82/75 77/84/77
f 90/98/91 76/83/76 86/94/87
s 6
f 92/100/93 93/101/94 94/102/95
f 93/101/94 95/103/96 96/104/97 97/105/98
f 95/103/96 98/106/99 96/104/97
f 96/104/97 99/107/100 97/105/98
f 97/105/98 100/108/101 94/102/95
f 101/109/102 93/101/94 102/110/103
f 93/101/94 103/111/104 104/112/105 105/113/106
f 93/101/94 105/113/106 95/103/96
f 105/113/106 104/112/105 106/114/107
f 104/112/105 103/111/104 107/115/108
f 103/111/104 108/116/109 109/117/110
f 105/113/106 110/118/111 95/103/96
f 92/100/93 102/110/103 93/101/94
f 101/109/102 108/116/109 93/101/94
f 93/101/94 97/105/98 94/102/95
f 108/116/109 103/111/104 93/101/94
s 7
f 111/119/112 112/120/113 113/121/114
f 113/121/114 114/122/115 115/123/116 116/124/117
f 116/124/117 115/123/116 117/125/118
f 115/123/116 114/122/115 118/126/119
f 114/122/115 112/120/113 119/127/120
f 120/128/121 121/129/122 113/121/114
f 113/121/114 122/130/123 123/131/124 124/132/125
f 113/121/114 116/124/117 122/130/123
f 122/130/123 125/133/126 123/131/124
f 123/131/124 126/134/127 124/132/125
f 124/132/125 127/135/128 128/136/129
f 122/130/123 116/124/117 129/137/130
f 111/119/112 113/121/114 121/129/122
f 120/128/121 113/121/114 128/136/129
f 113/121/114 112/120/113 114/122/115
f 128/136/129 113/121/114 124/132/125
