# Blender v3.3.0 OBJ File: ''
# www.blender.org
o CoffeeStage01.005
v 0.000032 -0.031499 -0.002955
v 0.000032 0.001732 -0.019829
v 0.019738 0.000015 -0.000198
v -0.019674 0.000015 -0.000198
v 0.000032 -0.001703 0.019433
v -0.015380 0.436100 -0.035952
v -0.005699 0.551209 -0.112204
v -0.000962 0.552004 -0.110272
v -0.005968 0.435995 -0.031137
v -0.019810 0.440059 -0.027206
v -0.007740 0.553994 -0.108347
v -0.003003 0.554789 -0.106415
v -0.010398 0.439955 -0.022391
v 0.000032 0.017686 -0.011631
v 0.012962 0.016559 0.001249
v -0.012898 0.016559 0.001249
v 0.000032 0.015432 0.014130
v -0.004257 0.234153 -0.004991
v 0.007852 0.232706 0.007157
v -0.016367 0.234255 0.007157
v -0.004257 0.232808 0.019305
v -0.008469 0.339404 -0.005432
v 0.001919 0.338643 0.004537
v -0.018105 0.341740 0.004661
v -0.007717 0.340979 0.014630
v 0.261026 0.328429 -0.004340
v 0.262914 0.331871 -0.007714
v 0.263664 0.335241 -0.003857
v 0.261777 0.331799 -0.000482
v 0.172002 0.354063 -0.009499
v 0.172996 0.347446 -0.001312
v 0.172723 0.362309 -0.002921
v 0.173717 0.355693 0.005265
v -0.004544 0.232762 -0.001222
v 0.084004 0.302006 -0.008766
v 0.090216 0.293181 0.002100
v 0.002020 0.226170 0.008241
v -0.008824 0.241713 0.005973
v 0.079186 0.311301 0.001501
v 0.084506 0.302495 0.012284
v -0.003671 0.235148 0.015532
v -0.178003 0.290852 -0.112177
v -0.181040 0.292218 -0.108214
v -0.182725 0.296301 -0.110913
v -0.179688 0.294934 -0.114876
v -0.131262 0.301780 -0.075152
v -0.126069 0.299209 -0.083996
v -0.130746 0.311998 -0.077819
v -0.125553 0.309428 -0.086663
v -0.010402 0.230505 0.009889
v -0.071872 0.283735 -0.025359
v -0.064478 0.275942 -0.036273
v -0.002534 0.227182 0.000737
v -0.003948 0.242671 0.011804
v -0.064395 0.295841 -0.028903
v -0.056553 0.288287 -0.039079
v 0.005116 0.237034 0.003648
v 0.020855 0.323861 0.257267
v 0.025843 0.325227 0.257047
v 0.024859 0.329309 0.260073
v 0.019871 0.327943 0.260294
v 0.022357 0.343793 0.191632
v 0.012245 0.341222 0.193338
v 0.019983 0.354011 0.192951
v 0.009870 0.351440 0.194657
v 0.002813 0.230505 0.010991
v 0.015858 0.308223 0.105126
v 0.002745 0.301361 0.109062
v -0.009255 0.227182 0.010847
v 0.000131 0.242671 0.004816
v 0.008337 0.318419 0.097744
v -0.004498 0.311502 0.100830
v -0.011943 0.237034 0.003115
v 0.003096 0.507989 -0.139494
v 0.017682 0.501389 -0.126564
v 0.034084 0.481260 -0.150946
v 0.016280 0.487856 -0.168273
v 0.038351 0.504063 -0.109448
v 0.061878 0.484272 -0.126919
v 0.044925 0.480081 -0.138527
v 0.027111 0.499508 -0.119323
v 0.050971 0.507726 -0.100520
v 0.031487 0.414527 -0.170400
v 0.043261 0.443435 -0.159583
v 0.040898 0.408685 -0.150330
v 0.054584 0.446010 -0.145583
v 0.051610 0.413442 -0.139237
v 0.074191 0.447012 -0.134217
v 0.065326 0.410528 -0.130864
v 0.093546 0.455344 -0.121532
v 0.082942 0.414137 -0.123741
v 0.036438 0.393439 -0.152452
v 0.045486 0.380474 -0.132804
v 0.047438 0.383054 -0.130789
v 0.050188 0.381667 -0.128827
v 0.067181 0.394581 -0.123580
v -0.007102 0.513103 -0.114515
v -0.004321 0.511622 -0.101487
v -0.000488 0.511461 -0.090688
v 0.001724 0.511529 -0.088878
v 0.014965 0.513542 -0.085749
v 0.028431 0.514995 -0.086724
v -0.010244 0.504915 -0.080206
v -0.007943 0.504991 -0.078324
v 0.026183 0.450622 -0.182561
v 0.076431 0.488631 -0.114065
v 0.049594 0.367060 -0.126113
v 0.016151 0.487581 -0.168117
v 0.033945 0.480995 -0.150775
v 0.017593 0.501082 -0.126447
v 0.003017 0.507689 -0.139390
v 0.038262 0.503755 -0.109331
v 0.027021 0.499205 -0.119204
v 0.044783 0.479828 -0.138354
v 0.061744 0.484003 -0.126754
v 0.050888 0.507424 -0.100411
v 0.031269 0.414454 -0.170153
v 0.043062 0.443301 -0.159352
v 0.025997 0.450441 -0.182350
v 0.040683 0.408658 -0.150083
v 0.051397 0.413418 -0.138994
v 0.054387 0.445886 -0.145356
v 0.065109 0.410499 -0.130614
v 0.073994 0.446867 -0.133990
v 0.082722 0.414075 -0.123491
v 0.093364 0.455158 -0.121322
v 0.036229 0.393433 -0.152213
v 0.045282 0.380487 -0.132569
v 0.047234 0.383067 -0.130555
v 0.049984 0.381680 -0.128592
v 0.066965 0.394572 -0.123331
v -0.007113 0.512779 -0.114486
v -0.000495 0.511144 -0.090665
v -0.004330 0.511302 -0.101461
v 0.014956 0.513222 -0.085723
v 0.001717 0.511212 -0.088855
v 0.028419 0.514670 -0.086693
v -0.007945 0.504679 -0.078308
v -0.010246 0.504604 -0.080190
v 0.076305 0.488358 -0.113910
v 0.049391 0.367074 -0.125878
v -0.162642 0.311475 -0.015886
v -0.174848 0.303852 -0.034229
v -0.204759 0.297460 -0.007699
v -0.192771 0.305769 0.015654
v -0.190835 0.303262 -0.059943
v -0.224210 0.296401 -0.044030
v -0.211559 0.295253 -0.024002
v -0.182879 0.301212 -0.044803
v -0.235251 0.298242 -0.064137
v -0.246335 0.260719 0.039030
v -0.235088 0.281018 0.011018
v -0.255667 0.254113 0.015251
v -0.239071 0.281024 -0.008276
v -0.258158 0.256675 -0.002550
v -0.251772 0.280545 -0.029336
v -0.267912 0.253693 -0.017401
v -0.260953 0.283214 -0.052088
v -0.275653 0.255222 -0.033381
v -0.262267 0.239218 0.023089
v -0.272167 0.224901 0.002271
v -0.271545 0.226900 -0.001405
v -0.273703 0.225420 -0.004500
v -0.276582 0.237688 -0.021767
v -0.142423 0.314156 -0.041344
v -0.140344 0.311317 -0.056052
v -0.140326 0.310013 -0.068864
v -0.142026 0.309739 -0.071530
v -0.155267 0.310340 -0.079379
v -0.170292 0.310768 -0.082854
v -0.201126 0.304872 -0.074821
v -0.125295 0.303560 -0.076324
v -0.127059 0.303276 -0.079099
v -0.221145 0.287478 0.040241
v -0.279537 0.210096 -0.002635
v -0.192622 0.305479 0.015623
v -0.204605 0.297172 -0.007745
v -0.174728 0.303533 -0.034272
v -0.162519 0.311156 -0.015923
v -0.190718 0.302945 -0.059983
v -0.182760 0.300894 -0.044847
v -0.211405 0.294966 -0.024050
v -0.224061 0.296115 -0.044072
v -0.235111 0.297956 -0.064179
v -0.201009 0.304554 -0.074860
v -0.246091 0.260505 0.038937
v -0.234882 0.280781 0.010947
v -0.220954 0.287222 0.040184
v -0.255400 0.253923 0.015162
v -0.257889 0.256487 -0.002638
v -0.238861 0.280788 -0.008351
v -0.267642 0.253503 -0.017494
v -0.251574 0.280304 -0.029411
v -0.275397 0.255014 -0.033480
v -0.260766 0.282959 -0.052154
v -0.261989 0.239036 0.023002
v -0.271875 0.224735 0.002193
v -0.271252 0.226734 -0.001483
v -0.273410 0.225254 -0.004578
v -0.276300 0.237507 -0.021856
v -0.142378 0.313814 -0.041338
v -0.140282 0.309671 -0.068858
v -0.140300 0.310975 -0.056046
v -0.155223 0.309997 -0.079373
v -0.141981 0.309397 -0.071523
v -0.170248 0.310426 -0.082848
v -0.127015 0.302934 -0.079093
v -0.125251 0.303218 -0.076318
v -0.279244 0.209930 -0.002713
v -0.032696 0.336459 0.236710
v -0.039982 0.330082 0.217150
v -0.070196 0.315321 0.235092
v -0.060070 0.322578 0.258634
v -0.050570 0.330927 0.190355
v -0.087741 0.315468 0.200100
v -0.076491 0.313973 0.219150
v -0.045536 0.327927 0.205493
v -0.057434 0.333129 0.175381
v -0.097149 0.318029 0.180833
v -0.074296 0.297888 0.277913
v -0.088811 0.290959 0.253139
v -0.099671 0.262648 0.263440
v -0.087171 0.268866 0.280345
v -0.096530 0.291513 0.235746
v -0.107082 0.265095 0.248080
v -0.113126 0.290938 0.217982
v -0.120583 0.262304 0.237467
v -0.127129 0.294492 0.196551
v -0.133524 0.263321 0.222989
v -0.102984 0.248789 0.273973
v -0.118615 0.236236 0.261027
v -0.119072 0.237991 0.257396
v -0.122131 0.236708 0.255367
v -0.129778 0.247530 0.238033
v -0.010095 0.345622 0.218800
v -0.005081 0.345504 0.205184
v -0.002581 0.346230 0.193104
v -0.003639 0.346125 0.190251
v -0.014635 0.345909 0.180374
v -0.028024 0.344604 0.174195
v 0.013795 0.343556 0.188386
v 0.012699 0.343449 0.185417
v -0.128041 0.222689 0.259756
v -0.059869 0.322339 0.258556
v -0.070000 0.315082 0.235010
v -0.039807 0.329809 0.217093
v -0.032520 0.336185 0.236657
v -0.050400 0.330654 0.190299
v -0.045361 0.327654 0.205435
v -0.076297 0.313736 0.219067
v -0.087556 0.315229 0.200027
v -0.096970 0.317787 0.180763
v -0.057264 0.332855 0.175327
v -0.086947 0.268678 0.280191
v -0.099446 0.262459 0.263286
v -0.088588 0.290756 0.253015
v -0.074067 0.297684 0.277791
v -0.106857 0.264907 0.247926
v -0.096311 0.291311 0.235619
v -0.120358 0.262115 0.237313
v -0.112912 0.290734 0.217865
v -0.133300 0.263133 0.222835
v -0.126924 0.294284 0.196445
v -0.102759 0.248601 0.273819
v -0.118390 0.236047 0.260873
v -0.118847 0.237803 0.257242
v -0.121906 0.236519 0.255213
v -0.129553 0.247341 0.237879
v -0.009995 0.345307 0.218774
v -0.002481 0.345915 0.193077
v -0.004981 0.345190 0.205158
v -0.014535 0.345594 0.180348
v -0.003539 0.345810 0.190224
v -0.027924 0.344289 0.174168
v 0.012799 0.343134 0.185391
v 0.013895 0.343241 0.188360
v -0.127817 0.222501 0.259602
v 0.081367 0.340867 0.184901
v 0.072541 0.332801 0.203362
v 0.107506 0.319671 0.212324
v 0.117218 0.328954 0.189087
v 0.060237 0.331372 0.229635
v 0.094071 0.316863 0.249306
v 0.100305 0.316964 0.227848
v 0.068010 0.329651 0.215344
v 0.053901 0.332316 0.245109
v 0.086335 0.317805 0.269623
v 0.142765 0.305901 0.184846
v 0.135164 0.296861 0.212169
v 0.152068 0.269379 0.211442
v 0.155361 0.277032 0.190979
v 0.127763 0.295943 0.229844
v 0.145812 0.270537 0.227596
v 0.126300 0.293900 0.254219
v 0.147579 0.266875 0.244652
v 0.120094 0.295672 0.279453
v 0.145885 0.266699 0.264173
v 0.162966 0.256394 0.205834
v 0.165148 0.242737 0.225510
v 0.162696 0.244187 0.228445
v 0.163414 0.242736 0.232014
v 0.155326 0.252132 0.250172
v 0.052058 0.348412 0.181184
v 0.038657 0.347090 0.186883
v 0.028059 0.346760 0.193414
v 0.026713 0.346412 0.196149
v 0.027117 0.345388 0.211005
v 0.031945 0.343602 0.225006
v 0.013470 0.343593 0.184506
v 0.012067 0.343233 0.187349
v 0.171632 0.229068 0.232535
v 0.117037 0.328706 0.188980
v 0.107326 0.319424 0.212223
v 0.072397 0.332520 0.203258
v 0.081224 0.340586 0.184793
v 0.060096 0.331093 0.229532
v 0.067865 0.329371 0.215241
v 0.100126 0.316718 0.227749
v 0.093906 0.316616 0.249208
v 0.086177 0.317556 0.269526
v 0.053762 0.332035 0.245005
v 0.155105 0.276828 0.190910
v 0.151812 0.269175 0.211372
v 0.134933 0.296646 0.212079
v 0.142530 0.305685 0.184751
v 0.145556 0.270334 0.227527
v 0.127532 0.295729 0.229759
v 0.147323 0.266671 0.244582
v 0.126080 0.293684 0.254132
v 0.145629 0.266495 0.264104
v 0.119890 0.295453 0.279364
v 0.162711 0.256190 0.205765
v 0.164893 0.242533 0.225440
v 0.162441 0.243983 0.228376
v 0.163158 0.242532 0.231945
v 0.155070 0.251928 0.250103
v 0.051990 0.348093 0.181111
v 0.027991 0.346441 0.193341
v 0.038589 0.346772 0.186810
v 0.027049 0.345069 0.210932
v 0.026646 0.346093 0.196076
v 0.031877 0.343283 0.224933
v 0.011999 0.342915 0.187276
v 0.013403 0.343275 0.184433
v 0.171377 0.228865 0.232466
v 0.032076 0.302440 0.290637
v 0.018726 0.302257 0.287175
v 0.016097 0.283872 0.302512
v 0.032585 0.284128 0.305887
v 0.001258 0.307153 0.285537
v -0.008093 0.289013 0.301927
v 0.005507 0.285769 0.300994
v 0.010531 0.302815 0.286191
v -0.008643 0.310656 0.285596
v -0.021060 0.293256 0.302206
v 0.035072 0.263091 0.310786
v 0.016473 0.262456 0.309344
v 0.015062 0.242268 0.309141
v 0.028803 0.244029 0.309282
v 0.004844 0.265471 0.308700
v 0.004799 0.245892 0.309439
v -0.010144 0.266219 0.312005
v -0.005650 0.244291 0.312465
v -0.025706 0.270634 0.314268
v -0.017506 0.245831 0.315306
v 0.017911 0.231445 0.309510
v 0.004472 0.224628 0.310109
v 0.002616 0.226385 0.309886
v 0.000374 0.225574 0.310480
v -0.010097 0.234233 0.312823
v 0.031509 0.316249 0.277424
v 0.026140 0.320472 0.271305
v 0.020798 0.324293 0.267080
v 0.018941 0.324721 0.266814
v 0.010012 0.324847 0.269555
v 0.002066 0.323009 0.274137
v 0.023680 0.327176 0.256969
v 0.021750 0.327623 0.256691
v -0.000877 0.215646 0.310454
v 0.032711 0.284054 0.305734
v 0.016220 0.283799 0.302360
v 0.018851 0.302155 0.287030
v 0.032203 0.302336 0.290493
v 0.001382 0.307050 0.285395
v 0.010655 0.302714 0.286046
v 0.005629 0.285697 0.300843
v -0.007970 0.288936 0.301783
v -0.020937 0.293175 0.302066
v -0.008518 0.310551 0.285454
v 0.028904 0.244007 0.309111
v 0.015162 0.242246 0.308971
v 0.016587 0.262418 0.309179
v 0.035189 0.263054 0.310618
v 0.004899 0.245869 0.309269
v 0.004956 0.265434 0.308537
v -0.005550 0.244268 0.312295
v -0.010030 0.266177 0.311846
v -0.017406 0.245809 0.315135
v -0.025590 0.270585 0.314115
v 0.018012 0.231423 0.309340
v 0.004572 0.224606 0.309939
v 0.002717 0.226363 0.309716
v 0.000474 0.225551 0.310310
v -0.009996 0.234210 0.312653
v 0.031619 0.316102 0.277312
v 0.020909 0.324146 0.266969
v 0.026251 0.320325 0.271193
v 0.010122 0.324700 0.269443
v 0.019052 0.324574 0.266703
v 0.002176 0.322862 0.274025
v 0.021860 0.327476 0.256579
v 0.023791 0.327029 0.256858
v -0.000777 0.215624 0.310283
v 0.236161 0.362503 0.050154
v 0.216392 0.352203 0.059279
v 0.242953 0.333109 0.093164
v 0.269329 0.342840 0.082231
v 0.187558 0.349075 0.073868
v 0.202969 0.330527 0.112711
v 0.224844 0.330778 0.100199
v 0.204544 0.348027 0.066135
v 0.171390 0.349380 0.083920
v 0.181645 0.331805 0.123931
v 0.290113 0.313398 0.106684
v 0.259588 0.305017 0.118602
v 0.260372 0.266098 0.124854
v 0.282799 0.271583 0.115655
v 0.238869 0.305723 0.125193
v 0.242592 0.270823 0.131411
v 0.216790 0.303527 0.141123
v 0.227585 0.267065 0.143645
v 0.192061 0.306162 0.155128
v 0.209309 0.268555 0.155878
v 0.268147 0.247598 0.125726
v 0.248003 0.233452 0.136952
v 0.244327 0.236173 0.137460
v 0.241194 0.234525 0.140087
v 0.223050 0.248668 0.149170
v 0.209435 0.366843 0.023732
v 0.193348 0.362272 0.018527
v 0.179360 0.359420 0.016432
v 0.176338 0.358634 0.017894
v 0.166789 0.357062 0.031706
v 0.162311 0.356510 0.048629
v 0.173184 0.354414 -0.001931
v 0.170036 0.353580 -0.000420
v 0.241683 0.216794 0.142838
v 0.269245 0.342592 0.081986
v 0.242865 0.332866 0.092914
v 0.216341 0.351898 0.059053
v 0.236110 0.362199 0.049929
v 0.187506 0.348767 0.073640
v 0.204490 0.347722 0.065907
v 0.224752 0.330538 0.099946
v 0.202885 0.330282 0.112467
v 0.181560 0.331555 0.123686
v 0.171336 0.349071 0.083691
v 0.282636 0.271483 0.115332
v 0.260209 0.265997 0.124531
v 0.259463 0.304837 0.118306
v 0.289995 0.313202 0.106392
v 0.242429 0.270723 0.131088
v 0.238741 0.305556 0.124896
v 0.227422 0.266964 0.143322
v 0.216665 0.303360 0.140832
v 0.209146 0.268454 0.155555
v 0.191939 0.305994 0.154843
v 0.267984 0.247497 0.125404
v 0.247840 0.233351 0.136629
v 0.244164 0.236072 0.137137
v 0.241031 0.234424 0.139764
v 0.222887 0.248567 0.148847
v 0.209469 0.366498 0.023619
v 0.179400 0.359068 0.016322
v 0.193385 0.361922 0.018415
v 0.166826 0.356712 0.031594
v 0.176377 0.358281 0.017784
v 0.162342 0.356169 0.048514
v 0.170076 0.353224 -0.000531
v 0.173224 0.354058 -0.002042
v 0.241520 0.216694 0.142515
v 0.179727 0.362503 -0.083394
v 0.198541 0.352203 -0.072434
v 0.211063 0.333109 -0.113627
v 0.186978 0.342840 -0.128962
v 0.227030 0.349075 -0.057182
v 0.250009 0.330527 -0.092086
v 0.227212 0.330777 -0.102828
v 0.210953 0.348027 -0.066662
v 0.244537 0.349380 -0.049704
v 0.271431 0.331805 -0.081053
v 0.195088 0.313398 -0.160013
v 0.222359 0.305017 -0.141844
v 0.227031 0.266098 -0.146072
v 0.206632 0.271583 -0.159167
v 0.239642 0.305723 -0.128652
v 0.242600 0.270824 -0.135269
v 0.265355 0.303527 -0.119704
v 0.261229 0.267065 -0.129993
v 0.291012 0.306162 -0.107480
v 0.281733 0.268555 -0.122039
v 0.223286 0.247598 -0.152942
v 0.244035 0.233452 -0.142880
v 0.246560 0.236173 -0.140160
v 0.250509 0.234525 -0.139100
v 0.268356 0.248668 -0.129448
v 0.173413 0.366843 -0.046346
v 0.178376 0.362272 -0.030182
v 0.184683 0.359420 -0.017523
v 0.187615 0.358634 -0.015886
v 0.204405 0.357062 -0.015986
v 0.220836 0.356510 -0.022025
v 0.173184 0.354414 -0.001931
v 0.176227 0.353580 -0.000219
v 0.252482 0.216794 -0.141079
v 0.186826 0.342592 -0.128753
v 0.210909 0.332866 -0.113411
v 0.198385 0.351898 -0.072262
v 0.179572 0.362199 -0.083223
v 0.226874 0.348767 -0.057009
v 0.210797 0.347722 -0.066485
v 0.227058 0.330538 -0.102608
v 0.249857 0.330282 -0.091876
v 0.271279 0.331555 -0.080844
v 0.244381 0.349071 -0.049528
v 0.206461 0.271483 -0.158848
v 0.226860 0.265997 -0.145753
v 0.222189 0.304837 -0.141572
v 0.194917 0.313202 -0.159749
v 0.242429 0.270723 -0.134950
v 0.239473 0.305556 -0.128378
v 0.261058 0.266964 -0.129674
v 0.265188 0.303360 -0.119435
v 0.281562 0.268454 -0.121720
v 0.290848 0.305994 -0.107216
v 0.223115 0.247497 -0.152623
v 0.243864 0.233351 -0.142561
v 0.246389 0.236072 -0.139841
v 0.250338 0.234424 -0.138781
v 0.268185 0.248567 -0.129129
v 0.173301 0.366498 -0.046309
v 0.184570 0.359068 -0.017492
v 0.178264 0.361922 -0.030149
v 0.204292 0.356712 -0.015952
v 0.187502 0.358281 -0.015855
v 0.220725 0.356169 -0.021984
v 0.176113 0.353224 -0.000188
v 0.173070 0.354058 -0.001901
v 0.252311 0.216694 -0.140760
v 0.000311 0.543662 -0.013627
v -0.019698 0.531502 -0.016912
v -0.026981 0.530595 0.024623
v -0.001687 0.545277 0.029612
v -0.049179 0.524682 -0.026336
v -0.067039 0.520575 0.011357
v -0.043662 0.523354 0.018272
v -0.032541 0.525997 -0.019033
v -0.066942 0.523182 -0.031540
v -0.007525 0.539760 0.070822
v -0.036629 0.525317 0.064781
v -0.047224 0.516383 0.097723
v -0.025483 0.526685 0.100389
v -0.054368 0.518204 0.055208
v -0.062371 0.511115 0.087494
v -0.080265 0.514549 0.050132
v -0.081318 0.508088 0.086575
v -0.105819 0.511309 0.039034
v -0.101428 0.504946 0.079748
v -0.046120 0.514983 0.117204
v -0.069367 0.504207 0.123341
v -0.071588 0.503222 0.119575
v -0.075744 0.502316 0.120155
v -0.091326 0.501936 0.101790
v 0.001487 0.538222 -0.046398
v -0.005922 0.530749 -0.058477
v -0.014011 0.525575 -0.068169
v -0.017109 0.524640 -0.069076
v -0.033256 0.524010 -0.066792
v -0.048044 0.524673 -0.059866
v -0.005535 0.515524 -0.081948
v -0.008756 0.514552 -0.082897
v -0.088882 0.517985 0.003060
v -0.080464 0.497805 0.136372
v -0.001574 0.544930 0.029596
v -0.026869 0.530247 0.024607
v -0.019586 0.531154 -0.016928
v 0.000424 0.543315 -0.013643
v -0.049067 0.524334 -0.026352
v -0.032429 0.525649 -0.019049
v -0.043549 0.523006 0.018256
v -0.066927 0.520227 0.011340
v -0.066829 0.522834 -0.031556
v -0.025371 0.526337 0.100373
v -0.047111 0.516036 0.097707
v -0.036516 0.524969 0.064764
v -0.007412 0.539412 0.070806
v -0.062258 0.510767 0.087478
v -0.054256 0.517856 0.055192
v -0.081205 0.507741 0.086559
v -0.080152 0.514201 0.050116
v -0.101315 0.504599 0.079732
v -0.105706 0.510962 0.039018
v -0.046007 0.514635 0.117188
v -0.069254 0.503860 0.123325
v -0.071475 0.502874 0.119559
v -0.075632 0.501969 0.120139
v -0.091213 0.501589 0.101774
v 0.001569 0.537873 -0.046324
v -0.013928 0.525226 -0.068094
v -0.005840 0.530400 -0.058402
v -0.033173 0.523662 -0.066718
v -0.017027 0.524291 -0.069002
v -0.047961 0.524325 -0.059791
v -0.008674 0.514203 -0.082823
v -0.005452 0.515176 -0.081874
v -0.088769 0.517638 0.003044
v -0.080351 0.497458 0.136356
v -0.169258 0.306055 -0.141655
v -0.147871 0.296423 -0.144630
v -0.160194 0.278047 -0.180540
v -0.187463 0.289245 -0.177183
v -0.116628 0.294224 -0.149478
v -0.117374 0.274572 -0.186489
v -0.141340 0.274169 -0.181245
v -0.134624 0.292329 -0.147372
v -0.098570 0.295064 -0.153726
v -0.199916 0.266828 -0.210427
v -0.168921 0.256292 -0.214951
v -0.172786 0.234273 -0.242835
v -0.194998 0.242483 -0.237828
v -0.147717 0.253891 -0.213705
v -0.153920 0.233822 -0.240452
v -0.122218 0.252724 -0.221331
v -0.136455 0.231467 -0.248096
v -0.094374 0.254478 -0.224212
v -0.115282 0.231505 -0.251643
v -0.182274 0.224772 -0.257061
v -0.162645 0.212412 -0.269558
v -0.158807 0.213110 -0.267352
v -0.155279 0.212044 -0.269554
v -0.133383 0.219462 -0.262790
v -0.154276 0.314974 -0.113354
v -0.140807 0.313306 -0.104843
v -0.128317 0.312713 -0.099386
v -0.125025 0.312249 -0.099881
v -0.111943 0.310713 -0.109517
v -0.102416 0.308387 -0.122590
v -0.127289 0.309428 -0.080655
v -0.123864 0.308947 -0.081165
v -0.094151 0.275732 -0.189950
v -0.157587 0.201103 -0.282991
v -0.187480 0.288937 -0.176987
v -0.160211 0.277738 -0.180344
v -0.147888 0.296114 -0.144434
v -0.169275 0.305747 -0.141458
v -0.116645 0.293916 -0.149282
v -0.134641 0.292021 -0.147176
v -0.141357 0.273860 -0.181049
v -0.117390 0.274264 -0.186293
v -0.098587 0.294756 -0.153529
v -0.195015 0.242175 -0.237631
v -0.172803 0.233965 -0.242639
v -0.168938 0.255984 -0.214755
v -0.199933 0.266520 -0.210231
v -0.153937 0.233513 -0.240256
v -0.147734 0.253583 -0.213508
v -0.136472 0.231159 -0.247900
v -0.122235 0.252416 -0.221135
v -0.115299 0.231196 -0.251447
v -0.094390 0.254170 -0.224015
v -0.182291 0.224463 -0.256865
v -0.162662 0.212104 -0.269361
v -0.158824 0.212802 -0.267155
v -0.155296 0.211736 -0.269358
v -0.133399 0.219153 -0.262594
v -0.154308 0.314627 -0.113244
v -0.128349 0.312365 -0.099276
v -0.140839 0.312959 -0.104733
v -0.111975 0.310366 -0.109406
v -0.125056 0.311901 -0.099771
v -0.102447 0.308040 -0.122480
v -0.123896 0.308600 -0.081055
v -0.127321 0.309080 -0.080544
v -0.094167 0.275424 -0.189754
v -0.157604 0.200794 -0.282795
vt 0.320400 0.036000
vt 0.291600 0.051200
vt 0.287400 0.036400
vt 0.301800 0.066600
vt 0.290600 0.021500
vt 0.300700 0.006000
vt 0.103600 0.049700
vt 0.012000 0.042300
vt 0.011800 0.037300
vt 0.104300 0.040000
vt 0.102900 0.059600
vt 0.011000 0.047200
vt 0.010900 0.032400
vt 0.010800 0.027500
vt 0.103200 0.020400
vt 0.104300 0.030200
vt 0.277300 0.052300
vt 0.274800 0.036700
vt 0.278700 0.066600
vt 0.275800 0.020800
vt 0.278200 0.006200
vt 0.190500 0.053000
vt 0.189500 0.038400
vt 0.190800 0.066900
vt 0.190000 0.023500
vt 0.190700 0.009500
vt 0.147100 0.051300
vt 0.146900 0.039200
vt 0.146900 0.063300
vt 0.147200 0.026900
vt 0.146900 0.014900
vt 0.011800 0.037300
vt 0.007000 0.038200
vt 0.006100 0.033400
vt 0.010900 0.032400
vt 0.103600 0.049700
vt 0.012000 0.042300
vt 0.104300 0.040000
vt 0.102900 0.059600
vt 0.011000 0.047200
vt 0.010800 0.027500
vt 0.103200 0.020400
vt 0.104300 0.030200
vt 0.190500 0.053000
vt 0.147100 0.051300
vt 0.146900 0.039200
vt 0.189500 0.038400
vt 0.190800 0.066900
vt 0.146900 0.063300
vt 0.147200 0.026900
vt 0.146900 0.014900
vt 0.190700 0.009500
vt 0.190000 0.023500
vt 0.011800 0.037300
vt 0.007000 0.038200
vt 0.006100 0.033400
vt 0.010900 0.032400
vt 0.103600 0.049700
vt 0.012000 0.042300
vt 0.104300 0.040000
vt 0.102900 0.059600
vt 0.011000 0.047200
vt 0.010800 0.027500
vt 0.103200 0.020400
vt 0.104300 0.030200
vt 0.190500 0.053000
vt 0.147100 0.051300
vt 0.146900 0.039200
vt 0.189500 0.038400
vt 0.190800 0.066900
vt 0.146900 0.063300
vt 0.147200 0.026900
vt 0.146900 0.014900
vt 0.190700 0.009500
vt 0.190000 0.023500
vt 0.011800 0.037300
vt 0.007000 0.038200
vt 0.006100 0.033400
vt 0.010900 0.032400
vt 0.103600 0.049700
vt 0.012000 0.042300
vt 0.104300 0.040000
vt 0.102900 0.059600
vt 0.011000 0.047200
vt 0.010800 0.027500
vt 0.103200 0.020400
vt 0.104300 0.030200
vt 0.190500 0.053000
vt 0.147100 0.051300
vt 0.146900 0.039200
vt 0.189500 0.038400
vt 0.190800 0.066900
vt 0.146900 0.063300
vt 0.147200 0.026900
vt 0.146900 0.014900
vt 0.190700 0.009500
vt 0.190000 0.023500
vt 0.011000 0.047200
vt 0.012000 0.042300
vt 0.064500 0.431000
vt 0.140700 0.442400
vt 0.123500 0.578700
vt 0.027500 0.566700
vt 0.244600 0.441400
vt 0.266500 0.576100
vt 0.186400 0.576200
vt 0.186000 0.448900
vt 0.305000 0.441400
vt 0.050500 0.814900
vt 0.119100 0.714400
vt 0.127800 0.830500
vt 0.188000 0.703100
vt 0.187500 0.814200
vt 0.274700 0.710700
vt 0.248500 0.828300
vt 0.365400 0.699100
vt 0.318300 0.825300
vt 0.107000 0.890800
vt 0.180300 0.935200
vt 0.191500 0.926000
vt 0.204200 0.931600
vt 0.268900 0.887500
vt 0.098100 0.336700
vt 0.139400 0.304600
vt 0.177600 0.281800
vt 0.188600 0.282000
vt 0.235800 0.306500
vt 0.273500 0.344100
vt 0.177500 0.271500
vt 0.188900 0.271700
vt 0.012100 0.701500
vt 0.342900 0.570400
vt 0.206900 0.988500
vt 0.027500 0.566700
vt 0.123500 0.578700
vt 0.140700 0.442400
vt 0.064500 0.431000
vt 0.244600 0.441400
vt 0.186000 0.448900
vt 0.186400 0.576200
vt 0.266500 0.576100
vt 0.305000 0.441400
vt 0.050500 0.814900
vt 0.119100 0.714400
vt 0.012100 0.701500
vt 0.127800 0.830500
vt 0.187500 0.814200
vt 0.188000 0.703100
vt 0.248500 0.828300
vt 0.274700 0.710700
vt 0.318300 0.825300
vt 0.365400 0.699100
vt 0.107000 0.890800
vt 0.180300 0.935200
vt 0.191500 0.926000
vt 0.204200 0.931600
vt 0.268900 0.887500
vt 0.098100 0.336700
vt 0.177600 0.281800
vt 0.139400 0.304600
vt 0.235800 0.306500
vt 0.188600 0.282000
vt 0.273500 0.344100
vt 0.188900 0.271700
vt 0.177500 0.271500
vt 0.342900 0.570400
vt 0.206900 0.988500
vt 0.593200 0.573000
vt 0.517100 0.561600
vt 0.534300 0.425300
vt 0.630300 0.437300
vt 0.413200 0.562600
vt 0.391300 0.427900
vt 0.471400 0.427700
vt 0.471800 0.555000
vt 0.314900 0.433600
vt 0.607300 0.189000
vt 0.538700 0.289600
vt 0.530000 0.173500
vt 0.469700 0.300900
vt 0.470200 0.189700
vt 0.383100 0.293300
vt 0.409300 0.175600
vt 0.292400 0.304800
vt 0.339400 0.178700
vt 0.550700 0.113200
vt 0.477500 0.068700
vt 0.466300 0.078000
vt 0.453600 0.072300
vt 0.388800 0.116400
vt 0.559600 0.667300
vt 0.518400 0.699300
vt 0.480200 0.722200
vt 0.469200 0.722000
vt 0.421900 0.697500
vt 0.384200 0.659800
vt 0.352700 0.562500
vt 0.480300 0.732500
vt 0.468900 0.732300
vt 0.645700 0.302400
vt 0.450900 0.015500
vt 0.630300 0.437300
vt 0.534300 0.425300
vt 0.517100 0.561600
vt 0.593200 0.573000
vt 0.413200 0.562600
vt 0.471800 0.555000
vt 0.471400 0.427700
vt 0.391300 0.427900
vt 0.314900 0.433600
vt 0.352700 0.562500
vt 0.607300 0.189000
vt 0.538700 0.289600
vt 0.645700 0.302400
vt 0.530000 0.173500
vt 0.470200 0.189700
vt 0.469700 0.300900
vt 0.409300 0.175600
vt 0.383100 0.293300
vt 0.339400 0.178700
vt 0.292400 0.304800
vt 0.550700 0.113200
vt 0.477500 0.068700
vt 0.466300 0.078000
vt 0.453600 0.072300
vt 0.388800 0.116400
vt 0.559600 0.667300
vt 0.480200 0.722200
vt 0.518400 0.699300
vt 0.421900 0.697500
vt 0.469200 0.722000
vt 0.384200 0.659800
vt 0.468900 0.732300
vt 0.480300 0.732500
vt 0.450900 0.015500
vt 0.064500 0.431000
vt 0.140700 0.442400
vt 0.123500 0.578700
vt 0.027500 0.566700
vt 0.244600 0.441400
vt 0.266500 0.576100
vt 0.186400 0.576200
vt 0.186000 0.448900
vt 0.305000 0.441400
vt 0.342900 0.570400
vt 0.012100 0.701500
vt 0.119100 0.714400
vt 0.127800 0.830500
vt 0.050500 0.814900
vt 0.188000 0.703100
vt 0.187500 0.814200
vt 0.274700 0.710700
vt 0.248500 0.828300
vt 0.365400 0.699100
vt 0.318300 0.825300
vt 0.107000 0.890800
vt 0.180300 0.935200
vt 0.191500 0.926000
vt 0.204200 0.931600
vt 0.268900 0.887500
vt 0.098100 0.336700
vt 0.139400 0.304600
vt 0.177600 0.281800
vt 0.188600 0.282000
vt 0.235800 0.306500
vt 0.273500 0.344100
vt 0.177500 0.271500
vt 0.188900 0.271700
vt 0.206900 0.988500
vt 0.027500 0.566700
vt 0.123500 0.578700
vt 0.140700 0.442400
vt 0.064500 0.431000
vt 0.244600 0.441400
vt 0.186000 0.448900
vt 0.186400 0.576200
vt 0.266500 0.576100
vt 0.342900 0.570400
vt 0.305000 0.441400
vt 0.050500 0.814900
vt 0.127800 0.830500
vt 0.119100 0.714400
vt 0.012100 0.701500
vt 0.187500 0.814200
vt 0.188000 0.703100
vt 0.248500 0.828300
vt 0.274700 0.710700
vt 0.318300 0.825300
vt 0.365400 0.699100
vt 0.107000 0.890800
vt 0.180300 0.935200
vt 0.191500 0.926000
vt 0.204200 0.931600
vt 0.268900 0.887500
vt 0.098100 0.336700
vt 0.177600 0.281800
vt 0.139400 0.304600
vt 0.235800 0.306500
vt 0.188600 0.282000
vt 0.273500 0.344100
vt 0.188900 0.271700
vt 0.177500 0.271500
vt 0.206900 0.988500
vt 0.064500 0.431000
vt 0.140700 0.442400
vt 0.123500 0.578700
vt 0.027500 0.566700
vt 0.244600 0.441400
vt 0.266500 0.576100
vt 0.186400 0.576200
vt 0.186000 0.448900
vt 0.305000 0.441400
vt 0.342900 0.570400
vt 0.012100 0.701500
vt 0.119100 0.714400
vt 0.127800 0.830500
vt 0.050500 0.814900
vt 0.188000 0.703100
vt 0.187500 0.814200
vt 0.274700 0.710700
vt 0.248500 0.828300
vt 0.365400 0.699100
vt 0.318300 0.825300
vt 0.107000 0.890800
vt 0.180300 0.935200
vt 0.191500 0.926000
vt 0.204200 0.931600
vt 0.268900 0.887500
vt 0.098100 0.336700
vt 0.139400 0.304600
vt 0.177600 0.281800
vt 0.188600 0.282000
vt 0.235800 0.306500
vt 0.273500 0.344100
vt 0.177500 0.271500
vt 0.188900 0.271700
vt 0.206900 0.988500
vt 0.027500 0.566700
vt 0.123500 0.578700
vt 0.140700 0.442400
vt 0.064500 0.431000
vt 0.244600 0.441400
vt 0.186000 0.448900
vt 0.186400 0.576200
vt 0.266500 0.576100
vt 0.342900 0.570400
vt 0.305000 0.441400
vt 0.050500 0.814900
vt 0.127800 0.830500
vt 0.119100 0.714400
vt 0.012100 0.701500
vt 0.187500 0.814200
vt 0.188000 0.703100
vt 0.248500 0.828300
vt 0.274700 0.710700
vt 0.318300 0.825300
vt 0.365400 0.699100
vt 0.107000 0.890800
vt 0.180300 0.935200
vt 0.191500 0.926000
vt 0.204200 0.931600
vt 0.268900 0.887500
vt 0.098100 0.336700
vt 0.177600 0.281800
vt 0.139400 0.304600
vt 0.235800 0.306500
vt 0.188600 0.282000
vt 0.273500 0.344100
vt 0.188900 0.271700
vt 0.177500 0.271500
vt 0.206900 0.988500
vt 0.064500 0.431000
vt 0.140700 0.442400
vt 0.123500 0.578700
vt 0.027500 0.566700
vt 0.244600 0.441400
vt 0.266500 0.576100
vt 0.186400 0.576200
vt 0.186000 0.448900
vt 0.305000 0.441400
vt 0.342900 0.570400
vt 0.012100 0.701500
vt 0.119100 0.714400
vt 0.127800 0.830500
vt 0.050500 0.814900
vt 0.188000 0.703100
vt 0.187500 0.814200
vt 0.274700 0.710700
vt 0.248500 0.828300
vt 0.365400 0.699100
vt 0.318300 0.825300
vt 0.107000 0.890800
vt 0.180300 0.935200
vt 0.191500 0.926000
vt 0.204200 0.931600
vt 0.268900 0.887500
vt 0.098100 0.336700
vt 0.139400 0.304600
vt 0.177600 0.281800
vt 0.188600 0.282000
vt 0.235800 0.306500
vt 0.273500 0.344100
vt 0.177500 0.271500
vt 0.188900 0.271700
vt 0.206900 0.988500
vt 0.027500 0.566700
vt 0.123500 0.578700
vt 0.140700 0.442400
vt 0.064500 0.431000
vt 0.244600 0.441400
vt 0.186000 0.448900
vt 0.186400 0.576200
vt 0.266500 0.576100
vt 0.342900 0.570400
vt 0.305000 0.441400
vt 0.050500 0.814900
vt 0.127800 0.830500
vt 0.119100 0.714400
vt 0.012100 0.701500
vt 0.187500 0.814200
vt 0.188000 0.703100
vt 0.248500 0.828300
vt 0.274700 0.710700
vt 0.318300 0.825300
vt 0.365400 0.699100
vt 0.107000 0.890800
vt 0.180300 0.935200
vt 0.191500 0.926000
vt 0.204200 0.931600
vt 0.268900 0.887500
vt 0.098100 0.336700
vt 0.177600 0.281800
vt 0.139400 0.304600
vt 0.235800 0.306500
vt 0.188600 0.282000
vt 0.273500 0.344100
vt 0.188900 0.271700
vt 0.177500 0.271500
vt 0.206900 0.988500
vt 0.064500 0.431000
vt 0.140700 0.442400
vt 0.123500 0.578700
vt 0.027500 0.566700
vt 0.244600 0.441400
vt 0.266500 0.576100
vt 0.186400 0.576200
vt 0.186000 0.448900
vt 0.305000 0.441400
vt 0.342900 0.570400
vt 0.012100 0.701500
vt 0.119100 0.714400
vt 0.127800 0.830500
vt 0.050500 0.814900
vt 0.188000 0.703100
vt 0.187500 0.814200
vt 0.274700 0.710700
vt 0.248500 0.828300
vt 0.365400 0.699100
vt 0.318300 0.825300
vt 0.107000 0.890800
vt 0.180300 0.935200
vt 0.191500 0.926000
vt 0.204200 0.931600
vt 0.268900 0.887500
vt 0.098100 0.336700
vt 0.139400 0.304600
vt 0.177600 0.281800
vt 0.188600 0.282000
vt 0.235800 0.306500
vt 0.273500 0.344100
vt 0.177500 0.271500
vt 0.188900 0.271700
vt 0.206900 0.988500
vt 0.027500 0.566700
vt 0.123500 0.578700
vt 0.140700 0.442400
vt 0.064500 0.431000
vt 0.244600 0.441400
vt 0.186000 0.448900
vt 0.186400 0.576200
vt 0.266500 0.576100
vt 0.342900 0.570400
vt 0.305000 0.441400
vt 0.050500 0.814900
vt 0.127800 0.830500
vt 0.119100 0.714400
vt 0.012100 0.701500
vt 0.187500 0.814200
vt 0.188000 0.703100
vt 0.248500 0.828300
vt 0.274700 0.710700
vt 0.318300 0.825300
vt 0.365400 0.699100
vt 0.107000 0.890800
vt 0.180300 0.935200
vt 0.191500 0.926000
vt 0.204200 0.931600
vt 0.268900 0.887500
vt 0.098100 0.336700
vt 0.177600 0.281800
vt 0.139400 0.304600
vt 0.235800 0.306500
vt 0.188600 0.282000
vt 0.273500 0.344100
vt 0.188900 0.271700
vt 0.177500 0.271500
vt 0.206900 0.988500
vt 0.064500 0.431000
vt 0.140700 0.442400
vt 0.123500 0.578700
vt 0.027500 0.566700
vt 0.244600 0.441400
vt 0.266500 0.576100
vt 0.186400 0.576200
vt 0.186000 0.448900
vt 0.305000 0.441400
vt 0.342900 0.570400
vt 0.012100 0.701500
vt 0.119100 0.714400
vt 0.127800 0.830500
vt 0.050500 0.814900
vt 0.188000 0.703100
vt 0.187500 0.814200
vt 0.274700 0.710700
vt 0.248500 0.828300
vt 0.365400 0.699100
vt 0.318300 0.825300
vt 0.107000 0.890800
vt 0.180300 0.935200
vt 0.191500 0.926000
vt 0.204200 0.931600
vt 0.268900 0.887500
vt 0.098100 0.336700
vt 0.139400 0.304600
vt 0.177600 0.281800
vt 0.188600 0.282000
vt 0.235800 0.306500
vt 0.273500 0.344100
vt 0.177500 0.271500
vt 0.188900 0.271700
vt 0.206900 0.988500
vt 0.027500 0.566700
vt 0.123500 0.578700
vt 0.140700 0.442400
vt 0.064500 0.431000
vt 0.244600 0.441400
vt 0.186000 0.448900
vt 0.186400 0.576200
vt 0.266500 0.576100
vt 0.342900 0.570400
vt 0.305000 0.441400
vt 0.050500 0.814900
vt 0.127800 0.830500
vt 0.119100 0.714400
vt 0.012100 0.701500
vt 0.187500 0.814200
vt 0.188000 0.703100
vt 0.248500 0.828300
vt 0.274700 0.710700
vt 0.318300 0.825300
vt 0.365400 0.699100
vt 0.107000 0.890800
vt 0.180300 0.935200
vt 0.191500 0.926000
vt 0.204200 0.931600
vt 0.268900 0.887500
vt 0.098100 0.336700
vt 0.177600 0.281800
vt 0.139400 0.304600
vt 0.235800 0.306500
vt 0.188600 0.282000
vt 0.273500 0.344100
vt 0.188900 0.271700
vt 0.177500 0.271500
vt 0.206900 0.988500
vt 0.064500 0.431000
vt 0.140700 0.442400
vt 0.123500 0.578700
vt 0.027500 0.566700
vt 0.244600 0.441400
vt 0.266500 0.576100
vt 0.186400 0.576200
vt 0.186000 0.448900
vt 0.305000 0.441400
vt 0.012100 0.701500
vt 0.119100 0.714400
vt 0.127800 0.830500
vt 0.050500 0.814900
vt 0.188000 0.703100
vt 0.187500 0.814200
vt 0.274700 0.710700
vt 0.248500 0.828300
vt 0.365400 0.699100
vt 0.318300 0.825300
vt 0.107000 0.890800
vt 0.180300 0.935200
vt 0.191500 0.926000
vt 0.204200 0.931600
vt 0.268900 0.887500
vt 0.098100 0.336700
vt 0.139400 0.304600
vt 0.177600 0.281800
vt 0.188600 0.282000
vt 0.235800 0.306500
vt 0.273500 0.344100
vt 0.177500 0.271500
vt 0.188900 0.271700
vt 0.342900 0.570400
vt 0.206900 0.988500
vt 0.027500 0.566700
vt 0.123500 0.578700
vt 0.140700 0.442400
vt 0.064500 0.431000
vt 0.244600 0.441400
vt 0.186000 0.448900
vt 0.186400 0.576200
vt 0.266500 0.576100
vt 0.305000 0.441400
vt 0.050500 0.814900
vt 0.127800 0.830500
vt 0.119100 0.714400
vt 0.012100 0.701500
vt 0.187500 0.814200
vt 0.188000 0.703100
vt 0.248500 0.828300
vt 0.274700 0.710700
vt 0.318300 0.825300
vt 0.365400 0.699100
vt 0.107000 0.890800
vt 0.180300 0.935200
vt 0.191500 0.926000
vt 0.204200 0.931600
vt 0.268900 0.887500
vt 0.098100 0.336700
vt 0.177600 0.281800
vt 0.139400 0.304600
vt 0.235800 0.306500
vt 0.188600 0.282000
vt 0.273500 0.344100
vt 0.188900 0.271700
vt 0.177500 0.271500
vt 0.342900 0.570400
vt 0.206900 0.988500
vt 0.064500 0.431000
vt 0.140700 0.442400
vt 0.123500 0.578700
vt 0.027500 0.566700
vt 0.244600 0.441400
vt 0.266500 0.576100
vt 0.186400 0.576200
vt 0.186000 0.448900
vt 0.305000 0.441400
vt 0.012100 0.701500
vt 0.119100 0.714400
vt 0.127800 0.830500
vt 0.050500 0.814900
vt 0.188000 0.703100
vt 0.187500 0.814200
vt 0.274700 0.710700
vt 0.248500 0.828300
vt 0.365400 0.699100
vt 0.318300 0.825300
vt 0.107000 0.890800
vt 0.180300 0.935200
vt 0.191500 0.926000
vt 0.204200 0.931600
vt 0.268900 0.887500
vt 0.098100 0.336700
vt 0.139400 0.304600
vt 0.177600 0.281800
vt 0.188600 0.282000
vt 0.235800 0.306500
vt 0.273500 0.344100
vt 0.177500 0.271500
vt 0.188900 0.271700
vt 0.342900 0.570400
vt 0.206900 0.988500
vt 0.027500 0.566700
vt 0.123500 0.578700
vt 0.140700 0.442400
vt 0.064500 0.431000
vt 0.244600 0.441400
vt 0.186000 0.448900
vt 0.186400 0.576200
vt 0.266500 0.576100
vt 0.305000 0.441400
vt 0.050500 0.814900
vt 0.127800 0.830500
vt 0.119100 0.714400
vt 0.012100 0.701500
vt 0.187500 0.814200
vt 0.188000 0.703100
vt 0.248500 0.828300
vt 0.274700 0.710700
vt 0.318300 0.825300
vt 0.365400 0.699100
vt 0.107000 0.890800
vt 0.180300 0.935200
vt 0.191500 0.926000
vt 0.204200 0.931600
vt 0.268900 0.887500
vt 0.098100 0.336700
vt 0.177600 0.281800
vt 0.139400 0.304600
vt 0.235800 0.306500
vt 0.188600 0.282000
vt 0.273500 0.344100
vt 0.188900 0.271700
vt 0.177500 0.271500
vt 0.342900 0.570400
vt 0.206900 0.988500
vn 0.0000 -0.9962 -0.0872
vn 0.0000 0.0158 -0.9999
vn 0.9974 -0.0711 -0.0062
vn -0.9974 -0.0711 -0.0062
vn -0.0000 -0.1581 0.9874
vn -0.3893 -0.4025 -0.8285
vn -0.2563 0.0798 -0.9633
vn 0.7930 0.2671 -0.5476
vn 0.9548 -0.1202 -0.2717
vn -0.9147 0.2215 0.3381
vn -0.7069 0.6978 -0.1157
vn 0.3417 0.8888 0.3053
vn 0.3108 0.4229 0.8512
vn 0.0044 0.2687 -0.9632
vn 0.9747 0.2214 0.0315
vn -0.9788 0.2023 0.0303
vn 0.0039 0.1559 0.9878
vn 0.0051 0.0146 -0.9999
vn 0.9992 0.0390 0.0117
vn -0.9998 -0.0145 0.0113
vn 0.0022 0.0092 1.0000
vn -0.0275 -0.1617 -0.9865
vn 0.9962 0.0839 0.0231
vn -0.9938 0.0112 0.1102
vn 0.0340 0.2018 0.9788
vn 0.3107 -0.9503 -0.0216
vn 0.6346 -0.1471 -0.7587
vn 0.8102 0.5811 0.0765
vn 0.4936 -0.2016 0.8460
vn -0.0362 0.0771 -0.9964
vn 0.6346 -0.1470 -0.7587
vn 0.3108 -0.9502 -0.0216
vn 0.2196 -0.9691 0.1124
vn -0.0948 0.9913 -0.0912
vn 0.4935 -0.2016 0.8460
vn 0.0221 0.2679 0.9632
vn 0.0116 -0.1248 -0.9921
vn -0.0404 -0.0006 -0.9992
vn 0.5746 -0.8183 0.0158
vn 0.5956 -0.8012 0.0584
vn -0.6260 0.7682 -0.1340
vn -0.5524 0.8335 -0.0147
vn 0.0113 0.0754 0.9971
vn -0.0405 0.1010 0.9941
vn -0.0541 -0.8773 -0.4768
vn -0.7143 -0.5458 0.4381
vn -0.9016 0.4215 -0.0975
vn -0.2783 0.1272 -0.9520
vn -0.5515 -0.4369 0.7106
vn 0.2539 -0.8110 -0.5271
vn -0.2785 0.8845 0.3742
vn -0.9016 0.4215 -0.0974
vn -0.2784 0.1272 -0.9520
vn 0.4131 0.5673 -0.7124
vn -0.6961 -0.5867 0.4138
vn -0.6364 -0.1655 0.7534
vn -0.1754 -0.8498 -0.4970
vn 0.0395 -0.6162 -0.7866
vn 0.1901 0.7085 0.6796
vn 0.1399 0.8889 0.4363
vn 0.6756 0.3465 -0.6508
vn 0.7169 0.3699 -0.5910
vn -0.3613 -0.8866 0.2890
vn 0.7677 -0.5886 0.2534
vn 0.4967 0.3798 0.7804
vn -0.5717 0.0901 0.8155
vn 0.9275 -0.3710 -0.0470
vn -0.3612 -0.8866 0.2890
vn -0.5775 -0.8002 0.1621
vn 0.4610 0.8859 -0.0513
vn -0.5716 0.0901 0.8156
vn -0.7817 0.6132 0.1140
vn 0.7578 -0.5664 0.3237
vn 0.9807 -0.1933 0.0309
vn -0.2827 -0.8038 0.5234
vn -0.6158 -0.6070 0.5023
vn 0.4297 0.6787 -0.5956
vn 0.2299 0.8344 -0.5010
vn -0.9428 0.3214 -0.0886
vn -0.9184 0.3453 -0.1932
vn -0.7069 0.6978 -0.1156
vn 0.3418 0.8888 0.3053
vn 0.7930 0.2671 -0.5475
vn 0.5112 0.8454 -0.1548
vn 0.4414 0.8758 -0.1955
vn 0.6644 0.5798 -0.4717
vn 0.6560 0.6127 -0.4408
vn 0.0931 0.8556 -0.5091
vn 0.3768 0.5789 -0.7231
vn 0.5127 0.5828 -0.6305
vn 0.2478 0.8861 -0.3918
vn 0.1483 0.8360 -0.5283
vn 0.8469 -0.1568 -0.5081
vn 0.8032 0.0533 -0.5933
vn 0.8155 -0.2089 -0.5398
vn 0.6454 0.0715 -0.7605
vn 0.6253 -0.2406 -0.7424
vn 0.4989 0.0569 -0.8648
vn 0.4448 -0.2619 -0.8565
vn 0.5146 0.1794 -0.8385
vn 0.4451 -0.2088 -0.8708
vn 0.8523 -0.1810 -0.4908
vn 0.7958 -0.1597 -0.5841
vn 0.6731 -0.2311 -0.7025
vn 0.4868 -0.2402 -0.8398
vn 0.4659 -0.3222 -0.8241
vn 0.4287 0.9034 0.0035
vn 0.3491 0.9348 -0.0649
vn 0.0356 0.9993 0.0092
vn -0.0538 0.9939 -0.0961
vn -0.0660 0.9049 -0.4205
vn -0.0908 0.8814 -0.4636
vn -0.2805 0.9096 0.3065
vn -0.2807 0.9096 0.3064
vn 0.7969 0.1887 -0.5739
vn 0.4154 0.6081 -0.6765
vn 0.6565 -0.1288 -0.7433
vn -0.6584 -0.6142 0.4350
vn -0.6622 -0.5819 0.4720
vn -0.4412 -0.8748 0.2002
vn -0.5197 -0.8399 0.1565
vn -0.0932 -0.8554 0.5095
vn -0.2480 -0.8859 0.3920
vn -0.5127 -0.5824 0.6308
vn -0.4006 -0.5663 0.7203
vn -0.1483 -0.8356 0.5290
vn -0.8469 0.1576 0.5079
vn -0.8033 -0.0522 0.5933
vn -0.7972 -0.1876 0.5739
vn -0.8154 0.2092 0.5397
vn -0.6253 0.2413 0.7422
vn -0.6454 -0.0705 0.7606
vn -0.4572 0.2491 0.8538
vn -0.5318 -0.0403 0.8459
vn -0.3946 0.1321 0.9093
vn -0.4583 -0.1832 0.8697
vn -0.8524 0.1807 0.4906
vn -0.7957 0.1597 0.5843
vn -0.6731 0.2311 0.7025
vn -0.4871 0.2402 0.8397
vn -0.4661 0.3224 0.8239
vn -0.4291 -0.9032 -0.0031
vn -0.0359 -0.9993 -0.0089
vn -0.3494 -0.9347 0.0654
vn 0.0655 -0.9048 0.4208
vn 0.0535 -0.9939 0.0964
vn 0.0903 -0.8812 0.4641
vn 0.2804 -0.9096 -0.3066
vn 0.2803 -0.9096 -0.3067
vn -0.4105 -0.5699 0.7118
vn -0.6565 0.1288 0.7433
vn -0.3359 0.9280 -0.1613
vn -0.2908 0.9506 -0.1087
vn -0.3874 0.9207 -0.0474
vn -0.4344 0.8978 -0.0723
vn -0.1086 0.9766 0.1855
vn -0.2482 0.9459 0.2088
vn -0.2781 0.9550 0.1035
vn -0.1647 0.9842 0.0656
vn -0.2611 0.9383 0.2267
vn -0.7771 0.6055 0.1716
vn -0.6380 0.7611 0.1169
vn -0.8333 0.5254 0.1720
vn -0.5639 0.7981 0.2122
vn -0.7958 0.5299 0.2930
vn -0.5675 0.7584 0.3206
vn -0.7816 0.4683 0.4121
vn -0.5333 0.7880 0.3076
vn -0.7553 0.5156 0.4046
vn -0.8747 0.4629 0.1432
vn -0.9006 0.4241 0.0952
vn -0.8838 0.4055 0.2334
vn -0.8338 0.3713 0.4085
vn -0.8449 0.3465 0.4075
vn -0.3374 0.9181 -0.2081
vn -0.2806 0.9505 -0.1333
vn -0.0313 0.9917 -0.1251
vn 0.0044 0.9994 -0.0351
vn -0.0671 0.9735 0.2186
vn -0.0588 0.9631 0.2628
vn -0.1306 0.9720 0.1955
vn 0.2665 0.9268 -0.2644
vn 0.2666 0.9269 -0.2643
vn -0.6073 0.7859 0.1160
vn -0.8843 0.4033 0.2353
vn 0.4612 -0.8839 0.0783
vn 0.3906 -0.9200 0.0336
vn 0.2906 -0.9507 0.1084
vn 0.3367 -0.9277 0.1614
vn 0.1081 -0.9767 -0.1853
vn 0.1643 -0.9842 -0.0655
vn 0.2775 -0.9552 -0.1033
vn 0.2477 -0.9461 -0.2086
vn 0.2607 -0.9385 -0.2265
vn 0.1302 -0.9721 -0.1952
vn 0.7774 -0.6051 -0.1718
vn 0.6285 -0.7685 -0.1202
vn 0.6034 -0.7921 -0.0919
vn 0.8335 -0.5250 -0.1719
vn 0.7961 -0.5295 -0.2931
vn 0.5639 -0.7982 -0.2122
vn 0.7819 -0.4710 -0.4084
vn 0.5728 -0.7552 -0.3187
vn 0.7437 -0.5275 -0.4107
vn 0.5345 -0.7850 -0.3133
vn 0.8749 -0.4626 -0.1432
vn 0.9007 -0.4240 -0.0949
vn 0.8839 -0.4053 -0.2332
vn 0.8339 -0.3712 -0.4085
vn 0.8450 -0.3463 -0.4075
vn 0.3372 -0.9181 0.2081
vn 0.0312 -0.9916 0.1252
vn 0.2804 -0.9506 0.1333
vn 0.0670 -0.9736 -0.2184
vn -0.0045 -0.9994 0.0352
vn 0.0587 -0.9631 -0.2626
vn -0.2666 -0.9269 0.2643
vn -0.2665 -0.9269 0.2644
vn 0.8843 -0.4034 -0.2351
vn -0.4717 0.8760 -0.1007
vn -0.4391 0.8975 -0.0411
vn -0.5849 0.8059 0.0916
vn -0.6411 0.7640 0.0726
vn -0.3082 0.9081 0.2835
vn -0.4026 0.8555 0.3257
vn -0.4734 0.8485 0.2364
vn -0.3519 0.9223 0.1599
vn -0.3207 0.9048 0.2801
vn -0.3935 0.8663 0.3077
vn -0.7786 0.5397 0.3201
vn -0.7615 0.5638 0.3196
vn -0.7754 0.4707 0.4211
vn -0.7969 0.4190 0.4352
vn -0.6434 0.6467 0.4096
vn -0.6932 0.5013 0.5179
vn -0.5563 0.6666 0.4962
vn -0.6187 0.5014 0.6048
vn -0.5361 0.7152 0.4484
vn -0.6302 0.5204 0.5762
vn -0.7627 0.4969 0.4140
vn -0.7827 0.5013 0.3689
vn -0.7275 0.4905 0.4798
vn -0.6235 0.4676 0.6265
vn -0.6732 0.4417 0.5931
vn -0.4487 0.8797 -0.1578
vn -0.4149 0.9073 -0.0684
vn -0.1863 0.9825 -0.0053
vn -0.1713 0.9811 0.0897
vn -0.2827 0.9047 0.3187
vn -0.2788 0.8889 0.3634
vn 0.1362 0.9869 -0.0860
vn 0.1362 0.9869 -0.0858
vn -0.7166 0.4957 0.4908
vn 0.6729 -0.7377 -0.0552
vn 0.5833 -0.8048 -0.1096
vn 0.4405 -0.8970 0.0362
vn 0.4831 -0.8694 0.1034
vn 0.3076 -0.9083 -0.2836
vn 0.3515 -0.9224 -0.1599
vn 0.4731 -0.8487 -0.2365
vn 0.4163 -0.8502 -0.3222
vn 0.4001 -0.8555 -0.3286
vn 0.3199 -0.9054 -0.2792
vn 0.8017 -0.4457 -0.3982
vn 0.7696 -0.4777 -0.4238
vn 0.7498 -0.5713 -0.3338
vn 0.7914 -0.5435 -0.2798
vn 0.6932 -0.5012 -0.5180
vn 0.6434 -0.6466 -0.4098
vn 0.6208 -0.5056 -0.5991
vn 0.5684 -0.6628 -0.4875
vn 0.6048 -0.5466 -0.5791
vn 0.5124 -0.7213 -0.4660
vn 0.7627 -0.4970 -0.4139
vn 0.7826 -0.5013 -0.3689
vn 0.7275 -0.4905 -0.4798
vn 0.6236 -0.4676 -0.6264
vn 0.6731 -0.4417 -0.5931
vn 0.4485 -0.8798 0.1577
vn 0.1861 -0.9825 0.0053
vn 0.4147 -0.9074 0.0683
vn 0.2826 -0.9048 -0.3186
vn 0.1712 -0.9811 -0.0897
vn 0.2787 -0.8891 -0.3631
vn -0.1363 -0.9869 0.0859
vn -0.1362 -0.9869 0.0860
vn 0.7165 -0.4957 -0.4907
vn 0.1932 0.8661 0.4610
vn 0.2125 0.8926 0.3977
vn 0.4147 0.8134 0.4079
vn 0.4422 0.7702 0.4595
vn 0.3573 0.9305 0.0811
vn 0.4560 0.8821 0.1180
vn 0.4403 0.8678 0.2302
vn 0.2967 0.9342 0.1982
vn 0.3636 0.9270 0.0923
vn 0.4360 0.8913 0.1243
vn 0.7306 0.5687 0.3778
vn 0.7170 0.5926 0.3671
vn 0.8061 0.5086 0.3026
vn 0.8345 0.4584 0.3057
vn 0.6957 0.6824 0.2242
vn 0.8179 0.5471 0.1783
vn 0.6974 0.7093 0.1028
vn 0.8298 0.5543 0.0647
vn 0.6457 0.7535 0.1235
vn 0.8157 0.5709 0.0936
vn 0.7906 0.5341 0.2996
vn 0.7713 0.5347 0.3453
vn 0.8145 0.5332 0.2287
vn 0.8511 0.5225 0.0515
vn 0.8626 0.4940 0.1089
vn 0.1357 0.8648 0.4834
vn 0.1755 0.8999 0.3993
vn 0.0595 0.9792 0.1940
vn 0.1181 0.9860 0.1181
vn 0.3655 0.9300 0.0382
vn 0.3962 0.9181 0.0040
vn -0.2206 0.9753 0.0148
vn -0.2205 0.9753 0.0147
vn 0.8146 0.5392 0.2135
vn -0.4531 -0.7427 -0.4930
vn -0.4267 -0.8138 -0.3944
vn -0.2171 -0.8925 -0.3954
vn -0.1994 -0.8594 -0.4707
vn -0.3569 -0.9307 -0.0806
vn -0.2964 -0.9343 -0.1979
vn -0.4401 -0.8680 -0.2299
vn -0.4632 -0.8767 -0.1301
vn -0.4564 -0.8824 -0.1143
vn -0.3623 -0.9275 -0.0924
vn -0.8092 -0.4819 -0.3360
vn -0.8036 -0.5158 -0.2969
vn -0.7188 -0.6012 -0.3492
vn -0.7099 -0.5691 -0.4149
vn -0.8180 -0.5469 -0.1782
vn -0.6959 -0.6823 -0.2240
vn -0.8268 -0.5580 -0.0703
vn -0.6996 -0.7048 -0.1173
vn -0.7987 -0.5971 -0.0747
vn -0.6419 -0.7610 -0.0945
vn -0.7905 -0.5341 -0.2997
vn -0.7713 -0.5347 -0.3452
vn -0.8145 -0.5332 -0.2288
vn -0.8510 -0.5226 -0.0517
vn -0.8626 -0.4941 -0.1089
vn -0.1356 -0.8649 -0.4832
vn -0.0594 -0.9792 -0.1939
vn -0.1754 -0.9000 -0.3991
vn -0.3653 -0.9301 -0.0383
vn -0.1180 -0.9860 -0.1181
vn -0.3960 -0.9182 -0.0042
vn 0.2204 -0.9753 -0.0146
vn 0.2205 -0.9753 -0.0147
vn -0.8146 -0.5393 -0.2136
vn -0.1902 0.6544 0.7319
vn -0.1199 0.6603 0.7413
vn -0.1055 0.4845 0.8684
vn -0.1588 0.4379 0.8849
vn 0.2199 0.5853 0.7804
vn 0.1944 0.4942 0.8473
vn 0.0814 0.5005 0.8619
vn 0.0970 0.6317 0.7692
vn 0.2098 0.5799 0.7872
vn 0.1864 0.5133 0.8377
vn -0.0680 0.1052 0.9921
vn -0.0550 0.1317 0.9898
vn 0.0051 0.0074 1.0000
vn -0.0039 -0.0497 0.9988
vn 0.0972 0.2057 0.9738
vn 0.1346 0.0223 0.9907
vn 0.2191 0.2167 0.9513
vn 0.2465 0.0120 0.9691
vn 0.1990 0.2837 0.9380
vn 0.2200 0.0360 0.9748
vn 0.0106 0.0369 0.9993
vn -0.0364 0.0517 0.9980
vn 0.0827 0.0169 0.9964
vn 0.2557 -0.0272 0.9664
vn 0.1972 -0.0523 0.9790
vn -0.2240 0.6867 0.6916
vn -0.1275 0.6868 0.7156
vn 0.0613 0.7988 0.5985
vn 0.1473 0.7658 0.6260
vn 0.2623 0.5768 0.7737
vn 0.2984 0.5471 0.7821
vn 0.1707 0.9336 0.3150
vn 0.1708 0.9336 0.3150
vn 0.0986 0.0206 0.9949
vn 0.1948 -0.4119 -0.8902
vn 0.0900 -0.4771 -0.8742
vn 0.1167 -0.6575 -0.7443
vn 0.1998 -0.6462 -0.7366
vn -0.2204 -0.5857 -0.7800
vn -0.0972 -0.6319 -0.7689
vn -0.0817 -0.5007 -0.8617
vn -0.1832 -0.4867 -0.8541
vn -0.1981 -0.4939 -0.8467
vn -0.2096 -0.5810 -0.7864
vn 0.0323 0.0137 -0.9994
vn -0.0117 -0.0142 -0.9998
vn 0.0357 -0.1362 -0.9900
vn 0.1074 -0.1200 -0.9869
vn -0.1346 -0.0221 -0.9907
vn -0.0974 -0.2055 -0.9738
vn -0.2413 -0.0172 -0.9703
vn -0.2047 -0.2130 -0.9554
vn -0.2405 -0.0655 -0.9684
vn -0.2274 -0.2895 -0.9298
vn -0.0106 -0.0369 -0.9993
vn 0.0365 -0.0517 -0.9980
vn -0.0827 -0.0169 -0.9964
vn -0.2557 0.0272 -0.9664
vn -0.1972 0.0523 -0.9790
vn 0.2239 -0.6868 -0.6915
vn -0.0614 -0.7988 -0.5984
vn 0.1273 -0.6869 -0.7155
vn -0.2622 -0.5770 -0.7736
vn -0.1473 -0.7658 -0.6259
vn -0.2983 -0.5473 -0.7820
vn -0.1706 -0.9337 -0.3149
vn -0.0985 -0.0205 -0.9949
vn -0.1858 0.8422 0.5061
vn -0.1528 0.8781 0.4535
vn 0.0439 0.7883 0.6138
vn 0.0074 0.7512 0.6601
vn 0.1723 0.9557 0.2389
vn 0.2798 0.8443 0.4571
vn 0.1822 0.8417 0.5083
vn 0.0442 0.9427 0.3307
vn 0.1866 0.9442 0.2714
vn 0.2867 0.8460 0.4496
vn 0.2059 0.4776 0.8541
vn 0.2570 0.4341 0.8634
vn 0.3591 0.1727 0.9172
vn 0.3434 0.1505 0.9270
vn 0.3636 0.5216 0.7718
vn 0.4756 0.1873 0.8595
vn 0.4769 0.4998 0.7230
vn 0.5687 0.1756 0.8036
vn 0.4422 0.5672 0.6947
vn 0.5425 0.1932 0.8175
vn 0.3560 0.1927 0.9144
vn 0.3098 0.2027 0.9289
vn 0.4246 0.1795 0.8874
vn 0.5805 0.1479 0.8007
vn 0.5343 0.1196 0.8368
vn -0.3444 0.8424 0.4144
vn -0.2675 0.8962 0.3540
vn -0.2288 0.9651 0.1277
vn -0.1391 0.9856 0.0959
vn 0.1178 0.9829 0.1419
vn 0.1862 0.9772 0.1016
vn -0.3188 0.9361 -0.1485
vn -0.3192 0.9360 -0.1485
vn 0.4382 0.1844 0.8798
vn 0.0115 -0.7448 -0.6671
vn -0.0520 -0.7932 -0.6067
vn 0.1428 -0.8783 -0.4563
vn 0.1880 -0.8283 -0.5278
vn -0.1718 -0.9557 -0.2388
vn -0.0438 -0.9429 -0.3302
vn -0.1819 -0.8422 -0.5076
vn -0.2768 -0.8422 -0.4628
vn -0.3005 -0.8392 -0.4533
vn -0.1874 -0.9440 -0.2716
vn -0.3351 -0.1591 -0.9286
vn -0.3605 -0.1744 -0.9163
vn -0.2626 -0.4363 -0.8606
vn -0.1912 -0.4806 -0.8558
vn -0.4757 -0.1869 -0.8595
vn -0.3638 -0.5216 -0.7718
vn -0.5639 -0.1802 -0.8060
vn -0.4686 -0.4959 -0.7311
vn -0.5549 -0.2203 -0.8022
vn -0.4591 -0.5683 -0.6828
vn -0.3560 -0.1927 -0.9144
vn -0.3098 -0.2027 -0.9289
vn -0.4246 -0.1795 -0.8874
vn -0.5805 -0.1479 -0.8007
vn -0.5343 -0.1196 -0.8368
vn 0.3445 -0.8426 -0.4140
vn 0.2290 -0.9650 -0.1275
vn 0.2677 -0.8963 -0.3536
vn -0.1177 -0.9829 -0.1415
vn 0.1394 -0.9856 -0.0957
vn -0.1863 -0.9773 -0.1013
vn 0.3193 -0.9359 0.1486
vn 0.3189 -0.9360 0.1487
vn -0.4382 -0.1844 -0.8798
vn 0.5211 0.8422 -0.1381
vn 0.4591 0.8781 -0.1350
vn 0.4776 0.7883 -0.3880
vn 0.5364 0.7512 -0.3847
vn 0.0969 0.9557 -0.2781
vn 0.2139 0.8443 -0.4914
vn 0.3119 0.8417 -0.4408
vn 0.2456 0.9427 -0.2259
vn 0.1153 0.9442 -0.3085
vn 0.2038 0.8460 -0.4927
vn 0.5816 0.4776 -0.6586
vn 0.5599 0.4341 -0.7058
vn 0.5453 0.1727 -0.8203
vn 0.5624 0.1505 -0.8130
vn 0.4237 0.5217 -0.7405
vn 0.4313 0.1873 -0.8826
vn 0.3187 0.4998 -0.8053
vn 0.3321 0.1756 -0.9268
vn 0.3155 0.5672 -0.7607
vn 0.3585 0.1932 -0.9133
vn 0.5449 0.1928 -0.8161
vn 0.5833 0.2027 -0.7866
vn 0.4834 0.1795 -0.8568
vn 0.3230 0.1479 -0.9348
vn 0.3790 0.1196 -0.9176
vn 0.5370 0.8424 0.0445
vn 0.4434 0.8962 0.0161
vn 0.2358 0.9651 0.1142
vn 0.1584 0.9856 0.0589
vn 0.0486 0.9829 -0.1779
vn -0.0236 0.9772 -0.2108
vn 0.0612 0.9361 0.3464
vn 0.0615 0.9360 0.3466
vn 0.4694 0.1844 -0.8635
vn -0.5531 -0.7448 0.3733
vn -0.4672 -0.7932 0.3906
vn -0.4557 -0.8783 0.1447
vn -0.5402 -0.8283 0.1488
vn -0.0970 -0.9557 0.2777
vn -0.2454 -0.9429 0.2252
vn -0.3115 -0.8422 0.4402
vn -0.2203 -0.8422 0.4921
vn -0.1989 -0.8392 0.5062
vn -0.1150 -0.9440 0.3093
vn -0.5685 -0.1591 0.8072
vn -0.5438 -0.1744 0.8209
vn -0.5544 -0.4363 0.7087
vn -0.5914 -0.4806 0.6475
vn -0.4313 -0.1869 0.8827
vn -0.4235 -0.5216 0.7406
vn -0.3368 -0.1802 0.9242
vn -0.3301 -0.4959 0.8032
vn -0.3388 -0.2203 0.9147
vn -0.2960 -0.5683 0.7677
vn -0.5449 -0.1928 0.8161
vn -0.5832 -0.2027 0.7866
vn -0.4834 -0.1795 0.8568
vn -0.3230 -0.1479 0.9348
vn -0.3790 -0.1196 0.9176
vn -0.5367 -0.8426 -0.0448
vn -0.2358 -0.9650 -0.1146
vn -0.4432 -0.8963 -0.0165
vn -0.0484 -0.9829 0.1776
vn -0.1584 -0.9856 -0.0593
vn 0.0238 -0.9773 0.2107
vn -0.0614 -0.9360 -0.3467
vn -0.0611 -0.9361 -0.3465
vn -0.4694 -0.1844 0.8635
vn -0.4994 0.8597 -0.1075
vn -0.4415 0.8910 -0.1062
vn -0.4479 0.8938 -0.0233
vn -0.4870 0.8732 -0.0161
vn -0.0813 0.9966 0.0135
vn -0.1432 0.9867 0.0772
vn -0.2658 0.9637 0.0254
vn -0.2324 0.9716 -0.0444
vn -0.1011 0.9943 0.0345
vn -0.4522 0.8887 0.0759
vn -0.4332 0.8988 0.0669
vn -0.4146 0.9042 0.1026
vn -0.4370 0.8917 0.1179
vn -0.2832 0.9543 0.0953
vn -0.2866 0.9473 0.1433
vn -0.1752 0.9751 0.1362
vn -0.1978 0.9615 0.1909
vn -0.1775 0.9755 0.1300
vn -0.2105 0.9594 0.1875
vn -0.4123 0.9067 0.0885
vn -0.4512 0.8902 0.0630
vn -0.3502 0.9284 0.1243
vn -0.1905 0.9604 0.2035
vn -0.2521 0.9434 0.2156
vn -0.5178 0.8360 -0.1815
vn -0.4339 0.8856 -0.1654
vn -0.2253 0.9174 -0.3280
vn -0.1356 0.9499 -0.2815
vn -0.0230 0.9993 -0.0296
vn 0.0179 0.9998 0.0003
vn -0.0582 0.7893 -0.6113
vn -0.0581 0.7893 -0.6112
vn -0.1496 0.9850 0.0864
vn -0.3349 0.9340 0.1243
vn 0.5039 -0.8638 0.0078
vn 0.4411 -0.8973 0.0155
vn 0.4401 -0.8920 0.1035
vn 0.5043 -0.8574 0.1025
vn 0.0813 -0.9966 -0.0135
vn 0.2324 -0.9716 0.0444
vn 0.2658 -0.9637 -0.0254
vn 0.1416 -0.9870 -0.0764
vn 0.1011 -0.9943 -0.0345
vn 0.4438 -0.8904 -0.1014
vn 0.4122 -0.9055 -0.1009
vn 0.4251 -0.9027 -0.0662
vn 0.4669 -0.8823 -0.0595
vn 0.2866 -0.9473 -0.1432
vn 0.2832 -0.9543 -0.0953
vn 0.1970 -0.9614 -0.1920
vn 0.1730 -0.9754 -0.1363
vn 0.2146 -0.9578 -0.1913
vn 0.1817 -0.9747 -0.1299
vn 0.4123 -0.9067 -0.0886
vn 0.4513 -0.8901 -0.0629
vn 0.3502 -0.9284 -0.1243
vn 0.1903 -0.9604 -0.2036
vn 0.2521 -0.9434 -0.2156
vn 0.5178 -0.8360 0.1815
vn 0.2252 -0.9174 0.3280
vn 0.4339 -0.8857 0.1654
vn 0.0229 -0.9993 0.0297
vn 0.1355 -0.9500 0.2815
vn -0.0178 -0.9998 -0.0003
vn 0.0583 -0.7892 0.6113
vn 0.0584 -0.7892 0.6113
vn 0.1509 -0.9851 -0.0825
vn 0.3348 -0.9341 -0.1243
vn 0.2996 0.8246 -0.4800
vn 0.2422 0.8524 -0.4635
vn 0.2096 0.8199 -0.5328
vn 0.2445 0.7982 -0.5505
vn -0.1463 0.8975 -0.4160
vn -0.1194 0.8616 -0.4933
vn 0.0151 0.8627 -0.5055
vn 0.0161 0.8993 -0.4370
vn -0.1382 0.8865 -0.4415
vn 0.1694 0.7733 -0.6109
vn 0.1549 0.7863 -0.5981
vn 0.1215 0.7761 -0.6187
vn 0.1366 0.7584 -0.6374
vn 0.0004 0.8246 -0.5657
vn -0.0169 0.7980 -0.6024
vn -0.1160 0.8262 -0.5514
vn -0.1184 0.7907 -0.6006
vn -0.1114 0.8291 -0.5478
vn -0.1055 0.7903 -0.6036
vn 0.1254 0.7844 -0.6075
vn 0.1742 0.7801 -0.6009
vn 0.0508 0.7889 -0.6124
vn -0.1302 0.7844 -0.6065
vn -0.0788 0.7639 -0.6405
vn 0.3540 0.8344 -0.4224
vn 0.2636 0.8725 -0.4113
vn 0.1499 0.9701 -0.1910
vn 0.0443 0.9799 -0.1946
vn -0.1779 0.9182 -0.3540
vn -0.2270 0.9060 -0.3573
vn 0.1609 0.9736 0.1618
vn 0.1608 0.9736 0.1618
vn -0.1177 0.8562 -0.5031
vn 0.0364 0.7940 -0.6068
vn -0.2574 -0.7861 0.5620
vn -0.1994 -0.8198 0.5368
vn -0.2395 -0.8522 0.4652
vn -0.3020 -0.8204 0.4855
vn 0.1463 -0.8975 0.4160
vn -0.0161 -0.8993 0.4369
vn -0.0151 -0.8627 0.5055
vn 0.1205 -0.8622 0.4920
vn 0.1382 -0.8865 0.4416
vn -0.1503 -0.7641 0.6274
vn -0.1199 -0.7780 0.6167
vn -0.1474 -0.7902 0.5949
vn -0.1909 -0.7745 0.6031
vn 0.0169 -0.7980 0.6024
vn -0.0004 -0.8246 0.5657
vn 0.1195 -0.7902 0.6011
vn 0.1180 -0.8265 0.5505
vn 0.1032 -0.7872 0.6080
vn 0.1074 -0.8285 0.5496
vn -0.1254 -0.7844 0.6075
vn -0.1742 -0.7801 0.6009
vn -0.0507 -0.7889 0.6124
vn 0.1304 -0.7844 0.6065
vn 0.0787 -0.7638 0.6406
vn -0.3540 -0.8344 0.4224
vn -0.1499 -0.9701 0.1909
vn -0.2636 -0.8726 0.4113
vn 0.1779 -0.9182 0.3539
vn -0.0442 -0.9799 0.1945
vn 0.2269 -0.9060 0.3573
vn -0.1606 -0.9737 -0.1618
vn -0.1607 -0.9737 -0.1618
vn 0.1148 -0.8580 0.5007
vn -0.0363 -0.7940 0.6068
s 1
f 1/1/1 2/2/2 3/3/3
f 1/1/1 4/4/4 2/2/2
f 1/1/1 5/5/5 4/6/4
f 1/1/1 3/3/3 5/5/5
f 6/7/6 7/8/7 8/9/8
f 8/9/8 9/10/9 6/7/6
f 10/11/10 11/12/11 7/8/7
f 7/8/7 6/7/6 10/11/10
f 12/13/12 11/14/11 10/15/10
f 10/15/10 13/16/13 12/13/12
f 8/9/8 12/13/12 13/16/13
f 13/16/13 9/10/9 8/9/8
f 14/17/14 15/18/15 3/3/3
f 3/3/3 2/2/2 14/17/14
f 16/19/16 14/17/14 2/2/2
f 2/2/2 4/4/4 16/19/16
f 5/5/5 17/20/17 16/21/16
f 16/21/16 4/6/4 5/5/5
f 3/3/3 15/18/15 17/20/17
f 17/20/17 5/5/5 3/3/3
f 14/17/14 18/22/18 19/23/19
f 19/23/19 15/18/15 14/17/14
f 20/24/20 18/22/18 14/17/14
f 14/17/14 16/19/16 20/24/20
f 21/25/21 20/26/20 16/21/16
f 16/21/16 17/20/17 21/25/21
f 19/23/19 21/25/21 17/20/17
f 17/20/17 15/18/15 19/23/19
f 22/27/22 23/28/23 19/23/19
f 19/23/19 18/22/18 22/27/22
f 24/29/24 22/27/22 18/22/18
f 18/22/18 20/24/20 24/29/24
f 25/30/25 24/31/24 20/26/20
f 20/26/20 21/25/21 25/30/25
f 19/23/19 23/28/23 25/30/25
f 25/30/25 21/25/21 19/23/19
f 6/7/6 9/10/9 23/28/23
f 23/28/23 22/27/22 6/7/6
f 24/29/24 10/11/10 6/7/6
f 6/7/6 22/27/22 24/29/24
f 13/16/13 10/15/10 24/31/24
f 24/31/24 25/30/25 13/16/13
f 9/10/9 13/16/13 25/30/25
f 25/30/25 23/28/23 9/10/9
s 2
f 26/32/26 27/33/27 28/34/28
f 28/34/28 29/35/29 26/32/26
s 3
f 30/36/30 27/37/31 26/32/32
f 26/32/32 31/38/33 30/36/30
f 32/39/34 28/40/28 27/37/31
f 27/37/31 30/36/30 32/39/34
f 29/35/35 28/41/28 32/42/34
f 32/42/34 33/43/36 29/35/35
f 26/32/32 29/35/35 33/43/36
f 33/43/36 31/38/33 26/32/32
f 34/44/37 35/45/38 36/46/39
f 36/46/39 37/47/40 34/44/37
f 38/48/41 39/49/42 35/45/38
f 35/45/38 34/44/37 38/48/41
f 40/50/43 39/51/42 38/52/41
f 38/52/41 41/53/44 40/50/43
f 37/47/40 36/46/39 40/50/43
f 40/50/43 41/53/44 37/47/40
f 30/36/30 31/38/33 36/46/39
f 36/46/39 35/45/38 30/36/30
f 39/49/42 32/39/34 30/36/30
f 30/36/30 35/45/38 39/49/42
f 33/43/36 32/42/34 39/51/42
f 39/51/42 40/50/43 33/43/36
f 31/38/33 33/43/36 40/50/43
f 40/50/43 36/46/39 31/38/33
s 4
f 42/54/45 43/55/46 44/56/47
f 44/56/47 45/57/48 42/54/45
s 5
f 46/58/49 43/59/46 42/54/45
f 42/54/45 47/60/50 46/58/49
f 48/61/51 44/62/52 43/59/46
f 43/59/46 46/58/49 48/61/51
f 45/57/53 44/63/52 48/64/51
f 48/64/51 49/65/54 45/57/53
f 42/54/45 45/57/53 49/65/54
f 49/65/54 47/60/50 42/54/45
f 50/66/55 51/67/56 52/68/57
f 52/68/57 53/69/58 50/66/55
f 54/70/59 55/71/60 51/67/56
f 51/67/56 50/66/55 54/70/59
f 56/72/61 55/73/60 54/74/59
f 54/74/59 57/75/62 56/72/61
f 53/69/58 52/68/57 56/72/61
f 56/72/61 57/75/62 53/69/58
f 46/58/49 47/60/50 52/68/57
f 52/68/57 51/67/56 46/58/49
f 55/71/60 48/61/51 46/58/49
f 46/58/49 51/67/56 55/71/60
f 49/65/54 48/64/51 55/73/60
f 55/73/60 56/72/61 49/65/54
f 47/60/50 49/65/54 56/72/61
f 56/72/61 52/68/57 47/60/50
s 6
f 58/76/63 59/77/64 60/78/65
f 60/78/65 61/79/66 58/76/63
s 7
f 62/80/67 59/81/64 58/76/68
f 58/76/68 63/82/69 62/80/67
f 64/83/70 60/84/65 59/81/64
f 59/81/64 62/80/67 64/83/70
f 61/79/71 60/85/65 64/86/70
f 64/86/70 65/87/72 61/79/71
f 58/76/68 61/79/71 65/87/72
f 65/87/72 63/82/69 58/76/68
f 66/88/73 67/89/74 68/90/75
f 68/90/75 69/91/76 66/88/73
f 70/92/77 71/93/78 67/89/74
f 67/89/74 66/88/73 70/92/77
f 72/94/79 71/95/78 70/96/77
f 70/96/77 73/97/80 72/94/79
f 69/91/76 68/90/75 72/94/79
f 72/94/79 73/97/80 69/91/76
f 62/80/67 63/82/69 68/90/75
f 68/90/75 67/89/74 62/80/67
f 71/93/78 64/83/70 62/80/67
f 62/80/67 67/89/74 71/93/78
f 65/87/72 64/86/70 71/95/78
f 71/95/78 72/94/79 65/87/72
f 63/82/69 65/87/72 72/94/79
f 72/94/79 68/90/75 63/82/69
s off
f 7/8/7 11/12/81 12/98/82
f 12/98/12 8/99/83 7/8/7
s 10
f 74/100/84 75/101/85 76/102/86
f 76/102/86 77/103/87 74/100/84
f 78/104/88 79/105/89 80/106/90
f 80/106/90 81/107/91 78/104/88
f 78/104/88 82/108/92 79/105/89
f 83/109/93 84/110/94 85/111/95
f 84/110/94 86/112/96 87/113/97
f 87/113/97 85/111/95 84/110/94
f 87/113/97 86/112/96 88/114/98
f 88/114/98 89/115/99 87/113/97
f 88/114/98 90/116/100 91/117/101
f 91/117/101 89/115/99 88/114/98
f 83/109/93 85/111/95 92/118/102
f 93/119/103 85/111/95 87/113/97
f 87/113/97 94/120/104 93/119/103
f 87/113/97 89/115/99 95/121/105
f 95/121/105 94/120/104 87/113/97
f 95/121/105 89/115/99 96/122/106
f 74/100/84 97/123/107 75/101/85
f 98/124/108 99/125/109 81/107/91
f 81/107/91 75/101/85 98/124/108
f 81/107/91 100/126/110 101/127/111
f 101/127/111 78/104/88 81/107/91
f 78/104/88 102/128/112 82/108/92
f 78/104/88 101/127/111 102/128/112
f 97/123/107 98/124/108 75/101/85
f 81/107/91 99/125/109 100/126/110
f 100/126/110 99/125/109 103/129/113
f 103/129/113 104/130/114 100/126/110
f 76/102/86 105/131/115 77/103/87
f 86/112/96 84/110/94 76/102/86
f 76/102/86 80/106/90 86/112/96
f 79/105/89 88/114/98 86/112/96
f 86/112/96 80/106/90 79/105/89
f 90/116/100 88/114/98 79/105/89
f 79/105/89 106/132/116 90/116/100
f 95/121/105 107/133/117 94/120/104
f 94/120/104 107/133/117 93/119/103
f 81/107/91 80/106/90 76/102/86
f 76/102/86 75/101/85 81/107/91
f 85/111/95 93/119/103 92/118/102
f 89/115/99 91/117/101 96/122/106
s 11
f 108/134/118 109/135/119 110/136/120
f 110/136/120 111/137/121 108/134/118
f 112/138/122 113/139/123 114/140/124
f 114/140/124 115/141/125 112/138/122
f 112/138/122 115/141/125 116/142/126
f 117/143/127 118/144/128 119/145/129
f 118/144/128 120/146/130 121/147/131
f 121/147/131 122/148/132 118/144/128
f 121/147/131 123/149/133 124/150/134
f 124/150/134 122/148/132 121/147/131
f 123/149/133 125/151/135 126/152/136
f 126/152/136 124/150/134 123/149/133
f 117/143/127 127/153/137 120/146/130
f 128/154/138 129/155/139 121/147/131
f 121/147/131 120/146/130 128/154/138
f 121/147/131 129/155/139 130/156/140
f 130/156/140 123/149/133 121/147/131
f 130/156/140 131/157/141 123/149/133
f 111/137/121 110/136/120 132/158/142
f 113/139/123 133/159/143 134/160/144
f 134/160/144 110/136/120 113/139/123
f 113/139/123 112/138/122 135/161/145
f 135/161/145 136/162/146 113/139/123
f 112/138/122 116/142/126 137/163/147
f 112/138/122 137/163/147 135/161/145
f 132/158/142 110/136/120 134/160/144
f 113/139/123 136/162/146 133/159/143
f 136/162/146 138/164/148 139/165/149
f 139/165/149 133/159/143 136/162/146
f 109/135/119 119/145/129 118/144/128
f 122/148/132 114/140/124 109/135/119
f 109/135/119 118/144/128 122/148/132
f 115/141/125 114/140/124 122/148/132
f 122/148/132 124/150/134 115/141/125
f 140/166/150 115/141/125 124/150/134
f 124/150/134 126/152/136 140/166/150
f 130/156/140 129/155/139 141/167/151
f 129/155/139 128/154/138 141/167/151
f 113/139/123 110/136/120 109/135/119
f 109/135/119 114/140/124 113/139/123
f 120/146/130 127/153/137 128/154/138
f 123/149/133 131/157/141 125/151/135
s 10
f 82/108/92 106/132/116 79/105/89
s 11
f 115/141/125 140/166/150 116/142/126
s 10
f 76/102/86 84/110/94 105/131/115
s 11
f 109/135/119 108/134/118 119/145/129
s 10
f 83/109/93 105/131/115 84/110/94
s 11
f 117/143/127 120/146/130 118/144/128
s 12
f 142/168/152 143/169/153 144/170/154
f 144/170/154 145/171/155 142/168/152
f 146/172/156 147/173/157 148/174/158
f 148/174/158 149/175/159 146/172/156
f 146/172/156 150/176/160 147/173/157
f 151/177/161 152/178/162 153/179/163
f 152/178/162 154/180/164 155/181/165
f 155/181/165 153/179/163 152/178/162
f 155/181/165 154/180/164 156/182/166
f 156/182/166 157/183/167 155/181/165
f 156/182/166 158/184/168 159/185/169
f 159/185/169 157/183/167 156/182/166
f 151/177/161 153/179/163 160/186/170
f 161/187/171 153/179/163 155/181/165
f 155/181/165 162/188/172 161/187/171
f 155/181/165 157/183/167 163/189/173
f 163/189/173 162/188/172 155/181/165
f 163/189/173 157/183/167 164/190/174
f 142/168/152 165/191/175 143/169/153
f 166/192/176 167/193/177 149/175/159
f 149/175/159 143/169/153 166/192/176
f 149/175/159 168/194/178 169/195/179
f 169/195/179 146/172/156 149/175/159
f 146/172/156 170/196/180 171/197/181
f 146/172/156 169/195/179 170/196/180
f 165/191/175 166/192/176 143/169/153
f 149/175/159 167/193/177 168/194/178
f 168/194/178 167/193/177 172/198/182
f 172/198/182 173/199/183 168/194/178
f 152/178/162 174/200/184 145/171/155
f 145/171/155 144/170/154 152/178/162
f 154/180/164 152/178/162 144/170/154
f 144/170/154 148/174/158 154/180/164
f 147/173/157 156/182/166 154/180/164
f 154/180/164 148/174/158 147/173/157
f 150/176/160 156/182/166 147/173/157
f 163/189/173 175/201/185 162/188/172
f 162/188/172 175/201/185 161/187/171
f 149/175/159 148/174/158 144/170/154
f 144/170/154 143/169/153 149/175/159
f 153/179/163 161/187/171 160/186/170
f 157/183/167 159/185/169 164/190/174
s 13
f 176/202/186 177/203/187 178/204/188
f 178/204/188 179/205/189 176/202/186
f 180/206/190 181/207/191 182/208/192
f 182/208/192 183/209/193 180/206/190
f 180/206/190 184/210/194 185/211/195
f 186/212/196 187/213/197 188/214/198
f 187/213/197 189/215/199 190/216/200
f 190/216/200 191/217/201 187/213/197
f 190/216/200 192/218/202 193/219/203
f 193/219/203 191/217/201 190/216/200
f 192/218/202 194/220/204 195/221/205
f 195/221/205 193/219/203 192/218/202
f 186/212/196 196/222/206 189/215/199
f 197/223/207 198/224/208 190/216/200
f 190/216/200 189/215/199 197/223/207
f 190/216/200 198/224/208 199/225/209
f 199/225/209 192/218/202 190/216/200
f 199/225/209 200/226/210 192/218/202
f 179/205/189 178/204/188 201/227/211
f 181/207/191 202/228/212 203/229/213
f 203/229/213 178/204/188 181/207/191
f 181/207/191 180/206/190 204/230/214
f 204/230/214 205/231/215 181/207/191
f 180/206/190 185/211/195 206/232/216
f 180/206/190 206/232/216 204/230/214
f 201/227/211 178/204/188 203/229/213
f 181/207/191 205/231/215 202/228/212
f 205/231/215 207/233/217 208/234/218
f 208/234/218 202/228/212 205/231/215
f 177/203/187 176/202/186 188/214/198
f 188/214/198 187/213/197 177/203/187
f 191/217/201 182/208/192 177/203/187
f 177/203/187 187/213/197 191/217/201
f 183/209/193 182/208/192 191/217/201
f 191/217/201 193/219/203 183/209/193
f 184/210/194 193/219/203 195/221/205
f 199/225/209 198/224/208 209/235/219
f 198/224/208 197/223/207 209/235/219
f 181/207/191 178/204/188 177/203/187
f 177/203/187 182/208/192 181/207/191
f 189/215/199 196/222/206 197/223/207
f 192/218/202 200/226/210 194/220/204
s 12
f 150/176/160 158/184/168 156/182/166
s 13
f 184/210/194 183/209/193 193/219/203
s 12
f 151/177/161 174/200/184 152/178/162
s 13
f 186/212/196 189/215/199 187/213/197
s 12
f 146/172/156 171/197/181 150/176/160
s 13
f 180/206/190 183/209/193 184/210/194
s 14
f 210/236/220 211/237/221 212/238/222
f 212/238/222 213/239/223 210/236/220
f 214/240/224 215/241/225 216/242/226
f 216/242/226 217/243/227 214/240/224
f 214/240/224 218/244/228 219/245/229
f 219/245/229 215/241/225 214/240/224
f 220/246/230 221/247/231 222/248/232
f 222/248/232 223/249/233 220/246/230
f 221/247/231 224/250/234 225/251/235
f 225/251/235 222/248/232 221/247/231
f 225/251/235 224/250/234 226/252/236
f 226/252/236 227/253/237 225/251/235
f 226/252/236 228/254/238 229/255/239
f 229/255/239 227/253/237 226/252/236
f 223/249/233 222/248/232 230/256/240
f 231/257/241 222/248/232 225/251/235
f 225/251/235 232/258/242 231/257/241
f 225/251/235 227/253/237 233/259/243
f 233/259/243 232/258/242 225/251/235
f 233/259/243 227/253/237 234/260/244
f 210/236/220 235/261/245 211/237/221
f 236/262/246 237/263/247 217/243/227
f 217/243/227 211/237/221 236/262/246
f 217/243/227 238/264/248 239/265/249
f 239/265/249 214/240/224 217/243/227
f 214/240/224 240/266/250 218/244/228
f 214/240/224 239/265/249 240/266/250
f 235/261/245 236/262/246 211/237/221
f 217/243/227 237/263/247 238/264/248
f 238/264/248 237/263/247 241/267/251
f 241/267/251 242/268/252 238/264/248
f 221/247/231 220/246/230 213/239/223
f 213/239/223 212/238/222 221/247/231
f 224/250/234 221/247/231 212/238/222
f 212/238/222 216/242/226 224/250/234
f 215/241/225 226/252/236 224/250/234
f 224/250/234 216/242/226 215/241/225
f 228/254/238 226/252/236 215/241/225
f 215/241/225 219/245/229 228/254/238
f 233/259/243 243/269/253 232/258/242
f 232/258/242 243/269/253 231/257/241
f 217/243/227 216/242/226 212/238/222
f 212/238/222 211/237/221 217/243/227
f 222/248/232 231/257/241 230/256/240
f 227/253/237 229/255/239 234/260/244
s 15
f 244/270/254 245/271/255 246/272/256
f 246/272/256 247/273/257 244/270/254
f 248/274/258 249/275/259 250/276/260
f 250/276/260 251/277/261 248/274/258
f 251/277/261 252/278/262 253/279/263
f 253/279/263 248/274/258 251/277/261
f 254/280/264 255/281/265 256/282/266
f 256/282/266 257/283/267 254/280/264
f 256/282/266 255/281/265 258/284/268
f 258/284/268 259/285/269 256/282/266
f 258/284/268 260/286/270 261/287/271
f 261/287/271 259/285/269 258/284/268
f 260/286/270 262/288/272 263/289/273
f 263/289/273 261/287/271 260/286/270
f 254/280/264 264/290/274 255/281/265
f 265/291/275 266/292/276 258/284/268
f 258/284/268 255/281/265 265/291/275
f 258/284/268 266/292/276 267/293/277
f 267/293/277 260/286/270 258/284/268
f 267/293/277 268/294/278 260/286/270
f 247/273/257 246/272/256 269/295/279
f 249/275/259 270/296/280 271/297/281
f 271/297/281 246/272/256 249/275/259
f 249/275/259 248/274/258 272/298/282
f 272/298/282 273/299/283 249/275/259
f 248/274/258 253/279/263 274/300/284
f 248/274/258 274/300/284 272/298/282
f 269/295/279 246/272/256 271/297/281
f 249/275/259 273/299/283 270/296/280
f 273/299/283 275/301/285 276/302/286
f 276/302/286 270/296/280 273/299/283
f 245/271/255 244/270/254 257/283/267
f 257/283/267 256/282/266 245/271/255
f 259/285/269 250/276/260 245/271/255
f 245/271/255 256/282/266 259/285/269
f 251/277/261 250/276/260 259/285/269
f 259/285/269 261/287/271 251/277/261
f 252/278/262 251/277/261 261/287/271
f 261/287/271 263/289/273 252/278/262
f 267/293/277 266/292/276 277/303/287
f 266/292/276 265/291/275 277/303/287
f 249/275/259 246/272/256 245/271/255
f 245/271/255 250/276/260 249/275/259
f 255/281/265 264/290/274 265/291/275
f 260/286/270 268/294/278 262/288/272
s 16
f 278/304/288 279/305/289 280/306/290
f 280/306/290 281/307/291 278/304/288
f 282/308/292 283/309/293 284/310/294
f 284/310/294 285/311/295 282/308/292
f 282/308/292 286/312/296 287/313/297
f 287/313/297 283/309/293 282/308/292
f 288/314/298 289/315/299 290/316/300
f 290/316/300 291/317/301 288/314/298
f 289/315/299 292/318/302 293/319/303
f 293/319/303 290/316/300 289/315/299
f 293/319/303 292/318/302 294/320/304
f 294/320/304 295/321/305 293/319/303
f 294/320/304 296/322/306 297/323/307
f 297/323/307 295/321/305 294/320/304
f 291/317/301 290/316/300 298/324/308
f 299/325/309 290/316/300 293/319/303
f 293/319/303 300/326/310 299/325/309
f 293/319/303 295/321/305 301/327/311
f 301/327/311 300/326/310 293/319/303
f 301/327/311 295/321/305 302/328/312
f 278/304/288 303/329/313 279/305/289
f 304/330/314 305/331/315 285/311/295
f 285/311/295 279/305/289 304/330/314
f 285/311/295 306/332/316 307/333/317
f 307/333/317 282/308/292 285/311/295
f 282/308/292 308/334/318 286/312/296
f 282/308/292 307/333/317 308/334/318
f 303/329/313 304/330/314 279/305/289
f 285/311/295 305/331/315 306/332/316
f 306/332/316 305/331/315 309/335/319
f 309/335/319 310/336/320 306/332/316
f 289/315/299 288/314/298 281/307/291
f 281/307/291 280/306/290 289/315/299
f 292/318/302 289/315/299 280/306/290
f 280/306/290 284/310/294 292/318/302
f 283/309/293 294/320/304 292/318/302
f 292/318/302 284/310/294 283/309/293
f 296/322/306 294/320/304 283/309/293
f 283/309/293 287/313/297 296/322/306
f 301/327/311 311/337/321 300/326/310
f 300/326/310 311/337/321 299/325/309
f 285/311/295 284/310/294 280/306/290
f 280/306/290 279/305/289 285/311/295
f 290/316/300 299/325/309 298/324/308
f 295/321/305 297/323/307 302/328/312
s 17
f 312/338/322 313/339/323 314/340/324
f 314/340/324 315/341/325 312/338/322
f 316/342/326 317/343/327 318/344/328
f 318/344/328 319/345/329 316/342/326
f 319/345/329 320/346/330 321/347/331
f 321/347/331 316/342/326 319/345/329
f 322/348/332 323/349/333 324/350/334
f 324/350/334 325/351/335 322/348/332
f 324/350/334 323/349/333 326/352/336
f 326/352/336 327/353/337 324/350/334
f 326/352/336 328/354/338 329/355/339
f 329/355/339 327/353/337 326/352/336
f 328/354/338 330/356/340 331/357/341
f 331/357/341 329/355/339 328/354/338
f 322/348/332 332/358/342 323/349/333
f 333/359/343 334/360/344 326/352/336
f 326/352/336 323/349/333 333/359/343
f 326/352/336 334/360/344 335/361/345
f 335/361/345 328/354/338 326/352/336
f 335/361/345 336/362/346 328/354/338
f 315/341/325 314/340/324 337/363/347
f 317/343/327 338/364/348 339/365/349
f 339/365/349 314/340/324 317/343/327
f 317/343/327 316/342/326 340/366/350
f 340/366/350 341/367/351 317/343/327
f 316/342/326 321/347/331 342/368/352
f 316/342/326 342/368/352 340/366/350
f 337/363/347 314/340/324 339/365/349
f 317/343/327 341/367/351 338/364/348
f 341/367/351 343/369/353 344/370/354
f 344/370/354 338/364/348 341/367/351
f 313/339/323 312/338/322 325/351/335
f 325/351/335 324/350/334 313/339/323
f 327/353/337 318/344/328 313/339/323
f 313/339/323 324/350/334 327/353/337
f 319/345/329 318/344/328 327/353/337
f 327/353/337 329/355/339 319/345/329
f 320/346/330 319/345/329 329/355/339
f 329/355/339 331/357/341 320/346/330
f 335/361/345 334/360/344 345/371/355
f 334/360/344 333/359/343 345/371/355
f 317/343/327 314/340/324 313/339/323
f 313/339/323 318/344/328 317/343/327
f 323/349/333 332/358/342 333/359/343
f 328/354/338 336/362/346 330/356/340
s 18
f 346/372/356 347/373/357 348/374/358
f 348/374/358 349/375/359 346/372/356
f 350/376/360 351/377/361 352/378/362
f 352/378/362 353/379/363 350/376/360
f 350/376/360 354/380/364 355/381/365
f 355/381/365 351/377/361 350/376/360
f 356/382/366 357/383/367 358/384/368
f 358/384/368 359/385/369 356/382/366
f 357/383/367 360/386/370 361/387/371
f 361/387/371 358/384/368 357/383/367
f 361/387/371 360/386/370 362/388/372
f 362/388/372 363/389/373 361/387/371
f 362/388/372 364/390/374 365/391/375
f 365/391/375 363/389/373 362/388/372
f 359/385/369 358/384/368 366/392/376
f 367/393/377 358/384/368 361/387/371
f 361/387/371 368/394/378 367/393/377
f 361/387/371 363/389/373 369/395/379
f 369/395/379 368/394/378 361/387/371
f 369/395/379 363/389/373 370/396/380
f 346/372/356 371/397/381 347/373/357
f 372/398/382 373/399/383 353/379/363
f 353/379/363 347/373/357 372/398/382
f 353/379/363 374/400/384 375/401/385
f 375/401/385 350/376/360 353/379/363
f 350/376/360 376/402/386 354/380/364
f 350/376/360 375/401/385 376/402/386
f 371/397/381 372/398/382 347/373/357
f 353/379/363 373/399/383 374/400/384
f 374/400/384 373/399/383 377/403/387
f 377/403/387 378/404/388 374/400/384
f 357/383/367 356/382/366 349/375/359
f 349/375/359 348/374/358 357/383/367
f 360/386/370 357/383/367 348/374/358
f 348/374/358 352/378/362 360/386/370
f 351/377/361 362/388/372 360/386/370
f 360/386/370 352/378/362 351/377/361
f 364/390/374 362/388/372 351/377/361
f 351/377/361 355/381/365 364/390/374
f 369/395/379 379/405/389 368/394/378
f 368/394/378 379/405/389 367/393/377
f 353/379/363 352/378/362 348/374/358
f 348/374/358 347/373/357 353/379/363
f 358/384/368 367/393/377 366/392/376
f 363/389/373 365/391/375 370/396/380
s 19
f 380/406/390 381/407/391 382/408/392
f 382/408/392 383/409/393 380/406/390
f 384/410/394 385/411/395 386/412/396
f 386/412/396 387/413/397 384/410/394
f 387/413/397 388/414/398 389/415/399
f 389/415/399 384/410/394 387/413/397
f 390/416/400 391/417/401 392/418/402
f 392/418/402 393/419/403 390/416/400
f 392/418/402 391/417/401 394/420/404
f 394/420/404 395/421/405 392/418/402
f 394/420/404 396/422/406 397/423/407
f 397/423/407 395/421/405 394/420/404
f 396/422/406 398/424/408 399/425/409
f 399/425/409 397/423/407 396/422/406
f 390/416/400 400/426/410 391/417/401
f 401/427/411 402/428/412 394/420/404
f 394/420/404 391/417/401 401/427/411
f 394/420/404 402/428/412 403/429/413
f 403/429/413 396/422/406 394/420/404
f 403/429/413 404/430/414 396/422/406
f 383/409/393 382/408/392 405/431/415
f 385/411/395 406/432/416 407/433/417
f 407/433/417 382/408/392 385/411/395
f 385/411/395 384/410/394 408/434/418
f 408/434/418 409/435/419 385/411/395
f 384/410/394 389/415/399 410/436/420
f 384/410/394 410/436/420 408/434/418
f 405/431/415 382/408/392 407/433/417
f 385/411/395 409/435/419 406/432/416
f 409/435/419 411/437/421 412/438/421
f 412/438/421 406/432/416 409/435/419
f 381/407/391 380/406/390 393/419/403
f 393/419/403 392/418/402 381/407/391
f 395/421/405 386/412/396 381/407/391
f 381/407/391 392/418/402 395/421/405
f 387/413/397 386/412/396 395/421/405
f 395/421/405 397/423/407 387/413/397
f 388/414/398 387/413/397 397/423/407
f 397/423/407 399/425/409 388/414/398
f 403/429/413 402/428/412 413/439/422
f 402/428/412 401/427/411 413/439/422
f 385/411/395 382/408/392 381/407/391
f 381/407/391 386/412/396 385/411/395
f 391/417/401 400/426/410 401/427/411
f 396/422/406 404/430/414 398/424/408
s 20
f 414/440/423 415/441/424 416/442/425
f 416/442/425 417/443/426 414/440/423
f 418/444/427 419/445/428 420/446/429
f 420/446/429 421/447/430 418/444/427
f 418/444/427 422/448/431 423/449/432
f 423/449/432 419/445/428 418/444/427
f 424/450/433 425/451/434 426/452/435
f 426/452/435 427/453/436 424/450/433
f 425/451/434 428/454/437 429/455/438
f 429/455/438 426/452/435 425/451/434
f 429/455/438 428/454/437 430/456/439
f 430/456/439 431/457/440 429/455/438
f 430/456/439 432/458/441 433/459/442
f 433/459/442 431/457/440 430/456/439
f 427/453/436 426/452/435 434/460/443
f 435/461/444 426/452/435 429/455/438
f 429/455/438 436/462/445 435/461/444
f 429/455/438 431/457/440 437/463/446
f 437/463/446 436/462/445 429/455/438
f 437/463/446 431/457/440 438/464/447
f 414/440/423 439/465/448 415/441/424
f 440/466/449 441/467/450 421/447/430
f 421/447/430 415/441/424 440/466/449
f 421/447/430 442/468/451 443/469/452
f 443/469/452 418/444/427 421/447/430
f 418/444/427 444/470/453 422/448/431
f 418/444/427 443/469/452 444/470/453
f 439/465/448 440/466/449 415/441/424
f 421/447/430 441/467/450 442/468/451
f 442/468/451 441/467/450 445/471/454
f 445/471/454 446/472/455 442/468/451
f 425/451/434 424/450/433 417/443/426
f 417/443/426 416/442/425 425/451/434
f 428/454/437 425/451/434 416/442/425
f 416/442/425 420/446/429 428/454/437
f 419/445/428 430/456/439 428/454/437
f 428/454/437 420/446/429 419/445/428
f 432/458/441 430/456/439 419/445/428
f 419/445/428 423/449/432 432/458/441
f 437/463/446 447/473/456 436/462/445
f 436/462/445 447/473/456 435/461/444
f 421/447/430 420/446/429 416/442/425
f 416/442/425 415/441/424 421/447/430
f 426/452/435 435/461/444 434/460/443
f 431/457/440 433/459/442 438/464/447
s 21
f 448/474/457 449/475/458 450/476/459
f 450/476/459 451/477/460 448/474/457
f 452/478/461 453/479/462 454/480/463
f 454/480/463 455/481/464 452/478/461
f 455/481/464 456/482/465 457/483/466
f 457/483/466 452/478/461 455/481/464
f 458/484/467 459/485/468 460/486/469
f 460/486/469 461/487/470 458/484/467
f 460/486/469 459/485/468 462/488/471
f 462/488/471 463/489/472 460/486/469
f 462/488/471 464/490/473 465/491/474
f 465/491/474 463/489/472 462/488/471
f 464/490/473 466/492/475 467/493/476
f 467/493/476 465/491/474 464/490/473
f 458/484/467 468/494/477 459/485/468
f 469/495/478 470/496/479 462/488/471
f 462/488/471 459/485/468 469/495/478
f 462/488/471 470/496/479 471/497/480
f 471/497/480 464/490/473 462/488/471
f 471/497/480 472/498/481 464/490/473
f 451/477/460 450/476/459 473/499/482
f 453/479/462 474/500/483 475/501/484
f 475/501/484 450/476/459 453/479/462
f 453/479/462 452/478/461 476/502/485
f 476/502/485 477/503/486 453/479/462
f 452/478/461 457/483/466 478/504/487
f 452/478/461 478/504/487 476/502/485
f 473/499/482 450/476/459 475/501/484
f 453/479/462 477/503/486 474/500/483
f 477/503/486 479/505/488 480/506/489
f 480/506/489 474/500/483 477/503/486
f 449/475/458 448/474/457 461/487/470
f 461/487/470 460/486/469 449/475/458
f 463/489/472 454/480/463 449/475/458
f 449/475/458 460/486/469 463/489/472
f 455/481/464 454/480/463 463/489/472
f 463/489/472 465/491/474 455/481/464
f 456/482/465 455/481/464 465/491/474
f 465/491/474 467/493/476 456/482/465
f 471/497/480 470/496/479 481/507/490
f 470/496/479 469/495/478 481/507/490
f 453/479/462 450/476/459 449/475/458
f 449/475/458 454/480/463 453/479/462
f 459/485/468 468/494/477 469/495/478
f 464/490/473 472/498/481 466/492/475
s 22
f 482/508/491 483/509/492 484/510/493
f 484/510/493 485/511/494 482/508/491
f 486/512/495 487/513/496 488/514/497
f 488/514/497 489/515/498 486/512/495
f 486/512/495 490/516/499 491/517/500
f 491/517/500 487/513/496 486/512/495
f 492/518/501 493/519/502 494/520/503
f 494/520/503 495/521/504 492/518/501
f 493/519/502 496/522/505 497/523/506
f 497/523/506 494/520/503 493/519/502
f 497/523/506 496/522/505 498/524/507
f 498/524/507 499/525/508 497/523/506
f 498/524/507 500/526/509 501/527/510
f 501/527/510 499/525/508 498/524/507
f 495/521/504 494/520/503 502/528/511
f 503/529/512 494/520/503 497/523/506
f 497/523/506 504/530/513 503/529/512
f 497/523/506 499/525/508 505/531/514
f 505/531/514 504/530/513 497/523/506
f 505/531/514 499/525/508 506/532/515
f 482/508/491 507/533/516 483/509/492
f 508/534/517 509/535/518 489/515/498
f 489/515/498 483/509/492 508/534/517
f 489/515/498 510/536/519 511/537/520
f 511/537/520 486/512/495 489/515/498
f 486/512/495 512/538/521 490/516/499
f 486/512/495 511/537/520 512/538/521
f 507/533/516 508/534/517 483/509/492
f 489/515/498 509/535/518 510/536/519
f 510/536/519 509/535/518 513/539/522
f 513/539/522 514/540/523 510/536/519
f 493/519/502 492/518/501 485/511/494
f 485/511/494 484/510/493 493/519/502
f 496/522/505 493/519/502 484/510/493
f 484/510/493 488/514/497 496/522/505
f 487/513/496 498/524/507 496/522/505
f 496/522/505 488/514/497 487/513/496
f 500/526/509 498/524/507 487/513/496
f 487/513/496 491/517/500 500/526/509
f 505/531/514 515/541/524 504/530/513
f 504/530/513 515/541/524 503/529/512
f 489/515/498 488/514/497 484/510/493
f 484/510/493 483/509/492 489/515/498
f 494/520/503 503/529/512 502/528/511
f 499/525/508 501/527/510 506/532/515
s 23
f 516/542/525 517/543/526 518/544/527
f 518/544/527 519/545/528 516/542/525
f 520/546/529 521/547/530 522/548/531
f 522/548/531 523/549/532 520/546/529
f 523/549/532 524/550/533 525/551/534
f 525/551/534 520/546/529 523/549/532
f 526/552/535 527/553/536 528/554/537
f 528/554/537 529/555/538 526/552/535
f 528/554/537 527/553/536 530/556/539
f 530/556/539 531/557/540 528/554/537
f 530/556/539 532/558/541 533/559/542
f 533/559/542 531/557/540 530/556/539
f 532/558/541 534/560/543 535/561/544
f 535/561/544 533/559/542 532/558/541
f 526/552/535 536/562/545 527/553/536
f 537/563/546 538/564/547 530/556/539
f 530/556/539 527/553/536 537/563/546
f 530/556/539 538/564/547 539/565/548
f 539/565/548 532/558/541 530/556/539
f 539/565/548 540/566/549 532/558/541
f 519/545/528 518/544/527 541/567/550
f 521/547/530 542/568/551 543/569/552
f 543/569/552 518/544/527 521/547/530
f 521/547/530 520/546/529 544/570/553
f 544/570/553 545/571/554 521/547/530
f 520/546/529 525/551/534 546/572/555
f 520/546/529 546/572/555 544/570/553
f 541/567/550 518/544/527 543/569/552
f 521/547/530 545/571/554 542/568/551
f 545/571/554 547/573/556 548/574/557
f 548/574/557 542/568/551 545/571/554
f 517/543/526 516/542/525 529/555/538
f 529/555/538 528/554/537 517/543/526
f 531/557/540 522/548/531 517/543/526
f 517/543/526 528/554/537 531/557/540
f 523/549/532 522/548/531 531/557/540
f 531/557/540 533/559/542 523/549/532
f 524/550/533 523/549/532 533/559/542
f 533/559/542 535/561/544 524/550/533
f 539/565/548 538/564/547 549/575/558
f 538/564/547 537/563/546 549/575/558
f 521/547/530 518/544/527 517/543/526
f 517/543/526 522/548/531 521/547/530
f 527/553/536 536/562/545 537/563/546
f 532/558/541 540/566/549 534/560/543
s 24
f 550/576/559 551/577/560 552/578/561
f 552/578/561 553/579/562 550/576/559
f 554/580/563 555/581/564 556/582/565
f 556/582/565 557/583/566 554/580/563
f 554/580/563 558/584/567 555/581/564
f 559/585/568 560/586/569 561/587/570
f 561/587/570 562/588/571 559/585/568
f 560/586/569 563/589/572 564/590/573
f 564/590/573 561/587/570 560/586/569
f 564/590/573 563/589/572 565/591/574
f 565/591/574 566/592/575 564/590/573
f 565/591/574 567/593/576 568/594/577
f 568/594/577 566/592/575 565/591/574
f 562/588/571 561/587/570 569/595/578
f 570/596/579 561/587/570 564/590/573
f 564/590/573 571/597/580 570/596/579
f 564/590/573 566/592/575 572/598/581
f 572/598/581 571/597/580 564/590/573
f 572/598/581 566/592/575 573/599/582
f 550/576/559 574/600/583 551/577/560
f 575/601/584 576/602/585 557/583/566
f 557/583/566 551/577/560 575/601/584
f 557/583/566 577/603/586 578/604/587
f 578/604/587 554/580/563 557/583/566
f 554/580/563 579/605/588 558/584/567
f 554/580/563 578/604/587 579/605/588
f 574/600/583 575/601/584 551/577/560
f 557/583/566 576/602/585 577/603/586
f 577/603/586 576/602/585 580/606/589
f 580/606/589 581/607/590 577/603/586
f 560/586/569 559/585/568 553/579/562
f 553/579/562 552/578/561 560/586/569
f 563/589/572 560/586/569 552/578/561
f 552/578/561 556/582/565 563/589/572
f 555/581/564 565/591/574 563/589/572
f 563/589/572 556/582/565 555/581/564
f 567/593/576 565/591/574 555/581/564
f 555/581/564 582/608/591 567/593/576
f 572/598/581 583/609/592 571/597/580
f 571/597/580 583/609/592 570/596/579
f 557/583/566 556/582/565 552/578/561
f 552/578/561 551/577/560 557/583/566
f 561/587/570 570/596/579 569/595/578
f 566/592/575 568/594/577 573/599/582
s 25
f 584/610/593 585/611/594 586/612/595
f 586/612/595 587/613/596 584/610/593
f 588/614/597 589/615/598 590/616/599
f 590/616/599 591/617/600 588/614/597
f 588/614/597 591/617/600 592/618/601
f 593/619/602 594/620/603 595/621/604
f 595/621/604 596/622/605 593/619/602
f 595/621/604 594/620/603 597/623/606
f 597/623/606 598/624/607 595/621/604
f 597/623/606 599/625/608 600/626/609
f 600/626/609 598/624/607 597/623/606
f 599/625/608 601/627/610 602/628/611
f 602/628/611 600/626/609 599/625/608
f 593/619/602 603/629/612 594/620/603
f 604/630/613 605/631/614 597/623/606
f 597/623/606 594/620/603 604/630/613
f 597/623/606 605/631/614 606/632/615
f 606/632/615 599/625/608 597/623/606
f 606/632/615 607/633/616 599/625/608
f 587/613/596 586/612/595 608/634/617
f 589/615/598 609/635/618 610/636/619
f 610/636/619 586/612/595 589/615/598
f 589/615/598 588/614/597 611/637/620
f 611/637/620 612/638/621 589/615/598
f 588/614/597 592/618/601 613/639/622
f 588/614/597 613/639/622 611/637/620
f 608/634/617 586/612/595 610/636/619
f 589/615/598 612/638/621 609/635/618
f 612/638/621 614/640/623 615/641/624
f 615/641/624 609/635/618 612/638/621
f 585/611/594 584/610/593 596/622/605
f 596/622/605 595/621/604 585/611/594
f 598/624/607 590/616/599 585/611/594
f 585/611/594 595/621/604 598/624/607
f 591/617/600 590/616/599 598/624/607
f 598/624/607 600/626/609 591/617/600
f 616/642/625 591/617/600 600/626/609
f 600/626/609 602/628/611 616/642/625
f 606/632/615 605/631/614 617/643/626
f 605/631/614 604/630/613 617/643/626
f 589/615/598 586/612/595 585/611/594
f 585/611/594 590/616/599 589/615/598
f 594/620/603 603/629/612 604/630/613
f 599/625/608 607/633/616 601/627/610
s 24
f 558/584/567 582/608/591 555/581/564
s 25
f 591/617/600 616/642/625 592/618/601
s 26
f 618/644/627 619/645/628 620/646/629
f 620/646/629 621/647/630 618/644/627
f 622/648/631 623/649/632 624/650/633
f 624/650/633 625/651/634 622/648/631
f 622/648/631 626/652/635 623/649/632
f 627/653/636 628/654/637 629/655/638
f 629/655/638 630/656/639 627/653/636
f 628/654/637 631/657/640 632/658/641
f 632/658/641 629/655/638 628/654/637
f 632/658/641 631/657/640 633/659/642
f 633/659/642 634/660/643 632/658/641
f 633/659/642 635/661/644 636/662/645
f 636/662/645 634/660/643 633/659/642
f 630/656/639 629/655/638 637/663/646
f 638/664/647 629/655/638 632/658/641
f 632/658/641 639/665/648 638/664/647
f 632/658/641 634/660/643 640/666/649
f 640/666/649 639/665/648 632/658/641
f 640/666/649 634/660/643 641/667/650
f 618/644/627 642/668/651 619/645/628
f 643/669/652 644/670/653 625/651/634
f 625/651/634 619/645/628 643/669/652
f 625/651/634 645/671/654 646/672/655
f 646/672/655 622/648/631 625/651/634
f 622/648/631 647/673/656 626/652/635
f 622/648/631 646/672/655 647/673/656
f 642/668/651 643/669/652 619/645/628
f 625/651/634 644/670/653 645/671/654
f 645/671/654 644/670/653 648/674/657
f 648/674/657 649/675/658 645/671/654
f 628/654/637 627/653/636 621/647/630
f 621/647/630 620/646/629 628/654/637
f 631/657/640 628/654/637 620/646/629
f 620/646/629 624/650/633 631/657/640
f 623/649/632 633/659/642 631/657/640
f 631/657/640 624/650/633 623/649/632
f 635/661/644 633/659/642 623/649/632
f 623/649/632 650/676/659 635/661/644
f 640/666/649 651/677/660 639/665/648
f 639/665/648 651/677/660 638/664/647
f 625/651/634 624/650/633 620/646/629
f 620/646/629 619/645/628 625/651/634
f 629/655/638 638/664/647 637/663/646
f 634/660/643 636/662/645 641/667/650
s 27
f 652/678/661 653/679/662 654/680/663
f 654/680/663 655/681/664 652/678/661
f 656/682/665 657/683/666 658/684/667
f 658/684/667 659/685/668 656/682/665
f 656/682/665 659/685/668 660/686/669
f 661/687/670 662/688/671 663/689/672
f 663/689/672 664/690/673 661/687/670
f 663/689/672 662/688/671 665/691/674
f 665/691/674 666/692/675 663/689/672
f 665/691/674 667/693/676 668/694/677
f 668/694/677 666/692/675 665/691/674
f 667/693/676 669/695/678 670/696/679
f 670/696/679 668/694/677 667/693/676
f 661/687/670 671/697/680 662/688/671
f 672/698/681 673/699/682 665/691/674
f 665/691/674 662/688/671 672/698/681
f 665/691/674 673/699/682 674/700/683
f 674/700/683 667/693/676 665/691/674
f 674/700/683 675/701/684 667/693/676
f 655/681/664 654/680/663 676/702/685
f 657/683/666 677/703/686 678/704/687
f 678/704/687 654/680/663 657/683/666
f 657/683/666 656/682/665 679/705/688
f 679/705/688 680/706/689 657/683/666
f 656/682/665 660/686/669 681/707/690
f 656/682/665 681/707/690 679/705/688
f 676/702/685 654/680/663 678/704/687
f 657/683/666 680/706/689 677/703/686
f 680/706/689 682/708/691 683/709/692
f 683/709/692 677/703/686 680/706/689
f 653/679/662 652/678/661 664/690/673
f 664/690/673 663/689/672 653/679/662
f 666/692/675 658/684/667 653/679/662
f 653/679/662 663/689/672 666/692/675
f 659/685/668 658/684/667 666/692/675
f 666/692/675 668/694/677 659/685/668
f 684/710/693 659/685/668 668/694/677
f 668/694/677 670/696/679 684/710/693
f 674/700/683 673/699/682 685/711/694
f 673/699/682 672/698/681 685/711/694
f 657/683/666 654/680/663 653/679/662
f 653/679/662 658/684/667 657/683/666
f 662/688/671 671/697/680 672/698/681
f 667/693/676 675/701/684 669/695/678
s 26
f 626/652/635 650/676/659 623/649/632
s 27
f 659/685/668 684/710/693 660/686/669
