# Blender v3.3.0 OBJ File: ''
# www.blender.org
o CoffeeStageDead.005
v 0.000038 -0.036886 -0.003461
v 0.000038 0.002028 -0.023221
v 0.023114 0.000017 -0.000232
v -0.023039 0.000017 -0.000232
v 0.000038 -0.001994 0.022756
v 0.010272 0.639650 -0.064012
v 0.011916 0.744761 -0.151666
v 0.017638 0.745985 -0.150084
v 0.021744 0.641507 -0.059740
v 0.005997 0.648355 -0.056315
v 0.009928 0.748790 -0.147596
v 0.015650 0.750014 -0.146014
v 0.017469 0.650212 -0.052043
v 0.000038 0.020711 -0.013621
v 0.015179 0.019391 0.001463
v -0.015103 0.019391 0.001463
v 0.000038 0.018072 0.016546
v -0.004985 0.408192 -0.005845
v 0.009195 0.406497 0.008381
v -0.019166 0.408312 0.008381
v -0.004985 0.406617 0.022606
v 0.007792 0.525203 -0.013058
v 0.023216 0.524312 -0.006249
v 0.001230 0.527938 0.001907
v 0.016655 0.527048 0.008717
v 0.322437 0.458204 -0.061753
v 0.324497 0.461743 -0.066222
v 0.328075 0.464641 -0.062278
v 0.326014 0.461101 -0.057809
v 0.238707 0.520623 -0.031775
v 0.240165 0.511847 -0.023164
v 0.245231 0.528525 -0.024826
v 0.246689 0.519749 -0.016215
v -0.005321 0.406564 -0.001431
v 0.071434 0.522888 -0.022698
v 0.084096 0.512554 -0.015315
v 0.002366 0.398844 0.009651
v -0.010334 0.417046 0.006995
v 0.072560 0.533773 -0.009465
v 0.084268 0.523461 -0.001644
v -0.004298 0.409357 0.018188
v -0.222057 0.480431 -0.212382
v -0.227241 0.482031 -0.209679
v -0.227694 0.486811 -0.213379
v -0.222510 0.485212 -0.216081
v -0.132642 0.520899 -0.116932
v -0.122754 0.517889 -0.123748
v -0.130775 0.532865 -0.119507
v -0.120886 0.529855 -0.126323
v -0.012182 0.403920 0.011580
v -0.072425 0.490039 -0.045306
v -0.063767 0.480913 -0.058086
v -0.002968 0.400029 0.000863
v -0.004623 0.418167 0.013823
v -0.063670 0.504216 -0.049456
v -0.054487 0.495369 -0.061372
v 0.005991 0.411566 0.004272
v 0.013710 0.484108 0.357098
v 0.019551 0.485708 0.356840
v 0.018398 0.490488 0.360384
v 0.012557 0.488888 0.360642
v 0.026181 0.546817 0.228859
v 0.014339 0.543807 0.230858
v 0.023400 0.558783 0.230404
v 0.011558 0.555773 0.232402
v 0.003294 0.403920 0.012871
v 0.018570 0.504505 0.126760
v 0.003214 0.495378 0.128343
v -0.010838 0.400029 0.012702
v 0.000154 0.418167 0.005640
v 0.009763 0.518681 0.122720
v -0.005268 0.509834 0.123345
v -0.013986 0.411566 0.003648
v 0.382316 0.485398 0.024712
v 0.349256 0.477350 0.052808
v 0.400210 0.421580 0.094498
v 0.442539 0.425144 0.059150
v 0.309241 0.485817 0.095990
v 0.345420 0.436488 0.153203
v 0.373597 0.426721 0.117956
v 0.331511 0.475669 0.072035
v 0.289195 0.493708 0.123424
v 0.318330 0.448839 0.185880
v 0.472111 0.356982 0.088225
v 0.424496 0.357973 0.127867
v 0.405060 0.289172 0.138139
v 0.439361 0.287382 0.108251
v 0.395302 0.369974 0.152196
v 0.383120 0.306370 0.160568
v 0.367589 0.375780 0.193454
v 0.363690 0.306114 0.191032
v 0.337483 0.391875 0.233059
v 0.342262 0.316819 0.223544
v 0.406560 0.252559 0.134770
v 0.371719 0.237661 0.166716
v 0.367776 0.244401 0.169894
v 0.363222 0.242846 0.176379
v 0.348081 0.275929 0.203385
v 0.326245 0.514269 -0.004028
v 0.294291 0.516987 -0.002909
v 0.268644 0.520762 0.002249
v 0.264122 0.520875 0.006661
v 0.255822 0.520831 0.036420
v 0.258198 0.518890 0.068360
v 0.244703 0.519716 -0.025493
v 0.239978 0.519810 -0.020920
v 0.354524 0.211445 0.180809
v 0.442104 0.424820 0.058782
v 0.399768 0.421268 0.094124
v 0.348849 0.476904 0.052451
v 0.381911 0.484954 0.024356
v 0.308829 0.485367 0.095631
v 0.331096 0.475225 0.071675
v 0.373150 0.426417 0.117578
v 0.344986 0.436169 0.152835
v 0.317893 0.448511 0.185511
v 0.288780 0.493257 0.123064
v 0.438843 0.287373 0.107797
v 0.404543 0.289163 0.137685
v 0.424008 0.357799 0.127437
v 0.471626 0.356777 0.087796
v 0.382603 0.306362 0.160114
v 0.394817 0.369826 0.151766
v 0.363173 0.306106 0.190578
v 0.367111 0.375629 0.193031
v 0.341745 0.316811 0.223090
v 0.337012 0.391720 0.232645
v 0.406042 0.252550 0.134316
v 0.371202 0.237653 0.166262
v 0.367259 0.244392 0.169440
v 0.362705 0.242838 0.175926
v 0.347564 0.275921 0.202931
v 0.326016 0.513679 -0.004244
v 0.268422 0.520155 0.002035
v 0.294067 0.516386 -0.003124
v 0.255597 0.520231 0.036204
v 0.263900 0.520268 0.006446
v 0.257966 0.518309 0.068143
v 0.239754 0.519196 -0.021136
v 0.244480 0.519102 -0.025709
v 0.354007 0.211436 0.180355
v 0.025319 0.715838 -0.242856
v 0.054040 0.707614 -0.219782
v 0.080112 0.663061 -0.259829
v 0.044809 0.669972 -0.290308
v 0.094544 0.717303 -0.193087
v 0.134741 0.675354 -0.221927
v 0.101907 0.664571 -0.238813
v 0.072426 0.706252 -0.207637
v 0.119032 0.726402 -0.180175
v 0.072257 0.536413 -0.273172
v 0.095501 0.591738 -0.264768
v 0.092663 0.531968 -0.236676
v 0.118430 0.600518 -0.242177
v 0.114010 0.543783 -0.219916
v 0.156073 0.605390 -0.225130
v 0.140412 0.540795 -0.206080
v 0.193470 0.623929 -0.208005
v 0.173740 0.549086 -0.197186
v 0.084174 0.503878 -0.234938
v 0.103848 0.486440 -0.196876
v 0.107736 0.491686 -0.194379
v 0.113075 0.489727 -0.190839
v 0.144965 0.514249 -0.188184
v 0.010678 0.733286 -0.197930
v 0.017842 0.734668 -0.174450
v 0.026572 0.737696 -0.155569
v 0.030904 0.738332 -0.152683
v 0.055599 0.742593 -0.149777
v 0.080050 0.744536 -0.154114
v 0.010422 0.729469 -0.133087
v 0.014927 0.730140 -0.130086
v 0.060620 0.597905 -0.305719
v 0.163389 0.686903 -0.202475
v 0.112424 0.464220 -0.181208
v 0.044599 0.669528 -0.289919
v 0.079885 0.662641 -0.259415
v 0.053896 0.707099 -0.219461
v 0.025191 0.715331 -0.242560
v 0.094400 0.716785 -0.192765
v 0.072280 0.705746 -0.207313
v 0.101675 0.664173 -0.238398
v 0.134523 0.674925 -0.221523
v 0.118898 0.725892 -0.179869
v 0.071899 0.536366 -0.272671
v 0.095174 0.591575 -0.264279
v 0.060315 0.597649 -0.305251
v 0.092309 0.532004 -0.236190
v 0.113660 0.543823 -0.219437
v 0.118106 0.600371 -0.241698
v 0.140054 0.540829 -0.205588
v 0.155751 0.605207 -0.224644
v 0.173378 0.549060 -0.196681
v 0.193171 0.623664 -0.207540
v 0.083829 0.503948 -0.234473
v 0.103513 0.486545 -0.196425
v 0.107402 0.491791 -0.193928
v 0.112740 0.489832 -0.190388
v 0.144610 0.514318 -0.187701
v 0.010662 0.732710 -0.197772
v 0.026563 0.737131 -0.155426
v 0.017830 0.734098 -0.174300
v 0.055587 0.742024 -0.149627
v 0.030895 0.737767 -0.152539
v 0.080032 0.743959 -0.153953
v 0.014926 0.729582 -0.129957
v 0.010420 0.728911 -0.132957
v 0.163183 0.686463 -0.202089
v 0.112090 0.464325 -0.180758
v -0.069782 0.533422 0.314383
v -0.083250 0.521634 0.278227
v -0.139099 0.494348 0.311392
v -0.120381 0.507763 0.354907
v -0.102822 0.523195 0.228698
v -0.171530 0.494620 0.246710
v -0.150735 0.491858 0.281924
v -0.093516 0.517650 0.256680
v -0.115510 0.527267 0.201018
v -0.188920 0.499354 0.211096
v -0.146678 0.462125 0.390544
v -0.173507 0.449318 0.344750
v -0.193582 0.396985 0.363792
v -0.170477 0.408480 0.395040
v -0.187777 0.450340 0.312600
v -0.207280 0.401509 0.335400
v -0.218453 0.449279 0.279764
v -0.232237 0.396350 0.315781
v -0.244337 0.455847 0.240150
v -0.256158 0.398230 0.289019
v -0.199705 0.371369 0.383262
v -0.228599 0.348163 0.359332
v -0.229444 0.351409 0.352620
v -0.235099 0.349037 0.348868
v -0.249233 0.369040 0.316828
v -0.028004 0.550359 0.281277
v -0.018738 0.550142 0.256108
v -0.014117 0.551482 0.233778
v -0.016072 0.551288 0.228505
v -0.036398 0.550889 0.210249
v -0.061145 0.548477 0.198826
v 0.016154 0.546540 0.225059
v 0.014128 0.546342 0.219570
v -0.246023 0.323124 0.356982
v -0.120009 0.507321 0.354763
v -0.138736 0.493908 0.311240
v -0.082927 0.521129 0.278121
v -0.069456 0.532915 0.314285
v -0.102506 0.522691 0.228594
v -0.093193 0.517147 0.256572
v -0.150376 0.491419 0.281770
v -0.171189 0.494179 0.246576
v -0.188589 0.498907 0.210968
v -0.115194 0.526760 0.200919
v -0.170061 0.408131 0.394755
v -0.193166 0.396637 0.363508
v -0.173095 0.448942 0.344522
v -0.146254 0.461749 0.390319
v -0.206864 0.401161 0.335115
v -0.187372 0.449968 0.312367
v -0.231821 0.396001 0.315497
v -0.218057 0.448901 0.279548
v -0.255743 0.397882 0.288735
v -0.243958 0.455463 0.239954
v -0.199289 0.371020 0.382977
v -0.228184 0.347815 0.359047
v -0.229028 0.351061 0.352335
v -0.234683 0.348688 0.348584
v -0.248817 0.368692 0.316544
v -0.027819 0.549777 0.281229
v -0.013932 0.550900 0.233730
v -0.018553 0.549560 0.256059
v -0.036213 0.550307 0.210201
v -0.015887 0.550706 0.228456
v -0.060960 0.547896 0.198777
v 0.014313 0.545760 0.219522
v 0.016339 0.545958 0.225010
v -0.245608 0.322775 0.356698
v 0.101040 0.464516 0.370401
v 0.081345 0.454193 0.389402
v 0.118432 0.424587 0.408294
v 0.141229 0.436922 0.383755
v 0.056424 0.452282 0.418853
v 0.088002 0.419609 0.450734
v 0.103277 0.421051 0.425285
v 0.070641 0.449772 0.402579
v 0.043383 0.453144 0.436887
v 0.071528 0.420170 0.474518
v 0.168330 0.399748 0.380687
v 0.146831 0.386398 0.411124
v 0.160651 0.345827 0.408906
v 0.173989 0.357738 0.385594
v 0.131176 0.384881 0.431211
v 0.147534 0.346831 0.427881
v 0.120334 0.378942 0.461362
v 0.142826 0.338907 0.449299
v 0.104306 0.379299 0.492065
v 0.133892 0.336190 0.473628
v 0.172654 0.326528 0.402026
v 0.164787 0.305271 0.424589
v 0.161098 0.307469 0.427929
v 0.160359 0.304821 0.432357
v 0.146537 0.316652 0.455245
v 0.067678 0.484313 0.358599
v 0.048537 0.486105 0.361525
v 0.032898 0.488121 0.366583
v 0.030167 0.487688 0.369584
v 0.025244 0.483929 0.388400
v 0.025952 0.477885 0.407282
v 0.016817 0.490217 0.350108
v 0.013972 0.489770 0.353227
v 0.166691 0.284568 0.432322
v 0.140972 0.436680 0.383507
v 0.118173 0.424345 0.408054
v 0.081122 0.453898 0.389161
v 0.100821 0.464220 0.370155
v 0.056205 0.451986 0.418615
v 0.070417 0.449478 0.402340
v 0.103018 0.420810 0.425048
v 0.087760 0.419362 0.450501
v 0.071293 0.419918 0.474289
v 0.043167 0.452846 0.436648
v 0.173636 0.357571 0.385382
v 0.160298 0.345660 0.408694
v 0.146513 0.386211 0.410890
v 0.168009 0.399562 0.380445
v 0.147181 0.346664 0.427669
v 0.130857 0.384695 0.430983
v 0.142474 0.338741 0.449087
v 0.120028 0.378751 0.461134
v 0.133540 0.336024 0.473415
v 0.104019 0.379100 0.491839
v 0.172301 0.326362 0.401813
v 0.164434 0.305104 0.424377
v 0.160746 0.307302 0.427717
v 0.160006 0.304655 0.432144
v 0.146184 0.316486 0.455033
v 0.067530 0.483938 0.358412
v 0.032750 0.487746 0.366396
v 0.048390 0.485730 0.361337
v 0.025096 0.483555 0.388213
v 0.030020 0.487313 0.369397
v 0.025804 0.477510 0.407094
v 0.013825 0.489396 0.353039
v 0.016669 0.489842 0.349921
v 0.166338 0.284402 0.432109
v -0.237219 0.538080 -0.042059
v -0.243432 0.523773 -0.082942
v -0.315352 0.511778 -0.061539
v -0.313485 0.527371 -0.012308
v -0.250231 0.522666 -0.139361
v -0.319621 0.509790 -0.138765
v -0.313988 0.507635 -0.094663
v -0.248706 0.518819 -0.107297
v -0.322454 0.513245 -0.181724
v -0.423137 0.442821 -0.015033
v -0.381788 0.480919 -0.053758
v -0.420150 0.430424 -0.062881
v -0.373259 0.480930 -0.089735
v -0.410268 0.435232 -0.095135
v -0.378159 0.480031 -0.135633
v -0.415079 0.429635 -0.128133
v -0.375729 0.485041 -0.181614
v -0.415571 0.432504 -0.161456
v -0.437593 0.402467 -0.054784
v -0.437920 0.375598 -0.098048
v -0.433946 0.379350 -0.103807
v -0.435162 0.376571 -0.110783
v -0.426364 0.399597 -0.142436
v -0.182634 0.543112 -0.069325
v -0.167433 0.537784 -0.092693
v -0.157241 0.535337 -0.114473
v -0.158017 0.534822 -0.120354
v -0.174315 0.535950 -0.144209
v -0.197116 0.536754 -0.162038
v -0.255934 0.525688 -0.172830
v -0.125757 0.523226 -0.115239
v -0.126556 0.522693 -0.121359
v -0.381250 0.493043 0.007009
v -0.446564 0.347812 -0.112238
v -0.313207 0.526828 -0.012242
v -0.315056 0.511236 -0.061495
v -0.243194 0.523175 -0.082919
v -0.236981 0.537481 -0.042025
v -0.249999 0.522071 -0.139336
v -0.248468 0.518223 -0.107277
v -0.313688 0.507097 -0.094624
v -0.319335 0.509253 -0.138718
v -0.322183 0.512707 -0.181684
v -0.255705 0.525090 -0.172804
v -0.422648 0.442420 -0.014996
v -0.381381 0.480474 -0.053715
v -0.380880 0.492563 0.007063
v -0.419624 0.430066 -0.062821
v -0.409740 0.434878 -0.095071
v -0.372843 0.480487 -0.089698
v -0.414547 0.429278 -0.128078
v -0.377763 0.479579 -0.135604
v -0.415058 0.432113 -0.161420
v -0.375359 0.484562 -0.181580
v -0.437050 0.402126 -0.054711
v -0.437361 0.375287 -0.097948
v -0.433386 0.379038 -0.103707
v -0.434602 0.376259 -0.110683
v -0.425813 0.399257 -0.142365
v -0.182564 0.542470 -0.069280
v -0.157170 0.534695 -0.114427
v -0.167363 0.537141 -0.092648
v -0.174245 0.535307 -0.144164
v -0.157947 0.534180 -0.120309
v -0.197045 0.536112 -0.161993
v -0.126485 0.522050 -0.121313
v -0.125686 0.522583 -0.115194
v -0.446004 0.347500 -0.112138
v -0.319070 0.442725 -0.237456
v -0.293335 0.435137 -0.259644
v -0.328080 0.391539 -0.287017
v -0.360722 0.399545 -0.259105
v -0.262093 0.440248 -0.293933
v -0.284443 0.398183 -0.333171
v -0.306073 0.391981 -0.304903
v -0.279092 0.432666 -0.274615
v -0.246314 0.445543 -0.315628
v -0.391335 0.351383 -0.282882
v -0.355928 0.345028 -0.315654
v -0.372786 0.302312 -0.341354
v -0.396994 0.308475 -0.315932
v -0.330430 0.349042 -0.333665
v -0.349861 0.308715 -0.356116
v -0.308352 0.352624 -0.365893
v -0.336014 0.308059 -0.380772
v -0.281144 0.362878 -0.395224
v -0.315826 0.313529 -0.404475
v -0.390491 0.280487 -0.347675
v -0.373386 0.264787 -0.378758
v -0.367659 0.267864 -0.379891
v -0.365124 0.266656 -0.385555
v -0.339096 0.286640 -0.399016
v -0.283131 0.471102 -0.220165
v -0.260325 0.476518 -0.222812
v -0.241716 0.481890 -0.228141
v -0.238295 0.482114 -0.231710
v -0.231348 0.480386 -0.254649
v -0.230814 0.475057 -0.278111
v -0.223086 0.485118 -0.207430
v -0.219523 0.485357 -0.211139
v -0.262496 0.405896 -0.358804
v -0.373571 0.245470 -0.397489
v -0.360420 0.399192 -0.258832
v -0.327779 0.391185 -0.286744
v -0.293034 0.434783 -0.259371
v -0.318768 0.442372 -0.237183
v -0.261791 0.439895 -0.293660
v -0.278790 0.432313 -0.274342
v -0.305771 0.391627 -0.304630
v -0.284142 0.397829 -0.332898
v -0.246013 0.445190 -0.315355
v -0.396692 0.308122 -0.315660
v -0.372485 0.301958 -0.341082
v -0.355627 0.344675 -0.315381
v -0.391033 0.351029 -0.282609
v -0.349559 0.308362 -0.355844
v -0.330128 0.348689 -0.333392
v -0.335712 0.307706 -0.380499
v -0.308051 0.352271 -0.365621
v -0.315524 0.313175 -0.404202
v -0.280842 0.362525 -0.394951
v -0.390189 0.280133 -0.347403
v -0.373084 0.264434 -0.378486
v -0.367357 0.267511 -0.379618
v -0.364822 0.266303 -0.385282
v -0.338794 0.286287 -0.398743
v -0.282899 0.470656 -0.219972
v -0.241484 0.481444 -0.227948
v -0.260093 0.476071 -0.222619
v -0.231116 0.479940 -0.254457
v -0.238062 0.481668 -0.231517
v -0.230581 0.474610 -0.277918
v -0.219291 0.484910 -0.210945
v -0.222853 0.484672 -0.207237
v -0.262194 0.405543 -0.358531
v -0.373269 0.245117 -0.397216
vt 0.321900 0.104400
vt 0.293100 0.119600
vt 0.288900 0.104800
vt 0.303300 0.135000
vt 0.292100 0.089900
vt 0.302200 0.074400
vt 0.105100 0.118100
vt 0.013500 0.110700
vt 0.013400 0.105700
vt 0.105800 0.108400
vt 0.104400 0.128000
vt 0.012500 0.115600
vt 0.012400 0.100800
vt 0.012300 0.095900
vt 0.104700 0.088800
vt 0.105800 0.098600
vt 0.278800 0.120700
vt 0.276300 0.105100
vt 0.280200 0.135000
vt 0.277300 0.089200
vt 0.279700 0.074600
vt 0.192000 0.121400
vt 0.191000 0.106800
vt 0.192300 0.135300
vt 0.191500 0.091900
vt 0.192200 0.077900
vt 0.148600 0.119700
vt 0.148400 0.107600
vt 0.148400 0.131700
vt 0.148700 0.095300
vt 0.148400 0.083300
vt 0.013400 0.105700
vt 0.008500 0.106600
vt 0.007600 0.101800
vt 0.012400 0.100800
vt 0.105100 0.118100
vt 0.013500 0.110700
vt 0.105800 0.108400
vt 0.104400 0.128000
vt 0.012500 0.115600
vt 0.012300 0.095900
vt 0.104700 0.088800
vt 0.105800 0.098600
vt 0.192000 0.121400
vt 0.148600 0.119700
vt 0.148400 0.107600
vt 0.191000 0.106800
vt 0.192300 0.135300
vt 0.148400 0.131700
vt 0.148700 0.095300
vt 0.148400 0.083300
vt 0.192200 0.077900
vt 0.191500 0.091900
vt 0.013400 0.105700
vt 0.008500 0.106600
vt 0.007600 0.101800
vt 0.012400 0.100800
vt 0.105100 0.118100
vt 0.013500 0.110700
vt 0.105800 0.108400
vt 0.104400 0.128000
vt 0.012500 0.115600
vt 0.012300 0.095900
vt 0.104700 0.088800
vt 0.105800 0.098600
vt 0.192000 0.121400
vt 0.148600 0.119700
vt 0.148400 0.107600
vt 0.191000 0.106800
vt 0.192300 0.135300
vt 0.148400 0.131700
vt 0.148700 0.095300
vt 0.148400 0.083300
vt 0.192200 0.077900
vt 0.191500 0.091900
vt 0.013400 0.105700
vt 0.008500 0.106600
vt 0.007600 0.101800
vt 0.012400 0.100800
vt 0.105100 0.118100
vt 0.013500 0.110700
vt 0.105800 0.108400
vt 0.104400 0.128000
vt 0.012500 0.115600
vt 0.012300 0.095900
vt 0.104700 0.088800
vt 0.105800 0.098600
vt 0.192000 0.121400
vt 0.148600 0.119700
vt 0.148400 0.107600
vt 0.191000 0.106800
vt 0.192300 0.135300
vt 0.148400 0.131700
vt 0.148700 0.095300
vt 0.148400 0.083300
vt 0.192200 0.077900
vt 0.191500 0.091900
vt 0.012500 0.115600
vt 0.013500 0.110700
vt 0.643400 0.427700
vt 0.719600 0.439100
vt 0.702400 0.575500
vt 0.606400 0.563500
vt 0.823500 0.438200
vt 0.845400 0.572900
vt 0.765300 0.573000
vt 0.764900 0.445700
vt 0.883900 0.438200
vt 0.921800 0.567100
vt 0.591000 0.698300
vt 0.698000 0.711200
vt 0.706700 0.827300
vt 0.629400 0.811700
vt 0.766900 0.699900
vt 0.766400 0.811000
vt 0.853600 0.707500
vt 0.827400 0.825100
vt 0.944300 0.695900
vt 0.897200 0.822100
vt 0.685900 0.887600
vt 0.759200 0.932000
vt 0.770400 0.922800
vt 0.783100 0.928400
vt 0.847800 0.884300
vt 0.677000 0.333400
vt 0.718300 0.301400
vt 0.756500 0.278500
vt 0.767500 0.278800
vt 0.814700 0.303300
vt 0.852400 0.340900
vt 0.756400 0.268200
vt 0.767800 0.268500
vt 0.785800 0.985300
vt 0.606400 0.563500
vt 0.702400 0.575500
vt 0.719600 0.439100
vt 0.643400 0.427700
vt 0.823500 0.438200
vt 0.764900 0.445700
vt 0.765300 0.573000
vt 0.845400 0.572900
vt 0.921800 0.567100
vt 0.883900 0.438200
vt 0.629400 0.811700
vt 0.706700 0.827300
vt 0.698000 0.711200
vt 0.591000 0.698300
vt 0.766400 0.811000
vt 0.766900 0.699900
vt 0.827400 0.825100
vt 0.853600 0.707500
vt 0.897200 0.822100
vt 0.944300 0.695900
vt 0.685900 0.887600
vt 0.759200 0.932000
vt 0.770400 0.922800
vt 0.783100 0.928400
vt 0.847800 0.884300
vt 0.677000 0.333400
vt 0.756500 0.278500
vt 0.718300 0.301400
vt 0.814700 0.303300
vt 0.767500 0.278800
vt 0.852400 0.340900
vt 0.767800 0.268500
vt 0.756400 0.268200
vt 0.785800 0.985300
vt 0.643400 0.427700
vt 0.719600 0.439100
vt 0.702400 0.575500
vt 0.606400 0.563500
vt 0.823500 0.438200
vt 0.845400 0.572900
vt 0.765300 0.573000
vt 0.764900 0.445700
vt 0.883900 0.438200
vt 0.629400 0.811700
vt 0.698000 0.711200
vt 0.706700 0.827300
vt 0.766900 0.699900
vt 0.766400 0.811000
vt 0.853600 0.707500
vt 0.827400 0.825100
vt 0.944300 0.695900
vt 0.897200 0.822100
vt 0.685900 0.887600
vt 0.759200 0.932000
vt 0.770400 0.922800
vt 0.783100 0.928400
vt 0.847800 0.884300
vt 0.677000 0.333400
vt 0.718300 0.301400
vt 0.756500 0.278500
vt 0.767500 0.278800
vt 0.814700 0.303300
vt 0.852400 0.340900
vt 0.756400 0.268200
vt 0.767800 0.268500
vt 0.591000 0.698300
vt 0.921800 0.567100
vt 0.785800 0.985300
vt 0.606400 0.563500
vt 0.702400 0.575500
vt 0.719600 0.439100
vt 0.643400 0.427700
vt 0.823500 0.438200
vt 0.764900 0.445700
vt 0.765300 0.573000
vt 0.845400 0.572900
vt 0.883900 0.438200
vt 0.629400 0.811700
vt 0.698000 0.711200
vt 0.591000 0.698300
vt 0.706700 0.827300
vt 0.766400 0.811000
vt 0.766900 0.699900
vt 0.827400 0.825100
vt 0.853600 0.707500
vt 0.897200 0.822100
vt 0.944300 0.695900
vt 0.685900 0.887600
vt 0.759200 0.932000
vt 0.770400 0.922800
vt 0.783100 0.928400
vt 0.847800 0.884300
vt 0.677000 0.333400
vt 0.756500 0.278500
vt 0.718300 0.301400
vt 0.814700 0.303300
vt 0.767500 0.278800
vt 0.852400 0.340900
vt 0.767800 0.268500
vt 0.756400 0.268200
vt 0.921800 0.567100
vt 0.785800 0.985300
vt 0.643400 0.427700
vt 0.719600 0.439100
vt 0.702400 0.575500
vt 0.606400 0.563500
vt 0.823500 0.438200
vt 0.845400 0.572900
vt 0.765300 0.573000
vt 0.764900 0.445700
vt 0.883900 0.438200
vt 0.921800 0.567100
vt 0.591000 0.698300
vt 0.698000 0.711200
vt 0.706700 0.827300
vt 0.629400 0.811700
vt 0.766900 0.699900
vt 0.766400 0.811000
vt 0.853600 0.707500
vt 0.827400 0.825100
vt 0.944300 0.695900
vt 0.897200 0.822100
vt 0.685900 0.887600
vt 0.759200 0.932000
vt 0.770400 0.922800
vt 0.783100 0.928400
vt 0.847800 0.884300
vt 0.677000 0.333400
vt 0.718300 0.301400
vt 0.756500 0.278500
vt 0.767500 0.278800
vt 0.814700 0.303300
vt 0.852400 0.340900
vt 0.756400 0.268200
vt 0.767800 0.268500
vt 0.785800 0.985300
vt 0.606400 0.563500
vt 0.702400 0.575500
vt 0.719600 0.439100
vt 0.643400 0.427700
vt 0.823500 0.438200
vt 0.764900 0.445700
vt 0.765300 0.573000
vt 0.845400 0.572900
vt 0.921800 0.567100
vt 0.883900 0.438200
vt 0.629400 0.811700
vt 0.706700 0.827300
vt 0.698000 0.711200
vt 0.591000 0.698300
vt 0.766400 0.811000
vt 0.766900 0.699900
vt 0.827400 0.825100
vt 0.853600 0.707500
vt 0.897200 0.822100
vt 0.944300 0.695900
vt 0.685900 0.887600
vt 0.759200 0.932000
vt 0.770400 0.922800
vt 0.783100 0.928400
vt 0.847800 0.884300
vt 0.677000 0.333400
vt 0.756500 0.278500
vt 0.718300 0.301400
vt 0.814700 0.303300
vt 0.767500 0.278800
vt 0.852400 0.340900
vt 0.767800 0.268500
vt 0.756400 0.268200
vt 0.785800 0.985300
vt 0.643400 0.427700
vt 0.719600 0.439100
vt 0.702400 0.575500
vt 0.606400 0.563500
vt 0.823500 0.438200
vt 0.845400 0.572900
vt 0.765300 0.573000
vt 0.764900 0.445700
vt 0.883900 0.438200
vt 0.921800 0.567100
vt 0.591000 0.698300
vt 0.698000 0.711200
vt 0.706700 0.827300
vt 0.629400 0.811700
vt 0.766900 0.699900
vt 0.766400 0.811000
vt 0.853600 0.707500
vt 0.827400 0.825100
vt 0.944300 0.695900
vt 0.897200 0.822100
vt 0.685900 0.887600
vt 0.759200 0.932000
vt 0.770400 0.922800
vt 0.783100 0.928400
vt 0.847800 0.884300
vt 0.677000 0.333400
vt 0.718300 0.301400
vt 0.756500 0.278500
vt 0.767500 0.278800
vt 0.814700 0.303300
vt 0.852400 0.340900
vt 0.756400 0.268200
vt 0.767800 0.268500
vt 0.785800 0.985300
vt 0.606400 0.563500
vt 0.702400 0.575500
vt 0.719600 0.439100
vt 0.643400 0.427700
vt 0.823500 0.438200
vt 0.764900 0.445700
vt 0.765300 0.573000
vt 0.845400 0.572900
vt 0.921800 0.567100
vt 0.883900 0.438200
vt 0.629400 0.811700
vt 0.706700 0.827300
vt 0.698000 0.711200
vt 0.591000 0.698300
vt 0.766400 0.811000
vt 0.766900 0.699900
vt 0.827400 0.825100
vt 0.853600 0.707500
vt 0.897200 0.822100
vt 0.944300 0.695900
vt 0.685900 0.887600
vt 0.759200 0.932000
vt 0.770400 0.922800
vt 0.783100 0.928400
vt 0.847800 0.884300
vt 0.677000 0.333400
vt 0.756500 0.278500
vt 0.718300 0.301400
vt 0.814700 0.303300
vt 0.767500 0.278800
vt 0.852400 0.340900
vt 0.767800 0.268500
vt 0.756400 0.268200
vt 0.785800 0.985300
vt 0.643400 0.427700
vt 0.719600 0.439100
vt 0.702400 0.575500
vt 0.606400 0.563500
vt 0.823500 0.438200
vt 0.845400 0.572900
vt 0.765300 0.573000
vt 0.764900 0.445700
vt 0.921800 0.567100
vt 0.629400 0.811700
vt 0.698000 0.711200
vt 0.706700 0.827300
vt 0.766900 0.699900
vt 0.766400 0.811000
vt 0.853600 0.707500
vt 0.827400 0.825100
vt 0.944300 0.695900
vt 0.897200 0.822100
vt 0.685900 0.887600
vt 0.759200 0.932000
vt 0.770400 0.922800
vt 0.783100 0.928400
vt 0.847800 0.884300
vt 0.677000 0.333400
vt 0.718300 0.301400
vt 0.756500 0.278500
vt 0.767500 0.278800
vt 0.814700 0.303300
vt 0.852400 0.340900
vt 0.883900 0.438200
vt 0.756400 0.268200
vt 0.767800 0.268500
vt 0.591000 0.698300
vt 0.785800 0.985300
vt 0.606400 0.563500
vt 0.702400 0.575500
vt 0.719600 0.439100
vt 0.643400 0.427700
vt 0.823500 0.438200
vt 0.764900 0.445700
vt 0.765300 0.573000
vt 0.845400 0.572900
vt 0.921800 0.567100
vt 0.883900 0.438200
vt 0.629400 0.811700
vt 0.698000 0.711200
vt 0.591000 0.698300
vt 0.706700 0.827300
vt 0.766400 0.811000
vt 0.766900 0.699900
vt 0.827400 0.825100
vt 0.853600 0.707500
vt 0.897200 0.822100
vt 0.944300 0.695900
vt 0.685900 0.887600
vt 0.759200 0.932000
vt 0.770400 0.922800
vt 0.783100 0.928400
vt 0.847800 0.884300
vt 0.677000 0.333400
vt 0.756500 0.278500
vt 0.718300 0.301400
vt 0.814700 0.303300
vt 0.767500 0.278800
vt 0.852400 0.340900
vt 0.767800 0.268500
vt 0.756400 0.268200
vt 0.785800 0.985300
vt 0.643400 0.427700
vt 0.719600 0.439100
vt 0.702400 0.575500
vt 0.606400 0.563500
vt 0.823500 0.438200
vt 0.845400 0.572900
vt 0.765300 0.573000
vt 0.764900 0.445700
vt 0.883900 0.438200
vt 0.591000 0.698300
vt 0.698000 0.711200
vt 0.706700 0.827300
vt 0.629400 0.811700
vt 0.766900 0.699900
vt 0.766400 0.811000
vt 0.853600 0.707500
vt 0.827400 0.825100
vt 0.944300 0.695900
vt 0.897200 0.822100
vt 0.685900 0.887600
vt 0.759200 0.932000
vt 0.770400 0.922800
vt 0.783100 0.928400
vt 0.847800 0.884300
vt 0.677000 0.333400
vt 0.718300 0.301400
vt 0.756500 0.278500
vt 0.767500 0.278800
vt 0.814700 0.303300
vt 0.852400 0.340900
vt 0.756400 0.268200
vt 0.767800 0.268500
vt 0.921800 0.567100
vt 0.785800 0.985300
vt 0.606400 0.563500
vt 0.702400 0.575500
vt 0.719600 0.439100
vt 0.643400 0.427700
vt 0.823500 0.438200
vt 0.764900 0.445700
vt 0.765300 0.573000
vt 0.845400 0.572900
vt 0.883900 0.438200
vt 0.629400 0.811700
vt 0.706700 0.827300
vt 0.698000 0.711200
vt 0.591000 0.698300
vt 0.766400 0.811000
vt 0.766900 0.699900
vt 0.827400 0.825100
vt 0.853600 0.707500
vt 0.897200 0.822100
vt 0.944300 0.695900
vt 0.685900 0.887600
vt 0.759200 0.932000
vt 0.770400 0.922800
vt 0.783100 0.928400
vt 0.847800 0.884300
vt 0.677000 0.333400
vt 0.756500 0.278500
vt 0.718300 0.301400
vt 0.814700 0.303300
vt 0.767500 0.278800
vt 0.852400 0.340900
vt 0.767800 0.268500
vt 0.756400 0.268200
vt 0.921800 0.567100
vt 0.785800 0.985300
vn 0.0000 -0.9962 -0.0872
vn 0.0000 0.0158 -0.9999
vn 0.9974 -0.0711 -0.0062
vn -0.9974 -0.0711 -0.0062
vn 0.0000 -0.1581 0.9874
vn -0.4196 -0.4683 -0.7775
vn -0.3446 -0.0552 -0.9371
vn 0.7401 0.1838 -0.6468
vn 0.9393 -0.1744 -0.2955
vn -0.8915 0.2757 0.3595
vn -0.7140 0.6836 -0.1511
vn 0.3590 0.9228 0.1398
vn 0.3852 0.5295 0.7558
vn 0.0029 0.2634 -0.9647
vn 0.9755 0.2176 0.0332
vn -0.9782 0.2051 0.0325
vn 0.0025 0.1597 0.9872
vn -0.0378 -0.0029 -0.9993
vn 0.9986 -0.0503 0.0153
vn -0.9951 0.0961 0.0242
vn -0.0353 0.0495 0.9981
vn -0.3834 -0.2254 -0.8956
vn 0.9500 -0.1227 -0.2871
vn -0.8858 0.1969 0.4203
vn 0.3699 0.2212 0.9023
vn -0.0575 -0.9903 -0.1265
vn 0.2661 -0.2535 -0.9300
vn 0.9388 0.2767 -0.2051
vn 0.6387 -0.4470 0.6263
vn -0.1684 0.1058 -0.9800
vn 0.2661 -0.2534 -0.9301
vn -0.2382 -0.9543 0.1803
vn 0.3022 0.9527 -0.0328
vn 0.9388 0.2768 -0.2051
vn 0.6387 -0.4471 0.6263
vn 0.3231 0.1095 0.9400
vn 0.0435 -0.2468 -0.9681
vn -0.3198 0.3045 -0.8972
vn 0.3910 -0.8606 -0.3264
vn 0.7940 -0.6051 0.0578
vn -0.8195 0.5718 -0.0379
vn -0.4006 0.8993 0.1756
vn 0.1310 0.0792 0.9882
vn 0.1186 0.0800 0.9897
vn 0.1040 -0.9200 -0.3779
vn -0.8179 -0.5305 0.2226
vn -0.8222 0.3949 -0.4100
vn 0.0777 0.0720 -0.9944
vn -0.6650 -0.3817 0.6420
vn -0.8180 -0.5305 0.2225
vn 0.3541 -0.7930 -0.4957
vn -0.3451 0.8943 0.2848
vn 0.0777 0.0719 -0.9944
vn 0.5638 0.5933 -0.5746
vn -0.8474 -0.4712 0.2448
vn -0.7563 -0.0869 0.6484
vn -0.2045 -0.7992 -0.5652
vn -0.0550 -0.6392 -0.7671
vn 0.1023 0.6201 0.7778
vn 0.1737 0.8515 0.4947
vn 0.8171 0.2705 -0.5090
vn 0.8493 0.2478 -0.4662
vn -0.4107 -0.8900 0.1980
vn 0.7267 -0.6486 0.2263
vn 0.4770 0.3202 0.8185
vn -0.6152 0.0484 0.7869
vn 0.9421 -0.3344 -0.0245
vn 0.7267 -0.6486 0.2262
vn -0.4108 -0.8900 0.1981
vn -0.6022 -0.7975 0.0365
vn 0.4760 0.8793 0.0189
vn -0.7535 0.6460 0.1223
vn 0.7467 -0.5587 0.3609
vn 0.9819 -0.1894 0.0100
vn -0.2806 -0.7828 0.5555
vn -0.6079 -0.5926 0.5285
vn 0.4446 0.6534 -0.6128
vn 0.2294 0.8397 -0.4921
vn -0.9393 0.3216 -0.1192
vn -0.9221 0.3294 -0.2032
vn -0.3446 -0.0553 -0.9371
vn 0.3589 0.9228 0.1398
vn 0.7402 0.1838 -0.6468
vn 0.2867 0.7919 0.5391
vn 0.3112 0.8212 0.4784
vn 0.5056 0.6548 0.5618
vn 0.4756 0.6263 0.6177
vn 0.5557 0.8147 0.1655
vn 0.6827 0.6500 0.3338
vn 0.6121 0.6729 0.4153
vn 0.4677 0.8329 0.2957
vn 0.5749 0.7955 0.1913
vn 0.6870 0.6502 0.3244
vn 0.6196 0.2827 0.7322
vn 0.6529 0.2243 0.7235
vn 0.6710 -0.0604 0.7390
vn 0.6527 -0.0774 0.7537
vn 0.7475 0.2830 0.6009
vn 0.7603 -0.0774 0.6450
vn 0.8244 0.2318 0.5163
vn 0.8205 -0.1117 0.5606
vn 0.8078 0.3096 0.5016
vn 0.8079 -0.0885 0.5826
vn 0.6741 -0.0402 0.7375
vn 0.6414 -0.0177 0.7670
vn 0.7215 -0.0716 0.6887
vn 0.8205 -0.1412 0.5539
vn 0.7817 -0.1572 0.6036
vn 0.1172 0.8538 0.5072
vn 0.1840 0.8867 0.4242
vn 0.1691 0.9655 0.1982
vn 0.2451 0.9597 0.1377
vn 0.4858 0.8691 0.0930
vn 0.5313 0.8466 0.0318
vn -0.0091 0.9995 -0.0305
vn -0.0095 0.9995 -0.0303
vn 0.7327 -0.0704 0.6769
vn -0.4591 -0.6256 -0.6308
vn -0.5122 -0.6577 -0.5523
vn -0.3209 -0.8178 -0.4776
vn -0.2869 -0.7770 -0.5603
vn -0.5554 -0.8150 -0.1656
vn -0.4673 -0.8334 -0.2953
vn -0.6118 -0.6735 -0.4148
vn -0.6812 -0.6483 -0.3402
vn -0.6981 -0.6390 -0.3232
vn -0.5756 -0.7951 -0.1911
vn -0.6488 0.0668 -0.7580
vn -0.6725 0.0592 -0.7378
vn -0.6577 -0.2249 -0.7189
vn -0.6083 -0.2901 -0.7388
vn -0.7602 0.0778 -0.6450
vn -0.7476 -0.2830 -0.6008
vn -0.8186 0.1061 -0.5645
vn -0.8184 -0.2299 -0.5267
vn -0.8232 0.0651 -0.5640
vn -0.8192 -0.3066 -0.4846
vn -0.6741 0.0403 -0.7375
vn -0.6414 0.0177 -0.7670
vn -0.7215 0.0716 -0.6887
vn -0.8205 0.1412 -0.5539
vn -0.7816 0.1572 -0.6036
vn -0.1170 -0.8541 -0.5069
vn -0.1689 -0.9655 -0.1980
vn -0.1838 -0.8869 -0.4238
vn -0.4856 -0.8692 -0.0928
vn -0.2449 -0.9597 -0.1375
vn -0.5313 -0.8466 -0.0315
vn 0.0096 -0.9995 0.0305
vn 0.0092 -0.9995 0.0307
vn -0.7327 0.0705 -0.6768
vn 0.4958 0.7980 -0.3426
vn 0.4227 0.8219 -0.3818
vn 0.6207 0.4793 -0.6205
vn 0.6151 0.5172 -0.5951
vn 0.0484 0.7532 -0.6560
vn 0.3124 0.4393 -0.8423
vn 0.4558 0.4571 -0.7638
vn 0.2127 0.8011 -0.5595
vn 0.1017 0.7297 -0.6762
vn 0.7994 -0.2551 -0.5439
vn 0.7484 -0.0623 -0.6603
vn 0.7653 -0.3114 -0.5633
vn 0.5767 -0.0709 -0.8139
vn 0.5582 -0.3748 -0.7402
vn 0.4216 -0.1011 -0.9011
vn 0.3685 -0.4129 -0.8329
vn 0.4396 0.0238 -0.8979
vn 0.3675 -0.3630 -0.8563
vn 0.8063 -0.2760 -0.5232
vn 0.7419 -0.2703 -0.6136
vn 0.6094 -0.3593 -0.7068
vn 0.4118 -0.3893 -0.8240
vn 0.3923 -0.4670 -0.7925
vn 0.4274 0.8838 -0.1903
vn 0.3422 0.9041 -0.2560
vn 0.0362 0.9852 -0.1676
vn -0.0619 0.9630 -0.2623
vn -0.1024 0.8194 -0.5640
vn -0.1309 0.7891 -0.6001
vn -0.2528 0.9530 0.1668
vn -0.2530 0.9530 0.1666
vn 0.7439 0.0745 -0.6642
vn 0.3548 0.4756 -0.8049
vn 0.5893 -0.2654 -0.7631
vn -0.6180 -0.5197 0.5899
vn -0.6186 -0.4814 0.6210
vn -0.4220 -0.8202 0.3862
vn -0.5040 -0.7922 0.3440
vn -0.0485 -0.7529 0.6564
vn -0.2129 -0.8009 0.5597
vn -0.4558 -0.4567 0.7640
vn -0.3363 -0.4270 0.8394
vn -0.1017 -0.7291 0.6768
vn -0.7994 0.2559 0.5436
vn -0.7485 0.0634 0.6600
vn -0.7441 -0.0734 0.6640
vn -0.7653 0.3117 0.5631
vn -0.5582 0.3754 0.7399
vn -0.5767 0.0719 0.8138
vn -0.3810 0.3999 0.8336
vn -0.4560 0.1147 0.8826
vn -0.3138 0.2934 0.9030
vn -0.3807 -0.0230 0.9244
vn -0.8064 0.2758 0.5231
vn -0.7418 0.2703 0.6137
vn -0.6094 0.3593 0.7068
vn -0.4120 0.3892 0.8239
vn -0.3925 0.4671 0.7923
vn -0.4278 -0.8836 0.1906
vn -0.0365 -0.9851 0.1679
vn -0.3424 -0.9039 0.2564
vn 0.1020 -0.8192 0.5643
vn 0.0617 -0.9629 0.2626
vn 0.1304 -0.7889 0.6006
vn 0.2529 -0.9530 -0.1666
vn 0.2527 -0.9531 -0.1668
vn -0.3469 -0.4319 0.8325
vn -0.5893 0.2653 0.7631
vn -0.4717 0.8760 -0.1007
vn -0.4391 0.8975 -0.0411
vn -0.5849 0.8059 0.0916
vn -0.6411 0.7640 0.0726
vn -0.3082 0.9081 0.2835
vn -0.4026 0.8555 0.3256
vn -0.4734 0.8485 0.2364
vn -0.3519 0.9223 0.1599
vn -0.3207 0.9048 0.2801
vn -0.3935 0.8663 0.3077
vn -0.7786 0.5397 0.3201
vn -0.7615 0.5639 0.3196
vn -0.7754 0.4707 0.4210
vn -0.7969 0.4190 0.4351
vn -0.6434 0.6467 0.4096
vn -0.6932 0.5013 0.5179
vn -0.5563 0.6666 0.4962
vn -0.6187 0.5014 0.6048
vn -0.5361 0.7152 0.4483
vn -0.6302 0.5204 0.5762
vn -0.7627 0.4969 0.4140
vn -0.7827 0.5013 0.3690
vn -0.7275 0.4905 0.4798
vn -0.6236 0.4676 0.6265
vn -0.6732 0.4417 0.5931
vn -0.4487 0.8797 -0.1578
vn -0.4149 0.9073 -0.0684
vn -0.1863 0.9825 -0.0053
vn -0.1713 0.9811 0.0897
vn -0.2827 0.9047 0.3188
vn -0.2788 0.8889 0.3634
vn 0.1362 0.9869 -0.0860
vn 0.1362 0.9869 -0.0859
vn -0.7165 0.4957 0.4908
vn 0.6729 -0.7377 -0.0552
vn 0.5833 -0.8048 -0.1096
vn 0.4405 -0.8970 0.0362
vn 0.4831 -0.8694 0.1034
vn 0.3076 -0.9083 -0.2836
vn 0.3515 -0.9224 -0.1599
vn 0.4730 -0.8487 -0.2364
vn 0.4163 -0.8502 -0.3222
vn 0.4002 -0.8555 -0.3285
vn 0.3199 -0.9054 -0.2792
vn 0.8017 -0.4457 -0.3982
vn 0.7695 -0.4777 -0.4238
vn 0.7498 -0.5712 -0.3338
vn 0.7914 -0.5435 -0.2798
vn 0.6932 -0.5012 -0.5180
vn 0.6434 -0.6466 -0.4098
vn 0.6208 -0.5056 -0.5991
vn 0.5684 -0.6628 -0.4875
vn 0.6049 -0.5466 -0.5791
vn 0.5124 -0.7213 -0.4660
vn 0.7627 -0.4969 -0.4140
vn 0.7827 -0.5013 -0.3689
vn 0.7275 -0.4905 -0.4797
vn 0.6236 -0.4676 -0.6265
vn 0.6731 -0.4417 -0.5931
vn 0.4485 -0.8798 0.1576
vn 0.1862 -0.9825 0.0053
vn 0.4147 -0.9074 0.0683
vn 0.2826 -0.9048 -0.3186
vn 0.1712 -0.9812 -0.0896
vn 0.2787 -0.8891 -0.3632
vn -0.1362 -0.9869 0.0859
vn -0.1362 -0.9869 0.0860
vn 0.7166 -0.4957 -0.4907
vn 0.2427 0.7321 0.6365
vn 0.2829 0.7602 0.5849
vn 0.4544 0.6332 0.6266
vn 0.4579 0.5789 0.6748
vn 0.5098 0.7982 0.3209
vn 0.5831 0.7232 0.3701
vn 0.5362 0.7001 0.4716
vn 0.4230 0.8030 0.4200
vn 0.5121 0.7920 0.3324
vn 0.5646 0.7362 0.3732
vn 0.7090 0.3237 0.6266
vn 0.7039 0.3514 0.6173
vn 0.7872 0.2562 0.5610
vn 0.8027 0.2005 0.5617
vn 0.7398 0.4597 0.4912
vn 0.8387 0.3050 0.4513
vn 0.7786 0.4994 0.3799
vn 0.8810 0.3223 0.3463
vn 0.7337 0.5522 0.3958
vn 0.8636 0.3383 0.3738
vn 0.7786 0.2849 0.5591
vn 0.7487 0.2848 0.5986
vn 0.8194 0.2865 0.4965
vn 0.8978 0.2881 0.3330
vn 0.8878 0.2511 0.3857
vn 0.1824 0.7422 0.6449
vn 0.2491 0.7761 0.5793
vn 0.2098 0.9050 0.3702
vn 0.2862 0.9060 0.3118
vn 0.5286 0.8008 0.2815
vn 0.5640 0.7859 0.2536
vn -0.0084 0.9909 0.1345
vn -0.0084 0.9909 0.1344
vn 0.8248 0.2941 0.4830
vn -0.4537 -0.5457 -0.7045
vn -0.4693 -0.6322 -0.6165
vn -0.2878 -0.7593 -0.5837
vn -0.2446 -0.7229 -0.6462
vn -0.5095 -0.7986 -0.3203
vn -0.4227 -0.8032 -0.4197
vn -0.5361 -0.7004 -0.4713
vn -0.5856 -0.7147 -0.3824
vn -0.5845 -0.7238 -0.3667
vn -0.5110 -0.7928 -0.3323
vn -0.7759 -0.2258 -0.5891
vn -0.7878 -0.2644 -0.5562
vn -0.7120 -0.3612 -0.6021
vn -0.6799 -0.3248 -0.6575
vn -0.8388 -0.3048 -0.4512
vn -0.7400 -0.4596 -0.4911
vn -0.8775 -0.3259 -0.3517
vn -0.7760 -0.4929 -0.3936
vn -0.8580 -0.3699 -0.3564
vn -0.7392 -0.5637 -0.3685
vn -0.7786 -0.2849 -0.5591
vn -0.7487 -0.2848 -0.5985
vn -0.8194 -0.2865 -0.4965
vn -0.8978 -0.2880 -0.3332
vn -0.8878 -0.2510 -0.3857
vn -0.1824 -0.7424 -0.6447
vn -0.2097 -0.9050 -0.3700
vn -0.2491 -0.7762 -0.5792
vn -0.5284 -0.8009 -0.2815
vn -0.2862 -0.9060 -0.3118
vn -0.5638 -0.7860 -0.2537
vn 0.0082 -0.9909 -0.1343
vn 0.0083 -0.9909 -0.1344
vn -0.8248 -0.2940 -0.4830
vn -0.2363 0.9280 -0.2882
vn -0.2176 0.9506 -0.2214
vn -0.3311 0.9207 -0.2067
vn -0.3632 0.8978 -0.2491
vn -0.1768 0.9766 0.1222
vn -0.3132 0.9459 0.0843
vn -0.2958 0.9550 -0.0238
vn -0.1770 0.9842 -0.0101
vn -0.3325 0.9383 0.0952
vn -0.7768 0.6055 -0.1729
vn -0.6276 0.7611 -0.1637
vn -0.8279 0.5254 -0.1963
vn -0.6008 0.7981 -0.0461
vn -0.8451 0.5299 -0.0708
vn -0.6498 0.7584 0.0508
vn -0.8825 0.4683 0.0431
vn -0.6133 0.7880 0.0534
vn -0.8555 0.5156 0.0474
vn -0.8533 0.4629 -0.2399
vn -0.8564 0.4241 -0.2944
vn -0.8996 0.4055 -0.1621
vn -0.9283 0.3713 0.0178
vn -0.9379 0.3466 0.0122
vn -0.2178 0.9181 -0.3312
vn -0.1980 0.9505 -0.2394
vn 0.0245 0.9916 -0.1267
vn 0.0189 0.9994 -0.0300
vn -0.1532 0.9735 0.1697
vn -0.1643 0.9630 0.2134
vn -0.2010 0.9720 0.1220
vn 0.3533 0.9269 -0.1269
vn 0.3533 0.9269 -0.1268
vn -0.5994 0.7860 -0.1515
vn -0.9009 0.4033 -0.1605
vn 0.3849 -0.8838 0.2658
vn 0.3398 -0.9200 0.1955
vn 0.2175 -0.9507 0.2211
vn 0.2369 -0.9277 0.2885
vn 0.1763 -0.9767 -0.1222
vn 0.1765 -0.9842 0.0101
vn 0.2952 -0.9552 0.0237
vn 0.3127 -0.9461 -0.0843
vn 0.3321 -0.9385 -0.0951
vn 0.2005 -0.9721 -0.1219
vn 0.7771 -0.6051 0.1729
vn 0.6204 -0.7685 0.1567
vn 0.5857 -0.7921 0.1717
vn 0.8281 -0.5250 0.1964
vn 0.8453 -0.5295 0.0708
vn 0.6007 -0.7982 0.0460
vn 0.8812 -0.4710 -0.0397
vn 0.6538 -0.7552 -0.0468
vn 0.8476 -0.5275 -0.0578
vn 0.6168 -0.7850 -0.0580
vn 0.8535 -0.4626 0.2399
vn 0.8564 -0.4240 0.2946
vn 0.8997 -0.4053 0.1622
vn 0.9284 -0.3712 -0.0178
vn 0.9381 -0.3463 -0.0121
vn 0.2177 -0.9181 0.3311
vn -0.0246 -0.9916 0.1267
vn 0.1978 -0.9506 0.2393
vn 0.1530 -0.9736 -0.1696
vn -0.0190 -0.9994 0.0300
vn 0.1642 -0.9631 -0.2132
vn -0.3533 -0.9269 0.1269
vn -0.3533 -0.9268 0.1270
vn 0.9008 -0.4034 0.1606
vn -0.3326 0.7095 -0.6213
vn -0.3753 0.7274 -0.5745
vn -0.4283 0.6712 -0.6050
vn -0.4052 0.6537 -0.6391
vn -0.6525 0.6975 -0.2962
vn -0.6648 0.6489 -0.3701
vn -0.5720 0.6761 -0.4645
vn -0.5443 0.7291 -0.4149
vn -0.6574 0.6821 -0.3201
vn -0.4875 0.5977 -0.6365
vn -0.4953 0.6101 -0.6184
vn -0.5286 0.5877 -0.6126
vn -0.5221 0.5693 -0.6351
vn -0.6047 0.6210 -0.4988
vn -0.6297 0.5823 -0.5143
vn -0.6836 0.6008 -0.4145
vn -0.7017 0.5537 -0.4483
vn -0.6791 0.6055 -0.4148
vn -0.6936 0.5554 -0.4587
vn -0.5220 0.5993 -0.6069
vn -0.4805 0.6078 -0.6323
vn -0.5820 0.5858 -0.5640
vn -0.7118 0.5436 -0.4449
vn -0.6860 0.5265 -0.5022
vn -0.2623 0.7461 -0.6119
vn -0.3362 0.7651 -0.5492
vn -0.3272 0.8911 -0.3145
vn -0.4112 0.8762 -0.2514
vn -0.6473 0.7267 -0.2298
vn -0.6817 0.7037 -0.2005
vn -0.1175 0.9919 -0.0491
vn -0.1176 0.9918 -0.0490
vn -0.6673 0.6415 -0.3783
vn -0.5912 0.5890 -0.5509
vn 0.3982 -0.6421 0.6551
vn 0.4383 -0.6678 0.6017
vn 0.3782 -0.7262 0.5741
vn 0.3326 -0.7046 0.6268
vn 0.6525 -0.6975 0.2961
vn 0.5443 -0.7291 0.4148
vn 0.5720 -0.6761 0.4645
vn 0.6650 -0.6496 0.3684
vn 0.6574 -0.6821 0.3201
vn 0.5080 -0.5804 0.6365
vn 0.5293 -0.5896 0.6101
vn 0.5004 -0.6129 0.6115
vn 0.4674 -0.6056 0.6441
vn 0.6297 -0.5823 0.5143
vn 0.6047 -0.6210 0.4988
vn 0.7026 -0.5529 0.4480
vn 0.6847 -0.6009 0.4125
vn 0.6934 -0.5518 0.4633
vn 0.6770 -0.6053 0.4187
vn 0.5221 -0.5993 0.6069
vn 0.4804 -0.6078 0.6323
vn 0.5819 -0.5858 0.5640
vn 0.7118 -0.5436 0.4449
vn 0.6860 -0.5265 0.5022
vn 0.2623 -0.7462 0.6119
vn 0.3271 -0.8911 0.3145
vn 0.3362 -0.7651 0.5491
vn 0.6473 -0.7268 0.2298
vn 0.4112 -0.8762 0.2514
vn 0.6816 -0.7037 0.2006
vn 0.1174 -0.9919 0.0491
vn 0.1174 -0.9919 0.0492
vn 0.6644 -0.6445 0.3785
vn 0.5912 -0.5890 0.5509
s 1
f 1/1/1 2/2/2 3/3/3
f 1/1/1 4/4/4 2/2/2
f 1/1/1 5/5/5 4/6/4
f 1/1/1 3/3/3 5/5/5
f 6/7/6 7/8/7 8/9/8
f 8/9/8 9/10/9 6/7/6
f 10/11/10 11/12/11 7/8/7
f 7/8/7 6/7/6 10/11/10
f 12/13/12 11/14/11 10/15/10
f 10/15/10 13/16/13 12/13/12
f 8/9/8 12/13/12 13/16/13
f 13/16/13 9/10/9 8/9/8
f 14/17/14 15/18/15 3/3/3
f 3/3/3 2/2/2 14/17/14
f 16/19/16 14/17/14 2/2/2
f 2/2/2 4/4/4 16/19/16
f 5/5/5 17/20/17 16/21/16
f 16/21/16 4/6/4 5/5/5
f 3/3/3 15/18/15 17/20/17
f 17/20/17 5/5/5 3/3/3
f 14/17/14 18/22/18 19/23/19
f 19/23/19 15/18/15 14/17/14
f 20/24/20 18/22/18 14/17/14
f 14/17/14 16/19/16 20/24/20
f 21/25/21 20/26/20 16/21/16
f 16/21/16 17/20/17 21/25/21
f 19/23/19 21/25/21 17/20/17
f 17/20/17 15/18/15 19/23/19
f 22/27/22 23/28/23 19/23/19
f 19/23/19 18/22/18 22/27/22
f 24/29/24 22/27/22 18/22/18
f 18/22/18 20/24/20 24/29/24
f 25/30/25 24/31/24 20/26/20
f 20/26/20 21/25/21 25/30/25
f 19/23/19 23/28/23 25/30/25
f 25/30/25 21/25/21 19/23/19
f 6/7/6 9/10/9 23/28/23
f 23/28/23 22/27/22 6/7/6
f 24/29/24 10/11/10 6/7/6
f 6/7/6 22/27/22 24/29/24
f 13/16/13 10/15/10 24/31/24
f 24/31/24 25/30/25 13/16/13
f 9/10/9 13/16/13 25/30/25
f 25/30/25 23/28/23 9/10/9
s 2
f 26/32/26 27/33/27 28/34/28
f 28/34/28 29/35/29 26/32/26
s 3
f 30/36/30 27/37/31 26/32/26
f 26/32/26 31/38/32 30/36/30
f 32/39/33 28/40/34 27/37/31
f 27/37/31 30/36/30 32/39/33
f 29/35/35 28/41/34 32/42/33
f 32/42/33 33/43/36 29/35/35
f 26/32/26 29/35/35 33/43/36
f 33/43/36 31/38/32 26/32/26
f 34/44/37 35/45/38 36/46/39
f 36/46/39 37/47/40 34/44/37
f 38/48/41 39/49/42 35/45/38
f 35/45/38 34/44/37 38/48/41
f 40/50/43 39/51/42 38/52/41
f 38/52/41 41/53/44 40/50/43
f 37/47/40 36/46/39 40/50/43
f 40/50/43 41/53/44 37/47/40
f 30/36/30 31/38/32 36/46/39
f 36/46/39 35/45/38 30/36/30
f 39/49/42 32/39/33 30/36/30
f 30/36/30 35/45/38 39/49/42
f 33/43/36 32/42/33 39/51/42
f 39/51/42 40/50/43 33/43/36
f 31/38/32 33/43/36 40/50/43
f 40/50/43 36/46/39 31/38/32
s 4
f 42/54/45 43/55/46 44/56/47
f 44/56/47 45/57/48 42/54/45
s 5
f 46/58/49 43/59/50 42/54/45
f 42/54/45 47/60/51 46/58/49
f 48/61/52 44/62/47 43/59/50
f 43/59/50 46/58/49 48/61/52
f 45/57/53 44/63/47 48/64/52
f 48/64/52 49/65/54 45/57/53
f 42/54/45 45/57/53 49/65/54
f 49/65/54 47/60/51 42/54/45
f 50/66/55 51/67/56 52/68/57
f 52/68/57 53/69/58 50/66/55
f 54/70/59 55/71/60 51/67/56
f 51/67/56 50/66/55 54/70/59
f 56/72/61 55/73/60 54/74/59
f 54/74/59 57/75/62 56/72/61
f 53/69/58 52/68/57 56/72/61
f 56/72/61 57/75/62 53/69/58
f 46/58/49 47/60/51 52/68/57
f 52/68/57 51/67/56 46/58/49
f 55/71/60 48/61/52 46/58/49
f 46/58/49 51/67/56 55/71/60
f 49/65/54 48/64/52 55/73/60
f 55/73/60 56/72/61 49/65/54
f 47/60/51 49/65/54 56/72/61
f 56/72/61 52/68/57 47/60/51
s 6
f 58/76/63 59/77/64 60/78/65
f 60/78/65 61/79/66 58/76/63
s 7
f 62/80/67 59/81/68 58/76/69
f 58/76/69 63/82/70 62/80/67
f 64/83/71 60/84/65 59/81/68
f 59/81/68 62/80/67 64/83/71
f 61/79/66 60/85/65 64/86/71
f 64/86/71 65/87/72 61/79/66
f 58/76/69 61/79/66 65/87/72
f 65/87/72 63/82/70 58/76/69
f 66/88/73 67/89/74 68/90/75
f 68/90/75 69/91/76 66/88/73
f 70/92/77 71/93/78 67/89/74
f 67/89/74 66/88/73 70/92/77
f 72/94/79 71/95/78 70/96/77
f 70/96/77 73/97/80 72/94/79
f 69/91/76 68/90/75 72/94/79
f 72/94/79 73/97/80 69/91/76
f 62/80/67 63/82/70 68/90/75
f 68/90/75 67/89/74 62/80/67
f 71/93/78 64/83/71 62/80/67
f 62/80/67 67/89/74 71/93/78
f 65/87/72 64/86/71 71/95/78
f 71/95/78 72/94/79 65/87/72
f 63/82/70 65/87/72 72/94/79
f 72/94/79 68/90/75 63/82/70
s off
f 7/8/81 11/12/11 12/98/82
f 12/98/12 8/99/83 7/8/81
s 10
f 74/100/84 75/101/85 76/102/86
f 76/102/86 77/103/87 74/100/84
f 78/104/88 79/105/89 80/106/90
f 80/106/90 81/107/91 78/104/88
f 78/104/88 82/108/92 83/109/93
f 83/109/93 79/105/89 78/104/88
f 84/110/94 85/111/95 86/112/96
f 86/112/96 87/113/97 84/110/94
f 85/111/95 88/114/98 89/115/99
f 89/115/99 86/112/96 85/111/95
f 89/115/99 88/114/98 90/116/100
f 90/116/100 91/117/101 89/115/99
f 90/116/100 92/118/102 93/119/103
f 93/119/103 91/117/101 90/116/100
f 87/113/97 86/112/96 94/120/104
f 95/121/105 86/112/96 89/115/99
f 89/115/99 96/122/106 95/121/105
f 89/115/99 91/117/101 97/123/107
f 97/123/107 96/122/106 89/115/99
f 97/123/107 91/117/101 98/124/108
f 74/100/84 99/125/109 75/101/85
f 100/126/110 101/127/111 81/107/91
f 81/107/91 75/101/85 100/126/110
f 81/107/91 102/128/112 103/129/113
f 103/129/113 78/104/88 81/107/91
f 78/104/88 104/130/114 82/108/92
f 78/104/88 103/129/113 104/130/114
f 99/125/109 100/126/110 75/101/85
f 81/107/91 101/127/111 102/128/112
f 102/128/112 101/127/111 105/131/115
f 105/131/115 106/132/116 102/128/112
f 85/111/95 84/110/94 77/103/87
f 77/103/87 76/102/86 85/111/95
f 88/114/98 85/111/95 76/102/86
f 76/102/86 80/106/90 88/114/98
f 79/105/89 90/116/100 88/114/98
f 88/114/98 80/106/90 79/105/89
f 92/118/102 90/116/100 79/105/89
f 79/105/89 83/109/93 92/118/102
f 97/123/107 107/133/117 96/122/106
f 96/122/106 107/133/117 95/121/105
f 81/107/91 80/106/90 76/102/86
f 76/102/86 75/101/85 81/107/91
f 86/112/96 95/121/105 94/120/104
f 91/117/101 93/119/103 98/124/108
s 11
f 108/134/118 109/135/119 110/136/120
f 110/136/120 111/137/121 108/134/118
f 112/138/122 113/139/123 114/140/124
f 114/140/124 115/141/125 112/138/122
f 115/141/125 116/142/126 117/143/127
f 117/143/127 112/138/122 115/141/125
f 118/144/128 119/145/129 120/146/130
f 120/146/130 121/147/131 118/144/128
f 120/146/130 119/145/129 122/148/132
f 122/148/132 123/149/133 120/146/130
f 122/148/132 124/150/134 125/151/135
f 125/151/135 123/149/133 122/148/132
f 124/150/134 126/152/136 127/153/137
f 127/153/137 125/151/135 124/150/134
f 118/144/128 128/154/138 119/145/129
f 129/155/139 130/156/140 122/148/132
f 122/148/132 119/145/129 129/155/139
f 122/148/132 130/156/140 131/157/141
f 131/157/141 124/150/134 122/148/132
f 131/157/141 132/158/142 124/150/134
f 111/137/121 110/136/120 133/159/143
f 113/139/123 134/160/144 135/161/145
f 135/161/145 110/136/120 113/139/123
f 113/139/123 112/138/122 136/162/146
f 136/162/146 137/163/147 113/139/123
f 112/138/122 117/143/127 138/164/148
f 112/138/122 138/164/148 136/162/146
f 133/159/143 110/136/120 135/161/145
f 113/139/123 137/163/147 134/160/144
f 137/163/147 139/165/149 140/166/150
f 140/166/150 134/160/144 137/163/147
f 109/135/119 108/134/118 121/147/131
f 121/147/131 120/146/130 109/135/119
f 123/149/133 114/140/124 109/135/119
f 109/135/119 120/146/130 123/149/133
f 115/141/125 114/140/124 123/149/133
f 123/149/133 125/151/135 115/141/125
f 116/142/126 115/141/125 125/151/135
f 125/151/135 127/153/137 116/142/126
f 131/157/141 130/156/140 141/167/151
f 130/156/140 129/155/139 141/167/151
f 113/139/123 110/136/120 109/135/119
f 109/135/119 114/140/124 113/139/123
f 119/145/129 128/154/138 129/155/139
f 124/150/134 132/158/142 126/152/136
s 12
f 142/168/152 143/169/153 144/170/154
f 144/170/154 145/171/155 142/168/152
f 146/172/156 147/173/157 148/174/158
f 148/174/158 149/175/159 146/172/156
f 146/172/156 150/176/160 147/173/157
f 151/177/161 152/178/162 153/179/163
f 152/178/162 154/180/164 155/181/165
f 155/181/165 153/179/163 152/178/162
f 155/181/165 154/180/164 156/182/166
f 156/182/166 157/183/167 155/181/165
f 156/182/166 158/184/168 159/185/169
f 159/185/169 157/183/167 156/182/166
f 151/177/161 153/179/163 160/186/170
f 161/187/171 153/179/163 155/181/165
f 155/181/165 162/188/172 161/187/171
f 155/181/165 157/183/167 163/189/173
f 163/189/173 162/188/172 155/181/165
f 163/189/173 157/183/167 164/190/174
f 142/168/152 165/191/175 143/169/153
f 166/192/176 167/193/177 149/175/159
f 149/175/159 143/169/153 166/192/176
f 149/175/159 168/194/178 169/195/179
f 169/195/179 146/172/156 149/175/159
f 146/172/156 170/196/180 150/176/160
f 146/172/156 169/195/179 170/196/180
f 165/191/175 166/192/176 143/169/153
f 149/175/159 167/193/177 168/194/178
f 168/194/178 167/193/177 171/197/181
f 171/197/181 172/198/182 168/194/178
f 144/170/154 173/199/183 145/171/155
f 154/180/164 152/178/162 144/170/154
f 144/170/154 148/174/158 154/180/164
f 147/173/157 156/182/166 154/180/164
f 154/180/164 148/174/158 147/173/157
f 158/184/168 156/182/166 147/173/157
f 147/173/157 174/200/184 158/184/168
f 163/189/173 175/201/185 162/188/172
f 162/188/172 175/201/185 161/187/171
f 149/175/159 148/174/158 144/170/154
f 144/170/154 143/169/153 149/175/159
f 153/179/163 161/187/171 160/186/170
f 157/183/167 159/185/169 164/190/174
s 13
f 176/202/186 177/203/187 178/204/188
f 178/204/188 179/205/189 176/202/186
f 180/206/190 181/207/191 182/208/192
f 182/208/192 183/209/193 180/206/190
f 180/206/190 183/209/193 184/210/194
f 185/211/195 186/212/196 187/213/197
f 186/212/196 188/214/198 189/215/199
f 189/215/199 190/216/200 186/212/196
f 189/215/199 191/217/201 192/218/202
f 192/218/202 190/216/200 189/215/199
f 191/217/201 193/219/203 194/220/204
f 194/220/204 192/218/202 191/217/201
f 185/211/195 195/221/205 188/214/198
f 196/222/206 197/223/207 189/215/199
f 189/215/199 188/214/198 196/222/206
f 189/215/199 197/223/207 198/224/208
f 198/224/208 191/217/201 189/215/199
f 198/224/208 199/225/209 191/217/201
f 179/205/189 178/204/188 200/226/210
f 181/207/191 201/227/211 202/228/212
f 202/228/212 178/204/188 181/207/191
f 181/207/191 180/206/190 203/229/213
f 203/229/213 204/230/214 181/207/191
f 180/206/190 184/210/194 205/231/215
f 180/206/190 205/231/215 203/229/213
f 200/226/210 178/204/188 202/228/212
f 181/207/191 204/230/214 201/227/211
f 204/230/214 206/232/216 207/233/217
f 207/233/217 201/227/211 204/230/214
f 177/203/187 187/213/197 186/212/196
f 190/216/200 182/208/192 177/203/187
f 177/203/187 186/212/196 190/216/200
f 183/209/193 182/208/192 190/216/200
f 190/216/200 192/218/202 183/209/193
f 208/234/218 183/209/193 192/218/202
f 192/218/202 194/220/204 208/234/218
f 198/224/208 197/223/207 209/235/219
f 197/223/207 196/222/206 209/235/219
f 181/207/191 178/204/188 177/203/187
f 177/203/187 182/208/192 181/207/191
f 188/214/198 195/221/205 196/222/206
f 191/217/201 199/225/209 193/219/203
s 12
f 150/176/160 174/200/184 147/173/157
s 13
f 183/209/193 208/234/218 184/210/194
s 12
f 144/170/154 152/178/162 173/199/183
s 13
f 177/203/187 176/202/186 187/213/197
s 12
f 151/177/161 173/199/183 152/178/162
s 13
f 185/211/195 188/214/198 186/212/196
s 14
f 210/236/220 211/237/221 212/238/222
f 212/238/222 213/239/223 210/236/220
f 214/240/224 215/241/225 216/242/226
f 216/242/226 217/243/227 214/240/224
f 214/240/224 218/244/228 219/245/229
f 219/245/229 215/241/225 214/240/224
f 220/246/230 221/247/231 222/248/232
f 222/248/232 223/249/233 220/246/230
f 221/247/231 224/250/234 225/251/235
f 225/251/235 222/248/232 221/247/231
f 225/251/235 224/250/234 226/252/236
f 226/252/236 227/253/237 225/251/235
f 226/252/236 228/254/238 229/255/239
f 229/255/239 227/253/237 226/252/236
f 223/249/233 222/248/232 230/256/240
f 231/257/241 222/248/232 225/251/235
f 225/251/235 232/258/242 231/257/241
f 225/251/235 227/253/237 233/259/243
f 233/259/243 232/258/242 225/251/235
f 233/259/243 227/253/237 234/260/244
f 210/236/220 235/261/245 211/237/221
f 236/262/246 237/263/247 217/243/227
f 217/243/227 211/237/221 236/262/246
f 217/243/227 238/264/248 239/265/249
f 239/265/249 214/240/224 217/243/227
f 214/240/224 240/266/250 218/244/228
f 214/240/224 239/265/249 240/266/250
f 235/261/245 236/262/246 211/237/221
f 217/243/227 237/263/247 238/264/248
f 238/264/248 237/263/247 241/267/251
f 241/267/251 242/268/252 238/264/248
f 221/247/231 220/246/230 213/239/223
f 213/239/223 212/238/222 221/247/231
f 224/250/234 221/247/231 212/238/222
f 212/238/222 216/242/226 224/250/234
f 215/241/225 226/252/236 224/250/234
f 224/250/234 216/242/226 215/241/225
f 228/254/238 226/252/236 215/241/225
f 215/241/225 219/245/229 228/254/238
f 233/259/243 243/269/253 232/258/242
f 232/258/242 243/269/253 231/257/241
f 217/243/227 216/242/226 212/238/222
f 212/238/222 211/237/221 217/243/227
f 222/248/232 231/257/241 230/256/240
f 227/253/237 229/255/239 234/260/244
s 15
f 244/270/254 245/271/255 246/272/256
f 246/272/256 247/273/257 244/270/254
f 248/274/258 249/275/259 250/276/260
f 250/276/260 251/277/261 248/274/258
f 251/277/261 252/278/262 253/279/263
f 253/279/263 248/274/258 251/277/261
f 254/280/264 255/281/265 256/282/266
f 256/282/266 257/283/267 254/280/264
f 256/282/266 255/281/265 258/284/268
f 258/284/268 259/285/269 256/282/266
f 258/284/268 260/286/270 261/287/271
f 261/287/271 259/285/269 258/284/268
f 260/286/270 262/288/272 263/289/273
f 263/289/273 261/287/271 260/286/270
f 254/280/264 264/290/274 255/281/265
f 265/291/275 266/292/276 258/284/268
f 258/284/268 255/281/265 265/291/275
f 258/284/268 266/292/276 267/293/277
f 267/293/277 260/286/270 258/284/268
f 267/293/277 268/294/278 260/286/270
f 247/273/257 246/272/256 269/295/279
f 249/275/259 270/296/280 271/297/281
f 271/297/281 246/272/256 249/275/259
f 249/275/259 248/274/258 272/298/282
f 272/298/282 273/299/283 249/275/259
f 248/274/258 253/279/263 274/300/284
f 248/274/258 274/300/284 272/298/282
f 269/295/279 246/272/256 271/297/281
f 249/275/259 273/299/283 270/296/280
f 273/299/283 275/301/285 276/302/286
f 276/302/286 270/296/280 273/299/283
f 245/271/255 244/270/254 257/283/267
f 257/283/267 256/282/266 245/271/255
f 259/285/269 250/276/260 245/271/255
f 245/271/255 256/282/266 259/285/269
f 251/277/261 250/276/260 259/285/269
f 259/285/269 261/287/271 251/277/261
f 252/278/262 251/277/261 261/287/271
f 261/287/271 263/289/273 252/278/262
f 267/293/277 266/292/276 277/303/287
f 266/292/276 265/291/275 277/303/287
f 249/275/259 246/272/256 245/271/255
f 245/271/255 250/276/260 249/275/259
f 255/281/265 264/290/274 265/291/275
f 260/286/270 268/294/278 262/288/272
s 16
f 278/304/288 279/305/289 280/306/290
f 280/306/290 281/307/291 278/304/288
f 282/308/292 283/309/293 284/310/294
f 284/310/294 285/311/295 282/308/292
f 282/308/292 286/312/296 287/313/297
f 287/313/297 283/309/293 282/308/292
f 288/314/298 289/315/299 290/316/300
f 290/316/300 291/317/301 288/314/298
f 289/315/299 292/318/302 293/319/303
f 293/319/303 290/316/300 289/315/299
f 293/319/303 292/318/302 294/320/304
f 294/320/304 295/321/305 293/319/303
f 294/320/304 296/322/306 297/323/307
f 297/323/307 295/321/305 294/320/304
f 291/317/301 290/316/300 298/324/308
f 299/325/309 290/316/300 293/319/303
f 293/319/303 300/326/310 299/325/309
f 293/319/303 295/321/305 301/327/311
f 301/327/311 300/326/310 293/319/303
f 301/327/311 295/321/305 302/328/312
f 278/304/288 303/329/313 279/305/289
f 304/330/314 305/331/315 285/311/295
f 285/311/295 279/305/289 304/330/314
f 285/311/295 306/332/316 307/333/317
f 307/333/317 282/308/292 285/311/295
f 282/308/292 308/334/318 286/312/296
f 282/308/292 307/333/317 308/334/318
f 303/329/313 304/330/314 279/305/289
f 285/311/295 305/331/315 306/332/316
f 306/332/316 305/331/315 309/335/319
f 309/335/319 310/336/320 306/332/316
f 289/315/299 288/314/298 281/307/291
f 281/307/291 280/306/290 289/315/299
f 292/318/302 289/315/299 280/306/290
f 280/306/290 284/310/294 292/318/302
f 283/309/293 294/320/304 292/318/302
f 292/318/302 284/310/294 283/309/293
f 296/322/306 294/320/304 283/309/293
f 283/309/293 287/313/297 296/322/306
f 301/327/311 311/337/321 300/326/310
f 300/326/310 311/337/321 299/325/309
f 285/311/295 284/310/294 280/306/290
f 280/306/290 279/305/289 285/311/295
f 290/316/300 299/325/309 298/324/308
f 295/321/305 297/323/307 302/328/312
s 17
f 312/338/322 313/339/323 314/340/324
f 314/340/324 315/341/325 312/338/322
f 316/342/326 317/343/327 318/344/328
f 318/344/328 319/345/329 316/342/326
f 319/345/329 320/346/330 321/347/331
f 321/347/331 316/342/326 319/345/329
f 322/348/332 323/349/333 324/350/334
f 324/350/334 325/351/335 322/348/332
f 324/350/334 323/349/333 326/352/336
f 326/352/336 327/353/337 324/350/334
f 326/352/336 328/354/338 329/355/339
f 329/355/339 327/353/337 326/352/336
f 328/354/338 330/356/340 331/357/341
f 331/357/341 329/355/339 328/354/338
f 322/348/332 332/358/342 323/349/333
f 333/359/343 334/360/344 326/352/336
f 326/352/336 323/349/333 333/359/343
f 326/352/336 334/360/344 335/361/345
f 335/361/345 328/354/338 326/352/336
f 335/361/345 336/362/346 328/354/338
f 315/341/325 314/340/324 337/363/347
f 317/343/327 338/364/348 339/365/349
f 339/365/349 314/340/324 317/343/327
f 317/343/327 316/342/326 340/366/350
f 340/366/350 341/367/351 317/343/327
f 316/342/326 321/347/331 342/368/352
f 316/342/326 342/368/352 340/366/350
f 337/363/347 314/340/324 339/365/349
f 317/343/327 341/367/351 338/364/348
f 341/367/351 343/369/353 344/370/354
f 344/370/354 338/364/348 341/367/351
f 313/339/323 312/338/322 325/351/335
f 325/351/335 324/350/334 313/339/323
f 327/353/337 318/344/328 313/339/323
f 313/339/323 324/350/334 327/353/337
f 319/345/329 318/344/328 327/353/337
f 327/353/337 329/355/339 319/345/329
f 320/346/330 319/345/329 329/355/339
f 329/355/339 331/357/341 320/346/330
f 335/361/345 334/360/344 345/371/355
f 334/360/344 333/359/343 345/371/355
f 317/343/327 314/340/324 313/339/323
f 313/339/323 318/344/328 317/343/327
f 323/349/333 332/358/342 333/359/343
f 328/354/338 336/362/346 330/356/340
s 18
f 346/372/356 347/373/357 348/374/358
f 348/374/358 349/375/359 346/372/356
f 350/376/360 351/377/361 352/378/362
f 352/378/362 353/379/363 350/376/360
f 350/376/360 354/380/364 351/377/361
f 355/381/365 356/382/366 357/383/367
f 356/382/366 358/384/368 359/385/369
f 359/385/369 357/383/367 356/382/366
f 359/385/369 358/384/368 360/386/370
f 360/386/370 361/387/371 359/385/369
f 360/386/370 362/388/372 363/389/373
f 363/389/373 361/387/371 360/386/370
f 355/381/365 357/383/367 364/390/374
f 365/391/375 357/383/367 359/385/369
f 359/385/369 366/392/376 365/391/375
f 359/385/369 361/387/371 367/393/377
f 367/393/377 366/392/376 359/385/369
f 367/393/377 361/387/371 368/394/378
f 346/372/356 369/395/379 347/373/357
f 370/396/380 371/397/381 353/379/363
f 353/379/363 347/373/357 370/396/380
f 353/379/363 372/398/382 373/399/383
f 373/399/383 350/376/360 353/379/363
f 350/376/360 374/400/384 375/401/385
f 350/376/360 373/399/383 374/400/384
f 369/395/379 370/396/380 347/373/357
f 353/379/363 371/397/381 372/398/382
f 372/398/382 371/397/381 376/402/386
f 376/402/386 377/403/387 372/398/382
f 356/382/366 378/404/388 349/375/359
f 349/375/359 348/374/358 356/382/366
f 358/384/368 356/382/366 348/374/358
f 348/374/358 352/378/362 358/384/368
f 351/377/361 360/386/370 358/384/368
f 358/384/368 352/378/362 351/377/361
f 354/380/364 360/386/370 351/377/361
f 367/393/377 379/405/389 366/392/376
f 366/392/376 379/405/389 365/391/375
f 353/379/363 352/378/362 348/374/358
f 348/374/358 347/373/357 353/379/363
f 357/383/367 365/391/375 364/390/374
f 361/387/371 363/389/373 368/394/378
s 19
f 380/406/390 381/407/391 382/408/392
f 382/408/392 383/409/393 380/406/390
f 384/410/394 385/411/395 386/412/396
f 386/412/396 387/413/397 384/410/394
f 384/410/394 388/414/398 389/415/399
f 390/416/400 391/417/401 392/418/402
f 391/417/401 393/419/403 394/420/404
f 394/420/404 395/421/405 391/417/401
f 394/420/404 396/422/406 397/423/407
f 397/423/407 395/421/405 394/420/404
f 396/422/406 398/424/408 399/425/409
f 399/425/409 397/423/407 396/422/406
f 390/416/400 400/426/410 393/419/403
f 401/427/411 402/428/412 394/420/404
f 394/420/404 393/419/403 401/427/411
f 394/420/404 402/428/412 403/429/413
f 403/429/413 396/422/406 394/420/404
f 403/429/413 404/430/414 396/422/406
f 383/409/393 382/408/392 405/431/415
f 385/411/395 406/432/416 407/433/417
f 407/433/417 382/408/392 385/411/395
f 385/411/395 384/410/394 408/434/418
f 408/434/418 409/435/419 385/411/395
f 384/410/394 389/415/399 410/436/420
f 384/410/394 410/436/420 408/434/418
f 405/431/415 382/408/392 407/433/417
f 385/411/395 409/435/419 406/432/416
f 409/435/419 411/437/421 412/438/422
f 412/438/422 406/432/416 409/435/419
f 381/407/391 380/406/390 392/418/402
f 392/418/402 391/417/401 381/407/391
f 395/421/405 386/412/396 381/407/391
f 381/407/391 391/417/401 395/421/405
f 387/413/397 386/412/396 395/421/405
f 395/421/405 397/423/407 387/413/397
f 388/414/398 397/423/407 399/425/409
f 403/429/413 402/428/412 413/439/423
f 402/428/412 401/427/411 413/439/423
f 385/411/395 382/408/392 381/407/391
f 381/407/391 386/412/396 385/411/395
f 393/419/403 400/426/410 401/427/411
f 396/422/406 404/430/414 398/424/408
s 18
f 354/380/364 362/388/372 360/386/370
s 19
f 388/414/398 387/413/397 397/423/407
s 18
f 355/381/365 378/404/388 356/382/366
s 19
f 390/416/400 393/419/403 391/417/401
s 18
f 350/376/360 375/401/385 354/380/364
s 19
f 384/410/394 387/413/397 388/414/398
s 20
f 414/440/424 415/441/425 416/442/426
f 416/442/426 417/443/427 414/440/424
f 418/444/428 419/445/429 420/446/430
f 420/446/430 421/447/431 418/444/428
f 418/444/428 422/448/432 419/445/429
f 423/449/433 424/450/434 425/451/435
f 425/451/435 426/452/436 423/449/433
f 424/450/434 427/453/437 428/454/438
f 428/454/438 425/451/435 424/450/434
f 428/454/438 427/453/437 429/455/439
f 429/455/439 430/456/440 428/454/438
f 429/455/439 431/457/441 432/458/442
f 432/458/442 430/456/440 429/455/439
f 426/452/436 425/451/435 433/459/443
f 434/460/444 425/451/435 428/454/438
f 428/454/438 435/461/445 434/460/444
f 428/454/438 430/456/440 436/462/446
f 436/462/446 435/461/445 428/454/438
f 436/462/446 430/456/440 437/463/447
f 414/440/424 438/464/448 415/441/425
f 439/465/449 440/466/450 421/447/431
f 421/447/431 415/441/425 439/465/449
f 421/447/431 441/467/451 442/468/452
f 442/468/452 418/444/428 421/447/431
f 418/444/428 443/469/453 422/448/432
f 418/444/428 442/468/452 443/469/453
f 438/464/448 439/465/449 415/441/425
f 421/447/431 440/466/450 441/467/451
f 441/467/451 440/466/450 444/470/454
f 444/470/454 445/471/455 441/467/451
f 424/450/434 423/449/433 417/443/427
f 417/443/427 416/442/426 424/450/434
f 427/453/437 424/450/434 416/442/426
f 416/442/426 420/446/430 427/453/437
f 419/445/429 429/455/439 427/453/437
f 427/453/437 420/446/430 419/445/429
f 431/457/441 429/455/439 419/445/429
f 419/445/429 446/472/456 431/457/441
f 436/462/446 447/473/457 435/461/445
f 435/461/445 447/473/457 434/460/444
f 421/447/431 420/446/430 416/442/426
f 416/442/426 415/441/425 421/447/431
f 425/451/435 434/460/444 433/459/443
f 430/456/440 432/458/442 437/463/447
s 21
f 448/474/458 449/475/459 450/476/460
f 450/476/460 451/477/461 448/474/458
f 452/478/462 453/479/463 454/480/464
f 454/480/464 455/481/465 452/478/462
f 452/478/462 455/481/465 456/482/466
f 457/483/467 458/484/468 459/485/469
f 459/485/469 460/486/470 457/483/467
f 459/485/469 458/484/468 461/487/471
f 461/487/471 462/488/472 459/485/469
f 461/487/471 463/489/473 464/490/474
f 464/490/474 462/488/472 461/487/471
f 463/489/473 465/491/475 466/492/476
f 466/492/476 464/490/474 463/489/473
f 457/483/467 467/493/477 458/484/468
f 468/494/478 469/495/479 461/487/471
f 461/487/471 458/484/468 468/494/478
f 461/487/471 469/495/479 470/496/480
f 470/496/480 463/489/473 461/487/471
f 470/496/480 471/497/481 463/489/473
f 451/477/461 450/476/460 472/498/482
f 453/479/463 473/499/483 474/500/484
f 474/500/484 450/476/460 453/479/463
f 453/479/463 452/478/462 475/501/485
f 475/501/485 476/502/486 453/479/463
f 452/478/462 456/482/466 477/503/487
f 452/478/462 477/503/487 475/501/485
f 472/498/482 450/476/460 474/500/484
f 453/479/463 476/502/486 473/499/483
f 476/502/486 478/504/488 479/505/489
f 479/505/489 473/499/483 476/502/486
f 449/475/459 448/474/458 460/486/470
f 460/486/470 459/485/469 449/475/459
f 462/488/472 454/480/464 449/475/459
f 449/475/459 459/485/469 462/488/472
f 455/481/465 454/480/464 462/488/472
f 462/488/472 464/490/474 455/481/465
f 480/506/490 455/481/465 464/490/474
f 464/490/474 466/492/476 480/506/490
f 470/496/480 469/495/479 481/507/491
f 469/495/479 468/494/478 481/507/491
f 453/479/463 450/476/460 449/475/459
f 449/475/459 454/480/464 453/479/463
f 458/484/468 467/493/477 468/494/478
f 463/489/473 471/497/481 465/491/475
s 20
f 422/448/432 446/472/456 419/445/429
s 21
f 455/481/465 480/506/490 456/482/466
