# Blender v3.3.0 OBJ File: ''
# www.blender.org
o ItemCoffee.005
v 0.018453 -0.000000 0.018416
v 0.024444 -0.000000 0.001504
v 0.020975 0.011388 0.004414
v 0.012601 0.016105 0.011441
v 0.004227 0.011388 0.018468
v 0.000758 -0.000000 0.021379
v 0.004227 -0.011388 0.018468
v 0.012601 -0.016105 0.011441
v 0.020975 -0.011388 0.004414
v 0.008624 0.013692 -0.013916
v 0.012637 0.000000 -0.017283
v -0.001528 0.019364 -0.005397
v -0.011408 0.013692 0.002893
v -0.015693 -0.000000 0.006488
v -0.011680 -0.013692 0.003121
v -0.001528 -0.019364 -0.005397
v 0.008352 -0.013692 -0.013687
v -0.007283 0.011388 -0.029263
v -0.003814 0.000000 -0.032173
v -0.015657 0.016105 -0.022236
v -0.024031 0.011388 -0.015209
v -0.027500 0.000000 -0.012298
v -0.024031 -0.011388 -0.015209
v -0.015657 -0.016105 -0.022236
v -0.007283 -0.011388 -0.029263
v -0.021510 0.000000 -0.029210
v -0.024667 -0.000000 0.070732
v -0.038311 -0.000000 0.059081
v -0.033851 -0.011388 0.059867
v -0.023086 -0.016105 0.061765
v -0.012320 -0.011388 0.063664
v -0.007860 -0.000000 0.064450
v -0.012320 0.011388 0.063664
v -0.023086 0.016105 0.061765
v -0.033851 0.011388 0.059867
v -0.032320 -0.013692 0.037817
v -0.037478 -0.000000 0.036908
v -0.019269 -0.019364 0.040119
v -0.006568 -0.013692 0.042358
v -0.001059 -0.000000 0.043329
v -0.006217 0.013692 0.042420
v -0.019269 0.019364 0.040119
v -0.031970 0.013692 0.037879
v -0.026217 -0.011388 0.016573
v -0.030677 -0.000000 0.015787
v -0.015452 -0.016105 0.018472
v -0.004686 -0.011388 0.020370
v -0.000227 -0.000000 0.021156
v -0.004686 0.011388 0.020370
v -0.015452 0.016105 0.018472
v -0.026217 0.011388 0.016573
v -0.013871 -0.000000 0.009505
v -0.000771 -0.000000 0.042560
v 0.013072 -0.000000 0.031146
v 0.011524 -0.011388 0.035401
v 0.007785 -0.016105 0.045674
v 0.004046 -0.011388 0.055947
v 0.002497 -0.000000 0.060202
v 0.004046 0.011388 0.055947
v 0.007785 0.016105 0.045674
v 0.011524 0.011388 0.035401
v 0.032973 -0.013692 0.040738
v 0.034764 -0.000000 0.035817
v 0.028440 -0.019364 0.053192
v 0.024029 -0.013692 0.065311
v 0.022116 -0.000000 0.070567
v 0.023907 0.013692 0.065646
v 0.028440 0.019364 0.053192
v 0.032851 0.013692 0.041073
v 0.052834 -0.011388 0.050437
v 0.054383 -0.000000 0.046182
v 0.049095 -0.016105 0.060710
v 0.045356 -0.011388 0.070983
v 0.043808 -0.000000 0.075238
v 0.045356 0.011388 0.070983
v 0.049095 0.016105 0.060710
v 0.052834 0.011388 0.050437
v 0.057651 -0.000000 0.063824
v 0.040859 0.027269 0.036048
v 0.036066 0.027269 0.018758
v 0.034894 0.038657 0.023132
v 0.032064 0.043374 0.033691
v 0.029235 0.038657 0.044251
v 0.028063 0.027269 0.048625
v 0.029235 0.015881 0.044251
v 0.032064 0.011164 0.033691
v 0.034894 0.015881 0.023132
v 0.014262 0.040961 0.015201
v 0.015618 0.027269 0.010142
v 0.010832 0.046633 0.028002
v 0.007494 0.040961 0.040460
v 0.006047 0.027269 0.045863
v 0.007402 0.013577 0.040804
v 0.010832 0.007906 0.028002
v 0.014170 0.013577 0.015545
v -0.007570 0.038657 0.011754
v -0.006398 0.027269 0.007380
v -0.010400 0.043374 0.022313
v -0.013229 0.038657 0.032873
v -0.014401 0.027269 0.037246
v -0.013229 0.015881 0.032873
v -0.010400 0.011164 0.022313
v -0.007570 0.015881 0.011754
v -0.019194 0.027269 0.019957
v 0.018453 -0.000000 0.018416
v 0.027558 -0.000000 0.002956
v 0.027558 -0.011388 0.007484
v 0.027558 -0.016105 0.018416
v 0.027558 -0.011388 0.029348
v 0.027558 -0.000000 0.033876
v 0.027558 0.011388 0.029348
v 0.027558 0.016105 0.018416
v 0.027558 0.011388 0.007484
v 0.049539 -0.013692 0.005163
v 0.049539 0.000000 -0.000075
v 0.049539 -0.019364 0.018416
v 0.049539 -0.013692 0.031313
v 0.049539 -0.000000 0.036906
v 0.049539 0.013692 0.031669
v 0.049539 0.019364 0.018416
v 0.049539 0.013692 0.005519
v 0.071520 -0.011388 0.007484
v 0.071520 -0.000000 0.002956
v 0.071520 -0.016105 0.018416
v 0.071520 -0.011388 0.029348
v 0.071520 -0.000000 0.033876
v 0.071520 0.011388 0.029348
v 0.071520 0.016105 0.018416
v 0.071520 0.011388 0.007484
v 0.080625 -0.000000 0.018416
v 0.062955 0.000000 -0.005454
v 0.062800 0.000000 -0.023396
v 0.060535 0.011388 -0.019474
v 0.055070 0.016105 -0.010007
v 0.049604 0.011388 -0.000539
v 0.047340 -0.000000 0.003382
v 0.049604 -0.011388 -0.000539
v 0.055070 -0.016105 -0.010007
v 0.060535 -0.011388 -0.019474
v 0.042660 0.013692 -0.032474
v 0.045279 0.000000 -0.037011
v 0.036034 0.019364 -0.020997
v 0.029585 0.013692 -0.009828
v 0.026788 0.000000 -0.004984
v 0.029407 -0.013692 -0.009520
v 0.036034 -0.019364 -0.020997
v 0.042482 -0.013692 -0.032166
v 0.022463 0.011388 -0.041455
v 0.024727 0.000000 -0.045376
v 0.016997 0.016105 -0.031988
v 0.011532 0.011388 -0.022520
v 0.009267 0.000000 -0.018599
v 0.011532 -0.011388 -0.022520
v 0.016997 -0.016105 -0.031988
v 0.022463 -0.011388 -0.041455
v 0.009113 0.000000 -0.036540
v 0.010259 0.030039 0.007890
v 0.024866 0.030039 -0.002528
v 0.020355 0.041427 -0.002133
v 0.009465 0.046144 -0.001180
v -0.001425 0.041427 -0.000227
v -0.005936 0.030039 0.000167
v -0.001425 0.018651 -0.000227
v 0.009465 0.013934 -0.001180
v 0.020355 0.018651 -0.002133
v 0.020752 0.043731 -0.024233
v 0.025970 0.030039 -0.024689
v 0.007549 0.049403 -0.023078
v -0.005298 0.043731 -0.021954
v -0.010871 0.030039 -0.021466
v -0.005653 0.016347 -0.021922
v 0.007549 0.010675 -0.023078
v 0.020397 0.016347 -0.024202
v 0.016524 0.041427 -0.045928
v 0.021035 0.030039 -0.046322
v 0.005634 0.046144 -0.044975
v -0.005257 0.041427 -0.044022
v -0.009768 0.030039 -0.043627
v -0.005257 0.018651 -0.044022
v 0.005634 0.013934 -0.044975
v 0.016524 0.018651 -0.045928
v 0.004840 0.030039 -0.054045
v 0.021676 0.000000 -0.058931
v 0.007833 0.000000 -0.070344
v 0.009382 0.011388 -0.066089
v 0.013121 0.016105 -0.055817
v 0.016860 0.011388 -0.045544
v 0.018408 0.000000 -0.041289
v 0.016860 -0.011388 -0.045544
v 0.013121 -0.016105 -0.055817
v 0.009382 -0.011388 -0.066089
v -0.012067 0.013692 -0.060752
v -0.013859 0.000000 -0.065674
v -0.007535 0.019364 -0.048299
v -0.003124 0.013692 -0.036180
v -0.001211 0.000000 -0.030923
v -0.003002 -0.013692 -0.035845
v -0.007535 -0.019364 -0.048299
v -0.011946 -0.013692 -0.060418
v -0.031929 0.011388 -0.051054
v -0.033478 0.000000 -0.055309
v -0.028190 0.016105 -0.040781
v -0.024451 0.011388 -0.030508
v -0.022902 0.000000 -0.026253
v -0.024451 -0.011388 -0.030508
v -0.028190 -0.016105 -0.040781
v -0.031929 -0.011388 -0.051054
v -0.036746 0.000000 -0.037667
v -0.060828 -0.000000 0.036657
v -0.042887 -0.000000 0.036502
v -0.046809 0.011388 0.034238
v -0.056276 0.016105 0.028772
v -0.065743 0.011388 0.023306
v -0.069665 -0.000000 0.021042
v -0.065743 -0.011388 0.023306
v -0.056276 -0.016105 0.028772
v -0.046809 -0.011388 0.034238
v -0.033808 0.013692 0.016363
v -0.029272 -0.000000 0.018982
v -0.045285 0.019364 0.009736
v -0.056454 0.013692 0.003288
v -0.061299 -0.000000 0.000491
v -0.056763 -0.013692 0.003110
v -0.045285 -0.019364 0.009736
v -0.034116 -0.013692 0.016185
v -0.024828 0.011388 -0.003834
v -0.020906 0.000000 -0.001570
v -0.034295 0.016105 -0.009300
v -0.043762 0.011388 -0.014766
v -0.047684 0.000000 -0.017030
v -0.043762 -0.011388 -0.014766
v -0.034295 -0.016105 -0.009300
v -0.024828 -0.011388 -0.003834
v -0.029743 0.000000 -0.017185
vt 0.928300 0.314400
vt 0.941400 0.346500
vt 0.914800 0.346300
vt 0.896200 0.327400
vt 0.896400 0.300900
vt 0.915300 0.282300
vt 0.941800 0.282500
vt 0.960500 0.301400
vt 0.960300 0.327900
vt 0.900300 0.380600
vt 0.955300 0.381000
vt 0.861700 0.341400
vt 0.862100 0.286400
vt 0.901300 0.247800
vt 0.956300 0.248200
vt 0.994900 0.287400
vt 0.994500 0.342400
vt 0.912600 0.044700
vt 0.898600 0.011400
vt 0.951900 0.011100
vt 0.938300 0.044500
vt 0.894500 0.063000
vt 0.861100 0.049300
vt 0.894600 0.088700
vt 0.861400 0.102700
vt 0.912900 0.106800
vt 0.899300 0.140200
vt 0.938700 0.106700
vt 0.952700 0.139900
vt 0.956800 0.088400
vt 0.990200 0.102000
vt 0.956600 0.062600
vt 0.989900 0.048600
vt 0.925600 0.075700
vt 0.928300 0.314400
vt 0.941400 0.346500
vt 0.914800 0.346300
vt 0.896200 0.327400
vt 0.896400 0.300900
vt 0.915300 0.282300
vt 0.941800 0.282500
vt 0.960500 0.301400
vt 0.960300 0.327900
vt 0.900300 0.380600
vt 0.955300 0.381000
vt 0.861700 0.341400
vt 0.862100 0.286400
vt 0.901300 0.247800
vt 0.956300 0.248200
vt 0.994900 0.287400
vt 0.994500 0.342400
vt 0.912600 0.044700
vt 0.898600 0.011400
vt 0.951900 0.011100
vt 0.938300 0.044500
vt 0.894500 0.063000
vt 0.861100 0.049300
vt 0.894600 0.088700
vt 0.861400 0.102700
vt 0.912900 0.106800
vt 0.899300 0.140200
vt 0.938700 0.106700
vt 0.952700 0.139900
vt 0.956800 0.088400
vt 0.990200 0.102000
vt 0.956600 0.062600
vt 0.989900 0.048600
vt 0.925600 0.075700
vt 0.928300 0.314400
vt 0.941400 0.346500
vt 0.914800 0.346300
vt 0.896200 0.327400
vt 0.896400 0.300900
vt 0.915300 0.282300
vt 0.941800 0.282500
vt 0.960500 0.301400
vt 0.960300 0.327900
vt 0.900300 0.380600
vt 0.955300 0.381000
vt 0.861700 0.341400
vt 0.862100 0.286400
vt 0.901300 0.247800
vt 0.956300 0.248200
vt 0.994900 0.287400
vt 0.994500 0.342400
vt 0.912600 0.044700
vt 0.898600 0.011400
vt 0.951900 0.011100
vt 0.938300 0.044500
vt 0.894500 0.063000
vt 0.861100 0.049300
vt 0.894600 0.088700
vt 0.861400 0.102700
vt 0.912900 0.106800
vt 0.899300 0.140200
vt 0.938700 0.106700
vt 0.952700 0.139900
vt 0.956800 0.088400
vt 0.990200 0.102000
vt 0.956600 0.062600
vt 0.989900 0.048600
vt 0.925600 0.075700
vt 0.928300 0.314400
vt 0.941400 0.346500
vt 0.914800 0.346300
vt 0.896200 0.327400
vt 0.896400 0.300900
vt 0.915300 0.282300
vt 0.941800 0.282500
vt 0.960500 0.301400
vt 0.960300 0.327900
vt 0.900300 0.380600
vt 0.955300 0.381000
vt 0.861700 0.341400
vt 0.862100 0.286400
vt 0.901300 0.247800
vt 0.956300 0.248200
vt 0.994900 0.287400
vt 0.994500 0.342400
vt 0.912600 0.044700
vt 0.898600 0.011400
vt 0.951900 0.011100
vt 0.938300 0.044500
vt 0.894500 0.063000
vt 0.861100 0.049300
vt 0.894600 0.088700
vt 0.861400 0.102700
vt 0.912900 0.106800
vt 0.899300 0.140200
vt 0.938700 0.106700
vt 0.952700 0.139900
vt 0.956800 0.088400
vt 0.990200 0.102000
vt 0.956600 0.062600
vt 0.989900 0.048600
vt 0.925600 0.075700
vt 0.928300 0.314400
vt 0.941400 0.346500
vt 0.914800 0.346300
vt 0.896200 0.327400
vt 0.896400 0.300900
vt 0.915300 0.282300
vt 0.941800 0.282500
vt 0.960500 0.301400
vt 0.960300 0.327900
vt 0.900300 0.380600
vt 0.955300 0.381000
vt 0.861700 0.341400
vt 0.862100 0.286400
vt 0.901300 0.247800
vt 0.956300 0.248200
vt 0.994900 0.287400
vt 0.994500 0.342400
vt 0.912600 0.044700
vt 0.898600 0.011400
vt 0.951900 0.011100
vt 0.938300 0.044500
vt 0.894500 0.063000
vt 0.861100 0.049300
vt 0.894600 0.088700
vt 0.861400 0.102700
vt 0.912900 0.106800
vt 0.899300 0.140200
vt 0.938700 0.106700
vt 0.952700 0.139900
vt 0.956800 0.088400
vt 0.990200 0.102000
vt 0.956600 0.062600
vt 0.989900 0.048600
vt 0.925600 0.075700
vt 0.928300 0.314400
vt 0.941400 0.346500
vt 0.914800 0.346300
vt 0.896200 0.327400
vt 0.896400 0.300900
vt 0.915300 0.282300
vt 0.941800 0.282500
vt 0.960500 0.301400
vt 0.960300 0.327900
vt 0.900300 0.380600
vt 0.955300 0.381000
vt 0.861700 0.341400
vt 0.862100 0.286400
vt 0.901300 0.247800
vt 0.956300 0.248200
vt 0.994900 0.287400
vt 0.994500 0.342400
vt 0.912600 0.044700
vt 0.898600 0.011400
vt 0.951900 0.011100
vt 0.938300 0.044500
vt 0.894500 0.063000
vt 0.861100 0.049300
vt 0.894600 0.088700
vt 0.861400 0.102700
vt 0.912900 0.106800
vt 0.899300 0.140200
vt 0.938700 0.106700
vt 0.952700 0.139900
vt 0.956800 0.088400
vt 0.990200 0.102000
vt 0.956600 0.062600
vt 0.989900 0.048600
vt 0.925600 0.075700
vt 0.928300 0.314400
vt 0.941400 0.346500
vt 0.914800 0.346300
vt 0.896200 0.327400
vt 0.896400 0.300900
vt 0.915300 0.282300
vt 0.941800 0.282500
vt 0.960500 0.301400
vt 0.960300 0.327900
vt 0.900300 0.380600
vt 0.955300 0.381000
vt 0.861700 0.341400
vt 0.862100 0.286400
vt 0.901300 0.247800
vt 0.956300 0.248200
vt 0.994900 0.287400
vt 0.994500 0.342400
vt 0.912600 0.044700
vt 0.898600 0.011400
vt 0.951900 0.011100
vt 0.938300 0.044500
vt 0.894500 0.063000
vt 0.861100 0.049300
vt 0.894600 0.088700
vt 0.861400 0.102700
vt 0.912900 0.106800
vt 0.899300 0.140200
vt 0.938700 0.106700
vt 0.952700 0.139900
vt 0.956800 0.088400
vt 0.990200 0.102000
vt 0.956600 0.062600
vt 0.989900 0.048600
vt 0.925600 0.075700
vt 0.928300 0.314400
vt 0.941400 0.346500
vt 0.914800 0.346300
vt 0.896200 0.327400
vt 0.896400 0.300900
vt 0.915300 0.282300
vt 0.941800 0.282500
vt 0.960500 0.301400
vt 0.960300 0.327900
vt 0.900300 0.380600
vt 0.955300 0.381000
vt 0.861700 0.341400
vt 0.862100 0.286400
vt 0.901300 0.247800
vt 0.956300 0.248200
vt 0.994900 0.287400
vt 0.994500 0.342400
vt 0.912600 0.044700
vt 0.898600 0.011400
vt 0.951900 0.011100
vt 0.938300 0.044500
vt 0.894500 0.063000
vt 0.861100 0.049300
vt 0.894600 0.088700
vt 0.861400 0.102700
vt 0.912900 0.106800
vt 0.899300 0.140200
vt 0.938700 0.106700
vt 0.952700 0.139900
vt 0.956800 0.088400
vt 0.990200 0.102000
vt 0.956600 0.062600
vt 0.989900 0.048600
vt 0.925600 0.075700
vt 0.928300 0.314400
vt 0.941400 0.346500
vt 0.914800 0.346300
vt 0.896200 0.327400
vt 0.896400 0.300900
vt 0.915300 0.282300
vt 0.941800 0.282500
vt 0.960500 0.301400
vt 0.960300 0.327900
vt 0.900300 0.380600
vt 0.955300 0.381000
vt 0.861700 0.341400
vt 0.862100 0.286400
vt 0.901300 0.247800
vt 0.956300 0.248200
vt 0.994900 0.287400
vt 0.994500 0.342400
vt 0.912600 0.044700
vt 0.898600 0.011400
vt 0.951900 0.011100
vt 0.938300 0.044500
vt 0.894500 0.063000
vt 0.861100 0.049300
vt 0.894600 0.088700
vt 0.861400 0.102700
vt 0.912900 0.106800
vt 0.899300 0.140200
vt 0.938700 0.106700
vt 0.952700 0.139900
vt 0.956800 0.088400
vt 0.990200 0.102000
vt 0.956600 0.062600
vt 0.989900 0.048600
vt 0.925600 0.075700
vn 0.6428 -0.0000 0.7660
vn 0.9873 -0.0015 -0.1589
vn 0.8021 0.5972 0.0029
vn 0.3329 0.8549 0.3979
vn -0.1407 0.5981 0.7890
vn -0.3280 0.0016 0.9447
vn -0.1365 -0.5972 0.7904
vn 0.3341 -0.8549 0.3969
vn 0.8014 -0.5981 -0.0015
vn 0.5508 0.6941 -0.4634
vn 0.7646 -0.0092 -0.6444
vn -0.0025 1.0000 0.0033
vn -0.5475 0.6996 0.4591
vn -0.7674 0.0092 0.6411
vn -0.5521 -0.6941 0.4620
vn 0.0037 -1.0000 -0.0019
vn 0.5472 -0.6996 -0.4595
vn 0.1384 0.5962 -0.7908
vn 0.3303 -0.0011 -0.9439
vn -0.3343 0.8543 -0.3979
vn -0.8023 0.5969 0.0027
vn -0.9869 0.0011 0.1614
vn -0.8028 -0.5962 -0.0010
vn -0.3338 -0.8543 -0.3983
vn 0.1420 -0.5968 -0.7897
vn -0.6428 0.0000 -0.7660
vn -0.1737 -0.0000 0.9848
vn -0.9345 0.0016 0.3560
vn -0.6932 -0.5972 0.4035
vn -0.0893 -0.8549 0.5110
vn 0.5163 -0.5981 0.6129
vn 0.7564 -0.0016 0.6541
vn 0.5133 0.5972 0.6163
vn -0.0909 0.8549 0.5108
vn -0.6948 0.5981 0.3994
vn -0.7088 -0.6941 -0.1260
vn -0.9844 0.0092 -0.1757
vn 0.0038 -1.0000 0.0016
vn 0.7037 -0.6996 0.1239
vn 0.9851 -0.0092 0.1715
vn 0.7091 0.6941 0.1240
vn -0.0042 1.0000 0.0002
vn -0.7037 0.6996 -0.1243
vn -0.5152 -0.5962 -0.6157
vn -0.7580 0.0011 -0.6523
vn 0.0906 -0.8544 -0.5117
vn 0.6962 -0.5968 -0.3989
vn 0.9354 -0.0011 -0.3537
vn 0.6947 0.5962 -0.4023
vn 0.0899 0.8544 -0.5119
vn -0.5178 0.5969 -0.6129
vn 0.1736 0.0000 -0.9848
vn -0.9397 0.0000 -0.3420
vn -0.1883 0.0016 -0.9821
vn -0.2770 -0.5972 -0.7527
vn -0.4878 -0.8549 -0.1767
vn -0.6933 -0.5981 0.4020
vn -0.7755 -0.0016 0.6313
vn -0.6960 0.5972 0.3986
vn -0.4872 0.8549 -0.1782
vn -0.2726 0.5981 -0.7536
vn 0.2471 -0.6941 -0.6761
vn 0.3440 0.0092 -0.9389
vn -0.0023 -1.0000 0.0035
vn -0.2442 -0.6996 0.6715
vn -0.3400 -0.0092 0.9404
vn -0.2453 0.6941 0.6768
vn 0.0005 1.0000 -0.0041
vn 0.2446 0.6996 -0.6714
vn 0.6958 -0.5962 -0.4005
vn 0.7740 0.0011 -0.6332
vn 0.4882 -0.8543 0.1781
vn 0.2719 -0.5968 0.7549
vn 0.1859 -0.0011 0.9826
vn 0.2755 0.5962 0.7540
vn 0.4885 0.8543 0.1774
vn 0.6935 0.5969 -0.4035
vn 0.9397 -0.0000 0.3420
vn 0.9659 0.0000 0.2588
vn 0.7175 -0.0016 -0.6965
vn 0.6587 0.5972 -0.4577
vn 0.5009 0.8549 0.1351
vn 0.3373 0.5981 0.7270
vn 0.2732 0.0016 0.9620
vn 0.3416 -0.5972 0.7257
vn 0.5013 -0.8549 0.1335
vn 0.6556 -0.5981 -0.4609
vn 0.1854 0.6941 -0.6956
vn 0.2567 -0.0092 -0.9664
vn -0.0001 1.0000 0.0042
vn -0.1851 0.6996 0.6901
vn -0.2609 0.0092 0.9653
vn -0.1872 -0.6941 0.6951
vn 0.0020 -1.0000 -0.0037
vn 0.1847 -0.6996 -0.6902
vn -0.3402 0.5962 -0.7272
vn -0.2708 -0.0011 -0.9626
vn -0.5021 0.8543 -0.1342
vn -0.6557 0.5968 0.4624
vn -0.7159 0.0011 0.6982
vn -0.6582 -0.5962 0.4597
vn -0.5019 -0.8543 -0.1349
vn -0.3366 -0.5968 -0.7283
vn -0.9659 0.0000 -0.2588
vn -1.0000 0.0000 0.0000
vn -0.5128 0.0016 -0.8585
vn -0.5178 -0.5972 -0.6126
vn -0.5188 -0.8549 0.0008
vn -0.5140 -0.5981 0.6149
vn -0.5128 -0.0016 0.8585
vn -0.5178 0.5972 0.6126
vn -0.5188 0.8549 -0.0008
vn -0.5140 0.5981 -0.6149
vn 0.0010 -0.6941 -0.7198
vn 0.0021 0.0092 -1.0000
vn -0.0009 -1.0000 0.0041
vn 0.0002 -0.6996 0.7145
vn 0.0021 -0.0092 1.0000
vn 0.0010 0.6941 0.7199
vn -0.0009 1.0000 -0.0041
vn 0.0002 0.6996 -0.7145
vn 0.5168 -0.5962 -0.6143
vn 0.5108 0.0011 -0.8597
vn 0.5197 -0.8543 0.0004
vn 0.5137 -0.5968 0.6164
vn 0.5107 -0.0011 0.8597
vn 0.5168 0.5962 0.6143
vn 0.5197 0.8543 -0.0004
vn 0.5137 0.5968 -0.6164
vn 1.0000 0.0000 -0.0000
vn 0.8660 -0.0000 0.5000
vn 0.8734 -0.0016 -0.4871
vn 0.7547 0.5972 -0.2716
vn 0.4489 0.8549 0.2601
vn 0.1377 0.5981 0.7895
vn 0.0149 0.0016 0.9999
vn 0.1421 -0.5972 0.7894
vn 0.4497 -0.8549 0.2587
vn 0.7525 -0.5981 -0.2755
vn 0.3591 0.6941 -0.6239
vn 0.4981 -0.0092 -0.8671
vn -0.0012 1.0000 0.0040
vn -0.3575 0.6996 0.6187
vn -0.5018 0.0092 0.8649
vn -0.3608 -0.6941 0.6229
vn 0.0028 -1.0000 -0.0031
vn 0.3571 -0.6996 -0.6189
vn -0.1404 0.5962 -0.7904
vn -0.0125 -0.0011 -0.9999
vn -0.4503 0.8543 -0.2595
vn -0.7530 0.5969 0.2770
vn -0.8722 0.0011 0.4891
vn -0.7547 -0.5962 0.2736
vn -0.4499 -0.8543 -0.2602
vn -0.1367 -0.5968 -0.7906
vn -0.8660 0.0000 -0.5000
vn 0.0872 -0.0000 0.9962
vn 0.8999 -0.0016 0.4360
vn 0.6554 0.5972 0.4624
vn 0.0444 0.8549 0.5169
vn -0.5678 0.5981 0.5656
vn -0.8105 0.0016 0.5857
vn -0.5651 -0.5972 0.5692
vn 0.0460 -0.8549 0.5168
vn 0.6574 -0.5981 0.4584
vn 0.7170 0.6941 -0.0637
vn 0.9960 -0.0092 -0.0893
vn -0.0040 1.0000 0.0013
vn -0.7118 0.6996 0.0621
vn -0.9963 0.0092 0.0850
vn -0.7172 -0.6941 0.0618
vn 0.0041 -1.0000 0.0006
vn 0.7118 -0.6996 -0.0625
vn 0.5669 0.5962 -0.5684
vn 0.8119 -0.0011 -0.5837
vn -0.0456 0.8543 -0.5177
vn -0.6588 0.5968 -0.4580
vn -0.9010 0.0011 -0.4339
vn -0.6570 -0.5962 -0.4613
vn -0.0449 -0.8543 -0.5178
vn 0.5692 -0.5968 -0.5655
vn -0.0872 0.0000 -0.9962
vn 0.9397 0.0000 -0.3420
vn 0.1883 -0.0016 -0.9821
vn 0.2770 0.5972 -0.7527
vn 0.4878 0.8549 -0.1767
vn 0.6933 0.5981 0.4020
vn 0.7755 0.0016 0.6313
vn 0.6961 -0.5972 0.3986
vn 0.4872 -0.8549 -0.1782
vn 0.2727 -0.5981 -0.7536
vn -0.2471 0.6941 -0.6761
vn -0.3440 -0.0092 -0.9389
vn 0.0023 1.0000 0.0035
vn 0.2442 0.6996 0.6715
vn 0.3400 0.0092 0.9404
vn 0.2453 -0.6941 0.6768
vn -0.0005 -1.0000 -0.0041
vn -0.2446 -0.6996 -0.6714
vn -0.6957 0.5962 -0.4005
vn -0.7740 -0.0011 -0.6332
vn -0.4882 0.8544 0.1781
vn -0.2719 0.5968 0.7549
vn -0.1859 0.0011 0.9826
vn -0.2755 -0.5962 0.7540
vn -0.4885 -0.8543 0.1774
vn -0.6935 -0.5969 -0.4035
vn -0.9397 0.0000 0.3420
vn -0.5000 -0.0000 0.8660
vn 0.4871 -0.0016 0.8734
vn 0.2716 0.5972 0.7547
vn -0.2601 0.8549 0.4489
vn -0.7895 0.5981 0.1377
vn -0.9999 0.0016 0.0149
vn -0.7894 -0.5972 0.1421
vn -0.2587 -0.8549 0.4497
vn 0.2755 -0.5981 0.7526
vn 0.6239 0.6941 0.3591
vn 0.8671 -0.0092 0.4981
vn -0.0040 1.0000 -0.0012
vn -0.6187 0.6996 -0.3574
vn -0.8649 0.0092 -0.5018
vn -0.6229 -0.6941 -0.3608
vn 0.0031 -1.0000 0.0028
vn 0.6189 -0.6996 0.3571
vn 0.7904 0.5962 -0.1404
vn 0.9999 -0.0011 -0.0125
vn 0.2596 0.8543 -0.4503
vn -0.2769 0.5968 -0.7530
vn -0.4892 0.0011 -0.8722
vn -0.2736 -0.5962 -0.7547
vn 0.2602 -0.8543 -0.4499
vn 0.7906 -0.5969 -0.1367
vn 0.5000 0.0000 -0.8660
s 1
f 1/1/1 2/2/2 3/3/3
f 1/1/1 3/3/3 4/4/4
f 1/1/1 4/4/4 5/5/5
f 1/1/1 5/5/5 6/6/6
f 1/1/1 6/6/6 7/7/7
f 1/1/1 7/7/7 8/8/8
f 1/1/1 8/8/8 9/9/9
f 1/1/1 9/9/9 2/2/2
f 10/10/10 3/3/3 2/2/2
f 2/2/2 11/11/11 10/10/10
f 12/12/12 4/4/4 3/3/3
f 3/3/3 10/10/10 12/12/12
f 13/13/13 5/5/5 4/4/4
f 4/4/4 12/12/12 13/13/13
f 14/14/14 6/6/6 5/5/5
f 5/5/5 13/13/13 14/14/14
f 15/15/15 7/7/7 6/6/6
f 6/6/6 14/14/14 15/15/15
f 16/16/16 8/8/8 7/7/7
f 7/7/7 15/15/15 16/16/16
f 17/17/17 9/9/9 8/8/8
f 8/8/8 16/16/16 17/17/17
f 11/11/11 2/2/2 9/9/9
f 9/9/9 17/17/17 11/11/11
f 18/18/18 10/19/10 11/20/11
f 11/20/11 19/21/19 18/18/18
f 20/22/20 12/23/12 10/19/10
f 10/19/10 18/18/18 20/22/20
f 21/24/21 13/25/13 12/23/12
f 12/23/12 20/22/20 21/24/21
f 22/26/22 14/27/14 13/25/13
f 13/25/13 21/24/21 22/26/22
f 23/28/23 15/29/15 14/27/14
f 14/27/14 22/26/22 23/28/23
f 24/30/24 16/31/16 15/29/15
f 15/29/15 23/28/23 24/30/24
f 25/32/25 17/33/17 16/31/16
f 16/31/16 24/30/24 25/32/25
f 19/21/19 11/20/11 17/33/17
f 17/33/17 25/32/25 19/21/19
f 26/34/26 18/18/18 19/21/19
f 26/34/26 20/22/20 18/18/18
f 26/34/26 21/24/21 20/22/20
f 26/34/26 22/26/22 21/24/21
f 26/34/26 23/28/23 22/26/22
f 26/34/26 24/30/24 23/28/23
f 26/34/26 25/32/25 24/30/24
f 26/34/26 19/21/19 25/32/25
s 2
f 27/35/27 28/36/28 29/37/29
f 27/35/27 29/37/29 30/38/30
f 27/35/27 30/38/30 31/39/31
f 27/35/27 31/39/31 32/40/32
f 27/35/27 32/40/32 33/41/33
f 27/35/27 33/41/33 34/42/34
f 27/35/27 34/42/34 35/43/35
f 27/35/27 35/43/35 28/36/28
f 36/44/36 29/37/29 28/36/28
f 28/36/28 37/45/37 36/44/36
f 38/46/38 30/38/30 29/37/29
f 29/37/29 36/44/36 38/46/38
f 39/47/39 31/39/31 30/38/30
f 30/38/30 38/46/38 39/47/39
f 40/48/40 32/40/32 31/39/31
f 31/39/31 39/47/39 40/48/40
f 41/49/41 33/41/33 32/40/32
f 32/40/32 40/48/40 41/49/41
f 42/50/42 34/42/34 33/41/33
f 33/41/33 41/49/41 42/50/42
f 43/51/43 35/43/35 34/42/34
f 34/42/34 42/50/42 43/51/43
f 37/45/37 28/36/28 35/43/35
f 35/43/35 43/51/43 37/45/37
f 44/52/44 36/53/36 37/54/37
f 37/54/37 45/55/45 44/52/44
f 46/56/46 38/57/38 36/53/36
f 36/53/36 44/52/44 46/56/46
f 47/58/47 39/59/39 38/57/38
f 38/57/38 46/56/46 47/58/47
f 48/60/48 40/61/40 39/59/39
f 39/59/39 47/58/47 48/60/48
f 49/62/49 41/63/41 40/61/40
f 40/61/40 48/60/48 49/62/49
f 50/64/50 42/65/42 41/63/41
f 41/63/41 49/62/49 50/64/50
f 51/66/51 43/67/43 42/65/42
f 42/65/42 50/64/50 51/66/51
f 45/55/45 37/54/37 43/67/43
f 43/67/43 51/66/51 45/55/45
f 52/68/52 44/52/44 45/55/45
f 52/68/52 46/56/46 44/52/44
f 52/68/52 47/58/47 46/56/46
f 52/68/52 48/60/48 47/58/47
f 52/68/52 49/62/49 48/60/48
f 52/68/52 50/64/50 49/62/49
f 52/68/52 51/66/51 50/64/50
f 52/68/52 45/55/45 51/66/51
s 3
f 53/69/53 54/70/54 55/71/55
f 53/69/53 55/71/55 56/72/56
f 53/69/53 56/72/56 57/73/57
f 53/69/53 57/73/57 58/74/58
f 53/69/53 58/74/58 59/75/59
f 53/69/53 59/75/59 60/76/60
f 53/69/53 60/76/60 61/77/61
f 53/69/53 61/77/61 54/70/54
f 62/78/62 55/71/55 54/70/54
f 54/70/54 63/79/63 62/78/62
f 64/80/64 56/72/56 55/71/55
f 55/71/55 62/78/62 64/80/64
f 65/81/65 57/73/57 56/72/56
f 56/72/56 64/80/64 65/81/65
f 66/82/66 58/74/58 57/73/57
f 57/73/57 65/81/65 66/82/66
f 67/83/67 59/75/59 58/74/58
f 58/74/58 66/82/66 67/83/67
f 68/84/68 60/76/60 59/75/59
f 59/75/59 67/83/67 68/84/68
f 69/85/69 61/77/61 60/76/60
f 60/76/60 68/84/68 69/85/69
f 63/79/63 54/70/54 61/77/61
f 61/77/61 69/85/69 63/79/63
f 70/86/70 62/87/62 63/88/63
f 63/88/63 71/89/71 70/86/70
f 72/90/72 64/91/64 62/87/62
f 62/87/62 70/86/70 72/90/72
f 73/92/73 65/93/65 64/91/64
f 64/91/64 72/90/72 73/92/73
f 74/94/74 66/95/66 65/93/65
f 65/93/65 73/92/73 74/94/74
f 75/96/75 67/97/67 66/95/66
f 66/95/66 74/94/74 75/96/75
f 76/98/76 68/99/68 67/97/67
f 67/97/67 75/96/75 76/98/76
f 77/100/77 69/101/69 68/99/68
f 68/99/68 76/98/76 77/100/77
f 71/89/71 63/88/63 69/101/69
f 69/101/69 77/100/77 71/89/71
f 78/102/78 70/86/70 71/89/71
f 78/102/78 72/90/72 70/86/70
f 78/102/78 73/92/73 72/90/72
f 78/102/78 74/94/74 73/92/73
f 78/102/78 75/96/75 74/94/74
f 78/102/78 76/98/76 75/96/75
f 78/102/78 77/100/77 76/98/76
f 78/102/78 71/89/71 77/100/77
s 4
f 79/103/79 80/104/80 81/105/81
f 79/103/79 81/105/81 82/106/82
f 79/103/79 82/106/82 83/107/83
f 79/103/79 83/107/83 84/108/84
f 79/103/79 84/108/84 85/109/85
f 79/103/79 85/109/85 86/110/86
f 79/103/79 86/110/86 87/111/87
f 79/103/79 87/111/87 80/104/80
f 88/112/88 81/105/81 80/104/80
f 80/104/80 89/113/89 88/112/88
f 90/114/90 82/106/82 81/105/81
f 81/105/81 88/112/88 90/114/90
f 91/115/91 83/107/83 82/106/82
f 82/106/82 90/114/90 91/115/91
f 92/116/92 84/108/84 83/107/83
f 83/107/83 91/115/91 92/116/92
f 93/117/93 85/109/85 84/108/84
f 84/108/84 92/116/92 93/117/93
f 94/118/94 86/110/86 85/109/85
f 85/109/85 93/117/93 94/118/94
f 95/119/95 87/111/87 86/110/86
f 86/110/86 94/118/94 95/119/95
f 89/113/89 80/104/80 87/111/87
f 87/111/87 95/119/95 89/113/89
f 96/120/96 88/121/88 89/122/89
f 89/122/89 97/123/97 96/120/96
f 98/124/98 90/125/90 88/121/88
f 88/121/88 96/120/96 98/124/98
f 99/126/99 91/127/91 90/125/90
f 90/125/90 98/124/98 99/126/99
f 100/128/100 92/129/92 91/127/91
f 91/127/91 99/126/99 100/128/100
f 101/130/101 93/131/93 92/129/92
f 92/129/92 100/128/100 101/130/101
f 102/132/102 94/133/94 93/131/93
f 93/131/93 101/130/101 102/132/102
f 103/134/103 95/135/95 94/133/94
f 94/133/94 102/132/102 103/134/103
f 97/123/97 89/122/89 95/135/95
f 95/135/95 103/134/103 97/123/97
f 104/136/104 96/120/96 97/123/97
f 104/136/104 98/124/98 96/120/96
f 104/136/104 99/126/99 98/124/98
f 104/136/104 100/128/100 99/126/99
f 104/136/104 101/130/101 100/128/100
f 104/136/104 102/132/102 101/130/101
f 104/136/104 103/134/103 102/132/102
f 104/136/104 97/123/97 103/134/103
s 5
f 105/137/105 106/138/106 107/139/107
f 105/137/105 107/139/107 108/140/108
f 105/137/105 108/140/108 109/141/109
f 105/137/105 109/141/109 110/142/110
f 105/137/105 110/142/110 111/143/111
f 105/137/105 111/143/111 112/144/112
f 105/137/105 112/144/112 113/145/113
f 105/137/105 113/145/113 106/138/106
f 114/146/114 107/139/107 106/138/106
f 106/138/106 115/147/115 114/146/114
f 116/148/116 108/140/108 107/139/107
f 107/139/107 114/146/114 116/148/116
f 117/149/117 109/141/109 108/140/108
f 108/140/108 116/148/116 117/149/117
f 118/150/118 110/142/110 109/141/109
f 109/141/109 117/149/117 118/150/118
f 119/151/119 111/143/111 110/142/110
f 110/142/110 118/150/118 119/151/119
f 120/152/120 112/144/112 111/143/111
f 111/143/111 119/151/119 120/152/120
f 121/153/121 113/145/113 112/144/112
f 112/144/112 120/152/120 121/153/121
f 115/147/115 106/138/106 113/145/113
f 113/145/113 121/153/121 115/147/115
f 122/154/122 114/155/114 115/156/115
f 115/156/115 123/157/123 122/154/122
f 124/158/124 116/159/116 114/155/114
f 114/155/114 122/154/122 124/158/124
f 125/160/125 117/161/117 116/159/116
f 116/159/116 124/158/124 125/160/125
f 126/162/126 118/163/118 117/161/117
f 117/161/117 125/160/125 126/162/126
f 127/164/127 119/165/119 118/163/118
f 118/163/118 126/162/126 127/164/127
f 128/166/128 120/167/120 119/165/119
f 119/165/119 127/164/127 128/166/128
f 129/168/129 121/169/121 120/167/120
f 120/167/120 128/166/128 129/168/129
f 123/157/123 115/156/115 121/169/121
f 121/169/121 129/168/129 123/157/123
f 130/170/130 122/154/122 123/157/123
f 130/170/130 124/158/124 122/154/122
f 130/170/130 125/160/125 124/158/124
f 130/170/130 126/162/126 125/160/125
f 130/170/130 127/164/127 126/162/126
f 130/170/130 128/166/128 127/164/127
f 130/170/130 129/168/129 128/166/128
f 130/170/130 123/157/123 129/168/129
s 6
f 131/171/131 132/172/132 133/173/133
f 131/171/131 133/173/133 134/174/134
f 131/171/131 134/174/134 135/175/135
f 131/171/131 135/175/135 136/176/136
f 131/171/131 136/176/136 137/177/137
f 131/171/131 137/177/137 138/178/138
f 131/171/131 138/178/138 139/179/139
f 131/171/131 139/179/139 132/172/132
f 140/180/140 133/173/133 132/172/132
f 132/172/132 141/181/141 140/180/140
f 142/182/142 134/174/134 133/173/133
f 133/173/133 140/180/140 142/182/142
f 143/183/143 135/175/135 134/174/134
f 134/174/134 142/182/142 143/183/143
f 144/184/144 136/176/136 135/175/135
f 135/175/135 143/183/143 144/184/144
f 145/185/145 137/177/137 136/176/136
f 136/176/136 144/184/144 145/185/145
f 146/186/146 138/178/138 137/177/137
f 137/177/137 145/185/145 146/186/146
f 147/187/147 139/179/139 138/178/138
f 138/178/138 146/186/146 147/187/147
f 141/181/141 132/172/132 139/179/139
f 139/179/139 147/187/147 141/181/141
f 148/188/148 140/189/140 141/190/141
f 141/190/141 149/191/149 148/188/148
f 150/192/150 142/193/142 140/189/140
f 140/189/140 148/188/148 150/192/150
f 151/194/151 143/195/143 142/193/142
f 142/193/142 150/192/150 151/194/151
f 152/196/152 144/197/144 143/195/143
f 143/195/143 151/194/151 152/196/152
f 153/198/153 145/199/145 144/197/144
f 144/197/144 152/196/152 153/198/153
f 154/200/154 146/201/146 145/199/145
f 145/199/145 153/198/153 154/200/154
f 155/202/155 147/203/147 146/201/146
f 146/201/146 154/200/154 155/202/155
f 149/191/149 141/190/141 147/203/147
f 147/203/147 155/202/155 149/191/149
f 156/204/156 148/188/148 149/191/149
f 156/204/156 150/192/150 148/188/148
f 156/204/156 151/194/151 150/192/150
f 156/204/156 152/196/152 151/194/151
f 156/204/156 153/198/153 152/196/152
f 156/204/156 154/200/154 153/198/153
f 156/204/156 155/202/155 154/200/154
f 156/204/156 149/191/149 155/202/155
s 7
f 157/205/157 158/206/158 159/207/159
f 157/205/157 159/207/159 160/208/160
f 157/205/157 160/208/160 161/209/161
f 157/205/157 161/209/161 162/210/162
f 157/205/157 162/210/162 163/211/163
f 157/205/157 163/211/163 164/212/164
f 157/205/157 164/212/164 165/213/165
f 157/205/157 165/213/165 158/206/158
f 166/214/166 159/207/159 158/206/158
f 158/206/158 167/215/167 166/214/166
f 168/216/168 160/208/160 159/207/159
f 159/207/159 166/214/166 168/216/168
f 169/217/169 161/209/161 160/208/160
f 160/208/160 168/216/168 169/217/169
f 170/218/170 162/210/162 161/209/161
f 161/209/161 169/217/169 170/218/170
f 171/219/171 163/211/163 162/210/162
f 162/210/162 170/218/170 171/219/171
f 172/220/172 164/212/164 163/211/163
f 163/211/163 171/219/171 172/220/172
f 173/221/173 165/213/165 164/212/164
f 164/212/164 172/220/172 173/221/173
f 167/215/167 158/206/158 165/213/165
f 165/213/165 173/221/173 167/215/167
f 174/222/174 166/223/166 167/224/167
f 167/224/167 175/225/175 174/222/174
f 176/226/176 168/227/168 166/223/166
f 166/223/166 174/222/174 176/226/176
f 177/228/177 169/229/169 168/227/168
f 168/227/168 176/226/176 177/228/177
f 178/230/178 170/231/170 169/229/169
f 169/229/169 177/228/177 178/230/178
f 179/232/179 171/233/171 170/231/170
f 170/231/170 178/230/178 179/232/179
f 180/234/180 172/235/172 171/233/171
f 171/233/171 179/232/179 180/234/180
f 181/236/181 173/237/173 172/235/172
f 172/235/172 180/234/180 181/236/181
f 175/225/175 167/224/167 173/237/173
f 173/237/173 181/236/181 175/225/175
f 182/238/182 174/222/174 175/225/175
f 182/238/182 176/226/176 174/222/174
f 182/238/182 177/228/177 176/226/176
f 182/238/182 178/230/178 177/228/177
f 182/238/182 179/232/179 178/230/178
f 182/238/182 180/234/180 179/232/179
f 182/238/182 181/236/181 180/234/180
f 182/238/182 175/225/175 181/236/181
s 8
f 183/239/183 184/240/184 185/241/185
f 183/239/183 185/241/185 186/242/186
f 183/239/183 186/242/186 187/243/187
f 183/239/183 187/243/187 188/244/188
f 183/239/183 188/244/188 189/245/189
f 183/239/183 189/245/189 190/246/190
f 183/239/183 190/246/190 191/247/191
f 183/239/183 191/247/191 184/240/184
f 192/248/192 185/241/185 184/240/184
f 184/240/184 193/249/193 192/248/192
f 194/250/194 186/242/186 185/241/185
f 185/241/185 192/248/192 194/250/194
f 195/251/195 187/243/187 186/242/186
f 186/242/186 194/250/194 195/251/195
f 196/252/196 188/244/188 187/243/187
f 187/243/187 195/251/195 196/252/196
f 197/253/197 189/245/189 188/244/188
f 188/244/188 196/252/196 197/253/197
f 198/254/198 190/246/190 189/245/189
f 189/245/189 197/253/197 198/254/198
f 199/255/199 191/247/191 190/246/190
f 190/246/190 198/254/198 199/255/199
f 193/249/193 184/240/184 191/247/191
f 191/247/191 199/255/199 193/249/193
f 200/256/200 192/257/192 193/258/193
f 193/258/193 201/259/201 200/256/200
f 202/260/202 194/261/194 192/257/192
f 192/257/192 200/256/200 202/260/202
f 203/262/203 195/263/195 194/261/194
f 194/261/194 202/260/202 203/262/203
f 204/264/204 196/265/196 195/263/195
f 195/263/195 203/262/203 204/264/204
f 205/266/205 197/267/197 196/265/196
f 196/265/196 204/264/204 205/266/205
f 206/268/206 198/269/198 197/267/197
f 197/267/197 205/266/205 206/268/206
f 207/270/207 199/271/199 198/269/198
f 198/269/198 206/268/206 207/270/207
f 201/259/201 193/258/193 199/271/199
f 199/271/199 207/270/207 201/259/201
f 208/272/208 200/256/200 201/259/201
f 208/272/208 202/260/202 200/256/200
f 208/272/208 203/262/203 202/260/202
f 208/272/208 204/264/204 203/262/203
f 208/272/208 205/266/205 204/264/204
f 208/272/208 206/268/206 205/266/205
f 208/272/208 207/270/207 206/268/206
f 208/272/208 201/259/201 207/270/207
s 9
f 209/273/209 210/274/210 211/275/211
f 209/273/209 211/275/211 212/276/212
f 209/273/209 212/276/212 213/277/213
f 209/273/209 213/277/213 214/278/214
f 209/273/209 214/278/214 215/279/215
f 209/273/209 215/279/215 216/280/216
f 209/273/209 216/280/216 217/281/217
f 209/273/209 217/281/217 210/274/210
f 218/282/218 211/275/211 210/274/210
f 210/274/210 219/283/219 218/282/218
f 220/284/220 212/276/212 211/275/211
f 211/275/211 218/282/218 220/284/220
f 221/285/221 213/277/213 212/276/212
f 212/276/212 220/284/220 221/285/221
f 222/286/222 214/278/214 213/277/213
f 213/277/213 221/285/221 222/286/222
f 223/287/223 215/279/215 214/278/214
f 214/278/214 222/286/222 223/287/223
f 224/288/224 216/280/216 215/279/215
f 215/279/215 223/287/223 224/288/224
f 225/289/225 217/281/217 216/280/216
f 216/280/216 224/288/224 225/289/225
f 219/283/219 210/274/210 217/281/217
f 217/281/217 225/289/225 219/283/219
f 226/290/226 218/291/218 219/292/219
f 219/292/219 227/293/227 226/290/226
f 228/294/228 220/295/220 218/291/218
f 218/291/218 226/290/226 228/294/228
f 229/296/229 221/297/221 220/295/220
f 220/295/220 228/294/228 229/296/229
f 230/298/230 222/299/222 221/297/221
f 221/297/221 229/296/229 230/298/230
f 231/300/231 223/301/223 222/299/222
f 222/299/222 230/298/230 231/300/231
f 232/302/232 224/303/224 223/301/223
f 223/301/223 231/300/231 232/302/232
f 233/304/233 225/305/225 224/303/224
f 224/303/224 232/302/232 233/304/233
f 227/293/227 219/292/219 225/305/225
f 225/305/225 233/304/233 227/293/227
f 234/306/234 226/290/226 227/293/227
f 234/306/234 228/294/228 226/290/226
f 234/306/234 229/296/229 228/294/228
f 234/306/234 230/298/230 229/296/229
f 234/306/234 231/300/231 230/298/230
f 234/306/234 232/302/232 231/300/231
f 234/306/234 233/304/233 232/302/232
f 234/306/234 227/293/227 233/304/233
