# Blender v3.3.0 OBJ File: ''
# www.blender.org
o BlueberryStage00.005
v 0.000000 -0.006920 -0.000680
v 0.000000 0.000381 -0.004387
v 0.004330 0.000003 -0.000074
v -0.004330 0.000003 -0.000074
v 0.000000 -0.000374 0.004239
v 0.000804 0.065008 0.000000
v 0.000000 0.064800 -0.000777
v -0.000804 0.065008 0.000000
v 0.000000 0.065216 0.000777
v 0.001916 0.043755 0.001197
v 0.001022 0.054320 0.000453
v 0.002091 0.054382 0.001514
v 0.003558 0.043755 0.002840
v -0.000048 0.054382 0.001514
v 0.000273 0.043755 0.002840
v 0.001022 0.054443 0.002576
v 0.001916 0.043755 0.004482
v 0.000000 0.003886 -0.002586
v 0.002841 0.003638 0.000244
v -0.002841 0.003638 0.000244
v 0.000000 0.003391 0.003074
v 0.001149 0.024071 0.000827
v 0.003274 0.023702 0.002920
v -0.000976 0.023702 0.002920
v 0.001149 0.023333 0.005013
v 0.002921 0.044059 0.002987
v 0.015559 0.038494 0.015249
v 0.063653 0.064319 0.005330
v 0.069103 0.075203 -0.005346
v 0.054211 0.080652 -0.008615
v 0.002479 0.061120 -0.004070
v 0.045290 0.044354 0.011037
v 0.027878 0.074474 -0.014680
v 0.003034 0.043886 0.002707
v 0.069217 0.075030 -0.005626
v 0.063766 0.064146 0.005051
v 0.015672 0.038321 0.014969
v 0.002592 0.060947 -0.004349
v 0.054324 0.080479 -0.008895
v 0.045403 0.044181 0.010757
v 0.027992 0.074301 -0.014960
v -0.000001 0.064063 0.000000
v 0.016249 0.072321 0.002965
v 0.011729 0.126557 -0.007828
v -0.000001 0.136565 -0.012767
v -0.011732 0.126557 -0.007828
v -0.016251 0.072321 0.002965
v 0.021630 0.100674 -0.007194
v -0.021633 0.100674 -0.007194
v -0.000001 0.064063 -0.000348
v -0.000001 0.136565 -0.013115
v 0.011729 0.126557 -0.008175
v 0.016249 0.072321 0.002618
v -0.016251 0.072321 0.002618
v -0.011732 0.126557 -0.008175
v 0.021630 0.100674 -0.007542
v -0.021633 0.100674 -0.007542
v 0.001413 0.043755 0.002840
v -0.004672 0.060301 -0.002662
v -0.060129 0.060039 -0.004351
v -0.071877 0.049330 -0.001275
v -0.062333 0.040382 0.008263
v -0.007725 0.033069 0.014813
v -0.033689 0.064307 -0.011496
v -0.037752 0.028058 0.011766
v 0.001355 0.043575 0.002548
v -0.071935 0.049150 -0.001567
v -0.060187 0.059859 -0.004643
v -0.004730 0.060120 -0.002953
v -0.007783 0.032888 0.014521
v -0.062391 0.040201 0.007972
v -0.033746 0.064127 -0.011787
v -0.037810 0.027877 0.011475
vt 0.691200 0.149200
vt 0.658300 0.170900
vt 0.653600 0.149700
vt 0.669900 0.192900
vt 0.657200 0.128500
vt 0.668700 0.106300
vt 0.339100 0.150700
vt 0.333600 0.151700
vt 0.332600 0.146200
vt 0.338000 0.145200
vt 0.443800 0.164900
vt 0.391300 0.159300
vt 0.392100 0.151800
vt 0.444600 0.153800
vt 0.390700 0.166700
vt 0.443000 0.176200
vt 0.391800 0.144200
vt 0.390500 0.136800
vt 0.443300 0.131400
vt 0.444500 0.142600
vt 0.642000 0.172400
vt 0.639100 0.150100
vt 0.643600 0.192900
vt 0.640300 0.127500
vt 0.643000 0.106700
vt 0.543300 0.165700
vt 0.542300 0.150500
vt 0.542400 0.180600
vt 0.542100 0.135300
vt 0.542400 0.120300
vt 0.339200 0.156500
vt 0.338100 0.162000
vt 0.337900 0.139600
vt 0.169200 0.487100
vt 0.283000 0.539600
vt 0.255400 0.921700
vt 0.169200 0.995500
vt 0.083000 0.921700
vt 0.055400 0.539600
vt 0.330300 0.744700
vt 0.008100 0.744700
vt 0.169200 0.487100
vt 0.169200 0.995500
vt 0.255400 0.921700
vt 0.283000 0.539600
vt 0.055400 0.539600
vt 0.083000 0.921700
vt 0.330300 0.744700
vt 0.008100 0.744700
vt 0.502700 0.487100
vt 0.616500 0.539600
vt 0.588900 0.921700
vt 0.502700 0.995500
vt 0.416600 0.921700
vt 0.388900 0.539600
vt 0.663900 0.744700
vt 0.341600 0.744700
vt 0.502700 0.487100
vt 0.502700 0.995500
vt 0.588900 0.921700
vt 0.616500 0.539600
vt 0.388900 0.539600
vt 0.416600 0.921700
vt 0.663900 0.744700
vt 0.341600 0.744700
vt 0.502700 0.487100
vt 0.616500 0.539600
vt 0.588900 0.921700
vt 0.502700 0.995500
vt 0.416600 0.921700
vt 0.388900 0.539600
vt 0.663900 0.744700
vt 0.341600 0.744700
vt 0.502700 0.487100
vt 0.502700 0.995500
vt 0.588900 0.921700
vt 0.616500 0.539600
vt 0.388900 0.539600
vt 0.416600 0.921700
vt 0.663900 0.744700
vt 0.341600 0.744700
vn 0.0000 -0.9962 -0.0872
vn -0.0000 0.0158 -0.9999
vn 0.9974 -0.0712 -0.0062
vn -0.9974 -0.0712 -0.0062
vn -0.0000 -0.1581 0.9874
vn 0.7842 0.6097 -0.1151
vn -0.0369 0.4071 -0.9126
vn -0.8350 0.5410 -0.1003
vn -0.0333 0.7391 0.6728
vn 0.0287 -0.0245 -0.9993
vn 0.0044 -0.0935 -0.9956
vn 0.9917 0.1285 -0.0083
vn 0.9978 0.0619 0.0238
vn -0.9987 -0.0497 0.0088
vn -0.9994 0.0194 0.0278
vn -0.0022 0.1711 0.9853
vn 0.0248 0.0987 0.9948
vn -0.0107 0.3330 -0.9429
vn 0.9795 0.2015 0.0080
vn -0.9670 0.2543 0.0138
vn -0.0119 0.1211 0.9926
vn 0.0022 0.0901 -0.9959
vn 0.9994 -0.0166 0.0291
vn -0.9961 0.0785 0.0406
vn 0.0074 -0.0390 0.9992
vn -0.0370 0.4071 -0.9126
vn -0.0334 0.7390 0.6728
vn -0.1725 0.5800 0.7961
vn -0.2284 0.6894 0.6874
vn -0.2326 0.6942 0.6812
vn -0.1727 0.5799 0.7962
vn -0.0941 0.4547 0.8856
vn -0.0970 0.4621 0.8815
vn 0.1019 0.1857 0.9773
vn -0.2947 0.8717 0.3916
vn 0.1725 -0.5800 -0.7961
vn 0.1727 -0.5800 -0.7961
vn 0.2326 -0.6942 -0.6812
vn 0.2284 -0.6894 -0.6874
vn 0.0970 -0.4620 -0.8815
vn 0.0941 -0.4547 -0.8856
vn -0.1019 -0.1856 -0.9773
vn 0.2947 -0.8717 -0.3916
vn -0.0000 0.1736 0.9848
vn -0.1633 0.1794 0.9701
vn -0.1720 0.1782 0.9689
vn -0.0000 0.1734 0.9848
vn 0.1719 0.1782 0.9689
vn 0.1633 0.1795 0.9701
vn 0.4927 0.2092 0.8447
vn -0.4927 0.2091 0.8447
vn 0.0000 -0.1736 -0.9848
vn 0.0000 -0.1734 -0.9848
vn 0.1720 -0.1782 -0.9688
vn 0.1633 -0.1794 -0.9701
vn -0.1633 -0.1794 -0.9701
vn -0.1720 -0.1782 -0.9688
vn -0.4928 -0.2092 -0.8447
vn 0.4927 -0.2091 -0.8447
vn -0.0063 0.5406 0.8413
vn -0.0298 0.3971 0.9173
vn -0.0296 0.3890 0.9208
vn -0.0061 0.5406 0.8413
vn 0.0027 0.6772 0.7358
vn 0.0009 0.6707 0.7417
vn -0.0183 0.8867 0.4621
vn -0.1108 0.0609 0.9920
vn 0.0063 -0.5405 -0.8413
vn 0.0061 -0.5406 -0.8413
vn 0.0296 -0.3889 -0.9208
vn 0.0298 -0.3971 -0.9173
vn -0.0009 -0.6707 -0.7417
vn -0.0027 -0.6771 -0.7358
vn 0.0183 -0.8866 -0.4621
vn 0.1108 -0.0610 -0.9920
s 1
f 1/1/1 2/2/2 3/3/3
f 1/1/1 4/4/4 2/2/2
f 1/1/1 5/5/5 4/6/4
f 1/1/1 3/3/3 5/5/5
s 2
f 6/7/6 7/8/7 8/9/8
f 8/9/8 9/10/9 6/7/6
s 1
f 10/11/10 11/12/11 12/13/12
f 12/13/12 13/14/13 10/11/10
f 14/15/14 11/12/11 10/11/10
f 10/11/10 15/16/15 14/15/14
f 16/17/16 14/18/14 15/19/15
f 15/19/15 17/20/17 16/17/16
f 13/14/13 12/13/12 16/17/16
f 16/17/16 17/20/17 13/14/13
f 18/21/18 19/22/19 3/3/3
f 3/3/3 2/2/2 18/21/18
f 20/23/20 18/21/18 2/2/2
f 2/2/2 4/4/4 20/23/20
f 5/5/5 21/24/21 20/25/20
f 20/25/20 4/6/4 5/5/5
f 3/3/3 19/22/19 21/24/21
f 21/24/21 5/5/5 3/3/3
f 22/26/22 23/27/23 19/22/19
f 19/22/19 18/21/18 22/26/22
f 20/23/20 24/28/24 22/26/22
f 22/26/22 18/21/18 20/23/20
f 21/24/21 25/29/25 24/30/24
f 24/30/24 20/25/20 21/24/21
f 23/27/23 25/29/25 21/24/21
f 21/24/21 19/22/19 23/27/23
f 11/12/11 7/31/26 6/7/6
f 6/7/6 12/13/12 11/12/11
f 14/15/14 8/32/8 7/31/26
f 7/31/26 11/12/11 14/15/14
f 9/10/27 8/33/8 14/18/14
f 14/18/14 16/17/16 9/10/27
f 6/7/6 9/10/27 16/17/16
f 16/17/16 12/13/12 6/7/6
f 10/11/10 13/14/13 23/27/23
f 23/27/23 22/26/22 10/11/10
f 24/28/24 15/16/15 10/11/10
f 10/11/10 22/26/22 24/28/24
f 25/29/25 17/20/17 15/19/15
f 15/19/15 24/30/24 25/29/25
f 13/14/13 17/20/17 25/29/25
f 25/29/25 23/27/23 13/14/13
s 3
f 26/34/28 27/35/29 28/36/30
f 28/36/30 29/37/31 26/34/28
f 26/34/28 29/37/31 30/38/32
f 30/38/32 31/39/33 26/34/28
f 27/35/29 32/40/34 28/36/30
f 30/38/32 33/41/35 31/39/33
s 4
f 34/42/36 35/43/37 36/44/38
f 36/44/38 37/45/39 34/42/36
f 34/42/36 38/46/40 39/47/41
f 39/47/41 35/43/37 34/42/36
f 37/45/39 36/44/38 40/48/42
f 39/47/41 38/46/40 41/49/43
s 5
f 42/50/44 43/51/45 44/52/46
f 44/52/46 45/53/47 42/50/44
f 42/50/44 45/53/47 46/54/48
f 46/54/48 47/55/49 42/50/44
f 43/51/45 48/56/50 44/52/46
f 46/54/48 49/57/51 47/55/49
s 6
f 50/58/52 51/59/53 52/60/54
f 52/60/54 53/61/55 50/58/52
f 50/58/52 54/62/56 55/63/57
f 55/63/57 51/59/53 50/58/52
f 53/61/55 52/60/54 56/64/58
f 55/63/57 54/62/56 57/65/59
s 7
f 58/66/60 59/67/61 60/68/62
f 60/68/62 61/69/63 58/66/60
f 58/66/60 61/69/63 62/70/64
f 62/70/64 63/71/65 58/66/60
f 59/67/61 64/72/66 60/68/62
f 62/70/64 65/73/67 63/71/65
s 8
f 66/74/68 67/75/69 68/76/70
f 68/76/70 69/77/71 66/74/68
f 66/74/68 70/78/72 71/79/73
f 71/79/73 67/75/69 66/74/68
f 69/77/71 68/76/70 72/80/74
f 71/79/73 70/78/72 73/81/75
