# Blender v3.3.0 OBJ File: ''
# www.blender.org
o BlueberryStage01.005
v 0.000000 -0.006920 -0.000680
v 0.000000 0.000381 -0.004387
v 0.004330 0.000003 -0.000074
v -0.004330 0.000003 -0.000074
v 0.000000 -0.000374 0.004239
v -0.004031 0.158016 0.000000
v -0.004753 0.157607 -0.000777
v -0.005584 0.157600 0.000000
v -0.004861 0.158009 0.000777
v -0.001313 0.094661 0.001197
v 0.003170 0.131237 0.000453
v 0.004229 0.131391 0.001514
v 0.000330 0.094661 0.002840
v 0.002099 0.131204 0.001514
v -0.002956 0.094661 0.002840
v 0.003159 0.131359 0.002576
v -0.001313 0.094661 0.004482
v 0.000000 0.003886 -0.002586
v 0.002841 0.003638 0.000244
v -0.002841 0.003638 0.000244
v 0.000000 0.003391 0.003074
v 0.001149 0.054690 0.000827
v 0.003274 0.054321 0.002920
v -0.000976 0.054321 0.002920
v 0.001149 0.053952 0.005013
v -0.004656 0.157236 0.000000
v 0.006646 0.171644 0.002393
v -0.019873 0.218462 -0.011143
v -0.034635 0.222420 -0.016490
v -0.041206 0.208702 -0.010938
v -0.022907 0.158124 0.002677
v -0.000114 0.199113 -0.009261
v -0.039454 0.181115 -0.008884
v -0.004651 0.157219 -0.000347
v -0.034630 0.222402 -0.016837
v -0.019868 0.218445 -0.011490
v 0.006651 0.171627 0.002046
v -0.022902 0.158107 0.002330
v -0.041201 0.208685 -0.011285
v -0.000109 0.199095 -0.009609
v -0.039449 0.181097 -0.009231
v 0.001102 0.054494 0.003037
v 0.001368 0.048928 0.020644
v 0.042389 0.074753 0.047638
v 0.053792 0.085638 0.043943
v 0.045573 0.091087 0.031101
v 0.005779 0.071554 -0.002265
v 0.025369 0.054789 0.038689
v 0.031242 0.084908 0.008193
v 0.001380 0.054321 0.002920
v 0.054070 0.085465 0.043825
v 0.042667 0.074580 0.047521
v 0.001645 0.048755 0.020527
v 0.006057 0.071381 -0.002383
v 0.045851 0.090914 0.030983
v 0.025647 0.054615 0.038571
v 0.031520 0.084735 0.008075
v -0.000183 0.072454 0.003014
v -0.000832 0.088253 -0.006526
v -0.049883 0.092463 -0.032111
v -0.063324 0.083500 -0.033189
v -0.060099 0.075557 -0.019453
v -0.014983 0.064834 0.011010
v -0.022558 0.093140 -0.027505
v -0.041396 0.061965 -0.004162
v -0.000141 0.072231 0.002750
v -0.063282 0.083277 -0.033453
v -0.049841 0.092240 -0.032375
v -0.000790 0.088030 -0.006790
v -0.014941 0.064611 0.010746
v -0.060057 0.075335 -0.019716
v -0.022516 0.092918 -0.027769
v -0.041354 0.061742 -0.004426
v -0.000772 0.094823 0.003039
v 0.005896 0.090380 0.019678
v 0.051470 0.120299 0.029985
v 0.060043 0.131617 0.022203
v 0.047548 0.135747 0.012770
v 0.000464 0.111780 -0.004171
v 0.034056 0.098810 0.028161
v 0.026825 0.127297 -0.003586
v -0.000538 0.094661 0.002840
v 0.060277 0.131454 0.022004
v 0.051704 0.120137 0.029786
v 0.006130 0.090218 0.019479
v 0.000698 0.111618 -0.004370
v 0.047783 0.135585 0.012570
v 0.034290 0.098647 0.027962
v 0.027059 0.127135 -0.003785
v 0.000782 0.115413 0.001585
v -0.004769 0.130749 -0.007078
v -0.058617 0.139365 0.003149
v -0.070250 0.131945 0.011622
v -0.059585 0.124300 0.021108
v -0.006111 0.109880 0.017800
v -0.034509 0.137141 -0.010350
v -0.036296 0.109360 0.022767
v 0.000635 0.115176 0.001378
v -0.070397 0.131707 0.011415
v -0.058764 0.139127 0.002942
v -0.004916 0.130511 -0.007285
v -0.006258 0.109642 0.017593
v -0.059732 0.124063 0.020901
v -0.034656 0.136903 -0.010557
v -0.036443 0.109123 0.022560
v 0.003575 0.131479 0.001470
v 0.021246 0.130571 0.006760
v 0.050008 0.171289 -0.017596
v 0.046764 0.183381 -0.027864
v 0.031010 0.183408 -0.024125
v -0.005072 0.147360 -0.002284
v 0.042969 0.146247 -0.008018
v 0.007936 0.168595 -0.020057
v 0.003607 0.131355 0.001147
v 0.046796 0.183257 -0.028187
v 0.050040 0.171165 -0.017919
v 0.021278 0.130448 0.006437
v -0.005040 0.147236 -0.002607
v 0.031042 0.183284 -0.024448
v 0.043001 0.146123 -0.008341
v 0.007968 0.168471 -0.020380
vt 0.691200 0.149200
vt 0.658300 0.170900
vt 0.653600 0.149700
vt 0.669900 0.192900
vt 0.657200 0.128500
vt 0.668700 0.106300
vt 0.339100 0.150700
vt 0.333600 0.151700
vt 0.332600 0.146200
vt 0.338000 0.145200
vt 0.443800 0.164900
vt 0.391300 0.159300
vt 0.392100 0.151800
vt 0.444600 0.153800
vt 0.390700 0.166700
vt 0.443000 0.176200
vt 0.391800 0.144200
vt 0.390500 0.136800
vt 0.443300 0.131400
vt 0.444500 0.142600
vt 0.642000 0.172400
vt 0.639100 0.150100
vt 0.643600 0.192900
vt 0.640300 0.127500
vt 0.643000 0.106700
vt 0.543300 0.165700
vt 0.542300 0.150500
vt 0.542400 0.180600
vt 0.542100 0.135300
vt 0.542400 0.120300
vt 0.339200 0.156500
vt 0.338100 0.162000
vt 0.337900 0.139600
vt 0.502700 0.487100
vt 0.616500 0.539600
vt 0.588900 0.921700
vt 0.502700 0.995500
vt 0.416600 0.921700
vt 0.388900 0.539600
vt 0.663900 0.744700
vt 0.341600 0.744700
vt 0.502700 0.487100
vt 0.502700 0.995500
vt 0.588900 0.921700
vt 0.616500 0.539600
vt 0.388900 0.539600
vt 0.416600 0.921700
vt 0.663900 0.744700
vt 0.341600 0.744700
vt 0.169200 0.487100
vt 0.283000 0.539600
vt 0.255400 0.921700
vt 0.169200 0.995500
vt 0.083000 0.921700
vt 0.055400 0.539600
vt 0.330300 0.744700
vt 0.008100 0.744700
vt 0.169200 0.487100
vt 0.169200 0.995500
vt 0.255400 0.921700
vt 0.283000 0.539600
vt 0.055400 0.539600
vt 0.083000 0.921700
vt 0.330300 0.744700
vt 0.008100 0.744700
vt 0.502700 0.487100
vt 0.616500 0.539600
vt 0.588900 0.921700
vt 0.502700 0.995500
vt 0.416600 0.921700
vt 0.388900 0.539600
vt 0.663900 0.744700
vt 0.341600 0.744700
vt 0.502700 0.487100
vt 0.502700 0.995500
vt 0.588900 0.921700
vt 0.616500 0.539600
vt 0.388900 0.539600
vt 0.416600 0.921700
vt 0.663900 0.744700
vt 0.341600 0.744700
vt 0.502700 0.487100
vt 0.616500 0.539600
vt 0.588900 0.921700
vt 0.502700 0.995500
vt 0.416600 0.921700
vt 0.388900 0.539600
vt 0.663900 0.744700
vt 0.341600 0.744700
vt 0.502700 0.487100
vt 0.502700 0.995500
vt 0.588900 0.921700
vt 0.616500 0.539600
vt 0.388900 0.539600
vt 0.416600 0.921700
vt 0.663900 0.744700
vt 0.341600 0.744700
vt 0.169200 0.487100
vt 0.283000 0.539600
vt 0.255400 0.921700
vt 0.169200 0.995500
vt 0.083000 0.921700
vt 0.055400 0.539600
vt 0.330300 0.744700
vt 0.008100 0.744700
vt 0.169200 0.487100
vt 0.169200 0.995500
vt 0.255400 0.921700
vt 0.283000 0.539600
vt 0.055400 0.539600
vt 0.083000 0.921700
vt 0.330300 0.744700
vt 0.008100 0.744700
vt 0.169200 0.487100
vt 0.283000 0.539600
vt 0.255400 0.921700
vt 0.169200 0.995500
vt 0.083000 0.921700
vt 0.055400 0.539600
vt 0.330300 0.744700
vt 0.008100 0.744700
vt 0.169200 0.487100
vt 0.169200 0.995500
vt 0.255400 0.921700
vt 0.283000 0.539600
vt 0.055400 0.539600
vt 0.083000 0.921700
vt 0.330300 0.744700
vt 0.008100 0.744700
vn 0.0000 -0.9962 -0.0872
vn -0.0000 0.0158 -0.9999
vn 0.9974 -0.0712 -0.0062
vn -0.9974 -0.0712 -0.0062
vn -0.0000 -0.1581 0.9874
vn 0.6291 0.7735 -0.0768
vn -0.1253 0.4213 -0.8982
vn -0.9414 0.3293 -0.0726
vn -0.1938 0.6832 0.7041
vn -0.0415 -0.0026 -0.9991
vn 0.0957 -0.0258 -0.9951
vn 0.9953 0.0963 0.0030
vn 0.9998 -0.0171 0.0086
vn -0.9975 -0.0704 0.0036
vn -0.9991 0.0424 0.0069
vn 0.0863 0.0662 0.9941
vn -0.0398 0.0344 0.9986
vn -0.0048 0.2862 -0.9582
vn 0.9782 0.2061 0.0252
vn -0.9734 0.2276 0.0268
vn -0.0045 0.1488 0.9889
vn 0.0207 0.0371 -0.9991
vn 0.9993 0.0331 0.0153
vn -0.9999 -0.0049 0.0123
vn 0.0171 -0.0136 0.9998
vn -0.1253 0.4214 -0.8982
vn -0.1939 0.6832 0.7041
vn -0.0855 0.2074 0.9745
vn -0.2362 0.1440 0.9610
vn -0.2436 0.1392 0.9598
vn -0.0855 0.2072 0.9746
vn 0.0692 0.2823 0.9568
vn 0.0607 0.2799 0.9581
vn 0.3495 0.4375 0.8285
vn -0.5464 0.0276 0.8370
vn 0.0855 -0.2074 -0.9745
vn 0.0855 -0.2072 -0.9746
vn 0.2436 -0.1392 -0.9598
vn 0.2362 -0.1440 -0.9610
vn -0.0607 -0.2799 -0.9581
vn -0.0692 -0.2823 -0.9568
vn -0.3496 -0.4376 -0.8284
vn 0.5464 -0.0276 -0.8370
vn -0.6849 0.5800 0.4410
vn -0.6476 0.6894 0.3246
vn -0.6461 0.6941 0.3173
vn -0.6851 0.5799 0.4409
vn -0.6928 0.4547 0.5597
vn -0.6919 0.4621 0.5547
vn -0.6191 0.1857 0.7631
vn -0.4853 0.8717 0.0685
vn 0.6849 -0.5800 -0.4410
vn 0.6851 -0.5799 -0.4409
vn 0.6461 -0.6942 -0.3173
vn 0.6476 -0.6894 -0.3246
vn 0.6919 -0.4621 -0.5547
vn 0.6928 -0.4547 -0.5597
vn 0.6190 -0.1856 -0.7631
vn 0.4853 -0.8717 -0.0685
vn -0.2736 0.6770 0.6833
vn -0.3481 0.5514 0.7581
vn -0.3506 0.5440 0.7623
vn -0.2734 0.6769 0.6834
vn -0.2009 0.7918 0.5767
vn -0.2059 0.7867 0.5819
vn -0.0738 0.9517 0.2981
vn -0.5029 0.2416 0.8299
vn 0.2736 -0.6770 -0.6833
vn 0.2734 -0.6769 -0.6834
vn 0.3506 -0.5440 -0.7623
vn 0.3481 -0.5514 -0.7581
vn 0.2059 -0.7867 -0.5819
vn 0.2009 -0.7919 -0.5767
vn 0.0739 -0.9516 -0.2982
vn 0.5029 -0.2415 -0.8299
vn -0.5380 0.5628 0.6275
vn -0.5512 0.6669 0.5015
vn -0.5527 0.6713 0.4939
vn -0.5382 0.5627 0.6275
vn -0.4952 0.4448 0.7463
vn -0.4966 0.4519 0.7410
vn -0.3357 0.1938 0.9218
vn -0.5004 0.8427 0.1987
vn 0.5380 -0.5628 -0.6275
vn 0.5382 -0.5627 -0.6275
vn 0.5527 -0.6713 -0.4939
vn 0.5512 -0.6669 -0.5015
vn 0.4966 -0.4519 -0.7411
vn 0.4952 -0.4448 -0.7462
vn 0.3357 -0.1938 -0.9218
vn 0.5004 -0.8427 -0.1987
vn 0.2593 0.7330 0.6289
vn 0.2410 0.6202 0.7465
vn 0.2412 0.6133 0.7521
vn 0.2594 0.7330 0.6288
vn 0.2554 0.8341 0.4889
vn 0.2545 0.8299 0.4966
vn 0.1882 0.9661 0.1769
vn 0.1475 0.3333 0.9312
vn -0.2593 -0.7330 -0.6289
vn -0.2594 -0.7330 -0.6288
vn -0.2412 -0.6133 -0.7521
vn -0.2410 -0.6202 -0.7465
vn -0.2545 -0.8298 -0.4966
vn -0.2554 -0.8342 -0.4888
vn -0.1882 -0.9661 -0.1769
vn -0.1475 -0.3333 -0.9312
vn 0.0098 0.4860 0.8739
vn -0.1177 0.5697 0.8134
vn -0.1254 0.5728 0.8101
vn 0.0096 0.4859 0.8739
vn 0.1531 0.3951 0.9058
vn 0.1467 0.4010 0.9042
vn 0.4423 0.2092 0.8721
vn -0.3557 0.7183 0.5979
vn -0.0097 -0.4861 -0.8739
vn -0.0096 -0.4859 -0.8739
vn 0.1254 -0.5728 -0.8101
vn 0.1177 -0.5697 -0.8134
vn -0.1467 -0.4010 -0.9042
vn -0.1531 -0.3951 -0.9058
vn -0.4423 -0.2092 -0.8721
vn 0.3557 -0.7183 -0.5979
s 1
f 1/1/1 2/2/2 3/3/3
f 1/1/1 4/4/4 2/2/2
f 1/1/1 5/5/5 4/6/4
f 1/1/1 3/3/3 5/5/5
s 2
f 6/7/6 7/8/7 8/9/8
f 8/9/8 9/10/9 6/7/6
s 1
f 10/11/10 11/12/11 12/13/12
f 12/13/12 13/14/13 10/11/10
f 14/15/14 11/12/11 10/11/10
f 10/11/10 15/16/15 14/15/14
f 16/17/16 14/18/14 15/19/15
f 15/19/15 17/20/17 16/17/16
f 13/14/13 12/13/12 16/17/16
f 16/17/16 17/20/17 13/14/13
f 18/21/18 19/22/19 3/3/3
f 3/3/3 2/2/2 18/21/18
f 20/23/20 18/21/18 2/2/2
f 2/2/2 4/4/4 20/23/20
f 5/5/5 21/24/21 20/25/20
f 20/25/20 4/6/4 5/5/5
f 3/3/3 19/22/19 21/24/21
f 21/24/21 5/5/5 3/3/3
f 22/26/22 23/27/23 19/22/19
f 19/22/19 18/21/18 22/26/22
f 20/23/20 24/28/24 22/26/22
f 22/26/22 18/21/18 20/23/20
f 21/24/21 25/29/25 24/30/24
f 24/30/24 20/25/20 21/24/21
f 23/27/23 25/29/25 21/24/21
f 21/24/21 19/22/19 23/27/23
f 11/12/11 7/31/26 6/7/6
f 6/7/6 12/13/12 11/12/11
f 14/15/14 8/32/8 7/31/26
f 7/31/26 11/12/11 14/15/14
f 9/10/27 8/33/8 14/18/14
f 14/18/14 16/17/16 9/10/27
f 6/7/6 9/10/27 16/17/16
f 16/17/16 12/13/12 6/7/6
f 10/11/10 13/14/13 23/27/23
f 23/27/23 22/26/22 10/11/10
f 24/28/24 15/16/15 10/11/10
f 10/11/10 22/26/22 24/28/24
f 25/29/25 17/20/17 15/19/15
f 15/19/15 24/30/24 25/29/25
f 13/14/13 17/20/17 25/29/25
f 25/29/25 23/27/23 13/14/13
s 3
f 26/34/28 27/35/29 28/36/30
f 28/36/30 29/37/31 26/34/28
f 26/34/28 29/37/31 30/38/32
f 30/38/32 31/39/33 26/34/28
f 27/35/29 32/40/34 28/36/30
f 30/38/32 33/41/35 31/39/33
s 4
f 34/42/36 35/43/37 36/44/38
f 36/44/38 37/45/39 34/42/36
f 34/42/36 38/46/40 39/47/41
f 39/47/41 35/43/37 34/42/36
f 37/45/39 36/44/38 40/48/42
f 39/47/41 38/46/40 41/49/43
s 5
f 42/50/44 43/51/45 44/52/46
f 44/52/46 45/53/47 42/50/44
f 42/50/44 45/53/47 46/54/48
f 46/54/48 47/55/49 42/50/44
f 43/51/45 48/56/50 44/52/46
f 46/54/48 49/57/51 47/55/49
s 6
f 50/58/52 51/59/53 52/60/54
f 52/60/54 53/61/55 50/58/52
f 50/58/52 54/62/56 55/63/57
f 55/63/57 51/59/53 50/58/52
f 53/61/55 52/60/54 56/64/58
f 55/63/57 54/62/56 57/65/59
s 7
f 58/66/60 59/67/61 60/68/62
f 60/68/62 61/69/63 58/66/60
f 58/66/60 61/69/63 62/70/64
f 62/70/64 63/71/65 58/66/60
f 59/67/61 64/72/66 60/68/62
f 62/70/64 65/73/67 63/71/65
s 8
f 66/74/68 67/75/69 68/76/70
f 68/76/70 69/77/71 66/74/68
f 66/74/68 70/78/72 71/79/73
f 71/79/73 67/75/69 66/74/68
f 69/77/71 68/76/70 72/80/74
f 71/79/73 70/78/72 73/81/75
s 9
f 74/82/76 75/83/77 76/84/78
f 76/84/78 77/85/79 74/82/76
f 74/82/76 77/85/79 78/86/80
f 78/86/80 79/87/81 74/82/76
f 75/83/77 80/88/82 76/84/78
f 78/86/80 81/89/83 79/87/81
s 10
f 82/90/84 83/91/85 84/92/86
f 84/92/86 85/93/87 82/90/84
f 82/90/84 86/94/88 87/95/89
f 87/95/89 83/91/85 82/90/84
f 85/93/87 84/92/86 88/96/90
f 87/95/89 86/94/88 89/97/91
s 11
f 90/98/92 91/99/93 92/100/94
f 92/100/94 93/101/95 90/98/92
f 90/98/92 93/101/95 94/102/96
f 94/102/96 95/103/97 90/98/92
f 91/99/93 96/104/98 92/100/94
f 94/102/96 97/105/99 95/103/97
s 12
f 98/106/100 99/107/101 100/108/102
f 100/108/102 101/109/103 98/106/100
f 98/106/100 102/110/104 103/111/105
f 103/111/105 99/107/101 98/106/100
f 101/109/103 100/108/102 104/112/106
f 103/111/105 102/110/104 105/113/107
s 13
f 106/114/108 107/115/109 108/116/110
f 108/116/110 109/117/111 106/114/108
f 106/114/108 109/117/111 110/118/112
f 110/118/112 111/119/113 106/114/108
f 107/115/109 112/120/114 108/116/110
f 110/118/112 113/121/115 111/119/113
s 14
f 114/122/116 115/123/117 116/124/118
f 116/124/118 117/125/119 114/122/116
f 114/122/116 118/126/120 119/127/121
f 119/127/121 115/123/117 114/122/116
f 117/125/119 116/124/118 120/128/122
f 119/127/121 118/126/120 121/129/123
