# Blender v3.3.0 OBJ File: ''
# www.blender.org
o BlueberryDead.005
v 0.001001 -0.021423 0.000134
v 0.006459 -0.000830 -0.011158
v 0.011150 -0.000422 0.006246
v -0.010932 -0.001534 -0.006454
v -0.006241 -0.001126 0.010950
v 0.105115 0.283757 0.012340
v 0.104325 0.283451 0.010480
v 0.102709 0.284600 0.010977
v 0.103499 0.284906 0.012837
v 0.040835 0.189668 0.015120
v 0.085641 0.238319 0.018703
v 0.086385 0.238081 0.021298
v 0.041736 0.188950 0.019133
v 0.083491 0.239796 0.019438
v 0.037578 0.192013 0.016271
v 0.084235 0.239558 0.022033
v 0.038479 0.191295 0.020284
v 0.003807 0.009853 -0.007482
v 0.006885 0.010120 0.003938
v -0.007604 0.009391 -0.004396
v -0.004526 0.009658 0.007024
v 0.003113 0.128767 0.013883
v 0.004369 0.126440 0.021946
v -0.004082 0.132665 0.016129
v -0.002826 0.130337 0.024192
v 0.102775 0.281241 0.012549
v 0.123998 0.290103 0.023194
v 0.143507 0.355859 -0.009862
v 0.135357 0.368741 -0.026028
v 0.114912 0.360283 -0.023979
v 0.084386 0.296231 0.003638
v 0.145981 0.321015 0.005196
v 0.093250 0.329173 -0.020837
v 0.102956 0.281087 0.012135
v 0.135537 0.368587 -0.026442
v 0.143688 0.355705 -0.010276
v 0.124179 0.289949 0.022780
v 0.084567 0.296077 0.003224
v 0.115093 0.360129 -0.024393
v 0.146161 0.320861 0.004782
v 0.093431 0.329019 -0.021251
v 0.004176 0.126874 0.021905
v -0.009692 0.127161 0.043115
v 0.035986 0.136850 0.103255
v 0.057801 0.139423 0.106597
v 0.061280 0.146470 0.085814
v 0.025347 0.140487 0.018954
v 0.008348 0.123407 0.080840
v 0.054992 0.141147 0.048678
v 0.004369 0.126440 0.021946
v 0.057994 0.138989 0.106638
v 0.036179 0.136416 0.103296
v -0.009499 0.126727 0.043156
v 0.025541 0.140053 0.018995
v 0.061473 0.146035 0.085855
v 0.008541 0.122973 0.080881
v 0.055185 0.140713 0.048719
v 0.086385 0.238081 0.021298
v 0.099835 0.238964 0.042759
v 0.173779 0.246311 0.026163
v 0.186010 0.247840 0.007676
v 0.168759 0.254773 -0.004491
v 0.092880 0.250686 0.000294
v 0.141553 0.234254 0.042383
v 0.132295 0.249859 -0.014146
v 0.086493 0.237638 0.021158
v 0.186118 0.247397 0.007536
v 0.173887 0.245868 0.026023
v 0.099943 0.238521 0.042619
v 0.092988 0.250243 0.000154
v 0.168867 0.254330 -0.004631
v 0.141661 0.233811 0.042243
v 0.132403 0.249416 -0.014286
v 0.021636 0.161040 0.020009
v 0.043544 0.173456 0.022863
v 0.070849 0.192930 -0.045491
v 0.064461 0.190464 -0.066629
v 0.043165 0.187523 -0.061012
v 0.005194 0.165964 0.001363
v 0.069149 0.179985 -0.009763
v 0.018098 0.170013 -0.038384
v 0.021804 0.160621 0.019853
v 0.064630 0.190046 -0.066784
v 0.071018 0.192512 -0.045646
v 0.043712 0.173037 0.022708
v 0.005363 0.165546 0.001207
v 0.043334 0.187104 -0.061167
v 0.069317 0.179567 -0.009918
v 0.018267 0.169594 -0.038539
v -0.060349 0.422244 -0.082726
v -0.061622 0.421395 -0.083035
v -0.062219 0.421784 -0.081647
v -0.060946 0.422633 -0.081337
v -0.046788 0.340773 -0.055265
v -0.047120 0.387476 -0.074676
v -0.045231 0.388109 -0.074119
v -0.043825 0.341443 -0.054299
v -0.047853 0.387976 -0.072806
v -0.047911 0.341609 -0.052401
v -0.045963 0.388608 -0.072249
v -0.044948 0.342279 -0.051435
v -0.000571 0.129525 0.015611
v -0.017679 0.209907 -0.006666
v -0.013383 0.211847 -0.005680
v 0.004584 0.130359 0.017377
v -0.019559 0.212098 -0.002811
v -0.002482 0.130646 0.020659
v -0.015262 0.214039 -0.001824
v 0.002674 0.131480 0.022425
v -0.034063 0.289194 -0.038310
v -0.037934 0.288818 -0.039684
v -0.039350 0.289409 -0.035854
v -0.035478 0.289784 -0.034481
v -0.061009 0.421268 -0.082025
v -0.047775 0.440415 -0.092049
v -0.095367 0.496058 -0.112930
v -0.117316 0.499467 -0.112361
v -0.120320 0.484616 -0.096109
v -0.082342 0.424565 -0.068747
v -0.066835 0.470913 -0.113712
v -0.112849 0.449814 -0.082693
v -0.061195 0.421085 -0.082424
v -0.117502 0.499285 -0.112761
v -0.095553 0.495875 -0.113330
v -0.047961 0.440233 -0.092449
v -0.082528 0.424383 -0.069147
v -0.120506 0.484434 -0.096509
v -0.067021 0.470731 -0.114112
v -0.113035 0.449632 -0.083093
v -0.041032 0.312847 -0.044113
v -0.049555 0.328925 -0.061752
v -0.125526 0.325114 -0.065076
v -0.141500 0.313715 -0.054657
v -0.128602 0.309586 -0.037042
v -0.053816 0.307413 -0.022916
v -0.089062 0.326720 -0.075789
v -0.094735 0.298085 -0.024093
v -0.041094 0.312437 -0.044347
v -0.141563 0.313304 -0.054891
v -0.125588 0.324704 -0.065311
v -0.049617 0.328514 -0.061986
v -0.053878 0.307002 -0.023151
v -0.128664 0.309175 -0.037276
v -0.089124 0.326310 -0.076024
v -0.094797 0.297674 -0.024327
v -0.017060 0.210280 -0.005364
v 0.000023 0.211842 -0.024019
v -0.034232 0.234760 -0.088039
v -0.054887 0.240249 -0.094116
v -0.061016 0.244769 -0.073243
v -0.037081 0.225708 -0.003523
v -0.011945 0.215325 -0.064111
v -0.061337 0.233783 -0.036827
v -0.017283 0.209881 -0.005498
v -0.055110 0.239849 -0.094250
v -0.034455 0.234361 -0.088173
v -0.000200 0.211443 -0.024153
v -0.037305 0.225308 -0.003657
v -0.061240 0.244370 -0.073377
v -0.012168 0.214926 -0.064245
v -0.061561 0.233383 -0.036961
v -0.046083 0.388236 -0.073831
v -0.021006 0.388595 -0.077477
v -0.004990 0.428598 -0.140250
v -0.016591 0.439682 -0.155620
v -0.034094 0.442227 -0.142171
v -0.061324 0.407476 -0.080138
v -0.004619 0.400981 -0.114094
v -0.058289 0.426115 -0.117637
v -0.046205 0.387926 -0.074172
v -0.016714 0.439372 -0.155962
v -0.005112 0.428288 -0.140591
v -0.021129 0.388285 -0.077818
v -0.061446 0.407166 -0.080480
v -0.034217 0.441917 -0.142512
v -0.004742 0.400671 -0.114435
v -0.058412 0.425805 -0.117978
v -0.091131 0.340400 0.107621
v -0.090319 0.339412 0.109046
v -0.088655 0.340296 0.108710
v -0.089467 0.341284 0.107286
v -0.052227 0.249221 0.068008
v -0.083290 0.299888 0.085794
v -0.084234 0.300632 0.083558
v -0.053531 0.250027 0.064411
v -0.081092 0.301042 0.085268
v -0.048878 0.251074 0.067209
v -0.082035 0.301786 0.083032
v -0.050182 0.251881 0.063613
v -0.029441 0.190546 0.043886
v -0.030904 0.191031 0.039067
v -0.003586 0.129192 0.016561
v -0.001791 0.128312 0.021990
v 0.003300 0.130742 0.020701
v -0.024883 0.192386 0.042687
v 0.001504 0.131622 0.015272
v -0.026346 0.192872 0.037868
v -0.065691 0.274235 0.073067
v -0.073680 0.289501 0.089391
v -0.020668 0.332717 0.109571
v -0.000565 0.335116 0.104758
v -0.002772 0.325658 0.086353
v -0.048888 0.279723 0.057227
v -0.048797 0.310903 0.111047
v -0.015795 0.297888 0.068231
v -0.065454 0.273964 0.073332
v -0.000328 0.334845 0.105023
v -0.020431 0.332446 0.109836
v -0.073443 0.289230 0.089656
v -0.048651 0.279453 0.057492
v -0.002535 0.325388 0.086618
v -0.048560 0.310632 0.111312
v -0.015558 0.297617 0.068496
v -0.040830 0.224280 0.053907
v -0.051221 0.238510 0.069810
v -0.004018 0.256465 0.120155
v 0.016000 0.252401 0.124135
v 0.020008 0.247445 0.104325
v -0.017938 0.226015 0.047881
v -0.034248 0.245988 0.104483
v 0.010057 0.229355 0.075291
v -0.040812 0.223904 0.054148
v 0.016017 0.252025 0.124376
v -0.004000 0.256089 0.120396
v -0.051203 0.238134 0.070051
v -0.017920 0.225639 0.048122
v 0.020025 0.247069 0.104566
v -0.034230 0.245612 0.104724
v 0.010075 0.228979 0.075532
v -0.089305 0.338371 0.107217
v -0.107686 0.352951 0.103620
v -0.109143 0.402545 0.154839
v -0.097722 0.407186 0.171605
v -0.081032 0.397126 0.164305
v -0.068744 0.345444 0.116734
v -0.119821 0.377611 0.131742
v -0.067983 0.367618 0.149198
v -0.089467 0.338135 0.107561
v -0.097883 0.406951 0.171949
v -0.109304 0.402310 0.155183
v -0.107847 0.352716 0.103964
v -0.068905 0.345209 0.117078
v -0.081193 0.396891 0.164650
v -0.119982 0.377376 0.132086
v -0.068144 0.367383 0.149542
v -0.029137 0.191141 0.040320
v -0.028839 0.199154 0.017980
v -0.092998 0.225373 0.001209
v -0.111302 0.227642 0.010846
v -0.102645 0.226700 0.029747
v -0.042203 0.200993 0.057512
v -0.062235 0.207542 -0.001008
v -0.080025 0.209989 0.051617
v -0.029371 0.190765 0.040258
v -0.111536 0.227266 0.010785
v -0.093232 0.224997 0.001148
v -0.029073 0.198779 0.017919
v -0.042437 0.200617 0.057451
v -0.102879 0.226324 0.029685
v -0.062469 0.207166 -0.001069
v -0.080259 0.209613 0.051555
v -0.081922 0.301050 0.084146
v -0.098059 0.299021 0.066858
v -0.161357 0.321759 0.090554
v -0.168850 0.329504 0.108357
v -0.150049 0.335680 0.114794
v -0.082395 0.318305 0.100437
v -0.136514 0.301844 0.074572
v -0.115661 0.327514 0.119271
v -0.082048 0.300706 0.084402
v -0.168976 0.329160 0.108613
v -0.161482 0.321415 0.090810
v -0.098185 0.298677 0.067115
v -0.082520 0.317961 0.100693
v -0.150174 0.335336 0.115050
v -0.136639 0.301500 0.074829
v -0.115787 0.327170 0.119527
v -0.016862 0.214163 -0.003689
v -0.038635 0.222562 0.006194
v -0.025643 0.286116 0.046060
v -0.007976 0.298675 0.050944
v 0.003582 0.291147 0.033524
v 0.001850 0.229531 -0.011170
v -0.038891 0.251819 0.036306
v 0.015001 0.261095 0.013190
v -0.016662 0.213986 -0.003293
v -0.007776 0.298497 0.051339
v -0.025443 0.285939 0.046455
v -0.038435 0.222385 0.006589
v 0.002050 0.229353 -0.010775
v 0.003782 0.290969 0.033920
v -0.038691 0.251641 0.036701
v 0.015201 0.260918 0.013586
v -0.018671 0.507819 0.070215
v -0.017205 0.506790 0.070529
v -0.016376 0.507531 0.069090
v -0.017842 0.508561 0.068776
v -0.029585 0.420337 0.020030
v -0.032278 0.469581 0.052338
v -0.034427 0.470411 0.051628
v -0.032054 0.421038 0.019085
v -0.031243 0.470550 0.050387
v -0.028419 0.421491 0.017842
v -0.033393 0.471381 0.049678
v -0.030888 0.422192 0.016896
v -0.037102 0.364165 -0.010188
v -0.040000 0.364627 -0.011458
v -0.041990 0.307599 -0.041930
v -0.039190 0.306909 -0.041051
v -0.037918 0.307890 -0.043806
v -0.035750 0.365156 -0.012912
v -0.040766 0.308769 -0.044981
v -0.038649 0.365619 -0.014181
v -0.032384 0.444533 0.032528
v -0.024459 0.459023 0.047882
v 0.025286 0.496012 0.020550
v 0.034226 0.497153 0.002952
v 0.018934 0.488874 -0.006457
v -0.033259 0.449134 0.010470
v 0.007795 0.477085 0.042491
v -0.003919 0.463921 -0.007310
v -0.032065 0.444253 0.032527
v 0.034545 0.496873 0.002951
v 0.025606 0.495733 0.020549
v -0.024140 0.458744 0.047881
v -0.032940 0.448855 0.010469
v 0.019254 0.488594 -0.006458
v 0.008114 0.476806 0.042490
v -0.003599 0.463642 -0.007311
v -0.029585 0.420337 0.020030
v -0.040289 0.438606 0.027391
v -0.043131 0.438960 0.095079
v -0.036925 0.427186 0.109700
v -0.023106 0.418738 0.098361
v -0.012549 0.410593 0.031938
v -0.052322 0.441717 0.062621
v -0.015396 0.404427 0.068673
v -0.029808 0.420124 0.020083
v -0.037228 0.426898 0.109771
v -0.043434 0.438671 0.095151
v -0.040592 0.438318 0.027463
v -0.012852 0.410305 0.032009
v -0.023410 0.418449 0.098433
v -0.052625 0.441428 0.062693
v -0.015700 0.404139 0.068745
v -0.017978 0.505792 0.068703
v -0.030885 0.520879 0.079393
v 0.008506 0.566452 0.110399
v 0.027930 0.569631 0.112264
v 0.032192 0.559255 0.095983
v 0.001927 0.510910 0.059423
v -0.016343 0.544185 0.104711
v 0.027336 0.530914 0.078127
v -0.017842 0.505570 0.069037
v 0.028066 0.569408 0.112599
v 0.008642 0.566229 0.110734
v -0.030749 0.520656 0.079728
v 0.002063 0.510687 0.059758
v 0.032328 0.559033 0.096318
v -0.016207 0.543962 0.105046
v 0.027472 0.530692 0.078462
v -0.039074 0.364449 -0.011608
v -0.054581 0.372681 -0.025760
v -0.104258 0.402087 0.009699
v -0.108306 0.405114 0.028813
v -0.089375 0.403115 0.034155
v -0.033964 0.374106 0.008118
v -0.088210 0.383306 -0.013439
v -0.060765 0.385202 0.031659
v -0.039285 0.364110 -0.011465
v -0.108517 0.404775 0.028956
v -0.104470 0.401747 0.009842
v -0.054792 0.372342 -0.025618
v -0.034175 0.373767 0.008261
v -0.089587 0.402776 0.034298
v -0.088422 0.382967 -0.013296
v -0.060977 0.384863 0.031802
vt 0.708900 0.048600
vt 0.644400 0.070300
vt 0.635100 0.049200
vt 0.667200 0.092400
vt 0.642200 0.028000
vt 0.664800 0.005800
vt 0.018300 0.050200
vt 0.007600 0.051200
vt 0.005600 0.045700
vt 0.016300 0.044600
vt 0.223800 0.064300
vt 0.120800 0.058700
vt 0.122200 0.051300
vt 0.225200 0.053200
vt 0.119600 0.066100
vt 0.222200 0.075700
vt 0.121700 0.043600
vt 0.119300 0.036300
vt 0.222700 0.030900
vt 0.225200 0.042100
vt 0.612400 0.071800
vt 0.606700 0.049500
vt 0.615500 0.092300
vt 0.609100 0.026900
vt 0.614300 0.006100
vt 0.418800 0.065200
vt 0.416800 0.050000
vt 0.417100 0.080100
vt 0.416500 0.034700
vt 0.417000 0.019800
vt 0.018600 0.055900
vt 0.016400 0.061400
vt 0.016000 0.039000
vt 0.527400 0.367400
vt 0.475000 0.481200
vt 0.092900 0.453600
vt 0.019100 0.367400
vt 0.092900 0.281200
vt 0.475000 0.253600
vt 0.269800 0.528600
vt 0.269800 0.206300
vt 0.527400 0.367400
vt 0.019100 0.367400
vt 0.092900 0.453600
vt 0.475000 0.481200
vt 0.475000 0.253600
vt 0.092900 0.281200
vt 0.269800 0.528600
vt 0.269800 0.206300
vt 0.527400 0.367400
vt 0.475000 0.481200
vt 0.092900 0.453600
vt 0.019100 0.367400
vt 0.092900 0.281200
vt 0.475000 0.253600
vt 0.269800 0.528600
vt 0.269800 0.206300
vt 0.527400 0.367400
vt 0.019100 0.367400
vt 0.092900 0.453600
vt 0.475000 0.481200
vt 0.475000 0.253600
vt 0.092900 0.281200
vt 0.269800 0.528600
vt 0.269800 0.206300
vt 0.527400 0.367400
vt 0.475000 0.481200
vt 0.092900 0.453600
vt 0.019100 0.367400
vt 0.092900 0.281200
vt 0.475000 0.253600
vt 0.269800 0.528600
vt 0.269800 0.206300
vt 0.527400 0.367400
vt 0.019100 0.367400
vt 0.092900 0.453600
vt 0.475000 0.481200
vt 0.475000 0.253600
vt 0.092900 0.281200
vt 0.269800 0.528600
vt 0.269800 0.206300
vt 0.527400 0.367400
vt 0.475000 0.481200
vt 0.092900 0.453600
vt 0.019100 0.367400
vt 0.092900 0.281200
vt 0.475000 0.253600
vt 0.269800 0.528600
vt 0.269800 0.206300
vt 0.527400 0.367400
vt 0.019100 0.367400
vt 0.092900 0.453600
vt 0.475000 0.481200
vt 0.475000 0.253600
vt 0.092900 0.281200
vt 0.269800 0.528600
vt 0.269800 0.206300
vt 0.021700 0.050200
vt 0.016200 0.051200
vt 0.015200 0.045700
vt 0.020600 0.044600
vt 0.126400 0.064300
vt 0.073900 0.058700
vt 0.074700 0.051300
vt 0.127200 0.053200
vt 0.073300 0.066100
vt 0.125600 0.075700
vt 0.074400 0.043600
vt 0.073100 0.036300
vt 0.125900 0.030900
vt 0.127100 0.042100
vt 0.324600 0.071800
vt 0.275300 0.068500
vt 0.273300 0.049800
vt 0.321700 0.049500
vt 0.275600 0.086200
vt 0.326200 0.092300
vt 0.273800 0.030800
vt 0.275300 0.012900
vt 0.325600 0.006100
vt 0.322900 0.026900
vt 0.021800 0.055900
vt 0.020700 0.061400
vt 0.020500 0.039000
vt 0.224900 0.050000
vt 0.225900 0.065200
vt 0.225000 0.080100
vt 0.224700 0.034700
vt 0.225000 0.019800
vt 0.527400 0.367400
vt 0.475000 0.481200
vt 0.092900 0.453600
vt 0.019100 0.367400
vt 0.092900 0.281200
vt 0.475000 0.253600
vt 0.269800 0.528600
vt 0.269800 0.206300
vt 0.527400 0.367400
vt 0.019100 0.367400
vt 0.092900 0.453600
vt 0.475000 0.481200
vt 0.475000 0.253600
vt 0.092900 0.281200
vt 0.269800 0.528600
vt 0.269800 0.206300
vt 0.527400 0.367400
vt 0.475000 0.481200
vt 0.092900 0.453600
vt 0.019100 0.367400
vt 0.092900 0.281200
vt 0.475000 0.253600
vt 0.269800 0.528600
vt 0.269800 0.206300
vt 0.527400 0.367400
vt 0.019100 0.367400
vt 0.092900 0.453600
vt 0.475000 0.481200
vt 0.475000 0.253600
vt 0.092900 0.281200
vt 0.269800 0.528600
vt 0.269800 0.206300
vt 0.527400 0.367400
vt 0.475000 0.481200
vt 0.092900 0.453600
vt 0.019100 0.367400
vt 0.092900 0.281200
vt 0.475000 0.253600
vt 0.269800 0.528600
vt 0.269800 0.206300
vt 0.527400 0.367400
vt 0.019100 0.367400
vt 0.092900 0.453600
vt 0.475000 0.481200
vt 0.475000 0.253600
vt 0.092900 0.281200
vt 0.269800 0.528600
vt 0.269800 0.206300
vt 0.527400 0.367400
vt 0.475000 0.481200
vt 0.092900 0.453600
vt 0.019100 0.367400
vt 0.092900 0.281200
vt 0.475000 0.253600
vt 0.269800 0.528600
vt 0.269800 0.206300
vt 0.527400 0.367400
vt 0.019100 0.367400
vt 0.092900 0.453600
vt 0.475000 0.481200
vt 0.475000 0.253600
vt 0.092900 0.281200
vt 0.269800 0.528600
vt 0.269800 0.206300
vt 0.010000 0.050200
vt 0.005100 0.051200
vt 0.004200 0.045700
vt 0.009000 0.044600
vt 0.102300 0.064300
vt 0.056000 0.058700
vt 0.056700 0.051300
vt 0.103000 0.053200
vt 0.055500 0.066100
vt 0.101600 0.075700
vt 0.056400 0.043600
vt 0.055300 0.036300
vt 0.101900 0.030900
vt 0.103000 0.042100
vt 0.190100 0.065200
vt 0.189200 0.050000
vt 0.274600 0.049500
vt 0.277200 0.071800
vt 0.278500 0.092300
vt 0.189300 0.080100
vt 0.275700 0.026900
vt 0.189000 0.034700
vt 0.189200 0.019800
vt 0.278000 0.006100
vt 0.010100 0.055900
vt 0.009100 0.061400
vt 0.008900 0.039000
vt 0.527400 0.367400
vt 0.475000 0.481200
vt 0.092900 0.453600
vt 0.019100 0.367400
vt 0.092900 0.281200
vt 0.475000 0.253600
vt 0.269800 0.528600
vt 0.269800 0.206300
vt 0.527400 0.367400
vt 0.019100 0.367400
vt 0.092900 0.453600
vt 0.475000 0.481200
vt 0.475000 0.253600
vt 0.092900 0.281200
vt 0.269800 0.528600
vt 0.269800 0.206300
vt 0.527400 0.367400
vt 0.475000 0.481200
vt 0.092900 0.453600
vt 0.019100 0.367400
vt 0.092900 0.281200
vt 0.475000 0.253600
vt 0.269800 0.528600
vt 0.269800 0.206300
vt 0.527400 0.367400
vt 0.019100 0.367400
vt 0.092900 0.453600
vt 0.475000 0.481200
vt 0.475000 0.253600
vt 0.092900 0.281200
vt 0.269800 0.528600
vt 0.269800 0.206300
vt 0.527400 0.367400
vt 0.475000 0.481200
vt 0.092900 0.453600
vt 0.019100 0.367400
vt 0.092900 0.281200
vt 0.475000 0.253600
vt 0.269800 0.528600
vt 0.269800 0.206300
vt 0.527400 0.367400
vt 0.019100 0.367400
vt 0.092900 0.453600
vt 0.475000 0.481200
vt 0.475000 0.253600
vt 0.092900 0.281200
vt 0.269800 0.528600
vt 0.269800 0.206300
vt 0.527400 0.367400
vt 0.475000 0.481200
vt 0.092900 0.453600
vt 0.019100 0.367400
vt 0.092900 0.281200
vt 0.475000 0.253600
vt 0.269800 0.528600
vt 0.269800 0.206300
vt 0.527400 0.367400
vt 0.019100 0.367400
vt 0.092900 0.453600
vt 0.475000 0.481200
vt 0.475000 0.253600
vt 0.092900 0.281200
vt 0.269800 0.528600
vt 0.269800 0.206300
vt 0.527400 0.367400
vt 0.475000 0.481200
vt 0.092900 0.453600
vt 0.019100 0.367400
vt 0.092900 0.281200
vt 0.475000 0.253600
vt 0.269800 0.528600
vt 0.269800 0.206300
vt 0.527400 0.367400
vt 0.019100 0.367400
vt 0.092900 0.453600
vt 0.475000 0.481200
vt 0.475000 0.253600
vt 0.092900 0.281200
vt 0.269800 0.528600
vt 0.269800 0.206300
vt 0.527400 0.367400
vt 0.475000 0.481200
vt 0.092900 0.453600
vt 0.019100 0.367400
vt 0.092900 0.281200
vt 0.475000 0.253600
vt 0.269800 0.528600
vt 0.269800 0.206300
vt 0.527400 0.367400
vt 0.019100 0.367400
vt 0.092900 0.453600
vt 0.475000 0.481200
vt 0.475000 0.253600
vt 0.092900 0.281200
vt 0.269800 0.528600
vt 0.269800 0.206300
vt 0.010000 0.050200
vt 0.005100 0.051200
vt 0.004200 0.045700
vt 0.009000 0.044600
vt 0.102300 0.064300
vt 0.056000 0.058700
vt 0.056700 0.051300
vt 0.103000 0.053200
vt 0.055500 0.066100
vt 0.101600 0.075700
vt 0.056400 0.043600
vt 0.055300 0.036300
vt 0.101900 0.030900
vt 0.103000 0.042100
vt 0.190100 0.065200
vt 0.189200 0.050000
vt 0.274600 0.049500
vt 0.277200 0.071800
vt 0.278500 0.092300
vt 0.189300 0.080100
vt 0.275700 0.026900
vt 0.189000 0.034700
vt 0.189200 0.019800
vt 0.278000 0.006100
vt 0.010100 0.055900
vt 0.009100 0.061400
vt 0.008900 0.039000
vt 0.527400 0.367400
vt 0.475000 0.481200
vt 0.092900 0.453600
vt 0.019100 0.367400
vt 0.092900 0.281200
vt 0.475000 0.253600
vt 0.269800 0.528600
vt 0.269800 0.206300
vt 0.527400 0.367400
vt 0.019100 0.367400
vt 0.092900 0.453600
vt 0.475000 0.481200
vt 0.475000 0.253600
vt 0.092900 0.281200
vt 0.269800 0.528600
vt 0.269800 0.206300
vt 0.527400 0.367400
vt 0.475000 0.481200
vt 0.092900 0.453600
vt 0.019100 0.367400
vt 0.092900 0.281200
vt 0.475000 0.253600
vt 0.269800 0.528600
vt 0.269800 0.206300
vt 0.527400 0.367400
vt 0.019100 0.367400
vt 0.092900 0.453600
vt 0.475000 0.481200
vt 0.475000 0.253600
vt 0.092900 0.281200
vt 0.269800 0.528600
vt 0.269800 0.206300
vt 0.527400 0.367400
vt 0.475000 0.481200
vt 0.092900 0.453600
vt 0.019100 0.367400
vt 0.092900 0.281200
vt 0.475000 0.253600
vt 0.269800 0.528600
vt 0.269800 0.206300
vt 0.527400 0.367400
vt 0.019100 0.367400
vt 0.092900 0.453600
vt 0.475000 0.481200
vt 0.475000 0.253600
vt 0.092900 0.281200
vt 0.269800 0.528600
vt 0.269800 0.206300
vt 0.527400 0.367400
vt 0.475000 0.481200
vt 0.092900 0.453600
vt 0.019100 0.367400
vt 0.092900 0.281200
vt 0.475000 0.253600
vt 0.269800 0.528600
vt 0.269800 0.206300
vt 0.527400 0.367400
vt 0.019100 0.367400
vt 0.092900 0.453600
vt 0.475000 0.481200
vt 0.475000 0.253600
vt 0.092900 0.281200
vt 0.269800 0.528600
vt 0.269800 0.206300
vn 0.0436 -0.9990 0.0116
vn 0.4999 -0.0597 -0.8640
vn 0.8669 -0.0279 0.4976
vn -0.8607 -0.1148 -0.4960
vn -0.4937 -0.0829 0.8657
vn 0.9279 0.2785 0.2477
vn 0.5173 0.1587 -0.8410
vn -0.4408 0.7348 -0.5155
vn -0.0163 0.8476 0.5303
vn 0.3767 -0.2435 -0.8938
vn 0.4490 -0.3445 -0.8244
vn 0.7564 -0.4375 0.4863
vn 0.6997 -0.5179 0.4922
vn -0.7455 0.4616 -0.4808
vn -0.6723 0.5659 -0.4773
vn -0.2970 0.2827 0.9121
vn -0.3974 0.3354 0.8541
vn 0.4461 0.2914 -0.8462
vn 0.8616 0.2047 0.4644
vn -0.8320 0.2423 -0.4990
vn -0.5244 0.1523 0.8377
vn 0.4329 -0.0412 -0.9005
vn 0.7580 -0.2222 0.6132
vn -0.8358 0.3350 -0.4351
vn -0.5710 0.1167 0.8126
vn 0.5173 0.1586 -0.8410
vn 0.9279 0.2785 0.2478
vn -0.3273 0.4807 0.8135
vn -0.4652 0.5039 0.7278
vn -0.4728 0.5035 0.7232
vn -0.3273 0.4806 0.8136
vn -0.1673 0.4563 0.8740
vn -0.1752 0.4590 0.8710
vn 0.1726 0.4010 0.8996
vn -0.7026 0.5364 0.4676
vn 0.3273 -0.4807 -0.8135
vn 0.3273 -0.4806 -0.8136
vn 0.4727 -0.5035 -0.7232
vn 0.4652 -0.5039 -0.7278
vn 0.1752 -0.4590 -0.8710
vn 0.1673 -0.4563 -0.8740
vn -0.1726 -0.4010 -0.8996
vn 0.7026 -0.5364 -0.4676
vn -0.3177 0.9462 0.0612
vn -0.1808 0.9833 -0.0211
vn -0.1740 0.9844 -0.0268
vn -0.3178 0.9462 0.0610
vn -0.4442 0.8816 0.1595
vn -0.4373 0.8857 0.1557
vn -0.6314 0.6816 0.3698
vn 0.1428 0.9761 -0.1641
vn 0.3177 -0.9462 -0.0612
vn 0.3178 -0.9462 -0.0610
vn 0.1740 -0.9844 0.0268
vn 0.1808 -0.9833 0.0211
vn 0.4373 -0.8857 -0.1557
vn 0.4442 -0.8816 -0.1595
vn 0.6314 -0.6816 -0.3698
vn -0.1428 -0.9761 0.1641
vn -0.0564 0.9600 0.2742
vn -0.0729 0.9908 0.1140
vn -0.0751 0.9916 0.1054
vn -0.0565 0.9600 0.2743
vn -0.0215 0.9012 0.4329
vn -0.0220 0.9050 0.4249
vn 0.0864 0.7097 0.6992
vn -0.0672 0.9687 -0.2390
vn 0.0564 -0.9600 -0.2742
vn 0.0565 -0.9600 -0.2743
vn 0.0751 -0.9916 -0.1054
vn 0.0729 -0.9908 -0.1140
vn 0.0220 -0.9050 -0.4249
vn 0.0215 -0.9012 -0.4329
vn -0.0864 -0.7097 -0.6992
vn 0.0672 -0.9687 0.2390
vn -0.2844 0.9418 0.1791
vn -0.4174 0.9042 0.0909
vn -0.4249 0.9010 0.0872
vn -0.2844 0.9418 0.1793
vn -0.1291 0.9588 0.2531
vn -0.1367 0.9590 0.2483
vn 0.2019 0.9177 0.3421
vn -0.6454 0.7522 -0.1329
vn 0.2844 -0.9418 -0.1791
vn 0.2845 -0.9418 -0.1792
vn 0.4249 -0.9010 -0.0872
vn 0.4174 -0.9042 -0.0909
vn 0.1366 -0.9590 -0.2483
vn 0.1292 -0.9588 -0.2531
vn -0.2019 -0.9177 -0.3421
vn 0.6454 -0.7522 0.1329
vn 0.4541 0.6796 -0.5761
vn -0.5266 0.1012 -0.8441
vn -0.9190 0.3204 0.2299
vn 0.0367 0.8858 0.4626
vn -0.4451 -0.3347 -0.8306
vn -0.3169 -0.3603 -0.8774
vn 0.8928 0.0551 -0.4471
vn 0.9115 -0.0501 -0.4083
vn -0.8947 -0.0283 0.4458
vn -0.9074 0.0790 0.4128
vn 0.4768 0.3913 0.7871
vn 0.3678 0.3676 0.8542
vn -0.3641 -0.3218 -0.8740
vn -0.4187 -0.3767 -0.8263
vn 0.8961 0.0579 -0.4400
vn 0.9059 0.0823 -0.4154
vn -0.8726 -0.0365 0.4871
vn -0.8776 -0.0447 0.4772
vn 0.4061 0.4001 0.8216
vn 0.4465 0.3401 0.8276
vn 0.0366 0.8858 0.4626
vn 0.8862 0.0257 -0.4627
vn -0.3998 -0.3776 -0.8352
vn -0.9079 -0.0408 0.4171
vn 0.3856 0.4038 0.8296
vn 0.2976 0.5241 0.7980
vn 0.1625 0.4654 0.8700
vn 0.1558 0.4608 0.8737
vn 0.2977 0.5239 0.7980
vn 0.4224 0.5830 0.6940
vn 0.4155 0.5815 0.6995
vn 0.6072 0.6760 0.4175
vn -0.1566 0.3258 0.9324
vn -0.2976 -0.5241 -0.7980
vn -0.2977 -0.5240 -0.7980
vn -0.1558 -0.4608 -0.8737
vn -0.1625 -0.4655 -0.8700
vn -0.4155 -0.5815 -0.6995
vn -0.4224 -0.5830 -0.6940
vn -0.6072 -0.6760 -0.4175
vn 0.1566 -0.3258 -0.9324
vn -0.0430 0.8760 0.4805
vn -0.0663 0.7855 0.6153
vn -0.0661 0.7800 0.6223
vn -0.0429 0.8760 0.4805
vn -0.0332 0.9459 0.3228
vn -0.0351 0.9430 0.3310
vn -0.0493 0.9986 -0.0181
vn -0.1435 0.5233 0.8400
vn 0.0430 -0.8759 -0.4805
vn 0.0429 -0.8759 -0.4805
vn 0.0661 -0.7800 -0.6223
vn 0.0663 -0.7855 -0.6153
vn 0.0351 -0.9430 -0.3310
vn 0.0332 -0.9459 -0.3228
vn 0.0493 -0.9986 0.0181
vn 0.1434 -0.5233 -0.8400
vn 0.4094 0.9030 0.1302
vn 0.2649 0.9441 0.1962
vn 0.2575 0.9452 0.2009
vn 0.4095 0.9030 0.1304
vn 0.5436 0.8382 0.0428
vn 0.5366 0.8426 0.0461
vn 0.7431 0.6484 -0.1655
vn -0.0767 0.9547 0.2874
vn -0.4094 -0.9030 -0.1302
vn -0.4094 -0.9030 -0.1304
vn -0.2575 -0.9452 -0.2009
vn -0.2649 -0.9441 -0.1962
vn -0.5366 -0.8426 -0.0462
vn -0.5436 -0.8383 -0.0428
vn -0.7431 -0.6484 0.1655
vn 0.0767 -0.9547 -0.2874
vn 0.3124 0.7494 0.5838
vn 0.1630 0.8127 0.5595
vn 0.1544 0.8147 0.5589
vn 0.3123 0.7493 0.5839
vn 0.4653 0.6691 0.5794
vn 0.4582 0.6744 0.5790
vn 0.7339 0.4722 0.4882
vn -0.1569 0.8894 0.4294
vn -0.3124 -0.7494 -0.5838
vn -0.3123 -0.7493 -0.5839
vn -0.1544 -0.8147 -0.5589
vn -0.1630 -0.8127 -0.5595
vn -0.4582 -0.6744 -0.5790
vn -0.4653 -0.6691 -0.5794
vn -0.7340 -0.4722 -0.4882
vn 0.1568 -0.8894 -0.4294
vn -0.8626 0.5059 0.0015
vn -0.3923 -0.0476 0.9186
vn 0.6357 0.4254 0.6442
vn 0.1543 0.9603 -0.2324
vn -0.3335 -0.4749 0.8144
vn -0.4380 -0.5188 0.7342
vn -0.8744 -0.1045 -0.4739
vn -0.8314 -0.1999 -0.5185
vn 0.8686 0.1305 0.4781
vn 0.8265 0.2287 0.5144
vn 0.2692 0.5185 -0.8116
vn 0.3893 0.5174 -0.7621
vn -0.3924 -0.4664 0.7928
vn -0.8523 -0.1526 -0.5003
vn -0.8311 -0.1748 -0.5279
vn -0.3801 -0.4527 0.8066
vn 0.8470 0.2138 0.4867
vn 0.8499 0.1766 0.4964
vn 0.3785 0.4665 -0.7994
vn 0.3600 0.4768 -0.8019
vn 0.1542 0.9603 -0.2324
vn -0.4169 0.7289 -0.5430
vn -0.3087 0.6863 -0.6586
vn -0.3036 0.6825 -0.6649
vn -0.4171 0.7288 -0.5430
vn -0.5078 0.7630 -0.4000
vn -0.5025 0.7627 -0.4072
vn -0.6136 0.7863 -0.0721
vn -0.0287 0.5557 -0.8309
vn 0.4169 -0.7289 0.5430
vn 0.4171 -0.7288 0.5430
vn 0.3036 -0.6825 0.6649
vn 0.3087 -0.6863 0.6586
vn 0.5025 -0.7627 0.4072
vn 0.5078 -0.7630 0.4000
vn 0.6136 -0.7863 0.0721
vn 0.0287 -0.5557 0.8309
vn 0.0661 0.9068 -0.4163
vn 0.2003 0.8482 -0.4903
vn 0.2065 0.8440 -0.4950
vn 0.0660 0.9067 -0.4165
vn -0.0675 0.9469 -0.3144
vn -0.0599 0.9459 -0.3189
vn -0.2996 0.9523 -0.0587
vn 0.4856 0.6575 -0.5761
vn -0.0661 -0.9068 0.4163
vn -0.0660 -0.9067 0.4165
vn -0.2065 -0.8440 0.4950
vn -0.2003 -0.8482 0.4903
vn 0.0599 -0.9459 0.3189
vn 0.0675 -0.9469 0.3144
vn 0.2996 -0.9523 0.0587
vn -0.4856 -0.6575 0.5761
vn 0.3506 0.6625 -0.6619
vn 0.4974 0.6303 -0.5961
vn 0.5050 0.6270 -0.5931
vn 0.3506 0.6624 -0.6621
vn 0.1844 0.6888 -0.7011
vn 0.1930 0.6890 -0.6986
vn -0.1603 0.7068 -0.6890
vn 0.7585 0.5298 -0.3796
vn -0.3506 -0.6625 0.6619
vn -0.3506 -0.6624 0.6621
vn -0.5051 -0.6270 0.5931
vn -0.4974 -0.6303 0.5961
vn -0.1929 -0.6890 0.6986
vn -0.1844 -0.6888 0.7011
vn 0.1602 -0.7068 0.6890
vn -0.7584 -0.5298 0.3796
vn 0.3787 0.9216 0.0851
vn 0.3141 0.9196 0.2359
vn 0.3116 0.9182 0.2444
vn 0.3788 0.9215 0.0852
vn 0.4217 0.9031 -0.0812
vn 0.4186 0.9052 -0.0731
vn 0.4349 0.8013 -0.4108
vn 0.1196 0.8447 0.5217
vn -0.3787 -0.9216 -0.0852
vn -0.3788 -0.9215 -0.0852
vn -0.3116 -0.9182 -0.2444
vn -0.3141 -0.9196 -0.2360
vn -0.4186 -0.9052 0.0731
vn -0.4217 -0.9031 0.0812
vn -0.4348 -0.8013 0.4109
vn -0.1196 -0.8447 -0.5218
vn 0.1234 0.8346 -0.5369
vn 0.1754 0.9012 -0.3963
vn 0.1794 0.9037 -0.3887
vn 0.1236 0.8345 -0.5369
vn 0.0504 0.7449 -0.6653
vn 0.0529 0.7505 -0.6588
vn -0.1321 0.5149 -0.8470
vn 0.2374 0.9699 -0.0548
vn -0.1234 -0.8346 0.5369
vn -0.1236 -0.8345 0.5369
vn -0.1794 -0.9037 0.3887
vn -0.1754 -0.9012 0.3963
vn -0.0529 -0.7505 0.6588
vn -0.0504 -0.7449 0.6653
vn 0.1321 -0.5149 0.8470
vn -0.2375 -0.9699 0.0548
vn -0.4102 0.5253 -0.7455
vn -0.2557 0.5507 -0.7946
vn -0.2473 0.5504 -0.7974
vn -0.4102 0.5251 -0.7456
vn -0.5595 0.4967 -0.6635
vn -0.5521 0.4997 -0.6674
vn -0.7981 0.4287 -0.4233
vn 0.0964 0.5827 -0.8070
vn 0.4102 -0.5253 0.7455
vn 0.4102 -0.5251 0.7456
vn 0.2473 -0.5504 0.7974
vn 0.2557 -0.5507 0.7946
vn 0.5521 -0.4997 0.6674
vn 0.5595 -0.4967 0.6635
vn 0.7982 -0.4287 0.4233
vn -0.0964 -0.5827 0.8070
vn -0.5194 0.5621 0.6436
vn 0.4457 -0.0495 0.8938
vn 0.9287 0.3616 -0.0825
vn -0.0142 0.9546 -0.2977
vn 0.3748 -0.4846 0.7904
vn 0.2434 -0.5143 0.8224
vn -0.9318 -0.0352 0.3612
vn -0.9431 -0.1371 0.3029
vn 0.9306 0.0522 -0.3624
vn 0.9394 0.1486 -0.3090
vn -0.4126 0.5177 -0.7495
vn -0.2973 0.5058 -0.8098
vn 0.3191 -0.4702 0.8228
vn -0.9411 -0.0903 0.3259
vn -0.9229 -0.1577 0.3514
vn 0.4224 -0.4420 0.7913
vn 0.9323 0.1445 -0.3316
vn 0.9366 0.1045 -0.3344
vn -0.3087 0.4584 -0.8334
vn -0.3527 0.4709 -0.8086
vn -0.5194 0.5620 0.6437
vn 0.9286 0.3617 -0.0825
vn -0.0142 0.9546 -0.2976
vn -0.6337 0.7716 -0.0549
vn -0.6552 0.7254 -0.2108
vn -0.6570 0.7215 -0.2186
vn -0.6338 0.7715 -0.0548
vn -0.5807 0.8072 0.1056
vn -0.5828 0.8068 0.0970
vn -0.3969 0.8274 0.3973
vn -0.6154 0.5818 -0.5317
vn 0.6337 -0.7716 0.0549
vn 0.6338 -0.7715 0.0549
vn 0.6570 -0.7215 0.2186
vn 0.6552 -0.7254 0.2108
vn 0.5828 -0.8068 -0.0970
vn 0.5807 -0.8072 -0.1056
vn 0.3969 -0.8274 -0.3973
vn 0.6154 -0.5818 0.5317
vn 0.7121 0.7021 0.0047
vn 0.8159 0.5773 0.0312
vn 0.8197 0.5720 0.0307
vn 0.7100 0.7042 0.0043
vn 0.5798 0.8148 -0.0071
vn 0.5890 0.8081 -0.0055
vn 0.2672 0.9636 0.0062
vn 0.9560 0.2680 0.1191
vn -0.7120 -0.7022 -0.0053
vn -0.7099 -0.7042 -0.0055
vn -0.8188 -0.5732 -0.0316
vn -0.8134 -0.5809 -0.0311
vn -0.5924 -0.8056 0.0046
vn -0.5808 -0.8140 0.0060
vn -0.2672 -0.9636 -0.0062
vn -0.9560 -0.2680 -0.1191
vn -0.2355 0.6578 -0.7154
vn -0.0931 0.6138 -0.7839
vn -0.0861 0.6100 -0.7877
vn -0.2356 0.6577 -0.7155
vn -0.3705 0.6964 -0.6146
vn -0.3631 0.6959 -0.6196
vn -0.5816 0.7370 -0.3444
vn 0.2332 0.4894 -0.8403
vn 0.2355 -0.6578 0.7154
vn 0.2356 -0.6577 0.7155
vn 0.0861 -0.6100 0.7877
vn 0.0932 -0.6139 0.7839
vn 0.3631 -0.6959 0.6196
vn 0.3705 -0.6964 0.6146
vn 0.5816 -0.7370 0.3444
vn -0.2332 -0.4895 0.8403
vn 0.3699 0.8912 -0.2626
vn 0.4434 0.8888 -0.1160
vn 0.4481 0.8874 -0.1085
vn 0.3701 0.8911 -0.2627
vn 0.2694 0.8750 -0.4022
vn 0.2737 0.8771 -0.3947
vn 0.0195 0.7828 -0.6219
vn 0.5314 0.8182 0.2194
vn -0.3699 -0.8912 0.2626
vn -0.3700 -0.8911 0.2627
vn -0.4481 -0.8874 0.1086
vn -0.4433 -0.8888 0.1159
vn -0.2737 -0.8771 0.3947
vn -0.2694 -0.8750 0.4022
vn -0.0195 -0.7829 0.6219
vn -0.5314 -0.8182 -0.2194
s 1
f 1/1/1 2/2/2 3/3/3
f 1/1/1 4/4/4 2/2/2
f 1/1/1 5/5/5 4/6/4
f 1/1/1 3/3/3 5/5/5
s 2
f 6/7/6 7/8/7 8/9/8
f 8/9/8 9/10/9 6/7/6
s 1
f 10/11/10 11/12/11 12/13/12
f 12/13/12 13/14/13 10/11/10
f 14/15/14 11/12/11 10/11/10
f 10/11/10 15/16/15 14/15/14
f 16/17/16 14/18/14 15/19/15
f 15/19/15 17/20/17 16/17/16
f 13/14/13 12/13/12 16/17/16
f 16/17/16 17/20/17 13/14/13
f 18/21/18 19/22/19 3/3/3
f 3/3/3 2/2/2 18/21/18
f 20/23/20 18/21/18 2/2/2
f 2/2/2 4/4/4 20/23/20
f 5/5/5 21/24/21 20/25/20
f 20/25/20 4/6/4 5/5/5
f 3/3/3 19/22/19 21/24/21
f 21/24/21 5/5/5 3/3/3
f 22/26/22 23/27/23 19/22/19
f 19/22/19 18/21/18 22/26/22
f 20/23/20 24/28/24 22/26/22
f 22/26/22 18/21/18 20/23/20
f 21/24/21 25/29/25 24/30/24
f 24/30/24 20/25/20 21/24/21
f 23/27/23 25/29/25 21/24/21
f 21/24/21 19/22/19 23/27/23
f 11/12/11 7/31/26 6/7/27
f 6/7/27 12/13/12 11/12/11
f 14/15/14 8/32/8 7/31/26
f 7/31/26 11/12/11 14/15/14
f 9/10/9 8/33/8 14/18/14
f 14/18/14 16/17/16 9/10/9
f 6/7/27 9/10/9 16/17/16
f 16/17/16 12/13/12 6/7/27
f 10/11/10 13/14/13 23/27/23
f 23/27/23 22/26/22 10/11/10
f 24/28/24 15/16/15 10/11/10
f 10/11/10 22/26/22 24/28/24
f 25/29/25 17/20/17 15/19/15
f 15/19/15 24/30/24 25/29/25
f 13/14/13 17/20/17 25/29/25
f 25/29/25 23/27/23 13/14/13
s 3
f 26/34/28 27/35/29 28/36/30
f 28/36/30 29/37/31 26/34/28
f 26/34/28 29/37/31 30/38/32
f 30/38/32 31/39/33 26/34/28
f 27/35/29 32/40/34 28/36/30
f 30/38/32 33/41/35 31/39/33
s 4
f 34/42/36 35/43/37 36/44/38
f 36/44/38 37/45/39 34/42/36
f 34/42/36 38/46/40 39/47/41
f 39/47/41 35/43/37 34/42/36
f 37/45/39 36/44/38 40/48/42
f 39/47/41 38/46/40 41/49/43
s 5
f 42/50/44 43/51/45 44/52/46
f 44/52/46 45/53/47 42/50/44
f 42/50/44 45/53/47 46/54/48
f 46/54/48 47/55/49 42/50/44
f 43/51/45 48/56/50 44/52/46
f 46/54/48 49/57/51 47/55/49
s 6
f 50/58/52 51/59/53 52/60/54
f 52/60/54 53/61/55 50/58/52
f 50/58/52 54/62/56 55/63/57
f 55/63/57 51/59/53 50/58/52
f 53/61/55 52/60/54 56/64/58
f 55/63/57 54/62/56 57/65/59
s 7
f 58/66/60 59/67/61 60/68/62
f 60/68/62 61/69/63 58/66/60
f 58/66/60 61/69/63 62/70/64
f 62/70/64 63/71/65 58/66/60
f 59/67/61 64/72/66 60/68/62
f 62/70/64 65/73/67 63/71/65
s 8
f 66/74/68 67/75/69 68/76/70
f 68/76/70 69/77/71 66/74/68
f 66/74/68 70/78/72 71/79/73
f 71/79/73 67/75/69 66/74/68
f 69/77/71 68/76/70 72/80/74
f 71/79/73 70/78/72 73/81/75
s 9
f 74/82/76 75/83/77 76/84/78
f 76/84/78 77/85/79 74/82/76
f 74/82/76 77/85/79 78/86/80
f 78/86/80 79/87/81 74/82/76
f 75/83/77 80/88/82 76/84/78
f 78/86/80 81/89/83 79/87/81
s 10
f 82/90/84 83/91/85 84/92/86
f 84/92/86 85/93/87 82/90/84
f 82/90/84 86/94/88 87/95/89
f 87/95/89 83/91/85 82/90/84
f 85/93/87 84/92/86 88/96/90
f 87/95/89 86/94/88 89/97/91
s 11
f 90/98/92 91/99/93 92/100/94
f 92/100/94 93/101/95 90/98/92
s 12
f 94/102/96 95/103/97 96/104/98
f 96/104/98 97/105/99 94/102/96
f 98/106/100 95/103/97 94/102/96
f 94/102/96 99/107/101 98/106/100
f 100/108/102 98/109/100 99/110/101
f 99/110/101 101/111/103 100/108/102
f 97/105/99 96/104/98 100/108/102
f 100/108/102 101/111/103 97/105/99
f 102/112/104 103/113/105 104/114/106
f 104/114/106 105/115/107 102/112/104
f 106/116/108 103/113/105 102/112/104
f 102/112/104 107/117/109 106/116/108
f 108/118/110 106/119/108 107/120/109
f 107/120/109 109/121/111 108/118/110
f 105/115/107 104/114/106 108/118/110
f 108/118/110 109/121/111 105/115/107
f 95/103/97 91/122/93 90/98/92
f 90/98/92 96/104/98 95/103/97
f 98/106/100 92/123/94 91/122/93
f 91/122/93 95/103/97 98/106/100
f 93/101/112 92/124/94 98/109/100
f 98/109/100 100/108/102 93/101/112
f 90/98/92 93/101/112 100/108/102
f 100/108/102 96/104/98 90/98/92
f 94/102/96 97/105/99 110/125/113
f 110/125/113 111/126/114 94/102/96
f 112/127/115 99/107/101 94/102/96
f 94/102/96 111/126/114 112/127/115
f 113/128/116 101/111/103 99/110/101
f 99/110/101 112/129/115 113/128/116
f 97/105/99 101/111/103 113/128/116
f 113/128/116 110/125/113 97/105/99
s 13
f 114/130/117 115/131/118 116/132/119
f 116/132/119 117/133/120 114/130/117
f 114/130/117 117/133/120 118/134/121
f 118/134/121 119/135/122 114/130/117
f 115/131/118 120/136/123 116/132/119
f 118/134/121 121/137/124 119/135/122
s 14
f 122/138/125 123/139/126 124/140/127
f 124/140/127 125/141/128 122/138/125
f 122/138/125 126/142/129 127/143/130
f 127/143/130 123/139/126 122/138/125
f 125/141/128 124/140/127 128/144/131
f 127/143/130 126/142/129 129/145/132
s 12
f 103/113/105 111/126/114 110/125/113
f 110/125/113 104/114/106 103/113/105
f 112/127/115 111/126/114 103/113/105
f 103/113/105 106/116/108 112/127/115
f 113/128/116 112/129/115 106/119/108
f 106/119/108 108/118/110 113/128/116
f 104/114/106 110/125/113 113/128/116
f 113/128/116 108/118/110 104/114/106
s 15
f 130/146/133 131/147/134 132/148/135
f 132/148/135 133/149/136 130/146/133
f 130/146/133 133/149/136 134/150/137
f 134/150/137 135/151/138 130/146/133
f 131/147/134 136/152/139 132/148/135
f 134/150/137 137/153/140 135/151/138
s 16
f 138/154/141 139/155/142 140/156/143
f 140/156/143 141/157/144 138/154/141
f 138/154/141 142/158/145 143/159/146
f 143/159/146 139/155/142 138/154/141
f 141/157/144 140/156/143 144/160/147
f 143/159/146 142/158/145 145/161/148
s 17
f 146/162/149 147/163/150 148/164/151
f 148/164/151 149/165/152 146/162/149
f 146/162/149 149/165/152 150/166/153
f 150/166/153 151/167/154 146/162/149
f 147/163/150 152/168/155 148/164/151
f 150/166/153 153/169/156 151/167/154
s 18
f 154/170/157 155/171/158 156/172/159
f 156/172/159 157/173/160 154/170/157
f 154/170/157 158/174/161 159/175/162
f 159/175/162 155/171/158 154/170/157
f 157/173/160 156/172/159 160/176/163
f 159/175/162 158/174/161 161/177/164
s 19
f 162/178/165 163/179/166 164/180/167
f 164/180/167 165/181/168 162/178/165
f 162/178/165 165/181/168 166/182/169
f 166/182/169 167/183/170 162/178/165
f 163/179/166 168/184/171 164/180/167
f 166/182/169 169/185/172 167/183/170
s 20
f 170/186/173 171/187/174 172/188/175
f 172/188/175 173/189/176 170/186/173
f 170/186/173 174/190/177 175/191/178
f 175/191/178 171/187/174 170/186/173
f 173/189/176 172/188/175 176/192/179
f 175/191/178 174/190/177 177/193/180
s 21
f 178/194/181 179/195/182 180/196/183
f 180/196/183 181/197/184 178/194/181
s 22
f 182/198/185 183/199/186 184/200/187
f 184/200/187 185/201/188 182/198/185
f 186/202/189 183/199/186 182/198/185
f 182/198/185 187/203/190 186/202/189
f 188/204/191 186/205/189 187/206/190
f 187/206/190 189/207/192 188/204/191
f 185/201/188 184/200/187 188/204/191
f 188/204/191 189/207/192 185/201/188
f 190/208/193 191/209/194 192/210/195
f 192/210/195 193/211/196 190/208/193
f 194/212/197 195/213/198 190/208/193
f 190/208/193 193/211/196 194/212/197
f 196/214/199 197/215/200 195/216/198
f 195/216/198 194/217/197 196/214/199
f 191/209/194 197/215/200 196/214/199
f 196/214/199 192/210/195 191/209/194
f 183/199/186 179/218/182 178/194/181
f 178/194/181 184/200/187 183/199/186
f 186/202/189 180/219/183 179/218/182
f 179/218/182 183/199/186 186/202/189
f 181/197/201 180/220/183 186/205/189
f 186/205/189 188/204/191 181/197/201
f 178/194/181 181/197/201 188/204/191
f 188/204/191 184/200/187 178/194/181
f 182/198/185 185/201/188 191/209/194
f 191/209/194 190/208/193 182/198/185
f 195/213/198 187/203/190 182/198/185
f 182/198/185 190/208/193 195/213/198
f 197/215/200 189/207/192 187/206/190
f 187/206/190 195/216/198 197/215/200
f 185/201/188 189/207/192 197/215/200
f 197/215/200 191/209/194 185/201/188
s 23
f 198/221/202 199/222/203 200/223/204
f 200/223/204 201/224/205 198/221/202
f 198/221/202 201/224/205 202/225/206
f 202/225/206 203/226/207 198/221/202
f 199/222/203 204/227/208 200/223/204
f 202/225/206 205/228/209 203/226/207
s 24
f 206/229/210 207/230/211 208/231/212
f 208/231/212 209/232/213 206/229/210
f 206/229/210 210/233/214 211/234/215
f 211/234/215 207/230/211 206/229/210
f 209/232/213 208/231/212 212/235/216
f 211/234/215 210/233/214 213/236/217
s 25
f 214/237/218 215/238/219 216/239/220
f 216/239/220 217/240/221 214/237/218
f 214/237/218 217/240/221 218/241/222
f 218/241/222 219/242/223 214/237/218
f 215/238/219 220/243/224 216/239/220
f 218/241/222 221/244/225 219/242/223
s 26
f 222/245/226 223/246/227 224/247/228
f 224/247/228 225/248/229 222/245/226
f 222/245/226 226/249/230 227/250/231
f 227/250/231 223/246/227 222/245/226
f 225/248/229 224/247/228 228/251/232
f 227/250/231 226/249/230 229/252/233
s 27
f 230/253/234 231/254/235 232/255/236
f 232/255/236 233/256/237 230/253/234
f 230/253/234 233/256/237 234/257/238
f 234/257/238 235/258/239 230/253/234
f 231/254/235 236/259/240 232/255/236
f 234/257/238 237/260/241 235/258/239
s 28
f 238/261/242 239/262/243 240/263/244
f 240/263/244 241/264/245 238/261/242
f 238/261/242 242/265/246 243/266/247
f 243/266/247 239/262/243 238/261/242
f 241/264/245 240/263/244 244/267/248
f 243/266/247 242/265/246 245/268/249
s 29
f 246/269/250 247/270/251 248/271/252
f 248/271/252 249/272/253 246/269/250
f 246/269/250 249/272/253 250/273/254
f 250/273/254 251/274/255 246/269/250
f 247/270/251 252/275/256 248/271/252
f 250/273/254 253/276/257 251/274/255
s 30
f 254/277/258 255/278/259 256/279/260
f 256/279/260 257/280/261 254/277/258
f 254/277/258 258/281/262 259/282/263
f 259/282/263 255/278/259 254/277/258
f 257/280/261 256/279/260 260/283/264
f 259/282/263 258/281/262 261/284/265
s 31
f 262/285/266 263/286/267 264/287/268
f 264/287/268 265/288/269 262/285/266
f 262/285/266 265/288/269 266/289/270
f 266/289/270 267/290/271 262/285/266
f 263/286/267 268/291/272 264/287/268
f 266/289/270 269/292/273 267/290/271
s 32
f 270/293/274 271/294/275 272/295/276
f 272/295/276 273/296/277 270/293/274
f 270/293/274 274/297/278 275/298/279
f 275/298/279 271/294/275 270/293/274
f 273/296/277 272/295/276 276/299/280
f 275/298/279 274/297/278 277/300/281
s 33
f 278/301/282 279/302/283 280/303/284
f 280/303/284 281/304/285 278/301/282
f 278/301/282 281/304/285 282/305/286
f 282/305/286 283/306/287 278/301/282
f 279/302/283 284/307/288 280/303/284
f 282/305/286 285/308/289 283/306/287
s 34
f 286/309/290 287/310/291 288/311/292
f 288/311/292 289/312/293 286/309/290
f 286/309/290 290/313/294 291/314/295
f 291/314/295 287/310/291 286/309/290
f 289/312/293 288/311/292 292/315/296
f 291/314/295 290/313/294 293/316/297
s 35
f 294/317/298 295/318/299 296/319/300
f 296/319/300 297/320/301 294/317/298
s 36
f 298/321/302 299/322/303 300/323/304
f 300/323/304 301/324/305 298/321/302
f 302/325/306 299/322/303 298/321/302
f 298/321/302 303/326/307 302/325/306
f 304/327/308 302/328/306 303/329/307
f 303/329/307 305/330/309 304/327/308
f 301/324/305 300/323/304 304/327/308
f 304/327/308 305/330/309 301/324/305
f 306/331/310 307/332/311 308/333/312
f 308/333/312 309/334/313 306/331/310
f 310/335/314 311/336/315 306/331/310
f 306/331/310 309/334/313 310/335/314
f 312/337/316 313/338/317 311/339/315
f 311/339/315 310/340/314 312/337/316
f 307/332/311 313/338/317 312/337/316
f 312/337/316 308/333/312 307/332/311
f 299/322/303 295/341/299 294/317/318
f 294/317/318 300/323/304 299/322/303
f 302/325/306 296/342/319 295/341/299
f 295/341/299 299/322/303 302/325/306
f 297/320/320 296/343/319 302/328/306
f 302/328/306 304/327/308 297/320/320
f 294/317/318 297/320/320 304/327/308
f 304/327/308 300/323/304 294/317/318
f 298/321/302 301/324/305 307/332/311
f 307/332/311 306/331/310 298/321/302
f 311/336/315 303/326/307 298/321/302
f 298/321/302 306/331/310 311/336/315
f 313/338/317 305/330/309 303/329/307
f 303/329/307 311/339/315 313/338/317
f 301/324/305 305/330/309 313/338/317
f 313/338/317 307/332/311 301/324/305
s 37
f 314/344/321 315/345/322 316/346/323
f 316/346/323 317/347/324 314/344/321
f 314/344/321 317/347/324 318/348/325
f 318/348/325 319/349/326 314/344/321
f 315/345/322 320/350/327 316/346/323
f 318/348/325 321/351/328 319/349/326
s 38
f 322/352/329 323/353/330 324/354/331
f 324/354/331 325/355/332 322/352/329
f 322/352/329 326/356/333 327/357/334
f 327/357/334 323/353/330 322/352/329
f 325/355/332 324/354/331 328/358/335
f 327/357/334 326/356/333 329/359/336
s 39
f 330/360/337 331/361/338 332/362/339
f 332/362/339 333/363/340 330/360/337
f 330/360/337 333/363/340 334/364/341
f 334/364/341 335/365/342 330/360/337
f 331/361/338 336/366/343 332/362/339
f 334/364/341 337/367/344 335/365/342
s 40
f 338/368/345 339/369/346 340/370/347
f 340/370/347 341/371/348 338/368/345
f 338/368/345 342/372/349 343/373/350
f 343/373/350 339/369/346 338/368/345
f 341/371/348 340/370/347 344/374/351
f 343/373/350 342/372/349 345/375/352
s 41
f 346/376/353 347/377/354 348/378/355
f 348/378/355 349/379/356 346/376/353
f 346/376/353 349/379/356 350/380/357
f 350/380/357 351/381/358 346/376/353
f 347/377/354 352/382/359 348/378/355
f 350/380/357 353/383/360 351/381/358
s 42
f 354/384/361 355/385/362 356/386/363
f 356/386/363 357/387/364 354/384/361
f 354/384/361 358/388/365 359/389/366
f 359/389/366 355/385/362 354/384/361
f 357/387/364 356/386/363 360/390/367
f 359/389/366 358/388/365 361/391/368
s 43
f 362/392/369 363/393/370 364/394/371
f 364/394/371 365/395/372 362/392/369
f 362/392/369 365/395/372 366/396/373
f 366/396/373 367/397/374 362/392/369
f 363/393/370 368/398/375 364/394/371
f 366/396/373 369/399/376 367/397/374
s 44
f 370/400/377 371/401/378 372/402/379
f 372/402/379 373/403/380 370/400/377
f 370/400/377 374/404/381 375/405/382
f 375/405/382 371/401/378 370/400/377
f 373/403/380 372/402/379 376/406/383
f 375/405/382 374/404/381 377/407/384
