# Blender v3.3.0 OBJ File: ''
# www.blender.org
o BlueberryStage02.005
v 0.000584 -0.012457 -0.001011
v 0.003768 0.000085 -0.006527
v 0.006504 -0.000563 0.003609
v -0.006377 -0.000563 -0.003829
v -0.003641 -0.001211 0.006306
v 0.061319 0.164273 0.021598
v 0.060858 0.164190 0.020502
v 0.059916 0.164832 0.020849
v 0.060376 0.164915 0.021945
v 0.023821 0.109454 0.018430
v 0.049959 0.137544 0.022986
v 0.050393 0.137274 0.024482
v 0.024347 0.108832 0.020725
v 0.048705 0.138365 0.023488
v 0.021921 0.110758 0.019218
v 0.049139 0.138095 0.024984
v 0.022447 0.110136 0.021514
v 0.002221 0.006106 -0.003847
v 0.004016 0.005681 0.002803
v -0.004436 0.005681 -0.002077
v -0.002640 0.005256 0.004573
v 0.001816 0.074125 0.014615
v 0.002549 0.072362 0.019182
v -0.002381 0.076276 0.016118
v -0.001648 0.074513 0.020685
v 0.060377 0.163981 0.021243
v 0.076591 0.170017 0.029934
v 0.091495 0.222262 0.009155
v 0.085268 0.233142 -0.002290
v 0.069650 0.226568 -0.001294
v 0.046329 0.175983 0.015459
v 0.093385 0.194741 0.018295
v 0.053101 0.202683 -0.000974
v 0.060515 0.163892 0.020918
v 0.085406 0.233052 -0.002615
v 0.091633 0.222172 0.008830
v 0.076729 0.169927 0.029609
v 0.046467 0.175893 0.015134
v 0.069788 0.226479 -0.001619
v 0.093523 0.194651 0.017970
v 0.053239 0.202593 -0.001299
v 0.000106 0.074517 0.017754
v -0.010488 0.073323 0.033915
v 0.024408 0.076693 0.080330
v 0.041074 0.078428 0.083045
v 0.043731 0.085175 0.067697
v 0.016281 0.085074 0.016415
v 0.003294 0.067955 0.062376
v 0.038928 0.083597 0.039080
v 0.000254 0.074184 0.017756
v 0.041221 0.078095 0.083047
v 0.024555 0.076359 0.080332
v -0.010341 0.072990 0.033917
v 0.016428 0.084741 0.016417
v 0.043879 0.084842 0.067699
v 0.003441 0.067622 0.062378
v 0.039075 0.083264 0.039082
v 0.010224 0.090425 0.018713
v 0.023462 0.102157 0.010842
v 0.000539 0.129139 -0.035309
v -0.014453 0.129226 -0.043271
v -0.022706 0.123488 -0.029593
v -0.008739 0.094328 0.018761
v 0.019204 0.114654 -0.018390
v -0.023661 0.104232 -0.007848
v 0.010228 0.090157 0.018465
v -0.014449 0.128959 -0.043519
v 0.000543 0.128872 -0.035557
v 0.023466 0.101890 0.010594
v -0.008735 0.094061 0.018513
v -0.022702 0.123220 -0.029841
v 0.019209 0.114387 -0.018638
v -0.023657 0.103965 -0.008096
v 0.037981 0.125823 0.021570
v 0.046947 0.140220 0.012232
v 0.008216 0.181175 -0.002121
v -0.008485 0.183490 -0.000155
v -0.009285 0.172759 0.012974
v 0.022703 0.128562 0.033142
v 0.030293 0.162363 -0.003925
v -0.001980 0.146845 0.023910
v 0.037813 0.125666 0.021287
v -0.008653 0.183333 -0.000438
v 0.008048 0.181017 -0.002404
v 0.046779 0.140062 0.011950
v 0.022535 0.128405 0.032860
v -0.009453 0.172602 0.012691
v 0.030125 0.162206 -0.004208
v -0.002148 0.146688 0.023627
v 0.049983 0.138243 0.024048
v 0.060258 0.137486 0.040440
v 0.116748 0.144182 0.028298
v 0.126092 0.146577 0.014330
v 0.112913 0.152664 0.005532
v 0.054945 0.149235 0.008902
v 0.092129 0.133927 0.039840
v 0.085056 0.149566 -0.002143
v 0.050065 0.137915 0.023912
v 0.126175 0.146249 0.014194
v 0.116831 0.143855 0.028162
v 0.060341 0.137158 0.040303
v 0.055027 0.148907 0.008766
v 0.112996 0.152336 0.005396
v 0.092212 0.133599 0.039704
v 0.085139 0.149239 -0.002279
v 0.022506 0.108648 0.020083
v 0.016810 0.112252 0.038233
v 0.063117 0.112616 0.073431
v 0.079860 0.110418 0.071697
v 0.079506 0.114249 0.055164
v 0.039513 0.114514 0.012928
v 0.036505 0.107270 0.063054
v 0.066726 0.110281 0.029368
v 0.022575 0.108292 0.020114
v 0.079929 0.110061 0.071727
v 0.063186 0.112260 0.073461
v 0.016879 0.111895 0.038263
v 0.039582 0.114158 0.012958
v 0.079575 0.113893 0.055194
v 0.036574 0.106913 0.063084
v 0.066795 0.109925 0.029398
v -0.079675 0.192382 0.030966
v -0.079812 0.191735 0.031866
v -0.078972 0.192266 0.032375
v -0.078835 0.192912 0.031475
v -0.044513 0.141408 0.024368
v -0.066694 0.169949 0.022611
v -0.066305 0.170494 0.021291
v -0.043778 0.142060 0.022309
v -0.065553 0.170646 0.023246
v -0.042778 0.142526 0.025340
v -0.065163 0.171192 0.021926
v -0.042044 0.143178 0.023281
v -0.023402 0.108537 0.019888
v -0.022271 0.109064 0.017213
v 0.000017 0.074923 0.015442
v -0.001180 0.074135 0.018498
v 0.001497 0.075613 0.019928
v -0.020978 0.109667 0.021135
v 0.002694 0.076401 0.016872
v -0.019847 0.110194 0.018460
v -0.079053 0.191840 0.031497
v -0.088675 0.203176 0.021118
v -0.116706 0.237509 0.052793
v -0.118423 0.239925 0.068412
v -0.104653 0.232755 0.071840
v -0.071979 0.196590 0.047503
v -0.110589 0.220071 0.032812
v -0.088364 0.211304 0.067935
v -0.079306 0.191638 0.031607
v -0.118675 0.239723 0.068522
v -0.116958 0.237307 0.052902
v -0.088927 0.202974 0.021227
v -0.072231 0.196388 0.047612
v -0.104906 0.232553 0.071949
v -0.110841 0.219869 0.032921
v -0.088616 0.211102 0.068044
v -0.066188 0.170635 0.021915
v -0.067088 0.170242 0.003808
v -0.116696 0.185969 -0.012300
v -0.130122 0.190678 -0.005206
v -0.122532 0.194950 0.008094
v -0.075172 0.182682 0.032060
v -0.093487 0.171877 -0.010434
v -0.104249 0.188437 0.027175
v -0.066372 0.170356 0.021985
v -0.130306 0.190399 -0.005136
v -0.116880 0.185690 -0.012230
v -0.067272 0.169963 0.003878
v -0.075356 0.182403 0.032131
v -0.122716 0.194671 0.008164
v -0.093671 0.171598 -0.010364
v -0.104433 0.188158 0.027245
v -0.056597 0.158987 0.022681
v -0.069911 0.169519 0.029053
v -0.050609 0.201064 0.069055
v -0.036592 0.203211 0.076243
v -0.028475 0.197239 0.063947
v -0.039249 0.164219 0.021977
v -0.066859 0.184365 0.054989
v -0.026043 0.177310 0.045570
v -0.056576 0.158763 0.022938
v -0.036572 0.202987 0.076500
v -0.050588 0.200840 0.069312
v -0.069891 0.169295 0.029310
v -0.039229 0.163995 0.022234
v -0.028454 0.197015 0.064204
v -0.066838 0.184141 0.055246
v -0.026022 0.177086 0.045827
v -0.043590 0.141645 0.024612
v -0.050484 0.155957 0.015869
v -0.104731 0.151496 0.013584
v -0.115618 0.141040 0.018574
v -0.105943 0.135068 0.029686
v -0.052163 0.133198 0.038175
v -0.078923 0.155980 0.006193
v -0.081158 0.125684 0.035885
v -0.043627 0.141408 0.024368
v -0.115655 0.140804 0.018330
v -0.104768 0.151260 0.013340
v -0.050521 0.155721 0.015625
v -0.052200 0.132962 0.037931
v -0.105980 0.134831 0.029442
v -0.078960 0.155744 0.005949
v -0.081195 0.125448 0.035642
v -0.022271 0.109064 0.017213
v -0.011512 0.116650 0.004744
v -0.041977 0.137720 -0.035202
v -0.057501 0.138806 -0.038457
v -0.061640 0.136830 -0.023235
v -0.038750 0.115417 0.021322
v -0.022126 0.124297 -0.022298
v -0.058386 0.122656 -0.000229
v -0.022362 0.108782 0.017043
v -0.057592 0.138524 -0.038627
v -0.042068 0.137439 -0.035372
v -0.011603 0.116368 0.004574
v -0.038841 0.115135 0.021152
v -0.061731 0.136548 -0.023405
v -0.022217 0.124016 -0.022468
v -0.058476 0.122374 -0.000399
v -0.032282 0.123747 0.021532
v -0.043264 0.138142 0.022515
v -0.050714 0.151828 0.074717
v -0.045743 0.146445 0.088826
v -0.033073 0.139224 0.082497
v -0.018826 0.120681 0.033293
v -0.055814 0.146310 0.048558
v -0.023282 0.123066 0.062905
v -0.032500 0.123505 0.021634
v -0.045961 0.146203 0.088927
v -0.050932 0.151586 0.074818
v -0.043482 0.137900 0.022617
v -0.019044 0.120439 0.033395
v -0.033291 0.138982 0.082599
v -0.056032 0.146068 0.048659
v -0.023500 0.122824 0.063007
vt 0.691200 0.149200
vt 0.658300 0.170900
vt 0.653600 0.149700
vt 0.669900 0.192900
vt 0.657200 0.128500
vt 0.668700 0.106300
vt 0.339100 0.150700
vt 0.333600 0.151700
vt 0.332600 0.146200
vt 0.338000 0.145200
vt 0.443800 0.164900
vt 0.391300 0.159300
vt 0.392100 0.151800
vt 0.444600 0.153800
vt 0.390700 0.166700
vt 0.443000 0.176200
vt 0.391800 0.144200
vt 0.390500 0.136800
vt 0.443300 0.131400
vt 0.444500 0.142600
vt 0.642000 0.172400
vt 0.639100 0.150100
vt 0.643600 0.192900
vt 0.640300 0.127500
vt 0.643000 0.106700
vt 0.543300 0.165700
vt 0.542300 0.150500
vt 0.542400 0.180600
vt 0.542100 0.135300
vt 0.542400 0.120300
vt 0.339200 0.156500
vt 0.338100 0.162000
vt 0.337900 0.139600
vt 0.502700 0.487100
vt 0.616500 0.539600
vt 0.588900 0.921700
vt 0.502700 0.995500
vt 0.416600 0.921700
vt 0.388900 0.539600
vt 0.663900 0.744700
vt 0.341600 0.744700
vt 0.502700 0.487100
vt 0.502700 0.995500
vt 0.588900 0.921700
vt 0.616500 0.539600
vt 0.388900 0.539600
vt 0.416600 0.921700
vt 0.663900 0.744700
vt 0.341600 0.744700
vt 0.169200 0.487100
vt 0.283000 0.539600
vt 0.255400 0.921700
vt 0.169200 0.995500
vt 0.083000 0.921700
vt 0.055400 0.539600
vt 0.330300 0.744700
vt 0.008100 0.744700
vt 0.169200 0.487100
vt 0.169200 0.995500
vt 0.255400 0.921700
vt 0.283000 0.539600
vt 0.055400 0.539600
vt 0.083000 0.921700
vt 0.330300 0.744700
vt 0.008100 0.744700
vt 0.502700 0.487100
vt 0.616500 0.539600
vt 0.588900 0.921700
vt 0.502700 0.995500
vt 0.416600 0.921700
vt 0.388900 0.539600
vt 0.663900 0.744700
vt 0.341600 0.744700
vt 0.502700 0.487100
vt 0.502700 0.995500
vt 0.588900 0.921700
vt 0.616500 0.539600
vt 0.388900 0.539600
vt 0.416600 0.921700
vt 0.663900 0.744700
vt 0.341600 0.744700
vt 0.169200 0.487100
vt 0.283000 0.539600
vt 0.255400 0.921700
vt 0.169200 0.995500
vt 0.083000 0.921700
vt 0.055400 0.539600
vt 0.330300 0.744700
vt 0.008100 0.744700
vt 0.169200 0.487100
vt 0.169200 0.995500
vt 0.255400 0.921700
vt 0.283000 0.539600
vt 0.055400 0.539600
vt 0.083000 0.921700
vt 0.330300 0.744700
vt 0.008100 0.744700
vt 0.169200 0.487100
vt 0.283000 0.539600
vt 0.255400 0.921700
vt 0.169200 0.995500
vt 0.083000 0.921700
vt 0.055400 0.539600
vt 0.330300 0.744700
vt 0.008100 0.744700
vt 0.169200 0.487100
vt 0.169200 0.995500
vt 0.255400 0.921700
vt 0.283000 0.539600
vt 0.055400 0.539600
vt 0.083000 0.921700
vt 0.330300 0.744700
vt 0.008100 0.744700
vt 0.502700 0.487100
vt 0.616500 0.539600
vt 0.588900 0.921700
vt 0.502700 0.995500
vt 0.416600 0.921700
vt 0.388900 0.539600
vt 0.663900 0.744700
vt 0.341600 0.744700
vt 0.502700 0.487100
vt 0.502700 0.995500
vt 0.588900 0.921700
vt 0.616500 0.539600
vt 0.388900 0.539600
vt 0.416600 0.921700
vt 0.663900 0.744700
vt 0.341600 0.744700
vt 0.339100 0.150700
vt 0.333600 0.151700
vt 0.332600 0.146200
vt 0.338000 0.145200
vt 0.443800 0.164900
vt 0.391300 0.159300
vt 0.392100 0.151800
vt 0.444600 0.153800
vt 0.390700 0.166700
vt 0.443000 0.176200
vt 0.391800 0.144200
vt 0.390500 0.136800
vt 0.443300 0.131400
vt 0.444500 0.142600
vt 0.543300 0.165700
vt 0.542300 0.150500
vt 0.639100 0.150100
vt 0.642000 0.172400
vt 0.643600 0.192900
vt 0.542400 0.180600
vt 0.640300 0.127500
vt 0.542100 0.135300
vt 0.542400 0.120300
vt 0.643000 0.106700
vt 0.339200 0.156500
vt 0.338100 0.162000
vt 0.337900 0.139600
vt 0.502700 0.487100
vt 0.616500 0.539600
vt 0.588900 0.921700
vt 0.502700 0.995500
vt 0.416600 0.921700
vt 0.388900 0.539600
vt 0.663900 0.744700
vt 0.341600 0.744700
vt 0.502700 0.487100
vt 0.502700 0.995500
vt 0.588900 0.921700
vt 0.616500 0.539600
vt 0.388900 0.539600
vt 0.416600 0.921700
vt 0.663900 0.744700
vt 0.341600 0.744700
vt 0.169200 0.487100
vt 0.283000 0.539600
vt 0.255400 0.921700
vt 0.169200 0.995500
vt 0.083000 0.921700
vt 0.055400 0.539600
vt 0.330300 0.744700
vt 0.008100 0.744700
vt 0.169200 0.487100
vt 0.169200 0.995500
vt 0.255400 0.921700
vt 0.283000 0.539600
vt 0.055400 0.539600
vt 0.083000 0.921700
vt 0.330300 0.744700
vt 0.008100 0.744700
vt 0.169200 0.487100
vt 0.283000 0.539600
vt 0.255400 0.921700
vt 0.169200 0.995500
vt 0.083000 0.921700
vt 0.055400 0.539600
vt 0.330300 0.744700
vt 0.008100 0.744700
vt 0.169200 0.487100
vt 0.169200 0.995500
vt 0.255400 0.921700
vt 0.283000 0.539600
vt 0.055400 0.539600
vt 0.083000 0.921700
vt 0.330300 0.744700
vt 0.008100 0.744700
vt 0.502700 0.487100
vt 0.616500 0.539600
vt 0.588900 0.921700
vt 0.502700 0.995500
vt 0.416600 0.921700
vt 0.388900 0.539600
vt 0.663900 0.744700
vt 0.341600 0.744700
vt 0.502700 0.487100
vt 0.502700 0.995500
vt 0.588900 0.921700
vt 0.616500 0.539600
vt 0.388900 0.539600
vt 0.416600 0.921700
vt 0.663900 0.744700
vt 0.341600 0.744700
vt 0.169200 0.487100
vt 0.283000 0.539600
vt 0.255400 0.921700
vt 0.169200 0.995500
vt 0.083000 0.921700
vt 0.055400 0.539600
vt 0.330300 0.744700
vt 0.008100 0.744700
vt 0.169200 0.487100
vt 0.169200 0.995500
vt 0.255400 0.921700
vt 0.283000 0.539600
vt 0.055400 0.539600
vt 0.083000 0.921700
vt 0.330300 0.744700
vt 0.008100 0.744700
vt 0.502700 0.487100
vt 0.616500 0.539600
vt 0.588900 0.921700
vt 0.502700 0.995500
vt 0.416600 0.921700
vt 0.388900 0.539600
vt 0.663900 0.744700
vt 0.341600 0.744700
vt 0.502700 0.487100
vt 0.502700 0.995500
vt 0.588900 0.921700
vt 0.616500 0.539600
vt 0.388900 0.539600
vt 0.416600 0.921700
vt 0.663900 0.744700
vt 0.341600 0.744700
vn 0.0436 -0.9962 -0.0754
vn 0.4999 0.0158 -0.8659
vn 0.8669 -0.0711 0.4934
vn -0.8607 -0.0712 -0.5041
vn -0.4938 -0.1581 0.8551
vn 0.9279 0.2559 0.2711
vn 0.5172 0.2314 -0.8240
vn -0.4407 0.7769 -0.4496
vn -0.0167 0.7981 0.6023
vn 0.3766 -0.1646 -0.9117
vn 0.4490 -0.2714 -0.8513
vn 0.7563 -0.4782 0.4464
vn 0.6999 -0.5589 0.4448
vn -0.7454 0.5017 -0.4389
vn -0.6723 0.6054 -0.4260
vn -0.2971 0.2022 0.9332
vn -0.3972 0.2595 0.8803
vn 0.4462 0.3641 -0.8175
vn 0.8616 0.1635 0.4805
vn -0.8320 0.2849 -0.4760
vn -0.5244 0.0787 0.8478
vn 0.4329 0.0375 -0.9007
vn 0.7580 -0.2748 0.5915
vn -0.8358 0.3716 -0.4042
vn -0.5710 0.0454 0.8197
vn -0.4407 0.7770 -0.4496
vn -0.3272 0.4080 0.8523
vn -0.4652 0.4385 0.7690
vn -0.4727 0.4386 0.7643
vn -0.3273 0.4078 0.8524
vn -0.1673 0.3784 0.9104
vn -0.1752 0.3814 0.9077
vn 0.1726 0.3211 0.9312
vn -0.7026 0.4937 0.5125
vn 0.3272 -0.4080 -0.8523
vn 0.3273 -0.4078 -0.8524
vn 0.4727 -0.4386 -0.7643
vn 0.4651 -0.4385 -0.7690
vn 0.1752 -0.3814 -0.9077
vn 0.1673 -0.3783 -0.9104
vn -0.1726 -0.3211 -0.9312
vn 0.7026 -0.4936 -0.5125
vn -0.3177 0.9373 0.1434
vn -0.1808 0.9814 0.0646
vn -0.1739 0.9830 0.0591
vn -0.3178 0.9373 0.1432
vn -0.4442 0.8643 0.2358
vn -0.4373 0.8688 0.2323
vn -0.6314 0.6468 0.4277
vn 0.1428 0.9866 -0.0784
vn 0.3177 -0.9373 -0.1434
vn 0.3178 -0.9373 -0.1433
vn 0.1740 -0.9830 -0.0591
vn 0.1807 -0.9814 -0.0646
vn 0.4373 -0.8688 -0.2324
vn 0.4442 -0.8644 -0.2358
vn 0.6314 -0.6468 -0.4277
vn -0.1428 -0.9866 0.0784
vn -0.0677 0.8334 0.5485
vn -0.2238 0.7889 0.5724
vn -0.2316 0.7851 0.5744
vn -0.0677 0.8333 0.5486
vn 0.0935 0.8642 0.4944
vn 0.0848 0.8639 0.4965
vn 0.3879 0.8666 0.3140
vn -0.5434 0.6402 0.5430
vn 0.0677 -0.8334 -0.5485
vn 0.0677 -0.8333 -0.5486
vn 0.2316 -0.7851 -0.5744
vn 0.2238 -0.7889 -0.5724
vn -0.0848 -0.8639 -0.4965
vn -0.0934 -0.8642 -0.4944
vn -0.3879 -0.8666 -0.3140
vn 0.5434 -0.6402 -0.5430
vn 0.3621 0.5699 0.7376
vn 0.2361 0.5126 0.8255
vn 0.2300 0.5080 0.8301
vn 0.3622 0.5698 0.7377
vn 0.4747 0.6257 0.6190
vn 0.4684 0.6243 0.6252
vn 0.6293 0.7077 0.3212
vn -0.0719 0.3705 0.9260
vn -0.3621 -0.5699 -0.7376
vn -0.3623 -0.5698 -0.7376
vn -0.2300 -0.5080 -0.8301
vn -0.2361 -0.5126 -0.8255
vn -0.4684 -0.6243 -0.6251
vn -0.4747 -0.6257 -0.6190
vn -0.6292 -0.7077 -0.3213
vn 0.0720 -0.3705 -0.9260
vn -0.0563 0.9325 0.3569
vn -0.0729 0.9771 0.1999
vn -0.0751 0.9786 0.1914
vn -0.0565 0.9324 0.3569
vn -0.0215 0.8600 0.5098
vn -0.0219 0.8645 0.5021
vn 0.0864 0.6461 0.7584
vn -0.0673 0.9858 -0.1538
vn 0.0564 -0.9325 -0.3569
vn 0.0565 -0.9324 -0.3569
vn 0.0751 -0.9786 -0.1914
vn 0.0729 -0.9771 -0.1999
vn 0.0219 -0.8645 -0.5022
vn 0.0215 -0.8600 -0.5098
vn -0.0864 -0.6461 -0.7584
vn 0.0672 -0.9858 0.1537
vn -0.0613 0.9975 0.0342
vn 0.0545 0.9951 -0.0820
vn 0.0596 0.9942 -0.0892
vn -0.0614 0.9975 0.0341
vn -0.1695 0.9714 0.1663
vn -0.1631 0.9735 0.1605
vn -0.3374 0.8347 0.4353
vn 0.3192 0.9001 -0.2966
vn 0.0613 -0.9975 -0.0342
vn 0.0614 -0.9975 -0.0341
vn -0.0597 -0.9942 0.0892
vn -0.0545 -0.9951 0.0820
vn 0.1631 -0.9735 -0.1605
vn 0.1696 -0.9714 -0.1663
vn 0.3374 -0.8347 -0.4353
vn -0.3192 -0.9001 0.2966
vn -0.6900 0.5040 -0.5194
vn -0.8861 -0.1277 0.4455
vn 0.0506 0.3677 0.9285
vn 0.2136 0.9768 -0.0142
vn -0.7504 -0.5441 0.3754
vn -0.7766 -0.5808 0.2442
vn -0.3607 -0.0630 -0.9305
vn -0.2937 -0.1539 -0.9434
vn 0.3518 0.0882 0.9319
vn 0.2911 0.1831 0.9390
vn 0.6968 0.5873 -0.4118
vn 0.7571 0.5818 -0.2970
vn -0.7831 -0.5333 0.3199
vn -0.3214 -0.1122 -0.9403
vn -0.2847 -0.1364 -0.9489
vn -0.7820 -0.5191 0.3451
vn 0.3196 0.1782 0.9306
vn 0.3212 0.1370 0.9371
vn 0.7778 0.5338 -0.3318
vn 0.7623 0.5438 -0.3511
vn -0.8861 -0.1278 0.4455
vn -0.6900 0.5040 -0.5195
vn 0.0506 0.3677 0.9286
vn 0.2135 0.9768 -0.0143
vn 0.6553 0.7177 -0.2356
vn 0.7274 0.6798 -0.0932
vn 0.7316 0.6763 -0.0861
vn 0.6554 0.7176 -0.2357
vn 0.5516 0.7473 -0.3705
vn 0.5566 0.7472 -0.3631
vn 0.2788 0.7642 -0.5816
vn 0.7944 0.5608 0.2332
vn -0.6553 -0.7177 0.2356
vn -0.6554 -0.7175 0.2356
vn -0.7316 -0.6763 0.0861
vn -0.7274 -0.6798 0.0931
vn -0.5566 -0.7472 0.3632
vn -0.5516 -0.7473 0.3705
vn -0.2788 -0.7642 0.5816
vn -0.7944 -0.5608 -0.2332
vn 0.3916 0.8782 -0.2746
vn 0.3376 0.9323 -0.1295
vn 0.3357 0.9342 -0.1210
vn 0.3918 0.8781 -0.2746
vn 0.4229 0.8000 -0.4256
vn 0.4204 0.8050 -0.4186
vn 0.4123 0.5868 -0.6969
vn 0.1627 0.9709 0.1755
vn -0.3916 -0.8782 0.2746
vn -0.3918 -0.8781 0.2746
vn -0.3357 -0.9342 0.1210
vn -0.3376 -0.9323 0.1295
vn -0.4204 -0.8050 0.4186
vn -0.4229 -0.8000 0.4256
vn -0.4123 -0.5868 0.6969
vn -0.1627 -0.9709 -0.1755
vn -0.0125 0.7735 -0.6337
vn 0.1468 0.7410 -0.6552
vn 0.1549 0.7378 -0.6570
vn -0.0126 0.7734 -0.6338
vn -0.1756 0.7950 -0.5807
vn -0.1670 0.7953 -0.5828
vn -0.4679 0.7896 -0.3969
vn 0.4790 0.6260 -0.6154
vn 0.0125 -0.7735 0.6337
vn 0.0126 -0.7734 0.6338
vn -0.1549 -0.7378 0.6570
vn -0.1468 -0.7410 0.6552
vn 0.1670 -0.7953 0.5828
vn 0.1756 -0.7950 0.5807
vn 0.4679 -0.7896 0.3969
vn -0.4790 -0.6260 0.6154
vn -0.0656 0.7009 0.7102
vn -0.0816 0.5750 0.8141
vn -0.0810 0.5677 0.8192
vn -0.0654 0.7009 0.7102
vn -0.0629 0.8131 0.5788
vn -0.0644 0.8078 0.5859
vn -0.0902 0.9594 0.2673
vn -0.1420 0.2565 0.9560
vn 0.0656 -0.7009 -0.7102
vn 0.0654 -0.7009 -0.7102
vn 0.0810 -0.5677 -0.8192
vn 0.0816 -0.5750 -0.8141
vn 0.0644 -0.8079 -0.5858
vn 0.0629 -0.8131 -0.5788
vn 0.0902 -0.9594 -0.2673
vn 0.1420 -0.2567 -0.9560
vn 0.1839 0.9107 0.3699
vn 0.0380 0.8955 0.4434
vn 0.0308 0.8935 0.4481
vn 0.1840 0.9106 0.3701
vn 0.3244 0.9067 0.2694
vn 0.3167 0.9082 0.2737
vn 0.5513 0.8341 0.0195
vn -0.2898 0.7960 0.5314
vn -0.1839 -0.9107 -0.3699
vn -0.1840 -0.9106 -0.3701
vn -0.0308 -0.8934 -0.4481
vn -0.0380 -0.8955 -0.4434
vn -0.3167 -0.9082 -0.2737
vn -0.3244 -0.9067 -0.2694
vn -0.5513 -0.8341 -0.0195
vn 0.2898 -0.7960 -0.5314
vn 0.6154 0.7759 -0.1384
vn 0.7306 0.6788 -0.0737
vn 0.7366 0.6725 -0.0715
vn 0.6155 0.7759 -0.1386
vn 0.4732 0.8608 -0.1876
vn 0.4806 0.8574 -0.1840
vn 0.1459 0.9619 -0.2313
vn 0.9006 0.4227 0.1015
vn -0.6154 -0.7759 0.1384
vn -0.6155 -0.7759 0.1386
vn -0.7366 -0.6725 0.0715
vn -0.7306 -0.6788 0.0737
vn -0.4806 -0.8574 0.1840
vn -0.4732 -0.8608 0.1876
vn -0.1459 -0.9619 0.2313
vn -0.9006 -0.4227 -0.1015
s 1
f 1/1/1 2/2/2 3/3/3
f 1/1/1 4/4/4 2/2/2
f 1/1/1 5/5/5 4/6/4
f 1/1/1 3/3/3 5/5/5
s 2
f 6/7/6 7/8/7 8/9/8
f 8/9/8 9/10/9 6/7/6
s 1
f 10/11/10 11/12/11 12/13/12
f 12/13/12 13/14/13 10/11/10
f 14/15/14 11/12/11 10/11/10
f 10/11/10 15/16/15 14/15/14
f 16/17/16 14/18/14 15/19/15
f 15/19/15 17/20/17 16/17/16
f 13/14/13 12/13/12 16/17/16
f 16/17/16 17/20/17 13/14/13
f 18/21/18 19/22/19 3/3/3
f 3/3/3 2/2/2 18/21/18
f 20/23/20 18/21/18 2/2/2
f 2/2/2 4/4/4 20/23/20
f 5/5/5 21/24/21 20/25/20
f 20/25/20 4/6/4 5/5/5
f 3/3/3 19/22/19 21/24/21
f 21/24/21 5/5/5 3/3/3
f 22/26/22 23/27/23 19/22/19
f 19/22/19 18/21/18 22/26/22
f 20/23/20 24/28/24 22/26/22
f 22/26/22 18/21/18 20/23/20
f 21/24/21 25/29/25 24/30/24
f 24/30/24 20/25/20 21/24/21
f 23/27/23 25/29/25 21/24/21
f 21/24/21 19/22/19 23/27/23
f 11/12/11 7/31/7 6/7/6
f 6/7/6 12/13/12 11/12/11
f 14/15/14 8/32/26 7/31/7
f 7/31/7 11/12/11 14/15/14
f 9/10/9 8/33/26 14/18/14
f 14/18/14 16/17/16 9/10/9
f 6/7/6 9/10/9 16/17/16
f 16/17/16 12/13/12 6/7/6
f 10/11/10 13/14/13 23/27/23
f 23/27/23 22/26/22 10/11/10
f 24/28/24 15/16/15 10/11/10
f 10/11/10 22/26/22 24/28/24
f 25/29/25 17/20/17 15/19/15
f 15/19/15 24/30/24 25/29/25
f 13/14/13 17/20/17 25/29/25
f 25/29/25 23/27/23 13/14/13
s 3
f 26/34/27 27/35/28 28/36/29
f 28/36/29 29/37/30 26/34/27
f 26/34/27 29/37/30 30/38/31
f 30/38/31 31/39/32 26/34/27
f 27/35/28 32/40/33 28/36/29
f 30/38/31 33/41/34 31/39/32
s 4
f 34/42/35 35/43/36 36/44/37
f 36/44/37 37/45/38 34/42/35
f 34/42/35 38/46/39 39/47/40
f 39/47/40 35/43/36 34/42/35
f 37/45/38 36/44/37 40/48/41
f 39/47/40 38/46/39 41/49/42
s 5
f 42/50/43 43/51/44 44/52/45
f 44/52/45 45/53/46 42/50/43
f 42/50/43 45/53/46 46/54/47
f 46/54/47 47/55/48 42/50/43
f 43/51/44 48/56/49 44/52/45
f 46/54/47 49/57/50 47/55/48
s 6
f 50/58/51 51/59/52 52/60/53
f 52/60/53 53/61/54 50/58/51
f 50/58/51 54/62/55 55/63/56
f 55/63/56 51/59/52 50/58/51
f 53/61/54 52/60/53 56/64/57
f 55/63/56 54/62/55 57/65/58
s 7
f 58/66/59 59/67/60 60/68/61
f 60/68/61 61/69/62 58/66/59
f 58/66/59 61/69/62 62/70/63
f 62/70/63 63/71/64 58/66/59
f 59/67/60 64/72/65 60/68/61
f 62/70/63 65/73/66 63/71/64
s 8
f 66/74/67 67/75/68 68/76/69
f 68/76/69 69/77/70 66/74/67
f 66/74/67 70/78/71 71/79/72
f 71/79/72 67/75/68 66/74/67
f 69/77/70 68/76/69 72/80/73
f 71/79/72 70/78/71 73/81/74
s 9
f 74/82/75 75/83/76 76/84/77
f 76/84/77 77/85/78 74/82/75
f 74/82/75 77/85/78 78/86/79
f 78/86/79 79/87/80 74/82/75
f 75/83/76 80/88/81 76/84/77
f 78/86/79 81/89/82 79/87/80
s 10
f 82/90/83 83/91/84 84/92/85
f 84/92/85 85/93/86 82/90/83
f 82/90/83 86/94/87 87/95/88
f 87/95/88 83/91/84 82/90/83
f 85/93/86 84/92/85 88/96/89
f 87/95/88 86/94/87 89/97/90
s 11
f 90/98/91 91/99/92 92/100/93
f 92/100/93 93/101/94 90/98/91
f 90/98/91 93/101/94 94/102/95
f 94/102/95 95/103/96 90/98/91
f 91/99/92 96/104/97 92/100/93
f 94/102/95 97/105/98 95/103/96
s 12
f 98/106/99 99/107/100 100/108/101
f 100/108/101 101/109/102 98/106/99
f 98/106/99 102/110/103 103/111/104
f 103/111/104 99/107/100 98/106/99
f 101/109/102 100/108/101 104/112/105
f 103/111/104 102/110/103 105/113/106
s 13
f 106/114/107 107/115/108 108/116/109
f 108/116/109 109/117/110 106/114/107
f 106/114/107 109/117/110 110/118/111
f 110/118/111 111/119/112 106/114/107
f 107/115/108 112/120/113 108/116/109
f 110/118/111 113/121/114 111/119/112
s 14
f 114/122/115 115/123/116 116/124/117
f 116/124/117 117/125/118 114/122/115
f 114/122/115 118/126/119 119/127/120
f 119/127/120 115/123/116 114/122/115
f 117/125/118 116/124/117 120/128/121
f 119/127/120 118/126/119 121/129/122
s 15
f 122/130/123 123/131/124 124/132/125
f 124/132/125 125/133/126 122/130/123
s 16
f 126/134/127 127/135/128 128/136/129
f 128/136/129 129/137/130 126/134/127
f 130/138/131 127/135/128 126/134/127
f 126/134/127 131/139/132 130/138/131
f 132/140/133 130/141/131 131/142/132
f 131/142/132 133/143/134 132/140/133
f 129/137/130 128/136/129 132/140/133
f 132/140/133 133/143/134 129/137/130
f 134/144/135 135/145/136 136/146/137
f 136/146/137 137/147/138 134/144/135
f 138/148/139 139/149/140 134/144/135
f 134/144/135 137/147/138 138/148/139
f 140/150/141 141/151/142 139/152/140
f 139/152/140 138/153/139 140/150/141
f 135/145/136 141/151/142 140/150/141
f 140/150/141 136/146/137 135/145/136
f 127/135/128 123/154/143 122/130/144
f 122/130/144 128/136/129 127/135/128
f 130/138/131 124/155/145 123/154/143
f 123/154/143 127/135/128 130/138/131
f 125/133/146 124/156/145 130/141/131
f 130/141/131 132/140/133 125/133/146
f 122/130/144 125/133/146 132/140/133
f 132/140/133 128/136/129 122/130/144
f 126/134/127 129/137/130 135/145/136
f 135/145/136 134/144/135 126/134/127
f 139/149/140 131/139/132 126/134/127
f 126/134/127 134/144/135 139/149/140
f 141/151/142 133/143/134 131/142/132
f 131/142/132 139/152/140 141/151/142
f 129/137/130 133/143/134 141/151/142
f 141/151/142 135/145/136 129/137/130
s 17
f 142/157/147 143/158/148 144/159/149
f 144/159/149 145/160/150 142/157/147
f 142/157/147 145/160/150 146/161/151
f 146/161/151 147/162/152 142/157/147
f 143/158/148 148/163/153 144/159/149
f 146/161/151 149/164/154 147/162/152
s 18
f 150/165/155 151/166/156 152/167/157
f 152/167/157 153/168/158 150/165/155
f 150/165/155 154/169/159 155/170/160
f 155/170/160 151/166/156 150/165/155
f 153/168/158 152/167/157 156/171/161
f 155/170/160 154/169/159 157/172/162
s 19
f 158/173/163 159/174/164 160/175/165
f 160/175/165 161/176/166 158/173/163
f 158/173/163 161/176/166 162/177/167
f 162/177/167 163/178/168 158/173/163
f 159/174/164 164/179/169 160/175/165
f 162/177/167 165/180/170 163/178/168
s 20
f 166/181/171 167/182/172 168/183/173
f 168/183/173 169/184/174 166/181/171
f 166/181/171 170/185/175 171/186/176
f 171/186/176 167/182/172 166/181/171
f 169/184/174 168/183/173 172/187/177
f 171/186/176 170/185/175 173/188/178
s 21
f 174/189/179 175/190/180 176/191/181
f 176/191/181 177/192/182 174/189/179
f 174/189/179 177/192/182 178/193/183
f 178/193/183 179/194/184 174/189/179
f 175/190/180 180/195/185 176/191/181
f 178/193/183 181/196/186 179/194/184
s 22
f 182/197/187 183/198/188 184/199/189
f 184/199/189 185/200/190 182/197/187
f 182/197/187 186/201/191 187/202/192
f 187/202/192 183/198/188 182/197/187
f 185/200/190 184/199/189 188/203/193
f 187/202/192 186/201/191 189/204/194
s 23
f 190/205/195 191/206/196 192/207/197
f 192/207/197 193/208/198 190/205/195
f 190/205/195 193/208/198 194/209/199
f 194/209/199 195/210/200 190/205/195
f 191/206/196 196/211/201 192/207/197
f 194/209/199 197/212/202 195/210/200
s 24
f 198/213/203 199/214/204 200/215/205
f 200/215/205 201/216/206 198/213/203
f 198/213/203 202/217/207 203/218/208
f 203/218/208 199/214/204 198/213/203
f 201/216/206 200/215/205 204/219/209
f 203/218/208 202/217/207 205/220/210
s 25
f 206/221/211 207/222/212 208/223/213
f 208/223/213 209/224/214 206/221/211
f 206/221/211 209/224/214 210/225/215
f 210/225/215 211/226/216 206/221/211
f 207/222/212 212/227/217 208/223/213
f 210/225/215 213/228/218 211/226/216
s 26
f 214/229/219 215/230/220 216/231/221
f 216/231/221 217/232/222 214/229/219
f 214/229/219 218/233/223 219/234/224
f 219/234/224 215/230/220 214/229/219
f 217/232/222 216/231/221 220/235/225
f 219/234/224 218/233/223 221/236/226
s 27
f 222/237/227 223/238/228 224/239/229
f 224/239/229 225/240/230 222/237/227
f 222/237/227 225/240/230 226/241/231
f 226/241/231 227/242/232 222/237/227
f 223/238/228 228/243/233 224/239/229
f 226/241/231 229/244/234 227/242/232
s 28
f 230/245/235 231/246/236 232/247/237
f 232/247/237 233/248/238 230/245/235
f 230/245/235 234/249/239 235/250/240
f 235/250/240 231/246/236 230/245/235
f 233/248/238 232/247/237 236/251/241
f 235/250/240 234/249/239 237/252/242
