# Blender v3.3.0 OBJ File: ''
# www.blender.org
o ItemBlueberry.005
v 0.051386 -0.006873 -0.036723
v 0.051782 -0.021707 -0.040905
v 0.048184 -0.015319 -0.049218
v 0.043640 -0.005236 -0.049953
v 0.040812 0.002636 -0.042679
v 0.041356 0.003684 -0.031658
v 0.044954 -0.002704 -0.023346
v 0.049498 -0.012787 -0.022611
v 0.052326 -0.020659 -0.029884
v 0.037222 -0.023095 -0.053510
v 0.042311 -0.032130 -0.041755
v 0.030796 -0.008835 -0.054550
v 0.026796 0.002296 -0.044263
v 0.027566 0.003779 -0.028678
v 0.032655 -0.005256 -0.016922
v 0.039081 -0.019515 -0.015883
v 0.043081 -0.030647 -0.026169
v 0.024923 -0.025646 -0.047086
v 0.028521 -0.032035 -0.038774
v 0.020379 -0.015563 -0.047821
v 0.017551 -0.007692 -0.040548
v 0.018095 -0.006643 -0.029527
v 0.021693 -0.013032 -0.021214
v 0.026237 -0.023115 -0.020480
v 0.029066 -0.030986 -0.027753
v 0.018491 -0.021478 -0.033709
v -0.008684 -0.008180 -0.033014
v -0.012641 -0.023015 -0.031605
v -0.018654 -0.016626 -0.024831
v -0.017400 -0.006543 -0.020402
v -0.009612 0.001328 -0.020913
v 0.000146 0.002377 -0.026064
v 0.006159 -0.004012 -0.032838
v 0.004905 -0.014095 -0.037267
v -0.002883 -0.021966 -0.036756
v -0.017912 -0.024403 -0.013083
v -0.009408 -0.033437 -0.022663
v -0.016138 -0.010143 -0.006819
v -0.005125 0.000989 -0.007542
v 0.008675 0.002471 -0.014826
v 0.017179 -0.006563 -0.024406
v 0.015405 -0.020823 -0.030670
v 0.004392 -0.031954 -0.029947
v -0.006892 -0.026954 -0.004651
v -0.000879 -0.033342 -0.011425
v -0.005637 -0.016871 -0.000222
v 0.002150 -0.008999 -0.000733
v 0.011908 -0.007951 -0.005884
v 0.017921 -0.014339 -0.012658
v 0.016667 -0.024422 -0.017086
v 0.008880 -0.032294 -0.016576
v 0.007951 -0.022785 -0.004475
v 0.053033 0.000675 0.001665
v 0.050264 -0.009068 -0.009959
v 0.041253 -0.003082 -0.007545
v 0.037734 0.002556 0.001325
v 0.041769 0.004545 0.011455
v 0.050994 0.001719 0.016912
v 0.060005 -0.004267 0.014498
v 0.063524 -0.009906 0.005627
v 0.059489 -0.011894 -0.004503
v 0.031566 -0.013338 -0.007737
v 0.044310 -0.021802 -0.011151
v 0.026590 -0.005363 0.004807
v 0.032295 -0.002551 0.019133
v 0.045341 -0.006548 0.026850
v 0.058085 -0.015013 0.023436
v 0.063062 -0.022987 0.010891
v 0.057356 -0.025800 -0.003435
v 0.029646 -0.024084 0.001200
v 0.038657 -0.030069 -0.001214
v 0.026127 -0.018445 0.010071
v 0.030162 -0.016456 0.020201
v 0.039387 -0.019283 0.025657
v 0.048398 -0.025268 0.023243
v 0.051917 -0.030907 0.014373
v 0.047882 -0.032896 0.004243
v 0.036618 -0.029025 0.014033
v -0.017974 -0.000933 0.027054
v -0.028016 -0.004972 0.016074
v -0.029415 -0.011101 0.025202
v -0.023080 -0.013771 0.033897
v -0.012722 -0.011417 0.037065
v -0.004409 -0.005418 0.032851
v -0.003011 0.000712 0.023722
v -0.009345 0.003381 0.015027
v -0.019703 0.001027 0.011859
v -0.030631 -0.023836 0.019253
v -0.028653 -0.015168 0.006343
v -0.021672 -0.027611 0.031549
v -0.007024 -0.024282 0.036029
v 0.004732 -0.015798 0.030068
v 0.006710 -0.007130 0.017159
v -0.002249 -0.003354 0.004862
v -0.016897 -0.006684 0.000382
v -0.020910 -0.031677 0.012690
v -0.019512 -0.025548 0.003561
v -0.014576 -0.034347 0.021384
v -0.004218 -0.031993 0.024552
v 0.004095 -0.025994 0.020338
v 0.005494 -0.019864 0.011209
v -0.000841 -0.017195 0.002514
v -0.011199 -0.019549 -0.000654
v -0.005947 -0.030032 0.009358
v -0.002532 -0.006873 -0.070112
v -0.006469 -0.021707 -0.071577
v -0.015430 -0.015319 -0.070253
v -0.017316 -0.005236 -0.066054
v -0.011022 0.002636 -0.061439
v -0.000236 0.003684 -0.059113
v 0.008725 -0.002704 -0.060437
v 0.010611 -0.012787 -0.064636
v 0.004317 -0.020659 -0.069250
v -0.022413 -0.023095 -0.060776
v -0.009741 -0.032130 -0.062648
v -0.025080 -0.008835 -0.054837
v -0.016180 0.002296 -0.048312
v -0.000926 0.003779 -0.045022
v 0.011747 -0.005256 -0.046894
v 0.014414 -0.019515 -0.052832
v 0.005513 -0.030647 -0.059358
v -0.019391 -0.025646 -0.047233
v -0.010431 -0.032035 -0.048557
v -0.021277 -0.015563 -0.043034
v -0.014984 -0.007692 -0.038420
v -0.004197 -0.006643 -0.036093
v 0.004763 -0.013032 -0.037417
v 0.006649 -0.023115 -0.041616
v 0.000356 -0.030986 -0.046230
v -0.008134 -0.021478 -0.037557
v -0.044430 -0.000905 -0.034069
v -0.050522 -0.013600 -0.040347
v -0.054153 -0.012148 -0.029976
v -0.050500 -0.006611 -0.021096
v -0.041703 -0.000232 -0.018909
v -0.032915 0.003252 -0.024697
v -0.029284 0.001799 -0.035068
v -0.032937 -0.003738 -0.043948
v -0.041734 -0.010117 -0.046135
v -0.052757 -0.025345 -0.025186
v -0.047622 -0.027399 -0.039853
v -0.047591 -0.017514 -0.012628
v -0.035150 -0.008493 -0.009536
v -0.022722 -0.003567 -0.017721
v -0.017587 -0.005620 -0.032388
v -0.022753 -0.013451 -0.044946
v -0.035194 -0.022472 -0.048038
v -0.041060 -0.032765 -0.022506
v -0.037429 -0.034217 -0.032877
v -0.037407 -0.027228 -0.013626
v -0.028610 -0.020849 -0.011439
v -0.019822 -0.017365 -0.017227
v -0.016191 -0.018817 -0.027598
v -0.019844 -0.024355 -0.036478
v -0.028641 -0.030733 -0.038665
v -0.025914 -0.030061 -0.023505
v -0.061102 -0.006601 0.001388
v -0.062779 -0.021177 -0.003349
v -0.063524 -0.020463 0.007687
v -0.060167 -0.013153 0.015313
v -0.054675 -0.003529 0.015061
v -0.050264 0.002772 0.007079
v -0.049520 0.002059 -0.003957
v -0.052877 -0.005252 -0.011582
v -0.058369 -0.014876 -0.011330
v -0.055366 -0.031408 0.011251
v -0.054313 -0.032417 -0.004356
v -0.050618 -0.021070 0.022035
v -0.042851 -0.007459 0.021679
v -0.036614 0.001452 0.010392
v -0.035561 0.000442 -0.005216
v -0.040308 -0.009896 -0.016000
v -0.048076 -0.023506 -0.015644
v -0.041407 -0.033024 0.009992
v -0.040662 -0.033738 -0.001044
v -0.038050 -0.025714 0.017617
v -0.032557 -0.016090 0.017366
v -0.028147 -0.009789 0.009384
v -0.027403 -0.010503 -0.001652
v -0.030760 -0.017813 -0.009277
v -0.036252 -0.027437 -0.009026
v -0.029824 -0.024365 0.004647
v 0.030351 -0.002621 0.046944
v 0.027768 0.003994 0.033259
v 0.018765 0.004522 0.039702
v 0.015087 -0.001116 0.048508
v 0.018889 -0.009618 0.054518
v 0.027944 -0.016004 0.054211
v 0.036947 -0.016532 0.047768
v 0.040625 -0.010894 0.038962
v 0.036823 -0.002392 0.032952
v 0.008976 0.000712 0.030284
v 0.021708 -0.000035 0.021172
v 0.003774 -0.007262 0.042737
v 0.009151 -0.019285 0.051236
v 0.021956 -0.028315 0.050803
v 0.034689 -0.029062 0.041691
v 0.039891 -0.021089 0.029238
v 0.034514 -0.009065 0.020738
v 0.006717 -0.011819 0.024207
v 0.015721 -0.012347 0.017764
v 0.003039 -0.017457 0.033013
v 0.006841 -0.025959 0.039022
v 0.015896 -0.032344 0.038716
v 0.024900 -0.032873 0.032273
v 0.028578 -0.027234 0.023467
v 0.024776 -0.018732 0.017457
v 0.013313 -0.025730 0.025031
v 0.011466 0.022321 0.018702
v 0.021195 0.028935 0.008737
v 0.010753 0.029464 0.005058
v 0.001430 0.023825 0.007096
v -0.001312 0.015324 0.013657
v 0.004133 0.008938 0.020899
v 0.014575 0.008410 0.024578
v 0.023897 0.014048 0.022540
v 0.026640 0.022550 0.015979
v 0.012852 0.025654 -0.008363
v 0.027620 0.024907 -0.003160
v -0.000332 0.017680 -0.005481
v -0.004210 0.005656 0.003798
v 0.003490 -0.003374 0.014039
v 0.018258 -0.004121 0.019243
v 0.031442 0.003853 0.016361
v 0.035320 0.015876 0.007081
v 0.016535 0.013123 -0.013699
v 0.026977 0.012595 -0.010019
v 0.007212 0.007485 -0.011661
v 0.004470 -0.001017 -0.005099
v 0.009915 -0.007402 0.002142
v 0.020357 -0.007931 0.005821
v 0.029680 -0.002293 0.003784
v 0.032422 0.006209 -0.002778
v 0.019644 -0.000788 -0.007823
v 0.019314 0.021276 -0.048810
v 0.015890 0.006442 -0.051244
v 0.006892 0.012830 -0.052284
v 0.003983 0.022913 -0.048716
v 0.008868 0.030784 -0.042630
v 0.018685 0.031833 -0.037591
v 0.027683 0.025444 -0.036551
v 0.030591 0.015361 -0.040119
v 0.025706 0.007490 -0.046205
v -0.002306 0.005054 -0.044937
v 0.010419 -0.003981 -0.043466
v -0.006419 0.019313 -0.039892
v 0.000489 0.030445 -0.031285
v 0.014372 0.031928 -0.024159
v 0.027096 0.022893 -0.022688
v 0.031210 0.008633 -0.027733
v 0.024301 -0.002498 -0.036340
v -0.002893 0.002502 -0.031074
v 0.006105 -0.003886 -0.030034
v -0.005801 0.012586 -0.027506
v -0.000916 0.020457 -0.021420
v 0.008900 0.021505 -0.016381
v 0.017898 0.015117 -0.015341
v 0.020807 0.005034 -0.018909
v 0.015922 -0.002837 -0.024995
v 0.005476 0.006671 -0.018815
v -0.028797 0.023592 -0.033454
v -0.032754 0.008758 -0.032045
v -0.038767 0.015146 -0.025271
v -0.037513 0.025229 -0.020842
v -0.029726 0.033100 -0.021353
v -0.019968 0.034149 -0.026504
v -0.013954 0.027760 -0.033278
v -0.015209 0.017677 -0.037707
v -0.022996 0.009806 -0.037196
v -0.038025 0.007370 -0.013522
v -0.029521 -0.001665 -0.023102
v -0.036251 0.021629 -0.007259
v -0.025238 0.032761 -0.007981
v -0.011438 0.034244 -0.015266
v -0.002934 0.025209 -0.024846
v -0.004708 0.010949 -0.031109
v -0.015721 -0.000182 -0.030387
v -0.027005 0.004818 -0.005090
v -0.020992 -0.001570 -0.011864
v -0.025751 0.014902 -0.000662
v -0.017964 0.022773 -0.001172
v -0.008205 0.023821 -0.006323
v -0.002192 0.017433 -0.013097
v -0.003447 0.007350 -0.017526
v -0.011234 -0.000521 -0.017016
v -0.012163 0.008987 -0.004914
v -0.023928 0.034347 0.017112
v -0.024382 0.029031 0.031578
v -0.013995 0.029182 0.027712
v -0.009383 0.029260 0.017633
v -0.013249 0.029220 0.007245
v -0.023327 0.029084 0.002633
v -0.033714 0.028934 0.006499
v -0.038325 0.028856 0.016577
v -0.034460 0.028896 0.026966
v -0.009732 0.016465 0.032088
v -0.024421 0.016252 0.037555
v -0.003210 0.016575 0.017835
v -0.008677 0.016518 0.003144
v -0.022929 0.016327 -0.003379
v -0.037619 0.016114 0.002088
v -0.044140 0.016003 0.016342
v -0.038674 0.016061 0.031033
v -0.013637 0.003645 0.027678
v -0.024024 0.003494 0.031544
v -0.009025 0.003723 0.017599
v -0.012891 0.003683 0.007211
v -0.022969 0.003547 0.002599
v -0.033356 0.003397 0.006465
v -0.037967 0.003319 0.016544
v -0.034102 0.003359 0.026932
v -0.023422 -0.001768 0.017064
v -0.051636 -0.000933 0.042343
v -0.056097 -0.004972 0.028148
v -0.061222 -0.011101 0.035830
v -0.059156 -0.013771 0.046388
v -0.051107 -0.011417 0.053636
v -0.041792 -0.005418 0.053330
v -0.036667 0.000712 0.045647
v -0.038733 0.003381 0.035090
v -0.046782 0.001027 0.027842
v -0.059810 -0.023836 0.029924
v -0.052562 -0.015168 0.019060
v -0.056888 -0.027611 0.044855
v -0.045506 -0.024282 0.055105
v -0.032332 -0.015798 0.054672
v -0.025083 -0.007130 0.043807
v -0.028006 -0.003354 0.028877
v -0.039388 -0.006684 0.018626
v -0.048227 -0.031677 0.028084
v -0.043101 -0.025548 0.020402
v -0.046160 -0.034347 0.038641
v -0.038112 -0.031992 0.045890
v -0.028797 -0.025994 0.045583
v -0.023671 -0.019864 0.037901
v -0.025738 -0.017195 0.027343
v -0.033786 -0.019549 0.020095
v -0.033258 -0.030032 0.031388
v -0.016803 -0.002621 0.065251
v -0.005492 0.003994 0.057126
v -0.015136 0.004522 0.051689
v -0.024671 -0.001116 0.052078
v -0.028511 -0.009618 0.058063
v -0.024407 -0.016004 0.066140
v -0.014762 -0.016532 0.071577
v -0.005227 -0.010894 0.071189
v -0.001387 -0.002392 0.065203
v -0.010738 0.000712 0.038837
v 0.002902 -0.000035 0.046526
v -0.024222 -0.007262 0.039386
v -0.029653 -0.019285 0.047851
v -0.023848 -0.028315 0.059273
v -0.010209 -0.029062 0.066962
v 0.003276 -0.021089 0.066413
v 0.008706 -0.009065 0.057948
v -0.006185 -0.011819 0.034222
v 0.003460 -0.012347 0.039659
v -0.015720 -0.017457 0.034610
v -0.019559 -0.025959 0.040596
v -0.015455 -0.032344 0.048673
v -0.005810 -0.032872 0.054109
v 0.003725 -0.027234 0.053721
v 0.007565 -0.018732 0.047736
v -0.004143 -0.025730 0.040548
vt 0.792700 0.859200
vt 0.819300 0.924800
vt 0.765200 0.924400
vt 0.727200 0.885800
vt 0.727600 0.831600
vt 0.766100 0.793600
vt 0.820300 0.794000
vt 0.858300 0.832600
vt 0.857900 0.886700
vt 0.735600 0.994300
vt 0.847900 0.995100
vt 0.656800 0.914300
vt 0.657600 0.802000
vt 0.737600 0.723200
vt 0.849900 0.724100
vt 0.928700 0.804000
vt 0.927900 0.916300
vt 0.834700 0.512100
vt 0.806100 0.444200
vt 0.915100 0.443600
vt 0.887200 0.511800
vt 0.797700 0.549500
vt 0.729500 0.521700
vt 0.798000 0.602000
vt 0.730100 0.630600
vt 0.835400 0.639000
vt 0.807600 0.707200
vt 0.888000 0.638700
vt 0.916500 0.706600
vt 0.924900 0.601300
vt 0.993100 0.629100
vt 0.924600 0.548800
vt 0.992500 0.520200
vt 0.861300 0.575400
vt 0.792700 0.859200
vt 0.819300 0.924800
vt 0.765200 0.924400
vt 0.727200 0.885800
vt 0.727600 0.831600
vt 0.766100 0.793600
vt 0.820300 0.794000
vt 0.858300 0.832600
vt 0.857900 0.886700
vt 0.735600 0.994300
vt 0.847900 0.995100
vt 0.656800 0.914300
vt 0.657600 0.802000
vt 0.737600 0.723200
vt 0.849900 0.724100
vt 0.928700 0.804000
vt 0.927900 0.916300
vt 0.834700 0.512100
vt 0.806100 0.444200
vt 0.915100 0.443600
vt 0.887200 0.511800
vt 0.797700 0.549500
vt 0.729500 0.521700
vt 0.798000 0.602000
vt 0.730100 0.630600
vt 0.835400 0.639000
vt 0.807600 0.707200
vt 0.888000 0.638700
vt 0.916500 0.706600
vt 0.924900 0.601300
vt 0.993100 0.629100
vt 0.924600 0.548800
vt 0.992500 0.520200
vt 0.861300 0.575400
vt 0.792700 0.859200
vt 0.819300 0.924800
vt 0.765200 0.924400
vt 0.727200 0.885800
vt 0.727600 0.831600
vt 0.766100 0.793600
vt 0.820300 0.794000
vt 0.858300 0.832600
vt 0.857900 0.886700
vt 0.735600 0.994300
vt 0.847900 0.995100
vt 0.656800 0.914300
vt 0.657600 0.802000
vt 0.737600 0.723200
vt 0.849900 0.724100
vt 0.928700 0.804000
vt 0.927900 0.916300
vt 0.834700 0.512100
vt 0.806100 0.444200
vt 0.915100 0.443600
vt 0.887200 0.511800
vt 0.797700 0.549500
vt 0.729500 0.521700
vt 0.798000 0.602000
vt 0.730100 0.630600
vt 0.835400 0.639000
vt 0.807600 0.707200
vt 0.888000 0.638700
vt 0.916500 0.706600
vt 0.924900 0.601300
vt 0.993100 0.629100
vt 0.924600 0.548800
vt 0.992500 0.520200
vt 0.861300 0.575400
vt 0.792700 0.859200
vt 0.819300 0.924800
vt 0.765200 0.924400
vt 0.727200 0.885800
vt 0.727600 0.831600
vt 0.766100 0.793600
vt 0.820300 0.794000
vt 0.858300 0.832600
vt 0.857900 0.886700
vt 0.735600 0.994300
vt 0.847900 0.995100
vt 0.656800 0.914300
vt 0.657600 0.802000
vt 0.737600 0.723200
vt 0.849900 0.724100
vt 0.928700 0.804000
vt 0.927900 0.916300
vt 0.834700 0.512100
vt 0.806100 0.444200
vt 0.915100 0.443600
vt 0.887200 0.511800
vt 0.797700 0.549500
vt 0.729500 0.521700
vt 0.798000 0.602000
vt 0.730100 0.630600
vt 0.835400 0.639000
vt 0.807600 0.707200
vt 0.888000 0.638700
vt 0.916500 0.706600
vt 0.924900 0.601300
vt 0.993100 0.629100
vt 0.924600 0.548800
vt 0.992500 0.520200
vt 0.861300 0.575400
vt 0.792700 0.859200
vt 0.819300 0.924800
vt 0.765200 0.924400
vt 0.727200 0.885800
vt 0.727600 0.831600
vt 0.766100 0.793600
vt 0.820300 0.794000
vt 0.858300 0.832600
vt 0.857900 0.886700
vt 0.735600 0.994300
vt 0.847900 0.995100
vt 0.656800 0.914300
vt 0.657600 0.802000
vt 0.737600 0.723200
vt 0.849900 0.724100
vt 0.928700 0.804000
vt 0.927900 0.916300
vt 0.834700 0.512100
vt 0.806100 0.444200
vt 0.915100 0.443600
vt 0.887200 0.511800
vt 0.797700 0.549500
vt 0.729500 0.521700
vt 0.798000 0.602000
vt 0.730100 0.630600
vt 0.835400 0.639000
vt 0.807600 0.707200
vt 0.888000 0.638700
vt 0.916500 0.706600
vt 0.924900 0.601300
vt 0.993100 0.629100
vt 0.924600 0.548800
vt 0.992500 0.520200
vt 0.861300 0.575400
vt 0.792700 0.859200
vt 0.819300 0.924800
vt 0.765200 0.924400
vt 0.727200 0.885800
vt 0.727600 0.831600
vt 0.766100 0.793600
vt 0.820300 0.794000
vt 0.858300 0.832600
vt 0.857900 0.886700
vt 0.735600 0.994300
vt 0.847900 0.995100
vt 0.656800 0.914300
vt 0.657600 0.802000
vt 0.737600 0.723200
vt 0.849900 0.724100
vt 0.928700 0.804000
vt 0.927900 0.916300
vt 0.834700 0.512100
vt 0.806100 0.444200
vt 0.915100 0.443600
vt 0.887200 0.511800
vt 0.797700 0.549500
vt 0.729500 0.521700
vt 0.798000 0.602000
vt 0.730100 0.630600
vt 0.835400 0.639000
vt 0.807600 0.707200
vt 0.888000 0.638700
vt 0.916500 0.706600
vt 0.924900 0.601300
vt 0.993100 0.629100
vt 0.924600 0.548800
vt 0.992500 0.520200
vt 0.861300 0.575400
vt 0.792700 0.859200
vt 0.819300 0.924800
vt 0.765200 0.924400
vt 0.727200 0.885800
vt 0.727600 0.831600
vt 0.766100 0.793600
vt 0.820300 0.794000
vt 0.858300 0.832600
vt 0.857900 0.886700
vt 0.735600 0.994300
vt 0.847900 0.995100
vt 0.656800 0.914300
vt 0.657600 0.802000
vt 0.737600 0.723200
vt 0.849900 0.724100
vt 0.928700 0.804000
vt 0.927900 0.916300
vt 0.834700 0.512100
vt 0.806100 0.444200
vt 0.915100 0.443600
vt 0.887200 0.511800
vt 0.797700 0.549500
vt 0.729500 0.521700
vt 0.798000 0.602000
vt 0.730100 0.630600
vt 0.835400 0.639000
vt 0.807600 0.707200
vt 0.888000 0.638700
vt 0.916500 0.706600
vt 0.924900 0.601300
vt 0.993100 0.629100
vt 0.924600 0.548800
vt 0.992500 0.520200
vt 0.861300 0.575400
vt 0.792700 0.859200
vt 0.819300 0.924800
vt 0.765200 0.924400
vt 0.727200 0.885800
vt 0.727600 0.831600
vt 0.766100 0.793600
vt 0.820300 0.794000
vt 0.858300 0.832600
vt 0.857900 0.886700
vt 0.735600 0.994300
vt 0.847900 0.995100
vt 0.656800 0.914300
vt 0.657600 0.802000
vt 0.737600 0.723200
vt 0.849900 0.724100
vt 0.928700 0.804000
vt 0.927900 0.916300
vt 0.834700 0.512100
vt 0.806100 0.444200
vt 0.915100 0.443600
vt 0.887200 0.511800
vt 0.797700 0.549500
vt 0.729500 0.521700
vt 0.798000 0.602000
vt 0.730100 0.630600
vt 0.835400 0.639000
vt 0.807600 0.707200
vt 0.888000 0.638700
vt 0.916500 0.706600
vt 0.924900 0.601300
vt 0.993100 0.629100
vt 0.924600 0.548800
vt 0.992500 0.520200
vt 0.861300 0.575400
vt 0.792700 0.859200
vt 0.819300 0.924800
vt 0.765200 0.924400
vt 0.727200 0.885800
vt 0.727600 0.831600
vt 0.766100 0.793600
vt 0.820300 0.794000
vt 0.858300 0.832600
vt 0.857900 0.886700
vt 0.735600 0.994300
vt 0.847900 0.995100
vt 0.656800 0.914300
vt 0.657600 0.802000
vt 0.737600 0.723200
vt 0.849900 0.724100
vt 0.928700 0.804000
vt 0.927900 0.916300
vt 0.834700 0.512100
vt 0.806100 0.444200
vt 0.915100 0.443600
vt 0.887200 0.511800
vt 0.797700 0.549500
vt 0.729500 0.521700
vt 0.798000 0.602000
vt 0.730100 0.630600
vt 0.835400 0.639000
vt 0.807600 0.707200
vt 0.888000 0.638700
vt 0.916500 0.706600
vt 0.924900 0.601300
vt 0.993100 0.629100
vt 0.924600 0.548800
vt 0.992500 0.520200
vt 0.861300 0.575400
vt 0.792700 0.859200
vt 0.819300 0.924800
vt 0.765200 0.924400
vt 0.727200 0.885800
vt 0.727600 0.831600
vt 0.766100 0.793600
vt 0.820300 0.794000
vt 0.858300 0.832600
vt 0.857900 0.886700
vt 0.735600 0.994300
vt 0.847900 0.995100
vt 0.656800 0.914300
vt 0.657600 0.802000
vt 0.737600 0.723200
vt 0.849900 0.724100
vt 0.928700 0.804000
vt 0.927900 0.916300
vt 0.834700 0.512100
vt 0.806100 0.444200
vt 0.915100 0.443600
vt 0.887200 0.511800
vt 0.797700 0.549500
vt 0.729500 0.521700
vt 0.798000 0.602000
vt 0.730100 0.630600
vt 0.835400 0.639000
vt 0.807600 0.707200
vt 0.888000 0.638700
vt 0.916500 0.706600
vt 0.924900 0.601300
vt 0.993100 0.629100
vt 0.924600 0.548800
vt 0.992500 0.520200
vt 0.861300 0.575400
vt 0.792700 0.859200
vt 0.819300 0.924800
vt 0.765200 0.924400
vt 0.727200 0.885800
vt 0.727600 0.831600
vt 0.766100 0.793600
vt 0.820300 0.794000
vt 0.858300 0.832600
vt 0.857900 0.886700
vt 0.735600 0.994300
vt 0.847900 0.995100
vt 0.656800 0.914300
vt 0.657600 0.802000
vt 0.737600 0.723200
vt 0.849900 0.724100
vt 0.928700 0.804000
vt 0.927900 0.916300
vt 0.834700 0.512100
vt 0.806100 0.444200
vt 0.915100 0.443600
vt 0.887200 0.511800
vt 0.797700 0.549500
vt 0.729500 0.521700
vt 0.798000 0.602000
vt 0.730100 0.630600
vt 0.835400 0.639000
vt 0.807600 0.707200
vt 0.888000 0.638700
vt 0.916500 0.706600
vt 0.924900 0.601300
vt 0.993100 0.629100
vt 0.924600 0.548800
vt 0.992500 0.520200
vt 0.861300 0.575400
vt 0.792700 0.859200
vt 0.819300 0.924800
vt 0.765200 0.924400
vt 0.727200 0.885800
vt 0.727600 0.831600
vt 0.766100 0.793600
vt 0.820300 0.794000
vt 0.858300 0.832600
vt 0.857900 0.886700
vt 0.735600 0.994300
vt 0.847900 0.995100
vt 0.656800 0.914300
vt 0.657600 0.802000
vt 0.737600 0.723200
vt 0.849900 0.724100
vt 0.928700 0.804000
vt 0.927900 0.916300
vt 0.834700 0.512100
vt 0.806100 0.444200
vt 0.915100 0.443600
vt 0.887200 0.511800
vt 0.797700 0.549500
vt 0.729500 0.521700
vt 0.798000 0.602000
vt 0.730100 0.630600
vt 0.835400 0.639000
vt 0.807600 0.707200
vt 0.888000 0.638700
vt 0.916500 0.706600
vt 0.924900 0.601300
vt 0.993100 0.629100
vt 0.924600 0.548800
vt 0.992500 0.520200
vt 0.861300 0.575400
vt 0.792700 0.859200
vt 0.819300 0.924800
vt 0.765200 0.924400
vt 0.727200 0.885800
vt 0.727600 0.831600
vt 0.766100 0.793600
vt 0.820300 0.794000
vt 0.858300 0.832600
vt 0.857900 0.886700
vt 0.735600 0.994300
vt 0.847900 0.995100
vt 0.656800 0.914300
vt 0.657600 0.802000
vt 0.737600 0.723200
vt 0.849900 0.724100
vt 0.928700 0.804000
vt 0.927900 0.916300
vt 0.834700 0.512100
vt 0.806100 0.444200
vt 0.915100 0.443600
vt 0.887200 0.511800
vt 0.797700 0.549500
vt 0.729500 0.521700
vt 0.798000 0.602000
vt 0.730100 0.630600
vt 0.835400 0.639000
vt 0.807600 0.707200
vt 0.888000 0.638700
vt 0.916500 0.706600
vt 0.924900 0.601300
vt 0.993100 0.629100
vt 0.924600 0.548800
vt 0.992500 0.520200
vt 0.861300 0.575400
vt 0.792700 0.859200
vt 0.819300 0.924800
vt 0.765200 0.924400
vt 0.727200 0.885800
vt 0.727600 0.831600
vt 0.766100 0.793600
vt 0.820300 0.794000
vt 0.858300 0.832600
vt 0.857900 0.886700
vt 0.735600 0.994300
vt 0.847900 0.995100
vt 0.656800 0.914300
vt 0.657600 0.802000
vt 0.737600 0.723200
vt 0.849900 0.724100
vt 0.928700 0.804000
vt 0.927900 0.916300
vt 0.834700 0.512100
vt 0.806100 0.444200
vt 0.915100 0.443600
vt 0.887200 0.511800
vt 0.797700 0.549500
vt 0.729500 0.521700
vt 0.798000 0.602000
vt 0.730100 0.630600
vt 0.835400 0.639000
vt 0.807600 0.707200
vt 0.888000 0.638700
vt 0.916500 0.706600
vt 0.924900 0.601300
vt 0.993100 0.629100
vt 0.924600 0.548800
vt 0.992500 0.520200
vt 0.861300 0.575400
vn 0.9108 0.4044 -0.0834
vn 0.8911 -0.3508 -0.2878
vn 0.7122 -0.0332 -0.7012
vn 0.4862 0.4683 -0.7378
vn 0.3455 0.8598 -0.3761
vn 0.3726 0.9119 0.1721
vn 0.5515 0.5942 0.5854
vn 0.7775 0.0928 0.6220
vn 0.9182 -0.2987 0.2603
vn 0.1115 -0.4355 -0.8932
vn 0.3600 -0.8766 -0.3193
vn -0.2023 0.2607 -0.9440
vn -0.3976 0.8042 -0.4417
vn -0.3600 0.8766 0.3193
vn -0.1115 0.4355 0.8933
vn 0.2023 -0.2607 0.9440
vn 0.3976 -0.8042 0.4418
vn -0.5515 -0.5942 -0.5855
vn -0.3726 -0.9119 -0.1720
vn -0.7775 -0.0928 -0.6220
vn -0.9182 0.2987 -0.2603
vn -0.8911 0.3509 0.2878
vn -0.7121 0.0331 0.7013
vn -0.4862 -0.4683 0.7378
vn -0.3455 -0.8598 0.3761
vn -0.9108 -0.4044 0.0835
vn -0.4606 0.4044 -0.7902
vn -0.6375 -0.3509 -0.6860
vn -0.9365 -0.0331 -0.3491
vn -0.8741 0.4683 -0.1288
vn -0.4868 0.8598 -0.1542
vn -0.0015 0.9119 -0.4103
vn 0.2975 0.5942 -0.7473
vn 0.2351 0.0927 -0.9675
vn -0.1522 -0.2987 -0.9421
vn -0.8567 -0.4355 0.2764
vn -0.4414 -0.8766 -0.1913
vn -0.7700 0.2607 0.5823
vn -0.2323 0.8043 0.5470
vn 0.4415 0.8766 0.1913
vn 0.8567 0.4355 -0.2764
vn 0.7700 -0.2607 -0.5823
vn 0.2323 -0.8042 -0.5470
vn -0.2975 -0.5942 0.7473
vn 0.0015 -0.9119 0.4104
vn -0.2351 -0.0928 0.9675
vn 0.1522 0.2987 0.9421
vn 0.6375 0.3509 0.6859
vn 0.9365 0.0332 0.3491
vn 0.8741 -0.4683 0.1289
vn 0.4868 -0.8598 0.1542
vn 0.4606 -0.4044 0.7902
vn 0.4545 0.8223 -0.3424
vn 0.2971 0.3022 -0.9057
vn -0.1510 0.5999 -0.7857
vn -0.3260 0.8803 -0.3445
vn -0.1254 0.9792 0.1592
vn 0.3334 0.8387 0.4306
vn 0.7816 0.5410 0.3106
vn 0.9566 0.2606 -0.1306
vn 0.7559 0.1617 -0.6344
vn -0.6474 0.0409 -0.7610
vn -0.0252 -0.3724 -0.9277
vn -0.8904 0.4303 -0.1485
vn -0.6118 0.5676 0.5509
vn 0.0251 0.3724 0.9277
vn 0.6474 -0.0409 0.7610
vn 0.8904 -0.4302 0.1485
vn 0.6118 -0.5676 -0.5510
vn -0.7816 -0.5410 -0.3106
vn -0.3334 -0.8387 -0.4307
vn -0.9566 -0.2606 0.1306
vn -0.7559 -0.1617 0.6344
vn -0.2971 -0.3023 0.9057
vn 0.1510 -0.5999 0.7857
vn 0.3260 -0.8803 0.3446
vn 0.1253 -0.9793 -0.1592
vn -0.4545 -0.8223 0.3424
vn -0.3330 0.8057 0.4900
vn -0.8180 0.5700 -0.0773
vn -0.8876 0.2651 0.3767
vn -0.5725 0.1324 0.8091
vn -0.0574 0.2494 0.9667
vn 0.3560 0.5478 0.7571
vn 0.4256 0.8527 0.3031
vn 0.1105 0.9854 -0.1294
vn -0.4046 0.8683 -0.2869
vn -0.9116 -0.4079 0.0511
vn -0.8150 0.0154 -0.5792
vn -0.4742 -0.5922 0.6515
vn 0.2410 -0.4296 0.8703
vn 0.8150 -0.0154 0.5792
vn 0.9116 0.4079 -0.0511
vn 0.4742 0.5922 -0.6515
vn -0.2410 0.4296 -0.8702
vn -0.4256 -0.8527 -0.3031
vn -0.3560 -0.5479 -0.7570
vn -0.1106 -0.9854 0.1293
vn 0.4046 -0.8684 0.2869
vn 0.8180 -0.5700 0.0773
vn 0.8876 -0.2651 -0.3767
vn 0.5725 -0.1324 -0.8091
vn 0.0574 -0.2495 -0.9667
vn 0.3330 -0.8057 -0.4899
vn 0.1551 0.4044 -0.9013
vn -0.0474 -0.3508 -0.9352
vn -0.4930 -0.0332 -0.8694
vn -0.5868 0.4683 -0.6606
vn -0.2738 0.8598 -0.4311
vn 0.2626 0.9119 -0.3154
vn 0.7082 0.5942 -0.3812
vn 0.8020 0.0927 -0.5901
vn 0.4890 -0.2987 -0.8195
vn -0.8340 -0.4355 -0.3389
vn -0.2152 -0.8766 -0.4303
vn -0.9642 0.2607 -0.0489
vn -0.5296 0.8042 0.2697
vn 0.2152 0.8767 0.4303
vn 0.8339 0.4355 0.3389
vn 0.9642 -0.2607 0.0490
vn 0.5296 -0.8042 -0.2697
vn -0.7083 -0.5942 0.3812
vn -0.2626 -0.9119 0.3154
vn -0.8020 -0.0928 0.5900
vn -0.4891 0.2987 0.8195
vn 0.0474 0.3509 0.9352
vn 0.4930 0.0332 0.8694
vn 0.5868 -0.4683 0.6606
vn 0.2739 -0.8598 0.4311
vn -0.1551 -0.4044 0.9014
vn -0.5126 0.8072 -0.2925
vn -0.7935 0.1410 -0.5921
vn -0.9740 0.2132 -0.0763
vn -0.7924 0.4886 0.3653
vn -0.3549 0.8058 0.4741
vn 0.0822 0.9791 0.1862
vn 0.2627 0.9068 -0.3296
vn 0.0811 0.6315 -0.7711
vn -0.3564 0.3142 -0.8799
vn -0.8586 -0.4815 0.1758
vn -0.6079 -0.5818 -0.5403
vn -0.6064 -0.0992 0.7890
vn 0.0011 0.3413 0.9400
vn 0.6079 0.5818 0.5403
vn 0.8586 0.4816 -0.1758
vn 0.6063 0.0992 -0.7890
vn -0.0011 -0.3413 -0.9400
vn -0.2628 -0.9068 0.3295
vn -0.0822 -0.9791 -0.1863
vn -0.0811 -0.6315 0.7711
vn 0.3564 -0.3142 0.8799
vn 0.7935 -0.1409 0.5921
vn 0.9740 -0.2132 0.0763
vn 0.7924 -0.4886 -0.3653
vn 0.3548 -0.8058 -0.4741
vn 0.5126 -0.8073 0.2925
vn -0.8660 0.4918 -0.0902
vn -0.9120 -0.2543 -0.3219
vn -0.9490 -0.2188 0.2269
vn -0.7821 0.1447 0.6062
vn -0.5089 0.6234 0.5936
vn -0.2896 0.9367 0.1967
vn -0.2525 0.9012 -0.3521
vn -0.4195 0.5376 -0.7314
vn -0.6927 0.0590 -0.7188
vn -0.4835 -0.7776 0.4020
vn -0.4321 -0.8268 -0.3600
vn -0.2517 -0.2728 0.9286
vn 0.1275 0.3918 0.9112
vn 0.4321 0.8269 0.3600
vn 0.4835 0.7776 -0.4020
vn 0.2517 0.2728 -0.9286
vn -0.1276 -0.3918 -0.9112
vn 0.2525 -0.9012 0.3522
vn 0.2896 -0.9367 -0.1967
vn 0.4195 -0.5377 0.7314
vn 0.6926 -0.0591 0.7189
vn 0.9120 0.2543 0.3219
vn 0.9490 0.2188 -0.2270
vn 0.7821 -0.1447 -0.6062
vn 0.5089 -0.6234 -0.5937
vn 0.8660 -0.4918 0.0902
vn 0.4718 0.6398 0.6067
vn 0.3229 0.9411 -0.1001
vn -0.1249 0.9674 0.2203
vn -0.3078 0.6870 0.6582
vn -0.1187 0.2642 0.9571
vn 0.3316 -0.0534 0.9419
vn 0.7794 -0.0797 0.6215
vn 0.9623 0.2008 0.1835
vn 0.7732 0.6236 -0.1153
vn -0.6277 0.7269 -0.2785
vn -0.0061 0.6904 -0.7234
vn -0.8817 0.3376 0.3296
vn -0.6192 -0.2495 0.7445
vn 0.0060 -0.6904 0.7234
vn 0.6278 -0.7269 0.2785
vn 0.8817 -0.3376 -0.3295
vn 0.6192 0.2495 -0.7445
vn -0.7794 0.0797 -0.6215
vn -0.3316 0.0534 -0.9419
vn -0.9623 -0.2007 -0.1835
vn -0.7732 -0.6236 0.1154
vn -0.3229 -0.9411 0.1001
vn 0.1249 -0.9674 -0.2203
vn 0.3078 -0.6870 -0.6583
vn 0.1187 -0.2642 -0.9571
vn -0.4717 -0.6398 -0.6067
vn -0.2264 0.6398 0.7344
vn 0.2672 0.9411 0.2071
vn -0.2521 0.9674 0.0241
vn -0.7158 0.6870 0.1255
vn -0.8521 0.2642 0.4518
vn -0.5813 -0.0534 0.8119
vn -0.0620 -0.0796 0.9949
vn 0.4016 0.2007 0.8935
vn 0.5380 0.6235 0.5672
vn -0.1320 0.7269 -0.6739
vn 0.5891 0.6904 -0.4199
vn -0.7757 0.3376 -0.5332
vn -0.9650 -0.2495 -0.0802
vn -0.5891 -0.6904 0.4199
vn 0.1320 -0.7269 0.6740
vn 0.7757 -0.3375 0.5333
vn 0.9651 0.2495 0.0801
vn 0.0620 0.0797 -0.9949
vn 0.5814 0.0534 -0.8119
vn -0.4016 -0.2007 -0.8935
vn -0.5380 -0.6236 -0.5672
vn -0.2672 -0.9411 -0.2071
vn 0.2521 -0.9674 -0.0241
vn 0.7158 -0.6870 -0.1254
vn 0.8521 -0.2642 -0.4518
vn 0.2264 -0.6398 -0.7344
vn 0.3831 0.4044 -0.8305
vn 0.1963 -0.3508 -0.9156
vn -0.2512 -0.0332 -0.9674
vn -0.3959 0.4683 -0.7899
vn -0.1529 0.8598 -0.4873
vn 0.3353 0.9119 -0.2366
vn 0.7828 0.5942 -0.1849
vn 0.9274 0.0927 -0.3624
vn 0.6845 -0.2987 -0.6650
vn -0.7178 -0.4355 -0.5432
vn -0.0965 -0.8766 -0.4714
vn -0.9186 0.2607 -0.2968
vn -0.5813 0.8042 0.1234
vn 0.0965 0.8766 0.4714
vn 0.7178 0.4355 0.5432
vn 0.9186 -0.2607 0.2968
vn 0.5813 -0.8043 -0.1234
vn -0.7828 -0.5942 0.1849
vn -0.3353 -0.9119 0.2366
vn -0.9274 -0.0927 0.3623
vn -0.6845 0.2987 0.6650
vn -0.1963 0.3508 0.9156
vn 0.2512 0.0331 0.9674
vn 0.3959 -0.4683 0.7899
vn 0.1529 -0.8598 0.4873
vn -0.3831 -0.4044 0.8305
vn -0.6375 -0.3509 -0.6859
vn -0.9365 -0.0332 -0.3491
vn -0.4869 0.8598 -0.1542
vn -0.0016 0.9119 -0.4104
vn -0.4415 -0.8766 -0.1913
vn -0.7701 0.2607 0.5823
vn -0.2323 0.8042 0.5470
vn 0.7701 -0.2608 -0.5822
vn 0.0016 -0.9119 0.4104
vn -0.2352 -0.0927 0.9675
vn 0.1521 0.2987 0.9421
vn 0.6375 0.3508 0.6860
vn 0.9365 0.0331 0.3491
vn 0.8741 -0.4683 0.1288
vn 0.4869 -0.8598 0.1542
vn 0.4605 -0.4044 0.7902
vn -0.0140 0.9999 0.0013
vn -0.0360 0.6923 0.7207
vn 0.4806 0.6998 0.5284
vn 0.7100 0.7037 0.0272
vn 0.5177 0.7017 -0.4895
vn 0.0165 0.6950 -0.7188
vn -0.5001 0.6875 -0.5266
vn -0.7294 0.6836 -0.0254
vn -0.5372 0.6856 0.4913
vn 0.6808 0.0086 0.7324
vn -0.0364 -0.0018 0.9993
vn 0.9992 0.0139 0.0365
vn 0.7323 0.0112 -0.6809
vn 0.0364 0.0018 -0.9993
vn -0.6808 -0.0086 -0.7324
vn -0.9992 -0.0140 -0.0365
vn -0.7323 -0.0111 0.6809
vn 0.5001 -0.6875 0.5266
vn -0.0165 -0.6950 0.7188
vn 0.7294 -0.6836 0.0253
vn 0.5372 -0.6856 -0.4913
vn 0.0359 -0.6924 -0.7207
vn -0.4807 -0.6998 -0.5284
vn -0.7100 -0.7037 -0.0272
vn -0.5177 -0.7017 0.4895
vn 0.0140 -0.9999 -0.0013
vn -0.5088 0.8057 0.3033
vn -0.7087 0.5700 -0.4158
vn -0.9636 0.2652 -0.0337
vn -0.8608 0.1324 0.4914
vn -0.4606 0.2495 0.8519
vn 0.0027 0.5478 0.8366
vn 0.2576 0.8527 0.4545
vn 0.1549 0.9854 -0.0705
vn -0.2454 0.8683 -0.4310
vn -0.8478 -0.4079 -0.3389
vn -0.4939 0.0154 -0.8694
vn -0.7051 -0.5922 0.3901
vn -0.1494 -0.4296 0.8906
vn 0.4939 -0.0154 0.8694
vn 0.8478 0.4078 0.3389
vn 0.7051 0.5922 -0.3901
vn 0.1493 0.4296 -0.8906
vn -0.2576 -0.8527 -0.4545
vn -0.0027 -0.5478 -0.8366
vn -0.1548 -0.9854 0.0705
vn 0.2454 -0.8683 0.4310
vn 0.7087 -0.5700 0.4157
vn 0.9636 -0.2652 0.0337
vn 0.8608 -0.1324 -0.4914
vn 0.4606 -0.2495 -0.8518
vn 0.5088 -0.8057 -0.3033
vn -0.3505 0.6398 0.6840
vn 0.2272 0.9411 0.2503
vn -0.2525 0.9674 -0.0201
vn -0.7267 0.6870 -0.0008
vn -0.9176 0.2642 0.2969
vn -0.7135 -0.0534 0.6986
vn -0.2338 -0.0797 0.9690
vn 0.2404 0.2007 0.9497
vn 0.4313 0.6236 0.6520
vn -0.0129 0.7269 -0.6866
vn 0.6531 0.6904 -0.3112
vn -0.6713 0.3376 -0.6598
vn -0.9365 -0.2495 -0.2465
vn -0.6530 -0.6904 0.3112
vn 0.0129 -0.7269 0.6866
vn 0.6713 -0.3376 0.6598
vn 0.9365 0.2495 0.2465
vn 0.2338 0.0797 -0.9690
vn 0.7135 0.0534 -0.6986
vn -0.2404 -0.2007 -0.9497
vn -0.4313 -0.6236 -0.6520
vn -0.2272 -0.9411 -0.2503
vn 0.2525 -0.9674 0.0201
vn 0.7267 -0.6870 0.0008
vn 0.9177 -0.2641 -0.2969
vn 0.3505 -0.6398 -0.6839
s 1
f 1/1/1 2/2/2 3/3/3
f 1/1/1 3/3/3 4/4/4
f 1/1/1 4/4/4 5/5/5
f 1/1/1 5/5/5 6/6/6
f 1/1/1 6/6/6 7/7/7
f 1/1/1 7/7/7 8/8/8
f 1/1/1 8/8/8 9/9/9
f 1/1/1 9/9/9 2/2/2
f 10/10/10 3/3/3 2/2/2
f 2/2/2 11/11/11 10/10/10
f 12/12/12 4/4/4 3/3/3
f 3/3/3 10/10/10 12/12/12
f 13/13/13 5/5/5 4/4/4
f 4/4/4 12/12/12 13/13/13
f 14/14/14 6/6/6 5/5/5
f 5/5/5 13/13/13 14/14/14
f 15/15/15 7/7/7 6/6/6
f 6/6/6 14/14/14 15/15/15
f 16/16/16 8/8/8 7/7/7
f 7/7/7 15/15/15 16/16/16
f 17/17/17 9/9/9 8/8/8
f 8/8/8 16/16/16 17/17/17
f 11/11/11 2/2/2 9/9/9
f 9/9/9 17/17/17 11/11/11
f 18/18/18 10/19/10 11/20/11
f 11/20/11 19/21/19 18/18/18
f 20/22/20 12/23/12 10/19/10
f 10/19/10 18/18/18 20/22/20
f 21/24/21 13/25/13 12/23/12
f 12/23/12 20/22/20 21/24/21
f 22/26/22 14/27/14 13/25/13
f 13/25/13 21/24/21 22/26/22
f 23/28/23 15/29/15 14/27/14
f 14/27/14 22/26/22 23/28/23
f 24/30/24 16/31/16 15/29/15
f 15/29/15 23/28/23 24/30/24
f 25/32/25 17/33/17 16/31/16
f 16/31/16 24/30/24 25/32/25
f 19/21/19 11/20/11 17/33/17
f 17/33/17 25/32/25 19/21/19
f 26/34/26 18/18/18 19/21/19
f 26/34/26 20/22/20 18/18/18
f 26/34/26 21/24/21 20/22/20
f 26/34/26 22/26/22 21/24/21
f 26/34/26 23/28/23 22/26/22
f 26/34/26 24/30/24 23/28/23
f 26/34/26 25/32/25 24/30/24
f 26/34/26 19/21/19 25/32/25
s 2
f 27/35/27 28/36/28 29/37/29
f 27/35/27 29/37/29 30/38/30
f 27/35/27 30/38/30 31/39/31
f 27/35/27 31/39/31 32/40/32
f 27/35/27 32/40/32 33/41/33
f 27/35/27 33/41/33 34/42/34
f 27/35/27 34/42/34 35/43/35
f 27/35/27 35/43/35 28/36/28
f 36/44/36 29/37/29 28/36/28
f 28/36/28 37/45/37 36/44/36
f 38/46/38 30/38/30 29/37/29
f 29/37/29 36/44/36 38/46/38
f 39/47/39 31/39/31 30/38/30
f 30/38/30 38/46/38 39/47/39
f 40/48/40 32/40/32 31/39/31
f 31/39/31 39/47/39 40/48/40
f 41/49/41 33/41/33 32/40/32
f 32/40/32 40/48/40 41/49/41
f 42/50/42 34/42/34 33/41/33
f 33/41/33 41/49/41 42/50/42
f 43/51/43 35/43/35 34/42/34
f 34/42/34 42/50/42 43/51/43
f 37/45/37 28/36/28 35/43/35
f 35/43/35 43/51/43 37/45/37
f 44/52/44 36/53/36 37/54/37
f 37/54/37 45/55/45 44/52/44
f 46/56/46 38/57/38 36/53/36
f 36/53/36 44/52/44 46/56/46
f 47/58/47 39/59/39 38/57/38
f 38/57/38 46/56/46 47/58/47
f 48/60/48 40/61/40 39/59/39
f 39/59/39 47/58/47 48/60/48
f 49/62/49 41/63/41 40/61/40
f 40/61/40 48/60/48 49/62/49
f 50/64/50 42/65/42 41/63/41
f 41/63/41 49/62/49 50/64/50
f 51/66/51 43/67/43 42/65/42
f 42/65/42 50/64/50 51/66/51
f 45/55/45 37/54/37 43/67/43
f 43/67/43 51/66/51 45/55/45
f 52/68/52 44/52/44 45/55/45
f 52/68/52 46/56/46 44/52/44
f 52/68/52 47/58/47 46/56/46
f 52/68/52 48/60/48 47/58/47
f 52/68/52 49/62/49 48/60/48
f 52/68/52 50/64/50 49/62/49
f 52/68/52 51/66/51 50/64/50
f 52/68/52 45/55/45 51/66/51
s 3
f 53/69/53 54/70/54 55/71/55
f 53/69/53 55/71/55 56/72/56
f 53/69/53 56/72/56 57/73/57
f 53/69/53 57/73/57 58/74/58
f 53/69/53 58/74/58 59/75/59
f 53/69/53 59/75/59 60/76/60
f 53/69/53 60/76/60 61/77/61
f 53/69/53 61/77/61 54/70/54
f 62/78/62 55/71/55 54/70/54
f 54/70/54 63/79/63 62/78/62
f 64/80/64 56/72/56 55/71/55
f 55/71/55 62/78/62 64/80/64
f 65/81/65 57/73/57 56/72/56
f 56/72/56 64/80/64 65/81/65
f 66/82/66 58/74/58 57/73/57
f 57/73/57 65/81/65 66/82/66
f 67/83/67 59/75/59 58/74/58
f 58/74/58 66/82/66 67/83/67
f 68/84/68 60/76/60 59/75/59
f 59/75/59 67/83/67 68/84/68
f 69/85/69 61/77/61 60/76/60
f 60/76/60 68/84/68 69/85/69
f 63/79/63 54/70/54 61/77/61
f 61/77/61 69/85/69 63/79/63
f 70/86/70 62/87/62 63/88/63
f 63/88/63 71/89/71 70/86/70
f 72/90/72 64/91/64 62/87/62
f 62/87/62 70/86/70 72/90/72
f 73/92/73 65/93/65 64/91/64
f 64/91/64 72/90/72 73/92/73
f 74/94/74 66/95/66 65/93/65
f 65/93/65 73/92/73 74/94/74
f 75/96/75 67/97/67 66/95/66
f 66/95/66 74/94/74 75/96/75
f 76/98/76 68/99/68 67/97/67
f 67/97/67 75/96/75 76/98/76
f 77/100/77 69/101/69 68/99/68
f 68/99/68 76/98/76 77/100/77
f 71/89/71 63/88/63 69/101/69
f 69/101/69 77/100/77 71/89/71
f 78/102/78 70/86/70 71/89/71
f 78/102/78 72/90/72 70/86/70
f 78/102/78 73/92/73 72/90/72
f 78/102/78 74/94/74 73/92/73
f 78/102/78 75/96/75 74/94/74
f 78/102/78 76/98/76 75/96/75
f 78/102/78 77/100/77 76/98/76
f 78/102/78 71/89/71 77/100/77
s 4
f 79/103/79 80/104/80 81/105/81
f 79/103/79 81/105/81 82/106/82
f 79/103/79 82/106/82 83/107/83
f 79/103/79 83/107/83 84/108/84
f 79/103/79 84/108/84 85/109/85
f 79/103/79 85/109/85 86/110/86
f 79/103/79 86/110/86 87/111/87
f 79/103/79 87/111/87 80/104/80
f 88/112/88 81/105/81 80/104/80
f 80/104/80 89/113/89 88/112/88
f 90/114/90 82/106/82 81/105/81
f 81/105/81 88/112/88 90/114/90
f 91/115/91 83/107/83 82/106/82
f 82/106/82 90/114/90 91/115/91
f 92/116/92 84/108/84 83/107/83
f 83/107/83 91/115/91 92/116/92
f 93/117/93 85/109/85 84/108/84
f 84/108/84 92/116/92 93/117/93
f 94/118/94 86/110/86 85/109/85
f 85/109/85 93/117/93 94/118/94
f 95/119/95 87/111/87 86/110/86
f 86/110/86 94/118/94 95/119/95
f 89/113/89 80/104/80 87/111/87
f 87/111/87 95/119/95 89/113/89
f 96/120/96 88/121/88 89/122/89
f 89/122/89 97/123/97 96/120/96
f 98/124/98 90/125/90 88/121/88
f 88/121/88 96/120/96 98/124/98
f 99/126/99 91/127/91 90/125/90
f 90/125/90 98/124/98 99/126/99
f 100/128/100 92/129/92 91/127/91
f 91/127/91 99/126/99 100/128/100
f 101/130/101 93/131/93 92/129/92
f 92/129/92 100/128/100 101/130/101
f 102/132/102 94/133/94 93/131/93
f 93/131/93 101/130/101 102/132/102
f 103/134/103 95/135/95 94/133/94
f 94/133/94 102/132/102 103/134/103
f 97/123/97 89/122/89 95/135/95
f 95/135/95 103/134/103 97/123/97
f 104/136/104 96/120/96 97/123/97
f 104/136/104 98/124/98 96/120/96
f 104/136/104 99/126/99 98/124/98
f 104/136/104 100/128/100 99/126/99
f 104/136/104 101/130/101 100/128/100
f 104/136/104 102/132/102 101/130/101
f 104/136/104 103/134/103 102/132/102
f 104/136/104 97/123/97 103/134/103
s 5
f 105/137/105 106/138/106 107/139/107
f 105/137/105 107/139/107 108/140/108
f 105/137/105 108/140/108 109/141/109
f 105/137/105 109/141/109 110/142/110
f 105/137/105 110/142/110 111/143/111
f 105/137/105 111/143/111 112/144/112
f 105/137/105 112/144/112 113/145/113
f 105/137/105 113/145/113 106/138/106
f 114/146/114 107/139/107 106/138/106
f 106/138/106 115/147/115 114/146/114
f 116/148/116 108/140/108 107/139/107
f 107/139/107 114/146/114 116/148/116
f 117/149/117 109/141/109 108/140/108
f 108/140/108 116/148/116 117/149/117
f 118/150/118 110/142/110 109/141/109
f 109/141/109 117/149/117 118/150/118
f 119/151/119 111/143/111 110/142/110
f 110/142/110 118/150/118 119/151/119
f 120/152/120 112/144/112 111/143/111
f 111/143/111 119/151/119 120/152/120
f 121/153/121 113/145/113 112/144/112
f 112/144/112 120/152/120 121/153/121
f 115/147/115 106/138/106 113/145/113
f 113/145/113 121/153/121 115/147/115
f 122/154/122 114/155/114 115/156/115
f 115/156/115 123/157/123 122/154/122
f 124/158/124 116/159/116 114/155/114
f 114/155/114 122/154/122 124/158/124
f 125/160/125 117/161/117 116/159/116
f 116/159/116 124/158/124 125/160/125
f 126/162/126 118/163/118 117/161/117
f 117/161/117 125/160/125 126/162/126
f 127/164/127 119/165/119 118/163/118
f 118/163/118 126/162/126 127/164/127
f 128/166/128 120/167/120 119/165/119
f 119/165/119 127/164/127 128/166/128
f 129/168/129 121/169/121 120/167/120
f 120/167/120 128/166/128 129/168/129
f 123/157/123 115/156/115 121/169/121
f 121/169/121 129/168/129 123/157/123
f 130/170/130 122/154/122 123/157/123
f 130/170/130 124/158/124 122/154/122
f 130/170/130 125/160/125 124/158/124
f 130/170/130 126/162/126 125/160/125
f 130/170/130 127/164/127 126/162/126
f 130/170/130 128/166/128 127/164/127
f 130/170/130 129/168/129 128/166/128
f 130/170/130 123/157/123 129/168/129
s 6
f 131/171/131 132/172/132 133/173/133
f 131/171/131 133/173/133 134/174/134
f 131/171/131 134/174/134 135/175/135
f 131/171/131 135/175/135 136/176/136
f 131/171/131 136/176/136 137/177/137
f 131/171/131 137/177/137 138/178/138
f 131/171/131 138/178/138 139/179/139
f 131/171/131 139/179/139 132/172/132
f 140/180/140 133/173/133 132/172/132
f 132/172/132 141/181/141 140/180/140
f 142/182/142 134/174/134 133/173/133
f 133/173/133 140/180/140 142/182/142
f 143/183/143 135/175/135 134/174/134
f 134/174/134 142/182/142 143/183/143
f 144/184/144 136/176/136 135/175/135
f 135/175/135 143/183/143 144/184/144
f 145/185/145 137/177/137 136/176/136
f 136/176/136 144/184/144 145/185/145
f 146/186/146 138/178/138 137/177/137
f 137/177/137 145/185/145 146/186/146
f 147/187/147 139/179/139 138/178/138
f 138/178/138 146/186/146 147/187/147
f 141/181/141 132/172/132 139/179/139
f 139/179/139 147/187/147 141/181/141
f 148/188/148 140/189/140 141/190/141
f 141/190/141 149/191/149 148/188/148
f 150/192/150 142/193/142 140/189/140
f 140/189/140 148/188/148 150/192/150
f 151/194/151 143/195/143 142/193/142
f 142/193/142 150/192/150 151/194/151
f 152/196/152 144/197/144 143/195/143
f 143/195/143 151/194/151 152/196/152
f 153/198/153 145/199/145 144/197/144
f 144/197/144 152/196/152 153/198/153
f 154/200/154 146/201/146 145/199/145
f 145/199/145 153/198/153 154/200/154
f 155/202/155 147/203/147 146/201/146
f 146/201/146 154/200/154 155/202/155
f 149/191/149 141/190/141 147/203/147
f 147/203/147 155/202/155 149/191/149
f 156/204/156 148/188/148 149/191/149
f 156/204/156 150/192/150 148/188/148
f 156/204/156 151/194/151 150/192/150
f 156/204/156 152/196/152 151/194/151
f 156/204/156 153/198/153 152/196/152
f 156/204/156 154/200/154 153/198/153
f 156/204/156 155/202/155 154/200/154
f 156/204/156 149/191/149 155/202/155
s 7
f 157/205/157 158/206/158 159/207/159
f 157/205/157 159/207/159 160/208/160
f 157/205/157 160/208/160 161/209/161
f 157/205/157 161/209/161 162/210/162
f 157/205/157 162/210/162 163/211/163
f 157/205/157 163/211/163 164/212/164
f 157/205/157 164/212/164 165/213/165
f 157/205/157 165/213/165 158/206/158
f 166/214/166 159/207/159 158/206/158
f 158/206/158 167/215/167 166/214/166
f 168/216/168 160/208/160 159/207/159
f 159/207/159 166/214/166 168/216/168
f 169/217/169 161/209/161 160/208/160
f 160/208/160 168/216/168 169/217/169
f 170/218/170 162/210/162 161/209/161
f 161/209/161 169/217/169 170/218/170
f 171/219/171 163/211/163 162/210/162
f 162/210/162 170/218/170 171/219/171
f 172/220/172 164/212/164 163/211/163
f 163/211/163 171/219/171 172/220/172
f 173/221/173 165/213/165 164/212/164
f 164/212/164 172/220/172 173/221/173
f 167/215/167 158/206/158 165/213/165
f 165/213/165 173/221/173 167/215/167
f 174/222/174 166/223/166 167/224/167
f 167/224/167 175/225/175 174/222/174
f 176/226/176 168/227/168 166/223/166
f 166/223/166 174/222/174 176/226/176
f 177/228/177 169/229/169 168/227/168
f 168/227/168 176/226/176 177/228/177
f 178/230/178 170/231/170 169/229/169
f 169/229/169 177/228/177 178/230/178
f 179/232/179 171/233/171 170/231/170
f 170/231/170 178/230/178 179/232/179
f 180/234/180 172/235/172 171/233/171
f 171/233/171 179/232/179 180/234/180
f 181/236/181 173/237/173 172/235/172
f 172/235/172 180/234/180 181/236/181
f 175/225/175 167/224/167 173/237/173
f 173/237/173 181/236/181 175/225/175
f 182/238/182 174/222/174 175/225/175
f 182/238/182 176/226/176 174/222/174
f 182/238/182 177/228/177 176/226/176
f 182/238/182 178/230/178 177/228/177
f 182/238/182 179/232/179 178/230/178
f 182/238/182 180/234/180 179/232/179
f 182/238/182 181/236/181 180/234/180
f 182/238/182 175/225/175 181/236/181
s 8
f 183/239/183 184/240/184 185/241/185
f 183/239/183 185/241/185 186/242/186
f 183/239/183 186/242/186 187/243/187
f 183/239/183 187/243/187 188/244/188
f 183/239/183 188/244/188 189/245/189
f 183/239/183 189/245/189 190/246/190
f 183/239/183 190/246/190 191/247/191
f 183/239/183 191/247/191 184/240/184
f 192/248/192 185/241/185 184/240/184
f 184/240/184 193/249/193 192/248/192
f 194/250/194 186/242/186 185/241/185
f 185/241/185 192/248/192 194/250/194
f 195/251/195 187/243/187 186/242/186
f 186/242/186 194/250/194 195/251/195
f 196/252/196 188/244/188 187/243/187
f 187/243/187 195/251/195 196/252/196
f 197/253/197 189/245/189 188/244/188
f 188/244/188 196/252/196 197/253/197
f 198/254/198 190/246/190 189/245/189
f 189/245/189 197/253/197 198/254/198
f 199/255/199 191/247/191 190/246/190
f 190/246/190 198/254/198 199/255/199
f 193/249/193 184/240/184 191/247/191
f 191/247/191 199/255/199 193/249/193
f 200/256/200 192/257/192 193/258/193
f 193/258/193 201/259/201 200/256/200
f 202/260/202 194/261/194 192/257/192
f 192/257/192 200/256/200 202/260/202
f 203/262/203 195/263/195 194/261/194
f 194/261/194 202/260/202 203/262/203
f 204/264/204 196/265/196 195/263/195
f 195/263/195 203/262/203 204/264/204
f 205/266/205 197/267/197 196/265/196
f 196/265/196 204/264/204 205/266/205
f 206/268/206 198/269/198 197/267/197
f 197/267/197 205/266/205 206/268/206
f 207/270/207 199/271/199 198/269/198
f 198/269/198 206/268/206 207/270/207
f 201/259/201 193/258/193 199/271/199
f 199/271/199 207/270/207 201/259/201
f 208/272/208 200/256/200 201/259/201
f 208/272/208 202/260/202 200/256/200
f 208/272/208 203/262/203 202/260/202
f 208/272/208 204/264/204 203/262/203
f 208/272/208 205/266/205 204/264/204
f 208/272/208 206/268/206 205/266/205
f 208/272/208 207/270/207 206/268/206
f 208/272/208 201/259/201 207/270/207
s 9
f 209/273/209 210/274/210 211/275/211
f 209/273/209 211/275/211 212/276/212
f 209/273/209 212/276/212 213/277/213
f 209/273/209 213/277/213 214/278/214
f 209/273/209 214/278/214 215/279/215
f 209/273/209 215/279/215 216/280/216
f 209/273/209 216/280/216 217/281/217
f 209/273/209 217/281/217 210/274/210
f 218/282/218 211/275/211 210/274/210
f 210/274/210 219/283/219 218/282/218
f 220/284/220 212/276/212 211/275/211
f 211/275/211 218/282/218 220/284/220
f 221/285/221 213/277/213 212/276/212
f 212/276/212 220/284/220 221/285/221
f 222/286/222 214/278/214 213/277/213
f 213/277/213 221/285/221 222/286/222
f 223/287/223 215/279/215 214/278/214
f 214/278/214 222/286/222 223/287/223
f 224/288/224 216/280/216 215/279/215
f 215/279/215 223/287/223 224/288/224
f 225/289/225 217/281/217 216/280/216
f 216/280/216 224/288/224 225/289/225
f 219/283/219 210/274/210 217/281/217
f 217/281/217 225/289/225 219/283/219
f 226/290/226 218/291/218 219/292/219
f 219/292/219 227/293/227 226/290/226
f 228/294/228 220/295/220 218/291/218
f 218/291/218 226/290/226 228/294/228
f 229/296/229 221/297/221 220/295/220
f 220/295/220 228/294/228 229/296/229
f 230/298/230 222/299/222 221/297/221
f 221/297/221 229/296/229 230/298/230
f 231/300/231 223/301/223 222/299/222
f 222/299/222 230/298/230 231/300/231
f 232/302/232 224/303/224 223/301/223
f 223/301/223 231/300/231 232/302/232
f 233/304/233 225/305/225 224/303/224
f 224/303/224 232/302/232 233/304/233
f 227/293/227 219/292/219 225/305/225
f 225/305/225 233/304/233 227/293/227
f 234/306/234 226/290/226 227/293/227
f 234/306/234 228/294/228 226/290/226
f 234/306/234 229/296/229 228/294/228
f 234/306/234 230/298/230 229/296/229
f 234/306/234 231/300/231 230/298/230
f 234/306/234 232/302/232 231/300/231
f 234/306/234 233/304/233 232/302/232
f 234/306/234 227/293/227 233/304/233
s 10
f 235/307/235 236/308/236 237/309/237
f 235/307/235 237/309/237 238/310/238
f 235/307/235 238/310/238 239/311/239
f 235/307/235 239/311/239 240/312/240
f 235/307/235 240/312/240 241/313/241
f 235/307/235 241/313/241 242/314/242
f 235/307/235 242/314/242 243/315/243
f 235/307/235 243/315/243 236/308/236
f 244/316/244 237/309/237 236/308/236
f 236/308/236 245/317/245 244/316/244
f 246/318/246 238/310/238 237/309/237
f 237/309/237 244/316/244 246/318/246
f 247/319/247 239/311/239 238/310/238
f 238/310/238 246/318/246 247/319/247
f 248/320/248 240/312/240 239/311/239
f 239/311/239 247/319/247 248/320/248
f 249/321/249 241/313/241 240/312/240
f 240/312/240 248/320/248 249/321/249
f 250/322/250 242/314/242 241/313/241
f 241/313/241 249/321/249 250/322/250
f 251/323/251 243/315/243 242/314/242
f 242/314/242 250/322/250 251/323/251
f 245/317/245 236/308/236 243/315/243
f 243/315/243 251/323/251 245/317/245
f 252/324/252 244/325/244 245/326/245
f 245/326/245 253/327/253 252/324/252
f 254/328/254 246/329/246 244/325/244
f 244/325/244 252/324/252 254/328/254
f 255/330/255 247/331/247 246/329/246
f 246/329/246 254/328/254 255/330/255
f 256/332/256 248/333/248 247/331/247
f 247/331/247 255/330/255 256/332/256
f 257/334/257 249/335/249 248/333/248
f 248/333/248 256/332/256 257/334/257
f 258/336/258 250/337/250 249/335/249
f 249/335/249 257/334/257 258/336/258
f 259/338/259 251/339/251 250/337/250
f 250/337/250 258/336/258 259/338/259
f 253/327/253 245/326/245 251/339/251
f 251/339/251 259/338/259 253/327/253
f 260/340/260 252/324/252 253/327/253
f 260/340/260 254/328/254 252/324/252
f 260/340/260 255/330/255 254/328/254
f 260/340/260 256/332/256 255/330/255
f 260/340/260 257/334/257 256/332/256
f 260/340/260 258/336/258 257/334/257
f 260/340/260 259/338/259 258/336/258
f 260/340/260 253/327/253 259/338/259
s 11
f 261/341/27 262/342/261 263/343/262
f 261/341/27 263/343/262 264/344/30
f 261/341/27 264/344/30 265/345/263
f 261/341/27 265/345/263 266/346/264
f 261/341/27 266/346/264 267/347/33
f 261/341/27 267/347/33 268/348/34
f 261/341/27 268/348/34 269/349/35
f 261/341/27 269/349/35 262/342/261
f 270/350/36 263/343/262 262/342/261
f 262/342/261 271/351/265 270/350/36
f 272/352/266 264/344/30 263/343/262
f 263/343/262 270/350/36 272/352/266
f 273/353/267 265/345/263 264/344/30
f 264/344/30 272/352/266 273/353/267
f 274/354/40 266/346/264 265/345/263
f 265/345/263 273/353/267 274/354/40
f 275/355/41 267/347/33 266/346/264
f 266/346/264 274/354/40 275/355/41
f 276/356/268 268/348/34 267/347/33
f 267/347/33 275/355/41 276/356/268
f 277/357/43 269/349/35 268/348/34
f 268/348/34 276/356/268 277/357/43
f 271/351/265 262/342/261 269/349/35
f 269/349/35 277/357/43 271/351/265
f 278/358/44 270/359/36 271/360/265
f 271/360/265 279/361/269 278/358/44
f 280/362/270 272/363/266 270/359/36
f 270/359/36 278/358/44 280/362/270
f 281/364/271 273/365/267 272/363/266
f 272/363/266 280/362/270 281/364/271
f 282/366/272 274/367/40 273/365/267
f 273/365/267 281/364/271 282/366/272
f 283/368/273 275/369/41 274/367/40
f 274/367/40 282/366/272 283/368/273
f 284/370/274 276/371/268 275/369/41
f 275/369/41 283/368/273 284/370/274
f 285/372/275 277/373/43 276/371/268
f 276/371/268 284/370/274 285/372/275
f 279/361/269 271/360/265 277/373/43
f 277/373/43 285/372/275 279/361/269
f 286/374/276 278/358/44 279/361/269
f 286/374/276 280/362/270 278/358/44
f 286/374/276 281/364/271 280/362/270
f 286/374/276 282/366/272 281/364/271
f 286/374/276 283/368/273 282/366/272
f 286/374/276 284/370/274 283/368/273
f 286/374/276 285/372/275 284/370/274
f 286/374/276 279/361/269 285/372/275
s 12
f 287/375/277 288/376/278 289/377/279
f 287/375/277 289/377/279 290/378/280
f 287/375/277 290/378/280 291/379/281
f 287/375/277 291/379/281 292/380/282
f 287/375/277 292/380/282 293/381/283
f 287/375/277 293/381/283 294/382/284
f 287/375/277 294/382/284 295/383/285
f 287/375/277 295/383/285 288/376/278
f 296/384/286 289/377/279 288/376/278
f 288/376/278 297/385/287 296/384/286
f 298/386/288 290/378/280 289/377/279
f 289/377/279 296/384/286 298/386/288
f 299/387/289 291/379/281 290/378/280
f 290/378/280 298/386/288 299/387/289
f 300/388/290 292/380/282 291/379/281
f 291/379/281 299/387/289 300/388/290
f 301/389/291 293/381/283 292/380/282
f 292/380/282 300/388/290 301/389/291
f 302/390/292 294/382/284 293/381/283
f 293/381/283 301/389/291 302/390/292
f 303/391/293 295/383/285 294/382/284
f 294/382/284 302/390/292 303/391/293
f 297/385/287 288/376/278 295/383/285
f 295/383/285 303/391/293 297/385/287
f 304/392/294 296/393/286 297/394/287
f 297/394/287 305/395/295 304/392/294
f 306/396/296 298/397/288 296/393/286
f 296/393/286 304/392/294 306/396/296
f 307/398/297 299/399/289 298/397/288
f 298/397/288 306/396/296 307/398/297
f 308/400/298 300/401/290 299/399/289
f 299/399/289 307/398/297 308/400/298
f 309/402/299 301/403/291 300/401/290
f 300/401/290 308/400/298 309/402/299
f 310/404/300 302/405/292 301/403/291
f 301/403/291 309/402/299 310/404/300
f 311/406/301 303/407/293 302/405/292
f 302/405/292 310/404/300 311/406/301
f 305/395/295 297/394/287 303/407/293
f 303/407/293 311/406/301 305/395/295
f 312/408/302 304/392/294 305/395/295
f 312/408/302 306/396/296 304/392/294
f 312/408/302 307/398/297 306/396/296
f 312/408/302 308/400/298 307/398/297
f 312/408/302 309/402/299 308/400/298
f 312/408/302 310/404/300 309/402/299
f 312/408/302 311/406/301 310/404/300
f 312/408/302 305/395/295 311/406/301
s 13
f 313/409/303 314/410/304 315/411/305
f 313/409/303 315/411/305 316/412/306
f 313/409/303 316/412/306 317/413/307
f 313/409/303 317/413/307 318/414/308
f 313/409/303 318/414/308 319/415/309
f 313/409/303 319/415/309 320/416/310
f 313/409/303 320/416/310 321/417/311
f 313/409/303 321/417/311 314/410/304
f 322/418/312 315/411/305 314/410/304
f 314/410/304 323/419/313 322/418/312
f 324/420/314 316/412/306 315/411/305
f 315/411/305 322/418/312 324/420/314
f 325/421/315 317/413/307 316/412/306
f 316/412/306 324/420/314 325/421/315
f 326/422/316 318/414/308 317/413/307
f 317/413/307 325/421/315 326/422/316
f 327/423/317 319/415/309 318/414/308
f 318/414/308 326/422/316 327/423/317
f 328/424/318 320/416/310 319/415/309
f 319/415/309 327/423/317 328/424/318
f 329/425/319 321/417/311 320/416/310
f 320/416/310 328/424/318 329/425/319
f 323/419/313 314/410/304 321/417/311
f 321/417/311 329/425/319 323/419/313
f 330/426/320 322/427/312 323/428/313
f 323/428/313 331/429/321 330/426/320
f 332/430/322 324/431/314 322/427/312
f 322/427/312 330/426/320 332/430/322
f 333/432/323 325/433/315 324/431/314
f 324/431/314 332/430/322 333/432/323
f 334/434/324 326/435/316 325/433/315
f 325/433/315 333/432/323 334/434/324
f 335/436/325 327/437/317 326/435/316
f 326/435/316 334/434/324 335/436/325
f 336/438/326 328/439/318 327/437/317
f 327/437/317 335/436/325 336/438/326
f 337/440/327 329/441/319 328/439/318
f 328/439/318 336/438/326 337/440/327
f 331/429/321 323/428/313 329/441/319
f 329/441/319 337/440/327 331/429/321
f 338/442/328 330/426/320 331/429/321
f 338/442/328 332/430/322 330/426/320
f 338/442/328 333/432/323 332/430/322
f 338/442/328 334/434/324 333/432/323
f 338/442/328 335/436/325 334/434/324
f 338/442/328 336/438/326 335/436/325
f 338/442/328 337/440/327 336/438/326
f 338/442/328 331/429/321 337/440/327
s 14
f 339/443/329 340/444/330 341/445/331
f 339/443/329 341/445/331 342/446/332
f 339/443/329 342/446/332 343/447/333
f 339/443/329 343/447/333 344/448/334
f 339/443/329 344/448/334 345/449/335
f 339/443/329 345/449/335 346/450/336
f 339/443/329 346/450/336 347/451/337
f 339/443/329 347/451/337 340/444/330
f 348/452/338 341/445/331 340/444/330
f 340/444/330 349/453/339 348/452/338
f 350/454/340 342/446/332 341/445/331
f 341/445/331 348/452/338 350/454/340
f 351/455/341 343/447/333 342/446/332
f 342/446/332 350/454/340 351/455/341
f 352/456/342 344/448/334 343/447/333
f 343/447/333 351/455/341 352/456/342
f 353/457/343 345/449/335 344/448/334
f 344/448/334 352/456/342 353/457/343
f 354/458/344 346/450/336 345/449/335
f 345/449/335 353/457/343 354/458/344
f 355/459/345 347/451/337 346/450/336
f 346/450/336 354/458/344 355/459/345
f 349/453/339 340/444/330 347/451/337
f 347/451/337 355/459/345 349/453/339
f 356/460/346 348/461/338 349/462/339
f 349/462/339 357/463/347 356/460/346
f 358/464/348 350/465/340 348/461/338
f 348/461/338 356/460/346 358/464/348
f 359/466/349 351/467/341 350/465/340
f 350/465/340 358/464/348 359/466/349
f 360/468/350 352/469/342 351/467/341
f 351/467/341 359/466/349 360/468/350
f 361/470/351 353/471/343 352/469/342
f 352/469/342 360/468/350 361/470/351
f 362/472/352 354/473/344 353/471/343
f 353/471/343 361/470/351 362/472/352
f 363/474/353 355/475/345 354/473/344
f 354/473/344 362/472/352 363/474/353
f 357/463/347 349/462/339 355/475/345
f 355/475/345 363/474/353 357/463/347
f 364/476/354 356/460/346 357/463/347
f 364/476/354 358/464/348 356/460/346
f 364/476/354 359/466/349 358/464/348
f 364/476/354 360/468/350 359/466/349
f 364/476/354 361/470/351 360/468/350
f 364/476/354 362/472/352 361/470/351
f 364/476/354 363/474/353 362/472/352
f 364/476/354 357/463/347 363/474/353
