# Blender v3.3.0 OBJ File: ''
# www.blender.org
o SoybeanStage01.005
v -0.160876 0.109962 0.067428
v -0.111645 0.133686 0.097039
v -0.107494 0.152721 0.046723
v -0.190039 0.118529 0.021808
v -0.050586 0.148941 0.096622
v -0.034389 0.164670 0.053953
v -0.114288 0.197781 0.017833
v -0.163034 0.162275 0.002783
v -0.052797 0.202555 0.030369
v -0.054927 0.106411 0.236322
v -0.019748 0.163293 0.187818
v -0.077603 0.141951 0.151204
v -0.119043 0.072762 0.244458
v 0.018513 0.193457 0.101717
v -0.039343 0.172115 0.065102
v -0.018799 0.141245 0.018870
v -0.143553 0.163294 0.132804
v -0.155974 0.106411 0.191420
v -0.105293 0.193457 0.046702
v 0.095311 0.173394 0.101655
v 0.044658 0.204919 0.084227
v 0.026346 0.155550 0.095996
v 0.108489 0.127635 0.128812
v -0.009989 0.206314 0.053037
v -0.034389 0.164670 0.053953
v -0.001101 0.128485 0.133749
v 0.057964 0.111010 0.142074
v -0.048265 0.142378 0.094461
v 0.016259 -0.012012 -0.005911
v 0.011695 -0.012012 -0.010245
v 0.011609 0.089783 -0.009161
v 0.015314 0.089783 -0.005643
v 0.006163 -0.012012 -0.007244
v 0.007118 0.089783 -0.006725
v 0.007308 -0.012012 -0.001055
v 0.008047 0.089783 -0.001701
v 0.013547 -0.012012 -0.000231
v 0.013113 0.089783 -0.001032
v 0.019741 0.186627 0.007631
v 0.022200 0.186627 0.009966
v 0.016760 0.186627 0.009248
v 0.017377 0.186627 0.012582
v 0.020739 0.186627 0.013026
v 0.028728 0.265322 0.009939
v 0.030310 0.264924 0.011631
v 0.026620 0.265543 0.010954
v 0.026899 0.265282 0.013273
v 0.029180 0.264899 0.013691
v 0.102403 0.166402 0.054257
v 0.093236 0.181740 0.018263
v 0.068452 0.194047 0.039504
v 0.095067 0.171940 0.088486
v 0.064980 0.191603 -0.009306
v 0.038135 0.201772 0.002943
v 0.058440 0.223180 0.055873
v 0.074004 0.200224 0.084953
v 0.035874 0.226266 0.022154
v 0.130490 0.164106 -0.071547
v 0.092267 0.200882 -0.065246
v 0.102215 0.187084 -0.022112
v 0.163661 0.142351 -0.046137
v 0.035534 0.220384 -0.043064
v 0.045481 0.206585 0.000071
v 0.015018 0.186627 0.011982
v 0.124164 0.200882 0.016330
v 0.156523 0.164106 -0.004966
v 0.067431 0.220384 0.038513
v 0.000204 0.207412 -0.077952
v 0.015564 0.227794 -0.046911
v 0.029332 0.195876 -0.043995
v 0.006494 0.177828 -0.096426
v 0.026503 0.228696 -0.007729
v 0.038135 0.201772 0.002943
v 0.059113 0.178377 -0.048870
v 0.035748 0.167079 -0.079551
v 0.062930 0.187360 -0.009367
v 0.052496 0.288294 0.110822
v 0.067510 0.301527 0.072698
v 0.031553 0.293591 0.066281
v 0.019268 0.283213 0.128491
v 0.068712 0.296977 0.029354
v 0.039721 0.287333 0.015759
v -0.001512 0.310028 0.060487
v -0.003838 0.295232 0.100856
v 0.010978 0.304088 0.019139
v 0.165861 0.323252 0.040054
v 0.121641 0.330514 0.004452
v 0.100723 0.317974 0.047735
v 0.175098 0.320894 0.089621
v 0.064267 0.308996 -0.026238
v 0.043348 0.296456 0.017045
v 0.026620 0.262340 0.010954
v 0.075506 0.337375 0.085892
v 0.128206 0.328851 0.106523
v 0.018131 0.315857 0.055202
v 0.079203 0.281525 -0.071469
v 0.052799 0.303716 -0.045693
v 0.074393 0.284168 -0.022270
v 0.112155 0.262738 -0.069637
v 0.027846 0.305095 -0.009968
v 0.039721 0.287333 0.015759
v 0.103039 0.288135 0.001408
v 0.120208 0.268809 -0.033026
v 0.069871 0.292062 0.029432
v 0.102403 0.163779 0.054257
v 0.095067 0.169317 0.088486
v 0.068452 0.191424 0.039504
v 0.093236 0.179117 0.018263
v 0.038135 0.199149 0.002943
v 0.064980 0.188980 -0.009306
v 0.074004 0.197600 0.084953
v 0.058440 0.220556 0.055873
v 0.035874 0.223643 0.022154
v 0.130490 0.161483 -0.071547
v 0.163661 0.139728 -0.046137
v 0.102215 0.184460 -0.022112
v 0.092267 0.198259 -0.065246
v 0.045481 0.203962 0.000071
v 0.035534 0.217760 -0.043064
v 0.015018 0.184003 0.011982
v 0.156523 0.161483 -0.004966
v 0.124164 0.198259 0.016330
v 0.067431 0.217760 0.038513
v 0.000204 0.204789 -0.077952
v 0.006494 0.175204 -0.096426
v 0.029332 0.193252 -0.043995
v 0.015564 0.225171 -0.046911
v 0.038135 0.199149 0.002943
v 0.026503 0.226073 -0.007729
v 0.035748 0.164456 -0.079551
v 0.059113 0.175754 -0.048870
v 0.062930 0.184736 -0.009367
v 0.052496 0.285670 0.110822
v 0.019268 0.280590 0.128491
v 0.031553 0.290967 0.066281
v 0.067510 0.298903 0.072698
v 0.039721 0.284710 0.015759
v 0.068712 0.294353 0.029354
v -0.003838 0.292609 0.100856
v -0.001512 0.307404 0.060487
v 0.010978 0.301464 0.019139
v 0.165861 0.320628 0.040054
v 0.175098 0.318271 0.089621
v 0.100723 0.315351 0.047735
v 0.121641 0.327891 0.004451
v 0.043348 0.293833 0.017045
v 0.064267 0.306373 -0.026238
v 0.026620 0.259716 0.010954
v 0.128206 0.326228 0.106523
v 0.075506 0.334751 0.085892
v 0.018131 0.313233 0.055202
v 0.079203 0.278902 -0.071469
v 0.112155 0.260115 -0.069637
v 0.074393 0.281544 -0.022270
v 0.052799 0.301092 -0.045693
v 0.039721 0.284710 0.015759
v 0.027846 0.302471 -0.009968
v 0.120208 0.266186 -0.033026
v 0.103039 0.285512 0.001408
v 0.069871 0.289439 0.029432
v -0.160876 0.107339 0.067428
v -0.190039 0.115905 0.021808
v -0.107494 0.150098 0.046723
v -0.111645 0.131063 0.097039
v -0.034389 0.162046 0.053953
v -0.050586 0.146318 0.096622
v -0.163034 0.159652 0.002783
v -0.114288 0.195158 0.017833
v -0.052797 0.199932 0.030369
v -0.054927 0.103788 0.236322
v -0.119043 0.070139 0.244458
v -0.077603 0.139328 0.151204
v -0.019748 0.160670 0.187818
v -0.039343 0.169491 0.065102
v 0.018513 0.190833 0.101717
v -0.018799 0.138621 0.018870
v -0.155974 0.103788 0.191420
v -0.143553 0.160670 0.132804
v -0.105293 0.190833 0.046702
v 0.095311 0.170770 0.101655
v 0.108489 0.125011 0.128812
v 0.026346 0.152926 0.095996
v 0.044658 0.202296 0.084227
v -0.034389 0.162046 0.053953
v -0.009989 0.203690 0.053037
v 0.057964 0.108386 0.142074
v -0.001101 0.125861 0.133749
v -0.048265 0.139755 0.094461
v 0.029180 0.264899 0.013691
v 0.030310 0.264924 0.011631
v 0.023186 0.285189 0.014118
v 0.021902 0.284866 0.015488
v 0.028728 0.265322 0.009939
v 0.022267 0.285239 0.012451
v 0.026620 0.265543 0.010954
v 0.020416 0.284948 0.012790
v 0.026899 0.265282 0.013273
v 0.020191 0.284718 0.014667
v 0.015960 0.328027 0.023761
v 0.015060 0.327585 0.024619
v 0.015365 0.328195 0.022595
v 0.014097 0.327857 0.022732
v 0.013908 0.327479 0.023983
v -0.041766 0.331631 0.038222
v -0.021468 0.340990 0.047448
v -0.017523 0.339193 0.026910
v -0.051422 0.329412 0.019337
v 0.003002 0.341718 0.047922
v 0.011115 0.339117 0.031186
v -0.015764 0.350664 0.009419
v -0.037111 0.339527 0.007184
v 0.007773 0.349810 0.016112
v -0.004332 0.349756 0.103708
v 0.014639 0.359083 0.079496
v -0.008620 0.350058 0.067005
v -0.031671 0.344120 0.108647
v 0.032986 0.352880 0.046237
v 0.009727 0.343854 0.033746
v 0.015609 0.326423 0.022407
v -0.031490 0.359348 0.054000
v -0.041981 0.349972 0.082899
v -0.013143 0.353145 0.020741
v 0.060340 0.340266 0.053037
v 0.044139 0.352117 0.039553
v 0.032736 0.338247 0.050426
v 0.060964 0.327805 0.070333
v 0.023998 0.351606 0.025640
v 0.011115 0.339117 0.031186
v 0.019443 0.336956 0.066620
v 0.040184 0.327893 0.075128
v 0.003340 0.338925 0.048280
v -0.041566 0.330180 0.038068
v -0.051222 0.327960 0.019183
v -0.017323 0.337742 0.026755
v -0.021268 0.339539 0.047293
v 0.011315 0.337666 0.031031
v 0.003202 0.340266 0.047768
v -0.036911 0.338075 0.007030
v -0.015564 0.349213 0.009265
v 0.007973 0.348358 0.015958
v -0.004132 0.348304 0.103553
v -0.031471 0.342669 0.108493
v -0.008420 0.348606 0.066851
v 0.014839 0.357631 0.079342
v 0.009927 0.342403 0.033592
v 0.033186 0.351428 0.046082
v 0.015809 0.324971 0.022253
v -0.041781 0.348521 0.082744
v -0.031290 0.357896 0.053846
v -0.012943 0.351693 0.020587
v 0.060540 0.338815 0.052883
v 0.061164 0.326354 0.070179
v 0.032936 0.336796 0.050271
v 0.044339 0.350665 0.039399
v 0.011315 0.337666 0.031031
v 0.024198 0.350155 0.025486
v 0.040384 0.326441 0.074974
v 0.019643 0.335505 0.066465
v 0.003540 0.337474 0.048126
v -0.103201 0.203629 0.026728
v -0.077232 0.219142 0.035713
v -0.074138 0.215748 0.008708
v -0.117454 0.198025 0.003489
v -0.045640 0.223342 0.033414
v -0.036628 0.219749 0.010907
v -0.075366 0.229498 -0.014952
v -0.101678 0.212081 -0.014624
v -0.044079 0.232005 -0.008966
v -0.050105 0.237095 0.106162
v -0.029520 0.249814 0.071901
v -0.059722 0.234092 0.059002
v -0.084136 0.226573 0.116146
v -0.008593 0.241625 0.026983
v -0.038795 0.225903 0.014084
v -0.029812 0.200386 0.000912
v -0.092002 0.242120 0.044194
v -0.101102 0.230815 0.083548
v -0.071075 0.233931 -0.000724
v 0.029263 0.229403 0.033428
v 0.005200 0.241589 0.017050
v -0.006439 0.222951 0.033405
v 0.033687 0.214668 0.056620
v -0.022301 0.237204 0.001383
v -0.036628 0.219749 0.010907
v -0.021671 0.220776 0.056068
v 0.007332 0.212416 0.065274
v -0.044778 0.219795 0.034021
v -0.103327 0.202451 0.027338
v -0.117580 0.196848 0.004100
v -0.074264 0.214571 0.009318
v -0.077357 0.217964 0.036323
v -0.036754 0.218572 0.011517
v -0.045766 0.222165 0.034024
v -0.101804 0.210904 -0.014014
v -0.075491 0.228321 -0.014342
v -0.044205 0.230828 -0.008356
v -0.050231 0.235918 0.106772
v -0.084261 0.225396 0.116757
v -0.059847 0.232915 0.059612
v -0.029645 0.248637 0.072511
v -0.038921 0.224726 0.014694
v -0.008718 0.240448 0.027593
v -0.029937 0.199209 0.001522
v -0.101227 0.229638 0.084159
v -0.092127 0.240943 0.044804
v -0.071201 0.232754 -0.000114
v 0.029137 0.228226 0.034038
v 0.033561 0.213491 0.057230
v -0.006564 0.221774 0.034015
v 0.005074 0.240412 0.017660
v -0.036754 0.218572 0.011517
v -0.022426 0.236027 0.001993
v 0.007206 0.211239 0.065884
v -0.021797 0.219599 0.056679
v -0.044903 0.218617 0.034631
v -0.039726 0.243332 -0.022272
v -0.042821 0.242869 -0.020967
v -0.006385 0.344307 -0.023455
v -0.004009 0.344334 -0.023775
v -0.042571 0.243045 -0.017590
v -0.006815 0.344215 -0.021098
v -0.039321 0.243617 -0.016808
v -0.004704 0.344185 -0.019961
v -0.037563 0.243794 -0.019702
v -0.002970 0.344258 -0.021616
v -0.013457 0.423538 -0.021696
v -0.011128 0.423564 -0.022010
v -0.013877 0.423448 -0.019386
v -0.011809 0.423418 -0.018272
v -0.010110 0.423490 -0.019893
v 0.084322 0.323723 0.010172
v 0.070896 0.340280 -0.023894
v 0.048703 0.351532 0.000555
v 0.081022 0.327917 0.045210
v 0.039538 0.350853 -0.047570
v 0.014255 0.360278 -0.031885
v 0.040502 0.379933 0.019074
v 0.059515 0.356087 0.045242
v 0.014114 0.384022 -0.011629
v 0.097455 0.326366 -0.118052
v 0.060010 0.362477 -0.105930
v 0.075039 0.347204 -0.064810
v 0.133515 0.304041 -0.097543
v 0.006154 0.380545 -0.076533
v 0.021183 0.365272 -0.035414
v -0.006815 0.344215 -0.021098
v 0.101264 0.359807 -0.028709
v 0.131126 0.324186 -0.055026
v 0.047409 0.377875 0.000688
v -0.032947 0.368496 -0.107510
v -0.014175 0.387881 -0.077732
v 0.000038 0.356024 -0.077660
v -0.028687 0.339681 -0.127701
v 0.001283 0.387453 -0.040095
v 0.014255 0.360278 -0.031885
v 0.029148 0.339034 -0.086648
v 0.002412 0.328628 -0.114786
v 0.037522 0.346593 -0.047552
v 0.079332 0.436365 -0.060014
v 0.039300 0.451945 -0.062965
v 0.041045 0.437244 -0.028645
v 0.103977 0.425161 -0.033384
v -0.003295 0.447395 -0.054851
v -0.010198 0.432296 -0.025822
v 0.043648 0.447023 0.007336
v 0.082881 0.432348 -0.002636
v 0.000342 0.443278 0.003954
v -0.014285 0.491813 -0.145123
v -0.038441 0.490241 -0.093262
v 0.007993 0.474251 -0.085750
v 0.031696 0.491620 -0.165945
v -0.055874 0.457943 -0.035385
v -0.009440 0.441952 -0.027874
v -0.013418 0.419910 -0.018334
v 0.051637 0.488755 -0.066958
v 0.059235 0.490600 -0.123655
v 0.034204 0.456457 -0.009082
v -0.104331 0.433502 -0.044229
v -0.072348 0.450429 -0.020892
v -0.055284 0.435534 -0.050624
v -0.110849 0.421367 -0.079617
v -0.031809 0.447277 -0.005161
v -0.010198 0.432296 -0.025822
v -0.038710 0.445069 -0.082740
v -0.076876 0.429128 -0.094708
v -0.003671 0.442793 -0.056895
v 0.084417 0.321156 0.009639
v 0.081117 0.325350 0.044677
v 0.048798 0.348965 0.000021
v 0.070991 0.337713 -0.024427
v 0.014350 0.357711 -0.032418
v 0.039633 0.348286 -0.048103
v 0.059610 0.353520 0.044708
v 0.040597 0.377366 0.018541
v 0.014209 0.381455 -0.012162
v 0.097550 0.323799 -0.118585
v 0.133610 0.301474 -0.098076
v 0.075134 0.344637 -0.065344
v 0.060105 0.359910 -0.106463
v 0.021278 0.362705 -0.035947
v 0.006250 0.377978 -0.077067
v -0.006747 0.342400 -0.021475
v 0.131221 0.321619 -0.055559
v 0.101359 0.357240 -0.029242
v 0.047504 0.375308 0.000154
v -0.032852 0.365929 -0.108043
v -0.028592 0.337114 -0.128234
v 0.000133 0.353457 -0.078193
v -0.014080 0.385314 -0.078265
v 0.014350 0.357711 -0.032418
v 0.001378 0.384886 -0.040628
v 0.002507 0.326061 -0.115320
v 0.029243 0.336467 -0.087181
v 0.037617 0.344026 -0.048085
v 0.079427 0.433798 -0.060547
v 0.104072 0.422594 -0.033917
v 0.041140 0.434677 -0.029178
v 0.039395 0.449378 -0.063498
v -0.010103 0.429729 -0.026355
v -0.003200 0.444828 -0.055384
v 0.082976 0.429781 -0.003169
v 0.043743 0.444456 0.006803
v 0.000437 0.440711 0.003421
v -0.014189 0.489246 -0.145656
v 0.031792 0.489053 -0.166478
v 0.008088 0.471684 -0.086284
v -0.038346 0.487674 -0.093795
v -0.009344 0.439385 -0.028408
v -0.055779 0.455376 -0.035918
v -0.013323 0.417343 -0.018867
v 0.059330 0.488033 -0.124188
v 0.051731 0.486188 -0.067492
v 0.034299 0.453890 -0.009616
v -0.104236 0.430936 -0.044763
v -0.110754 0.418800 -0.080151
v -0.055189 0.432967 -0.051157
v -0.072253 0.447862 -0.021426
v -0.010103 0.429729 -0.026355
v -0.031714 0.444710 -0.005694
v -0.076781 0.426561 -0.095241
v -0.038615 0.442502 -0.083273
v -0.003576 0.440226 -0.057428
v -0.011879 -0.012012 -0.002500
v -0.012532 -0.012012 0.003760
v -0.022561 0.146201 0.021046
v -0.022031 0.146201 0.015964
v -0.006781 -0.012012 0.006315
v -0.017892 0.146201 0.023121
v -0.002572 -0.012012 0.001635
v -0.014476 0.146201 0.019321
v -0.005723 -0.012012 -0.003813
v -0.017034 0.146201 0.014898
v -0.042571 0.243045 -0.017590
v -0.042821 0.242869 -0.020967
v -0.039321 0.243617 -0.016808
v -0.037563 0.243794 -0.019702
v -0.039726 0.243332 -0.022272
v -0.056433 0.320916 -0.014712
v -0.056606 0.320794 -0.017053
v -0.054181 0.321313 -0.014171
v -0.052962 0.321436 -0.016176
v -0.054461 0.321115 -0.017957
v 0.000608 0.226186 -0.105882
v -0.036828 0.235949 -0.095014
v -0.016506 0.252732 -0.072162
v 0.033829 0.237530 -0.101001
v -0.063972 0.242619 -0.065443
v -0.052035 0.255945 -0.039869
v -0.004592 0.284582 -0.064386
v 0.026918 0.265879 -0.080884
v -0.037007 0.283299 -0.039823
v -0.124517 0.202236 -0.125653
v -0.122151 0.241390 -0.089396
v -0.077980 0.234258 -0.101564
v -0.097830 0.183254 -0.159516
v -0.100247 0.266994 -0.035031
v -0.056076 0.259862 -0.047199
v -0.039321 0.243617 -0.016808
v -0.043649 0.252977 -0.126482
v -0.060446 0.211693 -0.155921
v -0.021745 0.278581 -0.072117
v -0.130445 0.250325 0.002967
v -0.104104 0.274665 -0.015161
v -0.096786 0.242994 -0.027821
v -0.144145 0.217873 -0.000944
v -0.066295 0.281335 -0.028640
v -0.052035 0.255945 -0.039869
v -0.100426 0.223488 -0.056512
v -0.127443 0.208556 -0.030782
v -0.063219 0.238527 -0.063229
v -0.090947 0.322318 -0.109840
v -0.099348 0.338413 -0.070797
v -0.062733 0.330940 -0.070088
v -0.061188 0.315875 -0.132533
v -0.093039 0.337153 -0.027676
v -0.062032 0.328529 -0.018590
v -0.029360 0.347727 -0.071313
v -0.033824 0.329920 -0.110261
v -0.034495 0.344944 -0.028107
v -0.190884 0.362665 -0.023432
v -0.141299 0.372542 0.003388
v -0.127975 0.356741 -0.041790
v -0.208465 0.356579 -0.070354
v -0.079258 0.353334 0.025267
v -0.065934 0.337533 -0.019911
v -0.052415 0.318048 -0.014407
v -0.109913 0.373171 -0.085057
v -0.165268 0.363178 -0.095619
v -0.047872 0.353963 -0.063178
v -0.085884 0.329379 0.074317
v -0.064559 0.349525 0.042798
v -0.089621 0.328289 0.024966
v -0.118436 0.310548 0.079589
v -0.046128 0.348169 0.003310
v -0.062032 0.328529 -0.018590
v -0.121952 0.330492 0.006340
v -0.132726 0.313844 0.044561
v -0.094135 0.332248 -0.027186
v 0.059165 0.053544 -0.147077
v 0.005680 0.077268 -0.126104
v 0.043034 0.096303 -0.092140
v 0.113106 0.062110 -0.142383
v -0.031213 0.092523 -0.077450
v -0.007265 0.108252 -0.038598
v 0.070076 0.141363 -0.079913
v 0.111723 0.105857 -0.109377
v 0.022652 0.146137 -0.038812
v -0.139304 0.049993 -0.166057
v -0.122303 0.106875 -0.108602
v -0.058009 0.085533 -0.132141
v -0.106667 0.016344 -0.221841
v -0.077378 0.137039 -0.025783
v -0.013083 0.115697 -0.049322
v 0.011040 0.084826 -0.004852
v -0.003218 0.106875 -0.173201
v -0.042110 0.049993 -0.218781
v 0.041708 0.137039 -0.090382
v -0.124148 0.116975 0.035132
v -0.079452 0.148501 0.005605
v -0.077618 0.099132 -0.016086
v -0.153708 0.071217 0.029021
v -0.021414 0.149895 -0.018698
v -0.007265 0.108252 -0.038598
v -0.090811 0.072066 -0.060858
v -0.133418 0.054592 -0.019114
v -0.030915 0.085960 -0.074293
v 0.059165 0.050921 -0.147077
v 0.113106 0.059487 -0.142383
v 0.043034 0.093680 -0.092140
v 0.005680 0.074645 -0.126104
v -0.007265 0.105628 -0.038598
v -0.031213 0.089900 -0.077450
v 0.111723 0.103233 -0.109377
v 0.070076 0.138740 -0.079913
v 0.022652 0.143514 -0.038812
v -0.139304 0.047370 -0.166057
v -0.106667 0.013721 -0.221841
v -0.058009 0.082910 -0.132141
v -0.122303 0.104252 -0.108602
v -0.013083 0.113073 -0.049322
v -0.077378 0.134415 -0.025783
v 0.011040 0.082203 -0.004852
v -0.042110 0.047370 -0.218781
v -0.003218 0.104252 -0.173201
v 0.041708 0.134415 -0.090382
v -0.124148 0.114352 0.035132
v -0.153708 0.068593 0.029021
v -0.077618 0.096508 -0.016086
v -0.079452 0.145877 0.005605
v -0.007265 0.105628 -0.038598
v -0.021414 0.147272 -0.018698
v -0.133418 0.051968 -0.019114
v -0.090811 0.069443 -0.060858
v -0.030915 0.083336 -0.074293
v 0.000608 0.223563 -0.105882
v 0.033829 0.234907 -0.101001
v -0.016506 0.250108 -0.072162
v -0.036828 0.233326 -0.095014
v -0.052035 0.253321 -0.039869
v -0.063972 0.239995 -0.065443
v 0.026918 0.263255 -0.080884
v -0.004592 0.281959 -0.064386
v -0.037007 0.280675 -0.039823
v -0.124517 0.199612 -0.125653
v -0.097830 0.180630 -0.159516
v -0.077980 0.231634 -0.101564
v -0.122151 0.238766 -0.089396
v -0.056076 0.257239 -0.047199
v -0.100247 0.264371 -0.035031
v -0.039321 0.240994 -0.016808
v -0.060446 0.209069 -0.155921
v -0.043649 0.250353 -0.126482
v -0.021745 0.275958 -0.072117
v -0.130445 0.247702 0.002967
v -0.144145 0.215250 -0.000944
v -0.096786 0.240370 -0.027821
v -0.104104 0.272041 -0.015161
v -0.052035 0.253321 -0.039869
v -0.066295 0.278712 -0.028640
v -0.127443 0.205933 -0.030782
v -0.100426 0.220865 -0.056512
v -0.063219 0.235904 -0.063229
v -0.090947 0.319694 -0.109840
v -0.061188 0.313252 -0.132533
v -0.062733 0.328317 -0.070088
v -0.099348 0.335789 -0.070797
v -0.062032 0.325905 -0.018590
v -0.093039 0.334530 -0.027676
v -0.033824 0.327297 -0.110261
v -0.029360 0.345104 -0.071313
v -0.034495 0.342321 -0.028107
v -0.190884 0.360041 -0.023432
v -0.208465 0.353956 -0.070354
v -0.127975 0.354118 -0.041790
v -0.141299 0.369919 0.003388
v -0.065934 0.334909 -0.019911
v -0.079258 0.350711 0.025267
v -0.052415 0.315425 -0.014407
v -0.165268 0.360555 -0.095619
v -0.109913 0.370548 -0.085057
v -0.047872 0.351340 -0.063178
v -0.085884 0.326755 0.074317
v -0.118436 0.307924 0.079589
v -0.089621 0.325666 0.024966
v -0.064559 0.346901 0.042798
v -0.062032 0.325905 -0.018590
v -0.046128 0.345546 0.003310
v -0.132726 0.311221 0.044561
v -0.121952 0.327868 0.006340
v -0.094135 0.329625 -0.027186
vt 0.320400 0.204300
vt 0.347600 0.473500
vt 0.205600 0.473500
vt 0.205600 0.045200
vt 0.324900 0.761600
vt 0.205600 0.819400
vt 0.063600 0.473500
vt 0.090800 0.204300
vt 0.086200 0.761600
vt 0.320400 0.204300
vt 0.347600 0.473500
vt 0.205600 0.473500
vt 0.205600 0.045200
vt 0.347600 0.819500
vt 0.205600 0.819400
vt 0.205600 0.874600
vt 0.063600 0.473500
vt 0.090800 0.204300
vt 0.063600 0.819500
vt 0.320400 0.204300
vt 0.347600 0.473500
vt 0.205600 0.473500
vt 0.205600 0.045200
vt 0.324900 0.761600
vt 0.205600 0.819400
vt 0.063600 0.473500
vt 0.090800 0.204300
vt 0.086200 0.761600
vt 0.019100 0.026600
vt 0.020000 0.026700
vt 0.019800 0.320000
vt 0.019100 0.321500
vt 0.020800 0.027300
vt 0.020500 0.320500
vt 0.021700 0.028300
vt 0.021200 0.322900
vt 0.022500 0.029700
vt 0.021800 0.325100
vt 0.018300 0.026700
vt 0.018500 0.322700
vt 0.019600 0.685300
vt 0.019100 0.685800
vt 0.020000 0.685600
vt 0.020500 0.686800
vt 0.020900 0.687900
vt 0.018700 0.686300
vt 0.019400 0.980000
vt 0.019100 0.979200
vt 0.019700 0.980300
vt 0.020000 0.979900
vt 0.020300 0.979900
vt 0.018800 0.978800
vt 0.320400 0.204300
vt 0.347600 0.473500
vt 0.205600 0.473500
vt 0.205600 0.045200
vt 0.324900 0.761600
vt 0.205600 0.819400
vt 0.063600 0.473500
vt 0.090800 0.204300
vt 0.086200 0.761600
vt 0.320400 0.204300
vt 0.347600 0.473500
vt 0.205600 0.473500
vt 0.205600 0.045200
vt 0.347600 0.819500
vt 0.205600 0.819400
vt 0.205600 0.874600
vt 0.063600 0.473500
vt 0.090800 0.204300
vt 0.063600 0.819500
vt 0.320400 0.204300
vt 0.347600 0.473500
vt 0.205600 0.473500
vt 0.205600 0.045200
vt 0.324900 0.761600
vt 0.205600 0.819400
vt 0.063600 0.473500
vt 0.090800 0.204300
vt 0.086200 0.761600
vt 0.320400 0.204300
vt 0.347600 0.473500
vt 0.205600 0.473500
vt 0.205600 0.045200
vt 0.324900 0.761600
vt 0.205600 0.819400
vt 0.063600 0.473500
vt 0.090800 0.204300
vt 0.086200 0.761600
vt 0.320400 0.204300
vt 0.347600 0.473500
vt 0.205600 0.473500
vt 0.205600 0.045200
vt 0.347600 0.819500
vt 0.205600 0.819400
vt 0.205600 0.857600
vt 0.063600 0.473500
vt 0.090800 0.204300
vt 0.063600 0.819500
vt 0.320400 0.204300
vt 0.347600 0.473500
vt 0.205600 0.473500
vt 0.205600 0.045200
vt 0.324900 0.761600
vt 0.205600 0.819400
vt 0.063600 0.473500
vt 0.090800 0.204300
vt 0.086200 0.761600
vt 0.320400 0.204300
vt 0.205600 0.045200
vt 0.205600 0.473500
vt 0.347600 0.473500
vt 0.205600 0.819400
vt 0.324900 0.761600
vt 0.090800 0.204300
vt 0.063600 0.473500
vt 0.086200 0.761600
vt 0.320400 0.204300
vt 0.205600 0.045200
vt 0.205600 0.473500
vt 0.347600 0.473500
vt 0.205600 0.819400
vt 0.347600 0.819500
vt 0.205600 0.874600
vt 0.090800 0.204300
vt 0.063600 0.473500
vt 0.063600 0.819500
vt 0.320400 0.204300
vt 0.205600 0.045200
vt 0.205600 0.473500
vt 0.347600 0.473500
vt 0.205600 0.819400
vt 0.324900 0.761600
vt 0.090800 0.204300
vt 0.063600 0.473500
vt 0.086200 0.761600
vt 0.320400 0.204300
vt 0.205600 0.045200
vt 0.205600 0.473500
vt 0.347600 0.473500
vt 0.205600 0.819400
vt 0.324900 0.761600
vt 0.090800 0.204300
vt 0.063600 0.473500
vt 0.086200 0.761600
vt 0.320400 0.204300
vt 0.205600 0.045200
vt 0.205600 0.473500
vt 0.347600 0.473500
vt 0.205600 0.819400
vt 0.347600 0.819500
vt 0.205600 0.857600
vt 0.090800 0.204300
vt 0.063600 0.473500
vt 0.063600 0.819500
vt 0.320400 0.204300
vt 0.205600 0.045200
vt 0.205600 0.473500
vt 0.347600 0.473500
vt 0.205600 0.819400
vt 0.324900 0.761600
vt 0.090800 0.204300
vt 0.063600 0.473500
vt 0.086200 0.761600
vt 0.320400 0.204300
vt 0.205600 0.045200
vt 0.205600 0.473500
vt 0.347600 0.473500
vt 0.205600 0.819400
vt 0.324900 0.761600
vt 0.090800 0.204300
vt 0.063600 0.473500
vt 0.086200 0.761600
vt 0.320400 0.204300
vt 0.205600 0.045200
vt 0.205600 0.473500
vt 0.347600 0.473500
vt 0.205600 0.819400
vt 0.347600 0.819500
vt 0.205600 0.874600
vt 0.090800 0.204300
vt 0.063600 0.473500
vt 0.063600 0.819500
vt 0.320400 0.204300
vt 0.205600 0.045200
vt 0.205600 0.473500
vt 0.347600 0.473500
vt 0.205600 0.819400
vt 0.324900 0.761600
vt 0.090800 0.204300
vt 0.063600 0.473500
vt 0.086200 0.761600
vt 0.019100 0.321500
vt 0.019800 0.320000
vt 0.019600 0.685300
vt 0.019100 0.685800
vt 0.020500 0.320500
vt 0.020000 0.685600
vt 0.021200 0.322900
vt 0.020500 0.686800
vt 0.021800 0.325100
vt 0.020900 0.687900
vt 0.018500 0.322700
vt 0.018700 0.686300
vt 0.019400 0.980000
vt 0.019100 0.979200
vt 0.019700 0.980300
vt 0.020000 0.979900
vt 0.020300 0.979900
vt 0.018800 0.978800
vt 0.320400 0.204300
vt 0.347600 0.473500
vt 0.205600 0.473500
vt 0.205600 0.045200
vt 0.324900 0.761600
vt 0.205600 0.819400
vt 0.063600 0.473500
vt 0.090800 0.204300
vt 0.086200 0.761600
vt 0.320400 0.204300
vt 0.347600 0.473500
vt 0.205600 0.473500
vt 0.205600 0.045200
vt 0.347600 0.819500
vt 0.205600 0.819400
vt 0.205600 0.857600
vt 0.063600 0.473500
vt 0.090800 0.204300
vt 0.063600 0.819500
vt 0.320400 0.204300
vt 0.347600 0.473500
vt 0.205600 0.473500
vt 0.205600 0.045200
vt 0.324900 0.761600
vt 0.205600 0.819400
vt 0.063600 0.473500
vt 0.090800 0.204300
vt 0.086200 0.761600
vt 0.320400 0.204300
vt 0.205600 0.045200
vt 0.205600 0.473500
vt 0.347600 0.473500
vt 0.205600 0.819400
vt 0.324900 0.761600
vt 0.090800 0.204300
vt 0.063600 0.473500
vt 0.086200 0.761600
vt 0.320400 0.204300
vt 0.205600 0.045200
vt 0.205600 0.473500
vt 0.347600 0.473500
vt 0.205600 0.819400
vt 0.347600 0.819500
vt 0.205600 0.857600
vt 0.090800 0.204300
vt 0.063600 0.473500
vt 0.063600 0.819500
vt 0.320400 0.204300
vt 0.205600 0.045200
vt 0.205600 0.473500
vt 0.347600 0.473500
vt 0.205600 0.819400
vt 0.324900 0.761600
vt 0.090800 0.204300
vt 0.063600 0.473500
vt 0.086200 0.761600
vt 0.320400 0.204300
vt 0.347600 0.473500
vt 0.205600 0.473500
vt 0.205600 0.045200
vt 0.324900 0.761600
vt 0.205600 0.819400
vt 0.063600 0.473500
vt 0.090800 0.204300
vt 0.086200 0.761600
vt 0.320400 0.204300
vt 0.347600 0.473500
vt 0.205600 0.473500
vt 0.205600 0.045200
vt 0.347600 0.819500
vt 0.205600 0.819400
vt 0.205600 0.874600
vt 0.063600 0.473500
vt 0.090800 0.204300
vt 0.063600 0.819500
vt 0.320400 0.204300
vt 0.347600 0.473500
vt 0.205600 0.473500
vt 0.205600 0.045200
vt 0.324900 0.761600
vt 0.205600 0.819400
vt 0.063600 0.473500
vt 0.090800 0.204300
vt 0.086200 0.761600
vt 0.320400 0.204300
vt 0.205600 0.045200
vt 0.205600 0.473500
vt 0.347600 0.473500
vt 0.205600 0.819400
vt 0.324900 0.761600
vt 0.090800 0.204300
vt 0.063600 0.473500
vt 0.086200 0.761600
vt 0.320400 0.204300
vt 0.205600 0.045200
vt 0.205600 0.473500
vt 0.347600 0.473500
vt 0.205600 0.819400
vt 0.347600 0.819500
vt 0.205600 0.874600
vt 0.090800 0.204300
vt 0.063600 0.473500
vt 0.063600 0.819500
vt 0.320400 0.204300
vt 0.205600 0.045200
vt 0.205600 0.473500
vt 0.347600 0.473500
vt 0.205600 0.819400
vt 0.324900 0.761600
vt 0.090800 0.204300
vt 0.063600 0.473500
vt 0.086200 0.761600
vt 0.019100 0.321500
vt 0.019800 0.320000
vt 0.019600 0.685300
vt 0.019100 0.685800
vt 0.020500 0.320500
vt 0.020000 0.685600
vt 0.021200 0.322900
vt 0.020500 0.686800
vt 0.021800 0.325100
vt 0.020900 0.687900
vt 0.018500 0.322700
vt 0.018700 0.686300
vt 0.019400 0.980000
vt 0.019100 0.979200
vt 0.019700 0.980300
vt 0.020000 0.979900
vt 0.020300 0.979900
vt 0.018800 0.978800
vt 0.320400 0.204300
vt 0.347600 0.473500
vt 0.205600 0.473500
vt 0.205600 0.045200
vt 0.324900 0.761600
vt 0.205600 0.819400
vt 0.063600 0.473500
vt 0.090800 0.204300
vt 0.086200 0.761600
vt 0.320400 0.204300
vt 0.347600 0.473500
vt 0.205600 0.473500
vt 0.205600 0.045200
vt 0.347600 0.819500
vt 0.205600 0.819400
vt 0.205600 0.874600
vt 0.063600 0.473500
vt 0.090800 0.204300
vt 0.063600 0.819500
vt 0.320400 0.204300
vt 0.347600 0.473500
vt 0.205600 0.473500
vt 0.205600 0.045200
vt 0.324900 0.761600
vt 0.205600 0.819400
vt 0.063600 0.473500
vt 0.090800 0.204300
vt 0.086200 0.761600
vt 0.320400 0.204300
vt 0.347600 0.473500
vt 0.205600 0.473500
vt 0.205600 0.045200
vt 0.324900 0.761600
vt 0.205600 0.819400
vt 0.063600 0.473500
vt 0.090800 0.204300
vt 0.086200 0.761600
vt 0.320400 0.204300
vt 0.347600 0.473500
vt 0.205600 0.473500
vt 0.205600 0.045200
vt 0.347600 0.819500
vt 0.205600 0.819400
vt 0.208000 0.848800
vt 0.063600 0.473500
vt 0.090800 0.204300
vt 0.063600 0.819500
vt 0.320400 0.204300
vt 0.347600 0.473500
vt 0.205600 0.473500
vt 0.205600 0.045200
vt 0.324900 0.761600
vt 0.205600 0.819400
vt 0.063600 0.473500
vt 0.090800 0.204300
vt 0.086200 0.761600
vt 0.320400 0.204300
vt 0.205600 0.045200
vt 0.205600 0.473500
vt 0.347600 0.473500
vt 0.205600 0.819400
vt 0.324900 0.761600
vt 0.090800 0.204300
vt 0.063600 0.473500
vt 0.086200 0.761600
vt 0.320400 0.204300
vt 0.205600 0.045200
vt 0.205600 0.473500
vt 0.347600 0.473500
vt 0.205600 0.819400
vt 0.347600 0.819500
vt 0.205600 0.874600
vt 0.090800 0.204300
vt 0.063600 0.473500
vt 0.063600 0.819500
vt 0.320400 0.204300
vt 0.205600 0.045200
vt 0.205600 0.473500
vt 0.347600 0.473500
vt 0.205600 0.819400
vt 0.324900 0.761600
vt 0.090800 0.204300
vt 0.063600 0.473500
vt 0.086200 0.761600
vt 0.320400 0.204300
vt 0.205600 0.045200
vt 0.205600 0.473500
vt 0.347600 0.473500
vt 0.205600 0.819400
vt 0.324900 0.761600
vt 0.090800 0.204300
vt 0.063600 0.473500
vt 0.086200 0.761600
vt 0.320400 0.204300
vt 0.205600 0.045200
vt 0.205600 0.473500
vt 0.347600 0.473500
vt 0.205600 0.819400
vt 0.347600 0.819500
vt 0.208000 0.848800
vt 0.090800 0.204300
vt 0.063600 0.473500
vt 0.063600 0.819500
vt 0.320400 0.204300
vt 0.205600 0.045200
vt 0.205600 0.473500
vt 0.347600 0.473500
vt 0.205600 0.819400
vt 0.324900 0.761600
vt 0.090800 0.204300
vt 0.063600 0.473500
vt 0.086200 0.761600
vt 0.019100 0.026600
vt 0.020000 0.026700
vt 0.019800 0.320000
vt 0.019100 0.321500
vt 0.020800 0.027300
vt 0.020500 0.320500
vt 0.021700 0.028300
vt 0.021200 0.322900
vt 0.022500 0.029700
vt 0.021800 0.325100
vt 0.018300 0.026700
vt 0.018500 0.322700
vt 0.019600 0.685300
vt 0.019100 0.685800
vt 0.020000 0.685600
vt 0.020500 0.686800
vt 0.020900 0.687900
vt 0.018700 0.686300
vt 0.019400 0.980000
vt 0.019100 0.979200
vt 0.019700 0.980300
vt 0.020000 0.979900
vt 0.020300 0.979900
vt 0.018800 0.978800
vt 0.320400 0.204300
vt 0.347600 0.473500
vt 0.205600 0.473500
vt 0.205600 0.045200
vt 0.324900 0.761600
vt 0.205600 0.819400
vt 0.063600 0.473500
vt 0.090800 0.204300
vt 0.086200 0.761600
vt 0.320400 0.204300
vt 0.347600 0.473500
vt 0.205600 0.473500
vt 0.205600 0.045200
vt 0.347600 0.819500
vt 0.205600 0.819400
vt 0.205600 0.874600
vt 0.063600 0.473500
vt 0.090800 0.204300
vt 0.063600 0.819500
vt 0.320400 0.204300
vt 0.347600 0.473500
vt 0.205600 0.473500
vt 0.205600 0.045200
vt 0.324900 0.761600
vt 0.205600 0.819400
vt 0.063600 0.473500
vt 0.090800 0.204300
vt 0.086200 0.761600
vt 0.320400 0.204300
vt 0.347600 0.473500
vt 0.205600 0.473500
vt 0.205600 0.045200
vt 0.324900 0.761600
vt 0.205600 0.819400
vt 0.063600 0.473500
vt 0.090800 0.204300
vt 0.086200 0.761600
vt 0.320400 0.204300
vt 0.347600 0.473500
vt 0.205600 0.473500
vt 0.205600 0.045200
vt 0.347600 0.819500
vt 0.205600 0.819400
vt 0.208000 0.848800
vt 0.063600 0.473500
vt 0.090800 0.204300
vt 0.063600 0.819500
vt 0.320400 0.204300
vt 0.347600 0.473500
vt 0.205600 0.473500
vt 0.205600 0.045200
vt 0.324900 0.761600
vt 0.205600 0.819400
vt 0.063600 0.473500
vt 0.090800 0.204300
vt 0.086200 0.761600
vt 0.320400 0.204300
vt 0.347600 0.473500
vt 0.205600 0.473500
vt 0.205600 0.045200
vt 0.324900 0.761600
vt 0.205600 0.819400
vt 0.063600 0.473500
vt 0.090800 0.204300
vt 0.086200 0.761600
vt 0.320400 0.204300
vt 0.347600 0.473500
vt 0.205600 0.473500
vt 0.205600 0.045200
vt 0.347600 0.819500
vt 0.205600 0.819400
vt 0.205600 0.874600
vt 0.063600 0.473500
vt 0.090800 0.204300
vt 0.063600 0.819500
vt 0.320400 0.204300
vt 0.347600 0.473500
vt 0.205600 0.473500
vt 0.205600 0.045200
vt 0.324900 0.761600
vt 0.205600 0.819400
vt 0.063600 0.473500
vt 0.090800 0.204300
vt 0.086200 0.761600
vt 0.320400 0.204300
vt 0.205600 0.045200
vt 0.205600 0.473500
vt 0.347600 0.473500
vt 0.205600 0.819400
vt 0.324900 0.761600
vt 0.090800 0.204300
vt 0.063600 0.473500
vt 0.086200 0.761600
vt 0.320400 0.204300
vt 0.205600 0.045200
vt 0.205600 0.473500
vt 0.347600 0.473500
vt 0.205600 0.819400
vt 0.347600 0.819500
vt 0.205600 0.874600
vt 0.090800 0.204300
vt 0.063600 0.473500
vt 0.063600 0.819500
vt 0.320400 0.204300
vt 0.205600 0.045200
vt 0.205600 0.473500
vt 0.347600 0.473500
vt 0.205600 0.819400
vt 0.324900 0.761600
vt 0.090800 0.204300
vt 0.063600 0.473500
vt 0.086200 0.761600
vt 0.320400 0.204300
vt 0.205600 0.045200
vt 0.205600 0.473500
vt 0.347600 0.473500
vt 0.205600 0.819400
vt 0.324900 0.761600
vt 0.090800 0.204300
vt 0.063600 0.473500
vt 0.086200 0.761600
vt 0.320400 0.204300
vt 0.205600 0.045200
vt 0.205600 0.473500
vt 0.347600 0.473500
vt 0.205600 0.819400
vt 0.347600 0.819500
vt 0.205600 0.874600
vt 0.090800 0.204300
vt 0.063600 0.473500
vt 0.063600 0.819500
vt 0.320400 0.204300
vt 0.205600 0.045200
vt 0.205600 0.473500
vt 0.347600 0.473500
vt 0.205600 0.819400
vt 0.324900 0.761600
vt 0.090800 0.204300
vt 0.063600 0.473500
vt 0.086200 0.761600
vt 0.320400 0.204300
vt 0.205600 0.045200
vt 0.205600 0.473500
vt 0.347600 0.473500
vt 0.205600 0.819400
vt 0.324900 0.761600
vt 0.090800 0.204300
vt 0.063600 0.473500
vt 0.086200 0.761600
vt 0.320400 0.204300
vt 0.205600 0.045200
vt 0.205600 0.473500
vt 0.347600 0.473500
vt 0.205600 0.819400
vt 0.347600 0.819500
vt 0.208000 0.848800
vt 0.090800 0.204300
vt 0.063600 0.473500
vt 0.063600 0.819500
vt 0.320400 0.204300
vt 0.205600 0.045200
vt 0.205600 0.473500
vt 0.347600 0.473500
vt 0.205600 0.819400
vt 0.324900 0.761600
vt 0.090800 0.204300
vt 0.063600 0.473500
vt 0.086200 0.761600
vn -0.4849 0.7885 0.3782
vn -0.3721 0.8821 0.2887
vn -0.3491 0.7072 0.6148
vn -0.4879 0.6587 0.5727
vn -0.2326 0.9379 0.2575
vn -0.2001 0.7520 0.6281
vn -0.3404 0.5018 0.7952
vn -0.6004 0.6004 0.5283
vn -0.1807 0.4801 0.8584
vn -0.4317 0.7857 0.4431
vn -0.4834 0.8292 0.2806
vn -0.1688 0.8900 0.4236
vn -0.2237 0.8059 0.5481
vn -0.3178 0.9469 -0.0498
vn 0.0690 0.9855 -0.1553
vn 0.2115 0.8536 -0.4760
vn 0.0960 0.8540 0.5113
vn -0.2661 0.7193 0.6417
vn 0.2499 0.9469 0.2024
vn -0.1778 0.4022 0.8981
vn -0.3277 0.3190 0.8893
vn -0.2095 0.6377 0.7413
vn -0.0776 0.5909 0.8030
vn -0.4683 0.2927 0.8336
vn -0.3475 0.6557 0.6703
vn -0.0662 0.8092 0.5837
vn 0.0420 0.5419 0.8394
vn -0.1638 0.8745 0.4565
vn 0.9832 0.0096 -0.1822
vn 0.1307 0.0107 -0.9914
vn 0.1135 0.0845 -0.9899
vn 0.9769 -0.0100 -0.2136
vn -0.9023 0.0107 -0.4310
vn -0.8917 0.0845 -0.4447
vn -0.6888 0.0096 0.7249
vn -0.7117 -0.0100 0.7024
vn 0.4768 0.0090 0.8790
vn 0.4753 -0.0799 0.8762
vn 0.1315 0.0888 -0.9873
vn 0.9844 -0.0752 -0.1594
vn -0.9053 0.1384 -0.4016
vn -0.6781 0.0137 0.7348
vn 0.4577 -0.1078 0.8825
vn 0.1648 0.0113 -0.9863
vn 0.9824 -0.0970 -0.1599
vn -0.8623 0.1198 -0.4920
vn -0.7386 0.0849 0.6688
vn 0.4290 -0.0527 0.9018
vn 0.6107 0.7885 0.0722
vn 0.4676 0.8821 0.0564
vn 0.6805 0.7072 -0.1916
vn 0.7496 0.6587 -0.0641
vn 0.3464 0.9379 -0.0195
vn 0.5839 0.7520 -0.3059
vn 0.8012 0.5018 -0.3260
vn 0.7984 0.6004 0.0466
vn 0.7321 0.4801 -0.4832
vn 0.6185 0.7857 -0.0115
vn 0.5410 0.8292 0.1405
vn 0.4179 0.8900 -0.1824
vn 0.5445 0.8059 -0.2324
vn 0.1909 0.9469 0.2589
vn -0.1582 0.9855 0.0619
vn -0.4851 0.8536 0.1897
vn 0.2913 0.8540 -0.4310
vn 0.6404 0.7193 -0.2691
vn -0.0353 0.9469 -0.3197
vn 0.7580 0.4022 -0.5135
vn 0.8584 0.3190 -0.4018
vn 0.6702 0.6377 -0.3797
vn 0.6198 0.5909 -0.5163
vn 0.9192 0.2927 -0.2634
vn 0.7184 0.6557 -0.2322
vn 0.4576 0.8092 -0.3685
vn 0.5604 0.5419 -0.6263
vn 0.4375 0.8745 -0.2094
vn -0.1308 0.9754 0.1775
vn -0.2356 0.9710 0.0415
vn 0.1335 0.9884 0.0723
vn 0.0991 0.9704 0.2202
vn -0.2679 0.9574 -0.1079
vn 0.1464 0.9857 -0.0833
vn 0.3895 0.9118 0.1302
vn 0.0716 0.9352 0.3469
vn 0.4793 0.8775 -0.0138
vn -0.0652 0.9898 0.1269
vn -0.2343 0.9582 0.1644
vn -0.0917 0.9836 -0.1552
vn 0.0478 0.9958 -0.0777
vn -0.5316 0.8469 -0.0116
vn -0.5688 0.7283 -0.3822
vn -0.7572 0.4549 -0.4687
vn 0.0424 0.9183 -0.3937
vn 0.1636 0.9865 -0.0104
vn -0.2266 0.7995 -0.5563
vn 0.5516 0.8340 0.0091
vn 0.5610 0.8083 0.1786
vn 0.2977 0.9539 -0.0380
vn 0.3939 0.9073 -0.1473
vn 0.5039 0.8019 0.3210
vn 0.2065 0.9746 0.0871
vn 0.1013 0.9685 -0.2277
vn 0.4676 0.8497 -0.2437
vn -0.0550 0.9863 -0.1554
vn -0.6107 -0.7885 -0.0722
vn -0.7496 -0.6587 0.0641
vn -0.6805 -0.7072 0.1916
vn -0.4676 -0.8821 -0.0564
vn -0.5839 -0.7520 0.3059
vn -0.3464 -0.9379 0.0195
vn -0.7984 -0.6004 -0.0467
vn -0.8012 -0.5018 0.3260
vn -0.7321 -0.4801 0.4832
vn -0.6185 -0.7857 0.0114
vn -0.5445 -0.8059 0.2324
vn -0.4179 -0.8900 0.1824
vn -0.5410 -0.8292 -0.1405
vn 0.1583 -0.9855 -0.0619
vn -0.1909 -0.9469 -0.2589
vn 0.4851 -0.8536 -0.1897
vn -0.6404 -0.7193 0.2691
vn -0.2913 -0.8540 0.4310
vn 0.0353 -0.9469 0.3197
vn -0.7580 -0.4022 0.5135
vn -0.6198 -0.5909 0.5163
vn -0.6702 -0.6377 0.3797
vn -0.8584 -0.3190 0.4018
vn -0.7184 -0.6557 0.2323
vn -0.9192 -0.2927 0.2634
vn -0.5604 -0.5419 0.6263
vn -0.4575 -0.8093 0.3685
vn -0.4375 -0.8745 0.2094
vn 0.1307 -0.9754 -0.1775
vn -0.0992 -0.9704 -0.2202
vn -0.1335 -0.9884 -0.0723
vn 0.2356 -0.9710 -0.0415
vn -0.1464 -0.9857 0.0833
vn 0.2678 -0.9574 0.1079
vn -0.0716 -0.9352 -0.3469
vn -0.3895 -0.9118 -0.1302
vn -0.4793 -0.8776 0.0138
vn 0.0652 -0.9898 -0.1269
vn -0.0478 -0.9958 0.0778
vn 0.0917 -0.9836 0.1552
vn 0.2343 -0.9582 -0.1644
vn 0.5688 -0.7283 0.3822
vn 0.5316 -0.8469 0.0116
vn 0.7572 -0.4549 0.4687
vn -0.1636 -0.9865 0.0104
vn -0.0424 -0.9183 0.3937
vn 0.2266 -0.7995 0.5562
vn -0.5516 -0.8340 -0.0091
vn -0.3939 -0.9073 0.1473
vn -0.2977 -0.9539 0.0380
vn -0.5610 -0.8083 -0.1786
vn -0.2065 -0.9746 -0.0871
vn -0.5039 -0.8019 -0.3210
vn -0.4676 -0.8497 0.2437
vn -0.1012 -0.9685 0.2277
vn 0.0550 -0.9863 0.1554
vn 0.4849 -0.7885 -0.3782
vn 0.4879 -0.6587 -0.5727
vn 0.3491 -0.7072 -0.6148
vn 0.3721 -0.8821 -0.2887
vn 0.2001 -0.7520 -0.6281
vn 0.2326 -0.9379 -0.2574
vn 0.6004 -0.6004 -0.5283
vn 0.3404 -0.5018 -0.7952
vn 0.1807 -0.4801 -0.8584
vn 0.4317 -0.7857 -0.4431
vn 0.2237 -0.8059 -0.5481
vn 0.1688 -0.8900 -0.4236
vn 0.4834 -0.8292 -0.2806
vn -0.0690 -0.9855 0.1553
vn 0.3178 -0.9469 0.0498
vn -0.2115 -0.8536 0.4760
vn 0.2661 -0.7193 -0.6417
vn -0.0960 -0.8540 -0.5113
vn -0.2499 -0.9469 -0.2024
vn 0.1778 -0.4022 -0.8981
vn 0.0776 -0.5909 -0.8030
vn 0.2095 -0.6377 -0.7413
vn 0.3277 -0.3190 -0.8893
vn 0.3475 -0.6557 -0.6703
vn 0.4683 -0.2927 -0.8336
vn -0.0420 -0.5419 -0.8394
vn 0.0662 -0.8092 -0.5837
vn 0.1638 -0.8745 -0.4565
vn 0.5583 0.1100 0.8223
vn 0.9420 0.3294 -0.0641
vn 0.9622 0.2409 0.1271
vn 0.1666 -0.1029 0.9806
vn 0.3648 0.2208 -0.9045
vn 0.3637 0.2526 -0.8966
vn -0.8006 -0.2144 -0.5595
vn -0.7272 -0.0493 -0.6847
vn -0.6348 -0.2852 0.7181
vn -0.8642 -0.2645 0.4281
vn 0.9775 0.1284 0.1676
vn 0.1835 -0.1759 0.9672
vn 0.4612 0.2749 -0.8436
vn -0.6824 0.0695 -0.7277
vn -0.8813 -0.2194 0.4185
vn -0.3097 0.9504 -0.0284
vn -0.1756 0.9755 -0.1327
vn -0.2043 0.9500 0.2360
vn -0.3487 0.9157 0.1996
vn -0.0261 0.9858 -0.1659
vn -0.0496 0.9672 0.2490
vn -0.2483 0.8400 0.4825
vn -0.4697 0.8666 0.1682
vn -0.1000 0.8165 0.5686
vn -0.2609 0.9646 0.0384
vn -0.2956 0.9460 -0.1331
vn 0.0192 0.9997 0.0123
vn -0.0576 0.9867 0.1520
vn -0.1096 0.8913 -0.4400
vn 0.2733 0.8288 -0.4883
vn 0.3940 0.5909 -0.7040
vn 0.2658 0.9539 0.1394
vn -0.1217 0.9562 0.2661
vn 0.4400 0.8870 -0.1400
vn -0.1160 0.7630 0.6359
vn -0.2803 0.7136 0.6420
vn -0.0885 0.9139 0.3961
vn 0.0273 0.8729 0.4872
vn -0.4211 0.6938 0.5842
vn -0.2162 0.9268 0.3071
vn 0.0952 0.9746 0.2028
vn 0.1315 0.8216 0.5547
vn 0.0195 0.9986 0.0490
vn 0.3097 -0.9504 0.0284
vn 0.3488 -0.9157 -0.1996
vn 0.2043 -0.9500 -0.2360
vn 0.1756 -0.9755 0.1327
vn 0.0496 -0.9672 -0.2491
vn 0.0261 -0.9858 0.1658
vn 0.4698 -0.8666 -0.1681
vn 0.2483 -0.8400 -0.4825
vn 0.1000 -0.8165 -0.5686
vn 0.2608 -0.9646 -0.0384
vn 0.0576 -0.9867 -0.1520
vn -0.0192 -0.9997 -0.0123
vn 0.2956 -0.9460 0.1331
vn -0.2733 -0.8288 0.4883
vn 0.1096 -0.8913 0.4400
vn -0.3940 -0.5909 0.7040
vn 0.1217 -0.9562 -0.2660
vn -0.2659 -0.9539 -0.1394
vn -0.4399 -0.8870 0.1400
vn 0.1160 -0.7630 -0.6359
vn -0.0273 -0.8729 -0.4872
vn 0.0885 -0.9139 -0.3961
vn 0.2803 -0.7136 -0.6420
vn 0.2162 -0.9268 -0.3071
vn 0.4211 -0.6938 -0.5842
vn -0.1314 -0.8216 -0.5547
vn -0.0952 -0.9746 -0.2028
vn -0.0195 -0.9986 -0.0490
vn -0.4097 0.9110 -0.0480
vn -0.2882 0.9432 -0.1651
vn -0.2829 0.9369 0.2056
vn -0.4255 0.8861 0.1840
vn -0.1439 0.9666 -0.2119
vn -0.1303 0.9703 0.2038
vn -0.2942 0.8377 0.4602
vn -0.5429 0.8232 0.1660
vn -0.1375 0.8344 0.5337
vn -0.3571 0.9340 0.0134
vn -0.4040 0.9018 -0.1532
vn -0.0855 0.9955 -0.0396
vn -0.1485 0.9831 0.1070
vn -0.2269 0.8401 -0.4927
vn 0.1621 0.7939 -0.5861
vn 0.2927 0.5179 -0.8038
vn 0.1744 0.9824 0.0671
vn -0.1992 0.9531 0.2277
vn 0.3374 0.9096 -0.2425
vn -0.1420 0.7836 0.6048
vn -0.2991 0.7184 0.6281
vn -0.1509 0.9222 0.3562
vn -0.0242 0.8984 0.4385
vn -0.4414 0.6811 0.5842
vn -0.2863 0.9168 0.2785
vn 0.0085 0.9895 0.1444
vn 0.0901 0.8620 0.4988
vn -0.0821 0.9966 -0.0030
vn 0.4097 -0.9110 0.0480
vn 0.4255 -0.8861 -0.1840
vn 0.2829 -0.9369 -0.2056
vn 0.2882 -0.9432 0.1650
vn 0.1303 -0.9703 -0.2038
vn 0.1440 -0.9666 0.2120
vn 0.5429 -0.8233 -0.1660
vn 0.2942 -0.8377 -0.4602
vn 0.1375 -0.8344 -0.5337
vn 0.3571 -0.9340 -0.0133
vn 0.1485 -0.9831 -0.1070
vn 0.0855 -0.9955 0.0396
vn 0.4040 -0.9018 0.1532
vn -0.1621 -0.7939 0.5861
vn 0.2269 -0.8401 0.4927
vn -0.2926 -0.5180 0.8038
vn 0.1992 -0.9531 -0.2277
vn -0.1744 -0.9824 -0.0671
vn -0.3374 -0.9096 0.2425
vn 0.1420 -0.7836 -0.6048
vn 0.0242 -0.8984 -0.4385
vn 0.1509 -0.9221 -0.3562
vn 0.2991 -0.7184 -0.6281
vn 0.2863 -0.9167 -0.2786
vn 0.4414 -0.6811 -0.5842
vn -0.0901 -0.8620 -0.4988
vn -0.0085 -0.9895 -0.1444
vn 0.0821 -0.9966 0.0030
vn 0.0505 -0.0378 -0.9980
vn -0.8560 0.2937 -0.4254
vn -0.6376 0.0813 -0.7661
vn 0.5235 -0.0631 -0.8497
vn -0.8087 0.3007 0.5056
vn -0.8783 0.1267 0.4610
vn 0.2152 -0.0465 0.9755
vn 0.2129 -0.0315 0.9766
vn 0.9415 -0.3284 -0.0756
vn 0.9815 -0.1107 0.1564
vn -0.7014 -0.0468 -0.7112
vn 0.4468 0.0600 -0.8926
vn -0.9063 -0.0897 0.4130
vn 0.1032 -0.0119 0.9946
vn 0.9798 0.0843 0.1816
vn 0.6101 0.7918 0.0299
vn 0.4655 0.8843 0.0346
vn 0.6489 0.7210 -0.2431
vn 0.7328 0.6686 -0.1264
vn 0.3359 0.9416 -0.0244
vn 0.5393 0.7689 -0.3435
vn 0.7543 0.5220 -0.3983
vn 0.7946 0.6067 -0.0245
vn 0.6674 0.5053 -0.5471
vn 0.6080 0.7921 -0.0540
vn 0.5486 0.8291 0.1075
vn 0.3881 0.9005 -0.1963
vn 0.5085 0.8197 -0.2639
vn 0.2120 0.9389 0.2713
vn -0.1659 0.9785 0.1227
vn -0.4791 0.8304 0.2844
vn 0.2334 0.8724 -0.4295
vn 0.5999 0.7355 -0.3148
vn -0.0809 0.9579 -0.2756
vn 0.6899 0.4289 -0.5832
vn 0.8032 0.3427 -0.4872
vn 0.6170 0.6583 -0.4312
vn 0.5513 0.6161 -0.5626
vn 0.8801 0.3120 -0.3579
vn 0.6821 0.6714 -0.2898
vn 0.4061 0.8271 -0.3886
vn 0.4796 0.5705 -0.6667
vn 0.4044 0.8862 -0.2259
vn 0.2394 0.9337 0.2661
vn 0.1312 0.9084 0.3969
vn 0.0768 0.9962 0.0409
vn 0.2278 0.9730 0.0358
vn -0.0072 0.8878 0.4601
vn -0.0777 0.9949 0.0644
vn 0.0712 0.9703 -0.2313
vn 0.3560 0.9341 0.0259
vn -0.0908 0.9528 -0.2897
vn 0.1757 0.9600 0.2180
vn 0.2499 0.8970 0.3647
vn -0.0928 0.9469 0.3080
vn -0.0491 0.9860 0.1591
vn 0.1628 0.7652 0.6229
vn -0.2029 0.6642 0.7195
vn -0.2433 0.4219 0.8734
vn -0.3580 0.9066 0.2234
vn -0.0107 0.9995 0.0311
vn -0.4478 0.7790 0.4388
vn -0.0868 0.9241 -0.3722
vn 0.0749 0.9018 -0.4256
vn -0.0696 0.9929 -0.0965
vn -0.1998 0.9647 -0.1715
vn 0.2262 0.8856 -0.4055
vn 0.0738 0.9967 -0.0348
vn -0.2082 0.9683 0.1379
vn -0.3127 0.9215 -0.2301
vn -0.1013 0.9565 0.2735
vn -0.6101 -0.7918 -0.0299
vn -0.7328 -0.6686 0.1264
vn -0.6489 -0.7210 0.2431
vn -0.4655 -0.8843 -0.0346
vn -0.5393 -0.7689 0.3435
vn -0.3359 -0.9416 0.0244
vn -0.7946 -0.6067 0.0245
vn -0.7543 -0.5220 0.3983
vn -0.6673 -0.5053 0.5471
vn -0.6080 -0.7921 0.0540
vn -0.5085 -0.8197 0.2639
vn -0.3881 -0.9005 0.1963
vn -0.5486 -0.8291 -0.1075
vn 0.1563 -0.9807 -0.1179
vn -0.2167 -0.9383 -0.2693
vn 0.4657 -0.8404 -0.2773
vn -0.5999 -0.7355 0.3148
vn -0.2334 -0.8724 0.4295
vn 0.0774 -0.9575 0.2780
vn -0.6899 -0.4289 0.5832
vn -0.5513 -0.6161 0.5626
vn -0.6170 -0.6583 0.4312
vn -0.8032 -0.3427 0.4872
vn -0.6821 -0.6714 0.2898
vn -0.8801 -0.3120 0.3579
vn -0.4796 -0.5705 0.6667
vn -0.4061 -0.8271 0.3886
vn -0.4044 -0.8862 0.2259
vn -0.2394 -0.9337 -0.2661
vn -0.2278 -0.9730 -0.0358
vn -0.0768 -0.9962 -0.0409
vn -0.1312 -0.9084 -0.3969
vn 0.0777 -0.9949 -0.0644
vn 0.0072 -0.8878 -0.4601
vn -0.3560 -0.9341 -0.0259
vn -0.0712 -0.9703 0.2313
vn 0.0908 -0.9528 0.2897
vn -0.1757 -0.9600 -0.2180
vn 0.0491 -0.9860 -0.1591
vn 0.0928 -0.9469 -0.3080
vn -0.2499 -0.8970 -0.3647
vn 0.2029 -0.6642 -0.7195
vn -0.1628 -0.7652 -0.6229
vn 0.2433 -0.4220 -0.8734
vn 0.0107 -0.9995 -0.0311
vn 0.3580 -0.9066 -0.2234
vn 0.4479 -0.7790 -0.4388
vn 0.0868 -0.9241 0.3723
vn 0.1998 -0.9647 0.1716
vn 0.0696 -0.9929 0.0965
vn -0.0749 -0.9018 0.4256
vn -0.0738 -0.9967 0.0348
vn -0.2262 -0.8856 0.4055
vn 0.3127 -0.9215 0.2301
vn 0.2082 -0.9683 -0.1379
vn 0.1013 -0.9565 -0.2735
vn -0.7107 0.0364 -0.7026
vn -0.8727 -0.1074 0.4763
vn -0.8180 -0.0083 0.5752
vn -0.7656 -0.1928 -0.6138
vn 0.2422 -0.0856 0.9664
vn 0.2054 0.1529 0.9667
vn 0.9958 0.0681 0.0612
vn 0.9689 0.1746 0.1755
vn 0.4077 0.1359 -0.9029
vn 0.4684 -0.0317 -0.8830
vn -0.8019 -0.0582 0.5947
vn -0.7906 -0.2467 -0.5605
vn 0.3714 0.2458 0.8953
vn 0.9724 0.1709 -0.1586
vn 0.2307 -0.0992 -0.9680
vn -0.7298 -0.1545 0.6660
vn -0.8599 -0.1273 -0.4943
vn 0.3665 0.0385 0.9296
vn 0.9791 0.1965 -0.0516
vn 0.2171 0.0950 -0.9715
vn -0.0934 0.7587 -0.6447
vn -0.1161 0.8555 -0.5047
vn -0.3438 0.6325 -0.6940
vn -0.2143 0.6019 -0.7693
vn -0.1930 0.9042 -0.3811
vn -0.4582 0.6630 -0.5921
vn -0.4494 0.4024 -0.7976
vn -0.0985 0.5598 -0.8227
vn -0.5967 0.3591 -0.7177
vn -0.1757 0.7420 -0.6469
vn -0.0288 0.8133 -0.5812
vn -0.3497 0.8271 -0.4399
vn -0.3924 0.7299 -0.5596
vn 0.0886 0.9656 -0.2444
vn -0.0917 0.9891 0.1150
vn 0.0746 0.8960 0.4378
vn -0.5813 0.7578 -0.2962
vn -0.4198 0.6340 -0.6495
vn -0.4682 0.8834 0.0186
vn -0.6153 0.2761 -0.7384
vn -0.4974 0.2072 -0.8424
vn -0.5171 0.5341 -0.6688
vn -0.6410 0.4685 -0.6079
vn -0.3602 0.2006 -0.9111
vn -0.3776 0.5733 -0.7272
vn -0.5219 0.7156 -0.4643
vn -0.7379 0.4053 -0.5396
vn -0.3748 0.8066 -0.4571
vn 0.0869 0.9590 -0.2697
vn 0.2135 0.9648 -0.1538
vn -0.1555 0.9803 -0.1218
vn -0.1469 0.9511 -0.2717
vn 0.2711 0.9625 -0.0115
vn -0.1415 0.9894 0.0335
vn -0.4168 0.8998 -0.1290
vn -0.1411 0.9064 -0.3982
vn -0.4801 0.8767 0.0305
vn 0.0308 0.9773 -0.2098
vn 0.1913 0.9427 -0.2733
vn 0.1054 0.9924 0.0632
vn -0.0455 0.9989 0.0102
vn 0.4650 0.8694 -0.1669
vn 0.5580 0.8034 0.2076
vn 0.7547 0.5991 0.2672
vn 0.0150 0.9454 0.3254
vn -0.1710 0.9846 -0.0352
vn 0.2459 0.8676 0.4321
vn -0.5548 0.8316 0.0236
vn -0.5928 0.7932 -0.1393
vn -0.2980 0.9544 0.0173
vn -0.3735 0.9163 0.1447
vn -0.5610 0.7759 -0.2885
vn -0.2299 0.9654 -0.1228
vn -0.0721 0.9830 0.1687
vn -0.4288 0.8662 0.2564
vn 0.0693 0.9952 0.0696
vn -0.0041 0.7885 -0.6150
vn -0.0020 0.8821 -0.4710
vn -0.2745 0.7072 -0.6515
vn -0.1565 0.6587 -0.7359
vn -0.0623 0.9379 -0.3413
vn -0.3759 0.7520 -0.5415
vn -0.4228 0.5018 -0.7546
vn -0.0527 0.6004 -0.7980
vn -0.5703 0.4801 -0.6666
vn -0.0880 0.7857 -0.6123
vn 0.0723 0.8292 -0.5543
vn -0.2328 0.8900 -0.3921
vn -0.2981 0.8059 -0.5115
vn 0.2332 0.9469 -0.2215
vn 0.0810 0.9855 0.1494
vn 0.2484 0.8536 0.4579
vn -0.4638 0.8540 -0.2356
vn -0.3464 0.7193 -0.6021
vn -0.3128 0.9469 0.0747
vn -0.6036 0.4022 -0.6884
vn -0.5052 0.3190 -0.8019
vn -0.4599 0.6377 -0.6180
vn -0.5892 0.5909 -0.5510
vn -0.3753 0.2928 -0.8795
vn -0.3195 0.6557 -0.6841
vn -0.4224 0.8092 -0.4083
vn -0.6910 0.5419 -0.4784
vn -0.2620 0.8745 -0.4081
vn 0.0041 -0.7885 0.6150
vn 0.1565 -0.6587 0.7359
vn 0.2745 -0.7072 0.6515
vn 0.0020 -0.8821 0.4710
vn 0.3759 -0.7520 0.5415
vn 0.0623 -0.9379 0.3413
vn 0.0527 -0.6004 0.7980
vn 0.4228 -0.5018 0.7546
vn 0.5703 -0.4801 0.6666
vn 0.0880 -0.7857 0.6123
vn 0.2981 -0.8059 0.5115
vn 0.2328 -0.8900 0.3920
vn -0.0723 -0.8292 0.5542
vn -0.0810 -0.9855 -0.1494
vn -0.2332 -0.9469 0.2215
vn -0.2484 -0.8536 -0.4578
vn 0.3464 -0.7193 0.6021
vn 0.4638 -0.8540 0.2356
vn 0.3128 -0.9469 -0.0747
vn 0.6036 -0.4022 0.6884
vn 0.5892 -0.5909 0.5510
vn 0.4599 -0.6377 0.6180
vn 0.5052 -0.3190 0.8019
vn 0.3195 -0.6557 0.6841
vn 0.3753 -0.2927 0.8795
vn 0.6910 -0.5419 0.4784
vn 0.4224 -0.8092 0.4083
vn 0.2620 -0.8745 0.4081
vn 0.0934 -0.7587 0.6447
vn 0.2143 -0.6019 0.7693
vn 0.3438 -0.6325 0.6940
vn 0.1161 -0.8555 0.5047
vn 0.4582 -0.6630 0.5920
vn 0.1930 -0.9042 0.3811
vn 0.0984 -0.5598 0.8227
vn 0.4494 -0.4024 0.7976
vn 0.5967 -0.3591 0.7177
vn 0.1757 -0.7420 0.6469
vn 0.3924 -0.7299 0.5596
vn 0.3497 -0.8271 0.4399
vn 0.0288 -0.8132 0.5812
vn 0.0917 -0.9891 -0.1150
vn -0.0886 -0.9656 0.2444
vn -0.0746 -0.8960 -0.4378
vn 0.4198 -0.6340 0.6495
vn 0.5813 -0.7578 0.2962
vn 0.4682 -0.8834 -0.0186
vn 0.6153 -0.2761 0.7384
vn 0.6410 -0.4685 0.6079
vn 0.5171 -0.5341 0.6688
vn 0.4974 -0.2072 0.8424
vn 0.3776 -0.5733 0.7272
vn 0.3602 -0.2006 0.9111
vn 0.7379 -0.4053 0.5396
vn 0.5219 -0.7156 0.4643
vn 0.3748 -0.8066 0.4571
vn -0.0868 -0.9590 0.2697
vn 0.1469 -0.9511 0.2717
vn 0.1555 -0.9803 0.1218
vn -0.2135 -0.9648 0.1538
vn 0.1415 -0.9894 -0.0335
vn -0.2711 -0.9625 0.0116
vn 0.1411 -0.9064 0.3982
vn 0.4168 -0.8998 0.1290
vn 0.4801 -0.8767 -0.0305
vn -0.0308 -0.9773 0.2098
vn 0.0455 -0.9989 -0.0103
vn -0.1054 -0.9924 -0.0633
vn -0.1913 -0.9427 0.2733
vn -0.5580 -0.8035 -0.2076
vn -0.4650 -0.8694 0.1669
vn -0.7547 -0.5992 -0.2672
vn 0.1710 -0.9846 0.0352
vn -0.0150 -0.9454 -0.3254
vn -0.2459 -0.8676 -0.4321
vn 0.5548 -0.8316 -0.0237
vn 0.3735 -0.9163 -0.1447
vn 0.2980 -0.9544 -0.0173
vn 0.5928 -0.7932 0.1393
vn 0.2299 -0.9654 0.1228
vn 0.5610 -0.7759 0.2885
vn 0.4287 -0.8663 -0.2564
vn 0.0721 -0.9830 -0.1687
vn -0.0693 -0.9952 -0.0696
s 1
f 1/1/1 2/2/2 3/3/3
f 3/3/3 4/4/4 1/1/1
f 2/2/2 5/5/5 6/6/6
f 6/6/6 3/3/3 2/2/2
f 4/4/4 3/3/3 7/7/7
f 7/7/7 8/8/8 4/4/4
f 3/3/3 6/6/6 9/9/9
f 9/9/9 7/7/7 3/3/3
s 2
f 10/10/10 11/11/11 12/12/12
f 12/12/12 13/13/13 10/10/10
f 11/11/11 14/14/14 15/15/15
f 15/15/15 12/12/12 11/11/11
f 14/14/14 16/16/16 15/15/15
f 13/13/13 12/12/12 17/17/17
f 17/17/17 18/18/18 13/13/13
f 12/12/12 15/15/15 19/19/19
f 19/19/19 17/17/17 12/12/12
f 15/15/15 16/16/16 19/19/19
s 3
f 20/20/20 21/21/21 22/22/22
f 22/22/22 23/23/23 20/20/20
f 21/21/21 24/24/24 25/25/25
f 25/25/25 22/22/22 21/21/21
f 23/23/23 22/22/22 26/26/26
f 26/26/26 27/27/27 23/23/23
f 22/22/22 25/25/25 28/28/28
f 28/28/28 26/26/26 22/22/22
s 4
f 29/29/29 30/30/30 31/31/31
f 31/31/31 32/32/32 29/29/29
f 30/30/30 33/33/33 34/34/34
f 34/34/34 31/31/31 30/30/30
f 33/33/33 35/35/35 36/36/36
f 36/36/36 34/34/34 33/33/33
f 35/35/35 37/37/37 38/38/38
f 38/38/38 36/36/36 35/35/35
f 37/39/37 29/29/29 32/32/32
f 32/32/32 38/40/38 37/39/37
f 32/32/32 31/31/31 39/41/39
f 39/41/39 40/42/40 32/32/32
f 31/31/31 34/34/34 41/43/41
f 41/43/41 39/41/39 31/31/31
f 34/34/34 36/36/36 42/44/42
f 42/44/42 41/43/41 34/34/34
f 36/36/36 38/38/38 43/45/43
f 43/45/43 42/44/42 36/36/36
f 38/40/38 32/32/32 40/42/40
f 40/42/40 43/46/43 38/40/38
f 40/42/40 39/41/39 44/47/44
f 44/47/44 45/48/45 40/42/40
f 39/41/39 41/43/41 46/49/46
f 46/49/46 44/47/44 39/41/39
f 41/43/41 42/44/42 47/50/47
f 47/50/47 46/49/46 41/43/41
f 42/44/42 43/45/43 48/51/48
f 48/51/48 47/50/47 42/44/42
f 43/46/43 40/42/40 45/48/45
f 45/48/45 48/52/48 43/46/43
s 5
f 49/53/49 50/54/50 51/55/51
f 51/55/51 52/56/52 49/53/49
f 50/54/50 53/57/53 54/58/54
f 54/58/54 51/55/51 50/54/50
f 52/56/52 51/55/51 55/59/55
f 55/59/55 56/60/56 52/56/52
f 51/55/51 54/58/54 57/61/57
f 57/61/57 55/59/55 51/55/51
s 6
f 58/62/58 59/63/59 60/64/60
f 60/64/60 61/65/61 58/62/58
f 59/63/59 62/66/62 63/67/63
f 63/67/63 60/64/60 59/63/59
f 62/66/62 64/68/64 63/67/63
f 61/65/61 60/64/60 65/69/65
f 65/69/65 66/70/66 61/65/61
f 60/64/60 63/67/63 67/71/67
f 67/71/67 65/69/65 60/64/60
f 63/67/63 64/68/64 67/71/67
s 7
f 68/72/68 69/73/69 70/74/70
f 70/74/70 71/75/71 68/72/68
f 69/73/69 72/76/72 73/77/73
f 73/77/73 70/74/70 69/73/69
f 71/75/71 70/74/70 74/78/74
f 74/78/74 75/79/75 71/75/71
f 70/74/70 73/77/73 76/80/76
f 76/80/76 74/78/74 70/74/70
s 8
f 77/81/77 78/82/78 79/83/79
f 79/83/79 80/84/80 77/81/77
f 78/82/78 81/85/81 82/86/82
f 82/86/82 79/83/79 78/82/78
f 80/84/80 79/83/79 83/87/83
f 83/87/83 84/88/84 80/84/80
f 79/83/79 82/86/82 85/89/85
f 85/89/85 83/87/83 79/83/79
s 9
f 86/90/86 87/91/87 88/92/88
f 88/92/88 89/93/89 86/90/86
f 87/91/87 90/94/90 91/95/91
f 91/95/91 88/92/88 87/91/87
f 90/94/90 92/96/92 91/95/91
f 89/93/89 88/92/88 93/97/93
f 93/97/93 94/98/94 89/93/89
f 88/92/88 91/95/91 95/99/95
f 95/99/95 93/97/93 88/92/88
f 91/95/91 92/96/92 95/99/95
s 10
f 96/100/96 97/101/97 98/102/98
f 98/102/98 99/103/99 96/100/96
f 97/101/97 100/104/100 101/105/101
f 101/105/101 98/102/98 97/101/97
f 99/103/99 98/102/98 102/106/102
f 102/106/102 103/107/103 99/103/99
f 98/102/98 101/105/101 104/108/104
f 104/108/104 102/106/102 98/102/98
s 11
f 105/109/105 106/110/106 107/111/107
f 107/111/107 108/112/108 105/109/105
f 108/112/108 107/111/107 109/113/109
f 109/113/109 110/114/110 108/112/108
f 106/110/106 111/115/111 112/116/112
f 112/116/112 107/111/107 106/110/106
f 107/111/107 112/116/112 113/117/113
f 113/117/113 109/113/109 107/111/107
s 12
f 114/118/114 115/119/115 116/120/116
f 116/120/116 117/121/117 114/118/114
f 117/121/117 116/120/116 118/122/118
f 118/122/118 119/123/119 117/121/117
f 119/123/119 118/122/118 120/124/120
f 115/119/115 121/125/121 122/126/122
f 122/126/122 116/120/116 115/119/115
f 116/120/116 122/126/122 123/127/123
f 123/127/123 118/122/118 116/120/116
f 118/122/118 123/127/123 120/124/120
s 13
f 124/128/124 125/129/125 126/130/126
f 126/130/126 127/131/127 124/128/124
f 127/131/127 126/130/126 128/132/128
f 128/132/128 129/133/129 127/131/127
f 125/129/125 130/134/130 131/135/131
f 131/135/131 126/130/126 125/129/125
f 126/130/126 131/135/131 132/136/132
f 132/136/132 128/132/128 126/130/126
s 14
f 133/137/133 134/138/134 135/139/135
f 135/139/135 136/140/136 133/137/133
f 136/140/136 135/139/135 137/141/137
f 137/141/137 138/142/138 136/140/136
f 134/138/134 139/143/139 140/144/140
f 140/144/140 135/139/135 134/138/134
f 135/139/135 140/144/140 141/145/141
f 141/145/141 137/141/137 135/139/135
s 15
f 142/146/142 143/147/143 144/148/144
f 144/148/144 145/149/145 142/146/142
f 145/149/145 144/148/144 146/150/146
f 146/150/146 147/151/147 145/149/145
f 147/151/147 146/150/146 148/152/148
f 143/147/143 149/153/149 150/154/150
f 150/154/150 144/148/144 143/147/143
f 144/148/144 150/154/150 151/155/151
f 151/155/151 146/150/146 144/148/144
f 146/150/146 151/155/151 148/152/148
s 16
f 152/156/152 153/157/153 154/158/154
f 154/158/154 155/159/155 152/156/152
f 155/159/155 154/158/154 156/160/156
f 156/160/156 157/161/157 155/159/155
f 153/157/153 158/162/158 159/163/159
f 159/163/159 154/158/154 153/157/153
f 154/158/154 159/163/159 160/164/160
f 160/164/160 156/160/156 154/158/154
s 17
f 161/165/161 162/166/162 163/167/163
f 163/167/163 164/168/164 161/165/161
f 164/168/164 163/167/163 165/169/165
f 165/169/165 166/170/166 164/168/164
f 162/166/162 167/171/167 168/172/168
f 168/172/168 163/167/163 162/166/162
f 163/167/163 168/172/168 169/173/169
f 169/173/169 165/169/165 163/167/163
s 18
f 170/174/170 171/175/171 172/176/172
f 172/176/172 173/177/173 170/174/170
f 173/177/173 172/176/172 174/178/174
f 174/178/174 175/179/175 173/177/173
f 175/179/175 174/178/174 176/180/176
f 171/175/171 177/181/177 178/182/178
f 178/182/178 172/176/172 171/175/171
f 172/176/172 178/182/178 179/183/179
f 179/183/179 174/178/174 172/176/172
f 174/178/174 179/183/179 176/180/176
s 19
f 180/184/180 181/185/181 182/186/182
f 182/186/182 183/187/183 180/184/180
f 183/187/183 182/186/182 184/188/184
f 184/188/184 185/189/185 183/187/183
f 181/185/181 186/190/186 187/191/187
f 187/191/187 182/186/182 181/185/181
f 182/186/182 187/191/187 188/192/188
f 188/192/188 184/188/184 182/186/182
s 20
f 189/193/189 190/194/190 191/195/191
f 191/195/191 192/196/192 189/193/189
f 190/194/190 193/197/193 194/198/194
f 194/198/194 191/195/191 190/194/190
f 193/197/193 195/199/195 196/200/196
f 196/200/196 194/198/194 193/197/193
f 195/199/195 197/201/197 198/202/198
f 198/202/198 196/200/196 195/199/195
f 197/203/197 189/193/189 192/196/192
f 192/196/192 198/204/198 197/203/197
f 192/196/192 191/195/191 199/205/199
f 199/205/199 200/206/200 192/196/192
f 191/195/191 194/198/194 201/207/201
f 201/207/201 199/205/199 191/195/191
f 194/198/194 196/200/196 202/208/202
f 202/208/202 201/207/201 194/198/194
f 196/200/196 198/202/198 203/209/203
f 203/209/203 202/208/202 196/200/196
f 198/204/198 192/196/192 200/206/200
f 200/206/200 203/210/203 198/204/198
s 21
f 204/211/204 205/212/205 206/213/206
f 206/213/206 207/214/207 204/211/204
f 205/212/205 208/215/208 209/216/209
f 209/216/209 206/213/206 205/212/205
f 207/214/207 206/213/206 210/217/210
f 210/217/210 211/218/211 207/214/207
f 206/213/206 209/216/209 212/219/212
f 212/219/212 210/217/210 206/213/206
s 22
f 213/220/213 214/221/214 215/222/215
f 215/222/215 216/223/216 213/220/213
f 214/221/214 217/224/217 218/225/218
f 218/225/218 215/222/215 214/221/214
f 217/224/217 219/226/219 218/225/218
f 216/223/216 215/222/215 220/227/220
f 220/227/220 221/228/221 216/223/216
f 215/222/215 218/225/218 222/229/222
f 222/229/222 220/227/220 215/222/215
f 218/225/218 219/226/219 222/229/222
s 23
f 223/230/223 224/231/224 225/232/225
f 225/232/225 226/233/226 223/230/223
f 224/231/224 227/234/227 228/235/228
f 228/235/228 225/232/225 224/231/224
f 226/233/226 225/232/225 229/236/229
f 229/236/229 230/237/230 226/233/226
f 225/232/225 228/235/228 231/238/231
f 231/238/231 229/236/229 225/232/225
s 24
f 232/239/232 233/240/233 234/241/234
f 234/241/234 235/242/235 232/239/232
f 235/242/235 234/241/234 236/243/236
f 236/243/236 237/244/237 235/242/235
f 233/240/233 238/245/238 239/246/239
f 239/246/239 234/241/234 233/240/233
f 234/241/234 239/246/239 240/247/240
f 240/247/240 236/243/236 234/241/234
s 25
f 241/248/241 242/249/242 243/250/243
f 243/250/243 244/251/244 241/248/241
f 244/251/244 243/250/243 245/252/245
f 245/252/245 246/253/246 244/251/244
f 246/253/246 245/252/245 247/254/247
f 242/249/242 248/255/248 249/256/249
f 249/256/249 243/250/243 242/249/242
f 243/250/243 249/256/249 250/257/250
f 250/257/250 245/252/245 243/250/243
f 245/252/245 250/257/250 247/254/247
s 26
f 251/258/251 252/259/252 253/260/253
f 253/260/253 254/261/254 251/258/251
f 254/261/254 253/260/253 255/262/255
f 255/262/255 256/263/256 254/261/254
f 252/259/252 257/264/257 258/265/258
f 258/265/258 253/260/253 252/259/252
f 253/260/253 258/265/258 259/266/259
f 259/266/259 255/262/255 253/260/253
s 27
f 260/267/260 261/268/261 262/269/262
f 262/269/262 263/270/263 260/267/260
f 261/268/261 264/271/264 265/272/265
f 265/272/265 262/269/262 261/268/261
f 263/270/263 262/269/262 266/273/266
f 266/273/266 267/274/267 263/270/263
f 262/269/262 265/272/265 268/275/268
f 268/275/268 266/273/266 262/269/262
s 28
f 269/276/269 270/277/270 271/278/271
f 271/278/271 272/279/272 269/276/269
f 270/277/270 273/280/273 274/281/274
f 274/281/274 271/278/271 270/277/270
f 273/280/273 275/282/275 274/281/274
f 272/279/272 271/278/271 276/283/276
f 276/283/276 277/284/277 272/279/272
f 271/278/271 274/281/274 278/285/278
f 278/285/278 276/283/276 271/278/271
f 274/281/274 275/282/275 278/285/278
s 29
f 279/286/279 280/287/280 281/288/281
f 281/288/281 282/289/282 279/286/279
f 280/287/280 283/290/283 284/291/284
f 284/291/284 281/288/281 280/287/280
f 282/289/282 281/288/281 285/292/285
f 285/292/285 286/293/286 282/289/282
f 281/288/281 284/291/284 287/294/287
f 287/294/287 285/292/285 281/288/281
s 30
f 288/295/288 289/296/289 290/297/290
f 290/297/290 291/298/291 288/295/288
f 291/298/291 290/297/290 292/299/292
f 292/299/292 293/300/293 291/298/291
f 289/296/289 294/301/294 295/302/295
f 295/302/295 290/297/290 289/296/289
f 290/297/290 295/302/295 296/303/296
f 296/303/296 292/299/292 290/297/290
s 31
f 297/304/297 298/305/298 299/306/299
f 299/306/299 300/307/300 297/304/297
f 300/307/300 299/306/299 301/308/301
f 301/308/301 302/309/302 300/307/300
f 302/309/302 301/308/301 303/310/303
f 298/305/298 304/311/304 305/312/305
f 305/312/305 299/306/299 298/305/298
f 299/306/299 305/312/305 306/313/306
f 306/313/306 301/308/301 299/306/299
f 301/308/301 306/313/306 303/310/303
s 32
f 307/314/307 308/315/308 309/316/309
f 309/316/309 310/317/310 307/314/307
f 310/317/310 309/316/309 311/318/311
f 311/318/311 312/319/312 310/317/310
f 308/315/308 313/320/313 314/321/314
f 314/321/314 309/316/309 308/315/308
f 309/316/309 314/321/314 315/322/315
f 315/322/315 311/318/311 309/316/309
s 33
f 316/323/316 317/324/317 318/325/318
f 318/325/318 319/326/319 316/323/316
f 317/324/317 320/327/320 321/328/321
f 321/328/321 318/325/318 317/324/317
f 320/327/320 322/329/322 323/330/323
f 323/330/323 321/328/321 320/327/320
f 322/329/322 324/331/324 325/332/325
f 325/332/325 323/330/323 322/329/322
f 324/333/324 316/323/316 319/326/319
f 319/326/319 325/334/325 324/333/324
f 319/326/319 318/325/318 326/335/326
f 326/335/326 327/336/327 319/326/319
f 318/325/318 321/328/321 328/337/328
f 328/337/328 326/335/326 318/325/318
f 321/328/321 323/330/323 329/338/329
f 329/338/329 328/337/328 321/328/321
f 323/330/323 325/332/325 330/339/330
f 330/339/330 329/338/329 323/330/323
f 325/334/325 319/326/319 327/336/327
f 327/336/327 330/340/330 325/334/325
s 34
f 331/341/331 332/342/332 333/343/333
f 333/343/333 334/344/334 331/341/331
f 332/342/332 335/345/335 336/346/336
f 336/346/336 333/343/333 332/342/332
f 334/344/334 333/343/333 337/347/337
f 337/347/337 338/348/338 334/344/334
f 333/343/333 336/346/336 339/349/339
f 339/349/339 337/347/337 333/343/333
s 35
f 340/350/340 341/351/341 342/352/342
f 342/352/342 343/353/343 340/350/340
f 341/351/341 344/354/344 345/355/345
f 345/355/345 342/352/342 341/351/341
f 344/354/344 346/356/346 345/355/345
f 343/353/343 342/352/342 347/357/347
f 347/357/347 348/358/348 343/353/343
f 342/352/342 345/355/345 349/359/349
f 349/359/349 347/357/347 342/352/342
f 345/355/345 346/356/346 349/359/349
s 36
f 350/360/350 351/361/351 352/362/352
f 352/362/352 353/363/353 350/360/350
f 351/361/351 354/364/354 355/365/355
f 355/365/355 352/362/352 351/361/351
f 353/363/353 352/362/352 356/366/356
f 356/366/356 357/367/357 353/363/353
f 352/362/352 355/365/355 358/368/358
f 358/368/358 356/366/356 352/362/352
s 37
f 359/369/359 360/370/360 361/371/361
f 361/371/361 362/372/362 359/369/359
f 360/370/360 363/373/363 364/374/364
f 364/374/364 361/371/361 360/370/360
f 362/372/362 361/371/361 365/375/365
f 365/375/365 366/376/366 362/372/362
f 361/371/361 364/374/364 367/377/367
f 367/377/367 365/375/365 361/371/361
s 38
f 368/378/368 369/379/369 370/380/370
f 370/380/370 371/381/371 368/378/368
f 369/379/369 372/382/372 373/383/373
f 373/383/373 370/380/370 369/379/369
f 372/382/372 374/384/374 373/383/373
f 371/381/371 370/380/370 375/385/375
f 375/385/375 376/386/376 371/381/371
f 370/380/370 373/383/373 377/387/377
f 377/387/377 375/385/375 370/380/370
f 373/383/373 374/384/374 377/387/377
s 39
f 378/388/378 379/389/379 380/390/380
f 380/390/380 381/391/381 378/388/378
f 379/389/379 382/392/382 383/393/383
f 383/393/383 380/390/380 379/389/379
f 381/391/381 380/390/380 384/394/384
f 384/394/384 385/395/385 381/391/381
f 380/390/380 383/393/383 386/396/386
f 386/396/386 384/394/384 380/390/380
s 40
f 387/397/387 388/398/388 389/399/389
f 389/399/389 390/400/390 387/397/387
f 390/400/390 389/399/389 391/401/391
f 391/401/391 392/402/392 390/400/390
f 388/398/388 393/403/393 394/404/394
f 394/404/394 389/399/389 388/398/388
f 389/399/389 394/404/394 395/405/395
f 395/405/395 391/401/391 389/399/389
s 41
f 396/406/396 397/407/397 398/408/398
f 398/408/398 399/409/399 396/406/396
f 399/409/399 398/408/398 400/410/400
f 400/410/400 401/411/401 399/409/399
f 401/411/401 400/410/400 402/412/402
f 397/407/397 403/413/403 404/414/404
f 404/414/404 398/408/398 397/407/397
f 398/408/398 404/414/404 405/415/405
f 405/415/405 400/410/400 398/408/398
f 400/410/400 405/415/405 402/412/402
s 42
f 406/416/406 407/417/407 408/418/408
f 408/418/408 409/419/409 406/416/406
f 409/419/409 408/418/408 410/420/410
f 410/420/410 411/421/411 409/419/409
f 407/417/407 412/422/412 413/423/413
f 413/423/413 408/418/408 407/417/407
f 408/418/408 413/423/413 414/424/414
f 414/424/414 410/420/410 408/418/408
s 43
f 415/425/415 416/426/416 417/427/417
f 417/427/417 418/428/418 415/425/415
f 418/428/418 417/427/417 419/429/419
f 419/429/419 420/430/420 418/428/418
f 416/426/416 421/431/421 422/432/422
f 422/432/422 417/427/417 416/426/416
f 417/427/417 422/432/422 423/433/423
f 423/433/423 419/429/419 417/427/417
s 44
f 424/434/424 425/435/425 426/436/426
f 426/436/426 427/437/427 424/434/424
f 427/437/427 426/436/426 428/438/428
f 428/438/428 429/439/429 427/437/427
f 429/439/429 428/438/428 430/440/430
f 425/435/425 431/441/431 432/442/432
f 432/442/432 426/436/426 425/435/425
f 426/436/426 432/442/432 433/443/433
f 433/443/433 428/438/428 426/436/426
f 428/438/428 433/443/433 430/440/430
s 45
f 434/444/434 435/445/435 436/446/436
f 436/446/436 437/447/437 434/444/434
f 437/447/437 436/446/436 438/448/438
f 438/448/438 439/449/439 437/447/437
f 435/445/435 440/450/440 441/451/441
f 441/451/441 436/446/436 435/445/435
f 436/446/436 441/451/441 442/452/442
f 442/452/442 438/448/438 436/446/436
s 46
f 443/453/443 444/454/444 445/455/445
f 445/455/445 446/456/446 443/453/443
f 444/454/444 447/457/447 448/458/448
f 448/458/448 445/455/445 444/454/444
f 447/457/447 449/459/449 450/460/450
f 450/460/450 448/458/448 447/457/447
f 449/459/449 451/461/451 452/462/452
f 452/462/452 450/460/450 449/459/449
f 451/463/451 443/453/443 446/456/446
f 446/456/446 452/464/452 451/463/451
f 446/456/446 445/455/445 453/465/453
f 453/465/453 454/466/454 446/456/446
f 445/455/445 448/458/448 455/467/455
f 455/467/455 453/465/453 445/455/445
f 448/458/448 450/460/450 456/468/456
f 456/468/456 455/467/455 448/458/448
f 450/460/450 452/462/452 457/469/457
f 457/469/457 456/468/456 450/460/450
f 452/464/452 446/456/446 454/466/454
f 454/466/454 457/470/457 452/464/452
f 454/466/454 453/465/453 458/471/458
f 458/471/458 459/472/459 454/466/454
f 453/465/453 455/467/455 460/473/460
f 460/473/460 458/471/458 453/465/453
f 455/467/455 456/468/456 461/474/461
f 461/474/461 460/473/460 455/467/455
f 456/468/456 457/469/457 462/475/462
f 462/475/462 461/474/461 456/468/456
f 457/470/457 454/466/454 459/472/459
f 459/472/459 462/476/462 457/470/457
s 47
f 463/477/463 464/478/464 465/479/465
f 465/479/465 466/480/466 463/477/463
f 464/478/464 467/481/467 468/482/468
f 468/482/468 465/479/465 464/478/464
f 466/480/466 465/479/465 469/483/469
f 469/483/469 470/484/470 466/480/466
f 465/479/465 468/482/468 471/485/471
f 471/485/471 469/483/469 465/479/465
s 48
f 472/486/472 473/487/473 474/488/474
f 474/488/474 475/489/475 472/486/472
f 473/487/473 476/490/476 477/491/477
f 477/491/477 474/488/474 473/487/473
f 476/490/476 478/492/478 477/491/477
f 475/489/475 474/488/474 479/493/479
f 479/493/479 480/494/480 475/489/475
f 474/488/474 477/491/477 481/495/481
f 481/495/481 479/493/479 474/488/474
f 477/491/477 478/492/478 481/495/481
s 49
f 482/496/482 483/497/483 484/498/484
f 484/498/484 485/499/485 482/496/482
f 483/497/483 486/500/486 487/501/487
f 487/501/487 484/498/484 483/497/483
f 485/499/485 484/498/484 488/502/488
f 488/502/488 489/503/489 485/499/485
f 484/498/484 487/501/487 490/504/490
f 490/504/490 488/502/488 484/498/484
s 50
f 491/505/491 492/506/492 493/507/493
f 493/507/493 494/508/494 491/505/491
f 492/506/492 495/509/495 496/510/496
f 496/510/496 493/507/493 492/506/492
f 494/508/494 493/507/493 497/511/497
f 497/511/497 498/512/498 494/508/494
f 493/507/493 496/510/496 499/513/499
f 499/513/499 497/511/497 493/507/493
s 51
f 500/514/500 501/515/501 502/516/502
f 502/516/502 503/517/503 500/514/500
f 501/515/501 504/518/504 505/519/505
f 505/519/505 502/516/502 501/515/501
f 504/518/504 506/520/506 505/519/505
f 503/517/503 502/516/502 507/521/507
f 507/521/507 508/522/508 503/517/503
f 502/516/502 505/519/505 509/523/509
f 509/523/509 507/521/507 502/516/502
f 505/519/505 506/520/506 509/523/509
s 52
f 510/524/510 511/525/511 512/526/512
f 512/526/512 513/527/513 510/524/510
f 511/525/511 514/528/514 515/529/515
f 515/529/515 512/526/512 511/525/511
f 513/527/513 512/526/512 516/530/516
f 516/530/516 517/531/517 513/527/513
f 512/526/512 515/529/515 518/532/518
f 518/532/518 516/530/516 512/526/512
s 53
f 519/533/519 520/534/520 521/535/521
f 521/535/521 522/536/522 519/533/519
f 520/534/520 523/537/523 524/538/524
f 524/538/524 521/535/521 520/534/520
f 522/536/522 521/535/521 525/539/525
f 525/539/525 526/540/526 522/536/522
f 521/535/521 524/538/524 527/541/527
f 527/541/527 525/539/525 521/535/521
s 54
f 528/542/528 529/543/529 530/544/530
f 530/544/530 531/545/531 528/542/528
f 529/543/529 532/546/532 533/547/533
f 533/547/533 530/544/530 529/543/529
f 532/546/532 534/548/534 533/547/533
f 531/545/531 530/544/530 535/549/535
f 535/549/535 536/550/536 531/545/531
f 530/544/530 533/547/533 537/551/537
f 537/551/537 535/549/535 530/544/530
f 533/547/533 534/548/534 537/551/537
s 55
f 538/552/538 539/553/539 540/554/540
f 540/554/540 541/555/541 538/552/538
f 539/553/539 542/556/542 543/557/543
f 543/557/543 540/554/540 539/553/539
f 541/555/541 540/554/540 544/558/544
f 544/558/544 545/559/545 541/555/541
f 540/554/540 543/557/543 546/560/546
f 546/560/546 544/558/544 540/554/540
s 56
f 547/561/547 548/562/548 549/563/549
f 549/563/549 550/564/550 547/561/547
f 550/564/550 549/563/549 551/565/551
f 551/565/551 552/566/552 550/564/550
f 548/562/548 553/567/553 554/568/554
f 554/568/554 549/563/549 548/562/548
f 549/563/549 554/568/554 555/569/555
f 555/569/555 551/565/551 549/563/549
s 57
f 556/570/556 557/571/557 558/572/558
f 558/572/558 559/573/559 556/570/556
f 559/573/559 558/572/558 560/574/560
f 560/574/560 561/575/561 559/573/559
f 561/575/561 560/574/560 562/576/562
f 557/571/557 563/577/563 564/578/564
f 564/578/564 558/572/558 557/571/557
f 558/572/558 564/578/564 565/579/565
f 565/579/565 560/574/560 558/572/558
f 560/574/560 565/579/565 562/576/562
s 58
f 566/580/566 567/581/567 568/582/568
f 568/582/568 569/583/569 566/580/566
f 569/583/569 568/582/568 570/584/570
f 570/584/570 571/585/571 569/583/569
f 567/581/567 572/586/572 573/587/573
f 573/587/573 568/582/568 567/581/567
f 568/582/568 573/587/573 574/588/574
f 574/588/574 570/584/570 568/582/568
s 59
f 575/589/575 576/590/576 577/591/577
f 577/591/577 578/592/578 575/589/575
f 578/592/578 577/591/577 579/593/579
f 579/593/579 580/594/580 578/592/578
f 576/590/576 581/595/581 582/596/582
f 582/596/582 577/591/577 576/590/576
f 577/591/577 582/596/582 583/597/583
f 583/597/583 579/593/579 577/591/577
s 60
f 584/598/584 585/599/585 586/600/586
f 586/600/586 587/601/587 584/598/584
f 587/601/587 586/600/586 588/602/588
f 588/602/588 589/603/589 587/601/587
f 589/603/589 588/602/588 590/604/590
f 585/599/585 591/605/591 592/606/592
f 592/606/592 586/600/586 585/599/585
f 586/600/586 592/606/592 593/607/593
f 593/607/593 588/602/588 586/600/586
f 588/602/588 593/607/593 590/604/590
s 61
f 594/608/594 595/609/595 596/610/596
f 596/610/596 597/611/597 594/608/594
f 597/611/597 596/610/596 598/612/598
f 598/612/598 599/613/599 597/611/597
f 595/609/595 600/614/600 601/615/601
f 601/615/601 596/610/596 595/609/595
f 596/610/596 601/615/601 602/616/602
f 602/616/602 598/612/598 596/610/596
s 62
f 603/617/603 604/618/604 605/619/605
f 605/619/605 606/620/606 603/617/603
f 606/620/606 605/619/605 607/621/607
f 607/621/607 608/622/608 606/620/606
f 604/618/604 609/623/609 610/624/610
f 610/624/610 605/619/605 604/618/604
f 605/619/605 610/624/610 611/625/611
f 611/625/611 607/621/607 605/619/605
s 63
f 612/626/612 613/627/613 614/628/614
f 614/628/614 615/629/615 612/626/612
f 615/629/615 614/628/614 616/630/616
f 616/630/616 617/631/617 615/629/615
f 617/631/617 616/630/616 618/632/618
f 613/627/613 619/633/619 620/634/620
f 620/634/620 614/628/614 613/627/613
f 614/628/614 620/634/620 621/635/621
f 621/635/621 616/630/616 614/628/614
f 616/630/616 621/635/621 618/632/618
s 64
f 622/636/622 623/637/623 624/638/624
f 624/638/624 625/639/625 622/636/622
f 625/639/625 624/638/624 626/640/626
f 626/640/626 627/641/627 625/639/625
f 623/637/623 628/642/628 629/643/629
f 629/643/629 624/638/624 623/637/623
f 624/638/624 629/643/629 630/644/630
f 630/644/630 626/640/626 624/638/624
