# Blender v3.3.0 OBJ File: ''
# www.blender.org
o SoybeanStage00.005
v 0.013072 0.079257 0.122574
v 0.043011 0.095833 0.095834
v 0.010286 0.109134 0.082665
v -0.023404 0.085242 0.132611
v 0.055352 0.106493 0.054993
v 0.030220 0.117483 0.035363
v -0.010401 0.140618 0.081228
v -0.030522 0.115809 0.110654
v 0.010674 0.143954 0.042776
v 0.147700 0.076776 0.086763
v 0.122596 0.116521 0.053258
v 0.086200 0.101609 0.084307
v 0.139880 0.053264 0.131240
v 0.073034 0.137597 0.009926
v 0.036638 0.122685 0.040975
v 0.010026 0.101115 0.017707
v 0.060289 0.116521 0.124523
v 0.096846 0.076776 0.144928
v 0.010727 0.137597 0.081191
v 0.088865 0.123578 -0.041348
v 0.066764 0.145606 -0.011140
v 0.070835 0.111110 0.003515
v 0.109715 0.091605 -0.044530
v 0.034651 0.146580 0.018888
v 0.030220 0.117483 0.035363
v 0.090361 0.092199 0.029637
v 0.108125 0.079989 -0.008066
v 0.054390 0.101907 0.052998
v -0.002808 -0.012779 0.008672
v 0.001235 -0.012779 0.010402
v 0.010700 0.104578 0.020668
v 0.007418 0.104578 0.019264
v 0.004130 -0.012779 0.007091
v 0.013050 0.104578 0.017981
v 0.001876 -0.012779 0.003315
v 0.011220 0.104578 0.014915
v -0.002412 -0.012779 0.004292
v 0.007739 0.104578 0.015708
v -0.019223 0.172246 0.026039
v -0.021529 0.172122 0.025508
v -0.018030 0.172645 0.024031
v -0.019598 0.172769 0.022260
v -0.021760 0.172446 0.023172
v -0.020167 0.226657 0.035886
v -0.021765 0.226571 0.035518
v -0.019340 0.226934 0.034495
v -0.020427 0.227019 0.033267
v -0.021926 0.226795 0.033899
v -0.069231 0.160466 -0.021030
v -0.069714 0.167288 0.006204
v -0.050261 0.179014 -0.002637
v -0.059107 0.168392 -0.042194
v -0.055587 0.171948 0.030433
v -0.036050 0.181259 0.027751
v -0.042608 0.201269 -0.008982
v -0.047108 0.188200 -0.033424
v -0.032913 0.200372 0.017730
v -0.108287 0.143731 0.058401
v -0.083599 0.171089 0.064315
v -0.082591 0.166106 0.032318
v -0.125375 0.130468 0.033589
v -0.042785 0.188980 0.060931
v -0.041777 0.183996 0.028934
v -0.018030 0.172645 0.024031
v -0.092128 0.179185 0.004253
v -0.115249 0.150339 0.009380
v -0.051313 0.197076 0.000869
v -0.023664 0.177332 0.088940
v -0.030319 0.194339 0.067612
v -0.037257 0.172210 0.060111
v -0.029105 0.154657 0.097276
v -0.031502 0.199000 0.039590
v -0.036050 0.181259 0.027751
v -0.057159 0.158581 0.056611
v -0.045570 0.148147 0.079961
v -0.053953 0.169089 0.030388
v -0.090795 0.227636 0.039262
v -0.066471 0.238882 0.052939
v -0.058431 0.233660 0.028646
v -0.099791 0.223134 0.014709
v -0.036385 0.238002 0.057640
v -0.023913 0.231975 0.038822
v -0.052351 0.245390 0.006118
v -0.079270 0.232948 0.001048
v -0.024574 0.243446 0.018475
v -0.053775 0.255827 0.123825
v -0.025626 0.262729 0.096272
v -0.053027 0.251688 0.078041
v -0.088728 0.251575 0.125862
v 0.001800 0.249308 0.059383
v -0.025601 0.238267 0.041153
v -0.019133 0.224653 0.033267
v -0.078173 0.263169 0.057043
v -0.096663 0.256186 0.091808
v -0.050747 0.249747 0.020155
v 0.033169 0.232569 0.073943
v 0.016539 0.246646 0.053196
v -0.000543 0.231808 0.066238
v 0.029961 0.219412 0.096761
v -0.006008 0.245699 0.032732
v -0.023913 0.231975 0.038822
v -0.019657 0.233347 0.083969
v 0.003627 0.221715 0.099059
v -0.036285 0.234575 0.058473
v -0.084625 0.039836 -0.068628
v -0.081680 0.056413 -0.028594
v -0.051290 0.069713 -0.046507
v -0.070343 0.045821 -0.103661
v -0.056830 0.067072 0.006086
v -0.025948 0.078062 -0.001868
v -0.037540 0.101197 -0.062029
v -0.048599 0.076388 -0.095917
v -0.019908 0.104533 -0.021881
v -0.138312 0.037355 0.059920
v -0.096449 0.077100 0.060447
v -0.098872 0.062188 0.012668
v -0.168800 0.013843 0.026607
v -0.031885 0.098176 0.047578
v -0.034309 0.083264 -0.000202
v 0.000359 0.061694 -0.007112
v -0.114954 0.077100 -0.032389
v -0.153416 0.037355 -0.015850
v -0.050391 0.098176 -0.045259
v -0.000893 0.084157 0.091384
v -0.011364 0.106185 0.055450
v -0.025463 0.071689 0.049742
v -0.011081 0.052184 0.109852
v -0.015590 0.107159 0.011688
v -0.025948 0.078062 -0.001868
v -0.058073 0.052778 0.049295
v -0.039016 0.040568 0.086361
v -0.054661 0.062486 0.006540
v 0.000731 -0.012779 -0.010814
v -0.003105 -0.012779 -0.008664
v -0.002399 0.065157 -0.008383
v 0.000715 0.065157 -0.010128
v -0.002245 -0.012779 -0.004351
v -0.001702 0.065157 -0.004881
v 0.002122 -0.012779 -0.003836
v 0.001844 0.065157 -0.004463
v 0.003962 -0.012779 -0.007831
v 0.003337 0.065157 -0.007706
v 0.010489 0.132825 -0.010340
v 0.012556 0.132825 -0.011498
v 0.010952 0.132825 -0.008016
v 0.013305 0.132825 -0.007738
v 0.014296 0.132825 -0.009890
v 0.013887 0.187811 -0.015861
v 0.015343 0.187533 -0.016567
v 0.014129 0.187966 -0.014244
v 0.015734 0.187783 -0.013952
v 0.016485 0.187516 -0.015387
v 0.058695 0.118693 -0.055877
v 0.032775 0.129410 -0.057197
v 0.041831 0.138009 -0.036265
v 0.080025 0.122563 -0.043906
v 0.008534 0.136302 -0.044035
v 0.011162 0.143407 -0.023585
v 0.050687 0.158365 -0.026199
v 0.073314 0.142325 -0.030578
v 0.023517 0.160522 -0.018106
v -0.019470 0.117089 -0.100625
v -0.023164 0.142785 -0.073810
v 0.007682 0.133144 -0.071535
v 0.004346 0.101888 -0.117513
v -0.020084 0.156412 -0.031358
v 0.010763 0.146770 -0.029083
v 0.012417 0.132825 -0.006288
v 0.037877 0.142785 -0.078240
v 0.030350 0.117089 -0.104240
v 0.040958 0.156412 -0.035788
v -0.050672 0.147348 -0.014987
v -0.026779 0.161590 -0.018824
v -0.021987 0.139287 -0.027411
v -0.061703 0.126677 -0.023004
v 0.001635 0.162220 -0.018027
v 0.011162 0.143407 -0.023585
v -0.019086 0.127060 -0.048296
v -0.044393 0.119166 -0.039042
v 0.008070 0.133337 -0.042680
v 0.086135 0.203862 -0.010875
v 0.063792 0.213108 -0.028776
v 0.052077 0.207563 -0.006102
v 0.091061 0.200312 0.014955
v 0.035110 0.209929 -0.038537
v 0.020044 0.203191 -0.021996
v 0.041376 0.219049 0.014770
v 0.067840 0.208711 0.024666
v 0.016359 0.214898 -0.002112
v 0.062330 0.228288 -0.101168
v 0.029427 0.233363 -0.079011
v 0.053994 0.224601 -0.056104
v 0.097323 0.226641 -0.097089
v -0.002915 0.218328 -0.047059
v 0.021652 0.209565 -0.024151
v 0.014129 0.185727 -0.014244
v 0.074251 0.238157 -0.031386
v 0.098913 0.232201 -0.062298
v 0.041909 0.223121 0.000567
v -0.030018 0.199133 -0.066377
v -0.018270 0.214638 -0.043425
v 0.001826 0.200979 -0.052997
v -0.021984 0.186006 -0.087992
v 0.000418 0.215602 -0.019387
v 0.020044 0.203191 -0.021996
v 0.023552 0.203752 -0.067224
v 0.004117 0.190248 -0.085800
v 0.035401 0.206495 -0.039294
v -0.084625 0.038003 -0.068628
v -0.070343 0.043988 -0.103661
v -0.051290 0.067880 -0.046507
v -0.081680 0.054579 -0.028594
v -0.025948 0.076228 -0.001868
v -0.056830 0.065239 0.006086
v -0.048599 0.074555 -0.095917
v -0.037540 0.099364 -0.062029
v -0.019908 0.102700 -0.021881
v -0.138312 0.035521 0.059920
v -0.168800 0.012010 0.026607
v -0.098872 0.060354 0.012668
v -0.096449 0.075267 0.060447
v -0.034309 0.081430 -0.000202
v -0.031885 0.096343 0.047578
v 0.000359 0.059861 -0.007112
v -0.153416 0.035521 -0.015850
v -0.114954 0.075267 -0.032389
v -0.050391 0.096343 -0.045259
v -0.000893 0.082324 0.091384
v -0.011081 0.050351 0.109852
v -0.025463 0.069856 0.049742
v -0.011364 0.104352 0.055450
v -0.025948 0.076228 -0.001868
v -0.015590 0.105326 0.011688
v -0.039016 0.038735 0.086361
v -0.058073 0.050945 0.049295
v -0.054661 0.060653 0.006540
v 0.058695 0.116860 -0.055877
v 0.080025 0.120730 -0.043906
v 0.041831 0.136176 -0.036265
v 0.032775 0.127577 -0.057197
v 0.011162 0.141574 -0.023585
v 0.008534 0.134469 -0.044035
v 0.073314 0.140492 -0.030578
v 0.050687 0.156532 -0.026199
v 0.023517 0.158689 -0.018106
v -0.019470 0.115256 -0.100625
v 0.004346 0.100055 -0.117513
v 0.007682 0.131311 -0.071535
v -0.023164 0.140952 -0.073810
v 0.010763 0.144937 -0.029083
v -0.020084 0.154578 -0.031358
v 0.012417 0.130992 -0.006288
v 0.030350 0.115256 -0.104240
v 0.037877 0.140952 -0.078240
v 0.040958 0.154578 -0.035788
v -0.050672 0.145515 -0.014987
v -0.061703 0.124843 -0.023004
v -0.021987 0.137454 -0.027411
v -0.026779 0.159756 -0.018824
v 0.011162 0.141574 -0.023585
v 0.001635 0.160386 -0.018027
v -0.044393 0.117333 -0.039042
v -0.019086 0.125227 -0.048296
v 0.008070 0.131504 -0.042680
v 0.086135 0.202029 -0.010875
v 0.091061 0.198479 0.014955
v 0.052077 0.205730 -0.006102
v 0.063792 0.211275 -0.028776
v 0.020044 0.201358 -0.021996
v 0.035110 0.208096 -0.038537
v 0.067840 0.206877 0.024666
v 0.041376 0.217215 0.014770
v 0.016359 0.213065 -0.002112
v 0.062330 0.226455 -0.101168
v 0.097323 0.224808 -0.097089
v 0.053994 0.222768 -0.056104
v 0.029427 0.231530 -0.079011
v 0.021652 0.207732 -0.024151
v -0.002915 0.216495 -0.047059
v 0.014129 0.183894 -0.014244
v 0.098913 0.230368 -0.062298
v 0.074251 0.236324 -0.031386
v 0.041909 0.221288 0.000567
v -0.030018 0.197300 -0.066377
v -0.021984 0.184173 -0.087992
v 0.001826 0.199146 -0.052997
v -0.018270 0.212805 -0.043425
v 0.020044 0.201358 -0.021996
v 0.000418 0.213769 -0.019387
v 0.004117 0.188415 -0.085800
v 0.023552 0.201918 -0.067224
v 0.035401 0.204662 -0.039294
v 0.013072 0.077424 0.122574
v -0.023404 0.083409 0.132611
v 0.010286 0.107301 0.082665
v 0.043011 0.094000 0.095834
v 0.030220 0.115649 0.035363
v 0.055352 0.104660 0.054993
v -0.030522 0.113976 0.110654
v -0.010401 0.138785 0.081228
v 0.010674 0.142121 0.042776
v 0.147700 0.074942 0.086763
v 0.139880 0.051431 0.131240
v 0.086200 0.099775 0.084307
v 0.122596 0.114688 0.053258
v 0.036638 0.120851 0.040975
v 0.073034 0.135764 0.009926
v 0.010026 0.099282 0.017707
v 0.096846 0.074942 0.144928
v 0.060289 0.114688 0.124523
v 0.010727 0.135764 0.081191
v 0.088865 0.121745 -0.041348
v 0.109715 0.089772 -0.044530
v 0.070835 0.109277 0.003515
v 0.066764 0.143773 -0.011140
v 0.030220 0.115649 0.035363
v 0.034651 0.144747 0.018888
v 0.108125 0.078156 -0.008066
v 0.090361 0.090366 0.029637
v 0.054390 0.100074 0.052998
v -0.069231 0.158633 -0.021030
v -0.059107 0.166559 -0.042194
v -0.050261 0.177181 -0.002637
v -0.069714 0.165455 0.006204
v -0.036050 0.179426 0.027751
v -0.055587 0.170115 0.030433
v -0.047108 0.186367 -0.033424
v -0.042608 0.199436 -0.008982
v -0.032913 0.198539 0.017730
v -0.108287 0.141898 0.058401
v -0.125375 0.128635 0.033589
v -0.082591 0.164273 0.032318
v -0.083599 0.169256 0.064315
v -0.041777 0.182163 0.028934
v -0.042785 0.187147 0.060931
v -0.018030 0.170812 0.024031
v -0.115249 0.148506 0.009380
v -0.092128 0.177352 0.004253
v -0.051313 0.195243 0.000869
v -0.023664 0.175499 0.088940
v -0.029105 0.152824 0.097276
v -0.037257 0.170377 0.060111
v -0.030319 0.192506 0.067612
v -0.036050 0.179426 0.027751
v -0.031502 0.197167 0.039590
v -0.045570 0.146314 0.079961
v -0.057159 0.156748 0.056611
v -0.053953 0.167256 0.030388
v -0.090795 0.225803 0.039262
v -0.099791 0.221301 0.014709
v -0.058431 0.231827 0.028646
v -0.066471 0.237049 0.052939
v -0.023913 0.230142 0.038822
v -0.036385 0.236168 0.057640
v -0.079270 0.231115 0.001048
v -0.052351 0.243557 0.006118
v -0.024574 0.241612 0.018475
v -0.053775 0.253994 0.123825
v -0.088728 0.249742 0.125862
v -0.053027 0.249855 0.078041
v -0.025626 0.260896 0.096272
v -0.025601 0.236434 0.041153
v 0.001800 0.247475 0.059383
v -0.019133 0.222819 0.033267
v -0.096663 0.254353 0.091808
v -0.078173 0.261335 0.057043
v -0.050747 0.247914 0.020155
v 0.033169 0.230736 0.073943
v 0.029961 0.217579 0.096761
v -0.000543 0.229975 0.066238
v 0.016539 0.244813 0.053196
v -0.023913 0.230142 0.038822
v -0.006008 0.243866 0.032732
v 0.003627 0.219882 0.099059
v -0.019657 0.231514 0.083969
v -0.036285 0.232741 0.058473
vt 0.320400 0.204300
vt 0.347600 0.473500
vt 0.205600 0.473500
vt 0.205600 0.045200
vt 0.324900 0.761600
vt 0.205600 0.819400
vt 0.063600 0.473500
vt 0.090800 0.204300
vt 0.086200 0.761600
vt 0.320400 0.204300
vt 0.347600 0.473500
vt 0.205600 0.473500
vt 0.205600 0.045200
vt 0.347600 0.819500
vt 0.205600 0.819400
vt 0.205600 0.874600
vt 0.063600 0.473500
vt 0.090800 0.204300
vt 0.063600 0.819500
vt 0.320400 0.204300
vt 0.347600 0.473500
vt 0.205600 0.473500
vt 0.205600 0.045200
vt 0.324900 0.761600
vt 0.205600 0.819400
vt 0.063600 0.473500
vt 0.090800 0.204300
vt 0.086200 0.761600
vt 0.019100 0.026600
vt 0.020000 0.026700
vt 0.019800 0.320000
vt 0.019100 0.321500
vt 0.020800 0.027300
vt 0.020500 0.320500
vt 0.021700 0.028300
vt 0.021200 0.322900
vt 0.022500 0.029700
vt 0.021800 0.325100
vt 0.018300 0.026700
vt 0.018500 0.322700
vt 0.019600 0.685300
vt 0.019100 0.685800
vt 0.020000 0.685600
vt 0.020500 0.686800
vt 0.020900 0.687900
vt 0.018700 0.686300
vt 0.019400 0.980000
vt 0.019100 0.979200
vt 0.019700 0.980300
vt 0.020000 0.979900
vt 0.020300 0.979900
vt 0.018800 0.978800
vt 0.320400 0.204300
vt 0.347600 0.473500
vt 0.205600 0.473500
vt 0.205600 0.045200
vt 0.324900 0.761600
vt 0.205600 0.819400
vt 0.063600 0.473500
vt 0.090800 0.204300
vt 0.086200 0.761600
vt 0.320400 0.204300
vt 0.347600 0.473500
vt 0.205600 0.473500
vt 0.205600 0.045200
vt 0.347600 0.819500
vt 0.205600 0.819400
vt 0.205600 0.874600
vt 0.063600 0.473500
vt 0.090800 0.204300
vt 0.063600 0.819500
vt 0.320400 0.204300
vt 0.347600 0.473500
vt 0.205600 0.473500
vt 0.205600 0.045200
vt 0.324900 0.761600
vt 0.205600 0.819400
vt 0.063600 0.473500
vt 0.090800 0.204300
vt 0.086200 0.761600
vt 0.320400 0.204300
vt 0.347600 0.473500
vt 0.205600 0.473500
vt 0.205600 0.045200
vt 0.324900 0.761600
vt 0.205600 0.819400
vt 0.063600 0.473500
vt 0.090800 0.204300
vt 0.086200 0.761600
vt 0.320400 0.204300
vt 0.347600 0.473500
vt 0.205600 0.473500
vt 0.205600 0.045200
vt 0.347600 0.819500
vt 0.205600 0.819400
vt 0.208000 0.848800
vt 0.063600 0.473500
vt 0.090800 0.204300
vt 0.063600 0.819500
vt 0.320400 0.204300
vt 0.347600 0.473500
vt 0.205600 0.473500
vt 0.205600 0.045200
vt 0.324900 0.761600
vt 0.205600 0.819400
vt 0.063600 0.473500
vt 0.090800 0.204300
vt 0.086200 0.761600
vt 0.320400 0.204300
vt 0.347600 0.473500
vt 0.205600 0.473500
vt 0.205600 0.045200
vt 0.324900 0.761600
vt 0.205600 0.819400
vt 0.063600 0.473500
vt 0.090800 0.204300
vt 0.086200 0.761600
vt 0.320400 0.204300
vt 0.347600 0.473500
vt 0.205600 0.473500
vt 0.205600 0.045200
vt 0.347600 0.819500
vt 0.205600 0.819400
vt 0.205600 0.874600
vt 0.063600 0.473500
vt 0.090800 0.204300
vt 0.063600 0.819500
vt 0.320400 0.204300
vt 0.347600 0.473500
vt 0.205600 0.473500
vt 0.205600 0.045200
vt 0.324900 0.761600
vt 0.205600 0.819400
vt 0.063600 0.473500
vt 0.090800 0.204300
vt 0.086200 0.761600
vt 0.019100 0.026600
vt 0.020000 0.026700
vt 0.019800 0.320000
vt 0.019100 0.321500
vt 0.020800 0.027300
vt 0.020500 0.320500
vt 0.021700 0.028300
vt 0.021200 0.322900
vt 0.022500 0.029700
vt 0.021800 0.325100
vt 0.018300 0.026700
vt 0.018500 0.322700
vt 0.019600 0.685300
vt 0.019100 0.685800
vt 0.020000 0.685600
vt 0.020500 0.686800
vt 0.020900 0.687900
vt 0.018700 0.686300
vt 0.019400 0.980000
vt 0.019100 0.979200
vt 0.019700 0.980300
vt 0.020000 0.979900
vt 0.020300 0.979900
vt 0.018800 0.978800
vt 0.320400 0.204300
vt 0.347600 0.473500
vt 0.205600 0.473500
vt 0.205600 0.045200
vt 0.324900 0.761600
vt 0.205600 0.819400
vt 0.063600 0.473500
vt 0.090800 0.204300
vt 0.086200 0.761600
vt 0.320400 0.204300
vt 0.347600 0.473500
vt 0.205600 0.473500
vt 0.205600 0.045200
vt 0.347600 0.819500
vt 0.205600 0.819400
vt 0.205600 0.874600
vt 0.063600 0.473500
vt 0.090800 0.204300
vt 0.063600 0.819500
vt 0.320400 0.204300
vt 0.347600 0.473500
vt 0.205600 0.473500
vt 0.205600 0.045200
vt 0.324900 0.761600
vt 0.205600 0.819400
vt 0.063600 0.473500
vt 0.090800 0.204300
vt 0.086200 0.761600
vt 0.320400 0.204300
vt 0.347600 0.473500
vt 0.205600 0.473500
vt 0.205600 0.045200
vt 0.324900 0.761600
vt 0.205600 0.819400
vt 0.063600 0.473500
vt 0.090800 0.204300
vt 0.086200 0.761600
vt 0.320400 0.204300
vt 0.347600 0.473500
vt 0.205600 0.473500
vt 0.205600 0.045200
vt 0.347600 0.819500
vt 0.205600 0.819400
vt 0.205600 0.857600
vt 0.063600 0.473500
vt 0.090800 0.204300
vt 0.063600 0.819500
vt 0.320400 0.204300
vt 0.347600 0.473500
vt 0.205600 0.473500
vt 0.205600 0.045200
vt 0.324900 0.761600
vt 0.205600 0.819400
vt 0.063600 0.473500
vt 0.090800 0.204300
vt 0.086200 0.761600
vt 0.320400 0.204300
vt 0.205600 0.045200
vt 0.205600 0.473500
vt 0.347600 0.473500
vt 0.205600 0.819400
vt 0.324900 0.761600
vt 0.090800 0.204300
vt 0.063600 0.473500
vt 0.086200 0.761600
vt 0.320400 0.204300
vt 0.205600 0.045200
vt 0.205600 0.473500
vt 0.347600 0.473500
vt 0.205600 0.819400
vt 0.347600 0.819500
vt 0.205600 0.874600
vt 0.090800 0.204300
vt 0.063600 0.473500
vt 0.063600 0.819500
vt 0.320400 0.204300
vt 0.205600 0.045200
vt 0.205600 0.473500
vt 0.347600 0.473500
vt 0.205600 0.819400
vt 0.324900 0.761600
vt 0.090800 0.204300
vt 0.063600 0.473500
vt 0.086200 0.761600
vt 0.320400 0.204300
vt 0.205600 0.045200
vt 0.205600 0.473500
vt 0.347600 0.473500
vt 0.205600 0.819400
vt 0.324900 0.761600
vt 0.090800 0.204300
vt 0.063600 0.473500
vt 0.086200 0.761600
vt 0.320400 0.204300
vt 0.205600 0.045200
vt 0.205600 0.473500
vt 0.347600 0.473500
vt 0.205600 0.819400
vt 0.347600 0.819500
vt 0.205600 0.874600
vt 0.090800 0.204300
vt 0.063600 0.473500
vt 0.063600 0.819500
vt 0.320400 0.204300
vt 0.205600 0.045200
vt 0.205600 0.473500
vt 0.347600 0.473500
vt 0.205600 0.819400
vt 0.324900 0.761600
vt 0.090800 0.204300
vt 0.063600 0.473500
vt 0.086200 0.761600
vt 0.320400 0.204300
vt 0.205600 0.045200
vt 0.205600 0.473500
vt 0.347600 0.473500
vt 0.205600 0.819400
vt 0.324900 0.761600
vt 0.090800 0.204300
vt 0.063600 0.473500
vt 0.086200 0.761600
vt 0.320400 0.204300
vt 0.205600 0.045200
vt 0.205600 0.473500
vt 0.347600 0.473500
vt 0.205600 0.819400
vt 0.347600 0.819500
vt 0.205600 0.857600
vt 0.090800 0.204300
vt 0.063600 0.473500
vt 0.063600 0.819500
vt 0.320400 0.204300
vt 0.205600 0.045200
vt 0.205600 0.473500
vt 0.347600 0.473500
vt 0.205600 0.819400
vt 0.324900 0.761600
vt 0.090800 0.204300
vt 0.063600 0.473500
vt 0.086200 0.761600
vt 0.320400 0.204300
vt 0.205600 0.045200
vt 0.205600 0.473500
vt 0.347600 0.473500
vt 0.205600 0.819400
vt 0.324900 0.761600
vt 0.090800 0.204300
vt 0.063600 0.473500
vt 0.086200 0.761600
vt 0.320400 0.204300
vt 0.205600 0.045200
vt 0.205600 0.473500
vt 0.347600 0.473500
vt 0.205600 0.819400
vt 0.347600 0.819500
vt 0.205600 0.874600
vt 0.090800 0.204300
vt 0.063600 0.473500
vt 0.063600 0.819500
vt 0.320400 0.204300
vt 0.205600 0.045200
vt 0.205600 0.473500
vt 0.347600 0.473500
vt 0.205600 0.819400
vt 0.324900 0.761600
vt 0.090800 0.204300
vt 0.063600 0.473500
vt 0.086200 0.761600
vt 0.320400 0.204300
vt 0.205600 0.045200
vt 0.205600 0.473500
vt 0.347600 0.473500
vt 0.205600 0.819400
vt 0.324900 0.761600
vt 0.090800 0.204300
vt 0.063600 0.473500
vt 0.086200 0.761600
vt 0.320400 0.204300
vt 0.205600 0.045200
vt 0.205600 0.473500
vt 0.347600 0.473500
vt 0.205600 0.819400
vt 0.347600 0.819500
vt 0.205600 0.874600
vt 0.090800 0.204300
vt 0.063600 0.473500
vt 0.063600 0.819500
vt 0.320400 0.204300
vt 0.205600 0.045200
vt 0.205600 0.473500
vt 0.347600 0.473500
vt 0.205600 0.819400
vt 0.324900 0.761600
vt 0.090800 0.204300
vt 0.063600 0.473500
vt 0.086200 0.761600
vt 0.320400 0.204300
vt 0.205600 0.045200
vt 0.205600 0.473500
vt 0.347600 0.473500
vt 0.205600 0.819400
vt 0.324900 0.761600
vt 0.090800 0.204300
vt 0.063600 0.473500
vt 0.086200 0.761600
vt 0.320400 0.204300
vt 0.205600 0.045200
vt 0.205600 0.473500
vt 0.347600 0.473500
vt 0.205600 0.819400
vt 0.347600 0.819500
vt 0.208000 0.848800
vt 0.090800 0.204300
vt 0.063600 0.473500
vt 0.063600 0.819500
vt 0.320400 0.204300
vt 0.205600 0.045200
vt 0.205600 0.473500
vt 0.347600 0.473500
vt 0.205600 0.819400
vt 0.324900 0.761600
vt 0.090800 0.204300
vt 0.063600 0.473500
vt 0.086200 0.761600
vn 0.2178 0.7885 0.5751
vn 0.1658 0.8821 0.4409
vn 0.4840 0.7072 0.5153
vn 0.4028 0.6587 0.6355
vn 0.1771 0.9379 0.2983
vn 0.5408 0.7520 0.3769
vn 0.6589 0.5018 0.5604
vn 0.3270 0.6004 0.7298
vn 0.7665 0.4801 0.4265
vn 0.2956 0.7857 0.5434
vn 0.1250 0.8292 0.5448
vn 0.3547 0.8900 0.2866
vn 0.4575 0.8059 0.3758
vn -0.1416 0.9469 0.2888
vn -0.1279 0.9855 -0.1118
vn -0.3921 0.8536 -0.3428
vn 0.5168 0.8540 0.0596
vn 0.5342 0.7193 0.4440
vn 0.2673 0.9469 -0.1789
vn 0.8054 0.4022 0.4354
vn 0.7526 0.3190 0.5761
vn 0.6461 0.6377 0.4194
vn 0.7441 0.5909 0.3116
vn 0.6578 0.2928 0.6940
vn 0.5376 0.6557 0.5302
vn 0.5380 0.8092 0.2359
vn 0.8142 0.5419 0.2081
vn 0.3876 0.8745 0.2915
vn -0.8802 0.0340 0.4734
vn 0.1983 -0.1013 0.9749
vn 0.3068 -0.0053 0.9518
vn -0.8134 -0.1933 0.5486
vn 0.9951 -0.0809 0.0566
vn 0.9838 0.1555 0.0889
vn 0.3553 0.0639 -0.9326
vn 0.4532 0.1731 -0.8744
vn -0.7429 0.1282 -0.6570
vn -0.7046 -0.0358 -0.7087
vn 0.3311 -0.0581 0.9418
vn -0.7692 -0.2467 0.5894
vn 0.9651 0.2459 -0.0901
vn 0.1362 0.1709 -0.9758
vn -0.8563 -0.0991 -0.5068
vn 0.4203 -0.1545 0.8941
vn -0.7262 -0.1274 0.6756
vn 0.9964 0.0385 -0.0750
vn 0.2404 0.1965 -0.9506
vn -0.8639 0.0950 -0.4946
vn -0.6435 0.7587 -0.1014
vn -0.5164 0.8555 -0.0384
vn -0.7647 0.6325 0.1232
vn -0.7982 0.6019 -0.0229
vn -0.4211 0.9042 0.0716
vn -0.7011 0.6630 0.2625
vn -0.8948 0.4024 0.1934
vn -0.8151 0.5598 -0.1493
vn -0.8620 0.3591 0.3577
vn -0.6700 0.7420 -0.0235
vn -0.5637 0.8132 -0.1444
vn -0.5237 0.8271 0.2039
vn -0.6507 0.7299 0.2093
vn -0.2073 0.9656 -0.1569
vn 0.0827 0.9891 0.1216
vn 0.4403 0.8960 0.0583
vn -0.4549 0.7578 0.4677
vn -0.7446 0.6340 0.2089
vn -0.1207 0.8834 0.4527
vn -0.8873 0.2761 0.3693
vn -0.9519 0.2072 0.2259
vn -0.7919 0.5341 0.2961
vn -0.7703 0.4685 0.4326
vn -0.9768 0.2006 0.0746
vn -0.8063 0.5733 0.1456
vn -0.5979 0.7156 0.3613
vn -0.7337 0.4054 0.5453
vn -0.5475 0.8066 0.2229
vn -0.2319 0.9590 -0.1627
vn -0.0838 0.9648 -0.2494
vn -0.1624 0.9803 0.1125
vn -0.3030 0.9511 0.0600
vn 0.0692 0.9625 -0.2624
vn -0.0099 0.9894 0.1451
vn -0.2465 0.8998 0.3600
vn -0.4221 0.9064 0.0170
vn -0.1129 0.8767 0.4677
vn -0.1913 0.9773 -0.0915
vn -0.2045 0.9427 -0.2636
vn 0.0916 0.9924 -0.0819
vn -0.0037 0.9989 0.0465
vn -0.0219 0.8694 -0.4936
vn 0.3633 0.8035 -0.4716
vn 0.4785 0.5992 -0.6419
vn 0.3153 0.9454 0.0819
vn -0.0843 0.9846 0.1530
vn 0.4855 0.8676 -0.1071
vn -0.1415 0.8316 0.5370
vn -0.3084 0.7932 0.5251
vn -0.0716 0.9544 0.2898
vn 0.0278 0.9163 0.3995
vn -0.4415 0.7759 0.4505
vn -0.1853 0.9655 0.1832
vn 0.1399 0.9830 0.1188
vn 0.1181 0.8662 0.4855
vn 0.0870 0.9952 -0.0456
vn -0.5887 0.7886 -0.1780
vn -0.4505 0.8821 -0.1374
vn -0.7036 0.7072 0.0695
vn -0.7493 0.6587 -0.0681
vn -0.3444 0.9379 -0.0415
vn -0.6284 0.7520 0.1989
vn -0.8459 0.5018 0.1807
vn -0.7779 0.6004 -0.1857
vn -0.8054 0.4801 0.3476
vn -0.6109 0.7857 -0.0970
vn -0.5081 0.8292 -0.2330
vn -0.4434 0.8900 0.1064
vn -0.5768 0.8059 0.1335
vn -0.1426 0.9469 -0.2883
vn 0.1666 0.9855 -0.0332
vn 0.5108 0.8536 -0.1018
vn -0.3623 0.8540 0.3734
vn -0.6776 0.7193 0.1528
vn -0.0212 0.9469 0.3209
vn -0.8362 0.4022 0.3729
vn -0.9154 0.3190 0.2454
vn -0.7263 0.6377 0.2565
vn -0.7007 0.5909 0.3998
vn -0.9511 0.2928 0.0984
vn -0.7480 0.6557 0.1029
vn -0.5150 0.8092 0.2827
vn -0.6614 0.5419 0.5186
vn -0.4674 0.8745 0.1296
vn 0.1167 0.0088 -0.9931
vn -0.9083 0.0097 -0.4181
vn -0.9120 0.0840 -0.4014
vn 0.0851 -0.0104 -0.9963
vn -0.6786 0.0097 0.7345
vn -0.6886 0.0840 0.7202
vn 0.4887 0.0088 0.8724
vn 0.4606 -0.0104 0.8876
vn 0.9807 0.0082 -0.1956
vn 0.9775 -0.0803 -0.1949
vn -0.9042 0.0888 -0.4179
vn 0.1392 -0.0752 -0.9874
vn -0.6515 0.1384 0.7459
vn 0.5013 0.0137 0.8652
vn 0.9785 -0.1077 -0.1761
vn -0.8934 0.0114 -0.4491
vn 0.1378 -0.0970 -0.9857
vn -0.7248 0.1198 0.6784
vn 0.4204 0.0849 0.9034
vn 0.9883 -0.0527 -0.1429
vn 0.2496 0.7886 -0.5621
vn 0.1922 0.8821 -0.4300
vn 0.0183 0.7072 -0.7068
vn 0.1605 0.6587 -0.7351
vn 0.0839 0.9379 -0.3366
vn -0.1195 0.7520 -0.6483
vn -0.0744 0.5018 -0.8618
vn 0.2807 0.6004 -0.7489
vn -0.2450 0.4801 -0.8423
vn 0.1720 0.7857 -0.5942
vn 0.2942 0.8292 -0.4752
vn -0.0506 0.8900 -0.4531
vn -0.0609 0.8059 -0.5889
vn 0.3038 0.9469 -0.1058
vn 0.0123 0.9855 0.1695
vn 0.0377 0.8536 0.5195
vn -0.3256 0.8540 -0.4058
vn -0.0676 0.7193 -0.6914
vn -0.3159 0.9469 -0.0608
vn -0.2664 0.4022 -0.8759
vn -0.1300 0.3190 -0.9388
vn -0.1645 0.6377 -0.7526
vn -0.3099 0.5909 -0.7448
vn 0.0203 0.2927 -0.9560
vn -0.0093 0.6557 -0.7550
vn -0.2166 0.8092 -0.5461
vn -0.4325 0.5419 -0.7206
vn -0.0706 0.8745 -0.4798
vn 0.1309 0.9754 0.1774
vn -0.0300 0.9710 0.2373
vn 0.1085 0.9884 -0.1061
vn 0.2397 0.9704 -0.0296
vn -0.1823 0.9574 0.2239
vn -0.0363 0.9857 -0.1645
vn 0.2396 0.9117 -0.3336
vn 0.3525 0.9352 0.0342
vn 0.1286 0.8775 -0.4619
vn 0.1020 0.9898 0.0998
vn 0.0877 0.9582 0.2724
vn -0.1754 0.9836 0.0417
vn -0.0601 0.9958 -0.0687
vn -0.1683 0.8469 0.5044
vn -0.5333 0.7283 0.4303
vn -0.6717 0.4550 0.5846
vn -0.3635 0.9183 -0.1569
vn 0.0384 0.9865 -0.1594
vn -0.5984 0.7995 0.0519
vn 0.1719 0.8340 -0.5242
vn 0.3366 0.8083 -0.4831
vn 0.0518 0.9539 -0.2956
vn -0.0242 0.9073 -0.4199
vn 0.4557 0.8019 -0.3864
vn 0.1443 0.9746 -0.1715
vn -0.1875 0.9685 -0.1640
vn -0.0945 0.8497 -0.5188
vn -0.1647 0.9863 0.0066
vn 0.5887 -0.7885 0.1779
vn 0.7493 -0.6587 0.0681
vn 0.7036 -0.7072 -0.0695
vn 0.4505 -0.8821 0.1374
vn 0.6284 -0.7520 -0.1989
vn 0.3444 -0.9379 0.0415
vn 0.7779 -0.6004 0.1857
vn 0.8459 -0.5018 -0.1807
vn 0.8054 -0.4801 -0.3476
vn 0.6109 -0.7857 0.0970
vn 0.5768 -0.8059 -0.1335
vn 0.4434 -0.8900 -0.1064
vn 0.5081 -0.8292 0.2330
vn -0.1666 -0.9855 0.0332
vn 0.1426 -0.9469 0.2883
vn -0.5108 -0.8536 0.1018
vn 0.6776 -0.7193 -0.1528
vn 0.3623 -0.8540 -0.3734
vn 0.0212 -0.9469 -0.3210
vn 0.8362 -0.4022 -0.3729
vn 0.7007 -0.5909 -0.3998
vn 0.7263 -0.6377 -0.2565
vn 0.9154 -0.3190 -0.2454
vn 0.7480 -0.6557 -0.1029
vn 0.9511 -0.2927 -0.0984
vn 0.6614 -0.5419 -0.5186
vn 0.5150 -0.8092 -0.2827
vn 0.4674 -0.8745 -0.1296
vn -0.2496 -0.7886 0.5621
vn -0.1605 -0.6587 0.7351
vn -0.0183 -0.7072 0.7068
vn -0.1922 -0.8821 0.4300
vn 0.1195 -0.7520 0.6483
vn -0.0839 -0.9379 0.3366
vn -0.2807 -0.6004 0.7489
vn 0.0744 -0.5018 0.8618
vn 0.2450 -0.4801 0.8423
vn -0.1720 -0.7857 0.5942
vn 0.0609 -0.8059 0.5889
vn 0.0506 -0.8900 0.4531
vn -0.2942 -0.8292 0.4752
vn -0.0123 -0.9855 -0.1695
vn -0.3037 -0.9469 0.1058
vn -0.0377 -0.8536 -0.5195
vn 0.0676 -0.7193 0.6914
vn 0.3256 -0.8540 0.4058
vn 0.3158 -0.9469 0.0608
vn 0.2664 -0.4022 0.8759
vn 0.3099 -0.5909 0.7448
vn 0.1645 -0.6377 0.7526
vn 0.1300 -0.3190 0.9388
vn 0.0093 -0.6557 0.7550
vn -0.0203 -0.2927 0.9560
vn 0.4325 -0.5419 0.7206
vn 0.2166 -0.8092 0.5461
vn 0.0706 -0.8745 0.4798
vn -0.1309 -0.9754 -0.1774
vn -0.2397 -0.9704 0.0296
vn -0.1085 -0.9884 0.1061
vn 0.0300 -0.9710 -0.2373
vn 0.0363 -0.9857 0.1645
vn 0.1823 -0.9574 -0.2239
vn -0.3525 -0.9352 -0.0342
vn -0.2396 -0.9118 0.3336
vn -0.1286 -0.8776 0.4619
vn -0.1020 -0.9898 -0.0998
vn 0.0601 -0.9958 0.0687
vn 0.1754 -0.9836 -0.0417
vn -0.0877 -0.9582 -0.2724
vn 0.5333 -0.7283 -0.4303
vn 0.1683 -0.8469 -0.5044
vn 0.6717 -0.4550 -0.5846
vn -0.0384 -0.9865 0.1594
vn 0.3635 -0.9183 0.1569
vn 0.5984 -0.7995 -0.0519
vn -0.1719 -0.8340 0.5242
vn 0.0242 -0.9073 0.4199
vn -0.0518 -0.9539 0.2956
vn -0.3366 -0.8083 0.4831
vn -0.1443 -0.9746 0.1715
vn -0.4557 -0.8019 0.3864
vn 0.0945 -0.8497 0.5187
vn 0.1875 -0.9685 0.1641
vn 0.1647 -0.9863 -0.0066
vn -0.2178 -0.7885 -0.5751
vn -0.4028 -0.6587 -0.6355
vn -0.4840 -0.7072 -0.5153
vn -0.1658 -0.8821 -0.4409
vn -0.5408 -0.7520 -0.3769
vn -0.1771 -0.9379 -0.2983
vn -0.3270 -0.6004 -0.7298
vn -0.6589 -0.5018 -0.5604
vn -0.7665 -0.4801 -0.4265
vn -0.2956 -0.7857 -0.5434
vn -0.4575 -0.8059 -0.3758
vn -0.3547 -0.8900 -0.2866
vn -0.1250 -0.8292 -0.5448
vn 0.1279 -0.9855 0.1118
vn 0.1416 -0.9469 -0.2888
vn 0.3921 -0.8536 0.3428
vn -0.5342 -0.7193 -0.4440
vn -0.5168 -0.8540 -0.0595
vn -0.2673 -0.9469 0.1789
vn -0.8054 -0.4022 -0.4354
vn -0.7441 -0.5909 -0.3116
vn -0.6461 -0.6377 -0.4194
vn -0.7526 -0.3190 -0.5761
vn -0.5375 -0.6557 -0.5302
vn -0.6578 -0.2928 -0.6940
vn -0.8142 -0.5419 -0.2081
vn -0.5380 -0.8092 -0.2359
vn -0.3876 -0.8745 -0.2915
vn 0.6435 -0.7587 0.1014
vn 0.7982 -0.6019 0.0229
vn 0.7647 -0.6325 -0.1232
vn 0.5164 -0.8555 0.0384
vn 0.7011 -0.6630 -0.2625
vn 0.4211 -0.9042 -0.0716
vn 0.8151 -0.5598 0.1493
vn 0.8948 -0.4024 -0.1934
vn 0.8620 -0.3591 -0.3577
vn 0.6700 -0.7420 0.0235
vn 0.6507 -0.7299 -0.2093
vn 0.5237 -0.8271 -0.2039
vn 0.5637 -0.8132 0.1444
vn -0.0827 -0.9891 -0.1216
vn 0.2073 -0.9656 0.1569
vn -0.4403 -0.8960 -0.0583
vn 0.7446 -0.6340 -0.2089
vn 0.4549 -0.7578 -0.4677
vn 0.1207 -0.8834 -0.4527
vn 0.8873 -0.2761 -0.3693
vn 0.7703 -0.4685 -0.4326
vn 0.7919 -0.5341 -0.2961
vn 0.9519 -0.2072 -0.2259
vn 0.8063 -0.5733 -0.1456
vn 0.9768 -0.2006 -0.0746
vn 0.7337 -0.4054 -0.5453
vn 0.5979 -0.7156 -0.3613
vn 0.5475 -0.8066 -0.2229
vn 0.2319 -0.9590 0.1627
vn 0.3030 -0.9511 -0.0600
vn 0.1624 -0.9803 -0.1125
vn 0.0838 -0.9648 0.2494
vn 0.0099 -0.9894 -0.1451
vn -0.0692 -0.9625 0.2624
vn 0.4221 -0.9064 -0.0170
vn 0.2465 -0.8998 -0.3600
vn 0.1129 -0.8767 -0.4677
vn 0.1913 -0.9773 0.0915
vn 0.0037 -0.9989 -0.0465
vn -0.0916 -0.9924 0.0819
vn 0.2045 -0.9427 0.2636
vn -0.3633 -0.8035 0.4717
vn 0.0219 -0.8694 0.4936
vn -0.4785 -0.5991 0.6419
vn 0.0842 -0.9846 -0.1530
vn -0.3153 -0.9454 -0.0819
vn -0.4855 -0.8676 0.1071
vn 0.1415 -0.8316 -0.5370
vn -0.0278 -0.9163 -0.3995
vn 0.0716 -0.9544 -0.2898
vn 0.3084 -0.7932 -0.5251
vn 0.1853 -0.9654 -0.1832
vn 0.4415 -0.7759 -0.4505
vn -0.1181 -0.8662 -0.4855
vn -0.1399 -0.9830 -0.1188
vn -0.0869 -0.9952 0.0456
s 1
f 1/1/1 2/2/2 3/3/3
f 3/3/3 4/4/4 1/1/1
f 2/2/2 5/5/5 6/6/6
f 6/6/6 3/3/3 2/2/2
f 4/4/4 3/3/3 7/7/7
f 7/7/7 8/8/8 4/4/4
f 3/3/3 6/6/6 9/9/9
f 9/9/9 7/7/7 3/3/3
s 2
f 10/10/10 11/11/11 12/12/12
f 12/12/12 13/13/13 10/10/10
f 11/11/11 14/14/14 15/15/15
f 15/15/15 12/12/12 11/11/11
f 14/14/14 16/16/16 15/15/15
f 13/13/13 12/12/12 17/17/17
f 17/17/17 18/18/18 13/13/13
f 12/12/12 15/15/15 19/19/19
f 19/19/19 17/17/17 12/12/12
f 15/15/15 16/16/16 19/19/19
s 3
f 20/20/20 21/21/21 22/22/22
f 22/22/22 23/23/23 20/20/20
f 21/21/21 24/24/24 25/25/25
f 25/25/25 22/22/22 21/21/21
f 23/23/23 22/22/22 26/26/26
f 26/26/26 27/27/27 23/23/23
f 22/22/22 25/25/25 28/28/28
f 28/28/28 26/26/26 22/22/22
s 4
f 29/29/29 30/30/30 31/31/31
f 31/31/31 32/32/32 29/29/29
f 30/30/30 33/33/33 34/34/34
f 34/34/34 31/31/31 30/30/30
f 33/33/33 35/35/35 36/36/36
f 36/36/36 34/34/34 33/33/33
f 35/35/35 37/37/37 38/38/38
f 38/38/38 36/36/36 35/35/35
f 37/39/37 29/29/29 32/32/32
f 32/32/32 38/40/38 37/39/37
f 32/32/32 31/31/31 39/41/39
f 39/41/39 40/42/40 32/32/32
f 31/31/31 34/34/34 41/43/41
f 41/43/41 39/41/39 31/31/31
f 34/34/34 36/36/36 42/44/42
f 42/44/42 41/43/41 34/34/34
f 36/36/36 38/38/38 43/45/43
f 43/45/43 42/44/42 36/36/36
f 38/40/38 32/32/32 40/42/40
f 40/42/40 43/46/43 38/40/38
f 40/42/40 39/41/39 44/47/44
f 44/47/44 45/48/45 40/42/40
f 39/41/39 41/43/41 46/49/46
f 46/49/46 44/47/44 39/41/39
f 41/43/41 42/44/42 47/50/47
f 47/50/47 46/49/46 41/43/41
f 42/44/42 43/45/43 48/51/48
f 48/51/48 47/50/47 42/44/42
f 43/46/43 40/42/40 45/48/45
f 45/48/45 48/52/48 43/46/43
s 5
f 49/53/49 50/54/50 51/55/51
f 51/55/51 52/56/52 49/53/49
f 50/54/50 53/57/53 54/58/54
f 54/58/54 51/55/51 50/54/50
f 52/56/52 51/55/51 55/59/55
f 55/59/55 56/60/56 52/56/52
f 51/55/51 54/58/54 57/61/57
f 57/61/57 55/59/55 51/55/51
s 6
f 58/62/58 59/63/59 60/64/60
f 60/64/60 61/65/61 58/62/58
f 59/63/59 62/66/62 63/67/63
f 63/67/63 60/64/60 59/63/59
f 62/66/62 64/68/64 63/67/63
f 61/65/61 60/64/60 65/69/65
f 65/69/65 66/70/66 61/65/61
f 60/64/60 63/67/63 67/71/67
f 67/71/67 65/69/65 60/64/60
f 63/67/63 64/68/64 67/71/67
s 7
f 68/72/68 69/73/69 70/74/70
f 70/74/70 71/75/71 68/72/68
f 69/73/69 72/76/72 73/77/73
f 73/77/73 70/74/70 69/73/69
f 71/75/71 70/74/70 74/78/74
f 74/78/74 75/79/75 71/75/71
f 70/74/70 73/77/73 76/80/76
f 76/80/76 74/78/74 70/74/70
s 8
f 77/81/77 78/82/78 79/83/79
f 79/83/79 80/84/80 77/81/77
f 78/82/78 81/85/81 82/86/82
f 82/86/82 79/83/79 78/82/78
f 80/84/80 79/83/79 83/87/83
f 83/87/83 84/88/84 80/84/80
f 79/83/79 82/86/82 85/89/85
f 85/89/85 83/87/83 79/83/79
s 9
f 86/90/86 87/91/87 88/92/88
f 88/92/88 89/93/89 86/90/86
f 87/91/87 90/94/90 91/95/91
f 91/95/91 88/92/88 87/91/87
f 90/94/90 92/96/92 91/95/91
f 89/93/89 88/92/88 93/97/93
f 93/97/93 94/98/94 89/93/89
f 88/92/88 91/95/91 95/99/95
f 95/99/95 93/97/93 88/92/88
f 91/95/91 92/96/92 95/99/95
s 10
f 96/100/96 97/101/97 98/102/98
f 98/102/98 99/103/99 96/100/96
f 97/101/97 100/104/100 101/105/101
f 101/105/101 98/102/98 97/101/97
f 99/103/99 98/102/98 102/106/102
f 102/106/102 103/107/103 99/103/99
f 98/102/98 101/105/101 104/108/104
f 104/108/104 102/106/102 98/102/98
s 11
f 105/109/105 106/110/106 107/111/107
f 107/111/107 108/112/108 105/109/105
f 106/110/106 109/113/109 110/114/110
f 110/114/110 107/111/107 106/110/106
f 108/112/108 107/111/107 111/115/111
f 111/115/111 112/116/112 108/112/108
f 107/111/107 110/114/110 113/117/113
f 113/117/113 111/115/111 107/111/107
s 12
f 114/118/114 115/119/115 116/120/116
f 116/120/116 117/121/117 114/118/114
f 115/119/115 118/122/118 119/123/119
f 119/123/119 116/120/116 115/119/115
f 118/122/118 120/124/120 119/123/119
f 117/121/117 116/120/116 121/125/121
f 121/125/121 122/126/122 117/121/117
f 116/120/116 119/123/119 123/127/123
f 123/127/123 121/125/121 116/120/116
f 119/123/119 120/124/120 123/127/123
s 13
f 124/128/124 125/129/125 126/130/126
f 126/130/126 127/131/127 124/128/124
f 125/129/125 128/132/128 129/133/129
f 129/133/129 126/130/126 125/129/125
f 127/131/127 126/130/126 130/134/130
f 130/134/130 131/135/131 127/131/127
f 126/130/126 129/133/129 132/136/132
f 132/136/132 130/134/130 126/130/126
s 14
f 133/137/133 134/138/134 135/139/135
f 135/139/135 136/140/136 133/137/133
f 134/138/134 137/141/137 138/142/138
f 138/142/138 135/139/135 134/138/134
f 137/141/137 139/143/139 140/144/140
f 140/144/140 138/142/138 137/141/137
f 139/143/139 141/145/141 142/146/142
f 142/146/142 140/144/140 139/143/139
f 141/147/141 133/137/133 136/140/136
f 136/140/136 142/148/142 141/147/141
f 136/140/136 135/139/135 143/149/143
f 143/149/143 144/150/144 136/140/136
f 135/139/135 138/142/138 145/151/145
f 145/151/145 143/149/143 135/139/135
f 138/142/138 140/144/140 146/152/146
f 146/152/146 145/151/145 138/142/138
f 140/144/140 142/146/142 147/153/147
f 147/153/147 146/152/146 140/144/140
f 142/148/142 136/140/136 144/150/144
f 144/150/144 147/154/147 142/148/142
f 144/150/144 143/149/143 148/155/148
f 148/155/148 149/156/149 144/150/144
f 143/149/143 145/151/145 150/157/150
f 150/157/150 148/155/148 143/149/143
f 145/151/145 146/152/146 151/158/151
f 151/158/151 150/157/150 145/151/145
f 146/152/146 147/153/147 152/159/152
f 152/159/152 151/158/151 146/152/146
f 147/154/147 144/150/144 149/156/149
f 149/156/149 152/160/152 147/154/147
s 15
f 153/161/153 154/162/154 155/163/155
f 155/163/155 156/164/156 153/161/153
f 154/162/154 157/165/157 158/166/158
f 158/166/158 155/163/155 154/162/154
f 156/164/156 155/163/155 159/167/159
f 159/167/159 160/168/160 156/164/156
f 155/163/155 158/166/158 161/169/161
f 161/169/161 159/167/159 155/163/155
s 16
f 162/170/162 163/171/163 164/172/164
f 164/172/164 165/173/165 162/170/162
f 163/171/163 166/174/166 167/175/167
f 167/175/167 164/172/164 163/171/163
f 166/174/166 168/176/168 167/175/167
f 165/173/165 164/172/164 169/177/169
f 169/177/169 170/178/170 165/173/165
f 164/172/164 167/175/167 171/179/171
f 171/179/171 169/177/169 164/172/164
f 167/175/167 168/176/168 171/179/171
s 17
f 172/180/172 173/181/173 174/182/174
f 174/182/174 175/183/175 172/180/172
f 173/181/173 176/184/176 177/185/177
f 177/185/177 174/182/174 173/181/173
f 175/183/175 174/182/174 178/186/178
f 178/186/178 179/187/179 175/183/175
f 174/182/174 177/185/177 180/188/180
f 180/188/180 178/186/178 174/182/174
s 18
f 181/189/181 182/190/182 183/191/183
f 183/191/183 184/192/184 181/189/181
f 182/190/182 185/193/185 186/194/186
f 186/194/186 183/191/183 182/190/182
f 184/192/184 183/191/183 187/195/187
f 187/195/187 188/196/188 184/192/184
f 183/191/183 186/194/186 189/197/189
f 189/197/189 187/195/187 183/191/183
s 19
f 190/198/190 191/199/191 192/200/192
f 192/200/192 193/201/193 190/198/190
f 191/199/191 194/202/194 195/203/195
f 195/203/195 192/200/192 191/199/191
f 194/202/194 196/204/196 195/203/195
f 193/201/193 192/200/192 197/205/197
f 197/205/197 198/206/198 193/201/193
f 192/200/192 195/203/195 199/207/199
f 199/207/199 197/205/197 192/200/192
f 195/203/195 196/204/196 199/207/199
s 20
f 200/208/200 201/209/201 202/210/202
f 202/210/202 203/211/203 200/208/200
f 201/209/201 204/212/204 205/213/205
f 205/213/205 202/210/202 201/209/201
f 203/211/203 202/210/202 206/214/206
f 206/214/206 207/215/207 203/211/203
f 202/210/202 205/213/205 208/216/208
f 208/216/208 206/214/206 202/210/202
s 21
f 209/217/209 210/218/210 211/219/211
f 211/219/211 212/220/212 209/217/209
f 212/220/212 211/219/211 213/221/213
f 213/221/213 214/222/214 212/220/212
f 210/218/210 215/223/215 216/224/216
f 216/224/216 211/219/211 210/218/210
f 211/219/211 216/224/216 217/225/217
f 217/225/217 213/221/213 211/219/211
s 22
f 218/226/218 219/227/219 220/228/220
f 220/228/220 221/229/221 218/226/218
f 221/229/221 220/228/220 222/230/222
f 222/230/222 223/231/223 221/229/221
f 223/231/223 222/230/222 224/232/224
f 219/227/219 225/233/225 226/234/226
f 226/234/226 220/228/220 219/227/219
f 220/228/220 226/234/226 227/235/227
f 227/235/227 222/230/222 220/228/220
f 222/230/222 227/235/227 224/232/224
s 23
f 228/236/228 229/237/229 230/238/230
f 230/238/230 231/239/231 228/236/228
f 231/239/231 230/238/230 232/240/232
f 232/240/232 233/241/233 231/239/231
f 229/237/229 234/242/234 235/243/235
f 235/243/235 230/238/230 229/237/229
f 230/238/230 235/243/235 236/244/236
f 236/244/236 232/240/232 230/238/230
s 24
f 237/245/237 238/246/238 239/247/239
f 239/247/239 240/248/240 237/245/237
f 240/248/240 239/247/239 241/249/241
f 241/249/241 242/250/242 240/248/240
f 238/246/238 243/251/243 244/252/244
f 244/252/244 239/247/239 238/246/238
f 239/247/239 244/252/244 245/253/245
f 245/253/245 241/249/241 239/247/239
s 25
f 246/254/246 247/255/247 248/256/248
f 248/256/248 249/257/249 246/254/246
f 249/257/249 248/256/248 250/258/250
f 250/258/250 251/259/251 249/257/249
f 251/259/251 250/258/250 252/260/252
f 247/255/247 253/261/253 254/262/254
f 254/262/254 248/256/248 247/255/247
f 248/256/248 254/262/254 255/263/255
f 255/263/255 250/258/250 248/256/248
f 250/258/250 255/263/255 252/260/252
s 26
f 256/264/256 257/265/257 258/266/258
f 258/266/258 259/267/259 256/264/256
f 259/267/259 258/266/258 260/268/260
f 260/268/260 261/269/261 259/267/259
f 257/265/257 262/270/262 263/271/263
f 263/271/263 258/266/258 257/265/257
f 258/266/258 263/271/263 264/272/264
f 264/272/264 260/268/260 258/266/258
s 27
f 265/273/265 266/274/266 267/275/267
f 267/275/267 268/276/268 265/273/265
f 268/276/268 267/275/267 269/277/269
f 269/277/269 270/278/270 268/276/268
f 266/274/266 271/279/271 272/280/272
f 272/280/272 267/275/267 266/274/266
f 267/275/267 272/280/272 273/281/273
f 273/281/273 269/277/269 267/275/267
s 28
f 274/282/274 275/283/275 276/284/276
f 276/284/276 277/285/277 274/282/274
f 277/285/277 276/284/276 278/286/278
f 278/286/278 279/287/279 277/285/277
f 279/287/279 278/286/278 280/288/280
f 275/283/275 281/289/281 282/290/282
f 282/290/282 276/284/276 275/283/275
f 276/284/276 282/290/282 283/291/283
f 283/291/283 278/286/278 276/284/276
f 278/286/278 283/291/283 280/288/280
s 29
f 284/292/284 285/293/285 286/294/286
f 286/294/286 287/295/287 284/292/284
f 287/295/287 286/294/286 288/296/288
f 288/296/288 289/297/289 287/295/287
f 285/293/285 290/298/290 291/299/291
f 291/299/291 286/294/286 285/293/285
f 286/294/286 291/299/291 292/300/292
f 292/300/292 288/296/288 286/294/286
s 30
f 293/301/293 294/302/294 295/303/295
f 295/303/295 296/304/296 293/301/293
f 296/304/296 295/303/295 297/305/297
f 297/305/297 298/306/298 296/304/296
f 294/302/294 299/307/299 300/308/300
f 300/308/300 295/303/295 294/302/294
f 295/303/295 300/308/300 301/309/301
f 301/309/301 297/305/297 295/303/295
s 31
f 302/310/302 303/311/303 304/312/304
f 304/312/304 305/313/305 302/310/302
f 305/313/305 304/312/304 306/314/306
f 306/314/306 307/315/307 305/313/305
f 307/315/307 306/314/306 308/316/308
f 303/311/303 309/317/309 310/318/310
f 310/318/310 304/312/304 303/311/303
f 304/312/304 310/318/310 311/319/311
f 311/319/311 306/314/306 304/312/304
f 306/314/306 311/319/311 308/316/308
s 32
f 312/320/312 313/321/313 314/322/314
f 314/322/314 315/323/315 312/320/312
f 315/323/315 314/322/314 316/324/316
f 316/324/316 317/325/317 315/323/315
f 313/321/313 318/326/318 319/327/319
f 319/327/319 314/322/314 313/321/313
f 314/322/314 319/327/319 320/328/320
f 320/328/320 316/324/316 314/322/314
s 33
f 321/329/321 322/330/322 323/331/323
f 323/331/323 324/332/324 321/329/321
f 324/332/324 323/331/323 325/333/325
f 325/333/325 326/334/326 324/332/324
f 322/330/322 327/335/327 328/336/328
f 328/336/328 323/331/323 322/330/322
f 323/331/323 328/336/328 329/337/329
f 329/337/329 325/333/325 323/331/323
s 34
f 330/338/330 331/339/331 332/340/332
f 332/340/332 333/341/333 330/338/330
f 333/341/333 332/340/332 334/342/334
f 334/342/334 335/343/335 333/341/333
f 335/343/335 334/342/334 336/344/336
f 331/339/331 337/345/337 338/346/338
f 338/346/338 332/340/332 331/339/331
f 332/340/332 338/346/338 339/347/339
f 339/347/339 334/342/334 332/340/332
f 334/342/334 339/347/339 336/344/336
s 35
f 340/348/340 341/349/341 342/350/342
f 342/350/342 343/351/343 340/348/340
f 343/351/343 342/350/342 344/352/344
f 344/352/344 345/353/345 343/351/343
f 341/349/341 346/354/346 347/355/347
f 347/355/347 342/350/342 341/349/341
f 342/350/342 347/355/347 348/356/348
f 348/356/348 344/352/344 342/350/342
s 36
f 349/357/349 350/358/350 351/359/351
f 351/359/351 352/360/352 349/357/349
f 352/360/352 351/359/351 353/361/353
f 353/361/353 354/362/354 352/360/352
f 350/358/350 355/363/355 356/364/356
f 356/364/356 351/359/351 350/358/350
f 351/359/351 356/364/356 357/365/357
f 357/365/357 353/361/353 351/359/351
s 37
f 358/366/358 359/367/359 360/368/360
f 360/368/360 361/369/361 358/366/358
f 361/369/361 360/368/360 362/370/362
f 362/370/362 363/371/363 361/369/361
f 363/371/363 362/370/362 364/372/364
f 359/367/359 365/373/365 366/374/366
f 366/374/366 360/368/360 359/367/359
f 360/368/360 366/374/366 367/375/367
f 367/375/367 362/370/362 360/368/360
f 362/370/362 367/375/367 364/372/364
s 38
f 368/376/368 369/377/369 370/378/370
f 370/378/370 371/379/371 368/376/368
f 371/379/371 370/378/370 372/380/372
f 372/380/372 373/381/373 371/379/371
f 369/377/369 374/382/374 375/383/375
f 375/383/375 370/378/370 369/377/369
f 370/378/370 375/383/375 376/384/376
f 376/384/376 372/380/372 370/378/370
