# Blender v3.3.0 OBJ File: ''
# www.blender.org
o SoybeanStageDead.005
v -0.053150 0.571889 0.053698
v -0.014466 0.594677 0.041221
v -0.019205 0.566485 0.012604
v -0.081138 0.546682 0.037257
v 0.029466 0.593463 0.024050
v 0.034797 0.568224 -0.001334
v -0.030739 0.561997 -0.025907
v -0.066431 0.545216 -0.001090
v 0.015854 0.566127 -0.032101
v -0.052959 0.569091 0.054142
v -0.080947 0.543885 0.037702
v -0.019014 0.563687 0.013048
v -0.014275 0.591879 0.041665
v 0.034988 0.565427 -0.000890
v 0.029657 0.590666 0.024495
v -0.066240 0.542419 -0.000646
v -0.030547 0.559200 -0.025463
v 0.016045 0.563330 -0.031656
v 0.198339 0.700029 0.073790
v 0.146868 0.697777 0.010000
v 0.107914 0.674868 0.064991
v 0.196116 0.699754 0.146072
v 0.083419 0.651504 -0.048935
v 0.044464 0.628595 0.006056
v 0.034703 0.597016 -0.005080
v 0.056209 0.695649 0.109275
v 0.124345 0.698292 0.154816
v -0.007241 0.649376 0.050340
v 0.125364 0.616489 -0.105686
v 0.075169 0.640740 -0.079269
v 0.102648 0.619399 -0.038562
v 0.174996 0.599102 -0.091746
v 0.029359 0.636223 -0.037047
v 0.042303 0.614760 0.003786
v 0.133504 0.633060 0.003017
v 0.172975 0.610222 -0.038527
v 0.078155 0.629800 0.031783
v 0.198965 0.696351 0.074249
v 0.196742 0.696076 0.146530
v 0.108540 0.671191 0.065450
v 0.147494 0.694100 0.010459
v 0.045090 0.624918 0.006515
v 0.084044 0.647827 -0.048476
v 0.035328 0.593338 -0.004622
v 0.124971 0.694614 0.155274
v 0.056835 0.691971 0.109734
v -0.006615 0.645698 0.050799
v 0.125990 0.612812 -0.105228
v 0.175621 0.595425 -0.091287
v 0.103274 0.615722 -0.038104
v 0.075795 0.637062 -0.078810
v 0.042929 0.611083 0.004244
v 0.029985 0.632546 -0.036588
v 0.173601 0.606544 -0.038068
v 0.134130 0.629383 0.003475
v 0.078781 0.626122 0.032242
v 0.017409 0.152960 -0.251275
v -0.051737 0.186949 -0.206627
v 0.010366 0.214220 -0.169547
v 0.094488 0.165233 -0.260008
v -0.089720 0.208804 -0.127823
v -0.045052 0.231338 -0.080070
v 0.051813 0.278776 -0.160060
v 0.101924 0.227907 -0.213268
v -0.003103 0.285616 -0.088872
v -0.266679 0.147872 -0.221537
v -0.226481 0.229366 -0.145687
v -0.142886 0.198790 -0.197009
v -0.236698 0.099664 -0.309142
v -0.139865 0.272581 -0.042155
v -0.056269 0.242004 -0.093478
v -0.009759 0.197777 -0.037886
v -0.077613 0.229366 -0.270233
v -0.145176 0.147872 -0.323189
v 0.009004 0.272581 -0.166702
v 0.000000 -0.012012 0.022843
v 0.008454 -0.012012 0.019707
v 0.007114 0.124049 0.018913
v 0.000251 0.124049 0.021458
v 0.008084 -0.012012 0.010697
v 0.006814 0.124049 0.011599
v -0.000599 -0.012012 0.008265
v -0.000235 0.124049 0.009624
v -0.005595 -0.012012 0.015772
v -0.004291 0.124049 0.015718
v -0.019615 0.262796 0.018779
v -0.024170 0.262796 0.020469
v -0.019814 0.262796 0.013925
v -0.024492 0.262796 0.012615
v -0.027184 0.262796 0.016659
v -0.028254 0.375541 0.028883
v -0.031428 0.374970 0.029851
v -0.028229 0.375857 0.025531
v -0.031388 0.375483 0.024428
v -0.033365 0.374934 0.027098
v 0.012367 0.230531 0.211186
v 0.028375 0.283219 0.158045
v -0.033385 0.263450 0.143629
v -0.041244 0.199362 0.237825
v 0.035631 0.311158 0.071075
v -0.026129 0.291390 0.056659
v -0.022233 0.262796 0.009959
v -0.096680 0.283219 0.147611
v -0.089700 0.230531 0.202671
v -0.089424 0.311158 0.060641
v 0.102796 0.292574 0.047638
v 0.053178 0.321775 0.047814
v 0.040742 0.276046 0.063685
v 0.122592 0.250189 0.067384
v -0.004123 0.323067 0.037166
v -0.025190 0.284494 0.045396
v 0.028225 0.250976 0.105068
v 0.082430 0.234790 0.094367
v -0.024996 0.263846 0.085058
v -0.160474 0.409138 -0.024420
v -0.120905 0.428096 0.018943
v -0.089967 0.416727 -0.023260
v -0.162240 0.401859 -0.078308
v -0.065910 0.421578 0.047833
v -0.030133 0.407762 0.019118
v -0.061656 0.440276 -0.062137
v -0.112115 0.419079 -0.090595
v -0.016349 0.431766 -0.019988
v 0.057161 0.399441 0.124932
v 0.040663 0.431233 0.074707
v -0.003089 0.403227 0.087707
v 0.034017 0.372525 0.166162
v 0.010450 0.433209 0.020073
v -0.030133 0.407762 0.019118
v -0.051618 0.408911 0.109618
v -0.018156 0.381223 0.153425
v -0.066741 0.414537 0.049275
v 0.012367 0.226772 0.211186
v -0.041244 0.195604 0.237825
v -0.033385 0.259692 0.143629
v 0.028375 0.279460 0.158045
v -0.026129 0.287631 0.056659
v 0.035631 0.307400 0.071075
v -0.022233 0.259037 0.009959
v -0.089700 0.226772 0.202671
v -0.096680 0.279460 0.147611
v -0.089424 0.307400 0.060641
v 0.102796 0.288816 0.047638
v 0.122592 0.246431 0.067384
v 0.040742 0.272288 0.063685
v 0.053178 0.318017 0.047814
v -0.025190 0.280735 0.045396
v -0.004123 0.319309 0.037166
v 0.082430 0.231031 0.094367
v 0.028225 0.247218 0.105068
v -0.024996 0.260087 0.085058
v -0.160474 0.405380 -0.024420
v -0.162240 0.398100 -0.078308
v -0.089967 0.412969 -0.023260
v -0.120905 0.424338 0.018943
v -0.030133 0.404003 0.019118
v -0.065910 0.417819 0.047833
v -0.112115 0.415320 -0.090595
v -0.061656 0.436518 -0.062137
v -0.016349 0.428007 -0.019988
v 0.057161 0.395682 0.124932
v 0.034017 0.368767 0.166162
v -0.003089 0.399468 0.087707
v 0.040663 0.427474 0.074707
v -0.030133 0.404003 0.019118
v 0.010450 0.429450 0.020073
v -0.018156 0.377464 0.153425
v -0.051618 0.405153 0.109618
v -0.066741 0.410779 0.049275
v 0.017409 0.149201 -0.251275
v 0.094488 0.161474 -0.260008
v 0.010366 0.210461 -0.169547
v -0.051737 0.183190 -0.206627
v -0.045052 0.227579 -0.080070
v -0.089720 0.205046 -0.127823
v 0.101924 0.224149 -0.213268
v 0.051813 0.275018 -0.160060
v -0.003103 0.281857 -0.088872
v -0.266679 0.144114 -0.221537
v -0.236698 0.095905 -0.309142
v -0.142886 0.195031 -0.197009
v -0.226481 0.225608 -0.145687
v -0.056269 0.238246 -0.093478
v -0.139865 0.268822 -0.042155
v -0.009759 0.194019 -0.037886
v -0.145176 0.144114 -0.323189
v -0.077613 0.225608 -0.270233
v 0.009004 0.268822 -0.166702
v -0.033365 0.374934 0.027098
v -0.031428 0.374970 0.029851
v -0.030133 0.404003 0.019118
v -0.031085 0.403541 0.016603
v -0.028254 0.375541 0.028883
v -0.027409 0.404076 0.018988
v -0.028229 0.375857 0.025531
v -0.026677 0.403659 0.016393
v -0.031388 0.375483 0.024428
v -0.028949 0.403328 0.014919
v -0.037979 0.465377 0.003740
v -0.038513 0.464743 0.002041
v -0.036104 0.465617 0.003710
v -0.035480 0.465133 0.001992
v -0.036969 0.464592 0.000961
v -0.020164 0.470540 -0.079637
v -0.044836 0.483949 -0.059347
v -0.020906 0.481374 -0.041316
v 0.010220 0.467361 -0.080143
v -0.060883 0.484991 -0.028171
v -0.044472 0.481266 -0.007176
v 0.000483 0.497808 -0.028019
v 0.016824 0.481852 -0.054068
v -0.022975 0.496584 -0.001966
v -0.128014 0.496507 -0.072796
v -0.108838 0.509870 -0.033120
v -0.078098 0.496939 -0.055159
v -0.117121 0.488433 -0.111078
v -0.077630 0.500983 0.011462
v -0.046890 0.488052 -0.010577
v -0.036015 0.463078 0.004143
v -0.046942 0.510249 -0.076372
v -0.077496 0.496817 -0.108097
v -0.015734 0.501362 -0.031790
v -0.103634 0.482912 0.042358
v -0.076069 0.499889 0.030024
v -0.082860 0.480019 0.008498
v -0.126275 0.465059 0.032249
v -0.045466 0.499159 0.012894
v -0.044472 0.481266 -0.007176
v -0.095305 0.478169 -0.018817
v -0.119334 0.465184 0.002495
v -0.061557 0.480990 -0.027961
v -0.020091 0.468461 -0.079282
v 0.010292 0.465281 -0.079789
v -0.020834 0.479295 -0.040961
v -0.044763 0.481870 -0.058992
v -0.044400 0.479186 -0.006822
v -0.060811 0.482912 -0.027816
v 0.016897 0.479772 -0.053713
v 0.000555 0.495729 -0.027665
v -0.022902 0.494505 -0.001612
v -0.127941 0.494428 -0.072442
v -0.117049 0.486354 -0.110724
v -0.078025 0.494860 -0.054804
v -0.108765 0.507790 -0.032766
v -0.046818 0.485973 -0.010222
v -0.077558 0.498903 0.011816
v -0.035943 0.460998 0.004498
v -0.077423 0.494738 -0.107743
v -0.046870 0.508170 -0.076017
v -0.015662 0.499283 -0.031435
v -0.103562 0.480832 0.042712
v -0.126203 0.462979 0.032604
v -0.082788 0.477939 0.008852
v -0.075997 0.497810 0.030379
v -0.044400 0.479186 -0.006822
v -0.045394 0.497079 0.013248
v -0.119262 0.463105 0.002849
v -0.095233 0.476090 -0.018462
v -0.061485 0.478911 -0.027606
v -0.102295 0.335101 -0.133223
v -0.071211 0.353323 -0.085130
v -0.035566 0.330798 -0.115843
v -0.093670 0.320026 -0.183296
v -0.026633 0.341591 -0.029875
v 0.009012 0.319066 -0.060587
v 0.020288 0.282508 -0.040722
v 0.003846 0.342299 -0.148023
v -0.041035 0.326104 -0.184555
v 0.048423 0.330568 -0.092768
v -0.058806 0.324080 0.014753
v -0.022557 0.341539 -0.005867
v -0.036254 0.314836 -0.031156
v -0.091428 0.302969 0.005813
v 0.014944 0.335257 -0.031358
v 0.011731 0.310250 -0.055796
v -0.055796 0.311721 -0.065046
v -0.085934 0.299743 -0.033547
v -0.012860 0.310315 -0.080860
v -0.103000 0.333414 -0.133770
v -0.094375 0.318339 -0.183843
v -0.036271 0.329111 -0.116389
v -0.071916 0.351636 -0.085677
v 0.008306 0.317380 -0.061134
v -0.027339 0.339904 -0.030422
v 0.019583 0.280821 -0.041269
v -0.041741 0.324417 -0.185101
v 0.003140 0.340613 -0.148570
v 0.047718 0.328881 -0.093314
v -0.059511 0.322393 0.014207
v -0.092134 0.301283 0.005266
v -0.036959 0.313149 -0.031702
v -0.023263 0.339852 -0.006414
v 0.011026 0.308563 -0.056343
v 0.014238 0.333570 -0.031905
v -0.086640 0.298056 -0.034094
v -0.056502 0.310034 -0.065593
v -0.013565 0.308628 -0.081407
v 0.056364 0.344035 -0.038849
v 0.056637 0.343372 -0.043654
v 0.036853 0.488701 0.004783
v 0.035766 0.488739 0.008041
v 0.052136 0.343625 -0.045463
v 0.034092 0.488569 0.002744
v 0.049080 0.344445 -0.041776
v 0.031298 0.488526 0.004742
v 0.051693 0.344698 -0.037689
v 0.032332 0.488631 0.008016
v 0.039051 0.602213 -0.005423
v 0.037986 0.602251 -0.002230
v 0.036345 0.602084 -0.007421
v 0.033607 0.602042 -0.005463
v 0.034621 0.602145 -0.002254
v -0.063625 0.459210 0.100247
v -0.011336 0.482931 0.104468
v -0.028783 0.499052 0.060497
v -0.106613 0.465219 0.073899
v 0.038902 0.498079 0.079068
v 0.034676 0.511583 0.036651
v -0.047432 0.539742 0.038265
v -0.093086 0.505577 0.046214
v 0.008709 0.545600 0.023691
v 0.093026 0.462996 0.198031
v 0.101056 0.514733 0.142217
v 0.038682 0.492851 0.135609
v 0.043898 0.431012 0.231477
v 0.097217 0.540619 0.054398
v 0.034844 0.518737 0.047790
v 0.034092 0.488569 0.002744
v -0.024300 0.510907 0.146568
v -0.009286 0.459874 0.201582
v -0.028138 0.536793 0.058749
v -0.063000 0.455533 0.100706
v -0.105987 0.461541 0.074358
v -0.028157 0.495374 0.060956
v -0.010710 0.479254 0.104927
v 0.035302 0.507905 0.037109
v 0.039528 0.494402 0.079526
v -0.092460 0.501900 0.046673
v -0.046806 0.536064 0.038724
v 0.009335 0.541922 0.024149
v 0.093652 0.459319 0.198489
v 0.044524 0.427334 0.231935
v 0.039308 0.489173 0.136068
v 0.101682 0.511055 0.142676
v 0.035470 0.515059 0.048248
v 0.097843 0.536941 0.054856
v 0.034534 0.485968 0.003068
v -0.008660 0.456196 0.202041
v -0.023674 0.507229 0.147027
v -0.027513 0.533115 0.059207
v 0.013364 -0.012012 -0.015503
v 0.005724 -0.012012 -0.020292
v -0.010184 0.204878 -0.044098
v -0.003983 0.204878 -0.040210
v -0.001192 -0.012012 -0.014506
v -0.015799 0.204878 -0.039401
v 0.002174 -0.012012 -0.006141
v -0.013066 0.204878 -0.032610
v 0.011170 -0.012012 -0.006757
v -0.005764 0.204878 -0.033110
v 0.052136 0.343625 -0.045463
v 0.056637 0.343372 -0.043654
v 0.049080 0.344445 -0.041776
v 0.051693 0.344698 -0.037689
v 0.056364 0.344035 -0.038849
v 0.057179 0.455189 -0.065109
v 0.060299 0.455014 -0.063855
v 0.055062 0.455757 -0.062554
v 0.056873 0.455933 -0.059722
v 0.060109 0.455474 -0.060526
v 0.138467 0.319471 0.065778
v 0.148105 0.333459 0.010767
v 0.105890 0.357502 0.022492
v 0.111232 0.335724 0.105430
v 0.127191 0.343014 -0.042803
v 0.086765 0.362106 -0.043583
v 0.088371 0.403134 0.032911
v 0.089714 0.376338 0.083851
v 0.077225 0.401295 -0.024280
v 0.242835 0.285158 -0.082700
v 0.194705 0.341253 -0.102529
v 0.182491 0.331036 -0.038036
v 0.269558 0.257963 -0.027009
v 0.110955 0.377936 -0.108650
v 0.098742 0.367719 -0.044157
v 0.049080 0.344445 -0.041776
v 0.192886 0.357853 0.021845
v 0.241350 0.298707 0.018810
v 0.109137 0.394537 0.015724
v 0.153214 0.515002 -0.232556
v 0.087434 0.529153 -0.185692
v 0.137142 0.506515 -0.140053
v 0.224662 0.506283 -0.225569
v 0.020152 0.501634 -0.119690
v 0.069860 0.478996 -0.074051
v 0.054251 0.451080 -0.060133
v 0.181403 0.530054 -0.089524
v 0.229909 0.515737 -0.154066
v 0.114121 0.502535 -0.023523
v -0.038761 0.467313 -0.159156
v -0.011671 0.496176 -0.111843
v 0.027078 0.465753 -0.132831
v -0.025008 0.440335 -0.204355
v 0.027495 0.494234 -0.063223
v 0.065700 0.466096 -0.069865
v 0.071432 0.468908 -0.162668
v 0.029065 0.445057 -0.200638
v 0.097009 0.471425 -0.105737
v 0.138467 0.315712 0.065778
v 0.111232 0.331965 0.105430
v 0.105890 0.353744 0.022492
v 0.148105 0.329700 0.010767
v 0.086765 0.358347 -0.043583
v 0.127191 0.339255 -0.042803
v 0.089714 0.372580 0.083851
v 0.088371 0.399376 0.032911
v 0.077225 0.397537 -0.024280
v 0.242835 0.281399 -0.082700
v 0.269558 0.254204 -0.027009
v 0.182491 0.327277 -0.038036
v 0.194705 0.337495 -0.102529
v 0.098742 0.363960 -0.044157
v 0.110955 0.374178 -0.108650
v 0.049080 0.340686 -0.041776
v 0.241350 0.294948 0.018810
v 0.192886 0.354095 0.021845
v 0.109137 0.390778 0.015724
v 0.153214 0.511243 -0.232556
v 0.224662 0.502524 -0.225569
v 0.137142 0.502756 -0.140053
v 0.087434 0.525395 -0.185692
v 0.069860 0.475237 -0.074051
v 0.020152 0.497875 -0.119690
v 0.054251 0.447322 -0.060133
v 0.229909 0.511978 -0.154066
v 0.181403 0.526295 -0.089524
v 0.114121 0.498776 -0.023523
v -0.038761 0.463555 -0.159156
v -0.025008 0.436576 -0.204355
v 0.027078 0.461994 -0.132831
v -0.011671 0.492418 -0.111843
v 0.065700 0.462337 -0.069865
v 0.027495 0.490475 -0.063223
v 0.029065 0.441299 -0.200638
v 0.071432 0.465149 -0.162668
v 0.097009 0.467666 -0.105737
v -0.106966 0.076407 0.110682
v -0.067343 0.082847 0.157967
v -0.062224 0.121245 0.060424
v -0.119427 0.104376 0.047367
v -0.043488 0.133257 -0.020797
v -0.096360 0.119784 -0.018221
v -0.033466 0.129707 0.135520
v -0.029373 0.169680 0.077800
v -0.021032 0.174409 0.007235
v -0.251725 0.084380 -0.062204
v -0.285856 0.049006 0.003986
v -0.164951 0.117536 -0.008145
v -0.182156 0.143194 -0.083184
v -0.056474 0.142787 -0.019346
v -0.073679 0.168445 -0.094384
v -0.002628 0.103271 -0.025361
v -0.238625 0.083294 0.062218
v -0.166106 0.141863 0.069262
v -0.057628 0.167114 0.058061
v -0.107211 0.073449 0.110682
v -0.119672 0.101418 0.047367
v -0.062470 0.118286 0.060424
v -0.067589 0.079889 0.157967
v -0.096605 0.116825 -0.018221
v -0.043733 0.130298 -0.020797
v -0.029619 0.166722 0.077800
v -0.033712 0.126748 0.135520
v -0.021277 0.171451 0.007235
v -0.251970 0.081422 -0.062204
v -0.182402 0.140236 -0.083184
v -0.165197 0.114577 -0.008145
v -0.286102 0.046048 0.003986
v -0.073925 0.165487 -0.094384
v -0.056719 0.139828 -0.019346
v -0.002873 0.100313 -0.025361
v -0.166351 0.138905 0.069262
v -0.238870 0.080335 0.062218
v -0.057874 0.164156 0.058061
vt 0.820400 0.204300
vt 0.847600 0.473500
vt 0.705600 0.473500
vt 0.705600 0.045200
vt 0.824900 0.761600
vt 0.705600 0.819400
vt 0.563600 0.473500
vt 0.590800 0.204300
vt 0.586200 0.761600
vt 0.820400 0.204300
vt 0.705600 0.045200
vt 0.705600 0.473500
vt 0.847600 0.473500
vt 0.705600 0.819400
vt 0.824900 0.761600
vt 0.590800 0.204300
vt 0.563600 0.473500
vt 0.586200 0.761600
vt 0.820400 0.204300
vt 0.847600 0.473500
vt 0.705600 0.473500
vt 0.705600 0.045200
vt 0.847600 0.819500
vt 0.705600 0.819400
vt 0.708000 0.848800
vt 0.563600 0.473500
vt 0.590800 0.204300
vt 0.563600 0.819500
vt 0.820400 0.204300
vt 0.847600 0.473500
vt 0.705600 0.473500
vt 0.705600 0.045200
vt 0.824900 0.761600
vt 0.705600 0.819400
vt 0.563600 0.473500
vt 0.590800 0.204300
vt 0.586200 0.761600
vt 0.820400 0.204300
vt 0.705600 0.045200
vt 0.705600 0.473500
vt 0.847600 0.473500
vt 0.705600 0.819400
vt 0.847600 0.819500
vt 0.708000 0.848800
vt 0.590800 0.204300
vt 0.563600 0.473500
vt 0.563600 0.819500
vt 0.820400 0.204300
vt 0.705600 0.045200
vt 0.705600 0.473500
vt 0.847600 0.473500
vt 0.705600 0.819400
vt 0.824900 0.761600
vt 0.590800 0.204300
vt 0.563600 0.473500
vt 0.586200 0.761600
vt 0.820400 0.204300
vt 0.847600 0.473500
vt 0.705600 0.473500
vt 0.705600 0.045200
vt 0.824900 0.761600
vt 0.705600 0.819400
vt 0.563600 0.473500
vt 0.590800 0.204300
vt 0.586200 0.761600
vt 0.820400 0.204300
vt 0.847600 0.473500
vt 0.705600 0.473500
vt 0.705600 0.045200
vt 0.847600 0.819500
vt 0.705600 0.819400
vt 0.705600 0.874600
vt 0.563600 0.473500
vt 0.590800 0.204300
vt 0.563600 0.819500
vt 0.519100 0.026600
vt 0.520000 0.026700
vt 0.519800 0.320000
vt 0.519100 0.321500
vt 0.520800 0.027300
vt 0.520500 0.320500
vt 0.521700 0.028300
vt 0.521200 0.322900
vt 0.522500 0.029700
vt 0.521800 0.325100
vt 0.518300 0.026700
vt 0.518500 0.322700
vt 0.519600 0.685300
vt 0.519100 0.685800
vt 0.520000 0.685600
vt 0.520500 0.686800
vt 0.520900 0.687900
vt 0.518700 0.686300
vt 0.519400 0.980000
vt 0.519100 0.979200
vt 0.519700 0.980300
vt 0.520000 0.979900
vt 0.520300 0.979900
vt 0.518800 0.978800
vt 0.820400 0.204300
vt 0.847600 0.473500
vt 0.705600 0.473500
vt 0.705600 0.045200
vt 0.847600 0.819500
vt 0.705600 0.819400
vt 0.705600 0.874600
vt 0.563600 0.473500
vt 0.590800 0.204300
vt 0.563600 0.819500
vt 0.820400 0.204300
vt 0.847600 0.473500
vt 0.705600 0.473500
vt 0.705600 0.045200
vt 0.824900 0.761600
vt 0.705600 0.819400
vt 0.563600 0.473500
vt 0.590800 0.204300
vt 0.586200 0.761600
vt 0.820400 0.204300
vt 0.847600 0.473500
vt 0.705600 0.473500
vt 0.705600 0.045200
vt 0.824900 0.761600
vt 0.705600 0.819400
vt 0.563600 0.473500
vt 0.590800 0.204300
vt 0.586200 0.761600
vt 0.820400 0.204300
vt 0.847600 0.473500
vt 0.705600 0.473500
vt 0.705600 0.045200
vt 0.824900 0.761600
vt 0.705600 0.819400
vt 0.563600 0.473500
vt 0.590800 0.204300
vt 0.586200 0.761600
vt 0.820400 0.204300
vt 0.705600 0.045200
vt 0.705600 0.473500
vt 0.847600 0.473500
vt 0.705600 0.819400
vt 0.847600 0.819500
vt 0.705600 0.874600
vt 0.590800 0.204300
vt 0.563600 0.473500
vt 0.563600 0.819500
vt 0.820400 0.204300
vt 0.705600 0.045200
vt 0.705600 0.473500
vt 0.847600 0.473500
vt 0.705600 0.819400
vt 0.824900 0.761600
vt 0.590800 0.204300
vt 0.563600 0.473500
vt 0.586200 0.761600
vt 0.820400 0.204300
vt 0.705600 0.045200
vt 0.705600 0.473500
vt 0.847600 0.473500
vt 0.705600 0.819400
vt 0.824900 0.761600
vt 0.590800 0.204300
vt 0.563600 0.473500
vt 0.586200 0.761600
vt 0.820400 0.204300
vt 0.705600 0.045200
vt 0.705600 0.473500
vt 0.847600 0.473500
vt 0.705600 0.819400
vt 0.824900 0.761600
vt 0.590800 0.204300
vt 0.563600 0.473500
vt 0.586200 0.761600
vt 0.820400 0.204300
vt 0.705600 0.045200
vt 0.705600 0.473500
vt 0.847600 0.473500
vt 0.705600 0.819400
vt 0.824900 0.761600
vt 0.590800 0.204300
vt 0.563600 0.473500
vt 0.586200 0.761600
vt 0.820400 0.204300
vt 0.705600 0.045200
vt 0.705600 0.473500
vt 0.847600 0.473500
vt 0.705600 0.819400
vt 0.847600 0.819500
vt 0.705600 0.874600
vt 0.590800 0.204300
vt 0.563600 0.473500
vt 0.563600 0.819500
vt 0.519100 0.321500
vt 0.519800 0.320000
vt 0.519600 0.685300
vt 0.519100 0.685800
vt 0.520500 0.320500
vt 0.520000 0.685600
vt 0.521200 0.322900
vt 0.520500 0.686800
vt 0.521800 0.325100
vt 0.520900 0.687900
vt 0.518500 0.322700
vt 0.518700 0.686300
vt 0.519400 0.980000
vt 0.519100 0.979200
vt 0.519700 0.980300
vt 0.520000 0.979900
vt 0.520300 0.979900
vt 0.518800 0.978800
vt 0.820400 0.204300
vt 0.847600 0.473500
vt 0.705600 0.473500
vt 0.705600 0.045200
vt 0.824900 0.761600
vt 0.705600 0.819400
vt 0.563600 0.473500
vt 0.590800 0.204300
vt 0.586200 0.761600
vt 0.820400 0.204300
vt 0.847600 0.473500
vt 0.705600 0.473500
vt 0.705600 0.045200
vt 0.847600 0.819500
vt 0.705600 0.819400
vt 0.705600 0.857600
vt 0.563600 0.473500
vt 0.590800 0.204300
vt 0.563600 0.819500
vt 0.820400 0.204300
vt 0.847600 0.473500
vt 0.705600 0.473500
vt 0.705600 0.045200
vt 0.824900 0.761600
vt 0.705600 0.819400
vt 0.563600 0.473500
vt 0.590800 0.204300
vt 0.586200 0.761600
vt 0.820400 0.204300
vt 0.705600 0.045200
vt 0.705600 0.473500
vt 0.847600 0.473500
vt 0.705600 0.819400
vt 0.824900 0.761600
vt 0.590800 0.204300
vt 0.563600 0.473500
vt 0.586200 0.761600
vt 0.820400 0.204300
vt 0.705600 0.045200
vt 0.705600 0.473500
vt 0.847600 0.473500
vt 0.705600 0.819400
vt 0.847600 0.819500
vt 0.705600 0.857600
vt 0.590800 0.204300
vt 0.563600 0.473500
vt 0.563600 0.819500
vt 0.820400 0.204300
vt 0.705600 0.045200
vt 0.705600 0.473500
vt 0.847600 0.473500
vt 0.705600 0.819400
vt 0.824900 0.761600
vt 0.590800 0.204300
vt 0.563600 0.473500
vt 0.586200 0.761600
vt 0.820400 0.204300
vt 0.847600 0.473500
vt 0.705600 0.473500
vt 0.705600 0.045200
vt 0.847600 0.819500
vt 0.705600 0.819400
vt 0.705600 0.874600
vt 0.563600 0.473500
vt 0.590800 0.204300
vt 0.563600 0.819500
vt 0.820400 0.204300
vt 0.847600 0.473500
vt 0.705600 0.473500
vt 0.705600 0.045200
vt 0.824900 0.761600
vt 0.705600 0.819400
vt 0.563600 0.473500
vt 0.590800 0.204300
vt 0.586200 0.761600
vt 0.820400 0.204300
vt 0.705600 0.045200
vt 0.705600 0.473500
vt 0.847600 0.473500
vt 0.705600 0.819400
vt 0.847600 0.819500
vt 0.705600 0.874600
vt 0.590800 0.204300
vt 0.563600 0.473500
vt 0.563600 0.819500
vt 0.820400 0.204300
vt 0.705600 0.045200
vt 0.705600 0.473500
vt 0.847600 0.473500
vt 0.705600 0.819400
vt 0.824900 0.761600
vt 0.590800 0.204300
vt 0.563600 0.473500
vt 0.586200 0.761600
vt 0.519100 0.321500
vt 0.519800 0.320000
vt 0.519600 0.685300
vt 0.519100 0.685800
vt 0.520500 0.320500
vt 0.520000 0.685600
vt 0.521200 0.322900
vt 0.520500 0.686800
vt 0.521800 0.325100
vt 0.520900 0.687900
vt 0.518500 0.322700
vt 0.518700 0.686300
vt 0.519400 0.980000
vt 0.519100 0.979200
vt 0.519700 0.980300
vt 0.520000 0.979900
vt 0.520300 0.979900
vt 0.518800 0.978800
vt 0.820400 0.204300
vt 0.847600 0.473500
vt 0.705600 0.473500
vt 0.705600 0.045200
vt 0.824900 0.761600
vt 0.705600 0.819400
vt 0.563600 0.473500
vt 0.590800 0.204300
vt 0.586200 0.761600
vt 0.820400 0.204300
vt 0.847600 0.473500
vt 0.705600 0.473500
vt 0.705600 0.045200
vt 0.847600 0.819500
vt 0.705600 0.819400
vt 0.705600 0.874600
vt 0.563600 0.473500
vt 0.590800 0.204300
vt 0.563600 0.819500
vt 0.820400 0.204300
vt 0.705600 0.045200
vt 0.705600 0.473500
vt 0.847600 0.473500
vt 0.705600 0.819400
vt 0.824900 0.761600
vt 0.590800 0.204300
vt 0.563600 0.473500
vt 0.586200 0.761600
vt 0.820400 0.204300
vt 0.705600 0.045200
vt 0.705600 0.473500
vt 0.847600 0.473500
vt 0.705600 0.819400
vt 0.847600 0.819500
vt 0.705600 0.874600
vt 0.590800 0.204300
vt 0.563600 0.473500
vt 0.563600 0.819500
vt 0.519100 0.026600
vt 0.520000 0.026700
vt 0.519800 0.320000
vt 0.519100 0.321500
vt 0.520800 0.027300
vt 0.520500 0.320500
vt 0.521700 0.028300
vt 0.521200 0.322900
vt 0.522500 0.029700
vt 0.521800 0.325100
vt 0.518300 0.026700
vt 0.518500 0.322700
vt 0.519600 0.685300
vt 0.519100 0.685800
vt 0.520000 0.685600
vt 0.520500 0.686800
vt 0.520900 0.687900
vt 0.518700 0.686300
vt 0.519400 0.980000
vt 0.519100 0.979200
vt 0.519700 0.980300
vt 0.520000 0.979900
vt 0.520300 0.979900
vt 0.518800 0.978800
vt 0.820400 0.204300
vt 0.847600 0.473500
vt 0.705600 0.473500
vt 0.705600 0.045200
vt 0.824900 0.761600
vt 0.705600 0.819400
vt 0.563600 0.473500
vt 0.590800 0.204300
vt 0.586200 0.761600
vt 0.820400 0.204300
vt 0.847600 0.473500
vt 0.705600 0.473500
vt 0.705600 0.045200
vt 0.847600 0.819500
vt 0.705600 0.819400
vt 0.705600 0.874600
vt 0.563600 0.473500
vt 0.590800 0.204300
vt 0.563600 0.819500
vt 0.820400 0.204300
vt 0.847600 0.473500
vt 0.705600 0.473500
vt 0.705600 0.045200
vt 0.847600 0.819500
vt 0.705600 0.819400
vt 0.708000 0.848800
vt 0.563600 0.473500
vt 0.590800 0.204300
vt 0.563600 0.819500
vt 0.820400 0.204300
vt 0.847600 0.473500
vt 0.705600 0.473500
vt 0.705600 0.045200
vt 0.824900 0.761600
vt 0.705600 0.819400
vt 0.563600 0.473500
vt 0.590800 0.204300
vt 0.586200 0.761600
vt 0.820400 0.204300
vt 0.705600 0.045200
vt 0.705600 0.473500
vt 0.847600 0.473500
vt 0.705600 0.819400
vt 0.824900 0.761600
vt 0.590800 0.204300
vt 0.563600 0.473500
vt 0.586200 0.761600
vt 0.820400 0.204300
vt 0.705600 0.045200
vt 0.705600 0.473500
vt 0.847600 0.473500
vt 0.705600 0.819400
vt 0.847600 0.819500
vt 0.705600 0.874600
vt 0.590800 0.204300
vt 0.563600 0.473500
vt 0.563600 0.819500
vt 0.820400 0.204300
vt 0.705600 0.045200
vt 0.705600 0.473500
vt 0.847600 0.473500
vt 0.705600 0.819400
vt 0.847600 0.819500
vt 0.708000 0.848800
vt 0.590800 0.204300
vt 0.563600 0.473500
vt 0.563600 0.819500
vt 0.820400 0.204300
vt 0.705600 0.045200
vt 0.705600 0.473500
vt 0.847600 0.473500
vt 0.705600 0.819400
vt 0.824900 0.761600
vt 0.590800 0.204300
vt 0.563600 0.473500
vt 0.586200 0.761600
vt 0.820400 0.204300
vt 0.705600 0.045200
vt 0.705600 0.473500
vt 0.847600 0.473500
vt 0.705600 0.819400
vt 0.824900 0.761600
vt 0.590800 0.204300
vt 0.563600 0.473500
vt 0.586200 0.761600
vt 0.820400 0.204300
vt 0.705600 0.045200
vt 0.705600 0.473500
vt 0.847600 0.473500
vt 0.705600 0.819400
vt 0.847600 0.819500
vt 0.705600 0.874600
vt 0.590800 0.204300
vt 0.563600 0.473500
vt 0.563600 0.819500
vt 0.820400 0.204300
vt 0.847600 0.473500
vt 0.705600 0.473500
vt 0.705600 0.045200
vt 0.824900 0.761600
vt 0.705600 0.819400
vt 0.563600 0.473500
vt 0.590800 0.204300
vt 0.586200 0.761600
vt 0.820400 0.204300
vt 0.847600 0.473500
vt 0.705600 0.473500
vt 0.705600 0.045200
vt 0.847600 0.819500
vt 0.705600 0.819400
vt 0.705600 0.874600
vt 0.563600 0.473500
vt 0.590800 0.204300
vt 0.563600 0.819500
vn -0.4728 0.7343 -0.4871
vn -0.3854 0.6794 -0.6244
vn -0.2913 0.8950 -0.3378
vn -0.4310 0.8542 -0.2907
vn -0.2585 0.6573 -0.7079
vn -0.1464 0.9071 -0.3947
vn -0.2345 0.9688 -0.0807
vn -0.5445 0.8038 -0.2396
vn -0.0649 0.9962 -0.0589
vn 0.4728 -0.7343 0.4871
vn 0.4310 -0.8542 0.2907
vn 0.2913 -0.8950 0.3378
vn 0.3854 -0.6794 0.6244
vn 0.1464 -0.9071 0.3947
vn 0.2585 -0.6574 0.7079
vn 0.5445 -0.8038 0.2395
vn 0.2345 -0.9688 0.0807
vn 0.0649 -0.9962 0.0589
vn -0.2731 0.9600 0.0618
vn -0.4375 0.8970 0.0638
vn -0.2356 0.9469 -0.2189
vn -0.1212 0.9860 -0.1142
vn -0.6309 0.7652 -0.1282
vn -0.5567 0.6642 -0.4990
vn -0.6770 0.4219 -0.6030
vn -0.0430 0.9066 -0.4198
vn -0.0232 0.9995 -0.0233
vn -0.1968 0.7790 -0.5953
vn 0.3724 0.9241 0.0860
vn 0.3491 0.9018 0.2546
vn 0.1173 0.9929 -0.0200
vn 0.2420 0.9647 -0.1039
vn 0.2645 0.8856 0.3817
vn -0.0013 0.9967 0.0816
vn -0.0321 0.9683 -0.2477
vn 0.3443 0.9215 -0.1795
vn -0.2010 0.9565 -0.2114
vn 0.2731 -0.9600 -0.0618
vn 0.1212 -0.9860 0.1142
vn 0.2356 -0.9469 0.2189
vn 0.4375 -0.8970 -0.0638
vn 0.5567 -0.6642 0.4990
vn 0.6309 -0.7652 0.1281
vn 0.6770 -0.4219 0.6030
vn 0.0232 -0.9995 0.0233
vn 0.0430 -0.9066 0.4198
vn 0.1968 -0.7790 0.5953
vn -0.3724 -0.9241 -0.0860
vn -0.2420 -0.9647 0.1039
vn -0.1173 -0.9929 0.0200
vn -0.3491 -0.9018 -0.2546
vn 0.0013 -0.9967 -0.0816
vn -0.2645 -0.8856 -0.3817
vn -0.3443 -0.9215 0.1795
vn 0.0321 -0.9683 0.2477
vn 0.2010 -0.9565 0.2114
vn -0.1260 0.7885 -0.6019
vn -0.0954 0.8821 -0.4613
vn -0.3983 0.7072 -0.5841
vn -0.2994 0.6587 -0.6902
vn -0.1287 0.9379 -0.3222
vn -0.4758 0.7520 -0.4562
vn -0.5640 0.5018 -0.6558
vn -0.2099 0.6004 -0.7717
vn -0.6911 0.4801 -0.5402
vn -0.2077 0.7857 -0.5827
vn -0.0390 0.8292 -0.5576
vn -0.3059 0.8900 -0.3381
vn -0.3936 0.8059 -0.4422
vn 0.1846 0.9469 -0.2634
vn 0.1090 0.9855 0.1303
vn 0.3342 0.8536 0.3995
vn -0.5013 0.8540 -0.1390
vn -0.4589 0.7193 -0.5215
vn -0.2918 0.9469 0.1353
vn -0.2694 0.0103 0.9630
vn 0.8325 0.0114 0.5539
vn 0.8388 0.0848 0.5379
vn -0.2385 -0.0097 0.9711
vn 0.7843 0.0114 -0.6203
vn 0.7919 0.0848 -0.6047
vn -0.3475 0.0103 -0.9376
vn -0.3173 -0.0096 -0.9483
vn -0.9991 0.0096 0.0411
vn -0.9960 -0.0796 0.0409
vn 0.8285 0.0888 0.5529
vn -0.2904 -0.0752 0.9539
vn 0.7592 0.1384 -0.6359
vn -0.3611 0.0137 -0.9324
vn -0.9939 -0.1077 0.0223
vn 0.8129 0.0113 0.5823
vn -0.2888 -0.0970 0.9525
vn 0.8215 0.1198 -0.5575
vn -0.2753 0.0849 -0.9576
vn -0.9985 -0.0527 -0.0120
vn -0.2621 0.7857 0.5603
vn -0.3644 0.8292 0.4239
vn -0.0202 0.8900 0.4555
vn -0.0311 0.8059 0.5912
vn -0.3165 0.9469 0.0574
vn 0.0141 0.9855 -0.1693
vn 0.0433 0.8536 -0.5191
vn 0.2587 0.8540 0.4514
vn -0.0404 0.7193 0.6935
vn 0.3026 0.9469 0.1090
vn 0.1273 0.4022 0.9067
vn -0.0172 0.3190 0.9476
vn 0.0458 0.6377 0.7690
vn 0.1906 0.5909 0.7839
vn -0.1683 0.2928 0.9413
vn -0.1078 0.6557 0.7473
vn 0.1294 0.8092 0.5731
vn 0.3156 0.5419 0.7790
vn -0.0046 0.8745 0.4850
vn -0.1018 0.9754 -0.1955
vn 0.0664 0.9710 -0.2298
vn -0.1237 0.9884 0.0880
vn -0.2414 0.9704 -0.0079
vn 0.2148 0.9574 -0.1930
vn 0.0104 0.9857 0.1681
vn -0.2884 0.9118 0.2924
vn -0.3430 0.9352 -0.0885
vn -0.1987 0.8776 0.4364
vn -0.2511 0.8340 0.4913
vn -0.4074 0.8083 0.4250
vn -0.0970 0.9539 0.2840
vn -0.0412 0.9073 0.4186
vn -0.5101 0.8019 0.3111
vn -0.1691 0.9746 0.1470
vn 0.1598 0.9685 0.1912
vn 0.0130 0.8497 0.5271
vn 0.1638 0.9863 0.0190
vn 0.2621 -0.7857 -0.5603
vn 0.0311 -0.8059 -0.5912
vn 0.0202 -0.8900 -0.4555
vn 0.3644 -0.8292 -0.4239
vn -0.0141 -0.9855 0.1693
vn 0.3165 -0.9469 -0.0574
vn -0.0433 -0.8536 0.5191
vn 0.0404 -0.7193 -0.6935
vn -0.2587 -0.8540 -0.4514
vn -0.3026 -0.9469 -0.1090
vn -0.1273 -0.4022 -0.9067
vn -0.1906 -0.5909 -0.7839
vn -0.0458 -0.6377 -0.7690
vn 0.0172 -0.3190 -0.9476
vn 0.1078 -0.6557 -0.7473
vn 0.1683 -0.2927 -0.9413
vn -0.3156 -0.5418 -0.7790
vn -0.1293 -0.8092 -0.5731
vn 0.0046 -0.8745 -0.4850
vn 0.1018 -0.9754 0.1956
vn 0.2414 -0.9704 0.0080
vn 0.1237 -0.9884 -0.0880
vn -0.0664 -0.9710 0.2298
vn -0.0104 -0.9857 -0.1681
vn -0.2149 -0.9574 0.1930
vn 0.3430 -0.9352 0.0885
vn 0.2884 -0.9118 -0.2924
vn 0.1987 -0.8776 -0.4364
vn 0.2511 -0.8340 -0.4912
vn 0.0412 -0.9073 -0.4185
vn 0.0970 -0.9539 -0.2840
vn 0.4074 -0.8083 -0.4250
vn 0.1691 -0.9746 -0.1470
vn 0.5101 -0.8019 -0.3111
vn -0.0129 -0.8497 -0.5272
vn -0.1598 -0.9685 -0.1912
vn -0.1638 -0.9863 -0.0190
vn 0.1260 -0.7885 0.6019
vn 0.2994 -0.6587 0.6902
vn 0.3983 -0.7072 0.5841
vn 0.0954 -0.8821 0.4613
vn 0.4758 -0.7520 0.4562
vn 0.1287 -0.9379 0.3222
vn 0.2099 -0.6004 0.7717
vn 0.5640 -0.5018 0.6558
vn 0.6911 -0.4801 0.5402
vn 0.2077 -0.7857 0.5827
vn 0.3936 -0.8059 0.4422
vn 0.3059 -0.8900 0.3381
vn 0.0390 -0.8292 0.5576
vn -0.1090 -0.9855 -0.1303
vn -0.1846 -0.9469 0.2634
vn -0.3342 -0.8536 -0.3995
vn 0.4589 -0.7193 0.5215
vn 0.5013 -0.8540 0.1390
vn 0.2918 -0.9469 -0.1353
vn -0.9841 0.1100 0.1391
vn -0.3573 0.3294 0.8740
vn -0.5380 0.2409 0.8078
vn -0.9539 -0.1029 -0.2821
vn 0.6515 0.2208 0.7258
vn 0.6447 0.2526 0.7215
vn 0.8549 -0.2144 -0.4724
vn 0.9350 -0.0492 -0.3512
vn -0.3653 -0.2851 -0.8861
vn -0.0037 -0.2645 -0.9644
vn -0.5811 0.1283 0.8036
vn -0.9490 -0.1760 -0.2617
vn 0.5544 0.2749 0.7856
vn 0.9538 0.0694 -0.2924
vn 0.0123 -0.2194 -0.9756
vn 0.1619 0.9504 -0.2656
vn 0.1965 0.9755 -0.0993
vn -0.1220 0.9500 -0.2873
vn -0.0256 0.9157 -0.4010
vn 0.1603 0.9858 0.0496
vn -0.2018 0.9672 -0.1542
vn -0.3238 0.8400 -0.4354
vn 0.0559 0.8666 -0.4958
vn -0.4664 0.8165 -0.3401
vn 0.0804 0.9646 -0.2511
vn 0.2497 0.9460 -0.2068
vn -0.0195 0.9997 0.0118
vn -0.1111 0.9867 -0.1186
vn 0.4433 0.8913 0.0953
vn 0.3181 0.8288 0.4604
vn 0.4586 0.5909 0.6637
vn -0.2423 0.9539 0.1773
vn -0.1853 0.9562 -0.2264
vn -0.0680 0.8870 0.4567
vn -0.5199 0.7630 -0.3841
vn -0.4530 0.7136 -0.5344
vn -0.3167 0.9139 -0.2539
vn -0.4494 0.8729 -0.1900
vn -0.3391 0.6938 -0.6353
vn -0.1806 0.9268 -0.3294
vn -0.2240 0.9746 -0.0038
vn -0.5559 0.8216 -0.1262
vn -0.0526 0.9986 -0.0041
vn -0.1619 -0.9504 0.2656
vn 0.0256 -0.9157 0.4010
vn 0.1220 -0.9500 0.2873
vn -0.1965 -0.9755 0.0992
vn 0.2018 -0.9672 0.1541
vn -0.1604 -0.9858 -0.0496
vn -0.0560 -0.8666 0.4958
vn 0.3238 -0.8400 0.4354
vn 0.4665 -0.8165 0.3401
vn -0.0804 -0.9646 0.2511
vn 0.1111 -0.9867 0.1187
vn 0.0195 -0.9997 -0.0118
vn -0.2497 -0.9460 0.2068
vn -0.3181 -0.8288 -0.4604
vn -0.4433 -0.8913 -0.0954
vn -0.4586 -0.5909 -0.6637
vn 0.1853 -0.9562 0.2264
vn 0.2423 -0.9539 -0.1773
vn 0.0680 -0.8870 -0.4567
vn 0.5199 -0.7630 0.3841
vn 0.4494 -0.8729 0.1900
vn 0.3167 -0.9139 0.2538
vn 0.4530 -0.7136 0.5344
vn 0.1806 -0.9268 0.3294
vn 0.3391 -0.6938 0.6353
vn 0.5559 -0.8216 0.1262
vn 0.2240 -0.9746 0.0038
vn 0.0526 -0.9986 0.0041
vn 0.1453 0.9340 -0.3265
vn 0.3155 0.9018 -0.2953
vn 0.0732 0.9955 -0.0594
vn -0.0307 0.9831 -0.1805
vn 0.5423 0.8401 0.0133
vn 0.4548 0.7939 0.4037
vn 0.5928 0.5179 0.6167
vn -0.1370 0.9824 0.1270
vn -0.1167 0.9531 -0.2791
vn 0.0691 0.9096 0.4097
vn -0.4805 0.7836 -0.3938
vn -0.4322 0.7184 -0.5451
vn -0.2534 0.9222 -0.2923
vn -0.3830 0.8984 -0.2148
vn -0.3301 0.6811 -0.6535
vn -0.1240 0.9168 -0.3797
vn -0.1334 0.9895 -0.0560
vn -0.4876 0.8620 -0.1387
vn 0.0388 0.9966 -0.0724
vn -0.1453 -0.9340 0.3265
vn 0.0307 -0.9831 0.1805
vn -0.0732 -0.9955 0.0594
vn -0.3155 -0.9018 0.2953
vn -0.4548 -0.7939 -0.4036
vn -0.5423 -0.8401 -0.0133
vn -0.5928 -0.5179 -0.6167
vn 0.1167 -0.9531 0.2792
vn 0.1370 -0.9824 -0.1270
vn -0.0691 -0.9096 -0.4097
vn 0.4804 -0.7836 0.3938
vn 0.3830 -0.8984 0.2148
vn 0.2534 -0.9222 0.2923
vn 0.4322 -0.7183 0.5451
vn 0.1240 -0.9168 0.3797
vn 0.3302 -0.6811 0.6535
vn 0.4876 -0.8620 0.1387
vn 0.1334 -0.9895 0.0560
vn -0.0388 -0.9966 0.0724
vn 0.8738 -0.0378 0.4848
vn 0.7589 0.2937 -0.5812
vn 0.9685 0.0813 -0.2353
vn 0.5324 -0.0631 0.8441
vn -0.0977 0.3007 -0.9487
vn -0.0274 0.1267 -0.9916
vn -0.9706 -0.0464 -0.2363
vn -0.9705 -0.0315 -0.2390
vn -0.3468 -0.3284 0.8786
vn -0.5727 -0.1107 0.8123
vn 0.9474 -0.0468 -0.3165
vn 0.6048 0.0600 0.7941
vn 0.0283 -0.0897 -0.9956
vn -0.9385 -0.0119 -0.3452
vn -0.5941 0.0843 0.7999
vn -0.2955 0.7918 0.5346
vn -0.2361 0.8843 0.4028
vn -0.0675 0.7210 0.6897
vn -0.2092 0.6685 0.7136
vn -0.1260 0.9416 0.3123
vn 0.0709 0.7689 0.6354
vn 0.0255 0.5220 0.8526
vn -0.3279 0.6067 0.7242
vn 0.1973 0.5053 0.8401
vn -0.2192 0.7921 0.5697
vn -0.3381 0.8291 0.4453
vn 0.0053 0.9005 0.4348
vn 0.0130 0.8197 0.5727
vn -0.3369 0.9389 0.0709
vn -0.0371 0.9785 -0.2030
vn -0.0444 0.8304 -0.5554
vn 0.2829 0.8724 0.3987
vn 0.0185 0.7355 0.6773
vn 0.2831 0.9579 0.0487
vn 0.2955 -0.7918 -0.5346
vn 0.2092 -0.6686 -0.7136
vn 0.0675 -0.7210 -0.6897
vn 0.2361 -0.8844 -0.4027
vn -0.0709 -0.7689 -0.6354
vn 0.1260 -0.9416 -0.3123
vn 0.3279 -0.6067 -0.7242
vn -0.0255 -0.5220 -0.8526
vn -0.1974 -0.5053 -0.8401
vn 0.2192 -0.7921 -0.5697
vn -0.0130 -0.8197 -0.5727
vn -0.0053 -0.9005 -0.4348
vn 0.3381 -0.8291 -0.4452
vn 0.0371 -0.9807 0.1922
vn 0.3372 -0.9383 -0.0760
vn 0.0439 -0.8404 0.5402
vn -0.0185 -0.7355 -0.6773
vn -0.2829 -0.8724 -0.3987
vn -0.2837 -0.9575 -0.0529
vn 0.9443 0.0383 -0.3267
vn -0.0421 -0.1121 -0.9928
vn -0.1567 -0.0108 -0.9876
vn 0.8879 -0.1924 -0.4180
vn -0.9744 -0.0893 -0.2063
vn -0.9585 0.1509 -0.2420
vn -0.4916 0.0714 0.8679
vn -0.5850 0.1758 0.7918
vn 0.6305 0.1419 0.7631
vn 0.5868 -0.0285 0.8093
vn -0.1808 -0.0582 -0.9818
vn 0.8513 -0.2467 -0.4631
vn -0.9674 0.2458 -0.0608
vn -0.2859 0.1710 0.9429
vn 0.7675 -0.0992 0.6334
vn -0.2765 -0.1545 -0.9485
vn 0.8224 -0.1273 -0.5545
vn -0.9960 0.0385 -0.0802
vn -0.3847 0.1966 0.9019
vn 0.7767 0.0950 0.6227
vn 0.6200 0.7587 0.2000
vn 0.5042 0.8555 0.1180
vn 0.7745 0.6325 -0.0031
vn 0.7850 0.6019 0.1464
vn 0.4271 0.9042 -0.0055
vn 0.7333 0.6630 -0.1506
vn 0.9139 0.4024 -0.0523
vn 0.7820 0.5598 0.2739
vn 0.9071 0.3591 -0.2197
vn 0.6582 0.7420 0.1271
vn 0.5345 0.8132 0.2301
vn 0.5490 0.8271 -0.1202
vn 0.6753 0.7299 -0.1059
vn 0.1804 0.9656 0.1871
vn -0.0629 0.9891 -0.1329
vn -0.4259 0.8960 -0.1258
vn 0.5219 0.7578 -0.3915
vn 0.7680 0.6340 -0.0909
vn 0.1894 0.8834 -0.4285
vn 0.1748 0.9773 0.1200
vn 0.1612 0.9427 0.2921
vn -0.1032 0.9924 0.0668
vn 0.0108 0.9989 -0.0453
vn -0.0549 0.8694 0.4910
vn -0.4321 0.8035 0.4096
vn -0.5723 0.5991 0.5600
vn -0.2988 0.9454 -0.1298
vn 0.1070 0.9846 -0.1380
vn -0.4962 0.8676 0.0305
vn 0.2230 0.8316 -0.5085
vn 0.3861 0.7932 -0.4709
vn 0.1157 0.9544 -0.2752
vn 0.0345 0.9163 -0.3990
vn 0.5060 0.7760 -0.3766
vn 0.2115 0.9654 -0.1523
vn -0.1198 0.9830 -0.1390
vn -0.0414 0.8662 -0.4979
vn -0.0929 0.9952 0.0316
vn -0.6200 -0.7587 -0.2000
vn -0.7850 -0.6019 -0.1464
vn -0.7745 -0.6325 0.0031
vn -0.5042 -0.8555 -0.1180
vn -0.7333 -0.6630 0.1506
vn -0.4271 -0.9042 0.0055
vn -0.7820 -0.5598 -0.2739
vn -0.9139 -0.4024 0.0523
vn -0.9071 -0.3591 0.2197
vn -0.6582 -0.7420 -0.1271
vn -0.6753 -0.7299 0.1059
vn -0.5490 -0.8271 0.1202
vn -0.5345 -0.8132 -0.2301
vn 0.0629 -0.9891 0.1329
vn -0.1804 -0.9656 -0.1872
vn 0.4259 -0.8960 0.1258
vn -0.7680 -0.6340 0.0909
vn -0.5219 -0.7578 0.3915
vn -0.1894 -0.8834 0.4285
vn -0.1748 -0.9773 -0.1200
vn -0.0108 -0.9989 0.0453
vn 0.1032 -0.9924 -0.0668
vn -0.1612 -0.9427 -0.2921
vn 0.4321 -0.8035 -0.4096
vn 0.0549 -0.8694 -0.4910
vn 0.5722 -0.5992 -0.5599
vn -0.1070 -0.9846 0.1380
vn 0.2988 -0.9454 0.1298
vn 0.4962 -0.8677 -0.0305
vn -0.2231 -0.8316 0.5086
vn -0.0345 -0.9163 0.3990
vn -0.1157 -0.9544 0.2752
vn -0.3861 -0.7932 0.4709
vn -0.2115 -0.9654 0.1523
vn -0.5060 -0.7760 0.3766
vn 0.0414 -0.8663 0.4979
vn 0.1198 -0.9830 0.1390
vn 0.0929 -0.9952 -0.0316
vn -0.4422 0.8279 0.3450
vn -0.6383 0.7139 0.2879
vn -0.6316 0.7620 0.1429
vn -0.3150 0.9113 0.2652
vn -0.5948 0.8039 -0.0030
vn -0.2379 0.9608 0.1420
vn -0.6354 0.6551 0.4086
vn -0.8169 0.5713 0.0791
vn -0.8297 0.5505 -0.0923
vn -0.4876 0.8288 0.2743
vn -0.5218 0.8519 0.0441
vn -0.3799 0.9246 0.0302
vn -0.3458 0.8607 0.3736
vn 0.2498 0.9681 -0.0179
vn 0.0280 0.9478 0.3177
vn 0.5868 0.8079 -0.0547
vn -0.6306 0.7741 0.0557
vn -0.3848 0.8889 -0.2487
vn -0.0370 0.9532 -0.3001
vn 0.4422 -0.8279 -0.3450
vn 0.3150 -0.9113 -0.2652
vn 0.6316 -0.7620 -0.1429
vn 0.6383 -0.7139 -0.2879
vn 0.2379 -0.9608 -0.1420
vn 0.5948 -0.8039 0.0030
vn 0.8169 -0.5713 -0.0791
vn 0.6354 -0.6552 -0.4087
vn 0.8297 -0.5505 0.0923
vn 0.4876 -0.8288 -0.2743
vn 0.3458 -0.8607 -0.3736
vn 0.3799 -0.9246 -0.0302
vn 0.5218 -0.8520 -0.0441
vn -0.0280 -0.9478 -0.3177
vn -0.2498 -0.9681 0.0179
vn -0.5868 -0.8079 0.0547
vn 0.3848 -0.8889 0.2487
vn 0.6306 -0.7741 -0.0557
vn 0.0370 -0.9532 0.3001
s 1
f 1/1/1 2/2/2 3/3/3
f 3/3/3 4/4/4 1/1/1
f 2/2/2 5/5/5 6/6/6
f 6/6/6 3/3/3 2/2/2
f 4/4/4 3/3/3 7/7/7
f 7/7/7 8/8/8 4/4/4
f 3/3/3 6/6/6 9/9/9
f 9/9/9 7/7/7 3/3/3
s 2
f 10/10/10 11/11/11 12/12/12
f 12/12/12 13/13/13 10/10/10
f 13/13/13 12/12/12 14/14/14
f 14/14/14 15/15/15 13/13/13
f 11/11/11 16/16/16 17/17/17
f 17/17/17 12/12/12 11/11/11
f 12/12/12 17/17/17 18/18/18
f 18/18/18 14/14/14 12/12/12
s 3
f 19/19/19 20/20/20 21/21/21
f 21/21/21 22/22/22 19/19/19
f 20/20/20 23/23/23 24/24/24
f 24/24/24 21/21/21 20/20/20
f 23/23/23 25/25/25 24/24/24
f 22/22/22 21/21/21 26/26/26
f 26/26/26 27/27/27 22/22/22
f 21/21/21 24/24/24 28/28/28
f 28/28/28 26/26/26 21/21/21
f 24/24/24 25/25/25 28/28/28
s 4
f 29/29/29 30/30/30 31/31/31
f 31/31/31 32/32/32 29/29/29
f 30/30/30 33/33/33 34/34/34
f 34/34/34 31/31/31 30/30/30
f 32/32/32 31/31/31 35/35/35
f 35/35/35 36/36/36 32/32/32
f 31/31/31 34/34/34 37/37/37
f 37/37/37 35/35/35 31/31/31
s 5
f 38/38/38 39/39/39 40/40/40
f 40/40/40 41/41/41 38/38/38
f 41/41/41 40/40/40 42/42/42
f 42/42/42 43/43/43 41/41/41
f 43/43/43 42/42/42 44/44/44
f 39/39/39 45/45/45 46/46/46
f 46/46/46 40/40/40 39/39/39
f 40/40/40 46/46/46 47/47/47
f 47/47/47 42/42/42 40/40/40
f 42/42/42 47/47/47 44/44/44
s 6
f 48/48/48 49/49/49 50/50/50
f 50/50/50 51/51/51 48/48/48
f 51/51/51 50/50/50 52/52/52
f 52/52/52 53/53/53 51/51/51
f 49/49/49 54/54/54 55/55/55
f 55/55/55 50/50/50 49/49/49
f 50/50/50 55/55/55 56/56/56
f 56/56/56 52/52/52 50/50/50
s 7
f 57/57/57 58/58/58 59/59/59
f 59/59/59 60/60/60 57/57/57
f 58/58/58 61/61/61 62/62/62
f 62/62/62 59/59/59 58/58/58
f 60/60/60 59/59/59 63/63/63
f 63/63/63 64/64/64 60/60/60
f 59/59/59 62/62/62 65/65/65
f 65/65/65 63/63/63 59/59/59
s 8
f 66/66/66 67/67/67 68/68/68
f 68/68/68 69/69/69 66/66/66
f 67/67/67 70/70/70 71/71/71
f 71/71/71 68/68/68 67/67/67
f 70/70/70 72/72/72 71/71/71
f 69/69/69 68/68/68 73/73/73
f 73/73/73 74/74/74 69/69/69
f 68/68/68 71/71/71 75/75/75
f 75/75/75 73/73/73 68/68/68
f 71/71/71 72/72/72 75/75/75
s 9
f 76/76/76 77/77/77 78/78/78
f 78/78/78 79/79/79 76/76/76
f 77/77/77 80/80/80 81/81/81
f 81/81/81 78/78/78 77/77/77
f 80/80/80 82/82/82 83/83/83
f 83/83/83 81/81/81 80/80/80
f 82/82/82 84/84/84 85/85/85
f 85/85/85 83/83/83 82/82/82
f 84/86/84 76/76/76 79/79/79
f 79/79/79 85/87/85 84/86/84
f 79/79/79 78/78/78 86/88/86
f 86/88/86 87/89/87 79/79/79
f 78/78/78 81/81/81 88/90/88
f 88/90/88 86/88/86 78/78/78
f 81/81/81 83/83/83 89/91/89
f 89/91/89 88/90/88 81/81/81
f 83/83/83 85/85/85 90/92/90
f 90/92/90 89/91/89 83/83/83
f 85/87/85 79/79/79 87/89/87
f 87/89/87 90/93/90 85/87/85
f 87/89/87 86/88/86 91/94/91
f 91/94/91 92/95/92 87/89/87
f 86/88/86 88/90/88 93/96/93
f 93/96/93 91/94/91 86/88/86
f 88/90/88 89/91/89 94/97/94
f 94/97/94 93/96/93 88/90/88
f 89/91/89 90/92/90 95/98/95
f 95/98/95 94/97/94 89/91/89
f 90/93/90 87/89/87 92/95/92
f 92/95/92 95/99/95 90/93/90
s 10
f 96/100/96 97/101/97 98/102/98
f 98/102/98 99/103/99 96/100/96
f 97/101/97 100/104/100 101/105/101
f 101/105/101 98/102/98 97/101/97
f 100/104/100 102/106/102 101/105/101
f 99/103/99 98/102/98 103/107/103
f 103/107/103 104/108/104 99/103/99
f 98/102/98 101/105/101 105/109/105
f 105/109/105 103/107/103 98/102/98
f 101/105/101 102/106/102 105/109/105
s 11
f 106/110/106 107/111/107 108/112/108
f 108/112/108 109/113/109 106/110/106
f 107/111/107 110/114/110 111/115/111
f 111/115/111 108/112/108 107/111/107
f 109/113/109 108/112/108 112/116/112
f 112/116/112 113/117/113 109/113/109
f 108/112/108 111/115/111 114/118/114
f 114/118/114 112/116/112 108/112/108
s 12
f 115/119/115 116/120/116 117/121/117
f 117/121/117 118/122/118 115/119/115
f 116/120/116 119/123/119 120/124/120
f 120/124/120 117/121/117 116/120/116
f 118/122/118 117/121/117 121/125/121
f 121/125/121 122/126/122 118/122/118
f 117/121/117 120/124/120 123/127/123
f 123/127/123 121/125/121 117/121/117
s 13
f 124/128/124 125/129/125 126/130/126
f 126/130/126 127/131/127 124/128/124
f 125/129/125 128/132/128 129/133/129
f 129/133/129 126/130/126 125/129/125
f 127/131/127 126/130/126 130/134/130
f 130/134/130 131/135/131 127/131/127
f 126/130/126 129/133/129 132/136/132
f 132/136/132 130/134/130 126/130/126
s 14
f 133/137/133 134/138/134 135/139/135
f 135/139/135 136/140/136 133/137/133
f 136/140/136 135/139/135 137/141/137
f 137/141/137 138/142/138 136/140/136
f 138/142/138 137/141/137 139/143/139
f 134/138/134 140/144/140 141/145/141
f 141/145/141 135/139/135 134/138/134
f 135/139/135 141/145/141 142/146/142
f 142/146/142 137/141/137 135/139/135
f 137/141/137 142/146/142 139/143/139
s 15
f 143/147/143 144/148/144 145/149/145
f 145/149/145 146/150/146 143/147/143
f 146/150/146 145/149/145 147/151/147
f 147/151/147 148/152/148 146/150/146
f 144/148/144 149/153/149 150/154/150
f 150/154/150 145/149/145 144/148/144
f 145/149/145 150/154/150 151/155/151
f 151/155/151 147/151/147 145/149/145
s 16
f 152/156/152 153/157/153 154/158/154
f 154/158/154 155/159/155 152/156/152
f 155/159/155 154/158/154 156/160/156
f 156/160/156 157/161/157 155/159/155
f 153/157/153 158/162/158 159/163/159
f 159/163/159 154/158/154 153/157/153
f 154/158/154 159/163/159 160/164/160
f 160/164/160 156/160/156 154/158/154
s 17
f 161/165/161 162/166/162 163/167/163
f 163/167/163 164/168/164 161/165/161
f 164/168/164 163/167/163 165/169/165
f 165/169/165 166/170/166 164/168/164
f 162/166/162 167/171/167 168/172/168
f 168/172/168 163/167/163 162/166/162
f 163/167/163 168/172/168 169/173/169
f 169/173/169 165/169/165 163/167/163
s 18
f 170/174/170 171/175/171 172/176/172
f 172/176/172 173/177/173 170/174/170
f 173/177/173 172/176/172 174/178/174
f 174/178/174 175/179/175 173/177/173
f 171/175/171 176/180/176 177/181/177
f 177/181/177 172/176/172 171/175/171
f 172/176/172 177/181/177 178/182/178
f 178/182/178 174/178/174 172/176/172
s 19
f 179/183/179 180/184/180 181/185/181
f 181/185/181 182/186/182 179/183/179
f 182/186/182 181/185/181 183/187/183
f 183/187/183 184/188/184 182/186/182
f 184/188/184 183/187/183 185/189/185
f 180/184/180 186/190/186 187/191/187
f 187/191/187 181/185/181 180/184/180
f 181/185/181 187/191/187 188/192/188
f 188/192/188 183/187/183 181/185/181
f 183/187/183 188/192/188 185/189/185
s 20
f 189/193/189 190/194/190 191/195/191
f 191/195/191 192/196/192 189/193/189
f 190/194/190 193/197/193 194/198/194
f 194/198/194 191/195/191 190/194/190
f 193/197/193 195/199/195 196/200/196
f 196/200/196 194/198/194 193/197/193
f 195/199/195 197/201/197 198/202/198
f 198/202/198 196/200/196 195/199/195
f 197/203/197 189/193/189 192/196/192
f 192/196/192 198/204/198 197/203/197
f 192/196/192 191/195/191 199/205/199
f 199/205/199 200/206/200 192/196/192
f 191/195/191 194/198/194 201/207/201
f 201/207/201 199/205/199 191/195/191
f 194/198/194 196/200/196 202/208/202
f 202/208/202 201/207/201 194/198/194
f 196/200/196 198/202/198 203/209/203
f 203/209/203 202/208/202 196/200/196
f 198/204/198 192/196/192 200/206/200
f 200/206/200 203/210/203 198/204/198
s 21
f 204/211/204 205/212/205 206/213/206
f 206/213/206 207/214/207 204/211/204
f 205/212/205 208/215/208 209/216/209
f 209/216/209 206/213/206 205/212/205
f 207/214/207 206/213/206 210/217/210
f 210/217/210 211/218/211 207/214/207
f 206/213/206 209/216/209 212/219/212
f 212/219/212 210/217/210 206/213/206
s 22
f 213/220/213 214/221/214 215/222/215
f 215/222/215 216/223/216 213/220/213
f 214/221/214 217/224/217 218/225/218
f 218/225/218 215/222/215 214/221/214
f 217/224/217 219/226/219 218/225/218
f 216/223/216 215/222/215 220/227/220
f 220/227/220 221/228/221 216/223/216
f 215/222/215 218/225/218 222/229/222
f 222/229/222 220/227/220 215/222/215
f 218/225/218 219/226/219 222/229/222
s 23
f 223/230/223 224/231/224 225/232/225
f 225/232/225 226/233/226 223/230/223
f 224/231/224 227/234/227 228/235/228
f 228/235/228 225/232/225 224/231/224
f 226/233/226 225/232/225 229/236/229
f 229/236/229 230/237/230 226/233/226
f 225/232/225 228/235/228 231/238/231
f 231/238/231 229/236/229 225/232/225
s 24
f 232/239/232 233/240/233 234/241/234
f 234/241/234 235/242/235 232/239/232
f 235/242/235 234/241/234 236/243/236
f 236/243/236 237/244/237 235/242/235
f 233/240/233 238/245/238 239/246/239
f 239/246/239 234/241/234 233/240/233
f 234/241/234 239/246/239 240/247/240
f 240/247/240 236/243/236 234/241/234
s 25
f 241/248/241 242/249/242 243/250/243
f 243/250/243 244/251/244 241/248/241
f 244/251/244 243/250/243 245/252/245
f 245/252/245 246/253/246 244/251/244
f 246/253/246 245/252/245 247/254/247
f 242/249/242 248/255/248 249/256/249
f 249/256/249 243/250/243 242/249/242
f 243/250/243 249/256/249 250/257/250
f 250/257/250 245/252/245 243/250/243
f 245/252/245 250/257/250 247/254/247
s 26
f 251/258/251 252/259/252 253/260/253
f 253/260/253 254/261/254 251/258/251
f 254/261/254 253/260/253 255/262/255
f 255/262/255 256/263/256 254/261/254
f 252/259/252 257/264/257 258/265/258
f 258/265/258 253/260/253 252/259/252
f 253/260/253 258/265/258 259/266/259
f 259/266/259 255/262/255 253/260/253
s 27
f 260/267/260 261/268/261 262/269/262
f 262/269/262 263/270/263 260/267/260
f 261/268/261 264/271/264 265/272/265
f 265/272/265 262/269/262 261/268/261
f 264/271/264 266/273/266 265/272/265
f 263/270/263 262/269/262 267/274/267
f 267/274/267 268/275/268 263/270/263
f 262/269/262 265/272/265 269/276/269
f 269/276/269 267/274/267 262/269/262
f 265/272/265 266/273/266 269/276/269
s 28
f 270/277/270 271/278/271 272/279/272
f 272/279/272 273/280/273 270/277/270
f 271/278/271 274/281/274 275/282/275
f 275/282/275 272/279/272 271/278/271
f 273/280/273 272/279/272 276/283/276
f 276/283/276 277/284/277 273/280/273
f 272/279/272 275/282/275 278/285/278
f 278/285/278 276/283/276 272/279/272
s 29
f 279/286/279 280/287/280 281/288/281
f 281/288/281 282/289/282 279/286/279
f 282/289/282 281/288/281 283/290/283
f 283/290/283 284/291/284 282/289/282
f 284/291/284 283/290/283 285/292/285
f 280/287/280 286/293/286 287/294/287
f 287/294/287 281/288/281 280/287/280
f 281/288/281 287/294/287 288/295/288
f 288/295/288 283/290/283 281/288/281
f 283/290/283 288/295/288 285/292/285
s 30
f 289/296/289 290/297/290 291/298/291
f 291/298/291 292/299/292 289/296/289
f 292/299/292 291/298/291 293/300/293
f 293/300/293 294/301/294 292/299/292
f 290/297/290 295/302/295 296/303/296
f 296/303/296 291/298/291 290/297/290
f 291/298/291 296/303/296 297/304/297
f 297/304/297 293/300/293 291/298/291
s 31
f 298/305/298 299/306/299 300/307/300
f 300/307/300 301/308/301 298/305/298
f 299/306/299 302/309/302 303/310/303
f 303/310/303 300/307/300 299/306/299
f 302/309/302 304/311/304 305/312/305
f 305/312/305 303/310/303 302/309/302
f 304/311/304 306/313/306 307/314/307
f 307/314/307 305/312/305 304/311/304
f 306/315/306 298/305/298 301/308/301
f 301/308/301 307/316/307 306/315/306
f 301/308/301 300/307/300 308/317/308
f 308/317/308 309/318/309 301/308/301
f 300/307/300 303/310/303 310/319/310
f 310/319/310 308/317/308 300/307/300
f 303/310/303 305/312/305 311/320/311
f 311/320/311 310/319/310 303/310/303
f 305/312/305 307/314/307 312/321/312
f 312/321/312 311/320/311 305/312/305
f 307/316/307 301/308/301 309/318/309
f 309/318/309 312/322/312 307/316/307
s 32
f 313/323/313 314/324/314 315/325/315
f 315/325/315 316/326/316 313/323/313
f 314/324/314 317/327/317 318/328/318
f 318/328/318 315/325/315 314/324/314
f 316/326/316 315/325/315 319/329/319
f 319/329/319 320/330/320 316/326/316
f 315/325/315 318/328/318 321/331/321
f 321/331/321 319/329/319 315/325/315
s 33
f 322/332/322 323/333/323 324/334/324
f 324/334/324 325/335/325 322/332/322
f 323/333/323 326/336/326 327/337/327
f 327/337/327 324/334/324 323/333/323
f 326/336/326 328/338/328 327/337/327
f 325/335/325 324/334/324 329/339/329
f 329/339/329 330/340/330 325/335/325
f 324/334/324 327/337/327 331/341/331
f 331/341/331 329/339/329 324/334/324
f 327/337/327 328/338/328 331/341/331
s 34
f 332/342/332 333/343/333 334/344/334
f 334/344/334 335/345/335 332/342/332
f 335/345/335 334/344/334 336/346/336
f 336/346/336 337/347/337 335/345/335
f 333/343/333 338/348/338 339/349/339
f 339/349/339 334/344/334 333/343/333
f 334/344/334 339/349/339 340/350/340
f 340/350/340 336/346/336 334/344/334
s 35
f 341/351/341 342/352/342 343/353/343
f 343/353/343 344/354/344 341/351/341
f 344/354/344 343/353/343 345/355/345
f 345/355/345 346/356/346 344/354/344
f 346/356/346 345/355/345 347/357/347
f 342/352/342 348/358/348 349/359/349
f 349/359/349 343/353/343 342/352/342
f 343/353/343 349/359/349 350/360/350
f 350/360/350 345/355/345 343/353/343
f 345/355/345 350/360/350 347/357/347
s 36
f 351/361/351 352/362/352 353/363/353
f 353/363/353 354/364/354 351/361/351
f 352/362/352 355/365/355 356/366/356
f 356/366/356 353/363/353 352/362/352
f 355/365/355 357/367/357 358/368/358
f 358/368/358 356/366/356 355/365/355
f 357/367/357 359/369/359 360/370/360
f 360/370/360 358/368/358 357/367/357
f 359/371/359 351/361/351 354/364/354
f 354/364/354 360/372/360 359/371/359
f 354/364/354 353/363/353 361/373/361
f 361/373/361 362/374/362 354/364/354
f 353/363/353 356/366/356 363/375/363
f 363/375/363 361/373/361 353/363/353
f 356/366/356 358/368/358 364/376/364
f 364/376/364 363/375/363 356/366/356
f 358/368/358 360/370/360 365/377/365
f 365/377/365 364/376/364 358/368/358
f 360/372/360 354/364/354 362/374/362
f 362/374/362 365/378/365 360/372/360
f 362/374/362 361/373/361 366/379/366
f 366/379/366 367/380/367 362/374/362
f 361/373/361 363/375/363 368/381/368
f 368/381/368 366/379/366 361/373/361
f 363/375/363 364/376/364 369/382/369
f 369/382/369 368/381/368 363/375/363
f 364/376/364 365/377/365 370/383/370
f 370/383/370 369/382/369 364/376/364
f 365/378/365 362/374/362 367/380/367
f 367/380/367 370/384/370 365/378/365
s 37
f 371/385/371 372/386/372 373/387/373
f 373/387/373 374/388/374 371/385/371
f 372/386/372 375/389/375 376/390/376
f 376/390/376 373/387/373 372/386/372
f 374/388/374 373/387/373 377/391/377
f 377/391/377 378/392/378 374/388/374
f 373/387/373 376/390/376 379/393/379
f 379/393/379 377/391/377 373/387/373
s 38
f 380/394/380 381/395/381 382/396/382
f 382/396/382 383/397/383 380/394/380
f 381/395/381 384/398/384 385/399/385
f 385/399/385 382/396/382 381/395/381
f 384/398/384 386/400/386 385/399/385
f 383/397/383 382/396/382 387/401/387
f 387/401/387 388/402/388 383/397/383
f 382/396/382 385/399/385 389/403/389
f 389/403/389 387/401/387 382/396/382
f 385/399/385 386/400/386 389/403/389
s 39
f 390/404/390 391/405/391 392/406/392
f 392/406/392 393/407/393 390/404/390
f 391/405/391 394/408/394 395/409/395
f 395/409/395 392/406/392 391/405/391
f 394/408/394 396/410/396 395/409/395
f 393/407/393 392/406/392 397/411/397
f 397/411/397 398/412/398 393/407/393
f 392/406/392 395/409/395 399/413/399
f 399/413/399 397/411/397 392/406/392
f 395/409/395 396/410/396 399/413/399
s 40
f 400/414/400 401/415/401 402/416/402
f 402/416/402 403/417/403 400/414/400
f 401/415/401 404/418/404 405/419/405
f 405/419/405 402/416/402 401/415/401
f 403/417/403 402/416/402 406/420/406
f 406/420/406 407/421/407 403/417/403
f 402/416/402 405/419/405 408/422/408
f 408/422/408 406/420/406 402/416/402
s 41
f 409/423/409 410/424/410 411/425/411
f 411/425/411 412/426/412 409/423/409
f 412/426/412 411/425/411 413/427/413
f 413/427/413 414/428/414 412/426/412
f 410/424/410 415/429/415 416/430/416
f 416/430/416 411/425/411 410/424/410
f 411/425/411 416/430/416 417/431/417
f 417/431/417 413/427/413 411/425/411
s 42
f 418/432/418 419/433/419 420/434/420
f 420/434/420 421/435/421 418/432/418
f 421/435/421 420/434/420 422/436/422
f 422/436/422 423/437/423 421/435/421
f 423/437/423 422/436/422 424/438/424
f 419/433/419 425/439/425 426/440/426
f 426/440/426 420/434/420 419/433/419
f 420/434/420 426/440/426 427/441/427
f 427/441/427 422/436/422 420/434/420
f 422/436/422 427/441/427 424/438/424
s 43
f 428/442/428 429/443/429 430/444/430
f 430/444/430 431/445/431 428/442/428
f 431/445/431 430/444/430 432/446/432
f 432/446/432 433/447/433 431/445/431
f 433/447/433 432/446/432 434/448/434
f 429/443/429 435/449/435 436/450/436
f 436/450/436 430/444/430 429/443/429
f 430/444/430 436/450/436 437/451/437
f 437/451/437 432/446/432 430/444/430
f 432/446/432 437/451/437 434/448/434
s 44
f 438/452/438 439/453/439 440/454/440
f 440/454/440 441/455/441 438/452/438
f 441/455/441 440/454/440 442/456/442
f 442/456/442 443/457/443 441/455/441
f 439/453/439 444/458/444 445/459/445
f 445/459/445 440/454/440 439/453/439
f 440/454/440 445/459/445 446/460/446
f 446/460/446 442/456/442 440/454/440
s 45
f 447/461/447 448/462/448 449/463/449
f 449/463/449 450/464/450 447/461/447
f 450/464/450 449/463/449 451/465/451
f 451/465/451 452/466/452 450/464/450
f 448/462/448 453/467/453 454/468/454
f 454/468/454 449/463/449 448/462/448
f 449/463/449 454/468/454 455/469/455
f 455/469/455 451/465/451 449/463/449
s 46
f 456/470/456 457/471/457 458/472/458
f 458/472/458 459/473/459 456/470/456
f 459/473/459 458/472/458 460/474/460
f 460/474/460 461/475/461 459/473/459
f 461/475/461 460/474/460 462/476/462
f 457/471/457 463/477/463 464/478/464
f 464/478/464 458/472/458 457/471/457
f 458/472/458 464/478/464 465/479/465
f 465/479/465 460/474/460 458/472/458
f 460/474/460 465/479/465 462/476/462
s 47
f 466/480/466 467/481/467 468/482/468
f 468/482/468 469/483/469 466/480/466
f 467/481/467 470/484/470 471/485/471
f 471/485/471 468/482/468 467/481/467
f 469/483/469 468/482/468 472/486/472
f 472/486/472 473/487/473 469/483/469
f 468/482/468 471/485/471 474/488/474
f 474/488/474 472/486/472 468/482/468
s 48
f 475/489/475 476/490/476 477/491/477
f 477/491/477 478/492/478 475/489/475
f 476/490/476 479/493/479 480/494/480
f 480/494/480 477/491/477 476/490/476
f 479/493/479 481/495/481 480/494/480
f 478/492/478 477/491/477 482/496/482
f 482/496/482 483/497/483 478/492/478
f 477/491/477 480/494/480 484/498/484
f 484/498/484 482/496/482 477/491/477
f 480/494/480 481/495/481 484/498/484
