# Blender v3.3.0 OBJ File: ''
# www.blender.org
o RiceStage00.005
v 0.040169 0.091875 0.003199
v 0.030651 0.095084 -0.009293
v 0.053284 0.116845 -0.016410
v 0.063624 0.112805 -0.002396
v 0.117951 0.130826 -0.009992
v 0.091892 0.128292 -0.011118
v 0.079923 0.129991 -0.025533
v 0.022739 0.064873 0.004875
v 0.014370 0.067625 -0.004628
v 0.009314 0.025886 0.004133
v 0.002115 0.028394 -0.001663
v 0.003401 -0.003118 0.003562
v -0.003347 -0.000671 -0.000537
v 0.006890 0.027074 0.014577
v -0.000371 -0.001550 0.009574
v 0.021717 0.065603 0.019697
v 0.040241 0.092211 0.021652
v 0.064194 0.113055 0.018076
v 0.091723 0.124974 0.010197
v -0.000798 -0.003505 0.006442
v 0.000329 0.021236 0.013784
v -0.004086 0.022471 0.011976
v -0.005175 -0.002270 0.004535
v 0.002242 -0.002120 0.002963
v 0.003297 0.022684 0.010281
v 0.004616 0.137331 0.063968
v 0.011182 0.161165 0.081573
v 0.006464 0.161924 0.082736
v -0.000134 0.138158 0.064895
v 0.005420 0.140524 0.060149
v 0.011790 0.164472 0.077800
v 0.000722 0.112241 0.046293
v -0.004075 0.113214 0.046605
v 0.002044 0.115074 0.042425
v 0.000054 0.083984 0.031524
v -0.004698 0.085117 0.030990
v 0.002054 0.086278 0.027713
v 0.000597 0.052966 0.021312
v -0.003985 0.054173 0.020013
v 0.003210 0.054721 0.017694
v 0.001111 -0.002095 0.006381
v 0.000382 0.017930 0.005478
v -0.003603 0.017870 0.001569
v -0.003218 -0.002322 0.002869
v -0.025950 0.112905 0.033844
v -0.041599 0.134030 0.038247
v -0.041463 0.135584 0.032887
v -0.025670 0.114142 0.028382
v -0.014783 0.089328 0.026473
v -0.015280 0.090411 0.021008
v -0.004804 0.066540 0.016702
v -0.006670 0.067257 0.011480
v -0.000616 0.042654 0.008458
v -0.003745 0.042948 0.003839
v -0.001812 -0.002079 0.003789
v -0.001076 0.017402 0.003429
v 0.000768 0.017054 -0.000259
v -0.000325 -0.002574 -0.000056
v -0.025584 0.111233 -0.006930
v -0.031905 0.131825 -0.016540
v -0.028094 0.133042 -0.017635
v -0.021673 0.112136 -0.007953
v -0.018227 0.088001 -0.001186
v -0.014493 0.088740 -0.002758
v -0.009449 0.065381 0.003198
v -0.006197 0.065753 0.000713
v -0.003056 0.041681 0.003844
v -0.000516 0.041653 0.000601
v 0.039941 0.092094 0.003298
v 0.063466 0.113084 -0.002308
v 0.053149 0.117100 -0.016246
v 0.030465 0.095274 -0.009094
v 0.117917 0.131151 -0.009936
v 0.079834 0.130285 -0.025409
v 0.091822 0.128609 -0.011048
v 0.014159 0.067741 -0.004399
v 0.022462 0.065020 0.004983
v 0.001918 0.028452 -0.001403
v 0.009013 0.025979 0.004238
v -0.003526 -0.000634 -0.000260
v 0.003093 -0.003041 0.003659
v 0.006585 0.027175 0.014491
v -0.000667 -0.001470 0.009446
v 0.021425 0.065757 0.019665
v 0.039991 0.092430 0.021645
v 0.064009 0.113330 0.018086
v 0.091616 0.125286 0.010229
v -0.000871 -0.003410 0.006133
v -0.005026 -0.002191 0.004249
v -0.003949 0.022547 0.011683
v 0.000246 0.021322 0.013474
v 0.001979 -0.002052 0.002772
v 0.003030 0.022739 0.010093
v 0.004403 0.137508 0.063785
v -0.000141 0.138356 0.064629
v 0.006445 0.162125 0.082473
v 0.010954 0.161346 0.081413
v 0.005097 0.140597 0.060142
v 0.011467 0.164549 0.077813
v 0.000532 0.112393 0.046067
v -0.004051 0.113390 0.046325
v 0.001724 0.115134 0.042365
v -0.000098 0.084096 0.031251
v -0.004632 0.085251 0.030694
v 0.001749 0.086325 0.027591
v 0.000486 0.053049 0.021011
v -0.003877 0.054263 0.019712
v 0.002927 0.054764 0.017526
v 0.001273 -0.002086 0.006202
v -0.003056 -0.002312 0.002690
v -0.003429 0.017886 0.001402
v 0.000557 0.017946 0.005312
v -0.025728 0.112974 0.033867
v -0.025448 0.114211 0.028404
v -0.041250 0.135665 0.032922
v -0.041387 0.134110 0.038283
v -0.014554 0.089387 0.026459
v -0.015051 0.090470 0.020993
v -0.004582 0.066594 0.016632
v -0.006449 0.067310 0.011405
v -0.000414 0.042688 0.008330
v -0.003545 0.042981 0.003707
v -0.001591 -0.002088 0.003888
v -0.000105 -0.002583 0.000043
v 0.000982 0.017054 -0.000146
v -0.000863 0.017403 0.003545
v -0.025539 0.111324 -0.006710
v -0.021628 0.112227 -0.007733
v -0.028065 0.133150 -0.017421
v -0.031876 0.131934 -0.016326
v -0.018144 0.088074 -0.000970
v -0.014408 0.088814 -0.002543
v -0.009313 0.065442 0.003389
v -0.006057 0.065812 0.000902
v -0.002870 0.041709 0.003997
v -0.000328 0.041679 0.000751
vt 0.401700 0.539300
vt 0.316300 0.538500
vt 0.306400 0.682700
vt 0.402000 0.681000
vt 0.449000 0.998000
vt 0.400100 0.856100
vt 0.290700 0.846400
vt 0.392200 0.380200
vt 0.325600 0.379000
vt 0.380700 0.170800
vt 0.336800 0.171700
vt 0.378800 0.020100
vt 0.345300 0.024400
vt 0.432700 0.172600
vt 0.403900 0.024600
vt 0.471100 0.380400
vt 0.502700 0.539300
vt 0.515200 0.681200
vt 0.508700 0.840600
vt 0.238300 0.030000
vt 0.238300 0.159300
vt 0.259400 0.159300
vt 0.259400 0.030000
vt 0.218100 0.030000
vt 0.218100 0.159300
vt 0.238300 0.796700
vt 0.238300 0.956100
vt 0.259400 0.956100
vt 0.259400 0.796700
vt 0.218100 0.796700
vt 0.218100 0.956100
vt 0.238300 0.637400
vt 0.259400 0.637400
vt 0.218100 0.637400
vt 0.238300 0.478000
vt 0.259400 0.478000
vt 0.218100 0.478000
vt 0.238300 0.318700
vt 0.259400 0.318700
vt 0.218100 0.318700
vt 0.132600 0.032800
vt 0.132600 0.166700
vt 0.165200 0.166700
vt 0.165200 0.032800
vt 0.132600 0.833300
vt 0.132600 1.000000
vt 0.165200 1.000000
vt 0.165200 0.833300
vt 0.132600 0.666700
vt 0.165200 0.666700
vt 0.132600 0.500000
vt 0.165200 0.500000
vt 0.132600 0.333300
vt 0.165200 0.333300
vt 0.132600 0.032800
vt 0.132600 0.166700
vt 0.165200 0.166700
vt 0.165200 0.032800
vt 0.132600 0.833300
vt 0.132600 1.000000
vt 0.165200 1.000000
vt 0.165200 0.833300
vt 0.132600 0.666700
vt 0.165200 0.666700
vt 0.132600 0.500000
vt 0.165200 0.500000
vt 0.132600 0.333300
vt 0.165200 0.333300
vt 0.401700 0.539300
vt 0.402000 0.681000
vt 0.306400 0.682700
vt 0.316300 0.538500
vt 0.449000 0.998000
vt 0.290700 0.846400
vt 0.400100 0.856100
vt 0.325600 0.379000
vt 0.392200 0.380200
vt 0.336800 0.171700
vt 0.380700 0.170800
vt 0.345300 0.024400
vt 0.378800 0.020100
vt 0.432700 0.172600
vt 0.403900 0.024600
vt 0.471100 0.380400
vt 0.502700 0.539300
vt 0.515200 0.681200
vt 0.508700 0.840600
vt 0.238300 0.030000
vt 0.259400 0.030000
vt 0.259400 0.159300
vt 0.238300 0.159300
vt 0.218100 0.030000
vt 0.218100 0.159300
vt 0.238300 0.796700
vt 0.259400 0.796700
vt 0.259400 0.956100
vt 0.238300 0.956100
vt 0.218100 0.796700
vt 0.218100 0.956100
vt 0.238300 0.637400
vt 0.259400 0.637400
vt 0.218100 0.637400
vt 0.238300 0.478000
vt 0.259400 0.478000
vt 0.218100 0.478000
vt 0.238300 0.318700
vt 0.259400 0.318700
vt 0.218100 0.318700
vt 0.132600 0.032800
vt 0.165200 0.032800
vt 0.165200 0.166700
vt 0.132600 0.166700
vt 0.132600 0.833300
vt 0.165200 0.833300
vt 0.165200 1.000000
vt 0.132600 1.000000
vt 0.132600 0.666700
vt 0.165200 0.666700
vt 0.132600 0.500000
vt 0.165200 0.500000
vt 0.132600 0.333300
vt 0.165200 0.333300
vt 0.132600 0.032800
vt 0.165200 0.032800
vt 0.165200 0.166700
vt 0.132600 0.166700
vt 0.132600 0.833300
vt 0.165200 0.833300
vt 0.165200 1.000000
vt 0.132600 1.000000
vt 0.132600 0.666700
vt 0.165200 0.666700
vt 0.132600 0.500000
vt 0.165200 0.500000
vt 0.132600 0.333300
vt 0.165200 0.333300
vn 0.6914 -0.6570 -0.3006
vn 0.5678 -0.5819 -0.5822
vn 0.3878 -0.7700 -0.5066
vn 0.4895 -0.8350 -0.2513
vn 0.1026 -0.9803 -0.1685
vn 0.2144 -0.9544 -0.2078
vn 0.2797 -0.8877 -0.3658
vn 0.8350 -0.4357 -0.3361
vn 0.6538 -0.3592 -0.6660
vn 0.8996 -0.2606 -0.3503
vn 0.5950 -0.1726 -0.7849
vn 0.9310 -0.2536 -0.2626
vn 0.5135 -0.0948 -0.8529
vn 0.9122 -0.3066 0.2718
vn 0.7731 -0.2943 0.5618
vn 0.8791 -0.4666 0.0972
vn 0.7555 -0.6549 0.0162
vn 0.5626 -0.8262 -0.0292
vn 0.2789 -0.9492 -0.1456
vn 0.2124 -0.2890 0.9335
vn 0.2375 -0.2616 0.9355
vn -0.4243 -0.2300 0.8758
vn -0.4439 -0.2401 0.8633
vn 0.7774 -0.2109 0.5926
vn 0.7880 -0.1742 0.5905
vn 0.6552 -0.5250 0.5432
vn 0.6986 -0.5366 0.4733
vn 0.0913 -0.6085 0.7883
vn 0.0466 -0.5957 0.8019
vn 0.9760 -0.2169 0.0211
vn 0.9729 -0.2274 -0.0426
vn 0.5845 -0.4514 0.6742
vn -0.0607 -0.5300 0.8458
vn 0.9648 -0.1870 0.1849
vn 0.4648 -0.3376 0.8185
vn -0.2036 -0.4020 0.8927
vn 0.9134 -0.1535 0.3771
vn 0.3319 -0.2534 0.9086
vn -0.3334 -0.2754 0.9017
vn 0.8377 -0.1397 0.5280
vn -0.6432 0.0325 0.7650
vn -0.7095 -0.0334 0.7040
vn -0.6939 -0.0279 0.7196
vn -0.6308 0.0379 0.7751
vn -0.8632 -0.4808 -0.1541
vn -0.8078 -0.5603 -0.1829
vn -0.8082 -0.5604 -0.1810
vn -0.8677 -0.4760 -0.1431
vn -0.9158 -0.4016 -0.0059
vn -0.9143 -0.4046 0.0198
vn -0.9008 -0.3513 0.2555
vn -0.8938 -0.3403 0.2920
vn -0.8284 -0.1867 0.5280
vn -0.8119 -0.1762 0.5566
vn -0.9253 0.0451 -0.3764
vn -0.8898 -0.0057 -0.4563
vn -0.8973 0.0005 -0.4415
vn -0.9295 0.0480 -0.3657
vn -0.1533 -0.3700 -0.9163
vn -0.1117 -0.4482 -0.8869
vn -0.1136 -0.4483 -0.8866
vn -0.1612 -0.3716 -0.9143
vn -0.3123 -0.2978 -0.9021
vn -0.3323 -0.2995 -0.8943
vn -0.5576 -0.2521 -0.7909
vn -0.5823 -0.2444 -0.7754
vn -0.7734 -0.1216 -0.6222
vn -0.7897 -0.1113 -0.6034
vn -0.6913 0.6571 0.3006
vn -0.4893 0.8351 0.2513
vn -0.3876 0.7698 0.5072
vn -0.5673 0.5816 0.5830
vn -0.1027 0.9803 0.1685
vn -0.2797 0.8876 0.3659
vn -0.2142 0.9545 0.2076
vn -0.6525 0.3586 0.6676
vn -0.8348 0.4359 0.3362
vn -0.5905 0.1714 0.7886
vn -0.8993 0.2609 0.3510
vn -0.5046 0.0927 0.8584
vn -0.9307 0.2559 0.2612
vn -0.9106 0.3067 -0.2768
vn -0.7629 0.2945 -0.5756
vn -0.8789 0.4666 -0.0991
vn -0.7556 0.6548 -0.0172
vn -0.5628 0.8261 0.0286
vn -0.2791 0.9492 0.1455
vn -0.2123 0.2889 -0.9335
vn 0.4581 0.2375 -0.8566
vn 0.4389 0.2279 -0.8692
vn -0.2368 0.2618 -0.9356
vn -0.7870 0.2077 -0.5810
vn -0.7968 0.1712 -0.5794
vn -0.6559 0.5247 -0.5427
vn -0.0324 0.5942 -0.8036
vn -0.0763 0.6069 -0.7911
vn -0.6990 0.5365 -0.4727
vn -0.9782 0.2074 -0.0076
vn -0.9743 0.2183 0.0554
vn -0.5850 0.4509 -0.6742
vn 0.0755 0.5290 -0.8452
vn -0.9687 0.1791 -0.1718
vn -0.4649 0.3371 -0.8187
vn 0.2188 0.4014 -0.8894
vn -0.9194 0.1478 -0.3645
vn -0.3316 0.2532 -0.9088
vn 0.3484 0.2745 -0.8963
vn -0.8454 0.1360 -0.5165
vn 0.6432 -0.0324 -0.7650
vn 0.6308 -0.0378 -0.7751
vn 0.6939 0.0280 -0.7196
vn 0.7095 0.0335 -0.7039
vn 0.8632 0.4808 0.1541
vn 0.8678 0.4759 0.1431
vn 0.8082 0.5604 0.1812
vn 0.8078 0.5602 0.1831
vn 0.9159 0.4015 0.0058
vn 0.9143 0.4045 -0.0198
vn 0.9007 0.3513 -0.2554
vn 0.8939 0.3402 -0.2920
vn 0.8284 0.1869 -0.5280
vn 0.8119 0.1761 -0.5566
vn 0.9254 -0.0451 0.3762
vn 0.9296 -0.0479 0.3654
vn 0.8973 -0.0004 0.4414
vn 0.8899 0.0058 0.4562
vn 0.1533 0.3700 0.9163
vn 0.1612 0.3716 0.9143
vn 0.1137 0.4483 0.8866
vn 0.1118 0.4482 0.8869
vn 0.3123 0.2977 0.9021
vn 0.3324 0.2994 0.8944
vn 0.5576 0.2522 0.7909
vn 0.5823 0.2442 0.7754
vn 0.7734 0.1217 0.6221
vn 0.7897 0.1113 0.6033
s 1
f 1/1/1 2/2/2 3/3/3
f 3/3/3 4/4/4 1/1/1
f 5/5/5 6/6/6 7/7/7
f 1/1/1 8/8/8 9/9/9
f 9/9/9 2/2/2 1/1/1
f 8/8/8 10/10/10 11/11/11
f 11/11/11 9/9/9 8/8/8
f 10/10/10 12/12/12 13/13/13
f 13/13/13 11/11/11 10/10/10
f 4/4/4 3/3/3 7/7/7
f 7/7/7 6/6/6 4/4/4
f 14/14/14 15/15/15 12/12/12
f 12/12/12 10/10/10 14/14/14
f 16/16/16 14/14/14 10/10/10
f 10/10/10 8/8/8 16/16/16
f 17/17/17 16/16/16 8/8/8
f 8/8/8 1/1/1 17/17/17
f 17/17/17 1/1/1 4/4/4
f 4/4/4 18/18/18 17/17/17
f 18/18/18 4/4/4 6/6/6
f 6/6/6 19/19/19 18/18/18
f 5/5/5 19/19/19 6/6/6
s 2
f 20/20/20 21/21/21 22/22/22
f 22/22/22 23/23/23 20/20/20
f 24/24/24 25/25/25 21/21/21
f 21/21/21 20/20/20 24/24/24
f 26/26/26 27/27/27 28/28/28
f 28/28/28 29/29/29 26/26/26
f 30/30/30 31/31/31 27/27/27
f 27/27/27 26/26/26 30/30/30
f 32/32/32 26/26/26 29/29/29
f 29/29/29 33/33/33 32/32/32
f 34/34/34 30/30/30 26/26/26
f 26/26/26 32/32/32 34/34/34
f 35/35/35 32/32/32 33/33/33
f 33/33/33 36/36/36 35/35/35
f 37/37/37 34/34/34 32/32/32
f 32/32/32 35/35/35 37/37/37
f 38/38/38 35/35/35 36/36/36
f 36/36/36 39/39/39 38/38/38
f 40/40/40 37/37/37 35/35/35
f 35/35/35 38/38/38 40/40/40
f 21/21/21 38/38/38 39/39/39
f 39/39/39 22/22/22 21/21/21
f 25/25/25 40/40/40 38/38/38
f 38/38/38 21/21/21 25/25/25
s 3
f 41/41/41 42/42/42 43/43/43
f 43/43/43 44/44/44 41/41/41
f 45/45/45 46/46/46 47/47/47
f 47/47/47 48/48/48 45/45/45
f 49/49/49 45/45/45 48/48/48
f 48/48/48 50/50/50 49/49/49
f 51/51/51 49/49/49 50/50/50
f 50/50/50 52/52/52 51/51/51
f 53/53/53 51/51/51 52/52/52
f 52/52/52 54/54/54 53/53/53
f 42/42/42 53/53/53 54/54/54
f 54/54/54 43/43/43 42/42/42
s 4
f 55/55/55 56/56/56 57/57/57
f 57/57/57 58/58/58 55/55/55
f 59/59/59 60/60/60 61/61/61
f 61/61/61 62/62/62 59/59/59
f 63/63/63 59/59/59 62/62/62
f 62/62/62 64/64/64 63/63/63
f 65/65/65 63/63/63 64/64/64
f 64/64/64 66/66/66 65/65/65
f 67/67/67 65/65/65 66/66/66
f 66/66/66 68/68/68 67/67/67
f 56/56/56 67/67/67 68/68/68
f 68/68/68 57/57/57 56/56/56
s 5
f 69/69/69 70/70/70 71/71/71
f 71/71/71 72/72/72 69/69/69
f 73/73/73 74/74/74 75/75/75
f 69/69/69 72/72/72 76/76/76
f 76/76/76 77/77/77 69/69/69
f 77/77/77 76/76/76 78/78/78
f 78/78/78 79/79/79 77/77/77
f 79/79/79 78/78/78 80/80/80
f 80/80/80 81/81/81 79/79/79
f 70/70/70 75/75/75 74/74/74
f 74/74/74 71/71/71 70/70/70
f 82/82/82 79/79/79 81/81/81
f 81/81/81 83/83/83 82/82/82
f 84/84/84 77/77/77 79/79/79
f 79/79/79 82/82/82 84/84/84
f 85/85/85 69/69/69 77/77/77
f 77/77/77 84/84/84 85/85/85
f 85/85/85 86/86/86 70/70/70
f 70/70/70 69/69/69 85/85/85
f 86/86/86 87/87/87 75/75/75
f 75/75/75 70/70/70 86/86/86
f 73/73/73 75/75/75 87/87/87
s 6
f 88/88/88 89/89/89 90/90/90
f 90/90/90 91/91/91 88/88/88
f 92/92/92 88/88/88 91/91/91
f 91/91/91 93/93/93 92/92/92
f 94/94/94 95/95/95 96/96/96
f 96/96/96 97/97/97 94/94/94
f 98/98/98 94/94/94 97/97/97
f 97/97/97 99/99/99 98/98/98
f 100/100/100 101/101/101 95/95/95
f 95/95/95 94/94/94 100/100/100
f 102/102/102 100/100/100 94/94/94
f 94/94/94 98/98/98 102/102/102
f 103/103/103 104/104/104 101/101/101
f 101/101/101 100/100/100 103/103/103
f 105/105/105 103/103/103 100/100/100
f 100/100/100 102/102/102 105/105/105
f 106/106/106 107/107/107 104/104/104
f 104/104/104 103/103/103 106/106/106
f 108/108/108 106/106/106 103/103/103
f 103/103/103 105/105/105 108/108/108
f 91/91/91 90/90/90 107/107/107
f 107/107/107 106/106/106 91/91/91
f 93/93/93 91/91/91 106/106/106
f 106/106/106 108/108/108 93/93/93
s 7
f 109/109/109 110/110/110 111/111/111
f 111/111/111 112/112/112 109/109/109
f 113/113/113 114/114/114 115/115/115
f 115/115/115 116/116/116 113/113/113
f 117/117/117 118/118/118 114/114/114
f 114/114/114 113/113/113 117/117/117
f 119/119/119 120/120/120 118/118/118
f 118/118/118 117/117/117 119/119/119
f 121/121/121 122/122/122 120/120/120
f 120/120/120 119/119/119 121/121/121
f 112/112/112 111/111/111 122/122/122
f 122/122/122 121/121/121 112/112/112
s 8
f 123/123/123 124/124/124 125/125/125
f 125/125/125 126/126/126 123/123/123
f 127/127/127 128/128/128 129/129/129
f 129/129/129 130/130/130 127/127/127
f 131/131/131 132/132/132 128/128/128
f 128/128/128 127/127/127 131/131/131
f 133/133/133 134/134/134 132/132/132
f 132/132/132 131/131/131 133/133/133
f 135/135/135 136/136/136 134/134/134
f 134/134/134 133/133/133 135/135/135
f 126/126/126 125/125/125 136/136/136
f 136/136/136 135/135/135 126/126/126
