# Blender v3.3.0 OBJ File: ''
# www.blender.org
o RiceStage02.005
v -0.009591 0.430901 -0.007862
v -0.008244 0.430035 -0.021230
v -0.017267 0.493416 -0.027252
v -0.018560 0.494038 -0.013856
v -0.034822 0.557097 -0.017656
v -0.033816 0.557750 -0.031134
v -0.050886 0.613793 -0.032820
v -0.052221 0.613506 -0.019308
v -0.011465 0.431750 0.006837
v -0.020374 0.494619 0.000873
v -0.018770 0.493976 -0.013669
v -0.009806 0.430858 -0.007675
v -0.036319 0.556273 -0.002835
v -0.054081 0.613082 -0.004456
v -0.052430 0.613424 -0.019122
v -0.035025 0.557007 -0.017469
v -0.009786 0.430848 -0.007877
v -0.023158 0.427178 -0.009599
v -0.032129 0.490328 -0.015595
v -0.018755 0.493986 -0.013871
v -0.035017 0.557044 -0.017671
v -0.048405 0.553452 -0.019399
v -0.065746 0.609748 -0.021250
v -0.052415 0.613452 -0.019326
v 0.004074 0.434554 -0.007082
v -0.004889 0.497666 -0.013076
v -0.018575 0.494029 -0.013654
v -0.009610 0.430910 -0.007660
v -0.021153 0.560735 -0.016881
v -0.038590 0.617238 -0.018334
v -0.052235 0.613478 -0.019105
v -0.034830 0.557060 -0.017454
v -0.051275 0.613685 -0.032856
v -0.034206 0.557644 -0.031165
v -0.017657 0.493311 -0.027282
v -0.008634 0.429929 -0.021260
v -0.035929 0.556378 -0.002805
v -0.053692 0.613190 -0.004420
v -0.019984 0.494724 0.000903
v -0.011075 0.431855 0.006868
v -0.021135 0.560809 -0.017285
v -0.038560 0.617293 -0.018742
v -0.004859 0.497685 -0.013481
v 0.004113 0.434535 -0.007485
v -0.065775 0.609693 -0.020843
v -0.048423 0.553378 -0.018996
v -0.032160 0.490309 -0.015190
v -0.023196 0.427197 -0.009197
v -0.006871 -0.015320 0.001763
v -0.012347 0.041457 -0.010811
v -0.000559 0.040136 -0.020338
v 0.004917 -0.016641 -0.007764
v -0.093361 0.252908 -0.132629
v -0.126927 0.283446 -0.177280
v -0.115139 0.282125 -0.186806
v -0.081573 0.251587 -0.142156
v -0.059833 0.221002 -0.087888
v -0.048046 0.219681 -0.097415
v -0.033444 0.173982 -0.050440
v -0.021658 0.172663 -0.059968
v -0.018562 0.111300 -0.025631
v -0.006775 0.109981 -0.035158
v 0.080617 0.185199 -0.008543
v 0.060413 0.192011 -0.035059
v 0.108455 0.238202 -0.050166
v 0.130403 0.229628 -0.020419
v 0.245722 0.267879 -0.036543
v 0.190407 0.262501 -0.038933
v 0.165001 0.266107 -0.069533
v 0.043618 0.127883 -0.004985
v 0.025853 0.133725 -0.025157
v 0.015120 0.045127 -0.006560
v -0.000159 0.050449 -0.018864
v 0.002569 -0.016439 -0.007773
v -0.011754 -0.011246 -0.016472
v 0.009975 0.047648 0.015610
v -0.005438 -0.013111 0.004990
v 0.041448 0.129433 0.026476
v 0.080768 0.185914 0.030627
v 0.131614 0.230158 0.023036
v 0.190049 0.255458 0.006311
v -0.048677 0.119842 0.006987
v -0.034911 0.126327 0.029678
v -0.064823 0.161229 0.035910
v -0.082245 0.150319 0.014239
v -0.157212 0.181396 0.042488
v -0.120535 0.176590 0.033212
v -0.099484 0.185987 0.051792
v -0.024688 0.080935 0.007717
v -0.014388 0.084030 0.026871
v -0.008690 0.023697 0.007408
v -0.000224 0.025485 0.021280
v -0.002254 -0.018479 0.005689
v 0.006031 -0.016544 0.016681
v -0.002095 0.026832 -0.010307
v 0.005020 -0.015586 -0.003227
v -0.020673 0.082136 -0.019249
v -0.048652 0.117254 -0.027981
v -0.086729 0.142973 -0.024479
v -0.127164 0.160267 -0.003465
v 0.005855 -0.017261 0.001231
v 0.008248 0.035256 0.016816
v -0.001126 0.037878 0.012978
v -0.003436 -0.014639 -0.002817
v 0.012306 -0.014321 -0.006154
v 0.014548 0.038329 0.009381
v 0.017347 0.281688 0.123341
v 0.031283 0.332280 0.160710
v 0.021270 0.333891 0.163179
v 0.007264 0.283444 0.125309
v 0.019054 0.288466 0.115234
v 0.032574 0.339299 0.152700
v 0.009081 0.228429 0.085822
v -0.001102 0.230495 0.086483
v 0.011888 0.234443 0.077612
v 0.007663 0.168449 0.054472
v -0.002425 0.170855 0.053339
v 0.011909 0.173319 0.046382
v 0.008817 0.102608 0.032796
v -0.000909 0.105170 0.030037
v 0.014363 0.106334 0.025116
v -0.000141 -0.012088 0.010927
v -0.002263 0.064279 -0.000866
v -0.013855 0.061649 -0.012067
v -0.012736 -0.015115 0.000942
v -0.078869 0.446533 0.036995
v -0.124395 0.530382 0.039940
v -0.123999 0.533060 0.023827
v -0.078055 0.447929 0.020734
v -0.046381 0.351436 0.026650
v -0.047827 0.352240 0.010454
v -0.017351 0.257899 0.009050
v -0.022778 0.257445 -0.006282
v -0.005166 0.161083 -0.003661
v -0.014268 0.159376 -0.017067
v 0.013292 0.273380 -0.077674
v -0.029615 0.276233 -0.061379
v -0.034536 0.348987 -0.122154
v 0.013436 0.344363 -0.139669
v 0.034423 0.422409 -0.288683
v 0.010039 0.401858 -0.219309
v -0.039975 0.398924 -0.198434
v 0.008564 0.187648 -0.037518
v -0.025041 0.190140 -0.021954
v 0.002834 0.069476 -0.014352
v -0.019501 0.072310 0.001104
v 0.001915 -0.016358 -0.008266
v -0.015322 -0.013266 0.007385
v 0.029212 0.072873 0.001595
v 0.014867 -0.013086 0.007656
v 0.048297 0.190967 -0.021768
v 0.064045 0.276556 -0.061905
v 0.070205 0.347781 -0.123545
v 0.069230 0.394822 -0.201601
v 0.002725 -0.015901 0.007361
v -0.005568 0.063667 0.010746
v -0.013384 0.063667 -0.008398
v -0.005091 -0.015901 -0.011783
v -0.156941 0.380611 0.072546
v -0.222217 0.433716 0.099196
v -0.230033 0.433716 0.080052
v -0.164757 0.380611 0.053402
v -0.091776 0.325618 0.045942
v -0.099591 0.325618 0.026798
v -0.041461 0.252294 0.025400
v -0.049277 0.252294 0.006256
v -0.014736 0.161401 0.014489
v -0.022552 0.161401 -0.004655
v -0.000363 0.176950 0.051205
v 0.035041 0.180266 0.041469
v 0.036209 0.232474 0.078742
v 0.000183 0.223801 0.094125
v 0.012540 0.277134 0.198886
v 0.013682 0.264515 0.148235
v 0.046892 0.270798 0.127091
v 0.004803 0.119679 0.024813
v 0.033868 0.119549 0.018582
v 0.003322 0.039453 0.010506
v 0.024637 0.038567 0.004743
v -0.001728 -0.018407 0.006331
v 0.015769 -0.018711 -0.000339
v -0.016719 0.044452 -0.005267
v -0.010098 -0.014913 -0.006841
v -0.028491 0.123688 0.008972
v -0.046046 0.177594 0.037838
v -0.052672 0.219373 0.085668
v -0.038471 0.248180 0.144364
v 0.006392 -0.017185 0.000618
v 0.020041 0.056780 -0.001401
v 0.011135 0.060053 0.008969
v -0.002749 -0.013967 0.010808
v -0.001032 -0.015246 -0.010664
v 0.012479 0.058893 -0.012526
v 0.126542 0.411459 0.004527
v 0.173139 0.486884 -0.004150
v 0.172189 0.490224 0.009502
v 0.124914 0.414893 0.018078
v 0.115867 0.418657 -0.001248
v 0.162392 0.494455 -0.009385
v 0.082316 0.332024 0.005995
v 0.078940 0.335602 0.019156
v 0.072031 0.338110 -0.001168
v 0.049677 0.244437 0.001465
v 0.043992 0.248076 0.013798
v 0.040250 0.248936 -0.007410
v 0.031396 0.150931 -0.002238
v 0.023745 0.154392 0.009002
v 0.023145 0.153912 -0.012540
v -0.008645 -0.012103 0.010530
v -0.006503 0.043696 0.000548
v -0.001138 0.041002 -0.009889
v -0.004321 -0.015290 -0.000288
v -0.077803 0.308492 -0.072316
v -0.096192 0.363233 -0.109381
v -0.085107 0.366225 -0.113086
v -0.066427 0.310616 -0.075669
v -0.056401 0.244389 -0.045140
v -0.045536 0.245791 -0.049997
v -0.030862 0.181421 -0.022156
v -0.021403 0.181350 -0.029466
v -0.012263 0.113633 -0.009414
v -0.004876 0.112064 -0.018716
v -0.006429 -0.015161 0.002287
v 0.005358 -0.016482 -0.007239
v -0.000117 0.040291 -0.019812
v -0.011905 0.041612 -0.010286
v -0.093103 0.253521 -0.132395
v -0.081316 0.252199 -0.141922
v -0.114885 0.282740 -0.186577
v -0.126672 0.284061 -0.177050
v -0.059524 0.221556 -0.087583
v -0.047737 0.220235 -0.097109
v -0.033052 0.174379 -0.050010
v -0.021265 0.173058 -0.059537
v -0.018127 0.111523 -0.025124
v -0.006340 0.110202 -0.034651
v 0.080133 0.185665 -0.008333
v 0.130067 0.230218 -0.020232
v 0.108168 0.238744 -0.049819
v 0.060018 0.192414 -0.034637
v 0.245650 0.268570 -0.036424
v 0.164812 0.266732 -0.069269
v 0.190260 0.263174 -0.038785
v 0.025405 0.133971 -0.024672
v 0.043030 0.128196 -0.004757
v -0.000579 0.050574 -0.018312
v 0.014482 0.045325 -0.006337
v -0.012135 -0.011166 -0.015885
v 0.001915 -0.016277 -0.007566
v 0.009329 0.047862 0.015427
v -0.006065 -0.012942 0.004718
v 0.040828 0.129759 0.026408
v 0.080238 0.186378 0.030612
v 0.131220 0.230741 0.023058
v 0.189821 0.256120 0.006380
v -0.048187 0.120295 0.006760
v -0.081949 0.150880 0.013933
v -0.064557 0.161718 0.035478
v -0.034465 0.126697 0.029277
v -0.157204 0.182033 0.042188
v -0.099358 0.186549 0.051388
v -0.120452 0.177209 0.032888
v -0.013834 0.084266 0.026505
v -0.024064 0.081227 0.007571
v 0.000351 0.025629 0.020900
v -0.008011 0.023871 0.007338
v 0.006597 -0.016428 0.016278
v -0.001565 -0.018341 0.005649
v -0.001461 0.027006 -0.010056
v 0.005621 -0.015467 -0.002881
v -0.020055 0.082460 -0.019152
v -0.048147 0.117743 -0.028017
v -0.086382 0.143566 -0.024635
v -0.126990 0.160903 -0.003713
v 0.005700 -0.017059 0.000575
v -0.003120 -0.014472 -0.003424
v -0.000833 0.038038 0.012357
v 0.008070 0.035438 0.016159
v 0.011749 -0.014176 -0.006560
v 0.013980 0.038447 0.008981
v 0.016895 0.282064 0.122952
v 0.007249 0.283864 0.124743
v 0.021229 0.334318 0.162620
v 0.030801 0.332664 0.160370
v 0.018367 0.288620 0.115220
v 0.031890 0.339463 0.152729
v 0.008679 0.228752 0.085342
v -0.001050 0.230870 0.085889
v 0.011208 0.234572 0.077484
v 0.007340 0.168687 0.053893
v -0.002284 0.171139 0.052710
v 0.011261 0.173419 0.046124
v 0.008580 0.102785 0.032157
v -0.000681 0.105362 0.029400
v 0.013763 0.106425 0.024760
v 0.000330 -0.012162 0.010409
v -0.012265 -0.015189 0.000424
v -0.013349 0.061606 -0.012555
v -0.001754 0.064239 -0.001351
v -0.078223 0.446810 0.037029
v -0.077408 0.448206 0.020768
v -0.123382 0.533392 0.023892
v -0.123778 0.530714 0.040005
v -0.045714 0.351655 0.026584
v -0.047162 0.352458 0.010382
v -0.016705 0.258063 0.008823
v -0.022134 0.257603 -0.006522
v -0.004579 0.161135 -0.004047
v -0.013687 0.159420 -0.017462
v 0.013311 0.273778 -0.077093
v 0.013464 0.344899 -0.139213
v -0.034339 0.349489 -0.121701
v -0.029366 0.276588 -0.060823
v 0.034453 0.423081 -0.288474
v -0.039837 0.399519 -0.198083
v 0.010075 0.402501 -0.219024
v -0.024732 0.190336 -0.021352
v 0.008583 0.187885 -0.036856
v -0.019107 0.072394 0.001681
v 0.002845 0.069595 -0.013658
v -0.014880 -0.013218 0.007931
v 0.001915 -0.016277 -0.007566
v 0.028836 0.072994 0.002178
v 0.014415 -0.013007 0.008191
v 0.048027 0.191204 -0.021161
v 0.063839 0.276937 -0.061349
v 0.070062 0.348296 -0.123086
v 0.069170 0.395439 -0.201268
v 0.003373 -0.015822 0.007096
v -0.004443 -0.015822 -0.012048
v -0.012736 0.063742 -0.008662
v -0.004920 0.063742 0.010482
v -0.156544 0.381170 0.072384
v -0.164360 0.381170 0.053240
v -0.229641 0.434278 0.079892
v -0.221825 0.434278 0.099036
v -0.091309 0.326110 0.045751
v -0.099125 0.326110 0.026607
v -0.040880 0.252615 0.025163
v -0.048696 0.252615 0.006019
v -0.014098 0.161544 0.014229
v -0.021913 0.161544 -0.004915
v -0.000388 0.177355 0.050629
v 0.000043 0.224341 0.093695
v 0.035932 0.232955 0.078309
v 0.034830 0.180606 0.040890
v 0.012334 0.277787 0.198719
v 0.046609 0.271368 0.126790
v 0.013472 0.265141 0.147991
v 0.033703 0.119744 0.017925
v 0.004872 0.119908 0.024150
v 0.024451 0.038671 0.004072
v 0.003463 0.039556 0.009824
v 0.015555 -0.018632 -0.001005
v -0.001565 -0.018341 0.005649
v -0.016286 0.044540 -0.005815
v -0.009588 -0.014883 -0.007327
v -0.028192 0.123933 0.008384
v -0.045884 0.178020 0.037301
v -0.052653 0.219926 0.085232
v -0.038580 0.248804 0.144057
v 0.005700 -0.017059 0.000575
v -0.003256 -0.013885 0.010326
v 0.010610 0.060127 0.008506
v 0.019345 0.056888 -0.001428
v -0.001595 -0.015133 -0.010257
v 0.011921 0.058982 -0.012106
v 0.125998 0.411797 0.004821
v 0.124324 0.415235 0.017901
v 0.171597 0.490575 0.009351
v 0.172627 0.487238 -0.003820
v 0.115635 0.418832 -0.000606
v 0.162200 0.494645 -0.008734
v 0.081708 0.332297 0.006222
v 0.078348 0.335895 0.018912
v 0.071696 0.338245 -0.000563
v 0.049008 0.244614 0.001596
v 0.043403 0.248275 0.013468
v 0.039806 0.249027 -0.006871
v 0.030701 0.151037 -0.002202
v 0.023182 0.154498 0.008593
v 0.022622 0.153980 -0.012073
v -0.008003 -0.012083 0.010817
v -0.003678 -0.015271 -0.000000
v -0.000516 0.041054 -0.009564
v -0.005883 0.043753 0.000878
v -0.077672 0.308853 -0.071725
v -0.066296 0.310977 -0.075079
v -0.085023 0.366635 -0.112520
v -0.096108 0.363644 -0.108815
v -0.056159 0.244699 -0.044556
v -0.045290 0.246101 -0.049414
v -0.030466 0.181684 -0.021637
v -0.020996 0.181607 -0.028951
v -0.011723 0.113785 -0.008988
v -0.004327 0.112208 -0.018298
v 0.030018 0.351211 0.010982
v 0.033122 0.389610 0.017066
v 0.039202 0.390466 0.013695
v 0.034446 0.389709 0.024061
v 0.035546 0.536319 0.032438
v 0.007919 0.629433 0.021136
v 0.011339 0.631372 0.014987
v 0.039764 0.538199 0.026471
v 0.012576 0.631915 0.027169
v 0.039135 0.537942 0.038135
v 0.039415 0.438293 0.026182
v 0.045178 0.439462 0.022276
v 0.041281 0.438550 0.032980
v 0.013372 0.199788 0.000471
v 0.017884 0.249911 -0.003999
v 0.025284 0.250974 -0.000103
v 0.012563 0.252413 0.001790
v 0.047658 0.439200 -0.021695
v 0.049091 0.550635 -0.062563
v 0.057561 0.551298 -0.063269
v 0.056141 0.439792 -0.020962
v 0.048774 0.555536 -0.053487
v 0.045719 0.443069 -0.013520
v 0.025725 0.313960 -0.007659
v 0.033550 0.314789 -0.004426
v 0.021129 0.316746 -0.001309
v 0.008403 0.091608 0.005027
v 0.013212 0.164838 0.010402
v 0.007087 0.168770 0.000379
v 0.024453 0.166171 0.006907
v 0.012077 0.498591 0.148808
v 0.011569 0.572375 0.190704
v 0.000843 0.577666 0.186740
v 0.001714 0.504280 0.144588
v 0.020830 0.505102 0.144187
v 0.020086 0.578725 0.186466
v 0.014246 0.426248 0.098975
v 0.004835 0.432056 0.093933
v 0.023860 0.431647 0.094591
v 0.015620 0.346861 0.052835
v 0.007400 0.352400 0.045853
v 0.025945 0.350689 0.048307
v 0.016719 0.257691 0.020405
v 0.009647 0.262349 0.011400
v 0.027547 0.259933 0.016284
v 0.006091 -0.016478 -0.000816
v 0.001151 -0.016076 -0.002324
v 0.007396 0.091834 -0.000417
v 0.012336 0.091433 0.001092
v 0.002312 -0.016277 0.002718
v 0.008557 0.091634 0.004625
v 0.058005 0.484216 0.041986
v 0.058504 0.483852 0.044130
v 0.076538 0.558949 0.053118
v 0.060054 0.483626 0.042590
v 0.030410 0.351150 0.011152
v 0.031368 0.350525 0.015443
v 0.034618 0.350341 0.012400
v 0.013438 0.199826 0.000896
v 0.014594 0.199578 0.005933
v 0.018373 0.199396 0.002398
v 0.030410 0.351150 0.011152
v 0.039434 0.390417 0.014055
v 0.033517 0.389550 0.017229
v 0.034866 0.389663 0.023969
v 0.035971 0.536405 0.032469
v 0.040085 0.538298 0.026753
v 0.011698 0.631529 0.015322
v 0.008359 0.629583 0.021222
v 0.012917 0.631993 0.026947
v 0.039495 0.537997 0.037905
v 0.039829 0.438280 0.026302
v 0.045454 0.439458 0.022617
v 0.041687 0.438542 0.032837
v 0.013438 0.199826 0.000896
v 0.025087 0.251046 0.000276
v 0.017964 0.249946 -0.003576
v 0.012888 0.252400 0.002073
v 0.047899 0.439303 -0.021298
v 0.056109 0.439957 -0.020512
v 0.057593 0.551510 -0.062779
v 0.049392 0.550798 -0.062175
v 0.049214 0.555570 -0.053370
v 0.046129 0.443066 -0.013387
v 0.025864 0.314019 -0.007249
v 0.033410 0.314906 -0.004025
v 0.021492 0.316732 -0.001067
v 0.008557 0.091634 0.004625
v 0.007450 0.168777 0.000147
v 0.013353 0.164875 0.009996
v 0.024309 0.166227 0.006504
v 0.012045 0.498874 0.148525
v 0.001972 0.504507 0.144383
v 0.001091 0.577879 0.186548
v 0.011517 0.572638 0.190455
v 0.020516 0.505311 0.143966
v 0.019763 0.578920 0.186279
v 0.014262 0.426487 0.098662
v 0.005124 0.432256 0.093719
v 0.023589 0.431827 0.094332
v 0.015685 0.347044 0.052464
v 0.007720 0.352547 0.045612
v 0.025720 0.350840 0.047969
v 0.016828 0.257793 0.019998
v 0.009994 0.262422 0.011152
v 0.027371 0.260032 0.015901
v -0.003283 0.308620 0.002517
v -0.005966 0.342884 0.002857
v -0.011285 0.343748 -0.001685
v 0.000170 0.344190 -0.000315
v -0.021968 0.470570 0.026287
v -0.034246 0.545754 0.068371
v -0.041634 0.546658 0.067369
v -0.029023 0.471563 0.024196
v -0.031343 0.549295 0.063400
v -0.018014 0.473492 0.021624
v -0.010460 0.386489 0.005235
v -0.016306 0.387433 0.001247
v -0.004773 0.388157 0.001684
v 0.001262 0.174567 0.002666
v -0.004420 0.218581 0.002751
v -0.002891 0.220271 -0.005354
v 0.002608 0.220664 0.006338
v -0.057165 0.379909 0.010281
v -0.110250 0.469719 0.037151
v -0.113812 0.471026 0.029607
v -0.059342 0.381469 0.002297
v -0.103532 0.474859 0.036587
v -0.050051 0.384244 0.010894
v -0.014409 0.274351 0.003212
v -0.013805 0.276072 -0.004996
v -0.007295 0.276948 0.006136
v 0.006603 0.079145 -0.000113
v 0.010389 0.144038 -0.001884
v 0.002621 0.146890 0.007099
v 0.003788 0.145879 -0.011528
v 0.109119 0.455366 0.003406
v 0.150025 0.521571 -0.004200
v 0.149170 0.524501 0.007655
v 0.107678 0.458381 0.015175
v 0.099833 0.461641 -0.001570
v 0.140677 0.528172 -0.008709
v 0.070285 0.385629 0.004677
v 0.067326 0.388775 0.016103
v 0.061330 0.390935 -0.001509
v 0.041617 0.308712 0.000676
v 0.036649 0.311918 0.011379
v 0.033405 0.312646 -0.007006
v 0.019018 0.226630 -0.002600
v 0.012336 0.229668 0.007149
v 0.011821 0.229238 -0.011528
v 0.001690 -0.016277 -0.002729
v 0.001690 -0.016277 0.002448
v 0.001690 0.079170 0.002448
v 0.001690 0.079170 -0.002729
v 0.006174 -0.016277 -0.000141
v 0.006174 0.079170 -0.000141
v -0.011684 0.430689 -0.006570
v -0.009806 0.430858 -0.007675
v -0.020234 0.498804 -0.013153
v -0.011684 0.430555 -0.008752
v -0.003234 0.308628 0.002089
v 0.000634 0.308724 -0.000141
v -0.003234 0.308506 -0.002362
v 0.001648 0.174617 0.002482
v 0.006132 0.174617 -0.000106
v 0.001648 0.174616 -0.002695
v -0.003234 0.308628 0.002089
v -0.011010 0.343788 -0.002013
v -0.005924 0.342901 0.002429
v -0.000038 0.344182 -0.000692
v -0.022083 0.470701 0.025893
v -0.028874 0.471741 0.023833
v -0.041525 0.546877 0.067015
v -0.034396 0.545932 0.068008
v -0.031712 0.549352 0.063185
v -0.018350 0.473538 0.021358
v -0.010472 0.386548 0.004808
v -0.016076 0.387524 0.000894
v -0.005030 0.388172 0.001339
v 0.001648 0.174617 0.002482
v -0.002474 0.220339 -0.005270
v -0.004041 0.218640 0.002555
v 0.002783 0.220692 0.005946
v -0.056910 0.380084 0.009981
v -0.058966 0.381675 0.002253
v -0.113460 0.471261 0.029525
v -0.110061 0.469928 0.036825
v -0.103596 0.474943 0.036169
v -0.050051 0.384314 0.010469
v -0.014067 0.274453 0.002970
v -0.013395 0.276199 -0.004961
v -0.007177 0.276991 0.005724
v 0.006174 0.079170 -0.000141
v 0.002293 0.146915 0.006821
v 0.009960 0.144072 -0.001898
v 0.003444 0.145910 -0.011270
v 0.108786 0.455573 0.003586
v 0.107317 0.458590 0.015067
v 0.148808 0.524716 0.007562
v 0.149712 0.521787 -0.003998
v 0.099691 0.461748 -0.001177
v 0.140560 0.528288 -0.008311
v 0.069913 0.385796 0.004816
v 0.066964 0.388955 0.015954
v 0.061126 0.391017 -0.001139
v 0.041213 0.308838 0.000755
v 0.036293 0.312051 0.011176
v 0.033136 0.312712 -0.006675
v 0.018594 0.226706 -0.002578
v 0.011995 0.229744 0.006897
v 0.011504 0.229289 -0.011241
v 0.062354 0.500658 0.044409
v 0.058261 0.500227 0.058172
v 0.074454 0.567636 0.066329
v 0.078486 0.567809 0.052533
v 0.097484 0.634529 0.050322
v 0.093792 0.635707 0.064230
v 0.114058 0.702370 0.057574
v 0.117526 0.700360 0.043650
v 0.067263 0.501008 0.029357
v 0.083327 0.567873 0.037445
v 0.078741 0.567728 0.052380
v 0.062614 0.500598 0.044258
v 0.101951 0.633105 0.035111
v 0.121746 0.698019 0.028420
v 0.117771 0.700242 0.043498
v 0.097731 0.634420 0.050169
v 0.062553 0.500595 0.044465
v 0.076062 0.496238 0.049025
v 0.092196 0.563402 0.057150
v 0.078685 0.567746 0.052589
v 0.097683 0.634466 0.050378
v 0.111212 0.630191 0.054945
v 0.131266 0.696064 0.048274
v 0.117725 0.700297 0.043706
v 0.048352 0.505039 0.040780
v 0.064476 0.572163 0.048902
v 0.078542 0.567791 0.052324
v 0.062415 0.500661 0.044202
v 0.083476 0.638895 0.046697
v 0.103524 0.704751 0.040028
v 0.117571 0.700305 0.043442
v 0.097532 0.634483 0.050113
v 0.114456 0.702244 0.057686
v 0.094190 0.635581 0.064342
v 0.074852 0.567511 0.066441
v 0.058659 0.500101 0.058284
v 0.101553 0.633231 0.034999
v 0.121348 0.698145 0.028308
v 0.082929 0.567999 0.037332
v 0.066865 0.501134 0.029245
v 0.083381 0.638987 0.047115
v 0.103434 0.704860 0.040444
v 0.064365 0.572198 0.049320
v 0.048230 0.505034 0.041194
v 0.131356 0.695955 0.047858
v 0.111307 0.630099 0.054528
v 0.092308 0.563367 0.056732
v 0.076183 0.496243 0.048610
vt 0.057200 0.522200
vt 0.107400 0.522200
vt 0.096100 0.673400
vt 0.057200 0.673400
vt 0.057200 0.824600
vt 0.096100 0.824600
vt 0.096100 0.975800
vt 0.057200 0.975800
vt 0.007000 0.522200
vt 0.018300 0.673400
vt 0.057200 0.673400
vt 0.057200 0.522200
vt 0.018300 0.824600
vt 0.018300 0.975800
vt 0.057200 0.975800
vt 0.057200 0.824600
vt 0.057200 0.522200
vt 0.107400 0.522200
vt 0.096100 0.673400
vt 0.057200 0.673400
vt 0.057200 0.824600
vt 0.096100 0.824600
vt 0.096100 0.975800
vt 0.057200 0.975800
vt 0.007000 0.522200
vt 0.018300 0.673400
vt 0.057200 0.673400
vt 0.057200 0.522200
vt 0.018300 0.824600
vt 0.018300 0.975800
vt 0.057200 0.975800
vt 0.057200 0.824600
vt 0.096100 0.975800
vt 0.096100 0.824600
vt 0.096100 0.673400
vt 0.107400 0.522200
vt 0.018300 0.824600
vt 0.018300 0.975800
vt 0.018300 0.673400
vt 0.007000 0.522200
vt 0.018300 0.824600
vt 0.018300 0.975800
vt 0.018300 0.673400
vt 0.007000 0.522200
vt 0.096100 0.975800
vt 0.096100 0.824600
vt 0.096100 0.673400
vt 0.107400 0.522200
vt 0.218100 0.029500
vt 0.218100 0.166700
vt 0.259400 0.166700
vt 0.259400 0.029500
vt 0.218100 0.833300
vt 0.218100 1.000000
vt 0.259400 1.000000
vt 0.259400 0.833300
vt 0.218100 0.666700
vt 0.259400 0.666700
vt 0.218100 0.500000
vt 0.259400 0.500000
vt 0.218100 0.333300
vt 0.259400 0.333300
vt 0.401700 0.539300
vt 0.316300 0.538500
vt 0.306400 0.682700
vt 0.402000 0.681000
vt 0.449000 0.998000
vt 0.400100 0.856100
vt 0.290700 0.846400
vt 0.392200 0.380200
vt 0.325600 0.379000
vt 0.380700 0.170800
vt 0.336800 0.171700
vt 0.378800 0.020100
vt 0.345300 0.024400
vt 0.432700 0.172600
vt 0.403900 0.024600
vt 0.471100 0.380400
vt 0.502700 0.539300
vt 0.515200 0.681200
vt 0.508700 0.840600
vt 0.401700 0.539300
vt 0.316300 0.538500
vt 0.306400 0.682700
vt 0.402000 0.681000
vt 0.449000 0.998000
vt 0.400100 0.856100
vt 0.290700 0.846400
vt 0.392200 0.380200
vt 0.325600 0.379000
vt 0.380700 0.170800
vt 0.336800 0.171700
vt 0.378800 0.020100
vt 0.345300 0.024400
vt 0.432700 0.172600
vt 0.403900 0.024600
vt 0.471100 0.380400
vt 0.502700 0.539300
vt 0.515200 0.681200
vt 0.508700 0.840600
vt 0.238300 0.030000
vt 0.238300 0.159300
vt 0.259400 0.159300
vt 0.259400 0.030000
vt 0.218100 0.030000
vt 0.218100 0.159300
vt 0.238300 0.796700
vt 0.238300 0.956100
vt 0.259400 0.956100
vt 0.259400 0.796700
vt 0.218100 0.796700
vt 0.218100 0.956100
vt 0.238300 0.637400
vt 0.259400 0.637400
vt 0.218100 0.637400
vt 0.238300 0.478000
vt 0.259400 0.478000
vt 0.218100 0.478000
vt 0.238300 0.318700
vt 0.259400 0.318700
vt 0.218100 0.318700
vt 0.132600 0.032800
vt 0.132600 0.166700
vt 0.165200 0.166700
vt 0.165200 0.032800
vt 0.132600 0.833300
vt 0.132600 1.000000
vt 0.165200 1.000000
vt 0.165200 0.833300
vt 0.132600 0.666700
vt 0.165200 0.666700
vt 0.132600 0.500000
vt 0.165200 0.500000
vt 0.132600 0.333300
vt 0.165200 0.333300
vt 0.401700 0.539300
vt 0.316300 0.538500
vt 0.306400 0.682700
vt 0.402000 0.681000
vt 0.449000 0.998000
vt 0.400100 0.856100
vt 0.290700 0.846400
vt 0.392200 0.380200
vt 0.325600 0.379000
vt 0.380700 0.170800
vt 0.336800 0.171700
vt 0.378800 0.020100
vt 0.345300 0.024400
vt 0.432700 0.172600
vt 0.403900 0.024600
vt 0.471100 0.380400
vt 0.502700 0.539300
vt 0.515200 0.681200
vt 0.508700 0.840600
vt 0.218100 0.029500
vt 0.218100 0.166700
vt 0.259400 0.166700
vt 0.259400 0.029500
vt 0.218100 0.833300
vt 0.218100 1.000000
vt 0.259400 1.000000
vt 0.259400 0.833300
vt 0.218100 0.666700
vt 0.259400 0.666700
vt 0.218100 0.500000
vt 0.259400 0.500000
vt 0.218100 0.333300
vt 0.259400 0.333300
vt 0.401700 0.539300
vt 0.316300 0.538500
vt 0.306400 0.682700
vt 0.402000 0.681000
vt 0.449000 0.998000
vt 0.400100 0.856100
vt 0.290700 0.846400
vt 0.392200 0.380200
vt 0.325600 0.379000
vt 0.380700 0.170800
vt 0.336800 0.171700
vt 0.378800 0.020100
vt 0.345300 0.024400
vt 0.432700 0.172600
vt 0.403900 0.024600
vt 0.471100 0.380400
vt 0.502700 0.539300
vt 0.515200 0.681200
vt 0.508700 0.840600
vt 0.238300 0.030000
vt 0.238300 0.159300
vt 0.259400 0.159300
vt 0.259400 0.030000
vt 0.218100 0.030000
vt 0.218100 0.159300
vt 0.238300 0.796700
vt 0.238300 0.956100
vt 0.259400 0.956100
vt 0.259400 0.796700
vt 0.218100 0.796700
vt 0.218100 0.956100
vt 0.238300 0.637400
vt 0.259400 0.637400
vt 0.218100 0.637400
vt 0.238300 0.478000
vt 0.259400 0.478000
vt 0.218100 0.478000
vt 0.238300 0.318700
vt 0.259400 0.318700
vt 0.218100 0.318700
vt 0.132600 0.032800
vt 0.132600 0.166700
vt 0.165200 0.166700
vt 0.165200 0.032800
vt 0.132600 0.833300
vt 0.132600 1.000000
vt 0.165200 1.000000
vt 0.165200 0.833300
vt 0.132600 0.666700
vt 0.165200 0.666700
vt 0.132600 0.500000
vt 0.165200 0.500000
vt 0.132600 0.333300
vt 0.165200 0.333300
vt 0.218100 0.029500
vt 0.259400 0.029500
vt 0.259400 0.166700
vt 0.218100 0.166700
vt 0.218100 0.833300
vt 0.259400 0.833300
vt 0.259400 1.000000
vt 0.218100 1.000000
vt 0.218100 0.666700
vt 0.259400 0.666700
vt 0.218100 0.500000
vt 0.259400 0.500000
vt 0.218100 0.333300
vt 0.259400 0.333300
vt 0.401700 0.539300
vt 0.402000 0.681000
vt 0.306400 0.682700
vt 0.316300 0.538500
vt 0.449000 0.998000
vt 0.290700 0.846400
vt 0.400100 0.856100
vt 0.325600 0.379000
vt 0.392200 0.380200
vt 0.336800 0.171700
vt 0.380700 0.170800
vt 0.345300 0.024400
vt 0.378800 0.020100
vt 0.432700 0.172600
vt 0.403900 0.024600
vt 0.471100 0.380400
vt 0.502700 0.539300
vt 0.515200 0.681200
vt 0.508700 0.840600
vt 0.401700 0.539300
vt 0.402000 0.681000
vt 0.306400 0.682700
vt 0.316300 0.538500
vt 0.449000 0.998000
vt 0.290700 0.846400
vt 0.400100 0.856100
vt 0.325600 0.379000
vt 0.392200 0.380200
vt 0.336800 0.171700
vt 0.380700 0.170800
vt 0.345300 0.024400
vt 0.378800 0.020100
vt 0.432700 0.172600
vt 0.403900 0.024600
vt 0.471100 0.380400
vt 0.502700 0.539300
vt 0.515200 0.681200
vt 0.508700 0.840600
vt 0.238300 0.030000
vt 0.259400 0.030000
vt 0.259400 0.159300
vt 0.238300 0.159300
vt 0.218100 0.030000
vt 0.218100 0.159300
vt 0.238300 0.796700
vt 0.259400 0.796700
vt 0.259400 0.956100
vt 0.238300 0.956100
vt 0.218100 0.796700
vt 0.218100 0.956100
vt 0.238300 0.637400
vt 0.259400 0.637400
vt 0.218100 0.637400
vt 0.238300 0.478000
vt 0.259400 0.478000
vt 0.218100 0.478000
vt 0.238300 0.318700
vt 0.259400 0.318700
vt 0.218100 0.318700
vt 0.132600 0.032800
vt 0.165200 0.032800
vt 0.165200 0.166700
vt 0.132600 0.166700
vt 0.132600 0.833300
vt 0.165200 0.833300
vt 0.165200 1.000000
vt 0.132600 1.000000
vt 0.132600 0.666700
vt 0.165200 0.666700
vt 0.132600 0.500000
vt 0.165200 0.500000
vt 0.132600 0.333300
vt 0.165200 0.333300
vt 0.401700 0.539300
vt 0.402000 0.681000
vt 0.306400 0.682700
vt 0.316300 0.538500
vt 0.449000 0.998000
vt 0.290700 0.846400
vt 0.400100 0.856100
vt 0.325600 0.379000
vt 0.392200 0.380200
vt 0.336800 0.171700
vt 0.380700 0.170800
vt 0.345300 0.024400
vt 0.378800 0.020100
vt 0.432700 0.172600
vt 0.403900 0.024600
vt 0.471100 0.380400
vt 0.502700 0.539300
vt 0.515200 0.681200
vt 0.508700 0.840600
vt 0.218100 0.029500
vt 0.259400 0.029500
vt 0.259400 0.166700
vt 0.218100 0.166700
vt 0.218100 0.833300
vt 0.259400 0.833300
vt 0.259400 1.000000
vt 0.218100 1.000000
vt 0.218100 0.666700
vt 0.259400 0.666700
vt 0.218100 0.500000
vt 0.259400 0.500000
vt 0.218100 0.333300
vt 0.259400 0.333300
vt 0.401700 0.539300
vt 0.402000 0.681000
vt 0.306400 0.682700
vt 0.316300 0.538500
vt 0.449000 0.998000
vt 0.290700 0.846400
vt 0.400100 0.856100
vt 0.325600 0.379000
vt 0.392200 0.380200
vt 0.336800 0.171700
vt 0.380700 0.170800
vt 0.345300 0.024400
vt 0.378800 0.020100
vt 0.432700 0.172600
vt 0.403900 0.024600
vt 0.471100 0.380400
vt 0.502700 0.539300
vt 0.515200 0.681200
vt 0.508700 0.840600
vt 0.238300 0.030000
vt 0.259400 0.030000
vt 0.259400 0.159300
vt 0.238300 0.159300
vt 0.218100 0.030000
vt 0.218100 0.159300
vt 0.238300 0.796700
vt 0.259400 0.796700
vt 0.259400 0.956100
vt 0.238300 0.956100
vt 0.218100 0.796700
vt 0.218100 0.956100
vt 0.238300 0.637400
vt 0.259400 0.637400
vt 0.218100 0.637400
vt 0.238300 0.478000
vt 0.259400 0.478000
vt 0.218100 0.478000
vt 0.238300 0.318700
vt 0.259400 0.318700
vt 0.218100 0.318700
vt 0.132600 0.032800
vt 0.165200 0.032800
vt 0.165200 0.166700
vt 0.132600 0.166700
vt 0.132600 0.833300
vt 0.165200 0.833300
vt 0.165200 1.000000
vt 0.132600 1.000000
vt 0.132600 0.666700
vt 0.165200 0.666700
vt 0.132600 0.500000
vt 0.165200 0.500000
vt 0.132600 0.333300
vt 0.165200 0.333300
vt 0.238300 0.472700
vt 0.238300 0.541400
vt 0.259400 0.541400
vt 0.218100 0.541400
vt 0.238300 0.795400
vt 0.238300 0.956100
vt 0.259400 0.956100
vt 0.259400 0.795400
vt 0.218100 0.956100
vt 0.218100 0.795400
vt 0.238300 0.626100
vt 0.259400 0.626100
vt 0.218100 0.626100
vt 0.238300 0.413600
vt 0.238300 0.482400
vt 0.259400 0.482400
vt 0.218100 0.482400
vt 0.238300 0.736300
vt 0.238300 0.956100
vt 0.259400 0.956100
vt 0.259400 0.736300
vt 0.218100 0.956100
vt 0.218100 0.736300
vt 0.238300 0.567000
vt 0.259400 0.567000
vt 0.218100 0.567000
vt 0.238300 0.314700
vt 0.238300 0.383400
vt 0.259400 0.383400
vt 0.218100 0.383400
vt 0.238300 0.796700
vt 0.238300 0.956100
vt 0.259400 0.956100
vt 0.259400 0.796700
vt 0.218100 0.796700
vt 0.218100 0.956100
vt 0.238300 0.637400
vt 0.259400 0.637400
vt 0.218100 0.637400
vt 0.238300 0.552700
vt 0.259400 0.552700
vt 0.218100 0.552700
vt 0.238300 0.468100
vt 0.259400 0.468100
vt 0.218100 0.468100
vt 0.028500 0.033900
vt 0.041300 0.033900
vt 0.041300 0.114800
vt 0.028500 0.114800
vt 0.054000 0.033900
vt 0.054000 0.114800
vt 0.066800 0.033900
vt 0.066800 0.114800
vt 0.041300 0.357500
vt 0.054000 0.357500
vt 0.047700 0.438400
vt 0.028500 0.357500
vt 0.066800 0.357500
vt 0.041300 0.276600
vt 0.054000 0.276600
vt 0.028500 0.276600
vt 0.066800 0.276600
vt 0.041300 0.195700
vt 0.054000 0.195700
vt 0.028500 0.195700
vt 0.066800 0.195700
vt 0.238300 0.472700
vt 0.259400 0.541400
vt 0.238300 0.541400
vt 0.218100 0.541400
vt 0.238300 0.795400
vt 0.259400 0.795400
vt 0.259400 0.956100
vt 0.238300 0.956100
vt 0.218100 0.956100
vt 0.218100 0.795400
vt 0.238300 0.626100
vt 0.259400 0.626100
vt 0.218100 0.626100
vt 0.238300 0.413600
vt 0.259400 0.482400
vt 0.238300 0.482400
vt 0.218100 0.482400
vt 0.238300 0.736300
vt 0.259400 0.736300
vt 0.259400 0.956100
vt 0.238300 0.956100
vt 0.218100 0.956100
vt 0.218100 0.736300
vt 0.238300 0.567000
vt 0.259400 0.567000
vt 0.218100 0.567000
vt 0.238300 0.314700
vt 0.259400 0.383400
vt 0.238300 0.383400
vt 0.218100 0.383400
vt 0.238300 0.796700
vt 0.259400 0.796700
vt 0.259400 0.956100
vt 0.238300 0.956100
vt 0.218100 0.796700
vt 0.218100 0.956100
vt 0.238300 0.637400
vt 0.259400 0.637400
vt 0.218100 0.637400
vt 0.238300 0.552700
vt 0.259400 0.552700
vt 0.218100 0.552700
vt 0.238300 0.468100
vt 0.259400 0.468100
vt 0.218100 0.468100
vt 0.238300 0.472700
vt 0.238300 0.541400
vt 0.259400 0.541400
vt 0.218100 0.541400
vt 0.238300 0.795400
vt 0.238300 0.956100
vt 0.259400 0.956100
vt 0.259400 0.795400
vt 0.218100 0.956100
vt 0.218100 0.795400
vt 0.238300 0.626100
vt 0.259400 0.626100
vt 0.218100 0.626100
vt 0.238300 0.413600
vt 0.238300 0.482400
vt 0.259400 0.482400
vt 0.218100 0.482400
vt 0.238300 0.736300
vt 0.238300 0.956100
vt 0.259400 0.956100
vt 0.259400 0.736300
vt 0.218100 0.956100
vt 0.218100 0.736300
vt 0.238300 0.567000
vt 0.259400 0.567000
vt 0.218100 0.567000
vt 0.238300 0.314700
vt 0.238300 0.383400
vt 0.259400 0.383400
vt 0.218100 0.383400
vt 0.238300 0.796700
vt 0.238300 0.956100
vt 0.259400 0.956100
vt 0.259400 0.796700
vt 0.218100 0.796700
vt 0.218100 0.956100
vt 0.238300 0.637400
vt 0.259400 0.637400
vt 0.218100 0.637400
vt 0.238300 0.552700
vt 0.259400 0.552700
vt 0.218100 0.552700
vt 0.238300 0.468100
vt 0.259400 0.468100
vt 0.218100 0.468100
vt 0.028500 0.033900
vt 0.041300 0.033900
vt 0.041300 0.114800
vt 0.028500 0.114800
vt 0.054000 0.033900
vt 0.054000 0.114800
vt 0.066800 0.033900
vt 0.066800 0.114800
vt 0.041300 0.357500
vt 0.054000 0.357500
vt 0.047700 0.438400
vt 0.028500 0.357500
vt 0.066800 0.357500
vt 0.041300 0.276600
vt 0.054000 0.276600
vt 0.028500 0.276600
vt 0.066800 0.276600
vt 0.041300 0.195700
vt 0.054000 0.195700
vt 0.028500 0.195700
vt 0.066800 0.195700
vt 0.238300 0.472700
vt 0.259400 0.541400
vt 0.238300 0.541400
vt 0.218100 0.541400
vt 0.238300 0.795400
vt 0.259400 0.795400
vt 0.259400 0.956100
vt 0.238300 0.956100
vt 0.218100 0.956100
vt 0.218100 0.795400
vt 0.238300 0.626100
vt 0.259400 0.626100
vt 0.218100 0.626100
vt 0.238300 0.413600
vt 0.259400 0.482400
vt 0.238300 0.482400
vt 0.218100 0.482400
vt 0.238300 0.736300
vt 0.259400 0.736300
vt 0.259400 0.956100
vt 0.238300 0.956100
vt 0.218100 0.956100
vt 0.218100 0.736300
vt 0.238300 0.567000
vt 0.259400 0.567000
vt 0.218100 0.567000
vt 0.238300 0.314700
vt 0.259400 0.383400
vt 0.238300 0.383400
vt 0.218100 0.383400
vt 0.238300 0.796700
vt 0.259400 0.796700
vt 0.259400 0.956100
vt 0.238300 0.956100
vt 0.218100 0.796700
vt 0.218100 0.956100
vt 0.238300 0.637400
vt 0.259400 0.637400
vt 0.218100 0.637400
vt 0.238300 0.552700
vt 0.259400 0.552700
vt 0.218100 0.552700
vt 0.238300 0.468100
vt 0.259400 0.468100
vt 0.218100 0.468100
vt 0.057200 0.522200
vt 0.107400 0.522200
vt 0.096100 0.673400
vt 0.057200 0.673400
vt 0.057200 0.824600
vt 0.096100 0.824600
vt 0.096100 0.975800
vt 0.057200 0.975800
vt 0.007000 0.522200
vt 0.018300 0.673400
vt 0.057200 0.673400
vt 0.057200 0.522200
vt 0.018300 0.824600
vt 0.018300 0.975800
vt 0.057200 0.975800
vt 0.057200 0.824600
vt 0.057200 0.522200
vt 0.107400 0.522200
vt 0.096100 0.673400
vt 0.057200 0.673400
vt 0.057200 0.824600
vt 0.096100 0.824600
vt 0.096100 0.975800
vt 0.057200 0.975800
vt 0.007000 0.522200
vt 0.018300 0.673400
vt 0.057200 0.673400
vt 0.057200 0.522200
vt 0.018300 0.824600
vt 0.018300 0.975800
vt 0.057200 0.975800
vt 0.057200 0.824600
vt 0.096100 0.975800
vt 0.096100 0.824600
vt 0.096100 0.673400
vt 0.107400 0.522200
vt 0.018300 0.824600
vt 0.018300 0.975800
vt 0.018300 0.673400
vt 0.007000 0.522200
vt 0.018300 0.824600
vt 0.018300 0.975800
vt 0.018300 0.673400
vt 0.007000 0.522200
vt 0.096100 0.975800
vt 0.096100 0.824600
vt 0.096100 0.673400
vt 0.107400 0.522200
vn 0.7739 0.0502 -0.6313
vn 0.9848 0.1487 0.0896
vn 0.9758 0.2013 0.0849
vn 0.7355 0.0934 -0.6711
vn 0.7243 0.1733 -0.6674
vn 0.9580 0.2740 0.0846
vn 0.9503 0.2955 0.0980
vn 0.7355 0.2101 -0.6441
vn -0.9834 -0.1494 -0.1030
vn -0.9745 -0.2015 -0.0988
vn -0.7780 -0.1078 0.6189
vn -0.7644 -0.0475 0.6430
vn -0.9563 -0.2748 -0.0995
vn -0.9473 -0.2994 -0.1136
vn -0.7459 -0.2139 0.6308
vn -0.7557 -0.1854 0.6281
vn -0.5793 -0.1584 -0.7996
vn 0.1470 -0.0728 -0.9865
vn 0.1411 -0.0498 -0.9887
vn -0.6286 -0.1830 -0.7559
vn -0.6114 -0.2067 -0.7638
vn 0.1304 -0.0092 -0.9914
vn 0.1372 0.0127 -0.9905
vn -0.5869 -0.2040 -0.7835
vn -0.0647 0.0852 0.9943
vn -0.0593 0.0649 0.9961
vn 0.6173 0.1833 0.7651
vn 0.6692 0.1639 0.7248
vn -0.0510 0.0302 0.9982
vn -0.0585 0.0076 0.9983
vn 0.6203 0.2136 0.7547
vn 0.6188 0.2099 0.7570
vn -0.9517 -0.2955 -0.0831
vn -0.9593 -0.2737 -0.0696
vn -0.9772 -0.2004 -0.0700
vn -0.9862 -0.1475 -0.0748
vn 0.9577 0.2746 0.0858
vn 0.9488 0.2995 0.1000
vn 0.9759 0.2007 0.0851
vn 0.9849 0.1483 0.0895
vn 0.0374 -0.0341 -0.9987
vn 0.0447 -0.0120 -0.9989
vn 0.0453 -0.0677 -0.9967
vn 0.0505 -0.0873 -0.9949
vn -0.1234 -0.0085 0.9923
vn -0.1167 0.0131 0.9931
vn -0.1270 0.0528 0.9905
vn -0.1328 0.0750 0.9883
vn -0.6275 -0.2256 -0.7452
vn -0.6280 -0.2200 -0.7465
vn -0.6280 -0.2202 -0.7465
vn -0.3660 -0.8692 -0.3323
vn -0.3613 -0.8736 -0.3259
vn -0.3661 -0.8692 -0.3324
vn -0.4382 -0.7878 -0.4329
vn -0.4393 -0.7862 -0.4345
vn -0.5566 -0.5635 -0.6105
vn -0.5578 -0.5602 -0.6124
vn -0.6174 -0.3172 -0.7199
vn -0.6178 -0.3144 -0.7208
vn 0.6914 -0.6570 -0.3006
vn 0.5678 -0.5819 -0.5822
vn 0.3878 -0.7700 -0.5066
vn 0.4895 -0.8350 -0.2513
vn 0.1026 -0.9803 -0.1685
vn 0.2144 -0.9544 -0.2078
vn 0.2797 -0.8877 -0.3658
vn 0.8350 -0.4357 -0.3361
vn 0.6538 -0.3592 -0.6660
vn 0.8997 -0.2606 -0.3503
vn 0.5951 -0.1726 -0.7849
vn 0.9310 -0.2536 -0.2627
vn 0.5134 -0.0948 -0.8529
vn 0.9122 -0.3066 0.2718
vn 0.7732 -0.2943 0.5618
vn 0.8791 -0.4666 0.0972
vn 0.7555 -0.6549 0.0162
vn 0.5626 -0.8262 -0.0293
vn 0.2789 -0.9492 -0.1456
vn -0.7277 -0.6110 0.3116
vn -0.6681 -0.5023 0.5489
vn -0.3793 -0.6944 0.6115
vn -0.4496 -0.7910 0.4150
vn -0.0109 -0.9048 0.4257
vn -0.1089 -0.8783 0.4655
vn -0.1725 -0.7986 0.5767
vn -0.8852 -0.4168 0.2068
vn -0.7938 -0.3456 0.5005
vn -0.9646 -0.2376 0.1148
vn -0.8251 -0.2099 0.5245
vn -0.9759 -0.2168 0.0250
vn -0.7900 -0.1521 0.5939
vn -0.8773 -0.2637 -0.4010
vn -0.7161 -0.2301 -0.6589
vn -0.8566 -0.4865 -0.1718
vn -0.7256 -0.6860 0.0543
vn -0.4573 -0.8509 0.2587
vn -0.1226 -0.8983 0.4219
vn 0.2125 -0.2890 0.9334
vn 0.2375 -0.2617 0.9355
vn -0.4243 -0.2300 0.8759
vn -0.4439 -0.2401 0.8633
vn 0.7775 -0.2109 0.5925
vn 0.7880 -0.1742 0.5905
vn 0.6552 -0.5250 0.5432
vn 0.6985 -0.5366 0.4734
vn 0.0914 -0.6085 0.7883
vn 0.0466 -0.5957 0.8019
vn 0.9760 -0.2169 0.0211
vn 0.9729 -0.2274 -0.0425
vn 0.5844 -0.4514 0.6743
vn -0.0609 -0.5300 0.8458
vn 0.9648 -0.1871 0.1850
vn 0.4648 -0.3375 0.8185
vn -0.2036 -0.4020 0.8927
vn 0.9134 -0.1535 0.3771
vn 0.3319 -0.2534 0.9087
vn -0.3336 -0.2754 0.9016
vn 0.8377 -0.1397 0.5280
vn -0.6433 0.1163 0.7567
vn -0.7081 0.0581 0.7038
vn -0.6964 0.0652 0.7147
vn -0.6343 0.1202 0.7637
vn -0.9152 -0.3949 -0.0806
vn -0.8759 -0.4721 -0.1000
vn -0.8762 -0.4719 -0.0982
vn -0.9163 -0.3938 -0.0724
vn -0.9494 -0.3080 0.0619
vn -0.9480 -0.3073 0.0827
vn -0.9189 -0.2339 0.3177
vn -0.9121 -0.2228 0.3441
vn -0.8280 -0.0765 0.5555
vn -0.8154 -0.0644 0.5753
vn -0.0274 -0.5587 -0.8289
vn -0.3346 -0.5111 -0.7917
vn -0.2980 -0.7169 -0.6303
vn -0.0228 -0.7558 -0.6545
vn -0.0417 -0.9539 -0.2972
vn -0.0487 -0.9121 -0.4071
vn -0.1849 -0.8427 -0.5057
vn -0.0401 -0.3287 -0.9436
vn -0.4113 -0.2861 -0.8654
vn -0.0520 -0.1511 -0.9871
vn -0.5610 -0.1164 -0.8196
vn 0.0291 -0.1372 -0.9901
vn -0.6579 -0.0530 -0.7512
vn 0.5461 -0.1748 -0.8193
vn 0.7812 -0.1727 -0.6000
vn 0.3832 -0.3387 -0.8594
vn 0.2872 -0.5375 -0.7929
vn 0.2055 -0.7287 -0.6533
vn 0.0275 -0.8940 -0.4472
vn -0.9200 -0.1119 0.3756
vn -0.9206 -0.1063 0.3758
vn -0.5635 -0.7934 0.2301
vn -0.5570 -0.7988 0.2274
vn -0.6629 -0.6981 0.2706
vn -0.8243 -0.4553 0.3365
vn -0.9066 -0.2028 0.3701
vn 0.0213 -0.5396 0.8417
vn 0.2755 -0.4552 0.8467
vn 0.3928 -0.6833 0.6155
vn 0.1738 -0.7551 0.6321
vn 0.2927 -0.9263 0.2374
vn 0.3059 -0.8902 0.3377
vn 0.4054 -0.8108 0.4223
vn -0.0978 -0.3273 0.9399
vn 0.2143 -0.2849 0.9343
vn -0.1847 -0.1385 0.9730
vn 0.2471 -0.1519 0.9570
vn -0.2621 -0.1119 0.9585
vn 0.3312 -0.1040 0.9378
vn -0.6533 -0.1404 0.7439
vn -0.8518 -0.1086 0.5125
vn -0.4540 -0.3735 0.8089
vn -0.2290 -0.5944 0.7709
vn 0.0148 -0.8001 0.5997
vn 0.2578 -0.9040 0.3411
vn 0.9809 -0.1813 0.0701
vn 0.9866 -0.1545 0.0531
vn 0.7364 -0.1076 0.6679
vn 0.7203 -0.1181 0.6835
vn 0.8097 -0.1645 -0.5633
vn 0.8062 -0.1297 -0.5772
vn 0.7670 -0.4724 -0.4342
vn 0.7196 -0.4957 -0.4863
vn 0.8449 -0.5014 0.1863
vn 0.8430 -0.4861 0.2303
vn 0.3263 -0.2443 -0.9131
vn 0.2664 -0.2630 -0.9273
vn 0.8609 -0.3822 -0.3360
vn 0.8451 -0.4144 0.3377
vn 0.4748 -0.1944 -0.8584
vn 0.9491 -0.2504 -0.1910
vn 0.8339 -0.2806 0.4752
vn 0.6376 -0.1368 -0.7581
vn 0.9871 -0.1533 -0.0456
vn 0.7917 -0.1521 0.5917
vn 0.7570 -0.1037 -0.6451
vn -0.9254 -0.0148 -0.3787
vn -0.8898 -0.0777 -0.4496
vn -0.8973 -0.0693 -0.4360
vn -0.9296 -0.0103 -0.3685
vn -0.1533 -0.5100 -0.8464
vn -0.1118 -0.5826 -0.8050
vn -0.1137 -0.5827 -0.8047
vn -0.1612 -0.5114 -0.8441
vn -0.3123 -0.4365 -0.8438
vn -0.3324 -0.4370 -0.8358
vn -0.5577 -0.3738 -0.7411
vn -0.5823 -0.3637 -0.7270
vn -0.7734 -0.2183 -0.5951
vn -0.7897 -0.2052 -0.5782
vn 0.6275 0.2256 0.7452
vn 0.6279 0.2202 0.7465
vn 0.6279 0.2200 0.7465
vn 0.3661 0.8692 0.3323
vn 0.3662 0.8691 0.3324
vn 0.3613 0.8736 0.3259
vn 0.4382 0.7877 0.4330
vn 0.4393 0.7862 0.4346
vn 0.5566 0.5636 0.6104
vn 0.5578 0.5602 0.6124
vn 0.6174 0.3172 0.7199
vn 0.6178 0.3145 0.7207
vn -0.6913 0.6571 0.3006
vn -0.4893 0.8351 0.2513
vn -0.3876 0.7698 0.5072
vn -0.5673 0.5816 0.5830
vn -0.1027 0.9803 0.1685
vn -0.2797 0.8876 0.3659
vn -0.2142 0.9545 0.2076
vn -0.6525 0.3586 0.6676
vn -0.8348 0.4359 0.3362
vn -0.5906 0.1715 0.7886
vn -0.8993 0.2609 0.3510
vn -0.5046 0.0927 0.8584
vn -0.9307 0.2559 0.2612
vn -0.9107 0.3067 -0.2768
vn -0.7629 0.2945 -0.5756
vn -0.8789 0.4666 -0.0991
vn -0.7556 0.6548 -0.0172
vn -0.5628 0.8261 0.0286
vn -0.2792 0.9492 0.1455
vn 0.7274 0.6113 -0.3118
vn 0.4493 0.7911 -0.4151
vn 0.3790 0.6939 -0.6122
vn 0.6677 0.5021 -0.5496
vn 0.0110 0.9048 -0.4258
vn 0.1724 0.7983 -0.5771
vn 0.1088 0.8784 -0.4654
vn 0.7932 0.3453 -0.5016
vn 0.8850 0.4171 -0.2067
vn 0.8229 0.2095 -0.5281
vn 0.9644 0.2380 -0.1152
vn 0.7850 0.1513 -0.6008
vn 0.9755 0.2188 -0.0237
vn 0.8753 0.2640 0.4051
vn 0.7044 0.2308 0.6712
vn 0.8560 0.4870 0.1734
vn 0.7255 0.6861 -0.0537
vn 0.4577 0.8508 -0.2582
vn 0.1233 0.8981 -0.4221
vn -0.2123 0.2889 -0.9335
vn 0.4580 0.2375 -0.8566
vn 0.4390 0.2279 -0.8691
vn -0.2368 0.2618 -0.9356
vn -0.7870 0.2077 -0.5809
vn -0.7969 0.1712 -0.5794
vn -0.6559 0.5247 -0.5427
vn -0.0324 0.5942 -0.8037
vn -0.0763 0.6069 -0.7911
vn -0.6990 0.5366 -0.4727
vn -0.9782 0.2074 -0.0075
vn -0.9743 0.2183 0.0554
vn -0.5850 0.4509 -0.6742
vn 0.0756 0.5290 -0.8452
vn -0.9688 0.1790 -0.1717
vn -0.4649 0.3371 -0.8187
vn 0.2188 0.4014 -0.8894
vn -0.9194 0.1479 -0.3645
vn -0.3315 0.2532 -0.9088
vn 0.3483 0.2745 -0.8963
vn -0.8453 0.1361 -0.5166
vn 0.6433 -0.1163 -0.7567
vn 0.6343 -0.1201 -0.7637
vn 0.6964 -0.0651 -0.7147
vn 0.7081 -0.0580 -0.7038
vn 0.9152 0.3949 0.0806
vn 0.9163 0.3938 0.0725
vn 0.8762 0.4719 0.0982
vn 0.8759 0.4720 0.1000
vn 0.9494 0.3079 -0.0620
vn 0.9480 0.3072 -0.0828
vn 0.9189 0.2340 -0.3176
vn 0.9122 0.2228 -0.3440
vn 0.8280 0.0767 -0.5555
vn 0.8154 0.0644 -0.5753
vn 0.0275 0.5588 0.8289
vn 0.0228 0.7559 0.6543
vn 0.2985 0.7167 0.6302
vn 0.3354 0.5110 0.7915
vn 0.0417 0.9539 0.2973
vn 0.1850 0.8426 0.5057
vn 0.0486 0.9122 0.4069
vn 0.4127 0.2858 0.8648
vn 0.0403 0.3288 0.9435
vn 0.5646 0.1161 0.8171
vn 0.0526 0.1514 0.9871
vn 0.6637 0.0525 0.7462
vn -0.0300 0.1389 0.9899
vn -0.5493 0.1749 0.8171
vn -0.7888 0.1735 0.5897
vn -0.3844 0.3387 0.8588
vn -0.2878 0.5374 0.7927
vn -0.2059 0.7286 0.6532
vn -0.0276 0.8939 0.4474
vn 0.9200 0.1119 -0.3756
vn 0.9206 0.1064 -0.3758
vn 0.5635 0.7934 -0.2301
vn 0.5570 0.7988 -0.2274
vn 0.6629 0.6980 -0.2707
vn 0.8243 0.4553 -0.3365
vn 0.9066 0.2029 -0.3701
vn -0.0215 0.5398 -0.8415
vn -0.1739 0.7553 -0.6319
vn -0.3934 0.6830 -0.6154
vn -0.2761 0.4551 -0.8465
vn -0.2927 0.9262 -0.2375
vn -0.4057 0.8106 -0.4223
vn -0.3059 0.8902 -0.3376
vn -0.2152 0.2848 -0.9341
vn 0.0977 0.3275 -0.9398
vn -0.2501 0.1519 -0.9562
vn 0.1844 0.1388 -0.9730
vn -0.3370 0.1041 -0.9357
vn 0.2630 0.1134 -0.9581
vn 0.6558 0.1406 -0.7417
vn 0.8582 0.1095 -0.5015
vn 0.4550 0.3738 -0.8082
vn 0.2295 0.5945 -0.7707
vn -0.0144 0.8000 -0.5998
vn -0.2578 0.9038 -0.3416
vn -0.9809 0.1812 -0.0701
vn -0.7123 0.1164 -0.6921
vn -0.7285 0.1063 -0.6768
vn -0.9865 0.1545 -0.0535
vn -0.8035 0.1635 0.5724
vn -0.8001 0.1287 0.5859
vn -0.7667 0.4722 0.4349
vn -0.8411 0.4844 -0.2407
vn -0.8435 0.4996 -0.1972
vn -0.7193 0.4957 0.4868
vn -0.3161 0.2385 0.9182
vn -0.2563 0.2573 0.9317
vn -0.8608 0.3819 0.3365
vn -0.8414 0.4134 -0.3480
vn -0.4654 0.1898 0.8645
vn -0.9492 0.2501 0.1911
vn -0.8283 0.2801 -0.4852
vn -0.6295 0.1339 0.7654
vn -0.9872 0.1532 0.0454
vn -0.7847 0.1515 -0.6011
vn -0.7502 0.1022 0.6532
vn 0.9254 0.0149 0.3788
vn 0.9295 0.0104 0.3686
vn 0.8973 0.0693 0.4359
vn 0.8899 0.0778 0.4495
vn 0.1534 0.5100 0.8464
vn 0.1613 0.5113 0.8442
vn 0.1137 0.5826 0.8047
vn 0.1119 0.5826 0.8050
vn 0.3123 0.4364 0.8438
vn 0.3323 0.4369 0.8359
vn 0.5576 0.3739 0.7411
vn 0.5823 0.3636 0.7271
vn 0.7734 0.2185 0.5951
vn 0.7897 0.2052 0.5782
vn -0.9023 0.1377 -0.4086
vn -0.9014 0.1580 -0.4030
vn -0.4964 0.1939 -0.8461
vn -0.9793 0.0748 0.1880
vn -0.9888 -0.1489 0.0076
vn -0.9592 -0.2811 0.0288
vn -0.7876 -0.2994 -0.5386
vn -0.7748 -0.1663 -0.6099
vn -0.7562 -0.1466 0.6377
vn -0.8283 -0.1200 0.5474
vn -0.9437 0.0932 -0.3174
vn -0.5689 0.1038 -0.8158
vn -0.9643 0.0196 0.2640
vn -0.1542 -0.0740 -0.9853
vn -0.1684 -0.0594 -0.9839
vn 0.4760 -0.1206 -0.8711
vn -0.7321 0.0325 -0.6804
vn -0.5791 -0.1177 -0.8067
vn -0.7191 -0.2311 -0.6553
vn -0.0437 -0.3440 -0.9380
vn 0.1074 -0.2545 -0.9611
vn -0.9990 -0.0025 -0.0443
vn -0.9672 0.0307 -0.2521
vn -0.2704 -0.0322 -0.9622
vn 0.3946 -0.1516 -0.9063
vn -0.7887 0.0862 -0.6087
vn -0.3526 -0.0454 0.9347
vn -0.3445 -0.0679 0.9363
vn -0.8558 -0.0151 0.5171
vn 0.3093 -0.1029 0.9454
vn 0.0575 -0.5323 0.8446
vn 0.0957 -0.4920 0.8653
vn -0.4965 -0.4318 0.7530
vn -0.5415 -0.4520 0.7089
vn 0.6396 -0.3913 0.6617
vn 0.6247 -0.3841 0.6799
vn -0.0329 -0.5316 0.8463
vn -0.6249 -0.4388 0.6457
vn 0.5670 -0.4296 0.7029
vn -0.1579 -0.4144 0.8963
vn -0.7332 -0.3141 0.6032
vn 0.4869 -0.3642 0.7939
vn -0.2731 -0.2036 0.9402
vn -0.8156 -0.1417 0.5611
vn 0.3894 -0.2155 0.8955
vn 0.9739 -0.0525 -0.2210
vn -0.6774 0.0522 -0.7337
vn -0.6815 0.0496 -0.7302
vn 0.9732 -0.0520 -0.2240
vn -0.2829 -0.0006 0.9592
vn -0.2910 0.0023 0.9567
vn -0.6692 0.2819 -0.6875
vn -0.2942 -0.0924 0.9513
vn 0.2466 -0.8581 0.4504
vn 0.9629 -0.1580 -0.2186
vn -0.6575 0.2108 -0.7234
vn -0.3353 -0.0775 0.9389
vn 0.9562 -0.1007 -0.2748
vn -0.6793 0.0859 -0.7288
vn -0.3105 -0.0096 0.9505
vn 0.9673 -0.0693 -0.2441
vn 0.9019 -0.1378 0.4094
vn 0.4856 -0.1938 0.8524
vn 0.9010 -0.1580 0.4039
vn 0.9775 -0.0732 -0.1980
vn 0.9889 0.1479 -0.0097
vn 0.7685 0.1662 0.6179
vn 0.7822 0.2982 0.5470
vn 0.9593 0.2808 -0.0289
vn 0.7474 0.1428 -0.6489
vn 0.8211 0.1183 -0.5585
vn 0.9428 -0.0937 0.3199
vn 0.5568 -0.1034 0.8242
vn 0.9619 -0.0183 -0.2728
vn 0.1529 0.0741 0.9855
vn -0.4866 0.1215 0.8651
vn 0.1678 0.0594 0.9840
vn 0.7391 -0.0342 0.6727
vn 0.5790 0.1167 0.8069
vn -0.1186 0.2554 0.9595
vn 0.0319 0.3441 0.9384
vn 0.7189 0.2308 0.6557
vn 0.9995 -0.0025 0.0321
vn 0.9699 -0.0339 0.2410
vn 0.2689 0.0324 0.9626
vn -0.4067 0.1533 0.9006
vn 0.7947 -0.0878 0.6006
vn 0.3535 0.0454 -0.9343
vn 0.8601 0.0143 -0.5099
vn 0.3449 0.0678 -0.9362
vn -0.3163 0.1029 -0.9431
vn -0.0591 0.5324 -0.8444
vn 0.5467 0.4503 -0.7059
vn 0.5025 0.4305 -0.7498
vn -0.0973 0.4923 -0.8649
vn -0.6471 0.3879 -0.6563
vn -0.6321 0.3813 -0.6746
vn 0.0323 0.5317 -0.8463
vn 0.6308 0.4367 -0.6415
vn -0.5740 0.4268 -0.6988
vn 0.1576 0.4144 -0.8964
vn 0.7387 0.3120 -0.5975
vn -0.4946 0.3623 -0.7900
vn 0.2735 0.2033 -0.9402
vn 0.8204 0.1404 -0.5543
vn -0.3964 0.2149 -0.8926
vn -0.1140 -0.0188 0.9933
vn -0.1138 -0.0442 0.9925
vn -0.6554 -0.0981 0.7489
vn 0.4610 0.0122 0.8873
vn 0.3155 -0.2987 0.9007
vn 0.4184 -0.3907 0.8200
vn -0.1844 -0.5034 0.8441
vn -0.3189 -0.4080 0.8555
vn 0.8855 -0.1076 0.4519
vn 0.7871 -0.1169 0.6057
vn -0.0112 -0.1398 0.9901
vn -0.5782 -0.2105 0.7883
vn 0.5389 -0.0467 0.8411
vn -0.8961 -0.1165 0.4283
vn -0.8875 -0.1408 0.4387
vn -0.9632 -0.1607 -0.2152
vn -0.4325 -0.0725 0.8987
vn -0.5572 -0.3938 0.7311
vn -0.3788 -0.4636 0.8010
vn -0.7913 -0.5490 0.2691
vn -0.8715 -0.4706 0.1378
vn 0.2002 -0.1696 0.9650
vn 0.0094 -0.1680 0.9857
vn -0.8147 -0.2416 0.5272
vn -0.9471 -0.2909 -0.1358
vn -0.3405 -0.1177 0.9329
vn 0.9964 -0.0564 0.0628
vn 0.9953 -0.0818 0.0515
vn 0.7451 -0.0619 0.6640
vn 0.8134 -0.0778 -0.5765
vn 0.7669 -0.4723 -0.4344
vn 0.7195 -0.4957 -0.4864
vn 0.8445 -0.5009 0.1895
vn 0.8424 -0.4856 0.2334
vn 0.3233 -0.2426 -0.9147
vn 0.2634 -0.2613 -0.9286
vn 0.8608 -0.3821 -0.3361
vn 0.8440 -0.4141 0.3408
vn 0.4719 -0.1930 -0.8602
vn 0.9382 -0.2907 -0.1881
vn 0.8213 -0.3071 0.4808
vn 0.6275 -0.1573 -0.7626
vn 0.9827 -0.1792 -0.0462
vn 0.7821 -0.1772 0.5974
vn 0.7492 -0.1269 -0.6501
vn -0.5001 0.0000 -0.8660
vn -0.5000 -0.0000 0.8660
vn -0.4999 -0.0003 0.8661
vn -0.4999 0.0000 -0.8661
vn 1.0000 -0.0000 -0.0001
vn 1.0000 0.0002 -0.0002
vn -0.4852 0.0258 0.8740
vn 0.9930 0.1184 -0.0020
vn -0.1326 0.9882 -0.0765
vn -0.4876 -0.0981 -0.8675
vn -0.4858 0.0068 0.8740
vn 0.9979 0.0633 0.0148
vn -0.4999 -0.0480 -0.8647
vn -0.4921 -0.0078 0.8705
vn 0.9998 0.0205 0.0002
vn -0.4921 -0.0077 -0.8705
vn 0.1146 0.0188 -0.9932
vn 0.6643 0.0989 -0.7409
vn 0.1146 0.0441 -0.9924
vn -0.4697 -0.0135 -0.8827
vn -0.3171 0.2977 -0.9005
vn 0.3286 0.4087 -0.8514
vn 0.1923 0.5037 -0.8422
vn -0.4207 0.3897 -0.8192
vn -0.8933 0.0985 -0.4385
vn -0.7952 0.1115 -0.5960
vn 0.0130 0.1399 -0.9901
vn 0.5882 0.2112 -0.7806
vn -0.5465 0.0451 -0.8362
vn 0.8967 0.1166 -0.4271
vn 0.9605 0.1604 0.2272
vn 0.8878 0.1406 -0.4382
vn 0.4232 0.0707 -0.9033
vn 0.5562 0.3930 -0.7323
vn 0.8732 0.4702 -0.1279
vn 0.7945 0.5486 -0.2605
vn 0.3772 0.4628 -0.8022
vn -0.2127 0.1614 -0.9637
vn -0.0218 0.1619 -0.9866
vn 0.8157 0.2416 -0.5257
vn 0.9452 0.2906 0.1490
vn 0.3317 0.1154 -0.9363
vn -0.9964 0.0564 -0.0637
vn -0.7395 0.0615 -0.6703
vn -0.9953 0.0817 -0.0519
vn -0.8091 0.0774 0.5825
vn -0.7667 0.4722 0.4350
vn -0.8414 0.4134 -0.3481
vn -0.9382 0.2905 0.1882
vn -0.8174 0.3065 -0.4879
vn -0.6217 0.1550 0.7678
vn -0.9828 0.1790 0.0460
vn -0.7772 0.1767 -0.6040
vn -0.7444 0.1258 0.6558
vn -0.8521 0.1438 0.5032
vn -0.9288 0.2556 -0.2682
vn -0.8469 0.1993 0.4929
vn -0.8174 0.2742 0.5067
vn -0.7930 0.2954 0.5328
vn 0.9247 -0.2562 0.2815
vn 0.9250 -0.2551 0.2815
vn 0.8457 -0.2016 -0.4942
vn 0.8681 -0.1513 -0.4728
vn 0.9254 -0.2537 0.2815
vn 0.9256 -0.2533 0.2813
vn 0.8389 -0.3013 -0.4533
vn 0.8303 -0.2776 -0.4832
vn 0.4245 -0.2086 0.8811
vn -0.3297 -0.0349 0.9434
vn -0.3089 0.0371 0.9504
vn 0.4769 -0.1619 0.8639
vn 0.4868 -0.0845 0.8694
vn -0.2753 0.1440 0.9505
vn -0.2646 0.1766 0.9481
vn 0.4864 -0.0597 0.8717
vn 0.2525 0.0562 -0.9660
vn 0.2306 -0.0193 -0.9728
vn -0.4630 0.1612 -0.8716
vn -0.4833 0.2187 -0.8477
vn 0.1974 -0.1240 -0.9725
vn 0.1867 -0.1551 -0.9701
vn -0.5126 0.0694 -0.8558
vn -0.4968 0.0890 -0.8633
vn 0.9322 -0.2581 0.2539
vn 0.9323 -0.2576 0.2538
vn 0.9328 -0.2559 0.2538
vn 0.9331 -0.2549 0.2538
vn -0.9288 0.2556 -0.2683
vn -0.1838 0.1202 0.9756
vn -0.1731 0.1513 0.9732
vn -0.2172 0.0157 0.9760
vn -0.2391 -0.0598 0.9691
vn 0.2510 -0.1729 -0.9524
vn 0.2619 -0.1403 -0.9548
vn 0.2955 -0.0334 -0.9548
vn 0.3164 0.0387 -0.9478
s 1
f 1/1/1 2/2/2 3/3/3
f 3/3/3 4/4/4 1/1/1
f 5/5/5 6/6/6 7/7/7
f 7/7/7 8/8/8 5/5/5
f 4/4/4 3/3/3 6/6/6
f 6/6/6 5/5/5 4/4/4
s 2
f 9/9/9 10/10/10 11/11/11
f 11/11/11 12/12/12 9/9/9
f 13/13/13 14/14/14 15/15/15
f 15/15/15 16/16/16 13/13/13
f 10/10/10 13/13/13 16/16/16
f 16/16/16 11/11/11 10/10/10
s 3
f 17/17/17 18/18/18 19/19/19
f 19/19/19 20/20/20 17/17/17
f 21/21/21 22/22/22 23/23/23
f 23/23/23 24/24/24 21/21/21
f 20/20/20 19/19/19 22/22/22
f 22/22/22 21/21/21 20/20/20
s 4
f 25/25/25 26/26/26 27/27/27
f 27/27/27 28/28/28 25/25/25
f 29/29/29 30/30/30 31/31/31
f 31/31/31 32/32/32 29/29/29
f 26/26/26 29/29/29 32/32/32
f 32/32/32 27/27/27 26/26/26
s 3
f 21/21/21 24/24/24 33/33/33
f 33/33/33 34/34/34 21/21/21
f 20/20/20 21/21/21 34/34/34
f 34/34/34 35/35/35 20/20/20
f 17/17/17 20/20/20 35/35/35
f 35/35/35 36/36/36 17/17/17
s 4
f 37/37/37 32/32/32 31/31/31
f 31/31/31 38/38/38 37/37/37
f 39/39/39 27/27/27 32/32/32
f 32/32/32 37/37/37 39/39/39
f 40/40/40 28/28/28 27/27/27
f 27/27/27 39/39/39 40/40/40
s 1
f 41/41/41 5/5/5 8/8/8
f 8/8/8 42/42/42 41/41/41
f 43/43/43 4/4/4 5/5/5
f 5/5/5 41/41/41 43/43/43
f 44/44/44 1/1/1 4/4/4
f 4/4/4 43/43/43 44/44/44
s 2
f 16/16/16 15/15/15 45/45/45
f 45/45/45 46/46/46 16/16/16
f 11/11/11 16/16/16 46/46/46
f 46/46/46 47/47/47 11/11/11
f 12/12/12 11/11/11 47/47/47
f 47/47/47 48/48/48 12/12/12
s 5
f 49/49/49 50/50/50 51/51/51
f 51/51/51 52/52/49 49/49/49
f 53/53/52 54/54/53 55/55/53
f 55/55/53 56/56/54 53/53/52
f 57/57/55 53/53/52 56/56/54
f 56/56/54 58/58/56 57/57/55
f 59/59/57 57/57/55 58/58/56
f 58/58/56 60/60/58 59/59/57
f 61/61/59 59/59/57 60/60/58
f 60/60/58 62/62/60 61/61/59
f 50/50/50 61/61/59 62/62/60
f 62/62/60 51/51/51 50/50/50
s 6
f 63/63/61 64/64/62 65/65/63
f 65/65/63 66/66/64 63/63/61
f 67/67/65 68/68/66 69/69/67
f 63/63/61 70/70/68 71/71/69
f 71/71/69 64/64/62 63/63/61
f 70/70/68 72/72/70 73/73/71
f 73/73/71 71/71/69 70/70/68
f 72/72/70 74/74/72 75/75/73
f 75/75/73 73/73/71 72/72/70
f 66/66/64 65/65/63 69/69/67
f 69/69/67 68/68/66 66/66/64
f 76/76/74 77/77/75 74/74/72
f 74/74/72 72/72/70 76/76/74
f 78/78/76 76/76/74 72/72/70
f 72/72/70 70/70/68 78/78/76
f 79/79/77 78/78/76 70/70/68
f 70/70/68 63/63/61 79/79/77
f 79/79/77 63/63/61 66/66/64
f 66/66/64 80/80/78 79/79/77
f 80/80/78 66/66/64 68/68/66
f 68/68/66 81/81/79 80/80/78
f 67/67/65 81/81/79 68/68/66
s 7
f 82/82/80 83/83/81 84/84/82
f 84/84/82 85/85/83 82/82/80
f 86/86/84 87/87/85 88/88/86
f 82/82/80 89/89/87 90/90/88
f 90/90/88 83/83/81 82/82/80
f 89/89/87 91/91/89 92/92/90
f 92/92/90 90/90/88 89/89/87
f 91/91/89 93/93/91 94/94/92
f 94/94/92 92/92/90 91/91/89
f 85/85/83 84/84/82 88/88/86
f 88/88/86 87/87/85 85/85/83
f 95/95/93 96/96/94 93/93/91
f 93/93/91 91/91/89 95/95/93
f 97/97/95 95/95/93 91/91/89
f 91/91/89 89/89/87 97/97/95
f 98/98/96 97/97/95 89/89/87
f 89/89/87 82/82/80 98/98/96
f 98/98/96 82/82/80 85/85/83
f 85/85/83 99/99/97 98/98/96
f 99/99/97 85/85/83 87/87/85
f 87/87/85 100/100/98 99/99/97
f 86/86/84 100/100/98 87/87/85
s 8
f 101/101/99 102/102/100 103/103/101
f 103/103/101 104/104/102 101/101/99
f 105/105/103 106/106/104 102/102/100
f 102/102/100 101/101/99 105/105/103
f 107/107/105 108/108/106 109/109/107
f 109/109/107 110/110/108 107/107/105
f 111/111/109 112/112/110 108/108/106
f 108/108/106 107/107/105 111/111/109
f 113/113/111 107/107/105 110/110/108
f 110/110/108 114/114/112 113/113/111
f 115/115/113 111/111/109 107/107/105
f 107/107/105 113/113/111 115/115/113
f 116/116/114 113/113/111 114/114/112
f 114/114/112 117/117/115 116/116/114
f 118/118/116 115/115/113 113/113/111
f 113/113/111 116/116/114 118/118/116
f 119/119/117 116/116/114 117/117/115
f 117/117/115 120/120/118 119/119/117
f 121/121/119 118/118/116 116/116/114
f 116/116/114 119/119/117 121/121/119
f 102/102/100 119/119/117 120/120/118
f 120/120/118 103/103/101 102/102/100
f 106/106/104 121/121/119 119/119/117
f 119/119/117 102/102/100 106/106/104
s 9
f 122/122/120 123/123/121 124/124/122
f 124/124/122 125/125/123 122/122/120
f 126/126/124 127/127/125 128/128/126
f 128/128/126 129/129/127 126/126/124
f 130/130/128 126/126/124 129/129/127
f 129/129/127 131/131/129 130/130/128
f 132/132/130 130/130/128 131/131/129
f 131/131/129 133/133/131 132/132/130
f 134/134/132 132/132/130 133/133/131
f 133/133/131 135/135/133 134/134/132
f 123/123/121 134/134/132 135/135/133
f 135/135/133 124/124/122 123/123/121
s 10
f 136/136/134 137/137/135 138/138/136
f 138/138/136 139/139/137 136/136/134
f 140/140/138 141/141/139 142/142/140
f 136/136/134 143/143/141 144/144/142
f 144/144/142 137/137/135 136/136/134
f 143/143/141 145/145/143 146/146/144
f 146/146/144 144/144/142 143/143/141
f 145/145/143 147/147/145 148/148/146
f 148/148/146 146/146/144 145/145/143
f 139/139/137 138/138/136 142/142/140
f 142/142/140 141/141/139 139/139/137
f 149/149/147 150/150/148 147/147/145
f 147/147/145 145/145/143 149/149/147
f 151/151/149 149/149/147 145/145/143
f 145/145/143 143/143/141 151/151/149
f 152/152/150 151/151/149 143/143/141
f 143/143/141 136/136/134 152/152/150
f 152/152/150 136/136/134 139/139/137
f 139/139/137 153/153/151 152/152/150
f 153/153/151 139/139/137 141/141/139
f 141/141/139 154/154/152 153/153/151
f 140/140/138 154/154/152 141/141/139
s 11
f 155/155/153 156/156/154 157/157/154
f 157/157/154 158/158/153 155/155/153
f 159/159/155 160/160/156 161/161/156
f 161/161/156 162/162/155 159/159/155
f 163/163/157 159/159/155 162/162/155
f 162/162/155 164/164/157 163/163/157
f 165/165/158 163/163/157 164/164/157
f 164/164/157 166/166/158 165/165/158
f 167/167/159 165/165/158 166/166/158
f 166/166/158 168/168/159 167/167/159
f 156/156/154 167/167/159 168/168/159
f 168/168/159 157/157/154 156/156/154
s 12
f 169/169/160 170/170/161 171/171/162
f 171/171/162 172/172/163 169/169/160
f 173/173/164 174/174/165 175/175/166
f 169/169/160 176/176/167 177/177/168
f 177/177/168 170/170/161 169/169/160
f 176/176/167 178/178/169 179/179/170
f 179/179/170 177/177/168 176/176/167
f 178/178/169 180/180/171 181/181/172
f 181/181/172 179/179/170 178/178/169
f 172/172/163 171/171/162 175/175/166
f 175/175/166 174/174/165 172/172/163
f 182/182/173 183/183/174 180/180/171
f 180/180/171 178/178/169 182/182/173
f 184/184/175 182/182/173 178/178/169
f 178/178/169 176/176/167 184/184/175
f 185/185/176 184/184/175 176/176/167
f 176/176/167 169/169/160 185/185/176
f 185/185/176 169/169/160 172/172/163
f 172/172/163 186/186/177 185/185/176
f 186/186/177 172/172/163 174/174/165
f 174/174/165 187/187/178 186/186/177
f 173/173/164 187/187/178 174/174/165
s 13
f 188/188/179 189/189/180 190/190/181
f 190/190/181 191/191/182 188/188/179
f 192/192/183 193/193/184 189/189/180
f 189/189/180 188/188/179 192/192/183
f 194/194/185 195/195/186 196/196/187
f 196/196/187 197/197/188 194/194/185
f 198/198/189 199/199/190 195/195/186
f 195/195/186 194/194/185 198/198/189
f 200/200/191 194/194/185 197/197/188
f 197/197/188 201/201/192 200/200/191
f 202/202/193 198/198/189 194/194/185
f 194/194/185 200/200/191 202/202/193
f 203/203/194 200/200/191 201/201/192
f 201/201/192 204/204/195 203/203/194
f 205/205/196 202/202/193 200/200/191
f 200/200/191 203/203/194 205/205/196
f 206/206/197 203/203/194 204/204/195
f 204/204/195 207/207/198 206/206/197
f 208/208/199 205/205/196 203/203/194
f 203/203/194 206/206/197 208/208/199
f 189/189/180 206/206/197 207/207/198
f 207/207/198 190/190/181 189/189/180
f 193/193/184 208/208/199 206/206/197
f 206/206/197 189/189/180 193/193/184
s 14
f 209/209/200 210/210/201 211/211/202
f 211/211/202 212/212/203 209/209/200
f 213/213/204 214/214/205 215/215/206
f 215/215/206 216/216/207 213/213/204
f 217/217/208 213/213/204 216/216/207
f 216/216/207 218/218/209 217/217/208
f 219/219/210 217/217/208 218/218/209
f 218/218/209 220/220/211 219/219/210
f 221/221/212 219/219/210 220/220/211
f 220/220/211 222/222/213 221/221/212
f 210/210/201 221/221/212 222/222/213
f 222/222/213 211/211/202 210/210/201
s 15
f 223/223/214 224/224/214 225/225/215
f 225/225/215 226/226/216 223/223/214
f 227/227/217 228/228/218 229/229/219
f 229/229/219 230/230/219 227/227/217
f 231/231/220 232/232/221 228/228/218
f 228/228/218 227/227/217 231/231/220
f 233/233/222 234/234/223 232/232/221
f 232/232/221 231/231/220 233/233/222
f 235/235/224 236/236/225 234/234/223
f 234/234/223 233/233/222 235/235/224
f 226/226/216 225/225/215 236/236/225
f 236/236/225 235/235/224 226/226/216
s 16
f 237/237/226 238/238/227 239/239/228
f 239/239/228 240/240/229 237/237/226
f 241/241/230 242/242/231 243/243/232
f 237/237/226 240/240/229 244/244/233
f 244/244/233 245/245/234 237/237/226
f 245/245/234 244/244/233 246/246/235
f 246/246/235 247/247/236 245/245/234
f 247/247/236 246/246/235 248/248/237
f 248/248/237 249/249/238 247/247/236
f 238/238/227 243/243/232 242/242/231
f 242/242/231 239/239/228 238/238/227
f 250/250/239 247/247/236 249/249/238
f 249/249/238 251/251/240 250/250/239
f 252/252/241 245/245/234 247/247/236
f 247/247/236 250/250/239 252/252/241
f 253/253/242 237/237/226 245/245/234
f 245/245/234 252/252/241 253/253/242
f 253/253/242 254/254/243 238/238/227
f 238/238/227 237/237/226 253/253/242
f 254/254/243 255/255/244 243/243/232
f 243/243/232 238/238/227 254/254/243
f 241/241/230 243/243/232 255/255/244
s 17
f 256/256/245 257/257/246 258/258/247
f 258/258/247 259/259/248 256/256/245
f 260/260/249 261/261/250 262/262/251
f 256/256/245 259/259/248 263/263/252
f 263/263/252 264/264/253 256/256/245
f 264/264/253 263/263/252 265/265/254
f 265/265/254 266/266/255 264/264/253
f 266/266/255 265/265/254 267/267/256
f 267/267/256 268/268/257 266/266/255
f 257/257/246 262/262/251 261/261/250
f 261/261/250 258/258/247 257/257/246
f 269/269/258 266/266/255 268/268/257
f 268/268/257 270/270/259 269/269/258
f 271/271/260 264/264/253 266/266/255
f 266/266/255 269/269/258 271/271/260
f 272/272/261 256/256/245 264/264/253
f 264/264/253 271/271/260 272/272/261
f 272/272/261 273/273/262 257/257/246
f 257/257/246 256/256/245 272/272/261
f 273/273/262 274/274/263 262/262/251
f 262/262/251 257/257/246 273/273/262
f 260/260/249 262/262/251 274/274/263
s 18
f 275/275/264 276/276/265 277/277/266
f 277/277/266 278/278/267 275/275/264
f 279/279/268 275/275/264 278/278/267
f 278/278/267 280/280/269 279/279/268
f 281/281/270 282/282/271 283/283/272
f 283/283/272 284/284/273 281/281/270
f 285/285/274 281/281/270 284/284/273
f 284/284/273 286/286/275 285/285/274
f 287/287/276 288/288/277 282/282/271
f 282/282/271 281/281/270 287/287/276
f 289/289/278 287/287/276 281/281/270
f 281/281/270 285/285/274 289/289/278
f 290/290/279 291/291/280 288/288/277
f 288/288/277 287/287/276 290/290/279
f 292/292/281 290/290/279 287/287/276
f 287/287/276 289/289/278 292/292/281
f 293/293/282 294/294/283 291/291/280
f 291/291/280 290/290/279 293/293/282
f 295/295/284 293/293/282 290/290/279
f 290/290/279 292/292/281 295/295/284
f 278/278/267 277/277/266 294/294/283
f 294/294/283 293/293/282 278/278/267
f 280/280/269 278/278/267 293/293/282
f 293/293/282 295/295/284 280/280/269
s 19
f 296/296/285 297/297/286 298/298/287
f 298/298/287 299/299/288 296/296/285
f 300/300/289 301/301/290 302/302/291
f 302/302/291 303/303/292 300/300/289
f 304/304/293 305/305/294 301/301/290
f 301/301/290 300/300/289 304/304/293
f 306/306/295 307/307/296 305/305/294
f 305/305/294 304/304/293 306/306/295
f 308/308/297 309/309/298 307/307/296
f 307/307/296 306/306/295 308/308/297
f 299/299/288 298/298/287 309/309/298
f 309/309/298 308/308/297 299/299/288
s 20
f 310/310/299 311/311/300 312/312/301
f 312/312/301 313/313/302 310/310/299
f 314/314/303 315/315/304 316/316/305
f 310/310/299 313/313/302 317/317/306
f 317/317/306 318/318/307 310/310/299
f 318/318/307 317/317/306 319/319/308
f 319/319/308 320/320/309 318/318/307
f 320/320/309 319/319/308 321/321/310
f 321/321/310 322/322/311 320/320/309
f 311/311/300 316/316/305 315/315/304
f 315/315/304 312/312/301 311/311/300
f 323/323/312 320/320/309 322/322/311
f 322/322/311 324/324/313 323/323/312
f 325/325/314 318/318/307 320/320/309
f 320/320/309 323/323/312 325/325/314
f 326/326/315 310/310/299 318/318/307
f 318/318/307 325/325/314 326/326/315
f 326/326/315 327/327/316 311/311/300
f 311/311/300 310/310/299 326/326/315
f 327/327/316 328/328/317 316/316/305
f 316/316/305 311/311/300 327/327/316
f 314/314/303 316/316/305 328/328/317
s 21
f 329/329/318 330/330/318 331/331/319
f 331/331/319 332/332/319 329/329/318
f 333/333/320 334/334/320 335/335/321
f 335/335/321 336/336/321 333/333/320
f 337/337/322 338/338/322 334/334/320
f 334/334/320 333/333/320 337/337/322
f 339/339/323 340/340/323 338/338/322
f 338/338/322 337/337/322 339/339/323
f 341/341/324 342/342/324 340/340/323
f 340/340/323 339/339/323 341/341/324
f 332/332/319 331/331/319 342/342/324
f 342/342/324 341/341/324 332/332/319
s 22
f 343/343/325 344/344/326 345/345/327
f 345/345/327 346/346/328 343/343/325
f 347/347/329 348/348/330 349/349/331
f 343/343/325 346/346/328 350/350/332
f 350/350/332 351/351/333 343/343/325
f 351/351/333 350/350/332 352/352/334
f 352/352/334 353/353/335 351/351/333
f 353/353/335 352/352/334 354/354/336
f 354/354/336 355/355/337 353/353/335
f 344/344/326 349/349/331 348/348/330
f 348/348/330 345/345/327 344/344/326
f 356/356/338 353/353/335 355/355/337
f 355/355/337 357/357/339 356/356/338
f 358/358/340 351/351/333 353/353/335
f 353/353/335 356/356/338 358/358/340
f 359/359/341 343/343/325 351/351/333
f 351/351/333 358/358/340 359/359/341
f 359/359/341 360/360/342 344/344/326
f 344/344/326 343/343/325 359/359/341
f 360/360/342 361/361/343 349/349/331
f 349/349/331 344/344/326 360/360/342
f 347/347/329 349/349/331 361/361/343
s 23
f 362/362/344 363/363/345 364/364/346
f 364/364/346 365/365/347 362/362/344
f 366/366/348 362/362/344 365/365/347
f 365/365/347 367/367/349 366/366/348
f 368/368/350 369/369/351 370/370/352
f 370/370/352 371/371/353 368/368/350
f 372/372/354 368/368/350 371/371/353
f 371/371/353 373/373/355 372/372/354
f 374/374/356 375/375/357 369/369/351
f 369/369/351 368/368/350 374/374/356
f 376/376/358 374/374/356 368/368/350
f 368/368/350 372/372/354 376/376/358
f 377/377/359 378/378/360 375/375/357
f 375/375/357 374/374/356 377/377/359
f 379/379/361 377/377/359 374/374/356
f 374/374/356 376/376/358 379/379/361
f 380/380/362 381/381/363 378/378/360
f 378/378/360 377/377/359 380/380/362
f 382/382/364 380/380/362 377/377/359
f 377/377/359 379/379/361 382/382/364
f 365/365/347 364/364/346 381/381/363
f 381/381/363 380/380/362 365/365/347
f 367/367/349 365/365/347 380/380/362
f 380/380/362 382/382/364 367/367/349
s 24
f 383/383/365 384/384/366 385/385/367
f 385/385/367 386/386/368 383/383/365
f 387/387/369 388/388/370 389/389/371
f 389/389/371 390/390/372 387/387/369
f 391/391/373 392/392/374 388/388/370
f 388/388/370 387/387/369 391/391/373
f 393/393/375 394/394/376 392/392/374
f 392/392/374 391/391/373 393/393/375
f 395/395/377 396/396/378 394/394/376
f 394/394/376 393/393/375 395/395/377
f 386/386/368 385/385/367 396/396/378
f 396/396/378 395/395/377 386/386/368
s 25
f 397/397/379 398/398/380 399/399/381
f 400/400/382 398/398/380 397/397/379
f 401/401/383 402/402/384 403/403/385
f 403/403/385 404/404/386 401/401/383
f 405/405/387 402/402/384 401/401/383
f 401/401/383 406/406/388 405/405/387
f 407/407/389 401/401/383 404/404/386
f 404/404/386 408/408/390 407/407/389
f 406/406/388 401/401/383 407/407/389
f 407/407/389 409/409/391 406/406/388
f 398/398/380 407/407/389 408/408/390
f 408/408/390 399/399/381 398/398/380
f 400/400/382 409/409/391 407/407/389
f 407/407/389 398/398/380 400/400/382
s 26
f 410/410/392 411/411/393 412/412/394
f 413/413/395 411/411/393 410/410/392
f 414/414/396 415/415/397 416/416/398
f 416/416/398 417/417/399 414/414/396
f 418/418/400 415/415/397 414/414/396
f 414/414/396 419/419/401 418/418/400
f 420/420/402 414/414/396 417/417/399
f 417/417/399 421/421/403 420/420/402
f 419/419/401 414/414/396 420/420/402
f 420/420/402 422/422/404 419/419/401
f 411/411/393 420/420/402 421/421/403
f 421/421/403 412/412/394 411/411/393
f 413/413/395 422/422/404 420/420/402
f 420/420/402 411/411/393 413/413/395
s 27
f 423/423/405 424/424/406 425/425/407
f 426/426/408 424/424/406 423/423/405
f 427/427/409 428/428/410 429/429/411
f 429/429/411 430/430/412 427/427/409
f 431/431/413 432/432/414 428/428/410
f 428/428/410 427/427/409 431/431/413
f 433/433/415 427/427/409 430/430/412
f 430/430/412 434/434/416 433/433/415
f 435/435/417 431/431/413 427/427/409
f 427/427/409 433/433/415 435/435/417
f 436/436/418 433/433/415 434/434/416
f 434/434/416 437/437/419 436/436/418
f 438/438/420 435/435/417 433/433/415
f 433/433/415 436/436/418 438/438/420
f 439/439/421 436/436/418 437/437/419
f 437/437/419 440/440/422 439/439/421
f 441/441/423 438/438/420 436/436/418
f 436/436/418 439/439/421 441/441/423
f 424/424/406 439/439/421 440/440/422
f 440/440/422 425/425/407 424/424/406
f 426/426/408 441/441/423 439/439/421
f 439/439/421 424/424/406 426/426/408
s 28
f 442/442/424 443/443/425 444/444/426
f 444/444/426 445/445/427 442/442/424
f 443/443/425 446/446/428 447/447/429
f 447/447/429 444/444/426 443/443/425
f 446/446/428 442/448/424 445/449/427
f 445/449/427 447/447/429 446/446/428
f 448/450/430 449/451/431 450/452/432
f 451/453/433 448/450/430 450/452/432
f 449/451/431 451/454/433 450/452/432
f 452/455/434 453/456/435 449/451/431
f 449/451/431 448/450/430 452/455/434
f 454/457/436 452/455/434 448/450/430
f 448/450/430 451/453/433 454/457/436
f 453/456/435 454/458/436 451/454/433
f 451/454/433 449/451/431 453/456/435
f 455/459/437 456/460/438 453/456/435
f 453/456/435 452/455/434 455/459/437
f 457/461/439 455/459/437 452/455/434
f 452/455/434 454/457/436 457/461/439
f 456/460/438 457/462/439 454/458/436
f 454/458/436 453/456/435 456/460/438
f 444/444/426 447/447/429 456/460/438
f 456/460/438 455/459/437 444/444/426
f 445/445/427 444/444/426 455/459/437
f 455/459/437 457/461/439 445/445/427
f 447/447/429 445/449/427 457/462/439
f 457/462/439 456/460/438 447/447/429
s 29
f 458/463/440 459/464/441 460/465/442
f 461/466/443 458/463/440 460/465/442
f 462/467/444 463/468/445 464/469/446
f 464/469/446 465/470/447 462/467/444
f 466/471/448 467/472/449 462/467/444
f 462/467/444 465/470/447 466/471/448
f 468/473/450 469/474/451 463/468/445
f 463/468/445 462/467/444 468/473/450
f 467/472/449 470/475/452 468/473/450
f 468/473/450 462/467/444 467/472/449
f 460/465/442 459/464/441 469/474/451
f 469/474/451 468/473/450 460/465/442
f 461/466/443 460/465/442 468/473/450
f 468/473/450 470/475/452 461/466/443
s 30
f 471/476/453 472/477/454 473/478/455
f 474/479/456 471/476/453 473/478/455
f 475/480/457 476/481/458 477/482/459
f 477/482/459 478/483/460 475/480/457
f 479/484/461 480/485/462 475/480/457
f 475/480/457 478/483/460 479/484/461
f 481/486/463 482/487/464 476/481/458
f 476/481/458 475/480/457 481/486/463
f 480/485/462 483/488/465 481/486/463
f 481/486/463 475/480/457 480/485/462
f 473/478/455 472/477/454 482/487/464
f 482/487/464 481/486/463 473/478/455
f 474/479/456 473/478/455 481/486/463
f 481/486/463 483/488/465 474/479/456
s 31
f 484/489/466 485/490/467 486/491/468
f 487/492/469 484/489/466 486/491/468
f 488/493/470 489/494/471 490/495/472
f 490/495/472 491/496/473 488/493/470
f 492/497/474 488/493/470 491/496/473
f 491/496/473 493/498/475 492/497/474
f 494/499/476 495/500/477 489/494/471
f 489/494/471 488/493/470 494/499/476
f 496/501/478 494/499/476 488/493/470
f 488/493/470 492/497/474 496/501/478
f 497/502/479 498/503/480 495/500/477
f 495/500/477 494/499/476 497/502/479
f 499/504/481 497/502/479 494/499/476
f 494/499/476 496/501/478 499/504/481
f 500/505/482 501/506/483 498/503/480
f 498/503/480 497/502/479 500/505/482
f 502/507/484 500/505/482 497/502/479
f 497/502/479 499/504/481 502/507/484
f 486/491/468 485/490/467 501/506/483
f 501/506/483 500/505/482 486/491/468
f 487/492/469 486/491/468 500/505/482
f 500/505/482 502/507/484 487/492/469
s 32
f 503/508/485 504/509/486 505/510/487
f 506/511/488 504/509/486 503/508/485
f 507/512/489 508/513/490 509/514/491
f 509/514/491 510/515/492 507/512/489
f 511/516/493 508/513/490 507/512/489
f 507/512/489 512/517/494 511/516/493
f 513/518/495 507/512/489 510/515/492
f 510/515/492 514/519/496 513/518/495
f 512/517/494 507/512/489 513/518/495
f 513/518/495 515/520/497 512/517/494
f 504/509/486 513/518/495 514/519/496
f 514/519/496 505/510/487 504/509/486
f 506/511/488 515/520/497 513/518/495
f 513/518/495 504/509/486 506/511/488
s 33
f 516/521/498 517/522/499 518/523/500
f 519/524/501 517/522/499 516/521/498
f 520/525/502 521/526/503 522/527/504
f 522/527/504 523/528/505 520/525/502
f 524/529/506 521/526/503 520/525/502
f 520/525/502 525/530/507 524/529/506
f 526/531/508 520/525/502 523/528/505
f 523/528/505 527/532/509 526/531/508
f 525/530/507 520/525/502 526/531/508
f 526/531/508 528/533/510 525/530/507
f 517/522/499 526/531/508 527/532/509
f 527/532/509 518/523/500 517/522/499
f 519/524/501 528/533/510 526/531/508
f 526/531/508 517/522/499 519/524/501
s 34
f 529/534/511 530/535/512 531/536/513
f 532/537/514 530/535/512 529/534/511
f 533/538/515 534/539/516 535/540/517
f 535/540/517 536/541/518 533/538/515
f 537/542/519 538/543/520 534/539/516
f 534/539/516 533/538/515 537/542/519
f 539/544/521 533/538/515 536/541/518
f 536/541/518 540/545/522 539/544/521
f 541/546/523 537/542/519 533/538/515
f 533/538/515 539/544/521 541/546/523
f 542/547/524 539/544/521 540/545/522
f 540/545/522 543/548/525 542/547/524
f 544/549/526 541/546/523 539/544/521
f 539/544/521 542/547/524 544/549/526
f 545/550/527 542/547/524 543/548/525
f 543/548/525 546/551/528 545/550/527
f 547/552/529 544/549/526 542/547/524
f 542/547/524 545/550/527 547/552/529
f 530/535/512 545/550/527 546/551/528
f 546/551/528 531/536/513 530/535/512
f 532/537/514 547/552/529 545/550/527
f 545/550/527 530/535/512 532/537/514
s 35
f 548/553/530 549/554/531 550/555/532
f 550/555/532 551/556/533 548/553/530
f 549/554/531 552/557/534 553/558/535
f 553/558/535 550/555/532 549/554/531
f 552/557/534 548/559/530 551/560/533
f 551/560/533 553/558/535 552/557/534
f 554/561/536 555/562/537 556/563/538
f 557/564/539 554/561/536 556/563/538
f 555/562/537 557/565/539 556/563/538
f 558/566/540 559/567/541 555/562/537
f 555/562/537 554/561/536 558/566/540
f 560/568/542 558/566/540 554/561/536
f 554/561/536 557/564/539 560/568/542
f 559/567/541 560/569/542 557/565/539
f 557/565/539 555/562/537 559/567/541
f 561/570/543 562/571/544 559/567/541
f 559/567/541 558/566/540 561/570/543
f 563/572/545 561/570/543 558/566/540
f 558/566/540 560/568/542 563/572/545
f 562/571/544 563/573/545 560/569/542
f 560/569/542 559/567/541 562/571/544
f 550/555/532 553/558/535 562/571/544
f 562/571/544 561/570/543 550/555/532
f 551/556/533 550/555/532 561/570/543
f 561/570/543 563/572/545 551/556/533
f 553/558/535 551/560/533 563/573/545
f 563/573/545 562/571/544 553/558/535
s 36
f 564/574/546 565/575/547 566/576/548
f 567/577/549 564/574/546 566/576/548
f 568/578/550 569/579/551 570/580/552
f 570/580/552 571/581/553 568/578/550
f 572/582/554 573/583/555 568/578/550
f 568/578/550 571/581/553 572/582/554
f 574/584/556 575/585/557 569/579/551
f 569/579/551 568/578/550 574/584/556
f 573/583/555 576/586/558 574/584/556
f 574/584/556 568/578/550 573/583/555
f 566/576/548 565/575/547 575/585/557
f 575/585/557 574/584/556 566/576/548
f 567/577/549 566/576/548 574/584/556
f 574/584/556 576/586/558 567/577/549
s 37
f 577/587/559 578/588/560 579/589/561
f 580/590/562 577/587/559 579/589/561
f 581/591/563 582/592/564 583/593/565
f 583/593/565 584/594/566 581/591/563
f 585/595/567 586/596/568 581/591/563
f 581/591/563 584/594/566 585/595/567
f 587/597/569 588/598/570 582/592/564
f 582/592/564 581/591/563 587/597/569
f 586/596/568 589/599/571 587/597/569
f 587/597/569 581/591/563 586/596/568
f 579/589/561 578/588/560 588/598/570
f 588/598/570 587/597/569 579/589/561
f 580/590/562 579/589/561 587/597/569
f 587/597/569 589/599/571 580/590/562
s 38
f 590/600/572 591/601/573 592/602/574
f 593/603/575 590/600/572 592/602/574
f 594/604/576 595/605/351 596/606/352
f 596/606/352 597/607/353 594/604/576
f 598/608/354 594/604/576 597/607/353
f 597/607/353 599/609/355 598/608/354
f 600/610/356 601/611/577 595/605/351
f 595/605/351 594/604/576 600/610/356
f 602/612/358 600/610/356 594/604/576
f 594/604/576 598/608/354 602/612/358
f 603/613/578 604/614/579 601/611/577
f 601/611/577 600/610/356 603/613/578
f 605/615/580 603/613/578 600/610/356
f 600/610/356 602/612/358 605/615/580
f 606/616/581 607/617/582 604/614/579
f 604/614/579 603/613/578 606/616/581
f 608/618/583 606/616/581 603/613/578
f 603/613/578 605/615/580 608/618/583
f 592/602/574 591/601/573 607/617/582
f 607/617/582 606/616/581 592/602/574
f 593/603/575 592/602/574 606/616/581
f 606/616/581 608/618/583 593/603/575
s 39
f 609/619/584 610/620/585 611/621/585
f 611/621/585 612/622/586 609/619/584
f 613/623/587 614/624/585 615/625/585
f 615/625/585 616/626/588 613/623/587
f 612/622/586 611/621/585 614/624/585
f 614/624/585 613/623/587 612/622/586
s 40
f 617/627/589 618/628/590 619/629/591
f 619/629/591 620/630/592 617/627/589
f 621/631/593 622/632/594 623/633/595
f 623/633/595 624/634/596 621/631/593
f 618/628/590 621/631/593 624/634/596
f 624/634/596 619/629/591 618/628/590
s 41
f 625/635/597 626/636/598 627/637/599
f 627/637/599 628/638/600 625/635/597
f 629/639/601 630/640/602 631/641/603
f 631/641/603 632/642/604 629/639/601
f 628/638/600 627/637/599 630/640/602
f 630/640/602 629/639/601 628/638/600
s 42
f 633/643/605 634/644/606 635/645/607
f 635/645/607 636/646/608 633/643/605
f 637/647/609 638/648/610 639/649/611
f 639/649/611 640/650/612 637/647/609
f 634/644/606 637/647/609 640/650/612
f 640/650/612 635/645/607 634/644/606
s 41
f 629/639/601 632/642/604 641/651/613
f 641/651/613 642/652/614 629/639/601
f 628/638/600 629/639/601 642/652/614
f 642/652/614 643/653/615 628/638/600
f 625/635/597 628/638/600 643/653/615
f 643/653/615 644/654/616 625/635/597
s 42
f 645/655/617 640/650/612 639/649/611
f 639/649/611 646/656/617 645/655/617
f 647/657/617 635/645/607 640/650/612
f 640/650/612 645/655/617 647/657/617
f 648/658/617 636/646/608 635/645/607
f 635/645/607 647/657/617 648/658/617
s 39
f 649/659/618 613/623/587 616/626/588
f 616/626/588 650/660/619 649/659/618
f 651/661/620 612/622/586 613/623/587
f 613/623/587 649/659/618 651/661/620
f 652/662/621 609/619/584 612/622/586
f 612/622/586 651/661/620 652/662/621
s 40
f 624/634/596 623/633/595 653/663/622
f 653/663/622 654/664/623 624/634/596
f 619/629/591 624/634/596 654/664/623
f 654/664/623 655/665/624 619/629/591
f 620/630/592 619/629/591 655/665/624
f 655/665/624 656/666/625 620/630/592
