# Blender v3.3.0 OBJ File: ''
# www.blender.org
o RiceStageDead.005
v -0.006370 -0.008390 0.002095
v -0.010897 0.038544 -0.008299
v -0.001153 0.037452 -0.016174
v 0.003374 -0.009482 -0.005780
v -0.077866 0.213337 -0.108998
v -0.105612 0.238580 -0.145907
v -0.095869 0.237488 -0.153782
v -0.068122 0.212245 -0.116873
v -0.050150 0.186962 -0.072013
v -0.040407 0.185870 -0.079889
v -0.028337 0.148094 -0.041058
v -0.018593 0.147004 -0.048934
v -0.016034 0.096279 -0.020550
v -0.006291 0.095188 -0.028425
v 0.065950 0.157366 -0.006424
v 0.049249 0.162997 -0.028343
v 0.088962 0.201180 -0.040831
v 0.107104 0.194093 -0.016241
v 0.202431 0.225712 -0.029570
v 0.156706 0.221267 -0.031545
v 0.135705 0.224247 -0.056840
v 0.035365 0.109987 -0.003483
v 0.020680 0.114816 -0.020157
v 0.011808 0.041578 -0.004785
v -0.000822 0.045978 -0.014956
v 0.001433 -0.009315 -0.005787
v -0.010407 -0.005022 -0.012979
v 0.007555 0.043662 0.013541
v -0.005186 -0.006564 0.004763
v 0.033572 0.111268 0.022524
v 0.066075 0.157957 0.025956
v 0.108106 0.194531 0.019680
v 0.156410 0.215444 0.005855
v -0.040928 0.103340 0.006413
v -0.029549 0.108701 0.025171
v -0.054275 0.137552 0.030322
v -0.068677 0.128533 0.012408
v -0.130647 0.154222 0.035760
v -0.100329 0.150250 0.028092
v -0.082927 0.158017 0.043451
v -0.021099 0.071178 0.007017
v -0.012584 0.073737 0.022850
v -0.007874 0.023864 0.006762
v -0.000875 0.025341 0.018229
v -0.002554 -0.011001 0.005341
v 0.004295 -0.009401 0.014427
v -0.002423 0.026455 -0.007882
v 0.003459 -0.008609 -0.002030
v -0.017779 0.072171 -0.015274
v -0.040908 0.101200 -0.022492
v -0.072383 0.122461 -0.019597
v -0.105808 0.136757 -0.002227
v 0.004150 -0.009994 0.001656
v 0.006127 0.033419 0.014538
v -0.001621 0.035586 0.011366
v -0.003531 -0.007826 -0.001691
v 0.009482 -0.007563 -0.004449
v 0.011335 0.035959 0.008393
v 0.013649 0.237127 0.102595
v 0.025169 0.278948 0.133486
v 0.016892 0.280279 0.135527
v 0.005314 0.238579 0.104222
v 0.015060 0.242730 0.095894
v 0.026236 0.284750 0.126865
v 0.006816 0.193102 0.071581
v -0.001602 0.194810 0.072128
v 0.009137 0.198073 0.064795
v 0.005644 0.143520 0.045666
v -0.002695 0.145509 0.044730
v 0.009154 0.147545 0.038979
v 0.006598 0.089094 0.027748
v -0.001442 0.091211 0.025468
v 0.011182 0.092174 0.021400
v -0.000807 -0.005717 0.009670
v -0.002561 0.041494 -0.000078
v -0.012143 0.039868 -0.009337
v -0.011219 -0.007588 0.001417
v -0.065887 0.277805 0.031219
v -0.103520 0.329641 0.033654
v -0.103193 0.331297 0.020334
v -0.065213 0.278668 0.017778
v -0.039030 0.219016 0.022668
v -0.040226 0.219513 0.009280
v -0.015033 0.161191 0.008119
v -0.019519 0.160910 -0.004555
v -0.004961 0.101339 -0.002388
v -0.012485 0.100283 -0.013470
v 0.010297 0.230260 -0.063570
v -0.025171 0.232618 -0.050100
v -0.029239 0.292759 -0.100338
v 0.010416 0.288936 -0.114817
v 0.027765 0.353452 -0.237997
v 0.007608 0.336464 -0.180650
v -0.033736 0.334038 -0.163394
v 0.006389 0.159390 -0.030376
v -0.021390 0.161451 -0.017510
v 0.001652 0.061706 -0.011226
v -0.016811 0.064048 0.001550
v 0.000892 -0.009248 -0.006195
v -0.013356 -0.006692 0.006743
v 0.023457 0.064514 0.001956
v 0.011599 -0.006542 0.006967
v 0.039233 0.162134 -0.017356
v 0.052251 0.232885 -0.050534
v 0.057343 0.291762 -0.101488
v 0.056537 0.330647 -0.166012
v 0.001562 -0.008074 0.006723
v -0.005293 0.041115 0.009521
v -0.011754 0.041115 -0.006304
v -0.004899 -0.008074 -0.009102
v -0.130423 0.237052 0.060607
v -0.184383 0.269881 0.082637
v -0.190844 0.269881 0.066812
v -0.136884 0.237052 0.044782
v -0.076555 0.203055 0.038615
v -0.083016 0.203055 0.022790
v -0.034964 0.157726 0.021635
v -0.041424 0.157726 0.005809
v -0.012872 0.101535 0.012615
v -0.019333 0.101535 -0.003210
v -0.000991 0.150547 0.042966
v 0.028276 0.153288 0.034918
v 0.029241 0.196445 0.065728
v -0.000539 0.189276 0.078445
v 0.009676 0.233363 0.165044
v 0.010619 0.222931 0.123174
v 0.038072 0.228125 0.105696
v 0.003280 0.103205 0.021149
v 0.027306 0.103098 0.015998
v 0.002055 0.036888 0.009323
v 0.019675 0.036155 0.004559
v -0.002119 -0.010941 0.005871
v 0.012345 -0.011193 0.000358
v -0.014511 0.041020 -0.003716
v -0.009038 -0.008053 -0.005017
v -0.024242 0.106519 0.008055
v -0.038754 0.151080 0.031916
v -0.044231 0.185615 0.071454
v -0.032492 0.209428 0.119974
v -0.007837 -0.005730 0.009342
v -0.006066 0.040395 0.001091
v -0.001631 0.038168 -0.007536
v -0.004262 -0.008365 0.000400
v -0.065005 0.259284 -0.059140
v -0.080206 0.304535 -0.089780
v -0.071043 0.307008 -0.092842
v -0.055601 0.261040 -0.061912
v -0.047314 0.206294 -0.036676
v -0.038333 0.207454 -0.040691
v -0.026202 0.154243 -0.017677
v -0.018383 0.154185 -0.023719
v -0.010828 0.098208 -0.007144
v -0.004721 0.096910 -0.014833
v -0.006005 -0.008258 0.002529
v 0.003739 -0.009350 -0.005346
v -0.000787 0.037580 -0.015739
v -0.010531 0.038672 -0.007864
v -0.077653 0.213843 -0.108804
v -0.067909 0.212751 -0.116679
v -0.095658 0.237997 -0.153592
v -0.105402 0.239089 -0.145718
v -0.049895 0.187420 -0.071761
v -0.040151 0.186328 -0.079636
v -0.028013 0.148422 -0.040702
v -0.018269 0.147330 -0.048577
v -0.015675 0.096463 -0.020130
v -0.005931 0.095371 -0.028005
v 0.065550 0.157752 -0.006250
v 0.106827 0.194581 -0.016086
v 0.088725 0.201628 -0.040544
v 0.048922 0.163330 -0.027994
v 0.202371 0.226283 -0.029472
v 0.135548 0.224764 -0.056622
v 0.156584 0.221823 -0.031423
v 0.020310 0.115019 -0.019757
v 0.034879 0.110246 -0.003294
v -0.001169 0.046081 -0.014499
v 0.011281 0.041742 -0.004600
v -0.010722 -0.004956 -0.012493
v 0.000892 -0.009181 -0.005617
v 0.007021 0.043838 0.013391
v -0.005704 -0.006423 0.004538
v 0.033059 0.111538 0.022468
v 0.065637 0.158340 0.025943
v 0.107780 0.195013 0.019698
v 0.156221 0.215992 0.005912
v -0.040524 0.103715 0.006226
v -0.068433 0.128997 0.012156
v -0.054055 0.137956 0.029966
v -0.029181 0.109006 0.024839
v -0.130641 0.154749 0.035512
v -0.082823 0.158482 0.043117
v -0.100260 0.150762 0.027824
v -0.012126 0.073931 0.022548
v -0.020583 0.071420 0.006896
v -0.000400 0.025460 0.017915
v -0.007313 0.024007 0.006703
v 0.004762 -0.009306 0.014094
v -0.001984 -0.010887 0.005308
v -0.001898 0.026599 -0.007675
v 0.003956 -0.008511 -0.001744
v -0.017269 0.072438 -0.015193
v -0.040491 0.101605 -0.022522
v -0.072097 0.122951 -0.019726
v -0.105664 0.137283 -0.002431
v 0.004021 -0.009827 0.001113
v -0.003269 -0.007688 -0.002192
v -0.001379 0.035718 0.010853
v 0.005981 0.033569 0.013995
v 0.009022 -0.007444 -0.004784
v 0.010866 0.036056 0.008062
v 0.013276 0.237438 0.102274
v 0.005302 0.238926 0.103755
v 0.016858 0.280633 0.135065
v 0.024771 0.279266 0.133205
v 0.014492 0.242857 0.095882
v 0.025670 0.284886 0.126889
v 0.006484 0.193368 0.071185
v -0.001559 0.195119 0.071637
v 0.008574 0.198179 0.064689
v 0.005377 0.143717 0.045188
v -0.002579 0.145743 0.044210
v 0.008618 0.147628 0.038766
v 0.006401 0.089240 0.027220
v -0.001254 0.091370 0.024941
v 0.010686 0.092249 0.021105
v -0.000418 -0.005762 0.009242
v -0.010829 -0.007634 0.000988
v -0.011726 0.039841 -0.009741
v -0.002141 0.041469 -0.000479
v -0.065352 0.277977 0.031247
v -0.064679 0.278839 0.017805
v -0.102682 0.331502 0.020388
v -0.103009 0.329846 0.033708
v -0.038480 0.219151 0.022613
v -0.039676 0.219648 0.009220
v -0.014499 0.161292 0.007931
v -0.018987 0.161008 -0.004753
v -0.004475 0.101371 -0.002707
v -0.012004 0.100311 -0.013796
v 0.010313 0.230588 -0.063090
v 0.010439 0.289379 -0.114440
v -0.029076 0.293173 -0.099964
v -0.024965 0.232911 -0.049640
v 0.027789 0.354007 -0.237824
v -0.033622 0.334530 -0.163104
v 0.007638 0.336995 -0.180414
v -0.021135 0.161613 -0.017013
v 0.006405 0.159587 -0.029828
v -0.016485 0.064118 0.002028
v 0.001661 0.061804 -0.010652
v -0.012991 -0.006652 0.007194
v 0.000892 -0.009181 -0.005617
v 0.023146 0.064614 0.002438
v 0.011226 -0.006478 0.007409
v 0.039010 0.162330 -0.016855
v 0.052081 0.233200 -0.050075
v 0.057225 0.292187 -0.101109
v 0.056488 0.331158 -0.165737
v 0.002097 -0.008025 0.006504
v -0.004363 -0.008025 -0.009321
v -0.011218 0.041162 -0.006523
v -0.004757 0.041162 0.009303
v -0.130095 0.237398 0.060473
v -0.136556 0.237398 0.044648
v -0.190519 0.270229 0.066679
v -0.184059 0.270229 0.082505
v -0.076169 0.203359 0.038457
v -0.082630 0.203359 0.022632
v -0.034484 0.157924 0.021439
v -0.040944 0.157924 0.005614
v -0.012344 0.101623 0.012400
v -0.018805 0.101623 -0.003425
v -0.001012 0.150882 0.042490
v -0.000655 0.189722 0.078089
v 0.029012 0.196843 0.065370
v 0.028101 0.153569 0.034439
v 0.009505 0.233902 0.164905
v 0.037838 0.228596 0.105447
v 0.010446 0.223449 0.122972
v 0.027169 0.103258 0.015456
v 0.003337 0.103394 0.020602
v 0.019521 0.036242 0.004004
v 0.002172 0.036973 0.008759
v 0.012168 -0.011127 -0.000193
v -0.001984 -0.010887 0.005308
v -0.014153 0.041093 -0.004169
v -0.008617 -0.008028 -0.005418
v -0.023995 0.106721 0.007568
v -0.038620 0.151432 0.031472
v -0.044215 0.186072 0.071093
v -0.032582 0.209944 0.119720
v -0.007306 -0.005714 0.009580
v -0.003731 -0.008349 0.000638
v -0.001117 0.038211 -0.007268
v -0.005554 0.040442 0.001364
v -0.064897 0.259582 -0.058652
v -0.055493 0.261339 -0.061424
v -0.070973 0.307347 -0.092375
v -0.080137 0.304874 -0.089312
v -0.047114 0.206551 -0.036193
v -0.038129 0.207710 -0.040209
v -0.025875 0.154461 -0.017248
v -0.018046 0.154397 -0.023294
v -0.010381 0.098333 -0.006792
v -0.004268 0.097029 -0.014488
v 0.010363 0.125266 0.001028
v 0.014093 0.156252 -0.002668
v 0.020210 0.156910 0.000553
v 0.009694 0.157800 0.002118
v 0.038705 0.273272 -0.017296
v 0.039889 0.342162 -0.051079
v 0.046891 0.342571 -0.051662
v 0.045717 0.273638 -0.016690
v 0.039628 0.345192 -0.043576
v 0.037102 0.275664 -0.010538
v 0.020574 0.195848 -0.005693
v 0.027043 0.196360 -0.003021
v 0.016776 0.197571 -0.000444
v 0.006256 0.058389 0.004794
v 0.010231 0.103660 0.009236
v 0.005168 0.106091 0.000952
v 0.019523 0.104484 0.006348
v 0.009293 0.309988 0.123648
v 0.008872 0.355602 0.158280
v 0.000006 0.358873 0.155003
v 0.000727 0.313505 0.120159
v 0.016528 0.314013 0.119828
v 0.015913 0.359527 0.154777
v 0.011085 0.265265 0.082454
v 0.003306 0.268855 0.078286
v 0.019033 0.268603 0.078830
v 0.012221 0.216188 0.044313
v 0.005426 0.219612 0.038542
v 0.020756 0.218554 0.040570
v 0.013130 0.161062 0.017505
v 0.007284 0.163942 0.010061
v 0.022081 0.162448 0.014099
v 0.010418 0.125290 0.001379
v 0.020047 0.156954 0.000866
v 0.014159 0.156274 -0.002318
v 0.009963 0.157791 0.002352
v 0.038904 0.273336 -0.016968
v 0.045691 0.273740 -0.016318
v 0.046917 0.342703 -0.051257
v 0.040138 0.342262 -0.050758
v 0.039991 0.345213 -0.043479
v 0.037441 0.275662 -0.010428
v 0.020689 0.195884 -0.005354
v 0.026927 0.196433 -0.002689
v 0.017075 0.197561 -0.000244
v 0.006383 0.058405 0.004461
v 0.005468 0.106095 0.000760
v 0.010347 0.103683 0.008901
v 0.019404 0.104518 0.006015
v 0.009266 0.310163 0.123414
v 0.000939 0.313646 0.119990
v 0.000211 0.359004 0.154845
v 0.008830 0.355765 0.158075
v 0.016269 0.314142 0.119645
v 0.015646 0.359648 0.154622
v 0.011099 0.265413 0.082195
v 0.003545 0.268979 0.078109
v 0.018809 0.268714 0.078616
v 0.012275 0.216300 0.044007
v 0.005691 0.219702 0.038343
v 0.020570 0.218647 0.040291
v 0.013220 0.161125 0.017169
v 0.007571 0.163987 0.009857
v 0.021935 0.162509 0.013783
v 0.004768 0.050684 0.000544
v 0.007897 0.090801 -0.000919
v 0.001476 0.092564 0.006506
v 0.002440 0.091939 -0.008891
v 0.089510 0.283266 0.003454
v 0.123325 0.324194 -0.002834
v 0.122618 0.326005 0.006966
v 0.088319 0.285130 0.013182
v 0.081834 0.287145 -0.000660
v 0.115598 0.328275 -0.006561
v 0.057409 0.240154 0.004504
v 0.054963 0.242099 0.013949
v 0.050007 0.243434 -0.000609
v 0.033712 0.192604 0.001197
v 0.029605 0.194586 0.010044
v 0.026923 0.195035 -0.005153
v 0.015030 0.141860 -0.001512
v 0.009506 0.143738 0.006548
v 0.009081 0.143473 -0.008892
v 0.004413 0.050699 0.000522
v 0.001205 0.092580 0.006276
v 0.007543 0.090822 -0.000931
v 0.002156 0.091959 -0.008678
v 0.089235 0.283394 0.003602
v 0.088021 0.285259 0.013093
v 0.122319 0.326138 0.006889
v 0.123066 0.324328 -0.002667
v 0.081717 0.287211 -0.000335
v 0.115501 0.328347 -0.006232
v 0.057101 0.240258 0.004619
v 0.054664 0.242210 0.013826
v 0.049838 0.243485 -0.000303
v 0.033377 0.192681 0.001263
v 0.029310 0.194668 0.009876
v 0.026700 0.195076 -0.004880
v 0.014680 0.141907 -0.001493
v 0.009225 0.143785 0.006339
v 0.008819 0.143504 -0.008654
vt 0.708400 0.085200
vt 0.708400 0.211700
vt 0.749700 0.211700
vt 0.749700 0.085200
vt 0.708400 0.842300
vt 0.708400 0.958400
vt 0.749700 0.958400
vt 0.749700 0.842300
vt 0.708400 0.684600
vt 0.749700 0.684600
vt 0.708400 0.527000
vt 0.749700 0.527000
vt 0.708400 0.369400
vt 0.749700 0.369400
vt 0.876900 0.564200
vt 0.790700 0.563400
vt 0.780700 0.699800
vt 0.877200 0.698200
vt 0.924700 0.998000
vt 0.875300 0.863800
vt 0.764900 0.854600
vt 0.867300 0.413700
vt 0.800100 0.412600
vt 0.855700 0.215700
vt 0.811400 0.216500
vt 0.853800 0.077800
vt 0.819900 0.081900
vt 0.908200 0.217300
vt 0.879100 0.082000
vt 0.947000 0.413900
vt 0.978900 0.564100
vt 0.991500 0.698400
vt 0.985000 0.849100
vt 0.876900 0.564200
vt 0.790700 0.563400
vt 0.780700 0.699800
vt 0.877200 0.698200
vt 0.924700 0.998000
vt 0.875300 0.863800
vt 0.764900 0.854600
vt 0.867300 0.413700
vt 0.800100 0.412600
vt 0.855700 0.215700
vt 0.811400 0.216500
vt 0.853800 0.077800
vt 0.819900 0.081900
vt 0.908200 0.217300
vt 0.879100 0.082000
vt 0.947000 0.413900
vt 0.978900 0.564100
vt 0.991500 0.698400
vt 0.985000 0.849100
vt 0.728600 0.085200
vt 0.728600 0.204800
vt 0.749700 0.204800
vt 0.749700 0.085200
vt 0.708400 0.085200
vt 0.708400 0.204800
vt 0.728600 0.807700
vt 0.728600 0.958400
vt 0.749700 0.958400
vt 0.749700 0.807700
vt 0.708400 0.807700
vt 0.708400 0.958400
vt 0.728600 0.656900
vt 0.749700 0.656900
vt 0.708400 0.656900
vt 0.728600 0.506200
vt 0.749700 0.506200
vt 0.708400 0.506200
vt 0.728600 0.355500
vt 0.749700 0.355500
vt 0.708400 0.355500
vt 0.708400 0.085200
vt 0.708400 0.211700
vt 0.749700 0.211700
vt 0.749700 0.085200
vt 0.708400 0.842300
vt 0.708400 0.958400
vt 0.749700 0.958400
vt 0.749700 0.842300
vt 0.708400 0.684600
vt 0.749700 0.684600
vt 0.708400 0.527000
vt 0.749700 0.527000
vt 0.708400 0.369400
vt 0.749700 0.369400
vt 0.876900 0.564200
vt 0.790700 0.563400
vt 0.780700 0.699800
vt 0.877200 0.698200
vt 0.924700 0.998000
vt 0.875300 0.863800
vt 0.764900 0.854600
vt 0.867300 0.413700
vt 0.800100 0.412600
vt 0.855700 0.215700
vt 0.811400 0.216500
vt 0.853800 0.077800
vt 0.819900 0.081900
vt 0.908200 0.217300
vt 0.879100 0.082000
vt 0.947000 0.413900
vt 0.978900 0.564100
vt 0.991500 0.698400
vt 0.985000 0.849100
vt 0.708400 0.085200
vt 0.708400 0.211700
vt 0.749700 0.211700
vt 0.749700 0.085200
vt 0.708400 0.842300
vt 0.708400 0.958400
vt 0.749700 0.958400
vt 0.749700 0.842300
vt 0.708400 0.684600
vt 0.749700 0.684600
vt 0.708400 0.527000
vt 0.749700 0.527000
vt 0.708400 0.369400
vt 0.749700 0.369400
vt 0.876900 0.564200
vt 0.790700 0.563400
vt 0.780700 0.699800
vt 0.877200 0.698200
vt 0.924700 0.998000
vt 0.875300 0.863800
vt 0.764900 0.854600
vt 0.867300 0.413700
vt 0.800100 0.412600
vt 0.855700 0.215700
vt 0.811400 0.216500
vt 0.853800 0.077800
vt 0.819900 0.081900
vt 0.908200 0.217300
vt 0.879100 0.082000
vt 0.947000 0.413900
vt 0.978900 0.564100
vt 0.991500 0.698400
vt 0.985000 0.849100
vt 0.708400 0.085200
vt 0.708400 0.211700
vt 0.749700 0.211700
vt 0.749700 0.085200
vt 0.708400 0.842300
vt 0.708400 0.958400
vt 0.749700 0.958400
vt 0.749700 0.842300
vt 0.708400 0.684600
vt 0.749700 0.684600
vt 0.708400 0.527000
vt 0.749700 0.527000
vt 0.708400 0.369400
vt 0.749700 0.369400
vt 0.708400 0.085200
vt 0.749700 0.085200
vt 0.749700 0.211700
vt 0.708400 0.211700
vt 0.708400 0.842300
vt 0.749700 0.842300
vt 0.749700 0.958400
vt 0.708400 0.958400
vt 0.708400 0.684600
vt 0.749700 0.684600
vt 0.708400 0.527000
vt 0.749700 0.527000
vt 0.708400 0.369400
vt 0.749700 0.369400
vt 0.876900 0.564200
vt 0.877200 0.698200
vt 0.780700 0.699800
vt 0.790700 0.563400
vt 0.924700 0.998000
vt 0.764900 0.854600
vt 0.875300 0.863800
vt 0.800100 0.412600
vt 0.867300 0.413700
vt 0.811400 0.216500
vt 0.855700 0.215700
vt 0.819900 0.081900
vt 0.853800 0.077800
vt 0.908200 0.217300
vt 0.879100 0.082000
vt 0.947000 0.413900
vt 0.978900 0.564100
vt 0.991500 0.698400
vt 0.985000 0.849100
vt 0.876900 0.564200
vt 0.877200 0.698200
vt 0.780700 0.699800
vt 0.790700 0.563400
vt 0.924700 0.998000
vt 0.764900 0.854600
vt 0.875300 0.863800
vt 0.800100 0.412600
vt 0.867300 0.413700
vt 0.811400 0.216500
vt 0.855700 0.215700
vt 0.819900 0.081900
vt 0.853800 0.077800
vt 0.908200 0.217300
vt 0.879100 0.082000
vt 0.947000 0.413900
vt 0.978900 0.564100
vt 0.991500 0.698400
vt 0.985000 0.849100
vt 0.728600 0.085200
vt 0.749700 0.085200
vt 0.749700 0.204800
vt 0.728600 0.204800
vt 0.708400 0.085200
vt 0.708400 0.204800
vt 0.728600 0.807700
vt 0.749700 0.807700
vt 0.749700 0.958400
vt 0.728600 0.958400
vt 0.708400 0.807700
vt 0.708400 0.958400
vt 0.728600 0.656900
vt 0.749700 0.656900
vt 0.708400 0.656900
vt 0.728600 0.506200
vt 0.749700 0.506200
vt 0.708400 0.506200
vt 0.728600 0.355500
vt 0.749700 0.355500
vt 0.708400 0.355500
vt 0.708400 0.085200
vt 0.749700 0.085200
vt 0.749700 0.211700
vt 0.708400 0.211700
vt 0.708400 0.842300
vt 0.749700 0.842300
vt 0.749700 0.958400
vt 0.708400 0.958400
vt 0.708400 0.684600
vt 0.749700 0.684600
vt 0.708400 0.527000
vt 0.749700 0.527000
vt 0.708400 0.369400
vt 0.749700 0.369400
vt 0.876900 0.564200
vt 0.877200 0.698200
vt 0.780700 0.699800
vt 0.790700 0.563400
vt 0.924700 0.998000
vt 0.764900 0.854600
vt 0.875300 0.863800
vt 0.800100 0.412600
vt 0.867300 0.413700
vt 0.811400 0.216500
vt 0.855700 0.215700
vt 0.819900 0.081900
vt 0.853800 0.077800
vt 0.908200 0.217300
vt 0.879100 0.082000
vt 0.947000 0.413900
vt 0.978900 0.564100
vt 0.991500 0.698400
vt 0.985000 0.849100
vt 0.708400 0.085200
vt 0.749700 0.085200
vt 0.749700 0.211700
vt 0.708400 0.211700
vt 0.708400 0.842300
vt 0.749700 0.842300
vt 0.749700 0.958400
vt 0.708400 0.958400
vt 0.708400 0.684600
vt 0.749700 0.684600
vt 0.708400 0.527000
vt 0.749700 0.527000
vt 0.708400 0.369400
vt 0.749700 0.369400
vt 0.876900 0.564200
vt 0.877200 0.698200
vt 0.780700 0.699800
vt 0.790700 0.563400
vt 0.924700 0.998000
vt 0.764900 0.854600
vt 0.875300 0.863800
vt 0.800100 0.412600
vt 0.867300 0.413700
vt 0.811400 0.216500
vt 0.855700 0.215700
vt 0.819900 0.081900
vt 0.853800 0.077800
vt 0.908200 0.217300
vt 0.879100 0.082000
vt 0.947000 0.413900
vt 0.978900 0.564100
vt 0.991500 0.698400
vt 0.985000 0.849100
vt 0.708400 0.085200
vt 0.749700 0.085200
vt 0.749700 0.211700
vt 0.708400 0.211700
vt 0.708400 0.842300
vt 0.749700 0.842300
vt 0.749700 0.958400
vt 0.708400 0.958400
vt 0.708400 0.684600
vt 0.749700 0.684600
vt 0.708400 0.527000
vt 0.749700 0.527000
vt 0.708400 0.369400
vt 0.749700 0.369400
vt 0.728600 0.445300
vt 0.728600 0.510300
vt 0.749700 0.510300
vt 0.708400 0.510300
vt 0.728600 0.750500
vt 0.728600 0.958400
vt 0.749700 0.958400
vt 0.749700 0.750500
vt 0.708400 0.958400
vt 0.708400 0.750500
vt 0.728600 0.590400
vt 0.749700 0.590400
vt 0.708400 0.590400
vt 0.728600 0.351700
vt 0.728600 0.416700
vt 0.749700 0.416700
vt 0.708400 0.416700
vt 0.728600 0.807700
vt 0.728600 0.958400
vt 0.749700 0.958400
vt 0.749700 0.807700
vt 0.708400 0.807700
vt 0.708400 0.958400
vt 0.728600 0.656900
vt 0.749700 0.656900
vt 0.708400 0.656900
vt 0.728600 0.576900
vt 0.749700 0.576900
vt 0.708400 0.576900
vt 0.728600 0.496800
vt 0.749700 0.496800
vt 0.708400 0.496800
vt 0.728600 0.445300
vt 0.749700 0.510300
vt 0.728600 0.510300
vt 0.708400 0.510300
vt 0.728600 0.750500
vt 0.749700 0.750500
vt 0.749700 0.958400
vt 0.728600 0.958400
vt 0.708400 0.958400
vt 0.708400 0.750500
vt 0.728600 0.590400
vt 0.749700 0.590400
vt 0.708400 0.590400
vt 0.728600 0.351700
vt 0.749700 0.416700
vt 0.728600 0.416700
vt 0.708400 0.416700
vt 0.728600 0.807700
vt 0.749700 0.807700
vt 0.749700 0.958400
vt 0.728600 0.958400
vt 0.708400 0.807700
vt 0.708400 0.958400
vt 0.728600 0.656900
vt 0.749700 0.656900
vt 0.708400 0.656900
vt 0.728600 0.576900
vt 0.749700 0.576900
vt 0.708400 0.576900
vt 0.728600 0.496800
vt 0.749700 0.496800
vt 0.708400 0.496800
vt 0.728600 0.351700
vt 0.728600 0.416700
vt 0.749700 0.416700
vt 0.708400 0.416700
vt 0.728600 0.807700
vt 0.728600 0.958400
vt 0.749700 0.958400
vt 0.749700 0.807700
vt 0.708400 0.807700
vt 0.708400 0.958400
vt 0.728600 0.656900
vt 0.749700 0.656900
vt 0.708400 0.656900
vt 0.728600 0.576900
vt 0.749700 0.576900
vt 0.708400 0.576900
vt 0.728600 0.496800
vt 0.749700 0.496800
vt 0.708400 0.496800
vt 0.728600 0.351700
vt 0.749700 0.416700
vt 0.728600 0.416700
vt 0.708400 0.416700
vt 0.728600 0.807700
vt 0.749700 0.807700
vt 0.749700 0.958400
vt 0.728600 0.958400
vt 0.708400 0.807700
vt 0.708400 0.958400
vt 0.728600 0.656900
vt 0.749700 0.656900
vt 0.708400 0.656900
vt 0.728600 0.576900
vt 0.749700 0.576900
vt 0.708400 0.576900
vt 0.728600 0.496800
vt 0.749700 0.496800
vt 0.708400 0.496800
vn -0.6275 -0.2256 -0.7452
vn -0.6280 -0.2200 -0.7465
vn -0.6280 -0.2202 -0.7465
vn -0.3660 -0.8693 -0.3323
vn -0.3613 -0.8736 -0.3259
vn -0.3661 -0.8692 -0.3324
vn -0.4382 -0.7877 -0.4329
vn -0.4394 -0.7862 -0.4345
vn -0.5565 -0.5636 -0.6105
vn -0.5577 -0.5602 -0.6125
vn -0.6174 -0.3172 -0.7199
vn -0.6178 -0.3144 -0.7208
vn 0.6914 -0.6570 -0.3006
vn 0.5678 -0.5819 -0.5822
vn 0.3879 -0.7701 -0.5065
vn 0.4895 -0.8350 -0.2513
vn 0.1026 -0.9803 -0.1685
vn 0.2144 -0.9544 -0.2078
vn 0.2797 -0.8877 -0.3657
vn 0.8350 -0.4357 -0.3361
vn 0.6538 -0.3591 -0.6660
vn 0.8997 -0.2606 -0.3503
vn 0.5951 -0.1726 -0.7849
vn 0.9310 -0.2536 -0.2626
vn 0.5135 -0.0948 -0.8529
vn 0.9122 -0.3066 0.2718
vn 0.7731 -0.2943 0.5618
vn 0.8791 -0.4666 0.0972
vn 0.7555 -0.6549 0.0162
vn 0.5626 -0.8262 -0.0293
vn 0.2788 -0.9492 -0.1456
vn -0.7277 -0.6110 0.3116
vn -0.6681 -0.5023 0.5489
vn -0.3793 -0.6944 0.6115
vn -0.4496 -0.7910 0.4150
vn -0.0109 -0.9048 0.4257
vn -0.1089 -0.8784 0.4654
vn -0.1725 -0.7986 0.5767
vn -0.8852 -0.4168 0.2068
vn -0.7938 -0.3455 0.5005
vn -0.9645 -0.2376 0.1148
vn -0.8251 -0.2099 0.5245
vn -0.9759 -0.2168 0.0251
vn -0.7900 -0.1521 0.5940
vn -0.8773 -0.2637 -0.4009
vn -0.7162 -0.2301 -0.6589
vn -0.8566 -0.4865 -0.1719
vn -0.7256 -0.6860 0.0543
vn -0.4573 -0.8509 0.2587
vn -0.1226 -0.8983 0.4219
vn 0.2125 -0.2890 0.9334
vn 0.2374 -0.2617 0.9355
vn -0.4242 -0.2300 0.8759
vn -0.4439 -0.2401 0.8633
vn 0.7775 -0.2108 0.5925
vn 0.7880 -0.1742 0.5906
vn 0.6552 -0.5250 0.5432
vn 0.6986 -0.5366 0.4733
vn 0.0914 -0.6085 0.7883
vn 0.0466 -0.5957 0.8019
vn 0.9760 -0.2168 0.0211
vn 0.9729 -0.2274 -0.0425
vn 0.5844 -0.4514 0.6743
vn -0.0608 -0.5300 0.8458
vn 0.9648 -0.1871 0.1850
vn 0.4648 -0.3375 0.8185
vn -0.2036 -0.4020 0.8927
vn 0.9133 -0.1535 0.3771
vn 0.3319 -0.2534 0.9086
vn -0.3335 -0.2754 0.9016
vn 0.8377 -0.1397 0.5280
vn -0.6431 0.1529 0.7504
vn -0.7095 0.0782 0.7004
vn -0.6939 0.0861 0.7149
vn -0.6307 0.1598 0.7594
vn -0.8632 -0.4991 -0.0763
vn -0.8078 -0.5822 -0.0922
vn -0.8082 -0.5820 -0.0903
vn -0.8677 -0.4926 -0.0662
vn -0.9158 -0.3975 0.0577
vn -0.9143 -0.3964 0.0835
vn -0.9008 -0.3065 0.3076
vn -0.8938 -0.2899 0.3420
vn -0.8285 -0.1010 0.5508
vn -0.8119 -0.0861 0.5774
vn -0.0274 -0.5587 -0.8289
vn -0.3346 -0.5111 -0.7917
vn -0.2980 -0.7169 -0.6303
vn -0.0228 -0.7558 -0.6545
vn -0.0417 -0.9539 -0.2972
vn -0.0487 -0.9121 -0.4071
vn -0.1849 -0.8427 -0.5057
vn -0.0401 -0.3286 -0.9436
vn -0.4113 -0.2861 -0.8654
vn -0.0520 -0.1511 -0.9871
vn -0.5610 -0.1164 -0.8196
vn 0.0291 -0.1372 -0.9901
vn -0.6579 -0.0530 -0.7512
vn 0.5461 -0.1748 -0.8193
vn 0.7812 -0.1727 -0.6000
vn 0.3832 -0.3387 -0.8593
vn 0.2872 -0.5375 -0.7929
vn 0.2055 -0.7287 -0.6533
vn 0.0275 -0.8940 -0.4472
vn -0.9155 -0.1488 0.3738
vn -0.9165 -0.1416 0.3742
vn -0.4607 -0.8674 0.1881
vn -0.4544 -0.8713 0.1855
vn -0.5671 -0.7904 0.2316
vn -0.5671 -0.7904 0.2315
vn -0.7687 -0.5574 0.3138
vn -0.8927 -0.2649 0.3645
vn 0.0213 -0.5396 0.8417
vn 0.2755 -0.4552 0.8467
vn 0.3928 -0.6833 0.6155
vn 0.1738 -0.7551 0.6321
vn 0.2927 -0.9263 0.2374
vn 0.3059 -0.8901 0.3377
vn 0.4054 -0.8108 0.4222
vn -0.0977 -0.3273 0.9399
vn 0.2143 -0.2849 0.9343
vn -0.1847 -0.1386 0.9730
vn 0.2471 -0.1519 0.9570
vn -0.2621 -0.1119 0.9585
vn 0.3312 -0.1040 0.9378
vn -0.6533 -0.1405 0.7439
vn -0.8518 -0.1086 0.5125
vn -0.4540 -0.3735 0.8089
vn -0.2290 -0.5944 0.7709
vn 0.0148 -0.8001 0.5997
vn 0.2578 -0.9040 0.3411
vn -0.9254 -0.0148 -0.3788
vn -0.8898 -0.0777 -0.4496
vn -0.8973 -0.0693 -0.4360
vn -0.9295 -0.0103 -0.3686
vn -0.1533 -0.5100 -0.8464
vn -0.1118 -0.5826 -0.8050
vn -0.1136 -0.5827 -0.8047
vn -0.1612 -0.5113 -0.8441
vn -0.3123 -0.4365 -0.8438
vn -0.3323 -0.4370 -0.8358
vn -0.5576 -0.3738 -0.7412
vn -0.5823 -0.3637 -0.7271
vn -0.7734 -0.2183 -0.5952
vn -0.7897 -0.2052 -0.5782
vn 0.6275 0.2256 0.7452
vn 0.6280 0.2202 0.7465
vn 0.6280 0.2200 0.7465
vn 0.3660 0.8692 0.3324
vn 0.3661 0.8692 0.3325
vn 0.3613 0.8736 0.3259
vn 0.4382 0.7877 0.4330
vn 0.4393 0.7862 0.4346
vn 0.5565 0.5636 0.6105
vn 0.5577 0.5602 0.6124
vn 0.6174 0.3173 0.7199
vn 0.6177 0.3145 0.7207
vn -0.6913 0.6571 0.3006
vn -0.4893 0.8351 0.2513
vn -0.3876 0.7698 0.5071
vn -0.5673 0.5816 0.5830
vn -0.1027 0.9803 0.1685
vn -0.2797 0.8876 0.3659
vn -0.2142 0.9545 0.2076
vn -0.6525 0.3586 0.6676
vn -0.8348 0.4359 0.3362
vn -0.5906 0.1715 0.7886
vn -0.8993 0.2609 0.3510
vn -0.5046 0.0927 0.8584
vn -0.9307 0.2559 0.2613
vn -0.9107 0.3067 -0.2768
vn -0.7629 0.2945 -0.5755
vn -0.8789 0.4666 -0.0991
vn -0.7556 0.6548 -0.0172
vn -0.5628 0.8261 0.0286
vn -0.2792 0.9492 0.1455
vn 0.7274 0.6113 -0.3118
vn 0.4493 0.7911 -0.4151
vn 0.3790 0.6939 -0.6122
vn 0.6677 0.5021 -0.5496
vn 0.0110 0.9048 -0.4258
vn 0.1725 0.7983 -0.5770
vn 0.1088 0.8784 -0.4654
vn 0.7932 0.3453 -0.5016
vn 0.8850 0.4171 -0.2067
vn 0.8229 0.2095 -0.5281
vn 0.9644 0.2380 -0.1151
vn 0.7850 0.1513 -0.6007
vn 0.9755 0.2188 -0.0238
vn 0.8753 0.2640 0.4051
vn 0.7045 0.2308 0.6712
vn 0.8560 0.4870 0.1734
vn 0.7255 0.6861 -0.0537
vn 0.4577 0.8508 -0.2582
vn 0.1233 0.8981 -0.4221
vn -0.2123 0.2889 -0.9335
vn 0.4580 0.2375 -0.8566
vn 0.4389 0.2279 -0.8692
vn -0.2369 0.2618 -0.9356
vn -0.7869 0.2077 -0.5810
vn -0.7969 0.1711 -0.5794
vn -0.6559 0.5246 -0.5427
vn -0.0324 0.5942 -0.8037
vn -0.0763 0.6069 -0.7911
vn -0.6991 0.5365 -0.4727
vn -0.9782 0.2073 -0.0075
vn -0.9743 0.2182 0.0555
vn -0.5850 0.4509 -0.6741
vn 0.0756 0.5290 -0.8452
vn -0.9688 0.1790 -0.1716
vn -0.4649 0.3371 -0.8187
vn 0.2188 0.4014 -0.8894
vn -0.9194 0.1479 -0.3645
vn -0.3315 0.2532 -0.9088
vn 0.3483 0.2745 -0.8963
vn -0.8453 0.1361 -0.5166
vn 0.6432 -0.1528 -0.7503
vn 0.6308 -0.1597 -0.7594
vn 0.6939 -0.0860 -0.7149
vn 0.7095 -0.0781 -0.7004
vn 0.8632 0.4991 0.0762
vn 0.8678 0.4925 0.0661
vn 0.8082 0.5820 0.0903
vn 0.8079 0.5821 0.0922
vn 0.9158 0.3974 -0.0577
vn 0.9143 0.3963 -0.0835
vn 0.9008 0.3066 -0.3076
vn 0.8939 0.2898 -0.3420
vn 0.8285 0.1012 -0.5508
vn 0.8119 0.0860 -0.5774
vn 0.0275 0.5588 0.8289
vn 0.0228 0.7559 0.6543
vn 0.2985 0.7167 0.6302
vn 0.3354 0.5110 0.7915
vn 0.0417 0.9539 0.2973
vn 0.1850 0.8426 0.5057
vn 0.0486 0.9122 0.4069
vn 0.4127 0.2858 0.8649
vn 0.0402 0.3288 0.9435
vn 0.5647 0.1161 0.8171
vn 0.0526 0.1514 0.9871
vn 0.6637 0.0525 0.7461
vn -0.0299 0.1389 0.9899
vn -0.5492 0.1749 0.8172
vn -0.7887 0.1735 0.5897
vn -0.3844 0.3387 0.8588
vn -0.2878 0.5374 0.7927
vn -0.2059 0.7286 0.6532
vn -0.0276 0.8939 0.4474
vn 0.9155 0.1488 -0.3737
vn 0.9155 0.1489 -0.3737
vn 0.9165 0.1416 -0.3742
vn 0.4608 0.8674 -0.1881
vn 0.4544 0.8713 -0.1855
vn 0.5672 0.7904 -0.2316
vn 0.7687 0.5574 -0.3138
vn 0.8927 0.2650 -0.3645
vn -0.0215 0.5398 -0.8415
vn -0.1739 0.7553 -0.6319
vn -0.3934 0.6830 -0.6154
vn -0.2761 0.4551 -0.8466
vn -0.2927 0.9262 -0.2375
vn -0.4057 0.8106 -0.4223
vn -0.3058 0.8902 -0.3376
vn -0.2152 0.2848 -0.9341
vn 0.0978 0.3275 -0.9398
vn -0.2501 0.1520 -0.9562
vn 0.1844 0.1388 -0.9730
vn -0.3370 0.1041 -0.9357
vn 0.2629 0.1134 -0.9581
vn 0.6558 0.1406 -0.7417
vn 0.8582 0.1095 -0.5015
vn 0.4550 0.3738 -0.8082
vn 0.2295 0.5945 -0.7707
vn -0.0144 0.8000 -0.5998
vn -0.2579 0.9038 -0.3416
vn 0.9254 0.0149 0.3788
vn 0.9295 0.0104 0.3686
vn 0.8973 0.0693 0.4359
vn 0.8899 0.0778 0.4495
vn 0.1533 0.5100 0.8464
vn 0.1612 0.5113 0.8442
vn 0.1137 0.5826 0.8047
vn 0.1119 0.5826 0.8050
vn 0.3123 0.4364 0.8438
vn 0.3323 0.4369 0.8359
vn 0.5576 0.3739 0.7412
vn 0.5823 0.3636 0.7271
vn 0.7734 0.2184 0.5951
vn 0.7897 0.2052 0.5781
vn -0.1614 -0.0977 -0.9820
vn -0.1721 -0.0771 -0.9821
vn 0.4733 -0.1604 -0.8662
vn -0.7331 0.0422 -0.6788
vn -0.5850 -0.1604 -0.7950
vn -0.6764 -0.3149 -0.6658
vn -0.0398 -0.4401 -0.8970
vn 0.1069 -0.3305 -0.9377
vn -0.9990 -0.0036 -0.0450
vn -0.9643 0.0547 -0.2589
vn -0.2770 -0.0403 -0.9600
vn 0.3920 -0.2012 -0.8977
vn -0.7867 0.1140 -0.6067
vn -0.3582 -0.0600 0.9317
vn -0.3440 -0.0923 0.9344
vn -0.8555 -0.0182 0.5175
vn 0.3089 -0.1368 0.9412
vn 0.0573 -0.6396 0.7665
vn 0.0855 -0.6030 0.7931
vn -0.4641 -0.5390 0.7029
vn -0.5033 -0.5636 0.6550
vn 0.6043 -0.4964 0.6232
vn 0.5912 -0.4862 0.6435
vn -0.0287 -0.6466 0.7623
vn -0.5834 -0.5423 0.6045
vn 0.5300 -0.5330 0.6595
vn -0.1531 -0.5275 0.8357
vn -0.7079 -0.3944 0.5860
vn 0.4636 -0.4544 0.7606
vn -0.2733 -0.2761 0.9215
vn -0.8098 -0.1746 0.5601
vn 0.3830 -0.2747 0.8820
vn 0.1600 0.0979 0.9823
vn -0.4838 0.1615 0.8602
vn 0.1716 0.0771 0.9821
vn 0.7401 -0.0444 0.6711
vn 0.5850 0.1594 0.7952
vn -0.1178 0.3315 0.9361
vn 0.0286 0.4403 0.8974
vn 0.6761 0.3146 0.6663
vn 0.9995 -0.0030 0.0328
vn 0.9670 -0.0588 0.2477
vn 0.2755 0.0406 0.9605
vn -0.4040 0.2034 0.8919
vn 0.7926 -0.1160 0.5986
vn 0.3591 0.0599 -0.9314
vn 0.8599 0.0171 -0.5103
vn 0.3444 0.0922 -0.9343
vn -0.3159 0.1368 -0.9389
vn -0.0590 0.6397 -0.7663
vn 0.5084 0.5619 -0.6525
vn 0.4697 0.5377 -0.7002
vn -0.0871 0.6033 -0.7927
vn -0.6120 0.4926 -0.6188
vn -0.5988 0.4829 -0.6389
vn 0.0281 0.6467 -0.7622
vn 0.5892 0.5401 -0.6010
vn -0.5370 0.5300 -0.6563
vn 0.1530 0.5276 -0.8356
vn 0.7135 0.3919 -0.5808
vn -0.4712 0.4521 -0.7573
vn 0.2737 0.2758 -0.9214
vn 0.8146 0.1729 -0.5536
vn -0.3899 0.2739 -0.8792
vn 0.9950 -0.0752 0.0651
vn 0.9926 -0.1106 0.0499
vn 0.7443 -0.0813 0.6629
vn 0.8107 -0.1032 -0.5762
vn 0.6964 -0.5831 -0.4184
vn 0.6631 -0.6091 -0.4351
vn 0.7716 -0.6120 0.1737
vn 0.7740 -0.5954 0.2155
vn 0.3211 -0.3082 -0.8955
vn 0.2565 -0.3404 -0.9046
vn 0.8067 -0.4885 -0.3327
vn 0.7947 -0.5147 0.3218
vn 0.4707 -0.2412 -0.8487
vn 0.9051 -0.3791 -0.1925
vn 0.7933 -0.3920 0.4658
vn 0.6221 -0.2029 -0.7562
vn 0.9689 -0.2420 -0.0511
vn 0.7740 -0.2262 0.5914
vn 0.7446 -0.1631 -0.6473
vn -0.9950 0.0752 -0.0660
vn -0.7386 0.0807 -0.6693
vn -0.9926 0.1105 -0.0503
vn -0.8065 0.1027 0.5823
vn -0.6960 0.5828 0.4194
vn -0.7730 0.5942 -0.2222
vn -0.7710 0.6107 -0.1807
vn -0.6629 0.6091 0.4355
vn -0.3143 0.3031 0.8996
vn -0.2499 0.3354 0.9083
vn -0.8065 0.4883 0.3334
vn -0.7925 0.5138 -0.3285
vn -0.4644 0.2371 0.8533
vn -0.9051 0.3790 0.1928
vn -0.7897 0.3912 -0.4726
vn -0.6166 0.2000 0.7615
vn -0.9690 0.2418 0.0510
vn -0.7692 0.2255 -0.5979
vn -0.7399 0.1616 0.6530
s 1
f 1/1/1 2/2/2 3/3/3
f 3/3/3 4/4/1 1/1/1
f 5/5/4 6/6/5 7/7/5
f 7/7/5 8/8/6 5/5/4
f 9/9/7 5/5/4 8/8/6
f 8/8/6 10/10/8 9/9/7
f 11/11/9 9/9/7 10/10/8
f 10/10/8 12/12/10 11/11/9
f 13/13/11 11/11/9 12/12/10
f 12/12/10 14/14/12 13/13/11
f 2/2/2 13/13/11 14/14/12
f 14/14/12 3/3/3 2/2/2
s 2
f 15/15/13 16/16/14 17/17/15
f 17/17/15 18/18/16 15/15/13
f 19/19/17 20/20/18 21/21/19
f 15/15/13 22/22/20 23/23/21
f 23/23/21 16/16/14 15/15/13
f 22/22/20 24/24/22 25/25/23
f 25/25/23 23/23/21 22/22/20
f 24/24/22 26/26/24 27/27/25
f 27/27/25 25/25/23 24/24/22
f 18/18/16 17/17/15 21/21/19
f 21/21/19 20/20/18 18/18/16
f 28/28/26 29/29/27 26/26/24
f 26/26/24 24/24/22 28/28/26
f 30/30/28 28/28/26 24/24/22
f 24/24/22 22/22/20 30/30/28
f 31/31/29 30/30/28 22/22/20
f 22/22/20 15/15/13 31/31/29
f 31/31/29 15/15/13 18/18/16
f 18/18/16 32/32/30 31/31/29
f 32/32/30 18/18/16 20/20/18
f 20/20/18 33/33/31 32/32/30
f 19/19/17 33/33/31 20/20/18
s 3
f 34/34/32 35/35/33 36/36/34
f 36/36/34 37/37/35 34/34/32
f 38/38/36 39/39/37 40/40/38
f 34/34/32 41/41/39 42/42/40
f 42/42/40 35/35/33 34/34/32
f 41/41/39 43/43/41 44/44/42
f 44/44/42 42/42/40 41/41/39
f 43/43/41 45/45/43 46/46/44
f 46/46/44 44/44/42 43/43/41
f 37/37/35 36/36/34 40/40/38
f 40/40/38 39/39/37 37/37/35
f 47/47/45 48/48/46 45/45/43
f 45/45/43 43/43/41 47/47/45
f 49/49/47 47/47/45 43/43/41
f 43/43/41 41/41/39 49/49/47
f 50/50/48 49/49/47 41/41/39
f 41/41/39 34/34/32 50/50/48
f 50/50/48 34/34/32 37/37/35
f 37/37/35 51/51/49 50/50/48
f 51/51/49 37/37/35 39/39/37
f 39/39/37 52/52/50 51/51/49
f 38/38/36 52/52/50 39/39/37
s 4
f 53/53/51 54/54/52 55/55/53
f 55/55/53 56/56/54 53/53/51
f 57/57/55 58/58/56 54/54/52
f 54/54/52 53/53/51 57/57/55
f 59/59/57 60/60/58 61/61/59
f 61/61/59 62/62/60 59/59/57
f 63/63/61 64/64/62 60/60/58
f 60/60/58 59/59/57 63/63/61
f 65/65/63 59/59/57 62/62/60
f 62/62/60 66/66/64 65/65/63
f 67/67/65 63/63/61 59/59/57
f 59/59/57 65/65/63 67/67/65
f 68/68/66 65/65/63 66/66/64
f 66/66/64 69/69/67 68/68/66
f 70/70/68 67/67/65 65/65/63
f 65/65/63 68/68/66 70/70/68
f 71/71/69 68/68/66 69/69/67
f 69/69/67 72/72/70 71/71/69
f 73/73/71 70/70/68 68/68/66
f 68/68/66 71/71/69 73/73/71
f 54/54/52 71/71/69 72/72/70
f 72/72/70 55/55/53 54/54/52
f 58/58/56 73/73/71 71/71/69
f 71/71/69 54/54/52 58/58/56
s 5
f 74/74/72 75/75/73 76/76/74
f 76/76/74 77/77/75 74/74/72
f 78/78/76 79/79/77 80/80/78
f 80/80/78 81/81/79 78/78/76
f 82/82/80 78/78/76 81/81/79
f 81/81/79 83/83/81 82/82/80
f 84/84/82 82/82/80 83/83/81
f 83/83/81 85/85/83 84/84/82
f 86/86/84 84/84/82 85/85/83
f 85/85/83 87/87/85 86/86/84
f 75/75/73 86/86/84 87/87/85
f 87/87/85 76/76/74 75/75/73
s 6
f 88/88/86 89/89/87 90/90/88
f 90/90/88 91/91/89 88/88/86
f 92/92/90 93/93/91 94/94/92
f 88/88/86 95/95/93 96/96/94
f 96/96/94 89/89/87 88/88/86
f 95/95/93 97/97/95 98/98/96
f 98/98/96 96/96/94 95/95/93
f 97/97/95 99/99/97 100/100/98
f 100/100/98 98/98/96 97/97/95
f 91/91/89 90/90/88 94/94/92
f 94/94/92 93/93/91 91/91/89
f 101/101/99 102/102/100 99/99/97
f 99/99/97 97/97/95 101/101/99
f 103/103/101 101/101/99 97/97/95
f 97/97/95 95/95/93 103/103/101
f 104/104/102 103/103/101 95/95/93
f 95/95/93 88/88/86 104/104/102
f 104/104/102 88/88/86 91/91/89
f 91/91/89 105/105/103 104/104/102
f 105/105/103 91/91/89 93/93/91
f 93/93/91 106/106/104 105/105/103
f 92/92/90 106/106/104 93/93/91
s 7
f 107/107/105 108/108/106 109/109/106
f 109/109/106 110/110/105 107/107/105
f 111/111/107 112/112/108 113/113/108
f 113/113/108 114/114/107 111/111/107
f 115/115/109 111/111/107 114/114/107
f 114/114/107 116/116/110 115/115/109
f 117/117/111 115/115/109 116/116/110
f 116/116/110 118/118/111 117/117/111
f 119/119/112 117/117/111 118/118/111
f 118/118/111 120/120/112 119/119/112
f 108/108/106 119/119/112 120/120/112
f 120/120/112 109/109/106 108/108/106
s 8
f 121/121/113 122/122/114 123/123/115
f 123/123/115 124/124/116 121/121/113
f 125/125/117 126/126/118 127/127/119
f 121/121/113 128/128/120 129/129/121
f 129/129/121 122/122/114 121/121/113
f 128/128/120 130/130/122 131/131/123
f 131/131/123 129/129/121 128/128/120
f 130/130/122 132/132/124 133/133/125
f 133/133/125 131/131/123 130/130/122
f 124/124/116 123/123/115 127/127/119
f 127/127/119 126/126/118 124/124/116
f 134/134/126 135/135/127 132/132/124
f 132/132/124 130/130/122 134/134/126
f 136/136/128 134/134/126 130/130/122
f 130/130/122 128/128/120 136/136/128
f 137/137/129 136/136/128 128/128/120
f 128/128/120 121/121/113 137/137/129
f 137/137/129 121/121/113 124/124/116
f 124/124/116 138/138/130 137/137/129
f 138/138/130 124/124/116 126/126/118
f 126/126/118 139/139/131 138/138/130
f 125/125/117 139/139/131 126/126/118
s 9
f 140/140/132 141/141/133 142/142/134
f 142/142/134 143/143/135 140/140/132
f 144/144/136 145/145/137 146/146/138
f 146/146/138 147/147/139 144/144/136
f 148/148/140 144/144/136 147/147/139
f 147/147/139 149/149/141 148/148/140
f 150/150/142 148/148/140 149/149/141
f 149/149/141 151/151/143 150/150/142
f 152/152/144 150/150/142 151/151/143
f 151/151/143 153/153/145 152/152/144
f 141/141/133 152/152/144 153/153/145
f 153/153/145 142/142/134 141/141/133
s 10
f 154/154/146 155/155/146 156/156/147
f 156/156/147 157/157/148 154/154/146
f 158/158/149 159/159/150 160/160/151
f 160/160/151 161/161/151 158/158/149
f 162/162/152 163/163/153 159/159/150
f 159/159/150 158/158/149 162/162/152
f 164/164/154 165/165/155 163/163/153
f 163/163/153 162/162/152 164/164/154
f 166/166/156 167/167/157 165/165/155
f 165/165/155 164/164/154 166/166/156
f 157/157/148 156/156/147 167/167/157
f 167/167/157 166/166/156 157/157/148
s 11
f 168/168/158 169/169/159 170/170/160
f 170/170/160 171/171/161 168/168/158
f 172/172/162 173/173/163 174/174/164
f 168/168/158 171/171/161 175/175/165
f 175/175/165 176/176/166 168/168/158
f 176/176/166 175/175/165 177/177/167
f 177/177/167 178/178/168 176/176/166
f 178/178/168 177/177/167 179/179/169
f 179/179/169 180/180/170 178/178/168
f 169/169/159 174/174/164 173/173/163
f 173/173/163 170/170/160 169/169/159
f 181/181/171 178/178/168 180/180/170
f 180/180/170 182/182/172 181/181/171
f 183/183/173 176/176/166 178/178/168
f 178/178/168 181/181/171 183/183/173
f 184/184/174 168/168/158 176/176/166
f 176/176/166 183/183/173 184/184/174
f 184/184/174 185/185/175 169/169/159
f 169/169/159 168/168/158 184/184/174
f 185/185/175 186/186/176 174/174/164
f 174/174/164 169/169/159 185/185/175
f 172/172/162 174/174/164 186/186/176
s 12
f 187/187/177 188/188/178 189/189/179
f 189/189/179 190/190/180 187/187/177
f 191/191/181 192/192/182 193/193/183
f 187/187/177 190/190/180 194/194/184
f 194/194/184 195/195/185 187/187/177
f 195/195/185 194/194/184 196/196/186
f 196/196/186 197/197/187 195/195/185
f 197/197/187 196/196/186 198/198/188
f 198/198/188 199/199/189 197/197/187
f 188/188/178 193/193/183 192/192/182
f 192/192/182 189/189/179 188/188/178
f 200/200/190 197/197/187 199/199/189
f 199/199/189 201/201/191 200/200/190
f 202/202/192 195/195/185 197/197/187
f 197/197/187 200/200/190 202/202/192
f 203/203/193 187/187/177 195/195/185
f 195/195/185 202/202/192 203/203/193
f 203/203/193 204/204/194 188/188/178
f 188/188/178 187/187/177 203/203/193
f 204/204/194 205/205/195 193/193/183
f 193/193/183 188/188/178 204/204/194
f 191/191/181 193/193/183 205/205/195
s 13
f 206/206/196 207/207/197 208/208/198
f 208/208/198 209/209/199 206/206/196
f 210/210/200 206/206/196 209/209/199
f 209/209/199 211/211/201 210/210/200
f 212/212/202 213/213/203 214/214/204
f 214/214/204 215/215/205 212/212/202
f 216/216/206 212/212/202 215/215/205
f 215/215/205 217/217/207 216/216/206
f 218/218/208 219/219/209 213/213/203
f 213/213/203 212/212/202 218/218/208
f 220/220/210 218/218/208 212/212/202
f 212/212/202 216/216/206 220/220/210
f 221/221/211 222/222/212 219/219/209
f 219/219/209 218/218/208 221/221/211
f 223/223/213 221/221/211 218/218/208
f 218/218/208 220/220/210 223/223/213
f 224/224/214 225/225/215 222/222/212
f 222/222/212 221/221/211 224/224/214
f 226/226/216 224/224/214 221/221/211
f 221/221/211 223/223/213 226/226/216
f 209/209/199 208/208/198 225/225/215
f 225/225/215 224/224/214 209/209/199
f 211/211/201 209/209/199 224/224/214
f 224/224/214 226/226/216 211/211/201
s 14
f 227/227/217 228/228/218 229/229/219
f 229/229/219 230/230/220 227/227/217
f 231/231/221 232/232/222 233/233/223
f 233/233/223 234/234/224 231/231/221
f 235/235/225 236/236/226 232/232/222
f 232/232/222 231/231/221 235/235/225
f 237/237/227 238/238/228 236/236/226
f 236/236/226 235/235/225 237/237/227
f 239/239/229 240/240/230 238/238/228
f 238/238/228 237/237/227 239/239/229
f 230/230/220 229/229/219 240/240/230
f 240/240/230 239/239/229 230/230/220
s 15
f 241/241/231 242/242/232 243/243/233
f 243/243/233 244/244/234 241/241/231
f 245/245/235 246/246/236 247/247/237
f 241/241/231 244/244/234 248/248/238
f 248/248/238 249/249/239 241/241/231
f 249/249/239 248/248/238 250/250/240
f 250/250/240 251/251/241 249/249/239
f 251/251/241 250/250/240 252/252/242
f 252/252/242 253/253/243 251/251/241
f 242/242/232 247/247/237 246/246/236
f 246/246/236 243/243/233 242/242/232
f 254/254/244 251/251/241 253/253/243
f 253/253/243 255/255/245 254/254/244
f 256/256/246 249/249/239 251/251/241
f 251/251/241 254/254/244 256/256/246
f 257/257/247 241/241/231 249/249/239
f 249/249/239 256/256/246 257/257/247
f 257/257/247 258/258/248 242/242/232
f 242/242/232 241/241/231 257/257/247
f 258/258/248 259/259/249 247/247/237
f 247/247/237 242/242/232 258/258/248
f 245/245/235 247/247/237 259/259/249
s 16
f 260/260/250 261/261/251 262/262/252
f 262/262/252 263/263/252 260/260/250
f 264/264/253 265/265/253 266/266/254
f 266/266/254 267/267/254 264/264/253
f 268/268/255 269/269/255 265/265/253
f 265/265/253 264/264/253 268/268/255
f 270/270/256 271/271/256 269/269/255
f 269/269/255 268/268/255 270/270/256
f 272/272/257 273/273/257 271/271/256
f 271/271/256 270/270/256 272/272/257
f 263/263/252 262/262/252 273/273/257
f 273/273/257 272/272/257 263/263/252
s 17
f 274/274/258 275/275/259 276/276/260
f 276/276/260 277/277/261 274/274/258
f 278/278/262 279/279/263 280/280/264
f 274/274/258 277/277/261 281/281/265
f 281/281/265 282/282/266 274/274/258
f 282/282/266 281/281/265 283/283/267
f 283/283/267 284/284/268 282/282/266
f 284/284/268 283/283/267 285/285/269
f 285/285/269 286/286/270 284/284/268
f 275/275/259 280/280/264 279/279/263
f 279/279/263 276/276/260 275/275/259
f 287/287/271 284/284/268 286/286/270
f 286/286/270 288/288/272 287/287/271
f 289/289/273 282/282/266 284/284/268
f 284/284/268 287/287/271 289/289/273
f 290/290/274 274/274/258 282/282/266
f 282/282/266 289/289/273 290/290/274
f 290/290/274 291/291/275 275/275/259
f 275/275/259 274/274/258 290/290/274
f 291/291/275 292/292/276 280/280/264
f 280/280/264 275/275/259 291/291/275
f 278/278/262 280/280/264 292/292/276
s 18
f 293/293/277 294/294/278 295/295/279
f 295/295/279 296/296/280 293/293/277
f 297/297/281 298/298/282 299/299/283
f 299/299/283 300/300/284 297/297/281
f 301/301/285 302/302/286 298/298/282
f 298/298/282 297/297/281 301/301/285
f 303/303/287 304/304/288 302/302/286
f 302/302/286 301/301/285 303/303/287
f 305/305/289 306/306/290 304/304/288
f 304/304/288 303/303/287 305/305/289
f 296/296/280 295/295/279 306/306/290
f 306/306/290 305/305/289 296/296/280
s 19
f 307/307/291 308/308/292 309/309/293
f 310/310/294 308/308/292 307/307/291
f 311/311/295 312/312/296 313/313/297
f 313/313/297 314/314/298 311/311/295
f 315/315/299 312/312/296 311/311/295
f 311/311/295 316/316/300 315/315/299
f 317/317/301 311/311/295 314/314/298
f 314/314/298 318/318/302 317/317/301
f 316/316/300 311/311/295 317/317/301
f 317/317/301 319/319/303 316/316/300
f 308/308/292 317/317/301 318/318/302
f 318/318/302 309/309/293 308/308/292
f 310/310/294 319/319/303 317/317/301
f 317/317/301 308/308/292 310/310/294
s 20
f 320/320/304 321/321/305 322/322/306
f 323/323/307 321/321/305 320/320/304
f 324/324/308 325/325/309 326/326/310
f 326/326/310 327/327/311 324/324/308
f 328/328/312 329/329/313 325/325/309
f 325/325/309 324/324/308 328/328/312
f 330/330/314 324/324/308 327/327/311
f 327/327/311 331/331/315 330/330/314
f 332/332/316 328/328/312 324/324/308
f 324/324/308 330/330/314 332/332/316
f 333/333/317 330/330/314 331/331/315
f 331/331/315 334/334/318 333/333/317
f 335/335/319 332/332/316 330/330/314
f 330/330/314 333/333/317 335/335/319
f 336/336/320 333/333/317 334/334/318
f 334/334/318 337/337/321 336/336/320
f 338/338/322 335/335/319 333/333/317
f 333/333/317 336/336/320 338/338/322
f 321/321/305 336/336/320 337/337/321
f 337/337/321 322/322/306 321/321/305
f 323/323/307 338/338/322 336/336/320
f 336/336/320 321/321/305 323/323/307
s 21
f 339/339/323 340/340/324 341/341/325
f 342/342/326 339/339/323 341/341/325
f 343/343/327 344/344/328 345/345/329
f 345/345/329 346/346/330 343/343/327
f 347/347/331 348/348/332 343/343/327
f 343/343/327 346/346/330 347/347/331
f 349/349/333 350/350/334 344/344/328
f 344/344/328 343/343/327 349/349/333
f 348/348/332 351/351/335 349/349/333
f 349/349/333 343/343/327 348/348/332
f 341/341/325 340/340/324 350/350/334
f 350/350/334 349/349/333 341/341/325
f 342/342/326 341/341/325 349/349/333
f 349/349/333 351/351/335 342/342/326
s 22
f 352/352/336 353/353/337 354/354/338
f 355/355/339 352/352/336 354/354/338
f 356/356/340 357/357/341 358/358/342
f 358/358/342 359/359/343 356/356/340
f 360/360/344 356/356/340 359/359/343
f 359/359/343 361/361/345 360/360/344
f 362/362/346 363/363/347 357/357/341
f 357/357/341 356/356/340 362/362/346
f 364/364/348 362/362/346 356/356/340
f 356/356/340 360/360/344 364/364/348
f 365/365/349 366/366/350 363/363/347
f 363/363/347 362/362/346 365/365/349
f 367/367/351 365/365/349 362/362/346
f 362/362/346 364/364/348 367/367/351
f 368/368/352 369/369/353 366/366/350
f 366/366/350 365/365/349 368/368/352
f 370/370/354 368/368/352 365/365/349
f 365/365/349 367/367/351 370/370/354
f 354/354/338 353/353/337 369/369/353
f 369/369/353 368/368/352 354/354/338
f 355/355/339 354/354/338 368/368/352
f 368/368/352 370/370/354 355/355/339
s 23
f 371/371/355 372/372/356 373/373/357
f 374/374/358 372/372/356 371/371/355
f 375/375/359 376/376/360 377/377/361
f 377/377/361 378/378/362 375/375/359
f 379/379/363 380/380/364 376/376/360
f 376/376/360 375/375/359 379/379/363
f 381/381/365 375/375/359 378/378/362
f 378/378/362 382/382/366 381/381/365
f 383/383/367 379/379/363 375/375/359
f 375/375/359 381/381/365 383/383/367
f 384/384/368 381/381/365 382/382/366
f 382/382/366 385/385/369 384/384/368
f 386/386/370 383/383/367 381/381/365
f 381/381/365 384/384/368 386/386/370
f 387/387/371 384/384/368 385/385/369
f 385/385/369 388/388/372 387/387/371
f 389/389/373 386/386/370 384/384/368
f 384/384/368 387/387/371 389/389/373
f 372/372/356 387/387/371 388/388/372
f 388/388/372 373/373/357 372/372/356
f 374/374/358 389/389/373 387/387/371
f 387/387/371 372/372/356 374/374/358
s 24
f 390/390/374 391/391/375 392/392/376
f 393/393/377 390/390/374 392/392/376
f 394/394/378 395/395/379 396/396/380
f 396/396/380 397/397/381 394/394/378
f 398/398/382 394/394/378 397/397/381
f 397/397/381 399/399/383 398/398/382
f 400/400/384 401/401/385 395/395/379
f 395/395/379 394/394/378 400/400/384
f 402/402/386 400/400/384 394/394/378
f 394/394/378 398/398/382 402/402/386
f 403/403/387 404/404/388 401/401/385
f 401/401/385 400/400/384 403/403/387
f 405/405/389 403/403/387 400/400/384
f 400/400/384 402/402/386 405/405/389
f 406/406/390 407/407/391 404/404/388
f 404/404/388 403/403/387 406/406/390
f 408/408/392 406/406/390 403/403/387
f 403/403/387 405/405/389 408/408/392
f 392/392/376 391/391/375 407/407/391
f 407/407/391 406/406/390 392/392/376
f 393/393/377 392/392/376 406/406/390
f 406/406/390 408/408/392 393/393/377
