# Blender v3.3.0 OBJ File: ''
# www.blender.org
o RiceStage01.005
v -0.008757 -0.008203 0.002418
v -0.013283 0.038731 -0.007976
v -0.003539 0.037639 -0.015851
v 0.000987 -0.009295 -0.005457
v -0.080252 0.213524 -0.108675
v -0.107999 0.238767 -0.145584
v -0.098255 0.237675 -0.153459
v -0.070508 0.212432 -0.116550
v -0.052537 0.187148 -0.071690
v -0.042793 0.186057 -0.079565
v -0.030723 0.148280 -0.040734
v -0.020980 0.147190 -0.048611
v -0.018421 0.096465 -0.020226
v -0.008677 0.095375 -0.028102
v 0.063563 0.157553 -0.006101
v 0.046863 0.163183 -0.028019
v 0.086575 0.201367 -0.040508
v 0.104718 0.194279 -0.015918
v 0.200045 0.225899 -0.029247
v 0.154320 0.221453 -0.031222
v 0.133319 0.224434 -0.056517
v 0.032979 0.110173 -0.003160
v 0.018294 0.115003 -0.019834
v 0.009422 0.041765 -0.004461
v -0.003209 0.046164 -0.014633
v -0.000954 -0.009128 -0.005464
v -0.012793 -0.004835 -0.012655
v 0.005168 0.043848 0.013865
v -0.007572 -0.006377 0.005086
v 0.031186 0.111454 0.022847
v 0.063689 0.158144 0.026279
v 0.105720 0.194717 0.020003
v 0.154024 0.215631 0.006178
v -0.043315 0.103527 0.006737
v -0.031935 0.108887 0.025494
v -0.056662 0.137738 0.030645
v -0.071063 0.128720 0.012732
v -0.133034 0.154409 0.036083
v -0.102715 0.150436 0.028416
v -0.085314 0.158204 0.043774
v -0.023485 0.071364 0.007340
v -0.014970 0.073923 0.023173
v -0.010260 0.024050 0.007085
v -0.003262 0.025528 0.018552
v -0.004941 -0.010814 0.005664
v 0.001909 -0.009214 0.014750
v -0.004809 0.026641 -0.007559
v 0.001072 -0.008423 -0.001707
v -0.020166 0.072357 -0.014951
v -0.043295 0.101387 -0.022169
v -0.074770 0.122648 -0.019274
v -0.108195 0.136944 -0.001904
v 0.001763 -0.009807 0.001979
v 0.003741 0.033605 0.014862
v -0.004007 0.035773 0.011689
v -0.005917 -0.007640 -0.001368
v 0.007096 -0.007377 -0.004126
v 0.008948 0.036145 0.008716
v 0.011262 0.237314 0.102918
v 0.022783 0.279135 0.133810
v 0.014505 0.280466 0.135850
v 0.002928 0.238766 0.104545
v 0.012674 0.242916 0.096217
v 0.023850 0.284937 0.127188
v 0.004430 0.193288 0.071904
v -0.003988 0.194996 0.072451
v 0.006750 0.198260 0.065118
v 0.003257 0.143707 0.045989
v -0.005081 0.145695 0.045053
v 0.006767 0.147732 0.039302
v 0.004211 0.089281 0.028071
v -0.003829 0.091398 0.025791
v 0.008796 0.092360 0.021723
v -0.003194 -0.005530 0.009994
v -0.004948 0.041680 0.000245
v -0.014530 0.040055 -0.009014
v -0.013605 -0.007401 0.001740
v -0.068273 0.277992 0.031543
v -0.105906 0.329828 0.033977
v -0.105579 0.331484 0.020657
v -0.067600 0.278855 0.018101
v -0.041417 0.219203 0.022991
v -0.042613 0.219700 0.009603
v -0.017420 0.161377 0.008442
v -0.021906 0.161097 -0.004232
v -0.007347 0.101525 -0.002065
v -0.014872 0.100470 -0.013147
v 0.007911 0.230446 -0.063247
v -0.027557 0.232805 -0.049777
v -0.031625 0.292945 -0.100015
v 0.008030 0.289123 -0.114494
v 0.025379 0.353638 -0.237674
v 0.005221 0.336650 -0.180326
v -0.036122 0.334225 -0.163071
v 0.004002 0.159577 -0.030053
v -0.023777 0.161637 -0.017187
v -0.000734 0.061892 -0.010902
v -0.019197 0.064235 0.001874
v -0.001494 -0.009061 -0.005872
v -0.015743 -0.006505 0.007066
v 0.021071 0.064700 0.002279
v 0.009213 -0.006356 0.007290
v 0.036847 0.162321 -0.017033
v 0.049865 0.233072 -0.050211
v 0.054956 0.291948 -0.101165
v 0.054151 0.330834 -0.165689
v -0.000825 -0.007887 0.007046
v -0.007680 0.041302 0.009844
v -0.014141 0.041302 -0.005981
v -0.007285 -0.007887 -0.008779
v -0.132810 0.237239 0.060930
v -0.186769 0.270068 0.082960
v -0.193230 0.270068 0.067135
v -0.139270 0.237239 0.045105
v -0.078942 0.203242 0.038938
v -0.085403 0.203242 0.023113
v -0.037350 0.157913 0.021958
v -0.043811 0.157913 0.006133
v -0.015258 0.101722 0.012939
v -0.021719 0.101722 -0.002887
v -0.003377 0.150734 0.043289
v 0.025889 0.153475 0.035241
v 0.026854 0.196631 0.066052
v -0.002926 0.189463 0.078768
v 0.007289 0.233549 0.165367
v 0.008233 0.223118 0.123497
v 0.035685 0.228311 0.106019
v 0.000894 0.103391 0.021472
v 0.024920 0.103284 0.016321
v -0.000331 0.037074 0.009646
v 0.017289 0.036342 0.004882
v -0.004505 -0.010755 0.006194
v 0.009958 -0.011006 0.000681
v -0.016898 0.041206 -0.003393
v -0.011424 -0.007867 -0.004694
v -0.026629 0.106705 0.008378
v -0.041140 0.151266 0.032239
v -0.046617 0.185802 0.071777
v -0.034878 0.209615 0.120297
v -0.010224 -0.005543 0.009665
v -0.008452 0.040582 0.001414
v -0.004018 0.038355 -0.007213
v -0.006649 -0.008178 0.000723
v -0.067392 0.259471 -0.058817
v -0.082593 0.304722 -0.089457
v -0.073429 0.307195 -0.092519
v -0.057988 0.261227 -0.061589
v -0.049700 0.206481 -0.036353
v -0.040719 0.207640 -0.040368
v -0.028589 0.154430 -0.017354
v -0.020769 0.154371 -0.023396
v -0.013214 0.098394 -0.006820
v -0.007108 0.097097 -0.014510
v -0.008391 -0.008072 0.002852
v 0.001353 -0.009164 -0.005023
v -0.003174 0.037767 -0.015416
v -0.012918 0.038859 -0.007541
v -0.080039 0.214030 -0.108481
v -0.070295 0.212938 -0.116356
v -0.098045 0.238183 -0.153269
v -0.107788 0.239275 -0.145394
v -0.052281 0.187607 -0.071438
v -0.042538 0.186515 -0.079312
v -0.030399 0.148609 -0.040379
v -0.020655 0.147516 -0.048254
v -0.018061 0.096650 -0.019807
v -0.008317 0.095558 -0.027682
v 0.063163 0.157938 -0.005927
v 0.104441 0.194767 -0.015763
v 0.086338 0.201815 -0.040221
v 0.046536 0.163517 -0.027671
v 0.199985 0.226470 -0.029148
v 0.133162 0.224951 -0.056299
v 0.154198 0.222009 -0.031099
v 0.017924 0.115206 -0.019433
v 0.032493 0.110432 -0.002971
v -0.003555 0.046267 -0.014176
v 0.008895 0.041928 -0.004277
v -0.013108 -0.004769 -0.012170
v -0.001494 -0.008994 -0.005293
v 0.004635 0.044025 0.013714
v -0.008091 -0.006237 0.004861
v 0.030673 0.111724 0.022791
v 0.063251 0.158527 0.026266
v 0.105394 0.195199 0.020021
v 0.153835 0.216179 0.006235
v -0.042910 0.103901 0.006550
v -0.070819 0.129184 0.012479
v -0.056442 0.138143 0.030289
v -0.031567 0.109193 0.025162
v -0.133027 0.154936 0.035835
v -0.085209 0.158669 0.043440
v -0.102646 0.150948 0.028147
v -0.014512 0.074118 0.022871
v -0.022969 0.071606 0.007220
v -0.002786 0.025647 0.018238
v -0.009699 0.024193 0.007027
v 0.002376 -0.009119 0.014417
v -0.004371 -0.010700 0.005631
v -0.004285 0.026785 -0.007352
v 0.001570 -0.008325 -0.001420
v -0.019655 0.072625 -0.014870
v -0.042877 0.101792 -0.022199
v -0.074483 0.123138 -0.019403
v -0.108051 0.137469 -0.002108
v 0.001635 -0.009640 0.001436
v -0.005656 -0.007502 -0.001869
v -0.003766 0.035905 0.011176
v 0.003594 0.033756 0.014318
v 0.006635 -0.007257 -0.004461
v 0.008479 0.036243 0.008385
v 0.010889 0.237624 0.102597
v 0.002915 0.239112 0.104078
v 0.014472 0.280819 0.135388
v 0.022384 0.279452 0.133528
v 0.012106 0.243044 0.096206
v 0.023284 0.285073 0.127212
v 0.004097 0.193555 0.071508
v -0.003945 0.195306 0.071960
v 0.006188 0.198366 0.065012
v 0.002990 0.143903 0.045511
v -0.004965 0.145930 0.044533
v 0.006232 0.147815 0.039089
v 0.004015 0.089426 0.027543
v -0.003640 0.091557 0.025264
v 0.008300 0.092435 0.021428
v -0.002804 -0.005576 0.009565
v -0.013216 -0.007447 0.001311
v -0.014112 0.040028 -0.009417
v -0.004527 0.041656 -0.000156
v -0.067739 0.278163 0.031570
v -0.067065 0.279026 0.018128
v -0.105068 0.331689 0.020711
v -0.105396 0.330033 0.034031
v -0.040866 0.219338 0.022936
v -0.042062 0.219834 0.009543
v -0.016886 0.161479 0.008254
v -0.021374 0.161194 -0.004430
v -0.006862 0.101557 -0.002384
v -0.014391 0.100497 -0.013473
v 0.007926 0.230775 -0.062766
v 0.008053 0.289566 -0.114117
v -0.031463 0.293360 -0.099641
v -0.027352 0.233098 -0.049317
v 0.025403 0.354194 -0.237501
v -0.036008 0.334716 -0.162781
v 0.005251 0.337182 -0.180091
v -0.023521 0.161799 -0.016689
v 0.004018 0.159773 -0.029505
v -0.018871 0.064305 0.002351
v -0.000725 0.061991 -0.010329
v -0.015377 -0.006466 0.007517
v -0.001494 -0.008994 -0.005293
v 0.020760 0.064801 0.002761
v 0.008839 -0.006291 0.007732
v 0.036624 0.162516 -0.016531
v 0.049695 0.233387 -0.049752
v 0.054838 0.292374 -0.100786
v 0.054102 0.331344 -0.165414
v -0.000289 -0.007838 0.006827
v -0.006750 -0.007838 -0.008998
v -0.013605 0.041348 -0.006199
v -0.007144 0.041348 0.009626
v -0.132481 0.237584 0.060796
v -0.138942 0.237584 0.044971
v -0.192906 0.270416 0.067003
v -0.186445 0.270416 0.082828
v -0.078556 0.203546 0.038781
v -0.085017 0.203546 0.022955
v -0.036870 0.158111 0.021762
v -0.043331 0.158111 0.005937
v -0.014730 0.101810 0.012723
v -0.021191 0.101810 -0.003102
v -0.003398 0.151069 0.042813
v -0.003041 0.189909 0.078412
v 0.026626 0.197030 0.065694
v 0.025714 0.153756 0.034762
v 0.007119 0.234089 0.165228
v 0.035452 0.228783 0.105770
v 0.008059 0.223636 0.123295
v 0.024783 0.103445 0.015779
v 0.000950 0.103581 0.020925
v 0.017135 0.036428 0.004327
v -0.000215 0.037159 0.009082
v 0.009781 -0.010940 0.000130
v -0.004371 -0.010700 0.005631
v -0.016539 0.041279 -0.003846
v -0.011003 -0.007841 -0.005095
v -0.026381 0.106908 0.007891
v -0.041006 0.151619 0.031795
v -0.046602 0.186259 0.071417
v -0.034968 0.210131 0.120043
v -0.009692 -0.005527 0.009903
v -0.006117 -0.008162 0.000961
v -0.003503 0.038398 -0.006944
v -0.007940 0.040628 0.001687
v -0.067283 0.259769 -0.058329
v -0.057880 0.261525 -0.061101
v -0.073359 0.307534 -0.092051
v -0.082523 0.305061 -0.088989
v -0.049500 0.206737 -0.035870
v -0.040515 0.207896 -0.039886
v -0.028261 0.154647 -0.016925
v -0.020433 0.154583 -0.022971
v -0.012767 0.098520 -0.006469
v -0.006654 0.097216 -0.014165
v 0.007977 0.125453 0.001351
v 0.011706 0.156439 -0.002344
v 0.017824 0.157096 0.000876
v 0.007308 0.157986 0.002441
v 0.036319 0.273459 -0.016973
v 0.037503 0.342348 -0.050756
v 0.044505 0.342758 -0.051339
v 0.043331 0.273825 -0.016367
v 0.037241 0.345378 -0.043253
v 0.034716 0.275850 -0.010215
v 0.018188 0.196035 -0.005370
v 0.024657 0.196547 -0.002698
v 0.014389 0.197757 -0.000121
v 0.003870 0.058576 0.005117
v 0.007844 0.103846 0.009560
v 0.002781 0.106277 0.001275
v 0.017136 0.104670 0.006671
v 0.006906 0.310175 0.123971
v 0.006486 0.355788 0.158603
v -0.002380 0.359059 0.155326
v -0.001660 0.313692 0.120482
v 0.014142 0.314200 0.120151
v 0.013527 0.359714 0.155100
v 0.008699 0.265452 0.082777
v 0.000920 0.269042 0.078609
v 0.016647 0.268789 0.079153
v 0.009835 0.216374 0.044636
v 0.003040 0.219799 0.038865
v 0.018370 0.218741 0.040894
v 0.010744 0.161249 0.017828
v 0.004898 0.164128 0.010384
v 0.019694 0.162635 0.014422
v 0.008031 0.125477 0.001702
v 0.017661 0.157141 0.001189
v 0.011772 0.156461 -0.001995
v 0.007577 0.157978 0.002675
v 0.036518 0.273523 -0.016645
v 0.043305 0.273927 -0.015995
v 0.044531 0.342890 -0.050934
v 0.037752 0.342449 -0.050435
v 0.037605 0.345399 -0.043156
v 0.035055 0.275849 -0.010105
v 0.018303 0.196071 -0.005031
v 0.024541 0.196619 -0.002366
v 0.014689 0.197748 0.000079
v 0.003996 0.058591 0.004784
v 0.003081 0.106282 0.001083
v 0.007961 0.103869 0.009224
v 0.017018 0.104705 0.006338
v 0.006880 0.310349 0.123737
v -0.001447 0.313832 0.120313
v -0.002175 0.359191 0.155168
v 0.006443 0.355951 0.158398
v 0.013883 0.314329 0.119968
v 0.013260 0.359834 0.154945
v 0.008713 0.265600 0.082519
v 0.001159 0.269166 0.078432
v 0.016422 0.268900 0.078939
v 0.009889 0.216487 0.044330
v 0.003304 0.219889 0.038666
v 0.018184 0.218834 0.040614
v 0.010834 0.161312 0.017492
v 0.005184 0.164173 0.010180
v 0.019549 0.162696 0.014106
v 0.002381 0.050871 0.000867
v 0.005511 0.090988 -0.000596
v -0.000910 0.092751 0.006829
v 0.000054 0.092126 -0.008568
v 0.087124 0.283453 0.003777
v 0.120939 0.324381 -0.002511
v 0.120232 0.326192 0.007289
v 0.085933 0.285317 0.013505
v 0.079448 0.287332 -0.000336
v 0.113212 0.328462 -0.006238
v 0.055023 0.240341 0.004827
v 0.052577 0.242286 0.014273
v 0.047621 0.243621 -0.000286
v 0.031325 0.192791 0.001520
v 0.027218 0.194772 0.010367
v 0.024536 0.195222 -0.004830
v 0.012644 0.142047 -0.001189
v 0.007120 0.143925 0.006871
v 0.006695 0.143659 -0.008569
v 0.002026 0.050886 0.000845
v -0.001182 0.092767 0.006599
v 0.005156 0.091009 -0.000608
v -0.000230 0.092145 -0.008355
v 0.086849 0.283581 0.003925
v 0.085635 0.285446 0.013416
v 0.119933 0.326325 0.007212
v 0.120680 0.324515 -0.002344
v 0.079331 0.287398 -0.000012
v 0.113115 0.328534 -0.005909
v 0.054715 0.240444 0.004942
v 0.052277 0.242397 0.014149
v 0.047452 0.243672 0.000020
v 0.030991 0.192868 0.001586
v 0.026924 0.194854 0.010199
v 0.024314 0.195263 -0.004557
v 0.012293 0.142094 -0.001170
v 0.006838 0.143972 0.006662
v 0.006432 0.143691 -0.008331
vt 0.218100 0.029500
vt 0.218100 0.166700
vt 0.259400 0.166700
vt 0.259400 0.029500
vt 0.218100 0.833300
vt 0.218100 1.000000
vt 0.259400 1.000000
vt 0.259400 0.833300
vt 0.218100 0.666700
vt 0.259400 0.666700
vt 0.218100 0.500000
vt 0.259400 0.500000
vt 0.218100 0.333300
vt 0.259400 0.333300
vt 0.401700 0.539300
vt 0.316300 0.538500
vt 0.306400 0.682700
vt 0.402000 0.681000
vt 0.449000 0.998000
vt 0.400100 0.856100
vt 0.290700 0.846400
vt 0.392200 0.380200
vt 0.325600 0.379000
vt 0.380700 0.170800
vt 0.336800 0.171700
vt 0.378800 0.020100
vt 0.345300 0.024400
vt 0.432700 0.172600
vt 0.403900 0.024600
vt 0.471100 0.380400
vt 0.502700 0.539300
vt 0.515200 0.681200
vt 0.508700 0.840600
vt 0.401700 0.539300
vt 0.316300 0.538500
vt 0.306400 0.682700
vt 0.402000 0.681000
vt 0.449000 0.998000
vt 0.400100 0.856100
vt 0.290700 0.846400
vt 0.392200 0.380200
vt 0.325600 0.379000
vt 0.380700 0.170800
vt 0.336800 0.171700
vt 0.378800 0.020100
vt 0.345300 0.024400
vt 0.432700 0.172600
vt 0.403900 0.024600
vt 0.471100 0.380400
vt 0.502700 0.539300
vt 0.515200 0.681200
vt 0.508700 0.840600
vt 0.238300 0.030000
vt 0.238300 0.159300
vt 0.259400 0.159300
vt 0.259400 0.030000
vt 0.218100 0.030000
vt 0.218100 0.159300
vt 0.238300 0.796700
vt 0.238300 0.956100
vt 0.259400 0.956100
vt 0.259400 0.796700
vt 0.218100 0.796700
vt 0.218100 0.956100
vt 0.238300 0.637400
vt 0.259400 0.637400
vt 0.218100 0.637400
vt 0.238300 0.478000
vt 0.259400 0.478000
vt 0.218100 0.478000
vt 0.238300 0.318700
vt 0.259400 0.318700
vt 0.218100 0.318700
vt 0.132600 0.032800
vt 0.132600 0.166700
vt 0.165200 0.166700
vt 0.165200 0.032800
vt 0.132600 0.833300
vt 0.132600 1.000000
vt 0.165200 1.000000
vt 0.165200 0.833300
vt 0.132600 0.666700
vt 0.165200 0.666700
vt 0.132600 0.500000
vt 0.165200 0.500000
vt 0.132600 0.333300
vt 0.165200 0.333300
vt 0.401700 0.539300
vt 0.316300 0.538500
vt 0.306400 0.682700
vt 0.402000 0.681000
vt 0.449000 0.998000
vt 0.400100 0.856100
vt 0.290700 0.846400
vt 0.392200 0.380200
vt 0.325600 0.379000
vt 0.380700 0.170800
vt 0.336800 0.171700
vt 0.378800 0.020100
vt 0.345300 0.024400
vt 0.432700 0.172600
vt 0.403900 0.024600
vt 0.471100 0.380400
vt 0.502700 0.539300
vt 0.515200 0.681200
vt 0.508700 0.840600
vt 0.218100 0.029500
vt 0.218100 0.166700
vt 0.259400 0.166700
vt 0.259400 0.029500
vt 0.218100 0.833300
vt 0.218100 1.000000
vt 0.259400 1.000000
vt 0.259400 0.833300
vt 0.218100 0.666700
vt 0.259400 0.666700
vt 0.218100 0.500000
vt 0.259400 0.500000
vt 0.218100 0.333300
vt 0.259400 0.333300
vt 0.401700 0.539300
vt 0.316300 0.538500
vt 0.306400 0.682700
vt 0.402000 0.681000
vt 0.449000 0.998000
vt 0.400100 0.856100
vt 0.290700 0.846400
vt 0.392200 0.380200
vt 0.325600 0.379000
vt 0.380700 0.170800
vt 0.336800 0.171700
vt 0.378800 0.020100
vt 0.345300 0.024400
vt 0.432700 0.172600
vt 0.403900 0.024600
vt 0.471100 0.380400
vt 0.502700 0.539300
vt 0.515200 0.681200
vt 0.508700 0.840600
vt 0.132600 0.032800
vt 0.132600 0.166700
vt 0.165200 0.166700
vt 0.165200 0.032800
vt 0.132600 0.833300
vt 0.132600 1.000000
vt 0.165200 1.000000
vt 0.165200 0.833300
vt 0.132600 0.666700
vt 0.165200 0.666700
vt 0.132600 0.500000
vt 0.165200 0.500000
vt 0.132600 0.333300
vt 0.165200 0.333300
vt 0.218100 0.029500
vt 0.259400 0.029500
vt 0.259400 0.166700
vt 0.218100 0.166700
vt 0.218100 0.833300
vt 0.259400 0.833300
vt 0.259400 1.000000
vt 0.218100 1.000000
vt 0.218100 0.666700
vt 0.259400 0.666700
vt 0.218100 0.500000
vt 0.259400 0.500000
vt 0.218100 0.333300
vt 0.259400 0.333300
vt 0.401700 0.539300
vt 0.402000 0.681000
vt 0.306400 0.682700
vt 0.316300 0.538500
vt 0.449000 0.998000
vt 0.290700 0.846400
vt 0.400100 0.856100
vt 0.325600 0.379000
vt 0.392200 0.380200
vt 0.336800 0.171700
vt 0.380700 0.170800
vt 0.345300 0.024400
vt 0.378800 0.020100
vt 0.432700 0.172600
vt 0.403900 0.024600
vt 0.471100 0.380400
vt 0.502700 0.539300
vt 0.515200 0.681200
vt 0.508700 0.840600
vt 0.401700 0.539300
vt 0.402000 0.681000
vt 0.306400 0.682700
vt 0.316300 0.538500
vt 0.449000 0.998000
vt 0.290700 0.846400
vt 0.400100 0.856100
vt 0.325600 0.379000
vt 0.392200 0.380200
vt 0.336800 0.171700
vt 0.380700 0.170800
vt 0.345300 0.024400
vt 0.378800 0.020100
vt 0.432700 0.172600
vt 0.403900 0.024600
vt 0.471100 0.380400
vt 0.502700 0.539300
vt 0.515200 0.681200
vt 0.508700 0.840600
vt 0.238300 0.030000
vt 0.259400 0.030000
vt 0.259400 0.159300
vt 0.238300 0.159300
vt 0.218100 0.030000
vt 0.218100 0.159300
vt 0.238300 0.796700
vt 0.259400 0.796700
vt 0.259400 0.956100
vt 0.238300 0.956100
vt 0.218100 0.796700
vt 0.218100 0.956100
vt 0.238300 0.637400
vt 0.259400 0.637400
vt 0.218100 0.637400
vt 0.238300 0.478000
vt 0.259400 0.478000
vt 0.218100 0.478000
vt 0.238300 0.318700
vt 0.259400 0.318700
vt 0.218100 0.318700
vt 0.132600 0.032800
vt 0.165200 0.032800
vt 0.165200 0.166700
vt 0.132600 0.166700
vt 0.132600 0.833300
vt 0.165200 0.833300
vt 0.165200 1.000000
vt 0.132600 1.000000
vt 0.132600 0.666700
vt 0.165200 0.666700
vt 0.132600 0.500000
vt 0.165200 0.500000
vt 0.132600 0.333300
vt 0.165200 0.333300
vt 0.401700 0.539300
vt 0.402000 0.681000
vt 0.306400 0.682700
vt 0.316300 0.538500
vt 0.449000 0.998000
vt 0.290700 0.846400
vt 0.400100 0.856100
vt 0.325600 0.379000
vt 0.392200 0.380200
vt 0.336800 0.171700
vt 0.380700 0.170800
vt 0.345300 0.024400
vt 0.378800 0.020100
vt 0.432700 0.172600
vt 0.403900 0.024600
vt 0.471100 0.380400
vt 0.502700 0.539300
vt 0.515200 0.681200
vt 0.508700 0.840600
vt 0.218100 0.029500
vt 0.259400 0.029500
vt 0.259400 0.166700
vt 0.218100 0.166700
vt 0.218100 0.833300
vt 0.259400 0.833300
vt 0.259400 1.000000
vt 0.218100 1.000000
vt 0.218100 0.666700
vt 0.259400 0.666700
vt 0.218100 0.500000
vt 0.259400 0.500000
vt 0.218100 0.333300
vt 0.259400 0.333300
vt 0.401700 0.539300
vt 0.402000 0.681000
vt 0.306400 0.682700
vt 0.316300 0.538500
vt 0.449000 0.998000
vt 0.290700 0.846400
vt 0.400100 0.856100
vt 0.325600 0.379000
vt 0.392200 0.380200
vt 0.336800 0.171700
vt 0.380700 0.170800
vt 0.345300 0.024400
vt 0.378800 0.020100
vt 0.432700 0.172600
vt 0.403900 0.024600
vt 0.471100 0.380400
vt 0.502700 0.539300
vt 0.515200 0.681200
vt 0.508700 0.840600
vt 0.132600 0.032800
vt 0.165200 0.032800
vt 0.165200 0.166700
vt 0.132600 0.166700
vt 0.132600 0.833300
vt 0.165200 0.833300
vt 0.165200 1.000000
vt 0.132600 1.000000
vt 0.132600 0.666700
vt 0.165200 0.666700
vt 0.132600 0.500000
vt 0.165200 0.500000
vt 0.132600 0.333300
vt 0.165200 0.333300
vt 0.238300 0.413600
vt 0.238300 0.482400
vt 0.259400 0.482400
vt 0.218100 0.482400
vt 0.238300 0.736300
vt 0.238300 0.956100
vt 0.259400 0.956100
vt 0.259400 0.736300
vt 0.218100 0.956100
vt 0.218100 0.736300
vt 0.238300 0.567000
vt 0.259400 0.567000
vt 0.218100 0.567000
vt 0.238300 0.314700
vt 0.238300 0.383400
vt 0.259400 0.383400
vt 0.218100 0.383400
vt 0.238300 0.796700
vt 0.238300 0.956100
vt 0.259400 0.956100
vt 0.259400 0.796700
vt 0.218100 0.796700
vt 0.218100 0.956100
vt 0.238300 0.637400
vt 0.259400 0.637400
vt 0.218100 0.637400
vt 0.238300 0.552700
vt 0.259400 0.552700
vt 0.218100 0.552700
vt 0.238300 0.468100
vt 0.259400 0.468100
vt 0.218100 0.468100
vt 0.238300 0.413600
vt 0.259400 0.482400
vt 0.238300 0.482400
vt 0.218100 0.482400
vt 0.238300 0.736300
vt 0.259400 0.736300
vt 0.259400 0.956100
vt 0.238300 0.956100
vt 0.218100 0.956100
vt 0.218100 0.736300
vt 0.238300 0.567000
vt 0.259400 0.567000
vt 0.218100 0.567000
vt 0.238300 0.314700
vt 0.259400 0.383400
vt 0.238300 0.383400
vt 0.218100 0.383400
vt 0.238300 0.796700
vt 0.259400 0.796700
vt 0.259400 0.956100
vt 0.238300 0.956100
vt 0.218100 0.796700
vt 0.218100 0.956100
vt 0.238300 0.637400
vt 0.259400 0.637400
vt 0.218100 0.637400
vt 0.238300 0.552700
vt 0.259400 0.552700
vt 0.218100 0.552700
vt 0.238300 0.468100
vt 0.259400 0.468100
vt 0.218100 0.468100
vt 0.238300 0.314700
vt 0.238300 0.383400
vt 0.259400 0.383400
vt 0.218100 0.383400
vt 0.238300 0.796700
vt 0.238300 0.956100
vt 0.259400 0.956100
vt 0.259400 0.796700
vt 0.218100 0.796700
vt 0.218100 0.956100
vt 0.238300 0.637400
vt 0.259400 0.637400
vt 0.218100 0.637400
vt 0.238300 0.552700
vt 0.259400 0.552700
vt 0.218100 0.552700
vt 0.238300 0.468100
vt 0.259400 0.468100
vt 0.218100 0.468100
vt 0.238300 0.314700
vt 0.259400 0.383400
vt 0.238300 0.383400
vt 0.218100 0.383400
vt 0.238300 0.796700
vt 0.259400 0.796700
vt 0.259400 0.956100
vt 0.238300 0.956100
vt 0.218100 0.796700
vt 0.218100 0.956100
vt 0.238300 0.637400
vt 0.259400 0.637400
vt 0.218100 0.637400
vt 0.238300 0.552700
vt 0.259400 0.552700
vt 0.218100 0.552700
vt 0.238300 0.468100
vt 0.259400 0.468100
vt 0.218100 0.468100
vn -0.6275 -0.2255 -0.7452
vn -0.6280 -0.2200 -0.7465
vn -0.6280 -0.2201 -0.7465
vn -0.3660 -0.8692 -0.3323
vn -0.3613 -0.8736 -0.3259
vn -0.3661 -0.8692 -0.3324
vn -0.4381 -0.7878 -0.4330
vn -0.4393 -0.7862 -0.4346
vn -0.5566 -0.5635 -0.6105
vn -0.5578 -0.5602 -0.6124
vn -0.6174 -0.3172 -0.7199
vn -0.6178 -0.3144 -0.7208
vn 0.6914 -0.6570 -0.3006
vn 0.5679 -0.5819 -0.5821
vn 0.3878 -0.7701 -0.5066
vn 0.4895 -0.8350 -0.2513
vn 0.1026 -0.9803 -0.1685
vn 0.2144 -0.9544 -0.2078
vn 0.2797 -0.8877 -0.3658
vn 0.8350 -0.4357 -0.3361
vn 0.6538 -0.3591 -0.6660
vn 0.8997 -0.2606 -0.3503
vn 0.5951 -0.1727 -0.7849
vn 0.9310 -0.2536 -0.2626
vn 0.5135 -0.0948 -0.8529
vn 0.9122 -0.3066 0.2718
vn 0.7732 -0.2943 0.5618
vn 0.8791 -0.4665 0.0972
vn 0.7555 -0.6549 0.0162
vn 0.5626 -0.8262 -0.0293
vn 0.2789 -0.9492 -0.1456
vn -0.7277 -0.6110 0.3116
vn -0.6681 -0.5023 0.5489
vn -0.3793 -0.6944 0.6115
vn -0.4496 -0.7910 0.4150
vn -0.0109 -0.9048 0.4257
vn -0.1090 -0.8783 0.4655
vn -0.1724 -0.7985 0.5767
vn -0.8852 -0.4168 0.2068
vn -0.7938 -0.3455 0.5005
vn -0.9646 -0.2376 0.1148
vn -0.8251 -0.2099 0.5245
vn -0.9759 -0.2168 0.0251
vn -0.7900 -0.1521 0.5940
vn -0.8773 -0.2637 -0.4009
vn -0.7162 -0.2301 -0.6589
vn -0.8566 -0.4865 -0.1719
vn -0.7256 -0.6860 0.0543
vn -0.4573 -0.8509 0.2587
vn -0.1226 -0.8983 0.4219
vn 0.2125 -0.2890 0.9334
vn 0.2375 -0.2617 0.9355
vn -0.4244 -0.2300 0.8758
vn -0.4440 -0.2401 0.8633
vn 0.7775 -0.2109 0.5925
vn 0.7881 -0.1742 0.5905
vn 0.6552 -0.5251 0.5432
vn 0.6985 -0.5367 0.4734
vn 0.0913 -0.6085 0.7883
vn 0.0466 -0.5957 0.8019
vn 0.9760 -0.2169 0.0212
vn 0.9729 -0.2274 -0.0425
vn 0.5845 -0.4514 0.6743
vn -0.0608 -0.5300 0.8458
vn 0.9648 -0.1871 0.1849
vn 0.4648 -0.3375 0.8185
vn -0.2035 -0.4020 0.8927
vn 0.9134 -0.1535 0.3771
vn 0.3319 -0.2534 0.9087
vn -0.3335 -0.2754 0.9016
vn 0.8376 -0.1397 0.5281
vn -0.6432 0.1529 0.7503
vn -0.7095 0.0782 0.7004
vn -0.6939 0.0861 0.7149
vn -0.6307 0.1598 0.7594
vn -0.8632 -0.4991 -0.0762
vn -0.8078 -0.5822 -0.0922
vn -0.8082 -0.5820 -0.0903
vn -0.8677 -0.4926 -0.0661
vn -0.9158 -0.3975 0.0577
vn -0.9143 -0.3964 0.0835
vn -0.9008 -0.3065 0.3076
vn -0.8938 -0.2900 0.3420
vn -0.8285 -0.1010 0.5508
vn -0.8119 -0.0861 0.5774
vn -0.0274 -0.5587 -0.8289
vn -0.3347 -0.5111 -0.7917
vn -0.2980 -0.7169 -0.6303
vn -0.0228 -0.7558 -0.6545
vn -0.0417 -0.9539 -0.2972
vn -0.0487 -0.9121 -0.4071
vn -0.1849 -0.8427 -0.5057
vn -0.0401 -0.3287 -0.9436
vn -0.4113 -0.2861 -0.8654
vn -0.0520 -0.1511 -0.9871
vn -0.5610 -0.1164 -0.8196
vn 0.0291 -0.1372 -0.9901
vn -0.6579 -0.0530 -0.7512
vn 0.5461 -0.1748 -0.8193
vn 0.7812 -0.1727 -0.6000
vn 0.3832 -0.3387 -0.8594
vn 0.2872 -0.5375 -0.7929
vn 0.2055 -0.7287 -0.6533
vn 0.0275 -0.8940 -0.4472
vn -0.9155 -0.1489 0.3737
vn -0.9165 -0.1416 0.3742
vn -0.4607 -0.8674 0.1881
vn -0.4544 -0.8713 0.1855
vn -0.5671 -0.7904 0.2316
vn -0.7686 -0.5574 0.3138
vn -0.8927 -0.2649 0.3645
vn 0.0213 -0.5396 0.8417
vn 0.2755 -0.4552 0.8467
vn 0.3928 -0.6833 0.6155
vn 0.1738 -0.7551 0.6321
vn 0.2927 -0.9263 0.2374
vn 0.3059 -0.8902 0.3377
vn 0.4054 -0.8108 0.4223
vn -0.0977 -0.3273 0.9399
vn 0.2143 -0.2849 0.9343
vn -0.1847 -0.1386 0.9730
vn 0.2471 -0.1519 0.9570
vn -0.2621 -0.1119 0.9585
vn 0.3312 -0.1040 0.9378
vn -0.6533 -0.1405 0.7439
vn -0.8518 -0.1086 0.5125
vn -0.4540 -0.3735 0.8089
vn -0.2290 -0.5944 0.7709
vn 0.0148 -0.8001 0.5997
vn 0.2578 -0.9040 0.3411
vn -0.9254 -0.0148 -0.3788
vn -0.8899 -0.0777 -0.4496
vn -0.8973 -0.0692 -0.4359
vn -0.9295 -0.0103 -0.3686
vn -0.1533 -0.5100 -0.8464
vn -0.1118 -0.5826 -0.8050
vn -0.1136 -0.5827 -0.8047
vn -0.1612 -0.5114 -0.8441
vn -0.3123 -0.4365 -0.8438
vn -0.3324 -0.4370 -0.8358
vn -0.5576 -0.3738 -0.7412
vn -0.5823 -0.3637 -0.7271
vn -0.7734 -0.2183 -0.5951
vn -0.7897 -0.2052 -0.5781
vn 0.6275 0.2256 0.7452
vn 0.6280 0.2202 0.7465
vn 0.6280 0.2200 0.7465
vn 0.3660 0.8692 0.3324
vn 0.3661 0.8692 0.3325
vn 0.3613 0.8736 0.3259
vn 0.4382 0.7877 0.4330
vn 0.4394 0.7862 0.4346
vn 0.5566 0.5636 0.6104
vn 0.5578 0.5602 0.6124
vn 0.6174 0.3172 0.7199
vn 0.6177 0.3145 0.7207
vn -0.6913 0.6571 0.3006
vn -0.4893 0.8351 0.2513
vn -0.3876 0.7698 0.5072
vn -0.5673 0.5816 0.5830
vn -0.1027 0.9803 0.1685
vn -0.2797 0.8876 0.3659
vn -0.2142 0.9545 0.2076
vn -0.6525 0.3586 0.6676
vn -0.8348 0.4359 0.3362
vn -0.5906 0.1715 0.7886
vn -0.8993 0.2609 0.3510
vn -0.5046 0.0927 0.8583
vn -0.9307 0.2559 0.2612
vn -0.9107 0.3067 -0.2768
vn -0.7629 0.2945 -0.5756
vn -0.8789 0.4666 -0.0991
vn -0.7556 0.6549 -0.0171
vn -0.5628 0.8261 0.0286
vn -0.2792 0.9492 0.1455
vn 0.7274 0.6113 -0.3118
vn 0.4493 0.7911 -0.4151
vn 0.3790 0.6939 -0.6122
vn 0.6677 0.5021 -0.5497
vn 0.0110 0.9048 -0.4258
vn 0.1724 0.7983 -0.5771
vn 0.1088 0.8784 -0.4654
vn 0.7932 0.3453 -0.5016
vn 0.8850 0.4171 -0.2068
vn 0.8229 0.2095 -0.5281
vn 0.9644 0.2380 -0.1152
vn 0.7850 0.1513 -0.6008
vn 0.9755 0.2188 -0.0237
vn 0.8753 0.2640 0.4050
vn 0.7044 0.2309 0.6712
vn 0.8560 0.4870 0.1734
vn 0.7255 0.6861 -0.0537
vn 0.4577 0.8508 -0.2582
vn 0.1233 0.8981 -0.4221
vn -0.2123 0.2889 -0.9335
vn 0.4580 0.2375 -0.8567
vn 0.4389 0.2279 -0.8692
vn -0.2368 0.2618 -0.9356
vn -0.7870 0.2077 -0.5810
vn -0.7969 0.1712 -0.5794
vn -0.6559 0.5247 -0.5427
vn -0.0324 0.5942 -0.8037
vn -0.0763 0.6069 -0.7911
vn -0.6991 0.5365 -0.4727
vn -0.9782 0.2074 -0.0076
vn -0.9743 0.2183 0.0554
vn -0.5850 0.4509 -0.6742
vn 0.0756 0.5290 -0.8452
vn -0.9687 0.1791 -0.1717
vn -0.4648 0.3371 -0.8187
vn 0.2189 0.4014 -0.8894
vn -0.9194 0.1479 -0.3646
vn -0.3315 0.2532 -0.9089
vn 0.3484 0.2745 -0.8963
vn -0.8453 0.1361 -0.5166
vn 0.6431 -0.1529 -0.7504
vn 0.6307 -0.1597 -0.7594
vn 0.6939 -0.0860 -0.7150
vn 0.7094 -0.0781 -0.7004
vn 0.8632 0.4991 0.0763
vn 0.8678 0.4925 0.0662
vn 0.8082 0.5820 0.0903
vn 0.8079 0.5821 0.0923
vn 0.9158 0.3974 -0.0577
vn 0.9143 0.3963 -0.0835
vn 0.9008 0.3066 -0.3076
vn 0.8939 0.2898 -0.3420
vn 0.8285 0.1012 -0.5508
vn 0.8119 0.0861 -0.5774
vn 0.0275 0.5588 0.8289
vn 0.0228 0.7559 0.6543
vn 0.2984 0.7167 0.6302
vn 0.3354 0.5110 0.7915
vn 0.0417 0.9539 0.2973
vn 0.1850 0.8426 0.5057
vn 0.0486 0.9122 0.4069
vn 0.4127 0.2858 0.8648
vn 0.0403 0.3288 0.9435
vn 0.5647 0.1161 0.8171
vn 0.0526 0.1514 0.9871
vn 0.6637 0.0525 0.7462
vn -0.0299 0.1389 0.9899
vn -0.5492 0.1749 0.8172
vn -0.7887 0.1735 0.5897
vn -0.3844 0.3387 0.8588
vn -0.2878 0.5374 0.7927
vn -0.2059 0.7286 0.6532
vn -0.0276 0.8939 0.4474
vn 0.9155 0.1489 -0.3738
vn 0.9165 0.1416 -0.3742
vn 0.4608 0.8674 -0.1881
vn 0.4544 0.8713 -0.1855
vn 0.5672 0.7904 -0.2316
vn 0.7686 0.5574 -0.3138
vn 0.8927 0.2650 -0.3645
vn -0.0215 0.5398 -0.8415
vn -0.1739 0.7553 -0.6319
vn -0.3934 0.6830 -0.6154
vn -0.2761 0.4551 -0.8465
vn -0.2927 0.9262 -0.2375
vn -0.4057 0.8106 -0.4223
vn -0.3058 0.8902 -0.3376
vn -0.2152 0.2848 -0.9341
vn 0.0978 0.3275 -0.9398
vn -0.2501 0.1520 -0.9562
vn 0.1844 0.1388 -0.9730
vn -0.3370 0.1041 -0.9357
vn 0.2630 0.1134 -0.9581
vn 0.6559 0.1406 -0.7417
vn 0.8582 0.1095 -0.5015
vn 0.4550 0.3738 -0.8082
vn 0.2295 0.5945 -0.7707
vn -0.0144 0.8000 -0.5998
vn -0.2579 0.9038 -0.3416
vn 0.9254 0.0149 0.3788
vn 0.9295 0.0104 0.3686
vn 0.8973 0.0693 0.4360
vn 0.8898 0.0778 0.4496
vn 0.1534 0.5100 0.8464
vn 0.1612 0.5113 0.8442
vn 0.1136 0.5826 0.8048
vn 0.1118 0.5826 0.8050
vn 0.3123 0.4364 0.8438
vn 0.3324 0.4369 0.8359
vn 0.5576 0.3739 0.7411
vn 0.5823 0.3636 0.7271
vn 0.7734 0.2185 0.5951
vn 0.7897 0.2052 0.5781
vn -0.1614 -0.0977 -0.9820
vn -0.1722 -0.0771 -0.9820
vn 0.4731 -0.1604 -0.8663
vn -0.7331 0.0422 -0.6788
vn -0.5850 -0.1605 -0.7950
vn -0.6763 -0.3149 -0.6659
vn -0.0398 -0.4402 -0.8970
vn 0.1069 -0.3305 -0.9377
vn -0.9990 -0.0037 -0.0451
vn -0.9643 0.0547 -0.2589
vn -0.2770 -0.0403 -0.9600
vn 0.3920 -0.2012 -0.8977
vn -0.7867 0.1139 -0.6067
vn -0.3582 -0.0600 0.9317
vn -0.3440 -0.0923 0.9344
vn -0.8555 -0.0182 0.5175
vn 0.3090 -0.1368 0.9412
vn 0.0573 -0.6396 0.7665
vn 0.0855 -0.6030 0.7931
vn -0.4641 -0.5390 0.7029
vn -0.5033 -0.5636 0.6550
vn 0.6043 -0.4965 0.6232
vn 0.5912 -0.4861 0.6435
vn -0.0287 -0.6466 0.7623
vn -0.5834 -0.5423 0.6045
vn 0.5300 -0.5330 0.6596
vn -0.1532 -0.5275 0.8357
vn -0.7079 -0.3944 0.5860
vn 0.4636 -0.4544 0.7606
vn -0.2732 -0.2761 0.9215
vn -0.8098 -0.1746 0.5601
vn 0.3830 -0.2747 0.8820
vn 0.1600 0.0979 0.9823
vn -0.4837 0.1615 0.8602
vn 0.1717 0.0771 0.9821
vn 0.7401 -0.0444 0.6710
vn 0.5850 0.1594 0.7952
vn -0.1178 0.3315 0.9361
vn 0.0286 0.4403 0.8974
vn 0.6760 0.3146 0.6664
vn 0.9995 -0.0030 0.0328
vn 0.9670 -0.0588 0.2477
vn 0.2755 0.0406 0.9604
vn -0.4040 0.2034 0.8919
vn 0.7926 -0.1160 0.5986
vn 0.3590 0.0599 -0.9314
vn 0.8598 0.0171 -0.5103
vn 0.3444 0.0922 -0.9343
vn -0.3159 0.1368 -0.9389
vn -0.0590 0.6397 -0.7663
vn 0.5084 0.5619 -0.6525
vn 0.4698 0.5377 -0.7002
vn -0.0870 0.6033 -0.7927
vn -0.6120 0.4925 -0.6187
vn -0.5987 0.4829 -0.6390
vn 0.0281 0.6467 -0.7622
vn 0.5892 0.5401 -0.6009
vn -0.5371 0.5300 -0.6563
vn 0.1530 0.5276 -0.8356
vn 0.7134 0.3919 -0.5809
vn -0.4712 0.4522 -0.7573
vn 0.2737 0.2759 -0.9214
vn 0.8146 0.1730 -0.5537
vn -0.3899 0.2739 -0.8792
vn 0.9950 -0.0753 0.0651
vn 0.9926 -0.1106 0.0499
vn 0.7443 -0.0813 0.6629
vn 0.8107 -0.1032 -0.5762
vn 0.6964 -0.5831 -0.4184
vn 0.6631 -0.6091 -0.4351
vn 0.7716 -0.6120 0.1737
vn 0.7740 -0.5954 0.2155
vn 0.3211 -0.3082 -0.8955
vn 0.2565 -0.3404 -0.9046
vn 0.8067 -0.4885 -0.3327
vn 0.7947 -0.5147 0.3218
vn 0.4707 -0.2412 -0.8487
vn 0.9051 -0.3791 -0.1925
vn 0.7933 -0.3920 0.4657
vn 0.6221 -0.2029 -0.7562
vn 0.9689 -0.2420 -0.0511
vn 0.7740 -0.2262 0.5914
vn 0.7446 -0.1631 -0.6473
vn -0.9950 0.0752 -0.0660
vn -0.7386 0.0807 -0.6693
vn -0.9926 0.1105 -0.0504
vn -0.8065 0.1027 0.5822
vn -0.6960 0.5828 0.4194
vn -0.7730 0.5942 -0.2222
vn -0.7710 0.6107 -0.1807
vn -0.6629 0.6091 0.4355
vn -0.3143 0.3031 0.8996
vn -0.2499 0.3354 0.9083
vn -0.8065 0.4883 0.3334
vn -0.7924 0.5138 -0.3287
vn -0.4644 0.2371 0.8533
vn -0.9051 0.3790 0.1928
vn -0.7897 0.3912 -0.4726
vn -0.6166 0.2000 0.7615
vn -0.9690 0.2418 0.0510
vn -0.7692 0.2255 -0.5979
vn -0.7399 0.1616 0.6530
s 1
f 1/1/1 2/2/2 3/3/3
f 3/3/3 4/4/1 1/1/1
f 5/5/4 6/6/5 7/7/5
f 7/7/5 8/8/6 5/5/4
f 9/9/7 5/5/4 8/8/6
f 8/8/6 10/10/8 9/9/7
f 11/11/9 9/9/7 10/10/8
f 10/10/8 12/12/10 11/11/9
f 13/13/11 11/11/9 12/12/10
f 12/12/10 14/14/12 13/13/11
f 2/2/2 13/13/11 14/14/12
f 14/14/12 3/3/3 2/2/2
s 2
f 15/15/13 16/16/14 17/17/15
f 17/17/15 18/18/16 15/15/13
f 19/19/17 20/20/18 21/21/19
f 15/15/13 22/22/20 23/23/21
f 23/23/21 16/16/14 15/15/13
f 22/22/20 24/24/22 25/25/23
f 25/25/23 23/23/21 22/22/20
f 24/24/22 26/26/24 27/27/25
f 27/27/25 25/25/23 24/24/22
f 18/18/16 17/17/15 21/21/19
f 21/21/19 20/20/18 18/18/16
f 28/28/26 29/29/27 26/26/24
f 26/26/24 24/24/22 28/28/26
f 30/30/28 28/28/26 24/24/22
f 24/24/22 22/22/20 30/30/28
f 31/31/29 30/30/28 22/22/20
f 22/22/20 15/15/13 31/31/29
f 31/31/29 15/15/13 18/18/16
f 18/18/16 32/32/30 31/31/29
f 32/32/30 18/18/16 20/20/18
f 20/20/18 33/33/31 32/32/30
f 19/19/17 33/33/31 20/20/18
s 3
f 34/34/32 35/35/33 36/36/34
f 36/36/34 37/37/35 34/34/32
f 38/38/36 39/39/37 40/40/38
f 34/34/32 41/41/39 42/42/40
f 42/42/40 35/35/33 34/34/32
f 41/41/39 43/43/41 44/44/42
f 44/44/42 42/42/40 41/41/39
f 43/43/41 45/45/43 46/46/44
f 46/46/44 44/44/42 43/43/41
f 37/37/35 36/36/34 40/40/38
f 40/40/38 39/39/37 37/37/35
f 47/47/45 48/48/46 45/45/43
f 45/45/43 43/43/41 47/47/45
f 49/49/47 47/47/45 43/43/41
f 43/43/41 41/41/39 49/49/47
f 50/50/48 49/49/47 41/41/39
f 41/41/39 34/34/32 50/50/48
f 50/50/48 34/34/32 37/37/35
f 37/37/35 51/51/49 50/50/48
f 51/51/49 37/37/35 39/39/37
f 39/39/37 52/52/50 51/51/49
f 38/38/36 52/52/50 39/39/37
s 4
f 53/53/51 54/54/52 55/55/53
f 55/55/53 56/56/54 53/53/51
f 57/57/55 58/58/56 54/54/52
f 54/54/52 53/53/51 57/57/55
f 59/59/57 60/60/58 61/61/59
f 61/61/59 62/62/60 59/59/57
f 63/63/61 64/64/62 60/60/58
f 60/60/58 59/59/57 63/63/61
f 65/65/63 59/59/57 62/62/60
f 62/62/60 66/66/64 65/65/63
f 67/67/65 63/63/61 59/59/57
f 59/59/57 65/65/63 67/67/65
f 68/68/66 65/65/63 66/66/64
f 66/66/64 69/69/67 68/68/66
f 70/70/68 67/67/65 65/65/63
f 65/65/63 68/68/66 70/70/68
f 71/71/69 68/68/66 69/69/67
f 69/69/67 72/72/70 71/71/69
f 73/73/71 70/70/68 68/68/66
f 68/68/66 71/71/69 73/73/71
f 54/54/52 71/71/69 72/72/70
f 72/72/70 55/55/53 54/54/52
f 58/58/56 73/73/71 71/71/69
f 71/71/69 54/54/52 58/58/56
s 5
f 74/74/72 75/75/73 76/76/74
f 76/76/74 77/77/75 74/74/72
f 78/78/76 79/79/77 80/80/78
f 80/80/78 81/81/79 78/78/76
f 82/82/80 78/78/76 81/81/79
f 81/81/79 83/83/81 82/82/80
f 84/84/82 82/82/80 83/83/81
f 83/83/81 85/85/83 84/84/82
f 86/86/84 84/84/82 85/85/83
f 85/85/83 87/87/85 86/86/84
f 75/75/73 86/86/84 87/87/85
f 87/87/85 76/76/74 75/75/73
s 6
f 88/88/86 89/89/87 90/90/88
f 90/90/88 91/91/89 88/88/86
f 92/92/90 93/93/91 94/94/92
f 88/88/86 95/95/93 96/96/94
f 96/96/94 89/89/87 88/88/86
f 95/95/93 97/97/95 98/98/96
f 98/98/96 96/96/94 95/95/93
f 97/97/95 99/99/97 100/100/98
f 100/100/98 98/98/96 97/97/95
f 91/91/89 90/90/88 94/94/92
f 94/94/92 93/93/91 91/91/89
f 101/101/99 102/102/100 99/99/97
f 99/99/97 97/97/95 101/101/99
f 103/103/101 101/101/99 97/97/95
f 97/97/95 95/95/93 103/103/101
f 104/104/102 103/103/101 95/95/93
f 95/95/93 88/88/86 104/104/102
f 104/104/102 88/88/86 91/91/89
f 91/91/89 105/105/103 104/104/102
f 105/105/103 91/91/89 93/93/91
f 93/93/91 106/106/104 105/105/103
f 92/92/90 106/106/104 93/93/91
s 7
f 107/107/105 108/108/106 109/109/106
f 109/109/106 110/110/105 107/107/105
f 111/111/107 112/112/108 113/113/108
f 113/113/108 114/114/107 111/111/107
f 115/115/109 111/111/107 114/114/107
f 114/114/107 116/116/109 115/115/109
f 117/117/110 115/115/109 116/116/109
f 116/116/109 118/118/110 117/117/110
f 119/119/111 117/117/110 118/118/110
f 118/118/110 120/120/111 119/119/111
f 108/108/106 119/119/111 120/120/111
f 120/120/111 109/109/106 108/108/106
s 8
f 121/121/112 122/122/113 123/123/114
f 123/123/114 124/124/115 121/121/112
f 125/125/116 126/126/117 127/127/118
f 121/121/112 128/128/119 129/129/120
f 129/129/120 122/122/113 121/121/112
f 128/128/119 130/130/121 131/131/122
f 131/131/122 129/129/120 128/128/119
f 130/130/121 132/132/123 133/133/124
f 133/133/124 131/131/122 130/130/121
f 124/124/115 123/123/114 127/127/118
f 127/127/118 126/126/117 124/124/115
f 134/134/125 135/135/126 132/132/123
f 132/132/123 130/130/121 134/134/125
f 136/136/127 134/134/125 130/130/121
f 130/130/121 128/128/119 136/136/127
f 137/137/128 136/136/127 128/128/119
f 128/128/119 121/121/112 137/137/128
f 137/137/128 121/121/112 124/124/115
f 124/124/115 138/138/129 137/137/128
f 138/138/129 124/124/115 126/126/117
f 126/126/117 139/139/130 138/138/129
f 125/125/116 139/139/130 126/126/117
s 9
f 140/140/131 141/141/132 142/142/133
f 142/142/133 143/143/134 140/140/131
f 144/144/135 145/145/136 146/146/137
f 146/146/137 147/147/138 144/144/135
f 148/148/139 144/144/135 147/147/138
f 147/147/138 149/149/140 148/148/139
f 150/150/141 148/148/139 149/149/140
f 149/149/140 151/151/142 150/150/141
f 152/152/143 150/150/141 151/151/142
f 151/151/142 153/153/144 152/152/143
f 141/141/132 152/152/143 153/153/144
f 153/153/144 142/142/133 141/141/132
s 10
f 154/154/145 155/155/145 156/156/146
f 156/156/146 157/157/147 154/154/145
f 158/158/148 159/159/149 160/160/150
f 160/160/150 161/161/150 158/158/148
f 162/162/151 163/163/152 159/159/149
f 159/159/149 158/158/148 162/162/151
f 164/164/153 165/165/154 163/163/152
f 163/163/152 162/162/151 164/164/153
f 166/166/155 167/167/156 165/165/154
f 165/165/154 164/164/153 166/166/155
f 157/157/147 156/156/146 167/167/156
f 167/167/156 166/166/155 157/157/147
s 11
f 168/168/157 169/169/158 170/170/159
f 170/170/159 171/171/160 168/168/157
f 172/172/161 173/173/162 174/174/163
f 168/168/157 171/171/160 175/175/164
f 175/175/164 176/176/165 168/168/157
f 176/176/165 175/175/164 177/177/166
f 177/177/166 178/178/167 176/176/165
f 178/178/167 177/177/166 179/179/168
f 179/179/168 180/180/169 178/178/167
f 169/169/158 174/174/163 173/173/162
f 173/173/162 170/170/159 169/169/158
f 181/181/170 178/178/167 180/180/169
f 180/180/169 182/182/171 181/181/170
f 183/183/172 176/176/165 178/178/167
f 178/178/167 181/181/170 183/183/172
f 184/184/173 168/168/157 176/176/165
f 176/176/165 183/183/172 184/184/173
f 184/184/173 185/185/174 169/169/158
f 169/169/158 168/168/157 184/184/173
f 185/185/174 186/186/175 174/174/163
f 174/174/163 169/169/158 185/185/174
f 172/172/161 174/174/163 186/186/175
s 12
f 187/187/176 188/188/177 189/189/178
f 189/189/178 190/190/179 187/187/176
f 191/191/180 192/192/181 193/193/182
f 187/187/176 190/190/179 194/194/183
f 194/194/183 195/195/184 187/187/176
f 195/195/184 194/194/183 196/196/185
f 196/196/185 197/197/186 195/195/184
f 197/197/186 196/196/185 198/198/187
f 198/198/187 199/199/188 197/197/186
f 188/188/177 193/193/182 192/192/181
f 192/192/181 189/189/178 188/188/177
f 200/200/189 197/197/186 199/199/188
f 199/199/188 201/201/190 200/200/189
f 202/202/191 195/195/184 197/197/186
f 197/197/186 200/200/189 202/202/191
f 203/203/192 187/187/176 195/195/184
f 195/195/184 202/202/191 203/203/192
f 203/203/192 204/204/193 188/188/177
f 188/188/177 187/187/176 203/203/192
f 204/204/193 205/205/194 193/193/182
f 193/193/182 188/188/177 204/204/193
f 191/191/180 193/193/182 205/205/194
s 13
f 206/206/195 207/207/196 208/208/197
f 208/208/197 209/209/198 206/206/195
f 210/210/199 206/206/195 209/209/198
f 209/209/198 211/211/200 210/210/199
f 212/212/201 213/213/202 214/214/203
f 214/214/203 215/215/204 212/212/201
f 216/216/205 212/212/201 215/215/204
f 215/215/204 217/217/206 216/216/205
f 218/218/207 219/219/208 213/213/202
f 213/213/202 212/212/201 218/218/207
f 220/220/209 218/218/207 212/212/201
f 212/212/201 216/216/205 220/220/209
f 221/221/210 222/222/211 219/219/208
f 219/219/208 218/218/207 221/221/210
f 223/223/212 221/221/210 218/218/207
f 218/218/207 220/220/209 223/223/212
f 224/224/213 225/225/214 222/222/211
f 222/222/211 221/221/210 224/224/213
f 226/226/215 224/224/213 221/221/210
f 221/221/210 223/223/212 226/226/215
f 209/209/198 208/208/197 225/225/214
f 225/225/214 224/224/213 209/209/198
f 211/211/200 209/209/198 224/224/213
f 224/224/213 226/226/215 211/211/200
s 14
f 227/227/216 228/228/217 229/229/218
f 229/229/218 230/230/219 227/227/216
f 231/231/220 232/232/221 233/233/222
f 233/233/222 234/234/223 231/231/220
f 235/235/224 236/236/225 232/232/221
f 232/232/221 231/231/220 235/235/224
f 237/237/226 238/238/227 236/236/225
f 236/236/225 235/235/224 237/237/226
f 239/239/228 240/240/229 238/238/227
f 238/238/227 237/237/226 239/239/228
f 230/230/219 229/229/218 240/240/229
f 240/240/229 239/239/228 230/230/219
s 15
f 241/241/230 242/242/231 243/243/232
f 243/243/232 244/244/233 241/241/230
f 245/245/234 246/246/235 247/247/236
f 241/241/230 244/244/233 248/248/237
f 248/248/237 249/249/238 241/241/230
f 249/249/238 248/248/237 250/250/239
f 250/250/239 251/251/240 249/249/238
f 251/251/240 250/250/239 252/252/241
f 252/252/241 253/253/242 251/251/240
f 242/242/231 247/247/236 246/246/235
f 246/246/235 243/243/232 242/242/231
f 254/254/243 251/251/240 253/253/242
f 253/253/242 255/255/244 254/254/243
f 256/256/245 249/249/238 251/251/240
f 251/251/240 254/254/243 256/256/245
f 257/257/246 241/241/230 249/249/238
f 249/249/238 256/256/245 257/257/246
f 257/257/246 258/258/247 242/242/231
f 242/242/231 241/241/230 257/257/246
f 258/258/247 259/259/248 247/247/236
f 247/247/236 242/242/231 258/258/247
f 245/245/234 247/247/236 259/259/248
s 16
f 260/260/249 261/261/249 262/262/250
f 262/262/250 263/263/250 260/260/249
f 264/264/251 265/265/251 266/266/252
f 266/266/252 267/267/252 264/264/251
f 268/268/253 269/269/253 265/265/251
f 265/265/251 264/264/251 268/268/253
f 270/270/254 271/271/254 269/269/253
f 269/269/253 268/268/253 270/270/254
f 272/272/255 273/273/255 271/271/254
f 271/271/254 270/270/254 272/272/255
f 263/263/250 262/262/250 273/273/255
f 273/273/255 272/272/255 263/263/250
s 17
f 274/274/256 275/275/257 276/276/258
f 276/276/258 277/277/259 274/274/256
f 278/278/260 279/279/261 280/280/262
f 274/274/256 277/277/259 281/281/263
f 281/281/263 282/282/264 274/274/256
f 282/282/264 281/281/263 283/283/265
f 283/283/265 284/284/266 282/282/264
f 284/284/266 283/283/265 285/285/267
f 285/285/267 286/286/268 284/284/266
f 275/275/257 280/280/262 279/279/261
f 279/279/261 276/276/258 275/275/257
f 287/287/269 284/284/266 286/286/268
f 286/286/268 288/288/270 287/287/269
f 289/289/271 282/282/264 284/284/266
f 284/284/266 287/287/269 289/289/271
f 290/290/272 274/274/256 282/282/264
f 282/282/264 289/289/271 290/290/272
f 290/290/272 291/291/273 275/275/257
f 275/275/257 274/274/256 290/290/272
f 291/291/273 292/292/274 280/280/262
f 280/280/262 275/275/257 291/291/273
f 278/278/260 280/280/262 292/292/274
s 18
f 293/293/275 294/294/276 295/295/277
f 295/295/277 296/296/278 293/293/275
f 297/297/279 298/298/280 299/299/281
f 299/299/281 300/300/282 297/297/279
f 301/301/283 302/302/284 298/298/280
f 298/298/280 297/297/279 301/301/283
f 303/303/285 304/304/286 302/302/284
f 302/302/284 301/301/283 303/303/285
f 305/305/287 306/306/288 304/304/286
f 304/304/286 303/303/285 305/305/287
f 296/296/278 295/295/277 306/306/288
f 306/306/288 305/305/287 296/296/278
s 19
f 307/307/289 308/308/290 309/309/291
f 310/310/292 308/308/290 307/307/289
f 311/311/293 312/312/294 313/313/295
f 313/313/295 314/314/296 311/311/293
f 315/315/297 312/312/294 311/311/293
f 311/311/293 316/316/298 315/315/297
f 317/317/299 311/311/293 314/314/296
f 314/314/296 318/318/300 317/317/299
f 316/316/298 311/311/293 317/317/299
f 317/317/299 319/319/301 316/316/298
f 308/308/290 317/317/299 318/318/300
f 318/318/300 309/309/291 308/308/290
f 310/310/292 319/319/301 317/317/299
f 317/317/299 308/308/290 310/310/292
s 20
f 320/320/302 321/321/303 322/322/304
f 323/323/305 321/321/303 320/320/302
f 324/324/306 325/325/307 326/326/308
f 326/326/308 327/327/309 324/324/306
f 328/328/310 329/329/311 325/325/307
f 325/325/307 324/324/306 328/328/310
f 330/330/312 324/324/306 327/327/309
f 327/327/309 331/331/313 330/330/312
f 332/332/314 328/328/310 324/324/306
f 324/324/306 330/330/312 332/332/314
f 333/333/315 330/330/312 331/331/313
f 331/331/313 334/334/316 333/333/315
f 335/335/317 332/332/314 330/330/312
f 330/330/312 333/333/315 335/335/317
f 336/336/318 333/333/315 334/334/316
f 334/334/316 337/337/319 336/336/318
f 338/338/320 335/335/317 333/333/315
f 333/333/315 336/336/318 338/338/320
f 321/321/303 336/336/318 337/337/319
f 337/337/319 322/322/304 321/321/303
f 323/323/305 338/338/320 336/336/318
f 336/336/318 321/321/303 323/323/305
s 21
f 339/339/321 340/340/322 341/341/323
f 342/342/324 339/339/321 341/341/323
f 343/343/325 344/344/326 345/345/327
f 345/345/327 346/346/328 343/343/325
f 347/347/329 348/348/330 343/343/325
f 343/343/325 346/346/328 347/347/329
f 349/349/331 350/350/332 344/344/326
f 344/344/326 343/343/325 349/349/331
f 348/348/330 351/351/333 349/349/331
f 349/349/331 343/343/325 348/348/330
f 341/341/323 340/340/322 350/350/332
f 350/350/332 349/349/331 341/341/323
f 342/342/324 341/341/323 349/349/331
f 349/349/331 351/351/333 342/342/324
s 22
f 352/352/334 353/353/335 354/354/336
f 355/355/337 352/352/334 354/354/336
f 356/356/338 357/357/339 358/358/340
f 358/358/340 359/359/341 356/356/338
f 360/360/342 356/356/338 359/359/341
f 359/359/341 361/361/343 360/360/342
f 362/362/344 363/363/345 357/357/339
f 357/357/339 356/356/338 362/362/344
f 364/364/346 362/362/344 356/356/338
f 356/356/338 360/360/342 364/364/346
f 365/365/347 366/366/348 363/363/345
f 363/363/345 362/362/344 365/365/347
f 367/367/349 365/365/347 362/362/344
f 362/362/344 364/364/346 367/367/349
f 368/368/350 369/369/351 366/366/348
f 366/366/348 365/365/347 368/368/350
f 370/370/352 368/368/350 365/365/347
f 365/365/347 367/367/349 370/370/352
f 354/354/336 353/353/335 369/369/351
f 369/369/351 368/368/350 354/354/336
f 355/355/337 354/354/336 368/368/350
f 368/368/350 370/370/352 355/355/337
s 23
f 371/371/353 372/372/354 373/373/355
f 374/374/356 372/372/354 371/371/353
f 375/375/357 376/376/358 377/377/359
f 377/377/359 378/378/360 375/375/357
f 379/379/361 380/380/362 376/376/358
f 376/376/358 375/375/357 379/379/361
f 381/381/363 375/375/357 378/378/360
f 378/378/360 382/382/364 381/381/363
f 383/383/365 379/379/361 375/375/357
f 375/375/357 381/381/363 383/383/365
f 384/384/366 381/381/363 382/382/364
f 382/382/364 385/385/367 384/384/366
f 386/386/368 383/383/365 381/381/363
f 381/381/363 384/384/366 386/386/368
f 387/387/369 384/384/366 385/385/367
f 385/385/367 388/388/370 387/387/369
f 389/389/371 386/386/368 384/384/366
f 384/384/366 387/387/369 389/389/371
f 372/372/354 387/387/369 388/388/370
f 388/388/370 373/373/355 372/372/354
f 374/374/356 389/389/371 387/387/369
f 387/387/369 372/372/354 374/374/356
s 24
f 390/390/372 391/391/373 392/392/374
f 393/393/375 390/390/372 392/392/374
f 394/394/376 395/395/377 396/396/378
f 396/396/378 397/397/379 394/394/376
f 398/398/380 394/394/376 397/397/379
f 397/397/379 399/399/381 398/398/380
f 400/400/382 401/401/383 395/395/377
f 395/395/377 394/394/376 400/400/382
f 402/402/384 400/400/382 394/394/376
f 394/394/376 398/398/380 402/402/384
f 403/403/385 404/404/386 401/401/383
f 401/401/383 400/400/382 403/403/385
f 405/405/387 403/403/385 400/400/382
f 400/400/382 402/402/384 405/405/387
f 406/406/388 407/407/389 404/404/386
f 404/404/386 403/403/385 406/406/388
f 408/408/390 406/406/388 403/403/385
f 403/403/385 405/405/387 408/408/390
f 392/392/374 391/391/373 407/407/389
f 407/407/389 406/406/388 392/392/374
f 393/393/375 392/392/374 406/406/388
f 406/406/388 408/408/390 393/393/375
