# 3ds Max Wavefront OBJ Exporter v0.99 - (c)2007 guruware
# File Created: 19.11.2024 10:16:36

#
# object FlaxStage01
#

v  -2.4992 -4.8848 -1.1745
v  2.4992 -4.8848 -1.1745
v  1.0367 11.9537 -12.6255
v  -3.9879 13.0546 -12.1199
v  -3.1546 9.5538 -22.7563
v  -7.7747 11.8940 -22.0396
v  -2.4992 -4.9703 -1.2956
v  2.4992 -4.9702 -1.2956
v  0.9950 11.7273 -12.6134
v  -4.0263 12.8336 -12.1080
v  -3.2111 9.3727 -22.6971
v  -7.8291 11.7160 -21.9804
v  2.6687 -4.1263 -0.7190
v  -1.4097 -4.1263 -1.8118
v  5.0912 10.0056 -11.5192
v  9.0804 10.9356 -10.0082
v  12.4352 6.9452 -20.2888
v  16.0482 8.9220 -18.6939
v  2.6952 -4.1985 -0.8178
v  -1.3832 -4.1985 -1.9106
v  5.1226 9.8144 -11.5003
v  9.1091 10.7489 -9.9902
v  12.4683 6.7922 -20.2281
v  16.0797 8.7716 -18.6337
v  2.4091 -5.6355 0.3054
v  -1.9393 -5.6355 -0.0751
v  -1.0757 11.3238 -5.1383
v  3.3406 11.4526 -4.5779
v  1.2338 19.4651 -13.3902
v  5.5512 20.2428 -12.3954
v  7.1585 20.0757 -23.8902
v  11.0902 21.8357 -22.5376
v  2.4193 -5.6715 0.1890
v  -1.9291 -5.6715 -0.1914
v  -1.0559 11.2066 -5.2191
v  3.3598 11.3384 -4.6571
v  1.2725 19.2706 -13.4155
v  5.5871 20.0528 -12.4202
v  7.2060 19.9053 -23.8670
v  11.1358 21.6678 -22.5140
v  1.3878 -4.8848 -2.3874
v  0.9522 -4.8848 2.5921
v  12.4871 11.9537 2.1331
v  12.4214 13.0546 -2.9164
v  22.9447 9.5538 -1.1593
v  22.6334 11.8940 -5.8242
v  1.5085 -4.9703 -2.3768
v  1.0728 -4.9702 2.6027
v  12.4787 11.7273 2.0906
v  12.4129 12.8336 -2.9557
v  22.8906 9.3727 -1.2207
v  22.5791 11.7160 -5.8836
v  0.4827 -6.0889 -1.3392
v  1.2256 -5.4585 2.9356
v  2.6092 12.4861 0.7517
v  1.6617 11.9105 -3.5773
v  4.7412 18.0080 -1.0139
v  3.2550 17.9202 -5.2286
v  12.4772 23.0941 -5.5046
v  10.4836 23.8741 -9.3437
v  0.6008 -6.0850 -1.3600
v  1.3436 -5.4546 2.9148
v  2.7086 12.3986 0.7288
v  1.7590 11.8254 -3.5995
v  4.8012 17.8250 -1.0460
v  3.3138 17.7417 -5.2580
v  12.4849 22.9167 -5.5413
v  10.4907 23.6992 -9.3787
v  2.3874 -4.8848 1.3878
v  -2.5921 -4.8848 0.9522
v  -2.1331 11.9536 12.4871
v  2.9164 13.0546 12.4214
v  0.1878 9.5538 20.0452
v  4.8528 11.8940 19.7339
v  2.3768 -4.9703 1.5085
v  -2.6027 -4.9702 1.0728
v  -2.0906 11.7273 12.4787
v  2.9557 12.8336 12.4129
v  0.2493 9.3727 19.9911
v  4.9122 11.7160 19.6796
v  -2.7213 -4.1263 0.4836
v  1.2464 -4.1263 1.9278
v  -6.0758 10.0056 11.0317
v  -9.9181 10.9356 9.1787
v  -14.1562 6.9452 19.1278
v  -17.6164 8.9220 17.2241
v  -2.7562 -4.1985 0.5798
v  1.2114 -4.1985 2.0239
v  -6.1054 9.8144 11.0101
v  -9.9452 10.7489 9.1582
v  -14.1839 6.7922 19.0644
v  -17.6425 8.7716 17.1614
v  -2.3733 -5.6355 -0.5142
v  1.9254 -5.6355 0.2438
v  0.6238 11.3238 5.2125
v  -3.7268 11.4526 4.2693
v  -0.9773 16.0894 10.2018
v  -5.1917 16.8671 8.8345
v  -5.4492 20.0757 20.2543
v  -9.2479 21.8357 18.5642
v  -2.3936 -5.6715 -0.3992
v  1.9051 -5.6715 0.3588
v  0.5970 11.2066 5.2913
v  -3.7529 11.3384 4.3466
v  -1.0181 15.8949 10.2237
v  -5.2296 16.6771 8.8561
v  -5.4944 19.9052 20.2271
v  -9.2914 21.6678 18.5367
v  2.1604 -5.1318 -0.2367
v  -1.5071 -4.8054 0.0527
v  2.8035 14.0176 11.4397
v  6.4832 14.3508 10.6328
v  7.2005 15.7038 20.2946
v  10.6000 16.8950 19.1846
v  2.1666 -5.1632 -0.1384
v  -1.5010 -4.8368 0.1509
v  2.8276 13.8507 11.4610
v  6.5050 14.1879 10.6536
v  7.2334 15.5566 20.2749
v  10.6315 16.7501 19.1646
v  0.0942 -5.6355 -2.4265
v  0.0942 -5.6355 1.9385
v  -4.9176 11.3238 -0.2277
v  -3.9744 11.4526 -4.5783
v  -11.8222 19.4651 -3.7429
v  -10.0927 20.2428 -7.8221
v  -21.8872 20.0757 -9.5891
v  -19.8724 21.8357 -13.2262
v  -0.0225 -5.6715 -2.4265
v  -0.0225 -5.6715 1.9385
v  -4.9964 11.2066 -0.2545
v  -4.0517 11.3384 -4.6044
v  -11.8404 19.2706 -3.7855
v  -10.1109 20.0528 -7.8617
v  -21.8561 19.9053 -9.6319
v  -19.8413 21.6678 -13.2670
v  -2.0709 -4.5782 -2.5016
v  -0.8518 -5.0059 0.9450
v  -4.8399 9.1595 2.8380
v  -6.1521 9.6484 -0.6892
v  -11.3825 15.6357 4.9783
v  -12.6726 16.5530 1.5784
v  -20.7952 16.3913 7.4813
v  -22.1664 17.9593 4.3590
v  -2.1647 -4.6101 -2.4717
v  -0.9447 -5.0377 0.9755
v  -4.9085 9.0624 2.8465
v  -6.2214 9.5532 -0.6788
v  -11.4184 15.4765 4.9580
v  -12.7098 16.3965 1.5619
v  -20.8074 16.2503 7.4431
v  -22.1792 17.8200 4.3219
v  -0.2429 -6.0889 1.4027
v  -1.7168 -5.4585 -2.6782
v  -5.1861 20.7700 2.9962
v  -2.3480 20.6822 6.4483
v  -10.4644 25.8562 9.1064
v  -7.8345 26.6361 12.5411
v  -0.3555 -6.0850 1.4437
v  -1.8294 -5.4546 -2.6372
v  -5.2395 20.5870 3.0348
v  -2.4012 20.5037 6.4840
v  -10.4657 25.6787 9.1439
v  -7.8355 26.4613 12.5768
v  -6.6604 5.8216 -26.7367
v  -10.1796 7.8101 -26.1541
v  -6.6914 5.7133 -26.6879
v  -10.2098 7.7030 -26.1053
v  16.4963 3.9828 -22.6154
v  18.5831 5.2602 -21.6688
v  16.5074 3.9132 -22.5800
v  18.5938 5.1914 -21.6335
v  10.7783 18.2190 -27.5217
v  13.3277 19.5012 -26.5867
v  10.7996 18.1287 -27.5004
v  13.3484 19.4117 -26.5653
v  27.2113 5.8459 -4.3512
v  26.9447 7.7830 -7.8159
v  27.1666 5.7404 -4.3854
v  26.9000 7.6787 -7.8494
v  15.4663 22.2011 -8.6630
v  14.2925 22.7313 -10.7862
v  15.4628 22.1187 -8.6756
v  14.2888 22.6496 -10.7983
v  4.5703 5.9606 27.1918
v  7.6010 7.6551 26.9586
v  4.6003 5.8683 27.1527
v  7.6303 7.5638 26.9195
v  -18.2533 4.7467 21.7639
v  -20.5511 6.2170 20.4692
v  -18.2625 4.6667 21.7222
v  -20.5597 6.1378 20.4277
v  -9.4866 18.2743 23.5018
v  -11.7166 19.4375 22.4553
v  -9.5042 18.1924 23.4810
v  -11.7336 19.3563 22.4344
v  10.2971 13.9118 23.3306
v  12.2032 14.6803 22.6681
v  10.3093 13.8448 23.3151
v  12.2150 14.6140 22.6525
v  -24.8486 18.2073 -13.7612
v  -23.4582 19.5147 -16.1558
v  -24.8235 18.1151 -13.7788
v  -23.4331 19.4235 -16.1728
v  -24.9618 14.8477 7.9686
v  -25.9266 16.0135 5.8305
v  -24.9614 14.7695 7.9433
v  -25.9264 15.9357 5.8056
v  -12.8312 24.9261 13.1345
v  -11.0546 25.5439 15.3334
v  -12.8247 24.8301 13.1482
v  -11.0479 25.4487 15.3465
v  -11.3665 2.9390 -30.5070
v  -11.3900 2.8406 -30.4403
v  20.4246 1.0041 -22.3300
v  20.4292 0.9211 -22.2705
v  13.7201 14.1670 -28.9136
v  13.7372 14.0642 -28.8725
v  29.4402 2.2013 -8.6644
v  29.3759 2.1029 -8.6936
v  17.4855 19.5518 -11.7394
v  17.4653 19.4369 -11.7471
v  8.6644 2.9847 28.9293
v  8.6936 2.8864 28.8649
v  -22.9138 1.3575 22.9076
v  -22.9132 1.2744 22.8479
v  -13.8431 15.6336 25.1187
v  -13.8565 15.5307 25.0763
v  13.5908 11.1640 24.8999
v  13.6010 11.0762 24.8652
v  -27.4392 16.8106 -18.5009
v  -27.3958 16.7078 -18.5105
v  -29.4077 13.7209 7.8902
v  -29.3944 13.6350 7.8551
v  -14.7398 22.0657 16.9099
v  -14.7185 21.9508 16.9140
# 236 vertices

vn 0.1018 0.5447 0.8324
vn 0.1018 0.5447 0.8324
vn 0.2026 0.8703 0.4490
vn 0.2026 0.8703 0.4490
vn 0.1832 0.9352 0.3030
vn 0.1018 0.5447 0.8324
vn 0.1832 0.9352 0.3030
vn 0.2026 0.8703 0.4490
vn 0.2774 0.7802 -0.5606
vn 0.2774 0.7802 -0.5606
vn 0.3096 0.7704 -0.5573
vn 0.2165 0.6204 -0.7538
vn 0.2165 0.6204 -0.7538
vn 0.2166 0.6204 -0.7538
vn 0.2774 0.7802 -0.5606
vn -0.1843 -0.9348 -0.3035
vn -0.2033 -0.8686 -0.4519
vn -0.1020 -0.5434 -0.8332
vn -0.1020 -0.5434 -0.8332
vn -0.1020 -0.5434 -0.8332
vn -0.1843 -0.9348 -0.3035
vn -0.1843 -0.9348 -0.3035
vn -0.2798 -0.7824 0.5564
vn -0.2033 -0.8686 -0.4519
vn -0.2798 -0.7824 0.5564
vn -0.2189 -0.6233 0.7507
vn -0.2189 -0.6233 0.7507
vn -0.2189 -0.6233 0.7507
vn -0.3121 -0.7726 0.5530
vn -0.2798 -0.7824 0.5564
vn -0.2228 0.9650 0.1385
vn -0.2879 0.8940 0.3433
vn -0.3061 0.6106 0.7304
vn -0.3061 0.6106 0.7304
vn -0.3061 0.6106 0.7304
vn -0.2228 0.9650 0.1385
vn -0.2228 0.9650 0.1385
vn -0.1101 0.7634 -0.6365
vn -0.2879 0.8940 0.3433
vn -0.1101 0.7634 -0.6365
vn 0.1177 0.4730 -0.8731
vn 0.1073 0.4867 -0.8670
vn 0.1073 0.4867 -0.8670
vn -0.1388 0.7583 -0.6370
vn -0.1101 0.7634 -0.6365
vn 0.3065 -0.6101 -0.7306
vn 0.3065 -0.6101 -0.7306
vn 0.2891 -0.8929 -0.3452
vn 0.2891 -0.8929 -0.3452
vn 0.2237 -0.9649 -0.1378
vn 0.3065 -0.6101 -0.7306
vn 0.2237 -0.9649 -0.1378
vn 0.2891 -0.8929 -0.3452
vn 0.1145 -0.7664 0.6320
vn 0.1145 -0.7664 0.6320
vn 0.1431 -0.7612 0.6325
vn -0.1038 -0.4908 0.8651
vn -0.1038 -0.4908 0.8651
vn -0.1148 -0.4765 0.8716
vn 0.1145 -0.7664 0.6320
vn -0.1065 0.2840 0.9529
vn -0.1580 0.5207 0.8390
vn -0.1532 0.4977 0.8537
vn -0.1532 0.4977 0.8537
vn -0.1065 0.2840 0.9529
vn -0.1065 0.2840 0.9529
vn -0.1580 0.5207 0.8390
vn -0.2035 0.9162 0.3452
vn -0.2273 0.8777 0.4219
vn -0.2273 0.8777 0.4219
vn -0.1532 0.4977 0.8537
vn -0.1580 0.5207 0.8390
vn -0.2035 0.9162 0.3452
vn -0.2526 0.8968 -0.3632
vn -0.2273 0.8777 0.4219
vn -0.2526 0.8968 -0.3632
vn -0.0558 0.6727 -0.7378
vn -0.0376 0.6499 -0.7591
vn -0.0376 0.6499 -0.7591
vn -0.2890 0.8948 -0.3402
vn -0.2526 0.8968 -0.3632
vn 0.1068 -0.2834 -0.9530
vn 0.1068 -0.2834 -0.9530
vn 0.1537 -0.4978 -0.8536
vn 0.1537 -0.4978 -0.8536
vn 0.1587 -0.5215 -0.8384
vn 0.1068 -0.2834 -0.9530
vn 0.1587 -0.5215 -0.8384
vn 0.1537 -0.4978 -0.8536
vn 0.2282 -0.8774 -0.4219
vn 0.2282 -0.8774 -0.4219
vn 0.2046 -0.9162 -0.3446
vn 0.1587 -0.5215 -0.8384
vn 0.2046 -0.9162 -0.3446
vn 0.2282 -0.8774 -0.4219
vn 0.2561 -0.8983 0.3570
vn 0.2561 -0.8983 0.3570
vn 0.2922 -0.8960 0.3345
vn 0.0405 -0.6533 0.7560
vn 0.0405 -0.6533 0.7560
vn 0.0591 -0.6765 0.7341
vn 0.2561 -0.8983 0.3570
vn -0.8381 0.5447 0.0289
vn -0.8381 0.5447 0.0289
vn -0.4540 0.8709 0.1881
vn -0.4540 0.8709 0.1881
vn -0.2702 0.9334 0.2362
vn -0.8381 0.5447 0.0289
vn -0.2702 0.9334 0.2362
vn -0.4540 0.8709 0.1881
vn 0.4927 0.8135 0.3089
vn 0.4927 0.8135 0.3089
vn 0.5208 0.7967 0.3067
vn -0.2702 0.9334 0.2362
vn 0.5208 0.7967 0.3067
vn 0.4927 0.8135 0.3089
vn 0.8203 0.5270 0.2222
vn 0.8203 0.5270 0.2222
vn 0.8190 0.5287 0.2231
vn 0.5208 0.7967 0.3067
vn 0.2703 -0.9330 -0.2374
vn 0.4570 -0.8693 -0.1883
vn 0.8390 -0.5434 -0.0290
vn 0.8390 -0.5434 -0.0290
vn 0.8390 -0.5434 -0.0290
vn 0.2703 -0.9330 -0.2374
vn 0.2703 -0.9330 -0.2374
vn -0.5162 -0.7988 -0.3090
vn -0.4876 -0.8158 -0.3111
vn -0.4876 -0.8158 -0.3111
vn 0.4570 -0.8693 -0.1883
vn 0.2703 -0.9330 -0.2374
vn -0.5162 -0.7988 -0.3090
vn -0.8164 -0.5318 -0.2252
vn -0.8177 -0.5302 -0.2243
vn -0.8177 -0.5302 -0.2243
vn -0.4876 -0.8158 -0.3111
vn -0.5162 -0.7988 -0.3090
vn -0.9794 0.0919 0.1795
vn -0.9794 0.0919 0.1795
vn -0.9551 0.2189 0.1996
vn -0.9551 0.2189 0.1996
vn -0.9650 0.1963 0.1739
vn -0.9794 0.0919 0.1795
vn -0.9650 0.1963 0.1739
vn -0.9551 0.2189 0.1996
vn -0.7422 0.6338 0.2178
vn -0.7422 0.6338 0.2178
vn -0.7259 0.6304 0.2749
vn -0.0593 0.9789 0.1955
vn -0.0593 0.9789 0.1955
vn -0.0737 0.9679 0.2405
vn 0.4742 0.8786 -0.0557
vn 0.4742 0.8786 -0.0557
vn 0.4732 0.8792 -0.0551
vn -0.0593 0.9789 0.1955
vn 0.9794 -0.0914 -0.1799
vn 0.9650 -0.1958 -0.1745
vn 0.9550 -0.2185 -0.2003
vn 0.9550 -0.2185 -0.2003
vn 0.9794 -0.0914 -0.1799
vn 0.9794 -0.0914 -0.1799
vn 0.9650 -0.1958 -0.1745
vn 0.7424 -0.6332 -0.2187
vn 0.9550 -0.2185 -0.2003
vn 0.7424 -0.6332 -0.2187
vn 0.0689 -0.9771 -0.2011
vn 0.7262 -0.6296 -0.2759
vn 0.0689 -0.9771 -0.2011
vn -0.4666 -0.8830 0.0504
vn -0.4677 -0.8824 0.0511
vn -0.4677 -0.8824 0.0511
vn 0.0828 -0.9658 -0.2456
vn 0.0689 -0.9771 -0.2011
vn -0.0289 0.5447 -0.8381
vn -0.0289 0.5447 -0.8381
vn -0.1744 0.8832 -0.4355
vn -0.1744 0.8832 -0.4355
vn -0.1559 0.9408 -0.3011
vn -0.0289 0.5447 -0.8381
vn -0.1559 0.9408 -0.3011
vn -0.1744 0.8832 -0.4355
vn -0.3425 0.8192 0.4599
vn -0.3425 0.8192 0.4599
vn -0.3744 0.7964 0.4749
vn -0.2698 0.6097 0.7453
vn -0.2698 0.6097 0.7453
vn -0.2607 0.5939 0.7611
vn -0.3425 0.8192 0.4599
vn 0.1570 -0.9403 0.3018
vn 0.1748 -0.8814 0.4389
vn 0.0290 -0.5434 0.8390
vn 0.0290 -0.5434 0.8390
vn 0.0290 -0.5434 0.8390
vn 0.1570 -0.9403 0.3018
vn 0.1570 -0.9403 0.3018
vn 0.3445 -0.8213 -0.4548
vn 0.1748 -0.8814 0.4389
vn 0.3445 -0.8213 -0.4548
vn 0.2621 -0.5958 -0.7592
vn 0.2715 -0.6121 -0.7427
vn 0.2715 -0.6121 -0.7427
vn 0.3764 -0.7983 -0.4702
vn 0.3445 -0.8213 -0.4548
vn 0.2340 0.9650 -0.1185
vn 0.3168 0.8940 -0.3169
vn 0.3686 0.6106 -0.7009
vn 0.3686 0.6106 -0.7009
vn 0.3686 0.6106 -0.7009
vn 0.2340 0.9650 -0.1185
vn 0.2340 0.9650 -0.1185
vn 0.1144 0.8042 0.5833
vn 0.3168 0.8940 -0.3169
vn 0.1144 0.8042 0.5833
vn -0.0359 0.6410 0.7667
vn -0.0348 0.6422 0.7657
vn -0.0348 0.6422 0.7657
vn 0.1362 0.7949 0.5913
vn 0.1144 0.8042 0.5833
vn -0.3690 -0.6101 0.7012
vn -0.3690 -0.6101 0.7012
vn -0.3181 -0.8929 0.3187
vn -0.3181 -0.8929 0.3187
vn -0.2349 -0.9649 0.1178
vn -0.3690 -0.6101 0.7012
vn -0.2349 -0.9649 0.1178
vn -0.3181 -0.8929 0.3187
vn -0.1192 -0.8068 -0.5787
vn -0.1192 -0.8068 -0.5787
vn -0.1406 -0.7973 -0.5870
vn 0.0306 -0.6459 -0.7628
vn 0.0306 -0.6459 -0.7628
vn 0.0319 -0.6446 -0.7639
vn -0.1192 -0.8068 -0.5787
vn 0.1891 0.2840 -0.9400
vn 0.2302 0.5180 -0.8238
vn 0.2274 0.4999 -0.8357
vn 0.2274 0.4999 -0.8357
vn 0.1891 0.2840 -0.9400
vn 0.1891 0.2840 -0.9400
vn 0.2302 0.5180 -0.8238
vn 0.2713 0.8228 -0.4994
vn 0.2933 0.8097 -0.5082
vn 0.2933 0.8097 -0.5082
vn 0.2274 0.4999 -0.8357
vn 0.2302 0.5180 -0.8238
vn 0.2713 0.8228 -0.4994
vn 0.2963 0.9271 0.2295
vn 0.2933 0.8097 -0.5082
vn 0.2963 0.9271 0.2295
vn 0.0386 0.7195 0.6934
vn 0.0484 0.7300 0.6818
vn 0.0484 0.7300 0.6818
vn 0.3469 0.9186 0.1895
vn 0.2963 0.9271 0.2295
vn -0.1894 -0.2834 0.9401
vn -0.1894 -0.2834 0.9401
vn -0.2279 -0.5004 0.8353
vn -0.2279 -0.5004 0.8353
vn -0.2308 -0.5194 0.8228
vn -0.1894 -0.2834 0.9401
vn -0.2308 -0.5194 0.8228
vn -0.2279 -0.5004 0.8353
vn -0.2941 -0.8096 0.5080
vn -0.2941 -0.8096 0.5080
vn -0.2723 -0.8227 0.4990
vn -0.2308 -0.5194 0.8228
vn -0.2723 -0.8227 0.4990
vn -0.2941 -0.8096 0.5080
vn -0.3006 -0.9275 -0.2224
vn -0.3006 -0.9275 -0.2224
vn -0.3510 -0.9185 -0.1821
vn -0.0522 -0.7335 -0.6777
vn -0.0522 -0.7335 -0.6777
vn -0.0417 -0.7225 -0.6901
vn -0.3006 -0.9275 -0.2224
vn -0.1266 0.5195 -0.8450
vn -0.1266 0.5195 -0.8450
vn -0.1938 0.7868 -0.5860
vn -0.1938 0.7868 -0.5860
vn -0.2101 0.8510 -0.4813
vn -0.1266 0.5195 -0.8450
vn -0.2101 0.8510 -0.4813
vn -0.1938 0.7868 -0.5860
vn -0.1965 0.9625 0.1871
vn -0.1965 0.9625 0.1871
vn -0.1822 0.9472 0.2640
vn -0.2101 0.8510 -0.4813
vn -0.1822 0.9472 0.2640
vn -0.1965 0.9625 0.1871
vn -0.0377 0.7201 0.6928
vn -0.0377 0.7201 0.6928
vn -0.0287 0.7072 0.7064
vn -0.1822 0.9472 0.2640
vn 0.2111 -0.8508 0.4813
vn 0.1945 -0.7859 0.5870
vn 0.1269 -0.5198 0.8448
vn 0.1269 -0.5198 0.8448
vn 0.1269 -0.5198 0.8448
vn 0.2111 -0.8508 0.4813
vn 0.2111 -0.8508 0.4813
vn 0.1863 -0.9485 -0.2563
vn 0.2002 -0.9632 -0.1795
vn 0.2002 -0.9632 -0.1795
vn 0.1945 -0.7859 0.5870
vn 0.2111 -0.8508 0.4813
vn 0.1863 -0.9485 -0.2563
vn 0.0314 -0.7106 -0.7029
vn 0.0409 -0.7242 -0.6884
vn 0.0409 -0.7242 -0.6884
vn 0.2002 -0.9632 -0.1795
vn 0.1863 -0.9485 -0.2563
vn 0.9728 0.2316 -0.0000
vn 0.8627 0.4706 0.1850
vn 0.9692 0.2440 0.0347
vn 0.8627 0.4706 0.1850
vn 0.3412 0.8959 0.2844
vn 0.8583 0.4598 0.2279
vn 0.3412 0.8959 0.2844
vn -0.3668 0.9070 0.2069
vn 0.3550 0.8683 0.3465
vn -0.3668 0.9070 0.2069
vn -0.5940 0.8004 0.0810
vn -0.5938 0.8006 0.0802
vn -0.5938 0.8006 0.0802
vn -0.3653 0.8996 0.2393
vn -0.3668 0.9070 0.2069
vn -0.9731 -0.2305 0.0000
vn -0.9694 -0.2431 -0.0350
vn -0.8624 -0.4710 -0.1855
vn -0.8624 -0.4710 -0.1855
vn -0.8582 -0.4597 -0.2287
vn -0.3405 -0.8959 -0.2851
vn -0.3405 -0.8959 -0.2851
vn -0.3548 -0.8679 -0.3475
vn 0.3614 -0.9081 -0.2113
vn 0.3614 -0.9081 -0.2113
vn 0.3599 -0.9006 -0.2436
vn 0.5898 -0.8032 -0.0841
vn 0.5898 -0.8032 -0.0841
vn 0.5905 -0.8026 -0.0844
vn 0.3614 -0.9081 -0.2113
vn 0.9096 0.2965 -0.2912
vn 0.8194 0.5359 -0.2037
vn 0.8347 0.5066 -0.2161
vn 0.8347 0.5066 -0.2161
vn 0.9096 0.2965 -0.2912
vn 0.9096 0.2965 -0.2912
vn 0.8194 0.5359 -0.2037
vn 0.4420 0.8955 0.0525
vn 0.4934 0.8687 0.0435
vn 0.4934 0.8687 0.0435
vn 0.8347 0.5066 -0.2161
vn 0.8194 0.5359 -0.2037
vn 0.4420 0.8955 0.0525
vn -0.0274 0.8959 0.4434
vn 0.4934 0.8687 0.0435
vn -0.2238 0.8160 0.5329
vn -0.2236 0.8159 0.5331
vn -0.0107 0.8887 0.4583
vn -0.0107 0.8887 0.4583
vn -0.0274 0.8959 0.4434
vn -0.2238 0.8160 0.5329
vn -0.9097 -0.2959 0.2915
vn -0.9097 -0.2959 0.2915
vn -0.8346 -0.5068 0.2160
vn -0.8346 -0.5068 0.2160
vn -0.8189 -0.5367 0.2033
vn -0.9097 -0.2959 0.2915
vn -0.8189 -0.5367 0.2033
vn -0.8346 -0.5068 0.2160
vn -0.4937 -0.8686 -0.0437
vn -0.4937 -0.8686 -0.0437
vn -0.4418 -0.8955 -0.0532
vn -0.8189 -0.5367 0.2033
vn -0.4418 -0.8955 -0.0532
vn -0.4937 -0.8686 -0.0437
vn 0.0210 -0.8969 -0.4417
vn 0.0043 -0.8897 -0.4565
vn 0.2185 -0.8179 -0.5323
vn 0.2185 -0.8180 -0.5320
vn 0.2185 -0.8180 -0.5320
vn 0.0210 -0.8969 -0.4417
vn 0.0043 -0.8897 -0.4565
vn 0.8602 0.1865 -0.4746
vn 0.8602 0.1865 -0.4746
vn 0.7131 0.5222 -0.4678
vn 0.7131 0.5222 -0.4678
vn 0.7027 0.5526 -0.4482
vn 0.8602 0.1865 -0.4746
vn 0.7027 0.5526 -0.4482
vn 0.7131 0.5222 -0.4678
vn -0.0127 0.9807 -0.1953
vn -0.0127 0.9807 -0.1953
vn 0.0632 0.9600 -0.2727
vn -0.4473 0.8854 0.1262
vn -0.4473 0.8854 0.1262
vn -0.4515 0.8828 0.1299
vn -0.0127 0.9807 -0.1953
vn -0.7025 -0.5519 0.4493
vn -0.7138 -0.5202 0.4690
vn -0.8602 -0.1858 0.4750
vn -0.8602 -0.1858 0.4750
vn -0.8602 -0.1858 0.4750
vn -0.7025 -0.5519 0.4493
vn -0.7025 -0.5519 0.4493
vn 0.0055 -0.9795 0.2016
vn -0.7138 -0.5202 0.4690
vn 0.0055 -0.9795 0.2016
vn 0.4469 -0.8858 -0.1253
vn 0.4424 -0.8886 -0.1212
vn 0.4424 -0.8886 -0.1212
vn -0.0696 -0.9580 0.2781
vn 0.0055 -0.9795 0.2016
vn 0.2165 0.6204 -0.7538
vn 0.2247 0.6183 -0.7532
vn 0.2166 0.6204 -0.7538
vn -0.1038 -0.4908 0.8651
vn -0.2667 -0.2533 0.9299
vn -0.1148 -0.4765 0.8716
vn 0.0405 -0.6533 0.7560
vn -0.1309 -0.4008 0.9068
vn 0.0591 -0.6765 0.7341
vn 0.8203 0.5270 0.2222
vn 0.9113 0.3853 0.1453
vn 0.8190 0.5287 0.2231
vn 0.4742 0.8786 -0.0557
vn 0.6646 0.7235 -0.1868
vn 0.4732 0.8792 -0.0551
vn -0.2698 0.6097 0.7453
vn -0.1303 0.3601 0.9238
vn -0.2607 0.5939 0.7611
vn 0.0306 -0.6459 -0.7628
vn 0.1591 -0.5005 -0.8510
vn 0.0319 -0.6446 -0.7639
vn -0.0522 -0.7335 -0.6777
vn 0.0678 -0.5921 -0.8030
vn -0.0417 -0.7225 -0.6901
vn -0.0377 0.7201 0.6928
vn 0.0657 0.5531 0.8306
vn -0.0287 0.7072 0.7064
vn 0.5898 -0.8032 -0.0841
vn 0.5980 -0.7967 -0.0881
vn 0.5905 -0.8026 -0.0844
vn 0.2185 -0.8179 -0.5323
vn 0.2185 -0.8118 -0.5415
vn 0.2185 -0.8180 -0.5320
vn -0.4473 0.8854 0.1262
vn -0.5972 0.7552 0.2703
vn -0.4515 0.8828 0.1299
vn -0.2189 -0.6233 0.7507
vn -0.2189 -0.6233 0.7507
vn -0.2244 -0.6176 0.7538
vn 0.1073 0.4867 -0.8670
vn 0.1177 0.4730 -0.8731
vn 0.2634 0.2584 -0.9294
vn -0.0376 0.6499 -0.7591
vn -0.0558 0.6727 -0.7378
vn 0.1287 0.4044 -0.9055
vn -0.8177 -0.5302 -0.2243
vn -0.8164 -0.5318 -0.2252
vn -0.9123 -0.3833 -0.1442
vn -0.4677 -0.8824 0.0511
vn -0.4666 -0.8830 0.0504
vn -0.6693 -0.7181 0.1906
vn 0.2715 -0.6121 -0.7427
vn 0.2621 -0.5958 -0.7592
vn 0.1279 -0.3559 -0.9257
vn -0.0348 0.6422 0.7657
vn -0.0359 0.6410 0.7667
vn -0.1571 0.5029 0.8499
vn 0.0484 0.7300 0.6818
vn 0.0386 0.7195 0.6934
vn -0.0645 0.5963 0.8002
vn 0.0409 -0.7242 -0.6884
vn 0.0314 -0.7106 -0.7029
vn -0.0685 -0.5482 -0.8336
vn -0.5938 0.8006 0.0802
vn -0.5940 0.8004 0.0810
vn -0.5954 0.7983 0.0902
vn -0.2236 0.8159 0.5331
vn -0.2238 0.8160 0.5329
vn -0.2156 0.8131 0.5407
vn 0.4424 -0.8886 -0.1212
vn 0.4469 -0.8858 -0.1253
vn 0.5999 -0.7520 -0.2733
vn -0.7259 0.6304 0.2749
vn -0.0737 0.9679 0.2405
vn -0.0593 0.9789 0.1955
vn 0.0689 -0.9771 -0.2011
vn 0.0828 -0.9658 -0.2456
vn 0.7262 -0.6296 -0.2759
vn -0.2526 0.8968 -0.3632
vn -0.2890 0.8948 -0.3402
vn -0.2273 0.8777 0.4219
vn 0.2282 -0.8774 -0.4219
vn 0.2922 -0.8960 0.3345
vn 0.2561 -0.8983 0.3570
vn 0.2026 0.8703 0.4490
vn 0.3096 0.7704 -0.5573
vn 0.2774 0.7802 -0.5606
vn -0.2798 -0.7824 0.5564
vn -0.3121 -0.7726 0.5530
vn -0.2033 -0.8686 -0.4519
vn 0.3412 0.8959 0.2844
vn 0.3550 0.8683 0.3465
vn 0.8583 0.4598 0.2279
vn -0.8582 -0.4597 -0.2287
vn -0.3548 -0.8679 -0.3475
vn -0.3405 -0.8959 -0.2851
vn -0.0274 0.8959 0.4434
vn -0.0107 0.8887 0.4583
vn 0.4934 0.8687 0.0435
vn -0.4937 -0.8686 -0.0437
vn 0.0043 -0.8897 -0.4565
vn 0.0210 -0.8969 -0.4417
vn 0.1144 0.8042 0.5833
vn 0.1362 0.7949 0.5913
vn 0.3168 0.8940 -0.3169
vn -0.3181 -0.8929 0.3187
vn -0.1406 -0.7973 -0.5870
vn -0.1192 -0.8068 -0.5787
vn -0.1744 0.8832 -0.4355
vn -0.3744 0.7964 0.4749
vn -0.3425 0.8192 0.4599
vn 0.3445 -0.8213 -0.4548
vn 0.3764 -0.7983 -0.4702
vn 0.1748 -0.8814 0.4389
vn 0.2963 0.9271 0.2295
vn 0.3469 0.9186 0.1895
vn 0.2933 0.8097 -0.5082
vn -0.2941 -0.8096 0.5080
vn -0.3510 -0.9185 -0.1821
vn -0.3006 -0.9275 -0.2224
vn -0.3668 0.9070 0.2069
vn -0.3653 0.8996 0.2393
vn 0.3550 0.8683 0.3465
vn -0.3548 -0.8679 -0.3475
vn 0.3599 -0.9006 -0.2436
vn 0.3614 -0.9081 -0.2113
vn -0.1101 0.7634 -0.6365
vn -0.1388 0.7583 -0.6370
vn -0.2879 0.8940 0.3433
vn 0.2891 -0.8929 -0.3452
vn 0.1431 -0.7612 0.6325
vn 0.1145 -0.7664 0.6320
vn 0.7131 0.5222 -0.4678
vn 0.0632 0.9600 -0.2727
vn -0.0127 0.9807 -0.1953
vn 0.0055 -0.9795 0.2016
vn -0.0696 -0.9580 0.2781
vn -0.7138 -0.5202 0.4690
vn 0.8627 0.4706 0.1850
vn 0.8583 0.4598 0.2279
vn 0.9692 0.2440 0.0347
vn -0.9694 -0.2431 -0.0350
vn -0.8582 -0.4597 -0.2287
vn -0.8624 -0.4710 -0.1855
vn -0.9551 0.2189 0.1996
vn -0.7259 0.6304 0.2749
vn -0.7422 0.6338 0.2178
vn 0.7424 -0.6332 -0.2187
vn 0.7262 -0.6296 -0.2759
vn 0.9550 -0.2185 -0.2003
# 564 vertex normals

vt 0.0074 0.5519 0.0000
vt 0.1130 0.5519 0.0000
vt 0.1130 0.7719 0.0000
vt 0.0074 0.7719 0.0000
vt 0.1130 0.8819 0.0000
vt 0.0074 0.8789 0.0000
vt 0.0074 0.5519 0.0000
vt 0.1130 0.5519 0.0000
vt 0.1130 0.7719 0.0000
vt 0.0074 0.7719 0.0000
vt 0.1130 0.8819 0.0000
vt 0.0074 0.8789 0.0000
vt 0.0074 0.5519 0.0000
vt 0.1130 0.5519 0.0000
vt 0.1130 0.7719 0.0000
vt 0.0074 0.7719 0.0000
vt 0.1130 0.8819 0.0000
vt 0.0074 0.8789 0.0000
vt 0.0074 0.5519 0.0000
vt 0.1130 0.5519 0.0000
vt 0.1130 0.7719 0.0000
vt 0.0074 0.7719 0.0000
vt 0.1130 0.8819 0.0000
vt 0.0074 0.8789 0.0000
vt 0.0074 0.5519 0.0000
vt 0.1130 0.5519 0.0000
vt 0.1130 0.6619 0.0000
vt 0.0074 0.6619 0.0000
vt 0.1130 0.7719 0.0000
vt 0.0074 0.7719 0.0000
vt 0.1130 0.8819 0.0000
vt 0.0074 0.8789 0.0000
vt 0.0074 0.5519 0.0000
vt 0.1130 0.5519 0.0000
vt 0.1130 0.6619 0.0000
vt 0.0074 0.6619 0.0000
vt 0.1130 0.7719 0.0000
vt 0.0074 0.7719 0.0000
vt 0.1130 0.8819 0.0000
vt 0.0074 0.8789 0.0000
vt 0.0074 0.5519 0.0000
vt 0.1130 0.5519 0.0000
vt 0.1130 0.7719 0.0000
vt 0.0074 0.7719 0.0000
vt 0.1130 0.8819 0.0000
vt 0.0074 0.8789 0.0000
vt 0.0074 0.5519 0.0000
vt 0.1130 0.5519 0.0000
vt 0.1130 0.7719 0.0000
vt 0.0074 0.7719 0.0000
vt 0.1130 0.8819 0.0000
vt 0.0074 0.8789 0.0000
vt 0.0074 0.5519 0.0000
vt 0.1130 0.5519 0.0000
vt 0.1130 0.6619 0.0000
vt 0.0074 0.6619 0.0000
vt 0.1130 0.7719 0.0000
vt 0.0074 0.7719 0.0000
vt 0.1130 0.8819 0.0000
vt 0.0074 0.8789 0.0000
vt 0.0074 0.5519 0.0000
vt 0.1130 0.5519 0.0000
vt 0.1130 0.6619 0.0000
vt 0.0074 0.6619 0.0000
vt 0.1130 0.7719 0.0000
vt 0.0074 0.7719 0.0000
vt 0.1130 0.8819 0.0000
vt 0.0074 0.8789 0.0000
vt 0.0074 0.5519 0.0000
vt 0.1130 0.5519 0.0000
vt 0.1130 0.7719 0.0000
vt 0.0074 0.7719 0.0000
vt 0.1130 0.8819 0.0000
vt 0.0074 0.8789 0.0000
vt 0.0074 0.5519 0.0000
vt 0.1130 0.5519 0.0000
vt 0.1130 0.7719 0.0000
vt 0.0074 0.7719 0.0000
vt 0.1130 0.8819 0.0000
vt 0.0074 0.8789 0.0000
vt 0.0074 0.5519 0.0000
vt 0.1130 0.5519 0.0000
vt 0.1130 0.7719 0.0000
vt 0.0074 0.7719 0.0000
vt 0.1130 0.8819 0.0000
vt 0.0074 0.8789 0.0000
vt 0.0074 0.5519 0.0000
vt 0.1130 0.5519 0.0000
vt 0.1130 0.7719 0.0000
vt 0.0074 0.7719 0.0000
vt 0.1130 0.8819 0.0000
vt 0.0074 0.8789 0.0000
vt 0.0074 0.5519 0.0000
vt 0.1130 0.5519 0.0000
vt 0.1130 0.6619 0.0000
vt 0.0074 0.6619 0.0000
vt 0.1130 0.7719 0.0000
vt 0.0074 0.7719 0.0000
vt 0.1130 0.8819 0.0000
vt 0.0074 0.8789 0.0000
vt 0.0074 0.5519 0.0000
vt 0.1130 0.5519 0.0000
vt 0.1130 0.6619 0.0000
vt 0.0074 0.6619 0.0000
vt 0.1130 0.7719 0.0000
vt 0.0074 0.7719 0.0000
vt 0.1130 0.8819 0.0000
vt 0.0074 0.8789 0.0000
vt 0.0074 0.5519 0.0000
vt 0.1130 0.5519 0.0000
vt 0.1130 0.7719 0.0000
vt 0.0074 0.7719 0.0000
vt 0.1130 0.8819 0.0000
vt 0.0074 0.8789 0.0000
vt 0.0074 0.5519 0.0000
vt 0.1130 0.5519 0.0000
vt 0.1130 0.7719 0.0000
vt 0.0074 0.7719 0.0000
vt 0.1130 0.8819 0.0000
vt 0.0074 0.8789 0.0000
vt 0.0074 0.5519 0.0000
vt 0.1130 0.5519 0.0000
vt 0.1130 0.6619 0.0000
vt 0.0074 0.6619 0.0000
vt 0.1130 0.7719 0.0000
vt 0.0074 0.7719 0.0000
vt 0.1130 0.8819 0.0000
vt 0.0074 0.8789 0.0000
vt 0.0074 0.5519 0.0000
vt 0.1130 0.5519 0.0000
vt 0.1130 0.6619 0.0000
vt 0.0074 0.6619 0.0000
vt 0.1130 0.7719 0.0000
vt 0.0074 0.7719 0.0000
vt 0.1130 0.8819 0.0000
vt 0.0074 0.8789 0.0000
vt 0.0074 0.5519 0.0000
vt 0.1130 0.5519 0.0000
vt 0.1130 0.7719 0.0000
vt 0.0074 0.7719 0.0000
vt 0.1130 0.8819 0.0000
vt 0.0074 0.8789 0.0000
vt 0.0074 0.5519 0.0000
vt 0.1130 0.5519 0.0000
vt 0.1130 0.7719 0.0000
vt 0.0074 0.7719 0.0000
vt 0.1130 0.8819 0.0000
vt 0.0074 0.8789 0.0000
vt 0.0074 0.5519 0.0000
vt 0.1130 0.5519 0.0000
vt 0.1130 0.6619 0.0000
vt 0.0074 0.6619 0.0000
vt 0.1130 0.7719 0.0000
vt 0.0074 0.7719 0.0000
vt 0.1130 0.8819 0.0000
vt 0.0074 0.8789 0.0000
vt 0.0074 0.5519 0.0000
vt 0.1130 0.5519 0.0000
vt 0.1130 0.6619 0.0000
vt 0.0074 0.6619 0.0000
vt 0.1130 0.7719 0.0000
vt 0.0074 0.7719 0.0000
vt 0.1130 0.8819 0.0000
vt 0.0074 0.8789 0.0000
vt 0.0982 0.9364 0.0000
vt 0.0301 0.9364 0.0000
vt 0.0982 0.9364 0.0000
vt 0.0301 0.9364 0.0000
vt 0.0982 0.9364 0.0000
vt 0.0301 0.9364 0.0000
vt 0.0982 0.9364 0.0000
vt 0.0301 0.9364 0.0000
vt 0.0982 0.9364 0.0000
vt 0.0301 0.9364 0.0000
vt 0.0982 0.9364 0.0000
vt 0.0301 0.9364 0.0000
vt 0.0982 0.9364 0.0000
vt 0.0301 0.9364 0.0000
vt 0.0982 0.9364 0.0000
vt 0.0301 0.9364 0.0000
vt 0.0982 0.9364 0.0000
vt 0.0301 0.9364 0.0000
vt 0.0982 0.9364 0.0000
vt 0.0301 0.9364 0.0000
vt 0.0982 0.9364 0.0000
vt 0.0301 0.9364 0.0000
vt 0.0982 0.9364 0.0000
vt 0.0301 0.9364 0.0000
vt 0.0982 0.9364 0.0000
vt 0.0301 0.9364 0.0000
vt 0.0982 0.9364 0.0000
vt 0.0301 0.9364 0.0000
vt 0.0982 0.9364 0.0000
vt 0.0301 0.9364 0.0000
vt 0.0982 0.9364 0.0000
vt 0.0301 0.9364 0.0000
vt 0.0982 0.9364 0.0000
vt 0.0301 0.9364 0.0000
vt 0.0982 0.9364 0.0000
vt 0.0301 0.9364 0.0000
vt 0.0982 0.9364 0.0000
vt 0.0301 0.9364 0.0000
vt 0.0982 0.9364 0.0000
vt 0.0301 0.9364 0.0000
vt 0.0982 0.9364 0.0000
vt 0.0301 0.9364 0.0000
vt 0.0982 0.9364 0.0000
vt 0.0301 0.9364 0.0000
vt 0.0982 0.9364 0.0000
vt 0.0301 0.9364 0.0000
vt 0.0982 0.9364 0.0000
vt 0.0301 0.9364 0.0000
vt 0.0563 0.9909 0.0000
vt 0.0563 0.9909 0.0000
vt 0.0563 0.9909 0.0000
vt 0.0563 0.9909 0.0000
vt 0.0563 0.9909 0.0000
vt 0.0563 0.9909 0.0000
vt 0.0563 0.9909 0.0000
vt 0.0563 0.9909 0.0000
vt 0.0563 0.9909 0.0000
vt 0.0563 0.9909 0.0000
vt 0.0563 0.9909 0.0000
vt 0.0563 0.9909 0.0000
vt 0.0563 0.9909 0.0000
vt 0.0563 0.9909 0.0000
vt 0.0563 0.9909 0.0000
vt 0.0563 0.9909 0.0000
vt 0.0563 0.9909 0.0000
vt 0.0563 0.9909 0.0000
vt 0.0563 0.9909 0.0000
vt 0.0563 0.9909 0.0000
vt 0.0563 0.9909 0.0000
vt 0.0563 0.9909 0.0000
vt 0.0563 0.9909 0.0000
vt 0.0563 0.9909 0.0000
# 236 texture coords

o FlaxStage01
g FlaxStage01
s 1
f 1/1/1 2/2/2 3/3/3 
f 3/3/4 4/4/5 1/1/6 
f 4/4/7 3/3/8 6/6/9 
f 6/6/10 5/5/11 165/165/12 
f 165/165/13 166/166/14 6/6/15 
f 10/10/16 9/9/17 8/8/18 
f 8/8/19 7/7/20 10/10/21 
f 10/10/22 12/12/23 9/9/24 
f 12/12/25 168/168/26 167/167/27 
f 167/167/28 11/11/29 12/12/30 
f 16/16/31 15/15/32 14/14/33 
f 14/14/34 13/13/35 16/16/36 
f 16/16/37 18/18/38 15/15/39 
f 18/18/40 170/170/41 169/169/42 
f 169/169/43 17/17/44 18/18/45 
f 19/19/46 20/20/47 21/21/48 
f 21/21/49 22/22/50 19/19/51 
f 22/22/52 21/21/53 24/24/54 
f 24/24/55 23/23/56 171/171/57 
f 171/171/58 172/172/59 24/24/60 
f 25/25/61 28/28/62 27/27/63 
f 27/27/64 26/26/65 25/25/66 
f 28/28/67 30/30/68 29/29/69 
f 29/29/70 27/27/71 28/28/72 
f 30/30/73 32/32/74 29/29/75 
f 32/32/76 174/174/77 173/173/78 
f 173/173/79 31/31/80 32/32/81 
f 33/33/82 34/34/83 35/35/84 
f 35/35/85 36/36/86 33/33/87 
f 36/36/88 35/35/89 37/37/90 
f 37/37/91 38/38/92 36/36/93 
f 38/38/94 37/37/95 40/40/96 
f 40/40/97 39/39/98 175/175/99 
f 175/175/100 176/176/101 40/40/102 
f 41/41/103 42/42/104 43/43/105 
f 43/43/106 44/44/107 41/41/108 
f 44/44/109 43/43/110 45/45/111 
f 45/45/112 46/46/113 44/44/114 
f 46/46/115 45/45/116 177/177/117 
f 177/177/118 178/178/119 46/46/120 
f 50/50/121 49/49/122 48/48/123 
f 48/48/124 47/47/125 50/50/126 
f 50/50/127 52/52/128 51/51/129 
f 51/51/130 49/49/131 50/50/132 
f 52/52/133 180/180/134 179/179/135 
f 179/179/136 51/51/137 52/52/138 
f 53/53/139 54/54/140 55/55/141 
f 55/55/142 56/56/143 53/53/144 
f 56/56/145 55/55/146 58/58/147 
f 58/58/148 57/57/149 60/60/150 
f 60/60/151 59/59/152 181/181/153 
f 181/181/154 182/182/155 60/60/156 
f 61/61/157 64/64/158 63/63/159 
f 63/63/160 62/62/161 61/61/162 
f 64/64/163 66/66/164 63/63/165 
f 66/66/166 68/68/167 65/65/168 
f 68/68/169 184/184/170 183/183/171 
f 183/183/172 67/67/173 68/68/174 
f 69/69/175 70/70/176 71/71/177 
f 71/71/178 72/72/179 69/69/180 
f 72/72/181 71/71/182 74/74/183 
f 74/74/184 73/73/185 185/185/186 
f 185/185/187 186/186/188 74/74/189 
f 78/78/190 77/77/191 76/76/192 
f 76/76/193 75/75/194 78/78/195 
f 78/78/196 80/80/197 77/77/198 
f 80/80/199 188/188/200 187/187/201 
f 187/187/202 79/79/203 80/80/204 
f 84/84/205 83/83/206 82/82/207 
f 82/82/208 81/81/209 84/84/210 
f 84/84/211 86/86/212 83/83/213 
f 86/86/214 190/190/215 189/189/216 
f 189/189/217 85/85/218 86/86/219 
f 87/87/220 88/88/221 89/89/222 
f 89/89/223 90/90/224 87/87/225 
f 90/90/226 89/89/227 92/92/228 
f 92/92/229 91/91/230 191/191/231 
f 191/191/232 192/192/233 92/92/234 
f 93/93/235 96/96/236 95/95/237 
f 95/95/238 94/94/239 93/93/240 
f 96/96/241 98/98/242 97/97/243 
f 97/97/244 95/95/245 96/96/246 
f 98/98/247 100/100/248 97/97/249 
f 100/100/250 194/194/251 193/193/252 
f 193/193/253 99/99/254 100/100/255 
f 101/101/256 102/102/257 103/103/258 
f 103/103/259 104/104/260 101/101/261 
f 104/104/262 103/103/263 105/105/264 
f 105/105/265 106/106/266 104/104/267 
f 106/106/268 105/105/269 108/108/270 
f 108/108/271 107/107/272 195/195/273 
f 195/195/274 196/196/275 108/108/276 
f 109/109/277 110/110/278 111/111/279 
f 111/111/280 112/112/281 109/109/282 
f 112/112/283 111/111/284 113/113/285 
f 113/113/286 114/114/287 112/112/288 
f 114/114/289 113/113/290 197/197/291 
f 197/197/292 198/198/293 114/114/294 
f 118/118/295 117/117/296 116/116/297 
f 116/116/298 115/115/299 118/118/300 
f 118/118/301 120/120/302 119/119/303 
f 119/119/304 117/117/305 118/118/306 
f 120/120/307 200/200/308 199/199/309 
f 199/199/310 119/119/311 120/120/312 
f 121/121/313 124/124/314 122/122/315 
f 124/124/316 126/126/317 123/123/318 
f 126/126/319 128/128/320 125/125/321 
f 128/128/322 202/202/323 201/201/324 
f 201/201/325 127/127/326 128/128/327 
f 129/129/328 130/130/329 132/132/330 
f 132/132/331 131/131/332 134/134/333 
f 134/134/334 133/133/335 136/136/336 
f 136/136/337 135/135/338 203/203/339 
f 203/203/340 204/204/341 136/136/342 
f 137/149/343 140/152/344 139/151/345 
f 139/151/346 138/150/347 137/149/348 
f 140/152/349 142/154/350 141/153/351 
f 141/153/352 139/151/353 140/152/354 
f 142/154/355 144/156/356 141/153/357 
f 206/206/358 205/205/359 143/155/360 
f 143/155/361 144/156/362 206/206/363 
f 145/157/364 146/158/365 147/159/366 
f 147/159/367 148/160/368 145/157/369 
f 148/160/370 147/159/371 149/161/372 
f 149/161/373 150/162/374 148/160/375 
f 150/162/376 149/161/377 152/164/378 
f 151/163/379 207/207/380 208/208/381 
f 208/208/382 152/164/383 151/163/384 
f 153/137/385 154/138/386 155/139/387 
f 155/139/388 156/140/389 153/137/390 
f 156/140/391 155/139/392 158/142/393 
f 158/142/394 157/141/395 209/209/396 
f 209/209/397 210/210/398 158/142/399 
f 162/146/400 161/145/401 160/144/402 
f 160/144/403 159/143/404 162/146/405 
f 162/146/406 164/148/407 161/145/408 
f 164/148/409 212/212/410 211/211/411 
f 211/211/412 163/147/413 164/148/414 
f 165/165/415 213/213/416 166/166/417 
f 171/171/418 216/216/419 172/172/420 
f 175/175/421 218/218/422 176/176/423 
f 177/177/424 219/219/425 178/178/426 
f 181/181/427 221/221/428 182/182/429 
f 185/185/430 223/223/431 186/186/432 
f 191/191/433 226/226/434 192/192/435 
f 195/195/436 228/228/437 196/196/438 
f 197/197/439 229/229/440 198/198/441 
f 203/203/442 232/232/443 204/204/444 
f 207/207/445 234/234/446 208/208/447 
f 209/209/448 235/235/449 210/210/450 
f 167/167/451 168/168/452 214/214/453 
f 169/169/454 170/170/455 215/215/456 
f 173/173/457 174/174/458 217/217/459 
f 179/179/460 180/180/461 220/220/462 
f 183/183/463 184/184/464 222/222/465 
f 187/187/466 188/188/467 224/224/468 
f 189/189/469 190/190/470 225/225/471 
f 193/193/472 194/194/473 227/227/474 
f 199/199/475 200/200/476 230/230/477 
f 201/201/478 202/202/479 231/231/480 
f 205/205/481 206/206/482 233/233/483 
f 211/211/484 212/212/485 236/236/486 
f 57/57/487 59/59/488 60/60/489 
f 68/68/490 67/67/491 65/65/492 
f 32/32/493 31/31/494 29/29/495 
f 37/37/496 39/39/497 40/40/498 
f 3/3/499 5/5/500 6/6/501 
f 12/12/502 11/11/503 9/9/504 
f 126/126/505 125/125/506 123/123/507 
f 131/131/508 133/133/509 134/134/510 
f 144/156/511 143/155/512 141/153/513 
f 149/161/514 151/163/515 152/164/516 
f 86/86/517 85/85/518 83/83/519 
f 89/89/520 91/91/521 92/92/522 
f 71/71/523 73/73/524 74/74/525 
f 80/80/526 79/79/527 77/77/528 
f 100/100/529 99/99/530 97/97/531 
f 105/105/532 107/107/533 108/108/534 
f 128/128/535 127/127/536 125/125/537 
f 133/133/538 135/135/539 136/136/540 
f 18/18/541 17/17/542 15/15/543 
f 21/21/544 23/23/545 24/24/546 
f 155/139/547 157/141/548 158/142/549 
f 164/148/550 163/147/551 161/145/552 
f 124/124/553 123/123/554 122/122/555 
f 130/130/556 131/131/557 132/132/558 
f 55/55/559 57/57/560 58/58/561 
f 66/66/562 65/65/563 63/63/564 
# 188 faces

