# 3ds Max Wavefront OBJ Exporter v0.99 - (c)2007 guruware
# File Created: 19.11.2024 10:16:30

#
# object FlaxStage00
#

v  2.1424 -3.3125 -0.5772
v  -1.1317 -3.3125 -1.4545
v  4.0871 8.0323 -9.2474
v  7.2895 8.7788 -8.0344
v  9.9827 5.5754 -16.2873
v  12.8831 7.1624 -15.0070
v  2.1637 -3.3704 -0.6565
v  -1.1104 -3.3704 -1.5338
v  4.1123 7.8788 -9.2322
v  7.3126 8.6289 -8.0198
v  10.0093 5.4526 -16.2386
v  12.9084 7.0416 -14.9587
v  -2.0754 -3.6632 -3.0558
v  1.0930 -3.6597 -1.8963
v  3.1916 7.8266 -10.3106
v  0.0661 8.2357 -11.6213
v  4.6714 5.5385 -16.5177
v  1.8011 6.4998 -18.0176
v  -2.0478 -3.7209 -3.1333
v  1.1211 -3.7171 -1.9730
v  3.1729 7.6740 -10.3138
v  0.0509 8.0849 -11.6262
v  4.6362 5.4095 -16.5031
v  1.7670 6.3720 -18.0039
v  -1.7112 -4.1197 0.3404
v  1.2016 -3.8577 -0.1476
v  -0.2369 7.5523 -3.5016
v  -3.1904 7.3738 -2.8882
v  -2.6037 12.5766 -8.9431
v  -5.4899 12.8441 -8.0403
v  -7.1784 12.6066 -15.7262
v  -9.8193 13.5629 -14.6006
v  -1.7230 -4.1449 0.2623
v  1.1898 -3.8829 -0.2257
v  -0.2506 7.4716 -3.5554
v  -3.2036 7.2952 -2.9409
v  -2.6244 12.4426 -8.9584
v  -5.5088 12.7133 -8.0554
v  -7.2032 12.4885 -15.7082
v  -9.8431 13.4466 -14.5825
v  0.3883 -3.3125 2.1846
v  1.5476 -3.3125 -1.0006
v  8.8560 8.0322 4.8775
v  7.3685 8.7788 7.9620
v  15.3553 5.5754 11.3642
v  13.8271 7.1624 14.1420
v  0.4654 -3.3704 2.2126
v  1.6247 -3.3704 -0.9725
v  8.8386 7.8788 4.9013
v  7.3520 8.6289 7.9837
v  15.3044 5.4526 11.3865
v  13.7767 7.0416 14.1630
v  -0.4128 -4.5241 1.9052
v  0.1957 -4.5241 -1.5457
v  4.1845 9.0905 -0.5008
v  3.4273 9.1938 2.9918
v  10.4273 15.6261 -0.3662
v  11.1683 16.2504 3.1126
v  17.4111 14.0417 0.4648
v  17.7608 15.4545 3.7842
v  -0.3204 -4.5529 1.9215
v  0.2880 -4.5529 -1.5294
v  4.2477 8.9964 -0.4793
v  3.4893 9.1022 3.0127
v  10.4588 15.4699 -0.3466
v  11.1984 16.0979 3.1302
v  17.4103 13.9048 0.5072
v  17.7591 15.3198 3.8254
v  0.3875 -4.8880 -1.0751
v  0.9839 -4.3820 2.3566
v  2.0946 10.0235 0.6034
v  1.3340 9.5614 -2.8717
v  7.8730 14.4273 -2.0255
v  6.3238 14.0376 -5.2386
v  14.6438 10.1759 -6.5056
v  13.1931 10.6414 -9.6885
v  0.4823 -4.8849 -1.0918
v  1.0786 -4.3788 2.3399
v  2.1744 9.9532 0.5851
v  1.4121 9.4932 -2.8896
v  7.8273 14.2799 -1.9980
v  6.2797 13.8942 -5.2104
v  14.5656 10.0548 -6.4851
v  13.1158 10.5226 -9.6674
v  1.9165 -3.9214 1.1141
v  -2.0809 -3.9214 0.7644
v  -1.7124 9.5961 10.0243
v  2.3412 10.4799 9.9716
v  0.1508 7.6696 16.0918
v  3.8957 9.5482 15.8419
v  1.9080 -3.9900 1.2110
v  -2.0893 -3.9900 0.8612
v  -1.6783 9.4144 10.0176
v  2.3728 10.3025 9.9648
v  0.2001 7.5242 16.0484
v  3.9434 9.4053 15.7983
v  -2.1846 -3.3125 0.3883
v  1.0006 -3.3125 1.5476
v  -4.8775 8.0322 8.8560
v  -7.9620 8.7788 7.3685
v  -11.3642 5.5754 15.3553
v  -14.1420 7.1624 13.8271
v  -2.2126 -3.3704 0.4654
v  0.9725 -3.3704 1.6247
v  -4.9012 7.8788 8.8386
v  -7.9837 8.6289 7.3520
v  -11.3865 5.4526 15.3045
v  -14.1630 7.0416 13.7767
v  0.0756 -4.5241 -1.9480
v  0.0756 -4.5241 1.5562
v  -4.0340 9.0905 1.2198
v  -3.8947 9.1938 -2.3512
v  -10.2411 14.3502 -0.0498
v  -9.7476 14.9745 -3.5722
v  -18.0827 12.7271 -4.1703
v  -17.6611 13.8898 -7.5772
v  -0.0181 -4.5529 -1.9480
v  -0.0181 -4.5529 1.5562
v  -4.1000 8.9964 1.2096
v  -3.9594 9.1022 -2.3610
v  -10.2641 14.1941 -0.0790
v  -9.7700 14.8220 -3.5991
v  -18.0127 12.6034 -4.1883
v  -17.5916 13.7683 -7.5942
v  -1.6625 -3.6753 -2.0082
v  -0.6838 -4.0186 0.7586
v  -3.8854 5.7157 2.2783
v  -4.9388 6.1082 -0.5533
v  -10.0742 9.4313 3.9965
v  -11.1098 10.1677 1.2671
v  -16.7537 9.2784 6.3654
v  -17.8545 10.5371 3.8589
v  -1.7378 -3.7008 -1.9842
v  -0.7584 -4.0441 0.7831
v  -3.9404 5.6377 2.2851
v  -4.9944 6.0318 -0.5450
v  -10.1030 9.3035 3.9802
v  -11.1397 10.0420 1.2538
v  -16.7635 9.1652 6.3347
v  -17.8648 10.4253 3.8291
v  13.2428 3.1973 -18.1551
v  14.9181 4.2227 -17.3952
v  13.2517 3.1414 -18.1266
v  14.9266 4.1675 -17.3668
v  4.9721 2.8817 -20.1724
v  3.1471 3.5612 -21.1628
v  4.9505 2.8173 -20.1590
v  3.1258 3.4972 -21.1497
v  -9.7645 11.1291 -17.9841
v  -11.4465 11.8313 -17.2295
v  -9.7744 11.0679 -17.9691
v  -11.4561 11.7707 -17.2144
v  16.9660 3.1616 14.7156
v  15.9967 4.2624 16.4360
v  16.9348 3.1017 14.7225
v  15.9656 4.2031 16.4425
v  21.2860 12.5772 1.9260
v  21.4606 13.5505 3.9799
v  21.2782 12.5086 1.9475
v  21.4526 13.4826 4.0010
v  15.8136 7.4929 -8.5389
v  15.0082 7.8437 -10.3284
v  15.7732 7.4411 -8.5262
v  14.9681 7.7925 -10.3156
v  3.6690 4.7850 21.8289
v  6.1019 6.1453 21.6417
v  3.6930 4.7110 21.7975
v  6.1254 6.0720 21.6103
v  -14.6533 3.8106 17.4715
v  -16.4979 4.9909 16.4321
v  -14.6607 3.7463 17.4380
v  -16.5048 4.9273 16.3988
v  -20.2184 9.7585 -6.5672
v  -19.9408 10.6503 -8.8411
v  -20.1737 9.6950 -6.5744
v  -19.8964 10.5875 -8.8479
v  -20.0986 8.0392 6.7566
v  -20.8731 8.9750 5.0402
v  -20.0983 7.9764 6.7362
v  -20.8729 8.9127 5.0202
v  16.3964 0.8061 -17.9259
v  16.4000 0.7394 -17.8782
v  4.8950 -0.4992 -22.4831
v  4.8626 -0.5713 -22.4558
v  -13.2279 7.1218 -18.9059
v  -13.2337 7.0513 -18.8774
v  18.3896 1.0898 18.3946
v  18.3417 1.0231 18.3942
v  24.1787 10.6338 4.3384
v  24.1546 10.5513 4.3647
v  15.5782 4.1996 -10.0712
v  15.5130 4.1366 -10.0468
v  6.9555 2.3961 23.2237
v  6.9790 2.3171 23.1720
v  -18.3946 1.0898 18.3896
v  -18.3942 1.0231 18.3417
v  -22.3088 7.1309 -9.5312
v  -22.2465 7.0661 -9.5345
v  -23.6677 7.1346 6.6937
v  -23.6569 7.0657 6.6655
# 200 vertices

vn -0.2228 0.9650 0.1385
vn -0.2879 0.8940 0.3433
vn -0.3061 0.6106 0.7304
vn -0.3061 0.6106 0.7304
vn -0.3061 0.6106 0.7304
vn -0.2228 0.9650 0.1385
vn -0.2228 0.9650 0.1385
vn -0.1101 0.7634 -0.6365
vn -0.2879 0.8940 0.3433
vn -0.1101 0.7634 -0.6365
vn 0.1177 0.4730 -0.8731
vn 0.1073 0.4867 -0.8670
vn 0.1073 0.4867 -0.8670
vn -0.1388 0.7583 -0.6370
vn -0.1101 0.7634 -0.6365
vn 0.3065 -0.6101 -0.7306
vn 0.3065 -0.6101 -0.7306
vn 0.2891 -0.8929 -0.3452
vn 0.2891 -0.8929 -0.3452
vn 0.2237 -0.9649 -0.1378
vn 0.3065 -0.6101 -0.7306
vn 0.2237 -0.9649 -0.1378
vn 0.2891 -0.8929 -0.3452
vn 0.1145 -0.7664 0.6320
vn 0.1145 -0.7664 0.6320
vn 0.1431 -0.7612 0.6325
vn -0.1038 -0.4908 0.8651
vn -0.1038 -0.4908 0.8651
vn -0.1148 -0.4765 0.8716
vn 0.1145 -0.7664 0.6320
vn -0.2592 0.5978 0.7586
vn -0.2592 0.5978 0.7586
vn -0.0223 0.9206 0.3899
vn -0.0223 0.9206 0.3899
vn -0.0033 0.9594 0.2821
vn -0.2592 0.5978 0.7586
vn -0.0033 0.9594 0.2821
vn -0.0223 0.9206 0.3899
vn 0.4350 0.8288 -0.3519
vn 0.4603 0.8186 -0.3435
vn 0.5336 0.6077 -0.5882
vn 0.5291 0.6305 -0.5679
vn 0.5291 0.6305 -0.5679
vn 0.4350 0.8288 -0.3519
vn 0.4603 0.8186 -0.3435
vn 0.0030 -0.9593 -0.2825
vn 0.0230 -0.9196 -0.3921
vn 0.2596 -0.5972 -0.7589
vn 0.2596 -0.5972 -0.7589
vn 0.2596 -0.5972 -0.7589
vn 0.0030 -0.9593 -0.2825
vn 0.0030 -0.9593 -0.2825
vn -0.4337 -0.8319 0.3461
vn 0.0230 -0.9196 -0.3921
vn -0.5288 -0.6343 0.5639
vn -0.5335 -0.6107 0.5852
vn -0.4589 -0.8217 0.3379
vn -0.4589 -0.8217 0.3379
vn -0.4337 -0.8319 0.3461
vn -0.5288 -0.6343 0.5639
vn 0.1554 0.2911 0.9440
vn 0.1554 0.2911 0.9440
vn 0.1736 0.5243 0.8337
vn 0.1736 0.5243 0.8337
vn 0.1746 0.5422 0.8219
vn 0.1554 0.2911 0.9440
vn 0.1746 0.5422 0.8219
vn 0.1736 0.5243 0.8337
vn 0.1775 0.9033 0.3905
vn 0.1775 0.9033 0.3905
vn 0.1456 0.9350 0.3235
vn 0.1746 0.5422 0.8219
vn 0.1456 0.9350 0.3235
vn 0.1775 0.9033 0.3905
vn 0.1443 0.9135 -0.3804
vn 0.1443 0.9135 -0.3804
vn 0.1830 0.9146 -0.3605
vn -0.0687 0.6636 -0.7449
vn -0.0687 0.6636 -0.7449
vn -0.0792 0.6494 -0.7563
vn 0.1443 0.9135 -0.3804
vn -0.1557 -0.2905 -0.9441
vn -0.1751 -0.5432 -0.8211
vn -0.1741 -0.5245 -0.8334
vn -0.1741 -0.5245 -0.8334
vn -0.1557 -0.2905 -0.9441
vn -0.1557 -0.2905 -0.9441
vn -0.1751 -0.5432 -0.8211
vn -0.1466 -0.9351 -0.3226
vn -0.1784 -0.9032 -0.3904
vn -0.1784 -0.9032 -0.3904
vn -0.1741 -0.5245 -0.8334
vn -0.1751 -0.5432 -0.8211
vn -0.1466 -0.9351 -0.3226
vn -0.1484 -0.9153 0.3744
vn -0.1784 -0.9032 -0.3904
vn -0.1484 -0.9153 0.3744
vn 0.0761 -0.6532 0.7533
vn 0.0652 -0.6680 0.7413
vn 0.0652 -0.6680 0.7413
vn -0.1866 -0.9161 0.3550
vn -0.1484 -0.9153 0.3744
vn -0.0437 0.9571 -0.2864
vn -0.2949 0.8939 -0.3376
vn -0.7009 0.6106 -0.3686
vn -0.7009 0.6106 -0.3686
vn -0.7009 0.6106 -0.3686
vn -0.0437 0.9571 -0.2864
vn -0.0437 0.9571 -0.2864
vn 0.6227 0.7815 -0.0390
vn 0.6003 0.7981 -0.0515
vn 0.6003 0.7981 -0.0515
vn -0.2949 0.8939 -0.3376
vn -0.0437 0.9571 -0.2864
vn 0.6227 0.7815 -0.0390
vn 0.7822 0.6206 0.0549
vn 0.7822 0.6206 0.0550
vn 0.7822 0.6206 0.0550
vn 0.6003 0.7981 -0.0515
vn 0.6227 0.7815 -0.0390
vn 0.7012 -0.6101 0.3690
vn 0.7012 -0.6101 0.3690
vn 0.2968 -0.8928 0.3388
vn 0.2968 -0.8928 0.3388
vn 0.0426 -0.9569 0.2871
vn 0.7012 -0.6101 0.3690
vn 0.0426 -0.9569 0.2871
vn 0.2968 -0.8928 0.3388
vn -0.5962 -0.8009 0.0562
vn -0.5962 -0.8009 0.0562
vn -0.6189 -0.7843 0.0438
vn 0.0426 -0.9569 0.2871
vn -0.6189 -0.7843 0.0438
vn -0.5962 -0.8009 0.0562
vn -0.7799 -0.6238 -0.0515
vn -0.7799 -0.6238 -0.0515
vn -0.7800 -0.6237 -0.0514
vn -0.6189 -0.7843 0.0438
vn -0.9400 0.2840 -0.1891
vn -0.8484 0.5108 -0.1388
vn -0.8422 0.5217 -0.1360
vn -0.8422 0.5217 -0.1360
vn -0.9400 0.2840 -0.1891
vn -0.9400 0.2840 -0.1891
vn -0.8484 0.5108 -0.1388
vn -0.3610 0.9102 -0.2032
vn -0.4747 0.8643 -0.1661
vn -0.4747 0.8643 -0.1661
vn -0.8422 0.5217 -0.1360
vn -0.8484 0.5108 -0.1388
vn -0.3610 0.9102 -0.2032
vn 0.1911 0.9161 -0.3525
vn 0.1469 0.9282 -0.3418
vn 0.1469 0.9282 -0.3418
vn -0.4747 0.8643 -0.1661
vn -0.3610 0.9102 -0.2032
vn 0.1911 0.9161 -0.3525
vn 0.5713 0.7261 -0.3826
vn 0.5557 0.7368 -0.3852
vn 0.5557 0.7368 -0.3852
vn 0.1469 0.9282 -0.3418
vn 0.1911 0.9161 -0.3525
vn 0.9401 -0.2834 0.1894
vn 0.9401 -0.2834 0.1894
vn 0.8417 -0.5223 0.1368
vn 0.8417 -0.5223 0.1368
vn 0.8479 -0.5115 0.1395
vn 0.9401 -0.2834 0.1894
vn 0.8479 -0.5115 0.1395
vn 0.8417 -0.5223 0.1368
vn 0.4747 -0.8642 0.1667
vn 0.4747 -0.8642 0.1667
vn 0.3609 -0.9100 0.2039
vn 0.8479 -0.5115 0.1395
vn 0.3609 -0.9100 0.2039
vn 0.4747 -0.8642 0.1667
vn -0.1390 -0.9293 0.3422
vn -0.1390 -0.9293 0.3422
vn -0.1834 -0.9174 0.3533
vn 0.3609 -0.9100 0.2039
vn -0.1834 -0.9174 0.3533
vn -0.1390 -0.9293 0.3422
vn -0.5503 -0.7402 0.3865
vn -0.5503 -0.7402 0.3865
vn -0.5670 -0.7289 0.3837
vn -0.1834 -0.9174 0.3533
vn -0.9794 0.0919 0.1795
vn -0.9794 0.0919 0.1795
vn -0.8752 0.4624 0.1424
vn -0.8752 0.4624 0.1424
vn -0.8780 0.4638 0.1186
vn -0.9794 0.0919 0.1795
vn -0.8780 0.4638 0.1186
vn -0.8752 0.4624 0.1424
vn -0.1517 0.9857 -0.0738
vn -0.1517 0.9857 -0.0738
vn -0.1336 0.9908 -0.0211
vn 0.6287 0.7506 -0.2035
vn 0.6287 0.7506 -0.2035
vn 0.6341 0.7535 -0.1736
vn 0.8645 0.3823 -0.3264
vn 0.8645 0.3823 -0.3264
vn 0.8641 0.3835 -0.3261
vn 0.6287 0.7506 -0.2035
vn 0.9794 -0.0914 -0.1799
vn 0.8787 -0.4622 -0.1195
vn 0.8758 -0.4609 -0.1437
vn 0.8758 -0.4609 -0.1437
vn 0.9794 -0.0914 -0.1799
vn 0.9794 -0.0914 -0.1799
vn 0.8787 -0.4622 -0.1195
vn 0.1526 -0.9856 0.0728
vn 0.8758 -0.4609 -0.1437
vn 0.1526 -0.9856 0.0728
vn -0.6221 -0.7573 0.1987
vn 0.1353 -0.9906 0.0191
vn -0.6221 -0.7573 0.1987
vn -0.8615 -0.3916 0.3233
vn -0.8619 -0.3903 0.3237
vn -0.8619 -0.3903 0.3237
vn -0.6279 -0.7597 0.1691
vn -0.6221 -0.7573 0.1987
vn -0.0289 0.5447 -0.8381
vn -0.0289 0.5447 -0.8381
vn -0.1744 0.8832 -0.4355
vn -0.1744 0.8832 -0.4355
vn -0.1559 0.9408 -0.3011
vn -0.0289 0.5447 -0.8381
vn -0.1559 0.9408 -0.3011
vn -0.1744 0.8832 -0.4355
vn -0.3425 0.8192 0.4599
vn -0.3425 0.8192 0.4599
vn -0.3744 0.7964 0.4749
vn -0.2698 0.6097 0.7453
vn -0.2698 0.6097 0.7453
vn -0.2607 0.5939 0.7611
vn -0.3425 0.8192 0.4599
vn 0.1570 -0.9403 0.3018
vn 0.1748 -0.8814 0.4389
vn 0.0290 -0.5434 0.8390
vn 0.0290 -0.5434 0.8390
vn 0.0290 -0.5434 0.8390
vn 0.1570 -0.9403 0.3018
vn 0.1570 -0.9403 0.3018
vn 0.3445 -0.8213 -0.4548
vn 0.1748 -0.8814 0.4389
vn 0.3445 -0.8213 -0.4548
vn 0.2621 -0.5958 -0.7592
vn 0.2715 -0.6121 -0.7427
vn 0.2715 -0.6121 -0.7427
vn 0.3764 -0.7983 -0.4702
vn 0.3445 -0.8213 -0.4548
vn 0.2340 0.9650 -0.1185
vn 0.3168 0.8940 -0.3169
vn 0.3686 0.6106 -0.7009
vn 0.3686 0.6106 -0.7009
vn 0.3686 0.6106 -0.7009
vn 0.2340 0.9650 -0.1185
vn 0.2340 0.9650 -0.1185
vn 0.1144 0.8042 0.5833
vn 0.3168 0.8940 -0.3169
vn 0.1144 0.8042 0.5833
vn -0.0359 0.6410 0.7667
vn -0.0348 0.6422 0.7657
vn -0.0348 0.6422 0.7657
vn 0.1362 0.7949 0.5913
vn 0.1144 0.8042 0.5833
vn -0.3690 -0.6101 0.7012
vn -0.3690 -0.6101 0.7012
vn -0.3181 -0.8929 0.3187
vn -0.3181 -0.8929 0.3187
vn -0.2349 -0.9649 0.1178
vn -0.3690 -0.6101 0.7012
vn -0.2349 -0.9649 0.1178
vn -0.3181 -0.8929 0.3187
vn -0.1192 -0.8068 -0.5787
vn -0.1192 -0.8068 -0.5787
vn -0.1406 -0.7973 -0.5870
vn 0.0306 -0.6459 -0.7628
vn 0.0306 -0.6459 -0.7628
vn 0.0319 -0.6446 -0.7639
vn -0.1192 -0.8068 -0.5787
vn 0.9586 0.2840 0.0230
vn 0.8476 0.5293 0.0374
vn 0.8562 0.5132 0.0588
vn 0.8562 0.5132 0.0588
vn 0.9586 0.2840 0.0230
vn 0.9586 0.2840 0.0230
vn 0.8476 0.5293 0.0374
vn 0.1700 0.9701 0.1730
vn 0.8562 0.5132 0.0588
vn 0.1700 0.9701 0.1730
vn -0.6281 0.7598 0.1680
vn 0.2734 0.9357 0.2232
vn -0.6281 0.7598 0.1680
vn -0.8356 0.5402 0.1004
vn -0.8356 0.5402 0.0995
vn -0.8356 0.5402 0.0995
vn -0.5712 0.7947 0.2056
vn -0.6281 0.7598 0.1680
vn -0.9587 -0.2834 -0.0233
vn -0.9587 -0.2834 -0.0233
vn -0.8560 -0.5135 -0.0594
vn -0.8560 -0.5135 -0.0594
vn -0.8470 -0.5302 -0.0379
vn -0.9587 -0.2834 -0.0233
vn -0.8470 -0.5302 -0.0379
vn -0.8560 -0.5135 -0.0594
vn -0.1684 -0.9703 -0.1738
vn -0.1684 -0.9703 -0.1738
vn -0.2726 -0.9356 -0.2243
vn 0.6230 -0.7634 -0.1706
vn 0.6230 -0.7634 -0.1706
vn 0.5663 -0.7975 -0.2079
vn 0.8323 -0.5448 -0.1020
vn 0.8323 -0.5448 -0.1020
vn 0.8327 -0.5442 -0.1025
vn 0.6230 -0.7634 -0.1706
vn 0.8973 0.3406 -0.2809
vn 0.7428 0.6518 -0.1531
vn 0.7715 0.6123 -0.1729
vn 0.7715 0.6123 -0.1729
vn 0.8973 0.3406 -0.2809
vn 0.8973 0.3406 -0.2809
vn 0.7428 0.6518 -0.1531
vn 0.3263 0.9396 0.1035
vn 0.3532 0.9289 0.1113
vn 0.3532 0.9289 0.1113
vn 0.7715 0.6123 -0.1729
vn 0.7428 0.6518 -0.1531
vn 0.3263 0.9396 0.1035
vn -0.0480 0.8930 0.4475
vn 0.3532 0.9289 0.1113
vn -0.2238 0.8160 0.5329
vn -0.2236 0.8159 0.5331
vn -0.0456 0.8814 0.4701
vn -0.0456 0.8814 0.4701
vn -0.0480 0.8930 0.4475
vn -0.2238 0.8160 0.5329
vn -0.8973 -0.3402 0.2812
vn -0.8973 -0.3402 0.2812
vn -0.7709 -0.6131 0.1725
vn -0.7709 -0.6131 0.1725
vn -0.7415 -0.6534 0.1522
vn -0.8973 -0.3402 0.2812
vn -0.7415 -0.6534 0.1522
vn -0.7709 -0.6131 0.1725
vn -0.3525 -0.9291 -0.1122
vn -0.3525 -0.9291 -0.1122
vn -0.3254 -0.9398 -0.1045
vn -0.7415 -0.6534 0.1522
vn -0.3254 -0.9398 -0.1045
vn -0.3525 -0.9291 -0.1122
vn 0.0417 -0.8941 -0.4459
vn 0.0390 -0.8827 -0.4684
vn 0.2185 -0.8179 -0.5323
vn 0.2185 -0.8180 -0.5320
vn 0.2185 -0.8180 -0.5320
vn 0.0417 -0.8941 -0.4459
vn 0.0390 -0.8827 -0.4684
vn -0.1038 -0.4908 0.8651
vn -0.2667 -0.2533 0.9299
vn -0.1148 -0.4765 0.8716
vn 0.5336 0.6077 -0.5882
vn 0.5497 0.4628 -0.6955
vn 0.5291 0.6305 -0.5679
vn -0.0687 0.6636 -0.7449
vn -0.2297 0.4023 -0.8862
vn -0.0792 0.6494 -0.7563
vn -0.7799 -0.6238 -0.0515
vn -0.7858 -0.6166 -0.0480
vn -0.7800 -0.6237 -0.0514
vn -0.5503 -0.7402 0.3865
vn -0.7100 -0.6110 0.3501
vn -0.5670 -0.7289 0.3837
vn 0.8645 0.3823 -0.3264
vn 0.9141 0.1155 -0.3888
vn 0.8641 0.3835 -0.3261
vn -0.2698 0.6097 0.7453
vn -0.1303 0.3601 0.9238
vn -0.2607 0.5939 0.7611
vn 0.0306 -0.6459 -0.7628
vn 0.1591 -0.5005 -0.8510
vn 0.0319 -0.6446 -0.7639
vn 0.8323 -0.5448 -0.1020
vn 0.8365 -0.5371 -0.1088
vn 0.8327 -0.5442 -0.1025
vn 0.2185 -0.8179 -0.5323
vn 0.2185 -0.8118 -0.5415
vn 0.2185 -0.8180 -0.5320
vn 0.1073 0.4867 -0.8670
vn 0.1177 0.4730 -0.8731
vn 0.2634 0.2584 -0.9294
vn -0.5335 -0.6107 0.5852
vn -0.5288 -0.6343 0.5639
vn -0.5499 -0.4588 0.6979
vn 0.0652 -0.6680 0.7413
vn 0.0761 -0.6532 0.7533
vn 0.2311 -0.3996 0.8871
vn 0.7822 0.6206 0.0550
vn 0.7822 0.6206 0.0549
vn 0.7839 0.6193 0.0454
vn 0.5557 0.7368 -0.3852
vn 0.5713 0.7261 -0.3826
vn 0.7061 0.6148 -0.3514
vn -0.8619 -0.3903 0.3237
vn -0.8615 -0.3916 0.3233
vn -0.9144 -0.1076 0.3903
vn 0.2715 -0.6121 -0.7427
vn 0.2621 -0.5958 -0.7592
vn 0.1279 -0.3559 -0.9257
vn -0.0348 0.6422 0.7657
vn -0.0359 0.6410 0.7667
vn -0.1571 0.5029 0.8499
vn -0.8356 0.5402 0.0995
vn -0.8356 0.5402 0.1004
vn -0.8345 0.5399 0.1099
vn -0.2236 0.8159 0.5331
vn -0.2238 0.8160 0.5329
vn -0.2156 0.8131 0.5407
vn -0.1336 0.9908 -0.0211
vn 0.6341 0.7535 -0.1736
vn 0.6287 0.7506 -0.2035
vn -0.6221 -0.7573 0.1987
vn -0.6279 -0.7597 0.1691
vn 0.1353 -0.9906 0.0191
vn 0.1700 0.9701 0.1730
vn 0.2734 0.9357 0.2232
vn 0.8562 0.5132 0.0588
vn -0.8560 -0.5135 -0.0594
vn -0.2726 -0.9356 -0.2243
vn -0.1684 -0.9703 -0.1738
vn -0.0480 0.8930 0.4475
vn -0.0456 0.8814 0.4701
vn 0.3532 0.9289 0.1113
vn -0.3525 -0.9291 -0.1122
vn 0.0390 -0.8827 -0.4684
vn 0.0417 -0.8941 -0.4459
vn 0.1144 0.8042 0.5833
vn 0.1362 0.7949 0.5913
vn 0.3168 0.8940 -0.3169
vn -0.3181 -0.8929 0.3187
vn -0.1406 -0.7973 -0.5870
vn -0.1192 -0.8068 -0.5787
vn -0.1744 0.8832 -0.4355
vn -0.3744 0.7964 0.4749
vn -0.3425 0.8192 0.4599
vn 0.3445 -0.8213 -0.4548
vn 0.3764 -0.7983 -0.4702
vn 0.1748 -0.8814 0.4389
vn -0.6281 0.7598 0.1680
vn -0.5712 0.7947 0.2056
vn 0.2734 0.9357 0.2232
vn -0.2726 -0.9356 -0.2243
vn 0.5663 -0.7975 -0.2079
vn 0.6230 -0.7634 -0.1706
vn -0.0223 0.9206 0.3899
vn 0.4603 0.8186 -0.3435
vn 0.4350 0.8288 -0.3519
vn -0.4337 -0.8319 0.3461
vn -0.4589 -0.8217 0.3379
vn 0.0230 -0.9196 -0.3921
vn -0.1101 0.7634 -0.6365
vn -0.1388 0.7583 -0.6370
vn -0.2879 0.8940 0.3433
vn 0.2891 -0.8929 -0.3452
vn 0.1431 -0.7612 0.6325
vn 0.1145 -0.7664 0.6320
vn 0.1775 0.9033 0.3905
vn 0.1830 0.9146 -0.3605
vn 0.1443 0.9135 -0.3804
vn -0.1484 -0.9153 0.3744
vn -0.1866 -0.9161 0.3550
vn -0.1784 -0.9032 -0.3904
vn -0.8752 0.4624 0.1424
vn -0.1336 0.9908 -0.0211
vn -0.1517 0.9857 -0.0738
vn 0.1526 -0.9856 0.0728
vn 0.1353 -0.9906 0.0191
vn 0.8758 -0.4609 -0.1437
# 480 vertex normals

vt 0.0074 0.5519 0.0000
vt 0.1130 0.5519 0.0000
vt 0.1130 0.7719 0.0000
vt 0.0074 0.7719 0.0000
vt 0.1130 0.8819 0.0000
vt 0.0074 0.8789 0.0000
vt 0.0074 0.5519 0.0000
vt 0.1130 0.5519 0.0000
vt 0.1130 0.7719 0.0000
vt 0.0074 0.7719 0.0000
vt 0.1130 0.8819 0.0000
vt 0.0074 0.8789 0.0000
vt 0.0074 0.5519 0.0000
vt 0.1130 0.5519 0.0000
vt 0.1130 0.7719 0.0000
vt 0.0074 0.7719 0.0000
vt 0.1130 0.8819 0.0000
vt 0.0074 0.8789 0.0000
vt 0.0074 0.5519 0.0000
vt 0.1130 0.5519 0.0000
vt 0.1130 0.7719 0.0000
vt 0.0074 0.7719 0.0000
vt 0.1130 0.8819 0.0000
vt 0.0074 0.8789 0.0000
vt 0.0074 0.5519 0.0000
vt 0.1130 0.5519 0.0000
vt 0.1130 0.6619 0.0000
vt 0.0074 0.6619 0.0000
vt 0.1130 0.7719 0.0000
vt 0.0074 0.7719 0.0000
vt 0.1130 0.8819 0.0000
vt 0.0074 0.8789 0.0000
vt 0.0074 0.5519 0.0000
vt 0.1130 0.5519 0.0000
vt 0.1130 0.6619 0.0000
vt 0.0074 0.6619 0.0000
vt 0.1130 0.7719 0.0000
vt 0.0074 0.7719 0.0000
vt 0.1130 0.8819 0.0000
vt 0.0074 0.8789 0.0000
vt 0.0074 0.5519 0.0000
vt 0.1130 0.5519 0.0000
vt 0.1130 0.7719 0.0000
vt 0.0074 0.7719 0.0000
vt 0.1130 0.8819 0.0000
vt 0.0074 0.8789 0.0000
vt 0.0074 0.5519 0.0000
vt 0.1130 0.5519 0.0000
vt 0.1130 0.7719 0.0000
vt 0.0074 0.7719 0.0000
vt 0.1130 0.8819 0.0000
vt 0.0074 0.8789 0.0000
vt 0.0074 0.5519 0.0000
vt 0.1130 0.5519 0.0000
vt 0.1130 0.6619 0.0000
vt 0.0074 0.6619 0.0000
vt 0.1130 0.7719 0.0000
vt 0.0074 0.7719 0.0000
vt 0.1130 0.8819 0.0000
vt 0.0074 0.8789 0.0000
vt 0.0074 0.5519 0.0000
vt 0.1130 0.5519 0.0000
vt 0.1130 0.6619 0.0000
vt 0.0074 0.6619 0.0000
vt 0.1130 0.7719 0.0000
vt 0.0074 0.7719 0.0000
vt 0.1130 0.8819 0.0000
vt 0.0074 0.8789 0.0000
vt 0.0074 0.5519 0.0000
vt 0.1130 0.5519 0.0000
vt 0.1130 0.6619 0.0000
vt 0.0074 0.6619 0.0000
vt 0.1130 0.7719 0.0000
vt 0.0074 0.7719 0.0000
vt 0.1130 0.8819 0.0000
vt 0.0074 0.8789 0.0000
vt 0.0074 0.5519 0.0000
vt 0.1130 0.5519 0.0000
vt 0.1130 0.6619 0.0000
vt 0.0074 0.6619 0.0000
vt 0.1130 0.7719 0.0000
vt 0.0074 0.7719 0.0000
vt 0.1130 0.8819 0.0000
vt 0.0074 0.8789 0.0000
vt 0.0074 0.5519 0.0000
vt 0.1130 0.5519 0.0000
vt 0.1130 0.7719 0.0000
vt 0.0074 0.7719 0.0000
vt 0.1130 0.8819 0.0000
vt 0.0074 0.8789 0.0000
vt 0.0074 0.5519 0.0000
vt 0.1130 0.5519 0.0000
vt 0.1130 0.7719 0.0000
vt 0.0074 0.7719 0.0000
vt 0.1130 0.8819 0.0000
vt 0.0074 0.8789 0.0000
vt 0.0074 0.5519 0.0000
vt 0.1130 0.5519 0.0000
vt 0.1130 0.7719 0.0000
vt 0.0074 0.7719 0.0000
vt 0.1130 0.8819 0.0000
vt 0.0074 0.8789 0.0000
vt 0.0074 0.5519 0.0000
vt 0.1130 0.5519 0.0000
vt 0.1130 0.7719 0.0000
vt 0.0074 0.7719 0.0000
vt 0.1130 0.8819 0.0000
vt 0.0074 0.8789 0.0000
vt 0.0074 0.5519 0.0000
vt 0.1130 0.5519 0.0000
vt 0.1130 0.6619 0.0000
vt 0.0074 0.6619 0.0000
vt 0.1130 0.7719 0.0000
vt 0.0074 0.7719 0.0000
vt 0.1130 0.8819 0.0000
vt 0.0074 0.8789 0.0000
vt 0.0074 0.5519 0.0000
vt 0.1130 0.5519 0.0000
vt 0.1130 0.6619 0.0000
vt 0.0074 0.6619 0.0000
vt 0.1130 0.7719 0.0000
vt 0.0074 0.7719 0.0000
vt 0.1130 0.8819 0.0000
vt 0.0074 0.8789 0.0000
vt 0.0074 0.5519 0.0000
vt 0.1130 0.5519 0.0000
vt 0.1130 0.6619 0.0000
vt 0.0074 0.6619 0.0000
vt 0.1130 0.7719 0.0000
vt 0.0074 0.7719 0.0000
vt 0.1130 0.8819 0.0000
vt 0.0074 0.8789 0.0000
vt 0.0074 0.5519 0.0000
vt 0.1130 0.5519 0.0000
vt 0.1130 0.6619 0.0000
vt 0.0074 0.6619 0.0000
vt 0.1130 0.7719 0.0000
vt 0.0074 0.7719 0.0000
vt 0.1130 0.8819 0.0000
vt 0.0074 0.8789 0.0000
vt 0.0982 0.9364 0.0000
vt 0.0301 0.9364 0.0000
vt 0.0982 0.9364 0.0000
vt 0.0301 0.9364 0.0000
vt 0.0982 0.9364 0.0000
vt 0.0301 0.9364 0.0000
vt 0.0982 0.9364 0.0000
vt 0.0301 0.9364 0.0000
vt 0.0982 0.9364 0.0000
vt 0.0301 0.9364 0.0000
vt 0.0982 0.9364 0.0000
vt 0.0301 0.9364 0.0000
vt 0.0982 0.9364 0.0000
vt 0.0301 0.9364 0.0000
vt 0.0982 0.9364 0.0000
vt 0.0301 0.9364 0.0000
vt 0.0982 0.9364 0.0000
vt 0.0301 0.9364 0.0000
vt 0.0982 0.9364 0.0000
vt 0.0301 0.9364 0.0000
vt 0.0982 0.9364 0.0000
vt 0.0301 0.9364 0.0000
vt 0.0982 0.9364 0.0000
vt 0.0301 0.9364 0.0000
vt 0.0982 0.9364 0.0000
vt 0.0301 0.9364 0.0000
vt 0.0982 0.9364 0.0000
vt 0.0301 0.9364 0.0000
vt 0.0982 0.9364 0.0000
vt 0.0301 0.9364 0.0000
vt 0.0982 0.9364 0.0000
vt 0.0301 0.9364 0.0000
vt 0.0982 0.9364 0.0000
vt 0.0301 0.9364 0.0000
vt 0.0982 0.9364 0.0000
vt 0.0301 0.9364 0.0000
vt 0.0982 0.9364 0.0000
vt 0.0301 0.9364 0.0000
vt 0.0982 0.9364 0.0000
vt 0.0301 0.9364 0.0000
vt 0.0563 0.9909 0.0000
vt 0.0563 0.9909 0.0000
vt 0.0563 0.9909 0.0000
vt 0.0563 0.9909 0.0000
vt 0.0563 0.9909 0.0000
vt 0.0563 0.9909 0.0000
vt 0.0563 0.9909 0.0000
vt 0.0563 0.9909 0.0000
vt 0.0563 0.9909 0.0000
vt 0.0563 0.9909 0.0000
vt 0.0563 0.9909 0.0000
vt 0.0563 0.9909 0.0000
vt 0.0563 0.9909 0.0000
vt 0.0563 0.9909 0.0000
vt 0.0563 0.9909 0.0000
vt 0.0563 0.9909 0.0000
vt 0.0563 0.9909 0.0000
vt 0.0563 0.9909 0.0000
vt 0.0563 0.9909 0.0000
vt 0.0563 0.9909 0.0000
# 200 texture coords

o FlaxStage00
g FlaxStage00
s 1
f 4/4/1 3/3/2 2/2/3 
f 2/2/4 1/1/5 4/4/6 
f 4/4/7 6/6/8 3/3/9 
f 6/6/10 142/142/11 141/141/12 
f 141/141/13 5/5/14 6/6/15 
f 7/7/16 8/8/17 9/9/18 
f 9/9/19 10/10/20 7/7/21 
f 10/10/22 9/9/23 12/12/24 
f 12/12/25 11/11/26 143/143/27 
f 143/143/28 144/144/29 12/12/30 
f 13/13/31 14/14/32 15/15/33 
f 15/15/34 16/16/35 13/13/36 
f 16/16/37 15/15/38 18/18/39 
f 17/17/40 145/145/41 146/146/42 
f 146/146/43 18/18/44 17/17/45 
f 22/22/46 21/21/47 20/20/48 
f 20/20/49 19/19/50 22/22/51 
f 22/22/52 24/24/53 21/21/54 
f 148/148/55 147/147/56 23/23/57 
f 23/23/58 24/24/59 148/148/60 
f 25/25/61 26/26/62 27/27/63 
f 27/27/64 28/28/65 25/25/66 
f 28/28/67 27/27/68 29/29/69 
f 29/29/70 30/30/71 28/28/72 
f 30/30/73 29/29/74 32/32/75 
f 32/32/76 31/31/77 149/149/78 
f 149/149/79 150/150/80 32/32/81 
f 33/33/82 36/36/83 35/35/84 
f 35/35/85 34/34/86 33/33/87 
f 36/36/88 38/38/89 37/37/90 
f 37/37/91 35/35/92 36/36/93 
f 38/38/94 40/40/95 37/37/96 
f 40/40/97 152/152/98 151/151/99 
f 151/151/100 39/39/101 40/40/102 
f 44/44/103 43/43/104 42/42/105 
f 42/42/106 41/41/107 44/44/108 
f 44/44/109 46/46/110 45/45/111 
f 45/45/112 43/43/113 44/44/114 
f 46/46/115 154/154/116 153/153/117 
f 153/153/118 45/45/119 46/46/120 
f 47/47/121 48/48/122 49/49/123 
f 49/49/124 50/50/125 47/47/126 
f 50/50/127 49/49/128 51/51/129 
f 51/51/130 52/52/131 50/50/132 
f 52/52/133 51/51/134 155/155/135 
f 155/155/136 156/156/137 52/52/138 
f 53/53/139 56/56/140 55/55/141 
f 55/55/142 54/54/143 53/53/144 
f 56/56/145 58/58/146 57/57/147 
f 57/57/148 55/55/149 56/56/150 
f 58/58/151 60/60/152 59/59/153 
f 59/59/154 57/57/155 58/58/156 
f 60/60/157 158/158/158 157/157/159 
f 157/157/160 59/59/161 60/60/162 
f 61/61/163 62/62/164 63/63/165 
f 63/63/166 64/64/167 61/61/168 
f 64/64/169 63/63/170 65/65/171 
f 65/65/172 66/66/173 64/64/174 
f 66/66/175 65/65/176 67/67/177 
f 67/67/178 68/68/179 66/66/180 
f 68/68/181 67/67/182 159/159/183 
f 159/159/184 160/160/185 68/68/186 
f 69/69/187 70/70/188 71/71/189 
f 71/71/190 72/72/191 69/69/192 
f 72/72/193 71/71/194 74/74/195 
f 74/74/196 73/73/197 76/76/198 
f 76/76/199 75/75/200 161/161/201 
f 161/161/202 162/162/203 76/76/204 
f 77/77/205 80/80/206 79/79/207 
f 79/79/208 78/78/209 77/77/210 
f 80/80/211 82/82/212 79/79/213 
f 82/82/214 84/84/215 81/81/216 
f 84/84/217 164/164/218 163/163/219 
f 163/163/220 83/83/221 84/84/222 
f 85/85/223 86/86/224 87/87/225 
f 87/87/226 88/88/227 85/85/228 
f 88/88/229 87/87/230 90/90/231 
f 90/90/232 89/89/233 165/165/234 
f 165/165/235 166/166/236 90/90/237 
f 94/94/238 93/93/239 92/92/240 
f 92/92/241 91/91/242 94/94/243 
f 94/94/244 96/96/245 93/93/246 
f 96/96/247 168/168/248 167/167/249 
f 167/167/250 95/95/251 96/96/252 
f 100/100/253 99/99/254 98/98/255 
f 98/98/256 97/97/257 100/100/258 
f 100/100/259 102/102/260 99/99/261 
f 102/102/262 170/170/263 169/169/264 
f 169/169/265 101/101/266 102/102/267 
f 103/103/268 104/104/269 105/105/270 
f 105/105/271 106/106/272 103/103/273 
f 106/106/274 105/105/275 108/108/276 
f 108/108/277 107/107/278 171/171/279 
f 171/171/280 172/172/281 108/108/282 
f 109/109/283 112/112/284 111/111/285 
f 111/111/286 110/110/287 109/109/288 
f 112/112/289 114/114/290 111/111/291 
f 114/114/292 116/116/293 113/113/294 
f 116/116/295 174/174/296 173/173/297 
f 173/173/298 115/115/299 116/116/300 
f 117/117/301 118/118/302 119/119/303 
f 119/119/304 120/120/305 117/117/306 
f 120/120/307 119/119/308 122/122/309 
f 122/122/310 121/121/311 124/124/312 
f 124/124/313 123/123/314 175/175/315 
f 175/175/316 176/176/317 124/124/318 
f 125/125/319 128/128/320 127/127/321 
f 127/127/322 126/126/323 125/125/324 
f 128/128/325 130/130/326 129/129/327 
f 129/129/328 127/127/329 128/128/330 
f 130/130/331 132/132/332 129/129/333 
f 178/178/334 177/177/335 131/131/336 
f 131/131/337 132/132/338 178/178/339 
f 133/133/340 134/134/341 135/135/342 
f 135/135/343 136/136/344 133/133/345 
f 136/136/346 135/135/347 137/137/348 
f 137/137/349 138/138/350 136/136/351 
f 138/138/352 137/137/353 140/140/354 
f 139/139/355 179/179/356 180/180/357 
f 180/180/358 140/140/359 139/139/360 
f 143/143/361 182/182/362 144/144/363 
f 145/145/364 183/183/365 146/146/366 
f 149/149/367 185/185/368 150/150/369 
f 155/155/370 188/188/371 156/156/372 
f 159/159/373 190/190/374 160/160/375 
f 161/161/376 191/191/377 162/162/378 
f 165/165/379 193/193/380 166/166/381 
f 171/171/382 196/196/383 172/172/384 
f 175/175/385 198/198/386 176/176/387 
f 179/179/388 200/200/389 180/180/390 
f 141/141/391 142/142/392 181/181/393 
f 147/147/394 148/148/395 184/184/396 
f 151/151/397 152/152/398 186/186/399 
f 153/153/400 154/154/401 187/187/402 
f 157/157/403 158/158/404 189/189/405 
f 163/163/406 164/164/407 192/192/408 
f 167/167/409 168/168/410 194/194/411 
f 169/169/412 170/170/413 195/195/414 
f 173/173/415 174/174/416 197/197/417 
f 177/177/418 178/178/419 199/199/420 
f 73/73/421 75/75/422 76/76/423 
f 84/84/424 83/83/425 81/81/426 
f 114/114/427 113/113/428 111/111/429 
f 119/119/430 121/121/431 122/122/432 
f 132/132/433 131/131/434 129/129/435 
f 137/137/436 139/139/437 140/140/438 
f 102/102/439 101/101/440 99/99/441 
f 105/105/442 107/107/443 108/108/444 
f 87/87/445 89/89/446 90/90/447 
f 96/96/448 95/95/449 93/93/450 
f 116/116/451 115/115/452 113/113/453 
f 121/121/454 123/123/455 124/124/456 
f 15/15/457 17/17/458 18/18/459 
f 24/24/460 23/23/461 21/21/462 
f 6/6/463 5/5/464 3/3/465 
f 9/9/466 11/11/467 12/12/468 
f 29/29/469 31/31/470 32/32/471 
f 40/40/472 39/39/473 37/37/474 
f 71/71/475 73/73/476 74/74/477 
f 82/82/478 81/81/479 79/79/480 
# 160 faces

