# 3ds Max Wavefront OBJ Exporter v0.99 - (c)2007 guruware
# File Created: 19.11.2024 10:16:43

#
# object FlaxStage02
#

v  -2.7652 -5.4046 -1.2995
v  2.7652 -5.4046 -1.2995
v  1.1470 13.2258 -13.9691
v  -4.4123 14.4439 -13.4098
v  -3.4903 10.5706 -25.1782
v  -8.6021 13.1599 -24.3852
v  -2.7652 -5.4992 -1.4335
v  2.7652 -5.4992 -1.4335
v  1.1009 12.9754 -13.9558
v  -4.4548 14.1994 -13.3966
v  -3.5528 10.3702 -25.1126
v  -8.6623 12.9629 -24.3197
v  2.9528 -4.5654 -0.7955
v  -1.5597 -4.5654 -2.0046
v  5.6330 11.0705 -12.7452
v  10.0468 12.0994 -11.0733
v  13.7586 7.6844 -22.4480
v  17.7562 9.8716 -20.6834
v  2.9821 -4.6453 -0.9048
v  -1.5304 -4.6453 -2.1139
v  5.6677 10.8589 -12.7242
v  10.0786 11.8928 -11.0534
v  13.7953 7.5151 -22.3809
v  17.7910 9.7051 -20.6168
v  2.6655 -6.2353 0.3378
v  -2.1457 -6.2353 -0.0831
v  -1.1902 12.5290 -5.6852
v  3.6961 12.6714 -5.0651
v  1.3651 24.3834 -14.8153
v  6.1420 25.2438 -13.7146
v  7.9204 25.0590 -26.4328
v  12.2704 27.0062 -24.9361
v  2.6767 -6.2751 0.2091
v  -2.1345 -6.2751 -0.2118
v  -1.1683 12.3993 -5.7746
v  3.7173 12.5451 -5.1527
v  1.4079 24.1681 -14.8433
v  6.1817 25.0336 -13.7420
v  7.9729 24.8704 -26.4071
v  12.3209 26.8205 -24.9100
v  -2.3584 -5.6779 0.4692
v  1.6561 -5.3168 -0.2034
v  -0.3265 10.4090 -4.8261
v  -4.3972 10.1629 -3.9806
v  -3.5885 20.1804 -12.3258
v  -7.5665 20.5490 -11.0816
v  -9.8936 20.2218 -21.6746
v  -13.5335 21.5397 -20.1233
v  -2.3747 -5.7126 0.3615
v  1.6398 -5.3516 -0.3111
v  -0.3453 10.2978 -4.9002
v  -4.4154 10.0546 -4.0532
v  -3.6171 19.9957 -12.3469
v  -7.5926 20.3688 -11.1024
v  -9.9279 20.0589 -21.6498
v  -13.5662 21.3795 -20.0983
v  -1.5226 -6.7369 -0.4029
v  3.1175 -6.0394 -1.6340
v  -0.6947 21.6722 -4.2433
v  -5.1969 21.5751 -2.1987
v  -6.7701 29.3592 -11.3783
v  -10.8095 30.2222 -8.8108
v  -1.5570 -6.7326 -0.5310
v  3.0832 -6.0351 -1.7620
v  -0.7359 21.4698 -4.3063
v  -5.2349 21.3776 -2.2606
v  -6.8113 29.1629 -11.3834
v  -10.8487 30.0287 -8.8153
v  3.4151 -5.6667 -1.0339
v  -0.6615 -5.5525 -0.9029
v  -0.0464 11.3829 -2.4175
v  4.1148 11.3268 -2.3709
v  1.8837 21.5052 -6.4685
v  6.0121 21.8942 -5.9027
v  6.6345 27.2304 -13.7901
v  10.4624 28.3893 -12.6813
v  3.4116 -5.6616 -1.1458
v  -0.6650 -5.5473 -1.0149
v  -0.0388 11.3033 -2.5137
v  4.1220 11.2494 -2.4650
v  1.9131 21.3380 -6.5311
v  6.0389 21.7308 -5.9637
v  6.6776 27.0692 -13.8057
v  10.5038 28.2304 -12.6960
v  1.5355 -5.4046 -2.6414
v  1.0535 -5.4046 2.8680
v  13.8160 13.2258 2.3601
v  13.7433 14.4439 -3.2267
v  25.3866 10.5706 -1.2826
v  25.0421 13.1599 -6.4441
v  1.6690 -5.4992 -2.6298
v  1.1870 -5.4992 2.8796
v  13.8068 12.9754 2.3131
v  13.7339 14.1994 -3.2702
v  25.3267 10.3702 -1.3506
v  24.9821 12.9628 -6.5098
v  4.4449 -5.0488 -2.4824
v  2.4723 -5.0440 1.7285
v  13.7732 10.7870 5.6206
v  15.9482 11.3508 1.4867
v  22.1178 7.6335 8.3980
v  24.5219 8.9584 4.6373
v  4.5481 -5.1284 -2.4353
v  2.5743 -5.1231 1.7762
v  13.7798 10.5767 5.5954
v  15.9567 11.1430 1.4665
v  22.1020 7.4557 8.3480
v  24.5072 8.7822 4.5888
v  -0.5689 -6.2353 2.6259
v  0.2698 -6.2353 -2.1303
v  5.7673 12.5290 -0.6902
v  4.7237 12.6714 4.1235
v  14.6400 24.3834 2.6511
v  13.1271 25.2438 7.3140
v  22.4032 25.0590 8.4556
v  20.5331 27.0062 12.6587
v  -0.4416 -6.2751 2.6483
v  0.3970 -6.2751 -2.1079
v  5.8544 12.3993 -0.6605
v  4.8091 12.5451 4.1523
v  14.6641 24.1681 2.6962
v  13.1509 25.0336 7.3559
v  22.3730 24.8704 8.5057
v  20.5027 26.8205 12.7067
v  -0.2618 -5.6779 -2.3903
v  0.0583 -5.3168 1.6675
v  4.8362 10.4090 0.0953
v  4.3487 10.1629 -4.0335
v  12.5917 20.1804 -2.5006
v  11.6989 20.5490 -6.5719
v  22.4544 20.2218 -7.9668
v  21.2263 21.5397 -11.7282
v  -0.1531 -5.7126 -2.3971
v  0.1670 -5.3516 1.6607
v  4.9117 10.2978 0.0831
v  4.4226 10.0546 -4.0453
v  12.6152 19.9957 -2.5272
v  11.7219 20.3688 -6.5960
v  22.4327 20.0589 -8.0032
v  21.2042 21.3795 -11.7629
v  2.6414 -5.4046 1.5355
v  -2.8680 -5.4046 1.0535
v  -2.3601 13.2258 13.8160
v  3.2268 14.4439 13.7433
v  0.2078 10.5706 22.1785
v  5.3693 13.1599 21.8341
v  2.6298 -5.4992 1.6690
v  -2.8796 -5.4992 1.1870
v  -2.3131 12.9754 13.8068
v  3.2702 14.1994 13.7339
v  0.2758 10.3702 22.1187
v  5.4350 12.9628 21.7741
v  -3.0109 -4.5654 0.5351
v  1.3791 -4.5654 2.1329
v  -6.7224 11.0705 12.2057
v  -10.9736 12.0994 10.1556
v  -15.6628 7.6844 21.1635
v  -19.4913 9.8716 19.0572
v  -3.0496 -4.6453 0.6415
v  1.3404 -4.6453 2.2393
v  -6.7551 10.8589 12.1819
v  -11.0036 11.8928 10.1329
v  -15.6934 7.5151 21.0934
v  -19.5202 9.7051 18.9878
v  -2.6259 -6.2353 -0.5689
v  2.1303 -6.2353 0.2698
v  0.6902 12.5290 5.7673
v  -4.1235 12.6714 4.7237
v  -1.0813 20.6484 11.2876
v  -5.7442 21.5088 9.7747
v  -6.0291 25.0590 22.4099
v  -10.2322 27.0062 20.5399
v  -2.6483 -6.2751 -0.4416
v  2.1079 -6.2751 0.3970
v  0.6605 12.3993 5.8544
v  -4.1523 12.5451 4.8091
v  -1.1265 20.4332 11.3117
v  -5.7861 21.2986 9.7986
v  -6.0792 24.8704 22.3797
v  -10.2802 26.8205 20.5095
v  2.3903 -5.6779 -0.2618
v  -1.6675 -5.3168 0.0583
v  3.1019 18.3561 12.6572
v  7.1731 18.7247 11.7644
v  7.9669 20.2218 22.4544
v  11.7282 21.5397 21.2263
v  2.3971 -5.7126 -0.1531
v  -1.6607 -5.3516 0.1670
v  3.1285 18.1714 12.6807
v  7.1973 18.5445 11.7874
v  8.0032 20.0589 22.4327
v  11.7629 21.3795 21.2043
v  -1.0535 -5.4046 2.8680
v  -1.5355 -5.4046 -2.6414
v  -14.0159 13.2258 0.0749
v  -12.9742 14.4439 5.5642
v  -24.7782 10.5706 5.6715
v  -23.5427 13.1599 10.6947
v  -1.1870 -5.4992 2.8796
v  -1.6690 -5.4992 -2.6298
v  -13.9987 12.9754 0.1196
v  -12.9574 14.1994 5.6054
v  -24.7074 10.3702 5.7280
v  -23.4721 12.9628 10.7490
v  -1.0498 -4.5654 -2.8722
v  -1.8610 -4.5654 1.7285
v  -13.1876 11.0705 -4.5008
v  -11.9068 12.0994 -9.0434
v  -23.5618 7.6844 -11.7498
v  -22.1523 9.8716 -15.8859
v  -1.1613 -4.6453 -2.8919
v  -1.9725 -4.6453 1.7089
v  -13.1698 10.8589 -4.5372
v  -11.8897 11.8928 -9.0769
v  -23.4980 7.5151 -11.7922
v  -22.0889 9.7051 -15.9264
v  0.1043 -6.2353 -2.6848
v  0.1043 -6.2353 2.1448
v  -5.5598 12.5290 1.6812
v  -5.3679 12.6714 -3.2406
v  -14.8779 24.3834 -0.0686
v  -14.1977 25.2438 -4.9234
v  -27.0225 25.0590 -5.5865
v  -25.9107 27.0062 -10.0504
v  -0.0249 -6.2751 -2.6848
v  -0.0249 -6.2751 2.1448
v  -5.6508 12.3993 1.6671
v  -5.4571 12.5451 -3.2541
v  -14.9095 24.1681 -0.1089
v  -14.2285 25.0336 -4.9605
v  -27.0015 24.8704 -5.6410
v  -25.8891 26.8205 -10.1030
v  -2.2913 -5.0654 -2.7679
v  -0.9425 -5.5386 1.0455
v  -5.3550 10.1343 3.1400
v  -6.8069 10.6753 -0.7626
v  -12.5939 20.1464 5.5082
v  -14.0212 21.1614 1.7463
v  -23.0083 20.9824 8.2775
v  -24.5254 22.7174 4.8229
v  -2.3951 -5.1007 -2.7347
v  -1.0452 -5.5738 1.0793
v  -5.4309 10.0269 3.1494
v  -6.8835 10.5699 -0.7511
v  -12.6336 19.9703 5.4857
v  -14.0624 20.9881 1.7281
v  -23.0218 20.8265 8.2352
v  -24.5396 22.5631 4.7819
v  -0.2687 -6.7369 1.5519
v  -1.8995 -6.0394 -2.9632
v  -5.7381 25.8272 3.3150
v  -2.5979 25.7300 7.1346
v  -11.5781 31.4546 10.0756
v  -8.6683 32.3176 13.8758
v  -0.3933 -6.7326 1.5973
v  -2.0241 -6.0351 -2.9178
v  -5.7972 25.6247 3.3577
v  -2.6568 25.5325 7.1740
v  -11.5795 31.2583 10.1171
v  -8.6693 32.1241 13.9153
v  -7.3692 6.4411 -29.5821
v  -11.2630 8.6413 -28.9376
v  -7.4035 6.3213 -29.5282
v  -11.2964 8.5228 -28.8836
v  18.2519 4.4066 -25.0223
v  20.5609 5.8200 -23.9749
v  18.2642 4.3296 -24.9831
v  20.5726 5.7439 -23.9358
v  11.9253 23.0047 -30.4507
v  14.7461 24.4233 -29.4161
v  11.9489 22.9047 -30.4272
v  14.7690 24.3243 -29.3925
v  -13.4579 18.1854 -24.7867
v  -15.7762 19.1531 -23.7465
v  -13.4716 18.1011 -24.7659
v  -15.7894 19.0696 -23.7257
v  -11.2192 28.3827 -14.2161
v  -13.3420 28.9419 -12.7876
v  -11.2321 28.2959 -14.2112
v  -13.3543 28.8557 -12.7826
v  9.9498 26.7556 -17.2655
v  12.5507 27.6536 -16.4336
v  9.9708 26.6634 -17.2654
v  12.5712 27.5621 -16.4332
v  30.1073 6.4680 -4.8143
v  29.8123 8.6113 -8.6477
v  30.0578 6.3513 -4.8521
v  29.7628 8.4959 -8.6847
v  27.1231 3.9845 9.2135
v  28.6547 4.8929 6.8985
v  27.1078 3.8984 9.1832
v  28.6397 4.8073 6.8687
v  26.0213 23.0406 12.8701
v  24.8143 24.3820 15.4419
v  25.9972 22.9460 12.8904
v  24.7902 24.2884 15.4616
v  25.8523 18.1989 -11.2832
v  25.0436 19.1371 -13.6103
v  25.8334 18.1171 -11.2981
v  25.0245 19.0562 -13.6247
v  5.0567 6.5950 30.0857
v  8.4099 8.4698 29.8277
v  5.0899 6.4929 30.0424
v  8.4423 8.3688 29.7844
v  -20.1959 5.2519 24.0801
v  -22.7382 6.8787 22.6476
v  -20.2061 5.1633 24.0340
v  -22.7478 6.7910 22.6017
v  -10.4962 23.0659 26.0030
v  -12.9636 24.3529 24.8451
v  -10.5157 22.9752 25.9799
v  -12.9824 24.2630 24.8219
v  11.3929 18.2390 25.8135
v  13.5019 19.0893 25.0806
v  11.4065 18.1649 25.7964
v  13.5150 19.0160 25.0633
v  -28.8215 6.4527 9.9409
v  -27.8510 8.6283 13.7211
v  -28.7654 6.3342 9.9700
v  -27.7949 8.5111 13.7493
v  -26.5501 4.3575 -15.9132
v  -25.6461 5.8747 -18.4803
v  -26.5094 4.2749 -15.9300
v  -25.6055 5.7930 -18.4966
v  -31.3821 22.9917 -9.1972
v  -30.5819 24.4383 -12.1545
v  -31.3603 22.8897 -9.2232
v  -30.5599 24.3373 -12.1799
v  -27.6183 19.2746 8.8166
v  -28.6858 20.5644 6.4511
v  -27.6179 19.1880 8.7886
v  -28.6856 20.4784 6.4235
v  -14.1968 30.4256 14.5324
v  -12.2311 31.1091 16.9653
v  -14.1895 30.3194 14.5475
v  -12.2237 31.0038 16.9797
v  -12.5762 3.2518 -33.7537
v  -12.6022 3.1429 -33.6800
v  22.5983 1.1110 -24.7064
v  22.6034 1.0191 -24.6406
v  15.1803 18.5214 -31.9907
v  15.1991 18.4076 -31.9453
v  -18.2314 12.6623 -26.0571
v  -18.2393 12.5651 -26.0178
v  -16.2210 25.9801 -18.1598
v  -16.2276 25.8530 -18.1367
v  13.5989 24.2835 -19.9335
v  13.6169 24.1775 -19.9175
v  32.5734 2.4355 -9.5865
v  32.5022 2.3267 -9.6188
v  30.3193 -0.1825 9.6128
v  30.2857 -0.2818 9.5651
v  27.8116 20.3621 17.7429
v  27.7647 20.2483 17.7577
v  27.6829 14.9747 -15.0372
v  27.6445 14.8775 -15.0485
v  9.5865 3.3024 32.0081
v  9.6188 3.1936 31.9369
v  -25.3524 1.5020 25.3455
v  -25.3518 1.4101 25.2795
v  -15.3164 20.1441 27.7919
v  -15.3312 20.0303 27.7451
v  15.0372 15.1988 27.5499
v  15.0485 15.1016 27.5114
v  -30.2733 2.9489 15.4701
v  -30.1976 2.8401 15.4896
v  -27.2975 1.3817 -20.5460
v  -27.2323 1.2897 -20.5568
v  -35.5080 21.4464 -13.5208
v  -35.4644 21.3326 -13.5435
v  -32.5374 18.0278 8.7300
v  -32.5227 17.9328 8.6911
v  -16.3085 27.2607 18.7096
v  -16.2849 27.1336 18.7141
# 374 vertices

vn 0.1018 0.5447 0.8324
vn 0.1018 0.5447 0.8324
vn 0.2026 0.8703 0.4490
vn 0.2026 0.8703 0.4490
vn 0.1832 0.9352 0.3030
vn 0.1018 0.5447 0.8324
vn 0.1832 0.9352 0.3030
vn 0.2026 0.8703 0.4490
vn 0.2774 0.7802 -0.5606
vn 0.2774 0.7802 -0.5606
vn 0.3096 0.7704 -0.5573
vn 0.2165 0.6204 -0.7538
vn 0.2165 0.6204 -0.7538
vn 0.2166 0.6204 -0.7538
vn 0.2774 0.7802 -0.5606
vn -0.1843 -0.9348 -0.3035
vn -0.2033 -0.8686 -0.4519
vn -0.1020 -0.5434 -0.8332
vn -0.1020 -0.5434 -0.8332
vn -0.1020 -0.5434 -0.8332
vn -0.1843 -0.9348 -0.3035
vn -0.1843 -0.9348 -0.3035
vn -0.2798 -0.7824 0.5564
vn -0.2033 -0.8686 -0.4519
vn -0.2798 -0.7824 0.5564
vn -0.2189 -0.6233 0.7507
vn -0.2189 -0.6233 0.7507
vn -0.2189 -0.6233 0.7507
vn -0.3121 -0.7726 0.5530
vn -0.2798 -0.7824 0.5564
vn -0.2228 0.9650 0.1385
vn -0.2879 0.8940 0.3433
vn -0.3061 0.6106 0.7304
vn -0.3061 0.6106 0.7304
vn -0.3061 0.6106 0.7304
vn -0.2228 0.9650 0.1385
vn -0.2228 0.9650 0.1385
vn -0.1101 0.7634 -0.6365
vn -0.2879 0.8940 0.3433
vn -0.1101 0.7634 -0.6365
vn 0.1177 0.4730 -0.8731
vn 0.1073 0.4867 -0.8670
vn 0.1073 0.4867 -0.8670
vn -0.1388 0.7583 -0.6370
vn -0.1101 0.7634 -0.6365
vn 0.3065 -0.6101 -0.7306
vn 0.3065 -0.6101 -0.7306
vn 0.2891 -0.8929 -0.3452
vn 0.2891 -0.8929 -0.3452
vn 0.2237 -0.9649 -0.1378
vn 0.3065 -0.6101 -0.7306
vn 0.2237 -0.9649 -0.1378
vn 0.2891 -0.8929 -0.3452
vn 0.1145 -0.7664 0.6320
vn 0.1145 -0.7664 0.6320
vn 0.1431 -0.7612 0.6325
vn -0.1038 -0.4908 0.8651
vn -0.1038 -0.4908 0.8651
vn -0.1148 -0.4765 0.8716
vn 0.1145 -0.7664 0.6320
vn -0.1065 0.2840 0.9529
vn -0.1584 0.4595 0.8739
vn -0.1537 0.4435 0.8830
vn -0.1537 0.4435 0.8830
vn -0.1065 0.2840 0.9529
vn -0.1065 0.2840 0.9529
vn -0.1584 0.4595 0.8739
vn -0.2114 0.8944 0.3942
vn -0.2369 0.8387 0.4903
vn -0.2369 0.8387 0.4903
vn -0.1537 0.4435 0.8830
vn -0.1584 0.4595 0.8739
vn -0.2114 0.8944 0.3942
vn -0.2526 0.8968 -0.3632
vn -0.2369 0.8387 0.4903
vn -0.2526 0.8968 -0.3632
vn -0.0558 0.6727 -0.7378
vn -0.0376 0.6499 -0.7591
vn -0.0376 0.6499 -0.7591
vn -0.2890 0.8948 -0.3402
vn -0.2526 0.8968 -0.3632
vn 0.1068 -0.2834 -0.9530
vn 0.1068 -0.2834 -0.9530
vn 0.1542 -0.4432 -0.8831
vn 0.1542 -0.4432 -0.8831
vn 0.1590 -0.4597 -0.8737
vn 0.1068 -0.2834 -0.9530
vn 0.1590 -0.4597 -0.8737
vn 0.1542 -0.4432 -0.8831
vn 0.2379 -0.8381 -0.4910
vn 0.2379 -0.8381 -0.4910
vn 0.2125 -0.8943 -0.3939
vn 0.1590 -0.4597 -0.8737
vn 0.2125 -0.8943 -0.3939
vn 0.2379 -0.8381 -0.4910
vn 0.2561 -0.8983 0.3570
vn 0.2561 -0.8983 0.3570
vn 0.2922 -0.8960 0.3345
vn 0.0405 -0.6533 0.7560
vn 0.0405 -0.6533 0.7560
vn 0.0592 -0.6765 0.7341
vn 0.2561 -0.8983 0.3570
vn 0.1554 0.2911 0.9440
vn 0.1554 0.2911 0.9440
vn 0.1836 0.4572 0.8702
vn 0.1836 0.4572 0.8702
vn 0.1851 0.4666 0.8649
vn 0.1554 0.2911 0.9440
vn 0.1851 0.4666 0.8649
vn 0.1836 0.4572 0.8702
vn 0.2003 0.8583 0.4725
vn 0.2003 0.8583 0.4725
vn 0.1631 0.9078 0.3865
vn 0.1851 0.4666 0.8649
vn 0.1631 0.9078 0.3865
vn 0.2003 0.8583 0.4725
vn 0.1443 0.9135 -0.3804
vn 0.1443 0.9135 -0.3804
vn 0.1830 0.9146 -0.3605
vn -0.0687 0.6636 -0.7449
vn -0.0687 0.6636 -0.7449
vn -0.0792 0.6494 -0.7563
vn 0.1443 0.9135 -0.3804
vn -0.1557 -0.2905 -0.9441
vn -0.1856 -0.4669 -0.8646
vn -0.1841 -0.4569 -0.8703
vn -0.1841 -0.4569 -0.8703
vn -0.1557 -0.2905 -0.9441
vn -0.1557 -0.2905 -0.9441
vn -0.1856 -0.4669 -0.8646
vn -0.1641 -0.9077 -0.3861
vn -0.2014 -0.8576 -0.4732
vn -0.2014 -0.8576 -0.4732
vn -0.1841 -0.4569 -0.8703
vn -0.1856 -0.4669 -0.8646
vn -0.1641 -0.9077 -0.3861
vn -0.1484 -0.9153 0.3744
vn -0.2014 -0.8576 -0.4732
vn -0.1484 -0.9153 0.3744
vn 0.0761 -0.6532 0.7533
vn 0.0652 -0.6680 0.7413
vn 0.0652 -0.6680 0.7413
vn -0.1866 -0.9161 0.3550
vn -0.1484 -0.9153 0.3744
vn 0.3259 0.1173 0.9381
vn 0.3259 0.1173 0.9381
vn 0.3483 0.4156 0.8402
vn 0.3483 0.4156 0.8402
vn 0.3211 0.4506 0.8330
vn 0.3259 0.1173 0.9381
vn 0.3211 0.4506 0.8330
vn 0.3483 0.4156 0.8402
vn 0.2238 0.9716 0.0763
vn 0.2238 0.9716 0.0763
vn 0.3063 0.9388 0.1579
vn -0.0239 0.9256 -0.3778
vn -0.0239 0.9256 -0.3778
vn -0.0273 0.9232 -0.3833
vn 0.2238 0.9716 0.0763
vn -0.3222 -0.4491 -0.8334
vn -0.3493 -0.4132 -0.8410
vn -0.3263 -0.1161 -0.9381
vn -0.3263 -0.1161 -0.9381
vn -0.3263 -0.1161 -0.9381
vn -0.3222 -0.4491 -0.8334
vn -0.3222 -0.4491 -0.8334
vn -0.2304 -0.9693 -0.0858
vn -0.3493 -0.4132 -0.8410
vn -0.2304 -0.9693 -0.0858
vn 0.0225 -0.9258 0.3774
vn 0.0185 -0.9285 0.3710
vn 0.0185 -0.9285 0.3710
vn -0.3117 -0.9356 -0.1661
vn -0.2304 -0.9693 -0.0858
vn 0.0119 0.0833 0.9965
vn -0.0386 0.2299 0.9725
vn -0.0331 0.2140 0.9763
vn -0.0331 0.2140 0.9763
vn 0.0119 0.0833 0.9965
vn 0.0119 0.0833 0.9965
vn -0.0386 0.2299 0.9725
vn -0.1316 0.6169 0.7759
vn -0.1411 0.5487 0.8240
vn -0.1411 0.5487 0.8240
vn -0.0331 0.2140 0.9763
vn -0.0386 0.2299 0.9725
vn -0.1316 0.6169 0.7759
vn -0.2714 0.9624 0.0055
vn -0.1411 0.5487 0.8240
vn -0.2714 0.9624 0.0055
vn -0.1208 0.8511 -0.5109
vn -0.1390 0.8714 -0.4705
vn -0.1390 0.8714 -0.4705
vn -0.3318 0.9303 0.1566
vn -0.2714 0.9624 0.0055
vn -0.0116 -0.0827 -0.9965
vn -0.0116 -0.0827 -0.9965
vn 0.0335 -0.2136 -0.9763
vn 0.0335 -0.2136 -0.9763
vn 0.0392 -0.2299 -0.9724
vn -0.0116 -0.0827 -0.9965
vn 0.0392 -0.2299 -0.9724
vn 0.0335 -0.2136 -0.9763
vn 0.1418 -0.5474 -0.8248
vn 0.1418 -0.5474 -0.8248
vn 0.1326 -0.6161 -0.7764
vn 0.0392 -0.2299 -0.9724
vn 0.1326 -0.6161 -0.7764
vn 0.1418 -0.5474 -0.8248
vn 0.2744 -0.9615 -0.0139
vn 0.2744 -0.9615 -0.0139
vn 0.3339 -0.9284 -0.1631
vn 0.1421 -0.8743 0.4642
vn 0.1421 -0.8743 0.4642
vn 0.1231 -0.8533 0.5067
vn 0.2744 -0.9615 -0.0139
vn -0.8381 0.5447 0.0289
vn -0.8381 0.5447 0.0289
vn -0.4540 0.8709 0.1881
vn -0.4540 0.8709 0.1881
vn -0.2702 0.9334 0.2362
vn -0.8381 0.5447 0.0289
vn -0.2702 0.9334 0.2362
vn -0.4540 0.8709 0.1881
vn 0.4927 0.8135 0.3089
vn 0.4927 0.8135 0.3089
vn 0.5208 0.7967 0.3067
vn -0.2702 0.9334 0.2362
vn 0.5208 0.7967 0.3067
vn 0.4927 0.8135 0.3089
vn 0.8203 0.5270 0.2222
vn 0.8203 0.5270 0.2222
vn 0.8190 0.5287 0.2231
vn 0.5208 0.7967 0.3067
vn 0.2703 -0.9330 -0.2374
vn 0.4570 -0.8693 -0.1883
vn 0.8390 -0.5434 -0.0290
vn 0.8390 -0.5434 -0.0290
vn 0.8390 -0.5434 -0.0290
vn 0.2703 -0.9330 -0.2374
vn 0.2703 -0.9330 -0.2374
vn -0.5162 -0.7988 -0.3090
vn -0.4876 -0.8158 -0.3111
vn -0.4876 -0.8158 -0.3111
vn 0.4570 -0.8693 -0.1883
vn 0.2703 -0.9330 -0.2374
vn -0.5162 -0.7988 -0.3090
vn -0.8164 -0.5318 -0.2252
vn -0.8177 -0.5302 -0.2243
vn -0.8177 -0.5302 -0.2243
vn -0.4876 -0.8158 -0.3111
vn -0.5162 -0.7988 -0.3090
vn -0.7331 0.5978 -0.3243
vn -0.7331 0.5978 -0.3243
vn -0.3892 0.9205 -0.0340
vn -0.3892 0.9205 -0.0340
vn -0.2837 0.9580 0.0411
vn -0.7331 0.5978 -0.3243
vn -0.2837 0.9580 0.0411
vn -0.3892 0.9205 -0.0340
vn 0.3027 0.8479 0.4351
vn 0.3027 0.8479 0.4351
vn 0.3129 0.8396 0.4441
vn -0.2837 0.9580 0.0411
vn 0.3027 0.8479 0.4351
vn 0.5165 0.6324 0.5773
vn 0.4999 0.6509 0.5713
vn 0.4999 0.6509 0.5713
vn 0.3129 0.8396 0.4441
vn 0.3027 0.8479 0.4351
vn 0.2840 -0.9579 -0.0414
vn 0.3913 -0.9196 0.0350
vn 0.7334 -0.5972 0.3248
vn 0.7334 -0.5972 0.3248
vn 0.7334 -0.5972 0.3248
vn 0.2840 -0.9579 -0.0414
vn 0.2840 -0.9579 -0.0414
vn -0.3070 -0.8427 -0.4423
vn -0.2968 -0.8510 -0.4331
vn -0.2968 -0.8510 -0.4331
vn 0.3913 -0.9196 0.0350
vn 0.2840 -0.9579 -0.0414
vn -0.4958 -0.6547 -0.5705
vn -0.5136 -0.6352 -0.5768
vn -0.2968 -0.8510 -0.4331
vn -0.2968 -0.8510 -0.4331
vn -0.3070 -0.8427 -0.4423
vn -0.4958 -0.6547 -0.5705
vn -0.9400 0.2840 -0.1891
vn -0.8568 0.4595 -0.2340
vn -0.8662 0.4435 -0.2301
vn -0.8662 0.4435 -0.2301
vn -0.9400 0.2840 -0.1891
vn -0.9400 0.2840 -0.1891
vn -0.8568 0.4595 -0.2340
vn -0.3193 0.8967 -0.3064
vn -0.4625 0.8331 -0.3034
vn -0.4625 0.8331 -0.3034
vn -0.8662 0.4435 -0.2301
vn -0.8568 0.4595 -0.2340
vn -0.3193 0.8967 -0.3064
vn 0.3539 0.9123 -0.2060
vn 0.2887 0.9305 -0.2252
vn 0.2887 0.9305 -0.2252
vn -0.4625 0.8331 -0.3034
vn -0.3193 0.8967 -0.3064
vn 0.3539 0.9123 -0.2060
vn 0.6860 0.7261 -0.0457
vn 0.6738 0.7368 -0.0558
vn 0.6738 0.7368 -0.0558
vn 0.2887 0.9305 -0.2252
vn 0.3539 0.9123 -0.2060
vn 0.9401 -0.2834 0.1894
vn 0.9401 -0.2834 0.1894
vn 0.8663 -0.4432 0.2305
vn 0.8663 -0.4432 0.2305
vn 0.8565 -0.4597 0.2346
vn 0.9401 -0.2834 0.1894
vn 0.8565 -0.4597 0.2346
vn 0.8663 -0.4432 0.2305
vn 0.4636 -0.8322 0.3043
vn 0.4636 -0.8322 0.3043
vn 0.3188 -0.8965 0.3075
vn 0.8565 -0.4597 0.2346
vn 0.3188 -0.8965 0.3075
vn 0.4636 -0.8322 0.3043
vn -0.2822 -0.9315 0.2294
vn -0.2822 -0.9315 0.2294
vn -0.3474 -0.9137 0.2107
vn 0.3188 -0.8965 0.3075
vn -0.3474 -0.9137 0.2107
vn -0.2822 -0.9315 0.2294
vn -0.6698 -0.7402 0.0596
vn -0.6698 -0.7402 0.0596
vn -0.6829 -0.7289 0.0487
vn -0.3474 -0.9137 0.2107
vn -0.9539 0.2911 0.0725
vn -0.9539 0.2911 0.0725
vn -0.8829 0.4572 0.1070
vn -0.8829 0.4572 0.1070
vn -0.8777 0.4666 0.1090
vn -0.9539 0.2911 0.0725
vn -0.8777 0.4666 0.1090
vn -0.8829 0.4572 0.1070
vn -0.4690 0.8640 0.1833
vn -0.4690 0.8640 0.1833
vn -0.3427 0.9196 0.1920
vn -0.8777 0.4666 0.1090
vn -0.3427 0.9196 0.1920
vn -0.4690 0.8640 0.1833
vn 0.2882 0.9433 0.1647
vn 0.2882 0.9433 0.1647
vn 0.3430 0.9264 0.1556
vn -0.3427 0.9196 0.1920
vn 0.3430 0.9264 0.1556
vn 0.2882 0.9433 0.1647
vn 0.6951 0.7180 0.0365
vn 0.6951 0.7180 0.0365
vn 0.7064 0.7073 0.0291
vn 0.3430 0.9264 0.1556
vn 0.9541 -0.2905 -0.0729
vn 0.8775 -0.4669 -0.1096
vn 0.8830 -0.4569 -0.1075
vn 0.8830 -0.4569 -0.1075
vn 0.9541 -0.2905 -0.0729
vn 0.9541 -0.2905 -0.0729
vn 0.8775 -0.4669 -0.1096
vn 0.3421 -0.9196 -0.1930
vn 0.4698 -0.8633 -0.1842
vn 0.4698 -0.8633 -0.1842
vn 0.8830 -0.4569 -0.1075
vn 0.8775 -0.4669 -0.1096
vn 0.3421 -0.9196 -0.1930
vn -0.3365 -0.9281 -0.1594
vn -0.2819 -0.9446 -0.1680
vn -0.2819 -0.9446 -0.1680
vn 0.4698 -0.8633 -0.1842
vn 0.3421 -0.9196 -0.1930
vn -0.3365 -0.9281 -0.1594
vn -0.7029 -0.7106 -0.0317
vn -0.6910 -0.7218 -0.0396
vn -0.6910 -0.7218 -0.0396
vn -0.2819 -0.9446 -0.1680
vn -0.3365 -0.9281 -0.1594
vn -0.0289 0.5447 -0.8381
vn -0.0289 0.5447 -0.8381
vn -0.1744 0.8832 -0.4355
vn -0.1744 0.8832 -0.4355
vn -0.1559 0.9408 -0.3011
vn -0.0289 0.5447 -0.8381
vn -0.1559 0.9408 -0.3011
vn -0.1744 0.8832 -0.4355
vn -0.3425 0.8192 0.4599
vn -0.3425 0.8192 0.4599
vn -0.3744 0.7964 0.4749
vn -0.2698 0.6097 0.7453
vn -0.2698 0.6097 0.7453
vn -0.2607 0.5939 0.7611
vn -0.3425 0.8192 0.4599
vn 0.1570 -0.9403 0.3018
vn 0.1748 -0.8814 0.4389
vn 0.0290 -0.5434 0.8390
vn 0.0290 -0.5434 0.8390
vn 0.0290 -0.5434 0.8390
vn 0.1570 -0.9403 0.3018
vn 0.1570 -0.9403 0.3018
vn 0.3445 -0.8213 -0.4548
vn 0.1748 -0.8814 0.4389
vn 0.3445 -0.8213 -0.4548
vn 0.2621 -0.5958 -0.7592
vn 0.2715 -0.6121 -0.7427
vn 0.2715 -0.6121 -0.7427
vn 0.3764 -0.7983 -0.4702
vn 0.3445 -0.8213 -0.4548
vn 0.2340 0.9650 -0.1185
vn 0.3168 0.8940 -0.3169
vn 0.3686 0.6106 -0.7009
vn 0.3686 0.6106 -0.7009
vn 0.3686 0.6106 -0.7009
vn 0.2340 0.9650 -0.1185
vn 0.2340 0.9650 -0.1185
vn 0.1144 0.8042 0.5833
vn 0.3168 0.8940 -0.3169
vn 0.1144 0.8042 0.5833
vn -0.0359 0.6410 0.7667
vn -0.0348 0.6422 0.7657
vn -0.0348 0.6422 0.7657
vn 0.1362 0.7949 0.5913
vn 0.1144 0.8042 0.5833
vn -0.3690 -0.6101 0.7012
vn -0.3690 -0.6101 0.7012
vn -0.3181 -0.8929 0.3187
vn -0.3181 -0.8929 0.3187
vn -0.2349 -0.9649 0.1178
vn -0.3690 -0.6101 0.7012
vn -0.2349 -0.9649 0.1178
vn -0.3181 -0.8929 0.3187
vn -0.1192 -0.8068 -0.5787
vn -0.1192 -0.8068 -0.5787
vn -0.1406 -0.7973 -0.5870
vn 0.0306 -0.6459 -0.7628
vn 0.0306 -0.6459 -0.7628
vn 0.0319 -0.6446 -0.7639
vn -0.1192 -0.8068 -0.5787
vn 0.1891 0.2840 -0.9400
vn 0.2347 0.4261 -0.8737
vn 0.2316 0.4159 -0.8794
vn 0.2316 0.4159 -0.8794
vn 0.1891 0.2840 -0.9400
vn 0.1891 0.2840 -0.9400
vn 0.2347 0.4261 -0.8737
vn 0.2862 0.7706 -0.5695
vn 0.3107 0.7415 -0.5947
vn 0.3107 0.7415 -0.5947
vn 0.2316 0.4159 -0.8794
vn 0.2347 0.4261 -0.8737
vn 0.2862 0.7706 -0.5695
vn 0.2963 0.9271 0.2295
vn 0.3107 0.7415 -0.5947
vn 0.2963 0.9271 0.2295
vn 0.0386 0.7195 0.6934
vn 0.0484 0.7300 0.6818
vn 0.0484 0.7300 0.6818
vn 0.3469 0.9186 0.1895
vn 0.2963 0.9271 0.2295
vn -0.1894 -0.2834 0.9401
vn -0.1894 -0.2834 0.9401
vn -0.2320 -0.4154 0.8796
vn -0.2320 -0.4154 0.8796
vn -0.2353 -0.4261 0.8735
vn -0.1894 -0.2834 0.9401
vn -0.2353 -0.4261 0.8735
vn -0.2320 -0.4154 0.8796
vn -0.3117 -0.7402 0.5958
vn -0.3117 -0.7402 0.5958
vn -0.2873 -0.7698 0.5699
vn -0.2353 -0.4261 0.8735
vn -0.2873 -0.7698 0.5699
vn -0.3117 -0.7402 0.5958
vn -0.3006 -0.9275 -0.2224
vn -0.3006 -0.9275 -0.2224
vn -0.3510 -0.9185 -0.1821
vn -0.0522 -0.7335 -0.6777
vn -0.0522 -0.7335 -0.6777
vn -0.0417 -0.7225 -0.6901
vn -0.3006 -0.9275 -0.2224
vn -0.1305 0.4724 -0.8717
vn -0.1305 0.4724 -0.8717
vn -0.1989 0.7672 -0.6098
vn -0.1989 0.7672 -0.6098
vn -0.2146 0.8383 -0.5013
vn -0.1305 0.4724 -0.8717
vn -0.2146 0.8383 -0.5013
vn -0.1989 0.7672 -0.6098
vn -0.1965 0.9625 0.1871
vn -0.1965 0.9625 0.1871
vn -0.1822 0.9472 0.2640
vn -0.2146 0.8383 -0.5013
vn -0.1822 0.9472 0.2640
vn -0.1965 0.9625 0.1871
vn -0.0377 0.7201 0.6928
vn -0.0377 0.7201 0.6928
vn -0.0287 0.7072 0.7064
vn -0.1822 0.9472 0.2640
vn 0.2156 -0.8380 0.5013
vn 0.1995 -0.7661 0.6110
vn 0.1308 -0.4724 0.8716
vn 0.1308 -0.4724 0.8716
vn 0.1308 -0.4724 0.8716
vn 0.2156 -0.8380 0.5013
vn 0.2156 -0.8380 0.5013
vn 0.1863 -0.9485 -0.2563
vn 0.2002 -0.9632 -0.1795
vn 0.2002 -0.9632 -0.1795
vn 0.1995 -0.7661 0.6110
vn 0.2156 -0.8380 0.5013
vn 0.1863 -0.9485 -0.2563
vn 0.0314 -0.7106 -0.7029
vn 0.0409 -0.7242 -0.6884
vn 0.0409 -0.7242 -0.6884
vn 0.2002 -0.9632 -0.1795
vn 0.1863 -0.9485 -0.2563
vn 0.8204 0.5447 -0.1740
vn 0.8204 0.5447 -0.1740
vn 0.4296 0.8703 -0.2409
vn 0.4296 0.8703 -0.2409
vn 0.2859 0.9352 -0.2089
vn 0.8204 0.5447 -0.1740
vn 0.2859 0.9352 -0.2089
vn 0.4296 0.8703 -0.2409
vn -0.5824 0.7804 -0.2276
vn -0.5824 0.7804 -0.2276
vn -0.5820 0.7705 -0.2600
vn -0.8408 0.5350 -0.0821
vn -0.8408 0.5350 -0.0821
vn -0.8451 0.5290 -0.0780
vn -0.5824 0.7804 -0.2276
vn -0.2863 -0.9348 0.2100
vn -0.4324 -0.8686 0.2419
vn -0.8212 -0.5434 0.1743
vn -0.8212 -0.5434 0.1743
vn -0.8212 -0.5434 0.1743
vn -0.2863 -0.9348 0.2100
vn -0.2863 -0.9348 0.2100
vn 0.5784 -0.7826 0.2304
vn -0.4324 -0.8686 0.2419
vn 0.5784 -0.7826 0.2304
vn 0.8430 -0.5319 0.0804
vn 0.8385 -0.5382 0.0848
vn 0.8385 -0.5382 0.0848
vn 0.5778 -0.7727 0.2628
vn 0.5784 -0.7826 0.2304
vn 0.1573 0.9650 0.2099
vn 0.3671 0.8940 0.2569
vn 0.7543 0.6106 0.2413
vn 0.7543 0.6106 0.2413
vn 0.7543 0.6106 0.2413
vn 0.1573 0.9650 0.2099
vn 0.1573 0.9650 0.2099
vn -0.6255 0.7626 0.1649
vn 0.3671 0.8940 0.2569
vn -0.6255 0.7626 0.1649
vn -0.8532 0.5215 -0.0025
vn -0.8469 0.5317 0.0049
vn -0.8469 0.5317 0.0049
vn -0.6234 0.7576 0.1934
vn -0.6255 0.7626 0.1649
vn -0.7546 -0.6101 -0.2417
vn -0.7546 -0.6101 -0.2417
vn -0.3691 -0.8929 -0.2579
vn -0.3691 -0.8929 -0.2579
vn -0.1567 -0.9649 -0.2109
vn -0.7546 -0.6101 -0.2417
vn -0.1567 -0.9649 -0.2109
vn -0.3691 -0.8929 -0.2579
vn 0.6210 -0.7655 -0.1687
vn 0.6210 -0.7655 -0.1687
vn 0.6189 -0.7604 -0.1971
vn 0.8446 -0.5354 -0.0080
vn 0.8446 -0.5354 -0.0080
vn 0.8513 -0.5246 -0.0001
vn 0.6210 -0.7655 -0.1687
vn 0.9586 0.2840 0.0230
vn 0.8951 0.4444 0.0369
vn 0.8987 0.4355 0.0522
vn 0.8987 0.4355 0.0522
vn 0.9586 0.2840 0.0230
vn 0.9586 0.2840 0.0230
vn 0.8951 0.4444 0.0369
vn 0.3998 0.8950 0.1980
vn 0.8987 0.4355 0.0522
vn 0.3998 0.8950 0.1980
vn -0.3402 0.8967 0.2833
vn 0.4816 0.8419 0.2437
vn -0.3402 0.8967 0.2833
vn -0.5528 0.8004 0.2319
vn -0.5529 0.8006 0.2311
vn -0.5529 0.8006 0.2311
vn -0.3141 0.8947 0.3174
vn -0.3402 0.8967 0.2833
vn -0.9587 -0.2834 -0.0233
vn -0.9587 -0.2834 -0.0233
vn -0.8988 -0.4352 -0.0528
vn -0.8988 -0.4352 -0.0528
vn -0.8951 -0.4444 -0.0374
vn -0.9587 -0.2834 -0.0233
vn -0.8951 -0.4444 -0.0374
vn -0.8988 -0.4352 -0.0528
vn -0.3995 -0.8949 -0.1990
vn -0.3995 -0.8949 -0.1990
vn -0.4820 -0.8413 -0.2447
vn 0.3339 -0.8981 -0.2862
vn 0.3339 -0.8981 -0.2862
vn 0.3083 -0.8958 -0.3201
vn 0.5479 -0.8032 -0.2339
vn 0.5479 -0.8032 -0.2339
vn 0.5485 -0.8026 -0.2344
vn 0.3339 -0.8981 -0.2862
vn 0.9096 0.2965 -0.2912
vn 0.8555 0.4630 -0.2319
vn 0.8645 0.4414 -0.2404
vn 0.8645 0.4414 -0.2404
vn 0.9096 0.2965 -0.2912
vn 0.9096 0.2965 -0.2912
vn 0.8555 0.4630 -0.2319
vn 0.4985 0.8665 0.0268
vn 0.5668 0.8238 0.0081
vn 0.5668 0.8238 0.0081
vn 0.8645 0.4414 -0.2404
vn 0.8555 0.4630 -0.2319
vn 0.4985 0.8665 0.0268
vn -0.0274 0.8959 0.4434
vn 0.5668 0.8238 0.0081
vn -0.2238 0.8160 0.5329
vn -0.2236 0.8159 0.5331
vn -0.0107 0.8887 0.4583
vn -0.0107 0.8887 0.4583
vn -0.0274 0.8959 0.4434
vn -0.2238 0.8160 0.5329
vn -0.9097 -0.2959 0.2915
vn -0.9097 -0.2959 0.2915
vn -0.8646 -0.4412 0.2406
vn -0.8646 -0.4412 0.2406
vn -0.8554 -0.4632 0.2319
vn -0.9097 -0.2959 0.2915
vn -0.8554 -0.4632 0.2319
vn -0.8646 -0.4412 0.2406
vn -0.5676 -0.8232 -0.0080
vn -0.5676 -0.8232 -0.0080
vn -0.4987 -0.8663 -0.0273
vn -0.8554 -0.4632 0.2319
vn -0.4987 -0.8663 -0.0273
vn -0.5676 -0.8232 -0.0080
vn 0.0210 -0.8969 -0.4417
vn 0.0043 -0.8897 -0.4565
vn 0.2185 -0.8179 -0.5323
vn 0.2185 -0.8180 -0.5320
vn 0.2185 -0.8180 -0.5320
vn 0.0210 -0.8969 -0.4417
vn 0.0043 -0.8897 -0.4565
vn 0.8621 0.1706 -0.4772
vn 0.8621 0.1706 -0.4772
vn 0.7160 0.5155 -0.4707
vn 0.7160 0.5155 -0.4707
vn 0.7065 0.5454 -0.4511
vn 0.8621 0.1706 -0.4772
vn 0.7065 0.5454 -0.4511
vn 0.7160 0.5155 -0.4707
vn -0.0127 0.9807 -0.1953
vn -0.0127 0.9807 -0.1953
vn 0.0632 0.9600 -0.2727
vn -0.4473 0.8854 0.1262
vn -0.4473 0.8854 0.1262
vn -0.4515 0.8828 0.1299
vn -0.0127 0.9807 -0.1953
vn -0.7063 -0.5447 0.4522
vn -0.7167 -0.5135 0.4719
vn -0.8620 -0.1699 0.4775
vn -0.8620 -0.1699 0.4775
vn -0.8620 -0.1699 0.4775
vn -0.7063 -0.5447 0.4522
vn -0.7063 -0.5447 0.4522
vn 0.0055 -0.9795 0.2016
vn -0.7167 -0.5135 0.4719
vn 0.0055 -0.9795 0.2016
vn 0.4469 -0.8858 -0.1253
vn 0.4424 -0.8886 -0.1212
vn 0.4424 -0.8886 -0.1212
vn -0.0696 -0.9580 0.2781
vn 0.0055 -0.9795 0.2016
vn 0.2165 0.6204 -0.7538
vn 0.2247 0.6183 -0.7532
vn 0.2166 0.6204 -0.7538
vn -0.1038 -0.4908 0.8651
vn -0.2667 -0.2533 0.9299
vn -0.1148 -0.4765 0.8716
vn 0.0405 -0.6533 0.7560
vn -0.1309 -0.4008 0.9068
vn 0.0592 -0.6765 0.7341
vn -0.0687 0.6636 -0.7449
vn -0.2297 0.4023 -0.8862
vn -0.0792 0.6494 -0.7563
vn -0.0239 0.9256 -0.3778
vn -0.0703 0.8890 -0.4525
vn -0.0273 0.9232 -0.3833
vn 0.1421 -0.8743 0.4642
vn 0.0226 -0.7137 0.7001
vn 0.1231 -0.8533 0.5067
vn 0.8203 0.5270 0.2222
vn 0.9113 0.3853 0.1453
vn 0.8190 0.5287 0.2231
vn 0.5165 0.6324 0.5773
vn 0.6036 0.5208 0.6037
vn 0.4999 0.6509 0.5713
vn -0.6698 -0.7402 0.0596
vn -0.7899 -0.6110 -0.0518
vn -0.6829 -0.7289 0.0487
vn 0.6951 0.7180 0.0365
vn 0.8320 0.5506 -0.0672
vn 0.7064 0.7073 0.0291
vn -0.2698 0.6097 0.7453
vn -0.1303 0.3601 0.9238
vn -0.2607 0.5939 0.7611
vn 0.0306 -0.6459 -0.7628
vn 0.1591 -0.5005 -0.8510
vn 0.0319 -0.6446 -0.7639
vn -0.0522 -0.7335 -0.6777
vn 0.0678 -0.5921 -0.8030
vn -0.0417 -0.7225 -0.6901
vn -0.0377 0.7201 0.6928
vn 0.0657 0.5531 0.8306
vn -0.0287 0.7072 0.7064
vn -0.8408 0.5350 -0.0821
vn -0.9188 0.3946 0.0088
vn -0.8451 0.5290 -0.0780
vn 0.8446 -0.5354 -0.0080
vn 0.9202 -0.3783 0.1003
vn 0.8513 -0.5246 -0.0001
vn 0.5479 -0.8032 -0.2339
vn 0.5548 -0.7967 -0.2399
vn 0.5485 -0.8026 -0.2344
vn 0.2185 -0.8179 -0.5323
vn 0.2185 -0.8118 -0.5415
vn 0.2185 -0.8180 -0.5320
vn -0.4473 0.8854 0.1262
vn -0.5972 0.7552 0.2703
vn -0.4515 0.8828 0.1299
vn -0.2189 -0.6233 0.7507
vn -0.2189 -0.6233 0.7507
vn -0.2244 -0.6176 0.7538
vn 0.1073 0.4867 -0.8670
vn 0.1177 0.4730 -0.8731
vn 0.2634 0.2584 -0.9294
vn -0.0376 0.6499 -0.7591
vn -0.0558 0.6727 -0.7378
vn 0.1287 0.4044 -0.9055
vn 0.0652 -0.6680 0.7413
vn 0.0761 -0.6532 0.7533
vn 0.2311 -0.3996 0.8871
vn 0.0185 -0.9285 0.3710
vn 0.0225 -0.9258 0.3774
vn 0.0740 -0.8862 0.4573
vn -0.1390 0.8714 -0.4705
vn -0.1208 0.8511 -0.5109
vn -0.0244 0.7165 -0.6972
vn -0.8177 -0.5302 -0.2243
vn -0.8164 -0.5318 -0.2252
vn -0.9123 -0.3833 -0.1442
vn -0.5136 -0.6352 -0.5768
vn -0.4958 -0.6547 -0.5705
vn -0.6067 -0.5164 -0.6043
vn 0.6738 0.7368 -0.0558
vn 0.6860 0.7261 -0.0457
vn 0.7872 0.6148 0.0487
vn -0.6910 -0.7218 -0.0396
vn -0.7029 -0.7106 -0.0317
vn -0.8344 -0.5468 0.0694
vn 0.2715 -0.6121 -0.7427
vn 0.2621 -0.5958 -0.7592
vn 0.1279 -0.3559 -0.9257
vn -0.0348 0.6422 0.7657
vn -0.0359 0.6410 0.7667
vn -0.1571 0.5029 0.8499
vn 0.0484 0.7300 0.6818
vn 0.0386 0.7195 0.6934
vn -0.0645 0.5963 0.8002
vn 0.0409 -0.7242 -0.6884
vn 0.0314 -0.7106 -0.7029
vn -0.0685 -0.5482 -0.8336
vn 0.8385 -0.5382 0.0848
vn 0.8430 -0.5319 0.0804
vn 0.9196 -0.3927 -0.0100
vn -0.8469 0.5317 0.0049
vn -0.8532 0.5215 -0.0025
vn -0.9188 0.3825 -0.0975
vn -0.5529 0.8006 0.2311
vn -0.5528 0.8004 0.2319
vn -0.5518 0.7983 0.2412
vn -0.2236 0.8159 0.5331
vn -0.2238 0.8160 0.5329
vn -0.2156 0.8131 0.5407
vn 0.4424 -0.8886 -0.1212
vn 0.4469 -0.8858 -0.1253
vn 0.5999 -0.7520 -0.2733
vn -0.2714 0.9624 0.0055
vn -0.3318 0.9303 0.1566
vn -0.1411 0.5487 0.8240
vn 0.1418 -0.5474 -0.8248
vn 0.3339 -0.9284 -0.1631
vn 0.2744 -0.9615 -0.0139
vn -0.2526 0.8968 -0.3632
vn -0.2890 0.8948 -0.3402
vn -0.2369 0.8387 0.4903
vn 0.2379 -0.8381 -0.4910
vn 0.2922 -0.8960 0.3345
vn 0.2561 -0.8983 0.3570
vn 0.2026 0.8703 0.4490
vn 0.3096 0.7704 -0.5573
vn 0.2774 0.7802 -0.5606
vn -0.2798 -0.7824 0.5564
vn -0.3121 -0.7726 0.5530
vn -0.2033 -0.8686 -0.4519
vn 0.3483 0.4156 0.8402
vn 0.3063 0.9388 0.1579
vn 0.2238 0.9716 0.0763
vn -0.2304 -0.9693 -0.0858
vn -0.3117 -0.9356 -0.1661
vn -0.3493 -0.4132 -0.8410
vn 0.3998 0.8950 0.1980
vn 0.4816 0.8419 0.2437
vn 0.8987 0.4355 0.0522
vn -0.8988 -0.4352 -0.0528
vn -0.4820 -0.8413 -0.2447
vn -0.3995 -0.8949 -0.1990
vn -0.6255 0.7626 0.1649
vn -0.6234 0.7576 0.1934
vn 0.3671 0.8940 0.2569
vn -0.3691 -0.8929 -0.2579
vn 0.6189 -0.7604 -0.1971
vn 0.6210 -0.7655 -0.1687
vn 0.4296 0.8703 -0.2409
vn -0.5820 0.7705 -0.2600
vn -0.5824 0.7804 -0.2276
vn 0.5784 -0.7826 0.2304
vn 0.5778 -0.7727 0.2628
vn -0.4324 -0.8686 0.2419
vn -0.0274 0.8959 0.4434
vn -0.0107 0.8887 0.4583
vn 0.5668 0.8238 0.0081
vn -0.5676 -0.8232 -0.0080
vn 0.0043 -0.8897 -0.4565
vn 0.0210 -0.8969 -0.4417
vn 0.1144 0.8042 0.5833
vn 0.1362 0.7949 0.5913
vn 0.3168 0.8940 -0.3169
vn -0.3181 -0.8929 0.3187
vn -0.1406 -0.7973 -0.5870
vn -0.1192 -0.8068 -0.5787
vn -0.1744 0.8832 -0.4355
vn -0.3744 0.7964 0.4749
vn -0.3425 0.8192 0.4599
vn 0.3445 -0.8213 -0.4548
vn 0.3764 -0.7983 -0.4702
vn 0.1748 -0.8814 0.4389
vn 0.2963 0.9271 0.2295
vn 0.3469 0.9186 0.1895
vn 0.3107 0.7415 -0.5947
vn -0.3117 -0.7402 0.5958
vn -0.3510 -0.9185 -0.1821
vn -0.3006 -0.9275 -0.2224
vn -0.3402 0.8967 0.2833
vn -0.3141 0.8947 0.3174
vn 0.4816 0.8419 0.2437
vn -0.4820 -0.8413 -0.2447
vn 0.3083 -0.8958 -0.3201
vn 0.3339 -0.8981 -0.2862
vn -0.1101 0.7634 -0.6365
vn -0.1388 0.7583 -0.6370
vn -0.2879 0.8940 0.3433
vn 0.2891 -0.8929 -0.3452
vn 0.1431 -0.7612 0.6325
vn 0.1145 -0.7664 0.6320
vn 0.2003 0.8583 0.4725
vn 0.1830 0.9146 -0.3605
vn 0.1443 0.9135 -0.3804
vn -0.1484 -0.9153 0.3744
vn -0.1866 -0.9161 0.3550
vn -0.2014 -0.8576 -0.4732
vn 0.7160 0.5155 -0.4707
vn 0.0632 0.9600 -0.2727
vn -0.0127 0.9807 -0.1953
vn 0.0055 -0.9795 0.2016
vn -0.0696 -0.9580 0.2781
vn -0.7167 -0.5135 0.4719
# 894 vertex normals

vt 0.1185 0.5519 0.0000
vt 0.2167 0.5519 0.0000
vt 0.2167 0.7719 0.0000
vt 0.1185 0.7719 0.0000
vt 0.2167 0.8537 0.0000
vt 0.1240 0.8547 0.0000
vt 0.1185 0.5519 0.0000
vt 0.2167 0.5519 0.0000
vt 0.2167 0.7719 0.0000
vt 0.1185 0.7719 0.0000
vt 0.2167 0.8537 0.0000
vt 0.1240 0.8547 0.0000
vt 0.0074 0.5519 0.0000
vt 0.1130 0.5519 0.0000
vt 0.1130 0.7719 0.0000
vt 0.0074 0.7719 0.0000
vt 0.1130 0.8819 0.0000
vt 0.0074 0.8789 0.0000
vt 0.0074 0.5519 0.0000
vt 0.1130 0.5519 0.0000
vt 0.1130 0.7719 0.0000
vt 0.0074 0.7719 0.0000
vt 0.1130 0.8819 0.0000
vt 0.0074 0.8789 0.0000
vt 0.0074 0.5519 0.0000
vt 0.1130 0.5519 0.0000
vt 0.1130 0.6619 0.0000
vt 0.0074 0.6619 0.0000
vt 0.1130 0.7719 0.0000
vt 0.0074 0.7719 0.0000
vt 0.1130 0.8819 0.0000
vt 0.0074 0.8789 0.0000
vt 0.0074 0.5519 0.0000
vt 0.1130 0.5519 0.0000
vt 0.1130 0.6619 0.0000
vt 0.0074 0.6619 0.0000
vt 0.1130 0.7719 0.0000
vt 0.0074 0.7719 0.0000
vt 0.1130 0.8819 0.0000
vt 0.0074 0.8789 0.0000
vt 0.0074 0.5519 0.0000
vt 0.1130 0.5519 0.0000
vt 0.1130 0.6619 0.0000
vt 0.0074 0.6619 0.0000
vt 0.1130 0.7719 0.0000
vt 0.0074 0.7719 0.0000
vt 0.1130 0.8819 0.0000
vt 0.0074 0.8789 0.0000
vt 0.0074 0.5519 0.0000
vt 0.1130 0.5519 0.0000
vt 0.1130 0.6619 0.0000
vt 0.0074 0.6619 0.0000
vt 0.1130 0.7719 0.0000
vt 0.0074 0.7719 0.0000
vt 0.1130 0.8819 0.0000
vt 0.0074 0.8789 0.0000
vt 0.0074 0.5519 0.0000
vt 0.1130 0.5519 0.0000
vt 0.1130 0.7719 0.0000
vt 0.0074 0.7719 0.0000
vt 0.1130 0.8819 0.0000
vt 0.0074 0.8789 0.0000
vt 0.0074 0.5519 0.0000
vt 0.1130 0.5519 0.0000
vt 0.1130 0.7719 0.0000
vt 0.0074 0.7719 0.0000
vt 0.1130 0.8819 0.0000
vt 0.0074 0.8789 0.0000
vt 0.1185 0.5519 0.0000
vt 0.2167 0.5519 0.0000
vt 0.2167 0.6619 0.0000
vt 0.1185 0.6619 0.0000
vt 0.2167 0.7719 0.0000
vt 0.1185 0.7719 0.0000
vt 0.2167 0.8537 0.0000
vt 0.1240 0.8547 0.0000
vt 0.1185 0.5519 0.0000
vt 0.2167 0.5519 0.0000
vt 0.2167 0.6619 0.0000
vt 0.1185 0.6619 0.0000
vt 0.2167 0.7719 0.0000
vt 0.1185 0.7719 0.0000
vt 0.2167 0.8537 0.0000
vt 0.1240 0.8547 0.0000
vt 0.1185 0.5519 0.0000
vt 0.2167 0.5519 0.0000
vt 0.2167 0.7719 0.0000
vt 0.1185 0.7719 0.0000
vt 0.2167 0.8537 0.0000
vt 0.1240 0.8547 0.0000
vt 0.1185 0.5519 0.0000
vt 0.2167 0.5519 0.0000
vt 0.2167 0.7719 0.0000
vt 0.1185 0.7719 0.0000
vt 0.2167 0.8537 0.0000
vt 0.1240 0.8547 0.0000
vt 0.0074 0.5519 0.0000
vt 0.1130 0.5519 0.0000
vt 0.1130 0.7719 0.0000
vt 0.0074 0.7719 0.0000
vt 0.1130 0.8819 0.0000
vt 0.0074 0.8789 0.0000
vt 0.0074 0.5519 0.0000
vt 0.1130 0.5519 0.0000
vt 0.1130 0.7719 0.0000
vt 0.0074 0.7719 0.0000
vt 0.1130 0.8819 0.0000
vt 0.0074 0.8789 0.0000
vt 0.0074 0.5519 0.0000
vt 0.1130 0.5519 0.0000
vt 0.1130 0.6619 0.0000
vt 0.0074 0.6619 0.0000
vt 0.1130 0.7719 0.0000
vt 0.0074 0.7719 0.0000
vt 0.1130 0.8819 0.0000
vt 0.0074 0.8789 0.0000
vt 0.0074 0.5519 0.0000
vt 0.1130 0.5519 0.0000
vt 0.1130 0.6619 0.0000
vt 0.0074 0.6619 0.0000
vt 0.1130 0.7719 0.0000
vt 0.0074 0.7719 0.0000
vt 0.1130 0.8819 0.0000
vt 0.0074 0.8789 0.0000
vt 0.0074 0.5519 0.0000
vt 0.1130 0.5519 0.0000
vt 0.1130 0.6619 0.0000
vt 0.0074 0.6619 0.0000
vt 0.1130 0.7719 0.0000
vt 0.0074 0.7719 0.0000
vt 0.1130 0.8819 0.0000
vt 0.0074 0.8789 0.0000
vt 0.0074 0.5519 0.0000
vt 0.1130 0.5519 0.0000
vt 0.1130 0.6619 0.0000
vt 0.0074 0.6619 0.0000
vt 0.1130 0.7719 0.0000
vt 0.0074 0.7719 0.0000
vt 0.1130 0.8819 0.0000
vt 0.0074 0.8789 0.0000
vt 0.1185 0.5519 0.0000
vt 0.2167 0.5519 0.0000
vt 0.2167 0.7719 0.0000
vt 0.1185 0.7719 0.0000
vt 0.2167 0.8537 0.0000
vt 0.1240 0.8547 0.0000
vt 0.1185 0.5519 0.0000
vt 0.2167 0.5519 0.0000
vt 0.2167 0.7719 0.0000
vt 0.1185 0.7719 0.0000
vt 0.2167 0.8537 0.0000
vt 0.1240 0.8547 0.0000
vt 0.0074 0.5519 0.0000
vt 0.1130 0.5519 0.0000
vt 0.1130 0.7719 0.0000
vt 0.0074 0.7719 0.0000
vt 0.1130 0.8819 0.0000
vt 0.0074 0.8789 0.0000
vt 0.0074 0.5519 0.0000
vt 0.1130 0.5519 0.0000
vt 0.1130 0.7719 0.0000
vt 0.0074 0.7719 0.0000
vt 0.1130 0.8819 0.0000
vt 0.0074 0.8789 0.0000
vt 0.0074 0.5519 0.0000
vt 0.1130 0.5519 0.0000
vt 0.1130 0.6619 0.0000
vt 0.0074 0.6619 0.0000
vt 0.1130 0.7719 0.0000
vt 0.0074 0.7719 0.0000
vt 0.1130 0.8819 0.0000
vt 0.0074 0.8789 0.0000
vt 0.0074 0.5519 0.0000
vt 0.1130 0.5519 0.0000
vt 0.1130 0.6619 0.0000
vt 0.0074 0.6619 0.0000
vt 0.1130 0.7719 0.0000
vt 0.0074 0.7719 0.0000
vt 0.1130 0.8819 0.0000
vt 0.0074 0.8789 0.0000
vt 0.0074 0.5519 0.0000
vt 0.1130 0.5519 0.0000
vt 0.1130 0.7719 0.0000
vt 0.0074 0.7719 0.0000
vt 0.1130 0.8819 0.0000
vt 0.0074 0.8789 0.0000
vt 0.0074 0.5519 0.0000
vt 0.1130 0.5519 0.0000
vt 0.1130 0.7719 0.0000
vt 0.0074 0.7719 0.0000
vt 0.1130 0.8819 0.0000
vt 0.0074 0.8789 0.0000
vt 0.1185 0.5519 0.0000
vt 0.2167 0.5519 0.0000
vt 0.2167 0.7719 0.0000
vt 0.1185 0.7719 0.0000
vt 0.2167 0.8537 0.0000
vt 0.1240 0.8547 0.0000
vt 0.1185 0.5519 0.0000
vt 0.2167 0.5519 0.0000
vt 0.2167 0.7719 0.0000
vt 0.1185 0.7719 0.0000
vt 0.2167 0.8537 0.0000
vt 0.1240 0.8547 0.0000
vt 0.0074 0.5519 0.0000
vt 0.1130 0.5519 0.0000
vt 0.1130 0.7719 0.0000
vt 0.0074 0.7719 0.0000
vt 0.1130 0.8819 0.0000
vt 0.0074 0.8789 0.0000
vt 0.0074 0.5519 0.0000
vt 0.1130 0.5519 0.0000
vt 0.1130 0.7719 0.0000
vt 0.0074 0.7719 0.0000
vt 0.1130 0.8819 0.0000
vt 0.0074 0.8789 0.0000
vt 0.0074 0.5519 0.0000
vt 0.1130 0.5519 0.0000
vt 0.1130 0.6619 0.0000
vt 0.0074 0.6619 0.0000
vt 0.1130 0.7719 0.0000
vt 0.0074 0.7719 0.0000
vt 0.1130 0.8819 0.0000
vt 0.0074 0.8789 0.0000
vt 0.0074 0.5519 0.0000
vt 0.1130 0.5519 0.0000
vt 0.1130 0.6619 0.0000
vt 0.0074 0.6619 0.0000
vt 0.1130 0.7719 0.0000
vt 0.0074 0.7719 0.0000
vt 0.1130 0.8819 0.0000
vt 0.0074 0.8789 0.0000
vt 0.0074 0.5519 0.0000
vt 0.1130 0.5519 0.0000
vt 0.1130 0.7719 0.0000
vt 0.0074 0.7719 0.0000
vt 0.1130 0.8819 0.0000
vt 0.0074 0.8789 0.0000
vt 0.0074 0.5519 0.0000
vt 0.1130 0.5519 0.0000
vt 0.1130 0.7719 0.0000
vt 0.0074 0.7719 0.0000
vt 0.1130 0.8819 0.0000
vt 0.0074 0.8789 0.0000
vt 0.1185 0.5519 0.0000
vt 0.2167 0.5519 0.0000
vt 0.2167 0.6619 0.0000
vt 0.1185 0.6619 0.0000
vt 0.2167 0.7719 0.0000
vt 0.1185 0.7719 0.0000
vt 0.2167 0.8537 0.0000
vt 0.1240 0.8547 0.0000
vt 0.1185 0.5519 0.0000
vt 0.2167 0.5519 0.0000
vt 0.2167 0.6619 0.0000
vt 0.1185 0.6619 0.0000
vt 0.2167 0.7719 0.0000
vt 0.1185 0.7719 0.0000
vt 0.2167 0.8537 0.0000
vt 0.1240 0.8547 0.0000
vt 0.1995 0.9340 0.0000
vt 0.1352 0.9135 0.0000
vt 0.1995 0.9340 0.0000
vt 0.1352 0.9135 0.0000
vt 0.0982 0.9364 0.0000
vt 0.0301 0.9364 0.0000
vt 0.0982 0.9364 0.0000
vt 0.0301 0.9364 0.0000
vt 0.0982 0.9364 0.0000
vt 0.0301 0.9364 0.0000
vt 0.0982 0.9364 0.0000
vt 0.0301 0.9364 0.0000
vt 0.0982 0.9364 0.0000
vt 0.0301 0.9364 0.0000
vt 0.0982 0.9364 0.0000
vt 0.0301 0.9364 0.0000
vt 0.0982 0.9364 0.0000
vt 0.0301 0.9364 0.0000
vt 0.0982 0.9364 0.0000
vt 0.0301 0.9364 0.0000
vt 0.1995 0.9340 0.0000
vt 0.1352 0.9135 0.0000
vt 0.1995 0.9340 0.0000
vt 0.1352 0.9135 0.0000
vt 0.1995 0.9340 0.0000
vt 0.1352 0.9135 0.0000
vt 0.1995 0.9340 0.0000
vt 0.1352 0.9135 0.0000
vt 0.0982 0.9364 0.0000
vt 0.0301 0.9364 0.0000
vt 0.0982 0.9364 0.0000
vt 0.0301 0.9364 0.0000
vt 0.0982 0.9364 0.0000
vt 0.0301 0.9364 0.0000
vt 0.0982 0.9364 0.0000
vt 0.0301 0.9364 0.0000
vt 0.0982 0.9364 0.0000
vt 0.0301 0.9364 0.0000
vt 0.0982 0.9364 0.0000
vt 0.0301 0.9364 0.0000
vt 0.1995 0.9340 0.0000
vt 0.1352 0.9135 0.0000
vt 0.1995 0.9340 0.0000
vt 0.1352 0.9135 0.0000
vt 0.0982 0.9364 0.0000
vt 0.0301 0.9364 0.0000
vt 0.0982 0.9364 0.0000
vt 0.0301 0.9364 0.0000
vt 0.0982 0.9364 0.0000
vt 0.0301 0.9364 0.0000
vt 0.0982 0.9364 0.0000
vt 0.0301 0.9364 0.0000
vt 0.0982 0.9364 0.0000
vt 0.0301 0.9364 0.0000
vt 0.0982 0.9364 0.0000
vt 0.0301 0.9364 0.0000
vt 0.1995 0.9340 0.0000
vt 0.1352 0.9135 0.0000
vt 0.1995 0.9340 0.0000
vt 0.1352 0.9135 0.0000
vt 0.0982 0.9364 0.0000
vt 0.0301 0.9364 0.0000
vt 0.0982 0.9364 0.0000
vt 0.0301 0.9364 0.0000
vt 0.0982 0.9364 0.0000
vt 0.0301 0.9364 0.0000
vt 0.0982 0.9364 0.0000
vt 0.0301 0.9364 0.0000
vt 0.1995 0.9340 0.0000
vt 0.1352 0.9135 0.0000
vt 0.1995 0.9340 0.0000
vt 0.1352 0.9135 0.0000
vt 0.0982 0.9364 0.0000
vt 0.0301 0.9364 0.0000
vt 0.0982 0.9364 0.0000
vt 0.0301 0.9364 0.0000
vt 0.1652 0.9909 0.0000
vt 0.1652 0.9909 0.0000
vt 0.0563 0.9909 0.0000
vt 0.0563 0.9909 0.0000
vt 0.0563 0.9909 0.0000
vt 0.0563 0.9909 0.0000
vt 0.0563 0.9909 0.0000
vt 0.0563 0.9909 0.0000
vt 0.0563 0.9909 0.0000
vt 0.0563 0.9909 0.0000
vt 0.1652 0.9909 0.0000
vt 0.1652 0.9909 0.0000
vt 0.1652 0.9909 0.0000
vt 0.1652 0.9909 0.0000
vt 0.0563 0.9909 0.0000
vt 0.0563 0.9909 0.0000
vt 0.0563 0.9909 0.0000
vt 0.0563 0.9909 0.0000
vt 0.0563 0.9909 0.0000
vt 0.0563 0.9909 0.0000
vt 0.1652 0.9909 0.0000
vt 0.1652 0.9909 0.0000
vt 0.0563 0.9909 0.0000
vt 0.0563 0.9909 0.0000
vt 0.0563 0.9909 0.0000
vt 0.0563 0.9909 0.0000
vt 0.0563 0.9909 0.0000
vt 0.0563 0.9909 0.0000
vt 0.1652 0.9909 0.0000
vt 0.1652 0.9909 0.0000
vt 0.0563 0.9909 0.0000
vt 0.0563 0.9909 0.0000
vt 0.0563 0.9909 0.0000
vt 0.0563 0.9909 0.0000
vt 0.1652 0.9909 0.0000
vt 0.1652 0.9909 0.0000
vt 0.0563 0.9909 0.0000
vt 0.0563 0.9909 0.0000
# 374 texture coords

o FlaxStage02
g FlaxStage02
s 1
f 1/1/1 2/2/2 3/3/3 
f 3/3/4 4/4/5 1/1/6 
f 4/4/7 3/3/8 6/6/9 
f 6/6/10 5/5/11 261/261/12 
f 261/261/13 262/262/14 6/6/15 
f 10/10/16 9/9/17 8/8/18 
f 8/8/19 7/7/20 10/10/21 
f 10/10/22 12/12/23 9/9/24 
f 12/12/25 264/264/26 263/263/27 
f 263/263/28 11/11/29 12/12/30 
f 16/16/31 15/15/32 14/14/33 
f 14/14/34 13/13/35 16/16/36 
f 16/16/37 18/18/38 15/15/39 
f 18/18/40 266/266/41 265/265/42 
f 265/265/43 17/17/44 18/18/45 
f 19/19/46 20/20/47 21/21/48 
f 21/21/49 22/22/50 19/19/51 
f 22/22/52 21/21/53 24/24/54 
f 24/24/55 23/23/56 267/267/57 
f 267/267/58 268/268/59 24/24/60 
f 25/25/61 28/28/62 27/27/63 
f 27/27/64 26/26/65 25/25/66 
f 28/28/67 30/30/68 29/29/69 
f 29/29/70 27/27/71 28/28/72 
f 30/30/73 32/32/74 29/29/75 
f 32/32/76 270/270/77 269/269/78 
f 269/269/79 31/31/80 32/32/81 
f 33/33/82 34/34/83 35/35/84 
f 35/35/85 36/36/86 33/33/87 
f 36/36/88 35/35/89 37/37/90 
f 37/37/91 38/38/92 36/36/93 
f 38/38/94 37/37/95 40/40/96 
f 40/40/97 39/39/98 271/271/99 
f 271/271/100 272/272/101 40/40/102 
f 41/41/103 42/42/104 43/43/105 
f 43/43/106 44/44/107 41/41/108 
f 44/44/109 43/43/110 45/45/111 
f 45/45/112 46/46/113 44/44/114 
f 46/46/115 45/45/116 48/48/117 
f 48/48/118 47/47/119 273/273/120 
f 273/273/121 274/274/122 48/48/123 
f 49/49/124 52/52/125 51/51/126 
f 51/51/127 50/50/128 49/49/129 
f 52/52/130 54/54/131 53/53/132 
f 53/53/133 51/51/134 52/52/135 
f 54/54/136 56/56/137 53/53/138 
f 56/56/139 276/276/140 275/275/141 
f 275/275/142 55/55/143 56/56/144 
f 57/57/145 58/58/146 59/59/147 
f 59/59/148 60/60/149 57/57/150 
f 60/60/151 59/59/152 62/62/153 
f 62/62/154 61/61/155 277/277/156 
f 277/277/157 278/278/158 62/62/159 
f 66/66/160 65/65/161 64/64/162 
f 64/64/163 63/63/164 66/66/165 
f 66/66/166 68/68/167 65/65/168 
f 68/68/169 280/280/170 279/279/171 
f 279/279/172 67/67/173 68/68/174 
f 69/69/175 72/72/176 71/71/177 
f 71/71/178 70/70/179 69/69/180 
f 72/72/181 74/74/182 73/73/183 
f 73/73/184 71/71/185 72/72/186 
f 74/74/187 76/76/188 73/73/189 
f 76/76/190 282/282/191 281/281/192 
f 281/281/193 75/75/194 76/76/195 
f 77/77/196 78/78/197 79/79/198 
f 79/79/199 80/80/200 77/77/201 
f 80/80/202 79/79/203 81/81/204 
f 81/81/205 82/82/206 80/80/207 
f 82/82/208 81/81/209 84/84/210 
f 84/84/211 83/83/212 283/283/213 
f 283/283/214 284/284/215 84/84/216 
f 85/85/217 86/86/218 87/87/219 
f 87/87/220 88/88/221 85/85/222 
f 88/88/223 87/87/224 89/89/225 
f 89/89/226 90/90/227 88/88/228 
f 90/90/229 89/89/230 285/285/231 
f 285/285/232 286/286/233 90/90/234 
f 94/94/235 93/93/236 92/92/237 
f 92/92/238 91/91/239 94/94/240 
f 94/94/241 96/96/242 95/95/243 
f 95/95/244 93/93/245 94/94/246 
f 96/96/247 288/288/248 287/287/249 
f 287/287/250 95/95/251 96/96/252 
f 97/97/253 98/98/254 99/99/255 
f 99/99/256 100/100/257 97/97/258 
f 100/100/259 99/99/260 101/101/261 
f 101/101/262 102/102/263 100/100/264 
f 101/101/265 289/289/266 290/290/267 
f 290/290/268 102/102/269 101/101/270 
f 106/106/271 105/105/272 104/104/273 
f 104/104/274 103/103/275 106/106/276 
f 106/106/277 108/108/278 107/107/279 
f 107/107/280 105/105/281 106/106/282 
f 292/292/283 291/291/284 107/107/285 
f 107/107/286 108/108/287 292/292/288 
f 109/109/289 112/112/290 111/111/291 
f 111/111/292 110/110/293 109/109/294 
f 112/112/295 114/114/296 113/113/297 
f 113/113/298 111/111/299 112/112/300 
f 114/114/301 116/116/302 115/115/303 
f 115/115/304 113/113/305 114/114/306 
f 116/116/307 294/294/308 293/293/309 
f 293/293/310 115/115/311 116/116/312 
f 117/117/313 118/118/314 119/119/315 
f 119/119/316 120/120/317 117/117/318 
f 120/120/319 119/119/320 121/121/321 
f 121/121/322 122/122/323 120/120/324 
f 122/122/325 121/121/326 123/123/327 
f 123/123/328 124/124/329 122/122/330 
f 124/124/331 123/123/332 295/295/333 
f 295/295/334 296/296/335 124/124/336 
f 125/125/337 126/126/338 127/127/339 
f 127/127/340 128/128/341 125/125/342 
f 128/128/343 127/127/344 129/129/345 
f 129/129/346 130/130/347 128/128/348 
f 130/130/349 129/129/350 131/131/351 
f 131/131/352 132/132/353 130/130/354 
f 132/132/355 131/131/356 297/297/357 
f 297/297/358 298/298/359 132/132/360 
f 133/133/361 136/136/362 135/135/363 
f 135/135/364 134/134/365 133/133/366 
f 136/136/367 138/138/368 137/137/369 
f 137/137/370 135/135/371 136/136/372 
f 138/138/373 140/140/374 139/139/375 
f 139/139/376 137/137/377 138/138/378 
f 140/140/379 300/300/380 299/299/381 
f 299/299/382 139/139/383 140/140/384 
f 141/141/385 142/142/386 143/143/387 
f 143/143/388 144/144/389 141/141/390 
f 144/144/391 143/143/392 146/146/393 
f 146/146/394 145/145/395 301/301/396 
f 301/301/397 302/302/398 146/146/399 
f 150/150/400 149/149/401 148/148/402 
f 148/148/403 147/147/404 150/150/405 
f 150/150/406 152/152/407 149/149/408 
f 152/152/409 304/304/410 303/303/411 
f 303/303/412 151/151/413 152/152/414 
f 156/156/415 155/155/416 154/154/417 
f 154/154/418 153/153/419 156/156/420 
f 156/156/421 158/158/422 155/155/423 
f 158/158/424 306/306/425 305/305/426 
f 305/305/427 157/157/428 158/158/429 
f 159/159/430 160/160/431 161/161/432 
f 161/161/433 162/162/434 159/159/435 
f 162/162/436 161/161/437 164/164/438 
f 164/164/439 163/163/440 307/307/441 
f 307/307/442 308/308/443 164/164/444 
f 165/165/445 168/168/446 167/167/447 
f 167/167/448 166/166/449 165/165/450 
f 168/168/451 170/170/452 169/169/453 
f 169/169/454 167/167/455 168/168/456 
f 170/170/457 172/172/458 169/169/459 
f 172/172/460 310/310/461 309/309/462 
f 309/309/463 171/171/464 172/172/465 
f 173/173/466 174/174/467 175/175/468 
f 175/175/469 176/176/470 173/173/471 
f 176/176/472 175/175/473 177/177/474 
f 177/177/475 178/178/476 176/176/477 
f 178/178/478 177/177/479 180/180/480 
f 180/180/481 179/179/482 311/311/483 
f 311/311/484 312/312/485 180/180/486 
f 181/181/487 182/182/488 183/183/489 
f 183/183/490 184/184/491 181/181/492 
f 184/184/493 183/183/494 185/185/495 
f 185/185/496 186/186/497 184/184/498 
f 186/186/499 185/185/500 313/313/501 
f 313/313/502 314/314/503 186/186/504 
f 190/190/505 189/189/506 188/188/507 
f 188/188/508 187/187/509 190/190/510 
f 190/190/511 192/192/512 191/191/513 
f 191/191/514 189/189/515 190/190/516 
f 192/192/517 316/316/518 315/315/519 
f 315/315/520 191/191/521 192/192/522 
f 193/193/523 194/194/524 195/195/525 
f 195/195/526 196/196/527 193/193/528 
f 196/196/529 195/195/530 198/198/531 
f 198/198/532 197/197/533 317/317/534 
f 317/317/535 318/318/536 198/198/537 
f 202/202/538 201/201/539 200/200/540 
f 200/200/541 199/199/542 202/202/543 
f 202/202/544 204/204/545 201/201/546 
f 204/204/547 320/320/548 319/319/549 
f 319/319/550 203/203/551 204/204/552 
f 208/208/553 207/207/554 206/206/555 
f 206/206/556 205/205/557 208/208/558 
f 208/208/559 210/210/560 207/207/561 
f 210/210/562 322/322/563 321/321/564 
f 321/321/565 209/209/566 210/210/567 
f 211/211/568 212/212/569 213/213/570 
f 213/213/571 214/214/572 211/211/573 
f 214/214/574 213/213/575 216/216/576 
f 216/216/577 215/215/578 323/323/579 
f 323/323/580 324/324/581 216/216/582 
f 217/217/583 220/220/584 219/219/585 
f 219/219/586 218/218/587 217/217/588 
f 220/220/589 222/222/590 219/219/591 
f 222/222/592 224/224/593 221/221/594 
f 224/224/595 326/326/596 325/325/597 
f 325/325/598 223/223/599 224/224/600 
f 225/225/601 226/226/602 227/227/603 
f 227/227/604 228/228/605 225/225/606 
f 228/228/607 227/227/608 230/230/609 
f 230/230/610 229/229/611 232/232/612 
f 232/232/613 231/231/614 327/327/615 
f 327/327/616 328/328/617 232/232/618 
f 233/245/619 236/248/620 235/247/621 
f 235/247/622 234/246/623 233/245/624 
f 236/248/625 238/250/626 237/249/627 
f 237/249/628 235/247/629 236/248/630 
f 238/250/631 240/252/632 237/249/633 
f 330/330/634 329/329/635 239/251/636 
f 239/251/637 240/252/638 330/330/639 
f 241/253/640 242/254/641 243/255/642 
f 243/255/643 244/256/644 241/253/645 
f 244/256/646 243/255/647 245/257/648 
f 245/257/649 246/258/650 244/256/651 
f 246/258/652 245/257/653 248/260/654 
f 247/259/655 331/331/656 332/332/657 
f 332/332/658 248/260/659 247/259/660 
f 249/233/661 250/234/662 251/235/663 
f 251/235/664 252/236/665 249/233/666 
f 252/236/667 251/235/668 254/238/669 
f 254/238/670 253/237/671 333/333/672 
f 333/333/673 334/334/674 254/238/675 
f 258/242/676 257/241/677 256/240/678 
f 256/240/679 255/239/680 258/242/681 
f 258/242/682 260/244/683 257/241/684 
f 260/244/685 336/336/686 335/335/687 
f 335/335/688 259/243/689 260/244/690 
f 261/261/691 337/337/692 262/262/693 
f 267/267/694 340/340/695 268/268/696 
f 271/271/697 342/342/698 272/272/699 
f 273/273/700 343/343/701 274/274/702 
f 277/277/703 345/345/704 278/278/705 
f 283/283/706 348/348/707 284/284/708 
f 285/285/709 349/349/710 286/286/711 
f 289/289/712 351/351/713 290/290/714 
f 295/295/715 354/354/716 296/296/717 
f 297/297/718 355/355/719 298/298/720 
f 301/301/721 357/357/722 302/302/723 
f 307/307/724 360/360/725 308/308/726 
f 311/311/727 362/362/728 312/312/729 
f 313/313/730 363/363/731 314/314/732 
f 317/317/733 365/365/734 318/318/735 
f 323/323/736 368/368/737 324/324/738 
f 327/327/739 370/370/740 328/328/741 
f 331/331/742 372/372/743 332/332/744 
f 333/333/745 373/373/746 334/334/747 
f 263/263/748 264/264/749 338/338/750 
f 265/265/751 266/266/752 339/339/753 
f 269/269/754 270/270/755 341/341/756 
f 275/275/757 276/276/758 344/344/759 
f 279/279/760 280/280/761 346/346/762 
f 281/281/763 282/282/764 347/347/765 
f 287/287/766 288/288/767 350/350/768 
f 291/291/769 292/292/770 352/352/771 
f 293/293/772 294/294/773 353/353/774 
f 299/299/775 300/300/776 356/356/777 
f 303/303/778 304/304/779 358/358/780 
f 305/305/781 306/306/782 359/359/783 
f 309/309/784 310/310/785 361/361/786 
f 315/315/787 316/316/788 364/364/789 
f 319/319/790 320/320/791 366/366/792 
f 321/321/793 322/322/794 367/367/795 
f 325/325/796 326/326/797 369/369/798 
f 329/329/799 330/330/800 371/371/801 
f 335/335/802 336/336/803 374/374/804 
f 76/76/805 75/75/806 73/73/807 
f 81/81/808 83/83/809 84/84/810 
f 32/32/811 31/31/812 29/29/813 
f 37/37/814 39/39/815 40/40/816 
f 3/3/817 5/5/818 6/6/819 
f 12/12/820 11/11/821 9/9/822 
f 59/59/823 61/61/824 62/62/825 
f 68/68/826 67/67/827 65/65/828 
f 222/222/829 221/221/830 219/219/831 
f 227/227/832 229/229/833 230/230/834 
f 210/210/835 209/209/836 207/207/837 
f 213/213/838 215/215/839 216/216/840 
f 195/195/841 197/197/842 198/198/843 
f 204/204/844 203/203/845 201/201/846 
f 240/252/847 239/251/848 237/249/849 
f 245/257/850 247/259/851 248/260/852 
f 158/158/853 157/157/854 155/155/855 
f 161/161/856 163/163/857 164/164/858 
f 143/143/859 145/145/860 146/146/861 
f 152/152/862 151/151/863 149/149/864 
f 172/172/865 171/171/866 169/169/867 
f 177/177/868 179/179/869 180/180/870 
f 224/224/871 223/223/872 221/221/873 
f 229/229/874 231/231/875 232/232/876 
f 18/18/877 17/17/878 15/15/879 
f 21/21/880 23/23/881 24/24/882 
f 45/45/883 47/47/884 48/48/885 
f 56/56/886 55/55/887 53/53/888 
f 251/235/889 253/237/890 254/238/891 
f 260/244/892 259/243/893 257/241/894 
# 298 faces

