# 3ds Max Wavefront OBJ Exporter v0.99 - (c)2007 guruware
# File Created: 19.11.2024 10:16:23

#
# object FlaxDead
#

v  -4.0494 -7.2697 0.7016
v  2.0442 -7.2697 -3.5652
v  -9.5135 17.7898 -16.2765
v  -15.2073 19.4283 -11.3711
v  -23.2709 14.2183 -25.0492
v  -28.2914 17.7011 -20.2317
v  -4.1527 -7.3969 0.5539
v  1.9409 -7.3969 -3.7128
v  -9.5540 17.4530 -16.2263
v  -15.2440 19.0993 -11.3239
v  -23.2892 13.9488 -24.9287
v  -28.3072 17.4361 -20.1130
v  2.6397 -6.1409 -3.1546
v  -3.2651 -6.1409 -1.0054
v  -3.6264 14.8907 -18.3889
v  2.5266 16.2747 -19.9521
v  -2.1592 10.3361 -35.3488
v  3.6068 13.2781 -36.4886
v  2.5876 -6.2483 -3.2976
v  -3.3172 -6.2483 -1.1485
v  -3.5720 14.6062 -18.3926
v  2.5771 15.9969 -19.9546
v  -2.0670 10.1084 -35.3030
v  3.6966 13.0542 -36.4420
v  3.1975 -8.3870 -1.6842
v  -2.4283 -8.3870 1.5639
v  -5.6976 16.8525 -5.3458
v  0.1647 17.0441 -8.4324
v  -8.0883 26.5694 -11.6837
v  -2.4836 26.7256 -15.3416
v  -11.8767 18.5045 -27.2838
v  -6.5390 20.2975 -30.9503
v  3.1107 -8.4405 -1.8347
v  -2.5152 -8.4405 1.4134
v  -5.7424 16.6781 -5.4613
v  0.1205 16.8742 -8.5454
v  -8.0328 26.2878 -11.6050
v  -2.4316 26.4513 -15.2630
v  -11.7688 18.2824 -27.1858
v  -6.4332 20.0797 -30.8521
v  -0.3460 -7.2697 -4.0951
v  3.3735 -7.2697 2.3472
v  17.0437 17.7898 -8.0587
v  12.6533 19.4283 -14.1584
v  26.9821 14.2183 -20.9992
v  22.6205 17.7011 -26.4205
v  -0.1899 -7.3969 -4.1852
v  3.5296 -7.3969 2.2571
v  16.9972 17.4530 -8.1034
v  12.6094 19.0993 -14.1991
v  26.8637 13.9488 -21.0279
v  22.5036 17.4361 -26.4465
v  2.9125 -6.1409 2.9046
v  1.2861 -6.1409 -3.1651
v  18.6350 14.8907 -2.0099
v  19.6560 16.2747 4.2559
v  35.4024 10.3361 0.9299
v  36.0354 13.2781 6.7733
v  3.0596 -6.2483 2.8652
v  1.4332 -6.2483 -3.2045
v  18.6339 14.6062 -1.9554
v  19.6541 15.9968 4.3065
v  35.3489 10.1084 1.0177
v  35.9812 13.0542 6.8586
v  1.3991 -8.3870 3.3322
v  -1.3463 -8.3870 -2.5554
v  5.8220 16.8525 -5.2100
v  8.3859 17.0441 0.8990
v  13.9115 26.3921 -7.2350
v  16.6625 26.8194 -1.1467
v  26.4560 22.7889 -7.9247
v  28.9845 24.8458 -2.0489
v  1.5566 -8.4405 3.2587
v  -1.1888 -8.4405 -2.6288
v  5.9410 16.6781 -5.2445
v  8.5024 16.8742 0.8648
v  13.8731 26.0991 -7.2004
v  16.6235 26.5337 -1.1154
v  26.3814 22.5486 -7.8394
v  28.9094 24.6098 -1.9656
v  4.0951 -7.2697 -0.3460
v  -2.3472 -7.2697 3.3735
v  8.0587 17.7898 17.0437
v  14.1584 19.4283 12.6533
v  17.3399 14.2183 24.2766
v  22.7612 17.7011 19.9150
v  4.1852 -7.3969 -0.1899
v  -2.2571 -7.3969 3.5296
v  8.1034 17.4530 16.9972
v  14.1991 19.0993 12.6094
v  17.3686 13.9488 24.1582
v  22.7873 17.4361 19.7981
v  -2.9046 -6.1409 2.9125
v  3.1651 -6.1409 1.2861
v  2.0099 14.8907 18.6350
v  -4.2559 16.2747 19.6560
v  -0.9299 10.3361 35.4024
v  -6.7733 13.2781 36.0354
v  -2.8652 -6.2483 3.0596
v  3.2045 -6.2483 1.4332
v  1.9554 14.6061 18.6340
v  -4.3065 15.9968 19.6541
v  -1.0177 10.1084 35.3488
v  -6.8586 13.0542 35.9812
v  -3.3322 -8.3870 1.3991
v  2.5554 -8.3870 -1.3463
v  5.2100 16.8525 5.8220
v  -0.8990 17.0441 8.3859
v  7.5170 21.4403 10.2345
v  1.2121 22.5976 12.1650
v  10.6464 21.0981 20.3004
v  4.5726 23.3221 22.1202
v  -3.2587 -8.4405 1.5566
v  2.6288 -8.4405 -1.1888
v  5.2446 16.6781 5.9410
v  -0.8648 16.8742 8.5024
v  7.4859 21.1508 10.2959
v  1.1844 22.3149 12.2236
v  10.5680 20.8517 20.2399
v  4.4962 23.0799 22.0590
v  1.0518 -7.2697 3.9728
v  -3.7298 -7.2697 -1.7257
v  -15.3854 17.7898 10.8959
v  -10.0025 19.4283 16.1405
v  -22.9257 14.2183 25.3655
v  -17.6889 17.7011 29.9471
v  0.9138 -7.3969 4.0887
v  -3.8679 -7.3969 -1.6099
v  -15.3318 17.4530 10.9319
v  -9.9522 19.0993 16.1730
v  -22.8041 13.9488 25.3732
v  -17.5693 17.4361 29.9525
v  -3.3726 -6.1409 -1.7416
v  -0.7170 -6.1409 3.0741
v  -18.0029 14.8907 4.6595
v  -20.0964 16.2747 -0.4084
v  -35.0261 10.3361 4.6735
v  -36.6641 13.2781 -0.0996
v  -3.5106 -6.2483 -1.6951
v  -0.8550 -6.2483 3.1206
v  -18.0113 14.6062 4.6061
v  -20.1033 15.9969 -0.4586
v  -34.9885 10.1084 4.5846
v  -36.6255 13.0542 -0.1865
v  -1.8666 -6.7910 6.5887
v  -3.9955 -6.7845 0.7075
v  -18.4458 14.5095 7.7540
v  -16.5826 15.2678 13.7546
v  -29.0240 10.2676 13.0491
v  -27.7338 12.0498 18.9126
v  -2.0095 -6.8981 6.6420
v  -4.1379 -6.8910 0.7591
v  -18.4280 14.2265 7.7844
v  -16.5714 14.9883 13.7819
v  -28.9615 10.0285 13.0817
v  -27.6737 11.8128 18.9448
v  -4.6600 -6.8134 -1.2819
v  -0.2318 -7.4499 1.8791
v  -3.4777 13.6315 7.5912
v  -8.0883 14.3591 4.4114
v  -10.9246 22.5366 14.9340
v  -14.9567 23.4279 11.1790
v  -21.8296 16.9640 22.7697
v  -26.1747 18.6222 19.6758
v  -4.7488 -6.8609 -1.1654
v  -0.3190 -7.4973 1.9956
v  -3.5541 13.4870 7.6601
v  -8.1639 14.2175 4.4831
v  -10.8918 22.3050 14.8620
v  -14.9250 23.1983 11.1138
v  -21.7871 16.7750 22.6695
v  -26.1334 18.4346 19.5781
v  -30.9425 8.6639 -26.9090
v  -34.7355 11.6232 -23.1947
v  -30.9386 8.5027 -26.8231
v  -34.7306 11.4638 -23.1095
v  0.8056 5.9273 -41.6517
v  4.1577 7.8284 -42.2791
v  0.8493 5.8237 -41.6180
v  4.2008 7.7260 -42.2451
v  -11.0502 12.4950 -32.6752
v  -7.5597 13.8777 -35.0994
v  -10.9886 12.3845 -32.6114
v  -7.4988 13.7685 -35.0356
v  29.4588 8.7000 -28.5325
v  26.1763 11.5829 -32.5288
v  29.3751 8.5430 -28.5360
v  26.0931 11.4276 -32.5313
v  41.4121 5.8612 4.3065
v  41.7694 7.9020 7.9499
v  41.3720 5.7501 4.3502
v  41.7291 7.7921 7.9928
v  32.6317 17.7093 -6.3845
v  34.1871 19.1811 -2.7414
v  32.5818 17.5936 -6.3390
v  34.1370 19.0667 -2.6965
v  28.7830 8.8708 29.2479
v  32.2786 11.3925 26.3767
v  28.7861 8.7335 29.1747
v  32.2808 11.2567 26.3039
v  -3.6744 7.0643 42.1134
v  -7.5808 9.2524 42.4965
v  -3.7212 6.9451 42.0704
v  -7.6268 9.1345 42.4533
v  8.4965 16.5919 26.7596
v  4.8846 18.1016 27.8140
v  8.4573 16.4768 26.7180
v  4.8460 17.9877 27.7721
v  -24.0869 8.6794 33.1892
v  -20.1010 11.6058 36.6055
v  -24.0025 8.5201 33.1780
v  -20.0175 11.4482 36.5934
v  -41.5308 5.8612 2.7440
v  -42.5153 7.9020 -0.2375
v  -41.4989 5.7501 2.6939
v  -42.4831 7.7921 -0.2870
v  -34.5652 5.3527 17.0118
v  -33.8110 6.5894 20.7148
v  -34.5213 5.2355 17.0262
v  -33.7678 6.4729 20.7291
v  -25.9484 12.1021 24.6804
v  -29.0080 13.3426 22.6077
v  -25.9181 12.0025 24.6161
v  -28.9781 13.2435 22.5442
v  -39.8980 4.3739 -27.4881
v  -39.8698 4.2275 -27.3868
v  5.8382 1.4944 -44.6570
v  5.8946 1.3707 -44.5884
v  -8.3709 5.3302 -33.8201
v  -8.2923 5.2178 -33.7253
v  28.4942 3.2760 -35.6933
v  28.3908 3.1297 -35.6740
v  47.4860 2.0203 8.3798
v  47.4127 1.8967 8.4300
v  37.1176 12.3634 -2.7740
v  37.0323 12.2333 -2.7139
v  35.2571 4.4420 27.8713
v  35.2378 4.2956 27.7679
v  -8.3797 2.0203 47.4860
v  -8.4300 1.8967 47.4127
v  4.5657 11.3231 31.2384
v  4.5132 11.1857 31.1600
v  -21.4206 3.9666 40.4015
v  -21.3222 3.8202 40.3646
v  -45.9285 1.8584 -1.0848
v  -45.8651 1.7348 -1.1452
v  -39.3118 0.5133 21.5974
v  -39.2345 0.3797 21.6107
v  -30.9679 7.6962 26.0942
v  -30.9224 7.5965 26.0078
# 250 vertices

vn 0.4896 0.5208 0.6993
vn 0.5124 0.5289 0.6766
vn 0.3435 0.9323 0.1134
vn 0.3435 0.9323 0.1134
vn 0.4606 0.8670 0.1900
vn -0.0943 0.7802 -0.6183
vn -0.0943 0.7802 -0.6183
vn -0.0660 0.7704 -0.6341
vn -0.2550 0.6204 -0.7417
vn -0.2550 0.6204 -0.7417
vn -0.2549 0.6204 -0.7417
vn -0.0943 0.7802 -0.6183
vn -0.4902 -0.5191 -0.7001
vn -0.3446 -0.9319 -0.1132
vn -0.5132 -0.5274 -0.6771
vn -0.3446 -0.9319 -0.1132
vn 0.0899 -0.7824 0.6163
vn -0.4628 -0.8655 -0.1914
vn 0.0899 -0.7824 0.6163
vn 0.2513 -0.6233 0.7406
vn 0.2513 -0.6233 0.7405
vn 0.2513 -0.6233 0.7405
vn 0.0616 -0.7726 0.6320
vn 0.0899 -0.7824 0.6163
vn -0.1031 0.9650 0.2412
vn -0.0389 0.8940 0.4464
vn 0.1682 0.6106 0.7738
vn 0.1682 0.6106 0.7738
vn 0.1682 0.6106 0.7738
vn -0.1031 0.9650 0.2412
vn -0.1031 0.9650 0.2412
vn -0.4553 0.7634 -0.4583
vn -0.0389 0.8940 0.4464
vn -0.4553 0.7634 -0.4583
vn -0.4044 0.4730 -0.7827
vn -0.4094 0.4867 -0.7717
vn -0.4094 0.4867 -0.7717
vn -0.4791 0.7583 -0.4422
vn -0.4553 0.7634 -0.4583
vn -0.1680 -0.6101 -0.7743
vn -0.1680 -0.6101 -0.7743
vn 0.0388 -0.8929 -0.4486
vn 0.0388 -0.8929 -0.4486
vn 0.1042 -0.9649 -0.2412
vn -0.1680 -0.6101 -0.7743
vn 0.1042 -0.9649 -0.2412
vn 0.0388 -0.8929 -0.4486
vn 0.4563 -0.7664 0.4520
vn 0.4563 -0.7664 0.4520
vn 0.4801 -0.7612 0.4360
vn 0.4111 -0.4908 0.7682
vn 0.4111 -0.4908 0.7682
vn 0.4059 -0.4765 0.7798
vn 0.4563 -0.7664 0.4520
vn 0.4593 0.2840 0.8416
vn 0.4333 0.4478 0.7821
vn 0.4361 0.4344 0.7881
vn 0.4361 0.4344 0.7881
vn 0.4593 0.2840 0.8416
vn 0.4593 0.2840 0.8416
vn 0.4333 0.4478 0.7821
vn 0.0512 0.9857 0.1603
vn 0.1282 0.9291 0.3468
vn 0.1282 0.9291 0.3468
vn 0.4361 0.4344 0.7881
vn 0.4333 0.4478 0.7821
vn 0.0512 0.9857 0.1603
vn -0.5415 0.6806 -0.4936
vn 0.1282 0.9291 0.3468
vn -0.5415 0.6806 -0.4936
vn -0.6115 0.2768 -0.7413
vn -0.6090 0.2434 -0.7549
vn -0.6090 0.2434 -0.7549
vn -0.5533 0.6973 -0.4557
vn -0.5415 0.6806 -0.4936
vn -0.4592 -0.2834 -0.8419
vn -0.4592 -0.2834 -0.8419
vn -0.4369 -0.4298 -0.7902
vn -0.4369 -0.4298 -0.7902
vn -0.4342 -0.4432 -0.7843
vn -0.4592 -0.2834 -0.8419
vn -0.4342 -0.4432 -0.7843
vn -0.4369 -0.4298 -0.7902
vn -0.1310 -0.9262 -0.3535
vn -0.1310 -0.9262 -0.3535
vn -0.0522 -0.9851 -0.1640
vn -0.4342 -0.4432 -0.7843
vn -0.0522 -0.9851 -0.1640
vn -0.1310 -0.9262 -0.3535
vn 0.5403 -0.6854 0.4883
vn 0.5403 -0.6854 0.4883
vn 0.5520 -0.7015 0.4507
vn 0.6095 -0.2484 0.7528
vn 0.6095 -0.2484 0.7528
vn 0.6120 -0.2825 0.7387
vn 0.5403 -0.6854 0.4883
vn -0.6700 0.5447 0.5044
vn -0.6700 0.5447 0.5044
vn -0.2640 0.8709 0.4145
vn -0.2640 0.8709 0.4145
vn -0.0859 0.9334 0.3485
vn -0.6700 0.5447 0.5044
vn -0.0859 0.9334 0.3485
vn -0.2640 0.8709 0.4145
vn 0.5808 0.8135 -0.0296
vn 0.5808 0.8135 -0.0296
vn 0.6025 0.7967 -0.0475
vn -0.0859 0.9334 0.3485
vn 0.6025 0.7967 -0.0475
vn 0.5808 0.8135 -0.0296
vn 0.7994 0.5270 -0.2885
vn 0.7994 0.5270 -0.2885
vn 0.7988 0.5287 -0.2870
vn 0.6025 0.7967 -0.0475
vn 0.0853 -0.9330 -0.3495
vn 0.2664 -0.8693 -0.4164
vn 0.6706 -0.5434 -0.5050
vn 0.6706 -0.5434 -0.5050
vn 0.6706 -0.5434 -0.5050
vn 0.0853 -0.9330 -0.3495
vn 0.0853 -0.9330 -0.3495
vn -0.6001 -0.7988 0.0430
vn -0.5778 -0.8158 0.0249
vn -0.5778 -0.8158 0.0249
vn 0.2664 -0.8693 -0.4164
vn 0.0853 -0.9330 -0.3495
vn -0.6001 -0.7988 0.0430
vn -0.7979 -0.5318 0.2838
vn -0.7985 -0.5302 0.2853
vn -0.7985 -0.5302 0.2853
vn -0.5778 -0.8158 0.0249
vn -0.6001 -0.7988 0.0430
vn -0.2001 0.9571 -0.2095
vn -0.4352 0.8939 -0.1074
vn -0.7856 0.6106 0.1001
vn -0.7856 0.6106 0.1001
vn -0.7856 0.6106 0.1001
vn -0.2001 0.9571 -0.2095
vn -0.2001 0.9571 -0.2095
vn 0.4877 0.7815 -0.3891
vn 0.4622 0.7981 -0.3865
vn 0.4622 0.7981 -0.3865
vn -0.4352 0.8939 -0.1074
vn -0.2001 0.9571 -0.2095
vn 0.4877 0.7815 -0.3891
vn 0.6722 0.6206 -0.4037
vn 0.6723 0.6206 -0.4036
vn 0.6723 0.6206 -0.4036
vn 0.4622 0.7981 -0.3865
vn 0.4877 0.7815 -0.3891
vn 0.7860 -0.6101 -0.0999
vn 0.7860 -0.6101 -0.0999
vn 0.4375 -0.8928 0.1073
vn 0.4375 -0.8928 0.1073
vn 0.1996 -0.9569 0.2108
vn 0.7860 -0.6101 -0.0999
vn 0.1996 -0.9569 0.2108
vn 0.4375 -0.8928 0.1073
vn -0.4562 -0.8009 0.3880
vn -0.4562 -0.8009 0.3880
vn -0.4818 -0.7843 0.3908
vn 0.1996 -0.9569 0.2108
vn -0.4818 -0.7843 0.3908
vn -0.4562 -0.8009 0.3880
vn -0.6684 -0.6238 0.4052
vn -0.6684 -0.6238 0.4052
vn -0.6684 -0.6237 0.4052
vn -0.4818 -0.7843 0.3908
vn -0.8785 0.2840 0.3842
vn -0.8052 0.4902 0.3337
vn -0.8146 0.4702 0.3396
vn -0.8146 0.4702 0.3396
vn -0.8785 0.2840 0.3842
vn -0.8785 0.2840 0.3842
vn -0.8052 0.4902 0.3337
vn -0.2229 0.9733 -0.0540
vn -0.3934 0.9179 0.0515
vn -0.3934 0.9179 0.0515
vn -0.8146 0.4702 0.3396
vn -0.8052 0.4902 0.3337
vn -0.2229 0.9733 -0.0540
vn 0.4392 0.7986 -0.4116
vn 0.3870 0.8377 -0.3853
vn 0.3870 0.8377 -0.3853
vn -0.3934 0.9179 0.0515
vn -0.2229 0.9733 -0.0540
vn 0.4392 0.7986 -0.4116
vn 0.7114 0.4991 -0.4948
vn 0.7001 0.5145 -0.4951
vn 0.7001 0.5145 -0.4951
vn 0.3870 0.8377 -0.3853
vn 0.4392 0.7986 -0.4116
vn 0.8787 -0.2834 -0.3841
vn 0.8787 -0.2834 -0.3841
vn 0.8158 -0.4680 -0.3398
vn 0.8158 -0.4680 -0.3398
vn 0.8064 -0.4882 -0.3337
vn 0.8787 -0.2834 -0.3841
vn 0.8064 -0.4882 -0.3337
vn 0.8158 -0.4680 -0.3398
vn 0.3977 -0.9160 -0.0526
vn 0.3977 -0.9160 -0.0526
vn 0.2247 -0.9729 0.0545
vn 0.8064 -0.4882 -0.3337
vn 0.2247 -0.9729 0.0545
vn 0.3977 -0.9160 -0.0526
vn -0.3801 -0.8413 0.3844
vn -0.3801 -0.8413 0.3844
vn -0.4322 -0.8026 0.4111
vn 0.2247 -0.9729 0.0545
vn -0.4322 -0.8026 0.4111
vn -0.3801 -0.8413 0.3844
vn -0.6961 -0.5196 0.4955
vn -0.6961 -0.5196 0.4955
vn -0.7082 -0.5032 0.4952
vn -0.4322 -0.8026 0.4111
vn -0.5044 0.5447 -0.6700
vn -0.5044 0.5447 -0.6700
vn -0.3926 0.8832 -0.2567
vn -0.3926 0.8832 -0.2567
vn -0.3004 0.9408 -0.1572
vn -0.5044 0.5447 -0.6700
vn -0.3004 0.9408 -0.1572
vn -0.3926 0.8832 -0.2567
vn -0.0168 0.8192 0.5732
vn -0.0168 0.8192 0.5732
vn -0.0344 0.7964 0.6037
vn 0.2065 0.6097 0.7652
vn 0.2065 0.6097 0.7652
vn 0.2230 0.5939 0.7730
vn -0.0168 0.8192 0.5732
vn 0.3017 -0.9403 0.1572
vn 0.3949 -0.8814 0.2593
vn 0.5050 -0.5434 0.6706
vn 0.5050 -0.5434 0.6706
vn 0.5050 -0.5434 0.6706
vn 0.3017 -0.9403 0.1572
vn 0.3017 -0.9403 0.1572
vn 0.0213 -0.8213 -0.5702
vn 0.3949 -0.8814 0.2593
vn 0.0213 -0.8213 -0.5702
vn -0.2208 -0.5958 -0.7722
vn -0.2036 -0.6121 -0.7642
vn -0.2036 -0.6121 -0.7642
vn 0.0386 -0.7983 -0.6010
vn 0.0213 -0.8213 -0.5702
vn 0.1237 0.9650 -0.2313
vn 0.0777 0.8940 -0.4413
vn -0.1001 0.6106 -0.7856
vn -0.1001 0.6106 -0.7856
vn -0.1001 0.6106 -0.7856
vn 0.1237 0.9650 -0.2313
vn 0.1237 0.9650 -0.2313
vn 0.4283 0.8042 0.4122
vn 0.0777 0.8940 -0.4413
vn 0.4283 0.8042 0.4122
vn 0.4103 0.6410 0.6486
vn 0.4107 0.6422 0.6472
vn 0.4107 0.6422 0.6472
vn 0.4507 0.7949 0.4062
vn 0.4283 0.8042 0.4122
vn 0.0999 -0.6101 0.7860
vn 0.0999 -0.6101 0.7860
vn -0.0778 -0.8929 0.4435
vn -0.0778 -0.8929 0.4435
vn -0.1249 -0.9649 0.2312
vn 0.0999 -0.6101 0.7860
vn -0.1249 -0.9649 0.2312
vn -0.0778 -0.8929 0.4435
vn -0.4296 -0.8068 -0.4056
vn -0.4296 -0.8068 -0.4056
vn -0.4519 -0.7973 -0.4002
vn -0.4125 -0.6459 -0.6424
vn -0.4125 -0.6459 -0.6424
vn -0.4120 -0.6446 -0.6440
vn -0.4296 -0.8068 -0.4056
vn -0.3842 0.2840 -0.8785
vn -0.2945 0.4876 -0.8219
vn -0.2944 0.4878 -0.8218
vn -0.2944 0.4878 -0.8218
vn -0.3842 0.2840 -0.8785
vn -0.3842 0.2840 -0.8785
vn -0.2945 0.4876 -0.8219
vn -0.0250 0.8898 -0.4556
vn 0.0132 0.8947 -0.4464
vn 0.0132 0.8947 -0.4464
vn -0.2944 0.4878 -0.8218
vn -0.2945 0.4876 -0.8219
vn -0.0250 0.8898 -0.4556
vn 0.3754 0.8868 0.2697
vn 0.0132 0.8947 -0.4464
vn 0.3754 0.8868 0.2697
vn 0.4293 0.5537 0.7135
vn 0.4307 0.5677 0.7016
vn 0.4307 0.5677 0.7016
vn 0.4035 0.8790 0.2541
vn 0.3754 0.8868 0.2697
vn 0.3841 -0.2834 0.8787
vn 0.3841 -0.2834 0.8787
vn 0.2937 -0.4885 0.8216
vn 0.2937 -0.4885 0.8216
vn 0.2934 -0.4890 0.8214
vn 0.3841 -0.2834 0.8787
vn 0.2934 -0.4890 0.8214
vn 0.2937 -0.4885 0.8216
vn -0.0140 -0.8941 0.4476
vn -0.0140 -0.8941 0.4476
vn 0.0239 -0.8897 0.4559
vn 0.2934 -0.4890 0.8214
vn 0.0239 -0.8897 0.4559
vn -0.0140 -0.8941 0.4476
vn -0.3745 -0.8897 -0.2612
vn -0.3745 -0.8897 -0.2612
vn -0.4026 -0.8819 -0.2454
vn -0.4315 -0.5726 -0.6971
vn -0.4315 -0.5726 -0.6971
vn -0.4300 -0.5577 -0.7099
vn -0.3745 -0.8897 -0.2612
vn 0.5722 0.5447 -0.6131
vn 0.5722 0.5447 -0.6131
vn 0.2137 0.8703 -0.4438
vn 0.2137 0.8703 -0.4438
vn 0.1144 0.9352 -0.3351
vn 0.5722 0.5447 -0.6131
vn 0.1144 0.9352 -0.3351
vn 0.2137 0.8703 -0.4438
vn -0.6076 0.7804 0.1476
vn -0.6076 0.7804 0.1476
vn -0.6258 0.7705 0.1209
vn -0.7359 0.5350 0.4150
vn -0.7359 0.5350 0.4150
vn -0.7370 0.5290 0.4208
vn -0.6076 0.7804 0.1476
vn -0.1141 -0.9348 0.3363
vn -0.2155 -0.8686 0.4462
vn -0.5727 -0.5434 0.6137
vn -0.5727 -0.5434 0.6137
vn -0.5727 -0.5434 0.6137
vn -0.1141 -0.9348 0.3363
vn -0.1141 -0.9348 0.3363
vn 0.6059 -0.7826 -0.1430
vn -0.2155 -0.8686 0.4462
vn 0.6059 -0.7826 -0.1430
vn 0.7367 -0.5319 -0.4177
vn 0.7355 -0.5382 -0.4115
vn 0.7355 -0.5382 -0.4115
vn 0.6240 -0.7727 -0.1161
vn 0.6059 -0.7826 -0.1430
vn 0.2280 0.9675 0.1092
vn 0.4678 0.8837 -0.0187
vn 0.7481 0.6040 -0.2749
vn 0.7481 0.6040 -0.2749
vn 0.7481 0.6040 -0.2749
vn 0.2280 0.9675 0.1092
vn 0.2280 0.9675 0.1092
vn -0.3988 0.7264 0.5598
vn 0.4678 0.8837 -0.0187
vn -0.3988 0.7264 0.5598
vn -0.6668 0.5011 0.5516
vn -0.6671 0.5009 0.5515
vn -0.6671 0.5009 0.5515
vn -0.3824 0.7190 0.5803
vn -0.3988 0.7264 0.5598
vn -0.7485 -0.6035 0.2747
vn -0.7485 -0.6035 0.2747
vn -0.4698 -0.8826 0.0190
vn -0.4698 -0.8826 0.0190
vn -0.2283 -0.9673 -0.1105
vn -0.7485 -0.6035 0.2747
vn -0.2283 -0.9673 -0.1105
vn -0.4698 -0.8826 0.0190
vn 0.3932 -0.7290 -0.5603
vn 0.3932 -0.7290 -0.5603
vn 0.3767 -0.7217 -0.5808
vn 0.6638 -0.5040 -0.5526
vn 0.6638 -0.5040 -0.5526
vn 0.6637 -0.5041 -0.5527
vn 0.3932 -0.7290 -0.5603
vn 0.7477 0.5978 -0.2890
vn 0.7477 0.5978 -0.2890
vn 0.3130 0.9206 -0.2336
vn 0.3130 0.9206 -0.2336
vn 0.2182 0.9594 -0.1788
vn 0.7477 0.5978 -0.2890
vn 0.2182 0.9594 -0.1788
vn 0.3130 0.9206 -0.2336
vn -0.5490 0.8289 -0.1071
vn -0.5588 0.8187 -0.1318
vn -0.7124 0.6975 -0.0765
vn -0.7121 0.6979 -0.0766
vn -0.7121 0.6979 -0.0766
vn -0.5490 0.8289 -0.1071
vn -0.5588 0.8187 -0.1318
vn -0.2183 -0.9593 0.1793
vn -0.3151 -0.9196 0.2344
vn -0.7483 -0.5972 0.2889
vn -0.7483 -0.5972 0.2889
vn -0.7483 -0.5972 0.2889
vn -0.2183 -0.9593 0.1793
vn -0.2183 -0.9593 0.1793
vn 0.5436 -0.8321 0.1098
vn -0.3151 -0.9196 0.2344
vn 0.7088 -0.7011 0.0787
vn 0.7092 -0.7006 0.0786
vn 0.5536 -0.8219 0.1344
vn 0.5536 -0.8219 0.1344
vn 0.5436 -0.8321 0.1098
vn 0.7088 -0.7011 0.0787
vn 0.5781 0.2965 -0.7602
vn 0.5548 0.5654 -0.6103
vn 0.5636 0.5166 -0.6446
vn 0.5636 0.5166 -0.6446
vn 0.5781 0.2965 -0.7602
vn 0.5781 0.2965 -0.7602
vn 0.5548 0.5654 -0.6103
vn 0.1863 0.9824 -0.0144
vn 0.2556 0.9644 -0.0674
vn 0.2556 0.9644 -0.0674
vn 0.5636 0.5166 -0.6446
vn 0.5548 0.5654 -0.6103
vn 0.1863 0.9824 -0.0144
vn -0.1953 0.7404 0.6432
vn 0.2556 0.9644 -0.0674
vn -0.2982 0.5732 0.7632
vn -0.2979 0.5732 0.7634
vn -0.1729 0.7399 0.6502
vn -0.1729 0.7399 0.6502
vn -0.1953 0.7404 0.6432
vn -0.2982 0.5732 0.7632
vn -0.5780 -0.2959 0.7605
vn -0.5780 -0.2959 0.7605
vn -0.5640 -0.5146 0.6458
vn -0.5640 -0.5146 0.6458
vn -0.5553 -0.5637 0.6115
vn -0.5780 -0.2959 0.7605
vn -0.5553 -0.5637 0.6115
vn -0.5640 -0.5146 0.6458
vn -0.2582 -0.9635 0.0702
vn -0.2582 -0.9635 0.0702
vn -0.1877 -0.9821 0.0153
vn -0.5553 -0.5637 0.6115
vn -0.1877 -0.9821 0.0153
vn -0.2582 -0.9635 0.0702
vn 0.1909 -0.7443 -0.6400
vn 0.1684 -0.7438 -0.6469
vn 0.2946 -0.5772 -0.7616
vn 0.2948 -0.5774 -0.7614
vn 0.2948 -0.5774 -0.7614
vn 0.1909 -0.7443 -0.6400
vn 0.1684 -0.7438 -0.6469
vn -0.2550 0.6204 -0.7417
vn -0.2479 0.6183 -0.7458
vn -0.2549 0.6204 -0.7417
vn 0.4111 -0.4908 0.7682
vn 0.3149 -0.2533 0.9147
vn 0.4059 -0.4765 0.7798
vn 0.6095 -0.2484 0.7528
vn 0.5481 0.0768 0.8329
vn 0.6120 -0.2825 0.7387
vn 0.7994 0.5270 -0.2885
vn 0.8298 0.3853 -0.4036
vn 0.7988 0.5287 -0.2870
vn -0.6684 -0.6238 0.4052
vn -0.6712 -0.6166 0.4114
vn -0.6684 -0.6237 0.4052
vn -0.6961 -0.5196 0.4955
vn -0.8059 -0.3427 0.4827
vn -0.7082 -0.5032 0.4952
vn 0.2065 0.6097 0.7652
vn 0.4231 0.3601 0.8314
vn 0.2230 0.5939 0.7730
vn -0.4125 -0.6459 -0.6424
vn -0.3578 -0.5005 -0.7883
vn -0.4120 -0.6446 -0.6440
vn -0.4315 -0.5726 -0.6971
vn -0.4050 -0.3917 -0.8262
vn -0.4300 -0.5577 -0.7099
vn -0.7359 0.5350 0.4150
vn -0.7476 0.3946 0.5342
vn -0.7370 0.5290 0.4208
vn 0.6638 -0.5040 -0.5526
vn 0.7810 -0.3642 -0.5073
vn 0.6637 -0.5041 -0.5527
vn -0.7124 0.6975 -0.0765
vn -0.7446 0.6639 -0.0701
vn -0.7121 0.6979 -0.0766
vn 0.2946 -0.5772 -0.7616
vn 0.2889 -0.5709 -0.7686
vn 0.2948 -0.5774 -0.7614
vn 0.2513 -0.6233 0.7405
vn 0.2513 -0.6233 0.7406
vn 0.2485 -0.6176 0.7462
vn -0.4094 0.4867 -0.7717
vn -0.4044 0.4730 -0.7827
vn -0.3173 0.2584 -0.9125
vn -0.6090 0.2434 -0.7549
vn -0.6115 0.2768 -0.7413
vn -0.5494 -0.0724 -0.8324
vn -0.7985 -0.5302 0.2853
vn -0.7979 -0.5318 0.2838
vn -0.8300 -0.3833 0.4051
vn 0.6723 0.6206 -0.4036
vn 0.6722 0.6206 -0.4037
vn 0.6682 0.6193 -0.4124
vn 0.7001 0.5145 -0.4951
vn 0.7114 0.4991 -0.4948
vn 0.8034 0.3476 -0.4834
vn -0.2036 -0.6121 -0.7642
vn -0.2208 -0.5958 -0.7722
vn -0.4262 -0.3559 -0.8317
vn 0.4107 0.6422 0.6472
vn 0.4103 0.6410 0.6486
vn 0.3588 0.5029 0.7864
vn 0.4307 0.5677 0.7016
vn 0.4293 0.5537 0.7135
vn 0.4061 0.3968 0.8232
vn 0.7355 -0.5382 -0.4115
vn 0.7367 -0.5319 -0.4177
vn 0.7476 -0.3927 -0.5356
vn -0.6671 0.5009 0.5515
vn -0.6668 0.5011 0.5516
vn -0.7781 0.3681 0.5089
vn 0.7092 -0.7006 0.0786
vn 0.7088 -0.7011 0.0787
vn 0.7475 -0.6607 0.0687
vn -0.2979 0.5732 0.7634
vn -0.2982 0.5732 0.7632
vn -0.2873 0.5734 0.7672
vn -0.5415 0.6806 -0.4936
vn -0.5533 0.6973 -0.4557
vn 0.1282 0.9291 0.3468
vn -0.1310 -0.9262 -0.3535
vn 0.5520 -0.7015 0.4507
vn 0.5403 -0.6854 0.4883
vn 0.4606 0.8670 0.1900
vn -0.0660 0.7704 -0.6341
vn -0.0943 0.7802 -0.6183
vn 0.0899 -0.7824 0.6163
vn 0.0616 -0.7726 0.6320
vn -0.4628 -0.8655 -0.1914
vn -0.3988 0.7264 0.5598
vn -0.3824 0.7190 0.5803
vn 0.4678 0.8837 -0.0187
vn -0.4698 -0.8826 0.0190
vn 0.3767 -0.7217 -0.5808
vn 0.3932 -0.7290 -0.5603
vn 0.3130 0.9206 -0.2336
vn -0.5588 0.8187 -0.1318
vn -0.5490 0.8289 -0.1071
vn 0.5436 -0.8321 0.1098
vn 0.5536 -0.8219 0.1344
vn -0.3151 -0.9196 0.2344
vn 0.2137 0.8703 -0.4438
vn -0.6258 0.7705 0.1209
vn -0.6076 0.7804 0.1476
vn 0.6059 -0.7826 -0.1430
vn 0.6240 -0.7727 -0.1161
vn -0.2155 -0.8686 0.4462
vn -0.1953 0.7404 0.6432
vn -0.1729 0.7399 0.6502
vn 0.2556 0.9644 -0.0674
vn -0.2582 -0.9635 0.0702
vn 0.1684 -0.7438 -0.6469
vn 0.1909 -0.7443 -0.6400
vn 0.4283 0.8042 0.4122
vn 0.4507 0.7949 0.4062
vn 0.0777 0.8940 -0.4413
vn -0.0778 -0.8929 0.4435
vn -0.4519 -0.7973 -0.4002
vn -0.4296 -0.8068 -0.4056
vn -0.3926 0.8832 -0.2567
vn -0.0344 0.7964 0.6037
vn -0.0168 0.8192 0.5732
vn 0.0213 -0.8213 -0.5702
vn 0.0386 -0.7983 -0.6010
vn 0.3949 -0.8814 0.2593
vn 0.3754 0.8868 0.2697
vn 0.4035 0.8790 0.2541
vn 0.0132 0.8947 -0.4464
vn -0.0140 -0.8941 0.4476
vn -0.4026 -0.8819 -0.2454
vn -0.3745 -0.8897 -0.2612
vn -0.4553 0.7634 -0.4583
vn -0.4791 0.7583 -0.4422
vn -0.0389 0.8940 0.4464
vn 0.0388 -0.8929 -0.4486
vn 0.4801 -0.7612 0.4360
vn 0.4563 -0.7664 0.4520
vn 0.5124 0.5289 0.6766
vn 0.4606 0.8670 0.1900
vn 0.3435 0.9323 0.1134
vn -0.3446 -0.9319 -0.1132
vn -0.4628 -0.8655 -0.1914
vn -0.5132 -0.5274 -0.6771
# 594 vertex normals

vt 0.3434 0.5519 0.0000
vt 0.4416 0.5519 0.0000
vt 0.4416 0.7719 0.0000
vt 0.3434 0.7719 0.0000
vt 0.4416 0.8537 0.0000
vt 0.3489 0.8547 0.0000
vt 0.3434 0.5519 0.0000
vt 0.4416 0.5519 0.0000
vt 0.4416 0.7719 0.0000
vt 0.3434 0.7719 0.0000
vt 0.4416 0.8537 0.0000
vt 0.3489 0.8547 0.0000
vt 0.3434 0.5519 0.0000
vt 0.4416 0.5519 0.0000
vt 0.4416 0.7719 0.0000
vt 0.3434 0.7719 0.0000
vt 0.4416 0.8537 0.0000
vt 0.3489 0.8547 0.0000
vt 0.3434 0.5519 0.0000
vt 0.4416 0.5519 0.0000
vt 0.4416 0.7719 0.0000
vt 0.3434 0.7719 0.0000
vt 0.4416 0.8537 0.0000
vt 0.3489 0.8547 0.0000
vt 0.3434 0.5519 0.0000
vt 0.4416 0.5519 0.0000
vt 0.4416 0.6619 0.0000
vt 0.3434 0.6619 0.0000
vt 0.4416 0.7719 0.0000
vt 0.3434 0.7719 0.0000
vt 0.4416 0.8537 0.0000
vt 0.3489 0.8547 0.0000
vt 0.3434 0.5519 0.0000
vt 0.4416 0.5519 0.0000
vt 0.4416 0.6619 0.0000
vt 0.3434 0.6619 0.0000
vt 0.4416 0.7719 0.0000
vt 0.3434 0.7719 0.0000
vt 0.4416 0.8537 0.0000
vt 0.3489 0.8547 0.0000
vt 0.3434 0.5519 0.0000
vt 0.4416 0.5519 0.0000
vt 0.4416 0.7719 0.0000
vt 0.3434 0.7719 0.0000
vt 0.4416 0.8537 0.0000
vt 0.3489 0.8547 0.0000
vt 0.3434 0.5519 0.0000
vt 0.4416 0.5519 0.0000
vt 0.4416 0.7719 0.0000
vt 0.3434 0.7719 0.0000
vt 0.4416 0.8537 0.0000
vt 0.3489 0.8547 0.0000
vt 0.3434 0.5519 0.0000
vt 0.4416 0.5519 0.0000
vt 0.4416 0.7719 0.0000
vt 0.3434 0.7719 0.0000
vt 0.4416 0.8537 0.0000
vt 0.3489 0.8547 0.0000
vt 0.3434 0.5519 0.0000
vt 0.4416 0.5519 0.0000
vt 0.4416 0.7719 0.0000
vt 0.3434 0.7719 0.0000
vt 0.4416 0.8537 0.0000
vt 0.3489 0.8547 0.0000
vt 0.3434 0.5519 0.0000
vt 0.4416 0.5519 0.0000
vt 0.4416 0.6619 0.0000
vt 0.3434 0.6619 0.0000
vt 0.4416 0.7719 0.0000
vt 0.3434 0.7719 0.0000
vt 0.4416 0.8537 0.0000
vt 0.3489 0.8547 0.0000
vt 0.3434 0.5519 0.0000
vt 0.4416 0.5519 0.0000
vt 0.4416 0.6619 0.0000
vt 0.3434 0.6619 0.0000
vt 0.4416 0.7719 0.0000
vt 0.3434 0.7719 0.0000
vt 0.4416 0.8537 0.0000
vt 0.3489 0.8547 0.0000
vt 0.3434 0.5519 0.0000
vt 0.4416 0.5519 0.0000
vt 0.4416 0.7719 0.0000
vt 0.3434 0.7719 0.0000
vt 0.4416 0.8537 0.0000
vt 0.3489 0.8547 0.0000
vt 0.3434 0.5519 0.0000
vt 0.4416 0.5519 0.0000
vt 0.4416 0.7719 0.0000
vt 0.3434 0.7719 0.0000
vt 0.4416 0.8537 0.0000
vt 0.3489 0.8547 0.0000
vt 0.3434 0.5519 0.0000
vt 0.4416 0.5519 0.0000
vt 0.4416 0.7719 0.0000
vt 0.3434 0.7719 0.0000
vt 0.4416 0.8537 0.0000
vt 0.3489 0.8547 0.0000
vt 0.3434 0.5519 0.0000
vt 0.4416 0.5519 0.0000
vt 0.4416 0.7719 0.0000
vt 0.3434 0.7719 0.0000
vt 0.4416 0.8537 0.0000
vt 0.3489 0.8547 0.0000
vt 0.3434 0.5519 0.0000
vt 0.4416 0.5519 0.0000
vt 0.4416 0.6619 0.0000
vt 0.3434 0.6619 0.0000
vt 0.4416 0.7719 0.0000
vt 0.3434 0.7719 0.0000
vt 0.4416 0.8537 0.0000
vt 0.3489 0.8547 0.0000
vt 0.3434 0.5519 0.0000
vt 0.4416 0.5519 0.0000
vt 0.4416 0.6619 0.0000
vt 0.3434 0.6619 0.0000
vt 0.4416 0.7719 0.0000
vt 0.3434 0.7719 0.0000
vt 0.4416 0.8537 0.0000
vt 0.3489 0.8547 0.0000
vt 0.3434 0.5519 0.0000
vt 0.4416 0.5519 0.0000
vt 0.4416 0.7719 0.0000
vt 0.3434 0.7719 0.0000
vt 0.4416 0.8537 0.0000
vt 0.3489 0.8547 0.0000
vt 0.3434 0.5519 0.0000
vt 0.4416 0.5519 0.0000
vt 0.4416 0.7719 0.0000
vt 0.3434 0.7719 0.0000
vt 0.4416 0.8537 0.0000
vt 0.3489 0.8547 0.0000
vt 0.3434 0.5519 0.0000
vt 0.4416 0.5519 0.0000
vt 0.4416 0.7719 0.0000
vt 0.3434 0.7719 0.0000
vt 0.4416 0.8537 0.0000
vt 0.3489 0.8547 0.0000
vt 0.3434 0.5519 0.0000
vt 0.4416 0.5519 0.0000
vt 0.4416 0.7719 0.0000
vt 0.3434 0.7719 0.0000
vt 0.4416 0.8537 0.0000
vt 0.3489 0.8547 0.0000
vt 0.3434 0.5519 0.0000
vt 0.4416 0.5519 0.0000
vt 0.4416 0.7719 0.0000
vt 0.3434 0.7719 0.0000
vt 0.4416 0.8537 0.0000
vt 0.3489 0.8547 0.0000
vt 0.3434 0.5519 0.0000
vt 0.4416 0.5519 0.0000
vt 0.4416 0.7719 0.0000
vt 0.3434 0.7719 0.0000
vt 0.4416 0.8537 0.0000
vt 0.3489 0.8547 0.0000
vt 0.3434 0.5519 0.0000
vt 0.4416 0.5519 0.0000
vt 0.4416 0.6619 0.0000
vt 0.3434 0.6619 0.0000
vt 0.4416 0.7719 0.0000
vt 0.3434 0.7719 0.0000
vt 0.4416 0.8537 0.0000
vt 0.3489 0.8547 0.0000
vt 0.3434 0.5519 0.0000
vt 0.4416 0.5519 0.0000
vt 0.4416 0.6619 0.0000
vt 0.3434 0.6619 0.0000
vt 0.4416 0.7719 0.0000
vt 0.3434 0.7719 0.0000
vt 0.4416 0.8537 0.0000
vt 0.3489 0.8547 0.0000
vt 0.4244 0.9340 0.0000
vt 0.3601 0.9135 0.0000
vt 0.4244 0.9340 0.0000
vt 0.3601 0.9135 0.0000
vt 0.4244 0.9340 0.0000
vt 0.3601 0.9135 0.0000
vt 0.4244 0.9340 0.0000
vt 0.3601 0.9135 0.0000
vt 0.4244 0.9340 0.0000
vt 0.3601 0.9135 0.0000
vt 0.4244 0.9340 0.0000
vt 0.3601 0.9135 0.0000
vt 0.4244 0.9340 0.0000
vt 0.3601 0.9135 0.0000
vt 0.4244 0.9340 0.0000
vt 0.3601 0.9135 0.0000
vt 0.4244 0.9340 0.0000
vt 0.3601 0.9135 0.0000
vt 0.4244 0.9340 0.0000
vt 0.3601 0.9135 0.0000
vt 0.4244 0.9340 0.0000
vt 0.3601 0.9135 0.0000
vt 0.4244 0.9340 0.0000
vt 0.3601 0.9135 0.0000
vt 0.4244 0.9340 0.0000
vt 0.3601 0.9135 0.0000
vt 0.4244 0.9340 0.0000
vt 0.3601 0.9135 0.0000
vt 0.4244 0.9340 0.0000
vt 0.3601 0.9135 0.0000
vt 0.4244 0.9340 0.0000
vt 0.3601 0.9135 0.0000
vt 0.4244 0.9340 0.0000
vt 0.3601 0.9135 0.0000
vt 0.4244 0.9340 0.0000
vt 0.3601 0.9135 0.0000
vt 0.4244 0.9340 0.0000
vt 0.3601 0.9135 0.0000
vt 0.4244 0.9340 0.0000
vt 0.3601 0.9135 0.0000
vt 0.4244 0.9340 0.0000
vt 0.3601 0.9135 0.0000
vt 0.4244 0.9340 0.0000
vt 0.3601 0.9135 0.0000
vt 0.4244 0.9340 0.0000
vt 0.3601 0.9135 0.0000
vt 0.4244 0.9340 0.0000
vt 0.3601 0.9135 0.0000
vt 0.4244 0.9340 0.0000
vt 0.3601 0.9135 0.0000
vt 0.4244 0.9340 0.0000
vt 0.3601 0.9135 0.0000
vt 0.3901 0.9909 0.0000
vt 0.3901 0.9909 0.0000
vt 0.3901 0.9909 0.0000
vt 0.3901 0.9909 0.0000
vt 0.3901 0.9909 0.0000
vt 0.3901 0.9909 0.0000
vt 0.3901 0.9909 0.0000
vt 0.3901 0.9909 0.0000
vt 0.3901 0.9909 0.0000
vt 0.3901 0.9909 0.0000
vt 0.3901 0.9909 0.0000
vt 0.3901 0.9909 0.0000
vt 0.3901 0.9909 0.0000
vt 0.3901 0.9909 0.0000
vt 0.3901 0.9909 0.0000
vt 0.3901 0.9909 0.0000
vt 0.3901 0.9909 0.0000
vt 0.3901 0.9909 0.0000
vt 0.3901 0.9909 0.0000
vt 0.3901 0.9909 0.0000
vt 0.3901 0.9909 0.0000
vt 0.3901 0.9909 0.0000
vt 0.3901 0.9909 0.0000
vt 0.3901 0.9909 0.0000
vt 0.3901 0.9909 0.0000
vt 0.3901 0.9909 0.0000
# 250 texture coords

o FlaxDead
g FlaxDead
s 1
f 1/1/1 2/2/2 4/4/3 
f 4/4/4 3/3/5 6/6/6 
f 6/6/7 5/5/8 173/173/9 
f 173/173/10 174/174/11 6/6/12 
f 7/7/13 10/10/14 8/8/15 
f 10/10/16 12/12/17 9/9/18 
f 12/12/19 176/176/20 175/175/21 
f 175/175/22 11/11/23 12/12/24 
f 16/16/25 15/15/26 14/14/27 
f 14/14/28 13/13/29 16/16/30 
f 16/16/31 18/18/32 15/15/33 
f 18/18/34 178/178/35 177/177/36 
f 177/177/37 17/17/38 18/18/39 
f 19/19/40 20/20/41 21/21/42 
f 21/21/43 22/22/44 19/19/45 
f 22/22/46 21/21/47 24/24/48 
f 24/24/49 23/23/50 179/179/51 
f 179/179/52 180/180/53 24/24/54 
f 25/25/55 28/28/56 27/27/57 
f 27/27/58 26/26/59 25/25/60 
f 28/28/61 30/30/62 29/29/63 
f 29/29/64 27/27/65 28/28/66 
f 30/30/67 32/32/68 29/29/69 
f 32/32/70 182/182/71 181/181/72 
f 181/181/73 31/31/74 32/32/75 
f 33/33/76 34/34/77 35/35/78 
f 35/35/79 36/36/80 33/33/81 
f 36/36/82 35/35/83 37/37/84 
f 37/37/85 38/38/86 36/36/87 
f 38/38/88 37/37/89 40/40/90 
f 40/40/91 39/39/92 183/183/93 
f 183/183/94 184/184/95 40/40/96 
f 41/41/97 42/42/98 43/43/99 
f 43/43/100 44/44/101 41/41/102 
f 44/44/103 43/43/104 45/45/105 
f 45/45/106 46/46/107 44/44/108 
f 46/46/109 45/45/110 185/185/111 
f 185/185/112 186/186/113 46/46/114 
f 50/50/115 49/49/116 48/48/117 
f 48/48/118 47/47/119 50/50/120 
f 50/50/121 52/52/122 51/51/123 
f 51/51/124 49/49/125 50/50/126 
f 52/52/127 188/188/128 187/187/129 
f 187/187/130 51/51/131 52/52/132 
f 56/56/133 55/55/134 54/54/135 
f 54/54/136 53/53/137 56/56/138 
f 56/56/139 58/58/140 57/57/141 
f 57/57/142 55/55/143 56/56/144 
f 58/58/145 190/190/146 189/189/147 
f 189/189/148 57/57/149 58/58/150 
f 59/59/151 60/60/152 61/61/153 
f 61/61/154 62/62/155 59/59/156 
f 62/62/157 61/61/158 63/63/159 
f 63/63/160 64/64/161 62/62/162 
f 64/64/163 63/63/164 191/191/165 
f 191/191/166 192/192/167 64/64/168 
f 65/65/169 68/68/170 67/67/171 
f 67/67/172 66/66/173 65/65/174 
f 68/68/175 70/70/176 69/69/177 
f 69/69/178 67/67/179 68/68/180 
f 70/70/181 72/72/182 71/71/183 
f 71/71/184 69/69/185 70/70/186 
f 72/72/187 194/194/188 193/193/189 
f 193/193/190 71/71/191 72/72/192 
f 73/73/193 74/74/194 75/75/195 
f 75/75/196 76/76/197 73/73/198 
f 76/76/199 75/75/200 77/77/201 
f 77/77/202 78/78/203 76/76/204 
f 78/78/205 77/77/206 79/79/207 
f 79/79/208 80/80/209 78/78/210 
f 80/80/211 79/79/212 195/195/213 
f 195/195/214 196/196/215 80/80/216 
f 81/81/217 82/82/218 83/83/219 
f 83/83/220 84/84/221 81/81/222 
f 84/84/223 83/83/224 86/86/225 
f 86/86/226 85/85/227 197/197/228 
f 197/197/229 198/198/230 86/86/231 
f 90/90/232 89/89/233 88/88/234 
f 88/88/235 87/87/236 90/90/237 
f 90/90/238 92/92/239 89/89/240 
f 92/92/241 200/200/242 199/199/243 
f 199/199/244 91/91/245 92/92/246 
f 96/96/247 95/95/248 94/94/249 
f 94/94/250 93/93/251 96/96/252 
f 96/96/253 98/98/254 95/95/255 
f 98/98/256 202/202/257 201/201/258 
f 201/201/259 97/97/260 98/98/261 
f 99/99/262 100/100/263 101/101/264 
f 101/101/265 102/102/266 99/99/267 
f 102/102/268 101/101/269 104/104/270 
f 104/104/271 103/103/272 203/203/273 
f 203/203/274 204/204/275 104/104/276 
f 105/105/277 108/108/278 107/107/279 
f 107/107/280 106/106/281 105/105/282 
f 108/108/283 110/110/284 109/109/285 
f 109/109/286 107/107/287 108/108/288 
f 110/110/289 112/112/290 109/109/291 
f 112/112/292 206/206/293 205/205/294 
f 205/205/295 111/111/296 112/112/297 
f 113/113/298 114/114/299 115/115/300 
f 115/115/301 116/116/302 113/113/303 
f 116/116/304 115/115/305 117/117/306 
f 117/117/307 118/118/308 116/116/309 
f 118/118/310 117/117/311 120/120/312 
f 120/120/313 119/119/314 207/207/315 
f 207/207/316 208/208/317 120/120/318 
f 121/121/319 122/122/320 123/123/321 
f 123/123/322 124/124/323 121/121/324 
f 124/124/325 123/123/326 126/126/327 
f 126/126/328 125/125/329 209/209/330 
f 209/209/331 210/210/332 126/126/333 
f 130/130/334 129/129/335 128/128/336 
f 128/128/337 127/127/338 130/130/339 
f 130/130/340 132/132/341 129/129/342 
f 132/132/343 212/212/344 211/211/345 
f 211/211/346 131/131/347 132/132/348 
f 136/136/349 135/135/350 134/134/351 
f 134/134/352 133/133/353 136/136/354 
f 136/136/355 138/138/356 135/135/357 
f 138/138/358 214/214/359 213/213/360 
f 213/213/361 137/137/362 138/138/363 
f 139/139/364 140/140/365 141/141/366 
f 141/141/367 142/142/368 139/139/369 
f 142/142/370 141/141/371 144/144/372 
f 144/144/373 143/143/374 215/215/375 
f 215/215/376 216/216/377 144/144/378 
f 145/145/379 146/146/380 147/147/381 
f 147/147/382 148/148/383 145/145/384 
f 148/148/385 147/147/386 150/150/387 
f 149/149/388 217/217/389 218/218/390 
f 218/218/391 150/150/392 149/149/393 
f 154/154/394 153/153/395 152/152/396 
f 152/152/397 151/151/398 154/154/399 
f 154/154/400 156/156/401 153/153/402 
f 220/220/403 219/219/404 155/155/405 
f 155/155/406 156/156/407 220/220/408 
f 157/157/409 160/160/410 159/159/411 
f 159/159/412 158/158/413 157/157/414 
f 160/160/415 162/162/416 161/161/417 
f 161/161/418 159/159/419 160/160/420 
f 162/162/421 164/164/422 161/161/423 
f 222/222/424 221/221/425 163/163/426 
f 163/163/427 164/164/428 222/222/429 
f 165/165/430 166/166/431 167/167/432 
f 167/167/433 168/168/434 165/165/435 
f 168/168/436 167/167/437 169/169/438 
f 169/169/439 170/170/440 168/168/441 
f 170/170/442 169/169/443 172/172/444 
f 171/171/445 223/223/446 224/224/447 
f 224/224/448 172/172/449 171/171/450 
f 173/173/451 225/225/452 174/174/453 
f 179/179/454 228/228/455 180/180/456 
f 183/183/457 230/230/458 184/184/459 
f 185/185/460 231/231/461 186/186/462 
f 191/191/463 234/234/464 192/192/465 
f 195/195/466 236/236/467 196/196/468 
f 197/197/469 237/237/470 198/198/471 
f 203/203/472 240/240/473 204/204/474 
f 207/207/475 242/242/476 208/208/477 
f 209/209/478 243/243/479 210/210/480 
f 215/215/481 246/246/482 216/216/483 
f 217/217/484 247/247/485 218/218/486 
f 223/223/487 250/250/488 224/224/489 
f 175/175/490 176/176/491 226/226/492 
f 177/177/493 178/178/494 227/227/495 
f 181/181/496 182/182/497 229/229/498 
f 187/187/499 188/188/500 232/232/501 
f 189/189/502 190/190/503 233/233/504 
f 193/193/505 194/194/506 235/235/507 
f 199/199/508 200/200/509 238/238/510 
f 201/201/511 202/202/512 239/239/513 
f 205/205/514 206/206/515 241/241/516 
f 211/211/517 212/212/518 244/244/519 
f 213/213/520 214/214/521 245/245/522 
f 219/219/523 220/220/524 248/248/525 
f 221/221/526 222/222/527 249/249/528 
f 32/32/529 31/31/530 29/29/531 
f 37/37/532 39/39/533 40/40/534 
f 3/3/535 5/5/536 6/6/537 
f 12/12/538 11/11/539 9/9/540 
f 138/138/541 137/137/542 135/135/543 
f 141/141/544 143/143/545 144/144/546 
f 147/147/547 149/149/548 150/150/549 
f 156/156/550 155/155/551 153/153/552 
f 123/123/553 125/125/554 126/126/555 
f 132/132/556 131/131/557 129/129/558 
f 164/164/559 163/163/560 161/161/561 
f 169/169/562 171/171/563 172/172/564 
f 98/98/565 97/97/566 95/95/567 
f 101/101/568 103/103/569 104/104/570 
f 83/83/571 85/85/572 86/86/573 
f 92/92/574 91/91/575 89/89/576 
f 112/112/577 111/111/578 109/109/579 
f 117/117/580 119/119/581 120/120/582 
f 18/18/583 17/17/584 15/15/585 
f 21/21/586 23/23/587 24/24/588 
f 2/2/589 3/3/590 4/4/591 
f 10/10/592 9/9/593 8/8/594 
# 198 faces

