# 3ds Max Wavefront OBJ Exporter v0.99 - (c)2007 guruware
# File Created: 19.11.2024 10:16:49

#
# object FlaxStage03
#

v  -3.1555 -6.1675 -1.4829
v  3.1555 -6.1675 -1.4829
v  1.3089 15.0926 -15.9408
v  -5.0350 16.4826 -15.3025
v  -3.9830 12.0626 -28.7319
v  -9.8163 15.0173 -27.8270
v  -3.1555 -6.2754 -1.6358
v  3.1555 -6.2754 -1.6358
v  1.2563 14.8068 -15.9256
v  -5.0836 16.2035 -15.2875
v  -4.0543 11.8339 -28.6571
v  -9.8850 14.7925 -27.7522
v  3.3695 -5.2098 -0.9078
v  -1.7799 -5.2098 -2.2876
v  6.4281 12.6330 -14.5441
v  11.4648 13.8072 -12.6363
v  15.7006 8.7690 -25.6164
v  20.2624 11.2649 -23.6028
v  3.4030 -5.3009 -1.0325
v  -1.7465 -5.3009 -2.4123
v  6.4677 12.3916 -14.5202
v  11.5011 13.5714 -12.6135
v  15.7424 8.5758 -25.5398
v  20.3021 11.0750 -23.5267
v  -3.2641 -5.7614 -4.8061
v  1.7191 -5.7559 -2.9824
v  5.0197 12.3096 -16.2164
v  0.1039 12.9529 -18.2778
v  7.3471 8.7109 -25.9787
v  2.8328 10.2228 -28.3378
v  -3.2208 -5.8522 -4.9281
v  1.7632 -5.8462 -3.1032
v  4.9903 12.0695 -16.2214
v  0.0801 12.7158 -18.2854
v  7.2918 8.5080 -25.9559
v  2.7791 10.0218 -28.3163
v  -1.7375 -7.6878 -0.4598
v  3.5575 -6.8919 -1.8646
v  -0.7928 24.7312 -4.8422
v  -5.9304 24.6203 -2.5090
v  -7.7257 33.5031 -12.9843
v  -12.3352 34.4878 -10.0544
v  -1.7767 -7.6829 -0.6060
v  3.5183 -6.8870 -2.0108
v  -0.8397 24.5001 -4.9141
v  -5.9738 24.3949 -2.5797
v  -7.7727 33.2791 -12.9901
v  -12.3800 34.2671 -10.0595
v  3.8971 -6.4666 -1.1798
v  -0.7549 -6.3361 -1.0304
v  -0.0529 12.9895 -2.7588
v  4.6956 12.9255 -2.7056
v  2.1496 24.5405 -7.3815
v  6.8607 24.9844 -6.7359
v  7.5710 31.0739 -15.7364
v  11.9391 32.3963 -14.4712
v  3.8931 -6.4607 -1.3076
v  -0.7589 -6.3303 -1.1581
v  -0.0443 12.8987 -2.8684
v  4.7038 12.8372 -2.8129
v  2.1831 24.3497 -7.4529
v  6.8912 24.7980 -6.8055
v  7.6201 30.8899 -15.7543
v  11.9863 32.2149 -14.4880
v  1.7523 -6.1675 -3.0143
v  1.2022 -6.1675 3.2728
v  15.7661 15.0926 2.6932
v  15.6831 16.4826 -3.6822
v  28.9697 12.0626 -1.4637
v  28.5767 15.0173 -7.3536
v  1.9046 -6.2754 -3.0009
v  1.3546 -6.2754 3.2861
v  15.7555 14.8068 2.6395
v  15.6724 16.2035 -3.7318
v  28.9014 11.8339 -1.5412
v  28.5082 14.7925 -7.4286
v  0.6106 -5.2098 3.4358
v  2.4340 -5.2098 -1.5737
v  13.9285 12.6330 7.6712
v  11.5890 13.8072 12.5225
v  24.1506 8.7690 17.8735
v  21.7470 11.2649 22.2424
v  0.7320 -5.3009 3.4800
v  2.5553 -5.3009 -1.5296
v  13.9012 12.3916 7.7086
v  11.5631 13.5714 12.5567
v  24.0706 8.5758 17.9085
v  21.6678 11.0750 22.2753
v  -0.6492 -7.1154 2.9965
v  0.3078 -7.1154 -2.4310
v  6.5813 14.2973 -0.7876
v  5.3904 14.4599 4.7055
v  16.7063 27.8249 3.0253
v  14.9799 28.8068 8.3463
v  25.5652 28.5959 9.6491
v  23.4312 30.8180 14.4454
v  -0.5040 -7.1607 3.0221
v  0.4530 -7.1607 -2.4054
v  6.6808 14.1494 -0.7538
v  5.4879 14.3158 4.7384
v  16.7338 27.5793 3.0768
v  15.0071 28.5669 8.3941
v  25.5308 28.3807 9.7062
v  23.3965 30.6060 14.5002
v  -0.2988 -6.4793 -2.7277
v  0.0665 -6.0673 1.9029
v  5.5188 11.8782 0.1088
v  4.9625 11.5974 -4.6028
v  14.3689 23.0287 -2.8536
v  13.3501 23.4494 -7.4994
v  25.6237 23.0760 -9.0913
v  24.2223 24.5799 -13.3835
v  -0.1747 -6.5189 -2.7355
v  0.1906 -6.1069 1.8951
v  5.6049 11.7513 0.0948
v  5.0469 11.4738 -4.6163
v  14.3958 22.8180 -2.8839
v  13.3764 23.2438 -7.5270
v  25.5989 22.8901 -9.1328
v  24.1971 24.3970 -13.4232
v  0.6095 -7.6878 -1.6908
v  1.5474 -6.8919 3.7065
v  3.2943 15.7648 0.9490
v  2.0980 15.0381 -4.5166
v  6.0944 29.4725 -1.2802
v  4.2178 29.3617 -6.6016
v  15.8616 35.8942 -6.9500
v  13.3447 36.8790 -11.7973
v  0.7585 -7.6829 -1.7171
v  1.6965 -6.8870 3.6802
v  3.4198 15.6543 0.9202
v  2.2209 14.9307 -4.5447
v  6.1701 29.2415 -1.3207
v  4.2921 29.1363 -6.6387
v  15.8715 35.6702 -6.9964
v  13.3536 36.6582 -11.8415
v  2.9199 -5.5166 -2.3725
v  2.3080 -5.9146 2.2109
v  3.9042 13.2987 2.7512
v  4.5948 13.7953 -1.9581
v  8.0206 24.8807 3.6085
v  8.6033 25.9117 -0.9633
v  14.7356 30.3688 4.4972
v  15.3105 32.2747 0.2109
v  3.0468 -5.5108 -2.3564
v  2.4339 -5.9091 2.2279
v  4.0129 13.2109 2.7507
v  4.7042 13.7103 -1.9566
v  8.0995 24.6986 3.5839
v  8.6841 25.7340 -0.9835
v  14.7778 30.1956 4.4552
v  15.3532 32.1040 0.1701
v  3.0143 -6.1675 1.7523
v  -3.2728 -6.1675 1.2022
v  -2.6932 15.0926 15.7661
v  3.6822 16.4826 15.6831
v  0.2372 12.0626 25.3089
v  6.1271 15.0173 24.9159
v  3.0009 -6.2754 1.9046
v  -3.2861 -6.2754 1.3546
v  -2.6395 14.8068 15.7555
v  3.7318 16.2035 15.6724
v  0.3147 11.8339 25.2406
v  6.2021 14.7925 24.8473
v  -3.4358 -5.2098 0.6106
v  1.5737 -5.2098 2.4340
v  -7.6712 12.6330 13.9285
v  -12.5225 13.8072 11.5890
v  -17.8735 8.7690 24.1506
v  -22.2424 11.2649 21.7470
v  -3.4800 -5.3009 0.7320
v  1.5296 -5.3009 2.5553
v  -7.7086 12.3916 13.9013
v  -12.5567 13.5714 11.5631
v  -17.9084 8.5758 24.0706
v  -22.2753 11.0750 21.6678
v  2.7277 -6.4793 -0.2988
v  -1.9029 -6.0673 0.0665
v  3.5397 20.9469 14.4437
v  8.1856 21.3676 13.4248
v  9.0913 23.0760 25.6237
v  13.3835 24.5799 24.2223
v  2.7355 -6.5189 -0.1747
v  -1.8951 -6.1069 0.1906
v  3.5701 20.7362 14.4705
v  8.2132 21.1620 13.4511
v  9.1328 22.8901 25.5989
v  13.4232 24.3970 24.1971
v  -1.2022 -6.1675 3.2728
v  -1.7523 -6.1675 -3.0143
v  -15.9942 15.0926 0.0854
v  -14.8054 16.4826 6.3496
v  -28.2755 12.0626 6.4720
v  -26.8656 15.0173 12.2042
v  -1.3546 -6.2754 3.2861
v  -1.9046 -6.2754 -3.0009
v  -15.9745 14.8068 0.1365
v  -14.7863 16.2035 6.3966
v  -28.1947 11.8339 6.5365
v  -26.7851 14.7925 12.2661
v  -1.1980 -5.2098 -3.2776
v  -2.1237 -5.2098 1.9725
v  -15.0490 12.6330 -5.1360
v  -13.5874 13.8072 -10.3198
v  -26.8874 8.7690 -13.4082
v  -25.2789 11.2649 -18.1281
v  -1.3252 -5.3009 -3.3000
v  -2.2509 -5.3009 1.9500
v  -15.0286 12.3916 -5.1776
v  -13.5679 13.5714 -10.3580
v  -26.8147 8.5758 -13.4566
v  -25.2066 11.0750 -18.1743
v  0.1190 -7.1154 -3.0637
v  0.1190 -7.1154 2.4475
v  -6.3445 14.2973 1.9185
v  -6.1256 14.4599 -3.6979
v  -16.9778 27.8249 -0.0783
v  -16.2016 28.8068 -5.6183
v  -30.8366 28.5959 -6.3750
v  -29.5678 30.8180 -11.4690
v  -0.0285 -7.1607 -3.0637
v  -0.0285 -7.1607 2.4475
v  -6.4484 14.1494 1.9024
v  -6.2273 14.3158 -3.7134
v  -17.0139 27.5793 -0.1242
v  -16.2367 28.5669 -5.6606
v  -30.8126 28.3807 -6.4372
v  -29.5432 30.6060 -11.5290
v  -2.6147 -5.7804 -3.1585
v  -1.0755 -6.3204 1.1931
v  -6.1108 11.5647 3.5832
v  -7.7676 12.1820 -0.8702
v  -14.3715 22.9900 6.2856
v  -16.0003 24.1482 1.9928
v  -26.2558 23.9440 9.4458
v  -27.9870 25.9238 5.5037
v  -2.7331 -5.8206 -3.1207
v  -1.1928 -6.3606 1.2316
v  -6.1975 11.4421 3.5940
v  -7.8551 12.0618 -0.8571
v  -14.4168 22.7890 6.2599
v  -16.0473 23.9505 1.9720
v  -26.2712 23.7660 9.3976
v  -28.0033 25.7478 5.4568
v  -0.3066 -7.6878 1.7710
v  -2.1676 -6.8919 -3.3815
v  -6.5480 29.4725 3.7829
v  -2.9646 29.3617 8.1416
v  -13.2123 35.8942 11.4977
v  -9.8918 36.8790 15.8342
v  -0.4488 -7.6829 1.8228
v  -2.3097 -6.8870 -3.3297
v  -6.6154 29.2415 3.8317
v  -3.0318 29.1363 8.1866
v  -13.2139 35.6702 11.5450
v  -9.8930 36.6582 15.8793
v  -8.4093 7.3503 -33.7575
v  -12.8527 9.8609 -33.0219
v  -8.4485 7.2135 -33.6959
v  -12.8908 9.7257 -32.9603
v  20.8280 5.0286 -28.5540
v  23.4629 6.6415 -27.3588
v  20.8421 4.9408 -28.5093
v  23.4763 6.5546 -27.3142
v  7.8200 4.5323 -31.7269
v  4.9497 5.6011 -33.2845
v  7.7860 4.4310 -31.7058
v  4.9163 5.5004 -33.2639
v  -12.8027 32.3888 -16.2226
v  -15.2252 33.0269 -14.5925
v  -12.8174 32.2896 -16.2171
v  -15.2392 32.9286 -14.5868
v  11.3541 30.5320 -19.7024
v  14.3222 31.5567 -18.7532
v  11.3782 30.4268 -19.7023
v  14.3456 31.4523 -18.7526
v  34.3567 7.3809 -5.4938
v  34.0202 9.8267 -9.8683
v  34.3003 7.2477 -5.5370
v  33.9636 9.6950 -9.9105
v  26.6839 4.9726 23.1445
v  25.1593 6.7039 25.8503
v  26.6348 4.8783 23.1553
v  25.1104 6.6106 25.8605
v  29.6940 26.2926 14.6867
v  28.3167 27.8234 17.6215
v  29.6666 26.1847 14.7098
v  28.2892 27.7166 17.6439
v  29.5012 20.7675 -12.8757
v  28.5783 21.8382 -15.5313
v  29.4796 20.6742 -12.8928
v  28.5566 21.7458 -15.5478
v  19.6357 34.7667 -10.9379
v  18.1536 35.4361 -13.6186
v  19.6313 34.6627 -10.9537
v  18.1490 35.3330 -13.6338
v  21.4797 32.1820 4.6162
v  21.8821 33.6134 1.6617
v  21.4937 32.0819 4.5895
v  21.8963 33.5142 1.6354
v  5.7705 7.5258 34.3321
v  9.5969 9.6652 34.0377
v  5.8083 7.4093 34.2827
v  9.6339 9.5500 33.9883
v  -23.0464 5.9932 27.4789
v  -25.9476 7.8495 25.8442
v  -23.0580 5.8921 27.4262
v  -25.9585 7.7495 25.7918
v  13.0010 20.8133 29.4569
v  15.4076 21.7837 28.6206
v  13.0165 20.7288 29.4374
v  15.4226 21.7000 28.6009
v  -32.8895 7.3635 11.3440
v  -31.7820 9.8462 15.6577
v  -32.8255 7.2283 11.3772
v  -31.7180 9.7124 15.6900
v  -30.2975 4.9726 -18.1593
v  -29.2659 6.7039 -21.0887
v  -30.2510 4.8783 -18.1784
v  -29.2195 6.6106 -21.1073
v  -35.8115 26.2368 -10.4953
v  -34.8984 27.8876 -13.8700
v  -35.7867 26.1205 -10.5250
v  -34.8733 27.7724 -13.8990
v  -31.5165 21.9951 10.0611
v  -32.7347 23.4669 7.3616
v  -31.5160 21.8963 10.0291
v  -32.7345 23.3688 7.3301
v  -16.2006 34.7200 16.5835
v  -13.9574 35.4999 19.3598
v  -16.1923 34.5988 16.6008
v  -13.9490 35.3798 19.3763
v  -14.3512 3.7107 -38.5178
v  -14.3809 3.5866 -38.4337
v  25.7879 1.2678 -28.1936
v  25.7937 1.1629 -28.1185
v  7.6987 -0.7852 -35.3610
v  7.6479 -0.8985 -35.3181
v  -18.5105 29.6471 -20.7229
v  -18.5180 29.5020 -20.6966
v  15.5183 27.7110 -22.7470
v  15.5389 27.5900 -22.7287
v  37.1709 2.7793 -10.9396
v  37.0897 2.6551 -10.9764
v  28.9229 1.7140 28.9308
v  28.8475 1.6091 28.9300
v  31.7370 23.2361 20.2472
v  31.6836 23.1062 20.2641
v  31.5902 17.0883 -17.1596
v  31.5464 16.9774 -17.1725
v  22.1851 31.4218 -14.8220
v  22.1596 31.2767 -14.8318
v  26.4314 32.6929 3.9356
v  26.4297 32.5766 3.9004
v  10.9396 3.7685 36.5258
v  10.9764 3.6443 36.4446
v  -28.9308 1.7140 28.9229
v  -28.9300 1.6091 28.8475
v  17.1597 17.3441 31.4384
v  17.1725 17.2331 31.3945
v  -34.5462 3.3652 17.6537
v  -34.4598 3.2410 17.6759
v  -31.1504 1.5767 -23.4460
v  -31.0760 1.4718 -23.4583
v  -40.5197 24.4734 -15.4292
v  -40.4700 24.3436 -15.4551
v  -37.1299 20.5724 9.9622
v  -37.1131 20.4639 9.9178
v  -18.6103 31.1084 21.3503
v  -18.5835 30.9633 21.3555
# 370 vertices

vn 0.1018 0.5447 0.8324
vn 0.1018 0.5447 0.8324
vn 0.2026 0.8703 0.4490
vn 0.2026 0.8703 0.4490
vn 0.1832 0.9352 0.3030
vn 0.1018 0.5447 0.8324
vn 0.1832 0.9352 0.3030
vn 0.2026 0.8703 0.4490
vn 0.2774 0.7802 -0.5606
vn 0.2774 0.7802 -0.5606
vn 0.3096 0.7704 -0.5573
vn 0.2165 0.6204 -0.7538
vn 0.2165 0.6204 -0.7538
vn 0.2166 0.6204 -0.7538
vn 0.2774 0.7802 -0.5606
vn -0.1843 -0.9348 -0.3035
vn -0.2033 -0.8686 -0.4519
vn -0.1020 -0.5434 -0.8332
vn -0.1020 -0.5434 -0.8332
vn -0.1020 -0.5434 -0.8332
vn -0.1843 -0.9348 -0.3035
vn -0.1843 -0.9348 -0.3035
vn -0.2798 -0.7824 0.5564
vn -0.2033 -0.8686 -0.4519
vn -0.2798 -0.7824 0.5564
vn -0.2189 -0.6233 0.7507
vn -0.2189 -0.6233 0.7507
vn -0.2189 -0.6233 0.7507
vn -0.3121 -0.7726 0.5530
vn -0.2798 -0.7824 0.5564
vn -0.2228 0.9650 0.1385
vn -0.2879 0.8940 0.3433
vn -0.3061 0.6106 0.7304
vn -0.3061 0.6106 0.7304
vn -0.3061 0.6106 0.7304
vn -0.2228 0.9650 0.1385
vn -0.2228 0.9650 0.1385
vn -0.1101 0.7634 -0.6365
vn -0.2879 0.8940 0.3433
vn -0.1101 0.7634 -0.6365
vn 0.1177 0.4730 -0.8731
vn 0.1073 0.4867 -0.8670
vn 0.1073 0.4867 -0.8670
vn -0.1388 0.7583 -0.6370
vn -0.1101 0.7634 -0.6365
vn 0.3065 -0.6101 -0.7306
vn 0.3065 -0.6101 -0.7306
vn 0.2891 -0.8929 -0.3452
vn 0.2891 -0.8929 -0.3452
vn 0.2237 -0.9649 -0.1378
vn 0.3065 -0.6101 -0.7306
vn 0.2237 -0.9649 -0.1378
vn 0.2891 -0.8929 -0.3452
vn 0.1145 -0.7664 0.6320
vn 0.1145 -0.7664 0.6320
vn 0.1431 -0.7612 0.6325
vn -0.1038 -0.4908 0.8651
vn -0.1038 -0.4908 0.8651
vn -0.1148 -0.4765 0.8716
vn 0.1145 -0.7664 0.6320
vn -0.2592 0.5978 0.7586
vn -0.2592 0.5978 0.7586
vn -0.0223 0.9206 0.3899
vn -0.0223 0.9206 0.3899
vn -0.0033 0.9594 0.2821
vn -0.2592 0.5978 0.7586
vn -0.0033 0.9594 0.2821
vn -0.0223 0.9206 0.3899
vn 0.4350 0.8288 -0.3519
vn 0.4603 0.8186 -0.3435
vn 0.5336 0.6077 -0.5882
vn 0.5291 0.6305 -0.5679
vn 0.5291 0.6305 -0.5679
vn 0.4350 0.8288 -0.3519
vn 0.4603 0.8186 -0.3435
vn 0.0030 -0.9593 -0.2825
vn 0.0230 -0.9196 -0.3921
vn 0.2596 -0.5972 -0.7589
vn 0.2596 -0.5972 -0.7589
vn 0.2596 -0.5972 -0.7589
vn 0.0030 -0.9593 -0.2825
vn 0.0030 -0.9593 -0.2825
vn -0.4337 -0.8319 0.3461
vn 0.0230 -0.9196 -0.3921
vn -0.5288 -0.6343 0.5639
vn -0.5335 -0.6107 0.5852
vn -0.4589 -0.8217 0.3379
vn -0.4589 -0.8217 0.3379
vn -0.4337 -0.8319 0.3461
vn -0.5288 -0.6343 0.5639
vn 0.3259 0.1173 0.9381
vn 0.3259 0.1173 0.9381
vn 0.3483 0.4156 0.8402
vn 0.3483 0.4156 0.8402
vn 0.3211 0.4506 0.8330
vn 0.3259 0.1173 0.9381
vn 0.3211 0.4506 0.8330
vn 0.3483 0.4156 0.8402
vn 0.2238 0.9716 0.0763
vn 0.2238 0.9716 0.0763
vn 0.3063 0.9388 0.1579
vn -0.0239 0.9256 -0.3778
vn -0.0239 0.9256 -0.3778
vn -0.0273 0.9232 -0.3833
vn 0.2238 0.9716 0.0763
vn -0.3222 -0.4491 -0.8334
vn -0.3493 -0.4132 -0.8410
vn -0.3263 -0.1161 -0.9381
vn -0.3263 -0.1161 -0.9381
vn -0.3263 -0.1161 -0.9381
vn -0.3222 -0.4491 -0.8334
vn -0.3222 -0.4491 -0.8334
vn -0.2304 -0.9693 -0.0858
vn -0.3493 -0.4132 -0.8410
vn -0.2304 -0.9693 -0.0858
vn 0.0225 -0.9258 0.3774
vn 0.0185 -0.9285 0.3710
vn 0.0185 -0.9285 0.3710
vn -0.3117 -0.9356 -0.1661
vn -0.2304 -0.9693 -0.0858
vn 0.0119 0.0833 0.9965
vn -0.0386 0.2299 0.9725
vn -0.0331 0.2140 0.9763
vn -0.0331 0.2140 0.9763
vn 0.0119 0.0833 0.9965
vn 0.0119 0.0833 0.9965
vn -0.0386 0.2299 0.9725
vn -0.1316 0.6169 0.7759
vn -0.1411 0.5487 0.8240
vn -0.1411 0.5487 0.8240
vn -0.0331 0.2140 0.9763
vn -0.0386 0.2299 0.9725
vn -0.1316 0.6169 0.7759
vn -0.2714 0.9624 0.0055
vn -0.1411 0.5487 0.8240
vn -0.2714 0.9624 0.0055
vn -0.1208 0.8511 -0.5109
vn -0.1390 0.8714 -0.4705
vn -0.1390 0.8714 -0.4705
vn -0.3318 0.9303 0.1566
vn -0.2714 0.9624 0.0055
vn -0.0116 -0.0827 -0.9965
vn -0.0116 -0.0827 -0.9965
vn 0.0335 -0.2136 -0.9763
vn 0.0335 -0.2136 -0.9763
vn 0.0392 -0.2299 -0.9724
vn -0.0116 -0.0827 -0.9965
vn 0.0392 -0.2299 -0.9724
vn 0.0335 -0.2136 -0.9763
vn 0.1418 -0.5474 -0.8248
vn 0.1418 -0.5474 -0.8248
vn 0.1326 -0.6161 -0.7764
vn 0.0392 -0.2299 -0.9724
vn 0.1326 -0.6161 -0.7764
vn 0.1418 -0.5474 -0.8248
vn 0.2744 -0.9615 -0.0139
vn 0.2744 -0.9615 -0.0139
vn 0.3339 -0.9284 -0.1631
vn 0.1421 -0.8743 0.4642
vn 0.1421 -0.8743 0.4642
vn 0.1231 -0.8533 0.5067
vn 0.2744 -0.9615 -0.0139
vn -0.8381 0.5447 0.0289
vn -0.8381 0.5447 0.0289
vn -0.4540 0.8709 0.1881
vn -0.4540 0.8709 0.1881
vn -0.2702 0.9334 0.2362
vn -0.8381 0.5447 0.0289
vn -0.2702 0.9334 0.2362
vn -0.4540 0.8709 0.1881
vn 0.4927 0.8135 0.3089
vn 0.4927 0.8135 0.3089
vn 0.5208 0.7967 0.3067
vn -0.2702 0.9334 0.2362
vn 0.5208 0.7967 0.3067
vn 0.4927 0.8135 0.3089
vn 0.8203 0.5270 0.2222
vn 0.8203 0.5270 0.2222
vn 0.8190 0.5287 0.2231
vn 0.5208 0.7967 0.3067
vn 0.2703 -0.9330 -0.2374
vn 0.4570 -0.8693 -0.1883
vn 0.8390 -0.5434 -0.0290
vn 0.8390 -0.5434 -0.0290
vn 0.8390 -0.5434 -0.0290
vn 0.2703 -0.9330 -0.2374
vn 0.2703 -0.9330 -0.2374
vn -0.5162 -0.7988 -0.3090
vn -0.4876 -0.8158 -0.3111
vn -0.4876 -0.8158 -0.3111
vn 0.4570 -0.8693 -0.1883
vn 0.2703 -0.9330 -0.2374
vn -0.5162 -0.7988 -0.3090
vn -0.8164 -0.5318 -0.2252
vn -0.8177 -0.5302 -0.2243
vn -0.8177 -0.5302 -0.2243
vn -0.4876 -0.8158 -0.3111
vn -0.5162 -0.7988 -0.3090
vn -0.0437 0.9571 -0.2864
vn -0.2949 0.8939 -0.3376
vn -0.7009 0.6106 -0.3686
vn -0.7009 0.6106 -0.3686
vn -0.7009 0.6106 -0.3686
vn -0.0437 0.9571 -0.2864
vn -0.0437 0.9571 -0.2864
vn 0.6227 0.7815 -0.0390
vn 0.6003 0.7981 -0.0515
vn 0.6003 0.7981 -0.0515
vn -0.2949 0.8939 -0.3376
vn -0.0437 0.9571 -0.2864
vn 0.6227 0.7815 -0.0390
vn 0.7822 0.6206 0.0549
vn 0.7822 0.6206 0.0550
vn 0.7822 0.6206 0.0550
vn 0.6003 0.7981 -0.0515
vn 0.6227 0.7815 -0.0390
vn 0.7012 -0.6101 0.3690
vn 0.7012 -0.6101 0.3690
vn 0.2968 -0.8928 0.3388
vn 0.2968 -0.8928 0.3388
vn 0.0426 -0.9569 0.2871
vn 0.7012 -0.6101 0.3690
vn 0.0426 -0.9569 0.2871
vn 0.2968 -0.8928 0.3388
vn -0.5962 -0.8009 0.0562
vn -0.5962 -0.8009 0.0562
vn -0.6189 -0.7843 0.0438
vn 0.0426 -0.9569 0.2871
vn -0.6189 -0.7843 0.0438
vn -0.5962 -0.8009 0.0562
vn -0.7799 -0.6238 -0.0515
vn -0.7799 -0.6238 -0.0515
vn -0.7800 -0.6237 -0.0514
vn -0.6189 -0.7843 0.0438
vn -0.9400 0.2840 -0.1891
vn -0.8568 0.4595 -0.2340
vn -0.8662 0.4435 -0.2301
vn -0.8662 0.4435 -0.2301
vn -0.9400 0.2840 -0.1891
vn -0.9400 0.2840 -0.1891
vn -0.8568 0.4595 -0.2340
vn -0.3193 0.8967 -0.3064
vn -0.4625 0.8331 -0.3034
vn -0.4625 0.8331 -0.3034
vn -0.8662 0.4435 -0.2301
vn -0.8568 0.4595 -0.2340
vn -0.3193 0.8967 -0.3064
vn 0.3539 0.9123 -0.2060
vn 0.2887 0.9305 -0.2252
vn 0.2887 0.9305 -0.2252
vn -0.4625 0.8331 -0.3034
vn -0.3193 0.8967 -0.3064
vn 0.3539 0.9123 -0.2060
vn 0.6860 0.7261 -0.0457
vn 0.6738 0.7368 -0.0558
vn 0.6738 0.7368 -0.0558
vn 0.2887 0.9305 -0.2252
vn 0.3539 0.9123 -0.2060
vn 0.9401 -0.2834 0.1894
vn 0.9401 -0.2834 0.1894
vn 0.8663 -0.4432 0.2305
vn 0.8663 -0.4432 0.2305
vn 0.8565 -0.4597 0.2346
vn 0.9401 -0.2834 0.1894
vn 0.8565 -0.4597 0.2346
vn 0.8663 -0.4432 0.2305
vn 0.4636 -0.8322 0.3043
vn 0.4636 -0.8322 0.3043
vn 0.3188 -0.8965 0.3075
vn 0.8565 -0.4597 0.2346
vn 0.3188 -0.8965 0.3075
vn 0.4636 -0.8322 0.3043
vn -0.2822 -0.9315 0.2294
vn -0.2822 -0.9315 0.2294
vn -0.3474 -0.9137 0.2107
vn 0.3188 -0.8965 0.3075
vn -0.3474 -0.9137 0.2107
vn -0.2822 -0.9315 0.2294
vn -0.6698 -0.7402 0.0596
vn -0.6698 -0.7402 0.0596
vn -0.6829 -0.7289 0.0487
vn -0.3474 -0.9137 0.2107
vn -0.9539 0.2911 0.0725
vn -0.9539 0.2911 0.0725
vn -0.8829 0.4572 0.1070
vn -0.8829 0.4572 0.1070
vn -0.8777 0.4666 0.1090
vn -0.9539 0.2911 0.0725
vn -0.8777 0.4666 0.1090
vn -0.8829 0.4572 0.1070
vn -0.4690 0.8640 0.1833
vn -0.4690 0.8640 0.1833
vn -0.3427 0.9196 0.1920
vn -0.8777 0.4666 0.1090
vn -0.3427 0.9196 0.1920
vn -0.4690 0.8640 0.1833
vn 0.2882 0.9433 0.1647
vn 0.2882 0.9433 0.1647
vn 0.3430 0.9264 0.1556
vn -0.3427 0.9196 0.1920
vn 0.3430 0.9264 0.1556
vn 0.2882 0.9433 0.1647
vn 0.6951 0.7180 0.0365
vn 0.6951 0.7180 0.0365
vn 0.7064 0.7073 0.0291
vn 0.3430 0.9264 0.1556
vn 0.9541 -0.2905 -0.0729
vn 0.8775 -0.4669 -0.1096
vn 0.8830 -0.4569 -0.1075
vn 0.8830 -0.4569 -0.1075
vn 0.9541 -0.2905 -0.0729
vn 0.9541 -0.2905 -0.0729
vn 0.8775 -0.4669 -0.1096
vn 0.3421 -0.9196 -0.1930
vn 0.4698 -0.8633 -0.1842
vn 0.4698 -0.8633 -0.1842
vn 0.8830 -0.4569 -0.1075
vn 0.8775 -0.4669 -0.1096
vn 0.3421 -0.9196 -0.1930
vn -0.3365 -0.9281 -0.1594
vn -0.2819 -0.9446 -0.1680
vn -0.2819 -0.9446 -0.1680
vn 0.4698 -0.8633 -0.1842
vn 0.3421 -0.9196 -0.1930
vn -0.3365 -0.9281 -0.1594
vn -0.7029 -0.7106 -0.0317
vn -0.6910 -0.7218 -0.0396
vn -0.6910 -0.7218 -0.0396
vn -0.2819 -0.9446 -0.1680
vn -0.3365 -0.9281 -0.1594
vn -0.9794 0.0919 0.1795
vn -0.9794 0.0919 0.1795
vn -0.9645 0.1495 0.2175
vn -0.9645 0.1495 0.2175
vn -0.9650 0.1480 0.2165
vn -0.9794 0.0919 0.1795
vn -0.9650 0.1480 0.2165
vn -0.9645 0.1495 0.2175
vn -0.8034 0.5345 0.2625
vn -0.8034 0.5345 0.2625
vn -0.7943 0.5622 0.2304
vn -0.9650 0.1480 0.2165
vn -0.7943 0.5622 0.2304
vn -0.8034 0.5345 0.2625
vn -0.0593 0.9789 0.1955
vn -0.0593 0.9789 0.1955
vn -0.0737 0.9679 0.2405
vn 0.4742 0.8786 -0.0557
vn 0.4742 0.8786 -0.0557
vn 0.4732 0.8792 -0.0551
vn -0.0593 0.9789 0.1955
vn 0.9794 -0.0914 -0.1799
vn 0.9650 -0.1472 -0.2171
vn 0.9646 -0.1485 -0.2180
vn 0.9646 -0.1485 -0.2180
vn 0.9794 -0.0914 -0.1799
vn 0.9794 -0.0914 -0.1799
vn 0.9650 -0.1472 -0.2171
vn 0.7947 -0.5610 -0.2316
vn 0.8045 -0.5322 -0.2638
vn 0.8045 -0.5322 -0.2638
vn 0.9646 -0.1485 -0.2180
vn 0.9650 -0.1472 -0.2171
vn 0.7947 -0.5610 -0.2316
vn 0.0689 -0.9771 -0.2011
vn 0.8045 -0.5322 -0.2638
vn 0.0689 -0.9771 -0.2011
vn -0.4666 -0.8830 0.0504
vn -0.4677 -0.8824 0.0511
vn -0.4677 -0.8824 0.0511
vn 0.0828 -0.9658 -0.2456
vn 0.0689 -0.9771 -0.2011
vn -0.9877 0.0871 -0.1300
vn -0.9877 0.0871 -0.1300
vn -0.9735 0.2031 -0.1048
vn -0.9735 0.2031 -0.1048
vn -0.9711 0.2159 -0.1019
vn -0.9877 0.0871 -0.1300
vn -0.9711 0.2159 -0.1019
vn -0.9735 0.2031 -0.1048
vn -0.8510 0.5250 0.0153
vn -0.8510 0.5250 0.0153
vn -0.8302 0.5574 0.0062
vn -0.9711 0.2159 -0.1019
vn -0.8302 0.5574 0.0062
vn -0.8510 0.5250 0.0153
vn -0.4503 0.8417 0.2978
vn -0.4827 0.8205 0.3063
vn -0.1637 0.9009 0.4020
vn -0.1599 0.9011 0.4030
vn -0.1599 0.9011 0.4030
vn -0.4503 0.8417 0.2978
vn -0.4827 0.8205 0.3063
vn 0.9877 -0.0865 0.1303
vn 0.9711 -0.2158 0.1020
vn 0.9736 -0.2028 0.1050
vn 0.9736 -0.2028 0.1050
vn 0.9877 -0.0865 0.1303
vn 0.9877 -0.0865 0.1303
vn 0.9711 -0.2158 0.1020
vn 0.8310 -0.5563 -0.0062
vn 0.8519 -0.5235 -0.0150
vn 0.8519 -0.5235 -0.0150
vn 0.9736 -0.2028 0.1050
vn 0.9711 -0.2158 0.1020
vn 0.8310 -0.5563 -0.0062
vn 0.4567 -0.8389 -0.2962
vn 0.8519 -0.5235 -0.0150
vn 0.1645 -0.9005 -0.4025
vn 0.1687 -0.9002 -0.4014
vn 0.4887 -0.8176 -0.3046
vn 0.4887 -0.8176 -0.3046
vn 0.4567 -0.8389 -0.2962
vn 0.1645 -0.9005 -0.4025
vn -0.0289 0.5447 -0.8381
vn -0.0289 0.5447 -0.8381
vn -0.1744 0.8832 -0.4355
vn -0.1744 0.8832 -0.4355
vn -0.1559 0.9408 -0.3011
vn -0.0289 0.5447 -0.8381
vn -0.1559 0.9408 -0.3011
vn -0.1744 0.8832 -0.4355
vn -0.3425 0.8192 0.4599
vn -0.3425 0.8192 0.4599
vn -0.3744 0.7964 0.4749
vn -0.2698 0.6097 0.7453
vn -0.2698 0.6097 0.7453
vn -0.2607 0.5939 0.7611
vn -0.3425 0.8192 0.4599
vn 0.1570 -0.9403 0.3018
vn 0.1748 -0.8814 0.4389
vn 0.0290 -0.5434 0.8390
vn 0.0290 -0.5434 0.8390
vn 0.0290 -0.5434 0.8390
vn 0.1570 -0.9403 0.3018
vn 0.1570 -0.9403 0.3018
vn 0.3445 -0.8213 -0.4548
vn 0.1748 -0.8814 0.4389
vn 0.3445 -0.8213 -0.4548
vn 0.2621 -0.5958 -0.7592
vn 0.2715 -0.6121 -0.7427
vn 0.2715 -0.6121 -0.7427
vn 0.3764 -0.7983 -0.4702
vn 0.3445 -0.8213 -0.4548
vn 0.2340 0.9650 -0.1185
vn 0.3168 0.8940 -0.3169
vn 0.3686 0.6106 -0.7009
vn 0.3686 0.6106 -0.7009
vn 0.3686 0.6106 -0.7009
vn 0.2340 0.9650 -0.1185
vn 0.2340 0.9650 -0.1185
vn 0.1144 0.8042 0.5833
vn 0.3168 0.8940 -0.3169
vn 0.1144 0.8042 0.5833
vn -0.0359 0.6410 0.7667
vn -0.0348 0.6422 0.7657
vn -0.0348 0.6422 0.7657
vn 0.1362 0.7949 0.5913
vn 0.1144 0.8042 0.5833
vn -0.3690 -0.6101 0.7012
vn -0.3690 -0.6101 0.7012
vn -0.3181 -0.8929 0.3187
vn -0.3181 -0.8929 0.3187
vn -0.2349 -0.9649 0.1178
vn -0.3690 -0.6101 0.7012
vn -0.2349 -0.9649 0.1178
vn -0.3181 -0.8929 0.3187
vn -0.1192 -0.8068 -0.5787
vn -0.1192 -0.8068 -0.5787
vn -0.1406 -0.7973 -0.5870
vn 0.0306 -0.6459 -0.7628
vn 0.0306 -0.6459 -0.7628
vn 0.0319 -0.6446 -0.7639
vn -0.1192 -0.8068 -0.5787
vn -0.1305 0.4724 -0.8717
vn -0.1305 0.4724 -0.8717
vn -0.1989 0.7672 -0.6098
vn -0.1989 0.7672 -0.6098
vn -0.2146 0.8383 -0.5013
vn -0.1305 0.4724 -0.8717
vn -0.2146 0.8383 -0.5013
vn -0.1989 0.7672 -0.6098
vn -0.1965 0.9625 0.1871
vn -0.1965 0.9625 0.1871
vn -0.1822 0.9472 0.2640
vn -0.2146 0.8383 -0.5013
vn -0.1822 0.9472 0.2640
vn -0.1965 0.9625 0.1871
vn -0.0377 0.7201 0.6928
vn -0.0377 0.7201 0.6928
vn -0.0287 0.7072 0.7064
vn -0.1822 0.9472 0.2640
vn 0.2156 -0.8380 0.5013
vn 0.1995 -0.7661 0.6110
vn 0.1308 -0.4724 0.8716
vn 0.1308 -0.4724 0.8716
vn 0.1308 -0.4724 0.8716
vn 0.2156 -0.8380 0.5013
vn 0.2156 -0.8380 0.5013
vn 0.1863 -0.9485 -0.2563
vn 0.2002 -0.9632 -0.1795
vn 0.2002 -0.9632 -0.1795
vn 0.1995 -0.7661 0.6110
vn 0.2156 -0.8380 0.5013
vn 0.1863 -0.9485 -0.2563
vn 0.0314 -0.7106 -0.7029
vn 0.0409 -0.7242 -0.6884
vn 0.0409 -0.7242 -0.6884
vn 0.2002 -0.9632 -0.1795
vn 0.1863 -0.9485 -0.2563
vn 0.8204 0.5447 -0.1740
vn 0.8204 0.5447 -0.1740
vn 0.4296 0.8703 -0.2409
vn 0.4296 0.8703 -0.2409
vn 0.2859 0.9352 -0.2089
vn 0.8204 0.5447 -0.1740
vn 0.2859 0.9352 -0.2089
vn 0.4296 0.8703 -0.2409
vn -0.5824 0.7804 -0.2276
vn -0.5824 0.7804 -0.2276
vn -0.5820 0.7705 -0.2600
vn -0.8408 0.5350 -0.0821
vn -0.8408 0.5350 -0.0821
vn -0.8451 0.5290 -0.0780
vn -0.5824 0.7804 -0.2276
vn -0.2863 -0.9348 0.2100
vn -0.4324 -0.8686 0.2419
vn -0.8212 -0.5434 0.1743
vn -0.8212 -0.5434 0.1743
vn -0.8212 -0.5434 0.1743
vn -0.2863 -0.9348 0.2100
vn -0.2863 -0.9348 0.2100
vn 0.5784 -0.7826 0.2304
vn -0.4324 -0.8686 0.2419
vn 0.5784 -0.7826 0.2304
vn 0.8430 -0.5319 0.0804
vn 0.8385 -0.5382 0.0848
vn 0.8385 -0.5382 0.0848
vn 0.5778 -0.7727 0.2628
vn 0.5784 -0.7826 0.2304
vn 0.1573 0.9650 0.2099
vn 0.3671 0.8940 0.2569
vn 0.7543 0.6106 0.2413
vn 0.7543 0.6106 0.2413
vn 0.7543 0.6106 0.2413
vn 0.1573 0.9650 0.2099
vn 0.1573 0.9650 0.2099
vn -0.6255 0.7626 0.1649
vn 0.3671 0.8940 0.2569
vn -0.6255 0.7626 0.1649
vn -0.8532 0.5215 -0.0025
vn -0.8469 0.5317 0.0049
vn -0.8469 0.5317 0.0049
vn -0.6234 0.7576 0.1934
vn -0.6255 0.7626 0.1649
vn -0.7546 -0.6101 -0.2417
vn -0.7546 -0.6101 -0.2417
vn -0.3691 -0.8929 -0.2579
vn -0.3691 -0.8929 -0.2579
vn -0.1567 -0.9649 -0.2109
vn -0.7546 -0.6101 -0.2417
vn -0.1567 -0.9649 -0.2109
vn -0.3691 -0.8929 -0.2579
vn 0.6210 -0.7655 -0.1687
vn 0.6210 -0.7655 -0.1687
vn 0.6189 -0.7604 -0.1971
vn 0.8446 -0.5354 -0.0080
vn 0.8446 -0.5354 -0.0080
vn 0.8513 -0.5246 -0.0001
vn 0.6210 -0.7655 -0.1687
vn 0.9586 0.2840 0.0230
vn 0.8951 0.4444 0.0369
vn 0.8987 0.4355 0.0522
vn 0.8987 0.4355 0.0522
vn 0.9586 0.2840 0.0230
vn 0.9586 0.2840 0.0230
vn 0.8951 0.4444 0.0369
vn 0.3998 0.8950 0.1980
vn 0.8987 0.4355 0.0522
vn 0.3998 0.8950 0.1980
vn -0.3402 0.8967 0.2833
vn 0.4816 0.8419 0.2437
vn -0.3402 0.8967 0.2833
vn -0.5528 0.8004 0.2319
vn -0.5529 0.8006 0.2311
vn -0.5529 0.8006 0.2311
vn -0.3141 0.8947 0.3174
vn -0.3402 0.8967 0.2833
vn -0.9587 -0.2834 -0.0233
vn -0.9587 -0.2834 -0.0233
vn -0.8988 -0.4352 -0.0528
vn -0.8988 -0.4352 -0.0528
vn -0.8951 -0.4444 -0.0374
vn -0.9587 -0.2834 -0.0233
vn -0.8951 -0.4444 -0.0374
vn -0.8988 -0.4352 -0.0528
vn -0.3995 -0.8949 -0.1990
vn -0.3995 -0.8949 -0.1990
vn -0.4820 -0.8413 -0.2447
vn 0.3339 -0.8981 -0.2862
vn 0.3339 -0.8981 -0.2862
vn 0.3083 -0.8958 -0.3201
vn 0.5479 -0.8032 -0.2339
vn 0.5479 -0.8032 -0.2339
vn 0.5485 -0.8026 -0.2344
vn 0.3339 -0.8981 -0.2862
vn 0.9096 0.2965 -0.2912
vn 0.8555 0.4630 -0.2319
vn 0.8645 0.4414 -0.2404
vn 0.8645 0.4414 -0.2404
vn 0.9096 0.2965 -0.2912
vn 0.9096 0.2965 -0.2912
vn 0.8555 0.4630 -0.2319
vn 0.4985 0.8665 0.0268
vn 0.5668 0.8238 0.0081
vn 0.5668 0.8238 0.0081
vn 0.8645 0.4414 -0.2404
vn 0.8555 0.4630 -0.2319
vn 0.4985 0.8665 0.0268
vn -0.0274 0.8959 0.4434
vn 0.5668 0.8238 0.0081
vn -0.2238 0.8160 0.5329
vn -0.2236 0.8159 0.5331
vn -0.0107 0.8887 0.4583
vn -0.0107 0.8887 0.4583
vn -0.0274 0.8959 0.4434
vn -0.2238 0.8160 0.5329
vn -0.9097 -0.2959 0.2915
vn -0.9097 -0.2959 0.2915
vn -0.8646 -0.4412 0.2406
vn -0.8646 -0.4412 0.2406
vn -0.8554 -0.4632 0.2319
vn -0.9097 -0.2959 0.2915
vn -0.8554 -0.4632 0.2319
vn -0.8646 -0.4412 0.2406
vn -0.5676 -0.8232 -0.0080
vn -0.5676 -0.8232 -0.0080
vn -0.4987 -0.8663 -0.0273
vn -0.8554 -0.4632 0.2319
vn -0.4987 -0.8663 -0.0273
vn -0.5676 -0.8232 -0.0080
vn 0.0210 -0.8969 -0.4417
vn 0.0043 -0.8897 -0.4565
vn 0.2185 -0.8179 -0.5323
vn 0.2185 -0.8180 -0.5320
vn 0.2185 -0.8180 -0.5320
vn 0.0210 -0.8969 -0.4417
vn 0.0043 -0.8897 -0.4565
vn 0.8621 0.1706 -0.4772
vn 0.8621 0.1706 -0.4772
vn 0.7160 0.5155 -0.4707
vn 0.7160 0.5155 -0.4707
vn 0.7065 0.5454 -0.4511
vn 0.8621 0.1706 -0.4772
vn 0.7065 0.5454 -0.4511
vn 0.7160 0.5155 -0.4707
vn -0.0127 0.9807 -0.1953
vn -0.0127 0.9807 -0.1953
vn 0.0632 0.9600 -0.2727
vn -0.4473 0.8854 0.1262
vn -0.4473 0.8854 0.1262
vn -0.4515 0.8828 0.1299
vn -0.0127 0.9807 -0.1953
vn -0.7063 -0.5447 0.4522
vn -0.7167 -0.5135 0.4719
vn -0.8620 -0.1699 0.4775
vn -0.8620 -0.1699 0.4775
vn -0.8620 -0.1699 0.4775
vn -0.7063 -0.5447 0.4522
vn -0.7063 -0.5447 0.4522
vn 0.0055 -0.9795 0.2016
vn -0.7167 -0.5135 0.4719
vn 0.0055 -0.9795 0.2016
vn 0.4469 -0.8858 -0.1253
vn 0.4424 -0.8886 -0.1212
vn 0.4424 -0.8886 -0.1212
vn -0.0696 -0.9580 0.2781
vn 0.0055 -0.9795 0.2016
vn 0.2165 0.6204 -0.7538
vn 0.2247 0.6183 -0.7532
vn 0.2166 0.6204 -0.7538
vn -0.1038 -0.4908 0.8651
vn -0.2667 -0.2533 0.9299
vn -0.1148 -0.4765 0.8716
vn 0.5336 0.6077 -0.5882
vn 0.5497 0.4628 -0.6955
vn 0.5291 0.6305 -0.5679
vn -0.0239 0.9256 -0.3778
vn -0.0703 0.8890 -0.4525
vn -0.0273 0.9232 -0.3833
vn 0.1421 -0.8743 0.4642
vn 0.0226 -0.7137 0.7001
vn 0.1231 -0.8533 0.5067
vn 0.8203 0.5270 0.2222
vn 0.9113 0.3853 0.1453
vn 0.8190 0.5287 0.2231
vn -0.7799 -0.6238 -0.0515
vn -0.7858 -0.6166 -0.0480
vn -0.7800 -0.6237 -0.0514
vn -0.6698 -0.7402 0.0596
vn -0.7899 -0.6110 -0.0518
vn -0.6829 -0.7289 0.0487
vn 0.6951 0.7180 0.0365
vn 0.8321 0.5506 -0.0672
vn 0.7064 0.7073 0.0291
vn 0.4742 0.8786 -0.0557
vn 0.6646 0.7235 -0.1868
vn 0.4732 0.8792 -0.0551
vn -0.1637 0.9009 0.4020
vn -0.0336 0.9012 0.4320
vn -0.1599 0.9011 0.4030
vn -0.2698 0.6097 0.7453
vn -0.1303 0.3601 0.9238
vn -0.2607 0.5939 0.7611
vn 0.0306 -0.6459 -0.7628
vn 0.1591 -0.5005 -0.8510
vn 0.0319 -0.6446 -0.7639
vn -0.0377 0.7201 0.6928
vn 0.0657 0.5531 0.8306
vn -0.0287 0.7072 0.7064
vn -0.8408 0.5350 -0.0821
vn -0.9188 0.3946 0.0088
vn -0.8451 0.5290 -0.0780
vn 0.8446 -0.5354 -0.0080
vn 0.9202 -0.3783 0.1003
vn 0.8513 -0.5246 -0.0001
vn 0.5479 -0.8032 -0.2339
vn 0.5548 -0.7967 -0.2399
vn 0.5485 -0.8026 -0.2344
vn 0.2185 -0.8179 -0.5323
vn 0.2185 -0.8118 -0.5415
vn 0.2185 -0.8180 -0.5320
vn -0.4473 0.8854 0.1262
vn -0.5972 0.7552 0.2703
vn -0.4515 0.8828 0.1299
vn -0.2189 -0.6233 0.7507
vn -0.2189 -0.6233 0.7507
vn -0.2244 -0.6176 0.7538
vn 0.1073 0.4867 -0.8670
vn 0.1177 0.4730 -0.8731
vn 0.2634 0.2584 -0.9294
vn -0.5335 -0.6107 0.5852
vn -0.5288 -0.6343 0.5639
vn -0.5499 -0.4588 0.6979
vn 0.0185 -0.9285 0.3710
vn 0.0225 -0.9258 0.3774
vn 0.0740 -0.8862 0.4573
vn -0.1390 0.8714 -0.4705
vn -0.1208 0.8511 -0.5109
vn -0.0244 0.7165 -0.6972
vn -0.8177 -0.5302 -0.2243
vn -0.8164 -0.5318 -0.2252
vn -0.9123 -0.3833 -0.1442
vn 0.7822 0.6206 0.0550
vn 0.7822 0.6206 0.0549
vn 0.7839 0.6193 0.0454
vn 0.6738 0.7368 -0.0558
vn 0.6860 0.7261 -0.0457
vn 0.7872 0.6148 0.0487
vn -0.6910 -0.7218 -0.0396
vn -0.7029 -0.7106 -0.0317
vn -0.8344 -0.5468 0.0694
vn -0.4677 -0.8824 0.0511
vn -0.4666 -0.8830 0.0504
vn -0.6693 -0.7181 0.1906
vn 0.1687 -0.9002 -0.4014
vn 0.1645 -0.9005 -0.4025
vn 0.0299 -0.9010 -0.4328
vn 0.2715 -0.6121 -0.7427
vn 0.2621 -0.5958 -0.7592
vn 0.1279 -0.3559 -0.9257
vn -0.0348 0.6422 0.7657
vn -0.0359 0.6410 0.7667
vn -0.1571 0.5029 0.8499
vn 0.0409 -0.7242 -0.6884
vn 0.0314 -0.7106 -0.7029
vn -0.0685 -0.5482 -0.8336
vn 0.8385 -0.5382 0.0848
vn 0.8430 -0.5319 0.0804
vn 0.9196 -0.3927 -0.0100
vn -0.8469 0.5317 0.0049
vn -0.8532 0.5215 -0.0025
vn -0.9188 0.3825 -0.0975
vn -0.5529 0.8006 0.2311
vn -0.5528 0.8004 0.2319
vn -0.5518 0.7983 0.2412
vn -0.2236 0.8159 0.5331
vn -0.2238 0.8160 0.5329
vn -0.2156 0.8131 0.5407
vn 0.4424 -0.8886 -0.1212
vn 0.4469 -0.8858 -0.1253
vn 0.5999 -0.7520 -0.2733
vn -0.8034 0.5345 0.2625
vn -0.0737 0.9679 0.2405
vn -0.0593 0.9789 0.1955
vn 0.0689 -0.9771 -0.2011
vn 0.0828 -0.9658 -0.2456
vn 0.8045 -0.5322 -0.2638
vn -0.2714 0.9624 0.0055
vn -0.3318 0.9303 0.1566
vn -0.1411 0.5487 0.8240
vn 0.1418 -0.5474 -0.8248
vn 0.3339 -0.9284 -0.1631
vn 0.2744 -0.9615 -0.0139
vn 0.2026 0.8703 0.4490
vn 0.3096 0.7704 -0.5573
vn 0.2774 0.7802 -0.5606
vn -0.2798 -0.7824 0.5564
vn -0.3121 -0.7726 0.5530
vn -0.2033 -0.8686 -0.4519
vn 0.3483 0.4156 0.8402
vn 0.3063 0.9388 0.1579
vn 0.2238 0.9716 0.0763
vn -0.2304 -0.9693 -0.0858
vn -0.3117 -0.9356 -0.1661
vn -0.3493 -0.4132 -0.8410
vn 0.3998 0.8950 0.1980
vn 0.4816 0.8419 0.2437
vn 0.8987 0.4355 0.0522
vn -0.8988 -0.4352 -0.0528
vn -0.4820 -0.8413 -0.2447
vn -0.3995 -0.8949 -0.1990
vn -0.6255 0.7626 0.1649
vn -0.6234 0.7576 0.1934
vn 0.3671 0.8940 0.2569
vn -0.3691 -0.8929 -0.2579
vn 0.6189 -0.7604 -0.1971
vn 0.6210 -0.7655 -0.1687
vn 0.4296 0.8703 -0.2409
vn -0.5820 0.7705 -0.2600
vn -0.5824 0.7804 -0.2276
vn 0.5784 -0.7826 0.2304
vn 0.5778 -0.7727 0.2628
vn -0.4324 -0.8686 0.2419
vn -0.0274 0.8959 0.4434
vn -0.0107 0.8887 0.4583
vn 0.5668 0.8238 0.0081
vn -0.5676 -0.8232 -0.0080
vn 0.0043 -0.8897 -0.4565
vn 0.0210 -0.8969 -0.4417
vn 0.1144 0.8042 0.5833
vn 0.1362 0.7949 0.5913
vn 0.3168 0.8940 -0.3169
vn -0.3181 -0.8929 0.3187
vn -0.1406 -0.7973 -0.5870
vn -0.1192 -0.8068 -0.5787
vn -0.1744 0.8832 -0.4355
vn -0.3744 0.7964 0.4749
vn -0.3425 0.8192 0.4599
vn 0.3445 -0.8213 -0.4548
vn 0.3764 -0.7983 -0.4702
vn 0.1748 -0.8814 0.4389
vn -0.3402 0.8967 0.2833
vn -0.3141 0.8947 0.3174
vn 0.4816 0.8419 0.2437
vn -0.4820 -0.8413 -0.2447
vn 0.3083 -0.8958 -0.3201
vn 0.3339 -0.8981 -0.2862
vn -0.0223 0.9206 0.3899
vn 0.4603 0.8186 -0.3435
vn 0.4350 0.8288 -0.3519
vn -0.4337 -0.8319 0.3461
vn -0.4589 -0.8217 0.3379
vn 0.0230 -0.9196 -0.3921
vn -0.1101 0.7634 -0.6365
vn -0.1388 0.7583 -0.6370
vn -0.2879 0.8940 0.3433
vn 0.2891 -0.8929 -0.3452
vn 0.1431 -0.7612 0.6325
vn 0.1145 -0.7664 0.6320
vn 0.7160 0.5155 -0.4707
vn 0.0632 0.9600 -0.2727
vn -0.0127 0.9807 -0.1953
vn 0.0055 -0.9795 0.2016
vn -0.0696 -0.9580 0.2781
vn -0.7167 -0.5135 0.4719
vn -0.8510 0.5250 0.0153
vn -0.4827 0.8205 0.3063
vn -0.4503 0.8417 0.2978
vn 0.4567 -0.8389 -0.2962
vn 0.4887 -0.8176 -0.3046
vn 0.8519 -0.5235 -0.0150
# 882 vertex normals

vt 0.1185 0.5519 0.0000
vt 0.2167 0.5519 0.0000
vt 0.2167 0.7719 0.0000
vt 0.1185 0.7719 0.0000
vt 0.2167 0.8537 0.0000
vt 0.1240 0.8547 0.0000
vt 0.1185 0.5519 0.0000
vt 0.2167 0.5519 0.0000
vt 0.2167 0.7719 0.0000
vt 0.1185 0.7719 0.0000
vt 0.2167 0.8537 0.0000
vt 0.1240 0.8547 0.0000
vt 0.0074 0.5519 0.0000
vt 0.1130 0.5519 0.0000
vt 0.1130 0.7719 0.0000
vt 0.0074 0.7719 0.0000
vt 0.1130 0.8819 0.0000
vt 0.0074 0.8789 0.0000
vt 0.0074 0.5519 0.0000
vt 0.1130 0.5519 0.0000
vt 0.1130 0.7719 0.0000
vt 0.0074 0.7719 0.0000
vt 0.1130 0.8819 0.0000
vt 0.0074 0.8789 0.0000
vt 0.0074 0.5519 0.0000
vt 0.1130 0.5519 0.0000
vt 0.1130 0.7719 0.0000
vt 0.0074 0.7719 0.0000
vt 0.1130 0.8819 0.0000
vt 0.0074 0.8789 0.0000
vt 0.0074 0.5519 0.0000
vt 0.1130 0.5519 0.0000
vt 0.1130 0.7719 0.0000
vt 0.0074 0.7719 0.0000
vt 0.1130 0.8819 0.0000
vt 0.0074 0.8789 0.0000
vt 0.0074 0.5519 0.0000
vt 0.1130 0.5519 0.0000
vt 0.1130 0.7719 0.0000
vt 0.0074 0.7719 0.0000
vt 0.1130 0.8819 0.0000
vt 0.0074 0.8789 0.0000
vt 0.0074 0.5519 0.0000
vt 0.1130 0.5519 0.0000
vt 0.1130 0.7719 0.0000
vt 0.0074 0.7719 0.0000
vt 0.1130 0.8819 0.0000
vt 0.0074 0.8789 0.0000
vt 0.1185 0.5519 0.0000
vt 0.2167 0.5519 0.0000
vt 0.2167 0.6619 0.0000
vt 0.1185 0.6619 0.0000
vt 0.2167 0.7719 0.0000
vt 0.1185 0.7719 0.0000
vt 0.2167 0.8537 0.0000
vt 0.1240 0.8547 0.0000
vt 0.1185 0.5519 0.0000
vt 0.2167 0.5519 0.0000
vt 0.2167 0.6619 0.0000
vt 0.1185 0.6619 0.0000
vt 0.2167 0.7719 0.0000
vt 0.1185 0.7719 0.0000
vt 0.2167 0.8537 0.0000
vt 0.1240 0.8547 0.0000
vt 0.1185 0.5519 0.0000
vt 0.2167 0.5519 0.0000
vt 0.2167 0.7719 0.0000
vt 0.1185 0.7719 0.0000
vt 0.2167 0.8537 0.0000
vt 0.1240 0.8547 0.0000
vt 0.1185 0.5519 0.0000
vt 0.2167 0.5519 0.0000
vt 0.2167 0.7719 0.0000
vt 0.1185 0.7719 0.0000
vt 0.2167 0.8537 0.0000
vt 0.1240 0.8547 0.0000
vt 0.0074 0.5519 0.0000
vt 0.1130 0.5519 0.0000
vt 0.1130 0.7719 0.0000
vt 0.0074 0.7719 0.0000
vt 0.1130 0.8819 0.0000
vt 0.0074 0.8789 0.0000
vt 0.0074 0.5519 0.0000
vt 0.1130 0.5519 0.0000
vt 0.1130 0.7719 0.0000
vt 0.0074 0.7719 0.0000
vt 0.1130 0.8819 0.0000
vt 0.0074 0.8789 0.0000
vt 0.0074 0.5519 0.0000
vt 0.1130 0.5519 0.0000
vt 0.1130 0.6619 0.0000
vt 0.0074 0.6619 0.0000
vt 0.1130 0.7719 0.0000
vt 0.0074 0.7719 0.0000
vt 0.1130 0.8819 0.0000
vt 0.0074 0.8789 0.0000
vt 0.0074 0.5519 0.0000
vt 0.1130 0.5519 0.0000
vt 0.1130 0.6619 0.0000
vt 0.0074 0.6619 0.0000
vt 0.1130 0.7719 0.0000
vt 0.0074 0.7719 0.0000
vt 0.1130 0.8819 0.0000
vt 0.0074 0.8789 0.0000
vt 0.0074 0.5519 0.0000
vt 0.1130 0.5519 0.0000
vt 0.1130 0.6619 0.0000
vt 0.0074 0.6619 0.0000
vt 0.1130 0.7719 0.0000
vt 0.0074 0.7719 0.0000
vt 0.1130 0.8819 0.0000
vt 0.0074 0.8789 0.0000
vt 0.0074 0.5519 0.0000
vt 0.1130 0.5519 0.0000
vt 0.1130 0.6619 0.0000
vt 0.0074 0.6619 0.0000
vt 0.1130 0.7719 0.0000
vt 0.0074 0.7719 0.0000
vt 0.1130 0.8819 0.0000
vt 0.0074 0.8789 0.0000
vt 0.0074 0.5519 0.0000
vt 0.1130 0.5519 0.0000
vt 0.1130 0.6619 0.0000
vt 0.0074 0.6619 0.0000
vt 0.1130 0.7719 0.0000
vt 0.0074 0.7719 0.0000
vt 0.1130 0.8819 0.0000
vt 0.0074 0.8789 0.0000
vt 0.0074 0.5519 0.0000
vt 0.1130 0.5519 0.0000
vt 0.1130 0.6619 0.0000
vt 0.0074 0.6619 0.0000
vt 0.1130 0.7719 0.0000
vt 0.0074 0.7719 0.0000
vt 0.1130 0.8819 0.0000
vt 0.0074 0.8789 0.0000
vt 0.1185 0.5519 0.0000
vt 0.2167 0.5519 0.0000
vt 0.2167 0.6619 0.0000
vt 0.1185 0.6619 0.0000
vt 0.2167 0.7719 0.0000
vt 0.1185 0.7719 0.0000
vt 0.2167 0.8537 0.0000
vt 0.1240 0.8547 0.0000
vt 0.1185 0.5519 0.0000
vt 0.2167 0.5519 0.0000
vt 0.2167 0.6619 0.0000
vt 0.1185 0.6619 0.0000
vt 0.2167 0.7719 0.0000
vt 0.1185 0.7719 0.0000
vt 0.2167 0.8537 0.0000
vt 0.1240 0.8547 0.0000
vt 0.1185 0.5519 0.0000
vt 0.2167 0.5519 0.0000
vt 0.2167 0.7719 0.0000
vt 0.1185 0.7719 0.0000
vt 0.2167 0.8537 0.0000
vt 0.1240 0.8547 0.0000
vt 0.1185 0.5519 0.0000
vt 0.2167 0.5519 0.0000
vt 0.2167 0.7719 0.0000
vt 0.1185 0.7719 0.0000
vt 0.2167 0.8537 0.0000
vt 0.1240 0.8547 0.0000
vt 0.0074 0.5519 0.0000
vt 0.1130 0.5519 0.0000
vt 0.1130 0.7719 0.0000
vt 0.0074 0.7719 0.0000
vt 0.1130 0.8819 0.0000
vt 0.0074 0.8789 0.0000
vt 0.0074 0.5519 0.0000
vt 0.1130 0.5519 0.0000
vt 0.1130 0.7719 0.0000
vt 0.0074 0.7719 0.0000
vt 0.1130 0.8819 0.0000
vt 0.0074 0.8789 0.0000
vt 0.0074 0.5519 0.0000
vt 0.1130 0.5519 0.0000
vt 0.1130 0.7719 0.0000
vt 0.0074 0.7719 0.0000
vt 0.1130 0.8819 0.0000
vt 0.0074 0.8789 0.0000
vt 0.0074 0.5519 0.0000
vt 0.1130 0.5519 0.0000
vt 0.1130 0.7719 0.0000
vt 0.0074 0.7719 0.0000
vt 0.1130 0.8819 0.0000
vt 0.0074 0.8789 0.0000
vt 0.1185 0.5519 0.0000
vt 0.2167 0.5519 0.0000
vt 0.2167 0.7719 0.0000
vt 0.1185 0.7719 0.0000
vt 0.2167 0.8537 0.0000
vt 0.1240 0.8547 0.0000
vt 0.1185 0.5519 0.0000
vt 0.2167 0.5519 0.0000
vt 0.2167 0.7719 0.0000
vt 0.1185 0.7719 0.0000
vt 0.2167 0.8537 0.0000
vt 0.1240 0.8547 0.0000
vt 0.0074 0.5519 0.0000
vt 0.1130 0.5519 0.0000
vt 0.1130 0.7719 0.0000
vt 0.0074 0.7719 0.0000
vt 0.1130 0.8819 0.0000
vt 0.0074 0.8789 0.0000
vt 0.0074 0.5519 0.0000
vt 0.1130 0.5519 0.0000
vt 0.1130 0.7719 0.0000
vt 0.0074 0.7719 0.0000
vt 0.1130 0.8819 0.0000
vt 0.0074 0.8789 0.0000
vt 0.0074 0.5519 0.0000
vt 0.1130 0.5519 0.0000
vt 0.1130 0.6619 0.0000
vt 0.0074 0.6619 0.0000
vt 0.1130 0.7719 0.0000
vt 0.0074 0.7719 0.0000
vt 0.1130 0.8819 0.0000
vt 0.0074 0.8789 0.0000
vt 0.0074 0.5519 0.0000
vt 0.1130 0.5519 0.0000
vt 0.1130 0.6619 0.0000
vt 0.0074 0.6619 0.0000
vt 0.1130 0.7719 0.0000
vt 0.0074 0.7719 0.0000
vt 0.1130 0.8819 0.0000
vt 0.0074 0.8789 0.0000
vt 0.0074 0.5519 0.0000
vt 0.1130 0.5519 0.0000
vt 0.1130 0.7719 0.0000
vt 0.0074 0.7719 0.0000
vt 0.1130 0.8819 0.0000
vt 0.0074 0.8789 0.0000
vt 0.0074 0.5519 0.0000
vt 0.1130 0.5519 0.0000
vt 0.1130 0.7719 0.0000
vt 0.0074 0.7719 0.0000
vt 0.1130 0.8819 0.0000
vt 0.0074 0.8789 0.0000
vt 0.1185 0.5519 0.0000
vt 0.2167 0.5519 0.0000
vt 0.2167 0.6619 0.0000
vt 0.1185 0.6619 0.0000
vt 0.2167 0.7719 0.0000
vt 0.1185 0.7719 0.0000
vt 0.2167 0.8537 0.0000
vt 0.1240 0.8547 0.0000
vt 0.1185 0.5519 0.0000
vt 0.2167 0.5519 0.0000
vt 0.2167 0.6619 0.0000
vt 0.1185 0.6619 0.0000
vt 0.2167 0.7719 0.0000
vt 0.1185 0.7719 0.0000
vt 0.2167 0.8537 0.0000
vt 0.1240 0.8547 0.0000
vt 0.1995 0.9340 0.0000
vt 0.1352 0.9135 0.0000
vt 0.1995 0.9340 0.0000
vt 0.1352 0.9135 0.0000
vt 0.0982 0.9364 0.0000
vt 0.0301 0.9364 0.0000
vt 0.0982 0.9364 0.0000
vt 0.0301 0.9364 0.0000
vt 0.0982 0.9364 0.0000
vt 0.0301 0.9364 0.0000
vt 0.0982 0.9364 0.0000
vt 0.0301 0.9364 0.0000
vt 0.0982 0.9364 0.0000
vt 0.0301 0.9364 0.0000
vt 0.0982 0.9364 0.0000
vt 0.0301 0.9364 0.0000
vt 0.1995 0.9340 0.0000
vt 0.1352 0.9135 0.0000
vt 0.1995 0.9340 0.0000
vt 0.1352 0.9135 0.0000
vt 0.1995 0.9340 0.0000
vt 0.1352 0.9135 0.0000
vt 0.1995 0.9340 0.0000
vt 0.1352 0.9135 0.0000
vt 0.0982 0.9364 0.0000
vt 0.0301 0.9364 0.0000
vt 0.0982 0.9364 0.0000
vt 0.0301 0.9364 0.0000
vt 0.0982 0.9364 0.0000
vt 0.0301 0.9364 0.0000
vt 0.0982 0.9364 0.0000
vt 0.0301 0.9364 0.0000
vt 0.0982 0.9364 0.0000
vt 0.0301 0.9364 0.0000
vt 0.0982 0.9364 0.0000
vt 0.0301 0.9364 0.0000
vt 0.0982 0.9364 0.0000
vt 0.0301 0.9364 0.0000
vt 0.0982 0.9364 0.0000
vt 0.0301 0.9364 0.0000
vt 0.1995 0.9340 0.0000
vt 0.1352 0.9135 0.0000
vt 0.1995 0.9340 0.0000
vt 0.1352 0.9135 0.0000
vt 0.1995 0.9340 0.0000
vt 0.1352 0.9135 0.0000
vt 0.1995 0.9340 0.0000
vt 0.1352 0.9135 0.0000
vt 0.0982 0.9364 0.0000
vt 0.0301 0.9364 0.0000
vt 0.0982 0.9364 0.0000
vt 0.0301 0.9364 0.0000
vt 0.0982 0.9364 0.0000
vt 0.0301 0.9364 0.0000
vt 0.0982 0.9364 0.0000
vt 0.0301 0.9364 0.0000
vt 0.1995 0.9340 0.0000
vt 0.1352 0.9135 0.0000
vt 0.1995 0.9340 0.0000
vt 0.1352 0.9135 0.0000
vt 0.0982 0.9364 0.0000
vt 0.0301 0.9364 0.0000
vt 0.0982 0.9364 0.0000
vt 0.0301 0.9364 0.0000
vt 0.0982 0.9364 0.0000
vt 0.0301 0.9364 0.0000
vt 0.0982 0.9364 0.0000
vt 0.0301 0.9364 0.0000
vt 0.1995 0.9340 0.0000
vt 0.1352 0.9135 0.0000
vt 0.1995 0.9340 0.0000
vt 0.1352 0.9135 0.0000
vt 0.0982 0.9364 0.0000
vt 0.0301 0.9364 0.0000
vt 0.0982 0.9364 0.0000
vt 0.0301 0.9364 0.0000
vt 0.1652 0.9909 0.0000
vt 0.1652 0.9909 0.0000
vt 0.0563 0.9909 0.0000
vt 0.0563 0.9909 0.0000
vt 0.0563 0.9909 0.0000
vt 0.0563 0.9909 0.0000
vt 0.0563 0.9909 0.0000
vt 0.0563 0.9909 0.0000
vt 0.1652 0.9909 0.0000
vt 0.1652 0.9909 0.0000
vt 0.1652 0.9909 0.0000
vt 0.1652 0.9909 0.0000
vt 0.0563 0.9909 0.0000
vt 0.0563 0.9909 0.0000
vt 0.0563 0.9909 0.0000
vt 0.0563 0.9909 0.0000
vt 0.0563 0.9909 0.0000
vt 0.0563 0.9909 0.0000
vt 0.0563 0.9909 0.0000
vt 0.0563 0.9909 0.0000
vt 0.1652 0.9909 0.0000
vt 0.1652 0.9909 0.0000
vt 0.1652 0.9909 0.0000
vt 0.1652 0.9909 0.0000
vt 0.0563 0.9909 0.0000
vt 0.0563 0.9909 0.0000
vt 0.0563 0.9909 0.0000
vt 0.0563 0.9909 0.0000
vt 0.1652 0.9909 0.0000
vt 0.1652 0.9909 0.0000
vt 0.0563 0.9909 0.0000
vt 0.0563 0.9909 0.0000
vt 0.0563 0.9909 0.0000
vt 0.0563 0.9909 0.0000
vt 0.1652 0.9909 0.0000
vt 0.1652 0.9909 0.0000
vt 0.0563 0.9909 0.0000
vt 0.0563 0.9909 0.0000
# 370 texture coords

o FlaxStage03
g FlaxStage03
s 1
f 1/1/1 2/2/2 3/3/3 
f 3/3/4 4/4/5 1/1/6 
f 4/4/7 3/3/8 6/6/9 
f 6/6/10 5/5/11 257/257/12 
f 257/257/13 258/258/14 6/6/15 
f 10/10/16 9/9/17 8/8/18 
f 8/8/19 7/7/20 10/10/21 
f 10/10/22 12/12/23 9/9/24 
f 12/12/25 260/260/26 259/259/27 
f 259/259/28 11/11/29 12/12/30 
f 16/16/31 15/15/32 14/14/33 
f 14/14/34 13/13/35 16/16/36 
f 16/16/37 18/18/38 15/15/39 
f 18/18/40 262/262/41 261/261/42 
f 261/261/43 17/17/44 18/18/45 
f 19/19/46 20/20/47 21/21/48 
f 21/21/49 22/22/50 19/19/51 
f 22/22/52 21/21/53 24/24/54 
f 24/24/55 23/23/56 263/263/57 
f 263/263/58 264/264/59 24/24/60 
f 25/25/61 26/26/62 27/27/63 
f 27/27/64 28/28/65 25/25/66 
f 28/28/67 27/27/68 30/30/69 
f 29/29/70 265/265/71 266/266/72 
f 266/266/73 30/30/74 29/29/75 
f 34/34/76 33/33/77 32/32/78 
f 32/32/79 31/31/80 34/34/81 
f 34/34/82 36/36/83 33/33/84 
f 268/268/85 267/267/86 35/35/87 
f 35/35/88 36/36/89 268/268/90 
f 37/37/91 38/38/92 39/39/93 
f 39/39/94 40/40/95 37/37/96 
f 40/40/97 39/39/98 42/42/99 
f 42/42/100 41/41/101 269/269/102 
f 269/269/103 270/270/104 42/42/105 
f 46/46/106 45/45/107 44/44/108 
f 44/44/109 43/43/110 46/46/111 
f 46/46/112 48/48/113 45/45/114 
f 48/48/115 272/272/116 271/271/117 
f 271/271/118 47/47/119 48/48/120 
f 49/49/121 52/52/122 51/51/123 
f 51/51/124 50/50/125 49/49/126 
f 52/52/127 54/54/128 53/53/129 
f 53/53/130 51/51/131 52/52/132 
f 54/54/133 56/56/134 53/53/135 
f 56/56/136 274/274/137 273/273/138 
f 273/273/139 55/55/140 56/56/141 
f 57/57/142 58/58/143 59/59/144 
f 59/59/145 60/60/146 57/57/147 
f 60/60/148 59/59/149 61/61/150 
f 61/61/151 62/62/152 60/60/153 
f 62/62/154 61/61/155 64/64/156 
f 64/64/157 63/63/158 275/275/159 
f 275/275/160 276/276/161 64/64/162 
f 65/65/163 66/66/164 67/67/165 
f 67/67/166 68/68/167 65/65/168 
f 68/68/169 67/67/170 69/69/171 
f 69/69/172 70/70/173 68/68/174 
f 70/70/175 69/69/176 277/277/177 
f 277/277/178 278/278/179 70/70/180 
f 74/74/181 73/73/182 72/72/183 
f 72/72/184 71/71/185 74/74/186 
f 74/74/187 76/76/188 75/75/189 
f 75/75/190 73/73/191 74/74/192 
f 76/76/193 280/280/194 279/279/195 
f 279/279/196 75/75/197 76/76/198 
f 80/80/199 79/79/200 78/78/201 
f 78/78/202 77/77/203 80/80/204 
f 80/80/205 82/82/206 81/81/207 
f 81/81/208 79/79/209 80/80/210 
f 82/82/211 282/282/212 281/281/213 
f 281/281/214 81/81/215 82/82/216 
f 83/83/217 84/84/218 85/85/219 
f 85/85/220 86/86/221 83/83/222 
f 86/86/223 85/85/224 87/87/225 
f 87/87/226 88/88/227 86/86/228 
f 88/88/229 87/87/230 283/283/231 
f 283/283/232 284/284/233 88/88/234 
f 89/89/235 92/92/236 91/91/237 
f 91/91/238 90/90/239 89/89/240 
f 92/92/241 94/94/242 93/93/243 
f 93/93/244 91/91/245 92/92/246 
f 94/94/247 96/96/248 95/95/249 
f 95/95/250 93/93/251 94/94/252 
f 96/96/253 286/286/254 285/285/255 
f 285/285/256 95/95/257 96/96/258 
f 97/97/259 98/98/260 99/99/261 
f 99/99/262 100/100/263 97/97/264 
f 100/100/265 99/99/266 101/101/267 
f 101/101/268 102/102/269 100/100/270 
f 102/102/271 101/101/272 103/103/273 
f 103/103/274 104/104/275 102/102/276 
f 104/104/277 103/103/278 287/287/279 
f 287/287/280 288/288/281 104/104/282 
f 105/105/283 106/106/284 107/107/285 
f 107/107/286 108/108/287 105/105/288 
f 108/108/289 107/107/290 109/109/291 
f 109/109/292 110/110/293 108/108/294 
f 110/110/295 109/109/296 111/111/297 
f 111/111/298 112/112/299 110/110/300 
f 112/112/301 111/111/302 289/289/303 
f 289/289/304 290/290/305 112/112/306 
f 113/113/307 116/116/308 115/115/309 
f 115/115/310 114/114/311 113/113/312 
f 116/116/313 118/118/314 117/117/315 
f 117/117/316 115/115/317 116/116/318 
f 118/118/319 120/120/320 119/119/321 
f 119/119/322 117/117/323 118/118/324 
f 120/120/325 292/292/326 291/291/327 
f 291/291/328 119/119/329 120/120/330 
f 121/121/331 122/122/332 123/123/333 
f 123/123/334 124/124/335 121/121/336 
f 124/124/337 123/123/338 125/125/339 
f 125/125/340 126/126/341 124/124/342 
f 126/126/343 125/125/344 128/128/345 
f 128/128/346 127/127/347 293/293/348 
f 293/293/349 294/294/350 128/128/351 
f 129/129/352 132/132/353 131/131/354 
f 131/131/355 130/130/356 129/129/357 
f 132/132/358 134/134/359 133/133/360 
f 133/133/361 131/131/362 132/132/363 
f 134/134/364 136/136/365 133/133/366 
f 136/136/367 296/296/368 295/295/369 
f 295/295/370 135/135/371 136/136/372 
f 137/137/373 138/138/374 139/139/375 
f 139/139/376 140/140/377 137/137/378 
f 140/140/379 139/139/380 141/141/381 
f 141/141/382 142/142/383 140/140/384 
f 142/142/385 141/141/386 144/144/387 
f 143/143/388 297/297/389 298/298/390 
f 298/298/391 144/144/392 143/143/393 
f 145/145/394 148/148/395 147/147/396 
f 147/147/397 146/146/398 145/145/399 
f 148/148/400 150/150/401 149/149/402 
f 149/149/403 147/147/404 148/148/405 
f 150/150/406 152/152/407 149/149/408 
f 300/300/409 299/299/410 151/151/411 
f 151/151/412 152/152/413 300/300/414 
f 153/153/415 154/154/416 155/155/417 
f 155/155/418 156/156/419 153/153/420 
f 156/156/421 155/155/422 158/158/423 
f 158/158/424 157/157/425 301/301/426 
f 301/301/427 302/302/428 158/158/429 
f 162/162/430 161/161/431 160/160/432 
f 160/160/433 159/159/434 162/162/435 
f 162/162/436 164/164/437 161/161/438 
f 164/164/439 304/304/440 303/303/441 
f 303/303/442 163/163/443 164/164/444 
f 168/168/445 167/167/446 166/166/447 
f 166/166/448 165/165/449 168/168/450 
f 168/168/451 170/170/452 167/167/453 
f 170/170/454 306/306/455 305/305/456 
f 305/305/457 169/169/458 170/170/459 
f 171/171/460 172/172/461 173/173/462 
f 173/173/463 174/174/464 171/171/465 
f 174/174/466 173/173/467 176/176/468 
f 176/176/469 175/175/470 307/307/471 
f 307/307/472 308/308/473 176/176/474 
f 177/177/475 178/178/476 179/179/477 
f 179/179/478 180/180/479 177/177/480 
f 180/180/481 179/179/482 181/181/483 
f 181/181/484 182/182/485 180/180/486 
f 182/182/487 181/181/488 309/309/489 
f 309/309/490 310/310/491 182/182/492 
f 186/186/493 185/185/494 184/184/495 
f 184/184/496 183/183/497 186/186/498 
f 186/186/499 188/188/500 187/187/501 
f 187/187/502 185/185/503 186/186/504 
f 188/188/505 312/312/506 311/311/507 
f 311/311/508 187/187/509 188/188/510 
f 189/189/511 190/190/512 191/191/513 
f 191/191/514 192/192/515 189/189/516 
f 192/192/517 191/191/518 194/194/519 
f 194/194/520 193/193/521 313/313/522 
f 313/313/523 314/314/524 194/194/525 
f 198/198/526 197/197/527 196/196/528 
f 196/196/529 195/195/530 198/198/531 
f 198/198/532 200/200/533 197/197/534 
f 200/200/535 316/316/536 315/315/537 
f 315/315/538 199/199/539 200/200/540 
f 204/204/541 203/203/542 202/202/543 
f 202/202/544 201/201/545 204/204/546 
f 204/204/547 206/206/548 203/203/549 
f 206/206/550 318/318/551 317/317/552 
f 317/317/553 205/205/554 206/206/555 
f 207/207/556 208/208/557 209/209/558 
f 209/209/559 210/210/560 207/207/561 
f 210/210/562 209/209/563 212/212/564 
f 212/212/565 211/211/566 319/319/567 
f 319/319/568 320/320/569 212/212/570 
f 213/213/571 216/216/572 215/215/573 
f 215/215/574 214/214/575 213/213/576 
f 216/216/577 218/218/578 215/215/579 
f 218/218/580 220/220/581 217/217/582 
f 220/220/583 322/322/584 321/321/585 
f 321/321/586 219/219/587 220/220/588 
f 221/221/589 222/222/590 223/223/591 
f 223/223/592 224/224/593 221/221/594 
f 224/224/595 223/223/596 226/226/597 
f 226/226/598 225/225/599 228/228/600 
f 228/228/601 227/227/602 323/323/603 
f 323/323/604 324/324/605 228/228/606 
f 229/241/607 232/244/608 231/243/609 
f 231/243/610 230/242/611 229/241/612 
f 232/244/613 234/246/614 233/245/615 
f 233/245/616 231/243/617 232/244/618 
f 234/246/619 236/248/620 233/245/621 
f 326/326/622 325/325/623 235/247/624 
f 235/247/625 236/248/626 326/326/627 
f 237/249/628 238/250/629 239/251/630 
f 239/251/631 240/252/632 237/249/633 
f 240/252/634 239/251/635 241/253/636 
f 241/253/637 242/254/638 240/252/639 
f 242/254/640 241/253/641 244/256/642 
f 243/255/643 327/327/644 328/328/645 
f 328/328/646 244/256/647 243/255/648 
f 245/229/649 246/230/650 247/231/651 
f 247/231/652 248/232/653 245/229/654 
f 248/232/655 247/231/656 250/234/657 
f 250/234/658 249/233/659 329/329/660 
f 329/329/661 330/330/662 250/234/663 
f 254/238/664 253/237/665 252/236/666 
f 252/236/667 251/235/668 254/238/669 
f 254/238/670 256/240/671 253/237/672 
f 256/240/673 332/332/674 331/331/675 
f 331/331/676 255/239/677 256/240/678 
f 257/257/679 333/333/680 258/258/681 
f 263/263/682 336/336/683 264/264/684 
f 265/265/685 337/337/686 266/266/687 
f 269/269/688 339/339/689 270/270/690 
f 275/275/691 342/342/692 276/276/693 
f 277/277/694 343/343/695 278/278/696 
f 283/283/697 346/346/698 284/284/699 
f 287/287/700 348/348/701 288/288/702 
f 289/289/703 349/349/704 290/290/705 
f 293/293/706 351/351/707 294/294/708 
f 297/297/709 353/353/710 298/298/711 
f 301/301/712 355/355/713 302/302/714 
f 307/307/715 358/358/716 308/308/717 
f 309/309/718 359/359/719 310/310/720 
f 313/313/721 361/361/722 314/314/723 
f 319/319/724 364/364/725 320/320/726 
f 323/323/727 366/366/728 324/324/729 
f 327/327/730 368/368/731 328/328/732 
f 329/329/733 369/369/734 330/330/735 
f 259/259/736 260/260/737 334/334/738 
f 261/261/739 262/262/740 335/335/741 
f 267/267/742 268/268/743 338/338/744 
f 271/271/745 272/272/746 340/340/747 
f 273/273/748 274/274/749 341/341/750 
f 279/279/751 280/280/752 344/344/753 
f 281/281/754 282/282/755 345/345/756 
f 285/285/757 286/286/758 347/347/759 
f 291/291/760 292/292/761 350/350/762 
f 295/295/763 296/296/764 352/352/765 
f 299/299/766 300/300/767 354/354/768 
f 303/303/769 304/304/770 356/356/771 
f 305/305/772 306/306/773 357/357/774 
f 311/311/775 312/312/776 360/360/777 
f 315/315/778 316/316/779 362/362/780 
f 317/317/781 318/318/782 363/363/783 
f 321/321/784 322/322/785 365/365/786 
f 325/325/787 326/326/788 367/367/789 
f 331/331/790 332/332/791 370/370/792 
f 125/125/793 127/127/794 128/128/795 
f 136/136/796 135/135/797 133/133/798 
f 56/56/799 55/55/800 53/53/801 
f 61/61/802 63/63/803 64/64/804 
f 3/3/805 5/5/806 6/6/807 
f 12/12/808 11/11/809 9/9/810 
f 39/39/811 41/41/812 42/42/813 
f 48/48/814 47/47/815 45/45/816 
f 218/218/817 217/217/818 215/215/819 
f 223/223/820 225/225/821 226/226/822 
f 206/206/823 205/205/824 203/203/825 
f 209/209/826 211/211/827 212/212/828 
f 191/191/829 193/193/830 194/194/831 
f 200/200/832 199/199/833 197/197/834 
f 236/248/835 235/247/836 233/245/837 
f 241/253/838 243/255/839 244/256/840 
f 170/170/841 169/169/842 167/167/843 
f 173/173/844 175/175/845 176/176/846 
f 155/155/847 157/157/848 158/158/849 
f 164/164/850 163/163/851 161/161/852 
f 220/220/853 219/219/854 217/217/855 
f 225/225/856 227/227/857 228/228/858 
f 27/27/859 29/29/860 30/30/861 
f 36/36/862 35/35/863 33/33/864 
f 18/18/865 17/17/866 15/15/867 
f 21/21/868 23/23/869 24/24/870 
f 247/231/871 249/233/872 250/234/873 
f 256/240/874 255/239/875 253/237/876 
f 141/141/877 143/143/878 144/144/879 
f 152/152/880 151/151/881 149/149/882 
# 294 faces

