# 3ds Max Wavefront OBJ Exporter v0.99 - (c)2007 guruware
# File Created: 19.11.2024 10:17:51

#
# object GorseStage03
#

v  -0.4323 -12.6600 0.0359
v  0.4323 -12.6600 0.0359
v  1.8184 34.5847 -1.8413
v  2.6829 34.5830 -1.8284
v  1.8194 34.5660 -1.9107
v  -0.4323 -12.6600 -0.0359
v  0.4323 -12.6600 -0.0359
v  2.6839 34.5643 -1.8977
v  0.8460 10.5663 0.1843
v  -0.0055 10.7159 0.1973
v  -0.0076 10.7098 0.1258
v  0.8438 10.5602 0.1127
v  0.4323 -1.0534 0.0359
v  1.7985 23.0084 -2.0333
v  -0.4323 -1.0534 -0.0359
v  2.6641 23.0191 -2.0910
v  2.6630 23.0067 -2.0203
v  -0.4323 -1.0534 0.0359
v  1.7996 23.0208 -2.1040
v  0.4323 -1.0534 -0.0359
v  0.0359 -12.6600 0.4323
v  0.0359 -12.6600 -0.4323
v  2.2810 34.6869 -1.4516
v  2.2931 34.4620 -2.2864
v  2.2092 34.6871 -1.4527
v  -0.0359 -12.6600 0.4323
v  -0.0359 -12.6600 -0.4323
v  2.2213 34.4622 -2.2874
v  0.4415 10.5953 -0.2761
v  0.4676 10.6684 0.5850
v  0.3969 10.6808 0.5861
v  0.3708 10.6077 -0.2750
v  0.0359 -1.0534 -0.4323
v  2.2607 22.9392 -1.6358
v  -0.0359 -1.0534 0.4323
v  2.2019 23.0883 -2.4884
v  2.2737 23.0882 -2.4874
v  0.0359 -1.0534 0.4323
v  2.1888 22.9393 -1.6369
v  -0.0359 -1.0534 -0.4323
v  0.3296 25.4204 -3.2525
v  4.0770 20.7716 -0.7767
v  10.3264 39.4689 7.9952
v  14.0737 34.8201 10.4711
v  0.3859 25.4316 -3.3165
v  4.1332 20.7828 -0.8407
v  14.1299 34.8313 10.4070
v  10.3826 39.4801 7.9312
v  -1.3848 1.0829 2.0525
v  1.4554 -3.0721 -2.0037
v  6.2053 16.8532 -8.7871
v  9.0454 12.6982 -12.8433
v  -1.4552 1.0829 2.0033
v  1.3850 -3.0721 -2.0530
v  8.9750 12.6982 -12.8926
v  6.1349 16.8532 -8.8364
v  -1.5703 -2.7441 2.3176
v  1.6405 0.4879 -2.2680
v  -7.4743 15.0844 10.7494
v  -4.2634 18.3164 6.1638
v  -1.6408 -2.7441 2.2683
v  1.5701 0.4879 -2.3173
v  -4.3338 18.3164 6.1145
v  -7.5447 15.0844 10.7001
v  -1.6899 12.9496 0.0659
v  2.4760 8.0158 0.3585
v  14.0387 26.1356 -1.5294
v  18.2046 21.2018 -1.2368
v  -1.6925 12.9423 -0.0197
v  2.4734 8.0085 0.2729
v  18.2020 21.1945 -1.3224
v  14.0361 26.1284 -1.6150
v  -2.5704 9.4476 0.8771
v  3.3821 11.5832 -0.4604
v  -9.4506 28.8472 1.2336
v  -3.4980 30.9828 -0.1039
v  -2.5877 9.4430 0.7930
v  3.3649 11.5787 -0.5444
v  -3.5152 30.9783 -0.1879
v  -9.4678 28.8426 1.1496
v  -0.0118 24.9654 -0.6533
v  4.5099 21.2244 -3.3631
v  12.0542 41.4398 -3.2635
v  16.5758 37.6987 -5.9733
v  -0.0469 24.9789 -0.7306
v  4.4747 21.2379 -3.4404
v  16.5407 37.7122 -6.0505
v  12.0190 41.4533 -3.3407
v  -0.3048 21.4524 -1.1336
v  4.8018 25.0338 -2.8306
v  -9.7100 38.2828 6.0833
v  -4.6034 41.8642 4.3864
v  -0.3399 21.4659 -1.2109
v  4.7667 25.0473 -2.9078
v  -4.6385 41.8777 4.3091
v  -9.7452 38.2963 6.0061
v  -2.3410 1.0829 -0.8063
v  2.3121 -3.0721 0.8873
v  10.0937 16.8532 3.7195
v  14.7468 12.6982 5.4131
v  -2.3116 1.0829 -0.8871
v  2.3415 -3.0721 0.8065
v  14.7762 12.6982 5.3324
v  10.1231 16.8532 3.6388
v  -2.5551 -2.7441 -1.1440
v  2.5184 0.4879 1.2218
v  -11.8840 15.0843 -5.4942
v  -6.8105 18.3163 -3.1284
v  -2.5188 -2.7441 -1.2219
v  2.5547 0.4879 1.1439
v  -6.7741 18.3163 -3.2062
v  -11.8476 15.0843 -5.5721
v  0.0031 12.4346 -2.3746
v  0.6989 8.5399 2.7372
v  6.4583 28.3977 8.9088
v  7.1541 24.5030 14.0207
v  0.0842 12.4183 -2.3980
v  0.7800 8.5237 2.7138
v  7.2352 24.4868 13.9973
v  6.5393 28.3814 8.8854
v  -0.7145 8.8322 -2.3610
v  1.4281 12.2102 2.7166
v  -0.5891 25.9476 -13.8002
v  1.5535 29.3255 -8.7226
v  -0.6334 8.8160 -2.3844
v  1.5092 12.1939 2.6932
v  1.6346 29.3093 -8.7460
v  -0.5080 25.9313 -13.8236
v  -0.1926 21.8976 -3.6779
v  4.6104 24.5894 -0.2913
v  -9.0395 40.3637 -5.8083
v  -4.2365 43.0555 -2.4217
v  -0.1485 21.9104 -3.7506
v  4.6545 24.6021 -0.3639
v  -4.1924 43.0683 -2.4943
v  -8.9954 40.3765 -5.8810
v  -0.9672 36.8409 -2.5064
v  5.4961 36.8281 -2.4093
v  -0.8477 56.7188 -7.8600
v  5.6156 56.7060 -7.7629
v  -0.9667 36.8307 -2.5443
v  5.4966 36.8179 -2.4472
v  5.6161 56.6958 -7.8008
v  -0.8471 56.7085 -7.8979
v  0.4434 34.8136 0.9277
v  4.3997 31.4609 -2.9312
v  5.1566 52.0808 -9.2426
v  9.1128 48.7281 -13.1015
v  0.4137 34.8071 0.9029
v  4.3699 31.4544 -2.9560
v  9.0831 48.7216 -13.1263
v  5.1268 52.0743 -9.2674
v  3.0397 33.9144 2.5086
v  1.4606 33.9093 -3.7596
v  3.0806 54.5009 2.4816
v  1.5015 54.4958 -3.7865
v  3.0016 33.9145 2.5182
v  1.4225 33.9094 -3.7500
v  1.4634 54.4959 -3.7770
v  3.0425 54.5010 2.4912
v  5.3416 33.4490 1.9860
v  -0.1029 32.3119 -2.2367
v  -0.9301 53.8689 -2.6866
v  -6.4004 51.6655 -5.3332
v  5.3245 33.4341 2.0180
v  -0.1201 32.3120 -2.2014
v  -6.4175 51.6656 -5.2978
v  -0.9472 53.8690 -2.6513
v  0.2770 -11.2430 -0.5220
v  0.7779 -11.4246 0.0684
v  10.1551 30.5402 6.7346
v  10.6467 30.3574 7.3325
v  10.2012 30.5217 6.6910
v  0.3271 -11.2447 -0.5650
v  0.8281 -11.4262 0.0254
v  10.6928 30.3389 7.2889
v  4.4853 9.2867 3.8046
v  4.0058 9.5997 3.2526
v  4.0535 9.5931 3.2074
v  4.5331 9.2801 3.7593
v  2.5625 -1.0331 1.7499
v  8.4975 20.1755 4.9290
v  2.1116 -0.8531 1.1164
v  9.0410 20.0020 5.4871
v  8.9891 19.9928 5.5269
v  2.0615 -0.8515 1.1594
v  8.5494 20.1848 4.8892
v  2.6126 -1.0347 1.7068
v  0.2717 -11.3323 0.0352
v  0.8749 -11.3521 -0.4827
v  10.1669 30.5434 7.2988
v  10.7218 30.3204 6.7744
v  10.1261 30.5586 7.2491
v  0.2301 -11.3172 -0.0138
v  0.8333 -11.3370 -0.5318
v  10.6809 30.3356 6.7247
v  4.5766 9.3871 3.2568
v  4.0021 9.4667 3.8010
v  3.9623 9.4927 3.7552
v  4.5368 9.4131 3.2109
v  2.6595 -0.9605 1.1987
v  8.4774 20.0256 5.4727
v  2.0147 -0.9257 1.6676
v  9.0612 20.1519 4.9434
v  9.1020 20.1367 4.9931
v  2.0563 -0.9407 1.7166
v  8.4365 20.0408 5.4230
v  2.6179 -0.9454 1.1496
v  8.8679 22.6156 3.5449
v  8.5972 17.7231 6.9137
v  8.9730 33.3514 19.1450
v  8.7023 28.4590 22.5138
v  8.9469 22.6123 3.5466
v  8.6761 17.7199 6.9154
v  8.7813 28.4558 22.5155
v  9.0520 33.3482 19.1467
v  0.4311 1.3073 2.0266
v  4.2680 -3.1020 0.9342
v  14.8169 13.5846 3.0005
v  18.6539 9.1753 1.9082
v  0.4247 1.3210 1.9490
v  4.2616 -3.0883 0.8566
v  18.6475 9.1890 1.8306
v  14.8105 13.5983 2.9229
v  -0.4499 -2.0740 1.5043
v  5.1071 0.0404 1.4180
v  -7.0127 15.3209 5.1066
v  -1.4557 17.4353 5.0203
v  -0.4563 -2.0604 1.4266
v  5.1007 0.0540 1.3404
v  -1.4621 17.4490 4.9427
v  -7.0191 15.3346 5.0290
v  3.4649 11.9504 2.3471
v  4.9162 6.6649 4.6525
v  15.7196 20.4163 14.0425
v  17.1708 15.1308 16.3479
v  3.5220 11.9425 2.2930
v  4.9733 6.6569 4.5984
v  17.2279 15.1229 16.2938
v  15.7767 20.4084 13.9884
v  1.8502 9.0184 1.7245
v  6.5611 9.6498 5.2976
v  0.5975 27.8402 0.0501
v  5.3084 28.4716 3.6232
v  1.8982 9.0160 1.6617
v  6.6090 9.6474 5.2348
v  5.3563 28.4692 3.5604
v  0.6455 27.8378 -0.0127
v  6.7866 22.3394 4.8030
v  10.7222 17.9784 5.7254
v  18.1326 34.4954 13.8656
v  22.0681 30.1344 14.7880
v  6.8223 22.3571 4.7347
v  10.7578 17.9961 5.6571
v  22.1038 30.1521 14.7197
v  18.1682 34.5131 13.7973
v  6.4118 19.2447 3.8062
v  11.1056 21.3399 6.7957
v  -1.4857 36.4536 4.1452
v  3.2080 38.5488 7.1347
v  6.4475 19.2624 3.7379
v  11.1412 21.3576 6.7274
v  3.2436 38.5665 7.0664
v  -1.4501 36.4713 4.0769
v  1.8716 1.4427 -0.3391
v  2.7474 -3.2157 3.2511
v  8.3441 13.0542 13.1484
v  9.2199 8.3958 16.7386
v  1.9450 1.4347 -0.3674
v  2.8208 -3.2237 3.2228
v  9.2933 8.3878 16.7103
v  8.4175 13.0462 13.1201
v  1.3948 -1.9464 -1.2420
v  3.1810 -0.0641 4.1081
v  1.7654 15.8752 -7.6359
v  3.5516 17.7576 -2.2857
v  1.4701 -1.9558 -1.2639
v  3.2563 -0.0735 4.0863
v  3.6270 17.7481 -2.3076
v  1.8408 15.8658 -7.6577
v  6.0695 11.0778 1.9667
v  2.3073 7.5618 4.9400
v  4.3919 24.2724 15.4470
v  0.6297 20.7563 18.4203
v  6.1304 11.0457 2.0056
v  2.3681 7.5297 4.9790
v  0.6905 20.7242 18.4593
v  4.4527 24.2403 15.4860
v  5.0903 8.0036 0.9629
v  3.3086 10.6942 5.9573
v  15.7758 23.0391 -3.3249
v  13.9941 25.7297 1.6694
v  5.1511 7.9715 1.0019
v  3.3694 10.6621 5.9963
v  14.0549 25.6976 1.7084
v  15.8366 23.0070 -3.2860
v  8.3205 19.5615 2.4232
v  9.1546 21.0404 8.1218
v  7.5197 37.9037 -2.2194
v  8.3538 39.3825 3.4793
v  8.3987 19.5620 2.4116
v  9.2328 21.0408 8.1103
v  8.4320 39.3830 3.4677
v  7.5979 37.9042 -2.2310
v  9.3518 33.1299 4.7608
v  13.0274 31.7634 9.2308
v  16.2127 50.7793 4.5149
v  19.8882 49.4128 8.9848
v  9.3771 33.1198 4.7370
v  13.0526 31.7533 9.2070
v  19.9135 49.4026 8.9610
v  16.2379 50.7691 4.4910
v  7.4615 31.0972 7.4877
v  11.9309 27.1763 7.3919
v  19.9435 45.3343 7.1149
v  24.4128 41.4134 7.0191
v  7.4606 31.0971 7.4516
v  11.9300 27.1762 7.3557
v  24.4119 41.4132 6.9830
v  19.9426 45.3341 7.0788
v  7.7247 29.7831 10.0774
v  11.1823 29.9667 5.2432
v  10.9325 48.2053 13.0715
v  14.3901 48.3889 8.2374
v  7.6960 29.7914 10.0572
v  11.1535 29.9750 5.2230
v  14.3613 48.3972 8.2171
v  10.9038 48.2136 13.0513
v  9.3517 28.8711 11.2689
v  8.9681 28.8998 4.8564
v  12.1173 48.3634 7.1449
v  10.4552 47.4789 1.5047
v  9.3171 28.8620 11.2742
v  8.9336 28.9042 4.8659
v  10.4206 47.4834 1.5142
v  12.0827 48.3679 7.1544
v  0.5158 -11.2402 -0.4891
v  1.1053 -11.4233 -0.9905
v  9.0653 30.5995 -8.9988
v  9.6621 30.4147 -9.4909
v  9.0216 30.5837 -9.0458
v  0.4732 -11.2391 -0.5396
v  1.0627 -11.4222 -1.0410
v  9.6185 30.3989 -9.5379
v  5.4713 9.2751 -4.0191
v  4.9242 9.5891 -3.5347
v  4.8792 9.5853 -3.5830
v  5.4263 9.2713 -4.0674
v  3.1021 -1.0349 -2.4362
v  6.9463 20.2455 -7.6803
v  2.4700 -0.8507 -1.9852
v  7.5041 20.0727 -8.2243
v  7.5431 20.0607 -8.1724
v  2.5126 -0.8518 -1.9347
v  6.9072 20.2575 -7.7322
v  3.0595 -1.0338 -2.4867
v  1.0701 -11.3458 -0.4820
v  0.5573 -11.3318 -1.0898
v  9.6294 30.5867 -9.0059
v  9.1039 30.3963 -9.5717
v  9.5798 30.6020 -8.9650
v  1.0211 -11.3306 -0.4403
v  0.5084 -11.3166 -1.0481
v  9.0544 30.4117 -9.5309
v  4.9275 9.3942 -4.1117
v  5.4685 9.4402 -3.5306
v  5.4230 9.4663 -3.4903
v  4.8820 9.4203 -4.0715
v  2.5542 -0.9434 -2.5354
v  7.4852 20.0792 -7.6603
v  3.0179 -0.9422 -1.8859
v  6.9652 20.2389 -8.2443
v  7.0147 20.2236 -8.2852
v  3.0669 -0.9574 -1.9276
v  7.4356 20.0946 -7.6195
v  2.5052 -0.9282 -2.4938
v  5.6366 22.7351 -7.9860
v  8.8602 17.7406 -7.8398
v  21.5402 33.0103 -7.6264
v  24.7638 28.0158 -7.4803
v  5.6389 22.7343 -8.0650
v  8.8625 17.7398 -7.9189
v  24.7661 28.0150 -7.5593
v  21.5425 33.0095 -7.7054
v  3.4266 1.2294 -0.2305
v  2.2429 -3.0255 -4.2121
v  4.8869 13.9121 -14.2180
v  3.7032 9.6573 -18.1995
v  3.3494 1.2451 -0.2244
v  2.1657 -3.0098 -4.2059
v  3.6260 9.6730 -18.1933
v  4.8097 13.9278 -14.2118
v  2.7988 -2.1610 0.5401
v  2.8248 0.1259 -4.9487
v  6.8406 14.9104 7.6719
v  6.8667 17.1973 2.1830
v  2.7216 -2.1453 0.5463
v  2.7476 0.1416 -4.9425
v  6.7894 17.2130 2.1892
v  6.7634 14.9261 7.6781
v  4.0819 11.9473 -2.9283
v  6.2472 6.6443 -4.5244
v  16.1292 20.4441 -14.8152
v  18.2945 15.1411 -16.4113
v  4.0281 11.9427 -2.9861
v  6.1934 6.6397 -4.5822
v  18.2407 15.1365 -16.4691
v  16.0754 20.4395 -14.8730
v  3.3601 8.9862 -1.4110
v  6.9932 9.6587 -6.0700
v  2.2178 27.8010 0.4139
v  5.8509 28.4735 -4.2450
v  3.2977 8.9871 -1.4596
v  6.9308 9.6596 -6.1185
v  5.7885 28.4744 -4.2936
v  2.1554 27.8019 0.3654
v  6.8669 22.3582 -5.9039
v  7.6995 18.0960 -9.9657
v  16.3807 34.5903 -16.7894
v  17.2132 30.3281 -20.8513
v  6.7995 22.3790 -5.9395
v  7.6320 18.1167 -10.0013
v  17.1457 30.3488 -20.8869
v  16.3132 34.6110 -16.8251
v  5.7779 19.2837 -5.6341
v  8.8698 21.4351 -10.2352
v  6.5402 36.2229 2.7987
v  9.6321 38.3744 -1.8023
v  5.7105 19.3045 -5.6697
v  8.8023 21.4559 -10.2708
v  9.5646 38.3951 -1.8379
v  6.4728 36.2437 2.7631
v  1.0792 1.4781 -1.6858
v  4.5414 -3.2536 -2.6765
v  14.9551 12.8866 -7.6806
v  18.4174 8.1549 -8.6713
v  1.0513 1.4731 -1.7596
v  4.5136 -3.2585 -2.7504
v  18.3895 8.1500 -8.7452
v  14.9272 12.8816 -7.7544
v  0.0745 -1.8965 -1.3224
v  5.4930 -0.1164 -3.0044
v  -5.7990 16.1067 -1.1904
v  -0.3805 17.8868 -2.8724
v  0.0531 -1.9029 -1.3982
v  5.4715 -0.1228 -3.0803
v  -0.4019 17.8804 -2.9482
v  -5.8204 16.1003 -1.2662
v  3.7005 11.1672 -5.5619
v  6.5363 7.4513 -1.8866
v  17.5397 23.9055 -3.3615
v  20.3756 20.1897 0.3138
v  3.7391 11.1358 -5.6234
v  6.5749 7.4200 -1.9480
v  20.4142 20.1583 0.2524
v  17.5783 23.8742 -3.4230
v  2.5995 8.0947 -4.6874
v  7.6528 10.5823 -2.7811
v  -1.1542 23.5719 -14.9343
v  3.8991 26.0595 -13.0280
v  2.6381 8.0633 -4.7489
v  7.6914 10.5510 -2.8426
v  3.9377 26.0282 -13.0894
v  -1.1156 23.5405 -14.9957
v  4.4222 19.6995 -7.5434
v  10.1686 21.0369 -8.2835
v  0.3034 38.1355 -6.2097
v  6.0498 39.4729 -6.9499
v  4.4114 19.7028 -7.6216
v  10.1578 21.0401 -8.3618
v  6.0390 39.4761 -7.0281
v  0.2926 38.1388 -6.2880
v  7.1596 33.2195 -8.1317
v  11.6221 31.8378 -11.8107
v  7.4862 51.0723 -14.4407
v  11.9486 49.6905 -18.1197
v  7.1358 33.2109 -8.1574
v  11.5982 31.8291 -11.8364
v  11.9247 49.6819 -18.1454
v  7.4623 51.0636 -14.4664
v  9.8092 31.0508 -6.2830
v  9.6416 27.2744 -10.8731
v  9.9624 45.6719 -18.3177
v  9.7948 41.8955 -22.9077
v  9.7731 31.0517 -6.2824
v  9.6055 27.2753 -10.8725
v  9.7586 41.8964 -22.9071
v  9.9263 45.6727 -18.3170
v  12.3623 29.6706 -6.5655
v  7.5675 30.1017 -10.0558
v  15.9160 48.0882 -9.1723
v  11.1212 48.5193 -12.6626
v  12.3420 29.6786 -6.5367
v  7.5472 30.1097 -10.0270
v  11.1009 48.5273 -12.6338
v  15.8957 48.0962 -9.1435
v  13.5419 28.7750 -8.2101
v  7.1297 28.9785 -7.8793
v  10.0076 48.4554 -10.4008
v  4.3290 47.6845 -8.8141
v  13.5467 28.7647 -8.1758
v  7.1390 28.9816 -7.8445
v  4.3383 47.6876 -8.7793
v  10.0169 48.4585 -10.3660
v  -0.6624 -11.1653 0.9772
v  -1.1635 -11.3551 0.3895
v  -6.8211 30.5112 -10.0324
v  -7.3129 30.3188 -10.6271
v  -6.8696 30.5004 -9.9888
v  -0.7134 -11.1591 1.0187
v  -1.2146 -11.3489 0.4311
v  -7.3614 30.3080 -10.5835
v  -3.0287 9.1939 -5.1714
v  -2.5370 9.5127 -4.6336
v  -2.5861 9.5139 -4.5895
v  -3.0778 9.1951 -5.1272
v  -2.0284 -1.0346 -2.2060
v  -6.0833 20.2386 -7.3192
v  -1.5783 -0.8387 -1.5768
v  -6.6269 20.0630 -7.8765
v  -6.5751 20.0462 -7.9139
v  -1.5272 -0.8448 -1.6183
v  -6.1351 20.2554 -7.2818
v  -2.0794 -1.0285 -2.1645
v  -0.6522 -11.3021 0.4298
v  -1.2664 -11.2278 0.9296
v  -6.8201 30.4671 -10.5950
v  -7.4033 30.3361 -10.0703
v  -6.7792 30.4831 -10.5456
v  -0.6106 -11.2863 0.4786
v  -1.2247 -11.2121 0.9784
v  -7.3624 30.3521 -10.0209
v  -3.1234 9.3480 -4.6368
v  -2.5323 9.3333 -5.1687
v  -2.4914 9.3598 -5.1240
v  -3.0826 9.3745 -4.5921
v  -2.1313 -0.9074 -1.6659
v  -6.0637 20.0414 -7.8476
v  -1.4754 -0.9659 -2.1169
v  -6.6465 20.2601 -7.3481
v  -6.6873 20.2442 -7.3975
v  -1.5171 -0.9816 -2.1657
v  -6.0229 20.0574 -7.7982
v  -2.0896 -0.8916 -1.6171
v  -6.2777 22.8104 -6.1553
v  -6.3448 17.6416 -9.0941
v  -5.1294 32.1420 -22.5941
v  -5.1964 26.9732 -25.5329
v  -6.3566 22.8135 -6.1590
v  -6.4237 17.6447 -9.0978
v  -5.2754 26.9763 -25.5366
v  -5.2083 32.1451 -22.5978
v  0.2983 1.0907 -2.6145
v  -3.9200 -2.8791 -1.2709
v  -12.9769 14.3779 -5.0335
v  -17.1951 10.4081 -3.6899
v  0.3040 1.1104 -2.5381
v  -3.9142 -2.8594 -1.1945
v  -17.1893 10.4278 -3.6136
v  -12.9711 14.3976 -4.9572
v  0.8793 -2.2943 -1.7858
v  -4.4803 0.2684 -2.0400
v  8.9629 14.1307 -6.6342
v  3.6033 16.6934 -6.8884
v  0.8851 -2.2746 -1.7094
v  -4.4745 0.2881 -1.9636
v  3.6091 16.7131 -6.8120
v  8.9687 14.1503 -6.5578
v  -1.8204 11.8800 -3.9122
v  -3.6598 6.5532 -5.8096
v  -13.0538 20.2891 -16.6294
v  -14.8932 14.9623 -18.5268
v  -1.8792 11.8814 -3.8593
v  -3.7186 6.5547 -5.7568
v  -14.9520 14.9638 -18.4740
v  -13.1126 20.2905 -16.5765
v  -0.4727 8.8896 -2.9996
v  -5.0326 9.5967 -6.7499
v  2.3232 27.6192 -2.8674
v  -2.2367 28.3264 -6.6178
v  -0.5221 8.8965 -2.9382
v  -5.0820 9.6037 -6.6886
v  -2.2860 28.3333 -6.5564
v  2.2738 27.6261 -2.8061
v  -4.1995 22.2576 -7.3241
v  -8.4668 18.1712 -7.9943
v  -14.2757 34.4818 -17.7005
v  -18.5430 30.3954 -18.3707
v  -4.2350 22.2840 -7.2586
v  -8.5023 18.1976 -7.9288
v  -18.5785 30.4218 -18.3051
v  -14.3112 34.5082 -17.6349
v  -4.1090 19.2395 -6.0617
v  -8.5416 21.4487 -9.3525
v  5.2156 35.6499 -7.6048
v  0.7830 37.8591 -10.8956
v  -4.1446 19.2658 -5.9961
v  -8.5771 21.4750 -9.2870
v  0.7475 37.8854 -10.8301
v  5.1801 35.6762 -7.5393
v  -1.1783 1.5460 -0.3118
v  -2.3629 -3.3154 -3.5244
v  -6.3466 12.4505 -14.9068
v  -7.5312 7.5891 -18.1194
v  -1.2527 1.5465 -0.2851
v  -2.4373 -3.3149 -3.4977
v  -7.6056 7.5896 -18.0927
v  -6.4210 12.4510 -14.8800
v  -1.0089 -1.7809 0.8848
v  -2.5102 -0.2239 -4.6541
v  -0.0199 16.4933 5.7537
v  -1.5211 18.0503 0.2147
v  -1.0853 -1.7822 0.9051
v  -2.5865 -0.2252 -4.6338
v  -1.5975 18.0490 0.2351
v  -0.0963 16.4920 5.7740
v  -4.4971 11.2599 -3.5369
v  -0.9789 7.2051 -6.0941
v  -1.4131 23.0683 -18.0173
v  2.1051 19.0135 -20.5745
v  -4.5595 11.2296 -3.5749
v  -1.0413 7.1749 -6.1321
v  2.0427 18.9833 -20.6125
v  -1.4755 23.0380 -18.0553
v  -3.8030 8.2130 -2.2515
v  -1.6897 10.3104 -7.3986
v  -13.2772 24.3864 0.4490
v  -11.1640 26.4838 -4.6981
v  -3.8654 8.1828 -2.2894
v  -1.7522 10.2802 -7.4366
v  -11.2264 26.4535 -4.7361
v  -13.3396 24.3562 0.4111
v  -6.0146 19.8292 -4.7666
v  -6.5937 20.8775 -10.5910
v  -3.7757 38.3740 -1.6512
v  -4.3547 39.4224 -7.4756
v  -6.0928 19.8370 -4.7575
v  -6.6718 20.8854 -10.5818
v  -4.4328 39.4303 -7.4664
v  -3.8538 38.3819 -1.6420
v  -5.8469 33.1860 -8.2590
v  -9.5236 31.7475 -12.7054
v  -11.2005 51.2946 -9.6905
v  -14.8772 49.8561 -14.1368
v  -5.8734 33.1800 -8.2352
v  -9.5501 31.7416 -12.6816
v  -14.9038 49.8502 -14.1130
v  -11.2270 51.2886 -9.6666
v  -4.0741 30.7788 -10.7498
v  -8.8588 27.2605 -10.4582
v  -15.3176 45.9712 -11.9351
v  -20.1024 42.4529 -11.6436
v  -4.0740 30.7817 -10.7138
v  -8.8588 27.2634 -10.4222
v  -20.1023 42.4558 -11.6076
v  -15.3175 45.9741 -11.8991
v  -4.3891 29.2736 -13.2273
v  -7.9261 30.1539 -8.5292
v  -5.9660 47.5722 -17.8431
v  -9.5030 48.4525 -13.1450
v  -4.3602 29.2812 -13.2070
v  -7.8972 30.1616 -8.5088
v  -9.4741 48.4601 -13.1247
v  -5.9371 47.5798 -17.8228
v  -6.0600 28.3994 -14.3857
v  -5.8189 28.9460 -7.9896
v  -7.2654 48.3344 -11.9879
v  -5.8102 47.8032 -6.2470
v  -6.0262 28.3871 -14.3893
v  -5.7838 28.9468 -7.9984
v  -5.7751 47.8040 -6.2558
v  -7.2303 48.3352 -11.9967
v  -1.4658 -11.5501 0.5353
v  -2.0598 -11.6278 1.0585
v  -5.5705 31.5241 5.4172
v  -6.1721 31.4447 5.9312
v  -5.5277 31.5081 5.4648
v  -1.4222 -11.5489 0.5849
v  -2.0162 -11.6266 1.1081
v  -6.1293 31.4286 5.9789
v  -4.2518 9.5929 2.2988
v  -3.6865 9.8061 1.7815
v  -3.6411 9.8019 1.8294
v  -4.2064 9.5887 2.3466
v  -2.9681 -1.0036 1.6044
v  -4.5344 20.9326 4.9933
v  -2.3306 -0.9248 1.1309
v  -5.0948 20.8656 5.5575
v  -5.1360 20.8532 5.5073
v  -2.3742 -0.9260 1.0812
v  -4.4932 20.9450 5.0434
v  -2.9246 -1.0025 1.6541
v  -2.0280 -11.5987 0.5446
v  -1.5034 -11.5845 1.1423
v  -6.1328 31.5697 5.4325
v  -5.6170 31.3764 6.0062
v  -6.0828 31.5763 5.3898
v  -1.9786 -11.5922 0.5012
v  -1.4540 -11.5781 1.0988
v  -5.5670 31.3830 5.9635
v  -3.6969 9.6633 2.3736
v  -4.2430 9.7138 1.7976
v  -4.1960 9.7315 1.7546
v  -3.6499 9.6810 2.3306
v  -2.4117 -0.9604 1.6882
v  -5.0876 20.8212 4.9949
v  -2.8870 -0.9680 1.0471
v  -4.5416 20.9769 5.5558
v  -4.5916 20.9703 5.5985
v  -2.9363 -0.9745 1.0906
v  -5.0376 20.8278 4.9522
v  -2.3624 -0.9539 1.6447
v  -2.9743 23.2923 5.0606
v  -6.6870 18.6599 5.3983
v  -17.7659 35.0697 3.9962
v  -21.4787 30.4372 4.3338
v  -2.9750 23.2986 5.1394
v  -6.6877 18.6661 5.4771
v  -21.4793 30.4435 4.4126
v  -17.7666 35.0760 4.0750
v  -3.1107 1.0821 -0.7886
v  -2.2755 -2.9100 3.5384
v  -2.9821 15.0129 12.0389
v  -2.1469 11.0209 16.3660
v  -3.0324 1.0892 -0.7972
v  -2.1972 -2.9029 3.5299
v  -2.0686 11.0280 16.3575
v  -2.9038 15.0201 12.0304
v  -2.8445 -2.4087 -1.2642
v  -2.5209 0.3363 4.0006
v  -5.2999 14.3032 -9.8266
v  -4.9763 17.0482 -4.5619
v  -2.7662 -2.4016 -1.2727
v  -2.4426 0.3434 3.9921
v  -4.8980 17.0553 -4.5704
v  -5.2216 14.3103 -9.8352
v  -2.6243 12.0042 0.9581
v  -5.2776 7.1090 3.0448
v  -13.4936 22.6873 12.1992
v  -16.1469 17.7920 14.2859
v  -2.5700 11.9992 1.0154
v  -5.2233 7.1040 3.1021
v  -16.0926 17.7870 14.3432
v  -13.4393 22.6823 12.2565
v  -2.2376 8.8644 -0.3002
v  -5.6825 10.3065 4.3270
v  0.7543 27.2342 -3.7976
v  -2.6906 28.6763 0.8295
v  -2.1744 8.8632 -0.2528
v  -5.6193 10.3052 4.3744
v  -2.6274 28.6750 0.8770
v  0.8175 27.2330 -3.7502
v  -4.2812 22.8640 3.0360
v  -5.4505 19.0778 7.4693
v  -12.2759 36.9027 12.9168
v  -13.4452 33.1164 17.3502
v  -4.2112 22.8808 3.0687
v  -5.3805 19.0945 7.5021
v  -13.3752 33.1332 17.3829
v  -12.2059 36.9195 12.9496
v  -3.5135 19.6825 3.0254
v  -6.2724 22.5298 7.4571
v  -2.7485 35.8152 -6.8631
v  -5.5073 38.6625 -2.4314
v  -3.4436 19.6993 3.0582
v  -6.2024 22.5466 7.4899
v  -5.4373 38.6793 -2.3986
v  -2.6785 35.8320 -6.8303
v  -0.7191 1.2147 0.6088
v  -4.6181 -3.0342 2.0586
v  -13.2418 14.4591 5.7471
v  -17.1408 10.2101 7.1968
v  -0.6903 1.2134 0.6824
v  -4.5893 -3.0356 2.1322
v  -17.1120 10.2087 7.2704
v  -13.2130 14.4577 5.8207
v  -0.0676 -2.2636 0.5327
v  -5.2414 0.2004 2.1196
v  7.5853 14.9650 -1.2671
v  2.4115 17.4290 0.3198
v  -0.0453 -2.2656 0.6085
v  -5.2191 0.1984 2.1955
v  2.4338 17.4270 0.3956
v  7.6076 14.9630 -1.1913
v  -2.2663 11.4206 3.6454
v  -5.5412 7.7095 0.3498
v  -14.7965 25.2681 0.5031
v  -18.0713 21.5570 -2.7925
v  -2.3066 11.3988 3.7099
v  -5.5814 7.6877 0.4143
v  -18.1115 21.5352 -2.7280
v  -14.8367 25.2463 0.5676
v  -1.4997 8.1874 3.0322
v  -6.3168 11.0039 0.9779
v  4.0154 24.0299 11.8203
v  -0.8017 26.8464 9.7660
v  -1.5399 8.1657 3.0967
v  -6.3571 10.9822 1.0424
v  -0.8420 26.8247 9.8305
v  3.9752 24.0082 11.8848
v  -2.0817 20.1216 4.8729
v  -7.6468 22.0987 5.5651
v  3.8433 37.8543 1.8604
v  -1.7218 39.8314 2.5526
v  -2.0689 20.1305 4.9504
v  -7.6340 22.1076 5.6426
v  -1.7090 39.8402 2.6301
v  3.8561 37.8632 1.9379
v  -3.4299 33.8504 4.2973
v  -7.9280 33.2566 8.1408
v  -1.8194 52.1226 9.0052
v  -6.3175 51.5288 12.8487
v  -3.4065 33.8416 4.3233
v  -7.9045 33.2478 8.1669
v  -6.2940 51.5200 12.8748
v  -1.7960 52.1138 9.0312
v  -6.3240 31.8118 2.6818
v  -6.4380 28.4506 7.5856
v  -4.7424 47.3605 13.3762
v  -4.8564 43.9993 18.2799
v  -6.2880 31.8090 2.6807
v  -6.4020 28.4477 7.5844
v  -4.8204 43.9964 18.2788
v  -4.7063 47.3576 13.3750
v  -8.9963 30.7297 3.1179
v  -4.1079 30.9694 6.4948
v  -10.6193 49.5704 4.1296
v  -5.7309 49.8102 7.5065
v  -8.9760 30.7330 3.0882
v  -4.0876 30.9728 6.4651
v  -5.7105 49.8135 7.4768
v  -10.5989 49.5738 4.0999
v  -10.2242 30.1055 4.8502
v  -3.8328 29.6228 4.4208
v  -4.6787 49.4368 5.2453
v  0.8575 47.9546 3.6607
v  -10.2307 30.0928 4.8170
v  -3.8425 29.6238 4.3860
v  0.8478 47.9556 3.6259
v  -4.6884 49.4378 5.2105
# 840 vertices

vn 0.0006 0.6030 0.7977
vn -0.0004 0.6010 0.7992
vn -0.0112 0.5796 0.8148
vn -0.0112 0.5796 0.8148
vn -0.0113 0.5793 0.8151
vn 0.0006 0.6030 0.7977
vn 0.0122 0.6751 -0.7376
vn 0.0004 0.6580 -0.7530
vn -0.0007 0.6567 -0.7542
vn -0.0007 0.6567 -0.7542
vn 0.0122 0.6751 -0.7376
vn 0.0122 0.6751 -0.7376
vn 0.0024 0.5818 0.8133
vn 0.0024 0.5817 0.8134
vn 0.0079 0.6013 0.7990
vn 0.0079 0.6013 0.7990
vn 0.0082 0.6037 0.7972
vn 0.0024 0.5818 0.8133
vn -0.0026 0.6732 -0.7395
vn -0.0026 0.6731 -0.7395
vn -0.0093 0.6562 -0.7545
vn -0.0093 0.6562 -0.7545
vn -0.0089 0.6578 -0.7531
vn -0.0026 0.6732 -0.7395
vn 0.0082 0.6037 0.7972
vn 0.0079 0.6013 0.7990
vn -0.0004 0.6010 0.7992
vn -0.0004 0.6010 0.7992
vn 0.0006 0.6030 0.7977
vn 0.0082 0.6037 0.7972
vn -0.0089 0.6578 -0.7531
vn -0.0093 0.6562 -0.7545
vn -0.0007 0.6567 -0.7542
vn -0.0007 0.6567 -0.7542
vn 0.0004 0.6580 -0.7530
vn -0.0089 0.6578 -0.7531
vn 0.0000 0.5833 0.8123
vn 0.0000 0.5833 0.8123
vn 0.0024 0.5817 0.8134
vn 0.0024 0.5817 0.8134
vn 0.0024 0.5818 0.8133
vn 0.0000 0.5833 0.8123
vn 0.0000 0.6718 -0.7408
vn 0.0000 0.6718 -0.7408
vn -0.0026 0.6731 -0.7395
vn -0.0026 0.6731 -0.7395
vn -0.0026 0.6732 -0.7395
vn 0.0000 0.6718 -0.7408
vn 0.7907 0.6082 0.0701
vn 0.7874 0.6121 0.0734
vn 0.7772 0.6240 0.0816
vn 0.7772 0.6240 0.0816
vn 0.7769 0.6243 0.0816
vn 0.7907 0.6082 0.0701
vn -0.7774 0.6263 0.0583
vn -0.7663 0.6391 0.0668
vn -0.7614 0.6445 0.0701
vn -0.7614 0.6445 0.0701
vn -0.7777 0.6260 0.0583
vn -0.7774 0.6263 0.0583
vn 0.7807 0.6215 0.0649
vn 0.7807 0.6216 0.0650
vn 0.7919 0.6076 0.0606
vn 0.7919 0.6076 0.0606
vn 0.7920 0.6074 0.0606
vn 0.7807 0.6215 0.0649
vn -0.7742 0.6285 0.0749
vn -0.7741 0.6286 0.0750
vn -0.7598 0.6453 0.0792
vn -0.7598 0.6453 0.0792
vn -0.7599 0.6452 0.0792
vn -0.7742 0.6285 0.0749
vn 0.7920 0.6074 0.0606
vn 0.7919 0.6076 0.0606
vn 0.7874 0.6121 0.0734
vn 0.7874 0.6121 0.0734
vn 0.7907 0.6082 0.0701
vn 0.7920 0.6074 0.0606
vn -0.7599 0.6452 0.0792
vn -0.7598 0.6453 0.0792
vn -0.7614 0.6445 0.0701
vn -0.7614 0.6445 0.0701
vn -0.7663 0.6391 0.0668
vn -0.7599 0.6452 0.0792
vn 0.7775 0.6250 0.0700
vn 0.7775 0.6250 0.0700
vn 0.7807 0.6216 0.0650
vn 0.7807 0.6216 0.0650
vn 0.7807 0.6215 0.0649
vn 0.7775 0.6250 0.0700
vn -0.7775 0.6250 0.0700
vn -0.7775 0.6250 0.0700
vn -0.7741 0.6286 0.0750
vn -0.7741 0.6286 0.0750
vn -0.7742 0.6285 0.0749
vn -0.7775 0.6250 0.0700
vn -0.5081 0.5670 0.6483
vn -0.5081 0.5671 0.6482
vn -0.5080 0.5671 0.6483
vn -0.5080 0.5671 0.6483
vn -0.5081 0.5671 0.6482
vn -0.5081 0.5670 0.6483
vn 0.5124 0.6887 -0.5129
vn 0.5124 0.6889 -0.5127
vn 0.5125 0.6889 -0.5127
vn 0.5125 0.6889 -0.5127
vn 0.5124 0.6887 -0.5129
vn 0.5124 0.6887 -0.5129
vn 0.6213 0.6005 0.5033
vn 0.6213 0.6005 0.5033
vn 0.6213 0.6005 0.5034
vn 0.6213 0.6005 0.5034
vn 0.6214 0.6004 0.5034
vn 0.6213 0.6005 0.5033
vn -0.6535 0.6511 -0.3858
vn -0.6535 0.6512 -0.3859
vn -0.6536 0.6512 -0.3858
vn -0.6536 0.6512 -0.3858
vn -0.6535 0.6512 -0.3858
vn -0.6535 0.6511 -0.3858
vn 0.6213 0.6005 0.5033
vn 0.6213 0.6005 0.5033
vn 0.6214 0.6004 0.5034
vn 0.6214 0.6004 0.5034
vn 0.6214 0.6004 0.5034
vn 0.6213 0.6005 0.5033
vn -0.6535 0.6511 -0.3858
vn -0.6535 0.6512 -0.3859
vn -0.6536 0.6512 -0.3857
vn -0.6536 0.6512 -0.3857
vn -0.6536 0.6512 -0.3858
vn -0.6535 0.6511 -0.3858
vn 0.0221 0.6034 0.7971
vn 0.0221 0.6034 0.7971
vn 0.0220 0.6034 0.7971
vn 0.0220 0.6034 0.7971
vn 0.0222 0.6034 0.7971
vn 0.0221 0.6034 0.7971
vn -0.0251 0.6564 -0.7540
vn -0.0251 0.6564 -0.7540
vn -0.0251 0.6564 -0.7540
vn -0.0251 0.6564 -0.7540
vn -0.0251 0.6564 -0.7540
vn -0.0251 0.6564 -0.7540
vn 0.1482 0.5964 0.7889
vn 0.1482 0.5964 0.7889
vn 0.1482 0.5965 0.7888
vn 0.1482 0.5965 0.7888
vn 0.1482 0.5965 0.7888
vn 0.1482 0.5964 0.7889
vn -0.1654 0.6608 -0.7321
vn -0.1654 0.6608 -0.7321
vn -0.1654 0.6608 -0.7321
vn -0.1654 0.6608 -0.7321
vn -0.1654 0.6608 -0.7321
vn -0.1654 0.6608 -0.7321
vn 0.3176 0.5558 0.7683
vn 0.3176 0.5558 0.7683
vn 0.3175 0.5558 0.7683
vn 0.3175 0.5558 0.7683
vn 0.3176 0.5558 0.7683
vn 0.3176 0.5558 0.7683
vn -0.3210 0.7026 -0.6351
vn -0.3209 0.7027 -0.6350
vn -0.3210 0.7027 -0.6350
vn -0.3210 0.7027 -0.6350
vn -0.3209 0.7027 -0.6350
vn -0.3210 0.7026 -0.6351
vn 0.3176 0.5558 0.7683
vn 0.3176 0.5558 0.7683
vn 0.3176 0.5558 0.7683
vn 0.3176 0.5558 0.7683
vn 0.3176 0.5558 0.7683
vn 0.3176 0.5558 0.7683
vn -0.3210 0.7026 -0.6351
vn -0.3210 0.7024 -0.6352
vn -0.3210 0.7027 -0.6350
vn -0.3210 0.7027 -0.6350
vn -0.3210 0.7026 -0.6351
vn -0.3210 0.7026 -0.6351
vn -0.2555 0.5856 0.7692
vn -0.2555 0.5856 0.7693
vn -0.2555 0.5857 0.7692
vn -0.2555 0.5857 0.7692
vn -0.2556 0.5856 0.7693
vn -0.2555 0.5856 0.7692
vn 0.2776 0.6688 -0.6896
vn 0.2776 0.6690 -0.6895
vn 0.2775 0.6689 -0.6896
vn 0.2775 0.6689 -0.6896
vn 0.2776 0.6688 -0.6897
vn 0.2776 0.6688 -0.6896
vn -0.3162 0.5870 0.7453
vn -0.3162 0.5870 0.7453
vn -0.3162 0.5870 0.7453
vn -0.3162 0.5870 0.7453
vn -0.3162 0.5869 0.7454
vn -0.3162 0.5870 0.7453
vn 0.3425 0.6672 -0.6615
vn 0.3424 0.6672 -0.6615
vn 0.3424 0.6672 -0.6615
vn 0.3424 0.6672 -0.6615
vn 0.3425 0.6672 -0.6615
vn 0.3425 0.6672 -0.6615
vn -0.7017 0.6595 0.2695
vn -0.7017 0.6595 0.2695
vn -0.7017 0.6596 0.2695
vn -0.7017 0.6596 0.2695
vn -0.7017 0.6596 0.2695
vn -0.7017 0.6595 0.2695
vn 0.7822 0.6044 -0.1512
vn 0.7822 0.6044 -0.1512
vn 0.7822 0.6044 -0.1512
vn 0.7822 0.6044 -0.1512
vn 0.7821 0.6045 -0.1512
vn 0.7822 0.6044 -0.1512
vn -0.7017 0.6595 0.2695
vn -0.7017 0.6595 0.2695
vn -0.7017 0.6595 0.2695
vn -0.7017 0.6595 0.2695
vn -0.7017 0.6595 0.2695
vn -0.7017 0.6595 0.2695
vn 0.7822 0.6044 -0.1513
vn 0.7823 0.6043 -0.1512
vn 0.7823 0.6043 -0.1512
vn 0.7823 0.6043 -0.1512
vn 0.7822 0.6044 -0.1512
vn 0.7822 0.6044 -0.1513
vn -0.3985 0.5596 0.7266
vn -0.3985 0.5596 0.7267
vn -0.3985 0.5596 0.7267
vn -0.3985 0.5596 0.7267
vn -0.3985 0.5596 0.7267
vn -0.3985 0.5596 0.7266
vn 0.4024 0.6978 -0.5926
vn 0.4023 0.6979 -0.5925
vn 0.4024 0.6979 -0.5924
vn 0.4024 0.6979 -0.5924
vn 0.4023 0.6980 -0.5925
vn 0.4024 0.6978 -0.5926
vn -0.0100 0.6522 0.7580
vn -0.0101 0.6522 0.7580
vn -0.0101 0.6525 0.7578
vn -0.0101 0.6525 0.7578
vn -0.0100 0.6525 0.7578
vn -0.0100 0.6522 0.7580
vn 0.0124 0.6337 -0.7735
vn 0.0124 0.6339 -0.7733
vn 0.0123 0.6339 -0.7733
vn 0.0123 0.6339 -0.7733
vn 0.0124 0.6339 -0.7733
vn 0.0124 0.6337 -0.7735
vn 0.5567 0.6387 0.5311
vn 0.5568 0.6386 0.5312
vn 0.5567 0.6387 0.5311
vn 0.5567 0.6387 0.5311
vn 0.5567 0.6387 0.5312
vn 0.5567 0.6387 0.5311
vn -0.6341 0.6258 -0.4541
vn -0.6343 0.6255 -0.4543
vn -0.6343 0.6256 -0.4543
vn -0.6343 0.6256 -0.4543
vn -0.6342 0.6257 -0.4542
vn -0.6341 0.6258 -0.4541
vn 0.7626 0.6354 -0.1213
vn 0.7623 0.6357 -0.1213
vn 0.7625 0.6355 -0.1213
vn 0.7625 0.6355 -0.1213
vn 0.7625 0.6355 -0.1213
vn 0.7626 0.6354 -0.1213
vn -0.7456 0.6149 0.2570
vn -0.7455 0.6149 0.2570
vn -0.7456 0.6149 0.2570
vn -0.7456 0.6149 0.2570
vn -0.7456 0.6149 0.2570
vn -0.7456 0.6149 0.2570
vn 0.4297 0.6647 -0.6112
vn 0.4297 0.6647 -0.6112
vn 0.4297 0.6647 -0.6112
vn 0.4297 0.6647 -0.6112
vn 0.4297 0.6647 -0.6112
vn 0.4297 0.6647 -0.6112
vn -0.3991 0.5887 0.7030
vn -0.3991 0.5887 0.7030
vn -0.3990 0.5890 0.7028
vn -0.3990 0.5890 0.7028
vn -0.3991 0.5887 0.7030
vn -0.3991 0.5887 0.7030
vn -0.5496 0.6218 0.5580
vn -0.5524 0.6199 0.5573
vn -0.5816 0.6004 0.5489
vn -0.5816 0.6004 0.5489
vn -0.5815 0.6005 0.5489
vn -0.5496 0.6218 0.5580
vn 0.6182 0.6519 -0.4391
vn 0.6115 0.6374 -0.4689
vn 0.6106 0.6362 -0.4716
vn 0.6106 0.6362 -0.4716
vn 0.6183 0.6518 -0.4391
vn 0.6182 0.6519 -0.4391
vn -0.5707 0.6012 0.5594
vn -0.5707 0.6012 0.5594
vn -0.5468 0.6192 0.5635
vn -0.5468 0.6192 0.5635
vn -0.5441 0.6215 0.5637
vn -0.5707 0.6012 0.5594
vn 0.6091 0.6514 -0.4524
vn 0.6092 0.6514 -0.4524
vn 0.6050 0.6365 -0.4784
vn 0.6050 0.6365 -0.4784
vn 0.6053 0.6380 -0.4759
vn 0.6091 0.6514 -0.4524
vn -0.5441 0.6215 0.5637
vn -0.5468 0.6192 0.5635
vn -0.5524 0.6199 0.5573
vn -0.5524 0.6199 0.5573
vn -0.5496 0.6218 0.5580
vn -0.5441 0.6215 0.5637
vn 0.6053 0.6380 -0.4759
vn 0.6050 0.6365 -0.4784
vn 0.6106 0.6362 -0.4716
vn 0.6106 0.6362 -0.4716
vn 0.6115 0.6374 -0.4689
vn 0.6053 0.6380 -0.4759
vn -0.5706 0.6030 0.5576
vn -0.5706 0.6030 0.5576
vn -0.5707 0.6012 0.5594
vn -0.5707 0.6012 0.5594
vn -0.5707 0.6012 0.5594
vn -0.5706 0.6030 0.5576
vn 0.6109 0.6500 -0.4521
vn 0.6109 0.6499 -0.4521
vn 0.6092 0.6514 -0.4524
vn 0.6092 0.6514 -0.4524
vn 0.6091 0.6514 -0.4524
vn 0.6109 0.6500 -0.4521
vn 0.5062 0.5414 0.6713
vn 0.5028 0.5438 0.6719
vn 0.4942 0.5505 0.6729
vn 0.4942 0.5505 0.6729
vn 0.4941 0.5505 0.6729
vn 0.5062 0.5414 0.6713
vn -0.4771 0.7152 -0.5107
vn -0.4717 0.7315 -0.4924
vn -0.4693 0.7381 -0.4848
vn -0.4693 0.7381 -0.4848
vn -0.4769 0.7154 -0.5107
vn -0.4771 0.7152 -0.5107
vn 0.5082 0.5491 0.6635
vn 0.5082 0.5491 0.6635
vn 0.5140 0.5414 0.6654
vn 0.5140 0.5414 0.6654
vn 0.5140 0.5413 0.6654
vn 0.5082 0.5491 0.6635
vn -0.4864 0.7191 -0.4964
vn -0.4863 0.7191 -0.4963
vn -0.4748 0.7394 -0.4773
vn -0.4748 0.7394 -0.4773
vn -0.4749 0.7393 -0.4774
vn -0.4864 0.7191 -0.4964
vn 0.5140 0.5413 0.6654
vn 0.5140 0.5414 0.6654
vn 0.5028 0.5438 0.6719
vn 0.5028 0.5438 0.6719
vn 0.5062 0.5414 0.6713
vn 0.5140 0.5413 0.6654
vn -0.4749 0.7393 -0.4774
vn -0.4748 0.7394 -0.4773
vn -0.4693 0.7381 -0.4848
vn -0.4693 0.7381 -0.4848
vn -0.4717 0.7315 -0.4924
vn -0.4749 0.7393 -0.4774
vn 0.5035 0.5512 0.6653
vn 0.5035 0.5512 0.6653
vn 0.5082 0.5491 0.6635
vn 0.5082 0.5491 0.6635
vn 0.5082 0.5491 0.6635
vn 0.5035 0.5512 0.6653
vn -0.4860 0.7145 -0.5033
vn -0.4860 0.7145 -0.5033
vn -0.4863 0.7191 -0.4963
vn -0.4863 0.7191 -0.4963
vn -0.4864 0.7191 -0.4964
vn -0.4860 0.7145 -0.5033
vn -0.7709 0.6348 0.0531
vn -0.7709 0.6347 0.0530
vn -0.7709 0.6347 0.0530
vn -0.7709 0.6347 0.0530
vn -0.7708 0.6349 0.0530
vn -0.7709 0.6348 0.0531
vn 0.7832 0.6157 0.0872
vn 0.7833 0.6155 0.0871
vn 0.7832 0.6157 0.0871
vn 0.7832 0.6157 0.0871
vn 0.7830 0.6158 0.0871
vn 0.7832 0.6157 0.0872
vn 0.0629 0.5497 0.8330
vn 0.0630 0.5497 0.8330
vn 0.0630 0.5497 0.8330
vn 0.0630 0.5497 0.8330
vn 0.0630 0.5497 0.8330
vn 0.0629 0.5497 0.8330
vn -0.0636 0.7106 -0.7007
vn -0.0636 0.7106 -0.7007
vn -0.0635 0.7106 -0.7008
vn -0.0635 0.7106 -0.7008
vn -0.0636 0.7106 -0.7007
vn -0.0636 0.7106 -0.7007
vn 0.0629 0.5497 0.8330
vn 0.0630 0.5497 0.8330
vn 0.0629 0.5496 0.8331
vn 0.0629 0.5496 0.8331
vn 0.0629 0.5497 0.8330
vn 0.0629 0.5497 0.8330
vn -0.0636 0.7106 -0.7007
vn -0.0636 0.7106 -0.7007
vn -0.0636 0.7106 -0.7007
vn -0.0636 0.7106 -0.7007
vn -0.0636 0.7106 -0.7007
vn -0.0636 0.7106 -0.7007
vn -0.5354 0.6196 0.5740
vn -0.5354 0.6196 0.5740
vn -0.5355 0.6195 0.5739
vn -0.5355 0.6195 0.5739
vn -0.5355 0.6195 0.5739
vn -0.5354 0.6196 0.5740
vn 0.5945 0.6381 -0.4892
vn 0.5946 0.6380 -0.4893
vn 0.5945 0.6381 -0.4892
vn 0.5945 0.6381 -0.4892
vn 0.5945 0.6381 -0.4892
vn 0.5945 0.6381 -0.4892
vn -0.4532 0.5983 0.6607
vn -0.4532 0.5984 0.6608
vn -0.4532 0.5984 0.6607
vn -0.4532 0.5984 0.6607
vn -0.4531 0.5986 0.6606
vn -0.4532 0.5983 0.6607
vn 0.4926 0.6558 -0.5720
vn 0.4926 0.6558 -0.5721
vn 0.4927 0.6558 -0.5721
vn 0.4927 0.6558 -0.5721
vn 0.4926 0.6558 -0.5721
vn 0.4926 0.6558 -0.5720
vn -0.3576 0.5465 0.7573
vn -0.3575 0.5465 0.7573
vn -0.3576 0.5466 0.7572
vn -0.3576 0.5466 0.7572
vn -0.3576 0.5466 0.7572
vn -0.3576 0.5465 0.7573
vn 0.3497 0.7188 -0.6009
vn 0.3495 0.7190 -0.6007
vn 0.3498 0.7188 -0.6008
vn 0.3498 0.7188 -0.6008
vn 0.3496 0.7189 -0.6008
vn 0.3497 0.7188 -0.6009
vn -0.3576 0.5465 0.7573
vn -0.3575 0.5464 0.7574
vn -0.3575 0.5466 0.7572
vn -0.3575 0.5466 0.7572
vn -0.3575 0.5466 0.7572
vn -0.3576 0.5465 0.7573
vn 0.3496 0.7189 -0.6008
vn 0.3497 0.7187 -0.6010
vn 0.3496 0.7189 -0.6008
vn 0.3496 0.7189 -0.6008
vn 0.3496 0.7188 -0.6009
vn 0.3496 0.7189 -0.6008
vn -0.6970 0.6332 0.3365
vn -0.6971 0.6331 0.3365
vn -0.6971 0.6332 0.3364
vn -0.6971 0.6332 0.3364
vn -0.6970 0.6333 0.3364
vn -0.6970 0.6332 0.3365
vn 0.7523 0.6219 -0.2173
vn 0.7523 0.6220 -0.2172
vn 0.7524 0.6219 -0.2172
vn 0.7524 0.6219 -0.2172
vn 0.7523 0.6219 -0.2173
vn 0.7523 0.6219 -0.2173
vn -0.7165 0.6410 0.2754
vn -0.7165 0.6410 0.2754
vn -0.7165 0.6410 0.2753
vn -0.7165 0.6410 0.2753
vn -0.7166 0.6409 0.2754
vn -0.7165 0.6410 0.2754
vn 0.7738 0.6151 -0.1513
vn 0.7738 0.6151 -0.1513
vn 0.7738 0.6151 -0.1513
vn 0.7738 0.6151 -0.1513
vn 0.7738 0.6151 -0.1513
vn 0.7738 0.6151 -0.1513
vn -0.5775 0.7582 -0.3027
vn -0.5775 0.7583 -0.3026
vn -0.5775 0.7582 -0.3027
vn -0.5775 0.7582 -0.3027
vn -0.5775 0.7582 -0.3027
vn -0.5775 0.7582 -0.3027
vn 0.6679 0.5455 0.5063
vn 0.6679 0.5454 0.5064
vn 0.6679 0.5455 0.5063
vn 0.6679 0.5455 0.5063
vn 0.6679 0.5455 0.5063
vn 0.6679 0.5455 0.5063
vn -0.5775 0.7582 -0.3027
vn -0.5775 0.7583 -0.3026
vn -0.5775 0.7583 -0.3026
vn -0.5775 0.7583 -0.3026
vn -0.5775 0.7582 -0.3027
vn -0.5775 0.7582 -0.3027
vn 0.6679 0.5455 0.5063
vn 0.6680 0.5454 0.5063
vn 0.6679 0.5455 0.5063
vn 0.6679 0.5455 0.5063
vn 0.6679 0.5455 0.5064
vn 0.6679 0.5455 0.5063
vn -0.7653 0.6172 0.1829
vn -0.7652 0.6173 0.1829
vn -0.7652 0.6173 0.1829
vn -0.7652 0.6173 0.1829
vn -0.7652 0.6173 0.1828
vn -0.7653 0.6172 0.1829
vn 0.7730 0.6329 -0.0441
vn 0.7731 0.6327 -0.0441
vn 0.7729 0.6330 -0.0440
vn 0.7729 0.6330 -0.0440
vn 0.7729 0.6330 -0.0440
vn 0.7730 0.6329 -0.0441
vn -0.5057 0.6702 0.5432
vn -0.5057 0.6702 0.5432
vn -0.5057 0.6702 0.5432
vn -0.5057 0.6702 0.5432
vn -0.5058 0.6702 0.5432
vn -0.5057 0.6702 0.5432
vn 0.6108 0.6150 -0.4986
vn 0.6111 0.6149 -0.4985
vn 0.6109 0.6150 -0.4986
vn 0.6109 0.6150 -0.4986
vn 0.6109 0.6150 -0.4986
vn 0.6108 0.6150 -0.4986
vn 0.0187 0.5842 0.8114
vn 0.0187 0.5840 0.8115
vn 0.0186 0.5840 0.8115
vn 0.0186 0.5840 0.8115
vn 0.0186 0.5840 0.8115
vn 0.0187 0.5842 0.8114
vn -0.0204 0.6710 -0.7412
vn -0.0205 0.6712 -0.7410
vn -0.0203 0.6709 -0.7413
vn -0.0203 0.6709 -0.7413
vn -0.0204 0.6710 -0.7412
vn -0.0204 0.6710 -0.7412
vn 0.6418 0.5593 0.5247
vn 0.6419 0.5593 0.5246
vn 0.6419 0.5591 0.5247
vn 0.6419 0.5591 0.5247
vn 0.6417 0.5595 0.5246
vn 0.6418 0.5593 0.5247
vn -0.6091 0.7066 -0.3601
vn -0.6091 0.7066 -0.3601
vn -0.6092 0.7066 -0.3601
vn -0.6092 0.7066 -0.3601
vn -0.6092 0.7066 -0.3601
vn -0.6091 0.7066 -0.3601
vn 0.7936 0.6060 -0.0536
vn 0.7936 0.6061 -0.0536
vn 0.7935 0.6062 -0.0536
vn 0.7935 0.6062 -0.0536
vn 0.7938 0.6059 -0.0536
vn 0.7936 0.6060 -0.0536
vn -0.7359 0.6512 0.1854
vn -0.7362 0.6509 0.1854
vn -0.7359 0.6513 0.1853
vn -0.7359 0.6513 0.1853
vn -0.7360 0.6511 0.1853
vn -0.7359 0.6512 0.1854
vn 0.4901 0.6078 0.6248
vn 0.4890 0.6060 0.6274
vn 0.4770 0.5856 0.6554
vn 0.4770 0.5856 0.6554
vn 0.4770 0.5856 0.6554
vn 0.4901 0.6078 0.6248
vn -0.5040 0.6672 -0.5485
vn -0.5354 0.6491 -0.5403
vn -0.5383 0.6475 -0.5394
vn -0.5383 0.6475 -0.5394
vn -0.5040 0.6672 -0.5485
vn -0.5040 0.6672 -0.5485
vn 0.4885 0.5873 0.6453
vn 0.4885 0.5873 0.6453
vn 0.4956 0.6059 0.6223
vn 0.4956 0.6059 0.6223
vn 0.4960 0.6082 0.6197
vn 0.4885 0.5873 0.6453
vn -0.5168 0.6653 -0.5387
vn -0.5168 0.6653 -0.5388
vn -0.5446 0.6473 -0.5333
vn -0.5446 0.6473 -0.5333
vn -0.5419 0.6491 -0.5339
vn -0.5168 0.6653 -0.5387
vn 0.4960 0.6082 0.6197
vn 0.4956 0.6059 0.6223
vn 0.4890 0.6060 0.6274
vn 0.4890 0.6060 0.6274
vn 0.4901 0.6078 0.6248
vn 0.4960 0.6082 0.6197
vn -0.5419 0.6491 -0.5339
vn -0.5446 0.6473 -0.5333
vn -0.5383 0.6475 -0.5394
vn -0.5383 0.6475 -0.5394
vn -0.5354 0.6491 -0.5403
vn -0.5419 0.6491 -0.5339
vn 0.4869 0.5888 0.6452
vn 0.4869 0.5888 0.6452
vn 0.4885 0.5873 0.6453
vn 0.4885 0.5873 0.6453
vn 0.4885 0.5873 0.6453
vn 0.4869 0.5888 0.6452
vn -0.5168 0.6639 -0.5405
vn -0.5169 0.6638 -0.5406
vn -0.5168 0.6653 -0.5388
vn -0.5168 0.6653 -0.5388
vn -0.5168 0.6653 -0.5387
vn -0.5168 0.6639 -0.5405
vn 0.6390 0.6106 -0.4677
vn 0.6406 0.6121 -0.4637
vn 0.6433 0.6171 -0.4532
vn 0.6433 0.6171 -0.4532
vn 0.6432 0.6171 -0.4532
vn 0.6390 0.6106 -0.4677
vn -0.5477 0.6577 0.5172
vn -0.5296 0.6748 0.5139
vn -0.5222 0.6817 0.5125
vn -0.5222 0.6817 0.5125
vn -0.5477 0.6577 0.5172
vn -0.5477 0.6577 0.5172
vn 0.6328 0.6164 -0.4687
vn 0.6328 0.6164 -0.4687
vn 0.6325 0.6110 -0.4762
vn 0.6325 0.6110 -0.4762
vn 0.6326 0.6108 -0.4762
vn 0.6328 0.6164 -0.4687
vn -0.5341 0.6614 0.5266
vn -0.5340 0.6614 0.5266
vn -0.5150 0.6830 0.5179
vn -0.5150 0.6830 0.5179
vn -0.5151 0.6829 0.5180
vn -0.5341 0.6614 0.5266
vn 0.6326 0.6108 -0.4762
vn 0.6325 0.6110 -0.4762
vn 0.6406 0.6121 -0.4637
vn 0.6406 0.6121 -0.4637
vn 0.6390 0.6106 -0.4677
vn 0.6326 0.6108 -0.4762
vn -0.5151 0.6829 0.5180
vn -0.5150 0.6830 0.5179
vn -0.5222 0.6817 0.5125
vn -0.5222 0.6817 0.5125
vn -0.5296 0.6748 0.5139
vn -0.5151 0.6829 0.5180
vn 0.6353 0.6178 -0.4633
vn 0.6353 0.6178 -0.4633
vn 0.6328 0.6164 -0.4687
vn 0.6328 0.6164 -0.4687
vn 0.6328 0.6164 -0.4687
vn 0.6353 0.6178 -0.4633
vn -0.5408 0.6566 0.5257
vn -0.5408 0.6566 0.5257
vn -0.5340 0.6614 0.5266
vn -0.5340 0.6614 0.5266
vn -0.5341 0.6614 0.5266
vn -0.5408 0.6566 0.5257
vn -0.0218 0.5856 0.8103
vn -0.0217 0.5856 0.8103
vn -0.0217 0.5856 0.8103
vn -0.0217 0.5856 0.8103
vn -0.0217 0.5857 0.8102
vn -0.0218 0.5856 0.8103
vn 0.0239 0.6698 -0.7421
vn 0.0239 0.6698 -0.7421
vn 0.0239 0.6699 -0.7420
vn 0.0239 0.6699 -0.7420
vn 0.0240 0.6698 -0.7421
vn 0.0239 0.6698 -0.7421
vn 0.8047 0.5936 0.0098
vn 0.8047 0.5936 0.0097
vn 0.8047 0.5936 0.0098
vn 0.8047 0.5936 0.0098
vn 0.8047 0.5936 0.0098
vn 0.8047 0.5936 0.0098
vn -0.7314 0.6702 0.1259
vn -0.7314 0.6702 0.1258
vn -0.7314 0.6702 0.1260
vn -0.7314 0.6702 0.1260
vn -0.7314 0.6702 0.1259
vn -0.7314 0.6702 0.1259
vn 0.8047 0.5936 0.0098
vn 0.8047 0.5936 0.0097
vn 0.8048 0.5935 0.0098
vn 0.8048 0.5935 0.0098
vn 0.8047 0.5936 0.0097
vn 0.8047 0.5936 0.0098
vn -0.7314 0.6702 0.1259
vn -0.7314 0.6702 0.1259
vn -0.7315 0.6701 0.1259
vn -0.7315 0.6701 0.1259
vn -0.7314 0.6702 0.1259
vn -0.7314 0.6702 0.1259
vn 0.5069 0.6074 0.6117
vn 0.5069 0.6074 0.6116
vn 0.5068 0.6073 0.6118
vn 0.5068 0.6073 0.6118
vn 0.5068 0.6073 0.6118
vn 0.5069 0.6074 0.6117
vn -0.5546 0.6476 -0.5224
vn -0.5547 0.6476 -0.5225
vn -0.5545 0.6476 -0.5225
vn -0.5545 0.6476 -0.5225
vn -0.5546 0.6476 -0.5225
vn -0.5546 0.6476 -0.5224
vn 0.5992 0.5962 0.5343
vn 0.5992 0.5963 0.5343
vn 0.5992 0.5963 0.5343
vn 0.5992 0.5963 0.5343
vn 0.5992 0.5961 0.5343
vn 0.5992 0.5962 0.5343
vn -0.6293 0.6555 -0.4176
vn -0.6293 0.6553 -0.4177
vn -0.6294 0.6553 -0.4177
vn -0.6294 0.6553 -0.4177
vn -0.6292 0.6555 -0.4176
vn -0.6293 0.6555 -0.4176
vn 0.6999 0.5600 0.4433
vn 0.6998 0.5600 0.4434
vn 0.6998 0.5600 0.4435
vn 0.6998 0.5600 0.4435
vn 0.6998 0.5600 0.4435
vn 0.6999 0.5600 0.4433
vn -0.6476 0.7112 -0.2736
vn -0.6475 0.7112 -0.2737
vn -0.6477 0.7110 -0.2738
vn -0.6477 0.7110 -0.2738
vn -0.6476 0.7112 -0.2737
vn -0.6476 0.7112 -0.2736
vn 0.7000 0.5599 0.4434
vn 0.6999 0.5600 0.4433
vn 0.6999 0.5600 0.4434
vn 0.6999 0.5600 0.4434
vn 0.6999 0.5600 0.4434
vn 0.7000 0.5599 0.4434
vn -0.6475 0.7113 -0.2735
vn -0.6475 0.7113 -0.2736
vn -0.6477 0.7111 -0.2737
vn -0.6477 0.7111 -0.2737
vn -0.6476 0.7111 -0.2736
vn -0.6475 0.7113 -0.2735
vn 0.2602 0.6004 0.7562
vn 0.2602 0.6004 0.7562
vn 0.2600 0.6004 0.7562
vn 0.2600 0.6004 0.7562
vn 0.2602 0.6005 0.7561
vn 0.2602 0.6004 0.7562
vn -0.2904 0.6570 -0.6957
vn -0.2905 0.6569 -0.6957
vn -0.2905 0.6569 -0.6957
vn -0.2905 0.6569 -0.6957
vn -0.2904 0.6570 -0.6957
vn -0.2904 0.6570 -0.6957
vn 0.1993 0.6041 0.7716
vn 0.1993 0.6041 0.7716
vn 0.1993 0.6041 0.7716
vn 0.1993 0.6041 0.7716
vn 0.1993 0.6040 0.7717
vn 0.1993 0.6041 0.7716
vn -0.2249 0.6550 -0.7214
vn -0.2249 0.6550 -0.7213
vn -0.2250 0.6549 -0.7215
vn -0.2250 0.6549 -0.7215
vn -0.2249 0.6550 -0.7214
vn -0.2249 0.6550 -0.7214
vn -0.3494 0.7020 0.6206
vn -0.3494 0.7020 0.6206
vn -0.3494 0.7020 0.6205
vn -0.3494 0.7020 0.6205
vn -0.3492 0.7021 0.6206
vn -0.3494 0.7020 0.6206
vn 0.4550 0.6186 -0.6405
vn 0.4550 0.6186 -0.6406
vn 0.4550 0.6186 -0.6406
vn 0.4550 0.6186 -0.6406
vn 0.4550 0.6186 -0.6405
vn 0.4550 0.6186 -0.6405
vn -0.3494 0.7020 0.6206
vn -0.3494 0.7019 0.6206
vn -0.3494 0.7019 0.6207
vn -0.3494 0.7019 0.6207
vn -0.3494 0.7019 0.6207
vn -0.3494 0.7020 0.6206
vn 0.4550 0.6186 -0.6405
vn 0.4551 0.6186 -0.6405
vn 0.4549 0.6187 -0.6405
vn 0.4549 0.6187 -0.6405
vn 0.4550 0.6186 -0.6405
vn 0.4550 0.6186 -0.6405
vn 0.1031 0.5746 0.8119
vn 0.1030 0.5746 0.8119
vn 0.1030 0.5748 0.8118
vn 0.1030 0.5748 0.8118
vn 0.1030 0.5748 0.8118
vn 0.1031 0.5746 0.8119
vn -0.1105 0.6798 -0.7250
vn -0.1105 0.6795 -0.7253
vn -0.1104 0.6798 -0.7250
vn -0.1104 0.6798 -0.7250
vn -0.1105 0.6797 -0.7251
vn -0.1105 0.6798 -0.7250
vn 0.4801 0.6560 0.5824
vn 0.4800 0.6560 0.5825
vn 0.4799 0.6562 0.5823
vn 0.4799 0.6562 0.5823
vn 0.4801 0.6560 0.5824
vn 0.4801 0.6560 0.5824
vn -0.5706 0.6216 -0.5367
vn -0.5706 0.6215 -0.5368
vn -0.5706 0.6215 -0.5368
vn -0.5706 0.6215 -0.5368
vn -0.5708 0.6214 -0.5368
vn -0.5706 0.6216 -0.5367
vn 0.7820 0.6207 0.0574
vn 0.7820 0.6207 0.0574
vn 0.7819 0.6207 0.0575
vn 0.7819 0.6207 0.0575
vn 0.7819 0.6207 0.0575
vn 0.7820 0.6207 0.0574
vn -0.7726 0.6295 0.0824
vn -0.7725 0.6297 0.0824
vn -0.7725 0.6296 0.0823
vn -0.7725 0.6296 0.0823
vn -0.7727 0.6294 0.0824
vn -0.7726 0.6295 0.0824
vn 0.4834 0.6278 -0.6100
vn 0.4834 0.6278 -0.6100
vn 0.4834 0.6278 -0.6101
vn 0.4834 0.6278 -0.6101
vn 0.4833 0.6278 -0.6102
vn 0.4834 0.6278 -0.6100
vn -0.4070 0.6474 0.6443
vn -0.4071 0.6473 0.6444
vn -0.4070 0.6474 0.6443
vn -0.4070 0.6474 0.6443
vn -0.4070 0.6474 0.6443
vn -0.4070 0.6474 0.6443
vn -0.1263 0.6525 -0.7472
vn -0.1263 0.6526 -0.7471
vn -0.1263 0.6526 -0.7471
vn -0.1263 0.6526 -0.7471
vn -0.1264 0.6526 -0.7471
vn -0.1263 0.6525 -0.7472
vn 0.1106 0.6091 0.7853
vn 0.1105 0.6092 0.7853
vn 0.1107 0.6091 0.7853
vn 0.1107 0.6091 0.7853
vn 0.1106 0.6091 0.7853
vn 0.1106 0.6091 0.7853
vn 0.6120 0.6521 -0.4474
vn 0.6148 0.6505 -0.4460
vn 0.6432 0.6337 -0.4298
vn 0.6432 0.6337 -0.4298
vn 0.6432 0.6337 -0.4298
vn 0.6120 0.6521 -0.4474
vn -0.5815 0.6238 0.5223
vn -0.5757 0.6021 0.5532
vn -0.5749 0.6005 0.5558
vn -0.5749 0.6005 0.5558
vn -0.5815 0.6238 0.5222
vn -0.5815 0.6238 0.5223
vn 0.6328 0.6353 -0.4427
vn 0.6328 0.6352 -0.4427
vn 0.6094 0.6505 -0.4533
vn 0.6094 0.6505 -0.4533
vn 0.6068 0.6524 -0.4541
vn 0.6328 0.6353 -0.4427
vn -0.5725 0.6219 0.5342
vn -0.5726 0.6219 0.5342
vn -0.5695 0.6000 0.5619
vn -0.5695 0.6000 0.5619
vn -0.5698 0.6023 0.5592
vn -0.5725 0.6219 0.5342
vn 0.6068 0.6524 -0.4541
vn 0.6094 0.6505 -0.4533
vn 0.6148 0.6505 -0.4460
vn 0.6148 0.6505 -0.4460
vn 0.6120 0.6521 -0.4474
vn 0.6068 0.6524 -0.4541
vn -0.5698 0.6023 0.5592
vn -0.5695 0.6000 0.5619
vn -0.5749 0.6005 0.5558
vn -0.5749 0.6005 0.5558
vn -0.5757 0.6021 0.5532
vn -0.5698 0.6023 0.5592
vn 0.6327 0.6364 -0.4412
vn 0.6327 0.6364 -0.4412
vn 0.6328 0.6352 -0.4427
vn 0.6328 0.6352 -0.4427
vn 0.6328 0.6353 -0.4427
vn 0.6327 0.6364 -0.4412
vn -0.5744 0.6201 0.5344
vn -0.5744 0.6201 0.5344
vn -0.5726 0.6219 0.5342
vn -0.5726 0.6219 0.5342
vn -0.5725 0.6219 0.5342
vn -0.5744 0.6201 0.5344
vn -0.5562 0.6159 -0.5580
vn -0.5505 0.6175 -0.5617
vn -0.5357 0.6231 -0.5699
vn -0.5357 0.6231 -0.5699
vn -0.5357 0.6231 -0.5699
vn -0.5562 0.6159 -0.5580
vn 0.4486 0.6553 0.6078
vn 0.4487 0.6731 0.5878
vn 0.4486 0.6802 0.5798
vn 0.4486 0.6802 0.5798
vn 0.4485 0.6554 0.6077
vn 0.4486 0.6553 0.6078
vn -0.5515 0.6210 -0.5570
vn -0.5515 0.6210 -0.5570
vn -0.5646 0.6151 -0.5504
vn -0.5646 0.6151 -0.5504
vn -0.5646 0.6152 -0.5503
vn -0.5515 0.6210 -0.5570
vn 0.4594 0.6599 0.5946
vn 0.4595 0.6599 0.5945
vn 0.4547 0.6820 0.5729
vn 0.4547 0.6820 0.5729
vn 0.4547 0.6819 0.5730
vn 0.4594 0.6599 0.5946
vn -0.5646 0.6152 -0.5503
vn -0.5646 0.6151 -0.5504
vn -0.5505 0.6175 -0.5617
vn -0.5505 0.6175 -0.5617
vn -0.5562 0.6159 -0.5580
vn -0.5646 0.6152 -0.5503
vn 0.4547 0.6819 0.5730
vn 0.4547 0.6820 0.5729
vn 0.4486 0.6802 0.5798
vn 0.4486 0.6802 0.5798
vn 0.4487 0.6731 0.5878
vn 0.4547 0.6819 0.5730
vn -0.5450 0.6229 -0.5612
vn -0.5450 0.6229 -0.5612
vn -0.5515 0.6210 -0.5570
vn -0.5515 0.6210 -0.5570
vn -0.5515 0.6210 -0.5570
vn -0.5450 0.6229 -0.5612
vn 0.4575 0.6547 0.6017
vn 0.4575 0.6547 0.6017
vn 0.4595 0.6599 0.5945
vn 0.4595 0.6599 0.5945
vn 0.4594 0.6599 0.5946
vn 0.4575 0.6547 0.6017
vn 0.7814 0.6147 0.1074
vn 0.7814 0.6147 0.1074
vn 0.7815 0.6145 0.1074
vn 0.7815 0.6145 0.1074
vn 0.7813 0.6148 0.1074
vn 0.7814 0.6147 0.1074
vn -0.7711 0.6359 0.0331
vn -0.7711 0.6359 0.0332
vn -0.7711 0.6359 0.0332
vn -0.7711 0.6359 0.0332
vn -0.7711 0.6359 0.0331
vn -0.7711 0.6359 0.0331
vn -0.0644 0.6347 -0.7701
vn -0.0644 0.6346 -0.7701
vn -0.0645 0.6346 -0.7701
vn -0.0645 0.6346 -0.7701
vn -0.0646 0.6346 -0.7701
vn -0.0644 0.6347 -0.7701
vn 0.0527 0.6490 0.7590
vn 0.0526 0.6489 0.7591
vn 0.0528 0.6489 0.7590
vn 0.0528 0.6489 0.7590
vn 0.0527 0.6489 0.7590
vn 0.0527 0.6490 0.7590
vn -0.0644 0.6347 -0.7701
vn -0.0644 0.6346 -0.7701
vn -0.0644 0.6346 -0.7702
vn -0.0644 0.6346 -0.7702
vn -0.0645 0.6346 -0.7702
vn -0.0644 0.6347 -0.7701
vn 0.0527 0.6489 0.7590
vn 0.0526 0.6489 0.7591
vn 0.0527 0.6489 0.7591
vn 0.0527 0.6489 0.7591
vn 0.0527 0.6489 0.7590
vn 0.0527 0.6489 0.7590
vn 0.5982 0.6520 -0.4658
vn 0.5983 0.6520 -0.4658
vn 0.5984 0.6520 -0.4657
vn 0.5984 0.6520 -0.4657
vn 0.5984 0.6520 -0.4657
vn 0.5982 0.6520 -0.4658
vn -0.5594 0.6007 0.5711
vn -0.5595 0.6007 0.5711
vn -0.5595 0.6007 0.5711
vn -0.5595 0.6007 0.5711
vn -0.5595 0.6007 0.5711
vn -0.5594 0.6007 0.5711
vn 0.5146 0.6447 -0.5652
vn 0.5146 0.6447 -0.5652
vn 0.5147 0.6446 -0.5653
vn 0.5147 0.6446 -0.5653
vn 0.5147 0.6446 -0.5653
vn 0.5146 0.6447 -0.5652
vn -0.4623 0.6128 0.6409
vn -0.4622 0.6129 0.6408
vn -0.4622 0.6129 0.6408
vn -0.4622 0.6129 0.6408
vn -0.4623 0.6128 0.6409
vn -0.4623 0.6128 0.6409
vn 0.4067 0.6222 -0.6689
vn 0.4067 0.6222 -0.6690
vn 0.4068 0.6221 -0.6689
vn 0.4068 0.6221 -0.6689
vn 0.4068 0.6224 -0.6687
vn 0.4067 0.6222 -0.6689
vn -0.3222 0.6796 0.6590
vn -0.3221 0.6797 0.6590
vn -0.3222 0.6798 0.6588
vn -0.3222 0.6798 0.6588
vn -0.3222 0.6797 0.6590
vn -0.3222 0.6796 0.6590
vn 0.4067 0.6221 -0.6690
vn 0.4068 0.6221 -0.6689
vn 0.4068 0.6221 -0.6689
vn 0.4068 0.6221 -0.6689
vn 0.4067 0.6222 -0.6689
vn 0.4067 0.6221 -0.6690
vn -0.3222 0.6797 0.6590
vn -0.3222 0.6798 0.6589
vn -0.3222 0.6795 0.6592
vn -0.3222 0.6795 0.6592
vn -0.3222 0.6795 0.6591
vn -0.3222 0.6797 0.6590
vn 0.7439 0.6389 -0.1959
vn 0.7439 0.6389 -0.1959
vn 0.7439 0.6390 -0.1960
vn 0.7439 0.6390 -0.1960
vn 0.7439 0.6389 -0.1959
vn 0.7439 0.6389 -0.1959
vn -0.7202 0.6117 0.3274
vn -0.7202 0.6117 0.3273
vn -0.7202 0.6117 0.3273
vn -0.7202 0.6117 0.3273
vn -0.7202 0.6117 0.3273
vn -0.7202 0.6117 0.3274
vn 0.7571 0.6400 -0.1311
vn 0.7571 0.6400 -0.1311
vn 0.7572 0.6398 -0.1311
vn 0.7572 0.6398 -0.1311
vn 0.7571 0.6400 -0.1312
vn 0.7571 0.6400 -0.1311
vn -0.7455 0.6103 0.2680
vn -0.7455 0.6102 0.2680
vn -0.7454 0.6104 0.2679
vn -0.7454 0.6104 0.2679
vn -0.7455 0.6103 0.2680
vn -0.7455 0.6103 0.2680
vn 0.5716 0.7092 0.4126
vn 0.5716 0.7092 0.4126
vn 0.5717 0.7093 0.4125
vn 0.5717 0.7093 0.4125
vn 0.5716 0.7093 0.4125
vn 0.5716 0.7092 0.4126
vn -0.7170 0.6004 -0.3542
vn -0.7171 0.6004 -0.3540
vn -0.7169 0.6005 -0.3542
vn -0.7169 0.6005 -0.3542
vn -0.7170 0.6004 -0.3542
vn -0.7170 0.6004 -0.3542
vn 0.5716 0.7092 0.4126
vn 0.5716 0.7092 0.4126
vn 0.5716 0.7092 0.4127
vn 0.5716 0.7092 0.4127
vn 0.5717 0.7091 0.4127
vn 0.5716 0.7092 0.4126
vn -0.7170 0.6004 -0.3541
vn -0.7169 0.6005 -0.3541
vn -0.7170 0.6004 -0.3541
vn -0.7170 0.6004 -0.3541
vn -0.7170 0.6004 -0.3542
vn -0.7170 0.6004 -0.3541
vn 0.7916 0.6107 -0.0210
vn 0.7916 0.6107 -0.0210
vn 0.7916 0.6107 -0.0210
vn 0.7916 0.6107 -0.0210
vn 0.7916 0.6107 -0.0210
vn 0.7916 0.6107 -0.0210
vn -0.7497 0.6430 0.1564
vn -0.7500 0.6427 0.1565
vn -0.7499 0.6427 0.1566
vn -0.7499 0.6427 0.1566
vn -0.7497 0.6430 0.1566
vn -0.7497 0.6430 0.1564
vn 0.5690 0.6933 -0.4422
vn 0.5690 0.6935 -0.4420
vn 0.5689 0.6936 -0.4419
vn 0.5689 0.6936 -0.4419
vn 0.5690 0.6933 -0.4422
vn 0.5690 0.6933 -0.4422
vn -0.5771 0.5648 0.5899
vn -0.5771 0.5645 0.5901
vn -0.5770 0.5648 0.5900
vn -0.5770 0.5648 0.5900
vn -0.5770 0.5649 0.5899
vn -0.5771 0.5648 0.5899
vn -0.0019 0.6572 -0.7537
vn -0.0019 0.6572 -0.7537
vn -0.0019 0.6574 -0.7536
vn -0.0019 0.6574 -0.7536
vn -0.0019 0.6571 -0.7538
vn -0.0019 0.6572 -0.7537
vn 0.0017 0.6019 0.7985
vn 0.0018 0.6021 0.7984
vn 0.0017 0.6021 0.7984
vn 0.0017 0.6021 0.7984
vn 0.0018 0.6020 0.7985
vn 0.0017 0.6019 0.7985
vn -0.6780 0.6164 -0.4005
vn -0.6779 0.6164 -0.4006
vn -0.6779 0.6165 -0.4005
vn -0.6779 0.6165 -0.4005
vn -0.6779 0.6164 -0.4006
vn -0.6780 0.6164 -0.4005
vn 0.5863 0.6538 0.4784
vn 0.5862 0.6539 0.4783
vn 0.5863 0.6537 0.4785
vn 0.5863 0.6537 0.4785
vn 0.5862 0.6538 0.4784
vn 0.5863 0.6538 0.4784
vn -0.7724 0.6096 0.1783
vn -0.7725 0.6095 0.1783
vn -0.7724 0.6096 0.1783
vn -0.7724 0.6096 0.1783
vn -0.7724 0.6096 0.1782
vn -0.7724 0.6096 0.1783
vn 0.7667 0.6409 -0.0376
vn 0.7667 0.6409 -0.0376
vn 0.7667 0.6409 -0.0376
vn 0.7667 0.6409 -0.0376
vn 0.7666 0.6410 -0.0375
vn 0.7667 0.6409 -0.0376
vn -0.5273 0.6732 -0.5185
vn -0.5271 0.6714 -0.5209
vn -0.5247 0.6538 -0.5452
vn -0.5247 0.6538 -0.5452
vn -0.5247 0.6538 -0.5452
vn -0.5273 0.6732 -0.5185
vn 0.4835 0.6005 0.6369
vn 0.5059 0.5815 0.6371
vn 0.5080 0.5796 0.6372
vn 0.5080 0.5796 0.6372
vn 0.4836 0.6003 0.6370
vn 0.4835 0.6005 0.6369
vn -0.5352 0.6547 -0.5338
vn -0.5353 0.6546 -0.5338
vn -0.5336 0.6711 -0.5147
vn -0.5336 0.6711 -0.5147
vn -0.5330 0.6733 -0.5125
vn -0.5352 0.6547 -0.5338
vn 0.4956 0.5989 0.6291
vn 0.4956 0.5989 0.6291
vn 0.5142 0.5798 0.6320
vn 0.5142 0.5798 0.6320
vn 0.5126 0.5816 0.6316
vn 0.4956 0.5989 0.6291
vn -0.5330 0.6733 -0.5125
vn -0.5336 0.6711 -0.5147
vn -0.5271 0.6714 -0.5209
vn -0.5271 0.6714 -0.5209
vn -0.5273 0.6732 -0.5185
vn -0.5330 0.6733 -0.5125
vn 0.5126 0.5816 0.6316
vn 0.5142 0.5798 0.6320
vn 0.5080 0.5796 0.6372
vn 0.5080 0.5796 0.6372
vn 0.5059 0.5815 0.6371
vn 0.5126 0.5816 0.6316
vn -0.5329 0.6561 -0.5344
vn -0.5329 0.6562 -0.5343
vn -0.5353 0.6546 -0.5338
vn -0.5353 0.6546 -0.5338
vn -0.5352 0.6547 -0.5338
vn -0.5329 0.6561 -0.5344
vn 0.4948 0.5972 0.6312
vn 0.4949 0.5972 0.6313
vn 0.4956 0.5989 0.6291
vn 0.4956 0.5989 0.6291
vn 0.4956 0.5989 0.6291
vn 0.4948 0.5972 0.6312
vn -0.5822 0.5622 0.5874
vn -0.5832 0.5662 0.5825
vn -0.5854 0.5768 0.5698
vn -0.5854 0.5768 0.5698
vn -0.5853 0.5768 0.5698
vn -0.5822 0.5622 0.5874
vn 0.5931 0.6767 -0.4362
vn 0.5760 0.6918 -0.4355
vn 0.5690 0.6978 -0.4350
vn 0.5690 0.6978 -0.4350
vn 0.5931 0.6767 -0.4362
vn 0.5931 0.6767 -0.4362
vn -0.5749 0.5734 0.5837
vn -0.5749 0.5734 0.5836
vn -0.5758 0.5610 0.5948
vn -0.5758 0.5610 0.5948
vn -0.5758 0.5610 0.5948
vn -0.5749 0.5734 0.5837
vn 0.5795 0.6811 -0.4475
vn 0.5795 0.6812 -0.4475
vn 0.5617 0.6999 -0.4412
vn 0.5617 0.6999 -0.4412
vn 0.5619 0.6997 -0.4413
vn 0.5795 0.6811 -0.4475
vn -0.5758 0.5610 0.5948
vn -0.5758 0.5610 0.5948
vn -0.5832 0.5662 0.5825
vn -0.5832 0.5662 0.5825
vn -0.5822 0.5622 0.5874
vn -0.5758 0.5610 0.5948
vn 0.5619 0.6997 -0.4413
vn 0.5617 0.6999 -0.4412
vn 0.5690 0.6978 -0.4350
vn 0.5690 0.6978 -0.4350
vn 0.5760 0.6918 -0.4355
vn 0.5619 0.6997 -0.4413
vn -0.5772 0.5769 0.5779
vn -0.5772 0.5769 0.5779
vn -0.5749 0.5734 0.5836
vn -0.5749 0.5734 0.5836
vn -0.5749 0.5734 0.5837
vn -0.5772 0.5769 0.5779
vn 0.5861 0.6767 -0.4456
vn 0.5861 0.6767 -0.4457
vn 0.5795 0.6812 -0.4475
vn 0.5795 0.6812 -0.4475
vn 0.5795 0.6811 -0.4475
vn 0.5861 0.6767 -0.4456
vn 0.0070 0.6572 -0.7537
vn 0.0070 0.6572 -0.7537
vn 0.0072 0.6574 -0.7535
vn 0.0072 0.6574 -0.7535
vn 0.0072 0.6574 -0.7535
vn 0.0070 0.6572 -0.7537
vn -0.0062 0.6021 0.7984
vn -0.0062 0.6021 0.7984
vn -0.0062 0.6021 0.7984
vn -0.0062 0.6021 0.7984
vn -0.0062 0.6022 0.7983
vn -0.0062 0.6021 0.7984
vn -0.7828 0.6023 0.1564
vn -0.7828 0.6023 0.1565
vn -0.7828 0.6023 0.1564
vn -0.7828 0.6023 0.1564
vn -0.7827 0.6024 0.1565
vn -0.7828 0.6023 0.1564
vn 0.7596 0.6502 -0.0137
vn 0.7596 0.6502 -0.0137
vn 0.7597 0.6502 -0.0138
vn 0.7597 0.6502 -0.0138
vn 0.7596 0.6502 -0.0138
vn 0.7596 0.6502 -0.0137
vn -0.7828 0.6023 0.1564
vn -0.7828 0.6023 0.1565
vn -0.7828 0.6023 0.1564
vn -0.7828 0.6023 0.1564
vn -0.7828 0.6023 0.1565
vn -0.7828 0.6023 0.1564
vn 0.7597 0.6502 -0.0137
vn 0.7596 0.6502 -0.0137
vn 0.7596 0.6502 -0.0137
vn 0.7596 0.6502 -0.0137
vn 0.7596 0.6502 -0.0137
vn 0.7597 0.6502 -0.0137
vn -0.5441 0.6719 -0.5026
vn -0.5441 0.6719 -0.5026
vn -0.5440 0.6719 -0.5026
vn -0.5440 0.6719 -0.5026
vn -0.5440 0.6719 -0.5026
vn -0.5441 0.6719 -0.5026
vn 0.5248 0.5808 0.6223
vn 0.5247 0.5808 0.6224
vn 0.5247 0.5808 0.6224
vn 0.5247 0.5808 0.6224
vn 0.5248 0.5808 0.6223
vn 0.5248 0.5808 0.6223
vn -0.6365 0.6557 -0.4061
vn -0.6364 0.6557 -0.4062
vn -0.6364 0.6557 -0.4062
vn -0.6364 0.6557 -0.4062
vn -0.6364 0.6557 -0.4062
vn -0.6365 0.6557 -0.4061
vn 0.6079 0.5959 0.5247
vn 0.6078 0.5960 0.5247
vn 0.6079 0.5959 0.5248
vn 0.6079 0.5959 0.5248
vn 0.6079 0.5959 0.5248
vn 0.6079 0.5959 0.5247
vn -0.7449 0.6087 -0.2732
vn -0.7449 0.6087 -0.2732
vn -0.7451 0.6083 -0.2734
vn -0.7451 0.6083 -0.2734
vn -0.7449 0.6087 -0.2733
vn -0.7449 0.6087 -0.2732
vn 0.6526 0.6601 0.3721
vn 0.6526 0.6599 0.3722
vn 0.6526 0.6599 0.3722
vn 0.6526 0.6599 0.3722
vn 0.6525 0.6602 0.3720
vn 0.6526 0.6601 0.3721
vn -0.7449 0.6087 -0.2732
vn -0.7450 0.6085 -0.2732
vn -0.7451 0.6084 -0.2733
vn -0.7451 0.6084 -0.2733
vn -0.7451 0.6084 -0.2733
vn -0.7449 0.6087 -0.2732
vn 0.6525 0.6602 0.3720
vn 0.6527 0.6599 0.3721
vn 0.6527 0.6599 0.3722
vn 0.6527 0.6599 0.3722
vn 0.6525 0.6602 0.3720
vn 0.6525 0.6602 0.3720
vn -0.2945 0.6718 -0.6797
vn -0.2945 0.6718 -0.6797
vn -0.2943 0.6719 -0.6797
vn -0.2943 0.6719 -0.6797
vn -0.2945 0.6717 -0.6797
vn -0.2945 0.6718 -0.6797
vn 0.2732 0.5823 0.7657
vn 0.2733 0.5823 0.7657
vn 0.2733 0.5822 0.7657
vn 0.2733 0.5822 0.7657
vn 0.2733 0.5823 0.7657
vn 0.2732 0.5823 0.7657
vn -0.2279 0.6749 -0.7018
vn -0.2279 0.6749 -0.7019
vn -0.2279 0.6749 -0.7019
vn -0.2279 0.6749 -0.7019
vn -0.2280 0.6748 -0.7019
vn -0.2279 0.6749 -0.7018
vn 0.2117 0.5793 0.7871
vn 0.2117 0.5793 0.7872
vn 0.2117 0.5793 0.7871
vn 0.2117 0.5793 0.7871
vn 0.2117 0.5793 0.7871
vn 0.2117 0.5793 0.7871
vn 0.3915 0.7314 -0.5584
vn 0.3916 0.7314 -0.5584
vn 0.3914 0.7315 -0.5583
vn 0.3914 0.7315 -0.5583
vn 0.3916 0.7314 -0.5583
vn 0.3915 0.7314 -0.5584
vn -0.4118 0.5415 0.7329
vn -0.4118 0.5416 0.7329
vn -0.4118 0.5416 0.7329
vn -0.4118 0.5416 0.7329
vn -0.4118 0.5416 0.7329
vn -0.4118 0.5415 0.7329
vn 0.3915 0.7313 -0.5584
vn 0.3916 0.7313 -0.5584
vn 0.3916 0.7313 -0.5584
vn 0.3916 0.7313 -0.5584
vn 0.3915 0.7314 -0.5584
vn 0.3915 0.7313 -0.5584
vn -0.4118 0.5416 0.7329
vn -0.4118 0.5415 0.7330
vn -0.4117 0.5416 0.7329
vn -0.4117 0.5416 0.7329
vn -0.4117 0.5416 0.7329
vn -0.4118 0.5416 0.7329
vn -0.1358 0.6511 -0.7468
vn -0.1358 0.6512 -0.7466
vn -0.1358 0.6512 -0.7466
vn -0.1358 0.6512 -0.7466
vn -0.1358 0.6509 -0.7469
vn -0.1358 0.6511 -0.7468
vn 0.1184 0.6111 0.7827
vn 0.1184 0.6111 0.7827
vn 0.1184 0.6111 0.7827
vn 0.1184 0.6111 0.7827
vn 0.1184 0.6111 0.7827
vn 0.1184 0.6111 0.7827
vn -0.4990 0.7176 -0.4859
vn -0.4990 0.7176 -0.4858
vn -0.4988 0.7179 -0.4856
vn -0.4988 0.7179 -0.4856
vn -0.4988 0.7179 -0.4857
vn -0.4990 0.7176 -0.4859
vn 0.5214 0.5500 0.6524
vn 0.5214 0.5500 0.6523
vn 0.5214 0.5501 0.6524
vn 0.5214 0.5501 0.6524
vn 0.5215 0.5500 0.6523
vn 0.5214 0.5500 0.6524
vn -0.7614 0.6416 0.0928
vn -0.7614 0.6416 0.0928
vn -0.7613 0.6417 0.0929
vn -0.7613 0.6417 0.0929
vn -0.7613 0.6417 0.0930
vn -0.7614 0.6416 0.0928
vn 0.7907 0.6104 0.0464
vn 0.7908 0.6103 0.0466
vn 0.7908 0.6103 0.0466
vn 0.7908 0.6103 0.0466
vn 0.7907 0.6105 0.0464
vn 0.7907 0.6104 0.0464
vn -0.4314 0.5710 0.6985
vn -0.4313 0.5712 0.6984
vn -0.4314 0.5710 0.6985
vn -0.4314 0.5710 0.6985
vn -0.4312 0.5713 0.6983
vn -0.4314 0.5710 0.6985
vn 0.4454 0.6832 -0.5787
vn 0.4454 0.6832 -0.5787
vn 0.4454 0.6832 -0.5787
vn 0.4454 0.6832 -0.5787
vn 0.4453 0.6832 -0.5787
vn 0.4454 0.6832 -0.5787
vn 0.1208 0.5764 0.8082
vn 0.1208 0.5764 0.8082
vn 0.1208 0.5762 0.8083
vn 0.1208 0.5762 0.8083
vn 0.1208 0.5763 0.8083
vn 0.1208 0.5764 0.8082
vn -0.1301 0.6781 -0.7233
vn -0.1300 0.6783 -0.7232
vn -0.1300 0.6780 -0.7234
vn -0.1300 0.6780 -0.7234
vn -0.1300 0.6783 -0.7232
vn -0.1301 0.6781 -0.7233
# 1440 vertex normals

vt 0.9727 0.5684 0.0000
vt 0.9727 0.5731 0.0000
vt 0.9570 0.5684 0.0000
vt 0.9570 0.5731 0.0000
vt 0.9570 0.5684 0.0000
vt 0.9727 0.5684 0.0000
vt 0.9727 0.5731 0.0000
vt 0.9570 0.5731 0.0000
vt 0.9648 0.5731 0.0000
vt 0.9648 0.5684 0.0000
vt 0.9648 0.5684 0.0000
vt 0.9648 0.5731 0.0000
vt 0.9687 0.5731 0.0000
vt 0.9609 0.5684 0.0000
vt 0.9687 0.5684 0.0000
vt 0.9609 0.5731 0.0000
vt 0.9609 0.5731 0.0000
vt 0.9687 0.5684 0.0000
vt 0.9609 0.5684 0.0000
vt 0.9687 0.5731 0.0000
vt 0.9727 0.5684 0.0000
vt 0.9727 0.5731 0.0000
vt 0.9570 0.5684 0.0000
vt 0.9570 0.5731 0.0000
vt 0.9570 0.5684 0.0000
vt 0.9727 0.5684 0.0000
vt 0.9727 0.5731 0.0000
vt 0.9570 0.5731 0.0000
vt 0.9648 0.5731 0.0000
vt 0.9648 0.5684 0.0000
vt 0.9648 0.5684 0.0000
vt 0.9648 0.5731 0.0000
vt 0.9687 0.5731 0.0000
vt 0.9609 0.5684 0.0000
vt 0.9687 0.5684 0.0000
vt 0.9609 0.5731 0.0000
vt 0.9609 0.5731 0.0000
vt 0.9687 0.5684 0.0000
vt 0.9609 0.5684 0.0000
vt 0.9687 0.5731 0.0000
vt 0.9980 0.6485 0.0000
vt 0.9980 0.8235 0.0000
vt 0.4619 0.6485 0.0000
vt 0.4619 0.8235 0.0000
vt 0.9980 0.6485 0.0000
vt 0.9980 0.8235 0.0000
vt 0.4619 0.8235 0.0000
vt 0.4619 0.6485 0.0000
vt 0.9980 0.4737 0.0000
vt 0.9980 0.6487 0.0000
vt 0.4619 0.4737 0.0000
vt 0.4619 0.6487 0.0000
vt 0.9980 0.4737 0.0000
vt 0.9980 0.6487 0.0000
vt 0.4619 0.6487 0.0000
vt 0.4619 0.4737 0.0000
vt 0.9980 0.4737 0.0000
vt 0.9980 0.6487 0.0000
vt 0.4619 0.4737 0.0000
vt 0.4619 0.6487 0.0000
vt 0.9980 0.4737 0.0000
vt 0.9980 0.6487 0.0000
vt 0.4619 0.6487 0.0000
vt 0.4619 0.4737 0.0000
vt 0.9980 0.4737 0.0000
vt 0.9980 0.6487 0.0000
vt 0.4619 0.4737 0.0000
vt 0.4619 0.6487 0.0000
vt 0.9980 0.4737 0.0000
vt 0.9980 0.6487 0.0000
vt 0.4619 0.6487 0.0000
vt 0.4619 0.4737 0.0000
vt 0.9980 0.4737 0.0000
vt 0.9980 0.6487 0.0000
vt 0.4619 0.4737 0.0000
vt 0.4619 0.6487 0.0000
vt 0.9980 0.4737 0.0000
vt 0.9980 0.6487 0.0000
vt 0.4619 0.6487 0.0000
vt 0.4619 0.4737 0.0000
vt 0.9980 0.6485 0.0000
vt 0.9980 0.8235 0.0000
vt 0.4619 0.6485 0.0000
vt 0.4619 0.8235 0.0000
vt 0.9980 0.6485 0.0000
vt 0.9980 0.8235 0.0000
vt 0.4619 0.8235 0.0000
vt 0.4619 0.6485 0.0000
vt 0.9980 0.6485 0.0000
vt 0.9980 0.8235 0.0000
vt 0.4619 0.6485 0.0000
vt 0.4619 0.8235 0.0000
vt 0.9980 0.6485 0.0000
vt 0.9980 0.8235 0.0000
vt 0.4619 0.8235 0.0000
vt 0.4619 0.6485 0.0000
vt 0.9980 0.4737 0.0000
vt 0.9980 0.6487 0.0000
vt 0.4619 0.4737 0.0000
vt 0.4619 0.6487 0.0000
vt 0.9980 0.4737 0.0000
vt 0.9980 0.6487 0.0000
vt 0.4619 0.6487 0.0000
vt 0.4619 0.4737 0.0000
vt 0.9980 0.4737 0.0000
vt 0.9980 0.6487 0.0000
vt 0.4619 0.4737 0.0000
vt 0.4619 0.6487 0.0000
vt 0.9980 0.4737 0.0000
vt 0.9980 0.6487 0.0000
vt 0.4619 0.6487 0.0000
vt 0.4619 0.4737 0.0000
vt 0.9980 0.4737 0.0000
vt 0.9980 0.6487 0.0000
vt 0.4619 0.4737 0.0000
vt 0.4619 0.6487 0.0000
vt 0.9980 0.4737 0.0000
vt 0.9980 0.6487 0.0000
vt 0.4619 0.6487 0.0000
vt 0.4619 0.4737 0.0000
vt 0.9980 0.4737 0.0000
vt 0.9980 0.6487 0.0000
vt 0.4619 0.4737 0.0000
vt 0.4619 0.6487 0.0000
vt 0.9980 0.4737 0.0000
vt 0.9980 0.6487 0.0000
vt 0.4619 0.6487 0.0000
vt 0.4619 0.4737 0.0000
vt 0.9980 0.6485 0.0000
vt 0.9980 0.8235 0.0000
vt 0.4619 0.6485 0.0000
vt 0.4619 0.8235 0.0000
vt 0.9980 0.6485 0.0000
vt 0.9980 0.8235 0.0000
vt 0.4619 0.8235 0.0000
vt 0.4619 0.6485 0.0000
vt 0.9980 0.8258 0.0000
vt 0.9980 1.0007 0.0000
vt 0.4619 0.8258 0.0000
vt 0.4619 1.0007 0.0000
vt 0.9980 0.8258 0.0000
vt 0.9980 1.0007 0.0000
vt 0.4619 1.0007 0.0000
vt 0.4619 0.8258 0.0000
vt 0.9980 0.6485 0.0000
vt 0.9980 0.8235 0.0000
vt 0.4619 0.6485 0.0000
vt 0.4619 0.8235 0.0000
vt 0.9980 0.6485 0.0000
vt 0.9980 0.8235 0.0000
vt 0.4619 0.8235 0.0000
vt 0.4619 0.6485 0.0000
vt 0.9980 0.6485 0.0000
vt 0.9980 0.8235 0.0000
vt 0.4619 0.6485 0.0000
vt 0.4619 0.8235 0.0000
vt 0.9980 0.6485 0.0000
vt 0.9980 0.8235 0.0000
vt 0.4619 0.8235 0.0000
vt 0.4619 0.6485 0.0000
vt 0.9980 0.6485 0.0000
vt 0.9980 0.8235 0.0000
vt 0.4619 0.6485 0.0000
vt 0.4619 0.8235 0.0000
vt 0.9980 0.6485 0.0000
vt 0.9980 0.8235 0.0000
vt 0.4619 0.8235 0.0000
vt 0.4619 0.6485 0.0000
vt 0.9727 0.5684 0.0000
vt 0.9727 0.5731 0.0000
vt 0.9570 0.5684 0.0000
vt 0.9570 0.5731 0.0000
vt 0.9570 0.5684 0.0000
vt 0.9727 0.5684 0.0000
vt 0.9727 0.5731 0.0000
vt 0.9570 0.5731 0.0000
vt 0.9648 0.5731 0.0000
vt 0.9648 0.5684 0.0000
vt 0.9648 0.5684 0.0000
vt 0.9648 0.5731 0.0000
vt 0.9687 0.5731 0.0000
vt 0.9609 0.5684 0.0000
vt 0.9687 0.5684 0.0000
vt 0.9609 0.5731 0.0000
vt 0.9609 0.5731 0.0000
vt 0.9687 0.5684 0.0000
vt 0.9609 0.5684 0.0000
vt 0.9687 0.5731 0.0000
vt 0.9727 0.5684 0.0000
vt 0.9727 0.5731 0.0000
vt 0.9570 0.5684 0.0000
vt 0.9570 0.5731 0.0000
vt 0.9570 0.5684 0.0000
vt 0.9727 0.5684 0.0000
vt 0.9727 0.5731 0.0000
vt 0.9570 0.5731 0.0000
vt 0.9648 0.5731 0.0000
vt 0.9648 0.5684 0.0000
vt 0.9648 0.5684 0.0000
vt 0.9648 0.5731 0.0000
vt 0.9687 0.5731 0.0000
vt 0.9609 0.5684 0.0000
vt 0.9687 0.5684 0.0000
vt 0.9609 0.5731 0.0000
vt 0.9609 0.5731 0.0000
vt 0.9687 0.5684 0.0000
vt 0.9609 0.5684 0.0000
vt 0.9687 0.5731 0.0000
vt 0.9980 0.6485 0.0000
vt 0.9980 0.8235 0.0000
vt 0.4619 0.6485 0.0000
vt 0.4619 0.8235 0.0000
vt 0.9980 0.6485 0.0000
vt 0.9980 0.8235 0.0000
vt 0.4619 0.8235 0.0000
vt 0.4619 0.6485 0.0000
vt 0.9980 0.4737 0.0000
vt 0.9980 0.6487 0.0000
vt 0.4619 0.4737 0.0000
vt 0.4619 0.6487 0.0000
vt 0.9980 0.4737 0.0000
vt 0.9980 0.6487 0.0000
vt 0.4619 0.6487 0.0000
vt 0.4619 0.4737 0.0000
vt 0.9980 0.4737 0.0000
vt 0.9980 0.6487 0.0000
vt 0.4619 0.4737 0.0000
vt 0.4619 0.6487 0.0000
vt 0.9980 0.4737 0.0000
vt 0.9980 0.6487 0.0000
vt 0.4619 0.6487 0.0000
vt 0.4619 0.4737 0.0000
vt 0.9980 0.4737 0.0000
vt 0.9980 0.6487 0.0000
vt 0.4619 0.4737 0.0000
vt 0.4619 0.6487 0.0000
vt 0.9980 0.4737 0.0000
vt 0.9980 0.6487 0.0000
vt 0.4619 0.6487 0.0000
vt 0.4619 0.4737 0.0000
vt 0.9980 0.4737 0.0000
vt 0.9980 0.6487 0.0000
vt 0.4619 0.4737 0.0000
vt 0.4619 0.6487 0.0000
vt 0.9980 0.4737 0.0000
vt 0.9980 0.6487 0.0000
vt 0.4619 0.6487 0.0000
vt 0.4619 0.4737 0.0000
vt 0.9980 0.6485 0.0000
vt 0.9980 0.8235 0.0000
vt 0.4619 0.6485 0.0000
vt 0.4619 0.8235 0.0000
vt 0.9980 0.6485 0.0000
vt 0.9980 0.8235 0.0000
vt 0.4619 0.8235 0.0000
vt 0.4619 0.6485 0.0000
vt 0.9980 0.6485 0.0000
vt 0.9980 0.8235 0.0000
vt 0.4619 0.6485 0.0000
vt 0.4619 0.8235 0.0000
vt 0.9980 0.6485 0.0000
vt 0.9980 0.8235 0.0000
vt 0.4619 0.8235 0.0000
vt 0.4619 0.6485 0.0000
vt 0.9980 0.4737 0.0000
vt 0.9980 0.6487 0.0000
vt 0.4619 0.4737 0.0000
vt 0.4619 0.6487 0.0000
vt 0.9980 0.4737 0.0000
vt 0.9980 0.6487 0.0000
vt 0.4619 0.6487 0.0000
vt 0.4619 0.4737 0.0000
vt 0.9980 0.4737 0.0000
vt 0.9980 0.6487 0.0000
vt 0.4619 0.4737 0.0000
vt 0.4619 0.6487 0.0000
vt 0.9980 0.4737 0.0000
vt 0.9980 0.6487 0.0000
vt 0.4619 0.6487 0.0000
vt 0.4619 0.4737 0.0000
vt 0.9980 0.6487 0.0000
vt 0.9980 0.8236 0.0000
vt 0.4619 0.6487 0.0000
vt 0.4619 0.8236 0.0000
vt 0.9980 0.6487 0.0000
vt 0.9980 0.8236 0.0000
vt 0.4619 0.8236 0.0000
vt 0.4619 0.6487 0.0000
vt 0.9980 0.4737 0.0000
vt 0.9980 0.6487 0.0000
vt 0.4619 0.4737 0.0000
vt 0.4619 0.6487 0.0000
vt 0.9980 0.4737 0.0000
vt 0.9980 0.6487 0.0000
vt 0.4619 0.6487 0.0000
vt 0.4619 0.4737 0.0000
vt 0.9980 0.6485 0.0000
vt 0.9980 0.8235 0.0000
vt 0.4619 0.6485 0.0000
vt 0.4619 0.8235 0.0000
vt 0.9980 0.6485 0.0000
vt 0.9980 0.8235 0.0000
vt 0.4619 0.8235 0.0000
vt 0.4619 0.6485 0.0000
vt 0.9980 0.8258 0.0000
vt 0.9980 1.0007 0.0000
vt 0.4619 0.8258 0.0000
vt 0.4619 1.0007 0.0000
vt 0.9980 0.8258 0.0000
vt 0.9980 1.0007 0.0000
vt 0.4619 1.0007 0.0000
vt 0.4619 0.8258 0.0000
vt 0.9980 0.6485 0.0000
vt 0.9980 0.8235 0.0000
vt 0.4619 0.6485 0.0000
vt 0.4619 0.8235 0.0000
vt 0.9980 0.6485 0.0000
vt 0.9980 0.8235 0.0000
vt 0.4619 0.8235 0.0000
vt 0.4619 0.6485 0.0000
vt 0.9980 0.6485 0.0000
vt 0.9980 0.8235 0.0000
vt 0.4619 0.6485 0.0000
vt 0.4619 0.8235 0.0000
vt 0.9980 0.6485 0.0000
vt 0.9980 0.8235 0.0000
vt 0.4619 0.8235 0.0000
vt 0.4619 0.6485 0.0000
vt 0.9980 0.8258 0.0000
vt 0.9980 1.0007 0.0000
vt 0.4619 0.8258 0.0000
vt 0.4619 1.0007 0.0000
vt 0.9980 0.8258 0.0000
vt 0.9980 1.0007 0.0000
vt 0.4619 1.0007 0.0000
vt 0.4619 0.8258 0.0000
vt 0.9727 0.5684 0.0000
vt 0.9727 0.5731 0.0000
vt 0.9570 0.5684 0.0000
vt 0.9570 0.5731 0.0000
vt 0.9570 0.5684 0.0000
vt 0.9727 0.5684 0.0000
vt 0.9727 0.5731 0.0000
vt 0.9570 0.5731 0.0000
vt 0.9648 0.5731 0.0000
vt 0.9648 0.5684 0.0000
vt 0.9648 0.5684 0.0000
vt 0.9648 0.5731 0.0000
vt 0.9687 0.5731 0.0000
vt 0.9609 0.5684 0.0000
vt 0.9687 0.5684 0.0000
vt 0.9609 0.5731 0.0000
vt 0.9609 0.5731 0.0000
vt 0.9687 0.5684 0.0000
vt 0.9609 0.5684 0.0000
vt 0.9687 0.5731 0.0000
vt 0.9727 0.5684 0.0000
vt 0.9727 0.5731 0.0000
vt 0.9570 0.5684 0.0000
vt 0.9570 0.5731 0.0000
vt 0.9570 0.5684 0.0000
vt 0.9727 0.5684 0.0000
vt 0.9727 0.5731 0.0000
vt 0.9570 0.5731 0.0000
vt 0.9648 0.5731 0.0000
vt 0.9648 0.5684 0.0000
vt 0.9648 0.5684 0.0000
vt 0.9648 0.5731 0.0000
vt 0.9687 0.5731 0.0000
vt 0.9609 0.5684 0.0000
vt 0.9687 0.5684 0.0000
vt 0.9609 0.5731 0.0000
vt 0.9609 0.5731 0.0000
vt 0.9687 0.5684 0.0000
vt 0.9609 0.5684 0.0000
vt 0.9687 0.5731 0.0000
vt 0.9980 0.6485 0.0000
vt 0.9980 0.8235 0.0000
vt 0.4619 0.6485 0.0000
vt 0.4619 0.8235 0.0000
vt 0.9980 0.6485 0.0000
vt 0.9980 0.8235 0.0000
vt 0.4619 0.8235 0.0000
vt 0.4619 0.6485 0.0000
vt 0.9980 0.4737 0.0000
vt 0.9980 0.6487 0.0000
vt 0.4619 0.4737 0.0000
vt 0.4619 0.6487 0.0000
vt 0.9980 0.4737 0.0000
vt 0.9980 0.6487 0.0000
vt 0.4619 0.6487 0.0000
vt 0.4619 0.4737 0.0000
vt 0.9980 0.4737 0.0000
vt 0.9980 0.6487 0.0000
vt 0.4619 0.4737 0.0000
vt 0.4619 0.6487 0.0000
vt 0.9980 0.4737 0.0000
vt 0.9980 0.6487 0.0000
vt 0.4619 0.6487 0.0000
vt 0.4619 0.4737 0.0000
vt 0.9980 0.6487 0.0000
vt 0.9980 0.8236 0.0000
vt 0.4619 0.6487 0.0000
vt 0.4619 0.8236 0.0000
vt 0.9980 0.6487 0.0000
vt 0.9980 0.8236 0.0000
vt 0.4619 0.8236 0.0000
vt 0.4619 0.6487 0.0000
vt 0.9980 0.4737 0.0000
vt 0.9980 0.6487 0.0000
vt 0.4619 0.4737 0.0000
vt 0.4619 0.6487 0.0000
vt 0.9980 0.4737 0.0000
vt 0.9980 0.6487 0.0000
vt 0.4619 0.6487 0.0000
vt 0.4619 0.4737 0.0000
vt 0.9980 0.6485 0.0000
vt 0.9980 0.8235 0.0000
vt 0.4619 0.6485 0.0000
vt 0.4619 0.8235 0.0000
vt 0.9980 0.6485 0.0000
vt 0.9980 0.8235 0.0000
vt 0.4619 0.8235 0.0000
vt 0.4619 0.6485 0.0000
vt 0.9980 0.6485 0.0000
vt 0.9980 0.8235 0.0000
vt 0.4619 0.6485 0.0000
vt 0.4619 0.8235 0.0000
vt 0.9980 0.6485 0.0000
vt 0.9980 0.8235 0.0000
vt 0.4619 0.8235 0.0000
vt 0.4619 0.6485 0.0000
vt 0.9980 0.4737 0.0000
vt 0.9980 0.6487 0.0000
vt 0.4619 0.4737 0.0000
vt 0.4619 0.6487 0.0000
vt 0.9980 0.4737 0.0000
vt 0.9980 0.6487 0.0000
vt 0.4619 0.6487 0.0000
vt 0.4619 0.4737 0.0000
vt 0.9980 0.4737 0.0000
vt 0.9980 0.6487 0.0000
vt 0.4619 0.4737 0.0000
vt 0.4619 0.6487 0.0000
vt 0.9980 0.4737 0.0000
vt 0.9980 0.6487 0.0000
vt 0.4619 0.6487 0.0000
vt 0.4619 0.4737 0.0000
vt 0.9980 0.6487 0.0000
vt 0.9980 0.8236 0.0000
vt 0.4619 0.6487 0.0000
vt 0.4619 0.8236 0.0000
vt 0.9980 0.6487 0.0000
vt 0.9980 0.8236 0.0000
vt 0.4619 0.8236 0.0000
vt 0.4619 0.6487 0.0000
vt 0.9980 0.6487 0.0000
vt 0.9980 0.8236 0.0000
vt 0.4619 0.6487 0.0000
vt 0.4619 0.8236 0.0000
vt 0.9980 0.6487 0.0000
vt 0.9980 0.8236 0.0000
vt 0.4619 0.8236 0.0000
vt 0.4619 0.6487 0.0000
vt 0.9980 0.6485 0.0000
vt 0.9980 0.8235 0.0000
vt 0.4619 0.6485 0.0000
vt 0.4619 0.8235 0.0000
vt 0.9980 0.6485 0.0000
vt 0.9980 0.8235 0.0000
vt 0.4619 0.8235 0.0000
vt 0.4619 0.6485 0.0000
vt 0.9980 0.8258 0.0000
vt 0.9980 1.0007 0.0000
vt 0.4619 0.8258 0.0000
vt 0.4619 1.0007 0.0000
vt 0.9980 0.8258 0.0000
vt 0.9980 1.0007 0.0000
vt 0.4619 1.0007 0.0000
vt 0.4619 0.8258 0.0000
vt 0.9980 0.6485 0.0000
vt 0.9980 0.8235 0.0000
vt 0.4619 0.6485 0.0000
vt 0.4619 0.8235 0.0000
vt 0.9980 0.6485 0.0000
vt 0.9980 0.8235 0.0000
vt 0.4619 0.8235 0.0000
vt 0.4619 0.6485 0.0000
vt 0.9980 0.6485 0.0000
vt 0.9980 0.8235 0.0000
vt 0.4619 0.6485 0.0000
vt 0.4619 0.8235 0.0000
vt 0.9980 0.6485 0.0000
vt 0.9980 0.8235 0.0000
vt 0.4619 0.8235 0.0000
vt 0.4619 0.6485 0.0000
vt 0.9980 0.6485 0.0000
vt 0.9980 0.8235 0.0000
vt 0.4619 0.6485 0.0000
vt 0.4619 0.8235 0.0000
vt 0.9980 0.6485 0.0000
vt 0.9980 0.8235 0.0000
vt 0.4619 0.8235 0.0000
vt 0.4619 0.6485 0.0000
vt 0.9727 0.5684 0.0000
vt 0.9727 0.5731 0.0000
vt 0.9570 0.5684 0.0000
vt 0.9570 0.5731 0.0000
vt 0.9570 0.5684 0.0000
vt 0.9727 0.5684 0.0000
vt 0.9727 0.5731 0.0000
vt 0.9570 0.5731 0.0000
vt 0.9648 0.5731 0.0000
vt 0.9648 0.5684 0.0000
vt 0.9648 0.5684 0.0000
vt 0.9648 0.5731 0.0000
vt 0.9687 0.5731 0.0000
vt 0.9609 0.5684 0.0000
vt 0.9687 0.5684 0.0000
vt 0.9609 0.5731 0.0000
vt 0.9609 0.5731 0.0000
vt 0.9687 0.5684 0.0000
vt 0.9609 0.5684 0.0000
vt 0.9687 0.5731 0.0000
vt 0.9727 0.5684 0.0000
vt 0.9727 0.5731 0.0000
vt 0.9570 0.5684 0.0000
vt 0.9570 0.5731 0.0000
vt 0.9570 0.5684 0.0000
vt 0.9727 0.5684 0.0000
vt 0.9727 0.5731 0.0000
vt 0.9570 0.5731 0.0000
vt 0.9648 0.5731 0.0000
vt 0.9648 0.5684 0.0000
vt 0.9648 0.5684 0.0000
vt 0.9648 0.5731 0.0000
vt 0.9687 0.5731 0.0000
vt 0.9609 0.5684 0.0000
vt 0.9687 0.5684 0.0000
vt 0.9609 0.5731 0.0000
vt 0.9609 0.5731 0.0000
vt 0.9687 0.5684 0.0000
vt 0.9609 0.5684 0.0000
vt 0.9687 0.5731 0.0000
vt 0.9980 0.6485 0.0000
vt 0.9980 0.8235 0.0000
vt 0.4619 0.6485 0.0000
vt 0.4619 0.8235 0.0000
vt 0.9980 0.6485 0.0000
vt 0.9980 0.8235 0.0000
vt 0.4619 0.8235 0.0000
vt 0.4619 0.6485 0.0000
vt 0.9980 0.4737 0.0000
vt 0.9980 0.6487 0.0000
vt 0.4619 0.4737 0.0000
vt 0.4619 0.6487 0.0000
vt 0.9980 0.4737 0.0000
vt 0.9980 0.6487 0.0000
vt 0.4619 0.6487 0.0000
vt 0.4619 0.4737 0.0000
vt 0.9980 0.4737 0.0000
vt 0.9980 0.6487 0.0000
vt 0.4619 0.4737 0.0000
vt 0.4619 0.6487 0.0000
vt 0.9980 0.4737 0.0000
vt 0.9980 0.6487 0.0000
vt 0.4619 0.6487 0.0000
vt 0.4619 0.4737 0.0000
vt 0.9980 0.6487 0.0000
vt 0.9980 0.8236 0.0000
vt 0.4619 0.6487 0.0000
vt 0.4619 0.8236 0.0000
vt 0.9980 0.6487 0.0000
vt 0.9980 0.8236 0.0000
vt 0.4619 0.8236 0.0000
vt 0.4619 0.6487 0.0000
vt 0.9980 0.4737 0.0000
vt 0.9980 0.6487 0.0000
vt 0.4619 0.4737 0.0000
vt 0.4619 0.6487 0.0000
vt 0.9980 0.4737 0.0000
vt 0.9980 0.6487 0.0000
vt 0.4619 0.6487 0.0000
vt 0.4619 0.4737 0.0000
vt 0.9980 0.6485 0.0000
vt 0.9980 0.8235 0.0000
vt 0.4619 0.6485 0.0000
vt 0.4619 0.8235 0.0000
vt 0.9980 0.6485 0.0000
vt 0.9980 0.8235 0.0000
vt 0.4619 0.8235 0.0000
vt 0.4619 0.6485 0.0000
vt 0.9980 0.6485 0.0000
vt 0.9980 0.8235 0.0000
vt 0.4619 0.6485 0.0000
vt 0.4619 0.8235 0.0000
vt 0.9980 0.6485 0.0000
vt 0.9980 0.8235 0.0000
vt 0.4619 0.8235 0.0000
vt 0.4619 0.6485 0.0000
vt 0.9980 0.4737 0.0000
vt 0.9980 0.6487 0.0000
vt 0.4619 0.4737 0.0000
vt 0.4619 0.6487 0.0000
vt 0.9980 0.4737 0.0000
vt 0.9980 0.6487 0.0000
vt 0.4619 0.6487 0.0000
vt 0.4619 0.4737 0.0000
vt 0.9980 0.4737 0.0000
vt 0.9980 0.6487 0.0000
vt 0.4619 0.4737 0.0000
vt 0.4619 0.6487 0.0000
vt 0.9980 0.4737 0.0000
vt 0.9980 0.6487 0.0000
vt 0.4619 0.6487 0.0000
vt 0.4619 0.4737 0.0000
vt 0.9980 0.4737 0.0000
vt 0.9980 0.6487 0.0000
vt 0.4619 0.4737 0.0000
vt 0.4619 0.6487 0.0000
vt 0.9980 0.4737 0.0000
vt 0.9980 0.6487 0.0000
vt 0.4619 0.6487 0.0000
vt 0.4619 0.4737 0.0000
vt 0.9980 0.4737 0.0000
vt 0.9980 0.6487 0.0000
vt 0.4619 0.4737 0.0000
vt 0.4619 0.6487 0.0000
vt 0.9980 0.4737 0.0000
vt 0.9980 0.6487 0.0000
vt 0.4619 0.6487 0.0000
vt 0.4619 0.4737 0.0000
vt 0.9980 0.6485 0.0000
vt 0.9980 0.8235 0.0000
vt 0.4619 0.6485 0.0000
vt 0.4619 0.8235 0.0000
vt 0.9980 0.6485 0.0000
vt 0.9980 0.8235 0.0000
vt 0.4619 0.8235 0.0000
vt 0.4619 0.6485 0.0000
vt 0.9980 0.8258 0.0000
vt 0.9980 1.0007 0.0000
vt 0.4619 0.8258 0.0000
vt 0.4619 1.0007 0.0000
vt 0.9980 0.8258 0.0000
vt 0.9980 1.0007 0.0000
vt 0.4619 1.0007 0.0000
vt 0.4619 0.8258 0.0000
vt 0.9980 0.6485 0.0000
vt 0.9980 0.8235 0.0000
vt 0.4619 0.6485 0.0000
vt 0.4619 0.8235 0.0000
vt 0.9980 0.6485 0.0000
vt 0.9980 0.8235 0.0000
vt 0.4619 0.8235 0.0000
vt 0.4619 0.6485 0.0000
vt 0.9980 0.6485 0.0000
vt 0.9980 0.8235 0.0000
vt 0.4619 0.6485 0.0000
vt 0.4619 0.8235 0.0000
vt 0.9980 0.6485 0.0000
vt 0.9980 0.8235 0.0000
vt 0.4619 0.8235 0.0000
vt 0.4619 0.6485 0.0000
vt 0.9980 0.6485 0.0000
vt 0.9980 0.8235 0.0000
vt 0.4619 0.6485 0.0000
vt 0.4619 0.8235 0.0000
vt 0.9980 0.6485 0.0000
vt 0.9980 0.8235 0.0000
vt 0.4619 0.8235 0.0000
vt 0.4619 0.6485 0.0000
vt 0.9727 0.5684 0.0000
vt 0.9727 0.5731 0.0000
vt 0.9570 0.5684 0.0000
vt 0.9570 0.5731 0.0000
vt 0.9570 0.5684 0.0000
vt 0.9727 0.5684 0.0000
vt 0.9727 0.5731 0.0000
vt 0.9570 0.5731 0.0000
vt 0.9648 0.5731 0.0000
vt 0.9648 0.5684 0.0000
vt 0.9648 0.5684 0.0000
vt 0.9648 0.5731 0.0000
vt 0.9687 0.5731 0.0000
vt 0.9609 0.5684 0.0000
vt 0.9687 0.5684 0.0000
vt 0.9609 0.5731 0.0000
vt 0.9609 0.5731 0.0000
vt 0.9687 0.5684 0.0000
vt 0.9609 0.5684 0.0000
vt 0.9687 0.5731 0.0000
vt 0.9727 0.5684 0.0000
vt 0.9727 0.5731 0.0000
vt 0.9570 0.5684 0.0000
vt 0.9570 0.5731 0.0000
vt 0.9570 0.5684 0.0000
vt 0.9727 0.5684 0.0000
vt 0.9727 0.5731 0.0000
vt 0.9570 0.5731 0.0000
vt 0.9648 0.5731 0.0000
vt 0.9648 0.5684 0.0000
vt 0.9648 0.5684 0.0000
vt 0.9648 0.5731 0.0000
vt 0.9687 0.5731 0.0000
vt 0.9609 0.5684 0.0000
vt 0.9687 0.5684 0.0000
vt 0.9609 0.5731 0.0000
vt 0.9609 0.5731 0.0000
vt 0.9687 0.5684 0.0000
vt 0.9609 0.5684 0.0000
vt 0.9687 0.5731 0.0000
vt 0.9980 0.6485 0.0000
vt 0.9980 0.8235 0.0000
vt 0.4619 0.6485 0.0000
vt 0.4619 0.8235 0.0000
vt 0.9980 0.6485 0.0000
vt 0.9980 0.8235 0.0000
vt 0.4619 0.8235 0.0000
vt 0.4619 0.6485 0.0000
vt 0.9980 0.4737 0.0000
vt 0.9980 0.6487 0.0000
vt 0.4619 0.4737 0.0000
vt 0.4619 0.6487 0.0000
vt 0.9980 0.4737 0.0000
vt 0.9980 0.6487 0.0000
vt 0.4619 0.6487 0.0000
vt 0.4619 0.4737 0.0000
vt 0.9980 0.4737 0.0000
vt 0.9980 0.6487 0.0000
vt 0.4619 0.4737 0.0000
vt 0.4619 0.6487 0.0000
vt 0.9980 0.4737 0.0000
vt 0.9980 0.6487 0.0000
vt 0.4619 0.6487 0.0000
vt 0.4619 0.4737 0.0000
vt 0.9980 0.4737 0.0000
vt 0.9980 0.6487 0.0000
vt 0.4619 0.4737 0.0000
vt 0.4619 0.6487 0.0000
vt 0.9980 0.4737 0.0000
vt 0.9980 0.6487 0.0000
vt 0.4619 0.6487 0.0000
vt 0.4619 0.4737 0.0000
vt 0.9980 0.4737 0.0000
vt 0.9980 0.6487 0.0000
vt 0.4619 0.4737 0.0000
vt 0.4619 0.6487 0.0000
vt 0.9980 0.4737 0.0000
vt 0.9980 0.6487 0.0000
vt 0.4619 0.6487 0.0000
vt 0.4619 0.4737 0.0000
vt 0.9980 0.6485 0.0000
vt 0.9980 0.8235 0.0000
vt 0.4619 0.6485 0.0000
vt 0.4619 0.8235 0.0000
vt 0.9980 0.6485 0.0000
vt 0.9980 0.8235 0.0000
vt 0.4619 0.8235 0.0000
vt 0.4619 0.6485 0.0000
vt 0.9980 0.6485 0.0000
vt 0.9980 0.8235 0.0000
vt 0.4619 0.6485 0.0000
vt 0.4619 0.8235 0.0000
vt 0.9980 0.6485 0.0000
vt 0.9980 0.8235 0.0000
vt 0.4619 0.8235 0.0000
vt 0.4619 0.6485 0.0000
vt 0.9980 0.4737 0.0000
vt 0.9980 0.6487 0.0000
vt 0.4619 0.4737 0.0000
vt 0.4619 0.6487 0.0000
vt 0.9980 0.4737 0.0000
vt 0.9980 0.6487 0.0000
vt 0.4619 0.6487 0.0000
vt 0.4619 0.4737 0.0000
vt 0.9980 0.4737 0.0000
vt 0.9980 0.6487 0.0000
vt 0.4619 0.4737 0.0000
vt 0.4619 0.6487 0.0000
vt 0.9980 0.4737 0.0000
vt 0.9980 0.6487 0.0000
vt 0.4619 0.6487 0.0000
vt 0.4619 0.4737 0.0000
vt 0.9980 0.6487 0.0000
vt 0.9980 0.8236 0.0000
vt 0.4619 0.6487 0.0000
vt 0.4619 0.8236 0.0000
vt 0.9980 0.6487 0.0000
vt 0.9980 0.8236 0.0000
vt 0.4619 0.8236 0.0000
vt 0.4619 0.6487 0.0000
vt 0.9980 0.4737 0.0000
vt 0.9980 0.6487 0.0000
vt 0.4619 0.4737 0.0000
vt 0.4619 0.6487 0.0000
vt 0.9980 0.4737 0.0000
vt 0.9980 0.6487 0.0000
vt 0.4619 0.6487 0.0000
vt 0.4619 0.4737 0.0000
vt 0.9980 0.6485 0.0000
vt 0.9980 0.8235 0.0000
vt 0.4619 0.6485 0.0000
vt 0.4619 0.8235 0.0000
vt 0.9980 0.6485 0.0000
vt 0.9980 0.8235 0.0000
vt 0.4619 0.8235 0.0000
vt 0.4619 0.6485 0.0000
vt 0.9980 0.8258 0.0000
vt 0.9980 1.0007 0.0000
vt 0.4619 0.8258 0.0000
vt 0.4619 1.0007 0.0000
vt 0.9980 0.8258 0.0000
vt 0.9980 1.0007 0.0000
vt 0.4619 1.0007 0.0000
vt 0.4619 0.8258 0.0000
vt 0.9980 0.6485 0.0000
vt 0.9980 0.8235 0.0000
vt 0.4619 0.6485 0.0000
vt 0.4619 0.8235 0.0000
vt 0.9980 0.6485 0.0000
vt 0.9980 0.8235 0.0000
vt 0.4619 0.8235 0.0000
vt 0.4619 0.6485 0.0000
vt 0.9980 0.6485 0.0000
vt 0.9980 0.8235 0.0000
vt 0.4619 0.6485 0.0000
vt 0.4619 0.8235 0.0000
vt 0.9980 0.6485 0.0000
vt 0.9980 0.8235 0.0000
vt 0.4619 0.8235 0.0000
vt 0.4619 0.6485 0.0000
vt 0.9980 0.6485 0.0000
vt 0.9980 0.8235 0.0000
vt 0.4619 0.6485 0.0000
vt 0.4619 0.8235 0.0000
vt 0.9980 0.6485 0.0000
vt 0.9980 0.8235 0.0000
vt 0.4619 0.8235 0.0000
vt 0.4619 0.6485 0.0000
# 840 texture coords

o GorseStage03
g GorseStage03
s 1
f 14/14/1 17/17/2 4/4/3 
f 4/4/4 3/3/5 14/14/6 
f 8/8/7 16/16/8 19/19/9 
f 19/19/10 5/5/11 8/8/12 
f 18/18/13 13/13/14 9/9/15 
f 9/9/16 10/10/17 18/18/18 
f 20/20/19 15/15/20 11/11/21 
f 11/11/22 12/12/23 20/20/24 
f 10/10/25 9/9/26 17/17/27 
f 17/17/28 14/14/29 10/10/30 
f 12/12/31 11/11/32 19/19/33 
f 19/19/34 16/16/35 12/12/36 
f 1/1/37 2/2/38 13/13/39 
f 13/13/40 18/18/41 1/1/42 
f 7/7/43 6/6/44 15/15/45 
f 15/15/46 20/20/47 7/7/48 
f 34/34/49 37/37/50 24/24/51 
f 24/24/52 23/23/53 34/34/54 
f 28/28/55 36/36/56 39/39/57 
f 39/39/58 25/25/59 28/28/60 
f 38/38/61 33/33/62 29/29/63 
f 29/29/64 30/30/65 38/38/66 
f 40/40/67 35/35/68 31/31/69 
f 31/31/70 32/32/71 40/40/72 
f 30/30/73 29/29/74 37/37/75 
f 37/37/76 34/34/77 30/30/78 
f 32/32/79 31/31/80 39/39/81 
f 39/39/82 36/36/83 32/32/84 
f 21/21/85 22/22/86 33/33/87 
f 33/33/88 38/38/89 21/21/90 
f 27/27/91 26/26/92 35/35/93 
f 35/35/94 40/40/95 27/27/96 
f 41/41/97 42/42/98 44/44/99 
f 44/44/100 43/43/101 41/41/102 
f 45/45/103 48/48/104 47/47/105 
f 47/47/106 46/46/107 45/45/108 
f 49/49/109 50/50/110 52/52/111 
f 52/52/112 51/51/113 49/49/114 
f 53/53/115 56/56/116 55/55/117 
f 55/55/118 54/54/119 53/53/120 
f 57/57/121 58/58/122 60/60/123 
f 60/60/124 59/59/125 57/57/126 
f 61/61/127 64/64/128 63/63/129 
f 63/63/130 62/62/131 61/61/132 
f 65/65/133 66/66/134 68/68/135 
f 68/68/136 67/67/137 65/65/138 
f 69/69/139 72/72/140 71/71/141 
f 71/71/142 70/70/143 69/69/144 
f 73/73/145 74/74/146 76/76/147 
f 76/76/148 75/75/149 73/73/150 
f 77/77/151 80/80/152 79/79/153 
f 79/79/154 78/78/155 77/77/156 
f 81/81/157 82/82/158 84/84/159 
f 84/84/160 83/83/161 81/81/162 
f 85/85/163 88/88/164 87/87/165 
f 87/87/166 86/86/167 85/85/168 
f 89/89/169 90/90/170 92/92/171 
f 92/92/172 91/91/173 89/89/174 
f 93/93/175 96/96/176 95/95/177 
f 95/95/178 94/94/179 93/93/180 
f 97/97/181 98/98/182 100/100/183 
f 100/100/184 99/99/185 97/97/186 
f 101/101/187 104/104/188 103/103/189 
f 103/103/190 102/102/191 101/101/192 
f 105/105/193 106/106/194 108/108/195 
f 108/108/196 107/107/197 105/105/198 
f 109/109/199 112/112/200 111/111/201 
f 111/111/202 110/110/203 109/109/204 
f 113/113/205 114/114/206 116/116/207 
f 116/116/208 115/115/209 113/113/210 
f 117/117/211 120/120/212 119/119/213 
f 119/119/214 118/118/215 117/117/216 
f 121/121/217 122/122/218 124/124/219 
f 124/124/220 123/123/221 121/121/222 
f 125/125/223 128/128/224 127/127/225 
f 127/127/226 126/126/227 125/125/228 
f 129/129/229 130/130/230 132/132/231 
f 132/132/232 131/131/233 129/129/234 
f 133/133/235 136/136/236 135/135/237 
f 135/135/238 134/134/239 133/133/240 
f 137/137/241 138/138/242 140/140/243 
f 140/140/244 139/139/245 137/137/246 
f 141/141/247 144/144/248 143/143/249 
f 143/143/250 142/142/251 141/141/252 
f 145/145/253 146/146/254 148/148/255 
f 148/148/256 147/147/257 145/145/258 
f 149/149/259 152/152/260 151/151/261 
f 151/151/262 150/150/263 149/149/264 
f 153/153/265 154/154/266 156/156/267 
f 156/156/268 155/155/269 153/153/270 
f 157/157/271 160/160/272 159/159/273 
f 159/159/274 158/158/275 157/157/276 
f 161/161/277 162/162/278 164/164/279 
f 164/164/280 163/163/281 161/161/282 
f 165/165/283 168/168/284 167/167/285 
f 167/167/286 166/166/287 165/165/288 
f 182/182/289 185/185/290 172/172/291 
f 172/172/292 171/171/293 182/182/294 
f 176/176/295 184/184/296 187/187/297 
f 187/187/298 173/173/299 176/176/300 
f 186/186/301 181/181/302 177/177/303 
f 177/177/304 178/178/305 186/186/306 
f 188/188/307 183/183/308 179/179/309 
f 179/179/310 180/180/311 188/188/312 
f 178/178/313 177/177/314 185/185/315 
f 185/185/316 182/182/317 178/178/318 
f 180/180/319 179/179/320 187/187/321 
f 187/187/322 184/184/323 180/180/324 
f 169/169/325 170/170/326 181/181/327 
f 181/181/328 186/186/329 169/169/330 
f 175/175/331 174/174/332 183/183/333 
f 183/183/334 188/188/335 175/175/336 
f 202/202/337 205/205/338 192/192/339 
f 192/192/340 191/191/341 202/202/342 
f 196/196/343 204/204/344 207/207/345 
f 207/207/346 193/193/347 196/196/348 
f 206/206/349 201/201/350 197/197/351 
f 197/197/352 198/198/353 206/206/354 
f 208/208/355 203/203/356 199/199/357 
f 199/199/358 200/200/359 208/208/360 
f 198/198/361 197/197/362 205/205/363 
f 205/205/364 202/202/365 198/198/366 
f 200/200/367 199/199/368 207/207/369 
f 207/207/370 204/204/371 200/200/372 
f 189/189/373 190/190/374 201/201/375 
f 201/201/376 206/206/377 189/189/378 
f 195/195/379 194/194/380 203/203/381 
f 203/203/382 208/208/383 195/195/384 
f 209/209/385 210/210/386 212/212/387 
f 212/212/388 211/211/389 209/209/390 
f 213/213/391 216/216/392 215/215/393 
f 215/215/394 214/214/395 213/213/396 
f 217/217/397 218/218/398 220/220/399 
f 220/220/400 219/219/401 217/217/402 
f 221/221/403 224/224/404 223/223/405 
f 223/223/406 222/222/407 221/221/408 
f 225/225/409 226/226/410 228/228/411 
f 228/228/412 227/227/413 225/225/414 
f 229/229/415 232/232/416 231/231/417 
f 231/231/418 230/230/419 229/229/420 
f 233/233/421 234/234/422 236/236/423 
f 236/236/424 235/235/425 233/233/426 
f 237/237/427 240/240/428 239/239/429 
f 239/239/430 238/238/431 237/237/432 
f 241/241/433 242/242/434 244/244/435 
f 244/244/436 243/243/437 241/241/438 
f 245/245/439 248/248/440 247/247/441 
f 247/247/442 246/246/443 245/245/444 
f 249/249/445 250/250/446 252/252/447 
f 252/252/448 251/251/449 249/249/450 
f 253/253/451 256/256/452 255/255/453 
f 255/255/454 254/254/455 253/253/456 
f 257/257/457 258/258/458 260/260/459 
f 260/260/460 259/259/461 257/257/462 
f 261/261/463 264/264/464 263/263/465 
f 263/263/466 262/262/467 261/261/468 
f 265/265/469 266/266/470 268/268/471 
f 268/268/472 267/267/473 265/265/474 
f 269/269/475 272/272/476 271/271/477 
f 271/271/478 270/270/479 269/269/480 
f 273/273/481 274/274/482 276/276/483 
f 276/276/484 275/275/485 273/273/486 
f 277/277/487 280/280/488 279/279/489 
f 279/279/490 278/278/491 277/277/492 
f 281/281/493 282/282/494 284/284/495 
f 284/284/496 283/283/497 281/281/498 
f 285/285/499 288/288/500 287/287/501 
f 287/287/502 286/286/503 285/285/504 
f 289/289/505 290/290/506 292/292/507 
f 292/292/508 291/291/509 289/289/510 
f 293/293/511 296/296/512 295/295/513 
f 295/295/514 294/294/515 293/293/516 
f 297/297/517 298/298/518 300/300/519 
f 300/300/520 299/299/521 297/297/522 
f 301/301/523 304/304/524 303/303/525 
f 303/303/526 302/302/527 301/301/528 
f 305/305/529 306/306/530 308/308/531 
f 308/308/532 307/307/533 305/305/534 
f 309/309/535 312/312/536 311/311/537 
f 311/311/538 310/310/539 309/309/540 
f 313/313/541 314/314/542 316/316/543 
f 316/316/544 315/315/545 313/313/546 
f 317/317/547 320/320/548 319/319/549 
f 319/319/550 318/318/551 317/317/552 
f 321/321/553 322/322/554 324/324/555 
f 324/324/556 323/323/557 321/321/558 
f 325/325/559 328/328/560 327/327/561 
f 327/327/562 326/326/563 325/325/564 
f 329/329/565 330/330/566 332/332/567 
f 332/332/568 331/331/569 329/329/570 
f 333/333/571 336/336/572 335/335/573 
f 335/335/574 334/334/575 333/333/576 
f 350/350/577 353/353/578 340/340/579 
f 340/340/580 339/339/581 350/350/582 
f 344/344/583 352/352/584 355/355/585 
f 355/355/586 341/341/587 344/344/588 
f 354/354/589 349/349/590 345/345/591 
f 345/345/592 346/346/593 354/354/594 
f 356/356/595 351/351/596 347/347/597 
f 347/347/598 348/348/599 356/356/600 
f 346/346/601 345/345/602 353/353/603 
f 353/353/604 350/350/605 346/346/606 
f 348/348/607 347/347/608 355/355/609 
f 355/355/610 352/352/611 348/348/612 
f 337/337/613 338/338/614 349/349/615 
f 349/349/616 354/354/617 337/337/618 
f 343/343/619 342/342/620 351/351/621 
f 351/351/622 356/356/623 343/343/624 
f 370/370/625 373/373/626 360/360/627 
f 360/360/628 359/359/629 370/370/630 
f 364/364/631 372/372/632 375/375/633 
f 375/375/634 361/361/635 364/364/636 
f 374/374/637 369/369/638 365/365/639 
f 365/365/640 366/366/641 374/374/642 
f 376/376/643 371/371/644 367/367/645 
f 367/367/646 368/368/647 376/376/648 
f 366/366/649 365/365/650 373/373/651 
f 373/373/652 370/370/653 366/366/654 
f 368/368/655 367/367/656 375/375/657 
f 375/375/658 372/372/659 368/368/660 
f 357/357/661 358/358/662 369/369/663 
f 369/369/664 374/374/665 357/357/666 
f 363/363/667 362/362/668 371/371/669 
f 371/371/670 376/376/671 363/363/672 
f 377/377/673 378/378/674 380/380/675 
f 380/380/676 379/379/677 377/377/678 
f 381/381/679 384/384/680 383/383/681 
f 383/383/682 382/382/683 381/381/684 
f 385/385/685 386/386/686 388/388/687 
f 388/388/688 387/387/689 385/385/690 
f 389/389/691 392/392/692 391/391/693 
f 391/391/694 390/390/695 389/389/696 
f 393/393/697 394/394/698 396/396/699 
f 396/396/700 395/395/701 393/393/702 
f 397/397/703 400/400/704 399/399/705 
f 399/399/706 398/398/707 397/397/708 
f 401/401/709 402/402/710 404/404/711 
f 404/404/712 403/403/713 401/401/714 
f 405/405/715 408/408/716 407/407/717 
f 407/407/718 406/406/719 405/405/720 
f 409/409/721 410/410/722 412/412/723 
f 412/412/724 411/411/725 409/409/726 
f 413/413/727 416/416/728 415/415/729 
f 415/415/730 414/414/731 413/413/732 
f 417/417/733 418/418/734 420/420/735 
f 420/420/736 419/419/737 417/417/738 
f 421/421/739 424/424/740 423/423/741 
f 423/423/742 422/422/743 421/421/744 
f 425/425/745 426/426/746 428/428/747 
f 428/428/748 427/427/749 425/425/750 
f 429/429/751 432/432/752 431/431/753 
f 431/431/754 430/430/755 429/429/756 
f 433/433/757 434/434/758 436/436/759 
f 436/436/760 435/435/761 433/433/762 
f 437/437/763 440/440/764 439/439/765 
f 439/439/766 438/438/767 437/437/768 
f 441/441/769 442/442/770 444/444/771 
f 444/444/772 443/443/773 441/441/774 
f 445/445/775 448/448/776 447/447/777 
f 447/447/778 446/446/779 445/445/780 
f 449/449/781 450/450/782 452/452/783 
f 452/452/784 451/451/785 449/449/786 
f 453/453/787 456/456/788 455/455/789 
f 455/455/790 454/454/791 453/453/792 
f 457/457/793 458/458/794 460/460/795 
f 460/460/796 459/459/797 457/457/798 
f 461/461/799 464/464/800 463/463/801 
f 463/463/802 462/462/803 461/461/804 
f 465/465/805 466/466/806 468/468/807 
f 468/468/808 467/467/809 465/465/810 
f 469/469/811 472/472/812 471/471/813 
f 471/471/814 470/470/815 469/469/816 
f 473/473/817 474/474/818 476/476/819 
f 476/476/820 475/475/821 473/473/822 
f 477/477/823 480/480/824 479/479/825 
f 479/479/826 478/478/827 477/477/828 
f 481/481/829 482/482/830 484/484/831 
f 484/484/832 483/483/833 481/481/834 
f 485/485/835 488/488/836 487/487/837 
f 487/487/838 486/486/839 485/485/840 
f 489/489/841 490/490/842 492/492/843 
f 492/492/844 491/491/845 489/489/846 
f 493/493/847 496/496/848 495/495/849 
f 495/495/850 494/494/851 493/493/852 
f 497/497/853 498/498/854 500/500/855 
f 500/500/856 499/499/857 497/497/858 
f 501/501/859 504/504/860 503/503/861 
f 503/503/862 502/502/863 501/501/864 
f 518/518/865 521/521/866 508/508/867 
f 508/508/868 507/507/869 518/518/870 
f 512/512/871 520/520/872 523/523/873 
f 523/523/874 509/509/875 512/512/876 
f 522/522/877 517/517/878 513/513/879 
f 513/513/880 514/514/881 522/522/882 
f 524/524/883 519/519/884 515/515/885 
f 515/515/886 516/516/887 524/524/888 
f 514/514/889 513/513/890 521/521/891 
f 521/521/892 518/518/893 514/514/894 
f 516/516/895 515/515/896 523/523/897 
f 523/523/898 520/520/899 516/516/900 
f 505/505/901 506/506/902 517/517/903 
f 517/517/904 522/522/905 505/505/906 
f 511/511/907 510/510/908 519/519/909 
f 519/519/910 524/524/911 511/511/912 
f 538/538/913 541/541/914 528/528/915 
f 528/528/916 527/527/917 538/538/918 
f 532/532/919 540/540/920 543/543/921 
f 543/543/922 529/529/923 532/532/924 
f 542/542/925 537/537/926 533/533/927 
f 533/533/928 534/534/929 542/542/930 
f 544/544/931 539/539/932 535/535/933 
f 535/535/934 536/536/935 544/544/936 
f 534/534/937 533/533/938 541/541/939 
f 541/541/940 538/538/941 534/534/942 
f 536/536/943 535/535/944 543/543/945 
f 543/543/946 540/540/947 536/536/948 
f 525/525/949 526/526/950 537/537/951 
f 537/537/952 542/542/953 525/525/954 
f 531/531/955 530/530/956 539/539/957 
f 539/539/958 544/544/959 531/531/960 
f 545/545/961 546/546/962 548/548/963 
f 548/548/964 547/547/965 545/545/966 
f 549/549/967 552/552/968 551/551/969 
f 551/551/970 550/550/971 549/549/972 
f 553/553/973 554/554/974 556/556/975 
f 556/556/976 555/555/977 553/553/978 
f 557/557/979 560/560/980 559/559/981 
f 559/559/982 558/558/983 557/557/984 
f 561/561/985 562/562/986 564/564/987 
f 564/564/988 563/563/989 561/561/990 
f 565/565/991 568/568/992 567/567/993 
f 567/567/994 566/566/995 565/565/996 
f 569/569/997 570/570/998 572/572/999 
f 572/572/1000 571/571/1001 569/569/1002 
f 573/573/1003 576/576/1004 575/575/1005 
f 575/575/1006 574/574/1007 573/573/1008 
f 577/577/1009 578/578/1010 580/580/1011 
f 580/580/1012 579/579/1013 577/577/1014 
f 581/581/1015 584/584/1016 583/583/1017 
f 583/583/1018 582/582/1019 581/581/1020 
f 585/585/1021 586/586/1022 588/588/1023 
f 588/588/1024 587/587/1025 585/585/1026 
f 589/589/1027 592/592/1028 591/591/1029 
f 591/591/1030 590/590/1031 589/589/1032 
f 593/593/1033 594/594/1034 596/596/1035 
f 596/596/1036 595/595/1037 593/593/1038 
f 597/597/1039 600/600/1040 599/599/1041 
f 599/599/1042 598/598/1043 597/597/1044 
f 601/601/1045 602/602/1046 604/604/1047 
f 604/604/1048 603/603/1049 601/601/1050 
f 605/605/1051 608/608/1052 607/607/1053 
f 607/607/1054 606/606/1055 605/605/1056 
f 609/609/1057 610/610/1058 612/612/1059 
f 612/612/1060 611/611/1061 609/609/1062 
f 613/613/1063 616/616/1064 615/615/1065 
f 615/615/1066 614/614/1067 613/613/1068 
f 617/617/1069 618/618/1070 620/620/1071 
f 620/620/1072 619/619/1073 617/617/1074 
f 621/621/1075 624/624/1076 623/623/1077 
f 623/623/1078 622/622/1079 621/621/1080 
f 625/625/1081 626/626/1082 628/628/1083 
f 628/628/1084 627/627/1085 625/625/1086 
f 629/629/1087 632/632/1088 631/631/1089 
f 631/631/1090 630/630/1091 629/629/1092 
f 633/633/1093 634/634/1094 636/636/1095 
f 636/636/1096 635/635/1097 633/633/1098 
f 637/637/1099 640/640/1100 639/639/1101 
f 639/639/1102 638/638/1103 637/637/1104 
f 641/641/1105 642/642/1106 644/644/1107 
f 644/644/1108 643/643/1109 641/641/1110 
f 645/645/1111 648/648/1112 647/647/1113 
f 647/647/1114 646/646/1115 645/645/1116 
f 649/649/1117 650/650/1118 652/652/1119 
f 652/652/1120 651/651/1121 649/649/1122 
f 653/653/1123 656/656/1124 655/655/1125 
f 655/655/1126 654/654/1127 653/653/1128 
f 657/657/1129 658/658/1130 660/660/1131 
f 660/660/1132 659/659/1133 657/657/1134 
f 661/661/1135 664/664/1136 663/663/1137 
f 663/663/1138 662/662/1139 661/661/1140 
f 665/665/1141 666/666/1142 668/668/1143 
f 668/668/1144 667/667/1145 665/665/1146 
f 669/669/1147 672/672/1148 671/671/1149 
f 671/671/1150 670/670/1151 669/669/1152 
f 686/686/1153 689/689/1154 676/676/1155 
f 676/676/1156 675/675/1157 686/686/1158 
f 680/680/1159 688/688/1160 691/691/1161 
f 691/691/1162 677/677/1163 680/680/1164 
f 690/690/1165 685/685/1166 681/681/1167 
f 681/681/1168 682/682/1169 690/690/1170 
f 692/692/1171 687/687/1172 683/683/1173 
f 683/683/1174 684/684/1175 692/692/1176 
f 682/682/1177 681/681/1178 689/689/1179 
f 689/689/1180 686/686/1181 682/682/1182 
f 684/684/1183 683/683/1184 691/691/1185 
f 691/691/1186 688/688/1187 684/684/1188 
f 673/673/1189 674/674/1190 685/685/1191 
f 685/685/1192 690/690/1193 673/673/1194 
f 679/679/1195 678/678/1196 687/687/1197 
f 687/687/1198 692/692/1199 679/679/1200 
f 706/706/1201 709/709/1202 696/696/1203 
f 696/696/1204 695/695/1205 706/706/1206 
f 700/700/1207 708/708/1208 711/711/1209 
f 711/711/1210 697/697/1211 700/700/1212 
f 710/710/1213 705/705/1214 701/701/1215 
f 701/701/1216 702/702/1217 710/710/1218 
f 712/712/1219 707/707/1220 703/703/1221 
f 703/703/1222 704/704/1223 712/712/1224 
f 702/702/1225 701/701/1226 709/709/1227 
f 709/709/1228 706/706/1229 702/702/1230 
f 704/704/1231 703/703/1232 711/711/1233 
f 711/711/1234 708/708/1235 704/704/1236 
f 693/693/1237 694/694/1238 705/705/1239 
f 705/705/1240 710/710/1241 693/693/1242 
f 699/699/1243 698/698/1244 707/707/1245 
f 707/707/1246 712/712/1247 699/699/1248 
f 713/713/1249 714/714/1250 716/716/1251 
f 716/716/1252 715/715/1253 713/713/1254 
f 717/717/1255 720/720/1256 719/719/1257 
f 719/719/1258 718/718/1259 717/717/1260 
f 721/721/1261 722/722/1262 724/724/1263 
f 724/724/1264 723/723/1265 721/721/1266 
f 725/725/1267 728/728/1268 727/727/1269 
f 727/727/1270 726/726/1271 725/725/1272 
f 729/729/1273 730/730/1274 732/732/1275 
f 732/732/1276 731/731/1277 729/729/1278 
f 733/733/1279 736/736/1280 735/735/1281 
f 735/735/1282 734/734/1283 733/733/1284 
f 737/737/1285 738/738/1286 740/740/1287 
f 740/740/1288 739/739/1289 737/737/1290 
f 741/741/1291 744/744/1292 743/743/1293 
f 743/743/1294 742/742/1295 741/741/1296 
f 745/745/1297 746/746/1298 748/748/1299 
f 748/748/1300 747/747/1301 745/745/1302 
f 749/749/1303 752/752/1304 751/751/1305 
f 751/751/1306 750/750/1307 749/749/1308 
f 753/753/1309 754/754/1310 756/756/1311 
f 756/756/1312 755/755/1313 753/753/1314 
f 757/757/1315 760/760/1316 759/759/1317 
f 759/759/1318 758/758/1319 757/757/1320 
f 761/761/1321 762/762/1322 764/764/1323 
f 764/764/1324 763/763/1325 761/761/1326 
f 765/765/1327 768/768/1328 767/767/1329 
f 767/767/1330 766/766/1331 765/765/1332 
f 769/769/1333 770/770/1334 772/772/1335 
f 772/772/1336 771/771/1337 769/769/1338 
f 773/773/1339 776/776/1340 775/775/1341 
f 775/775/1342 774/774/1343 773/773/1344 
f 777/777/1345 778/778/1346 780/780/1347 
f 780/780/1348 779/779/1349 777/777/1350 
f 781/781/1351 784/784/1352 783/783/1353 
f 783/783/1354 782/782/1355 781/781/1356 
f 785/785/1357 786/786/1358 788/788/1359 
f 788/788/1360 787/787/1361 785/785/1362 
f 789/789/1363 792/792/1364 791/791/1365 
f 791/791/1366 790/790/1367 789/789/1368 
f 793/793/1369 794/794/1370 796/796/1371 
f 796/796/1372 795/795/1373 793/793/1374 
f 797/797/1375 800/800/1376 799/799/1377 
f 799/799/1378 798/798/1379 797/797/1380 
f 801/801/1381 802/802/1382 804/804/1383 
f 804/804/1384 803/803/1385 801/801/1386 
f 805/805/1387 808/808/1388 807/807/1389 
f 807/807/1390 806/806/1391 805/805/1392 
f 809/809/1393 810/810/1394 812/812/1395 
f 812/812/1396 811/811/1397 809/809/1398 
f 813/813/1399 816/816/1400 815/815/1401 
f 815/815/1402 814/814/1403 813/813/1404 
f 817/817/1405 818/818/1406 820/820/1407 
f 820/820/1408 819/819/1409 817/817/1410 
f 821/821/1411 824/824/1412 823/823/1413 
f 823/823/1414 822/822/1415 821/821/1416 
f 825/825/1417 826/826/1418 828/828/1419 
f 828/828/1420 827/827/1421 825/825/1422 
f 829/829/1423 832/832/1424 831/831/1425 
f 831/831/1426 830/830/1427 829/829/1428 
f 833/833/1429 834/834/1430 836/836/1431 
f 836/836/1432 835/835/1433 833/833/1434 
f 837/837/1435 840/840/1436 839/839/1437 
f 839/839/1438 838/838/1439 837/837/1440 
# 480 faces

