# 3ds Max Wavefront OBJ Exporter v0.99 - (c)2007 guruware
# File Created: 19.11.2024 10:17:38

#
# object GorseStage01
#

v  -0.2760 -8.0823 0.0229
v  0.2760 -8.0823 0.0229
v  1.1609 22.0794 -1.1755
v  1.7128 22.0784 -1.1673
v  1.1615 22.0675 -1.2198
v  -0.2760 -8.0823 -0.0229
v  0.2760 -8.0823 -0.0229
v  1.7134 22.0664 -1.2115
v  0.5401 6.7457 0.1176
v  -0.0035 6.8412 0.1260
v  -0.0049 6.8373 0.0803
v  0.5387 6.7418 0.0720
v  0.2760 -0.6725 0.0229
v  1.1482 14.6889 -1.2981
v  -0.2760 -0.6725 -0.0229
v  1.7008 14.6958 -1.3349
v  1.7001 14.6878 -1.2898
v  -0.2760 -0.6725 0.0229
v  1.1489 14.6968 -1.3432
v  0.2760 -0.6725 -0.0229
v  0.0229 -8.0823 0.2760
v  0.0229 -8.0823 -0.2760
v  1.4562 22.1447 -0.9267
v  1.4640 22.0011 -1.4596
v  1.4104 22.1448 -0.9274
v  -0.0229 -8.0823 0.2760
v  -0.0229 -8.0823 -0.2760
v  1.4181 22.0012 -1.4603
v  0.2819 6.7642 -0.1762
v  0.2985 6.8109 0.3735
v  0.2534 6.8188 0.3742
v  0.2367 6.7721 -0.1755
v  0.0229 -0.6725 -0.2760
v  1.4432 14.6447 -1.0443
v  -0.0229 -0.6725 0.2760
v  1.4057 14.7400 -1.5887
v  1.4516 14.7399 -1.5880
v  0.0229 -0.6725 0.2760
v  1.3974 14.6448 -1.0450
v  -0.0229 -0.6725 -0.2760
v  0.2104 16.2288 -2.0764
v  2.6028 13.2609 -0.4958
v  6.5925 25.1976 5.1043
v  8.9849 22.2297 6.6849
v  0.2463 16.2359 -2.1173
v  2.6387 13.2681 -0.5367
v  9.0208 22.2369 6.6440
v  6.6284 25.2047 5.0634
v  -1.0789 8.2672 0.0420
v  1.5807 5.1174 0.2288
v  8.9625 16.6854 -0.9764
v  11.6221 13.5356 -0.7896
v  -1.0805 8.2626 -0.0126
v  1.5791 5.1128 0.1742
v  11.6205 13.5309 -0.8443
v  8.9609 16.6808 -1.0311
v  -1.6410 6.0315 0.5600
v  2.1592 7.3949 -0.2939
v  -6.0334 18.4165 0.7876
v  -2.2332 19.7799 -0.0663
v  -1.6520 6.0285 0.5063
v  2.1482 7.3920 -0.3476
v  -2.2442 19.7770 -0.1200
v  -6.0444 18.4136 0.7339
v  -0.0075 15.9383 -0.4171
v  2.8792 13.5500 -2.1471
v  7.6956 26.4558 -2.0834
v  10.5823 24.0675 -3.8134
v  -0.0300 15.9469 -0.4664
v  2.8567 13.5586 -2.1964
v  10.5598 24.0761 -3.8627
v  7.6731 26.4644 -2.1328
v  -0.1946 13.6956 -0.7237
v  3.0656 15.9820 -1.8071
v  -6.1990 24.4404 3.8837
v  -2.9389 26.7268 2.8003
v  -0.2170 13.7042 -0.7731
v  3.0431 15.9906 -1.8564
v  -2.9613 26.7354 2.7510
v  -6.2215 24.4490 3.8344
v  0.0020 7.9384 -1.5160
v  0.4462 5.4520 1.7475
v  4.1231 18.1295 5.6875
v  4.5673 15.6431 8.9510
v  0.0538 7.9280 -1.5309
v  0.4980 5.4416 1.7325
v  4.6190 15.6327 8.9361
v  4.1748 18.1191 5.6726
v  -0.4561 5.6386 -1.5073
v  0.9117 7.7952 1.7343
v  -0.3761 16.5653 -8.8102
v  0.9918 18.7219 -5.5686
v  -0.4044 5.6283 -1.5222
v  0.9635 7.7848 1.7194
v  1.0436 18.7115 -5.5836
v  -0.3243 16.5550 -8.8252
v  -0.1229 13.9798 -2.3480
v  2.9434 15.6983 -0.1860
v  -5.7710 25.7688 -3.7081
v  -2.7047 27.4873 -1.5460
v  -0.0948 13.9879 -2.3944
v  2.9715 15.7064 -0.2323
v  -2.6765 27.4955 -1.5924
v  -5.7428 25.7770 -3.7545
v  -0.6175 23.5198 -1.6001
v  3.5088 23.5117 -1.5381
v  -0.5412 36.2102 -5.0180
v  3.5851 36.2020 -4.9560
v  -0.6171 23.5133 -1.6243
v  3.5091 23.5051 -1.5624
v  3.5854 36.1955 -4.9802
v  -0.5408 36.2036 -5.0422
v  0.2831 22.2255 0.5923
v  2.8088 20.0851 -1.8713
v  3.2920 33.2492 -5.9006
v  5.8178 31.1088 -8.3642
v  0.2641 22.2214 0.5764
v  2.7898 20.0810 -1.8872
v  5.7988 31.1046 -8.3800
v  3.2731 33.2451 -5.9165
v  1.9406 21.6515 1.6015
v  0.9325 21.6483 -2.4002
v  1.9667 34.7942 1.5843
v  0.9586 34.7910 -2.4174
v  1.9162 21.6515 1.6076
v  0.9082 21.6483 -2.3941
v  0.9343 34.7910 -2.4113
v  1.9424 34.7943 1.5904
v  3.4102 21.3544 1.2679
v  -0.0657 20.6284 -1.4279
v  -0.5938 34.3908 -1.7152
v  -4.0861 32.9841 -3.4048
v  3.3992 21.3448 1.2883
v  -0.0767 20.6285 -1.4054
v  -4.0970 32.9841 -3.3822
v  -0.6047 34.3908 -1.6926
v  0.1768 -7.1777 -0.3332
v  0.4967 -7.2936 0.0437
v  6.4832 19.4973 4.2995
v  6.7970 19.3806 4.6812
v  6.5126 19.4855 4.2717
v  0.2088 -7.1788 -0.3607
v  0.5286 -7.2947 0.0162
v  6.8264 19.3688 4.6534
v  2.8635 5.9288 2.4289
v  2.5574 6.1286 2.0765
v  2.5878 6.1244 2.0477
v  2.8940 5.9246 2.4000
v  1.6360 -0.6595 1.1171
v  5.4250 12.8804 3.1468
v  1.3481 -0.5447 0.7127
v  5.7719 12.7696 3.5030
v  5.7388 12.7637 3.5285
v  1.3161 -0.5436 0.7402
v  5.4581 12.8863 3.1213
v  1.6679 -0.6606 1.0897
v  0.1735 -7.2347 0.0225
v  0.5586 -7.2473 -0.3082
v  6.4907 19.4994 4.6597
v  6.8449 19.3571 4.3249
v  6.4647 19.5091 4.6280
v  0.1469 -7.2251 -0.0088
v  0.5320 -7.2377 -0.3395
v  6.8189 19.3667 4.2932
v  2.9218 5.9929 2.0792
v  2.5550 6.0437 2.4266
v  2.5296 6.0603 2.3974
v  2.8963 6.0095 2.0499
v  1.6979 -0.6132 0.7653
v  5.4121 12.7847 3.4938
v  1.2862 -0.5910 1.0646
v  5.7848 12.8653 3.1559
v  5.8109 12.8556 3.1876
v  1.3128 -0.6006 1.0959
v  5.3860 12.7943 3.4621
v  1.6713 -0.6036 0.7339
v  5.6614 14.4381 2.2631
v  5.4886 11.3147 4.4138
v  5.7285 21.2921 12.2225
v  5.5557 18.1687 14.3732
v  5.7118 14.4361 2.2642
v  5.5390 11.3127 4.4149
v  5.6061 18.1666 14.3742
v  5.7790 21.2900 12.2236
v  2.2121 7.6293 1.4984
v  3.1386 4.2549 2.9703
v  10.0356 13.0341 8.9650
v  10.9621 9.6598 10.4368
v  2.2485 7.6243 1.4639
v  3.1750 4.2499 2.9357
v  10.9986 9.6547 10.4022
v  10.0721 13.0291 8.9304
v  1.1812 5.7575 1.1010
v  4.1887 6.1606 3.3821
v  0.3815 17.7736 0.0320
v  3.3889 18.1767 2.3131
v  1.2118 5.7560 1.0609
v  4.2193 6.1591 3.3420
v  3.4196 18.1752 2.2730
v  0.4121 17.7721 -0.0081
v  4.3327 14.2618 3.0663
v  6.8452 11.4777 3.6552
v  11.5761 22.0224 8.8520
v  14.0886 19.2383 9.4409
v  4.3554 14.2731 3.0227
v  6.8680 11.4890 3.6116
v  14.1114 19.2496 9.3973
v  11.5989 22.0337 8.8084
v  4.0934 12.2861 2.4300
v  7.0900 13.6237 4.3385
v  -0.9485 23.2726 2.6464
v  2.0480 24.6102 4.5549
v  4.1162 12.2974 2.3863
v  7.1127 13.6350 4.2949
v  2.0708 24.6214 4.5113
v  -0.9258 23.2838 2.6028
v  3.8749 7.0723 1.2555
v  1.4730 4.8275 3.1538
v  2.8039 15.4959 9.8616
v  0.4020 13.2512 11.7598
v  3.9137 7.0518 1.2804
v  1.5119 4.8070 3.1787
v  0.4408 13.2307 11.7847
v  2.8427 15.4754 9.8865
v  3.2497 5.1096 0.6147
v  2.1122 6.8273 3.8032
v  10.0715 14.7085 -2.1227
v  8.9340 16.4262 1.0658
v  3.2886 5.0891 0.6396
v  2.1511 6.8068 3.8281
v  8.9729 16.4057 1.0907
v  10.1104 14.6880 -2.0978
v  5.3119 12.4884 1.5470
v  5.8444 13.4325 5.1851
v  4.8007 24.1983 -1.4169
v  5.3332 25.1424 2.2212
v  5.3618 12.4887 1.5396
v  5.8944 13.4328 5.1777
v  5.3831 25.1427 2.2138
v  4.8506 24.1986 -1.4243
v  5.9704 21.1507 3.0394
v  8.3169 20.2783 5.8931
v  10.3505 32.4183 2.8824
v  12.6970 31.5459 5.7361
v  5.9865 21.1442 3.0241
v  8.3330 20.2718 5.8779
v  12.7131 31.5394 5.7209
v  10.3665 32.4118 2.8671
v  4.7636 19.8530 4.7803
v  7.6169 17.3498 4.7191
v  12.7322 28.9421 4.5423
v  15.5855 26.4389 4.4811
v  4.7630 19.8529 4.7572
v  7.6163 17.3497 4.6960
v  15.5850 26.4389 4.4580
v  12.7316 28.9420 4.5192
v  4.9316 19.0140 6.4336
v  7.1390 19.1312 3.3474
v  6.9795 30.7750 8.3451
v  9.1869 30.8922 5.2589
v  4.9132 19.0193 6.4206
v  7.1206 19.1365 3.3344
v  9.1685 30.8975 5.2459
v  6.9611 30.7803 8.3321
v  5.9703 18.4318 7.1942
v  5.7254 18.4501 3.1004
v  7.7359 30.8760 4.5614
v  6.6747 30.3113 0.9606
v  5.9482 18.4260 7.1976
v  5.7033 18.4529 3.1065
v  6.6527 30.3142 0.9667
v  7.7138 30.8788 4.5675
v  0.3293 -7.1759 -0.3122
v  0.7056 -7.2928 -0.6324
v  5.7874 19.5352 -5.7450
v  6.1685 19.4172 -6.0591
v  5.7595 19.5251 -5.7750
v  0.3021 -7.1752 -0.3445
v  0.6784 -7.2921 -0.6646
v  6.1406 19.4071 -6.0891
v  3.4929 5.9214 -2.5659
v  3.1437 6.1218 -2.2566
v  3.1150 6.1194 -2.2874
v  3.4642 5.9190 -2.5967
v  1.9804 -0.6607 -1.5553
v  4.4346 12.9250 -4.9032
v  1.5769 -0.5431 -1.2674
v  4.7907 12.8147 -5.2505
v  4.8157 12.8071 -5.2174
v  1.6041 -0.5438 -1.2351
v  4.4097 12.9327 -4.9364
v  1.9532 -0.6600 -1.5875
v  0.6831 -7.2433 -0.3077
v  0.3558 -7.2344 -0.6957
v  6.1476 19.5270 -5.7495
v  5.8121 19.4055 -6.1107
v  6.1159 19.5368 -5.7234
v  0.6519 -7.2336 -0.2811
v  0.3246 -7.2247 -0.6692
v  5.7804 19.4153 -6.0846
v  3.1458 5.9974 -2.6250
v  3.4912 6.0268 -2.2540
v  3.4621 6.0434 -2.2283
v  3.1168 6.0141 -2.5993
v  1.6306 -0.6023 -1.6187
v  4.7787 12.8189 -4.8905
v  1.9267 -0.6015 -1.2040
v  4.4467 12.9209 -5.2633
v  4.4783 12.9111 -5.2894
v  1.9580 -0.6112 -1.2306
v  4.7470 12.8287 -4.8644
v  1.5994 -0.5926 -1.5921
v  3.5985 14.5144 -5.0984
v  5.6565 11.3259 -5.0051
v  13.7516 21.0743 -4.8688
v  15.8096 17.8857 -4.7755
v  3.6000 14.5139 -5.1488
v  5.6580 11.3254 -5.0555
v  15.8111 17.8852 -4.8260
v  13.7531 21.0738 -4.9193
v  2.6060 7.6273 -1.8695
v  3.9883 4.2418 -2.8885
v  10.2971 13.0518 -9.4583
v  11.6795 9.6663 -10.4772
v  2.5716 7.6244 -1.9064
v  3.9540 4.2389 -2.9253
v  11.6451 9.6634 -10.5141
v  10.2628 13.0489 -9.4951
v  2.1452 5.7369 -0.9008
v  4.4646 6.1662 -3.8752
v  1.4159 17.7486 0.2643
v  3.7353 18.1779 -2.7101
v  2.1053 5.7375 -0.9318
v  4.4248 6.1668 -3.9062
v  3.6955 18.1785 -2.7411
v  1.3760 17.7492 0.2333
v  4.3840 14.2738 -3.7691
v  4.9155 11.5528 -6.3623
v  10.4577 22.0830 -10.7186
v  10.9892 19.3619 -13.3118
v  4.3409 14.2871 -3.7919
v  4.8724 11.5660 -6.3850
v  10.9461 19.3752 -13.3345
v  10.4146 22.0962 -10.7414
v  3.6887 12.3110 -3.5969
v  5.6626 13.6845 -6.5343
v  4.1754 23.1253 1.7868
v  6.1493 24.4988 -1.1506
v  3.6456 12.3243 -3.6196
v  5.6195 13.6978 -6.5570
v  6.1062 24.5121 -1.1734
v  4.1323 23.1386 1.7640
v  2.3624 7.1293 -3.5508
v  4.1729 4.7571 -1.2044
v  11.1976 15.2616 -2.1461
v  13.0081 12.8894 0.2003
v  2.3871 7.1093 -3.5901
v  4.1975 4.7371 -1.2437
v  13.0327 12.8694 0.1611
v  11.2223 15.2416 -2.1853
v  1.6596 5.1678 -2.9925
v  4.8856 6.7559 -1.7755
v  -0.7368 15.0487 -9.5343
v  2.4892 16.6368 -8.3173
v  1.6842 5.1478 -3.0318
v  4.9103 6.7359 -1.8148
v  2.5139 16.6168 -8.3565
v  -0.7122 15.0287 -9.5735
v  2.8232 12.5765 -4.8158
v  6.4918 13.4303 -5.2883
v  0.1937 24.3463 -3.9644
v  3.8623 25.2001 -4.4369
v  2.8163 12.5786 -4.8658
v  6.4849 13.4324 -5.3383
v  3.8554 25.2022 -4.4869
v  0.1868 24.3484 -4.0143
v  4.5708 21.2079 -5.1914
v  7.4197 20.3257 -7.5401
v  4.7793 32.6053 -9.2192
v  7.6282 31.7232 -11.5679
v  4.5556 21.2023 -5.2078
v  7.4045 20.3202 -7.5565
v  7.6129 31.7177 -11.5843
v  4.7640 32.5998 -9.2356
v  6.2624 19.8233 -4.0112
v  6.1553 17.4124 -6.9416
v  6.3601 29.1576 -11.6943
v  6.2531 26.7468 -14.6247
v  6.2393 19.8239 -4.0108
v  6.1323 17.4130 -6.9412
v  6.2301 26.7473 -14.6243
v  6.3371 29.1582 -11.6939
v  7.8923 18.9422 -4.1915
v  4.8312 19.2174 -6.4198
v  10.1610 30.7003 -5.8557
v  7.0999 30.9755 -8.0840
v  7.8793 18.9473 -4.1731
v  4.8183 19.2225 -6.4014
v  7.0870 30.9806 -8.0656
v  10.1481 30.7053 -5.8373
v  8.6454 18.3704 -5.2415
v  4.5517 18.5003 -5.0303
v  6.3890 30.9347 -6.6400
v  2.7637 30.4425 -5.6271
v  8.6484 18.3639 -5.2196
v  4.5576 18.5023 -5.0080
v  2.7697 30.4445 -5.6049
v  6.3949 30.9367 -6.6178
v  -0.4229 -7.1281 0.6239
v  -0.7428 -7.2492 0.2487
v  -4.3547 19.4789 -6.4048
v  -4.6687 19.3560 -6.7845
v  -4.3857 19.4719 -6.3770
v  -0.4554 -7.1241 0.6504
v  -0.7754 -7.2453 0.2752
v  -4.6996 19.3491 -6.7567
v  -1.9336 5.8695 -3.3015
v  -1.6197 6.0730 -2.9582
v  -1.6510 6.0738 -2.9300
v  -1.9649 5.8703 -3.2733
v  -1.2950 -0.6605 -1.4083
v  -3.8837 12.9206 -4.6727
v  -1.0076 -0.5354 -1.0066
v  -4.2307 12.8085 -5.0285
v  -4.1976 12.7978 -5.0523
v  -0.9750 -0.5393 -1.0332
v  -3.9167 12.9314 -4.6488
v  -1.3276 -0.6566 -1.3818
v  -0.4164 -7.2154 0.2744
v  -0.8085 -7.1680 0.5935
v  -4.3540 19.4507 -6.7640
v  -4.7264 19.3671 -6.4290
v  -4.3280 19.4609 -6.7324
v  -0.3898 -7.2054 0.3056
v  -0.7819 -7.1580 0.6247
v  -4.7003 19.3773 -6.3975
v  -1.9940 5.9679 -2.9602
v  -1.6166 5.9585 -3.2998
v  -1.5906 5.9754 -3.2712
v  -1.9680 5.9848 -2.9317
v  -1.3606 -0.5793 -1.0635
v  -3.8712 12.7948 -5.0100
v  -0.9419 -0.6166 -1.3515
v  -4.2432 12.9344 -4.6911
v  -4.2693 12.9242 -4.7227
v  -0.9685 -0.6267 -1.3826
v  -3.8451 12.8050 -4.9785
v  -1.3340 -0.5692 -1.0324
v  -4.0078 14.5625 -3.9296
v  -4.0506 11.2626 -5.8058
v  -3.2747 20.5199 -14.4244
v  -3.3175 17.2201 -16.3006
v  -4.0581 14.5645 -3.9320
v  -4.1010 11.2647 -5.8082
v  -3.3679 17.2221 -16.3030
v  -3.3250 20.5220 -14.4268
v  -1.1622 7.5844 -2.4976
v  -2.3365 4.1837 -3.7090
v  -8.3338 12.9529 -10.6165
v  -9.5081 9.5522 -11.8278
v  -1.1997 7.5853 -2.4639
v  -2.3740 4.1846 -3.6752
v  -9.5456 9.5531 -11.7941
v  -8.3713 12.9538 -10.5827
v  -0.3018 5.6753 -1.9150
v  -3.2129 6.1267 -4.3093
v  1.4832 17.6325 -1.8306
v  -1.4279 18.0840 -4.2249
v  -0.3333 5.6797 -1.8758
v  -3.2444 6.1311 -4.2701
v  -1.4594 18.0884 -4.1857
v  1.4517 17.6370 -1.7914
v  -2.6810 14.2096 -4.6758
v  -5.4053 11.6008 -5.1037
v  -9.1138 22.0137 -11.3002
v  -11.8381 19.4049 -11.7281
v  -2.7037 14.2264 -4.6340
v  -5.4280 11.6176 -5.0619
v  -11.8608 19.4217 -11.6863
v  -9.1365 22.0306 -11.2584
v  -2.6233 12.2828 -3.8699
v  -5.4531 13.6932 -5.9708
v  3.3297 22.7594 -4.8550
v  0.4999 24.1698 -6.9559
v  -2.6460 12.2996 -3.8280
v  -5.4758 13.7100 -5.9290
v  0.4772 24.1867 -6.9141
v  3.3070 22.7763 -4.8132
v  -2.8710 7.1885 -2.2580
v  -0.6249 4.5999 -3.8906
v  -0.9021 14.7271 -11.5025
v  1.3439 12.1385 -13.1351
v  -2.9109 7.1692 -2.2823
v  -0.6648 4.5806 -3.9148
v  1.3041 12.1192 -13.1593
v  -0.9420 14.7078 -11.5268
v  -2.4279 5.2433 -1.4374
v  -1.0788 6.5823 -4.7234
v  -8.4764 15.5687 0.2867
v  -7.1272 16.9077 -2.9994
v  -2.4677 5.2240 -1.4616
v  -1.1186 6.5630 -4.7476
v  -7.1671 16.8884 -3.0236
v  -8.5162 15.5494 0.2624
v  -3.8398 12.6592 -3.0431
v  -4.2095 13.3286 -6.7615
v  -2.4104 24.4986 -1.0542
v  -2.7801 25.1679 -4.7725
v  -3.8897 12.6643 -3.0372
v  -4.2594 13.3336 -6.7556
v  -2.8300 25.1729 -4.7667
v  -2.4603 24.5036 -1.0483
v  -3.7328 21.1864 -5.2727
v  -6.0800 20.2681 -8.1113
v  -7.1506 32.7473 -6.1865
v  -9.4979 31.8289 -9.0252
v  -3.7497 21.1827 -5.2575
v  -6.0970 20.2643 -8.0961
v  -9.5148 31.8251 -9.0100
v  -7.1675 32.7435 -6.1713
v  -2.6010 19.6497 -6.8628
v  -5.6556 17.4035 -6.6767
v  -9.7790 29.3488 -7.6196
v  -12.8337 27.1026 -7.4334
v  -2.6009 19.6515 -6.8398
v  -5.6556 17.4054 -6.6537
v  -12.8336 27.1044 -7.4104
v  -9.7790 29.3506 -7.5966
v  -2.8020 18.6887 -8.4445
v  -5.0601 19.2507 -5.4452
v  -3.8088 30.3709 -11.3913
v  -6.0669 30.9329 -8.3920
v  -2.7836 18.6936 -8.4315
v  -5.0417 19.2556 -5.4322
v  -6.0484 30.9377 -8.3790
v  -3.7903 30.3757 -11.3784
v  -3.8688 18.1306 -9.1841
v  -3.7149 18.4796 -5.1007
v  -4.6383 30.8575 -7.6533
v  -3.7093 30.5183 -3.9882
v  -3.8472 18.1228 -9.1863
v  -3.6925 18.4801 -5.1063
v  -3.6869 30.5188 -3.9938
v  -4.6159 30.8580 -7.6589
v  -0.9358 -7.3738 0.3417
v  -1.3150 -7.4234 0.6758
v  -3.5563 20.1255 3.4584
v  -3.9404 20.0748 3.7866
v  -3.5290 20.1153 3.4888
v  -0.9080 -7.3730 0.3734
v  -1.2872 -7.4226 0.7075
v  -3.9130 20.0645 3.8170
v  -2.7144 6.1243 1.4676
v  -2.3535 6.2604 1.1374
v  -2.3245 6.2577 1.1679
v  -2.6854 6.1216 1.4981
v  -1.8949 -0.6407 1.0243
v  -2.8948 13.3637 3.1878
v  -1.4879 -0.5904 0.7220
v  -3.2526 13.3209 3.5480
v  -3.2789 13.3130 3.5160
v  -1.5157 -0.5911 0.6903
v  -2.8685 13.3716 3.2198
v  -1.8671 -0.6400 1.0560
v  -1.2947 -7.4048 0.3477
v  -0.9598 -7.3957 0.7292
v  -3.9153 20.1546 3.4682
v  -3.5860 20.0312 3.8345
v  -3.8834 20.1588 3.4409
v  -1.2632 -7.4007 0.3200
v  -0.9283 -7.3916 0.7015
v  -3.5541 20.0354 3.8072
v  -2.3601 6.1692 1.5153
v  -2.7088 6.2014 1.1476
v  -2.6788 6.2127 1.1202
v  -2.3302 6.1805 1.4879
v  -1.5397 -0.6131 1.0778
v  -3.2480 13.2926 3.1888
v  -1.8431 -0.6180 0.6685
v  -2.8994 13.3920 3.5469
v  -2.9313 13.3878 3.5742
v  -1.8746 -0.6221 0.6962
v  -3.2161 13.2968 3.1616
v  -1.5082 -0.6090 1.0500
v  -1.8988 14.8702 3.2308
v  -4.2691 11.9128 3.4463
v  -11.3421 22.3890 2.5512
v  -13.7123 19.4316 2.7668
v  -1.8993 14.8742 3.2811
v  -4.2695 11.9168 3.4966
v  -13.7127 19.4356 2.8171
v  -11.3425 22.3930 2.6015
v  -1.6754 7.6637 0.6117
v  -3.3693 4.5385 1.9439
v  -8.6145 14.4839 7.7882
v  -10.3084 11.3587 9.1203
v  -1.6407 7.6605 0.6482
v  -3.3347 4.5353 1.9804
v  -10.2738 11.3555 9.1569
v  -8.5798 14.4807 7.8247
v  -1.4285 5.6592 -0.1917
v  -3.6278 6.5798 2.7624
v  0.4816 17.3868 -2.4245
v  -1.7177 18.3074 0.5296
v  -1.3881 5.6584 -0.1614
v  -3.5874 6.5790 2.7927
v  -1.6774 18.3066 0.5599
v  0.5219 17.3860 -2.3942
v  -2.7332 14.5967 1.9382
v  -3.4797 12.1795 4.7685
v  -7.8371 23.5593 8.2463
v  -8.5836 21.1421 11.0766
v  -2.6885 14.6075 1.9591
v  -3.4350 12.1902 4.7895
v  -8.5390 21.1528 11.0975
v  -7.7925 23.5700 8.2672
v  -2.2431 12.5656 1.9315
v  -4.0044 14.3834 4.7607
v  -1.7547 22.8650 -4.3815
v  -3.5159 24.6827 -1.5522
v  -2.1984 12.5764 1.9524
v  -3.9597 14.3941 4.7817
v  -3.4713 24.6934 -1.5313
v  -1.7100 22.8757 -4.3606
v  -1.4469 7.2911 2.3273
v  -3.5376 4.9219 0.2233
v  -9.4463 16.1315 0.3212
v  -11.5370 13.7623 -1.7828
v  -1.4725 7.2772 2.3684
v  -3.5632 4.9080 0.2645
v  -11.5627 13.7484 -1.7416
v  -9.4720 16.1176 0.3624
v  -0.9574 5.2270 1.9358
v  -4.0328 7.0251 0.6243
v  2.5635 15.3411 7.5463
v  -0.5118 17.1392 6.2348
v  -0.9831 5.2131 1.9770
v  -4.0585 7.0112 0.6655
v  -0.5375 17.1253 6.2759
v  2.5378 15.3272 7.5874
v  -1.3290 12.8459 3.1110
v  -4.8818 14.1081 3.5529
v  2.4536 24.1668 1.1877
v  -1.0992 25.4290 1.6296
v  -1.3208 12.8516 3.1604
v  -4.8737 14.1138 3.6024
v  -1.0910 25.4346 1.6791
v  2.4618 24.1724 1.2372
v  -2.1897 21.6106 2.7434
v  -5.0613 21.2315 5.1972
v  -1.1616 33.2759 5.7490
v  -4.0332 32.8968 8.2028
v  -2.1748 21.6050 2.7601
v  -5.0464 21.2259 5.2139
v  -4.0182 32.8912 8.2195
v  -1.1466 33.2703 5.7657
v  -4.0373 20.3092 1.7121
v  -4.1101 18.1633 4.8427
v  -3.0276 30.2357 8.5395
v  -3.1004 28.0898 11.6702
v  -4.0143 20.3073 1.7114
v  -4.0872 18.1615 4.8420
v  -3.0774 28.0880 11.6695
v  -3.0046 30.2338 8.5388
v  -5.7434 19.6183 1.9905
v  -2.6226 19.7714 4.1464
v  -6.7795 31.6465 2.6364
v  -3.6587 31.7996 4.7923
v  -5.7304 19.6204 1.9716
v  -2.6096 19.7735 4.1274
v  -3.6457 31.8017 4.7733
v  -6.7665 31.6487 2.6174
v  -6.5273 19.2198 3.0965
v  -2.4469 18.9116 2.8223
v  -2.9870 31.5612 3.3487
v  0.5475 30.6149 2.3370
v  -6.5315 19.2117 3.0753
v  -2.4531 18.9123 2.8001
v  0.5413 30.6156 2.3148
v  -2.9931 31.5619 3.3264
# 680 vertices

vn 0.0006 0.6031 0.7977
vn -0.0004 0.6009 0.7993
vn -0.0112 0.5796 0.8148
vn -0.0112 0.5796 0.8148
vn -0.0112 0.5793 0.8150
vn 0.0006 0.6031 0.7977
vn 0.0122 0.6750 -0.7377
vn 0.0004 0.6580 -0.7530
vn -0.0007 0.6567 -0.7541
vn -0.0007 0.6567 -0.7541
vn 0.0122 0.6752 -0.7375
vn 0.0122 0.6750 -0.7377
vn 0.0024 0.5818 0.8134
vn 0.0024 0.5817 0.8134
vn 0.0079 0.6013 0.7990
vn 0.0079 0.6013 0.7990
vn 0.0082 0.6037 0.7972
vn 0.0024 0.5818 0.8134
vn -0.0026 0.6732 -0.7395
vn -0.0026 0.6731 -0.7395
vn -0.0093 0.6562 -0.7545
vn -0.0093 0.6562 -0.7545
vn -0.0089 0.6579 -0.7531
vn -0.0026 0.6732 -0.7395
vn 0.0082 0.6037 0.7972
vn 0.0079 0.6013 0.7990
vn -0.0004 0.6009 0.7993
vn -0.0004 0.6009 0.7993
vn 0.0006 0.6031 0.7977
vn 0.0082 0.6037 0.7972
vn -0.0089 0.6579 -0.7531
vn -0.0093 0.6562 -0.7545
vn -0.0007 0.6567 -0.7541
vn -0.0007 0.6567 -0.7541
vn 0.0004 0.6580 -0.7530
vn -0.0089 0.6579 -0.7531
vn 0.0000 0.5833 0.8123
vn 0.0000 0.5833 0.8123
vn 0.0024 0.5817 0.8134
vn 0.0024 0.5817 0.8134
vn 0.0024 0.5818 0.8134
vn 0.0000 0.5833 0.8123
vn 0.0000 0.6718 -0.7408
vn 0.0000 0.6718 -0.7408
vn -0.0026 0.6731 -0.7395
vn -0.0026 0.6731 -0.7395
vn -0.0026 0.6732 -0.7395
vn 0.0000 0.6718 -0.7408
vn 0.7908 0.6080 0.0701
vn 0.7872 0.6123 0.0733
vn 0.7771 0.6240 0.0816
vn 0.7771 0.6240 0.0816
vn 0.7771 0.6240 0.0816
vn 0.7908 0.6080 0.0701
vn -0.7775 0.6262 0.0583
vn -0.7663 0.6390 0.0668
vn -0.7613 0.6446 0.0701
vn -0.7613 0.6446 0.0701
vn -0.7776 0.6260 0.0583
vn -0.7775 0.6262 0.0583
vn 0.7807 0.6215 0.0650
vn 0.7807 0.6216 0.0650
vn 0.7919 0.6076 0.0606
vn 0.7919 0.6076 0.0606
vn 0.7920 0.6075 0.0606
vn 0.7807 0.6215 0.0650
vn -0.7742 0.6285 0.0749
vn -0.7741 0.6286 0.0750
vn -0.7598 0.6453 0.0792
vn -0.7598 0.6453 0.0792
vn -0.7598 0.6453 0.0792
vn -0.7742 0.6285 0.0749
vn 0.7920 0.6075 0.0606
vn 0.7919 0.6076 0.0606
vn 0.7872 0.6123 0.0733
vn 0.7872 0.6123 0.0733
vn 0.7908 0.6080 0.0701
vn 0.7920 0.6075 0.0606
vn -0.7598 0.6453 0.0792
vn -0.7598 0.6453 0.0792
vn -0.7613 0.6446 0.0701
vn -0.7613 0.6446 0.0701
vn -0.7663 0.6390 0.0668
vn -0.7598 0.6453 0.0792
vn 0.7776 0.6249 0.0700
vn 0.7776 0.6249 0.0700
vn 0.7807 0.6216 0.0650
vn 0.7807 0.6216 0.0650
vn 0.7807 0.6215 0.0650
vn 0.7776 0.6249 0.0700
vn -0.7776 0.6249 0.0700
vn -0.7776 0.6249 0.0700
vn -0.7741 0.6286 0.0750
vn -0.7741 0.6286 0.0750
vn -0.7742 0.6285 0.0749
vn -0.7776 0.6249 0.0700
vn -0.5081 0.5669 0.6484
vn -0.5081 0.5670 0.6483
vn -0.5081 0.5672 0.6482
vn -0.5081 0.5672 0.6482
vn -0.5080 0.5672 0.6482
vn -0.5081 0.5669 0.6484
vn 0.5124 0.6888 -0.5128
vn 0.5125 0.6888 -0.5128
vn 0.5125 0.6889 -0.5126
vn 0.5125 0.6889 -0.5126
vn 0.5124 0.6888 -0.5129
vn 0.5124 0.6888 -0.5128
vn 0.0221 0.6035 0.7971
vn 0.0221 0.6033 0.7972
vn 0.0222 0.6035 0.7971
vn 0.0222 0.6035 0.7971
vn 0.0222 0.6035 0.7971
vn 0.0221 0.6035 0.7971
vn -0.0251 0.6563 -0.7541
vn -0.0252 0.6565 -0.7539
vn -0.0252 0.6564 -0.7540
vn -0.0252 0.6564 -0.7540
vn -0.0251 0.6564 -0.7540
vn -0.0251 0.6563 -0.7541
vn 0.1482 0.5964 0.7889
vn 0.1482 0.5964 0.7889
vn 0.1482 0.5967 0.7887
vn 0.1482 0.5967 0.7887
vn 0.1481 0.5967 0.7887
vn 0.1482 0.5964 0.7889
vn -0.1655 0.6608 -0.7321
vn -0.1655 0.6607 -0.7321
vn -0.1654 0.6607 -0.7322
vn -0.1654 0.6607 -0.7322
vn -0.1654 0.6608 -0.7321
vn -0.1655 0.6608 -0.7321
vn 0.3176 0.5558 0.7682
vn 0.3175 0.5558 0.7683
vn 0.3177 0.5557 0.7683
vn 0.3177 0.5557 0.7683
vn 0.3176 0.5557 0.7683
vn 0.3176 0.5558 0.7682
vn -0.3210 0.7026 -0.6351
vn -0.3208 0.7028 -0.6349
vn -0.3210 0.7026 -0.6351
vn -0.3210 0.7026 -0.6351
vn -0.3210 0.7026 -0.6351
vn -0.3210 0.7026 -0.6351
vn 0.3176 0.5558 0.7682
vn 0.3176 0.5558 0.7682
vn 0.3176 0.5557 0.7683
vn 0.3176 0.5557 0.7683
vn 0.3176 0.5557 0.7683
vn 0.3176 0.5558 0.7682
vn -0.3210 0.7026 -0.6351
vn -0.3209 0.7026 -0.6351
vn -0.3209 0.7028 -0.6349
vn -0.3209 0.7028 -0.6349
vn -0.3209 0.7027 -0.6350
vn -0.3210 0.7026 -0.6351
vn -0.7017 0.6595 0.2695
vn -0.7017 0.6595 0.2695
vn -0.7017 0.6596 0.2694
vn -0.7017 0.6596 0.2694
vn -0.7017 0.6595 0.2695
vn -0.7017 0.6595 0.2695
vn 0.7822 0.6044 -0.1512
vn 0.7823 0.6043 -0.1513
vn 0.7821 0.6045 -0.1512
vn 0.7821 0.6045 -0.1512
vn 0.7822 0.6044 -0.1512
vn 0.7822 0.6044 -0.1512
vn -0.7017 0.6595 0.2695
vn -0.7018 0.6594 0.2695
vn -0.7017 0.6596 0.2695
vn -0.7017 0.6596 0.2695
vn -0.7017 0.6596 0.2694
vn -0.7017 0.6595 0.2695
vn 0.7822 0.6044 -0.1512
vn 0.7823 0.6043 -0.1513
vn 0.7823 0.6043 -0.1513
vn 0.7823 0.6043 -0.1513
vn 0.7822 0.6044 -0.1512
vn 0.7822 0.6044 -0.1512
vn -0.3985 0.5596 0.7267
vn -0.3985 0.5596 0.7267
vn -0.3985 0.5597 0.7266
vn -0.3985 0.5597 0.7266
vn -0.3986 0.5594 0.7267
vn -0.3985 0.5596 0.7267
vn 0.4024 0.6979 -0.5925
vn 0.4024 0.6978 -0.5926
vn 0.4024 0.6978 -0.5926
vn 0.4024 0.6978 -0.5926
vn 0.4024 0.6979 -0.5925
vn 0.4024 0.6979 -0.5925
vn -0.0100 0.6524 0.7578
vn -0.0100 0.6522 0.7580
vn -0.0101 0.6521 0.7580
vn -0.0101 0.6521 0.7580
vn -0.0100 0.6521 0.7580
vn -0.0100 0.6524 0.7578
vn 0.0124 0.6338 -0.7734
vn 0.0124 0.6340 -0.7732
vn 0.0123 0.6335 -0.7736
vn 0.0123 0.6335 -0.7736
vn 0.0123 0.6338 -0.7734
vn 0.0124 0.6338 -0.7734
vn 0.5569 0.6384 0.5313
vn 0.5569 0.6384 0.5313
vn 0.5568 0.6387 0.5312
vn 0.5568 0.6387 0.5312
vn 0.5568 0.6386 0.5311
vn 0.5569 0.6384 0.5313
vn -0.6341 0.6258 -0.4541
vn -0.6341 0.6258 -0.4542
vn -0.6343 0.6257 -0.4542
vn -0.6343 0.6257 -0.4542
vn -0.6341 0.6258 -0.4541
vn -0.6341 0.6258 -0.4541
vn 0.7625 0.6356 -0.1213
vn 0.7626 0.6353 -0.1213
vn 0.7625 0.6356 -0.1213
vn 0.7625 0.6356 -0.1213
vn 0.7625 0.6356 -0.1213
vn 0.7625 0.6356 -0.1213
vn -0.7456 0.6148 0.2570
vn -0.7456 0.6148 0.2570
vn -0.7456 0.6148 0.2570
vn -0.7456 0.6148 0.2570
vn -0.7455 0.6150 0.2570
vn -0.7456 0.6148 0.2570
vn 0.4296 0.6648 -0.6111
vn 0.4296 0.6648 -0.6111
vn 0.4298 0.6644 -0.6114
vn 0.4298 0.6644 -0.6114
vn 0.4296 0.6648 -0.6111
vn 0.4296 0.6648 -0.6111
vn -0.3991 0.5886 0.7030
vn -0.3990 0.5891 0.7027
vn -0.3991 0.5886 0.7030
vn -0.3991 0.5886 0.7030
vn -0.3990 0.5889 0.7029
vn -0.3991 0.5886 0.7030
vn -0.5496 0.6218 0.5579
vn -0.5523 0.6199 0.5573
vn -0.5815 0.6005 0.5488
vn -0.5815 0.6005 0.5488
vn -0.5815 0.6005 0.5488
vn -0.5496 0.6218 0.5579
vn 0.6184 0.6517 -0.4392
vn 0.6115 0.6373 -0.4689
vn 0.6107 0.6361 -0.4717
vn 0.6107 0.6361 -0.4717
vn 0.6182 0.6520 -0.4391
vn 0.6184 0.6517 -0.4392
vn -0.5707 0.6012 0.5594
vn -0.5707 0.6012 0.5594
vn -0.5468 0.6192 0.5636
vn -0.5468 0.6192 0.5636
vn -0.5441 0.6215 0.5637
vn -0.5707 0.6012 0.5594
vn 0.6091 0.6514 -0.4524
vn 0.6092 0.6514 -0.4524
vn 0.6050 0.6365 -0.4784
vn 0.6050 0.6365 -0.4784
vn 0.6054 0.6380 -0.4759
vn 0.6091 0.6514 -0.4524
vn -0.5441 0.6215 0.5637
vn -0.5468 0.6192 0.5636
vn -0.5523 0.6199 0.5573
vn -0.5523 0.6199 0.5573
vn -0.5496 0.6218 0.5579
vn -0.5441 0.6215 0.5637
vn 0.6054 0.6380 -0.4759
vn 0.6050 0.6365 -0.4784
vn 0.6107 0.6361 -0.4717
vn 0.6107 0.6361 -0.4717
vn 0.6115 0.6373 -0.4689
vn 0.6054 0.6380 -0.4759
vn -0.5706 0.6029 0.5576
vn -0.5706 0.6029 0.5576
vn -0.5707 0.6012 0.5594
vn -0.5707 0.6012 0.5594
vn -0.5707 0.6012 0.5594
vn -0.5706 0.6029 0.5576
vn 0.6109 0.6499 -0.4521
vn 0.6109 0.6499 -0.4521
vn 0.6092 0.6514 -0.4524
vn 0.6092 0.6514 -0.4524
vn 0.6091 0.6514 -0.4524
vn 0.6109 0.6499 -0.4521
vn 0.5062 0.5416 0.6712
vn 0.5029 0.5437 0.6719
vn 0.4942 0.5504 0.6729
vn 0.4942 0.5504 0.6729
vn 0.4940 0.5508 0.6728
vn 0.5062 0.5416 0.6712
vn -0.4770 0.7153 -0.5107
vn -0.4717 0.7314 -0.4924
vn -0.4692 0.7381 -0.4848
vn -0.4692 0.7381 -0.4848
vn -0.4770 0.7153 -0.5107
vn -0.4770 0.7153 -0.5107
vn 0.5083 0.5491 0.6635
vn 0.5082 0.5491 0.6635
vn 0.5140 0.5414 0.6654
vn 0.5140 0.5414 0.6654
vn 0.5140 0.5413 0.6654
vn 0.5083 0.5491 0.6635
vn -0.4863 0.7191 -0.4964
vn -0.4863 0.7191 -0.4963
vn -0.4748 0.7394 -0.4773
vn -0.4748 0.7394 -0.4773
vn -0.4749 0.7393 -0.4774
vn -0.4863 0.7191 -0.4964
vn 0.5140 0.5413 0.6654
vn 0.5140 0.5414 0.6654
vn 0.5029 0.5437 0.6719
vn 0.5029 0.5437 0.6719
vn 0.5062 0.5416 0.6712
vn 0.5140 0.5413 0.6654
vn -0.4749 0.7393 -0.4774
vn -0.4748 0.7394 -0.4773
vn -0.4692 0.7381 -0.4848
vn -0.4692 0.7381 -0.4848
vn -0.4717 0.7314 -0.4924
vn -0.4749 0.7393 -0.4774
vn 0.5035 0.5512 0.6653
vn 0.5035 0.5512 0.6653
vn 0.5082 0.5491 0.6635
vn 0.5082 0.5491 0.6635
vn 0.5083 0.5491 0.6635
vn 0.5035 0.5512 0.6653
vn -0.4860 0.7145 -0.5033
vn -0.4860 0.7145 -0.5033
vn -0.4863 0.7191 -0.4963
vn -0.4863 0.7191 -0.4963
vn -0.4863 0.7191 -0.4964
vn -0.4860 0.7145 -0.5033
vn -0.7709 0.6348 0.0531
vn -0.7708 0.6349 0.0530
vn -0.7710 0.6347 0.0529
vn -0.7710 0.6347 0.0529
vn -0.7708 0.6349 0.0531
vn -0.7709 0.6348 0.0531
vn 0.7832 0.6157 0.0872
vn 0.7832 0.6156 0.0871
vn 0.7831 0.6158 0.0871
vn 0.7831 0.6158 0.0871
vn 0.7832 0.6157 0.0872
vn 0.7832 0.6157 0.0872
vn -0.5354 0.6196 0.5740
vn -0.5354 0.6196 0.5740
vn -0.5354 0.6195 0.5741
vn -0.5354 0.6195 0.5741
vn -0.5354 0.6195 0.5741
vn -0.5354 0.6196 0.5740
vn 0.5946 0.6381 -0.4892
vn 0.5947 0.6380 -0.4892
vn 0.5946 0.6380 -0.4893
vn 0.5946 0.6380 -0.4893
vn 0.5945 0.6381 -0.4892
vn 0.5946 0.6381 -0.4892
vn -0.4532 0.5983 0.6608
vn -0.4532 0.5983 0.6608
vn -0.4531 0.5985 0.6606
vn -0.4531 0.5985 0.6606
vn -0.4531 0.5985 0.6606
vn -0.4532 0.5983 0.6608
vn 0.4926 0.6558 -0.5720
vn 0.4926 0.6558 -0.5720
vn 0.4927 0.6556 -0.5722
vn 0.4927 0.6556 -0.5722
vn 0.4926 0.6558 -0.5720
vn 0.4926 0.6558 -0.5720
vn -0.3576 0.5465 0.7573
vn -0.3575 0.5465 0.7573
vn -0.3576 0.5466 0.7572
vn -0.3576 0.5466 0.7572
vn -0.3574 0.5466 0.7573
vn -0.3576 0.5465 0.7573
vn 0.3496 0.7189 -0.6008
vn 0.3497 0.7187 -0.6010
vn 0.3497 0.7188 -0.6008
vn 0.3497 0.7188 -0.6008
vn 0.3496 0.7189 -0.6008
vn 0.3496 0.7189 -0.6008
vn -0.3576 0.5465 0.7573
vn -0.3575 0.5465 0.7573
vn -0.3575 0.5466 0.7572
vn -0.3575 0.5466 0.7572
vn -0.3576 0.5464 0.7574
vn -0.3576 0.5465 0.7573
vn 0.3496 0.7189 -0.6008
vn 0.3497 0.7187 -0.6009
vn 0.3496 0.7189 -0.6008
vn 0.3496 0.7189 -0.6008
vn 0.3496 0.7188 -0.6009
vn 0.3496 0.7189 -0.6008
vn -0.5775 0.7582 -0.3026
vn -0.5774 0.7583 -0.3026
vn -0.5774 0.7583 -0.3027
vn -0.5774 0.7583 -0.3027
vn -0.5775 0.7582 -0.3027
vn -0.5775 0.7582 -0.3026
vn 0.6679 0.5455 0.5063
vn 0.6679 0.5455 0.5063
vn 0.6679 0.5455 0.5063
vn 0.6679 0.5455 0.5063
vn 0.6679 0.5455 0.5063
vn 0.6679 0.5455 0.5063
vn -0.5775 0.7582 -0.3027
vn -0.5775 0.7582 -0.3026
vn -0.5775 0.7582 -0.3027
vn -0.5775 0.7582 -0.3027
vn -0.5776 0.7582 -0.3027
vn -0.5775 0.7582 -0.3027
vn 0.6679 0.5455 0.5063
vn 0.6679 0.5455 0.5063
vn 0.6678 0.5456 0.5063
vn 0.6678 0.5456 0.5063
vn 0.6679 0.5454 0.5064
vn 0.6679 0.5455 0.5063
vn -0.7653 0.6172 0.1829
vn -0.7653 0.6172 0.1828
vn -0.7654 0.6171 0.1829
vn -0.7654 0.6171 0.1829
vn -0.7652 0.6173 0.1828
vn -0.7653 0.6172 0.1829
vn 0.7730 0.6328 -0.0441
vn 0.7729 0.6329 -0.0441
vn 0.7731 0.6328 -0.0441
vn 0.7731 0.6328 -0.0441
vn 0.7730 0.6328 -0.0440
vn 0.7730 0.6328 -0.0441
vn -0.5056 0.6703 0.5432
vn -0.5059 0.6700 0.5433
vn -0.5057 0.6702 0.5432
vn -0.5057 0.6702 0.5432
vn -0.5055 0.6705 0.5431
vn -0.5056 0.6703 0.5432
vn 0.6108 0.6151 -0.4985
vn 0.6108 0.6153 -0.4984
vn 0.6109 0.6150 -0.4986
vn 0.6109 0.6150 -0.4986
vn 0.6111 0.6148 -0.4986
vn 0.6108 0.6151 -0.4985
vn 0.0187 0.5839 0.8116
vn 0.0187 0.5841 0.8115
vn 0.0187 0.5841 0.8115
vn 0.0187 0.5841 0.8115
vn 0.0187 0.5841 0.8115
vn 0.0187 0.5839 0.8116
vn -0.0204 0.6709 -0.7413
vn -0.0204 0.6711 -0.7411
vn -0.0204 0.6711 -0.7411
vn -0.0204 0.6711 -0.7411
vn -0.0204 0.6711 -0.7411
vn -0.0204 0.6709 -0.7413
vn 0.6418 0.5594 0.5246
vn 0.6418 0.5594 0.5246
vn 0.6418 0.5594 0.5246
vn 0.6418 0.5594 0.5246
vn 0.6419 0.5591 0.5248
vn 0.6418 0.5594 0.5246
vn -0.6091 0.7067 -0.3601
vn -0.6092 0.7065 -0.3602
vn -0.6094 0.7064 -0.3601
vn -0.6094 0.7064 -0.3601
vn -0.6091 0.7067 -0.3601
vn -0.6091 0.7067 -0.3601
vn 0.7936 0.6061 -0.0537
vn 0.7936 0.6061 -0.0536
vn 0.7936 0.6061 -0.0536
vn 0.7936 0.6061 -0.0536
vn 0.7936 0.6061 -0.0536
vn 0.7936 0.6061 -0.0537
vn -0.7360 0.6512 0.1853
vn -0.7360 0.6511 0.1853
vn -0.7360 0.6511 0.1853
vn -0.7360 0.6511 0.1853
vn -0.7360 0.6511 0.1853
vn -0.7360 0.6512 0.1853
vn 0.4900 0.6079 0.6248
vn 0.4890 0.6060 0.6274
vn 0.4770 0.5856 0.6554
vn 0.4770 0.5856 0.6554
vn 0.4770 0.5856 0.6554
vn 0.4900 0.6079 0.6248
vn -0.5039 0.6673 -0.5484
vn -0.5355 0.6492 -0.5402
vn -0.5383 0.6476 -0.5393
vn -0.5383 0.6476 -0.5393
vn -0.5040 0.6671 -0.5486
vn -0.5039 0.6673 -0.5484
vn 0.4885 0.5873 0.6453
vn 0.4885 0.5873 0.6453
vn 0.4956 0.6059 0.6223
vn 0.4956 0.6059 0.6223
vn 0.4960 0.6083 0.6196
vn 0.4885 0.5873 0.6453
vn -0.5168 0.6653 -0.5387
vn -0.5168 0.6653 -0.5388
vn -0.5446 0.6473 -0.5333
vn -0.5446 0.6473 -0.5333
vn -0.5419 0.6491 -0.5338
vn -0.5168 0.6653 -0.5387
vn 0.4960 0.6083 0.6196
vn 0.4956 0.6059 0.6223
vn 0.4890 0.6060 0.6274
vn 0.4890 0.6060 0.6274
vn 0.4900 0.6079 0.6248
vn 0.4960 0.6083 0.6196
vn -0.5419 0.6491 -0.5338
vn -0.5446 0.6473 -0.5333
vn -0.5383 0.6476 -0.5393
vn -0.5383 0.6476 -0.5393
vn -0.5355 0.6492 -0.5402
vn -0.5419 0.6491 -0.5338
vn 0.4869 0.5888 0.6452
vn 0.4869 0.5888 0.6452
vn 0.4885 0.5873 0.6453
vn 0.4885 0.5873 0.6453
vn 0.4885 0.5873 0.6453
vn 0.4869 0.5888 0.6452
vn -0.5168 0.6639 -0.5405
vn -0.5168 0.6639 -0.5405
vn -0.5168 0.6653 -0.5388
vn -0.5168 0.6653 -0.5388
vn -0.5168 0.6653 -0.5387
vn -0.5168 0.6639 -0.5405
vn 0.6390 0.6107 -0.4677
vn 0.6405 0.6120 -0.4639
vn 0.6432 0.6173 -0.4531
vn 0.6432 0.6173 -0.4531
vn 0.6432 0.6172 -0.4531
vn 0.6390 0.6107 -0.4677
vn -0.5477 0.6577 0.5171
vn -0.5296 0.6748 0.5141
vn -0.5222 0.6816 0.5125
vn -0.5222 0.6816 0.5125
vn -0.5477 0.6577 0.5171
vn -0.5477 0.6577 0.5171
vn 0.6328 0.6164 -0.4687
vn 0.6328 0.6164 -0.4687
vn 0.6325 0.6110 -0.4762
vn 0.6325 0.6110 -0.4762
vn 0.6325 0.6109 -0.4762
vn 0.6328 0.6164 -0.4687
vn -0.5341 0.6614 0.5266
vn -0.5340 0.6614 0.5266
vn -0.5150 0.6830 0.5180
vn -0.5150 0.6830 0.5180
vn -0.5152 0.6828 0.5180
vn -0.5341 0.6614 0.5266
vn 0.6325 0.6109 -0.4762
vn 0.6325 0.6110 -0.4762
vn 0.6405 0.6120 -0.4639
vn 0.6405 0.6120 -0.4639
vn 0.6390 0.6107 -0.4677
vn 0.6325 0.6109 -0.4762
vn -0.5152 0.6828 0.5180
vn -0.5150 0.6830 0.5180
vn -0.5222 0.6816 0.5125
vn -0.5222 0.6816 0.5125
vn -0.5296 0.6748 0.5141
vn -0.5152 0.6828 0.5180
vn 0.6353 0.6179 -0.4633
vn 0.6353 0.6179 -0.4633
vn 0.6328 0.6164 -0.4687
vn 0.6328 0.6164 -0.4687
vn 0.6328 0.6164 -0.4687
vn 0.6353 0.6179 -0.4633
vn -0.5408 0.6566 0.5257
vn -0.5408 0.6566 0.5257
vn -0.5340 0.6614 0.5266
vn -0.5340 0.6614 0.5266
vn -0.5341 0.6614 0.5266
vn -0.5408 0.6566 0.5257
vn -0.0218 0.5856 0.8103
vn -0.0218 0.5855 0.8104
vn -0.0217 0.5855 0.8104
vn -0.0217 0.5855 0.8104
vn -0.0219 0.5856 0.8103
vn -0.0218 0.5856 0.8103
vn 0.0239 0.6699 -0.7421
vn 0.0239 0.6697 -0.7422
vn 0.0237 0.6700 -0.7420
vn 0.0237 0.6700 -0.7420
vn 0.0239 0.6699 -0.7421
vn 0.0239 0.6699 -0.7421
vn 0.5069 0.6074 0.6116
vn 0.5069 0.6074 0.6116
vn 0.5070 0.6073 0.6116
vn 0.5070 0.6073 0.6116
vn 0.5069 0.6074 0.6117
vn 0.5069 0.6074 0.6116
vn -0.5547 0.6476 -0.5224
vn -0.5547 0.6476 -0.5225
vn -0.5547 0.6475 -0.5226
vn -0.5547 0.6475 -0.5226
vn -0.5547 0.6476 -0.5224
vn -0.5547 0.6476 -0.5224
vn 0.5992 0.5962 0.5343
vn 0.5991 0.5962 0.5344
vn 0.5992 0.5961 0.5344
vn 0.5992 0.5961 0.5344
vn 0.5991 0.5964 0.5342
vn 0.5992 0.5962 0.5343
vn -0.6293 0.6555 -0.4176
vn -0.6292 0.6555 -0.4176
vn -0.6293 0.6555 -0.4176
vn -0.6293 0.6555 -0.4176
vn -0.6293 0.6554 -0.4177
vn -0.6293 0.6555 -0.4176
vn 0.6999 0.5600 0.4434
vn 0.6999 0.5600 0.4433
vn 0.6998 0.5600 0.4434
vn 0.6998 0.5600 0.4434
vn 0.6997 0.5601 0.4434
vn 0.6999 0.5600 0.4434
vn -0.6475 0.7112 -0.2736
vn -0.6475 0.7112 -0.2737
vn -0.6477 0.7111 -0.2736
vn -0.6477 0.7111 -0.2736
vn -0.6475 0.7112 -0.2736
vn -0.6475 0.7112 -0.2736
vn 0.6999 0.5600 0.4434
vn 0.6998 0.5601 0.4433
vn 0.6999 0.5600 0.4433
vn 0.6999 0.5600 0.4433
vn 0.6998 0.5601 0.4433
vn 0.6999 0.5600 0.4434
vn -0.6475 0.7112 -0.2736
vn -0.6477 0.7110 -0.2737
vn -0.6475 0.7112 -0.2736
vn -0.6475 0.7112 -0.2736
vn -0.6475 0.7112 -0.2736
vn -0.6475 0.7112 -0.2736
vn -0.3494 0.7020 0.6206
vn -0.3494 0.7020 0.6206
vn -0.3495 0.7019 0.6207
vn -0.3495 0.7019 0.6207
vn -0.3495 0.7019 0.6207
vn -0.3494 0.7020 0.6206
vn 0.4550 0.6186 -0.6405
vn 0.4550 0.6186 -0.6405
vn 0.4551 0.6185 -0.6406
vn 0.4551 0.6185 -0.6406
vn 0.4549 0.6187 -0.6405
vn 0.4550 0.6186 -0.6405
vn -0.3494 0.7020 0.6206
vn -0.3494 0.7020 0.6206
vn -0.3493 0.7021 0.6206
vn -0.3493 0.7021 0.6206
vn -0.3494 0.7019 0.6206
vn -0.3494 0.7020 0.6206
vn 0.4550 0.6186 -0.6405
vn 0.4550 0.6186 -0.6405
vn 0.4550 0.6188 -0.6403
vn 0.4550 0.6188 -0.6403
vn 0.4550 0.6187 -0.6405
vn 0.4550 0.6186 -0.6405
vn 0.1031 0.5747 0.8119
vn 0.1030 0.5747 0.8119
vn 0.1030 0.5747 0.8119
vn 0.1030 0.5747 0.8119
vn 0.1030 0.5750 0.8117
vn 0.1031 0.5747 0.8119
vn -0.1104 0.6798 -0.7250
vn -0.1104 0.6797 -0.7251
vn -0.1104 0.6797 -0.7251
vn -0.1104 0.6797 -0.7251
vn -0.1105 0.6797 -0.7251
vn -0.1104 0.6798 -0.7250
vn 0.4800 0.6562 0.5823
vn 0.4799 0.6561 0.5824
vn 0.4800 0.6562 0.5822
vn 0.4800 0.6562 0.5822
vn 0.4798 0.6564 0.5822
vn 0.4800 0.6562 0.5823
vn -0.5708 0.6212 -0.5369
vn -0.5706 0.6214 -0.5369
vn -0.5706 0.6214 -0.5369
vn -0.5706 0.6214 -0.5369
vn -0.5707 0.6214 -0.5368
vn -0.5708 0.6212 -0.5369
vn 0.7819 0.6207 0.0574
vn 0.7819 0.6207 0.0574
vn 0.7819 0.6207 0.0574
vn 0.7819 0.6207 0.0574
vn 0.7819 0.6207 0.0574
vn 0.7819 0.6207 0.0574
vn -0.7727 0.6294 0.0825
vn -0.7727 0.6294 0.0825
vn -0.7725 0.6296 0.0824
vn -0.7725 0.6296 0.0824
vn -0.7727 0.6294 0.0824
vn -0.7727 0.6294 0.0825
vn 0.4834 0.6278 -0.6101
vn 0.4834 0.6278 -0.6101
vn 0.4834 0.6278 -0.6101
vn 0.4834 0.6278 -0.6101
vn 0.4833 0.6278 -0.6101
vn 0.4834 0.6278 -0.6101
vn -0.4071 0.6474 0.6444
vn -0.4071 0.6473 0.6444
vn -0.4070 0.6473 0.6445
vn -0.4070 0.6473 0.6445
vn -0.4071 0.6473 0.6444
vn -0.4071 0.6474 0.6444
vn -0.1262 0.6527 -0.7470
vn -0.1263 0.6527 -0.7471
vn -0.1263 0.6527 -0.7470
vn -0.1263 0.6527 -0.7470
vn -0.1264 0.6525 -0.7472
vn -0.1262 0.6527 -0.7470
vn 0.1107 0.6091 0.7853
vn 0.1106 0.6093 0.7852
vn 0.1107 0.6093 0.7851
vn 0.1107 0.6093 0.7851
vn 0.1106 0.6091 0.7853
vn 0.1107 0.6091 0.7853
vn 0.6121 0.6521 -0.4474
vn 0.6148 0.6504 -0.4460
vn 0.6433 0.6335 -0.4299
vn 0.6433 0.6335 -0.4299
vn 0.6432 0.6337 -0.4298
vn 0.6121 0.6521 -0.4474
vn -0.5816 0.6237 0.5223
vn -0.5757 0.6022 0.5531
vn -0.5750 0.6003 0.5559
vn -0.5750 0.6003 0.5559
vn -0.5815 0.6237 0.5223
vn -0.5816 0.6237 0.5223
vn 0.6328 0.6353 -0.4427
vn 0.6328 0.6352 -0.4427
vn 0.6094 0.6505 -0.4532
vn 0.6094 0.6505 -0.4532
vn 0.6067 0.6525 -0.4540
vn 0.6328 0.6353 -0.4427
vn -0.5725 0.6219 0.5343
vn -0.5726 0.6219 0.5342
vn -0.5695 0.6000 0.5619
vn -0.5695 0.6000 0.5619
vn -0.5698 0.6022 0.5592
vn -0.5725 0.6219 0.5343
vn 0.6067 0.6525 -0.4540
vn 0.6094 0.6505 -0.4532
vn 0.6148 0.6504 -0.4460
vn 0.6148 0.6504 -0.4460
vn 0.6121 0.6521 -0.4474
vn 0.6067 0.6525 -0.4540
vn -0.5698 0.6022 0.5592
vn -0.5695 0.6000 0.5619
vn -0.5750 0.6003 0.5559
vn -0.5750 0.6003 0.5559
vn -0.5757 0.6022 0.5531
vn -0.5698 0.6022 0.5592
vn 0.6327 0.6364 -0.4412
vn 0.6327 0.6364 -0.4412
vn 0.6328 0.6352 -0.4427
vn 0.6328 0.6352 -0.4427
vn 0.6328 0.6353 -0.4427
vn 0.6327 0.6364 -0.4412
vn -0.5744 0.6201 0.5344
vn -0.5744 0.6201 0.5344
vn -0.5726 0.6219 0.5342
vn -0.5726 0.6219 0.5342
vn -0.5725 0.6219 0.5343
vn -0.5744 0.6201 0.5344
vn -0.5562 0.6160 -0.5579
vn -0.5505 0.6177 -0.5617
vn -0.5357 0.6230 -0.5700
vn -0.5357 0.6230 -0.5700
vn -0.5357 0.6230 -0.5700
vn -0.5562 0.6160 -0.5579
vn 0.4485 0.6554 0.6077
vn 0.4487 0.6731 0.5878
vn 0.4486 0.6802 0.5798
vn 0.4486 0.6802 0.5798
vn 0.4485 0.6554 0.6077
vn 0.4485 0.6554 0.6077
vn -0.5515 0.6210 -0.5570
vn -0.5515 0.6210 -0.5570
vn -0.5646 0.6152 -0.5503
vn -0.5646 0.6152 -0.5503
vn -0.5646 0.6152 -0.5503
vn -0.5515 0.6210 -0.5570
vn 0.4595 0.6599 0.5945
vn 0.4595 0.6599 0.5945
vn 0.4546 0.6820 0.5729
vn 0.4546 0.6820 0.5729
vn 0.4547 0.6819 0.5730
vn 0.4595 0.6599 0.5945
vn -0.5646 0.6152 -0.5503
vn -0.5646 0.6152 -0.5503
vn -0.5505 0.6177 -0.5617
vn -0.5505 0.6177 -0.5617
vn -0.5562 0.6160 -0.5579
vn -0.5646 0.6152 -0.5503
vn 0.4547 0.6819 0.5730
vn 0.4546 0.6820 0.5729
vn 0.4486 0.6802 0.5798
vn 0.4486 0.6802 0.5798
vn 0.4487 0.6731 0.5878
vn 0.4547 0.6819 0.5730
vn -0.5450 0.6229 -0.5612
vn -0.5450 0.6229 -0.5612
vn -0.5515 0.6210 -0.5570
vn -0.5515 0.6210 -0.5570
vn -0.5515 0.6210 -0.5570
vn -0.5450 0.6229 -0.5612
vn 0.4575 0.6547 0.6017
vn 0.4575 0.6547 0.6017
vn 0.4595 0.6599 0.5945
vn 0.4595 0.6599 0.5945
vn 0.4595 0.6599 0.5945
vn 0.4575 0.6547 0.6017
vn 0.7814 0.6147 0.1074
vn 0.7814 0.6147 0.1073
vn 0.7816 0.6145 0.1073
vn 0.7816 0.6145 0.1073
vn 0.7816 0.6145 0.1075
vn 0.7814 0.6147 0.1074
vn -0.7712 0.6357 0.0331
vn -0.7710 0.6359 0.0331
vn -0.7710 0.6359 0.0333
vn -0.7710 0.6359 0.0333
vn -0.7712 0.6357 0.0331
vn -0.7712 0.6357 0.0331
vn 0.5982 0.6520 -0.4658
vn 0.5982 0.6520 -0.4658
vn 0.5984 0.6519 -0.4657
vn 0.5984 0.6519 -0.4657
vn 0.5984 0.6519 -0.4659
vn 0.5982 0.6520 -0.4658
vn -0.5595 0.6007 0.5711
vn -0.5595 0.6006 0.5712
vn -0.5595 0.6006 0.5712
vn -0.5595 0.6006 0.5712
vn -0.5595 0.6007 0.5711
vn -0.5595 0.6007 0.5711
vn 0.5147 0.6447 -0.5653
vn 0.5147 0.6447 -0.5652
vn 0.5147 0.6447 -0.5652
vn 0.5147 0.6447 -0.5652
vn 0.5147 0.6447 -0.5653
vn 0.5147 0.6447 -0.5653
vn -0.4623 0.6128 0.6409
vn -0.4622 0.6131 0.6407
vn -0.4623 0.6128 0.6409
vn -0.4623 0.6128 0.6409
vn -0.4623 0.6128 0.6409
vn -0.4623 0.6128 0.6409
vn 0.4067 0.6222 -0.6689
vn 0.4067 0.6222 -0.6689
vn 0.4068 0.6222 -0.6689
vn 0.4068 0.6222 -0.6689
vn 0.4068 0.6222 -0.6689
vn 0.4067 0.6222 -0.6689
vn -0.3222 0.6796 0.6590
vn -0.3221 0.6798 0.6589
vn -0.3221 0.6797 0.6590
vn -0.3221 0.6797 0.6590
vn -0.3223 0.6796 0.6590
vn -0.3222 0.6796 0.6590
vn 0.4067 0.6222 -0.6689
vn 0.4067 0.6222 -0.6689
vn 0.4068 0.6222 -0.6689
vn 0.4068 0.6222 -0.6689
vn 0.4067 0.6222 -0.6689
vn 0.4067 0.6222 -0.6689
vn -0.3222 0.6796 0.6590
vn -0.3221 0.6797 0.6590
vn -0.3222 0.6797 0.6590
vn -0.3222 0.6797 0.6590
vn -0.3222 0.6796 0.6590
vn -0.3222 0.6796 0.6590
vn 0.5716 0.7093 0.4126
vn 0.5716 0.7092 0.4127
vn 0.5717 0.7092 0.4125
vn 0.5717 0.7092 0.4125
vn 0.5717 0.7092 0.4126
vn 0.5716 0.7093 0.4126
vn -0.7170 0.6004 -0.3541
vn -0.7171 0.6004 -0.3541
vn -0.7170 0.6003 -0.3543
vn -0.7170 0.6003 -0.3543
vn -0.7170 0.6004 -0.3541
vn -0.7170 0.6004 -0.3541
vn 0.5716 0.7093 0.4126
vn 0.5716 0.7092 0.4126
vn 0.5716 0.7093 0.4126
vn 0.5716 0.7093 0.4126
vn 0.5715 0.7093 0.4126
vn 0.5716 0.7093 0.4126
vn -0.7170 0.6004 -0.3541
vn -0.7170 0.6004 -0.3542
vn -0.7169 0.6005 -0.3541
vn -0.7169 0.6005 -0.3541
vn -0.7170 0.6004 -0.3542
vn -0.7170 0.6004 -0.3541
vn 0.7916 0.6107 -0.0210
vn 0.7916 0.6106 -0.0210
vn 0.7916 0.6107 -0.0209
vn 0.7916 0.6107 -0.0209
vn 0.7916 0.6107 -0.0210
vn 0.7916 0.6107 -0.0210
vn -0.7498 0.6429 0.1565
vn -0.7499 0.6428 0.1565
vn -0.7499 0.6428 0.1565
vn -0.7499 0.6428 0.1565
vn -0.7498 0.6429 0.1566
vn -0.7498 0.6429 0.1565
vn 0.5691 0.6934 -0.4420
vn 0.5689 0.6936 -0.4419
vn 0.5690 0.6935 -0.4419
vn 0.5690 0.6935 -0.4419
vn 0.5691 0.6933 -0.4420
vn 0.5691 0.6934 -0.4420
vn -0.5770 0.5649 0.5899
vn -0.5772 0.5646 0.5900
vn -0.5769 0.5649 0.5900
vn -0.5769 0.5649 0.5900
vn -0.5770 0.5650 0.5898
vn -0.5770 0.5649 0.5899
vn -0.0019 0.6573 -0.7536
vn -0.0020 0.6573 -0.7536
vn -0.0019 0.6573 -0.7536
vn -0.0019 0.6573 -0.7536
vn -0.0019 0.6573 -0.7536
vn -0.0019 0.6573 -0.7536
vn 0.0017 0.6018 0.7986
vn 0.0017 0.6020 0.7985
vn 0.0017 0.6020 0.7985
vn 0.0017 0.6020 0.7985
vn 0.0017 0.6020 0.7985
vn 0.0017 0.6018 0.7986
vn -0.6780 0.6163 -0.4005
vn -0.6778 0.6165 -0.4005
vn -0.6780 0.6163 -0.4007
vn -0.6780 0.6163 -0.4007
vn -0.6778 0.6165 -0.4006
vn -0.6780 0.6163 -0.4005
vn 0.5863 0.6539 0.4782
vn 0.5863 0.6537 0.4785
vn 0.5861 0.6539 0.4784
vn 0.5861 0.6539 0.4784
vn 0.5862 0.6539 0.4783
vn 0.5863 0.6539 0.4782
vn -0.7725 0.6095 0.1784
vn -0.7725 0.6095 0.1782
vn -0.7723 0.6097 0.1783
vn -0.7723 0.6097 0.1783
vn -0.7725 0.6095 0.1783
vn -0.7725 0.6095 0.1784
vn 0.7667 0.6410 -0.0376
vn 0.7667 0.6409 -0.0376
vn 0.7667 0.6410 -0.0376
vn 0.7667 0.6410 -0.0376
vn 0.7667 0.6410 -0.0376
vn 0.7667 0.6410 -0.0376
vn -0.5273 0.6731 -0.5186
vn -0.5271 0.6714 -0.5209
vn -0.5247 0.6539 -0.5451
vn -0.5247 0.6539 -0.5451
vn -0.5248 0.6537 -0.5453
vn -0.5273 0.6731 -0.5186
vn 0.4835 0.6004 0.6370
vn 0.5060 0.5814 0.6372
vn 0.5080 0.5796 0.6371
vn 0.5080 0.5796 0.6371
vn 0.4835 0.6004 0.6370
vn 0.4835 0.6004 0.6370
vn -0.5352 0.6547 -0.5338
vn -0.5353 0.6546 -0.5338
vn -0.5336 0.6711 -0.5147
vn -0.5336 0.6711 -0.5147
vn -0.5331 0.6732 -0.5125
vn -0.5352 0.6547 -0.5338
vn 0.4956 0.5989 0.6291
vn 0.4956 0.5989 0.6291
vn 0.5143 0.5797 0.6320
vn 0.5143 0.5797 0.6320
vn 0.5126 0.5816 0.6317
vn 0.4956 0.5989 0.6291
vn -0.5331 0.6732 -0.5125
vn -0.5336 0.6711 -0.5147
vn -0.5271 0.6714 -0.5209
vn -0.5271 0.6714 -0.5209
vn -0.5273 0.6731 -0.5186
vn -0.5331 0.6732 -0.5125
vn 0.5126 0.5816 0.6317
vn 0.5143 0.5797 0.6320
vn 0.5080 0.5796 0.6371
vn 0.5080 0.5796 0.6371
vn 0.5060 0.5814 0.6372
vn 0.5126 0.5816 0.6317
vn -0.5329 0.6561 -0.5344
vn -0.5329 0.6561 -0.5344
vn -0.5353 0.6546 -0.5338
vn -0.5353 0.6546 -0.5338
vn -0.5352 0.6547 -0.5338
vn -0.5329 0.6561 -0.5344
vn 0.4949 0.5972 0.6313
vn 0.4949 0.5972 0.6313
vn 0.4956 0.5989 0.6291
vn 0.4956 0.5989 0.6291
vn 0.4956 0.5989 0.6291
vn 0.4949 0.5972 0.6313
vn -0.5821 0.5622 0.5875
vn -0.5832 0.5661 0.5826
vn -0.5853 0.5769 0.5697
vn -0.5853 0.5769 0.5697
vn -0.5853 0.5769 0.5697
vn -0.5821 0.5622 0.5875
vn 0.5930 0.6768 -0.4362
vn 0.5759 0.6919 -0.4355
vn 0.5690 0.6979 -0.4350
vn 0.5690 0.6979 -0.4350
vn 0.5931 0.6767 -0.4362
vn 0.5930 0.6768 -0.4362
vn -0.5749 0.5734 0.5837
vn -0.5749 0.5734 0.5836
vn -0.5758 0.5610 0.5948
vn -0.5758 0.5610 0.5948
vn -0.5758 0.5609 0.5949
vn -0.5749 0.5734 0.5837
vn 0.5795 0.6811 -0.4475
vn 0.5795 0.6812 -0.4475
vn 0.5618 0.6998 -0.4412
vn 0.5618 0.6998 -0.4412
vn 0.5619 0.6997 -0.4413
vn 0.5795 0.6811 -0.4475
vn -0.5758 0.5609 0.5949
vn -0.5758 0.5610 0.5948
vn -0.5832 0.5661 0.5826
vn -0.5832 0.5661 0.5826
vn -0.5821 0.5622 0.5875
vn -0.5758 0.5609 0.5949
vn 0.5619 0.6997 -0.4413
vn 0.5618 0.6998 -0.4412
vn 0.5690 0.6979 -0.4350
vn 0.5690 0.6979 -0.4350
vn 0.5759 0.6919 -0.4355
vn 0.5619 0.6997 -0.4413
vn -0.5772 0.5769 0.5780
vn -0.5772 0.5769 0.5780
vn -0.5749 0.5734 0.5836
vn -0.5749 0.5734 0.5836
vn -0.5749 0.5734 0.5837
vn -0.5772 0.5769 0.5780
vn 0.5861 0.6767 -0.4456
vn 0.5861 0.6767 -0.4456
vn 0.5795 0.6812 -0.4475
vn 0.5795 0.6812 -0.4475
vn 0.5795 0.6811 -0.4475
vn 0.5861 0.6767 -0.4456
vn 0.0070 0.6573 -0.7536
vn 0.0070 0.6572 -0.7537
vn 0.0071 0.6571 -0.7538
vn 0.0071 0.6571 -0.7538
vn 0.0071 0.6571 -0.7538
vn 0.0070 0.6573 -0.7536
vn -0.0062 0.6022 0.7983
vn -0.0064 0.6021 0.7984
vn -0.0064 0.6021 0.7984
vn -0.0064 0.6021 0.7984
vn -0.0062 0.6022 0.7983
vn -0.0062 0.6022 0.7983
vn -0.5441 0.6719 -0.5026
vn -0.5441 0.6719 -0.5025
vn -0.5440 0.6719 -0.5027
vn -0.5440 0.6719 -0.5027
vn -0.5440 0.6719 -0.5026
vn -0.5441 0.6719 -0.5026
vn 0.5248 0.5808 0.6223
vn 0.5248 0.5809 0.6222
vn 0.5248 0.5809 0.6222
vn 0.5248 0.5809 0.6222
vn 0.5248 0.5808 0.6223
vn 0.5248 0.5808 0.6223
vn -0.6364 0.6557 -0.4061
vn -0.6364 0.6558 -0.4062
vn -0.6364 0.6558 -0.4061
vn -0.6364 0.6558 -0.4061
vn -0.6364 0.6558 -0.4061
vn -0.6364 0.6557 -0.4061
vn 0.6078 0.5960 0.5247
vn 0.6078 0.5960 0.5247
vn 0.6080 0.5957 0.5248
vn 0.6080 0.5957 0.5248
vn 0.6079 0.5959 0.5247
vn 0.6078 0.5960 0.5247
vn -0.7449 0.6087 -0.2732
vn -0.7449 0.6086 -0.2733
vn -0.7451 0.6084 -0.2733
vn -0.7451 0.6084 -0.2733
vn -0.7450 0.6084 -0.2734
vn -0.7449 0.6087 -0.2732
vn 0.6525 0.6601 0.3721
vn 0.6525 0.6600 0.3723
vn 0.6525 0.6600 0.3723
vn 0.6525 0.6600 0.3723
vn 0.6525 0.6601 0.3720
vn 0.6525 0.6601 0.3721
vn -0.7449 0.6087 -0.2732
vn -0.7450 0.6086 -0.2733
vn -0.7450 0.6085 -0.2733
vn -0.7450 0.6085 -0.2733
vn -0.7451 0.6085 -0.2732
vn -0.7449 0.6087 -0.2732
vn 0.6526 0.6600 0.3721
vn 0.6526 0.6600 0.3721
vn 0.6526 0.6600 0.3721
vn 0.6526 0.6600 0.3721
vn 0.6525 0.6601 0.3720
vn 0.6526 0.6600 0.3721
vn 0.3915 0.7314 -0.5584
vn 0.3915 0.7314 -0.5584
vn 0.3916 0.7314 -0.5583
vn 0.3916 0.7314 -0.5583
vn 0.3914 0.7316 -0.5582
vn 0.3915 0.7314 -0.5584
vn -0.4118 0.5416 0.7329
vn -0.4117 0.5415 0.7330
vn -0.4117 0.5415 0.7330
vn -0.4117 0.5415 0.7330
vn -0.4117 0.5416 0.7329
vn -0.4118 0.5416 0.7329
vn 0.3915 0.7314 -0.5584
vn 0.3915 0.7314 -0.5584
vn 0.3916 0.7312 -0.5585
vn 0.3916 0.7312 -0.5585
vn 0.3915 0.7315 -0.5583
vn 0.3915 0.7314 -0.5584
vn -0.4117 0.5416 0.7329
vn -0.4118 0.5415 0.7330
vn -0.4117 0.5417 0.7328
vn -0.4117 0.5417 0.7328
vn -0.4117 0.5416 0.7330
vn -0.4117 0.5416 0.7329
vn -0.1358 0.6512 -0.7467
vn -0.1357 0.6512 -0.7467
vn -0.1357 0.6513 -0.7466
vn -0.1357 0.6513 -0.7466
vn -0.1358 0.6513 -0.7466
vn -0.1358 0.6512 -0.7467
vn 0.1184 0.6110 0.7827
vn 0.1184 0.6112 0.7825
vn 0.1184 0.6112 0.7825
vn 0.1184 0.6112 0.7825
vn 0.1183 0.6111 0.7826
vn 0.1184 0.6110 0.7827
vn -0.4990 0.7176 -0.4859
vn -0.4990 0.7176 -0.4859
vn -0.4989 0.7177 -0.4858
vn -0.4989 0.7177 -0.4858
vn -0.4989 0.7178 -0.4857
vn -0.4990 0.7176 -0.4859
vn 0.5214 0.5501 0.6524
vn 0.5213 0.5503 0.6523
vn 0.5213 0.5503 0.6522
vn 0.5213 0.5503 0.6522
vn 0.5214 0.5501 0.6524
vn 0.5214 0.5501 0.6524
vn -0.7614 0.6416 0.0928
vn -0.7614 0.6416 0.0928
vn -0.7614 0.6417 0.0927
vn -0.7614 0.6417 0.0927
vn -0.7613 0.6416 0.0929
vn -0.7614 0.6416 0.0928
vn 0.7908 0.6103 0.0464
vn 0.7908 0.6103 0.0466
vn 0.7908 0.6103 0.0464
vn 0.7908 0.6103 0.0464
vn 0.7906 0.6106 0.0465
vn 0.7908 0.6103 0.0464
vn -0.4313 0.5710 0.6985
vn -0.4314 0.5710 0.6985
vn -0.4314 0.5710 0.6985
vn -0.4314 0.5710 0.6985
vn -0.4312 0.5712 0.6984
vn -0.4313 0.5710 0.6985
vn 0.4453 0.6832 -0.5787
vn 0.4452 0.6833 -0.5786
vn 0.4452 0.6834 -0.5786
vn 0.4452 0.6834 -0.5786
vn 0.4454 0.6832 -0.5787
vn 0.4453 0.6832 -0.5787
vn 0.1209 0.5762 0.8083
vn 0.1209 0.5762 0.8083
vn 0.1208 0.5765 0.8081
vn 0.1208 0.5765 0.8081
vn 0.1209 0.5762 0.8083
vn 0.1209 0.5762 0.8083
vn -0.1300 0.6782 -0.7233
vn -0.1300 0.6782 -0.7233
vn -0.1300 0.6782 -0.7233
vn -0.1300 0.6782 -0.7233
vn -0.1300 0.6782 -0.7233
vn -0.1300 0.6782 -0.7233
# 1200 vertex normals

vt 0.9727 0.5684 0.0000
vt 0.9727 0.5731 0.0000
vt 0.9570 0.5684 0.0000
vt 0.9570 0.5731 0.0000
vt 0.9570 0.5684 0.0000
vt 0.9727 0.5684 0.0000
vt 0.9727 0.5731 0.0000
vt 0.9570 0.5731 0.0000
vt 0.9648 0.5731 0.0000
vt 0.9648 0.5684 0.0000
vt 0.9648 0.5684 0.0000
vt 0.9648 0.5731 0.0000
vt 0.9687 0.5731 0.0000
vt 0.9609 0.5684 0.0000
vt 0.9687 0.5684 0.0000
vt 0.9609 0.5731 0.0000
vt 0.9609 0.5731 0.0000
vt 0.9687 0.5684 0.0000
vt 0.9609 0.5684 0.0000
vt 0.9687 0.5731 0.0000
vt 0.9727 0.5684 0.0000
vt 0.9727 0.5731 0.0000
vt 0.9570 0.5684 0.0000
vt 0.9570 0.5731 0.0000
vt 0.9570 0.5684 0.0000
vt 0.9727 0.5684 0.0000
vt 0.9727 0.5731 0.0000
vt 0.9570 0.5731 0.0000
vt 0.9648 0.5731 0.0000
vt 0.9648 0.5684 0.0000
vt 0.9648 0.5684 0.0000
vt 0.9648 0.5731 0.0000
vt 0.9687 0.5731 0.0000
vt 0.9609 0.5684 0.0000
vt 0.9687 0.5684 0.0000
vt 0.9609 0.5731 0.0000
vt 0.9609 0.5731 0.0000
vt 0.9687 0.5684 0.0000
vt 0.9609 0.5684 0.0000
vt 0.9687 0.5731 0.0000
vt 0.9980 0.4737 0.0000
vt 0.9980 0.6487 0.0000
vt 0.4619 0.4737 0.0000
vt 0.4619 0.6487 0.0000
vt 0.9980 0.4737 0.0000
vt 0.9980 0.6487 0.0000
vt 0.4619 0.6487 0.0000
vt 0.4619 0.4737 0.0000
vt 0.9980 0.4737 0.0000
vt 0.9980 0.6487 0.0000
vt 0.4619 0.4737 0.0000
vt 0.4619 0.6487 0.0000
vt 0.9980 0.4737 0.0000
vt 0.9980 0.6487 0.0000
vt 0.4619 0.6487 0.0000
vt 0.4619 0.4737 0.0000
vt 0.9980 0.4737 0.0000
vt 0.9980 0.6487 0.0000
vt 0.4619 0.4737 0.0000
vt 0.4619 0.6487 0.0000
vt 0.9980 0.4737 0.0000
vt 0.9980 0.6487 0.0000
vt 0.4619 0.6487 0.0000
vt 0.4619 0.4737 0.0000
vt 0.9980 0.4737 0.0000
vt 0.9980 0.6487 0.0000
vt 0.4619 0.4737 0.0000
vt 0.4619 0.6487 0.0000
vt 0.9980 0.4737 0.0000
vt 0.9980 0.6487 0.0000
vt 0.4619 0.6487 0.0000
vt 0.4619 0.4737 0.0000
vt 0.9980 0.4737 0.0000
vt 0.9980 0.6487 0.0000
vt 0.4619 0.4737 0.0000
vt 0.4619 0.6487 0.0000
vt 0.9980 0.4737 0.0000
vt 0.9980 0.6487 0.0000
vt 0.4619 0.6487 0.0000
vt 0.4619 0.4737 0.0000
vt 0.9980 0.4737 0.0000
vt 0.9980 0.6487 0.0000
vt 0.4619 0.4737 0.0000
vt 0.4619 0.6487 0.0000
vt 0.9980 0.4737 0.0000
vt 0.9980 0.6487 0.0000
vt 0.4619 0.6487 0.0000
vt 0.4619 0.4737 0.0000
vt 0.9980 0.4737 0.0000
vt 0.9980 0.6487 0.0000
vt 0.4619 0.4737 0.0000
vt 0.4619 0.6487 0.0000
vt 0.9980 0.4737 0.0000
vt 0.9980 0.6487 0.0000
vt 0.4619 0.6487 0.0000
vt 0.4619 0.4737 0.0000
vt 0.9980 0.4737 0.0000
vt 0.9980 0.6487 0.0000
vt 0.4619 0.4737 0.0000
vt 0.4619 0.6487 0.0000
vt 0.9980 0.4737 0.0000
vt 0.9980 0.6487 0.0000
vt 0.4619 0.6487 0.0000
vt 0.4619 0.4737 0.0000
vt 0.9980 0.6485 0.0000
vt 0.9980 0.8235 0.0000
vt 0.4619 0.6485 0.0000
vt 0.4619 0.8235 0.0000
vt 0.9980 0.6485 0.0000
vt 0.9980 0.8235 0.0000
vt 0.4619 0.8235 0.0000
vt 0.4619 0.6485 0.0000
vt 0.9980 0.6485 0.0000
vt 0.9980 0.8235 0.0000
vt 0.4619 0.6485 0.0000
vt 0.4619 0.8235 0.0000
vt 0.9980 0.6485 0.0000
vt 0.9980 0.8235 0.0000
vt 0.4619 0.8235 0.0000
vt 0.4619 0.6485 0.0000
vt 0.9980 0.6485 0.0000
vt 0.9980 0.8235 0.0000
vt 0.4619 0.6485 0.0000
vt 0.4619 0.8235 0.0000
vt 0.9980 0.6485 0.0000
vt 0.9980 0.8235 0.0000
vt 0.4619 0.8235 0.0000
vt 0.4619 0.6485 0.0000
vt 0.9980 0.6485 0.0000
vt 0.9980 0.8235 0.0000
vt 0.4619 0.6485 0.0000
vt 0.4619 0.8235 0.0000
vt 0.9980 0.6485 0.0000
vt 0.9980 0.8235 0.0000
vt 0.4619 0.8235 0.0000
vt 0.4619 0.6485 0.0000
vt 0.9727 0.5684 0.0000
vt 0.9727 0.5731 0.0000
vt 0.9570 0.5684 0.0000
vt 0.9570 0.5731 0.0000
vt 0.9570 0.5684 0.0000
vt 0.9727 0.5684 0.0000
vt 0.9727 0.5731 0.0000
vt 0.9570 0.5731 0.0000
vt 0.9648 0.5731 0.0000
vt 0.9648 0.5684 0.0000
vt 0.9648 0.5684 0.0000
vt 0.9648 0.5731 0.0000
vt 0.9687 0.5731 0.0000
vt 0.9609 0.5684 0.0000
vt 0.9687 0.5684 0.0000
vt 0.9609 0.5731 0.0000
vt 0.9609 0.5731 0.0000
vt 0.9687 0.5684 0.0000
vt 0.9609 0.5684 0.0000
vt 0.9687 0.5731 0.0000
vt 0.9727 0.5684 0.0000
vt 0.9727 0.5731 0.0000
vt 0.9570 0.5684 0.0000
vt 0.9570 0.5731 0.0000
vt 0.9570 0.5684 0.0000
vt 0.9727 0.5684 0.0000
vt 0.9727 0.5731 0.0000
vt 0.9570 0.5731 0.0000
vt 0.9648 0.5731 0.0000
vt 0.9648 0.5684 0.0000
vt 0.9648 0.5684 0.0000
vt 0.9648 0.5731 0.0000
vt 0.9687 0.5731 0.0000
vt 0.9609 0.5684 0.0000
vt 0.9687 0.5684 0.0000
vt 0.9609 0.5731 0.0000
vt 0.9609 0.5731 0.0000
vt 0.9687 0.5684 0.0000
vt 0.9609 0.5684 0.0000
vt 0.9687 0.5731 0.0000
vt 0.9980 0.4737 0.0000
vt 0.9980 0.6487 0.0000
vt 0.4619 0.4737 0.0000
vt 0.4619 0.6487 0.0000
vt 0.9980 0.4737 0.0000
vt 0.9980 0.6487 0.0000
vt 0.4619 0.6487 0.0000
vt 0.4619 0.4737 0.0000
vt 0.9980 0.4737 0.0000
vt 0.9980 0.6487 0.0000
vt 0.4619 0.4737 0.0000
vt 0.4619 0.6487 0.0000
vt 0.9980 0.4737 0.0000
vt 0.9980 0.6487 0.0000
vt 0.4619 0.6487 0.0000
vt 0.4619 0.4737 0.0000
vt 0.9980 0.4737 0.0000
vt 0.9980 0.6487 0.0000
vt 0.4619 0.4737 0.0000
vt 0.4619 0.6487 0.0000
vt 0.9980 0.4737 0.0000
vt 0.9980 0.6487 0.0000
vt 0.4619 0.6487 0.0000
vt 0.4619 0.4737 0.0000
vt 0.9980 0.4737 0.0000
vt 0.9980 0.6487 0.0000
vt 0.4619 0.4737 0.0000
vt 0.4619 0.6487 0.0000
vt 0.9980 0.4737 0.0000
vt 0.9980 0.6487 0.0000
vt 0.4619 0.6487 0.0000
vt 0.4619 0.4737 0.0000
vt 0.9980 0.4737 0.0000
vt 0.9980 0.6487 0.0000
vt 0.4619 0.4737 0.0000
vt 0.4619 0.6487 0.0000
vt 0.9980 0.4737 0.0000
vt 0.9980 0.6487 0.0000
vt 0.4619 0.6487 0.0000
vt 0.4619 0.4737 0.0000
vt 0.9980 0.4737 0.0000
vt 0.9980 0.6487 0.0000
vt 0.4619 0.4737 0.0000
vt 0.4619 0.6487 0.0000
vt 0.9980 0.4737 0.0000
vt 0.9980 0.6487 0.0000
vt 0.4619 0.6487 0.0000
vt 0.4619 0.4737 0.0000
vt 0.9980 0.4737 0.0000
vt 0.9980 0.6487 0.0000
vt 0.4619 0.4737 0.0000
vt 0.4619 0.6487 0.0000
vt 0.9980 0.4737 0.0000
vt 0.9980 0.6487 0.0000
vt 0.4619 0.6487 0.0000
vt 0.4619 0.4737 0.0000
vt 0.9980 0.4737 0.0000
vt 0.9980 0.6487 0.0000
vt 0.4619 0.4737 0.0000
vt 0.4619 0.6487 0.0000
vt 0.9980 0.4737 0.0000
vt 0.9980 0.6487 0.0000
vt 0.4619 0.6487 0.0000
vt 0.4619 0.4737 0.0000
vt 0.9980 0.6485 0.0000
vt 0.9980 0.8235 0.0000
vt 0.4619 0.6485 0.0000
vt 0.4619 0.8235 0.0000
vt 0.9980 0.6485 0.0000
vt 0.9980 0.8235 0.0000
vt 0.4619 0.8235 0.0000
vt 0.4619 0.6485 0.0000
vt 0.9980 0.4737 0.0000
vt 0.9980 0.6487 0.0000
vt 0.4619 0.4737 0.0000
vt 0.4619 0.6487 0.0000
vt 0.9980 0.4737 0.0000
vt 0.9980 0.6487 0.0000
vt 0.4619 0.6487 0.0000
vt 0.4619 0.4737 0.0000
vt 0.9980 0.6485 0.0000
vt 0.9980 0.8235 0.0000
vt 0.4619 0.6485 0.0000
vt 0.4619 0.8235 0.0000
vt 0.9980 0.6485 0.0000
vt 0.9980 0.8235 0.0000
vt 0.4619 0.8235 0.0000
vt 0.4619 0.6485 0.0000
vt 0.9980 0.6485 0.0000
vt 0.9980 0.8235 0.0000
vt 0.4619 0.6485 0.0000
vt 0.4619 0.8235 0.0000
vt 0.9980 0.6485 0.0000
vt 0.9980 0.8235 0.0000
vt 0.4619 0.8235 0.0000
vt 0.4619 0.6485 0.0000
vt 0.9727 0.5684 0.0000
vt 0.9727 0.5731 0.0000
vt 0.9570 0.5684 0.0000
vt 0.9570 0.5731 0.0000
vt 0.9570 0.5684 0.0000
vt 0.9727 0.5684 0.0000
vt 0.9727 0.5731 0.0000
vt 0.9570 0.5731 0.0000
vt 0.9648 0.5731 0.0000
vt 0.9648 0.5684 0.0000
vt 0.9648 0.5684 0.0000
vt 0.9648 0.5731 0.0000
vt 0.9687 0.5731 0.0000
vt 0.9609 0.5684 0.0000
vt 0.9687 0.5684 0.0000
vt 0.9609 0.5731 0.0000
vt 0.9609 0.5731 0.0000
vt 0.9687 0.5684 0.0000
vt 0.9609 0.5684 0.0000
vt 0.9687 0.5731 0.0000
vt 0.9727 0.5684 0.0000
vt 0.9727 0.5731 0.0000
vt 0.9570 0.5684 0.0000
vt 0.9570 0.5731 0.0000
vt 0.9570 0.5684 0.0000
vt 0.9727 0.5684 0.0000
vt 0.9727 0.5731 0.0000
vt 0.9570 0.5731 0.0000
vt 0.9648 0.5731 0.0000
vt 0.9648 0.5684 0.0000
vt 0.9648 0.5684 0.0000
vt 0.9648 0.5731 0.0000
vt 0.9687 0.5731 0.0000
vt 0.9609 0.5684 0.0000
vt 0.9687 0.5684 0.0000
vt 0.9609 0.5731 0.0000
vt 0.9609 0.5731 0.0000
vt 0.9687 0.5684 0.0000
vt 0.9609 0.5684 0.0000
vt 0.9687 0.5731 0.0000
vt 0.9980 0.4737 0.0000
vt 0.9980 0.6487 0.0000
vt 0.4619 0.4737 0.0000
vt 0.4619 0.6487 0.0000
vt 0.9980 0.4737 0.0000
vt 0.9980 0.6487 0.0000
vt 0.4619 0.6487 0.0000
vt 0.4619 0.4737 0.0000
vt 0.9980 0.4737 0.0000
vt 0.9980 0.6487 0.0000
vt 0.4619 0.4737 0.0000
vt 0.4619 0.6487 0.0000
vt 0.9980 0.4737 0.0000
vt 0.9980 0.6487 0.0000
vt 0.4619 0.6487 0.0000
vt 0.4619 0.4737 0.0000
vt 0.9980 0.4737 0.0000
vt 0.9980 0.6487 0.0000
vt 0.4619 0.4737 0.0000
vt 0.4619 0.6487 0.0000
vt 0.9980 0.4737 0.0000
vt 0.9980 0.6487 0.0000
vt 0.4619 0.6487 0.0000
vt 0.4619 0.4737 0.0000
vt 0.9980 0.4737 0.0000
vt 0.9980 0.6487 0.0000
vt 0.4619 0.4737 0.0000
vt 0.4619 0.6487 0.0000
vt 0.9980 0.4737 0.0000
vt 0.9980 0.6487 0.0000
vt 0.4619 0.6487 0.0000
vt 0.4619 0.4737 0.0000
vt 0.9980 0.4737 0.0000
vt 0.9980 0.6487 0.0000
vt 0.4619 0.4737 0.0000
vt 0.4619 0.6487 0.0000
vt 0.9980 0.4737 0.0000
vt 0.9980 0.6487 0.0000
vt 0.4619 0.6487 0.0000
vt 0.4619 0.4737 0.0000
vt 0.9980 0.4737 0.0000
vt 0.9980 0.6487 0.0000
vt 0.4619 0.4737 0.0000
vt 0.4619 0.6487 0.0000
vt 0.9980 0.4737 0.0000
vt 0.9980 0.6487 0.0000
vt 0.4619 0.6487 0.0000
vt 0.4619 0.4737 0.0000
vt 0.9980 0.4737 0.0000
vt 0.9980 0.6487 0.0000
vt 0.4619 0.4737 0.0000
vt 0.4619 0.6487 0.0000
vt 0.9980 0.4737 0.0000
vt 0.9980 0.6487 0.0000
vt 0.4619 0.6487 0.0000
vt 0.4619 0.4737 0.0000
vt 0.9980 0.4737 0.0000
vt 0.9980 0.6487 0.0000
vt 0.4619 0.4737 0.0000
vt 0.4619 0.6487 0.0000
vt 0.9980 0.4737 0.0000
vt 0.9980 0.6487 0.0000
vt 0.4619 0.6487 0.0000
vt 0.4619 0.4737 0.0000
vt 0.9980 0.6485 0.0000
vt 0.9980 0.8235 0.0000
vt 0.4619 0.6485 0.0000
vt 0.4619 0.8235 0.0000
vt 0.9980 0.6485 0.0000
vt 0.9980 0.8235 0.0000
vt 0.4619 0.8235 0.0000
vt 0.4619 0.6485 0.0000
vt 0.9980 0.6485 0.0000
vt 0.9980 0.8235 0.0000
vt 0.4619 0.6485 0.0000
vt 0.4619 0.8235 0.0000
vt 0.9980 0.6485 0.0000
vt 0.9980 0.8235 0.0000
vt 0.4619 0.8235 0.0000
vt 0.4619 0.6485 0.0000
vt 0.9980 0.6485 0.0000
vt 0.9980 0.8235 0.0000
vt 0.4619 0.6485 0.0000
vt 0.4619 0.8235 0.0000
vt 0.9980 0.6485 0.0000
vt 0.9980 0.8235 0.0000
vt 0.4619 0.8235 0.0000
vt 0.4619 0.6485 0.0000
vt 0.9980 0.6485 0.0000
vt 0.9980 0.8235 0.0000
vt 0.4619 0.6485 0.0000
vt 0.4619 0.8235 0.0000
vt 0.9980 0.6485 0.0000
vt 0.9980 0.8235 0.0000
vt 0.4619 0.8235 0.0000
vt 0.4619 0.6485 0.0000
vt 0.9727 0.5684 0.0000
vt 0.9727 0.5731 0.0000
vt 0.9570 0.5684 0.0000
vt 0.9570 0.5731 0.0000
vt 0.9570 0.5684 0.0000
vt 0.9727 0.5684 0.0000
vt 0.9727 0.5731 0.0000
vt 0.9570 0.5731 0.0000
vt 0.9648 0.5731 0.0000
vt 0.9648 0.5684 0.0000
vt 0.9648 0.5684 0.0000
vt 0.9648 0.5731 0.0000
vt 0.9687 0.5731 0.0000
vt 0.9609 0.5684 0.0000
vt 0.9687 0.5684 0.0000
vt 0.9609 0.5731 0.0000
vt 0.9609 0.5731 0.0000
vt 0.9687 0.5684 0.0000
vt 0.9609 0.5684 0.0000
vt 0.9687 0.5731 0.0000
vt 0.9727 0.5684 0.0000
vt 0.9727 0.5731 0.0000
vt 0.9570 0.5684 0.0000
vt 0.9570 0.5731 0.0000
vt 0.9570 0.5684 0.0000
vt 0.9727 0.5684 0.0000
vt 0.9727 0.5731 0.0000
vt 0.9570 0.5731 0.0000
vt 0.9648 0.5731 0.0000
vt 0.9648 0.5684 0.0000
vt 0.9648 0.5684 0.0000
vt 0.9648 0.5731 0.0000
vt 0.9687 0.5731 0.0000
vt 0.9609 0.5684 0.0000
vt 0.9687 0.5684 0.0000
vt 0.9609 0.5731 0.0000
vt 0.9609 0.5731 0.0000
vt 0.9687 0.5684 0.0000
vt 0.9609 0.5684 0.0000
vt 0.9687 0.5731 0.0000
vt 0.9980 0.4737 0.0000
vt 0.9980 0.6487 0.0000
vt 0.4619 0.4737 0.0000
vt 0.4619 0.6487 0.0000
vt 0.9980 0.4737 0.0000
vt 0.9980 0.6487 0.0000
vt 0.4619 0.6487 0.0000
vt 0.4619 0.4737 0.0000
vt 0.9980 0.4737 0.0000
vt 0.9980 0.6487 0.0000
vt 0.4619 0.4737 0.0000
vt 0.4619 0.6487 0.0000
vt 0.9980 0.4737 0.0000
vt 0.9980 0.6487 0.0000
vt 0.4619 0.6487 0.0000
vt 0.4619 0.4737 0.0000
vt 0.9980 0.4737 0.0000
vt 0.9980 0.6487 0.0000
vt 0.4619 0.4737 0.0000
vt 0.4619 0.6487 0.0000
vt 0.9980 0.4737 0.0000
vt 0.9980 0.6487 0.0000
vt 0.4619 0.6487 0.0000
vt 0.4619 0.4737 0.0000
vt 0.9980 0.4737 0.0000
vt 0.9980 0.6487 0.0000
vt 0.4619 0.4737 0.0000
vt 0.4619 0.6487 0.0000
vt 0.9980 0.4737 0.0000
vt 0.9980 0.6487 0.0000
vt 0.4619 0.6487 0.0000
vt 0.4619 0.4737 0.0000
vt 0.9980 0.4737 0.0000
vt 0.9980 0.6487 0.0000
vt 0.4619 0.4737 0.0000
vt 0.4619 0.6487 0.0000
vt 0.9980 0.4737 0.0000
vt 0.9980 0.6487 0.0000
vt 0.4619 0.6487 0.0000
vt 0.4619 0.4737 0.0000
vt 0.9980 0.4737 0.0000
vt 0.9980 0.6487 0.0000
vt 0.4619 0.4737 0.0000
vt 0.4619 0.6487 0.0000
vt 0.9980 0.4737 0.0000
vt 0.9980 0.6487 0.0000
vt 0.4619 0.6487 0.0000
vt 0.4619 0.4737 0.0000
vt 0.9980 0.4737 0.0000
vt 0.9980 0.6487 0.0000
vt 0.4619 0.4737 0.0000
vt 0.4619 0.6487 0.0000
vt 0.9980 0.4737 0.0000
vt 0.9980 0.6487 0.0000
vt 0.4619 0.6487 0.0000
vt 0.4619 0.4737 0.0000
vt 0.9980 0.4737 0.0000
vt 0.9980 0.6487 0.0000
vt 0.4619 0.4737 0.0000
vt 0.4619 0.6487 0.0000
vt 0.9980 0.4737 0.0000
vt 0.9980 0.6487 0.0000
vt 0.4619 0.6487 0.0000
vt 0.4619 0.4737 0.0000
vt 0.9980 0.6485 0.0000
vt 0.9980 0.8235 0.0000
vt 0.4619 0.6485 0.0000
vt 0.4619 0.8235 0.0000
vt 0.9980 0.6485 0.0000
vt 0.9980 0.8235 0.0000
vt 0.4619 0.8235 0.0000
vt 0.4619 0.6485 0.0000
vt 0.9980 0.6485 0.0000
vt 0.9980 0.8235 0.0000
vt 0.4619 0.6485 0.0000
vt 0.4619 0.8235 0.0000
vt 0.9980 0.6485 0.0000
vt 0.9980 0.8235 0.0000
vt 0.4619 0.8235 0.0000
vt 0.4619 0.6485 0.0000
vt 0.9980 0.6485 0.0000
vt 0.9980 0.8235 0.0000
vt 0.4619 0.6485 0.0000
vt 0.4619 0.8235 0.0000
vt 0.9980 0.6485 0.0000
vt 0.9980 0.8235 0.0000
vt 0.4619 0.8235 0.0000
vt 0.4619 0.6485 0.0000
vt 0.9980 0.6485 0.0000
vt 0.9980 0.8235 0.0000
vt 0.4619 0.6485 0.0000
vt 0.4619 0.8235 0.0000
vt 0.9980 0.6485 0.0000
vt 0.9980 0.8235 0.0000
vt 0.4619 0.8235 0.0000
vt 0.4619 0.6485 0.0000
vt 0.9727 0.5684 0.0000
vt 0.9727 0.5731 0.0000
vt 0.9570 0.5684 0.0000
vt 0.9570 0.5731 0.0000
vt 0.9570 0.5684 0.0000
vt 0.9727 0.5684 0.0000
vt 0.9727 0.5731 0.0000
vt 0.9570 0.5731 0.0000
vt 0.9648 0.5731 0.0000
vt 0.9648 0.5684 0.0000
vt 0.9648 0.5684 0.0000
vt 0.9648 0.5731 0.0000
vt 0.9687 0.5731 0.0000
vt 0.9609 0.5684 0.0000
vt 0.9687 0.5684 0.0000
vt 0.9609 0.5731 0.0000
vt 0.9609 0.5731 0.0000
vt 0.9687 0.5684 0.0000
vt 0.9609 0.5684 0.0000
vt 0.9687 0.5731 0.0000
vt 0.9727 0.5684 0.0000
vt 0.9727 0.5731 0.0000
vt 0.9570 0.5684 0.0000
vt 0.9570 0.5731 0.0000
vt 0.9570 0.5684 0.0000
vt 0.9727 0.5684 0.0000
vt 0.9727 0.5731 0.0000
vt 0.9570 0.5731 0.0000
vt 0.9648 0.5731 0.0000
vt 0.9648 0.5684 0.0000
vt 0.9648 0.5684 0.0000
vt 0.9648 0.5731 0.0000
vt 0.9687 0.5731 0.0000
vt 0.9609 0.5684 0.0000
vt 0.9687 0.5684 0.0000
vt 0.9609 0.5731 0.0000
vt 0.9609 0.5731 0.0000
vt 0.9687 0.5684 0.0000
vt 0.9609 0.5684 0.0000
vt 0.9687 0.5731 0.0000
vt 0.9980 0.4737 0.0000
vt 0.9980 0.6487 0.0000
vt 0.4619 0.4737 0.0000
vt 0.4619 0.6487 0.0000
vt 0.9980 0.4737 0.0000
vt 0.9980 0.6487 0.0000
vt 0.4619 0.6487 0.0000
vt 0.4619 0.4737 0.0000
vt 0.9980 0.4737 0.0000
vt 0.9980 0.6487 0.0000
vt 0.4619 0.4737 0.0000
vt 0.4619 0.6487 0.0000
vt 0.9980 0.4737 0.0000
vt 0.9980 0.6487 0.0000
vt 0.4619 0.6487 0.0000
vt 0.4619 0.4737 0.0000
vt 0.9980 0.4737 0.0000
vt 0.9980 0.6487 0.0000
vt 0.4619 0.4737 0.0000
vt 0.4619 0.6487 0.0000
vt 0.9980 0.4737 0.0000
vt 0.9980 0.6487 0.0000
vt 0.4619 0.6487 0.0000
vt 0.4619 0.4737 0.0000
vt 0.9980 0.4737 0.0000
vt 0.9980 0.6487 0.0000
vt 0.4619 0.4737 0.0000
vt 0.4619 0.6487 0.0000
vt 0.9980 0.4737 0.0000
vt 0.9980 0.6487 0.0000
vt 0.4619 0.6487 0.0000
vt 0.4619 0.4737 0.0000
vt 0.9980 0.4737 0.0000
vt 0.9980 0.6487 0.0000
vt 0.4619 0.4737 0.0000
vt 0.4619 0.6487 0.0000
vt 0.9980 0.4737 0.0000
vt 0.9980 0.6487 0.0000
vt 0.4619 0.6487 0.0000
vt 0.4619 0.4737 0.0000
vt 0.9980 0.4737 0.0000
vt 0.9980 0.6487 0.0000
vt 0.4619 0.4737 0.0000
vt 0.4619 0.6487 0.0000
vt 0.9980 0.4737 0.0000
vt 0.9980 0.6487 0.0000
vt 0.4619 0.6487 0.0000
vt 0.4619 0.4737 0.0000
vt 0.9980 0.4737 0.0000
vt 0.9980 0.6487 0.0000
vt 0.4619 0.4737 0.0000
vt 0.4619 0.6487 0.0000
vt 0.9980 0.4737 0.0000
vt 0.9980 0.6487 0.0000
vt 0.4619 0.6487 0.0000
vt 0.4619 0.4737 0.0000
vt 0.9980 0.4737 0.0000
vt 0.9980 0.6487 0.0000
vt 0.4619 0.4737 0.0000
vt 0.4619 0.6487 0.0000
vt 0.9980 0.4737 0.0000
vt 0.9980 0.6487 0.0000
vt 0.4619 0.6487 0.0000
vt 0.4619 0.4737 0.0000
vt 0.9980 0.6485 0.0000
vt 0.9980 0.8235 0.0000
vt 0.4619 0.6485 0.0000
vt 0.4619 0.8235 0.0000
vt 0.9980 0.6485 0.0000
vt 0.9980 0.8235 0.0000
vt 0.4619 0.8235 0.0000
vt 0.4619 0.6485 0.0000
vt 0.9980 0.6485 0.0000
vt 0.9980 0.8235 0.0000
vt 0.4619 0.6485 0.0000
vt 0.4619 0.8235 0.0000
vt 0.9980 0.6485 0.0000
vt 0.9980 0.8235 0.0000
vt 0.4619 0.8235 0.0000
vt 0.4619 0.6485 0.0000
vt 0.9980 0.6485 0.0000
vt 0.9980 0.8235 0.0000
vt 0.4619 0.6485 0.0000
vt 0.4619 0.8235 0.0000
vt 0.9980 0.6485 0.0000
vt 0.9980 0.8235 0.0000
vt 0.4619 0.8235 0.0000
vt 0.4619 0.6485 0.0000
vt 0.9980 0.6485 0.0000
vt 0.9980 0.8235 0.0000
vt 0.4619 0.6485 0.0000
vt 0.4619 0.8235 0.0000
vt 0.9980 0.6485 0.0000
vt 0.9980 0.8235 0.0000
vt 0.4619 0.8235 0.0000
vt 0.4619 0.6485 0.0000
# 680 texture coords

o GorseStage01
g GorseStage01
s 1
f 14/14/1 17/17/2 4/4/3 
f 4/4/4 3/3/5 14/14/6 
f 8/8/7 16/16/8 19/19/9 
f 19/19/10 5/5/11 8/8/12 
f 18/18/13 13/13/14 9/9/15 
f 9/9/16 10/10/17 18/18/18 
f 20/20/19 15/15/20 11/11/21 
f 11/11/22 12/12/23 20/20/24 
f 10/10/25 9/9/26 17/17/27 
f 17/17/28 14/14/29 10/10/30 
f 12/12/31 11/11/32 19/19/33 
f 19/19/34 16/16/35 12/12/36 
f 1/1/37 2/2/38 13/13/39 
f 13/13/40 18/18/41 1/1/42 
f 7/7/43 6/6/44 15/15/45 
f 15/15/46 20/20/47 7/7/48 
f 34/34/49 37/37/50 24/24/51 
f 24/24/52 23/23/53 34/34/54 
f 28/28/55 36/36/56 39/39/57 
f 39/39/58 25/25/59 28/28/60 
f 38/38/61 33/33/62 29/29/63 
f 29/29/64 30/30/65 38/38/66 
f 40/40/67 35/35/68 31/31/69 
f 31/31/70 32/32/71 40/40/72 
f 30/30/73 29/29/74 37/37/75 
f 37/37/76 34/34/77 30/30/78 
f 32/32/79 31/31/80 39/39/81 
f 39/39/82 36/36/83 32/32/84 
f 21/21/85 22/22/86 33/33/87 
f 33/33/88 38/38/89 21/21/90 
f 27/27/91 26/26/92 35/35/93 
f 35/35/94 40/40/95 27/27/96 
f 41/41/97 42/42/98 44/44/99 
f 44/44/100 43/43/101 41/41/102 
f 45/45/103 48/48/104 47/47/105 
f 47/47/106 46/46/107 45/45/108 
f 49/49/109 50/50/110 52/52/111 
f 52/52/112 51/51/113 49/49/114 
f 53/53/115 56/56/116 55/55/117 
f 55/55/118 54/54/119 53/53/120 
f 57/57/121 58/58/122 60/60/123 
f 60/60/124 59/59/125 57/57/126 
f 61/61/127 64/64/128 63/63/129 
f 63/63/130 62/62/131 61/61/132 
f 65/65/133 66/66/134 68/68/135 
f 68/68/136 67/67/137 65/65/138 
f 69/69/139 72/72/140 71/71/141 
f 71/71/142 70/70/143 69/69/144 
f 73/73/145 74/74/146 76/76/147 
f 76/76/148 75/75/149 73/73/150 
f 77/77/151 80/80/152 79/79/153 
f 79/79/154 78/78/155 77/77/156 
f 81/81/157 82/82/158 84/84/159 
f 84/84/160 83/83/161 81/81/162 
f 85/85/163 88/88/164 87/87/165 
f 87/87/166 86/86/167 85/85/168 
f 89/89/169 90/90/170 92/92/171 
f 92/92/172 91/91/173 89/89/174 
f 93/93/175 96/96/176 95/95/177 
f 95/95/178 94/94/179 93/93/180 
f 97/97/181 98/98/182 100/100/183 
f 100/100/184 99/99/185 97/97/186 
f 101/101/187 104/104/188 103/103/189 
f 103/103/190 102/102/191 101/101/192 
f 105/105/193 106/106/194 108/108/195 
f 108/108/196 107/107/197 105/105/198 
f 109/109/199 112/112/200 111/111/201 
f 111/111/202 110/110/203 109/109/204 
f 113/113/205 114/114/206 116/116/207 
f 116/116/208 115/115/209 113/113/210 
f 117/117/211 120/120/212 119/119/213 
f 119/119/214 118/118/215 117/117/216 
f 121/121/217 122/122/218 124/124/219 
f 124/124/220 123/123/221 121/121/222 
f 125/125/223 128/128/224 127/127/225 
f 127/127/226 126/126/227 125/125/228 
f 129/129/229 130/130/230 132/132/231 
f 132/132/232 131/131/233 129/129/234 
f 133/133/235 136/136/236 135/135/237 
f 135/135/238 134/134/239 133/133/240 
f 150/150/241 153/153/242 140/140/243 
f 140/140/244 139/139/245 150/150/246 
f 144/144/247 152/152/248 155/155/249 
f 155/155/250 141/141/251 144/144/252 
f 154/154/253 149/149/254 145/145/255 
f 145/145/256 146/146/257 154/154/258 
f 156/156/259 151/151/260 147/147/261 
f 147/147/262 148/148/263 156/156/264 
f 146/146/265 145/145/266 153/153/267 
f 153/153/268 150/150/269 146/146/270 
f 148/148/271 147/147/272 155/155/273 
f 155/155/274 152/152/275 148/148/276 
f 137/137/277 138/138/278 149/149/279 
f 149/149/280 154/154/281 137/137/282 
f 143/143/283 142/142/284 151/151/285 
f 151/151/286 156/156/287 143/143/288 
f 170/170/289 173/173/290 160/160/291 
f 160/160/292 159/159/293 170/170/294 
f 164/164/295 172/172/296 175/175/297 
f 175/175/298 161/161/299 164/164/300 
f 174/174/301 169/169/302 165/165/303 
f 165/165/304 166/166/305 174/174/306 
f 176/176/307 171/171/308 167/167/309 
f 167/167/310 168/168/311 176/176/312 
f 166/166/313 165/165/314 173/173/315 
f 173/173/316 170/170/317 166/166/318 
f 168/168/319 167/167/320 175/175/321 
f 175/175/322 172/172/323 168/168/324 
f 157/157/325 158/158/326 169/169/327 
f 169/169/328 174/174/329 157/157/330 
f 163/163/331 162/162/332 171/171/333 
f 171/171/334 176/176/335 163/163/336 
f 177/177/337 178/178/338 180/180/339 
f 180/180/340 179/179/341 177/177/342 
f 181/181/343 184/184/344 183/183/345 
f 183/183/346 182/182/347 181/181/348 
f 185/185/349 186/186/350 188/188/351 
f 188/188/352 187/187/353 185/185/354 
f 189/189/355 192/192/356 191/191/357 
f 191/191/358 190/190/359 189/189/360 
f 193/193/361 194/194/362 196/196/363 
f 196/196/364 195/195/365 193/193/366 
f 197/197/367 200/200/368 199/199/369 
f 199/199/370 198/198/371 197/197/372 
f 201/201/373 202/202/374 204/204/375 
f 204/204/376 203/203/377 201/201/378 
f 205/205/379 208/208/380 207/207/381 
f 207/207/382 206/206/383 205/205/384 
f 209/209/385 210/210/386 212/212/387 
f 212/212/388 211/211/389 209/209/390 
f 213/213/391 216/216/392 215/215/393 
f 215/215/394 214/214/395 213/213/396 
f 217/217/397 218/218/398 220/220/399 
f 220/220/400 219/219/401 217/217/402 
f 221/221/403 224/224/404 223/223/405 
f 223/223/406 222/222/407 221/221/408 
f 225/225/409 226/226/410 228/228/411 
f 228/228/412 227/227/413 225/225/414 
f 229/229/415 232/232/416 231/231/417 
f 231/231/418 230/230/419 229/229/420 
f 233/233/421 234/234/422 236/236/423 
f 236/236/424 235/235/425 233/233/426 
f 237/237/427 240/240/428 239/239/429 
f 239/239/430 238/238/431 237/237/432 
f 241/241/433 242/242/434 244/244/435 
f 244/244/436 243/243/437 241/241/438 
f 245/245/439 248/248/440 247/247/441 
f 247/247/442 246/246/443 245/245/444 
f 249/249/445 250/250/446 252/252/447 
f 252/252/448 251/251/449 249/249/450 
f 253/253/451 256/256/452 255/255/453 
f 255/255/454 254/254/455 253/253/456 
f 257/257/457 258/258/458 260/260/459 
f 260/260/460 259/259/461 257/257/462 
f 261/261/463 264/264/464 263/263/465 
f 263/263/466 262/262/467 261/261/468 
f 265/265/469 266/266/470 268/268/471 
f 268/268/472 267/267/473 265/265/474 
f 269/269/475 272/272/476 271/271/477 
f 271/271/478 270/270/479 269/269/480 
f 286/286/481 289/289/482 276/276/483 
f 276/276/484 275/275/485 286/286/486 
f 280/280/487 288/288/488 291/291/489 
f 291/291/490 277/277/491 280/280/492 
f 290/290/493 285/285/494 281/281/495 
f 281/281/496 282/282/497 290/290/498 
f 292/292/499 287/287/500 283/283/501 
f 283/283/502 284/284/503 292/292/504 
f 282/282/505 281/281/506 289/289/507 
f 289/289/508 286/286/509 282/282/510 
f 284/284/511 283/283/512 291/291/513 
f 291/291/514 288/288/515 284/284/516 
f 273/273/517 274/274/518 285/285/519 
f 285/285/520 290/290/521 273/273/522 
f 279/279/523 278/278/524 287/287/525 
f 287/287/526 292/292/527 279/279/528 
f 306/306/529 309/309/530 296/296/531 
f 296/296/532 295/295/533 306/306/534 
f 300/300/535 308/308/536 311/311/537 
f 311/311/538 297/297/539 300/300/540 
f 310/310/541 305/305/542 301/301/543 
f 301/301/544 302/302/545 310/310/546 
f 312/312/547 307/307/548 303/303/549 
f 303/303/550 304/304/551 312/312/552 
f 302/302/553 301/301/554 309/309/555 
f 309/309/556 306/306/557 302/302/558 
f 304/304/559 303/303/560 311/311/561 
f 311/311/562 308/308/563 304/304/564 
f 293/293/565 294/294/566 305/305/567 
f 305/305/568 310/310/569 293/293/570 
f 299/299/571 298/298/572 307/307/573 
f 307/307/574 312/312/575 299/299/576 
f 313/313/577 314/314/578 316/316/579 
f 316/316/580 315/315/581 313/313/582 
f 317/317/583 320/320/584 319/319/585 
f 319/319/586 318/318/587 317/317/588 
f 321/321/589 322/322/590 324/324/591 
f 324/324/592 323/323/593 321/321/594 
f 325/325/595 328/328/596 327/327/597 
f 327/327/598 326/326/599 325/325/600 
f 329/329/601 330/330/602 332/332/603 
f 332/332/604 331/331/605 329/329/606 
f 333/333/607 336/336/608 335/335/609 
f 335/335/610 334/334/611 333/333/612 
f 337/337/613 338/338/614 340/340/615 
f 340/340/616 339/339/617 337/337/618 
f 341/341/619 344/344/620 343/343/621 
f 343/343/622 342/342/623 341/341/624 
f 345/345/625 346/346/626 348/348/627 
f 348/348/628 347/347/629 345/345/630 
f 349/349/631 352/352/632 351/351/633 
f 351/351/634 350/350/635 349/349/636 
f 353/353/637 354/354/638 356/356/639 
f 356/356/640 355/355/641 353/353/642 
f 357/357/643 360/360/644 359/359/645 
f 359/359/646 358/358/647 357/357/648 
f 361/361/649 362/362/650 364/364/651 
f 364/364/652 363/363/653 361/361/654 
f 365/365/655 368/368/656 367/367/657 
f 367/367/658 366/366/659 365/365/660 
f 369/369/661 370/370/662 372/372/663 
f 372/372/664 371/371/665 369/369/666 
f 373/373/667 376/376/668 375/375/669 
f 375/375/670 374/374/671 373/373/672 
f 377/377/673 378/378/674 380/380/675 
f 380/380/676 379/379/677 377/377/678 
f 381/381/679 384/384/680 383/383/681 
f 383/383/682 382/382/683 381/381/684 
f 385/385/685 386/386/686 388/388/687 
f 388/388/688 387/387/689 385/385/690 
f 389/389/691 392/392/692 391/391/693 
f 391/391/694 390/390/695 389/389/696 
f 393/393/697 394/394/698 396/396/699 
f 396/396/700 395/395/701 393/393/702 
f 397/397/703 400/400/704 399/399/705 
f 399/399/706 398/398/707 397/397/708 
f 401/401/709 402/402/710 404/404/711 
f 404/404/712 403/403/713 401/401/714 
f 405/405/715 408/408/716 407/407/717 
f 407/407/718 406/406/719 405/405/720 
f 422/422/721 425/425/722 412/412/723 
f 412/412/724 411/411/725 422/422/726 
f 416/416/727 424/424/728 427/427/729 
f 427/427/730 413/413/731 416/416/732 
f 426/426/733 421/421/734 417/417/735 
f 417/417/736 418/418/737 426/426/738 
f 428/428/739 423/423/740 419/419/741 
f 419/419/742 420/420/743 428/428/744 
f 418/418/745 417/417/746 425/425/747 
f 425/425/748 422/422/749 418/418/750 
f 420/420/751 419/419/752 427/427/753 
f 427/427/754 424/424/755 420/420/756 
f 409/409/757 410/410/758 421/421/759 
f 421/421/760 426/426/761 409/409/762 
f 415/415/763 414/414/764 423/423/765 
f 423/423/766 428/428/767 415/415/768 
f 442/442/769 445/445/770 432/432/771 
f 432/432/772 431/431/773 442/442/774 
f 436/436/775 444/444/776 447/447/777 
f 447/447/778 433/433/779 436/436/780 
f 446/446/781 441/441/782 437/437/783 
f 437/437/784 438/438/785 446/446/786 
f 448/448/787 443/443/788 439/439/789 
f 439/439/790 440/440/791 448/448/792 
f 438/438/793 437/437/794 445/445/795 
f 445/445/796 442/442/797 438/438/798 
f 440/440/799 439/439/800 447/447/801 
f 447/447/802 444/444/803 440/440/804 
f 429/429/805 430/430/806 441/441/807 
f 441/441/808 446/446/809 429/429/810 
f 435/435/811 434/434/812 443/443/813 
f 443/443/814 448/448/815 435/435/816 
f 449/449/817 450/450/818 452/452/819 
f 452/452/820 451/451/821 449/449/822 
f 453/453/823 456/456/824 455/455/825 
f 455/455/826 454/454/827 453/453/828 
f 457/457/829 458/458/830 460/460/831 
f 460/460/832 459/459/833 457/457/834 
f 461/461/835 464/464/836 463/463/837 
f 463/463/838 462/462/839 461/461/840 
f 465/465/841 466/466/842 468/468/843 
f 468/468/844 467/467/845 465/465/846 
f 469/469/847 472/472/848 471/471/849 
f 471/471/850 470/470/851 469/469/852 
f 473/473/853 474/474/854 476/476/855 
f 476/476/856 475/475/857 473/473/858 
f 477/477/859 480/480/860 479/479/861 
f 479/479/862 478/478/863 477/477/864 
f 481/481/865 482/482/866 484/484/867 
f 484/484/868 483/483/869 481/481/870 
f 485/485/871 488/488/872 487/487/873 
f 487/487/874 486/486/875 485/485/876 
f 489/489/877 490/490/878 492/492/879 
f 492/492/880 491/491/881 489/489/882 
f 493/493/883 496/496/884 495/495/885 
f 495/495/886 494/494/887 493/493/888 
f 497/497/889 498/498/890 500/500/891 
f 500/500/892 499/499/893 497/497/894 
f 501/501/895 504/504/896 503/503/897 
f 503/503/898 502/502/899 501/501/900 
f 505/505/901 506/506/902 508/508/903 
f 508/508/904 507/507/905 505/505/906 
f 509/509/907 512/512/908 511/511/909 
f 511/511/910 510/510/911 509/509/912 
f 513/513/913 514/514/914 516/516/915 
f 516/516/916 515/515/917 513/513/918 
f 517/517/919 520/520/920 519/519/921 
f 519/519/922 518/518/923 517/517/924 
f 521/521/925 522/522/926 524/524/927 
f 524/524/928 523/523/929 521/521/930 
f 525/525/931 528/528/932 527/527/933 
f 527/527/934 526/526/935 525/525/936 
f 529/529/937 530/530/938 532/532/939 
f 532/532/940 531/531/941 529/529/942 
f 533/533/943 536/536/944 535/535/945 
f 535/535/946 534/534/947 533/533/948 
f 537/537/949 538/538/950 540/540/951 
f 540/540/952 539/539/953 537/537/954 
f 541/541/955 544/544/956 543/543/957 
f 543/543/958 542/542/959 541/541/960 
f 558/558/961 561/561/962 548/548/963 
f 548/548/964 547/547/965 558/558/966 
f 552/552/967 560/560/968 563/563/969 
f 563/563/970 549/549/971 552/552/972 
f 562/562/973 557/557/974 553/553/975 
f 553/553/976 554/554/977 562/562/978 
f 564/564/979 559/559/980 555/555/981 
f 555/555/982 556/556/983 564/564/984 
f 554/554/985 553/553/986 561/561/987 
f 561/561/988 558/558/989 554/554/990 
f 556/556/991 555/555/992 563/563/993 
f 563/563/994 560/560/995 556/556/996 
f 545/545/997 546/546/998 557/557/999 
f 557/557/1000 562/562/1001 545/545/1002 
f 551/551/1003 550/550/1004 559/559/1005 
f 559/559/1006 564/564/1007 551/551/1008 
f 578/578/1009 581/581/1010 568/568/1011 
f 568/568/1012 567/567/1013 578/578/1014 
f 572/572/1015 580/580/1016 583/583/1017 
f 583/583/1018 569/569/1019 572/572/1020 
f 582/582/1021 577/577/1022 573/573/1023 
f 573/573/1024 574/574/1025 582/582/1026 
f 584/584/1027 579/579/1028 575/575/1029 
f 575/575/1030 576/576/1031 584/584/1032 
f 574/574/1033 573/573/1034 581/581/1035 
f 581/581/1036 578/578/1037 574/574/1038 
f 576/576/1039 575/575/1040 583/583/1041 
f 583/583/1042 580/580/1043 576/576/1044 
f 565/565/1045 566/566/1046 577/577/1047 
f 577/577/1048 582/582/1049 565/565/1050 
f 571/571/1051 570/570/1052 579/579/1053 
f 579/579/1054 584/584/1055 571/571/1056 
f 585/585/1057 586/586/1058 588/588/1059 
f 588/588/1060 587/587/1061 585/585/1062 
f 589/589/1063 592/592/1064 591/591/1065 
f 591/591/1066 590/590/1067 589/589/1068 
f 593/593/1069 594/594/1070 596/596/1071 
f 596/596/1072 595/595/1073 593/593/1074 
f 597/597/1075 600/600/1076 599/599/1077 
f 599/599/1078 598/598/1079 597/597/1080 
f 601/601/1081 602/602/1082 604/604/1083 
f 604/604/1084 603/603/1085 601/601/1086 
f 605/605/1087 608/608/1088 607/607/1089 
f 607/607/1090 606/606/1091 605/605/1092 
f 609/609/1093 610/610/1094 612/612/1095 
f 612/612/1096 611/611/1097 609/609/1098 
f 613/613/1099 616/616/1100 615/615/1101 
f 615/615/1102 614/614/1103 613/613/1104 
f 617/617/1105 618/618/1106 620/620/1107 
f 620/620/1108 619/619/1109 617/617/1110 
f 621/621/1111 624/624/1112 623/623/1113 
f 623/623/1114 622/622/1115 621/621/1116 
f 625/625/1117 626/626/1118 628/628/1119 
f 628/628/1120 627/627/1121 625/625/1122 
f 629/629/1123 632/632/1124 631/631/1125 
f 631/631/1126 630/630/1127 629/629/1128 
f 633/633/1129 634/634/1130 636/636/1131 
f 636/636/1132 635/635/1133 633/633/1134 
f 637/637/1135 640/640/1136 639/639/1137 
f 639/639/1138 638/638/1139 637/637/1140 
f 641/641/1141 642/642/1142 644/644/1143 
f 644/644/1144 643/643/1145 641/641/1146 
f 645/645/1147 648/648/1148 647/647/1149 
f 647/647/1150 646/646/1151 645/645/1152 
f 649/649/1153 650/650/1154 652/652/1155 
f 652/652/1156 651/651/1157 649/649/1158 
f 653/653/1159 656/656/1160 655/655/1161 
f 655/655/1162 654/654/1163 653/653/1164 
f 657/657/1165 658/658/1166 660/660/1167 
f 660/660/1168 659/659/1169 657/657/1170 
f 661/661/1171 664/664/1172 663/663/1173 
f 663/663/1174 662/662/1175 661/661/1176 
f 665/665/1177 666/666/1178 668/668/1179 
f 668/668/1180 667/667/1181 665/665/1182 
f 669/669/1183 672/672/1184 671/671/1185 
f 671/671/1186 670/670/1187 669/669/1188 
f 673/673/1189 674/674/1190 676/676/1191 
f 676/676/1192 675/675/1193 673/673/1194 
f 677/677/1195 680/680/1196 679/679/1197 
f 679/679/1198 678/678/1199 677/677/1200 
# 400 faces

