# 3ds Max Wavefront OBJ Exporter v0.99 - (c)2007 guruware
# File Created: 19.11.2024 10:17:57

#
# object GorseStage04
#

v  -0.5410 -15.8446 0.0449
v  0.5410 -15.8446 0.0449
v  2.2758 43.2845 -2.3045
v  3.3578 43.2824 -2.2883
v  2.2771 43.2611 -2.3913
v  -0.5410 -15.8446 -0.0449
v  0.5410 -15.8446 -0.0449
v  3.3590 43.2590 -2.3751
v  1.0588 13.2242 0.2306
v  -0.0068 13.4114 0.2470
v  -0.0095 13.4038 0.1575
v  1.0561 13.2166 0.1411
v  0.5410 -1.3183 0.0449
v  2.2509 28.7962 -2.5447
v  -0.5410 -1.3183 -0.0449
v  3.3342 28.8095 -2.6170
v  3.3329 28.7941 -2.5285
v  -0.5410 -1.3183 0.0449
v  2.2523 28.8117 -2.6332
v  0.5410 -1.3183 -0.0449
v  0.0449 -15.8446 0.5410
v  0.0449 -15.8446 -0.5410
v  2.8548 43.4124 -1.8168
v  2.8699 43.1309 -2.8615
v  2.7649 43.4126 -1.8181
v  -0.0449 -15.8446 0.5410
v  -0.0449 -15.8446 -0.5410
v  2.7801 43.1311 -2.8628
v  0.5526 13.2605 -0.3455
v  0.5852 13.3520 0.7322
v  0.4967 13.3675 0.7336
v  0.4641 13.2761 -0.3441
v  0.0449 -1.3183 -0.5410
v  2.8293 28.7095 -2.0473
v  -0.0449 -1.3183 0.5410
v  2.7558 28.8962 -3.1144
v  2.8457 28.8960 -3.1131
v  0.0449 -1.3183 0.5410
v  2.7395 28.7097 -2.0487
v  -0.0449 -1.3183 -0.5410
v  0.4126 31.8149 -4.0707
v  5.1025 25.9967 -0.9720
v  12.9240 49.3973 10.0064
v  17.6139 43.5791 13.1051
v  0.4829 31.8289 -4.1508
v  5.1729 26.0107 -1.0522
v  17.6843 43.5932 13.0249
v  12.9944 49.4114 9.9263
v  -1.7331 1.3553 2.5689
v  1.8216 -3.8448 -2.5077
v  7.7662 21.0926 -10.9975
v  11.3208 15.8924 -16.0740
v  -1.8212 1.3553 2.5072
v  1.7334 -3.8448 -2.5694
v  11.2327 15.8924 -16.1357
v  7.6781 21.0926 -11.0592
v  -1.9654 -3.4344 2.9006
v  2.0532 0.6106 -2.8385
v  -9.3545 18.8788 13.4534
v  -5.3359 22.9238 7.7143
v  -2.0535 -3.4344 2.8389
v  1.9651 0.6106 -2.9002
v  -5.4240 22.9238 7.6526
v  -9.4426 18.8788 13.3917
v  -2.1150 16.2071 0.0824
v  3.0988 10.0321 0.4486
v  17.5701 32.7100 -1.9142
v  22.7840 26.5351 -1.5480
v  -2.1183 16.1980 -0.0247
v  3.0956 10.0230 0.3415
v  22.7807 26.5260 -1.6551
v  17.5669 32.7010 -2.0213
v  -3.2170 11.8241 1.0978
v  4.2329 14.4970 -0.5762
v  -11.8279 36.1036 1.5439
v  -4.3779 38.7766 -0.1300
v  -3.2386 11.8184 0.9925
v  4.2113 14.4913 -0.6814
v  -4.3995 38.7708 -0.2352
v  -11.8495 36.0979 1.4387
v  -0.0148 31.2455 -0.8177
v  5.6443 26.5634 -4.2091
v  15.0864 51.8639 -4.0844
v  20.7455 47.1818 -7.4758
v  -0.0587 31.2624 -0.9144
v  5.6003 26.5803 -4.3058
v  20.7015 47.1987 -7.5725
v  15.0424 51.8808 -4.1811
v  -0.3815 26.8488 -1.4188
v  6.0097 31.3310 -3.5426
v  -12.1526 47.9129 7.6136
v  -5.7614 52.3952 5.4898
v  -0.4254 26.8657 -1.5155
v  5.9658 31.3479 -3.6393
v  -5.8054 52.4121 5.3931
v  -12.1966 47.9298 7.5169
v  -2.9299 1.3553 -1.0092
v  2.8937 -3.8448 1.1104
v  12.6328 21.0926 4.6552
v  18.4564 15.8924 6.7748
v  -2.8931 1.3553 -1.1102
v  2.9305 -3.8448 1.0094
v  18.4932 15.8924 6.6737
v  12.6696 21.0926 4.5541
v  -3.1978 -3.4344 -1.4318
v  3.1519 0.6106 1.5291
v  -14.8734 18.8788 -6.8762
v  -8.5236 22.9238 -3.9153
v  -3.1524 -3.4344 -1.5293
v  3.1974 0.6106 1.4316
v  -8.4782 22.9238 -4.0128
v  -14.8279 18.8788 -6.9737
v  0.0039 15.5625 -2.9719
v  0.8747 10.6881 3.4258
v  8.0828 35.5411 11.1499
v  8.9537 30.6667 17.5476
v  0.1054 15.5421 -3.0012
v  0.9762 10.6678 3.3965
v  9.0552 30.6464 17.5183
v  8.1843 35.5208 11.1206
v  -0.8942 11.0539 -2.9549
v  1.7874 15.2816 3.4000
v  -0.7372 32.4747 -17.2716
v  1.9443 36.7023 -10.9167
v  -0.7927 11.0336 -2.9842
v  1.8888 15.2613 3.3707
v  2.0458 36.6820 -10.9460
v  -0.6358 32.4543 -17.3009
v  -0.2410 27.4060 -4.6031
v  5.7702 30.7749 -0.3645
v  -11.3134 50.5172 -7.2694
v  -5.3022 53.8861 -3.0308
v  -0.1858 27.4219 -4.6940
v  5.8254 30.7908 -0.4555
v  -5.2470 53.9021 -3.1218
v  -11.2582 50.5332 -7.3603
v  -1.2105 42.9040 -2.5658
v  6.8786 42.8880 -2.4443
v  -1.0609 67.7822 -9.2661
v  7.0282 67.7662 -9.1446
v  -1.2098 42.8912 -2.6133
v  6.8793 42.8753 -2.4918
v  7.0289 67.7534 -9.1921
v  -1.0602 67.7694 -9.3136
v  0.5550 41.5116 1.4717
v  5.5064 37.3156 -3.3578
v  6.4537 63.1225 -11.2569
v  11.4051 58.9264 -16.0865
v  0.5178 41.5035 1.4407
v  5.4692 37.3074 -3.3889
v  11.3679 58.9182 -16.1175
v  6.4165 63.1143 -11.2880
v  3.8043 40.3863 3.4503
v  1.8280 40.3799 -4.3947
v  3.8555 66.1513 3.4165
v  1.8792 66.1449 -4.4284
v  3.7566 40.3864 3.4623
v  1.7803 40.3800 -4.3827
v  1.8316 66.1450 -4.4164
v  3.8078 66.1514 3.4285
v  6.6853 39.8038 2.7962
v  -0.1288 38.3807 -2.4887
v  -1.1641 65.3603 -3.0518
v  -8.0104 62.6026 -6.3641
v  6.6638 39.7851 2.8363
v  -0.1503 38.3808 -2.4444
v  -8.0319 62.6027 -6.3199
v  -1.1855 65.3604 -3.0076
v  0.3466 -14.0712 -0.6533
v  0.9736 -14.2985 0.0856
v  12.7096 38.2226 8.4287
v  13.3249 37.9938 9.1770
v  12.7673 38.1994 8.3742
v  0.4093 -14.0733 -0.7071
v  1.0364 -14.3005 0.0318
v  13.3826 37.9706 9.1225
v  5.6136 11.6228 4.7616
v  5.0135 12.0145 4.0708
v  5.0732 12.0062 4.0142
v  5.6734 11.6145 4.7050
v  3.2071 -1.2929 2.1900
v  10.6351 25.2507 6.1689
v  2.6428 -1.0677 1.3972
v  11.3153 25.0335 6.8673
v  11.2504 25.0219 6.9172
v  2.5801 -1.0657 1.4511
v  10.7000 25.2622 6.1190
v  3.2698 -1.2950 2.1362
v  0.3400 -14.1829 0.0441
v  1.0950 -14.2077 -0.6042
v  12.7244 38.2266 9.1348
v  13.4188 37.9476 8.4785
v  12.6733 38.2456 9.0726
v  0.2880 -14.1640 -0.0173
v  1.0429 -14.1888 -0.6656
v  13.3677 37.9666 8.4163
v  5.7278 11.7484 4.0760
v  5.0089 11.8481 4.7572
v  4.9590 11.8806 4.6998
v  5.6780 11.7809 4.0186
v  3.3285 -1.2021 1.5002
v  10.6099 25.0630 6.8493
v  2.5215 -1.1585 2.0871
v  11.3405 25.2211 6.1869
v  11.3916 25.2021 6.2491
v  2.5735 -1.1774 2.1485
v  10.5588 25.0820 6.7872
v  3.2764 -1.1833 1.4388
v  11.0986 28.3045 4.4367
v  10.7598 22.1814 8.6528
v  11.2302 41.7409 23.9610
v  10.8914 35.6178 28.1771
v  11.1975 28.3005 4.4388
v  10.8586 22.1774 8.6549
v  10.9902 35.6138 28.1792
v  11.3291 41.7369 23.9631
v  0.5395 1.6362 2.5364
v  5.3417 -3.8823 1.1692
v  18.5441 17.0018 3.7553
v  23.3462 11.4834 2.3882
v  0.5315 1.6533 2.4393
v  5.3337 -3.8652 1.0721
v  23.3382 11.5005 2.2910
v  18.5361 17.0189 3.6582
v  -0.5630 -2.5957 1.8827
v  6.3918 0.0505 1.7747
v  -8.7767 19.1749 6.3911
v  -1.8219 21.8212 6.2832
v  -0.5710 -2.5787 1.7855
v  6.3838 0.0676 1.6776
v  -1.8299 21.8383 6.1860
v  -8.7847 19.1920 6.2940
v  4.3365 14.9565 2.9376
v  6.1528 8.3414 5.8229
v  19.6738 25.5521 17.5749
v  21.4901 18.9370 20.4602
v  4.4080 14.9466 2.8698
v  6.2243 8.3315 5.7552
v  21.5616 18.9271 20.3925
v  19.7453 25.5422 17.5072
v  2.3156 11.2870 2.1583
v  8.2115 12.0772 6.6302
v  0.7478 34.8434 0.0627
v  6.6437 35.6336 4.5346
v  2.3757 11.2840 2.0797
v  8.2715 12.0742 6.5516
v  6.7037 35.6306 4.4560
v  0.8078 34.8404 -0.0159
v  8.4938 27.9589 6.0112
v  13.4194 22.5009 7.1656
v  22.6938 43.1728 17.3535
v  27.6194 37.7148 18.5080
v  8.5384 27.9810 5.9257
v  13.4639 22.5230 7.0801
v  27.6639 37.7369 18.4224
v  22.7384 43.1949 17.2680
v  8.0247 24.0857 4.7637
v  13.8992 26.7080 8.5052
v  -1.8595 45.6235 5.1880
v  4.0150 48.2457 8.9294
v  8.0693 24.1079 4.6782
v  13.9437 26.7301 8.4197
v  4.0596 48.2679 8.8439
v  -1.8149 45.6456 5.1025
v  2.3424 1.8057 -0.4244
v  3.4385 -4.0246 4.0689
v  10.4431 16.3380 16.4559
v  11.5392 10.5077 20.9492
v  2.4342 1.7956 -0.4598
v  3.5304 -4.0347 4.0335
v  11.6310 10.4977 20.9138
v  10.5349 16.3280 16.4204
v  1.7456 -2.4361 -1.5544
v  3.9811 -0.0802 5.1415
v  2.2094 19.8687 -9.5567
v  4.4450 22.2245 -2.8607
v  1.8400 -2.4478 -1.5818
v  4.0755 -0.0920 5.1142
v  4.5393 22.2127 -2.8880
v  2.3038 19.8569 -9.5840
v  7.5963 13.8645 2.4614
v  2.8877 9.4639 6.1826
v  5.4967 30.3781 19.3327
v  0.7881 25.9776 23.0540
v  7.6724 13.8243 2.5102
v  2.9639 9.4237 6.2315
v  0.8642 25.9374 23.1028
v  5.5728 30.3380 19.3815
v  6.3708 10.0169 1.2051
v  4.1408 13.3843 7.4559
v  19.7442 28.8346 -4.1613
v  17.5143 32.2020 2.0894
v  6.4469 9.9767 1.2539
v  4.2170 13.3441 7.5047
v  17.5904 32.1618 2.1382
v  19.8203 28.7944 -4.1125
v  10.4135 24.4822 3.0327
v  11.4574 26.3331 10.1649
v  9.4112 47.4384 -2.7777
v  10.4552 49.2892 4.3545
v  10.5113 24.4828 3.0182
v  11.5553 26.3337 10.1504
v  10.5531 49.2898 4.3400
v  9.5091 47.4390 -2.7922
v  10.1130 37.7063 5.5979
v  14.7131 35.9960 11.1923
v  18.6997 59.7953 5.2901
v  23.2998 58.0851 10.8845
v  10.1445 37.6936 5.5680
v  14.7446 35.9833 11.1625
v  23.3313 58.0724 10.8547
v  18.7312 59.7826 5.2602
v  9.2362 36.9095 8.2029
v  14.8298 32.0023 8.0829
v  24.8580 54.7278 7.7363
v  30.4516 49.8206 7.6164
v  9.2351 36.9093 8.1576
v  14.8287 32.0021 8.0377
v  30.4505 49.8205 7.5712
v  24.8568 54.7276 7.6911
v  9.5656 35.2648 11.8895
v  13.8929 35.4946 5.8393
v  13.5803 58.3210 15.6368
v  17.9077 58.5509 9.5866
v  9.5296 35.2751 11.8641
v  13.8569 35.5050 5.8139
v  17.8717 58.5612 9.5612
v  13.5444 58.3314 15.6114
v  12.5182 34.1233 12.9038
v  12.0382 34.1592 4.8783
v  15.9795 58.5190 7.7425
v  13.8993 57.4120 0.6834
v  12.4750 34.1120 12.9105
v  11.9949 34.1648 4.8902
v  13.8560 57.4176 0.6953
v  15.9362 58.5246 7.7544
v  0.6455 -14.0677 -0.6121
v  1.3833 -14.2969 -1.2397
v  11.3456 38.2968 -11.2625
v  12.0926 38.0655 -11.8783
v  11.2910 38.2770 -11.3213
v  0.5922 -14.0663 -0.6753
v  1.3300 -14.2954 -1.3029
v  12.0380 38.0457 -11.9372
v  6.8476 11.6083 -5.0301
v  6.1629 12.0013 -4.4238
v  6.1066 11.9965 -4.4843
v  6.7913 11.6035 -5.0905
v  3.8824 -1.2953 -3.0490
v  8.6936 25.3382 -9.6123
v  3.0913 -1.0647 -2.4846
v  9.3917 25.1220 -10.2931
v  9.4406 25.1069 -10.2282
v  3.1446 -1.0661 -2.4214
v  8.6447 25.3533 -9.6773
v  3.8291 -1.2938 -3.1122
v  1.3392 -14.1998 -0.6032
v  0.6975 -14.1824 -1.3639
v  12.0517 38.2807 -11.2713
v  11.3940 38.0425 -11.9795
v  11.9896 38.3000 -11.2201
v  1.2780 -14.1808 -0.5511
v  0.6363 -14.1633 -1.3118
v  11.3320 38.0617 -11.9283
v  6.1670 11.7573 -5.1461
v  6.8441 11.8149 -4.4187
v  6.7872 11.8475 -4.3683
v  6.1101 11.7899 -5.0957
v  3.1967 -1.1807 -3.1732
v  9.3681 25.1302 -9.5873
v  3.7771 -1.1792 -2.3604
v  8.7172 25.3300 -10.3181
v  8.7793 25.3108 -10.3693
v  3.8384 -1.1982 -2.4125
v  9.3060 25.1494 -9.5361
v  3.1354 -1.1617 -3.1211
v  7.0545 28.4541 -9.9948
v  11.0890 22.2032 -9.8120
v  26.9586 41.3140 -9.5448
v  30.9931 35.0632 -9.3620
v  7.0574 28.4531 -10.0937
v  11.0919 22.2022 -9.9109
v  30.9960 35.0622 -9.4609
v  26.9615 41.3130 -9.6437
v  4.2886 1.5386 -0.2885
v  2.8071 -3.7866 -5.2717
v  6.1162 17.4117 -17.7945
v  4.6348 12.0865 -22.7776
v  4.1919 1.5583 -0.2808
v  2.7105 -3.7669 -5.2639
v  4.5381 12.1062 -22.7699
v  6.0195 17.4314 -17.7868
v  3.5029 -2.7046 0.6760
v  3.5354 0.1576 -6.1936
v  8.5614 18.6611 9.6018
v  8.5940 21.5233 2.7322
v  3.4062 -2.6849 0.6837
v  3.4388 0.1772 -6.1858
v  8.4973 21.5429 2.7399
v  8.4647 18.6808 9.6095
v  5.1087 14.9526 -3.6649
v  7.8187 8.3157 -5.6625
v  20.1865 25.5868 -18.5420
v  22.8964 18.9499 -20.5396
v  5.0414 14.9469 -3.7372
v  7.7514 8.3100 -5.7348
v  22.8291 18.9441 -20.6119
v  20.1192 25.5811 -18.6143
v  4.2054 11.2466 -1.7660
v  8.7524 12.0883 -7.5969
v  2.7757 34.7943 0.5181
v  7.3227 35.6360 -5.3129
v  4.1273 11.2478 -1.8267
v  8.6743 12.0894 -7.6577
v  7.2446 35.6371 -5.3736
v  2.6976 34.7955 0.4573
v  8.5943 27.9824 -7.3890
v  9.6363 22.6480 -12.4726
v  20.5012 43.2915 -21.0128
v  21.5432 37.9571 -26.0964
v  8.5099 28.0084 -7.4336
v  9.5518 22.6740 -12.5172
v  21.4588 37.9831 -26.1410
v  20.4168 43.3174 -21.0574
v  7.2314 24.1345 -7.0513
v  11.1009 26.8271 -12.8098
v  8.1854 45.3348 3.5028
v  12.0550 48.0274 -2.2557
v  7.1469 24.1605 -7.0959
v  11.0165 26.8531 -12.8544
v  11.9706 48.0534 -2.3003
v  8.1010 45.3608 3.4582
v  1.3506 1.8499 -2.1099
v  5.6838 -4.0721 -3.3498
v  18.7170 16.1282 -9.6127
v  23.0502 10.2062 -10.8526
v  1.3158 1.8437 -2.2023
v  5.6490 -4.0782 -3.4422
v  23.0154 10.2001 -10.9450
v  18.6822 16.1220 -9.7051
v  0.0932 -2.3736 -1.6551
v  6.8747 -0.1457 -3.7602
v  -7.2577 20.1583 -1.4898
v  -0.4762 22.3862 -3.5950
v  0.0664 -2.3816 -1.7500
v  6.8479 -0.1537 -3.8551
v  -0.5031 22.3782 -3.6899
v  -7.2845 20.1503 -1.5847
v  4.6313 13.9763 -6.9610
v  8.1805 9.3257 -2.3611
v  21.9518 29.9189 -4.2071
v  25.5010 25.2684 0.3928
v  4.6796 13.9371 -7.0380
v  8.2289 9.2865 -2.4381
v  25.5494 25.2292 0.3158
v  22.0002 29.8797 -4.2841
v  3.2534 10.1309 -5.8666
v  9.5778 13.2443 -3.4807
v  -1.4445 29.5014 -18.6910
v  4.8799 32.6148 -16.3052
v  3.3017 10.0917 -5.9435
v  9.6261 13.2051 -3.5577
v  4.9282 32.5756 -16.3821
v  -1.3962 29.4622 -18.7679
v  5.5346 24.6549 -9.4409
v  12.7266 26.3287 -10.3672
v  0.3797 47.7285 -7.7718
v  7.5717 49.4023 -8.6981
v  5.5211 24.6590 -9.5388
v  12.7130 26.3328 -10.4652
v  7.5581 49.4064 -8.7961
v  0.3662 47.7326 -7.8697
v  8.9606 39.8316 -10.1772
v  14.5456 38.1023 -14.7817
v  9.3693 62.1752 -18.0733
v  14.9543 60.4459 -22.6777
v  8.9307 39.8208 -10.2094
v  14.5157 38.0914 -14.8138
v  14.9244 60.4351 -22.7099
v  9.3394 62.1644 -18.1055
v  12.2767 37.1173 -7.8635
v  12.0669 32.3911 -13.6082
v  12.4684 55.4163 -22.9255
v  12.2586 50.6900 -28.6702
v  12.2315 37.1184 -7.8628
v  12.0217 32.3921 -13.6075
v  12.2134 50.6911 -28.6694
v  12.4232 55.4174 -22.9247
v  15.4720 35.3900 -8.2170
v  9.4711 35.9296 -12.5853
v  19.9196 58.4405 -11.4796
v  13.9187 58.9801 -15.8479
v  15.4466 35.4000 -8.1810
v  9.4458 35.9395 -12.5492
v  13.8934 58.9901 -15.8118
v  19.8942 58.4505 -11.4435
v  16.9484 34.2691 -10.2754
v  8.9232 34.5238 -9.8613
v  12.5250 58.9001 -13.0171
v  5.4180 57.9352 -11.0313
v  16.9543 34.2562 -10.2324
v  8.9348 34.5277 -9.8178
v  5.4296 57.9392 -10.9878
v  12.5366 58.9040 -12.9736
v  -0.8290 -13.9739 1.2230
v  -1.4562 -14.2114 0.4875
v  -8.7973 39.5882 -12.6944
v  -9.4127 39.3474 -13.4387
v  -8.8579 39.5746 -12.6399
v  -0.8928 -13.9662 1.2750
v  -1.5201 -14.2037 0.5395
v  -9.4734 39.3338 -13.3842
v  -3.7906 11.5066 -6.4722
v  -3.1752 11.9056 -5.7992
v  -3.2366 11.9071 -5.7439
v  -3.8521 11.5081 -6.4169
v  -2.5387 -1.2949 -2.7609
v  -7.6135 25.3296 -9.1603
v  -1.9753 -1.0496 -1.9734
v  -8.2939 25.1099 -9.8578
v  -8.2290 25.0888 -9.9046
v  -1.9114 -1.0573 -2.0254
v  -7.6784 25.3507 -9.1135
v  -2.6025 -1.2872 -2.7089
v  -0.8162 -14.1451 0.5379
v  -1.5849 -14.0522 1.1635
v  -8.7959 39.5329 -13.3985
v  -9.5258 39.3690 -12.7419
v  -8.7448 39.5529 -13.3367
v  -0.7641 -14.1254 0.5990
v  -1.5328 -14.0325 1.2246
v  -9.4747 39.3890 -12.6801
v  -3.9091 11.6995 -5.8032
v  -3.1693 11.6811 -6.4689
v  -3.1181 11.7142 -6.4130
v  -3.8580 11.7326 -5.7473
v  -2.6674 -1.1357 -2.0849
v  -7.5890 25.0829 -9.8216
v  -1.8466 -1.2088 -2.6494
v  -8.3184 25.3566 -9.1965
v  -8.3695 25.3366 -9.2583
v  -1.8987 -1.2286 -2.7105
v  -7.5379 25.1029 -9.7598
v  -2.6153 -1.1159 -2.0238
v  -7.8568 28.5483 -7.7036
v  -7.9408 22.0793 -11.3817
v  -6.4196 40.2273 -28.2776
v  -6.5036 33.7583 -31.9557
v  -7.9556 28.5523 -7.7083
v  -8.0395 22.0832 -11.3864
v  -6.6024 33.7622 -31.9604
v  -6.5184 40.2312 -28.2823
v  0.3733 1.3650 -3.2722
v  -4.9060 -3.6033 -1.5906
v  -16.2412 17.9947 -6.2997
v  -21.5205 13.0263 -4.6181
v  0.3805 1.3897 -3.1766
v  -4.8988 -3.5787 -1.4950
v  -21.5133 13.0509 -4.5225
v  -16.2340 18.0193 -6.2041
v  1.1005 -2.8714 -2.2350
v  -5.6073 0.3359 -2.5531
v  11.2175 17.6852 -8.3030
v  4.5097 20.8926 -8.6211
v  1.1078 -2.8468 -2.1394
v  -5.6001 0.3606 -2.4576
v  4.5170 20.9172 -8.5256
v  11.2248 17.7099 -8.2074
v  -2.2783 14.8684 -4.8963
v  -4.5804 8.2017 -7.2710
v  -16.3375 25.3928 -20.8125
v  -18.6396 18.7261 -23.1873
v  -2.3519 14.8702 -4.8301
v  -4.6540 8.2035 -7.2049
v  -18.7132 18.7279 -23.1211
v  -16.4111 25.3946 -20.7464
v  -0.5916 11.1258 -3.7541
v  -6.2985 12.0108 -8.4479
v  2.9076 34.5668 -3.5887
v  -2.7993 35.4518 -8.2825
v  -0.6534 11.1345 -3.6773
v  -6.3603 12.0195 -8.3711
v  -2.8611 35.4605 -8.2057
v  2.8458 34.5755 -3.5119
v  -5.2558 27.8565 -9.1665
v  -10.5966 22.7422 -10.0053
v  -17.8667 43.1557 -22.1530
v  -23.2075 38.0414 -22.9918
v  -5.3003 27.8895 -9.0844
v  -10.6410 22.7752 -9.9233
v  -23.2519 38.0743 -22.9098
v  -17.9112 43.1887 -22.0710
v  -5.1427 24.0792 -7.5865
v  -10.6902 26.8441 -11.7051
v  6.5276 44.6176 -9.5178
v  0.9800 47.3825 -13.6364
v  -5.1871 24.1121 -7.5045
v  -10.7347 26.8771 -11.6231
v  0.9356 47.4155 -13.5544
v  6.4831 44.6506 -9.4358
v  -1.4747 1.9350 -0.3902
v  -2.9573 -4.1493 -4.4110
v  -7.9431 15.5824 -18.6566
v  -9.4257 9.4982 -22.6773
v  -1.5678 1.9356 -0.3568
v  -3.0504 -4.1487 -4.3776
v  -9.5188 9.4988 -22.6439
v  -8.0362 15.5830 -18.6231
v  -1.2627 -2.2289 1.1074
v  -3.1416 -0.2802 -5.8249
v  -0.0249 20.6422 7.2010
v  -1.9038 22.5908 0.2687
v  -1.3583 -2.2305 1.1328
v  -3.2372 -0.2819 -5.7994
v  -1.9994 22.5892 0.2942
v  -0.1205 20.6406 7.2264
v  -5.6283 14.0923 -4.4266
v  -1.2252 9.0176 -7.6271
v  -1.7685 28.8711 -22.5496
v  2.6346 23.7964 -25.7501
v  -5.7065 14.0544 -4.4741
v  -1.3033 8.9798 -7.6746
v  2.5565 23.7586 -25.7976
v  -1.8467 28.8332 -22.5971
v  -4.7596 10.2790 -2.8178
v  -2.1148 12.9040 -9.2597
v  -16.6171 30.5208 0.5620
v  -13.9722 33.1458 -5.8800
v  -4.8378 10.2412 -2.8653
v  -2.1929 12.8661 -9.3072
v  -14.0504 33.1079 -5.9274
v  -16.6952 30.4830 0.5145
v  -7.5276 24.8172 -5.9657
v  -8.2523 26.1293 -13.2552
v  -4.7254 48.0270 -2.0666
v  -5.4501 49.3391 -9.3561
v  -7.6254 24.8271 -5.9542
v  -8.3501 26.1392 -13.2437
v  -5.5479 49.3489 -9.3446
v  -4.8232 48.0368 -2.0551
v  -6.8245 39.7896 -9.6915
v  -11.4261 37.9893 -15.2564
v  -13.5248 62.4534 -11.4830
v  -18.1264 60.6532 -17.0479
v  -6.8576 39.7822 -9.6617
v  -11.4592 37.9819 -15.2266
v  -18.1595 60.6457 -17.0181
v  -13.5579 62.4460 -11.4532
v  -5.0989 36.7770 -12.5633
v  -11.0873 32.3736 -12.1984
v  -19.1708 55.7910 -14.0468
v  -25.1591 51.3876 -13.6819
v  -5.0988 36.7806 -12.5182
v  -11.0872 32.3772 -12.1533
v  -25.1590 51.3912 -13.6368
v  -19.1707 55.7946 -14.0017
v  -5.4931 34.8931 -15.6640
v  -9.9199 35.9949 -9.7841
v  -7.4667 57.7947 -21.4410
v  -11.8935 58.8965 -15.5610
v  -5.4570 34.9027 -15.6385
v  -9.8837 36.0044 -9.7586
v  -11.8573 58.9060 -15.5356
v  -7.4305 57.8043 -21.4155
v  -8.6729 33.8270 -17.1138
v  -8.3127 34.4822 -9.1088
v  -8.0012 58.8132 -14.1129
v  -6.2449 57.9922 -6.9278
v  -8.6317 33.8117 -17.1183
v  -8.2684 34.4831 -9.1198
v  -6.2007 57.9931 -6.9388
v  -7.9570 58.8142 -14.1239
v  -1.8345 -14.4556 0.6699
v  -2.5779 -14.5528 1.3248
v  -6.9718 39.4540 6.7798
v  -7.7247 39.3546 7.4232
v  -6.9182 39.4339 6.8395
v  -1.7800 -14.4541 0.7321
v  -2.5234 -14.5513 1.3869
v  -7.6711 39.3345 7.4829
v  -5.3213 12.0060 2.8771
v  -4.6138 12.2728 2.2297
v  -4.5570 12.2676 2.2896
v  -5.2645 12.0008 2.9369
v  -3.7148 -1.2561 2.0080
v  -5.6750 26.1982 6.2493
v  -2.9169 -1.1574 1.4153
v  -6.3764 26.1143 6.9555
v  -6.4280 26.0988 6.8927
v  -2.9714 -1.1589 1.3532
v  -5.6235 26.2137 6.3120
v  -3.6602 -1.2546 2.0702
v  -2.5381 -14.5163 0.6816
v  -1.8815 -14.4986 1.4296
v  -7.6755 39.5111 6.7991
v  -7.0300 39.2692 7.5171
v  -7.6129 39.5194 6.7456
v  -2.4763 -14.5082 0.6272
v  -1.8198 -14.4905 1.3752
v  -6.9674 39.2774 7.4637
v  -4.6268 12.0941 2.9706
v  -5.3103 12.1573 2.2497
v  -5.2515 12.1795 2.1960
v  -4.5680 12.1163 2.9169
v  -3.0184 -1.2019 2.1129
v  -6.3674 26.0588 6.2514
v  -3.6132 -1.2116 1.3105
v  -5.6840 26.2537 6.9533
v  -5.7466 26.2454 7.0068
v  -3.6750 -1.2196 1.3649
v  -6.3049 26.0670 6.1980
v  -2.9567 -1.1939 2.0585
v  -3.7225 29.1515 6.3336
v  -8.3691 23.3538 6.7562
v  -22.2350 43.8914 5.0014
v  -26.8816 38.0937 5.4240
v  -3.7233 29.1593 6.4322
v  -8.3700 23.3616 6.8548
v  -26.8825 38.1016 5.5226
v  -22.2358 43.8993 5.1000
v  -3.8932 1.3543 -0.9870
v  -2.8479 -3.6420 4.4285
v  -3.7322 18.7895 15.0673
v  -2.6870 13.7932 20.4829
v  -3.7952 1.3632 -0.9977
v  -2.7500 -3.6331 4.4179
v  -2.5890 13.8021 20.4722
v  -3.6343 18.7984 15.0566
v  -3.5600 -3.0146 -1.5822
v  -3.1550 0.4209 5.0070
v  -6.6331 17.9011 -12.2985
v  -6.2281 21.3366 -5.7094
v  -3.4620 -3.0057 -1.5928
v  -3.0571 0.4298 4.9963
v  -6.1301 21.3456 -5.7201
v  -6.5351 17.9101 -12.3092
v  -3.2845 15.0239 1.1991
v  -6.6052 8.8973 3.8107
v  -16.8879 28.3943 15.2679
v  -20.2086 22.2676 17.8795
v  -3.2165 15.0176 1.2708
v  -6.5373 8.8910 3.8824
v  -20.1407 22.2614 17.9512
v  -16.8199 28.3880 15.3396
v  -2.8004 11.0943 -0.3757
v  -7.1119 12.8991 5.4154
v  0.9441 34.0850 -4.7529
v  -3.3674 35.8898 1.0382
v  -2.7213 11.0927 -0.3163
v  -7.0328 12.8975 5.4748
v  -3.2883 35.8882 1.0976
v  1.0232 34.0834 -4.6935
v  -5.3581 28.6154 3.7996
v  -6.8216 23.8768 9.3483
v  -15.3639 46.1855 16.1660
v  -16.8273 41.4469 21.7146
v  -5.2706 28.6364 3.8407
v  -6.7340 23.8978 9.3893
v  -16.7398 41.4679 21.7556
v  -15.2763 46.2065 16.2070
v  -4.3974 24.6337 3.7865
v  -7.8502 28.1972 9.3330
v  -3.4399 44.8246 -8.5895
v  -6.8927 48.3880 -3.0430
v  -4.3098 24.6547 3.8275
v  -7.7626 28.2181 9.3740
v  -6.8051 48.4090 -3.0020
v  -3.3523 44.8455 -8.5485
v  -0.9000 1.5203 0.7620
v  -5.7798 -3.7975 2.5764
v  -16.5728 18.0962 7.1928
v  -21.4526 12.7784 9.0072
v  -0.8639 1.5187 0.8541
v  -5.7437 -3.7992 2.6685
v  -21.4165 12.7768 9.0993
v  -16.5368 18.0946 7.2849
v  -0.0846 -2.8330 0.6667
v  -6.5599 0.2508 2.6528
v  9.4933 18.7295 -1.5859
v  3.0181 21.8132 0.4003
v  -0.0567 -2.8355 0.7616
v  -6.5320 0.2483 2.7477
v  3.0460 21.8107 0.4951
v  9.5213 18.7270 -1.4910
v  -2.8364 14.2935 4.5624
v  -6.9350 9.6488 0.4378
v  -18.5186 31.6243 0.6297
v  -22.6172 26.9796 -3.4949
v  -2.8868 14.2662 4.6431
v  -6.9854 9.6216 0.5185
v  -22.6675 26.9524 -3.4142
v  -18.5689 31.5970 0.7104
v  -1.8769 10.2470 3.7950
v  -7.9058 13.7719 1.2239
v  5.0255 30.0747 14.7937
v  -1.0034 33.5996 12.2226
v  -1.9273 10.2197 3.8757
v  -7.9562 13.7447 1.3047
v  -1.0538 33.5724 12.3034
v  4.9751 30.0474 14.8744
v  -2.6054 25.1832 6.0987
v  -9.5704 27.6576 6.9650
v  4.8101 47.3765 2.3284
v  -2.1549 49.8509 3.1947
v  -2.5894 25.1943 6.1957
v  -9.5543 27.6687 7.0620
v  -2.1388 49.8621 3.2917
v  4.8261 47.3876 2.4254
v  -3.5140 38.5218 4.6015
v  -9.1436 37.7786 9.4119
v  -1.4984 61.3904 10.4937
v  -7.1280 60.6472 15.3040
v  -3.4847 38.5108 4.6341
v  -9.1142 37.7676 9.4445
v  -7.0986 60.6362 15.3367
v  -1.4691 61.3794 10.5263
v  -7.0606 38.0698 3.5278
v  -7.2033 33.8631 9.6651
v  -5.0811 57.5297 16.9123
v  -5.2239 53.3230 23.0496
v  -7.0155 38.0662 3.5264
v  -7.1583 33.8595 9.6637
v  -5.1788 53.3194 23.0482
v  -5.0360 57.5261 16.9109
v  -10.4505 36.7154 4.5326
v  -4.3324 37.0155 8.7590
v  -12.4817 60.2956 5.7988
v  -6.3636 60.5956 10.0252
v  -10.4250 36.7196 4.4955
v  -4.3069 37.0197 8.7219
v  -6.3381 60.5998 9.9881
v  -12.4562 60.2998 5.7617
v  -11.6308 35.9342 7.3289
v  -3.6317 35.3301 6.7915
v  -4.6903 60.1283 7.8233
v  2.2385 58.2732 5.8401
v  -11.6390 35.9183 7.2874
v  -3.6438 35.3314 6.7480
v  2.2264 58.2745 5.7966
v  -4.7025 60.1296 7.7798
# 840 vertices

vn 0.0006 0.6031 0.7977
vn -0.0004 0.6010 0.7993
vn -0.0113 0.5795 0.8149
vn -0.0113 0.5795 0.8149
vn -0.0113 0.5795 0.8149
vn 0.0006 0.6031 0.7977
vn 0.0122 0.6752 -0.7376
vn 0.0005 0.6581 -0.7530
vn -0.0007 0.6567 -0.7542
vn -0.0007 0.6567 -0.7542
vn 0.0122 0.6752 -0.7376
vn 0.0122 0.6752 -0.7376
vn 0.0024 0.5818 0.8134
vn 0.0024 0.5817 0.8134
vn 0.0079 0.6013 0.7990
vn 0.0079 0.6013 0.7990
vn 0.0082 0.6037 0.7972
vn 0.0024 0.5818 0.8134
vn -0.0026 0.6732 -0.7395
vn -0.0026 0.6731 -0.7395
vn -0.0093 0.6562 -0.7545
vn -0.0093 0.6562 -0.7545
vn -0.0089 0.6579 -0.7531
vn -0.0026 0.6732 -0.7395
vn 0.0082 0.6037 0.7972
vn 0.0079 0.6013 0.7990
vn -0.0004 0.6010 0.7993
vn -0.0004 0.6010 0.7993
vn 0.0006 0.6031 0.7977
vn 0.0082 0.6037 0.7972
vn -0.0089 0.6579 -0.7531
vn -0.0093 0.6562 -0.7545
vn -0.0007 0.6567 -0.7542
vn -0.0007 0.6567 -0.7542
vn 0.0005 0.6581 -0.7530
vn -0.0089 0.6579 -0.7531
vn 0.0000 0.5833 0.8123
vn 0.0000 0.5833 0.8123
vn 0.0024 0.5817 0.8134
vn 0.0024 0.5817 0.8134
vn 0.0024 0.5818 0.8134
vn 0.0000 0.5833 0.8123
vn 0.0000 0.6718 -0.7407
vn 0.0000 0.6718 -0.7407
vn -0.0026 0.6731 -0.7395
vn -0.0026 0.6731 -0.7395
vn -0.0026 0.6732 -0.7395
vn 0.0000 0.6718 -0.7407
vn 0.7908 0.6081 0.0701
vn 0.7873 0.6122 0.0733
vn 0.7771 0.6240 0.0816
vn 0.7771 0.6240 0.0816
vn 0.7771 0.6240 0.0816
vn 0.7908 0.6081 0.0701
vn -0.7776 0.6260 0.0583
vn -0.7663 0.6390 0.0668
vn -0.7614 0.6445 0.0701
vn -0.7614 0.6445 0.0701
vn -0.7776 0.6260 0.0583
vn -0.7776 0.6260 0.0583
vn 0.7807 0.6215 0.0649
vn 0.7807 0.6216 0.0650
vn 0.7919 0.6076 0.0606
vn 0.7919 0.6076 0.0606
vn 0.7920 0.6075 0.0606
vn 0.7807 0.6215 0.0649
vn -0.7742 0.6285 0.0749
vn -0.7741 0.6286 0.0750
vn -0.7598 0.6453 0.0792
vn -0.7598 0.6453 0.0792
vn -0.7599 0.6452 0.0792
vn -0.7742 0.6285 0.0749
vn 0.7920 0.6075 0.0606
vn 0.7919 0.6076 0.0606
vn 0.7873 0.6122 0.0733
vn 0.7873 0.6122 0.0733
vn 0.7908 0.6081 0.0701
vn 0.7920 0.6075 0.0606
vn -0.7599 0.6452 0.0792
vn -0.7598 0.6453 0.0792
vn -0.7614 0.6445 0.0701
vn -0.7614 0.6445 0.0701
vn -0.7663 0.6390 0.0668
vn -0.7599 0.6452 0.0792
vn 0.7775 0.6250 0.0700
vn 0.7775 0.6250 0.0700
vn 0.7807 0.6216 0.0650
vn 0.7807 0.6216 0.0650
vn 0.7807 0.6215 0.0649
vn 0.7775 0.6250 0.0700
vn -0.7775 0.6250 0.0700
vn -0.7775 0.6250 0.0700
vn -0.7741 0.6286 0.0750
vn -0.7741 0.6286 0.0750
vn -0.7742 0.6285 0.0749
vn -0.7775 0.6250 0.0700
vn -0.5081 0.5670 0.6483
vn -0.5081 0.5671 0.6483
vn -0.5081 0.5672 0.6482
vn -0.5081 0.5672 0.6482
vn -0.5081 0.5672 0.6482
vn -0.5081 0.5670 0.6483
vn 0.5124 0.6888 -0.5129
vn 0.5124 0.6889 -0.5128
vn 0.5124 0.6888 -0.5127
vn 0.5124 0.6888 -0.5127
vn 0.5124 0.6888 -0.5129
vn 0.5124 0.6888 -0.5129
vn 0.6213 0.6005 0.5033
vn 0.6213 0.6005 0.5033
vn 0.6213 0.6005 0.5033
vn 0.6213 0.6005 0.5033
vn 0.6214 0.6004 0.5034
vn 0.6213 0.6005 0.5033
vn -0.6536 0.6512 -0.3858
vn -0.6535 0.6512 -0.3858
vn -0.6535 0.6512 -0.3858
vn -0.6535 0.6512 -0.3858
vn -0.6535 0.6512 -0.3858
vn -0.6536 0.6512 -0.3858
vn 0.6213 0.6005 0.5033
vn 0.6213 0.6005 0.5033
vn 0.6214 0.6004 0.5034
vn 0.6214 0.6004 0.5034
vn 0.6213 0.6005 0.5034
vn 0.6213 0.6005 0.5033
vn -0.6535 0.6512 -0.3858
vn -0.6535 0.6512 -0.3858
vn -0.6536 0.6512 -0.3858
vn -0.6536 0.6512 -0.3858
vn -0.6536 0.6512 -0.3858
vn -0.6535 0.6512 -0.3858
vn 0.0221 0.6035 0.7971
vn 0.0221 0.6034 0.7971
vn 0.0221 0.6035 0.7971
vn 0.0221 0.6035 0.7971
vn 0.0221 0.6035 0.7971
vn 0.0221 0.6035 0.7971
vn -0.0251 0.6564 -0.7540
vn -0.0252 0.6565 -0.7539
vn -0.0252 0.6564 -0.7540
vn -0.0252 0.6564 -0.7540
vn -0.0251 0.6564 -0.7540
vn -0.0251 0.6564 -0.7540
vn 0.1482 0.5964 0.7889
vn 0.1482 0.5964 0.7889
vn 0.1482 0.5966 0.7888
vn 0.1482 0.5966 0.7888
vn 0.1482 0.5966 0.7888
vn 0.1482 0.5964 0.7889
vn -0.1654 0.6608 -0.7321
vn -0.1655 0.6607 -0.7321
vn -0.1654 0.6607 -0.7322
vn -0.1654 0.6607 -0.7322
vn -0.1654 0.6608 -0.7321
vn -0.1654 0.6608 -0.7321
vn 0.3176 0.5558 0.7682
vn 0.3176 0.5558 0.7683
vn 0.3176 0.5558 0.7683
vn 0.3176 0.5558 0.7683
vn 0.3176 0.5558 0.7683
vn 0.3176 0.5558 0.7682
vn -0.3209 0.7026 -0.6350
vn -0.3209 0.7027 -0.6350
vn -0.3210 0.7026 -0.6350
vn -0.3210 0.7026 -0.6350
vn -0.3210 0.7027 -0.6350
vn -0.3209 0.7026 -0.6350
vn 0.3176 0.5558 0.7682
vn 0.3176 0.5558 0.7682
vn 0.3176 0.5558 0.7683
vn 0.3176 0.5558 0.7683
vn 0.3176 0.5558 0.7683
vn 0.3176 0.5558 0.7682
vn -0.3209 0.7026 -0.6350
vn -0.3209 0.7027 -0.6350
vn -0.3210 0.7027 -0.6350
vn -0.3210 0.7027 -0.6350
vn -0.3209 0.7026 -0.6351
vn -0.3209 0.7026 -0.6350
vn -0.2555 0.5856 0.7692
vn -0.2555 0.5856 0.7693
vn -0.2556 0.5856 0.7692
vn -0.2556 0.5856 0.7692
vn -0.2555 0.5856 0.7693
vn -0.2555 0.5856 0.7692
vn 0.2776 0.6688 -0.6897
vn 0.2776 0.6689 -0.6896
vn 0.2775 0.6688 -0.6897
vn 0.2775 0.6688 -0.6897
vn 0.2776 0.6688 -0.6896
vn 0.2776 0.6688 -0.6897
vn -0.3162 0.5870 0.7453
vn -0.3162 0.5870 0.7453
vn -0.3162 0.5869 0.7454
vn -0.3162 0.5869 0.7454
vn -0.3162 0.5869 0.7454
vn -0.3162 0.5870 0.7453
vn 0.3425 0.6672 -0.6615
vn 0.3425 0.6672 -0.6615
vn 0.3425 0.6672 -0.6615
vn 0.3425 0.6672 -0.6615
vn 0.3425 0.6672 -0.6615
vn 0.3425 0.6672 -0.6615
vn -0.7017 0.6595 0.2695
vn -0.7017 0.6595 0.2695
vn -0.7017 0.6595 0.2695
vn -0.7017 0.6595 0.2695
vn -0.7017 0.6595 0.2695
vn -0.7017 0.6595 0.2695
vn 0.7822 0.6044 -0.1512
vn 0.7823 0.6043 -0.1513
vn 0.7822 0.6044 -0.1512
vn 0.7822 0.6044 -0.1512
vn 0.7822 0.6044 -0.1512
vn 0.7822 0.6044 -0.1512
vn -0.7017 0.6595 0.2695
vn -0.7017 0.6595 0.2695
vn -0.7017 0.6595 0.2695
vn -0.7017 0.6595 0.2695
vn -0.7017 0.6595 0.2695
vn -0.7017 0.6595 0.2695
vn 0.7822 0.6044 -0.1512
vn 0.7823 0.6043 -0.1513
vn 0.7823 0.6043 -0.1513
vn 0.7823 0.6043 -0.1513
vn 0.7822 0.6044 -0.1512
vn 0.7822 0.6044 -0.1512
vn -0.3985 0.5596 0.7266
vn -0.3985 0.5596 0.7266
vn -0.3985 0.5596 0.7266
vn -0.3985 0.5596 0.7266
vn -0.3985 0.5596 0.7266
vn -0.3985 0.5596 0.7266
vn 0.4024 0.6979 -0.5925
vn 0.4024 0.6978 -0.5926
vn 0.4024 0.6978 -0.5926
vn 0.4024 0.6978 -0.5926
vn 0.4024 0.6979 -0.5925
vn 0.4024 0.6979 -0.5925
vn -0.0100 0.6523 0.7579
vn -0.0101 0.6523 0.7579
vn -0.0101 0.6523 0.7579
vn -0.0101 0.6523 0.7579
vn -0.0100 0.6523 0.7579
vn -0.0100 0.6523 0.7579
vn 0.0124 0.6337 -0.7735
vn 0.0124 0.6339 -0.7733
vn 0.0123 0.6339 -0.7733
vn 0.0123 0.6339 -0.7733
vn 0.0124 0.6337 -0.7735
vn 0.0124 0.6337 -0.7735
vn 0.5568 0.6386 0.5312
vn 0.5568 0.6386 0.5312
vn 0.5568 0.6386 0.5312
vn 0.5568 0.6386 0.5312
vn 0.5568 0.6386 0.5312
vn 0.5568 0.6386 0.5312
vn -0.6342 0.6256 -0.4542
vn -0.6342 0.6256 -0.4542
vn -0.6342 0.6257 -0.4542
vn -0.6342 0.6257 -0.4542
vn -0.6343 0.6256 -0.4542
vn -0.6342 0.6256 -0.4542
vn 0.7625 0.6355 -0.1213
vn 0.7625 0.6355 -0.1213
vn 0.7625 0.6355 -0.1213
vn 0.7625 0.6355 -0.1213
vn 0.7625 0.6355 -0.1213
vn 0.7625 0.6355 -0.1213
vn -0.7455 0.6149 0.2570
vn -0.7455 0.6149 0.2570
vn -0.7456 0.6149 0.2570
vn -0.7456 0.6149 0.2570
vn -0.7456 0.6149 0.2570
vn -0.7455 0.6149 0.2570
vn 0.4296 0.6649 -0.6111
vn 0.4296 0.6649 -0.6111
vn 0.4297 0.6647 -0.6112
vn 0.4297 0.6647 -0.6112
vn 0.4297 0.6646 -0.6112
vn 0.4296 0.6649 -0.6111
vn -0.3991 0.5887 0.7030
vn -0.3990 0.5889 0.7028
vn -0.3990 0.5889 0.7028
vn -0.3990 0.5889 0.7028
vn -0.3991 0.5887 0.7030
vn -0.3991 0.5887 0.7030
vn -0.5496 0.6218 0.5579
vn -0.5524 0.6199 0.5573
vn -0.5815 0.6005 0.5489
vn -0.5815 0.6005 0.5489
vn -0.5815 0.6005 0.5489
vn -0.5496 0.6218 0.5579
vn 0.6183 0.6518 -0.4391
vn 0.6115 0.6373 -0.4690
vn 0.6107 0.6361 -0.4717
vn 0.6107 0.6361 -0.4717
vn 0.6183 0.6518 -0.4391
vn 0.6183 0.6518 -0.4391
vn -0.5707 0.6012 0.5594
vn -0.5707 0.6012 0.5594
vn -0.5468 0.6192 0.5635
vn -0.5468 0.6192 0.5635
vn -0.5441 0.6215 0.5637
vn -0.5707 0.6012 0.5594
vn 0.6091 0.6514 -0.4524
vn 0.6092 0.6514 -0.4524
vn 0.6050 0.6365 -0.4784
vn 0.6050 0.6365 -0.4784
vn 0.6054 0.6380 -0.4759
vn 0.6091 0.6514 -0.4524
vn -0.5441 0.6215 0.5637
vn -0.5468 0.6192 0.5635
vn -0.5524 0.6199 0.5573
vn -0.5524 0.6199 0.5573
vn -0.5496 0.6218 0.5579
vn -0.5441 0.6215 0.5637
vn 0.6054 0.6380 -0.4759
vn 0.6050 0.6365 -0.4784
vn 0.6107 0.6361 -0.4717
vn 0.6107 0.6361 -0.4717
vn 0.6115 0.6373 -0.4690
vn 0.6054 0.6380 -0.4759
vn -0.5706 0.6029 0.5576
vn -0.5706 0.6029 0.5576
vn -0.5707 0.6012 0.5594
vn -0.5707 0.6012 0.5594
vn -0.5707 0.6012 0.5594
vn -0.5706 0.6029 0.5576
vn 0.6109 0.6499 -0.4521
vn 0.6109 0.6499 -0.4521
vn 0.6092 0.6514 -0.4524
vn 0.6092 0.6514 -0.4524
vn 0.6091 0.6514 -0.4524
vn 0.6109 0.6499 -0.4521
vn 0.5062 0.5415 0.6712
vn 0.5029 0.5438 0.6719
vn 0.4941 0.5505 0.6729
vn 0.4941 0.5505 0.6729
vn 0.4941 0.5505 0.6729
vn 0.5062 0.5415 0.6712
vn -0.4770 0.7153 -0.5107
vn -0.4717 0.7315 -0.4924
vn -0.4693 0.7380 -0.4849
vn -0.4693 0.7380 -0.4849
vn -0.4770 0.7153 -0.5107
vn -0.4770 0.7153 -0.5107
vn 0.5083 0.5491 0.6634
vn 0.5082 0.5491 0.6635
vn 0.5140 0.5414 0.6654
vn 0.5140 0.5414 0.6654
vn 0.5140 0.5413 0.6654
vn 0.5083 0.5491 0.6634
vn -0.4864 0.7191 -0.4964
vn -0.4863 0.7191 -0.4963
vn -0.4748 0.7394 -0.4773
vn -0.4748 0.7394 -0.4773
vn -0.4749 0.7393 -0.4774
vn -0.4864 0.7191 -0.4964
vn 0.5140 0.5413 0.6654
vn 0.5140 0.5414 0.6654
vn 0.5029 0.5438 0.6719
vn 0.5029 0.5438 0.6719
vn 0.5062 0.5415 0.6712
vn 0.5140 0.5413 0.6654
vn -0.4749 0.7393 -0.4774
vn -0.4748 0.7394 -0.4773
vn -0.4693 0.7380 -0.4849
vn -0.4693 0.7380 -0.4849
vn -0.4717 0.7315 -0.4924
vn -0.4749 0.7393 -0.4774
vn 0.5035 0.5512 0.6653
vn 0.5035 0.5512 0.6653
vn 0.5082 0.5491 0.6635
vn 0.5082 0.5491 0.6635
vn 0.5083 0.5491 0.6634
vn 0.5035 0.5512 0.6653
vn -0.4860 0.7145 -0.5033
vn -0.4860 0.7145 -0.5033
vn -0.4863 0.7191 -0.4963
vn -0.4863 0.7191 -0.4963
vn -0.4864 0.7191 -0.4964
vn -0.4860 0.7145 -0.5033
vn -0.7709 0.6348 0.0531
vn -0.7709 0.6348 0.0530
vn -0.7709 0.6348 0.0530
vn -0.7709 0.6348 0.0530
vn -0.7709 0.6348 0.0530
vn -0.7709 0.6348 0.0531
vn 0.7832 0.6157 0.0872
vn 0.7832 0.6157 0.0872
vn 0.7832 0.6157 0.0872
vn 0.7832 0.6157 0.0872
vn 0.7832 0.6157 0.0872
vn 0.7832 0.6157 0.0872
vn 0.0629 0.5497 0.8330
vn 0.0629 0.5497 0.8330
vn 0.0629 0.5497 0.8330
vn 0.0629 0.5497 0.8330
vn 0.0629 0.5497 0.8330
vn 0.0629 0.5497 0.8330
vn -0.0636 0.7106 -0.7007
vn -0.0637 0.7106 -0.7007
vn -0.0637 0.7106 -0.7007
vn -0.0637 0.7106 -0.7007
vn -0.0636 0.7106 -0.7007
vn -0.0636 0.7106 -0.7007
vn 0.0629 0.5497 0.8330
vn 0.0629 0.5497 0.8330
vn 0.0629 0.5497 0.8330
vn 0.0629 0.5497 0.8330
vn 0.0629 0.5497 0.8330
vn 0.0629 0.5497 0.8330
vn -0.0636 0.7106 -0.7007
vn -0.0636 0.7106 -0.7007
vn -0.0636 0.7106 -0.7007
vn -0.0636 0.7106 -0.7007
vn -0.0636 0.7106 -0.7007
vn -0.0636 0.7106 -0.7007
vn -0.5354 0.6196 0.5740
vn -0.5354 0.6196 0.5740
vn -0.5354 0.6196 0.5740
vn -0.5354 0.6196 0.5740
vn -0.5354 0.6196 0.5740
vn -0.5354 0.6196 0.5740
vn 0.5946 0.6381 -0.4892
vn 0.5946 0.6381 -0.4893
vn 0.5946 0.6381 -0.4893
vn 0.5946 0.6381 -0.4893
vn 0.5946 0.6381 -0.4892
vn 0.5946 0.6381 -0.4892
vn -0.4532 0.5983 0.6608
vn -0.4532 0.5983 0.6608
vn -0.4531 0.5985 0.6607
vn -0.4531 0.5985 0.6607
vn -0.4532 0.5985 0.6607
vn -0.4532 0.5983 0.6608
vn 0.4926 0.6558 -0.5720
vn 0.4926 0.6558 -0.5721
vn 0.4926 0.6558 -0.5721
vn 0.4926 0.6558 -0.5721
vn 0.4926 0.6558 -0.5721
vn 0.4926 0.6558 -0.5720
vn -0.3576 0.5465 0.7573
vn -0.3576 0.5465 0.7573
vn -0.3576 0.5466 0.7572
vn -0.3576 0.5466 0.7572
vn -0.3576 0.5466 0.7572
vn -0.3576 0.5465 0.7573
vn 0.3496 0.7189 -0.6008
vn 0.3497 0.7188 -0.6009
vn 0.3497 0.7188 -0.6009
vn 0.3497 0.7188 -0.6009
vn 0.3496 0.7189 -0.6008
vn 0.3496 0.7189 -0.6008
vn -0.3576 0.5465 0.7573
vn -0.3575 0.5465 0.7573
vn -0.3575 0.5466 0.7572
vn -0.3575 0.5466 0.7572
vn -0.3575 0.5466 0.7572
vn -0.3576 0.5465 0.7573
vn 0.3496 0.7189 -0.6008
vn 0.3497 0.7188 -0.6009
vn 0.3497 0.7188 -0.6009
vn 0.3497 0.7188 -0.6009
vn 0.3496 0.7189 -0.6008
vn 0.3496 0.7189 -0.6008
vn -0.6970 0.6332 0.3365
vn -0.6971 0.6332 0.3365
vn -0.6971 0.6332 0.3365
vn -0.6971 0.6332 0.3365
vn -0.6970 0.6332 0.3364
vn -0.6970 0.6332 0.3365
vn 0.7523 0.6219 -0.2173
vn 0.7523 0.6220 -0.2172
vn 0.7524 0.6219 -0.2172
vn 0.7524 0.6219 -0.2172
vn 0.7523 0.6219 -0.2173
vn 0.7523 0.6219 -0.2173
vn -0.7165 0.6409 0.2754
vn -0.7165 0.6409 0.2754
vn -0.7165 0.6409 0.2754
vn -0.7165 0.6409 0.2754
vn -0.7165 0.6409 0.2753
vn -0.7165 0.6409 0.2754
vn 0.7738 0.6151 -0.1513
vn 0.7738 0.6151 -0.1513
vn 0.7738 0.6151 -0.1513
vn 0.7738 0.6151 -0.1513
vn 0.7738 0.6151 -0.1513
vn 0.7738 0.6151 -0.1513
vn -0.5775 0.7582 -0.3027
vn -0.5775 0.7583 -0.3026
vn -0.5775 0.7582 -0.3027
vn -0.5775 0.7582 -0.3027
vn -0.5775 0.7582 -0.3027
vn -0.5775 0.7582 -0.3027
vn 0.6679 0.5455 0.5063
vn 0.6679 0.5455 0.5064
vn 0.6679 0.5455 0.5064
vn 0.6679 0.5455 0.5064
vn 0.6679 0.5455 0.5063
vn 0.6679 0.5455 0.5063
vn -0.5775 0.7582 -0.3027
vn -0.5775 0.7582 -0.3026
vn -0.5775 0.7583 -0.3026
vn -0.5775 0.7583 -0.3026
vn -0.5776 0.7582 -0.3027
vn -0.5775 0.7582 -0.3027
vn 0.6679 0.5455 0.5063
vn 0.6679 0.5455 0.5063
vn 0.6679 0.5455 0.5063
vn 0.6679 0.5455 0.5063
vn 0.6679 0.5455 0.5063
vn 0.6679 0.5455 0.5063
vn -0.7652 0.6172 0.1828
vn -0.7652 0.6172 0.1828
vn -0.7652 0.6172 0.1829
vn -0.7652 0.6172 0.1829
vn -0.7652 0.6172 0.1828
vn -0.7652 0.6172 0.1828
vn 0.7730 0.6328 -0.0441
vn 0.7730 0.6328 -0.0441
vn 0.7730 0.6328 -0.0441
vn 0.7730 0.6328 -0.0441
vn 0.7730 0.6328 -0.0441
vn 0.7730 0.6328 -0.0441
vn -0.5057 0.6702 0.5432
vn -0.5058 0.6702 0.5432
vn -0.5058 0.6702 0.5432
vn -0.5058 0.6702 0.5432
vn -0.5058 0.6702 0.5432
vn -0.5057 0.6702 0.5432
vn 0.6109 0.6150 -0.4986
vn 0.6110 0.6150 -0.4986
vn 0.6109 0.6149 -0.4986
vn 0.6109 0.6149 -0.4986
vn 0.6109 0.6149 -0.4986
vn 0.6109 0.6150 -0.4986
vn 0.0187 0.5841 0.8115
vn 0.0187 0.5841 0.8115
vn 0.0187 0.5841 0.8115
vn 0.0187 0.5841 0.8115
vn 0.0187 0.5841 0.8115
vn 0.0187 0.5841 0.8115
vn -0.0204 0.6710 -0.7412
vn -0.0204 0.6710 -0.7412
vn -0.0204 0.6710 -0.7412
vn -0.0204 0.6710 -0.7412
vn -0.0204 0.6710 -0.7412
vn -0.0204 0.6710 -0.7412
vn 0.6419 0.5593 0.5246
vn 0.6419 0.5593 0.5246
vn 0.6419 0.5593 0.5246
vn 0.6419 0.5593 0.5246
vn 0.6418 0.5592 0.5247
vn 0.6419 0.5593 0.5246
vn -0.6092 0.7065 -0.3601
vn -0.6092 0.7065 -0.3601
vn -0.6092 0.7065 -0.3601
vn -0.6092 0.7065 -0.3601
vn -0.6092 0.7065 -0.3601
vn -0.6092 0.7065 -0.3601
vn 0.7936 0.6061 -0.0536
vn 0.7936 0.6061 -0.0536
vn 0.7936 0.6061 -0.0536
vn 0.7936 0.6061 -0.0536
vn 0.7936 0.6061 -0.0536
vn 0.7936 0.6061 -0.0536
vn -0.7359 0.6512 0.1853
vn -0.7359 0.6512 0.1853
vn -0.7359 0.6512 0.1853
vn -0.7359 0.6512 0.1853
vn -0.7359 0.6512 0.1853
vn -0.7359 0.6512 0.1853
vn 0.4900 0.6079 0.6248
vn 0.4890 0.6060 0.6274
vn 0.4770 0.5856 0.6554
vn 0.4770 0.5856 0.6554
vn 0.4770 0.5856 0.6554
vn 0.4900 0.6079 0.6248
vn -0.5040 0.6672 -0.5485
vn -0.5354 0.6491 -0.5403
vn -0.5383 0.6476 -0.5393
vn -0.5383 0.6476 -0.5393
vn -0.5040 0.6672 -0.5485
vn -0.5040 0.6672 -0.5485
vn 0.4885 0.5873 0.6453
vn 0.4885 0.5873 0.6453
vn 0.4956 0.6059 0.6223
vn 0.4956 0.6059 0.6223
vn 0.4961 0.6083 0.6196
vn 0.4885 0.5873 0.6453
vn -0.5168 0.6653 -0.5387
vn -0.5168 0.6653 -0.5388
vn -0.5446 0.6472 -0.5333
vn -0.5446 0.6472 -0.5333
vn -0.5420 0.6491 -0.5339
vn -0.5168 0.6653 -0.5387
vn 0.4961 0.6083 0.6196
vn 0.4956 0.6059 0.6223
vn 0.4890 0.6060 0.6274
vn 0.4890 0.6060 0.6274
vn 0.4900 0.6079 0.6248
vn 0.4961 0.6083 0.6196
vn -0.5420 0.6491 -0.5339
vn -0.5446 0.6472 -0.5333
vn -0.5383 0.6476 -0.5393
vn -0.5383 0.6476 -0.5393
vn -0.5354 0.6491 -0.5403
vn -0.5420 0.6491 -0.5339
vn 0.4869 0.5888 0.6452
vn 0.4869 0.5888 0.6452
vn 0.4885 0.5873 0.6453
vn 0.4885 0.5873 0.6453
vn 0.4885 0.5873 0.6453
vn 0.4869 0.5888 0.6452
vn -0.5168 0.6639 -0.5406
vn -0.5168 0.6639 -0.5406
vn -0.5168 0.6653 -0.5388
vn -0.5168 0.6653 -0.5388
vn -0.5168 0.6653 -0.5387
vn -0.5168 0.6639 -0.5406
vn 0.6390 0.6107 -0.4677
vn 0.6405 0.6121 -0.4638
vn 0.6432 0.6172 -0.4532
vn 0.6432 0.6172 -0.4532
vn 0.6432 0.6172 -0.4532
vn 0.6390 0.6107 -0.4677
vn -0.5477 0.6577 0.5172
vn -0.5296 0.6748 0.5140
vn -0.5222 0.6817 0.5125
vn -0.5222 0.6817 0.5125
vn -0.5477 0.6577 0.5172
vn -0.5477 0.6577 0.5172
vn 0.6328 0.6164 -0.4687
vn 0.6328 0.6164 -0.4687
vn 0.6325 0.6109 -0.4762
vn 0.6325 0.6109 -0.4762
vn 0.6325 0.6108 -0.4762
vn 0.6328 0.6164 -0.4687
vn -0.5341 0.6614 0.5266
vn -0.5340 0.6614 0.5266
vn -0.5150 0.6830 0.5179
vn -0.5150 0.6830 0.5179
vn -0.5151 0.6829 0.5180
vn -0.5341 0.6614 0.5266
vn 0.6325 0.6108 -0.4762
vn 0.6325 0.6109 -0.4762
vn 0.6405 0.6121 -0.4638
vn 0.6405 0.6121 -0.4638
vn 0.6390 0.6107 -0.4677
vn 0.6325 0.6108 -0.4762
vn -0.5151 0.6829 0.5180
vn -0.5150 0.6830 0.5179
vn -0.5222 0.6817 0.5125
vn -0.5222 0.6817 0.5125
vn -0.5296 0.6748 0.5140
vn -0.5151 0.6829 0.5180
vn 0.6353 0.6179 -0.4633
vn 0.6353 0.6179 -0.4633
vn 0.6328 0.6164 -0.4687
vn 0.6328 0.6164 -0.4687
vn 0.6328 0.6164 -0.4687
vn 0.6353 0.6179 -0.4633
vn -0.5408 0.6566 0.5257
vn -0.5408 0.6566 0.5257
vn -0.5340 0.6614 0.5266
vn -0.5340 0.6614 0.5266
vn -0.5341 0.6614 0.5266
vn -0.5408 0.6566 0.5257
vn -0.0218 0.5856 0.8103
vn -0.0217 0.5856 0.8103
vn -0.0217 0.5856 0.8103
vn -0.0217 0.5856 0.8103
vn -0.0217 0.5856 0.8103
vn -0.0218 0.5856 0.8103
vn 0.0239 0.6698 -0.7421
vn 0.0238 0.6698 -0.7421
vn 0.0238 0.6698 -0.7421
vn 0.0238 0.6698 -0.7421
vn 0.0239 0.6698 -0.7421
vn 0.0239 0.6698 -0.7421
vn 0.8047 0.5936 0.0098
vn 0.8047 0.5936 0.0098
vn 0.8047 0.5936 0.0097
vn 0.8047 0.5936 0.0097
vn 0.8047 0.5936 0.0097
vn 0.8047 0.5936 0.0098
vn -0.7314 0.6703 0.1259
vn -0.7314 0.6702 0.1259
vn -0.7314 0.6702 0.1259
vn -0.7314 0.6702 0.1259
vn -0.7314 0.6702 0.1259
vn -0.7314 0.6703 0.1259
vn 0.8047 0.5936 0.0098
vn 0.8047 0.5936 0.0098
vn 0.8047 0.5936 0.0098
vn 0.8047 0.5936 0.0098
vn 0.8047 0.5936 0.0097
vn 0.8047 0.5936 0.0098
vn -0.7314 0.6702 0.1259
vn -0.7314 0.6702 0.1259
vn -0.7314 0.6703 0.1259
vn -0.7314 0.6703 0.1259
vn -0.7314 0.6702 0.1259
vn -0.7314 0.6702 0.1259
vn 0.5069 0.6074 0.6117
vn 0.5069 0.6074 0.6116
vn 0.5070 0.6073 0.6117
vn 0.5070 0.6073 0.6117
vn 0.5070 0.6073 0.6117
vn 0.5069 0.6074 0.6117
vn -0.5546 0.6476 -0.5224
vn -0.5547 0.6476 -0.5225
vn -0.5547 0.6476 -0.5225
vn -0.5547 0.6476 -0.5225
vn -0.5546 0.6476 -0.5225
vn -0.5546 0.6476 -0.5224
vn 0.5992 0.5963 0.5343
vn 0.5992 0.5962 0.5343
vn 0.5992 0.5963 0.5343
vn 0.5992 0.5963 0.5343
vn 0.5992 0.5963 0.5343
vn 0.5992 0.5963 0.5343
vn -0.6293 0.6554 -0.4176
vn -0.6293 0.6554 -0.4176
vn -0.6293 0.6554 -0.4176
vn -0.6293 0.6554 -0.4176
vn -0.6292 0.6555 -0.4176
vn -0.6293 0.6554 -0.4176
vn 0.6999 0.5600 0.4434
vn 0.6999 0.5600 0.4434
vn 0.6998 0.5600 0.4435
vn 0.6998 0.5600 0.4435
vn 0.6998 0.5600 0.4435
vn 0.6999 0.5600 0.4434
vn -0.6475 0.7112 -0.2736
vn -0.6476 0.7111 -0.2737
vn -0.6476 0.7111 -0.2737
vn -0.6476 0.7111 -0.2737
vn -0.6475 0.7112 -0.2736
vn -0.6475 0.7112 -0.2736
vn 0.6999 0.5600 0.4434
vn 0.6999 0.5600 0.4434
vn 0.6999 0.5600 0.4434
vn 0.6999 0.5600 0.4434
vn 0.6999 0.5600 0.4434
vn 0.6999 0.5600 0.4434
vn -0.6475 0.7112 -0.2736
vn -0.6476 0.7111 -0.2737
vn -0.6476 0.7111 -0.2737
vn -0.6476 0.7111 -0.2737
vn -0.6475 0.7112 -0.2736
vn -0.6475 0.7112 -0.2736
vn 0.2602 0.6004 0.7562
vn 0.2602 0.6004 0.7562
vn 0.2602 0.6004 0.7562
vn 0.2602 0.6004 0.7562
vn 0.2602 0.6004 0.7562
vn 0.2602 0.6004 0.7562
vn -0.2904 0.6570 -0.6957
vn -0.2905 0.6569 -0.6957
vn -0.2905 0.6570 -0.6957
vn -0.2905 0.6570 -0.6957
vn -0.2904 0.6570 -0.6957
vn -0.2904 0.6570 -0.6957
vn 0.1993 0.6041 0.7716
vn 0.1993 0.6041 0.7716
vn 0.1993 0.6041 0.7716
vn 0.1993 0.6041 0.7716
vn 0.1993 0.6041 0.7716
vn 0.1993 0.6041 0.7716
vn -0.2249 0.6550 -0.7214
vn -0.2249 0.6550 -0.7214
vn -0.2249 0.6550 -0.7214
vn -0.2249 0.6550 -0.7214
vn -0.2249 0.6550 -0.7214
vn -0.2249 0.6550 -0.7214
vn -0.3494 0.7020 0.6206
vn -0.3494 0.7020 0.6206
vn -0.3494 0.7019 0.6206
vn -0.3494 0.7019 0.6206
vn -0.3494 0.7019 0.6206
vn -0.3494 0.7020 0.6206
vn 0.4550 0.6186 -0.6405
vn 0.4551 0.6186 -0.6405
vn 0.4551 0.6186 -0.6405
vn 0.4551 0.6186 -0.6405
vn 0.4550 0.6186 -0.6405
vn 0.4550 0.6186 -0.6405
vn -0.3494 0.7020 0.6206
vn -0.3494 0.7020 0.6206
vn -0.3494 0.7019 0.6207
vn -0.3494 0.7019 0.6207
vn -0.3494 0.7019 0.6207
vn -0.3494 0.7020 0.6206
vn 0.4550 0.6186 -0.6405
vn 0.4550 0.6186 -0.6405
vn 0.4550 0.6187 -0.6405
vn 0.4550 0.6187 -0.6405
vn 0.4550 0.6186 -0.6405
vn 0.4550 0.6186 -0.6405
vn 0.1030 0.5747 0.8119
vn 0.1030 0.5747 0.8119
vn 0.1030 0.5748 0.8118
vn 0.1030 0.5748 0.8118
vn 0.1030 0.5748 0.8118
vn 0.1030 0.5747 0.8119
vn -0.1104 0.6798 -0.7251
vn -0.1104 0.6797 -0.7251
vn -0.1104 0.6798 -0.7251
vn -0.1104 0.6798 -0.7251
vn -0.1104 0.6798 -0.7251
vn -0.1104 0.6798 -0.7251
vn 0.4800 0.6561 0.5824
vn 0.4800 0.6561 0.5824
vn 0.4801 0.6561 0.5823
vn 0.4801 0.6561 0.5823
vn 0.4801 0.6561 0.5823
vn 0.4800 0.6561 0.5824
vn -0.5707 0.6214 -0.5368
vn -0.5706 0.6214 -0.5369
vn -0.5706 0.6214 -0.5369
vn -0.5706 0.6214 -0.5369
vn -0.5707 0.6214 -0.5368
vn -0.5707 0.6214 -0.5368
vn 0.7820 0.6207 0.0574
vn 0.7820 0.6207 0.0574
vn 0.7820 0.6207 0.0574
vn 0.7820 0.6207 0.0574
vn 0.7820 0.6207 0.0574
vn 0.7820 0.6207 0.0574
vn -0.7726 0.6295 0.0824
vn -0.7726 0.6295 0.0824
vn -0.7726 0.6295 0.0824
vn -0.7726 0.6295 0.0824
vn -0.7726 0.6295 0.0824
vn -0.7726 0.6295 0.0824
vn 0.4834 0.6279 -0.6100
vn 0.4834 0.6279 -0.6100
vn 0.4834 0.6279 -0.6100
vn 0.4834 0.6279 -0.6100
vn 0.4833 0.6279 -0.6101
vn 0.4834 0.6279 -0.6100
vn -0.4071 0.6474 0.6443
vn -0.4071 0.6474 0.6443
vn -0.4071 0.6474 0.6443
vn -0.4071 0.6474 0.6443
vn -0.4071 0.6474 0.6443
vn -0.4071 0.6474 0.6443
vn -0.1262 0.6526 -0.7471
vn -0.1263 0.6526 -0.7471
vn -0.1263 0.6526 -0.7471
vn -0.1263 0.6526 -0.7471
vn -0.1263 0.6526 -0.7471
vn -0.1262 0.6526 -0.7471
vn 0.1106 0.6092 0.7853
vn 0.1106 0.6092 0.7853
vn 0.1107 0.6092 0.7853
vn 0.1107 0.6092 0.7853
vn 0.1106 0.6092 0.7853
vn 0.1106 0.6092 0.7853
vn 0.6121 0.6521 -0.4474
vn 0.6148 0.6504 -0.4460
vn 0.6433 0.6336 -0.4298
vn 0.6433 0.6336 -0.4298
vn 0.6433 0.6336 -0.4298
vn 0.6121 0.6521 -0.4474
vn -0.5815 0.6238 0.5223
vn -0.5757 0.6022 0.5532
vn -0.5749 0.6004 0.5559
vn -0.5749 0.6004 0.5559
vn -0.5815 0.6238 0.5223
vn -0.5815 0.6238 0.5223
vn 0.6328 0.6353 -0.4427
vn 0.6328 0.6352 -0.4427
vn 0.6094 0.6505 -0.4532
vn 0.6094 0.6505 -0.4532
vn 0.6067 0.6525 -0.4540
vn 0.6328 0.6353 -0.4427
vn -0.5725 0.6219 0.5342
vn -0.5726 0.6219 0.5342
vn -0.5695 0.6000 0.5619
vn -0.5695 0.6000 0.5619
vn -0.5698 0.6022 0.5592
vn -0.5725 0.6219 0.5342
vn 0.6067 0.6525 -0.4540
vn 0.6094 0.6505 -0.4532
vn 0.6148 0.6504 -0.4460
vn 0.6148 0.6504 -0.4460
vn 0.6121 0.6521 -0.4474
vn 0.6067 0.6525 -0.4540
vn -0.5698 0.6022 0.5592
vn -0.5695 0.6000 0.5619
vn -0.5749 0.6004 0.5559
vn -0.5749 0.6004 0.5559
vn -0.5757 0.6022 0.5532
vn -0.5698 0.6022 0.5592
vn 0.6327 0.6364 -0.4412
vn 0.6327 0.6364 -0.4412
vn 0.6328 0.6352 -0.4427
vn 0.6328 0.6352 -0.4427
vn 0.6328 0.6353 -0.4427
vn 0.6327 0.6364 -0.4412
vn -0.5744 0.6201 0.5344
vn -0.5744 0.6201 0.5344
vn -0.5726 0.6219 0.5342
vn -0.5726 0.6219 0.5342
vn -0.5725 0.6219 0.5342
vn -0.5744 0.6201 0.5344
vn -0.5562 0.6159 -0.5580
vn -0.5505 0.6176 -0.5617
vn -0.5357 0.6230 -0.5700
vn -0.5357 0.6230 -0.5700
vn -0.5357 0.6230 -0.5700
vn -0.5562 0.6159 -0.5580
vn 0.4486 0.6553 0.6077
vn 0.4488 0.6731 0.5878
vn 0.4486 0.6802 0.5798
vn 0.4486 0.6802 0.5798
vn 0.4486 0.6553 0.6077
vn 0.4486 0.6553 0.6077
vn -0.5515 0.6210 -0.5570
vn -0.5515 0.6210 -0.5570
vn -0.5646 0.6151 -0.5503
vn -0.5646 0.6151 -0.5503
vn -0.5646 0.6151 -0.5503
vn -0.5515 0.6210 -0.5570
vn 0.4595 0.6599 0.5945
vn 0.4595 0.6599 0.5945
vn 0.4547 0.6820 0.5729
vn 0.4547 0.6820 0.5729
vn 0.4547 0.6819 0.5730
vn 0.4595 0.6599 0.5945
vn -0.5646 0.6151 -0.5503
vn -0.5646 0.6151 -0.5503
vn -0.5505 0.6176 -0.5617
vn -0.5505 0.6176 -0.5617
vn -0.5562 0.6159 -0.5580
vn -0.5646 0.6151 -0.5503
vn 0.4547 0.6819 0.5730
vn 0.4547 0.6820 0.5729
vn 0.4486 0.6802 0.5798
vn 0.4486 0.6802 0.5798
vn 0.4488 0.6731 0.5878
vn 0.4547 0.6819 0.5730
vn -0.5450 0.6229 -0.5612
vn -0.5450 0.6229 -0.5612
vn -0.5515 0.6210 -0.5570
vn -0.5515 0.6210 -0.5570
vn -0.5515 0.6210 -0.5570
vn -0.5450 0.6229 -0.5612
vn 0.4575 0.6547 0.6017
vn 0.4575 0.6547 0.6017
vn 0.4595 0.6599 0.5945
vn 0.4595 0.6599 0.5945
vn 0.4595 0.6599 0.5945
vn 0.4575 0.6547 0.6017
vn 0.7814 0.6147 0.1074
vn 0.7814 0.6147 0.1074
vn 0.7815 0.6146 0.1074
vn 0.7815 0.6146 0.1074
vn 0.7815 0.6146 0.1074
vn 0.7814 0.6147 0.1074
vn -0.7712 0.6358 0.0331
vn -0.7711 0.6359 0.0332
vn -0.7711 0.6359 0.0332
vn -0.7711 0.6359 0.0332
vn -0.7712 0.6358 0.0331
vn -0.7712 0.6358 0.0331
vn -0.0644 0.6347 -0.7701
vn -0.0644 0.6347 -0.7701
vn -0.0645 0.6347 -0.7701
vn -0.0645 0.6347 -0.7701
vn -0.0645 0.6346 -0.7701
vn -0.0644 0.6347 -0.7701
vn 0.0527 0.6489 0.7590
vn 0.0526 0.6489 0.7591
vn 0.0526 0.6490 0.7590
vn 0.0526 0.6490 0.7590
vn 0.0527 0.6489 0.7590
vn 0.0527 0.6489 0.7590
vn -0.0644 0.6346 -0.7701
vn -0.0644 0.6347 -0.7701
vn -0.0644 0.6346 -0.7701
vn -0.0644 0.6346 -0.7701
vn -0.0645 0.6346 -0.7701
vn -0.0644 0.6346 -0.7701
vn 0.0527 0.6490 0.7590
vn 0.0526 0.6489 0.7591
vn 0.0527 0.6489 0.7590
vn 0.0527 0.6489 0.7590
vn 0.0527 0.6489 0.7590
vn 0.0527 0.6490 0.7590
vn 0.5982 0.6520 -0.4658
vn 0.5982 0.6520 -0.4658
vn 0.5983 0.6519 -0.4658
vn 0.5983 0.6519 -0.4658
vn 0.5983 0.6519 -0.4658
vn 0.5982 0.6520 -0.4658
vn -0.5594 0.6007 0.5711
vn -0.5595 0.6007 0.5711
vn -0.5595 0.6007 0.5711
vn -0.5595 0.6007 0.5711
vn -0.5595 0.6007 0.5711
vn -0.5594 0.6007 0.5711
vn 0.5147 0.6447 -0.5652
vn 0.5147 0.6447 -0.5652
vn 0.5147 0.6447 -0.5652
vn 0.5147 0.6447 -0.5652
vn 0.5147 0.6447 -0.5652
vn 0.5147 0.6447 -0.5652
vn -0.4623 0.6128 0.6409
vn -0.4622 0.6130 0.6408
vn -0.4622 0.6130 0.6408
vn -0.4622 0.6130 0.6408
vn -0.4623 0.6128 0.6409
vn -0.4623 0.6128 0.6409
vn 0.4067 0.6222 -0.6689
vn 0.4067 0.6222 -0.6689
vn 0.4068 0.6222 -0.6689
vn 0.4068 0.6222 -0.6689
vn 0.4068 0.6222 -0.6689
vn 0.4067 0.6222 -0.6689
vn -0.3222 0.6796 0.6590
vn -0.3221 0.6797 0.6589
vn -0.3221 0.6797 0.6589
vn -0.3221 0.6797 0.6589
vn -0.3223 0.6796 0.6590
vn -0.3222 0.6796 0.6590
vn 0.4067 0.6222 -0.6689
vn 0.4067 0.6222 -0.6689
vn 0.4068 0.6222 -0.6689
vn 0.4068 0.6222 -0.6689
vn 0.4067 0.6222 -0.6689
vn 0.4067 0.6222 -0.6689
vn -0.3222 0.6796 0.6590
vn -0.3222 0.6797 0.6589
vn -0.3222 0.6797 0.6589
vn -0.3222 0.6797 0.6589
vn -0.3223 0.6796 0.6590
vn -0.3222 0.6796 0.6590
vn 0.7439 0.6389 -0.1959
vn 0.7439 0.6389 -0.1959
vn 0.7439 0.6390 -0.1959
vn 0.7439 0.6390 -0.1959
vn 0.7439 0.6389 -0.1959
vn 0.7439 0.6389 -0.1959
vn -0.7202 0.6117 0.3274
vn -0.7202 0.6117 0.3273
vn -0.7202 0.6117 0.3273
vn -0.7202 0.6117 0.3273
vn -0.7202 0.6117 0.3273
vn -0.7202 0.6117 0.3274
vn 0.7571 0.6400 -0.1311
vn 0.7571 0.6400 -0.1311
vn 0.7572 0.6399 -0.1311
vn 0.7572 0.6399 -0.1311
vn 0.7572 0.6399 -0.1311
vn 0.7571 0.6400 -0.1311
vn -0.7455 0.6103 0.2679
vn -0.7454 0.6103 0.2679
vn -0.7454 0.6103 0.2679
vn -0.7454 0.6103 0.2679
vn -0.7455 0.6103 0.2679
vn -0.7455 0.6103 0.2679
vn 0.5716 0.7092 0.4126
vn 0.5716 0.7092 0.4126
vn 0.5717 0.7092 0.4126
vn 0.5717 0.7092 0.4126
vn 0.5717 0.7092 0.4126
vn 0.5716 0.7092 0.4126
vn -0.7170 0.6004 -0.3541
vn -0.7170 0.6004 -0.3542
vn -0.7170 0.6004 -0.3542
vn -0.7170 0.6004 -0.3542
vn -0.7170 0.6004 -0.3541
vn -0.7170 0.6004 -0.3541
vn 0.5716 0.7092 0.4126
vn 0.5716 0.7092 0.4126
vn 0.5716 0.7092 0.4127
vn 0.5716 0.7092 0.4127
vn 0.5716 0.7092 0.4127
vn 0.5716 0.7092 0.4126
vn -0.7170 0.6004 -0.3541
vn -0.7170 0.6004 -0.3542
vn -0.7170 0.6004 -0.3541
vn -0.7170 0.6004 -0.3541
vn -0.7170 0.6004 -0.3542
vn -0.7170 0.6004 -0.3541
vn 0.7915 0.6108 -0.0210
vn 0.7916 0.6107 -0.0210
vn 0.7915 0.6108 -0.0210
vn 0.7915 0.6108 -0.0210
vn 0.7915 0.6108 -0.0210
vn 0.7915 0.6108 -0.0210
vn -0.7498 0.6429 0.1564
vn -0.7499 0.6428 0.1565
vn -0.7499 0.6428 0.1565
vn -0.7499 0.6428 0.1565
vn -0.7498 0.6429 0.1565
vn -0.7498 0.6429 0.1564
vn 0.5689 0.6935 -0.4420
vn 0.5689 0.6935 -0.4420
vn 0.5690 0.6935 -0.4419
vn 0.5690 0.6935 -0.4419
vn 0.5689 0.6935 -0.4420
vn 0.5689 0.6935 -0.4420
vn -0.5770 0.5649 0.5899
vn -0.5771 0.5646 0.5900
vn -0.5769 0.5649 0.5899
vn -0.5769 0.5649 0.5899
vn -0.5770 0.5649 0.5899
vn -0.5770 0.5649 0.5899
vn -0.0019 0.6573 -0.7537
vn -0.0019 0.6573 -0.7537
vn -0.0019 0.6573 -0.7537
vn -0.0019 0.6573 -0.7537
vn -0.0019 0.6573 -0.7537
vn -0.0019 0.6573 -0.7537
vn 0.0017 0.6020 0.7985
vn 0.0017 0.6020 0.7985
vn 0.0017 0.6020 0.7985
vn 0.0017 0.6020 0.7985
vn 0.0017 0.6020 0.7985
vn 0.0017 0.6020 0.7985
vn -0.6779 0.6164 -0.4005
vn -0.6779 0.6165 -0.4006
vn -0.6779 0.6165 -0.4006
vn -0.6779 0.6165 -0.4006
vn -0.6779 0.6164 -0.4005
vn -0.6779 0.6164 -0.4005
vn 0.5863 0.6538 0.4784
vn 0.5863 0.6538 0.4784
vn 0.5862 0.6538 0.4784
vn 0.5862 0.6538 0.4784
vn 0.5862 0.6538 0.4784
vn 0.5863 0.6538 0.4784
vn -0.7724 0.6096 0.1783
vn -0.7724 0.6096 0.1782
vn -0.7724 0.6096 0.1783
vn -0.7724 0.6096 0.1783
vn -0.7724 0.6096 0.1782
vn -0.7724 0.6096 0.1783
vn 0.7667 0.6410 -0.0376
vn 0.7667 0.6410 -0.0376
vn 0.7667 0.6409 -0.0376
vn 0.7667 0.6409 -0.0376
vn 0.7667 0.6410 -0.0376
vn 0.7667 0.6410 -0.0376
vn -0.5273 0.6731 -0.5185
vn -0.5272 0.6714 -0.5209
vn -0.5247 0.6538 -0.5452
vn -0.5247 0.6538 -0.5452
vn -0.5247 0.6538 -0.5452
vn -0.5273 0.6731 -0.5185
vn 0.4836 0.6004 0.6370
vn 0.5060 0.5814 0.6372
vn 0.5080 0.5797 0.6371
vn 0.5080 0.5797 0.6371
vn 0.4836 0.6004 0.6370
vn 0.4836 0.6004 0.6370
vn -0.5352 0.6547 -0.5338
vn -0.5353 0.6547 -0.5338
vn -0.5336 0.6711 -0.5147
vn -0.5336 0.6711 -0.5147
vn -0.5331 0.6732 -0.5125
vn -0.5352 0.6547 -0.5338
vn 0.4956 0.5989 0.6291
vn 0.4956 0.5989 0.6291
vn 0.5143 0.5797 0.6320
vn 0.5143 0.5797 0.6320
vn 0.5126 0.5816 0.6316
vn 0.4956 0.5989 0.6291
vn -0.5331 0.6732 -0.5125
vn -0.5336 0.6711 -0.5147
vn -0.5272 0.6714 -0.5209
vn -0.5272 0.6714 -0.5209
vn -0.5273 0.6731 -0.5185
vn -0.5331 0.6732 -0.5125
vn 0.5126 0.5816 0.6316
vn 0.5143 0.5797 0.6320
vn 0.5080 0.5797 0.6371
vn 0.5080 0.5797 0.6371
vn 0.5060 0.5814 0.6372
vn 0.5126 0.5816 0.6316
vn -0.5329 0.6561 -0.5344
vn -0.5329 0.6561 -0.5344
vn -0.5353 0.6547 -0.5338
vn -0.5353 0.6547 -0.5338
vn -0.5352 0.6547 -0.5338
vn -0.5329 0.6561 -0.5344
vn 0.4948 0.5972 0.6313
vn 0.4949 0.5972 0.6313
vn 0.4956 0.5989 0.6291
vn 0.4956 0.5989 0.6291
vn 0.4956 0.5989 0.6291
vn 0.4948 0.5972 0.6313
vn -0.5821 0.5621 0.5875
vn -0.5832 0.5661 0.5826
vn -0.5853 0.5768 0.5698
vn -0.5853 0.5768 0.5698
vn -0.5853 0.5768 0.5698
vn -0.5821 0.5621 0.5875
vn 0.5931 0.6767 -0.4363
vn 0.5759 0.6918 -0.4356
vn 0.5690 0.6979 -0.4349
vn 0.5690 0.6979 -0.4349
vn 0.5931 0.6767 -0.4363
vn 0.5931 0.6767 -0.4363
vn -0.5749 0.5734 0.5837
vn -0.5749 0.5734 0.5836
vn -0.5758 0.5610 0.5948
vn -0.5758 0.5610 0.5948
vn -0.5758 0.5609 0.5948
vn -0.5749 0.5734 0.5837
vn 0.5795 0.6811 -0.4475
vn 0.5795 0.6812 -0.4475
vn 0.5618 0.6998 -0.4412
vn 0.5618 0.6998 -0.4412
vn 0.5619 0.6997 -0.4413
vn 0.5795 0.6811 -0.4475
vn -0.5758 0.5609 0.5948
vn -0.5758 0.5610 0.5948
vn -0.5832 0.5661 0.5826
vn -0.5832 0.5661 0.5826
vn -0.5821 0.5621 0.5875
vn -0.5758 0.5609 0.5948
vn 0.5619 0.6997 -0.4413
vn 0.5618 0.6998 -0.4412
vn 0.5690 0.6979 -0.4349
vn 0.5690 0.6979 -0.4349
vn 0.5759 0.6918 -0.4356
vn 0.5619 0.6997 -0.4413
vn -0.5772 0.5769 0.5780
vn -0.5772 0.5769 0.5780
vn -0.5749 0.5734 0.5836
vn -0.5749 0.5734 0.5836
vn -0.5749 0.5734 0.5837
vn -0.5772 0.5769 0.5780
vn 0.5861 0.6767 -0.4456
vn 0.5861 0.6767 -0.4456
vn 0.5795 0.6812 -0.4475
vn 0.5795 0.6812 -0.4475
vn 0.5795 0.6811 -0.4475
vn 0.5861 0.6767 -0.4456
vn 0.0070 0.6573 -0.7536
vn 0.0071 0.6573 -0.7536
vn 0.0071 0.6573 -0.7536
vn 0.0071 0.6573 -0.7536
vn 0.0071 0.6573 -0.7536
vn 0.0070 0.6573 -0.7536
vn -0.0062 0.6021 0.7984
vn -0.0063 0.6020 0.7985
vn -0.0063 0.6020 0.7985
vn -0.0063 0.6020 0.7985
vn -0.0062 0.6021 0.7984
vn -0.0062 0.6021 0.7984
vn -0.7828 0.6023 0.1564
vn -0.7828 0.6023 0.1564
vn -0.7828 0.6023 0.1564
vn -0.7828 0.6023 0.1564
vn -0.7828 0.6023 0.1564
vn -0.7828 0.6023 0.1564
vn 0.7596 0.6502 -0.0137
vn 0.7596 0.6502 -0.0137
vn 0.7596 0.6502 -0.0137
vn 0.7596 0.6502 -0.0137
vn 0.7596 0.6502 -0.0137
vn 0.7596 0.6502 -0.0137
vn -0.7828 0.6023 0.1564
vn -0.7828 0.6023 0.1565
vn -0.7828 0.6023 0.1564
vn -0.7828 0.6023 0.1564
vn -0.7828 0.6023 0.1564
vn -0.7828 0.6023 0.1564
vn 0.7596 0.6502 -0.0137
vn 0.7596 0.6502 -0.0137
vn 0.7596 0.6502 -0.0137
vn 0.7596 0.6502 -0.0137
vn 0.7596 0.6502 -0.0137
vn 0.7596 0.6502 -0.0137
vn -0.5441 0.6719 -0.5025
vn -0.5441 0.6719 -0.5025
vn -0.5440 0.6719 -0.5026
vn -0.5440 0.6719 -0.5026
vn -0.5440 0.6719 -0.5026
vn -0.5441 0.6719 -0.5025
vn 0.5248 0.5808 0.6223
vn 0.5247 0.5808 0.6223
vn 0.5247 0.5808 0.6224
vn 0.5247 0.5808 0.6224
vn 0.5248 0.5808 0.6223
vn 0.5248 0.5808 0.6223
vn -0.6364 0.6557 -0.4061
vn -0.6364 0.6557 -0.4062
vn -0.6364 0.6557 -0.4061
vn -0.6364 0.6557 -0.4061
vn -0.6364 0.6557 -0.4062
vn -0.6364 0.6557 -0.4061
vn 0.6079 0.5959 0.5247
vn 0.6079 0.5959 0.5248
vn 0.6079 0.5959 0.5248
vn 0.6079 0.5959 0.5248
vn 0.6079 0.5959 0.5247
vn 0.6079 0.5959 0.5247
vn -0.7449 0.6086 -0.2732
vn -0.7449 0.6086 -0.2732
vn -0.7450 0.6085 -0.2733
vn -0.7450 0.6085 -0.2733
vn -0.7450 0.6085 -0.2733
vn -0.7449 0.6086 -0.2732
vn 0.6525 0.6601 0.3721
vn 0.6526 0.6600 0.3722
vn 0.6526 0.6600 0.3722
vn 0.6526 0.6600 0.3722
vn 0.6526 0.6601 0.3720
vn 0.6525 0.6601 0.3721
vn -0.7449 0.6086 -0.2732
vn -0.7449 0.6086 -0.2732
vn -0.7450 0.6085 -0.2733
vn -0.7450 0.6085 -0.2733
vn -0.7450 0.6085 -0.2733
vn -0.7449 0.6086 -0.2732
vn 0.6525 0.6601 0.3721
vn 0.6526 0.6600 0.3721
vn 0.6526 0.6600 0.3721
vn 0.6526 0.6600 0.3721
vn 0.6526 0.6601 0.3720
vn 0.6525 0.6601 0.3721
vn -0.2945 0.6718 -0.6797
vn -0.2945 0.6718 -0.6797
vn -0.2945 0.6718 -0.6797
vn -0.2945 0.6718 -0.6797
vn -0.2945 0.6718 -0.6797
vn -0.2945 0.6718 -0.6797
vn 0.2732 0.5823 0.7657
vn 0.2733 0.5823 0.7657
vn 0.2733 0.5823 0.7657
vn 0.2733 0.5823 0.7657
vn 0.2732 0.5823 0.7657
vn 0.2732 0.5823 0.7657
vn -0.2279 0.6749 -0.7018
vn -0.2279 0.6749 -0.7019
vn -0.2279 0.6748 -0.7019
vn -0.2279 0.6748 -0.7019
vn -0.2279 0.6748 -0.7019
vn -0.2279 0.6749 -0.7018
vn 0.2117 0.5793 0.7871
vn 0.2117 0.5793 0.7872
vn 0.2117 0.5793 0.7871
vn 0.2117 0.5793 0.7871
vn 0.2117 0.5793 0.7871
vn 0.2117 0.5793 0.7871
vn 0.3915 0.7314 -0.5584
vn 0.3915 0.7314 -0.5584
vn 0.3915 0.7314 -0.5583
vn 0.3915 0.7314 -0.5583
vn 0.3915 0.7314 -0.5583
vn 0.3915 0.7314 -0.5584
vn -0.4118 0.5416 0.7329
vn -0.4118 0.5415 0.7329
vn -0.4118 0.5415 0.7329
vn -0.4118 0.5415 0.7329
vn -0.4117 0.5416 0.7329
vn -0.4118 0.5416 0.7329
vn 0.3915 0.7314 -0.5584
vn 0.3915 0.7314 -0.5584
vn 0.3916 0.7313 -0.5584
vn 0.3916 0.7313 -0.5584
vn 0.3915 0.7314 -0.5583
vn 0.3915 0.7314 -0.5584
vn -0.4118 0.5416 0.7329
vn -0.4118 0.5415 0.7329
vn -0.4117 0.5417 0.7329
vn -0.4117 0.5417 0.7329
vn -0.4117 0.5416 0.7329
vn -0.4118 0.5416 0.7329
vn -0.1358 0.6512 -0.7467
vn -0.1358 0.6512 -0.7467
vn -0.1358 0.6512 -0.7467
vn -0.1358 0.6512 -0.7467
vn -0.1358 0.6512 -0.7467
vn -0.1358 0.6512 -0.7467
vn 0.1184 0.6111 0.7827
vn 0.1184 0.6111 0.7827
vn 0.1184 0.6111 0.7827
vn 0.1184 0.6111 0.7827
vn 0.1183 0.6111 0.7827
vn 0.1184 0.6111 0.7827
vn -0.4990 0.7176 -0.4858
vn -0.4990 0.7176 -0.4858
vn -0.4989 0.7178 -0.4857
vn -0.4989 0.7178 -0.4857
vn -0.4988 0.7178 -0.4857
vn -0.4990 0.7176 -0.4858
vn 0.5214 0.5501 0.6524
vn 0.5214 0.5501 0.6523
vn 0.5214 0.5501 0.6523
vn 0.5214 0.5501 0.6523
vn 0.5214 0.5501 0.6523
vn 0.5214 0.5501 0.6524
vn -0.7614 0.6416 0.0928
vn -0.7614 0.6416 0.0928
vn -0.7614 0.6416 0.0929
vn -0.7614 0.6416 0.0929
vn -0.7614 0.6416 0.0929
vn -0.7614 0.6416 0.0928
vn 0.7907 0.6104 0.0464
vn 0.7907 0.6104 0.0465
vn 0.7907 0.6104 0.0465
vn 0.7907 0.6104 0.0465
vn 0.7907 0.6104 0.0465
vn 0.7907 0.6104 0.0464
vn -0.4313 0.5711 0.6985
vn -0.4314 0.5710 0.6984
vn -0.4314 0.5710 0.6984
vn -0.4314 0.5710 0.6984
vn -0.4313 0.5711 0.6985
vn -0.4313 0.5711 0.6985
vn 0.4454 0.6832 -0.5787
vn 0.4454 0.6832 -0.5787
vn 0.4454 0.6832 -0.5787
vn 0.4454 0.6832 -0.5787
vn 0.4454 0.6832 -0.5787
vn 0.4454 0.6832 -0.5787
vn 0.1208 0.5764 0.8082
vn 0.1208 0.5764 0.8082
vn 0.1208 0.5764 0.8082
vn 0.1208 0.5764 0.8082
vn 0.1208 0.5764 0.8082
vn 0.1208 0.5764 0.8082
vn -0.1301 0.6782 -0.7233
vn -0.1300 0.6782 -0.7233
vn -0.1300 0.6782 -0.7233
vn -0.1300 0.6782 -0.7233
vn -0.1300 0.6782 -0.7233
vn -0.1301 0.6782 -0.7233
# 1440 vertex normals

vt 0.9727 0.7438 0.0000
vt 0.9727 0.7485 0.0000
vt 0.9570 0.7438 0.0000
vt 0.9570 0.7485 0.0000
vt 0.9570 0.7438 0.0000
vt 0.9727 0.7438 0.0000
vt 0.9727 0.7485 0.0000
vt 0.9570 0.7485 0.0000
vt 0.9648 0.7485 0.0000
vt 0.9648 0.7438 0.0000
vt 0.9648 0.7438 0.0000
vt 0.9648 0.7485 0.0000
vt 0.9687 0.7485 0.0000
vt 0.9609 0.7438 0.0000
vt 0.9687 0.7438 0.0000
vt 0.9609 0.7485 0.0000
vt 0.9609 0.7485 0.0000
vt 0.9687 0.7438 0.0000
vt 0.9609 0.7438 0.0000
vt 0.9687 0.7485 0.0000
vt 0.9727 0.7438 0.0000
vt 0.9727 0.7485 0.0000
vt 0.9570 0.7438 0.0000
vt 0.9570 0.7485 0.0000
vt 0.9570 0.7438 0.0000
vt 0.9727 0.7438 0.0000
vt 0.9727 0.7485 0.0000
vt 0.9570 0.7485 0.0000
vt 0.9648 0.7485 0.0000
vt 0.9648 0.7438 0.0000
vt 0.9648 0.7438 0.0000
vt 0.9648 0.7485 0.0000
vt 0.9687 0.7485 0.0000
vt 0.9609 0.7438 0.0000
vt 0.9687 0.7438 0.0000
vt 0.9609 0.7485 0.0000
vt 0.9609 0.7485 0.0000
vt 0.9687 0.7438 0.0000
vt 0.9609 0.7438 0.0000
vt 0.9687 0.7485 0.0000
vt 0.9980 0.6492 0.0000
vt 0.9980 0.8241 0.0000
vt 0.4619 0.6492 0.0000
vt 0.4619 0.8241 0.0000
vt 0.9980 0.6492 0.0000
vt 0.9980 0.8241 0.0000
vt 0.4619 0.8241 0.0000
vt 0.4619 0.6492 0.0000
vt 0.9980 0.6492 0.0000
vt 0.9980 0.8241 0.0000
vt 0.4619 0.6492 0.0000
vt 0.4619 0.8241 0.0000
vt 0.9980 0.6492 0.0000
vt 0.9980 0.8241 0.0000
vt 0.4619 0.8241 0.0000
vt 0.4619 0.6492 0.0000
vt 0.9980 0.6492 0.0000
vt 0.9980 0.8241 0.0000
vt 0.4619 0.6492 0.0000
vt 0.4619 0.8241 0.0000
vt 0.9980 0.6492 0.0000
vt 0.9980 0.8241 0.0000
vt 0.4619 0.8241 0.0000
vt 0.4619 0.6492 0.0000
vt 0.9980 0.6492 0.0000
vt 0.9980 0.8241 0.0000
vt 0.4619 0.6492 0.0000
vt 0.4619 0.8241 0.0000
vt 0.9980 0.6492 0.0000
vt 0.9980 0.8241 0.0000
vt 0.4619 0.8241 0.0000
vt 0.4619 0.6492 0.0000
vt 0.9980 0.6492 0.0000
vt 0.9980 0.8241 0.0000
vt 0.4619 0.6492 0.0000
vt 0.4619 0.8241 0.0000
vt 0.9980 0.6492 0.0000
vt 0.9980 0.8241 0.0000
vt 0.4619 0.8241 0.0000
vt 0.4619 0.6492 0.0000
vt 0.9980 0.6492 0.0000
vt 0.9980 0.8241 0.0000
vt 0.4619 0.6492 0.0000
vt 0.4619 0.8241 0.0000
vt 0.9980 0.6492 0.0000
vt 0.9980 0.8241 0.0000
vt 0.4619 0.8241 0.0000
vt 0.4619 0.6492 0.0000
vt 0.9980 0.6492 0.0000
vt 0.9980 0.8241 0.0000
vt 0.4619 0.6492 0.0000
vt 0.4619 0.8241 0.0000
vt 0.9980 0.6492 0.0000
vt 0.9980 0.8241 0.0000
vt 0.4619 0.8241 0.0000
vt 0.4619 0.6492 0.0000
vt 0.9980 0.6492 0.0000
vt 0.9980 0.8241 0.0000
vt 0.4619 0.6492 0.0000
vt 0.4619 0.8241 0.0000
vt 0.9980 0.6492 0.0000
vt 0.9980 0.8241 0.0000
vt 0.4619 0.8241 0.0000
vt 0.4619 0.6492 0.0000
vt 0.9980 0.6492 0.0000
vt 0.9980 0.8241 0.0000
vt 0.4619 0.6492 0.0000
vt 0.4619 0.8241 0.0000
vt 0.9980 0.6492 0.0000
vt 0.9980 0.8241 0.0000
vt 0.4619 0.8241 0.0000
vt 0.4619 0.6492 0.0000
vt 0.9980 0.6492 0.0000
vt 0.9980 0.8241 0.0000
vt 0.4619 0.6492 0.0000
vt 0.4619 0.8241 0.0000
vt 0.9980 0.6492 0.0000
vt 0.9980 0.8241 0.0000
vt 0.4619 0.8241 0.0000
vt 0.4619 0.6492 0.0000
vt 0.9980 0.6492 0.0000
vt 0.9980 0.8241 0.0000
vt 0.4619 0.6492 0.0000
vt 0.4619 0.8241 0.0000
vt 0.9980 0.6492 0.0000
vt 0.9980 0.8241 0.0000
vt 0.4619 0.8241 0.0000
vt 0.4619 0.6492 0.0000
vt 0.9980 0.6492 0.0000
vt 0.9980 0.8241 0.0000
vt 0.4619 0.6492 0.0000
vt 0.4619 0.8241 0.0000
vt 0.9980 0.6492 0.0000
vt 0.9980 0.8241 0.0000
vt 0.4619 0.8241 0.0000
vt 0.4619 0.6492 0.0000
vt 0.9980 0.8241 0.0000
vt 0.9980 0.9991 0.0000
vt 0.4619 0.8241 0.0000
vt 0.4619 0.9991 0.0000
vt 0.9980 0.8241 0.0000
vt 0.9980 0.9991 0.0000
vt 0.4619 0.9991 0.0000
vt 0.4619 0.8241 0.0000
vt 0.9980 0.8241 0.0000
vt 0.9980 0.9991 0.0000
vt 0.4619 0.8241 0.0000
vt 0.4619 0.9991 0.0000
vt 0.9980 0.8241 0.0000
vt 0.9980 0.9991 0.0000
vt 0.4619 0.9991 0.0000
vt 0.4619 0.8241 0.0000
vt 0.9980 0.8241 0.0000
vt 0.9980 0.9991 0.0000
vt 0.4619 0.8241 0.0000
vt 0.4619 0.9991 0.0000
vt 0.9980 0.8241 0.0000
vt 0.9980 0.9991 0.0000
vt 0.4619 0.9991 0.0000
vt 0.4619 0.8241 0.0000
vt 0.9980 0.8241 0.0000
vt 0.9980 0.9991 0.0000
vt 0.4619 0.8241 0.0000
vt 0.4619 0.9991 0.0000
vt 0.9980 0.8241 0.0000
vt 0.9980 0.9991 0.0000
vt 0.4619 0.9991 0.0000
vt 0.4619 0.8241 0.0000
vt 0.9727 0.7438 0.0000
vt 0.9727 0.7485 0.0000
vt 0.9570 0.7438 0.0000
vt 0.9570 0.7485 0.0000
vt 0.9570 0.7438 0.0000
vt 0.9727 0.7438 0.0000
vt 0.9727 0.7485 0.0000
vt 0.9570 0.7485 0.0000
vt 0.9648 0.7485 0.0000
vt 0.9648 0.7438 0.0000
vt 0.9648 0.7438 0.0000
vt 0.9648 0.7485 0.0000
vt 0.9687 0.7485 0.0000
vt 0.9609 0.7438 0.0000
vt 0.9687 0.7438 0.0000
vt 0.9609 0.7485 0.0000
vt 0.9609 0.7485 0.0000
vt 0.9687 0.7438 0.0000
vt 0.9609 0.7438 0.0000
vt 0.9687 0.7485 0.0000
vt 0.9727 0.7438 0.0000
vt 0.9727 0.7485 0.0000
vt 0.9570 0.7438 0.0000
vt 0.9570 0.7485 0.0000
vt 0.9570 0.7438 0.0000
vt 0.9727 0.7438 0.0000
vt 0.9727 0.7485 0.0000
vt 0.9570 0.7485 0.0000
vt 0.9648 0.7485 0.0000
vt 0.9648 0.7438 0.0000
vt 0.9648 0.7438 0.0000
vt 0.9648 0.7485 0.0000
vt 0.9687 0.7485 0.0000
vt 0.9609 0.7438 0.0000
vt 0.9687 0.7438 0.0000
vt 0.9609 0.7485 0.0000
vt 0.9609 0.7485 0.0000
vt 0.9687 0.7438 0.0000
vt 0.9609 0.7438 0.0000
vt 0.9687 0.7485 0.0000
vt 0.9980 0.6492 0.0000
vt 0.9980 0.8241 0.0000
vt 0.4619 0.6492 0.0000
vt 0.4619 0.8241 0.0000
vt 0.9980 0.6492 0.0000
vt 0.9980 0.8241 0.0000
vt 0.4619 0.8241 0.0000
vt 0.4619 0.6492 0.0000
vt 0.9980 0.6492 0.0000
vt 0.9980 0.8241 0.0000
vt 0.4619 0.6492 0.0000
vt 0.4619 0.8241 0.0000
vt 0.9980 0.6492 0.0000
vt 0.9980 0.8241 0.0000
vt 0.4619 0.8241 0.0000
vt 0.4619 0.6492 0.0000
vt 0.9980 0.6492 0.0000
vt 0.9980 0.8241 0.0000
vt 0.4619 0.6492 0.0000
vt 0.4619 0.8241 0.0000
vt 0.9980 0.6492 0.0000
vt 0.9980 0.8241 0.0000
vt 0.4619 0.8241 0.0000
vt 0.4619 0.6492 0.0000
vt 0.9980 0.6492 0.0000
vt 0.9980 0.8241 0.0000
vt 0.4619 0.6492 0.0000
vt 0.4619 0.8241 0.0000
vt 0.9980 0.6492 0.0000
vt 0.9980 0.8241 0.0000
vt 0.4619 0.8241 0.0000
vt 0.4619 0.6492 0.0000
vt 0.9980 0.6492 0.0000
vt 0.9980 0.8241 0.0000
vt 0.4619 0.6492 0.0000
vt 0.4619 0.8241 0.0000
vt 0.9980 0.6492 0.0000
vt 0.9980 0.8241 0.0000
vt 0.4619 0.8241 0.0000
vt 0.4619 0.6492 0.0000
vt 0.9980 0.6492 0.0000
vt 0.9980 0.8241 0.0000
vt 0.4619 0.6492 0.0000
vt 0.4619 0.8241 0.0000
vt 0.9980 0.6492 0.0000
vt 0.9980 0.8241 0.0000
vt 0.4619 0.8241 0.0000
vt 0.4619 0.6492 0.0000
vt 0.9980 0.6492 0.0000
vt 0.9980 0.8241 0.0000
vt 0.4619 0.6492 0.0000
vt 0.4619 0.8241 0.0000
vt 0.9980 0.6492 0.0000
vt 0.9980 0.8241 0.0000
vt 0.4619 0.8241 0.0000
vt 0.4619 0.6492 0.0000
vt 0.9980 0.6492 0.0000
vt 0.9980 0.8241 0.0000
vt 0.4619 0.6492 0.0000
vt 0.4619 0.8241 0.0000
vt 0.9980 0.6492 0.0000
vt 0.9980 0.8241 0.0000
vt 0.4619 0.8241 0.0000
vt 0.4619 0.6492 0.0000
vt 0.9980 0.6492 0.0000
vt 0.9980 0.8241 0.0000
vt 0.4619 0.6492 0.0000
vt 0.4619 0.8241 0.0000
vt 0.9980 0.6492 0.0000
vt 0.9980 0.8241 0.0000
vt 0.4619 0.8241 0.0000
vt 0.4619 0.6492 0.0000
vt 0.9980 0.6492 0.0000
vt 0.9980 0.8241 0.0000
vt 0.4619 0.6492 0.0000
vt 0.4619 0.8241 0.0000
vt 0.9980 0.6492 0.0000
vt 0.9980 0.8241 0.0000
vt 0.4619 0.8241 0.0000
vt 0.4619 0.6492 0.0000
vt 0.9980 0.6492 0.0000
vt 0.9980 0.8241 0.0000
vt 0.4619 0.6492 0.0000
vt 0.4619 0.8241 0.0000
vt 0.9980 0.6492 0.0000
vt 0.9980 0.8241 0.0000
vt 0.4619 0.8241 0.0000
vt 0.4619 0.6492 0.0000
vt 0.9980 0.6492 0.0000
vt 0.9980 0.8241 0.0000
vt 0.4619 0.6492 0.0000
vt 0.4619 0.8241 0.0000
vt 0.9980 0.6492 0.0000
vt 0.9980 0.8241 0.0000
vt 0.4619 0.8241 0.0000
vt 0.4619 0.6492 0.0000
vt 0.9980 0.8241 0.0000
vt 0.9980 0.9991 0.0000
vt 0.4619 0.8241 0.0000
vt 0.4619 0.9991 0.0000
vt 0.9980 0.8241 0.0000
vt 0.9980 0.9991 0.0000
vt 0.4619 0.9991 0.0000
vt 0.4619 0.8241 0.0000
vt 0.9980 0.8241 0.0000
vt 0.9980 0.9991 0.0000
vt 0.4619 0.8241 0.0000
vt 0.4619 0.9991 0.0000
vt 0.9980 0.8241 0.0000
vt 0.9980 0.9991 0.0000
vt 0.4619 0.9991 0.0000
vt 0.4619 0.8241 0.0000
vt 0.9980 0.8241 0.0000
vt 0.9980 0.9991 0.0000
vt 0.4619 0.8241 0.0000
vt 0.4619 0.9991 0.0000
vt 0.9980 0.8241 0.0000
vt 0.9980 0.9991 0.0000
vt 0.4619 0.9991 0.0000
vt 0.4619 0.8241 0.0000
vt 0.9980 0.8241 0.0000
vt 0.9980 0.9991 0.0000
vt 0.4619 0.8241 0.0000
vt 0.4619 0.9991 0.0000
vt 0.9980 0.8241 0.0000
vt 0.9980 0.9991 0.0000
vt 0.4619 0.9991 0.0000
vt 0.4619 0.8241 0.0000
vt 0.9727 0.7438 0.0000
vt 0.9727 0.7485 0.0000
vt 0.9570 0.7438 0.0000
vt 0.9570 0.7485 0.0000
vt 0.9570 0.7438 0.0000
vt 0.9727 0.7438 0.0000
vt 0.9727 0.7485 0.0000
vt 0.9570 0.7485 0.0000
vt 0.9648 0.7485 0.0000
vt 0.9648 0.7438 0.0000
vt 0.9648 0.7438 0.0000
vt 0.9648 0.7485 0.0000
vt 0.9687 0.7485 0.0000
vt 0.9609 0.7438 0.0000
vt 0.9687 0.7438 0.0000
vt 0.9609 0.7485 0.0000
vt 0.9609 0.7485 0.0000
vt 0.9687 0.7438 0.0000
vt 0.9609 0.7438 0.0000
vt 0.9687 0.7485 0.0000
vt 0.9727 0.7438 0.0000
vt 0.9727 0.7485 0.0000
vt 0.9570 0.7438 0.0000
vt 0.9570 0.7485 0.0000
vt 0.9570 0.7438 0.0000
vt 0.9727 0.7438 0.0000
vt 0.9727 0.7485 0.0000
vt 0.9570 0.7485 0.0000
vt 0.9648 0.7485 0.0000
vt 0.9648 0.7438 0.0000
vt 0.9648 0.7438 0.0000
vt 0.9648 0.7485 0.0000
vt 0.9687 0.7485 0.0000
vt 0.9609 0.7438 0.0000
vt 0.9687 0.7438 0.0000
vt 0.9609 0.7485 0.0000
vt 0.9609 0.7485 0.0000
vt 0.9687 0.7438 0.0000
vt 0.9609 0.7438 0.0000
vt 0.9687 0.7485 0.0000
vt 0.9980 0.6492 0.0000
vt 0.9980 0.8241 0.0000
vt 0.4619 0.6492 0.0000
vt 0.4619 0.8241 0.0000
vt 0.9980 0.6492 0.0000
vt 0.9980 0.8241 0.0000
vt 0.4619 0.8241 0.0000
vt 0.4619 0.6492 0.0000
vt 0.9980 0.6492 0.0000
vt 0.9980 0.8241 0.0000
vt 0.4619 0.6492 0.0000
vt 0.4619 0.8241 0.0000
vt 0.9980 0.6492 0.0000
vt 0.9980 0.8241 0.0000
vt 0.4619 0.8241 0.0000
vt 0.4619 0.6492 0.0000
vt 0.9980 0.6492 0.0000
vt 0.9980 0.8241 0.0000
vt 0.4619 0.6492 0.0000
vt 0.4619 0.8241 0.0000
vt 0.9980 0.6492 0.0000
vt 0.9980 0.8241 0.0000
vt 0.4619 0.8241 0.0000
vt 0.4619 0.6492 0.0000
vt 0.9980 0.6492 0.0000
vt 0.9980 0.8241 0.0000
vt 0.4619 0.6492 0.0000
vt 0.4619 0.8241 0.0000
vt 0.9980 0.6492 0.0000
vt 0.9980 0.8241 0.0000
vt 0.4619 0.8241 0.0000
vt 0.4619 0.6492 0.0000
vt 0.9980 0.6492 0.0000
vt 0.9980 0.8241 0.0000
vt 0.4619 0.6492 0.0000
vt 0.4619 0.8241 0.0000
vt 0.9980 0.6492 0.0000
vt 0.9980 0.8241 0.0000
vt 0.4619 0.8241 0.0000
vt 0.4619 0.6492 0.0000
vt 0.9980 0.6492 0.0000
vt 0.9980 0.8241 0.0000
vt 0.4619 0.6492 0.0000
vt 0.4619 0.8241 0.0000
vt 0.9980 0.6492 0.0000
vt 0.9980 0.8241 0.0000
vt 0.4619 0.8241 0.0000
vt 0.4619 0.6492 0.0000
vt 0.9980 0.6492 0.0000
vt 0.9980 0.8241 0.0000
vt 0.4619 0.6492 0.0000
vt 0.4619 0.8241 0.0000
vt 0.9980 0.6492 0.0000
vt 0.9980 0.8241 0.0000
vt 0.4619 0.8241 0.0000
vt 0.4619 0.6492 0.0000
vt 0.9980 0.6492 0.0000
vt 0.9980 0.8241 0.0000
vt 0.4619 0.6492 0.0000
vt 0.4619 0.8241 0.0000
vt 0.9980 0.6492 0.0000
vt 0.9980 0.8241 0.0000
vt 0.4619 0.8241 0.0000
vt 0.4619 0.6492 0.0000
vt 0.9980 0.6492 0.0000
vt 0.9980 0.8241 0.0000
vt 0.4619 0.6492 0.0000
vt 0.4619 0.8241 0.0000
vt 0.9980 0.6492 0.0000
vt 0.9980 0.8241 0.0000
vt 0.4619 0.8241 0.0000
vt 0.4619 0.6492 0.0000
vt 0.9980 0.6492 0.0000
vt 0.9980 0.8241 0.0000
vt 0.4619 0.6492 0.0000
vt 0.4619 0.8241 0.0000
vt 0.9980 0.6492 0.0000
vt 0.9980 0.8241 0.0000
vt 0.4619 0.8241 0.0000
vt 0.4619 0.6492 0.0000
vt 0.9980 0.6492 0.0000
vt 0.9980 0.8241 0.0000
vt 0.4619 0.6492 0.0000
vt 0.4619 0.8241 0.0000
vt 0.9980 0.6492 0.0000
vt 0.9980 0.8241 0.0000
vt 0.4619 0.8241 0.0000
vt 0.4619 0.6492 0.0000
vt 0.9980 0.6492 0.0000
vt 0.9980 0.8241 0.0000
vt 0.4619 0.6492 0.0000
vt 0.4619 0.8241 0.0000
vt 0.9980 0.6492 0.0000
vt 0.9980 0.8241 0.0000
vt 0.4619 0.8241 0.0000
vt 0.4619 0.6492 0.0000
vt 0.9980 0.8241 0.0000
vt 0.9980 0.9991 0.0000
vt 0.4619 0.8241 0.0000
vt 0.4619 0.9991 0.0000
vt 0.9980 0.8241 0.0000
vt 0.9980 0.9991 0.0000
vt 0.4619 0.9991 0.0000
vt 0.4619 0.8241 0.0000
vt 0.9980 0.8241 0.0000
vt 0.9980 0.9991 0.0000
vt 0.4619 0.8241 0.0000
vt 0.4619 0.9991 0.0000
vt 0.9980 0.8241 0.0000
vt 0.9980 0.9991 0.0000
vt 0.4619 0.9991 0.0000
vt 0.4619 0.8241 0.0000
vt 0.9980 0.8241 0.0000
vt 0.9980 0.9991 0.0000
vt 0.4619 0.8241 0.0000
vt 0.4619 0.9991 0.0000
vt 0.9980 0.8241 0.0000
vt 0.9980 0.9991 0.0000
vt 0.4619 0.9991 0.0000
vt 0.4619 0.8241 0.0000
vt 0.9980 0.8241 0.0000
vt 0.9980 0.9991 0.0000
vt 0.4619 0.8241 0.0000
vt 0.4619 0.9991 0.0000
vt 0.9980 0.8241 0.0000
vt 0.9980 0.9991 0.0000
vt 0.4619 0.9991 0.0000
vt 0.4619 0.8241 0.0000
vt 0.9727 0.7438 0.0000
vt 0.9727 0.7485 0.0000
vt 0.9570 0.7438 0.0000
vt 0.9570 0.7485 0.0000
vt 0.9570 0.7438 0.0000
vt 0.9727 0.7438 0.0000
vt 0.9727 0.7485 0.0000
vt 0.9570 0.7485 0.0000
vt 0.9648 0.7485 0.0000
vt 0.9648 0.7438 0.0000
vt 0.9648 0.7438 0.0000
vt 0.9648 0.7485 0.0000
vt 0.9687 0.7485 0.0000
vt 0.9609 0.7438 0.0000
vt 0.9687 0.7438 0.0000
vt 0.9609 0.7485 0.0000
vt 0.9609 0.7485 0.0000
vt 0.9687 0.7438 0.0000
vt 0.9609 0.7438 0.0000
vt 0.9687 0.7485 0.0000
vt 0.9727 0.7438 0.0000
vt 0.9727 0.7485 0.0000
vt 0.9570 0.7438 0.0000
vt 0.9570 0.7485 0.0000
vt 0.9570 0.7438 0.0000
vt 0.9727 0.7438 0.0000
vt 0.9727 0.7485 0.0000
vt 0.9570 0.7485 0.0000
vt 0.9648 0.7485 0.0000
vt 0.9648 0.7438 0.0000
vt 0.9648 0.7438 0.0000
vt 0.9648 0.7485 0.0000
vt 0.9687 0.7485 0.0000
vt 0.9609 0.7438 0.0000
vt 0.9687 0.7438 0.0000
vt 0.9609 0.7485 0.0000
vt 0.9609 0.7485 0.0000
vt 0.9687 0.7438 0.0000
vt 0.9609 0.7438 0.0000
vt 0.9687 0.7485 0.0000
vt 0.9980 0.6492 0.0000
vt 0.9980 0.8241 0.0000
vt 0.4619 0.6492 0.0000
vt 0.4619 0.8241 0.0000
vt 0.9980 0.6492 0.0000
vt 0.9980 0.8241 0.0000
vt 0.4619 0.8241 0.0000
vt 0.4619 0.6492 0.0000
vt 0.9980 0.6492 0.0000
vt 0.9980 0.8241 0.0000
vt 0.4619 0.6492 0.0000
vt 0.4619 0.8241 0.0000
vt 0.9980 0.6492 0.0000
vt 0.9980 0.8241 0.0000
vt 0.4619 0.8241 0.0000
vt 0.4619 0.6492 0.0000
vt 0.9980 0.6492 0.0000
vt 0.9980 0.8241 0.0000
vt 0.4619 0.6492 0.0000
vt 0.4619 0.8241 0.0000
vt 0.9980 0.6492 0.0000
vt 0.9980 0.8241 0.0000
vt 0.4619 0.8241 0.0000
vt 0.4619 0.6492 0.0000
vt 0.9980 0.6492 0.0000
vt 0.9980 0.8241 0.0000
vt 0.4619 0.6492 0.0000
vt 0.4619 0.8241 0.0000
vt 0.9980 0.6492 0.0000
vt 0.9980 0.8241 0.0000
vt 0.4619 0.8241 0.0000
vt 0.4619 0.6492 0.0000
vt 0.9980 0.6492 0.0000
vt 0.9980 0.8241 0.0000
vt 0.4619 0.6492 0.0000
vt 0.4619 0.8241 0.0000
vt 0.9980 0.6492 0.0000
vt 0.9980 0.8241 0.0000
vt 0.4619 0.8241 0.0000
vt 0.4619 0.6492 0.0000
vt 0.9980 0.6492 0.0000
vt 0.9980 0.8241 0.0000
vt 0.4619 0.6492 0.0000
vt 0.4619 0.8241 0.0000
vt 0.9980 0.6492 0.0000
vt 0.9980 0.8241 0.0000
vt 0.4619 0.8241 0.0000
vt 0.4619 0.6492 0.0000
vt 0.9980 0.6492 0.0000
vt 0.9980 0.8241 0.0000
vt 0.4619 0.6492 0.0000
vt 0.4619 0.8241 0.0000
vt 0.9980 0.6492 0.0000
vt 0.9980 0.8241 0.0000
vt 0.4619 0.8241 0.0000
vt 0.4619 0.6492 0.0000
vt 0.9980 0.6492 0.0000
vt 0.9980 0.8241 0.0000
vt 0.4619 0.6492 0.0000
vt 0.4619 0.8241 0.0000
vt 0.9980 0.6492 0.0000
vt 0.9980 0.8241 0.0000
vt 0.4619 0.8241 0.0000
vt 0.4619 0.6492 0.0000
vt 0.9980 0.6492 0.0000
vt 0.9980 0.8241 0.0000
vt 0.4619 0.6492 0.0000
vt 0.4619 0.8241 0.0000
vt 0.9980 0.6492 0.0000
vt 0.9980 0.8241 0.0000
vt 0.4619 0.8241 0.0000
vt 0.4619 0.6492 0.0000
vt 0.9980 0.6492 0.0000
vt 0.9980 0.8241 0.0000
vt 0.4619 0.6492 0.0000
vt 0.4619 0.8241 0.0000
vt 0.9980 0.6492 0.0000
vt 0.9980 0.8241 0.0000
vt 0.4619 0.8241 0.0000
vt 0.4619 0.6492 0.0000
vt 0.9980 0.6492 0.0000
vt 0.9980 0.8241 0.0000
vt 0.4619 0.6492 0.0000
vt 0.4619 0.8241 0.0000
vt 0.9980 0.6492 0.0000
vt 0.9980 0.8241 0.0000
vt 0.4619 0.8241 0.0000
vt 0.4619 0.6492 0.0000
vt 0.9980 0.6492 0.0000
vt 0.9980 0.8241 0.0000
vt 0.4619 0.6492 0.0000
vt 0.4619 0.8241 0.0000
vt 0.9980 0.6492 0.0000
vt 0.9980 0.8241 0.0000
vt 0.4619 0.8241 0.0000
vt 0.4619 0.6492 0.0000
vt 0.9980 0.8241 0.0000
vt 0.9980 0.9991 0.0000
vt 0.4619 0.8241 0.0000
vt 0.4619 0.9991 0.0000
vt 0.9980 0.8241 0.0000
vt 0.9980 0.9991 0.0000
vt 0.4619 0.9991 0.0000
vt 0.4619 0.8241 0.0000
vt 0.9980 0.8241 0.0000
vt 0.9980 0.9991 0.0000
vt 0.4619 0.8241 0.0000
vt 0.4619 0.9991 0.0000
vt 0.9980 0.8241 0.0000
vt 0.9980 0.9991 0.0000
vt 0.4619 0.9991 0.0000
vt 0.4619 0.8241 0.0000
vt 0.9980 0.8241 0.0000
vt 0.9980 0.9991 0.0000
vt 0.4619 0.8241 0.0000
vt 0.4619 0.9991 0.0000
vt 0.9980 0.8241 0.0000
vt 0.9980 0.9991 0.0000
vt 0.4619 0.9991 0.0000
vt 0.4619 0.8241 0.0000
vt 0.9980 0.8241 0.0000
vt 0.9980 0.9991 0.0000
vt 0.4619 0.8241 0.0000
vt 0.4619 0.9991 0.0000
vt 0.9980 0.8241 0.0000
vt 0.9980 0.9991 0.0000
vt 0.4619 0.9991 0.0000
vt 0.4619 0.8241 0.0000
vt 0.9727 0.7438 0.0000
vt 0.9727 0.7485 0.0000
vt 0.9570 0.7438 0.0000
vt 0.9570 0.7485 0.0000
vt 0.9570 0.7438 0.0000
vt 0.9727 0.7438 0.0000
vt 0.9727 0.7485 0.0000
vt 0.9570 0.7485 0.0000
vt 0.9648 0.7485 0.0000
vt 0.9648 0.7438 0.0000
vt 0.9648 0.7438 0.0000
vt 0.9648 0.7485 0.0000
vt 0.9687 0.7485 0.0000
vt 0.9609 0.7438 0.0000
vt 0.9687 0.7438 0.0000
vt 0.9609 0.7485 0.0000
vt 0.9609 0.7485 0.0000
vt 0.9687 0.7438 0.0000
vt 0.9609 0.7438 0.0000
vt 0.9687 0.7485 0.0000
vt 0.9727 0.7438 0.0000
vt 0.9727 0.7485 0.0000
vt 0.9570 0.7438 0.0000
vt 0.9570 0.7485 0.0000
vt 0.9570 0.7438 0.0000
vt 0.9727 0.7438 0.0000
vt 0.9727 0.7485 0.0000
vt 0.9570 0.7485 0.0000
vt 0.9648 0.7485 0.0000
vt 0.9648 0.7438 0.0000
vt 0.9648 0.7438 0.0000
vt 0.9648 0.7485 0.0000
vt 0.9687 0.7485 0.0000
vt 0.9609 0.7438 0.0000
vt 0.9687 0.7438 0.0000
vt 0.9609 0.7485 0.0000
vt 0.9609 0.7485 0.0000
vt 0.9687 0.7438 0.0000
vt 0.9609 0.7438 0.0000
vt 0.9687 0.7485 0.0000
vt 0.9980 0.6492 0.0000
vt 0.9980 0.8241 0.0000
vt 0.4619 0.6492 0.0000
vt 0.4619 0.8241 0.0000
vt 0.9980 0.6492 0.0000
vt 0.9980 0.8241 0.0000
vt 0.4619 0.8241 0.0000
vt 0.4619 0.6492 0.0000
vt 0.9980 0.6492 0.0000
vt 0.9980 0.8241 0.0000
vt 0.4619 0.6492 0.0000
vt 0.4619 0.8241 0.0000
vt 0.9980 0.6492 0.0000
vt 0.9980 0.8241 0.0000
vt 0.4619 0.8241 0.0000
vt 0.4619 0.6492 0.0000
vt 0.9980 0.6492 0.0000
vt 0.9980 0.8241 0.0000
vt 0.4619 0.6492 0.0000
vt 0.4619 0.8241 0.0000
vt 0.9980 0.6492 0.0000
vt 0.9980 0.8241 0.0000
vt 0.4619 0.8241 0.0000
vt 0.4619 0.6492 0.0000
vt 0.9980 0.6492 0.0000
vt 0.9980 0.8241 0.0000
vt 0.4619 0.6492 0.0000
vt 0.4619 0.8241 0.0000
vt 0.9980 0.6492 0.0000
vt 0.9980 0.8241 0.0000
vt 0.4619 0.8241 0.0000
vt 0.4619 0.6492 0.0000
vt 0.9980 0.6492 0.0000
vt 0.9980 0.8241 0.0000
vt 0.4619 0.6492 0.0000
vt 0.4619 0.8241 0.0000
vt 0.9980 0.6492 0.0000
vt 0.9980 0.8241 0.0000
vt 0.4619 0.8241 0.0000
vt 0.4619 0.6492 0.0000
vt 0.9980 0.6492 0.0000
vt 0.9980 0.8241 0.0000
vt 0.4619 0.6492 0.0000
vt 0.4619 0.8241 0.0000
vt 0.9980 0.6492 0.0000
vt 0.9980 0.8241 0.0000
vt 0.4619 0.8241 0.0000
vt 0.4619 0.6492 0.0000
vt 0.9980 0.6492 0.0000
vt 0.9980 0.8241 0.0000
vt 0.4619 0.6492 0.0000
vt 0.4619 0.8241 0.0000
vt 0.9980 0.6492 0.0000
vt 0.9980 0.8241 0.0000
vt 0.4619 0.8241 0.0000
vt 0.4619 0.6492 0.0000
vt 0.9980 0.6492 0.0000
vt 0.9980 0.8241 0.0000
vt 0.4619 0.6492 0.0000
vt 0.4619 0.8241 0.0000
vt 0.9980 0.6492 0.0000
vt 0.9980 0.8241 0.0000
vt 0.4619 0.8241 0.0000
vt 0.4619 0.6492 0.0000
vt 0.9980 0.6492 0.0000
vt 0.9980 0.8241 0.0000
vt 0.4619 0.6492 0.0000
vt 0.4619 0.8241 0.0000
vt 0.9980 0.6492 0.0000
vt 0.9980 0.8241 0.0000
vt 0.4619 0.8241 0.0000
vt 0.4619 0.6492 0.0000
vt 0.9980 0.6492 0.0000
vt 0.9980 0.8241 0.0000
vt 0.4619 0.6492 0.0000
vt 0.4619 0.8241 0.0000
vt 0.9980 0.6492 0.0000
vt 0.9980 0.8241 0.0000
vt 0.4619 0.8241 0.0000
vt 0.4619 0.6492 0.0000
vt 0.9980 0.6492 0.0000
vt 0.9980 0.8241 0.0000
vt 0.4619 0.6492 0.0000
vt 0.4619 0.8241 0.0000
vt 0.9980 0.6492 0.0000
vt 0.9980 0.8241 0.0000
vt 0.4619 0.8241 0.0000
vt 0.4619 0.6492 0.0000
vt 0.9980 0.6492 0.0000
vt 0.9980 0.8241 0.0000
vt 0.4619 0.6492 0.0000
vt 0.4619 0.8241 0.0000
vt 0.9980 0.6492 0.0000
vt 0.9980 0.8241 0.0000
vt 0.4619 0.8241 0.0000
vt 0.4619 0.6492 0.0000
vt 0.9980 0.8241 0.0000
vt 0.9980 0.9991 0.0000
vt 0.4619 0.8241 0.0000
vt 0.4619 0.9991 0.0000
vt 0.9980 0.8241 0.0000
vt 0.9980 0.9991 0.0000
vt 0.4619 0.9991 0.0000
vt 0.4619 0.8241 0.0000
vt 0.9980 0.8241 0.0000
vt 0.9980 0.9991 0.0000
vt 0.4619 0.8241 0.0000
vt 0.4619 0.9991 0.0000
vt 0.9980 0.8241 0.0000
vt 0.9980 0.9991 0.0000
vt 0.4619 0.9991 0.0000
vt 0.4619 0.8241 0.0000
vt 0.9980 0.8241 0.0000
vt 0.9980 0.9991 0.0000
vt 0.4619 0.8241 0.0000
vt 0.4619 0.9991 0.0000
vt 0.9980 0.8241 0.0000
vt 0.9980 0.9991 0.0000
vt 0.4619 0.9991 0.0000
vt 0.4619 0.8241 0.0000
vt 0.9980 0.8241 0.0000
vt 0.9980 0.9991 0.0000
vt 0.4619 0.8241 0.0000
vt 0.4619 0.9991 0.0000
vt 0.9980 0.8241 0.0000
vt 0.9980 0.9991 0.0000
vt 0.4619 0.9991 0.0000
vt 0.4619 0.8241 0.0000
# 840 texture coords

o GorseStage04
g GorseStage04
s 1
f 14/14/1 17/17/2 4/4/3 
f 4/4/4 3/3/5 14/14/6 
f 8/8/7 16/16/8 19/19/9 
f 19/19/10 5/5/11 8/8/12 
f 18/18/13 13/13/14 9/9/15 
f 9/9/16 10/10/17 18/18/18 
f 20/20/19 15/15/20 11/11/21 
f 11/11/22 12/12/23 20/20/24 
f 10/10/25 9/9/26 17/17/27 
f 17/17/28 14/14/29 10/10/30 
f 12/12/31 11/11/32 19/19/33 
f 19/19/34 16/16/35 12/12/36 
f 1/1/37 2/2/38 13/13/39 
f 13/13/40 18/18/41 1/1/42 
f 7/7/43 6/6/44 15/15/45 
f 15/15/46 20/20/47 7/7/48 
f 34/34/49 37/37/50 24/24/51 
f 24/24/52 23/23/53 34/34/54 
f 28/28/55 36/36/56 39/39/57 
f 39/39/58 25/25/59 28/28/60 
f 38/38/61 33/33/62 29/29/63 
f 29/29/64 30/30/65 38/38/66 
f 40/40/67 35/35/68 31/31/69 
f 31/31/70 32/32/71 40/40/72 
f 30/30/73 29/29/74 37/37/75 
f 37/37/76 34/34/77 30/30/78 
f 32/32/79 31/31/80 39/39/81 
f 39/39/82 36/36/83 32/32/84 
f 21/21/85 22/22/86 33/33/87 
f 33/33/88 38/38/89 21/21/90 
f 27/27/91 26/26/92 35/35/93 
f 35/35/94 40/40/95 27/27/96 
f 41/41/97 42/42/98 44/44/99 
f 44/44/100 43/43/101 41/41/102 
f 45/45/103 48/48/104 47/47/105 
f 47/47/106 46/46/107 45/45/108 
f 49/49/109 50/50/110 52/52/111 
f 52/52/112 51/51/113 49/49/114 
f 53/53/115 56/56/116 55/55/117 
f 55/55/118 54/54/119 53/53/120 
f 57/57/121 58/58/122 60/60/123 
f 60/60/124 59/59/125 57/57/126 
f 61/61/127 64/64/128 63/63/129 
f 63/63/130 62/62/131 61/61/132 
f 65/65/133 66/66/134 68/68/135 
f 68/68/136 67/67/137 65/65/138 
f 69/69/139 72/72/140 71/71/141 
f 71/71/142 70/70/143 69/69/144 
f 73/73/145 74/74/146 76/76/147 
f 76/76/148 75/75/149 73/73/150 
f 77/77/151 80/80/152 79/79/153 
f 79/79/154 78/78/155 77/77/156 
f 81/81/157 82/82/158 84/84/159 
f 84/84/160 83/83/161 81/81/162 
f 85/85/163 88/88/164 87/87/165 
f 87/87/166 86/86/167 85/85/168 
f 89/89/169 90/90/170 92/92/171 
f 92/92/172 91/91/173 89/89/174 
f 93/93/175 96/96/176 95/95/177 
f 95/95/178 94/94/179 93/93/180 
f 97/97/181 98/98/182 100/100/183 
f 100/100/184 99/99/185 97/97/186 
f 101/101/187 104/104/188 103/103/189 
f 103/103/190 102/102/191 101/101/192 
f 105/105/193 106/106/194 108/108/195 
f 108/108/196 107/107/197 105/105/198 
f 109/109/199 112/112/200 111/111/201 
f 111/111/202 110/110/203 109/109/204 
f 113/113/205 114/114/206 116/116/207 
f 116/116/208 115/115/209 113/113/210 
f 117/117/211 120/120/212 119/119/213 
f 119/119/214 118/118/215 117/117/216 
f 121/121/217 122/122/218 124/124/219 
f 124/124/220 123/123/221 121/121/222 
f 125/125/223 128/128/224 127/127/225 
f 127/127/226 126/126/227 125/125/228 
f 129/129/229 130/130/230 132/132/231 
f 132/132/232 131/131/233 129/129/234 
f 133/133/235 136/136/236 135/135/237 
f 135/135/238 134/134/239 133/133/240 
f 137/137/241 138/138/242 140/140/243 
f 140/140/244 139/139/245 137/137/246 
f 141/141/247 144/144/248 143/143/249 
f 143/143/250 142/142/251 141/141/252 
f 145/145/253 146/146/254 148/148/255 
f 148/148/256 147/147/257 145/145/258 
f 149/149/259 152/152/260 151/151/261 
f 151/151/262 150/150/263 149/149/264 
f 153/153/265 154/154/266 156/156/267 
f 156/156/268 155/155/269 153/153/270 
f 157/157/271 160/160/272 159/159/273 
f 159/159/274 158/158/275 157/157/276 
f 161/161/277 162/162/278 164/164/279 
f 164/164/280 163/163/281 161/161/282 
f 165/165/283 168/168/284 167/167/285 
f 167/167/286 166/166/287 165/165/288 
f 182/182/289 185/185/290 172/172/291 
f 172/172/292 171/171/293 182/182/294 
f 176/176/295 184/184/296 187/187/297 
f 187/187/298 173/173/299 176/176/300 
f 186/186/301 181/181/302 177/177/303 
f 177/177/304 178/178/305 186/186/306 
f 188/188/307 183/183/308 179/179/309 
f 179/179/310 180/180/311 188/188/312 
f 178/178/313 177/177/314 185/185/315 
f 185/185/316 182/182/317 178/178/318 
f 180/180/319 179/179/320 187/187/321 
f 187/187/322 184/184/323 180/180/324 
f 169/169/325 170/170/326 181/181/327 
f 181/181/328 186/186/329 169/169/330 
f 175/175/331 174/174/332 183/183/333 
f 183/183/334 188/188/335 175/175/336 
f 202/202/337 205/205/338 192/192/339 
f 192/192/340 191/191/341 202/202/342 
f 196/196/343 204/204/344 207/207/345 
f 207/207/346 193/193/347 196/196/348 
f 206/206/349 201/201/350 197/197/351 
f 197/197/352 198/198/353 206/206/354 
f 208/208/355 203/203/356 199/199/357 
f 199/199/358 200/200/359 208/208/360 
f 198/198/361 197/197/362 205/205/363 
f 205/205/364 202/202/365 198/198/366 
f 200/200/367 199/199/368 207/207/369 
f 207/207/370 204/204/371 200/200/372 
f 189/189/373 190/190/374 201/201/375 
f 201/201/376 206/206/377 189/189/378 
f 195/195/379 194/194/380 203/203/381 
f 203/203/382 208/208/383 195/195/384 
f 209/209/385 210/210/386 212/212/387 
f 212/212/388 211/211/389 209/209/390 
f 213/213/391 216/216/392 215/215/393 
f 215/215/394 214/214/395 213/213/396 
f 217/217/397 218/218/398 220/220/399 
f 220/220/400 219/219/401 217/217/402 
f 221/221/403 224/224/404 223/223/405 
f 223/223/406 222/222/407 221/221/408 
f 225/225/409 226/226/410 228/228/411 
f 228/228/412 227/227/413 225/225/414 
f 229/229/415 232/232/416 231/231/417 
f 231/231/418 230/230/419 229/229/420 
f 233/233/421 234/234/422 236/236/423 
f 236/236/424 235/235/425 233/233/426 
f 237/237/427 240/240/428 239/239/429 
f 239/239/430 238/238/431 237/237/432 
f 241/241/433 242/242/434 244/244/435 
f 244/244/436 243/243/437 241/241/438 
f 245/245/439 248/248/440 247/247/441 
f 247/247/442 246/246/443 245/245/444 
f 249/249/445 250/250/446 252/252/447 
f 252/252/448 251/251/449 249/249/450 
f 253/253/451 256/256/452 255/255/453 
f 255/255/454 254/254/455 253/253/456 
f 257/257/457 258/258/458 260/260/459 
f 260/260/460 259/259/461 257/257/462 
f 261/261/463 264/264/464 263/263/465 
f 263/263/466 262/262/467 261/261/468 
f 265/265/469 266/266/470 268/268/471 
f 268/268/472 267/267/473 265/265/474 
f 269/269/475 272/272/476 271/271/477 
f 271/271/478 270/270/479 269/269/480 
f 273/273/481 274/274/482 276/276/483 
f 276/276/484 275/275/485 273/273/486 
f 277/277/487 280/280/488 279/279/489 
f 279/279/490 278/278/491 277/277/492 
f 281/281/493 282/282/494 284/284/495 
f 284/284/496 283/283/497 281/281/498 
f 285/285/499 288/288/500 287/287/501 
f 287/287/502 286/286/503 285/285/504 
f 289/289/505 290/290/506 292/292/507 
f 292/292/508 291/291/509 289/289/510 
f 293/293/511 296/296/512 295/295/513 
f 295/295/514 294/294/515 293/293/516 
f 297/297/517 298/298/518 300/300/519 
f 300/300/520 299/299/521 297/297/522 
f 301/301/523 304/304/524 303/303/525 
f 303/303/526 302/302/527 301/301/528 
f 305/305/529 306/306/530 308/308/531 
f 308/308/532 307/307/533 305/305/534 
f 309/309/535 312/312/536 311/311/537 
f 311/311/538 310/310/539 309/309/540 
f 313/313/541 314/314/542 316/316/543 
f 316/316/544 315/315/545 313/313/546 
f 317/317/547 320/320/548 319/319/549 
f 319/319/550 318/318/551 317/317/552 
f 321/321/553 322/322/554 324/324/555 
f 324/324/556 323/323/557 321/321/558 
f 325/325/559 328/328/560 327/327/561 
f 327/327/562 326/326/563 325/325/564 
f 329/329/565 330/330/566 332/332/567 
f 332/332/568 331/331/569 329/329/570 
f 333/333/571 336/336/572 335/335/573 
f 335/335/574 334/334/575 333/333/576 
f 350/350/577 353/353/578 340/340/579 
f 340/340/580 339/339/581 350/350/582 
f 344/344/583 352/352/584 355/355/585 
f 355/355/586 341/341/587 344/344/588 
f 354/354/589 349/349/590 345/345/591 
f 345/345/592 346/346/593 354/354/594 
f 356/356/595 351/351/596 347/347/597 
f 347/347/598 348/348/599 356/356/600 
f 346/346/601 345/345/602 353/353/603 
f 353/353/604 350/350/605 346/346/606 
f 348/348/607 347/347/608 355/355/609 
f 355/355/610 352/352/611 348/348/612 
f 337/337/613 338/338/614 349/349/615 
f 349/349/616 354/354/617 337/337/618 
f 343/343/619 342/342/620 351/351/621 
f 351/351/622 356/356/623 343/343/624 
f 370/370/625 373/373/626 360/360/627 
f 360/360/628 359/359/629 370/370/630 
f 364/364/631 372/372/632 375/375/633 
f 375/375/634 361/361/635 364/364/636 
f 374/374/637 369/369/638 365/365/639 
f 365/365/640 366/366/641 374/374/642 
f 376/376/643 371/371/644 367/367/645 
f 367/367/646 368/368/647 376/376/648 
f 366/366/649 365/365/650 373/373/651 
f 373/373/652 370/370/653 366/366/654 
f 368/368/655 367/367/656 375/375/657 
f 375/375/658 372/372/659 368/368/660 
f 357/357/661 358/358/662 369/369/663 
f 369/369/664 374/374/665 357/357/666 
f 363/363/667 362/362/668 371/371/669 
f 371/371/670 376/376/671 363/363/672 
f 377/377/673 378/378/674 380/380/675 
f 380/380/676 379/379/677 377/377/678 
f 381/381/679 384/384/680 383/383/681 
f 383/383/682 382/382/683 381/381/684 
f 385/385/685 386/386/686 388/388/687 
f 388/388/688 387/387/689 385/385/690 
f 389/389/691 392/392/692 391/391/693 
f 391/391/694 390/390/695 389/389/696 
f 393/393/697 394/394/698 396/396/699 
f 396/396/700 395/395/701 393/393/702 
f 397/397/703 400/400/704 399/399/705 
f 399/399/706 398/398/707 397/397/708 
f 401/401/709 402/402/710 404/404/711 
f 404/404/712 403/403/713 401/401/714 
f 405/405/715 408/408/716 407/407/717 
f 407/407/718 406/406/719 405/405/720 
f 409/409/721 410/410/722 412/412/723 
f 412/412/724 411/411/725 409/409/726 
f 413/413/727 416/416/728 415/415/729 
f 415/415/730 414/414/731 413/413/732 
f 417/417/733 418/418/734 420/420/735 
f 420/420/736 419/419/737 417/417/738 
f 421/421/739 424/424/740 423/423/741 
f 423/423/742 422/422/743 421/421/744 
f 425/425/745 426/426/746 428/428/747 
f 428/428/748 427/427/749 425/425/750 
f 429/429/751 432/432/752 431/431/753 
f 431/431/754 430/430/755 429/429/756 
f 433/433/757 434/434/758 436/436/759 
f 436/436/760 435/435/761 433/433/762 
f 437/437/763 440/440/764 439/439/765 
f 439/439/766 438/438/767 437/437/768 
f 441/441/769 442/442/770 444/444/771 
f 444/444/772 443/443/773 441/441/774 
f 445/445/775 448/448/776 447/447/777 
f 447/447/778 446/446/779 445/445/780 
f 449/449/781 450/450/782 452/452/783 
f 452/452/784 451/451/785 449/449/786 
f 453/453/787 456/456/788 455/455/789 
f 455/455/790 454/454/791 453/453/792 
f 457/457/793 458/458/794 460/460/795 
f 460/460/796 459/459/797 457/457/798 
f 461/461/799 464/464/800 463/463/801 
f 463/463/802 462/462/803 461/461/804 
f 465/465/805 466/466/806 468/468/807 
f 468/468/808 467/467/809 465/465/810 
f 469/469/811 472/472/812 471/471/813 
f 471/471/814 470/470/815 469/469/816 
f 473/473/817 474/474/818 476/476/819 
f 476/476/820 475/475/821 473/473/822 
f 477/477/823 480/480/824 479/479/825 
f 479/479/826 478/478/827 477/477/828 
f 481/481/829 482/482/830 484/484/831 
f 484/484/832 483/483/833 481/481/834 
f 485/485/835 488/488/836 487/487/837 
f 487/487/838 486/486/839 485/485/840 
f 489/489/841 490/490/842 492/492/843 
f 492/492/844 491/491/845 489/489/846 
f 493/493/847 496/496/848 495/495/849 
f 495/495/850 494/494/851 493/493/852 
f 497/497/853 498/498/854 500/500/855 
f 500/500/856 499/499/857 497/497/858 
f 501/501/859 504/504/860 503/503/861 
f 503/503/862 502/502/863 501/501/864 
f 518/518/865 521/521/866 508/508/867 
f 508/508/868 507/507/869 518/518/870 
f 512/512/871 520/520/872 523/523/873 
f 523/523/874 509/509/875 512/512/876 
f 522/522/877 517/517/878 513/513/879 
f 513/513/880 514/514/881 522/522/882 
f 524/524/883 519/519/884 515/515/885 
f 515/515/886 516/516/887 524/524/888 
f 514/514/889 513/513/890 521/521/891 
f 521/521/892 518/518/893 514/514/894 
f 516/516/895 515/515/896 523/523/897 
f 523/523/898 520/520/899 516/516/900 
f 505/505/901 506/506/902 517/517/903 
f 517/517/904 522/522/905 505/505/906 
f 511/511/907 510/510/908 519/519/909 
f 519/519/910 524/524/911 511/511/912 
f 538/538/913 541/541/914 528/528/915 
f 528/528/916 527/527/917 538/538/918 
f 532/532/919 540/540/920 543/543/921 
f 543/543/922 529/529/923 532/532/924 
f 542/542/925 537/537/926 533/533/927 
f 533/533/928 534/534/929 542/542/930 
f 544/544/931 539/539/932 535/535/933 
f 535/535/934 536/536/935 544/544/936 
f 534/534/937 533/533/938 541/541/939 
f 541/541/940 538/538/941 534/534/942 
f 536/536/943 535/535/944 543/543/945 
f 543/543/946 540/540/947 536/536/948 
f 525/525/949 526/526/950 537/537/951 
f 537/537/952 542/542/953 525/525/954 
f 531/531/955 530/530/956 539/539/957 
f 539/539/958 544/544/959 531/531/960 
f 545/545/961 546/546/962 548/548/963 
f 548/548/964 547/547/965 545/545/966 
f 549/549/967 552/552/968 551/551/969 
f 551/551/970 550/550/971 549/549/972 
f 553/553/973 554/554/974 556/556/975 
f 556/556/976 555/555/977 553/553/978 
f 557/557/979 560/560/980 559/559/981 
f 559/559/982 558/558/983 557/557/984 
f 561/561/985 562/562/986 564/564/987 
f 564/564/988 563/563/989 561/561/990 
f 565/565/991 568/568/992 567/567/993 
f 567/567/994 566/566/995 565/565/996 
f 569/569/997 570/570/998 572/572/999 
f 572/572/1000 571/571/1001 569/569/1002 
f 573/573/1003 576/576/1004 575/575/1005 
f 575/575/1006 574/574/1007 573/573/1008 
f 577/577/1009 578/578/1010 580/580/1011 
f 580/580/1012 579/579/1013 577/577/1014 
f 581/581/1015 584/584/1016 583/583/1017 
f 583/583/1018 582/582/1019 581/581/1020 
f 585/585/1021 586/586/1022 588/588/1023 
f 588/588/1024 587/587/1025 585/585/1026 
f 589/589/1027 592/592/1028 591/591/1029 
f 591/591/1030 590/590/1031 589/589/1032 
f 593/593/1033 594/594/1034 596/596/1035 
f 596/596/1036 595/595/1037 593/593/1038 
f 597/597/1039 600/600/1040 599/599/1041 
f 599/599/1042 598/598/1043 597/597/1044 
f 601/601/1045 602/602/1046 604/604/1047 
f 604/604/1048 603/603/1049 601/601/1050 
f 605/605/1051 608/608/1052 607/607/1053 
f 607/607/1054 606/606/1055 605/605/1056 
f 609/609/1057 610/610/1058 612/612/1059 
f 612/612/1060 611/611/1061 609/609/1062 
f 613/613/1063 616/616/1064 615/615/1065 
f 615/615/1066 614/614/1067 613/613/1068 
f 617/617/1069 618/618/1070 620/620/1071 
f 620/620/1072 619/619/1073 617/617/1074 
f 621/621/1075 624/624/1076 623/623/1077 
f 623/623/1078 622/622/1079 621/621/1080 
f 625/625/1081 626/626/1082 628/628/1083 
f 628/628/1084 627/627/1085 625/625/1086 
f 629/629/1087 632/632/1088 631/631/1089 
f 631/631/1090 630/630/1091 629/629/1092 
f 633/633/1093 634/634/1094 636/636/1095 
f 636/636/1096 635/635/1097 633/633/1098 
f 637/637/1099 640/640/1100 639/639/1101 
f 639/639/1102 638/638/1103 637/637/1104 
f 641/641/1105 642/642/1106 644/644/1107 
f 644/644/1108 643/643/1109 641/641/1110 
f 645/645/1111 648/648/1112 647/647/1113 
f 647/647/1114 646/646/1115 645/645/1116 
f 649/649/1117 650/650/1118 652/652/1119 
f 652/652/1120 651/651/1121 649/649/1122 
f 653/653/1123 656/656/1124 655/655/1125 
f 655/655/1126 654/654/1127 653/653/1128 
f 657/657/1129 658/658/1130 660/660/1131 
f 660/660/1132 659/659/1133 657/657/1134 
f 661/661/1135 664/664/1136 663/663/1137 
f 663/663/1138 662/662/1139 661/661/1140 
f 665/665/1141 666/666/1142 668/668/1143 
f 668/668/1144 667/667/1145 665/665/1146 
f 669/669/1147 672/672/1148 671/671/1149 
f 671/671/1150 670/670/1151 669/669/1152 
f 686/686/1153 689/689/1154 676/676/1155 
f 676/676/1156 675/675/1157 686/686/1158 
f 680/680/1159 688/688/1160 691/691/1161 
f 691/691/1162 677/677/1163 680/680/1164 
f 690/690/1165 685/685/1166 681/681/1167 
f 681/681/1168 682/682/1169 690/690/1170 
f 692/692/1171 687/687/1172 683/683/1173 
f 683/683/1174 684/684/1175 692/692/1176 
f 682/682/1177 681/681/1178 689/689/1179 
f 689/689/1180 686/686/1181 682/682/1182 
f 684/684/1183 683/683/1184 691/691/1185 
f 691/691/1186 688/688/1187 684/684/1188 
f 673/673/1189 674/674/1190 685/685/1191 
f 685/685/1192 690/690/1193 673/673/1194 
f 679/679/1195 678/678/1196 687/687/1197 
f 687/687/1198 692/692/1199 679/679/1200 
f 706/706/1201 709/709/1202 696/696/1203 
f 696/696/1204 695/695/1205 706/706/1206 
f 700/700/1207 708/708/1208 711/711/1209 
f 711/711/1210 697/697/1211 700/700/1212 
f 710/710/1213 705/705/1214 701/701/1215 
f 701/701/1216 702/702/1217 710/710/1218 
f 712/712/1219 707/707/1220 703/703/1221 
f 703/703/1222 704/704/1223 712/712/1224 
f 702/702/1225 701/701/1226 709/709/1227 
f 709/709/1228 706/706/1229 702/702/1230 
f 704/704/1231 703/703/1232 711/711/1233 
f 711/711/1234 708/708/1235 704/704/1236 
f 693/693/1237 694/694/1238 705/705/1239 
f 705/705/1240 710/710/1241 693/693/1242 
f 699/699/1243 698/698/1244 707/707/1245 
f 707/707/1246 712/712/1247 699/699/1248 
f 713/713/1249 714/714/1250 716/716/1251 
f 716/716/1252 715/715/1253 713/713/1254 
f 717/717/1255 720/720/1256 719/719/1257 
f 719/719/1258 718/718/1259 717/717/1260 
f 721/721/1261 722/722/1262 724/724/1263 
f 724/724/1264 723/723/1265 721/721/1266 
f 725/725/1267 728/728/1268 727/727/1269 
f 727/727/1270 726/726/1271 725/725/1272 
f 729/729/1273 730/730/1274 732/732/1275 
f 732/732/1276 731/731/1277 729/729/1278 
f 733/733/1279 736/736/1280 735/735/1281 
f 735/735/1282 734/734/1283 733/733/1284 
f 737/737/1285 738/738/1286 740/740/1287 
f 740/740/1288 739/739/1289 737/737/1290 
f 741/741/1291 744/744/1292 743/743/1293 
f 743/743/1294 742/742/1295 741/741/1296 
f 745/745/1297 746/746/1298 748/748/1299 
f 748/748/1300 747/747/1301 745/745/1302 
f 749/749/1303 752/752/1304 751/751/1305 
f 751/751/1306 750/750/1307 749/749/1308 
f 753/753/1309 754/754/1310 756/756/1311 
f 756/756/1312 755/755/1313 753/753/1314 
f 757/757/1315 760/760/1316 759/759/1317 
f 759/759/1318 758/758/1319 757/757/1320 
f 761/761/1321 762/762/1322 764/764/1323 
f 764/764/1324 763/763/1325 761/761/1326 
f 765/765/1327 768/768/1328 767/767/1329 
f 767/767/1330 766/766/1331 765/765/1332 
f 769/769/1333 770/770/1334 772/772/1335 
f 772/772/1336 771/771/1337 769/769/1338 
f 773/773/1339 776/776/1340 775/775/1341 
f 775/775/1342 774/774/1343 773/773/1344 
f 777/777/1345 778/778/1346 780/780/1347 
f 780/780/1348 779/779/1349 777/777/1350 
f 781/781/1351 784/784/1352 783/783/1353 
f 783/783/1354 782/782/1355 781/781/1356 
f 785/785/1357 786/786/1358 788/788/1359 
f 788/788/1360 787/787/1361 785/785/1362 
f 789/789/1363 792/792/1364 791/791/1365 
f 791/791/1366 790/790/1367 789/789/1368 
f 793/793/1369 794/794/1370 796/796/1371 
f 796/796/1372 795/795/1373 793/793/1374 
f 797/797/1375 800/800/1376 799/799/1377 
f 799/799/1378 798/798/1379 797/797/1380 
f 801/801/1381 802/802/1382 804/804/1383 
f 804/804/1384 803/803/1385 801/801/1386 
f 805/805/1387 808/808/1388 807/807/1389 
f 807/807/1390 806/806/1391 805/805/1392 
f 809/809/1393 810/810/1394 812/812/1395 
f 812/812/1396 811/811/1397 809/809/1398 
f 813/813/1399 816/816/1400 815/815/1401 
f 815/815/1402 814/814/1403 813/813/1404 
f 817/817/1405 818/818/1406 820/820/1407 
f 820/820/1408 819/819/1409 817/817/1410 
f 821/821/1411 824/824/1412 823/823/1413 
f 823/823/1414 822/822/1415 821/821/1416 
f 825/825/1417 826/826/1418 828/828/1419 
f 828/828/1420 827/827/1421 825/825/1422 
f 829/829/1423 832/832/1424 831/831/1425 
f 831/831/1426 830/830/1427 829/829/1428 
f 833/833/1429 834/834/1430 836/836/1431 
f 836/836/1432 835/835/1433 833/833/1434 
f 837/837/1435 840/840/1436 839/839/1437 
f 839/839/1438 838/838/1439 837/837/1440 
# 480 faces

