# 3ds Max Wavefront OBJ Exporter v0.99 - (c)2007 guruware
# File Created: 19.11.2024 10:17:31

#
# object GorseStage00
#

v  -0.1936 -5.6690 0.0161
v  0.1936 -5.6690 0.0161
v  0.8143 15.4867 -0.8245
v  1.2014 15.4860 -0.8187
v  0.8147 15.4784 -0.8556
v  -0.1936 -5.6690 -0.0161
v  0.1936 -5.6690 -0.0161
v  1.2018 15.4776 -0.8498
v  0.3788 4.7315 0.0825
v  -0.0024 4.7985 0.0884
v  -0.0034 4.7957 0.0563
v  0.3779 4.7288 0.0505
v  0.1936 -0.4717 0.0161
v  0.8054 10.3030 -0.9105
v  -0.1936 -0.4717 -0.0161
v  1.1930 10.3077 -0.9363
v  1.1925 10.3022 -0.9047
v  -0.1936 -0.4717 0.0161
v  0.8058 10.3085 -0.9421
v  0.1936 -0.4717 -0.0161
v  0.0161 -5.6690 0.1936
v  0.0161 -5.6690 -0.1936
v  1.0214 15.5325 -0.6500
v  1.0268 15.4318 -1.0238
v  0.9893 15.5326 -0.6505
v  -0.0161 -5.6690 0.1936
v  -0.0161 -5.6690 -0.1936
v  0.9947 15.4319 -1.0243
v  0.1977 4.7445 -0.1236
v  0.2094 4.7772 0.2620
v  0.1777 4.7828 0.2625
v  0.1660 4.7500 -0.1231
v  0.0161 -0.4717 -0.1936
v  1.0123 10.2720 -0.7325
v  -0.0161 -0.4717 0.1936
v  0.9860 10.3387 -1.1143
v  1.0182 10.3387 -1.1138
v  0.0161 -0.4717 0.1936
v  0.9801 10.2720 -0.7330
v  -0.0161 -0.4717 -0.1936
v  0.1476 11.3830 -1.4564
v  1.8256 9.3013 -0.3478
v  4.6241 17.6738 3.5802
v  6.3021 15.5921 4.6888
v  0.1728 11.3880 -1.4851
v  1.8508 9.3064 -0.3765
v  6.3273 15.5972 4.6602
v  4.6492 17.6789 3.5515
v  -0.7567 5.7987 0.0295
v  1.1087 3.5894 0.1605
v  6.2864 11.7033 -0.6849
v  8.1519 9.4940 -0.5538
v  -0.7579 5.7955 -0.0088
v  1.1076 3.5861 0.1222
v  8.1507 9.4907 -0.5922
v  6.2852 11.7001 -0.7232
v  -1.1510 4.2305 0.3928
v  1.5145 5.1869 -0.2061
v  -4.2319 12.9175 0.5524
v  -1.5664 13.8738 -0.0465
v  -1.1587 4.2285 0.3551
v  1.5068 5.1848 -0.2438
v  -1.5741 13.8718 -0.0842
v  -4.2396 12.9155 0.5148
v  -0.0053 11.1793 -0.2926
v  2.0195 9.5041 -1.5060
v  5.3978 18.5564 -1.4613
v  7.4225 16.8812 -2.6748
v  -0.0210 11.1853 -0.3271
v  2.0037 9.5101 -1.5406
v  7.4068 16.8872 -2.7094
v  5.3820 18.5624 -1.4959
v  -0.1365 9.6062 -0.5076
v  2.1502 11.2099 -1.2675
v  -4.3481 17.1427 2.7241
v  -2.0614 18.7464 1.9642
v  -0.1522 9.6122 -0.5422
v  2.1345 11.2160 -1.3021
v  -2.0771 18.7525 1.9296
v  -4.3638 17.1488 2.6895
v  0.0014 5.5681 -1.0633
v  0.3130 3.8241 1.2257
v  2.8920 12.7162 3.9893
v  3.2035 10.9722 6.2783
v  0.0377 5.5608 -1.0738
v  0.3493 3.8168 1.2152
v  3.2398 10.9650 6.2679
v  2.9283 12.7089 3.9788
v  -0.3199 3.9550 -1.0572
v  0.6395 5.4676 1.2165
v  -0.2638 11.6191 -6.1796
v  0.6957 13.1317 -3.9059
v  -0.2836 3.9477 -1.0677
v  0.6758 5.4603 1.2060
v  0.7320 13.1244 -3.9164
v  -0.2275 11.6118 -6.1901
v  -0.0862 9.8056 -1.6469
v  2.0645 11.0109 -0.1304
v  -4.0478 18.0745 -2.6009
v  -1.8971 19.2799 -1.0844
v  -0.0665 9.8113 -1.6795
v  2.0842 11.0166 -0.1630
v  -1.8773 19.2856 -1.1169
v  -4.0281 18.0802 -2.6334
v  -0.4331 16.4970 -1.1223
v  2.4611 16.4913 -1.0789
v  -0.3796 25.3982 -3.5196
v  2.5146 25.3925 -3.4762
v  -0.4329 16.4924 -1.1393
v  2.4613 16.4867 -1.0959
v  2.5149 25.3879 -3.4932
v  -0.3793 25.3936 -3.5366
v  0.1986 15.5892 0.4154
v  1.9701 14.0879 -1.3125
v  2.3091 23.3213 -4.1387
v  4.0806 21.8200 -5.8667
v  0.1852 15.5863 0.4043
v  1.9568 14.0850 -1.3237
v  4.0673 21.8171 -5.8778
v  2.2958 23.3184 -4.1499
v  1.3611 15.1866 1.1233
v  0.6540 15.1843 -1.6835
v  1.3795 24.4050 1.1112
v  0.6724 24.4027 -1.6956
v  1.3441 15.1866 1.1276
v  0.6370 15.1843 -1.6792
v  0.6553 24.4028 -1.6913
v  1.3624 24.4050 1.1155
v  2.3919 14.9782 0.8893
v  -0.0461 14.4690 -1.0016
v  -0.4165 24.1220 -1.2031
v  -2.8660 23.1353 -2.3882
v  2.3842 14.9715 0.9036
v  -0.0538 14.4690 -0.9857
v  -2.8737 23.1354 -2.3723
v  -0.4242 24.1220 -1.1872
v  0.1240 -5.0345 -0.2337
v  0.3484 -5.1158 0.0306
v  4.5474 13.6756 3.0157
v  4.7675 13.5938 3.2834
v  4.5680 13.6673 2.9962
v  0.1465 -5.0353 -0.2530
v  0.3708 -5.1166 0.0114
v  4.7881 13.5855 3.2639
v  2.0085 4.1585 1.7036
v  1.7938 4.2987 1.4565
v  1.8151 4.2957 1.4363
v  2.0299 4.1555 1.6834
v  1.1475 -0.4626 0.7836
v  3.8051 9.0344 2.2072
v  0.9456 -0.3820 0.4999
v  4.0485 8.9567 2.4571
v  4.0253 8.9526 2.4749
v  0.9231 -0.3813 0.5192
v  3.8283 9.0386 2.1893
v  1.1699 -0.4633 0.7643
v  0.1217 -5.0745 0.0158
v  0.3918 -5.0834 -0.2162
v  4.5527 13.6771 3.2683
v  4.8011 13.5772 3.0335
v  4.5344 13.6839 3.2461
v  0.1030 -5.0677 -0.0062
v  0.3731 -5.0766 -0.2381
v  4.7828 13.5840 3.0113
v  2.0494 4.2034 1.4584
v  1.7921 4.2391 1.7021
v  1.7743 4.2508 1.6815
v  2.0315 4.2151 1.4378
v  1.1909 -0.4301 0.5368
v  3.7961 8.9673 2.4506
v  0.9021 -0.4145 0.7467
v  4.0575 9.0239 2.2136
v  4.0758 9.0171 2.2358
v  0.9208 -0.4213 0.7687
v  3.7778 8.9741 2.4284
v  1.1723 -0.4234 0.5148
v  3.9710 10.1270 1.5874
v  3.8497 7.9363 3.0959
v  4.0181 14.9345 8.5730
v  3.8968 12.7437 10.0815
v  4.0063 10.1256 1.5881
v  3.8851 7.9348 3.0966
v  3.9322 12.7422 10.0822
v  4.0534 14.9330 8.5737
v  1.5516 5.3513 1.0510
v  2.2014 2.9845 2.0834
v  7.0391 9.1423 6.2881
v  7.6889 6.7754 7.3205
v  1.5771 5.3477 1.0268
v  2.2270 2.9809 2.0591
v  7.7145 6.7719 7.2962
v  7.0647 9.1387 6.2639
v  0.8285 4.0384 0.7722
v  2.9380 4.3211 2.3722
v  0.2676 12.4666 0.0224
v  2.3770 12.7493 1.6224
v  0.8500 4.0373 0.7441
v  2.9595 4.3200 2.3441
v  2.3985 12.7483 1.5943
v  0.2890 12.4655 -0.0057
v  3.0390 10.0034 2.1507
v  4.8013 8.0506 2.5638
v  8.1196 15.4468 6.2089
v  9.8819 13.4939 6.6219
v  3.0549 10.0113 2.1201
v  4.8173 8.0585 2.5332
v  9.8979 13.5019 6.5914
v  8.1356 15.4547 6.1783
v  2.8712 8.6176 1.7044
v  4.9730 9.5558 3.0431
v  -0.6653 16.3236 1.8562
v  1.4365 17.2618 3.1949
v  2.8871 8.6255 1.6738
v  4.9889 9.5637 3.0125
v  1.4525 17.2697 3.1643
v  -0.6493 16.3315 1.8256
v  2.7179 4.9606 0.8807
v  1.0332 3.3861 2.2121
v  1.9667 10.8690 6.9170
v  0.2820 9.2945 8.2485
v  2.7451 4.9462 0.8981
v  1.0604 3.3717 2.2295
v  0.3092 9.2801 8.2659
v  1.9939 10.8546 6.9345
v  2.2794 3.5839 0.4312
v  1.4815 4.7888 2.6676
v  7.0643 10.3167 -1.4889
v  6.2664 11.5215 0.7476
v  2.3066 3.5696 0.4486
v  1.5088 4.7744 2.6851
v  6.2937 11.5071 0.7650
v  7.0915 10.3023 -1.4714
v  3.7258 8.7595 1.0851
v  4.0994 9.4217 3.6369
v  3.3672 16.9729 -0.9938
v  3.7408 17.6351 1.5580
v  3.7608 8.7597 1.0799
v  4.1344 9.4219 3.6317
v  3.7758 17.6354 1.5528
v  3.4023 16.9732 -0.9990
v  4.1877 14.8353 2.1318
v  5.8335 14.2234 4.1335
v  7.2599 22.7385 2.0217
v  8.9058 22.1266 4.0233
v  4.1990 14.8307 2.1212
v  5.8448 14.2188 4.1228
v  8.9171 22.1221 4.0127
v  7.2712 22.7340 2.0110
v  3.3412 13.9251 3.3529
v  5.3425 12.1693 3.3100
v  8.9305 20.3003 3.1860
v  10.9318 18.5445 3.1431
v  3.3408 13.9250 3.3367
v  5.3421 12.1692 3.2938
v  10.9314 18.5445 3.1269
v  8.9301 20.3002 3.1698
v  3.4591 13.3366 4.5126
v  5.0073 13.4188 2.3479
v  4.8955 21.5859 5.8533
v  6.4438 21.6681 3.6886
v  3.4462 13.3403 4.5035
v  4.9945 13.4226 2.3388
v  6.4309 21.6718 3.6795
v  4.8826 21.5896 5.8442
v  4.1876 12.9282 5.0461
v  4.0159 12.9411 2.1747
v  5.4260 21.6567 3.1994
v  4.6817 21.2606 0.6738
v  4.1721 12.9241 5.0485
v  4.0004 12.9431 2.1789
v  4.6662 21.2627 0.6780
v  5.4105 21.6587 3.2037
v  0.2309 -5.0333 -0.2190
v  0.4949 -5.1153 -0.4436
v  4.0593 13.7022 -4.0296
v  4.3266 13.6194 -4.2499
v  4.0398 13.6951 -4.0506
v  0.2119 -5.0328 -0.2416
v  0.4759 -5.1148 -0.4662
v  4.3071 13.6123 -4.2710
v  2.4500 4.1533 -1.7997
v  2.2050 4.2939 -1.5828
v  2.1849 4.2922 -1.6044
v  2.4299 4.1516 -1.8213
v  1.3891 -0.4634 -1.0909
v  3.1105 9.0658 -3.4392
v  1.1060 -0.3809 -0.8890
v  3.3603 8.9884 -3.6828
v  3.3778 8.9830 -3.6595
v  1.1251 -0.3814 -0.8663
v  3.0930 9.0711 -3.4624
v  1.3700 -0.4629 -1.1135
v  0.4792 -5.0805 -0.2158
v  0.2496 -5.0743 -0.4880
v  4.3120 13.6964 -4.0327
v  4.0767 13.6112 -4.2861
v  4.2898 13.7033 -4.0144
v  0.4572 -5.0737 -0.1972
v  0.2276 -5.0675 -0.4694
v  4.0545 13.6181 -4.2678
v  2.2065 4.2066 -1.8412
v  2.4487 4.2272 -1.5810
v  2.4284 4.2389 -1.5629
v  2.1861 4.2183 -1.8232
v  1.1437 -0.4225 -1.1353
v  3.3518 8.9913 -3.4302
v  1.3514 -0.4219 -0.8445
v  3.1189 9.0628 -3.6917
v  3.1411 9.0559 -3.7100
v  1.3733 -0.4287 -0.8632
v  3.3296 8.9982 -3.4119
v  1.1218 -0.4156 -1.1167
v  2.5240 10.1806 -3.5760
v  3.9675 7.9441 -3.5106
v  9.6455 14.7817 -3.4150
v  11.0890 12.5452 -3.3496
v  2.5251 10.1802 -3.6114
v  3.9686 7.9437 -3.5460
v  11.0900 12.5449 -3.3850
v  9.6465 14.7814 -3.4504
v  1.8278 5.3499 -1.3113
v  2.7974 2.9753 -2.0260
v  7.2225 9.1547 -6.6341
v  8.1921 6.7801 -7.3488
v  1.8038 5.3478 -1.3371
v  2.7734 2.9732 -2.0519
v  8.1680 6.7780 -7.3747
v  7.1984 9.1526 -6.6600
v  1.5046 4.0239 -0.6319
v  3.1315 4.3251 -2.7181
v  0.9931 12.4490 0.1854
v  2.6200 12.7502 -1.9009
v  1.4767 4.0243 -0.6536
v  3.1036 4.3255 -2.7398
v  2.5920 12.7506 -1.9226
v  0.9652 12.4494 0.1636
v  3.0749 10.0118 -2.6437
v  3.4478 8.1032 -4.4626
v  7.3351 15.4892 -7.5182
v  7.7079 13.5806 -9.3370
v  3.0447 10.0211 -2.6597
v  3.4175 8.1125 -4.4785
v  7.6777 13.5899 -9.3530
v  7.3049 15.4985 -7.5341
v  2.5873 8.6351 -2.5229
v  3.9718 9.5985 -4.5832
v  2.9287 16.2203 1.2533
v  4.3132 17.1837 -0.8071
v  2.5571 8.6444 -2.5388
v  3.9416 9.6078 -4.5992
v  4.2830 17.1930 -0.8230
v  2.8985 16.2296 1.2373
v  1.6570 5.0006 -2.4906
v  2.9269 3.3366 -0.8448
v  7.8541 10.7047 -1.5053
v  9.1240 9.0408 0.1405
v  1.6743 4.9865 -2.5181
v  2.9442 3.3226 -0.8723
v  9.1413 9.0267 0.1130
v  7.8714 10.6906 -1.5328
v  1.1640 3.6247 -2.0990
v  3.4268 4.7387 -1.2454
v  -0.5168 10.5553 -6.6874
v  1.7460 11.6692 -5.8338
v  1.1813 3.6107 -2.1265
v  3.4441 4.7246 -1.2729
v  1.7633 11.6552 -5.8613
v  -0.4995 10.5412 -6.7149
v  1.9802 8.8213 -3.3779
v  4.5534 9.4201 -3.7093
v  0.1359 17.0768 -2.7807
v  2.7091 17.6756 -3.1121
v  1.9754 8.8227 -3.4129
v  4.5486 9.4216 -3.7443
v  2.7042 17.6771 -3.1471
v  0.1310 17.0782 -2.8157
v  3.2060 14.8754 -3.6413
v  5.2043 14.2567 -5.2887
v  3.3522 22.8697 -6.4664
v  5.3505 22.2510 -8.1138
v  3.1953 14.8715 -3.6528
v  5.1936 14.2528 -5.3002
v  5.3398 22.2471 -8.1254
v  3.3415 22.8658 -6.4779
v  4.3925 13.9043 -2.8135
v  4.3174 12.2133 -4.8689
v  4.4611 20.4515 -8.2025
v  4.3860 18.7604 -10.2579
v  4.3763 13.9047 -2.8132
v  4.3012 12.2136 -4.8686
v  4.3698 18.7608 -10.2576
v  4.4449 20.4518 -8.2022
v  5.5357 13.2862 -2.9400
v  3.3887 13.4793 -4.5029
v  7.1270 21.5335 -4.1073
v  4.9800 21.7265 -5.6702
v  5.5266 13.2898 -2.9271
v  3.3796 13.4829 -4.4900
v  4.9709 21.7301 -5.6573
v  7.1179 21.5370 -4.0944
v  6.0639 12.8852 -3.6764
v  3.1926 12.9763 -3.5283
v  4.4813 21.6979 -4.6574
v  1.9385 21.3527 -3.9469
v  6.0661 12.8806 -3.6610
v  3.1968 12.9777 -3.5127
v  1.9427 21.3541 -3.9313
v  4.4855 21.6993 -4.6418
v  -0.2966 -4.9997 0.4376
v  -0.5210 -5.0847 0.1744
v  -3.0544 13.6627 -4.4924
v  -3.2747 13.5765 -4.7587
v  -3.0761 13.6578 -4.4729
v  -0.3194 -4.9969 0.4562
v  -0.5439 -5.0819 0.1930
v  -3.2964 13.5716 -4.7392
v  -1.3562 4.1169 -2.3157
v  -1.1360 4.2597 -2.0749
v  -1.1580 4.2602 -2.0551
v  -1.3782 4.1175 -2.2959
v  -0.9083 -0.4633 -0.9878
v  -2.7240 9.0627 -3.2775
v  -0.7067 -0.3755 -0.7061
v  -2.9675 8.9840 -3.5270
v  -2.9443 8.9765 -3.5438
v  -0.6839 -0.3783 -0.7247
v  -2.7472 9.0702 -3.2607
v  -0.9312 -0.4605 -0.9692
v  -0.2920 -5.0610 0.1925
v  -0.5671 -5.0277 0.4163
v  -3.0540 13.6429 -4.7443
v  -3.3151 13.5843 -4.5094
v  -3.0357 13.6501 -4.7222
v  -0.2734 -5.0539 0.2143
v  -0.5484 -5.0207 0.4381
v  -3.2968 13.5914 -4.4873
v  -1.3986 4.1859 -2.0763
v  -1.1339 4.1794 -2.3145
v  -1.1156 4.1912 -2.2945
v  -1.3803 4.1978 -2.0563
v  -0.9544 -0.4063 -0.7460
v  -2.7153 8.9744 -3.5141
v  -0.6607 -0.4325 -0.9479
v  -2.9762 9.0723 -3.2904
v  -2.9945 9.0652 -3.3125
v  -0.6793 -0.4396 -0.9698
v  -2.6970 8.9815 -3.4920
v  -0.9357 -0.3993 -0.7241
v  -2.8111 10.2143 -2.7563
v  -2.8411 7.8997 -4.0722
v  -2.2969 14.3929 -10.1174
v  -2.3269 12.0783 -11.4334
v  -2.8464 10.2157 -2.7579
v  -2.8765 7.9011 -4.0739
v  -2.3623 12.0797 -11.4351
v  -2.3322 14.3943 -10.1191
v  -0.8152 5.3197 -1.7518
v  -1.6388 2.9345 -2.6015
v  -5.8454 9.0853 -7.4465
v  -6.6691 6.7000 -8.2962
v  -0.8415 5.3204 -1.7282
v  -1.6651 2.9351 -2.5778
v  -6.6954 6.7006 -8.2725
v  -5.8717 9.0859 -7.4228
v  -0.2117 3.9807 -1.3432
v  -2.2536 4.2973 -3.0226
v  1.0403 12.3676 -1.2840
v  -1.0016 12.6843 -2.9634
v  -0.2338 3.9838 -1.3157
v  -2.2757 4.3004 -2.9951
v  -1.0237 12.6874 -2.9359
v  1.0182 12.3707 -1.2565
v  -1.8805 9.9668 -3.2797
v  -3.7913 8.1369 -3.5798
v  -6.3925 15.4407 -7.9261
v  -8.3034 13.6108 -8.2262
v  -1.8964 9.9786 -3.2503
v  -3.8073 8.1487 -3.5504
v  -8.3193 13.6226 -8.1969
v  -6.4084 15.4525 -7.8968
v  -1.8400 8.6153 -2.7144
v  -3.8249 9.6045 -4.1880
v  2.3355 15.9637 -3.4054
v  0.3506 16.9530 -4.8790
v  -1.8559 8.6271 -2.6850
v  -3.8408 9.6163 -4.1586
v  0.3347 16.9648 -4.8496
v  2.3196 15.9755 -3.3760
v  -2.0138 5.0421 -1.5838
v  -0.4383 3.2264 -2.7289
v  -0.6328 10.3298 -8.0680
v  0.9426 8.5141 -9.2131
v  -2.0417 5.0285 -1.6008
v  -0.4663 3.2129 -2.7459
v  0.9147 8.5006 -9.2301
v  -0.6607 10.3162 -8.0850
v  -1.7029 3.6777 -1.0082
v  -0.7567 4.6169 -3.3130
v  -5.9454 10.9200 0.2011
v  -4.9991 11.8592 -2.1038
v  -1.7309 3.6642 -1.0252
v  -0.7846 4.6034 -3.3300
v  -5.0271 11.8457 -2.1208
v  -5.9734 10.9065 0.1841
v  -2.6933 8.8793 -2.1345
v  -2.9526 9.3488 -4.7426
v  -1.6907 17.1835 -0.7394
v  -1.9500 17.6530 -3.3475
v  -2.7283 8.8829 -2.1303
v  -2.9876 9.3523 -4.7385
v  -1.9850 17.6565 -3.3434
v  -1.7257 17.1871 -0.7353
v  -2.6182 14.8604 -3.6983
v  -4.2646 14.2163 -5.6894
v  -5.0155 22.9693 -4.3393
v  -6.6619 22.3251 -6.3304
v  -2.6301 14.8577 -3.6876
v  -4.2765 14.2136 -5.6787
v  -6.6738 22.3225 -6.3197
v  -5.0274 22.9666 -4.3286
v  -1.8243 13.7825 -4.8137
v  -3.9669 12.2070 -4.6831
v  -6.8591 20.5855 -5.3444
v  -9.0017 19.0100 -5.2139
v  -1.8243 13.7838 -4.7975
v  -3.9669 12.2083 -4.6670
v  -9.0016 19.0113 -5.1978
v  -6.8591 20.5868 -5.3283
v  -1.9654 13.1085 -5.9231
v  -3.5492 13.5027 -3.8193
v  -2.6715 21.3024 -7.9900
v  -4.2554 21.6966 -5.8862
v  -1.9524 13.1119 -5.9140
v  -3.5363 13.5061 -3.8102
v  -4.2424 21.7000 -5.8771
v  -2.6586 21.3058 -7.9809
v  -2.7136 12.7170 -6.4418
v  -2.6056 12.9618 -3.5777
v  -3.2534 21.6437 -5.3681
v  -2.6017 21.4059 -2.7974
v  -2.6985 12.7115 -6.4434
v  -2.5899 12.9621 -3.5816
v  -2.5861 21.4062 -2.8013
v  -3.2377 21.6441 -5.3720
v  -0.6564 -5.1720 0.2397
v  -0.9223 -5.2068 0.4740
v  -2.4944 14.1162 2.4258
v  -2.7638 14.0807 2.6560
v  -2.4752 14.1090 2.4471
v  -0.6369 -5.1715 0.2619
v  -0.9028 -5.2063 0.4962
v  -2.7446 14.0735 2.6773
v  -1.9039 4.2956 1.0294
v  -1.6508 4.3911 0.7978
v  -1.6305 4.3892 0.8192
v  -1.8836 4.2937 1.0508
v  -1.3291 -0.4494 0.7185
v  -2.0305 9.3734 2.2359
v  -1.0436 -0.4141 0.5064
v  -2.2814 9.3434 2.4886
v  -2.2999 9.3379 2.4661
v  -1.0631 -0.4146 0.4842
v  -2.0120 9.3790 2.2584
v  -1.3096 -0.4489 0.7407
v  -0.9081 -5.1938 0.2439
v  -0.6732 -5.1874 0.5115
v  -2.7462 14.1366 2.4326
v  -2.5152 14.0501 2.6895
v  -2.7238 14.1396 2.4135
v  -0.8860 -5.1909 0.2244
v  -0.6511 -5.1846 0.4920
v  -2.4929 14.0530 2.6704
v  -1.6554 4.3271 1.0629
v  -1.9000 4.3497 0.8049
v  -1.8789 4.3577 0.7857
v  -1.6344 4.3351 1.0436
v  -1.0800 -0.4300 0.7560
v  -2.2782 9.3236 2.2367
v  -1.2928 -0.4335 0.4689
v  -2.0337 9.3933 2.4878
v  -2.0561 9.3903 2.5070
v  -1.3149 -0.4364 0.4883
v  -2.2558 9.3265 2.2176
v  -1.0579 -0.4272 0.7365
v  -1.3319 10.4301 2.2661
v  -2.9944 8.3557 2.4173
v  -7.9554 15.7039 1.7894
v  -9.6180 13.6295 1.9406
v  -1.3322 10.4329 2.3014
v  -2.9947 8.3585 2.4526
v  -9.6183 13.6323 1.9759
v  -7.9557 15.7067 1.8247
v  -1.1751 5.3754 0.4290
v  -2.3633 3.1833 1.3634
v  -6.0423 10.1592 5.4627
v  -7.2304 7.9671 6.3971
v  -1.1508 5.3731 0.4547
v  -2.3390 3.1811 1.3891
v  -7.2061 7.9649 6.4227
v  -6.0180 10.1569 5.4883
v  -1.0020 3.9694 -0.1344
v  -2.5446 4.6152 1.9376
v  0.3378 12.1952 -1.7006
v  -1.2048 12.8410 0.3715
v  -0.9737 3.9689 -0.1132
v  -2.5163 4.6146 1.9588
v  -1.1765 12.8404 0.3927
v  0.3661 12.1947 -1.6793
v  -1.9171 10.2383 1.3595
v  -2.4407 8.5428 3.3447
v  -5.4970 16.5247 5.7840
v  -6.0206 14.8292 7.7692
v  -1.8858 10.2458 1.3742
v  -2.4094 8.5504 3.3594
v  -5.9893 14.8368 7.7839
v  -5.4657 16.5322 5.7987
v  -1.5733 8.8137 1.3548
v  -2.8087 10.0886 3.3392
v  -1.2307 16.0377 -3.0732
v  -2.4661 17.3127 -1.0888
v  -1.5420 8.8212 1.3694
v  -2.7774 10.0962 3.3539
v  -2.4348 17.3202 -1.0741
v  -1.1994 16.0453 -3.0586
v  -1.0148 5.1141 1.6324
v  -2.4813 3.4522 0.1566
v  -6.6257 11.3148 0.2253
v  -8.0922 9.6530 -1.2504
v  -1.0329 5.1043 1.6612
v  -2.4993 3.4425 0.1855
v  -8.1102 9.6433 -1.2216
v  -6.6438 11.3051 0.2542
v  -0.6715 3.6663 1.3578
v  -2.8286 4.9275 0.4379
v  1.7981 10.7604 5.2930
v  -0.3590 12.0216 4.3731
v  -0.6896 3.6565 1.3867
v  -2.8466 4.9177 0.4668
v  -0.3770 12.0118 4.4020
v  1.7801 10.7506 5.3219
v  -0.9322 9.0103 2.1821
v  -3.4242 9.8956 2.4920
v  1.7210 16.9508 0.8331
v  -0.7710 17.8361 1.1430
v  -0.9265 9.0143 2.2168
v  -3.4184 9.8996 2.5267
v  -0.7653 17.8401 1.1777
v  1.7267 16.9548 0.8678
v  -1.5359 15.1579 1.9243
v  -3.5501 14.8920 3.6454
v  -0.8147 23.3401 4.0324
v  -2.8289 23.0741 5.7535
v  -1.5254 15.1540 1.9360
v  -3.5396 14.8881 3.6571
v  -2.8184 23.0702 5.7652
v  -0.8042 23.3361 4.0441
v  -2.8318 14.2451 1.2009
v  -2.8829 12.7399 3.3968
v  -2.1236 21.2076 5.9897
v  -2.1747 19.7025 8.1856
v  -2.8157 14.2438 1.2004
v  -2.8668 12.7386 3.3962
v  -2.1585 19.7012 8.1851
v  -2.1075 21.2063 5.9892
v  -4.0285 13.7605 1.3962
v  -1.8395 13.8678 2.9083
v  -4.7552 22.1972 1.8492
v  -2.5662 22.3046 3.3614
v  -4.0194 13.7620 1.3829
v  -1.8304 13.8693 2.8950
v  -2.5571 22.3060 3.3481
v  -4.7461 22.1987 1.8359
v  -4.5783 13.4810 2.1719
v  -1.7163 13.2648 1.9796
v  -2.0951 22.1373 2.3488
v  0.3840 21.4736 1.6392
v  -4.5812 13.4753 2.1570
v  -1.7206 13.2653 1.9640
v  0.3797 21.4741 1.6236
v  -2.0994 22.1378 2.3332
# 680 vertices

vn 0.0006 0.6030 0.7978
vn -0.0004 0.6010 0.7992
vn -0.0113 0.5795 0.8149
vn -0.0113 0.5795 0.8149
vn -0.0112 0.5795 0.8149
vn 0.0006 0.6030 0.7978
vn 0.0122 0.6752 -0.7376
vn 0.0005 0.6581 -0.7529
vn -0.0007 0.6567 -0.7541
vn -0.0007 0.6567 -0.7541
vn 0.0122 0.6752 -0.7376
vn 0.0122 0.6752 -0.7376
vn 0.0024 0.5818 0.8134
vn 0.0024 0.5817 0.8134
vn 0.0079 0.6013 0.7990
vn 0.0079 0.6013 0.7990
vn 0.0082 0.6037 0.7972
vn 0.0024 0.5818 0.8134
vn -0.0026 0.6732 -0.7395
vn -0.0026 0.6731 -0.7395
vn -0.0093 0.6562 -0.7546
vn -0.0093 0.6562 -0.7546
vn -0.0089 0.6579 -0.7531
vn -0.0026 0.6732 -0.7395
vn 0.0082 0.6037 0.7972
vn 0.0079 0.6013 0.7990
vn -0.0004 0.6010 0.7992
vn -0.0004 0.6010 0.7992
vn 0.0006 0.6030 0.7978
vn 0.0082 0.6037 0.7972
vn -0.0089 0.6579 -0.7531
vn -0.0093 0.6562 -0.7546
vn -0.0007 0.6567 -0.7541
vn -0.0007 0.6567 -0.7541
vn 0.0005 0.6581 -0.7529
vn -0.0089 0.6579 -0.7531
vn 0.0000 0.5832 0.8123
vn 0.0000 0.5832 0.8123
vn 0.0024 0.5817 0.8134
vn 0.0024 0.5817 0.8134
vn 0.0024 0.5818 0.8134
vn 0.0000 0.5832 0.8123
vn 0.0000 0.6718 -0.7407
vn 0.0000 0.6718 -0.7407
vn -0.0026 0.6731 -0.7395
vn -0.0026 0.6731 -0.7395
vn -0.0026 0.6732 -0.7395
vn 0.0000 0.6718 -0.7407
vn 0.7908 0.6080 0.0701
vn 0.7873 0.6122 0.0733
vn 0.7772 0.6240 0.0816
vn 0.7772 0.6240 0.0816
vn 0.7772 0.6240 0.0816
vn 0.7908 0.6080 0.0701
vn -0.7776 0.6261 0.0583
vn -0.7663 0.6390 0.0668
vn -0.7614 0.6445 0.0701
vn -0.7614 0.6445 0.0701
vn -0.7777 0.6259 0.0583
vn -0.7776 0.6261 0.0583
vn 0.7807 0.6215 0.0649
vn 0.7807 0.6216 0.0650
vn 0.7919 0.6076 0.0606
vn 0.7919 0.6076 0.0606
vn 0.7920 0.6075 0.0606
vn 0.7807 0.6215 0.0649
vn -0.7742 0.6285 0.0749
vn -0.7741 0.6286 0.0750
vn -0.7598 0.6453 0.0792
vn -0.7598 0.6453 0.0792
vn -0.7598 0.6453 0.0792
vn -0.7742 0.6285 0.0749
vn 0.7920 0.6075 0.0606
vn 0.7919 0.6076 0.0606
vn 0.7873 0.6122 0.0733
vn 0.7873 0.6122 0.0733
vn 0.7908 0.6080 0.0701
vn 0.7920 0.6075 0.0606
vn -0.7598 0.6453 0.0792
vn -0.7598 0.6453 0.0792
vn -0.7614 0.6445 0.0701
vn -0.7614 0.6445 0.0701
vn -0.7663 0.6390 0.0668
vn -0.7598 0.6453 0.0792
vn 0.7775 0.6249 0.0700
vn 0.7775 0.6249 0.0700
vn 0.7807 0.6216 0.0650
vn 0.7807 0.6216 0.0650
vn 0.7807 0.6215 0.0649
vn 0.7775 0.6249 0.0700
vn -0.7775 0.6249 0.0700
vn -0.7775 0.6249 0.0700
vn -0.7741 0.6286 0.0750
vn -0.7741 0.6286 0.0750
vn -0.7742 0.6285 0.0749
vn -0.7775 0.6249 0.0700
vn -0.5081 0.5672 0.6482
vn -0.5081 0.5670 0.6483
vn -0.5080 0.5671 0.6483
vn -0.5080 0.5671 0.6483
vn -0.5080 0.5672 0.6483
vn -0.5081 0.5672 0.6482
vn 0.5124 0.6888 -0.5128
vn 0.5125 0.6888 -0.5128
vn 0.5124 0.6889 -0.5127
vn 0.5124 0.6889 -0.5127
vn 0.5124 0.6888 -0.5129
vn 0.5124 0.6888 -0.5128
vn 0.0221 0.6034 0.7971
vn 0.0221 0.6034 0.7971
vn 0.0221 0.6034 0.7971
vn 0.0221 0.6034 0.7971
vn 0.0221 0.6034 0.7971
vn 0.0221 0.6034 0.7971
vn -0.0251 0.6563 -0.7541
vn -0.0252 0.6565 -0.7539
vn -0.0253 0.6564 -0.7539
vn -0.0253 0.6564 -0.7539
vn -0.0251 0.6564 -0.7540
vn -0.0251 0.6563 -0.7541
vn 0.1482 0.5964 0.7889
vn 0.1482 0.5964 0.7889
vn 0.1482 0.5965 0.7888
vn 0.1482 0.5965 0.7888
vn 0.1482 0.5965 0.7888
vn 0.1482 0.5964 0.7889
vn -0.1654 0.6609 -0.7321
vn -0.1654 0.6608 -0.7321
vn -0.1654 0.6608 -0.7321
vn -0.1654 0.6608 -0.7321
vn -0.1654 0.6608 -0.7321
vn -0.1654 0.6609 -0.7321
vn 0.3176 0.5560 0.7681
vn 0.3176 0.5558 0.7683
vn 0.3176 0.5560 0.7682
vn 0.3176 0.5560 0.7682
vn 0.3176 0.5556 0.7684
vn 0.3176 0.5560 0.7681
vn -0.3210 0.7026 -0.6351
vn -0.3209 0.7026 -0.6351
vn -0.3211 0.7026 -0.6350
vn -0.3211 0.7026 -0.6350
vn -0.3209 0.7026 -0.6351
vn -0.3210 0.7026 -0.6351
vn 0.3176 0.5558 0.7683
vn 0.3176 0.5558 0.7683
vn 0.3177 0.5556 0.7684
vn 0.3177 0.5556 0.7684
vn 0.3177 0.5556 0.7684
vn 0.3176 0.5558 0.7683
vn -0.3210 0.7026 -0.6351
vn -0.3209 0.7026 -0.6351
vn -0.3209 0.7026 -0.6351
vn -0.3209 0.7026 -0.6351
vn -0.3209 0.7026 -0.6351
vn -0.3210 0.7026 -0.6351
vn -0.7017 0.6595 0.2696
vn -0.7017 0.6595 0.2695
vn -0.7017 0.6595 0.2695
vn -0.7017 0.6595 0.2695
vn -0.7018 0.6594 0.2695
vn -0.7017 0.6595 0.2696
vn 0.7822 0.6044 -0.1512
vn 0.7823 0.6043 -0.1513
vn 0.7821 0.6045 -0.1513
vn 0.7821 0.6045 -0.1513
vn 0.7822 0.6044 -0.1512
vn 0.7822 0.6044 -0.1512
vn -0.7017 0.6595 0.2695
vn -0.7017 0.6595 0.2696
vn -0.7016 0.6596 0.2694
vn -0.7016 0.6596 0.2694
vn -0.7016 0.6596 0.2694
vn -0.7017 0.6595 0.2695
vn 0.7822 0.6044 -0.1512
vn 0.7823 0.6043 -0.1513
vn 0.7823 0.6043 -0.1513
vn 0.7823 0.6043 -0.1513
vn 0.7822 0.6044 -0.1512
vn 0.7822 0.6044 -0.1512
vn -0.3986 0.5595 0.7267
vn -0.3985 0.5597 0.7266
vn -0.3985 0.5597 0.7266
vn -0.3985 0.5597 0.7266
vn -0.3985 0.5597 0.7266
vn -0.3986 0.5595 0.7267
vn 0.4024 0.6978 -0.5925
vn 0.4025 0.6976 -0.5928
vn 0.4025 0.6976 -0.5927
vn 0.4025 0.6976 -0.5927
vn 0.4024 0.6979 -0.5925
vn 0.4024 0.6978 -0.5925
vn -0.0100 0.6524 0.7578
vn -0.0101 0.6524 0.7578
vn -0.0101 0.6521 0.7581
vn -0.0101 0.6521 0.7581
vn -0.0100 0.6524 0.7578
vn -0.0100 0.6524 0.7578
vn 0.0124 0.6338 -0.7734
vn 0.0124 0.6338 -0.7734
vn 0.0123 0.6338 -0.7734
vn 0.0123 0.6338 -0.7734
vn 0.0124 0.6335 -0.7736
vn 0.0124 0.6338 -0.7734
vn 0.5568 0.6386 0.5311
vn 0.5568 0.6386 0.5312
vn 0.5569 0.6383 0.5314
vn 0.5569 0.6383 0.5314
vn 0.5568 0.6387 0.5311
vn 0.5568 0.6386 0.5311
vn -0.6343 0.6256 -0.4542
vn -0.6342 0.6258 -0.4541
vn -0.6344 0.6254 -0.4543
vn -0.6344 0.6254 -0.4543
vn -0.6343 0.6256 -0.4542
vn -0.6343 0.6256 -0.4542
vn 0.7626 0.6354 -0.1213
vn 0.7624 0.6356 -0.1213
vn 0.7626 0.6354 -0.1213
vn 0.7626 0.6354 -0.1213
vn 0.7623 0.6358 -0.1213
vn 0.7626 0.6354 -0.1213
vn -0.7455 0.6149 0.2570
vn -0.7454 0.6151 0.2570
vn -0.7454 0.6151 0.2570
vn -0.7454 0.6151 0.2570
vn -0.7456 0.6149 0.2570
vn -0.7455 0.6149 0.2570
vn 0.4295 0.6649 -0.6110
vn 0.4297 0.6648 -0.6111
vn 0.4297 0.6648 -0.6111
vn 0.4297 0.6648 -0.6111
vn 0.4298 0.6645 -0.6113
vn 0.4295 0.6649 -0.6110
vn -0.3991 0.5886 0.7030
vn -0.3990 0.5889 0.7028
vn -0.3991 0.5889 0.7028
vn -0.3991 0.5889 0.7028
vn -0.3991 0.5888 0.7029
vn -0.3991 0.5886 0.7030
vn -0.5495 0.6218 0.5579
vn -0.5524 0.6199 0.5573
vn -0.5814 0.6006 0.5489
vn -0.5814 0.6006 0.5489
vn -0.5815 0.6005 0.5488
vn -0.5495 0.6218 0.5579
vn 0.6183 0.6519 -0.4391
vn 0.6115 0.6373 -0.4690
vn 0.6106 0.6362 -0.4716
vn 0.6106 0.6362 -0.4716
vn 0.6183 0.6519 -0.4391
vn 0.6183 0.6519 -0.4391
vn -0.5707 0.6012 0.5594
vn -0.5707 0.6011 0.5594
vn -0.5467 0.6193 0.5635
vn -0.5467 0.6193 0.5635
vn -0.5441 0.6215 0.5637
vn -0.5707 0.6012 0.5594
vn 0.6091 0.6514 -0.4524
vn 0.6092 0.6514 -0.4524
vn 0.6050 0.6365 -0.4784
vn 0.6050 0.6365 -0.4784
vn 0.6054 0.6380 -0.4759
vn 0.6091 0.6514 -0.4524
vn -0.5441 0.6215 0.5637
vn -0.5467 0.6193 0.5635
vn -0.5524 0.6199 0.5573
vn -0.5524 0.6199 0.5573
vn -0.5495 0.6218 0.5579
vn -0.5441 0.6215 0.5637
vn 0.6054 0.6380 -0.4759
vn 0.6050 0.6365 -0.4784
vn 0.6106 0.6362 -0.4716
vn 0.6106 0.6362 -0.4716
vn 0.6115 0.6373 -0.4690
vn 0.6054 0.6380 -0.4759
vn -0.5706 0.6028 0.5577
vn -0.5706 0.6029 0.5576
vn -0.5707 0.6011 0.5594
vn -0.5707 0.6011 0.5594
vn -0.5707 0.6012 0.5594
vn -0.5706 0.6028 0.5577
vn 0.6109 0.6499 -0.4521
vn 0.6109 0.6499 -0.4521
vn 0.6092 0.6514 -0.4524
vn 0.6092 0.6514 -0.4524
vn 0.6091 0.6514 -0.4524
vn 0.6109 0.6499 -0.4521
vn 0.5061 0.5416 0.6712
vn 0.5028 0.5438 0.6719
vn 0.4941 0.5505 0.6729
vn 0.4941 0.5505 0.6729
vn 0.4941 0.5505 0.6729
vn 0.5061 0.5416 0.6712
vn -0.4770 0.7152 -0.5108
vn -0.4717 0.7315 -0.4924
vn -0.4693 0.7381 -0.4848
vn -0.4693 0.7381 -0.4848
vn -0.4770 0.7152 -0.5108
vn -0.4770 0.7152 -0.5108
vn 0.5083 0.5491 0.6634
vn 0.5082 0.5491 0.6635
vn 0.5139 0.5415 0.6654
vn 0.5139 0.5415 0.6654
vn 0.5140 0.5413 0.6654
vn 0.5083 0.5491 0.6634
vn -0.4864 0.7191 -0.4964
vn -0.4863 0.7191 -0.4963
vn -0.4748 0.7394 -0.4773
vn -0.4748 0.7394 -0.4773
vn -0.4749 0.7393 -0.4774
vn -0.4864 0.7191 -0.4964
vn 0.5140 0.5413 0.6654
vn 0.5139 0.5415 0.6654
vn 0.5028 0.5438 0.6719
vn 0.5028 0.5438 0.6719
vn 0.5061 0.5416 0.6712
vn 0.5140 0.5413 0.6654
vn -0.4749 0.7393 -0.4774
vn -0.4748 0.7394 -0.4773
vn -0.4693 0.7381 -0.4848
vn -0.4693 0.7381 -0.4848
vn -0.4717 0.7315 -0.4924
vn -0.4749 0.7393 -0.4774
vn 0.5035 0.5512 0.6653
vn 0.5035 0.5512 0.6653
vn 0.5082 0.5491 0.6635
vn 0.5082 0.5491 0.6635
vn 0.5083 0.5491 0.6634
vn 0.5035 0.5512 0.6653
vn -0.4860 0.7145 -0.5033
vn -0.4860 0.7145 -0.5033
vn -0.4863 0.7191 -0.4963
vn -0.4863 0.7191 -0.4963
vn -0.4864 0.7191 -0.4964
vn -0.4860 0.7145 -0.5033
vn -0.7710 0.6347 0.0531
vn -0.7709 0.6347 0.0530
vn -0.7708 0.6349 0.0530
vn -0.7708 0.6349 0.0530
vn -0.7709 0.6347 0.0530
vn -0.7710 0.6347 0.0531
vn 0.7832 0.6157 0.0872
vn 0.7832 0.6157 0.0872
vn 0.7831 0.6157 0.0872
vn 0.7831 0.6157 0.0872
vn 0.7832 0.6156 0.0872
vn 0.7832 0.6157 0.0872
vn -0.5354 0.6196 0.5740
vn -0.5354 0.6196 0.5739
vn -0.5354 0.6195 0.5741
vn -0.5354 0.6195 0.5741
vn -0.5354 0.6196 0.5740
vn -0.5354 0.6196 0.5740
vn 0.5946 0.6380 -0.4892
vn 0.5945 0.6381 -0.4892
vn 0.5946 0.6380 -0.4893
vn 0.5946 0.6380 -0.4893
vn 0.5946 0.6381 -0.4893
vn 0.5946 0.6380 -0.4892
vn -0.4532 0.5984 0.6607
vn -0.4532 0.5984 0.6607
vn -0.4531 0.5984 0.6608
vn -0.4531 0.5984 0.6608
vn -0.4532 0.5984 0.6607
vn -0.4532 0.5984 0.6607
vn 0.4926 0.6558 -0.5720
vn 0.4926 0.6558 -0.5721
vn 0.4926 0.6558 -0.5721
vn 0.4926 0.6558 -0.5721
vn 0.4926 0.6558 -0.5721
vn 0.4926 0.6558 -0.5720
vn -0.3575 0.5467 0.7572
vn -0.3576 0.5465 0.7573
vn -0.3577 0.5467 0.7571
vn -0.3577 0.5467 0.7571
vn -0.3577 0.5467 0.7571
vn -0.3575 0.5467 0.7572
vn 0.3496 0.7189 -0.6009
vn 0.3498 0.7187 -0.6009
vn 0.3495 0.7188 -0.6010
vn 0.3495 0.7188 -0.6010
vn 0.3497 0.7188 -0.6008
vn 0.3496 0.7189 -0.6009
vn -0.3575 0.5465 0.7573
vn -0.3575 0.5465 0.7574
vn -0.3575 0.5464 0.7573
vn -0.3575 0.5464 0.7573
vn -0.3576 0.5465 0.7573
vn -0.3575 0.5465 0.7573
vn 0.3496 0.7189 -0.6009
vn 0.3497 0.7187 -0.6010
vn 0.3497 0.7188 -0.6009
vn 0.3497 0.7188 -0.6009
vn 0.3496 0.7189 -0.6008
vn 0.3496 0.7189 -0.6009
vn -0.5775 0.7582 -0.3027
vn -0.5775 0.7582 -0.3027
vn -0.5774 0.7582 -0.3028
vn -0.5774 0.7582 -0.3028
vn -0.5775 0.7583 -0.3026
vn -0.5775 0.7582 -0.3027
vn 0.6679 0.5455 0.5063
vn 0.6678 0.5455 0.5064
vn 0.6679 0.5454 0.5064
vn 0.6679 0.5454 0.5064
vn 0.6679 0.5455 0.5064
vn 0.6679 0.5455 0.5063
vn -0.5775 0.7582 -0.3027
vn -0.5774 0.7583 -0.3026
vn -0.5774 0.7583 -0.3027
vn -0.5774 0.7583 -0.3027
vn -0.5775 0.7582 -0.3026
vn -0.5775 0.7582 -0.3027
vn 0.6679 0.5455 0.5063
vn 0.6679 0.5455 0.5063
vn 0.6680 0.5454 0.5063
vn 0.6680 0.5454 0.5063
vn 0.6679 0.5455 0.5063
vn 0.6679 0.5455 0.5063
vn -0.7652 0.6173 0.1828
vn -0.7652 0.6173 0.1828
vn -0.7652 0.6173 0.1829
vn -0.7652 0.6173 0.1829
vn -0.7652 0.6173 0.1828
vn -0.7652 0.6173 0.1828
vn 0.7729 0.6330 -0.0441
vn 0.7731 0.6328 -0.0441
vn 0.7731 0.6328 -0.0440
vn 0.7731 0.6328 -0.0440
vn 0.7731 0.6328 -0.0440
vn 0.7729 0.6330 -0.0441
vn -0.5056 0.6703 0.5432
vn -0.5058 0.6701 0.5433
vn -0.5057 0.6702 0.5433
vn -0.5057 0.6702 0.5433
vn -0.5059 0.6701 0.5433
vn -0.5056 0.6703 0.5432
vn 0.6109 0.6149 -0.4986
vn 0.6109 0.6151 -0.4985
vn 0.6108 0.6151 -0.4985
vn 0.6108 0.6151 -0.4985
vn 0.6109 0.6149 -0.4986
vn 0.6109 0.6149 -0.4986
vn 0.0187 0.5843 0.8114
vn 0.0187 0.5843 0.8114
vn 0.0187 0.5843 0.8114
vn 0.0187 0.5843 0.8114
vn 0.0187 0.5842 0.8114
vn 0.0187 0.5843 0.8114
vn -0.0204 0.6711 -0.7411
vn -0.0203 0.6708 -0.7413
vn -0.0203 0.6711 -0.7411
vn -0.0203 0.6711 -0.7411
vn -0.0204 0.6709 -0.7412
vn -0.0204 0.6711 -0.7411
vn 0.6419 0.5593 0.5246
vn 0.6419 0.5592 0.5247
vn 0.6419 0.5592 0.5247
vn 0.6419 0.5592 0.5247
vn 0.6418 0.5592 0.5248
vn 0.6419 0.5593 0.5246
vn -0.6092 0.7065 -0.3602
vn -0.6093 0.7064 -0.3602
vn -0.6093 0.7064 -0.3602
vn -0.6093 0.7064 -0.3602
vn -0.6092 0.7065 -0.3602
vn -0.6092 0.7065 -0.3602
vn 0.7936 0.6061 -0.0536
vn 0.7936 0.6061 -0.0536
vn 0.7936 0.6061 -0.0536
vn 0.7936 0.6061 -0.0536
vn 0.7933 0.6064 -0.0536
vn 0.7936 0.6061 -0.0536
vn -0.7359 0.6512 0.1854
vn -0.7361 0.6510 0.1854
vn -0.7361 0.6510 0.1854
vn -0.7361 0.6510 0.1854
vn -0.7359 0.6513 0.1853
vn -0.7359 0.6512 0.1854
vn 0.4901 0.6078 0.6248
vn 0.4890 0.6061 0.6273
vn 0.4770 0.5856 0.6553
vn 0.4770 0.5856 0.6553
vn 0.4771 0.5855 0.6554
vn 0.4901 0.6078 0.6248
vn -0.5039 0.6673 -0.5484
vn -0.5353 0.6493 -0.5402
vn -0.5383 0.6475 -0.5394
vn -0.5383 0.6475 -0.5394
vn -0.5039 0.6672 -0.5486
vn -0.5039 0.6673 -0.5484
vn 0.4885 0.5873 0.6453
vn 0.4885 0.5873 0.6453
vn 0.4956 0.6059 0.6223
vn 0.4956 0.6059 0.6223
vn 0.4960 0.6083 0.6197
vn 0.4885 0.5873 0.6453
vn -0.5168 0.6654 -0.5387
vn -0.5168 0.6653 -0.5388
vn -0.5446 0.6473 -0.5333
vn -0.5446 0.6473 -0.5333
vn -0.5419 0.6491 -0.5338
vn -0.5168 0.6654 -0.5387
vn 0.4960 0.6083 0.6197
vn 0.4956 0.6059 0.6223
vn 0.4890 0.6061 0.6273
vn 0.4890 0.6061 0.6273
vn 0.4901 0.6078 0.6248
vn 0.4960 0.6083 0.6197
vn -0.5419 0.6491 -0.5338
vn -0.5446 0.6473 -0.5333
vn -0.5383 0.6475 -0.5394
vn -0.5383 0.6475 -0.5394
vn -0.5353 0.6493 -0.5402
vn -0.5419 0.6491 -0.5338
vn 0.4869 0.5888 0.6452
vn 0.4869 0.5888 0.6452
vn 0.4885 0.5873 0.6453
vn 0.4885 0.5873 0.6453
vn 0.4885 0.5873 0.6453
vn 0.4869 0.5888 0.6452
vn -0.5168 0.6638 -0.5406
vn -0.5168 0.6638 -0.5406
vn -0.5168 0.6653 -0.5388
vn -0.5168 0.6653 -0.5388
vn -0.5168 0.6654 -0.5387
vn -0.5168 0.6638 -0.5406
vn 0.6391 0.6107 -0.4677
vn 0.6405 0.6120 -0.4638
vn 0.6433 0.6171 -0.4532
vn 0.6433 0.6171 -0.4532
vn 0.6431 0.6173 -0.4532
vn 0.6391 0.6107 -0.4677
vn -0.5477 0.6577 0.5172
vn -0.5296 0.6748 0.5140
vn -0.5223 0.6816 0.5125
vn -0.5223 0.6816 0.5125
vn -0.5478 0.6576 0.5172
vn -0.5477 0.6577 0.5172
vn 0.6328 0.6164 -0.4687
vn 0.6328 0.6164 -0.4687
vn 0.6325 0.6109 -0.4761
vn 0.6325 0.6109 -0.4761
vn 0.6326 0.6108 -0.4762
vn 0.6328 0.6164 -0.4687
vn -0.5341 0.6614 0.5266
vn -0.5340 0.6614 0.5266
vn -0.5150 0.6830 0.5179
vn -0.5150 0.6830 0.5179
vn -0.5152 0.6829 0.5180
vn -0.5341 0.6614 0.5266
vn 0.6326 0.6108 -0.4762
vn 0.6325 0.6109 -0.4761
vn 0.6405 0.6120 -0.4638
vn 0.6405 0.6120 -0.4638
vn 0.6391 0.6107 -0.4677
vn 0.6326 0.6108 -0.4762
vn -0.5152 0.6829 0.5180
vn -0.5150 0.6830 0.5179
vn -0.5223 0.6816 0.5125
vn -0.5223 0.6816 0.5125
vn -0.5296 0.6748 0.5140
vn -0.5152 0.6829 0.5180
vn 0.6353 0.6179 -0.4633
vn 0.6353 0.6179 -0.4633
vn 0.6328 0.6164 -0.4687
vn 0.6328 0.6164 -0.4687
vn 0.6328 0.6164 -0.4687
vn 0.6353 0.6179 -0.4633
vn -0.5408 0.6566 0.5257
vn -0.5408 0.6566 0.5257
vn -0.5340 0.6614 0.5266
vn -0.5340 0.6614 0.5266
vn -0.5341 0.6614 0.5266
vn -0.5408 0.6566 0.5257
vn -0.0218 0.5856 0.8103
vn -0.0217 0.5856 0.8103
vn -0.0219 0.5856 0.8103
vn -0.0219 0.5856 0.8103
vn -0.0219 0.5856 0.8103
vn -0.0218 0.5856 0.8103
vn 0.0239 0.6698 -0.7421
vn 0.0240 0.6698 -0.7421
vn 0.0237 0.6698 -0.7421
vn 0.0237 0.6698 -0.7421
vn 0.0239 0.6698 -0.7422
vn 0.0239 0.6698 -0.7421
vn 0.5069 0.6073 0.6117
vn 0.5070 0.6074 0.6116
vn 0.5070 0.6073 0.6117
vn 0.5070 0.6073 0.6117
vn 0.5070 0.6073 0.6116
vn 0.5069 0.6073 0.6117
vn -0.5547 0.6476 -0.5225
vn -0.5546 0.6477 -0.5224
vn -0.5547 0.6476 -0.5224
vn -0.5547 0.6476 -0.5224
vn -0.5546 0.6476 -0.5225
vn -0.5547 0.6476 -0.5225
vn 0.5991 0.5963 0.5343
vn 0.5992 0.5963 0.5343
vn 0.5992 0.5961 0.5344
vn 0.5992 0.5961 0.5344
vn 0.5992 0.5963 0.5343
vn 0.5991 0.5963 0.5343
vn -0.6292 0.6555 -0.4176
vn -0.6293 0.6554 -0.4176
vn -0.6294 0.6553 -0.4177
vn -0.6294 0.6553 -0.4177
vn -0.6293 0.6555 -0.4176
vn -0.6292 0.6555 -0.4176
vn 0.6999 0.5600 0.4434
vn 0.6999 0.5600 0.4434
vn 0.6999 0.5601 0.4433
vn 0.6999 0.5601 0.4433
vn 0.6998 0.5600 0.4434
vn 0.6999 0.5600 0.4434
vn -0.6476 0.7112 -0.2736
vn -0.6476 0.7111 -0.2737
vn -0.6476 0.7111 -0.2737
vn -0.6476 0.7111 -0.2737
vn -0.6476 0.7112 -0.2736
vn -0.6476 0.7112 -0.2736
vn 0.6999 0.5600 0.4434
vn 0.6999 0.5600 0.4434
vn 0.6998 0.5602 0.4433
vn 0.6998 0.5602 0.4433
vn 0.6998 0.5602 0.4433
vn 0.6999 0.5600 0.4434
vn -0.6476 0.7112 -0.2736
vn -0.6476 0.7112 -0.2736
vn -0.6476 0.7112 -0.2736
vn -0.6476 0.7112 -0.2736
vn -0.6476 0.7112 -0.2736
vn -0.6476 0.7112 -0.2736
vn -0.3494 0.7020 0.6206
vn -0.3494 0.7020 0.6206
vn -0.3495 0.7019 0.6207
vn -0.3495 0.7019 0.6207
vn -0.3495 0.7019 0.6207
vn -0.3494 0.7020 0.6206
vn 0.4550 0.6187 -0.6405
vn 0.4552 0.6184 -0.6406
vn 0.4552 0.6186 -0.6404
vn 0.4552 0.6186 -0.6404
vn 0.4550 0.6187 -0.6405
vn 0.4550 0.6187 -0.6405
vn -0.3494 0.7020 0.6206
vn -0.3494 0.7020 0.6206
vn -0.3493 0.7020 0.6206
vn -0.3493 0.7020 0.6206
vn -0.3494 0.7020 0.6206
vn -0.3494 0.7020 0.6206
vn 0.4550 0.6186 -0.6406
vn 0.4551 0.6187 -0.6404
vn 0.4550 0.6187 -0.6405
vn 0.4550 0.6187 -0.6405
vn 0.4550 0.6187 -0.6405
vn 0.4550 0.6186 -0.6406
vn 0.1031 0.5747 0.8119
vn 0.1030 0.5747 0.8119
vn 0.1030 0.5747 0.8119
vn 0.1030 0.5747 0.8119
vn 0.1030 0.5750 0.8116
vn 0.1031 0.5747 0.8119
vn -0.1104 0.6799 -0.7250
vn -0.1104 0.6797 -0.7251
vn -0.1104 0.6797 -0.7251
vn -0.1104 0.6797 -0.7251
vn -0.1105 0.6799 -0.7250
vn -0.1104 0.6799 -0.7250
vn 0.4800 0.6561 0.5823
vn 0.4800 0.6561 0.5823
vn 0.4801 0.6561 0.5823
vn 0.4801 0.6561 0.5823
vn 0.4802 0.6559 0.5824
vn 0.4800 0.6561 0.5823
vn -0.5706 0.6215 -0.5368
vn -0.5708 0.6212 -0.5369
vn -0.5706 0.6215 -0.5368
vn -0.5706 0.6215 -0.5368
vn -0.5707 0.6214 -0.5369
vn -0.5706 0.6215 -0.5368
vn 0.7820 0.6206 0.0574
vn 0.7819 0.6208 0.0574
vn 0.7821 0.6205 0.0576
vn 0.7821 0.6205 0.0576
vn 0.7820 0.6206 0.0573
vn 0.7820 0.6206 0.0574
vn -0.7726 0.6296 0.0824
vn -0.7726 0.6296 0.0824
vn -0.7726 0.6296 0.0824
vn -0.7726 0.6296 0.0824
vn -0.7725 0.6296 0.0825
vn -0.7726 0.6296 0.0824
vn 0.4833 0.6279 -0.6100
vn 0.4834 0.6279 -0.6100
vn 0.4833 0.6279 -0.6100
vn 0.4833 0.6279 -0.6100
vn 0.4833 0.6279 -0.6100
vn 0.4833 0.6279 -0.6100
vn -0.4070 0.6474 0.6443
vn -0.4071 0.6473 0.6445
vn -0.4072 0.6472 0.6444
vn -0.4072 0.6472 0.6444
vn -0.4070 0.6474 0.6444
vn -0.4070 0.6474 0.6443
vn -0.1262 0.6526 -0.7471
vn -0.1263 0.6526 -0.7471
vn -0.1263 0.6525 -0.7472
vn -0.1263 0.6525 -0.7472
vn -0.1263 0.6525 -0.7472
vn -0.1262 0.6526 -0.7471
vn 0.1106 0.6091 0.7854
vn 0.1106 0.6092 0.7852
vn 0.1107 0.6092 0.7852
vn 0.1107 0.6092 0.7852
vn 0.1106 0.6093 0.7852
vn 0.1106 0.6091 0.7854
vn 0.6121 0.6520 -0.4474
vn 0.6149 0.6504 -0.4461
vn 0.6433 0.6336 -0.4298
vn 0.6433 0.6336 -0.4298
vn 0.6432 0.6336 -0.4299
vn 0.6121 0.6520 -0.4474
vn -0.5815 0.6237 0.5223
vn -0.5756 0.6022 0.5532
vn -0.5749 0.6004 0.5558
vn -0.5749 0.6004 0.5558
vn -0.5814 0.6238 0.5223
vn -0.5815 0.6237 0.5223
vn 0.6328 0.6353 -0.4427
vn 0.6328 0.6352 -0.4427
vn 0.6094 0.6505 -0.4532
vn 0.6094 0.6505 -0.4532
vn 0.6067 0.6525 -0.4541
vn 0.6328 0.6353 -0.4427
vn -0.5725 0.6219 0.5343
vn -0.5726 0.6219 0.5342
vn -0.5695 0.5999 0.5619
vn -0.5695 0.5999 0.5619
vn -0.5698 0.6022 0.5592
vn -0.5725 0.6219 0.5343
vn 0.6067 0.6525 -0.4541
vn 0.6094 0.6505 -0.4532
vn 0.6149 0.6504 -0.4461
vn 0.6149 0.6504 -0.4461
vn 0.6121 0.6520 -0.4474
vn 0.6067 0.6525 -0.4541
vn -0.5698 0.6022 0.5592
vn -0.5695 0.5999 0.5619
vn -0.5749 0.6004 0.5558
vn -0.5749 0.6004 0.5558
vn -0.5756 0.6022 0.5532
vn -0.5698 0.6022 0.5592
vn 0.6327 0.6364 -0.4412
vn 0.6327 0.6364 -0.4412
vn 0.6328 0.6352 -0.4427
vn 0.6328 0.6352 -0.4427
vn 0.6328 0.6353 -0.4427
vn 0.6327 0.6364 -0.4412
vn -0.5744 0.6201 0.5344
vn -0.5744 0.6200 0.5344
vn -0.5726 0.6219 0.5342
vn -0.5726 0.6219 0.5342
vn -0.5725 0.6219 0.5343
vn -0.5744 0.6201 0.5344
vn -0.5562 0.6159 -0.5579
vn -0.5505 0.6176 -0.5617
vn -0.5358 0.6230 -0.5699
vn -0.5358 0.6230 -0.5699
vn -0.5357 0.6230 -0.5700
vn -0.5562 0.6159 -0.5579
vn 0.4486 0.6552 0.6078
vn 0.4488 0.6730 0.5879
vn 0.4485 0.6802 0.5797
vn 0.4485 0.6802 0.5797
vn 0.4486 0.6552 0.6078
vn 0.4486 0.6552 0.6078
vn -0.5515 0.6210 -0.5570
vn -0.5515 0.6210 -0.5570
vn -0.5646 0.6151 -0.5504
vn -0.5646 0.6151 -0.5504
vn -0.5646 0.6151 -0.5503
vn -0.5515 0.6210 -0.5570
vn 0.4595 0.6599 0.5945
vn 0.4595 0.6599 0.5945
vn 0.4547 0.6820 0.5729
vn 0.4547 0.6820 0.5729
vn 0.4547 0.6818 0.5730
vn 0.4595 0.6599 0.5945
vn -0.5646 0.6151 -0.5503
vn -0.5646 0.6151 -0.5504
vn -0.5505 0.6176 -0.5617
vn -0.5505 0.6176 -0.5617
vn -0.5562 0.6159 -0.5579
vn -0.5646 0.6151 -0.5503
vn 0.4547 0.6818 0.5730
vn 0.4547 0.6820 0.5729
vn 0.4485 0.6802 0.5797
vn 0.4485 0.6802 0.5797
vn 0.4488 0.6730 0.5879
vn 0.4547 0.6818 0.5730
vn -0.5450 0.6229 -0.5612
vn -0.5450 0.6229 -0.5612
vn -0.5515 0.6210 -0.5570
vn -0.5515 0.6210 -0.5570
vn -0.5515 0.6210 -0.5570
vn -0.5450 0.6229 -0.5612
vn 0.4575 0.6547 0.6018
vn 0.4574 0.6547 0.6017
vn 0.4595 0.6599 0.5945
vn 0.4595 0.6599 0.5945
vn 0.4595 0.6599 0.5945
vn 0.4575 0.6547 0.6018
vn 0.7813 0.6148 0.1073
vn 0.7814 0.6147 0.1074
vn 0.7816 0.6145 0.1072
vn 0.7816 0.6145 0.1072
vn 0.7815 0.6147 0.1072
vn 0.7813 0.6148 0.1073
vn -0.7711 0.6359 0.0330
vn -0.7712 0.6358 0.0333
vn -0.7711 0.6359 0.0333
vn -0.7711 0.6359 0.0333
vn -0.7712 0.6358 0.0331
vn -0.7711 0.6359 0.0330
vn 0.5982 0.6520 -0.4658
vn 0.5982 0.6520 -0.4658
vn 0.5983 0.6519 -0.4659
vn 0.5983 0.6519 -0.4659
vn 0.5983 0.6520 -0.4657
vn 0.5982 0.6520 -0.4658
vn -0.5595 0.6007 0.5711
vn -0.5595 0.6006 0.5712
vn -0.5595 0.6007 0.5710
vn -0.5595 0.6007 0.5710
vn -0.5595 0.6007 0.5711
vn -0.5595 0.6007 0.5711
vn 0.5147 0.6447 -0.5652
vn 0.5146 0.6447 -0.5653
vn 0.5146 0.6447 -0.5652
vn 0.5146 0.6447 -0.5652
vn 0.5147 0.6446 -0.5653
vn 0.5147 0.6447 -0.5652
vn -0.4623 0.6128 0.6409
vn -0.4622 0.6130 0.6408
vn -0.4623 0.6128 0.6409
vn -0.4623 0.6128 0.6409
vn -0.4623 0.6128 0.6409
vn -0.4623 0.6128 0.6409
vn 0.4068 0.6221 -0.6689
vn 0.4066 0.6223 -0.6688
vn 0.4070 0.6220 -0.6689
vn 0.4070 0.6220 -0.6689
vn 0.4068 0.6221 -0.6689
vn 0.4068 0.6221 -0.6689
vn -0.3222 0.6797 0.6590
vn -0.3222 0.6796 0.6590
vn -0.3220 0.6799 0.6588
vn -0.3220 0.6799 0.6588
vn -0.3222 0.6796 0.6590
vn -0.3222 0.6797 0.6590
vn 0.4068 0.6221 -0.6690
vn 0.4068 0.6221 -0.6689
vn 0.4068 0.6221 -0.6689
vn 0.4068 0.6221 -0.6689
vn 0.4068 0.6221 -0.6689
vn 0.4068 0.6221 -0.6690
vn -0.3223 0.6796 0.6590
vn -0.3222 0.6797 0.6590
vn -0.3221 0.6800 0.6587
vn -0.3221 0.6800 0.6587
vn -0.3223 0.6797 0.6589
vn -0.3223 0.6796 0.6590
vn 0.5716 0.7092 0.4127
vn 0.5716 0.7093 0.4126
vn 0.5716 0.7093 0.4126
vn 0.5716 0.7093 0.4126
vn 0.5716 0.7093 0.4126
vn 0.5716 0.7092 0.4127
vn -0.7170 0.6004 -0.3541
vn -0.7169 0.6005 -0.3542
vn -0.7169 0.6005 -0.3542
vn -0.7169 0.6005 -0.3542
vn -0.7170 0.6004 -0.3541
vn -0.7170 0.6004 -0.3541
vn 0.5716 0.7092 0.4126
vn 0.5716 0.7092 0.4127
vn 0.5716 0.7092 0.4127
vn 0.5716 0.7092 0.4127
vn 0.5717 0.7091 0.4127
vn 0.5716 0.7092 0.4126
vn -0.7170 0.6004 -0.3542
vn -0.7170 0.6005 -0.3541
vn -0.7171 0.6003 -0.3542
vn -0.7171 0.6003 -0.3542
vn -0.7169 0.6005 -0.3541
vn -0.7170 0.6004 -0.3542
vn 0.7916 0.6107 -0.0210
vn 0.7916 0.6107 -0.0211
vn 0.7917 0.6105 -0.0210
vn 0.7917 0.6105 -0.0210
vn 0.7914 0.6109 -0.0210
vn 0.7916 0.6107 -0.0210
vn -0.7498 0.6429 0.1565
vn -0.7498 0.6429 0.1564
vn -0.7498 0.6429 0.1565
vn -0.7498 0.6429 0.1565
vn -0.7498 0.6429 0.1565
vn -0.7498 0.6429 0.1565
vn 0.5690 0.6935 -0.4420
vn 0.5690 0.6934 -0.4420
vn 0.5690 0.6936 -0.4418
vn 0.5690 0.6936 -0.4418
vn 0.5689 0.6935 -0.4420
vn 0.5690 0.6935 -0.4420
vn -0.5770 0.5650 0.5898
vn -0.5772 0.5646 0.5900
vn -0.5769 0.5650 0.5899
vn -0.5769 0.5650 0.5899
vn -0.5770 0.5650 0.5898
vn -0.5770 0.5650 0.5898
vn -0.0019 0.6573 -0.7536
vn -0.0019 0.6573 -0.7536
vn -0.0019 0.6572 -0.7537
vn -0.0019 0.6572 -0.7537
vn -0.0019 0.6573 -0.7536
vn -0.0019 0.6573 -0.7536
vn 0.0017 0.6019 0.7985
vn 0.0017 0.6020 0.7985
vn 0.0016 0.6019 0.7985
vn 0.0016 0.6019 0.7985
vn 0.0017 0.6019 0.7985
vn 0.0017 0.6019 0.7985
vn -0.6779 0.6165 -0.4005
vn -0.6778 0.6165 -0.4006
vn -0.6777 0.6167 -0.4005
vn -0.6777 0.6167 -0.4005
vn -0.6777 0.6166 -0.4005
vn -0.6779 0.6165 -0.4005
vn 0.5862 0.6538 0.4784
vn 0.5862 0.6540 0.4782
vn 0.5862 0.6537 0.4785
vn 0.5862 0.6537 0.4785
vn 0.5862 0.6538 0.4784
vn 0.5862 0.6538 0.4784
vn -0.7724 0.6096 0.1783
vn -0.7724 0.6096 0.1782
vn -0.7725 0.6094 0.1783
vn -0.7725 0.6094 0.1783
vn -0.7723 0.6097 0.1781
vn -0.7724 0.6096 0.1783
vn 0.7666 0.6410 -0.0376
vn 0.7664 0.6412 -0.0376
vn 0.7667 0.6409 -0.0377
vn 0.7667 0.6409 -0.0377
vn 0.7667 0.6409 -0.0376
vn 0.7666 0.6410 -0.0376
vn -0.5273 0.6731 -0.5186
vn -0.5271 0.6714 -0.5209
vn -0.5247 0.6538 -0.5452
vn -0.5247 0.6538 -0.5452
vn -0.5247 0.6538 -0.5452
vn -0.5273 0.6731 -0.5186
vn 0.4836 0.6003 0.6370
vn 0.5060 0.5813 0.6372
vn 0.5080 0.5797 0.6371
vn 0.5080 0.5797 0.6371
vn 0.4836 0.6003 0.6370
vn 0.4836 0.6003 0.6370
vn -0.5352 0.6547 -0.5338
vn -0.5353 0.6547 -0.5338
vn -0.5336 0.6711 -0.5147
vn -0.5336 0.6711 -0.5147
vn -0.5331 0.6732 -0.5125
vn -0.5352 0.6547 -0.5338
vn 0.4956 0.5989 0.6291
vn 0.4955 0.5989 0.6291
vn 0.5143 0.5797 0.6320
vn 0.5143 0.5797 0.6320
vn 0.5126 0.5816 0.6317
vn 0.4956 0.5989 0.6291
vn -0.5331 0.6732 -0.5125
vn -0.5336 0.6711 -0.5147
vn -0.5271 0.6714 -0.5209
vn -0.5271 0.6714 -0.5209
vn -0.5273 0.6731 -0.5186
vn -0.5331 0.6732 -0.5125
vn 0.5126 0.5816 0.6317
vn 0.5143 0.5797 0.6320
vn 0.5080 0.5797 0.6371
vn 0.5080 0.5797 0.6371
vn 0.5060 0.5813 0.6372
vn 0.5126 0.5816 0.6317
vn -0.5329 0.6561 -0.5344
vn -0.5329 0.6561 -0.5344
vn -0.5353 0.6547 -0.5338
vn -0.5353 0.6547 -0.5338
vn -0.5352 0.6547 -0.5338
vn -0.5329 0.6561 -0.5344
vn 0.4948 0.5972 0.6313
vn 0.4948 0.5972 0.6313
vn 0.4955 0.5989 0.6291
vn 0.4955 0.5989 0.6291
vn 0.4956 0.5989 0.6291
vn 0.4948 0.5972 0.6313
vn -0.5821 0.5621 0.5875
vn -0.5832 0.5661 0.5826
vn -0.5853 0.5768 0.5698
vn -0.5853 0.5768 0.5698
vn -0.5853 0.5769 0.5697
vn -0.5821 0.5621 0.5875
vn 0.5930 0.6767 -0.4363
vn 0.5760 0.6917 -0.4356
vn 0.5689 0.6980 -0.4349
vn 0.5689 0.6980 -0.4349
vn 0.5930 0.6767 -0.4363
vn 0.5930 0.6767 -0.4363
vn -0.5749 0.5734 0.5837
vn -0.5749 0.5735 0.5836
vn -0.5758 0.5609 0.5948
vn -0.5758 0.5609 0.5948
vn -0.5758 0.5609 0.5948
vn -0.5749 0.5734 0.5837
vn 0.5795 0.6811 -0.4475
vn 0.5795 0.6812 -0.4475
vn 0.5618 0.6998 -0.4412
vn 0.5618 0.6998 -0.4412
vn 0.5618 0.6998 -0.4412
vn 0.5795 0.6811 -0.4475
vn -0.5758 0.5609 0.5948
vn -0.5758 0.5609 0.5948
vn -0.5832 0.5661 0.5826
vn -0.5832 0.5661 0.5826
vn -0.5821 0.5621 0.5875
vn -0.5758 0.5609 0.5948
vn 0.5618 0.6998 -0.4412
vn 0.5618 0.6998 -0.4412
vn 0.5689 0.6980 -0.4349
vn 0.5689 0.6980 -0.4349
vn 0.5760 0.6917 -0.4356
vn 0.5618 0.6998 -0.4412
vn -0.5772 0.5769 0.5780
vn -0.5772 0.5768 0.5780
vn -0.5749 0.5735 0.5836
vn -0.5749 0.5735 0.5836
vn -0.5749 0.5734 0.5837
vn -0.5772 0.5769 0.5780
vn 0.5861 0.6767 -0.4457
vn 0.5860 0.6767 -0.4456
vn 0.5795 0.6812 -0.4475
vn 0.5795 0.6812 -0.4475
vn 0.5795 0.6811 -0.4475
vn 0.5861 0.6767 -0.4457
vn 0.0070 0.6573 -0.7536
vn 0.0071 0.6573 -0.7536
vn 0.0069 0.6573 -0.7536
vn 0.0069 0.6573 -0.7536
vn 0.0071 0.6573 -0.7536
vn 0.0070 0.6573 -0.7536
vn -0.0062 0.6021 0.7984
vn -0.0063 0.6021 0.7984
vn -0.0061 0.6021 0.7984
vn -0.0061 0.6021 0.7984
vn -0.0062 0.6021 0.7984
vn -0.0062 0.6021 0.7984
vn -0.5440 0.6719 -0.5025
vn -0.5441 0.6719 -0.5025
vn -0.5440 0.6719 -0.5026
vn -0.5440 0.6719 -0.5026
vn -0.5440 0.6719 -0.5026
vn -0.5440 0.6719 -0.5025
vn 0.5248 0.5808 0.6223
vn 0.5247 0.5809 0.6223
vn 0.5247 0.5808 0.6224
vn 0.5247 0.5808 0.6224
vn 0.5248 0.5808 0.6223
vn 0.5248 0.5808 0.6223
vn -0.6364 0.6557 -0.4061
vn -0.6364 0.6557 -0.4062
vn -0.6364 0.6558 -0.4061
vn -0.6364 0.6558 -0.4061
vn -0.6365 0.6557 -0.4062
vn -0.6364 0.6557 -0.4061
vn 0.6079 0.5959 0.5248
vn 0.6078 0.5960 0.5247
vn 0.6079 0.5960 0.5247
vn 0.6079 0.5960 0.5247
vn 0.6079 0.5959 0.5247
vn 0.6079 0.5959 0.5248
vn -0.7449 0.6087 -0.2732
vn -0.7449 0.6087 -0.2732
vn -0.7452 0.6083 -0.2734
vn -0.7452 0.6083 -0.2734
vn -0.7449 0.6087 -0.2733
vn -0.7449 0.6087 -0.2732
vn 0.6526 0.6600 0.3721
vn 0.6525 0.6600 0.3723
vn 0.6526 0.6600 0.3721
vn 0.6526 0.6600 0.3721
vn 0.6525 0.6602 0.3720
vn 0.6526 0.6600 0.3721
vn -0.7450 0.6086 -0.2732
vn -0.7448 0.6088 -0.2732
vn -0.7451 0.6084 -0.2733
vn -0.7451 0.6084 -0.2733
vn -0.7451 0.6084 -0.2733
vn -0.7450 0.6086 -0.2732
vn 0.6525 0.6602 0.3721
vn 0.6526 0.6600 0.3721
vn 0.6526 0.6600 0.3721
vn 0.6526 0.6600 0.3721
vn 0.6526 0.6601 0.3720
vn 0.6525 0.6602 0.3721
vn 0.3916 0.7313 -0.5584
vn 0.3915 0.7314 -0.5584
vn 0.3915 0.7314 -0.5584
vn 0.3915 0.7314 -0.5584
vn 0.3915 0.7314 -0.5584
vn 0.3916 0.7313 -0.5584
vn -0.4118 0.5416 0.7329
vn -0.4118 0.5414 0.7330
vn -0.4118 0.5416 0.7329
vn -0.4118 0.5416 0.7329
vn -0.4117 0.5416 0.7329
vn -0.4118 0.5416 0.7329
vn 0.3915 0.7314 -0.5584
vn 0.3915 0.7314 -0.5584
vn 0.3916 0.7313 -0.5585
vn 0.3916 0.7313 -0.5585
vn 0.3915 0.7314 -0.5584
vn 0.3915 0.7314 -0.5584
vn -0.4118 0.5415 0.7329
vn -0.4117 0.5416 0.7329
vn -0.4118 0.5416 0.7329
vn -0.4118 0.5416 0.7329
vn -0.4117 0.5416 0.7329
vn -0.4118 0.5415 0.7329
vn -0.1358 0.6512 -0.7466
vn -0.1358 0.6512 -0.7467
vn -0.1357 0.6514 -0.7465
vn -0.1357 0.6514 -0.7465
vn -0.1357 0.6514 -0.7465
vn -0.1358 0.6512 -0.7466
vn 0.1184 0.6110 0.7827
vn 0.1184 0.6110 0.7828
vn 0.1184 0.6110 0.7828
vn 0.1184 0.6110 0.7828
vn 0.1183 0.6112 0.7826
vn 0.1184 0.6110 0.7827
vn -0.4990 0.7176 -0.4858
vn -0.4990 0.7176 -0.4859
vn -0.4988 0.7179 -0.4856
vn -0.4988 0.7179 -0.4856
vn -0.4988 0.7179 -0.4856
vn -0.4990 0.7176 -0.4858
vn 0.5214 0.5501 0.6523
vn 0.5214 0.5501 0.6523
vn 0.5214 0.5502 0.6523
vn 0.5214 0.5502 0.6523
vn 0.5214 0.5500 0.6524
vn 0.5214 0.5501 0.6523
vn -0.7614 0.6416 0.0928
vn -0.7613 0.6418 0.0927
vn -0.7615 0.6415 0.0930
vn -0.7615 0.6415 0.0930
vn -0.7613 0.6417 0.0929
vn -0.7614 0.6416 0.0928
vn 0.7907 0.6104 0.0464
vn 0.7907 0.6104 0.0465
vn 0.7907 0.6104 0.0466
vn 0.7907 0.6104 0.0466
vn 0.7907 0.6105 0.0465
vn 0.7907 0.6104 0.0464
vn -0.4314 0.5711 0.6984
vn -0.4314 0.5710 0.6985
vn -0.4314 0.5710 0.6985
vn -0.4314 0.5710 0.6985
vn -0.4313 0.5710 0.6985
vn -0.4314 0.5711 0.6984
vn 0.4453 0.6832 -0.5787
vn 0.4455 0.6830 -0.5788
vn 0.4453 0.6833 -0.5786
vn 0.4453 0.6833 -0.5786
vn 0.4453 0.6833 -0.5786
vn 0.4453 0.6832 -0.5787
vn 0.1209 0.5764 0.8082
vn 0.1208 0.5763 0.8083
vn 0.1208 0.5763 0.8083
vn 0.1208 0.5763 0.8083
vn 0.1208 0.5766 0.8080
vn 0.1209 0.5764 0.8082
vn -0.1300 0.6782 -0.7233
vn -0.1300 0.6784 -0.7231
vn -0.1300 0.6784 -0.7231
vn -0.1300 0.6784 -0.7231
vn -0.1300 0.6781 -0.7234
vn -0.1300 0.6782 -0.7233
# 1200 vertex normals

vt 0.9727 0.5684 0.0000
vt 0.9727 0.5731 0.0000
vt 0.9570 0.5684 0.0000
vt 0.9570 0.5731 0.0000
vt 0.9570 0.5684 0.0000
vt 0.9727 0.5684 0.0000
vt 0.9727 0.5731 0.0000
vt 0.9570 0.5731 0.0000
vt 0.9648 0.5731 0.0000
vt 0.9648 0.5684 0.0000
vt 0.9648 0.5684 0.0000
vt 0.9648 0.5731 0.0000
vt 0.9687 0.5731 0.0000
vt 0.9609 0.5684 0.0000
vt 0.9687 0.5684 0.0000
vt 0.9609 0.5731 0.0000
vt 0.9609 0.5731 0.0000
vt 0.9687 0.5684 0.0000
vt 0.9609 0.5684 0.0000
vt 0.9687 0.5731 0.0000
vt 0.9727 0.5684 0.0000
vt 0.9727 0.5731 0.0000
vt 0.9570 0.5684 0.0000
vt 0.9570 0.5731 0.0000
vt 0.9570 0.5684 0.0000
vt 0.9727 0.5684 0.0000
vt 0.9727 0.5731 0.0000
vt 0.9570 0.5731 0.0000
vt 0.9648 0.5731 0.0000
vt 0.9648 0.5684 0.0000
vt 0.9648 0.5684 0.0000
vt 0.9648 0.5731 0.0000
vt 0.9687 0.5731 0.0000
vt 0.9609 0.5684 0.0000
vt 0.9687 0.5684 0.0000
vt 0.9609 0.5731 0.0000
vt 0.9609 0.5731 0.0000
vt 0.9687 0.5684 0.0000
vt 0.9609 0.5684 0.0000
vt 0.9687 0.5731 0.0000
vt 0.9980 0.4737 0.0000
vt 0.9980 0.6487 0.0000
vt 0.4619 0.4737 0.0000
vt 0.4619 0.6487 0.0000
vt 0.9980 0.4737 0.0000
vt 0.9980 0.6487 0.0000
vt 0.4619 0.6487 0.0000
vt 0.4619 0.4737 0.0000
vt 0.9980 0.4737 0.0000
vt 0.9980 0.6487 0.0000
vt 0.4619 0.4737 0.0000
vt 0.4619 0.6487 0.0000
vt 0.9980 0.4737 0.0000
vt 0.9980 0.6487 0.0000
vt 0.4619 0.6487 0.0000
vt 0.4619 0.4737 0.0000
vt 0.9980 0.4737 0.0000
vt 0.9980 0.6487 0.0000
vt 0.4619 0.4737 0.0000
vt 0.4619 0.6487 0.0000
vt 0.9980 0.4737 0.0000
vt 0.9980 0.6487 0.0000
vt 0.4619 0.6487 0.0000
vt 0.4619 0.4737 0.0000
vt 0.9980 0.4737 0.0000
vt 0.9980 0.6487 0.0000
vt 0.4619 0.4737 0.0000
vt 0.4619 0.6487 0.0000
vt 0.9980 0.4737 0.0000
vt 0.9980 0.6487 0.0000
vt 0.4619 0.6487 0.0000
vt 0.4619 0.4737 0.0000
vt 0.9980 0.4737 0.0000
vt 0.9980 0.6487 0.0000
vt 0.4619 0.4737 0.0000
vt 0.4619 0.6487 0.0000
vt 0.9980 0.4737 0.0000
vt 0.9980 0.6487 0.0000
vt 0.4619 0.6487 0.0000
vt 0.4619 0.4737 0.0000
vt 0.9980 0.4737 0.0000
vt 0.9980 0.6487 0.0000
vt 0.4619 0.4737 0.0000
vt 0.4619 0.6487 0.0000
vt 0.9980 0.4737 0.0000
vt 0.9980 0.6487 0.0000
vt 0.4619 0.6487 0.0000
vt 0.4619 0.4737 0.0000
vt 0.9980 0.4737 0.0000
vt 0.9980 0.6487 0.0000
vt 0.4619 0.4737 0.0000
vt 0.4619 0.6487 0.0000
vt 0.9980 0.4737 0.0000
vt 0.9980 0.6487 0.0000
vt 0.4619 0.6487 0.0000
vt 0.4619 0.4737 0.0000
vt 0.9980 0.4737 0.0000
vt 0.9980 0.6487 0.0000
vt 0.4619 0.4737 0.0000
vt 0.4619 0.6487 0.0000
vt 0.9980 0.4737 0.0000
vt 0.9980 0.6487 0.0000
vt 0.4619 0.6487 0.0000
vt 0.4619 0.4737 0.0000
vt 0.9980 0.6485 0.0000
vt 0.9980 0.8235 0.0000
vt 0.4619 0.6485 0.0000
vt 0.4619 0.8235 0.0000
vt 0.9980 0.6485 0.0000
vt 0.9980 0.8235 0.0000
vt 0.4619 0.8235 0.0000
vt 0.4619 0.6485 0.0000
vt 0.9980 0.4737 0.0000
vt 0.9980 0.6487 0.0000
vt 0.4619 0.4737 0.0000
vt 0.4619 0.6487 0.0000
vt 0.9980 0.4737 0.0000
vt 0.9980 0.6487 0.0000
vt 0.4619 0.6487 0.0000
vt 0.4619 0.4737 0.0000
vt 0.9980 0.6485 0.0000
vt 0.9980 0.8235 0.0000
vt 0.4619 0.6485 0.0000
vt 0.4619 0.8235 0.0000
vt 0.9980 0.6485 0.0000
vt 0.9980 0.8235 0.0000
vt 0.4619 0.8235 0.0000
vt 0.4619 0.6485 0.0000
vt 0.9980 0.4737 0.0000
vt 0.9980 0.6487 0.0000
vt 0.4619 0.4737 0.0000
vt 0.4619 0.6487 0.0000
vt 0.9980 0.4737 0.0000
vt 0.9980 0.6487 0.0000
vt 0.4619 0.6487 0.0000
vt 0.4619 0.4737 0.0000
vt 0.9727 0.5684 0.0000
vt 0.9727 0.5731 0.0000
vt 0.9570 0.5684 0.0000
vt 0.9570 0.5731 0.0000
vt 0.9570 0.5684 0.0000
vt 0.9727 0.5684 0.0000
vt 0.9727 0.5731 0.0000
vt 0.9570 0.5731 0.0000
vt 0.9648 0.5731 0.0000
vt 0.9648 0.5684 0.0000
vt 0.9648 0.5684 0.0000
vt 0.9648 0.5731 0.0000
vt 0.9687 0.5731 0.0000
vt 0.9609 0.5684 0.0000
vt 0.9687 0.5684 0.0000
vt 0.9609 0.5731 0.0000
vt 0.9609 0.5731 0.0000
vt 0.9687 0.5684 0.0000
vt 0.9609 0.5684 0.0000
vt 0.9687 0.5731 0.0000
vt 0.9727 0.5684 0.0000
vt 0.9727 0.5731 0.0000
vt 0.9570 0.5684 0.0000
vt 0.9570 0.5731 0.0000
vt 0.9570 0.5684 0.0000
vt 0.9727 0.5684 0.0000
vt 0.9727 0.5731 0.0000
vt 0.9570 0.5731 0.0000
vt 0.9648 0.5731 0.0000
vt 0.9648 0.5684 0.0000
vt 0.9648 0.5684 0.0000
vt 0.9648 0.5731 0.0000
vt 0.9687 0.5731 0.0000
vt 0.9609 0.5684 0.0000
vt 0.9687 0.5684 0.0000
vt 0.9609 0.5731 0.0000
vt 0.9609 0.5731 0.0000
vt 0.9687 0.5684 0.0000
vt 0.9609 0.5684 0.0000
vt 0.9687 0.5731 0.0000
vt 0.9980 0.4737 0.0000
vt 0.9980 0.6487 0.0000
vt 0.4619 0.4737 0.0000
vt 0.4619 0.6487 0.0000
vt 0.9980 0.4737 0.0000
vt 0.9980 0.6487 0.0000
vt 0.4619 0.6487 0.0000
vt 0.4619 0.4737 0.0000
vt 0.9980 0.4737 0.0000
vt 0.9980 0.6487 0.0000
vt 0.4619 0.4737 0.0000
vt 0.4619 0.6487 0.0000
vt 0.9980 0.4737 0.0000
vt 0.9980 0.6487 0.0000
vt 0.4619 0.6487 0.0000
vt 0.4619 0.4737 0.0000
vt 0.9980 0.4737 0.0000
vt 0.9980 0.6487 0.0000
vt 0.4619 0.4737 0.0000
vt 0.4619 0.6487 0.0000
vt 0.9980 0.4737 0.0000
vt 0.9980 0.6487 0.0000
vt 0.4619 0.6487 0.0000
vt 0.4619 0.4737 0.0000
vt 0.9980 0.4737 0.0000
vt 0.9980 0.6487 0.0000
vt 0.4619 0.4737 0.0000
vt 0.4619 0.6487 0.0000
vt 0.9980 0.4737 0.0000
vt 0.9980 0.6487 0.0000
vt 0.4619 0.6487 0.0000
vt 0.4619 0.4737 0.0000
vt 0.9980 0.4737 0.0000
vt 0.9980 0.6487 0.0000
vt 0.4619 0.4737 0.0000
vt 0.4619 0.6487 0.0000
vt 0.9980 0.4737 0.0000
vt 0.9980 0.6487 0.0000
vt 0.4619 0.6487 0.0000
vt 0.4619 0.4737 0.0000
vt 0.9980 0.4737 0.0000
vt 0.9980 0.6487 0.0000
vt 0.4619 0.4737 0.0000
vt 0.4619 0.6487 0.0000
vt 0.9980 0.4737 0.0000
vt 0.9980 0.6487 0.0000
vt 0.4619 0.6487 0.0000
vt 0.4619 0.4737 0.0000
vt 0.9980 0.4737 0.0000
vt 0.9980 0.6487 0.0000
vt 0.4619 0.4737 0.0000
vt 0.4619 0.6487 0.0000
vt 0.9980 0.4737 0.0000
vt 0.9980 0.6487 0.0000
vt 0.4619 0.6487 0.0000
vt 0.4619 0.4737 0.0000
vt 0.9980 0.4737 0.0000
vt 0.9980 0.6487 0.0000
vt 0.4619 0.4737 0.0000
vt 0.4619 0.6487 0.0000
vt 0.9980 0.4737 0.0000
vt 0.9980 0.6487 0.0000
vt 0.4619 0.6487 0.0000
vt 0.4619 0.4737 0.0000
vt 0.9980 0.6485 0.0000
vt 0.9980 0.8235 0.0000
vt 0.4619 0.6485 0.0000
vt 0.4619 0.8235 0.0000
vt 0.9980 0.6485 0.0000
vt 0.9980 0.8235 0.0000
vt 0.4619 0.8235 0.0000
vt 0.4619 0.6485 0.0000
vt 0.9980 0.4737 0.0000
vt 0.9980 0.6487 0.0000
vt 0.4619 0.4737 0.0000
vt 0.4619 0.6487 0.0000
vt 0.9980 0.4737 0.0000
vt 0.9980 0.6487 0.0000
vt 0.4619 0.6487 0.0000
vt 0.4619 0.4737 0.0000
vt 0.9980 0.4737 0.0000
vt 0.9980 0.6487 0.0000
vt 0.4619 0.4737 0.0000
vt 0.4619 0.6487 0.0000
vt 0.9980 0.4737 0.0000
vt 0.9980 0.6487 0.0000
vt 0.4619 0.6487 0.0000
vt 0.4619 0.4737 0.0000
vt 0.9980 0.4737 0.0000
vt 0.9980 0.6487 0.0000
vt 0.4619 0.4737 0.0000
vt 0.4619 0.6487 0.0000
vt 0.9980 0.4737 0.0000
vt 0.9980 0.6487 0.0000
vt 0.4619 0.6487 0.0000
vt 0.4619 0.4737 0.0000
vt 0.9727 0.5684 0.0000
vt 0.9727 0.5731 0.0000
vt 0.9570 0.5684 0.0000
vt 0.9570 0.5731 0.0000
vt 0.9570 0.5684 0.0000
vt 0.9727 0.5684 0.0000
vt 0.9727 0.5731 0.0000
vt 0.9570 0.5731 0.0000
vt 0.9648 0.5731 0.0000
vt 0.9648 0.5684 0.0000
vt 0.9648 0.5684 0.0000
vt 0.9648 0.5731 0.0000
vt 0.9687 0.5731 0.0000
vt 0.9609 0.5684 0.0000
vt 0.9687 0.5684 0.0000
vt 0.9609 0.5731 0.0000
vt 0.9609 0.5731 0.0000
vt 0.9687 0.5684 0.0000
vt 0.9609 0.5684 0.0000
vt 0.9687 0.5731 0.0000
vt 0.9727 0.5684 0.0000
vt 0.9727 0.5731 0.0000
vt 0.9570 0.5684 0.0000
vt 0.9570 0.5731 0.0000
vt 0.9570 0.5684 0.0000
vt 0.9727 0.5684 0.0000
vt 0.9727 0.5731 0.0000
vt 0.9570 0.5731 0.0000
vt 0.9648 0.5731 0.0000
vt 0.9648 0.5684 0.0000
vt 0.9648 0.5684 0.0000
vt 0.9648 0.5731 0.0000
vt 0.9687 0.5731 0.0000
vt 0.9609 0.5684 0.0000
vt 0.9687 0.5684 0.0000
vt 0.9609 0.5731 0.0000
vt 0.9609 0.5731 0.0000
vt 0.9687 0.5684 0.0000
vt 0.9609 0.5684 0.0000
vt 0.9687 0.5731 0.0000
vt 0.9980 0.4737 0.0000
vt 0.9980 0.6487 0.0000
vt 0.4619 0.4737 0.0000
vt 0.4619 0.6487 0.0000
vt 0.9980 0.4737 0.0000
vt 0.9980 0.6487 0.0000
vt 0.4619 0.6487 0.0000
vt 0.4619 0.4737 0.0000
vt 0.9980 0.4737 0.0000
vt 0.9980 0.6487 0.0000
vt 0.4619 0.4737 0.0000
vt 0.4619 0.6487 0.0000
vt 0.9980 0.4737 0.0000
vt 0.9980 0.6487 0.0000
vt 0.4619 0.6487 0.0000
vt 0.4619 0.4737 0.0000
vt 0.9980 0.4737 0.0000
vt 0.9980 0.6487 0.0000
vt 0.4619 0.4737 0.0000
vt 0.4619 0.6487 0.0000
vt 0.9980 0.4737 0.0000
vt 0.9980 0.6487 0.0000
vt 0.4619 0.6487 0.0000
vt 0.4619 0.4737 0.0000
vt 0.9980 0.4737 0.0000
vt 0.9980 0.6487 0.0000
vt 0.4619 0.4737 0.0000
vt 0.4619 0.6487 0.0000
vt 0.9980 0.4737 0.0000
vt 0.9980 0.6487 0.0000
vt 0.4619 0.6487 0.0000
vt 0.4619 0.4737 0.0000
vt 0.9980 0.4737 0.0000
vt 0.9980 0.6487 0.0000
vt 0.4619 0.4737 0.0000
vt 0.4619 0.6487 0.0000
vt 0.9980 0.4737 0.0000
vt 0.9980 0.6487 0.0000
vt 0.4619 0.6487 0.0000
vt 0.4619 0.4737 0.0000
vt 0.9980 0.4737 0.0000
vt 0.9980 0.6487 0.0000
vt 0.4619 0.4737 0.0000
vt 0.4619 0.6487 0.0000
vt 0.9980 0.4737 0.0000
vt 0.9980 0.6487 0.0000
vt 0.4619 0.6487 0.0000
vt 0.4619 0.4737 0.0000
vt 0.9980 0.4737 0.0000
vt 0.9980 0.6487 0.0000
vt 0.4619 0.4737 0.0000
vt 0.4619 0.6487 0.0000
vt 0.9980 0.4737 0.0000
vt 0.9980 0.6487 0.0000
vt 0.4619 0.6487 0.0000
vt 0.4619 0.4737 0.0000
vt 0.9980 0.4737 0.0000
vt 0.9980 0.6487 0.0000
vt 0.4619 0.4737 0.0000
vt 0.4619 0.6487 0.0000
vt 0.9980 0.4737 0.0000
vt 0.9980 0.6487 0.0000
vt 0.4619 0.6487 0.0000
vt 0.4619 0.4737 0.0000
vt 0.9980 0.4737 0.0000
vt 0.9980 0.6487 0.0000
vt 0.4619 0.4737 0.0000
vt 0.4619 0.6487 0.0000
vt 0.9980 0.4737 0.0000
vt 0.9980 0.6487 0.0000
vt 0.4619 0.6487 0.0000
vt 0.4619 0.4737 0.0000
vt 0.9980 0.6485 0.0000
vt 0.9980 0.8235 0.0000
vt 0.4619 0.6485 0.0000
vt 0.4619 0.8235 0.0000
vt 0.9980 0.6485 0.0000
vt 0.9980 0.8235 0.0000
vt 0.4619 0.8235 0.0000
vt 0.4619 0.6485 0.0000
vt 0.9980 0.4737 0.0000
vt 0.9980 0.6487 0.0000
vt 0.4619 0.4737 0.0000
vt 0.4619 0.6487 0.0000
vt 0.9980 0.4737 0.0000
vt 0.9980 0.6487 0.0000
vt 0.4619 0.6487 0.0000
vt 0.4619 0.4737 0.0000
vt 0.9980 0.4737 0.0000
vt 0.9980 0.6487 0.0000
vt 0.4619 0.4737 0.0000
vt 0.4619 0.6487 0.0000
vt 0.9980 0.4737 0.0000
vt 0.9980 0.6487 0.0000
vt 0.4619 0.6487 0.0000
vt 0.4619 0.4737 0.0000
vt 0.9727 0.5684 0.0000
vt 0.9727 0.5731 0.0000
vt 0.9570 0.5684 0.0000
vt 0.9570 0.5731 0.0000
vt 0.9570 0.5684 0.0000
vt 0.9727 0.5684 0.0000
vt 0.9727 0.5731 0.0000
vt 0.9570 0.5731 0.0000
vt 0.9648 0.5731 0.0000
vt 0.9648 0.5684 0.0000
vt 0.9648 0.5684 0.0000
vt 0.9648 0.5731 0.0000
vt 0.9687 0.5731 0.0000
vt 0.9609 0.5684 0.0000
vt 0.9687 0.5684 0.0000
vt 0.9609 0.5731 0.0000
vt 0.9609 0.5731 0.0000
vt 0.9687 0.5684 0.0000
vt 0.9609 0.5684 0.0000
vt 0.9687 0.5731 0.0000
vt 0.9727 0.5684 0.0000
vt 0.9727 0.5731 0.0000
vt 0.9570 0.5684 0.0000
vt 0.9570 0.5731 0.0000
vt 0.9570 0.5684 0.0000
vt 0.9727 0.5684 0.0000
vt 0.9727 0.5731 0.0000
vt 0.9570 0.5731 0.0000
vt 0.9648 0.5731 0.0000
vt 0.9648 0.5684 0.0000
vt 0.9648 0.5684 0.0000
vt 0.9648 0.5731 0.0000
vt 0.9687 0.5731 0.0000
vt 0.9609 0.5684 0.0000
vt 0.9687 0.5684 0.0000
vt 0.9609 0.5731 0.0000
vt 0.9609 0.5731 0.0000
vt 0.9687 0.5684 0.0000
vt 0.9609 0.5684 0.0000
vt 0.9687 0.5731 0.0000
vt 0.9980 0.4737 0.0000
vt 0.9980 0.6487 0.0000
vt 0.4619 0.4737 0.0000
vt 0.4619 0.6487 0.0000
vt 0.9980 0.4737 0.0000
vt 0.9980 0.6487 0.0000
vt 0.4619 0.6487 0.0000
vt 0.4619 0.4737 0.0000
vt 0.9980 0.4737 0.0000
vt 0.9980 0.6487 0.0000
vt 0.4619 0.4737 0.0000
vt 0.4619 0.6487 0.0000
vt 0.9980 0.4737 0.0000
vt 0.9980 0.6487 0.0000
vt 0.4619 0.6487 0.0000
vt 0.4619 0.4737 0.0000
vt 0.9980 0.4737 0.0000
vt 0.9980 0.6487 0.0000
vt 0.4619 0.4737 0.0000
vt 0.4619 0.6487 0.0000
vt 0.9980 0.4737 0.0000
vt 0.9980 0.6487 0.0000
vt 0.4619 0.6487 0.0000
vt 0.4619 0.4737 0.0000
vt 0.9980 0.4737 0.0000
vt 0.9980 0.6487 0.0000
vt 0.4619 0.4737 0.0000
vt 0.4619 0.6487 0.0000
vt 0.9980 0.4737 0.0000
vt 0.9980 0.6487 0.0000
vt 0.4619 0.6487 0.0000
vt 0.4619 0.4737 0.0000
vt 0.9980 0.4737 0.0000
vt 0.9980 0.6487 0.0000
vt 0.4619 0.4737 0.0000
vt 0.4619 0.6487 0.0000
vt 0.9980 0.4737 0.0000
vt 0.9980 0.6487 0.0000
vt 0.4619 0.6487 0.0000
vt 0.4619 0.4737 0.0000
vt 0.9980 0.4737 0.0000
vt 0.9980 0.6487 0.0000
vt 0.4619 0.4737 0.0000
vt 0.4619 0.6487 0.0000
vt 0.9980 0.4737 0.0000
vt 0.9980 0.6487 0.0000
vt 0.4619 0.6487 0.0000
vt 0.4619 0.4737 0.0000
vt 0.9980 0.4737 0.0000
vt 0.9980 0.6487 0.0000
vt 0.4619 0.4737 0.0000
vt 0.4619 0.6487 0.0000
vt 0.9980 0.4737 0.0000
vt 0.9980 0.6487 0.0000
vt 0.4619 0.6487 0.0000
vt 0.4619 0.4737 0.0000
vt 0.9980 0.4737 0.0000
vt 0.9980 0.6487 0.0000
vt 0.4619 0.4737 0.0000
vt 0.4619 0.6487 0.0000
vt 0.9980 0.4737 0.0000
vt 0.9980 0.6487 0.0000
vt 0.4619 0.6487 0.0000
vt 0.4619 0.4737 0.0000
vt 0.9980 0.6485 0.0000
vt 0.9980 0.8235 0.0000
vt 0.4619 0.6485 0.0000
vt 0.4619 0.8235 0.0000
vt 0.9980 0.6485 0.0000
vt 0.9980 0.8235 0.0000
vt 0.4619 0.8235 0.0000
vt 0.4619 0.6485 0.0000
vt 0.9980 0.4737 0.0000
vt 0.9980 0.6487 0.0000
vt 0.4619 0.4737 0.0000
vt 0.4619 0.6487 0.0000
vt 0.9980 0.4737 0.0000
vt 0.9980 0.6487 0.0000
vt 0.4619 0.6487 0.0000
vt 0.4619 0.4737 0.0000
vt 0.9980 0.4737 0.0000
vt 0.9980 0.6487 0.0000
vt 0.4619 0.4737 0.0000
vt 0.4619 0.6487 0.0000
vt 0.9980 0.4737 0.0000
vt 0.9980 0.6487 0.0000
vt 0.4619 0.6487 0.0000
vt 0.4619 0.4737 0.0000
vt 0.9980 0.4737 0.0000
vt 0.9980 0.6487 0.0000
vt 0.4619 0.4737 0.0000
vt 0.4619 0.6487 0.0000
vt 0.9980 0.4737 0.0000
vt 0.9980 0.6487 0.0000
vt 0.4619 0.6487 0.0000
vt 0.4619 0.4737 0.0000
vt 0.9727 0.5684 0.0000
vt 0.9727 0.5731 0.0000
vt 0.9570 0.5684 0.0000
vt 0.9570 0.5731 0.0000
vt 0.9570 0.5684 0.0000
vt 0.9727 0.5684 0.0000
vt 0.9727 0.5731 0.0000
vt 0.9570 0.5731 0.0000
vt 0.9648 0.5731 0.0000
vt 0.9648 0.5684 0.0000
vt 0.9648 0.5684 0.0000
vt 0.9648 0.5731 0.0000
vt 0.9687 0.5731 0.0000
vt 0.9609 0.5684 0.0000
vt 0.9687 0.5684 0.0000
vt 0.9609 0.5731 0.0000
vt 0.9609 0.5731 0.0000
vt 0.9687 0.5684 0.0000
vt 0.9609 0.5684 0.0000
vt 0.9687 0.5731 0.0000
vt 0.9727 0.5684 0.0000
vt 0.9727 0.5731 0.0000
vt 0.9570 0.5684 0.0000
vt 0.9570 0.5731 0.0000
vt 0.9570 0.5684 0.0000
vt 0.9727 0.5684 0.0000
vt 0.9727 0.5731 0.0000
vt 0.9570 0.5731 0.0000
vt 0.9648 0.5731 0.0000
vt 0.9648 0.5684 0.0000
vt 0.9648 0.5684 0.0000
vt 0.9648 0.5731 0.0000
vt 0.9687 0.5731 0.0000
vt 0.9609 0.5684 0.0000
vt 0.9687 0.5684 0.0000
vt 0.9609 0.5731 0.0000
vt 0.9609 0.5731 0.0000
vt 0.9687 0.5684 0.0000
vt 0.9609 0.5684 0.0000
vt 0.9687 0.5731 0.0000
vt 0.9980 0.4737 0.0000
vt 0.9980 0.6487 0.0000
vt 0.4619 0.4737 0.0000
vt 0.4619 0.6487 0.0000
vt 0.9980 0.4737 0.0000
vt 0.9980 0.6487 0.0000
vt 0.4619 0.6487 0.0000
vt 0.4619 0.4737 0.0000
vt 0.9980 0.4737 0.0000
vt 0.9980 0.6487 0.0000
vt 0.4619 0.4737 0.0000
vt 0.4619 0.6487 0.0000
vt 0.9980 0.4737 0.0000
vt 0.9980 0.6487 0.0000
vt 0.4619 0.6487 0.0000
vt 0.4619 0.4737 0.0000
vt 0.9980 0.4737 0.0000
vt 0.9980 0.6487 0.0000
vt 0.4619 0.4737 0.0000
vt 0.4619 0.6487 0.0000
vt 0.9980 0.4737 0.0000
vt 0.9980 0.6487 0.0000
vt 0.4619 0.6487 0.0000
vt 0.4619 0.4737 0.0000
vt 0.9980 0.4737 0.0000
vt 0.9980 0.6487 0.0000
vt 0.4619 0.4737 0.0000
vt 0.4619 0.6487 0.0000
vt 0.9980 0.4737 0.0000
vt 0.9980 0.6487 0.0000
vt 0.4619 0.6487 0.0000
vt 0.4619 0.4737 0.0000
vt 0.9980 0.4737 0.0000
vt 0.9980 0.6487 0.0000
vt 0.4619 0.4737 0.0000
vt 0.4619 0.6487 0.0000
vt 0.9980 0.4737 0.0000
vt 0.9980 0.6487 0.0000
vt 0.4619 0.6487 0.0000
vt 0.4619 0.4737 0.0000
vt 0.9980 0.4737 0.0000
vt 0.9980 0.6487 0.0000
vt 0.4619 0.4737 0.0000
vt 0.4619 0.6487 0.0000
vt 0.9980 0.4737 0.0000
vt 0.9980 0.6487 0.0000
vt 0.4619 0.6487 0.0000
vt 0.4619 0.4737 0.0000
vt 0.9980 0.4737 0.0000
vt 0.9980 0.6487 0.0000
vt 0.4619 0.4737 0.0000
vt 0.4619 0.6487 0.0000
vt 0.9980 0.4737 0.0000
vt 0.9980 0.6487 0.0000
vt 0.4619 0.6487 0.0000
vt 0.4619 0.4737 0.0000
vt 0.9980 0.4737 0.0000
vt 0.9980 0.6487 0.0000
vt 0.4619 0.4737 0.0000
vt 0.4619 0.6487 0.0000
vt 0.9980 0.4737 0.0000
vt 0.9980 0.6487 0.0000
vt 0.4619 0.6487 0.0000
vt 0.4619 0.4737 0.0000
vt 0.9980 0.4737 0.0000
vt 0.9980 0.6487 0.0000
vt 0.4619 0.4737 0.0000
vt 0.4619 0.6487 0.0000
vt 0.9980 0.4737 0.0000
vt 0.9980 0.6487 0.0000
vt 0.4619 0.6487 0.0000
vt 0.4619 0.4737 0.0000
vt 0.9980 0.6485 0.0000
vt 0.9980 0.8235 0.0000
vt 0.4619 0.6485 0.0000
vt 0.4619 0.8235 0.0000
vt 0.9980 0.6485 0.0000
vt 0.9980 0.8235 0.0000
vt 0.4619 0.8235 0.0000
vt 0.4619 0.6485 0.0000
vt 0.9980 0.4737 0.0000
vt 0.9980 0.6487 0.0000
vt 0.4619 0.4737 0.0000
vt 0.4619 0.6487 0.0000
vt 0.9980 0.4737 0.0000
vt 0.9980 0.6487 0.0000
vt 0.4619 0.6487 0.0000
vt 0.4619 0.4737 0.0000
vt 0.9980 0.4737 0.0000
vt 0.9980 0.6487 0.0000
vt 0.4619 0.4737 0.0000
vt 0.4619 0.6487 0.0000
vt 0.9980 0.4737 0.0000
vt 0.9980 0.6487 0.0000
vt 0.4619 0.6487 0.0000
vt 0.4619 0.4737 0.0000
# 680 texture coords

o GorseStage00
g GorseStage00
s 1
f 14/14/1 17/17/2 4/4/3 
f 4/4/4 3/3/5 14/14/6 
f 8/8/7 16/16/8 19/19/9 
f 19/19/10 5/5/11 8/8/12 
f 18/18/13 13/13/14 9/9/15 
f 9/9/16 10/10/17 18/18/18 
f 20/20/19 15/15/20 11/11/21 
f 11/11/22 12/12/23 20/20/24 
f 10/10/25 9/9/26 17/17/27 
f 17/17/28 14/14/29 10/10/30 
f 12/12/31 11/11/32 19/19/33 
f 19/19/34 16/16/35 12/12/36 
f 1/1/37 2/2/38 13/13/39 
f 13/13/40 18/18/41 1/1/42 
f 7/7/43 6/6/44 15/15/45 
f 15/15/46 20/20/47 7/7/48 
f 34/34/49 37/37/50 24/24/51 
f 24/24/52 23/23/53 34/34/54 
f 28/28/55 36/36/56 39/39/57 
f 39/39/58 25/25/59 28/28/60 
f 38/38/61 33/33/62 29/29/63 
f 29/29/64 30/30/65 38/38/66 
f 40/40/67 35/35/68 31/31/69 
f 31/31/70 32/32/71 40/40/72 
f 30/30/73 29/29/74 37/37/75 
f 37/37/76 34/34/77 30/30/78 
f 32/32/79 31/31/80 39/39/81 
f 39/39/82 36/36/83 32/32/84 
f 21/21/85 22/22/86 33/33/87 
f 33/33/88 38/38/89 21/21/90 
f 27/27/91 26/26/92 35/35/93 
f 35/35/94 40/40/95 27/27/96 
f 41/41/97 42/42/98 44/44/99 
f 44/44/100 43/43/101 41/41/102 
f 45/45/103 48/48/104 47/47/105 
f 47/47/106 46/46/107 45/45/108 
f 49/49/109 50/50/110 52/52/111 
f 52/52/112 51/51/113 49/49/114 
f 53/53/115 56/56/116 55/55/117 
f 55/55/118 54/54/119 53/53/120 
f 57/57/121 58/58/122 60/60/123 
f 60/60/124 59/59/125 57/57/126 
f 61/61/127 64/64/128 63/63/129 
f 63/63/130 62/62/131 61/61/132 
f 65/65/133 66/66/134 68/68/135 
f 68/68/136 67/67/137 65/65/138 
f 69/69/139 72/72/140 71/71/141 
f 71/71/142 70/70/143 69/69/144 
f 73/73/145 74/74/146 76/76/147 
f 76/76/148 75/75/149 73/73/150 
f 77/77/151 80/80/152 79/79/153 
f 79/79/154 78/78/155 77/77/156 
f 81/81/157 82/82/158 84/84/159 
f 84/84/160 83/83/161 81/81/162 
f 85/85/163 88/88/164 87/87/165 
f 87/87/166 86/86/167 85/85/168 
f 89/89/169 90/90/170 92/92/171 
f 92/92/172 91/91/173 89/89/174 
f 93/93/175 96/96/176 95/95/177 
f 95/95/178 94/94/179 93/93/180 
f 97/97/181 98/98/182 100/100/183 
f 100/100/184 99/99/185 97/97/186 
f 101/101/187 104/104/188 103/103/189 
f 103/103/190 102/102/191 101/101/192 
f 105/105/193 106/106/194 108/108/195 
f 108/108/196 107/107/197 105/105/198 
f 109/109/199 112/112/200 111/111/201 
f 111/111/202 110/110/203 109/109/204 
f 113/113/205 114/114/206 116/116/207 
f 116/116/208 115/115/209 113/113/210 
f 117/117/211 120/120/212 119/119/213 
f 119/119/214 118/118/215 117/117/216 
f 121/121/217 122/122/218 124/124/219 
f 124/124/220 123/123/221 121/121/222 
f 125/125/223 128/128/224 127/127/225 
f 127/127/226 126/126/227 125/125/228 
f 129/129/229 130/130/230 132/132/231 
f 132/132/232 131/131/233 129/129/234 
f 133/133/235 136/136/236 135/135/237 
f 135/135/238 134/134/239 133/133/240 
f 150/150/241 153/153/242 140/140/243 
f 140/140/244 139/139/245 150/150/246 
f 144/144/247 152/152/248 155/155/249 
f 155/155/250 141/141/251 144/144/252 
f 154/154/253 149/149/254 145/145/255 
f 145/145/256 146/146/257 154/154/258 
f 156/156/259 151/151/260 147/147/261 
f 147/147/262 148/148/263 156/156/264 
f 146/146/265 145/145/266 153/153/267 
f 153/153/268 150/150/269 146/146/270 
f 148/148/271 147/147/272 155/155/273 
f 155/155/274 152/152/275 148/148/276 
f 137/137/277 138/138/278 149/149/279 
f 149/149/280 154/154/281 137/137/282 
f 143/143/283 142/142/284 151/151/285 
f 151/151/286 156/156/287 143/143/288 
f 170/170/289 173/173/290 160/160/291 
f 160/160/292 159/159/293 170/170/294 
f 164/164/295 172/172/296 175/175/297 
f 175/175/298 161/161/299 164/164/300 
f 174/174/301 169/169/302 165/165/303 
f 165/165/304 166/166/305 174/174/306 
f 176/176/307 171/171/308 167/167/309 
f 167/167/310 168/168/311 176/176/312 
f 166/166/313 165/165/314 173/173/315 
f 173/173/316 170/170/317 166/166/318 
f 168/168/319 167/167/320 175/175/321 
f 175/175/322 172/172/323 168/168/324 
f 157/157/325 158/158/326 169/169/327 
f 169/169/328 174/174/329 157/157/330 
f 163/163/331 162/162/332 171/171/333 
f 171/171/334 176/176/335 163/163/336 
f 177/177/337 178/178/338 180/180/339 
f 180/180/340 179/179/341 177/177/342 
f 181/181/343 184/184/344 183/183/345 
f 183/183/346 182/182/347 181/181/348 
f 185/185/349 186/186/350 188/188/351 
f 188/188/352 187/187/353 185/185/354 
f 189/189/355 192/192/356 191/191/357 
f 191/191/358 190/190/359 189/189/360 
f 193/193/361 194/194/362 196/196/363 
f 196/196/364 195/195/365 193/193/366 
f 197/197/367 200/200/368 199/199/369 
f 199/199/370 198/198/371 197/197/372 
f 201/201/373 202/202/374 204/204/375 
f 204/204/376 203/203/377 201/201/378 
f 205/205/379 208/208/380 207/207/381 
f 207/207/382 206/206/383 205/205/384 
f 209/209/385 210/210/386 212/212/387 
f 212/212/388 211/211/389 209/209/390 
f 213/213/391 216/216/392 215/215/393 
f 215/215/394 214/214/395 213/213/396 
f 217/217/397 218/218/398 220/220/399 
f 220/220/400 219/219/401 217/217/402 
f 221/221/403 224/224/404 223/223/405 
f 223/223/406 222/222/407 221/221/408 
f 225/225/409 226/226/410 228/228/411 
f 228/228/412 227/227/413 225/225/414 
f 229/229/415 232/232/416 231/231/417 
f 231/231/418 230/230/419 229/229/420 
f 233/233/421 234/234/422 236/236/423 
f 236/236/424 235/235/425 233/233/426 
f 237/237/427 240/240/428 239/239/429 
f 239/239/430 238/238/431 237/237/432 
f 241/241/433 242/242/434 244/244/435 
f 244/244/436 243/243/437 241/241/438 
f 245/245/439 248/248/440 247/247/441 
f 247/247/442 246/246/443 245/245/444 
f 249/249/445 250/250/446 252/252/447 
f 252/252/448 251/251/449 249/249/450 
f 253/253/451 256/256/452 255/255/453 
f 255/255/454 254/254/455 253/253/456 
f 257/257/457 258/258/458 260/260/459 
f 260/260/460 259/259/461 257/257/462 
f 261/261/463 264/264/464 263/263/465 
f 263/263/466 262/262/467 261/261/468 
f 265/265/469 266/266/470 268/268/471 
f 268/268/472 267/267/473 265/265/474 
f 269/269/475 272/272/476 271/271/477 
f 271/271/478 270/270/479 269/269/480 
f 286/286/481 289/289/482 276/276/483 
f 276/276/484 275/275/485 286/286/486 
f 280/280/487 288/288/488 291/291/489 
f 291/291/490 277/277/491 280/280/492 
f 290/290/493 285/285/494 281/281/495 
f 281/281/496 282/282/497 290/290/498 
f 292/292/499 287/287/500 283/283/501 
f 283/283/502 284/284/503 292/292/504 
f 282/282/505 281/281/506 289/289/507 
f 289/289/508 286/286/509 282/282/510 
f 284/284/511 283/283/512 291/291/513 
f 291/291/514 288/288/515 284/284/516 
f 273/273/517 274/274/518 285/285/519 
f 285/285/520 290/290/521 273/273/522 
f 279/279/523 278/278/524 287/287/525 
f 287/287/526 292/292/527 279/279/528 
f 306/306/529 309/309/530 296/296/531 
f 296/296/532 295/295/533 306/306/534 
f 300/300/535 308/308/536 311/311/537 
f 311/311/538 297/297/539 300/300/540 
f 310/310/541 305/305/542 301/301/543 
f 301/301/544 302/302/545 310/310/546 
f 312/312/547 307/307/548 303/303/549 
f 303/303/550 304/304/551 312/312/552 
f 302/302/553 301/301/554 309/309/555 
f 309/309/556 306/306/557 302/302/558 
f 304/304/559 303/303/560 311/311/561 
f 311/311/562 308/308/563 304/304/564 
f 293/293/565 294/294/566 305/305/567 
f 305/305/568 310/310/569 293/293/570 
f 299/299/571 298/298/572 307/307/573 
f 307/307/574 312/312/575 299/299/576 
f 313/313/577 314/314/578 316/316/579 
f 316/316/580 315/315/581 313/313/582 
f 317/317/583 320/320/584 319/319/585 
f 319/319/586 318/318/587 317/317/588 
f 321/321/589 322/322/590 324/324/591 
f 324/324/592 323/323/593 321/321/594 
f 325/325/595 328/328/596 327/327/597 
f 327/327/598 326/326/599 325/325/600 
f 329/329/601 330/330/602 332/332/603 
f 332/332/604 331/331/605 329/329/606 
f 333/333/607 336/336/608 335/335/609 
f 335/335/610 334/334/611 333/333/612 
f 337/337/613 338/338/614 340/340/615 
f 340/340/616 339/339/617 337/337/618 
f 341/341/619 344/344/620 343/343/621 
f 343/343/622 342/342/623 341/341/624 
f 345/345/625 346/346/626 348/348/627 
f 348/348/628 347/347/629 345/345/630 
f 349/349/631 352/352/632 351/351/633 
f 351/351/634 350/350/635 349/349/636 
f 353/353/637 354/354/638 356/356/639 
f 356/356/640 355/355/641 353/353/642 
f 357/357/643 360/360/644 359/359/645 
f 359/359/646 358/358/647 357/357/648 
f 361/361/649 362/362/650 364/364/651 
f 364/364/652 363/363/653 361/361/654 
f 365/365/655 368/368/656 367/367/657 
f 367/367/658 366/366/659 365/365/660 
f 369/369/661 370/370/662 372/372/663 
f 372/372/664 371/371/665 369/369/666 
f 373/373/667 376/376/668 375/375/669 
f 375/375/670 374/374/671 373/373/672 
f 377/377/673 378/378/674 380/380/675 
f 380/380/676 379/379/677 377/377/678 
f 381/381/679 384/384/680 383/383/681 
f 383/383/682 382/382/683 381/381/684 
f 385/385/685 386/386/686 388/388/687 
f 388/388/688 387/387/689 385/385/690 
f 389/389/691 392/392/692 391/391/693 
f 391/391/694 390/390/695 389/389/696 
f 393/393/697 394/394/698 396/396/699 
f 396/396/700 395/395/701 393/393/702 
f 397/397/703 400/400/704 399/399/705 
f 399/399/706 398/398/707 397/397/708 
f 401/401/709 402/402/710 404/404/711 
f 404/404/712 403/403/713 401/401/714 
f 405/405/715 408/408/716 407/407/717 
f 407/407/718 406/406/719 405/405/720 
f 422/422/721 425/425/722 412/412/723 
f 412/412/724 411/411/725 422/422/726 
f 416/416/727 424/424/728 427/427/729 
f 427/427/730 413/413/731 416/416/732 
f 426/426/733 421/421/734 417/417/735 
f 417/417/736 418/418/737 426/426/738 
f 428/428/739 423/423/740 419/419/741 
f 419/419/742 420/420/743 428/428/744 
f 418/418/745 417/417/746 425/425/747 
f 425/425/748 422/422/749 418/418/750 
f 420/420/751 419/419/752 427/427/753 
f 427/427/754 424/424/755 420/420/756 
f 409/409/757 410/410/758 421/421/759 
f 421/421/760 426/426/761 409/409/762 
f 415/415/763 414/414/764 423/423/765 
f 423/423/766 428/428/767 415/415/768 
f 442/442/769 445/445/770 432/432/771 
f 432/432/772 431/431/773 442/442/774 
f 436/436/775 444/444/776 447/447/777 
f 447/447/778 433/433/779 436/436/780 
f 446/446/781 441/441/782 437/437/783 
f 437/437/784 438/438/785 446/446/786 
f 448/448/787 443/443/788 439/439/789 
f 439/439/790 440/440/791 448/448/792 
f 438/438/793 437/437/794 445/445/795 
f 445/445/796 442/442/797 438/438/798 
f 440/440/799 439/439/800 447/447/801 
f 447/447/802 444/444/803 440/440/804 
f 429/429/805 430/430/806 441/441/807 
f 441/441/808 446/446/809 429/429/810 
f 435/435/811 434/434/812 443/443/813 
f 443/443/814 448/448/815 435/435/816 
f 449/449/817 450/450/818 452/452/819 
f 452/452/820 451/451/821 449/449/822 
f 453/453/823 456/456/824 455/455/825 
f 455/455/826 454/454/827 453/453/828 
f 457/457/829 458/458/830 460/460/831 
f 460/460/832 459/459/833 457/457/834 
f 461/461/835 464/464/836 463/463/837 
f 463/463/838 462/462/839 461/461/840 
f 465/465/841 466/466/842 468/468/843 
f 468/468/844 467/467/845 465/465/846 
f 469/469/847 472/472/848 471/471/849 
f 471/471/850 470/470/851 469/469/852 
f 473/473/853 474/474/854 476/476/855 
f 476/476/856 475/475/857 473/473/858 
f 477/477/859 480/480/860 479/479/861 
f 479/479/862 478/478/863 477/477/864 
f 481/481/865 482/482/866 484/484/867 
f 484/484/868 483/483/869 481/481/870 
f 485/485/871 488/488/872 487/487/873 
f 487/487/874 486/486/875 485/485/876 
f 489/489/877 490/490/878 492/492/879 
f 492/492/880 491/491/881 489/489/882 
f 493/493/883 496/496/884 495/495/885 
f 495/495/886 494/494/887 493/493/888 
f 497/497/889 498/498/890 500/500/891 
f 500/500/892 499/499/893 497/497/894 
f 501/501/895 504/504/896 503/503/897 
f 503/503/898 502/502/899 501/501/900 
f 505/505/901 506/506/902 508/508/903 
f 508/508/904 507/507/905 505/505/906 
f 509/509/907 512/512/908 511/511/909 
f 511/511/910 510/510/911 509/509/912 
f 513/513/913 514/514/914 516/516/915 
f 516/516/916 515/515/917 513/513/918 
f 517/517/919 520/520/920 519/519/921 
f 519/519/922 518/518/923 517/517/924 
f 521/521/925 522/522/926 524/524/927 
f 524/524/928 523/523/929 521/521/930 
f 525/525/931 528/528/932 527/527/933 
f 527/527/934 526/526/935 525/525/936 
f 529/529/937 530/530/938 532/532/939 
f 532/532/940 531/531/941 529/529/942 
f 533/533/943 536/536/944 535/535/945 
f 535/535/946 534/534/947 533/533/948 
f 537/537/949 538/538/950 540/540/951 
f 540/540/952 539/539/953 537/537/954 
f 541/541/955 544/544/956 543/543/957 
f 543/543/958 542/542/959 541/541/960 
f 558/558/961 561/561/962 548/548/963 
f 548/548/964 547/547/965 558/558/966 
f 552/552/967 560/560/968 563/563/969 
f 563/563/970 549/549/971 552/552/972 
f 562/562/973 557/557/974 553/553/975 
f 553/553/976 554/554/977 562/562/978 
f 564/564/979 559/559/980 555/555/981 
f 555/555/982 556/556/983 564/564/984 
f 554/554/985 553/553/986 561/561/987 
f 561/561/988 558/558/989 554/554/990 
f 556/556/991 555/555/992 563/563/993 
f 563/563/994 560/560/995 556/556/996 
f 545/545/997 546/546/998 557/557/999 
f 557/557/1000 562/562/1001 545/545/1002 
f 551/551/1003 550/550/1004 559/559/1005 
f 559/559/1006 564/564/1007 551/551/1008 
f 578/578/1009 581/581/1010 568/568/1011 
f 568/568/1012 567/567/1013 578/578/1014 
f 572/572/1015 580/580/1016 583/583/1017 
f 583/583/1018 569/569/1019 572/572/1020 
f 582/582/1021 577/577/1022 573/573/1023 
f 573/573/1024 574/574/1025 582/582/1026 
f 584/584/1027 579/579/1028 575/575/1029 
f 575/575/1030 576/576/1031 584/584/1032 
f 574/574/1033 573/573/1034 581/581/1035 
f 581/581/1036 578/578/1037 574/574/1038 
f 576/576/1039 575/575/1040 583/583/1041 
f 583/583/1042 580/580/1043 576/576/1044 
f 565/565/1045 566/566/1046 577/577/1047 
f 577/577/1048 582/582/1049 565/565/1050 
f 571/571/1051 570/570/1052 579/579/1053 
f 579/579/1054 584/584/1055 571/571/1056 
f 585/585/1057 586/586/1058 588/588/1059 
f 588/588/1060 587/587/1061 585/585/1062 
f 589/589/1063 592/592/1064 591/591/1065 
f 591/591/1066 590/590/1067 589/589/1068 
f 593/593/1069 594/594/1070 596/596/1071 
f 596/596/1072 595/595/1073 593/593/1074 
f 597/597/1075 600/600/1076 599/599/1077 
f 599/599/1078 598/598/1079 597/597/1080 
f 601/601/1081 602/602/1082 604/604/1083 
f 604/604/1084 603/603/1085 601/601/1086 
f 605/605/1087 608/608/1088 607/607/1089 
f 607/607/1090 606/606/1091 605/605/1092 
f 609/609/1093 610/610/1094 612/612/1095 
f 612/612/1096 611/611/1097 609/609/1098 
f 613/613/1099 616/616/1100 615/615/1101 
f 615/615/1102 614/614/1103 613/613/1104 
f 617/617/1105 618/618/1106 620/620/1107 
f 620/620/1108 619/619/1109 617/617/1110 
f 621/621/1111 624/624/1112 623/623/1113 
f 623/623/1114 622/622/1115 621/621/1116 
f 625/625/1117 626/626/1118 628/628/1119 
f 628/628/1120 627/627/1121 625/625/1122 
f 629/629/1123 632/632/1124 631/631/1125 
f 631/631/1126 630/630/1127 629/629/1128 
f 633/633/1129 634/634/1130 636/636/1131 
f 636/636/1132 635/635/1133 633/633/1134 
f 637/637/1135 640/640/1136 639/639/1137 
f 639/639/1138 638/638/1139 637/637/1140 
f 641/641/1141 642/642/1142 644/644/1143 
f 644/644/1144 643/643/1145 641/641/1146 
f 645/645/1147 648/648/1148 647/647/1149 
f 647/647/1150 646/646/1151 645/645/1152 
f 649/649/1153 650/650/1154 652/652/1155 
f 652/652/1156 651/651/1157 649/649/1158 
f 653/653/1159 656/656/1160 655/655/1161 
f 655/655/1162 654/654/1163 653/653/1164 
f 657/657/1165 658/658/1166 660/660/1167 
f 660/660/1168 659/659/1169 657/657/1170 
f 661/661/1171 664/664/1172 663/663/1173 
f 663/663/1174 662/662/1175 661/661/1176 
f 665/665/1177 666/666/1178 668/668/1179 
f 668/668/1180 667/667/1181 665/665/1182 
f 669/669/1183 672/672/1184 671/671/1185 
f 671/671/1186 670/670/1187 669/669/1188 
f 673/673/1189 674/674/1190 676/676/1191 
f 676/676/1192 675/675/1193 673/673/1194 
f 677/677/1195 680/680/1196 679/679/1197 
f 679/679/1198 678/678/1199 677/677/1200 
# 400 faces

