# 3ds Max Wavefront OBJ Exporter v0.99 - (c)2007 guruware
# File Created: 19.11.2024 10:17:23

#
# object GorseDead
#

v  -0.5410 -15.8446 0.0449
v  0.5410 -15.8446 0.0449
v  2.2758 43.2845 -2.3045
v  3.3578 43.2824 -2.2883
v  2.2771 43.2611 -2.3913
v  -0.5410 -15.8446 -0.0449
v  0.5410 -15.8446 -0.0449
v  3.3590 43.2590 -2.3751
v  1.0588 13.2242 0.2306
v  -0.0068 13.4114 0.2470
v  -0.0095 13.4038 0.1575
v  1.0561 13.2166 0.1411
v  0.5410 -1.3183 0.0449
v  2.2509 28.7962 -2.5447
v  -0.5410 -1.3183 -0.0449
v  3.3342 28.8095 -2.6170
v  3.3329 28.7941 -2.5285
v  -0.5410 -1.3183 0.0449
v  2.2523 28.8117 -2.6332
v  0.5410 -1.3183 -0.0449
v  0.0449 -15.8446 0.5410
v  0.0449 -15.8446 -0.5410
v  2.8548 43.4124 -1.8168
v  2.8699 43.1309 -2.8615
v  2.7649 43.4126 -1.8181
v  -0.0449 -15.8446 0.5410
v  -0.0449 -15.8446 -0.5410
v  2.7801 43.1311 -2.8628
v  0.5526 13.2605 -0.3455
v  0.5852 13.3520 0.7322
v  0.4967 13.3675 0.7336
v  0.4641 13.2761 -0.3441
v  0.0449 -1.3183 -0.5410
v  2.8293 28.7095 -2.0473
v  -0.0449 -1.3183 0.5410
v  2.7558 28.8962 -3.1144
v  2.8457 28.8960 -3.1131
v  0.0449 -1.3183 0.5410
v  2.7395 28.7097 -2.0487
v  -0.0449 -1.3183 -0.5410
v  -0.0148 31.2455 -0.8177
v  5.6443 26.5634 -4.2091
v  15.0864 51.8639 -4.0844
v  20.7455 47.1818 -7.4758
v  -0.0587 31.2624 -0.9144
v  5.6003 26.5803 -4.3058
v  20.7015 47.1987 -7.5725
v  15.0424 51.8808 -4.1811
v  -0.3815 26.8488 -1.4188
v  6.0097 31.3310 -3.5426
v  -12.1526 47.9129 7.6136
v  -5.7614 52.3952 5.4898
v  -0.4254 26.8657 -1.5155
v  5.9658 31.3479 -3.6393
v  -5.8054 52.4121 5.3931
v  -12.1966 47.9298 7.5169
v  0.0039 15.5625 -2.9719
v  0.8747 10.6881 3.4258
v  8.0828 35.5411 11.1499
v  8.9537 30.6667 17.5476
v  0.1054 15.5421 -3.0012
v  0.9762 10.6678 3.3965
v  9.0552 30.6464 17.5183
v  8.1843 35.5208 11.1206
v  -0.8942 11.0539 -2.9549
v  1.7874 15.2816 3.4000
v  -0.7372 32.4747 -17.2716
v  1.9443 36.7023 -10.9167
v  -0.7927 11.0336 -2.9842
v  1.8888 15.2613 3.3707
v  2.0458 36.6820 -10.9460
v  -0.6358 32.4543 -17.3009
v  -0.2410 27.4060 -4.6031
v  5.7702 30.7749 -0.3645
v  -11.3134 50.5172 -7.2694
v  -5.3022 53.8861 -3.0308
v  -0.1858 27.4219 -4.6940
v  5.8254 30.7908 -0.4555
v  -5.2470 53.9021 -3.1218
v  -11.2582 50.5332 -7.3603
v  0.5550 43.5709 0.1635
v  5.5064 39.3749 -4.6661
v  6.4537 65.1818 -12.5651
v  11.4051 60.9857 -17.3947
v  0.5178 43.5628 0.1324
v  5.4692 39.3667 -4.6971
v  11.3679 60.9775 -17.4258
v  6.4165 65.1736 -12.5962
v  3.8043 42.4456 2.1420
v  1.8280 42.4392 -5.7029
v  3.8555 68.2106 2.1083
v  1.8792 68.2042 -5.7366
v  3.7566 42.4457 2.1540
v  1.7803 42.4393 -5.6909
v  1.8316 68.2043 -5.7246
v  3.8078 68.2107 2.1203
v  6.6185 41.8632 1.3323
v  -0.1956 40.4400 -3.9526
v  -1.2308 67.4196 -4.5157
v  -8.0772 64.6619 -7.8280
v  6.5971 41.8444 1.3724
v  -0.2170 40.4401 -3.9083
v  -8.0986 64.6620 -7.7837
v  -1.2523 67.4197 -4.4714
v  0.3466 -14.0712 -0.6533
v  0.9736 -14.2985 0.0856
v  12.7096 38.2226 8.4287
v  13.3249 37.9938 9.1770
v  12.7673 38.1994 8.3742
v  0.4093 -14.0733 -0.7071
v  1.0364 -14.3005 0.0318
v  13.3826 37.9706 9.1225
v  5.6136 11.6228 4.7616
v  5.0135 12.0145 4.0708
v  5.0732 12.0062 4.0142
v  5.6734 11.6145 4.7050
v  3.2071 -1.2929 2.1900
v  10.6351 25.2507 6.1689
v  2.6428 -1.0677 1.3972
v  11.3153 25.0335 6.8673
v  11.2504 25.0219 6.9172
v  2.5801 -1.0657 1.4511
v  10.7000 25.2622 6.1190
v  3.2698 -1.2950 2.1362
v  0.3400 -14.1829 0.0441
v  1.0950 -14.2077 -0.6042
v  12.7244 38.2266 9.1348
v  13.4188 37.9476 8.4785
v  12.6733 38.2456 9.0726
v  0.2880 -14.1640 -0.0173
v  1.0429 -14.1888 -0.6656
v  13.3677 37.9666 8.4163
v  5.7278 11.7484 4.0760
v  5.0089 11.8481 4.7572
v  4.9590 11.8806 4.6998
v  5.6780 11.7809 4.0186
v  3.3285 -1.2021 1.5002
v  10.6099 25.0630 6.8493
v  2.5215 -1.1585 2.0871
v  11.3405 25.2211 6.1869
v  11.3916 25.2021 6.2491
v  2.5735 -1.1774 2.1485
v  10.5588 25.0820 6.7872
v  3.2764 -1.1833 1.4388
v  11.0986 28.3045 4.4367
v  10.7598 22.1814 8.6528
v  11.2302 41.7409 23.9610
v  10.8914 35.6178 28.1771
v  11.1975 28.3005 4.4388
v  10.8586 22.1774 8.6549
v  10.9902 35.6138 28.1792
v  11.3291 41.7369 23.9631
v  0.5395 1.6362 2.5364
v  5.3417 -3.8823 1.1692
v  18.5441 17.0018 3.7553
v  23.3462 11.4834 2.3882
v  0.5315 1.6533 2.4393
v  5.3337 -3.8652 1.0721
v  23.3382 11.5005 2.2910
v  18.5361 17.0189 3.6582
v  -0.5630 -2.5957 1.8827
v  6.3918 0.0505 1.7747
v  -8.7767 19.1749 6.3911
v  -1.8219 21.8212 6.2832
v  -0.5710 -2.5787 1.7855
v  6.3838 0.0676 1.6776
v  -1.8299 21.8383 6.1860
v  -8.7847 19.1920 6.2940
v  4.3365 14.9565 2.9376
v  6.1528 8.3414 5.8229
v  19.6738 25.5521 17.5749
v  21.4901 18.9370 20.4602
v  4.4080 14.9466 2.8698
v  6.2243 8.3315 5.7552
v  21.5616 18.9271 20.3925
v  19.7453 25.5422 17.5072
v  2.3156 11.2870 2.1583
v  8.2115 12.0772 6.6302
v  0.7478 34.8434 0.0627
v  6.6437 35.6336 4.5346
v  2.3757 11.2840 2.0797
v  8.2715 12.0742 6.5516
v  6.7037 35.6306 4.4560
v  0.8078 34.8404 -0.0159
v  8.4938 27.9589 6.0112
v  13.4194 22.5009 7.1656
v  22.6938 43.1728 17.3535
v  27.6194 37.7148 18.5080
v  8.5384 27.9810 5.9257
v  13.4639 22.5230 7.0801
v  27.6639 37.7369 18.4224
v  22.7384 43.1949 17.2680
v  8.0247 24.0857 4.7637
v  13.8992 26.7080 8.5052
v  -1.8595 45.6235 5.1880
v  4.0150 48.2457 8.9294
v  8.0693 24.1079 4.6782
v  13.9437 26.7301 8.4197
v  4.0596 48.2679 8.8439
v  -1.8149 45.6456 5.1025
v  2.3424 1.8057 -0.4244
v  3.4385 -4.0246 4.0689
v  10.4431 16.3380 16.4559
v  11.5392 10.5077 20.9492
v  2.4342 1.7956 -0.4598
v  3.5304 -4.0347 4.0335
v  11.6310 10.4977 20.9138
v  10.5349 16.3280 16.4204
v  7.5963 13.8645 2.4614
v  2.8877 9.4639 6.1826
v  5.4967 30.3781 19.3327
v  0.7881 25.9776 23.0540
v  7.6724 13.8243 2.5102
v  2.9639 9.4237 6.2315
v  0.8642 25.9374 23.1028
v  5.5728 30.3380 19.3815
v  6.3708 10.0169 1.2051
v  4.1408 13.3843 7.4559
v  19.7442 28.8346 -4.1613
v  17.5143 32.2020 2.0894
v  6.4469 9.9767 1.2539
v  4.2170 13.3441 7.5047
v  17.5904 32.1618 2.1382
v  19.8203 28.7944 -4.1125
v  0.6455 -14.0677 -0.6121
v  1.3833 -14.2969 -1.2397
v  11.3456 38.2968 -11.2625
v  12.0926 38.0655 -11.8783
v  11.2910 38.2770 -11.3213
v  0.5922 -14.0663 -0.6753
v  1.3300 -14.2954 -1.3029
v  12.0380 38.0457 -11.9372
v  6.8476 11.6083 -5.0301
v  6.1629 12.0013 -4.4238
v  6.1066 11.9965 -4.4843
v  6.7913 11.6035 -5.0905
v  3.8824 -1.2953 -3.0490
v  8.6936 25.3382 -9.6123
v  3.0913 -1.0647 -2.4846
v  9.3917 25.1220 -10.2931
v  9.4406 25.1069 -10.2282
v  3.1446 -1.0661 -2.4214
v  8.6447 25.3533 -9.6773
v  3.8291 -1.2938 -3.1122
v  1.3392 -14.1998 -0.6032
v  0.6975 -14.1824 -1.3639
v  12.0517 38.2807 -11.2713
v  11.3940 38.0425 -11.9795
v  11.9896 38.3000 -11.2201
v  1.2780 -14.1808 -0.5511
v  0.6363 -14.1633 -1.3118
v  11.3320 38.0617 -11.9283
v  6.1670 11.7573 -5.1461
v  6.8441 11.8149 -4.4187
v  6.7872 11.8475 -4.3683
v  6.1101 11.7899 -5.0957
v  3.1967 -1.1807 -3.1732
v  9.3681 25.1302 -9.5873
v  3.7771 -1.1792 -2.3604
v  8.7172 25.3300 -10.3181
v  8.7793 25.3108 -10.3693
v  3.8384 -1.1982 -2.4125
v  9.3060 25.1494 -9.5361
v  3.1354 -1.1617 -3.1211
v  7.0545 28.4541 -9.9948
v  11.0890 22.2032 -9.8120
v  26.9586 41.3140 -9.5448
v  30.9931 35.0632 -9.3620
v  7.0574 28.4531 -10.0937
v  11.0919 22.2022 -9.9109
v  30.9960 35.0622 -9.4609
v  26.9615 41.3130 -9.6437
v  4.2886 1.5386 -0.2885
v  2.8071 -3.7866 -5.2717
v  6.1162 17.4117 -17.7945
v  4.6348 12.0865 -22.7776
v  4.1919 1.5583 -0.2808
v  2.7105 -3.7669 -5.2639
v  4.5381 12.1062 -22.7699
v  6.0195 17.4314 -17.7868
v  5.1087 14.9526 -3.6649
v  7.8187 8.3157 -5.6625
v  20.1865 25.5868 -18.5420
v  22.8964 18.9499 -20.5396
v  5.0414 14.9469 -3.7372
v  7.7514 8.3100 -5.7348
v  22.8291 18.9441 -20.6119
v  20.1192 25.5811 -18.6143
v  4.2054 11.2466 -1.7660
v  8.7524 12.0883 -7.5969
v  2.7757 34.7943 0.5181
v  7.3227 35.6360 -5.3129
v  4.1273 11.2478 -1.8267
v  8.6743 12.0894 -7.6577
v  7.2446 35.6371 -5.3736
v  2.6976 34.7955 0.4573
v  8.5943 27.9824 -7.3890
v  9.6363 22.6480 -12.4726
v  20.5012 43.2915 -21.0128
v  21.5432 37.9571 -26.0964
v  8.5099 28.0084 -7.4336
v  9.5518 22.6740 -12.5172
v  21.4588 37.9831 -26.1410
v  20.4168 43.3174 -21.0574
v  1.3506 1.8499 -2.1099
v  5.6838 -4.0721 -3.3498
v  18.7170 16.1282 -9.6127
v  23.0502 10.2062 -10.8526
v  1.3158 1.8437 -2.2023
v  5.6490 -4.0782 -3.4422
v  23.0154 10.2001 -10.9450
v  18.6822 16.1220 -9.7051
v  3.2534 10.1309 -5.8666
v  9.5778 13.2443 -3.4807
v  -1.4445 29.5014 -18.6910
v  4.8799 32.6148 -16.3052
v  3.3017 10.0917 -5.9435
v  9.6261 13.2051 -3.5577
v  4.9282 32.5756 -16.3821
v  -1.3962 29.4622 -18.7679
v  12.0028 38.8616 -8.3365
v  11.7930 34.1353 -14.0812
v  12.1945 57.1606 -23.3984
v  11.9847 52.4343 -29.1431
v  11.9576 38.8627 -8.3357
v  11.7478 34.1364 -14.0804
v  11.9395 52.4354 -29.1424
v  12.1493 57.1617 -23.3976
v  -0.8290 -13.9739 1.2230
v  -1.4562 -14.2114 0.4875
v  -8.5370 38.1863 -12.5560
v  -9.1525 37.9456 -13.3003
v  -8.5976 38.1727 -12.5015
v  -0.8928 -13.9662 1.2750
v  -1.5201 -14.2037 0.5395
v  -9.2131 37.9319 -13.2458
v  -3.7906 11.5066 -6.4722
v  -3.1752 11.9056 -5.7992
v  -3.2366 11.9071 -5.7439
v  -3.8521 11.5081 -6.4169
v  -2.5387 -1.2949 -2.7609
v  -7.6135 25.3296 -9.1603
v  -1.9753 -1.0496 -1.9734
v  -8.2939 25.1099 -9.8578
v  -8.2290 25.0888 -9.9046
v  -1.9114 -1.0573 -2.0254
v  -7.6784 25.3507 -9.1135
v  -2.6025 -1.2872 -2.7089
v  -0.8162 -14.1451 0.5379
v  -1.5849 -14.0522 1.1635
v  -8.5356 38.1311 -13.2601
v  -9.2656 37.9672 -12.6035
v  -8.4845 38.1511 -13.1983
v  -0.7641 -14.1254 0.5990
v  -1.5328 -14.0325 1.2246
v  -9.2145 37.9872 -12.5417
v  -3.9091 11.6995 -5.8032
v  -3.1693 11.6811 -6.4689
v  -3.1181 11.7142 -6.4130
v  -3.8580 11.7326 -5.7473
v  -2.6674 -1.1357 -2.0849
v  -7.5890 25.0829 -9.8216
v  -1.8466 -1.2088 -2.6494
v  -8.3184 25.3566 -9.1965
v  -8.3695 25.3366 -9.2583
v  -1.8987 -1.2286 -2.7105
v  -7.5379 25.1029 -9.7598
v  -2.6153 -1.1159 -2.0238
v  -7.8568 28.5483 -7.7036
v  -7.9408 22.0793 -11.3817
v  -6.4196 40.2273 -28.2776
v  -6.5036 33.7583 -31.9557
v  -7.9556 28.5523 -7.7083
v  -8.0395 22.0832 -11.3864
v  -6.6024 33.7622 -31.9604
v  -6.5184 40.2312 -28.2823
v  0.3733 1.3650 -3.2722
v  -4.9060 -3.6033 -1.5906
v  -16.2412 17.9947 -6.2997
v  -21.5205 13.0263 -4.6181
v  0.3805 1.3897 -3.1766
v  -4.8988 -3.5787 -1.4950
v  -21.5133 13.0509 -4.5225
v  -16.2340 18.0193 -6.2041
v  -2.2783 14.8684 -4.8963
v  -4.5804 8.2017 -7.2710
v  -16.3375 25.3928 -20.8125
v  -18.6396 18.7261 -23.1873
v  -2.3519 14.8702 -4.8301
v  -4.6540 8.2035 -7.2049
v  -18.7132 18.7279 -23.1211
v  -16.4111 25.3946 -20.7464
v  -5.2558 27.8565 -9.1665
v  -10.5966 22.7422 -10.0053
v  -17.8667 43.1557 -22.1530
v  -23.2075 38.0414 -22.9918
v  -5.3003 27.8895 -9.0844
v  -10.6410 22.7752 -9.9233
v  -23.2519 38.0743 -22.9098
v  -17.9112 43.1887 -22.0710
v  -1.4747 1.9350 -0.3902
v  -2.9573 -4.1493 -4.4110
v  -7.9431 15.5824 -18.6566
v  -9.4257 9.4982 -22.6773
v  -1.5678 1.9356 -0.3568
v  -3.0504 -4.1487 -4.3776
v  -9.5188 9.4988 -22.6439
v  -8.0362 15.5830 -18.6231
v  -5.6283 14.0923 -4.4266
v  -1.2252 9.0176 -7.6271
v  -1.7685 28.8711 -22.5496
v  2.6346 23.7964 -25.7501
v  -5.7065 14.0544 -4.4741
v  -1.3033 8.9798 -7.6746
v  2.5565 23.7586 -25.7976
v  -1.8467 28.8332 -22.5971
v  -5.4655 38.5213 -12.9958
v  -11.4538 34.1179 -12.6309
v  -19.5373 57.5353 -14.4793
v  -25.5257 53.1319 -14.1145
v  -5.4654 38.5249 -12.9507
v  -11.4537 34.1215 -12.5859
v  -25.5256 53.1355 -14.0694
v  -19.5372 57.5389 -14.4343
v  -5.8597 36.6374 -16.0965
v  -10.2865 37.7392 -10.2166
v  -7.8333 59.5390 -21.8735
v  -12.2600 60.6408 -15.9936
v  -5.8235 36.6469 -16.0711
v  -10.2503 37.7487 -10.1912
v  -12.2239 60.6503 -15.9681
v  -7.7971 59.5485 -21.8481
v  -7.9510 35.5433 -17.5464
v  -7.6492 36.2274 -9.5413
v  -9.4595 60.4930 -14.5454
v  -7.6383 59.8281 -7.3604
v  -7.9087 35.5279 -17.5508
v  -7.6053 36.2284 -9.5524
v  -7.5945 59.8291 -7.3714
v  -9.4157 60.4939 -14.5564
v  -1.8345 -14.4556 0.6699
v  -2.5779 -14.5528 1.3248
v  -6.9718 39.4540 6.7798
v  -7.7247 39.3546 7.4232
v  -6.9182 39.4339 6.8395
v  -1.7800 -14.4541 0.7321
v  -2.5234 -14.5513 1.3869
v  -7.6711 39.3345 7.4829
v  -5.3213 12.0060 2.8771
v  -4.6138 12.2728 2.2297
v  -4.5570 12.2676 2.2896
v  -5.2645 12.0008 2.9369
v  -3.7148 -1.2561 2.0080
v  -5.6750 26.1982 6.2493
v  -2.9169 -1.1574 1.4153
v  -6.3764 26.1143 6.9555
v  -6.4280 26.0988 6.8927
v  -2.9714 -1.1589 1.3532
v  -5.6235 26.2137 6.3120
v  -3.6602 -1.2546 2.0702
v  -2.5381 -14.5163 0.6816
v  -1.8815 -14.4986 1.4296
v  -7.6755 39.5111 6.7991
v  -7.0300 39.2692 7.5171
v  -7.6129 39.5194 6.7456
v  -2.4763 -14.5082 0.6272
v  -1.8198 -14.4905 1.3752
v  -6.9674 39.2774 7.4637
v  -4.6268 12.0941 2.9706
v  -5.3103 12.1573 2.2497
v  -5.2515 12.1795 2.1960
v  -4.5680 12.1163 2.9169
v  -3.0184 -1.2019 2.1129
v  -6.3674 26.0588 6.2514
v  -3.6132 -1.2116 1.3105
v  -5.6840 26.2537 6.9533
v  -5.7466 26.2454 7.0068
v  -3.6750 -1.2196 1.3649
v  -6.3049 26.0670 6.1980
v  -2.9567 -1.1939 2.0585
v  -3.7225 29.1515 6.3336
v  -8.3691 23.3538 6.7562
v  -22.2350 43.8914 5.0014
v  -26.8816 38.0937 5.4240
v  -3.7233 29.1593 6.4322
v  -8.3700 23.3616 6.8548
v  -26.8825 38.1016 5.5226
v  -22.2358 43.8993 5.1000
v  -3.8932 1.3543 -0.9870
v  -2.8479 -3.6420 4.4285
v  -3.7322 18.7895 15.0673
v  -2.6870 13.7932 20.4829
v  -3.7952 1.3632 -0.9977
v  -2.7500 -3.6331 4.4179
v  -2.5890 13.8021 20.4722
v  -3.6343 18.7984 15.0566
v  -3.2845 15.0239 1.1991
v  -6.6052 8.8973 3.8107
v  -16.8879 28.3943 15.2679
v  -20.2086 22.2676 17.8795
v  -3.2165 15.0176 1.2708
v  -6.5373 8.8910 3.8824
v  -20.1407 22.2614 17.9512
v  -16.8199 28.3880 15.3396
v  -2.8004 11.0943 -0.3757
v  -7.1119 12.8991 5.4154
v  0.9441 34.0850 -4.7529
v  -3.3674 35.8898 1.0382
v  -2.7213 11.0927 -0.3163
v  -7.0328 12.8975 5.4748
v  -3.2883 35.8882 1.0976
v  1.0232 34.0834 -4.6935
v  -5.3581 28.6154 3.7996
v  -6.8216 23.8768 9.3483
v  -15.3639 46.1855 16.1660
v  -16.8273 41.4469 21.7146
v  -5.2706 28.6364 3.8407
v  -6.7340 23.8978 9.3893
v  -16.7398 41.4679 21.7556
v  -15.2763 46.2065 16.2070
v  -4.3974 24.6337 3.7865
v  -7.8502 28.1972 9.3330
v  -3.4399 44.8246 -8.5895
v  -6.8927 48.3880 -3.0430
v  -4.3098 24.6547 3.8275
v  -7.7626 28.2181 9.3740
v  -6.8051 48.4090 -3.0020
v  -3.3523 44.8455 -8.5485
v  -0.9000 1.5203 0.7620
v  -5.7798 -3.7975 2.5764
v  -16.5728 18.0962 7.1928
v  -21.4526 12.7784 9.0072
v  -0.8639 1.5187 0.8541
v  -5.7437 -3.7992 2.6685
v  -21.4165 12.7768 9.0993
v  -16.5368 18.0946 7.2849
v  -0.0846 -2.8330 0.6667
v  -6.5599 0.2508 2.6528
v  9.4933 18.7295 -1.5859
v  3.0181 21.8132 0.4003
v  -0.0567 -2.8355 0.7616
v  -6.5320 0.2483 2.7477
v  3.0460 21.8107 0.4951
v  9.5213 18.7270 -1.4910
v  -2.8364 14.2935 4.5624
v  -6.9350 9.6488 0.4378
v  -18.5186 31.6243 0.6297
v  -22.6172 26.9796 -3.4949
v  -2.8868 14.2662 4.6431
v  -6.9854 9.6216 0.5185
v  -22.6675 26.9524 -3.4142
v  -18.5689 31.5970 0.7104
v  -1.8769 10.2470 3.7950
v  -7.9058 13.7719 1.2239
v  5.0255 30.0747 14.7937
v  -1.0034 33.5996 12.2226
v  -1.9273 10.2197 3.8757
v  -7.9562 13.7447 1.3047
v  -1.0538 33.5724 12.3034
v  4.9751 30.0474 14.8744
v  -2.6054 25.1832 6.0987
v  -9.5704 27.6576 6.9650
v  4.8101 47.3765 2.3284
v  -2.1549 49.8509 3.1947
v  -2.5894 25.1943 6.1957
v  -9.5543 27.6687 7.0620
v  -2.1388 49.8621 3.2917
v  4.8261 47.3876 2.4254
v  -7.9148 39.8141 3.3564
v  -8.0575 35.6074 9.4937
v  -5.9353 59.2740 16.7409
v  -6.0780 55.0673 22.8782
v  -7.8697 39.8105 3.3550
v  -8.0125 35.6038 9.4923
v  -6.0330 55.0637 22.8768
v  -5.8902 59.2704 16.7395
v  -10.6606 38.3271 4.5067
v  -4.5920 39.1592 8.7331
v  -14.7392 61.6404 5.7729
v  -8.6706 62.4726 9.9993
v  -10.6352 38.3312 4.4695
v  -4.5665 39.1634 8.6960
v  -8.6451 62.4768 9.9622
v  -14.7138 61.6446 5.7358
# 584 vertices

vn 0.0006 0.6031 0.7977
vn -0.0004 0.6010 0.7993
vn -0.0113 0.5795 0.8149
vn -0.0113 0.5795 0.8149
vn -0.0113 0.5795 0.8149
vn 0.0006 0.6031 0.7977
vn 0.0122 0.6752 -0.7376
vn 0.0005 0.6581 -0.7530
vn -0.0007 0.6567 -0.7542
vn -0.0007 0.6567 -0.7542
vn 0.0122 0.6752 -0.7376
vn 0.0122 0.6752 -0.7376
vn 0.0024 0.5818 0.8134
vn 0.0024 0.5817 0.8134
vn 0.0079 0.6013 0.7990
vn 0.0079 0.6013 0.7990
vn 0.0082 0.6037 0.7972
vn 0.0024 0.5818 0.8134
vn -0.0026 0.6732 -0.7395
vn -0.0026 0.6731 -0.7395
vn -0.0093 0.6562 -0.7545
vn -0.0093 0.6562 -0.7545
vn -0.0089 0.6579 -0.7531
vn -0.0026 0.6732 -0.7395
vn 0.0082 0.6037 0.7972
vn 0.0079 0.6013 0.7990
vn -0.0004 0.6010 0.7993
vn -0.0004 0.6010 0.7993
vn 0.0006 0.6031 0.7977
vn 0.0082 0.6037 0.7972
vn -0.0089 0.6579 -0.7531
vn -0.0093 0.6562 -0.7545
vn -0.0007 0.6567 -0.7542
vn -0.0007 0.6567 -0.7542
vn 0.0005 0.6581 -0.7530
vn -0.0089 0.6579 -0.7531
vn 0.0000 0.5833 0.8123
vn 0.0000 0.5833 0.8123
vn 0.0024 0.5817 0.8134
vn 0.0024 0.5817 0.8134
vn 0.0024 0.5818 0.8134
vn 0.0000 0.5833 0.8123
vn 0.0000 0.6718 -0.7407
vn 0.0000 0.6718 -0.7407
vn -0.0026 0.6731 -0.7395
vn -0.0026 0.6731 -0.7395
vn -0.0026 0.6732 -0.7395
vn 0.0000 0.6718 -0.7407
vn 0.7908 0.6081 0.0701
vn 0.7873 0.6122 0.0733
vn 0.7771 0.6240 0.0816
vn 0.7771 0.6240 0.0816
vn 0.7771 0.6240 0.0816
vn 0.7908 0.6081 0.0701
vn -0.7776 0.6260 0.0583
vn -0.7663 0.6390 0.0668
vn -0.7614 0.6445 0.0701
vn -0.7614 0.6445 0.0701
vn -0.7776 0.6260 0.0583
vn -0.7776 0.6260 0.0583
vn 0.7807 0.6215 0.0649
vn 0.7807 0.6216 0.0650
vn 0.7919 0.6076 0.0606
vn 0.7919 0.6076 0.0606
vn 0.7920 0.6075 0.0606
vn 0.7807 0.6215 0.0649
vn -0.7742 0.6285 0.0749
vn -0.7741 0.6286 0.0750
vn -0.7598 0.6453 0.0792
vn -0.7598 0.6453 0.0792
vn -0.7599 0.6452 0.0792
vn -0.7742 0.6285 0.0749
vn 0.7920 0.6075 0.0606
vn 0.7919 0.6076 0.0606
vn 0.7873 0.6122 0.0733
vn 0.7873 0.6122 0.0733
vn 0.7908 0.6081 0.0701
vn 0.7920 0.6075 0.0606
vn -0.7599 0.6452 0.0792
vn -0.7598 0.6453 0.0792
vn -0.7614 0.6445 0.0701
vn -0.7614 0.6445 0.0701
vn -0.7663 0.6390 0.0668
vn -0.7599 0.6452 0.0792
vn 0.7775 0.6250 0.0700
vn 0.7775 0.6250 0.0700
vn 0.7807 0.6216 0.0650
vn 0.7807 0.6216 0.0650
vn 0.7807 0.6215 0.0649
vn 0.7775 0.6250 0.0700
vn -0.7775 0.6250 0.0700
vn -0.7775 0.6250 0.0700
vn -0.7741 0.6286 0.0750
vn -0.7741 0.6286 0.0750
vn -0.7742 0.6285 0.0749
vn -0.7775 0.6250 0.0700
vn 0.3176 0.5558 0.7682
vn 0.3176 0.5558 0.7683
vn 0.3176 0.5558 0.7683
vn 0.3176 0.5558 0.7683
vn 0.3176 0.5558 0.7683
vn 0.3176 0.5558 0.7682
vn -0.3209 0.7026 -0.6350
vn -0.3209 0.7027 -0.6350
vn -0.3210 0.7026 -0.6350
vn -0.3210 0.7026 -0.6350
vn -0.3210 0.7027 -0.6350
vn -0.3209 0.7026 -0.6350
vn 0.3176 0.5558 0.7682
vn 0.3176 0.5558 0.7682
vn 0.3176 0.5558 0.7683
vn 0.3176 0.5558 0.7683
vn 0.3176 0.5558 0.7683
vn 0.3176 0.5558 0.7682
vn -0.3209 0.7026 -0.6350
vn -0.3209 0.7027 -0.6350
vn -0.3210 0.7027 -0.6350
vn -0.3210 0.7027 -0.6350
vn -0.3209 0.7026 -0.6351
vn -0.3209 0.7026 -0.6350
vn -0.7017 0.6595 0.2695
vn -0.7017 0.6595 0.2695
vn -0.7017 0.6595 0.2695
vn -0.7017 0.6595 0.2695
vn -0.7017 0.6595 0.2695
vn -0.7017 0.6595 0.2695
vn 0.7822 0.6044 -0.1512
vn 0.7823 0.6043 -0.1513
vn 0.7822 0.6044 -0.1512
vn 0.7822 0.6044 -0.1512
vn 0.7822 0.6044 -0.1512
vn 0.7822 0.6044 -0.1512
vn -0.7017 0.6595 0.2695
vn -0.7017 0.6595 0.2695
vn -0.7017 0.6595 0.2695
vn -0.7017 0.6595 0.2695
vn -0.7017 0.6595 0.2695
vn -0.7017 0.6595 0.2695
vn 0.7822 0.6044 -0.1512
vn 0.7823 0.6043 -0.1513
vn 0.7823 0.6043 -0.1513
vn 0.7823 0.6043 -0.1513
vn 0.7822 0.6044 -0.1512
vn 0.7822 0.6044 -0.1512
vn -0.3985 0.5596 0.7266
vn -0.3985 0.5596 0.7266
vn -0.3985 0.5596 0.7266
vn -0.3985 0.5596 0.7266
vn -0.3985 0.5596 0.7266
vn -0.3985 0.5596 0.7266
vn 0.4024 0.6979 -0.5925
vn 0.4024 0.6978 -0.5926
vn 0.4024 0.6978 -0.5926
vn 0.4024 0.6978 -0.5926
vn 0.4024 0.6979 -0.5925
vn 0.4024 0.6979 -0.5925
vn 0.5568 0.6386 0.5312
vn 0.5568 0.6386 0.5312
vn 0.5568 0.6386 0.5312
vn 0.5568 0.6386 0.5312
vn 0.5568 0.6386 0.5312
vn 0.5568 0.6386 0.5312
vn -0.6342 0.6256 -0.4542
vn -0.6342 0.6256 -0.4542
vn -0.6342 0.6257 -0.4542
vn -0.6342 0.6257 -0.4542
vn -0.6343 0.6256 -0.4542
vn -0.6342 0.6256 -0.4542
vn 0.7625 0.6355 -0.1213
vn 0.7625 0.6355 -0.1213
vn 0.7625 0.6355 -0.1213
vn 0.7625 0.6355 -0.1213
vn 0.7625 0.6355 -0.1213
vn 0.7625 0.6355 -0.1213
vn -0.7455 0.6149 0.2570
vn -0.7455 0.6149 0.2570
vn -0.7456 0.6149 0.2570
vn -0.7456 0.6149 0.2570
vn -0.7456 0.6149 0.2570
vn -0.7455 0.6149 0.2570
vn 0.4296 0.6649 -0.6111
vn 0.4296 0.6649 -0.6111
vn 0.4297 0.6647 -0.6112
vn 0.4297 0.6647 -0.6112
vn 0.4297 0.6646 -0.6112
vn 0.4296 0.6649 -0.6111
vn -0.3991 0.5887 0.7030
vn -0.3990 0.5889 0.7028
vn -0.3990 0.5889 0.7028
vn -0.3990 0.5889 0.7028
vn -0.3991 0.5887 0.7030
vn -0.3991 0.5887 0.7030
vn -0.5496 0.6218 0.5579
vn -0.5524 0.6199 0.5573
vn -0.5815 0.6005 0.5489
vn -0.5815 0.6005 0.5489
vn -0.5815 0.6005 0.5489
vn -0.5496 0.6218 0.5579
vn 0.6183 0.6518 -0.4391
vn 0.6115 0.6373 -0.4690
vn 0.6107 0.6361 -0.4717
vn 0.6107 0.6361 -0.4717
vn 0.6183 0.6518 -0.4391
vn 0.6183 0.6518 -0.4391
vn -0.5707 0.6012 0.5594
vn -0.5707 0.6012 0.5594
vn -0.5468 0.6192 0.5635
vn -0.5468 0.6192 0.5635
vn -0.5441 0.6215 0.5637
vn -0.5707 0.6012 0.5594
vn 0.6091 0.6514 -0.4524
vn 0.6092 0.6514 -0.4524
vn 0.6050 0.6365 -0.4784
vn 0.6050 0.6365 -0.4784
vn 0.6054 0.6380 -0.4759
vn 0.6091 0.6514 -0.4524
vn -0.5441 0.6215 0.5637
vn -0.5468 0.6192 0.5635
vn -0.5524 0.6199 0.5573
vn -0.5524 0.6199 0.5573
vn -0.5496 0.6218 0.5579
vn -0.5441 0.6215 0.5637
vn 0.6054 0.6380 -0.4759
vn 0.6050 0.6365 -0.4784
vn 0.6107 0.6361 -0.4717
vn 0.6107 0.6361 -0.4717
vn 0.6115 0.6373 -0.4690
vn 0.6054 0.6380 -0.4759
vn -0.5706 0.6029 0.5576
vn -0.5706 0.6029 0.5576
vn -0.5707 0.6012 0.5594
vn -0.5707 0.6012 0.5594
vn -0.5707 0.6012 0.5594
vn -0.5706 0.6029 0.5576
vn 0.6109 0.6499 -0.4521
vn 0.6109 0.6499 -0.4521
vn 0.6092 0.6514 -0.4524
vn 0.6092 0.6514 -0.4524
vn 0.6091 0.6514 -0.4524
vn 0.6109 0.6499 -0.4521
vn 0.5062 0.5415 0.6712
vn 0.5029 0.5438 0.6719
vn 0.4941 0.5505 0.6729
vn 0.4941 0.5505 0.6729
vn 0.4941 0.5505 0.6729
vn 0.5062 0.5415 0.6712
vn -0.4770 0.7153 -0.5107
vn -0.4717 0.7315 -0.4924
vn -0.4693 0.7380 -0.4849
vn -0.4693 0.7380 -0.4849
vn -0.4770 0.7153 -0.5107
vn -0.4770 0.7153 -0.5107
vn 0.5083 0.5491 0.6634
vn 0.5082 0.5491 0.6635
vn 0.5140 0.5414 0.6654
vn 0.5140 0.5414 0.6654
vn 0.5140 0.5413 0.6654
vn 0.5083 0.5491 0.6634
vn -0.4864 0.7191 -0.4964
vn -0.4863 0.7191 -0.4963
vn -0.4748 0.7394 -0.4773
vn -0.4748 0.7394 -0.4773
vn -0.4749 0.7393 -0.4774
vn -0.4864 0.7191 -0.4964
vn 0.5140 0.5413 0.6654
vn 0.5140 0.5414 0.6654
vn 0.5029 0.5438 0.6719
vn 0.5029 0.5438 0.6719
vn 0.5062 0.5415 0.6712
vn 0.5140 0.5413 0.6654
vn -0.4749 0.7393 -0.4774
vn -0.4748 0.7394 -0.4773
vn -0.4693 0.7380 -0.4849
vn -0.4693 0.7380 -0.4849
vn -0.4717 0.7315 -0.4924
vn -0.4749 0.7393 -0.4774
vn 0.5035 0.5512 0.6653
vn 0.5035 0.5512 0.6653
vn 0.5082 0.5491 0.6635
vn 0.5082 0.5491 0.6635
vn 0.5083 0.5491 0.6634
vn 0.5035 0.5512 0.6653
vn -0.4860 0.7145 -0.5033
vn -0.4860 0.7145 -0.5033
vn -0.4863 0.7191 -0.4963
vn -0.4863 0.7191 -0.4963
vn -0.4864 0.7191 -0.4964
vn -0.4860 0.7145 -0.5033
vn -0.7709 0.6348 0.0531
vn -0.7709 0.6348 0.0530
vn -0.7709 0.6348 0.0530
vn -0.7709 0.6348 0.0530
vn -0.7709 0.6348 0.0530
vn -0.7709 0.6348 0.0531
vn 0.7832 0.6157 0.0872
vn 0.7832 0.6157 0.0872
vn 0.7832 0.6157 0.0872
vn 0.7832 0.6157 0.0872
vn 0.7832 0.6157 0.0872
vn 0.7832 0.6157 0.0872
vn 0.0629 0.5497 0.8330
vn 0.0629 0.5497 0.8330
vn 0.0629 0.5497 0.8330
vn 0.0629 0.5497 0.8330
vn 0.0629 0.5497 0.8330
vn 0.0629 0.5497 0.8330
vn -0.0636 0.7106 -0.7007
vn -0.0637 0.7106 -0.7007
vn -0.0637 0.7106 -0.7007
vn -0.0637 0.7106 -0.7007
vn -0.0636 0.7106 -0.7007
vn -0.0636 0.7106 -0.7007
vn 0.0629 0.5497 0.8330
vn 0.0629 0.5497 0.8330
vn 0.0629 0.5497 0.8330
vn 0.0629 0.5497 0.8330
vn 0.0629 0.5497 0.8330
vn 0.0629 0.5497 0.8330
vn -0.0636 0.7106 -0.7007
vn -0.0636 0.7106 -0.7007
vn -0.0636 0.7106 -0.7007
vn -0.0636 0.7106 -0.7007
vn -0.0636 0.7106 -0.7007
vn -0.0636 0.7106 -0.7007
vn -0.5354 0.6196 0.5740
vn -0.5354 0.6196 0.5740
vn -0.5354 0.6196 0.5740
vn -0.5354 0.6196 0.5740
vn -0.5354 0.6196 0.5740
vn -0.5354 0.6196 0.5740
vn 0.5946 0.6381 -0.4892
vn 0.5946 0.6381 -0.4893
vn 0.5946 0.6381 -0.4893
vn 0.5946 0.6381 -0.4893
vn 0.5946 0.6381 -0.4892
vn 0.5946 0.6381 -0.4892
vn -0.4532 0.5983 0.6608
vn -0.4532 0.5983 0.6608
vn -0.4531 0.5985 0.6607
vn -0.4531 0.5985 0.6607
vn -0.4532 0.5985 0.6607
vn -0.4532 0.5983 0.6608
vn 0.4926 0.6558 -0.5720
vn 0.4926 0.6558 -0.5721
vn 0.4926 0.6558 -0.5721
vn 0.4926 0.6558 -0.5721
vn 0.4926 0.6558 -0.5721
vn 0.4926 0.6558 -0.5720
vn -0.3576 0.5465 0.7573
vn -0.3576 0.5465 0.7573
vn -0.3576 0.5466 0.7572
vn -0.3576 0.5466 0.7572
vn -0.3576 0.5466 0.7572
vn -0.3576 0.5465 0.7573
vn 0.3496 0.7189 -0.6008
vn 0.3497 0.7188 -0.6009
vn 0.3497 0.7188 -0.6009
vn 0.3497 0.7188 -0.6009
vn 0.3496 0.7189 -0.6008
vn 0.3496 0.7189 -0.6008
vn -0.3576 0.5465 0.7573
vn -0.3575 0.5465 0.7573
vn -0.3575 0.5466 0.7572
vn -0.3575 0.5466 0.7572
vn -0.3575 0.5466 0.7572
vn -0.3576 0.5465 0.7573
vn 0.3496 0.7189 -0.6008
vn 0.3497 0.7188 -0.6009
vn 0.3497 0.7188 -0.6009
vn 0.3497 0.7188 -0.6009
vn 0.3496 0.7189 -0.6008
vn 0.3496 0.7189 -0.6008
vn -0.6970 0.6332 0.3365
vn -0.6971 0.6332 0.3365
vn -0.6971 0.6332 0.3365
vn -0.6971 0.6332 0.3365
vn -0.6970 0.6332 0.3364
vn -0.6970 0.6332 0.3365
vn 0.7523 0.6219 -0.2173
vn 0.7523 0.6220 -0.2172
vn 0.7524 0.6219 -0.2172
vn 0.7524 0.6219 -0.2172
vn 0.7523 0.6219 -0.2173
vn 0.7523 0.6219 -0.2173
vn -0.5775 0.7582 -0.3027
vn -0.5775 0.7583 -0.3026
vn -0.5775 0.7582 -0.3027
vn -0.5775 0.7582 -0.3027
vn -0.5775 0.7582 -0.3027
vn -0.5775 0.7582 -0.3027
vn 0.6679 0.5455 0.5063
vn 0.6679 0.5455 0.5064
vn 0.6679 0.5455 0.5064
vn 0.6679 0.5455 0.5064
vn 0.6679 0.5455 0.5063
vn 0.6679 0.5455 0.5063
vn -0.5775 0.7582 -0.3027
vn -0.5775 0.7582 -0.3026
vn -0.5775 0.7583 -0.3026
vn -0.5775 0.7583 -0.3026
vn -0.5776 0.7582 -0.3027
vn -0.5775 0.7582 -0.3027
vn 0.6679 0.5455 0.5063
vn 0.6679 0.5455 0.5063
vn 0.6679 0.5455 0.5063
vn 0.6679 0.5455 0.5063
vn 0.6679 0.5455 0.5063
vn 0.6679 0.5455 0.5063
vn 0.4900 0.6079 0.6248
vn 0.4890 0.6060 0.6274
vn 0.4770 0.5856 0.6554
vn 0.4770 0.5856 0.6554
vn 0.4770 0.5856 0.6554
vn 0.4900 0.6079 0.6248
vn -0.5040 0.6672 -0.5485
vn -0.5354 0.6491 -0.5403
vn -0.5383 0.6476 -0.5393
vn -0.5383 0.6476 -0.5393
vn -0.5040 0.6672 -0.5485
vn -0.5040 0.6672 -0.5485
vn 0.4885 0.5873 0.6453
vn 0.4885 0.5873 0.6453
vn 0.4956 0.6059 0.6223
vn 0.4956 0.6059 0.6223
vn 0.4961 0.6083 0.6196
vn 0.4885 0.5873 0.6453
vn -0.5168 0.6653 -0.5387
vn -0.5168 0.6653 -0.5388
vn -0.5446 0.6472 -0.5333
vn -0.5446 0.6472 -0.5333
vn -0.5420 0.6491 -0.5339
vn -0.5168 0.6653 -0.5387
vn 0.4961 0.6083 0.6196
vn 0.4956 0.6059 0.6223
vn 0.4890 0.6060 0.6274
vn 0.4890 0.6060 0.6274
vn 0.4900 0.6079 0.6248
vn 0.4961 0.6083 0.6196
vn -0.5420 0.6491 -0.5339
vn -0.5446 0.6472 -0.5333
vn -0.5383 0.6476 -0.5393
vn -0.5383 0.6476 -0.5393
vn -0.5354 0.6491 -0.5403
vn -0.5420 0.6491 -0.5339
vn 0.4869 0.5888 0.6452
vn 0.4869 0.5888 0.6452
vn 0.4885 0.5873 0.6453
vn 0.4885 0.5873 0.6453
vn 0.4885 0.5873 0.6453
vn 0.4869 0.5888 0.6452
vn -0.5168 0.6639 -0.5406
vn -0.5168 0.6639 -0.5406
vn -0.5168 0.6653 -0.5388
vn -0.5168 0.6653 -0.5388
vn -0.5168 0.6653 -0.5387
vn -0.5168 0.6639 -0.5406
vn 0.6390 0.6107 -0.4677
vn 0.6405 0.6121 -0.4638
vn 0.6432 0.6172 -0.4532
vn 0.6432 0.6172 -0.4532
vn 0.6432 0.6172 -0.4532
vn 0.6390 0.6107 -0.4677
vn -0.5477 0.6577 0.5172
vn -0.5296 0.6748 0.5140
vn -0.5222 0.6817 0.5125
vn -0.5222 0.6817 0.5125
vn -0.5477 0.6577 0.5172
vn -0.5477 0.6577 0.5172
vn 0.6328 0.6164 -0.4687
vn 0.6328 0.6164 -0.4687
vn 0.6325 0.6109 -0.4762
vn 0.6325 0.6109 -0.4762
vn 0.6325 0.6108 -0.4762
vn 0.6328 0.6164 -0.4687
vn -0.5341 0.6614 0.5266
vn -0.5340 0.6614 0.5266
vn -0.5150 0.6830 0.5179
vn -0.5150 0.6830 0.5179
vn -0.5151 0.6829 0.5180
vn -0.5341 0.6614 0.5266
vn 0.6325 0.6108 -0.4762
vn 0.6325 0.6109 -0.4762
vn 0.6405 0.6121 -0.4638
vn 0.6405 0.6121 -0.4638
vn 0.6390 0.6107 -0.4677
vn 0.6325 0.6108 -0.4762
vn -0.5151 0.6829 0.5180
vn -0.5150 0.6830 0.5179
vn -0.5222 0.6817 0.5125
vn -0.5222 0.6817 0.5125
vn -0.5296 0.6748 0.5140
vn -0.5151 0.6829 0.5180
vn 0.6353 0.6179 -0.4633
vn 0.6353 0.6179 -0.4633
vn 0.6328 0.6164 -0.4687
vn 0.6328 0.6164 -0.4687
vn 0.6328 0.6164 -0.4687
vn 0.6353 0.6179 -0.4633
vn -0.5408 0.6566 0.5257
vn -0.5408 0.6566 0.5257
vn -0.5340 0.6614 0.5266
vn -0.5340 0.6614 0.5266
vn -0.5341 0.6614 0.5266
vn -0.5408 0.6566 0.5257
vn -0.0218 0.5856 0.8103
vn -0.0217 0.5856 0.8103
vn -0.0217 0.5856 0.8103
vn -0.0217 0.5856 0.8103
vn -0.0217 0.5856 0.8103
vn -0.0218 0.5856 0.8103
vn 0.0239 0.6698 -0.7421
vn 0.0238 0.6698 -0.7421
vn 0.0238 0.6698 -0.7421
vn 0.0238 0.6698 -0.7421
vn 0.0239 0.6698 -0.7421
vn 0.0239 0.6698 -0.7421
vn 0.8047 0.5936 0.0098
vn 0.8047 0.5936 0.0098
vn 0.8047 0.5936 0.0097
vn 0.8047 0.5936 0.0097
vn 0.8047 0.5936 0.0097
vn 0.8047 0.5936 0.0098
vn -0.7314 0.6703 0.1259
vn -0.7314 0.6702 0.1259
vn -0.7314 0.6702 0.1259
vn -0.7314 0.6702 0.1259
vn -0.7314 0.6702 0.1259
vn -0.7314 0.6703 0.1259
vn 0.5069 0.6074 0.6117
vn 0.5069 0.6074 0.6116
vn 0.5070 0.6073 0.6117
vn 0.5070 0.6073 0.6117
vn 0.5070 0.6073 0.6117
vn 0.5069 0.6074 0.6117
vn -0.5546 0.6476 -0.5224
vn -0.5547 0.6476 -0.5225
vn -0.5547 0.6476 -0.5225
vn -0.5547 0.6476 -0.5225
vn -0.5546 0.6476 -0.5225
vn -0.5546 0.6476 -0.5224
vn 0.5992 0.5963 0.5343
vn 0.5992 0.5962 0.5343
vn 0.5992 0.5963 0.5343
vn 0.5992 0.5963 0.5343
vn 0.5992 0.5963 0.5343
vn 0.5992 0.5963 0.5343
vn -0.6293 0.6554 -0.4176
vn -0.6293 0.6554 -0.4176
vn -0.6293 0.6554 -0.4176
vn -0.6293 0.6554 -0.4176
vn -0.6292 0.6555 -0.4176
vn -0.6293 0.6554 -0.4176
vn 0.6999 0.5600 0.4434
vn 0.6999 0.5600 0.4434
vn 0.6998 0.5600 0.4435
vn 0.6998 0.5600 0.4435
vn 0.6998 0.5600 0.4435
vn 0.6999 0.5600 0.4434
vn -0.6475 0.7112 -0.2736
vn -0.6476 0.7111 -0.2737
vn -0.6476 0.7111 -0.2737
vn -0.6476 0.7111 -0.2737
vn -0.6475 0.7112 -0.2736
vn -0.6475 0.7112 -0.2736
vn 0.2602 0.6004 0.7562
vn 0.2602 0.6004 0.7562
vn 0.2602 0.6004 0.7562
vn 0.2602 0.6004 0.7562
vn 0.2602 0.6004 0.7562
vn 0.2602 0.6004 0.7562
vn -0.2904 0.6570 -0.6957
vn -0.2905 0.6569 -0.6957
vn -0.2905 0.6570 -0.6957
vn -0.2905 0.6570 -0.6957
vn -0.2904 0.6570 -0.6957
vn -0.2904 0.6570 -0.6957
vn -0.3494 0.7020 0.6206
vn -0.3494 0.7020 0.6206
vn -0.3494 0.7019 0.6207
vn -0.3494 0.7019 0.6207
vn -0.3494 0.7019 0.6207
vn -0.3494 0.7020 0.6206
vn 0.4550 0.6186 -0.6405
vn 0.4550 0.6186 -0.6405
vn 0.4550 0.6187 -0.6405
vn 0.4550 0.6187 -0.6405
vn 0.4550 0.6186 -0.6405
vn 0.4550 0.6186 -0.6405
vn 0.7820 0.6207 0.0574
vn 0.7820 0.6207 0.0574
vn 0.7820 0.6207 0.0574
vn 0.7820 0.6207 0.0574
vn 0.7820 0.6207 0.0574
vn 0.7820 0.6207 0.0574
vn -0.7726 0.6295 0.0824
vn -0.7726 0.6295 0.0824
vn -0.7726 0.6295 0.0824
vn -0.7726 0.6295 0.0824
vn -0.7726 0.6295 0.0824
vn -0.7726 0.6295 0.0824
vn 0.6121 0.6521 -0.4474
vn 0.6148 0.6504 -0.4460
vn 0.6433 0.6336 -0.4298
vn 0.6433 0.6336 -0.4298
vn 0.6433 0.6336 -0.4298
vn 0.6121 0.6521 -0.4474
vn -0.5815 0.6238 0.5223
vn -0.5757 0.6022 0.5532
vn -0.5749 0.6004 0.5559
vn -0.5749 0.6004 0.5559
vn -0.5815 0.6238 0.5223
vn -0.5815 0.6238 0.5223
vn 0.6328 0.6353 -0.4427
vn 0.6328 0.6352 -0.4427
vn 0.6094 0.6505 -0.4532
vn 0.6094 0.6505 -0.4532
vn 0.6067 0.6525 -0.4540
vn 0.6328 0.6353 -0.4427
vn -0.5725 0.6219 0.5342
vn -0.5726 0.6219 0.5342
vn -0.5695 0.6000 0.5619
vn -0.5695 0.6000 0.5619
vn -0.5698 0.6022 0.5592
vn -0.5725 0.6219 0.5342
vn 0.6067 0.6525 -0.4540
vn 0.6094 0.6505 -0.4532
vn 0.6148 0.6504 -0.4460
vn 0.6148 0.6504 -0.4460
vn 0.6121 0.6521 -0.4474
vn 0.6067 0.6525 -0.4540
vn -0.5698 0.6022 0.5592
vn -0.5695 0.6000 0.5619
vn -0.5749 0.6004 0.5559
vn -0.5749 0.6004 0.5559
vn -0.5757 0.6022 0.5532
vn -0.5698 0.6022 0.5592
vn 0.6327 0.6364 -0.4412
vn 0.6327 0.6364 -0.4412
vn 0.6328 0.6352 -0.4427
vn 0.6328 0.6352 -0.4427
vn 0.6328 0.6353 -0.4427
vn 0.6327 0.6364 -0.4412
vn -0.5744 0.6201 0.5344
vn -0.5744 0.6201 0.5344
vn -0.5726 0.6219 0.5342
vn -0.5726 0.6219 0.5342
vn -0.5725 0.6219 0.5342
vn -0.5744 0.6201 0.5344
vn -0.5562 0.6159 -0.5580
vn -0.5505 0.6176 -0.5617
vn -0.5357 0.6230 -0.5700
vn -0.5357 0.6230 -0.5700
vn -0.5357 0.6230 -0.5700
vn -0.5562 0.6159 -0.5580
vn 0.4486 0.6553 0.6077
vn 0.4488 0.6731 0.5878
vn 0.4486 0.6802 0.5798
vn 0.4486 0.6802 0.5798
vn 0.4486 0.6553 0.6077
vn 0.4486 0.6553 0.6077
vn -0.5515 0.6210 -0.5570
vn -0.5515 0.6210 -0.5570
vn -0.5646 0.6151 -0.5503
vn -0.5646 0.6151 -0.5503
vn -0.5646 0.6151 -0.5503
vn -0.5515 0.6210 -0.5570
vn 0.4595 0.6599 0.5945
vn 0.4595 0.6599 0.5945
vn 0.4547 0.6820 0.5729
vn 0.4547 0.6820 0.5729
vn 0.4547 0.6819 0.5730
vn 0.4595 0.6599 0.5945
vn -0.5646 0.6151 -0.5503
vn -0.5646 0.6151 -0.5503
vn -0.5505 0.6176 -0.5617
vn -0.5505 0.6176 -0.5617
vn -0.5562 0.6159 -0.5580
vn -0.5646 0.6151 -0.5503
vn 0.4547 0.6819 0.5730
vn 0.4547 0.6820 0.5729
vn 0.4486 0.6802 0.5798
vn 0.4486 0.6802 0.5798
vn 0.4488 0.6731 0.5878
vn 0.4547 0.6819 0.5730
vn -0.5450 0.6229 -0.5612
vn -0.5450 0.6229 -0.5612
vn -0.5515 0.6210 -0.5570
vn -0.5515 0.6210 -0.5570
vn -0.5515 0.6210 -0.5570
vn -0.5450 0.6229 -0.5612
vn 0.4575 0.6547 0.6017
vn 0.4575 0.6547 0.6017
vn 0.4595 0.6599 0.5945
vn 0.4595 0.6599 0.5945
vn 0.4595 0.6599 0.5945
vn 0.4575 0.6547 0.6017
vn 0.7814 0.6147 0.1074
vn 0.7814 0.6147 0.1074
vn 0.7815 0.6146 0.1074
vn 0.7815 0.6146 0.1074
vn 0.7815 0.6146 0.1074
vn 0.7814 0.6147 0.1074
vn -0.7712 0.6358 0.0331
vn -0.7711 0.6359 0.0332
vn -0.7711 0.6359 0.0332
vn -0.7711 0.6359 0.0332
vn -0.7712 0.6358 0.0331
vn -0.7712 0.6358 0.0331
vn -0.0644 0.6347 -0.7701
vn -0.0644 0.6347 -0.7701
vn -0.0645 0.6347 -0.7701
vn -0.0645 0.6347 -0.7701
vn -0.0645 0.6346 -0.7701
vn -0.0644 0.6347 -0.7701
vn 0.0527 0.6489 0.7590
vn 0.0526 0.6489 0.7591
vn 0.0526 0.6490 0.7590
vn 0.0526 0.6490 0.7590
vn 0.0527 0.6489 0.7590
vn 0.0527 0.6489 0.7590
vn 0.5982 0.6520 -0.4658
vn 0.5982 0.6520 -0.4658
vn 0.5983 0.6519 -0.4658
vn 0.5983 0.6519 -0.4658
vn 0.5983 0.6519 -0.4658
vn 0.5982 0.6520 -0.4658
vn -0.5594 0.6007 0.5711
vn -0.5595 0.6007 0.5711
vn -0.5595 0.6007 0.5711
vn -0.5595 0.6007 0.5711
vn -0.5595 0.6007 0.5711
vn -0.5594 0.6007 0.5711
vn 0.4067 0.6222 -0.6689
vn 0.4067 0.6222 -0.6689
vn 0.4068 0.6222 -0.6689
vn 0.4068 0.6222 -0.6689
vn 0.4068 0.6222 -0.6689
vn 0.4067 0.6222 -0.6689
vn -0.3222 0.6796 0.6590
vn -0.3221 0.6797 0.6589
vn -0.3221 0.6797 0.6589
vn -0.3221 0.6797 0.6589
vn -0.3223 0.6796 0.6590
vn -0.3222 0.6796 0.6590
vn 0.7439 0.6389 -0.1959
vn 0.7439 0.6389 -0.1959
vn 0.7439 0.6390 -0.1959
vn 0.7439 0.6390 -0.1959
vn 0.7439 0.6389 -0.1959
vn 0.7439 0.6389 -0.1959
vn -0.7202 0.6117 0.3274
vn -0.7202 0.6117 0.3273
vn -0.7202 0.6117 0.3273
vn -0.7202 0.6117 0.3273
vn -0.7202 0.6117 0.3273
vn -0.7202 0.6117 0.3274
vn 0.5716 0.7092 0.4126
vn 0.5716 0.7092 0.4126
vn 0.5717 0.7092 0.4126
vn 0.5717 0.7092 0.4126
vn 0.5717 0.7092 0.4126
vn 0.5716 0.7092 0.4126
vn -0.7170 0.6004 -0.3541
vn -0.7170 0.6004 -0.3542
vn -0.7170 0.6004 -0.3542
vn -0.7170 0.6004 -0.3542
vn -0.7170 0.6004 -0.3541
vn -0.7170 0.6004 -0.3541
vn -0.0019 0.6573 -0.7537
vn -0.0019 0.6573 -0.7537
vn -0.0019 0.6573 -0.7537
vn -0.0019 0.6573 -0.7537
vn -0.0019 0.6573 -0.7537
vn -0.0019 0.6573 -0.7537
vn 0.0017 0.6020 0.7985
vn 0.0017 0.6020 0.7985
vn 0.0017 0.6020 0.7985
vn 0.0017 0.6020 0.7985
vn 0.0017 0.6020 0.7985
vn 0.0017 0.6020 0.7985
vn -0.6779 0.6164 -0.4005
vn -0.6779 0.6165 -0.4006
vn -0.6779 0.6165 -0.4006
vn -0.6779 0.6165 -0.4006
vn -0.6779 0.6164 -0.4005
vn -0.6779 0.6164 -0.4005
vn 0.5863 0.6538 0.4784
vn 0.5863 0.6538 0.4784
vn 0.5862 0.6538 0.4784
vn 0.5862 0.6538 0.4784
vn 0.5862 0.6538 0.4784
vn 0.5863 0.6538 0.4784
vn -0.7724 0.6096 0.1783
vn -0.7724 0.6096 0.1782
vn -0.7724 0.6096 0.1783
vn -0.7724 0.6096 0.1783
vn -0.7724 0.6096 0.1782
vn -0.7724 0.6096 0.1783
vn 0.7667 0.6410 -0.0376
vn 0.7667 0.6410 -0.0376
vn 0.7667 0.6409 -0.0376
vn 0.7667 0.6409 -0.0376
vn 0.7667 0.6410 -0.0376
vn 0.7667 0.6410 -0.0376
vn -0.5273 0.6731 -0.5185
vn -0.5272 0.6714 -0.5209
vn -0.5247 0.6538 -0.5452
vn -0.5247 0.6538 -0.5452
vn -0.5247 0.6538 -0.5452
vn -0.5273 0.6731 -0.5185
vn 0.4836 0.6004 0.6370
vn 0.5060 0.5814 0.6372
vn 0.5080 0.5797 0.6371
vn 0.5080 0.5797 0.6371
vn 0.4836 0.6004 0.6370
vn 0.4836 0.6004 0.6370
vn -0.5352 0.6547 -0.5338
vn -0.5353 0.6547 -0.5338
vn -0.5336 0.6711 -0.5147
vn -0.5336 0.6711 -0.5147
vn -0.5331 0.6732 -0.5125
vn -0.5352 0.6547 -0.5338
vn 0.4956 0.5989 0.6291
vn 0.4956 0.5989 0.6291
vn 0.5143 0.5797 0.6320
vn 0.5143 0.5797 0.6320
vn 0.5126 0.5816 0.6316
vn 0.4956 0.5989 0.6291
vn -0.5331 0.6732 -0.5125
vn -0.5336 0.6711 -0.5147
vn -0.5272 0.6714 -0.5209
vn -0.5272 0.6714 -0.5209
vn -0.5273 0.6731 -0.5185
vn -0.5331 0.6732 -0.5125
vn 0.5126 0.5816 0.6316
vn 0.5143 0.5797 0.6320
vn 0.5080 0.5797 0.6371
vn 0.5080 0.5797 0.6371
vn 0.5060 0.5814 0.6372
vn 0.5126 0.5816 0.6316
vn -0.5329 0.6561 -0.5344
vn -0.5329 0.6561 -0.5344
vn -0.5353 0.6547 -0.5338
vn -0.5353 0.6547 -0.5338
vn -0.5352 0.6547 -0.5338
vn -0.5329 0.6561 -0.5344
vn 0.4948 0.5972 0.6313
vn 0.4949 0.5972 0.6313
vn 0.4956 0.5989 0.6291
vn 0.4956 0.5989 0.6291
vn 0.4956 0.5989 0.6291
vn 0.4948 0.5972 0.6313
vn -0.5821 0.5621 0.5875
vn -0.5832 0.5661 0.5826
vn -0.5853 0.5768 0.5698
vn -0.5853 0.5768 0.5698
vn -0.5853 0.5768 0.5698
vn -0.5821 0.5621 0.5875
vn 0.5931 0.6767 -0.4363
vn 0.5759 0.6918 -0.4356
vn 0.5690 0.6979 -0.4349
vn 0.5690 0.6979 -0.4349
vn 0.5931 0.6767 -0.4363
vn 0.5931 0.6767 -0.4363
vn -0.5749 0.5734 0.5837
vn -0.5749 0.5734 0.5836
vn -0.5758 0.5610 0.5948
vn -0.5758 0.5610 0.5948
vn -0.5758 0.5609 0.5948
vn -0.5749 0.5734 0.5837
vn 0.5795 0.6811 -0.4475
vn 0.5795 0.6812 -0.4475
vn 0.5618 0.6998 -0.4412
vn 0.5618 0.6998 -0.4412
vn 0.5619 0.6997 -0.4413
vn 0.5795 0.6811 -0.4475
vn -0.5758 0.5609 0.5948
vn -0.5758 0.5610 0.5948
vn -0.5832 0.5661 0.5826
vn -0.5832 0.5661 0.5826
vn -0.5821 0.5621 0.5875
vn -0.5758 0.5609 0.5948
vn 0.5619 0.6997 -0.4413
vn 0.5618 0.6998 -0.4412
vn 0.5690 0.6979 -0.4349
vn 0.5690 0.6979 -0.4349
vn 0.5759 0.6918 -0.4356
vn 0.5619 0.6997 -0.4413
vn -0.5772 0.5769 0.5780
vn -0.5772 0.5769 0.5780
vn -0.5749 0.5734 0.5836
vn -0.5749 0.5734 0.5836
vn -0.5749 0.5734 0.5837
vn -0.5772 0.5769 0.5780
vn 0.5861 0.6767 -0.4456
vn 0.5861 0.6767 -0.4456
vn 0.5795 0.6812 -0.4475
vn 0.5795 0.6812 -0.4475
vn 0.5795 0.6811 -0.4475
vn 0.5861 0.6767 -0.4456
vn 0.0070 0.6573 -0.7536
vn 0.0071 0.6573 -0.7536
vn 0.0071 0.6573 -0.7536
vn 0.0071 0.6573 -0.7536
vn 0.0071 0.6573 -0.7536
vn 0.0070 0.6573 -0.7536
vn -0.0062 0.6021 0.7984
vn -0.0063 0.6020 0.7985
vn -0.0063 0.6020 0.7985
vn -0.0063 0.6020 0.7985
vn -0.0062 0.6021 0.7984
vn -0.0062 0.6021 0.7984
vn -0.7828 0.6023 0.1564
vn -0.7828 0.6023 0.1564
vn -0.7828 0.6023 0.1564
vn -0.7828 0.6023 0.1564
vn -0.7828 0.6023 0.1564
vn -0.7828 0.6023 0.1564
vn 0.7596 0.6502 -0.0137
vn 0.7596 0.6502 -0.0137
vn 0.7596 0.6502 -0.0137
vn 0.7596 0.6502 -0.0137
vn 0.7596 0.6502 -0.0137
vn 0.7596 0.6502 -0.0137
vn -0.5441 0.6719 -0.5025
vn -0.5441 0.6719 -0.5025
vn -0.5440 0.6719 -0.5026
vn -0.5440 0.6719 -0.5026
vn -0.5440 0.6719 -0.5026
vn -0.5441 0.6719 -0.5025
vn 0.5248 0.5808 0.6223
vn 0.5247 0.5808 0.6223
vn 0.5247 0.5808 0.6224
vn 0.5247 0.5808 0.6224
vn 0.5248 0.5808 0.6223
vn 0.5248 0.5808 0.6223
vn -0.6364 0.6557 -0.4061
vn -0.6364 0.6557 -0.4062
vn -0.6364 0.6557 -0.4061
vn -0.6364 0.6557 -0.4061
vn -0.6364 0.6557 -0.4062
vn -0.6364 0.6557 -0.4061
vn 0.6079 0.5959 0.5247
vn 0.6079 0.5959 0.5248
vn 0.6079 0.5959 0.5248
vn 0.6079 0.5959 0.5248
vn 0.6079 0.5959 0.5247
vn 0.6079 0.5959 0.5247
vn -0.7449 0.6086 -0.2732
vn -0.7449 0.6086 -0.2732
vn -0.7450 0.6085 -0.2733
vn -0.7450 0.6085 -0.2733
vn -0.7450 0.6085 -0.2733
vn -0.7449 0.6086 -0.2732
vn 0.6525 0.6601 0.3721
vn 0.6526 0.6600 0.3722
vn 0.6526 0.6600 0.3722
vn 0.6526 0.6600 0.3722
vn 0.6526 0.6601 0.3720
vn 0.6525 0.6601 0.3721
vn -0.7449 0.6086 -0.2732
vn -0.7449 0.6086 -0.2732
vn -0.7450 0.6085 -0.2733
vn -0.7450 0.6085 -0.2733
vn -0.7450 0.6085 -0.2733
vn -0.7449 0.6086 -0.2732
vn 0.6525 0.6601 0.3721
vn 0.6526 0.6600 0.3721
vn 0.6526 0.6600 0.3721
vn 0.6526 0.6600 0.3721
vn 0.6526 0.6601 0.3720
vn 0.6525 0.6601 0.3721
vn -0.2945 0.6718 -0.6797
vn -0.2945 0.6718 -0.6797
vn -0.2945 0.6718 -0.6797
vn -0.2945 0.6718 -0.6797
vn -0.2945 0.6718 -0.6797
vn -0.2945 0.6718 -0.6797
vn 0.2732 0.5823 0.7657
vn 0.2733 0.5823 0.7657
vn 0.2733 0.5823 0.7657
vn 0.2733 0.5823 0.7657
vn 0.2732 0.5823 0.7657
vn 0.2732 0.5823 0.7657
vn -0.2279 0.6749 -0.7018
vn -0.2279 0.6749 -0.7019
vn -0.2279 0.6748 -0.7019
vn -0.2279 0.6748 -0.7019
vn -0.2279 0.6748 -0.7019
vn -0.2279 0.6749 -0.7018
vn 0.2117 0.5793 0.7871
vn 0.2117 0.5793 0.7872
vn 0.2117 0.5793 0.7871
vn 0.2117 0.5793 0.7871
vn 0.2117 0.5793 0.7871
vn 0.2117 0.5793 0.7871
vn 0.3915 0.7314 -0.5584
vn 0.3915 0.7314 -0.5584
vn 0.3915 0.7314 -0.5583
vn 0.3915 0.7314 -0.5583
vn 0.3915 0.7314 -0.5583
vn 0.3915 0.7314 -0.5584
vn -0.4118 0.5416 0.7329
vn -0.4118 0.5415 0.7329
vn -0.4118 0.5415 0.7329
vn -0.4118 0.5415 0.7329
vn -0.4117 0.5416 0.7329
vn -0.4118 0.5416 0.7329
vn 0.3915 0.7314 -0.5584
vn 0.3915 0.7314 -0.5584
vn 0.3916 0.7313 -0.5584
vn 0.3916 0.7313 -0.5584
vn 0.3915 0.7314 -0.5583
vn 0.3915 0.7314 -0.5584
vn -0.4118 0.5416 0.7329
vn -0.4118 0.5415 0.7329
vn -0.4117 0.5417 0.7329
vn -0.4117 0.5417 0.7329
vn -0.4117 0.5416 0.7329
vn -0.4118 0.5416 0.7329
vn -0.1358 0.6512 -0.7467
vn -0.1358 0.6512 -0.7467
vn -0.1358 0.6512 -0.7467
vn -0.1358 0.6512 -0.7467
vn -0.1358 0.6512 -0.7467
vn -0.1358 0.6512 -0.7467
vn 0.1184 0.6111 0.7827
vn 0.1184 0.6111 0.7827
vn 0.1184 0.6111 0.7827
vn 0.1184 0.6111 0.7827
vn 0.1183 0.6111 0.7827
vn 0.1184 0.6111 0.7827
vn -0.7614 0.6416 0.0928
vn -0.7614 0.6416 0.0928
vn -0.7614 0.6416 0.0929
vn -0.7614 0.6416 0.0929
vn -0.7614 0.6416 0.0929
vn -0.7614 0.6416 0.0928
vn 0.7907 0.6104 0.0464
vn 0.7907 0.6104 0.0465
vn 0.7907 0.6104 0.0465
vn 0.7907 0.6104 0.0465
vn 0.7907 0.6104 0.0465
vn 0.7907 0.6104 0.0464
vn -0.4313 0.5711 0.6985
vn -0.4314 0.5710 0.6984
vn -0.4314 0.5710 0.6984
vn -0.4314 0.5710 0.6984
vn -0.4313 0.5711 0.6985
vn -0.4313 0.5711 0.6985
vn 0.4454 0.6832 -0.5787
vn 0.4454 0.6832 -0.5787
vn 0.4454 0.6832 -0.5787
vn 0.4454 0.6832 -0.5787
vn 0.4454 0.6832 -0.5787
vn 0.4454 0.6832 -0.5787
# 1056 vertex normals

vt 0.9586 0.3927 0.0000
vt 0.9586 0.3974 0.0000
vt 0.9429 0.3927 0.0000
vt 0.9429 0.3974 0.0000
vt 0.9429 0.3927 0.0000
vt 0.9586 0.3927 0.0000
vt 0.9586 0.3974 0.0000
vt 0.9429 0.3974 0.0000
vt 0.9508 0.3974 0.0000
vt 0.9508 0.3927 0.0000
vt 0.9508 0.3927 0.0000
vt 0.9508 0.3974 0.0000
vt 0.9547 0.3974 0.0000
vt 0.9468 0.3927 0.0000
vt 0.9547 0.3927 0.0000
vt 0.9468 0.3974 0.0000
vt 0.9468 0.3974 0.0000
vt 0.9547 0.3927 0.0000
vt 0.9468 0.3927 0.0000
vt 0.9547 0.3974 0.0000
vt 0.9586 0.3927 0.0000
vt 0.9586 0.3974 0.0000
vt 0.9429 0.3927 0.0000
vt 0.9429 0.3974 0.0000
vt 0.9429 0.3927 0.0000
vt 0.9586 0.3927 0.0000
vt 0.9586 0.3974 0.0000
vt 0.9429 0.3974 0.0000
vt 0.9508 0.3974 0.0000
vt 0.9508 0.3927 0.0000
vt 0.9508 0.3927 0.0000
vt 0.9508 0.3974 0.0000
vt 0.9547 0.3974 0.0000
vt 0.9468 0.3927 0.0000
vt 0.9547 0.3927 0.0000
vt 0.9468 0.3974 0.0000
vt 0.9468 0.3974 0.0000
vt 0.9547 0.3927 0.0000
vt 0.9468 0.3927 0.0000
vt 0.9547 0.3974 0.0000
vt 0.9980 0.2988 0.0000
vt 0.9980 0.4693 0.0000
vt 0.4619 0.2988 0.0000
vt 0.4619 0.4693 0.0000
vt 0.9980 0.2988 0.0000
vt 0.9980 0.4693 0.0000
vt 0.4619 0.4693 0.0000
vt 0.4619 0.2988 0.0000
vt 0.9980 0.2988 0.0000
vt 0.9980 0.4693 0.0000
vt 0.4619 0.2988 0.0000
vt 0.4619 0.4693 0.0000
vt 0.9980 0.2988 0.0000
vt 0.9980 0.4693 0.0000
vt 0.4619 0.4693 0.0000
vt 0.4619 0.2988 0.0000
vt 0.9980 0.2988 0.0000
vt 0.9980 0.4693 0.0000
vt 0.4619 0.2988 0.0000
vt 0.4619 0.4693 0.0000
vt 0.9980 0.2988 0.0000
vt 0.9980 0.4693 0.0000
vt 0.4619 0.4693 0.0000
vt 0.4619 0.2988 0.0000
vt 0.9980 0.2988 0.0000
vt 0.9980 0.4693 0.0000
vt 0.4619 0.2988 0.0000
vt 0.4619 0.4693 0.0000
vt 0.9980 0.2988 0.0000
vt 0.9980 0.4693 0.0000
vt 0.4619 0.4693 0.0000
vt 0.4619 0.2988 0.0000
vt 0.9980 0.2988 0.0000
vt 0.9980 0.4693 0.0000
vt 0.4619 0.2988 0.0000
vt 0.4619 0.4693 0.0000
vt 0.9980 0.2988 0.0000
vt 0.9980 0.4693 0.0000
vt 0.4619 0.4693 0.0000
vt 0.4619 0.2988 0.0000
vt 0.9980 0.2988 0.0000
vt 0.9980 0.4693 0.0000
vt 0.4619 0.2988 0.0000
vt 0.4619 0.4693 0.0000
vt 0.9980 0.2988 0.0000
vt 0.9980 0.4693 0.0000
vt 0.4619 0.4693 0.0000
vt 0.4619 0.2988 0.0000
vt 0.9980 0.2988 0.0000
vt 0.9980 0.4693 0.0000
vt 0.4619 0.2988 0.0000
vt 0.4619 0.4693 0.0000
vt 0.9980 0.2988 0.0000
vt 0.9980 0.4693 0.0000
vt 0.4619 0.4693 0.0000
vt 0.4619 0.2988 0.0000
vt 0.9980 0.2988 0.0000
vt 0.9980 0.4693 0.0000
vt 0.4619 0.2988 0.0000
vt 0.4619 0.4693 0.0000
vt 0.9980 0.2988 0.0000
vt 0.9980 0.4693 0.0000
vt 0.4619 0.4693 0.0000
vt 0.4619 0.2988 0.0000
vt 0.9586 0.3927 0.0000
vt 0.9586 0.3974 0.0000
vt 0.9429 0.3927 0.0000
vt 0.9429 0.3974 0.0000
vt 0.9429 0.3927 0.0000
vt 0.9586 0.3927 0.0000
vt 0.9586 0.3974 0.0000
vt 0.9429 0.3974 0.0000
vt 0.9508 0.3974 0.0000
vt 0.9508 0.3927 0.0000
vt 0.9508 0.3927 0.0000
vt 0.9508 0.3974 0.0000
vt 0.9547 0.3974 0.0000
vt 0.9468 0.3927 0.0000
vt 0.9547 0.3927 0.0000
vt 0.9468 0.3974 0.0000
vt 0.9468 0.3974 0.0000
vt 0.9547 0.3927 0.0000
vt 0.9468 0.3927 0.0000
vt 0.9547 0.3974 0.0000
vt 0.9586 0.3927 0.0000
vt 0.9586 0.3974 0.0000
vt 0.9429 0.3927 0.0000
vt 0.9429 0.3974 0.0000
vt 0.9429 0.3927 0.0000
vt 0.9586 0.3927 0.0000
vt 0.9586 0.3974 0.0000
vt 0.9429 0.3974 0.0000
vt 0.9508 0.3974 0.0000
vt 0.9508 0.3927 0.0000
vt 0.9508 0.3927 0.0000
vt 0.9508 0.3974 0.0000
vt 0.9547 0.3974 0.0000
vt 0.9468 0.3927 0.0000
vt 0.9547 0.3927 0.0000
vt 0.9468 0.3974 0.0000
vt 0.9468 0.3974 0.0000
vt 0.9547 0.3927 0.0000
vt 0.9468 0.3927 0.0000
vt 0.9547 0.3974 0.0000
vt 0.9980 0.2988 0.0000
vt 0.9980 0.4693 0.0000
vt 0.4619 0.2988 0.0000
vt 0.4619 0.4693 0.0000
vt 0.9980 0.2988 0.0000
vt 0.9980 0.4693 0.0000
vt 0.4619 0.4693 0.0000
vt 0.4619 0.2988 0.0000
vt 0.9980 0.2988 0.0000
vt 0.9980 0.4693 0.0000
vt 0.4619 0.2988 0.0000
vt 0.4619 0.4693 0.0000
vt 0.9980 0.2988 0.0000
vt 0.9980 0.4693 0.0000
vt 0.4619 0.4693 0.0000
vt 0.4619 0.2988 0.0000
vt 0.9980 0.2988 0.0000
vt 0.9980 0.4693 0.0000
vt 0.4619 0.2988 0.0000
vt 0.4619 0.4693 0.0000
vt 0.9980 0.2988 0.0000
vt 0.9980 0.4693 0.0000
vt 0.4619 0.4693 0.0000
vt 0.4619 0.2988 0.0000
vt 0.9980 0.2988 0.0000
vt 0.9980 0.4693 0.0000
vt 0.4619 0.2988 0.0000
vt 0.4619 0.4693 0.0000
vt 0.9980 0.2988 0.0000
vt 0.9980 0.4693 0.0000
vt 0.4619 0.4693 0.0000
vt 0.4619 0.2988 0.0000
vt 0.9980 0.2988 0.0000
vt 0.9980 0.4693 0.0000
vt 0.4619 0.2988 0.0000
vt 0.4619 0.4693 0.0000
vt 0.9980 0.2988 0.0000
vt 0.9980 0.4693 0.0000
vt 0.4619 0.4693 0.0000
vt 0.4619 0.2988 0.0000
vt 0.9980 0.2988 0.0000
vt 0.9980 0.4693 0.0000
vt 0.4619 0.2988 0.0000
vt 0.4619 0.4693 0.0000
vt 0.9980 0.2988 0.0000
vt 0.9980 0.4693 0.0000
vt 0.4619 0.4693 0.0000
vt 0.4619 0.2988 0.0000
vt 0.9980 0.2988 0.0000
vt 0.9980 0.4693 0.0000
vt 0.4619 0.2988 0.0000
vt 0.4619 0.4693 0.0000
vt 0.9980 0.2988 0.0000
vt 0.9980 0.4693 0.0000
vt 0.4619 0.4693 0.0000
vt 0.4619 0.2988 0.0000
vt 0.9980 0.2988 0.0000
vt 0.9980 0.4693 0.0000
vt 0.4619 0.2988 0.0000
vt 0.4619 0.4693 0.0000
vt 0.9980 0.2988 0.0000
vt 0.9980 0.4693 0.0000
vt 0.4619 0.4693 0.0000
vt 0.4619 0.2988 0.0000
vt 0.9980 0.2988 0.0000
vt 0.9980 0.4693 0.0000
vt 0.4619 0.2988 0.0000
vt 0.4619 0.4693 0.0000
vt 0.9980 0.2988 0.0000
vt 0.9980 0.4693 0.0000
vt 0.4619 0.4693 0.0000
vt 0.4619 0.2988 0.0000
vt 0.9980 0.2988 0.0000
vt 0.9980 0.4693 0.0000
vt 0.4619 0.2988 0.0000
vt 0.4619 0.4693 0.0000
vt 0.9980 0.2988 0.0000
vt 0.9980 0.4693 0.0000
vt 0.4619 0.4693 0.0000
vt 0.4619 0.2988 0.0000
vt 0.9586 0.3927 0.0000
vt 0.9586 0.3974 0.0000
vt 0.9429 0.3927 0.0000
vt 0.9429 0.3974 0.0000
vt 0.9429 0.3927 0.0000
vt 0.9586 0.3927 0.0000
vt 0.9586 0.3974 0.0000
vt 0.9429 0.3974 0.0000
vt 0.9508 0.3974 0.0000
vt 0.9508 0.3927 0.0000
vt 0.9508 0.3927 0.0000
vt 0.9508 0.3974 0.0000
vt 0.9547 0.3974 0.0000
vt 0.9468 0.3927 0.0000
vt 0.9547 0.3927 0.0000
vt 0.9468 0.3974 0.0000
vt 0.9468 0.3974 0.0000
vt 0.9547 0.3927 0.0000
vt 0.9468 0.3927 0.0000
vt 0.9547 0.3974 0.0000
vt 0.9586 0.3927 0.0000
vt 0.9586 0.3974 0.0000
vt 0.9429 0.3927 0.0000
vt 0.9429 0.3974 0.0000
vt 0.9429 0.3927 0.0000
vt 0.9586 0.3927 0.0000
vt 0.9586 0.3974 0.0000
vt 0.9429 0.3974 0.0000
vt 0.9508 0.3974 0.0000
vt 0.9508 0.3927 0.0000
vt 0.9508 0.3927 0.0000
vt 0.9508 0.3974 0.0000
vt 0.9547 0.3974 0.0000
vt 0.9468 0.3927 0.0000
vt 0.9547 0.3927 0.0000
vt 0.9468 0.3974 0.0000
vt 0.9468 0.3974 0.0000
vt 0.9547 0.3927 0.0000
vt 0.9468 0.3927 0.0000
vt 0.9547 0.3974 0.0000
vt 0.9980 0.2988 0.0000
vt 0.9980 0.4693 0.0000
vt 0.4619 0.2988 0.0000
vt 0.4619 0.4693 0.0000
vt 0.9980 0.2988 0.0000
vt 0.9980 0.4693 0.0000
vt 0.4619 0.4693 0.0000
vt 0.4619 0.2988 0.0000
vt 0.9980 0.2988 0.0000
vt 0.9980 0.4693 0.0000
vt 0.4619 0.2988 0.0000
vt 0.4619 0.4693 0.0000
vt 0.9980 0.2988 0.0000
vt 0.9980 0.4693 0.0000
vt 0.4619 0.4693 0.0000
vt 0.4619 0.2988 0.0000
vt 0.9980 0.2988 0.0000
vt 0.9980 0.4693 0.0000
vt 0.4619 0.2988 0.0000
vt 0.4619 0.4693 0.0000
vt 0.9980 0.2988 0.0000
vt 0.9980 0.4693 0.0000
vt 0.4619 0.4693 0.0000
vt 0.4619 0.2988 0.0000
vt 0.9980 0.2988 0.0000
vt 0.9980 0.4693 0.0000
vt 0.4619 0.2988 0.0000
vt 0.4619 0.4693 0.0000
vt 0.9980 0.2988 0.0000
vt 0.9980 0.4693 0.0000
vt 0.4619 0.4693 0.0000
vt 0.4619 0.2988 0.0000
vt 0.9980 0.2988 0.0000
vt 0.9980 0.4693 0.0000
vt 0.4619 0.2988 0.0000
vt 0.4619 0.4693 0.0000
vt 0.9980 0.2988 0.0000
vt 0.9980 0.4693 0.0000
vt 0.4619 0.4693 0.0000
vt 0.4619 0.2988 0.0000
vt 0.9980 0.2988 0.0000
vt 0.9980 0.4693 0.0000
vt 0.4619 0.2988 0.0000
vt 0.4619 0.4693 0.0000
vt 0.9980 0.2988 0.0000
vt 0.9980 0.4693 0.0000
vt 0.4619 0.4693 0.0000
vt 0.4619 0.2988 0.0000
vt 0.9980 0.2988 0.0000
vt 0.9980 0.4693 0.0000
vt 0.4619 0.2988 0.0000
vt 0.4619 0.4693 0.0000
vt 0.9980 0.2988 0.0000
vt 0.9980 0.4693 0.0000
vt 0.4619 0.4693 0.0000
vt 0.4619 0.2988 0.0000
vt 0.9980 0.2988 0.0000
vt 0.9980 0.4693 0.0000
vt 0.4619 0.2988 0.0000
vt 0.4619 0.4693 0.0000
vt 0.9980 0.2988 0.0000
vt 0.9980 0.4693 0.0000
vt 0.4619 0.4693 0.0000
vt 0.4619 0.2988 0.0000
vt 0.9586 0.3927 0.0000
vt 0.9586 0.3974 0.0000
vt 0.9429 0.3927 0.0000
vt 0.9429 0.3974 0.0000
vt 0.9429 0.3927 0.0000
vt 0.9586 0.3927 0.0000
vt 0.9586 0.3974 0.0000
vt 0.9429 0.3974 0.0000
vt 0.9508 0.3974 0.0000
vt 0.9508 0.3927 0.0000
vt 0.9508 0.3927 0.0000
vt 0.9508 0.3974 0.0000
vt 0.9547 0.3974 0.0000
vt 0.9468 0.3927 0.0000
vt 0.9547 0.3927 0.0000
vt 0.9468 0.3974 0.0000
vt 0.9468 0.3974 0.0000
vt 0.9547 0.3927 0.0000
vt 0.9468 0.3927 0.0000
vt 0.9547 0.3974 0.0000
vt 0.9586 0.3927 0.0000
vt 0.9586 0.3974 0.0000
vt 0.9429 0.3927 0.0000
vt 0.9429 0.3974 0.0000
vt 0.9429 0.3927 0.0000
vt 0.9586 0.3927 0.0000
vt 0.9586 0.3974 0.0000
vt 0.9429 0.3974 0.0000
vt 0.9508 0.3974 0.0000
vt 0.9508 0.3927 0.0000
vt 0.9508 0.3927 0.0000
vt 0.9508 0.3974 0.0000
vt 0.9547 0.3974 0.0000
vt 0.9468 0.3927 0.0000
vt 0.9547 0.3927 0.0000
vt 0.9468 0.3974 0.0000
vt 0.9468 0.3974 0.0000
vt 0.9547 0.3927 0.0000
vt 0.9468 0.3927 0.0000
vt 0.9547 0.3974 0.0000
vt 0.9980 0.2988 0.0000
vt 0.9980 0.4693 0.0000
vt 0.4619 0.2988 0.0000
vt 0.4619 0.4693 0.0000
vt 0.9980 0.2988 0.0000
vt 0.9980 0.4693 0.0000
vt 0.4619 0.4693 0.0000
vt 0.4619 0.2988 0.0000
vt 0.9980 0.2988 0.0000
vt 0.9980 0.4693 0.0000
vt 0.4619 0.2988 0.0000
vt 0.4619 0.4693 0.0000
vt 0.9980 0.2988 0.0000
vt 0.9980 0.4693 0.0000
vt 0.4619 0.4693 0.0000
vt 0.4619 0.2988 0.0000
vt 0.9980 0.2988 0.0000
vt 0.9980 0.4693 0.0000
vt 0.4619 0.2988 0.0000
vt 0.4619 0.4693 0.0000
vt 0.9980 0.2988 0.0000
vt 0.9980 0.4693 0.0000
vt 0.4619 0.4693 0.0000
vt 0.4619 0.2988 0.0000
vt 0.9980 0.2988 0.0000
vt 0.9980 0.4693 0.0000
vt 0.4619 0.2988 0.0000
vt 0.4619 0.4693 0.0000
vt 0.9980 0.2988 0.0000
vt 0.9980 0.4693 0.0000
vt 0.4619 0.4693 0.0000
vt 0.4619 0.2988 0.0000
vt 0.9980 0.2988 0.0000
vt 0.9980 0.4693 0.0000
vt 0.4619 0.2988 0.0000
vt 0.4619 0.4693 0.0000
vt 0.9980 0.2988 0.0000
vt 0.9980 0.4693 0.0000
vt 0.4619 0.4693 0.0000
vt 0.4619 0.2988 0.0000
vt 0.9980 0.2988 0.0000
vt 0.9980 0.4693 0.0000
vt 0.4619 0.2988 0.0000
vt 0.4619 0.4693 0.0000
vt 0.9980 0.2988 0.0000
vt 0.9980 0.4693 0.0000
vt 0.4619 0.4693 0.0000
vt 0.4619 0.2988 0.0000
vt 0.9980 0.2988 0.0000
vt 0.9980 0.4693 0.0000
vt 0.4619 0.2988 0.0000
vt 0.4619 0.4693 0.0000
vt 0.9980 0.2988 0.0000
vt 0.9980 0.4693 0.0000
vt 0.4619 0.4693 0.0000
vt 0.4619 0.2988 0.0000
vt 0.9980 0.2988 0.0000
vt 0.9980 0.4693 0.0000
vt 0.4619 0.2988 0.0000
vt 0.4619 0.4693 0.0000
vt 0.9980 0.2988 0.0000
vt 0.9980 0.4693 0.0000
vt 0.4619 0.4693 0.0000
vt 0.4619 0.2988 0.0000
vt 0.9980 0.2988 0.0000
vt 0.9980 0.4693 0.0000
vt 0.4619 0.2988 0.0000
vt 0.4619 0.4693 0.0000
vt 0.9980 0.2988 0.0000
vt 0.9980 0.4693 0.0000
vt 0.4619 0.4693 0.0000
vt 0.4619 0.2988 0.0000
vt 0.9586 0.3927 0.0000
vt 0.9586 0.3974 0.0000
vt 0.9429 0.3927 0.0000
vt 0.9429 0.3974 0.0000
vt 0.9429 0.3927 0.0000
vt 0.9586 0.3927 0.0000
vt 0.9586 0.3974 0.0000
vt 0.9429 0.3974 0.0000
vt 0.9508 0.3974 0.0000
vt 0.9508 0.3927 0.0000
vt 0.9508 0.3927 0.0000
vt 0.9508 0.3974 0.0000
vt 0.9547 0.3974 0.0000
vt 0.9468 0.3927 0.0000
vt 0.9547 0.3927 0.0000
vt 0.9468 0.3974 0.0000
vt 0.9468 0.3974 0.0000
vt 0.9547 0.3927 0.0000
vt 0.9468 0.3927 0.0000
vt 0.9547 0.3974 0.0000
vt 0.9586 0.3927 0.0000
vt 0.9586 0.3974 0.0000
vt 0.9429 0.3927 0.0000
vt 0.9429 0.3974 0.0000
vt 0.9429 0.3927 0.0000
vt 0.9586 0.3927 0.0000
vt 0.9586 0.3974 0.0000
vt 0.9429 0.3974 0.0000
vt 0.9508 0.3974 0.0000
vt 0.9508 0.3927 0.0000
vt 0.9508 0.3927 0.0000
vt 0.9508 0.3974 0.0000
vt 0.9547 0.3974 0.0000
vt 0.9468 0.3927 0.0000
vt 0.9547 0.3927 0.0000
vt 0.9468 0.3974 0.0000
vt 0.9468 0.3974 0.0000
vt 0.9547 0.3927 0.0000
vt 0.9468 0.3927 0.0000
vt 0.9547 0.3974 0.0000
vt 0.9980 0.2988 0.0000
vt 0.9980 0.4693 0.0000
vt 0.4619 0.2988 0.0000
vt 0.4619 0.4693 0.0000
vt 0.9980 0.2988 0.0000
vt 0.9980 0.4693 0.0000
vt 0.4619 0.4693 0.0000
vt 0.4619 0.2988 0.0000
vt 0.9980 0.2988 0.0000
vt 0.9980 0.4693 0.0000
vt 0.4619 0.2988 0.0000
vt 0.4619 0.4693 0.0000
vt 0.9980 0.2988 0.0000
vt 0.9980 0.4693 0.0000
vt 0.4619 0.4693 0.0000
vt 0.4619 0.2988 0.0000
vt 0.9980 0.2988 0.0000
vt 0.9980 0.4693 0.0000
vt 0.4619 0.2988 0.0000
vt 0.4619 0.4693 0.0000
vt 0.9980 0.2988 0.0000
vt 0.9980 0.4693 0.0000
vt 0.4619 0.4693 0.0000
vt 0.4619 0.2988 0.0000
vt 0.9980 0.2988 0.0000
vt 0.9980 0.4693 0.0000
vt 0.4619 0.2988 0.0000
vt 0.4619 0.4693 0.0000
vt 0.9980 0.2988 0.0000
vt 0.9980 0.4693 0.0000
vt 0.4619 0.4693 0.0000
vt 0.4619 0.2988 0.0000
vt 0.9980 0.2988 0.0000
vt 0.9980 0.4693 0.0000
vt 0.4619 0.2988 0.0000
vt 0.4619 0.4693 0.0000
vt 0.9980 0.2988 0.0000
vt 0.9980 0.4693 0.0000
vt 0.4619 0.4693 0.0000
vt 0.4619 0.2988 0.0000
vt 0.9980 0.2988 0.0000
vt 0.9980 0.4693 0.0000
vt 0.4619 0.2988 0.0000
vt 0.4619 0.4693 0.0000
vt 0.9980 0.2988 0.0000
vt 0.9980 0.4693 0.0000
vt 0.4619 0.4693 0.0000
vt 0.4619 0.2988 0.0000
vt 0.9980 0.2988 0.0000
vt 0.9980 0.4693 0.0000
vt 0.4619 0.2988 0.0000
vt 0.4619 0.4693 0.0000
vt 0.9980 0.2988 0.0000
vt 0.9980 0.4693 0.0000
vt 0.4619 0.4693 0.0000
vt 0.4619 0.2988 0.0000
vt 0.9980 0.2988 0.0000
vt 0.9980 0.4693 0.0000
vt 0.4619 0.2988 0.0000
vt 0.4619 0.4693 0.0000
vt 0.9980 0.2988 0.0000
vt 0.9980 0.4693 0.0000
vt 0.4619 0.4693 0.0000
vt 0.4619 0.2988 0.0000
vt 0.9980 0.2988 0.0000
vt 0.9980 0.4693 0.0000
vt 0.4619 0.2988 0.0000
vt 0.4619 0.4693 0.0000
vt 0.9980 0.2988 0.0000
vt 0.9980 0.4693 0.0000
vt 0.4619 0.4693 0.0000
vt 0.4619 0.2988 0.0000
vt 0.9980 0.2988 0.0000
vt 0.9980 0.4693 0.0000
vt 0.4619 0.2988 0.0000
vt 0.4619 0.4693 0.0000
vt 0.9980 0.2988 0.0000
vt 0.9980 0.4693 0.0000
vt 0.4619 0.4693 0.0000
vt 0.4619 0.2988 0.0000
vt 0.9980 0.2988 0.0000
vt 0.9980 0.4693 0.0000
vt 0.4619 0.2988 0.0000
vt 0.4619 0.4693 0.0000
vt 0.9980 0.2988 0.0000
vt 0.9980 0.4693 0.0000
vt 0.4619 0.4693 0.0000
vt 0.4619 0.2988 0.0000
vt 0.9980 0.2988 0.0000
vt 0.9980 0.4693 0.0000
vt 0.4619 0.2988 0.0000
vt 0.4619 0.4693 0.0000
vt 0.9980 0.2988 0.0000
vt 0.9980 0.4693 0.0000
vt 0.4619 0.4693 0.0000
vt 0.4619 0.2988 0.0000
vt 0.9980 0.2988 0.0000
vt 0.9980 0.4693 0.0000
vt 0.4619 0.2988 0.0000
vt 0.4619 0.4693 0.0000
vt 0.9980 0.2988 0.0000
vt 0.9980 0.4693 0.0000
vt 0.4619 0.4693 0.0000
vt 0.4619 0.2988 0.0000
# 584 texture coords

o GorseDead
g GorseDead
s 1
f 14/14/1 17/17/2 4/4/3 
f 4/4/4 3/3/5 14/14/6 
f 8/8/7 16/16/8 19/19/9 
f 19/19/10 5/5/11 8/8/12 
f 18/18/13 13/13/14 9/9/15 
f 9/9/16 10/10/17 18/18/18 
f 20/20/19 15/15/20 11/11/21 
f 11/11/22 12/12/23 20/20/24 
f 10/10/25 9/9/26 17/17/27 
f 17/17/28 14/14/29 10/10/30 
f 12/12/31 11/11/32 19/19/33 
f 19/19/34 16/16/35 12/12/36 
f 1/1/37 2/2/38 13/13/39 
f 13/13/40 18/18/41 1/1/42 
f 7/7/43 6/6/44 15/15/45 
f 15/15/46 20/20/47 7/7/48 
f 34/34/49 37/37/50 24/24/51 
f 24/24/52 23/23/53 34/34/54 
f 28/28/55 36/36/56 39/39/57 
f 39/39/58 25/25/59 28/28/60 
f 38/38/61 33/33/62 29/29/63 
f 29/29/64 30/30/65 38/38/66 
f 40/40/67 35/35/68 31/31/69 
f 31/31/70 32/32/71 40/40/72 
f 30/30/73 29/29/74 37/37/75 
f 37/37/76 34/34/77 30/30/78 
f 32/32/79 31/31/80 39/39/81 
f 39/39/82 36/36/83 32/32/84 
f 21/21/85 22/22/86 33/33/87 
f 33/33/88 38/38/89 21/21/90 
f 27/27/91 26/26/92 35/35/93 
f 35/35/94 40/40/95 27/27/96 
f 41/41/97 42/42/98 44/44/99 
f 44/44/100 43/43/101 41/41/102 
f 45/45/103 48/48/104 47/47/105 
f 47/47/106 46/46/107 45/45/108 
f 49/49/109 50/50/110 52/52/111 
f 52/52/112 51/51/113 49/49/114 
f 53/53/115 56/56/116 55/55/117 
f 55/55/118 54/54/119 53/53/120 
f 57/57/121 58/58/122 60/60/123 
f 60/60/124 59/59/125 57/57/126 
f 61/61/127 64/64/128 63/63/129 
f 63/63/130 62/62/131 61/61/132 
f 65/65/133 66/66/134 68/68/135 
f 68/68/136 67/67/137 65/65/138 
f 69/69/139 72/72/140 71/71/141 
f 71/71/142 70/70/143 69/69/144 
f 73/73/145 74/74/146 76/76/147 
f 76/76/148 75/75/149 73/73/150 
f 77/77/151 80/80/152 79/79/153 
f 79/79/154 78/78/155 77/77/156 
f 81/81/157 82/82/158 84/84/159 
f 84/84/160 83/83/161 81/81/162 
f 85/85/163 88/88/164 87/87/165 
f 87/87/166 86/86/167 85/85/168 
f 89/89/169 90/90/170 92/92/171 
f 92/92/172 91/91/173 89/89/174 
f 93/93/175 96/96/176 95/95/177 
f 95/95/178 94/94/179 93/93/180 
f 97/97/181 98/98/182 100/100/183 
f 100/100/184 99/99/185 97/97/186 
f 101/101/187 104/104/188 103/103/189 
f 103/103/190 102/102/191 101/101/192 
f 118/118/193 121/121/194 108/108/195 
f 108/108/196 107/107/197 118/118/198 
f 112/112/199 120/120/200 123/123/201 
f 123/123/202 109/109/203 112/112/204 
f 122/122/205 117/117/206 113/113/207 
f 113/113/208 114/114/209 122/122/210 
f 124/124/211 119/119/212 115/115/213 
f 115/115/214 116/116/215 124/124/216 
f 114/114/217 113/113/218 121/121/219 
f 121/121/220 118/118/221 114/114/222 
f 116/116/223 115/115/224 123/123/225 
f 123/123/226 120/120/227 116/116/228 
f 105/105/229 106/106/230 117/117/231 
f 117/117/232 122/122/233 105/105/234 
f 111/111/235 110/110/236 119/119/237 
f 119/119/238 124/124/239 111/111/240 
f 138/138/241 141/141/242 128/128/243 
f 128/128/244 127/127/245 138/138/246 
f 132/132/247 140/140/248 143/143/249 
f 143/143/250 129/129/251 132/132/252 
f 142/142/253 137/137/254 133/133/255 
f 133/133/256 134/134/257 142/142/258 
f 144/144/259 139/139/260 135/135/261 
f 135/135/262 136/136/263 144/144/264 
f 134/134/265 133/133/266 141/141/267 
f 141/141/268 138/138/269 134/134/270 
f 136/136/271 135/135/272 143/143/273 
f 143/143/274 140/140/275 136/136/276 
f 125/125/277 126/126/278 137/137/279 
f 137/137/280 142/142/281 125/125/282 
f 131/131/283 130/130/284 139/139/285 
f 139/139/286 144/144/287 131/131/288 
f 145/145/289 146/146/290 148/148/291 
f 148/148/292 147/147/293 145/145/294 
f 149/149/295 152/152/296 151/151/297 
f 151/151/298 150/150/299 149/149/300 
f 153/153/301 154/154/302 156/156/303 
f 156/156/304 155/155/305 153/153/306 
f 157/157/307 160/160/308 159/159/309 
f 159/159/310 158/158/311 157/157/312 
f 161/161/313 162/162/314 164/164/315 
f 164/164/316 163/163/317 161/161/318 
f 165/165/319 168/168/320 167/167/321 
f 167/167/322 166/166/323 165/165/324 
f 169/169/325 170/170/326 172/172/327 
f 172/172/328 171/171/329 169/169/330 
f 173/173/331 176/176/332 175/175/333 
f 175/175/334 174/174/335 173/173/336 
f 177/177/337 178/178/338 180/180/339 
f 180/180/340 179/179/341 177/177/342 
f 181/181/343 184/184/344 183/183/345 
f 183/183/346 182/182/347 181/181/348 
f 185/185/349 186/186/350 188/188/351 
f 188/188/352 187/187/353 185/185/354 
f 189/189/355 192/192/356 191/191/357 
f 191/191/358 190/190/359 189/189/360 
f 193/193/361 194/194/362 196/196/363 
f 196/196/364 195/195/365 193/193/366 
f 197/197/367 200/200/368 199/199/369 
f 199/199/370 198/198/371 197/197/372 
f 201/201/373 202/202/374 204/204/375 
f 204/204/376 203/203/377 201/201/378 
f 205/205/379 208/208/380 207/207/381 
f 207/207/382 206/206/383 205/205/384 
f 209/209/385 210/210/386 212/212/387 
f 212/212/388 211/211/389 209/209/390 
f 213/213/391 216/216/392 215/215/393 
f 215/215/394 214/214/395 213/213/396 
f 217/217/397 218/218/398 220/220/399 
f 220/220/400 219/219/401 217/217/402 
f 221/221/403 224/224/404 223/223/405 
f 223/223/406 222/222/407 221/221/408 
f 238/238/409 241/241/410 228/228/411 
f 228/228/412 227/227/413 238/238/414 
f 232/232/415 240/240/416 243/243/417 
f 243/243/418 229/229/419 232/232/420 
f 242/242/421 237/237/422 233/233/423 
f 233/233/424 234/234/425 242/242/426 
f 244/244/427 239/239/428 235/235/429 
f 235/235/430 236/236/431 244/244/432 
f 234/234/433 233/233/434 241/241/435 
f 241/241/436 238/238/437 234/234/438 
f 236/236/439 235/235/440 243/243/441 
f 243/243/442 240/240/443 236/236/444 
f 225/225/445 226/226/446 237/237/447 
f 237/237/448 242/242/449 225/225/450 
f 231/231/451 230/230/452 239/239/453 
f 239/239/454 244/244/455 231/231/456 
f 258/258/457 261/261/458 248/248/459 
f 248/248/460 247/247/461 258/258/462 
f 252/252/463 260/260/464 263/263/465 
f 263/263/466 249/249/467 252/252/468 
f 262/262/469 257/257/470 253/253/471 
f 253/253/472 254/254/473 262/262/474 
f 264/264/475 259/259/476 255/255/477 
f 255/255/478 256/256/479 264/264/480 
f 254/254/481 253/253/482 261/261/483 
f 261/261/484 258/258/485 254/254/486 
f 256/256/487 255/255/488 263/263/489 
f 263/263/490 260/260/491 256/256/492 
f 245/245/493 246/246/494 257/257/495 
f 257/257/496 262/262/497 245/245/498 
f 251/251/499 250/250/500 259/259/501 
f 259/259/502 264/264/503 251/251/504 
f 265/265/505 266/266/506 268/268/507 
f 268/268/508 267/267/509 265/265/510 
f 269/269/511 272/272/512 271/271/513 
f 271/271/514 270/270/515 269/269/516 
f 273/273/517 274/274/518 276/276/519 
f 276/276/520 275/275/521 273/273/522 
f 277/277/523 280/280/524 279/279/525 
f 279/279/526 278/278/527 277/277/528 
f 281/281/529 282/282/530 284/284/531 
f 284/284/532 283/283/533 281/281/534 
f 285/285/535 288/288/536 287/287/537 
f 287/287/538 286/286/539 285/285/540 
f 289/289/541 290/290/542 292/292/543 
f 292/292/544 291/291/545 289/289/546 
f 293/293/547 296/296/548 295/295/549 
f 295/295/550 294/294/551 293/293/552 
f 297/297/553 298/298/554 300/300/555 
f 300/300/556 299/299/557 297/297/558 
f 301/301/559 304/304/560 303/303/561 
f 303/303/562 302/302/563 301/301/564 
f 305/305/565 306/306/566 308/308/567 
f 308/308/568 307/307/569 305/305/570 
f 309/309/571 312/312/572 311/311/573 
f 311/311/574 310/310/575 309/309/576 
f 313/313/577 314/314/578 316/316/579 
f 316/316/580 315/315/581 313/313/582 
f 317/317/583 320/320/584 319/319/585 
f 319/319/586 318/318/587 317/317/588 
f 321/321/589 322/322/590 324/324/591 
f 324/324/592 323/323/593 321/321/594 
f 325/325/595 328/328/596 327/327/597 
f 327/327/598 326/326/599 325/325/600 
f 342/342/601 345/345/602 332/332/603 
f 332/332/604 331/331/605 342/342/606 
f 336/336/607 344/344/608 347/347/609 
f 347/347/610 333/333/611 336/336/612 
f 346/346/613 341/341/614 337/337/615 
f 337/337/616 338/338/617 346/346/618 
f 348/348/619 343/343/620 339/339/621 
f 339/339/622 340/340/623 348/348/624 
f 338/338/625 337/337/626 345/345/627 
f 345/345/628 342/342/629 338/338/630 
f 340/340/631 339/339/632 347/347/633 
f 347/347/634 344/344/635 340/340/636 
f 329/329/637 330/330/638 341/341/639 
f 341/341/640 346/346/641 329/329/642 
f 335/335/643 334/334/644 343/343/645 
f 343/343/646 348/348/647 335/335/648 
f 362/362/649 365/365/650 352/352/651 
f 352/352/652 351/351/653 362/362/654 
f 356/356/655 364/364/656 367/367/657 
f 367/367/658 353/353/659 356/356/660 
f 366/366/661 361/361/662 357/357/663 
f 357/357/664 358/358/665 366/366/666 
f 368/368/667 363/363/668 359/359/669 
f 359/359/670 360/360/671 368/368/672 
f 358/358/673 357/357/674 365/365/675 
f 365/365/676 362/362/677 358/358/678 
f 360/360/679 359/359/680 367/367/681 
f 367/367/682 364/364/683 360/360/684 
f 349/349/685 350/350/686 361/361/687 
f 361/361/688 366/366/689 349/349/690 
f 355/355/691 354/354/692 363/363/693 
f 363/363/694 368/368/695 355/355/696 
f 369/369/697 370/370/698 372/372/699 
f 372/372/700 371/371/701 369/369/702 
f 373/373/703 376/376/704 375/375/705 
f 375/375/706 374/374/707 373/373/708 
f 377/377/709 378/378/710 380/380/711 
f 380/380/712 379/379/713 377/377/714 
f 381/381/715 384/384/716 383/383/717 
f 383/383/718 382/382/719 381/381/720 
f 385/385/721 386/386/722 388/388/723 
f 388/388/724 387/387/725 385/385/726 
f 389/389/727 392/392/728 391/391/729 
f 391/391/730 390/390/731 389/389/732 
f 393/393/733 394/394/734 396/396/735 
f 396/396/736 395/395/737 393/393/738 
f 397/397/739 400/400/740 399/399/741 
f 399/399/742 398/398/743 397/397/744 
f 401/401/745 402/402/746 404/404/747 
f 404/404/748 403/403/749 401/401/750 
f 405/405/751 408/408/752 407/407/753 
f 407/407/754 406/406/755 405/405/756 
f 409/409/757 410/410/758 412/412/759 
f 412/412/760 411/411/761 409/409/762 
f 413/413/763 416/416/764 415/415/765 
f 415/415/766 414/414/767 413/413/768 
f 417/417/769 418/418/770 420/420/771 
f 420/420/772 419/419/773 417/417/774 
f 421/421/775 424/424/776 423/423/777 
f 423/423/778 422/422/779 421/421/780 
f 425/425/781 426/426/782 428/428/783 
f 428/428/784 427/427/785 425/425/786 
f 429/429/787 432/432/788 431/431/789 
f 431/431/790 430/430/791 429/429/792 
f 433/433/793 434/434/794 436/436/795 
f 436/436/796 435/435/797 433/433/798 
f 437/437/799 440/440/800 439/439/801 
f 439/439/802 438/438/803 437/437/804 
f 454/454/805 457/457/806 444/444/807 
f 444/444/808 443/443/809 454/454/810 
f 448/448/811 456/456/812 459/459/813 
f 459/459/814 445/445/815 448/448/816 
f 458/458/817 453/453/818 449/449/819 
f 449/449/820 450/450/821 458/458/822 
f 460/460/823 455/455/824 451/451/825 
f 451/451/826 452/452/827 460/460/828 
f 450/450/829 449/449/830 457/457/831 
f 457/457/832 454/454/833 450/450/834 
f 452/452/835 451/451/836 459/459/837 
f 459/459/838 456/456/839 452/452/840 
f 441/441/841 442/442/842 453/453/843 
f 453/453/844 458/458/845 441/441/846 
f 447/447/847 446/446/848 455/455/849 
f 455/455/850 460/460/851 447/447/852 
f 474/474/853 477/477/854 464/464/855 
f 464/464/856 463/463/857 474/474/858 
f 468/468/859 476/476/860 479/479/861 
f 479/479/862 465/465/863 468/468/864 
f 478/478/865 473/473/866 469/469/867 
f 469/469/868 470/470/869 478/478/870 
f 480/480/871 475/475/872 471/471/873 
f 471/471/874 472/472/875 480/480/876 
f 470/470/877 469/469/878 477/477/879 
f 477/477/880 474/474/881 470/470/882 
f 472/472/883 471/471/884 479/479/885 
f 479/479/886 476/476/887 472/472/888 
f 461/461/889 462/462/890 473/473/891 
f 473/473/892 478/478/893 461/461/894 
f 467/467/895 466/466/896 475/475/897 
f 475/475/898 480/480/899 467/467/900 
f 481/481/901 482/482/902 484/484/903 
f 484/484/904 483/483/905 481/481/906 
f 485/485/907 488/488/908 487/487/909 
f 487/487/910 486/486/911 485/485/912 
f 489/489/913 490/490/914 492/492/915 
f 492/492/916 491/491/917 489/489/918 
f 493/493/919 496/496/920 495/495/921 
f 495/495/922 494/494/923 493/493/924 
f 497/497/925 498/498/926 500/500/927 
f 500/500/928 499/499/929 497/497/930 
f 501/501/931 504/504/932 503/503/933 
f 503/503/934 502/502/935 501/501/936 
f 505/505/937 506/506/938 508/508/939 
f 508/508/940 507/507/941 505/505/942 
f 509/509/943 512/512/944 511/511/945 
f 511/511/946 510/510/947 509/509/948 
f 513/513/949 514/514/950 516/516/951 
f 516/516/952 515/515/953 513/513/954 
f 517/517/955 520/520/956 519/519/957 
f 519/519/958 518/518/959 517/517/960 
f 521/521/961 522/522/962 524/524/963 
f 524/524/964 523/523/965 521/521/966 
f 525/525/967 528/528/968 527/527/969 
f 527/527/970 526/526/971 525/525/972 
f 529/529/973 530/530/974 532/532/975 
f 532/532/976 531/531/977 529/529/978 
f 533/533/979 536/536/980 535/535/981 
f 535/535/982 534/534/983 533/533/984 
f 537/537/985 538/538/986 540/540/987 
f 540/540/988 539/539/989 537/537/990 
f 541/541/991 544/544/992 543/543/993 
f 543/543/994 542/542/995 541/541/996 
f 545/545/997 546/546/998 548/548/999 
f 548/548/1000 547/547/1001 545/545/1002 
f 549/549/1003 552/552/1004 551/551/1005 
f 551/551/1006 550/550/1007 549/549/1008 
f 553/553/1009 554/554/1010 556/556/1011 
f 556/556/1012 555/555/1013 553/553/1014 
f 557/557/1015 560/560/1016 559/559/1017 
f 559/559/1018 558/558/1019 557/557/1020 
f 561/561/1021 562/562/1022 564/564/1023 
f 564/564/1024 563/563/1025 561/561/1026 
f 565/565/1027 568/568/1028 567/567/1029 
f 567/567/1030 566/566/1031 565/565/1032 
f 569/569/1033 570/570/1034 572/572/1035 
f 572/572/1036 571/571/1037 569/569/1038 
f 573/573/1039 576/576/1040 575/575/1041 
f 575/575/1042 574/574/1043 573/573/1044 
f 577/577/1045 578/578/1046 580/580/1047 
f 580/580/1048 579/579/1049 577/577/1050 
f 581/581/1051 584/584/1052 583/583/1053 
f 583/583/1054 582/582/1055 581/581/1056 
# 352 faces

