# 3ds Max Wavefront OBJ Exporter v0.99 - (c)2007 guruware
# File Created: 19.11.2024 10:18:47

#
# object GrassStage03
#

v  0.0301 -2.9462 0.3403
v  0.0301 -2.9462 -5.9863
v  -0.9948 13.2451 -5.8796
v  0.1038 13.2451 0.3510
v  -0.0301 -2.9462 0.3403
v  -0.0301 -2.9462 -5.9863
v  -1.0541 13.2451 -5.8691
v  0.0445 13.2451 0.3614
v  0.0301 -2.8019 5.8492
v  0.0301 -2.8019 -0.4775
v  -0.0382 13.3895 -0.4544
v  1.0604 13.3895 5.7761
v  -0.0301 -2.8019 5.8492
v  -0.0301 -2.8019 -0.4775
v  -0.0975 13.3895 -0.4440
v  1.0011 13.3895 5.7866
v  1.5666 1.2742 -5.8112
v  -0.1290 1.2742 0.2843
v  0.1408 1.4185 -0.4901
v  -1.5548 1.4185 5.6054
v  -0.0708 1.2742 0.2999
v  1.5085 1.2742 -5.8268
v  -1.4966 1.4185 5.6210
v  0.0827 1.4185 -0.5056
v  -0.3403 -2.9462 0.0301
v  5.9863 -2.9462 0.0301
v  5.8796 13.2451 -0.9948
v  -0.3510 13.2451 0.1038
v  -0.3403 -2.9462 -0.0301
v  5.9863 -2.9462 -0.0301
v  5.8691 13.2451 -1.0541
v  -0.3614 13.2451 0.0445
v  -5.8492 -2.8019 0.0301
v  0.4774 -2.8019 0.0301
v  0.4544 13.3895 -0.0382
v  -5.7761 13.3895 1.0604
v  -5.8492 -2.8019 -0.0301
v  0.4774 -2.8019 -0.0301
v  0.4440 13.3895 -0.0975
v  -5.7866 13.3895 1.0011
v  5.8112 1.2742 1.5666
v  -0.2843 1.2742 -0.1290
v  0.4901 1.4185 0.1408
v  -5.6054 1.4185 -1.5548
v  -0.2999 1.2742 -0.0708
v  5.8268 1.2742 1.5085
v  -5.6210 1.4185 -1.4966
v  0.5056 1.4185 0.0827
v  0.2620 -2.9462 0.2194
v  -4.2117 -2.9462 -4.2543
v  -4.8609 13.2451 -3.4541
v  0.3216 13.2451 0.1748
v  0.2194 -2.9462 0.2620
v  -4.2543 -2.9462 -4.2117
v  -4.8955 13.2451 -3.4047
v  0.2870 13.2451 0.2241
v  4.1573 -2.8019 4.1147
v  -0.3163 -2.8019 -0.3589
v  -0.3483 13.3895 -0.2943
v  4.8342 13.3895 3.3345
v  4.1147 -2.8019 4.1573
v  -0.3589 -2.8019 -0.3163
v  -0.3829 13.3895 -0.2449
v  4.7996 13.3895 3.3839
v  -3.0014 1.2742 -5.2169
v  0.1098 1.2742 0.2922
v  -0.2469 1.4185 -0.4461
v  2.8642 1.4185 5.0631
v  0.1620 1.2742 0.2621
v  -3.0535 1.2742 -5.1868
v  2.9164 1.4185 5.0329
v  -0.2991 1.4185 -0.4160
v  -0.2194 -2.9462 0.2620
v  4.2543 -2.9462 -4.2117
v  3.4541 13.2451 -4.8609
v  -0.1748 13.2451 0.3216
v  -0.2620 -2.9462 0.2194
v  4.2117 -2.9462 -4.2543
v  3.4047 13.2451 -4.8955
v  -0.2241 13.2451 0.2870
v  -4.1147 -2.8019 4.1573
v  0.3589 -2.8019 -0.3163
v  0.2943 13.3895 -0.3483
v  -3.3345 13.3895 4.8342
v  -4.1573 -2.8019 4.1147
v  0.3163 -2.8019 -0.3589
v  0.2450 13.3895 -0.3829
v  -3.3839 13.3895 4.7996
v  5.2169 1.2742 -3.0014
v  -0.2922 1.2742 0.1098
v  0.4461 1.4185 -0.2469
v  -5.0631 1.4185 2.8642
v  -0.2621 1.2742 0.1620
v  5.1868 1.2742 -3.0535
v  -5.0329 1.4185 2.9164
v  0.4160 1.4185 -0.2991
v  -0.0775 -3.1975 8.9831
v  -0.1256 -2.8007 2.6805
v  -0.1375 -3.2013 8.9831
v  -0.1856 -2.8045 2.6805
v  0.2897 -2.7376 -3.4580
v  0.0518 -3.1195 -9.7581
v  0.2296 -2.7338 -3.4562
v  -0.0083 -3.1157 -9.7562
v  -1.4147 8.4750 2.8609
v  -3.0575 8.0744 8.9456
v  3.1296 8.1578 -9.7915
v  1.6704 8.5435 -3.6583
v  -2.9995 8.0782 8.9612
v  -1.4727 8.4712 2.8454
v  1.7288 8.5397 -3.6446
v  3.0711 8.1616 -9.8053
v  -8.9831 -3.1975 -0.0775
v  -2.6805 -2.8007 -0.1256
v  -8.9831 -3.2013 -0.1376
v  -2.6805 -2.8045 -0.1856
v  3.4580 -2.7376 0.2897
v  9.7581 -3.1195 0.0518
v  3.4562 -2.7338 0.2296
v  9.7562 -3.1157 -0.0083
v  -2.8609 8.4750 -1.4147
v  -8.9456 8.0744 -3.0575
v  9.7915 8.1578 3.1296
v  3.6583 8.5435 1.6704
v  -8.9612 8.0782 -2.9995
v  -2.8454 8.4712 -1.4727
v  3.6446 8.5397 1.7288
v  9.8053 8.1616 3.0711
v  6.2972 -3.1975 6.4068
v  1.8066 -2.8007 1.9842
v  6.2547 -3.2013 6.4493
v  1.7642 -2.8045 2.0266
v  -2.2404 -2.7376 -2.6500
v  -6.8634 -3.1195 -6.9366
v  -2.2815 -2.7338 -2.6063
v  -6.9046 -3.1157 -6.8929
v  1.0226 8.4750 3.0233
v  4.1635 8.0744 8.4875
v  -4.7107 8.1578 -9.1366
v  -1.4057 8.5435 -3.7680
v  4.2155 8.0782 8.4575
v  0.9706 8.4712 3.0534
v  -1.3546 8.5397 -3.7996
v  -4.7618 8.1616 -9.1050
v  -6.4068 -3.1975 6.2972
v  -1.9842 -2.8007 1.8066
v  -6.4493 -3.2013 6.2547
v  -2.0266 -2.8045 1.7642
v  2.6500 -2.7376 -2.2404
v  6.9366 -3.1195 -6.8634
v  2.6063 -2.7338 -2.2815
v  6.8929 -3.1157 -6.9046
v  -3.0233 8.4750 1.0226
v  -8.4875 8.0744 4.1635
v  9.1366 8.1578 -4.7107
v  3.7680 8.5435 -1.4057
v  -8.4575 8.0782 4.2155
v  -3.0534 8.4712 0.9706
v  3.7996 8.5397 -1.3546
v  9.1050 8.1616 -4.7618
# 160 vertices

vn 0.9603 0.2268 0.1625
vn 0.8053 0.5857 0.0923
vn 0.7497 0.6306 0.2009
vn -0.8897 0.4311 -0.1505
vn -0.7397 0.6676 -0.0848
vn -0.7948 0.6069 -0.0000
vn 0.7961 0.6052 -0.0000
vn 0.8898 0.4308 0.1507
vn 0.7398 0.6674 0.0849
vn -1.0000 -0.0045 -0.0000
vn -0.8051 0.5859 -0.0923
vn -0.9602 0.2271 -0.1627
vn 0.8053 0.5857 0.0923
vn 0.5833 0.8119 -0.0247
vn 0.7497 0.6306 0.2009
vn -0.7541 0.6250 -0.2021
vn -0.6710 0.7409 0.0283
vn -0.7397 0.6676 -0.0848
vn 0.7541 0.6249 0.2021
vn 0.6708 0.7411 -0.0285
vn 0.7398 0.6674 0.0849
vn -0.8051 0.5859 -0.0923
vn -0.5836 0.8117 0.0248
vn -0.7496 0.6307 -0.2008
vn 0.8898 0.4308 0.1507
vn 0.7541 0.6249 0.2021
vn 0.7398 0.6674 0.0849
vn -0.8051 0.5859 -0.0923
vn -0.7496 0.6307 -0.2008
vn -0.9602 0.2271 -0.1627
vn 0.6708 0.7411 -0.0285
vn 0.6784 0.7249 -0.1197
vn 0.7398 0.6674 0.0849
vn -0.8051 0.5859 -0.0923
vn -0.5543 0.8265 0.0978
vn -0.5836 0.8117 0.0248
vn 0.8053 0.5857 0.0923
vn 0.5536 0.8270 -0.0977
vn 0.5833 0.8119 -0.0247
vn -0.6710 0.7409 0.0283
vn -0.6789 0.7244 0.1197
vn -0.7397 0.6676 -0.0848
vn 0.9603 0.2268 0.1625
vn 1.0000 -0.0071 -0.0000
vn 0.8053 0.5857 0.0923
vn -0.8897 0.4311 -0.1505
vn -0.7541 0.6250 -0.2021
vn -0.7397 0.6676 -0.0848
vn -0.1625 0.2268 0.9603
vn -0.0923 0.5857 0.8053
vn -0.2009 0.6306 0.7497
vn 0.1505 0.4311 -0.8897
vn 0.0848 0.6676 -0.7397
vn 0.0000 0.6069 -0.7948
vn 0.0000 0.6052 0.7961
vn -0.1507 0.4308 0.8898
vn -0.0848 0.6674 0.7399
vn 0.0000 -0.0045 -1.0000
vn 0.0923 0.5859 -0.8051
vn 0.1626 0.2271 -0.9602
vn -0.0923 0.5857 0.8053
vn 0.0247 0.8119 0.5833
vn -0.2009 0.6306 0.7497
vn 0.2021 0.6250 -0.7541
vn -0.0283 0.7409 -0.6710
vn 0.0848 0.6676 -0.7397
vn -0.2021 0.6249 0.7541
vn 0.0285 0.7411 0.6708
vn -0.0848 0.6674 0.7399
vn 0.0923 0.5859 -0.8051
vn -0.0248 0.8117 -0.5836
vn 0.2008 0.6307 -0.7496
vn -0.1507 0.4308 0.8898
vn -0.2021 0.6249 0.7541
vn -0.0848 0.6674 0.7399
vn 0.0923 0.5859 -0.8051
vn 0.2008 0.6307 -0.7496
vn 0.1626 0.2271 -0.9602
vn 0.0285 0.7411 0.6708
vn 0.1197 0.7249 0.6784
vn -0.0848 0.6674 0.7399
vn 0.0923 0.5859 -0.8051
vn -0.0978 0.8265 -0.5543
vn -0.0248 0.8117 -0.5836
vn -0.0923 0.5857 0.8053
vn 0.0977 0.8270 0.5537
vn 0.0247 0.8119 0.5833
vn -0.0283 0.7409 -0.6710
vn -0.1197 0.7244 -0.6789
vn 0.0848 0.6676 -0.7397
vn -0.1625 0.2268 0.9603
vn 0.0000 -0.0071 1.0000
vn -0.0923 0.5857 0.8053
vn 0.1505 0.4311 -0.8897
vn 0.2021 0.6250 -0.7541
vn 0.0848 0.6676 -0.7397
vn 0.7939 0.2268 -0.5642
vn 0.6347 0.5856 -0.5041
vn 0.6721 0.6306 -0.3881
vn -0.7355 0.4311 0.5227
vn -0.5830 0.6676 0.4630
vn -0.5620 0.6069 0.5620
vn 0.5629 0.6052 -0.5629
vn 0.7357 0.4308 -0.5226
vn 0.5831 0.6674 -0.4633
vn -0.7070 -0.0045 0.7072
vn -0.6345 0.5859 0.5041
vn -0.7940 0.2271 0.5639
vn 0.6347 0.5856 -0.5041
vn 0.3950 0.8119 -0.4299
vn 0.6721 0.6306 -0.3881
vn -0.6761 0.6250 0.3903
vn -0.4545 0.7409 0.4945
vn -0.5830 0.6676 0.4630
vn 0.6761 0.6249 -0.3903
vn 0.4542 0.7411 -0.4945
vn 0.5831 0.6674 -0.4633
vn -0.6345 0.5859 0.5041
vn -0.3951 0.8117 0.4302
vn -0.6721 0.6307 0.3880
vn 0.7357 0.4308 -0.5226
vn 0.6761 0.6249 -0.3903
vn 0.5831 0.6674 -0.4633
vn -0.6345 0.5859 0.5041
vn -0.6721 0.6307 0.3880
vn -0.7940 0.2271 0.5639
vn 0.4542 0.7411 -0.4945
vn 0.3952 0.7249 -0.5643
vn 0.5831 0.6674 -0.4633
vn -0.6345 0.5859 0.5041
vn -0.3228 0.8265 0.4611
vn -0.3951 0.8117 0.4302
vn 0.6347 0.5856 -0.5041
vn 0.3226 0.8269 -0.4606
vn 0.3950 0.8119 -0.4299
vn -0.4545 0.7409 0.4945
vn -0.3955 0.7244 0.5647
vn -0.5830 0.6676 0.4630
vn 0.7939 0.2268 -0.5642
vn 0.7071 -0.0071 -0.7071
vn 0.6347 0.5856 -0.5041
vn -0.7355 0.4311 0.5227
vn -0.6761 0.6250 0.3903
vn -0.5830 0.6676 0.4630
vn 0.5642 0.2268 0.7939
vn 0.5041 0.5856 0.6347
vn 0.3881 0.6306 0.6721
vn -0.5227 0.4311 -0.7355
vn -0.4629 0.6677 -0.5830
vn -0.5620 0.6069 -0.5620
vn 0.5629 0.6052 0.5629
vn 0.5226 0.4308 0.7357
vn 0.4633 0.6674 0.5831
vn -0.7071 -0.0045 -0.7071
vn -0.5041 0.5858 -0.6346
vn -0.5639 0.2271 -0.7940
vn 0.5041 0.5856 0.6347
vn 0.4299 0.8119 0.3950
vn 0.3881 0.6306 0.6721
vn -0.3903 0.6250 -0.6761
vn -0.4945 0.7409 -0.4545
vn -0.4629 0.6677 -0.5830
vn 0.3903 0.6249 0.6761
vn 0.4945 0.7411 0.4542
vn 0.4633 0.6674 0.5831
vn -0.5041 0.5858 -0.6346
vn -0.4302 0.8117 -0.3951
vn -0.3880 0.6307 -0.6721
vn 0.5226 0.4308 0.7357
vn 0.3903 0.6249 0.6761
vn 0.4633 0.6674 0.5831
vn -0.5041 0.5858 -0.6346
vn -0.3880 0.6307 -0.6721
vn -0.5639 0.2271 -0.7940
vn 0.4945 0.7411 0.4542
vn 0.5643 0.7249 0.3951
vn 0.4633 0.6674 0.5831
vn -0.5041 0.5858 -0.6346
vn -0.4611 0.8265 -0.3229
vn -0.4302 0.8117 -0.3951
vn 0.5041 0.5856 0.6347
vn 0.4606 0.8270 0.3224
vn 0.4299 0.8119 0.3950
vn -0.4945 0.7409 -0.4545
vn -0.5647 0.7244 -0.3954
vn -0.4629 0.6677 -0.5830
vn 0.5642 0.2268 0.7939
vn 0.7071 -0.0071 0.7071
vn 0.5041 0.5856 0.6347
vn -0.5227 0.4311 -0.7355
vn -0.3903 0.6250 -0.6761
vn -0.4629 0.6677 -0.5830
vn 0.6474 0.7618 0.0252
vn 0.7458 0.6515 0.1393
vn 0.6977 0.7109 0.0892
vn -0.9574 -0.2865 -0.0369
vn -0.8389 0.5337 -0.1071
vn -0.9799 -0.0795 -0.1831
vn 0.9816 -0.1140 0.1533
vn 0.8424 0.5326 0.0824
vn 0.8049 0.5620 0.1904
vn -0.7319 0.6717 -0.1143
vn -0.6991 0.7117 -0.0685
vn -0.6327 0.7744 -0.0060
vn 0.7458 0.6515 0.1393
vn 0.7042 0.6844 0.1889
vn 0.6977 0.7109 0.0892
vn -0.8389 0.5337 -0.1071
vn -0.7961 0.5663 -0.2136
vn -0.9799 -0.0795 -0.1831
vn 0.9816 -0.1140 0.1533
vn 0.9495 -0.3135 0.0089
vn 0.8424 0.5326 0.0824
vn -0.7319 0.6717 -0.1143
vn -0.7062 0.6880 -0.1670
vn -0.6991 0.7117 -0.0685
vn -0.0252 0.7617 0.6474
vn -0.1393 0.6515 0.7458
vn -0.0895 0.7108 0.6977
vn 0.0369 -0.2865 -0.9574
vn 0.1071 0.5337 -0.8389
vn 0.1831 -0.0795 -0.9799
vn -0.1532 -0.1140 0.9816
vn -0.0822 0.5326 0.8424
vn -0.1904 0.5620 0.8049
vn 0.1143 0.6717 -0.7319
vn 0.0685 0.7117 -0.6991
vn 0.0060 0.7744 -0.6327
vn -0.1393 0.6515 0.7458
vn -0.1889 0.6844 0.7042
vn -0.0895 0.7108 0.6977
vn 0.1071 0.5337 -0.8389
vn 0.2136 0.5663 -0.7961
vn 0.1831 -0.0795 -0.9799
vn -0.1532 -0.1140 0.9816
vn -0.0085 -0.3135 0.9495
vn -0.0822 0.5326 0.8424
vn 0.1143 0.6717 -0.7319
vn 0.1671 0.6880 -0.7062
vn 0.0685 0.7117 -0.6991
vn 0.4755 0.7618 -0.4400
vn 0.6258 0.6515 -0.4289
vn 0.5564 0.7108 -0.4303
vn -0.7033 -0.2865 0.6506
vn -0.6690 0.5337 0.5174
vn -0.8224 -0.0795 0.5634
vn 0.8024 -0.1140 -0.5857
vn 0.6539 0.5325 -0.5374
vn 0.7038 0.5620 -0.4346
vn -0.5984 0.6717 0.4368
vn -0.5427 0.7116 0.4461
vn -0.4517 0.7743 0.4432
vn 0.6258 0.6515 -0.4289
vn 0.6315 0.6844 -0.3644
vn 0.5564 0.7108 -0.4303
vn -0.6690 0.5337 0.5174
vn -0.7139 0.5663 0.4119
vn -0.8224 -0.0795 0.5634
vn 0.8024 -0.1140 -0.5857
vn 0.6777 -0.3135 -0.6651
vn 0.6539 0.5325 -0.5374
vn -0.5984 0.6717 0.4368
vn -0.6174 0.6881 0.3813
vn -0.5427 0.7116 0.4461
vn 0.4401 0.7618 0.4755
vn 0.4289 0.6515 0.6258
vn 0.4303 0.7109 0.5563
vn -0.6507 -0.2864 -0.7033
vn -0.5174 0.5337 -0.6690
vn -0.5634 -0.0795 -0.8224
vn 0.5857 -0.1140 0.8025
vn 0.5374 0.5325 0.6539
vn 0.4346 0.5620 0.7038
vn -0.4368 0.6717 -0.5983
vn -0.4461 0.7116 -0.5427
vn -0.4432 0.7743 -0.4516
vn 0.4289 0.6515 0.6258
vn 0.3644 0.6844 0.6315
vn 0.4303 0.7109 0.5563
vn -0.5174 0.5337 -0.6690
vn -0.4119 0.5663 -0.7139
vn -0.5634 -0.0795 -0.8224
vn 0.5857 -0.1140 0.8025
vn 0.6651 -0.3135 0.6777
vn 0.5374 0.5325 0.6539
vn -0.4368 0.6717 -0.5983
vn -0.3813 0.6881 -0.6174
vn -0.4461 0.7116 -0.5427
# 288 vertex normals

vt 0.2582 0.0033 0.0000
vt 0.3774 0.0033 0.0000
vt 0.3774 0.4659 0.0000
vt 0.2582 0.4659 0.0000
vt 0.2582 0.0033 0.0000
vt 0.3774 0.0033 0.0000
vt 0.3774 0.4659 0.0000
vt 0.2582 0.4659 0.0000
vt 0.2582 0.0033 0.0000
vt 0.3774 0.0033 0.0000
vt 0.3774 0.4659 0.0000
vt 0.2582 0.4659 0.0000
vt 0.2582 0.0033 0.0000
vt 0.3774 0.0033 0.0000
vt 0.3774 0.4659 0.0000
vt 0.2582 0.4659 0.0000
vt 0.3774 0.1189 0.0000
vt 0.2582 0.1189 0.0000
vt 0.3774 0.1189 0.0000
vt 0.2582 0.1189 0.0000
vt 0.2582 0.1189 0.0000
vt 0.3774 0.1189 0.0000
vt 0.2582 0.1189 0.0000
vt 0.3774 0.1189 0.0000
vt 0.2582 0.0033 0.0000
vt 0.3774 0.0033 0.0000
vt 0.3774 0.4659 0.0000
vt 0.2582 0.4659 0.0000
vt 0.2582 0.0033 0.0000
vt 0.3774 0.0033 0.0000
vt 0.3774 0.4659 0.0000
vt 0.2582 0.4659 0.0000
vt 0.2582 0.0033 0.0000
vt 0.3774 0.0033 0.0000
vt 0.3774 0.4659 0.0000
vt 0.2582 0.4659 0.0000
vt 0.2582 0.0033 0.0000
vt 0.3774 0.0033 0.0000
vt 0.3774 0.4659 0.0000
vt 0.2582 0.4659 0.0000
vt 0.3774 0.1189 0.0000
vt 0.2582 0.1189 0.0000
vt 0.3774 0.1189 0.0000
vt 0.2582 0.1189 0.0000
vt 0.2582 0.1189 0.0000
vt 0.3774 0.1189 0.0000
vt 0.2582 0.1189 0.0000
vt 0.3774 0.1189 0.0000
vt 0.2582 0.0033 0.0000
vt 0.3774 0.0033 0.0000
vt 0.3774 0.4659 0.0000
vt 0.2582 0.4659 0.0000
vt 0.2582 0.0033 0.0000
vt 0.3774 0.0033 0.0000
vt 0.3774 0.4659 0.0000
vt 0.2582 0.4659 0.0000
vt 0.2582 0.0033 0.0000
vt 0.3774 0.0033 0.0000
vt 0.3774 0.4659 0.0000
vt 0.2582 0.4659 0.0000
vt 0.2582 0.0033 0.0000
vt 0.3774 0.0033 0.0000
vt 0.3774 0.4659 0.0000
vt 0.2582 0.4659 0.0000
vt 0.3774 0.1189 0.0000
vt 0.2582 0.1189 0.0000
vt 0.3774 0.1189 0.0000
vt 0.2582 0.1189 0.0000
vt 0.2582 0.1189 0.0000
vt 0.3774 0.1189 0.0000
vt 0.2582 0.1189 0.0000
vt 0.3774 0.1189 0.0000
vt 0.2582 0.0033 0.0000
vt 0.3774 0.0033 0.0000
vt 0.3774 0.4659 0.0000
vt 0.2582 0.4659 0.0000
vt 0.2582 0.0033 0.0000
vt 0.3774 0.0033 0.0000
vt 0.3774 0.4659 0.0000
vt 0.2582 0.4659 0.0000
vt 0.2582 0.0033 0.0000
vt 0.3774 0.0033 0.0000
vt 0.3774 0.4659 0.0000
vt 0.2582 0.4659 0.0000
vt 0.2582 0.0033 0.0000
vt 0.3774 0.0033 0.0000
vt 0.3774 0.4659 0.0000
vt 0.2582 0.4659 0.0000
vt 0.3774 0.1189 0.0000
vt 0.2582 0.1189 0.0000
vt 0.3774 0.1189 0.0000
vt 0.2582 0.1189 0.0000
vt 0.2582 0.1189 0.0000
vt 0.3774 0.1189 0.0000
vt 0.2582 0.1189 0.0000
vt 0.3774 0.1189 0.0000
vt 0.0908 0.1116 0.0000
vt 0.2582 0.1116 0.0000
vt 0.0908 0.1116 0.0000
vt 0.2582 0.1116 0.0000
vt 0.0908 0.1116 0.0000
vt 0.2582 0.1116 0.0000
vt 0.0908 0.1116 0.0000
vt 0.2582 0.1116 0.0000
vt 0.2582 0.4652 0.0000
vt 0.0908 0.4652 0.0000
vt 0.2582 0.4652 0.0000
vt 0.0908 0.4652 0.0000
vt 0.0908 0.4652 0.0000
vt 0.2582 0.4652 0.0000
vt 0.0908 0.4652 0.0000
vt 0.2582 0.4652 0.0000
vt 0.0908 0.1116 0.0000
vt 0.2582 0.1116 0.0000
vt 0.0908 0.1116 0.0000
vt 0.2582 0.1116 0.0000
vt 0.0908 0.1116 0.0000
vt 0.2582 0.1116 0.0000
vt 0.0908 0.1116 0.0000
vt 0.2582 0.1116 0.0000
vt 0.2582 0.4652 0.0000
vt 0.0908 0.4652 0.0000
vt 0.2582 0.4652 0.0000
vt 0.0908 0.4652 0.0000
vt 0.0908 0.4652 0.0000
vt 0.2582 0.4652 0.0000
vt 0.0908 0.4652 0.0000
vt 0.2582 0.4652 0.0000
vt 0.0908 0.1116 0.0000
vt 0.2582 0.1116 0.0000
vt 0.0908 0.1116 0.0000
vt 0.2582 0.1116 0.0000
vt 0.0908 0.1116 0.0000
vt 0.2582 0.1116 0.0000
vt 0.0908 0.1116 0.0000
vt 0.2582 0.1116 0.0000
vt 0.2582 0.4652 0.0000
vt 0.0908 0.4652 0.0000
vt 0.2582 0.4652 0.0000
vt 0.0908 0.4652 0.0000
vt 0.0908 0.4652 0.0000
vt 0.2582 0.4652 0.0000
vt 0.0908 0.4652 0.0000
vt 0.2582 0.4652 0.0000
vt 0.0908 0.1116 0.0000
vt 0.2582 0.1116 0.0000
vt 0.0908 0.1116 0.0000
vt 0.2582 0.1116 0.0000
vt 0.0908 0.1116 0.0000
vt 0.2582 0.1116 0.0000
vt 0.0908 0.1116 0.0000
vt 0.2582 0.1116 0.0000
vt 0.2582 0.4652 0.0000
vt 0.0908 0.4652 0.0000
vt 0.2582 0.4652 0.0000
vt 0.0908 0.4652 0.0000
vt 0.0908 0.4652 0.0000
vt 0.2582 0.4652 0.0000
vt 0.0908 0.4652 0.0000
vt 0.2582 0.4652 0.0000
# 160 texture coords

o GrassStage03
g GrassStage03
s 1
f 1/1/1 17/17/2 21/21/3 
f 5/5/4 22/22/5 6/6/6 
f 9/9/7 10/10/8 23/23/9 
f 13/13/10 20/20/11 14/14/12 
f 17/17/13 4/4/14 21/21/15 
f 18/18/16 8/8/17 22/22/18 
f 19/19/19 11/11/20 23/23/21 
f 20/20/22 15/15/23 24/24/24 
f 10/10/25 19/19/26 23/23/27 
f 20/20/28 24/24/29 14/14/30 
f 11/11/31 12/12/32 23/23/33 
f 20/20/34 16/16/35 15/15/36 
f 17/17/37 3/3/38 4/4/39 
f 8/8/40 7/7/41 22/22/42 
f 1/1/43 2/2/44 17/17/45 
f 5/5/46 18/18/47 22/22/48 
f 25/25/49 41/41/50 45/45/51 
f 29/29/52 46/46/53 30/30/54 
f 33/33/55 34/34/56 47/47/57 
f 37/37/58 44/44/59 38/38/60 
f 41/41/61 28/28/62 45/45/63 
f 42/42/64 32/32/65 46/46/66 
f 43/43/67 35/35/68 47/47/69 
f 44/44/70 39/39/71 48/48/72 
f 34/34/73 43/43/74 47/47/75 
f 44/44/76 48/48/77 38/38/78 
f 35/35/79 36/36/80 47/47/81 
f 44/44/82 40/40/83 39/39/84 
f 41/41/85 27/27/86 28/28/87 
f 32/32/88 31/31/89 46/46/90 
f 25/25/91 26/26/92 41/41/93 
f 29/29/94 42/42/95 46/46/96 
f 49/49/97 65/65/98 69/69/99 
f 53/53/100 70/70/101 54/54/102 
f 57/57/103 58/58/104 71/71/105 
f 61/61/106 68/68/107 62/62/108 
f 65/65/109 52/52/110 69/69/111 
f 66/66/112 56/56/113 70/70/114 
f 67/67/115 59/59/116 71/71/117 
f 68/68/118 63/63/119 72/72/120 
f 58/58/121 67/67/122 71/71/123 
f 68/68/124 72/72/125 62/62/126 
f 59/59/127 60/60/128 71/71/129 
f 68/68/130 64/64/131 63/63/132 
f 65/65/133 51/51/134 52/52/135 
f 56/56/136 55/55/137 70/70/138 
f 49/49/139 50/50/140 65/65/141 
f 53/53/142 66/66/143 70/70/144 
f 73/73/145 89/89/146 93/93/147 
f 77/77/148 94/94/149 78/78/150 
f 81/81/151 82/82/152 95/95/153 
f 85/85/154 92/92/155 86/86/156 
f 89/89/157 76/76/158 93/93/159 
f 90/90/160 80/80/161 94/94/162 
f 91/91/163 83/83/164 95/95/165 
f 92/92/166 87/87/167 96/96/168 
f 82/82/169 91/91/170 95/95/171 
f 92/92/172 96/96/173 86/86/174 
f 83/83/175 84/84/176 95/95/177 
f 92/92/178 88/88/179 87/87/180 
f 89/89/181 75/75/182 76/76/183 
f 80/80/184 79/79/185 94/94/186 
f 73/73/187 74/74/188 89/89/189 
f 77/77/190 90/90/191 94/94/192 
f 97/97/193 98/98/194 109/109/195 
f 99/99/196 106/106/197 100/100/198 
f 101/101/199 107/107/200 111/111/201 
f 103/103/202 112/112/203 104/104/204 
f 98/98/205 105/105/206 109/109/207 
f 106/106/208 110/110/209 100/100/210 
f 101/101/211 102/102/212 107/107/213 
f 103/103/214 108/108/215 112/112/216 
f 113/113/217 114/114/218 125/125/219 
f 115/115/220 122/122/221 116/116/222 
f 117/117/223 123/123/224 127/127/225 
f 119/119/226 128/128/227 120/120/228 
f 114/114/229 121/121/230 125/125/231 
f 122/122/232 126/126/233 116/116/234 
f 117/117/235 118/118/236 123/123/237 
f 119/119/238 124/124/239 128/128/240 
f 129/129/241 130/130/242 141/141/243 
f 131/131/244 138/138/245 132/132/246 
f 133/133/247 139/139/248 143/143/249 
f 135/135/250 144/144/251 136/136/252 
f 130/130/253 137/137/254 141/141/255 
f 138/138/256 142/142/257 132/132/258 
f 133/133/259 134/134/260 139/139/261 
f 135/135/262 140/140/263 144/144/264 
f 145/145/265 146/146/266 157/157/267 
f 147/147/268 154/154/269 148/148/270 
f 149/149/271 155/155/272 159/159/273 
f 151/151/274 160/160/275 152/152/276 
f 146/146/277 153/153/278 157/157/279 
f 154/154/280 158/158/281 148/148/282 
f 149/149/283 150/150/284 155/155/285 
f 151/151/286 156/156/287 160/160/288 
# 96 faces

