# 3ds Max Wavefront OBJ Exporter v0.99 - (c)2007 guruware
# File Created: 19.11.2024 10:18:43

#
# object GrassStage02
#

v  0.0308 -3.0183 0.3477
v  0.0308 -3.0183 -6.1152
v  -1.0162 11.9711 -6.0062
v  0.1060 11.9711 0.3585
v  -0.0308 -3.0183 0.3477
v  -0.0308 -3.0183 -6.1152
v  -1.0768 11.9711 -5.9955
v  0.0454 11.9711 0.3692
v  0.0308 -2.8878 5.9752
v  0.0308 -2.8878 -0.4877
v  -0.0390 12.1016 -0.4642
v  1.0832 12.1016 5.9005
v  -0.0308 -2.8878 5.9752
v  -0.0308 -2.8878 -0.4877
v  -0.0996 12.1016 -0.4535
v  1.0226 12.1016 5.9112
v  1.6004 1.1516 -5.9363
v  -0.1318 1.1516 0.2904
v  0.1439 1.2821 -0.5006
v  -1.5883 1.2821 5.7262
v  -0.0723 1.1516 0.3063
v  1.5409 1.1516 -5.9523
v  -1.5288 1.2821 5.7421
v  0.0844 1.2821 -0.5165
v  -0.3477 -3.0183 0.0308
v  6.1152 -3.0183 0.0308
v  6.0062 11.9711 -1.0162
v  -0.3585 11.9711 0.1060
v  -0.3477 -3.0183 -0.0308
v  6.1152 -3.0183 -0.0308
v  5.9955 11.9711 -1.0768
v  -0.3692 11.9711 0.0454
v  -5.9752 -2.8878 0.0308
v  0.4877 -2.8878 0.0308
v  0.4642 12.1016 -0.0390
v  -5.9005 12.1016 1.0832
v  -5.9752 -2.8878 -0.0308
v  0.4877 -2.8878 -0.0308
v  0.4535 12.1016 -0.0996
v  -5.9112 12.1016 1.0226
v  5.9364 1.1516 1.6004
v  -0.2904 1.1516 -0.1318
v  0.5006 1.2821 0.1439
v  -5.7262 1.2821 -1.5883
v  -0.3063 1.1516 -0.0723
v  5.9523 1.1516 1.5409
v  -5.7421 1.2821 -1.5288
v  0.5165 1.2821 0.0844
v  0.2676 -3.0183 0.2241
v  -4.3024 -3.0183 -4.3459
v  -4.9656 11.9711 -3.5284
v  0.3285 11.9711 0.1785
v  0.2241 -3.0183 0.2676
v  -4.3459 -3.0183 -4.3024
v  -5.0009 11.9711 -3.4780
v  0.2932 11.9711 0.2289
v  4.2468 -2.8878 4.2033
v  -0.3231 -2.8878 -0.3666
v  -0.3558 12.1016 -0.3006
v  4.9383 12.1016 3.4063
v  4.2033 -2.8878 4.2468
v  -0.3666 -2.8878 -0.3231
v  -0.3911 12.1016 -0.2502
v  4.9030 12.1016 3.4567
v  -3.0660 1.1516 -5.3293
v  0.1122 1.1516 0.2985
v  -0.2522 1.2821 -0.4557
v  2.9259 1.2821 5.1721
v  0.1655 1.1516 0.2678
v  -3.1193 1.1516 -5.2985
v  2.9792 1.2821 5.1413
v  -0.3055 1.2821 -0.4250
v  -0.2241 -3.0183 0.2676
v  4.3459 -3.0183 -4.3024
v  3.5284 11.9711 -4.9656
v  -0.1785 11.9711 0.3285
v  -0.2676 -3.0183 0.2241
v  4.3024 -3.0183 -4.3459
v  3.4780 11.9711 -5.0009
v  -0.2289 11.9711 0.2932
v  -4.2033 -2.8878 4.2468
v  0.3666 -2.8878 -0.3231
v  0.3006 12.1016 -0.3558
v  -3.4063 12.1016 4.9383
v  -4.2468 -2.8878 4.2033
v  0.3231 -2.8878 -0.3666
v  0.2502 12.1016 -0.3911
v  -3.4567 12.1016 4.9030
v  5.3293 1.1516 -3.0660
v  -0.2985 1.1516 0.1122
v  0.4557 1.2821 -0.2522
v  -5.1721 1.2821 2.9259
v  -0.2678 1.1516 0.1655
v  5.2985 1.1516 -3.1193
v  -5.1413 1.2821 2.9792
v  0.4250 1.2821 -0.3055
v  -0.0792 -3.2454 9.1765
v  -0.1283 -2.8867 2.7382
v  -0.1405 -3.2488 9.1765
v  -0.1896 -2.8902 2.7382
v  0.2959 -2.8297 -3.5325
v  0.0529 -3.1749 -9.9682
v  0.2346 -2.8263 -3.5306
v  -0.0085 -3.1715 -9.9663
v  -1.4452 4.5200 2.9225
v  -3.1234 4.1579 9.1383
v  3.1970 4.2333 -10.0024
v  1.7063 4.5818 -3.7371
v  -3.0641 4.1614 9.1542
v  -1.5044 4.5166 2.9066
v  1.7661 4.5785 -3.7231
v  3.1373 4.2367 -10.0164
v  -9.1765 -3.2454 -0.0792
v  -2.7382 -2.8867 -0.1283
v  -9.1765 -3.2488 -0.1405
v  -2.7382 -2.8902 -0.1896
v  3.5325 -2.8297 0.2959
v  9.9682 -3.1749 0.0529
v  3.5306 -2.8263 0.2346
v  9.9663 -3.1715 -0.0085
v  -2.9225 4.5200 -1.4452
v  -9.1383 4.1579 -3.1234
v  10.0024 4.2333 3.1970
v  3.7371 4.5818 1.7063
v  -9.1541 4.1614 -3.0641
v  -2.9066 4.5166 -1.5044
v  3.7231 4.5785 1.7661
v  10.0165 4.2367 3.1373
v  6.4328 -3.2454 6.5448
v  1.8455 -2.8867 2.0269
v  6.3894 -3.2488 6.5881
v  1.8021 -2.8902 2.0703
v  -2.2886 -2.8297 -2.7071
v  -7.0112 -3.1749 -7.0860
v  -2.3306 -2.8263 -2.6624
v  -7.0532 -3.1715 -7.0413
v  1.0446 4.5200 3.0884
v  4.2532 4.1579 8.6703
v  -4.8121 4.2333 -9.3334
v  -1.4360 4.5818 -3.8491
v  4.3063 4.1614 8.6396
v  0.9915 4.5166 3.1191
v  -1.3838 4.5785 -3.8814
v  -4.8643 4.2367 -9.3011
v  -6.5448 -3.2454 6.4328
v  -2.0269 -2.8867 1.8455
v  -6.5881 -3.2488 6.3894
v  -2.0703 -2.8902 1.8021
v  2.7071 -2.8297 -2.2886
v  7.0860 -3.1749 -7.0112
v  2.6624 -2.8263 -2.3306
v  7.0413 -3.1715 -7.0532
v  -3.0884 4.5200 1.0446
v  -8.6703 4.1579 4.2532
v  9.3334 4.2333 -4.8121
v  3.8491 4.5818 -1.4360
v  -8.6396 4.1614 4.3063
v  -3.1191 4.5166 0.9915
v  3.8814 4.5785 -1.3838
v  9.3011 4.2367 -4.8643
# 160 vertices

vn 0.9657 0.2018 0.1634
vn 0.8371 0.5386 0.0960
vn 0.7843 0.5837 0.2101
vn -0.9082 0.3894 -0.1536
vn -0.7783 0.6215 -0.0893
vn -0.8286 0.5598 -0.0000
vn 0.8298 0.5581 -0.0000
vn 0.9083 0.3891 0.1538
vn 0.7785 0.6213 0.0893
vn -1.0000 -0.0040 -0.0000
vn -0.8369 0.5388 -0.0960
vn -0.9656 0.2021 -0.1636
vn 0.8371 0.5386 0.0960
vn 0.6301 0.7761 -0.0266
vn 0.7843 0.5837 0.2101
vn -0.7882 0.5780 -0.2112
vn -0.7150 0.6985 0.0302
vn -0.7783 0.6215 -0.0893
vn 0.7883 0.5779 0.2112
vn 0.7148 0.6987 -0.0303
vn 0.7785 0.6213 0.0893
vn -0.8369 0.5388 -0.0960
vn -0.6304 0.7758 0.0268
vn -0.7843 0.5838 -0.2101
vn 0.9083 0.3891 0.1538
vn 0.7883 0.5779 0.2112
vn 0.7785 0.6213 0.0893
vn -0.8369 0.5388 -0.0960
vn -0.7843 0.5838 -0.2101
vn -0.9656 0.2021 -0.1636
vn 0.7148 0.6987 -0.0303
vn 0.7208 0.6814 -0.1271
vn 0.7785 0.6213 0.0893
vn -0.8369 0.5388 -0.0960
vn -0.6007 0.7924 0.1060
vn -0.6304 0.7758 0.0268
vn 0.8371 0.5386 0.0960
vn 0.6000 0.7930 -0.1058
vn 0.6301 0.7761 -0.0266
vn -0.7150 0.6985 0.0302
vn -0.7213 0.6809 0.1271
vn -0.7783 0.6215 -0.0893
vn 0.9657 0.2018 0.1634
vn 1.0000 -0.0063 -0.0000
vn 0.8371 0.5386 0.0960
vn -0.9082 0.3894 -0.1536
vn -0.7882 0.5780 -0.2112
vn -0.7783 0.6215 -0.0893
vn -0.1634 0.2018 0.9657
vn -0.0960 0.5386 0.8371
vn -0.2102 0.5837 0.7843
vn 0.1536 0.3894 -0.9082
vn 0.0893 0.6215 -0.7783
vn 0.0000 0.5598 -0.8286
vn 0.0000 0.5581 0.8298
vn -0.1538 0.3891 0.9083
vn -0.0893 0.6213 0.7785
vn 0.0000 -0.0040 -1.0000
vn 0.0959 0.5388 -0.8369
vn 0.1636 0.2021 -0.9656
vn -0.0960 0.5386 0.8371
vn 0.0266 0.7761 0.6301
vn -0.2102 0.5837 0.7843
vn 0.2112 0.5780 -0.7882
vn -0.0302 0.6985 -0.7150
vn 0.0893 0.6215 -0.7783
vn -0.2112 0.5779 0.7883
vn 0.0303 0.6987 0.7148
vn -0.0893 0.6213 0.7785
vn 0.0959 0.5388 -0.8369
vn -0.0268 0.7758 -0.6304
vn 0.2101 0.5838 -0.7843
vn -0.1538 0.3891 0.9083
vn -0.2112 0.5779 0.7883
vn -0.0893 0.6213 0.7785
vn 0.0959 0.5388 -0.8369
vn 0.2101 0.5838 -0.7843
vn 0.1636 0.2021 -0.9656
vn 0.0303 0.6987 0.7148
vn 0.1271 0.6814 0.7208
vn -0.0893 0.6213 0.7785
vn 0.0959 0.5388 -0.8369
vn -0.1060 0.7924 -0.6007
vn -0.0268 0.7758 -0.6304
vn -0.0960 0.5386 0.8371
vn 0.1058 0.7930 0.6000
vn 0.0266 0.7761 0.6301
vn -0.0302 0.6985 -0.7150
vn -0.1271 0.6809 -0.7213
vn 0.0893 0.6215 -0.7783
vn -0.1634 0.2018 0.9657
vn 0.0000 -0.0063 1.0000
vn -0.0960 0.5386 0.8371
vn 0.1536 0.3894 -0.9082
vn 0.2112 0.5780 -0.7882
vn 0.0893 0.6215 -0.7783
vn 0.7984 0.2018 -0.5673
vn 0.6598 0.5386 -0.5240
vn 0.7032 0.5837 -0.4060
vn -0.7508 0.3894 0.5336
vn -0.6134 0.6216 0.4872
vn -0.5859 0.5598 0.5859
vn 0.5867 0.5581 -0.5868
vn 0.7510 0.3891 -0.5335
vn 0.6135 0.6213 -0.4874
vn -0.7070 -0.0040 0.7072
vn -0.6596 0.5388 0.5240
vn -0.7985 0.2021 0.5671
vn 0.6598 0.5386 -0.5240
vn 0.4267 0.7761 -0.4644
vn 0.7032 0.5837 -0.4060
vn -0.7067 0.5780 0.4080
vn -0.4842 0.6985 0.5269
vn -0.6134 0.6216 0.4872
vn 0.7067 0.5779 -0.4080
vn 0.4840 0.6987 -0.5269
vn 0.6135 0.6213 -0.4874
vn -0.6596 0.5388 0.5240
vn -0.4268 0.7758 0.4647
vn -0.7031 0.5838 0.4060
vn 0.7510 0.3891 -0.5335
vn 0.7067 0.5779 -0.4080
vn 0.6135 0.6213 -0.4874
vn -0.6596 0.5388 0.5240
vn -0.7031 0.5838 0.4060
vn -0.7985 0.2021 0.5671
vn 0.4840 0.6987 -0.5269
vn 0.4198 0.6814 -0.5995
vn 0.6135 0.6213 -0.4874
vn -0.6596 0.5388 0.5240
vn -0.3498 0.7924 0.4996
vn -0.4268 0.7758 0.4647
vn 0.6598 0.5386 -0.5240
vn 0.3496 0.7929 -0.4991
vn 0.4267 0.7761 -0.4644
vn -0.4842 0.6985 0.5269
vn -0.4201 0.6809 0.5999
vn -0.6134 0.6216 0.4872
vn 0.7984 0.2018 -0.5673
vn 0.7071 -0.0063 -0.7071
vn 0.6598 0.5386 -0.5240
vn -0.7508 0.3894 0.5336
vn -0.7067 0.5780 0.4080
vn -0.6134 0.6216 0.4872
vn 0.5673 0.2018 0.7984
vn 0.5240 0.5386 0.6598
vn 0.4060 0.5837 0.7032
vn -0.5336 0.3894 -0.7508
vn -0.4871 0.6216 -0.6135
vn -0.5859 0.5598 -0.5859
vn 0.5867 0.5582 0.5868
vn 0.5335 0.3891 0.7510
vn 0.4874 0.6213 0.6135
vn -0.7071 -0.0040 -0.7071
vn -0.5240 0.5388 -0.6596
vn -0.5671 0.2021 -0.7985
vn 0.5240 0.5386 0.6598
vn 0.4644 0.7761 0.4267
vn 0.4060 0.5837 0.7032
vn -0.4080 0.5780 -0.7067
vn -0.5269 0.6985 -0.4842
vn -0.4871 0.6216 -0.6135
vn 0.4080 0.5779 0.7067
vn 0.5269 0.6987 0.4840
vn 0.4874 0.6213 0.6135
vn -0.5240 0.5388 -0.6596
vn -0.4647 0.7758 -0.4268
vn -0.4060 0.5838 -0.7031
vn 0.5335 0.3891 0.7510
vn 0.4080 0.5779 0.7067
vn 0.4874 0.6213 0.6135
vn -0.5240 0.5388 -0.6596
vn -0.4060 0.5838 -0.7031
vn -0.5671 0.2021 -0.7985
vn 0.5269 0.6987 0.4840
vn 0.5995 0.6815 0.4197
vn 0.4874 0.6213 0.6135
vn -0.5240 0.5388 -0.6596
vn -0.4996 0.7924 -0.3499
vn -0.4647 0.7758 -0.4268
vn 0.5240 0.5386 0.6598
vn 0.4991 0.7930 0.3494
vn 0.4644 0.7761 0.4267
vn -0.5269 0.6985 -0.4842
vn -0.5999 0.6809 -0.4201
vn -0.4871 0.6216 -0.6135
vn 0.5673 0.2018 0.7984
vn 0.7071 -0.0063 0.7071
vn 0.5240 0.5386 0.6598
vn -0.5336 0.3894 -0.7508
vn -0.4080 0.5780 -0.7067
vn -0.4871 0.6216 -0.6135
vn 0.6925 0.7209 0.0270
vn 0.7827 0.6050 0.1462
vn 0.7394 0.6666 0.0945
vn -0.9660 -0.2557 -0.0373
vn -0.8661 0.4875 -0.1105
vn -0.9805 -0.0703 -0.1832
vn 0.9830 -0.1010 0.1535
vn 0.8696 0.4864 0.0851
vn 0.8341 0.5152 0.1973
vn -0.7707 0.6258 -0.1203
vn -0.7411 0.6675 -0.0725
vn -0.6784 0.7347 -0.0064
vn 0.7827 0.6050 0.1462
vn 0.7430 0.6389 0.1993
vn 0.7394 0.6666 0.0945
vn -0.8661 0.4875 -0.1105
vn -0.8253 0.5195 -0.2214
vn -0.9805 -0.0703 -0.1832
vn 0.9830 -0.1010 0.1535
vn 0.9598 -0.2804 0.0090
vn 0.8696 0.4864 0.0851
vn -0.7707 0.6258 -0.1203
vn -0.7456 0.6427 -0.1762
vn -0.7411 0.6675 -0.0725
vn -0.0270 0.7209 0.6925
vn -0.1462 0.6050 0.7827
vn -0.0948 0.6665 0.7394
vn 0.0373 -0.2557 -0.9660
vn 0.1105 0.4875 -0.8661
vn 0.1832 -0.0703 -0.9806
vn -0.1534 -0.1010 0.9830
vn -0.0849 0.4864 0.8696
vn -0.1973 0.5152 0.8341
vn 0.1203 0.6258 -0.7707
vn 0.0725 0.6675 -0.7411
vn 0.0064 0.7347 -0.6784
vn -0.1462 0.6050 0.7827
vn -0.1993 0.6389 0.7430
vn -0.0948 0.6665 0.7394
vn 0.1105 0.4875 -0.8661
vn 0.2214 0.5195 -0.8253
vn 0.1832 -0.0703 -0.9806
vn -0.1534 -0.1010 0.9830
vn -0.0087 -0.2804 0.9598
vn -0.0849 0.4864 0.8696
vn 0.1203 0.6258 -0.7707
vn 0.1764 0.6427 -0.7455
vn 0.0725 0.6675 -0.7411
vn 0.5086 0.7210 -0.4706
vn 0.6568 0.6050 -0.4501
vn 0.5897 0.6666 -0.4561
vn -0.7096 -0.2558 0.6565
vn -0.6907 0.4875 0.5342
vn -0.8229 -0.0703 0.5638
vn 0.8036 -0.1010 -0.5866
vn 0.6750 0.4864 -0.5548
vn 0.7292 0.5152 -0.4503
vn -0.6300 0.6257 0.4599
vn -0.5753 0.6674 0.4729
vn -0.4843 0.7346 0.4752
vn 0.6568 0.6050 -0.4501
vn 0.6663 0.6389 -0.3845
vn 0.5897 0.6666 -0.4561
vn -0.6907 0.4875 0.5342
vn -0.7401 0.5194 0.4271
vn -0.8229 -0.0703 0.5638
vn 0.8036 -0.1010 -0.5866
vn 0.6851 -0.2804 -0.6723
vn 0.6750 0.4864 -0.5548
vn -0.6300 0.6257 0.4599
vn -0.6518 0.6427 0.4025
vn -0.5753 0.6674 0.4729
vn 0.4707 0.7209 0.5086
vn 0.4501 0.6050 0.6568
vn 0.4561 0.6666 0.5897
vn -0.6566 -0.2557 -0.7096
vn -0.5342 0.4875 -0.6907
vn -0.5638 -0.0703 -0.8229
vn 0.5866 -0.1010 0.8036
vn 0.5548 0.4864 0.6750
vn 0.4503 0.5152 0.7292
vn -0.4599 0.6258 -0.6300
vn -0.4729 0.6674 -0.5753
vn -0.4753 0.7346 -0.4842
vn 0.4501 0.6050 0.6568
vn 0.3845 0.6389 0.6663
vn 0.4561 0.6666 0.5897
vn -0.5342 0.4875 -0.6907
vn -0.4270 0.5194 -0.7402
vn -0.5638 -0.0703 -0.8229
vn 0.5866 -0.1010 0.8036
vn 0.6723 -0.2804 0.6851
vn 0.5548 0.4864 0.6750
vn -0.4599 0.6258 -0.6300
vn -0.4025 0.6427 -0.6518
vn -0.4729 0.6674 -0.5753
# 288 vertex normals

vt 0.2582 0.0033 0.0000
vt 0.3774 0.0033 0.0000
vt 0.3774 0.4659 0.0000
vt 0.2582 0.4659 0.0000
vt 0.2582 0.0033 0.0000
vt 0.3774 0.0033 0.0000
vt 0.3774 0.4659 0.0000
vt 0.2582 0.4659 0.0000
vt 0.2582 0.0033 0.0000
vt 0.3774 0.0033 0.0000
vt 0.3774 0.4659 0.0000
vt 0.2582 0.4659 0.0000
vt 0.2582 0.0033 0.0000
vt 0.3774 0.0033 0.0000
vt 0.3774 0.4659 0.0000
vt 0.2582 0.4659 0.0000
vt 0.3774 0.1189 0.0000
vt 0.2582 0.1189 0.0000
vt 0.3774 0.1189 0.0000
vt 0.2582 0.1189 0.0000
vt 0.2582 0.1189 0.0000
vt 0.3774 0.1189 0.0000
vt 0.2582 0.1189 0.0000
vt 0.3774 0.1189 0.0000
vt 0.2582 0.0033 0.0000
vt 0.3774 0.0033 0.0000
vt 0.3774 0.4659 0.0000
vt 0.2582 0.4659 0.0000
vt 0.2582 0.0033 0.0000
vt 0.3774 0.0033 0.0000
vt 0.3774 0.4659 0.0000
vt 0.2582 0.4659 0.0000
vt 0.2582 0.0033 0.0000
vt 0.3774 0.0033 0.0000
vt 0.3774 0.4659 0.0000
vt 0.2582 0.4659 0.0000
vt 0.2582 0.0033 0.0000
vt 0.3774 0.0033 0.0000
vt 0.3774 0.4659 0.0000
vt 0.2582 0.4659 0.0000
vt 0.3774 0.1189 0.0000
vt 0.2582 0.1189 0.0000
vt 0.3774 0.1189 0.0000
vt 0.2582 0.1189 0.0000
vt 0.2582 0.1189 0.0000
vt 0.3774 0.1189 0.0000
vt 0.2582 0.1189 0.0000
vt 0.3774 0.1189 0.0000
vt 0.2582 0.0033 0.0000
vt 0.3774 0.0033 0.0000
vt 0.3774 0.4659 0.0000
vt 0.2582 0.4659 0.0000
vt 0.2582 0.0033 0.0000
vt 0.3774 0.0033 0.0000
vt 0.3774 0.4659 0.0000
vt 0.2582 0.4659 0.0000
vt 0.2582 0.0033 0.0000
vt 0.3774 0.0033 0.0000
vt 0.3774 0.4659 0.0000
vt 0.2582 0.4659 0.0000
vt 0.2582 0.0033 0.0000
vt 0.3774 0.0033 0.0000
vt 0.3774 0.4659 0.0000
vt 0.2582 0.4659 0.0000
vt 0.3774 0.1189 0.0000
vt 0.2582 0.1189 0.0000
vt 0.3774 0.1189 0.0000
vt 0.2582 0.1189 0.0000
vt 0.2582 0.1189 0.0000
vt 0.3774 0.1189 0.0000
vt 0.2582 0.1189 0.0000
vt 0.3774 0.1189 0.0000
vt 0.2582 0.0033 0.0000
vt 0.3774 0.0033 0.0000
vt 0.3774 0.4659 0.0000
vt 0.2582 0.4659 0.0000
vt 0.2582 0.0033 0.0000
vt 0.3774 0.0033 0.0000
vt 0.3774 0.4659 0.0000
vt 0.2582 0.4659 0.0000
vt 0.2582 0.0033 0.0000
vt 0.3774 0.0033 0.0000
vt 0.3774 0.4659 0.0000
vt 0.2582 0.4659 0.0000
vt 0.2582 0.0033 0.0000
vt 0.3774 0.0033 0.0000
vt 0.3774 0.4659 0.0000
vt 0.2582 0.4659 0.0000
vt 0.3774 0.1189 0.0000
vt 0.2582 0.1189 0.0000
vt 0.3774 0.1189 0.0000
vt 0.2582 0.1189 0.0000
vt 0.2582 0.1189 0.0000
vt 0.3774 0.1189 0.0000
vt 0.2582 0.1189 0.0000
vt 0.3774 0.1189 0.0000
vt 0.0908 0.2659 0.0000
vt 0.2582 0.2659 0.0000
vt 0.0908 0.2659 0.0000
vt 0.2582 0.2659 0.0000
vt 0.0908 0.2659 0.0000
vt 0.2582 0.2659 0.0000
vt 0.0908 0.2659 0.0000
vt 0.2582 0.2659 0.0000
vt 0.2582 0.4673 0.0000
vt 0.0908 0.4673 0.0000
vt 0.2582 0.4673 0.0000
vt 0.0908 0.4673 0.0000
vt 0.0908 0.4673 0.0000
vt 0.2582 0.4673 0.0000
vt 0.0908 0.4673 0.0000
vt 0.2582 0.4673 0.0000
vt 0.0908 0.2659 0.0000
vt 0.2582 0.2659 0.0000
vt 0.0908 0.2659 0.0000
vt 0.2582 0.2659 0.0000
vt 0.0908 0.2659 0.0000
vt 0.2582 0.2659 0.0000
vt 0.0908 0.2659 0.0000
vt 0.2582 0.2659 0.0000
vt 0.2582 0.4673 0.0000
vt 0.0908 0.4673 0.0000
vt 0.2582 0.4673 0.0000
vt 0.0908 0.4673 0.0000
vt 0.0908 0.4673 0.0000
vt 0.2582 0.4673 0.0000
vt 0.0908 0.4673 0.0000
vt 0.2582 0.4673 0.0000
vt 0.0908 0.2659 0.0000
vt 0.2582 0.2659 0.0000
vt 0.0908 0.2659 0.0000
vt 0.2582 0.2659 0.0000
vt 0.0908 0.2659 0.0000
vt 0.2582 0.2659 0.0000
vt 0.0908 0.2659 0.0000
vt 0.2582 0.2659 0.0000
vt 0.2582 0.4673 0.0000
vt 0.0908 0.4673 0.0000
vt 0.2582 0.4673 0.0000
vt 0.0908 0.4673 0.0000
vt 0.0908 0.4673 0.0000
vt 0.2582 0.4673 0.0000
vt 0.0908 0.4673 0.0000
vt 0.2582 0.4673 0.0000
vt 0.0908 0.2659 0.0000
vt 0.2582 0.2659 0.0000
vt 0.0908 0.2659 0.0000
vt 0.2582 0.2659 0.0000
vt 0.0908 0.2659 0.0000
vt 0.2582 0.2659 0.0000
vt 0.0908 0.2659 0.0000
vt 0.2582 0.2659 0.0000
vt 0.2582 0.4673 0.0000
vt 0.0908 0.4673 0.0000
vt 0.2582 0.4673 0.0000
vt 0.0908 0.4673 0.0000
vt 0.0908 0.4673 0.0000
vt 0.2582 0.4673 0.0000
vt 0.0908 0.4673 0.0000
vt 0.2582 0.4673 0.0000
# 160 texture coords

o GrassStage02
g GrassStage02
s 1
f 1/1/1 17/17/2 21/21/3 
f 5/5/4 22/22/5 6/6/6 
f 9/9/7 10/10/8 23/23/9 
f 13/13/10 20/20/11 14/14/12 
f 17/17/13 4/4/14 21/21/15 
f 18/18/16 8/8/17 22/22/18 
f 19/19/19 11/11/20 23/23/21 
f 20/20/22 15/15/23 24/24/24 
f 10/10/25 19/19/26 23/23/27 
f 20/20/28 24/24/29 14/14/30 
f 11/11/31 12/12/32 23/23/33 
f 20/20/34 16/16/35 15/15/36 
f 17/17/37 3/3/38 4/4/39 
f 8/8/40 7/7/41 22/22/42 
f 1/1/43 2/2/44 17/17/45 
f 5/5/46 18/18/47 22/22/48 
f 25/25/49 41/41/50 45/45/51 
f 29/29/52 46/46/53 30/30/54 
f 33/33/55 34/34/56 47/47/57 
f 37/37/58 44/44/59 38/38/60 
f 41/41/61 28/28/62 45/45/63 
f 42/42/64 32/32/65 46/46/66 
f 43/43/67 35/35/68 47/47/69 
f 44/44/70 39/39/71 48/48/72 
f 34/34/73 43/43/74 47/47/75 
f 44/44/76 48/48/77 38/38/78 
f 35/35/79 36/36/80 47/47/81 
f 44/44/82 40/40/83 39/39/84 
f 41/41/85 27/27/86 28/28/87 
f 32/32/88 31/31/89 46/46/90 
f 25/25/91 26/26/92 41/41/93 
f 29/29/94 42/42/95 46/46/96 
f 49/49/97 65/65/98 69/69/99 
f 53/53/100 70/70/101 54/54/102 
f 57/57/103 58/58/104 71/71/105 
f 61/61/106 68/68/107 62/62/108 
f 65/65/109 52/52/110 69/69/111 
f 66/66/112 56/56/113 70/70/114 
f 67/67/115 59/59/116 71/71/117 
f 68/68/118 63/63/119 72/72/120 
f 58/58/121 67/67/122 71/71/123 
f 68/68/124 72/72/125 62/62/126 
f 59/59/127 60/60/128 71/71/129 
f 68/68/130 64/64/131 63/63/132 
f 65/65/133 51/51/134 52/52/135 
f 56/56/136 55/55/137 70/70/138 
f 49/49/139 50/50/140 65/65/141 
f 53/53/142 66/66/143 70/70/144 
f 73/73/145 89/89/146 93/93/147 
f 77/77/148 94/94/149 78/78/150 
f 81/81/151 82/82/152 95/95/153 
f 85/85/154 92/92/155 86/86/156 
f 89/89/157 76/76/158 93/93/159 
f 90/90/160 80/80/161 94/94/162 
f 91/91/163 83/83/164 95/95/165 
f 92/92/166 87/87/167 96/96/168 
f 82/82/169 91/91/170 95/95/171 
f 92/92/172 96/96/173 86/86/174 
f 83/83/175 84/84/176 95/95/177 
f 92/92/178 88/88/179 87/87/180 
f 89/89/181 75/75/182 76/76/183 
f 80/80/184 79/79/185 94/94/186 
f 73/73/187 74/74/188 89/89/189 
f 77/77/190 90/90/191 94/94/192 
f 97/97/193 98/98/194 109/109/195 
f 99/99/196 106/106/197 100/100/198 
f 101/101/199 107/107/200 111/111/201 
f 103/103/202 112/112/203 104/104/204 
f 98/98/205 105/105/206 109/109/207 
f 106/106/208 110/110/209 100/100/210 
f 101/101/211 102/102/212 107/107/213 
f 103/103/214 108/108/215 112/112/216 
f 113/113/217 114/114/218 125/125/219 
f 115/115/220 122/122/221 116/116/222 
f 117/117/223 123/123/224 127/127/225 
f 119/119/226 128/128/227 120/120/228 
f 114/114/229 121/121/230 125/125/231 
f 122/122/232 126/126/233 116/116/234 
f 117/117/235 118/118/236 123/123/237 
f 119/119/238 124/124/239 128/128/240 
f 129/129/241 130/130/242 141/141/243 
f 131/131/244 138/138/245 132/132/246 
f 133/133/247 139/139/248 143/143/249 
f 135/135/250 144/144/251 136/136/252 
f 130/130/253 137/137/254 141/141/255 
f 138/138/256 142/142/257 132/132/258 
f 133/133/259 134/134/260 139/139/261 
f 135/135/262 140/140/263 144/144/264 
f 145/145/265 146/146/266 157/157/267 
f 147/147/268 154/154/269 148/148/270 
f 149/149/271 155/155/272 159/159/273 
f 151/151/274 160/160/275 152/152/276 
f 146/146/277 153/153/278 157/157/279 
f 154/154/280 158/158/281 148/148/282 
f 149/149/283 150/150/284 155/155/285 
f 151/151/286 156/156/287 160/160/288 
# 96 faces

