# 3ds Max Wavefront OBJ Exporter v0.99 - (c)2007 guruware
# File Created: 19.11.2024 10:18:37

#
# object GrassStage01
#

v  0.0278 -2.7280 0.3142
v  0.0278 -2.7280 -5.5270
v  -0.9185 10.8196 -5.4285
v  0.0958 10.8196 0.3240
v  -0.0278 -2.7280 0.3142
v  -0.0278 -2.7280 -5.5270
v  -0.9733 10.8196 -5.4188
v  0.0411 10.8196 0.3337
v  0.0278 -2.6100 5.4004
v  0.0278 -2.6100 -0.4408
v  -0.0353 10.9375 -0.4195
v  0.9790 10.9375 5.3330
v  -0.0278 -2.6100 5.4004
v  -0.0278 -2.6100 -0.4408
v  -0.0901 10.9375 -0.4099
v  0.9243 10.9375 5.3426
v  -0.0715 -2.9332 8.2939
v  -0.1159 -2.6091 2.4748
v  -0.1270 -2.9363 8.2939
v  -0.1714 -2.6122 2.4748
v  0.2675 -2.5575 -3.1927
v  0.0478 -2.8695 -9.0094
v  0.2120 -2.5545 -3.1910
v  -0.0076 -2.8664 -9.0077
v  1.4464 1.0408 -5.3653
v  -0.1191 1.0408 0.2625
v  0.1300 1.1588 -0.4525
v  -1.4355 1.1588 5.1754
v  -1.3062 1.1350 2.6414
v  -2.8230 0.8077 8.2593
v  2.8895 0.8759 -9.0403
v  1.5422 1.1909 -3.3777
v  -0.0654 1.0408 0.2769
v  1.3927 1.0408 -5.3797
v  -1.3818 1.1588 5.1898
v  0.0763 1.1588 -0.4668
v  -2.7694 0.8108 8.2736
v  -1.3597 1.1319 2.6270
v  1.5962 1.1878 -3.3649
v  2.8355 0.8789 -9.0530
v  -0.3142 -2.7280 0.0278
v  5.5270 -2.7280 0.0278
v  5.4285 10.8196 -0.9185
v  -0.3240 10.8196 0.0958
v  -0.3142 -2.7280 -0.0278
v  5.5270 -2.7280 -0.0278
v  5.4188 10.8196 -0.9733
v  -0.3337 10.8196 0.0411
v  -5.4004 -2.6100 0.0278
v  0.4408 -2.6100 0.0278
v  0.4195 10.9375 -0.0353
v  -5.3330 10.9375 0.9790
v  -5.4004 -2.6100 -0.0278
v  0.4408 -2.6100 -0.0278
v  0.4099 10.9375 -0.0901
v  -5.3426 10.9375 0.9243
v  -8.2939 -2.9332 -0.0715
v  -2.4748 -2.6091 -0.1159
v  -8.2939 -2.9363 -0.1270
v  -2.4748 -2.6122 -0.1714
v  3.1927 -2.5575 0.2675
v  9.0094 -2.8695 0.0478
v  3.1910 -2.5545 0.2120
v  9.0077 -2.8664 -0.0076
v  5.3653 1.0408 1.4464
v  -0.2625 1.0408 -0.1191
v  0.4525 1.1588 0.1300
v  -5.1754 1.1588 -1.4355
v  -2.6414 1.1350 -1.3062
v  -8.2593 0.8077 -2.8230
v  9.0403 0.8759 2.8895
v  3.3777 1.1909 1.5422
v  -0.2769 1.0408 -0.0654
v  5.3797 1.0408 1.3927
v  -5.1898 1.1588 -1.3818
v  0.4668 1.1588 0.0763
v  -8.2736 0.8108 -2.7694
v  -2.6270 1.1319 -1.3597
v  3.3649 1.1878 1.5962
v  9.0530 0.8789 2.8355
v  0.2419 -2.7280 0.2025
v  -3.8885 -2.7280 -3.9278
v  -4.4880 10.8196 -3.1890
v  0.2969 10.8196 0.1614
v  0.2025 -2.7280 0.2419
v  -3.9279 -2.7280 -3.8885
v  -4.5199 10.8196 -3.1435
v  0.2650 10.8196 0.2069
v  3.8383 -2.6100 3.7990
v  -0.2920 -2.6100 -0.3314
v  -0.3216 10.9375 -0.2717
v  4.4633 10.9375 3.0787
v  3.7990 -2.6100 3.8383
v  -0.3314 -2.6100 -0.2920
v  -0.3535 10.9375 -0.2262
v  4.4314 10.9375 3.1242
v  5.8141 -2.9332 5.9152
v  1.6680 -2.6091 1.8319
v  5.7748 -2.9363 5.9544
v  1.6288 -2.6122 1.8712
v  -2.0685 -2.5575 -2.4467
v  -6.3368 -2.8695 -6.4044
v  -2.1065 -2.5545 -2.4063
v  -6.3748 -2.8664 -6.3640
v  -2.7711 1.0408 -4.8167
v  0.1014 1.0408 0.2698
v  -0.2280 1.1588 -0.4119
v  2.6445 1.1588 4.6746
v  0.9441 1.1350 2.7914
v  3.8441 0.8077 7.8363
v  -4.3493 0.8759 -8.4356
v  -1.2979 1.1909 -3.4789
v  0.1495 1.0408 0.2420
v  -2.8192 1.0408 -4.7889
v  2.6926 1.1588 4.6468
v  -0.2761 1.1588 -0.3841
v  3.8921 0.8108 7.8086
v  0.8961 1.1319 2.8191
v  -1.2507 1.1878 -3.5080
v  -4.3964 0.8789 -8.4064
v  -0.2025 -2.7280 0.2419
v  3.9278 -2.7280 -3.8885
v  3.1890 10.8196 -4.4880
v  -0.1614 10.8196 0.2969
v  -0.2419 -2.7280 0.2025
v  3.8885 -2.7280 -3.9279
v  3.1435 10.8196 -4.5199
v  -0.2069 10.8196 0.2650
v  -3.7990 -2.6100 3.8383
v  0.3314 -2.6100 -0.2920
v  0.2717 10.9375 -0.3216
v  -3.0787 10.9375 4.4633
v  -3.8383 -2.6100 3.7990
v  0.2920 -2.6100 -0.3314
v  0.2262 10.9375 -0.3535
v  -3.1242 10.9375 4.4314
v  -5.9152 -2.9332 5.8141
v  -1.8319 -2.6091 1.6680
v  -5.9544 -2.9363 5.7748
v  -1.8712 -2.6122 1.6288
v  2.4467 -2.5575 -2.0685
v  6.4044 -2.8695 -6.3368
v  2.4063 -2.5545 -2.1065
v  6.3640 -2.8664 -6.3748
v  4.8167 1.0408 -2.7711
v  -0.2698 1.0408 0.1014
v  0.4119 1.1588 -0.2280
v  -4.6746 1.1588 2.6445
v  -2.7914 1.1350 0.9441
v  -7.8363 0.8077 3.8441
v  8.4356 0.8759 -4.3493
v  3.4789 1.1909 -1.2979
v  -0.2420 1.0408 0.1495
v  4.7889 1.0408 -2.8192
v  -4.6468 1.1588 2.6926
v  0.3841 1.1588 -0.2761
v  -7.8086 0.8108 3.8921
v  -2.8191 1.1319 0.8961
v  3.5080 1.1878 -1.2507
v  8.4064 0.8789 -4.3964
# 160 vertices

vn 0.9657 0.2018 0.1634
vn 0.8371 0.5386 0.0959
vn 0.7843 0.5837 0.2101
vn -0.9082 0.3894 -0.1536
vn -0.7783 0.6215 -0.0893
vn -0.8286 0.5598 -0.0000
vn 0.8298 0.5581 -0.0000
vn 0.9083 0.3891 0.1538
vn 0.7785 0.6213 0.0893
vn -1.0000 -0.0040 -0.0000
vn -0.8369 0.5388 -0.0960
vn -0.9656 0.2020 -0.1636
vn 0.6925 0.7209 0.0270
vn 0.7827 0.6050 0.1462
vn 0.7394 0.6666 0.0946
vn -0.9660 -0.2557 -0.0374
vn -0.8661 0.4875 -0.1106
vn -0.9805 -0.0704 -0.1833
vn 0.9830 -0.1010 0.1535
vn 0.8696 0.4864 0.0851
vn 0.8341 0.5152 0.1972
vn -0.7707 0.6258 -0.1203
vn -0.7411 0.6675 -0.0726
vn -0.6784 0.7347 -0.0065
vn 0.8371 0.5386 0.0959
vn 0.6301 0.7760 -0.0266
vn 0.7843 0.5837 0.2101
vn -0.7882 0.5780 -0.2112
vn -0.7150 0.6985 0.0302
vn -0.7783 0.6215 -0.0893
vn 0.7883 0.5779 0.2112
vn 0.7148 0.6987 -0.0303
vn 0.7785 0.6213 0.0893
vn -0.8369 0.5388 -0.0960
vn -0.6304 0.7758 0.0268
vn -0.7843 0.5838 -0.2101
vn 0.7827 0.6050 0.1462
vn 0.7430 0.6389 0.1993
vn 0.7394 0.6666 0.0946
vn -0.8661 0.4875 -0.1106
vn -0.8253 0.5194 -0.2214
vn -0.9805 -0.0704 -0.1833
vn 0.9083 0.3891 0.1538
vn 0.7883 0.5779 0.2112
vn 0.7785 0.6213 0.0893
vn -0.8369 0.5388 -0.0960
vn -0.7843 0.5838 -0.2101
vn -0.9656 0.2020 -0.1636
vn 0.7148 0.6987 -0.0303
vn 0.7207 0.6814 -0.1272
vn 0.7785 0.6213 0.0893
vn -0.8369 0.5388 -0.0960
vn -0.6007 0.7924 0.1059
vn -0.6304 0.7758 0.0268
vn 0.8371 0.5386 0.0959
vn 0.6000 0.7930 -0.1058
vn 0.6301 0.7760 -0.0266
vn -0.7150 0.6985 0.0302
vn -0.7213 0.6809 0.1271
vn -0.7783 0.6215 -0.0893
vn 0.9657 0.2018 0.1634
vn 1.0000 -0.0063 -0.0000
vn 0.8371 0.5386 0.0959
vn -0.9082 0.3894 -0.1536
vn -0.7882 0.5780 -0.2112
vn -0.7783 0.6215 -0.0893
vn 0.9830 -0.1010 0.1535
vn 0.9598 -0.2804 0.0090
vn 0.8696 0.4864 0.0851
vn -0.7707 0.6258 -0.1203
vn -0.7456 0.6427 -0.1763
vn -0.7411 0.6675 -0.0726
vn -0.1634 0.2018 0.9657
vn -0.0959 0.5386 0.8371
vn -0.2102 0.5837 0.7843
vn 0.1536 0.3894 -0.9082
vn 0.0893 0.6215 -0.7783
vn 0.0000 0.5598 -0.8286
vn 0.0000 0.5581 0.8298
vn -0.1538 0.3891 0.9083
vn -0.0893 0.6213 0.7785
vn 0.0000 -0.0040 -1.0000
vn 0.0960 0.5388 -0.8369
vn 0.1636 0.2020 -0.9656
vn -0.0270 0.7209 0.6925
vn -0.1462 0.6050 0.7827
vn -0.0948 0.6665 0.7394
vn 0.0374 -0.2557 -0.9660
vn 0.1107 0.4875 -0.8661
vn 0.1832 -0.0703 -0.9806
vn -0.1534 -0.1010 0.9830
vn -0.0848 0.4864 0.8696
vn -0.1972 0.5152 0.8341
vn 0.1203 0.6258 -0.7707
vn 0.0726 0.6675 -0.7411
vn 0.0065 0.7347 -0.6784
vn -0.0959 0.5386 0.8371
vn 0.0266 0.7760 0.6301
vn -0.2102 0.5837 0.7843
vn 0.2112 0.5780 -0.7882
vn -0.0302 0.6985 -0.7150
vn 0.0893 0.6215 -0.7783
vn -0.2112 0.5779 0.7883
vn 0.0303 0.6987 0.7148
vn -0.0893 0.6213 0.7785
vn 0.0960 0.5388 -0.8369
vn -0.0268 0.7758 -0.6304
vn 0.2101 0.5838 -0.7843
vn -0.1462 0.6050 0.7827
vn -0.1993 0.6389 0.7430
vn -0.0948 0.6665 0.7394
vn 0.1107 0.4875 -0.8661
vn 0.2214 0.5195 -0.8253
vn 0.1832 -0.0703 -0.9806
vn -0.1538 0.3891 0.9083
vn -0.2112 0.5779 0.7883
vn -0.0893 0.6213 0.7785
vn 0.0960 0.5388 -0.8369
vn 0.2101 0.5838 -0.7843
vn 0.1636 0.2020 -0.9656
vn 0.0303 0.6987 0.7148
vn 0.1272 0.6814 0.7207
vn -0.0893 0.6213 0.7785
vn 0.0960 0.5388 -0.8369
vn -0.1059 0.7924 -0.6007
vn -0.0268 0.7758 -0.6304
vn -0.0959 0.5386 0.8371
vn 0.1058 0.7930 0.6000
vn 0.0266 0.7760 0.6301
vn -0.0302 0.6985 -0.7150
vn -0.1271 0.6809 -0.7213
vn 0.0893 0.6215 -0.7783
vn -0.1634 0.2018 0.9657
vn 0.0000 -0.0063 1.0000
vn -0.0959 0.5386 0.8371
vn 0.1536 0.3894 -0.9082
vn 0.2112 0.5780 -0.7882
vn 0.0893 0.6215 -0.7783
vn -0.1534 -0.1010 0.9830
vn -0.0087 -0.2804 0.9598
vn -0.0848 0.4864 0.8696
vn 0.1203 0.6258 -0.7707
vn 0.1764 0.6427 -0.7455
vn 0.0726 0.6675 -0.7411
vn 0.7984 0.2018 -0.5673
vn 0.6598 0.5386 -0.5240
vn 0.7032 0.5837 -0.4060
vn -0.7508 0.3894 0.5336
vn -0.6134 0.6215 0.4872
vn -0.5859 0.5598 0.5859
vn 0.5867 0.5581 -0.5867
vn 0.7510 0.3891 -0.5335
vn 0.6135 0.6213 -0.4874
vn -0.7070 -0.0040 0.7072
vn -0.6596 0.5388 0.5240
vn -0.7985 0.2020 0.5671
vn 0.5086 0.7210 -0.4707
vn 0.6568 0.6050 -0.4501
vn 0.5897 0.6666 -0.4560
vn -0.7097 -0.2558 0.6565
vn -0.6907 0.4875 0.5342
vn -0.8229 -0.0703 0.5638
vn 0.8036 -0.1010 -0.5866
vn 0.6750 0.4864 -0.5548
vn 0.7292 0.5152 -0.4503
vn -0.6300 0.6257 0.4599
vn -0.5753 0.6674 0.4728
vn -0.4843 0.7346 0.4752
vn 0.6598 0.5386 -0.5240
vn 0.4267 0.7760 -0.4644
vn 0.7032 0.5837 -0.4060
vn -0.7067 0.5780 0.4080
vn -0.4842 0.6985 0.5269
vn -0.6134 0.6215 0.4872
vn 0.7067 0.5779 -0.4080
vn 0.4840 0.6987 -0.5269
vn 0.6135 0.6213 -0.4874
vn -0.6596 0.5388 0.5240
vn -0.4268 0.7758 0.4647
vn -0.7031 0.5838 0.4060
vn 0.6568 0.6050 -0.4501
vn 0.6663 0.6389 -0.3845
vn 0.5897 0.6666 -0.4560
vn -0.6907 0.4875 0.5342
vn -0.7401 0.5194 0.4271
vn -0.8229 -0.0703 0.5638
vn 0.7510 0.3891 -0.5335
vn 0.7067 0.5779 -0.4080
vn 0.6135 0.6213 -0.4874
vn -0.6596 0.5388 0.5240
vn -0.7031 0.5838 0.4060
vn -0.7985 0.2020 0.5671
vn 0.4840 0.6987 -0.5269
vn 0.4199 0.6814 -0.5995
vn 0.6135 0.6213 -0.4874
vn -0.6596 0.5388 0.5240
vn -0.3498 0.7924 0.4996
vn -0.4268 0.7758 0.4647
vn 0.6598 0.5386 -0.5240
vn 0.3496 0.7929 -0.4991
vn 0.4267 0.7760 -0.4644
vn -0.4842 0.6985 0.5269
vn -0.4202 0.6809 0.5999
vn -0.6134 0.6215 0.4872
vn 0.7984 0.2018 -0.5673
vn 0.7071 -0.0063 -0.7071
vn 0.6598 0.5386 -0.5240
vn -0.7508 0.3894 0.5336
vn -0.7067 0.5780 0.4080
vn -0.6134 0.6215 0.4872
vn 0.8036 -0.1010 -0.5866
vn 0.6851 -0.2804 -0.6724
vn 0.6750 0.4864 -0.5548
vn -0.6300 0.6257 0.4599
vn -0.6518 0.6427 0.4025
vn -0.5753 0.6674 0.4728
vn 0.5673 0.2018 0.7984
vn 0.5240 0.5386 0.6598
vn 0.4060 0.5837 0.7032
vn -0.5336 0.3894 -0.7508
vn -0.4871 0.6216 -0.6135
vn -0.5859 0.5598 -0.5859
vn 0.5867 0.5581 0.5868
vn 0.5335 0.3891 0.7510
vn 0.4874 0.6213 0.6135
vn -0.7071 -0.0040 -0.7071
vn -0.5240 0.5388 -0.6597
vn -0.5671 0.2020 -0.7985
vn 0.4708 0.7209 0.5086
vn 0.4501 0.6050 0.6568
vn 0.4560 0.6666 0.5897
vn -0.6566 -0.2558 -0.7096
vn -0.5342 0.4875 -0.6907
vn -0.5638 -0.0703 -0.8229
vn 0.5866 -0.1010 0.8036
vn 0.5548 0.4864 0.6750
vn 0.4503 0.5152 0.7292
vn -0.4599 0.6258 -0.6300
vn -0.4728 0.6674 -0.5753
vn -0.4753 0.7346 -0.4842
vn 0.5240 0.5386 0.6598
vn 0.4644 0.7760 0.4268
vn 0.4060 0.5837 0.7032
vn -0.4080 0.5780 -0.7067
vn -0.5269 0.6985 -0.4842
vn -0.4871 0.6216 -0.6135
vn 0.4080 0.5779 0.7067
vn 0.5269 0.6987 0.4840
vn 0.4874 0.6213 0.6135
vn -0.5240 0.5388 -0.6597
vn -0.4647 0.7758 -0.4268
vn -0.4060 0.5838 -0.7031
vn 0.4501 0.6050 0.6568
vn 0.3845 0.6389 0.6663
vn 0.4560 0.6666 0.5897
vn -0.5342 0.4875 -0.6907
vn -0.4271 0.5194 -0.7401
vn -0.5638 -0.0703 -0.8229
vn 0.5335 0.3891 0.7510
vn 0.4080 0.5779 0.7067
vn 0.4874 0.6213 0.6135
vn -0.5240 0.5388 -0.6597
vn -0.4060 0.5838 -0.7031
vn -0.5671 0.2020 -0.7985
vn 0.5269 0.6987 0.4840
vn 0.5995 0.6814 0.4198
vn 0.4874 0.6213 0.6135
vn -0.5240 0.5388 -0.6597
vn -0.4996 0.7924 -0.3499
vn -0.4647 0.7758 -0.4268
vn 0.5240 0.5386 0.6598
vn 0.4991 0.7929 0.3495
vn 0.4644 0.7760 0.4268
vn -0.5269 0.6985 -0.4842
vn -0.5999 0.6809 -0.4201
vn -0.4871 0.6216 -0.6135
vn 0.5673 0.2018 0.7984
vn 0.7071 -0.0063 0.7071
vn 0.5240 0.5386 0.6598
vn -0.5336 0.3894 -0.7508
vn -0.4080 0.5780 -0.7067
vn -0.4871 0.6216 -0.6135
vn 0.5866 -0.1010 0.8036
vn 0.6724 -0.2804 0.6851
vn 0.5548 0.4864 0.6750
vn -0.4599 0.6258 -0.6300
vn -0.4025 0.6427 -0.6518
vn -0.4728 0.6674 -0.5753
# 288 vertex normals

vt 0.2582 0.0033 0.0000
vt 0.3774 0.0033 0.0000
vt 0.3774 0.4659 0.0000
vt 0.2582 0.4659 0.0000
vt 0.2582 0.0033 0.0000
vt 0.3774 0.0033 0.0000
vt 0.3774 0.4659 0.0000
vt 0.2582 0.4659 0.0000
vt 0.2582 0.0033 0.0000
vt 0.3774 0.0033 0.0000
vt 0.3774 0.4659 0.0000
vt 0.2582 0.4659 0.0000
vt 0.2582 0.0033 0.0000
vt 0.3774 0.0033 0.0000
vt 0.3774 0.4659 0.0000
vt 0.2582 0.4659 0.0000
vt 0.0908 0.3460 0.0000
vt 0.2582 0.3460 0.0000
vt 0.0908 0.3460 0.0000
vt 0.2582 0.3460 0.0000
vt 0.0908 0.3460 0.0000
vt 0.2582 0.3460 0.0000
vt 0.0908 0.3460 0.0000
vt 0.2582 0.3460 0.0000
vt 0.3774 0.1189 0.0000
vt 0.2582 0.1189 0.0000
vt 0.3774 0.1189 0.0000
vt 0.2582 0.1189 0.0000
vt 0.2582 0.4616 0.0000
vt 0.0908 0.4616 0.0000
vt 0.2582 0.4616 0.0000
vt 0.0908 0.4616 0.0000
vt 0.2582 0.1189 0.0000
vt 0.3774 0.1189 0.0000
vt 0.2582 0.1189 0.0000
vt 0.3774 0.1189 0.0000
vt 0.0908 0.4616 0.0000
vt 0.2582 0.4616 0.0000
vt 0.0908 0.4616 0.0000
vt 0.2582 0.4616 0.0000
vt 0.2582 0.0033 0.0000
vt 0.3774 0.0033 0.0000
vt 0.3774 0.4659 0.0000
vt 0.2582 0.4659 0.0000
vt 0.2582 0.0033 0.0000
vt 0.3774 0.0033 0.0000
vt 0.3774 0.4659 0.0000
vt 0.2582 0.4659 0.0000
vt 0.2582 0.0033 0.0000
vt 0.3774 0.0033 0.0000
vt 0.3774 0.4659 0.0000
vt 0.2582 0.4659 0.0000
vt 0.2582 0.0033 0.0000
vt 0.3774 0.0033 0.0000
vt 0.3774 0.4659 0.0000
vt 0.2582 0.4659 0.0000
vt 0.0908 0.3460 0.0000
vt 0.2582 0.3460 0.0000
vt 0.0908 0.3460 0.0000
vt 0.2582 0.3460 0.0000
vt 0.0908 0.3460 0.0000
vt 0.2582 0.3460 0.0000
vt 0.0908 0.3460 0.0000
vt 0.2582 0.3460 0.0000
vt 0.3774 0.1189 0.0000
vt 0.2582 0.1189 0.0000
vt 0.3774 0.1189 0.0000
vt 0.2582 0.1189 0.0000
vt 0.2582 0.4616 0.0000
vt 0.0908 0.4616 0.0000
vt 0.2582 0.4616 0.0000
vt 0.0908 0.4616 0.0000
vt 0.2582 0.1189 0.0000
vt 0.3774 0.1189 0.0000
vt 0.2582 0.1189 0.0000
vt 0.3774 0.1189 0.0000
vt 0.0908 0.4616 0.0000
vt 0.2582 0.4616 0.0000
vt 0.0908 0.4616 0.0000
vt 0.2582 0.4616 0.0000
vt 0.2582 0.0033 0.0000
vt 0.3774 0.0033 0.0000
vt 0.3774 0.4659 0.0000
vt 0.2582 0.4659 0.0000
vt 0.2582 0.0033 0.0000
vt 0.3774 0.0033 0.0000
vt 0.3774 0.4659 0.0000
vt 0.2582 0.4659 0.0000
vt 0.2582 0.0033 0.0000
vt 0.3774 0.0033 0.0000
vt 0.3774 0.4659 0.0000
vt 0.2582 0.4659 0.0000
vt 0.2582 0.0033 0.0000
vt 0.3774 0.0033 0.0000
vt 0.3774 0.4659 0.0000
vt 0.2582 0.4659 0.0000
vt 0.0908 0.3460 0.0000
vt 0.2582 0.3460 0.0000
vt 0.0908 0.3460 0.0000
vt 0.2582 0.3460 0.0000
vt 0.0908 0.3460 0.0000
vt 0.2582 0.3460 0.0000
vt 0.0908 0.3460 0.0000
vt 0.2582 0.3460 0.0000
vt 0.3774 0.1189 0.0000
vt 0.2582 0.1189 0.0000
vt 0.3774 0.1189 0.0000
vt 0.2582 0.1189 0.0000
vt 0.2582 0.4616 0.0000
vt 0.0908 0.4616 0.0000
vt 0.2582 0.4616 0.0000
vt 0.0908 0.4616 0.0000
vt 0.2582 0.1189 0.0000
vt 0.3774 0.1189 0.0000
vt 0.2582 0.1189 0.0000
vt 0.3774 0.1189 0.0000
vt 0.0908 0.4616 0.0000
vt 0.2582 0.4616 0.0000
vt 0.0908 0.4616 0.0000
vt 0.2582 0.4616 0.0000
vt 0.2582 0.0033 0.0000
vt 0.3774 0.0033 0.0000
vt 0.3774 0.4659 0.0000
vt 0.2582 0.4659 0.0000
vt 0.2582 0.0033 0.0000
vt 0.3774 0.0033 0.0000
vt 0.3774 0.4659 0.0000
vt 0.2582 0.4659 0.0000
vt 0.2582 0.0033 0.0000
vt 0.3774 0.0033 0.0000
vt 0.3774 0.4659 0.0000
vt 0.2582 0.4659 0.0000
vt 0.2582 0.0033 0.0000
vt 0.3774 0.0033 0.0000
vt 0.3774 0.4659 0.0000
vt 0.2582 0.4659 0.0000
vt 0.0908 0.3460 0.0000
vt 0.2582 0.3460 0.0000
vt 0.0908 0.3460 0.0000
vt 0.2582 0.3460 0.0000
vt 0.0908 0.3460 0.0000
vt 0.2582 0.3460 0.0000
vt 0.0908 0.3460 0.0000
vt 0.2582 0.3460 0.0000
vt 0.3774 0.1189 0.0000
vt 0.2582 0.1189 0.0000
vt 0.3774 0.1189 0.0000
vt 0.2582 0.1189 0.0000
vt 0.2582 0.4616 0.0000
vt 0.0908 0.4616 0.0000
vt 0.2582 0.4616 0.0000
vt 0.0908 0.4616 0.0000
vt 0.2582 0.1189 0.0000
vt 0.3774 0.1189 0.0000
vt 0.2582 0.1189 0.0000
vt 0.3774 0.1189 0.0000
vt 0.0908 0.4616 0.0000
vt 0.2582 0.4616 0.0000
vt 0.0908 0.4616 0.0000
vt 0.2582 0.4616 0.0000
# 160 texture coords

o GrassStage01
g GrassStage01
s 1
f 1/1/1 25/25/2 33/33/3 
f 5/5/4 34/34/5 6/6/6 
f 9/9/7 10/10/8 35/35/9 
f 13/13/10 28/28/11 14/14/12 
f 17/17/13 18/18/14 37/37/15 
f 19/19/16 30/30/17 20/20/18 
f 21/21/19 31/31/20 39/39/21 
f 23/23/22 40/40/23 24/24/24 
f 25/25/25 4/4/26 33/33/27 
f 26/26/28 8/8/29 34/34/30 
f 27/27/31 11/11/32 35/35/33 
f 28/28/34 15/15/35 36/36/36 
f 18/18/37 29/29/38 37/37/39 
f 30/30/40 38/38/41 20/20/42 
f 10/10/43 27/27/44 35/35/45 
f 28/28/46 36/36/47 14/14/48 
f 11/11/49 12/12/50 35/35/51 
f 28/28/52 16/16/53 15/15/54 
f 25/25/55 3/3/56 4/4/57 
f 8/8/58 7/7/59 34/34/60 
f 1/1/61 2/2/62 25/25/63 
f 5/5/64 26/26/65 34/34/66 
f 21/21/67 22/22/68 31/31/69 
f 23/23/70 32/32/71 40/40/72 
f 41/41/73 65/65/74 73/73/75 
f 45/45/76 74/74/77 46/46/78 
f 49/49/79 50/50/80 75/75/81 
f 53/53/82 68/68/83 54/54/84 
f 57/57/85 58/58/86 77/77/87 
f 59/59/88 70/70/89 60/60/90 
f 61/61/91 71/71/92 79/79/93 
f 63/63/94 80/80/95 64/64/96 
f 65/65/97 44/44/98 73/73/99 
f 66/66/100 48/48/101 74/74/102 
f 67/67/103 51/51/104 75/75/105 
f 68/68/106 55/55/107 76/76/108 
f 58/58/109 69/69/110 77/77/111 
f 70/70/112 78/78/113 60/60/114 
f 50/50/115 67/67/116 75/75/117 
f 68/68/118 76/76/119 54/54/120 
f 51/51/121 52/52/122 75/75/123 
f 68/68/124 56/56/125 55/55/126 
f 65/65/127 43/43/128 44/44/129 
f 48/48/130 47/47/131 74/74/132 
f 41/41/133 42/42/134 65/65/135 
f 45/45/136 66/66/137 74/74/138 
f 61/61/139 62/62/140 71/71/141 
f 63/63/142 72/72/143 80/80/144 
f 81/81/145 105/105/146 113/113/147 
f 85/85/148 114/114/149 86/86/150 
f 89/89/151 90/90/152 115/115/153 
f 93/93/154 108/108/155 94/94/156 
f 97/97/157 98/98/158 117/117/159 
f 99/99/160 110/110/161 100/100/162 
f 101/101/163 111/111/164 119/119/165 
f 103/103/166 120/120/167 104/104/168 
f 105/105/169 84/84/170 113/113/171 
f 106/106/172 88/88/173 114/114/174 
f 107/107/175 91/91/176 115/115/177 
f 108/108/178 95/95/179 116/116/180 
f 98/98/181 109/109/182 117/117/183 
f 110/110/184 118/118/185 100/100/186 
f 90/90/187 107/107/188 115/115/189 
f 108/108/190 116/116/191 94/94/192 
f 91/91/193 92/92/194 115/115/195 
f 108/108/196 96/96/197 95/95/198 
f 105/105/199 83/83/200 84/84/201 
f 88/88/202 87/87/203 114/114/204 
f 81/81/205 82/82/206 105/105/207 
f 85/85/208 106/106/209 114/114/210 
f 101/101/211 102/102/212 111/111/213 
f 103/103/214 112/112/215 120/120/216 
f 121/121/217 145/145/218 153/153/219 
f 125/125/220 154/154/221 126/126/222 
f 129/129/223 130/130/224 155/155/225 
f 133/133/226 148/148/227 134/134/228 
f 137/137/229 138/138/230 157/157/231 
f 139/139/232 150/150/233 140/140/234 
f 141/141/235 151/151/236 159/159/237 
f 143/143/238 160/160/239 144/144/240 
f 145/145/241 124/124/242 153/153/243 
f 146/146/244 128/128/245 154/154/246 
f 147/147/247 131/131/248 155/155/249 
f 148/148/250 135/135/251 156/156/252 
f 138/138/253 149/149/254 157/157/255 
f 150/150/256 158/158/257 140/140/258 
f 130/130/259 147/147/260 155/155/261 
f 148/148/262 156/156/263 134/134/264 
f 131/131/265 132/132/266 155/155/267 
f 148/148/268 136/136/269 135/135/270 
f 145/145/271 123/123/272 124/124/273 
f 128/128/274 127/127/275 154/154/276 
f 121/121/277 122/122/278 145/145/279 
f 125/125/280 146/146/281 154/154/282 
f 141/141/283 142/142/284 151/151/285 
f 143/143/286 152/152/287 160/160/288 
# 96 faces

