# 3ds Max Wavefront OBJ Exporter v0.99 - (c)2007 guruware
# File Created: 19.11.2024 10:18:31

#
# object GrassStage00
#

v  0.0222 -2.1797 0.2511
v  0.0222 -2.1797 -4.4161
v  -0.7339 8.6450 -4.3374
v  0.0766 8.6450 0.2589
v  -0.0222 -2.1797 0.2511
v  -0.0222 -2.1797 -4.4161
v  -0.7776 8.6450 -4.3297
v  0.0328 8.6450 0.2666
v  0.0222 -2.0855 4.3150
v  0.0222 -2.0854 -0.3522
v  -0.0282 8.7392 -0.3352
v  0.7823 8.7392 4.2611
v  -0.0222 -2.0855 4.3150
v  -0.0222 -2.0854 -0.3522
v  -0.0720 8.7392 -0.3275
v  0.7385 8.7392 4.2688
v  1.1557 0.8316 -4.2870
v  -0.0952 0.8316 0.2097
v  0.1039 0.9259 -0.3615
v  -1.1470 0.9259 4.1352
v  -0.0522 0.8316 0.2212
v  1.1128 0.8316 -4.2985
v  -1.1041 0.9259 4.1467
v  0.0610 0.9259 -0.3730
v  -0.2511 -2.1797 0.0222
v  4.4161 -2.1797 0.0222
v  4.3374 8.6450 -0.7339
v  -0.2589 8.6450 0.0766
v  -0.2511 -2.1797 -0.0222
v  4.4161 -2.1797 -0.0222
v  4.3297 8.6450 -0.7776
v  -0.2666 8.6450 0.0328
v  -4.3150 -2.0854 0.0222
v  0.3522 -2.0854 0.0222
v  0.3352 8.7392 -0.0282
v  -4.2611 8.7392 0.7823
v  -4.3150 -2.0854 -0.0222
v  0.3522 -2.0854 -0.0222
v  0.3275 8.7392 -0.0720
v  -4.2688 8.7392 0.7385
v  4.2870 0.8316 1.1557
v  -0.2097 0.8316 -0.0952
v  0.3615 0.9259 0.1039
v  -4.1352 0.9259 -1.1470
v  -0.2212 0.8316 -0.0522
v  4.2985 0.8316 1.1128
v  -4.1467 0.9259 -1.1041
v  0.3730 0.9259 0.0610
v  0.1932 -2.1797 0.1618
v  -3.1070 -2.1797 -3.1384
v  -3.5859 8.6450 -2.5481
v  0.2372 8.6450 0.1289
v  0.1618 -2.1797 0.1932
v  -3.1384 -2.1797 -3.1070
v  -3.6114 8.6450 -2.5117
v  0.2117 8.6450 0.1653
v  3.0669 -2.0855 3.0355
v  -0.2333 -2.0854 -0.2648
v  -0.2570 8.7392 -0.2171
v  3.5662 8.7392 2.4599
v  3.0355 -2.0855 3.0669
v  -0.2648 -2.0854 -0.2333
v  -0.2825 8.7392 -0.1807
v  3.5407 8.7392 2.4963
v  -2.2141 0.8316 -3.8486
v  0.0810 0.8316 0.2156
v  -0.1822 0.9259 -0.3291
v  2.1130 0.9259 3.7350
v  0.1195 0.8316 0.1934
v  -2.2526 0.8316 -3.8263
v  2.1514 0.9259 3.7128
v  -0.2206 0.9259 -0.3069
v  -0.1618 -2.1797 0.1932
v  3.1384 -2.1797 -3.1070
v  2.5481 8.6450 -3.5859
v  -0.1289 8.6450 0.2372
v  -0.1933 -2.1797 0.1618
v  3.1070 -2.1797 -3.1384
v  2.5117 8.6450 -3.6114
v  -0.1653 8.6450 0.2117
v  -3.0355 -2.0855 3.0669
v  0.2648 -2.0854 -0.2333
v  0.2171 8.7392 -0.2570
v  -2.4599 8.7392 3.5662
v  -3.0669 -2.0855 3.0354
v  0.2333 -2.0854 -0.2648
v  0.1807 8.7392 -0.2825
v  -2.4963 8.7392 3.5407
v  3.8486 0.8316 -2.2141
v  -0.2156 0.8316 0.0810
v  0.3291 0.9259 -0.1822
v  -3.7350 0.9259 2.1130
v  -0.1934 0.8316 0.1195
v  3.8263 0.8316 -2.2526
v  -3.7128 0.9259 2.1514
v  0.3069 0.9259 -0.2206
# 96 vertices

vn 0.9657 0.2018 0.1634
vn 0.8371 0.5386 0.0960
vn 0.7843 0.5837 0.2101
vn -0.9082 0.3894 -0.1536
vn -0.7783 0.6215 -0.0893
vn -0.8286 0.5598 -0.0000
vn 0.8298 0.5581 -0.0000
vn 0.9083 0.3891 0.1538
vn 0.7785 0.6213 0.0893
vn -1.0000 -0.0040 -0.0000
vn -0.8369 0.5388 -0.0960
vn -0.9656 0.2021 -0.1636
vn 0.8371 0.5386 0.0960
vn 0.6301 0.7760 -0.0266
vn 0.7843 0.5837 0.2101
vn -0.7882 0.5780 -0.2112
vn -0.7150 0.6985 0.0302
vn -0.7783 0.6215 -0.0893
vn 0.7883 0.5779 0.2112
vn 0.7148 0.6987 -0.0303
vn 0.7785 0.6213 0.0893
vn -0.8369 0.5388 -0.0960
vn -0.6304 0.7758 0.0268
vn -0.7843 0.5838 -0.2101
vn 0.9083 0.3891 0.1538
vn 0.7883 0.5779 0.2112
vn 0.7785 0.6213 0.0893
vn -0.8369 0.5388 -0.0960
vn -0.7843 0.5838 -0.2101
vn -0.9656 0.2021 -0.1636
vn 0.7148 0.6987 -0.0303
vn 0.7207 0.6814 -0.1271
vn 0.7785 0.6213 0.0893
vn -0.8369 0.5388 -0.0960
vn -0.6007 0.7924 0.1060
vn -0.6304 0.7758 0.0268
vn 0.8371 0.5386 0.0960
vn 0.6000 0.7930 -0.1059
vn 0.6301 0.7760 -0.0266
vn -0.7150 0.6985 0.0302
vn -0.7212 0.6809 0.1272
vn -0.7783 0.6215 -0.0893
vn 0.9657 0.2018 0.1634
vn 1.0000 -0.0063 -0.0000
vn 0.8371 0.5386 0.0960
vn -0.9082 0.3894 -0.1536
vn -0.7882 0.5780 -0.2112
vn -0.7783 0.6215 -0.0893
vn -0.1634 0.2018 0.9657
vn -0.0960 0.5386 0.8371
vn -0.2102 0.5837 0.7843
vn 0.1536 0.3894 -0.9082
vn 0.0893 0.6215 -0.7783
vn 0.0000 0.5598 -0.8286
vn 0.0000 0.5581 0.8298
vn -0.1538 0.3891 0.9083
vn -0.0892 0.6213 0.7785
vn 0.0000 -0.0040 -1.0000
vn 0.0959 0.5388 -0.8369
vn 0.1636 0.2021 -0.9656
vn -0.0960 0.5386 0.8371
vn 0.0266 0.7760 0.6301
vn -0.2102 0.5837 0.7843
vn 0.2112 0.5780 -0.7882
vn -0.0302 0.6985 -0.7150
vn 0.0893 0.6215 -0.7783
vn -0.2112 0.5779 0.7883
vn 0.0303 0.6987 0.7148
vn -0.0892 0.6213 0.7785
vn 0.0959 0.5388 -0.8369
vn -0.0268 0.7758 -0.6304
vn 0.2101 0.5838 -0.7843
vn -0.1538 0.3891 0.9083
vn -0.2112 0.5779 0.7883
vn -0.0892 0.6213 0.7785
vn 0.0959 0.5388 -0.8369
vn 0.2101 0.5838 -0.7843
vn 0.1636 0.2021 -0.9656
vn 0.0303 0.6987 0.7148
vn 0.1271 0.6814 0.7208
vn -0.0892 0.6213 0.7785
vn 0.0959 0.5388 -0.8369
vn -0.1059 0.7924 -0.6007
vn -0.0268 0.7758 -0.6304
vn -0.0960 0.5386 0.8371
vn 0.1058 0.7930 0.6000
vn 0.0266 0.7760 0.6301
vn -0.0302 0.6985 -0.7150
vn -0.1272 0.6809 -0.7212
vn 0.0893 0.6215 -0.7783
vn -0.1634 0.2018 0.9657
vn 0.0000 -0.0063 1.0000
vn -0.0960 0.5386 0.8371
vn 0.1536 0.3894 -0.9082
vn 0.2112 0.5780 -0.7882
vn 0.0893 0.6215 -0.7783
vn 0.7984 0.2018 -0.5673
vn 0.6598 0.5386 -0.5240
vn 0.7032 0.5837 -0.4060
vn -0.7508 0.3894 0.5336
vn -0.6135 0.6215 0.4872
vn -0.5859 0.5598 0.5859
vn 0.5867 0.5581 -0.5867
vn 0.7510 0.3891 -0.5335
vn 0.6135 0.6213 -0.4874
vn -0.7071 -0.0040 0.7071
vn -0.6596 0.5388 0.5240
vn -0.7985 0.2021 0.5671
vn 0.6598 0.5386 -0.5240
vn 0.4267 0.7760 -0.4644
vn 0.7032 0.5837 -0.4060
vn -0.7067 0.5780 0.4080
vn -0.4842 0.6985 0.5269
vn -0.6135 0.6215 0.4872
vn 0.7067 0.5779 -0.4080
vn 0.4840 0.6987 -0.5269
vn 0.6135 0.6213 -0.4874
vn -0.6596 0.5388 0.5240
vn -0.4268 0.7758 0.4647
vn -0.7031 0.5838 0.4060
vn 0.7510 0.3891 -0.5335
vn 0.7067 0.5779 -0.4080
vn 0.6135 0.6213 -0.4874
vn -0.6596 0.5388 0.5240
vn -0.7031 0.5838 0.4060
vn -0.7985 0.2021 0.5671
vn 0.4840 0.6987 -0.5269
vn 0.4199 0.6814 -0.5995
vn 0.6135 0.6213 -0.4874
vn -0.6596 0.5388 0.5240
vn -0.3498 0.7925 0.4996
vn -0.4268 0.7758 0.4647
vn 0.6598 0.5386 -0.5240
vn 0.3496 0.7929 -0.4991
vn 0.4267 0.7760 -0.4644
vn -0.4842 0.6985 0.5269
vn -0.4202 0.6809 0.5998
vn -0.6135 0.6215 0.4872
vn 0.7984 0.2018 -0.5673
vn 0.7071 -0.0063 -0.7071
vn 0.6598 0.5386 -0.5240
vn -0.7508 0.3894 0.5336
vn -0.7067 0.5780 0.4080
vn -0.6135 0.6215 0.4872
vn 0.5673 0.2018 0.7984
vn 0.5240 0.5386 0.6598
vn 0.4060 0.5837 0.7032
vn -0.5336 0.3894 -0.7508
vn -0.4871 0.6216 -0.6135
vn -0.5859 0.5598 -0.5859
vn 0.5867 0.5581 0.5868
vn 0.5335 0.3891 0.7510
vn 0.4874 0.6213 0.6135
vn -0.7071 -0.0040 -0.7071
vn -0.5240 0.5388 -0.6597
vn -0.5671 0.2021 -0.7985
vn 0.5240 0.5386 0.6598
vn 0.4644 0.7760 0.4267
vn 0.4060 0.5837 0.7032
vn -0.4080 0.5780 -0.7067
vn -0.5269 0.6985 -0.4843
vn -0.4871 0.6216 -0.6135
vn 0.4080 0.5779 0.7067
vn 0.5269 0.6987 0.4840
vn 0.4874 0.6213 0.6135
vn -0.5240 0.5388 -0.6597
vn -0.4647 0.7758 -0.4268
vn -0.4060 0.5838 -0.7031
vn 0.5335 0.3891 0.7510
vn 0.4080 0.5779 0.7067
vn 0.4874 0.6213 0.6135
vn -0.5240 0.5388 -0.6597
vn -0.4060 0.5838 -0.7031
vn -0.5671 0.2021 -0.7985
vn 0.5269 0.6987 0.4840
vn 0.5995 0.6814 0.4197
vn 0.4874 0.6213 0.6135
vn -0.5240 0.5388 -0.6597
vn -0.4996 0.7925 -0.3499
vn -0.4647 0.7758 -0.4268
vn 0.5240 0.5386 0.6598
vn 0.4992 0.7929 0.3494
vn 0.4644 0.7760 0.4267
vn -0.5269 0.6985 -0.4843
vn -0.5999 0.6809 -0.4201
vn -0.4871 0.6216 -0.6135
vn 0.5673 0.2018 0.7984
vn 0.7071 -0.0063 0.7071
vn 0.5240 0.5386 0.6598
vn -0.5336 0.3894 -0.7508
vn -0.4080 0.5780 -0.7067
vn -0.4871 0.6216 -0.6135
# 192 vertex normals

vt 0.2582 0.2442 0.0000
vt 0.3774 0.2442 0.0000
vt 0.3774 0.4659 0.0000
vt 0.2582 0.4659 0.0000
vt 0.2582 0.2442 0.0000
vt 0.3774 0.2442 0.0000
vt 0.3774 0.4659 0.0000
vt 0.2582 0.4659 0.0000
vt 0.2582 0.2442 0.0000
vt 0.3774 0.2442 0.0000
vt 0.3774 0.4659 0.0000
vt 0.2582 0.4659 0.0000
vt 0.2582 0.2442 0.0000
vt 0.3774 0.2442 0.0000
vt 0.3774 0.4659 0.0000
vt 0.2582 0.4659 0.0000
vt 0.3774 0.3599 0.0000
vt 0.2582 0.3599 0.0000
vt 0.3774 0.3599 0.0000
vt 0.2582 0.3599 0.0000
vt 0.2582 0.3599 0.0000
vt 0.3774 0.3599 0.0000
vt 0.2582 0.3599 0.0000
vt 0.3774 0.3599 0.0000
vt 0.2582 0.2442 0.0000
vt 0.3774 0.2442 0.0000
vt 0.3774 0.4659 0.0000
vt 0.2582 0.4659 0.0000
vt 0.2582 0.2442 0.0000
vt 0.3774 0.2442 0.0000
vt 0.3774 0.4659 0.0000
vt 0.2582 0.4659 0.0000
vt 0.2582 0.2442 0.0000
vt 0.3774 0.2442 0.0000
vt 0.3774 0.4659 0.0000
vt 0.2582 0.4659 0.0000
vt 0.2582 0.2442 0.0000
vt 0.3774 0.2442 0.0000
vt 0.3774 0.4659 0.0000
vt 0.2582 0.4659 0.0000
vt 0.3774 0.3599 0.0000
vt 0.2582 0.3599 0.0000
vt 0.3774 0.3599 0.0000
vt 0.2582 0.3599 0.0000
vt 0.2582 0.3599 0.0000
vt 0.3774 0.3599 0.0000
vt 0.2582 0.3599 0.0000
vt 0.3774 0.3599 0.0000
vt 0.2582 0.2442 0.0000
vt 0.3774 0.2442 0.0000
vt 0.3774 0.4659 0.0000
vt 0.2582 0.4659 0.0000
vt 0.2582 0.2442 0.0000
vt 0.3774 0.2442 0.0000
vt 0.3774 0.4659 0.0000
vt 0.2582 0.4659 0.0000
vt 0.2582 0.2442 0.0000
vt 0.3774 0.2442 0.0000
vt 0.3774 0.4659 0.0000
vt 0.2582 0.4659 0.0000
vt 0.2582 0.2442 0.0000
vt 0.3774 0.2442 0.0000
vt 0.3774 0.4659 0.0000
vt 0.2582 0.4659 0.0000
vt 0.3774 0.3599 0.0000
vt 0.2582 0.3599 0.0000
vt 0.3774 0.3599 0.0000
vt 0.2582 0.3599 0.0000
vt 0.2582 0.3599 0.0000
vt 0.3774 0.3599 0.0000
vt 0.2582 0.3599 0.0000
vt 0.3774 0.3599 0.0000
vt 0.2582 0.2442 0.0000
vt 0.3774 0.2442 0.0000
vt 0.3774 0.4659 0.0000
vt 0.2582 0.4659 0.0000
vt 0.2582 0.2442 0.0000
vt 0.3774 0.2442 0.0000
vt 0.3774 0.4659 0.0000
vt 0.2582 0.4659 0.0000
vt 0.2582 0.2442 0.0000
vt 0.3774 0.2442 0.0000
vt 0.3774 0.4659 0.0000
vt 0.2582 0.4659 0.0000
vt 0.2582 0.2442 0.0000
vt 0.3774 0.2442 0.0000
vt 0.3774 0.4659 0.0000
vt 0.2582 0.4659 0.0000
vt 0.3774 0.3599 0.0000
vt 0.2582 0.3599 0.0000
vt 0.3774 0.3599 0.0000
vt 0.2582 0.3599 0.0000
vt 0.2582 0.3599 0.0000
vt 0.3774 0.3599 0.0000
vt 0.2582 0.3599 0.0000
vt 0.3774 0.3599 0.0000
# 96 texture coords

o GrassStage00
g GrassStage00
s 1
f 1/1/1 17/17/2 21/21/3 
f 5/5/4 22/22/5 6/6/6 
f 9/9/7 10/10/8 23/23/9 
f 13/13/10 20/20/11 14/14/12 
f 17/17/13 4/4/14 21/21/15 
f 18/18/16 8/8/17 22/22/18 
f 19/19/19 11/11/20 23/23/21 
f 20/20/22 15/15/23 24/24/24 
f 10/10/25 19/19/26 23/23/27 
f 20/20/28 24/24/29 14/14/30 
f 11/11/31 12/12/32 23/23/33 
f 20/20/34 16/16/35 15/15/36 
f 17/17/37 3/3/38 4/4/39 
f 8/8/40 7/7/41 22/22/42 
f 1/1/43 2/2/44 17/17/45 
f 5/5/46 18/18/47 22/22/48 
f 25/25/49 41/41/50 45/45/51 
f 29/29/52 46/46/53 30/30/54 
f 33/33/55 34/34/56 47/47/57 
f 37/37/58 44/44/59 38/38/60 
f 41/41/61 28/28/62 45/45/63 
f 42/42/64 32/32/65 46/46/66 
f 43/43/67 35/35/68 47/47/69 
f 44/44/70 39/39/71 48/48/72 
f 34/34/73 43/43/74 47/47/75 
f 44/44/76 48/48/77 38/38/78 
f 35/35/79 36/36/80 47/47/81 
f 44/44/82 40/40/83 39/39/84 
f 41/41/85 27/27/86 28/28/87 
f 32/32/88 31/31/89 46/46/90 
f 25/25/91 26/26/92 41/41/93 
f 29/29/94 42/42/95 46/46/96 
f 49/49/97 65/65/98 69/69/99 
f 53/53/100 70/70/101 54/54/102 
f 57/57/103 58/58/104 71/71/105 
f 61/61/106 68/68/107 62/62/108 
f 65/65/109 52/52/110 69/69/111 
f 66/66/112 56/56/113 70/70/114 
f 67/67/115 59/59/116 71/71/117 
f 68/68/118 63/63/119 72/72/120 
f 58/58/121 67/67/122 71/71/123 
f 68/68/124 72/72/125 62/62/126 
f 59/59/127 60/60/128 71/71/129 
f 68/68/130 64/64/131 63/63/132 
f 65/65/133 51/51/134 52/52/135 
f 56/56/136 55/55/137 70/70/138 
f 49/49/139 50/50/140 65/65/141 
f 53/53/142 66/66/143 70/70/144 
f 73/73/145 89/89/146 93/93/147 
f 77/77/148 94/94/149 78/78/150 
f 81/81/151 82/82/152 95/95/153 
f 85/85/154 92/92/155 86/86/156 
f 89/89/157 76/76/158 93/93/159 
f 90/90/160 80/80/161 94/94/162 
f 91/91/163 83/83/164 95/95/165 
f 92/92/166 87/87/167 96/96/168 
f 82/82/169 91/91/170 95/95/171 
f 92/92/172 96/96/173 86/86/174 
f 83/83/175 84/84/176 95/95/177 
f 92/92/178 88/88/179 87/87/180 
f 89/89/181 75/75/182 76/76/183 
f 80/80/184 79/79/185 94/94/186 
f 73/73/187 74/74/188 89/89/189 
f 77/77/190 90/90/191 94/94/192 
# 64 faces

