# 3ds Max Wavefront OBJ Exporter v0.99 - (c)2007 guruware
# File Created: 19.11.2024 10:18:18

#
# object GrassDead
#

v  0.0333 -3.0052 0.3766
v  0.0333 -3.0052 -6.6234
v  -1.1007 14.6547 -6.5053
v  0.1148 14.6547 0.3883
v  -0.0333 -3.0052 0.3766
v  -0.0333 -3.0052 -6.6234
v  -1.1663 14.6547 -6.4938
v  0.0492 14.6547 0.3999
v  0.0333 -2.8455 6.4717
v  0.0333 -2.8455 -0.5283
v  -0.0423 14.8144 -0.5028
v  1.1732 14.8144 6.3909
v  -0.0333 -2.8455 6.4717
v  -0.0333 -2.8455 -0.5283
v  -0.1079 14.8144 -0.4912
v  1.1076 14.8144 6.4024
v  -0.0857 -3.2832 9.9391
v  -0.1389 -2.8442 2.9658
v  -1.3255 14.6816 5.4350
v  -0.0622 14.2426 12.2932
v  -0.1522 -3.2874 9.9391
v  -0.2054 -2.8484 2.9658
v  -1.3909 14.6774 5.4465
v  -0.1277 14.2384 12.3047
v  0.3205 -2.7744 -3.8260
v  0.0573 -3.1969 -10.7966
v  -0.1731 14.3359 -13.0521
v  1.2965 14.7585 -6.2332
v  0.2541 -2.7702 -3.8240
v  -0.0092 -3.1928 -10.7946
v  -0.2382 14.3401 -13.0386
v  1.2314 14.7626 -6.2197
v  1.7334 1.4098 -6.4297
v  -0.1427 1.4098 0.3145
v  0.1558 1.5695 -0.5422
v  -1.7203 1.5695 6.2020
v  -1.5653 1.5373 3.1654
v  -3.3829 1.0940 9.8977
v  3.4627 1.1863 -10.8336
v  1.8481 1.6130 -4.0477
v  -0.0784 1.4098 0.3318
v  1.6690 1.4098 -6.4469
v  -1.6559 1.5695 6.2193
v  0.0915 1.5695 -0.5595
v  -3.3188 1.0982 9.9149
v  -1.6295 1.5331 3.1482
v  1.9128 1.6088 -4.0325
v  3.3980 1.1904 -10.8488
v  -0.3766 -3.0052 0.0333
v  6.6234 -3.0052 0.0333
v  6.5053 14.6547 -1.1007
v  -0.3883 14.6547 0.1148
v  -0.3766 -3.0052 -0.0333
v  6.6234 -3.0052 -0.0333
v  6.4938 14.6547 -1.1663
v  -0.3999 14.6547 0.0492
v  -6.4717 -2.8455 0.0333
v  0.5283 -2.8455 0.0333
v  0.5028 14.8144 -0.0423
v  -6.3909 14.8144 1.1733
v  -6.4717 -2.8455 -0.0333
v  0.5283 -2.8455 -0.0333
v  0.4912 14.8144 -0.1079
v  -6.4024 14.8144 1.1076
v  -9.9391 -3.2832 -0.0857
v  -2.9658 -2.8442 -0.1389
v  -5.4350 14.6816 -1.3255
v  -12.2932 14.2426 -0.0622
v  -9.9391 -3.2874 -0.1522
v  -2.9658 -2.8484 -0.2054
v  -5.4465 14.6774 -1.3909
v  -12.3047 14.2384 -0.1277
v  3.8260 -2.7744 0.3205
v  10.7966 -3.1969 0.0573
v  13.0521 14.3359 -0.1731
v  6.2332 14.7585 1.2965
v  3.8240 -2.7702 0.2541
v  10.7946 -3.1928 -0.0092
v  13.0386 14.3401 -0.2382
v  6.2197 14.7626 1.2314
v  6.4297 1.4098 1.7334
v  -0.3145 1.4098 -0.1427
v  0.5422 1.5695 0.1558
v  -6.2020 1.5695 -1.7203
v  -3.1654 1.5373 -1.5653
v  -9.8977 1.0940 -3.3829
v  10.8336 1.1863 3.4627
v  4.0477 1.6130 1.8481
v  -0.3318 1.4098 -0.0784
v  6.4469 1.4098 1.6690
v  -6.2193 1.5695 -1.6559
v  0.5595 1.5695 0.0915
v  -9.9149 1.0982 -3.3188
v  -3.1482 1.5331 -1.6295
v  4.0325 1.6088 1.9128
v  10.8488 1.1904 3.3980
v  0.2898 -3.0052 0.2427
v  -4.6599 -3.0052 -4.7070
v  -5.3783 14.6547 -3.8216
v  0.3558 14.6547 0.1934
v  0.2427 -3.0052 0.2898
v  -4.7070 -3.0052 -4.6599
v  -5.4165 14.6547 -3.7671
v  0.3176 14.6547 0.2480
v  4.5998 -2.8455 4.5526
v  -0.3500 -2.8455 -0.3971
v  -0.3854 14.8144 -0.3256
v  5.3486 14.8144 3.6894
v  4.5526 -2.8455 4.5998
v  -0.3971 -2.8455 -0.3500
v  -0.4236 14.8144 -0.2710
v  5.3104 14.8144 3.7440
v  6.9674 -3.2832 7.0887
v  1.9989 -2.8442 2.1953
v  2.9058 14.6816 4.7804
v  8.6486 14.2426 8.7366
v  6.9204 -3.2874 7.1356
v  1.9519 -2.8484 2.2423
v  2.8677 14.6774 4.8348
v  8.6105 14.2384 8.7910
v  -2.4788 -2.7744 -2.9321
v  -7.5938 -3.1969 -7.6748
v  -9.3517 14.3359 -9.1068
v  -3.4908 14.7585 -5.3243
v  -2.5243 -2.7702 -2.8836
v  -7.6394 -3.1928 -7.6264
v  -9.3881 14.3401 -9.0512
v  -3.5272 14.7626 -5.2687
v  -3.3208 1.4098 -5.7721
v  0.1215 1.4098 0.3233
v  -0.2732 1.5695 -0.4936
v  3.1691 1.5695 5.6019
v  1.1314 1.5373 3.3451
v  4.6066 1.0940 9.3908
v  -5.2120 1.1863 -10.1090
v  -1.5553 1.6130 -4.1690
v  0.1792 1.4098 0.2900
v  -3.3785 1.4098 -5.7388
v  3.2268 1.5695 5.5686
v  -0.3309 1.5695 -0.4603
v  4.6642 1.0982 9.3576
v  1.0739 1.5331 3.3783
v  -1.4988 1.6088 -4.2039
v  -5.2686 1.1904 -10.0740
v  -0.2427 -3.0052 0.2898
v  4.7070 -3.0052 -4.6599
v  3.8217 14.6547 -5.3783
v  -0.1934 14.6547 0.3558
v  -0.2898 -3.0052 0.2427
v  4.6599 -3.0052 -4.7070
v  3.7671 14.6547 -5.4165
v  -0.2480 14.6547 0.3176
v  -4.5526 -2.8455 4.5998
v  0.3971 -2.8455 -0.3500
v  0.3256 14.8144 -0.3854
v  -3.6894 14.8144 5.3486
v  -4.5998 -2.8455 4.5526
v  0.3500 -2.8455 -0.3971
v  0.2710 14.8144 -0.4236
v  -3.7440 14.8144 5.3104
v  -7.0887 -3.2832 6.9674
v  -2.1953 -2.8442 1.9989
v  -4.7804 14.6816 2.9058
v  -8.7366 14.2426 8.6486
v  -7.1356 -3.2874 6.9204
v  -2.2423 -2.8484 1.9519
v  -4.8348 14.6774 2.8677
v  -8.7910 14.2384 8.6105
v  2.9321 -2.7744 -2.4788
v  7.6748 -3.1969 -7.5938
v  9.1068 14.3359 -9.3517
v  5.3243 14.7585 -3.4908
v  2.8836 -2.7702 -2.5243
v  7.6264 -3.1928 -7.6394
v  9.0512 14.3401 -9.3881
v  5.2687 14.7626 -3.5272
v  5.7721 1.4098 -3.3208
v  -0.3233 1.4098 0.1215
v  0.4936 1.5695 -0.2732
v  -5.6019 1.5695 3.1691
v  -3.3451 1.5373 1.1314
v  -9.3908 1.0940 4.6066
v  10.1090 1.1863 -5.2120
v  4.1690 1.6130 -1.5553
v  -0.2900 1.4098 0.1792
v  5.7388 1.4098 -3.3785
v  -5.5686 1.5695 3.2268
v  0.4603 1.5695 -0.3309
v  -9.3576 1.0982 4.6642
v  -3.3783 1.5331 1.0739
v  4.2039 1.6088 -1.4988
v  10.0740 1.1904 -5.2686
v  -0.3952 -2.7493 -5.2917
v  -0.4282 -2.7493 -5.6686
v  2.8271 7.7909 -6.9989
v  2.8981 8.0490 -6.6929
v  5.1860 11.0265 -10.0776
v  -0.4330 -2.7369 -5.2884
v  -0.4660 -2.7369 -5.6652
v  2.7941 7.8161 -7.0054
v  2.8652 8.0742 -6.6994
v  5.1531 11.0517 -10.0841
v  1.1279 2.0288 -5.4024
v  1.1609 2.1090 -5.0313
v  1.0924 2.0495 -5.4022
v  1.1254 2.1297 -5.0311
v  -0.3961 -2.6831 -6.8528
v  -0.5505 -2.8031 -7.1840
v  -2.7079 5.4818 -11.2877
v  -2.6059 5.8960 -11.1522
v  -3.9712 6.8868 -15.0994
v  -0.4318 -2.6831 -6.8362
v  -0.5862 -2.8031 -7.1673
v  -2.7443 5.4884 -11.2736
v  -2.6422 5.9025 -11.1381
v  -4.0076 6.8933 -15.0853
v  -0.9610 1.1494 -7.8646
v  -0.8161 1.4083 -7.5864
v  -0.9966 1.1530 -7.8482
v  -0.8517 1.4119 -7.5700
v  0.0981 -2.7493 3.4125
v  0.0981 -2.7493 3.7908
v  -3.2024 7.2544 5.8815
v  -3.3106 7.6083 5.6626
v  -6.0518 8.3785 9.4952
v  0.1361 -2.7369 3.4125
v  0.1361 -2.7369 3.7908
v  -3.1741 7.2819 5.8971
v  -3.2823 7.6358 5.6782
v  -6.0235 8.4060 9.5109
v  -1.4995 3.2691 4.1129
v  -1.4995 3.3495 3.7404
v  -1.4639 3.2891 4.1158
v  -1.4639 3.3696 3.7433
v  -0.0370 -2.6831 4.9677
v  0.0880 -2.8031 5.3111
v  1.8593 6.6553 9.3251
v  1.7744 7.0712 9.1816
v  2.8080 8.0397 13.2319
v  -0.0000 -2.6831 4.9543
v  0.1249 -2.8031 5.2976
v  1.8968 6.6611 9.3142
v  1.8119 7.0770 9.1707
v  2.8455 8.0455 13.2210
v  0.3592 2.3530 5.7624
v  0.2420 2.6144 5.4729
v  0.3962 2.3559 5.7491
v  0.2790 2.6172 5.4597
v  -5.2917 -2.7493 0.3952
v  -5.6686 -2.7493 0.4282
v  -7.6631 8.7252 -2.8271
v  -7.3252 8.9144 -2.8981
v  -10.2364 12.5666 -5.1860
v  -5.2884 -2.7369 0.4330
v  -5.6652 -2.7369 0.4660
v  -7.6659 8.7514 -2.7941
v  -7.3280 8.9405 -2.8652
v  -10.2392 12.5927 -5.1531
v  -6.2133 3.2592 -1.1279
v  -5.8364 3.2592 -1.1609
v  -6.2102 3.2795 -1.0924
v  -5.8333 3.2795 -1.1254
v  -6.8528 -2.6831 0.3961
v  -7.1840 -2.8031 0.5505
v  -11.5196 7.9116 2.7079
v  -11.3275 8.2906 2.6059
v  -15.0742 10.1059 3.9712
v  -6.8362 -2.6831 0.4318
v  -7.1673 -2.8031 0.5862
v  -11.5048 7.9150 2.7443
v  -11.3127 8.2940 2.6422
v  -15.0595 10.1093 4.0076
v  -8.7627 2.9169 0.9610
v  -8.4521 3.1127 0.8161
v  -8.7461 2.9169 0.9966
v  -8.4354 3.1127 0.8517
v  3.4125 -2.7493 -0.0981
v  3.7908 -2.7493 -0.0981
v  6.0008 8.7252 3.3185
v  5.6580 8.9144 3.3599
v  8.3586 12.5666 5.8928
v  3.4125 -2.7369 -0.1361
v  3.7908 -2.7369 -0.1361
v  6.0064 8.7514 3.2860
v  5.6636 8.9405 3.3273
v  8.3643 12.5927 5.8602
v  4.7045 3.2592 1.4995
v  4.3263 3.2592 1.4995
v  4.7045 3.2795 1.4639
v  4.3263 3.2795 1.4639
v  4.9677 -2.6831 0.0370
v  5.3111 -2.8031 -0.0880
v  9.8183 7.9116 -1.8593
v  9.6180 8.2906 -1.7744
v  13.4694 10.1059 -2.8080
v  4.9543 -2.6831 0.0000
v  5.2976 -2.8031 -0.1249
v  9.8067 7.9150 -1.8968
v  9.6064 8.2940 -1.8119
v  13.4579 10.1093 -2.8455
v  6.9196 2.9169 -0.3592
v  6.5975 3.1127 -0.2420
v  6.9062 2.9169 -0.3962
v  6.5840 3.1127 -0.2790
# 304 vertices

vn 0.9603 0.2268 0.1625
vn 0.8053 0.5857 0.0923
vn 0.7497 0.6306 0.2009
vn -0.8897 0.4311 -0.1505
vn -0.7397 0.6676 -0.0849
vn -0.7948 0.6069 -0.0000
vn 0.7961 0.6052 -0.0000
vn 0.8898 0.4308 0.1507
vn 0.7398 0.6674 0.0849
vn -1.0000 -0.0045 -0.0000
vn -0.8051 0.5859 -0.0923
vn -0.9602 0.2271 -0.1627
vn 0.6474 0.7618 0.0252
vn 0.7457 0.6515 0.1393
vn 0.6977 0.7109 0.0892
vn -0.9574 -0.2865 -0.0370
vn -0.8389 0.5337 -0.1071
vn -0.9799 -0.0795 -0.1831
vn 0.9816 -0.1140 0.1533
vn 0.8424 0.5326 0.0824
vn 0.8050 0.5620 0.1904
vn -0.7319 0.6717 -0.1143
vn -0.6991 0.7117 -0.0685
vn -0.6327 0.7744 -0.0060
vn 0.8053 0.5857 0.0923
vn 0.5833 0.8119 -0.0247
vn 0.7497 0.6306 0.2009
vn -0.7541 0.6250 -0.2021
vn -0.6710 0.7409 0.0283
vn -0.7397 0.6676 -0.0849
vn 0.7541 0.6249 0.2021
vn 0.6708 0.7411 -0.0285
vn 0.7398 0.6674 0.0849
vn -0.8051 0.5859 -0.0923
vn -0.5835 0.8117 0.0248
vn -0.7496 0.6307 -0.2008
vn 0.7042 0.6844 0.1889
vn 0.6769 0.7347 -0.0443
vn 0.6977 0.7109 0.0892
vn -0.8389 0.5337 -0.1071
vn -0.5747 0.8175 0.0375
vn -0.7961 0.5663 -0.2136
vn 0.8424 0.5326 0.0824
vn 0.5655 0.8229 -0.0548
vn 0.8050 0.5620 0.1904
vn -0.7062 0.6881 -0.1669
vn -0.6813 0.7290 0.0659
vn -0.6991 0.7117 -0.0685
vn 0.6769 0.7347 -0.0443
vn 0.6755 0.7252 -0.1336
vn 0.6977 0.7109 0.0892
vn -0.8389 0.5337 -0.1071
vn -0.5524 0.8263 0.1095
vn -0.5747 0.8175 0.0375
vn 0.7457 0.6515 0.1393
vn 0.7042 0.6844 0.1889
vn 0.6977 0.7109 0.0892
vn -0.8389 0.5337 -0.1071
vn -0.7961 0.5663 -0.2136
vn -0.9799 -0.0795 -0.1831
vn 0.8898 0.4308 0.1507
vn 0.7541 0.6249 0.2021
vn 0.7398 0.6674 0.0849
vn -0.8051 0.5859 -0.0923
vn -0.7496 0.6307 -0.2008
vn -0.9602 0.2271 -0.1627
vn 0.6708 0.7411 -0.0285
vn 0.6784 0.7249 -0.1197
vn 0.7398 0.6674 0.0849
vn -0.8051 0.5859 -0.0923
vn -0.5543 0.8265 0.0978
vn -0.5835 0.8117 0.0248
vn 0.8053 0.5857 0.0923
vn 0.5536 0.8270 -0.0977
vn 0.5833 0.8119 -0.0247
vn -0.6710 0.7409 0.0283
vn -0.6789 0.7244 0.1197
vn -0.7397 0.6676 -0.0849
vn 0.8424 0.5326 0.0824
vn 0.5411 0.8317 -0.1246
vn 0.5655 0.8229 -0.0548
vn -0.6813 0.7290 0.0659
vn -0.6772 0.7191 0.1560
vn -0.6991 0.7117 -0.0685
vn 0.9603 0.2268 0.1625
vn 1.0000 -0.0071 -0.0000
vn 0.8053 0.5857 0.0923
vn -0.8897 0.4311 -0.1505
vn -0.7541 0.6250 -0.2021
vn -0.7397 0.6676 -0.0849
vn 0.9816 -0.1140 0.1533
vn 0.9495 -0.3135 0.0089
vn 0.8424 0.5326 0.0824
vn -0.7319 0.6717 -0.1143
vn -0.7062 0.6881 -0.1669
vn -0.6991 0.7117 -0.0685
vn -0.1625 0.2268 0.9603
vn -0.0923 0.5857 0.8053
vn -0.2009 0.6306 0.7497
vn 0.1505 0.4311 -0.8897
vn 0.0849 0.6676 -0.7397
vn 0.0000 0.6069 -0.7948
vn 0.0000 0.6052 0.7961
vn -0.1507 0.4308 0.8898
vn -0.0849 0.6674 0.7398
vn 0.0000 -0.0045 -1.0000
vn 0.0923 0.5859 -0.8051
vn 0.1626 0.2271 -0.9602
vn -0.0252 0.7618 0.6474
vn -0.1393 0.6515 0.7457
vn -0.0895 0.7108 0.6977
vn 0.0370 -0.2865 -0.9574
vn 0.1071 0.5337 -0.8389
vn 0.1831 -0.0795 -0.9799
vn -0.1532 -0.1140 0.9816
vn -0.0822 0.5326 0.8424
vn -0.1904 0.5620 0.8050
vn 0.1143 0.6717 -0.7319
vn 0.0685 0.7117 -0.6991
vn 0.0060 0.7744 -0.6327
vn -0.0923 0.5857 0.8053
vn 0.0247 0.8119 0.5833
vn -0.2009 0.6306 0.7497
vn 0.2021 0.6250 -0.7541
vn -0.0283 0.7409 -0.6710
vn 0.0849 0.6676 -0.7397
vn -0.2021 0.6249 0.7541
vn 0.0285 0.7411 0.6708
vn -0.0849 0.6674 0.7398
vn 0.0923 0.5859 -0.8051
vn -0.0248 0.8117 -0.5835
vn 0.2008 0.6307 -0.7496
vn -0.1889 0.6844 0.7042
vn 0.0442 0.7348 0.6769
vn -0.0895 0.7108 0.6977
vn 0.1071 0.5337 -0.8389
vn -0.0376 0.8175 -0.5747
vn 0.2136 0.5663 -0.7961
vn -0.0822 0.5326 0.8424
vn 0.0548 0.8229 0.5656
vn -0.1904 0.5620 0.8050
vn 0.1671 0.6880 -0.7062
vn -0.0659 0.7290 -0.6813
vn 0.0685 0.7117 -0.6991
vn 0.0442 0.7348 0.6769
vn 0.1336 0.7252 0.6755
vn -0.0895 0.7108 0.6977
vn 0.1071 0.5337 -0.8389
vn -0.1095 0.8263 -0.5524
vn -0.0376 0.8175 -0.5747
vn -0.1393 0.6515 0.7457
vn -0.1889 0.6844 0.7042
vn -0.0895 0.7108 0.6977
vn 0.1071 0.5337 -0.8389
vn 0.2136 0.5663 -0.7961
vn 0.1831 -0.0795 -0.9799
vn -0.1507 0.4308 0.8898
vn -0.2021 0.6249 0.7541
vn -0.0849 0.6674 0.7398
vn 0.0923 0.5859 -0.8051
vn 0.2008 0.6307 -0.7496
vn 0.1626 0.2271 -0.9602
vn 0.0285 0.7411 0.6708
vn 0.1197 0.7249 0.6784
vn -0.0849 0.6674 0.7398
vn 0.0923 0.5859 -0.8051
vn -0.0978 0.8265 -0.5543
vn -0.0248 0.8117 -0.5835
vn -0.0923 0.5857 0.8053
vn 0.0977 0.8270 0.5537
vn 0.0247 0.8119 0.5833
vn -0.0283 0.7409 -0.6710
vn -0.1197 0.7244 -0.6789
vn 0.0849 0.6676 -0.7397
vn -0.0822 0.5326 0.8424
vn 0.1246 0.8317 0.5411
vn 0.0548 0.8229 0.5656
vn -0.0659 0.7290 -0.6813
vn -0.1560 0.7191 -0.6772
vn 0.0685 0.7117 -0.6991
vn -0.1625 0.2268 0.9603
vn 0.0000 -0.0071 1.0000
vn -0.0923 0.5857 0.8053
vn 0.1505 0.4311 -0.8897
vn 0.2021 0.6250 -0.7541
vn 0.0849 0.6676 -0.7397
vn -0.1532 -0.1140 0.9816
vn -0.0086 -0.3135 0.9495
vn -0.0822 0.5326 0.8424
vn 0.1143 0.6717 -0.7319
vn 0.1671 0.6880 -0.7062
vn 0.0685 0.7117 -0.6991
vn 0.7939 0.2268 -0.5642
vn 0.6348 0.5856 -0.5041
vn 0.6721 0.6306 -0.3881
vn -0.7355 0.4311 0.5227
vn -0.5830 0.6676 0.4630
vn -0.5620 0.6069 0.5620
vn 0.5629 0.6052 -0.5629
vn 0.7357 0.4308 -0.5226
vn 0.5831 0.6674 -0.4632
vn -0.7071 -0.0045 0.7071
vn -0.6345 0.5859 0.5041
vn -0.7940 0.2271 0.5639
vn 0.4755 0.7618 -0.4400
vn 0.6258 0.6515 -0.4288
vn 0.5564 0.7108 -0.4303
vn -0.7033 -0.2865 0.6506
vn -0.6690 0.5337 0.5174
vn -0.8224 -0.0795 0.5634
vn 0.8025 -0.1140 -0.5857
vn 0.6539 0.5325 -0.5374
vn 0.7038 0.5620 -0.4346
vn -0.5984 0.6717 0.4368
vn -0.5427 0.7116 0.4461
vn -0.4517 0.7743 0.4432
vn 0.6348 0.5856 -0.5041
vn 0.3950 0.8119 -0.4299
vn 0.6721 0.6306 -0.3881
vn -0.6761 0.6250 0.3903
vn -0.4545 0.7409 0.4945
vn -0.5830 0.6676 0.4630
vn 0.6761 0.6249 -0.3903
vn 0.4542 0.7411 -0.4945
vn 0.5831 0.6674 -0.4632
vn -0.6345 0.5859 0.5041
vn -0.3951 0.8117 0.4302
vn -0.6721 0.6307 0.3880
vn 0.6315 0.6844 -0.3644
vn 0.4474 0.7348 -0.5098
vn 0.5564 0.7108 -0.4303
vn -0.6690 0.5337 0.5174
vn -0.3799 0.8175 0.4330
vn -0.7139 0.5663 0.4119
vn 0.6539 0.5325 -0.5374
vn 0.3611 0.8229 -0.4387
vn 0.7038 0.5620 -0.4346
vn -0.6174 0.6881 0.3813
vn -0.4351 0.7290 0.5284
vn -0.5427 0.7116 0.4461
vn 0.4474 0.7348 -0.5098
vn 0.3830 0.7253 -0.5721
vn 0.5564 0.7108 -0.4303
vn -0.6690 0.5337 0.5174
vn -0.3135 0.8263 0.4679
vn -0.3799 0.8175 0.4330
vn 0.6258 0.6515 -0.4288
vn 0.6315 0.6844 -0.3644
vn 0.5564 0.7108 -0.4303
vn -0.6690 0.5337 0.5174
vn -0.7139 0.5663 0.4119
vn -0.8224 -0.0795 0.5634
vn 0.7357 0.4308 -0.5226
vn 0.6761 0.6249 -0.3903
vn 0.5831 0.6674 -0.4632
vn -0.6345 0.5859 0.5041
vn -0.6721 0.6307 0.3880
vn -0.7940 0.2271 0.5639
vn 0.4542 0.7411 -0.4945
vn 0.3952 0.7249 -0.5642
vn 0.5831 0.6674 -0.4632
vn -0.6345 0.5859 0.5041
vn -0.3228 0.8266 0.4611
vn -0.3951 0.8117 0.4302
vn 0.6348 0.5856 -0.5041
vn 0.3226 0.8269 -0.4606
vn 0.3950 0.8119 -0.4299
vn -0.4545 0.7409 0.4945
vn -0.3955 0.7244 0.5646
vn -0.5830 0.6676 0.4630
vn 0.6539 0.5325 -0.5374
vn 0.2947 0.8317 -0.4705
vn 0.3611 0.8229 -0.4387
vn -0.4351 0.7290 0.5284
vn -0.3686 0.7191 0.5891
vn -0.5427 0.7116 0.4461
vn 0.7939 0.2268 -0.5642
vn 0.7071 -0.0071 -0.7071
vn 0.6348 0.5856 -0.5041
vn -0.7355 0.4311 0.5227
vn -0.6761 0.6250 0.3903
vn -0.5830 0.6676 0.4630
vn 0.8025 -0.1140 -0.5857
vn 0.6777 -0.3135 -0.6651
vn 0.6539 0.5325 -0.5374
vn -0.5984 0.6717 0.4368
vn -0.6174 0.6881 0.3813
vn -0.5427 0.7116 0.4461
vn 0.5642 0.2268 0.7939
vn 0.5041 0.5856 0.6348
vn 0.3881 0.6306 0.6721
vn -0.5227 0.4311 -0.7355
vn -0.4629 0.6677 -0.5830
vn -0.5620 0.6069 -0.5620
vn 0.5629 0.6052 0.5629
vn 0.5226 0.4308 0.7357
vn 0.4632 0.6674 0.5831
vn -0.7071 -0.0045 -0.7071
vn -0.5041 0.5858 -0.6346
vn -0.5639 0.2271 -0.7940
vn 0.4401 0.7618 0.4755
vn 0.4288 0.6515 0.6258
vn 0.4303 0.7108 0.5564
vn -0.6507 -0.2865 -0.7032
vn -0.5174 0.5337 -0.6690
vn -0.5634 -0.0795 -0.8224
vn 0.5857 -0.1140 0.8025
vn 0.5374 0.5325 0.6539
vn 0.4346 0.5620 0.7038
vn -0.4368 0.6717 -0.5983
vn -0.4461 0.7116 -0.5427
vn -0.4432 0.7743 -0.4516
vn 0.5041 0.5856 0.6348
vn 0.4299 0.8119 0.3950
vn 0.3881 0.6306 0.6721
vn -0.3903 0.6250 -0.6761
vn -0.4945 0.7409 -0.4545
vn -0.4629 0.6677 -0.5830
vn 0.3903 0.6249 0.6761
vn 0.4945 0.7411 0.4542
vn 0.4632 0.6674 0.5831
vn -0.5041 0.5858 -0.6346
vn -0.4302 0.8117 -0.3951
vn -0.3880 0.6307 -0.6721
vn 0.3644 0.6844 0.6315
vn 0.5098 0.7348 0.4474
vn 0.4303 0.7108 0.5564
vn -0.5174 0.5337 -0.6690
vn -0.4330 0.8175 -0.3799
vn -0.4119 0.5663 -0.7139
vn 0.5374 0.5325 0.6539
vn 0.4387 0.8229 0.3611
vn 0.4346 0.5620 0.7038
vn -0.3813 0.6881 -0.6174
vn -0.5284 0.7290 -0.4351
vn -0.4461 0.7116 -0.5427
vn 0.5098 0.7348 0.4474
vn 0.5721 0.7253 0.3830
vn 0.4303 0.7108 0.5564
vn -0.5174 0.5337 -0.6690
vn -0.4679 0.8263 -0.3135
vn -0.4330 0.8175 -0.3799
vn 0.4288 0.6515 0.6258
vn 0.3644 0.6844 0.6315
vn 0.4303 0.7108 0.5564
vn -0.5174 0.5337 -0.6690
vn -0.4119 0.5663 -0.7139
vn -0.5634 -0.0795 -0.8224
vn 0.5226 0.4308 0.7357
vn 0.3903 0.6249 0.6761
vn 0.4632 0.6674 0.5831
vn -0.5041 0.5858 -0.6346
vn -0.3880 0.6307 -0.6721
vn -0.5639 0.2271 -0.7940
vn 0.4945 0.7411 0.4542
vn 0.5642 0.7250 0.3950
vn 0.4632 0.6674 0.5831
vn -0.5041 0.5858 -0.6346
vn -0.4610 0.8265 -0.3229
vn -0.4302 0.8117 -0.3951
vn 0.5041 0.5856 0.6348
vn 0.4606 0.8270 0.3225
vn 0.4299 0.8119 0.3950
vn -0.4945 0.7409 -0.4545
vn -0.5647 0.7244 -0.3954
vn -0.4629 0.6677 -0.5830
vn 0.5374 0.5325 0.6539
vn 0.4707 0.8317 0.2944
vn 0.4387 0.8229 0.3611
vn -0.5284 0.7290 -0.4351
vn -0.5891 0.7191 -0.3686
vn -0.4461 0.7116 -0.5427
vn 0.5642 0.2268 0.7939
vn 0.7071 -0.0071 0.7071
vn 0.5041 0.5856 0.6348
vn -0.5227 0.4311 -0.7355
vn -0.3903 0.6250 -0.6761
vn -0.4629 0.6677 -0.5830
vn 0.5857 -0.1140 0.8025
vn 0.6651 -0.3135 0.6777
vn 0.5374 0.5325 0.6539
vn -0.4368 0.6717 -0.5983
vn -0.3813 0.6881 -0.6174
vn -0.4461 0.7116 -0.5427
vn 0.9973 0.0506 -0.0537
vn 0.8811 0.4721 -0.0278
vn 0.8806 0.4731 -0.0246
vn 0.8806 0.4731 -0.0246
vn 0.9973 0.0506 -0.0537
vn 0.9973 0.0506 -0.0537
vn 0.9289 -0.3621 0.0770
vn 0.8695 -0.4582 0.1846
vn 0.9158 -0.3878 0.1050
vn -0.6559 0.7546 0.0183
vn -0.6551 0.7553 0.0206
vn -0.8219 0.5678 0.0443
vn -0.8219 0.5678 0.0443
vn -0.8219 0.5678 0.0443
vn -0.6559 0.7546 0.0183
vn -0.9289 0.3622 -0.0771
vn -0.9157 0.3878 -0.1050
vn -0.8695 0.4582 -0.1846
vn 0.9289 -0.3621 0.0770
vn 0.9158 -0.3878 0.1050
vn 0.8806 0.4731 -0.0246
vn 0.8806 0.4731 -0.0246
vn 0.8811 0.4721 -0.0278
vn 0.9289 -0.3621 0.0770
vn -0.9157 0.3878 -0.1050
vn -0.9289 0.3622 -0.0771
vn -0.6551 0.7553 0.0206
vn -0.6551 0.7553 0.0206
vn -0.6559 0.7546 0.0183
vn -0.9157 0.3878 -0.1050
vn 0.8396 0.3440 -0.4204
vn 0.8872 -0.0044 -0.4615
vn 0.8847 -0.0105 -0.4661
vn 0.8847 -0.0105 -0.4661
vn 0.8396 0.3440 -0.4204
vn 0.8396 0.3440 -0.4204
vn 0.9035 -0.0661 -0.4235
vn 0.9296 -0.1144 -0.3503
vn 0.9099 -0.0768 -0.4078
vn -0.8847 0.0106 0.4660
vn -0.8872 0.0045 0.4614
vn -0.8468 0.3211 0.4240
vn -0.8468 0.3211 0.4240
vn -0.8468 0.3212 0.4240
vn -0.8847 0.0106 0.4660
vn -0.9035 0.0661 0.4235
vn -0.9099 0.0768 0.4077
vn -0.9296 0.1144 0.3503
vn 0.9035 -0.0661 -0.4235
vn 0.9099 -0.0768 -0.4078
vn 0.8847 -0.0105 -0.4661
vn 0.8847 -0.0105 -0.4661
vn 0.8872 -0.0044 -0.4615
vn 0.9035 -0.0661 -0.4235
vn -0.9099 0.0768 0.4077
vn -0.9035 0.0661 0.4235
vn -0.8872 0.0045 0.4614
vn -0.8872 0.0045 0.4614
vn -0.8847 0.0106 0.4660
vn -0.9099 0.0768 0.4077
vn -0.9944 0.1020 -0.0279
vn -0.9502 -0.3058 -0.0596
vn -0.9507 -0.3044 -0.0587
vn -0.9507 -0.3044 -0.0587
vn -0.9944 0.1020 -0.0279
vn -0.9944 0.1020 -0.0279
vn -0.8724 -0.4249 -0.2414
vn -0.7493 -0.4986 -0.4358
vn -0.8378 -0.4517 -0.3065
vn 0.9506 0.3046 0.0589
vn 0.9501 0.3061 0.0598
vn 0.8470 0.5311 0.0238
vn 0.8470 0.5311 0.0238
vn 0.8470 0.5311 0.0238
vn 0.9506 0.3046 0.0589
vn 0.8722 0.4252 0.2417
vn 0.8378 0.4518 0.3065
vn 0.7493 0.4986 0.4358
vn -0.8724 -0.4249 -0.2414
vn -0.8378 -0.4517 -0.3065
vn -0.9507 -0.3044 -0.0587
vn -0.9507 -0.3044 -0.0587
vn -0.9502 -0.3058 -0.0596
vn -0.8724 -0.4249 -0.2414
vn 0.8378 0.4518 0.3065
vn 0.8722 0.4252 0.2417
vn 0.9501 0.3061 0.0598
vn 0.9501 0.3061 0.0598
vn 0.9506 0.3046 0.0589
vn 0.8378 0.4518 0.3065
vn -0.8734 0.3456 0.3432
vn -0.9245 0.0019 0.3811
vn -0.9218 -0.0040 0.3877
vn -0.9218 -0.0040 0.3877
vn -0.8734 0.3456 0.3431
vn -0.8734 0.3456 0.3432
vn -0.9373 -0.0547 0.3442
vn -0.9577 -0.1027 0.2689
vn -0.9424 -0.0652 0.3280
vn 0.9218 0.0040 -0.3877
vn 0.9246 -0.0019 -0.3810
vn 0.8820 0.3195 -0.3465
vn 0.8820 0.3195 -0.3465
vn 0.8820 0.3195 -0.3465
vn 0.9218 0.0040 -0.3877
vn 0.9373 0.0547 -0.3442
vn 0.9424 0.0652 -0.3280
vn 0.9577 0.1027 -0.2689
vn -0.9373 -0.0547 0.3442
vn -0.9424 -0.0652 0.3280
vn -0.9218 -0.0040 0.3877
vn -0.9218 -0.0040 0.3877
vn -0.9245 0.0019 0.3811
vn -0.9373 -0.0547 0.3442
vn 0.9424 0.0652 -0.3280
vn 0.9373 0.0547 -0.3442
vn 0.9246 -0.0019 -0.3810
vn 0.9246 -0.0019 -0.3810
vn 0.9218 0.0040 -0.3877
vn 0.9424 0.0652 -0.3280
vn -0.0867 0.0986 -0.9913
vn -0.0693 -0.2850 -0.9560
vn -0.0718 -0.2803 -0.9572
vn -0.0718 -0.2803 -0.9572
vn -0.0867 0.0986 -0.9913
vn -0.0867 0.0986 -0.9913
vn 0.0078 -0.3891 -0.9212
vn 0.0847 -0.4796 -0.8734
vn 0.0199 -0.4038 -0.9146
vn 0.0718 0.2804 0.9572
vn 0.0692 0.2851 0.9560
vn 0.0738 0.5336 0.8425
vn 0.0738 0.5336 0.8425
vn 0.0737 0.5336 0.8425
vn 0.0718 0.2804 0.9572
vn -0.0079 0.3892 0.9211
vn -0.0199 0.4038 0.9146
vn -0.0440 0.8901 0.4537
vn 0.0078 -0.3891 -0.9212
vn 0.0199 -0.4038 -0.9146
vn -0.0718 -0.2803 -0.9572
vn -0.0718 -0.2803 -0.9572
vn -0.0693 -0.2850 -0.9560
vn 0.0078 -0.3891 -0.9212
vn -0.0199 0.4038 0.9146
vn -0.0079 0.3892 0.9211
vn 0.0692 0.2851 0.9560
vn 0.0692 0.2851 0.9560
vn 0.0718 0.2804 0.9572
vn -0.0199 0.4038 0.9146
vn -0.3863 0.2940 -0.8743
vn -0.4394 -0.0048 -0.8983
vn -0.4439 0.0005 -0.8961
vn -0.4439 0.0005 -0.8961
vn -0.3863 0.2939 -0.8743
vn -0.3863 0.2940 -0.8743
vn -0.4316 -0.0042 -0.9020
vn -0.3685 -0.0629 -0.9275
vn -0.4162 -0.0188 -0.9091
vn 0.4438 -0.0004 0.8961
vn 0.4393 0.0048 0.8983
vn 0.3754 0.3703 0.8497
vn 0.3754 0.3703 0.8497
vn 0.3754 0.3703 0.8497
vn 0.4438 -0.0004 0.8961
vn 0.4316 0.0042 0.9020
vn 0.4162 0.0188 0.9091
vn 0.3685 0.0629 0.9275
vn -0.4316 -0.0042 -0.9020
vn -0.4162 -0.0188 -0.9091
vn -0.4439 0.0005 -0.8961
vn -0.4439 0.0005 -0.8961
vn -0.4394 -0.0048 -0.8983
vn -0.4316 -0.0042 -0.9020
vn 0.4162 0.0188 0.9091
vn 0.4316 0.0042 0.9020
vn 0.4393 0.0048 0.8983
vn 0.4393 0.0048 0.8983
vn 0.4438 -0.0004 0.8961
vn 0.4162 0.0188 0.9091
vn 0.0000 0.0986 0.9951
vn -0.0147 -0.2857 0.9582
vn -0.0116 -0.2797 0.9600
vn -0.0116 -0.2797 0.9600
vn 0.0000 0.0986 0.9951
vn 0.0000 0.0986 0.9951
vn -0.0881 -0.3891 0.9170
vn -0.1605 -0.4796 0.8627
vn -0.0996 -0.4038 0.9094
vn 0.0116 0.2798 -0.9600
vn 0.0147 0.2858 -0.9582
vn 0.0000 0.5336 -0.8457
vn 0.0000 0.5336 -0.8457
vn 0.0000 0.5336 -0.8457
vn 0.0116 0.2798 -0.9600
vn 0.0881 0.3892 -0.9169
vn 0.0996 0.4038 -0.9094
vn 0.0834 0.8901 -0.4480
vn -0.0881 -0.3891 0.9170
vn -0.0996 -0.4038 0.9094
vn -0.0116 -0.2797 0.9600
vn -0.0116 -0.2797 0.9600
vn -0.0147 -0.2857 0.9582
vn -0.0881 -0.3891 0.9170
vn 0.0996 0.4038 -0.9094
vn 0.0881 0.3892 -0.9169
vn 0.0147 0.2858 -0.9582
vn 0.0147 0.2858 -0.9582
vn 0.0116 0.2798 -0.9600
vn 0.0996 0.4038 -0.9094
vn 0.3087 0.2939 0.9046
vn 0.3594 -0.0048 0.9332
vn 0.3641 0.0005 0.9314
vn 0.3641 0.0005 0.9314
vn 0.3087 0.2939 0.9046
vn 0.3087 0.2939 0.9046
vn 0.3514 -0.0042 0.9362
vn 0.2862 -0.0629 0.9561
vn 0.3354 -0.0188 0.9419
vn -0.3640 -0.0004 -0.9314
vn -0.3594 0.0048 -0.9332
vn -0.2999 0.3703 -0.8792
vn -0.2999 0.3703 -0.8792
vn -0.3000 0.3703 -0.8791
vn -0.3640 -0.0004 -0.9314
vn -0.3514 0.0042 -0.9362
vn -0.3354 0.0188 -0.9419
vn -0.2862 0.0629 -0.9561
vn 0.3514 -0.0042 0.9362
vn 0.3354 -0.0188 0.9419
vn 0.3641 0.0005 0.9314
vn 0.3641 0.0005 0.9314
vn 0.3594 -0.0048 0.9332
vn 0.3514 -0.0042 0.9362
vn -0.3354 0.0188 -0.9419
vn -0.3514 0.0042 -0.9362
vn -0.3594 0.0048 -0.9332
vn -0.3594 0.0048 -0.9332
vn -0.3640 -0.0004 -0.9314
vn -0.3354 0.0188 -0.9419
# 624 vertex normals

vt 0.8228 0.0151 0.0000
vt 0.8228 0.1343 0.0000
vt 0.3970 0.1343 0.0000
vt 0.3970 0.0151 0.0000
vt 0.8228 0.0151 0.0000
vt 0.8228 0.1343 0.0000
vt 0.3970 0.1343 0.0000
vt 0.3970 0.0151 0.0000
vt 0.8228 0.0151 0.0000
vt 0.8228 0.1343 0.0000
vt 0.3970 0.1343 0.0000
vt 0.3970 0.0151 0.0000
vt 0.8228 0.0151 0.0000
vt 0.8228 0.1343 0.0000
vt 0.3970 0.1343 0.0000
vt 0.3970 0.0151 0.0000
vt 0.8228 0.0151 0.0000
vt 0.8228 0.1343 0.0000
vt 0.3970 0.1343 0.0000
vt 0.3970 0.0151 0.0000
vt 0.8228 0.0151 0.0000
vt 0.8228 0.1343 0.0000
vt 0.3970 0.1343 0.0000
vt 0.3970 0.0151 0.0000
vt 0.8228 0.0151 0.0000
vt 0.8228 0.1343 0.0000
vt 0.3970 0.1343 0.0000
vt 0.3970 0.0151 0.0000
vt 0.8228 0.0151 0.0000
vt 0.8228 0.1343 0.0000
vt 0.3970 0.1343 0.0000
vt 0.3970 0.0151 0.0000
vt 0.7123 0.1343 0.0000
vt 0.7123 0.0151 0.0000
vt 0.7123 0.1343 0.0000
vt 0.7123 0.0151 0.0000
vt 0.7123 0.1343 0.0000
vt 0.7123 0.0151 0.0000
vt 0.7123 0.1343 0.0000
vt 0.7123 0.0151 0.0000
vt 0.7123 0.0151 0.0000
vt 0.7123 0.1343 0.0000
vt 0.7123 0.0151 0.0000
vt 0.7123 0.1343 0.0000
vt 0.7123 0.0151 0.0000
vt 0.7123 0.1343 0.0000
vt 0.7123 0.0151 0.0000
vt 0.7123 0.1343 0.0000
vt 0.8228 0.0151 0.0000
vt 0.8228 0.1343 0.0000
vt 0.3970 0.1343 0.0000
vt 0.3970 0.0151 0.0000
vt 0.8228 0.0151 0.0000
vt 0.8228 0.1343 0.0000
vt 0.3970 0.1343 0.0000
vt 0.3970 0.0151 0.0000
vt 0.8228 0.0151 0.0000
vt 0.8228 0.1343 0.0000
vt 0.3970 0.1343 0.0000
vt 0.3970 0.0151 0.0000
vt 0.8228 0.0151 0.0000
vt 0.8228 0.1343 0.0000
vt 0.3970 0.1343 0.0000
vt 0.3970 0.0151 0.0000
vt 0.8228 0.0151 0.0000
vt 0.8228 0.1343 0.0000
vt 0.3970 0.1343 0.0000
vt 0.3970 0.0151 0.0000
vt 0.8228 0.0151 0.0000
vt 0.8228 0.1343 0.0000
vt 0.3970 0.1343 0.0000
vt 0.3970 0.0151 0.0000
vt 0.8228 0.0151 0.0000
vt 0.8228 0.1343 0.0000
vt 0.3970 0.1343 0.0000
vt 0.3970 0.0151 0.0000
vt 0.8228 0.0151 0.0000
vt 0.8228 0.1343 0.0000
vt 0.3970 0.1343 0.0000
vt 0.3970 0.0151 0.0000
vt 0.7123 0.1343 0.0000
vt 0.7123 0.0151 0.0000
vt 0.7123 0.1343 0.0000
vt 0.7123 0.0151 0.0000
vt 0.7123 0.1343 0.0000
vt 0.7123 0.0151 0.0000
vt 0.7123 0.1343 0.0000
vt 0.7123 0.0151 0.0000
vt 0.7123 0.0151 0.0000
vt 0.7123 0.1343 0.0000
vt 0.7123 0.0151 0.0000
vt 0.7123 0.1343 0.0000
vt 0.7123 0.0151 0.0000
vt 0.7123 0.1343 0.0000
vt 0.7123 0.0151 0.0000
vt 0.7123 0.1343 0.0000
vt 0.8228 0.0151 0.0000
vt 0.8228 0.1343 0.0000
vt 0.3970 0.1343 0.0000
vt 0.3970 0.0151 0.0000
vt 0.8228 0.0151 0.0000
vt 0.8228 0.1343 0.0000
vt 0.3970 0.1343 0.0000
vt 0.3970 0.0151 0.0000
vt 0.8228 0.0151 0.0000
vt 0.8228 0.1343 0.0000
vt 0.3970 0.1343 0.0000
vt 0.3970 0.0151 0.0000
vt 0.8228 0.0151 0.0000
vt 0.8228 0.1343 0.0000
vt 0.3970 0.1343 0.0000
vt 0.3970 0.0151 0.0000
vt 0.8228 0.0151 0.0000
vt 0.8228 0.1343 0.0000
vt 0.3970 0.1343 0.0000
vt 0.3970 0.0151 0.0000
vt 0.8228 0.0151 0.0000
vt 0.8228 0.1343 0.0000
vt 0.3970 0.1343 0.0000
vt 0.3970 0.0151 0.0000
vt 0.8228 0.0151 0.0000
vt 0.8228 0.1343 0.0000
vt 0.3970 0.1343 0.0000
vt 0.3970 0.0151 0.0000
vt 0.8228 0.0151 0.0000
vt 0.8228 0.1343 0.0000
vt 0.3970 0.1343 0.0000
vt 0.3970 0.0151 0.0000
vt 0.7123 0.1343 0.0000
vt 0.7123 0.0151 0.0000
vt 0.7123 0.1343 0.0000
vt 0.7123 0.0151 0.0000
vt 0.7123 0.1343 0.0000
vt 0.7123 0.0151 0.0000
vt 0.7123 0.1343 0.0000
vt 0.7123 0.0151 0.0000
vt 0.7123 0.0151 0.0000
vt 0.7123 0.1343 0.0000
vt 0.7123 0.0151 0.0000
vt 0.7123 0.1343 0.0000
vt 0.7123 0.0151 0.0000
vt 0.7123 0.1343 0.0000
vt 0.7123 0.0151 0.0000
vt 0.7123 0.1343 0.0000
vt 0.8228 0.0151 0.0000
vt 0.8228 0.1343 0.0000
vt 0.3970 0.1343 0.0000
vt 0.3970 0.0151 0.0000
vt 0.8228 0.0151 0.0000
vt 0.8228 0.1343 0.0000
vt 0.3970 0.1343 0.0000
vt 0.3970 0.0151 0.0000
vt 0.8228 0.0151 0.0000
vt 0.8228 0.1343 0.0000
vt 0.3970 0.1343 0.0000
vt 0.3970 0.0151 0.0000
vt 0.8228 0.0151 0.0000
vt 0.8228 0.1343 0.0000
vt 0.3970 0.1343 0.0000
vt 0.3970 0.0151 0.0000
vt 0.8228 0.0151 0.0000
vt 0.8228 0.1343 0.0000
vt 0.3970 0.1343 0.0000
vt 0.3970 0.0151 0.0000
vt 0.8228 0.0151 0.0000
vt 0.8228 0.1343 0.0000
vt 0.3970 0.1343 0.0000
vt 0.3970 0.0151 0.0000
vt 0.8228 0.0151 0.0000
vt 0.8228 0.1343 0.0000
vt 0.3970 0.1343 0.0000
vt 0.3970 0.0151 0.0000
vt 0.8228 0.0151 0.0000
vt 0.8228 0.1343 0.0000
vt 0.3970 0.1343 0.0000
vt 0.3970 0.0151 0.0000
vt 0.7123 0.1343 0.0000
vt 0.7123 0.0151 0.0000
vt 0.7123 0.1343 0.0000
vt 0.7123 0.0151 0.0000
vt 0.7123 0.1343 0.0000
vt 0.7123 0.0151 0.0000
vt 0.7123 0.1343 0.0000
vt 0.7123 0.0151 0.0000
vt 0.7123 0.0151 0.0000
vt 0.7123 0.1343 0.0000
vt 0.7123 0.0151 0.0000
vt 0.7123 0.1343 0.0000
vt 0.7123 0.0151 0.0000
vt 0.7123 0.1343 0.0000
vt 0.7123 0.0151 0.0000
vt 0.7123 0.1343 0.0000
vt 0.0052 0.0033 0.0000
vt 0.0185 0.0033 0.0000
vt 0.0168 0.2113 0.0000
vt 0.0066 0.2113 0.0000
vt 0.0114 0.4185 0.0000
vt 0.0052 0.0033 0.0000
vt 0.0185 0.0033 0.0000
vt 0.0168 0.2113 0.0000
vt 0.0066 0.2113 0.0000
vt 0.0114 0.4185 0.0000
vt 0.0177 0.1073 0.0000
vt 0.0059 0.1073 0.0000
vt 0.0177 0.1073 0.0000
vt 0.0059 0.1073 0.0000
vt 0.0052 0.0033 0.0000
vt 0.0185 0.0033 0.0000
vt 0.0168 0.2113 0.0000
vt 0.0066 0.2113 0.0000
vt 0.0114 0.4185 0.0000
vt 0.0052 0.0033 0.0000
vt 0.0185 0.0033 0.0000
vt 0.0168 0.2113 0.0000
vt 0.0066 0.2113 0.0000
vt 0.0114 0.4185 0.0000
vt 0.0177 0.1073 0.0000
vt 0.0059 0.1073 0.0000
vt 0.0177 0.1073 0.0000
vt 0.0059 0.1073 0.0000
vt 0.0052 0.0033 0.0000
vt 0.0185 0.0033 0.0000
vt 0.0168 0.2113 0.0000
vt 0.0066 0.2113 0.0000
vt 0.0114 0.4185 0.0000
vt 0.0052 0.0033 0.0000
vt 0.0185 0.0033 0.0000
vt 0.0168 0.2113 0.0000
vt 0.0066 0.2113 0.0000
vt 0.0114 0.4185 0.0000
vt 0.0177 0.1073 0.0000
vt 0.0059 0.1073 0.0000
vt 0.0177 0.1073 0.0000
vt 0.0059 0.1073 0.0000
vt 0.0052 0.0033 0.0000
vt 0.0185 0.0033 0.0000
vt 0.0168 0.2113 0.0000
vt 0.0066 0.2113 0.0000
vt 0.0114 0.4185 0.0000
vt 0.0052 0.0033 0.0000
vt 0.0185 0.0033 0.0000
vt 0.0168 0.2113 0.0000
vt 0.0066 0.2113 0.0000
vt 0.0114 0.4185 0.0000
vt 0.0177 0.1073 0.0000
vt 0.0059 0.1073 0.0000
vt 0.0177 0.1073 0.0000
vt 0.0059 0.1073 0.0000
vt 0.0052 0.0033 0.0000
vt 0.0185 0.0033 0.0000
vt 0.0168 0.2113 0.0000
vt 0.0066 0.2113 0.0000
vt 0.0114 0.4185 0.0000
vt 0.0052 0.0033 0.0000
vt 0.0185 0.0033 0.0000
vt 0.0168 0.2113 0.0000
vt 0.0066 0.2113 0.0000
vt 0.0114 0.4185 0.0000
vt 0.0177 0.1073 0.0000
vt 0.0059 0.1073 0.0000
vt 0.0177 0.1073 0.0000
vt 0.0059 0.1073 0.0000
vt 0.0052 0.0033 0.0000
vt 0.0185 0.0033 0.0000
vt 0.0168 0.2113 0.0000
vt 0.0066 0.2113 0.0000
vt 0.0114 0.4185 0.0000
vt 0.0052 0.0033 0.0000
vt 0.0185 0.0033 0.0000
vt 0.0168 0.2113 0.0000
vt 0.0066 0.2113 0.0000
vt 0.0114 0.4185 0.0000
vt 0.0177 0.1073 0.0000
vt 0.0059 0.1073 0.0000
vt 0.0177 0.1073 0.0000
vt 0.0059 0.1073 0.0000
vt 0.0052 0.0033 0.0000
vt 0.0185 0.0033 0.0000
vt 0.0168 0.2113 0.0000
vt 0.0066 0.2113 0.0000
vt 0.0114 0.4185 0.0000
vt 0.0052 0.0033 0.0000
vt 0.0185 0.0033 0.0000
vt 0.0168 0.2113 0.0000
vt 0.0066 0.2113 0.0000
vt 0.0114 0.4185 0.0000
vt 0.0177 0.1073 0.0000
vt 0.0059 0.1073 0.0000
vt 0.0177 0.1073 0.0000
vt 0.0059 0.1073 0.0000
vt 0.0052 0.0033 0.0000
vt 0.0185 0.0033 0.0000
vt 0.0168 0.2113 0.0000
vt 0.0066 0.2113 0.0000
vt 0.0114 0.4185 0.0000
vt 0.0052 0.0033 0.0000
vt 0.0185 0.0033 0.0000
vt 0.0168 0.2113 0.0000
vt 0.0066 0.2113 0.0000
vt 0.0114 0.4185 0.0000
vt 0.0177 0.1073 0.0000
vt 0.0059 0.1073 0.0000
vt 0.0177 0.1073 0.0000
vt 0.0059 0.1073 0.0000
# 304 texture coords

o GrassDead
g GrassDead
s 1
f 1/1/1 33/33/2 41/41/3 
f 5/5/4 42/42/5 6/6/6 
f 9/9/7 10/10/8 43/43/9 
f 13/13/10 36/36/11 14/14/12 
f 17/17/13 18/18/14 45/45/15 
f 21/21/16 38/38/17 22/22/18 
f 25/25/19 39/39/20 47/47/21 
f 29/29/22 48/48/23 30/30/24 
f 33/33/25 4/4/26 41/41/27 
f 34/34/28 8/8/29 42/42/30 
f 35/35/31 11/11/32 43/43/33 
f 36/36/34 15/15/35 44/44/36 
f 37/37/37 19/19/38 45/45/39 
f 38/38/40 23/23/41 46/46/42 
f 39/39/43 28/28/44 47/47/45 
f 40/40/46 32/32/47 48/48/48 
f 19/19/49 20/20/50 45/45/51 
f 38/38/52 24/24/53 23/23/54 
f 18/18/55 37/37/56 45/45/57 
f 38/38/58 46/46/59 22/22/60 
f 10/10/61 35/35/62 43/43/63 
f 36/36/64 44/44/65 14/14/66 
f 11/11/67 12/12/68 43/43/69 
f 36/36/70 16/16/71 15/15/72 
f 33/33/73 3/3/74 4/4/75 
f 8/8/76 7/7/77 42/42/78 
f 39/39/79 27/27/80 28/28/81 
f 32/32/82 31/31/83 48/48/84 
f 1/1/85 2/2/86 33/33/87 
f 5/5/88 34/34/89 42/42/90 
f 25/25/91 26/26/92 39/39/93 
f 29/29/94 40/40/95 48/48/96 
f 49/49/97 81/81/98 89/89/99 
f 53/53/100 90/90/101 54/54/102 
f 57/57/103 58/58/104 91/91/105 
f 61/61/106 84/84/107 62/62/108 
f 65/65/109 66/66/110 93/93/111 
f 69/69/112 86/86/113 70/70/114 
f 73/73/115 87/87/116 95/95/117 
f 77/77/118 96/96/119 78/78/120 
f 81/81/121 52/52/122 89/89/123 
f 82/82/124 56/56/125 90/90/126 
f 83/83/127 59/59/128 91/91/129 
f 84/84/130 63/63/131 92/92/132 
f 85/85/133 67/67/134 93/93/135 
f 86/86/136 71/71/137 94/94/138 
f 87/87/139 76/76/140 95/95/141 
f 88/88/142 80/80/143 96/96/144 
f 67/67/145 68/68/146 93/93/147 
f 86/86/148 72/72/149 71/71/150 
f 66/66/151 85/85/152 93/93/153 
f 86/86/154 94/94/155 70/70/156 
f 58/58/157 83/83/158 91/91/159 
f 84/84/160 92/92/161 62/62/162 
f 59/59/163 60/60/164 91/91/165 
f 84/84/166 64/64/167 63/63/168 
f 81/81/169 51/51/170 52/52/171 
f 56/56/172 55/55/173 90/90/174 
f 87/87/175 75/75/176 76/76/177 
f 80/80/178 79/79/179 96/96/180 
f 49/49/181 50/50/182 81/81/183 
f 53/53/184 82/82/185 90/90/186 
f 73/73/187 74/74/188 87/87/189 
f 77/77/190 88/88/191 96/96/192 
f 97/97/193 129/129/194 137/137/195 
f 101/101/196 138/138/197 102/102/198 
f 105/105/199 106/106/200 139/139/201 
f 109/109/202 132/132/203 110/110/204 
f 113/113/205 114/114/206 141/141/207 
f 117/117/208 134/134/209 118/118/210 
f 121/121/211 135/135/212 143/143/213 
f 125/125/214 144/144/215 126/126/216 
f 129/129/217 100/100/218 137/137/219 
f 130/130/220 104/104/221 138/138/222 
f 131/131/223 107/107/224 139/139/225 
f 132/132/226 111/111/227 140/140/228 
f 133/133/229 115/115/230 141/141/231 
f 134/134/232 119/119/233 142/142/234 
f 135/135/235 124/124/236 143/143/237 
f 136/136/238 128/128/239 144/144/240 
f 115/115/241 116/116/242 141/141/243 
f 134/134/244 120/120/245 119/119/246 
f 114/114/247 133/133/248 141/141/249 
f 134/134/250 142/142/251 118/118/252 
f 106/106/253 131/131/254 139/139/255 
f 132/132/256 140/140/257 110/110/258 
f 107/107/259 108/108/260 139/139/261 
f 132/132/262 112/112/263 111/111/264 
f 129/129/265 99/99/266 100/100/267 
f 104/104/268 103/103/269 138/138/270 
f 135/135/271 123/123/272 124/124/273 
f 128/128/274 127/127/275 144/144/276 
f 97/97/277 98/98/278 129/129/279 
f 101/101/280 130/130/281 138/138/282 
f 121/121/283 122/122/284 135/135/285 
f 125/125/286 136/136/287 144/144/288 
f 145/145/289 177/177/290 185/185/291 
f 149/149/292 186/186/293 150/150/294 
f 153/153/295 154/154/296 187/187/297 
f 157/157/298 180/180/299 158/158/300 
f 161/161/301 162/162/302 189/189/303 
f 165/165/304 182/182/305 166/166/306 
f 169/169/307 183/183/308 191/191/309 
f 173/173/310 192/192/311 174/174/312 
f 177/177/313 148/148/314 185/185/315 
f 178/178/316 152/152/317 186/186/318 
f 179/179/319 155/155/320 187/187/321 
f 180/180/322 159/159/323 188/188/324 
f 181/181/325 163/163/326 189/189/327 
f 182/182/328 167/167/329 190/190/330 
f 183/183/331 172/172/332 191/191/333 
f 184/184/334 176/176/335 192/192/336 
f 163/163/337 164/164/338 189/189/339 
f 182/182/340 168/168/341 167/167/342 
f 162/162/343 181/181/344 189/189/345 
f 182/182/346 190/190/347 166/166/348 
f 154/154/349 179/179/350 187/187/351 
f 180/180/352 188/188/353 158/158/354 
f 155/155/355 156/156/356 187/187/357 
f 180/180/358 160/160/359 159/159/360 
f 177/177/361 147/147/362 148/148/363 
f 152/152/364 151/151/365 186/186/366 
f 183/183/367 171/171/368 172/172/369 
f 176/176/370 175/175/371 192/192/372 
f 145/145/373 146/146/374 177/177/375 
f 149/149/376 178/178/377 186/186/378 
f 169/169/379 170/170/380 183/183/381 
f 173/173/382 184/184/383 192/192/384 
f 194/194/385 203/203/386 204/204/387 
f 204/204/388 193/193/389 194/194/390 
f 195/195/391 197/197/392 196/196/393 
f 206/206/394 205/205/395 199/199/396 
f 199/199/397 198/198/398 206/206/399 
f 200/200/400 201/201/401 202/202/402 
f 195/195/403 196/196/404 204/204/405 
f 204/204/406 203/203/407 195/195/408 
f 201/201/409 200/200/410 205/205/411 
f 205/205/412 206/206/413 201/201/414 
f 208/208/415 217/217/416 218/218/417 
f 218/218/418 207/207/419 208/208/420 
f 209/209/421 211/211/422 210/210/423 
f 220/220/424 219/219/425 213/213/426 
f 213/213/427 212/212/428 220/220/429 
f 214/214/430 215/215/431 216/216/432 
f 209/209/433 210/210/434 218/218/435 
f 218/218/436 217/217/437 209/209/438 
f 215/215/439 214/214/440 219/219/441 
f 219/219/442 220/220/443 215/215/444 
f 222/222/445 231/231/446 232/232/447 
f 232/232/448 221/221/449 222/222/450 
f 223/223/451 225/225/452 224/224/453 
f 234/234/454 233/233/455 227/227/456 
f 227/227/457 226/226/458 234/234/459 
f 228/228/460 229/229/461 230/230/462 
f 223/223/463 224/224/464 232/232/465 
f 232/232/466 231/231/467 223/223/468 
f 229/229/469 228/228/470 233/233/471 
f 233/233/472 234/234/473 229/229/474 
f 236/236/475 245/245/476 246/246/477 
f 246/246/478 235/235/479 236/236/480 
f 237/237/481 239/239/482 238/238/483 
f 248/248/484 247/247/485 241/241/486 
f 241/241/487 240/240/488 248/248/489 
f 242/242/490 243/243/491 244/244/492 
f 237/237/493 238/238/494 246/246/495 
f 246/246/496 245/245/497 237/237/498 
f 243/243/499 242/242/500 247/247/501 
f 247/247/502 248/248/503 243/243/504 
f 250/250/505 259/259/506 260/260/507 
f 260/260/508 249/249/509 250/250/510 
f 251/251/511 253/253/512 252/252/513 
f 262/262/514 261/261/515 255/255/516 
f 255/255/517 254/254/518 262/262/519 
f 256/256/520 257/257/521 258/258/522 
f 251/251/523 252/252/524 260/260/525 
f 260/260/526 259/259/527 251/251/528 
f 257/257/529 256/256/530 261/261/531 
f 261/261/532 262/262/533 257/257/534 
f 264/264/535 273/273/536 274/274/537 
f 274/274/538 263/263/539 264/264/540 
f 265/265/541 267/267/542 266/266/543 
f 276/276/544 275/275/545 269/269/546 
f 269/269/547 268/268/548 276/276/549 
f 270/270/550 271/271/551 272/272/552 
f 265/265/553 266/266/554 274/274/555 
f 274/274/556 273/273/557 265/265/558 
f 271/271/559 270/270/560 275/275/561 
f 275/275/562 276/276/563 271/271/564 
f 278/278/565 287/287/566 288/288/567 
f 288/288/568 277/277/569 278/278/570 
f 279/279/571 281/281/572 280/280/573 
f 290/290/574 289/289/575 283/283/576 
f 283/283/577 282/282/578 290/290/579 
f 284/284/580 285/285/581 286/286/582 
f 279/279/583 280/280/584 288/288/585 
f 288/288/586 287/287/587 279/279/588 
f 285/285/589 284/284/590 289/289/591 
f 289/289/592 290/290/593 285/285/594 
f 292/292/595 301/301/596 302/302/597 
f 302/302/598 291/291/599 292/292/600 
f 293/293/601 295/295/602 294/294/603 
f 304/304/604 303/303/605 297/297/606 
f 297/297/607 296/296/608 304/304/609 
f 298/298/610 299/299/611 300/300/612 
f 293/293/613 294/294/614 302/302/615 
f 302/302/616 301/301/617 293/293/618 
f 299/299/619 298/298/620 303/303/621 
f 303/303/622 304/304/623 299/299/624 
# 208 faces

