# 3ds Max Wavefront OBJ Exporter v0.99 - (c)2007 guruware
# File Created: 19.11.2024 10:17:16

#
# object ItemGorse
#

v  -1.3437 1.7691 -3.7874
v  -0.2826 2.7701 -3.6786
v  0.7785 1.7691 -3.7874
v  -0.2826 2.4015 -1.7303
v  -0.2826 1.9667 -5.5168
v  -0.2826 0.7681 -3.6786
v  0.5232 1.6384 -1.7531
v  -0.2826 0.8956 -1.9141
v  -1.0884 1.6384 -1.7531
v  -0.2826 1.3091 -0.9204
v  0.3665 1.4840 -1.3458
v  -0.2826 1.3494 -0.8809
v  -0.9317 1.4840 -1.3458
v  0.6770 2.6927 -2.1076
v  -0.2826 3.1299 -1.6946
v  -1.2422 2.6927 -2.1076
v  -0.2826 4.1693 -3.7560
v  0.4441 3.5690 -3.0476
v  -0.2826 3.7876 -2.8411
v  -1.0093 3.5690 -3.0476
v  0.6770 2.7075 -2.0899
v  -0.2826 1.3642 -0.8633
v  -0.2826 3.1447 -1.6770
v  -1.2422 2.7075 -2.0899
v  0.4441 3.5838 -3.0300
v  -0.2826 4.1841 -3.7384
v  -0.2826 3.8024 -2.8235
v  -1.0093 3.5838 -3.0300
v  0.3665 1.4988 -1.3282
v  -0.9317 1.4988 -1.3282
v  -1.0986 1.4874 -1.3635
v  -0.2826 1.2696 -0.8928
v  0.5334 1.4874 -1.3635
v  -1.4889 0.8941 -2.6572
v  -0.2826 0.1653 -2.5332
v  0.9237 0.8941 -2.6572
v  -0.2826 0.7054 -4.8547
v  -1.1961 0.7535 -3.9285
v  -0.2826 0.3891 -3.8665
v  0.6310 0.7535 -3.9285
v  -1.4889 0.8667 -2.6499
v  -0.2826 1.2422 -0.8854
v  -0.2826 0.1379 -2.5259
v  0.9237 0.8667 -2.6499
v  -1.1961 0.7261 -3.9211
v  -0.2826 0.6780 -4.8474
v  -0.2826 0.3617 -3.8592
v  0.6310 0.7261 -3.9211
v  -1.0986 1.4601 -1.3562
v  0.5334 1.4601 -1.3562
v  0.6664 2.8331 0.8120
v  1.1999 2.5480 -0.5199
v  -0.0917 2.7711 -1.1692
v  0.6124 0.6754 -0.2364
v  0.6889 4.4832 -0.3849
v  -0.6528 2.8411 0.1799
v  -0.3787 0.7863 -0.7238
v  -0.7579 1.0777 0.2753
v  0.1969 0.8333 0.7807
v  -0.5009 0.0346 0.2097
v  -0.5172 0.4106 -0.4912
v  -0.4686 -0.0104 0.1987
v  -0.0534 0.4486 0.7208
v  0.5868 0.9778 -1.2640
v  1.2820 0.5336 -0.4882
v  1.2724 1.0339 0.5277
v  2.5045 2.4197 -1.0151
v  1.5998 1.7859 -1.4275
v  2.0356 1.5709 -0.8091
v  2.1190 1.8283 -0.0706
v  0.5983 0.9583 -1.2677
v  -0.4572 -0.0300 0.1949
v  1.2934 0.5140 -0.4920
v  1.2839 1.0143 0.5239
v  1.6113 1.7663 -1.4312
v  2.5160 2.4001 -1.0188
v  2.0471 1.5514 -0.8128
v  2.1305 1.8087 -0.0744
v  -0.5057 0.3910 -0.4950
v  -0.0420 0.4290 0.7170
v  0.0116 0.4705 0.8739
v  -0.5410 0.0130 0.2256
v  -0.5714 0.4228 -0.6496
v  -0.2344 1.8480 1.3431
v  -1.3554 1.7968 0.4815
v  -1.0963 1.7775 -0.9093
v  -0.5621 4.0132 0.1085
v  -0.3083 3.1170 1.0180
v  -0.9797 3.0824 0.2975
v  -0.9610 3.0636 -0.6877
v  -0.2607 1.8447 1.3532
v  -0.5672 0.0098 0.2358
v  -1.3817 1.7936 0.4916
v  -1.1225 1.7742 -0.8991
v  -0.3346 3.1138 1.0282
v  -0.5883 4.0100 0.1187
v  -1.0060 3.0791 0.3076
v  -0.9873 3.0604 -0.6775
v  -0.0146 0.4672 0.8841
v  -0.5976 0.4196 -0.6395
v  -3.9804 1.5449 -1.5409
v  -3.1531 2.4137 -2.3779
v  -2.4797 1.2843 -3.0187
v  -1.7755 2.2899 -0.9571
v  -4.4530 1.3968 -3.5185
v  -3.1531 0.4421 -2.0302
v  -1.2219 1.4367 -1.4017
v  -1.9054 0.7844 -0.8236
v  -2.3614 1.6345 -0.2794
v  -1.2028 1.3136 -0.2035
v  -1.0446 1.3539 -0.9821
v  -1.1749 1.3581 -0.1830
v  -1.9626 1.5133 -0.0781
v  -1.3637 2.4126 -1.9387
v  -1.7503 3.0116 -1.0588
v  -2.7208 2.6482 -0.6022
v  -3.2079 3.7821 -2.6748
v  -2.1931 3.1887 -2.5833
v  -2.5610 3.5186 -1.9714
v  -3.2208 3.3672 -1.5712
v  -1.3513 2.4293 -1.9290
v  -1.1624 1.3749 -0.1733
v  -1.7378 3.0283 -1.0491
v  -2.7083 2.6649 -0.5925
v  -2.1806 3.2054 -2.5736
v  -3.1954 3.7988 -2.6651
v  -2.5485 3.5353 -1.9617
v  -3.2084 3.3839 -1.5615
v  -1.0321 1.3706 -0.9724
v  -1.9501 1.5300 -0.0683
v  -2.0931 1.5350 0.0252
v  -1.1833 1.2781 -0.1774
v  -0.9391 1.3346 -1.1113
v  -3.2839 0.8397 -0.5008
v  -2.3433 -0.0109 -1.1280
v  -1.5779 0.5435 -2.1809
v  -3.9848 0.2359 -2.8384
v  -3.9758 0.5092 -1.5656
v  -3.2860 0.0458 -2.0953
v  -2.6839 0.2849 -2.8379
v  -3.2787 0.8137 -0.4910
v  -1.1781 1.2520 -0.1675
v  -2.3381 -0.0369 -1.1181
v  -1.5727 0.5174 -2.1710
v  -3.9706 0.4832 -1.5557
v  -3.9796 0.2099 -2.8285
v  -3.2808 0.0198 -2.0854
v  -2.6787 0.2588 -2.8280
v  -2.0880 1.5089 0.0351
v  -0.9340 1.3085 -1.1014
v  -3.4888 1.5907 2.3100
v  -2.5858 2.4787 3.0420
v  -3.0735 3.6715 2.3499
v  -1.3172 2.2543 1.5346
v  -4.4864 2.8480 3.5670
v  -3.8097 2.7529 1.4816
v  -1.6436 3.1521 0.9693
v  -2.3787 2.4865 0.4760
v  -1.9590 1.5720 0.9390
v  -1.3641 2.2896 0.1760
v  -1.4563 2.9621 0.5909
v  -1.3091 2.2786 0.1827
v  -1.7104 1.6893 0.5665
v  -1.2407 3.2085 2.0159
v  -0.8446 2.1495 2.0800
v  -1.6163 1.3268 1.9799
v  -1.7897 2.2980 4.1810
v  -1.4713 2.9928 3.2832
v  -1.3216 2.2212 3.3106
v  -1.7557 1.5677 3.2559
v  -1.2181 3.2040 2.0163
v  -1.2866 2.2740 0.1832
v  -0.8220 2.1450 2.0805
v  -1.5937 1.3223 1.9803
v  -1.4487 2.9883 3.2837
v  -1.7672 2.2935 4.1815
v  -1.2990 2.2167 3.3111
v  -1.7332 1.5632 3.2564
v  -1.4337 2.9576 0.5914
v  -1.6878 1.6848 0.5670
v  -1.7545 1.5277 0.5772
v  -1.3670 2.2912 0.1279
v  -1.4351 3.1278 0.6078
v  -3.1856 1.4088 0.9176
v  -3.3000 2.6738 0.2945
v  -2.7134 3.7743 0.9628
v  -4.7499 2.9274 2.1693
v  -4.1890 1.8944 1.6096
v  -4.1855 2.8313 1.3039
v  -3.8314 3.6858 1.6439
v  -3.1967 1.4115 0.8916
v  -1.3781 2.2939 0.1020
v  -3.3111 2.6765 0.2686
v  -2.7245 3.7770 0.9369
v  -4.2001 1.8971 1.5837
v  -4.7610 2.9301 2.1433
v  -4.1966 2.8340 1.2780
v  -3.8425 3.6886 1.6179
v  -1.7656 1.5304 0.5513
v  -1.4462 3.1305 0.5819
v  -3.7309 -0.6038 1.5601
v  -3.3420 0.3994 2.5510
v  -3.9111 1.4999 1.7733
v  -1.6856 0.6489 1.4899
v  -5.3404 0.2346 2.4889
v  -4.0995 0.5220 0.7019
v  -2.0638 1.4917 0.8746
v  -2.4247 0.7197 0.1671
v  -1.9270 -0.1058 0.7126
v  -1.3524 0.8101 0.1814
v  -1.7334 1.3933 0.5655
v  -1.3007 0.8122 0.2041
v  -1.6232 0.1064 0.4351
v  -2.0047 1.5383 1.9949
v  -1.3772 0.6084 2.1496
v  -1.8417 -0.3641 1.8020
v  -2.8840 0.3047 3.8720
v  -2.5198 1.1444 3.1286
v  -2.1851 0.4346 3.1811
v  -2.3964 -0.2964 2.9825
v  -1.9828 1.5395 2.0020
v  -1.2789 0.8133 0.2112
v  -1.3553 0.6095 2.1567
v  -1.8199 -0.3630 1.8092
v  -2.4980 1.1455 3.1357
v  -2.8622 0.3059 3.8791
v  -2.1633 0.4358 3.1882
v  -2.3746 -0.2953 2.9896
v  -1.7116 1.3944 0.5727
v  -1.6014 0.1075 0.4422
v  -1.6241 -0.0614 0.4280
v  -1.3418 0.8157 0.1348
v  -1.7626 1.5564 0.5921
v  -3.0079 -0.5626 0.3193
v  -3.2718 0.6923 -0.2785
v  -3.2128 1.8291 0.5617
v  -5.2073 0.3889 1.0790
v  -4.2578 -0.4118 0.6890
v  -4.4161 0.5234 0.4213
v  -4.4129 1.3994 0.8727
v  -3.0115 -0.5601 0.2913
v  -1.3454 0.8182 0.1068
v  -3.2754 0.6948 -0.3065
v  -3.2163 1.8316 0.5337
v  -4.2614 -0.4093 0.6610
v  -5.2109 0.3914 1.0510
v  -4.4197 0.5259 0.3934
v  -4.4165 1.4020 0.8447
v  -1.6277 -0.0588 0.4000
v  -1.7662 1.5590 0.5641
v  1.7917 0.7088 0.7209
v  1.3854 0.9295 2.1088
v  1.7917 2.3345 2.0851
v  3.2570 0.5085 2.6105
v  0.1951 1.9675 0.8717
v  2.3864 2.0439 0.7806
v  3.6188 1.5579 2.6134
v  3.8508 1.4058 1.5411
v  3.6188 0.3234 1.5775
v  4.5046 0.8563 2.1960
v  4.0488 1.3929 2.5663
v  4.5186 0.8211 2.2378
v  4.0488 0.3984 1.7318
v  2.7847 1.2027 3.2760
v  2.9237 0.0916 3.1073
v  2.7847 -0.2674 2.0423
v  0.6188 0.1755 3.0073
v  1.5324 0.8386 3.3476
v  1.6019 0.0939 3.1045
v  1.5324 -0.2748 2.4133
v  2.7925 1.1888 3.2925
v  4.5265 0.8073 2.2544
v  2.9315 0.0777 3.1239
v  2.7925 -0.2813 2.0589
v  1.5403 0.8247 3.3641
v  0.6266 0.1616 3.0239
v  1.6098 0.0800 3.1211
v  1.5403 -0.2886 2.4299
v  4.0566 1.3790 2.5828
v  4.0566 0.3845 1.7484
v  4.0317 0.2743 1.6200
v  4.5483 0.8694 2.1804
v  4.0317 1.5245 2.6691
v  3.2080 0.7214 0.4800
v  3.6797 2.0114 0.8194
v  3.2080 2.5696 2.0308
v  1.3992 2.4568 0.2885
v  2.1773 1.4325 0.0880
v  2.4132 2.3153 0.4572
v  2.1773 2.8322 1.2624
v  3.2280 0.7343 0.4646
v  4.5683 0.8823 2.1650
v  3.6998 2.0242 0.8040
v  3.2280 2.5825 2.0154
v  2.1973 1.4454 0.0726
v  1.4192 2.4697 0.2731
v  2.4332 2.3282 0.4419
v  2.1973 2.8451 1.2471
v  4.0517 0.2872 1.6047
v  4.0517 1.5374 2.6537
v  3.4888 1.5907 -2.2464
v  2.5857 2.4787 -2.9784
v  3.0735 3.6715 -2.2862
v  1.3172 2.2543 -1.4709
v  4.4864 2.8480 -3.5033
v  3.8097 2.7529 -1.4180
v  1.6436 3.1521 -0.9056
v  2.3787 2.4865 -0.4124
v  1.9590 1.5720 -0.8754
v  1.3641 2.2896 -0.1123
v  1.4563 2.9621 -0.5272
v  1.3091 2.2786 -0.1190
v  1.7104 1.6893 -0.5029
v  1.2407 3.2085 -1.9522
v  0.8446 2.1495 -2.0164
v  1.6163 1.3268 -1.9162
v  1.7897 2.2980 -4.1174
v  1.4713 2.9928 -3.2195
v  1.3216 2.2212 -3.2470
v  1.7557 1.5677 -3.1922
v  1.2181 3.2040 -1.9527
v  1.2866 2.2740 -0.1195
v  0.8220 2.1450 -2.0168
v  1.5937 1.3223 -1.9167
v  1.4487 2.9883 -3.2200
v  1.7672 2.2935 -4.1179
v  1.2990 2.2167 -3.2474
v  1.7332 1.5632 -3.1927
v  1.4337 2.9576 -0.5277
v  1.6878 1.6848 -0.5033
v  1.7545 1.5277 -0.5135
v  1.3670 2.2912 -0.0643
v  1.4351 3.1278 -0.5441
v  3.1856 1.4088 -0.8539
v  3.3000 2.6738 -0.2309
v  2.7134 3.7743 -0.8992
v  4.7499 2.9274 -2.1056
v  4.1890 1.8944 -1.5459
v  4.1855 2.8313 -1.2402
v  3.8314 3.6858 -1.5802
v  3.1967 1.4115 -0.8280
v  1.3781 2.2939 -0.0383
v  3.3111 2.6765 -0.2049
v  2.7245 3.7770 -0.8732
v  4.2001 1.8971 -1.5200
v  4.7610 2.9301 -2.0797
v  4.1966 2.8340 -1.2143
v  3.8425 3.6886 -1.5543
v  1.7656 1.5304 -0.4876
v  1.4462 3.1305 -0.5182
v  3.7309 -0.6038 -1.4964
v  3.3420 0.3994 -2.4874
v  3.9111 1.4999 -1.7097
v  1.6856 0.6489 -1.4263
v  5.3404 0.2346 -2.4252
v  4.0995 0.5220 -0.6382
v  2.0638 1.4917 -0.8109
v  2.4247 0.7197 -0.1034
v  1.9270 -0.1058 -0.6489
v  1.3524 0.8101 -0.1178
v  1.7334 1.3933 -0.5019
v  1.3007 0.8122 -0.1404
v  1.6232 0.1064 -0.3714
v  2.0047 1.5383 -1.9312
v  1.3772 0.6084 -2.0859
v  1.8417 -0.3641 -1.7384
v  2.8840 0.3047 -3.8083
v  2.5198 1.1444 -3.0649
v  2.1851 0.4346 -3.1174
v  2.3964 -0.2964 -2.9188
v  1.9828 1.5395 -1.9384
v  1.2789 0.8133 -0.1475
v  1.3553 0.6095 -2.0930
v  1.8199 -0.3630 -1.7455
v  2.4980 1.1455 -3.0720
v  2.8622 0.3059 -3.8155
v  2.1633 0.4358 -3.1245
v  2.3746 -0.2953 -2.9260
v  1.7116 1.3944 -0.5090
v  1.6014 0.1075 -0.3785
v  1.6241 -0.0614 -0.3644
v  1.3418 0.8157 -0.0711
v  1.7626 1.5564 -0.5284
v  3.0079 -0.5626 -0.2556
v  3.2718 0.6923 0.3422
v  3.2128 1.8291 -0.4981
v  5.2073 0.3889 -1.0153
v  4.2578 -0.4118 -0.6253
v  4.4161 0.5234 -0.3577
v  4.4129 1.3994 -0.8090
v  3.0115 -0.5601 -0.2276
v  1.3454 0.8182 -0.0431
v  3.2754 0.6948 0.3702
v  3.2163 1.8316 -0.4701
v  4.2614 -0.4093 -0.5974
v  5.2109 0.3914 -0.9873
v  4.4197 0.5259 -0.3297
v  4.4165 1.4020 -0.7810
v  1.6277 -0.0588 -0.3364
v  1.7662 1.5590 -0.5004
v  -0.7127 0.0357 3.8089
v  0.2405 1.0968 4.1334
v  -0.7127 2.1580 3.8089
v  0.7298 1.0968 2.2118
v  -1.2645 1.0968 5.4599
v  -1.5739 1.0968 3.2873
v  0.0286 1.9026 1.9100
v  -0.7126 1.0968 1.7420
v  0.0286 0.2911 1.9100
v  0.0820 1.0968 1.0161
v  0.0608 1.7459 1.4756
v  0.1353 1.0968 0.9974
v  0.0608 0.4477 1.4756
v  0.8343 2.0564 2.6768
v  1.4050 1.0968 2.4874
v  0.8343 0.1373 2.6768
v  1.4759 1.0968 4.7949
v  1.2312 1.8236 3.8991
v  1.5166 1.0968 3.8044
v  1.2312 0.3701 3.8991
v  0.8552 2.0564 2.6671
v  0.1561 1.0968 0.9877
v  1.4259 1.0968 2.4776
v  0.8552 0.1373 2.6671
v  1.2521 1.8236 3.8894
v  1.4967 1.0968 4.7851
v  1.5374 1.0968 3.7947
v  1.2521 0.3701 3.8894
v  0.0816 1.7459 1.4659
v  0.0816 0.4477 1.4659
v  0.0564 0.2808 1.4931
v  0.0580 1.0968 0.9744
v  0.0564 1.9128 1.4931
v  -1.0281 -0.1095 2.4148
v  -1.6362 1.0968 1.9945
v  -1.0281 2.3032 2.4148
v  -2.1278 1.0968 4.3267
v  -1.6928 0.1833 3.5076
v  -1.9968 1.0968 3.2974
v  -1.6928 2.0104 3.5076
v  -1.0498 -0.1095 2.3966
v  0.0362 1.0968 0.9562
v  -1.6579 1.0968 1.9763
v  -1.0498 2.3032 2.3966
v  -1.7145 0.1833 3.4894
v  -2.1495 1.0968 4.3085
v  -2.0185 1.0968 3.2792
v  -1.7145 2.0104 3.4894
v  0.0347 0.2808 1.4749
v  0.0347 1.9128 1.4749
# 450 vertices

vn -0.0000 0.9958 0.0915
vn -0.9803 0.1974 -0.0018
vn -0.0005 0.0891 0.9960
vn -0.0000 0.9958 0.0915
vn -0.0005 0.0891 0.9960
vn 0.9806 0.1959 -0.0039
vn -0.0007 -0.4718 0.8817
vn -0.0005 0.0891 0.9960
vn -0.9803 0.1974 -0.0018
vn -0.9803 0.1974 -0.0018
vn -0.9198 -0.3924 -0.0077
vn -0.0007 -0.4718 0.8817
vn 0.9207 -0.3901 -0.0107
vn 0.9806 0.1959 -0.0039
vn -0.0005 0.0891 0.9960
vn -0.0005 0.0891 0.9960
vn -0.0007 -0.4718 0.8817
vn 0.9207 -0.3901 -0.0107
vn -0.0000 -0.9567 -0.2910
vn -0.0007 -0.4718 0.8817
vn -0.9198 -0.3924 -0.0077
vn -0.0000 -0.9567 -0.2910
vn 0.9207 -0.3901 -0.0107
vn -0.0007 -0.4718 0.8817
vn -0.0000 0.9958 0.0915
vn 0.9806 0.1959 -0.0039
vn 0.0022 0.2123 -0.9772
vn -0.0000 0.9958 0.0915
vn 0.0022 0.2123 -0.9772
vn -0.9803 0.1974 -0.0018
vn 0.0032 -0.2003 -0.9797
vn 0.0022 0.2123 -0.9772
vn 0.9806 0.1959 -0.0039
vn 0.9806 0.1959 -0.0039
vn 0.9207 -0.3901 -0.0107
vn 0.0032 -0.2003 -0.9797
vn -0.9198 -0.3924 -0.0077
vn -0.9803 0.1974 -0.0018
vn 0.0022 0.2123 -0.9772
vn 0.0022 0.2123 -0.9772
vn 0.0032 -0.2003 -0.9797
vn -0.9198 -0.3924 -0.0077
vn -0.0000 -0.9567 -0.2910
vn 0.0032 -0.2003 -0.9797
vn 0.9207 -0.3901 -0.0107
vn -0.0000 -0.9567 -0.2910
vn -0.9198 -0.3924 -0.0077
vn 0.0032 -0.2003 -0.9797
vn -0.5255 0.6662 -0.5292
vn -0.4951 0.7880 -0.3660
vn -0.5029 0.6538 -0.5653
vn 0.5029 0.6538 -0.5653
vn 0.4951 0.7880 -0.3660
vn 0.5255 0.6662 -0.5292
vn -0.5255 0.6662 -0.5292
vn -0.5029 0.6538 -0.5653
vn -0.4159 0.4402 -0.7958
vn 0.3609 0.3591 -0.8607
vn 0.3681 0.4148 -0.8321
vn 0.4159 0.4402 -0.7958
vn -0.5255 0.6662 -0.5292
vn -0.4882 0.7894 -0.3721
vn -0.4951 0.7880 -0.3660
vn 0.4951 0.7880 -0.3660
vn 0.4882 0.7894 -0.3721
vn 0.5255 0.6662 -0.5292
vn -0.3681 0.4148 -0.8321
vn -0.3609 0.3591 -0.8607
vn -0.4159 0.4402 -0.7958
vn 0.3681 0.4148 -0.8321
vn 0.5029 0.6538 -0.5653
vn 0.4159 0.4402 -0.7958
vn -0.5029 0.6538 -0.5653
vn -0.3681 0.4148 -0.8321
vn -0.4159 0.4402 -0.7958
vn 0.5029 0.6538 -0.5653
vn 0.5255 0.6662 -0.5292
vn 0.4159 0.4402 -0.7958
vn 0.5255 -0.6662 0.5292
vn 0.5029 -0.6538 0.5653
vn 0.4951 -0.7880 0.3660
vn -0.5029 -0.6538 0.5653
vn -0.5255 -0.6662 0.5292
vn -0.4951 -0.7880 0.3660
vn 0.5255 -0.6662 0.5292
vn 0.4159 -0.4402 0.7958
vn 0.5029 -0.6538 0.5653
vn -0.3609 -0.3591 0.8607
vn -0.4159 -0.4402 0.7958
vn -0.3681 -0.4148 0.8321
vn 0.5255 -0.6662 0.5292
vn 0.4951 -0.7880 0.3660
vn 0.4882 -0.7894 0.3721
vn -0.4951 -0.7880 0.3660
vn -0.5255 -0.6662 0.5292
vn -0.4882 -0.7894 0.3721
vn 0.3681 -0.4148 0.8321
vn 0.4159 -0.4402 0.7958
vn 0.3609 -0.3591 0.8607
vn -0.3681 -0.4148 0.8321
vn -0.4159 -0.4402 0.7958
vn -0.5029 -0.6538 0.5653
vn 0.5029 -0.6538 0.5653
vn 0.4159 -0.4402 0.7958
vn 0.3681 -0.4148 0.8321
vn -0.5029 -0.6538 0.5653
vn -0.4159 -0.4402 0.7958
vn -0.5255 -0.6662 0.5292
vn 0.5176 0.2455 0.8196
vn 0.4815 0.4846 0.7303
vn 0.4914 0.2090 0.8455
vn -0.4914 0.2090 0.8455
vn -0.4815 0.4846 0.7303
vn -0.5176 0.2455 0.8196
vn 0.5176 0.2455 0.8196
vn 0.4914 0.2090 0.8455
vn 0.4083 -0.1562 0.8994
vn -0.3381 -0.2868 0.8963
vn -0.3492 -0.2149 0.9121
vn -0.4083 -0.1562 0.8994
vn 0.5176 0.2455 0.8196
vn 0.4744 0.4812 0.7372
vn 0.4815 0.4846 0.7303
vn -0.4815 0.4846 0.7303
vn -0.4744 0.4812 0.7372
vn -0.5176 0.2455 0.8196
vn 0.3492 -0.2149 0.9121
vn 0.3381 -0.2868 0.8963
vn 0.4083 -0.1562 0.8994
vn -0.3492 -0.2149 0.9121
vn -0.4914 0.2090 0.8455
vn -0.4083 -0.1562 0.8994
vn 0.4914 0.2090 0.8455
vn 0.3492 -0.2149 0.9121
vn 0.4083 -0.1562 0.8994
vn -0.4914 0.2090 0.8455
vn -0.5176 0.2455 0.8196
vn -0.4083 -0.1562 0.8994
vn -0.5176 -0.2455 -0.8196
vn -0.4914 -0.2090 -0.8455
vn -0.4815 -0.4846 -0.7303
vn 0.4914 -0.2090 -0.8455
vn 0.5176 -0.2455 -0.8196
vn 0.4815 -0.4846 -0.7303
vn -0.5176 -0.2455 -0.8196
vn -0.4083 0.1562 -0.8994
vn -0.4914 -0.2090 -0.8455
vn 0.3381 0.2868 -0.8963
vn 0.4083 0.1562 -0.8994
vn 0.3492 0.2149 -0.9121
vn -0.5176 -0.2455 -0.8196
vn -0.4815 -0.4846 -0.7303
vn -0.4744 -0.4812 -0.7372
vn 0.4815 -0.4846 -0.7303
vn 0.5176 -0.2455 -0.8196
vn 0.4744 -0.4812 -0.7372
vn -0.3492 0.2149 -0.9121
vn -0.4083 0.1562 -0.8994
vn -0.3381 0.2868 -0.8963
vn 0.3492 0.2149 -0.9121
vn 0.4083 0.1562 -0.8994
vn 0.4914 -0.2090 -0.8455
vn -0.4914 -0.2090 -0.8455
vn -0.4083 0.1562 -0.8994
vn -0.3492 0.2149 -0.9121
vn 0.4914 -0.2090 -0.8455
vn 0.4083 0.1562 -0.8994
vn 0.5176 -0.2455 -0.8196
vn 0.2106 0.1110 0.9712
vn 0.3735 -0.9002 0.2242
vn 0.9332 0.3548 -0.0578
vn 0.2106 0.1110 0.9712
vn 0.9332 0.3548 -0.0578
vn -0.3291 0.9296 0.1656
vn 0.7566 0.2701 -0.5956
vn 0.9332 0.3548 -0.0578
vn 0.3735 -0.9002 0.2242
vn 0.3735 -0.9002 0.2242
vn 0.2718 -0.8925 -0.3600
vn 0.7566 0.2701 -0.5956
vn -0.3882 0.8248 -0.4111
vn -0.3291 0.9296 0.1656
vn 0.9332 0.3548 -0.0578
vn 0.9332 0.3548 -0.0578
vn 0.7566 0.2701 -0.5956
vn -0.3882 0.8248 -0.4111
vn -0.3903 -0.1776 -0.9034
vn 0.7566 0.2701 -0.5956
vn 0.2718 -0.8925 -0.3600
vn -0.3903 -0.1776 -0.9034
vn -0.3882 0.8248 -0.4111
vn 0.7566 0.2701 -0.5956
vn 0.2106 0.1110 0.9712
vn -0.3291 0.9296 0.1656
vn -0.8783 -0.3226 0.3529
vn 0.2106 0.1110 0.9712
vn -0.8783 -0.3226 0.3529
vn 0.3735 -0.9002 0.2242
vn -0.9331 -0.3553 -0.0547
vn -0.8783 -0.3226 0.3529
vn -0.3291 0.9296 0.1656
vn -0.3291 0.9296 0.1656
vn -0.3882 0.8248 -0.4111
vn -0.9331 -0.3553 -0.0547
vn 0.2718 -0.8925 -0.3600
vn 0.3735 -0.9002 0.2242
vn -0.8783 -0.3226 0.3529
vn -0.8783 -0.3226 0.3529
vn -0.9331 -0.3553 -0.0547
vn 0.2718 -0.8925 -0.3600
vn -0.3903 -0.1776 -0.9034
vn -0.9331 -0.3553 -0.0547
vn -0.3882 0.8248 -0.4111
vn -0.3903 -0.1776 -0.9034
vn 0.2718 -0.8925 -0.3600
vn -0.9331 -0.3553 -0.0547
vn -0.2177 -0.6226 0.7516
vn -0.0622 -0.5276 0.8472
vn -0.2608 -0.6152 0.7440
vn -0.6201 0.3238 0.7146
vn -0.4159 0.3968 0.8183
vn -0.5932 0.3584 0.7209
vn -0.2177 -0.6226 0.7516
vn -0.2608 -0.6152 0.7440
vn -0.5322 -0.6315 0.5639
vn -0.8800 0.0646 0.4705
vn -0.8491 0.0858 0.5212
vn -0.8293 0.1450 0.5396
vn -0.2177 -0.6226 0.7516
vn -0.0701 -0.5232 0.8493
vn -0.0622 -0.5276 0.8472
vn -0.4159 0.3968 0.8183
vn -0.4189 0.3884 0.8208
vn -0.5932 0.3584 0.7209
vn -0.5861 -0.6016 0.5427
vn -0.6222 -0.6093 0.4916
vn -0.5322 -0.6315 0.5639
vn -0.8491 0.0858 0.5212
vn -0.6201 0.3238 0.7146
vn -0.8293 0.1450 0.5396
vn -0.2608 -0.6152 0.7440
vn -0.5861 -0.6016 0.5427
vn -0.5322 -0.6315 0.5639
vn -0.6201 0.3238 0.7146
vn -0.5932 0.3584 0.7209
vn -0.8293 0.1450 0.5396
vn 0.2177 0.6226 -0.7516
vn 0.2608 0.6152 -0.7440
vn 0.0622 0.5276 -0.8472
vn 0.6201 -0.3238 -0.7146
vn 0.5932 -0.3584 -0.7209
vn 0.4159 -0.3968 -0.8183
vn 0.2177 0.6226 -0.7516
vn 0.5322 0.6315 -0.5639
vn 0.2608 0.6152 -0.7440
vn 0.8800 -0.0646 -0.4705
vn 0.8293 -0.1450 -0.5396
vn 0.8491 -0.0858 -0.5212
vn 0.2177 0.6226 -0.7516
vn 0.0622 0.5276 -0.8472
vn 0.0701 0.5232 -0.8493
vn 0.4159 -0.3968 -0.8183
vn 0.5932 -0.3584 -0.7209
vn 0.4189 -0.3884 -0.8208
vn 0.5861 0.6016 -0.5427
vn 0.5322 0.6315 -0.5639
vn 0.6222 0.6093 -0.4916
vn 0.8491 -0.0858 -0.5212
vn 0.8293 -0.1450 -0.5396
vn 0.6201 -0.3238 -0.7146
vn 0.2608 0.6152 -0.7440
vn 0.5322 0.6315 -0.5639
vn 0.5861 0.6016 -0.5427
vn 0.6201 -0.3238 -0.7146
vn 0.8293 -0.1450 -0.5396
vn 0.5932 -0.3584 -0.7209
vn 0.6046 0.7892 0.1076
vn 0.5651 0.7432 0.3582
vn 0.6333 0.7708 0.0685
vn 0.9844 -0.1466 0.0972
vn 0.9091 -0.1558 0.3863
vn 0.9745 -0.1773 0.1379
vn 0.6046 0.7892 0.1076
vn 0.6333 0.7708 0.0685
vn 0.6667 0.6831 -0.2981
vn 0.9140 -0.0251 -0.4050
vn 0.9416 -0.0243 -0.3358
vn 0.9584 -0.0792 -0.2742
vn 0.6046 0.7892 0.1076
vn 0.5736 0.7387 0.3540
vn 0.5651 0.7432 0.3582
vn 0.9091 -0.1558 0.3863
vn 0.9125 -0.1470 0.3818
vn 0.9745 -0.1773 0.1379
vn 0.6921 0.6278 -0.3562
vn 0.6725 0.6061 -0.4247
vn 0.6667 0.6831 -0.2981
vn 0.9416 -0.0243 -0.3358
vn 0.9844 -0.1466 0.0972
vn 0.9584 -0.0792 -0.2742
vn 0.6333 0.7708 0.0685
vn 0.6921 0.6278 -0.3562
vn 0.6667 0.6831 -0.2981
vn 0.9844 -0.1466 0.0972
vn 0.9745 -0.1773 0.1379
vn 0.9584 -0.0792 -0.2742
vn -0.6046 -0.7892 -0.1076
vn -0.6333 -0.7708 -0.0685
vn -0.5651 -0.7432 -0.3582
vn -0.9844 0.1466 -0.0972
vn -0.9745 0.1773 -0.1379
vn -0.9091 0.1558 -0.3863
vn -0.6046 -0.7892 -0.1076
vn -0.6667 -0.6831 0.2981
vn -0.6333 -0.7708 -0.0685
vn -0.9140 0.0251 0.4050
vn -0.9584 0.0792 0.2742
vn -0.9416 0.0243 0.3358
vn -0.6046 -0.7892 -0.1076
vn -0.5651 -0.7432 -0.3582
vn -0.5736 -0.7387 -0.3540
vn -0.9091 0.1558 -0.3863
vn -0.9745 0.1773 -0.1379
vn -0.9125 0.1470 -0.3818
vn -0.6921 -0.6278 0.3562
vn -0.6667 -0.6831 0.2981
vn -0.6725 -0.6061 0.4247
vn -0.9416 0.0243 0.3358
vn -0.9584 0.0792 0.2742
vn -0.9844 0.1466 -0.0972
vn -0.6333 -0.7708 -0.0685
vn -0.6667 -0.6831 0.2981
vn -0.6921 -0.6278 0.3562
vn -0.9844 0.1466 -0.0972
vn -0.9584 0.0792 0.2742
vn -0.9745 0.1773 -0.1379
vn -0.7041 0.7093 -0.0321
vn -0.8328 -0.5455 0.0943
vn -0.0633 0.2347 0.9700
vn -0.7041 0.7093 -0.0321
vn -0.0633 0.2347 0.9700
vn 0.5549 0.8186 -0.1483
vn 0.3331 -0.1759 0.9263
vn -0.0633 0.2347 0.9700
vn -0.8328 -0.5455 0.0943
vn -0.8328 -0.5455 0.0943
vn -0.3729 -0.9151 0.1535
vn 0.3331 -0.1759 0.9263
vn 0.9269 0.3676 -0.0757
vn 0.5549 0.8186 -0.1483
vn -0.0633 0.2347 0.9700
vn -0.0633 0.2347 0.9700
vn 0.3331 -0.1759 0.9263
vn 0.9269 0.3676 -0.0757
vn 0.6765 -0.7168 -0.1691
vn 0.3331 -0.1759 0.9263
vn -0.3729 -0.9151 0.1535
vn 0.6765 -0.7168 -0.1691
vn 0.9269 0.3676 -0.0757
vn 0.3331 -0.1759 0.9263
vn -0.7041 0.7093 -0.0321
vn 0.5549 0.8186 -0.1483
vn -0.1485 -0.0203 -0.9887
vn -0.7041 0.7093 -0.0321
vn -0.1485 -0.0203 -0.9887
vn -0.8328 -0.5455 0.0943
vn 0.1439 -0.3073 -0.9407
vn -0.1485 -0.0203 -0.9887
vn 0.5549 0.8186 -0.1483
vn 0.5549 0.8186 -0.1483
vn 0.9269 0.3676 -0.0757
vn 0.1439 -0.3073 -0.9407
vn -0.3729 -0.9151 0.1535
vn -0.8328 -0.5455 0.0943
vn -0.1485 -0.0203 -0.9887
vn -0.1485 -0.0203 -0.9887
vn 0.1439 -0.3073 -0.9407
vn -0.3729 -0.9151 0.1535
vn 0.6765 -0.7168 -0.1691
vn 0.1439 -0.3073 -0.9407
vn 0.9269 0.3676 -0.0757
vn 0.6765 -0.7168 -0.1691
vn -0.3729 -0.9151 0.1535
vn 0.1439 -0.3073 -0.9407
vn -0.8427 0.0061 -0.5384
vn -0.9073 0.1405 -0.3964
vn -0.8180 0.0069 -0.5752
vn -0.1067 0.7074 -0.6988
vn -0.2072 0.8299 -0.5180
vn -0.0996 0.7380 -0.6675
vn -0.8427 0.0061 -0.5384
vn -0.8180 0.0069 -0.5752
vn -0.6054 -0.1212 -0.7867
vn 0.0013 0.3519 -0.9360
vn -0.0330 0.4007 -0.9156
vn -0.0172 0.4580 -0.8888
vn -0.8427 0.0061 -0.5384
vn -0.9034 0.1451 -0.4034
vn -0.9073 0.1405 -0.3964
vn -0.2072 0.8299 -0.5180
vn -0.2130 0.8251 -0.5233
vn -0.0996 0.7380 -0.6675
vn -0.5536 -0.1120 -0.8252
vn -0.5091 -0.1507 -0.8474
vn -0.6054 -0.1212 -0.7867
vn -0.0330 0.4007 -0.9156
vn -0.1067 0.7074 -0.6988
vn -0.0172 0.4580 -0.8888
vn -0.8180 0.0069 -0.5752
vn -0.5536 -0.1120 -0.8252
vn -0.6054 -0.1212 -0.7867
vn -0.1067 0.7074 -0.6988
vn -0.0996 0.7380 -0.6675
vn -0.0172 0.4580 -0.8888
vn 0.8427 -0.0061 0.5384
vn 0.8180 -0.0069 0.5752
vn 0.9073 -0.1405 0.3964
vn 0.1067 -0.7074 0.6988
vn 0.0996 -0.7380 0.6675
vn 0.2072 -0.8299 0.5180
vn 0.8427 -0.0061 0.5384
vn 0.6054 0.1212 0.7867
vn 0.8180 -0.0069 0.5752
vn -0.0013 -0.3519 0.9360
vn 0.0172 -0.4580 0.8888
vn 0.0330 -0.4007 0.9156
vn 0.8427 -0.0061 0.5384
vn 0.9073 -0.1405 0.3964
vn 0.9034 -0.1451 0.4034
vn 0.2072 -0.8299 0.5180
vn 0.0996 -0.7380 0.6675
vn 0.2130 -0.8251 0.5233
vn 0.5536 0.1120 0.8252
vn 0.6054 0.1212 0.7867
vn 0.5091 0.1507 0.8474
vn 0.0330 -0.4007 0.9156
vn 0.0172 -0.4580 0.8888
vn 0.1067 -0.7074 0.6988
vn 0.8180 -0.0069 0.5752
vn 0.6054 0.1212 0.7867
vn 0.5536 0.1120 0.8252
vn 0.1067 -0.7074 0.6988
vn 0.0172 -0.4580 0.8888
vn 0.0996 -0.7380 0.6675
vn 0.1924 0.6737 0.7135
vn -0.0022 0.7996 0.6006
vn 0.1997 0.6345 0.7467
vn -0.4952 -0.0498 0.8673
vn -0.6832 0.1290 0.7188
vn -0.5396 -0.0472 0.8406
vn 0.1924 0.6737 0.7135
vn 0.1997 0.6345 0.7467
vn 0.3992 0.3317 0.8548
vn -0.0362 -0.2795 0.9595
vn -0.0950 -0.2344 0.9675
vn -0.1782 -0.2369 0.9550
vn 0.1924 0.6737 0.7135
vn -0.0048 0.7934 0.6086
vn -0.0022 0.7996 0.6006
vn -0.6832 0.1290 0.7188
vn -0.6757 0.1328 0.7251
vn -0.5396 -0.0472 0.8406
vn 0.3989 0.2519 0.8817
vn 0.4419 0.1913 0.8764
vn 0.3992 0.3317 0.8548
vn -0.0950 -0.2344 0.9675
vn -0.4952 -0.0498 0.8673
vn -0.1782 -0.2369 0.9550
vn 0.1997 0.6345 0.7467
vn 0.3989 0.2519 0.8817
vn 0.3992 0.3317 0.8548
vn -0.4952 -0.0498 0.8673
vn -0.5396 -0.0472 0.8406
vn -0.1782 -0.2369 0.9550
vn -0.1924 -0.6737 -0.7135
vn -0.1997 -0.6345 -0.7467
vn 0.0022 -0.7996 -0.6006
vn 0.4952 0.0498 -0.8673
vn 0.5396 0.0472 -0.8406
vn 0.6832 -0.1290 -0.7188
vn -0.1924 -0.6737 -0.7135
vn -0.3992 -0.3317 -0.8548
vn -0.1997 -0.6345 -0.7467
vn 0.0362 0.2795 -0.9595
vn 0.1782 0.2369 -0.9550
vn 0.0950 0.2344 -0.9675
vn -0.1924 -0.6737 -0.7135
vn 0.0022 -0.7996 -0.6006
vn 0.0048 -0.7934 -0.6086
vn 0.6832 -0.1290 -0.7188
vn 0.5396 0.0472 -0.8406
vn 0.6757 -0.1328 -0.7251
vn -0.3989 -0.2519 -0.8817
vn -0.3992 -0.3317 -0.8548
vn -0.4419 -0.1913 -0.8764
vn 0.0950 0.2344 -0.9675
vn 0.1782 0.2369 -0.9550
vn 0.4952 0.0498 -0.8673
vn -0.1997 -0.6345 -0.7467
vn -0.3992 -0.3317 -0.8548
vn -0.3989 -0.2519 -0.8817
vn 0.4952 0.0498 -0.8673
vn 0.1782 0.2369 -0.9550
vn 0.5396 0.0472 -0.8406
vn -0.7076 -0.6949 0.1280
vn -0.3444 -0.1038 -0.9331
vn 0.5406 -0.8321 -0.1243
vn -0.7076 -0.6949 0.1280
vn 0.5406 -0.8321 -0.1243
vn 0.0394 -0.1380 0.9896
vn 0.9006 -0.3918 -0.1880
vn 0.5406 -0.8321 -0.1243
vn -0.3444 -0.1038 -0.9331
vn -0.3444 -0.1038 -0.9331
vn 0.1161 0.2690 -0.9561
vn 0.9006 -0.3918 -0.1880
vn 0.4728 0.2354 0.8492
vn 0.0394 -0.1380 0.9896
vn 0.5406 -0.8321 -0.1243
vn 0.5406 -0.8321 -0.1243
vn 0.9006 -0.3918 -0.1880
vn 0.4728 0.2354 0.8492
vn 0.5557 0.8259 -0.0951
vn 0.9006 -0.3918 -0.1880
vn 0.1161 0.2690 -0.9561
vn 0.5557 0.8259 -0.0951
vn 0.4728 0.2354 0.8492
vn 0.9006 -0.3918 -0.1880
vn -0.7076 -0.6949 0.1280
vn 0.0394 -0.1380 0.9896
vn -0.7597 0.6287 0.1660
vn -0.7076 -0.6949 0.1280
vn -0.7597 0.6287 0.1660
vn -0.3444 -0.1038 -0.9331
vn -0.4448 0.8890 0.1091
vn -0.7597 0.6287 0.1660
vn 0.0394 -0.1380 0.9896
vn 0.0394 -0.1380 0.9896
vn 0.4728 0.2354 0.8492
vn -0.4448 0.8890 0.1091
vn 0.1161 0.2690 -0.9561
vn -0.3444 -0.1038 -0.9331
vn -0.7597 0.6287 0.1660
vn -0.7597 0.6287 0.1660
vn -0.4448 0.8890 0.1091
vn 0.1161 0.2690 -0.9561
vn 0.5557 0.8259 -0.0951
vn -0.4448 0.8890 0.1091
vn 0.4728 0.2354 0.8492
vn 0.5557 0.8259 -0.0951
vn 0.1161 0.2690 -0.9561
vn -0.4448 0.8890 0.1091
vn -0.9372 0.0051 -0.3487
vn -0.9249 -0.1990 -0.3241
vn -0.9454 0.0406 -0.3235
vn -0.7485 0.0217 0.6628
vn -0.7311 -0.2175 0.6467
vn -0.7315 -0.0146 0.6817
vn -0.9372 0.0051 -0.3487
vn -0.9454 0.0406 -0.3235
vn -0.9054 0.3524 -0.2367
vn -0.7309 0.4392 0.5224
vn -0.7547 0.3819 0.5334
vn -0.7426 0.3368 0.5789
vn -0.9372 0.0051 -0.3487
vn -0.9283 -0.1952 -0.3164
vn -0.9249 -0.1990 -0.3241
vn -0.7311 -0.2175 0.6467
vn -0.7372 -0.2135 0.6410
vn -0.7315 -0.0146 0.6817
vn -0.8988 0.3957 -0.1885
vn -0.8722 0.4527 -0.1853
vn -0.9054 0.3524 -0.2367
vn -0.7547 0.3819 0.5334
vn -0.7485 0.0217 0.6628
vn -0.7426 0.3368 0.5789
vn -0.9454 0.0406 -0.3235
vn -0.8988 0.3957 -0.1885
vn -0.9054 0.3524 -0.2367
vn -0.7485 0.0217 0.6628
vn -0.7315 -0.0146 0.6817
vn -0.7426 0.3368 0.5789
vn 0.9372 -0.0051 0.3487
vn 0.9454 -0.0406 0.3235
vn 0.9249 0.1990 0.3241
vn 0.7485 -0.0217 -0.6628
vn 0.7315 0.0146 -0.6817
vn 0.7311 0.2175 -0.6467
vn 0.9372 -0.0051 0.3487
vn 0.9054 -0.3524 0.2367
vn 0.9454 -0.0406 0.3235
vn 0.7309 -0.4392 -0.5224
vn 0.7426 -0.3368 -0.5789
vn 0.7547 -0.3819 -0.5334
vn 0.9372 -0.0051 0.3487
vn 0.9249 0.1990 0.3241
vn 0.9283 0.1952 0.3164
vn 0.7311 0.2175 -0.6467
vn 0.7315 0.0146 -0.6817
vn 0.7372 0.2135 -0.6410
vn 0.8988 -0.3957 0.1885
vn 0.9054 -0.3524 0.2367
vn 0.8722 -0.4527 0.1853
vn 0.7547 -0.3819 -0.5334
vn 0.7426 -0.3368 -0.5789
vn 0.7485 -0.0217 -0.6628
vn 0.9454 -0.0406 0.3235
vn 0.9054 -0.3524 0.2367
vn 0.8988 -0.3957 0.1885
vn 0.7485 -0.0217 -0.6628
vn 0.7426 -0.3368 -0.5789
vn 0.7315 0.0146 -0.6817
vn 0.4142 -0.8023 0.4299
vn 0.1691 -0.8817 0.4405
vn 0.4528 -0.7991 0.3955
vn 0.2605 -0.7807 -0.5681
vn -0.0194 -0.8636 -0.5037
vn 0.2115 -0.7829 -0.5851
vn 0.4142 -0.8023 0.4299
vn 0.4528 -0.7991 0.3955
vn 0.7496 -0.6108 0.2551
vn 0.7018 -0.5127 -0.4947
vn 0.6540 -0.5698 -0.4976
vn 0.5897 -0.5955 -0.5455
vn 0.4142 -0.8023 0.4299
vn 0.1745 -0.8848 0.4321
vn 0.1691 -0.8817 0.4405
vn -0.0194 -0.8636 -0.5037
vn -0.0112 -0.8670 -0.4982
vn 0.2115 -0.7829 -0.5851
vn 0.7907 -0.5829 0.1872
vn 0.8341 -0.5253 0.1682
vn 0.7496 -0.6108 0.2551
vn 0.6540 -0.5698 -0.4976
vn 0.2605 -0.7807 -0.5681
vn 0.5897 -0.5955 -0.5455
vn 0.4528 -0.7991 0.3955
vn 0.7907 -0.5829 0.1872
vn 0.7496 -0.6108 0.2551
vn 0.2605 -0.7807 -0.5681
vn 0.2115 -0.7829 -0.5851
vn 0.5897 -0.5955 -0.5455
vn -0.4142 0.8023 -0.4299
vn -0.4528 0.7991 -0.3955
vn -0.1691 0.8817 -0.4405
vn -0.2605 0.7807 0.5681
vn -0.2115 0.7829 0.5851
vn 0.0194 0.8636 0.5037
vn -0.4142 0.8023 -0.4299
vn -0.7496 0.6108 -0.2551
vn -0.4528 0.7991 -0.3955
vn -0.7018 0.5127 0.4947
vn -0.5897 0.5955 0.5455
vn -0.6540 0.5698 0.4976
vn -0.4142 0.8023 -0.4299
vn -0.1691 0.8817 -0.4405
vn -0.1745 0.8848 -0.4321
vn 0.0194 0.8636 0.5037
vn -0.2115 0.7829 0.5851
vn 0.0112 0.8670 0.4982
vn -0.7907 0.5829 -0.1872
vn -0.7496 0.6108 -0.2551
vn -0.8341 0.5253 -0.1682
vn -0.6540 0.5698 0.4976
vn -0.5897 0.5955 0.5455
vn -0.2605 0.7807 0.5681
vn -0.4528 0.7991 -0.3955
vn -0.7496 0.6108 -0.2551
vn -0.7907 0.5829 -0.1872
vn -0.2605 0.7807 0.5681
vn -0.5897 0.5955 0.5455
vn -0.2115 0.7829 0.5851
vn -0.8833 -0.4528 -0.1216
vn -0.0995 0.0272 -0.9947
vn 0.2948 -0.9529 -0.0718
vn -0.8833 -0.4528 -0.1216
vn 0.2948 -0.9529 -0.0718
vn -0.2653 -0.1674 0.9495
vn 0.7685 -0.6398 0.0002
vn 0.2948 -0.9529 -0.0718
vn -0.0995 0.0272 -0.9947
vn -0.0995 0.0272 -0.9947
vn 0.4368 0.2447 -0.8656
vn 0.7685 -0.6398 0.0002
vn 0.2773 0.0617 0.9588
vn -0.2653 -0.1674 0.9495
vn 0.2948 -0.9529 -0.0718
vn 0.2948 -0.9529 -0.0718
vn 0.7685 -0.6398 0.0002
vn 0.2773 0.0617 0.9588
vn 0.7718 0.6226 0.1292
vn 0.7685 -0.6398 0.0002
vn 0.4368 0.2447 -0.8656
vn 0.7718 0.6226 0.1292
vn 0.2773 0.0617 0.9588
vn 0.7685 -0.6398 0.0002
vn -0.8833 -0.4528 -0.1216
vn -0.2653 -0.1674 0.9495
vn -0.5656 0.8239 0.0373
vn -0.8833 -0.4528 -0.1216
vn -0.5656 0.8239 0.0373
vn -0.0995 0.0272 -0.9947
vn -0.1864 0.9787 0.0865
vn -0.5656 0.8239 0.0373
vn -0.2653 -0.1674 0.9495
vn -0.2653 -0.1674 0.9495
vn 0.2773 0.0617 0.9588
vn -0.1864 0.9787 0.0865
vn 0.4368 0.2447 -0.8656
vn -0.0995 0.0272 -0.9947
vn -0.5656 0.8239 0.0373
vn -0.5656 0.8239 0.0373
vn -0.1864 0.9787 0.0865
vn 0.4368 0.2447 -0.8656
vn 0.7718 0.6226 0.1292
vn -0.1864 0.9787 0.0865
vn 0.2773 0.0617 0.9588
vn 0.7718 0.6226 0.1292
vn 0.4368 0.2447 -0.8656
vn -0.1864 0.9787 0.0865
vn -0.7697 0.2952 -0.5661
vn -0.8228 0.0963 -0.5601
vn -0.7738 0.3309 -0.5401
vn -0.8592 0.2298 0.4571
vn -0.9069 -0.0032 0.4214
vn -0.8589 0.1895 0.4757
vn -0.7697 0.2952 -0.5661
vn -0.7738 0.3309 -0.5401
vn -0.6715 0.6140 -0.4148
vn -0.6873 0.6259 0.3687
vn -0.7284 0.5781 0.3676
vn -0.7422 0.5304 0.4097
vn -0.7697 0.2952 -0.5661
vn -0.8270 0.1008 -0.5531
vn -0.8228 0.0963 -0.5601
vn -0.9069 -0.0032 0.4214
vn -0.9099 0.0027 0.4148
vn -0.8589 0.1895 0.4757
vn -0.6659 0.6521 -0.3623
vn -0.6260 0.6984 -0.3469
vn -0.6715 0.6140 -0.4148
vn -0.7284 0.5781 0.3676
vn -0.8592 0.2298 0.4571
vn -0.7422 0.5304 0.4097
vn -0.7738 0.3309 -0.5401
vn -0.6659 0.6521 -0.3623
vn -0.6715 0.6140 -0.4148
vn -0.8592 0.2298 0.4571
vn -0.8589 0.1895 0.4757
vn -0.7422 0.5304 0.4097
vn 0.7697 -0.2952 0.5661
vn 0.7738 -0.3309 0.5401
vn 0.8228 -0.0963 0.5601
vn 0.8592 -0.2298 -0.4571
vn 0.8589 -0.1895 -0.4757
vn 0.9069 0.0032 -0.4214
vn 0.7697 -0.2952 0.5661
vn 0.6715 -0.6140 0.4148
vn 0.7738 -0.3309 0.5401
vn 0.6873 -0.6259 -0.3687
vn 0.7422 -0.5304 -0.4097
vn 0.7284 -0.5781 -0.3676
vn 0.7697 -0.2952 0.5661
vn 0.8228 -0.0963 0.5601
vn 0.8270 -0.1008 0.5531
vn 0.9069 0.0032 -0.4214
vn 0.8589 -0.1895 -0.4757
vn 0.9099 -0.0027 -0.4148
vn 0.6659 -0.6521 0.3623
vn 0.6715 -0.6140 0.4148
vn 0.6260 -0.6984 0.3469
vn 0.7284 -0.5781 -0.3676
vn 0.7422 -0.5304 -0.4097
vn 0.8592 -0.2298 -0.4571
vn 0.7738 -0.3309 0.5401
vn 0.6715 -0.6140 0.4148
vn 0.6659 -0.6521 0.3623
vn 0.8592 -0.2298 -0.4571
vn 0.7422 -0.5304 -0.4097
vn 0.8589 -0.1895 -0.4757
vn 0.0399 -0.8999 0.4343
vn -0.2113 -0.9021 0.3762
vn 0.0855 -0.9076 0.4110
vn 0.1689 -0.8089 -0.5632
vn -0.1295 -0.8054 -0.5785
vn 0.1277 -0.7958 -0.5919
vn 0.0399 -0.8999 0.4343
vn 0.0855 -0.9076 0.4110
vn 0.4496 -0.8140 0.3678
vn 0.6322 -0.6878 -0.3566
vn 0.5728 -0.7278 -0.3770
vn 0.5190 -0.7319 -0.4416
vn 0.0399 -0.8999 0.4343
vn -0.2049 -0.9065 0.3691
vn -0.2113 -0.9021 0.3762
vn -0.1295 -0.8054 -0.5785
vn -0.1244 -0.8112 -0.5714
vn 0.1277 -0.7958 -0.5919
vn 0.5135 -0.7980 0.3153
vn 0.5748 -0.7558 0.3136
vn 0.4496 -0.8140 0.3678
vn 0.5728 -0.7278 -0.3770
vn 0.1689 -0.8089 -0.5632
vn 0.5190 -0.7319 -0.4416
vn 0.0855 -0.9076 0.4110
vn 0.5135 -0.7980 0.3153
vn 0.4496 -0.8140 0.3678
vn 0.1689 -0.8089 -0.5632
vn 0.1277 -0.7958 -0.5919
vn 0.5190 -0.7319 -0.4416
vn -0.0399 0.8999 -0.4343
vn -0.0855 0.9076 -0.4110
vn 0.2113 0.9021 -0.3762
vn -0.1689 0.8089 0.5632
vn -0.1277 0.7958 0.5919
vn 0.1295 0.8054 0.5785
vn -0.0399 0.8999 -0.4343
vn -0.4496 0.8140 -0.3678
vn -0.0855 0.9076 -0.4110
vn -0.6322 0.6878 0.3566
vn -0.5190 0.7319 0.4416
vn -0.5728 0.7278 0.3770
vn -0.0399 0.8999 -0.4343
vn 0.2113 0.9021 -0.3762
vn 0.2049 0.9065 -0.3691
vn 0.1295 0.8054 0.5785
vn -0.1277 0.7958 0.5919
vn 0.1244 0.8112 0.5714
vn -0.5135 0.7980 -0.3153
vn -0.4496 0.8140 -0.3678
vn -0.5748 0.7558 -0.3136
vn -0.5728 0.7278 0.3770
vn -0.5190 0.7319 0.4416
vn -0.1689 0.8089 0.5632
vn -0.0855 0.9076 -0.4110
vn -0.4496 0.8140 -0.3678
vn -0.5135 0.7980 -0.3153
vn -0.1689 0.8089 0.5632
vn -0.5190 0.7319 0.4416
vn -0.1277 0.7958 0.5919
vn -0.9081 0.3207 0.2691
vn -0.1701 0.7070 -0.6865
vn -0.5751 -0.6264 -0.5262
vn -0.9081 0.3207 0.2691
vn -0.5751 -0.6264 -0.5262
vn -0.1677 -0.5527 0.8163
vn -0.0323 -0.7652 -0.6430
vn -0.5751 -0.6264 -0.5262
vn -0.1701 0.7070 -0.6865
vn -0.1701 0.7070 -0.6865
vn 0.3436 0.4461 -0.8264
vn -0.0323 -0.7652 -0.6430
vn 0.3432 -0.7341 0.5859
vn -0.1677 -0.5527 0.8163
vn -0.5751 -0.6264 -0.5262
vn -0.5751 -0.6264 -0.5262
vn -0.0323 -0.7652 -0.6430
vn 0.3432 -0.7341 0.5859
vn 0.9740 -0.1734 -0.1455
vn -0.0323 -0.7652 -0.6430
vn 0.3436 0.4461 -0.8264
vn 0.9740 -0.1734 -0.1455
vn 0.3432 -0.7341 0.5859
vn -0.0323 -0.7652 -0.6430
vn -0.9081 0.3207 0.2691
vn -0.1677 -0.5527 0.8163
vn 0.3048 0.7282 0.6139
vn -0.9081 0.3207 0.2691
vn 0.3048 0.7282 0.6139
vn -0.1701 0.7070 -0.6865
vn 0.6633 0.5712 0.4835
vn 0.3048 0.7282 0.6139
vn -0.1677 -0.5527 0.8163
vn -0.1677 -0.5527 0.8163
vn 0.3432 -0.7341 0.5859
vn 0.6633 0.5712 0.4835
vn 0.3436 0.4461 -0.8264
vn -0.1701 0.7070 -0.6865
vn 0.3048 0.7282 0.6139
vn 0.3048 0.7282 0.6139
vn 0.6633 0.5712 0.4835
vn 0.3436 0.4461 -0.8264
vn 0.9740 -0.1734 -0.1455
vn 0.6633 0.5712 0.4835
vn 0.3432 -0.7341 0.5859
vn 0.9740 -0.1734 -0.1455
vn 0.3436 0.4461 -0.8264
vn 0.6633 0.5712 0.4835
vn -0.3124 0.9440 0.1062
vn -0.4995 0.8628 0.0778
vn -0.2836 0.9487 0.1395
vn -0.2836 0.3022 0.9101
vn -0.4995 0.2264 0.8362
vn -0.3124 0.2685 0.9112
vn -0.3124 0.9440 0.1062
vn -0.2836 0.9487 0.1395
vn 0.0166 0.9639 0.2659
vn 0.1194 0.4765 0.8710
vn 0.0568 0.4743 0.8785
vn 0.0166 0.4292 0.9031
vn -0.3124 0.9440 0.1062
vn -0.4976 0.8631 0.0869
vn -0.4995 0.8628 0.0778
vn -0.4995 0.2264 0.8362
vn -0.4976 0.2354 0.8349
vn -0.3124 0.2685 0.9112
vn 0.0568 0.9476 0.3145
vn 0.1194 0.9405 0.3181
vn 0.0166 0.9639 0.2659
vn 0.0568 0.4743 0.8785
vn -0.2836 0.3022 0.9101
vn 0.0166 0.4292 0.9031
vn -0.2836 0.9487 0.1395
vn 0.0568 0.9476 0.3145
vn 0.0166 0.9639 0.2659
vn -0.2836 0.3022 0.9101
vn -0.3124 0.2685 0.9112
vn 0.0166 0.4292 0.9031
vn 0.3124 -0.9440 -0.1062
vn 0.2836 -0.9487 -0.1395
vn 0.4995 -0.8628 -0.0778
vn 0.2836 -0.3022 -0.9101
vn 0.3124 -0.2685 -0.9112
vn 0.4995 -0.2264 -0.8362
vn 0.3124 -0.9440 -0.1062
vn -0.0166 -0.9639 -0.2659
vn 0.2836 -0.9487 -0.1395
vn -0.1194 -0.4765 -0.8710
vn -0.0166 -0.4292 -0.9031
vn -0.0568 -0.4743 -0.8785
vn 0.3124 -0.9440 -0.1062
vn 0.4995 -0.8628 -0.0778
vn 0.4976 -0.8631 -0.0869
vn 0.4995 -0.2264 -0.8362
vn 0.3124 -0.2685 -0.9112
vn 0.4976 -0.2354 -0.8349
vn -0.0568 -0.9476 -0.3145
vn -0.0166 -0.9639 -0.2659
vn -0.1194 -0.9405 -0.3181
vn -0.0568 -0.4743 -0.8785
vn -0.0166 -0.4292 -0.9031
vn 0.2836 -0.3022 -0.9101
vn 0.2836 -0.9487 -0.1395
vn -0.0166 -0.9639 -0.2659
vn -0.0568 -0.9476 -0.3145
vn 0.2836 -0.3022 -0.9101
vn -0.0166 -0.4292 -0.9031
vn 0.3124 -0.2685 -0.9112
vn -0.6224 -0.7824 0.0192
vn -0.7848 -0.6084 0.1181
vn -0.6038 -0.7967 -0.0271
vn -0.6038 -0.1650 -0.7799
vn -0.7848 0.0107 -0.6196
vn -0.6224 -0.1170 -0.7739
vn -0.6224 -0.7824 0.0192
vn -0.6038 -0.7967 -0.0271
vn -0.3144 -0.9189 -0.2381
vn -0.1998 -0.4872 -0.8501
vn -0.2699 -0.4629 -0.8443
vn -0.3144 -0.3941 -0.8636
vn -0.6224 -0.7824 0.0192
vn -0.7853 -0.6097 0.1077
vn -0.7848 -0.6084 0.1181
vn -0.7848 0.0107 -0.6196
vn -0.7853 0.0002 -0.6191
vn -0.6224 -0.1170 -0.7739
vn -0.2699 -0.9119 -0.3093
vn -0.1998 -0.9218 -0.3322
vn -0.3144 -0.9189 -0.2381
vn -0.2699 -0.4629 -0.8443
vn -0.6038 -0.1650 -0.7799
vn -0.3144 -0.3941 -0.8636
vn -0.6038 -0.7967 -0.0271
vn -0.2699 -0.9119 -0.3093
vn -0.3144 -0.9189 -0.2381
vn -0.6038 -0.1650 -0.7799
vn -0.6224 -0.1170 -0.7739
vn -0.3144 -0.3941 -0.8636
vn 0.6224 0.7824 -0.0192
vn 0.6038 0.7967 0.0271
vn 0.7848 0.6084 -0.1181
vn 0.6038 0.1650 0.7799
vn 0.6224 0.1170 0.7739
vn 0.7848 -0.0107 0.6196
vn 0.6224 0.7824 -0.0192
vn 0.3144 0.9189 0.2381
vn 0.6038 0.7967 0.0271
vn 0.1998 0.4872 0.8501
vn 0.3144 0.3941 0.8636
vn 0.2699 0.4629 0.8443
vn 0.6224 0.7824 -0.0192
vn 0.7848 0.6084 -0.1181
vn 0.7853 0.6097 -0.1077
vn 0.7848 -0.0107 0.6196
vn 0.6224 0.1170 0.7739
vn 0.7853 -0.0002 0.6191
vn 0.2699 0.9119 0.3093
vn 0.3144 0.9189 0.2381
vn 0.1998 0.9218 0.3322
vn 0.2699 0.4629 0.8443
vn 0.3144 0.3941 0.8636
vn 0.6038 0.1650 0.7799
vn 0.6038 0.7967 0.0271
vn 0.3144 0.9189 0.2381
vn 0.2699 0.9119 0.3093
vn 0.6038 0.1650 0.7799
vn 0.3144 0.3941 0.8636
vn 0.6224 0.1170 0.7739
vn 0.7076 0.6949 0.1280
vn 0.3444 0.1038 -0.9331
vn -0.5406 0.8321 -0.1243
vn 0.7076 0.6949 0.1280
vn -0.5406 0.8321 -0.1243
vn -0.0394 0.1380 0.9896
vn -0.9006 0.3918 -0.1880
vn -0.5406 0.8321 -0.1243
vn 0.3444 0.1038 -0.9331
vn 0.3444 0.1038 -0.9331
vn -0.1161 -0.2690 -0.9561
vn -0.9006 0.3918 -0.1880
vn -0.4728 -0.2354 0.8492
vn -0.0394 0.1380 0.9896
vn -0.5406 0.8321 -0.1243
vn -0.5406 0.8321 -0.1243
vn -0.9006 0.3918 -0.1880
vn -0.4728 -0.2354 0.8492
vn -0.5557 -0.8259 -0.0951
vn -0.9006 0.3918 -0.1880
vn -0.1161 -0.2690 -0.9561
vn -0.5557 -0.8259 -0.0951
vn -0.4728 -0.2354 0.8492
vn -0.9006 0.3918 -0.1880
vn 0.7076 0.6949 0.1280
vn -0.0394 0.1380 0.9896
vn 0.7597 -0.6287 0.1660
vn 0.7076 0.6949 0.1280
vn 0.7597 -0.6287 0.1660
vn 0.3444 0.1038 -0.9331
vn 0.4448 -0.8890 0.1091
vn 0.7597 -0.6287 0.1660
vn -0.0394 0.1380 0.9896
vn -0.0394 0.1380 0.9896
vn -0.4728 -0.2354 0.8492
vn 0.4448 -0.8890 0.1091
vn -0.1161 -0.2690 -0.9561
vn 0.3444 0.1038 -0.9331
vn 0.7597 -0.6287 0.1660
vn 0.7597 -0.6287 0.1660
vn 0.4448 -0.8890 0.1091
vn -0.1161 -0.2690 -0.9561
vn -0.5557 -0.8259 -0.0951
vn 0.4448 -0.8890 0.1091
vn -0.4728 -0.2354 0.8492
vn -0.5557 -0.8259 -0.0951
vn -0.1161 -0.2690 -0.9561
vn 0.4448 -0.8890 0.1091
vn 0.9372 -0.0051 -0.3487
vn 0.9249 0.1990 -0.3241
vn 0.9454 -0.0406 -0.3235
vn 0.7485 -0.0217 0.6628
vn 0.7311 0.2175 0.6467
vn 0.7315 0.0146 0.6817
vn 0.9372 -0.0051 -0.3487
vn 0.9454 -0.0406 -0.3235
vn 0.9054 -0.3524 -0.2367
vn 0.7309 -0.4392 0.5224
vn 0.7547 -0.3819 0.5334
vn 0.7426 -0.3368 0.5789
vn 0.9372 -0.0051 -0.3487
vn 0.9283 0.1952 -0.3164
vn 0.9249 0.1990 -0.3241
vn 0.7311 0.2175 0.6467
vn 0.7372 0.2135 0.6410
vn 0.7315 0.0146 0.6817
vn 0.8988 -0.3957 -0.1885
vn 0.8722 -0.4527 -0.1853
vn 0.9054 -0.3524 -0.2367
vn 0.7547 -0.3819 0.5334
vn 0.7485 -0.0217 0.6628
vn 0.7426 -0.3368 0.5789
vn 0.9454 -0.0406 -0.3235
vn 0.8988 -0.3957 -0.1885
vn 0.9054 -0.3524 -0.2367
vn 0.7485 -0.0217 0.6628
vn 0.7315 0.0146 0.6817
vn 0.7426 -0.3368 0.5789
vn -0.9372 0.0051 0.3487
vn -0.9454 0.0406 0.3235
vn -0.9249 -0.1990 0.3241
vn -0.7485 0.0217 -0.6628
vn -0.7315 -0.0146 -0.6817
vn -0.7311 -0.2175 -0.6467
vn -0.9372 0.0051 0.3487
vn -0.9054 0.3524 0.2367
vn -0.9454 0.0406 0.3235
vn -0.7309 0.4392 -0.5224
vn -0.7426 0.3368 -0.5789
vn -0.7547 0.3819 -0.5334
vn -0.9372 0.0051 0.3487
vn -0.9249 -0.1990 0.3241
vn -0.9283 -0.1952 0.3164
vn -0.7311 -0.2175 -0.6467
vn -0.7315 -0.0146 -0.6817
vn -0.7372 -0.2135 -0.6410
vn -0.8988 0.3957 0.1885
vn -0.9054 0.3524 0.2367
vn -0.8722 0.4527 0.1853
vn -0.7547 0.3819 -0.5334
vn -0.7426 0.3368 -0.5789
vn -0.7485 0.0217 -0.6628
vn -0.9454 0.0406 0.3235
vn -0.9054 0.3524 0.2367
vn -0.8988 0.3957 0.1885
vn -0.7485 0.0217 -0.6628
vn -0.7426 0.3368 -0.5789
vn -0.7315 -0.0146 -0.6817
vn -0.4142 0.8023 0.4299
vn -0.1691 0.8817 0.4405
vn -0.4528 0.7991 0.3955
vn -0.2605 0.7807 -0.5681
vn 0.0194 0.8636 -0.5037
vn -0.2115 0.7829 -0.5851
vn -0.4142 0.8023 0.4299
vn -0.4528 0.7991 0.3955
vn -0.7496 0.6108 0.2551
vn -0.7018 0.5127 -0.4947
vn -0.6540 0.5698 -0.4976
vn -0.5897 0.5955 -0.5455
vn -0.4142 0.8023 0.4299
vn -0.1745 0.8848 0.4321
vn -0.1691 0.8817 0.4405
vn 0.0194 0.8636 -0.5037
vn 0.0112 0.8670 -0.4982
vn -0.2115 0.7829 -0.5851
vn -0.7907 0.5829 0.1872
vn -0.8341 0.5253 0.1682
vn -0.7496 0.6108 0.2551
vn -0.6540 0.5698 -0.4976
vn -0.2605 0.7807 -0.5681
vn -0.5897 0.5955 -0.5455
vn -0.4528 0.7991 0.3955
vn -0.7907 0.5829 0.1872
vn -0.7496 0.6108 0.2551
vn -0.2605 0.7807 -0.5681
vn -0.2115 0.7829 -0.5851
vn -0.5897 0.5955 -0.5455
vn 0.4142 -0.8023 -0.4299
vn 0.4528 -0.7991 -0.3955
vn 0.1691 -0.8817 -0.4405
vn 0.2605 -0.7807 0.5681
vn 0.2115 -0.7829 0.5851
vn -0.0194 -0.8636 0.5037
vn 0.4142 -0.8023 -0.4299
vn 0.7496 -0.6108 -0.2551
vn 0.4528 -0.7991 -0.3955
vn 0.7018 -0.5127 0.4947
vn 0.5897 -0.5955 0.5455
vn 0.6540 -0.5698 0.4976
vn 0.4142 -0.8023 -0.4299
vn 0.1691 -0.8817 -0.4405
vn 0.1745 -0.8848 -0.4321
vn -0.0194 -0.8636 0.5037
vn 0.2115 -0.7829 0.5851
vn -0.0112 -0.8670 0.4982
vn 0.7907 -0.5829 -0.1872
vn 0.7496 -0.6108 -0.2551
vn 0.8341 -0.5253 -0.1682
vn 0.6540 -0.5698 0.4976
vn 0.5897 -0.5955 0.5455
vn 0.2605 -0.7807 0.5681
vn 0.4528 -0.7991 -0.3955
vn 0.7496 -0.6108 -0.2551
vn 0.7907 -0.5829 -0.1872
vn 0.2605 -0.7807 0.5681
vn 0.5897 -0.5955 0.5455
vn 0.2115 -0.7829 0.5851
vn 0.8833 0.4528 -0.1216
vn 0.0995 -0.0272 -0.9947
vn -0.2948 0.9529 -0.0718
vn 0.8833 0.4528 -0.1216
vn -0.2948 0.9529 -0.0718
vn 0.2653 0.1674 0.9495
vn -0.7685 0.6398 0.0002
vn -0.2948 0.9529 -0.0718
vn 0.0995 -0.0272 -0.9947
vn 0.0995 -0.0272 -0.9947
vn -0.4368 -0.2447 -0.8656
vn -0.7685 0.6398 0.0002
vn -0.2773 -0.0617 0.9588
vn 0.2653 0.1674 0.9495
vn -0.2948 0.9529 -0.0718
vn -0.2948 0.9529 -0.0718
vn -0.7685 0.6398 0.0002
vn -0.2773 -0.0617 0.9588
vn -0.7718 -0.6226 0.1292
vn -0.7685 0.6398 0.0002
vn -0.4368 -0.2447 -0.8656
vn -0.7718 -0.6226 0.1292
vn -0.2773 -0.0617 0.9588
vn -0.7685 0.6398 0.0002
vn 0.8833 0.4528 -0.1216
vn 0.2653 0.1674 0.9495
vn 0.5656 -0.8239 0.0373
vn 0.8833 0.4528 -0.1216
vn 0.5656 -0.8239 0.0373
vn 0.0995 -0.0272 -0.9947
vn 0.1864 -0.9787 0.0865
vn 0.5656 -0.8239 0.0373
vn 0.2653 0.1674 0.9495
vn 0.2653 0.1674 0.9495
vn -0.2773 -0.0617 0.9588
vn 0.1864 -0.9787 0.0865
vn -0.4368 -0.2447 -0.8656
vn 0.0995 -0.0272 -0.9947
vn 0.5656 -0.8239 0.0373
vn 0.5656 -0.8239 0.0373
vn 0.1864 -0.9787 0.0865
vn -0.4368 -0.2447 -0.8656
vn -0.7718 -0.6226 0.1292
vn 0.1864 -0.9787 0.0865
vn -0.2773 -0.0617 0.9588
vn -0.7718 -0.6226 0.1292
vn -0.4368 -0.2447 -0.8656
vn 0.1864 -0.9787 0.0865
vn 0.7697 -0.2952 -0.5661
vn 0.8228 -0.0963 -0.5601
vn 0.7738 -0.3309 -0.5401
vn 0.8592 -0.2298 0.4571
vn 0.9069 0.0032 0.4214
vn 0.8589 -0.1895 0.4757
vn 0.7697 -0.2952 -0.5661
vn 0.7738 -0.3309 -0.5401
vn 0.6715 -0.6140 -0.4148
vn 0.6873 -0.6259 0.3687
vn 0.7284 -0.5781 0.3676
vn 0.7422 -0.5304 0.4097
vn 0.7697 -0.2952 -0.5661
vn 0.8270 -0.1008 -0.5531
vn 0.8228 -0.0963 -0.5601
vn 0.9069 0.0032 0.4214
vn 0.9099 -0.0027 0.4148
vn 0.8589 -0.1895 0.4757
vn 0.6659 -0.6521 -0.3623
vn 0.6260 -0.6984 -0.3469
vn 0.6715 -0.6140 -0.4148
vn 0.7284 -0.5781 0.3676
vn 0.8592 -0.2298 0.4571
vn 0.7422 -0.5304 0.4097
vn 0.7738 -0.3309 -0.5401
vn 0.6659 -0.6521 -0.3623
vn 0.6715 -0.6140 -0.4148
vn 0.8592 -0.2298 0.4571
vn 0.8589 -0.1895 0.4757
vn 0.7422 -0.5304 0.4097
vn -0.7697 0.2952 0.5661
vn -0.7738 0.3309 0.5401
vn -0.8228 0.0963 0.5601
vn -0.8592 0.2298 -0.4571
vn -0.8589 0.1895 -0.4757
vn -0.9069 -0.0032 -0.4214
vn -0.7697 0.2952 0.5661
vn -0.6715 0.6140 0.4148
vn -0.7738 0.3309 0.5401
vn -0.6873 0.6259 -0.3687
vn -0.7422 0.5304 -0.4097
vn -0.7284 0.5781 -0.3676
vn -0.7697 0.2952 0.5661
vn -0.8228 0.0963 0.5601
vn -0.8270 0.1008 0.5531
vn -0.9069 -0.0032 -0.4214
vn -0.8589 0.1895 -0.4757
vn -0.9099 0.0027 -0.4148
vn -0.6659 0.6521 0.3623
vn -0.6715 0.6140 0.4148
vn -0.6260 0.6984 0.3469
vn -0.7284 0.5781 -0.3676
vn -0.7422 0.5304 -0.4097
vn -0.8592 0.2298 -0.4571
vn -0.7738 0.3309 0.5401
vn -0.6715 0.6140 0.4148
vn -0.6659 0.6521 0.3623
vn -0.8592 0.2298 -0.4571
vn -0.7422 0.5304 -0.4097
vn -0.8589 0.1895 -0.4757
vn -0.0399 0.8999 0.4343
vn 0.2113 0.9021 0.3762
vn -0.0855 0.9076 0.4110
vn -0.1689 0.8089 -0.5632
vn 0.1295 0.8054 -0.5785
vn -0.1277 0.7958 -0.5919
vn -0.0399 0.8999 0.4343
vn -0.0855 0.9076 0.4110
vn -0.4496 0.8140 0.3678
vn -0.6322 0.6878 -0.3566
vn -0.5728 0.7278 -0.3770
vn -0.5190 0.7319 -0.4416
vn -0.0399 0.8999 0.4343
vn 0.2049 0.9065 0.3691
vn 0.2113 0.9021 0.3762
vn 0.1295 0.8054 -0.5785
vn 0.1244 0.8112 -0.5714
vn -0.1277 0.7958 -0.5919
vn -0.5135 0.7980 0.3153
vn -0.5748 0.7558 0.3136
vn -0.4496 0.8140 0.3678
vn -0.5728 0.7278 -0.3770
vn -0.1689 0.8089 -0.5632
vn -0.5190 0.7319 -0.4416
vn -0.0855 0.9076 0.4110
vn -0.5135 0.7980 0.3153
vn -0.4496 0.8140 0.3678
vn -0.1689 0.8089 -0.5632
vn -0.1277 0.7958 -0.5919
vn -0.5190 0.7319 -0.4416
vn 0.0399 -0.8999 -0.4343
vn 0.0855 -0.9076 -0.4110
vn -0.2113 -0.9021 -0.3762
vn 0.1689 -0.8089 0.5632
vn 0.1277 -0.7958 0.5919
vn -0.1295 -0.8054 0.5785
vn 0.0399 -0.8999 -0.4343
vn 0.4496 -0.8140 -0.3678
vn 0.0855 -0.9076 -0.4110
vn 0.6322 -0.6878 0.3566
vn 0.5190 -0.7319 0.4416
vn 0.5728 -0.7278 0.3770
vn 0.0399 -0.8999 -0.4343
vn -0.2113 -0.9021 -0.3762
vn -0.2049 -0.9065 -0.3691
vn -0.1295 -0.8054 0.5785
vn 0.1277 -0.7958 0.5919
vn -0.1244 -0.8112 0.5714
vn 0.5135 -0.7980 -0.3153
vn 0.4496 -0.8140 -0.3678
vn 0.5748 -0.7558 -0.3136
vn 0.5728 -0.7278 0.3770
vn 0.5190 -0.7319 0.4416
vn 0.1689 -0.8089 0.5632
vn 0.0855 -0.9076 -0.4110
vn 0.4496 -0.8140 -0.3678
vn 0.5135 -0.7980 -0.3153
vn 0.1689 -0.8089 0.5632
vn 0.5190 -0.7319 0.4416
vn 0.1277 -0.7958 0.5919
vn -0.3379 -0.9412 -0.0000
vn -0.0851 -0.1782 -0.9803
vn 0.8651 -0.5016 -0.0005
vn -0.3379 -0.9412 -0.0000
vn 0.8651 -0.5016 -0.0005
vn -0.0863 -0.1759 0.9806
vn 0.9985 0.0550 -0.0007
vn 0.8651 -0.5016 -0.0005
vn -0.0851 -0.1782 -0.9803
vn -0.0851 -0.1782 -0.9803
vn 0.1588 0.3589 -0.9198
vn 0.9985 0.0550 -0.0007
vn 0.1551 0.3581 0.9207
vn -0.0863 -0.1759 0.9806
vn 0.8651 -0.5016 -0.0005
vn 0.8651 -0.5016 -0.0005
vn 0.9985 0.0550 -0.0007
vn 0.1551 0.3581 0.9207
vn 0.1406 0.9901 -0.0000
vn 0.9985 0.0550 -0.0007
vn 0.1588 0.3589 -0.9198
vn 0.1406 0.9901 -0.0000
vn 0.1551 0.3581 0.9207
vn 0.9985 0.0550 -0.0007
vn -0.3379 -0.9412 -0.0000
vn -0.0863 -0.1759 0.9806
vn -0.9754 0.2206 0.0022
vn -0.3379 -0.9412 -0.0000
vn -0.9754 0.2206 0.0022
vn -0.0851 -0.1782 -0.9803
vn -0.8033 0.5955 0.0032
vn -0.9754 0.2206 0.0022
vn -0.0863 -0.1759 0.9806
vn -0.0863 -0.1759 0.9806
vn 0.1551 0.3581 0.9207
vn -0.8033 0.5955 0.0032
vn 0.1588 0.3589 -0.9198
vn -0.0851 -0.1782 -0.9803
vn -0.9754 0.2206 0.0022
vn -0.9754 0.2206 0.0022
vn -0.8033 0.5955 0.0032
vn 0.1588 0.3589 -0.9198
vn 0.1406 0.9901 -0.0000
vn -0.8033 0.5955 0.0032
vn 0.1551 0.3581 0.9207
vn 0.1406 0.9901 -0.0000
vn 0.1588 0.3589 -0.9198
vn -0.8033 0.5955 0.0032
vn -0.7612 -0.3802 -0.5255
vn -0.6647 -0.5595 -0.4951
vn -0.7887 -0.3536 -0.5029
vn -0.7887 -0.3536 0.5029
vn -0.6647 -0.5595 0.4951
vn -0.7612 -0.3802 0.5255
vn -0.7612 -0.3802 -0.5255
vn -0.7887 -0.3536 -0.5029
vn -0.9073 -0.0627 -0.4159
vn -0.9318 0.0383 0.3609
vn -0.9295 -0.0243 0.3681
vn -0.9073 -0.0627 0.4159
vn -0.7612 -0.3802 -0.5255
vn -0.6709 -0.5582 -0.4882
vn -0.6647 -0.5595 -0.4951
vn -0.6647 -0.5595 0.4951
vn -0.6709 -0.5582 0.4882
vn -0.7612 -0.3802 0.5255
vn -0.9295 -0.0243 -0.3681
vn -0.9318 0.0383 -0.3609
vn -0.9073 -0.0627 -0.4159
vn -0.9295 -0.0243 0.3681
vn -0.7887 -0.3536 0.5029
vn -0.9073 -0.0627 0.4159
vn -0.7887 -0.3536 -0.5029
vn -0.9295 -0.0243 -0.3681
vn -0.9073 -0.0627 -0.4159
vn -0.7887 -0.3536 0.5029
vn -0.7612 -0.3802 0.5255
vn -0.9073 -0.0627 0.4159
vn 0.7612 0.3802 0.5255
vn 0.7887 0.3536 0.5029
vn 0.6647 0.5595 0.4951
vn 0.7887 0.3536 -0.5029
vn 0.7612 0.3802 -0.5255
vn 0.6647 0.5595 -0.4951
vn 0.7612 0.3802 0.5255
vn 0.9073 0.0627 0.4159
vn 0.7887 0.3536 0.5029
vn 0.9318 -0.0383 -0.3609
vn 0.9073 0.0627 -0.4159
vn 0.9295 0.0243 -0.3681
vn 0.7612 0.3802 0.5255
vn 0.6647 0.5595 0.4951
vn 0.6709 0.5582 0.4882
vn 0.6647 0.5595 -0.4951
vn 0.7612 0.3802 -0.5255
vn 0.6709 0.5582 -0.4882
vn 0.9295 0.0243 0.3681
vn 0.9073 0.0627 0.4159
vn 0.9318 -0.0383 0.3609
vn 0.9295 0.0243 -0.3681
vn 0.9073 0.0627 -0.4159
vn 0.7887 0.3536 -0.5029
vn 0.7887 0.3536 0.5029
vn 0.9073 0.0627 0.4159
vn 0.9295 0.0243 0.3681
vn 0.7887 0.3536 -0.5029
vn 0.9073 0.0627 -0.4159
vn 0.7612 0.3802 -0.5255
vn 0.6391 -0.5689 0.5176
vn 0.4570 -0.7478 0.4815
vn 0.6780 -0.5468 0.4914
vn 0.6780 -0.5468 -0.4914
vn 0.4570 -0.7478 -0.4815
vn 0.6391 -0.5689 -0.5176
vn 0.6391 -0.5689 0.5176
vn 0.6780 -0.5468 0.4914
vn 0.8812 -0.2385 0.4083
vn 0.9336 -0.1188 -0.3381
vn 0.9174 -0.1907 -0.3492
vn 0.8812 -0.2385 -0.4083
vn 0.6391 -0.5689 0.5176
vn 0.4647 -0.7477 0.4744
vn 0.4570 -0.7478 0.4815
vn 0.4570 -0.7478 -0.4815
vn 0.4647 -0.7477 -0.4744
vn 0.6391 -0.5689 -0.5176
vn 0.9174 -0.1907 0.3492
vn 0.9336 -0.1188 0.3381
vn 0.8812 -0.2385 0.4083
vn 0.9174 -0.1907 -0.3492
vn 0.6780 -0.5468 -0.4914
vn 0.8812 -0.2385 -0.4083
vn 0.6780 -0.5468 0.4914
vn 0.9174 -0.1907 0.3492
vn 0.8812 -0.2385 0.4083
vn 0.6780 -0.5468 -0.4914
vn 0.6391 -0.5689 -0.5176
vn 0.8812 -0.2385 -0.4083
vn -0.6391 0.5689 -0.5176
vn -0.6780 0.5468 -0.4914
vn -0.4570 0.7478 -0.4815
vn -0.6780 0.5468 0.4914
vn -0.6391 0.5689 0.5176
vn -0.4570 0.7478 0.4815
vn -0.6391 0.5689 -0.5176
vn -0.8812 0.2385 -0.4083
vn -0.6780 0.5468 -0.4914
vn -0.9336 0.1188 0.3381
vn -0.8812 0.2385 0.4083
vn -0.9174 0.1907 0.3492
vn -0.6391 0.5689 -0.5176
vn -0.4570 0.7478 -0.4815
vn -0.4647 0.7477 -0.4744
vn -0.4570 0.7478 0.4815
vn -0.6391 0.5689 0.5176
vn -0.4647 0.7477 0.4744
vn -0.9174 0.1907 -0.3492
vn -0.8812 0.2385 -0.4083
vn -0.9336 0.1188 -0.3381
vn -0.9174 0.1907 0.3492
vn -0.8812 0.2385 0.4083
vn -0.6780 0.5468 0.4914
vn -0.6780 0.5468 -0.4914
vn -0.8812 0.2385 -0.4083
vn -0.9174 0.1907 -0.3492
vn -0.6780 0.5468 0.4914
vn -0.8812 0.2385 0.4083
vn -0.6391 0.5689 0.5176
# 1512 vertex normals

vt 0.8252 0.0759 0.0000
vt 0.8810 0.0280 0.0000
vt 0.8873 0.0745 0.0000
vt 0.8870 0.1222 0.0000
vt 0.9563 0.0317 0.0000
vt 0.9491 0.0784 0.0000
vt 0.9566 0.1218 0.0000
vt 0.9955 0.0760 0.0000
vt 0.8252 0.0759 0.0000
vt 0.8810 0.0280 0.0000
vt 0.8873 0.0745 0.0000
vt 0.8870 0.1222 0.0000
vt 0.9563 0.0317 0.0000
vt 0.9491 0.0784 0.0000
vt 0.9566 0.1218 0.0000
vt 0.9955 0.0760 0.0000
vt 0.9127 0.1600 0.0000
vt 0.9984 0.2214 0.0000
vt 0.9092 0.2186 0.0000
vt 0.9126 0.2773 0.0000
vt 0.8409 0.1766 0.0000
vt 0.7938 0.2193 0.0000
vt 0.8423 0.2187 0.0000
vt 0.8407 0.2608 0.0000
vt 0.9730 0.1806 0.0000
vt 0.9635 0.2653 0.0000
vt 0.9127 0.1600 0.0000
vt 0.9984 0.2214 0.0000
vt 0.9092 0.2186 0.0000
vt 0.9126 0.2773 0.0000
vt 0.8409 0.1766 0.0000
vt 0.7938 0.2193 0.0000
vt 0.8423 0.2187 0.0000
vt 0.8407 0.2608 0.0000
vt 0.9730 0.1806 0.0000
vt 0.9635 0.2653 0.0000
vt 0.9127 0.1600 0.0000
vt 0.9984 0.2214 0.0000
vt 0.9092 0.2186 0.0000
vt 0.9126 0.2773 0.0000
vt 0.8409 0.1766 0.0000
vt 0.7938 0.2193 0.0000
vt 0.8423 0.2187 0.0000
vt 0.8407 0.2608 0.0000
vt 0.9730 0.1806 0.0000
vt 0.9635 0.2653 0.0000
vt 0.9127 0.1600 0.0000
vt 0.9984 0.2214 0.0000
vt 0.9092 0.2186 0.0000
vt 0.9126 0.2773 0.0000
vt 0.8409 0.1766 0.0000
vt 0.7938 0.2193 0.0000
vt 0.8423 0.2187 0.0000
vt 0.8407 0.2608 0.0000
vt 0.9730 0.1806 0.0000
vt 0.9635 0.2653 0.0000
vt 0.8252 0.0759 0.0000
vt 0.8810 0.0280 0.0000
vt 0.8873 0.0745 0.0000
vt 0.8870 0.1222 0.0000
vt 0.9563 0.0317 0.0000
vt 0.9491 0.0784 0.0000
vt 0.9566 0.1218 0.0000
vt 0.9955 0.0760 0.0000
vt 0.8252 0.0759 0.0000
vt 0.8810 0.0280 0.0000
vt 0.8873 0.0745 0.0000
vt 0.8870 0.1222 0.0000
vt 0.9563 0.0317 0.0000
vt 0.9491 0.0784 0.0000
vt 0.9566 0.1218 0.0000
vt 0.9955 0.0760 0.0000
vt 0.9127 0.1600 0.0000
vt 0.9984 0.2214 0.0000
vt 0.9092 0.2186 0.0000
vt 0.9126 0.2773 0.0000
vt 0.8409 0.1766 0.0000
vt 0.7938 0.2193 0.0000
vt 0.8423 0.2187 0.0000
vt 0.8407 0.2608 0.0000
vt 0.9730 0.1806 0.0000
vt 0.9635 0.2653 0.0000
vt 0.9127 0.1600 0.0000
vt 0.9984 0.2214 0.0000
vt 0.9092 0.2186 0.0000
vt 0.9126 0.2773 0.0000
vt 0.8409 0.1766 0.0000
vt 0.7938 0.2193 0.0000
vt 0.8423 0.2187 0.0000
vt 0.8407 0.2608 0.0000
vt 0.9730 0.1806 0.0000
vt 0.9635 0.2653 0.0000
vt 0.9127 0.1600 0.0000
vt 0.9984 0.2214 0.0000
vt 0.9092 0.2186 0.0000
vt 0.9126 0.2773 0.0000
vt 0.8409 0.1766 0.0000
vt 0.7938 0.2193 0.0000
vt 0.8423 0.2187 0.0000
vt 0.8407 0.2608 0.0000
vt 0.9730 0.1806 0.0000
vt 0.9635 0.2653 0.0000
vt 0.9127 0.1600 0.0000
vt 0.9984 0.2214 0.0000
vt 0.9092 0.2186 0.0000
vt 0.9126 0.2773 0.0000
vt 0.8409 0.1766 0.0000
vt 0.7938 0.2193 0.0000
vt 0.8423 0.2187 0.0000
vt 0.8407 0.2608 0.0000
vt 0.9730 0.1806 0.0000
vt 0.9635 0.2653 0.0000
vt 0.8252 0.0759 0.0000
vt 0.8810 0.0280 0.0000
vt 0.8873 0.0745 0.0000
vt 0.8870 0.1222 0.0000
vt 0.9563 0.0317 0.0000
vt 0.9491 0.0784 0.0000
vt 0.9566 0.1218 0.0000
vt 0.9955 0.0760 0.0000
vt 0.8252 0.0759 0.0000
vt 0.8810 0.0280 0.0000
vt 0.8873 0.0745 0.0000
vt 0.8870 0.1222 0.0000
vt 0.9563 0.0317 0.0000
vt 0.9491 0.0784 0.0000
vt 0.9566 0.1218 0.0000
vt 0.9955 0.0760 0.0000
vt 0.9127 0.1600 0.0000
vt 0.9984 0.2214 0.0000
vt 0.9092 0.2186 0.0000
vt 0.9126 0.2773 0.0000
vt 0.8409 0.1766 0.0000
vt 0.7938 0.2193 0.0000
vt 0.8423 0.2187 0.0000
vt 0.8407 0.2608 0.0000
vt 0.9730 0.1806 0.0000
vt 0.9635 0.2653 0.0000
vt 0.9127 0.1600 0.0000
vt 0.9984 0.2214 0.0000
vt 0.9092 0.2186 0.0000
vt 0.9126 0.2773 0.0000
vt 0.8409 0.1766 0.0000
vt 0.7938 0.2193 0.0000
vt 0.8423 0.2187 0.0000
vt 0.8407 0.2608 0.0000
vt 0.9730 0.1806 0.0000
vt 0.9635 0.2653 0.0000
vt 0.9127 0.1600 0.0000
vt 0.9984 0.2214 0.0000
vt 0.9092 0.2186 0.0000
vt 0.9126 0.2773 0.0000
vt 0.8409 0.1766 0.0000
vt 0.7938 0.2193 0.0000
vt 0.8423 0.2187 0.0000
vt 0.8407 0.2608 0.0000
vt 0.9730 0.1806 0.0000
vt 0.9635 0.2653 0.0000
vt 0.9127 0.1600 0.0000
vt 0.9984 0.2214 0.0000
vt 0.9092 0.2186 0.0000
vt 0.9126 0.2773 0.0000
vt 0.8409 0.1766 0.0000
vt 0.7938 0.2193 0.0000
vt 0.8423 0.2187 0.0000
vt 0.8407 0.2608 0.0000
vt 0.9730 0.1806 0.0000
vt 0.9635 0.2653 0.0000
vt 0.8252 0.0759 0.0000
vt 0.8810 0.0280 0.0000
vt 0.8873 0.0745 0.0000
vt 0.8870 0.1222 0.0000
vt 0.9563 0.0317 0.0000
vt 0.9491 0.0784 0.0000
vt 0.9566 0.1218 0.0000
vt 0.9955 0.0760 0.0000
vt 0.8252 0.0759 0.0000
vt 0.8810 0.0280 0.0000
vt 0.8873 0.0745 0.0000
vt 0.8870 0.1222 0.0000
vt 0.9563 0.0317 0.0000
vt 0.9491 0.0784 0.0000
vt 0.9566 0.1218 0.0000
vt 0.9955 0.0760 0.0000
vt 0.9127 0.1600 0.0000
vt 0.9984 0.2214 0.0000
vt 0.9092 0.2186 0.0000
vt 0.9126 0.2773 0.0000
vt 0.8409 0.1766 0.0000
vt 0.7938 0.2193 0.0000
vt 0.8423 0.2187 0.0000
vt 0.8407 0.2608 0.0000
vt 0.9730 0.1806 0.0000
vt 0.9635 0.2653 0.0000
vt 0.9127 0.1600 0.0000
vt 0.9984 0.2214 0.0000
vt 0.9092 0.2186 0.0000
vt 0.9126 0.2773 0.0000
vt 0.8409 0.1766 0.0000
vt 0.7938 0.2193 0.0000
vt 0.8423 0.2187 0.0000
vt 0.8407 0.2608 0.0000
vt 0.9730 0.1806 0.0000
vt 0.9635 0.2653 0.0000
vt 0.9127 0.1600 0.0000
vt 0.9984 0.2214 0.0000
vt 0.9092 0.2186 0.0000
vt 0.9126 0.2773 0.0000
vt 0.8409 0.1766 0.0000
vt 0.7938 0.2193 0.0000
vt 0.8423 0.2187 0.0000
vt 0.8407 0.2608 0.0000
vt 0.9730 0.1806 0.0000
vt 0.9635 0.2653 0.0000
vt 0.9127 0.1600 0.0000
vt 0.9984 0.2214 0.0000
vt 0.9092 0.2186 0.0000
vt 0.9126 0.2773 0.0000
vt 0.8409 0.1766 0.0000
vt 0.7938 0.2193 0.0000
vt 0.8423 0.2187 0.0000
vt 0.8407 0.2608 0.0000
vt 0.9730 0.1806 0.0000
vt 0.9635 0.2653 0.0000
vt 0.8252 0.0759 0.0000
vt 0.8810 0.0280 0.0000
vt 0.8873 0.0745 0.0000
vt 0.8870 0.1222 0.0000
vt 0.9563 0.0317 0.0000
vt 0.9491 0.0784 0.0000
vt 0.9566 0.1218 0.0000
vt 0.9955 0.0760 0.0000
vt 0.8252 0.0759 0.0000
vt 0.8810 0.0280 0.0000
vt 0.8873 0.0745 0.0000
vt 0.8870 0.1222 0.0000
vt 0.9563 0.0317 0.0000
vt 0.9491 0.0784 0.0000
vt 0.9566 0.1218 0.0000
vt 0.9955 0.0760 0.0000
vt 0.9127 0.1600 0.0000
vt 0.9984 0.2214 0.0000
vt 0.9092 0.2186 0.0000
vt 0.9126 0.2773 0.0000
vt 0.8409 0.1766 0.0000
vt 0.7938 0.2193 0.0000
vt 0.8423 0.2187 0.0000
vt 0.8407 0.2608 0.0000
vt 0.9730 0.1806 0.0000
vt 0.9635 0.2653 0.0000
vt 0.9127 0.1600 0.0000
vt 0.9984 0.2214 0.0000
vt 0.9092 0.2186 0.0000
vt 0.9126 0.2773 0.0000
vt 0.8409 0.1766 0.0000
vt 0.7938 0.2193 0.0000
vt 0.8423 0.2187 0.0000
vt 0.8407 0.2608 0.0000
vt 0.9730 0.1806 0.0000
vt 0.9635 0.2653 0.0000
vt 0.9127 0.1600 0.0000
vt 0.9984 0.2214 0.0000
vt 0.9092 0.2186 0.0000
vt 0.9126 0.2773 0.0000
vt 0.8409 0.1766 0.0000
vt 0.7938 0.2193 0.0000
vt 0.8423 0.2187 0.0000
vt 0.8407 0.2608 0.0000
vt 0.9730 0.1806 0.0000
vt 0.9635 0.2653 0.0000
vt 0.9127 0.1600 0.0000
vt 0.9984 0.2214 0.0000
vt 0.9092 0.2186 0.0000
vt 0.9126 0.2773 0.0000
vt 0.8409 0.1766 0.0000
vt 0.7938 0.2193 0.0000
vt 0.8423 0.2187 0.0000
vt 0.8407 0.2608 0.0000
vt 0.9730 0.1806 0.0000
vt 0.9635 0.2653 0.0000
vt 0.8252 0.0759 0.0000
vt 0.8810 0.0280 0.0000
vt 0.8873 0.0745 0.0000
vt 0.8870 0.1222 0.0000
vt 0.9563 0.0317 0.0000
vt 0.9491 0.0784 0.0000
vt 0.9566 0.1218 0.0000
vt 0.9955 0.0760 0.0000
vt 0.8252 0.0759 0.0000
vt 0.8810 0.0280 0.0000
vt 0.8873 0.0745 0.0000
vt 0.8870 0.1222 0.0000
vt 0.9563 0.0317 0.0000
vt 0.9491 0.0784 0.0000
vt 0.9566 0.1218 0.0000
vt 0.9955 0.0760 0.0000
vt 0.9127 0.1600 0.0000
vt 0.9984 0.2214 0.0000
vt 0.9092 0.2186 0.0000
vt 0.9126 0.2773 0.0000
vt 0.8409 0.1766 0.0000
vt 0.7938 0.2193 0.0000
vt 0.8423 0.2187 0.0000
vt 0.8407 0.2608 0.0000
vt 0.9730 0.1806 0.0000
vt 0.9635 0.2653 0.0000
vt 0.9127 0.1600 0.0000
vt 0.9984 0.2214 0.0000
vt 0.9092 0.2186 0.0000
vt 0.9126 0.2773 0.0000
vt 0.8409 0.1766 0.0000
vt 0.7938 0.2193 0.0000
vt 0.8423 0.2187 0.0000
vt 0.8407 0.2608 0.0000
vt 0.9730 0.1806 0.0000
vt 0.9635 0.2653 0.0000
vt 0.9127 0.1600 0.0000
vt 0.9984 0.2214 0.0000
vt 0.9092 0.2186 0.0000
vt 0.9126 0.2773 0.0000
vt 0.8409 0.1766 0.0000
vt 0.7938 0.2193 0.0000
vt 0.8423 0.2187 0.0000
vt 0.8407 0.2608 0.0000
vt 0.9730 0.1806 0.0000
vt 0.9635 0.2653 0.0000
vt 0.9127 0.1600 0.0000
vt 0.9984 0.2214 0.0000
vt 0.9092 0.2186 0.0000
vt 0.9126 0.2773 0.0000
vt 0.8409 0.1766 0.0000
vt 0.7938 0.2193 0.0000
vt 0.8423 0.2187 0.0000
vt 0.8407 0.2608 0.0000
vt 0.9730 0.1806 0.0000
vt 0.9635 0.2653 0.0000
vt 0.8252 0.0759 0.0000
vt 0.8810 0.0280 0.0000
vt 0.8873 0.0745 0.0000
vt 0.8870 0.1222 0.0000
vt 0.9563 0.0317 0.0000
vt 0.9491 0.0784 0.0000
vt 0.9566 0.1218 0.0000
vt 0.9955 0.0760 0.0000
vt 0.8252 0.0759 0.0000
vt 0.8810 0.0280 0.0000
vt 0.8873 0.0745 0.0000
vt 0.8870 0.1222 0.0000
vt 0.9563 0.0317 0.0000
vt 0.9491 0.0784 0.0000
vt 0.9566 0.1218 0.0000
vt 0.9955 0.0760 0.0000
vt 0.9127 0.1600 0.0000
vt 0.9984 0.2214 0.0000
vt 0.9092 0.2186 0.0000
vt 0.9126 0.2773 0.0000
vt 0.8409 0.1766 0.0000
vt 0.7938 0.2193 0.0000
vt 0.8423 0.2187 0.0000
vt 0.8407 0.2608 0.0000
vt 0.9730 0.1806 0.0000
vt 0.9635 0.2653 0.0000
vt 0.9127 0.1600 0.0000
vt 0.9984 0.2214 0.0000
vt 0.9092 0.2186 0.0000
vt 0.9126 0.2773 0.0000
vt 0.8409 0.1766 0.0000
vt 0.7938 0.2193 0.0000
vt 0.8423 0.2187 0.0000
vt 0.8407 0.2608 0.0000
vt 0.9730 0.1806 0.0000
vt 0.9635 0.2653 0.0000
vt 0.9127 0.1600 0.0000
vt 0.9984 0.2214 0.0000
vt 0.9092 0.2186 0.0000
vt 0.9126 0.2773 0.0000
vt 0.8409 0.1766 0.0000
vt 0.7938 0.2193 0.0000
vt 0.8423 0.2187 0.0000
vt 0.8407 0.2608 0.0000
vt 0.9730 0.1806 0.0000
vt 0.9635 0.2653 0.0000
vt 0.9127 0.1600 0.0000
vt 0.9984 0.2214 0.0000
vt 0.9092 0.2186 0.0000
vt 0.9126 0.2773 0.0000
vt 0.8409 0.1766 0.0000
vt 0.7938 0.2193 0.0000
vt 0.8423 0.2187 0.0000
vt 0.8407 0.2608 0.0000
vt 0.9730 0.1806 0.0000
vt 0.9635 0.2653 0.0000
vt 0.8252 0.0759 0.0000
vt 0.8810 0.0280 0.0000
vt 0.8873 0.0745 0.0000
vt 0.8870 0.1222 0.0000
vt 0.9563 0.0317 0.0000
vt 0.9491 0.0784 0.0000
vt 0.9566 0.1218 0.0000
vt 0.9955 0.0760 0.0000
vt 0.8252 0.0759 0.0000
vt 0.8810 0.0280 0.0000
vt 0.8873 0.0745 0.0000
vt 0.8870 0.1222 0.0000
vt 0.9563 0.0317 0.0000
vt 0.9491 0.0784 0.0000
vt 0.9566 0.1218 0.0000
vt 0.9955 0.0760 0.0000
vt 0.9127 0.1600 0.0000
vt 0.9984 0.2214 0.0000
vt 0.9092 0.2186 0.0000
vt 0.9126 0.2773 0.0000
vt 0.8409 0.1766 0.0000
vt 0.7938 0.2193 0.0000
vt 0.8423 0.2187 0.0000
vt 0.8407 0.2608 0.0000
vt 0.9730 0.1806 0.0000
vt 0.9635 0.2653 0.0000
vt 0.9127 0.1600 0.0000
vt 0.9984 0.2214 0.0000
vt 0.9092 0.2186 0.0000
vt 0.9126 0.2773 0.0000
vt 0.8409 0.1766 0.0000
vt 0.7938 0.2193 0.0000
vt 0.8423 0.2187 0.0000
vt 0.8407 0.2608 0.0000
vt 0.9730 0.1806 0.0000
vt 0.9635 0.2653 0.0000
vt 0.9127 0.1600 0.0000
vt 0.9984 0.2214 0.0000
vt 0.9092 0.2186 0.0000
vt 0.9126 0.2773 0.0000
vt 0.8409 0.1766 0.0000
vt 0.7938 0.2193 0.0000
vt 0.8423 0.2187 0.0000
vt 0.8407 0.2608 0.0000
vt 0.9730 0.1806 0.0000
vt 0.9635 0.2653 0.0000
vt 0.9127 0.1600 0.0000
vt 0.9984 0.2214 0.0000
vt 0.9092 0.2186 0.0000
vt 0.9126 0.2773 0.0000
vt 0.8409 0.1766 0.0000
vt 0.7938 0.2193 0.0000
vt 0.8423 0.2187 0.0000
vt 0.8407 0.2608 0.0000
vt 0.9730 0.1806 0.0000
vt 0.9635 0.2653 0.0000
vt 0.8252 0.0759 0.0000
vt 0.8810 0.0280 0.0000
vt 0.8873 0.0745 0.0000
vt 0.8870 0.1222 0.0000
vt 0.9563 0.0317 0.0000
vt 0.9491 0.0784 0.0000
vt 0.9566 0.1218 0.0000
vt 0.9955 0.0760 0.0000
vt 0.8252 0.0759 0.0000
vt 0.8810 0.0280 0.0000
vt 0.8873 0.0745 0.0000
vt 0.8870 0.1222 0.0000
vt 0.9563 0.0317 0.0000
vt 0.9491 0.0784 0.0000
vt 0.9566 0.1218 0.0000
vt 0.9955 0.0760 0.0000
vt 0.9127 0.1600 0.0000
vt 0.9984 0.2214 0.0000
vt 0.9092 0.2186 0.0000
vt 0.9126 0.2773 0.0000
vt 0.8409 0.1766 0.0000
vt 0.7938 0.2193 0.0000
vt 0.8423 0.2187 0.0000
vt 0.8407 0.2608 0.0000
vt 0.9730 0.1806 0.0000
vt 0.9635 0.2653 0.0000
vt 0.9127 0.1600 0.0000
vt 0.9984 0.2214 0.0000
vt 0.9092 0.2186 0.0000
vt 0.9126 0.2773 0.0000
vt 0.8409 0.1766 0.0000
vt 0.7938 0.2193 0.0000
vt 0.8423 0.2187 0.0000
vt 0.8407 0.2608 0.0000
vt 0.9730 0.1806 0.0000
vt 0.9635 0.2653 0.0000
vt 0.9127 0.1600 0.0000
vt 0.9984 0.2214 0.0000
vt 0.9092 0.2186 0.0000
vt 0.9126 0.2773 0.0000
vt 0.8409 0.1766 0.0000
vt 0.7938 0.2193 0.0000
vt 0.8423 0.2187 0.0000
vt 0.8407 0.2608 0.0000
vt 0.9730 0.1806 0.0000
vt 0.9635 0.2653 0.0000
vt 0.9127 0.1600 0.0000
vt 0.9984 0.2214 0.0000
vt 0.9092 0.2186 0.0000
vt 0.9126 0.2773 0.0000
vt 0.8409 0.1766 0.0000
vt 0.7938 0.2193 0.0000
vt 0.8423 0.2187 0.0000
vt 0.8407 0.2608 0.0000
vt 0.9730 0.1806 0.0000
vt 0.9635 0.2653 0.0000
# 504 texture coords

o ItemGorse
g ItemGorse
s 1
f 5/1/1 1/2/2 2/3/3 
f 5/1/4 2/3/5 3/4/6 
f 4/6/7 2/3/8 1/2/9 
f 1/2/10 9/5/11 4/6/12 
f 7/7/13 3/4/14 2/3/15 
f 2/3/16 4/6/17 7/7/18 
f 10/8/19 4/6/20 9/5/21 
f 10/8/22 7/7/23 4/6/24 
f 5/9/25 3/10/26 6/11/27 
f 5/9/28 6/11/29 1/12/30 
f 8/14/31 6/11/32 3/10/33 
f 3/10/34 7/13/35 8/14/36 
f 9/15/37 1/12/38 6/11/39 
f 6/11/40 8/14/41 9/15/42 
f 10/16/43 8/14/44 7/13/45 
f 10/16/46 9/15/47 8/14/48 
s 2
f 14/17/49 12/18/50 15/19/51 
s 1
f 15/19/52 12/18/53 16/20/54 
s 2
f 14/17/55 15/19/56 18/21/57 
s 1
f 17/22/58 19/23/59 20/24/60 
s 2
f 14/17/61 11/25/62 12/18/63 
s 1
f 12/18/64 13/26/65 16/20/66 
s 2
f 19/23/67 17/22/68 18/21/69 
s 1
f 19/23/70 15/19/71 20/24/72 
s 2
f 15/19/73 19/23/74 18/21/75 
s 1
f 15/19/76 16/20/77 20/24/78 
s 2
f 21/27/79 23/29/80 22/28/81 
s 1
f 23/29/82 24/30/83 22/28/84 
s 2
f 21/27/85 25/31/86 23/29/87 
s 1
f 26/32/88 28/34/89 27/33/90 
s 2
f 21/27/91 22/28/92 29/35/93 
s 1
f 22/28/94 24/30/95 30/36/96 
s 2
f 27/33/97 25/31/98 26/32/99 
s 1
f 27/33/100 28/34/101 23/29/102 
s 2
f 23/29/103 25/31/104 27/33/105 
s 1
f 23/29/106 28/34/107 24/30/108 
s 2
f 34/37/109 32/38/110 35/39/111 
s 1
f 35/39/112 32/38/113 36/40/114 
s 2
f 34/37/115 35/39/116 38/41/117 
s 1
f 37/42/118 39/43/119 40/44/120 
s 2
f 34/37/121 31/45/122 32/38/123 
s 1
f 32/38/124 33/46/125 36/40/126 
s 2
f 39/43/127 37/42/128 38/41/129 
s 1
f 39/43/130 35/39/131 40/44/132 
s 2
f 35/39/133 39/43/134 38/41/135 
s 1
f 35/39/136 36/40/137 40/44/138 
s 2
f 41/47/139 43/49/140 42/48/141 
s 1
f 43/49/142 44/50/143 42/48/144 
s 2
f 41/47/145 45/51/146 43/49/147 
s 1
f 46/52/148 48/54/149 47/53/150 
s 2
f 41/47/151 42/48/152 49/55/153 
s 1
f 42/48/154 44/50/155 50/56/156 
s 2
f 47/53/157 45/51/158 46/52/159 
s 1
f 47/53/160 48/54/161 43/49/162 
s 2
f 43/49/163 45/51/164 47/53/165 
s 1
f 43/49/166 48/54/167 44/50/168 
f 55/57/169 51/58/170 52/59/171 
f 55/57/172 52/59/173 53/60/174 
f 54/62/175 52/59/176 51/58/177 
f 51/58/178 59/61/179 54/62/180 
f 57/63/181 53/60/182 52/59/183 
f 52/59/184 54/62/185 57/63/186 
f 60/64/187 54/62/188 59/61/189 
f 60/64/190 57/63/191 54/62/192 
f 55/65/193 53/66/194 56/67/195 
f 55/65/196 56/67/197 51/68/198 
f 58/70/199 56/67/200 53/66/201 
f 53/66/202 57/69/203 58/70/204 
f 59/71/205 51/68/206 56/67/207 
f 56/67/208 58/70/209 59/71/210 
f 60/72/211 58/70/212 57/69/213 
f 60/72/214 59/71/215 58/70/216 
s 2
f 64/73/217 62/74/218 65/75/219 
s 1
f 65/75/220 62/74/221 66/76/222 
s 2
f 64/73/223 65/75/224 68/77/225 
s 1
f 67/78/226 69/79/227 70/80/228 
s 2
f 64/73/229 61/81/230 62/74/231 
s 1
f 62/74/232 63/82/233 66/76/234 
s 2
f 69/79/235 67/78/236 68/77/237 
s 1
f 69/79/238 65/75/239 70/80/240 
s 2
f 65/75/241 69/79/242 68/77/243 
s 1
f 65/75/244 66/76/245 70/80/246 
s 2
f 71/83/247 73/85/248 72/84/249 
s 1
f 73/85/250 74/86/251 72/84/252 
s 2
f 71/83/253 75/87/254 73/85/255 
s 1
f 76/88/256 78/90/257 77/89/258 
s 2
f 71/83/259 72/84/260 79/91/261 
s 1
f 72/84/262 74/86/263 80/92/264 
s 2
f 77/89/265 75/87/266 76/88/267 
s 1
f 77/89/268 78/90/269 73/85/270 
s 2
f 73/85/271 75/87/272 77/89/273 
s 1
f 73/85/274 78/90/275 74/86/276 
s 2
f 84/93/277 82/94/278 85/95/279 
s 1
f 85/95/280 82/94/281 86/96/282 
s 2
f 84/93/283 85/95/284 88/97/285 
s 1
f 87/98/286 89/99/287 90/100/288 
s 2
f 84/93/289 81/101/290 82/94/291 
s 1
f 82/94/292 83/102/293 86/96/294 
s 2
f 89/99/295 87/98/296 88/97/297 
s 1
f 89/99/298 85/95/299 90/100/300 
s 2
f 85/95/301 89/99/302 88/97/303 
s 1
f 85/95/304 86/96/305 90/100/306 
s 2
f 91/103/307 93/105/308 92/104/309 
s 1
f 93/105/310 94/106/311 92/104/312 
s 2
f 91/103/313 95/107/314 93/105/315 
s 1
f 96/108/316 98/110/317 97/109/318 
s 2
f 91/103/319 92/104/320 99/111/321 
s 1
f 92/104/322 94/106/323 100/112/324 
s 2
f 97/109/325 95/107/326 96/108/327 
s 1
f 97/109/328 98/110/329 93/105/330 
s 2
f 93/105/331 95/107/332 97/109/333 
s 1
f 93/105/334 98/110/335 94/106/336 
f 105/113/337 101/114/338 102/115/339 
f 105/113/340 102/115/341 103/116/342 
f 104/118/343 102/115/344 101/114/345 
f 101/114/346 109/117/347 104/118/348 
f 107/119/349 103/116/350 102/115/351 
f 102/115/352 104/118/353 107/119/354 
f 110/120/355 104/118/356 109/117/357 
f 110/120/358 107/119/359 104/118/360 
f 105/121/361 103/122/362 106/123/363 
f 105/121/364 106/123/365 101/124/366 
f 108/126/367 106/123/368 103/122/369 
f 103/122/370 107/125/371 108/126/372 
f 109/127/373 101/124/374 106/123/375 
f 106/123/376 108/126/377 109/127/378 
f 110/128/379 108/126/380 107/125/381 
f 110/128/382 109/127/383 108/126/384 
s 2
f 114/129/385 112/130/386 115/131/387 
s 1
f 115/131/388 112/130/389 116/132/390 
s 2
f 114/129/391 115/131/392 118/133/393 
s 1
f 117/134/394 119/135/395 120/136/396 
s 2
f 114/129/397 111/137/398 112/130/399 
s 1
f 112/130/400 113/138/401 116/132/402 
s 2
f 119/135/403 117/134/404 118/133/405 
s 1
f 119/135/406 115/131/407 120/136/408 
s 2
f 115/131/409 119/135/410 118/133/411 
s 1
f 115/131/412 116/132/413 120/136/414 
s 2
f 121/139/415 123/141/416 122/140/417 
s 1
f 123/141/418 124/142/419 122/140/420 
s 2
f 121/139/421 125/143/422 123/141/423 
s 1
f 126/144/424 128/146/425 127/145/426 
s 2
f 121/139/427 122/140/428 129/147/429 
s 1
f 122/140/430 124/142/431 130/148/432 
s 2
f 127/145/433 125/143/434 126/144/435 
s 1
f 127/145/436 128/146/437 123/141/438 
s 2
f 123/141/439 125/143/440 127/145/441 
s 1
f 123/141/442 128/146/443 124/142/444 
s 2
f 134/149/445 132/150/446 135/151/447 
s 1
f 135/151/448 132/150/449 136/152/450 
s 2
f 134/149/451 135/151/452 138/153/453 
s 1
f 137/154/454 139/155/455 140/156/456 
s 2
f 134/149/457 131/157/458 132/150/459 
s 1
f 132/150/460 133/158/461 136/152/462 
s 2
f 139/155/463 137/154/464 138/153/465 
s 1
f 139/155/466 135/151/467 140/156/468 
s 2
f 135/151/469 139/155/470 138/153/471 
s 1
f 135/151/472 136/152/473 140/156/474 
s 2
f 141/159/475 143/161/476 142/160/477 
s 1
f 143/161/478 144/162/479 142/160/480 
s 2
f 141/159/481 145/163/482 143/161/483 
s 1
f 146/164/484 148/166/485 147/165/486 
s 2
f 141/159/487 142/160/488 149/167/489 
s 1
f 142/160/490 144/162/491 150/168/492 
s 2
f 147/165/493 145/163/494 146/164/495 
s 1
f 147/165/496 148/166/497 143/161/498 
s 2
f 143/161/499 145/163/500 147/165/501 
s 1
f 143/161/502 148/166/503 144/162/504 
f 155/169/505 151/170/506 152/171/507 
f 155/169/508 152/171/509 153/172/510 
f 154/174/511 152/171/512 151/170/513 
f 151/170/514 159/173/515 154/174/516 
f 157/175/517 153/172/518 152/171/519 
f 152/171/520 154/174/521 157/175/522 
f 160/176/523 154/174/524 159/173/525 
f 160/176/526 157/175/527 154/174/528 
f 155/177/529 153/178/530 156/179/531 
f 155/177/532 156/179/533 151/180/534 
f 158/182/535 156/179/536 153/178/537 
f 153/178/538 157/181/539 158/182/540 
f 159/183/541 151/180/542 156/179/543 
f 156/179/544 158/182/545 159/183/546 
f 160/184/547 158/182/548 157/181/549 
f 160/184/550 159/183/551 158/182/552 
s 2
f 164/185/553 162/186/554 165/187/555 
s 1
f 165/187/556 162/186/557 166/188/558 
s 2
f 164/185/559 165/187/560 168/189/561 
s 1
f 167/190/562 169/191/563 170/192/564 
s 2
f 164/185/565 161/193/566 162/186/567 
s 1
f 162/186/568 163/194/569 166/188/570 
s 2
f 169/191/571 167/190/572 168/189/573 
s 1
f 169/191/574 165/187/575 170/192/576 
s 2
f 165/187/577 169/191/578 168/189/579 
s 1
f 165/187/580 166/188/581 170/192/582 
s 2
f 171/195/583 173/197/584 172/196/585 
s 1
f 173/197/586 174/198/587 172/196/588 
s 2
f 171/195/589 175/199/590 173/197/591 
s 1
f 176/200/592 178/202/593 177/201/594 
s 2
f 171/195/595 172/196/596 179/203/597 
s 1
f 172/196/598 174/198/599 180/204/600 
s 2
f 177/201/601 175/199/602 176/200/603 
s 1
f 177/201/604 178/202/605 173/197/606 
s 2
f 173/197/607 175/199/608 177/201/609 
s 1
f 173/197/610 178/202/611 174/198/612 
s 2
f 184/205/613 182/206/614 185/207/615 
s 1
f 185/207/616 182/206/617 186/208/618 
s 2
f 184/205/619 185/207/620 188/209/621 
s 1
f 187/210/622 189/211/623 190/212/624 
s 2
f 184/205/625 181/213/626 182/206/627 
s 1
f 182/206/628 183/214/629 186/208/630 
s 2
f 189/211/631 187/210/632 188/209/633 
s 1
f 189/211/634 185/207/635 190/212/636 
s 2
f 185/207/637 189/211/638 188/209/639 
s 1
f 185/207/640 186/208/641 190/212/642 
s 2
f 191/215/643 193/217/644 192/216/645 
s 1
f 193/217/646 194/218/647 192/216/648 
s 2
f 191/215/649 195/219/650 193/217/651 
s 1
f 196/220/652 198/222/653 197/221/654 
s 2
f 191/215/655 192/216/656 199/223/657 
s 1
f 192/216/658 194/218/659 200/224/660 
s 2
f 197/221/661 195/219/662 196/220/663 
s 1
f 197/221/664 198/222/665 193/217/666 
s 2
f 193/217/667 195/219/668 197/221/669 
s 1
f 193/217/670 198/222/671 194/218/672 
f 205/225/673 201/226/674 202/227/675 
f 205/225/676 202/227/677 203/228/678 
f 204/230/679 202/227/680 201/226/681 
f 201/226/682 209/229/683 204/230/684 
f 207/231/685 203/228/686 202/227/687 
f 202/227/688 204/230/689 207/231/690 
f 210/232/691 204/230/692 209/229/693 
f 210/232/694 207/231/695 204/230/696 
f 205/233/697 203/234/698 206/235/699 
f 205/233/700 206/235/701 201/236/702 
f 208/238/703 206/235/704 203/234/705 
f 203/234/706 207/237/707 208/238/708 
f 209/239/709 201/236/710 206/235/711 
f 206/235/712 208/238/713 209/239/714 
f 210/240/715 208/238/716 207/237/717 
f 210/240/718 209/239/719 208/238/720 
s 2
f 214/241/721 212/242/722 215/243/723 
s 1
f 215/243/724 212/242/725 216/244/726 
s 2
f 214/241/727 215/243/728 218/245/729 
s 1
f 217/246/730 219/247/731 220/248/732 
s 2
f 214/241/733 211/249/734 212/242/735 
s 1
f 212/242/736 213/250/737 216/244/738 
s 2
f 219/247/739 217/246/740 218/245/741 
s 1
f 219/247/742 215/243/743 220/248/744 
s 2
f 215/243/745 219/247/746 218/245/747 
s 1
f 215/243/748 216/244/749 220/248/750 
s 2
f 221/251/751 223/253/752 222/252/753 
s 1
f 223/253/754 224/254/755 222/252/756 
s 2
f 221/251/757 225/255/758 223/253/759 
s 1
f 226/256/760 228/258/761 227/257/762 
s 2
f 221/251/763 222/252/764 229/259/765 
s 1
f 222/252/766 224/254/767 230/260/768 
s 2
f 227/257/769 225/255/770 226/256/771 
s 1
f 227/257/772 228/258/773 223/253/774 
s 2
f 223/253/775 225/255/776 227/257/777 
s 1
f 223/253/778 228/258/779 224/254/780 
s 2
f 234/261/781 232/262/782 235/263/783 
s 1
f 235/263/784 232/262/785 236/264/786 
s 2
f 234/261/787 235/263/788 238/265/789 
s 1
f 237/266/790 239/267/791 240/268/792 
s 2
f 234/261/793 231/269/794 232/262/795 
s 1
f 232/262/796 233/270/797 236/264/798 
s 2
f 239/267/799 237/266/800 238/265/801 
s 1
f 239/267/802 235/263/803 240/268/804 
s 2
f 235/263/805 239/267/806 238/265/807 
s 1
f 235/263/808 236/264/809 240/268/810 
s 2
f 241/271/811 243/273/812 242/272/813 
s 1
f 243/273/814 244/274/815 242/272/816 
s 2
f 241/271/817 245/275/818 243/273/819 
s 1
f 246/276/820 248/278/821 247/277/822 
s 2
f 241/271/823 242/272/824 249/279/825 
s 1
f 242/272/826 244/274/827 250/280/828 
s 2
f 247/277/829 245/275/830 246/276/831 
s 1
f 247/277/832 248/278/833 243/273/834 
s 2
f 243/273/835 245/275/836 247/277/837 
s 1
f 243/273/838 248/278/839 244/274/840 
f 255/281/841 251/282/842 252/283/843 
f 255/281/844 252/283/845 253/284/846 
f 254/286/847 252/283/848 251/282/849 
f 251/282/850 259/285/851 254/286/852 
f 257/287/853 253/284/854 252/283/855 
f 252/283/856 254/286/857 257/287/858 
f 260/288/859 254/286/860 259/285/861 
f 260/288/862 257/287/863 254/286/864 
f 255/289/865 253/290/866 256/291/867 
f 255/289/868 256/291/869 251/292/870 
f 258/294/871 256/291/872 253/290/873 
f 253/290/874 257/293/875 258/294/876 
f 259/295/877 251/292/878 256/291/879 
f 256/291/880 258/294/881 259/295/882 
f 260/296/883 258/294/884 257/293/885 
f 260/296/886 259/295/887 258/294/888 
s 2
f 264/297/889 262/298/890 265/299/891 
s 1
f 265/299/892 262/298/893 266/300/894 
s 2
f 264/297/895 265/299/896 268/301/897 
s 1
f 267/302/898 269/303/899 270/304/900 
s 2
f 264/297/901 261/305/902 262/298/903 
s 1
f 262/298/904 263/306/905 266/300/906 
s 2
f 269/303/907 267/302/908 268/301/909 
s 1
f 269/303/910 265/299/911 270/304/912 
s 2
f 265/299/913 269/303/914 268/301/915 
s 1
f 265/299/916 266/300/917 270/304/918 
s 2
f 271/307/919 273/309/920 272/308/921 
s 1
f 273/309/922 274/310/923 272/308/924 
s 2
f 271/307/925 275/311/926 273/309/927 
s 1
f 276/312/928 278/314/929 277/313/930 
s 2
f 271/307/931 272/308/932 279/315/933 
s 1
f 272/308/934 274/310/935 280/316/936 
s 2
f 277/313/937 275/311/938 276/312/939 
s 1
f 277/313/940 278/314/941 273/309/942 
s 2
f 273/309/943 275/311/944 277/313/945 
s 1
f 273/309/946 278/314/947 274/310/948 
s 2
f 284/317/949 282/318/950 285/319/951 
s 1
f 285/319/952 282/318/953 286/320/954 
s 2
f 284/317/955 285/319/956 288/321/957 
s 1
f 287/322/958 289/323/959 290/324/960 
s 2
f 284/317/961 281/325/962 282/318/963 
s 1
f 282/318/964 283/326/965 286/320/966 
s 2
f 289/323/967 287/322/968 288/321/969 
s 1
f 289/323/970 285/319/971 290/324/972 
s 2
f 285/319/973 289/323/974 288/321/975 
s 1
f 285/319/976 286/320/977 290/324/978 
s 2
f 291/327/979 293/329/980 292/328/981 
s 1
f 293/329/982 294/330/983 292/328/984 
s 2
f 291/327/985 295/331/986 293/329/987 
s 1
f 296/332/988 298/334/989 297/333/990 
s 2
f 291/327/991 292/328/992 299/335/993 
s 1
f 292/328/994 294/330/995 300/336/996 
s 2
f 297/333/997 295/331/998 296/332/999 
s 1
f 297/333/1000 298/334/1001 293/329/1002 
s 2
f 293/329/1003 295/331/1004 297/333/1005 
s 1
f 293/329/1006 298/334/1007 294/330/1008 
f 305/337/1009 301/338/1010 302/339/1011 
f 305/337/1012 302/339/1013 303/340/1014 
f 304/342/1015 302/339/1016 301/338/1017 
f 301/338/1018 309/341/1019 304/342/1020 
f 307/343/1021 303/340/1022 302/339/1023 
f 302/339/1024 304/342/1025 307/343/1026 
f 310/344/1027 304/342/1028 309/341/1029 
f 310/344/1030 307/343/1031 304/342/1032 
f 305/345/1033 303/346/1034 306/347/1035 
f 305/345/1036 306/347/1037 301/348/1038 
f 308/350/1039 306/347/1040 303/346/1041 
f 303/346/1042 307/349/1043 308/350/1044 
f 309/351/1045 301/348/1046 306/347/1047 
f 306/347/1048 308/350/1049 309/351/1050 
f 310/352/1051 308/350/1052 307/349/1053 
f 310/352/1054 309/351/1055 308/350/1056 
s 2
f 314/353/1057 312/354/1058 315/355/1059 
s 1
f 315/355/1060 312/354/1061 316/356/1062 
s 2
f 314/353/1063 315/355/1064 318/357/1065 
s 1
f 317/358/1066 319/359/1067 320/360/1068 
s 2
f 314/353/1069 311/361/1070 312/354/1071 
s 1
f 312/354/1072 313/362/1073 316/356/1074 
s 2
f 319/359/1075 317/358/1076 318/357/1077 
s 1
f 319/359/1078 315/355/1079 320/360/1080 
s 2
f 315/355/1081 319/359/1082 318/357/1083 
s 1
f 315/355/1084 316/356/1085 320/360/1086 
s 2
f 321/363/1087 323/365/1088 322/364/1089 
s 1
f 323/365/1090 324/366/1091 322/364/1092 
s 2
f 321/363/1093 325/367/1094 323/365/1095 
s 1
f 326/368/1096 328/370/1097 327/369/1098 
s 2
f 321/363/1099 322/364/1100 329/371/1101 
s 1
f 322/364/1102 324/366/1103 330/372/1104 
s 2
f 327/369/1105 325/367/1106 326/368/1107 
s 1
f 327/369/1108 328/370/1109 323/365/1110 
s 2
f 323/365/1111 325/367/1112 327/369/1113 
s 1
f 323/365/1114 328/370/1115 324/366/1116 
s 2
f 334/373/1117 332/374/1118 335/375/1119 
s 1
f 335/375/1120 332/374/1121 336/376/1122 
s 2
f 334/373/1123 335/375/1124 338/377/1125 
s 1
f 337/378/1126 339/379/1127 340/380/1128 
s 2
f 334/373/1129 331/381/1130 332/374/1131 
s 1
f 332/374/1132 333/382/1133 336/376/1134 
s 2
f 339/379/1135 337/378/1136 338/377/1137 
s 1
f 339/379/1138 335/375/1139 340/380/1140 
s 2
f 335/375/1141 339/379/1142 338/377/1143 
s 1
f 335/375/1144 336/376/1145 340/380/1146 
s 2
f 341/383/1147 343/385/1148 342/384/1149 
s 1
f 343/385/1150 344/386/1151 342/384/1152 
s 2
f 341/383/1153 345/387/1154 343/385/1155 
s 1
f 346/388/1156 348/390/1157 347/389/1158 
s 2
f 341/383/1159 342/384/1160 349/391/1161 
s 1
f 342/384/1162 344/386/1163 350/392/1164 
s 2
f 347/389/1165 345/387/1166 346/388/1167 
s 1
f 347/389/1168 348/390/1169 343/385/1170 
s 2
f 343/385/1171 345/387/1172 347/389/1173 
s 1
f 343/385/1174 348/390/1175 344/386/1176 
f 355/393/1177 351/394/1178 352/395/1179 
f 355/393/1180 352/395/1181 353/396/1182 
f 354/398/1183 352/395/1184 351/394/1185 
f 351/394/1186 359/397/1187 354/398/1188 
f 357/399/1189 353/396/1190 352/395/1191 
f 352/395/1192 354/398/1193 357/399/1194 
f 360/400/1195 354/398/1196 359/397/1197 
f 360/400/1198 357/399/1199 354/398/1200 
f 355/401/1201 353/402/1202 356/403/1203 
f 355/401/1204 356/403/1205 351/404/1206 
f 358/406/1207 356/403/1208 353/402/1209 
f 353/402/1210 357/405/1211 358/406/1212 
f 359/407/1213 351/404/1214 356/403/1215 
f 356/403/1216 358/406/1217 359/407/1218 
f 360/408/1219 358/406/1220 357/405/1221 
f 360/408/1222 359/407/1223 358/406/1224 
s 2
f 364/409/1225 362/410/1226 365/411/1227 
s 1
f 365/411/1228 362/410/1229 366/412/1230 
s 2
f 364/409/1231 365/411/1232 368/413/1233 
s 1
f 367/414/1234 369/415/1235 370/416/1236 
s 2
f 364/409/1237 361/417/1238 362/410/1239 
s 1
f 362/410/1240 363/418/1241 366/412/1242 
s 2
f 369/415/1243 367/414/1244 368/413/1245 
s 1
f 369/415/1246 365/411/1247 370/416/1248 
s 2
f 365/411/1249 369/415/1250 368/413/1251 
s 1
f 365/411/1252 366/412/1253 370/416/1254 
s 2
f 371/419/1255 373/421/1256 372/420/1257 
s 1
f 373/421/1258 374/422/1259 372/420/1260 
s 2
f 371/419/1261 375/423/1262 373/421/1263 
s 1
f 376/424/1264 378/426/1265 377/425/1266 
s 2
f 371/419/1267 372/420/1268 379/427/1269 
s 1
f 372/420/1270 374/422/1271 380/428/1272 
s 2
f 377/425/1273 375/423/1274 376/424/1275 
s 1
f 377/425/1276 378/426/1277 373/421/1278 
s 2
f 373/421/1279 375/423/1280 377/425/1281 
s 1
f 373/421/1282 378/426/1283 374/422/1284 
s 2
f 384/429/1285 382/430/1286 385/431/1287 
s 1
f 385/431/1288 382/430/1289 386/432/1290 
s 2
f 384/429/1291 385/431/1292 388/433/1293 
s 1
f 387/434/1294 389/435/1295 390/436/1296 
s 2
f 384/429/1297 381/437/1298 382/430/1299 
s 1
f 382/430/1300 383/438/1301 386/432/1302 
s 2
f 389/435/1303 387/434/1304 388/433/1305 
s 1
f 389/435/1306 385/431/1307 390/436/1308 
s 2
f 385/431/1309 389/435/1310 388/433/1311 
s 1
f 385/431/1312 386/432/1313 390/436/1314 
s 2
f 391/439/1315 393/441/1316 392/440/1317 
s 1
f 393/441/1318 394/442/1319 392/440/1320 
s 2
f 391/439/1321 395/443/1322 393/441/1323 
s 1
f 396/444/1324 398/446/1325 397/445/1326 
s 2
f 391/439/1327 392/440/1328 399/447/1329 
s 1
f 392/440/1330 394/442/1331 400/448/1332 
s 2
f 397/445/1333 395/443/1334 396/444/1335 
s 1
f 397/445/1336 398/446/1337 393/441/1338 
s 2
f 393/441/1339 395/443/1340 397/445/1341 
s 1
f 393/441/1342 398/446/1343 394/442/1344 
f 405/449/1345 401/450/1346 402/451/1347 
f 405/449/1348 402/451/1349 403/452/1350 
f 404/454/1351 402/451/1352 401/450/1353 
f 401/450/1354 409/453/1355 404/454/1356 
f 407/455/1357 403/452/1358 402/451/1359 
f 402/451/1360 404/454/1361 407/455/1362 
f 410/456/1363 404/454/1364 409/453/1365 
f 410/456/1366 407/455/1367 404/454/1368 
f 405/457/1369 403/458/1370 406/459/1371 
f 405/457/1372 406/459/1373 401/460/1374 
f 408/462/1375 406/459/1376 403/458/1377 
f 403/458/1378 407/461/1379 408/462/1380 
f 409/463/1381 401/460/1382 406/459/1383 
f 406/459/1384 408/462/1385 409/463/1386 
f 410/464/1387 408/462/1388 407/461/1389 
f 410/464/1390 409/463/1391 408/462/1392 
s 2
f 414/465/1393 412/466/1394 415/467/1395 
s 1
f 415/467/1396 412/466/1397 416/468/1398 
s 2
f 414/465/1399 415/467/1400 418/469/1401 
s 1
f 417/470/1402 419/471/1403 420/472/1404 
s 2
f 414/465/1405 411/473/1406 412/466/1407 
s 1
f 412/466/1408 413/474/1409 416/468/1410 
s 2
f 419/471/1411 417/470/1412 418/469/1413 
s 1
f 419/471/1414 415/467/1415 420/472/1416 
s 2
f 415/467/1417 419/471/1418 418/469/1419 
s 1
f 415/467/1420 416/468/1421 420/472/1422 
s 2
f 421/475/1423 423/477/1424 422/476/1425 
s 1
f 423/477/1426 424/478/1427 422/476/1428 
s 2
f 421/475/1429 425/479/1430 423/477/1431 
s 1
f 426/480/1432 428/482/1433 427/481/1434 
s 2
f 421/475/1435 422/476/1436 429/483/1437 
s 1
f 422/476/1438 424/478/1439 430/484/1440 
s 2
f 427/481/1441 425/479/1442 426/480/1443 
s 1
f 427/481/1444 428/482/1445 423/477/1446 
s 2
f 423/477/1447 425/479/1448 427/481/1449 
s 1
f 423/477/1450 428/482/1451 424/478/1452 
s 2
f 434/485/1453 432/486/1454 435/487/1455 
s 1
f 435/487/1456 432/486/1457 436/488/1458 
s 2
f 434/485/1459 435/487/1460 438/489/1461 
s 1
f 437/490/1462 439/491/1463 440/492/1464 
s 2
f 434/485/1465 431/493/1466 432/486/1467 
s 1
f 432/486/1468 433/494/1469 436/488/1470 
s 2
f 439/491/1471 437/490/1472 438/489/1473 
s 1
f 439/491/1474 435/487/1475 440/492/1476 
s 2
f 435/487/1477 439/491/1478 438/489/1479 
s 1
f 435/487/1480 436/488/1481 440/492/1482 
s 2
f 441/495/1483 443/497/1484 442/496/1485 
s 1
f 443/497/1486 444/498/1487 442/496/1488 
s 2
f 441/495/1489 445/499/1490 443/497/1491 
s 1
f 446/500/1492 448/502/1493 447/501/1494 
s 2
f 441/495/1495 442/496/1496 449/503/1497 
s 1
f 442/496/1498 444/498/1499 450/504/1500 
s 2
f 447/501/1501 445/499/1502 446/500/1503 
s 1
f 447/501/1504 448/502/1505 443/497/1506 
s 2
f 443/497/1507 445/499/1508 447/501/1509 
s 1
f 443/497/1510 448/502/1511 444/498/1512 
# 504 faces

