# Blender v3.3.0 OBJ File: ''
# www.blender.org
o CornStageDead.005
v 0.009232 -0.029299 -0.015989
v 0.023743 0.284853 -0.016684
v 0.034391 0.288869 -0.001939
v 0.018463 -0.029299 -0.000000
v -0.009232 -0.029299 -0.015989
v 0.005424 0.283275 -0.014745
v -0.018463 -0.029299 -0.000000
v -0.002246 0.285712 0.001939
v -0.009232 -0.029299 0.015989
v 0.008403 0.289727 0.016684
v 0.009232 -0.029299 0.015989
v 0.026722 0.291306 0.014745
v 0.058327 0.765518 -0.022603
v 0.113842 0.812870 -0.038636
v 0.116127 0.810381 -0.033377
v 0.060747 0.764478 -0.014112
v 0.053544 0.772627 -0.025098
v 0.112753 0.819038 -0.039019
v 0.051179 0.778695 -0.019101
v 0.113950 0.822718 -0.034142
v 0.053599 0.777655 -0.010610
v 0.116235 0.820229 -0.028883
v 0.058382 0.770546 -0.008115
v 0.117323 0.814061 -0.028500
v 0.007904 0.609835 -0.013666
v 0.015515 0.610848 -0.000560
v -0.007333 0.610380 -0.013503
v -0.014960 0.611939 -0.000236
v -0.007349 0.612952 0.012869
v 0.007889 0.612407 0.012707
v 0.032913 0.470382 0.067552
v 0.015431 0.429117 0.052745
v 0.063143 0.418597 0.014846
v 0.087246 0.458402 0.024392
v 0.057076 0.427964 -0.046035
v 0.080338 0.469069 -0.044938
v 0.001975 0.399279 -0.010644
v 0.138069 0.532493 0.047432
v 0.105611 0.550058 0.090409
v 0.147022 0.549426 -0.005733
v 0.172719 0.542725 0.091478
v 0.173445 0.533486 0.062806
v 0.192351 0.504142 0.071760
v 0.194072 0.542486 0.042796
v 0.032913 0.471773 0.067552
v 0.087246 0.459793 0.024392
v 0.063143 0.419988 0.014846
v 0.015431 0.430508 0.052745
v 0.080338 0.470460 -0.044938
v 0.057076 0.429355 -0.046035
v 0.001975 0.400670 -0.010644
v 0.138069 0.533884 0.047432
v 0.105611 0.551449 0.090409
v 0.147022 0.550817 -0.005733
v 0.172719 0.544116 0.091478
v 0.192351 0.505533 0.071760
v 0.173445 0.534877 0.062806
v 0.194072 0.543877 0.042796
v -0.088259 0.303412 -0.020951
v -0.059392 0.248173 -0.031308
v -0.047390 0.234090 0.049371
v -0.074589 0.287374 0.070924
v 0.027248 0.246629 0.083086
v 0.010407 0.301653 0.109319
v 0.023101 0.208231 -0.004480
v -0.135316 0.386555 0.114421
v -0.163414 0.410067 0.048028
v -0.079674 0.409221 0.160385
v -0.209570 0.400251 0.125109
v -0.176816 0.387884 0.145142
v -0.199850 0.348603 0.161066
v -0.167424 0.399931 0.182447
v -0.088259 0.305274 -0.020951
v -0.074589 0.289236 0.070924
v -0.047390 0.235952 0.049371
v -0.059392 0.250035 -0.031308
v 0.010407 0.303515 0.109319
v 0.027248 0.248491 0.083086
v 0.023101 0.210093 -0.004480
v -0.135316 0.388416 0.114421
v -0.163414 0.411929 0.048028
v -0.079674 0.411083 0.160385
v -0.209570 0.402113 0.125109
v -0.199850 0.350465 0.161066
v -0.176816 0.389745 0.145142
v -0.167424 0.401793 0.182447
v -0.035404 0.641703 -0.081579
v -0.017921 0.600438 -0.066772
v -0.065633 0.589918 -0.028872
v -0.089737 0.629723 -0.038418
v -0.059567 0.599285 0.032009
v -0.082829 0.640390 0.030912
v -0.004465 0.570600 -0.003382
v -0.140559 0.703814 -0.061459
v -0.108101 0.721379 -0.104436
v -0.149513 0.720747 -0.008293
v -0.175209 0.714046 -0.105505
v -0.175936 0.704807 -0.076833
v -0.194841 0.675463 -0.085786
v -0.196562 0.713807 -0.056822
v -0.035404 0.643094 -0.081579
v -0.089737 0.631114 -0.038418
v -0.065633 0.591309 -0.028872
v -0.017921 0.601829 -0.066772
v -0.082829 0.641781 0.030912
v -0.059567 0.600676 0.032009
v -0.004465 0.571991 -0.003382
v -0.140559 0.705205 -0.061459
v -0.108101 0.722770 -0.104436
v -0.149513 0.722138 -0.008293
v -0.175209 0.715437 -0.105505
v -0.194841 0.676854 -0.085786
v -0.175936 0.706198 -0.076833
v -0.196562 0.715198 -0.056822
v 0.118637 0.195624 -0.005322
v 0.092008 0.140385 0.009890
v 0.066178 0.126302 -0.067479
v 0.089222 0.179586 -0.093428
v -0.013181 0.138841 -0.087721
v -0.001151 0.193866 -0.116480
v 0.006110 0.100443 -0.002205
v 0.141473 0.278767 -0.146808
v 0.180673 0.302280 -0.086304
v 0.078695 0.301433 -0.182412
v 0.212742 0.292464 -0.170229
v 0.177008 0.280096 -0.184270
v 0.196926 0.240816 -0.203952
v 0.161280 0.292143 -0.219377
v 0.118637 0.197486 -0.005322
v 0.089222 0.181448 -0.093428
v 0.066178 0.128164 -0.067479
v 0.092008 0.142247 0.009890
v -0.001151 0.195727 -0.116480
v -0.013181 0.140703 -0.087721
v 0.006109 0.102305 -0.002205
v 0.141473 0.280629 -0.146808
v 0.180673 0.304142 -0.086304
v 0.078695 0.303295 -0.182412
v 0.212742 0.294326 -0.170229
v 0.196926 0.242677 -0.203952
v 0.177008 0.281958 -0.184270
v 0.161280 0.294005 -0.219377
v -0.012423 0.619161 -0.009909
v -0.032104 0.657926 -0.017029
v -0.044398 0.652034 -0.005880
v -0.027729 0.611422 -0.002192
v -0.007848 0.618367 -0.025399
v -0.029805 0.658135 -0.032862
v -0.016683 0.609506 -0.039588
v -0.038729 0.656734 -0.048927
v -0.019501 0.586596 -0.018935
v -0.057372 0.706658 -0.026003
v -0.070455 0.703746 -0.017134
v -0.051600 0.704002 -0.042007
v -0.061308 0.704646 -0.058330
v -0.061234 0.725070 -0.030741
v -0.071969 0.730832 -0.022996
v -0.057607 0.723702 -0.041643
v -0.060591 0.725895 -0.053926
v -0.063510 0.738014 -0.025982
v -0.058351 0.735332 -0.032434
v -0.053726 0.741625 -0.034513
v -0.055744 0.743660 -0.029229
v -0.056308 0.734856 -0.038915
v -0.056538 0.736141 -0.047163
v -0.052635 0.742747 -0.040107
v -0.052971 0.744376 -0.034265
v -0.021683 0.605717 0.007608
v -0.033422 0.628534 0.013828
v -0.055682 0.616267 0.008454
v -0.040413 0.593035 0.003423
v -0.007319 0.610613 -0.009679
v -0.016738 0.633855 -0.005761
v -0.019957 0.590340 -0.008662
v -0.080444 0.683586 -0.002600
v -0.084434 0.664327 0.006145
v -0.060231 0.685153 -0.009363
v -0.108360 0.707692 0.005238
v -0.100709 0.710182 0.000973
v -0.103240 0.714599 0.006398
v -0.087128 0.707943 -0.001256
v -0.009843 0.600481 -0.045980
v -0.016342 0.624405 -0.057412
v -0.011385 0.633201 -0.034026
v -0.006034 0.607911 -0.024545
v -0.028527 0.587787 -0.050333
v -0.037666 0.612602 -0.063672
v -0.017088 0.587257 -0.029342
v -0.059527 0.676139 -0.074090
v -0.054990 0.689863 -0.056261
v -0.059626 0.656791 -0.081571
v -0.070811 0.709485 -0.084266
v -0.078210 0.705378 -0.091901
v -0.076262 0.708394 -0.098965
v -0.081407 0.701184 -0.098820
v -0.045140 0.645145 -0.049324
v -0.092840 0.711819 -0.058092
v -0.088518 0.717044 -0.046905
v -0.039799 0.652035 -0.034534
v -0.058971 0.635850 -0.053445
v -0.103255 0.704639 -0.061434
v -0.075822 0.627786 -0.045326
v -0.111685 0.700291 -0.057391
v -0.021441 0.619866 -0.026149
v -0.044980 0.653772 -0.014912
v -0.027324 0.620779 -0.008359
v -0.025790 0.613376 -0.041724
v -0.040195 0.604016 -0.044653
v -0.055335 0.597105 -0.035998
v -0.036685 0.601191 -0.020245
v -0.090901 0.717787 -0.036898
v -0.113624 0.729623 -0.052279
v -0.075673 0.636433 -0.010918
v -0.061850 0.645744 -0.006798
v -0.099599 0.713882 -0.032967
v -0.110122 0.706888 -0.036353
v -0.081020 0.629559 -0.025711
v -0.114335 0.701477 -0.047496
v -0.042465 0.613868 0.000296
v -0.056868 0.604509 -0.002632
v -0.061218 0.598018 -0.018209
v -0.032542 0.594200 -0.018442
v -0.035094 0.602563 -0.001931
v -0.045568 0.595375 -0.005955
v -0.024180 0.607763 -0.008486
v -0.020993 0.606758 -0.021429
v -0.024815 0.601746 -0.032942
v -0.035422 0.594413 -0.036458
v -0.046147 0.589370 -0.029726
v -0.049606 0.590144 -0.017053
v -0.042619 0.615809 -0.002397
v -0.054674 0.607437 -0.007018
v -0.029909 0.621551 -0.009929
v -0.025965 0.620337 -0.024825
v -0.030432 0.614355 -0.038090
v -0.042764 0.605952 -0.042154
v -0.055285 0.600367 -0.034446
v -0.059525 0.601392 -0.019829
v 0.014038 0.470301 -0.023854
v 0.036311 0.519944 -0.008948
v 0.055024 0.512398 -0.019023
v 0.035438 0.460391 -0.028738
v 0.003584 0.469285 -0.006007
v 0.028581 0.520211 0.010025
v 0.010200 0.457937 0.014348
v 0.034731 0.518417 0.032742
v 0.020058 0.428600 -0.010457
v 0.064959 0.582349 0.009982
v 0.083951 0.578619 0.002984
v 0.052860 0.578947 0.028101
v 0.059904 0.579772 0.051378
v 0.068302 0.605926 0.017060
v 0.084030 0.613305 0.010736
v 0.060439 0.604175 0.029496
v 0.060368 0.606982 0.045683
v 0.072595 0.622503 0.011846
v 0.064197 0.619067 0.018278
v 0.057809 0.627127 0.019439
v 0.061943 0.629733 0.013492
v 0.059663 0.618458 0.025706
v 0.057411 0.620104 0.036029
v 0.054730 0.628562 0.026057
v 0.056946 0.630649 0.018898
v 0.030939 0.453086 -0.042780
v 0.047445 0.482304 -0.046899
v 0.073461 0.466596 -0.033370
v 0.052933 0.436845 -0.031814
v 0.007763 0.459355 -0.025711
v 0.020678 0.489119 -0.027684
v 0.023786 0.433394 -0.023087
v 0.100840 0.552802 -0.012009
v 0.108492 0.528140 -0.021652
v 0.073633 0.554809 -0.009822
v 0.137953 0.583673 -0.013162
v 0.127130 0.586862 -0.010214
v 0.131946 0.592517 -0.016178
v 0.109562 0.583994 -0.011622
v -0.000269 0.446380 0.020190
v 0.004292 0.477018 0.036400
v 0.005326 0.488282 0.005805
v 0.001592 0.455896 -0.007627
v 0.021616 0.430125 0.031350
v 0.028872 0.461903 0.050744
v 0.013856 0.429447 0.001737
v 0.052841 0.543266 0.070420
v 0.052688 0.560842 0.046862
v 0.050661 0.518490 0.079750
v 0.063735 0.585968 0.086541
v 0.070584 0.580709 0.098309
v 0.065989 0.584571 0.106491
v 0.072429 0.575338 0.107894
v 0.042578 0.503576 0.035208
v 0.099173 0.588957 0.060786
v 0.097243 0.595648 0.045549
v 0.040490 0.512400 0.015180
v 0.058502 0.491673 0.044587
v 0.111091 0.579763 0.068145
v 0.081948 0.481347 0.039680
v 0.122815 0.574195 0.065713
v 0.020250 0.471205 -0.000892
v 0.052968 0.514624 -0.007617
v 0.033037 0.472374 -0.021196
v 0.020863 0.462894 0.019806
v 0.037868 0.450908 0.027880
v 0.059351 0.442058 0.021780
v 0.041016 0.447290 -0.003541
v 0.103284 0.596599 0.033844
v 0.126798 0.611757 0.059955
v 0.092350 0.492420 -0.003137
v 0.076435 0.504343 -0.012512
v 0.115307 0.591599 0.031633
v 0.127346 0.582642 0.039081
v 0.094444 0.483617 0.016897
v 0.129154 0.575714 0.054229
v 0.054521 0.463523 -0.027296
v 0.071524 0.451539 -0.019223
v 0.072138 0.443226 0.001478
v 0.036421 0.438337 -0.007057
v 0.044674 0.449047 -0.026795
v 0.056455 0.439842 -0.018570
v 0.029090 0.455706 -0.022006
v 0.021146 0.454419 -0.006898
v 0.022354 0.448001 0.008589
v 0.034457 0.438611 0.016225
v 0.049861 0.432152 0.011157
v 0.058060 0.433143 -0.003533
v 0.053884 0.466010 -0.023900
v 0.067447 0.455288 -0.014446
v 0.035768 0.473363 -0.018449
v 0.026281 0.471808 -0.001146
v 0.027752 0.464148 0.016718
v 0.041831 0.453387 0.025565
v 0.059766 0.446235 0.019836
v 0.069536 0.447547 0.002971
v 0.008420 0.292982 0.013320
v -0.013165 0.342625 0.029205
v -0.010047 0.335079 0.050228
v 0.005743 0.283072 0.035107
v -0.004814 0.291966 -0.002575
v -0.028385 0.342892 0.015489
v -0.026207 0.280618 -0.003267
v -0.051840 0.341098 0.013557
v -0.006226 0.251281 0.014432
v -0.040703 0.405030 0.049719
v -0.040572 0.401300 0.069959
v -0.053633 0.401628 0.032184
v -0.077919 0.402453 0.030902
v -0.048495 0.428607 0.050458
v -0.047890 0.435986 0.067399
v -0.057520 0.426856 0.038838
v -0.072720 0.429663 0.033273
v -0.045049 0.445184 0.056268
v -0.048246 0.441748 0.046184
v -0.047167 0.449808 0.039781
v -0.042979 0.452413 0.045690
v -0.053692 0.441138 0.039396
v -0.062635 0.442785 0.033771
v -0.052346 0.451243 0.034637
v -0.046366 0.453330 0.039154
v 0.020479 0.275767 0.035646
v 0.018746 0.304985 0.052569
v -0.002817 0.289277 0.072442
v 0.002693 0.259526 0.052607
v 0.012298 0.282036 0.008050
v 0.009766 0.311800 0.020867
v 0.004387 0.256075 0.022228
v -0.032208 0.375483 0.090937
v -0.025738 0.350821 0.101409
v -0.025022 0.377490 0.064605
v -0.043731 0.406354 0.126234
v -0.042828 0.409543 0.115054
v -0.038853 0.415198 0.121609
v -0.035534 0.406675 0.099008
v -0.028144 0.269061 -0.015098
v -0.044940 0.299698 -0.016315
v -0.016515 0.310963 -0.004949
v -0.002614 0.278577 -0.003897
v -0.046075 0.252806 0.001695
v -0.066781 0.284584 0.001931
v -0.015587 0.252128 0.004456
v -0.093429 0.365947 0.017790
v -0.071220 0.383522 0.025649
v -0.101464 0.341171 0.012571
v -0.112293 0.408649 0.022560
v -0.125687 0.403390 0.025004
v -0.131822 0.407252 0.017902
v -0.135329 0.398019 0.023483
v -0.056825 0.326257 0.020099
v -0.100107 0.411638 0.064640
v -0.085121 0.418329 0.068000
v -0.037278 0.335081 0.024939
v -0.071056 0.314354 0.031891
v -0.111077 0.402444 0.073349
v -0.074405 0.304028 0.055608
v -0.112772 0.396876 0.085202
v -0.015286 0.293886 0.011362
v -0.020076 0.337305 0.044420
v -0.000534 0.295055 0.030287
v -0.034962 0.285575 0.004908
v -0.048333 0.273589 0.018158
v -0.049894 0.264738 0.040436
v -0.019850 0.269971 0.031794
v -0.076164 0.419280 0.077659
v -0.108710 0.434438 0.090904
v -0.037668 0.315101 0.079937
v -0.023444 0.327024 0.068154
v -0.078169 0.414280 0.089717
v -0.089264 0.405323 0.098510
v -0.057222 0.306298 0.075102
v -0.104125 0.398395 0.095065
v -0.002095 0.286204 0.052565
v -0.015464 0.274220 0.065815
v -0.035142 0.265907 0.059360
v -0.014981 0.261018 0.028666
v 0.000779 0.271728 0.043134
v -0.010959 0.262523 0.051420
v 0.001569 0.278386 0.026849
v -0.009942 0.277100 0.014245
v -0.024919 0.270682 0.010121
v -0.036212 0.261292 0.018910
v -0.036678 0.254833 0.035119
v -0.025647 0.255824 0.047821
v -0.005073 0.288691 0.050813
v -0.018572 0.277969 0.060358
v -0.004046 0.296044 0.031922
v -0.017096 0.294489 0.017122
v -0.034398 0.286829 0.012436
v -0.047501 0.276068 0.022672
v -0.048206 0.268916 0.041487
v -0.035663 0.270228 0.056405
v 0.113842 0.812870 -0.038636
v 0.272422 0.871131 -0.101234
v 0.116127 0.810381 -0.033377
v 0.112753 0.819038 -0.039019
v 0.113950 0.822718 -0.034142
v 0.116235 0.820229 -0.028883
v 0.117323 0.814061 -0.028500
v 0.118143 0.813891 -0.036551
v 0.120605 0.815598 -0.030560
v 0.118854 0.821969 -0.031656
v 0.116392 0.820262 -0.037647
v 0.216117 0.837613 -0.088513
v 0.216124 0.828775 -0.085922
v 0.221708 0.840253 -0.081686
v 0.221715 0.831415 -0.079095
v 0.268301 0.823346 -0.120506
v 0.270529 0.832381 -0.124296
v 0.302650 0.816041 -0.145729
v 0.278354 0.835218 -0.118668
v 0.276127 0.826183 -0.114878
v 0.109636 0.811984 -0.033565
v 0.112511 0.814360 -0.029786
v 0.112887 0.818709 -0.032806
v 0.110012 0.816334 -0.036585
v 0.183372 0.777994 -0.075339
v 0.180599 0.771721 -0.069192
v 0.190335 0.780956 -0.070088
v 0.187562 0.774683 -0.063940
v 0.222830 0.733554 -0.095797
v 0.227597 0.738666 -0.103015
v 0.249016 0.704307 -0.113916
v 0.236555 0.740467 -0.098834
v 0.231787 0.735355 -0.091616
v 0.104336 0.812928 -0.029745
v 0.105528 0.809252 -0.031727
v 0.108107 0.810051 -0.028490
v 0.107543 0.812414 -0.026863
v 0.156158 0.868764 -0.075149
v 0.148048 0.868398 -0.079499
v 0.160140 0.862649 -0.080769
v 0.152030 0.862283 -0.085119
v 0.171696 0.912243 -0.117792
v 0.181159 0.914116 -0.114981
v 0.184305 0.944338 -0.143876
v 0.186494 0.909508 -0.122141
v 0.177031 0.907635 -0.124952
v 0.120067 0.822855 -0.036319
v 0.120824 0.819227 -0.041897
v 0.125584 0.815599 -0.038892
v 0.124827 0.819227 -0.033313
v 0.205003 0.892416 -0.067914
v 0.196922 0.895488 -0.071090
v 0.207764 0.889343 -0.076146
v 0.199683 0.892416 -0.079322
v 0.227765 0.948307 -0.085473
v 0.237436 0.947077 -0.083037
v 0.245737 0.986728 -0.093853
v 0.241786 0.945847 -0.092011
v 0.232116 0.947077 -0.094446
v 0.108926 0.812446 -0.027125
v 0.107961 0.815950 -0.030994
v 0.109109 0.812253 -0.034628
v 0.110073 0.808749 -0.030758
v 0.197138 0.835031 -0.017326
v 0.192716 0.840492 -0.011372
v 0.198020 0.841643 -0.023677
v 0.193597 0.847104 -0.017723
v 0.249842 0.857887 0.008172
v 0.256683 0.853146 0.002543
v 0.287699 0.869558 0.025493
v 0.259982 0.860478 -0.003483
v 0.253142 0.865219 0.002146
v 0.107105 0.812306 -0.033592
v 0.109938 0.808295 -0.031574
v 0.111567 0.811435 -0.027617
v 0.108735 0.815447 -0.029634
v 0.174566 0.846907 -0.081742
v 0.169836 0.840897 -0.086874
v 0.181313 0.840925 -0.079863
v 0.176582 0.834915 -0.084995
v 0.206097 0.859919 -0.134532
v 0.212651 0.866673 -0.131010
v 0.227618 0.873063 -0.169653
v 0.221221 0.861433 -0.130741
v 0.214667 0.854680 -0.134263
vt 0.004300 0.004600
vt 0.448900 0.004600
vt 0.448900 0.025400
vt 0.004300 0.025400
vt 0.004300 0.025400
vt 0.448900 0.025400
vt 0.004300 0.050200
vt 0.448900 0.050200
vt 0.004300 0.070400
vt 0.448900 0.070400
vt 0.004300 0.050200
vt 0.448900 0.050200
vt 0.900900 0.004600
vt 0.945400 0.021700
vt 0.945400 0.032100
vt 0.900900 0.025400
vt 0.900900 0.025400
vt 0.945400 0.032100
vt 0.900900 0.050200
vt 0.945400 0.044600
vt 0.900900 0.070400
vt 0.945400 0.054600
vt 0.900900 0.050200
vt 0.945400 0.044600
vt 0.674900 0.004600
vt 0.674900 0.025400
vt 0.674900 0.025400
vt 0.674900 0.050200
vt 0.674900 0.070400
vt 0.674900 0.050200
vt 0.652700 0.721400
vt 0.652300 0.676500
vt 0.595000 0.677200
vt 0.589800 0.727500
vt 0.550000 0.648700
vt 0.524800 0.703600
vt 0.619900 0.614200
vt 0.590600 0.836900
vt 0.652400 0.824000
vt 0.524000 0.833400
vt 0.637900 0.881200
vt 0.601600 0.882900
vt 0.616100 0.922500
vt 0.568500 0.894300
vt 0.652700 0.721400
vt 0.589800 0.727500
vt 0.595000 0.677200
vt 0.652300 0.676500
vt 0.524800 0.703600
vt 0.550000 0.648700
vt 0.619900 0.614200
vt 0.590600 0.836900
vt 0.652400 0.824000
vt 0.524000 0.833400
vt 0.637900 0.881200
vt 0.616100 0.922500
vt 0.601600 0.882900
vt 0.568500 0.894300
vt 0.652700 0.721400
vt 0.652300 0.676500
vt 0.595000 0.677200
vt 0.589800 0.727500
vt 0.550000 0.648700
vt 0.524800 0.703600
vt 0.619900 0.614200
vt 0.590600 0.836900
vt 0.652400 0.824000
vt 0.524000 0.833400
vt 0.637900 0.881200
vt 0.601600 0.882900
vt 0.616100 0.922500
vt 0.568500 0.894300
vt 0.652700 0.721400
vt 0.589800 0.727500
vt 0.595000 0.677200
vt 0.652300 0.676500
vt 0.524800 0.703600
vt 0.550000 0.648700
vt 0.619900 0.614200
vt 0.590600 0.836900
vt 0.652400 0.824000
vt 0.524000 0.833400
vt 0.637900 0.881200
vt 0.616100 0.922500
vt 0.601600 0.882900
vt 0.568500 0.894300
vt 0.652700 0.721400
vt 0.652300 0.676500
vt 0.595000 0.677200
vt 0.589800 0.727500
vt 0.550000 0.648700
vt 0.524800 0.703600
vt 0.619900 0.614200
vt 0.590600 0.836900
vt 0.652400 0.824000
vt 0.524000 0.833400
vt 0.637900 0.881200
vt 0.601600 0.882900
vt 0.616100 0.922500
vt 0.568500 0.894300
vt 0.652700 0.721400
vt 0.589800 0.727500
vt 0.595000 0.677200
vt 0.652300 0.676500
vt 0.524800 0.703600
vt 0.550000 0.648700
vt 0.619900 0.614200
vt 0.590600 0.836900
vt 0.652400 0.824000
vt 0.524000 0.833400
vt 0.637900 0.881200
vt 0.616100 0.922500
vt 0.601600 0.882900
vt 0.568500 0.894300
vt 0.652700 0.721400
vt 0.652300 0.676500
vt 0.595000 0.677200
vt 0.589800 0.727500
vt 0.550000 0.648700
vt 0.524800 0.703600
vt 0.619900 0.614200
vt 0.590600 0.836900
vt 0.652400 0.824000
vt 0.524000 0.833400
vt 0.637900 0.881200
vt 0.601600 0.882900
vt 0.616100 0.922500
vt 0.568500 0.894300
vt 0.652700 0.721400
vt 0.589800 0.727500
vt 0.595000 0.677200
vt 0.652300 0.676500
vt 0.524800 0.703600
vt 0.550000 0.648700
vt 0.619900 0.614200
vt 0.590600 0.836900
vt 0.652400 0.824000
vt 0.524000 0.833400
vt 0.637900 0.881200
vt 0.616100 0.922500
vt 0.601600 0.882900
vt 0.568500 0.894300
vt 0.581700 0.495400
vt 0.577000 0.637800
vt 0.529200 0.626900
vt 0.541400 0.472200
vt 0.618100 0.496500
vt 0.625700 0.635700
vt 0.648800 0.478900
vt 0.682000 0.633700
vt 0.597100 0.399700
vt 0.566000 0.801800
vt 0.509700 0.788600
vt 0.634700 0.797000
vt 0.703200 0.810500
vt 0.575300 0.873200
vt 0.525400 0.878700
vt 0.622500 0.875800
vt 0.666800 0.891400
vt 0.556400 0.913200
vt 0.585600 0.914200
vt 0.593300 0.943500
vt 0.574100 0.945600
vt 0.610600 0.916900
vt 0.642800 0.932400
vt 0.609900 0.949700
vt 0.590300 0.951200
vt 0.600300 0.901100
vt 0.606500 0.814300
vt 0.694600 0.827600
vt 0.681200 0.920800
vt 0.528300 0.927700
vt 0.518300 0.817000
vt 0.600400 0.971100
vt 0.610100 0.580400
vt 0.688600 0.571700
vt 0.528900 0.627400
vt 0.646900 0.434700
vt 0.605600 0.447000
vt 0.596000 0.382700
vt 0.556100 0.443800
vt 0.600300 0.901100
vt 0.606500 0.814300
vt 0.694600 0.827600
vt 0.681200 0.920800
vt 0.528300 0.927700
vt 0.518300 0.817000
vt 0.600400 0.971100
vt 0.610100 0.580400
vt 0.688600 0.571700
vt 0.528900 0.627400
vt 0.646900 0.434700
vt 0.605600 0.447000
vt 0.596000 0.382700
vt 0.556100 0.443800
vt 0.077400 0.661500
vt 0.176100 0.658400
vt 0.177500 0.673700
vt 0.077500 0.682100
vt 0.076200 0.640900
vt 0.176700 0.643100
vt 0.074500 0.616400
vt 0.179100 0.631300
vt 0.032100 0.678800
vt 0.077200 0.706600
vt 0.024200 0.697100
vt 0.034800 0.662800
vt 0.031200 0.647000
vt 0.022100 0.629300
vt 0.005000 0.663700
vt 0.180600 0.685300
vt 0.209000 0.657500
vt 0.077400 0.661500
vt 0.077500 0.682100
vt 0.177500 0.673700
vt 0.176100 0.658400
vt 0.076200 0.640900
vt 0.176700 0.643100
vt 0.032100 0.678800
vt 0.034800 0.662800
vt 0.031200 0.647000
vt 0.076700 0.583600
vt 0.073100 0.573300
vt 0.081200 0.573900
vt 0.067000 0.578800
vt 0.066500 0.587100
vt 0.072200 0.593300
vt 0.080500 0.593600
vt 0.086600 0.587900
vt 0.086800 0.579700
vt 0.069600 0.563700
vt 0.085600 0.564500
vt 0.057500 0.574500
vt 0.056800 0.590800
vt 0.067800 0.602800
vt 0.084100 0.603400
vt 0.096000 0.592400
vt 0.096500 0.576100
vt 0.581700 0.495400
vt 0.577000 0.637800
vt 0.529200 0.626900
vt 0.541400 0.472200
vt 0.618100 0.496500
vt 0.625700 0.635700
vt 0.648800 0.478900
vt 0.682000 0.633700
vt 0.597100 0.399700
vt 0.566000 0.801800
vt 0.509700 0.788600
vt 0.634700 0.797000
vt 0.703200 0.810500
vt 0.575300 0.873200
vt 0.525400 0.878700
vt 0.622500 0.875800
vt 0.666800 0.891400
vt 0.556400 0.913200
vt 0.585600 0.914200
vt 0.593300 0.943500
vt 0.574100 0.945600
vt 0.610600 0.916900
vt 0.642800 0.932400
vt 0.609900 0.949700
vt 0.590300 0.951200
vt 0.600300 0.901100
vt 0.606500 0.814300
vt 0.694600 0.827600
vt 0.681200 0.920800
vt 0.528300 0.927700
vt 0.518300 0.817000
vt 0.600400 0.971100
vt 0.610100 0.580400
vt 0.688600 0.571700
vt 0.528900 0.627400
vt 0.646900 0.434700
vt 0.605600 0.447000
vt 0.596000 0.382700
vt 0.556100 0.443800
vt 0.600300 0.901100
vt 0.606500 0.814300
vt 0.694600 0.827600
vt 0.681200 0.920800
vt 0.528300 0.927700
vt 0.518300 0.817000
vt 0.600400 0.971100
vt 0.610100 0.580400
vt 0.688600 0.571700
vt 0.528900 0.627400
vt 0.646900 0.434700
vt 0.605600 0.447000
vt 0.596000 0.382700
vt 0.556100 0.443800
vt 0.077400 0.661500
vt 0.176100 0.658400
vt 0.177500 0.673700
vt 0.077500 0.682100
vt 0.076200 0.640900
vt 0.176700 0.643100
vt 0.074500 0.616400
vt 0.179100 0.631300
vt 0.032100 0.678800
vt 0.077200 0.706600
vt 0.024200 0.697100
vt 0.034800 0.662800
vt 0.031200 0.647000
vt 0.022100 0.629300
vt 0.005000 0.663700
vt 0.180600 0.685300
vt 0.209000 0.657500
vt 0.077400 0.661500
vt 0.077500 0.682100
vt 0.177500 0.673700
vt 0.176100 0.658400
vt 0.076200 0.640900
vt 0.176700 0.643100
vt 0.032100 0.678800
vt 0.034800 0.662800
vt 0.031200 0.647000
vt 0.076700 0.583600
vt 0.073100 0.573300
vt 0.081200 0.573900
vt 0.067000 0.578800
vt 0.066500 0.587100
vt 0.072200 0.593300
vt 0.080500 0.593600
vt 0.086600 0.587900
vt 0.086800 0.579700
vt 0.069600 0.563700
vt 0.085600 0.564500
vt 0.057500 0.574500
vt 0.056800 0.590800
vt 0.067800 0.602800
vt 0.084100 0.603400
vt 0.096000 0.592400
vt 0.096500 0.576100
vt 0.581700 0.495400
vt 0.577000 0.637800
vt 0.529200 0.626900
vt 0.541400 0.472200
vt 0.618100 0.496500
vt 0.625700 0.635700
vt 0.648800 0.478900
vt 0.682000 0.633700
vt 0.597100 0.399700
vt 0.566000 0.801800
vt 0.509700 0.788600
vt 0.634700 0.797000
vt 0.703200 0.810500
vt 0.575300 0.873200
vt 0.525400 0.878700
vt 0.622500 0.875800
vt 0.666800 0.891400
vt 0.556400 0.913200
vt 0.585600 0.914200
vt 0.593300 0.943500
vt 0.574100 0.945600
vt 0.610600 0.916900
vt 0.642800 0.932400
vt 0.609900 0.949700
vt 0.590300 0.951200
vt 0.600300 0.901100
vt 0.606500 0.814300
vt 0.694600 0.827600
vt 0.681200 0.920800
vt 0.528300 0.927700
vt 0.518300 0.817000
vt 0.600400 0.971100
vt 0.610100 0.580400
vt 0.688600 0.571700
vt 0.528900 0.627400
vt 0.646900 0.434700
vt 0.605600 0.447000
vt 0.596000 0.382700
vt 0.556100 0.443800
vt 0.600300 0.901100
vt 0.606500 0.814300
vt 0.694600 0.827600
vt 0.681200 0.920800
vt 0.528300 0.927700
vt 0.518300 0.817000
vt 0.600400 0.971100
vt 0.610100 0.580400
vt 0.688600 0.571700
vt 0.528900 0.627400
vt 0.646900 0.434700
vt 0.605600 0.447000
vt 0.596000 0.382700
vt 0.556100 0.443800
vt 0.077400 0.661500
vt 0.176100 0.658400
vt 0.177500 0.673700
vt 0.077500 0.682100
vt 0.076200 0.640900
vt 0.176700 0.643100
vt 0.074500 0.616400
vt 0.179100 0.631300
vt 0.032100 0.678800
vt 0.077200 0.706600
vt 0.024200 0.697100
vt 0.034800 0.662800
vt 0.031200 0.647000
vt 0.022100 0.629300
vt 0.005000 0.663700
vt 0.180600 0.685300
vt 0.209000 0.657500
vt 0.077400 0.661500
vt 0.077500 0.682100
vt 0.177500 0.673700
vt 0.176100 0.658400
vt 0.076200 0.640900
vt 0.176700 0.643100
vt 0.032100 0.678800
vt 0.034800 0.662800
vt 0.031200 0.647000
vt 0.076700 0.583600
vt 0.073100 0.573300
vt 0.081200 0.573900
vt 0.067000 0.578800
vt 0.066500 0.587100
vt 0.072200 0.593300
vt 0.080500 0.593600
vt 0.086600 0.587900
vt 0.086800 0.579700
vt 0.069600 0.563700
vt 0.085600 0.564500
vt 0.057500 0.574500
vt 0.056800 0.590800
vt 0.067800 0.602800
vt 0.084100 0.603400
vt 0.096000 0.592400
vt 0.096500 0.576100
vt 0.549600 0.157100
vt 0.711400 0.167800
vt 0.549600 0.166200
vt 0.549600 0.175100
vt 0.549600 0.183700
vt 0.549600 0.166200
vt 0.549600 0.157100
vt 0.549600 0.175100
vt 0.549600 0.183700
vt 0.560800 0.162600
vt 0.562400 0.170200
vt 0.558600 0.177000
vt 0.552100 0.168600
vt 0.550200 0.169700
vt 0.623600 0.169700
vt 0.623600 0.182600
vt 0.550200 0.182600
vt 0.550200 0.156300
vt 0.623600 0.156300
vt 0.550200 0.169700
vt 0.623600 0.169700
vt 0.623600 0.182600
vt 0.550200 0.182600
vt 0.550200 0.156300
vt 0.623600 0.156300
vt 0.688600 0.182600
vt 0.688600 0.169700
vt 0.711600 0.169700
vt 0.688600 0.156300
vt 0.688600 0.182600
vt 0.688600 0.169700
vt 0.688600 0.156300
vt 0.560800 0.162600
vt 0.562400 0.170200
vt 0.558600 0.177000
vt 0.552100 0.168600
vt 0.550200 0.169700
vt 0.623600 0.169700
vt 0.623600 0.182600
vt 0.550200 0.182600
vt 0.550200 0.156300
vt 0.623600 0.156300
vt 0.550200 0.169700
vt 0.623600 0.169700
vt 0.623600 0.182600
vt 0.550200 0.182600
vt 0.550200 0.156300
vt 0.623600 0.156300
vt 0.688600 0.182600
vt 0.688600 0.169700
vt 0.711600 0.169700
vt 0.688600 0.156300
vt 0.688600 0.182600
vt 0.688600 0.169700
vt 0.688600 0.156300
vt 0.560800 0.162600
vt 0.562400 0.170200
vt 0.558600 0.177000
vt 0.552100 0.168600
vt 0.550200 0.169700
vt 0.623600 0.169700
vt 0.623600 0.182600
vt 0.550200 0.182600
vt 0.550200 0.156300
vt 0.623600 0.156300
vt 0.550200 0.169700
vt 0.623600 0.169700
vt 0.623600 0.182600
vt 0.550200 0.182600
vt 0.550200 0.156300
vt 0.623600 0.156300
vt 0.688600 0.182600
vt 0.688600 0.169700
vt 0.711600 0.169700
vt 0.688600 0.156300
vt 0.688600 0.182600
vt 0.688600 0.169700
vt 0.688600 0.156300
vt 0.560800 0.162600
vt 0.562400 0.170200
vt 0.558600 0.177000
vt 0.552100 0.168600
vt 0.550200 0.169700
vt 0.623600 0.169700
vt 0.623600 0.182600
vt 0.550200 0.182600
vt 0.550200 0.156300
vt 0.623600 0.156300
vt 0.550200 0.169700
vt 0.623600 0.169700
vt 0.623600 0.182600
vt 0.550200 0.182600
vt 0.550200 0.156300
vt 0.623600 0.156300
vt 0.688600 0.182600
vt 0.688600 0.169700
vt 0.711600 0.169700
vt 0.688600 0.156300
vt 0.688600 0.182600
vt 0.688600 0.169700
vt 0.688600 0.156300
vt 0.560800 0.162600
vt 0.562400 0.170200
vt 0.558600 0.177000
vt 0.552100 0.168600
vt 0.550200 0.169700
vt 0.623600 0.169700
vt 0.623600 0.182600
vt 0.550200 0.182600
vt 0.550200 0.156300
vt 0.623600 0.156300
vt 0.550200 0.169700
vt 0.623600 0.169700
vt 0.623600 0.182600
vt 0.550200 0.182600
vt 0.550200 0.156300
vt 0.623600 0.156300
vt 0.688600 0.182600
vt 0.688600 0.169700
vt 0.711600 0.169700
vt 0.688600 0.156300
vt 0.688600 0.182600
vt 0.688600 0.169700
vt 0.688600 0.156300
vt 0.560800 0.162600
vt 0.562400 0.170200
vt 0.558600 0.177000
vt 0.552100 0.168600
vt 0.550200 0.169700
vt 0.623600 0.169700
vt 0.623600 0.182600
vt 0.550200 0.182600
vt 0.550200 0.156300
vt 0.623600 0.156300
vt 0.550200 0.169700
vt 0.623600 0.169700
vt 0.623600 0.182600
vt 0.550200 0.182600
vt 0.550200 0.156300
vt 0.623600 0.156300
vt 0.688600 0.182600
vt 0.688600 0.169700
vt 0.711600 0.169700
vt 0.688600 0.156300
vt 0.688600 0.182600
vt 0.688600 0.169700
vt 0.688600 0.156300
vn 0.4874 -0.0273 -0.8727
vn 0.4212 0.0005 -0.9070
vn 0.9953 0.0052 -0.0964
vn 0.9986 -0.0528 0.0004
vn -0.5120 0.0241 -0.8586
vn -0.5730 0.0089 -0.8195
vn -0.9988 0.0486 -0.0003
vn -0.9952 0.0100 0.0973
vn -0.5117 0.0234 0.8588
vn -0.3956 0.0046 0.9184
vn 0.4878 -0.0267 0.8726
vn 0.5936 0.0080 0.8047
vn 0.4879 -0.4445 -0.7512
vn 0.1035 -0.3953 -0.9127
vn 0.6191 -0.7831 -0.0587
vn 0.8566 -0.4694 0.2143
vn -0.4218 0.1029 -0.9008
vn -0.5071 0.4840 -0.7132
vn -0.7817 0.5971 -0.1799
vn -0.5354 0.8372 0.1115
vn -0.4875 0.5423 0.6843
vn -0.1430 0.5821 0.8005
vn 0.2773 0.0072 0.9608
vn 0.4688 -0.2362 0.8511
vn 0.4529 -0.0721 -0.8886
vn 0.9930 -0.1158 0.0222
vn -0.5461 0.0645 -0.8352
vn -0.9877 0.1564 0.0036
vn -0.5272 0.1460 0.8371
vn 0.4513 0.0083 0.8923
vn 0.4752 -0.5147 0.7136
vn 0.3571 -0.6815 0.6387
vn 0.5862 -0.7683 0.2570
vn 0.7391 -0.5888 0.3272
vn 0.7001 -0.6920 -0.1762
vn 0.8333 -0.5279 -0.1642
vn 0.2538 -0.9600 0.1186
vn 0.3833 -0.9047 0.1862
vn 0.2815 -0.7952 0.5371
vn 0.6169 -0.7678 -0.1730
vn -0.4036 -0.8738 0.2713
vn -0.3525 -0.9233 -0.1522
vn -0.7483 -0.5802 -0.3216
vn -0.0721 -0.8794 -0.4705
vn -0.4752 0.5147 -0.7136
vn -0.7391 0.5888 -0.3272
vn -0.5862 0.7683 -0.2570
vn -0.3571 0.6815 -0.6387
vn -0.8333 0.5279 0.1642
vn -0.7001 0.6920 0.1762
vn -0.2538 0.9600 -0.1186
vn -0.3833 0.9047 -0.1862
vn -0.2815 0.7952 -0.5371
vn -0.6169 0.7678 0.1730
vn 0.4036 0.8738 -0.2713
vn 0.7483 0.5802 0.3216
vn 0.3525 0.9233 0.1522
vn 0.0721 0.8794 0.4705
vn -0.8556 -0.5147 0.0547
vn -0.7317 -0.6815 -0.0101
vn -0.5157 -0.7683 0.3792
vn -0.6529 -0.5888 0.4764
vn -0.1974 -0.6920 0.6944
vn -0.2744 -0.5279 0.8037
vn -0.2296 -0.9600 0.1605
vn -0.3529 -0.9047 0.2388
vn -0.6059 -0.7952 -0.0247
vn -0.1586 -0.7678 0.6208
vn -0.0332 -0.8738 -0.4852
vn 0.3081 -0.9233 -0.2292
vn 0.6526 -0.5802 -0.4873
vn 0.4435 -0.8794 0.1728
vn 0.8556 0.5147 -0.0547
vn 0.6529 0.5888 -0.4764
vn 0.5157 0.7683 -0.3792
vn 0.7317 0.6815 0.0101
vn 0.2744 0.5279 -0.8037
vn 0.1974 0.6920 -0.6944
vn 0.2296 0.9600 -0.1605
vn 0.3529 0.9047 -0.2388
vn 0.6059 0.7952 0.0248
vn 0.1586 0.7678 -0.6208
vn 0.0332 0.8738 0.4852
vn -0.6526 0.5802 0.4873
vn -0.3081 0.9233 0.2292
vn -0.4435 0.8794 -0.1728
vn -0.4752 -0.5147 -0.7136
vn -0.3571 -0.6815 -0.6387
vn -0.5862 -0.7683 -0.2570
vn -0.7391 -0.5888 -0.3272
vn -0.7001 -0.6920 0.1762
vn -0.8333 -0.5279 0.1642
vn -0.2538 -0.9600 -0.1186
vn -0.3833 -0.9047 -0.1863
vn -0.2815 -0.7952 -0.5371
vn -0.6169 -0.7678 0.1730
vn 0.4036 -0.8738 -0.2713
vn 0.3525 -0.9233 0.1522
vn 0.7483 -0.5802 0.3216
vn 0.0721 -0.8794 0.4705
vn 0.4752 0.5147 0.7136
vn 0.7391 0.5888 0.3272
vn 0.5862 0.7683 0.2570
vn 0.3571 0.6815 0.6387
vn 0.8333 0.5279 -0.1643
vn 0.7001 0.6920 -0.1762
vn 0.2538 0.9600 0.1186
vn 0.3833 0.9047 0.1863
vn 0.2815 0.7952 0.5371
vn 0.6169 0.7678 -0.1730
vn -0.4036 0.8738 0.2713
vn -0.7483 0.5802 -0.3216
vn -0.3525 0.9233 -0.1522
vn -0.0721 0.8794 -0.4705
vn 0.8331 -0.5147 -0.2024
vn 0.7224 -0.6815 -0.1171
vn 0.4420 -0.7683 -0.4630
vn 0.5603 -0.5888 -0.5826
vn 0.0738 -0.6920 -0.7181
vn 0.1306 -0.5279 -0.8392
vn 0.1982 -0.9600 -0.1979
vn 0.3061 -0.9047 -0.2965
vn 0.6010 -0.7952 -0.0808
vn 0.0484 -0.7678 -0.6389
vn 0.1169 -0.8738 0.4720
vn -0.2636 -0.9233 0.2792
vn -0.5581 -0.5802 0.5932
vn -0.4668 -0.8794 -0.0932
vn -0.8331 0.5147 0.2024
vn -0.5603 0.5888 0.5826
vn -0.4420 0.7683 0.4630
vn -0.7224 0.6815 0.1171
vn -0.1306 0.5279 0.8392
vn -0.0738 0.6920 0.7181
vn -0.1982 0.9600 0.1979
vn -0.3061 0.9047 0.2965
vn -0.6010 0.7952 0.0808
vn -0.0484 0.7678 0.6389
vn -0.1169 0.8738 -0.4720
vn 0.5581 0.5802 -0.5932
vn 0.2636 0.9233 -0.2792
vn 0.4668 0.8794 0.0932
vn 0.7795 0.0923 0.6196
vn 0.7340 0.4686 0.4916
vn 0.4802 0.3778 0.7916
vn 0.4720 -0.0562 0.8798
vn 0.9866 0.0859 -0.1387
vn 0.8938 0.4039 -0.1951
vn 0.8730 -0.0496 -0.4852
vn 0.8250 0.2921 -0.4838
vn 0.8816 -0.3811 0.2786
vn 0.7113 0.3886 0.5857
vn 0.4998 0.3388 0.7972
vn 0.9344 0.3306 -0.1327
vn 0.8488 0.1767 -0.4984
vn 0.7972 0.0933 0.5964
vn 0.6352 0.0090 0.7723
vn 0.9956 0.0800 0.0498
vn 0.9481 0.0329 -0.3162
vn 0.6309 -0.4328 0.6440
vn 0.7839 -0.2929 0.5474
vn 0.8658 -0.3871 0.3170
vn 0.6919 -0.5446 0.4740
vn 0.9429 -0.3080 0.1267
vn 0.9598 -0.2453 -0.1365
vn 0.9187 -0.3932 0.0372
vn 0.9142 -0.2775 0.2953
vn 0.4815 -0.2683 0.8344
vn 0.2729 0.1522 0.9499
vn -0.1248 -0.0852 0.9885
vn 0.0951 -0.4358 0.8950
vn 0.7754 -0.0761 0.6268
vn 0.6687 0.3391 0.6617
vn 0.5469 -0.5787 0.6050
vn 0.3464 0.2182 0.9124
vn 0.4425 0.2896 0.8487
vn 0.3181 0.3737 0.8713
vn 0.4977 -0.0457 0.8661
vn 0.2927 -0.3504 0.8897
vn 0.3537 -0.6377 0.6842
vn 0.1790 -0.0922 0.9795
vn 0.8155 -0.3381 -0.4697
vn 0.7430 0.0974 -0.6621
vn 0.8944 0.3142 -0.3182
vn 0.9839 -0.1190 -0.1336
vn 0.5133 -0.5138 -0.6874
vn 0.3955 -0.2452 -0.8851
vn 0.7582 -0.6294 -0.1701
vn 0.7976 0.2960 -0.5256
vn 0.8149 0.3082 -0.4910
vn 0.6581 0.2019 -0.7253
vn 0.7592 -0.3605 -0.5419
vn 0.8659 -0.3392 -0.3677
vn 0.7363 -0.6715 -0.0836
vn 0.9229 -0.0948 -0.3733
vn 0.5764 0.2244 -0.7858
vn 0.4266 0.4262 -0.7977
vn 0.6637 0.7182 -0.2092
vn 0.8379 0.5204 -0.1649
vn 0.0146 -0.1909 -0.9815
vn -0.1271 0.0483 -0.9907
vn -0.6201 -0.4982 -0.6060
vn -0.7389 -0.2194 -0.6372
vn 0.9993 -0.0212 0.0306
vn 0.5929 0.5432 0.5945
vn 0.7832 -0.0038 0.6218
vn 0.7784 -0.2763 -0.5637
vn 0.2403 -0.6502 -0.7208
vn -0.2638 -0.8741 -0.4080
vn 0.5025 -0.8389 0.2092
vn 0.4162 0.7577 0.5028
vn -0.5022 0.8391 -0.2089
vn -0.6466 -0.1245 0.7526
vn -0.0585 0.2646 0.9626
vn -0.1861 0.4757 0.8597
vn -0.7384 0.0938 0.6678
vn -0.8824 -0.4469 0.1469
vn -0.9777 -0.1944 0.0793
vn 0.2824 -0.2257 0.9324
vn -0.2793 -0.5780 0.7667
vn -0.4816 -0.8562 0.1873
vn 0.5132 -0.8368 0.1908
vn 0.2939 -0.3392 0.8936
vn -0.1910 -0.6650 0.7220
vn 0.8156 -0.0962 0.5706
vn 0.9909 -0.1344 0.0059
vn 0.8047 -0.3538 -0.4767
vn 0.3087 -0.6987 -0.6454
vn -0.1920 -0.9236 -0.3317
vn -0.3663 -0.8985 0.2419
vn 0.0688 0.0737 0.9949
vn -0.5296 -0.3340 0.7797
vn 0.7162 0.3603 0.5978
vn 0.9408 0.3221 -0.1058
vn 0.7095 0.0265 -0.7042
vn 0.0919 -0.3939 -0.9146
vn -0.5281 -0.6660 -0.5268
vn -0.7603 -0.6238 0.1811
vn -0.6078 0.0923 -0.7887
vn -0.5943 0.4686 -0.6536
vn -0.2759 0.3778 -0.8838
vn -0.2468 -0.0561 -0.9674
vn -0.9910 0.0859 -0.1024
vn -0.9145 0.4039 -0.0254
vn -0.9640 -0.0496 0.2612
vn -0.9171 0.2921 0.2713
vn -0.7888 -0.3811 -0.4823
vn -0.5498 0.3886 -0.7394
vn -0.2935 0.3388 -0.8939
vn -0.9389 0.3306 -0.0957
vn -0.9437 0.1767 0.2798
vn -0.6306 0.0933 -0.7705
vn -0.4310 0.0091 -0.9023
vn -0.9544 0.0800 -0.2876
vn -0.9963 0.0329 0.0791
vn -0.4577 -0.4327 -0.7768
vn -0.6295 -0.2929 -0.7197
vn -0.7642 -0.3872 -0.5158
vn -0.5577 -0.5447 -0.6263
vn -0.8849 -0.3080 -0.3495
vn -0.9645 -0.2453 -0.0981
vn -0.8828 -0.3933 -0.2570
vn -0.8163 -0.2778 -0.5064
vn -0.2669 -0.2682 -0.9256
vn -0.0366 0.1522 -0.9877
vn 0.3587 -0.0852 -0.9296
vn 0.1228 -0.4358 -0.8916
vn -0.6021 -0.0761 -0.7948
vn -0.4901 0.3391 -0.8030
vn -0.3855 -0.5787 -0.7187
vn -0.1170 0.2182 -0.9689
vn -0.2256 0.2896 -0.9302
vn -0.0994 0.3737 -0.9222
vn -0.2750 -0.0456 -0.9604
vn -0.0703 -0.3504 -0.9340
vn -0.1790 -0.6377 -0.7492
vn 0.0616 -0.0922 -0.9938
vn -0.9045 -0.3381 0.2600
vn -0.8804 0.0974 0.4642
vn -0.9447 0.3142 0.0940
vn -0.9871 -0.1190 -0.1068
vn -0.6634 -0.5138 0.5440
vn -0.5967 -0.2451 0.7641
vn -0.7769 -0.6294 -0.0171
vn -0.9005 0.2960 0.3185
vn -0.9090 0.3082 0.2808
vn -0.8132 0.2019 0.5459
vn -0.8672 -0.3606 0.3436
vn -0.9289 -0.3392 0.1488
vn -0.7348 -0.6715 -0.0957
vn -0.9855 -0.0948 0.1406
vn -0.7483 0.2244 0.6243
vn -0.6058 0.4262 0.6718
vn -0.6945 0.7182 0.0435
vn -0.8529 0.5204 -0.0413
vn -0.2501 -0.1909 0.9492
vn -0.1147 0.0483 0.9922
vn 0.4563 -0.4982 0.7373
vn 0.5641 -0.2194 0.7960
vn -0.9627 -0.0212 -0.2698
vn -0.4326 0.5432 -0.7196
vn -0.6108 -0.0038 -0.7917
vn -0.8911 -0.2763 0.3601
vn -0.4065 -0.6502 0.6419
vn 0.1580 -0.8741 0.4594
vn -0.4375 -0.8389 -0.3239
vn -0.2832 0.7577 -0.5880
vn 0.4373 0.8391 0.3235
vn 0.8085 -0.1245 -0.5751
vn 0.2881 0.2646 -0.9203
vn 0.3872 0.4757 -0.7898
vn 0.8773 0.0938 -0.4707
vn 0.8919 -0.4469 0.0694
vn 0.9681 -0.1944 0.1580
vn -0.0500 -0.2257 -0.9729
vn 0.4554 -0.5780 -0.6771
vn 0.5125 -0.8562 -0.0661
vn -0.4523 -0.8368 -0.3085
vn -0.0705 -0.3391 -0.9381
vn 0.3589 -0.6650 -0.6550
vn -0.6546 -0.0962 -0.7498
vn -0.9605 -0.1344 -0.2438
vn -0.8957 -0.3538 0.2693
vn -0.4548 -0.6986 0.5523
vn 0.1066 -0.9236 0.3681
vn 0.4137 -0.8985 -0.1468
vn 0.1723 0.0737 -0.9823
vn 0.7015 -0.3340 -0.6296
vn -0.5515 0.3603 -0.7524
vn -0.9387 0.3220 -0.1233
vn -0.8580 0.0265 0.5130
vn -0.3090 -0.3939 0.8656
vn 0.3860 -0.6659 0.6384
vn 0.7816 -0.6237 0.0069
vn 0.9483 0.0923 -0.3037
vn 0.8166 0.4686 -0.3370
vn 0.9250 0.3778 0.0408
vn 0.9937 -0.0562 0.0966
vn 0.4330 0.0859 -0.8973
vn 0.3345 0.4038 -0.8515
vn 0.0818 -0.0496 -0.9954
vn 0.0563 0.2920 -0.9547
vn 0.7215 -0.3811 -0.5780
vn 0.8822 0.3886 -0.2659
vn 0.9405 0.3388 0.0276
vn 0.4090 0.3306 -0.8505
vn 0.0574 0.1767 -0.9826
vn 0.9389 0.0933 -0.3313
vn 0.9951 0.0091 -0.0988
vn 0.5947 0.0800 -0.8000
vn 0.2640 0.0329 -0.9640
vn 0.8860 -0.4327 -0.1666
vn 0.8908 -0.2929 -0.3475
vn 0.7448 -0.3871 -0.5435
vn 0.7786 -0.5446 -0.3117
vn 0.6293 -0.3080 -0.7135
vn 0.4199 -0.2453 -0.8738
vn 0.5416 -0.3932 -0.7430
vn 0.7537 -0.2775 -0.5958
vn 0.9613 -0.2682 0.0634
vn 0.9414 0.1522 0.3011
vn 0.7524 -0.0852 0.6531
vn 0.7969 -0.4358 0.4184
vn 0.9521 -0.0761 -0.2963
vn 0.9217 0.3391 -0.1882
vn 0.8069 -0.5787 -0.1184
vn 0.9510 0.2182 0.2191
vn 0.9515 0.2896 0.1038
vn 0.9011 0.3737 0.2198
vn 0.9967 -0.0457 0.0675
vn 0.9023 -0.3504 0.2511
vn 0.7654 -0.6378 0.0861
vn 0.9138 -0.0922 0.3956
vn 0.0627 -0.3382 -0.9390
vn -0.1375 0.0974 -0.9857
vn 0.2326 0.3142 -0.9204
vn 0.4358 -0.1190 -0.8921
vn -0.2862 -0.5138 -0.8088
vn -0.5160 -0.2451 -0.8208
vn 0.2800 -0.6294 -0.7249
vn 0.0063 0.2960 -0.9552
vn 0.0447 0.3082 -0.9503
vn -0.2372 0.2019 -0.9503
vn -0.0285 -0.3606 -0.9323
vn 0.1756 -0.3392 -0.9242
vn 0.3397 -0.6715 -0.6586
vn 0.2026 -0.0948 -0.9747
vn -0.3329 0.2244 -0.9159
vn -0.4261 0.4262 -0.7980
vn 0.1950 0.7182 -0.6680
vn 0.3286 0.5204 -0.7882
vn -0.8078 -0.1909 -0.5576
vn -0.8943 0.0483 -0.4449
vn -0.8485 -0.4982 0.1787
vn -0.9403 -0.2194 0.2601
vn 0.5808 -0.0212 -0.8138
vn 0.8238 0.5432 -0.1624
vn 0.9522 -0.0038 -0.3055
vn -0.0360 -0.2763 -0.9604
vn -0.4656 -0.6502 -0.6004
vn -0.4858 -0.8741 -0.0075
vn 0.4532 -0.8389 -0.3015
vn 0.6493 0.7576 -0.0666
vn -0.4528 0.8391 0.3014
vn 0.2663 -0.1245 0.9558
vn 0.7677 0.2646 0.5836
vn 0.6113 0.4757 0.6325
vn 0.1447 0.0938 0.9850
vn -0.3683 -0.4469 0.8153
vn -0.4775 -0.1944 0.8569
vn 0.9320 -0.2257 0.2834
vn 0.4822 -0.5780 0.6583
vn -0.1119 -0.8562 0.5044
vn 0.4438 -0.8368 -0.3206
vn 0.9063 -0.3391 0.2524
vn 0.4941 -0.6650 0.5601
vn 0.9276 -0.0962 -0.3609
vn 0.5556 -0.1344 -0.8205
vn 0.0509 -0.3538 -0.9339
vn -0.3650 -0.6986 -0.6154
vn -0.3825 -0.9236 -0.0248
vn -0.0025 -0.8985 0.4390
vn 0.8653 0.0737 0.4957
vn 0.3538 -0.3340 0.8736
vn 0.8950 0.3603 -0.2631
vn 0.4349 0.3221 -0.8409
vn -0.1910 0.0265 -0.9812
vn -0.7092 -0.3939 -0.5847
vn -0.7315 -0.6660 0.1462
vn -0.2720 -0.6238 0.7328
vn -0.0864 -0.6107 -0.7871
vn 0.8754 0.3045 -0.3754
vn 0.3614 -0.9324 -0.0023
vn -0.4357 0.3406 -0.8331
vn -0.2922 0.9564 -0.0001
vn 0.2001 0.5441 0.8148
vn 0.5055 -0.3988 0.7651
vn -0.5908 -0.7897 -0.1654
vn -0.1543 -0.4907 0.8576
vn -0.4454 0.6012 0.6635
vn -0.8815 0.3092 -0.3568
vn -0.4525 0.5416 -0.7085
vn -0.2166 -0.8683 -0.4462
vn 0.2243 0.8700 0.4392
vn 0.4406 -0.4401 0.7824
vn -0.3667 -0.8617 -0.3508
vn -0.3808 0.5188 -0.7654
vn 0.7056 -0.3220 -0.6313
vn 0.5282 0.8187 0.2255
vn 0.5064 -0.4620 0.7281
vn -0.8587 -0.4847 0.1662
vn -0.2191 0.0256 0.9754
vn -0.1142 0.9445 0.3079
vn -0.7448 0.4456 -0.4967
vn -0.3152 0.3113 -0.8965
vn -0.5807 -0.8140 -0.0162
vn 0.5761 0.8168 0.0301
vn 0.3352 -0.2004 0.9206
vn -0.6862 -0.7263 0.0400
vn -0.2664 0.2542 -0.9297
vn 0.4635 -0.7906 -0.4000
vn 0.8055 0.5787 -0.1274
vn 0.3983 -0.2689 0.8770
vn -0.9496 0.1831 0.2543
vn -0.4783 -0.8347 -0.2730
vn 0.2638 -0.8117 0.5210
vn -0.0336 0.0215 0.9992
vn 0.3398 0.4598 0.8205
vn -0.8309 0.5565 -0.0024
vn 0.8238 -0.5658 0.0344
vn -0.2987 -0.5413 -0.7860
vn -0.8794 0.4725 0.0585
vn 0.3827 0.5367 0.7520
vn 0.1227 0.8081 -0.5761
vn 0.9319 -0.3131 -0.1830
vn -0.2703 -0.4916 -0.8278
vn -0.8791 0.2486 0.4065
vn -0.7466 -0.3723 -0.5514
vn 0.0678 -0.9971 -0.0353
vn -0.0640 -0.3762 0.9243
vn 0.4496 -0.0662 0.8908
vn -0.6706 0.6708 0.3167
vn 0.6826 -0.6580 -0.3180
vn -0.3878 -0.0607 -0.9197
vn -0.7790 0.5102 0.3645
vn 0.4800 0.0300 0.8767
vn 0.2617 0.9574 -0.1220
vn 0.8583 -0.3204 -0.4008
vn -0.3621 0.0287 -0.9317
vn -0.6258 -0.1705 0.7611
vn -0.7961 0.5994 -0.0835
vn -0.4935 -0.1843 -0.8500
vn -0.3188 -0.9473 -0.0319
vn 0.2827 -0.9592 -0.0049
vn -0.2389 -0.0290 0.9706
vn 0.2162 0.0375 -0.9756
vn -0.3071 0.9485 -0.0781
vn -0.3401 -0.0702 0.9378
vn 0.3469 -0.9378 0.0141
vn 0.7892 0.2499 0.5610
vn 0.5193 0.1250 -0.8454
vn -0.2141 0.9755 -0.0505
vn -0.9501 -0.0950 -0.2970
vn -0.3059 -0.9443 0.1215
vn 0.0496 -0.2671 0.9624
vn -0.5867 0.5885 0.5563
vn -0.1516 0.9336 0.3247
vn -0.7324 0.0736 -0.6769
vn 0.7225 -0.0600 0.6887
vn 0.1922 -0.9569 -0.2176
vn -0.8218 0.0176 -0.5695
vn -0.0946 0.9674 0.2348
vn 0.3338 0.2986 -0.8941
vn 0.9174 0.0465 0.3952
vn 0.2259 -0.9333 -0.2793
s 1
f 1/1/1 2/2/2 3/3/3
f 3/3/3 4/4/4 1/1/1
f 5/5/5 6/6/6 2/2/2
f 2/2/2 1/1/1 5/5/5
f 7/7/7 8/8/8 6/6/6
f 6/6/6 5/5/5 7/7/7
f 9/9/9 10/10/10 8/8/8
f 8/8/8 7/7/7 9/9/9
f 11/11/11 12/12/12 10/10/10
f 10/10/10 9/9/9 11/11/11
f 4/4/4 3/3/3 12/12/12
f 12/12/12 11/11/11 4/4/4
f 13/13/13 14/14/14 15/15/15
f 15/15/15 16/16/16 13/13/13
f 17/17/17 18/18/18 14/14/14
f 14/14/14 13/13/13 17/17/17
f 19/19/19 20/20/20 18/18/18
f 18/18/18 17/17/17 19/19/19
f 21/21/21 22/22/22 20/20/20
f 20/20/20 19/19/19 21/21/21
f 23/23/23 24/24/24 22/22/22
f 22/22/22 21/21/21 23/23/23
f 23/23/23 16/16/16 15/15/15
f 15/15/15 24/24/24 23/23/23
f 25/25/25 26/26/26 3/3/3
f 3/3/3 2/2/2 25/25/25
f 27/27/27 25/25/25 2/2/2
f 2/2/2 6/6/6 27/27/27
f 8/8/8 28/28/28 27/27/27
f 27/27/27 6/6/6 8/8/8
f 10/10/10 29/29/29 28/28/28
f 28/28/28 8/8/8 10/10/10
f 30/30/30 29/29/29 10/10/10
f 10/10/10 12/12/12 30/30/30
f 26/26/26 30/30/30 12/12/12
f 12/12/12 3/3/3 26/26/26
s 2
f 31/31/31 32/32/32 33/33/33
f 33/33/33 34/34/34 31/31/31
f 34/34/34 33/33/33 35/35/35
f 35/35/35 36/36/36 34/34/34
f 37/37/37 33/33/33 32/32/32
f 37/37/37 35/35/35 33/33/33
f 38/38/38 39/39/39 31/31/31
f 31/31/31 34/34/34 38/38/38
f 40/40/40 38/38/38 34/34/34
f 34/34/34 36/36/36 40/40/40
f 41/41/41 42/42/42 43/43/43
f 42/42/42 44/44/44 43/43/43
f 39/39/39 38/38/38 42/42/42
f 42/42/42 41/41/41 39/39/39
f 44/44/44 42/42/42 38/38/38
f 38/38/38 40/40/40 44/44/44
s 3
f 45/45/45 46/46/46 47/47/47
f 47/47/47 48/48/48 45/45/45
f 46/46/46 49/49/49 50/50/50
f 50/50/50 47/47/47 46/46/46
f 51/51/51 48/48/48 47/47/47
f 51/51/51 47/47/47 50/50/50
f 52/52/52 46/46/46 45/45/45
f 45/45/45 53/53/53 52/52/52
f 54/54/54 49/49/49 46/46/46
f 46/46/46 52/52/52 54/54/54
f 55/55/55 56/56/56 57/57/57
f 57/57/57 56/56/56 58/58/58
f 53/53/53 55/55/55 57/57/57
f 57/57/57 52/52/52 53/53/53
f 58/58/58 54/54/54 52/52/52
f 52/52/52 57/57/57 58/58/58
s 4
f 59/59/59 60/60/60 61/61/61
f 61/61/61 62/62/62 59/59/59
f 62/62/62 61/61/61 63/63/63
f 63/63/63 64/64/64 62/62/62
f 65/65/65 61/61/61 60/60/60
f 65/65/65 63/63/63 61/61/61
f 66/66/66 67/67/67 59/59/59
f 59/59/59 62/62/62 66/66/66
f 68/68/68 66/66/66 62/62/62
f 62/62/62 64/64/64 68/68/68
f 69/69/69 70/70/70 71/71/71
f 70/70/70 72/72/72 71/71/71
f 67/67/67 66/66/66 70/70/70
f 70/70/70 69/69/69 67/67/67
f 72/72/72 70/70/70 66/66/66
f 66/66/66 68/68/68 72/72/72
s 5
f 73/73/73 74/74/74 75/75/75
f 75/75/75 76/76/76 73/73/73
f 74/74/74 77/77/77 78/78/78
f 78/78/78 75/75/75 74/74/74
f 79/79/79 76/76/76 75/75/75
f 79/79/79 75/75/75 78/78/78
f 80/80/80 74/74/74 73/73/73
f 73/73/73 81/81/81 80/80/80
f 82/82/82 77/77/77 74/74/74
f 74/74/74 80/80/80 82/82/82
f 83/83/83 84/84/84 85/85/85
f 85/85/85 84/84/84 86/86/86
f 81/81/81 83/83/83 85/85/85
f 85/85/85 80/80/80 81/81/81
f 86/86/86 82/82/82 80/80/80
f 80/80/80 85/85/85 86/86/86
s 6
f 87/87/87 88/88/88 89/89/89
f 89/89/89 90/90/90 87/87/87
f 90/90/90 89/89/89 91/91/91
f 91/91/91 92/92/92 90/90/90
f 93/93/93 89/89/89 88/88/88
f 93/93/93 91/91/91 89/89/89
f 94/94/94 95/95/95 87/87/87
f 87/87/87 90/90/90 94/94/94
f 96/96/96 94/94/94 90/90/90
f 90/90/90 92/92/92 96/96/96
f 97/97/97 98/98/98 99/99/99
f 98/98/98 100/100/100 99/99/99
f 95/95/95 94/94/94 98/98/98
f 98/98/98 97/97/97 95/95/95
f 100/100/100 98/98/98 94/94/94
f 94/94/94 96/96/96 100/100/100
s 7
f 101/101/101 102/102/102 103/103/103
f 103/103/103 104/104/104 101/101/101
f 102/102/102 105/105/105 106/106/106
f 106/106/106 103/103/103 102/102/102
f 107/107/107 104/104/104 103/103/103
f 107/107/107 103/103/103 106/106/106
f 108/108/108 102/102/102 101/101/101
f 101/101/101 109/109/109 108/108/108
f 110/110/110 105/105/105 102/102/102
f 102/102/102 108/108/108 110/110/110
f 111/111/111 112/112/112 113/113/113
f 113/113/113 112/112/112 114/114/114
f 109/109/109 111/111/111 113/113/113
f 113/113/113 108/108/108 109/109/109
f 114/114/114 110/110/110 108/108/108
f 108/108/108 113/113/113 114/114/114
s 8
f 115/115/115 116/116/116 117/117/117
f 117/117/117 118/118/118 115/115/115
f 118/118/118 117/117/117 119/119/119
f 119/119/119 120/120/120 118/118/118
f 121/121/121 117/117/117 116/116/116
f 121/121/121 119/119/119 117/117/117
f 122/122/122 123/123/123 115/115/115
f 115/115/115 118/118/118 122/122/122
f 124/124/124 122/122/122 118/118/118
f 118/118/118 120/120/120 124/124/124
f 125/125/125 126/126/126 127/127/127
f 126/126/126 128/128/128 127/127/127
f 123/123/123 122/122/122 126/126/126
f 126/126/126 125/125/125 123/123/123
f 128/128/128 126/126/126 122/122/122
f 122/122/122 124/124/124 128/128/128
s 9
f 129/129/129 130/130/130 131/131/131
f 131/131/131 132/132/132 129/129/129
f 130/130/130 133/133/133 134/134/134
f 134/134/134 131/131/131 130/130/130
f 135/135/135 132/132/132 131/131/131
f 135/135/135 131/131/131 134/134/134
f 136/136/136 130/130/130 129/129/129
f 129/129/129 137/137/137 136/136/136
f 138/138/138 133/133/133 130/130/130
f 130/130/130 136/136/136 138/138/138
f 139/139/139 140/140/140 141/141/141
f 141/141/141 140/140/140 142/142/142
f 137/137/137 139/139/139 141/141/141
f 141/141/141 136/136/136 137/137/137
f 142/142/142 138/138/138 136/136/136
f 136/136/136 141/141/141 142/142/142
s 10
f 143/143/143 144/144/144 145/145/145
f 145/145/145 146/146/146 143/143/143
f 147/147/147 148/148/148 144/144/144
f 144/144/144 143/143/143 147/147/147
f 149/149/149 150/150/150 148/148/148
f 148/148/148 147/147/147 149/149/149
f 151/151/151 143/143/143 146/146/146
f 151/151/151 147/147/147 143/143/143
f 151/151/151 149/149/149 147/147/147
f 145/145/145 144/144/144 152/152/152
f 152/152/152 153/153/153 145/145/145
f 144/144/144 148/148/148 154/154/154
f 154/154/154 152/152/152 144/144/144
f 148/148/148 150/150/150 155/155/155
f 155/155/155 154/154/154 148/148/148
f 153/153/153 152/152/152 156/156/156
f 156/156/156 157/157/157 153/153/153
f 152/152/152 154/154/154 158/158/158
f 158/158/158 156/156/156 152/152/152
f 154/154/154 155/155/155 159/159/159
f 159/159/159 158/158/158 154/154/154
f 160/160/160 161/161/161 162/162/162
f 162/162/162 163/163/163 160/160/160
f 161/161/161 164/164/164 162/162/162
f 164/164/164 165/165/165 166/166/166
f 166/166/166 162/162/162 164/164/164
f 163/163/163 162/162/162 167/167/167
f 162/162/162 166/166/166 167/167/167
f 161/161/161 160/160/160 157/157/157
f 157/157/157 156/156/156 161/161/161
f 156/156/156 158/158/158 164/164/164
f 164/164/164 161/161/161 156/156/156
f 158/158/158 159/159/159 165/165/165
f 165/165/165 164/164/164 158/158/158
s 11
f 168/168/168 169/169/169 170/170/170
f 170/170/170 171/171/171 168/168/168
f 172/172/172 173/173/173 169/169/169
f 169/169/169 168/168/168 172/172/172
f 174/174/174 168/168/168 171/171/171
f 174/174/174 172/172/172 168/168/168
f 170/170/170 169/169/169 175/175/175
f 175/175/175 176/176/176 170/170/170
f 169/169/169 173/173/173 177/177/177
f 177/177/177 175/175/175 169/169/169
f 178/178/178 179/179/179 180/180/180
f 179/179/179 181/181/181 180/180/180
f 179/179/179 178/178/178 176/176/176
f 176/176/176 175/175/175 179/179/179
f 175/175/175 177/177/177 181/181/181
f 181/181/181 179/179/179 175/175/175
s 12
f 182/182/182 183/183/183 184/184/184
f 184/184/184 185/185/185 182/182/182
f 186/186/186 187/187/187 183/183/183
f 183/183/183 182/182/182 186/186/186
f 188/188/188 182/182/182 185/185/185
f 188/188/188 186/186/186 182/182/182
f 184/184/184 183/183/183 189/189/189
f 189/189/189 190/190/190 184/184/184
f 183/183/183 187/187/187 191/191/191
f 191/191/191 189/189/189 183/183/183
f 192/192/192 193/193/193 194/194/194
f 193/193/193 195/195/195 194/194/194
f 193/193/193 192/192/192 190/190/190
f 190/190/190 189/189/189 193/193/193
f 189/189/189 191/191/191 195/195/195
f 195/195/195 193/193/193 189/189/189
s 13
f 196/196/196 197/197/197 198/198/198
f 198/198/198 199/199/199 196/196/196
f 200/200/200 201/201/201 197/197/197
f 197/197/197 196/196/196 200/200/200
f 202/202/202 203/203/203 201/201/201
f 201/201/201 200/200/200 202/202/202
f 204/204/204 199/199/199 205/205/205
f 205/205/205 206/206/206 204/204/204
f 207/207/207 196/196/196 199/199/199
f 199/199/199 204/204/204 207/207/207
f 208/208/208 200/200/200 196/196/196
f 196/196/196 207/207/207 208/208/208
f 209/209/209 202/202/202 200/200/200
f 200/200/200 208/208/208 209/209/209
f 210/210/210 204/204/204 206/206/206
f 210/210/210 207/207/207 204/204/204
f 210/210/210 208/208/208 207/207/207
f 210/210/210 209/209/209 208/208/208
f 211/211/211 198/198/198 212/212/212
f 198/198/198 197/197/197 212/212/212
f 212/212/212 197/197/197 201/201/201
f 212/212/212 201/201/201 203/203/203
f 199/199/199 198/198/198 211/211/211
f 211/211/211 205/205/205 199/199/199
f 213/213/213 214/214/214 215/215/215
f 215/215/215 216/216/216 213/213/213
f 217/217/217 213/213/213 216/216/216
f 216/216/216 218/218/218 217/217/217
f 202/202/202 217/217/217 218/218/218
f 218/218/218 203/203/203 202/202/202
f 219/219/219 206/206/206 205/205/205
f 205/205/205 214/214/214 219/219/219
f 220/220/220 219/219/219 214/214/214
f 214/214/214 213/213/213 220/220/220
f 221/221/221 220/220/220 213/213/213
f 213/213/213 217/217/217 221/221/221
f 209/209/209 221/221/221 217/217/217
f 217/217/217 202/202/202 209/209/209
f 210/210/210 206/206/206 219/219/219
f 210/210/210 219/219/219 220/220/220
f 210/210/210 220/220/220 221/221/221
f 210/210/210 221/221/221 209/209/209
f 211/211/211 212/212/212 215/215/215
f 215/215/215 212/212/212 216/216/216
f 212/212/212 218/218/218 216/216/216
f 212/212/212 203/203/203 218/218/218
f 211/211/211 215/215/215 214/214/214
f 214/214/214 205/205/205 211/211/211
s 14
f 222/222/222 223/223/223 224/224/224
f 222/222/222 225/225/225 223/223/223
f 222/222/222 226/226/226 225/225/225
f 222/222/222 227/227/227 226/226/226
f 222/222/222 228/228/228 227/227/227
f 222/222/222 229/229/229 228/228/228
f 222/222/222 230/230/230 229/229/229
f 222/222/222 224/224/224 230/230/230
f 224/224/224 223/223/223 231/231/231
f 231/231/231 232/232/232 224/224/224
f 223/223/223 225/225/225 233/233/233
f 233/233/233 231/231/231 223/223/223
f 225/225/225 226/226/226 234/234/234
f 234/234/234 233/233/233 225/225/225
f 226/226/226 227/227/227 235/235/235
f 235/235/235 234/234/234 226/226/226
f 227/227/227 228/228/228 236/236/236
f 236/236/236 235/235/235 227/227/227
f 228/228/228 229/229/229 237/237/237
f 237/237/237 236/236/236 228/228/228
f 229/229/229 230/230/230 238/238/238
f 238/238/238 237/237/237 229/229/229
f 230/230/230 224/224/224 232/232/232
f 232/232/232 238/238/238 230/230/230
s 15
f 239/239/239 240/240/240 241/241/241
f 241/241/241 242/242/242 239/239/239
f 243/243/243 244/244/244 240/240/240
f 240/240/240 239/239/239 243/243/243
f 245/245/245 246/246/246 244/244/244
f 244/244/244 243/243/243 245/245/245
f 247/247/247 239/239/239 242/242/242
f 247/247/247 243/243/243 239/239/239
f 247/247/247 245/245/245 243/243/243
f 241/241/241 240/240/240 248/248/248
f 248/248/248 249/249/249 241/241/241
f 240/240/240 244/244/244 250/250/250
f 250/250/250 248/248/248 240/240/240
f 244/244/244 246/246/246 251/251/251
f 251/251/251 250/250/250 244/244/244
f 249/249/249 248/248/248 252/252/252
f 252/252/252 253/253/253 249/249/249
f 248/248/248 250/250/250 254/254/254
f 254/254/254 252/252/252 248/248/248
f 250/250/250 251/251/251 255/255/255
f 255/255/255 254/254/254 250/250/250
f 256/256/256 257/257/257 258/258/258
f 258/258/258 259/259/259 256/256/256
f 257/257/257 260/260/260 258/258/258
f 260/260/260 261/261/261 262/262/262
f 262/262/262 258/258/258 260/260/260
f 259/259/259 258/258/258 263/263/263
f 258/258/258 262/262/262 263/263/263
f 257/257/257 256/256/256 253/253/253
f 253/253/253 252/252/252 257/257/257
f 252/252/252 254/254/254 260/260/260
f 260/260/260 257/257/257 252/252/252
f 254/254/254 255/255/255 261/261/261
f 261/261/261 260/260/260 254/254/254
s 16
f 264/264/264 265/265/265 266/266/266
f 266/266/266 267/267/267 264/264/264
f 268/268/268 269/269/269 265/265/265
f 265/265/265 264/264/264 268/268/268
f 270/270/270 264/264/264 267/267/267
f 270/270/270 268/268/268 264/264/264
f 266/266/266 265/265/265 271/271/271
f 271/271/271 272/272/272 266/266/266
f 265/265/265 269/269/269 273/273/273
f 273/273/273 271/271/271 265/265/265
f 274/274/274 275/275/275 276/276/276
f 275/275/275 277/277/277 276/276/276
f 275/275/275 274/274/274 272/272/272
f 272/272/272 271/271/271 275/275/275
f 271/271/271 273/273/273 277/277/277
f 277/277/277 275/275/275 271/271/271
s 17
f 278/278/278 279/279/279 280/280/280
f 280/280/280 281/281/281 278/278/278
f 282/282/282 283/283/283 279/279/279
f 279/279/279 278/278/278 282/282/282
f 284/284/284 278/278/278 281/281/281
f 284/284/284 282/282/282 278/278/278
f 280/280/280 279/279/279 285/285/285
f 285/285/285 286/286/286 280/280/280
f 279/279/279 283/283/283 287/287/287
f 287/287/287 285/285/285 279/279/279
f 288/288/288 289/289/289 290/290/290
f 289/289/289 291/291/291 290/290/290
f 289/289/289 288/288/288 286/286/286
f 286/286/286 285/285/285 289/289/289
f 285/285/285 287/287/287 291/291/291
f 291/291/291 289/289/289 285/285/285
s 18
f 292/292/292 293/293/293 294/294/294
f 294/294/294 295/295/295 292/292/292
f 296/296/296 297/297/297 293/293/293
f 293/293/293 292/292/292 296/296/296
f 298/298/298 299/299/299 297/297/297
f 297/297/297 296/296/296 298/298/298
f 300/300/300 295/295/295 301/301/301
f 301/301/301 302/302/302 300/300/300
f 303/303/303 292/292/292 295/295/295
f 295/295/295 300/300/300 303/303/303
f 304/304/304 296/296/296 292/292/292
f 292/292/292 303/303/303 304/304/304
f 305/305/305 298/298/298 296/296/296
f 296/296/296 304/304/304 305/305/305
f 306/306/306 300/300/300 302/302/302
f 306/306/306 303/303/303 300/300/300
f 306/306/306 304/304/304 303/303/303
f 306/306/306 305/305/305 304/304/304
f 307/307/307 294/294/294 308/308/308
f 294/294/294 293/293/293 308/308/308
f 308/308/308 293/293/293 297/297/297
f 308/308/308 297/297/297 299/299/299
f 295/295/295 294/294/294 307/307/307
f 307/307/307 301/301/301 295/295/295
f 309/309/309 310/310/310 311/311/311
f 311/311/311 312/312/312 309/309/309
f 313/313/313 309/309/309 312/312/312
f 312/312/312 314/314/314 313/313/313
f 298/298/298 313/313/313 314/314/314
f 314/314/314 299/299/299 298/298/298
f 315/315/315 302/302/302 301/301/301
f 301/301/301 310/310/310 315/315/315
f 316/316/316 315/315/315 310/310/310
f 310/310/310 309/309/309 316/316/316
f 317/317/317 316/316/316 309/309/309
f 309/309/309 313/313/313 317/317/317
f 305/305/305 317/317/317 313/313/313
f 313/313/313 298/298/298 305/305/305
f 306/306/306 302/302/302 315/315/315
f 306/306/306 315/315/315 316/316/316
f 306/306/306 316/316/316 317/317/317
f 306/306/306 317/317/317 305/305/305
f 307/307/307 308/308/308 311/311/311
f 311/311/311 308/308/308 312/312/312
f 308/308/308 314/314/314 312/312/312
f 308/308/308 299/299/299 314/314/314
f 307/307/307 311/311/311 310/310/310
f 310/310/310 301/301/301 307/307/307
s 19
f 318/318/318 319/319/319 320/320/320
f 318/318/318 321/321/321 319/319/319
f 318/318/318 322/322/322 321/321/321
f 318/318/318 323/323/323 322/322/322
f 318/318/318 324/324/324 323/323/323
f 318/318/318 325/325/325 324/324/324
f 318/318/318 326/326/326 325/325/325
f 318/318/318 320/320/320 326/326/326
f 320/320/320 319/319/319 327/327/327
f 327/327/327 328/328/328 320/320/320
f 319/319/319 321/321/321 329/329/329
f 329/329/329 327/327/327 319/319/319
f 321/321/321 322/322/322 330/330/330
f 330/330/330 329/329/329 321/321/321
f 322/322/322 323/323/323 331/331/331
f 331/331/331 330/330/330 322/322/322
f 323/323/323 324/324/324 332/332/332
f 332/332/332 331/331/331 323/323/323
f 324/324/324 325/325/325 333/333/333
f 333/333/333 332/332/332 324/324/324
f 325/325/325 326/326/326 334/334/334
f 334/334/334 333/333/333 325/325/325
f 326/326/326 320/320/320 328/328/328
f 328/328/328 334/334/334 326/326/326
s 20
f 335/335/335 336/336/336 337/337/337
f 337/337/337 338/338/338 335/335/335
f 339/339/339 340/340/340 336/336/336
f 336/336/336 335/335/335 339/339/339
f 341/341/341 342/342/342 340/340/340
f 340/340/340 339/339/339 341/341/341
f 343/343/343 335/335/335 338/338/338
f 343/343/343 339/339/339 335/335/335
f 343/343/343 341/341/341 339/339/339
f 337/337/337 336/336/336 344/344/344
f 344/344/344 345/345/345 337/337/337
f 336/336/336 340/340/340 346/346/346
f 346/346/346 344/344/344 336/336/336
f 340/340/340 342/342/342 347/347/347
f 347/347/347 346/346/346 340/340/340
f 345/345/345 344/344/344 348/348/348
f 348/348/348 349/349/349 345/345/345
f 344/344/344 346/346/346 350/350/350
f 350/350/350 348/348/348 344/344/344
f 346/346/346 347/347/347 351/351/351
f 351/351/351 350/350/350 346/346/346
f 352/352/352 353/353/353 354/354/354
f 354/354/354 355/355/355 352/352/352
f 353/353/353 356/356/356 354/354/354
f 356/356/356 357/357/357 358/358/358
f 358/358/358 354/354/354 356/356/356
f 355/355/355 354/354/354 359/359/359
f 354/354/354 358/358/358 359/359/359
f 353/353/353 352/352/352 349/349/349
f 349/349/349 348/348/348 353/353/353
f 348/348/348 350/350/350 356/356/356
f 356/356/356 353/353/353 348/348/348
f 350/350/350 351/351/351 357/357/357
f 357/357/357 356/356/356 350/350/350
s 21
f 360/360/360 361/361/361 362/362/362
f 362/362/362 363/363/363 360/360/360
f 364/364/364 365/365/365 361/361/361
f 361/361/361 360/360/360 364/364/364
f 366/366/366 360/360/360 363/363/363
f 366/366/366 364/364/364 360/360/360
f 362/362/362 361/361/361 367/367/367
f 367/367/367 368/368/368 362/362/362
f 361/361/361 365/365/365 369/369/369
f 369/369/369 367/367/367 361/361/361
f 370/370/370 371/371/371 372/372/372
f 371/371/371 373/373/373 372/372/372
f 371/371/371 370/370/370 368/368/368
f 368/368/368 367/367/367 371/371/371
f 367/367/367 369/369/369 373/373/373
f 373/373/373 371/371/371 367/367/367
s 22
f 374/374/374 375/375/375 376/376/376
f 376/376/376 377/377/377 374/374/374
f 378/378/378 379/379/379 375/375/375
f 375/375/375 374/374/374 378/378/378
f 380/380/380 374/374/374 377/377/377
f 380/380/380 378/378/378 374/374/374
f 376/376/376 375/375/375 381/381/381
f 381/381/381 382/382/382 376/376/376
f 375/375/375 379/379/379 383/383/383
f 383/383/383 381/381/381 375/375/375
f 384/384/384 385/385/385 386/386/386
f 385/385/385 387/387/387 386/386/386
f 385/385/385 384/384/384 382/382/382
f 382/382/382 381/381/381 385/385/385
f 381/381/381 383/383/383 387/387/387
f 387/387/387 385/385/385 381/381/381
s 23
f 388/388/388 389/389/389 390/390/390
f 390/390/390 391/391/391 388/388/388
f 392/392/392 393/393/393 389/389/389
f 389/389/389 388/388/388 392/392/392
f 394/394/394 395/395/395 393/393/393
f 393/393/393 392/392/392 394/394/394
f 396/396/396 391/391/391 397/397/397
f 397/397/397 398/398/398 396/396/396
f 399/399/399 388/388/388 391/391/391
f 391/391/391 396/396/396 399/399/399
f 400/400/400 392/392/392 388/388/388
f 388/388/388 399/399/399 400/400/400
f 401/401/401 394/394/394 392/392/392
f 392/392/392 400/400/400 401/401/401
f 402/402/402 396/396/396 398/398/398
f 402/402/402 399/399/399 396/396/396
f 402/402/402 400/400/400 399/399/399
f 402/402/402 401/401/401 400/400/400
f 403/403/403 390/390/390 404/404/404
f 390/390/390 389/389/389 404/404/404
f 404/404/404 389/389/389 393/393/393
f 404/404/404 393/393/393 395/395/395
f 391/391/391 390/390/390 403/403/403
f 403/403/403 397/397/397 391/391/391
f 405/405/405 406/406/406 407/407/407
f 407/407/407 408/408/408 405/405/405
f 409/409/409 405/405/405 408/408/408
f 408/408/408 410/410/410 409/409/409
f 394/394/394 409/409/409 410/410/410
f 410/410/410 395/395/395 394/394/394
f 411/411/411 398/398/398 397/397/397
f 397/397/397 406/406/406 411/411/411
f 412/412/412 411/411/411 406/406/406
f 406/406/406 405/405/405 412/412/412
f 413/413/413 412/412/412 405/405/405
f 405/405/405 409/409/409 413/413/413
f 401/401/401 413/413/413 409/409/409
f 409/409/409 394/394/394 401/401/401
f 402/402/402 398/398/398 411/411/411
f 402/402/402 411/411/411 412/412/412
f 402/402/402 412/412/412 413/413/413
f 402/402/402 413/413/413 401/401/401
f 403/403/403 404/404/404 407/407/407
f 407/407/407 404/404/404 408/408/408
f 404/404/404 410/410/410 408/408/408
f 404/404/404 395/395/395 410/410/410
f 403/403/403 407/407/407 406/406/406
f 406/406/406 397/397/397 403/403/403
s 24
f 414/414/414 415/415/415 416/416/416
f 414/414/414 417/417/417 415/415/415
f 414/414/414 418/418/418 417/417/417
f 414/414/414 419/419/419 418/418/418
f 414/414/414 420/420/420 419/419/419
f 414/414/414 421/421/421 420/420/420
f 414/414/414 422/422/422 421/421/421
f 414/414/414 416/416/416 422/422/422
f 416/416/416 415/415/415 423/423/423
f 423/423/423 424/424/424 416/416/416
f 415/415/415 417/417/417 425/425/425
f 425/425/425 423/423/423 415/415/415
f 417/417/417 418/418/418 426/426/426
f 426/426/426 425/425/425 417/417/417
f 418/418/418 419/419/419 427/427/427
f 427/427/427 426/426/426 418/418/418
f 419/419/419 420/420/420 428/428/428
f 428/428/428 427/427/427 419/419/419
f 420/420/420 421/421/421 429/429/429
f 429/429/429 428/428/428 420/420/420
f 421/421/421 422/422/422 430/430/430
f 430/430/430 429/429/429 421/421/421
f 422/422/422 416/416/416 424/424/424
f 424/424/424 430/430/430 422/422/422
s 1
f 25/25/25 13/13/13 16/16/16
f 16/16/16 26/26/26 25/25/25
f 27/27/27 17/17/17 13/13/13
f 13/13/13 25/25/25 27/27/27
f 28/28/28 19/19/19 17/17/17
f 17/17/17 27/27/27 28/28/28
f 21/21/21 19/19/19 28/28/28
f 28/28/28 29/29/29 21/21/21
f 23/23/23 21/21/21 29/29/29
f 29/29/29 30/30/30 23/23/23
f 16/16/16 23/23/23 30/30/30
f 30/30/30 26/26/26 16/16/16
s 25
f 431/431/431 432/432/432 433/433/433
f 434/434/434 432/432/432 431/435/431
f 435/436/435 432/432/432 434/434/434
f 436/437/436 432/432/432 435/436/435
f 437/438/437 432/432/432 436/439/436
f 433/433/433 432/432/432 437/438/437
s 26
f 438/440/438 439/441/439 440/442/440
f 440/442/440 441/443/441 438/440/438
f 441/444/441 442/445/442 443/446/443
f 443/446/443 438/447/438 441/444/441
f 440/448/440 444/449/444 442/445/442
f 442/445/442 441/444/441 440/448/440
f 439/450/439 445/451/445 444/452/444
f 444/452/444 440/453/440 439/450/439
f 438/454/438 443/455/443 445/451/445
f 445/451/445 439/450/439 438/454/438
f 446/456/446 447/457/447 448/458/448
f 447/457/447 449/459/449 448/458/448
f 449/460/449 450/461/450 448/458/448
f 450/461/450 446/462/446 448/458/448
f 447/457/447 446/456/446 443/446/443
f 443/446/443 442/445/442 447/457/447
f 449/459/449 447/457/447 442/445/442
f 442/445/442 444/449/444 449/459/449
f 450/461/450 449/460/449 444/452/444
f 444/452/444 445/451/445 450/461/450
f 446/462/446 450/461/450 445/451/445
f 445/451/445 443/455/443 446/462/446
s 27
f 451/463/451 452/464/452 453/465/453
f 453/465/453 454/466/454 451/463/451
f 454/467/454 455/468/455 456/469/456
f 456/469/456 451/470/451 454/467/454
f 453/471/453 457/472/457 455/468/455
f 455/468/455 454/467/454 453/471/453
f 452/473/452 458/474/458 457/475/457
f 457/475/457 453/476/453 452/473/452
f 451/477/451 456/478/456 458/474/458
f 458/474/458 452/473/452 451/477/451
f 459/479/459 460/480/460 461/481/461
f 460/480/460 462/482/462 461/481/461
f 462/483/462 463/484/463 461/481/461
f 463/484/463 459/485/459 461/481/461
f 460/480/460 459/479/459 456/469/456
f 456/469/456 455/468/455 460/480/460
f 462/482/462 460/480/460 455/468/455
f 455/468/455 457/472/457 462/482/462
f 463/484/463 462/483/462 457/475/457
f 457/475/457 458/474/458 463/484/463
f 459/485/459 463/484/463 458/474/458
f 458/474/458 456/478/456 459/485/459
s 28
f 464/486/464 465/487/465 466/488/466
f 466/488/466 467/489/467 464/486/464
f 467/490/467 468/491/468 469/492/469
f 469/492/469 464/493/464 467/490/467
f 466/494/466 470/495/470 468/491/468
f 468/491/468 467/490/467 466/494/466
f 465/496/465 471/497/471 470/498/470
f 470/498/470 466/499/466 465/496/465
f 464/500/464 469/501/469 471/497/471
f 471/497/471 465/496/465 464/500/464
f 472/502/472 473/503/473 474/504/474
f 473/503/473 475/505/475 474/504/474
f 475/506/475 476/507/476 474/504/474
f 476/507/476 472/508/472 474/504/474
f 473/503/473 472/502/472 469/492/469
f 469/492/469 468/491/468 473/503/473
f 475/505/475 473/503/473 468/491/468
f 468/491/468 470/495/470 475/505/475
f 476/507/476 475/506/475 470/498/470
f 470/498/470 471/497/471 476/507/476
f 472/508/472 476/507/476 471/497/471
f 471/497/471 469/501/469 472/508/472
s 29
f 477/509/477 478/510/478 479/511/479
f 479/511/479 480/512/480 477/509/477
f 480/513/480 481/514/481 482/515/482
f 482/515/482 477/516/477 480/513/480
f 479/517/479 483/518/483 481/514/481
f 481/514/481 480/513/480 479/517/479
f 478/519/478 484/520/484 483/521/483
f 483/521/483 479/522/479 478/519/478
f 477/523/477 482/524/482 484/520/484
f 484/520/484 478/519/478 477/523/477
f 485/525/485 486/526/486 487/527/487
f 486/526/486 488/528/488 487/527/487
f 488/529/488 489/530/489 487/527/487
f 489/530/489 485/531/485 487/527/487
f 486/526/486 485/525/485 482/515/482
f 482/515/482 481/514/481 486/526/486
f 488/528/488 486/526/486 481/514/481
f 481/514/481 483/518/483 488/528/488
f 489/530/489 488/529/488 483/521/483
f 483/521/483 484/520/484 489/530/489
f 485/531/485 489/530/489 484/520/484
f 484/520/484 482/524/482 485/531/485
s 30
f 490/532/490 491/533/491 492/534/492
f 492/534/492 493/535/493 490/532/490
f 493/536/493 494/537/494 495/538/495
f 495/538/495 490/539/490 493/536/493
f 492/540/492 496/541/496 494/537/494
f 494/537/494 493/536/493 492/540/492
f 491/542/491 497/543/497 496/544/496
f 496/544/496 492/545/492 491/542/491
f 490/546/490 495/547/495 497/543/497
f 497/543/497 491/542/491 490/546/490
f 498/548/498 499/549/499 500/550/500
f 499/549/499 501/551/501 500/550/500
f 501/552/501 502/553/502 500/550/500
f 502/553/502 498/554/498 500/550/500
f 499/549/499 498/548/498 495/538/495
f 495/538/495 494/537/494 499/549/499
f 501/551/501 499/549/499 494/537/494
f 494/537/494 496/541/496 501/551/501
f 502/553/502 501/552/501 496/544/496
f 496/544/496 497/543/497 502/553/502
f 498/554/498 502/553/502 497/543/497
f 497/543/497 495/547/495 498/554/498
s 31
f 503/555/503 504/556/504 505/557/505
f 505/557/505 506/558/506 503/555/503
f 506/559/506 507/560/507 508/561/508
f 508/561/508 503/562/503 506/559/506
f 505/563/505 509/564/509 507/560/507
f 507/560/507 506/559/506 505/563/505
f 504/565/504 510/566/510 509/567/509
f 509/567/509 505/568/505 504/565/504
f 503/569/503 508/570/508 510/566/510
f 510/566/510 504/565/504 503/569/503
f 511/571/511 512/572/512 513/573/513
f 512/572/512 514/574/514 513/573/513
f 514/575/514 515/576/515 513/573/513
f 515/576/515 511/577/511 513/573/513
f 512/572/512 511/571/511 508/561/508
f 508/561/508 507/560/507 512/572/512
f 514/574/514 512/572/512 507/560/507
f 507/560/507 509/564/509 514/574/514
f 515/576/515 514/575/514 509/567/509
f 509/567/509 510/566/510 515/576/515
f 511/577/511 515/576/515 510/566/510
f 510/566/510 508/570/508 511/577/511
