# Blender v3.3.0 OBJ File: ''
# www.blender.org
o CornStage02.005
v 0.005799 -0.018404 -0.010044
v 0.014914 0.178928 -0.010480
v 0.021603 0.181450 -0.001218
v 0.011597 -0.018404 -0.000000
v -0.005799 -0.018404 -0.010044
v 0.003407 0.177937 -0.009262
v -0.011597 -0.018404 -0.000000
v -0.001411 0.179467 0.001218
v -0.005799 -0.018404 0.010044
v 0.005278 0.181989 0.010480
v 0.005799 -0.018404 0.010044
v 0.016785 0.182981 0.009262
v -0.005913 0.477415 -0.006688
v -0.004285 0.529525 -0.001843
v -0.002848 0.528900 0.001758
v -0.003040 0.476166 0.000514
v -0.013549 0.479091 -0.007702
v -0.008103 0.530363 -0.002350
v -0.018312 0.479519 -0.001514
v -0.010484 0.530577 0.000744
v -0.015439 0.478270 0.005688
v -0.009048 0.529952 0.004345
v -0.007803 0.476594 0.006702
v -0.005230 0.529114 0.004852
v -0.053940 0.237581 0.050357
v -0.053151 0.238673 0.044886
v -0.055471 0.230646 0.043868
v -0.052513 0.221160 0.045298
v -0.049559 0.218357 0.048150
v -0.044955 0.218504 0.051575
v -0.041060 0.222491 0.050200
v -0.040495 0.227006 0.048198
v -0.045478 0.235507 0.046279
v -0.045052 0.207382 0.018849
v -0.056538 0.229404 0.038330
v -0.052082 0.239123 0.039545
v -0.038750 0.221127 0.020568
v -0.039563 0.184267 0.019693
v -0.052657 0.213059 0.038927
v -0.025500 0.165323 0.022606
v -0.042713 0.199664 0.040986
v -0.011100 0.161647 0.025881
v -0.032530 0.197064 0.043302
v -0.004799 0.175392 0.027600
v -0.028075 0.206784 0.044518
v -0.010287 0.198507 0.026755
v -0.031956 0.223128 0.043921
v -0.024350 0.217451 0.023843
v -0.041900 0.236524 0.041861
v -0.021776 0.175991 0.001931
v -0.017895 0.159646 0.002528
v -0.007951 0.146251 0.004587
v 0.002231 0.143651 0.006903
v 0.006687 0.153371 0.008118
v 0.002806 0.169715 0.007522
v -0.007138 0.183111 0.005462
v -0.000345 0.153619 -0.002514
v -0.017320 0.185710 0.003146
v 0.020674 0.295466 0.042432
v 0.009693 0.269546 0.033132
v 0.039663 0.262938 0.009325
v 0.054803 0.287941 0.015322
v 0.035852 0.268821 -0.028916
v 0.050464 0.294641 -0.028227
v 0.001240 0.250803 -0.006686
v 0.086727 0.334481 0.029794
v 0.066339 0.345514 0.056790
v 0.092351 0.345117 -0.003601
v 0.108492 0.340908 0.057461
v 0.108948 0.335104 0.039451
v 0.120823 0.316672 0.045075
v 0.121904 0.340757 0.026882
v 0.020674 0.296340 0.042432
v 0.054803 0.288814 0.015322
v 0.039663 0.263811 0.009325
v 0.009693 0.270420 0.033132
v 0.050464 0.295515 -0.028227
v 0.035852 0.269695 -0.028916
v 0.001240 0.251677 -0.006686
v 0.086727 0.335354 0.029794
v 0.066339 0.346387 0.056790
v 0.092351 0.345990 -0.003601
v 0.108492 0.341781 0.057461
v 0.120823 0.317546 0.045075
v 0.108948 0.335978 0.039451
v 0.121904 0.341631 0.026882
v 0.055676 0.327882 0.018199
v 0.052039 0.328633 0.019296
v 0.052079 0.323115 0.021037
v 0.052110 0.316594 0.018779
v 0.053029 0.314667 0.016110
v 0.053825 0.314768 0.012247
v 0.051837 0.317509 0.010220
v 0.050425 0.320612 0.010449
v 0.050678 0.326456 0.014111
v 0.033464 0.307123 0.021815
v 0.048938 0.322261 0.023311
v 0.048401 0.328942 0.020182
v 0.032705 0.316571 0.017389
v 0.032396 0.291233 0.018150
v 0.048182 0.311025 0.020720
v 0.030125 0.278211 0.008542
v 0.046577 0.301817 0.013926
v 0.027982 0.275684 -0.001380
v 0.045061 0.300030 0.006910
v 0.027222 0.285133 -0.005805
v 0.044524 0.306711 0.003781
v 0.028291 0.301022 -0.002141
v 0.045280 0.317947 0.006372
v 0.030562 0.314044 0.007467
v 0.046886 0.327155 0.013165
v 0.016162 0.285544 0.012229
v 0.015407 0.274308 0.009637
v 0.013801 0.265100 0.002844
v 0.012286 0.263313 -0.004173
v 0.011749 0.269994 -0.007302
v 0.012504 0.281230 -0.004711
v 0.014110 0.290438 0.002083
v 0.007167 0.270165 0.000168
v 0.015625 0.292225 0.009099
v -0.055439 0.190585 -0.013160
v -0.037306 0.155888 -0.019666
v -0.029767 0.147041 0.031012
v -0.046853 0.180511 0.044550
v 0.017116 0.154918 0.052190
v 0.006537 0.189481 0.068668
v 0.014511 0.130798 -0.002814
v -0.084997 0.242811 0.071872
v -0.102647 0.257580 0.030168
v -0.050047 0.257048 0.100744
v -0.131639 0.251414 0.078586
v -0.111066 0.243645 0.091170
v -0.125534 0.218972 0.101172
v -0.105166 0.251213 0.114602
v -0.055439 0.191755 -0.013160
v -0.046853 0.181681 0.044550
v -0.029767 0.148211 0.031012
v -0.037306 0.157057 -0.019666
v 0.006537 0.190650 0.068668
v 0.017116 0.156087 0.052190
v 0.014511 0.131968 -0.002814
v -0.084997 0.243980 0.071872
v -0.102647 0.258750 0.030168
v -0.050047 0.258218 0.100744
v -0.131639 0.252584 0.078586
v -0.125534 0.220141 0.101172
v -0.111066 0.244815 0.091170
v -0.105166 0.252382 0.114602
v -0.022238 0.403080 -0.051243
v -0.011257 0.377160 -0.041942
v -0.041227 0.370551 -0.018136
v -0.056367 0.395554 -0.024132
v -0.037416 0.376435 0.020106
v -0.052028 0.402255 0.019417
v -0.002804 0.358417 -0.002125
v -0.088291 0.442094 -0.038605
v -0.067903 0.453127 -0.065600
v -0.093915 0.452730 -0.005209
v -0.110056 0.448521 -0.066272
v -0.110512 0.442718 -0.048262
v -0.122388 0.424286 -0.053886
v -0.123468 0.448371 -0.035692
v -0.022238 0.403954 -0.051243
v -0.056367 0.396428 -0.024132
v -0.041227 0.371425 -0.018136
v -0.011257 0.378033 -0.041942
v -0.052028 0.403129 0.019417
v -0.037416 0.377309 0.020106
v -0.002804 0.359291 -0.002125
v -0.088291 0.442968 -0.038605
v -0.067903 0.454001 -0.065600
v -0.093915 0.453604 -0.005209
v -0.110056 0.449395 -0.066272
v -0.122388 0.425159 -0.053886
v -0.110512 0.443592 -0.048262
v -0.123468 0.449245 -0.035692
v 0.048479 0.475529 0.006797
v 0.034933 0.449609 0.011657
v 0.029301 0.443000 -0.026201
v 0.042065 0.468004 -0.036315
v -0.005722 0.448884 -0.042022
v 0.002181 0.474704 -0.054331
v -0.003776 0.430866 -0.000932
v 0.070560 0.514544 -0.056725
v 0.083745 0.525577 -0.025571
v 0.044451 0.525180 -0.078293
v 0.105403 0.520971 -0.061740
v 0.090034 0.515167 -0.071141
v 0.100842 0.496735 -0.078613
v 0.085627 0.520820 -0.088646
v 0.048479 0.476403 0.006797
v 0.042065 0.468877 -0.036315
v 0.029301 0.443874 -0.026201
v 0.034933 0.450483 0.011657
v 0.002181 0.475578 -0.054331
v -0.005722 0.449758 -0.042022
v -0.003776 0.431740 -0.000932
v 0.070560 0.515417 -0.056725
v 0.083745 0.526450 -0.025571
v 0.044451 0.526053 -0.078293
v 0.105403 0.521844 -0.061740
v 0.100842 0.497609 -0.078613
v 0.090034 0.516041 -0.071141
v 0.085627 0.521694 -0.088646
v 0.074521 0.122879 -0.003343
v 0.057794 0.088182 0.006213
v 0.041569 0.079336 -0.042386
v 0.056044 0.112805 -0.058686
v -0.008279 0.087212 -0.055101
v -0.000723 0.121775 -0.073166
v 0.003838 0.063092 -0.001385
v 0.088865 0.175105 -0.092216
v 0.113488 0.189874 -0.054211
v 0.049431 0.189343 -0.114580
v 0.133632 0.183708 -0.106928
v 0.111186 0.175940 -0.115747
v 0.123697 0.151266 -0.128110
v 0.101307 0.183507 -0.137799
v 0.074521 0.124049 -0.003343
v 0.056044 0.113975 -0.058686
v 0.041569 0.080505 -0.042386
v 0.057794 0.089351 0.006213
v -0.000723 0.122944 -0.073166
v -0.008279 0.088382 -0.055101
v 0.003838 0.064262 -0.001385
v 0.088865 0.176274 -0.092216
v 0.113488 0.191044 -0.054211
v 0.049431 0.190512 -0.114580
v 0.133632 0.184878 -0.106928
v 0.123697 0.152436 -0.128110
v 0.111186 0.177109 -0.115747
v 0.101307 0.184677 -0.137799
v -0.002657 0.614228 0.003001
v -0.003673 0.541039 0.000200
v -0.004742 0.541227 0.004249
v -0.008730 0.541930 0.003164
v -0.007661 0.541742 -0.000885
v 0.003092 0.583864 -0.002776
v 0.006828 0.581959 -0.001669
v 0.002275 0.585255 0.001251
v 0.006011 0.583349 0.002358
v 0.019203 0.608482 -0.006045
v 0.015787 0.611540 -0.007220
v 0.029168 0.625801 -0.009975
v 0.015291 0.614083 -0.003260
v 0.018707 0.611025 -0.002085
v -0.004581 0.525985 0.000244
v -0.006071 0.527375 0.003908
v -0.008862 0.529750 0.001872
v -0.007372 0.528360 -0.001792
v 0.023801 0.558662 -0.003670
v 0.025754 0.555389 -0.001598
v 0.023149 0.560949 -0.000043
v 0.025102 0.557677 0.002029
v 0.050623 0.571157 -0.004549
v 0.049548 0.575243 -0.006681
v 0.068624 0.580338 -0.007071
v 0.049774 0.578344 -0.003114
v 0.050849 0.574258 -0.000981
v -0.008644 0.521701 0.001047
v -0.005399 0.522132 0.000027
v -0.005730 0.523067 0.003204
v -0.007807 0.522815 0.004180
v -0.020359 0.562332 -0.009006
v -0.021085 0.559834 -0.012477
v -0.016689 0.563995 -0.010613
v -0.017414 0.561497 -0.014084
v -0.034431 0.583545 -0.024116
v -0.034069 0.587117 -0.021033
v -0.045018 0.598651 -0.032740
v -0.030763 0.589853 -0.023027
v -0.031125 0.586281 -0.026111
v -0.008594 0.543925 0.000840
v -0.005808 0.544939 -0.002124
v -0.003022 0.545953 0.000840
v -0.005808 0.544939 0.003805
v -0.024188 0.584381 0.003805
v -0.026512 0.582229 0.000840
v -0.021865 0.586533 0.000840
v -0.024188 0.584381 -0.002124
v -0.044406 0.605799 0.000840
v -0.042616 0.609025 0.003805
v -0.058217 0.620765 0.000840
v -0.040825 0.612250 0.000840
v -0.042616 0.609025 -0.002124
v -0.007462 0.523836 0.004454
v -0.009857 0.525348 0.001363
v -0.006418 0.526260 -0.000854
v -0.004024 0.524749 0.002237
v -0.003383 0.562520 0.023833
v -0.006850 0.560512 0.025495
v -0.005748 0.565127 0.021298
v -0.009216 0.563119 0.022959
v -0.007540 0.582573 0.045208
v -0.004060 0.585607 0.044167
v -0.008358 0.596399 0.060137
v -0.006413 0.589238 0.042251
v -0.009893 0.586205 0.043293
v -0.007066 0.524602 -0.000782
v -0.003626 0.524791 0.001608
v -0.006010 0.525494 0.004984
v -0.009450 0.525306 0.002595
v -0.007549 0.567428 -0.008156
v -0.005230 0.565522 -0.011289
v -0.004044 0.568819 -0.006011
v -0.001725 0.566913 -0.009144
v -0.005111 0.592046 -0.024414
v -0.007382 0.595104 -0.021606
v -0.005395 0.609365 -0.035122
v -0.003831 0.597647 -0.019786
v -0.001559 0.594589 -0.022593
vt 0.004300 0.079400
vt 0.448900 0.079400
vt 0.448900 0.100200
vt 0.004300 0.100200
vt 0.004300 0.100200
vt 0.448900 0.100200
vt 0.004300 0.125000
vt 0.448900 0.125000
vt 0.004300 0.145200
vt 0.448900 0.145200
vt 0.004300 0.125000
vt 0.448900 0.125000
vt 0.900900 0.079400
vt 0.945400 0.096500
vt 0.945400 0.106900
vt 0.900900 0.100200
vt 0.900900 0.100200
vt 0.945400 0.106900
vt 0.900900 0.125000
vt 0.945400 0.119300
vt 0.900900 0.145200
vt 0.945400 0.129400
vt 0.900900 0.125000
vt 0.945400 0.119300
vt 0.826600 0.360500
vt 0.811400 0.403600
vt 0.771000 0.369100
vt 0.768600 0.321100
vt 0.790300 0.293800
vt 0.832500 0.274000
vt 0.868300 0.370500
vt 0.870700 0.276800
vt 0.914200 0.302300
vt 0.934800 0.333900
vt 0.927400 0.385400
vt 0.880300 0.418400
vt 0.847200 0.631400
vt 0.982500 0.622300
vt 0.977800 0.678400
vt 0.848300 0.762700
vt 0.846400 0.508500
vt 0.982300 0.507600
vt 0.845800 0.385500
vt 0.981100 0.257600
vt 0.747100 0.218800
vt 0.854400 0.300800
vt 0.728000 0.324300
vt 0.852100 0.429800
vt 0.718500 0.433700
vt 0.849400 0.550700
vt 0.721900 0.549900
vt 0.843300 0.672300
vt 0.739100 0.690700
vt 0.928900 0.804600
vt 0.798800 0.801300
vt 0.735500 0.665300
vt 0.724600 0.512700
vt 0.719600 0.397800
vt 0.728500 0.256700
vt 0.893600 0.243400
vt 0.991600 0.440000
vt 0.983200 0.304800
vt 0.983600 0.553300
vt 0.980900 0.666300
vt 0.842800 0.290800
vt 0.944400 0.310700
vt 0.900600 0.369500
vt 0.926700 0.233000
vt 0.859600 0.190500
vt 0.782500 0.208900
vt 0.742000 0.277000
vt 0.762500 0.353700
vt 0.831400 0.393800
vt 0.960100 0.450500
vt 0.737400 0.397500
vt 0.796800 0.443500
vt 0.960600 0.419300
vt 0.892000 0.462900
vt 0.748600 0.255000
vt 0.718500 0.324400
vt 0.812500 0.215300
vt 0.963000 0.264800
vt 0.898200 0.215600
vt 0.988400 0.342600
vt 0.789500 0.512400
vt 0.790100 0.570900
vt 0.864700 0.570000
vt 0.871600 0.504400
vt 0.923400 0.607100
vt 0.956300 0.535600
vt 0.832200 0.652100
vt 0.870500 0.361800
vt 0.789900 0.378600
vt 0.957300 0.366300
vt 0.808700 0.304100
vt 0.856100 0.301700
vt 0.837300 0.250200
vt 0.899300 0.286900
vt 0.789500 0.512400
vt 0.871600 0.504400
vt 0.864700 0.570000
vt 0.790100 0.570900
vt 0.956300 0.535600
vt 0.923400 0.607100
vt 0.832200 0.652100
vt 0.870500 0.361800
vt 0.789900 0.378600
vt 0.957300 0.366300
vt 0.808700 0.304100
vt 0.837300 0.250200
vt 0.856100 0.301700
vt 0.899300 0.286900
vt 0.826600 0.360500
vt 0.811400 0.403600
vt 0.771000 0.369100
vt 0.768600 0.321100
vt 0.790300 0.293800
vt 0.832500 0.274000
vt 0.868300 0.370500
vt 0.870700 0.276800
vt 0.914200 0.302300
vt 0.934800 0.333900
vt 0.927400 0.385400
vt 0.880300 0.418400
vt 0.847200 0.631400
vt 0.982500 0.622300
vt 0.977800 0.678400
vt 0.848300 0.762700
vt 0.846400 0.508500
vt 0.982300 0.507600
vt 0.845800 0.385500
vt 0.981100 0.257600
vt 0.747100 0.218800
vt 0.854400 0.300800
vt 0.728000 0.324300
vt 0.852100 0.429800
vt 0.718500 0.433700
vt 0.849400 0.550700
vt 0.721900 0.549900
vt 0.843300 0.672300
vt 0.739100 0.690700
vt 0.928900 0.804600
vt 0.798800 0.801300
vt 0.735500 0.665300
vt 0.724600 0.512700
vt 0.719600 0.397800
vt 0.728500 0.256700
vt 0.893600 0.243400
vt 0.991600 0.440000
vt 0.983200 0.304800
vt 0.983600 0.553300
vt 0.980900 0.666300
vt 0.842800 0.290800
vt 0.944400 0.310700
vt 0.900600 0.369500
vt 0.926700 0.233000
vt 0.859600 0.190500
vt 0.782500 0.208900
vt 0.742000 0.277000
vt 0.762500 0.353700
vt 0.831400 0.393800
vt 0.960100 0.450500
vt 0.737400 0.397500
vt 0.796800 0.443500
vt 0.960600 0.419300
vt 0.892000 0.462900
vt 0.748600 0.255000
vt 0.718500 0.324400
vt 0.812500 0.215300
vt 0.963000 0.264800
vt 0.898200 0.215600
vt 0.988400 0.342600
vt 0.789500 0.512400
vt 0.790100 0.570900
vt 0.864700 0.570000
vt 0.871600 0.504400
vt 0.923400 0.607100
vt 0.956300 0.535600
vt 0.832200 0.652100
vt 0.870500 0.361800
vt 0.789900 0.378600
vt 0.957300 0.366300
vt 0.808700 0.304100
vt 0.856100 0.301700
vt 0.837300 0.250200
vt 0.899300 0.286900
vt 0.789500 0.512400
vt 0.871600 0.504400
vt 0.864700 0.570000
vt 0.790100 0.570900
vt 0.956300 0.535600
vt 0.923400 0.607100
vt 0.832200 0.652100
vt 0.870500 0.361800
vt 0.789900 0.378600
vt 0.957300 0.366300
vt 0.808700 0.304100
vt 0.837300 0.250200
vt 0.856100 0.301700
vt 0.899300 0.286900
vt 0.789500 0.512400
vt 0.790100 0.570900
vt 0.864700 0.570000
vt 0.871600 0.504400
vt 0.923400 0.607100
vt 0.956300 0.535600
vt 0.832200 0.652100
vt 0.870500 0.361800
vt 0.789900 0.378600
vt 0.957300 0.366300
vt 0.808700 0.304100
vt 0.856100 0.301700
vt 0.837300 0.250200
vt 0.899300 0.286900
vt 0.789500 0.512400
vt 0.871600 0.504400
vt 0.864700 0.570000
vt 0.790100 0.570900
vt 0.956300 0.535600
vt 0.923400 0.607100
vt 0.832200 0.652100
vt 0.870500 0.361800
vt 0.789900 0.378600
vt 0.957300 0.366300
vt 0.808700 0.304100
vt 0.837300 0.250200
vt 0.856100 0.301700
vt 0.899300 0.286900
vt 0.789500 0.512400
vt 0.790100 0.570900
vt 0.864700 0.570000
vt 0.871600 0.504400
vt 0.923400 0.607100
vt 0.956300 0.535600
vt 0.832200 0.652100
vt 0.870500 0.361800
vt 0.789900 0.378600
vt 0.957300 0.366300
vt 0.808700 0.304100
vt 0.856100 0.301700
vt 0.837300 0.250200
vt 0.899300 0.286900
vt 0.789500 0.512400
vt 0.871600 0.504400
vt 0.864700 0.570000
vt 0.790100 0.570900
vt 0.956300 0.535600
vt 0.923400 0.607100
vt 0.832200 0.652100
vt 0.870500 0.361800
vt 0.789900 0.378600
vt 0.957300 0.366300
vt 0.808700 0.304100
vt 0.837300 0.250200
vt 0.856100 0.301700
vt 0.899300 0.286900
vt 0.789500 0.512400
vt 0.790100 0.570900
vt 0.864700 0.570000
vt 0.871600 0.504400
vt 0.923400 0.607100
vt 0.956300 0.535600
vt 0.832200 0.652100
vt 0.870500 0.361800
vt 0.789900 0.378600
vt 0.957300 0.366300
vt 0.808700 0.304100
vt 0.856100 0.301700
vt 0.837300 0.250200
vt 0.899300 0.286900
vt 0.789500 0.512400
vt 0.871600 0.504400
vt 0.864700 0.570000
vt 0.790100 0.570900
vt 0.956300 0.535600
vt 0.923400 0.607100
vt 0.832200 0.652100
vt 0.870500 0.361800
vt 0.789900 0.378600
vt 0.957300 0.366300
vt 0.808700 0.304100
vt 0.837300 0.250200
vt 0.856100 0.301700
vt 0.899300 0.286900
vt 0.549600 0.231600
vt 0.711400 0.242200
vt 0.549600 0.240700
vt 0.549600 0.249500
vt 0.549600 0.258100
vt 0.549600 0.240700
vt 0.549600 0.231600
vt 0.549600 0.249500
vt 0.549600 0.258100
vt 0.560800 0.237100
vt 0.562400 0.244700
vt 0.558600 0.251500
vt 0.552100 0.243100
vt 0.550200 0.244200
vt 0.623600 0.244200
vt 0.623600 0.257100
vt 0.550200 0.257100
vt 0.550200 0.230800
vt 0.623600 0.230800
vt 0.550200 0.244200
vt 0.623600 0.244200
vt 0.623600 0.257100
vt 0.550200 0.257100
vt 0.550200 0.230800
vt 0.623600 0.230800
vt 0.688600 0.257100
vt 0.688600 0.244200
vt 0.711600 0.244200
vt 0.688600 0.230800
vt 0.688600 0.257100
vt 0.688600 0.244200
vt 0.688600 0.230800
vt 0.560800 0.237100
vt 0.562400 0.244700
vt 0.558600 0.251500
vt 0.552100 0.243100
vt 0.550200 0.244200
vt 0.623600 0.244200
vt 0.623600 0.257100
vt 0.550200 0.257100
vt 0.550200 0.230800
vt 0.623600 0.230800
vt 0.550200 0.244200
vt 0.623600 0.244200
vt 0.623600 0.257100
vt 0.550200 0.257100
vt 0.550200 0.230800
vt 0.623600 0.230800
vt 0.688600 0.257100
vt 0.688600 0.244200
vt 0.711600 0.244200
vt 0.688600 0.230800
vt 0.688600 0.257100
vt 0.688600 0.244200
vt 0.688600 0.230800
vt 0.560800 0.237100
vt 0.562400 0.244700
vt 0.558600 0.251500
vt 0.552100 0.243100
vt 0.550200 0.244200
vt 0.623600 0.244200
vt 0.623600 0.257100
vt 0.550200 0.257100
vt 0.550200 0.230800
vt 0.623600 0.230800
vt 0.550200 0.244200
vt 0.623600 0.244200
vt 0.623600 0.257100
vt 0.550200 0.257100
vt 0.550200 0.230800
vt 0.623600 0.230800
vt 0.688600 0.257100
vt 0.688600 0.244200
vt 0.711600 0.244200
vt 0.688600 0.230800
vt 0.688600 0.257100
vt 0.688600 0.244200
vt 0.688600 0.230800
vt 0.560800 0.237100
vt 0.562400 0.244700
vt 0.558600 0.251500
vt 0.552100 0.243100
vt 0.550200 0.244200
vt 0.623600 0.244200
vt 0.623600 0.257100
vt 0.550200 0.257100
vt 0.550200 0.230800
vt 0.623600 0.230800
vt 0.550200 0.244200
vt 0.623600 0.244200
vt 0.623600 0.257100
vt 0.550200 0.257100
vt 0.550200 0.230800
vt 0.623600 0.230800
vt 0.688600 0.257100
vt 0.688600 0.244200
vt 0.711600 0.244200
vt 0.688600 0.230800
vt 0.688600 0.257100
vt 0.688600 0.244200
vt 0.688600 0.230800
vt 0.560800 0.237100
vt 0.562400 0.244700
vt 0.558600 0.251500
vt 0.552100 0.243100
vt 0.550200 0.244200
vt 0.623600 0.244200
vt 0.623600 0.257100
vt 0.550200 0.257100
vt 0.550200 0.230800
vt 0.623600 0.230800
vt 0.550200 0.244200
vt 0.623600 0.244200
vt 0.623600 0.257100
vt 0.550200 0.257100
vt 0.550200 0.230800
vt 0.623600 0.230800
vt 0.688600 0.257100
vt 0.688600 0.244200
vt 0.711600 0.244200
vt 0.688600 0.230800
vt 0.688600 0.257100
vt 0.688600 0.244200
vt 0.688600 0.230800
vt 0.560800 0.237100
vt 0.562400 0.244700
vt 0.558600 0.251500
vt 0.552100 0.243100
vt 0.550200 0.244200
vt 0.623600 0.244200
vt 0.623600 0.257100
vt 0.550200 0.257100
vt 0.550200 0.230800
vt 0.623600 0.230800
vt 0.550200 0.244200
vt 0.623600 0.244200
vt 0.623600 0.257100
vt 0.550200 0.257100
vt 0.550200 0.230800
vt 0.623600 0.230800
vt 0.688600 0.257100
vt 0.688600 0.244200
vt 0.711600 0.244200
vt 0.688600 0.230800
vt 0.688600 0.257100
vt 0.688600 0.244200
vt 0.688600 0.230800
vn 0.4875 -0.0273 -0.8727
vn 0.4230 0.0053 -0.9061
vn 0.9951 0.0170 -0.0977
vn 0.9986 -0.0528 0.0004
vn -0.5120 0.0241 -0.8586
vn -0.5708 0.0035 -0.8211
vn -0.9988 0.0486 -0.0003
vn -0.9951 -0.0015 0.0993
vn -0.5117 0.0234 0.8588
vn -0.3911 0.0001 0.9204
vn 0.4878 -0.0267 0.8726
vn 0.5962 0.0166 0.8027
vn 0.6029 0.0520 -0.7961
vn 0.6247 0.0438 -0.7796
vn 0.9902 -0.0056 0.1398
vn 0.9894 0.0437 0.1384
vn -0.3913 0.0611 -0.9182
vn -0.3646 0.1088 -0.9248
vn -0.9888 0.0572 -0.1377
vn -0.9836 0.1251 -0.1300
vn -0.6269 0.0314 0.7785
vn -0.5982 0.0772 0.7976
vn 0.3659 0.0272 0.9303
vn 0.3879 0.0114 0.9216
vn -0.4491 0.5907 0.6704
vn -0.4553 0.8842 0.1047
vn -0.9674 -0.0179 0.2528
vn -0.8445 -0.2895 0.4506
vn -0.6746 -0.3885 0.6277
vn -0.1433 -0.2293 0.9628
vn 0.3895 0.1619 0.9067
vn 0.4975 0.3870 0.7764
vn 0.4461 0.6696 0.5937
vn -0.7243 0.0399 -0.6883
vn -0.9507 0.1260 -0.2832
vn -0.3341 0.8685 -0.3662
vn -0.0967 0.5946 -0.7982
vn -0.8788 -0.4275 -0.2120
vn -0.9149 -0.3705 0.1602
vn -0.6210 -0.6943 0.3637
vn -0.5833 -0.5387 0.6079
vn 0.0967 -0.5946 0.7981
vn -0.0187 -0.4184 0.9081
vn 0.7243 -0.0399 0.6883
vn 0.5196 -0.0160 0.8543
vn 0.8788 0.4275 0.2120
vn 0.7280 0.4330 0.5315
vn 0.6210 0.6943 -0.3637
vn 0.5287 0.8456 0.0737
vn -0.4397 -0.0005 -0.8982
vn -0.6505 -0.4148 -0.6362
vn -0.4370 -0.8638 -0.2507
vn 0.4309 -0.9018 0.0321
vn 0.9804 -0.1744 0.0912
vn 0.9031 0.3408 -0.2614
vn 0.5745 0.4928 -0.6535
vn 0.3209 -0.2006 -0.9256
vn 0.0377 0.3806 -0.9240
vn 0.4752 -0.5147 0.7136
vn 0.3571 -0.6815 0.6387
vn 0.5862 -0.7683 0.2570
vn 0.7391 -0.5888 0.3273
vn 0.7001 -0.6920 -0.1762
vn 0.8333 -0.5279 -0.1642
vn 0.2538 -0.9600 0.1186
vn 0.3833 -0.9047 0.1862
vn 0.2815 -0.7952 0.5371
vn 0.6169 -0.7678 -0.1730
vn -0.4036 -0.8738 0.2714
vn -0.3525 -0.9233 -0.1522
vn -0.7483 -0.5802 -0.3215
vn -0.0721 -0.8794 -0.4705
vn -0.4752 0.5147 -0.7137
vn -0.7391 0.5888 -0.3273
vn -0.5862 0.7683 -0.2570
vn -0.3571 0.6815 -0.6388
vn -0.8333 0.5279 0.1643
vn -0.7000 0.6920 0.1762
vn -0.2537 0.9600 -0.1186
vn -0.3833 0.9047 -0.1863
vn -0.2815 0.7952 -0.5371
vn -0.6169 0.7678 0.1730
vn 0.4036 0.8738 -0.2713
vn 0.7483 0.5802 0.3216
vn 0.3525 0.9233 0.1522
vn 0.0721 0.8794 0.4705
vn 0.7974 0.5907 0.1238
vn 0.2873 0.8842 0.3683
vn 0.6379 -0.0179 0.7699
vn 0.7652 -0.2895 0.5750
vn 0.8540 -0.3885 0.3462
vn 0.9331 -0.2293 -0.2771
vn 0.6572 0.1619 -0.7361
vn 0.4934 0.3870 -0.7790
vn 0.3497 0.6696 -0.6553
vn -0.3177 0.0399 0.9473
vn 0.1451 0.1261 0.9813
vn -0.1907 0.8685 0.4576
vn -0.6825 0.5947 0.4249
vn 0.1793 -0.4275 0.8861
vn 0.5318 -0.3705 0.7615
vn 0.5922 -0.6943 0.4091
vn 0.7975 -0.5387 0.2717
vn 0.6825 -0.5946 -0.4250
vn 0.8309 -0.4184 -0.3669
vn 0.3177 -0.0398 -0.9473
vn 0.5547 -0.0160 -0.8319
vn -0.1792 0.4275 -0.8861
vn 0.1741 0.4330 -0.8844
vn -0.5921 0.6943 -0.4091
vn -0.1566 0.8456 -0.5103
vn -0.6282 -0.0005 0.7780
vn -0.3017 -0.4149 0.8584
vn -0.0426 -0.8638 0.5020
vn -0.1530 -0.9018 -0.4041
vn -0.3316 -0.1745 -0.9272
vn -0.6186 0.3408 -0.7079
vn -0.8351 0.4928 -0.2445
vn -0.9745 -0.2006 0.1004
vn -0.8534 0.3807 0.3562
vn -0.8556 -0.5147 0.0547
vn -0.7317 -0.6815 -0.0101
vn -0.5157 -0.7683 0.3792
vn -0.6529 -0.5888 0.4764
vn -0.1974 -0.6920 0.6944
vn -0.2744 -0.5279 0.8038
vn -0.2296 -0.9600 0.1605
vn -0.3529 -0.9047 0.2388
vn -0.6059 -0.7952 -0.0248
vn -0.1586 -0.7678 0.6208
vn -0.0332 -0.8738 -0.4852
vn 0.3081 -0.9233 -0.2292
vn 0.6526 -0.5802 -0.4873
vn 0.4435 -0.8794 0.1728
vn 0.8556 0.5147 -0.0547
vn 0.6529 0.5888 -0.4764
vn 0.5157 0.7683 -0.3792
vn 0.7317 0.6815 0.0101
vn 0.2744 0.5279 -0.8037
vn 0.1974 0.6920 -0.6944
vn 0.2296 0.9600 -0.1605
vn 0.3530 0.9046 -0.2388
vn 0.6059 0.7952 0.0248
vn 0.1586 0.7678 -0.6208
vn 0.0332 0.8738 0.4852
vn -0.6526 0.5802 0.4873
vn -0.3081 0.9233 0.2292
vn -0.4435 0.8794 -0.1728
vn -0.4752 -0.5147 -0.7137
vn -0.3571 -0.6815 -0.6388
vn -0.5862 -0.7683 -0.2570
vn -0.7391 -0.5888 -0.3272
vn -0.7000 -0.6920 0.1762
vn -0.8333 -0.5279 0.1643
vn -0.2537 -0.9600 -0.1186
vn -0.3833 -0.9047 -0.1863
vn -0.2815 -0.7952 -0.5371
vn -0.6169 -0.7678 0.1730
vn 0.4036 -0.8738 -0.2713
vn 0.3525 -0.9233 0.1522
vn 0.7483 -0.5802 0.3215
vn 0.0721 -0.8795 0.4705
vn 0.4752 0.5147 0.7137
vn 0.7391 0.5888 0.3272
vn 0.5862 0.7683 0.2570
vn 0.3571 0.6815 0.6387
vn 0.8333 0.5279 -0.1643
vn 0.7000 0.6920 -0.1762
vn 0.2537 0.9600 0.1186
vn 0.3833 0.9047 0.1863
vn 0.2815 0.7952 0.5371
vn 0.6169 0.7678 -0.1730
vn -0.4036 0.8738 0.2713
vn -0.7483 0.5802 -0.3215
vn -0.3525 0.9233 -0.1522
vn -0.0721 0.8794 -0.4705
vn 0.8556 -0.5147 -0.0547
vn 0.7317 -0.6815 0.0101
vn 0.5157 -0.7683 -0.3792
vn 0.6529 -0.5888 -0.4764
vn 0.1974 -0.6920 -0.6944
vn 0.2744 -0.5279 -0.8038
vn 0.2296 -0.9600 -0.1605
vn 0.3529 -0.9047 -0.2388
vn 0.6059 -0.7952 0.0248
vn 0.1586 -0.7678 -0.6208
vn 0.0332 -0.8738 0.4852
vn -0.3081 -0.9233 0.2292
vn -0.6526 -0.5802 0.4873
vn -0.4435 -0.8794 -0.1728
vn -0.8556 0.5147 0.0547
vn -0.6529 0.5888 0.4764
vn -0.5157 0.7683 0.3792
vn -0.7317 0.6815 -0.0101
vn -0.2744 0.5279 0.8038
vn -0.1974 0.6920 0.6944
vn -0.2296 0.9600 0.1605
vn -0.3530 0.9046 0.2388
vn -0.6059 0.7952 -0.0247
vn -0.1586 0.7678 0.6208
vn -0.0332 0.8738 -0.4852
vn 0.6526 0.5802 -0.4872
vn 0.3081 0.9233 -0.2292
vn 0.4435 0.8794 0.1728
vn 0.8331 -0.5147 -0.2024
vn 0.7224 -0.6815 -0.1171
vn 0.4420 -0.7683 -0.4630
vn 0.5603 -0.5888 -0.5826
vn 0.0738 -0.6920 -0.7181
vn 0.1306 -0.5279 -0.8392
vn 0.1982 -0.9600 -0.1979
vn 0.3061 -0.9047 -0.2965
vn 0.6010 -0.7952 -0.0808
vn 0.0484 -0.7678 -0.6389
vn 0.1169 -0.8738 0.4721
vn -0.2636 -0.9233 0.2792
vn -0.5581 -0.5802 0.5932
vn -0.4668 -0.8794 -0.0932
vn -0.8331 0.5147 0.2024
vn -0.5603 0.5888 0.5826
vn -0.4420 0.7683 0.4630
vn -0.7224 0.6815 0.1171
vn -0.1306 0.5279 0.8392
vn -0.0738 0.6920 0.7181
vn -0.1982 0.9600 0.1979
vn -0.3061 0.9046 0.2965
vn -0.6010 0.7952 0.0808
vn -0.0484 0.7678 0.6389
vn -0.1170 0.8738 -0.4721
vn 0.5581 0.5802 -0.5932
vn 0.2636 0.9233 -0.2792
vn 0.4668 0.8794 0.0932
vn 0.0475 0.9987 0.0206
vn 0.5702 -0.7198 -0.3960
vn 0.2750 -0.6336 0.7232
vn -0.8097 -0.4110 0.4189
vn -0.5297 -0.4916 -0.6912
vn -0.5326 0.0914 -0.8414
vn 0.8072 -0.3258 -0.4922
vn -0.8020 0.3402 0.4910
vn 0.4502 -0.0817 0.8892
vn 0.7468 -0.4677 -0.4729
vn -0.4950 0.1570 -0.8546
vn 0.6125 0.7415 -0.2739
vn -0.6382 0.6403 0.4275
vn 0.4858 -0.0159 0.8739
vn 0.1721 -0.9634 -0.2055
vn -0.2217 -0.5502 0.8050
vn -0.9631 0.1209 0.2405
vn -0.5805 -0.2785 -0.7651
vn -0.2550 0.1941 -0.9473
vn 0.5915 -0.7608 -0.2669
vn -0.5795 0.7703 0.2662
vn 0.1827 -0.1368 0.9736
vn 0.4640 -0.8487 -0.2539
vn -0.1871 0.2292 -0.9552
vn 0.9445 0.2832 -0.1666
vn -0.2757 0.9346 0.2248
vn 0.2493 -0.1010 0.9631
vn -0.5308 -0.8301 -0.1709
vn 0.6645 -0.5962 -0.4506
vn 0.7603 -0.2652 0.5930
vn -0.2021 -0.4010 0.8935
vn -0.4510 0.1471 0.8803
vn -0.7875 -0.4883 -0.3760
vn 0.7873 0.4887 0.3760
vn 0.5404 -0.1327 -0.8309
vn -0.7251 -0.6106 -0.3184
vn -0.4943 0.2109 0.8433
vn -0.6381 0.6097 -0.4703
vn 0.6096 0.7592 0.2280
vn 0.4977 -0.0697 -0.8645
vn -0.5361 -0.8441 -0.0003
vn 0.2269 -0.5306 -0.8167
vn 0.9742 -0.2257 0.0002
vn 0.2274 -0.5304 0.8167
vn 0.0453 0.0139 0.9989
vn -0.8624 -0.5062 0.0004
vn 0.8546 0.5194 -0.0008
vn 0.0464 0.0145 -0.9988
vn -0.7736 -0.6337 0.0011
vn -0.0062 0.0709 0.9975
vn -0.8009 0.5988 -0.0000
vn 0.6251 0.7806 -0.0006
vn -0.0045 0.0715 -0.9974
vn -0.1582 -0.8772 0.4533
vn -0.8154 -0.4270 -0.3908
vn 0.1315 -0.1519 -0.9796
vn 0.7919 -0.5918 -0.1505
vn 0.9911 -0.0838 0.1038
vn -0.1781 -0.5661 0.8049
vn 0.1780 0.5786 -0.7960
vn -0.9743 0.1187 -0.1916
vn -0.1749 -0.6861 0.7062
vn 0.9867 -0.0308 0.1594
vn -0.0713 0.5348 0.8420
vn 0.1656 0.8207 -0.5468
vn -0.9758 0.1713 -0.1362
vn -0.1771 -0.7199 -0.6711
vn 0.7737 -0.6335 -0.0110
vn 0.1167 -0.4110 0.9042
vn -0.8307 -0.4915 0.2614
vn -0.9728 0.0914 0.2127
vn -0.1864 -0.3258 -0.9269
vn 0.1871 0.3402 0.9216
vn 0.9895 -0.0816 -0.1189
vn -0.1891 -0.4677 -0.8634
vn -0.9723 0.1571 0.1729
vn -0.0479 0.7415 -0.6693
vn 0.1835 0.6403 0.7459
vn 0.9874 -0.0159 -0.1576
s 1
f 1/1/1 2/2/2 3/3/3
f 3/3/3 4/4/4 1/1/1
f 5/5/5 6/6/6 2/2/2
f 2/2/2 1/1/1 5/5/5
f 7/7/7 8/8/8 6/6/6
f 6/6/6 5/5/5 7/7/7
f 9/9/9 10/10/10 8/8/8
f 8/8/8 7/7/7 9/9/9
f 11/11/11 12/12/12 10/10/10
f 10/10/10 9/9/9 11/11/11
f 4/4/4 3/3/3 12/12/12
f 12/12/12 11/11/11 4/4/4
f 13/13/13 14/14/14 15/15/15
f 15/15/15 16/16/16 13/13/13
f 17/17/17 18/18/18 14/14/14
f 14/14/14 13/13/13 17/17/17
f 19/19/19 20/20/20 18/18/18
f 18/18/18 17/17/17 19/19/19
f 21/21/21 22/22/22 20/20/20
f 20/20/20 19/19/19 21/21/21
f 23/23/23 24/24/24 22/22/22
f 22/22/22 21/21/21 23/23/23
f 23/23/23 16/16/16 15/15/15
f 15/15/15 24/24/24 23/23/23
f 13/13/13 16/16/16 3/3/3
f 3/3/3 2/2/2 13/13/13
f 17/17/17 13/13/13 2/2/2
f 2/2/2 6/6/6 17/17/17
f 19/19/19 17/17/17 6/6/6
f 6/6/6 8/8/8 19/19/19
f 21/21/21 19/19/19 8/8/8
f 8/8/8 10/10/10 21/21/21
f 23/23/23 21/21/21 10/10/10
f 10/10/10 12/12/12 23/23/23
f 16/16/16 23/23/23 12/12/12
f 12/12/12 3/3/3 16/16/16
s 2
f 25/25/25 26/26/26 27/27/27
f 25/25/25 27/27/27 28/28/28
f 25/25/25 28/28/28 29/29/29
f 25/25/25 29/29/29 30/30/30
f 25/31/25 30/32/30 31/33/31
f 25/31/25 31/33/31 32/34/32
f 25/31/25 32/34/32 33/35/33
f 25/31/25 33/35/33 26/36/26
f 34/37/34 35/38/35 36/39/36
f 36/39/36 37/40/37 34/37/34
f 38/41/38 39/42/39 35/38/35
f 35/38/35 34/37/34 38/41/38
f 40/43/40 41/44/41 39/42/39
f 39/42/39 38/41/38 40/43/40
f 41/45/41 42/46/42 43/47/43
f 44/48/44 45/49/45 43/47/43
f 43/47/43 42/46/42 44/48/44
f 46/50/46 47/51/47 45/49/45
f 45/49/45 44/48/44 46/50/46
f 48/52/48 49/53/49 47/51/47
f 47/51/47 46/50/46 48/52/48
f 37/54/37 36/55/36 49/53/49
f 49/53/49 48/52/48 37/54/37
f 37/40/37 50/56/50 34/37/34
f 51/57/51 38/41/38 34/37/34
f 34/37/34 50/56/50 51/57/51
f 52/58/52 40/43/40 38/41/38
f 38/41/38 51/57/51 52/58/52
f 53/59/53 42/60/42 40/43/40
f 40/43/40 52/58/52 53/59/53
f 54/61/54 44/48/44 42/46/42
f 42/46/42 53/62/53 54/61/54
f 55/63/55 46/50/46 44/48/44
f 44/48/44 54/61/54 55/63/55
f 56/64/56 48/52/48 46/50/46
f 46/50/46 55/63/55 56/64/56
f 48/52/48 56/64/56 37/54/37
f 57/65/57 50/66/50 58/67/58
f 57/65/57 51/68/51 50/66/50
f 57/65/57 52/69/52 51/68/51
f 57/65/57 53/70/53 52/69/52
f 57/65/57 54/71/54 53/70/53
f 57/65/57 55/72/55 54/71/54
f 57/65/57 56/73/56 55/72/55
f 57/65/57 58/67/58 56/73/56
f 37/74/37 58/67/58 50/66/50
f 56/73/56 58/67/58 37/74/37
f 35/75/35 27/27/27 26/26/26
f 26/26/26 36/76/36 35/75/35
f 49/77/49 36/78/36 26/36/26
f 26/36/26 33/35/33 49/77/49
f 41/44/41 40/43/40 42/60/42
f 41/79/41 29/29/29 28/28/28
f 28/28/28 39/80/39 41/79/41
f 43/81/43 30/30/30 29/29/29
f 29/29/29 41/79/41 43/81/43
f 45/82/45 31/33/31 30/32/30
f 30/32/30 43/83/43 45/82/45
f 47/84/47 32/34/32 31/33/31
f 31/33/31 45/82/45 47/84/47
f 27/27/27 35/75/35 39/80/39
f 39/80/39 28/28/28 27/27/27
f 47/84/47 49/77/49 33/35/33
f 33/35/33 32/34/32 47/84/47
s 3
f 59/85/59 60/86/60 61/87/61
f 61/87/61 62/88/62 59/85/59
f 62/88/62 61/87/61 63/89/63
f 63/89/63 64/90/64 62/88/62
f 65/91/65 61/87/61 60/86/60
f 65/91/65 63/89/63 61/87/61
f 66/92/66 67/93/67 59/85/59
f 59/85/59 62/88/62 66/92/66
f 68/94/68 66/92/66 62/88/62
f 62/88/62 64/90/64 68/94/68
f 69/95/69 70/96/70 71/97/71
f 70/96/70 72/98/72 71/97/71
f 67/93/67 66/92/66 70/96/70
f 70/96/70 69/95/69 67/93/67
f 72/98/72 70/96/70 66/92/66
f 66/92/66 68/94/68 72/98/72
s 4
f 73/99/73 74/100/74 75/101/75
f 75/101/75 76/102/76 73/99/73
f 74/100/74 77/103/77 78/104/78
f 78/104/78 75/101/75 74/100/74
f 79/105/79 76/102/76 75/101/75
f 79/105/79 75/101/75 78/104/78
f 80/106/80 74/100/74 73/99/73
f 73/99/73 81/107/81 80/106/80
f 82/108/82 77/103/77 74/100/74
f 74/100/74 80/106/80 82/108/82
f 83/109/83 84/110/84 85/111/85
f 85/111/85 84/110/84 86/112/86
f 81/107/81 83/109/83 85/111/85
f 85/111/85 80/106/80 81/107/81
f 86/112/86 82/108/82 80/106/80
f 80/106/80 85/111/85 86/112/86
s 5
f 87/113/87 88/114/88 89/115/89
f 87/113/87 89/115/89 90/116/90
f 87/113/87 90/116/90 91/117/91
f 87/113/87 91/117/91 92/118/92
f 87/119/87 92/120/92 93/121/93
f 87/119/87 93/121/93 94/122/94
f 87/119/87 94/122/94 95/123/95
f 87/119/87 95/123/95 88/124/88
f 96/125/96 97/126/97 98/127/98
f 98/127/98 99/128/99 96/125/96
f 100/129/100 101/130/101 97/126/97
f 97/126/97 96/125/96 100/129/100
f 102/131/102 103/132/103 101/130/101
f 101/130/101 100/129/100 102/131/102
f 103/133/103 104/134/104 105/135/105
f 106/136/106 107/137/107 105/135/105
f 105/135/105 104/134/104 106/136/106
f 108/138/108 109/139/109 107/137/107
f 107/137/107 106/136/106 108/138/108
f 110/140/110 111/141/111 109/139/109
f 109/139/109 108/138/108 110/140/110
f 99/142/99 98/143/98 111/141/111
f 111/141/111 110/140/110 99/142/99
f 99/128/99 112/144/112 96/125/96
f 113/145/113 100/129/100 96/125/96
f 96/125/96 112/144/112 113/145/113
f 114/146/114 102/131/102 100/129/100
f 100/129/100 113/145/113 114/146/114
f 115/147/115 104/148/104 102/131/102
f 102/131/102 114/146/114 115/147/115
f 116/149/116 106/136/106 104/134/104
f 104/134/104 115/150/115 116/149/116
f 117/151/117 108/138/108 106/136/106
f 106/136/106 116/149/116 117/151/117
f 118/152/118 110/140/110 108/138/108
f 108/138/108 117/151/117 118/152/118
f 110/140/110 118/152/118 99/142/99
f 119/153/119 112/154/112 120/155/120
f 119/153/119 113/156/113 112/154/112
f 119/153/119 114/157/114 113/156/113
f 119/153/119 115/158/115 114/157/114
f 119/153/119 116/159/116 115/158/115
f 119/153/119 117/160/117 116/159/116
f 119/153/119 118/161/118 117/160/117
f 119/153/119 120/155/120 118/161/118
f 99/162/99 120/155/120 112/154/112
f 118/161/118 120/155/120 99/162/99
f 97/163/97 89/115/89 88/114/88
f 88/114/88 98/164/98 97/163/97
f 111/165/111 98/166/98 88/124/88
f 88/124/88 95/123/95 111/165/111
f 103/132/103 102/131/102 104/148/104
f 103/167/103 91/117/91 90/116/90
f 90/116/90 101/168/101 103/167/103
f 105/169/105 92/118/92 91/117/91
f 91/117/91 103/167/103 105/169/105
f 107/170/107 93/121/93 92/120/92
f 92/120/92 105/171/105 107/170/107
f 109/172/109 94/122/94 93/121/93
f 93/121/93 107/170/107 109/172/109
f 89/115/89 97/163/97 101/168/101
f 101/168/101 90/116/90 89/115/89
f 109/172/109 111/165/111 95/123/95
f 95/123/95 94/122/94 109/172/109
s 6
f 121/173/121 122/174/122 123/175/123
f 123/175/123 124/176/124 121/173/121
f 124/176/124 123/175/123 125/177/125
f 125/177/125 126/178/126 124/176/124
f 127/179/127 123/175/123 122/174/122
f 127/179/127 125/177/125 123/175/123
f 128/180/128 129/181/129 121/173/121
f 121/173/121 124/176/124 128/180/128
f 130/182/130 128/180/128 124/176/124
f 124/176/124 126/178/126 130/182/130
f 131/183/131 132/184/132 133/185/133
f 132/184/132 134/186/134 133/185/133
f 129/181/129 128/180/128 132/184/132
f 132/184/132 131/183/131 129/181/129
f 134/186/134 132/184/132 128/180/128
f 128/180/128 130/182/130 134/186/134
s 7
f 135/187/135 136/188/136 137/189/137
f 137/189/137 138/190/138 135/187/135
f 136/188/136 139/191/139 140/192/140
f 140/192/140 137/189/137 136/188/136
f 141/193/141 138/190/138 137/189/137
f 141/193/141 137/189/137 140/192/140
f 142/194/142 136/188/136 135/187/135
f 135/187/135 143/195/143 142/194/142
f 144/196/144 139/191/139 136/188/136
f 136/188/136 142/194/142 144/196/144
f 145/197/145 146/198/146 147/199/147
f 147/199/147 146/198/146 148/200/148
f 143/195/143 145/197/145 147/199/147
f 147/199/147 142/194/142 143/195/143
f 148/200/148 144/196/144 142/194/142
f 142/194/142 147/199/147 148/200/148
s 8
f 149/201/149 150/202/150 151/203/151
f 151/203/151 152/204/152 149/201/149
f 152/204/152 151/203/151 153/205/153
f 153/205/153 154/206/154 152/204/152
f 155/207/155 151/203/151 150/202/150
f 155/207/155 153/205/153 151/203/151
f 156/208/156 157/209/157 149/201/149
f 149/201/149 152/204/152 156/208/156
f 158/210/158 156/208/156 152/204/152
f 152/204/152 154/206/154 158/210/158
f 159/211/159 160/212/160 161/213/161
f 160/212/160 162/214/162 161/213/161
f 157/209/157 156/208/156 160/212/160
f 160/212/160 159/211/159 157/209/157
f 162/214/162 160/212/160 156/208/156
f 156/208/156 158/210/158 162/214/162
s 9
f 163/215/163 164/216/164 165/217/165
f 165/217/165 166/218/166 163/215/163
f 164/216/164 167/219/167 168/220/168
f 168/220/168 165/217/165 164/216/164
f 169/221/169 166/218/166 165/217/165
f 169/221/169 165/217/165 168/220/168
f 170/222/170 164/216/164 163/215/163
f 163/215/163 171/223/171 170/222/170
f 172/224/172 167/219/167 164/216/164
f 164/216/164 170/222/170 172/224/172
f 173/225/173 174/226/174 175/227/175
f 175/227/175 174/226/174 176/228/176
f 171/223/171 173/225/173 175/227/175
f 175/227/175 170/222/170 171/223/171
f 176/228/176 172/224/172 170/222/170
f 170/222/170 175/227/175 176/228/176
s 10
f 177/229/177 178/230/178 179/231/179
f 179/231/179 180/232/180 177/229/177
f 180/232/180 179/231/179 181/233/181
f 181/233/181 182/234/182 180/232/180
f 183/235/183 179/231/179 178/230/178
f 183/235/183 181/233/181 179/231/179
f 184/236/184 185/237/185 177/229/177
f 177/229/177 180/232/180 184/236/184
f 186/238/186 184/236/184 180/232/180
f 180/232/180 182/234/182 186/238/186
f 187/239/187 188/240/188 189/241/189
f 188/240/188 190/242/190 189/241/189
f 185/237/185 184/236/184 188/240/188
f 188/240/188 187/239/187 185/237/185
f 190/242/190 188/240/188 184/236/184
f 184/236/184 186/238/186 190/242/190
s 11
f 191/243/191 192/244/192 193/245/193
f 193/245/193 194/246/194 191/243/191
f 192/244/192 195/247/195 196/248/196
f 196/248/196 193/245/193 192/244/192
f 197/249/197 194/246/194 193/245/193
f 197/249/197 193/245/193 196/248/196
f 198/250/198 192/244/192 191/243/191
f 191/243/191 199/251/199 198/250/198
f 200/252/200 195/247/195 192/244/192
f 192/244/192 198/250/198 200/252/200
f 201/253/201 202/254/202 203/255/203
f 203/255/203 202/254/202 204/256/204
f 199/251/199 201/253/201 203/255/203
f 203/255/203 198/250/198 199/251/199
f 204/256/204 200/252/200 198/250/198
f 198/250/198 203/255/203 204/256/204
s 12
f 205/257/205 206/258/206 207/259/207
f 207/259/207 208/260/208 205/257/205
f 208/260/208 207/259/207 209/261/209
f 209/261/209 210/262/210 208/260/208
f 211/263/211 207/259/207 206/258/206
f 211/263/211 209/261/209 207/259/207
f 212/264/212 213/265/213 205/257/205
f 205/257/205 208/260/208 212/264/212
f 214/266/214 212/264/212 208/260/208
f 208/260/208 210/262/210 214/266/214
f 215/267/215 216/268/216 217/269/217
f 216/268/216 218/270/218 217/269/217
f 213/265/213 212/264/212 216/268/216
f 216/268/216 215/267/215 213/265/213
f 218/270/218 216/268/216 212/264/212
f 212/264/212 214/266/214 218/270/218
s 13
f 219/271/219 220/272/220 221/273/221
f 221/273/221 222/274/222 219/271/219
f 220/272/220 223/275/223 224/276/224
f 224/276/224 221/273/221 220/272/220
f 225/277/225 222/274/222 221/273/221
f 225/277/225 221/273/221 224/276/224
f 226/278/226 220/272/220 219/271/219
f 219/271/219 227/279/227 226/278/226
f 228/280/228 223/275/223 220/272/220
f 220/272/220 226/278/226 228/280/228
f 229/281/229 230/282/230 231/283/231
f 231/283/231 230/282/230 232/284/232
f 227/279/227 229/281/229 231/283/231
f 231/283/231 226/278/226 227/279/227
f 232/284/232 228/280/228 226/278/226
f 226/278/226 231/283/231 232/284/232
s 1
f 14/285/14 233/286/233 15/287/15
f 18/288/18 233/286/233 14/289/14
f 20/290/20 233/286/233 18/288/18
f 22/291/22 233/286/233 20/290/20
f 24/292/24 233/286/233 22/293/22
f 15/287/15 233/286/233 24/292/24
s 14
f 234/294/234 235/295/235 236/296/236
f 236/296/236 237/297/237 234/294/234
f 237/298/237 238/299/238 239/300/239
f 239/300/239 234/301/234 237/298/237
f 236/302/236 240/303/240 238/299/238
f 238/299/238 237/298/237 236/302/236
f 235/304/235 241/305/241 240/306/240
f 240/306/240 236/307/236 235/304/235
f 234/308/234 239/309/239 241/305/241
f 241/305/241 235/304/235 234/308/234
f 242/310/242 243/311/243 244/312/244
f 243/311/243 245/313/245 244/312/244
f 245/314/245 246/315/246 244/312/244
f 246/315/246 242/316/242 244/312/244
f 243/311/243 242/310/242 239/300/239
f 239/300/239 238/299/238 243/311/243
f 245/313/245 243/311/243 238/299/238
f 238/299/238 240/303/240 245/313/245
f 246/315/246 245/314/245 240/306/240
f 240/306/240 241/305/241 246/315/246
f 242/316/242 246/315/246 241/305/241
f 241/305/241 239/309/239 242/316/242
s 15
f 247/317/247 248/318/248 249/319/249
f 249/319/249 250/320/250 247/317/247
f 250/321/250 251/322/251 252/323/252
f 252/323/252 247/324/247 250/321/250
f 249/325/249 253/326/253 251/322/251
f 251/322/251 250/321/250 249/325/249
f 248/327/248 254/328/254 253/329/253
f 253/329/253 249/330/249 248/327/248
f 247/331/247 252/332/252 254/328/254
f 254/328/254 248/327/248 247/331/247
f 255/333/255 256/334/256 257/335/257
f 256/334/256 258/336/258 257/335/257
f 258/337/258 259/338/259 257/335/257
f 259/338/259 255/339/255 257/335/257
f 256/334/256 255/333/255 252/323/252
f 252/323/252 251/322/251 256/334/256
f 258/336/258 256/334/256 251/322/251
f 251/322/251 253/326/253 258/336/258
f 259/338/259 258/337/258 253/329/253
f 253/329/253 254/328/254 259/338/259
f 255/339/255 259/338/259 254/328/254
f 254/328/254 252/332/252 255/339/255
s 16
f 260/340/260 261/341/261 262/342/262
f 262/342/262 263/343/263 260/340/260
f 263/344/263 264/345/264 265/346/265
f 265/346/265 260/347/260 263/344/263
f 262/348/262 266/349/266 264/345/264
f 264/345/264 263/344/263 262/348/262
f 261/350/261 267/351/267 266/352/266
f 266/352/266 262/353/262 261/350/261
f 260/354/260 265/355/265 267/351/267
f 267/351/267 261/350/261 260/354/260
f 268/356/268 269/357/269 270/358/270
f 269/357/269 271/359/271 270/358/270
f 271/360/271 272/361/272 270/358/270
f 272/361/272 268/362/268 270/358/270
f 269/357/269 268/356/268 265/346/265
f 265/346/265 264/345/264 269/357/269
f 271/359/271 269/357/269 264/345/264
f 264/345/264 266/349/266 271/359/271
f 272/361/272 271/360/271 266/352/266
f 266/352/266 267/351/267 272/361/272
f 268/362/268 272/361/272 267/351/267
f 267/351/267 265/355/265 268/362/268
s 17
f 273/363/273 274/364/274 275/365/275
f 275/365/275 276/366/276 273/363/273
f 276/367/276 277/368/277 278/369/278
f 278/369/278 273/370/273 276/367/276
f 275/371/275 279/372/279 277/368/277
f 277/368/277 276/367/276 275/371/275
f 274/373/274 280/374/280 279/375/279
f 279/375/279 275/376/275 274/373/274
f 273/377/273 278/378/278 280/374/280
f 280/374/280 274/373/274 273/377/273
f 281/379/281 282/380/282 283/381/283
f 282/380/282 284/382/284 283/381/283
f 284/383/284 285/384/285 283/381/283
f 285/384/285 281/385/281 283/381/283
f 282/380/282 281/379/281 278/369/278
f 278/369/278 277/368/277 282/380/282
f 284/382/284 282/380/282 277/368/277
f 277/368/277 279/372/279 284/382/284
f 285/384/285 284/383/284 279/375/279
f 279/375/279 280/374/280 285/384/285
f 281/385/281 285/384/285 280/374/280
f 280/374/280 278/378/278 281/385/281
s 18
f 286/386/286 287/387/287 288/388/288
f 288/388/288 289/389/289 286/386/286
f 289/390/289 290/391/290 291/392/291
f 291/392/291 286/393/286 289/390/289
f 288/394/288 292/395/292 290/391/290
f 290/391/290 289/390/289 288/394/288
f 287/396/287 293/397/293 292/398/292
f 292/398/292 288/399/288 287/396/287
f 286/400/286 291/401/291 293/397/293
f 293/397/293 287/396/287 286/400/286
f 294/402/294 295/403/295 296/404/296
f 295/403/295 297/405/297 296/404/296
f 297/406/297 298/407/298 296/404/296
f 298/407/298 294/408/294 296/404/296
f 295/403/295 294/402/294 291/392/291
f 291/392/291 290/391/290 295/403/295
f 297/405/297 295/403/295 290/391/290
f 290/391/290 292/395/292 297/405/297
f 298/407/298 297/406/297 292/398/292
f 292/398/292 293/397/293 298/407/298
f 294/408/294 298/407/298 293/397/293
f 293/397/293 291/401/291 294/408/294
s 19
f 299/409/299 300/410/300 301/411/301
f 301/411/301 302/412/302 299/409/299
f 302/413/302 303/414/303 304/415/304
f 304/415/304 299/416/299 302/413/302
f 301/417/301 305/418/305 303/414/303
f 303/414/303 302/413/302 301/417/301
f 300/419/300 306/420/306 305/421/305
f 305/421/305 301/422/301 300/419/300
f 299/423/299 304/424/304 306/420/306
f 306/420/306 300/419/300 299/423/299
f 307/425/307 308/426/308 309/427/309
f 308/426/308 310/428/310 309/427/309
f 310/429/310 311/430/311 309/427/309
f 311/430/311 307/431/307 309/427/309
f 308/426/308 307/425/307 304/415/304
f 304/415/304 303/414/303 308/426/308
f 310/428/310 308/426/308 303/414/303
f 303/414/303 305/418/305 310/428/310
f 311/430/311 310/429/310 305/421/305
f 305/421/305 306/420/306 311/430/311
f 307/431/307 311/430/311 306/420/306
f 306/420/306 304/424/304 307/431/307
