# Blender v3.3.0 OBJ File: ''
# www.blender.org
o CornStage00.005
v -0.037319 0.094805 -0.002744
v -0.026061 0.073262 -0.006784
v -0.021380 0.067770 0.024682
v -0.031988 0.088551 0.033088
v 0.007729 0.072660 0.037831
v 0.001161 0.094120 0.048062
v 0.006111 0.057684 0.003679
v -0.055672 0.127232 0.050051
v -0.066630 0.136402 0.024158
v -0.033971 0.136072 0.067977
v -0.084631 0.132573 0.054220
v -0.073843 0.127750 0.059392
v -0.086222 0.112430 0.073920
v -0.068194 0.132448 0.076582
v -0.037319 0.095532 -0.002744
v -0.031988 0.089277 0.033088
v -0.021380 0.068496 0.024682
v -0.026061 0.073988 -0.006784
v 0.001161 0.094846 0.048062
v 0.007729 0.073386 0.037831
v 0.006112 0.058411 0.003679
v -0.055672 0.127958 0.050051
v -0.066630 0.137128 0.024158
v -0.033971 0.136798 0.067977
v -0.084631 0.133300 0.054220
v -0.086221 0.113156 0.073920
v -0.073843 0.128476 0.059392
v -0.068194 0.133174 0.076582
v 0.004528 -0.018404 -0.007843
v 0.011646 0.098938 -0.008184
v 0.016870 0.100908 -0.000951
v 0.009056 -0.018404 -0.000000
v -0.004528 -0.018404 -0.007843
v 0.002661 0.098164 -0.007233
v -0.009056 -0.018404 -0.000000
v -0.001101 0.099359 0.000951
v -0.004528 -0.018404 0.007843
v 0.004122 0.101329 0.008184
v 0.004528 -0.018404 0.007843
v 0.013107 0.102103 0.007233
v -0.004617 0.227366 -0.005223
v -0.002074 0.304041 0.002344
v -0.002374 0.226391 0.000401
v -0.010580 0.228675 -0.006014
v -0.014300 0.229009 -0.001182
v -0.012056 0.228034 0.004442
v -0.006093 0.226725 0.005233
vt 0.993600 0.477700
vt 0.988300 0.255700
vt 0.849000 0.254500
vt 0.840800 0.453400
vt 0.732500 0.255000
vt 0.713500 0.447600
vt 0.854900 0.179100
vt 0.842200 0.687300
vt 0.980800 0.671700
vt 0.734900 0.683500
vt 0.891200 0.935800
vt 0.861500 0.932600
vt 0.851900 0.993000
vt 0.805300 0.951300
vt 0.993600 0.477700
vt 0.840800 0.453400
vt 0.849000 0.254500
vt 0.988300 0.255700
vt 0.713500 0.447600
vt 0.732500 0.255000
vt 0.854900 0.179100
vt 0.842200 0.687300
vt 0.980800 0.671700
vt 0.734900 0.683500
vt 0.891200 0.935800
vt 0.851900 0.993000
vt 0.861500 0.932600
vt 0.805300 0.951300
vt 0.004300 0.079400
vt 0.448900 0.079400
vt 0.448900 0.100200
vt 0.004300 0.100200
vt 0.004300 0.100200
vt 0.448900 0.100200
vt 0.004300 0.125000
vt 0.448900 0.125000
vt 0.004300 0.145200
vt 0.448900 0.145200
vt 0.004300 0.125000
vt 0.448900 0.125000
vt 0.900900 0.079400
vt 0.990000 0.113700
vt 0.900900 0.100200
vt 0.900900 0.100200
vt 0.900900 0.125000
vt 0.900900 0.145200
vt 0.900900 0.125000
vn -0.8556 -0.5147 0.0547
vn -0.7317 -0.6815 -0.0101
vn -0.5157 -0.7683 0.3792
vn -0.6529 -0.5888 0.4764
vn -0.1974 -0.6920 0.6944
vn -0.2744 -0.5279 0.8038
vn -0.2296 -0.9600 0.1605
vn -0.3384 -0.9091 0.2430
vn -0.6062 -0.7945 -0.0360
vn -0.1586 -0.7678 0.6208
vn -0.1580 -0.8647 -0.4769
vn 0.1182 -0.9631 -0.2418
vn 0.5275 -0.7689 -0.3613
vn 0.4016 -0.9054 0.1376
vn 0.8556 0.5147 -0.0547
vn 0.6529 0.5888 -0.4764
vn 0.5157 0.7683 -0.3792
vn 0.7317 0.6815 0.0101
vn 0.2744 0.5279 -0.8038
vn 0.1974 0.6920 -0.6944
vn 0.2296 0.9600 -0.1605
vn 0.3384 0.9091 -0.2430
vn 0.6062 0.7945 0.0361
vn 0.1586 0.7678 -0.6208
vn 0.1580 0.8647 0.4769
vn -0.5275 0.7689 0.3613
vn -0.1181 0.9631 0.2418
vn -0.4016 0.9054 -0.1376
vn 0.4835 -0.0354 -0.8747
vn 0.4306 0.0155 -0.9024
vn 0.9941 0.0420 -0.0998
vn 0.9976 -0.0689 0.0005
vn -0.5156 0.0319 -0.8562
vn -0.5639 -0.0020 -0.8258
vn -0.9980 0.0638 -0.0005
vn -0.9946 -0.0167 0.1029
vn -0.5152 0.0310 0.8565
vn -0.3799 -0.0038 0.9250
vn 0.4839 -0.0345 0.8744
vn 0.6040 0.0372 0.7961
vn 0.5978 0.0761 -0.7981
vn 0.0823 0.9960 0.0359
vn 0.9865 0.0831 0.1413
vn -0.3986 0.0583 -0.9153
vn -0.9895 0.0429 -0.1378
vn -0.6338 0.0218 0.7732
vn 0.3578 0.0449 0.9327
s 1
f 1/1/1 2/2/2 3/3/3
f 3/3/3 4/4/4 1/1/1
f 4/4/4 3/3/3 5/5/5
f 5/5/5 6/6/6 4/4/4
f 7/7/7 3/3/3 2/2/2
f 7/7/7 5/5/5 3/3/3
f 8/8/8 9/9/9 1/1/1
f 1/1/1 4/4/4 8/8/8
f 10/10/10 8/8/8 4/4/4
f 4/4/4 6/6/6 10/10/10
f 11/11/11 12/12/12 13/13/13
f 12/12/12 14/14/14 13/13/13
f 9/9/9 8/8/8 12/12/12
f 12/12/12 11/11/11 9/9/9
f 14/14/14 12/12/12 8/8/8
f 8/8/8 10/10/10 14/14/14
s 2
f 15/15/15 16/16/16 17/17/17
f 17/17/17 18/18/18 15/15/15
f 16/16/16 19/19/19 20/20/20
f 20/20/20 17/17/17 16/16/16
f 21/21/21 18/18/18 17/17/17
f 21/21/21 17/17/17 20/20/20
f 22/22/22 16/16/16 15/15/15
f 15/15/15 23/23/23 22/22/22
f 24/24/24 19/19/19 16/16/16
f 16/16/16 22/22/22 24/24/24
f 25/25/25 26/26/26 27/27/27
f 27/27/27 26/26/26 28/28/28
f 23/23/23 25/25/25 27/27/27
f 27/27/27 22/22/22 23/23/23
f 28/28/28 24/24/24 22/22/22
f 22/22/22 27/27/27 28/28/28
s 3
f 29/29/29 30/30/30 31/31/31
f 31/31/31 32/32/32 29/29/29
f 33/33/33 34/34/34 30/30/30
f 30/30/30 29/29/29 33/33/33
f 35/35/35 36/36/36 34/34/34
f 34/34/34 33/33/33 35/35/35
f 37/37/37 38/38/38 36/36/36
f 36/36/36 35/35/35 37/37/37
f 39/39/39 40/40/40 38/38/38
f 38/38/38 37/37/37 39/39/39
f 32/32/32 31/31/31 40/40/40
f 40/40/40 39/39/39 32/32/32
f 41/41/41 42/42/42 43/43/43
f 44/44/44 42/42/42 41/41/41
f 45/45/45 42/42/42 44/44/44
f 46/46/46 42/42/42 45/45/45
f 47/47/47 42/42/42 46/46/46
f 43/43/43 42/42/42 47/47/47
f 41/41/41 43/43/43 31/31/31
f 31/31/31 30/30/30 41/41/41
f 44/44/44 41/41/41 30/30/30
f 30/30/30 34/34/34 44/44/44
f 45/45/45 44/44/44 34/34/34
f 34/34/34 36/36/36 45/45/45
f 46/46/46 45/45/45 36/36/36
f 36/36/36 38/38/38 46/46/46
f 47/47/47 46/46/46 38/38/38
f 38/38/38 40/40/40 47/47/47
f 43/43/43 47/47/47 40/40/40
f 40/40/40 31/31/31 43/43/43
