# Blender v3.3.0 OBJ File: ''
# www.blender.org
o CornStage04.005
v 0.009232 -0.029299 -0.015989
v 0.023743 0.284853 -0.016684
v 0.034391 0.288869 -0.001939
v 0.018463 -0.029299 -0.000000
v -0.009232 -0.029299 -0.015989
v 0.005424 0.283275 -0.014745
v -0.018463 -0.029299 -0.000000
v -0.002246 0.285712 0.001939
v -0.009232 -0.029299 0.015989
v 0.008403 0.289727 0.016684
v 0.009232 -0.029299 0.015989
v 0.026722 0.291306 0.014745
v -0.007934 0.830746 -0.010648
v 0.003107 0.981804 -0.002935
v 0.005393 0.980810 0.002798
v -0.003361 0.828758 0.000818
v -0.020091 0.833415 -0.012262
v -0.002972 0.983138 -0.003742
v -0.027674 0.834096 -0.002410
v -0.006763 0.983478 0.001184
v -0.023100 0.832108 0.009055
v -0.004476 0.982485 0.006917
v -0.010944 0.829439 0.010669
v 0.001602 0.981150 0.007724
v 0.032913 0.470382 0.067552
v 0.015431 0.429117 0.052745
v 0.063143 0.418597 0.014846
v 0.087246 0.458402 0.024392
v 0.057076 0.427964 -0.046035
v 0.080338 0.469069 -0.044938
v 0.001975 0.399279 -0.010644
v 0.138069 0.532493 0.047432
v 0.105611 0.550058 0.090409
v 0.147022 0.549426 -0.005733
v 0.172719 0.542725 0.091478
v 0.173445 0.533486 0.062806
v 0.192351 0.504142 0.071760
v 0.194072 0.542486 0.042796
v 0.032913 0.471773 0.067552
v 0.087246 0.459793 0.024392
v 0.063143 0.419988 0.014846
v 0.015431 0.430508 0.052745
v 0.080338 0.470460 -0.044938
v 0.057076 0.429355 -0.046035
v 0.001975 0.400670 -0.010644
v 0.138069 0.533884 0.047432
v 0.105611 0.551449 0.090409
v 0.147022 0.550817 -0.005733
v 0.172719 0.544116 0.091478
v 0.192351 0.505533 0.071760
v 0.173445 0.534877 0.062806
v 0.194072 0.543877 0.042796
v -0.088259 0.303412 -0.020951
v -0.059392 0.248173 -0.031308
v -0.047390 0.234090 0.049371
v -0.074589 0.287374 0.070924
v 0.027248 0.246629 0.083086
v 0.010407 0.301653 0.109319
v 0.023101 0.208231 -0.004480
v -0.135316 0.386555 0.114421
v -0.163414 0.410067 0.048028
v -0.079674 0.409221 0.160385
v -0.209570 0.400251 0.125109
v -0.176816 0.387884 0.145142
v -0.199850 0.348603 0.161066
v -0.167424 0.399931 0.182447
v -0.088259 0.305274 -0.020951
v -0.074589 0.289236 0.070924
v -0.047390 0.235952 0.049371
v -0.059392 0.250035 -0.031308
v 0.010407 0.303515 0.109319
v 0.027248 0.248491 0.083086
v 0.023101 0.210093 -0.004480
v -0.135316 0.388416 0.114421
v -0.163414 0.411929 0.048028
v -0.079674 0.411083 0.160385
v -0.209570 0.402113 0.125109
v -0.199850 0.350465 0.161066
v -0.176816 0.389745 0.145142
v -0.167424 0.401793 0.182447
v -0.035404 0.641703 -0.081579
v -0.017921 0.600438 -0.066772
v -0.065633 0.589918 -0.028872
v -0.089737 0.629723 -0.038418
v -0.059567 0.599285 0.032009
v -0.082829 0.640390 0.030912
v -0.004465 0.570600 -0.003382
v -0.140559 0.703814 -0.061459
v -0.108101 0.721379 -0.104436
v -0.149513 0.720747 -0.008293
v -0.175209 0.714046 -0.105505
v -0.175936 0.704807 -0.076833
v -0.194841 0.675463 -0.085786
v -0.196562 0.713807 -0.056822
v -0.035404 0.643094 -0.081579
v -0.089737 0.631114 -0.038418
v -0.065633 0.591309 -0.028872
v -0.017921 0.601829 -0.066772
v -0.082829 0.641781 0.030912
v -0.059567 0.600676 0.032009
v -0.004465 0.571991 -0.003382
v -0.140559 0.705205 -0.061459
v -0.108101 0.722770 -0.104436
v -0.149513 0.722138 -0.008293
v -0.175209 0.715437 -0.105505
v -0.194841 0.676854 -0.085786
v -0.175936 0.706198 -0.076833
v -0.196562 0.715198 -0.056822
v 0.077178 0.757043 0.010821
v 0.055614 0.715778 0.018558
v 0.046648 0.705257 -0.041712
v 0.066967 0.745062 -0.057813
v -0.009110 0.714624 -0.066898
v 0.003471 0.755729 -0.086495
v -0.006011 0.685939 -0.001483
v 0.112332 0.819153 -0.090306
v 0.133322 0.836718 -0.040708
v 0.070766 0.836086 -0.124643
v 0.167802 0.829385 -0.098291
v 0.143334 0.820146 -0.113256
v 0.160541 0.790802 -0.125152
v 0.136318 0.829146 -0.141124
v 0.077178 0.758434 0.010821
v 0.066967 0.746453 -0.057813
v 0.046648 0.706648 -0.041712
v 0.055614 0.717169 0.018558
v 0.003471 0.757120 -0.086495
v -0.009110 0.716015 -0.066898
v -0.006011 0.687330 -0.001483
v 0.112332 0.820544 -0.090306
v 0.133322 0.838109 -0.040708
v 0.070766 0.837477 -0.124643
v 0.167802 0.830776 -0.098291
v 0.160541 0.792193 -0.125152
v 0.143334 0.821537 -0.113256
v 0.136318 0.830537 -0.141124
v 0.118637 0.195624 -0.005322
v 0.092008 0.140385 0.009890
v 0.066178 0.126302 -0.067479
v 0.089222 0.179586 -0.093428
v -0.013181 0.138841 -0.087721
v -0.001151 0.193866 -0.116480
v 0.006110 0.100443 -0.002205
v 0.141473 0.278767 -0.146808
v 0.180673 0.302280 -0.086304
v 0.078695 0.301433 -0.182412
v 0.212742 0.292464 -0.170229
v 0.177008 0.280096 -0.184270
v 0.196926 0.240816 -0.203952
v 0.161280 0.292143 -0.219377
v 0.118637 0.197486 -0.005322
v 0.089222 0.181448 -0.093428
v 0.066178 0.128164 -0.067479
v 0.092008 0.142247 0.009890
v -0.001151 0.195727 -0.116480
v -0.013181 0.140703 -0.087721
v 0.006109 0.102305 -0.002205
v 0.141473 0.280629 -0.146808
v 0.180673 0.304142 -0.086304
v 0.078695 0.303295 -0.182412
v 0.212742 0.294326 -0.170229
v 0.196926 0.242677 -0.203952
v 0.177008 0.281958 -0.184270
v 0.161280 0.294005 -0.219377
v -0.077630 0.894571 0.024023
v -0.065519 0.860817 0.009722
v -0.034517 0.852211 0.048750
v -0.042326 0.884771 0.068466
v 0.015282 0.859874 0.043788
v 0.014384 0.893497 0.062815
v -0.013667 0.836410 -0.001284
v -0.061173 0.945377 0.110038
v -0.096327 0.959744 0.083488
v -0.017684 0.959227 0.117362
v -0.097202 0.953746 0.138381
v -0.073748 0.946189 0.138975
v -0.081072 0.922186 0.154439
v -0.057380 0.953550 0.155847
v -0.077630 0.895709 0.024023
v -0.042326 0.885909 0.068466
v -0.034517 0.853349 0.048750
v -0.065519 0.861955 0.009722
v 0.014384 0.894634 0.062815
v 0.015282 0.861011 0.043788
v -0.013667 0.837548 -0.001284
v -0.061173 0.946514 0.110038
v -0.096327 0.960882 0.083488
v -0.017684 0.960365 0.117362
v -0.097202 0.954884 0.138381
v -0.081072 0.923324 0.154439
v -0.073748 0.947326 0.138975
v -0.057380 0.954688 0.155847
v 0.082168 0.867608 -0.052200
v 0.076753 0.865067 -0.059084
v 0.068055 0.861797 -0.049122
v 0.065390 0.851209 -0.037088
v 0.069204 0.846239 -0.032038
v 0.077071 0.841460 -0.030773
v 0.081151 0.838539 -0.038593
v 0.082285 0.840320 -0.046357
v 0.082103 0.852742 -0.056830
v 0.028546 0.819606 -0.048025
v 0.059492 0.860019 -0.052427
v 0.071261 0.861713 -0.065154
v 0.045189 0.822002 -0.066024
v 0.017466 0.795067 -0.020537
v 0.051658 0.842667 -0.032990
v 0.018440 0.762759 0.000337
v 0.052347 0.819822 -0.018230
v 0.030898 0.741607 0.002369
v 0.061156 0.804866 -0.016793
v 0.047541 0.744003 -0.015630
v 0.072924 0.806559 -0.029520
v 0.058621 0.768542 -0.043117
v 0.080759 0.823911 -0.048957
v 0.057647 0.800850 -0.063991
v 0.080070 0.846757 -0.063717
v 0.003162 0.757049 -0.034135
v -0.004672 0.739698 -0.014698
v -0.003983 0.716852 0.000062
v 0.004826 0.701896 0.001499
v 0.016594 0.703589 -0.011228
v 0.024429 0.720941 -0.030665
v 0.023740 0.743787 -0.045425
v -0.001788 0.708994 -0.018893
v 0.014931 0.758743 -0.046862
v 0.100728 0.892310 -0.058686
v 0.091949 0.885570 -0.048769
v 0.089718 0.864868 -0.061266
v 0.095964 0.876406 -0.066422
v 0.077576 0.881043 -0.075686
v 0.089999 0.888931 -0.078780
v 0.076718 0.898375 -0.061067
v 0.094950 0.907441 -0.071612
v 0.078677 0.857060 -0.054455
v 0.085352 0.872775 -0.046355
v 0.077423 0.858760 -0.050488
v 0.074389 0.857805 -0.056170
v 0.073581 0.869067 -0.068401
v 0.074258 0.859175 -0.052689
v 0.069390 0.878299 -0.053819
v 0.103158 0.877188 -0.070071
v 0.109672 0.891092 -0.066812
v 0.102244 0.888752 -0.080724
v 0.110040 0.901830 -0.077938
v 0.111582 0.864715 -0.064290
v 0.113927 0.880835 -0.067993
v 0.103669 0.864442 -0.067986
v 0.105295 0.862734 -0.076067
v 0.107314 0.878752 -0.080376
v 0.118619 0.882739 -0.078623
v 0.113149 0.861012 -0.071977
v 0.094489 0.835999 -0.058303
v -0.124865 0.731993 -0.046558
v -0.119781 0.730157 -0.053901
v -0.122442 0.717183 -0.050709
v -0.119218 0.705486 -0.039902
v -0.116998 0.704340 -0.032254
v -0.112787 0.708357 -0.025011
v -0.106136 0.714442 -0.027260
v -0.103858 0.719773 -0.032839
v -0.109670 0.729063 -0.044836
v -0.089421 0.670436 -0.058863
v -0.120008 0.711340 -0.057588
v -0.114385 0.727580 -0.060421
v -0.081470 0.693402 -0.062870
v -0.082160 0.639600 -0.037025
v -0.114873 0.689536 -0.042146
v -0.063939 0.618957 -0.010149
v -0.101989 0.674939 -0.023141
v -0.045432 0.620600 0.006023
v -0.088903 0.676101 -0.011706
v -0.037481 0.643566 0.002017
v -0.083280 0.692340 -0.014539
v -0.044743 0.674402 -0.019821
v -0.088415 0.714145 -0.029981
v -0.062964 0.695045 -0.046698
v -0.101299 0.728741 -0.048986
v -0.043622 0.621662 -0.042307
v -0.038487 0.599857 -0.026866
v -0.025603 0.585261 -0.007861
v -0.012517 0.586422 0.003575
v -0.006895 0.602662 0.000742
v -0.012030 0.624466 -0.014700
v -0.024914 0.639063 -0.033705
v -0.009438 0.593589 -0.017618
v -0.038000 0.637901 -0.045140
v -0.141763 0.758572 -0.048746
v -0.141382 0.744353 -0.044439
v -0.117486 0.741528 -0.047710
v -0.124554 0.753047 -0.051719
v -0.125658 0.744488 -0.070979
v -0.130025 0.758672 -0.068559
v -0.147891 0.742636 -0.066841
v -0.149219 0.765527 -0.066786
v -0.114864 0.726654 -0.046636
v -0.131925 0.733463 -0.042198
v -0.118361 0.724295 -0.045085
v -0.115042 0.724323 -0.050688
v -0.119046 0.733573 -0.063935
v -0.117925 0.722986 -0.048709
v -0.134470 0.726269 -0.059015
v -0.122885 0.760860 -0.050362
v -0.136048 0.769287 -0.048913
v -0.127922 0.769357 -0.062629
v -0.140030 0.778755 -0.060477
v -0.114089 0.760445 -0.036855
v -0.126178 0.769718 -0.043707
v -0.112725 0.755834 -0.044151
v -0.107210 0.760504 -0.048467
v -0.118945 0.769779 -0.055916
v -0.122334 0.779342 -0.049295
v -0.107028 0.764185 -0.040232
v -0.093328 0.733894 -0.032774
v -0.111830 0.448989 0.069563
v -0.102960 0.447483 0.077941
v -0.092890 0.442275 0.063488
v -0.090214 0.426268 0.048772
v -0.095562 0.418295 0.043720
v -0.105584 0.410818 0.044489
v -0.109078 0.407910 0.056162
v -0.109328 0.411582 0.066368
v -0.108784 0.430063 0.078120
v -0.034812 0.390362 0.060701
v -0.080641 0.441480 0.066351
v -0.094030 0.444754 0.085363
v -0.053747 0.394992 0.087589
v -0.022021 0.353888 0.026096
v -0.071597 0.415690 0.041881
v -0.022868 0.306937 0.004046
v -0.072196 0.382490 0.026289
v -0.036857 0.277010 0.007467
v -0.082087 0.361329 0.028708
v -0.055792 0.281640 0.034355
v -0.095476 0.364602 0.047721
v -0.068583 0.318114 0.068960
v -0.104521 0.390393 0.072190
v -0.067735 0.365066 0.091010
v -0.103921 0.423593 0.087782
v 0.004873 0.307400 0.047335
v 0.013917 0.281609 0.022866
v 0.013318 0.248409 0.007274
v 0.003426 0.227248 0.009693
v -0.009963 0.230522 0.028706
v -0.019007 0.256313 0.053175
v -0.018408 0.289513 0.068767
v 0.015165 0.241192 0.034082
v -0.008517 0.310674 0.066348
v -0.138636 0.480974 0.077956
v -0.127969 0.471165 0.064118
v -0.119715 0.446163 0.083581
v -0.128607 0.461766 0.089804
v -0.103056 0.471709 0.097420
v -0.120038 0.481380 0.102816
v -0.107155 0.492183 0.075059
v -0.130567 0.504141 0.091328
v -0.105296 0.435758 0.073549
v -0.117905 0.454432 0.061653
v -0.104637 0.437432 0.067763
v -0.099378 0.437547 0.074793
v -0.097501 0.454878 0.088929
v -0.100068 0.438745 0.069939
v -0.096044 0.464954 0.067254
v -0.137557 0.462669 0.096008
v -0.148763 0.479842 0.090775
v -0.135888 0.480123 0.107986
v -0.148589 0.496140 0.103784
v -0.148124 0.444057 0.092196
v -0.152757 0.465930 0.094923
v -0.136869 0.445264 0.095463
v -0.137224 0.444296 0.106766
v -0.141295 0.466180 0.110242
v -0.157191 0.469893 0.109642
v -0.148201 0.440367 0.103295
v -0.122610 0.406658 0.085432
v 0.130129 0.596424 0.047235
v 0.123748 0.593801 0.055190
v 0.128420 0.579143 0.051898
v 0.126986 0.565362 0.039245
v 0.125326 0.563820 0.030234
v 0.120827 0.568017 0.021444
v 0.112368 0.574348 0.023311
v 0.108661 0.580252 0.029454
v 0.113182 0.591524 0.043757
v 0.094444 0.522041 0.058378
v 0.125523 0.572176 0.059619
v 0.117167 0.590292 0.062172
v 0.082625 0.547661 0.061988
v 0.091411 0.485836 0.032798
v 0.123379 0.546575 0.041531
v 0.075304 0.460255 0.000233
v 0.111990 0.528486 0.018504
v 0.055558 0.460282 -0.020241
v 0.098028 0.528506 0.004027
v 0.043740 0.485902 -0.016631
v 0.089671 0.546622 0.006580
v 0.046772 0.522107 0.008949
v 0.091815 0.572222 0.024667
v 0.062879 0.547688 0.041514
v 0.103204 0.590311 0.047694
v 0.048513 0.461321 0.035168
v 0.046369 0.435721 0.017080
v 0.034980 0.417632 -0.005947
v 0.021017 0.417651 -0.020425
v 0.012660 0.435767 -0.017872
v 0.014804 0.461368 0.000216
v 0.026194 0.479457 0.023243
v 0.014637 0.425586 0.003584
v 0.040156 0.479438 0.037720
v 0.146610 0.628701 0.051214
v 0.148032 0.612306 0.046345
v 0.120600 0.606651 0.047738
v 0.127143 0.620613 0.052957
v 0.127328 0.610878 0.075300
v 0.131154 0.627635 0.072829
v 0.153410 0.610985 0.072785
v 0.152642 0.637453 0.072654
v 0.119195 0.589275 0.046370
v 0.138511 0.598825 0.042915
v 0.123596 0.586914 0.044957
v 0.119226 0.586612 0.051069
v 0.121554 0.597656 0.066629
v 0.122862 0.585364 0.049094
v 0.140457 0.590806 0.062579
v 0.124583 0.629434 0.051160
v 0.138970 0.640453 0.050739
v 0.128269 0.639715 0.065703
v 0.141420 0.651745 0.064358
v 0.115904 0.628071 0.034744
v 0.128139 0.639955 0.043756
v 0.114069 0.622629 0.043041
v 0.106846 0.627447 0.047412
v 0.118614 0.639298 0.057077
v 0.122206 0.650640 0.049715
v 0.107096 0.631662 0.037888
v 0.095184 0.595437 0.028200
v 0.006563 1.161644 0.007353
v 0.003179 0.984987 0.000773
v 0.001472 0.985289 0.007243
v -0.004899 0.986412 0.005509
v -0.003192 0.986111 -0.000960
v 0.018768 1.097176 -0.004914
v 0.026701 1.093130 -0.002562
v 0.017033 1.100129 0.003636
v 0.024966 1.096083 0.005988
v 0.052975 1.149445 -0.011855
v 0.045723 1.155938 -0.014349
v 0.074133 1.186216 -0.020199
v 0.044670 1.161337 -0.005941
v 0.051922 1.154845 -0.003447
v 0.001902 0.975905 -0.000115
v 0.000015 0.977665 0.004524
v -0.003519 0.980672 0.001946
v -0.001632 0.978912 -0.002694
v 0.062738 1.043667 -0.006813
v 0.066884 1.036718 -0.002413
v 0.061354 1.048524 0.000889
v 0.065500 1.041575 0.005289
v 0.119685 1.070196 -0.008679
v 0.117403 1.078871 -0.013206
v 0.157904 1.089690 -0.014033
v 0.117882 1.085455 -0.005630
v 0.120165 1.076780 -0.001104
v -0.003243 0.970480 0.000901
v 0.000867 0.971026 -0.000391
v 0.000448 0.972209 0.003633
v -0.002183 0.971891 0.004869
v -0.031022 1.051460 -0.018141
v -0.032563 1.046155 -0.025511
v -0.023229 1.054991 -0.021552
v -0.024770 1.049686 -0.028922
v -0.060899 1.096498 -0.050223
v -0.060131 1.104082 -0.043676
v -0.083379 1.128572 -0.068534
v -0.053112 1.109892 -0.047911
v -0.053880 1.102308 -0.054457
v -0.004682 0.989599 0.001797
v -0.000231 0.991219 -0.002939
v 0.004219 0.992839 0.001797
v -0.000231 0.991219 0.006533
v -0.039152 1.098274 0.009058
v -0.044085 1.093704 0.002764
v -0.034219 1.102843 0.002764
v -0.039152 1.098274 -0.003530
v -0.082079 1.143748 0.002764
v -0.078277 1.150597 0.009058
v -0.111401 1.175523 0.002764
v -0.074476 1.157445 0.002764
v -0.078277 1.150597 -0.003530
v -0.001746 0.973184 0.005216
v -0.004778 0.975098 0.001301
v -0.000424 0.976253 -0.001507
v 0.002609 0.974339 0.002408
v 0.005022 1.051860 0.051582
v -0.002341 1.047596 0.055110
v 0.000000 1.057394 0.046199
v -0.007363 1.053131 0.049727
v -0.003805 1.094436 0.096966
v 0.003585 1.100876 0.094754
v -0.005541 1.123790 0.128663
v -0.001412 1.108587 0.090688
v -0.008801 1.102147 0.092899
v -0.001244 0.974154 -0.001414
v 0.003112 0.974393 0.001611
v 0.000093 0.975283 0.005887
v -0.004263 0.975044 0.002861
v -0.003824 1.062279 -0.016337
v 0.001099 1.058233 -0.022987
v 0.003617 1.065232 -0.011783
v 0.008540 1.061186 -0.018433
v 0.001353 1.114548 -0.050855
v -0.003471 1.121040 -0.044894
v 0.000749 1.151319 -0.073591
v 0.004070 1.126440 -0.041028
v 0.008893 1.119947 -0.046990
vt 0.004300 0.079400
vt 0.448900 0.079400
vt 0.448900 0.100200
vt 0.004300 0.100200
vt 0.004300 0.100200
vt 0.448900 0.100200
vt 0.004300 0.125000
vt 0.448900 0.125000
vt 0.004300 0.145200
vt 0.448900 0.145200
vt 0.004300 0.125000
vt 0.448900 0.125000
vt 0.900900 0.079400
vt 0.945400 0.096500
vt 0.945400 0.106900
vt 0.900900 0.100200
vt 0.900900 0.100200
vt 0.945400 0.106900
vt 0.900900 0.125000
vt 0.945400 0.119300
vt 0.900900 0.145200
vt 0.945400 0.129400
vt 0.900900 0.125000
vt 0.945400 0.119300
vt 0.789500 0.512400
vt 0.790100 0.570900
vt 0.864700 0.570000
vt 0.871600 0.504400
vt 0.923400 0.607100
vt 0.956300 0.535600
vt 0.832200 0.652100
vt 0.870500 0.361800
vt 0.789900 0.378600
vt 0.957300 0.366300
vt 0.808700 0.304100
vt 0.856100 0.301700
vt 0.837300 0.250200
vt 0.899300 0.286900
vt 0.789500 0.512400
vt 0.871600 0.504400
vt 0.864700 0.570000
vt 0.790100 0.570900
vt 0.956300 0.535600
vt 0.923400 0.607100
vt 0.832200 0.652100
vt 0.870500 0.361800
vt 0.789900 0.378600
vt 0.957300 0.366300
vt 0.808700 0.304100
vt 0.837300 0.250200
vt 0.856100 0.301700
vt 0.899300 0.286900
vt 0.789500 0.512400
vt 0.790100 0.570900
vt 0.864700 0.570000
vt 0.871600 0.504400
vt 0.923400 0.607100
vt 0.956300 0.535600
vt 0.832200 0.652100
vt 0.870500 0.361800
vt 0.789900 0.378600
vt 0.957300 0.366300
vt 0.808700 0.304100
vt 0.856100 0.301700
vt 0.837300 0.250200
vt 0.899300 0.286900
vt 0.789500 0.512400
vt 0.871600 0.504400
vt 0.864700 0.570000
vt 0.790100 0.570900
vt 0.956300 0.535600
vt 0.923400 0.607100
vt 0.832200 0.652100
vt 0.870500 0.361800
vt 0.789900 0.378600
vt 0.957300 0.366300
vt 0.808700 0.304100
vt 0.837300 0.250200
vt 0.856100 0.301700
vt 0.899300 0.286900
vt 0.789500 0.512400
vt 0.790100 0.570900
vt 0.864700 0.570000
vt 0.871600 0.504400
vt 0.923400 0.607100
vt 0.956300 0.535600
vt 0.832200 0.652100
vt 0.870500 0.361800
vt 0.789900 0.378600
vt 0.957300 0.366300
vt 0.808700 0.304100
vt 0.856100 0.301700
vt 0.837300 0.250200
vt 0.899300 0.286900
vt 0.789500 0.512400
vt 0.871600 0.504400
vt 0.864700 0.570000
vt 0.790100 0.570900
vt 0.956300 0.535600
vt 0.923400 0.607100
vt 0.832200 0.652100
vt 0.870500 0.361800
vt 0.789900 0.378600
vt 0.957300 0.366300
vt 0.808700 0.304100
vt 0.837300 0.250200
vt 0.856100 0.301700
vt 0.899300 0.286900
vt 0.789500 0.512400
vt 0.790100 0.570900
vt 0.864700 0.570000
vt 0.871600 0.504400
vt 0.923400 0.607100
vt 0.956300 0.535600
vt 0.832200 0.652100
vt 0.870500 0.361800
vt 0.789900 0.378600
vt 0.957300 0.366300
vt 0.808700 0.304100
vt 0.856100 0.301700
vt 0.837300 0.250200
vt 0.899300 0.286900
vt 0.789500 0.512400
vt 0.871600 0.504400
vt 0.864700 0.570000
vt 0.790100 0.570900
vt 0.956300 0.535600
vt 0.923400 0.607100
vt 0.832200 0.652100
vt 0.870500 0.361800
vt 0.789900 0.378600
vt 0.957300 0.366300
vt 0.808700 0.304100
vt 0.837300 0.250200
vt 0.856100 0.301700
vt 0.899300 0.286900
vt 0.789500 0.512400
vt 0.790100 0.570900
vt 0.864700 0.570000
vt 0.871600 0.504400
vt 0.923400 0.607100
vt 0.956300 0.535600
vt 0.832200 0.652100
vt 0.870500 0.361800
vt 0.789900 0.378600
vt 0.957300 0.366300
vt 0.808700 0.304100
vt 0.856100 0.301700
vt 0.837300 0.250200
vt 0.899300 0.286900
vt 0.789500 0.512400
vt 0.871600 0.504400
vt 0.864700 0.570000
vt 0.790100 0.570900
vt 0.956300 0.535600
vt 0.923400 0.607100
vt 0.832200 0.652100
vt 0.870500 0.361800
vt 0.789900 0.378600
vt 0.957300 0.366300
vt 0.808700 0.304100
vt 0.837300 0.250200
vt 0.856100 0.301700
vt 0.899300 0.286900
vt 0.789500 0.512400
vt 0.790100 0.570900
vt 0.864700 0.570000
vt 0.871600 0.504400
vt 0.923400 0.607100
vt 0.956300 0.535600
vt 0.832200 0.652100
vt 0.870500 0.361800
vt 0.789900 0.378600
vt 0.957300 0.366300
vt 0.808700 0.304100
vt 0.856100 0.301700
vt 0.837300 0.250200
vt 0.899300 0.286900
vt 0.789500 0.512400
vt 0.871600 0.504400
vt 0.864700 0.570000
vt 0.790100 0.570900
vt 0.956300 0.535600
vt 0.923400 0.607100
vt 0.832200 0.652100
vt 0.870500 0.361800
vt 0.789900 0.378600
vt 0.957300 0.366300
vt 0.808700 0.304100
vt 0.837300 0.250200
vt 0.856100 0.301700
vt 0.899300 0.286900
vt 0.826600 0.360500
vt 0.811400 0.403600
vt 0.771000 0.369100
vt 0.768600 0.321100
vt 0.790300 0.293800
vt 0.832500 0.274000
vt 0.868300 0.370500
vt 0.870700 0.276800
vt 0.914200 0.302300
vt 0.934800 0.333900
vt 0.927400 0.385400
vt 0.880300 0.418400
vt 0.847200 0.631400
vt 0.982500 0.622300
vt 0.977800 0.678400
vt 0.848300 0.762700
vt 0.846400 0.508500
vt 0.982300 0.507600
vt 0.845800 0.385500
vt 0.981100 0.257600
vt 0.747100 0.218800
vt 0.854400 0.300800
vt 0.728000 0.324300
vt 0.852100 0.429800
vt 0.718500 0.433700
vt 0.849400 0.550700
vt 0.721900 0.549900
vt 0.843300 0.672300
vt 0.739100 0.690700
vt 0.928900 0.804600
vt 0.798800 0.801300
vt 0.735500 0.665300
vt 0.724600 0.512700
vt 0.719600 0.397800
vt 0.728500 0.256700
vt 0.893600 0.243400
vt 0.991600 0.440000
vt 0.983200 0.304800
vt 0.983600 0.553300
vt 0.980900 0.666300
vt 0.842800 0.290800
vt 0.944400 0.310700
vt 0.900600 0.369500
vt 0.926700 0.233000
vt 0.859600 0.190500
vt 0.782500 0.208900
vt 0.742000 0.277000
vt 0.762500 0.353700
vt 0.831400 0.393800
vt 0.960100 0.450500
vt 0.737400 0.397500
vt 0.796800 0.443500
vt 0.960600 0.419300
vt 0.892000 0.462900
vt 0.748600 0.255000
vt 0.718500 0.324400
vt 0.812500 0.215300
vt 0.963000 0.264800
vt 0.898200 0.215600
vt 0.988400 0.342600
vt 0.116600 0.822200
vt 0.085700 0.822500
vt 0.088700 0.781200
vt 0.121100 0.786300
vt 0.103200 0.863200
vt 0.067700 0.875500
vt 0.076400 0.829200
vt 0.110400 0.819200
vt 0.064700 0.788600
vt 0.109000 0.772800
vt 0.106800 0.861800
vt 0.062400 0.852600
vt 0.056700 0.777400
vt 0.065100 0.803500
vt 0.047400 0.782200
vt 0.030500 0.865300
vt 0.050900 0.845000
vt 0.034100 0.874800
vt 0.026800 0.860100
vt 0.035500 0.818200
vt 0.039900 0.821100
vt 0.041000 0.782900
vt 0.148600 0.800200
vt 0.142800 0.837200
vt 0.143200 0.863000
vt 0.140100 0.821300
vt 0.147200 0.788900
vt 0.144700 0.872500
vt 0.183200 0.807000
vt 0.162000 0.824500
vt 0.176100 0.785800
vt 0.185500 0.852100
vt 0.183900 0.874500
vt 0.160100 0.831100
vt 0.179100 0.798900
vt 0.202300 0.827000
vt 0.178100 0.848200
vt 0.204800 0.822800
vt 0.227400 0.773200
vt 0.243700 0.873100
vt 0.826600 0.360500
vt 0.811400 0.403600
vt 0.771000 0.369100
vt 0.768600 0.321100
vt 0.790300 0.293800
vt 0.832500 0.274000
vt 0.868300 0.370500
vt 0.870700 0.276800
vt 0.914200 0.302300
vt 0.934800 0.333900
vt 0.927400 0.385400
vt 0.880300 0.418400
vt 0.847200 0.631400
vt 0.982500 0.622300
vt 0.977800 0.678400
vt 0.848300 0.762700
vt 0.846400 0.508500
vt 0.982300 0.507600
vt 0.845800 0.385500
vt 0.981100 0.257600
vt 0.747100 0.218800
vt 0.854400 0.300800
vt 0.728000 0.324300
vt 0.852100 0.429800
vt 0.718500 0.433700
vt 0.849400 0.550700
vt 0.721900 0.549900
vt 0.843300 0.672300
vt 0.739100 0.690700
vt 0.928900 0.804600
vt 0.798800 0.801300
vt 0.735500 0.665300
vt 0.724600 0.512700
vt 0.719600 0.397800
vt 0.728500 0.256700
vt 0.893600 0.243400
vt 0.991600 0.440000
vt 0.983200 0.304800
vt 0.983600 0.553300
vt 0.980900 0.666300
vt 0.842800 0.290800
vt 0.944400 0.310700
vt 0.900600 0.369500
vt 0.926700 0.233000
vt 0.859600 0.190500
vt 0.782500 0.208900
vt 0.742000 0.277000
vt 0.762500 0.353700
vt 0.831400 0.393800
vt 0.960100 0.450500
vt 0.737400 0.397500
vt 0.796800 0.443500
vt 0.960600 0.419300
vt 0.892000 0.462900
vt 0.748600 0.255000
vt 0.718500 0.324400
vt 0.812500 0.215300
vt 0.963000 0.264800
vt 0.898200 0.215600
vt 0.988400 0.342600
vt 0.116600 0.822200
vt 0.085700 0.822500
vt 0.088700 0.781200
vt 0.121100 0.786300
vt 0.103200 0.863200
vt 0.067700 0.875500
vt 0.076400 0.829200
vt 0.110400 0.819200
vt 0.064700 0.788600
vt 0.109000 0.772800
vt 0.106800 0.861800
vt 0.062400 0.852600
vt 0.056700 0.777400
vt 0.065100 0.803500
vt 0.047400 0.782200
vt 0.030500 0.865300
vt 0.050900 0.845000
vt 0.034100 0.874800
vt 0.026800 0.860100
vt 0.035500 0.818200
vt 0.039900 0.821100
vt 0.041000 0.782900
vt 0.148600 0.800200
vt 0.142800 0.837200
vt 0.143200 0.863000
vt 0.140100 0.821300
vt 0.147200 0.788900
vt 0.144700 0.872500
vt 0.183200 0.807000
vt 0.162000 0.824500
vt 0.176100 0.785800
vt 0.185500 0.852100
vt 0.183900 0.874500
vt 0.160100 0.831100
vt 0.179100 0.798900
vt 0.202300 0.827000
vt 0.178100 0.848200
vt 0.204800 0.822800
vt 0.227400 0.773200
vt 0.243700 0.873100
vt 0.826600 0.360500
vt 0.811400 0.403600
vt 0.771000 0.369100
vt 0.768600 0.321100
vt 0.790300 0.293800
vt 0.832500 0.274000
vt 0.868300 0.370500
vt 0.870700 0.276800
vt 0.914200 0.302300
vt 0.934800 0.333900
vt 0.927400 0.385400
vt 0.880300 0.418400
vt 0.847200 0.631400
vt 0.982500 0.622300
vt 0.977800 0.678400
vt 0.848300 0.762700
vt 0.846400 0.508500
vt 0.982300 0.507600
vt 0.845800 0.385500
vt 0.981100 0.257600
vt 0.747100 0.218800
vt 0.854400 0.300800
vt 0.728000 0.324300
vt 0.852100 0.429800
vt 0.718500 0.433700
vt 0.849400 0.550700
vt 0.721900 0.549900
vt 0.843300 0.672300
vt 0.739100 0.690700
vt 0.928900 0.804600
vt 0.798800 0.801300
vt 0.735500 0.665300
vt 0.724600 0.512700
vt 0.719600 0.397800
vt 0.728500 0.256700
vt 0.893600 0.243400
vt 0.991600 0.440000
vt 0.983200 0.304800
vt 0.983600 0.553300
vt 0.980900 0.666300
vt 0.842800 0.290800
vt 0.944400 0.310700
vt 0.900600 0.369500
vt 0.926700 0.233000
vt 0.859600 0.190500
vt 0.782500 0.208900
vt 0.742000 0.277000
vt 0.762500 0.353700
vt 0.831400 0.393800
vt 0.960100 0.450500
vt 0.737400 0.397500
vt 0.796800 0.443500
vt 0.960600 0.419300
vt 0.892000 0.462900
vt 0.748600 0.255000
vt 0.718500 0.324400
vt 0.812500 0.215300
vt 0.963000 0.264800
vt 0.898200 0.215600
vt 0.988400 0.342600
vt 0.116600 0.822200
vt 0.085700 0.822500
vt 0.088700 0.781200
vt 0.121100 0.786300
vt 0.103200 0.863200
vt 0.067700 0.875500
vt 0.076400 0.829200
vt 0.110400 0.819200
vt 0.064700 0.788600
vt 0.109000 0.772800
vt 0.106800 0.861800
vt 0.062400 0.852600
vt 0.056700 0.777400
vt 0.065100 0.803500
vt 0.047400 0.782200
vt 0.030500 0.865300
vt 0.050900 0.845000
vt 0.034100 0.874800
vt 0.026800 0.860100
vt 0.035500 0.818200
vt 0.039900 0.821100
vt 0.041000 0.782900
vt 0.148600 0.800200
vt 0.142800 0.837200
vt 0.143200 0.863000
vt 0.140100 0.821300
vt 0.147200 0.788900
vt 0.144700 0.872500
vt 0.183200 0.807000
vt 0.162000 0.824500
vt 0.176100 0.785800
vt 0.185500 0.852100
vt 0.183900 0.874500
vt 0.160100 0.831100
vt 0.179100 0.798900
vt 0.202300 0.827000
vt 0.178100 0.848200
vt 0.204800 0.822800
vt 0.227400 0.773200
vt 0.243700 0.873100
vt 0.826600 0.360500
vt 0.811400 0.403600
vt 0.771000 0.369100
vt 0.768600 0.321100
vt 0.790300 0.293800
vt 0.832500 0.274000
vt 0.868300 0.370500
vt 0.870700 0.276800
vt 0.914200 0.302300
vt 0.934800 0.333900
vt 0.927400 0.385400
vt 0.880300 0.418400
vt 0.847200 0.631400
vt 0.982500 0.622300
vt 0.977800 0.678400
vt 0.848300 0.762700
vt 0.846400 0.508500
vt 0.982300 0.507600
vt 0.845800 0.385500
vt 0.981100 0.257600
vt 0.747100 0.218800
vt 0.854400 0.300800
vt 0.728000 0.324300
vt 0.852100 0.429800
vt 0.718500 0.433700
vt 0.849400 0.550700
vt 0.721900 0.549900
vt 0.843300 0.672300
vt 0.739100 0.690700
vt 0.928900 0.804600
vt 0.798800 0.801300
vt 0.735500 0.665300
vt 0.724600 0.512700
vt 0.719600 0.397800
vt 0.728500 0.256700
vt 0.893600 0.243400
vt 0.991600 0.440000
vt 0.983200 0.304800
vt 0.983600 0.553300
vt 0.980900 0.666300
vt 0.842800 0.290800
vt 0.944400 0.310700
vt 0.900600 0.369500
vt 0.926700 0.233000
vt 0.859600 0.190500
vt 0.782500 0.208900
vt 0.742000 0.277000
vt 0.762500 0.353700
vt 0.831400 0.393800
vt 0.960100 0.450500
vt 0.737400 0.397500
vt 0.796800 0.443500
vt 0.960600 0.419300
vt 0.892000 0.462900
vt 0.748600 0.255000
vt 0.718500 0.324400
vt 0.812500 0.215300
vt 0.963000 0.264800
vt 0.898200 0.215600
vt 0.988400 0.342600
vt 0.116600 0.822200
vt 0.085700 0.822500
vt 0.088700 0.781200
vt 0.121100 0.786300
vt 0.103200 0.863200
vt 0.067700 0.875500
vt 0.076400 0.829200
vt 0.110400 0.819200
vt 0.064700 0.788600
vt 0.109000 0.772800
vt 0.106800 0.861800
vt 0.062400 0.852600
vt 0.056700 0.777400
vt 0.065100 0.803500
vt 0.047400 0.782200
vt 0.030500 0.865300
vt 0.050900 0.845000
vt 0.034100 0.874800
vt 0.026800 0.860100
vt 0.035500 0.818200
vt 0.039900 0.821100
vt 0.041000 0.782900
vt 0.148600 0.800200
vt 0.142800 0.837200
vt 0.143200 0.863000
vt 0.140100 0.821300
vt 0.147200 0.788900
vt 0.144700 0.872500
vt 0.183200 0.807000
vt 0.162000 0.824500
vt 0.176100 0.785800
vt 0.185500 0.852100
vt 0.183900 0.874500
vt 0.160100 0.831100
vt 0.179100 0.798900
vt 0.202300 0.827000
vt 0.178100 0.848200
vt 0.204800 0.822800
vt 0.227400 0.773200
vt 0.243700 0.873100
vt 0.549600 0.197700
vt 0.711400 0.208300
vt 0.549600 0.206700
vt 0.549600 0.215600
vt 0.549600 0.224200
vt 0.549600 0.206700
vt 0.549600 0.197700
vt 0.549600 0.215600
vt 0.549600 0.224200
vt 0.560800 0.203200
vt 0.562400 0.210800
vt 0.558600 0.217600
vt 0.552100 0.209200
vt 0.550200 0.210300
vt 0.623600 0.210300
vt 0.623600 0.223100
vt 0.550200 0.223100
vt 0.550200 0.196900
vt 0.623600 0.196900
vt 0.550200 0.210300
vt 0.623600 0.210300
vt 0.623600 0.223100
vt 0.550200 0.223100
vt 0.550200 0.196900
vt 0.623600 0.196900
vt 0.688600 0.223100
vt 0.688600 0.210300
vt 0.711600 0.210300
vt 0.688600 0.196900
vt 0.688600 0.223100
vt 0.688600 0.210300
vt 0.688600 0.196900
vt 0.560800 0.203200
vt 0.562400 0.210800
vt 0.558600 0.217600
vt 0.552100 0.209200
vt 0.550200 0.210300
vt 0.623600 0.210300
vt 0.623600 0.223100
vt 0.550200 0.223100
vt 0.550200 0.196900
vt 0.623600 0.196900
vt 0.550200 0.210300
vt 0.623600 0.210300
vt 0.623600 0.223100
vt 0.550200 0.223100
vt 0.550200 0.196900
vt 0.623600 0.196900
vt 0.688600 0.223100
vt 0.688600 0.210300
vt 0.711600 0.210300
vt 0.688600 0.196900
vt 0.688600 0.223100
vt 0.688600 0.210300
vt 0.688600 0.196900
vt 0.560800 0.203200
vt 0.562400 0.210800
vt 0.558600 0.217600
vt 0.552100 0.209200
vt 0.550200 0.210300
vt 0.623600 0.210300
vt 0.623600 0.223100
vt 0.550200 0.223100
vt 0.550200 0.196900
vt 0.623600 0.196900
vt 0.550200 0.210300
vt 0.623600 0.210300
vt 0.623600 0.223100
vt 0.550200 0.223100
vt 0.550200 0.196900
vt 0.623600 0.196900
vt 0.688600 0.223100
vt 0.688600 0.210300
vt 0.711600 0.210300
vt 0.688600 0.196900
vt 0.688600 0.223100
vt 0.688600 0.210300
vt 0.688600 0.196900
vt 0.560800 0.203200
vt 0.562400 0.210800
vt 0.558600 0.217600
vt 0.552100 0.209200
vt 0.550200 0.210300
vt 0.623600 0.210300
vt 0.623600 0.223100
vt 0.550200 0.223100
vt 0.550200 0.196900
vt 0.623600 0.196900
vt 0.550200 0.210300
vt 0.623600 0.210300
vt 0.623600 0.223100
vt 0.550200 0.223100
vt 0.550200 0.196900
vt 0.623600 0.196900
vt 0.688600 0.223100
vt 0.688600 0.210300
vt 0.711600 0.210300
vt 0.688600 0.196900
vt 0.688600 0.223100
vt 0.688600 0.210300
vt 0.688600 0.196900
vt 0.560800 0.203200
vt 0.562400 0.210800
vt 0.558600 0.217600
vt 0.552100 0.209200
vt 0.550200 0.210300
vt 0.623600 0.210300
vt 0.623600 0.223100
vt 0.550200 0.223100
vt 0.550200 0.196900
vt 0.623600 0.196900
vt 0.550200 0.210300
vt 0.623600 0.210300
vt 0.623600 0.223100
vt 0.550200 0.223100
vt 0.550200 0.196900
vt 0.623600 0.196900
vt 0.688600 0.223100
vt 0.688600 0.210300
vt 0.711600 0.210300
vt 0.688600 0.196900
vt 0.688600 0.223100
vt 0.688600 0.210300
vt 0.688600 0.196900
vt 0.560800 0.203200
vt 0.562400 0.210800
vt 0.558600 0.217600
vt 0.552100 0.209200
vt 0.550200 0.210300
vt 0.623600 0.210300
vt 0.623600 0.223100
vt 0.550200 0.223100
vt 0.550200 0.196900
vt 0.623600 0.196900
vt 0.550200 0.210300
vt 0.623600 0.210300
vt 0.623600 0.223100
vt 0.550200 0.223100
vt 0.550200 0.196900
vt 0.623600 0.196900
vt 0.688600 0.223100
vt 0.688600 0.210300
vt 0.711600 0.210300
vt 0.688600 0.196900
vt 0.688600 0.223100
vt 0.688600 0.210300
vt 0.688600 0.196900
vn 0.4874 -0.0273 -0.8727
vn 0.4220 0.0027 -0.9066
vn 0.9952 0.0105 -0.0970
vn 0.9986 -0.0528 0.0004
vn -0.5120 0.0241 -0.8586
vn -0.5718 0.0060 -0.8204
vn -0.9988 0.0486 -0.0003
vn -0.9951 0.0036 0.0984
vn -0.5117 0.0234 0.8588
vn -0.3931 0.0019 0.9195
vn 0.4878 -0.0267 0.8726
vn 0.5948 0.0119 0.8038
vn 0.5996 0.0193 -0.8001
vn 0.6220 0.0142 -0.7829
vn 0.9904 -0.0358 0.1337
vn 0.9902 0.0118 0.1392
vn -0.3965 0.0423 -0.9171
vn -0.3630 0.0864 -0.9278
vn -0.9894 0.0537 -0.1349
vn -0.9848 0.1084 -0.1355
vn -0.6270 0.0297 0.7785
vn -0.6002 0.0612 0.7975
vn 0.3627 0.0110 0.9318
vn 0.3907 -0.0109 0.9205
vn 0.4752 -0.5147 0.7136
vn 0.3571 -0.6815 0.6387
vn 0.5862 -0.7683 0.2570
vn 0.7391 -0.5888 0.3272
vn 0.7001 -0.6920 -0.1762
vn 0.8333 -0.5279 -0.1642
vn 0.2538 -0.9600 0.1186
vn 0.3833 -0.9047 0.1862
vn 0.2815 -0.7952 0.5371
vn 0.6169 -0.7678 -0.1730
vn -0.4036 -0.8738 0.2713
vn -0.3525 -0.9233 -0.1522
vn -0.7483 -0.5802 -0.3216
vn -0.0721 -0.8794 -0.4705
vn -0.4752 0.5147 -0.7136
vn -0.7391 0.5888 -0.3272
vn -0.5862 0.7683 -0.2570
vn -0.3571 0.6815 -0.6387
vn -0.8333 0.5279 0.1642
vn -0.7001 0.6920 0.1762
vn -0.2538 0.9600 -0.1186
vn -0.3833 0.9047 -0.1862
vn -0.2815 0.7952 -0.5371
vn -0.6169 0.7678 0.1730
vn 0.4036 0.8738 -0.2713
vn 0.7483 0.5802 0.3216
vn 0.3525 0.9233 0.1522
vn 0.0721 0.8794 0.4705
vn -0.8556 -0.5147 0.0547
vn -0.7317 -0.6815 -0.0101
vn -0.5157 -0.7683 0.3792
vn -0.6529 -0.5888 0.4764
vn -0.1974 -0.6920 0.6944
vn -0.2744 -0.5279 0.8037
vn -0.2296 -0.9600 0.1605
vn -0.3529 -0.9047 0.2388
vn -0.6059 -0.7952 -0.0247
vn -0.1586 -0.7678 0.6208
vn -0.0332 -0.8738 -0.4852
vn 0.3081 -0.9233 -0.2292
vn 0.6526 -0.5802 -0.4873
vn 0.4435 -0.8794 0.1728
vn 0.8556 0.5147 -0.0547
vn 0.6529 0.5888 -0.4764
vn 0.5157 0.7683 -0.3792
vn 0.7317 0.6815 0.0101
vn 0.2744 0.5279 -0.8037
vn 0.1974 0.6920 -0.6944
vn 0.2296 0.9600 -0.1605
vn 0.3529 0.9047 -0.2388
vn 0.6059 0.7952 0.0248
vn 0.1586 0.7678 -0.6208
vn 0.0332 0.8738 0.4852
vn -0.6526 0.5802 0.4873
vn -0.3081 0.9233 0.2292
vn -0.4435 0.8794 -0.1728
vn -0.4752 -0.5147 -0.7136
vn -0.3571 -0.6815 -0.6387
vn -0.5862 -0.7683 -0.2570
vn -0.7391 -0.5888 -0.3272
vn -0.7001 -0.6920 0.1762
vn -0.8333 -0.5279 0.1642
vn -0.2538 -0.9600 -0.1186
vn -0.3833 -0.9047 -0.1863
vn -0.2815 -0.7952 -0.5371
vn -0.6169 -0.7678 0.1730
vn 0.4036 -0.8738 -0.2713
vn 0.3525 -0.9233 0.1522
vn 0.7483 -0.5802 0.3216
vn 0.0721 -0.8794 0.4705
vn 0.4752 0.5147 0.7136
vn 0.7391 0.5888 0.3272
vn 0.5862 0.7683 0.2570
vn 0.3571 0.6815 0.6387
vn 0.8333 0.5279 -0.1643
vn 0.7001 0.6920 -0.1762
vn 0.2538 0.9600 0.1186
vn 0.3833 0.9047 0.1863
vn 0.2815 0.7952 0.5371
vn 0.6169 0.7678 -0.1730
vn -0.4036 0.8738 0.2713
vn -0.7483 0.5802 -0.3216
vn -0.3525 0.9233 -0.1522
vn -0.0721 0.8794 -0.4705
vn 0.8556 -0.5147 -0.0547
vn 0.7317 -0.6815 0.0101
vn 0.5157 -0.7683 -0.3792
vn 0.6529 -0.5888 -0.4764
vn 0.1974 -0.6920 -0.6944
vn 0.2744 -0.5279 -0.8038
vn 0.2296 -0.9600 -0.1605
vn 0.3530 -0.9047 -0.2388
vn 0.6059 -0.7952 0.0248
vn 0.1586 -0.7678 -0.6208
vn 0.0332 -0.8738 0.4852
vn -0.3081 -0.9233 0.2292
vn -0.6526 -0.5802 0.4873
vn -0.4435 -0.8794 -0.1728
vn -0.8556 0.5147 0.0547
vn -0.6529 0.5888 0.4764
vn -0.5157 0.7683 0.3792
vn -0.7317 0.6815 -0.0101
vn -0.2744 0.5279 0.8038
vn -0.1974 0.6920 0.6944
vn -0.2296 0.9600 0.1605
vn -0.3530 0.9047 0.2388
vn -0.6059 0.7952 -0.0248
vn -0.1586 0.7678 0.6208
vn -0.0332 0.8738 -0.4852
vn 0.6526 0.5802 -0.4873
vn 0.3081 0.9233 -0.2292
vn 0.4435 0.8794 0.1728
vn 0.8331 -0.5147 -0.2024
vn 0.7224 -0.6815 -0.1171
vn 0.4420 -0.7683 -0.4630
vn 0.5603 -0.5888 -0.5826
vn 0.0738 -0.6920 -0.7181
vn 0.1306 -0.5279 -0.8392
vn 0.1982 -0.9600 -0.1979
vn 0.3061 -0.9047 -0.2965
vn 0.6010 -0.7952 -0.0808
vn 0.0484 -0.7678 -0.6389
vn 0.1169 -0.8738 0.4720
vn -0.2636 -0.9233 0.2792
vn -0.5581 -0.5802 0.5932
vn -0.4668 -0.8794 -0.0932
vn -0.8331 0.5147 0.2024
vn -0.5603 0.5888 0.5826
vn -0.4420 0.7683 0.4630
vn -0.7224 0.6815 0.1171
vn -0.1306 0.5279 0.8392
vn -0.0738 0.6920 0.7181
vn -0.1982 0.9600 0.1979
vn -0.3061 0.9047 0.2965
vn -0.6010 0.7952 0.0808
vn -0.0484 0.7678 0.6389
vn -0.1169 0.8738 -0.4720
vn 0.5581 0.5802 -0.5932
vn 0.2636 0.9233 -0.2792
vn 0.4668 0.8794 0.0932
vn -0.7136 -0.5147 0.4752
vn -0.6387 -0.6815 0.3571
vn -0.2570 -0.7683 0.5862
vn -0.3272 -0.5888 0.7391
vn 0.1762 -0.6920 0.7001
vn 0.1643 -0.5279 0.8333
vn -0.1186 -0.9600 0.2538
vn -0.1863 -0.9047 0.3833
vn -0.5371 -0.7952 0.2815
vn 0.1730 -0.7678 0.6169
vn -0.2713 -0.8738 -0.4036
vn 0.1522 -0.9233 -0.3525
vn 0.3216 -0.5802 -0.7483
vn 0.4705 -0.8794 -0.0721
vn 0.7136 0.5147 -0.4752
vn 0.3272 0.5888 -0.7391
vn 0.2570 0.7683 -0.5862
vn 0.6387 0.6815 -0.3571
vn -0.1643 0.5279 -0.8333
vn -0.1762 0.6920 -0.7001
vn 0.1186 0.9600 -0.2537
vn 0.1863 0.9047 -0.3833
vn 0.5371 0.7952 -0.2815
vn -0.1730 0.7678 -0.6169
vn 0.2714 0.8738 0.4036
vn -0.3215 0.5802 0.7483
vn -0.1522 0.9233 0.3525
vn -0.4705 0.8794 0.0721
vn 0.5597 0.8273 0.0483
vn 0.2511 0.8232 -0.5093
vn -0.2702 0.8767 0.3980
vn -0.1790 0.6974 0.6940
vn -0.0064 0.5531 0.8331
vn 0.5704 0.2628 0.7782
vn 0.9492 -0.0216 0.3138
vn 0.9984 -0.0422 0.0373
vn 0.9575 0.0854 -0.2755
vn -0.8517 0.4553 -0.2594
vn -0.6104 0.7914 -0.0324
vn -0.0595 0.5920 -0.8038
vn -0.3980 0.1525 -0.9046
vn -0.7633 0.4920 0.4188
vn -0.4702 0.6448 0.6026
vn -0.3168 0.2978 0.9005
vn -0.0440 0.4009 0.9151
vn 0.3981 -0.1525 0.9046
vn 0.5048 0.0554 0.8615
vn 0.8517 -0.4553 0.2594
vn 0.8928 -0.2279 0.3885
vn 0.7633 -0.4920 -0.4188
vn 0.9395 -0.2793 -0.1983
vn 0.3168 -0.2978 -0.9005
vn 0.6745 -0.0367 -0.7374
vn -0.8959 0.1412 -0.4211
vn -0.9753 0.1951 0.1038
vn -0.7749 -0.0951 0.6249
vn -0.1655 -0.7755 0.6093
vn 0.4561 -0.8885 -0.0505
vn 0.3740 -0.6746 -0.6365
vn -0.0151 -0.4265 -0.9044
vn -0.6457 -0.6033 -0.4681
vn -0.5244 -0.0932 -0.8464
vn 0.6234 0.2576 0.7383
vn 0.3690 0.1845 0.9109
vn 0.6605 -0.7190 -0.2163
vn 0.5791 -0.7841 -0.2232
vn -0.4766 -0.0961 -0.8739
vn -0.2891 -0.0437 -0.9563
vn -0.6446 0.7422 0.1833
vn -0.0686 0.9870 -0.1456
vn 0.5346 -0.8368 -0.1179
vn 0.2668 -0.1436 0.9530
vn 0.1300 -0.4072 0.9040
vn -0.6418 -0.5923 -0.4871
vn -0.5713 -0.4567 -0.6819
vn -0.8898 -0.1516 0.4304
vn -0.8836 0.1776 0.4332
vn -0.6504 -0.6164 0.4439
vn 0.6703 0.2301 0.7055
vn -0.1225 -0.1134 -0.9860
vn 0.5438 0.7422 -0.3916
vn 0.4621 -0.0153 0.8867
vn 0.5548 0.0934 0.8267
vn -0.8800 0.2282 0.4167
vn -0.4121 -0.3028 -0.8594
vn -0.3058 -0.2362 -0.9223
vn 0.8813 0.0642 -0.4681
vn 0.8017 -0.4949 -0.3352
vn -0.4235 -0.8318 0.3589
vn -0.6989 0.7104 0.0828
vn -0.4523 0.7356 -0.5043
vn -0.9789 -0.1077 -0.1735
vn -0.9574 -0.2419 0.1574
vn -0.8842 -0.2221 0.4109
vn -0.5569 0.1657 0.8139
vn -0.0538 0.5979 0.7998
vn 0.1013 0.7656 0.6353
vn 0.1372 0.9305 0.3396
vn -0.3427 -0.3964 -0.8517
vn -0.7254 -0.1983 -0.6591
vn -0.1344 0.5516 -0.8232
vn 0.2696 0.1780 -0.9464
vn -0.6940 -0.6455 -0.3191
vn -0.8916 -0.4482 -0.0639
vn -0.7196 -0.5918 0.3632
vn -0.7940 -0.3450 0.5005
vn -0.2696 -0.1780 0.9464
vn -0.4214 0.0005 0.9069
vn 0.3427 0.3964 0.8517
vn 0.0856 0.4447 0.8916
vn 0.6940 0.6455 0.3191
vn 0.4168 0.7520 0.5107
vn 0.7196 0.5918 -0.3632
vn 0.4428 0.8883 -0.1220
vn 0.0055 -0.4612 -0.8873
vn -0.3008 -0.7634 -0.5716
vn -0.2820 -0.9591 0.0260
vn 0.3696 -0.6996 0.6115
vn 0.8372 0.0820 0.5407
vn 0.9259 0.3776 -0.0076
vn 0.8063 0.2836 -0.5191
vn 0.6985 -0.4958 -0.5161
vn 0.4455 -0.0367 -0.8945
vn -0.5287 0.2259 0.8182
vn -0.5691 -0.0877 0.8176
vn 0.7860 0.3854 0.4834
vn 0.8395 0.3011 0.4523
vn 0.4652 0.0140 -0.8851
vn 0.4747 0.2226 -0.8515
vn -0.7891 -0.3485 -0.5058
vn -0.7967 0.3583 -0.4867
vn 0.8311 0.1957 0.5205
vn -0.3115 -0.3036 0.9004
vn -0.0692 -0.4802 0.8744
vn 0.6984 -0.4796 -0.5313
vn 0.6796 -0.2807 -0.6777
vn -0.1485 -0.9752 -0.1641
vn -0.4366 -0.8576 -0.2719
vn 0.2704 -0.9513 0.1482
vn -0.4851 0.2699 0.8318
vn 0.5636 0.3462 -0.7500
vn -0.4142 0.8840 -0.2169
vn -0.3754 -0.0705 0.9242
vn -0.4337 0.0707 0.8983
vn -0.4724 -0.8291 -0.2990
vn 0.6439 -0.0132 -0.7650
vn 0.6249 0.1259 -0.7705
vn 0.2422 0.9566 0.1618
vn 0.6595 0.6341 0.4037
vn 0.5179 -0.8027 0.2955
vn -0.6431 0.7634 -0.0614
vn -0.2588 0.8611 0.4376
vn 0.1185 0.8336 -0.5395
vn 0.0047 0.6086 -0.7935
vn -0.1703 0.4328 -0.8853
vn -0.7002 0.1057 -0.7061
vn -0.9771 -0.1433 -0.1571
vn -0.9837 -0.1300 0.1241
vn -0.9117 0.0421 0.4088
vn 0.8287 0.5559 0.0659
vn 0.5240 0.8365 -0.1602
vn 0.1130 0.6990 0.7061
vn 0.5060 0.3072 0.8060
vn 0.6405 0.4921 -0.5896
vn 0.3098 0.5934 -0.7428
vn 0.1518 0.1975 -0.9685
vn -0.1294 0.2745 -0.9529
vn -0.5060 -0.3072 -0.8060
vn -0.6262 -0.1050 -0.7725
vn -0.8287 -0.5559 -0.0659
vn -0.9111 -0.3525 -0.2138
vn -0.6405 -0.4921 0.5896
vn -0.8675 -0.3269 0.3749
vn -0.1518 -0.1975 0.9685
vn -0.5542 0.0082 0.8323
vn 0.9278 0.2716 0.2559
vn 0.9249 0.2597 -0.2776
vn 0.6828 -0.1145 -0.7216
vn 0.1553 -0.8349 -0.5281
vn -0.3502 -0.9082 0.2293
vn -0.2072 -0.6102 0.7647
vn 0.1887 -0.2963 0.9363
vn 0.7649 -0.4778 0.4321
vn 0.6473 0.0673 0.7593
vn -0.7461 0.1015 -0.6580
vn -0.5130 0.0270 -0.8580
vn -0.5451 -0.7352 0.4029
vn -0.4572 -0.7918 0.4050
vn 0.6044 0.0642 0.7941
vn 0.4263 0.1115 0.8977
vn 0.5317 0.7614 -0.3710
vn -0.0132 0.9998 0.0113
vn -0.4231 -0.8545 0.3013
vn -0.3847 -0.2941 -0.8750
vn -0.2158 -0.5363 -0.8160
vn 0.7625 -0.4648 0.4500
vn 0.7073 -0.3101 0.6353
vn 0.8297 -0.1342 -0.5419
vn 0.7893 0.1899 -0.5840
vn 0.6399 -0.6148 -0.4610
vn -0.7848 0.0749 -0.6153
vn 0.2738 0.0328 0.9612
vn -0.5555 0.7408 0.3777
vn -0.5806 -0.1747 -0.7953
vn -0.6744 -0.0669 -0.7354
vn 0.7827 0.2417 -0.5735
vn 0.5603 -0.1472 0.8151
vn 0.4578 -0.0817 0.8853
vn -0.8069 0.0538 0.5883
vn -0.6900 -0.5097 0.5140
vn 0.4510 -0.8347 -0.3160
vn 0.6391 0.7687 -0.0272
vn 0.3410 0.7722 0.5361
vn 0.9657 -0.0220 0.2587
vn 0.9849 -0.1576 -0.0718
vn 0.9326 -0.1442 -0.3308
vn 0.6092 0.2136 -0.7637
vn 0.0712 0.6003 -0.7966
vn -0.1117 0.7538 -0.6475
vn -0.1874 0.9150 -0.3573
vn 0.3003 -0.3650 0.8812
vn 0.6796 -0.1343 0.7211
vn 0.0138 0.5611 0.8276
vn -0.3655 0.1538 0.9180
vn 0.7169 -0.5825 0.3830
vn 0.9182 -0.3688 0.1445
vn 0.7972 -0.5268 -0.2949
vn 0.8616 -0.2745 -0.4270
vn 0.3655 -0.1538 -0.9180
vn 0.4972 0.0372 -0.8668
vn -0.3003 0.3650 -0.8813
vn -0.0458 0.4355 -0.8990
vn -0.7169 0.5825 -0.3830
vn -0.4344 0.7128 -0.5507
vn -0.7972 0.5268 0.2949
vn -0.5272 0.8463 0.0764
vn -0.0427 -0.4599 0.8869
vn 0.3149 -0.7343 0.6014
vn 0.3654 -0.9308 0.0058
vn -0.2527 -0.7292 -0.6359
vn -0.7909 0.0086 -0.6119
vn -0.9524 0.2955 -0.0757
vn -0.8700 0.2123 0.4449
vn -0.6951 -0.5548 0.4572
vn -0.5169 -0.0754 0.8527
vn 0.5764 0.2711 -0.7709
vn 0.6436 -0.0377 -0.7644
vn -0.7714 0.3154 -0.5526
vn -0.8198 0.2268 -0.5257
vn -0.5400 -0.0266 0.8412
vn -0.5646 0.1804 0.8054
vn 0.7693 -0.2784 0.5751
vn 0.7171 0.4264 0.5513
vn -0.7965 0.1225 -0.5921
vn 0.4140 -0.2753 -0.8677
vn 0.1866 -0.4724 -0.8614
vn -0.6977 -0.5386 0.4723
vn -0.7091 -0.3389 0.6183
vn 0.2177 -0.9586 0.1838
vn 0.4840 -0.8163 0.3153
vn -0.1728 -0.9712 -0.1638
vn 0.5304 0.3112 -0.7885
vn -0.6547 0.2957 0.6956
vn 0.3154 0.9167 0.2453
vn 0.4592 -0.0375 -0.8875
vn 0.5026 0.1082 -0.8577
vn 0.5147 -0.7848 0.3452
vn -0.7046 -0.0692 0.7063
vn -0.6982 0.0709 0.7123
vn -0.3093 0.9319 -0.1895
vn -0.6744 0.5742 -0.4642
vn -0.4186 -0.8448 -0.3333
vn 0.0404 0.9987 0.0307
vn 0.5828 -0.7076 -0.3996
vn 0.2893 -0.6398 0.7120
vn -0.7989 -0.4372 0.4130
vn -0.5122 -0.5032 -0.6960
vn -0.5467 0.0812 -0.8333
vn 0.8133 -0.3043 -0.4959
vn -0.8115 0.3142 0.4928
vn 0.4370 -0.0861 0.8953
vn 0.7468 -0.4677 -0.4729
vn -0.4950 0.1571 -0.8546
vn 0.6125 0.7415 -0.2739
vn -0.6381 0.6403 0.4276
vn 0.4858 -0.0159 0.8739
vn 0.1652 -0.9631 -0.2122
vn -0.2330 -0.5651 0.7914
vn -0.9675 0.1035 0.2308
vn -0.5777 -0.2847 -0.7650
vn -0.2606 0.1941 -0.9457
vn 0.5873 -0.7665 -0.2601
vn -0.5933 0.7580 0.2708
vn 0.1592 -0.1487 0.9760
vn 0.4640 -0.8487 -0.2538
vn -0.1871 0.2293 -0.9552
vn 0.9445 0.2832 -0.1666
vn -0.2757 0.9345 0.2250
vn 0.2494 -0.1011 0.9631
vn -0.5112 -0.8421 -0.1718
vn 0.6695 -0.5913 -0.4495
vn 0.7652 -0.2676 0.5856
vn -0.1835 -0.4181 0.8897
vn -0.4435 0.1251 0.8875
vn -0.7829 -0.5077 -0.3595
vn 0.7859 0.4873 0.3807
vn 0.5356 -0.1308 -0.8343
vn -0.7250 -0.6106 -0.3186
vn -0.4943 0.2109 0.8433
vn -0.6381 0.6097 -0.4703
vn 0.6096 0.7593 0.2279
vn 0.4978 -0.0697 -0.8645
vn -0.5649 -0.8252 -0.0031
vn 0.1982 -0.5442 -0.8152
vn 0.9631 -0.2692 -0.0033
vn 0.2001 -0.5503 0.8106
vn 0.0729 0.0065 0.9973
vn -0.8840 -0.4675 0.0036
vn 0.8759 0.4825 0.0003
vn 0.0699 0.0142 -0.9975
vn -0.7736 -0.6337 0.0012
vn -0.0061 0.0709 0.9975
vn -0.8009 0.5988 0.0000
vn 0.6250 0.7806 -0.0005
vn -0.0045 0.0715 -0.9974
vn -0.1527 -0.8927 0.4239
vn -0.8039 -0.4318 -0.4090
vn 0.1351 -0.1455 -0.9801
vn 0.7897 -0.5899 -0.1684
vn 0.9898 -0.0938 0.1074
vn -0.1804 -0.5990 0.7802
vn 0.1765 0.5840 -0.7923
vn -0.9758 0.1024 -0.1934
vn -0.1750 -0.6861 0.7062
vn 0.9867 -0.0308 0.1593
vn -0.0713 0.5348 0.8420
vn 0.1656 0.8208 -0.5467
vn -0.9758 0.1713 -0.1363
vn -0.1710 -0.7213 -0.6712
vn 0.7684 -0.6397 -0.0186
vn 0.1189 -0.4330 0.8935
vn -0.8214 -0.5110 0.2533
vn -0.9712 0.0711 0.2273
vn -0.1914 -0.3270 -0.9254
vn 0.1842 0.3188 0.9297
vn 0.9901 -0.0877 -0.1099
vn -0.1889 -0.4677 -0.8635
vn -0.9724 0.1570 0.1728
vn -0.0479 0.7415 -0.6693
vn 0.1836 0.6403 0.7459
vn 0.9874 -0.0159 -0.1577
s 1
f 1/1/1 2/2/2 3/3/3
f 3/3/3 4/4/4 1/1/1
f 5/5/5 6/6/6 2/2/2
f 2/2/2 1/1/1 5/5/5
f 7/7/7 8/8/8 6/6/6
f 6/6/6 5/5/5 7/7/7
f 9/9/9 10/10/10 8/8/8
f 8/8/8 7/7/7 9/9/9
f 11/11/11 12/12/12 10/10/10
f 10/10/10 9/9/9 11/11/11
f 4/4/4 3/3/3 12/12/12
f 12/12/12 11/11/11 4/4/4
f 13/13/13 14/14/14 15/15/15
f 15/15/15 16/16/16 13/13/13
f 17/17/17 18/18/18 14/14/14
f 14/14/14 13/13/13 17/17/17
f 19/19/19 20/20/20 18/18/18
f 18/18/18 17/17/17 19/19/19
f 21/21/21 22/22/22 20/20/20
f 20/20/20 19/19/19 21/21/21
f 23/23/23 24/24/24 22/22/22
f 22/22/22 21/21/21 23/23/23
f 23/23/23 16/16/16 15/15/15
f 15/15/15 24/24/24 23/23/23
f 13/13/13 16/16/16 3/3/3
f 3/3/3 2/2/2 13/13/13
f 17/17/17 13/13/13 2/2/2
f 2/2/2 6/6/6 17/17/17
f 19/19/19 17/17/17 6/6/6
f 6/6/6 8/8/8 19/19/19
f 21/21/21 19/19/19 8/8/8
f 8/8/8 10/10/10 21/21/21
f 23/23/23 21/21/21 10/10/10
f 10/10/10 12/12/12 23/23/23
f 16/16/16 23/23/23 12/12/12
f 12/12/12 3/3/3 16/16/16
s 2
f 25/25/25 26/26/26 27/27/27
f 27/27/27 28/28/28 25/25/25
f 28/28/28 27/27/27 29/29/29
f 29/29/29 30/30/30 28/28/28
f 31/31/31 27/27/27 26/26/26
f 31/31/31 29/29/29 27/27/27
f 32/32/32 33/33/33 25/25/25
f 25/25/25 28/28/28 32/32/32
f 34/34/34 32/32/32 28/28/28
f 28/28/28 30/30/30 34/34/34
f 35/35/35 36/36/36 37/37/37
f 36/36/36 38/38/38 37/37/37
f 33/33/33 32/32/32 36/36/36
f 36/36/36 35/35/35 33/33/33
f 38/38/38 36/36/36 32/32/32
f 32/32/32 34/34/34 38/38/38
s 3
f 39/39/39 40/40/40 41/41/41
f 41/41/41 42/42/42 39/39/39
f 40/40/40 43/43/43 44/44/44
f 44/44/44 41/41/41 40/40/40
f 45/45/45 42/42/42 41/41/41
f 45/45/45 41/41/41 44/44/44
f 46/46/46 40/40/40 39/39/39
f 39/39/39 47/47/47 46/46/46
f 48/48/48 43/43/43 40/40/40
f 40/40/40 46/46/46 48/48/48
f 49/49/49 50/50/50 51/51/51
f 51/51/51 50/50/50 52/52/52
f 47/47/47 49/49/49 51/51/51
f 51/51/51 46/46/46 47/47/47
f 52/52/52 48/48/48 46/46/46
f 46/46/46 51/51/51 52/52/52
s 4
f 53/53/53 54/54/54 55/55/55
f 55/55/55 56/56/56 53/53/53
f 56/56/56 55/55/55 57/57/57
f 57/57/57 58/58/58 56/56/56
f 59/59/59 55/55/55 54/54/54
f 59/59/59 57/57/57 55/55/55
f 60/60/60 61/61/61 53/53/53
f 53/53/53 56/56/56 60/60/60
f 62/62/62 60/60/60 56/56/56
f 56/56/56 58/58/58 62/62/62
f 63/63/63 64/64/64 65/65/65
f 64/64/64 66/66/66 65/65/65
f 61/61/61 60/60/60 64/64/64
f 64/64/64 63/63/63 61/61/61
f 66/66/66 64/64/64 60/60/60
f 60/60/60 62/62/62 66/66/66
s 5
f 67/67/67 68/68/68 69/69/69
f 69/69/69 70/70/70 67/67/67
f 68/68/68 71/71/71 72/72/72
f 72/72/72 69/69/69 68/68/68
f 73/73/73 70/70/70 69/69/69
f 73/73/73 69/69/69 72/72/72
f 74/74/74 68/68/68 67/67/67
f 67/67/67 75/75/75 74/74/74
f 76/76/76 71/71/71 68/68/68
f 68/68/68 74/74/74 76/76/76
f 77/77/77 78/78/78 79/79/79
f 79/79/79 78/78/78 80/80/80
f 75/75/75 77/77/77 79/79/79
f 79/79/79 74/74/74 75/75/75
f 80/80/80 76/76/76 74/74/74
f 74/74/74 79/79/79 80/80/80
s 6
f 81/81/81 82/82/82 83/83/83
f 83/83/83 84/84/84 81/81/81
f 84/84/84 83/83/83 85/85/85
f 85/85/85 86/86/86 84/84/84
f 87/87/87 83/83/83 82/82/82
f 87/87/87 85/85/85 83/83/83
f 88/88/88 89/89/89 81/81/81
f 81/81/81 84/84/84 88/88/88
f 90/90/90 88/88/88 84/84/84
f 84/84/84 86/86/86 90/90/90
f 91/91/91 92/92/92 93/93/93
f 92/92/92 94/94/94 93/93/93
f 89/89/89 88/88/88 92/92/92
f 92/92/92 91/91/91 89/89/89
f 94/94/94 92/92/92 88/88/88
f 88/88/88 90/90/90 94/94/94
s 7
f 95/95/95 96/96/96 97/97/97
f 97/97/97 98/98/98 95/95/95
f 96/96/96 99/99/99 100/100/100
f 100/100/100 97/97/97 96/96/96
f 101/101/101 98/98/98 97/97/97
f 101/101/101 97/97/97 100/100/100
f 102/102/102 96/96/96 95/95/95
f 95/95/95 103/103/103 102/102/102
f 104/104/104 99/99/99 96/96/96
f 96/96/96 102/102/102 104/104/104
f 105/105/105 106/106/106 107/107/107
f 107/107/107 106/106/106 108/108/108
f 103/103/103 105/105/105 107/107/107
f 107/107/107 102/102/102 103/103/103
f 108/108/108 104/104/104 102/102/102
f 102/102/102 107/107/107 108/108/108
s 8
f 109/109/109 110/110/110 111/111/111
f 111/111/111 112/112/112 109/109/109
f 112/112/112 111/111/111 113/113/113
f 113/113/113 114/114/114 112/112/112
f 115/115/115 111/111/111 110/110/110
f 115/115/115 113/113/113 111/111/111
f 116/116/116 117/117/117 109/109/109
f 109/109/109 112/112/112 116/116/116
f 118/118/118 116/116/116 112/112/112
f 112/112/112 114/114/114 118/118/118
f 119/119/119 120/120/120 121/121/121
f 120/120/120 122/122/122 121/121/121
f 117/117/117 116/116/116 120/120/120
f 120/120/120 119/119/119 117/117/117
f 122/122/122 120/120/120 116/116/116
f 116/116/116 118/118/118 122/122/122
s 9
f 123/123/123 124/124/124 125/125/125
f 125/125/125 126/126/126 123/123/123
f 124/124/124 127/127/127 128/128/128
f 128/128/128 125/125/125 124/124/124
f 129/129/129 126/126/126 125/125/125
f 129/129/129 125/125/125 128/128/128
f 130/130/130 124/124/124 123/123/123
f 123/123/123 131/131/131 130/130/130
f 132/132/132 127/127/127 124/124/124
f 124/124/124 130/130/130 132/132/132
f 133/133/133 134/134/134 135/135/135
f 135/135/135 134/134/134 136/136/136
f 131/131/131 133/133/133 135/135/135
f 135/135/135 130/130/130 131/131/131
f 136/136/136 132/132/132 130/130/130
f 130/130/130 135/135/135 136/136/136
s 10
f 137/137/137 138/138/138 139/139/139
f 139/139/139 140/140/140 137/137/137
f 140/140/140 139/139/139 141/141/141
f 141/141/141 142/142/142 140/140/140
f 143/143/143 139/139/139 138/138/138
f 143/143/143 141/141/141 139/139/139
f 144/144/144 145/145/145 137/137/137
f 137/137/137 140/140/140 144/144/144
f 146/146/146 144/144/144 140/140/140
f 140/140/140 142/142/142 146/146/146
f 147/147/147 148/148/148 149/149/149
f 148/148/148 150/150/150 149/149/149
f 145/145/145 144/144/144 148/148/148
f 148/148/148 147/147/147 145/145/145
f 150/150/150 148/148/148 144/144/144
f 144/144/144 146/146/146 150/150/150
s 11
f 151/151/151 152/152/152 153/153/153
f 153/153/153 154/154/154 151/151/151
f 152/152/152 155/155/155 156/156/156
f 156/156/156 153/153/153 152/152/152
f 157/157/157 154/154/154 153/153/153
f 157/157/157 153/153/153 156/156/156
f 158/158/158 152/152/152 151/151/151
f 151/151/151 159/159/159 158/158/158
f 160/160/160 155/155/155 152/152/152
f 152/152/152 158/158/158 160/160/160
f 161/161/161 162/162/162 163/163/163
f 163/163/163 162/162/162 164/164/164
f 159/159/159 161/161/161 163/163/163
f 163/163/163 158/158/158 159/159/159
f 164/164/164 160/160/160 158/158/158
f 158/158/158 163/163/163 164/164/164
s 12
f 165/165/165 166/166/166 167/167/167
f 167/167/167 168/168/168 165/165/165
f 168/168/168 167/167/167 169/169/169
f 169/169/169 170/170/170 168/168/168
f 171/171/171 167/167/167 166/166/166
f 171/171/171 169/169/169 167/167/167
f 172/172/172 173/173/173 165/165/165
f 165/165/165 168/168/168 172/172/172
f 174/174/174 172/172/172 168/168/168
f 168/168/168 170/170/170 174/174/174
f 175/175/175 176/176/176 177/177/177
f 176/176/176 178/178/178 177/177/177
f 173/173/173 172/172/172 176/176/176
f 176/176/176 175/175/175 173/173/173
f 178/178/178 176/176/176 172/172/172
f 172/172/172 174/174/174 178/178/178
s 13
f 179/179/179 180/180/180 181/181/181
f 181/181/181 182/182/182 179/179/179
f 180/180/180 183/183/183 184/184/184
f 184/184/184 181/181/181 180/180/180
f 185/185/185 182/182/182 181/181/181
f 185/185/185 181/181/181 184/184/184
f 186/186/186 180/180/180 179/179/179
f 179/179/179 187/187/187 186/186/186
f 188/188/188 183/183/183 180/180/180
f 180/180/180 186/186/186 188/188/188
f 189/189/189 190/190/190 191/191/191
f 191/191/191 190/190/190 192/192/192
f 187/187/187 189/189/189 191/191/191
f 191/191/191 186/186/186 187/187/187
f 192/192/192 188/188/188 186/186/186
f 186/186/186 191/191/191 192/192/192
s 14
f 193/193/193 194/194/194 195/195/195
f 193/193/193 195/195/195 196/196/196
f 193/193/193 196/196/196 197/197/197
f 193/193/193 197/197/197 198/198/198
f 193/199/193 198/200/198 199/201/199
f 193/199/193 199/201/199 200/202/200
f 193/199/193 200/202/200 201/203/201
f 193/199/193 201/203/201 194/204/194
f 202/205/202 203/206/203 204/207/204
f 204/207/204 205/208/205 202/205/202
f 206/209/206 207/210/207 203/206/203
f 203/206/203 202/205/202 206/209/206
f 208/211/208 209/212/209 207/210/207
f 207/210/207 206/209/206 208/211/208
f 209/213/209 210/214/210 211/215/211
f 212/216/212 213/217/213 211/215/211
f 211/215/211 210/214/210 212/216/212
f 214/218/214 215/219/215 213/217/213
f 213/217/213 212/216/212 214/218/214
f 216/220/216 217/221/217 215/219/215
f 215/219/215 214/218/214 216/220/216
f 205/222/205 204/223/204 217/221/217
f 217/221/217 216/220/216 205/222/205
f 205/208/205 218/224/218 202/205/202
f 219/225/219 206/209/206 202/205/202
f 202/205/202 218/224/218 219/225/219
f 220/226/220 208/211/208 206/209/206
f 206/209/206 219/225/219 220/226/220
f 221/227/221 210/228/210 208/211/208
f 208/211/208 220/226/220 221/227/221
f 222/229/222 212/216/212 210/214/210
f 210/214/210 221/230/221 222/229/222
f 223/231/223 214/218/214 212/216/212
f 212/216/212 222/229/222 223/231/223
f 224/232/224 216/220/216 214/218/214
f 214/218/214 223/231/223 224/232/224
f 216/220/216 224/232/224 205/222/205
f 225/233/225 218/234/218 226/235/226
f 225/233/225 219/236/219 218/234/218
f 225/233/225 220/237/220 219/236/219
f 225/233/225 221/238/221 220/237/220
f 225/233/225 222/239/222 221/238/221
f 225/233/225 223/240/223 222/239/222
f 225/233/225 224/241/224 223/240/223
f 225/233/225 226/235/226 224/241/224
f 205/242/205 226/235/226 218/234/218
f 224/241/224 226/235/226 205/242/205
f 203/243/203 195/195/195 194/194/194
f 194/194/194 204/244/204 203/243/203
f 217/245/217 204/246/204 194/204/194
f 194/204/194 201/203/201 217/245/217
f 209/212/209 208/211/208 210/228/210
f 209/247/209 197/197/197 196/196/196
f 196/196/196 207/248/207 209/247/209
f 211/249/211 198/198/198 197/197/197
f 197/197/197 209/247/209 211/249/211
f 213/250/213 199/201/199 198/200/198
f 198/200/198 211/251/211 213/250/213
f 215/252/215 200/202/200 199/201/199
f 199/201/199 213/250/213 215/252/215
f 195/195/195 203/243/203 207/248/207
f 207/248/207 196/196/196 195/195/195
f 215/252/215 217/245/217 201/203/201
f 201/203/201 200/202/200 215/252/215
s 15
f 227/253/227 228/254/228 229/255/229
f 229/255/229 230/256/230 227/253/227
f 230/257/230 229/258/229 231/259/231
f 231/259/231 232/260/232 230/257/230
f 233/261/233 234/262/234 232/260/232
f 232/260/232 231/259/231 233/261/233
f 228/254/228 227/253/227 234/263/234
f 234/263/234 233/264/233 228/254/228
f 235/265/235 229/255/229 236/266/236
f 236/266/236 237/267/237 235/265/235
f 238/268/238 239/269/239 229/258/229
f 229/258/229 235/270/235 238/268/238
f 239/269/239 238/268/238 240/271/240
f 240/271/240 241/272/241 239/269/239
f 241/273/241 240/274/240 237/267/237
f 237/267/237 236/266/236 241/273/241
f 242/275/242 243/276/243 227/253/227
f 227/253/227 230/256/230 242/275/242
f 242/277/242 230/257/230 232/260/232
f 232/260/232 244/278/244 242/277/242
f 232/260/232 234/262/234 245/279/245
f 245/279/245 244/278/244 232/260/232
f 234/263/234 227/253/227 243/276/243
f 243/276/243 245/280/245 234/263/234
f 246/281/246 247/282/247 242/275/242
f 242/275/242 248/283/248 246/281/246
f 249/284/249 248/285/248 242/277/242
f 242/277/242 250/286/250 249/284/249
f 250/286/250 251/287/251 252/288/252
f 252/288/252 249/284/249 250/286/250
f 251/289/251 247/282/247 246/281/246
f 246/281/246 252/290/252 251/289/251
f 246/281/246 248/283/248 253/291/253
f 248/285/248 249/284/249 253/292/253
f 249/284/249 252/288/252 253/292/253
f 252/290/252 246/281/246 253/291/253
f 228/254/228 236/266/236 229/255/229
f 231/259/231 229/258/229 239/269/239
f 231/259/231 239/269/239 241/272/241
f 241/272/241 233/261/233 231/259/231
f 233/264/233 241/273/241 236/266/236
f 236/266/236 228/254/228 233/264/233
f 243/276/243 242/275/242 247/282/247
f 244/278/244 250/286/250 242/277/242
f 245/279/245 251/287/251 250/286/250
f 250/286/250 244/278/244 245/279/245
f 243/276/243 247/282/247 251/289/251
f 251/289/251 245/280/245 243/276/243
s 16
f 254/293/254 255/294/255 256/295/256
f 254/293/254 256/295/256 257/296/257
f 254/293/254 257/296/257 258/297/258
f 254/293/254 258/297/258 259/298/259
f 254/299/254 259/300/259 260/301/260
f 254/299/254 260/301/260 261/302/261
f 254/299/254 261/302/261 262/303/262
f 254/299/254 262/303/262 255/304/255
f 263/305/263 264/306/264 265/307/265
f 265/307/265 266/308/266 263/305/263
f 267/309/267 268/310/268 264/306/264
f 264/306/264 263/305/263 267/309/267
f 269/311/269 270/312/270 268/310/268
f 268/310/268 267/309/267 269/311/269
f 270/313/270 271/314/271 272/315/272
f 273/316/273 274/317/274 272/315/272
f 272/315/272 271/314/271 273/316/273
f 275/318/275 276/319/276 274/317/274
f 274/317/274 273/316/273 275/318/275
f 277/320/277 278/321/278 276/319/276
f 276/319/276 275/318/275 277/320/277
f 266/322/266 265/323/265 278/321/278
f 278/321/278 277/320/277 266/322/266
f 266/308/266 279/324/279 263/305/263
f 280/325/280 267/309/267 263/305/263
f 263/305/263 279/324/279 280/325/280
f 281/326/281 269/311/269 267/309/267
f 267/309/267 280/325/280 281/326/281
f 282/327/282 271/328/271 269/311/269
f 269/311/269 281/326/281 282/327/282
f 283/329/283 273/316/273 271/314/271
f 271/314/271 282/330/282 283/329/283
f 284/331/284 275/318/275 273/316/273
f 273/316/273 283/329/283 284/331/284
f 285/332/285 277/320/277 275/318/275
f 275/318/275 284/331/284 285/332/285
f 277/320/277 285/332/285 266/322/266
f 286/333/286 279/334/279 287/335/287
f 286/333/286 280/336/280 279/334/279
f 286/333/286 281/337/281 280/336/280
f 286/333/286 282/338/282 281/337/281
f 286/333/286 283/339/283 282/338/282
f 286/333/286 284/340/284 283/339/283
f 286/333/286 285/341/285 284/340/284
f 286/333/286 287/335/287 285/341/285
f 266/342/266 287/335/287 279/334/279
f 285/341/285 287/335/287 266/342/266
f 264/343/264 256/295/256 255/294/255
f 255/294/255 265/344/265 264/343/264
f 278/345/278 265/346/265 255/304/255
f 255/304/255 262/303/262 278/345/278
f 270/312/270 269/311/269 271/328/271
f 270/347/270 258/297/258 257/296/257
f 257/296/257 268/348/268 270/347/270
f 272/349/272 259/298/259 258/297/258
f 258/297/258 270/347/270 272/349/272
f 274/350/274 260/301/260 259/300/259
f 259/300/259 272/351/272 274/350/274
f 276/352/276 261/302/261 260/301/260
f 260/301/260 274/350/274 276/352/276
f 256/295/256 264/343/264 268/348/268
f 268/348/268 257/296/257 256/295/256
f 276/352/276 278/345/278 262/303/262
f 262/303/262 261/302/261 276/352/276
s 17
f 288/353/288 289/354/289 290/355/290
f 290/355/290 291/356/291 288/353/288
f 291/357/291 290/358/290 292/359/292
f 292/359/292 293/360/293 291/357/291
f 294/361/294 295/362/295 293/360/293
f 293/360/293 292/359/292 294/361/294
f 289/354/289 288/353/288 295/363/295
f 295/363/295 294/364/294 289/354/289
f 296/365/296 290/355/290 297/366/297
f 297/366/297 298/367/298 296/365/296
f 299/368/299 300/369/300 290/358/290
f 290/358/290 296/370/296 299/368/299
f 300/369/300 299/368/299 301/371/301
f 301/371/301 302/372/302 300/369/300
f 302/373/302 301/374/301 298/367/298
f 298/367/298 297/366/297 302/373/302
f 303/375/303 304/376/304 288/353/288
f 288/353/288 291/356/291 303/375/303
f 303/377/303 291/357/291 293/360/293
f 293/360/293 305/378/305 303/377/303
f 293/360/293 295/362/295 306/379/306
f 306/379/306 305/378/305 293/360/293
f 295/363/295 288/353/288 304/376/304
f 304/376/304 306/380/306 295/363/295
f 307/381/307 308/382/308 303/375/303
f 303/375/303 309/383/309 307/381/307
f 310/384/310 309/385/309 303/377/303
f 303/377/303 311/386/311 310/384/310
f 311/386/311 312/387/312 313/388/313
f 313/388/313 310/384/310 311/386/311
f 312/389/312 308/382/308 307/381/307
f 307/381/307 313/390/313 312/389/312
f 307/381/307 309/383/309 314/391/314
f 309/385/309 310/384/310 314/392/314
f 310/384/310 313/388/313 314/392/314
f 313/390/313 307/381/307 314/391/314
f 289/354/289 297/366/297 290/355/290
f 292/359/292 290/358/290 300/369/300
f 292/359/292 300/369/300 302/372/302
f 302/372/302 294/361/294 292/359/292
f 294/364/294 302/373/302 297/366/297
f 297/366/297 289/354/289 294/364/294
f 304/376/304 303/375/303 308/382/308
f 305/378/305 311/386/311 303/377/303
f 306/379/306 312/387/312 311/386/311
f 311/386/311 305/378/305 306/379/306
f 304/376/304 308/382/308 312/389/312
f 312/389/312 306/380/306 304/376/304
s 18
f 315/393/315 316/394/316 317/395/317
f 315/393/315 317/395/317 318/396/318
f 315/393/315 318/396/318 319/397/319
f 315/393/315 319/397/319 320/398/320
f 315/399/315 320/400/320 321/401/321
f 315/399/315 321/401/321 322/402/322
f 315/399/315 322/402/322 323/403/323
f 315/399/315 323/403/323 316/404/316
f 324/405/324 325/406/325 326/407/326
f 326/407/326 327/408/327 324/405/324
f 328/409/328 329/410/329 325/406/325
f 325/406/325 324/405/324 328/409/328
f 330/411/330 331/412/331 329/410/329
f 329/410/329 328/409/328 330/411/330
f 331/413/331 332/414/332 333/415/333
f 334/416/334 335/417/335 333/415/333
f 333/415/333 332/414/332 334/416/334
f 336/418/336 337/419/337 335/417/335
f 335/417/335 334/416/334 336/418/336
f 338/420/338 339/421/339 337/419/337
f 337/419/337 336/418/336 338/420/338
f 327/422/327 326/423/326 339/421/339
f 339/421/339 338/420/338 327/422/327
f 327/408/327 340/424/340 324/405/324
f 341/425/341 328/409/328 324/405/324
f 324/405/324 340/424/340 341/425/341
f 342/426/342 330/411/330 328/409/328
f 328/409/328 341/425/341 342/426/342
f 343/427/343 332/428/332 330/411/330
f 330/411/330 342/426/342 343/427/343
f 344/429/344 334/416/334 332/414/332
f 332/414/332 343/430/343 344/429/344
f 345/431/345 336/418/336 334/416/334
f 334/416/334 344/429/344 345/431/345
f 346/432/346 338/420/338 336/418/336
f 336/418/336 345/431/345 346/432/346
f 338/420/338 346/432/346 327/422/327
f 347/433/347 340/434/340 348/435/348
f 347/433/347 341/436/341 340/434/340
f 347/433/347 342/437/342 341/436/341
f 347/433/347 343/438/343 342/437/342
f 347/433/347 344/439/344 343/438/343
f 347/433/347 345/440/345 344/439/344
f 347/433/347 346/441/346 345/440/345
f 347/433/347 348/435/348 346/441/346
f 327/442/327 348/435/348 340/434/340
f 346/441/346 348/435/348 327/442/327
f 325/443/325 317/395/317 316/394/316
f 316/394/316 326/444/326 325/443/325
f 339/445/339 326/446/326 316/404/316
f 316/404/316 323/403/323 339/445/339
f 331/412/331 330/411/330 332/428/332
f 331/447/331 319/397/319 318/396/318
f 318/396/318 329/448/329 331/447/331
f 333/449/333 320/398/320 319/397/319
f 319/397/319 331/447/331 333/449/333
f 335/450/335 321/401/321 320/400/320
f 320/400/320 333/451/333 335/450/335
f 337/452/337 322/402/322 321/401/321
f 321/401/321 335/450/335 337/452/337
f 317/395/317 325/443/325 329/448/329
f 329/448/329 318/396/318 317/395/317
f 337/452/337 339/445/339 323/403/323
f 323/403/323 322/402/322 337/452/337
s 19
f 349/453/349 350/454/350 351/455/351
f 351/455/351 352/456/352 349/453/349
f 352/457/352 351/458/351 353/459/353
f 353/459/353 354/460/354 352/457/352
f 355/461/355 356/462/356 354/460/354
f 354/460/354 353/459/353 355/461/355
f 350/454/350 349/453/349 356/463/356
f 356/463/356 355/464/355 350/454/350
f 357/465/357 351/455/351 358/466/358
f 358/466/358 359/467/359 357/465/357
f 360/468/360 361/469/361 351/458/351
f 351/458/351 357/470/357 360/468/360
f 361/469/361 360/468/360 362/471/362
f 362/471/362 363/472/363 361/469/361
f 363/473/363 362/474/362 359/467/359
f 359/467/359 358/466/358 363/473/363
f 364/475/364 365/476/365 349/453/349
f 349/453/349 352/456/352 364/475/364
f 364/477/364 352/457/352 354/460/354
f 354/460/354 366/478/366 364/477/364
f 354/460/354 356/462/356 367/479/367
f 367/479/367 366/478/366 354/460/354
f 356/463/356 349/453/349 365/476/365
f 365/476/365 367/480/367 356/463/356
f 368/481/368 369/482/369 364/475/364
f 364/475/364 370/483/370 368/481/368
f 371/484/371 370/485/370 364/477/364
f 364/477/364 372/486/372 371/484/371
f 372/486/372 373/487/373 374/488/374
f 374/488/374 371/484/371 372/486/372
f 373/489/373 369/482/369 368/481/368
f 368/481/368 374/490/374 373/489/373
f 368/481/368 370/483/370 375/491/375
f 370/485/370 371/484/371 375/492/375
f 371/484/371 374/488/374 375/492/375
f 374/490/374 368/481/368 375/491/375
f 350/454/350 358/466/358 351/455/351
f 353/459/353 351/458/351 361/469/361
f 353/459/353 361/469/361 363/472/363
f 363/472/363 355/461/355 353/459/353
f 355/464/355 363/473/363 358/466/358
f 358/466/358 350/454/350 355/464/355
f 365/476/365 364/475/364 369/482/369
f 366/478/366 372/486/372 364/477/364
f 367/479/367 373/487/373 372/486/372
f 372/486/372 366/478/366 367/479/367
f 365/476/365 369/482/369 373/489/373
f 373/489/373 367/480/367 365/476/365
s 20
f 376/493/376 377/494/377 378/495/378
f 376/493/376 378/495/378 379/496/379
f 376/493/376 379/496/379 380/497/380
f 376/493/376 380/497/380 381/498/381
f 376/499/376 381/500/381 382/501/382
f 376/499/376 382/501/382 383/502/383
f 376/499/376 383/502/383 384/503/384
f 376/499/376 384/503/384 377/504/377
f 385/505/385 386/506/386 387/507/387
f 387/507/387 388/508/388 385/505/385
f 389/509/389 390/510/390 386/506/386
f 386/506/386 385/505/385 389/509/389
f 391/511/391 392/512/392 390/510/390
f 390/510/390 389/509/389 391/511/391
f 392/513/392 393/514/393 394/515/394
f 395/516/395 396/517/396 394/515/394
f 394/515/394 393/514/393 395/516/395
f 397/518/397 398/519/398 396/517/396
f 396/517/396 395/516/395 397/518/397
f 399/520/399 400/521/400 398/519/398
f 398/519/398 397/518/397 399/520/399
f 388/522/388 387/523/387 400/521/400
f 400/521/400 399/520/399 388/522/388
f 388/508/388 401/524/401 385/505/385
f 402/525/402 389/509/389 385/505/385
f 385/505/385 401/524/401 402/525/402
f 403/526/403 391/511/391 389/509/389
f 389/509/389 402/525/402 403/526/403
f 404/527/404 393/528/393 391/511/391
f 391/511/391 403/526/403 404/527/404
f 405/529/405 395/516/395 393/514/393
f 393/514/393 404/530/404 405/529/405
f 406/531/406 397/518/397 395/516/395
f 395/516/395 405/529/405 406/531/406
f 407/532/407 399/520/399 397/518/397
f 397/518/397 406/531/406 407/532/407
f 399/520/399 407/532/407 388/522/388
f 408/533/408 401/534/401 409/535/409
f 408/533/408 402/536/402 401/534/401
f 408/533/408 403/537/403 402/536/402
f 408/533/408 404/538/404 403/537/403
f 408/533/408 405/539/405 404/538/404
f 408/533/408 406/540/406 405/539/405
f 408/533/408 407/541/407 406/540/406
f 408/533/408 409/535/409 407/541/407
f 388/542/388 409/535/409 401/534/401
f 407/541/407 409/535/409 388/542/388
f 386/543/386 378/495/378 377/494/377
f 377/494/377 387/544/387 386/543/386
f 400/545/400 387/546/387 377/504/377
f 377/504/377 384/503/384 400/545/400
f 392/512/392 391/511/391 393/528/393
f 392/547/392 380/497/380 379/496/379
f 379/496/379 390/548/390 392/547/392
f 394/549/394 381/498/381 380/497/380
f 380/497/380 392/547/392 394/549/394
f 396/550/396 382/501/382 381/500/381
f 381/500/381 394/551/394 396/550/396
f 398/552/398 383/502/383 382/501/382
f 382/501/382 396/550/396 398/552/398
f 378/495/378 386/543/386 390/548/390
f 390/548/390 379/496/379 378/495/378
f 398/552/398 400/545/400 384/503/384
f 384/503/384 383/502/383 398/552/398
s 21
f 410/553/410 411/554/411 412/555/412
f 412/555/412 413/556/413 410/553/410
f 413/557/413 412/558/412 414/559/414
f 414/559/414 415/560/415 413/557/413
f 416/561/416 417/562/417 415/560/415
f 415/560/415 414/559/414 416/561/416
f 411/554/411 410/553/410 417/563/417
f 417/563/417 416/564/416 411/554/411
f 418/565/418 412/555/412 419/566/419
f 419/566/419 420/567/420 418/565/418
f 421/568/421 422/569/422 412/558/412
f 412/558/412 418/570/418 421/568/421
f 422/569/422 421/568/421 423/571/423
f 423/571/423 424/572/424 422/569/422
f 424/573/424 423/574/423 420/567/420
f 420/567/420 419/566/419 424/573/424
f 425/575/425 426/576/426 410/553/410
f 410/553/410 413/556/413 425/575/425
f 425/577/425 413/557/413 415/560/415
f 415/560/415 427/578/427 425/577/425
f 415/560/415 417/562/417 428/579/428
f 428/579/428 427/578/427 415/560/415
f 417/563/417 410/553/410 426/576/426
f 426/576/426 428/580/428 417/563/417
f 429/581/429 430/582/430 425/575/425
f 425/575/425 431/583/431 429/581/429
f 432/584/432 431/585/431 425/577/425
f 425/577/425 433/586/433 432/584/432
f 433/586/433 434/587/434 435/588/435
f 435/588/435 432/584/432 433/586/433
f 434/589/434 430/582/430 429/581/429
f 429/581/429 435/590/435 434/589/434
f 429/581/429 431/583/431 436/591/436
f 431/585/431 432/584/432 436/592/436
f 432/584/432 435/588/435 436/592/436
f 435/590/435 429/581/429 436/591/436
f 411/554/411 419/566/419 412/555/412
f 414/559/414 412/558/412 422/569/422
f 414/559/414 422/569/422 424/572/424
f 424/572/424 416/561/416 414/559/414
f 416/564/416 424/573/424 419/566/419
f 419/566/419 411/554/411 416/564/416
f 426/576/426 425/575/425 430/582/430
f 427/578/427 433/586/433 425/577/425
f 428/579/428 434/587/434 433/586/433
f 433/586/433 427/578/427 428/579/428
f 426/576/426 430/582/430 434/589/434
f 434/589/434 428/580/428 426/576/426
s 1
f 14/593/14 437/594/437 15/595/15
f 18/596/18 437/594/437 14/597/14
f 20/598/20 437/594/437 18/596/18
f 22/599/22 437/594/437 20/598/20
f 24/600/24 437/594/437 22/601/22
f 15/595/15 437/594/437 24/600/24
s 22
f 438/602/438 439/603/439 440/604/440
f 440/604/440 441/605/441 438/602/438
f 441/606/441 442/607/442 443/608/443
f 443/608/443 438/609/438 441/606/441
f 440/610/440 444/611/444 442/607/442
f 442/607/442 441/606/441 440/610/440
f 439/612/439 445/613/445 444/614/444
f 444/614/444 440/615/440 439/612/439
f 438/616/438 443/617/443 445/613/445
f 445/613/445 439/612/439 438/616/438
f 446/618/446 447/619/447 448/620/448
f 447/619/447 449/621/449 448/620/448
f 449/622/449 450/623/450 448/620/448
f 450/623/450 446/624/446 448/620/448
f 447/619/447 446/618/446 443/608/443
f 443/608/443 442/607/442 447/619/447
f 449/621/449 447/619/447 442/607/442
f 442/607/442 444/611/444 449/621/449
f 450/623/450 449/622/449 444/614/444
f 444/614/444 445/613/445 450/623/450
f 446/624/446 450/623/450 445/613/445
f 445/613/445 443/617/443 446/624/446
s 23
f 451/625/451 452/626/452 453/627/453
f 453/627/453 454/628/454 451/625/451
f 454/629/454 455/630/455 456/631/456
f 456/631/456 451/632/451 454/629/454
f 453/633/453 457/634/457 455/630/455
f 455/630/455 454/629/454 453/633/453
f 452/635/452 458/636/458 457/637/457
f 457/637/457 453/638/453 452/635/452
f 451/639/451 456/640/456 458/636/458
f 458/636/458 452/635/452 451/639/451
f 459/641/459 460/642/460 461/643/461
f 460/642/460 462/644/462 461/643/461
f 462/645/462 463/646/463 461/643/461
f 463/646/463 459/647/459 461/643/461
f 460/642/460 459/641/459 456/631/456
f 456/631/456 455/630/455 460/642/460
f 462/644/462 460/642/460 455/630/455
f 455/630/455 457/634/457 462/644/462
f 463/646/463 462/645/462 457/637/457
f 457/637/457 458/636/458 463/646/463
f 459/647/459 463/646/463 458/636/458
f 458/636/458 456/640/456 459/647/459
s 24
f 464/648/464 465/649/465 466/650/466
f 466/650/466 467/651/467 464/648/464
f 467/652/467 468/653/468 469/654/469
f 469/654/469 464/655/464 467/652/467
f 466/656/466 470/657/470 468/653/468
f 468/653/468 467/652/467 466/656/466
f 465/658/465 471/659/471 470/660/470
f 470/660/470 466/661/466 465/658/465
f 464/662/464 469/663/469 471/659/471
f 471/659/471 465/658/465 464/662/464
f 472/664/472 473/665/473 474/666/474
f 473/665/473 475/667/475 474/666/474
f 475/668/475 476/669/476 474/666/474
f 476/669/476 472/670/472 474/666/474
f 473/665/473 472/664/472 469/654/469
f 469/654/469 468/653/468 473/665/473
f 475/667/475 473/665/473 468/653/468
f 468/653/468 470/657/470 475/667/475
f 476/669/476 475/668/475 470/660/470
f 470/660/470 471/659/471 476/669/476
f 472/670/472 476/669/476 471/659/471
f 471/659/471 469/663/469 472/670/472
s 25
f 477/671/477 478/672/478 479/673/479
f 479/673/479 480/674/480 477/671/477
f 480/675/480 481/676/481 482/677/482
f 482/677/482 477/678/477 480/675/480
f 479/679/479 483/680/483 481/676/481
f 481/676/481 480/675/480 479/679/479
f 478/681/478 484/682/484 483/683/483
f 483/683/483 479/684/479 478/681/478
f 477/685/477 482/686/482 484/682/484
f 484/682/484 478/681/478 477/685/477
f 485/687/485 486/688/486 487/689/487
f 486/688/486 488/690/488 487/689/487
f 488/691/488 489/692/489 487/689/487
f 489/692/489 485/693/485 487/689/487
f 486/688/486 485/687/485 482/677/482
f 482/677/482 481/676/481 486/688/486
f 488/690/488 486/688/486 481/676/481
f 481/676/481 483/680/483 488/690/488
f 489/692/489 488/691/488 483/683/483
f 483/683/483 484/682/484 489/692/489
f 485/693/485 489/692/489 484/682/484
f 484/682/484 482/686/482 485/693/485
s 26
f 490/694/490 491/695/491 492/696/492
f 492/696/492 493/697/493 490/694/490
f 493/698/493 494/699/494 495/700/495
f 495/700/495 490/701/490 493/698/493
f 492/702/492 496/703/496 494/699/494
f 494/699/494 493/698/493 492/702/492
f 491/704/491 497/705/497 496/706/496
f 496/706/496 492/707/492 491/704/491
f 490/708/490 495/709/495 497/705/497
f 497/705/497 491/704/491 490/708/490
f 498/710/498 499/711/499 500/712/500
f 499/711/499 501/713/501 500/712/500
f 501/714/501 502/715/502 500/712/500
f 502/715/502 498/716/498 500/712/500
f 499/711/499 498/710/498 495/700/495
f 495/700/495 494/699/494 499/711/499
f 501/713/501 499/711/499 494/699/494
f 494/699/494 496/703/496 501/713/501
f 502/715/502 501/714/501 496/706/496
f 496/706/496 497/705/497 502/715/502
f 498/716/498 502/715/502 497/705/497
f 497/705/497 495/709/495 498/716/498
s 27
f 503/717/503 504/718/504 505/719/505
f 505/719/505 506/720/506 503/717/503
f 506/721/506 507/722/507 508/723/508
f 508/723/508 503/724/503 506/721/506
f 505/725/505 509/726/509 507/722/507
f 507/722/507 506/721/506 505/725/505
f 504/727/504 510/728/510 509/729/509
f 509/729/509 505/730/505 504/727/504
f 503/731/503 508/732/508 510/728/510
f 510/728/510 504/727/504 503/731/503
f 511/733/511 512/734/512 513/735/513
f 512/734/512 514/736/514 513/735/513
f 514/737/514 515/738/515 513/735/513
f 515/738/515 511/739/511 513/735/513
f 512/734/512 511/733/511 508/723/508
f 508/723/508 507/722/507 512/734/512
f 514/736/514 512/734/512 507/722/507
f 507/722/507 509/726/509 514/736/514
f 515/738/515 514/737/514 509/729/509
f 509/729/509 510/728/510 515/738/515
f 511/739/511 515/738/515 510/728/510
f 510/728/510 508/732/508 511/739/511
