# Blender v3.3.0 OBJ File: ''
# www.blender.org
o CornStage01.005
v -0.047085 0.156238 -0.003312
v -0.033539 0.130318 -0.008172
v -0.027907 0.123710 0.029686
v -0.040670 0.148713 0.039800
v 0.007116 0.129594 0.045507
v -0.000786 0.155413 0.057817
v 0.005170 0.111575 0.004417
v -0.069166 0.195253 0.060210
v -0.082351 0.206286 0.029056
v -0.043056 0.205889 0.081779
v -0.104009 0.201680 0.065226
v -0.088640 0.195876 0.074626
v -0.099448 0.177444 0.082099
v -0.084232 0.201529 0.092131
v -0.047085 0.157112 -0.003312
v -0.040670 0.149587 0.039800
v -0.027907 0.124583 0.029686
v -0.033539 0.131192 -0.008172
v -0.000786 0.156287 0.057817
v 0.007116 0.130467 0.045507
v 0.005170 0.112449 0.004417
v -0.069166 0.196126 0.060210
v -0.082351 0.207160 0.029056
v -0.043056 0.206763 0.081779
v -0.104009 0.202553 0.065226
v -0.099448 0.178318 0.082099
v -0.088640 0.196750 0.074626
v -0.084232 0.202403 0.092131
v 0.005799 -0.018404 -0.010044
v 0.014914 0.178928 -0.010480
v 0.021603 0.181450 -0.001218
v 0.011597 -0.018404 -0.000000
v -0.005799 -0.018404 -0.010044
v 0.003407 0.177937 -0.009262
v -0.011597 -0.018404 -0.000000
v -0.001411 0.179467 0.001218
v -0.005799 -0.018404 0.010044
v 0.005278 0.181989 0.010480
v 0.005799 -0.018404 0.010044
v 0.016785 0.182981 0.009262
v -0.005913 0.375772 -0.006688
v -0.002657 0.473960 0.003001
v -0.003040 0.374524 0.000514
v -0.013549 0.377449 -0.007702
v -0.018312 0.377876 -0.001514
v -0.015439 0.376628 0.005688
v -0.007803 0.374951 0.006702
v 0.048479 0.341386 0.006797
v 0.034933 0.315466 0.011657
v 0.029301 0.308857 -0.026201
v 0.042065 0.333861 -0.036315
v -0.005722 0.314741 -0.042022
v 0.002181 0.340561 -0.054331
v -0.003776 0.296723 -0.000932
v 0.070560 0.380401 -0.056725
v 0.083745 0.391434 -0.025571
v 0.044451 0.391037 -0.078293
v 0.105403 0.386828 -0.061741
v 0.090034 0.381024 -0.071141
v 0.100842 0.362592 -0.078613
v 0.085627 0.386677 -0.088646
v 0.048479 0.342260 0.006797
v 0.042065 0.334734 -0.036315
v 0.029301 0.309731 -0.026201
v 0.034933 0.316340 0.011657
v 0.002181 0.341435 -0.054331
v -0.005722 0.315615 -0.042022
v -0.003776 0.297597 -0.000932
v 0.070560 0.381274 -0.056725
v 0.083745 0.392307 -0.025571
v 0.044451 0.391910 -0.078293
v 0.105403 0.387701 -0.061741
v 0.100842 0.363466 -0.078613
v 0.090034 0.381898 -0.071141
v 0.085627 0.387551 -0.088646
v -0.041700 0.175507 0.038737
v -0.041271 0.176393 0.034738
v -0.041922 0.170318 0.033993
v -0.038588 0.163863 0.035039
v -0.036105 0.162220 0.037124
v -0.032808 0.162911 0.039629
v -0.030510 0.166276 0.038623
v -0.030676 0.169599 0.037159
v -0.035344 0.175088 0.035756
v -0.031466 0.154890 0.015699
v -0.042533 0.169289 0.029944
v -0.040558 0.176853 0.030832
v -0.028674 0.165587 0.016956
v -0.024579 0.138942 0.016317
v -0.037663 0.158012 0.030380
v -0.012047 0.127087 0.018446
v -0.028802 0.149629 0.031886
v -0.001211 0.126268 0.020841
v -0.021140 0.149050 0.033579
v 0.001581 0.136966 0.022098
v -0.019165 0.156614 0.034468
v -0.005306 0.152913 0.021481
v -0.024035 0.167891 0.034032
v -0.017838 0.164769 0.019351
v -0.032896 0.176274 0.032526
v -0.010720 0.135241 0.003329
v -0.005850 0.123964 0.003766
v 0.003011 0.115581 0.005272
v 0.010673 0.115002 0.006965
v 0.012648 0.122567 0.007854
v 0.007778 0.133843 0.007417
v -0.001083 0.142226 0.005911
v 0.007552 0.121852 0.000079
v -0.008745 0.142805 0.004218
v 0.056269 0.106376 -0.000590
v 0.043774 0.080455 0.006549
v 0.031653 0.073847 -0.029756
v 0.042466 0.098850 -0.041932
v -0.005585 0.079731 -0.039255
v 0.000060 0.105550 -0.052749
v 0.003467 0.061713 0.000873
v 0.066985 0.145390 -0.066981
v 0.085379 0.156423 -0.038589
v 0.037527 0.156026 -0.083688
v 0.100428 0.151817 -0.077971
v 0.083660 0.146013 -0.084559
v 0.093006 0.127581 -0.093795
v 0.076279 0.151666 -0.101033
v 0.056269 0.107249 -0.000590
v 0.042466 0.099724 -0.041932
v 0.031653 0.074720 -0.029756
v 0.043774 0.081329 0.006549
v 0.000060 0.106424 -0.052749
v -0.005585 0.080604 -0.039255
v 0.003467 0.062586 0.000873
v 0.066985 0.146263 -0.066981
v 0.085379 0.157297 -0.038589
v 0.037527 0.156900 -0.083688
v 0.100428 0.152691 -0.077971
v 0.093006 0.128455 -0.093795
v 0.083659 0.146887 -0.084559
v 0.076279 0.152540 -0.101033
vt 0.789500 0.512400
vt 0.790100 0.570900
vt 0.864700 0.570000
vt 0.871600 0.504400
vt 0.923400 0.607100
vt 0.956300 0.535600
vt 0.832200 0.652100
vt 0.870500 0.361800
vt 0.789900 0.378600
vt 0.957300 0.366300
vt 0.808700 0.304100
vt 0.856100 0.301700
vt 0.837300 0.250200
vt 0.899300 0.286900
vt 0.789500 0.512400
vt 0.871600 0.504400
vt 0.864700 0.570000
vt 0.790100 0.570900
vt 0.956300 0.535600
vt 0.923400 0.607100
vt 0.832200 0.652100
vt 0.870500 0.361800
vt 0.789900 0.378600
vt 0.957300 0.366300
vt 0.808700 0.304100
vt 0.837300 0.250200
vt 0.856100 0.301700
vt 0.899300 0.286900
vt 0.004300 0.079400
vt 0.448900 0.079400
vt 0.448900 0.100200
vt 0.004300 0.100200
vt 0.004300 0.100200
vt 0.448900 0.100200
vt 0.004300 0.125000
vt 0.448900 0.125000
vt 0.004300 0.145200
vt 0.448900 0.145200
vt 0.004300 0.125000
vt 0.448900 0.125000
vt 0.900900 0.079400
vt 0.990000 0.113700
vt 0.900900 0.100200
vt 0.900900 0.100200
vt 0.900900 0.125000
vt 0.900900 0.145200
vt 0.900900 0.125000
vt 0.789500 0.512400
vt 0.790100 0.570900
vt 0.864700 0.570000
vt 0.871600 0.504400
vt 0.923400 0.607100
vt 0.956300 0.535600
vt 0.832200 0.652100
vt 0.870500 0.361800
vt 0.789900 0.378600
vt 0.957300 0.366300
vt 0.808700 0.304100
vt 0.856100 0.301700
vt 0.837300 0.250200
vt 0.899300 0.286900
vt 0.789500 0.512400
vt 0.871600 0.504400
vt 0.864700 0.570000
vt 0.790100 0.570900
vt 0.956300 0.535600
vt 0.923400 0.607100
vt 0.832200 0.652100
vt 0.870500 0.361800
vt 0.789900 0.378600
vt 0.957300 0.366300
vt 0.808700 0.304100
vt 0.837300 0.250200
vt 0.856100 0.301700
vt 0.899300 0.286900
vt 0.826600 0.360500
vt 0.811400 0.403600
vt 0.771000 0.369100
vt 0.768600 0.321100
vt 0.790300 0.293800
vt 0.832500 0.274000
vt 0.868300 0.370500
vt 0.870700 0.276800
vt 0.914200 0.302300
vt 0.934800 0.333900
vt 0.927400 0.385400
vt 0.880300 0.418400
vt 0.847200 0.631400
vt 0.982500 0.622300
vt 0.977800 0.678400
vt 0.848300 0.762700
vt 0.846400 0.508500
vt 0.982300 0.507600
vt 0.845800 0.385500
vt 0.981100 0.257600
vt 0.747100 0.218800
vt 0.854400 0.300800
vt 0.728000 0.324300
vt 0.852100 0.429800
vt 0.718500 0.433700
vt 0.849400 0.550700
vt 0.721900 0.549900
vt 0.843300 0.672300
vt 0.739100 0.690700
vt 0.928900 0.804600
vt 0.798800 0.801300
vt 0.735500 0.665300
vt 0.724600 0.512700
vt 0.719600 0.397800
vt 0.728500 0.256700
vt 0.893600 0.243400
vt 0.991600 0.440000
vt 0.983200 0.304800
vt 0.983600 0.553300
vt 0.980900 0.666300
vt 0.842800 0.290800
vt 0.944400 0.310700
vt 0.900600 0.369500
vt 0.926700 0.233000
vt 0.859600 0.190500
vt 0.782500 0.208900
vt 0.742000 0.277000
vt 0.762500 0.353700
vt 0.831400 0.393800
vt 0.960100 0.450500
vt 0.737400 0.397500
vt 0.796800 0.443500
vt 0.960600 0.419300
vt 0.892000 0.462900
vt 0.748600 0.255000
vt 0.718500 0.324400
vt 0.812500 0.215300
vt 0.963000 0.264800
vt 0.898200 0.215600
vt 0.988400 0.342600
vt 0.789500 0.512400
vt 0.790100 0.570900
vt 0.864700 0.570000
vt 0.871600 0.504400
vt 0.923400 0.607100
vt 0.956300 0.535600
vt 0.832200 0.652100
vt 0.870500 0.361800
vt 0.789900 0.378600
vt 0.957300 0.366300
vt 0.808700 0.304100
vt 0.856100 0.301700
vt 0.837300 0.250200
vt 0.899300 0.286900
vt 0.789500 0.512400
vt 0.871600 0.504400
vt 0.864700 0.570000
vt 0.790100 0.570900
vt 0.956300 0.535600
vt 0.923400 0.607100
vt 0.832200 0.652100
vt 0.870500 0.361800
vt 0.789900 0.378600
vt 0.957300 0.366300
vt 0.808700 0.304100
vt 0.837300 0.250200
vt 0.856100 0.301700
vt 0.899300 0.286900
vn -0.8556 -0.5147 0.0547
vn -0.7317 -0.6815 -0.0101
vn -0.5157 -0.7683 0.3792
vn -0.6529 -0.5888 0.4764
vn -0.1974 -0.6920 0.6944
vn -0.2744 -0.5279 0.8037
vn -0.2296 -0.9600 0.1605
vn -0.3529 -0.9047 0.2388
vn -0.6059 -0.7952 -0.0248
vn -0.1586 -0.7678 0.6208
vn -0.0332 -0.8738 -0.4852
vn 0.3081 -0.9233 -0.2292
vn 0.6526 -0.5802 -0.4873
vn 0.4435 -0.8794 0.1728
vn 0.8556 0.5147 -0.0547
vn 0.6529 0.5888 -0.4764
vn 0.5157 0.7683 -0.3792
vn 0.7317 0.6815 0.0101
vn 0.2744 0.5279 -0.8037
vn 0.1974 0.6920 -0.6944
vn 0.2296 0.9600 -0.1605
vn 0.3530 0.9046 -0.2388
vn 0.6059 0.7952 0.0248
vn 0.1586 0.7678 -0.6208
vn 0.0332 0.8738 0.4852
vn -0.6526 0.5802 0.4873
vn -0.3081 0.9233 0.2292
vn -0.4435 0.8794 -0.1728
vn 0.4875 -0.0273 -0.8727
vn 0.4261 0.0140 -0.9046
vn 0.9943 0.0374 -0.0998
vn 0.9986 -0.0528 0.0004
vn -0.5120 0.0241 -0.8586
vn -0.5678 -0.0035 -0.8232
vn -0.9988 0.0486 -0.0003
vn -0.9946 -0.0166 0.1022
vn -0.5117 0.0234 0.8588
vn -0.3849 -0.0044 0.9229
vn 0.4878 -0.0267 0.8726
vn 0.6004 0.0319 0.7991
vn 0.5996 0.0678 -0.7974
vn 0.0824 0.9960 0.0359
vn 0.9878 0.0685 0.1402
vn -0.3959 0.0609 -0.9163
vn -0.9892 0.0499 -0.1377
vn -0.6314 0.0264 0.7750
vn 0.3606 0.0386 0.9319
vn 0.8556 -0.5147 -0.0547
vn 0.7317 -0.6815 0.0101
vn 0.5157 -0.7683 -0.3792
vn 0.6529 -0.5888 -0.4764
vn 0.1974 -0.6920 -0.6944
vn 0.2744 -0.5279 -0.8038
vn 0.2296 -0.9600 -0.1605
vn 0.3529 -0.9047 -0.2388
vn 0.6059 -0.7952 0.0248
vn 0.1586 -0.7678 -0.6208
vn 0.0332 -0.8738 0.4852
vn -0.3081 -0.9233 0.2292
vn -0.6526 -0.5802 0.4873
vn -0.4435 -0.8794 -0.1728
vn -0.8556 0.5147 0.0547
vn -0.6529 0.5888 0.4764
vn -0.5157 0.7683 0.3792
vn -0.7317 0.6815 -0.0101
vn -0.2744 0.5279 0.8038
vn -0.1974 0.6920 0.6944
vn -0.2296 0.9600 0.1605
vn -0.3530 0.9046 0.2388
vn -0.6059 0.7952 -0.0247
vn -0.1586 0.7678 0.6208
vn -0.0332 0.8738 -0.4852
vn 0.6526 0.5802 -0.4873
vn 0.3081 0.9233 -0.2292
vn 0.4435 0.8794 0.1728
vn -0.5448 0.5038 0.6704
vn -0.6019 0.7917 0.1047
vn -0.9495 -0.1856 0.2529
vn -0.7814 -0.4317 0.4506
vn -0.5969 -0.4997 0.6277
vn -0.1012 -0.2506 0.9628
vn 0.3554 0.2272 0.9067
vn 0.4227 0.4675 0.7764
vn 0.3230 0.7370 0.5937
vn -0.7202 -0.0865 -0.6883
vn -0.9582 -0.0410 -0.2831
vn -0.4798 0.7973 -0.3662
vn -0.1985 0.5688 -0.7981
vn -0.7912 -0.5736 -0.2120
vn -0.8367 -0.5237 0.1601
vn -0.4911 -0.7916 0.3637
vn -0.4809 -0.6318 0.6079
vn 0.1985 -0.5688 0.7982
vn 0.0543 -0.4153 0.9081
vn 0.7202 0.0865 0.6883
vn 0.5144 0.0745 0.8543
vn 0.7912 0.5736 0.2120
vn 0.6417 0.5528 0.5316
vn 0.4910 0.7916 -0.3637
vn 0.3738 0.9246 0.0737
vn -0.4329 -0.0768 -0.8982
vn -0.5686 -0.5215 -0.6362
vn -0.2803 -0.9266 -0.2506
vn 0.5809 -0.8133 0.0321
vn 0.9958 -0.0016 0.0913
vn 0.8301 0.4924 -0.2615
vn 0.4802 0.5851 -0.6535
vn 0.3508 -0.1419 -0.9256
vn -0.0289 0.3814 -0.9240
vn 0.8331 -0.5147 -0.2024
vn 0.7224 -0.6815 -0.1171
vn 0.4420 -0.7683 -0.4630
vn 0.5603 -0.5888 -0.5826
vn 0.0738 -0.6920 -0.7181
vn 0.1307 -0.5279 -0.8392
vn 0.1982 -0.9600 -0.1979
vn 0.3061 -0.9047 -0.2965
vn 0.6010 -0.7952 -0.0808
vn 0.0484 -0.7678 -0.6389
vn 0.1170 -0.8738 0.4721
vn -0.2636 -0.9233 0.2792
vn -0.5581 -0.5802 0.5932
vn -0.4668 -0.8794 -0.0932
vn -0.8331 0.5147 0.2024
vn -0.5603 0.5888 0.5826
vn -0.4420 0.7683 0.4630
vn -0.7224 0.6815 0.1171
vn -0.1307 0.5279 0.8392
vn -0.0738 0.6920 0.7181
vn -0.1982 0.9600 0.1979
vn -0.3061 0.9047 0.2965
vn -0.6010 0.7952 0.0808
vn -0.0484 0.7678 0.6389
vn -0.1170 0.8738 -0.4721
vn 0.5581 0.5802 -0.5932
vn 0.2636 0.9234 -0.2792
vn 0.4668 0.8794 0.0932
s 1
f 1/1/1 2/2/2 3/3/3
f 3/3/3 4/4/4 1/1/1
f 4/4/4 3/3/3 5/5/5
f 5/5/5 6/6/6 4/4/4
f 7/7/7 3/3/3 2/2/2
f 7/7/7 5/5/5 3/3/3
f 8/8/8 9/9/9 1/1/1
f 1/1/1 4/4/4 8/8/8
f 10/10/10 8/8/8 4/4/4
f 4/4/4 6/6/6 10/10/10
f 11/11/11 12/12/12 13/13/13
f 12/12/12 14/14/14 13/13/13
f 9/9/9 8/8/8 12/12/12
f 12/12/12 11/11/11 9/9/9
f 14/14/14 12/12/12 8/8/8
f 8/8/8 10/10/10 14/14/14
s 2
f 15/15/15 16/16/16 17/17/17
f 17/17/17 18/18/18 15/15/15
f 16/16/16 19/19/19 20/20/20
f 20/20/20 17/17/17 16/16/16
f 21/21/21 18/18/18 17/17/17
f 21/21/21 17/17/17 20/20/20
f 22/22/22 16/16/16 15/15/15
f 15/15/15 23/23/23 22/22/22
f 24/24/24 19/19/19 16/16/16
f 16/16/16 22/22/22 24/24/24
f 25/25/25 26/26/26 27/27/27
f 27/27/27 26/26/26 28/28/28
f 23/23/23 25/25/25 27/27/27
f 27/27/27 22/22/22 23/23/23
f 28/28/28 24/24/24 22/22/22
f 22/22/22 27/27/27 28/28/28
s 3
f 29/29/29 30/30/30 31/31/31
f 31/31/31 32/32/32 29/29/29
f 33/33/33 34/34/34 30/30/30
f 30/30/30 29/29/29 33/33/33
f 35/35/35 36/36/36 34/34/34
f 34/34/34 33/33/33 35/35/35
f 37/37/37 38/38/38 36/36/36
f 36/36/36 35/35/35 37/37/37
f 39/39/39 40/40/40 38/38/38
f 38/38/38 37/37/37 39/39/39
f 32/32/32 31/31/31 40/40/40
f 40/40/40 39/39/39 32/32/32
f 41/41/41 42/42/42 43/43/43
f 44/44/44 42/42/42 41/41/41
f 45/45/45 42/42/42 44/44/44
f 46/46/46 42/42/42 45/45/45
f 47/47/47 42/42/42 46/46/46
f 43/43/43 42/42/42 47/47/47
f 41/41/41 43/43/43 31/31/31
f 31/31/31 30/30/30 41/41/41
f 44/44/44 41/41/41 30/30/30
f 30/30/30 34/34/34 44/44/44
f 45/45/45 44/44/44 34/34/34
f 34/34/34 36/36/36 45/45/45
f 46/46/46 45/45/45 36/36/36
f 36/36/36 38/38/38 46/46/46
f 47/47/47 46/46/46 38/38/38
f 38/38/38 40/40/40 47/47/47
f 43/43/43 47/47/47 40/40/40
f 40/40/40 31/31/31 43/43/43
s 4
f 48/48/48 49/49/49 50/50/50
f 50/50/50 51/51/51 48/48/48
f 51/51/51 50/50/50 52/52/52
f 52/52/52 53/53/53 51/51/51
f 54/54/54 50/50/50 49/49/49
f 54/54/54 52/52/52 50/50/50
f 55/55/55 56/56/56 48/48/48
f 48/48/48 51/51/51 55/55/55
f 57/57/57 55/55/55 51/51/51
f 51/51/51 53/53/53 57/57/57
f 58/58/58 59/59/59 60/60/60
f 59/59/59 61/61/61 60/60/60
f 56/56/56 55/55/55 59/59/59
f 59/59/59 58/58/58 56/56/56
f 61/61/61 59/59/59 55/55/55
f 55/55/55 57/57/57 61/61/61
s 5
f 62/62/62 63/63/63 64/64/64
f 64/64/64 65/65/65 62/62/62
f 63/63/63 66/66/66 67/67/67
f 67/67/67 64/64/64 63/63/63
f 68/68/68 65/65/65 64/64/64
f 68/68/68 64/64/64 67/67/67
f 69/69/69 63/63/63 62/62/62
f 62/62/62 70/70/70 69/69/69
f 71/71/71 66/66/66 63/63/63
f 63/63/63 69/69/69 71/71/71
f 72/72/72 73/73/73 74/74/74
f 74/74/74 73/73/73 75/75/75
f 70/70/70 72/72/72 74/74/74
f 74/74/74 69/69/69 70/70/70
f 75/75/75 71/71/71 69/69/69
f 69/69/69 74/74/74 75/75/75
s 6
f 76/76/76 77/77/77 78/78/78
f 76/76/76 78/78/78 79/79/79
f 76/76/76 79/79/79 80/80/80
f 76/76/76 80/80/80 81/81/81
f 76/82/76 81/83/81 82/84/82
f 76/82/76 82/84/82 83/85/83
f 76/82/76 83/85/83 84/86/84
f 76/82/76 84/86/84 77/87/77
f 85/88/85 86/89/86 87/90/87
f 87/90/87 88/91/88 85/88/85
f 89/92/89 90/93/90 86/89/86
f 86/89/86 85/88/85 89/92/89
f 91/94/91 92/95/92 90/93/90
f 90/93/90 89/92/89 91/94/91
f 92/96/92 93/97/93 94/98/94
f 95/99/95 96/100/96 94/98/94
f 94/98/94 93/97/93 95/99/95
f 97/101/97 98/102/98 96/100/96
f 96/100/96 95/99/95 97/101/97
f 99/103/99 100/104/100 98/102/98
f 98/102/98 97/101/97 99/103/99
f 88/105/88 87/106/87 100/104/100
f 100/104/100 99/103/99 88/105/88
f 88/91/88 101/107/101 85/88/85
f 102/108/102 89/92/89 85/88/85
f 85/88/85 101/107/101 102/108/102
f 103/109/103 91/94/91 89/92/89
f 89/92/89 102/108/102 103/109/103
f 104/110/104 93/111/93 91/94/91
f 91/94/91 103/109/103 104/110/104
f 105/112/105 95/99/95 93/97/93
f 93/97/93 104/113/104 105/112/105
f 106/114/106 97/101/97 95/99/95
f 95/99/95 105/112/105 106/114/106
f 107/115/107 99/103/99 97/101/97
f 97/101/97 106/114/106 107/115/107
f 99/103/99 107/115/107 88/105/88
f 108/116/108 101/117/101 109/118/109
f 108/116/108 102/119/102 101/117/101
f 108/116/108 103/120/103 102/119/102
f 108/116/108 104/121/104 103/120/103
f 108/116/108 105/122/105 104/121/104
f 108/116/108 106/123/106 105/122/105
f 108/116/108 107/124/107 106/123/106
f 108/116/108 109/118/109 107/124/107
f 88/125/88 109/118/109 101/117/101
f 107/124/107 109/118/109 88/125/88
f 86/126/86 78/78/78 77/77/77
f 77/77/77 87/127/87 86/126/86
f 100/128/100 87/129/87 77/87/77
f 77/87/77 84/86/84 100/128/100
f 92/95/92 91/94/91 93/111/93
f 92/130/92 80/80/80 79/79/79
f 79/79/79 90/131/90 92/130/92
f 94/132/94 81/81/81 80/80/80
f 80/80/80 92/130/92 94/132/94
f 96/133/96 82/84/82 81/83/81
f 81/83/81 94/134/94 96/133/96
f 98/135/98 83/85/83 82/84/82
f 82/84/82 96/133/96 98/135/98
f 78/78/78 86/126/86 90/131/90
f 90/131/90 79/79/79 78/78/78
f 98/135/98 100/128/100 84/86/84
f 84/86/84 83/85/83 98/135/98
s 7
f 110/136/110 111/137/111 112/138/112
f 112/138/112 113/139/113 110/136/110
f 113/139/113 112/138/112 114/140/114
f 114/140/114 115/141/115 113/139/113
f 116/142/116 112/138/112 111/137/111
f 116/142/116 114/140/114 112/138/112
f 117/143/117 118/144/118 110/136/110
f 110/136/110 113/139/113 117/143/117
f 119/145/119 117/143/117 113/139/113
f 113/139/113 115/141/115 119/145/119
f 120/146/120 121/147/121 122/148/122
f 121/147/121 123/149/123 122/148/122
f 118/144/118 117/143/117 121/147/121
f 121/147/121 120/146/120 118/144/118
f 123/149/123 121/147/121 117/143/117
f 117/143/117 119/145/119 123/149/123
s 8
f 124/150/124 125/151/125 126/152/126
f 126/152/126 127/153/127 124/150/124
f 125/151/125 128/154/128 129/155/129
f 129/155/129 126/152/126 125/151/125
f 130/156/130 127/153/127 126/152/126
f 130/156/130 126/152/126 129/155/129
f 131/157/131 125/151/125 124/150/124
f 124/150/124 132/158/132 131/157/131
f 133/159/133 128/154/128 125/151/125
f 125/151/125 131/157/131 133/159/133
f 134/160/134 135/161/135 136/162/136
f 136/162/136 135/161/135 137/163/137
f 132/158/132 134/160/134 136/162/136
f 136/162/136 131/157/131 132/158/132
f 137/163/137 133/159/133 131/157/131
f 131/157/131 136/162/136 137/163/137
