# Blender v3.3.0 OBJ File: ''
# www.blender.org
o CornStage03.005
v 0.007026 -0.022298 -0.012169
v 0.018070 0.216789 -0.012697
v 0.026174 0.219845 -0.001475
v 0.014051 -0.022298 -0.000000
v -0.007026 -0.022298 -0.012169
v 0.004128 0.215588 -0.011222
v -0.014051 -0.022298 -0.000000
v -0.001709 0.217442 0.001476
v -0.007026 -0.022298 0.012169
v 0.006395 0.220498 0.012697
v 0.007026 -0.022298 0.012169
v 0.020337 0.221700 0.011222
v -0.006038 0.632243 -0.008103
v 0.002364 0.733260 -0.002233
v 0.004105 0.732503 0.002129
v -0.002558 0.630730 0.000622
v -0.015290 0.634274 -0.009332
v -0.002262 0.734275 -0.002848
v -0.021061 0.634792 -0.001834
v -0.005147 0.734534 0.000901
v -0.017581 0.633280 0.006891
v -0.003407 0.733778 0.005264
v -0.008329 0.631248 0.008120
v 0.001219 0.732762 0.005878
v 0.025049 0.357987 0.051411
v 0.011744 0.326582 0.040142
v 0.048055 0.318575 0.011298
v 0.066399 0.348869 0.018564
v 0.043438 0.325704 -0.035035
v 0.061142 0.356987 -0.034200
v 0.001503 0.303873 -0.008101
v 0.105078 0.405256 0.036099
v 0.080376 0.418624 0.068806
v 0.111892 0.418143 -0.004363
v 0.131449 0.413043 0.069620
v 0.132001 0.406012 0.047799
v 0.146390 0.383680 0.054613
v 0.147699 0.412861 0.032570
v 0.025049 0.359045 0.051411
v 0.066399 0.349927 0.018564
v 0.048055 0.319634 0.011298
v 0.011744 0.327640 0.040142
v 0.061142 0.358046 -0.034200
v 0.043438 0.326763 -0.035035
v 0.001503 0.304932 -0.008101
v 0.105078 0.406315 0.036099
v 0.080376 0.419683 0.068806
v 0.111892 0.419202 -0.004363
v 0.131449 0.414102 0.069620
v 0.146390 0.384738 0.054613
v 0.132001 0.407071 0.047799
v 0.147699 0.413920 0.032570
v -0.067170 0.230913 -0.015945
v -0.045200 0.188873 -0.023827
v -0.036066 0.178155 0.037574
v -0.056767 0.218707 0.053977
v 0.020738 0.187698 0.063233
v 0.007921 0.229575 0.083198
v 0.017581 0.158475 -0.003409
v -0.102983 0.294189 0.087080
v -0.124367 0.312084 0.036552
v -0.060637 0.311440 0.122062
v -0.159494 0.304613 0.095215
v -0.134567 0.295201 0.110461
v -0.152097 0.265306 0.122580
v -0.127419 0.304369 0.138852
v -0.067170 0.232330 -0.015945
v -0.056767 0.220124 0.053977
v -0.036066 0.179572 0.037574
v -0.045200 0.190290 -0.023827
v 0.007921 0.230992 0.083198
v 0.020738 0.189115 0.063233
v 0.017581 0.159892 -0.003409
v -0.102983 0.295606 0.087080
v -0.124367 0.313501 0.036552
v -0.060637 0.312857 0.122062
v -0.159494 0.306030 0.095215
v -0.152097 0.266723 0.122580
v -0.134567 0.296618 0.110461
v -0.127419 0.305786 0.138852
v -0.026944 0.488372 -0.062086
v -0.013639 0.456967 -0.050817
v -0.049950 0.448960 -0.021973
v -0.068295 0.479254 -0.029238
v -0.045334 0.456089 0.024360
v -0.063037 0.487372 0.023525
v -0.003398 0.434258 -0.002574
v -0.106973 0.535641 -0.046774
v -0.082271 0.549009 -0.079481
v -0.113787 0.548528 -0.006311
v -0.133344 0.543428 -0.080295
v -0.133897 0.536397 -0.058474
v -0.148285 0.514065 -0.065288
v -0.149594 0.543246 -0.043245
v -0.026944 0.489430 -0.062086
v -0.068295 0.480312 -0.029238
v -0.049950 0.450018 -0.021973
v -0.013639 0.458025 -0.050817
v -0.063037 0.488430 0.023525
v -0.045334 0.457147 0.024360
v -0.003398 0.435316 -0.002574
v -0.106973 0.536700 -0.046774
v -0.082271 0.550068 -0.079481
v -0.113787 0.549587 -0.006311
v -0.133344 0.544487 -0.080295
v -0.148285 0.515123 -0.065288
v -0.133897 0.537455 -0.058474
v -0.149594 0.544305 -0.043245
v 0.058737 0.576151 0.008235
v 0.042325 0.544746 0.014124
v 0.035502 0.536739 -0.031745
v 0.050966 0.567033 -0.043999
v -0.006933 0.543868 -0.050913
v 0.002642 0.575151 -0.065827
v -0.004575 0.522037 -0.001129
v 0.085491 0.623421 -0.068728
v 0.101465 0.636789 -0.030981
v 0.053857 0.636307 -0.094860
v 0.127706 0.631208 -0.074805
v 0.109085 0.624176 -0.086194
v 0.122180 0.601844 -0.095248
v 0.103745 0.631026 -0.107403
v 0.058737 0.577210 0.008235
v 0.050966 0.568092 -0.043999
v 0.035502 0.537798 -0.031745
v 0.042325 0.545805 0.014124
v 0.002642 0.576210 -0.065827
v -0.006933 0.544927 -0.050913
v -0.004575 0.523096 -0.001129
v 0.085491 0.624479 -0.068728
v 0.101465 0.637847 -0.030981
v 0.053857 0.637366 -0.094860
v 0.127706 0.632266 -0.074805
v 0.122180 0.602902 -0.095248
v 0.109085 0.625235 -0.086194
v 0.103745 0.632084 -0.107403
v 0.090290 0.148881 -0.004051
v 0.070023 0.106841 0.007527
v 0.050365 0.096123 -0.051355
v 0.067903 0.136675 -0.071104
v -0.010031 0.105666 -0.066761
v -0.000876 0.147542 -0.088648
v 0.004650 0.076443 -0.001678
v 0.107669 0.212157 -0.111729
v 0.137502 0.230052 -0.065682
v 0.059891 0.229407 -0.138826
v 0.161908 0.222581 -0.129553
v 0.134713 0.213168 -0.140239
v 0.149872 0.183274 -0.155218
v 0.122743 0.222337 -0.166958
v 0.090289 0.150298 -0.004051
v 0.067903 0.138092 -0.071104
v 0.050365 0.097540 -0.051355
v 0.070023 0.108258 0.007527
v -0.000876 0.148959 -0.088647
v -0.010031 0.107083 -0.066761
v 0.004650 0.077860 -0.001678
v 0.107669 0.213574 -0.111729
v 0.137502 0.231468 -0.065682
v 0.059891 0.230824 -0.138826
v 0.161908 0.223998 -0.129553
v 0.149872 0.184691 -0.155218
v 0.134713 0.214585 -0.140239
v 0.122743 0.223754 -0.166958
v -0.059081 0.680818 0.018283
v -0.049863 0.655129 0.007399
v -0.026270 0.648580 0.037101
v -0.032213 0.673359 0.052107
v 0.011630 0.654411 0.033325
v 0.010947 0.680000 0.047806
v -0.010402 0.636554 -0.000978
v -0.046556 0.719483 0.083745
v -0.073310 0.730418 0.063539
v -0.013459 0.730024 0.089319
v -0.073976 0.725853 0.105315
v -0.056126 0.720101 0.105768
v -0.061700 0.701834 0.117537
v -0.043669 0.725704 0.118608
v -0.059081 0.681684 0.018283
v -0.032213 0.674225 0.052107
v -0.026270 0.649446 0.037101
v -0.049863 0.655995 0.007399
v 0.010947 0.680866 0.047806
v 0.011630 0.655277 0.033325
v -0.010402 0.637420 -0.000978
v -0.046556 0.720349 0.083745
v -0.073310 0.731284 0.063539
v -0.013459 0.730890 0.089319
v -0.073976 0.726719 0.105315
v -0.061700 0.702700 0.117537
v -0.056126 0.720967 0.105768
v -0.043669 0.726570 0.118608
v -0.095029 0.557087 -0.035433
v -0.091160 0.555690 -0.041022
v -0.093185 0.545816 -0.038593
v -0.090732 0.536913 -0.030368
v -0.089042 0.536041 -0.024547
v -0.085837 0.539098 -0.019035
v -0.080776 0.543730 -0.020746
v -0.079042 0.547787 -0.024992
v -0.083465 0.554857 -0.034123
v -0.068055 0.510238 -0.044798
v -0.091332 0.541369 -0.043828
v -0.087053 0.553728 -0.045984
v -0.062003 0.527717 -0.047847
v -0.062528 0.486771 -0.028178
v -0.087425 0.524774 -0.032076
v -0.048661 0.471060 -0.007724
v -0.077619 0.513666 -0.017612
v -0.034577 0.472310 0.004584
v -0.067660 0.514550 -0.008909
v -0.028525 0.489789 0.001535
v -0.063381 0.526909 -0.011065
v -0.034052 0.513257 -0.015085
v -0.067289 0.543503 -0.022817
v -0.047919 0.528967 -0.035540
v -0.077094 0.554612 -0.037281
v -0.033199 0.473119 -0.032198
v -0.029291 0.456524 -0.020446
v -0.019485 0.445415 -0.005982
v -0.009526 0.446299 0.002720
v -0.005247 0.458659 0.000564
v -0.009155 0.475253 -0.011188
v -0.018961 0.486362 -0.025651
v -0.007183 0.451754 -0.013408
v -0.028920 0.485478 -0.034354
v -0.107889 0.577315 -0.037099
v -0.107599 0.566494 -0.033820
v -0.089413 0.564344 -0.036310
v -0.094793 0.573110 -0.039361
v -0.095633 0.566596 -0.054019
v -0.098956 0.577391 -0.052177
v -0.112553 0.565187 -0.050870
v -0.113564 0.582608 -0.050828
v -0.087418 0.553023 -0.035493
v -0.100402 0.558205 -0.032115
v -0.090079 0.551228 -0.034312
v -0.087553 0.551250 -0.038576
v -0.090601 0.558290 -0.048658
v -0.089747 0.550232 -0.037070
v -0.102339 0.552730 -0.044913
v -0.093522 0.579056 -0.038328
v -0.103540 0.585470 -0.037225
v -0.097356 0.585523 -0.047664
v -0.106571 0.592675 -0.046026
v -0.086828 0.578740 -0.028049
v -0.096028 0.585797 -0.033263
v -0.085790 0.575231 -0.033601
v -0.081593 0.578785 -0.036886
v -0.090524 0.585844 -0.042555
v -0.093103 0.593122 -0.037516
v -0.081454 0.581587 -0.030619
v -0.071028 0.558534 -0.024943
v 0.084525 0.433635 0.033929
v 0.080319 0.431907 0.039171
v 0.083398 0.422247 0.037002
v 0.082453 0.413164 0.028663
v 0.081359 0.412148 0.022724
v 0.078394 0.414914 0.016932
v 0.072820 0.419087 0.018162
v 0.070376 0.422977 0.022211
v 0.073356 0.430406 0.031637
v 0.061007 0.384614 0.041272
v 0.081489 0.417655 0.042090
v 0.075982 0.429594 0.043773
v 0.053218 0.401499 0.043652
v 0.059008 0.360754 0.024414
v 0.080076 0.400783 0.030170
v 0.048393 0.343895 0.002953
v 0.072571 0.388862 0.014994
v 0.035380 0.343913 -0.010541
v 0.063369 0.388875 0.005453
v 0.027591 0.360797 -0.008161
v 0.057861 0.400814 0.007135
v 0.029590 0.384658 0.008697
v 0.059274 0.417686 0.019056
v 0.040205 0.401517 0.030158
v 0.066780 0.429607 0.034231
v 0.030737 0.344598 0.025976
v 0.029324 0.327726 0.014055
v 0.021818 0.315805 -0.001120
v 0.012616 0.315818 -0.010661
v 0.007109 0.327757 -0.008979
v 0.008522 0.344629 0.002941
v 0.016028 0.356550 0.018117
v 0.008411 0.321047 0.005161
v 0.025229 0.356537 0.027658
v 0.095386 0.454907 0.036551
v 0.096324 0.444102 0.033342
v 0.078245 0.440375 0.034260
v 0.082557 0.449577 0.037700
v 0.082679 0.443161 0.052424
v 0.085200 0.454205 0.050796
v 0.099868 0.443232 0.050767
v 0.099361 0.460675 0.050681
v 0.077319 0.428924 0.033358
v 0.090049 0.435218 0.031082
v 0.080219 0.427368 0.032427
v 0.077339 0.427169 0.036455
v 0.078873 0.434448 0.046710
v 0.079736 0.426347 0.035154
v 0.091331 0.429933 0.044041
v 0.080870 0.455390 0.036515
v 0.090351 0.462652 0.036238
v 0.083299 0.462166 0.046100
v 0.091966 0.470094 0.045214
v 0.075150 0.454492 0.025696
v 0.083213 0.462324 0.031636
v 0.073941 0.450905 0.031164
v 0.069180 0.454080 0.034045
v 0.076936 0.461891 0.040415
v 0.079303 0.469366 0.035563
v 0.069345 0.456859 0.027769
v 0.061495 0.432985 0.021384
v -0.067866 0.286178 0.065652
v -0.070783 0.284823 0.059503
v -0.069758 0.274931 0.062437
v -0.061468 0.265966 0.064390
v -0.055587 0.265049 0.065832
v -0.049191 0.268063 0.065822
v -0.048113 0.272705 0.060598
v -0.050897 0.276794 0.056989
v -0.060968 0.283935 0.056282
v -0.062815 0.239394 0.037443
v -0.073397 0.270524 0.058200
v -0.073042 0.282897 0.053460
v -0.062314 0.256893 0.030739
v -0.045816 0.215798 0.040878
v -0.061377 0.253839 0.060630
v -0.021275 0.199929 0.039033
v -0.044024 0.242617 0.059325
v -0.003568 0.201081 0.032988
v -0.031503 0.243432 0.055050
v -0.003067 0.218580 0.026284
v -0.031149 0.255806 0.050310
v -0.020066 0.242175 0.022848
v -0.043169 0.272490 0.047880
v -0.044607 0.258045 0.024694
v -0.060522 0.283712 0.049185
v -0.034734 0.202168 0.013417
v -0.022714 0.185483 0.015846
v -0.005361 0.174262 0.014542
v 0.007160 0.175076 0.010267
v 0.007514 0.187450 0.005526
v -0.004506 0.204135 0.003097
v -0.021859 0.215356 0.004402
v -0.005602 0.180652 0.000197
v -0.034380 0.214542 0.008677
v -0.075599 0.306423 0.076030
v -0.072688 0.295577 0.077379
v -0.065771 0.293440 0.060375
v -0.071043 0.302231 0.063541
v -0.084203 0.295829 0.056921
v -0.084195 0.306611 0.060758
v -0.089940 0.294401 0.073146
v -0.090291 0.311822 0.074104
v -0.064142 0.282113 0.059015
v -0.067670 0.287274 0.071968
v -0.064462 0.280310 0.061904
v -0.066893 0.280363 0.057586
v -0.077101 0.287480 0.055212
v -0.066692 0.279335 0.060235
v -0.079760 0.281897 0.067231
v -0.069473 0.308169 0.062977
v -0.073481 0.314577 0.072229
v -0.079432 0.314707 0.061655
v -0.082570 0.321850 0.070481
v -0.057227 0.307773 0.062315
v -0.066293 0.314872 0.067703
v -0.061541 0.304305 0.058629
v -0.062265 0.307883 0.053364
v -0.071590 0.314988 0.058292
v -0.068465 0.322228 0.063069
v -0.056748 0.310637 0.056385
v -0.046777 0.287538 0.050110
v 0.005095 0.875328 0.005893
v 0.002422 0.735775 0.000696
v 0.001073 0.736013 0.005807
v -0.003960 0.736900 0.004437
v -0.002611 0.736662 -0.000674
v 0.014736 0.824401 -0.003798
v 0.021003 0.821204 -0.001940
v 0.013366 0.826733 0.002956
v 0.019633 0.823537 0.004814
v 0.041759 0.865691 -0.009281
v 0.036030 0.870820 -0.011251
v 0.058473 0.894739 -0.015872
v 0.035198 0.875086 -0.004609
v 0.040927 0.869957 -0.002639
v 0.001413 0.728600 -0.000006
v -0.000078 0.729990 0.003659
v -0.002869 0.732366 0.001622
v -0.001379 0.730976 -0.002043
v 0.049471 0.782130 -0.005298
v 0.052746 0.776641 -0.001822
v 0.048378 0.785967 0.000786
v 0.051653 0.780478 0.004262
v 0.094458 0.803087 -0.006772
v 0.092655 0.809940 -0.010348
v 0.124650 0.818487 -0.011001
v 0.093034 0.815141 -0.004364
v 0.094837 0.808288 -0.000788
v -0.002651 0.724315 0.000797
v 0.000595 0.724745 -0.000224
v 0.000264 0.725681 0.002955
v -0.001814 0.725429 0.003931
v -0.024596 0.788286 -0.014247
v -0.025813 0.784095 -0.020069
v -0.018440 0.791076 -0.016942
v -0.019658 0.786885 -0.022764
v -0.048198 0.823865 -0.039590
v -0.047592 0.829856 -0.034419
v -0.065956 0.849202 -0.054055
v -0.042047 0.834446 -0.037764
v -0.042653 0.828455 -0.042935
v -0.003788 0.739418 0.001504
v -0.000273 0.740698 -0.002237
v 0.003243 0.741977 0.001504
v -0.000273 0.740698 0.005246
v -0.031019 0.825267 0.007240
v -0.034916 0.821658 0.002268
v -0.027122 0.828877 0.002268
v -0.031019 0.825267 -0.002704
v -0.064930 0.861191 0.002268
v -0.061927 0.866601 0.007240
v -0.088093 0.886292 0.002268
v -0.058923 0.872011 0.002268
v -0.061927 0.866601 -0.002704
v -0.001469 0.726450 0.004206
v -0.003865 0.727962 0.001113
v -0.000425 0.728875 -0.001105
v 0.001971 0.727363 0.001987
v 0.003877 0.788602 0.040833
v -0.001939 0.785234 0.043619
v -0.000090 0.792974 0.036580
v -0.005907 0.789606 0.039367
v -0.003095 0.822236 0.076684
v 0.002742 0.827323 0.074937
v -0.004467 0.845425 0.101724
v -0.001205 0.833415 0.071724
v -0.007042 0.828327 0.073471
v -0.001073 0.727216 -0.001032
v 0.002368 0.727405 0.001358
v -0.000016 0.728109 0.004735
v -0.003457 0.727920 0.002345
v -0.003110 0.796833 -0.012822
v 0.000779 0.793637 -0.018075
v 0.002768 0.799166 -0.009224
v 0.006657 0.795970 -0.014478
v 0.000979 0.838123 -0.040090
v -0.002831 0.843252 -0.035381
v 0.000502 0.867172 -0.058050
v 0.003125 0.847518 -0.032327
v 0.006936 0.842389 -0.037036
vt 0.004300 0.079400
vt 0.448900 0.079400
vt 0.448900 0.100200
vt 0.004300 0.100200
vt 0.004300 0.100200
vt 0.448900 0.100200
vt 0.004300 0.125000
vt 0.448900 0.125000
vt 0.004300 0.145200
vt 0.448900 0.145200
vt 0.004300 0.125000
vt 0.448900 0.125000
vt 0.900900 0.079400
vt 0.945400 0.096500
vt 0.945400 0.106900
vt 0.900900 0.100200
vt 0.900900 0.100200
vt 0.945400 0.106900
vt 0.900900 0.125000
vt 0.945400 0.119300
vt 0.900900 0.145200
vt 0.945400 0.129400
vt 0.900900 0.125000
vt 0.945400 0.119300
vt 0.789500 0.512400
vt 0.790100 0.570900
vt 0.864700 0.570000
vt 0.871600 0.504400
vt 0.923400 0.607100
vt 0.956300 0.535600
vt 0.832200 0.652100
vt 0.870500 0.361800
vt 0.789900 0.378600
vt 0.957300 0.366300
vt 0.808700 0.304100
vt 0.856100 0.301700
vt 0.837300 0.250200
vt 0.899300 0.286900
vt 0.789500 0.512400
vt 0.871600 0.504400
vt 0.864700 0.570000
vt 0.790100 0.570900
vt 0.956300 0.535600
vt 0.923400 0.607100
vt 0.832200 0.652100
vt 0.870500 0.361800
vt 0.789900 0.378600
vt 0.957300 0.366300
vt 0.808700 0.304100
vt 0.837300 0.250200
vt 0.856100 0.301700
vt 0.899300 0.286900
vt 0.789500 0.512400
vt 0.790100 0.570900
vt 0.864700 0.570000
vt 0.871600 0.504400
vt 0.923400 0.607100
vt 0.956300 0.535600
vt 0.832200 0.652100
vt 0.870500 0.361800
vt 0.789900 0.378600
vt 0.957300 0.366300
vt 0.808700 0.304100
vt 0.856100 0.301700
vt 0.837300 0.250200
vt 0.899300 0.286900
vt 0.789500 0.512400
vt 0.871600 0.504400
vt 0.864700 0.570000
vt 0.790100 0.570900
vt 0.956300 0.535600
vt 0.923400 0.607100
vt 0.832200 0.652100
vt 0.870500 0.361800
vt 0.789900 0.378600
vt 0.957300 0.366300
vt 0.808700 0.304100
vt 0.837300 0.250200
vt 0.856100 0.301700
vt 0.899300 0.286900
vt 0.789500 0.512400
vt 0.790100 0.570900
vt 0.864700 0.570000
vt 0.871600 0.504400
vt 0.923400 0.607100
vt 0.956300 0.535600
vt 0.832200 0.652100
vt 0.870500 0.361800
vt 0.789900 0.378600
vt 0.957300 0.366300
vt 0.808700 0.304100
vt 0.856100 0.301700
vt 0.837300 0.250200
vt 0.899300 0.286900
vt 0.789500 0.512400
vt 0.871600 0.504400
vt 0.864700 0.570000
vt 0.790100 0.570900
vt 0.956300 0.535600
vt 0.923400 0.607100
vt 0.832200 0.652100
vt 0.870500 0.361800
vt 0.789900 0.378600
vt 0.957300 0.366300
vt 0.808700 0.304100
vt 0.837300 0.250200
vt 0.856100 0.301700
vt 0.899300 0.286900
vt 0.789500 0.512400
vt 0.790100 0.570900
vt 0.864700 0.570000
vt 0.871600 0.504400
vt 0.923400 0.607100
vt 0.956300 0.535600
vt 0.832200 0.652100
vt 0.870500 0.361800
vt 0.789900 0.378600
vt 0.957300 0.366300
vt 0.808700 0.304100
vt 0.856100 0.301700
vt 0.837300 0.250200
vt 0.899300 0.286900
vt 0.789500 0.512400
vt 0.871600 0.504400
vt 0.864700 0.570000
vt 0.790100 0.570900
vt 0.956300 0.535600
vt 0.923400 0.607100
vt 0.832200 0.652100
vt 0.870500 0.361800
vt 0.789900 0.378600
vt 0.957300 0.366300
vt 0.808700 0.304100
vt 0.837300 0.250200
vt 0.856100 0.301700
vt 0.899300 0.286900
vt 0.789500 0.512400
vt 0.790100 0.570900
vt 0.864700 0.570000
vt 0.871600 0.504400
vt 0.923400 0.607100
vt 0.956300 0.535600
vt 0.832200 0.652100
vt 0.870500 0.361800
vt 0.789900 0.378600
vt 0.957300 0.366300
vt 0.808700 0.304100
vt 0.856100 0.301700
vt 0.837300 0.250200
vt 0.899300 0.286900
vt 0.789500 0.512400
vt 0.871600 0.504400
vt 0.864700 0.570000
vt 0.790100 0.570900
vt 0.956300 0.535600
vt 0.923400 0.607100
vt 0.832200 0.652100
vt 0.870500 0.361800
vt 0.789900 0.378600
vt 0.957300 0.366300
vt 0.808700 0.304100
vt 0.837300 0.250200
vt 0.856100 0.301700
vt 0.899300 0.286900
vt 0.789500 0.512400
vt 0.790100 0.570900
vt 0.864700 0.570000
vt 0.871600 0.504400
vt 0.923400 0.607100
vt 0.956300 0.535600
vt 0.832200 0.652100
vt 0.870500 0.361800
vt 0.789900 0.378600
vt 0.957300 0.366300
vt 0.808700 0.304100
vt 0.856100 0.301700
vt 0.837300 0.250200
vt 0.899300 0.286900
vt 0.789500 0.512400
vt 0.871600 0.504400
vt 0.864700 0.570000
vt 0.790100 0.570900
vt 0.956300 0.535600
vt 0.923400 0.607100
vt 0.832200 0.652100
vt 0.870500 0.361800
vt 0.789900 0.378600
vt 0.957300 0.366300
vt 0.808700 0.304100
vt 0.837300 0.250200
vt 0.856100 0.301700
vt 0.899300 0.286900
vt 0.826600 0.360500
vt 0.811400 0.403600
vt 0.771000 0.369100
vt 0.768600 0.321100
vt 0.790300 0.293800
vt 0.832500 0.274000
vt 0.868300 0.370500
vt 0.870700 0.276800
vt 0.914200 0.302300
vt 0.934800 0.333900
vt 0.927400 0.385400
vt 0.880300 0.418400
vt 0.847200 0.631400
vt 0.982500 0.622300
vt 0.977800 0.678400
vt 0.848300 0.762700
vt 0.846400 0.508500
vt 0.982300 0.507600
vt 0.845800 0.385500
vt 0.981100 0.257600
vt 0.747100 0.218800
vt 0.854400 0.300800
vt 0.728000 0.324300
vt 0.852100 0.429800
vt 0.718500 0.433700
vt 0.849400 0.550700
vt 0.721900 0.549900
vt 0.843300 0.672300
vt 0.739100 0.690700
vt 0.928900 0.804600
vt 0.798800 0.801300
vt 0.735500 0.665300
vt 0.724600 0.512700
vt 0.719600 0.397800
vt 0.728500 0.256700
vt 0.893600 0.243400
vt 0.991600 0.440000
vt 0.983200 0.304800
vt 0.983600 0.553300
vt 0.980900 0.666300
vt 0.842800 0.290800
vt 0.944400 0.310700
vt 0.900600 0.369500
vt 0.926700 0.233000
vt 0.859600 0.190500
vt 0.782500 0.208900
vt 0.742000 0.277000
vt 0.762500 0.353700
vt 0.831400 0.393800
vt 0.960100 0.450500
vt 0.737400 0.397500
vt 0.796800 0.443500
vt 0.960600 0.419300
vt 0.892000 0.462900
vt 0.748600 0.255000
vt 0.718500 0.324400
vt 0.812500 0.215300
vt 0.963000 0.264800
vt 0.898200 0.215600
vt 0.988400 0.342600
vt 0.116600 0.935300
vt 0.085700 0.935600
vt 0.088700 0.894300
vt 0.121100 0.899400
vt 0.103200 0.976200
vt 0.067700 0.988500
vt 0.076400 0.942200
vt 0.110400 0.932300
vt 0.064700 0.901700
vt 0.109000 0.885900
vt 0.106800 0.974900
vt 0.062400 0.965700
vt 0.056700 0.890500
vt 0.065100 0.916600
vt 0.047400 0.895200
vt 0.030500 0.978400
vt 0.050900 0.958100
vt 0.034100 0.987900
vt 0.026800 0.973200
vt 0.035500 0.931300
vt 0.039900 0.934200
vt 0.041000 0.895900
vt 0.148600 0.913300
vt 0.142800 0.950300
vt 0.143200 0.976100
vt 0.140100 0.934400
vt 0.147200 0.901900
vt 0.144700 0.985500
vt 0.183200 0.920100
vt 0.162000 0.937600
vt 0.176100 0.898900
vt 0.185500 0.965200
vt 0.183900 0.987600
vt 0.160100 0.944200
vt 0.179100 0.912000
vt 0.202300 0.940100
vt 0.178100 0.961300
vt 0.204800 0.935900
vt 0.227400 0.886200
vt 0.243700 0.986200
vt 0.826600 0.360500
vt 0.811400 0.403600
vt 0.771000 0.369100
vt 0.768600 0.321100
vt 0.790300 0.293800
vt 0.832500 0.274000
vt 0.868300 0.370500
vt 0.870700 0.276800
vt 0.914200 0.302300
vt 0.934800 0.333900
vt 0.927400 0.385400
vt 0.880300 0.418400
vt 0.847200 0.631400
vt 0.982500 0.622300
vt 0.977800 0.678400
vt 0.848300 0.762700
vt 0.846400 0.508500
vt 0.982300 0.507600
vt 0.845800 0.385500
vt 0.981100 0.257600
vt 0.747100 0.218800
vt 0.854400 0.300800
vt 0.728000 0.324300
vt 0.852100 0.429800
vt 0.718500 0.433700
vt 0.849400 0.550700
vt 0.721900 0.549900
vt 0.843300 0.672300
vt 0.739100 0.690700
vt 0.928900 0.804600
vt 0.798800 0.801300
vt 0.735500 0.665300
vt 0.724600 0.512700
vt 0.719600 0.397800
vt 0.728500 0.256700
vt 0.893600 0.243400
vt 0.991600 0.440000
vt 0.983200 0.304800
vt 0.983600 0.553300
vt 0.980900 0.666300
vt 0.842800 0.290800
vt 0.944400 0.310700
vt 0.900600 0.369500
vt 0.926700 0.233000
vt 0.859600 0.190500
vt 0.782500 0.208900
vt 0.742000 0.277000
vt 0.762500 0.353700
vt 0.831400 0.393800
vt 0.960100 0.450500
vt 0.737400 0.397500
vt 0.796800 0.443500
vt 0.960600 0.419300
vt 0.892000 0.462900
vt 0.748600 0.255000
vt 0.718500 0.324400
vt 0.812500 0.215300
vt 0.963000 0.264800
vt 0.898200 0.215600
vt 0.988400 0.342600
vt 0.116600 0.935300
vt 0.085700 0.935600
vt 0.088700 0.894300
vt 0.121100 0.899400
vt 0.103200 0.976200
vt 0.067700 0.988500
vt 0.076400 0.942200
vt 0.110400 0.932300
vt 0.064700 0.901700
vt 0.109000 0.885900
vt 0.106800 0.974900
vt 0.062400 0.965700
vt 0.056700 0.890500
vt 0.065100 0.916600
vt 0.047400 0.895200
vt 0.030500 0.978400
vt 0.050900 0.958100
vt 0.034100 0.987900
vt 0.026800 0.973200
vt 0.035500 0.931300
vt 0.039900 0.934200
vt 0.041000 0.895900
vt 0.148600 0.913300
vt 0.142800 0.950300
vt 0.143200 0.976100
vt 0.140100 0.934400
vt 0.147200 0.901900
vt 0.144700 0.985500
vt 0.183200 0.920100
vt 0.162000 0.937600
vt 0.176100 0.898900
vt 0.185500 0.965200
vt 0.183900 0.987600
vt 0.160100 0.944200
vt 0.179100 0.912000
vt 0.202300 0.940100
vt 0.178100 0.961300
vt 0.204800 0.935900
vt 0.227400 0.886200
vt 0.243700 0.986200
vt 0.826600 0.360500
vt 0.811400 0.403600
vt 0.771000 0.369100
vt 0.768600 0.321100
vt 0.790300 0.293800
vt 0.832500 0.274000
vt 0.868300 0.370500
vt 0.870700 0.276800
vt 0.914200 0.302300
vt 0.934800 0.333900
vt 0.927400 0.385400
vt 0.880300 0.418400
vt 0.847200 0.631400
vt 0.982500 0.622300
vt 0.977800 0.678400
vt 0.848300 0.762700
vt 0.846400 0.508500
vt 0.982300 0.507600
vt 0.845800 0.385500
vt 0.981100 0.257600
vt 0.747100 0.218800
vt 0.854400 0.300800
vt 0.728000 0.324300
vt 0.852100 0.429800
vt 0.718500 0.433700
vt 0.849400 0.550700
vt 0.721900 0.549900
vt 0.843300 0.672300
vt 0.739100 0.690700
vt 0.928900 0.804600
vt 0.798800 0.801300
vt 0.735500 0.665300
vt 0.724600 0.512700
vt 0.719600 0.397800
vt 0.728500 0.256700
vt 0.893600 0.243400
vt 0.991600 0.440000
vt 0.983200 0.304800
vt 0.983600 0.553300
vt 0.980900 0.666300
vt 0.842800 0.290800
vt 0.944400 0.310700
vt 0.900600 0.369500
vt 0.926700 0.233000
vt 0.859600 0.190500
vt 0.782500 0.208900
vt 0.742000 0.277000
vt 0.762500 0.353700
vt 0.831400 0.393800
vt 0.960100 0.450500
vt 0.737400 0.397500
vt 0.796800 0.443500
vt 0.960600 0.419300
vt 0.892000 0.462900
vt 0.748600 0.255000
vt 0.718500 0.324400
vt 0.812500 0.215300
vt 0.963000 0.264800
vt 0.898200 0.215600
vt 0.988400 0.342600
vt 0.116600 0.935300
vt 0.085700 0.935600
vt 0.088700 0.894300
vt 0.121100 0.899400
vt 0.103200 0.976200
vt 0.067700 0.988500
vt 0.076400 0.942200
vt 0.110400 0.932300
vt 0.064700 0.901700
vt 0.109000 0.885900
vt 0.106800 0.974900
vt 0.062400 0.965700
vt 0.056700 0.890500
vt 0.065100 0.916600
vt 0.047400 0.895200
vt 0.030500 0.978400
vt 0.050900 0.958100
vt 0.034100 0.987900
vt 0.026800 0.973200
vt 0.035500 0.931300
vt 0.039900 0.934200
vt 0.041000 0.895900
vt 0.148600 0.913300
vt 0.142800 0.950300
vt 0.143200 0.976100
vt 0.140100 0.934400
vt 0.147200 0.901900
vt 0.144700 0.985500
vt 0.183200 0.920100
vt 0.162000 0.937600
vt 0.176100 0.898900
vt 0.185500 0.965200
vt 0.183900 0.987600
vt 0.160100 0.944200
vt 0.179100 0.912000
vt 0.202300 0.940100
vt 0.178100 0.961300
vt 0.204800 0.935900
vt 0.227400 0.886200
vt 0.243700 0.986200
vt 0.549600 0.231600
vt 0.711400 0.242200
vt 0.549600 0.240700
vt 0.549600 0.249500
vt 0.549600 0.258100
vt 0.549600 0.240700
vt 0.549600 0.231600
vt 0.549600 0.249500
vt 0.549600 0.258100
vt 0.560800 0.237100
vt 0.562400 0.244700
vt 0.558600 0.251500
vt 0.552100 0.243100
vt 0.550200 0.244200
vt 0.623600 0.244200
vt 0.623600 0.257100
vt 0.550200 0.257100
vt 0.550200 0.230800
vt 0.623600 0.230800
vt 0.550200 0.244200
vt 0.623600 0.244200
vt 0.623600 0.257100
vt 0.550200 0.257100
vt 0.550200 0.230800
vt 0.623600 0.230800
vt 0.688600 0.257100
vt 0.688600 0.244200
vt 0.711600 0.244200
vt 0.688600 0.230800
vt 0.688600 0.257100
vt 0.688600 0.244200
vt 0.688600 0.230800
vt 0.560800 0.237100
vt 0.562400 0.244700
vt 0.558600 0.251500
vt 0.552100 0.243100
vt 0.550200 0.244200
vt 0.623600 0.244200
vt 0.623600 0.257100
vt 0.550200 0.257100
vt 0.550200 0.230800
vt 0.623600 0.230800
vt 0.550200 0.244200
vt 0.623600 0.244200
vt 0.623600 0.257100
vt 0.550200 0.257100
vt 0.550200 0.230800
vt 0.623600 0.230800
vt 0.688600 0.257100
vt 0.688600 0.244200
vt 0.711600 0.244200
vt 0.688600 0.230800
vt 0.688600 0.257100
vt 0.688600 0.244200
vt 0.688600 0.230800
vt 0.560800 0.237100
vt 0.562400 0.244700
vt 0.558600 0.251500
vt 0.552100 0.243100
vt 0.550200 0.244200
vt 0.623600 0.244200
vt 0.623600 0.257100
vt 0.550200 0.257100
vt 0.550200 0.230800
vt 0.623600 0.230800
vt 0.550200 0.244200
vt 0.623600 0.244200
vt 0.623600 0.257100
vt 0.550200 0.257100
vt 0.550200 0.230800
vt 0.623600 0.230800
vt 0.688600 0.257100
vt 0.688600 0.244200
vt 0.711600 0.244200
vt 0.688600 0.230800
vt 0.688600 0.257100
vt 0.688600 0.244200
vt 0.688600 0.230800
vt 0.560800 0.237100
vt 0.562400 0.244700
vt 0.558600 0.251500
vt 0.552100 0.243100
vt 0.550200 0.244200
vt 0.623600 0.244200
vt 0.623600 0.257100
vt 0.550200 0.257100
vt 0.550200 0.230800
vt 0.623600 0.230800
vt 0.550200 0.244200
vt 0.623600 0.244200
vt 0.623600 0.257100
vt 0.550200 0.257100
vt 0.550200 0.230800
vt 0.623600 0.230800
vt 0.688600 0.257100
vt 0.688600 0.244200
vt 0.711600 0.244200
vt 0.688600 0.230800
vt 0.688600 0.257100
vt 0.688600 0.244200
vt 0.688600 0.230800
vt 0.560800 0.237100
vt 0.562400 0.244700
vt 0.558600 0.251500
vt 0.552100 0.243100
vt 0.550200 0.244200
vt 0.623600 0.244200
vt 0.623600 0.257100
vt 0.550200 0.257100
vt 0.550200 0.230800
vt 0.623600 0.230800
vt 0.550200 0.244200
vt 0.623600 0.244200
vt 0.623600 0.257100
vt 0.550200 0.257100
vt 0.550200 0.230800
vt 0.623600 0.230800
vt 0.688600 0.257100
vt 0.688600 0.244200
vt 0.711600 0.244200
vt 0.688600 0.230800
vt 0.688600 0.257100
vt 0.688600 0.244200
vt 0.688600 0.230800
vt 0.560800 0.237100
vt 0.562400 0.244700
vt 0.558600 0.251500
vt 0.552100 0.243100
vt 0.550200 0.244200
vt 0.623600 0.244200
vt 0.623600 0.257100
vt 0.550200 0.257100
vt 0.550200 0.230800
vt 0.623600 0.230800
vt 0.550200 0.244200
vt 0.623600 0.244200
vt 0.623600 0.257100
vt 0.550200 0.257100
vt 0.550200 0.230800
vt 0.623600 0.230800
vt 0.688600 0.257100
vt 0.688600 0.244200
vt 0.711600 0.244200
vt 0.688600 0.230800
vt 0.688600 0.257100
vt 0.688600 0.244200
vt 0.688600 0.230800
vn 0.4875 -0.0273 -0.8727
vn 0.4220 0.0027 -0.9066
vn 0.9952 0.0105 -0.0970
vn 0.9986 -0.0528 0.0004
vn -0.5120 0.0241 -0.8586
vn -0.5718 0.0060 -0.8204
vn -0.9988 0.0486 -0.0003
vn -0.9951 0.0036 0.0984
vn -0.5117 0.0234 0.8588
vn -0.3931 0.0019 0.9195
vn 0.4878 -0.0267 0.8726
vn 0.5947 0.0119 0.8038
vn 0.5980 0.0189 -0.8013
vn 0.6235 0.0139 -0.7817
vn 0.9903 -0.0403 0.1333
vn 0.9903 0.0080 0.1389
vn -0.3973 0.0490 -0.9164
vn -0.3601 0.0924 -0.9283
vn -0.9889 0.0636 -0.1346
vn -0.9839 0.1169 -0.1351
vn -0.6276 0.0354 0.7777
vn -0.5977 0.0659 0.7990
vn 0.3611 0.0101 0.9325
vn 0.3924 -0.0128 0.9197
vn 0.4752 -0.5147 0.7136
vn 0.3571 -0.6815 0.6387
vn 0.5862 -0.7683 0.2570
vn 0.7391 -0.5888 0.3272
vn 0.7001 -0.6920 -0.1762
vn 0.8333 -0.5279 -0.1642
vn 0.2538 -0.9600 0.1186
vn 0.3833 -0.9047 0.1863
vn 0.2815 -0.7952 0.5371
vn 0.6169 -0.7678 -0.1730
vn -0.4036 -0.8738 0.2713
vn -0.3525 -0.9233 -0.1522
vn -0.7483 -0.5802 -0.3215
vn -0.0721 -0.8794 -0.4705
vn -0.4752 0.5147 -0.7136
vn -0.7391 0.5888 -0.3272
vn -0.5862 0.7683 -0.2570
vn -0.3571 0.6815 -0.6387
vn -0.8333 0.5279 0.1643
vn -0.7000 0.6920 0.1762
vn -0.2538 0.9600 -0.1186
vn -0.3833 0.9046 -0.1863
vn -0.2815 0.7952 -0.5371
vn -0.6169 0.7678 0.1730
vn 0.4036 0.8738 -0.2713
vn 0.7483 0.5802 0.3216
vn 0.3525 0.9233 0.1522
vn 0.0721 0.8794 0.4705
vn -0.8556 -0.5147 0.0547
vn -0.7317 -0.6815 -0.0101
vn -0.5157 -0.7683 0.3792
vn -0.6529 -0.5888 0.4764
vn -0.1974 -0.6920 0.6944
vn -0.2744 -0.5279 0.8038
vn -0.2296 -0.9600 0.1605
vn -0.3530 -0.9046 0.2388
vn -0.6059 -0.7952 -0.0248
vn -0.1586 -0.7678 0.6208
vn -0.0332 -0.8738 -0.4852
vn 0.3081 -0.9233 -0.2292
vn 0.6526 -0.5802 -0.4873
vn 0.4435 -0.8794 0.1728
vn 0.8556 0.5147 -0.0547
vn 0.6529 0.5888 -0.4764
vn 0.5157 0.7683 -0.3792
vn 0.7317 0.6815 0.0101
vn 0.2744 0.5279 -0.8038
vn 0.1974 0.6920 -0.6944
vn 0.2296 0.9600 -0.1605
vn 0.3530 0.9046 -0.2388
vn 0.6059 0.7952 0.0248
vn 0.1586 0.7678 -0.6208
vn 0.0332 0.8738 0.4852
vn -0.6526 0.5802 0.4873
vn -0.3081 0.9233 0.2292
vn -0.4435 0.8794 -0.1728
vn -0.4752 -0.5147 -0.7136
vn -0.3571 -0.6815 -0.6387
vn -0.5862 -0.7683 -0.2570
vn -0.7391 -0.5888 -0.3272
vn -0.7001 -0.6920 0.1762
vn -0.8333 -0.5279 0.1643
vn -0.2538 -0.9600 -0.1186
vn -0.3833 -0.9046 -0.1863
vn -0.2815 -0.7952 -0.5371
vn -0.6169 -0.7678 0.1730
vn 0.4036 -0.8738 -0.2713
vn 0.3525 -0.9233 0.1522
vn 0.7483 -0.5802 0.3216
vn 0.0721 -0.8794 0.4705
vn 0.4752 0.5147 0.7136
vn 0.7391 0.5888 0.3272
vn 0.5862 0.7683 0.2570
vn 0.3571 0.6815 0.6387
vn 0.8333 0.5279 -0.1643
vn 0.7001 0.6920 -0.1762
vn 0.2538 0.9600 0.1186
vn 0.3833 0.9047 0.1863
vn 0.2815 0.7952 0.5371
vn 0.6169 0.7678 -0.1730
vn -0.4036 0.8738 0.2714
vn -0.7483 0.5802 -0.3216
vn -0.3525 0.9233 -0.1523
vn -0.0721 0.8794 -0.4705
vn 0.8556 -0.5147 -0.0547
vn 0.7317 -0.6815 0.0101
vn 0.5157 -0.7683 -0.3792
vn 0.6529 -0.5888 -0.4764
vn 0.1974 -0.6920 -0.6944
vn 0.2744 -0.5279 -0.8038
vn 0.2296 -0.9600 -0.1605
vn 0.3529 -0.9047 -0.2388
vn 0.6059 -0.7952 0.0248
vn 0.1586 -0.7678 -0.6208
vn 0.0332 -0.8738 0.4852
vn -0.3081 -0.9233 0.2292
vn -0.6526 -0.5802 0.4873
vn -0.4435 -0.8794 -0.1728
vn -0.8556 0.5147 0.0547
vn -0.6529 0.5888 0.4764
vn -0.5157 0.7683 0.3792
vn -0.7317 0.6815 -0.0101
vn -0.2744 0.5279 0.8038
vn -0.1974 0.6920 0.6944
vn -0.2296 0.9600 0.1605
vn -0.3530 0.9047 0.2388
vn -0.6059 0.7952 -0.0248
vn -0.1586 0.7678 0.6208
vn -0.0332 0.8738 -0.4852
vn 0.6526 0.5802 -0.4873
vn 0.3081 0.9233 -0.2292
vn 0.4435 0.8794 0.1728
vn 0.8331 -0.5147 -0.2024
vn 0.7224 -0.6815 -0.1171
vn 0.4420 -0.7683 -0.4630
vn 0.5603 -0.5888 -0.5826
vn 0.0738 -0.6920 -0.7181
vn 0.1306 -0.5279 -0.8392
vn 0.1982 -0.9600 -0.1979
vn 0.3061 -0.9047 -0.2965
vn 0.6010 -0.7952 -0.0808
vn 0.0484 -0.7678 -0.6389
vn 0.1170 -0.8738 0.4721
vn -0.2636 -0.9233 0.2792
vn -0.5581 -0.5802 0.5932
vn -0.4668 -0.8794 -0.0932
vn -0.8331 0.5147 0.2024
vn -0.5603 0.5888 0.5826
vn -0.4420 0.7683 0.4630
vn -0.7224 0.6815 0.1171
vn -0.1306 0.5279 0.8392
vn -0.0738 0.6920 0.7181
vn -0.1982 0.9600 0.1979
vn -0.3061 0.9047 0.2965
vn -0.6010 0.7952 0.0808
vn -0.0484 0.7678 0.6389
vn -0.1170 0.8738 -0.4720
vn 0.5581 0.5802 -0.5932
vn 0.2636 0.9233 -0.2792
vn 0.4668 0.8794 0.0932
vn -0.7137 -0.5147 0.4751
vn -0.6387 -0.6815 0.3571
vn -0.2570 -0.7683 0.5862
vn -0.3272 -0.5888 0.7391
vn 0.1762 -0.6920 0.7000
vn 0.1643 -0.5279 0.8333
vn -0.1186 -0.9600 0.2538
vn -0.1863 -0.9046 0.3833
vn -0.5371 -0.7952 0.2815
vn 0.1730 -0.7678 0.6169
vn -0.2713 -0.8738 -0.4036
vn 0.1523 -0.9233 -0.3525
vn 0.3216 -0.5802 -0.7483
vn 0.4705 -0.8794 -0.0721
vn 0.7137 0.5147 -0.4751
vn 0.3272 0.5888 -0.7391
vn 0.2570 0.7683 -0.5862
vn 0.6387 0.6815 -0.3571
vn -0.1643 0.5279 -0.8333
vn -0.1762 0.6920 -0.7000
vn 0.1186 0.9600 -0.2538
vn 0.1863 0.9046 -0.3833
vn 0.5371 0.7952 -0.2815
vn -0.1730 0.7678 -0.6169
vn 0.2713 0.8738 0.4036
vn -0.3216 0.5802 0.7483
vn -0.1523 0.9233 0.3525
vn -0.4705 0.8794 0.0721
vn -0.6989 0.7104 0.0828
vn -0.4523 0.7356 -0.5043
vn -0.9789 -0.1077 -0.1736
vn -0.9574 -0.2419 0.1574
vn -0.8842 -0.2221 0.4109
vn -0.5569 0.1657 0.8139
vn -0.0539 0.5978 0.7998
vn 0.1014 0.7656 0.6353
vn 0.1372 0.9305 0.3396
vn -0.3427 -0.3964 -0.8517
vn -0.7254 -0.1983 -0.6592
vn -0.1344 0.5515 -0.8233
vn 0.2696 0.1780 -0.9464
vn -0.6940 -0.6455 -0.3191
vn -0.8916 -0.4483 -0.0640
vn -0.7196 -0.5918 0.3632
vn -0.7940 -0.3450 0.5005
vn -0.2696 -0.1780 0.9464
vn -0.4214 0.0005 0.9069
vn 0.3427 0.3964 0.8517
vn 0.0856 0.4447 0.8916
vn 0.6940 0.6455 0.3191
vn 0.4168 0.7520 0.5107
vn 0.7196 0.5917 -0.3633
vn 0.4428 0.8883 -0.1220
vn 0.0055 -0.4612 -0.8873
vn -0.3008 -0.7634 -0.5716
vn -0.2820 -0.9591 0.0261
vn 0.3696 -0.6997 0.6114
vn 0.8372 0.0819 0.5407
vn 0.9259 0.3776 -0.0076
vn 0.8063 0.2837 -0.5191
vn 0.6985 -0.4958 -0.5161
vn 0.4455 -0.0367 -0.8945
vn -0.5287 0.2258 0.8182
vn -0.5691 -0.0876 0.8176
vn 0.7860 0.3854 0.4833
vn 0.8395 0.3011 0.4523
vn 0.4652 0.0140 -0.8851
vn 0.4747 0.2226 -0.8515
vn -0.7891 -0.3485 -0.5058
vn -0.7967 0.3583 -0.4867
vn 0.8311 0.1957 0.5206
vn -0.3115 -0.3036 0.9004
vn -0.0691 -0.4801 0.8745
vn 0.6985 -0.4795 -0.5312
vn 0.6796 -0.2807 -0.6777
vn -0.1484 -0.9752 -0.1641
vn -0.4366 -0.8576 -0.2719
vn 0.2704 -0.9513 0.1481
vn -0.4851 0.2699 0.8318
vn 0.5636 0.3462 -0.7500
vn -0.4142 0.8840 -0.2169
vn -0.3754 -0.0705 0.9242
vn -0.4337 0.0706 0.8983
vn -0.4724 -0.8291 -0.2990
vn 0.6439 -0.0132 -0.7650
vn 0.6249 0.1259 -0.7705
vn 0.2422 0.9566 0.1618
vn 0.6595 0.6341 0.4037
vn 0.5179 -0.8027 0.2955
vn 0.6391 0.7686 -0.0272
vn 0.3410 0.7722 0.5361
vn 0.9657 -0.0220 0.2587
vn 0.9849 -0.1576 -0.0718
vn 0.9326 -0.1442 -0.3309
vn 0.6092 0.2136 -0.7637
vn 0.0713 0.6003 -0.7966
vn -0.1117 0.7539 -0.6475
vn -0.1873 0.9150 -0.3574
vn 0.3003 -0.3650 0.8812
vn 0.6797 -0.1343 0.7211
vn 0.0138 0.5611 0.8276
vn -0.3655 0.1538 0.9180
vn 0.7169 -0.5825 0.3830
vn 0.9182 -0.3688 0.1446
vn 0.7972 -0.5268 -0.2949
vn 0.8616 -0.2745 -0.4270
vn 0.3655 -0.1538 -0.9180
vn 0.4972 0.0372 -0.8668
vn -0.3003 0.3650 -0.8812
vn -0.0458 0.4355 -0.8990
vn -0.7169 0.5825 -0.3830
vn -0.4344 0.7128 -0.5507
vn -0.7972 0.5268 0.2949
vn -0.5272 0.8463 0.0763
vn -0.0427 -0.4599 0.8869
vn 0.3150 -0.7343 0.6014
vn 0.3654 -0.9308 0.0058
vn -0.2528 -0.7292 -0.6359
vn -0.7908 0.0087 -0.6120
vn -0.9523 0.2955 -0.0757
vn -0.8701 0.2123 0.4449
vn -0.6951 -0.5548 0.4572
vn -0.5169 -0.0754 0.8527
vn 0.5764 0.2711 -0.7709
vn 0.6437 -0.0377 -0.7644
vn -0.7714 0.3155 -0.5527
vn -0.8199 0.2268 -0.5257
vn -0.5400 -0.0266 0.8412
vn -0.5647 0.1803 0.8054
vn 0.7693 -0.2784 0.5751
vn 0.7171 0.4264 0.5513
vn -0.7964 0.1225 -0.5922
vn 0.4140 -0.2753 -0.8676
vn 0.1865 -0.4723 -0.8615
vn -0.6978 -0.5386 0.4722
vn -0.7092 -0.3389 0.6183
vn 0.2177 -0.9586 0.1838
vn 0.4840 -0.8163 0.3153
vn -0.1728 -0.9712 -0.1639
vn 0.5305 0.3112 -0.7885
vn -0.6547 0.2957 0.6956
vn 0.3154 0.9167 0.2453
vn 0.4592 -0.0374 -0.8876
vn 0.5026 0.1082 -0.8577
vn 0.5148 -0.7847 0.3452
vn -0.7045 -0.0693 0.7063
vn -0.6982 0.0709 0.7124
vn -0.3093 0.9319 -0.1895
vn -0.6744 0.5742 -0.4642
vn -0.4186 -0.8448 -0.3333
vn -0.2727 0.7100 0.6492
vn -0.6579 0.7396 0.1423
vn -0.6402 -0.1060 0.7609
vn -0.3437 -0.2428 0.9072
vn -0.0875 -0.2249 0.9704
vn 0.4278 0.1597 0.8896
vn 0.6699 0.5918 0.4484
vn 0.6061 0.7607 0.2324
vn 0.3691 0.9278 0.0541
vn -0.9117 -0.3898 -0.1301
vn -0.9348 -0.1930 0.2982
vn -0.7765 0.5578 -0.2930
vn -0.6838 0.1851 -0.7058
vn -0.6275 -0.6428 0.4394
vn -0.5040 -0.4474 0.7388
vn -0.0490 -0.5943 0.8028
vn 0.0344 -0.3486 0.9366
vn 0.6838 -0.1851 0.7058
vn 0.5749 -0.0062 0.8182
vn 0.9117 0.3898 0.1301
vn 0.8180 0.4379 0.3730
vn 0.6275 0.6428 -0.4394
vn 0.6557 0.7479 -0.1032
vn 0.0490 0.5943 -0.8028
vn 0.1215 0.8890 -0.4414
vn -0.7689 -0.4544 -0.4498
vn -0.6506 -0.7589 -0.0278
vn -0.1248 -0.9591 0.2539
vn 0.7096 -0.7044 -0.0170
vn 0.8872 0.0775 -0.4548
vn 0.4587 0.3773 -0.8045
vn -0.0448 0.2873 -0.9568
vn -0.1013 -0.4921 -0.8646
vn -0.5525 -0.0301 -0.8330
vn 0.4461 0.2198 0.8676
vn 0.4231 -0.0937 0.9012
vn 0.8140 0.3815 -0.4380
vn 0.8133 0.2974 -0.5001
vn -0.5341 0.0206 -0.8452
vn -0.4988 0.2289 -0.8359
vn -0.8348 -0.3444 0.4295
vn -0.8173 0.3622 0.4482
vn 0.8674 0.1914 -0.4592
vn 0.6222 -0.3103 0.7187
vn 0.7196 -0.4868 0.4952
vn -0.1144 -0.4757 -0.8721
vn -0.2493 -0.2758 -0.9283
vn -0.2229 -0.9739 0.0432
vn -0.4594 -0.8554 0.2393
vn 0.2569 -0.9525 -0.1636
vn 0.4799 0.2637 0.8368
vn -0.3657 0.3517 -0.8618
vn -0.3889 0.8857 0.2534
vn 0.6124 -0.0774 0.7867
vn 0.5618 0.0640 0.8248
vn -0.5007 -0.8266 0.2569
vn -0.3409 -0.0076 -0.9401
vn -0.3542 0.1315 -0.9259
vn 0.2676 0.9553 -0.1256
vn 0.6835 0.6308 -0.3673
vn 0.5094 -0.8051 -0.3038
vn 0.0405 0.9987 0.0314
vn 0.5829 -0.7076 -0.3995
vn 0.2892 -0.6398 0.7120
vn -0.7989 -0.4372 0.4130
vn -0.5121 -0.5033 -0.6960
vn -0.5468 0.0813 -0.8333
vn 0.8133 -0.3042 -0.4960
vn -0.8114 0.3142 0.4928
vn 0.4370 -0.0861 0.8953
vn 0.7468 -0.4677 -0.4729
vn -0.4950 0.1571 -0.8546
vn 0.6125 0.7415 -0.2739
vn -0.6381 0.6403 0.4276
vn 0.4858 -0.0159 0.8739
vn 0.1652 -0.9631 -0.2123
vn -0.2331 -0.5651 0.7914
vn -0.9675 0.1036 0.2308
vn -0.5778 -0.2846 -0.7650
vn -0.2606 0.1940 -0.9457
vn 0.5873 -0.7665 -0.2601
vn -0.5933 0.7580 0.2708
vn 0.1591 -0.1487 0.9760
vn 0.4640 -0.8487 -0.2538
vn -0.1871 0.2293 -0.9552
vn 0.9445 0.2832 -0.1666
vn -0.2757 0.9345 0.2249
vn 0.2493 -0.1011 0.9631
vn -0.5112 -0.8421 -0.1717
vn 0.6694 -0.5915 -0.4495
vn 0.7652 -0.2674 0.5856
vn -0.1835 -0.4183 0.8896
vn -0.4435 0.1251 0.8875
vn -0.7829 -0.5077 -0.3595
vn 0.7859 0.4873 0.3807
vn 0.5356 -0.1308 -0.8343
vn -0.7250 -0.6106 -0.3186
vn -0.4944 0.2108 0.8433
vn -0.6381 0.6097 -0.4703
vn 0.6095 0.7593 0.2280
vn 0.4978 -0.0697 -0.8645
vn -0.5649 -0.8252 -0.0031
vn 0.1980 -0.5441 -0.8153
vn 0.9631 -0.2692 -0.0034
vn 0.2000 -0.5502 0.8107
vn 0.0728 0.0065 0.9973
vn -0.8840 -0.4675 0.0036
vn 0.8759 0.4825 0.0003
vn 0.0698 0.0142 -0.9975
vn -0.7736 -0.6337 0.0012
vn -0.0062 0.0709 0.9975
vn -0.8009 0.5988 0.0000
vn 0.6250 0.7806 -0.0005
vn -0.0046 0.0714 -0.9974
vn -0.1525 -0.8927 0.4239
vn -0.8039 -0.4319 -0.4090
vn 0.1351 -0.1455 -0.9801
vn 0.7898 -0.5898 -0.1685
vn 0.9898 -0.0939 0.1075
vn -0.1804 -0.5990 0.7802
vn 0.1765 0.5840 -0.7923
vn -0.9758 0.1023 -0.1934
vn -0.1749 -0.6861 0.7062
vn 0.9867 -0.0309 0.1594
vn -0.0713 0.5348 0.8420
vn 0.1656 0.8208 -0.5467
vn -0.9758 0.1713 -0.1362
vn -0.1711 -0.7213 -0.6711
vn 0.7683 -0.6398 -0.0185
vn 0.1190 -0.4329 0.8936
vn -0.8214 -0.5110 0.2535
vn -0.9712 0.0710 0.2273
vn -0.1914 -0.3270 -0.9254
vn 0.1842 0.3188 0.9297
vn 0.9901 -0.0878 -0.1099
vn -0.1890 -0.4677 -0.8635
vn -0.9724 0.1570 0.1728
vn -0.0479 0.7415 -0.6692
vn 0.1834 0.6403 0.7459
vn 0.9874 -0.0159 -0.1576
s 1
f 1/1/1 2/2/2 3/3/3
f 3/3/3 4/4/4 1/1/1
f 5/5/5 6/6/6 2/2/2
f 2/2/2 1/1/1 5/5/5
f 7/7/7 8/8/8 6/6/6
f 6/6/6 5/5/5 7/7/7
f 9/9/9 10/10/10 8/8/8
f 8/8/8 7/7/7 9/9/9
f 11/11/11 12/12/12 10/10/10
f 10/10/10 9/9/9 11/11/11
f 4/4/4 3/3/3 12/12/12
f 12/12/12 11/11/11 4/4/4
f 13/13/13 14/14/14 15/15/15
f 15/15/15 16/16/16 13/13/13
f 17/17/17 18/18/18 14/14/14
f 14/14/14 13/13/13 17/17/17
f 19/19/19 20/20/20 18/18/18
f 18/18/18 17/17/17 19/19/19
f 21/21/21 22/22/22 20/20/20
f 20/20/20 19/19/19 21/21/21
f 23/23/23 24/24/24 22/22/22
f 22/22/22 21/21/21 23/23/23
f 23/23/23 16/16/16 15/15/15
f 15/15/15 24/24/24 23/23/23
f 13/13/13 16/16/16 3/3/3
f 3/3/3 2/2/2 13/13/13
f 17/17/17 13/13/13 2/2/2
f 2/2/2 6/6/6 17/17/17
f 19/19/19 17/17/17 6/6/6
f 6/6/6 8/8/8 19/19/19
f 21/21/21 19/19/19 8/8/8
f 8/8/8 10/10/10 21/21/21
f 23/23/23 21/21/21 10/10/10
f 10/10/10 12/12/12 23/23/23
f 16/16/16 23/23/23 12/12/12
f 12/12/12 3/3/3 16/16/16
s 2
f 25/25/25 26/26/26 27/27/27
f 27/27/27 28/28/28 25/25/25
f 28/28/28 27/27/27 29/29/29
f 29/29/29 30/30/30 28/28/28
f 31/31/31 27/27/27 26/26/26
f 31/31/31 29/29/29 27/27/27
f 32/32/32 33/33/33 25/25/25
f 25/25/25 28/28/28 32/32/32
f 34/34/34 32/32/32 28/28/28
f 28/28/28 30/30/30 34/34/34
f 35/35/35 36/36/36 37/37/37
f 36/36/36 38/38/38 37/37/37
f 33/33/33 32/32/32 36/36/36
f 36/36/36 35/35/35 33/33/33
f 38/38/38 36/36/36 32/32/32
f 32/32/32 34/34/34 38/38/38
s 3
f 39/39/39 40/40/40 41/41/41
f 41/41/41 42/42/42 39/39/39
f 40/40/40 43/43/43 44/44/44
f 44/44/44 41/41/41 40/40/40
f 45/45/45 42/42/42 41/41/41
f 45/45/45 41/41/41 44/44/44
f 46/46/46 40/40/40 39/39/39
f 39/39/39 47/47/47 46/46/46
f 48/48/48 43/43/43 40/40/40
f 40/40/40 46/46/46 48/48/48
f 49/49/49 50/50/50 51/51/51
f 51/51/51 50/50/50 52/52/52
f 47/47/47 49/49/49 51/51/51
f 51/51/51 46/46/46 47/47/47
f 52/52/52 48/48/48 46/46/46
f 46/46/46 51/51/51 52/52/52
s 4
f 53/53/53 54/54/54 55/55/55
f 55/55/55 56/56/56 53/53/53
f 56/56/56 55/55/55 57/57/57
f 57/57/57 58/58/58 56/56/56
f 59/59/59 55/55/55 54/54/54
f 59/59/59 57/57/57 55/55/55
f 60/60/60 61/61/61 53/53/53
f 53/53/53 56/56/56 60/60/60
f 62/62/62 60/60/60 56/56/56
f 56/56/56 58/58/58 62/62/62
f 63/63/63 64/64/64 65/65/65
f 64/64/64 66/66/66 65/65/65
f 61/61/61 60/60/60 64/64/64
f 64/64/64 63/63/63 61/61/61
f 66/66/66 64/64/64 60/60/60
f 60/60/60 62/62/62 66/66/66
s 5
f 67/67/67 68/68/68 69/69/69
f 69/69/69 70/70/70 67/67/67
f 68/68/68 71/71/71 72/72/72
f 72/72/72 69/69/69 68/68/68
f 73/73/73 70/70/70 69/69/69
f 73/73/73 69/69/69 72/72/72
f 74/74/74 68/68/68 67/67/67
f 67/67/67 75/75/75 74/74/74
f 76/76/76 71/71/71 68/68/68
f 68/68/68 74/74/74 76/76/76
f 77/77/77 78/78/78 79/79/79
f 79/79/79 78/78/78 80/80/80
f 75/75/75 77/77/77 79/79/79
f 79/79/79 74/74/74 75/75/75
f 80/80/80 76/76/76 74/74/74
f 74/74/74 79/79/79 80/80/80
s 6
f 81/81/81 82/82/82 83/83/83
f 83/83/83 84/84/84 81/81/81
f 84/84/84 83/83/83 85/85/85
f 85/85/85 86/86/86 84/84/84
f 87/87/87 83/83/83 82/82/82
f 87/87/87 85/85/85 83/83/83
f 88/88/88 89/89/89 81/81/81
f 81/81/81 84/84/84 88/88/88
f 90/90/90 88/88/88 84/84/84
f 84/84/84 86/86/86 90/90/90
f 91/91/91 92/92/92 93/93/93
f 92/92/92 94/94/94 93/93/93
f 89/89/89 88/88/88 92/92/92
f 92/92/92 91/91/91 89/89/89
f 94/94/94 92/92/92 88/88/88
f 88/88/88 90/90/90 94/94/94
s 7
f 95/95/95 96/96/96 97/97/97
f 97/97/97 98/98/98 95/95/95
f 96/96/96 99/99/99 100/100/100
f 100/100/100 97/97/97 96/96/96
f 101/101/101 98/98/98 97/97/97
f 101/101/101 97/97/97 100/100/100
f 102/102/102 96/96/96 95/95/95
f 95/95/95 103/103/103 102/102/102
f 104/104/104 99/99/99 96/96/96
f 96/96/96 102/102/102 104/104/104
f 105/105/105 106/106/106 107/107/107
f 107/107/107 106/106/106 108/108/108
f 103/103/103 105/105/105 107/107/107
f 107/107/107 102/102/102 103/103/103
f 108/108/108 104/104/104 102/102/102
f 102/102/102 107/107/107 108/108/108
s 8
f 109/109/109 110/110/110 111/111/111
f 111/111/111 112/112/112 109/109/109
f 112/112/112 111/111/111 113/113/113
f 113/113/113 114/114/114 112/112/112
f 115/115/115 111/111/111 110/110/110
f 115/115/115 113/113/113 111/111/111
f 116/116/116 117/117/117 109/109/109
f 109/109/109 112/112/112 116/116/116
f 118/118/118 116/116/116 112/112/112
f 112/112/112 114/114/114 118/118/118
f 119/119/119 120/120/120 121/121/121
f 120/120/120 122/122/122 121/121/121
f 117/117/117 116/116/116 120/120/120
f 120/120/120 119/119/119 117/117/117
f 122/122/122 120/120/120 116/116/116
f 116/116/116 118/118/118 122/122/122
s 9
f 123/123/123 124/124/124 125/125/125
f 125/125/125 126/126/126 123/123/123
f 124/124/124 127/127/127 128/128/128
f 128/128/128 125/125/125 124/124/124
f 129/129/129 126/126/126 125/125/125
f 129/129/129 125/125/125 128/128/128
f 130/130/130 124/124/124 123/123/123
f 123/123/123 131/131/131 130/130/130
f 132/132/132 127/127/127 124/124/124
f 124/124/124 130/130/130 132/132/132
f 133/133/133 134/134/134 135/135/135
f 135/135/135 134/134/134 136/136/136
f 131/131/131 133/133/133 135/135/135
f 135/135/135 130/130/130 131/131/131
f 136/136/136 132/132/132 130/130/130
f 130/130/130 135/135/135 136/136/136
s 10
f 137/137/137 138/138/138 139/139/139
f 139/139/139 140/140/140 137/137/137
f 140/140/140 139/139/139 141/141/141
f 141/141/141 142/142/142 140/140/140
f 143/143/143 139/139/139 138/138/138
f 143/143/143 141/141/141 139/139/139
f 144/144/144 145/145/145 137/137/137
f 137/137/137 140/140/140 144/144/144
f 146/146/146 144/144/144 140/140/140
f 140/140/140 142/142/142 146/146/146
f 147/147/147 148/148/148 149/149/149
f 148/148/148 150/150/150 149/149/149
f 145/145/145 144/144/144 148/148/148
f 148/148/148 147/147/147 145/145/145
f 150/150/150 148/148/148 144/144/144
f 144/144/144 146/146/146 150/150/150
s 11
f 151/151/151 152/152/152 153/153/153
f 153/153/153 154/154/154 151/151/151
f 152/152/152 155/155/155 156/156/156
f 156/156/156 153/153/153 152/152/152
f 157/157/157 154/154/154 153/153/153
f 157/157/157 153/153/153 156/156/156
f 158/158/158 152/152/152 151/151/151
f 151/151/151 159/159/159 158/158/158
f 160/160/160 155/155/155 152/152/152
f 152/152/152 158/158/158 160/160/160
f 161/161/161 162/162/162 163/163/163
f 163/163/163 162/162/162 164/164/164
f 159/159/159 161/161/161 163/163/163
f 163/163/163 158/158/158 159/159/159
f 164/164/164 160/160/160 158/158/158
f 158/158/158 163/163/163 164/164/164
s 12
f 165/165/165 166/166/166 167/167/167
f 167/167/167 168/168/168 165/165/165
f 168/168/168 167/167/167 169/169/169
f 169/169/169 170/170/170 168/168/168
f 171/171/171 167/167/167 166/166/166
f 171/171/171 169/169/169 167/167/167
f 172/172/172 173/173/173 165/165/165
f 165/165/165 168/168/168 172/172/172
f 174/174/174 172/172/172 168/168/168
f 168/168/168 170/170/170 174/174/174
f 175/175/175 176/176/176 177/177/177
f 176/176/176 178/178/178 177/177/177
f 173/173/173 172/172/172 176/176/176
f 176/176/176 175/175/175 173/173/173
f 178/178/178 176/176/176 172/172/172
f 172/172/172 174/174/174 178/178/178
s 13
f 179/179/179 180/180/180 181/181/181
f 181/181/181 182/182/182 179/179/179
f 180/180/180 183/183/183 184/184/184
f 184/184/184 181/181/181 180/180/180
f 185/185/185 182/182/182 181/181/181
f 185/185/185 181/181/181 184/184/184
f 186/186/186 180/180/180 179/179/179
f 179/179/179 187/187/187 186/186/186
f 188/188/188 183/183/183 180/180/180
f 180/180/180 186/186/186 188/188/188
f 189/189/189 190/190/190 191/191/191
f 191/191/191 190/190/190 192/192/192
f 187/187/187 189/189/189 191/191/191
f 191/191/191 186/186/186 187/187/187
f 192/192/192 188/188/188 186/186/186
f 186/186/186 191/191/191 192/192/192
s 14
f 193/193/193 194/194/194 195/195/195
f 193/193/193 195/195/195 196/196/196
f 193/193/193 196/196/196 197/197/197
f 193/193/193 197/197/197 198/198/198
f 193/199/193 198/200/198 199/201/199
f 193/199/193 199/201/199 200/202/200
f 193/199/193 200/202/200 201/203/201
f 193/199/193 201/203/201 194/204/194
f 202/205/202 203/206/203 204/207/204
f 204/207/204 205/208/205 202/205/202
f 206/209/206 207/210/207 203/206/203
f 203/206/203 202/205/202 206/209/206
f 208/211/208 209/212/209 207/210/207
f 207/210/207 206/209/206 208/211/208
f 209/213/209 210/214/210 211/215/211
f 212/216/212 213/217/213 211/215/211
f 211/215/211 210/214/210 212/216/212
f 214/218/214 215/219/215 213/217/213
f 213/217/213 212/216/212 214/218/214
f 216/220/216 217/221/217 215/219/215
f 215/219/215 214/218/214 216/220/216
f 205/222/205 204/223/204 217/221/217
f 217/221/217 216/220/216 205/222/205
f 205/208/205 218/224/218 202/205/202
f 219/225/219 206/209/206 202/205/202
f 202/205/202 218/224/218 219/225/219
f 220/226/220 208/211/208 206/209/206
f 206/209/206 219/225/219 220/226/220
f 221/227/221 210/228/210 208/211/208
f 208/211/208 220/226/220 221/227/221
f 222/229/222 212/216/212 210/214/210
f 210/214/210 221/230/221 222/229/222
f 223/231/223 214/218/214 212/216/212
f 212/216/212 222/229/222 223/231/223
f 224/232/224 216/220/216 214/218/214
f 214/218/214 223/231/223 224/232/224
f 216/220/216 224/232/224 205/222/205
f 225/233/225 218/234/218 226/235/226
f 225/233/225 219/236/219 218/234/218
f 225/233/225 220/237/220 219/236/219
f 225/233/225 221/238/221 220/237/220
f 225/233/225 222/239/222 221/238/221
f 225/233/225 223/240/223 222/239/222
f 225/233/225 224/241/224 223/240/223
f 225/233/225 226/235/226 224/241/224
f 205/242/205 226/235/226 218/234/218
f 224/241/224 226/235/226 205/242/205
f 203/243/203 195/195/195 194/194/194
f 194/194/194 204/244/204 203/243/203
f 217/245/217 204/246/204 194/204/194
f 194/204/194 201/203/201 217/245/217
f 209/212/209 208/211/208 210/228/210
f 209/247/209 197/197/197 196/196/196
f 196/196/196 207/248/207 209/247/209
f 211/249/211 198/198/198 197/197/197
f 197/197/197 209/247/209 211/249/211
f 213/250/213 199/201/199 198/200/198
f 198/200/198 211/251/211 213/250/213
f 215/252/215 200/202/200 199/201/199
f 199/201/199 213/250/213 215/252/215
f 195/195/195 203/243/203 207/248/207
f 207/248/207 196/196/196 195/195/195
f 215/252/215 217/245/217 201/203/201
f 201/203/201 200/202/200 215/252/215
s 15
f 227/253/227 228/254/228 229/255/229
f 229/255/229 230/256/230 227/253/227
f 230/257/230 229/258/229 231/259/231
f 231/259/231 232/260/232 230/257/230
f 233/261/233 234/262/234 232/260/232
f 232/260/232 231/259/231 233/261/233
f 228/254/228 227/253/227 234/263/234
f 234/263/234 233/264/233 228/254/228
f 235/265/235 229/255/229 236/266/236
f 236/266/236 237/267/237 235/265/235
f 238/268/238 239/269/239 229/258/229
f 229/258/229 235/270/235 238/268/238
f 239/269/239 238/268/238 240/271/240
f 240/271/240 241/272/241 239/269/239
f 241/273/241 240/274/240 237/267/237
f 237/267/237 236/266/236 241/273/241
f 242/275/242 243/276/243 227/253/227
f 227/253/227 230/256/230 242/275/242
f 242/277/242 230/257/230 232/260/232
f 232/260/232 244/278/244 242/277/242
f 232/260/232 234/262/234 245/279/245
f 245/279/245 244/278/244 232/260/232
f 234/263/234 227/253/227 243/276/243
f 243/276/243 245/280/245 234/263/234
f 246/281/246 247/282/247 242/275/242
f 242/275/242 248/283/248 246/281/246
f 249/284/249 248/285/248 242/277/242
f 242/277/242 250/286/250 249/284/249
f 250/286/250 251/287/251 252/288/252
f 252/288/252 249/284/249 250/286/250
f 251/289/251 247/282/247 246/281/246
f 246/281/246 252/290/252 251/289/251
f 246/281/246 248/283/248 253/291/253
f 248/285/248 249/284/249 253/292/253
f 249/284/249 252/288/252 253/292/253
f 252/290/252 246/281/246 253/291/253
f 228/254/228 236/266/236 229/255/229
f 231/259/231 229/258/229 239/269/239
f 231/259/231 239/269/239 241/272/241
f 241/272/241 233/261/233 231/259/231
f 233/264/233 241/273/241 236/266/236
f 236/266/236 228/254/228 233/264/233
f 243/276/243 242/275/242 247/282/247
f 244/278/244 250/286/250 242/277/242
f 245/279/245 251/287/251 250/286/250
f 250/286/250 244/278/244 245/279/245
f 243/276/243 247/282/247 251/289/251
f 251/289/251 245/280/245 243/276/243
s 16
f 254/293/254 255/294/255 256/295/256
f 254/293/254 256/295/256 257/296/257
f 254/293/254 257/296/257 258/297/258
f 254/293/254 258/297/258 259/298/259
f 254/299/254 259/300/259 260/301/260
f 254/299/254 260/301/260 261/302/261
f 254/299/254 261/302/261 262/303/262
f 254/299/254 262/303/262 255/304/255
f 263/305/263 264/306/264 265/307/265
f 265/307/265 266/308/266 263/305/263
f 267/309/267 268/310/268 264/306/264
f 264/306/264 263/305/263 267/309/267
f 269/311/269 270/312/270 268/310/268
f 268/310/268 267/309/267 269/311/269
f 270/313/270 271/314/271 272/315/272
f 273/316/273 274/317/274 272/315/272
f 272/315/272 271/314/271 273/316/273
f 275/318/275 276/319/276 274/317/274
f 274/317/274 273/316/273 275/318/275
f 277/320/277 278/321/278 276/319/276
f 276/319/276 275/318/275 277/320/277
f 266/322/266 265/323/265 278/321/278
f 278/321/278 277/320/277 266/322/266
f 266/308/266 279/324/279 263/305/263
f 280/325/280 267/309/267 263/305/263
f 263/305/263 279/324/279 280/325/280
f 281/326/281 269/311/269 267/309/267
f 267/309/267 280/325/280 281/326/281
f 282/327/282 271/328/271 269/311/269
f 269/311/269 281/326/281 282/327/282
f 283/329/283 273/316/273 271/314/271
f 271/314/271 282/330/282 283/329/283
f 284/331/284 275/318/275 273/316/273
f 273/316/273 283/329/283 284/331/284
f 285/332/285 277/320/277 275/318/275
f 275/318/275 284/331/284 285/332/285
f 277/320/277 285/332/285 266/322/266
f 286/333/286 279/334/279 287/335/287
f 286/333/286 280/336/280 279/334/279
f 286/333/286 281/337/281 280/336/280
f 286/333/286 282/338/282 281/337/281
f 286/333/286 283/339/283 282/338/282
f 286/333/286 284/340/284 283/339/283
f 286/333/286 285/341/285 284/340/284
f 286/333/286 287/335/287 285/341/285
f 266/342/266 287/335/287 279/334/279
f 285/341/285 287/335/287 266/342/266
f 264/343/264 256/295/256 255/294/255
f 255/294/255 265/344/265 264/343/264
f 278/345/278 265/346/265 255/304/255
f 255/304/255 262/303/262 278/345/278
f 270/312/270 269/311/269 271/328/271
f 270/347/270 258/297/258 257/296/257
f 257/296/257 268/348/268 270/347/270
f 272/349/272 259/298/259 258/297/258
f 258/297/258 270/347/270 272/349/272
f 274/350/274 260/301/260 259/300/259
f 259/300/259 272/351/272 274/350/274
f 276/352/276 261/302/261 260/301/260
f 260/301/260 274/350/274 276/352/276
f 256/295/256 264/343/264 268/348/268
f 268/348/268 257/296/257 256/295/256
f 276/352/276 278/345/278 262/303/262
f 262/303/262 261/302/261 276/352/276
s 17
f 288/353/288 289/354/289 290/355/290
f 290/355/290 291/356/291 288/353/288
f 291/357/291 290/358/290 292/359/292
f 292/359/292 293/360/293 291/357/291
f 294/361/294 295/362/295 293/360/293
f 293/360/293 292/359/292 294/361/294
f 289/354/289 288/353/288 295/363/295
f 295/363/295 294/364/294 289/354/289
f 296/365/296 290/355/290 297/366/297
f 297/366/297 298/367/298 296/365/296
f 299/368/299 300/369/300 290/358/290
f 290/358/290 296/370/296 299/368/299
f 300/369/300 299/368/299 301/371/301
f 301/371/301 302/372/302 300/369/300
f 302/373/302 301/374/301 298/367/298
f 298/367/298 297/366/297 302/373/302
f 303/375/303 304/376/304 288/353/288
f 288/353/288 291/356/291 303/375/303
f 303/377/303 291/357/291 293/360/293
f 293/360/293 305/378/305 303/377/303
f 293/360/293 295/362/295 306/379/306
f 306/379/306 305/378/305 293/360/293
f 295/363/295 288/353/288 304/376/304
f 304/376/304 306/380/306 295/363/295
f 307/381/307 308/382/308 303/375/303
f 303/375/303 309/383/309 307/381/307
f 310/384/310 309/385/309 303/377/303
f 303/377/303 311/386/311 310/384/310
f 311/386/311 312/387/312 313/388/313
f 313/388/313 310/384/310 311/386/311
f 312/389/312 308/382/308 307/381/307
f 307/381/307 313/390/313 312/389/312
f 307/381/307 309/383/309 314/391/314
f 309/385/309 310/384/310 314/392/314
f 310/384/310 313/388/313 314/392/314
f 313/390/313 307/381/307 314/391/314
f 289/354/289 297/366/297 290/355/290
f 292/359/292 290/358/290 300/369/300
f 292/359/292 300/369/300 302/372/302
f 302/372/302 294/361/294 292/359/292
f 294/364/294 302/373/302 297/366/297
f 297/366/297 289/354/289 294/364/294
f 304/376/304 303/375/303 308/382/308
f 305/378/305 311/386/311 303/377/303
f 306/379/306 312/387/312 311/386/311
f 311/386/311 305/378/305 306/379/306
f 304/376/304 308/382/308 312/389/312
f 312/389/312 306/380/306 304/376/304
s 18
f 315/393/315 316/394/316 317/395/317
f 315/393/315 317/395/317 318/396/318
f 315/393/315 318/396/318 319/397/319
f 315/393/315 319/397/319 320/398/320
f 315/399/315 320/400/320 321/401/321
f 315/399/315 321/401/321 322/402/322
f 315/399/315 322/402/322 323/403/323
f 315/399/315 323/403/323 316/404/316
f 324/405/324 325/406/325 326/407/326
f 326/407/326 327/408/327 324/405/324
f 328/409/328 329/410/329 325/406/325
f 325/406/325 324/405/324 328/409/328
f 330/411/330 331/412/331 329/410/329
f 329/410/329 328/409/328 330/411/330
f 331/413/331 332/414/332 333/415/333
f 334/416/334 335/417/335 333/415/333
f 333/415/333 332/414/332 334/416/334
f 336/418/336 337/419/337 335/417/335
f 335/417/335 334/416/334 336/418/336
f 338/420/338 339/421/339 337/419/337
f 337/419/337 336/418/336 338/420/338
f 327/422/327 326/423/326 339/421/339
f 339/421/339 338/420/338 327/422/327
f 327/408/327 340/424/340 324/405/324
f 341/425/341 328/409/328 324/405/324
f 324/405/324 340/424/340 341/425/341
f 342/426/342 330/411/330 328/409/328
f 328/409/328 341/425/341 342/426/342
f 343/427/343 332/428/332 330/411/330
f 330/411/330 342/426/342 343/427/343
f 344/429/344 334/416/334 332/414/332
f 332/414/332 343/430/343 344/429/344
f 345/431/345 336/418/336 334/416/334
f 334/416/334 344/429/344 345/431/345
f 346/432/346 338/420/338 336/418/336
f 336/418/336 345/431/345 346/432/346
f 338/420/338 346/432/346 327/422/327
f 347/433/347 340/434/340 348/435/348
f 347/433/347 341/436/341 340/434/340
f 347/433/347 342/437/342 341/436/341
f 347/433/347 343/438/343 342/437/342
f 347/433/347 344/439/344 343/438/343
f 347/433/347 345/440/345 344/439/344
f 347/433/347 346/441/346 345/440/345
f 347/433/347 348/435/348 346/441/346
f 327/442/327 348/435/348 340/434/340
f 346/441/346 348/435/348 327/442/327
f 325/443/325 317/395/317 316/394/316
f 316/394/316 326/444/326 325/443/325
f 339/445/339 326/446/326 316/404/316
f 316/404/316 323/403/323 339/445/339
f 331/412/331 330/411/330 332/428/332
f 331/447/331 319/397/319 318/396/318
f 318/396/318 329/448/329 331/447/331
f 333/449/333 320/398/320 319/397/319
f 319/397/319 331/447/331 333/449/333
f 335/450/335 321/401/321 320/400/320
f 320/400/320 333/451/333 335/450/335
f 337/452/337 322/402/322 321/401/321
f 321/401/321 335/450/335 337/452/337
f 317/395/317 325/443/325 329/448/329
f 329/448/329 318/396/318 317/395/317
f 337/452/337 339/445/339 323/403/323
f 323/403/323 322/402/322 337/452/337
s 19
f 349/453/349 350/454/350 351/455/351
f 351/455/351 352/456/352 349/453/349
f 352/457/352 351/458/351 353/459/353
f 353/459/353 354/460/354 352/457/352
f 355/461/355 356/462/356 354/460/354
f 354/460/354 353/459/353 355/461/355
f 350/454/350 349/453/349 356/463/356
f 356/463/356 355/464/355 350/454/350
f 357/465/357 351/455/351 358/466/358
f 358/466/358 359/467/359 357/465/357
f 360/468/360 361/469/361 351/458/351
f 351/458/351 357/470/357 360/468/360
f 361/469/361 360/468/360 362/471/362
f 362/471/362 363/472/363 361/469/361
f 363/473/363 362/474/362 359/467/359
f 359/467/359 358/466/358 363/473/363
f 364/475/364 365/476/365 349/453/349
f 349/453/349 352/456/352 364/475/364
f 364/477/364 352/457/352 354/460/354
f 354/460/354 366/478/366 364/477/364
f 354/460/354 356/462/356 367/479/367
f 367/479/367 366/478/366 354/460/354
f 356/463/356 349/453/349 365/476/365
f 365/476/365 367/480/367 356/463/356
f 368/481/368 369/482/369 364/475/364
f 364/475/364 370/483/370 368/481/368
f 371/484/371 370/485/370 364/477/364
f 364/477/364 372/486/372 371/484/371
f 372/486/372 373/487/373 374/488/374
f 374/488/374 371/484/371 372/486/372
f 373/489/373 369/482/369 368/481/368
f 368/481/368 374/490/374 373/489/373
f 368/481/368 370/483/370 375/491/375
f 370/485/370 371/484/371 375/492/375
f 371/484/371 374/488/374 375/492/375
f 374/490/374 368/481/368 375/491/375
f 350/454/350 358/466/358 351/455/351
f 353/459/353 351/458/351 361/469/361
f 353/459/353 361/469/361 363/472/363
f 363/472/363 355/461/355 353/459/353
f 355/464/355 363/473/363 358/466/358
f 358/466/358 350/454/350 355/464/355
f 365/476/365 364/475/364 369/482/369
f 366/478/366 372/486/372 364/477/364
f 367/479/367 373/487/373 372/486/372
f 372/486/372 366/478/366 367/479/367
f 365/476/365 369/482/369 373/489/373
f 373/489/373 367/480/367 365/476/365
s 1
f 14/493/14 376/494/376 15/495/15
f 18/496/18 376/494/376 14/497/14
f 20/498/20 376/494/376 18/496/18
f 22/499/22 376/494/376 20/498/20
f 24/500/24 376/494/376 22/501/22
f 15/495/15 376/494/376 24/500/24
s 20
f 377/502/377 378/503/378 379/504/379
f 379/504/379 380/505/380 377/502/377
f 380/506/380 381/507/381 382/508/382
f 382/508/382 377/509/377 380/506/380
f 379/510/379 383/511/383 381/507/381
f 381/507/381 380/506/380 379/510/379
f 378/512/378 384/513/384 383/514/383
f 383/514/383 379/515/379 378/512/378
f 377/516/377 382/517/382 384/513/384
f 384/513/384 378/512/378 377/516/377
f 385/518/385 386/519/386 387/520/387
f 386/519/386 388/521/388 387/520/387
f 388/522/388 389/523/389 387/520/387
f 389/523/389 385/524/385 387/520/387
f 386/519/386 385/518/385 382/508/382
f 382/508/382 381/507/381 386/519/386
f 388/521/388 386/519/386 381/507/381
f 381/507/381 383/511/383 388/521/388
f 389/523/389 388/522/388 383/514/383
f 383/514/383 384/513/384 389/523/389
f 385/524/385 389/523/389 384/513/384
f 384/513/384 382/517/382 385/524/385
s 21
f 390/525/390 391/526/391 392/527/392
f 392/527/392 393/528/393 390/525/390
f 393/529/393 394/530/394 395/531/395
f 395/531/395 390/532/390 393/529/393
f 392/533/392 396/534/396 394/530/394
f 394/530/394 393/529/393 392/533/392
f 391/535/391 397/536/397 396/537/396
f 396/537/396 392/538/392 391/535/391
f 390/539/390 395/540/395 397/536/397
f 397/536/397 391/535/391 390/539/390
f 398/541/398 399/542/399 400/543/400
f 399/542/399 401/544/401 400/543/400
f 401/545/401 402/546/402 400/543/400
f 402/546/402 398/547/398 400/543/400
f 399/542/399 398/541/398 395/531/395
f 395/531/395 394/530/394 399/542/399
f 401/544/401 399/542/399 394/530/394
f 394/530/394 396/534/396 401/544/401
f 402/546/402 401/545/401 396/537/396
f 396/537/396 397/536/397 402/546/402
f 398/547/398 402/546/402 397/536/397
f 397/536/397 395/540/395 398/547/398
s 22
f 403/548/403 404/549/404 405/550/405
f 405/550/405 406/551/406 403/548/403
f 406/552/406 407/553/407 408/554/408
f 408/554/408 403/555/403 406/552/406
f 405/556/405 409/557/409 407/553/407
f 407/553/407 406/552/406 405/556/405
f 404/558/404 410/559/410 409/560/409
f 409/560/409 405/561/405 404/558/404
f 403/562/403 408/563/408 410/559/410
f 410/559/410 404/558/404 403/562/403
f 411/564/411 412/565/412 413/566/413
f 412/565/412 414/567/414 413/566/413
f 414/568/414 415/569/415 413/566/413
f 415/569/415 411/570/411 413/566/413
f 412/565/412 411/564/411 408/554/408
f 408/554/408 407/553/407 412/565/412
f 414/567/414 412/565/412 407/553/407
f 407/553/407 409/557/409 414/567/414
f 415/569/415 414/568/414 409/560/409
f 409/560/409 410/559/410 415/569/415
f 411/570/411 415/569/415 410/559/410
f 410/559/410 408/563/408 411/570/411
s 23
f 416/571/416 417/572/417 418/573/418
f 418/573/418 419/574/419 416/571/416
f 419/575/419 420/576/420 421/577/421
f 421/577/421 416/578/416 419/575/419
f 418/579/418 422/580/422 420/576/420
f 420/576/420 419/575/419 418/579/418
f 417/581/417 423/582/423 422/583/422
f 422/583/422 418/584/418 417/581/417
f 416/585/416 421/586/421 423/582/423
f 423/582/423 417/581/417 416/585/416
f 424/587/424 425/588/425 426/589/426
f 425/588/425 427/590/427 426/589/426
f 427/591/427 428/592/428 426/589/426
f 428/592/428 424/593/424 426/589/426
f 425/588/425 424/587/424 421/577/421
f 421/577/421 420/576/420 425/588/425
f 427/590/427 425/588/425 420/576/420
f 420/576/420 422/580/422 427/590/427
f 428/592/428 427/591/427 422/583/422
f 422/583/422 423/582/423 428/592/428
f 424/593/424 428/592/428 423/582/423
f 423/582/423 421/586/421 424/593/424
s 24
f 429/594/429 430/595/430 431/596/431
f 431/596/431 432/597/432 429/594/429
f 432/598/432 433/599/433 434/600/434
f 434/600/434 429/601/429 432/598/432
f 431/602/431 435/603/435 433/599/433
f 433/599/433 432/598/432 431/602/431
f 430/604/430 436/605/436 435/606/435
f 435/606/435 431/607/431 430/604/430
f 429/608/429 434/609/434 436/605/436
f 436/605/436 430/604/430 429/608/429
f 437/610/437 438/611/438 439/612/439
f 438/611/438 440/613/440 439/612/439
f 440/614/440 441/615/441 439/612/439
f 441/615/441 437/616/437 439/612/439
f 438/611/438 437/610/437 434/600/434
f 434/600/434 433/599/433 438/611/438
f 440/613/440 438/611/438 433/599/433
f 433/599/433 435/603/435 440/613/440
f 441/615/441 440/614/440 435/606/435
f 435/606/435 436/605/436 441/615/441
f 437/616/437 441/615/441 436/605/436
f 436/605/436 434/609/434 437/616/437
s 25
f 442/617/442 443/618/443 444/619/444
f 444/619/444 445/620/445 442/617/442
f 445/621/445 446/622/446 447/623/447
f 447/623/447 442/624/442 445/621/445
f 444/625/444 448/626/448 446/622/446
f 446/622/446 445/621/445 444/625/444
f 443/627/443 449/628/449 448/629/448
f 448/629/448 444/630/444 443/627/443
f 442/631/442 447/632/447 449/628/449
f 449/628/449 443/627/443 442/631/442
f 450/633/450 451/634/451 452/635/452
f 451/634/451 453/636/453 452/635/452
f 453/637/453 454/638/454 452/635/452
f 454/638/454 450/639/450 452/635/452
f 451/634/451 450/633/450 447/623/447
f 447/623/447 446/622/446 451/634/451
f 453/636/453 451/634/451 446/622/446
f 446/622/446 448/626/448 453/636/453
f 454/638/454 453/637/453 448/629/448
f 448/629/448 449/628/449 454/638/454
f 450/639/450 454/638/454 449/628/449
f 449/628/449 447/632/447 450/639/450
