# Blender v3.3.0 OBJ File: ''
# www.blender.org
o ItemCorn.005
v -0.012117 -0.019763 0.093467
v -0.020463 -0.030283 0.050085
v -0.004770 -0.010832 0.046453
v 0.001204 -0.000589 0.090112
v -0.031697 -0.020820 0.097968
v -0.041337 -0.031655 0.055658
v -0.047209 -0.003144 0.101218
v -0.059326 -0.013863 0.060417
v -0.015667 0.012419 0.131300
v -0.033472 -0.034018 -0.008930
v -0.021444 -0.019398 -0.027516
v -0.049417 -0.036159 0.002747
v -0.065089 -0.028316 0.010066
v -0.041146 -0.047084 -0.042408
v -0.031147 -0.038628 -0.051563
v -0.053995 -0.048417 -0.037179
v -0.067783 -0.045187 -0.033036
v -0.036747 -0.067379 -0.063225
v -0.043284 -0.066655 -0.061835
v -0.038524 -0.088622 -0.076767
v -0.031304 -0.091395 -0.075806
v -0.050195 -0.067143 -0.060138
v -0.061491 -0.069348 -0.057032
v -0.048185 -0.092609 -0.071914
v -0.024332 -0.098285 -0.071399
v 0.005528 0.055933 0.087864
v -0.000594 0.055741 0.042724
v -0.017679 0.063337 0.050091
v -0.017805 0.057180 0.093161
v 0.016876 0.038882 0.085655
v 0.011956 0.041322 0.038996
v 0.009588 0.016012 0.087828
v 0.009454 0.017741 0.043545
v -0.006776 0.029749 0.128884
v -0.005056 0.059580 -0.007160
v -0.015532 0.068894 0.007227
v 0.000874 0.043276 -0.024931
v -0.004329 0.021561 -0.034891
v -0.001621 0.063991 -0.037335
v -0.009198 0.073752 -0.032991
v 0.003172 0.052109 -0.046042
v 0.000920 0.035692 -0.063423
v 0.005301 0.079768 -0.056643
v 0.010410 0.071034 -0.049552
v 0.029266 0.077365 -0.034494
v 0.026814 0.087058 -0.039463
v 0.013876 0.064822 -0.052628
v 0.018567 0.059461 -0.067005
v 0.036611 0.072903 -0.041487
v 0.043267 0.080512 0.014119
v -0.067350 0.033236 0.105088
v -0.086989 0.033533 0.044691
v -0.081256 0.008800 0.044971
v -0.055030 0.009191 0.102814
v -0.057699 0.054289 0.102416
v -0.076501 0.053208 0.038778
v -0.031730 0.060016 0.096362
v -0.056473 0.062822 0.024201
v -0.022904 0.028805 0.127051
v -0.111292 0.033466 -0.031724
v -0.106225 0.011321 -0.036283
v -0.100206 0.055677 -0.031689
v -0.081482 0.065401 -0.049161
v -0.123355 0.039959 -0.056106
v -0.127710 0.023323 -0.067831
v -0.116035 0.054931 -0.056803
v -0.106636 0.066496 -0.067757
v -0.138416 0.035924 -0.068872
v -0.134291 0.046973 -0.064668
v -0.142164 0.054954 -0.067841
v -0.146904 0.047814 -0.069122
v -0.130198 0.055860 -0.065524
v -0.124926 0.065144 -0.071083
v -0.139699 0.062417 -0.070733
v -0.145628 0.056039 -0.069806
v -0.061106 0.002205 0.118859
v -0.080633 -0.009325 0.088289
v -0.048829 -0.026108 0.077837
v -0.032244 -0.012886 0.112609
v -0.062509 0.035335 0.118440
v -0.082279 0.028518 0.088411
v -0.034302 0.017932 0.127917
v -0.090448 -0.018732 -0.017871
v -0.075224 -0.036828 0.002221
v -0.100728 0.007032 -0.004461
v -0.101349 -0.046024 -0.063603
v -0.105813 -0.033899 -0.061278
v -0.112689 -0.041050 -0.065353
v -0.111225 -0.019990 -0.047811
v -0.022473 0.070885 0.108510
v -0.033032 0.083876 0.072891
v -0.063393 0.064488 0.080020
v -0.049162 0.052306 0.115015
v 0.006498 0.056019 0.102230
v -0.001648 0.069021 0.062383
v -0.017159 0.042667 0.123453
v -0.041986 0.077299 -0.026573
v -0.072672 0.064956 -0.027523
v -0.016772 0.080648 -0.010845
v -0.059634 0.087043 -0.075403
v -0.044494 0.087955 -0.081724
v -0.043374 0.098285 -0.086472
v -0.032725 0.091762 -0.083797
v -0.008327 0.033817 0.124589
v -0.010605 0.036199 0.081199
v -0.019328 0.012210 0.084972
v -0.015986 0.012751 0.127902
v 0.010801 0.040643 0.124672
v 0.011176 0.043973 0.081294
v 0.030191 0.029233 0.128104
v 0.033257 0.030979 0.085203
v 0.008782 0.015989 0.165873
v -0.006417 0.022234 0.010068
v -0.015759 0.003577 0.006850
v 0.015316 0.029982 0.010012
v 0.034461 0.021486 0.006678
v -0.007999 0.030597 -0.016493
v -0.014284 0.015428 -0.021117
v 0.005025 0.035401 -0.016601
v 0.025559 0.030031 -0.021972
v -0.019650 0.042700 -0.039131
v -0.015106 0.044483 -0.039363
v -0.031345 0.063498 -0.055118
v -0.037823 0.063433 -0.053475
v -0.008708 0.046841 -0.039355
v 0.003338 0.051075 -0.039139
v -0.021789 0.069449 -0.053452
v -0.050807 0.075373 -0.047770
v -0.000007 -0.038592 0.123836
v -0.001934 -0.053403 0.082823
v 0.022914 -0.043210 0.083751
v 0.021813 -0.029641 0.124651
v -0.016744 -0.029214 0.121595
v -0.020993 -0.042724 0.080271
v -0.018592 -0.007001 0.119240
v -0.023098 -0.017428 0.077589
v 0.005868 -0.003733 0.157271
v 0.004989 -0.060305 0.010953
v 0.025561 -0.056035 0.006145
v -0.013574 -0.049083 0.008050
v -0.018176 -0.031234 -0.000196
v -0.003503 -0.065142 -0.013884
v 0.015009 -0.068967 -0.019287
v -0.013956 -0.057267 -0.016460
v -0.016910 -0.045577 -0.026076
v -0.006331 -0.080502 -0.033808
v -0.014744 -0.069754 -0.036204
v -0.035493 -0.072353 -0.051071
v -0.028745 -0.082047 -0.047207
v -0.019492 -0.065401 -0.037568
v -0.022732 -0.064719 -0.038042
v -0.041078 -0.071958 -0.049719
v -0.054517 -0.068304 -0.042990
v 0.058252 0.011582 0.123481
v 0.075829 0.008300 0.071993
v 0.052789 0.025153 0.068515
v 0.038021 0.026380 0.120426
v 0.057260 -0.010126 0.125563
v 0.074698 -0.016421 0.074365
v 0.035625 -0.026028 0.125454
v 0.050061 -0.034528 0.074241
v 0.019636 0.002823 0.152334
v 0.082119 0.000363 -0.018523
v 0.067350 0.015429 -0.028740
v 0.081039 -0.024313 -0.016364
v 0.064855 -0.041608 -0.023749
v 0.095865 -0.006026 -0.036566
v 0.088408 0.007073 -0.058459
v 0.095420 -0.020869 -0.035321
v 0.087081 -0.038380 -0.055232
v 0.118957 -0.001505 -0.054999
v 0.111117 -0.009750 -0.047203
v 0.126316 -0.010900 -0.058589
v 0.135353 -0.002118 -0.056530
v 0.110972 -0.017022 -0.046374
v 0.118253 -0.027542 -0.052967
v 0.134944 -0.020383 -0.054758
v 0.146904 -0.014942 -0.069539
v 0.042663 0.037794 0.133701
v 0.051824 0.048612 0.098598
v 0.015866 0.048886 0.097161
v 0.010626 0.038034 0.131173
v 0.056286 0.010736 0.137458
v 0.067863 0.017799 0.104319
v 0.025789 0.016376 0.149551
v 0.032264 0.041018 -0.031549
v 0.015987 0.045235 -0.012182
v 0.060053 0.018763 -0.008546
v 0.028949 0.063895 -0.066410
v 0.035170 0.055343 -0.063936
v 0.039442 0.070529 -0.059638
v 0.051643 0.050564 -0.064096
v 0.032883 -0.036087 0.140288
v 0.043739 -0.051352 0.107385
v 0.064399 -0.020675 0.107877
v 0.050390 -0.009148 0.138976
v 0.000830 -0.036081 0.137783
v 0.007961 -0.051345 0.106518
v 0.019310 -0.011615 0.151830
v 0.022347 -0.057111 -0.024297
v 0.053482 -0.036435 -0.003866
v 0.005507 -0.063019 -0.004832
v 0.041228 -0.069853 -0.052462
v 0.023923 -0.073182 -0.052517
v 0.026856 -0.085196 -0.045124
v 0.016936 -0.083491 -0.053097
v -0.040151 0.054679 0.029876
v -0.067059 0.039091 -0.084844
v -0.083947 0.031796 -0.080691
v -0.062203 0.044700 0.035045
v -0.018109 0.044698 0.024683
v -0.050095 0.031795 -0.088690
v -0.004709 0.018760 0.021532
v -0.043063 0.018760 -0.089959
v -0.049228 0.043493 0.088220
v -0.075585 0.018760 0.038251
v -0.059879 0.018760 0.090718
v -0.027653 0.055320 0.083159
v -0.006074 0.043492 0.078098
v 0.004576 0.018760 0.075600
v -0.024611 0.018760 0.096128
v -0.090807 0.018760 -0.078677
v -0.075014 0.018760 -0.118759
v -0.040151 -0.017159 0.029876
v -0.062203 -0.007181 0.035045
v -0.083947 0.005724 -0.080691
v -0.067059 -0.001572 -0.084844
v -0.018109 -0.007179 0.024683
v -0.050095 0.005724 -0.088690
v -0.049228 -0.005973 0.088220
v -0.027653 -0.017801 0.083159
v -0.006074 -0.005973 0.078098
v -0.021882 0.018654 0.107815
v -0.041290 0.000163 0.105194
v -0.023748 -0.006429 0.100968
v -0.048940 0.018398 0.106621
v -0.040096 0.035340 0.104156
v -0.023513 0.043492 0.100081
v -0.006128 0.036182 0.096129
v 0.001099 0.017957 0.094804
v -0.007120 0.001015 0.097122
v -0.048973 -0.002628 0.084799
v -0.028692 -0.010252 0.080039
v -0.057648 0.018415 0.086825
v -0.047601 0.038143 0.084297
v -0.028244 0.047429 0.079753
v -0.008174 0.038934 0.075048
v 0.000077 0.017902 0.073121
v -0.009359 -0.001827 0.075435
v 0.023426 0.026346 0.062415
v 0.028557 0.004722 -0.043429
v 0.012760 -0.001980 -0.043543
v 0.002862 0.017169 0.062074
v 0.044031 0.017403 0.064004
v 0.044377 -0.001802 -0.042100
v 0.056601 -0.006069 0.066239
v 0.050875 -0.013573 -0.040628
v 0.000942 0.019548 0.111797
v -0.009589 -0.006444 0.063192
v -0.008946 -0.002959 0.112900
v 0.021058 0.030400 0.111997
v 0.041229 0.019780 0.113702
v 0.051227 -0.002613 0.115746
v 0.020563 -0.001941 0.126401
v 0.006283 -0.013825 -0.042664
v 0.030109 -0.015943 -0.073721
v 0.023586 -0.038861 0.066986
v 0.002977 -0.029923 0.065374
v 0.012817 -0.025645 -0.041885
v 0.028647 -0.032188 -0.040842
v 0.044147 -0.029685 0.067304
v 0.044435 -0.025466 -0.040441
v 0.001052 -0.025352 0.114943
v 0.021220 -0.035972 0.116649
v 0.041339 -0.025119 0.116849
v 0.020033 -0.001275 0.137288
v 0.003747 -0.018598 0.131345
v 0.020166 -0.024495 0.132442
v -0.003344 -0.002110 0.129527
v 0.004973 0.013292 0.128499
v 0.020482 0.020770 0.128551
v 0.036697 0.014235 0.129893
v 0.043391 -0.002246 0.131695
v 0.035659 -0.017645 0.132751
v 0.002122 -0.022517 0.111808
v 0.021073 -0.029329 0.113186
v -0.006021 -0.003464 0.110079
v 0.003357 0.014487 0.109118
v 0.021408 0.023019 0.109378
v 0.040164 0.015416 0.110807
v 0.047910 -0.003629 0.112516
v 0.039120 -0.021581 0.113443
v -0.089814 0.008375 -0.140728
v -0.078647 0.003866 -0.131839
v -0.084424 0.018524 -0.113130
v -0.090710 0.019235 -0.125841
v -0.077124 0.034875 -0.130603
v -0.088677 0.031524 -0.139806
v -0.068107 0.019985 -0.145411
v -0.087841 0.020802 -0.157382
v -0.072602 0.017910 -0.103513
v -0.073324 0.005935 -0.118291
v -0.069618 0.014646 -0.104480
v -0.069297 0.021192 -0.104219
v -0.072077 0.031333 -0.117279
v -0.067577 0.017933 -0.105016
v -0.061097 0.018816 -0.123821
v -0.098654 0.019414 -0.127709
v -0.101441 0.012106 -0.141449
v -0.100655 0.028133 -0.140810
v -0.104912 0.020807 -0.153897
v -0.105607 0.012044 -0.115018
v -0.107145 0.012559 -0.131765
v -0.099938 0.018772 -0.114770
v -0.104941 0.025612 -0.114477
v -0.106444 0.026824 -0.131196
v -0.115511 0.019998 -0.135679
v -0.110657 0.018781 -0.112678
v -0.091342 0.017140 -0.084360
v 0.039244 -0.014639 -0.092414
v 0.034564 -0.005833 -0.081251
v 0.040062 -0.021559 -0.063342
v 0.040786 -0.024860 -0.077133
v 0.021376 -0.033293 -0.075135
v 0.029398 -0.035139 -0.087848
v 0.014545 -0.015987 -0.088408
v 0.026933 -0.025068 -0.105655
v 0.033527 -0.016007 -0.050730
v 0.033842 -0.005459 -0.066571
v 0.031951 -0.011788 -0.051185
v 0.029167 -0.017585 -0.049894
v 0.023041 -0.027950 -0.061562
v 0.028724 -0.013904 -0.050581
v 0.016423 -0.011966 -0.066115
v 0.046842 -0.028380 -0.081325
v 0.047418 -0.022935 -0.096156
v 0.040602 -0.037127 -0.092996
v 0.042661 -0.032287 -0.107671
v 0.060030 -0.024639 -0.072619
v 0.055408 -0.025755 -0.088759
v 0.052615 -0.028341 -0.069657
v 0.054260 -0.036654 -0.069943
v 0.049340 -0.038388 -0.085945
v 0.058240 -0.036033 -0.093954
v 0.062456 -0.032879 -0.071012
v 0.056344 -0.023229 -0.038652
vt 0.874000 0.762800
vt 0.879700 0.589200
vt 0.938000 0.602400
vt 0.923100 0.791100
vt 0.829600 0.761500
vt 0.820300 0.591800
vt 0.792200 0.783000
vt 0.751600 0.594200
vt 0.855200 0.879600
vt 0.893100 0.389200
vt 0.961800 0.405200
vt 0.809300 0.395100
vt 0.725900 0.378600
vt 0.881800 0.302100
vt 0.942700 0.295400
vt 0.824300 0.298900
vt 0.770200 0.279900
vt 0.904900 0.253300
vt 0.869200 0.252200
vt 0.859800 0.216400
vt 0.883200 0.213900
vt 0.838700 0.248800
vt 0.799500 0.229900
vt 0.839600 0.208800
vt 0.863500 0.207000
vt 0.874000 0.762800
vt 0.879700 0.589200
vt 0.938000 0.602400
vt 0.923100 0.791100
vt 0.829600 0.761500
vt 0.820300 0.591800
vt 0.792200 0.783000
vt 0.751600 0.594200
vt 0.855200 0.879600
vt 0.893100 0.389200
vt 0.961800 0.405200
vt 0.809300 0.395100
vt 0.725900 0.378600
vt 0.881800 0.302100
vt 0.942700 0.295400
vt 0.824300 0.298900
vt 0.770200 0.279900
vt 0.904900 0.253300
vt 0.869200 0.252200
vt 0.859800 0.216400
vt 0.883200 0.213900
vt 0.838700 0.248800
vt 0.799500 0.229900
vt 0.839600 0.208800
vt 0.863500 0.207000
vt 0.874000 0.762800
vt 0.879700 0.589200
vt 0.938000 0.602400
vt 0.923100 0.791100
vt 0.829600 0.761500
vt 0.820300 0.591800
vt 0.792200 0.783000
vt 0.751600 0.594200
vt 0.855200 0.879600
vt 0.893100 0.389200
vt 0.961800 0.405200
vt 0.809300 0.395100
vt 0.725900 0.378600
vt 0.881800 0.302100
vt 0.942700 0.295400
vt 0.824300 0.298900
vt 0.770200 0.279900
vt 0.904900 0.253300
vt 0.869200 0.252200
vt 0.859800 0.216400
vt 0.883200 0.213900
vt 0.838700 0.248800
vt 0.799500 0.229900
vt 0.839600 0.208800
vt 0.863500 0.207000
vt 0.851300 0.268100
vt 0.843700 0.374000
vt 0.736300 0.357700
vt 0.752600 0.244100
vt 0.939100 0.235700
vt 0.951300 0.370700
vt 0.851100 0.182700
vt 0.839400 0.659100
vt 0.743700 0.669800
vt 0.938400 0.601800
vt 0.794500 0.836800
vt 0.844800 0.821900
vt 0.856500 0.900300
vt 0.905200 0.825700
vt 0.851300 0.268100
vt 0.843700 0.374000
vt 0.736300 0.357700
vt 0.752600 0.244100
vt 0.939100 0.235700
vt 0.951300 0.370700
vt 0.851100 0.182700
vt 0.839400 0.659100
vt 0.743700 0.669800
vt 0.938400 0.601800
vt 0.794500 0.836800
vt 0.844800 0.821900
vt 0.856500 0.900300
vt 0.905200 0.825700
vt 0.874000 0.762800
vt 0.879700 0.589200
vt 0.938000 0.602400
vt 0.923100 0.791100
vt 0.829600 0.761500
vt 0.820300 0.591800
vt 0.792200 0.783000
vt 0.751600 0.594200
vt 0.855200 0.879600
vt 0.893100 0.389200
vt 0.961800 0.405200
vt 0.809300 0.395100
vt 0.725900 0.378600
vt 0.881800 0.302100
vt 0.942700 0.295400
vt 0.824300 0.298900
vt 0.770200 0.279900
vt 0.904900 0.253300
vt 0.869200 0.252200
vt 0.859800 0.216400
vt 0.883200 0.213900
vt 0.838700 0.248800
vt 0.799500 0.229900
vt 0.839600 0.208800
vt 0.863500 0.207000
vt 0.874000 0.762800
vt 0.879700 0.589200
vt 0.938000 0.602400
vt 0.923100 0.791100
vt 0.829600 0.761500
vt 0.820300 0.591800
vt 0.792200 0.783000
vt 0.751600 0.594200
vt 0.855200 0.879600
vt 0.893100 0.389200
vt 0.961800 0.405200
vt 0.809300 0.395100
vt 0.725900 0.378600
vt 0.881800 0.302100
vt 0.942700 0.295400
vt 0.824300 0.298900
vt 0.770200 0.279900
vt 0.904900 0.253300
vt 0.869200 0.252200
vt 0.859800 0.216400
vt 0.883200 0.213900
vt 0.838700 0.248800
vt 0.799500 0.229900
vt 0.839600 0.208800
vt 0.863500 0.207000
vt 0.874000 0.762800
vt 0.879700 0.589200
vt 0.938000 0.602400
vt 0.923100 0.791100
vt 0.829600 0.761500
vt 0.820300 0.591800
vt 0.792200 0.783000
vt 0.751600 0.594200
vt 0.855200 0.879600
vt 0.893100 0.389200
vt 0.961800 0.405200
vt 0.809300 0.395100
vt 0.725900 0.378600
vt 0.881800 0.302100
vt 0.942700 0.295400
vt 0.824300 0.298900
vt 0.770200 0.279900
vt 0.904900 0.253300
vt 0.869200 0.252200
vt 0.859800 0.216400
vt 0.883200 0.213900
vt 0.838700 0.248800
vt 0.799500 0.229900
vt 0.839600 0.208800
vt 0.863500 0.207000
vt 0.851300 0.268100
vt 0.843700 0.374000
vt 0.736300 0.357700
vt 0.752600 0.244100
vt 0.939100 0.235700
vt 0.951300 0.370700
vt 0.851100 0.182700
vt 0.839400 0.659100
vt 0.743700 0.669800
vt 0.938400 0.601800
vt 0.794500 0.836800
vt 0.844800 0.821900
vt 0.856500 0.900300
vt 0.905200 0.825700
vt 0.851300 0.268100
vt 0.843700 0.374000
vt 0.736300 0.357700
vt 0.752600 0.244100
vt 0.939100 0.235700
vt 0.951300 0.370700
vt 0.851100 0.182700
vt 0.839400 0.659100
vt 0.743700 0.669800
vt 0.938400 0.601800
vt 0.794500 0.836800
vt 0.844800 0.821900
vt 0.856500 0.900300
vt 0.905200 0.825700
vt 0.213300 0.385200
vt 0.384800 0.701300
vt 0.337500 0.730700
vt 0.146400 0.419300
vt 0.278400 0.347800
vt 0.435400 0.678000
vt 0.355200 0.302300
vt 0.477700 0.666500
vt 0.082900 0.266600
vt 0.066200 0.458600
vt 0.010500 0.270500
vt 0.139400 0.249100
vt 0.184900 0.211300
vt 0.227600 0.152700
vt 0.087600 0.153500
vt 0.304600 0.759900
vt 0.441500 0.806500
vt 0.213300 0.385200
vt 0.146400 0.419300
vt 0.337500 0.730700
vt 0.384800 0.701300
vt 0.278400 0.347800
vt 0.435400 0.678000
vt 0.082900 0.266600
vt 0.139400 0.249100
vt 0.184900 0.211300
vt 0.458400 0.262000
vt 0.429100 0.231900
vt 0.458300 0.220900
vt 0.416800 0.261100
vt 0.428800 0.290700
vt 0.458500 0.303000
vt 0.488100 0.290600
vt 0.500000 0.260900
vt 0.487500 0.231700
vt 0.401200 0.203900
vt 0.458200 0.180700
vt 0.376900 0.261500
vt 0.400800 0.319300
vt 0.458600 0.343100
vt 0.516300 0.319000
vt 0.539900 0.261100
vt 0.515300 0.203600
vt 0.213300 0.385200
vt 0.384800 0.701300
vt 0.337500 0.730700
vt 0.146400 0.419300
vt 0.278400 0.347800
vt 0.435400 0.678000
vt 0.355200 0.302300
vt 0.477700 0.666500
vt 0.082900 0.266600
vt 0.066200 0.458600
vt 0.010500 0.270500
vt 0.139400 0.249100
vt 0.184900 0.211300
vt 0.227600 0.152700
vt 0.087600 0.153500
vt 0.304600 0.759900
vt 0.441500 0.806500
vt 0.213300 0.385200
vt 0.146400 0.419300
vt 0.337500 0.730700
vt 0.384800 0.701300
vt 0.278400 0.347800
vt 0.435400 0.678000
vt 0.082900 0.266600
vt 0.139400 0.249100
vt 0.184900 0.211300
vt 0.458400 0.262000
vt 0.429100 0.231900
vt 0.458300 0.220900
vt 0.416800 0.261100
vt 0.428800 0.290700
vt 0.458500 0.303000
vt 0.488100 0.290600
vt 0.500000 0.260900
vt 0.487500 0.231700
vt 0.401200 0.203900
vt 0.458200 0.180700
vt 0.376900 0.261500
vt 0.400800 0.319300
vt 0.458600 0.343100
vt 0.516300 0.319000
vt 0.539900 0.261100
vt 0.515300 0.203600
vt 0.116600 0.822200
vt 0.085700 0.822500
vt 0.088700 0.781200
vt 0.121100 0.786300
vt 0.103200 0.863200
vt 0.067700 0.875500
vt 0.076400 0.829200
vt 0.110400 0.819200
vt 0.064700 0.788600
vt 0.109000 0.772800
vt 0.106800 0.861800
vt 0.062400 0.852600
vt 0.056700 0.777400
vt 0.065100 0.803500
vt 0.047400 0.782200
vt 0.030500 0.865300
vt 0.050900 0.845000
vt 0.034100 0.874800
vt 0.026800 0.860100
vt 0.035500 0.818200
vt 0.039900 0.821100
vt 0.041000 0.782900
vt 0.148600 0.800200
vt 0.142800 0.837200
vt 0.143200 0.863000
vt 0.140100 0.821300
vt 0.147200 0.788900
vt 0.144700 0.872500
vt 0.183200 0.807000
vt 0.162000 0.824500
vt 0.176100 0.785800
vt 0.185500 0.852100
vt 0.183900 0.874500
vt 0.160100 0.831100
vt 0.179100 0.798900
vt 0.202300 0.827000
vt 0.178100 0.848200
vt 0.204800 0.822800
vt 0.227400 0.773200
vt 0.243700 0.873100
vt 0.116600 0.822200
vt 0.085700 0.822500
vt 0.088700 0.781200
vt 0.121100 0.786300
vt 0.103200 0.863200
vt 0.067700 0.875500
vt 0.076400 0.829200
vt 0.110400 0.819200
vt 0.064700 0.788600
vt 0.109000 0.772800
vt 0.106800 0.861800
vt 0.062400 0.852600
vt 0.056700 0.777400
vt 0.065100 0.803500
vt 0.047400 0.782200
vt 0.030500 0.865300
vt 0.050900 0.845000
vt 0.034100 0.874800
vt 0.026800 0.860100
vt 0.035500 0.818200
vt 0.039900 0.821100
vt 0.041000 0.782900
vt 0.148600 0.800200
vt 0.142800 0.837200
vt 0.143200 0.863000
vt 0.140100 0.821300
vt 0.147200 0.788900
vt 0.144700 0.872500
vt 0.183200 0.807000
vt 0.162000 0.824500
vt 0.176100 0.785800
vt 0.185500 0.852100
vt 0.183900 0.874500
vt 0.160100 0.831100
vt 0.179100 0.798900
vt 0.202300 0.827000
vt 0.178100 0.848200
vt 0.204800 0.822800
vt 0.227400 0.773200
vt 0.243700 0.873100
vn 0.5198 -0.7830 0.3418
vn 0.4709 -0.8812 0.0409
vn 0.7745 -0.6306 -0.0505
vn 0.8156 -0.5235 0.2464
vn -0.2447 -0.8252 0.5090
vn -0.2758 -0.9302 0.2424
vn -0.5632 -0.6150 0.5519
vn -0.6186 -0.7135 0.3290
vn 0.1994 -0.6632 0.7214
vn 0.5376 -0.8407 0.0651
vn 0.7633 -0.6455 0.0266
vn -0.0599 -0.9778 0.2009
vn -0.3957 -0.8853 0.2443
vn 0.5648 -0.7230 0.3979
vn 0.7337 -0.5864 0.3432
vn 0.1424 -0.8480 0.5105
vn -0.0892 -0.8759 0.4742
vn 0.0992 -0.4783 0.8726
vn 0.2425 -0.5506 0.7988
vn 0.1141 -0.0303 0.9930
vn 0.0118 0.3548 0.9349
vn 0.2999 -0.5756 0.7607
vn 0.2809 -0.5925 0.7550
vn 0.4322 -0.0686 0.8992
vn 0.1342 0.6245 0.7694
vn 0.5452 0.7967 0.2609
vn 0.6062 0.7941 -0.0431
vn 0.3798 0.9248 0.0203
vn 0.1338 0.9180 0.3734
vn 0.9754 0.1436 0.1671
vn 0.9530 0.2825 -0.1090
vn 0.9505 -0.2528 0.1808
vn 0.9894 -0.1206 -0.0808
vn 0.7036 0.3899 0.5941
vn 0.8570 0.5085 0.0840
vn 0.7594 0.6360 0.1372
vn 0.9999 0.0160 0.0022
vn 0.9764 -0.2106 -0.0475
vn 0.8496 0.2349 0.4722
vn 0.7705 0.5045 0.3897
vn 0.9220 -0.2083 0.3263
vn 0.9092 -0.3624 0.2049
vn -0.0668 0.6049 0.7935
vn 0.0773 0.1378 0.9874
vn -0.6624 -0.5456 0.5133
vn -0.7922 0.1075 0.6007
vn 0.4270 -0.6256 0.6529
vn 0.5908 -0.6851 0.4262
vn -0.0980 -0.9050 0.4140
vn -0.7763 -0.5740 0.2607
vn -0.7709 0.0162 0.6368
vn -0.9411 0.1527 0.3015
vn -0.9180 -0.2499 0.3078
vn -0.6607 -0.3987 0.6361
vn -0.4576 0.7265 0.5128
vn -0.6032 0.7686 0.2129
vn -0.1227 0.9002 0.4179
vn -0.3374 0.9294 0.1494
vn -0.3080 0.2588 0.9155
vn -0.9254 0.0524 0.3753
vn -0.9033 -0.2490 0.3493
vn -0.6055 0.7326 0.3110
vn -0.2610 0.9350 0.2400
vn -0.7676 0.0451 0.6393
vn -0.7262 -0.2045 0.6564
vn -0.5592 0.5856 0.5868
vn -0.3069 0.8304 0.4650
vn -0.3487 -0.1854 0.9187
vn -0.4670 0.0072 0.8842
vn -0.3169 0.2184 0.9230
vn -0.2089 -0.0366 0.9772
vn -0.3063 0.4263 0.8511
vn -0.2162 0.6504 0.7281
vn -0.1875 0.4654 0.8650
vn -0.4043 0.2839 0.8695
vn -0.4937 -0.3949 0.7748
vn -0.7475 -0.5384 0.3892
vn -0.4131 -0.8532 0.3183
vn -0.2250 -0.7077 0.6697
vn -0.6560 -0.0213 0.7544
vn -0.9116 -0.0410 0.4090
vn -0.1863 -0.2323 0.9546
vn -0.8083 -0.4528 0.3764
vn -0.8696 -0.3324 0.3652
vn -0.8804 -0.4113 0.2360
vn -0.6729 -0.3705 0.6403
vn -0.3760 -0.5676 0.7324
vn -0.0954 -0.4220 0.9015
vn -0.5490 -0.6614 0.5111
vn 0.0966 0.8026 0.5887
vn -0.0672 0.9826 0.1731
vn -0.4751 0.8482 0.2340
vn -0.3169 0.6850 0.6560
vn 0.4803 0.7545 0.4472
vn 0.4568 0.8817 0.1180
vn 0.1648 0.4856 0.8585
vn -0.3045 0.9455 0.1151
vn -0.3399 0.9315 0.1293
vn -0.0650 0.9976 0.0251
vn 0.1779 0.8198 0.5443
vn 0.0182 0.7546 0.6559
vn 0.1579 0.3982 0.9036
vn -0.1755 0.8366 0.5190
vn -0.6658 0.6930 0.2767
vn -0.6968 0.7151 -0.0552
vn -0.9364 0.3505 -0.0181
vn -0.8863 0.3667 0.2829
vn 0.0725 0.9578 0.2782
vn 0.0808 0.9955 -0.0498
vn 0.4480 0.8472 0.2856
vn 0.5081 0.8613 -0.0072
vn -0.2769 0.7709 0.5736
vn -0.6942 0.7183 0.0460
vn -0.9025 0.4294 0.0320
vn 0.0724 0.9974 0.0009
vn 0.4209 0.9071 -0.0035
vn -0.6674 0.6319 0.3941
vn -0.9069 0.3358 0.2545
vn -0.0259 0.9142 0.4044
vn 0.3433 0.9033 0.2572
vn -0.1462 0.5398 0.8290
vn -0.2694 0.5850 0.7650
vn 0.0306 0.1776 0.9836
vn 0.2442 0.0848 0.9660
vn -0.2493 0.6341 0.7319
vn -0.1206 0.7105 0.6933
vn -0.2203 0.1443 0.9647
vn 0.1469 -0.3351 0.9307
vn -0.0868 -0.8461 0.5259
vn -0.0918 -0.9732 0.2107
vn 0.3516 -0.9090 0.2237
vn 0.3117 -0.8057 0.5037
vn -0.7888 -0.4300 0.4393
vn -0.8336 -0.5401 0.1154
vn -0.9371 -0.0412 0.3466
vn -0.9960 -0.0782 0.0442
vn -0.3815 -0.5183 0.7654
vn -0.1101 -0.9816 0.1560
vn 0.1781 -0.9600 0.2161
vn -0.8151 -0.5744 0.0748
vn -0.9740 -0.2266 0.0064
vn -0.3346 -0.8724 0.3562
vn -0.1397 -0.8584 0.4935
vn -0.8334 -0.4588 0.3082
vn -0.9734 -0.0754 0.2162
vn -0.5017 -0.1835 0.8454
vn -0.5648 -0.4443 0.6954
vn 0.0900 -0.2163 0.9722
vn -0.3366 0.1370 0.9316
vn -0.4513 -0.6485 0.6131
vn -0.3836 -0.6426 0.6632
vn -0.1263 0.7302 -0.6715
vn 0.3948 0.7228 0.5672
vn 0.7401 0.4333 0.5142
vn 0.8904 0.4321 0.1434
vn 0.5917 0.8034 0.0665
vn 0.4875 0.7565 0.4360
vn 0.7271 -0.3643 0.5818
vn 0.8711 -0.4357 0.2266
vn 0.4905 -0.6711 0.5559
vn 0.5767 -0.7863 0.2218
vn 0.4984 0.0464 0.8657
vn 0.8594 0.4560 0.2314
vn 0.6650 0.7350 0.1327
vn 0.8461 -0.4434 0.2957
vn 0.6440 -0.7264 0.2399
vn 0.6965 0.4706 0.5416
vn 0.4893 0.7821 0.3859
vn 0.6578 -0.3707 0.6557
vn 0.4508 -0.7582 0.4711
vn 0.3432 0.2392 0.9083
vn 0.4995 0.3661 0.7852
vn 0.3976 0.1457 0.9059
vn 0.2346 -0.4441 0.8647
vn 0.5477 0.0100 0.8366
vn 0.3245 -0.4579 0.8277
vn 0.4187 0.4872 0.7664
vn 0.4834 0.1091 0.8686
vn 0.3757 0.7090 0.5968
vn 0.5159 0.8462 0.1338
vn 0.0079 0.9921 0.1254
vn -0.0344 0.8550 0.5175
vn 0.6697 0.4305 0.6052
vn 0.8555 0.4809 0.1919
vn 0.1693 0.4966 0.8513
vn 0.4761 0.8357 0.2738
vn 0.3173 0.9467 0.0561
vn 0.6626 0.7489 -0.0085
vn 0.0916 0.3376 0.9368
vn 0.2654 0.4714 0.8410
vn -0.2724 -0.1903 0.9432
vn 0.2210 0.6625 0.7157
vn 0.3082 -0.6322 0.7109
vn 0.4901 -0.8410 0.2292
vn 0.7911 -0.5649 0.2345
vn 0.6297 -0.3761 0.6797
vn -0.0430 -0.7659 0.6415
vn -0.0070 -0.9596 0.2814
vn 0.1649 -0.3444 0.9242
vn 0.4915 -0.8028 0.3376
vn 0.4618 -0.8704 0.1709
vn 0.3997 -0.9098 0.1114
vn 0.1127 -0.5988 0.7929
vn 0.2845 -0.3192 0.9040
vn -0.3420 0.4305 0.8353
vn 0.2082 -0.2288 0.9510
vn -0.0089 0.9980 -0.0627
vn -0.0706 0.9507 -0.3019
vn -0.7034 0.6934 -0.1562
vn -0.6735 0.7314 0.1067
vn 0.6536 0.7320 -0.1922
vn 0.5605 0.6941 -0.4516
vn 0.9687 0.0000 -0.2483
vn 0.8490 0.0000 -0.5284
vn -0.4805 0.5850 0.6533
vn -0.9806 0.0000 0.1958
vn -0.7072 -0.0000 0.7070
vn 0.1220 0.8631 0.4901
vn 0.7236 0.5891 0.3597
vn 0.9520 0.0000 0.3060
vn 0.2283 0.0000 0.9736
vn -0.9953 0.0000 -0.0965
vn -0.2289 0.0000 -0.9735
vn -0.0089 -0.9980 -0.0627
vn -0.6735 -0.7314 0.1067
vn -0.7034 -0.6934 -0.1562
vn -0.0706 -0.9507 -0.3019
vn 0.6536 -0.7320 -0.1922
vn 0.5606 -0.6941 -0.4516
vn -0.4805 -0.5850 0.6533
vn 0.1220 -0.8631 0.4901
vn 0.7236 -0.5891 0.3597
vn 0.2317 0.0211 0.9726
vn -0.3866 -0.5680 0.7266
vn 0.1640 -0.7898 0.5911
vn -0.6310 0.0432 0.7745
vn -0.3847 0.5791 0.7188
vn 0.1164 0.7986 0.5905
vn 0.6839 0.5645 0.4622
vn 0.9110 -0.0234 0.4118
vn 0.6683 -0.5680 0.4803
vn -0.6195 -0.7118 0.3312
vn 0.0658 -0.9838 0.1666
vn -0.9146 0.0411 0.4022
vn -0.6171 0.7143 0.3301
vn 0.0207 0.9821 0.1872
vn 0.7212 0.6924 0.0211
vn 0.9984 -0.0339 -0.0462
vn 0.6993 -0.7145 0.0199
vn 0.0062 0.9912 -0.1323
vn 0.0126 0.9268 -0.3754
vn -0.6353 0.6662 -0.3907
vn -0.6787 0.7222 -0.1331
vn 0.6795 0.7315 -0.0567
vn 0.6613 0.6744 -0.3284
vn 0.9996 0.0043 0.0268
vn 0.9614 -0.0169 -0.2747
vn -0.6428 0.6167 0.4544
vn -0.9967 -0.0081 -0.0804
vn -0.8740 0.0318 0.4848
vn -0.0192 0.8962 0.4432
vn 0.5957 0.6272 0.5018
vn 0.8315 0.0409 0.5539
vn -0.0475 0.0697 0.9964
vn -0.9307 -0.0278 -0.3648
vn 0.0470 -0.0697 -0.9965
vn 0.0111 -0.9999 0.0072
vn -0.6751 -0.7370 -0.0308
vn -0.6319 -0.7172 -0.2938
vn 0.0173 -0.9700 -0.2425
vn 0.6830 -0.7290 0.0456
vn 0.6647 -0.7104 -0.2314
vn -0.6399 -0.5505 0.5362
vn -0.0150 -0.8257 0.5638
vn 0.5986 -0.5481 0.5841
vn -0.0441 0.0907 0.9949
vn -0.5697 -0.5266 0.6310
vn -0.0025 -0.7450 0.6671
vn -0.8195 0.0810 0.5674
vn -0.5686 0.6173 0.5438
vn -0.0520 0.8385 0.5425
vn 0.5295 0.6086 0.5910
vn 0.7631 0.0236 0.6459
vn 0.5123 -0.5203 0.6833
vn -0.6848 -0.7013 0.1980
vn 0.0199 -0.9689 0.2466
vn -0.9900 0.0480 0.1328
vn -0.6857 0.7213 0.0979
vn -0.0339 0.9926 0.1166
vn 0.6861 0.7076 0.1691
vn 0.9728 -0.0154 0.2311
vn 0.6688 -0.6964 0.2602
vn -0.2315 -0.9558 -0.1813
vn 0.0592 -0.9962 -0.0641
vn -0.7789 -0.0003 0.6272
vn -0.7164 0.0477 0.6960
vn 0.0647 0.9979 -0.0096
vn -0.1316 0.9874 -0.0875
vn 0.7541 0.0206 -0.6564
vn 0.1314 0.0473 -0.9902
vn -0.6404 -0.0226 0.7677
vn 0.1260 -0.9537 0.2729
vn 0.1957 -0.8221 0.5346
vn 0.3062 0.7755 0.5521
vn 0.1813 0.9060 0.3826
vn 0.9599 0.0032 0.2803
vn 0.9982 -0.0396 -0.0440
vn 0.6883 -0.0564 0.7232
vn -0.2908 -0.9428 -0.1627
vn -0.3034 0.9522 -0.0352
vn -0.5543 0.0397 -0.8313
vn -0.0609 -0.9906 0.1223
vn -0.1549 -0.9879 -0.0008
vn 0.9948 -0.0321 -0.0967
vn -0.0145 0.9813 0.1918
vn -0.1277 0.9858 0.1087
vn -0.9789 0.0444 -0.1995
vn -0.9256 0.0220 0.3778
vn 0.4206 -0.0505 0.9058
vn 0.5148 0.7684 -0.3803
vn 0.3233 0.9279 -0.1858
vn 0.8780 -0.3289 0.3479
vn 0.8293 -0.3459 0.4389
vn -0.4547 -0.8770 0.1553
vn -0.3100 -0.9505 0.0198
vn -0.8749 0.3000 -0.3801
vn -0.4693 0.0127 -0.8829
vn 0.8169 -0.2501 0.5197
vn 0.3648 0.9176 0.1577
vn 0.3427 0.8278 0.4441
vn -0.3800 -0.5734 0.7258
vn -0.3834 -0.7444 0.5467
vn -0.7229 0.4028 0.5614
vn -0.8495 0.4577 0.2623
vn -0.3165 0.3420 0.8848
vn 0.5665 0.7316 -0.3793
vn -0.1318 -0.9912 0.0105
vn 0.1720 -0.2702 -0.9473
vn 0.4871 0.8721 -0.0471
vn 0.5240 0.8299 -0.1915
vn -0.8675 0.4495 0.2129
vn -0.3118 -0.8955 0.3175
vn -0.2456 -0.9474 0.2050
vn 0.7478 -0.4539 -0.4845
vn 0.9088 -0.4111 0.0713
vn -0.0283 0.2236 0.9743
s 1
f 1/1/1 2/2/2 3/3/3
f 3/3/3 4/4/4 1/1/1
f 5/5/5 6/6/6 2/2/2
f 2/2/2 1/1/1 5/5/5
f 7/7/7 8/8/8 6/6/6
f 6/6/6 5/5/5 7/7/7
f 9/9/9 1/1/1 4/4/4
f 9/9/9 5/5/5 1/1/1
f 9/9/9 7/7/7 5/5/5
f 3/3/3 2/2/2 10/10/10
f 10/10/10 11/11/11 3/3/3
f 2/2/2 6/6/6 12/12/12
f 12/12/12 10/10/10 2/2/2
f 6/6/6 8/8/8 13/13/13
f 13/13/13 12/12/12 6/6/6
f 11/11/11 10/10/10 14/14/14
f 14/14/14 15/15/15 11/11/11
f 10/10/10 12/12/12 16/16/16
f 16/16/16 14/14/14 10/10/10
f 12/12/12 13/13/13 17/17/17
f 17/17/17 16/16/16 12/12/12
f 18/18/18 19/19/19 20/20/20
f 20/20/20 21/21/21 18/18/18
f 19/19/19 22/22/22 20/20/20
f 22/22/22 23/23/23 24/24/24
f 24/24/24 20/20/20 22/22/22
f 21/21/21 20/20/20 25/25/25
f 20/20/20 24/24/24 25/25/25
f 19/19/19 18/18/18 15/15/15
f 15/15/15 14/14/14 19/19/19
f 14/14/14 16/16/16 22/22/22
f 22/22/22 19/19/19 14/14/14
f 16/16/16 17/17/17 23/23/23
f 23/23/23 22/22/22 16/16/16
s 2
f 26/26/26 27/27/27 28/28/28
f 28/28/28 29/29/29 26/26/26
f 30/30/30 31/31/31 27/27/27
f 27/27/27 26/26/26 30/30/30
f 32/32/32 33/33/33 31/31/31
f 31/31/31 30/30/30 32/32/32
f 34/34/34 26/26/26 29/29/29
f 34/34/34 30/30/30 26/26/26
f 34/34/34 32/32/32 30/30/30
f 28/28/28 27/27/27 35/35/35
f 35/35/35 36/36/36 28/28/28
f 27/27/27 31/31/31 37/37/37
f 37/37/37 35/35/35 27/27/27
f 31/31/31 33/33/33 38/38/38
f 38/38/38 37/37/37 31/31/31
f 36/36/36 35/35/35 39/39/39
f 39/39/39 40/40/40 36/36/36
f 35/35/35 37/37/37 41/41/41
f 41/41/41 39/39/39 35/35/35
f 37/37/37 38/38/38 42/42/42
f 42/42/42 41/41/41 37/37/37
f 43/43/43 44/44/44 45/45/45
f 45/45/45 46/46/46 43/43/43
f 44/44/44 47/47/47 45/45/45
f 47/47/47 48/48/48 49/49/49
f 49/49/49 45/45/45 47/47/47
f 46/46/46 45/45/45 50/50/50
f 45/45/45 49/49/49 50/50/50
f 44/44/44 43/43/43 40/40/40
f 40/40/40 39/39/39 44/44/44
f 39/39/39 41/41/41 47/47/47
f 47/47/47 44/44/44 39/39/39
f 41/41/41 42/42/42 48/48/48
f 48/48/48 47/47/47 41/41/41
s 3
f 51/51/51 52/52/52 53/53/53
f 53/53/53 54/54/54 51/51/51
f 55/55/55 56/56/56 52/52/52
f 52/52/52 51/51/51 55/55/55
f 57/57/57 58/58/58 56/56/56
f 56/56/56 55/55/55 57/57/57
f 59/59/59 51/51/51 54/54/54
f 59/59/59 55/55/55 51/51/51
f 59/59/59 57/57/57 55/55/55
f 53/53/53 52/52/52 60/60/60
f 60/60/60 61/61/61 53/53/53
f 52/52/52 56/56/56 62/62/62
f 62/62/62 60/60/60 52/52/52
f 56/56/56 58/58/58 63/63/63
f 63/63/63 62/62/62 56/56/56
f 61/61/61 60/60/60 64/64/64
f 64/64/64 65/65/65 61/61/61
f 60/60/60 62/62/62 66/66/66
f 66/66/66 64/64/64 60/60/60
f 62/62/62 63/63/63 67/67/67
f 67/67/67 66/66/66 62/62/62
f 68/68/68 69/69/69 70/70/70
f 70/70/70 71/71/71 68/68/68
f 69/69/69 72/72/72 70/70/70
f 72/72/72 73/73/73 74/74/74
f 74/74/74 70/70/70 72/72/72
f 71/71/71 70/70/70 75/75/75
f 70/70/70 74/74/74 75/75/75
f 69/69/69 68/68/68 65/65/65
f 65/65/65 64/64/64 69/69/69
f 64/64/64 66/66/66 72/72/72
f 72/72/72 69/69/69 64/64/64
f 66/66/66 67/67/67 73/73/73
f 73/73/73 72/72/72 66/66/66
s 4
f 76/76/76 77/77/77 78/78/78
f 78/78/78 79/79/79 76/76/76
f 80/80/80 81/81/81 77/77/77
f 77/77/77 76/76/76 80/80/80
f 82/82/82 76/76/76 79/79/79
f 82/82/82 80/80/80 76/76/76
f 78/78/78 77/77/77 83/83/83
f 83/83/83 84/84/84 78/78/78
f 77/77/77 81/81/81 85/85/85
f 85/85/85 83/83/83 77/77/77
f 86/86/86 87/87/87 88/88/88
f 87/87/87 89/89/89 88/88/88
f 87/87/87 86/86/86 84/84/84
f 84/84/84 83/83/83 87/87/87
f 83/83/83 85/85/85 89/89/89
f 89/89/89 87/87/87 83/83/83
s 5
f 90/90/90 91/91/91 92/92/92
f 92/92/92 93/93/93 90/90/90
f 94/94/94 95/95/95 91/91/91
f 91/91/91 90/90/90 94/94/94
f 96/96/96 90/90/90 93/93/93
f 96/96/96 94/94/94 90/90/90
f 92/92/92 91/91/91 97/97/97
f 97/97/97 98/98/98 92/92/92
f 91/91/91 95/95/95 99/99/99
f 99/99/99 97/97/97 91/91/91
f 100/100/100 101/101/101 102/102/102
f 101/101/101 103/103/103 102/102/102
f 101/101/101 100/100/100 98/98/98
f 98/98/98 97/97/97 101/101/101
f 97/97/97 99/99/99 103/103/103
f 103/103/103 101/101/101 97/97/97
s 6
f 104/104/104 105/105/105 106/106/106
f 106/106/106 107/107/107 104/104/104
f 108/108/108 109/109/109 105/105/105
f 105/105/105 104/104/104 108/108/108
f 110/110/110 111/111/111 109/109/109
f 109/109/109 108/108/108 110/110/110
f 112/112/112 104/104/104 107/107/107
f 112/112/112 108/108/108 104/104/104
f 112/112/112 110/110/110 108/108/108
f 106/106/106 105/105/105 113/113/113
f 113/113/113 114/114/114 106/106/106
f 105/105/105 109/109/109 115/115/115
f 115/115/115 113/113/113 105/105/105
f 109/109/109 111/111/111 116/116/116
f 116/116/116 115/115/115 109/109/109
f 114/114/114 113/113/113 117/117/117
f 117/117/117 118/118/118 114/114/114
f 113/113/113 115/115/115 119/119/119
f 119/119/119 117/117/117 113/113/113
f 115/115/115 116/116/116 120/120/120
f 120/120/120 119/119/119 115/115/115
f 121/121/121 122/122/122 123/123/123
f 123/123/123 124/124/124 121/121/121
f 122/122/122 125/125/125 123/123/123
f 125/125/125 126/126/126 127/127/127
f 127/127/127 123/123/123 125/125/125
f 124/124/124 123/123/123 128/128/128
f 123/123/123 127/127/127 128/128/128
f 122/122/122 121/121/121 118/118/118
f 118/118/118 117/117/117 122/122/122
f 117/117/117 119/119/119 125/125/125
f 125/125/125 122/122/122 117/117/117
f 119/119/119 120/120/120 126/126/126
f 126/126/126 125/125/125 119/119/119
s 7
f 129/129/129 130/130/130 131/131/131
f 131/131/131 132/132/132 129/129/129
f 133/133/133 134/134/134 130/130/130
f 130/130/130 129/129/129 133/133/133
f 135/135/135 136/136/136 134/134/134
f 134/134/134 133/133/133 135/135/135
f 137/137/137 129/129/129 132/132/132
f 137/137/137 133/133/133 129/129/129
f 137/137/137 135/135/135 133/133/133
f 131/131/131 130/130/130 138/138/138
f 138/138/138 139/139/139 131/131/131
f 130/130/130 134/134/134 140/140/140
f 140/140/140 138/138/138 130/130/130
f 134/134/134 136/136/136 141/141/141
f 141/141/141 140/140/140 134/134/134
f 139/139/139 138/138/138 142/142/142
f 142/142/142 143/143/143 139/139/139
f 138/138/138 140/140/140 144/144/144
f 144/144/144 142/142/142 138/138/138
f 140/140/140 141/141/141 145/145/145
f 145/145/145 144/144/144 140/140/140
f 146/146/146 147/147/147 148/148/148
f 148/148/148 149/149/149 146/146/146
f 147/147/147 150/150/150 148/148/148
f 150/150/150 151/151/151 152/152/152
f 152/152/152 148/148/148 150/150/150
f 149/149/149 148/148/148 153/153/153
f 148/148/148 152/152/152 153/153/153
f 147/147/147 146/146/146 143/143/143
f 143/143/143 142/142/142 147/147/147
f 142/142/142 144/144/144 150/150/150
f 150/150/150 147/147/147 142/142/142
f 144/144/144 145/145/145 151/151/151
f 151/151/151 150/150/150 144/144/144
s 8
f 154/154/154 155/155/155 156/156/156
f 156/156/156 157/157/157 154/154/154
f 158/158/158 159/159/159 155/155/155
f 155/155/155 154/154/154 158/158/158
f 160/160/160 161/161/161 159/159/159
f 159/159/159 158/158/158 160/160/160
f 162/162/162 154/154/154 157/157/157
f 162/162/162 158/158/158 154/154/154
f 162/162/162 160/160/160 158/158/158
f 156/156/156 155/155/155 163/163/163
f 163/163/163 164/164/164 156/156/156
f 155/155/155 159/159/159 165/165/165
f 165/165/165 163/163/163 155/155/155
f 159/159/159 161/161/161 166/166/166
f 166/166/166 165/165/165 159/159/159
f 164/164/164 163/163/163 167/167/167
f 167/167/167 168/168/168 164/164/164
f 163/163/163 165/165/165 169/169/169
f 169/169/169 167/167/167 163/163/163
f 165/165/165 166/166/166 170/170/170
f 170/170/170 169/169/169 165/165/165
f 171/171/171 172/172/172 173/173/173
f 173/173/173 174/174/174 171/171/171
f 172/172/172 175/175/175 173/173/173
f 175/175/175 176/176/176 177/177/177
f 177/177/177 173/173/173 175/175/175
f 174/174/174 173/173/173 178/178/178
f 173/173/173 177/177/177 178/178/178
f 172/172/172 171/171/171 168/168/168
f 168/168/168 167/167/167 172/172/172
f 167/167/167 169/169/169 175/175/175
f 175/175/175 172/172/172 167/167/167
f 169/169/169 170/170/170 176/176/176
f 176/176/176 175/175/175 169/169/169
s 9
f 179/179/179 180/180/180 181/181/181
f 181/181/181 182/182/182 179/179/179
f 183/183/183 184/184/184 180/180/180
f 180/180/180 179/179/179 183/183/183
f 185/185/185 179/179/179 182/182/182
f 185/185/185 183/183/183 179/179/179
f 181/181/181 180/180/180 186/186/186
f 186/186/186 187/187/187 181/181/181
f 180/180/180 184/184/184 188/188/188
f 188/188/188 186/186/186 180/180/180
f 189/189/189 190/190/190 191/191/191
f 190/190/190 192/192/192 191/191/191
f 190/190/190 189/189/189 187/187/187
f 187/187/187 186/186/186 190/190/190
f 186/186/186 188/188/188 192/192/192
f 192/192/192 190/190/190 186/186/186
s 10
f 193/193/193 194/194/194 195/195/195
f 195/195/195 196/196/196 193/193/193
f 197/197/197 198/198/198 194/194/194
f 194/194/194 193/193/193 197/197/197
f 199/199/199 193/193/193 196/196/196
f 199/199/199 197/197/197 193/193/193
f 195/195/195 194/194/194 200/200/200
f 200/200/200 201/201/201 195/195/195
f 194/194/194 198/198/198 202/202/202
f 202/202/202 200/200/200 194/194/194
f 203/203/203 204/204/204 205/205/205
f 204/204/204 206/206/206 205/205/205
f 204/204/204 203/203/203 201/201/201
f 201/201/201 200/200/200 204/204/204
f 200/200/200 202/202/202 206/206/206
f 206/206/206 204/204/204 200/200/200
s 11
f 207/207/207 208/208/208 209/209/209
f 209/209/209 210/210/210 207/207/207
f 211/211/211 212/212/212 208/208/208
f 208/208/208 207/207/207 211/211/211
f 213/213/213 214/214/214 212/212/212
f 212/212/212 211/211/211 213/213/213
f 215/215/215 210/210/210 216/216/216
f 216/216/216 217/217/217 215/215/215
f 218/218/218 207/207/207 210/210/210
f 210/210/210 215/215/215 218/218/218
f 219/219/219 211/211/211 207/207/207
f 207/207/207 218/218/218 219/219/219
f 220/220/220 213/213/213 211/211/211
f 211/211/211 219/219/219 220/220/220
f 221/221/221 215/215/215 217/217/217
f 221/221/221 218/218/218 215/215/215
f 221/221/221 219/219/219 218/218/218
f 221/221/221 220/220/220 219/219/219
f 222/222/222 209/209/209 223/223/223
f 209/209/209 208/208/208 223/223/223
f 223/223/223 208/208/208 212/212/212
f 223/223/223 212/212/212 214/214/214
f 210/210/210 209/209/209 222/222/222
f 222/222/222 216/216/216 210/210/210
f 224/224/224 225/225/225 226/226/226
f 226/226/226 227/227/227 224/224/224
f 228/228/228 224/224/224 227/227/227
f 227/227/227 229/229/229 228/228/228
f 213/213/213 228/228/228 229/229/229
f 229/229/229 214/214/214 213/213/213
f 230/230/230 217/217/217 216/216/216
f 216/216/216 225/225/225 230/230/230
f 231/231/231 230/230/230 225/225/225
f 225/225/225 224/224/224 231/231/231
f 232/232/232 231/231/231 224/224/224
f 224/224/224 228/228/228 232/232/232
f 220/220/220 232/232/232 228/228/228
f 228/228/228 213/213/213 220/220/220
f 221/221/221 217/217/217 230/230/230
f 221/221/221 230/230/230 231/231/231
f 221/221/221 231/231/231 232/232/232
f 221/221/221 232/232/232 220/220/220
f 222/222/222 223/223/223 226/226/226
f 226/226/226 223/223/223 227/227/227
f 223/223/223 229/229/229 227/227/227
f 223/223/223 214/214/214 229/229/229
f 222/222/222 226/226/226 225/225/225
f 225/225/225 216/216/216 222/222/222
s 12
f 233/233/233 234/234/234 235/235/235
f 233/233/233 236/236/236 234/234/234
f 233/233/233 237/237/237 236/236/236
f 233/233/233 238/238/238 237/237/237
f 233/233/233 239/239/239 238/238/238
f 233/233/233 240/240/240 239/239/239
f 233/233/233 241/241/241 240/240/240
f 233/233/233 235/235/235 241/241/241
f 235/235/235 234/234/234 242/242/242
f 242/242/242 243/243/243 235/235/235
f 234/234/234 236/236/236 244/244/244
f 244/244/244 242/242/242 234/234/234
f 236/236/236 237/237/237 245/245/245
f 245/245/245 244/244/244 236/236/236
f 237/237/237 238/238/238 246/246/246
f 246/246/246 245/245/245 237/237/237
f 238/238/238 239/239/239 247/247/247
f 247/247/247 246/246/246 238/238/238
f 239/239/239 240/240/240 248/248/248
f 248/248/248 247/247/247 239/239/239
f 240/240/240 241/241/241 249/249/249
f 249/249/249 248/248/248 240/240/240
f 241/241/241 235/235/235 243/243/243
f 243/243/243 249/249/249 241/241/241
s 13
f 250/250/250 251/251/251 252/252/252
f 252/252/252 253/253/253 250/250/250
f 254/254/254 255/255/255 251/251/251
f 251/251/251 250/250/250 254/254/254
f 256/256/256 257/257/257 255/255/255
f 255/255/255 254/254/254 256/256/256
f 258/258/258 253/253/253 259/259/259
f 259/259/259 260/260/260 258/258/258
f 261/261/261 250/250/250 253/253/253
f 253/253/253 258/258/258 261/261/261
f 262/262/262 254/254/254 250/250/250
f 250/250/250 261/261/261 262/262/262
f 263/263/263 256/256/256 254/254/254
f 254/254/254 262/262/262 263/263/263
f 264/264/264 258/258/258 260/260/260
f 264/264/264 261/261/261 258/258/258
f 264/264/264 262/262/262 261/261/261
f 264/264/264 263/263/263 262/262/262
f 265/265/265 252/252/252 266/266/266
f 252/252/252 251/251/251 266/266/266
f 266/266/266 251/251/251 255/255/255
f 266/266/266 255/255/255 257/257/257
f 253/253/253 252/252/252 265/265/265
f 265/265/265 259/259/259 253/253/253
f 267/267/267 268/268/268 269/269/269
f 269/269/269 270/270/270 267/267/267
f 271/271/271 267/267/267 270/270/270
f 270/270/270 272/272/272 271/271/271
f 256/256/256 271/271/271 272/272/272
f 272/272/272 257/257/257 256/256/256
f 273/273/273 260/260/260 259/259/259
f 259/259/259 268/268/268 273/273/273
f 274/274/274 273/273/273 268/268/268
f 268/268/268 267/267/267 274/274/274
f 275/275/275 274/274/274 267/267/267
f 267/267/267 271/271/271 275/275/275
f 263/263/263 275/275/275 271/271/271
f 271/271/271 256/256/256 263/263/263
f 264/264/264 260/260/260 273/273/273
f 264/264/264 273/273/273 274/274/274
f 264/264/264 274/274/274 275/275/275
f 264/264/264 275/275/275 263/263/263
f 265/265/265 266/266/266 269/269/269
f 269/269/269 266/266/266 270/270/270
f 266/266/266 272/272/272 270/270/270
f 266/266/266 257/257/257 272/272/272
f 265/265/265 269/269/269 268/268/268
f 268/268/268 259/259/259 265/265/265
s 14
f 276/276/276 277/277/277 278/278/278
f 276/276/276 279/279/279 277/277/277
f 276/276/276 280/280/280 279/279/279
f 276/276/276 281/281/281 280/280/280
f 276/276/276 282/282/282 281/281/281
f 276/276/276 283/283/283 282/282/282
f 276/276/276 284/284/284 283/283/283
f 276/276/276 278/278/278 284/284/284
f 278/278/278 277/277/277 285/285/285
f 285/285/285 286/286/286 278/278/278
f 277/277/277 279/279/279 287/287/287
f 287/287/287 285/285/285 277/277/277
f 279/279/279 280/280/280 288/288/288
f 288/288/288 287/287/287 279/279/279
f 280/280/280 281/281/281 289/289/289
f 289/289/289 288/288/288 280/280/280
f 281/281/281 282/282/282 290/290/290
f 290/290/290 289/289/289 281/281/281
f 282/282/282 283/283/283 291/291/291
f 291/291/291 290/290/290 282/282/282
f 283/283/283 284/284/284 292/292/292
f 292/292/292 291/291/291 283/283/283
f 284/284/284 278/278/278 286/286/286
f 286/286/286 292/292/292 284/284/284
s 15
f 293/293/293 294/294/294 295/295/295
f 295/295/295 296/296/296 293/293/293
f 296/297/296 295/298/295 297/299/297
f 297/299/297 298/300/298 296/297/296
f 299/301/299 300/302/300 298/300/298
f 298/300/298 297/299/297 299/301/299
f 294/294/294 293/293/293 300/303/300
f 300/303/300 299/304/299 294/294/294
f 301/305/301 295/295/295 302/306/302
f 302/306/302 303/307/303 301/305/301
f 304/308/304 305/309/305 295/298/295
f 295/298/295 301/310/301 304/308/304
f 305/309/305 304/308/304 306/311/306
f 306/311/306 307/312/307 305/309/305
f 307/313/307 306/314/306 303/307/303
f 303/307/303 302/306/302 307/313/307
f 308/315/308 309/316/309 293/293/293
f 293/293/293 296/296/296 308/315/308
f 308/317/308 296/297/296 298/300/298
f 298/300/298 310/318/310 308/317/308
f 298/300/298 300/302/300 311/319/311
f 311/319/311 310/318/310 298/300/298
f 300/303/300 293/293/293 309/316/309
f 309/316/309 311/320/311 300/303/300
f 312/321/312 313/322/313 308/315/308
f 308/315/308 314/323/314 312/321/312
f 315/324/315 314/325/314 308/317/308
f 308/317/308 316/326/316 315/324/315
f 316/326/316 317/327/317 318/328/318
f 318/328/318 315/324/315 316/326/316
f 317/329/317 313/322/313 312/321/312
f 312/321/312 318/330/318 317/329/317
f 312/321/312 314/323/314 319/331/319
f 314/325/314 315/324/315 319/332/319
f 315/324/315 318/328/318 319/332/319
f 318/330/318 312/321/312 319/331/319
f 294/294/294 302/306/302 295/295/295
f 297/299/297 295/298/295 305/309/305
f 297/299/297 305/309/305 307/312/307
f 307/312/307 299/301/299 297/299/297
f 299/304/299 307/313/307 302/306/302
f 302/306/302 294/294/294 299/304/299
f 309/316/309 308/315/308 313/322/313
f 310/318/310 316/326/316 308/317/308
f 311/319/311 317/327/317 316/326/316
f 316/326/316 310/318/310 311/319/311
f 309/316/309 313/322/313 317/329/317
f 317/329/317 311/320/311 309/316/309
s 16
f 320/333/320 321/334/321 322/335/322
f 322/335/322 323/336/323 320/333/320
f 323/337/323 322/338/322 324/339/324
f 324/339/324 325/340/325 323/337/323
f 326/341/326 327/342/327 325/340/325
f 325/340/325 324/339/324 326/341/326
f 321/334/321 320/333/320 327/343/327
f 327/343/327 326/344/326 321/334/321
f 328/345/328 322/335/322 329/346/329
f 329/346/329 330/347/330 328/345/328
f 331/348/331 332/349/332 322/338/322
f 322/338/322 328/350/328 331/348/331
f 332/349/332 331/348/331 333/351/333
f 333/351/333 334/352/334 332/349/332
f 334/353/334 333/354/333 330/347/330
f 330/347/330 329/346/329 334/353/334
f 335/355/335 336/356/336 320/333/320
f 320/333/320 323/336/323 335/355/335
f 335/357/335 323/337/323 325/340/325
f 325/340/325 337/358/337 335/357/335
f 325/340/325 327/342/327 338/359/338
f 338/359/338 337/358/337 325/340/325
f 327/343/327 320/333/320 336/356/336
f 336/356/336 338/360/338 327/343/327
f 339/361/339 340/362/340 335/355/335
f 335/355/335 341/363/341 339/361/339
f 342/364/342 341/365/341 335/357/335
f 335/357/335 343/366/343 342/364/342
f 343/366/343 344/367/344 345/368/345
f 345/368/345 342/364/342 343/366/343
f 344/369/344 340/362/340 339/361/339
f 339/361/339 345/370/345 344/369/344
f 339/361/339 341/363/341 346/371/346
f 341/365/341 342/364/342 346/372/346
f 342/364/342 345/368/345 346/372/346
f 345/370/345 339/361/339 346/371/346
f 321/334/321 329/346/329 322/335/322
f 324/339/324 322/338/322 332/349/332
f 324/339/324 332/349/332 334/352/334
f 334/352/334 326/341/326 324/339/324
f 326/344/326 334/353/334 329/346/329
f 329/346/329 321/334/321 326/344/326
f 336/356/336 335/355/335 340/362/340
f 337/358/337 343/366/343 335/357/335
f 338/359/338 344/367/344 343/366/343
f 343/366/343 337/358/337 338/359/338
f 336/356/336 340/362/340 344/369/344
f 344/369/344 338/360/338 336/356/336
