# Blender v3.3.0 OBJ File: ''
# www.blender.org
o ItemSwitchGrass
v 0.007120 -0.154064 -0.050541
v -0.033504 -0.153563 -0.044818
v -0.025164 0.009421 -0.027396
v 0.010382 0.008983 -0.032403
v -0.025288 0.091082 -0.035057
v 0.006710 0.092727 -0.039747
v -0.027682 0.206717 -0.049127
v 0.000194 0.207915 -0.058350
v -0.083475 0.354373 -0.132593
v -0.055599 0.355572 -0.141816
v -0.024940 0.009431 -0.026008
v -0.033247 -0.153536 -0.043232
v 0.007376 -0.154036 -0.048955
v 0.010606 0.008993 -0.031015
v -0.025096 0.091009 -0.033795
v 0.006901 0.092654 -0.038484
v 0.000564 0.207825 -0.057244
v -0.027312 0.206627 -0.048021
v -0.083104 0.354283 -0.131487
v -0.055228 0.355481 -0.140710
v -0.016560 -0.153277 0.048810
v 0.023907 -0.153277 0.055666
v 0.017567 0.007336 0.026684
v -0.017880 0.007336 0.020791
v 0.017783 0.069473 0.037521
v -0.014020 0.068624 0.032349
v 0.012765 0.202356 0.080928
v -0.016479 0.199466 0.080867
v 0.010847 0.317800 0.181777
v -0.018397 0.314910 0.181717
v 0.017392 0.007336 0.025271
v 0.023754 -0.153277 0.054073
v -0.016712 -0.153277 0.047217
v -0.018056 0.007336 0.019377
v 0.017571 0.069379 0.036312
v -0.014230 0.068531 0.031140
v -0.016904 0.199302 0.079742
v 0.012341 0.202192 0.079803
v 0.010422 0.317635 0.180653
v -0.018822 0.314746 0.180592
v 0.062276 -0.153277 -0.028791
v 0.039501 -0.153277 -0.062844
v 0.012378 0.007336 -0.034374
v 0.032311 0.007336 -0.004590
v 0.009822 0.106688 -0.035001
v 0.028082 0.109406 -0.007734
v 0.024906 0.239908 -0.045702
v 0.041194 0.242605 -0.021396
v 0.065052 0.394709 -0.093570
v 0.081340 0.397405 -0.069264
v 0.011007 0.007336 -0.034107
v 0.037966 -0.153277 -0.062464
v 0.060740 -0.153277 -0.028411
v 0.030940 0.007336 -0.004323
v 0.008530 0.106634 -0.034800
v 0.026787 0.109352 -0.007537
v 0.040005 0.242547 -0.021279
v 0.023717 0.239851 -0.045585
v 0.063864 0.394652 -0.093453
v 0.080152 0.397348 -0.069147
v 0.007278 -0.153277 0.014295
v 0.036833 -0.153277 -0.013671
v 0.014686 0.007336 -0.022096
v -0.011174 0.007336 0.002353
v 0.027029 0.135291 0.013615
v 0.003974 0.130582 0.035422
v 0.034695 0.266649 0.042140
v 0.013575 0.262138 0.062076
v 0.082146 0.422991 0.079263
v 0.061026 0.418480 0.099199
v 0.013352 0.007336 -0.022453
v 0.035308 -0.153277 -0.014075
v 0.005753 -0.153277 0.013891
v -0.012508 0.007336 0.001996
v 0.025733 0.135159 0.013492
v 0.002679 0.130449 0.035298
v 0.012465 0.262030 0.061810
v 0.033585 0.266540 0.041874
v 0.081036 0.422882 0.078997
v 0.059916 0.418371 0.098933
v 0.031237 -0.153277 0.047662
v 0.049620 -0.153277 0.010942
v 0.030814 0.007336 -0.005109
v 0.014764 0.007336 0.027047
v 0.037079 0.093374 -0.004115
v 0.022670 0.094604 0.024858
v 0.076276 0.206289 0.004159
v 0.067899 0.206679 0.032323
v 0.172984 0.350681 -0.007561
v 0.164607 0.351071 0.020603
v 0.029454 0.007336 -0.004954
v 0.048082 -0.153277 0.011010
v 0.029699 -0.153277 0.047731
v 0.013405 0.007336 0.027202
v 0.035875 0.093298 -0.003891
v 0.021467 0.094529 0.025081
v 0.066719 0.206572 0.032781
v 0.075096 0.206183 0.004617
v 0.171804 0.350574 -0.007103
v 0.163427 0.350964 0.021061
v -0.021757 -0.153277 0.007536
v 0.010188 -0.153277 0.032584
v -0.020173 0.007336 0.000912
v 0.011302 0.007336 0.018066
v -0.010002 0.095764 0.035897
v -0.038832 0.093206 0.020207
v -0.057560 0.262106 0.094643
v -0.083368 0.260086 0.080743
v -0.112221 0.361483 0.162196
v -0.138030 0.359464 0.148296
v 0.012673 0.007336 0.017721
v 0.011772 -0.153277 0.032751
v -0.018801 0.007336 0.000566
v -0.008647 0.095682 0.035835
v -0.037474 0.093125 0.020147
v -0.082279 0.259976 0.080516
v -0.056471 0.261996 0.094415
v -0.111132 0.361373 0.161969
v -0.136941 0.359353 0.148069
v 0.016764 -0.153277 -0.005500
v 0.008941 -0.153277 0.034855
v -0.018106 0.007336 0.009416
v -0.011261 0.007336 -0.025895
v -0.033275 0.107847 0.001422
v -0.027192 0.106857 -0.029967
v -0.069302 0.231959 -0.006144
v -0.063711 0.230979 -0.034982
v -0.122539 0.349350 -0.013328
v -0.116949 0.348369 -0.042166
v -0.016735 0.007336 0.009695
v 0.010507 -0.153277 0.035174
v 0.018330 -0.153277 -0.005181
v -0.009890 0.007336 -0.025616
v -0.032037 0.107735 0.001663
v -0.025954 0.106744 -0.029724
v -0.062572 0.230870 -0.034762
v -0.068162 0.231850 -0.005923
v -0.121399 0.349241 -0.013108
v -0.115809 0.348260 -0.041946
v -0.027752 -0.155082 -0.011869
v -0.036033 -0.151577 0.028195
v -0.029258 0.008671 0.018149
v -0.022129 0.005600 -0.016949
v -0.035228 0.084228 0.014504
v -0.028962 0.081012 -0.016950
v -0.074122 0.188759 0.006560
v -0.072918 0.183410 -0.022311
v -0.178463 0.277816 0.012753
v -0.177259 0.272467 -0.016117
v -0.027844 0.008679 0.017970
v -0.034447 -0.151566 0.028044
v -0.026166 -0.155071 -0.012019
v -0.020716 0.005609 -0.017128
v -0.034025 0.084136 0.014290
v -0.027759 0.080920 -0.017161
v -0.071787 0.183224 -0.022733
v -0.072991 0.188573 0.006138
v -0.177332 0.277630 0.012332
v -0.176129 0.272282 -0.016539
v -0.020173 -0.153277 0.007703
v 0.014406 -0.000000 0.044338
v 0.014406 0.000000 -0.044338
v 0.046620 0.000000 0.000000
v 0.014406 0.012479 -0.044338
v 0.046620 0.012479 0.000000
v -0.037716 0.000000 -0.027403
v -0.037716 0.012479 -0.027403
v -0.037716 -0.000000 0.027403
v -0.037716 0.012479 0.027403
v 0.014406 0.012479 0.044338
vt 0.412600 0.508300
vt 0.428600 0.508300
vt 0.428600 0.625900
vt 0.412600 0.625900
vt 0.428600 0.715100
vt 0.412600 0.715100
vt 0.428600 0.860900
vt 0.412600 0.860900
vt 0.428600 0.978400
vt 0.412600 0.978400
vt 0.428600 0.625900
vt 0.428600 0.508300
vt 0.412600 0.508300
vt 0.412600 0.625900
vt 0.428600 0.715100
vt 0.412600 0.715100
vt 0.412600 0.860900
vt 0.428600 0.860900
vt 0.428600 0.978400
vt 0.412600 0.978400
vt 0.412600 0.508300
vt 0.428600 0.508300
vt 0.428600 0.625900
vt 0.412600 0.625900
vt 0.428600 0.716600
vt 0.412600 0.716600
vt 0.428600 0.860900
vt 0.412600 0.860900
vt 0.428600 0.978400
vt 0.412600 0.978400
vt 0.428600 0.625900
vt 0.428600 0.508300
vt 0.412600 0.508300
vt 0.412600 0.625900
vt 0.428600 0.716600
vt 0.412600 0.716600
vt 0.412600 0.860900
vt 0.428600 0.860900
vt 0.428600 0.978400
vt 0.412600 0.978400
vt 0.372800 0.508300
vt 0.388800 0.508300
vt 0.388800 0.625800
vt 0.372800 0.625800
vt 0.388800 0.709300
vt 0.372800 0.709300
vt 0.388800 0.860900
vt 0.372800 0.860900
vt 0.388800 0.978400
vt 0.372800 0.978400
vt 0.388800 0.625800
vt 0.388800 0.508300
vt 0.372800 0.508300
vt 0.372800 0.625800
vt 0.388800 0.709400
vt 0.372800 0.709300
vt 0.372800 0.860900
vt 0.388800 0.860900
vt 0.388800 0.978400
vt 0.372800 0.978400
vt 0.391900 0.508300
vt 0.407900 0.508300
vt 0.407900 0.625900
vt 0.391900 0.625900
vt 0.407900 0.718100
vt 0.391900 0.718100
vt 0.407900 0.860900
vt 0.391900 0.860900
vt 0.407900 0.978400
vt 0.391900 0.978400
vt 0.407900 0.625900
vt 0.407900 0.508300
vt 0.391900 0.508300
vt 0.391900 0.625900
vt 0.407900 0.718100
vt 0.391900 0.718200
vt 0.391900 0.860900
vt 0.407900 0.860900
vt 0.407900 0.978400
vt 0.391900 0.978400
vt 0.412600 0.508300
vt 0.428600 0.508300
vt 0.428600 0.625900
vt 0.412600 0.625900
vt 0.428600 0.715100
vt 0.412600 0.715100
vt 0.428600 0.860900
vt 0.412600 0.860900
vt 0.428600 0.978400
vt 0.412600 0.978400
vt 0.428600 0.625900
vt 0.428600 0.508300
vt 0.412600 0.508300
vt 0.412600 0.625900
vt 0.428600 0.715100
vt 0.412600 0.715100
vt 0.412600 0.860900
vt 0.428600 0.860900
vt 0.428600 0.978400
vt 0.412600 0.978400
vt 0.372800 0.508300
vt 0.388800 0.508300
vt 0.372800 0.625800
vt 0.388800 0.625800
vt 0.388800 0.709300
vt 0.372800 0.709300
vt 0.388800 0.860900
vt 0.372800 0.860900
vt 0.388800 0.978400
vt 0.372800 0.978400
vt 0.388800 0.625800
vt 0.388800 0.508300
vt 0.372800 0.625800
vt 0.388800 0.709400
vt 0.372800 0.709300
vt 0.372800 0.860900
vt 0.388800 0.860900
vt 0.388800 0.978400
vt 0.372800 0.978400
vt 0.391900 0.508300
vt 0.407900 0.508300
vt 0.407900 0.625900
vt 0.391900 0.625900
vt 0.407900 0.719200
vt 0.391900 0.719200
vt 0.407900 0.860900
vt 0.391900 0.860900
vt 0.407900 0.978400
vt 0.391900 0.978400
vt 0.407900 0.625900
vt 0.407900 0.508300
vt 0.391900 0.508300
vt 0.391900 0.625900
vt 0.407900 0.719300
vt 0.391900 0.719300
vt 0.391900 0.860900
vt 0.407900 0.860900
vt 0.407900 0.978400
vt 0.391900 0.978400
vt 0.412600 0.508300
vt 0.428600 0.508300
vt 0.428600 0.625900
vt 0.412600 0.625900
vt 0.428600 0.716600
vt 0.412600 0.716600
vt 0.428600 0.860900
vt 0.412600 0.860900
vt 0.428600 0.978400
vt 0.412600 0.978400
vt 0.428600 0.625900
vt 0.428600 0.508300
vt 0.412600 0.508300
vt 0.412600 0.625900
vt 0.428600 0.716600
vt 0.412600 0.716600
vt 0.412600 0.860900
vt 0.428600 0.860900
vt 0.428600 0.978400
vt 0.412600 0.978400
vt 0.372800 0.508300
vt 0.847900 0.009700
vt 0.850000 0.009700
vt 0.849400 0.009700
vt 0.835100 0.009300
vt 0.835700 0.009300
vt 0.835700 0.019600
vt 0.835100 0.019600
vt 0.832800 0.009300
vt 0.833400 0.009300
vt 0.833400 0.019600
vt 0.832800 0.019600
vt 0.833900 0.009300
vt 0.833900 0.019600
vt 0.834500 0.009300
vt 0.834500 0.019600
vt 0.850000 0.020000
vt 0.848800 0.020000
vt 0.847500 0.020000
vt 0.848900 0.020000
vt 0.847500 0.009700
vt 0.848800 0.009700
vt 0.849400 0.020000
vn -0.1373 0.1122 -0.9842
vn -0.1393 0.0106 -0.9902
vn -0.1386 0.0115 -0.9903
vn -0.1372 0.1122 -0.9842
vn -0.1393 0.0115 -0.9902
vn -0.1394 0.0106 -0.9902
vn -0.1775 -0.1181 -0.9770
vn -0.1793 -0.1193 -0.9765
vn -0.2356 -0.3570 -0.9039
vn -0.2350 -0.3480 -0.9075
vn -0.2421 -0.5452 -0.8026
vn 0.1393 -0.0092 0.9902
vn 0.1373 -0.1110 0.9843
vn 0.1393 -0.0101 0.9902
vn 0.1774 0.1194 0.9769
vn 0.1793 0.1206 0.9764
vn 0.2349 0.3486 0.9073
vn 0.2355 0.3573 0.9038
vn 0.2421 0.5452 0.8026
vn -0.1632 0.1686 0.9721
vn -0.1630 0.0006 0.9866
vn -0.1630 0.0018 0.9866
vn -0.1633 0.1686 0.9721
vn -0.1082 -0.2542 0.9611
vn -0.1124 -0.2473 0.9624
vn 0.0038 -0.5094 0.8605
vn -0.0014 -0.4957 0.8685
vn 0.0633 -0.6560 0.7521
vn 0.1629 0.0017 -0.9866
vn 0.1633 -0.1675 -0.9723
vn 0.1630 0.0005 -0.9866
vn 0.1081 0.2563 -0.9605
vn 0.1123 0.2495 -0.9618
vn 0.0013 0.4962 -0.8682
vn -0.0038 0.5097 -0.8603
vn -0.0633 0.6560 -0.7521
vn -0.0632 0.6560 -0.7521
vn 0.8085 0.2324 -0.5407
vn 0.8242 0.1268 -0.5520
vn 0.8242 0.1267 -0.5520
vn 0.8083 0.2323 -0.5410
vn 0.8325 -0.0565 -0.5511
vn 0.8325 -0.0622 -0.5505
vn 0.8173 -0.2469 -0.5206
vn 0.8167 -0.2508 -0.5198
vn 0.7936 -0.3580 -0.4921
vn -0.8243 -0.1257 0.5520
vn -0.8087 -0.2312 0.5408
vn -0.8085 -0.2312 0.5411
vn -0.8243 -0.1256 0.5520
vn -0.8325 0.0575 0.5510
vn -0.8325 0.0631 0.5504
vn -0.8166 0.2513 0.5197
vn -0.8172 0.2474 0.5205
vn -0.7936 0.3580 0.4921
vn 0.6813 0.1317 0.7200
vn 0.6925 -0.0549 0.7194
vn 0.6922 -0.0744 0.7178
vn 0.6810 0.1318 0.7203
vn 0.6862 -0.2262 0.6913
vn 0.6857 -0.2282 0.6912
vn 0.6897 -0.2820 0.6669
vn 0.6909 -0.2684 0.6713
vn 0.6802 -0.3583 0.6395
vn -0.6925 0.0562 -0.7193
vn -0.6814 -0.1307 -0.7201
vn -0.6811 -0.1308 -0.7204
vn -0.6922 0.0758 -0.7177
vn -0.6861 0.2271 -0.6911
vn -0.6856 0.2292 -0.6910
vn -0.6909 0.2685 -0.6713
vn -0.6897 0.2821 -0.6669
vn -0.6802 0.3583 -0.6395
vn 0.8847 0.1476 0.4422
vn 0.8939 0.0370 0.4468
vn 0.8936 0.0437 0.4467
vn 0.8846 0.1476 0.4424
vn 0.8891 -0.2137 0.4048
vn 0.8896 -0.2077 0.4067
vn 0.8431 -0.4459 0.3005
vn 0.8472 -0.4325 0.3086
vn 0.8139 -0.5249 0.2493
vn -0.8939 -0.0354 -0.4469
vn -0.8849 -0.1464 -0.4423
vn -0.8849 -0.1464 -0.4422
vn -0.8937 -0.0421 -0.4467
vn -0.8888 0.2151 -0.4047
vn -0.8893 0.2092 -0.4066
vn -0.8469 0.4330 -0.3085
vn -0.8429 0.4463 -0.3005
vn -0.8139 0.5249 -0.2493
vn -0.8139 0.5248 -0.2493
vn -0.6166 0.0385 0.7864
vn -0.5978 0.0448 0.8004
vn -0.4819 -0.1108 0.8692
vn -0.4718 -0.0934 0.8767
vn -0.4303 -0.3445 0.8344
vn -0.4301 -0.3451 0.8342
vn -0.3702 -0.5284 0.7640
vn -0.3688 -0.5342 0.7607
vn -0.3682 -0.5342 0.7610
vn -0.3217 -0.6469 0.6914
vn 0.4718 0.0936 -0.8767
vn 0.5977 -0.0466 -0.8004
vn 0.4819 0.1114 -0.8691
vn 0.4300 0.3459 -0.8339
vn 0.4298 0.3465 -0.8338
vn 0.3681 0.5342 -0.7610
vn 0.3703 0.5283 -0.7641
vn 0.3217 0.6469 -0.6914
vn -0.9635 -0.1918 -0.1868
vn -0.9663 -0.1777 -0.1862
vn -0.9666 -0.1764 -0.1861
vn -0.9579 -0.2237 -0.1798
vn -0.9582 -0.2223 -0.1800
vn -0.9582 -0.2223 -0.1799
vn -0.9208 -0.3526 -0.1667
vn -0.9222 -0.3488 -0.1671
vn -0.8954 -0.4158 -0.1595
vn -0.8954 -0.4158 -0.1594
vn 0.9661 0.1790 0.1861
vn 0.9633 0.1930 0.1867
vn 0.9663 0.1777 0.1861
vn 0.9577 0.2248 0.1797
vn 0.9580 0.2234 0.1799
vn 0.9220 0.3492 0.1670
vn 0.9221 0.3492 0.1670
vn 0.9207 0.3530 0.1666
vn 0.8954 0.4158 0.1594
vn -0.9787 0.0282 -0.2032
vn -0.9801 -0.0310 -0.1960
vn -0.9801 -0.0269 -0.1966
vn -0.9788 0.0282 -0.2031
vn -0.9626 -0.2412 -0.1234
vn -0.9659 -0.2229 -0.1315
vn -0.7955 -0.6049 0.0358
vn -0.8253 -0.5644 0.0174
vn -0.6411 -0.7590 0.1139
vn 0.9801 0.0330 0.1958
vn 0.9788 -0.0272 0.2031
vn 0.9788 -0.0272 0.2029
vn 0.9801 0.0288 0.1964
vn 0.9622 0.2430 0.1231
vn 0.9655 0.2249 0.1312
vn 0.8249 0.5650 -0.0175
vn 0.7953 0.6052 -0.0358
vn 0.6411 0.7590 -0.1139
vn 0.6165 -0.0402 -0.7863
vn 0.0000 -1.0000 -0.0000
vn 1.0000 0.0000 -0.0000
vn 0.3090 0.0000 -0.9511
vn -0.8090 0.0000 -0.5878
vn -0.8090 -0.0000 0.5878
vn 0.3090 -0.0000 0.9511
vn 0.0000 1.0000 0.0000
s off
f 1/1/1 2/2/1 3/3/2
f 3/3/2 4/4/3 1/1/4
f 4/4/5 3/3/6 5/5/7
f 5/5/7 6/6/8 4/4/5
f 6/6/8 5/5/7 7/7/9
f 7/7/9 8/8/10 6/6/8
f 8/8/10 7/7/9 9/9/11
f 9/9/11 10/10/11 8/8/10
f 11/11/12 12/12/13 13/13/13
f 13/13/13 14/14/14 11/11/12
f 15/15/15 11/11/12 14/14/14
f 14/14/14 16/16/16 15/15/15
f 15/15/15 16/16/16 17/17/17
f 17/17/17 18/18/18 15/15/15
f 19/19/19 18/18/18 17/17/17
f 17/17/17 20/20/19 19/19/19
f 21/21/20 22/22/20 23/23/21
f 23/23/21 24/24/22 21/21/23
f 24/24/22 23/23/21 25/25/24
f 25/25/24 26/26/25 24/24/22
f 26/26/25 25/25/24 27/27/26
f 27/27/26 28/28/27 26/26/25
f 28/28/27 27/27/26 29/29/28
f 29/29/28 30/30/28 28/28/27
f 31/31/29 32/32/30 33/33/30
f 33/33/30 34/34/31 31/31/29
f 35/35/32 31/31/29 34/34/31
f 34/34/31 36/36/33 35/35/32
f 35/35/32 36/36/33 37/37/34
f 37/37/34 38/38/35 35/35/32
f 39/39/36 38/38/35 37/37/34
f 37/37/34 40/40/37 39/39/37
f 41/41/38 42/42/38 43/43/39
f 43/43/39 44/44/40 41/41/41
f 44/44/40 43/43/39 45/45/42
f 45/45/42 46/46/43 44/44/40
f 46/46/43 45/45/42 47/47/44
f 47/47/44 48/48/45 46/46/43
f 48/48/45 47/47/44 49/49/46
f 49/49/46 50/50/46 48/48/45
f 51/51/47 52/52/48 53/53/48
f 53/53/49 54/54/50 51/51/47
f 55/55/51 51/51/47 54/54/50
f 54/54/50 56/56/52 55/55/51
f 55/55/51 56/56/52 57/57/53
f 57/57/53 58/58/54 55/55/51
f 59/59/55 58/58/54 57/57/53
f 57/57/53 60/60/55 59/59/55
f 61/61/56 62/62/56 63/63/57
f 63/63/57 64/64/58 61/61/59
f 64/64/58 63/63/57 65/65/60
f 65/65/60 66/66/61 64/64/58
f 66/66/61 65/65/60 67/67/62
f 67/67/62 68/68/63 66/66/61
f 68/68/63 67/67/62 69/69/64
f 69/69/64 70/70/64 68/68/63
f 71/71/65 72/72/66 73/73/66
f 73/73/67 74/74/68 71/71/65
f 75/75/69 71/71/65 74/74/68
f 74/74/68 76/76/70 75/75/69
f 75/75/69 76/76/70 77/77/71
f 77/77/71 78/78/72 75/75/69
f 79/79/73 78/78/72 77/77/71
f 77/77/71 80/80/73 79/79/73
f 81/81/74 82/82/74 83/83/75
f 83/83/75 84/84/76 81/81/77
f 84/84/76 83/83/75 85/85/78
f 85/85/78 86/86/79 84/84/76
f 86/86/79 85/85/78 87/87/80
f 87/87/80 88/88/81 86/86/79
f 88/88/81 87/87/80 89/89/82
f 89/89/82 90/90/82 88/88/81
f 91/91/83 92/92/84 93/93/84
f 93/93/85 94/94/86 91/91/83
f 95/95/87 91/91/83 94/94/86
f 94/94/86 96/96/88 95/95/87
f 95/95/87 96/96/88 97/97/89
f 97/97/89 98/98/90 95/95/87
f 99/99/91 98/98/90 97/97/89
f 97/97/89 100/100/92 99/99/92
f 101/101/93 102/102/94 103/103/95
f 103/103/95 104/104/96 105/105/97
f 105/105/97 106/106/98 103/103/95
f 106/106/98 105/105/97 107/107/99
f 107/107/99 108/108/100 106/106/98
f 108/108/101 107/107/99 109/109/102
f 109/109/102 110/110/102 108/108/101
f 111/111/103 112/112/104 113/113/105
f 114/114/106 111/111/103 113/113/105
f 113/113/105 115/115/107 114/114/106
f 114/114/106 115/115/107 116/116/108
f 116/116/108 117/117/109 114/114/106
f 118/118/110 117/117/109 116/116/108
f 116/116/108 119/119/110 118/118/110
f 120/120/111 121/121/111 122/122/112
f 122/122/112 123/123/113 120/120/111
f 123/123/113 122/122/112 124/124/114
f 124/124/114 125/125/115 123/123/113
f 125/125/116 124/124/114 126/126/117
f 126/126/117 127/127/118 125/125/116
f 127/127/118 126/126/117 128/128/119
f 128/128/120 129/129/120 127/127/118
f 130/130/121 131/131/122 132/132/122
f 132/132/122 133/133/123 130/130/121
f 134/134/124 130/130/121 133/133/123
f 133/133/123 135/135/125 134/134/124
f 134/134/124 135/135/125 136/136/126
f 136/136/127 137/137/128 134/134/124
f 138/138/129 137/137/128 136/136/127
f 136/136/127 139/139/129 138/138/129
f 140/140/130 141/141/130 142/142/131
f 142/142/131 143/143/132 140/140/133
f 143/143/132 142/142/131 144/144/134
f 144/144/134 145/145/135 143/143/132
f 145/145/135 144/144/134 146/146/136
f 146/146/136 147/147/137 145/145/135
f 147/147/137 146/146/136 148/148/138
f 148/148/138 149/149/138 147/147/137
f 150/150/139 151/151/140 152/152/140
f 152/152/141 153/153/142 150/150/139
f 154/154/143 150/150/139 153/153/142
f 153/153/142 155/155/144 154/154/143
f 154/154/143 155/155/144 156/156/145
f 156/156/145 157/157/146 154/154/143
f 158/158/147 157/157/146 156/156/145
f 156/156/145 159/159/147 158/158/147
f 102/102/94 104/104/96 103/103/95
f 112/112/104 160/160/148 113/113/105
s 129
f 161/161/149 162/162/149 163/163/149
s 130
f 163/164/150 162/165/151 164/166/151
f 164/166/151 165/167/150 163/164/150
f 162/168/151 166/169/152 167/170/152
f 167/170/152 164/171/151 162/168/151
f 166/169/152 168/172/153 169/173/153
f 169/173/153 167/170/152 166/169/152
f 168/172/153 161/174/154 170/175/154
f 170/175/154 169/173/153 168/172/153
f 161/174/154 163/164/150 165/167/150
f 165/167/150 170/175/154 161/174/154
s 131
f 164/176/155 167/177/155 169/178/155
f 169/178/155 170/179/155 164/176/155
s 129
f 168/180/149 166/181/149 162/162/149
f 162/162/149 161/161/149 168/180/149
s 131
f 170/179/155 165/182/155 164/176/155
