# Blender v3.3.0 OBJ File: ''
# www.blender.org
o SwitchGrassStage05.005
v 0.231424 0.203925 -0.010091
v 0.142789 0.207967 0.113126
v 0.114704 -0.040656 0.059034
v 0.191034 -0.041280 -0.030812
v 0.300964 0.530436 0.074040
v 0.176320 0.521154 0.199783
v 0.294074 0.907480 0.095817
v 0.183391 0.907058 0.211484
v 0.331281 1.217323 0.063996
v 0.181912 1.221187 0.106512
v 0.015311 -0.040031 0.097961
v 0.028986 0.212010 0.188476
v -0.089232 0.206165 0.146822
v -0.085675 -0.040676 0.069512
v 0.028247 0.511873 0.251400
v -0.121583 0.513214 0.216851
v 0.024200 0.906635 0.273389
v -0.125320 0.905089 0.242394
v 0.021914 1.225050 0.112371
v -0.126663 1.223722 0.120609
v 0.115007 -0.040660 0.055580
v 0.143017 0.207935 0.109039
v 0.231628 0.203829 -0.014081
v 0.191336 -0.041275 -0.034266
v 0.176767 0.520916 0.194652
v 0.301227 0.529788 0.068804
v 0.183881 0.906678 0.205743
v 0.294539 0.907358 0.090066
v 0.182418 1.221187 0.100724
v 0.331788 1.217323 0.058208
v 0.015613 -0.040044 0.094507
v -0.085372 -0.040682 0.066058
v -0.088900 0.206178 0.142845
v 0.029309 0.212040 0.184275
v -0.121167 0.513500 0.211789
v 0.028687 0.512043 0.246243
v -0.124816 0.905027 0.236661
v 0.024699 0.905998 0.267613
v -0.126157 1.223722 0.114820
v 0.022420 1.225050 0.106583
v -0.215044 0.200320 0.052238
v -0.192401 -0.041321 -0.013463
v -0.283044 0.514556 0.100304
v -0.287409 0.903542 0.111511
v -0.288246 1.222395 0.073413
v -0.192098 -0.041320 -0.016917
v -0.214319 0.200316 0.048101
v -0.282491 0.514958 0.095118
v -0.286897 0.904056 0.105773
v -0.287740 1.222395 0.067624
v 0.070640 -0.041281 0.118229
v 0.071912 0.203925 0.148389
v -0.074499 0.212010 0.065081
v -0.045984 -0.040031 0.038011
v 0.046206 0.530436 0.216170
v -0.090472 0.511873 0.074195
v 0.016664 0.907310 0.204576
v -0.125957 0.906553 0.089338
v 0.058467 1.218232 0.165395
v -0.038019 1.224313 0.034482
v -0.113396 0.200320 -0.100480
v -0.068815 -0.041321 -0.110332
v -0.164182 0.514556 -0.123501
v -0.166268 0.903782 -0.102634
v -0.108021 1.222223 -0.113108
v 0.072732 -0.041276 0.117253
v -0.043893 -0.040044 0.037036
v -0.072053 0.212040 0.063932
v 0.074297 0.203829 0.147221
v -0.087393 0.512043 0.072762
v 0.049305 0.529788 0.214619
v -0.122840 0.905982 0.087882
v 0.019772 0.907200 0.203119
v -0.035261 1.224313 0.033196
v 0.061225 1.218232 0.164109
v -0.066724 -0.041320 -0.111307
v -0.110896 0.200316 -0.101527
v -0.161078 0.514958 -0.124944
v -0.163172 0.904242 -0.104090
v -0.105263 1.222223 -0.114394
v -0.143690 -0.041280 -0.029675
v -0.171873 0.203925 -0.047852
v -0.013542 0.212010 -0.097894
v -0.004664 -0.040031 -0.060095
v -0.203818 0.530437 -0.067922
v -0.012813 0.511873 -0.115428
v -0.189561 0.907310 -0.131640
v -0.008353 0.906553 -0.155004
v -0.172701 1.218232 -0.054126
v -0.011084 1.224313 -0.072229
v 0.148510 0.200320 -0.069697
v 0.134540 -0.041321 -0.023789
v 0.195068 0.514556 -0.080312
v 0.176105 0.903782 -0.137063
v 0.151733 1.222223 -0.059058
v -0.143891 -0.041275 -0.027376
v -0.004865 -0.040044 -0.057796
v -0.013771 0.212040 -0.095203
v -0.172048 0.203829 -0.045192
v -0.013111 0.512043 -0.112045
v -0.204046 0.529789 -0.064475
v -0.008651 0.905983 -0.151576
v -0.189853 0.907201 -0.128218
v -0.011350 1.224313 -0.069198
v -0.172966 1.218232 -0.051095
v 0.134339 -0.041320 -0.021491
v 0.148165 0.200316 -0.066993
v 0.194770 0.514958 -0.076908
v 0.175818 0.904242 -0.133657
v 0.151468 1.222223 -0.056026
v 0.102806 -0.041280 -0.110867
v 0.132932 0.203925 -0.125780
v 0.097077 0.212010 0.036367
v 0.059637 -0.040031 0.024742
v 0.166971 0.530437 -0.142492
v 0.112574 0.511873 0.046638
v 0.191234 0.907310 -0.111070
v 0.144452 0.906553 0.069016
v 0.124740 1.218232 -0.133874
v 0.059609 1.224313 0.015142
v -0.008338 0.200320 0.162614
v -0.041406 -0.041321 0.127144
v -0.021765 0.514555 0.209140
v 0.009005 0.903782 0.201860
v -0.033207 1.222223 0.149560
v 0.100916 -0.041275 -0.112191
v 0.057747 -0.040044 0.023419
v 0.094894 0.212040 0.034836
v 0.130715 0.203830 -0.127262
v 0.109792 0.512043 0.044688
v 0.164098 0.529789 -0.144413
v 0.141631 0.905982 0.067043
v 0.188415 0.907201 -0.113031
v 0.057116 1.224313 0.013397
v 0.122247 1.218232 -0.135619
v -0.043296 -0.041321 0.125821
v -0.010508 0.200316 0.160961
v -0.024565 0.514957 0.207179
v 0.006197 0.904242 0.199903
v -0.035699 1.222223 0.147815
v -0.080137 -0.007626 0.103784
v -0.060728 -0.007837 0.113260
v -0.098397 0.232313 0.184308
v -0.117806 0.232524 0.174833
v -0.116634 0.480522 0.215467
v -0.136043 0.480733 0.205991
v -0.162770 0.705528 0.304181
v -0.182179 0.705739 0.294706
v -0.238431 0.853107 0.455104
v -0.257840 0.853318 0.445629
v -0.098014 0.232372 0.183525
v -0.060345 -0.007778 0.112476
v -0.079754 -0.007567 0.103001
v -0.117423 0.232583 0.174049
v -0.116273 0.480779 0.214722
v -0.135682 0.480990 0.205246
v -0.162409 0.705785 0.303436
v -0.181818 0.705996 0.293961
v -0.238069 0.853364 0.454359
v -0.257478 0.853575 0.444884
v -0.105444 0.006093 0.095545
v -0.090444 0.005396 0.111076
v -0.143654 0.193102 0.166118
v -0.158654 0.193799 0.150587
v -0.164803 0.387445 0.190349
v -0.179803 0.388142 0.174818
v -0.232388 0.563136 0.259028
v -0.247388 0.563834 0.243497
v -0.350964 0.677630 0.375711
v -0.365964 0.678327 0.360180
v -0.143026 0.193155 0.165512
v -0.089816 0.005448 0.110471
v -0.104816 0.006145 0.094940
v -0.158026 0.193852 0.149981
v -0.164203 0.387652 0.189774
v -0.179203 0.388349 0.174243
v -0.231788 0.563344 0.258452
v -0.246788 0.564041 0.242921
v -0.350364 0.677837 0.375136
v -0.365364 0.678534 0.359605
v -0.086918 0.003919 0.109135
v -0.067513 0.003508 0.118620
v -0.104507 0.124545 0.177927
v -0.123912 0.124956 0.168442
v -0.119496 0.248285 0.209457
v -0.138901 0.248696 0.199971
v -0.164756 0.354914 0.262253
v -0.184161 0.355325 0.252768
v -0.221152 0.421791 0.386715
v -0.240557 0.422202 0.377230
v -0.104124 0.124626 0.177146
v -0.067130 0.003589 0.117839
v -0.086535 0.004000 0.108354
v -0.123529 0.125037 0.167661
v -0.119133 0.248520 0.208717
v -0.138538 0.248931 0.199231
v -0.164393 0.355149 0.261513
v -0.183798 0.355560 0.252028
v -0.220789 0.422026 0.385975
v -0.240194 0.422437 0.376489
v 0.024724 -0.015507 0.129964
v 0.045119 -0.015488 0.122803
v 0.074244 0.261533 0.206374
v 0.053848 0.261514 0.213536
v 0.088733 0.547912 0.248287
v 0.068337 0.547893 0.255449
v 0.124200 0.807429 0.349881
v 0.103804 0.807411 0.357043
v 0.181712 0.977505 0.514053
v 0.161316 0.977486 0.521214
v 0.073955 0.261602 0.205552
v 0.044831 -0.015419 0.121981
v 0.024435 -0.015438 0.129142
v 0.053559 0.261583 0.212714
v 0.088461 0.548210 0.247513
v 0.068065 0.548191 0.254674
v 0.123928 0.807728 0.349107
v 0.103532 0.807709 0.356269
v 0.181440 0.977803 0.513278
v 0.161044 0.977784 0.520440
v 0.130669 -0.008839 0.081181
v 0.142102 -0.006252 0.063069
v 0.188372 0.232950 0.135726
v 0.176939 0.230363 0.153838
v 0.196462 0.479268 0.185575
v 0.185029 0.476681 0.203687
v 0.260630 0.703863 0.266877
v 0.249197 0.701276 0.284989
v 0.389879 0.853172 0.375584
v 0.378446 0.850585 0.393697
v 0.187631 0.232992 0.135266
v 0.141360 -0.006211 0.062608
v 0.129927 -0.008798 0.080720
v 0.176198 0.230405 0.153378
v 0.195740 0.479506 0.185163
v 0.184307 0.476919 0.203275
v 0.259908 0.704101 0.266464
v 0.248475 0.701514 0.284576
v 0.389157 0.853411 0.375172
v 0.377724 0.850823 0.393284
v 0.118709 0.001415 0.106798
v 0.135724 0.003496 0.093673
v 0.168922 0.187863 0.173877
v 0.151907 0.185783 0.187002
v 0.174377 0.379972 0.219673
v 0.157361 0.377892 0.232797
v 0.220600 0.551897 0.314254
v 0.203585 0.549817 0.327378
v 0.314224 0.661249 0.457672
v 0.297209 0.659169 0.470797
v 0.168384 0.187938 0.173194
v 0.135185 0.003571 0.092990
v 0.118170 0.001490 0.106115
v 0.151369 0.185857 0.186318
v 0.173851 0.380200 0.219038
v 0.156836 0.378119 0.232163
v 0.220075 0.552125 0.313619
v 0.203060 0.550045 0.326744
v 0.313699 0.661477 0.457037
v 0.296684 0.659396 0.470162
v 0.134292 0.002269 0.089802
v 0.145751 0.004658 0.071672
v 0.190479 0.125022 0.128748
v 0.179020 0.122633 0.146878
v 0.209748 0.248373 0.161243
v 0.198289 0.245984 0.179373
v 0.248374 0.353085 0.224098
v 0.236914 0.350696 0.242228
v 0.360201 0.422531 0.301573
v 0.348742 0.420142 0.319703
v 0.189738 0.125086 0.128290
v 0.145010 0.004721 0.071214
v 0.133551 0.002332 0.089344
v 0.178278 0.122697 0.146420
v 0.209033 0.248590 0.160827
v 0.197574 0.246201 0.178957
v 0.247658 0.353302 0.223682
v 0.236199 0.350913 0.241812
v 0.359485 0.422748 0.301157
v 0.348026 0.420359 0.319287
v 0.108486 -0.006151 -0.068737
v 0.101105 -0.008967 -0.088799
v 0.156320 0.230281 -0.152422
v 0.163701 0.233098 -0.132360
v 0.169324 0.476397 -0.201688
v 0.176705 0.479214 -0.181626
v 0.244140 0.701166 -0.269938
v 0.251521 0.703982 -0.249877
v 0.389872 0.851135 -0.350881
v 0.397253 0.853951 -0.330820
v 0.155498 0.230318 -0.152125
v 0.100284 -0.008931 -0.088502
v 0.107665 -0.006114 -0.068440
v 0.162880 0.233134 -0.132063
v 0.168527 0.476631 -0.201436
v 0.175908 0.479448 -0.181374
v 0.243343 0.701399 -0.269686
v 0.250725 0.704216 -0.249625
v 0.389075 0.851369 -0.350629
v 0.396456 0.854185 -0.330568
v 0.119782 0.010659 -0.047679
v 0.119793 0.007702 -0.069041
v 0.179684 0.197553 -0.102208
v 0.179673 0.200510 -0.080846
v 0.194688 0.391081 -0.135979
v 0.194677 0.394039 -0.114616
v 0.275370 0.570371 -0.167321
v 0.275360 0.573328 -0.145958
v 0.431167 0.693873 -0.188994
v 0.431156 0.696831 -0.167632
v 0.178810 0.197549 -0.102207
v 0.118919 0.007697 -0.069040
v 0.118908 0.010655 -0.047678
v 0.178799 0.200506 -0.080844
v 0.193841 0.391233 -0.136004
v 0.193830 0.394190 -0.114642
v 0.274524 0.570522 -0.167346
v 0.274513 0.573480 -0.145984
v 0.430320 0.694024 -0.189020
v 0.430309 0.696982 -0.167658
v 0.116048 0.005884 -0.069808
v 0.108694 0.002871 -0.089842
v 0.165687 0.124873 -0.126640
v 0.173041 0.127887 -0.106606
v 0.187454 0.247779 -0.158760
v 0.194808 0.250793 -0.138725
v 0.247144 0.356754 -0.182936
v 0.254498 0.359767 -0.162901
v 0.367790 0.425616 -0.245131
v 0.375144 0.428630 -0.225097
v 0.164865 0.124932 -0.126348
v 0.107872 0.002929 -0.089550
v 0.115226 0.005943 -0.069516
v 0.172220 0.127946 -0.106314
v 0.186662 0.247990 -0.158508
v 0.194016 0.251004 -0.138474
v 0.246352 0.356965 -0.182685
v 0.253706 0.359979 -0.162650
v 0.366998 0.425827 -0.244880
v 0.374352 0.428841 -0.224845
v 0.116718 0.178781 -0.164837
v 0.078122 0.007005 -0.069173
v 0.063006 0.006520 -0.076377
v 0.101602 0.178297 -0.172041
v 0.140982 0.362354 -0.231440
v 0.125866 0.361869 -0.238644
v 0.185330 0.520138 -0.337978
v 0.170214 0.519654 -0.345182
v 0.248694 0.610396 -0.478647
v 0.233578 0.609912 -0.485851
v 0.062720 0.006677 -0.075789
v 0.077836 0.007161 -0.068585
v 0.116431 0.178938 -0.164249
v 0.101315 0.178454 -0.171453
v 0.140720 0.362655 -0.230916
v 0.125604 0.362171 -0.238120
v 0.185067 0.520439 -0.337453
v 0.169951 0.519955 -0.344657
v 0.248432 0.610697 -0.478122
v 0.233316 0.610213 -0.485326
v 0.081568 0.147139 -0.176907
v 0.063189 0.014798 -0.088131
v 0.046561 0.015666 -0.089927
v 0.064940 0.148008 -0.178703
v 0.097146 0.290319 -0.233093
v 0.080517 0.291188 -0.234889
v 0.116156 0.410963 -0.334904
v 0.099528 0.411832 -0.336700
v 0.136123 0.476058 -0.479707
v 0.119495 0.476926 -0.481504
v 0.046500 0.015820 -0.089275
v 0.063129 0.014952 -0.087479
v 0.081508 0.147293 -0.176255
v 0.064879 0.148162 -0.178051
v 0.097099 0.290585 -0.232497
v 0.080471 0.291454 -0.234293
v 0.116110 0.411229 -0.334308
v 0.099481 0.412098 -0.336104
v 0.136076 0.476324 -0.479111
v 0.119448 0.477192 -0.480908
v 0.103734 0.097184 -0.147681
v 0.078741 0.014500 -0.077632
v 0.063632 0.014169 -0.084862
v 0.088625 0.096853 -0.154911
v 0.122678 0.186579 -0.191938
v 0.107569 0.186248 -0.199168
v 0.138904 0.258313 -0.261494
v 0.123796 0.257982 -0.268724
v 0.190925 0.291658 -0.364844
v 0.175816 0.291327 -0.372074
v 0.063348 0.014342 -0.084279
v 0.078457 0.014673 -0.077049
v 0.103450 0.097357 -0.147097
v 0.088341 0.097026 -0.154327
v 0.122418 0.186862 -0.191411
v 0.107310 0.186531 -0.198641
v 0.138644 0.258596 -0.260967
v 0.123536 0.258265 -0.268197
v 0.190665 0.291942 -0.364317
v 0.175556 0.291611 -0.371547
v -0.117585 -0.017650 -0.056962
v -0.135669 -0.019792 -0.045318
v -0.197964 0.219776 -0.095453
v -0.179880 0.221918 -0.107097
v -0.236822 0.466887 -0.107758
v -0.218738 0.469028 -0.119402
v -0.308560 0.691607 -0.175430
v -0.290476 0.693748 -0.187075
v -0.411610 0.840086 -0.306492
v -0.393526 0.842228 -0.318137
v -0.197495 0.219826 -0.094716
v -0.135201 -0.019742 -0.044582
v -0.117117 -0.017601 -0.056226
v -0.179411 0.221967 -0.106361
v -0.236393 0.467134 -0.107044
v -0.218308 0.469275 -0.118688
v -0.308131 0.691854 -0.174716
v -0.290047 0.693995 -0.186361
v -0.411181 0.840333 -0.305778
v -0.393097 0.842475 -0.317423
v -0.098697 -0.001630 -0.073224
v -0.119652 -0.004060 -0.068510
v -0.155685 0.185224 -0.127720
v -0.134730 0.187655 -0.132434
v -0.182432 0.379296 -0.143130
v -0.161477 0.381726 -0.147844
v -0.221692 0.557463 -0.222592
v -0.200736 0.559894 -0.227306
v -0.270465 0.677755 -0.375148
v -0.249510 0.680185 -0.379862
v -0.155495 0.185241 -0.126867
v -0.119462 -0.004044 -0.067657
v -0.098507 -0.001613 -0.072371
v -0.134540 0.187672 -0.131581
v -0.182267 0.379468 -0.142304
v -0.161312 0.381898 -0.147018
v -0.221526 0.557636 -0.221766
v -0.200571 0.560066 -0.226480
v -0.270300 0.677927 -0.374322
v -0.249345 0.680358 -0.379036
v -0.119677 -0.005768 -0.064613
v -0.137751 -0.008108 -0.052993
v -0.179988 0.113463 -0.105773
v -0.161914 0.115803 -0.117394
v -0.210014 0.236679 -0.125209
v -0.191940 0.239019 -0.136829
v -0.241170 0.344840 -0.182800
v -0.223097 0.347180 -0.194420
v -0.324474 0.412329 -0.290042
v -0.306401 0.414669 -0.301662
v -0.179523 0.113534 -0.105036
v -0.137286 -0.008037 -0.052256
v -0.119213 -0.005697 -0.063876
v -0.161450 0.115874 -0.116657
v -0.209588 0.236904 -0.124498
v -0.191514 0.239244 -0.136119
v -0.240744 0.345064 -0.182089
v -0.222670 0.347404 -0.193709
v -0.324048 0.412553 -0.289331
v -0.305975 0.414894 -0.300951
v -0.194567 0.177785 -0.049229
v -0.116529 -0.003770 -0.036677
v -0.118052 -0.003378 -0.019998
v -0.196090 0.178177 -0.032551
v -0.238956 0.367591 -0.058955
v -0.240479 0.367983 -0.042276
v -0.331073 0.536566 -0.072417
v -0.332596 0.536958 -0.055738
v -0.471052 0.642661 -0.088371
v -0.472575 0.643053 -0.071692
v -0.117384 -0.003293 -0.019940
v -0.115861 -0.003685 -0.036618
v -0.193899 0.177871 -0.049171
v -0.195422 0.178263 -0.032492
v -0.238335 0.367828 -0.058905
v -0.239858 0.368219 -0.042227
v -0.330452 0.536803 -0.072367
v -0.331975 0.537195 -0.055689
v -0.470431 0.642898 -0.088321
v -0.471954 0.643290 -0.071643
v -0.198068 0.147899 -0.010418
v -0.127872 0.006221 -0.016576
v -0.123653 0.007312 -0.000409
v -0.193849 0.148991 0.005749
v -0.235468 0.296448 -0.013408
v -0.231249 0.297540 0.002759
v -0.319653 0.428083 -0.002737
v -0.315434 0.429174 0.013430
v -0.451981 0.509777 0.024783
v -0.447763 0.510869 0.040950
v -0.123004 0.007387 -0.000585
v -0.127223 0.006296 -0.016752
v -0.197419 0.147974 -0.010593
v -0.193200 0.149065 0.005574
v -0.234861 0.296641 -0.013583
v -0.230642 0.297733 0.002584
v -0.319046 0.428276 -0.002912
v -0.314827 0.429367 0.013255
v -0.451374 0.509970 0.024608
v -0.447155 0.511062 0.040775
v -0.185646 0.094898 -0.038568
v -0.123548 0.004662 -0.034753
v -0.125076 0.005209 -0.018081
v -0.187174 0.095445 -0.021896
v -0.220724 0.188726 -0.045929
v -0.222252 0.189273 -0.029257
v -0.280871 0.268062 -0.041103
v -0.282399 0.268609 -0.024431
v -0.390267 0.313334 -0.056184
v -0.391795 0.313881 -0.039512
v -0.124411 0.005311 -0.018024
v -0.122882 0.004764 -0.034696
v -0.184981 0.095000 -0.038512
v -0.186509 0.095547 -0.021839
v -0.220104 0.188945 -0.045881
v -0.221632 0.189492 -0.029209
v -0.280251 0.268281 -0.041055
v -0.281780 0.268828 -0.024383
v -0.389647 0.313553 -0.056136
v -0.391176 0.314100 -0.039464
v -0.124451 0.203925 -0.195373
v 0.026575 0.207968 -0.180221
v -0.006228 -0.040656 -0.128854
v -0.122201 -0.041280 -0.150034
v -0.086362 0.530437 -0.297661
v 0.084856 0.521155 -0.252589
v -0.064058 0.907480 -0.302582
v 0.091455 0.907058 -0.264562
v -0.110220 1.217323 -0.318893
v 0.001285 1.221187 -0.210793
v 0.077181 -0.040031 -0.062240
v 0.148731 0.212010 -0.119341
v 0.171767 0.206165 0.003867
v 0.103037 -0.040676 0.039440
v 0.203595 0.511873 -0.150161
v 0.248589 0.513214 -0.003130
v 0.224661 0.906636 -0.157651
v 0.272579 0.905089 -0.012665
v 0.086357 1.225050 -0.075160
v 0.167780 1.223722 0.049393
v -0.009370 -0.040660 -0.127388
v 0.022922 0.207935 -0.178375
v -0.128009 0.203829 -0.193555
v -0.125343 -0.041275 -0.148569
v 0.080189 0.520916 -0.250410
v -0.091028 0.529789 -0.295272
v 0.086237 0.906678 -0.262116
v -0.069271 0.907358 -0.300109
v -0.003981 1.221187 -0.208337
v -0.115486 1.217323 -0.316437
v 0.074039 -0.040044 -0.060775
v 0.099894 -0.040682 0.040905
v 0.168157 0.206178 0.005567
v 0.144932 0.212040 -0.117519
v 0.243997 0.513501 -0.000960
v 0.198909 0.512043 -0.147964
v 0.267362 0.905027 -0.010235
v 0.219409 0.905999 -0.155195
v 0.162514 1.223722 0.051848
v 0.081091 1.225050 -0.072704
v 0.152761 0.200320 0.160115
v 0.084541 -0.041321 0.173355
v 0.228387 0.514556 0.194972
v 0.240275 0.903542 0.193150
v 0.207698 1.222394 0.212926
v 0.081399 -0.041320 0.174821
v 0.148816 0.200316 0.161555
v 0.223619 0.514958 0.197086
v 0.235050 0.904056 0.195575
v 0.202432 1.222394 0.215381
v -0.106973 0.203924 0.205465
v -0.169364 0.207967 0.067096
v -0.108477 -0.040656 0.069820
v -0.068833 -0.041281 0.180846
v -0.214602 0.530436 0.223624
v -0.261177 0.521155 0.052808
v -0.230016 0.907480 0.206768
v -0.274845 0.907058 0.053080
v -0.221061 1.217323 0.254904
v -0.183196 1.221187 0.104287
v -0.092492 -0.040031 -0.035721
v -0.177718 0.212010 -0.069134
v -0.082535 0.206165 -0.150688
v -0.017362 -0.040676 -0.108953
v -0.231842 0.511873 -0.101237
v -0.127006 0.513215 -0.213719
v -0.248861 0.906636 -0.115735
v -0.147258 0.905089 -0.229726
v -0.108271 1.225050 -0.037204
v -0.041117 1.223723 -0.169994
v -0.105637 -0.040660 0.071809
v -0.165939 0.207935 0.069337
v -0.103619 0.203829 0.207637
v -0.065993 -0.041276 0.182835
v -0.256956 0.520916 0.055760
v -0.210199 0.529788 0.226469
v -0.270118 0.906678 0.056376
v -0.225268 0.907358 0.210047
v -0.178437 1.221187 0.107620
v -0.216301 1.217323 0.258236
v -0.089652 -0.040044 -0.033732
v -0.014522 -0.040682 -0.106964
v -0.079257 0.206178 -0.148412
v -0.174241 0.212040 -0.066755
v -0.122831 0.513501 -0.210827
v -0.227596 0.512043 -0.098277
v -0.142546 0.905027 -0.226423
v -0.244108 0.905999 -0.112415
v -0.036357 1.223723 -0.166662
v -0.103512 1.225050 -0.033871
v 0.062283 0.200320 -0.212352
v 0.107860 -0.041321 -0.159892
v 0.054657 0.514556 -0.295274
v 0.047134 0.903543 -0.304658
v 0.080548 1.222395 -0.286331
v 0.110700 -0.041320 -0.157904
v 0.065503 0.200316 -0.209656
v 0.058871 0.514958 -0.292202
v 0.051847 0.904056 -0.301345
v 0.085307 1.222395 -0.282998
vt 0.353400 0.241700
vt 0.255300 0.241700
vt 0.237300 0.003100
vt 0.317400 0.003100
vt 0.370100 0.489800
vt 0.263700 0.489800
vt 0.370100 0.738000
vt 0.263700 0.738000
vt 0.370100 0.995700
vt 0.263700 0.995700
vt 0.157300 0.003100
vt 0.157300 0.241700
vt 0.082100 0.241700
vt 0.082100 0.003100
vt 0.157300 0.489800
vt 0.079200 0.489800
vt 0.157300 0.738000
vt 0.079200 0.738000
vt 0.157300 0.995700
vt 0.079200 0.995700
vt 0.237300 0.003100
vt 0.255300 0.241700
vt 0.353400 0.241700
vt 0.317400 0.003100
vt 0.263700 0.489800
vt 0.370100 0.489800
vt 0.263700 0.738000
vt 0.370100 0.738000
vt 0.263700 0.995700
vt 0.370100 0.995700
vt 0.157300 0.003100
vt 0.082100 0.003100
vt 0.082100 0.241700
vt 0.157300 0.241700
vt 0.079200 0.489800
vt 0.157300 0.489800
vt 0.079200 0.738000
vt 0.157300 0.738000
vt 0.079200 0.995700
vt 0.157300 0.995700
vt 0.007000 0.241700
vt 0.007000 0.003100
vt 0.001200 0.489800
vt 0.001200 0.738000
vt 0.001200 0.995700
vt 0.007000 0.003100
vt 0.007000 0.241700
vt 0.001200 0.489800
vt 0.001200 0.738000
vt 0.001200 0.995700
vt 0.317400 0.003100
vt 0.353400 0.241700
vt 0.157300 0.241700
vt 0.157300 0.003100
vt 0.370100 0.489800
vt 0.157300 0.489800
vt 0.370100 0.738000
vt 0.157300 0.738000
vt 0.370100 0.995700
vt 0.157300 0.995700
vt 0.007000 0.241700
vt 0.007000 0.003100
vt 0.001200 0.489800
vt 0.001200 0.738000
vt 0.001200 0.995700
vt 0.317400 0.003100
vt 0.157300 0.003100
vt 0.157300 0.241700
vt 0.353400 0.241700
vt 0.157300 0.489800
vt 0.370100 0.489800
vt 0.157300 0.738000
vt 0.370100 0.738000
vt 0.157300 0.995700
vt 0.370100 0.995700
vt 0.007000 0.003100
vt 0.007000 0.241700
vt 0.001200 0.489800
vt 0.001200 0.738000
vt 0.001200 0.995700
vt 0.317400 0.003100
vt 0.353400 0.241700
vt 0.157300 0.241700
vt 0.157300 0.003100
vt 0.370100 0.489800
vt 0.157300 0.489800
vt 0.370100 0.738000
vt 0.157300 0.738000
vt 0.370100 0.995700
vt 0.157300 0.995700
vt 0.007000 0.241700
vt 0.007000 0.003100
vt 0.001200 0.489800
vt 0.001200 0.738000
vt 0.001200 0.995700
vt 0.317400 0.003100
vt 0.157300 0.003100
vt 0.157300 0.241700
vt 0.353400 0.241700
vt 0.157300 0.489800
vt 0.370100 0.489800
vt 0.157300 0.738000
vt 0.370100 0.738000
vt 0.157300 0.995700
vt 0.370100 0.995700
vt 0.007000 0.003100
vt 0.007000 0.241700
vt 0.001200 0.489800
vt 0.001200 0.738000
vt 0.001200 0.995700
vt 0.317400 0.003100
vt 0.353400 0.241700
vt 0.157300 0.241700
vt 0.157300 0.003100
vt 0.370100 0.489800
vt 0.157300 0.489800
vt 0.370100 0.738000
vt 0.157300 0.738000
vt 0.370100 0.995700
vt 0.157300 0.995700
vt 0.007000 0.241700
vt 0.007000 0.003100
vt 0.001200 0.489800
vt 0.001200 0.738000
vt 0.001200 0.995700
vt 0.317400 0.003100
vt 0.157300 0.003100
vt 0.157300 0.241700
vt 0.353400 0.241700
vt 0.157300 0.489800
vt 0.370100 0.489800
vt 0.157300 0.738000
vt 0.370100 0.738000
vt 0.157300 0.995700
vt 0.370100 0.995700
vt 0.007000 0.003100
vt 0.007000 0.241700
vt 0.001200 0.489800
vt 0.001200 0.738000
vt 0.001200 0.995700
vt 0.372800 0.000000
vt 0.388800 0.000000
vt 0.388800 0.250000
vt 0.372800 0.250000
vt 0.388800 0.500000
vt 0.372800 0.500000
vt 0.388800 0.750000
vt 0.372800 0.750000
vt 0.388800 1.000000
vt 0.372800 1.000000
vt 0.388800 0.250000
vt 0.388800 0.000000
vt 0.372800 0.000000
vt 0.372800 0.250000
vt 0.388800 0.500000
vt 0.372800 0.500000
vt 0.388800 0.750000
vt 0.372800 0.750000
vt 0.388800 1.000000
vt 0.372800 1.000000
vt 0.391900 0.000100
vt 0.407900 0.000100
vt 0.407900 0.250100
vt 0.391900 0.250100
vt 0.407900 0.500100
vt 0.391900 0.500100
vt 0.407900 0.750100
vt 0.391900 0.750100
vt 0.407900 1.000100
vt 0.391900 1.000100
vt 0.407900 0.250100
vt 0.407900 0.000100
vt 0.391900 0.000100
vt 0.391900 0.250100
vt 0.407900 0.500100
vt 0.391900 0.500100
vt 0.407900 0.750100
vt 0.391900 0.750100
vt 0.407900 1.000100
vt 0.391900 1.000100
vt 0.412600 0.000100
vt 0.428600 0.000100
vt 0.428600 0.250100
vt 0.412600 0.250100
vt 0.428600 0.500100
vt 0.412600 0.500100
vt 0.428600 0.750100
vt 0.412600 0.750100
vt 0.428600 1.000100
vt 0.412600 1.000100
vt 0.428600 0.250100
vt 0.428600 0.000100
vt 0.412600 0.000100
vt 0.412600 0.250100
vt 0.428600 0.500100
vt 0.412600 0.500100
vt 0.428600 0.750100
vt 0.412600 0.750100
vt 0.428600 1.000100
vt 0.412600 1.000100
vt 0.372800 0.000000
vt 0.388800 0.000000
vt 0.388800 0.250000
vt 0.372800 0.250000
vt 0.388800 0.500000
vt 0.372800 0.500000
vt 0.388800 0.750000
vt 0.372800 0.750000
vt 0.388800 1.000000
vt 0.372800 1.000000
vt 0.388800 0.250000
vt 0.388800 0.000000
vt 0.372800 0.000000
vt 0.372800 0.250000
vt 0.388800 0.500000
vt 0.372800 0.500000
vt 0.388800 0.750000
vt 0.372800 0.750000
vt 0.388800 1.000000
vt 0.372800 1.000000
vt 0.372800 0.000000
vt 0.388800 0.000000
vt 0.388800 0.250000
vt 0.372800 0.250000
vt 0.388800 0.500000
vt 0.372800 0.500000
vt 0.388800 0.750000
vt 0.372800 0.750000
vt 0.388800 1.000000
vt 0.372800 1.000000
vt 0.388800 0.250000
vt 0.388800 0.000000
vt 0.372800 0.000000
vt 0.372800 0.250000
vt 0.388800 0.500000
vt 0.372800 0.500000
vt 0.388800 0.750000
vt 0.372800 0.750000
vt 0.388800 1.000000
vt 0.372800 1.000000
vt 0.391900 0.000100
vt 0.407900 0.000100
vt 0.407900 0.250100
vt 0.391900 0.250100
vt 0.407900 0.500100
vt 0.391900 0.500100
vt 0.407900 0.750100
vt 0.391900 0.750100
vt 0.407900 1.000100
vt 0.391900 1.000100
vt 0.407900 0.250100
vt 0.407900 0.000100
vt 0.391900 0.000100
vt 0.391900 0.250100
vt 0.407900 0.500100
vt 0.391900 0.500100
vt 0.407900 0.750100
vt 0.391900 0.750100
vt 0.407900 1.000100
vt 0.391900 1.000100
vt 0.412600 0.000100
vt 0.428600 0.000100
vt 0.428600 0.250100
vt 0.412600 0.250100
vt 0.428600 0.500100
vt 0.412600 0.500100
vt 0.428600 0.750100
vt 0.412600 0.750100
vt 0.428600 1.000100
vt 0.412600 1.000100
vt 0.428600 0.250100
vt 0.428600 0.000100
vt 0.412600 0.000100
vt 0.412600 0.250100
vt 0.428600 0.500100
vt 0.412600 0.500100
vt 0.428600 0.750100
vt 0.412600 0.750100
vt 0.428600 1.000100
vt 0.412600 1.000100
vt 0.372800 0.000000
vt 0.388800 0.000000
vt 0.388800 0.250000
vt 0.372800 0.250000
vt 0.388800 0.500000
vt 0.372800 0.500000
vt 0.388800 0.750000
vt 0.372800 0.750000
vt 0.388800 1.000000
vt 0.372800 1.000000
vt 0.388800 0.250000
vt 0.388800 0.000000
vt 0.372800 0.000000
vt 0.372800 0.250000
vt 0.388800 0.500000
vt 0.372800 0.500000
vt 0.388800 0.750000
vt 0.372800 0.750000
vt 0.388800 1.000000
vt 0.372800 1.000000
vt 0.391900 0.000100
vt 0.407900 0.000100
vt 0.407900 0.250100
vt 0.391900 0.250100
vt 0.407900 0.500100
vt 0.391900 0.500100
vt 0.407900 0.750100
vt 0.391900 0.750100
vt 0.407900 1.000100
vt 0.391900 1.000100
vt 0.407900 0.250100
vt 0.407900 0.000100
vt 0.391900 0.000100
vt 0.391900 0.250100
vt 0.407900 0.500100
vt 0.391900 0.500100
vt 0.407900 0.750100
vt 0.391900 0.750100
vt 0.407900 1.000100
vt 0.391900 1.000100
vt 0.412600 0.000100
vt 0.428600 0.000100
vt 0.428600 0.250100
vt 0.412600 0.250100
vt 0.428600 0.500100
vt 0.412600 0.500100
vt 0.428600 0.750100
vt 0.412600 0.750100
vt 0.428600 1.000100
vt 0.412600 1.000100
vt 0.428600 0.250100
vt 0.428600 0.000100
vt 0.412600 0.000100
vt 0.412600 0.250100
vt 0.428600 0.500100
vt 0.412600 0.500100
vt 0.428600 0.750100
vt 0.412600 0.750100
vt 0.428600 1.000100
vt 0.412600 1.000100
vt 0.388800 0.250000
vt 0.388800 0.000000
vt 0.372800 0.000000
vt 0.372800 0.250000
vt 0.388800 0.500000
vt 0.372800 0.500000
vt 0.388800 0.750000
vt 0.372800 0.750000
vt 0.388800 1.000000
vt 0.372800 1.000000
vt 0.372800 0.000000
vt 0.388800 0.000000
vt 0.388800 0.250000
vt 0.372800 0.250000
vt 0.388800 0.500000
vt 0.372800 0.500000
vt 0.388800 0.750000
vt 0.372800 0.750000
vt 0.388800 1.000000
vt 0.372800 1.000000
vt 0.407900 0.250100
vt 0.407900 0.000100
vt 0.391900 0.000100
vt 0.391900 0.250100
vt 0.407900 0.500100
vt 0.391900 0.500100
vt 0.407900 0.750100
vt 0.391900 0.750100
vt 0.407900 1.000100
vt 0.391900 1.000100
vt 0.391900 0.000100
vt 0.407900 0.000100
vt 0.407900 0.250100
vt 0.391900 0.250100
vt 0.407900 0.500100
vt 0.391900 0.500100
vt 0.407900 0.750100
vt 0.391900 0.750100
vt 0.407900 1.000100
vt 0.391900 1.000100
vt 0.428600 0.250100
vt 0.428600 0.000100
vt 0.412600 0.000100
vt 0.412600 0.250100
vt 0.428600 0.500100
vt 0.412600 0.500100
vt 0.428600 0.750100
vt 0.412600 0.750100
vt 0.428600 1.000100
vt 0.412600 1.000100
vt 0.412600 0.000100
vt 0.428600 0.000100
vt 0.428600 0.250100
vt 0.412600 0.250100
vt 0.428600 0.500100
vt 0.412600 0.500100
vt 0.428600 0.750100
vt 0.412600 0.750100
vt 0.428600 1.000100
vt 0.412600 1.000100
vt 0.372800 0.000000
vt 0.388800 0.000000
vt 0.388800 0.250000
vt 0.372800 0.250000
vt 0.388800 0.500000
vt 0.372800 0.500000
vt 0.388800 0.750000
vt 0.372800 0.750000
vt 0.388800 1.000000
vt 0.372800 1.000000
vt 0.388800 0.250000
vt 0.388800 0.000000
vt 0.372800 0.000000
vt 0.372800 0.250000
vt 0.388800 0.500000
vt 0.372800 0.500000
vt 0.388800 0.750000
vt 0.372800 0.750000
vt 0.388800 1.000000
vt 0.372800 1.000000
vt 0.391900 0.000100
vt 0.407900 0.000100
vt 0.407900 0.250100
vt 0.391900 0.250100
vt 0.407900 0.500100
vt 0.391900 0.500100
vt 0.407900 0.750100
vt 0.391900 0.750100
vt 0.407900 1.000100
vt 0.391900 1.000100
vt 0.407900 0.250100
vt 0.407900 0.000100
vt 0.391900 0.000100
vt 0.391900 0.250100
vt 0.407900 0.500100
vt 0.391900 0.500100
vt 0.407900 0.750100
vt 0.391900 0.750100
vt 0.407900 1.000100
vt 0.391900 1.000100
vt 0.412600 0.000100
vt 0.428600 0.000100
vt 0.428600 0.250100
vt 0.412600 0.250100
vt 0.428600 0.500100
vt 0.412600 0.500100
vt 0.428600 0.750100
vt 0.412600 0.750100
vt 0.428600 1.000100
vt 0.412600 1.000100
vt 0.428600 0.250100
vt 0.428600 0.000100
vt 0.412600 0.000100
vt 0.412600 0.250100
vt 0.428600 0.500100
vt 0.412600 0.500100
vt 0.428600 0.750100
vt 0.412600 0.750100
vt 0.428600 1.000100
vt 0.412600 1.000100
vt 0.388800 0.250000
vt 0.388800 0.000000
vt 0.372800 0.000000
vt 0.372800 0.250000
vt 0.388800 0.500000
vt 0.372800 0.500000
vt 0.388800 0.750000
vt 0.372800 0.750000
vt 0.388800 1.000000
vt 0.372800 1.000000
vt 0.372800 0.000000
vt 0.388800 0.000000
vt 0.388800 0.250000
vt 0.372800 0.250000
vt 0.388800 0.500000
vt 0.372800 0.500000
vt 0.388800 0.750000
vt 0.372800 0.750000
vt 0.388800 1.000000
vt 0.372800 1.000000
vt 0.407900 0.250100
vt 0.407900 0.000100
vt 0.391900 0.000100
vt 0.391900 0.250100
vt 0.407900 0.500100
vt 0.391900 0.500100
vt 0.407900 0.750100
vt 0.391900 0.750100
vt 0.407900 1.000100
vt 0.391900 1.000100
vt 0.391900 0.000100
vt 0.407900 0.000100
vt 0.407900 0.250100
vt 0.391900 0.250100
vt 0.407900 0.500100
vt 0.391900 0.500100
vt 0.407900 0.750100
vt 0.391900 0.750100
vt 0.407900 1.000100
vt 0.391900 1.000100
vt 0.428600 0.250100
vt 0.428600 0.000100
vt 0.412600 0.000100
vt 0.412600 0.250100
vt 0.428600 0.500100
vt 0.412600 0.500100
vt 0.428600 0.750100
vt 0.412600 0.750100
vt 0.428600 1.000100
vt 0.412600 1.000100
vt 0.412600 0.000100
vt 0.428600 0.000100
vt 0.428600 0.250100
vt 0.412600 0.250100
vt 0.428600 0.500100
vt 0.412600 0.500100
vt 0.428600 0.750100
vt 0.412600 0.750100
vt 0.428600 1.000100
vt 0.412600 1.000100
vt 0.353400 0.241700
vt 0.255300 0.241700
vt 0.237300 0.003100
vt 0.317400 0.003100
vt 0.370100 0.489800
vt 0.263700 0.489800
vt 0.370100 0.738000
vt 0.263700 0.738000
vt 0.370100 0.995700
vt 0.263700 0.995700
vt 0.157300 0.003100
vt 0.157300 0.241700
vt 0.082100 0.241700
vt 0.082100 0.003100
vt 0.157300 0.489800
vt 0.079200 0.489800
vt 0.157300 0.738000
vt 0.079200 0.738000
vt 0.157300 0.995700
vt 0.079200 0.995700
vt 0.237300 0.003100
vt 0.255300 0.241700
vt 0.353400 0.241700
vt 0.317400 0.003100
vt 0.263700 0.489800
vt 0.370100 0.489800
vt 0.263700 0.738000
vt 0.370100 0.738000
vt 0.263700 0.995700
vt 0.370100 0.995700
vt 0.157300 0.003100
vt 0.082100 0.003100
vt 0.082100 0.241700
vt 0.157300 0.241700
vt 0.079200 0.489800
vt 0.157300 0.489800
vt 0.079200 0.738000
vt 0.157300 0.738000
vt 0.079200 0.995700
vt 0.157300 0.995700
vt 0.007000 0.241700
vt 0.007000 0.003100
vt 0.001200 0.489800
vt 0.001200 0.738000
vt 0.001200 0.995700
vt 0.007000 0.003100
vt 0.007000 0.241700
vt 0.001200 0.489800
vt 0.001200 0.738000
vt 0.001200 0.995700
vt 0.353400 0.241700
vt 0.255300 0.241700
vt 0.237300 0.003100
vt 0.317400 0.003100
vt 0.370100 0.489800
vt 0.263700 0.489800
vt 0.370100 0.738000
vt 0.263700 0.738000
vt 0.370100 0.995700
vt 0.263700 0.995700
vt 0.157300 0.003100
vt 0.157300 0.241700
vt 0.082100 0.241700
vt 0.082100 0.003100
vt 0.157300 0.489800
vt 0.079200 0.489800
vt 0.157300 0.738000
vt 0.079200 0.738000
vt 0.157300 0.995700
vt 0.079200 0.995700
vt 0.237300 0.003100
vt 0.255300 0.241700
vt 0.353400 0.241700
vt 0.317400 0.003100
vt 0.263700 0.489800
vt 0.370100 0.489800
vt 0.263700 0.738000
vt 0.370100 0.738000
vt 0.263700 0.995700
vt 0.370100 0.995700
vt 0.157300 0.003100
vt 0.082100 0.003100
vt 0.082100 0.241700
vt 0.157300 0.241700
vt 0.079200 0.489800
vt 0.157300 0.489800
vt 0.079200 0.738000
vt 0.157300 0.738000
vt 0.079200 0.995700
vt 0.157300 0.995700
vt 0.007000 0.241700
vt 0.007000 0.003100
vt 0.001200 0.489800
vt 0.001200 0.738000
vt 0.001200 0.995700
vt 0.007000 0.003100
vt 0.007000 0.241700
vt 0.001200 0.489800
vt 0.001200 0.738000
vt 0.001200 0.995700
vn 0.7746 -0.2548 0.5789
vn 0.6458 -0.2777 0.7112
vn 0.5819 -0.2200 0.7829
vn 0.7494 -0.1773 0.6379
vn 0.7196 -0.1513 0.6777
vn 0.5434 -0.1366 0.8283
vn 0.6662 0.0837 0.7411
vn 0.5213 0.1473 0.8405
vn 0.2747 0.0655 0.9593
vn 0.2347 0.2195 0.9470
vn 0.0646 -0.2967 0.9528
vn 0.1046 -0.2895 0.9515
vn -0.4327 -0.2563 0.8643
vn -0.4415 -0.2790 0.8528
vn 0.0549 -0.1368 0.9891
vn -0.4148 -0.1472 0.8980
vn 0.0768 0.1968 0.9774
vn -0.4010 0.1552 0.9028
vn 0.0577 0.3690 0.9276
vn -0.1881 0.2724 0.9436
vn -0.5820 0.2180 -0.7834
vn -0.6459 0.2759 -0.7118
vn -0.7747 0.2534 -0.5793
vn -0.7496 0.1758 -0.6381
vn -0.5437 0.1350 -0.8284
vn -0.7202 0.1502 -0.6773
vn -0.5212 -0.1478 -0.8405
vn -0.6662 -0.0842 -0.7410
vn -0.2346 -0.2194 -0.9470
vn -0.2747 -0.0656 -0.9593
vn -0.0647 0.2945 -0.9534
vn 0.4421 0.2767 -0.8532
vn 0.4343 0.2529 -0.8646
vn -0.1052 0.2868 -0.9522
vn 0.4156 0.1457 -0.8978
vn -0.0549 0.1344 -0.9894
vn 0.4005 -0.1561 -0.9029
vn -0.0770 -0.1967 -0.9774
vn 0.1880 -0.2726 -0.9436
vn -0.0578 -0.3688 -0.9277
vn -0.5774 -0.2498 0.7773
vn -0.5912 -0.2627 0.7625
vn -0.5818 -0.1330 0.8024
vn -0.5728 0.0982 0.8138
vn -0.2794 0.1132 0.9535
vn 0.5917 0.2598 -0.7631
vn 0.5784 0.2456 -0.7779
vn 0.5816 0.1324 -0.8026
vn 0.5726 -0.0993 -0.8138
vn 0.2794 -0.1135 -0.9534
vn -0.5378 -0.1335 0.8324
vn -0.5359 -0.1055 0.8377
vn -0.7889 -0.1107 0.6045
vn -0.8293 -0.1712 0.5320
vn -0.6928 -0.1317 0.7090
vn -0.8339 -0.0921 0.5441
vn -0.6511 0.1186 0.7496
vn -0.8467 0.0965 0.5232
vn -0.7878 0.1801 0.5890
vn -0.8054 0.2673 0.5290
vn -0.9643 -0.1450 0.2214
vn -0.9710 -0.1853 0.1511
vn -0.9421 -0.0542 0.3309
vn -0.9724 0.0515 0.2277
vn -0.9019 0.2683 0.3384
vn 0.5380 0.1322 -0.8325
vn 0.8296 0.1696 -0.5320
vn 0.7892 0.1088 -0.6045
vn 0.5361 0.1039 -0.8377
vn 0.8341 0.0909 -0.5441
vn 0.6930 0.1309 -0.7090
vn 0.8469 -0.0954 -0.5232
vn 0.6514 -0.1181 -0.7495
vn 0.8059 -0.2658 -0.5291
vn 0.7880 -0.1789 -0.5891
vn 0.9713 0.1837 -0.1511
vn 0.9647 0.1431 -0.2213
vn 0.9422 0.0530 -0.3308
vn 0.9723 -0.0515 -0.2280
vn 0.9021 -0.2670 -0.3390
vn -0.2411 -0.1350 -0.9611
vn -0.2874 -0.0845 -0.9541
vn -0.0636 -0.0939 -0.9935
vn 0.0073 -0.1677 -0.9858
vn -0.2311 -0.0989 -0.9679
vn -0.0515 -0.0896 -0.9946
vn -0.1267 0.0401 -0.9911
vn -0.0247 0.0648 -0.9976
vn -0.1170 0.2462 -0.9621
vn -0.0190 0.2508 -0.9679
vn 0.1778 -0.1081 -0.9781
vn 0.2459 -0.1946 -0.9496
vn 0.1670 -0.0974 -0.9811
vn 0.1094 0.0594 -0.9922
vn 0.0865 0.2493 -0.9646
vn 0.2411 0.1335 0.9613
vn -0.0073 0.1661 0.9861
vn 0.0634 0.0920 0.9937
vn 0.2874 0.0827 0.9542
vn 0.0514 0.0885 0.9947
vn 0.2311 0.0979 0.9680
vn 0.0247 -0.0637 0.9977
vn 0.1267 -0.0398 0.9911
vn 0.0188 -0.2494 0.9682
vn 0.1170 -0.2450 0.9624
vn -0.2460 0.1929 0.9499
vn -0.1781 0.1062 0.9783
vn -0.1672 0.0963 0.9812
vn -0.1089 -0.0596 0.9923
vn -0.0860 -0.2480 0.9649
vn 0.9526 -0.1364 0.2718
vn 0.9697 -0.0867 0.2283
vn 0.8921 -0.0964 0.4415
vn 0.8499 -0.1694 0.4989
vn 0.9603 -0.0883 0.2647
vn 0.8823 -0.0754 0.4646
vn 0.9581 0.0926 0.2709
vn 0.8667 0.0867 0.4912
vn 0.8971 0.2200 0.3831
vn 0.8530 0.2745 0.4440
vn 0.7582 -0.1107 0.6426
vn 0.6992 -0.1966 0.6874
vn 0.7691 -0.0550 0.6367
vn 0.7101 0.0570 0.7017
vn 0.7538 0.2715 0.5984
vn -0.9528 0.1351 -0.2718
vn -0.8501 0.1679 -0.4991
vn -0.8921 0.0945 -0.4417
vn -0.9699 0.0849 -0.2282
vn -0.8824 0.0742 -0.4647
vn -0.9604 0.0873 -0.2648
vn -0.8668 -0.0856 -0.4912
vn -0.9581 -0.0922 -0.2711
vn -0.8533 -0.2730 -0.4443
vn -0.8974 -0.2187 -0.3833
vn -0.6994 0.1949 -0.6877
vn -0.7580 0.1089 -0.6431
vn -0.7691 0.0538 -0.6369
vn -0.7104 -0.0571 -0.7014
vn -0.7544 -0.2702 -0.5983
vn -0.4188 -0.3174 0.8508
vn -0.4287 -0.2325 0.8730
vn -0.4289 -0.2303 0.8735
vn -0.4241 -0.2757 0.8626
vn -0.4237 -0.2791 0.8617
vn -0.3589 -0.5915 0.7220
vn -0.3577 -0.5953 0.7195
vn -0.2953 -0.7529 0.5882
vn 0.4287 0.2326 -0.8730
vn 0.4188 0.3174 -0.8508
vn 0.4290 0.2303 -0.8735
vn 0.4241 0.2757 -0.8626
vn 0.4237 0.2791 -0.8617
vn 0.3589 0.5915 -0.7220
vn 0.3577 0.5953 -0.7195
vn 0.2953 0.7529 -0.5882
vn -0.6745 -0.3773 0.6345
vn -0.6981 -0.2728 0.6620
vn -0.6985 -0.2705 0.6625
vn -0.6876 -0.3245 0.6495
vn -0.6868 -0.3280 0.6486
vn -0.5497 -0.6686 0.5008
vn -0.5478 -0.6716 0.4989
vn -0.4263 -0.8233 0.3747
vn -0.4262 -0.8233 0.3747
vn 0.6981 0.2729 -0.6620
vn 0.6745 0.3773 -0.6345
vn 0.6985 0.2705 -0.6625
vn 0.6876 0.3245 -0.6495
vn 0.6868 0.3280 -0.6486
vn 0.5497 0.6686 -0.5009
vn 0.5478 0.6716 -0.4989
vn 0.4262 0.8233 -0.3747
vn -0.3892 -0.4985 0.7746
vn -0.4109 -0.3909 0.8236
vn -0.4119 -0.3849 0.8260
vn -0.4093 -0.4000 0.8200
vn -0.4068 -0.4143 0.8142
vn -0.3095 -0.7366 0.6013
vn -0.3018 -0.7530 0.5848
vn -0.2086 -0.8978 0.3879
vn 0.4109 0.3909 -0.8236
vn 0.3892 0.4985 -0.7746
vn 0.4119 0.3849 -0.8260
vn 0.4093 0.4000 -0.8200
vn 0.4068 0.4144 -0.8142
vn 0.3095 0.7366 -0.6013
vn 0.3018 0.7530 -0.5848
vn 0.2086 0.8978 -0.3879
vn 0.3158 -0.3043 0.8987
vn 0.3227 -0.2294 0.9183
vn 0.3192 -0.2700 0.9084
vn 0.3192 -0.2699 0.9084
vn 0.2748 -0.5604 0.7813
vn 0.2322 -0.7150 0.6594
vn -0.3227 0.2294 -0.9183
vn -0.3158 0.3043 -0.8987
vn -0.3192 0.2700 -0.9084
vn -0.2749 0.5604 -0.7813
vn -0.2322 0.7150 -0.6594
vn 0.8245 -0.3044 0.4770
vn 0.8387 -0.2208 0.4979
vn 0.8391 -0.2174 0.4986
vn 0.8325 -0.2620 0.4881
vn 0.8316 -0.2672 0.4868
vn 0.7264 -0.5751 0.3764
vn 0.7232 -0.5808 0.3736
vn 0.6140 -0.7371 0.2823
vn -0.8387 0.2209 -0.4978
vn -0.8245 0.3044 -0.4770
vn -0.8391 0.2174 -0.4986
vn -0.8325 0.2621 -0.4881
vn -0.8316 0.2672 -0.4868
vn -0.7264 0.5751 -0.3764
vn -0.7232 0.5808 -0.3736
vn -0.6140 0.7371 -0.2823
vn 0.5881 -0.4093 0.6975
vn 0.6044 -0.3080 0.7347
vn 0.6048 -0.3047 0.7358
vn 0.5974 -0.3571 0.7180
vn 0.5967 -0.3618 0.7163
vn 0.4935 -0.6892 0.5306
vn 0.4915 -0.6931 0.5274
vn 0.3952 -0.8364 0.3798
vn -0.6044 0.3080 -0.7347
vn -0.5881 0.4093 -0.6975
vn -0.6048 0.3047 -0.7358
vn -0.5975 0.3571 -0.7180
vn -0.5967 0.3619 -0.7162
vn -0.4935 0.6892 -0.5306
vn -0.4915 0.6931 -0.5273
vn -0.3952 0.8364 -0.3797
vn 0.7669 -0.4845 0.4209
vn 0.8042 -0.3784 0.4584
vn 0.8063 -0.3709 0.4607
vn 0.8020 -0.3858 0.4561
vn 0.7971 -0.4017 0.4509
vn 0.6247 -0.7210 0.2998
vn 0.6092 -0.7390 0.2877
vn 0.4382 -0.8845 0.1604
vn -0.8041 0.3784 -0.4584
vn -0.7669 0.4845 -0.4209
vn -0.8063 0.3709 -0.4608
vn -0.8020 0.3858 -0.4561
vn -0.7971 0.4017 -0.4509
vn -0.6247 0.7210 -0.2998
vn -0.6092 0.7390 -0.2876
vn -0.4382 0.8845 -0.1604
vn 0.9110 -0.2886 -0.2947
vn 0.9282 -0.2008 -0.3133
vn 0.9276 -0.2048 -0.3125
vn 0.9192 -0.2517 -0.3028
vn 0.9204 -0.2457 -0.3041
vn 0.7940 -0.5698 -0.2121
vn 0.7982 -0.5628 -0.2147
vn 0.6697 -0.7285 -0.1441
vn -0.9282 0.2008 0.3133
vn -0.9110 0.2886 0.2946
vn -0.9276 0.2048 0.3126
vn -0.9192 0.2517 0.3028
vn -0.9204 0.2457 0.3041
vn -0.7940 0.5698 0.2121
vn -0.7982 0.5628 0.2147
vn -0.6697 0.7285 0.1441
vn 0.9549 -0.2940 0.0412
vn 0.9827 -0.1835 0.0259
vn 0.9817 -0.1883 0.0266
vn 0.9688 -0.2456 0.0345
vn 0.9706 -0.2384 0.0335
vn 0.7901 -0.6071 0.0844
vn 0.7954 -0.6003 0.0835
vn 0.6267 -0.7718 0.1072
vn -0.9827 0.1835 -0.0259
vn -0.9549 0.2940 -0.0412
vn -0.9817 0.1884 -0.0266
vn -0.9688 0.2456 -0.0345
vn -0.9706 0.2385 -0.0335
vn -0.7901 0.6071 -0.0845
vn -0.7954 0.6003 -0.0835
vn -0.6267 0.7718 -0.1072
vn 0.8494 -0.4695 -0.2412
vn 0.8928 -0.3577 -0.2739
vn 0.8922 -0.3595 -0.2734
vn 0.8870 -0.3754 -0.2691
vn 0.8851 -0.3807 -0.2676
vn 0.6838 -0.7155 -0.1434
vn 0.6770 -0.7226 -0.1398
vn 0.4782 -0.8772 -0.0436
vn -0.8927 0.3577 0.2739
vn -0.8494 0.4695 0.2411
vn -0.8922 0.3595 0.2735
vn -0.8870 0.3754 0.2691
vn -0.8851 0.3807 0.2676
vn -0.6838 0.7155 0.1433
vn -0.6770 0.7226 0.1398
vn -0.4782 0.8772 0.0436
vn 0.3981 -0.4380 -0.8060
vn 0.3825 -0.5137 -0.7680
vn 0.3983 -0.4373 -0.8063
vn 0.3904 -0.4775 -0.7871
vn 0.3902 -0.4786 -0.7866
vn 0.3080 -0.7411 -0.5966
vn 0.3076 -0.7420 -0.5957
vn 0.2399 -0.8626 -0.4454
vn -0.3825 0.5137 0.7680
vn -0.3981 0.4381 0.8060
vn -0.3983 0.4374 0.8063
vn -0.3904 0.4776 0.7871
vn -0.3902 0.4786 0.7866
vn -0.3080 0.7411 0.5966
vn -0.3076 0.7420 0.5957
vn -0.2399 0.8626 0.4454
vn 0.0706 -0.4687 -0.8805
vn 0.0598 -0.5618 -0.8251
vn 0.0704 -0.4702 -0.8797
vn 0.0650 -0.5180 -0.8529
vn 0.0653 -0.5159 -0.8541
vn 0.0228 -0.8006 -0.5988
vn 0.0231 -0.7992 -0.6006
vn -0.0033 -0.9119 -0.4104
vn -0.0598 0.5618 0.8251
vn -0.0706 0.4688 0.8805
vn -0.0704 0.4703 0.8797
vn -0.0650 0.5181 0.8529
vn -0.0653 0.5160 0.8541
vn -0.0228 0.8006 0.5988
vn -0.0231 0.7992 0.6006
vn 0.0033 0.9119 0.4104
vn 0.3632 -0.5755 -0.7327
vn 0.3338 -0.6660 -0.6671
vn 0.3642 -0.5720 -0.7349
vn 0.3605 -0.5849 -0.7266
vn 0.3575 -0.5950 -0.7199
vn 0.2408 -0.8523 -0.4642
vn 0.2338 -0.8623 -0.4492
vn 0.1365 -0.9608 -0.2413
vn -0.3338 0.6660 0.6671
vn -0.3632 0.5755 0.7327
vn -0.3642 0.5720 0.7349
vn -0.3605 0.5849 0.7266
vn -0.3575 0.5950 0.7198
vn -0.2408 0.8523 0.4642
vn -0.2338 0.8623 0.4492
vn -0.1365 0.9608 0.2413
vn -0.4913 -0.2990 -0.8181
vn -0.5111 -0.2124 -0.8329
vn -0.5110 -0.2130 -0.8328
vn -0.5010 -0.2593 -0.8257
vn -0.5012 -0.2584 -0.8259
vn -0.3922 -0.5783 -0.7154
vn -0.3927 -0.5772 -0.7160
vn -0.3001 -0.7398 -0.6022
vn 0.5111 0.2124 0.8328
vn 0.4913 0.2990 0.8181
vn 0.5110 0.2130 0.8328
vn 0.5009 0.2594 0.8257
vn 0.5011 0.2584 0.8259
vn 0.3922 0.5783 0.7154
vn 0.3927 0.5772 0.7160
vn 0.3001 0.7398 0.6022
vn -0.1718 -0.3237 -0.9304
vn -0.1904 -0.2158 -0.9577
vn -0.1903 -0.2163 -0.9576
vn -0.1810 -0.2723 -0.9450
vn -0.1812 -0.2715 -0.9452
vn -0.1005 -0.6287 -0.7711
vn -0.1007 -0.6280 -0.7717
vn -0.0453 -0.7914 -0.6096
vn 0.1904 0.2159 0.9577
vn 0.1717 0.3237 0.9304
vn 0.1903 0.2164 0.9576
vn 0.1810 0.2723 0.9450
vn 0.1812 0.2715 0.9452
vn 0.1006 0.6287 0.7711
vn 0.1008 0.6280 0.7717
vn 0.0453 0.7914 0.6096
vn -0.4292 -0.4810 -0.7645
vn -0.4678 -0.3708 -0.8023
vn -0.4686 -0.3683 -0.8030
vn -0.4637 -0.3839 -0.7985
vn -0.4603 -0.3943 -0.7954
vn -0.3039 -0.7245 -0.6186
vn -0.2955 -0.7369 -0.6080
vn -0.1628 -0.8871 -0.4318
vn 0.4678 0.3709 0.8022
vn 0.4292 0.4810 0.7645
vn 0.4686 0.3683 0.8030
vn 0.4637 0.3839 0.7985
vn 0.4604 0.3943 0.7954
vn 0.3039 0.7245 0.6186
vn 0.2955 0.7369 0.6080
vn 0.1628 0.8871 0.4319
vn -0.9457 -0.3155 -0.0789
vn -0.9143 -0.3981 -0.0741
vn -0.9454 -0.3161 -0.0789
vn -0.9298 -0.3601 -0.0764
vn -0.9301 -0.3591 -0.0765
vn -0.7537 -0.6551 -0.0534
vn -0.7545 -0.6541 -0.0535
vn -0.6010 -0.7984 -0.0361
vn 0.9143 0.3981 0.0741
vn 0.9456 0.3155 0.0789
vn 0.9454 0.3161 0.0789
vn 0.9298 0.3601 0.0765
vn 0.9301 0.3592 0.0765
vn 0.7537 0.6551 0.0534
vn 0.7545 0.6541 0.0535
vn 0.6010 0.7984 0.0361
vn -0.9057 -0.3355 0.2590
vn -0.8621 -0.4382 0.2545
vn -0.9049 -0.3376 0.2590
vn -0.8840 -0.3905 0.2571
vn -0.8853 -0.3873 0.2572
vn -0.6637 -0.7144 0.2214
vn -0.6662 -0.7120 0.2219
vn -0.4881 -0.8530 0.1850
vn 0.8621 0.4382 -0.2545
vn 0.9057 0.3355 -0.2590
vn 0.9049 0.3377 -0.2589
vn 0.8840 0.3905 -0.2571
vn 0.8853 0.3874 -0.2572
vn 0.6637 0.7144 -0.2214
vn 0.6662 0.7120 -0.2219
vn 0.4881 0.8530 -0.1850
vn -0.8826 -0.4655 -0.0656
vn -0.8213 -0.5676 -0.0567
vn -0.8838 -0.4632 -0.0658
vn -0.8762 -0.4776 -0.0646
vn -0.8710 -0.4871 -0.0638
vn -0.6178 -0.7857 -0.0308
vn -0.6041 -0.7964 -0.0292
vn -0.3818 -0.9242 -0.0047
vn 0.8213 0.5676 0.0567
vn 0.8826 0.4655 0.0656
vn 0.8838 0.4632 0.0658
vn 0.8762 0.4776 0.0646
vn 0.8710 0.4871 0.0638
vn 0.6178 0.7857 0.0309
vn 0.6041 0.7964 0.0293
vn 0.3818 0.9242 0.0047
vn 0.1140 -0.2548 -0.9602
vn 0.2930 -0.2777 -0.9149
vn 0.3871 -0.2200 -0.8954
vn 0.1777 -0.1773 -0.9680
vn 0.2271 -0.1513 -0.9621
vn 0.4456 -0.1366 -0.8848
vn 0.3087 0.0837 -0.9475
vn 0.4673 0.1473 -0.8718
vn 0.6934 0.0655 -0.7176
vn 0.7027 0.2195 -0.6767
vn 0.7928 -0.2967 -0.5323
vn 0.7717 -0.2895 -0.5664
vn 0.9649 -0.2563 -0.0575
vn 0.9593 -0.2790 -0.0440
vn 0.8291 -0.1368 -0.5420
vn 0.9850 -0.1472 -0.0898
vn 0.8081 0.1968 -0.5552
vn 0.9824 0.1552 -0.1041
vn 0.7745 0.3691 -0.5138
vn 0.9112 0.2724 -0.3089
vn -0.3875 0.2180 0.8957
vn -0.2935 0.2759 0.9153
vn -0.1143 0.2534 0.9606
vn -0.1778 0.1758 0.9682
vn -0.4456 0.1350 0.8850
vn -0.2265 0.1502 0.9624
vn -0.4673 -0.1478 0.8717
vn -0.3086 -0.0842 0.9475
vn -0.7028 -0.2194 0.6767
vn -0.6934 -0.0656 0.7176
vn -0.7933 0.2945 0.5328
vn -0.9600 0.2767 0.0437
vn -0.9659 0.2529 0.0562
vn -0.7720 0.2868 0.5672
vn -0.9853 0.1457 0.0890
vn -0.8294 0.1344 0.5423
vn -0.9822 -0.1561 0.1046
vn -0.8080 -0.1967 0.5554
vn -0.9112 -0.2727 0.3090
vn -0.7745 -0.3688 0.5139
vn 0.9619 -0.2498 0.1114
vn 0.9560 -0.2627 0.1308
vn 0.9858 -0.1330 0.1026
vn 0.9912 0.0982 0.0891
vn 0.9654 0.1132 -0.2347
vn -0.9568 0.2598 -0.1309
vn -0.9629 0.2456 -0.1119
vn -0.9859 0.1324 -0.1024
vn -0.9911 -0.0993 -0.0890
vn -0.9654 -0.1135 0.2347
vn -0.8886 -0.2548 0.3814
vn -0.9388 -0.2777 0.2037
vn -0.9690 -0.2200 0.1125
vn -0.9272 -0.1774 0.3301
vn -0.9467 -0.1513 0.2844
vn -0.9890 -0.1366 0.0565
vn -0.9749 0.0837 0.2064
vn -0.9886 0.1473 0.0312
vn -0.9681 0.0655 -0.2417
vn -0.9374 0.2195 -0.2702
vn -0.8574 -0.2967 -0.4204
vn -0.8763 -0.2895 -0.3851
vn -0.5322 -0.2563 -0.8069
vn -0.5178 -0.2790 -0.8087
vn -0.8840 -0.1368 -0.4470
vn -0.5703 -0.1472 -0.8082
vn -0.8849 0.1968 -0.4222
vn -0.5814 0.1552 -0.7987
vn -0.8322 0.3690 -0.4139
vn -0.7231 0.2724 -0.6347
vn 0.9695 0.2180 -0.1123
vn 0.9394 0.2759 -0.2034
vn 0.8890 0.2534 -0.3813
vn 0.9274 0.1758 -0.3302
vn 0.9892 0.1350 -0.0566
vn 0.9467 0.1502 -0.2851
vn 0.9885 -0.1478 -0.0311
vn 0.9748 -0.0842 -0.2065
vn 0.9374 -0.2194 0.2703
vn 0.9681 -0.0656 0.2417
vn 0.8581 0.2945 0.4207
vn 0.5178 0.2767 0.8095
vn 0.5316 0.2529 0.8084
vn 0.8772 0.2868 0.3850
vn 0.5697 0.1457 0.8088
vn 0.8843 0.1344 0.4472
vn 0.5817 -0.1561 0.7983
vn 0.8850 -0.1967 0.4220
vn 0.7232 -0.2726 0.6346
vn 0.8323 -0.3688 0.4138
vn -0.3844 -0.2498 -0.8887
vn -0.3647 -0.2627 -0.8933
vn -0.4040 -0.1330 -0.9050
vn -0.4184 0.0982 -0.9029
vn -0.6860 0.1132 -0.7187
vn 0.3650 0.2598 0.8940
vn 0.3845 0.2456 0.8898
vn 0.4042 0.1324 0.9050
vn 0.4185 -0.0993 0.9028
vn 0.6860 -0.1135 0.7187
s 1
f 1/1/1 2/2/2 3/3/3
f 3/3/3 4/4/4 1/1/1
f 5/5/5 6/6/6 2/2/2
f 2/2/2 1/1/1 5/5/5
f 7/7/7 8/8/8 6/6/6
f 6/6/6 5/5/5 7/7/7
f 7/7/7 9/9/9 10/10/10
f 10/10/10 8/8/8 7/7/7
f 11/11/11 12/12/12 13/13/13
f 13/13/13 14/14/14 11/11/11
f 15/15/15 16/16/16 13/13/13
f 13/13/13 12/12/12 15/15/15
f 15/15/15 17/17/17 18/18/18
f 18/18/18 16/16/16 15/15/15
f 19/19/19 20/20/20 18/18/18
f 18/18/18 17/17/17 19/19/19
s 2
f 21/21/21 22/22/22 23/23/23
f 23/23/23 24/24/24 21/21/21
f 22/22/22 25/25/25 26/26/26
f 26/26/26 23/23/23 22/22/22
f 25/25/25 27/27/27 28/28/28
f 28/28/28 26/26/26 25/25/25
f 28/28/28 27/27/27 29/29/29
f 29/29/29 30/30/30 28/28/28
f 31/31/31 32/32/32 33/33/33
f 33/33/33 34/34/34 31/31/31
f 33/33/33 35/35/35 36/36/36
f 36/36/36 34/34/34 33/33/33
f 36/36/36 35/35/35 37/37/37
f 37/37/37 38/38/38 36/36/36
f 37/37/37 39/39/39 40/40/40
f 40/40/40 38/38/38 37/37/37
s 1
f 2/2/2 12/12/12 11/11/11
f 11/11/11 3/3/3 2/2/2
f 6/6/6 15/15/15 12/12/12
f 12/12/12 2/2/2 6/6/6
f 8/8/8 17/17/17 15/15/15
f 15/15/15 6/6/6 8/8/8
f 19/19/19 17/17/17 8/8/8
f 8/8/8 10/10/10 19/19/19
f 41/41/41 42/42/42 14/14/14
f 14/14/14 13/13/13 41/41/41
f 43/43/43 41/41/41 13/13/13
f 13/13/13 16/16/16 43/43/43
f 44/44/44 43/43/43 16/16/16
f 16/16/16 18/18/18 44/44/44
f 20/20/20 45/45/45 44/44/44
f 44/44/44 18/18/18 20/20/20
s 2
f 31/31/31 34/34/34 22/22/22
f 22/22/22 21/21/21 31/31/31
f 34/34/34 36/36/36 25/25/25
f 25/25/25 22/22/22 34/34/34
f 36/36/36 38/38/38 27/27/27
f 27/27/27 25/25/25 36/36/36
f 27/27/27 38/38/38 40/40/40
f 40/40/40 29/29/29 27/27/27
f 32/32/32 46/46/46 47/47/47
f 47/47/47 33/33/33 32/32/32
f 47/47/47 48/48/48 35/35/35
f 35/35/35 33/33/33 47/47/47
f 35/35/35 48/48/48 49/49/49
f 49/49/49 37/37/37 35/35/35
f 49/49/49 50/50/50 39/39/39
f 39/39/39 37/37/37 49/49/49
s 3
f 51/51/51 52/52/52 53/53/53
f 53/53/53 54/54/54 51/51/51
f 52/52/52 55/55/55 56/56/56
f 56/56/56 53/53/53 52/52/52
f 55/55/55 57/57/57 58/58/58
f 58/58/58 56/56/56 55/55/55
f 57/57/57 59/59/59 60/60/60
f 60/60/60 58/58/58 57/57/57
f 54/54/54 53/53/53 61/61/61
f 61/61/61 62/62/62 54/54/54
f 53/53/53 56/56/56 63/63/63
f 63/63/63 61/61/61 53/53/53
f 56/56/56 58/58/58 64/64/64
f 64/64/64 63/63/63 56/56/56
f 58/58/58 60/60/60 65/65/65
f 65/65/65 64/64/64 58/58/58
s 4
f 66/66/66 67/67/67 68/68/68
f 68/68/68 69/69/69 66/66/66
f 69/69/69 68/68/68 70/70/70
f 70/70/70 71/71/71 69/69/69
f 71/71/71 70/70/70 72/72/72
f 72/72/72 73/73/73 71/71/71
f 73/73/73 72/72/72 74/74/74
f 74/74/74 75/75/75 73/73/73
f 67/67/67 76/76/76 77/77/77
f 77/77/77 68/68/68 67/67/67
f 68/68/68 77/77/77 78/78/78
f 78/78/78 70/70/70 68/68/68
f 70/70/70 78/78/78 79/79/79
f 79/79/79 72/72/72 70/70/70
f 72/72/72 79/79/79 80/80/80
f 80/80/80 74/74/74 72/72/72
s 5
f 81/81/81 82/82/82 83/83/83
f 83/83/83 84/84/84 81/81/81
f 82/82/82 85/85/85 86/86/86
f 86/86/86 83/83/83 82/82/82
f 85/85/85 87/87/87 88/88/88
f 88/88/88 86/86/86 85/85/85
f 87/87/87 89/89/89 90/90/90
f 90/90/90 88/88/88 87/87/87
f 84/84/84 83/83/83 91/91/91
f 91/91/91 92/92/92 84/84/84
f 83/83/83 86/86/86 93/93/93
f 93/93/93 91/91/91 83/83/83
f 86/86/86 88/88/88 94/94/94
f 94/94/94 93/93/93 86/86/86
f 88/88/88 90/90/90 95/95/95
f 95/95/95 94/94/94 88/88/88
s 6
f 96/96/96 97/97/97 98/98/98
f 98/98/98 99/99/99 96/96/96
f 99/99/99 98/98/98 100/100/100
f 100/100/100 101/101/101 99/99/99
f 101/101/101 100/100/100 102/102/102
f 102/102/102 103/103/103 101/101/101
f 103/103/103 102/102/102 104/104/104
f 104/104/104 105/105/105 103/103/103
f 97/97/97 106/106/106 107/107/107
f 107/107/107 98/98/98 97/97/97
f 98/98/98 107/107/107 108/108/108
f 108/108/108 100/100/100 98/98/98
f 100/100/100 108/108/108 109/109/109
f 109/109/109 102/102/102 100/100/100
f 102/102/102 109/109/109 110/110/110
f 110/110/110 104/104/104 102/102/102
s 7
f 111/111/111 112/112/112 113/113/113
f 113/113/113 114/114/114 111/111/111
f 112/112/112 115/115/115 116/116/116
f 116/116/116 113/113/113 112/112/112
f 115/115/115 117/117/117 118/118/118
f 118/118/118 116/116/116 115/115/115
f 117/117/117 119/119/119 120/120/120
f 120/120/120 118/118/118 117/117/117
f 114/114/114 113/113/113 121/121/121
f 121/121/121 122/122/122 114/114/114
f 113/113/113 116/116/116 123/123/123
f 123/123/123 121/121/121 113/113/113
f 116/116/116 118/118/118 124/124/124
f 124/124/124 123/123/123 116/116/116
f 118/118/118 120/120/120 125/125/125
f 125/125/125 124/124/124 118/118/118
s 8
f 126/126/126 127/127/127 128/128/128
f 128/128/128 129/129/129 126/126/126
f 129/129/129 128/128/128 130/130/130
f 130/130/130 131/131/131 129/129/129
f 131/131/131 130/130/130 132/132/132
f 132/132/132 133/133/133 131/131/131
f 133/133/133 132/132/132 134/134/134
f 134/134/134 135/135/135 133/133/133
f 127/127/127 136/136/136 137/137/137
f 137/137/137 128/128/128 127/127/127
f 128/128/128 137/137/137 138/138/138
f 138/138/138 130/130/130 128/128/128
f 130/130/130 138/138/138 139/139/139
f 139/139/139 132/132/132 130/130/130
f 132/132/132 139/139/139 140/140/140
f 140/140/140 134/134/134 132/132/132
s 9
f 141/141/141 142/142/141 143/143/142
f 143/143/142 144/144/143 141/141/141
f 144/144/143 143/143/142 145/145/144
f 145/145/144 146/146/145 144/144/143
f 146/146/145 145/145/144 147/147/146
f 147/147/146 148/148/147 146/146/145
f 148/148/147 147/147/146 149/149/148
f 149/149/148 150/150/148 148/148/147
s 10
f 151/151/149 152/152/150 153/153/150
f 153/153/150 154/154/151 151/151/149
f 155/155/152 151/151/149 154/154/151
f 154/154/151 156/156/153 155/155/152
f 157/157/154 155/155/152 156/156/153
f 156/156/153 158/158/155 157/157/154
f 159/159/156 157/157/154 158/158/155
f 158/158/155 160/160/156 159/159/156
s 11
f 161/161/157 162/162/157 163/163/158
f 163/163/158 164/164/159 161/161/157
f 164/164/159 163/163/158 165/165/160
f 165/165/160 166/166/161 164/164/159
f 166/166/161 165/165/160 167/167/162
f 167/167/162 168/168/163 166/166/161
f 168/168/163 167/167/162 169/169/164
f 169/169/164 170/170/165 168/168/163
s 12
f 171/171/166 172/172/167 173/173/167
f 173/173/167 174/174/168 171/171/166
f 175/175/169 171/171/166 174/174/168
f 174/174/168 176/176/170 175/175/169
f 177/177/171 175/175/169 176/176/170
f 176/176/170 178/178/172 177/177/171
f 179/179/173 177/177/171 178/178/172
f 178/178/172 180/180/173 179/179/173
s 13
f 181/181/174 182/182/174 183/183/175
f 183/183/175 184/184/176 181/181/174
f 184/184/176 183/183/175 185/185/177
f 185/185/177 186/186/178 184/184/176
f 186/186/178 185/185/177 187/187/179
f 187/187/179 188/188/180 186/186/178
f 188/188/180 187/187/179 189/189/181
f 189/189/181 190/190/181 188/188/180
s 14
f 191/191/182 192/192/183 193/193/183
f 193/193/183 194/194/184 191/191/182
f 195/195/185 191/191/182 194/194/184
f 194/194/184 196/196/186 195/195/185
f 197/197/187 195/195/185 196/196/186
f 196/196/186 198/198/188 197/197/187
f 199/199/189 197/197/187 198/198/188
f 198/198/188 200/200/189 199/199/189
s 15
f 201/201/190 202/202/190 203/203/191
f 203/203/191 204/204/191 201/201/190
f 204/204/191 203/203/191 205/205/192
f 205/205/192 206/206/193 204/204/191
f 206/206/193 205/205/192 207/207/194
f 207/207/194 208/208/194 206/206/193
f 208/208/194 207/207/194 209/209/195
f 209/209/195 210/210/195 208/208/194
s 16
f 211/211/196 212/212/197 213/213/197
f 213/213/197 214/214/196 211/211/196
f 215/215/198 211/211/196 214/214/196
f 214/214/196 216/216/198 215/215/198
f 217/217/199 215/215/198 216/216/198
f 216/216/198 218/218/199 217/217/199
f 219/219/200 217/217/199 218/218/199
f 218/218/199 220/220/200 219/219/200
s 17
f 221/221/201 222/222/201 223/223/202
f 223/223/202 224/224/203 221/221/201
f 224/224/203 223/223/202 225/225/204
f 225/225/204 226/226/205 224/224/203
f 226/226/205 225/225/204 227/227/206
f 227/227/206 228/228/207 226/226/205
f 228/228/207 227/227/206 229/229/208
f 229/229/208 230/230/208 228/228/207
s 18
f 231/231/209 232/232/210 233/233/210
f 233/233/210 234/234/211 231/231/209
f 235/235/212 231/231/209 234/234/211
f 234/234/211 236/236/213 235/235/212
f 237/237/214 235/235/212 236/236/213
f 236/236/213 238/238/215 237/237/214
f 239/239/216 237/237/214 238/238/215
f 238/238/215 240/240/216 239/239/216
s 19
f 241/241/217 242/242/217 243/243/218
f 243/243/218 244/244/219 241/241/217
f 244/244/219 243/243/218 245/245/220
f 245/245/220 246/246/221 244/244/219
f 246/246/221 245/245/220 247/247/222
f 247/247/222 248/248/223 246/246/221
f 248/248/223 247/247/222 249/249/224
f 249/249/224 250/250/224 248/248/223
s 20
f 251/251/225 252/252/226 253/253/226
f 253/253/226 254/254/227 251/251/225
f 255/255/228 251/251/225 254/254/227
f 254/254/227 256/256/229 255/255/228
f 257/257/230 255/255/228 256/256/229
f 256/256/229 258/258/231 257/257/230
f 259/259/232 257/257/230 258/258/231
f 258/258/231 260/260/232 259/259/232
s 21
f 261/261/233 262/262/233 263/263/234
f 263/263/234 264/264/235 261/261/233
f 264/264/235 263/263/234 265/265/236
f 265/265/236 266/266/237 264/264/235
f 266/266/237 265/265/236 267/267/238
f 267/267/238 268/268/239 266/266/237
f 268/268/239 267/267/238 269/269/240
f 269/269/240 270/270/240 268/268/239
s 22
f 271/271/241 272/272/242 273/273/242
f 273/273/242 274/274/243 271/271/241
f 275/275/244 271/271/241 274/274/243
f 274/274/243 276/276/245 275/275/244
f 277/277/246 275/275/244 276/276/245
f 276/276/245 278/278/247 277/277/246
f 279/279/248 277/277/246 278/278/247
f 278/278/247 280/280/248 279/279/248
s 23
f 281/281/249 282/282/249 283/283/250
f 283/283/250 284/284/251 281/281/249
f 284/284/251 283/283/250 285/285/252
f 285/285/252 286/286/253 284/284/251
f 286/286/253 285/285/252 287/287/254
f 287/287/254 288/288/255 286/286/253
f 288/288/255 287/287/254 289/289/256
f 289/289/256 290/290/256 288/288/255
s 24
f 291/291/257 292/292/258 293/293/258
f 293/293/258 294/294/259 291/291/257
f 295/295/260 291/291/257 294/294/259
f 294/294/259 296/296/261 295/295/260
f 297/297/262 295/295/260 296/296/261
f 296/296/261 298/298/263 297/297/262
f 299/299/264 297/297/262 298/298/263
f 298/298/263 300/300/264 299/299/264
s 25
f 301/301/265 302/302/265 303/303/266
f 303/303/266 304/304/267 301/301/265
f 304/304/267 303/303/266 305/305/268
f 305/305/268 306/306/269 304/304/267
f 306/306/269 305/305/268 307/307/270
f 307/307/270 308/308/271 306/306/269
f 308/308/271 307/307/270 309/309/272
f 309/309/272 310/310/272 308/308/271
s 26
f 311/311/273 312/312/274 313/313/274
f 313/313/274 314/314/275 311/311/273
f 315/315/276 311/311/273 314/314/275
f 314/314/275 316/316/277 315/315/276
f 317/317/278 315/315/276 316/316/277
f 316/316/277 318/318/279 317/317/278
f 319/319/280 317/317/278 318/318/279
f 318/318/279 320/320/280 319/319/280
s 27
f 321/321/281 322/322/281 323/323/282
f 323/323/282 324/324/283 321/321/281
f 324/324/283 323/323/282 325/325/284
f 325/325/284 326/326/285 324/324/283
f 326/326/285 325/325/284 327/327/286
f 327/327/286 328/328/287 326/326/285
f 328/328/287 327/327/286 329/329/288
f 329/329/288 330/330/288 328/328/287
s 28
f 331/331/289 332/332/290 333/333/290
f 333/333/290 334/334/291 331/331/289
f 335/335/292 331/331/289 334/334/291
f 334/334/291 336/336/293 335/335/292
f 337/337/294 335/335/292 336/336/293
f 336/336/293 338/338/295 337/337/294
f 339/339/296 337/337/294 338/338/295
f 338/338/295 340/340/296 339/339/296
s 29
f 341/341/297 342/342/298 343/343/298
f 343/343/298 344/344/299 341/341/297
f 345/345/300 341/341/297 344/344/299
f 344/344/299 346/346/301 345/345/300
f 347/347/302 345/345/300 346/346/301
f 346/346/301 348/348/303 347/347/302
f 349/349/304 347/347/302 348/348/303
f 348/348/303 350/350/304 349/349/304
s 30
f 351/351/305 352/352/305 353/353/306
f 353/353/306 354/354/307 351/351/305
f 354/354/307 353/353/306 355/355/308
f 355/355/308 356/356/309 354/354/307
f 356/356/309 355/355/308 357/357/310
f 357/357/310 358/358/311 356/356/309
f 358/358/311 357/357/310 359/359/312
f 359/359/312 360/360/312 358/358/311
s 31
f 361/361/313 362/362/314 363/363/314
f 363/363/314 364/364/315 361/361/313
f 365/365/316 361/361/313 364/364/315
f 364/364/315 366/366/317 365/365/316
f 367/367/318 365/365/316 366/366/317
f 366/366/317 368/368/319 367/367/318
f 369/369/320 367/367/318 368/368/319
f 368/368/319 370/370/320 369/369/320
s 32
f 371/371/321 372/372/321 373/373/322
f 373/373/322 374/374/323 371/371/321
f 374/374/323 373/373/322 375/375/324
f 375/375/324 376/376/325 374/374/323
f 376/376/325 375/375/324 377/377/326
f 377/377/326 378/378/327 376/376/325
f 378/378/327 377/377/326 379/379/328
f 379/379/328 380/380/328 378/378/327
s 33
f 381/381/329 382/382/330 383/383/330
f 383/383/330 384/384/331 381/381/329
f 385/385/332 381/381/329 384/384/331
f 384/384/331 386/386/333 385/385/332
f 387/387/334 385/385/332 386/386/333
f 386/386/333 388/388/335 387/387/334
f 389/389/336 387/387/334 388/388/335
f 388/388/335 390/390/336 389/389/336
s 34
f 391/391/337 392/392/337 393/393/338
f 393/393/338 394/394/339 391/391/337
f 394/394/339 393/393/338 395/395/340
f 395/395/340 396/396/341 394/394/339
f 396/396/341 395/395/340 397/397/342
f 397/397/342 398/398/343 396/396/341
f 398/398/343 397/397/342 399/399/344
f 399/399/344 400/400/344 398/398/343
s 35
f 401/401/345 402/402/345 403/403/346
f 403/403/346 404/404/347 401/401/345
f 404/404/347 403/403/346 405/405/348
f 405/405/348 406/406/349 404/404/347
f 406/406/349 405/405/348 407/407/350
f 407/407/350 408/408/351 406/406/349
f 408/408/351 407/407/350 409/409/352
f 409/409/352 410/410/352 408/408/351
s 36
f 411/411/353 412/412/354 413/413/354
f 413/413/354 414/414/355 411/411/353
f 415/415/356 411/411/353 414/414/355
f 414/414/355 416/416/357 415/415/356
f 417/417/358 415/415/356 416/416/357
f 416/416/357 418/418/359 417/417/358
f 419/419/360 417/417/358 418/418/359
f 418/418/359 420/420/360 419/419/360
s 37
f 421/421/361 422/422/361 423/423/362
f 423/423/362 424/424/363 421/421/361
f 424/424/363 423/423/362 425/425/364
f 425/425/364 426/426/365 424/424/363
f 426/426/365 425/425/364 427/427/366
f 427/427/366 428/428/367 426/426/365
f 428/428/367 427/427/366 429/429/368
f 429/429/368 430/430/368 428/428/367
s 38
f 431/431/369 432/432/370 433/433/370
f 433/433/370 434/434/371 431/431/369
f 435/435/372 431/431/369 434/434/371
f 434/434/371 436/436/373 435/435/372
f 437/437/374 435/435/372 436/436/373
f 436/436/373 438/438/375 437/437/374
f 439/439/376 437/437/374 438/438/375
f 438/438/375 440/440/376 439/439/376
s 39
f 441/441/377 442/442/377 443/443/378
f 443/443/378 444/444/379 441/441/377
f 444/444/379 443/443/378 445/445/380
f 445/445/380 446/446/381 444/444/379
f 446/446/381 445/445/380 447/447/382
f 447/447/382 448/448/383 446/446/381
f 448/448/383 447/447/382 449/449/384
f 449/449/384 450/450/384 448/448/383
s 40
f 451/451/385 452/452/386 453/453/386
f 453/453/386 454/454/387 451/451/385
f 455/455/388 451/451/385 454/454/387
f 454/454/387 456/456/389 455/455/388
f 457/457/390 455/455/388 456/456/389
f 456/456/389 458/458/391 457/457/390
f 459/459/392 457/457/390 458/458/391
f 458/458/391 460/460/392 459/459/392
s 41
f 461/461/393 462/462/394 463/463/394
f 463/463/394 464/464/395 461/461/393
f 465/465/396 461/461/393 464/464/395
f 464/464/395 466/466/397 465/465/396
f 467/467/398 465/465/396 466/466/397
f 466/466/397 468/468/399 467/467/398
f 469/469/400 467/467/398 468/468/399
f 468/468/399 470/470/400 469/469/400
s 42
f 471/471/401 472/472/401 473/473/402
f 473/473/402 474/474/403 471/471/401
f 474/474/403 473/473/402 475/475/404
f 475/475/404 476/476/405 474/474/403
f 476/476/405 475/475/404 477/477/406
f 477/477/406 478/478/407 476/476/405
f 478/478/407 477/477/406 479/479/408
f 479/479/408 480/480/408 478/478/407
s 43
f 481/481/409 482/482/410 483/483/410
f 483/483/410 484/484/411 481/481/409
f 485/485/412 481/481/409 484/484/411
f 484/484/411 486/486/413 485/485/412
f 487/487/414 485/485/412 486/486/413
f 486/486/413 488/488/415 487/487/414
f 489/489/416 487/487/414 488/488/415
f 488/488/415 490/490/416 489/489/416
s 44
f 491/491/417 492/492/417 493/493/418
f 493/493/418 494/494/419 491/491/417
f 494/494/419 493/493/418 495/495/420
f 495/495/420 496/496/421 494/494/419
f 496/496/421 495/495/420 497/497/422
f 497/497/422 498/498/423 496/496/421
f 498/498/423 497/497/422 499/499/424
f 499/499/424 500/500/424 498/498/423
s 45
f 501/501/425 502/502/426 503/503/426
f 503/503/426 504/504/427 501/501/425
f 505/505/428 501/501/425 504/504/427
f 504/504/427 506/506/429 505/505/428
f 507/507/430 505/505/428 506/506/429
f 506/506/429 508/508/431 507/507/430
f 509/509/432 507/507/430 508/508/431
f 508/508/431 510/510/432 509/509/432
s 46
f 511/511/433 512/512/433 513/513/434
f 513/513/434 514/514/435 511/511/433
f 514/514/435 513/513/434 515/515/436
f 515/515/436 516/516/437 514/514/435
f 516/516/437 515/515/436 517/517/438
f 517/517/438 518/518/439 516/516/437
f 518/518/439 517/517/438 519/519/440
f 519/519/440 520/520/440 518/518/439
s 47
f 521/521/441 522/522/442 523/523/443
f 523/523/443 524/524/444 521/521/441
f 525/525/445 526/526/446 522/522/442
f 522/522/442 521/521/441 525/525/445
f 527/527/447 528/528/448 526/526/446
f 526/526/446 525/525/445 527/527/447
f 527/527/447 529/529/449 530/530/450
f 530/530/450 528/528/448 527/527/447
f 531/531/451 532/532/452 533/533/453
f 533/533/453 534/534/454 531/531/451
f 535/535/455 536/536/456 533/533/453
f 533/533/453 532/532/452 535/535/455
f 535/535/455 537/537/457 538/538/458
f 538/538/458 536/536/456 535/535/455
f 539/539/459 540/540/460 538/538/458
f 538/538/458 537/537/457 539/539/459
s 48
f 541/541/461 542/542/462 543/543/463
f 543/543/463 544/544/464 541/541/461
f 542/542/462 545/545/465 546/546/466
f 546/546/466 543/543/463 542/542/462
f 545/545/465 547/547/467 548/548/468
f 548/548/468 546/546/466 545/545/465
f 548/548/468 547/547/467 549/549/469
f 549/549/469 550/550/470 548/548/468
f 551/551/471 552/552/472 553/553/473
f 553/553/473 554/554/474 551/551/471
f 553/553/473 555/555/475 556/556/476
f 556/556/476 554/554/474 553/553/473
f 556/556/476 555/555/475 557/557/477
f 557/557/477 558/558/478 556/556/476
f 557/557/477 559/559/479 560/560/480
f 560/560/480 558/558/478 557/557/477
s 47
f 522/522/442 532/532/452 531/531/451
f 531/531/451 523/523/443 522/522/442
f 526/526/446 535/535/455 532/532/452
f 532/532/452 522/522/442 526/526/446
f 528/528/448 537/537/457 535/535/455
f 535/535/455 526/526/446 528/528/448
f 539/539/459 537/537/457 528/528/448
f 528/528/448 530/530/450 539/539/459
f 561/561/481 562/562/482 534/534/454
f 534/534/454 533/533/453 561/561/481
f 563/563/483 561/561/481 533/533/453
f 533/533/453 536/536/456 563/563/483
f 564/564/484 563/563/483 536/536/456
f 536/536/456 538/538/458 564/564/484
f 540/540/460 565/565/485 564/564/484
f 564/564/484 538/538/458 540/540/460
s 48
f 551/551/471 554/554/474 542/542/462
f 542/542/462 541/541/461 551/551/471
f 554/554/474 556/556/476 545/545/465
f 545/545/465 542/542/462 554/554/474
f 556/556/476 558/558/478 547/547/467
f 547/547/467 545/545/465 556/556/476
f 547/547/467 558/558/478 560/560/480
f 560/560/480 549/549/469 547/547/467
f 552/552/472 566/566/486 567/567/487
f 567/567/487 553/553/473 552/552/472
f 567/567/487 568/568/488 555/555/475
f 555/555/475 553/553/473 567/567/487
f 555/555/475 568/568/488 569/569/489
f 569/569/489 557/557/477 555/555/475
f 569/569/489 570/570/490 559/559/479
f 559/559/479 557/557/477 569/569/489
s 49
f 571/571/491 572/572/492 573/573/493
f 573/573/493 574/574/494 571/571/491
f 575/575/495 576/576/496 572/572/492
f 572/572/492 571/571/491 575/575/495
f 577/577/497 578/578/498 576/576/496
f 576/576/496 575/575/495 577/577/497
f 577/577/497 579/579/499 580/580/500
f 580/580/500 578/578/498 577/577/497
f 581/581/501 582/582/502 583/583/503
f 583/583/503 584/584/504 581/581/501
f 585/585/505 586/586/506 583/583/503
f 583/583/503 582/582/502 585/585/505
f 585/585/505 587/587/507 588/588/508
f 588/588/508 586/586/506 585/585/505
f 589/589/509 590/590/510 588/588/508
f 588/588/508 587/587/507 589/589/509
s 50
f 591/591/511 592/592/512 593/593/513
f 593/593/513 594/594/514 591/591/511
f 592/592/512 595/595/515 596/596/516
f 596/596/516 593/593/513 592/592/512
f 595/595/515 597/597/517 598/598/518
f 598/598/518 596/596/516 595/595/515
f 598/598/518 597/597/517 599/599/519
f 599/599/519 600/600/520 598/598/518
f 601/601/521 602/602/522 603/603/523
f 603/603/523 604/604/524 601/601/521
f 603/603/523 605/605/525 606/606/526
f 606/606/526 604/604/524 603/603/523
f 606/606/526 605/605/525 607/607/527
f 607/607/527 608/608/528 606/606/526
f 607/607/527 609/609/529 610/610/530
f 610/610/530 608/608/528 607/607/527
s 49
f 572/572/492 582/582/502 581/581/501
f 581/581/501 573/573/493 572/572/492
f 576/576/496 585/585/505 582/582/502
f 582/582/502 572/572/492 576/576/496
f 578/578/498 587/587/507 585/585/505
f 585/585/505 576/576/496 578/578/498
f 589/589/509 587/587/507 578/578/498
f 578/578/498 580/580/500 589/589/509
f 611/611/531 612/612/532 584/584/504
f 584/584/504 583/583/503 611/611/531
f 613/613/533 611/611/531 583/583/503
f 583/583/503 586/586/506 613/613/533
f 614/614/534 613/613/533 586/586/506
f 586/586/506 588/588/508 614/614/534
f 590/590/510 615/615/535 614/614/534
f 614/614/534 588/588/508 590/590/510
s 50
f 601/601/521 604/604/524 592/592/512
f 592/592/512 591/591/511 601/601/521
f 604/604/524 606/606/526 595/595/515
f 595/595/515 592/592/512 604/604/524
f 606/606/526 608/608/528 597/597/517
f 597/597/517 595/595/515 606/606/526
f 597/597/517 608/608/528 610/610/530
f 610/610/530 599/599/519 597/597/517
f 602/602/522 616/616/536 617/617/537
f 617/617/537 603/603/523 602/602/522
f 617/617/537 618/618/538 605/605/525
f 605/605/525 603/603/523 617/617/537
f 605/605/525 618/618/538 619/619/539
f 619/619/539 607/607/527 605/605/525
f 619/619/539 620/620/540 609/609/529
f 609/609/529 607/607/527 619/619/539
