# Blender v3.3.0 OBJ File: ''
# www.blender.org
o SwitchGrassStage03.005
v -0.044021 -0.053987 0.151396
v -0.042909 0.078730 0.150602
v -0.012250 0.083106 -0.004055
v 0.000000 -0.053310 -0.000000
v -0.030804 0.255454 0.155007
v -0.000145 0.284653 0.000351
v -0.069940 0.459529 0.138874
v -0.012574 0.484651 -0.007927
v -0.051170 0.627231 0.149710
v 0.006195 0.631413 0.002910
v 0.048821 0.076779 -0.147643
v 0.073353 -0.054008 -0.137719
v 0.060926 0.246859 -0.143237
v 0.072394 0.457397 -0.138791
v 0.091163 0.629976 -0.127955
v -0.041720 -0.053984 0.152470
v 0.002302 -0.053317 0.001074
v -0.009948 0.083123 -0.002982
v -0.040607 0.078679 0.151675
v 0.002157 0.284745 0.001424
v -0.028502 0.255104 0.156081
v -0.010272 0.484306 -0.006853
v -0.067638 0.459462 0.139947
v 0.008497 0.631413 0.003983
v -0.048869 0.627231 0.150784
v 0.075655 -0.054008 -0.136645
v 0.051123 0.076777 -0.146570
v 0.063227 0.247077 -0.142164
v 0.074696 0.457675 -0.137718
v 0.093465 0.629976 -0.126881
v -0.126076 -0.056145 0.063687
v -0.122955 0.061730 0.071604
v -0.002909 0.067899 -0.002798
v 0.000000 -0.053310 -0.000000
v -0.116524 0.209965 0.089872
v 0.003522 0.238023 0.015470
v -0.128120 0.380385 0.061468
v 0.003164 0.428078 0.009557
v -0.121858 0.546297 0.087897
v 0.009426 0.577091 0.035985
v 0.128470 0.065036 -0.050586
v 0.135040 -0.053834 -0.036186
v 0.134901 0.231148 -0.032318
v 0.140789 0.416744 -0.014950
v 0.147051 0.569660 0.011479
v -0.125372 -0.056314 0.065845
v 0.000704 -0.053480 0.002158
v -0.002206 0.067724 -0.000640
v -0.122251 0.061495 0.073762
v 0.004225 0.237821 0.017629
v -0.115820 0.209652 0.092031
v 0.003867 0.428121 0.011715
v -0.127417 0.379914 0.063626
v 0.010129 0.576839 0.038144
v -0.121155 0.546965 0.090055
v 0.135743 -0.053995 -0.034028
v 0.129174 0.064917 -0.048428
v 0.135605 0.231121 -0.030160
v 0.141493 0.417138 -0.012792
v 0.147755 0.569649 0.013637
v 0.110444 -0.041430 0.093273
v 0.100362 0.082564 0.089274
v -0.017783 0.069821 0.006031
v 0.000000 -0.053310 -0.000000
v 0.098725 0.258884 0.077959
v -0.019420 0.245921 -0.005284
v 0.061693 0.441171 0.102366
v -0.040267 0.433778 -0.000519
v 0.068071 0.598037 0.087875
v -0.033889 0.590645 -0.015010
v -0.115345 0.055618 -0.098685
v -0.088077 -0.064213 -0.112868
v -0.116982 0.208840 -0.110000
v -0.118169 0.383067 -0.120581
v -0.111791 0.530123 -0.135072
v 0.112199 -0.041319 0.091736
v 0.001755 -0.053196 -0.001538
v -0.016028 0.069955 0.004493
v 0.102118 0.082786 0.087736
v -0.017665 0.245954 -0.006822
v 0.100480 0.259829 0.076421
v -0.038511 0.434293 -0.002057
v 0.063449 0.441685 0.100828
v -0.032134 0.590758 -0.016548
v 0.069827 0.598150 0.086337
v -0.086322 -0.064103 -0.114406
v -0.113589 0.055751 -0.100223
v -0.115227 0.208951 -0.111538
v -0.116413 0.382970 -0.122119
v -0.110036 0.529645 -0.136609
vt 1.001200 0.426100
vt 1.001200 0.507900
vt 0.935100 0.507900
vt 0.935100 0.426100
vt 1.001200 0.589700
vt 0.935100 0.589700
vt 1.001200 0.671600
vt 0.935100 0.671600
vt 1.001200 0.753400
vt 0.935100 0.753400
vt 0.868900 0.507900
vt 0.868900 0.426100
vt 0.868900 0.589700
vt 0.868900 0.671600
vt 0.868900 0.753400
vt 1.001200 0.426100
vt 0.935100 0.426100
vt 0.935100 0.507900
vt 1.001200 0.507900
vt 0.935100 0.589700
vt 1.001200 0.589700
vt 0.935100 0.671600
vt 1.001200 0.671600
vt 0.935100 0.753400
vt 1.001200 0.753400
vt 0.868900 0.426100
vt 0.868900 0.507900
vt 0.868900 0.589700
vt 0.868900 0.671600
vt 0.868900 0.753400
vt 1.001200 0.426100
vt 1.001200 0.507900
vt 0.935100 0.507900
vt 0.935100 0.426100
vt 1.001200 0.589700
vt 0.935100 0.589700
vt 1.001200 0.671600
vt 0.935100 0.671600
vt 1.001200 0.753400
vt 0.935100 0.753400
vt 0.868900 0.507900
vt 0.868900 0.426100
vt 0.868900 0.589700
vt 0.868900 0.671600
vt 0.868900 0.753400
vt 1.001200 0.426100
vt 0.935100 0.426100
vt 0.935100 0.507900
vt 1.001200 0.507900
vt 0.935100 0.589700
vt 1.001200 0.589700
vt 0.935100 0.671600
vt 1.001200 0.671600
vt 0.935100 0.753400
vt 1.001200 0.753400
vt 0.868900 0.426100
vt 0.868900 0.507900
vt 0.868900 0.589700
vt 0.868900 0.671600
vt 0.868900 0.753400
vt 1.001200 0.426100
vt 1.001200 0.507900
vt 0.935100 0.507900
vt 0.935100 0.426100
vt 1.001200 0.589700
vt 0.935100 0.589700
vt 1.001200 0.671600
vt 0.935100 0.671600
vt 1.001200 0.753400
vt 0.935100 0.753400
vt 0.868900 0.507900
vt 0.868900 0.426100
vt 0.868900 0.589700
vt 0.868900 0.671600
vt 0.868900 0.753400
vt 1.001200 0.426100
vt 0.935100 0.426100
vt 0.935100 0.507900
vt 1.001200 0.507900
vt 0.935100 0.589700
vt 1.001200 0.589700
vt 0.935100 0.671600
vt 1.001200 0.671600
vt 0.935100 0.753400
vt 1.001200 0.753400
vt 0.868900 0.426100
vt 0.868900 0.507900
vt 0.868900 0.589700
vt 0.868900 0.671600
vt 0.868900 0.753400
vn -0.9717 -0.0391 -0.2331
vn -0.9809 0.0364 -0.1910
vn -0.9518 -0.0009 -0.3068
vn -0.9290 -0.1179 -0.3508
vn -0.9734 -0.0159 -0.2287
vn -0.9478 0.0103 -0.3187
vn -0.9257 -0.0506 -0.3747
vn -0.8967 0.0272 -0.4418
vn -0.9251 0.1267 -0.3579
vn -0.8833 0.1412 -0.4470
vn -0.9097 -0.0406 -0.4133
vn -0.8657 -0.1973 -0.4601
vn -0.9136 0.0642 -0.4015
vn -0.8546 0.0455 -0.5172
vn -0.8246 0.1347 -0.5495
vn 0.9717 0.0391 0.2331
vn 0.9290 0.1179 0.3508
vn 0.9518 0.0009 0.3067
vn 0.9809 -0.0364 0.1910
vn 0.9478 -0.0102 0.3187
vn 0.9734 0.0157 0.2285
vn 0.8967 -0.0269 0.4419
vn 0.9258 0.0504 0.3746
vn 0.8833 -0.1410 0.4471
vn 0.9251 -0.1266 0.3579
vn 0.8657 0.1973 0.4601
vn 0.9097 0.0407 0.4133
vn 0.9136 -0.0642 0.4014
vn 0.8547 -0.0457 0.5172
vn 0.8247 -0.1347 0.5493
vn -0.4940 0.0247 -0.8691
vn -0.5316 0.0937 -0.8418
vn -0.4258 0.0537 -0.9032
vn -0.3783 -0.0536 -0.9241
vn -0.5002 0.0313 -0.8654
vn -0.4203 0.0580 -0.9055
vn -0.3516 -0.0388 -0.9353
vn -0.2951 0.0709 -0.9528
vn -0.3951 0.1590 -0.9048
vn -0.2803 0.1745 -0.9439
vn -0.3182 0.0139 -0.9479
vn -0.2571 -0.1302 -0.9576
vn -0.3357 0.1066 -0.9359
vn -0.2032 0.0948 -0.9745
vn -0.1610 0.1768 -0.9710
vn 0.4940 -0.0247 0.8691
vn 0.3783 0.0536 0.9241
vn 0.4259 -0.0537 0.9032
vn 0.5316 -0.0937 0.8418
vn 0.4204 -0.0580 0.9055
vn 0.5002 -0.0314 0.8654
vn 0.2953 -0.0712 0.9527
vn 0.3510 0.0394 0.9355
vn 0.2805 -0.1744 0.9439
vn 0.3940 -0.1580 0.9054
vn 0.2571 0.1302 0.9576
vn 0.3182 -0.0139 0.9479
vn 0.3358 -0.1064 0.9359
vn 0.2033 -0.0951 0.9745
vn 0.1613 -0.1772 0.9709
vn -0.6016 -0.0694 0.7958
vn -0.5769 0.0138 0.8167
vn -0.6649 -0.0323 0.7463
vn -0.6856 -0.1579 0.7106
vn -0.6025 -0.0514 0.7965
vn -0.6717 -0.0083 0.7408
vn -0.7061 -0.0691 0.7047
vn -0.7676 -0.0158 0.6407
vn -0.7105 0.0933 0.6974
vn -0.7786 0.0890 0.6212
vn -0.7411 -0.0799 0.6666
vn -0.7530 -0.2437 0.6112
vn -0.7366 0.0377 0.6752
vn -0.8157 0.0090 0.5784
vn -0.8533 0.0849 0.5144
vn 0.6016 0.0694 -0.7958
vn 0.6856 0.1579 -0.7106
vn 0.6649 0.0322 -0.7463
vn 0.5770 -0.0138 -0.8166
vn 0.6716 0.0081 -0.7408
vn 0.6025 0.0519 -0.7964
vn 0.7676 0.0156 -0.6407
vn 0.7061 0.0693 -0.7047
vn 0.7786 -0.0893 -0.6211
vn 0.7105 -0.0936 -0.6974
vn 0.7530 0.2436 -0.6112
vn 0.7411 0.0798 -0.6666
vn 0.7366 -0.0377 -0.6752
vn 0.8157 -0.0089 -0.5784
vn 0.8535 -0.0851 -0.5140
s 1
f 1/1/1 2/2/2 3/3/3
f 3/3/3 4/4/4 1/1/1
f 2/2/2 5/5/5 6/6/6
f 6/6/6 3/3/3 2/2/2
f 5/5/5 7/7/7 8/8/8
f 8/8/8 6/6/6 5/5/5
f 7/7/7 9/9/9 10/10/10
f 10/10/10 8/8/8 7/7/7
f 4/4/4 3/3/3 11/11/11
f 11/11/11 12/12/12 4/4/4
f 3/3/3 6/6/6 13/13/13
f 13/13/13 11/11/11 3/3/3
f 6/6/6 8/8/8 14/14/14
f 14/14/14 13/13/13 6/6/6
f 8/8/8 10/10/10 15/15/15
f 15/15/15 14/14/14 8/8/8
s 2
f 16/16/16 17/17/17 18/18/18
f 18/18/18 19/19/19 16/16/16
f 19/19/19 18/18/18 20/20/20
f 20/20/20 21/21/21 19/19/19
f 21/21/21 20/20/20 22/22/22
f 22/22/22 23/23/23 21/21/21
f 23/23/23 22/22/22 24/24/24
f 24/24/24 25/25/25 23/23/23
f 17/17/17 26/26/26 27/27/27
f 27/27/27 18/18/18 17/17/17
f 18/18/18 27/27/27 28/28/28
f 28/28/28 20/20/20 18/18/18
f 20/20/20 28/28/28 29/29/29
f 29/29/29 22/22/22 20/20/20
f 22/22/22 29/29/29 30/30/30
f 30/30/30 24/24/24 22/22/22
s 3
f 31/31/31 32/32/32 33/33/33
f 33/33/33 34/34/34 31/31/31
f 32/32/32 35/35/35 36/36/36
f 36/36/36 33/33/33 32/32/32
f 35/35/35 37/37/37 38/38/38
f 38/38/38 36/36/36 35/35/35
f 37/37/37 39/39/39 40/40/40
f 40/40/40 38/38/38 37/37/37
f 34/34/34 33/33/33 41/41/41
f 41/41/41 42/42/42 34/34/34
f 33/33/33 36/36/36 43/43/43
f 43/43/43 41/41/41 33/33/33
f 36/36/36 38/38/38 44/44/44
f 44/44/44 43/43/43 36/36/36
f 38/38/38 40/40/40 45/45/45
f 45/45/45 44/44/44 38/38/38
s 4
f 46/46/46 47/47/47 48/48/48
f 48/48/48 49/49/49 46/46/46
f 49/49/49 48/48/48 50/50/50
f 50/50/50 51/51/51 49/49/49
f 51/51/51 50/50/50 52/52/52
f 52/52/52 53/53/53 51/51/51
f 53/53/53 52/52/52 54/54/54
f 54/54/54 55/55/55 53/53/53
f 47/47/47 56/56/56 57/57/57
f 57/57/57 48/48/48 47/47/47
f 48/48/48 57/57/57 58/58/58
f 58/58/58 50/50/50 48/48/48
f 50/50/50 58/58/58 59/59/59
f 59/59/59 52/52/52 50/50/50
f 52/52/52 59/59/59 60/60/60
f 60/60/60 54/54/54 52/52/52
s 5
f 61/61/61 62/62/62 63/63/63
f 63/63/63 64/64/64 61/61/61
f 62/62/62 65/65/65 66/66/66
f 66/66/66 63/63/63 62/62/62
f 65/65/65 67/67/67 68/68/68
f 68/68/68 66/66/66 65/65/65
f 67/67/67 69/69/69 70/70/70
f 70/70/70 68/68/68 67/67/67
f 64/64/64 63/63/63 71/71/71
f 71/71/71 72/72/72 64/64/64
f 63/63/63 66/66/66 73/73/73
f 73/73/73 71/71/71 63/63/63
f 66/66/66 68/68/68 74/74/74
f 74/74/74 73/73/73 66/66/66
f 68/68/68 70/70/70 75/75/75
f 75/75/75 74/74/74 68/68/68
s 6
f 76/76/76 77/77/77 78/78/78
f 78/78/78 79/79/79 76/76/76
f 79/79/79 78/78/78 80/80/80
f 80/80/80 81/81/81 79/79/79
f 81/81/81 80/80/80 82/82/82
f 82/82/82 83/83/83 81/81/81
f 83/83/83 82/82/82 84/84/84
f 84/84/84 85/85/85 83/83/83
f 77/77/77 86/86/86 87/87/87
f 87/87/87 78/78/78 77/77/77
f 78/78/78 87/87/87 88/88/88
f 88/88/88 80/80/80 78/78/78
f 80/80/80 88/88/88 89/89/89
f 89/89/89 82/82/82 80/80/80
f 82/82/82 89/89/89 90/90/90
f 90/90/90 84/84/84 82/82/82
