# Blender v3.3.0 OBJ File: ''
# www.blender.org
o SwitchGrassStage01.005
v -0.027345 -0.033917 0.094044
v -0.026654 0.048523 0.093550
v -0.007609 0.050792 -0.002519
v 0.000000 -0.033497 -0.000000
v -0.019135 0.142448 0.096287
v -0.000090 0.146584 0.000218
v -0.043445 0.230559 0.086265
v -0.007810 0.235880 -0.004924
v -0.031786 0.314375 0.092996
v 0.003848 0.316973 0.001807
v 0.030326 0.047311 -0.091712
v 0.045565 -0.033931 -0.085547
v 0.037845 0.139255 -0.088975
v 0.044969 0.230121 -0.086214
v 0.056628 0.316081 -0.079482
v -0.025915 -0.033916 0.094711
v 0.001430 -0.033502 0.000667
v -0.006179 0.050792 -0.001852
v -0.025224 0.048491 0.094217
v 0.001340 0.146576 0.000885
v -0.017705 0.142320 0.096954
v -0.006381 0.235810 -0.004257
v -0.042015 0.230463 0.086932
v 0.005278 0.316973 0.002474
v -0.030356 0.314375 0.093663
v 0.046995 -0.033931 -0.084881
v 0.031756 0.047310 -0.091045
v 0.039275 0.139307 -0.088309
v 0.046399 0.230177 -0.085547
v 0.058058 0.316081 -0.078816
v -0.078315 -0.035258 0.039561
v -0.076377 0.037963 0.044479
v -0.001807 0.041742 -0.001738
v 0.000000 -0.033497 -0.000000
v -0.072382 0.120799 0.055827
v 0.002188 0.125883 0.009610
v -0.079585 0.200412 0.038182
v 0.001965 0.208167 0.005936
v -0.075695 0.278381 0.054599
v 0.005855 0.283230 0.022353
v 0.079802 0.039966 -0.031423
v 0.083883 -0.033823 -0.022478
v 0.083797 0.122356 -0.020075
v 0.087455 0.201801 -0.009287
v 0.091345 0.278614 0.007130
v -0.077878 -0.035363 0.040901
v 0.000437 -0.033603 0.001341
v -0.001370 0.041632 -0.000397
v -0.075940 0.037817 0.045819
v 0.002625 0.125747 0.010951
v -0.071945 0.120728 0.057167
v 0.002402 0.208064 0.007277
v -0.079148 0.200260 0.039523
v 0.006292 0.283073 0.023694
v -0.075258 0.278368 0.055940
v 0.084320 -0.033923 -0.021137
v 0.080239 0.039888 -0.030082
v 0.084234 0.122241 -0.018734
v 0.087892 0.201856 -0.007946
v 0.091782 0.278607 0.008471
v 0.068605 -0.026118 0.057939
v 0.062343 0.050749 0.055455
v -0.011046 0.042903 0.003746
v 0.000000 -0.033497 -0.000000
v 0.061326 0.137833 0.048426
v -0.012063 0.130194 -0.003282
v 0.038322 0.217214 0.063587
v -0.025013 0.212622 -0.000323
v 0.042284 0.296241 0.054586
v -0.021051 0.291649 -0.009324
v -0.071649 0.034166 -0.061301
v -0.054711 -0.040270 -0.070111
v -0.072666 0.119852 -0.068329
v -0.073403 0.201699 -0.074902
v -0.069442 0.279545 -0.083903
v 0.069695 -0.026049 0.056984
v 0.001090 -0.033426 -0.000955
v -0.009956 0.042985 0.002791
v 0.063433 0.050858 0.054499
v -0.010973 0.130254 -0.004238
v 0.062416 0.138014 0.047471
v -0.023922 0.212772 -0.001278
v 0.039413 0.217364 0.062632
v -0.019961 0.291720 -0.010279
v 0.043375 0.296312 0.053631
v -0.053621 -0.040201 -0.071066
v -0.070559 0.034249 -0.062256
v -0.071576 0.119948 -0.069284
v -0.072313 0.201777 -0.075857
v -0.068351 0.279549 -0.084858
vt 1.001200 0.758600
vt 1.001200 0.818800
vt 0.935100 0.818800
vt 0.935100 0.758600
vt 1.001200 0.878900
vt 0.935100 0.878900
vt 1.001200 0.939100
vt 0.935100 0.939100
vt 1.001200 0.999200
vt 0.935100 0.999200
vt 0.868900 0.818800
vt 0.868900 0.758600
vt 0.868900 0.878900
vt 0.868900 0.939100
vt 0.868900 0.999200
vt 1.001200 0.758600
vt 0.935100 0.758600
vt 0.935100 0.818800
vt 1.001200 0.818800
vt 0.935100 0.878900
vt 1.001200 0.878900
vt 0.935100 0.939100
vt 1.001200 0.939100
vt 0.935100 0.999200
vt 1.001200 0.999200
vt 0.868900 0.758600
vt 0.868900 0.818800
vt 0.868900 0.878900
vt 0.868900 0.939100
vt 0.868900 0.999200
vt 1.001200 0.758600
vt 1.001200 0.818800
vt 0.935100 0.818800
vt 0.935100 0.758600
vt 1.001200 0.878900
vt 0.935100 0.878900
vt 1.001200 0.939100
vt 0.935100 0.939100
vt 1.001200 0.999200
vt 0.935100 0.999200
vt 0.868900 0.818800
vt 0.868900 0.758600
vt 0.868900 0.878900
vt 0.868900 0.939100
vt 0.868900 0.999200
vt 1.001200 0.758600
vt 0.935100 0.758600
vt 0.935100 0.818800
vt 1.001200 0.818800
vt 0.935100 0.878900
vt 1.001200 0.878900
vt 0.935100 0.939100
vt 1.001200 0.939100
vt 0.935100 0.999200
vt 1.001200 0.999200
vt 0.868900 0.758600
vt 0.868900 0.818800
vt 0.868900 0.878900
vt 0.868900 0.939100
vt 0.868900 0.999200
vt 1.001200 0.758600
vt 1.001200 0.818800
vt 0.935100 0.818800
vt 0.935100 0.758600
vt 1.001200 0.878900
vt 0.935100 0.878900
vt 1.001200 0.939100
vt 0.935100 0.939100
vt 1.001200 0.999200
vt 0.935100 0.999200
vt 0.868900 0.818800
vt 0.868900 0.758600
vt 0.868900 0.878900
vt 0.868900 0.939100
vt 0.868900 0.999200
vt 1.001200 0.758600
vt 0.935100 0.758600
vt 0.935100 0.818800
vt 1.001200 0.818800
vt 0.935100 0.878900
vt 1.001200 0.878900
vt 0.935100 0.939100
vt 1.001200 0.939100
vt 0.935100 0.999200
vt 1.001200 0.999200
vt 0.868900 0.758600
vt 0.868900 0.818800
vt 0.868900 0.878900
vt 0.868900 0.939100
vt 0.868900 0.999200
vn -0.9717 -0.0392 -0.2330
vn -0.9802 0.0446 -0.1929
vn -0.9520 0.0074 -0.3059
vn -0.9289 -0.1183 -0.3509
vn -0.9694 -0.0520 -0.2397
vn -0.9482 0.0115 -0.3176
vn -0.9272 -0.0714 -0.3678
vn -0.8992 0.0127 -0.4373
vn -0.9214 0.1567 -0.3556
vn -0.8790 0.1624 -0.4483
vn -0.9098 -0.0350 -0.4135
vn -0.8657 -0.1973 -0.4601
vn -0.9148 0.0843 -0.3950
vn -0.8589 0.0726 -0.5069
vn -0.8250 0.1585 -0.5425
vn 0.9717 0.0392 0.2330
vn 0.9289 0.1183 0.3509
vn 0.9520 -0.0074 0.3059
vn 0.9802 -0.0446 0.1928
vn 0.9482 -0.0115 0.3176
vn 0.9695 0.0519 0.2397
vn 0.8992 -0.0126 0.4374
vn 0.9272 0.0715 0.3678
vn 0.8791 -0.1622 0.4483
vn 0.9214 -0.1566 0.3556
vn 0.8657 0.1973 0.4601
vn 0.9098 0.0350 0.4135
vn 0.9148 -0.0843 0.3950
vn 0.8589 -0.0727 0.5069
vn 0.8250 -0.1585 0.5424
vn -0.4940 0.0247 -0.8691
vn -0.5282 0.1046 -0.8427
vn -0.4254 0.0680 -0.9024
vn -0.3783 -0.0536 -0.9241
vn -0.4876 0.0049 -0.8731
vn -0.4151 0.0699 -0.9071
vn -0.3642 -0.0204 -0.9311
vn -0.2925 0.0725 -0.9535
vn -0.3703 0.2090 -0.9051
vn -0.2689 0.2172 -0.9383
vn -0.3178 0.0280 -0.9477
vn -0.2571 -0.1303 -0.9576
vn -0.3336 0.1425 -0.9319
vn -0.2110 0.1309 -0.9687
vn -0.1575 0.2162 -0.9636
vn 0.4940 -0.0247 0.8691
vn 0.3783 0.0536 0.9241
vn 0.4255 -0.0681 0.9024
vn 0.5282 -0.1046 0.8427
vn 0.4152 -0.0700 0.9071
vn 0.4875 -0.0047 0.8731
vn 0.2926 -0.0725 0.9535
vn 0.3641 0.0207 0.9311
vn 0.2690 -0.2173 0.9383
vn 0.3700 -0.2087 0.9053
vn 0.2571 0.1303 0.9576
vn 0.3178 -0.0281 0.9477
vn 0.3337 -0.1424 0.9319
vn 0.2111 -0.1310 0.9686
vn 0.1579 -0.2164 0.9635
vn -0.6016 -0.0694 0.7958
vn -0.5772 0.0197 0.8163
vn -0.6645 -0.0277 0.7467
vn -0.6856 -0.1580 0.7106
vn -0.6062 -0.0843 0.7908
vn -0.6727 -0.0183 0.7397
vn -0.7024 -0.1065 0.7038
vn -0.7624 -0.0344 0.6462
vn -0.7097 0.1147 0.6951
vn -0.7787 0.1094 0.6178
vn -0.7414 -0.0773 0.6666
vn -0.7530 -0.2437 0.6112
vn -0.7344 0.0471 0.6771
vn -0.8137 0.0265 0.5807
vn -0.8416 0.1034 0.5302
vn 0.6016 0.0694 -0.7958
vn 0.6857 0.1580 -0.7106
vn 0.6645 0.0276 -0.7467
vn 0.5773 -0.0197 -0.8163
vn 0.6726 0.0182 -0.7397
vn 0.6062 0.0845 -0.7908
vn 0.7624 0.0343 -0.6462
vn 0.7024 0.1065 -0.7038
vn 0.7787 -0.1095 -0.6178
vn 0.7097 -0.1149 -0.6951
vn 0.7531 0.2437 -0.6112
vn 0.7414 0.0773 -0.6666
vn 0.7344 -0.0471 -0.6771
vn 0.8137 -0.0265 -0.5807
vn 0.8416 -0.1035 -0.5301
s 1
f 1/1/1 2/2/2 3/3/3
f 3/3/3 4/4/4 1/1/1
f 2/2/2 5/5/5 6/6/6
f 6/6/6 3/3/3 2/2/2
f 5/5/5 7/7/7 8/8/8
f 8/8/8 6/6/6 5/5/5
f 7/7/7 9/9/9 10/10/10
f 10/10/10 8/8/8 7/7/7
f 4/4/4 3/3/3 11/11/11
f 11/11/11 12/12/12 4/4/4
f 3/3/3 6/6/6 13/13/13
f 13/13/13 11/11/11 3/3/3
f 6/6/6 8/8/8 14/14/14
f 14/14/14 13/13/13 6/6/6
f 8/8/8 10/10/10 15/15/15
f 15/15/15 14/14/14 8/8/8
s 2
f 16/16/16 17/17/17 18/18/18
f 18/18/18 19/19/19 16/16/16
f 19/19/19 18/18/18 20/20/20
f 20/20/20 21/21/21 19/19/19
f 21/21/21 20/20/20 22/22/22
f 22/22/22 23/23/23 21/21/21
f 23/23/23 22/22/22 24/24/24
f 24/24/24 25/25/25 23/23/23
f 17/17/17 26/26/26 27/27/27
f 27/27/27 18/18/18 17/17/17
f 18/18/18 27/27/27 28/28/28
f 28/28/28 20/20/20 18/18/18
f 20/20/20 28/28/28 29/29/29
f 29/29/29 22/22/22 20/20/20
f 22/22/22 29/29/29 30/30/30
f 30/30/30 24/24/24 22/22/22
s 3
f 31/31/31 32/32/32 33/33/33
f 33/33/33 34/34/34 31/31/31
f 32/32/32 35/35/35 36/36/36
f 36/36/36 33/33/33 32/32/32
f 35/35/35 37/37/37 38/38/38
f 38/38/38 36/36/36 35/35/35
f 37/37/37 39/39/39 40/40/40
f 40/40/40 38/38/38 37/37/37
f 34/34/34 33/33/33 41/41/41
f 41/41/41 42/42/42 34/34/34
f 33/33/33 36/36/36 43/43/43
f 43/43/43 41/41/41 33/33/33
f 36/36/36 38/38/38 44/44/44
f 44/44/44 43/43/43 36/36/36
f 38/38/38 40/40/40 45/45/45
f 45/45/45 44/44/44 38/38/38
s 4
f 46/46/46 47/47/47 48/48/48
f 48/48/48 49/49/49 46/46/46
f 49/49/49 48/48/48 50/50/50
f 50/50/50 51/51/51 49/49/49
f 51/51/51 50/50/50 52/52/52
f 52/52/52 53/53/53 51/51/51
f 53/53/53 52/52/52 54/54/54
f 54/54/54 55/55/55 53/53/53
f 47/47/47 56/56/56 57/57/57
f 57/57/57 48/48/48 47/47/47
f 48/48/48 57/57/57 58/58/58
f 58/58/58 50/50/50 48/48/48
f 50/50/50 58/58/58 59/59/59
f 59/59/59 52/52/52 50/50/50
f 52/52/52 59/59/59 60/60/60
f 60/60/60 54/54/54 52/52/52
s 5
f 61/61/61 62/62/62 63/63/63
f 63/63/63 64/64/64 61/61/61
f 62/62/62 65/65/65 66/66/66
f 66/66/66 63/63/63 62/62/62
f 65/65/65 67/67/67 68/68/68
f 68/68/68 66/66/66 65/65/65
f 67/67/67 69/69/69 70/70/70
f 70/70/70 68/68/68 67/67/67
f 64/64/64 63/63/63 71/71/71
f 71/71/71 72/72/72 64/64/64
f 63/63/63 66/66/66 73/73/73
f 73/73/73 71/71/71 63/63/63
f 66/66/66 68/68/68 74/74/74
f 74/74/74 73/73/73 66/66/66
f 68/68/68 70/70/70 75/75/75
f 75/75/75 74/74/74 68/68/68
s 6
f 76/76/76 77/77/77 78/78/78
f 78/78/78 79/79/79 76/76/76
f 79/79/79 78/78/78 80/80/80
f 80/80/80 81/81/81 79/79/79
f 81/81/81 80/80/80 82/82/82
f 82/82/82 83/83/83 81/81/81
f 83/83/83 82/82/82 84/84/84
f 84/84/84 85/85/85 83/83/83
f 77/77/77 86/86/86 87/87/87
f 87/87/87 78/78/78 77/77/77
f 78/78/78 87/87/87 88/88/88
f 88/88/88 80/80/80 78/78/78
f 80/80/80 88/88/88 89/89/89
f 89/89/89 82/82/82 80/80/80
f 82/82/82 89/89/89 90/90/90
f 90/90/90 84/84/84 82/82/82
