# Blender v3.3.0 OBJ File: ''
# www.blender.org
o SwitchGrassStage00.011
v 0.010722 -0.000968 0.069361
v 0.011021 0.054590 0.068831
v -0.005705 0.054590 0.000669
v 0.000000 -0.000968 -0.000000
v 0.016733 0.110147 0.068331
v 0.000007 0.110147 0.000169
v -0.002091 0.160792 0.069184
v -0.006564 0.162654 -0.000832
v 0.007520 0.215505 0.070025
v 0.003047 0.217367 0.000008
v -0.008079 0.054590 -0.068749
v 0.003685 -0.000968 -0.069360
v -0.002367 0.110147 -0.069249
v 0.003096 0.162014 -0.069613
v 0.012707 0.216727 -0.068772
v 0.011852 -0.000968 0.069361
v 0.001131 -0.000968 -0.000000
v -0.004574 0.054590 0.000669
v 0.012152 0.054590 0.068831
v 0.001138 0.110147 0.000169
v 0.017864 0.110147 0.068331
v -0.005433 0.162654 -0.000832
v -0.000960 0.160792 0.069184
v 0.004177 0.217367 0.000008
v 0.008651 0.215505 0.070025
v 0.004815 -0.000968 -0.069360
v -0.006949 0.054590 -0.068749
v -0.001236 0.110147 -0.069249
v 0.004227 0.162014 -0.069613
v 0.013838 0.216727 -0.068772
v -0.038882 -0.001952 0.049412
v -0.036134 0.047685 0.052019
v -0.001700 0.049044 -0.000581
v 0.000000 -0.000968 -0.000000
v -0.030103 0.096979 0.058179
v 0.004331 0.098338 0.005579
v -0.040125 0.143428 0.048901
v 0.003074 0.145685 0.003260
v -0.032626 0.191716 0.058386
v 0.010572 0.193972 0.012745
v 0.042313 0.049501 -0.044577
v 0.047673 -0.000894 -0.040003
v 0.048344 0.098795 -0.038416
v 0.053987 0.144806 -0.032517
v 0.061485 0.193094 -0.023033
v -0.038193 -0.002024 0.050150
v 0.000690 -0.001039 0.000738
v -0.001010 0.048972 0.000157
v -0.035444 0.047613 0.052757
v 0.005021 0.098267 0.006317
v -0.029413 0.096908 0.058917
v 0.003764 0.145613 0.003999
v -0.039435 0.143357 0.049639
v 0.011262 0.193901 0.013483
v -0.031937 0.191644 0.059124
v 0.048362 -0.000965 -0.039265
v 0.043003 0.049429 -0.043838
v 0.049034 0.098724 -0.037678
v 0.054677 0.144735 -0.031779
v 0.062175 0.193022 -0.022295
v 0.062104 0.004264 0.016853
v 0.057284 0.055145 0.017136
v -0.006040 0.049728 0.005779
v 0.000000 -0.000968 -0.000000
v 0.054495 0.106272 0.012879
v -0.008829 0.100854 0.001522
v 0.044147 0.151891 0.029692
v -0.016343 0.148600 0.007366
v 0.043994 0.202510 0.022646
v -0.016496 0.199219 0.000320
v -0.065099 0.044866 -0.018114
v -0.056767 -0.005554 -0.028965
v -0.067889 0.095992 -0.022371
v -0.070358 0.143735 -0.026416
v -0.070511 0.194354 -0.033462
v 0.062523 0.004314 0.015902
v 0.000419 -0.000917 -0.000950
v -0.005621 0.049778 0.004828
v 0.057703 0.055196 0.016185
v -0.008410 0.100904 0.000571
v 0.054914 0.106322 0.011928
v -0.015924 0.148651 0.006415
v 0.044566 0.151941 0.028741
v -0.016077 0.199270 -0.000631
v 0.044413 0.202561 0.021695
v -0.056348 -0.005503 -0.029916
v -0.064681 0.044917 -0.019064
v -0.067470 0.096043 -0.023321
v -0.069939 0.143785 -0.027367
v -0.070092 0.194404 -0.034413
vt 1.001200 0.758600
vt 1.001200 0.818800
vt 0.935100 0.818800
vt 0.935100 0.758600
vt 1.001200 0.878900
vt 0.935100 0.878900
vt 1.001200 0.939100
vt 0.935100 0.939100
vt 1.001200 0.999200
vt 0.935100 0.999200
vt 0.868900 0.818800
vt 0.868900 0.758600
vt 0.868900 0.878900
vt 0.868900 0.939100
vt 0.868900 0.999200
vt 1.001200 0.758600
vt 0.935100 0.758600
vt 0.935100 0.818800
vt 1.001200 0.818800
vt 0.935100 0.878900
vt 1.001200 0.878900
vt 0.935100 0.939100
vt 1.001200 0.939100
vt 0.935100 0.999200
vt 1.001200 0.999200
vt 0.868900 0.758600
vt 0.868900 0.818800
vt 0.868900 0.878900
vt 0.868900 0.939100
vt 0.868900 0.999200
vt 1.001200 0.758600
vt 1.001200 0.818800
vt 0.935100 0.818800
vt 0.935100 0.758600
vt 1.001200 0.878900
vt 0.935100 0.878900
vt 1.001200 0.939100
vt 0.935100 0.939100
vt 1.001200 0.999200
vt 0.935100 0.999200
vt 0.868900 0.818800
vt 0.868900 0.758600
vt 0.868900 0.878900
vt 0.868900 0.939100
vt 0.868900 0.999200
vt 1.001200 0.758600
vt 0.935100 0.758600
vt 0.935100 0.818800
vt 1.001200 0.818800
vt 0.935100 0.878900
vt 1.001200 0.878900
vt 0.935100 0.939100
vt 1.001200 0.939100
vt 0.935100 0.999200
vt 1.001200 0.999200
vt 0.868900 0.758600
vt 0.868900 0.818800
vt 0.868900 0.878900
vt 0.868900 0.939100
vt 0.868900 0.999200
vt 1.001200 0.758600
vt 1.001200 0.818800
vt 0.935100 0.818800
vt 0.935100 0.758600
vt 1.001200 0.878900
vt 0.935100 0.878900
vt 1.001200 0.939100
vt 0.935100 0.939100
vt 1.001200 0.999200
vt 0.935100 0.999200
vt 0.868900 0.818800
vt 0.868900 0.758600
vt 0.868900 0.878900
vt 0.868900 0.939100
vt 0.868900 0.999200
vt 1.001200 0.758600
vt 0.935100 0.758600
vt 0.935100 0.818800
vt 1.001200 0.818800
vt 0.935100 0.878900
vt 1.001200 0.878900
vt 0.935100 0.939100
vt 1.001200 0.939100
vt 0.935100 0.999200
vt 1.001200 0.999200
vt 0.868900 0.758600
vt 0.868900 0.818800
vt 0.868900 0.878900
vt 0.868900 0.939100
vt 0.868900 0.999200
vn -0.9786 -0.0398 0.2018
vn -0.9697 0.0547 0.2380
vn -0.9922 0.0115 0.1244
vn -0.9893 -0.1259 0.0741
vn -0.9794 -0.0756 0.1870
vn -0.9935 0.0137 0.1133
vn -0.9937 -0.0944 0.0610
vn -0.9999 0.0028 -0.0134
vn -0.9829 0.1716 0.0674
vn -0.9842 0.1734 -0.0358
vn -0.9995 -0.0299 0.0096
vn -0.9771 -0.2063 -0.0519
vn -0.9940 0.1037 0.0340
vn -0.9918 0.0921 -0.0884
vn -0.9751 0.1734 -0.1386
vn 0.9786 0.0398 -0.2018
vn 0.9893 0.1259 -0.0741
vn 0.9922 -0.0115 -0.1244
vn 0.9697 -0.0547 -0.2380
vn 0.9935 -0.0137 -0.1133
vn 0.9794 0.0756 -0.1870
vn 0.9999 -0.0028 0.0134
vn 0.9937 0.0944 -0.0610
vn 0.9842 -0.1734 0.0358
vn 0.9829 -0.1716 -0.0674
vn 0.9771 0.2063 0.0519
vn 0.9995 0.0299 -0.0096
vn 0.9940 -0.1037 -0.0340
vn 0.9918 -0.0921 0.0884
vn 0.9751 -0.1734 0.1386
vn -0.8157 0.0284 -0.5777
vn -0.8319 0.1218 -0.5414
vn -0.7661 0.0809 -0.6376
vn -0.7335 -0.0562 -0.6774
vn -0.8071 -0.0072 -0.5904
vn -0.7588 0.0833 -0.6460
vn -0.7255 -0.0243 -0.6878
vn -0.6710 0.0734 -0.7378
vn -0.7109 0.2402 -0.6610
vn -0.6363 0.2426 -0.7323
vn -0.6890 0.0406 -0.7236
vn -0.6366 -0.1366 -0.7590
vn -0.6971 0.1735 -0.6956
vn -0.6067 0.1623 -0.7782
vn -0.5550 0.2425 -0.7957
vn 0.8157 -0.0284 0.5777
vn 0.7335 0.0562 0.6774
vn 0.7661 -0.0809 0.6376
vn 0.8319 -0.1218 0.5414
vn 0.7588 -0.0833 0.6460
vn 0.8071 0.0072 0.5904
vn 0.6710 -0.0734 0.7378
vn 0.7254 0.0243 0.6878
vn 0.6363 -0.2426 0.7323
vn 0.7109 -0.2402 0.6610
vn 0.6367 0.1366 0.7590
vn 0.6890 -0.0406 0.7236
vn 0.6971 -0.1735 0.6956
vn 0.6067 -0.1623 0.7782
vn 0.5550 -0.2425 0.7957
vn -0.2067 -0.0722 0.9757
vn -0.1785 0.0250 0.9836
vn -0.2872 -0.0276 0.9575
vn -0.3198 -0.1681 0.9325
vn -0.2174 -0.1090 0.9700
vn -0.2981 -0.0262 0.9542
vn -0.3363 -0.1378 0.9316
vn -0.4152 -0.0469 0.9085
vn -0.3495 0.1281 0.9281
vn -0.4442 0.1222 0.8876
vn -0.3911 -0.0777 0.9170
vn -0.4227 -0.2569 0.8691
vn -0.3785 0.0575 0.9238
vn -0.4881 0.0369 0.8720
vn -0.5342 0.1150 0.8375
vn 0.2067 0.0722 -0.9757
vn 0.3198 0.1680 -0.9325
vn 0.2872 0.0276 -0.9575
vn 0.1785 -0.0250 -0.9836
vn 0.2981 0.0262 -0.9542
vn 0.2174 0.1090 -0.9700
vn 0.4152 0.0469 -0.9085
vn 0.3363 0.1378 -0.9316
vn 0.4442 -0.1222 -0.8876
vn 0.3495 -0.1281 -0.9281
vn 0.4227 0.2569 -0.8691
vn 0.3911 0.0777 -0.9170
vn 0.3785 -0.0575 -0.9238
vn 0.4881 -0.0369 -0.8720
vn 0.5342 -0.1150 -0.8375
s 1
f 1/1/1 2/2/2 3/3/3
f 3/3/3 4/4/4 1/1/1
f 2/2/2 5/5/5 6/6/6
f 6/6/6 3/3/3 2/2/2
f 5/5/5 7/7/7 8/8/8
f 8/8/8 6/6/6 5/5/5
f 7/7/7 9/9/9 10/10/10
f 10/10/10 8/8/8 7/7/7
f 4/4/4 3/3/3 11/11/11
f 11/11/11 12/12/12 4/4/4
f 3/3/3 6/6/6 13/13/13
f 13/13/13 11/11/11 3/3/3
f 6/6/6 8/8/8 14/14/14
f 14/14/14 13/13/13 6/6/6
f 8/8/8 10/10/10 15/15/15
f 15/15/15 14/14/14 8/8/8
s 2
f 16/16/16 17/17/17 18/18/18
f 18/18/18 19/19/19 16/16/16
f 19/19/19 18/18/18 20/20/20
f 20/20/20 21/21/21 19/19/19
f 21/21/21 20/20/20 22/22/22
f 22/22/22 23/23/23 21/21/21
f 23/23/23 22/22/22 24/24/24
f 24/24/24 25/25/25 23/23/23
f 17/17/17 26/26/26 27/27/27
f 27/27/27 18/18/18 17/17/17
f 18/18/18 27/27/27 28/28/28
f 28/28/28 20/20/20 18/18/18
f 20/20/20 28/28/28 29/29/29
f 29/29/29 22/22/22 20/20/20
f 22/22/22 29/29/29 30/30/30
f 30/30/30 24/24/24 22/22/22
s 3
f 31/31/31 32/32/32 33/33/33
f 33/33/33 34/34/34 31/31/31
f 32/32/32 35/35/35 36/36/36
f 36/36/36 33/33/33 32/32/32
f 35/35/35 37/37/37 38/38/38
f 38/38/38 36/36/36 35/35/35
f 37/37/37 39/39/39 40/40/40
f 40/40/40 38/38/38 37/37/37
f 34/34/34 33/33/33 41/41/41
f 41/41/41 42/42/42 34/34/34
f 33/33/33 36/36/36 43/43/43
f 43/43/43 41/41/41 33/33/33
f 36/36/36 38/38/38 44/44/44
f 44/44/44 43/43/43 36/36/36
f 38/38/38 40/40/40 45/45/45
f 45/45/45 44/44/44 38/38/38
s 4
f 46/46/46 47/47/47 48/48/48
f 48/48/48 49/49/49 46/46/46
f 49/49/49 48/48/48 50/50/50
f 50/50/50 51/51/51 49/49/49
f 51/51/51 50/50/50 52/52/52
f 52/52/52 53/53/53 51/51/51
f 53/53/53 52/52/52 54/54/54
f 54/54/54 55/55/55 53/53/53
f 47/47/47 56/56/56 57/57/57
f 57/57/57 48/48/48 47/47/47
f 48/48/48 57/57/57 58/58/58
f 58/58/58 50/50/50 48/48/48
f 50/50/50 58/58/58 59/59/59
f 59/59/59 52/52/52 50/50/50
f 52/52/52 59/59/59 60/60/60
f 60/60/60 54/54/54 52/52/52
s 5
f 61/61/61 62/62/62 63/63/63
f 63/63/63 64/64/64 61/61/61
f 62/62/62 65/65/65 66/66/66
f 66/66/66 63/63/63 62/62/62
f 65/65/65 67/67/67 68/68/68
f 68/68/68 66/66/66 65/65/65
f 67/67/67 69/69/69 70/70/70
f 70/70/70 68/68/68 67/67/67
f 64/64/64 63/63/63 71/71/71
f 71/71/71 72/72/72 64/64/64
f 63/63/63 66/66/66 73/73/73
f 73/73/73 71/71/71 63/63/63
f 66/66/66 68/68/68 74/74/74
f 74/74/74 73/73/73 66/66/66
f 68/68/68 70/70/70 75/75/75
f 75/75/75 74/74/74 68/68/68
s 6
f 76/76/76 77/77/77 78/78/78
f 78/78/78 79/79/79 76/76/76
f 79/79/79 78/78/78 80/80/80
f 80/80/80 81/81/81 79/79/79
f 81/81/81 80/80/80 82/82/82
f 82/82/82 83/83/83 81/81/81
f 83/83/83 82/82/82 84/84/84
f 84/84/84 85/85/85 83/83/83
f 77/77/77 86/86/86 87/87/87
f 87/87/87 78/78/78 77/77/77
f 78/78/78 87/87/87 88/88/88
f 88/88/88 80/80/80 78/78/78
f 80/80/80 88/88/88 89/89/89
f 89/89/89 82/82/82 80/80/80
f 82/82/82 89/89/89 90/90/90
f 90/90/90 84/84/84 82/82/82
