# Blender v3.3.0 OBJ File: ''
# www.blender.org
o ItemWheat.005
v -0.017963 0.001975 -0.009535
v -0.013812 0.003547 -0.016527
v -0.013392 -0.001482 -0.015768
v 0.072524 0.002689 -0.021351
v 0.037274 -0.000442 -0.019177
v 0.035998 0.007370 -0.021573
v 0.071455 0.010216 -0.023553
v 0.084239 0.008410 -0.015040
v 0.079093 0.004061 -0.019979
v 0.078672 0.009641 -0.021547
v 0.006651 -0.000684 -0.017480
v 0.005934 0.005111 -0.018722
v 0.072920 -0.000258 -0.015129
v 0.079392 0.001785 -0.015334
v 0.037582 -0.002998 -0.013329
v 0.007453 -0.003987 -0.011850
v -0.012480 -0.004310 -0.010878
v -0.012922 0.001292 -0.003004
v -0.013880 0.006307 -0.003676
v 0.071829 0.015791 -0.007160
v 0.036140 0.013293 -0.005512
v 0.037102 0.005466 -0.003103
v 0.072595 0.008327 -0.004797
v 0.079169 0.013620 -0.009569
v 0.079536 0.008255 -0.007773
v 0.006162 0.008767 -0.004051
v 0.006925 0.002986 -0.002833
v 0.071080 0.018546 -0.013231
v 0.078797 0.015647 -0.014004
v 0.035327 0.015812 -0.011336
v 0.005642 0.012143 -0.009705
v -0.014114 0.009268 -0.008631
v -0.012676 -0.003512 -0.005882
v 0.073211 0.002268 -0.007609
v 0.037835 -0.000219 -0.005477
v 0.079641 0.003644 -0.009848
v 0.007411 -0.002501 -0.006013
v -0.014604 0.008361 -0.013652
v 0.071158 0.016208 -0.020613
v 0.035577 0.013072 -0.019218
v 0.078622 0.014022 -0.019260
v 0.005399 0.010597 -0.015556
v 0.051780 0.005302 0.006774
v 0.046810 -0.001323 0.006706
v 0.047305 0.000086 0.001825
v -0.038250 0.003652 -0.008059
v -0.002921 0.002247 -0.005408
v -0.003189 -0.001211 0.002100
v -0.038656 0.000442 -0.000835
v -0.050137 0.010484 -0.003386
v -0.044805 0.005570 -0.007535
v -0.045464 0.003295 -0.002227
v 0.027339 0.000536 -0.000708
v 0.026964 -0.001477 0.004900
v -0.037585 0.010192 -0.010141
v -0.044298 0.010462 -0.009164
v -0.002269 0.008361 -0.007147
v 0.027611 0.006581 -0.003284
v 0.047324 0.005355 -0.000404
v 0.047535 0.012388 0.006235
v 0.047577 0.011007 0.011196
v -0.038472 0.015971 0.006832
v -0.002865 0.013922 0.010095
v -0.002286 0.017360 0.002623
v -0.037765 0.019298 -0.000262
v -0.045534 0.014678 0.003247
v -0.044836 0.017145 -0.001810
v 0.027455 0.012572 0.010473
v 0.027781 0.014563 0.004868
v -0.038745 0.009564 0.008802
v -0.045907 0.010015 0.004673
v -0.003014 0.007780 0.011879
v 0.026892 0.006526 0.013073
v 0.046865 0.005733 0.013443
v 0.047835 0.010163 0.001098
v -0.037613 0.017332 -0.006673
v -0.002272 0.015794 -0.003379
v -0.044357 0.015674 -0.006624
v 0.027932 0.012151 -0.001015
v 0.047044 0.000837 0.011935
v -0.039098 0.002577 0.005480
v -0.003514 0.000368 0.008069
v -0.045940 0.005011 0.002383
v 0.026859 0.000916 0.010788
v -0.057660 0.005681 -0.007225
v -0.053465 -0.000956 -0.009862
v -0.051880 -0.000125 -0.005082
v 0.030508 0.001395 -0.030381
v -0.002935 0.000667 -0.018627
v -0.005898 -0.001888 -0.025913
v 0.027800 -0.000948 -0.037440
v 0.039889 0.008610 -0.038733
v 0.036400 0.003296 -0.033313
v 0.034745 0.001654 -0.038637
v -0.032583 -0.000177 -0.010819
v -0.034604 -0.001520 -0.016274
v 0.031107 0.007651 -0.027544
v 0.036868 0.007968 -0.031122
v -0.002487 0.006540 -0.016151
v -0.031456 0.005526 -0.007744
v -0.050703 0.004846 -0.002504
v -0.053160 0.012612 -0.007722
v -0.055267 0.011823 -0.012355
v 0.025437 0.015376 -0.042724
v -0.008542 0.014082 -0.031482
v -0.005880 0.016624 -0.024103
v 0.027824 0.017853 -0.035650
v 0.033258 0.013600 -0.042461
v 0.034789 0.015462 -0.037330
v -0.036492 0.013091 -0.019685
v -0.034428 0.014413 -0.014256
v 0.024533 0.009243 -0.045287
v 0.032763 0.009133 -0.044390
v -0.009470 0.008191 -0.033797
v -0.037363 0.007387 -0.022901
v -0.055816 0.006843 -0.015230
v -0.051500 0.009802 -0.003164
v 0.030146 0.015150 -0.029967
v -0.003574 0.014364 -0.018806
v 0.036199 0.013440 -0.032914
v -0.032343 0.011327 -0.009099
v -0.055653 0.001806 -0.014294
v 0.025792 0.001911 -0.043135
v -0.007905 0.000379 -0.031304
v 0.033428 0.003895 -0.042840
v -0.036734 0.001547 -0.021418
v -0.038496 -0.000427 -0.061358
v -0.038478 -0.005075 -0.054502
v -0.043309 -0.005052 -0.056147
v -0.071608 0.021705 0.020752
v -0.061311 0.010387 -0.011233
v -0.053551 0.009009 -0.008725
v -0.064193 0.020533 0.023262
v -0.070814 0.032687 0.030164
v -0.072827 0.025574 0.026271
v -0.067470 0.024899 0.028423
v -0.050066 0.000786 -0.038104
v -0.044405 0.000337 -0.036261
v -0.074594 0.027072 0.017616
v -0.075128 0.029569 0.023907
v -0.063896 0.015443 -0.014162
v -0.053525 0.005698 -0.040778
v -0.046356 -0.000700 -0.058272
v -0.041135 0.007280 -0.059890
v -0.036116 0.007140 -0.058743
v -0.059450 0.036620 0.018940
v -0.048393 0.024764 -0.012995
v -0.056049 0.026038 -0.015780
v -0.066696 0.037840 0.016128
v -0.064177 0.036718 0.025424
v -0.069317 0.037618 0.023208
v -0.041356 0.014477 -0.040671
v -0.047021 0.014921 -0.042460
v -0.056511 0.031233 0.021649
v -0.062082 0.032848 0.027558
v -0.045653 0.019541 -0.010518
v -0.037935 0.009657 -0.037723
v -0.033199 0.002997 -0.055968
v -0.045630 0.003941 -0.060158
v -0.072493 0.034489 0.015725
v -0.061551 0.023193 -0.016132
v -0.073593 0.034996 0.022564
v -0.052233 0.011280 -0.042635
v -0.033769 -0.001935 -0.054695
v -0.058580 0.024106 0.023864
v -0.048150 0.011952 -0.008094
v -0.063432 0.027698 0.028951
v -0.039175 0.003948 -0.036123
v 0.064482 0.003905 -0.041244
v 0.059622 -0.000223 -0.035958
v 0.057213 -0.000366 -0.040455
v -0.014685 0.031745 -0.005389
v 0.014135 0.018186 -0.020968
v 0.018036 0.017070 -0.013762
v -0.011029 0.030830 0.001572
v -0.020037 0.043399 0.001345
v -0.019167 0.036000 -0.002435
v -0.016749 0.035535 0.002830
v 0.040238 0.006728 -0.032281
v 0.043100 0.006469 -0.027047
v -0.014497 0.036836 -0.010035
v -0.019063 0.039787 -0.005969
v 0.014463 0.022987 -0.025172
v 0.039748 0.011397 -0.036887
v 0.056625 0.003788 -0.044346
v 0.061891 0.011675 -0.042442
v 0.064771 0.011667 -0.038172
v -0.003915 0.046596 0.000691
v 0.025403 0.032513 -0.014302
v 0.021762 0.033506 -0.021633
v -0.007240 0.047538 -0.006376
v -0.011782 0.047130 0.002180
v -0.013989 0.047816 -0.002997
v 0.048951 0.020272 -0.029031
v 0.046050 0.020530 -0.034228
v -0.003849 0.041452 0.004996
v -0.011874 0.043448 0.005398
v 0.025489 0.027513 -0.010312
v 0.049231 0.015715 -0.024257
v 0.064831 0.007767 -0.033910
v 0.058644 0.008284 -0.045504
v -0.011347 0.044113 -0.010425
v 0.017857 0.030592 -0.025473
v -0.016789 0.045114 -0.006227
v 0.042201 0.016838 -0.037694
v 0.063331 0.002938 -0.033074
v -0.007181 0.034489 0.005626
v 0.021681 0.020102 -0.009793
v -0.014036 0.038403 0.005803
v 0.046985 0.010129 -0.023594
v 0.009145 0.037596 0.024438
v 0.006968 0.029749 0.022927
v 0.011390 0.030455 0.020478
v -0.022843 0.002979 -0.053706
v -0.007470 0.014162 -0.023778
v -0.013979 0.012049 -0.019133
v -0.029184 0.001004 -0.049400
v -0.033068 0.005986 -0.063516
v -0.026636 0.002600 -0.059398
v -0.031478 0.001103 -0.056553
v 0.003611 0.023652 0.003201
v -0.001359 0.022543 0.006317
v -0.020948 0.008938 -0.056613
v -0.025151 0.007050 -0.061599
v -0.005863 0.019776 -0.026371
v 0.005757 0.028941 -0.000067
v 0.013137 0.034992 0.017462
v 0.007236 0.042626 0.018148
v 0.003011 0.042142 0.021053
v -0.036300 0.016664 -0.051428
v -0.021296 0.027441 -0.020746
v -0.014662 0.029647 -0.025118
v -0.029926 0.018870 -0.055477
v -0.036670 0.012489 -0.058272
v -0.032033 0.014216 -0.061039
v -0.006454 0.036606 0.004093
v -0.001511 0.037679 0.000947
v -0.037908 0.010944 -0.048313
v -0.037921 0.008265 -0.056147
v -0.022690 0.021980 -0.017719
v -0.008766 0.031221 0.007142
v 0.000903 0.037366 0.023526
v 0.011915 0.039858 0.016782
v -0.024226 0.016091 -0.057662
v -0.009399 0.027256 -0.027369
v -0.027571 0.012258 -0.062391
v 0.003748 0.034569 -0.000821
v 0.002477 0.032653 0.024786
v -0.034952 0.003827 -0.047555
v -0.019368 0.014342 -0.017151
v -0.035770 0.003257 -0.055386
v -0.006598 0.025652 0.008132
v 0.040680 0.029977 -0.065592
v 0.042015 0.022669 -0.061930
v 0.037102 0.023763 -0.061086
v 0.047103 0.013124 0.023867
v 0.041579 0.017475 -0.010885
v 0.049073 0.014599 -0.012876
v 0.054343 0.010449 0.022113
v 0.054128 0.018346 0.035408
v 0.049052 0.014026 0.030371
v 0.054452 0.012087 0.029444
v 0.039230 0.020886 -0.041275
v 0.044847 0.019272 -0.042497
v 0.044674 0.019510 0.024800
v 0.047163 0.018799 0.031076
v 0.039504 0.023466 -0.010089
v 0.036431 0.026686 -0.039940
v 0.034728 0.028785 -0.059715
v 0.040864 0.036248 -0.060193
v 0.045731 0.035272 -0.061566
v 0.061159 0.026353 0.022876
v 0.056192 0.030159 -0.012387
v 0.048662 0.033068 -0.010706
v 0.053971 0.029200 0.024332
v 0.059353 0.023701 0.030232
v 0.054181 0.025855 0.031100
v 0.049612 0.033607 -0.041817
v 0.044011 0.035193 -0.040551
v 0.063383 0.020151 0.021615
v 0.061005 0.019159 0.029483
v 0.058196 0.024223 -0.013682
v 0.052502 0.027763 -0.042878
v 0.048282 0.030138 -0.062275
v 0.035886 0.033714 -0.059722
v 0.047778 0.026801 0.025271
v 0.042882 0.031071 -0.009657
v 0.049446 0.024115 0.031456
v 0.038349 0.032394 -0.039804
v 0.046962 0.025230 -0.062945
v 0.060503 0.012963 0.021502
v 0.054891 0.016557 -0.013617
v 0.058978 0.014052 0.029171
v 0.050504 0.022060 -0.043293
v 0.042778 0.041433 -0.035033
v 0.042392 0.033344 -0.033298
v 0.037854 0.034549 -0.035300
v -0.003382 0.001390 0.032746
v 0.012340 0.015062 0.004057
v 0.019796 0.012245 0.006267
v 0.003710 -0.001275 0.035037
v -0.005100 0.002873 0.047051
v -0.005760 0.000414 0.039094
v -0.000701 -0.001620 0.041108
v 0.028113 0.026451 -0.019654
v 0.033488 0.024791 -0.017654
v -0.006499 0.007477 0.033631
v -0.008153 0.004967 0.039719
v 0.009625 0.020777 0.004949
v 0.024518 0.031896 -0.018830
v 0.034654 0.039205 -0.034394
v 0.039119 0.046047 -0.029215
v 0.043921 0.045097 -0.027614
v 0.007163 0.013315 0.043707
v 0.023686 0.026554 0.014822
v 0.016382 0.029485 0.012362
v 0.000272 0.016220 0.041263
v 0.001623 0.008981 0.047571
v -0.003239 0.011219 0.045702
v 0.035502 0.038048 -0.010665
v 0.030116 0.039668 -0.012629
v 0.010293 0.007507 0.042496
v 0.003830 0.004680 0.046831
v 0.026634 0.021027 0.013521
v 0.039012 0.032482 -0.011236
v 0.046882 0.040147 -0.027939
v 0.035104 0.043862 -0.032460
v -0.005005 0.014135 0.037686
v 0.011332 0.027728 0.009217
v -0.007069 0.009810 0.042715
v 0.025416 0.037209 -0.016138
v 0.046701 0.035699 -0.030480
v 0.008756 0.000837 0.038874
v 0.024698 0.013883 0.009660
v 0.002890 -0.000000 0.044092
v 0.038214 0.027253 -0.014189
v -0.033643 0.046836 -0.025908
v -0.032905 0.039144 -0.026956
v -0.037284 0.039780 -0.024471
v -0.018273 0.000505 0.028563
v -0.027417 0.016557 0.007278
v -0.020968 0.014760 0.002421
v -0.012000 -0.001198 0.024055
v -0.009278 0.000935 0.037340
v -0.015366 -0.001036 0.033179
v -0.010656 -0.002376 0.030135
v -0.033088 0.030225 -0.012182
v -0.028141 0.029253 -0.015372
v -0.019553 0.005760 0.032838
v -0.016387 0.002860 0.036381
v -0.028428 0.021508 0.011178
v -0.034744 0.034819 -0.007779
v -0.038632 0.043670 -0.020534
v -0.031834 0.050354 -0.019188
v -0.027543 0.050007 -0.021978
v -0.003161 0.012432 0.029986
v -0.011914 0.028208 0.007910
v -0.018434 0.030140 0.012571
v -0.009383 0.014397 0.034351
v -0.004299 0.007416 0.034614
v -0.008745 0.008975 0.037655
v -0.021473 0.041555 -0.009641
v -0.026405 0.042483 -0.006436
v -0.002103 0.007468 0.025621
v -0.003490 0.003754 0.031566
v -0.011027 0.023479 0.003699
v -0.019699 0.036825 -0.013897
v -0.025956 0.045789 -0.025554
v -0.036840 0.047965 -0.018606
v -0.015491 0.011969 0.035657
v -0.024074 0.028014 0.014027
v -0.013420 0.007346 0.038438
v -0.032090 0.039761 -0.005599
v -0.027988 0.041742 -0.027906
v -0.005873 0.001226 0.023053
v -0.015257 0.016744 0.001156
v -0.006153 -0.000562 0.029586
v -0.022468 0.031983 -0.016251
v -0.082696 0.006280 -0.027257
v -0.074660 0.007665 -0.028708
v -0.075139 0.002601 -0.028289
v -0.013673 -0.000372 0.032070
v -0.038859 -0.000564 0.007115
v -0.037622 0.007384 0.005192
v -0.012453 0.007270 0.030407
v -0.010369 0.004184 0.045417
v -0.010275 0.000407 0.037966
v -0.009172 0.006039 0.037052
v -0.060501 0.001743 -0.014495
v -0.059830 0.007606 -0.015396
v -0.018163 -0.003491 0.036273
v -0.013628 -0.001998 0.041100
v -0.043114 -0.003277 0.011035
v -0.064293 -0.001752 -0.010413
v -0.078287 -0.000411 -0.024581
v -0.084239 0.005015 -0.019224
v -0.084183 0.010109 -0.019984
v -0.024217 0.012395 0.042039
v -0.049278 0.012883 0.016459
v -0.050735 0.004947 0.018157
v -0.025756 0.004837 0.043590
v -0.017621 0.009670 0.045709
v -0.018922 0.004251 0.046753
v -0.070479 0.010873 -0.005169
v -0.071101 0.005020 -0.004250
v -0.020082 0.015350 0.037660
v -0.014484 0.011828 0.042641
v -0.045379 0.015602 0.012178
v -0.066480 0.014417 -0.009052
v -0.080530 0.013198 -0.023222
v -0.082113 0.000278 -0.021338
v -0.023481 -0.001182 0.041695
v -0.048694 -0.000720 0.016671
v -0.017482 -0.000300 0.045084
v -0.068617 -0.000409 -0.006441
v -0.077146 0.012457 -0.027001
v -0.014614 0.013192 0.032618
v -0.039440 0.013042 0.006899
v -0.010743 0.010351 0.038884
v -0.062336 0.013040 -0.013250
v 0.004723 0.066315 0.011049
v 0.004437 0.058119 0.012212
v 0.009307 0.059194 0.011127
v 0.010207 0.001048 -0.052499
v 0.011257 0.025027 -0.026403
v 0.003847 0.022804 -0.023476
v 0.003060 -0.001112 -0.049870
v 0.004166 -0.002200 -0.065257
v 0.008962 -0.002169 -0.058417
v 0.003671 -0.003950 -0.056799
v 0.009752 0.045341 -0.003473
v 0.004185 0.043962 -0.001812
v 0.012187 0.006037 -0.056827
v 0.010516 0.001566 -0.061654
v 0.012904 0.029725 -0.030408
v 0.012194 0.049676 -0.007773
v 0.011397 0.062820 0.007226
v 0.004648 0.068327 0.003019
v -0.000247 0.067653 0.004471
v -0.004922 0.010459 -0.059989
v -0.004437 0.034210 -0.033188
v 0.002969 0.036639 -0.035878
v 0.002124 0.012920 -0.062476
v -0.002055 0.004379 -0.064373
v 0.002985 0.006337 -0.066077
v -0.001646 0.054582 -0.010861
v 0.003913 0.055911 -0.012541
v -0.006753 0.005833 -0.055490
v -0.003399 0.000889 -0.061222
v -0.006077 0.029849 -0.028804
v -0.004143 0.050043 -0.006763
v -0.002427 0.063537 0.007888
v 0.009840 0.066673 0.004334
v 0.008563 0.011276 -0.061564
v 0.008977 0.035204 -0.035307
v 0.007857 0.005362 -0.065138
v 0.009837 0.053978 -0.011267
v -0.000791 0.060107 0.011328
v -0.003317 0.000444 -0.051115
v -0.002160 0.024029 -0.024278
v -0.001004 -0.002811 -0.057926
v -0.001738 0.045914 -0.003040
v -0.008152 0.005083 0.063319
v -0.002073 -0.000535 0.063605
v -0.000292 0.003560 0.066077
v 0.070103 0.005601 0.016373
v 0.041784 0.005673 0.037707
v 0.039089 -0.001613 0.034871
v 0.067586 -0.001328 0.013491
v 0.074524 0.007286 0.002682
v 0.074261 0.006295 0.010973
v 0.072663 0.001242 0.008587
v 0.016386 0.003869 0.054806
v 0.014319 -0.001134 0.052287
v 0.068545 0.012105 0.014694
v 0.073127 0.011204 0.009766
v 0.040191 0.011631 0.036034
v 0.015561 0.010245 0.053423
v -0.000849 0.009091 0.064724
v -0.006922 0.010706 0.057370
v -0.009172 0.006627 0.055174
v 0.058165 0.006420 0.001195
v 0.029514 0.005633 0.022670
v 0.031955 0.012906 0.025690
v 0.060341 0.013388 0.004130
v 0.065995 0.006993 -0.000469
v 0.067364 0.012051 0.001696
v 0.006280 0.006721 0.042170
v 0.008391 0.011701 0.044667
v 0.059437 0.000121 0.003118
v 0.067060 0.002399 0.000826
v 0.030702 -0.000334 0.024646
v 0.007317 0.000306 0.043357
v -0.008085 0.001026 0.056083
v -0.003648 0.012050 0.061717
v 0.064331 0.015694 0.009003
v 0.035700 0.015273 0.030033
v 0.070077 0.013814 0.005583
v 0.012245 0.013334 0.049456
v -0.005789 -0.001945 0.059572
v 0.063816 -0.003463 0.008406
v 0.035599 -0.003974 0.030345
v 0.069977 -0.000205 0.004699
v 0.010432 -0.002782 0.047534
vt 0.237000 0.502000
vt 0.226800 0.485600
vt 0.239100 0.482500
vt 0.229800 0.182100
vt 0.231600 0.309200
vt 0.214900 0.306100
vt 0.212100 0.180100
vt 0.229800 0.131200
vt 0.229800 0.153500
vt 0.217300 0.153700
vt 0.236200 0.417900
vt 0.222000 0.419700
vt 0.247700 0.181200
vt 0.243400 0.153900
vt 0.246900 0.309100
vt 0.247200 0.419400
vt 0.250200 0.484000
vt 0.226800 0.485600
vt 0.239100 0.482500
vt 0.229700 0.182100
vt 0.231600 0.309200
vt 0.214900 0.306100
vt 0.212000 0.180000
vt 0.229700 0.131100
vt 0.229800 0.153500
vt 0.217100 0.153600
vt 0.236200 0.417800
vt 0.222000 0.419600
vt 0.247700 0.181200
vt 0.243400 0.153900
vt 0.246900 0.309100
vt 0.247300 0.419400
vt 0.250300 0.483900
vt 0.239100 0.482500
vt 0.229700 0.182100
vt 0.231600 0.309200
vt 0.229800 0.153500
vt 0.236200 0.417900
vt 0.212100 0.180000
vt 0.217200 0.153600
vt 0.222000 0.419700
vt 0.239100 0.482500
vt 0.229700 0.182100
vt 0.231600 0.309200
vt 0.229800 0.153500
vt 0.236200 0.417900
vt 0.212100 0.180000
vt 0.237000 0.502000
vt 0.226800 0.485600
vt 0.239100 0.482500
vt 0.229800 0.182100
vt 0.231600 0.309200
vt 0.214900 0.306100
vt 0.212100 0.180100
vt 0.229800 0.131200
vt 0.229800 0.153500
vt 0.217300 0.153700
vt 0.236200 0.417900
vt 0.222000 0.419700
vt 0.247700 0.181200
vt 0.243400 0.153900
vt 0.246900 0.309100
vt 0.247200 0.419400
vt 0.250200 0.484000
vt 0.226800 0.485600
vt 0.239100 0.482500
vt 0.229700 0.182100
vt 0.231600 0.309200
vt 0.214900 0.306100
vt 0.212000 0.180000
vt 0.229700 0.131100
vt 0.229800 0.153500
vt 0.217100 0.153600
vt 0.236200 0.417800
vt 0.222000 0.419600
vt 0.247700 0.181200
vt 0.243400 0.153900
vt 0.246900 0.309100
vt 0.247300 0.419400
vt 0.250300 0.483900
vt 0.239100 0.482500
vt 0.229700 0.182100
vt 0.231600 0.309200
vt 0.229800 0.153500
vt 0.236200 0.417900
vt 0.212100 0.180000
vt 0.217200 0.153600
vt 0.222000 0.419700
vt 0.239100 0.482500
vt 0.229700 0.182100
vt 0.231600 0.309200
vt 0.229800 0.153500
vt 0.236200 0.417900
vt 0.212100 0.180000
vt 0.237000 0.502000
vt 0.226800 0.485600
vt 0.239100 0.482500
vt 0.229800 0.182100
vt 0.231600 0.309200
vt 0.214900 0.306100
vt 0.212100 0.180100
vt 0.229800 0.131200
vt 0.229800 0.153500
vt 0.217300 0.153700
vt 0.236200 0.417900
vt 0.222000 0.419700
vt 0.247700 0.181200
vt 0.243400 0.153900
vt 0.246900 0.309100
vt 0.247200 0.419400
vt 0.250200 0.484000
vt 0.226800 0.485600
vt 0.239100 0.482500
vt 0.229700 0.182100
vt 0.231600 0.309200
vt 0.214900 0.306100
vt 0.212000 0.180000
vt 0.229700 0.131100
vt 0.229800 0.153500
vt 0.217100 0.153600
vt 0.236200 0.417800
vt 0.222000 0.419600
vt 0.247700 0.181200
vt 0.243400 0.153900
vt 0.246900 0.309100
vt 0.247300 0.419400
vt 0.250300 0.483900
vt 0.239100 0.482500
vt 0.229700 0.182100
vt 0.231600 0.309200
vt 0.229800 0.153500
vt 0.236200 0.417900
vt 0.212100 0.180000
vt 0.217200 0.153600
vt 0.222000 0.419700
vt 0.239100 0.482500
vt 0.229700 0.182100
vt 0.231600 0.309200
vt 0.229800 0.153500
vt 0.236200 0.417900
vt 0.212100 0.180000
vt 0.237000 0.502000
vt 0.226800 0.485600
vt 0.239100 0.482500
vt 0.229800 0.182100
vt 0.231600 0.309200
vt 0.214900 0.306100
vt 0.212100 0.180100
vt 0.229800 0.131200
vt 0.229800 0.153500
vt 0.217300 0.153700
vt 0.236200 0.417900
vt 0.222000 0.419700
vt 0.247700 0.181200
vt 0.243400 0.153900
vt 0.246900 0.309100
vt 0.247200 0.419400
vt 0.250200 0.484000
vt 0.226800 0.485600
vt 0.239100 0.482500
vt 0.229700 0.182100
vt 0.231600 0.309200
vt 0.214900 0.306100
vt 0.212000 0.180000
vt 0.229700 0.131100
vt 0.229800 0.153500
vt 0.217100 0.153600
vt 0.236200 0.417800
vt 0.222000 0.419600
vt 0.247700 0.181200
vt 0.243400 0.153900
vt 0.246900 0.309100
vt 0.247300 0.419400
vt 0.250300 0.483900
vt 0.239100 0.482500
vt 0.229700 0.182100
vt 0.231600 0.309200
vt 0.229800 0.153500
vt 0.236200 0.417900
vt 0.212100 0.180000
vt 0.217200 0.153600
vt 0.222000 0.419700
vt 0.239100 0.482500
vt 0.229700 0.182100
vt 0.231600 0.309200
vt 0.229800 0.153500
vt 0.236200 0.417900
vt 0.212100 0.180000
vt 0.237000 0.502000
vt 0.226800 0.485600
vt 0.239100 0.482500
vt 0.229800 0.182100
vt 0.231600 0.309200
vt 0.214900 0.306100
vt 0.212100 0.180100
vt 0.229800 0.131200
vt 0.229800 0.153500
vt 0.217300 0.153700
vt 0.236200 0.417900
vt 0.222000 0.419700
vt 0.247700 0.181200
vt 0.243400 0.153900
vt 0.246900 0.309100
vt 0.247200 0.419400
vt 0.250200 0.484000
vt 0.226800 0.485600
vt 0.239100 0.482500
vt 0.229700 0.182100
vt 0.231600 0.309200
vt 0.214900 0.306100
vt 0.212000 0.180000
vt 0.229700 0.131100
vt 0.229800 0.153500
vt 0.217100 0.153600
vt 0.236200 0.417800
vt 0.222000 0.419600
vt 0.247700 0.181200
vt 0.243400 0.153900
vt 0.246900 0.309100
vt 0.247300 0.419400
vt 0.250300 0.483900
vt 0.239100 0.482500
vt 0.229700 0.182100
vt 0.231600 0.309200
vt 0.229800 0.153500
vt 0.236200 0.417900
vt 0.212100 0.180000
vt 0.217200 0.153600
vt 0.222000 0.419700
vt 0.239100 0.482500
vt 0.229700 0.182100
vt 0.231600 0.309200
vt 0.229800 0.153500
vt 0.236200 0.417900
vt 0.212100 0.180000
vt 0.237000 0.502000
vt 0.226800 0.485600
vt 0.239100 0.482500
vt 0.229800 0.182100
vt 0.231600 0.309200
vt 0.214900 0.306100
vt 0.212100 0.180100
vt 0.229800 0.131200
vt 0.229800 0.153500
vt 0.217300 0.153700
vt 0.236200 0.417900
vt 0.222000 0.419700
vt 0.247700 0.181200
vt 0.243400 0.153900
vt 0.246900 0.309100
vt 0.247200 0.419400
vt 0.250200 0.484000
vt 0.226800 0.485600
vt 0.239100 0.482500
vt 0.229700 0.182100
vt 0.231600 0.309200
vt 0.214900 0.306100
vt 0.212000 0.180000
vt 0.229700 0.131100
vt 0.229800 0.153500
vt 0.217100 0.153600
vt 0.236200 0.417800
vt 0.222000 0.419600
vt 0.247700 0.181200
vt 0.243400 0.153900
vt 0.246900 0.309100
vt 0.247300 0.419400
vt 0.250300 0.483900
vt 0.239100 0.482500
vt 0.229700 0.182100
vt 0.231600 0.309200
vt 0.229800 0.153500
vt 0.236200 0.417900
vt 0.212100 0.180000
vt 0.217200 0.153600
vt 0.222000 0.419700
vt 0.239100 0.482500
vt 0.229700 0.182100
vt 0.231600 0.309200
vt 0.229800 0.153500
vt 0.236200 0.417900
vt 0.212100 0.180000
vt 0.237000 0.502000
vt 0.226800 0.485600
vt 0.239100 0.482500
vt 0.229800 0.182100
vt 0.231600 0.309200
vt 0.214900 0.306100
vt 0.212100 0.180100
vt 0.229800 0.131200
vt 0.229800 0.153500
vt 0.217300 0.153700
vt 0.236200 0.417900
vt 0.222000 0.419700
vt 0.247700 0.181200
vt 0.243400 0.153900
vt 0.246900 0.309100
vt 0.247200 0.419400
vt 0.250200 0.484000
vt 0.226800 0.485600
vt 0.239100 0.482500
vt 0.229700 0.182100
vt 0.231600 0.309200
vt 0.214900 0.306100
vt 0.212000 0.180000
vt 0.229700 0.131100
vt 0.229800 0.153500
vt 0.217100 0.153600
vt 0.236200 0.417800
vt 0.222000 0.419600
vt 0.247700 0.181200
vt 0.243400 0.153900
vt 0.246900 0.309100
vt 0.247300 0.419400
vt 0.250300 0.483900
vt 0.239100 0.482500
vt 0.229700 0.182100
vt 0.231600 0.309200
vt 0.229800 0.153500
vt 0.236200 0.417900
vt 0.212100 0.180000
vt 0.217200 0.153600
vt 0.222000 0.419700
vt 0.239100 0.482500
vt 0.229700 0.182100
vt 0.231600 0.309200
vt 0.229800 0.153500
vt 0.236200 0.417900
vt 0.212100 0.180000
vt 0.237000 0.502000
vt 0.226800 0.485600
vt 0.239100 0.482500
vt 0.229800 0.182100
vt 0.231600 0.309200
vt 0.214900 0.306100
vt 0.212100 0.180100
vt 0.229800 0.131200
vt 0.229800 0.153500
vt 0.217300 0.153700
vt 0.236200 0.417900
vt 0.222000 0.419700
vt 0.247700 0.181200
vt 0.243400 0.153900
vt 0.246900 0.309100
vt 0.247200 0.419400
vt 0.250200 0.484000
vt 0.226800 0.485600
vt 0.239100 0.482500
vt 0.229700 0.182100
vt 0.231600 0.309200
vt 0.214900 0.306100
vt 0.212000 0.180000
vt 0.229700 0.131100
vt 0.229800 0.153500
vt 0.217100 0.153600
vt 0.236200 0.417800
vt 0.222000 0.419600
vt 0.247700 0.181200
vt 0.243400 0.153900
vt 0.246900 0.309100
vt 0.247300 0.419400
vt 0.250300 0.483900
vt 0.239100 0.482500
vt 0.229700 0.182100
vt 0.231600 0.309200
vt 0.229800 0.153500
vt 0.236200 0.417900
vt 0.212100 0.180000
vt 0.217200 0.153600
vt 0.222000 0.419700
vt 0.239100 0.482500
vt 0.229700 0.182100
vt 0.231600 0.309200
vt 0.229800 0.153500
vt 0.236200 0.417900
vt 0.212100 0.180000
vt 0.237000 0.502000
vt 0.226800 0.485600
vt 0.239100 0.482500
vt 0.229800 0.182100
vt 0.231600 0.309200
vt 0.214900 0.306100
vt 0.212100 0.180100
vt 0.229800 0.131200
vt 0.229800 0.153500
vt 0.217300 0.153700
vt 0.236200 0.417900
vt 0.222000 0.419700
vt 0.247700 0.181200
vt 0.243400 0.153900
vt 0.246900 0.309100
vt 0.247200 0.419400
vt 0.250200 0.484000
vt 0.226800 0.485600
vt 0.239100 0.482500
vt 0.229700 0.182100
vt 0.231600 0.309200
vt 0.214900 0.306100
vt 0.212000 0.180000
vt 0.229700 0.131100
vt 0.229800 0.153500
vt 0.217100 0.153600
vt 0.236200 0.417800
vt 0.222000 0.419600
vt 0.247700 0.181200
vt 0.243400 0.153900
vt 0.246900 0.309100
vt 0.247300 0.419400
vt 0.250300 0.483900
vt 0.239100 0.482500
vt 0.229700 0.182100
vt 0.231600 0.309200
vt 0.229800 0.153500
vt 0.236200 0.417900
vt 0.212100 0.180000
vt 0.217200 0.153600
vt 0.222000 0.419700
vt 0.239100 0.482500
vt 0.229700 0.182100
vt 0.231600 0.309200
vt 0.229800 0.153500
vt 0.236200 0.417900
vt 0.212100 0.180000
vt 0.237000 0.502000
vt 0.226800 0.485600
vt 0.239100 0.482500
vt 0.229800 0.182100
vt 0.231600 0.309200
vt 0.214900 0.306100
vt 0.212100 0.180100
vt 0.229800 0.131200
vt 0.229800 0.153500
vt 0.217300 0.153700
vt 0.236200 0.417900
vt 0.222000 0.419700
vt 0.247700 0.181200
vt 0.243400 0.153900
vt 0.246900 0.309100
vt 0.247200 0.419400
vt 0.250200 0.484000
vt 0.226800 0.485600
vt 0.239100 0.482500
vt 0.229700 0.182100
vt 0.231600 0.309200
vt 0.214900 0.306100
vt 0.212000 0.180000
vt 0.229700 0.131100
vt 0.229800 0.153500
vt 0.217100 0.153600
vt 0.236200 0.417800
vt 0.222000 0.419600
vt 0.247700 0.181200
vt 0.243400 0.153900
vt 0.246900 0.309100
vt 0.247300 0.419400
vt 0.250300 0.483900
vt 0.239100 0.482500
vt 0.229700 0.182100
vt 0.231600 0.309200
vt 0.229800 0.153500
vt 0.236200 0.417900
vt 0.212100 0.180000
vt 0.217200 0.153600
vt 0.222000 0.419700
vt 0.239100 0.482500
vt 0.229700 0.182100
vt 0.231600 0.309200
vt 0.229800 0.153500
vt 0.236200 0.417900
vt 0.212100 0.180000
vt 0.237000 0.502000
vt 0.226800 0.485600
vt 0.239100 0.482500
vt 0.229800 0.182100
vt 0.231600 0.309200
vt 0.214900 0.306100
vt 0.212100 0.180100
vt 0.229800 0.131200
vt 0.229800 0.153500
vt 0.217300 0.153700
vt 0.236200 0.417900
vt 0.222000 0.419700
vt 0.247700 0.181200
vt 0.243400 0.153900
vt 0.246900 0.309100
vt 0.247200 0.419400
vt 0.250200 0.484000
vt 0.226800 0.485600
vt 0.239100 0.482500
vt 0.229700 0.182100
vt 0.231600 0.309200
vt 0.214900 0.306100
vt 0.212000 0.180000
vt 0.229700 0.131100
vt 0.229800 0.153500
vt 0.217100 0.153600
vt 0.236200 0.417800
vt 0.222000 0.419600
vt 0.247700 0.181200
vt 0.243400 0.153900
vt 0.246900 0.309100
vt 0.247300 0.419400
vt 0.250300 0.483900
vt 0.239100 0.482500
vt 0.229700 0.182100
vt 0.231600 0.309200
vt 0.229800 0.153500
vt 0.236200 0.417900
vt 0.212100 0.180000
vt 0.217200 0.153600
vt 0.222000 0.419700
vt 0.239100 0.482500
vt 0.229700 0.182100
vt 0.231600 0.309200
vt 0.229800 0.153500
vt 0.236200 0.417900
vt 0.212100 0.180000
vt 0.237000 0.502000
vt 0.226800 0.485600
vt 0.239100 0.482500
vt 0.229800 0.182100
vt 0.231600 0.309200
vt 0.214900 0.306100
vt 0.212100 0.180100
vt 0.229800 0.131200
vt 0.229800 0.153500
vt 0.217300 0.153700
vt 0.236200 0.417900
vt 0.222000 0.419700
vt 0.247700 0.181200
vt 0.243400 0.153900
vt 0.246900 0.309100
vt 0.247200 0.419400
vt 0.250200 0.484000
vt 0.226800 0.485600
vt 0.239100 0.482500
vt 0.229700 0.182100
vt 0.231600 0.309200
vt 0.214900 0.306100
vt 0.212000 0.180000
vt 0.229700 0.131100
vt 0.229800 0.153500
vt 0.217100 0.153600
vt 0.236200 0.417800
vt 0.222000 0.419600
vt 0.247700 0.181200
vt 0.243400 0.153900
vt 0.246900 0.309100
vt 0.247300 0.419400
vt 0.250300 0.483900
vt 0.239100 0.482500
vt 0.229700 0.182100
vt 0.231600 0.309200
vt 0.229800 0.153500
vt 0.236200 0.417900
vt 0.212100 0.180000
vt 0.217200 0.153600
vt 0.222000 0.419700
vt 0.239100 0.482500
vt 0.229700 0.182100
vt 0.231600 0.309200
vt 0.229800 0.153500
vt 0.236200 0.417900
vt 0.212100 0.180000
vn -0.9915 -0.1219 0.0455
vn -0.5003 0.1104 -0.8588
vn -0.4552 -0.5423 -0.7062
vn 0.1445 -0.6259 -0.7664
vn -0.0082 -0.6691 -0.7431
vn -0.0762 0.0409 -0.9963
vn 0.1015 0.1082 -0.9889
vn 0.9981 0.0063 -0.0612
vn 0.5260 -0.5214 -0.6719
vn 0.5107 0.1039 -0.8534
vn -0.0468 -0.5834 -0.8109
vn -0.1129 0.1355 -0.9843
vn 0.1845 -0.9804 -0.0690
vn 0.5487 -0.8318 -0.0841
vn 0.0535 -0.9978 -0.0391
vn 0.0178 -0.9912 -0.1314
vn -0.3571 -0.9233 -0.1415
vn -0.3815 -0.2243 0.8967
vn -0.4863 0.4320 0.7595
vn 0.1903 0.6727 0.7150
vn -0.0349 0.6642 0.7467
vn 0.0339 -0.0449 0.9984
vn 0.2202 -0.0326 0.9749
vn 0.6084 0.5604 0.5620
vn 0.6155 -0.0197 0.7879
vn -0.0549 0.5696 0.8201
vn 0.0123 -0.1487 0.9888
vn 0.1316 0.9899 0.0532
vn 0.5700 0.8214 0.0196
vn -0.0985 0.9943 0.0412
vn -0.1255 0.9825 0.1378
vn -0.5169 0.8356 0.1861
vn -0.3717 -0.7776 0.5072
vn 0.2296 -0.7117 0.6639
vn 0.0705 -0.7223 0.6880
vn 0.5960 -0.6052 0.5278
vn 0.0426 -0.8011 0.5970
vn -0.5719 0.6713 -0.4715
vn 0.1087 0.7584 -0.6427
vn -0.1131 0.7177 -0.6871
vn 0.5397 0.6387 -0.5485
vn -0.1454 0.7892 -0.5966
vn 0.9979 -0.0508 0.0394
vn 0.3952 -0.9162 0.0660
vn 0.4736 -0.6811 -0.5584
vn -0.1067 -0.6633 -0.7407
vn 0.0525 -0.6522 -0.7563
vn -0.0221 -0.9960 -0.0862
vn -0.2071 -0.9772 -0.0467
vn -0.9866 0.0502 -0.1555
vn -0.4902 -0.5404 -0.6839
vn -0.5959 -0.7975 -0.0949
vn 0.0700 -0.7337 -0.6758
vn -0.0007 -0.9999 0.0136
vn -0.0238 0.0722 -0.9971
vn -0.4074 0.0798 -0.9097
vn 0.1105 0.0892 -0.9899
vn 0.1361 -0.0066 -0.9907
vn 0.4919 -0.0667 -0.8681
vn 0.4931 0.8692 -0.0368
vn 0.4740 0.6421 0.6025
vn -0.2345 0.6443 0.7279
vn -0.0091 0.6515 0.7586
vn 0.0644 0.9939 0.0890
vn -0.1227 0.9900 0.0692
vn -0.6401 0.5537 0.5326
vn -0.5299 0.8481 -0.0047
vn 0.0330 0.7332 0.6792
vn 0.1021 0.9947 -0.0106
vn -0.2896 -0.0537 0.9556
vn -0.6949 -0.0175 0.7189
vn -0.0654 -0.0916 0.9936
vn -0.0283 0.0020 0.9996
vn 0.3848 0.0239 0.9227
vn 0.5405 0.5536 -0.6335
vn -0.0466 0.7672 -0.6397
vn 0.1135 0.7746 -0.6222
vn -0.4365 0.6609 -0.6106
vn 0.1458 0.6914 -0.7076
vn 0.4069 -0.6107 0.6793
vn -0.2913 -0.7143 0.6363
vn -0.0708 -0.7778 0.6244
vn -0.6860 -0.5586 0.4662
vn -0.0428 -0.7010 0.7119
vn -0.9311 -0.0358 0.3631
vn -0.4398 -0.8981 0.0053
vn -0.2477 -0.7372 0.6287
vn 0.3570 -0.7468 0.5611
vn 0.2183 -0.7359 0.6409
vn -0.0018 -0.9994 -0.0337
vn 0.1526 -0.9779 -0.1426
vn 0.9672 0.0217 -0.2531
vn 0.6919 -0.6219 0.3669
vn 0.5377 -0.8090 -0.2376
vn 0.1655 -0.8073 0.5664
vn -0.0615 -0.9913 -0.1161
vn 0.4258 -0.0458 0.9037
vn 0.7420 -0.0317 0.6697
vn 0.3011 -0.0267 0.9532
vn 0.2726 -0.1216 0.9544
vn -0.1053 -0.1633 0.9809
vn -0.3868 0.8638 0.3229
vn -0.6386 0.7132 -0.2891
vn -0.0410 0.7230 -0.6896
vn -0.2590 0.7360 -0.6255
vn -0.0382 0.9981 0.0480
vn 0.1405 0.9900 -0.0103
vn 0.4030 0.6060 -0.6858
vn 0.5344 0.8363 -0.1226
vn -0.2610 0.8082 -0.5278
vn -0.0327 0.9876 0.1539
vn -0.1216 0.0562 -0.9910
vn 0.3460 0.0601 -0.9363
vn -0.3439 0.0250 -0.9387
vn -0.3750 0.1192 -0.9193
vn -0.7205 0.1360 -0.6800
vn -0.2086 0.4807 0.8517
vn 0.3427 0.6863 0.6415
vn 0.1897 0.6972 0.6913
vn 0.6814 0.5801 0.4462
vn 0.1898 0.6048 0.7734
vn -0.6791 -0.5225 -0.5155
vn -0.0294 -0.6374 -0.7700
vn -0.2298 -0.6997 -0.6764
vn 0.4086 -0.5068 -0.7591
vn -0.2861 -0.6129 -0.7366
vn 0.2586 -0.3382 -0.9048
vn 0.3050 -0.9512 -0.0474
vn -0.3194 -0.9020 -0.2904
vn -0.6211 -0.7532 0.2167
vn -0.6042 -0.7944 0.0626
vn 0.0837 -0.9347 0.3455
vn 0.0792 -0.8524 0.5168
vn -0.3679 0.3074 0.8776
vn -0.6691 -0.5109 0.5397
vn -0.0807 -0.5803 0.8104
vn -0.5091 -0.8565 0.0856
vn 0.1849 -0.9216 0.3414
vn -0.9766 -0.1573 -0.1467
vn -0.9754 -0.0145 0.2200
vn -0.9440 -0.1803 -0.2762
vn -0.9229 -0.2768 -0.2677
vn -0.7191 -0.4110 -0.5604
vn -0.0801 0.6471 -0.7582
vn 0.5699 0.5910 -0.5710
vn 0.5395 0.8354 0.1051
vn 0.6158 0.7812 -0.1024
vn -0.0716 0.9207 -0.3837
vn -0.1298 0.9688 -0.2113
vn 0.2811 0.8283 0.4846
vn -0.2630 0.9429 0.2046
vn 0.5342 0.8258 -0.1807
vn -0.1596 0.8869 -0.4335
vn 0.8669 0.2592 0.4257
vn 0.5468 0.3597 0.7560
vn 0.9577 0.1653 0.2358
vn 0.9552 0.2422 0.1703
vn 0.9652 0.1202 -0.2322
vn -0.5899 0.2025 -0.7817
vn -0.7572 0.5754 -0.3091
vn -0.7076 0.5380 -0.4580
vn -0.7937 0.6011 0.0935
vn -0.7686 0.4315 -0.4722
vn 0.8449 -0.5299 -0.0731
vn 0.6731 -0.4255 0.6050
vn 0.7194 -0.5534 0.4198
vn 0.3987 -0.2023 0.8945
vn 0.7963 -0.4704 0.3803
vn 0.7906 -0.4018 -0.4620
vn 0.2136 -0.9492 0.2311
vn -0.0750 -0.9240 -0.3751
vn -0.6344 -0.7408 -0.2207
vn -0.5189 -0.7932 -0.3188
vn -0.2151 -0.9057 0.3652
vn -0.3315 -0.8111 0.4819
vn -0.8533 0.3680 0.3695
vn -0.8790 -0.4757 -0.0328
vn -0.6366 -0.5195 0.5700
vn -0.4678 -0.8525 -0.2335
vn -0.1378 -0.8920 0.4305
vn -0.6205 -0.1768 -0.7640
vn -0.8633 -0.0072 -0.5047
vn -0.5095 -0.2090 -0.8347
vn -0.5040 -0.3044 -0.8083
vn -0.1616 -0.4580 -0.8741
vn 0.4864 0.5884 -0.6459
vn 0.8312 0.5524 -0.0625
vn 0.3592 0.8458 0.3944
vn 0.5539 0.7772 0.2985
vn 0.2494 0.8890 -0.3839
vn 0.0916 0.9492 -0.3009
vn -0.0885 0.8645 0.4948
vn -0.2903 0.9529 -0.0874
vn 0.5496 0.8151 0.1832
vn 0.2176 0.8509 -0.4781
vn 0.3547 0.2980 0.8862
vn -0.0998 0.4198 0.9021
vn 0.5463 0.1911 0.8155
vn 0.5925 0.2629 0.7615
vn 0.8688 0.1116 0.4825
vn 0.1105 0.1387 -0.9842
vn -0.3174 0.5440 -0.7768
vn -0.1815 0.4961 -0.8491
vn -0.6173 0.5990 -0.5101
vn -0.2210 0.3883 -0.8946
vn 0.6440 -0.5260 0.5556
vn 0.0611 -0.3734 0.9257
vn 0.2154 -0.5141 0.8302
vn -0.3270 -0.1318 0.9358
vn 0.3021 -0.4336 0.8490
vn 0.4654 0.3000 0.8327
vn 0.1735 -0.7035 0.6892
vn 0.7447 -0.5572 0.3673
vn 0.6126 -0.7677 -0.1882
vn 0.7050 -0.7054 -0.0729
vn 0.1000 -0.9440 0.3144
vn -0.0271 -0.9835 0.1787
vn -0.3591 -0.3149 -0.8786
vn 0.3676 -0.7758 -0.5128
vn -0.1858 -0.9573 -0.2213
vn 0.6470 -0.7624 0.0098
vn 0.0244 -0.9246 0.3802
vn 0.8490 -0.0983 -0.5191
vn 0.5817 -0.2085 -0.7862
vn 0.9091 -0.0356 -0.4151
vn 0.9261 -0.1157 -0.3592
vn 0.9995 -0.0305 0.0049
vn 0.2459 0.9680 0.0500
vn -0.3090 0.8517 0.4232
vn -0.7709 0.6316 -0.0826
vn -0.6853 0.7201 0.1088
vn -0.0814 0.9570 -0.2785
vn -0.1573 0.8863 -0.4355
vn -0.8007 0.3784 -0.4645
vn -0.2911 0.6041 -0.7419
vn -0.5986 0.7976 0.0741
vn 0.0237 0.9549 -0.2960
vn -0.9701 0.0019 0.2429
vn -0.9684 -0.1403 -0.2060
vn -0.8898 0.0492 0.4537
vn -0.8799 0.1497 0.4510
vn -0.6081 0.2989 0.7355
vn 0.7979 0.5978 -0.0773
vn 0.5026 0.5942 -0.6279
vn 0.5671 0.6584 -0.4948
vn 0.2869 0.3671 -0.8848
vn 0.6603 0.5789 -0.4784
vn -0.3630 -0.3199 0.8751
vn -0.6702 -0.6611 0.3373
vn -0.5477 -0.6465 0.5311
vn -0.7253 -0.6786 -0.1161
vn -0.6122 -0.5520 0.5661
vn -0.1901 0.1093 -0.9756
vn 0.0081 -0.8353 -0.5498
vn -0.6261 -0.6389 -0.4469
vn -0.6701 -0.7262 0.1537
vn -0.7224 -0.6914 0.0062
vn -0.0405 -0.9908 -0.1289
vn 0.0399 -0.9983 0.0432
vn 0.0746 -0.1169 0.9903
vn -0.5310 -0.6609 0.5303
vn 0.0759 -0.8858 0.4579
vn -0.6451 -0.7630 -0.0423
vn 0.0518 -0.9837 -0.1721
vn -0.9667 -0.0085 0.2558
vn -0.7935 -0.0545 0.6062
vn -0.9913 0.0299 0.1281
vn -0.9943 -0.0605 0.0874
vn -0.9550 -0.0546 -0.2916
vn -0.1829 0.9304 -0.3178
vn 0.4518 0.7524 -0.4794
vn 0.7371 0.6531 0.1735
vn 0.7147 0.6978 -0.0485
vn 0.0336 0.9956 0.0872
vn 0.0576 0.9610 0.2706
vn 0.6443 0.4855 0.5909
vn 0.0852 0.7518 0.6539
vn 0.6246 0.7788 -0.0575
vn -0.0720 0.9947 0.0732
vn 0.9980 -0.0255 0.0575
vn 0.8600 -0.0713 0.5053
vn 0.9847 -0.0250 -0.1726
vn 0.9783 0.0736 -0.1936
vn 0.8073 0.1539 -0.5697
vn -0.7619 0.5816 -0.2848
vn -0.6406 0.6996 0.3166
vn -0.6609 0.7332 0.1602
vn -0.5182 0.5360 0.6665
vn -0.7482 0.6498 0.1340
vn 0.5899 -0.4860 -0.6448
vn 0.7133 -0.7006 0.0176
vn 0.6533 -0.7296 -0.2022
vn 0.6330 -0.6221 0.4607
vn 0.7290 -0.6428 -0.2354
vn 0.4146 0.3741 -0.8296
vn 0.4132 -0.6611 -0.6263
vn -0.1743 -0.4509 -0.8754
vn -0.5564 -0.6882 -0.4656
vn -0.5144 -0.6123 -0.6004
vn 0.1405 -0.9169 -0.3736
vn 0.1036 -0.9750 -0.1964
vn -0.5151 -0.3765 0.7700
vn -0.6744 -0.7341 -0.0791
vn -0.1239 -0.9777 0.1697
vn -0.4168 -0.6744 -0.6095
vn 0.2391 -0.9057 -0.3499
vn -0.9241 -0.0016 -0.3822
vn -0.9884 -0.1503 -0.0236
vn -0.8719 0.0705 -0.4845
vn -0.8415 -0.0057 -0.5403
vn -0.5862 0.0959 -0.8045
vn -0.0489 0.9921 -0.1153
vn 0.5719 0.8149 0.0939
vn 0.4235 0.5275 0.7365
vn 0.5326 0.6300 0.5651
vn -0.1218 0.9329 0.3390
vn -0.2077 0.8499 0.4844
vn 0.1186 0.2643 0.9571
vn -0.3921 0.5465 0.7400
vn 0.4579 0.7172 0.5253
vn -0.1978 0.9437 0.2652
vn 0.7670 -0.1151 0.6312
vn 0.3960 -0.2657 0.8790
vn 0.8925 -0.0537 0.4479
vn 0.8903 0.0472 0.4530
vn 0.9681 0.2356 0.0849
vn -0.4978 0.6918 -0.5231
vn -0.7681 0.6392 0.0377
vn -0.6951 0.7139 -0.0851
vn -0.8613 0.3812 0.3359
vn -0.7413 0.6471 -0.1782
vn 0.9010 -0.3441 -0.2641
vn 0.6286 -0.7329 0.2602
vn 0.7136 -0.6988 0.0495
vn 0.2944 -0.7669 0.5703
vn 0.7852 -0.6125 0.0911
vn -0.3793 0.5515 -0.7429
vn -0.2353 -0.4450 -0.8640
vn -0.7841 -0.3104 -0.5374
vn -0.7041 -0.7100 -0.0092
vn -0.7981 -0.5870 -0.1360
vn -0.2016 -0.8138 -0.5451
vn -0.0697 -0.9200 -0.3857
vn 0.2763 -0.5623 0.7794
vn -0.4402 -0.8283 0.3467
vn 0.0832 -0.9949 0.0577
vn -0.7427 -0.6273 -0.2342
vn -0.1251 -0.7854 -0.6062
vn -0.8791 -0.1099 0.4638
vn -0.5962 -0.3413 0.7267
vn -0.9365 0.0029 0.3506
vn -0.9613 -0.0513 0.2707
vn -0.9867 0.1398 -0.0830
vn -0.1359 0.9809 0.1388
vn 0.4143 0.8838 -0.2175
vn 0.8462 0.4463 0.2911
vn 0.7790 0.6196 0.0963
vn 0.1829 0.8435 0.5050
vn 0.2562 0.6987 0.6680
vn 0.7925 0.0689 0.6059
vn 0.3384 0.2840 0.8971
vn 0.6955 0.7046 0.1409
vn 0.0757 0.8567 0.5102
vn 0.9812 -0.1020 -0.1636
vn 0.8969 -0.3557 0.2626
vn 0.9187 0.0281 -0.3940
vn 0.9179 0.1291 -0.3753
vn 0.6509 0.3991 -0.6458
vn -0.7204 0.6752 0.1586
vn -0.4483 0.4761 0.7566
vn -0.5138 0.5999 0.6133
vn -0.2485 0.1217 0.9610
vn -0.6197 0.5428 0.5669
vn 0.3496 -0.1213 -0.9290
vn 0.6122 -0.6648 -0.4282
vn 0.4943 -0.5717 -0.6548
vn 0.6212 -0.7820 0.0510
vn 0.5717 -0.4759 -0.6683
vn -0.6981 -0.0387 -0.7150
vn 0.3119 0.1731 -0.9342
vn 0.2031 -0.4846 -0.8508
vn 0.6437 -0.6172 -0.4525
vn 0.5231 -0.6479 -0.5537
vn 0.6939 0.0714 -0.7165
vn 0.8092 0.1232 -0.5745
vn 0.7097 -0.0766 0.7003
vn 0.8310 -0.5475 -0.0983
vn 0.9801 0.0810 -0.1810
vn 0.5512 -0.5575 -0.6208
vn 0.6642 0.1683 -0.7284
vn 0.1367 -0.9905 0.0134
vn 0.3957 -0.8729 0.2852
vn 0.0264 -0.9975 -0.0653
vn 0.0718 -0.9857 -0.1527
vn -0.1673 -0.8861 -0.4323
vn -0.9311 -0.2129 0.2962
vn -0.8733 0.4531 0.1791
vn -0.3809 0.6367 0.6705
vn -0.5547 0.6465 0.5238
vn -0.7238 -0.0718 0.6863
vn -0.5818 -0.0747 0.8099
vn 0.0070 0.4932 0.8699
vn -0.1789 -0.0908 0.9797
vn -0.6263 0.5521 0.5504
vn -0.7350 -0.1732 0.6556
vn 0.0858 0.9736 0.2114
vn 0.3960 0.7696 0.5009
vn -0.0582 0.9978 0.0330
vn -0.1486 0.9859 0.0765
vn -0.4505 0.8716 -0.1935
vn -0.6551 -0.7555 0.0003
vn -0.3697 -0.7444 0.5560
vn -0.4939 -0.7421 0.4532
vn -0.0204 -0.6660 0.7457
vn -0.4476 -0.8160 0.3657
vn -0.0030 0.7284 -0.6852
vn 0.5807 0.7618 -0.2872
vn 0.4647 0.7411 -0.4845
vn 0.7924 0.6039 0.0858
vn 0.3785 0.8129 -0.4426
vn 0.0653 0.6675 0.7417
vn -0.0026 -0.3684 0.9296
vn 0.6208 -0.1814 0.7627
vn 0.7416 -0.5867 0.3253
vn 0.7733 -0.4677 0.4281
vn 0.1076 -0.7267 0.6784
vn 0.0488 -0.8412 0.5385
vn 0.0515 -0.6664 -0.7438
vn 0.6425 -0.7658 -0.0261
vn 0.0522 -0.9896 0.1338
vn 0.6971 -0.5088 0.5051
vn 0.0107 -0.7089 0.7052
vn 0.9873 -0.0211 -0.1577
vn 0.8606 -0.2804 -0.4252
vn 0.9935 0.0858 -0.0745
vn 0.9993 0.0358 0.0109
vn 0.9157 0.2500 0.3147
vn 0.0664 0.9609 -0.2687
vn -0.5658 0.8221 -0.0643
vn -0.7637 0.3327 -0.5533
vn -0.7710 0.4980 -0.3969
vn -0.1060 0.7552 -0.6469
vn -0.1056 0.6198 -0.7776
vn -0.6092 -0.0275 -0.7926
vn -0.0706 0.2288 -0.9709
vn -0.6898 0.5810 -0.4320
vn -0.0030 0.7767 -0.6299
vn -0.9789 -0.1883 -0.0797
vn -0.7862 -0.4606 -0.4120
vn -0.9926 -0.0556 0.1083
vn -0.9969 0.0373 0.0690
vn -0.8783 0.3388 0.3373
vn 0.6725 0.7371 -0.0668
vn 0.6126 0.4757 -0.6312
vn 0.6116 0.5944 -0.5221
vn 0.5459 0.1279 -0.8280
vn 0.7020 0.5533 -0.4484
vn -0.6186 -0.1093 0.7781
vn -0.6455 -0.6758 0.3557
vn -0.6094 -0.5666 0.5546
vn -0.5209 -0.8523 -0.0472
vn -0.6953 -0.4875 0.5280
vn -0.7771 0.0146 0.6292
vn -0.0381 -0.7370 0.6749
vn 0.1599 -0.1682 0.9727
vn 0.7017 -0.0902 0.7067
vn 0.5831 -0.0594 0.8102
vn 0.3935 -0.7417 0.5432
vn 0.5092 -0.7651 0.3941
vn 0.8311 0.0558 -0.5533
vn 0.9273 -0.0568 0.3699
vn 0.7768 -0.6237 0.0871
vn 0.5532 -0.1713 0.8153
vn 0.3244 -0.8031 0.4997
vn 0.5322 0.6552 0.5362
vn 0.7796 0.5785 0.2399
vn 0.4186 0.6750 0.6075
vn 0.4309 0.6014 0.6728
vn 0.1093 0.5079 0.8544
vn -0.6499 0.7520 -0.1105
vn -0.9046 0.1854 -0.3839
vn -0.4243 0.0559 -0.9038
vn -0.6178 0.0609 -0.7840
vn -0.4271 0.7417 -0.5172
vn -0.2703 0.7358 -0.6210
vn 0.0251 0.0694 -0.9973
vn 0.1319 0.6354 -0.7609
vn -0.6346 0.1769 -0.7523
vn -0.4028 0.8052 -0.4351
vn -0.2732 -0.6403 -0.7179
vn 0.1563 -0.5010 -0.8512
vn -0.4547 -0.6757 -0.5803
vn -0.5177 -0.6019 -0.6081
vn -0.8034 -0.5057 -0.3144
vn -0.2603 0.8637 0.4316
vn 0.1269 0.9910 -0.0422
vn -0.0090 0.9990 0.0444
vn 0.4483 0.8582 -0.2500
vn 0.0397 0.9867 0.1574
vn -0.4790 -0.8621 0.1655
vn 0.1190 -0.9736 -0.1950
vn -0.0242 -0.9996 -0.0173
vn 0.4649 -0.7786 -0.4216
vn -0.1185 -0.9888 -0.0903
s 1
f 1/1/1 2/2/2 3/3/3
f 4/4/4 5/5/5 6/6/6
f 6/6/6 7/7/7 4/4/4
f 8/8/8 9/9/9 10/10/10
f 5/5/5 11/11/11 12/12/12
f 12/12/12 6/6/6 5/5/5
f 11/11/11 3/3/3 2/2/2
f 2/2/2 12/12/12 11/11/11
f 13/13/13 4/4/4 9/9/9
f 9/9/9 14/14/14 13/13/13
f 15/15/15 5/5/5 4/4/4
f 4/4/4 13/13/13 15/15/15
f 16/16/16 11/11/11 5/5/5
f 5/5/5 15/15/15 16/16/16
f 17/17/17 3/3/3 11/11/11
f 11/11/11 16/16/16 17/17/17
f 1/1/1 3/3/3 17/17/17
f 1/1/1 18/18/18 19/19/19
f 20/20/20 21/21/21 22/22/22
f 22/22/22 23/23/23 20/20/20
f 8/24/8 24/25/24 25/26/25
f 21/21/21 26/27/26 27/28/27
f 27/28/27 22/22/22 21/21/21
f 26/27/26 19/19/19 18/18/18
f 18/18/18 27/28/27 26/27/26
f 28/29/28 20/20/20 24/25/24
f 24/25/24 29/30/29 28/29/28
f 30/31/30 21/21/21 20/20/20
f 20/20/20 28/29/28 30/31/30
f 31/32/31 26/27/26 21/21/21
f 21/21/21 30/31/30 31/32/31
f 32/33/32 19/19/19 26/27/26
f 26/27/26 31/32/31 32/33/32
f 1/1/1 19/19/19 32/33/32
f 1/1/1 17/17/17 33/34/33
f 34/35/34 35/36/35 15/15/15
f 15/15/15 13/13/13 34/35/34
f 8/8/8 36/37/36 14/14/14
f 35/36/35 37/38/37 16/16/16
f 16/16/16 15/15/15 35/36/35
f 37/38/37 33/34/33 17/17/17
f 17/17/17 16/16/16 37/38/37
f 23/39/23 34/35/34 36/37/36
f 36/37/36 25/40/25 23/39/23
f 22/22/22 35/36/35 34/35/34
f 34/35/34 23/39/23 22/22/22
f 27/41/27 37/38/37 35/36/35
f 35/36/35 22/22/22 27/41/27
f 18/18/18 33/34/33 37/38/37
f 37/38/37 27/41/27 18/18/18
f 1/1/1 33/34/33 18/18/18
f 1/1/1 32/33/32 38/42/38
f 39/43/39 40/44/40 30/31/30
f 30/31/30 28/29/28 39/43/39
f 8/24/8 41/45/41 29/30/29
f 40/44/40 42/46/42 31/32/31
f 31/32/31 30/31/30 40/44/40
f 42/46/42 38/42/38 32/33/32
f 32/33/32 31/32/31 42/46/42
f 7/47/7 39/43/39 41/45/41
f 41/45/41 10/10/10 7/47/7
f 6/6/6 40/44/40 39/43/39
f 39/43/39 7/47/7 6/6/6
f 12/12/12 42/46/42 40/44/40
f 40/44/40 6/6/6 12/12/12
f 2/2/2 38/42/38 42/46/42
f 42/46/42 12/12/12 2/2/2
f 1/1/1 38/42/38 2/2/2
f 10/10/10 9/9/9 4/4/4
f 4/4/4 7/7/7 10/10/10
f 14/14/14 9/9/9 8/8/8
f 25/26/25 24/25/24 20/20/20
f 20/20/20 23/23/23 25/26/25
f 29/30/29 24/25/24 8/24/8
f 14/14/14 36/37/36 34/35/34
f 34/35/34 13/13/13 14/14/14
f 25/40/25 36/37/36 8/8/8
f 29/30/29 41/45/41 39/43/39
f 39/43/39 28/29/28 29/30/29
f 10/10/10 41/45/41 8/24/8
s 2
f 43/48/43 44/49/44 45/50/45
f 46/51/46 47/52/47 48/53/48
f 48/53/48 49/54/49 46/51/46
f 50/55/50 51/56/51 52/57/52
f 47/52/47 53/58/53 54/59/54
f 54/59/54 48/53/48 47/52/47
f 53/58/53 45/50/45 44/49/44
f 44/49/44 54/59/54 53/58/53
f 55/60/55 46/51/46 51/56/51
f 51/56/51 56/61/56 55/60/55
f 57/62/57 47/52/47 46/51/46
f 46/51/46 55/60/55 57/62/57
f 58/63/58 53/58/53 47/52/47
f 47/52/47 57/62/57 58/63/58
f 59/64/59 45/50/45 53/58/53
f 53/58/53 58/63/58 59/64/59
f 43/48/43 45/50/45 59/64/59
f 43/48/43 60/65/60 61/66/61
f 62/67/62 63/68/63 64/69/64
f 64/69/64 65/70/65 62/67/62
f 50/71/50 66/72/66 67/73/67
f 63/68/63 68/74/68 69/75/69
f 69/75/69 64/69/64 63/68/63
f 68/74/68 61/66/61 60/65/60
f 60/65/60 69/75/69 68/74/68
f 70/76/70 62/67/62 66/72/66
f 66/72/66 71/77/71 70/76/70
f 72/78/72 63/68/63 62/67/62
f 62/67/62 70/76/70 72/78/72
f 73/79/73 68/74/68 63/68/63
f 63/68/63 72/78/72 73/79/73
f 74/80/74 61/66/61 68/74/68
f 68/74/68 73/79/73 74/80/74
f 43/48/43 61/66/61 74/80/74
f 43/48/43 59/64/59 75/81/75
f 76/82/76 77/83/77 57/62/57
f 57/62/57 55/60/55 76/82/76
f 50/55/50 78/84/78 56/61/56
f 77/83/77 79/85/79 58/63/58
f 58/63/58 57/62/57 77/83/77
f 79/85/79 75/81/75 59/64/59
f 59/64/59 58/63/58 79/85/79
f 65/86/65 76/82/76 78/84/78
f 78/84/78 67/87/67 65/86/65
f 64/69/64 77/83/77 76/82/76
f 76/82/76 65/86/65 64/69/64
f 69/88/69 79/85/79 77/83/77
f 77/83/77 64/69/64 69/88/69
f 60/65/60 75/81/75 79/85/79
f 79/85/79 69/88/69 60/65/60
f 43/48/43 75/81/75 60/65/60
f 43/48/43 74/80/74 80/89/80
f 81/90/81 82/91/82 72/78/72
f 72/78/72 70/76/70 81/90/81
f 50/71/50 83/92/83 71/77/71
f 82/91/82 84/93/84 73/79/73
f 73/79/73 72/78/72 82/91/82
f 84/93/84 80/89/80 74/80/74
f 74/80/74 73/79/73 84/93/84
f 49/94/49 81/90/81 83/92/83
f 83/92/83 52/57/52 49/94/49
f 48/53/48 82/91/82 81/90/81
f 81/90/81 49/94/49 48/53/48
f 54/59/54 84/93/84 82/91/82
f 82/91/82 48/53/48 54/59/54
f 44/49/44 80/89/80 84/93/84
f 84/93/84 54/59/54 44/49/44
f 43/48/43 80/89/80 44/49/44
f 52/57/52 51/56/51 46/51/46
f 46/51/46 49/54/49 52/57/52
f 56/61/56 51/56/51 50/55/50
f 67/73/67 66/72/66 62/67/62
f 62/67/62 65/70/65 67/73/67
f 71/77/71 66/72/66 50/71/50
f 56/61/56 78/84/78 76/82/76
f 76/82/76 55/60/55 56/61/56
f 67/87/67 78/84/78 50/55/50
f 71/77/71 83/92/83 81/90/81
f 81/90/81 70/76/70 71/77/71
f 52/57/52 83/92/83 50/71/50
s 3
f 85/95/85 86/96/86 87/97/87
f 88/98/88 89/99/89 90/100/90
f 90/100/90 91/101/91 88/98/88
f 92/102/92 93/103/93 94/104/94
f 89/99/89 95/105/95 96/106/96
f 96/106/96 90/100/90 89/99/89
f 95/105/95 87/97/87 86/96/86
f 86/96/86 96/106/96 95/105/95
f 97/107/97 88/98/88 93/103/93
f 93/103/93 98/108/98 97/107/97
f 99/109/99 89/99/89 88/98/88
f 88/98/88 97/107/97 99/109/99
f 100/110/100 95/105/95 89/99/89
f 89/99/89 99/109/99 100/110/100
f 101/111/101 87/97/87 95/105/95
f 95/105/95 100/110/100 101/111/101
f 85/95/85 87/97/87 101/111/101
f 85/95/85 102/112/102 103/113/103
f 104/114/104 105/115/105 106/116/106
f 106/116/106 107/117/107 104/114/104
f 92/118/92 108/119/108 109/120/109
f 105/115/105 110/121/110 111/122/111
f 111/122/111 106/116/106 105/115/105
f 110/121/110 103/113/103 102/112/102
f 102/112/102 111/122/111 110/121/110
f 112/123/112 104/114/104 108/119/108
f 108/119/108 113/124/113 112/123/112
f 114/125/114 105/115/105 104/114/104
f 104/114/104 112/123/112 114/125/114
f 115/126/115 110/121/110 105/115/105
f 105/115/105 114/125/114 115/126/115
f 116/127/116 103/113/103 110/121/110
f 110/121/110 115/126/115 116/127/116
f 85/95/85 103/113/103 116/127/116
f 85/95/85 101/111/101 117/128/117
f 118/129/118 119/130/119 99/109/99
f 99/109/99 97/107/97 118/129/118
f 92/102/92 120/131/120 98/108/98
f 119/130/119 121/132/121 100/110/100
f 100/110/100 99/109/99 119/130/119
f 121/132/121 117/128/117 101/111/101
f 101/111/101 100/110/100 121/132/121
f 107/133/107 118/129/118 120/131/120
f 120/131/120 109/134/109 107/133/107
f 106/116/106 119/130/119 118/129/118
f 118/129/118 107/133/107 106/116/106
f 111/135/111 121/132/121 119/130/119
f 119/130/119 106/116/106 111/135/111
f 102/112/102 117/128/117 121/132/121
f 121/132/121 111/135/111 102/112/102
f 85/95/85 117/128/117 102/112/102
f 85/95/85 116/127/116 122/136/122
f 123/137/123 124/138/124 114/125/114
f 114/125/114 112/123/112 123/137/123
f 92/118/92 125/139/125 113/124/113
f 124/138/124 126/140/126 115/126/115
f 115/126/115 114/125/114 124/138/124
f 126/140/126 122/136/122 116/127/116
f 116/127/116 115/126/115 126/140/126
f 91/141/91 123/137/123 125/139/125
f 125/139/125 94/104/94 91/141/91
f 90/100/90 124/138/124 123/137/123
f 123/137/123 91/141/91 90/100/90
f 96/106/96 126/140/126 124/138/124
f 124/138/124 90/100/90 96/106/96
f 86/96/86 122/136/122 126/140/126
f 126/140/126 96/106/96 86/96/86
f 85/95/85 122/136/122 86/96/86
f 94/104/94 93/103/93 88/98/88
f 88/98/88 91/101/91 94/104/94
f 98/108/98 93/103/93 92/102/92
f 109/120/109 108/119/108 104/114/104
f 104/114/104 107/117/107 109/120/109
f 113/124/113 108/119/108 92/118/92
f 98/108/98 120/131/120 118/129/118
f 118/129/118 97/107/97 98/108/98
f 109/134/109 120/131/120 92/102/92
f 113/124/113 125/139/125 123/137/123
f 123/137/123 112/123/112 113/124/113
f 94/104/94 125/139/125 92/118/92
s 4
f 127/142/127 128/143/128 129/144/129
f 130/145/130 131/146/131 132/147/132
f 132/147/132 133/148/133 130/145/130
f 134/149/134 135/150/135 136/151/136
f 131/146/131 137/152/137 138/153/138
f 138/153/138 132/147/132 131/146/131
f 137/152/137 129/144/129 128/143/128
f 128/143/128 138/153/138 137/152/137
f 139/154/139 130/145/130 135/150/135
f 135/150/135 140/155/140 139/154/139
f 141/156/141 131/146/131 130/145/130
f 130/145/130 139/154/139 141/156/141
f 142/157/142 137/152/137 131/146/131
f 131/146/131 141/156/141 142/157/142
f 143/158/143 129/144/129 137/152/137
f 137/152/137 142/157/142 143/158/143
f 127/142/127 129/144/129 143/158/143
f 127/142/127 144/159/144 145/160/145
f 146/161/146 147/162/147 148/163/148
f 148/163/148 149/164/149 146/161/146
f 134/165/134 150/166/150 151/167/151
f 147/162/147 152/168/152 153/169/153
f 153/169/153 148/163/148 147/162/147
f 152/168/152 145/160/145 144/159/144
f 144/159/144 153/169/153 152/168/152
f 154/170/154 146/161/146 150/166/150
f 150/166/150 155/171/155 154/170/154
f 156/172/156 147/162/147 146/161/146
f 146/161/146 154/170/154 156/172/156
f 157/173/157 152/168/152 147/162/147
f 147/162/147 156/172/156 157/173/157
f 158/174/158 145/160/145 152/168/152
f 152/168/152 157/173/157 158/174/158
f 127/142/127 145/160/145 158/174/158
f 127/142/127 143/158/143 159/175/159
f 160/176/160 161/177/161 141/156/141
f 141/156/141 139/154/139 160/176/160
f 134/149/134 162/178/162 140/155/140
f 161/177/161 163/179/163 142/157/142
f 142/157/142 141/156/141 161/177/161
f 163/179/163 159/175/159 143/158/143
f 143/158/143 142/157/142 163/179/163
f 149/180/149 160/176/160 162/178/162
f 162/178/162 151/181/151 149/180/149
f 148/163/148 161/177/161 160/176/160
f 160/176/160 149/180/149 148/163/148
f 153/182/153 163/179/163 161/177/161
f 161/177/161 148/163/148 153/182/153
f 144/159/144 159/175/159 163/179/163
f 163/179/163 153/182/153 144/159/144
f 127/142/127 159/175/159 144/159/144
f 127/142/127 158/174/158 164/183/164
f 165/184/165 166/185/166 156/172/156
f 156/172/156 154/170/154 165/184/165
f 134/165/134 167/186/167 155/171/155
f 166/185/166 168/187/168 157/173/157
f 157/173/157 156/172/156 166/185/166
f 168/187/168 164/183/164 158/174/158
f 158/174/158 157/173/157 168/187/168
f 133/188/133 165/184/165 167/186/167
f 167/186/167 136/151/136 133/188/133
f 132/147/132 166/185/166 165/184/165
f 165/184/165 133/188/133 132/147/132
f 138/153/138 168/187/168 166/185/166
f 166/185/166 132/147/132 138/153/138
f 128/143/128 164/183/164 168/187/168
f 168/187/168 138/153/138 128/143/128
f 127/142/127 164/183/164 128/143/128
f 136/151/136 135/150/135 130/145/130
f 130/145/130 133/148/133 136/151/136
f 140/155/140 135/150/135 134/149/134
f 151/167/151 150/166/150 146/161/146
f 146/161/146 149/164/149 151/167/151
f 155/171/155 150/166/150 134/165/134
f 140/155/140 162/178/162 160/176/160
f 160/176/160 139/154/139 140/155/140
f 151/181/151 162/178/162 134/149/134
f 155/171/155 167/186/167 165/184/165
f 165/184/165 154/170/154 155/171/155
f 136/151/136 167/186/167 134/165/134
s 5
f 169/189/169 170/190/170 171/191/171
f 172/192/172 173/193/173 174/194/174
f 174/194/174 175/195/175 172/192/172
f 176/196/176 177/197/177 178/198/178
f 173/193/173 179/199/179 180/200/180
f 180/200/180 174/194/174 173/193/173
f 179/199/179 171/191/171 170/190/170
f 170/190/170 180/200/180 179/199/179
f 181/201/181 172/192/172 177/197/177
f 177/197/177 182/202/182 181/201/181
f 183/203/183 173/193/173 172/192/172
f 172/192/172 181/201/181 183/203/183
f 184/204/184 179/199/179 173/193/173
f 173/193/173 183/203/183 184/204/184
f 185/205/185 171/191/171 179/199/179
f 179/199/179 184/204/184 185/205/185
f 169/189/169 171/191/171 185/205/185
f 169/189/169 186/206/186 187/207/187
f 188/208/188 189/209/189 190/210/190
f 190/210/190 191/211/191 188/208/188
f 176/212/176 192/213/192 193/214/193
f 189/209/189 194/215/194 195/216/195
f 195/216/195 190/210/190 189/209/189
f 194/215/194 187/207/187 186/206/186
f 186/206/186 195/216/195 194/215/194
f 196/217/196 188/208/188 192/213/192
f 192/213/192 197/218/197 196/217/196
f 198/219/198 189/209/189 188/208/188
f 188/208/188 196/217/196 198/219/198
f 199/220/199 194/215/194 189/209/189
f 189/209/189 198/219/198 199/220/199
f 200/221/200 187/207/187 194/215/194
f 194/215/194 199/220/199 200/221/200
f 169/189/169 187/207/187 200/221/200
f 169/189/169 185/205/185 201/222/201
f 202/223/202 203/224/203 183/203/183
f 183/203/183 181/201/181 202/223/202
f 176/196/176 204/225/204 182/202/182
f 203/224/203 205/226/205 184/204/184
f 184/204/184 183/203/183 203/224/203
f 205/226/205 201/222/201 185/205/185
f 185/205/185 184/204/184 205/226/205
f 191/227/191 202/223/202 204/225/204
f 204/225/204 193/228/193 191/227/191
f 190/210/190 203/224/203 202/223/202
f 202/223/202 191/227/191 190/210/190
f 195/229/195 205/226/205 203/224/203
f 203/224/203 190/210/190 195/229/195
f 186/206/186 201/222/201 205/226/205
f 205/226/205 195/229/195 186/206/186
f 169/189/169 201/222/201 186/206/186
f 169/189/169 200/221/200 206/230/206
f 207/231/207 208/232/208 198/219/198
f 198/219/198 196/217/196 207/231/207
f 176/212/176 209/233/209 197/218/197
f 208/232/208 210/234/210 199/220/199
f 199/220/199 198/219/198 208/232/208
f 210/234/210 206/230/206 200/221/200
f 200/221/200 199/220/199 210/234/210
f 175/235/175 207/231/207 209/233/209
f 209/233/209 178/198/178 175/235/175
f 174/194/174 208/232/208 207/231/207
f 207/231/207 175/235/175 174/194/174
f 180/200/180 210/234/210 208/232/208
f 208/232/208 174/194/174 180/200/180
f 170/190/170 206/230/206 210/234/210
f 210/234/210 180/200/180 170/190/170
f 169/189/169 206/230/206 170/190/170
f 178/198/178 177/197/177 172/192/172
f 172/192/172 175/195/175 178/198/178
f 182/202/182 177/197/177 176/196/176
f 193/214/193 192/213/192 188/208/188
f 188/208/188 191/211/191 193/214/193
f 197/218/197 192/213/192 176/212/176
f 182/202/182 204/225/204 202/223/202
f 202/223/202 181/201/181 182/202/182
f 193/228/193 204/225/204 176/196/176
f 197/218/197 209/233/209 207/231/207
f 207/231/207 196/217/196 197/218/197
f 178/198/178 209/233/209 176/212/176
s 6
f 211/236/211 212/237/212 213/238/213
f 214/239/214 215/240/215 216/241/216
f 216/241/216 217/242/217 214/239/214
f 218/243/218 219/244/219 220/245/220
f 215/240/215 221/246/221 222/247/222
f 222/247/222 216/241/216 215/240/215
f 221/246/221 213/238/213 212/237/212
f 212/237/212 222/247/222 221/246/221
f 223/248/223 214/239/214 219/244/219
f 219/244/219 224/249/224 223/248/223
f 225/250/225 215/240/215 214/239/214
f 214/239/214 223/248/223 225/250/225
f 226/251/226 221/246/221 215/240/215
f 215/240/215 225/250/225 226/251/226
f 227/252/227 213/238/213 221/246/221
f 221/246/221 226/251/226 227/252/227
f 211/236/211 213/238/213 227/252/227
f 211/236/211 228/253/228 229/254/229
f 230/255/230 231/256/231 232/257/232
f 232/257/232 233/258/233 230/255/230
f 218/259/218 234/260/234 235/261/235
f 231/256/231 236/262/236 237/263/237
f 237/263/237 232/257/232 231/256/231
f 236/262/236 229/254/229 228/253/228
f 228/253/228 237/263/237 236/262/236
f 238/264/238 230/255/230 234/260/234
f 234/260/234 239/265/239 238/264/238
f 240/266/240 231/256/231 230/255/230
f 230/255/230 238/264/238 240/266/240
f 241/267/241 236/262/236 231/256/231
f 231/256/231 240/266/240 241/267/241
f 242/268/242 229/254/229 236/262/236
f 236/262/236 241/267/241 242/268/242
f 211/236/211 229/254/229 242/268/242
f 211/236/211 227/252/227 243/269/243
f 244/270/244 245/271/245 225/250/225
f 225/250/225 223/248/223 244/270/244
f 218/243/218 246/272/246 224/249/224
f 245/271/245 247/273/247 226/251/226
f 226/251/226 225/250/225 245/271/245
f 247/273/247 243/269/243 227/252/227
f 227/252/227 226/251/226 247/273/247
f 233/274/233 244/270/244 246/272/246
f 246/272/246 235/275/235 233/274/233
f 232/257/232 245/271/245 244/270/244
f 244/270/244 233/274/233 232/257/232
f 237/276/237 247/273/247 245/271/245
f 245/271/245 232/257/232 237/276/237
f 228/253/228 243/269/243 247/273/247
f 247/273/247 237/276/237 228/253/228
f 211/236/211 243/269/243 228/253/228
f 211/236/211 242/268/242 248/277/248
f 249/278/249 250/279/250 240/266/240
f 240/266/240 238/264/238 249/278/249
f 218/259/218 251/280/251 239/265/239
f 250/279/250 252/281/252 241/267/241
f 241/267/241 240/266/240 250/279/250
f 252/281/252 248/277/248 242/268/242
f 242/268/242 241/267/241 252/281/252
f 217/282/217 249/278/249 251/280/251
f 251/280/251 220/245/220 217/282/217
f 216/241/216 250/279/250 249/278/249
f 249/278/249 217/282/217 216/241/216
f 222/247/222 252/281/252 250/279/250
f 250/279/250 216/241/216 222/247/222
f 212/237/212 248/277/248 252/281/252
f 252/281/252 222/247/222 212/237/212
f 211/236/211 248/277/248 212/237/212
f 220/245/220 219/244/219 214/239/214
f 214/239/214 217/242/217 220/245/220
f 224/249/224 219/244/219 218/243/218
f 235/261/235 234/260/234 230/255/230
f 230/255/230 233/258/233 235/261/235
f 239/265/239 234/260/234 218/259/218
f 224/249/224 246/272/246 244/270/244
f 244/270/244 223/248/223 224/249/224
f 235/275/235 246/272/246 218/243/218
f 239/265/239 251/280/251 249/278/249
f 249/278/249 238/264/238 239/265/239
f 220/245/220 251/280/251 218/259/218
s 7
f 253/283/253 254/284/254 255/285/255
f 256/286/256 257/287/257 258/288/258
f 258/288/258 259/289/259 256/286/256
f 260/290/260 261/291/261 262/292/262
f 257/287/257 263/293/263 264/294/264
f 264/294/264 258/288/258 257/287/257
f 263/293/263 255/285/255 254/284/254
f 254/284/254 264/294/264 263/293/263
f 265/295/265 256/286/256 261/291/261
f 261/291/261 266/296/266 265/295/265
f 267/297/267 257/287/257 256/286/256
f 256/286/256 265/295/265 267/297/267
f 268/298/268 263/293/263 257/287/257
f 257/287/257 267/297/267 268/298/268
f 269/299/269 255/285/255 263/293/263
f 263/293/263 268/298/268 269/299/269
f 253/283/253 255/285/255 269/299/269
f 253/283/253 270/300/270 271/301/271
f 272/302/272 273/303/273 274/304/274
f 274/304/274 275/305/275 272/302/272
f 260/306/260 276/307/276 277/308/277
f 273/303/273 278/309/278 279/310/279
f 279/310/279 274/304/274 273/303/273
f 278/309/278 271/301/271 270/300/270
f 270/300/270 279/310/279 278/309/278
f 280/311/280 272/302/272 276/307/276
f 276/307/276 281/312/281 280/311/280
f 282/313/282 273/303/273 272/302/272
f 272/302/272 280/311/280 282/313/282
f 283/314/283 278/309/278 273/303/273
f 273/303/273 282/313/282 283/314/283
f 284/315/284 271/301/271 278/309/278
f 278/309/278 283/314/283 284/315/284
f 253/283/253 271/301/271 284/315/284
f 253/283/253 269/299/269 285/316/285
f 286/317/286 287/318/287 267/297/267
f 267/297/267 265/295/265 286/317/286
f 260/290/260 288/319/288 266/296/266
f 287/318/287 289/320/289 268/298/268
f 268/298/268 267/297/267 287/318/287
f 289/320/289 285/316/285 269/299/269
f 269/299/269 268/298/268 289/320/289
f 275/321/275 286/317/286 288/319/288
f 288/319/288 277/322/277 275/321/275
f 274/304/274 287/318/287 286/317/286
f 286/317/286 275/321/275 274/304/274
f 279/323/279 289/320/289 287/318/287
f 287/318/287 274/304/274 279/323/279
f 270/300/270 285/316/285 289/320/289
f 289/320/289 279/323/279 270/300/270
f 253/283/253 285/316/285 270/300/270
f 253/283/253 284/315/284 290/324/290
f 291/325/291 292/326/292 282/313/282
f 282/313/282 280/311/280 291/325/291
f 260/306/260 293/327/293 281/312/281
f 292/326/292 294/328/294 283/314/283
f 283/314/283 282/313/282 292/326/292
f 294/328/294 290/324/290 284/315/284
f 284/315/284 283/314/283 294/328/294
f 259/329/259 291/325/291 293/327/293
f 293/327/293 262/292/262 259/329/259
f 258/288/258 292/326/292 291/325/291
f 291/325/291 259/329/259 258/288/258
f 264/294/264 294/328/294 292/326/292
f 292/326/292 258/288/258 264/294/264
f 254/284/254 290/324/290 294/328/294
f 294/328/294 264/294/264 254/284/254
f 253/283/253 290/324/290 254/284/254
f 262/292/262 261/291/261 256/286/256
f 256/286/256 259/289/259 262/292/262
f 266/296/266 261/291/261 260/290/260
f 277/308/277 276/307/276 272/302/272
f 272/302/272 275/305/275 277/308/277
f 281/312/281 276/307/276 260/306/260
f 266/296/266 288/319/288 286/317/286
f 286/317/286 265/295/265 266/296/266
f 277/322/277 288/319/288 260/290/260
f 281/312/281 293/327/293 291/325/291
f 291/325/291 280/311/280 281/312/281
f 262/292/262 293/327/293 260/306/260
s 8
f 295/330/295 296/331/296 297/332/297
f 298/333/298 299/334/299 300/335/300
f 300/335/300 301/336/301 298/333/298
f 302/337/302 303/338/303 304/339/304
f 299/334/299 305/340/305 306/341/306
f 306/341/306 300/335/300 299/334/299
f 305/340/305 297/332/297 296/331/296
f 296/331/296 306/341/306 305/340/305
f 307/342/307 298/333/298 303/338/303
f 303/338/303 308/343/308 307/342/307
f 309/344/309 299/334/299 298/333/298
f 298/333/298 307/342/307 309/344/309
f 310/345/310 305/340/305 299/334/299
f 299/334/299 309/344/309 310/345/310
f 311/346/311 297/332/297 305/340/305
f 305/340/305 310/345/310 311/346/311
f 295/330/295 297/332/297 311/346/311
f 295/330/295 312/347/312 313/348/313
f 314/349/314 315/350/315 316/351/316
f 316/351/316 317/352/317 314/349/314
f 302/353/302 318/354/318 319/355/319
f 315/350/315 320/356/320 321/357/321
f 321/357/321 316/351/316 315/350/315
f 320/356/320 313/348/313 312/347/312
f 312/347/312 321/357/321 320/356/320
f 322/358/322 314/349/314 318/354/318
f 318/354/318 323/359/323 322/358/322
f 324/360/324 315/350/315 314/349/314
f 314/349/314 322/358/322 324/360/324
f 325/361/325 320/356/320 315/350/315
f 315/350/315 324/360/324 325/361/325
f 326/362/326 313/348/313 320/356/320
f 320/356/320 325/361/325 326/362/326
f 295/330/295 313/348/313 326/362/326
f 295/330/295 311/346/311 327/363/327
f 328/364/328 329/365/329 309/344/309
f 309/344/309 307/342/307 328/364/328
f 302/337/302 330/366/330 308/343/308
f 329/365/329 331/367/331 310/345/310
f 310/345/310 309/344/309 329/365/329
f 331/367/331 327/363/327 311/346/311
f 311/346/311 310/345/310 331/367/331
f 317/368/317 328/364/328 330/366/330
f 330/366/330 319/369/319 317/368/317
f 316/351/316 329/365/329 328/364/328
f 328/364/328 317/368/317 316/351/316
f 321/370/321 331/367/331 329/365/329
f 329/365/329 316/351/316 321/370/321
f 312/347/312 327/363/327 331/367/331
f 331/367/331 321/370/321 312/347/312
f 295/330/295 327/363/327 312/347/312
f 295/330/295 326/362/326 332/371/332
f 333/372/333 334/373/334 324/360/324
f 324/360/324 322/358/322 333/372/333
f 302/353/302 335/374/335 323/359/323
f 334/373/334 336/375/336 325/361/325
f 325/361/325 324/360/324 334/373/334
f 336/375/336 332/371/332 326/362/326
f 326/362/326 325/361/325 336/375/336
f 301/376/301 333/372/333 335/374/335
f 335/374/335 304/339/304 301/376/301
f 300/335/300 334/373/334 333/372/333
f 333/372/333 301/376/301 300/335/300
f 306/341/306 336/375/336 334/373/334
f 334/373/334 300/335/300 306/341/306
f 296/331/296 332/371/332 336/375/336
f 336/375/336 306/341/306 296/331/296
f 295/330/295 332/371/332 296/331/296
f 304/339/304 303/338/303 298/333/298
f 298/333/298 301/336/301 304/339/304
f 308/343/308 303/338/303 302/337/302
f 319/355/319 318/354/318 314/349/314
f 314/349/314 317/352/317 319/355/319
f 323/359/323 318/354/318 302/353/302
f 308/343/308 330/366/330 328/364/328
f 328/364/328 307/342/307 308/343/308
f 319/369/319 330/366/330 302/337/302
f 323/359/323 335/374/335 333/372/333
f 333/372/333 322/358/322 323/359/323
f 304/339/304 335/374/335 302/353/302
s 9
f 337/377/337 338/378/338 339/379/339
f 340/380/340 341/381/341 342/382/342
f 342/382/342 343/383/343 340/380/340
f 344/384/344 345/385/345 346/386/346
f 341/381/341 347/387/347 348/388/348
f 348/388/348 342/382/342 341/381/341
f 347/387/347 339/379/339 338/378/338
f 338/378/338 348/388/348 347/387/347
f 349/389/349 340/380/340 345/385/345
f 345/385/345 350/390/350 349/389/349
f 351/391/351 341/381/341 340/380/340
f 340/380/340 349/389/349 351/391/351
f 352/392/352 347/387/347 341/381/341
f 341/381/341 351/391/351 352/392/352
f 353/393/353 339/379/339 347/387/347
f 347/387/347 352/392/352 353/393/353
f 337/377/337 339/379/339 353/393/353
f 337/377/337 354/394/354 355/395/355
f 356/396/356 357/397/357 358/398/358
f 358/398/358 359/399/359 356/396/356
f 344/400/344 360/401/360 361/402/361
f 357/397/357 362/403/362 363/404/363
f 363/404/363 358/398/358 357/397/357
f 362/403/362 355/395/355 354/394/354
f 354/394/354 363/404/363 362/403/362
f 364/405/364 356/396/356 360/401/360
f 360/401/360 365/406/365 364/405/364
f 366/407/366 357/397/357 356/396/356
f 356/396/356 364/405/364 366/407/366
f 367/408/367 362/403/362 357/397/357
f 357/397/357 366/407/366 367/408/367
f 368/409/368 355/395/355 362/403/362
f 362/403/362 367/408/367 368/409/368
f 337/377/337 355/395/355 368/409/368
f 337/377/337 353/393/353 369/410/369
f 370/411/370 371/412/371 351/391/351
f 351/391/351 349/389/349 370/411/370
f 344/384/344 372/413/372 350/390/350
f 371/412/371 373/414/373 352/392/352
f 352/392/352 351/391/351 371/412/371
f 373/414/373 369/410/369 353/393/353
f 353/393/353 352/392/352 373/414/373
f 359/415/359 370/411/370 372/413/372
f 372/413/372 361/416/361 359/415/359
f 358/398/358 371/412/371 370/411/370
f 370/411/370 359/415/359 358/398/358
f 363/417/363 373/414/373 371/412/371
f 371/412/371 358/398/358 363/417/363
f 354/394/354 369/410/369 373/414/373
f 373/414/373 363/417/363 354/394/354
f 337/377/337 369/410/369 354/394/354
f 337/377/337 368/409/368 374/418/374
f 375/419/375 376/420/376 366/407/366
f 366/407/366 364/405/364 375/419/375
f 344/400/344 377/421/377 365/406/365
f 376/420/376 378/422/378 367/408/367
f 367/408/367 366/407/366 376/420/376
f 378/422/378 374/418/374 368/409/368
f 368/409/368 367/408/367 378/422/378
f 343/423/343 375/419/375 377/421/377
f 377/421/377 346/386/346 343/423/343
f 342/382/342 376/420/376 375/419/375
f 375/419/375 343/423/343 342/382/342
f 348/388/348 378/422/378 376/420/376
f 376/420/376 342/382/342 348/388/348
f 338/378/338 374/418/374 378/422/378
f 378/422/378 348/388/348 338/378/338
f 337/377/337 374/418/374 338/378/338
f 346/386/346 345/385/345 340/380/340
f 340/380/340 343/383/343 346/386/346
f 350/390/350 345/385/345 344/384/344
f 361/402/361 360/401/360 356/396/356
f 356/396/356 359/399/359 361/402/361
f 365/406/365 360/401/360 344/400/344
f 350/390/350 372/413/372 370/411/370
f 370/411/370 349/389/349 350/390/350
f 361/416/361 372/413/372 344/384/344
f 365/406/365 377/421/377 375/419/375
f 375/419/375 364/405/364 365/406/365
f 346/386/346 377/421/377 344/400/344
s 10
f 379/424/379 380/425/380 381/426/381
f 382/427/382 383/428/383 384/429/384
f 384/429/384 385/430/385 382/427/382
f 386/431/386 387/432/387 388/433/388
f 383/428/383 389/434/389 390/435/390
f 390/435/390 384/429/384 383/428/383
f 389/434/389 381/426/381 380/425/380
f 380/425/380 390/435/390 389/434/389
f 391/436/391 382/427/382 387/432/387
f 387/432/387 392/437/392 391/436/391
f 393/438/393 383/428/383 382/427/382
f 382/427/382 391/436/391 393/438/393
f 394/439/394 389/434/389 383/428/383
f 383/428/383 393/438/393 394/439/394
f 395/440/395 381/426/381 389/434/389
f 389/434/389 394/439/394 395/440/395
f 379/424/379 381/426/381 395/440/395
f 379/424/379 396/441/396 397/442/397
f 398/443/398 399/444/399 400/445/400
f 400/445/400 401/446/401 398/443/398
f 386/447/386 402/448/402 403/449/403
f 399/444/399 404/450/404 405/451/405
f 405/451/405 400/445/400 399/444/399
f 404/450/404 397/442/397 396/441/396
f 396/441/396 405/451/405 404/450/404
f 406/452/406 398/443/398 402/448/402
f 402/448/402 407/453/407 406/452/406
f 408/454/408 399/444/399 398/443/398
f 398/443/398 406/452/406 408/454/408
f 409/455/409 404/450/404 399/444/399
f 399/444/399 408/454/408 409/455/409
f 410/456/410 397/442/397 404/450/404
f 404/450/404 409/455/409 410/456/410
f 379/424/379 397/442/397 410/456/410
f 379/424/379 395/440/395 411/457/411
f 412/458/412 413/459/413 393/438/393
f 393/438/393 391/436/391 412/458/412
f 386/431/386 414/460/414 392/437/392
f 413/459/413 415/461/415 394/439/394
f 394/439/394 393/438/393 413/459/413
f 415/461/415 411/457/411 395/440/395
f 395/440/395 394/439/394 415/461/415
f 401/462/401 412/458/412 414/460/414
f 414/460/414 403/463/403 401/462/401
f 400/445/400 413/459/413 412/458/412
f 412/458/412 401/462/401 400/445/400
f 405/464/405 415/461/415 413/459/413
f 413/459/413 400/445/400 405/464/405
f 396/441/396 411/457/411 415/461/415
f 415/461/415 405/464/405 396/441/396
f 379/424/379 411/457/411 396/441/396
f 379/424/379 410/456/410 416/465/416
f 417/466/417 418/467/418 408/454/408
f 408/454/408 406/452/406 417/466/417
f 386/447/386 419/468/419 407/453/407
f 418/467/418 420/469/420 409/455/409
f 409/455/409 408/454/408 418/467/418
f 420/469/420 416/465/416 410/456/410
f 410/456/410 409/455/409 420/469/420
f 385/470/385 417/466/417 419/468/419
f 419/468/419 388/433/388 385/470/385
f 384/429/384 418/467/418 417/466/417
f 417/466/417 385/470/385 384/429/384
f 390/435/390 420/469/420 418/467/418
f 418/467/418 384/429/384 390/435/390
f 380/425/380 416/465/416 420/469/420
f 420/469/420 390/435/390 380/425/380
f 379/424/379 416/465/416 380/425/380
f 388/433/388 387/432/387 382/427/382
f 382/427/382 385/430/385 388/433/388
f 392/437/392 387/432/387 386/431/386
f 403/449/403 402/448/402 398/443/398
f 398/443/398 401/446/401 403/449/403
f 407/453/407 402/448/402 386/447/386
f 392/437/392 414/460/414 412/458/412
f 412/458/412 391/436/391 392/437/392
f 403/463/403 414/460/414 386/431/386
f 407/453/407 419/468/419 417/466/417
f 417/466/417 406/452/406 407/453/407
f 388/433/388 419/468/419 386/447/386
s 11
f 421/471/421 422/472/422 423/473/423
f 424/474/424 425/475/425 426/476/426
f 426/476/426 427/477/427 424/474/424
f 428/478/428 429/479/429 430/480/430
f 425/475/425 431/481/431 432/482/432
f 432/482/432 426/476/426 425/475/425
f 431/481/431 423/473/423 422/472/422
f 422/472/422 432/482/432 431/481/431
f 433/483/433 424/474/424 429/479/429
f 429/479/429 434/484/434 433/483/433
f 435/485/435 425/475/425 424/474/424
f 424/474/424 433/483/433 435/485/435
f 436/486/436 431/481/431 425/475/425
f 425/475/425 435/485/435 436/486/436
f 437/487/437 423/473/423 431/481/431
f 431/481/431 436/486/436 437/487/437
f 421/471/421 423/473/423 437/487/437
f 421/471/421 438/488/438 439/489/439
f 440/490/440 441/491/441 442/492/442
f 442/492/442 443/493/443 440/490/440
f 428/494/428 444/495/444 445/496/445
f 441/491/441 446/497/446 447/498/447
f 447/498/447 442/492/442 441/491/441
f 446/497/446 439/489/439 438/488/438
f 438/488/438 447/498/447 446/497/446
f 448/499/448 440/490/440 444/495/444
f 444/495/444 449/500/449 448/499/448
f 450/501/450 441/491/441 440/490/440
f 440/490/440 448/499/448 450/501/450
f 451/502/451 446/497/446 441/491/441
f 441/491/441 450/501/450 451/502/451
f 452/503/452 439/489/439 446/497/446
f 446/497/446 451/502/451 452/503/452
f 421/471/421 439/489/439 452/503/452
f 421/471/421 437/487/437 453/504/453
f 454/505/454 455/506/455 435/485/435
f 435/485/435 433/483/433 454/505/454
f 428/478/428 456/507/456 434/484/434
f 455/506/455 457/508/457 436/486/436
f 436/486/436 435/485/435 455/506/455
f 457/508/457 453/504/453 437/487/437
f 437/487/437 436/486/436 457/508/457
f 443/509/443 454/505/454 456/507/456
f 456/507/456 445/510/445 443/509/443
f 442/492/442 455/506/455 454/505/454
f 454/505/454 443/509/443 442/492/442
f 447/511/447 457/508/457 455/506/455
f 455/506/455 442/492/442 447/511/447
f 438/488/438 453/504/453 457/508/457
f 457/508/457 447/511/447 438/488/438
f 421/471/421 453/504/453 438/488/438
f 421/471/421 452/503/452 458/512/458
f 459/513/459 460/514/460 450/501/450
f 450/501/450 448/499/448 459/513/459
f 428/494/428 461/515/461 449/500/449
f 460/514/460 462/516/462 451/502/451
f 451/502/451 450/501/450 460/514/460
f 462/516/462 458/512/458 452/503/452
f 452/503/452 451/502/451 462/516/462
f 427/517/427 459/513/459 461/515/461
f 461/515/461 430/480/430 427/517/427
f 426/476/426 460/514/460 459/513/459
f 459/513/459 427/517/427 426/476/426
f 432/482/432 462/516/462 460/514/460
f 460/514/460 426/476/426 432/482/432
f 422/472/422 458/512/458 462/516/462
f 462/516/462 432/482/432 422/472/422
f 421/471/421 458/512/458 422/472/422
f 430/480/430 429/479/429 424/474/424
f 424/474/424 427/477/427 430/480/430
f 434/484/434 429/479/429 428/478/428
f 445/496/445 444/495/444 440/490/440
f 440/490/440 443/493/443 445/496/445
f 449/500/449 444/495/444 428/494/428
f 434/484/434 456/507/456 454/505/454
f 454/505/454 433/483/433 434/484/434
f 445/510/445 456/507/456 428/478/428
f 449/500/449 461/515/461 459/513/459
f 459/513/459 448/499/448 449/500/449
f 430/480/430 461/515/461 428/494/428
s 12
f 463/518/463 464/519/464 465/520/465
f 466/521/466 467/522/467 468/523/468
f 468/523/468 469/524/469 466/521/466
f 470/525/470 471/526/471 472/527/472
f 467/522/467 473/528/473 474/529/474
f 474/529/474 468/523/468 467/522/467
f 473/528/473 465/520/465 464/519/464
f 464/519/464 474/529/474 473/528/473
f 475/530/475 466/521/466 471/526/471
f 471/526/471 476/531/476 475/530/475
f 477/532/477 467/522/467 466/521/466
f 466/521/466 475/530/475 477/532/477
f 478/533/478 473/528/473 467/522/467
f 467/522/467 477/532/477 478/533/478
f 479/534/479 465/520/465 473/528/473
f 473/528/473 478/533/478 479/534/479
f 463/518/463 465/520/465 479/534/479
f 463/518/463 480/535/480 481/536/481
f 482/537/482 483/538/483 484/539/484
f 484/539/484 485/540/485 482/537/482
f 470/541/470 486/542/486 487/543/487
f 483/538/483 488/544/488 489/545/489
f 489/545/489 484/539/484 483/538/483
f 488/544/488 481/536/481 480/535/480
f 480/535/480 489/545/489 488/544/488
f 490/546/490 482/537/482 486/542/486
f 486/542/486 491/547/491 490/546/490
f 492/548/492 483/538/483 482/537/482
f 482/537/482 490/546/490 492/548/492
f 493/549/493 488/544/488 483/538/483
f 483/538/483 492/548/492 493/549/493
f 494/550/494 481/536/481 488/544/488
f 488/544/488 493/549/493 494/550/494
f 463/518/463 481/536/481 494/550/494
f 463/518/463 479/534/479 495/551/495
f 496/552/496 497/553/497 477/532/477
f 477/532/477 475/530/475 496/552/496
f 470/525/470 498/554/498 476/531/476
f 497/553/497 499/555/499 478/533/478
f 478/533/478 477/532/477 497/553/497
f 499/555/499 495/551/495 479/534/479
f 479/534/479 478/533/478 499/555/499
f 485/556/485 496/552/496 498/554/498
f 498/554/498 487/557/487 485/556/485
f 484/539/484 497/553/497 496/552/496
f 496/552/496 485/556/485 484/539/484
f 489/558/489 499/555/499 497/553/497
f 497/553/497 484/539/484 489/558/489
f 480/535/480 495/551/495 499/555/499
f 499/555/499 489/558/489 480/535/480
f 463/518/463 495/551/495 480/535/480
f 463/518/463 494/550/494 500/559/500
f 501/560/501 502/561/502 492/548/492
f 492/548/492 490/546/490 501/560/501
f 470/541/470 503/562/503 491/547/491
f 502/561/502 504/563/504 493/549/493
f 493/549/493 492/548/492 502/561/502
f 504/563/504 500/559/500 494/550/494
f 494/550/494 493/549/493 504/563/504
f 469/564/469 501/560/501 503/562/503
f 503/562/503 472/527/472 469/564/469
f 468/523/468 502/561/502 501/560/501
f 501/560/501 469/564/469 468/523/468
f 474/529/474 504/563/504 502/561/502
f 502/561/502 468/523/468 474/529/474
f 464/519/464 500/559/500 504/563/504
f 504/563/504 474/529/474 464/519/464
f 463/518/463 500/559/500 464/519/464
f 472/527/472 471/526/471 466/521/466
f 466/521/466 469/524/469 472/527/472
f 476/531/476 471/526/471 470/525/470
f 487/543/487 486/542/486 482/537/482
f 482/537/482 485/540/485 487/543/487
f 491/547/491 486/542/486 470/541/470
f 476/531/476 498/554/498 496/552/496
f 496/552/496 475/530/475 476/531/476
f 487/557/487 498/554/498 470/525/470
f 491/547/491 503/562/503 501/560/501
f 501/560/501 490/546/490 491/547/491
f 472/527/472 503/562/503 470/541/470
