# Blender v3.3.0 OBJ File: ''
# www.blender.org
o WheatStage00.005
v -0.116137 0.056728 0.069630
v -0.149971 0.049319 0.064018
v -0.147550 0.053967 0.056682
v -0.111936 0.060815 0.062581
v -0.114123 0.061046 0.076976
v -0.149936 0.053986 0.071032
v -0.028109 -0.008642 0.091787
v -0.028203 0.011229 0.091582
v -0.033764 0.010928 0.083637
v -0.033568 -0.008408 0.083853
v -0.026081 0.011248 0.077180
v -0.025796 -0.008659 0.077417
v -0.034187 0.030910 0.090432
v -0.039580 0.029672 0.082520
v -0.032235 0.030868 0.075997
v -0.051414 0.047805 0.087467
v -0.056354 0.045313 0.079634
v -0.049576 0.047629 0.073008
v -0.079517 0.058568 0.082745
v -0.083267 0.054996 0.075109
v -0.077640 0.058253 0.068291
v -0.116185 0.056903 0.069606
v -0.111984 0.060947 0.062776
v -0.147657 0.054095 0.056862
v -0.150068 0.049486 0.063991
v -0.114100 0.061169 0.076759
v -0.149973 0.054107 0.070814
v -0.027861 -0.008642 0.091612
v -0.033268 -0.008407 0.083893
v -0.033466 0.010945 0.083676
v -0.027958 0.011239 0.091405
v -0.025604 -0.008658 0.077651
v -0.025890 0.011260 0.077414
v -0.039301 0.029738 0.082551
v -0.033955 0.030950 0.090249
v -0.032057 0.030912 0.076230
v -0.056147 0.045442 0.079649
v -0.051225 0.047884 0.087273
v -0.049444 0.047716 0.073236
v -0.083181 0.055166 0.075104
v -0.079402 0.058678 0.082537
v -0.077590 0.058374 0.068506
v 0.000448 0.060441 0.060836
v 0.016123 0.066616 0.047547
v 0.017330 0.069863 0.051853
v 0.001357 0.063217 0.065397
v -0.003872 0.063244 0.059242
v 0.012104 0.069889 0.045702
v -0.028704 -0.008372 0.080022
v -0.027268 0.008727 0.078874
v -0.022256 0.008202 0.079902
v -0.023640 -0.008388 0.081008
v -0.022026 0.008701 0.085044
v -0.023462 -0.008398 0.086191
v -0.025274 0.025228 0.077251
v -0.020821 0.024092 0.078750
v -0.020034 0.025202 0.083419
v -0.020780 0.040287 0.073500
v -0.016438 0.038561 0.075088
v -0.015543 0.040261 0.079665
v -0.013540 0.053182 0.067408
v -0.009306 0.050897 0.069081
v -0.008306 0.053155 0.073568
v 0.000388 0.060620 0.060889
v 0.001210 0.063333 0.065317
v 0.017197 0.069988 0.051765
v 0.016074 0.066801 0.047590
v -0.003816 0.063358 0.059401
v 0.012171 0.070013 0.045848
v -0.028691 -0.008361 0.080229
v -0.023797 -0.008369 0.081142
v -0.022381 0.008247 0.080009
v -0.027253 0.008752 0.079080
v -0.023665 -0.008386 0.086146
v -0.022227 0.008727 0.084996
v -0.020951 0.024181 0.078862
v -0.025245 0.025279 0.077443
v -0.020219 0.025254 0.083360
v -0.016557 0.038689 0.075190
v -0.020751 0.040362 0.073690
v -0.015725 0.040338 0.079606
v -0.009397 0.051056 0.069160
v -0.013499 0.053278 0.067583
v -0.008473 0.053253 0.073500
v -0.005497 0.059638 0.147152
v 0.003000 0.051687 0.172593
v -0.002970 0.056560 0.173625
v -0.011918 0.063927 0.146844
v -0.001150 0.064221 0.143093
v 0.007840 0.056629 0.170028
v -0.022294 -0.008768 0.077734
v -0.022419 0.012152 0.077983
v -0.025886 0.011782 0.084738
v -0.025791 -0.008574 0.084417
v -0.033168 0.012121 0.081781
v -0.033090 -0.008836 0.081388
v -0.021045 0.032846 0.082654
v -0.024549 0.031490 0.089276
v -0.031754 0.032750 0.086582
v -0.016812 0.050557 0.095760
v -0.020427 0.047884 0.102032
v -0.027496 0.050320 0.099775
v -0.009812 0.061764 0.117006
v -0.013724 0.057959 0.122377
v -0.020507 0.061381 0.120992
v -0.005495 0.059821 0.147195
v -0.011766 0.064067 0.146806
v -0.002806 0.056695 0.173634
v 0.003017 0.051863 0.172671
v -0.001309 0.064349 0.143158
v 0.007702 0.056756 0.170135
v -0.022633 -0.008766 0.077246
v -0.026001 -0.008571 0.083814
v -0.025969 0.011801 0.084517
v -0.022631 0.012163 0.077877
v -0.033127 -0.008832 0.080789
v -0.033077 0.012135 0.081563
v -0.024630 0.031561 0.089072
v -0.021256 0.032889 0.082561
v -0.031658 0.032798 0.086374
v -0.020492 0.048020 0.101884
v -0.017015 0.050640 0.095700
v -0.027387 0.050413 0.099601
v -0.013760 0.058138 0.122320
v -0.009998 0.061880 0.117004
v -0.020377 0.061510 0.120879
v 0.006662 0.041280 0.105148
v 0.001333 0.042873 0.107588
v 0.015966 0.048263 0.115929
v 0.021187 0.046256 0.113423
v 0.005632 0.043020 0.099626
v 0.020416 0.048338 0.108052
v -0.028268 -0.008535 0.081521
v -0.026018 -0.008378 0.086087
v -0.025552 0.003196 0.086453
v -0.027587 0.003356 0.081400
v -0.031216 -0.008602 0.086746
v -0.030978 0.003309 0.087657
v -0.021932 0.014474 0.088627
v -0.023666 0.015054 0.083147
v -0.027501 0.014977 0.090418
v -0.015253 0.024930 0.092544
v -0.016648 0.025910 0.086806
v -0.020819 0.025785 0.094840
v -0.005611 0.034026 0.098115
v -0.006850 0.035396 0.092471
v -0.010999 0.035223 0.100516
v 0.006740 0.041144 0.105183
v 0.021252 0.046114 0.113453
v 0.015961 0.048147 0.116055
v 0.001344 0.042765 0.107724
v 0.005756 0.042919 0.099553
v 0.020524 0.048228 0.107972
v -0.028103 -0.008538 0.081511
v -0.027416 0.003340 0.081375
v -0.025384 0.003171 0.086542
v -0.025848 -0.008384 0.086179
v -0.030902 0.003290 0.087815
v -0.031131 -0.008608 0.086891
v -0.023494 0.015013 0.083106
v -0.021774 0.014413 0.088708
v -0.027437 0.014931 0.090583
v -0.016483 0.025846 0.086747
v -0.015116 0.024837 0.092611
v -0.020770 0.025713 0.095004
v -0.006703 0.035311 0.092406
v -0.005501 0.033907 0.098167
v -0.010967 0.035130 0.100666
v 0.087364 0.043296 0.076829
v 0.083283 0.037362 0.103785
v 0.077412 0.041041 0.101942
v 0.081703 0.046530 0.073568
v 0.093172 0.046750 0.075153
v 0.088848 0.041092 0.103686
v 0.104213 -0.008557 0.006545
v 0.103998 0.007244 0.006639
v 0.097742 0.006979 0.011146
v 0.097963 -0.008396 0.010971
v 0.092525 0.007222 0.005106
v 0.092763 -0.008607 0.004860
v 0.103095 0.022886 0.011425
v 0.096866 0.021876 0.015797
v 0.091598 0.022815 0.010028
v 0.100878 0.036298 0.025169
v 0.094709 0.034293 0.029178
v 0.089362 0.036121 0.023862
v 0.097395 0.044822 0.047573
v 0.091373 0.041959 0.050634
v 0.085883 0.044535 0.046235
v 0.087345 0.043434 0.076868
v 0.081859 0.046635 0.073604
v 0.077556 0.041142 0.102025
v 0.083263 0.037495 0.103862
v 0.092999 0.046847 0.075138
v 0.088674 0.041187 0.103718
v 0.104072 -0.008557 0.006351
v 0.097992 -0.008395 0.010732
v 0.097769 0.006992 0.010908
v 0.103855 0.007252 0.006446
v 0.092947 -0.008606 0.004705
v 0.092708 0.007232 0.004951
v 0.096888 0.021929 0.015575
v 0.102948 0.022918 0.011243
v 0.091781 0.022851 0.009884
v 0.094718 0.034395 0.029014
v 0.100721 0.036361 0.025021
v 0.089541 0.036191 0.023755
v 0.091368 0.042094 0.050566
v 0.097228 0.044909 0.047485
v 0.086053 0.044632 0.046193
v 0.079114 0.046316 -0.015772
v 0.068364 0.051204 -0.028088
v 0.071766 0.053798 -0.029092
v 0.082724 0.048537 -0.016542
v 0.077886 0.048538 -0.012318
v 0.066931 0.053799 -0.024871
v 0.094864 -0.008374 0.007145
v 0.093891 0.005221 0.006029
v 0.094656 0.004810 0.002033
v 0.095594 -0.008380 0.003107
v 0.098740 0.005221 0.001796
v 0.099714 -0.008374 0.002911
v 0.092535 0.018340 0.004475
v 0.093683 0.017443 0.000917
v 0.097383 0.018339 0.000242
v 0.089465 0.030308 0.000955
v 0.090685 0.028943 -0.002516
v 0.094310 0.030307 -0.003276
v 0.084509 0.040551 -0.004726
v 0.085800 0.038742 -0.008113
v 0.089351 0.040550 -0.008954
v 0.079156 0.046459 -0.015725
v 0.082662 0.048629 -0.016424
v 0.071697 0.053897 -0.028985
v 0.068398 0.051351 -0.028050
v 0.078011 0.048629 -0.012364
v 0.067046 0.053897 -0.024925
v 0.095029 -0.008365 0.007132
v 0.095703 -0.008365 0.003231
v 0.094742 0.004846 0.002131
v 0.094054 0.005241 0.006015
v 0.099680 -0.008365 0.003072
v 0.098705 0.005241 0.001956
v 0.093772 0.017515 0.001020
v 0.092688 0.018381 0.004450
v 0.097338 0.018381 0.000390
v 0.090767 0.029045 -0.002423
v 0.089615 0.030368 0.000929
v 0.094265 0.030368 -0.003130
v 0.085863 0.038868 -0.008041
v 0.084648 0.040628 -0.004761
v 0.089298 0.040628 -0.008821
v 0.134396 0.034426 -0.015833
v 0.148540 0.029515 -0.024875
v 0.150068 0.032560 -0.021407
v 0.135181 0.037104 -0.011888
v 0.131264 0.037286 -0.017844
v 0.146238 0.032602 -0.027413
v 0.094999 -0.008497 0.004864
v 0.095130 0.004582 0.004925
v 0.099755 0.004363 0.005997
v 0.099584 -0.008364 0.005965
v 0.099072 0.004564 0.010863
v 0.098862 -0.008539 0.010852
v 0.097713 0.017531 0.003403
v 0.102265 0.016695 0.004516
v 0.101729 0.017473 0.009296
v 0.104980 0.028634 -0.001144
v 0.109340 0.026974 0.000089
v 0.109045 0.028488 0.004722
v 0.116773 0.035690 -0.008616
v 0.120633 0.033320 -0.007067
v 0.120822 0.035452 -0.002740
v 0.134422 0.034541 -0.015840
v 0.135135 0.037191 -0.011975
v 0.150048 0.032644 -0.021508
v 0.148585 0.029625 -0.024896
v 0.131327 0.037366 -0.017758
v 0.146323 0.032681 -0.027345
v 0.094755 -0.008497 0.005144
v 0.099251 -0.008363 0.006184
v 0.099634 0.004375 0.006080
v 0.095098 0.004589 0.005070
v 0.098504 -0.008538 0.010966
v 0.098926 0.004573 0.010841
v 0.102153 0.016739 0.004596
v 0.097689 0.017557 0.003545
v 0.101588 0.017502 0.009270
v 0.109260 0.027059 0.000151
v 0.104975 0.028686 -0.001011
v 0.108923 0.028546 0.004682
v 0.120604 0.033431 -0.007037
v 0.116800 0.035762 -0.008503
v 0.120733 0.035532 -0.002801
v 0.114332 0.031204 -0.021203
v 0.116325 0.032473 -0.016991
v 0.122786 0.036793 -0.028710
v 0.120743 0.035194 -0.032837
v 0.109948 0.032572 -0.020323
v 0.116475 0.036835 -0.032164
v 0.096052 -0.008499 0.006782
v 0.099658 -0.008360 0.004944
v 0.099913 0.000844 0.004580
v 0.095917 0.000956 0.006252
v 0.100238 -0.008541 0.009070
v 0.100929 0.000933 0.008881
v 0.101573 0.009821 0.001687
v 0.097233 0.010266 0.003125
v 0.103055 0.010221 0.006097
v 0.104588 0.018152 -0.003656
v 0.100038 0.018914 -0.002485
v 0.106471 0.018833 0.000745
v 0.108891 0.025406 -0.011375
v 0.104412 0.026480 -0.010328
v 0.110854 0.026361 -0.007116
v 0.114360 0.031095 -0.021265
v 0.120766 0.035081 -0.032888
v 0.122886 0.036701 -0.028708
v 0.116433 0.032387 -0.017001
v 0.109888 0.032491 -0.020421
v 0.116411 0.036747 -0.032250
v 0.096042 -0.008502 0.006651
v 0.095895 0.000944 0.006116
v 0.099983 0.000824 0.004445
v 0.099730 -0.008365 0.004808
v 0.101053 0.000918 0.008819
v 0.100353 -0.008545 0.009001
v 0.097198 0.010234 0.002989
v 0.101636 0.009772 0.001561
v 0.103186 0.010185 0.006044
v 0.099990 0.018863 -0.002616
v 0.104640 0.018078 -0.003767
v 0.106601 0.018776 0.000704
v 0.104359 0.026413 -0.010445
v 0.108931 0.025312 -0.011464
v 0.110974 0.026287 -0.007143
v -0.093583 0.056573 -0.145764
v -0.119014 0.049111 -0.168758
v -0.113006 0.053737 -0.173634
v -0.086234 0.060640 -0.149435
v -0.095858 0.060917 -0.138509
v -0.122774 0.053802 -0.162854
v -0.031587 -0.008635 -0.079299
v -0.031536 0.011235 -0.079589
v -0.031917 0.010902 -0.089278
v -0.031888 -0.008432 -0.088925
v -0.021962 0.011208 -0.090555
v -0.021870 -0.008698 -0.090134
v -0.035928 0.030907 -0.083859
v -0.036187 0.029637 -0.093426
v -0.026480 0.030818 -0.094944
v -0.048798 0.047774 -0.095726
v -0.048719 0.045251 -0.104978
v -0.039433 0.047551 -0.106893
v -0.069872 0.058493 -0.114933
v -0.068900 0.054892 -0.123372
v -0.060477 0.058132 -0.126075
v -0.093611 0.056747 -0.145810
v -0.086380 0.060773 -0.149297
v -0.113193 0.053865 -0.173540
v -0.119081 0.049278 -0.168833
v -0.095721 0.061039 -0.138681
v -0.122687 0.053922 -0.163058
v -0.031284 -0.008635 -0.079312
v -0.031657 -0.008431 -0.088729
v -0.031687 0.010920 -0.089085
v -0.031234 0.011246 -0.079605
v -0.021835 -0.008696 -0.089834
v -0.021927 0.011221 -0.090255
v -0.035969 0.029703 -0.093249
v -0.035634 0.030946 -0.083887
v -0.026456 0.030863 -0.094653
v -0.048553 0.045380 -0.104854
v -0.048534 0.047852 -0.095788
v -0.039445 0.047639 -0.106631
v -0.068825 0.055062 -0.123331
v -0.069663 0.058603 -0.115047
v -0.060550 0.058253 -0.125867
v 0.009240 0.060372 -0.090121
v 0.029618 0.066518 -0.092842
v 0.028307 0.069781 -0.088578
v 0.007540 0.063165 -0.085801
v 0.006471 0.063166 -0.093808
v 0.027239 0.069781 -0.096578
v -0.025724 -0.008405 -0.089517
v -0.023879 0.008692 -0.089764
v -0.020220 0.008175 -0.086187
v -0.021998 -0.008413 -0.085949
v -0.022807 0.008692 -0.081739
v -0.024652 -0.008405 -0.081493
v -0.021308 0.025189 -0.090106
v -0.018374 0.024062 -0.086433
v -0.020236 0.025189 -0.082084
v -0.015485 0.040240 -0.090882
v -0.012693 0.038524 -0.087192
v -0.014414 0.040240 -0.082864
v -0.006087 0.053121 -0.092134
v -0.003433 0.050847 -0.088428
v -0.005017 0.053121 -0.084121
v 0.009161 0.060551 -0.090110
v 0.007460 0.063280 -0.085949
v 0.028244 0.069905 -0.088724
v 0.029554 0.066703 -0.092833
v 0.006433 0.063280 -0.093644
v 0.027216 0.069905 -0.096419
v -0.025825 -0.008393 -0.089336
v -0.022203 -0.008393 -0.085921
v -0.020382 0.008220 -0.086164
v -0.023978 0.008717 -0.089583
v -0.024798 -0.008393 -0.081641
v -0.022950 0.008717 -0.081888
v -0.018544 0.024152 -0.086410
v -0.021387 0.025241 -0.089929
v -0.020359 0.025241 -0.082234
v -0.012848 0.038652 -0.087171
v -0.015563 0.040316 -0.090706
v -0.014535 0.040316 -0.083012
v -0.003552 0.051005 -0.088412
v -0.006147 0.053219 -0.091964
v -0.005120 0.053219 -0.084269
v -0.009518 0.041367 -0.049424
v -0.015318 0.042963 -0.050258
v -0.007515 0.048395 -0.035347
v -0.001770 0.046384 -0.034624
v -0.007396 0.043087 -0.054631
v 0.000488 0.048448 -0.039566
v -0.026169 -0.008562 -0.088020
v -0.026745 -0.008387 -0.082963
v -0.026540 0.003188 -0.082442
v -0.025519 0.003329 -0.087794
v -0.031474 -0.008615 -0.085219
v -0.031756 0.003300 -0.084364
v -0.024660 0.014477 -0.078694
v -0.023155 0.015037 -0.084243
v -0.030312 0.014980 -0.080201
v -0.021150 0.024953 -0.071822
v -0.019219 0.025912 -0.077407
v -0.027073 0.025810 -0.072904
v -0.016044 0.034076 -0.061952
v -0.014032 0.035426 -0.067375
v -0.021874 0.035277 -0.062850
v -0.009471 0.041230 -0.049351
v -0.001732 0.046243 -0.034564
v -0.007587 0.048280 -0.035243
v -0.015382 0.042855 -0.050138
v -0.007252 0.042986 -0.054625
v 0.000622 0.048338 -0.039574
v -0.026025 -0.008565 -0.087940
v -0.025362 0.003313 -0.087722
v -0.026447 0.003163 -0.082276
v -0.026652 -0.008393 -0.082794
v -0.031776 0.003281 -0.084191
v -0.031482 -0.008620 -0.085051
v -0.022987 0.014996 -0.084185
v -0.024571 0.014416 -0.078540
v -0.030347 0.014934 -0.080028
v -0.019049 0.025848 -0.077366
v -0.021071 0.024860 -0.071691
v -0.027120 0.025739 -0.072739
v -0.013874 0.035342 -0.067350
v -0.015979 0.033958 -0.061849
v -0.021927 0.035184 -0.062706
vt 0.637000 0.748600
vt 0.637000 0.892600
vt 0.683200 0.892600
vt 0.683200 0.748600
vt 0.594800 0.748600
vt 0.594800 0.892600
vt 0.594800 0.028600
vt 0.594800 0.172600
vt 0.637000 0.172600
vt 0.637000 0.028600
vt 0.683200 0.172600
vt 0.683200 0.028600
vt 0.594800 0.316600
vt 0.637000 0.316600
vt 0.683200 0.316600
vt 0.594800 0.460600
vt 0.637000 0.460600
vt 0.683200 0.460600
vt 0.594800 0.604600
vt 0.637000 0.604600
vt 0.683200 0.604600
vt 0.637000 0.748600
vt 0.683200 0.748600
vt 0.683200 0.892600
vt 0.637000 0.892600
vt 0.594800 0.748600
vt 0.594800 0.892600
vt 0.594800 0.028600
vt 0.637000 0.028600
vt 0.637000 0.172600
vt 0.594800 0.172600
vt 0.683200 0.028600
vt 0.683200 0.172600
vt 0.637000 0.316600
vt 0.594800 0.316600
vt 0.683200 0.316600
vt 0.637000 0.460600
vt 0.594800 0.460600
vt 0.683200 0.460600
vt 0.637000 0.604600
vt 0.594800 0.604600
vt 0.683200 0.604600
vt 0.760700 0.739400
vt 0.760700 0.881600
vt 0.791700 0.881600
vt 0.791700 0.739400
vt 0.730000 0.739400
vt 0.730000 0.881600
vt 0.730000 0.028600
vt 0.730000 0.170800
vt 0.760700 0.170800
vt 0.760700 0.028600
vt 0.791700 0.170800
vt 0.791700 0.028600
vt 0.730000 0.312900
vt 0.760700 0.312900
vt 0.791700 0.312900
vt 0.730000 0.455100
vt 0.760700 0.455100
vt 0.791700 0.455100
vt 0.730000 0.597200
vt 0.760700 0.597200
vt 0.791700 0.597200
vt 0.760700 0.739400
vt 0.791700 0.739400
vt 0.791700 0.881600
vt 0.760700 0.881600
vt 0.730000 0.739400
vt 0.730000 0.881600
vt 0.730000 0.028600
vt 0.760700 0.028600
vt 0.760700 0.170800
vt 0.730000 0.170800
vt 0.791700 0.028600
vt 0.791700 0.170800
vt 0.760700 0.312900
vt 0.730000 0.312900
vt 0.791700 0.312900
vt 0.760700 0.455100
vt 0.730000 0.455100
vt 0.791700 0.455100
vt 0.760700 0.597200
vt 0.730000 0.597200
vt 0.791700 0.597200
vt 0.637000 0.748600
vt 0.637000 0.892600
vt 0.683200 0.892600
vt 0.683200 0.748600
vt 0.594800 0.748600
vt 0.594800 0.892600
vt 0.594800 0.028600
vt 0.594800 0.172600
vt 0.637000 0.172600
vt 0.637000 0.028600
vt 0.683200 0.172600
vt 0.683200 0.028600
vt 0.594800 0.316600
vt 0.637000 0.316600
vt 0.683200 0.316600
vt 0.594800 0.460600
vt 0.637000 0.460600
vt 0.683200 0.460600
vt 0.594800 0.604600
vt 0.637000 0.604600
vt 0.683200 0.604600
vt 0.637000 0.748600
vt 0.683200 0.748600
vt 0.683200 0.892600
vt 0.637000 0.892600
vt 0.594800 0.748600
vt 0.594800 0.892600
vt 0.594800 0.028600
vt 0.637000 0.028600
vt 0.637000 0.172600
vt 0.594800 0.172600
vt 0.683200 0.028600
vt 0.683200 0.172600
vt 0.637000 0.316600
vt 0.594800 0.316600
vt 0.683200 0.316600
vt 0.637000 0.460600
vt 0.594800 0.460600
vt 0.683200 0.460600
vt 0.637000 0.604600
vt 0.594800 0.604600
vt 0.683200 0.604600
vt 0.637000 0.748600
vt 0.683200 0.748600
vt 0.683200 0.892600
vt 0.637000 0.892600
vt 0.594800 0.748600
vt 0.594800 0.892600
vt 0.594800 0.028600
vt 0.637000 0.028600
vt 0.637000 0.172600
vt 0.594800 0.172600
vt 0.683200 0.028600
vt 0.683200 0.172600
vt 0.637000 0.316600
vt 0.594800 0.316600
vt 0.683200 0.316600
vt 0.637000 0.460600
vt 0.594800 0.460600
vt 0.683200 0.460600
vt 0.637000 0.604600
vt 0.594800 0.604600
vt 0.683200 0.604600
vt 0.637000 0.748600
vt 0.637000 0.892600
vt 0.683200 0.892600
vt 0.683200 0.748600
vt 0.594800 0.748600
vt 0.594800 0.892600
vt 0.594800 0.028600
vt 0.594800 0.172600
vt 0.637000 0.172600
vt 0.637000 0.028600
vt 0.683200 0.172600
vt 0.683200 0.028600
vt 0.594800 0.316600
vt 0.637000 0.316600
vt 0.683200 0.316600
vt 0.594800 0.460600
vt 0.637000 0.460600
vt 0.683200 0.460600
vt 0.594800 0.604600
vt 0.637000 0.604600
vt 0.683200 0.604600
vt 0.637000 0.748600
vt 0.637000 0.892600
vt 0.683200 0.892600
vt 0.683200 0.748600
vt 0.594800 0.748600
vt 0.594800 0.892600
vt 0.594800 0.028600
vt 0.594800 0.172600
vt 0.637000 0.172600
vt 0.637000 0.028600
vt 0.683200 0.172600
vt 0.683200 0.028600
vt 0.594800 0.316600
vt 0.637000 0.316600
vt 0.683200 0.316600
vt 0.594800 0.460600
vt 0.637000 0.460600
vt 0.683200 0.460600
vt 0.594800 0.604600
vt 0.637000 0.604600
vt 0.683200 0.604600
vt 0.637000 0.748600
vt 0.683200 0.748600
vt 0.683200 0.892600
vt 0.637000 0.892600
vt 0.594800 0.748600
vt 0.594800 0.892600
vt 0.594800 0.028600
vt 0.637000 0.028600
vt 0.637000 0.172600
vt 0.594800 0.172600
vt 0.683200 0.028600
vt 0.683200 0.172600
vt 0.637000 0.316600
vt 0.594800 0.316600
vt 0.683200 0.316600
vt 0.637000 0.460600
vt 0.594800 0.460600
vt 0.683200 0.460600
vt 0.637000 0.604600
vt 0.594800 0.604600
vt 0.683200 0.604600
vt 0.760700 0.739400
vt 0.760700 0.881600
vt 0.791700 0.881600
vt 0.791700 0.739400
vt 0.730000 0.739400
vt 0.730000 0.881600
vt 0.730000 0.028600
vt 0.730000 0.170800
vt 0.760700 0.170800
vt 0.760700 0.028600
vt 0.791700 0.170800
vt 0.791700 0.028600
vt 0.730000 0.312900
vt 0.760700 0.312900
vt 0.791700 0.312900
vt 0.730000 0.455100
vt 0.760700 0.455100
vt 0.791700 0.455100
vt 0.730000 0.597200
vt 0.760700 0.597200
vt 0.791700 0.597200
vt 0.760700 0.739400
vt 0.791700 0.739400
vt 0.791700 0.881600
vt 0.760700 0.881600
vt 0.730000 0.739400
vt 0.730000 0.881600
vt 0.730000 0.028600
vt 0.760700 0.028600
vt 0.760700 0.170800
vt 0.730000 0.170800
vt 0.791700 0.028600
vt 0.791700 0.170800
vt 0.760700 0.312900
vt 0.730000 0.312900
vt 0.791700 0.312900
vt 0.760700 0.455100
vt 0.730000 0.455100
vt 0.791700 0.455100
vt 0.760700 0.597200
vt 0.730000 0.597200
vt 0.791700 0.597200
vt 0.637000 0.748600
vt 0.637000 0.892600
vt 0.683200 0.892600
vt 0.683200 0.748600
vt 0.594800 0.748600
vt 0.594800 0.892600
vt 0.594800 0.028600
vt 0.594800 0.172600
vt 0.637000 0.172600
vt 0.637000 0.028600
vt 0.683200 0.172600
vt 0.683200 0.028600
vt 0.594800 0.316600
vt 0.637000 0.316600
vt 0.683200 0.316600
vt 0.594800 0.460600
vt 0.637000 0.460600
vt 0.683200 0.460600
vt 0.594800 0.604600
vt 0.637000 0.604600
vt 0.683200 0.604600
vt 0.637000 0.748600
vt 0.683200 0.748600
vt 0.683200 0.892600
vt 0.637000 0.892600
vt 0.594800 0.748600
vt 0.594800 0.892600
vt 0.594800 0.028600
vt 0.637000 0.028600
vt 0.637000 0.172600
vt 0.594800 0.172600
vt 0.683200 0.028600
vt 0.683200 0.172600
vt 0.637000 0.316600
vt 0.594800 0.316600
vt 0.683200 0.316600
vt 0.637000 0.460600
vt 0.594800 0.460600
vt 0.683200 0.460600
vt 0.637000 0.604600
vt 0.594800 0.604600
vt 0.683200 0.604600
vt 0.637000 0.748600
vt 0.683200 0.748600
vt 0.683200 0.892600
vt 0.637000 0.892600
vt 0.594800 0.748600
vt 0.594800 0.892600
vt 0.594800 0.028600
vt 0.637000 0.028600
vt 0.637000 0.172600
vt 0.594800 0.172600
vt 0.683200 0.028600
vt 0.683200 0.172600
vt 0.637000 0.316600
vt 0.594800 0.316600
vt 0.683200 0.316600
vt 0.637000 0.460600
vt 0.594800 0.460600
vt 0.683200 0.460600
vt 0.637000 0.604600
vt 0.594800 0.604600
vt 0.683200 0.604600
vt 0.637000 0.748600
vt 0.637000 0.892600
vt 0.683200 0.892600
vt 0.683200 0.748600
vt 0.594800 0.748600
vt 0.594800 0.892600
vt 0.594800 0.028600
vt 0.594800 0.172600
vt 0.637000 0.172600
vt 0.637000 0.028600
vt 0.683200 0.172600
vt 0.683200 0.028600
vt 0.594800 0.316600
vt 0.637000 0.316600
vt 0.683200 0.316600
vt 0.594800 0.460600
vt 0.637000 0.460600
vt 0.683200 0.460600
vt 0.594800 0.604600
vt 0.637000 0.604600
vt 0.683200 0.604600
vt 0.637000 0.748600
vt 0.637000 0.892600
vt 0.683200 0.892600
vt 0.683200 0.748600
vt 0.594800 0.748600
vt 0.594800 0.892600
vt 0.594800 0.028600
vt 0.594800 0.172600
vt 0.637000 0.172600
vt 0.637000 0.028600
vt 0.683200 0.172600
vt 0.683200 0.028600
vt 0.594800 0.316600
vt 0.637000 0.316600
vt 0.683200 0.316600
vt 0.594800 0.460600
vt 0.637000 0.460600
vt 0.683200 0.460600
vt 0.594800 0.604600
vt 0.637000 0.604600
vt 0.683200 0.604600
vt 0.637000 0.748600
vt 0.683200 0.748600
vt 0.683200 0.892600
vt 0.637000 0.892600
vt 0.594800 0.748600
vt 0.594800 0.892600
vt 0.594800 0.028600
vt 0.637000 0.028600
vt 0.637000 0.172600
vt 0.594800 0.172600
vt 0.683200 0.028600
vt 0.683200 0.172600
vt 0.637000 0.316600
vt 0.594800 0.316600
vt 0.683200 0.316600
vt 0.637000 0.460600
vt 0.594800 0.460600
vt 0.683200 0.460600
vt 0.637000 0.604600
vt 0.594800 0.604600
vt 0.683200 0.604600
vt 0.760700 0.739400
vt 0.760700 0.881600
vt 0.791700 0.881600
vt 0.791700 0.739400
vt 0.730000 0.739400
vt 0.730000 0.881600
vt 0.730000 0.028600
vt 0.730000 0.170800
vt 0.760700 0.170800
vt 0.760700 0.028600
vt 0.791700 0.170800
vt 0.791700 0.028600
vt 0.730000 0.312900
vt 0.760700 0.312900
vt 0.791700 0.312900
vt 0.730000 0.455100
vt 0.760700 0.455100
vt 0.791700 0.455100
vt 0.730000 0.597200
vt 0.760700 0.597200
vt 0.791700 0.597200
vt 0.760700 0.739400
vt 0.791700 0.739400
vt 0.791700 0.881600
vt 0.760700 0.881600
vt 0.730000 0.739400
vt 0.730000 0.881600
vt 0.730000 0.028600
vt 0.760700 0.028600
vt 0.760700 0.170800
vt 0.730000 0.170800
vt 0.791700 0.028600
vt 0.791700 0.170800
vt 0.760700 0.312900
vt 0.730000 0.312900
vt 0.791700 0.312900
vt 0.760700 0.455100
vt 0.730000 0.455100
vt 0.791700 0.455100
vt 0.760700 0.597200
vt 0.730000 0.597200
vt 0.791700 0.597200
vt 0.637000 0.748600
vt 0.683200 0.748600
vt 0.683200 0.892600
vt 0.637000 0.892600
vt 0.594800 0.748600
vt 0.594800 0.892600
vt 0.594800 0.028600
vt 0.637000 0.028600
vt 0.637000 0.172600
vt 0.594800 0.172600
vt 0.683200 0.028600
vt 0.683200 0.172600
vt 0.637000 0.316600
vt 0.594800 0.316600
vt 0.683200 0.316600
vt 0.637000 0.460600
vt 0.594800 0.460600
vt 0.683200 0.460600
vt 0.637000 0.604600
vt 0.594800 0.604600
vt 0.683200 0.604600
vt 0.637000 0.748600
vt 0.637000 0.892600
vt 0.683200 0.892600
vt 0.683200 0.748600
vt 0.594800 0.748600
vt 0.594800 0.892600
vt 0.594800 0.028600
vt 0.594800 0.172600
vt 0.637000 0.172600
vt 0.637000 0.028600
vt 0.683200 0.172600
vt 0.683200 0.028600
vt 0.594800 0.316600
vt 0.637000 0.316600
vt 0.683200 0.316600
vt 0.594800 0.460600
vt 0.637000 0.460600
vt 0.683200 0.460600
vt 0.594800 0.604600
vt 0.637000 0.604600
vt 0.683200 0.604600
vn 0.0996 -0.9942 0.0408
vn 0.1976 -0.9791 0.0476
vn 0.2582 -0.8584 -0.4434
vn 0.1093 -0.8900 -0.4426
vn -0.0564 -0.8513 0.5217
vn 0.0721 -0.8305 0.5523
vn -0.8225 -0.0008 0.5688
vn -0.8127 -0.0994 0.5741
vn -0.9782 -0.1652 -0.1260
vn -0.9911 -0.0131 -0.1327
vn -0.6347 -0.1234 -0.7629
vn -0.6380 -0.0183 -0.7698
vn -0.7396 -0.3622 0.5673
vn -0.8150 -0.5716 -0.0950
vn -0.5705 -0.4005 -0.7171
vn -0.5420 -0.6359 0.5494
vn -0.4731 -0.8801 -0.0394
vn -0.3715 -0.6951 -0.6155
vn -0.2947 -0.7994 0.5236
vn -0.1656 -0.9862 0.0079
vn -0.1278 -0.8529 -0.5062
vn -0.1006 0.9941 -0.0409
vn -0.1095 0.8867 0.4493
vn -0.2585 0.8548 0.4500
vn -0.1975 0.9792 -0.0475
vn 0.0586 0.8471 -0.5281
vn -0.0701 0.8264 -0.5587
vn 0.8177 0.0008 -0.5756
vn 0.9911 0.0131 0.1326
vn 0.9782 0.1654 0.1258
vn 0.8079 0.0985 -0.5810
vn 0.6318 0.0183 0.7749
vn 0.6285 0.1226 0.7681
vn 0.8146 0.5723 0.0949
vn 0.7358 0.3590 -0.5741
vn 0.5652 0.3977 0.7228
vn 0.4722 0.8806 0.0394
vn 0.5405 0.6311 -0.5564
vn 0.3682 0.6910 0.6221
vn 0.1646 0.9863 -0.0080
vn 0.2954 0.7945 -0.5305
vn 0.1263 0.8490 0.5131
vn 0.3381 -0.8964 -0.2866
vn 0.2228 -0.9558 -0.1917
vn 0.5942 -0.7166 0.3651
vn 0.6926 -0.6721 0.2620
vn -0.1580 -0.6561 -0.7380
vn -0.2680 -0.7014 -0.6605
vn 0.1906 -0.0812 -0.9783
vn 0.2007 -0.0888 -0.9756
vn 0.7520 -0.1184 -0.6484
vn 0.7560 -0.1064 -0.6459
vn 0.9939 -0.1045 -0.0341
vn 0.9957 -0.0859 -0.0344
vn 0.2583 -0.2219 -0.9402
vn 0.7338 -0.2420 -0.6348
vn 0.9719 -0.2118 -0.1029
vn 0.1667 -0.3993 -0.9016
vn 0.6679 -0.4798 -0.5689
vn 0.9147 -0.4029 -0.0307
vn 0.0237 -0.5501 -0.8347
vn 0.5442 -0.7011 -0.4607
vn 0.8251 -0.5574 0.0925
vn -0.3376 0.8968 0.2860
vn -0.6954 0.6660 -0.2699
vn -0.5978 0.7098 -0.3725
vn -0.2228 0.9558 0.1919
vn 0.1652 0.6498 0.7419
vn 0.2747 0.6945 0.6650
vn -0.1819 0.0821 0.9799
vn -0.7563 0.1078 0.6453
vn -0.7520 0.1192 0.6483
vn -0.1877 0.0875 0.9783
vn -0.9960 0.0855 0.0266
vn -0.9943 0.1045 0.0210
vn -0.7337 0.2420 0.6349
vn -0.2529 0.2214 0.9418
vn -0.9727 0.2106 0.0971
vn -0.6679 0.4799 0.5688
vn -0.1603 0.3973 0.9036
vn -0.9157 0.4011 0.0243
vn -0.5440 0.7016 0.4602
vn -0.0165 0.5466 0.8372
vn -0.8265 0.5539 -0.1002
vn -0.0166 -0.9889 -0.1477
vn -0.0690 -0.9616 -0.2655
vn -0.6238 -0.7809 -0.0312
vn -0.5482 -0.8260 0.1311
vn 0.5937 -0.7675 -0.2417
vn 0.5477 -0.7395 -0.3913
vn 0.8868 -0.0025 0.4621
vn 0.8891 -0.0785 0.4509
vn 0.3470 -0.1263 0.9293
vn 0.3435 -0.0145 0.9390
vn -0.3790 -0.0997 0.9200
vn -0.3827 -0.0187 0.9237
vn 0.8700 -0.2974 0.3932
vn 0.3210 -0.4590 0.8284
vn -0.3813 -0.3316 0.8629
vn 0.8088 -0.5418 0.2287
vn 0.2295 -0.8076 0.5433
vn -0.4194 -0.6049 0.6769
vn 0.7054 -0.7088 0.0041
vn 0.1103 -0.9754 0.1909
vn -0.4713 -0.7805 0.4107
vn 0.0171 0.9887 0.1489
vn 0.5546 0.8212 -0.1343
vn 0.6298 0.7762 0.0277
vn 0.0690 0.9617 0.2652
vn -0.6005 0.7619 0.2426
vn -0.5546 0.7341 0.3919
vn -0.8904 0.0164 -0.4548
vn -0.3437 0.0339 -0.9385
vn -0.3466 0.1363 -0.9281
vn -0.8925 0.0844 -0.4430
vn 0.3895 0.0330 -0.9204
vn 0.3864 0.1062 -0.9162
vn -0.3208 0.4595 -0.8282
vn -0.8739 0.2947 -0.3865
vn 0.3889 0.3293 -0.8604
vn -0.2290 0.8082 -0.5426
vn -0.8135 0.5369 -0.2234
vn 0.4270 0.6004 -0.6761
vn -0.1097 0.9757 -0.1899
vn -0.7112 0.7029 -0.0010
vn 0.4785 0.7754 -0.4121
vn -0.3235 0.9350 -0.1451
vn -0.0511 0.7888 -0.6126
vn 0.0355 0.8245 -0.5647
vn -0.2622 0.9568 -0.1260
vn -0.5762 0.7414 0.3440
vn -0.4955 0.7836 0.3749
vn -0.9057 0.0320 0.4227
vn -0.8847 0.0758 -0.4600
vn -0.8675 0.2360 -0.4379
vn -0.9201 0.1382 0.3665
vn -0.1287 0.0782 -0.9886
vn -0.1983 0.1597 -0.9670
vn -0.7735 0.5083 -0.3786
vn -0.8895 0.3332 0.3126
vn -0.2446 0.3651 -0.8983
vn -0.6352 0.7097 -0.3046
vn -0.8094 0.5124 0.2870
vn -0.2374 0.5535 -0.7983
vn -0.4819 0.8476 -0.2219
vn -0.7023 0.6397 0.3123
vn -0.1605 0.6955 -0.7004
vn 0.3238 -0.9349 0.1455
vn 0.2621 -0.9568 0.1259
vn -0.0319 -0.8277 0.5602
vn 0.0549 -0.7920 0.6081
vn 0.5744 -0.7454 -0.3383
vn 0.4936 -0.7874 -0.3693
vn 0.9092 -0.0327 -0.4152
vn 0.9228 -0.1402 -0.3589
vn 0.8677 -0.2359 0.4376
vn 0.8847 -0.0758 0.4599
vn 0.2059 -0.1615 0.9652
vn 0.1364 -0.0793 0.9875
vn 0.8908 -0.3366 -0.3053
vn 0.7737 -0.5080 0.3786
vn 0.2512 -0.3680 0.8952
vn 0.8093 -0.5163 -0.2802
vn 0.6355 -0.7094 0.3048
vn 0.2429 -0.5566 0.7945
vn 0.7015 -0.6437 -0.3060
vn 0.4822 -0.8474 0.2223
vn 0.1649 -0.6986 0.6963
vn 0.0427 -0.9940 -0.1012
vn 0.0481 -0.9788 -0.1993
vn -0.4440 -0.8596 -0.2531
vn -0.4410 -0.8914 -0.1042
vn 0.5251 -0.8496 0.0485
vn 0.5540 -0.8286 -0.0804
vn 0.5799 0.0002 0.8147
vn 0.5854 -0.0983 0.8048
vn -0.1122 -0.1666 0.9796
vn -0.1193 -0.0145 0.9928
vn -0.7539 -0.1266 0.6447
vn -0.7610 -0.0215 0.6483
vn 0.5785 -0.3610 0.7315
vn -0.0820 -0.5727 0.8156
vn -0.7080 -0.4034 0.5797
vn 0.5586 -0.6348 0.5339
vn -0.0301 -0.8807 0.4727
vn -0.6080 -0.6976 0.3791
vn 0.5301 -0.7980 0.2868
vn 0.0134 -0.9863 0.1645
vn -0.5016 -0.8547 0.1337
vn -0.0428 0.9938 0.1022
vn 0.4477 0.8880 0.1044
vn 0.4505 0.8561 0.2533
vn -0.0482 0.9788 0.1991
vn -0.5317 0.8454 -0.0506
vn -0.5605 0.8245 0.0785
vn -0.5865 -0.0004 -0.8099
vn 0.1192 0.0146 -0.9928
vn 0.1121 0.1667 -0.9796
vn -0.5921 0.0973 -0.8000
vn 0.7663 0.0215 -0.6422
vn 0.7592 0.1258 -0.6386
vn 0.0819 0.5734 -0.8152
vn -0.5852 0.3578 -0.7277
vn 0.7137 0.4007 -0.5745
vn 0.0301 0.8812 -0.4717
vn -0.5657 0.6298 -0.5323
vn 0.6147 0.6935 -0.3758
vn -0.0135 0.9865 -0.1635
vn -0.5371 0.7931 -0.2874
vn 0.5085 0.8508 -0.1323
vn -0.2883 -0.8970 -0.3351
vn -0.1916 -0.9562 -0.2211
vn 0.3594 -0.7149 -0.5998
vn 0.2548 -0.6705 -0.6967
vn -0.7337 -0.6586 0.1674
vn -0.6545 -0.7038 0.2762
vn -0.9805 -0.0843 -0.1775
vn -0.9779 -0.0918 -0.1876
vn -0.6581 -0.1198 -0.7434
vn -0.6556 -0.1078 -0.7474
vn -0.0470 -0.1036 -0.9935
vn -0.0472 -0.0850 -0.9953
vn -0.9428 -0.2249 -0.2459
vn -0.6438 -0.2434 -0.7255
vn -0.1153 -0.2112 -0.9706
vn -0.9024 -0.4021 -0.1548
vn -0.5764 -0.4810 -0.6606
vn -0.0419 -0.4022 -0.9146
vn -0.8331 -0.5529 -0.0131
vn -0.4656 -0.7022 -0.5387
vn 0.0833 -0.5563 -0.8268
vn 0.2876 0.8974 0.3345
vn -0.2627 0.6645 0.6996
vn -0.3668 0.7080 0.6035
vn 0.1916 0.9562 0.2212
vn 0.7375 0.6524 -0.1745
vn 0.6589 0.6970 -0.2828
vn 0.9819 0.0853 0.1689
vn 0.6551 0.1092 0.7476
vn 0.6579 0.1206 0.7434
vn 0.9805 0.0906 0.1746
vn 0.0398 0.0845 0.9956
vn 0.0340 0.1036 0.9940
vn 0.6441 0.2434 0.7252
vn 0.9445 0.2243 0.2402
vn 0.1096 0.2099 0.9715
vn 0.5762 0.4812 0.6607
vn 0.9043 0.4002 0.1484
vn 0.0353 0.4003 0.9157
vn 0.4653 0.7026 0.5384
vn 0.8356 0.5493 0.0056
vn -0.0909 0.5528 0.8284
vn -0.1362 -0.9894 0.0504
vn -0.2377 -0.9626 0.1299
vn 0.1243 -0.7817 0.6112
vn 0.2634 -0.8260 0.4983
vn -0.3770 -0.7676 -0.5183
vn -0.5109 -0.7403 -0.4371
vn 0.2318 -0.0000 -0.9728
vn 0.2207 -0.0761 -0.9724
vn 0.8170 -0.1229 -0.5634
vn 0.8269 -0.0109 -0.5623
vn 0.9850 -0.0970 0.1430
vn 0.9892 -0.0160 0.1456
vn 0.1700 -0.2952 -0.9402
vn 0.7264 -0.4559 -0.5142
vn 0.9309 -0.3291 0.1586
vn 0.0262 -0.5403 -0.8410
vn 0.4733 -0.8055 -0.3564
vn 0.7606 -0.6030 0.2405
vn -0.1660 -0.7081 -0.6863
vn 0.1612 -0.9746 -0.1553
vn 0.5157 -0.7796 0.3554
vn 0.1371 0.9892 -0.0512
vn -0.2681 0.8212 -0.5037
vn -0.1292 0.7769 -0.6162
vn 0.2374 0.9627 -0.1301
vn 0.3795 0.7622 0.5244
vn 0.5130 0.7350 0.4433
vn -0.2237 0.0139 0.9746
vn -0.8264 0.0304 0.5623
vn -0.8158 0.1328 0.5628
vn -0.2120 0.0820 0.9738
vn -0.9877 0.0303 -0.1532
vn -0.9831 0.1035 -0.1511
vn -0.7262 0.4564 0.5141
vn -0.1626 0.2926 0.9423
vn -0.9303 0.3268 -0.1664
vn -0.4727 0.8062 0.3559
vn -0.0198 0.5354 0.8444
vn -0.7617 0.5986 -0.2481
vn -0.1603 0.9749 0.1544
vn 0.1705 0.7022 0.6912
vn -0.5188 0.7745 -0.3621
vn -0.1439 0.9342 0.3264
vn -0.6145 0.7866 0.0602
vn -0.5679 0.8226 -0.0271
vn -0.1256 0.9561 0.2648
vn 0.3493 0.7419 0.5723
vn 0.3790 0.7842 0.4913
vn 0.4347 0.0325 0.9000
vn -0.4483 0.0734 0.8909
vn -0.4269 0.2336 0.8736
vn 0.3784 0.1385 0.9152
vn -0.9870 0.0748 0.1420
vn -0.9648 0.1562 0.2116
vn -0.3699 0.5062 0.7791
vn 0.3234 0.3333 0.8856
vn -0.8961 0.3618 0.2571
vn -0.2985 0.7081 0.6400
vn 0.2960 0.5127 0.8060
vn -0.7969 0.5506 0.2488
vn -0.2183 0.8464 0.4857
vn 0.3196 0.6400 0.6988
vn -0.7006 0.6929 0.1705
vn 0.1443 -0.9341 -0.3266
vn 0.1256 -0.9561 -0.2647
vn 0.5635 -0.8258 0.0236
vn 0.6101 -0.7898 -0.0638
vn -0.3435 -0.7460 -0.5706
vn -0.3732 -0.7882 -0.4894
vn -0.4272 -0.0332 -0.9036
vn -0.3708 -0.1405 -0.9180
vn 0.4268 -0.2335 -0.8737
vn 0.4482 -0.0733 -0.8909
vn 0.9629 -0.1580 -0.2189
vn 0.9858 -0.0758 -0.1497
vn -0.3162 -0.3367 -0.8869
vn 0.3698 -0.5059 -0.7793
vn 0.8930 -0.3647 -0.2636
vn -0.2894 -0.5164 -0.8060
vn 0.2985 -0.7078 -0.6403
vn 0.7930 -0.5537 -0.2542
vn -0.3134 -0.6439 -0.6980
vn 0.2186 -0.8461 -0.4861
vn 0.6963 -0.6961 -0.1750
vn 0.0608 -0.9940 0.0914
vn 0.1395 -0.9788 0.1502
vn 0.4561 -0.8596 -0.2304
vn 0.3304 -0.8914 -0.3102
vn -0.3304 -0.8497 0.4110
vn -0.2389 -0.8286 0.5063
vn -0.9994 0.0003 0.0336
vn -0.9942 -0.0983 0.0437
vn -0.7548 -0.1666 -0.6344
vn -0.7619 -0.0145 -0.6476
vn -0.1214 -0.1266 -0.9845
vn -0.1204 -0.0215 -0.9925
vn -0.9293 -0.3610 0.0785
vn -0.6347 -0.5727 -0.5187
vn -0.0924 -0.4034 -0.9103
vn -0.7536 -0.6347 0.1710
vn -0.3775 -0.8807 -0.2861
vn 0.0197 -0.6976 -0.7163
vn -0.5318 -0.7980 0.2837
vn -0.1446 -0.9863 -0.0796
vn 0.1655 -0.8547 -0.4920
vn -0.0615 0.9938 -0.0921
vn -0.3342 0.8880 0.3157
vn -0.4599 0.8561 0.2358
vn -0.1394 0.9788 -0.1501
vn 0.3358 0.8454 -0.4154
vn 0.2440 0.8245 -0.5106
vn 0.9991 -0.0004 -0.0419
vn 0.7620 0.0146 0.6475
vn 0.7549 0.1668 0.6343
vn 0.9939 0.0974 -0.0520
vn 0.1123 0.0215 0.9934
vn 0.1133 0.1258 0.9856
vn 0.6344 0.5734 0.5184
vn 0.9298 0.3578 -0.0862
vn 0.0850 0.4007 0.9122
vn 0.3767 0.8812 0.2855
vn 0.7562 0.6298 -0.1777
vn -0.0261 0.6934 0.7200
vn 0.1438 0.9865 0.0789
vn 0.5362 0.7930 -0.2892
vn -0.1704 0.8508 0.4970
vn 0.4385 -0.8970 -0.0552
vn 0.2902 -0.9562 -0.0376
vn 0.3017 -0.7148 0.6310
vn 0.4402 -0.6705 0.5972
vn 0.2656 -0.6587 -0.7040
vn 0.1311 -0.7038 -0.6982
vn 0.6893 -0.0843 -0.7195
vn 0.6964 -0.0919 -0.7118
vn 0.9831 -0.1199 -0.1383
vn 0.9851 -0.1078 -0.1340
vn 0.8544 -0.1036 0.5092
vn 0.8560 -0.0850 0.5100
vn 0.7255 -0.2248 -0.6504
vn 0.9603 -0.2434 -0.1363
vn 0.8729 -0.2112 0.4398
vn 0.6274 -0.4021 -0.6668
vn 0.8691 -0.4810 -0.1157
vn 0.7856 -0.4021 0.4703
vn 0.4710 -0.5531 -0.6872
vn 0.7062 -0.7022 -0.0906
vn 0.6433 -0.5562 0.5260
vn -0.4377 0.8974 0.0551
vn -0.4383 0.6645 -0.6053
vn -0.3007 0.7081 -0.6389
vn -0.2903 0.9562 0.0377
vn -0.2616 0.6524 0.7112
vn -0.1279 0.6969 0.7057
vn -0.6829 0.0852 0.7255
vn -0.9850 0.1093 0.1334
vn -0.9830 0.1206 0.1381
vn -0.6869 0.0906 0.7211
vn -0.8520 0.0846 -0.5166
vn -0.8475 0.1036 -0.5206
vn -0.9603 0.2434 0.1366
vn -0.7219 0.2243 0.6547
vn -0.8706 0.2099 -0.4450
vn -0.8690 0.4812 0.1157
vn -0.6230 0.4002 0.6721
vn -0.7830 0.4003 -0.4761
vn -0.7058 0.7026 0.0905
vn -0.4661 0.5493 0.6936
vn -0.6404 0.5527 -0.5333
vn -0.1926 0.9342 -0.3002
vn 0.2890 0.7866 -0.5456
vn 0.3362 0.8226 -0.4585
vn -0.1514 0.9561 -0.2509
vn -0.6699 0.7420 -0.0248
vn -0.6188 0.7842 0.0448
vn -0.9904 0.0325 -0.1343
vn -0.4953 0.0734 -0.8656
vn -0.4927 0.2337 -0.8382
vn -0.9720 0.1385 -0.1897
vn 0.4264 0.0748 -0.9014
vn 0.3563 0.1563 -0.9212
vn -0.4454 0.5062 -0.7385
vn -0.9170 0.3333 -0.2192
vn 0.2804 0.3618 -0.8891
vn -0.3688 0.7081 -0.6021
vn -0.8354 0.5127 -0.1981
vn 0.2326 0.5506 -0.8017
vn -0.2845 0.8464 -0.4502
vn -0.7590 0.6400 -0.1193
vn 0.2446 0.6929 -0.6783
vn 0.1927 -0.9341 0.3006
vn 0.1514 -0.9561 0.2509
vn -0.3307 -0.8258 0.4568
vn -0.2836 -0.7898 0.5439
vn 0.6655 -0.7459 0.0285
vn 0.6141 -0.7881 -0.0410
vn 0.9892 -0.0332 0.1425
vn 0.9702 -0.1405 0.1976
vn 0.4928 -0.2336 0.8382
vn 0.4955 -0.0733 0.8655
vn -0.3491 -0.1580 0.9237
vn -0.4192 -0.0757 0.9047
vn 0.9140 -0.3367 0.2261
vn 0.4455 -0.5060 0.7386
vn -0.2733 -0.3647 0.8901
vn 0.8318 -0.5164 0.2037
vn 0.3690 -0.7077 0.6024
vn -0.2260 -0.5537 0.8015
vn 0.7550 -0.6439 0.1240
vn 0.2847 -0.8461 0.4506
vn -0.2384 -0.6961 0.6772
s 1
f 1/1/1 2/2/2 3/3/3
f 3/3/3 4/4/4 1/1/1
f 5/5/5 6/6/6 2/2/2
f 2/2/2 1/1/1 5/5/5
f 7/7/7 8/8/8 9/9/9
f 9/9/9 10/10/10 7/7/7
f 10/10/10 9/9/9 11/11/11
f 11/11/11 12/12/12 10/10/10
f 8/8/8 13/13/13 14/14/14
f 14/14/14 9/9/9 8/8/8
f 9/9/9 14/14/14 15/15/15
f 15/15/15 11/11/11 9/9/9
f 13/13/13 16/16/16 17/17/17
f 17/17/17 14/14/14 13/13/13
f 14/14/14 17/17/17 18/18/18
f 18/18/18 15/15/15 14/14/14
f 16/16/16 19/19/19 20/20/20
f 20/20/20 17/17/17 16/16/16
f 17/17/17 20/20/20 21/21/21
f 21/21/21 18/18/18 17/17/17
f 19/19/19 5/5/5 1/1/1
f 1/1/1 20/20/20 19/19/19
f 20/20/20 1/1/1 4/4/4
f 4/4/4 21/21/21 20/20/20
s 2
f 22/22/22 23/23/23 24/24/24
f 24/24/24 25/25/25 22/22/22
f 26/26/26 22/22/22 25/25/25
f 25/25/25 27/27/27 26/26/26
f 28/28/28 29/29/29 30/30/30
f 30/30/30 31/31/31 28/28/28
f 29/29/29 32/32/32 33/33/33
f 33/33/33 30/30/30 29/29/29
f 31/31/31 30/30/30 34/34/34
f 34/34/34 35/35/35 31/31/31
f 30/30/30 33/33/33 36/36/36
f 36/36/36 34/34/34 30/30/30
f 35/35/35 34/34/34 37/37/37
f 37/37/37 38/38/38 35/35/35
f 34/34/34 36/36/36 39/39/39
f 39/39/39 37/37/37 34/34/34
f 38/38/38 37/37/37 40/40/40
f 40/40/40 41/41/41 38/38/38
f 37/37/37 39/39/39 42/42/42
f 42/42/42 40/40/40 37/37/37
f 41/41/41 40/40/40 22/22/22
f 22/22/22 26/26/26 41/41/41
f 40/40/40 42/42/42 23/23/23
f 23/23/23 22/22/22 40/40/40
s 3
f 43/43/43 44/44/44 45/45/45
f 45/45/45 46/46/46 43/43/43
f 47/47/47 48/48/48 44/44/44
f 44/44/44 43/43/43 47/47/47
f 49/49/49 50/50/50 51/51/51
f 51/51/51 52/52/52 49/49/49
f 52/52/52 51/51/51 53/53/53
f 53/53/53 54/54/54 52/52/52
f 50/50/50 55/55/55 56/56/56
f 56/56/56 51/51/51 50/50/50
f 51/51/51 56/56/56 57/57/57
f 57/57/57 53/53/53 51/51/51
f 55/55/55 58/58/58 59/59/59
f 59/59/59 56/56/56 55/55/55
f 56/56/56 59/59/59 60/60/60
f 60/60/60 57/57/57 56/56/56
f 58/58/58 61/61/61 62/62/62
f 62/62/62 59/59/59 58/58/58
f 59/59/59 62/62/62 63/63/63
f 63/63/63 60/60/60 59/59/59
f 61/61/61 47/47/47 43/43/43
f 43/43/43 62/62/62 61/61/61
f 62/62/62 43/43/43 46/46/46
f 46/46/46 63/63/63 62/62/62
s 4
f 64/64/64 65/65/65 66/66/66
f 66/66/66 67/67/67 64/64/64
f 68/68/68 64/64/64 67/67/67
f 67/67/67 69/69/69 68/68/68
f 70/70/70 71/71/71 72/72/72
f 72/72/72 73/73/73 70/70/70
f 71/71/71 74/74/74 75/75/75
f 75/75/75 72/72/72 71/71/71
f 73/73/73 72/72/72 76/76/76
f 76/76/76 77/77/77 73/73/73
f 72/72/72 75/75/75 78/78/78
f 78/78/78 76/76/76 72/72/72
f 77/77/77 76/76/76 79/79/79
f 79/79/79 80/80/80 77/77/77
f 76/76/76 78/78/78 81/81/81
f 81/81/81 79/79/79 76/76/76
f 80/80/80 79/79/79 82/82/82
f 82/82/82 83/83/83 80/80/80
f 79/79/79 81/81/81 84/84/84
f 84/84/84 82/82/82 79/79/79
f 83/83/83 82/82/82 64/64/64
f 64/64/64 68/68/68 83/83/83
f 82/82/82 84/84/84 65/65/65
f 65/65/65 64/64/64 82/82/82
s 5
f 85/85/85 86/86/86 87/87/87
f 87/87/87 88/88/88 85/85/85
f 89/89/89 90/90/90 86/86/86
f 86/86/86 85/85/85 89/89/89
f 91/91/91 92/92/92 93/93/93
f 93/93/93 94/94/94 91/91/91
f 94/94/94 93/93/93 95/95/95
f 95/95/95 96/96/96 94/94/94
f 92/92/92 97/97/97 98/98/98
f 98/98/98 93/93/93 92/92/92
f 93/93/93 98/98/98 99/99/99
f 99/99/99 95/95/95 93/93/93
f 97/97/97 100/100/100 101/101/101
f 101/101/101 98/98/98 97/97/97
f 98/98/98 101/101/101 102/102/102
f 102/102/102 99/99/99 98/98/98
f 100/100/100 103/103/103 104/104/104
f 104/104/104 101/101/101 100/100/100
f 101/101/101 104/104/104 105/105/105
f 105/105/105 102/102/102 101/101/101
f 103/103/103 89/89/89 85/85/85
f 85/85/85 104/104/104 103/103/103
f 104/104/104 85/85/85 88/88/88
f 88/88/88 105/105/105 104/104/104
s 6
f 106/106/106 107/107/107 108/108/108
f 108/108/108 109/109/109 106/106/106
f 110/110/110 106/106/106 109/109/109
f 109/109/109 111/111/111 110/110/110
f 112/112/112 113/113/113 114/114/114
f 114/114/114 115/115/115 112/112/112
f 113/113/113 116/116/116 117/117/117
f 117/117/117 114/114/114 113/113/113
f 115/115/115 114/114/114 118/118/118
f 118/118/118 119/119/119 115/115/115
f 114/114/114 117/117/117 120/120/120
f 120/120/120 118/118/118 114/114/114
f 119/119/119 118/118/118 121/121/121
f 121/121/121 122/122/122 119/119/119
f 118/118/118 120/120/120 123/123/123
f 123/123/123 121/121/121 118/118/118
f 122/122/122 121/121/121 124/124/124
f 124/124/124 125/125/125 122/122/122
f 121/121/121 123/123/123 126/126/126
f 126/126/126 124/124/124 121/121/121
f 125/125/125 124/124/124 106/106/106
f 106/106/106 110/110/110 125/125/125
f 124/124/124 126/126/126 107/107/107
f 107/107/107 106/106/106 124/124/124
s 7
f 127/127/127 128/128/128 129/129/129
f 129/129/129 130/130/130 127/127/127
f 131/131/131 127/127/127 130/130/130
f 130/130/130 132/132/132 131/131/131
f 133/133/133 134/134/134 135/135/135
f 135/135/135 136/136/136 133/133/133
f 134/134/134 137/137/137 138/138/138
f 138/138/138 135/135/135 134/134/134
f 136/136/136 135/135/135 139/139/139
f 139/139/139 140/140/140 136/136/136
f 135/135/135 138/138/138 141/141/141
f 141/141/141 139/139/139 135/135/135
f 140/140/140 139/139/139 142/142/142
f 142/142/142 143/143/143 140/140/140
f 139/139/139 141/141/141 144/144/144
f 144/144/144 142/142/142 139/139/139
f 143/143/143 142/142/142 145/145/145
f 145/145/145 146/146/146 143/143/143
f 142/142/142 144/144/144 147/147/147
f 147/147/147 145/145/145 142/142/142
f 146/146/146 145/145/145 127/127/127
f 127/127/127 131/131/131 146/146/146
f 145/145/145 147/147/147 128/128/128
f 128/128/128 127/127/127 145/145/145
s 8
f 148/148/148 149/149/149 150/150/150
f 150/150/150 151/151/151 148/148/148
f 152/152/152 153/153/153 149/149/149
f 149/149/149 148/148/148 152/152/152
f 154/154/154 155/155/155 156/156/156
f 156/156/156 157/157/157 154/154/154
f 157/157/157 156/156/156 158/158/158
f 158/158/158 159/159/159 157/157/157
f 155/155/155 160/160/160 161/161/161
f 161/161/161 156/156/156 155/155/155
f 156/156/156 161/161/161 162/162/162
f 162/162/162 158/158/158 156/156/156
f 160/160/160 163/163/163 164/164/164
f 164/164/164 161/161/161 160/160/160
f 161/161/161 164/164/164 165/165/165
f 165/165/165 162/162/162 161/161/161
f 163/163/163 166/166/166 167/167/167
f 167/167/167 164/164/164 163/163/163
f 164/164/164 167/167/167 168/168/168
f 168/168/168 165/165/165 164/164/164
f 166/166/166 152/152/152 148/148/148
f 148/148/148 167/167/167 166/166/166
f 167/167/167 148/148/148 151/151/151
f 151/151/151 168/168/168 167/167/167
s 9
f 169/169/169 170/170/170 171/171/171
f 171/171/171 172/172/172 169/169/169
f 173/173/173 174/174/174 170/170/170
f 170/170/170 169/169/169 173/173/173
f 175/175/175 176/176/176 177/177/177
f 177/177/177 178/178/178 175/175/175
f 178/178/178 177/177/177 179/179/179
f 179/179/179 180/180/180 178/178/178
f 176/176/176 181/181/181 182/182/182
f 182/182/182 177/177/177 176/176/176
f 177/177/177 182/182/182 183/183/183
f 183/183/183 179/179/179 177/177/177
f 181/181/181 184/184/184 185/185/185
f 185/185/185 182/182/182 181/181/181
f 182/182/182 185/185/185 186/186/186
f 186/186/186 183/183/183 182/182/182
f 184/184/184 187/187/187 188/188/188
f 188/188/188 185/185/185 184/184/184
f 185/185/185 188/188/188 189/189/189
f 189/189/189 186/186/186 185/185/185
f 187/187/187 173/173/173 169/169/169
f 169/169/169 188/188/188 187/187/187
f 188/188/188 169/169/169 172/172/172
f 172/172/172 189/189/189 188/188/188
s 10
f 190/190/190 191/191/191 192/192/192
f 192/192/192 193/193/193 190/190/190
f 194/194/194 190/190/190 193/193/193
f 193/193/193 195/195/195 194/194/194
f 196/196/196 197/197/197 198/198/198
f 198/198/198 199/199/199 196/196/196
f 197/197/197 200/200/200 201/201/201
f 201/201/201 198/198/198 197/197/197
f 199/199/199 198/198/198 202/202/202
f 202/202/202 203/203/203 199/199/199
f 198/198/198 201/201/201 204/204/204
f 204/204/204 202/202/202 198/198/198
f 203/203/203 202/202/202 205/205/205
f 205/205/205 206/206/206 203/203/203
f 202/202/202 204/204/204 207/207/207
f 207/207/207 205/205/205 202/202/202
f 206/206/206 205/205/205 208/208/208
f 208/208/208 209/209/209 206/206/206
f 205/205/205 207/207/207 210/210/210
f 210/210/210 208/208/208 205/205/205
f 209/209/209 208/208/208 190/190/190
f 190/190/190 194/194/194 209/209/209
f 208/208/208 210/210/210 191/191/191
f 191/191/191 190/190/190 208/208/208
s 11
f 211/211/211 212/212/212 213/213/213
f 213/213/213 214/214/214 211/211/211
f 215/215/215 216/216/216 212/212/212
f 212/212/212 211/211/211 215/215/215
f 217/217/217 218/218/218 219/219/219
f 219/219/219 220/220/220 217/217/217
f 220/220/220 219/219/219 221/221/221
f 221/221/221 222/222/222 220/220/220
f 218/218/218 223/223/223 224/224/224
f 224/224/224 219/219/219 218/218/218
f 219/219/219 224/224/224 225/225/225
f 225/225/225 221/221/221 219/219/219
f 223/223/223 226/226/226 227/227/227
f 227/227/227 224/224/224 223/223/223
f 224/224/224 227/227/227 228/228/228
f 228/228/228 225/225/225 224/224/224
f 226/226/226 229/229/229 230/230/230
f 230/230/230 227/227/227 226/226/226
f 227/227/227 230/230/230 231/231/231
f 231/231/231 228/228/228 227/227/227
f 229/229/229 215/215/215 211/211/211
f 211/211/211 230/230/230 229/229/229
f 230/230/230 211/211/211 214/214/214
f 214/214/214 231/231/231 230/230/230
s 12
f 232/232/232 233/233/233 234/234/234
f 234/234/234 235/235/235 232/232/232
f 236/236/236 232/232/232 235/235/235
f 235/235/235 237/237/237 236/236/236
f 238/238/238 239/239/239 240/240/240
f 240/240/240 241/241/241 238/238/238
f 239/239/239 242/242/242 243/243/243
f 243/243/243 240/240/240 239/239/239
f 241/241/241 240/240/240 244/244/244
f 244/244/244 245/245/245 241/241/241
f 240/240/240 243/243/243 246/246/246
f 246/246/246 244/244/244 240/240/240
f 245/245/245 244/244/244 247/247/247
f 247/247/247 248/248/248 245/245/245
f 244/244/244 246/246/246 249/249/249
f 249/249/249 247/247/247 244/244/244
f 248/248/248 247/247/247 250/250/250
f 250/250/250 251/251/251 248/248/248
f 247/247/247 249/249/249 252/252/252
f 252/252/252 250/250/250 247/247/247
f 251/251/251 250/250/250 232/232/232
f 232/232/232 236/236/236 251/251/251
f 250/250/250 252/252/252 233/233/233
f 233/233/233 232/232/232 250/250/250
s 13
f 253/253/253 254/254/254 255/255/255
f 255/255/255 256/256/256 253/253/253
f 257/257/257 258/258/258 254/254/254
f 254/254/254 253/253/253 257/257/257
f 259/259/259 260/260/260 261/261/261
f 261/261/261 262/262/262 259/259/259
f 262/262/262 261/261/261 263/263/263
f 263/263/263 264/264/264 262/262/262
f 260/260/260 265/265/265 266/266/266
f 266/266/266 261/261/261 260/260/260
f 261/261/261 266/266/266 267/267/267
f 267/267/267 263/263/263 261/261/261
f 265/265/265 268/268/268 269/269/269
f 269/269/269 266/266/266 265/265/265
f 266/266/266 269/269/269 270/270/270
f 270/270/270 267/267/267 266/266/266
f 268/268/268 271/271/271 272/272/272
f 272/272/272 269/269/269 268/268/268
f 269/269/269 272/272/272 273/273/273
f 273/273/273 270/270/270 269/269/269
f 271/271/271 257/257/257 253/253/253
f 253/253/253 272/272/272 271/271/271
f 272/272/272 253/253/253 256/256/256
f 256/256/256 273/273/273 272/272/272
s 14
f 274/274/274 275/275/275 276/276/276
f 276/276/276 277/277/277 274/274/274
f 278/278/278 274/274/274 277/277/277
f 277/277/277 279/279/279 278/278/278
f 280/280/280 281/281/281 282/282/282
f 282/282/282 283/283/283 280/280/280
f 281/281/281 284/284/284 285/285/285
f 285/285/285 282/282/282 281/281/281
f 283/283/283 282/282/282 286/286/286
f 286/286/286 287/287/287 283/283/283
f 282/282/282 285/285/285 288/288/288
f 288/288/288 286/286/286 282/282/282
f 287/287/287 286/286/286 289/289/289
f 289/289/289 290/290/290 287/287/287
f 286/286/286 288/288/288 291/291/291
f 291/291/291 289/289/289 286/286/286
f 290/290/290 289/289/289 292/292/292
f 292/292/292 293/293/293 290/290/290
f 289/289/289 291/291/291 294/294/294
f 294/294/294 292/292/292 289/289/289
f 293/293/293 292/292/292 274/274/274
f 274/274/274 278/278/278 293/293/293
f 292/292/292 294/294/294 275/275/275
f 275/275/275 274/274/274 292/292/292
s 15
f 295/295/295 296/296/296 297/297/297
f 297/297/297 298/298/298 295/295/295
f 299/299/299 295/295/295 298/298/298
f 298/298/298 300/300/300 299/299/299
f 301/301/301 302/302/302 303/303/303
f 303/303/303 304/304/304 301/301/301
f 302/302/302 305/305/305 306/306/306
f 306/306/306 303/303/303 302/302/302
f 304/304/304 303/303/303 307/307/307
f 307/307/307 308/308/308 304/304/304
f 303/303/303 306/306/306 309/309/309
f 309/309/309 307/307/307 303/303/303
f 308/308/308 307/307/307 310/310/310
f 310/310/310 311/311/311 308/308/308
f 307/307/307 309/309/309 312/312/312
f 312/312/312 310/310/310 307/307/307
f 311/311/311 310/310/310 313/313/313
f 313/313/313 314/314/314 311/311/311
f 310/310/310 312/312/312 315/315/315
f 315/315/315 313/313/313 310/310/310
f 314/314/314 313/313/313 295/295/295
f 295/295/295 299/299/299 314/314/314
f 313/313/313 315/315/315 296/296/296
f 296/296/296 295/295/295 313/313/313
s 16
f 316/316/316 317/317/317 318/318/318
f 318/318/318 319/319/319 316/316/316
f 320/320/320 321/321/321 317/317/317
f 317/317/317 316/316/316 320/320/320
f 322/322/322 323/323/323 324/324/324
f 324/324/324 325/325/325 322/322/322
f 325/325/325 324/324/324 326/326/326
f 326/326/326 327/327/327 325/325/325
f 323/323/323 328/328/328 329/329/329
f 329/329/329 324/324/324 323/323/323
f 324/324/324 329/329/329 330/330/330
f 330/330/330 326/326/326 324/324/324
f 328/328/328 331/331/331 332/332/332
f 332/332/332 329/329/329 328/328/328
f 329/329/329 332/332/332 333/333/333
f 333/333/333 330/330/330 329/329/329
f 331/331/331 334/334/334 335/335/335
f 335/335/335 332/332/332 331/331/331
f 332/332/332 335/335/335 336/336/336
f 336/336/336 333/333/333 332/332/332
f 334/334/334 320/320/320 316/316/316
f 316/316/316 335/335/335 334/334/334
f 335/335/335 316/316/316 319/319/319
f 319/319/319 336/336/336 335/335/335
s 17
f 337/337/337 338/338/338 339/339/339
f 339/339/339 340/340/340 337/337/337
f 341/341/341 342/342/342 338/338/338
f 338/338/338 337/337/337 341/341/341
f 343/343/343 344/344/344 345/345/345
f 345/345/345 346/346/346 343/343/343
f 346/346/346 345/345/345 347/347/347
f 347/347/347 348/348/348 346/346/346
f 344/344/344 349/349/349 350/350/350
f 350/350/350 345/345/345 344/344/344
f 345/345/345 350/350/350 351/351/351
f 351/351/351 347/347/347 345/345/345
f 349/349/349 352/352/352 353/353/353
f 353/353/353 350/350/350 349/349/349
f 350/350/350 353/353/353 354/354/354
f 354/354/354 351/351/351 350/350/350
f 352/352/352 355/355/355 356/356/356
f 356/356/356 353/353/353 352/352/352
f 353/353/353 356/356/356 357/357/357
f 357/357/357 354/354/354 353/353/353
f 355/355/355 341/341/341 337/337/337
f 337/337/337 356/356/356 355/355/355
f 356/356/356 337/337/337 340/340/340
f 340/340/340 357/357/357 356/356/356
s 18
f 358/358/358 359/359/359 360/360/360
f 360/360/360 361/361/361 358/358/358
f 362/362/362 358/358/358 361/361/361
f 361/361/361 363/363/363 362/362/362
f 364/364/364 365/365/365 366/366/366
f 366/366/366 367/367/367 364/364/364
f 365/365/365 368/368/368 369/369/369
f 369/369/369 366/366/366 365/365/365
f 367/367/367 366/366/366 370/370/370
f 370/370/370 371/371/371 367/367/367
f 366/366/366 369/369/369 372/372/372
f 372/372/372 370/370/370 366/366/366
f 371/371/371 370/370/370 373/373/373
f 373/373/373 374/374/374 371/371/371
f 370/370/370 372/372/372 375/375/375
f 375/375/375 373/373/373 370/370/370
f 374/374/374 373/373/373 376/376/376
f 376/376/376 377/377/377 374/374/374
f 373/373/373 375/375/375 378/378/378
f 378/378/378 376/376/376 373/373/373
f 377/377/377 376/376/376 358/358/358
f 358/358/358 362/362/362 377/377/377
f 376/376/376 378/378/378 359/359/359
f 359/359/359 358/358/358 376/376/376
s 19
f 379/379/379 380/380/380 381/381/381
f 381/381/381 382/382/382 379/379/379
f 383/383/383 384/384/384 380/380/380
f 380/380/380 379/379/379 383/383/383
f 385/385/385 386/386/386 387/387/387
f 387/387/387 388/388/388 385/385/385
f 388/388/388 387/387/387 389/389/389
f 389/389/389 390/390/390 388/388/388
f 386/386/386 391/391/391 392/392/392
f 392/392/392 387/387/387 386/386/386
f 387/387/387 392/392/392 393/393/393
f 393/393/393 389/389/389 387/387/387
f 391/391/391 394/394/394 395/395/395
f 395/395/395 392/392/392 391/391/391
f 392/392/392 395/395/395 396/396/396
f 396/396/396 393/393/393 392/392/392
f 394/394/394 397/397/397 398/398/398
f 398/398/398 395/395/395 394/394/394
f 395/395/395 398/398/398 399/399/399
f 399/399/399 396/396/396 395/395/395
f 397/397/397 383/383/383 379/379/379
f 379/379/379 398/398/398 397/397/397
f 398/398/398 379/379/379 382/382/382
f 382/382/382 399/399/399 398/398/398
s 20
f 400/400/400 401/401/401 402/402/402
f 402/402/402 403/403/403 400/400/400
f 404/404/404 400/400/400 403/403/403
f 403/403/403 405/405/405 404/404/404
f 406/406/406 407/407/407 408/408/408
f 408/408/408 409/409/409 406/406/406
f 407/407/407 410/410/410 411/411/411
f 411/411/411 408/408/408 407/407/407
f 409/409/409 408/408/408 412/412/412
f 412/412/412 413/413/413 409/409/409
f 408/408/408 411/411/411 414/414/414
f 414/414/414 412/412/412 408/408/408
f 413/413/413 412/412/412 415/415/415
f 415/415/415 416/416/416 413/413/413
f 412/412/412 414/414/414 417/417/417
f 417/417/417 415/415/415 412/412/412
f 416/416/416 415/415/415 418/418/418
f 418/418/418 419/419/419 416/416/416
f 415/415/415 417/417/417 420/420/420
f 420/420/420 418/418/418 415/415/415
f 419/419/419 418/418/418 400/400/400
f 400/400/400 404/404/404 419/419/419
f 418/418/418 420/420/420 401/401/401
f 401/401/401 400/400/400 418/418/418
s 21
f 421/421/421 422/422/422 423/423/423
f 423/423/423 424/424/424 421/421/421
f 425/425/425 421/421/421 424/424/424
f 424/424/424 426/426/426 425/425/425
f 427/427/427 428/428/428 429/429/429
f 429/429/429 430/430/430 427/427/427
f 428/428/428 431/431/431 432/432/432
f 432/432/432 429/429/429 428/428/428
f 430/430/430 429/429/429 433/433/433
f 433/433/433 434/434/434 430/430/430
f 429/429/429 432/432/432 435/435/435
f 435/435/435 433/433/433 429/429/429
f 434/434/434 433/433/433 436/436/436
f 436/436/436 437/437/437 434/434/434
f 433/433/433 435/435/435 438/438/438
f 438/438/438 436/436/436 433/433/433
f 437/437/437 436/436/436 439/439/439
f 439/439/439 440/440/440 437/437/437
f 436/436/436 438/438/438 441/441/441
f 441/441/441 439/439/439 436/436/436
f 440/440/440 439/439/439 421/421/421
f 421/421/421 425/425/425 440/440/440
f 439/439/439 441/441/441 422/422/422
f 422/422/422 421/421/421 439/439/439
s 22
f 442/442/442 443/443/443 444/444/444
f 444/444/444 445/445/445 442/442/442
f 446/446/446 447/447/447 443/443/443
f 443/443/443 442/442/442 446/446/446
f 448/448/448 449/449/449 450/450/450
f 450/450/450 451/451/451 448/448/448
f 451/451/451 450/450/450 452/452/452
f 452/452/452 453/453/453 451/451/451
f 449/449/449 454/454/454 455/455/455
f 455/455/455 450/450/450 449/449/449
f 450/450/450 455/455/455 456/456/456
f 456/456/456 452/452/452 450/450/450
f 454/454/454 457/457/457 458/458/458
f 458/458/458 455/455/455 454/454/454
f 455/455/455 458/458/458 459/459/459
f 459/459/459 456/456/456 455/455/455
f 457/457/457 460/460/460 461/461/461
f 461/461/461 458/458/458 457/457/457
f 458/458/458 461/461/461 462/462/462
f 462/462/462 459/459/459 458/458/458
f 460/460/460 446/446/446 442/442/442
f 442/442/442 461/461/461 460/460/460
f 461/461/461 442/442/442 445/445/445
f 445/445/445 462/462/462 461/461/461
