# Blender v3.3.0 OBJ File: ''
# www.blender.org
o ItemWatermelon.005
v 0.012343 0.011632 -0.145915
v -0.056244 0.007807 -0.135036
v -0.048719 0.041736 -0.131691
v -0.025221 0.067240 -0.127641
v 0.007954 0.077484 -0.123973
v 0.041917 0.069724 -0.121669
v 0.067567 0.046039 -0.121346
v 0.078032 0.012776 -0.123091
v -0.081721 0.054807 -0.098287
v -0.093035 0.003795 -0.103317
v -0.046391 0.093151 -0.092199
v 0.003487 0.108553 -0.086683
v 0.054550 0.096886 -0.083219
v 0.093115 0.061277 -0.082734
v 0.108849 0.011265 -0.085358
v -0.114776 0.060417 -0.004705
v -0.096906 0.059333 -0.070965
v -0.109834 0.001044 -0.076713
v -0.129235 -0.004773 -0.011133
v -0.069627 0.109418 0.003076
v -0.056536 0.103148 -0.064008
v -0.005885 0.129101 0.010124
v 0.000458 0.120747 -0.057706
v 0.059370 0.114192 0.014551
v 0.058806 0.107416 -0.053747
v 0.108654 0.068685 0.015171
v 0.102872 0.066726 -0.053193
v 0.128760 0.004773 0.011818
v 0.120850 0.009580 -0.056192
v -0.108446 0.048617 0.063572
v -0.121370 -0.009654 0.057826
v -0.068089 0.092417 0.070526
v -0.011112 0.110011 0.076827
v 0.047217 0.096684 0.080784
v 0.091269 0.056007 0.081338
v 0.109241 -0.001121 0.078340
v -0.070910 0.021219 0.126290
v -0.097901 0.039602 0.091785
v -0.109194 -0.011314 0.086764
v -0.078435 -0.012710 0.122945
v -0.047411 0.046722 0.130340
v -0.062638 0.077874 0.097862
v -0.014236 0.056967 0.134008
v -0.012853 0.093248 0.103366
v 0.019727 0.049207 0.136312
v 0.038114 0.081603 0.106824
v 0.045377 0.025522 0.136635
v 0.076607 0.046060 0.107308
v 0.055841 -0.007741 0.134889
v 0.092310 -0.003858 0.104689
v -0.012690 -0.011514 0.145114
v -0.045780 -0.025456 -0.136782
v -0.020130 -0.049141 -0.136459
v 0.013833 -0.056901 -0.134155
v 0.047008 -0.046656 -0.130486
v 0.070506 -0.021153 -0.126437
v -0.077302 -0.046217 -0.105941
v -0.038737 -0.081827 -0.105456
v 0.012326 -0.093493 -0.101992
v 0.062205 -0.078091 -0.096477
v 0.097534 -0.039747 -0.090388
v -0.109128 -0.068685 -0.014486
v -0.091856 -0.056102 -0.079711
v -0.059845 -0.114192 -0.013866
v -0.047790 -0.096792 -0.079157
v 0.005410 -0.129101 -0.009439
v 0.010558 -0.110123 -0.075199
v 0.069152 -0.109418 -0.002391
v 0.067552 -0.092523 -0.068896
v 0.114301 -0.060417 0.005390
v 0.107922 -0.048709 -0.061939
v -0.103398 -0.066782 0.054828
v -0.059345 -0.107459 0.055382
v -0.001016 -0.120786 0.059340
v 0.055960 -0.103192 0.065640
v 0.096317 -0.059392 0.072594
v -0.067970 -0.045973 0.121199
v -0.093490 -0.061231 0.084145
v -0.042320 -0.069658 0.121522
v -0.054998 -0.096774 0.084629
v -0.008357 -0.077418 0.123826
v -0.004031 -0.108419 0.088087
v 0.024818 -0.067174 0.127494
v 0.045754 -0.093046 0.093592
v 0.048316 -0.041670 0.131544
v 0.081017 -0.054774 0.099669
vt 0.749900 0.463500
vt 0.639300 0.439300
vt 0.665900 0.404400
vt 0.704900 0.384100
vt 0.750100 0.377300
vt 0.795200 0.384400
vt 0.834100 0.405000
vt 0.860400 0.440000
vt 0.623700 0.353300
vt 0.570500 0.393000
vt 0.685000 0.332000
vt 0.750300 0.325500
vt 0.815500 0.332400
vt 0.876600 0.354100
vt 0.929600 0.394300
vt 0.593300 0.234000
vt 0.605500 0.315400
vt 0.533800 0.339900
vt 0.509800 0.233400
vt 0.672500 0.234400
vt 0.677700 0.303300
vt 0.750600 0.234700
vt 0.750400 0.300100
vt 0.828800 0.234900
vt 0.823000 0.303800
vt 0.907900 0.235100
vt 0.895100 0.316400
vt 0.991400 0.235300
vt 0.966600 0.341500
vt 0.606600 0.151700
vt 0.535300 0.126100
vt 0.678400 0.164400
vt 0.750900 0.168300
vt 0.823400 0.164900
vt 0.895400 0.152700
vt 0.966900 0.127800
vt 0.667100 0.064500
vt 0.625200 0.114200
vt 0.572600 0.073800
vt 0.640900 0.029300
vt 0.706000 0.085300
vt 0.686000 0.136000
vt 0.751200 0.092400
vt 0.751000 0.142800
vt 0.796500 0.085600
vt 0.816000 0.136400
vt 0.835500 0.065100
vt 0.877100 0.115000
vt 0.861900 0.030100
vt 0.930000 0.075100
vt 0.751400 0.006300
vt 0.834100 0.405000
vt 0.860400 0.440000
vt 0.795200 0.384400
vt 0.750100 0.377300
vt 0.704900 0.384100
vt 0.665900 0.404400
vt 0.639300 0.439300
vt 0.876600 0.354100
vt 0.929600 0.394300
vt 0.815500 0.332400
vt 0.750300 0.325500
vt 0.685000 0.332000
vt 0.623700 0.353300
vt 0.570500 0.393000
vt 0.907900 0.235100
vt 0.991400 0.235300
vt 0.966600 0.341500
vt 0.895100 0.316400
vt 0.828800 0.234900
vt 0.823000 0.303800
vt 0.750600 0.234700
vt 0.750400 0.300100
vt 0.672500 0.234400
vt 0.677700 0.303300
vt 0.593300 0.234000
vt 0.605500 0.315400
vt 0.509800 0.233400
vt 0.533800 0.339900
vt 0.895400 0.152700
vt 0.966900 0.127800
vt 0.823400 0.164900
vt 0.750900 0.168300
vt 0.678400 0.164400
vt 0.606600 0.151700
vt 0.535300 0.126100
vt 0.835500 0.065100
vt 0.861900 0.030100
vt 0.930000 0.075100
vt 0.877100 0.115000
vt 0.796500 0.085600
vt 0.816000 0.136400
vt 0.751200 0.092400
vt 0.751000 0.142800
vt 0.706000 0.085300
vt 0.686000 0.136000
vt 0.667100 0.064500
vt 0.625200 0.114200
vt 0.640900 0.029300
vt 0.572600 0.073800
vn 0.0854 0.0790 -0.9932
vn -0.4574 0.0473 -0.8880
vn -0.3981 0.3150 -0.8616
vn -0.2126 0.5162 -0.8296
vn 0.0491 0.5971 -0.8007
vn 0.3171 0.5358 -0.7825
vn 0.5195 0.3489 -0.7800
vn 0.6021 0.0865 -0.7937
vn -0.6758 0.4275 -0.6005
vn -0.7672 0.0150 -0.6412
vn -0.3901 0.7375 -0.5513
vn 0.0132 0.8620 -0.5067
vn 0.4260 0.7677 -0.4787
vn 0.7378 0.4798 -0.4748
vn 0.8650 0.0754 -0.4960
vn -0.8837 0.4663 -0.0400
vn -0.8080 0.4665 -0.3598
vn -0.9135 -0.0091 -0.4067
vn -0.9953 -0.0367 -0.0896
vn -0.5353 0.8444 0.0200
vn -0.4785 0.8241 -0.3031
vn -0.0435 0.9963 0.0744
vn -0.0134 0.9677 -0.2516
vn 0.4600 0.8812 0.1086
vn 0.4627 0.8589 -0.2193
vn 0.8403 0.5301 0.1134
vn 0.8224 0.5269 -0.2148
vn 0.9955 0.0369 0.0875
vn 0.9691 0.0605 -0.2393
vn -0.8630 0.4146 0.2886
vn -0.9684 -0.0607 0.2417
vn -0.5339 0.7718 0.3453
vn -0.0692 0.9153 0.3967
vn 0.4066 0.8066 0.4290
vn 0.7659 0.4749 0.4335
vn 0.9125 0.0089 0.4090
vn -0.5322 0.1747 0.8284
vn -0.7678 0.3327 0.5475
vn -0.8585 -0.0760 0.5072
vn -0.5902 -0.0866 0.8026
vn -0.3512 0.3712 0.8596
vn -0.4848 0.6398 0.5963
vn -0.0956 0.4501 0.8878
vn -0.0852 0.7632 0.6405
vn 0.1660 0.3903 0.9056
vn 0.3238 0.6698 0.6682
vn 0.3636 0.2079 0.9081
vn 0.6328 0.3845 0.6721
vn 0.4442 -0.0484 0.8946
vn 0.7588 -0.0161 0.6511
vn -0.0854 -0.0790 0.9932
vn -0.3749 -0.2152 -0.9018
vn -0.1725 -0.4021 -0.8992
vn 0.0955 -0.4633 -0.8810
vn 0.3573 -0.3825 -0.8521
vn 0.5427 -0.1812 -0.8201
vn -0.6400 -0.3893 -0.6624
vn -0.3282 -0.6772 -0.6585
vn 0.0846 -0.7716 -0.6305
vn 0.4879 -0.6470 -0.5859
vn 0.7736 -0.3370 -0.5367
vn -0.8401 -0.5299 -0.1155
vn -0.7668 -0.4755 -0.4312
vn -0.4599 -0.8811 -0.1107
vn -0.4072 -0.8076 -0.4267
vn 0.0437 -0.9961 -0.0765
vn 0.0690 -0.9163 -0.3944
vn 0.5355 -0.8442 -0.0222
vn 0.5341 -0.7727 -0.3429
vn 0.8839 -0.4661 0.0379
vn 0.8636 -0.4152 -0.2862
vn -0.8219 -0.5266 0.2173
vn -0.4626 -0.8584 0.2218
vn 0.0132 -0.9671 0.2541
vn 0.4779 -0.8236 0.3054
vn 0.8071 -0.4664 0.3622
vn -0.5096 -0.3429 0.7892
vn -0.7324 -0.4766 0.4862
vn -0.3120 -0.5253 0.7916
vn -0.4235 -0.7619 0.4901
vn -0.0503 -0.5851 0.8094
vn -0.0144 -0.8554 0.5178
vn 0.2052 -0.5062 0.8377
vn 0.3852 -0.7320 0.5620
vn 0.3862 -0.3097 0.8689
vn 0.6682 -0.4248 0.6108
s 1
f 1/1/1 2/2/2 3/3/3
f 1/1/1 3/3/3 4/4/4
f 1/1/1 4/4/4 5/5/5
f 1/1/1 5/5/5 6/6/6
f 1/1/1 6/6/6 7/7/7
f 1/1/1 7/7/7 8/8/8
f 9/9/9 3/3/3 2/2/2
f 2/2/2 10/10/10 9/9/9
f 11/11/11 4/4/4 3/3/3
f 3/3/3 9/9/9 11/11/11
f 12/12/12 5/5/5 4/4/4
f 4/4/4 11/11/11 12/12/12
f 13/13/13 6/6/6 5/5/5
f 5/5/5 12/12/12 13/13/13
f 14/14/14 7/7/7 6/6/6
f 6/6/6 13/13/13 14/14/14
f 15/15/15 8/8/8 7/7/7
f 7/7/7 14/14/14 15/15/15
f 16/16/16 17/17/17 18/18/18
f 18/18/18 19/19/19 16/16/16
f 20/20/20 21/21/21 17/17/17
f 17/17/17 16/16/16 20/20/20
f 22/22/22 23/23/23 21/21/21
f 21/21/21 20/20/20 22/22/22
f 24/24/24 25/25/25 23/23/23
f 23/23/23 22/22/22 24/24/24
f 26/26/26 27/27/27 25/25/25
f 25/25/25 24/24/24 26/26/26
f 28/28/28 29/29/29 27/27/27
f 27/27/27 26/26/26 28/28/28
f 30/30/30 16/16/16 19/19/19
f 19/19/19 31/31/31 30/30/30
f 32/32/32 20/20/20 16/16/16
f 16/16/16 30/30/30 32/32/32
f 33/33/33 22/22/22 20/20/20
f 20/20/20 32/32/32 33/33/33
f 34/34/34 24/24/24 22/22/22
f 22/22/22 33/33/33 34/34/34
f 35/35/35 26/26/26 24/24/24
f 24/24/24 34/34/34 35/35/35
f 36/36/36 28/28/28 26/26/26
f 26/26/26 35/35/35 36/36/36
f 37/37/37 38/38/38 39/39/39
f 39/39/39 40/40/40 37/37/37
f 41/41/41 42/42/42 38/38/38
f 38/38/38 37/37/37 41/41/41
f 43/43/43 44/44/44 42/42/42
f 42/42/42 41/41/41 43/43/43
f 45/45/45 46/46/46 44/44/44
f 44/44/44 43/43/43 45/45/45
f 47/47/47 48/48/48 46/46/46
f 46/46/46 45/45/45 47/47/47
f 49/49/49 50/50/50 48/48/48
f 48/48/48 47/47/47 49/49/49
f 51/51/51 37/37/37 40/40/40
f 51/51/51 41/41/41 37/37/37
f 51/51/51 43/43/43 41/41/41
f 51/51/51 45/45/45 43/43/43
f 51/51/51 47/47/47 45/45/45
f 51/51/51 49/49/49 47/47/47
f 10/10/10 18/18/18 17/17/17
f 17/17/17 9/9/9 10/10/10
f 9/9/9 17/17/17 21/21/21
f 21/21/21 11/11/11 9/9/9
f 11/11/11 21/21/21 23/23/23
f 23/23/23 12/12/12 11/11/11
f 12/12/12 23/23/23 25/25/25
f 25/25/25 13/13/13 12/12/12
f 13/13/13 25/25/25 27/27/27
f 27/27/27 14/14/14 13/13/13
f 14/14/14 27/27/27 29/29/29
f 29/29/29 15/15/15 14/14/14
f 31/31/31 39/39/39 38/38/38
f 38/38/38 30/30/30 31/31/31
f 30/30/30 38/38/38 42/42/42
f 42/42/42 32/32/32 30/30/30
f 32/32/32 42/42/42 44/44/44
f 44/44/44 33/33/33 32/32/32
f 33/33/33 44/44/44 46/46/46
f 46/46/46 34/34/34 33/33/33
f 34/34/34 46/46/46 48/48/48
f 48/48/48 35/35/35 34/34/34
f 35/35/35 48/48/48 50/50/50
f 50/50/50 36/36/36 35/35/35
f 1/1/1 52/52/52 2/53/2
f 1/1/1 53/54/53 52/52/52
f 1/1/1 54/55/54 53/54/53
f 1/1/1 55/56/55 54/55/54
f 1/1/1 56/57/56 55/56/55
f 1/1/1 8/58/8 56/57/56
f 57/59/57 10/60/10 2/53/2
f 2/53/2 52/52/52 57/59/57
f 58/61/58 57/59/57 52/52/52
f 52/52/52 53/54/53 58/61/58
f 59/62/59 58/61/58 53/54/53
f 53/54/53 54/55/54 59/62/59
f 60/63/60 59/62/59 54/55/54
f 54/55/54 55/56/55 60/63/60
f 61/64/61 60/63/60 55/56/55
f 55/56/55 56/57/56 61/64/61
f 15/65/15 61/64/61 56/57/56
f 56/57/56 8/58/8 15/65/15
f 62/66/62 19/67/19 18/68/18
f 18/68/18 63/69/63 62/66/62
f 64/70/64 62/66/62 63/69/63
f 63/69/63 65/71/65 64/70/64
f 66/72/66 64/70/64 65/71/65
f 65/71/65 67/73/67 66/72/66
f 68/74/68 66/72/66 67/73/67
f 67/73/67 69/75/69 68/74/68
f 70/76/70 68/74/68 69/75/69
f 69/75/69 71/77/71 70/76/70
f 28/78/28 70/76/70 71/77/71
f 71/77/71 29/79/29 28/78/28
f 72/80/72 31/81/31 19/67/19
f 19/67/19 62/66/62 72/80/72
f 73/82/73 72/80/72 62/66/62
f 62/66/62 64/70/64 73/82/73
f 74/83/74 73/82/73 64/70/64
f 64/70/64 66/72/66 74/83/74
f 75/84/75 74/83/74 66/72/66
f 66/72/66 68/74/68 75/84/75
f 76/85/76 75/84/75 68/74/68
f 68/74/68 70/76/70 76/85/76
f 36/86/36 76/85/76 70/76/70
f 70/76/70 28/78/28 36/86/36
f 77/87/77 40/88/40 39/89/39
f 39/89/39 78/90/78 77/87/77
f 79/91/79 77/87/77 78/90/78
f 78/90/78 80/92/80 79/91/79
f 81/93/81 79/91/79 80/92/80
f 80/92/80 82/94/82 81/93/81
f 83/95/83 81/93/81 82/94/82
f 82/94/82 84/96/84 83/95/83
f 85/97/85 83/95/83 84/96/84
f 84/96/84 86/98/86 85/97/85
f 49/99/49 85/97/85 86/98/86
f 86/98/86 50/100/50 49/99/49
f 51/51/51 40/88/40 77/87/77
f 51/51/51 77/87/77 79/91/79
f 51/51/51 79/91/79 81/93/81
f 51/51/51 81/93/81 83/95/83
f 51/51/51 83/95/83 85/97/85
f 51/51/51 85/97/85 49/99/49
f 10/60/10 57/59/57 63/69/63
f 63/69/63 18/68/18 10/60/10
f 57/59/57 58/61/58 65/71/65
f 65/71/65 63/69/63 57/59/57
f 58/61/58 59/62/59 67/73/67
f 67/73/67 65/71/65 58/61/58
f 59/62/59 60/63/60 69/75/69
f 69/75/69 67/73/67 59/62/59
f 60/63/60 61/64/61 71/77/71
f 71/77/71 69/75/69 60/63/60
f 61/64/61 15/65/15 29/79/29
f 29/79/29 71/77/71 61/64/61
f 31/81/31 72/80/72 78/90/78
f 78/90/78 39/89/39 31/81/31
f 72/80/72 73/82/73 80/92/80
f 80/92/80 78/90/78 72/80/72
f 73/82/73 74/83/74 82/94/82
f 82/94/82 80/92/80 73/82/73
f 74/83/74 75/84/75 84/96/84
f 84/96/84 82/94/82 74/83/74
f 75/84/75 76/85/76 86/98/86
f 86/98/86 84/96/84 75/84/75
f 76/85/76 36/86/36 50/100/50
f 50/100/50 86/98/86 76/85/76
