# Blender v3.3.0 OBJ File: ''
# www.blender.org
o WatermelonStage01.005
v 0.000000 -0.011644 -0.001144
v 0.000000 0.000640 -0.007381
v 0.007285 0.000005 -0.000125
v -0.007285 0.000005 -0.000125
v 0.000000 -0.000629 0.007132
v 0.004012 0.229895 0.000000
v 0.002619 0.229785 -0.001307
v 0.001347 0.230365 0.000000
v 0.002740 0.230475 0.001307
v 0.003223 0.073620 0.002014
v -0.003842 0.135788 0.000354
v -0.001776 0.135783 0.002389
v 0.005987 0.073620 0.004778
v -0.005877 0.136142 0.002389
v 0.000459 0.073620 0.004778
v -0.003811 0.136137 0.004424
v 0.003223 0.073620 0.007542
v 0.000000 0.006538 -0.004351
v 0.004780 0.006121 0.000411
v -0.004780 0.006121 0.000411
v 0.000000 0.005705 0.005172
v -0.002181 0.294288 -0.002246
v -0.014671 0.269529 -0.002999
v -0.003843 0.260552 -0.002764
v -0.008331 0.234645 -0.000450
v -0.019389 0.303858 0.002042
v -0.043162 0.273367 0.000803
v -0.031022 0.278380 -0.000970
v -0.040648 0.261102 0.001410
v -0.012651 0.303438 0.000921
v -0.022736 0.294375 0.001466
v 0.002234 0.227603 0.000728
v 0.014570 0.230607 -0.000450
v 0.019214 0.256486 -0.002764
v 0.029190 0.288756 -0.002246
v 0.032458 0.261219 -0.002999
v 0.048633 0.291864 0.002042
v 0.060545 0.255080 0.000803
v 0.050851 0.263943 -0.000970
v 0.053987 0.244416 0.001410
v 0.042158 0.293774 0.000921
v 0.048536 0.281808 0.001466
v 0.030291 0.309422 -0.000006
v 0.003852 0.314084 -0.000006
v 0.025097 0.322812 0.002386
v 0.013312 0.324890 0.002386
v 0.019998 0.328349 0.003825
v -0.002188 0.294250 -0.002686
v -0.003850 0.260514 -0.003205
v -0.014677 0.269491 -0.003439
v -0.008338 0.234607 -0.000890
v -0.019395 0.303820 0.001602
v -0.043169 0.273329 0.000363
v -0.031029 0.278342 -0.001410
v -0.040654 0.261064 0.000970
v -0.012657 0.303401 0.000481
v -0.022743 0.294337 0.001026
v 0.002227 0.227565 0.000288
v 0.014563 0.230569 -0.000890
v 0.019207 0.256448 -0.003205
v 0.029183 0.288718 -0.002686
v 0.032452 0.261181 -0.003439
v 0.048627 0.291826 0.001602
v 0.060538 0.255042 0.000363
v 0.050844 0.263905 -0.001410
v 0.053980 0.244378 0.000970
v 0.042151 0.293736 0.000481
v 0.048529 0.281770 0.001026
v 0.003845 0.314046 -0.000446
v 0.030285 0.309384 -0.000446
v 0.013306 0.324852 0.001946
v 0.025091 0.322774 0.001946
v 0.019991 0.328311 0.003385
v 0.059576 0.135293 0.005105
v 0.074828 0.107968 0.007628
v 0.052318 0.090042 0.011409
v 0.036441 0.125438 0.010295
v 0.073757 0.138380 0.002990
v 0.084377 0.125458 0.004851
v 0.084239 0.135947 0.002379
v 0.026185 0.083693 0.004220
v 0.018423 0.111452 0.003755
v 0.001278 0.087979 0.003925
v 0.000071 0.101778 0.003925
v 0.059559 0.135293 0.005301
v 0.036424 0.125438 0.010491
v 0.052301 0.090042 0.011605
v 0.074811 0.107968 0.007823
v 0.073740 0.138380 0.003185
v 0.084360 0.125458 0.005046
v 0.084222 0.135947 0.002574
v 0.018406 0.111452 0.003950
v 0.026168 0.083693 0.004415
v 0.000054 0.101778 0.004121
v 0.001261 0.087979 0.004121
v -0.064806 0.124580 0.008171
v -0.075251 0.095007 0.006774
v -0.050389 0.081225 0.000917
v -0.040852 0.118845 0.000917
v -0.079068 0.125178 0.011533
v -0.087409 0.110597 0.010503
v -0.088877 0.120971 0.013033
v -0.023028 0.079557 0.005762
v -0.020183 0.108244 0.005762
v 0.000690 0.088096 0.003925
v -0.000518 0.101896 0.003925
v -0.064806 0.124580 0.007974
v -0.040852 0.118845 0.000721
v -0.050389 0.081225 0.000721
v -0.075251 0.095007 0.006578
v -0.079068 0.125178 0.011337
v -0.087409 0.110597 0.010306
v -0.088877 0.120971 0.012837
v -0.020183 0.108244 0.005566
v -0.023028 0.079557 0.005566
v -0.000518 0.101896 0.003729
v 0.000690 0.088096 0.003729
v -0.005247 0.187739 -0.000477
v -0.003522 0.187701 0.001195
v -0.006881 0.188294 0.001195
v -0.005156 0.188256 0.002866
v 0.044547 0.173014 0.000000
v 0.043409 0.173825 -0.001307
v 0.042807 0.175087 0.000000
v 0.043945 0.174275 0.001307
v 0.017911 0.156880 -0.000477
v 0.019209 0.155742 0.001195
v -0.002220 0.134561 0.002389
v -0.003842 0.135788 0.000354
v -0.005131 0.137472 0.002389
v 0.017016 0.158355 0.001195
v 0.018314 0.157218 0.002866
v -0.003811 0.136137 0.004424
v 0.097513 0.204782 -0.016959
v 0.071497 0.197175 -0.022862
v 0.068307 0.188461 -0.012291
v 0.043669 0.179331 -0.009795
v 0.097091 0.219890 -0.030289
v 0.061650 0.213750 -0.044526
v 0.071547 0.209843 -0.036622
v 0.052079 0.207136 -0.039861
v 0.099906 0.216040 -0.025380
v 0.087818 0.216162 -0.031547
v 0.041711 0.172401 0.000728
v 0.049791 0.167881 0.009496
v 0.074471 0.176932 0.007132
v 0.105899 0.189097 0.009468
v 0.084095 0.173611 0.016839
v 0.115274 0.185879 0.027013
v 0.089373 0.161896 0.042837
v 0.093433 0.168907 0.032347
v 0.077376 0.159819 0.039858
v 0.114557 0.188636 0.020790
v 0.106870 0.180526 0.028492
v 0.123206 0.200534 0.007746
v 0.116138 0.213754 -0.014526
v 0.131653 0.211105 0.002372
v 0.128502 0.216998 -0.007556
v 0.133770 0.217041 -0.001989
v 0.097619 0.204429 -0.017202
v 0.068414 0.188108 -0.012534
v 0.071603 0.196822 -0.023106
v 0.043775 0.178978 -0.010039
v 0.097197 0.219537 -0.030532
v 0.061757 0.213397 -0.044769
v 0.071653 0.209490 -0.036866
v 0.052185 0.206783 -0.040104
v 0.100012 0.215687 -0.025624
v 0.087924 0.215809 -0.031791
v 0.041818 0.172048 0.000484
v 0.049897 0.167528 0.009253
v 0.074577 0.176579 0.006889
v 0.106005 0.188744 0.009225
v 0.084202 0.173258 0.016596
v 0.115381 0.185526 0.026770
v 0.089479 0.161543 0.042593
v 0.093539 0.168554 0.032104
v 0.077483 0.159466 0.039615
v 0.114664 0.188283 0.020547
v 0.106977 0.180173 0.028249
v 0.116244 0.213401 -0.014770
v 0.123312 0.200181 0.007503
v 0.128609 0.216645 -0.007799
v 0.131759 0.210753 0.002128
v 0.133876 0.216688 -0.002233
v 0.053686 0.240181 0.000993
v 0.059535 0.217013 0.002919
v 0.039390 0.208239 0.005807
v 0.034675 0.237485 0.004956
v 0.064756 0.239655 -0.000622
v 0.070035 0.228025 0.000799
v 0.072006 0.235790 -0.001089
v 0.018860 0.208722 0.000317
v 0.018621 0.230730 -0.000038
v 0.001336 0.216805 0.000092
v 0.003173 0.227222 0.000092
v 0.053673 0.240183 0.001143
v 0.034662 0.237487 0.005106
v 0.039377 0.208242 0.005956
v 0.059522 0.217015 0.003069
v 0.064743 0.239657 -0.000473
v 0.070022 0.228028 0.000948
v 0.071993 0.235792 -0.000939
v 0.018608 0.230732 0.000111
v 0.018847 0.208724 0.000466
v 0.003160 0.227224 0.000241
v 0.001323 0.216807 0.000241
v -0.041709 0.257002 0.003334
v -0.055258 0.237254 0.002268
v -0.039644 0.222175 -0.002205
v -0.025175 0.248038 -0.002205
v -0.052111 0.260262 0.005901
v -0.061144 0.251156 0.005115
v -0.060177 0.259097 0.007047
v -0.019793 0.215537 0.001495
v -0.012025 0.236134 0.001495
v -0.000612 0.217149 0.000092
v 0.001225 0.227565 0.000092
v -0.041709 0.257002 0.003184
v -0.025175 0.248038 -0.002355
v -0.039644 0.222175 -0.002355
v -0.055258 0.237254 0.002118
v -0.052111 0.260262 0.005751
v -0.061144 0.251156 0.004965
v -0.060177 0.259097 0.006897
v -0.012025 0.236134 0.001345
v -0.019793 0.215537 0.001345
v 0.001225 0.227565 -0.000058
v -0.000612 0.217149 -0.000058
v -0.045287 0.179876 0.016269
v -0.043940 0.180687 0.017359
v -0.043574 0.181949 0.015967
v -0.044922 0.181138 0.014878
v -0.021819 0.159251 0.010802
v -0.023387 0.158113 0.009381
v -0.005110 0.134561 0.002642
v -0.003161 0.135788 0.004365
v -0.002244 0.137472 0.002136
v -0.021228 0.160726 0.009000
v -0.022796 0.159588 0.007580
v -0.003897 0.136137 0.000361
v -0.094504 0.211645 0.042168
v -0.067858 0.204038 0.043464
v -0.066553 0.195323 0.032499
v -0.042722 0.186194 0.025763
v -0.091774 0.226752 0.055222
v -0.054399 0.220612 0.063088
v -0.065518 0.216706 0.057024
v -0.045783 0.213999 0.056833
v -0.095398 0.222903 0.050877
v -0.082423 0.223025 0.054851
v -0.042622 0.179263 0.015060
v -0.052101 0.174743 0.007828
v -0.075995 0.183795 0.014442
v -0.107351 0.195959 0.017599
v -0.087159 0.180473 0.006554
v -0.119631 0.192741 0.001949
v -0.096871 0.168759 -0.018133
v -0.099048 0.175769 -0.007097
v -0.084539 0.166681 -0.017283
v -0.117844 0.195498 0.007952
v -0.111612 0.187389 -0.000967
v -0.124096 0.207396 0.022300
v -0.113268 0.220616 0.043007
v -0.131482 0.217968 0.029059
v -0.126655 0.223860 0.038289
v -0.132810 0.223904 0.033722
v -0.094566 0.211292 0.042426
v -0.066615 0.194970 0.032757
v -0.067921 0.203684 0.043722
v -0.042784 0.185841 0.026021
v -0.091836 0.226399 0.055480
v -0.054462 0.220259 0.063347
v -0.065580 0.216353 0.057282
v -0.045846 0.213646 0.057091
v -0.095461 0.222550 0.051135
v -0.082486 0.222672 0.055110
v -0.042684 0.178910 0.015318
v -0.052163 0.174390 0.008086
v -0.076058 0.183442 0.014700
v -0.107414 0.195606 0.017857
v -0.087222 0.180120 0.006812
v -0.119694 0.192388 0.002207
v -0.096934 0.168406 -0.017875
v -0.099110 0.175416 -0.006839
v -0.084602 0.166329 -0.017025
v -0.117907 0.195145 0.008210
v -0.111674 0.187036 -0.000709
v -0.113331 0.220263 0.043265
v -0.124159 0.207043 0.022558
v -0.126718 0.223507 0.038547
v -0.131544 0.217615 0.029317
v -0.132872 0.223551 0.033980
vt 0.948000 0.731700
vt 0.966900 0.754300
vt 0.948500 0.757500
vt 0.986100 0.746300
vt 0.930100 0.755000
vt 0.910700 0.747100
vt 0.949400 0.973700
vt 0.950200 0.977500
vt 0.945500 0.978200
vt 0.944500 0.974400
vt 0.961700 0.901700
vt 0.958000 0.937700
vt 0.950700 0.937400
vt 0.952000 0.901200
vt 0.965400 0.938300
vt 0.971600 0.902300
vt 0.943400 0.937800
vt 0.936100 0.938300
vt 0.932600 0.902100
vt 0.942300 0.901200
vt 0.968200 0.765500
vt 0.948800 0.767500
vt 0.986000 0.764400
vt 0.929100 0.766600
vt 0.911000 0.764800
vt 0.151100 0.843000
vt 0.119400 0.737100
vt 0.168100 0.709500
vt 0.168600 0.604300
vt 0.075300 0.869500
vt 0.004000 0.730800
vt 0.048300 0.759500
vt 0.022500 0.684400
vt 0.102400 0.872300
vt 0.068900 0.829900
vt 0.215000 0.583500
vt 0.261200 0.604500
vt 0.261400 0.709600
vt 0.278000 0.843200
vt 0.310100 0.737400
vt 0.353700 0.869900
vt 0.425500 0.731400
vt 0.381100 0.760000
vt 0.407100 0.685000
vt 0.326600 0.872700
vt 0.360200 0.830300
vt 0.267900 0.925500
vt 0.161000 0.925300
vt 0.238200 0.975300
vt 0.190500 0.975300
vt 0.214300 0.994400
vt 0.151100 0.843000
vt 0.168100 0.709500
vt 0.119400 0.737100
vt 0.168600 0.604300
vt 0.075300 0.869500
vt 0.004000 0.730800
vt 0.048300 0.759500
vt 0.022500 0.684400
vt 0.102400 0.872300
vt 0.068900 0.829900
vt 0.215000 0.583500
vt 0.261200 0.604500
vt 0.261400 0.709600
vt 0.278000 0.843200
vt 0.310100 0.737400
vt 0.353700 0.869900
vt 0.425500 0.731400
vt 0.381100 0.760000
vt 0.407100 0.685000
vt 0.326600 0.872700
vt 0.360200 0.830300
vt 0.161000 0.925300
vt 0.267900 0.925500
vt 0.190500 0.975300
vt 0.238200 0.975300
vt 0.214300 0.994400
vt 0.084300 0.578200
vt 0.082500 0.471500
vt 0.179300 0.452800
vt 0.171300 0.584500
vt 0.036100 0.565400
vt 0.025400 0.509200
vt 0.008200 0.541600
vt 0.271200 0.475800
vt 0.251000 0.571700
vt 0.339600 0.527800
vt 0.321600 0.571300
vt 0.084300 0.578200
vt 0.171300 0.584500
vt 0.179300 0.452800
vt 0.082500 0.471500
vt 0.036100 0.565400
vt 0.025400 0.509200
vt 0.008200 0.541600
vt 0.251000 0.571700
vt 0.271200 0.475800
vt 0.321600 0.571300
vt 0.339600 0.527800
vt 0.084300 0.578200
vt 0.082500 0.471500
vt 0.179300 0.452800
vt 0.171300 0.584500
vt 0.036100 0.565400
vt 0.025400 0.509200
vt 0.008200 0.541600
vt 0.271200 0.475800
vt 0.251000 0.571700
vt 0.339600 0.527800
vt 0.321600 0.571300
vt 0.084300 0.578200
vt 0.171300 0.584500
vt 0.179300 0.452800
vt 0.082500 0.471500
vt 0.036100 0.565400
vt 0.025400 0.509200
vt 0.008200 0.541600
vt 0.251000 0.571700
vt 0.271200 0.475800
vt 0.321600 0.571300
vt 0.339600 0.527800
vt 0.956200 0.955600
vt 0.950000 0.955600
vt 0.962300 0.956300
vt 0.944000 0.956100
vt 0.937900 0.956400
vt 0.954400 0.973600
vt 0.959200 0.974400
vt 0.939700 0.974500
vt 0.949400 0.973700
vt 0.950200 0.977500
vt 0.945500 0.978200
vt 0.944500 0.974400
vt 0.956200 0.955600
vt 0.950000 0.955600
vt 0.950700 0.937400
vt 0.958000 0.937700
vt 0.965400 0.938300
vt 0.962300 0.956300
vt 0.944000 0.956100
vt 0.937900 0.956400
vt 0.936100 0.938300
vt 0.943400 0.937800
vt 0.954400 0.973600
vt 0.959200 0.974400
vt 0.939700 0.974500
vt 0.151100 0.843000
vt 0.119400 0.737100
vt 0.168100 0.709500
vt 0.168600 0.604300
vt 0.075300 0.869500
vt 0.004000 0.730800
vt 0.048300 0.759500
vt 0.022500 0.684400
vt 0.102400 0.872300
vt 0.068900 0.829900
vt 0.215000 0.583500
vt 0.261200 0.604500
vt 0.261400 0.709600
vt 0.278000 0.843200
vt 0.310100 0.737400
vt 0.353700 0.869900
vt 0.425500 0.731400
vt 0.381100 0.760000
vt 0.407100 0.685000
vt 0.326600 0.872700
vt 0.360200 0.830300
vt 0.267900 0.925500
vt 0.161000 0.925300
vt 0.238200 0.975300
vt 0.190500 0.975300
vt 0.214300 0.994400
vt 0.151100 0.843000
vt 0.168100 0.709500
vt 0.119400 0.737100
vt 0.168600 0.604300
vt 0.075300 0.869500
vt 0.004000 0.730800
vt 0.048300 0.759500
vt 0.022500 0.684400
vt 0.102400 0.872300
vt 0.068900 0.829900
vt 0.215000 0.583500
vt 0.261200 0.604500
vt 0.261400 0.709600
vt 0.278000 0.843200
vt 0.310100 0.737400
vt 0.353700 0.869900
vt 0.425500 0.731400
vt 0.381100 0.760000
vt 0.407100 0.685000
vt 0.326600 0.872700
vt 0.360200 0.830300
vt 0.161000 0.925300
vt 0.267900 0.925500
vt 0.190500 0.975300
vt 0.238200 0.975300
vt 0.214300 0.994400
vt 0.084300 0.578200
vt 0.082500 0.471500
vt 0.179300 0.452800
vt 0.171300 0.584500
vt 0.036100 0.565400
vt 0.025400 0.509200
vt 0.008200 0.541600
vt 0.271200 0.475800
vt 0.251000 0.571700
vt 0.339600 0.527800
vt 0.321600 0.571300
vt 0.084300 0.578200
vt 0.171300 0.584500
vt 0.179300 0.452800
vt 0.082500 0.471500
vt 0.036100 0.565400
vt 0.025400 0.509200
vt 0.008200 0.541600
vt 0.251000 0.571700
vt 0.271200 0.475800
vt 0.321600 0.571300
vt 0.339600 0.527800
vt 0.084300 0.578200
vt 0.082500 0.471500
vt 0.179300 0.452800
vt 0.171300 0.584500
vt 0.036100 0.565400
vt 0.025400 0.509200
vt 0.008200 0.541600
vt 0.271200 0.475800
vt 0.251000 0.571700
vt 0.339600 0.527800
vt 0.321600 0.571300
vt 0.084300 0.578200
vt 0.171300 0.584500
vt 0.179300 0.452800
vt 0.082500 0.471500
vt 0.036100 0.565400
vt 0.025400 0.509200
vt 0.008200 0.541600
vt 0.251000 0.571700
vt 0.271200 0.475800
vt 0.321600 0.571300
vt 0.339600 0.527800
vt 0.949400 0.973700
vt 0.950200 0.977500
vt 0.945500 0.978200
vt 0.944500 0.974400
vt 0.956200 0.955600
vt 0.950000 0.955600
vt 0.950700 0.937400
vt 0.958000 0.937700
vt 0.965400 0.938300
vt 0.962300 0.956300
vt 0.944000 0.956100
vt 0.937900 0.956400
vt 0.936100 0.938300
vt 0.943400 0.937800
vt 0.954400 0.973600
vt 0.959200 0.974400
vt 0.939700 0.974500
vt 0.151100 0.843000
vt 0.119400 0.737100
vt 0.168100 0.709500
vt 0.168600 0.604300
vt 0.075300 0.869500
vt 0.004000 0.730800
vt 0.048300 0.759500
vt 0.022500 0.684400
vt 0.102400 0.872300
vt 0.068900 0.829900
vt 0.215000 0.583500
vt 0.261200 0.604500
vt 0.261400 0.709600
vt 0.278000 0.843200
vt 0.310100 0.737400
vt 0.353700 0.869900
vt 0.425500 0.731400
vt 0.381100 0.760000
vt 0.407100 0.685000
vt 0.326600 0.872700
vt 0.360200 0.830300
vt 0.267900 0.925500
vt 0.161000 0.925300
vt 0.238200 0.975300
vt 0.190500 0.975300
vt 0.214300 0.994400
vt 0.151100 0.843000
vt 0.168100 0.709500
vt 0.119400 0.737100
vt 0.168600 0.604300
vt 0.075300 0.869500
vt 0.004000 0.730800
vt 0.048300 0.759500
vt 0.022500 0.684400
vt 0.102400 0.872300
vt 0.068900 0.829900
vt 0.215000 0.583500
vt 0.261200 0.604500
vt 0.261400 0.709600
vt 0.278000 0.843200
vt 0.310100 0.737400
vt 0.353700 0.869900
vt 0.425500 0.731400
vt 0.381100 0.760000
vt 0.407100 0.685000
vt 0.326600 0.872700
vt 0.360200 0.830300
vt 0.161000 0.925300
vt 0.267900 0.925500
vt 0.190500 0.975300
vt 0.238200 0.975300
vt 0.214300 0.994400
vn 0.0000 -0.9962 -0.0872
vn -0.0000 0.0158 -0.9999
vn 0.9974 -0.0712 -0.0063
vn -0.9974 -0.0712 -0.0063
vn 0.0000 -0.1581 0.9874
vn 0.9061 0.4182 -0.0637
vn 0.0825 0.4434 -0.8925
vn -0.7018 0.7094 -0.0653
vn 0.1253 0.6906 0.7123
vn 0.0369 0.0372 -0.9986
vn -0.0263 -0.0265 -0.9993
vn 0.9965 0.0820 -0.0136
vn 0.9985 0.0509 0.0224
vn -0.9983 -0.0574 0.0050
vn -0.9996 -0.0129 0.0245
vn -0.0124 0.0358 0.9993
vn 0.0348 0.0097 0.9993
vn -0.0098 0.2995 -0.9540
vn 0.9792 0.2016 0.0225
vn -0.9688 0.2465 0.0259
vn -0.0093 0.1510 0.9885
vn 0.0534 -0.0800 0.9954
vn 0.0786 0.0237 0.9966
vn 0.0134 0.0424 0.9990
vn 0.0509 0.1062 0.9930
vn 0.1697 -0.1300 0.9769
vn 0.1335 0.0684 0.9887
vn 0.1353 0.0228 0.9905
vn 0.1167 0.0729 0.9905
vn 0.1520 -0.1635 0.9748
vn 0.1717 -0.1200 0.9778
vn 0.0391 0.2216 0.9744
vn -0.0115 0.1172 0.9930
vn 0.0019 0.0445 0.9990
vn -0.0775 -0.0569 0.9954
vn -0.0658 0.0492 0.9966
vn -0.2040 -0.0641 0.9769
vn -0.1020 0.1099 0.9887
vn -0.1193 0.0677 0.9905
vn -0.0847 0.1085 0.9905
vn -0.1987 -0.1016 0.9748
vn -0.2023 -0.0541 0.9778
vn -0.0243 -0.1378 0.9902
vn -0.0378 -0.2146 0.9760
vn -0.0522 -0.2959 0.9538
vn -0.0534 0.0800 -0.9954
vn -0.0134 -0.0424 -0.9990
vn -0.0786 -0.0237 -0.9966
vn -0.0509 -0.1062 -0.9930
vn -0.1697 0.1300 -0.9769
vn -0.1335 -0.0684 -0.9887
vn -0.1353 -0.0228 -0.9905
vn -0.1167 -0.0730 -0.9905
vn -0.1520 0.1634 -0.9748
vn -0.1717 0.1200 -0.9778
vn -0.0391 -0.2216 -0.9744
vn 0.0115 -0.1172 -0.9930
vn -0.0019 -0.0445 -0.9990
vn 0.0775 0.0569 -0.9954
vn 0.0658 -0.0492 -0.9966
vn 0.2040 0.0641 -0.9769
vn 0.1021 -0.1099 -0.9887
vn 0.1193 -0.0677 -0.9905
vn 0.0847 -0.1085 -0.9905
vn 0.1987 0.1017 -0.9748
vn 0.2024 0.0540 -0.9778
vn 0.0243 0.1378 -0.9902
vn 0.0378 0.2146 -0.9760
vn 0.0522 0.2959 -0.9538
vn -0.1225 -0.1327 -0.9835
vn -0.0627 -0.1367 -0.9886
vn 0.0725 -0.0175 -0.9972
vn 0.0336 -0.0248 -0.9991
vn -0.0877 -0.1723 -0.9811
vn -0.0360 -0.1714 -0.9845
vn -0.1096 -0.2294 -0.9671
vn 0.1596 0.0389 -0.9864
vn 0.1765 0.0354 -0.9837
vn 0.0022 -0.0089 -1.0000
vn -0.0089 -0.0008 -1.0000
vn 0.1226 0.1327 0.9835
vn -0.0336 0.0248 0.9991
vn -0.0725 0.0175 0.9972
vn 0.0627 0.1367 0.9886
vn 0.0877 0.1723 0.9811
vn 0.0360 0.1714 0.9845
vn 0.1096 0.2294 0.9671
vn -0.1765 -0.0355 0.9837
vn -0.1596 -0.0389 0.9864
vn 0.0089 0.0008 1.0000
vn -0.0022 0.0089 1.0000
vn 0.2286 -0.1020 0.9682
vn 0.1710 -0.1162 0.9784
vn 0.0184 -0.0222 0.9996
vn 0.0581 -0.0227 0.9981
vn 0.2011 -0.1470 0.9685
vn 0.1505 -0.1551 0.9764
vn 0.2312 -0.1995 0.9522
vn -0.0776 0.0182 0.9968
vn -0.0939 0.0118 0.9955
vn 0.0862 -0.0015 0.9963
vn 0.0957 0.0084 0.9954
vn -0.2287 0.1020 -0.9682
vn -0.0581 0.0227 -0.9981
vn -0.0184 0.0222 -0.9996
vn -0.1710 0.1162 -0.9784
vn -0.2011 0.1470 -0.9685
vn -0.1505 0.1551 -0.9764
vn -0.2312 0.1996 -0.9522
vn 0.0939 -0.0118 -0.9955
vn 0.0776 -0.0182 -0.9968
vn -0.0957 -0.0084 -0.9954
vn -0.0862 0.0015 -0.9963
vn -0.0577 -0.0184 -0.9982
vn 0.9977 -0.0668 -0.0091
vn -0.9958 0.0910 0.0081
vn -0.0362 0.0322 0.9988
vn -0.7017 0.7094 -0.0652
vn 0.1252 0.6906 0.7124
vn 0.9509 -0.3034 -0.0617
vn 0.3690 0.2519 -0.8946
vn -0.0339 0.9965 -0.0770
vn 0.5640 0.4237 0.7088
vn -0.0455 0.0132 -0.9989
vn 0.6341 -0.7733 0.0020
vn 0.7042 -0.7099 0.0151
vn -0.0168 -0.0220 -0.9996
vn -0.6852 0.7274 -0.0371
vn -0.6185 0.7857 -0.0029
vn 0.0130 0.0646 0.9978
vn 0.0019 0.0755 0.9971
vn 0.3689 0.2518 -0.8947
vn 0.9509 -0.3033 -0.0617
vn -0.0338 0.9965 -0.0769
vn 0.5640 0.4236 0.7089
vn -0.3656 0.7010 0.6123
vn -0.2673 0.7426 0.6140
vn -0.2794 0.7806 0.5590
vn -0.2076 0.7920 0.5742
vn -0.3536 0.6142 0.7055
vn -0.2040 0.7359 0.6456
vn -0.2425 0.7142 0.6566
vn -0.2077 0.7464 0.6322
vn -0.3888 0.6034 0.6962
vn -0.3446 0.6190 0.7057
vn -0.1084 0.8394 0.5326
vn -0.2243 0.8232 0.5216
vn -0.2825 0.7864 0.5493
vn -0.4006 0.7665 0.5019
vn -0.3060 0.8149 0.4923
vn -0.4535 0.8011 0.3907
vn -0.2669 0.8536 0.4473
vn -0.3105 0.8414 0.4422
vn -0.2615 0.8471 0.4625
vn -0.4825 0.7789 0.4007
vn -0.4446 0.8060 0.3907
vn -0.4455 0.7007 0.5573
vn -0.5119 0.6576 0.5528
vn -0.5798 0.6065 0.5440
vn 0.3656 -0.7010 -0.6123
vn 0.2794 -0.7807 -0.5590
vn 0.2673 -0.7426 -0.6140
vn 0.2077 -0.7920 -0.5742
vn 0.3536 -0.6142 -0.7055
vn 0.2039 -0.7359 -0.6457
vn 0.2424 -0.7142 -0.6566
vn 0.2076 -0.7464 -0.6322
vn 0.3886 -0.6035 -0.6963
vn 0.3447 -0.6191 -0.7057
vn 0.1085 -0.8394 -0.5326
vn 0.2244 -0.8232 -0.5216
vn 0.2825 -0.7864 -0.5493
vn 0.4006 -0.7665 -0.5019
vn 0.3060 -0.8148 -0.4923
vn 0.4535 -0.8011 -0.3907
vn 0.2669 -0.8536 -0.4473
vn 0.3106 -0.8414 -0.4422
vn 0.2615 -0.8472 -0.4625
vn 0.4824 -0.7789 -0.4007
vn 0.4446 -0.8060 -0.3907
vn 0.4455 -0.7007 -0.5573
vn 0.5118 -0.6576 -0.5527
vn 0.5119 -0.6576 -0.5528
vn 0.5798 -0.6065 -0.5440
vn -0.1527 -0.0965 -0.9835
vn -0.0959 -0.1158 -0.9886
vn 0.0655 -0.0357 -0.9972
vn 0.0260 -0.0327 -0.9991
vn -0.1293 -0.1437 -0.9811
vn -0.0792 -0.1562 -0.9845
vn -0.1653 -0.1932 -0.9671
vn 0.1642 -0.0037 -0.9864
vn 0.1796 -0.0114 -0.9837
vn -0.0001 -0.0092 -1.0000
vn -0.0088 0.0015 -1.0000
vn 0.1528 0.0965 0.9835
vn -0.0260 0.0327 0.9991
vn -0.0656 0.0356 0.9972
vn 0.0959 0.1158 0.9886
vn 0.1293 0.1437 0.9811
vn 0.0792 0.1562 0.9845
vn 0.1651 0.1931 0.9672
vn -0.1797 0.0114 0.9837
vn -0.1642 0.0037 0.9864
vn 0.0088 -0.0015 1.0000
vn 0.0001 0.0092 1.0000
vn 0.1944 -0.1577 0.9682
vn 0.1351 -0.1565 0.9784
vn 0.0121 -0.0262 0.9996
vn 0.0503 -0.0370 0.9981
vn 0.1562 -0.1940 0.9685
vn 0.1053 -0.1887 0.9764
vn 0.1718 -0.2526 0.9522
vn -0.0703 0.0377 0.9968
vn -0.0876 0.0357 0.9955
vn 0.0829 -0.0238 0.9963
vn 0.0946 -0.0167 0.9954
vn -0.1944 0.1577 -0.9682
vn -0.0503 0.0370 -0.9981
vn -0.0121 0.0262 -0.9996
vn -0.1351 0.1565 -0.9784
vn -0.1562 0.1940 -0.9685
vn -0.1053 0.1887 -0.9764
vn -0.1718 0.2526 -0.9522
vn 0.0876 -0.0357 -0.9955
vn 0.0703 -0.0377 -0.9968
vn -0.0946 0.0167 -0.9954
vn -0.0829 0.0238 -0.9963
vn -0.9371 -0.2328 0.2601
vn -0.1485 0.2874 0.9462
vn 0.1223 0.9903 0.0654
vn -0.6534 0.4787 -0.5864
vn 0.2673 -0.0407 0.9628
vn -0.7194 -0.6788 0.1475
vn -0.7737 -0.6263 0.0953
vn 0.2045 -0.1044 0.9733
vn 0.7464 0.6515 -0.1358
vn 0.7035 0.6981 -0.1331
vn -0.2388 0.0877 -0.9671
vn -0.2567 0.0943 -0.9619
vn -0.9371 -0.2327 0.2602
vn 0.1222 0.9903 0.0654
vn 0.2538 0.7010 -0.6664
vn 0.1566 0.7426 -0.6511
vn 0.1781 0.7806 -0.5991
vn 0.1048 0.7920 -0.6015
vn 0.2258 0.6142 -0.7562
vn 0.0887 0.7359 -0.6712
vn 0.1247 0.7142 -0.6887
vn 0.0947 0.7464 -0.6587
vn 0.2621 0.6034 -0.7531
vn 0.2168 0.6190 -0.7549
vn 0.0144 0.8393 -0.5434
vn 0.1304 0.8232 -0.5526
vn 0.1828 0.7864 -0.5901
vn 0.3074 0.7665 -0.5639
vn 0.2158 0.8149 -0.5380
vn 0.3788 0.8011 -0.4635
vn 0.1852 0.8537 -0.4868
vn 0.2289 0.8415 -0.4894
vn 0.1773 0.8471 -0.5010
vn 0.4057 0.7788 -0.4784
vn 0.3700 0.8061 -0.4619
vn 0.3420 0.7007 -0.6262
vn 0.4081 0.6576 -0.6332
vn 0.4765 0.6065 -0.6364
vn -0.2538 -0.7010 0.6664
vn -0.1781 -0.7807 0.5991
vn -0.1567 -0.7427 0.6511
vn -0.1048 -0.7920 0.6015
vn -0.2258 -0.6142 0.7562
vn -0.0887 -0.7359 0.6713
vn -0.1248 -0.7141 0.6888
vn -0.0947 -0.7464 0.6587
vn -0.2620 -0.6034 0.7531
vn -0.2169 -0.6191 0.7548
vn -0.0144 -0.8393 0.5434
vn -0.1304 -0.8232 0.5526
vn -0.1828 -0.7864 0.5901
vn -0.3074 -0.7665 0.5639
vn -0.2158 -0.8149 0.5380
vn -0.3788 -0.8011 0.4635
vn -0.1852 -0.8537 0.4868
vn -0.2290 -0.8415 0.4894
vn -0.1772 -0.8472 0.5009
vn -0.4056 -0.7788 0.4784
vn -0.3700 -0.8061 0.4618
vn -0.3420 -0.7007 0.6262
vn -0.4081 -0.6576 0.6332
vn -0.4766 -0.6065 0.6364
s 1
f 1/1/1 2/2/2 3/3/3
f 1/1/1 4/4/4 2/2/2
f 1/1/1 5/5/5 4/6/4
f 1/1/1 3/3/3 5/5/5
s 2
f 6/7/6 7/8/7 8/9/8
f 8/9/8 9/10/9 6/7/6
s 1
f 10/11/10 11/12/11 12/13/12
f 12/13/12 13/14/13 10/11/10
f 14/15/14 11/12/11 10/11/10
f 10/11/10 15/16/15 14/15/14
f 16/17/16 14/18/14 15/19/15
f 15/19/15 17/20/17 16/17/16
f 12/13/12 16/17/16 17/20/17
f 17/20/17 13/14/13 12/13/12
f 18/21/18 19/22/19 3/3/3
f 3/3/3 2/2/2 18/21/18
f 20/23/20 18/21/18 2/2/2
f 2/2/2 4/4/4 20/23/20
f 5/5/5 21/24/21 20/25/20
f 20/25/20 4/6/4 5/5/5
f 3/3/3 19/22/19 21/24/21
f 21/24/21 5/5/5 3/3/3
f 10/11/10 13/14/13 19/22/19
f 19/22/19 18/21/18 10/11/10
f 20/23/20 15/16/15 10/11/10
f 10/11/10 18/21/18 20/23/20
f 21/24/21 17/20/17 15/19/15
f 15/19/15 20/25/20 21/24/21
f 19/22/19 13/14/13 17/20/17
f 17/20/17 21/24/21 19/22/19
s 3
f 22/26/22 23/27/23 24/28/24
f 23/27/23 25/29/25 24/28/24
f 22/26/22 26/30/26 23/27/23
f 23/27/23 27/31/27 25/29/25
f 23/27/23 28/32/28 27/31/27
f 27/31/27 29/33/29 25/29/25
f 22/26/22 30/34/30 26/30/26
f 26/30/26 31/35/31 23/27/23
f 32/36/32 33/37/33 25/29/25
f 24/28/24 25/29/25 33/37/33
f 33/37/33 34/38/34 24/28/24
f 35/39/35 34/38/34 36/40/36
f 36/40/36 34/38/34 33/37/33
f 35/39/35 36/40/36 37/41/37
f 36/40/36 33/37/33 38/42/38
f 36/40/36 38/42/38 39/43/39
f 38/42/38 33/37/33 40/44/40
f 35/39/35 37/41/37 41/45/41
f 37/41/37 36/40/36 42/46/42
f 22/26/22 35/39/35 43/47/43
f 43/47/43 44/48/43 22/26/22
f 44/48/43 43/47/43 45/49/44
f 45/49/44 46/50/44 44/48/43
f 22/26/22 24/28/24 34/38/34
f 34/38/34 35/39/35 22/26/22
f 47/51/45 46/50/44 45/49/44
s 4
f 48/52/46 49/53/47 50/54/48
f 50/54/48 49/53/47 51/55/49
f 48/52/46 50/54/48 52/56/50
f 50/54/48 51/55/49 53/57/51
f 50/54/48 53/57/51 54/58/52
f 53/57/51 51/55/49 55/59/53
f 48/52/46 52/56/50 56/60/54
f 52/56/50 50/54/48 57/61/55
f 58/62/56 51/55/49 59/63/57
f 49/53/47 60/64/58 59/63/57
f 59/63/57 51/55/49 49/53/47
f 61/65/59 62/66/60 60/64/58
f 62/66/60 59/63/57 60/64/58
f 61/65/59 63/67/61 62/66/60
f 62/66/60 64/68/62 59/63/57
f 62/66/60 65/69/63 64/68/62
f 64/68/62 66/70/64 59/63/57
f 61/65/59 67/71/65 63/67/61
f 63/67/61 68/72/66 62/66/60
f 48/52/46 69/73/67 70/74/67
f 70/74/67 61/65/59 48/52/46
f 69/73/67 71/75/68 72/76/68
f 72/76/68 70/74/67 69/73/67
f 48/52/46 61/65/59 60/64/58
f 60/64/58 49/53/47 48/52/46
f 73/77/69 72/76/68 71/75/68
s 5
f 74/78/70 75/79/71 76/80/72
f 76/80/72 77/81/73 74/78/70
f 78/82/74 79/83/75 75/79/71
f 75/79/71 74/78/70 78/82/74
f 78/82/74 80/84/76 79/83/75
f 77/81/73 76/80/72 81/85/77
f 81/85/77 82/86/78 77/81/73
f 82/86/78 81/85/77 83/87/79
f 83/87/79 84/88/80 82/86/78
s 6
f 85/89/81 86/90/82 87/91/83
f 87/91/83 88/92/84 85/89/81
f 89/93/85 85/89/81 88/92/84
f 88/92/84 90/94/86 89/93/85
f 89/93/85 90/94/86 91/95/87
f 86/90/82 92/96/88 93/97/89
f 93/97/89 87/91/83 86/90/82
f 92/96/88 94/98/90 95/99/91
f 95/99/91 93/97/89 92/96/88
s 7
f 96/100/92 97/101/93 98/102/94
f 98/102/94 99/103/95 96/100/92
f 100/104/96 101/105/97 97/101/93
f 97/101/93 96/100/92 100/104/96
f 100/104/96 102/106/98 101/105/97
f 99/103/95 98/102/94 103/107/99
f 103/107/99 104/108/100 99/103/95
f 104/108/100 103/107/99 105/109/101
f 105/109/101 106/110/102 104/108/100
s 8
f 107/111/103 108/112/104 109/113/105
f 109/113/105 110/114/106 107/111/103
f 111/115/107 107/111/103 110/114/106
f 110/114/106 112/116/108 111/115/107
f 111/115/107 112/116/108 113/117/109
f 108/112/104 114/118/110 115/119/111
f 115/119/111 109/113/105 108/112/104
f 114/118/110 116/120/112 117/121/113
f 117/121/113 115/119/111 114/118/110
s 1
f 118/122/114 119/123/115 12/13/12
f 12/13/12 11/12/11 118/122/114
f 14/15/14 120/124/116 118/122/114
f 118/122/114 11/12/11 14/15/14
f 121/125/117 120/126/116 14/18/14
f 14/18/14 16/17/16 121/125/117
f 119/123/115 121/125/117 16/17/16
f 16/17/16 12/13/12 119/123/115
f 7/127/7 6/7/6 119/123/115
f 119/123/115 118/122/114 7/127/7
f 120/124/116 8/128/118 7/127/7
f 7/127/7 118/122/114 120/124/116
f 121/125/117 9/10/119 8/129/118
f 8/129/118 120/126/116 121/125/117
f 6/7/6 9/10/119 121/125/117
f 121/125/117 119/123/115 6/7/6
s 9
f 122/130/120 123/131/121 124/132/122
f 124/132/122 125/133/123 122/130/120
s 10
f 126/134/124 127/135/125 128/136/126
f 128/136/126 129/137/127 126/134/124
f 130/138/128 131/139/129 126/134/124
f 126/134/124 129/137/127 130/138/128
f 132/140/130 131/141/129 130/142/128
f 130/142/128 133/143/131 132/140/130
f 127/135/125 132/140/130 133/143/131
f 133/143/131 128/136/126 127/135/125
f 123/144/132 122/130/133 127/135/125
f 127/135/125 126/134/124 123/144/132
f 131/139/129 124/145/134 123/144/132
f 123/144/132 126/134/124 131/139/129
f 132/140/130 125/133/135 124/146/134
f 124/146/134 131/141/129 132/140/130
f 122/130/133 125/133/135 132/140/130
f 132/140/130 127/135/125 122/130/133
s 11
f 134/147/136 135/148/137 136/149/138
f 135/148/137 137/150/139 136/149/138
f 134/147/136 138/151/140 135/148/137
f 135/148/137 139/152/141 137/150/139
f 135/148/137 140/153/142 139/152/141
f 139/152/141 141/154/143 137/150/139
f 134/147/136 142/155/144 138/151/140
f 138/151/140 143/156/145 135/148/137
f 144/157/146 145/158/147 137/150/139
f 136/149/138 137/150/139 145/158/147
f 145/158/147 146/159/148 136/149/138
f 147/160/149 146/159/148 148/161/150
f 148/161/150 146/159/148 145/158/147
f 147/160/149 148/161/150 149/162/151
f 148/161/150 145/158/147 150/163/152
f 148/161/150 150/163/152 151/164/153
f 150/163/152 145/158/147 152/165/154
f 147/160/149 149/162/151 153/166/155
f 149/162/151 148/161/150 154/167/156
f 134/147/136 147/160/149 155/168/157
f 155/168/157 156/169/157 134/147/136
f 156/169/157 155/168/157 157/170/158
f 157/170/158 158/171/158 156/169/157
f 134/147/136 136/149/138 146/159/148
f 146/159/148 147/160/149 134/147/136
f 159/172/159 158/171/158 157/170/158
s 12
f 160/173/160 161/174/161 162/175/162
f 162/175/162 161/174/161 163/176/163
f 160/173/160 162/175/162 164/177/164
f 162/175/162 163/176/163 165/178/165
f 162/175/162 165/178/165 166/179/166
f 165/178/165 163/176/163 167/180/167
f 160/173/160 164/177/164 168/181/168
f 164/177/164 162/175/162 169/182/169
f 170/183/170 163/176/163 171/184/171
f 161/174/161 172/185/172 171/184/171
f 171/184/171 163/176/163 161/174/161
f 173/186/173 174/187/174 172/185/172
f 174/187/174 171/184/171 172/185/172
f 173/186/173 175/188/175 174/187/174
f 174/187/174 176/189/176 171/184/171
f 174/187/174 177/190/177 176/189/176
f 176/189/176 178/191/178 171/184/171
f 173/186/173 179/192/179 175/188/175
f 175/188/175 180/193/180 174/187/174
f 160/173/160 181/194/181 182/195/181
f 182/195/181 173/186/173 160/173/160
f 181/194/181 183/196/182 184/197/183
f 184/197/183 182/195/181 181/194/181
f 160/173/160 173/186/173 172/185/172
f 172/185/172 161/174/161 160/173/160
f 185/198/184 184/197/183 183/196/182
s 13
f 186/199/185 187/200/186 188/201/187
f 188/201/187 189/202/188 186/199/185
f 190/203/189 191/204/190 187/200/186
f 187/200/186 186/199/185 190/203/189
f 190/203/189 192/205/191 191/204/190
f 189/202/188 188/201/187 193/206/192
f 193/206/192 194/207/193 189/202/188
f 194/207/193 193/206/192 195/208/194
f 195/208/194 196/209/195 194/207/193
s 14
f 197/210/196 198/211/197 199/212/198
f 199/212/198 200/213/199 197/210/196
f 201/214/200 197/210/196 200/213/199
f 200/213/199 202/215/201 201/214/200
f 201/214/200 202/215/201 203/216/202
f 198/211/197 204/217/203 205/218/204
f 205/218/204 199/212/198 198/211/197
f 204/217/203 206/219/205 207/220/206
f 207/220/206 205/218/204 204/217/203
s 15
f 208/221/207 209/222/208 210/223/209
f 210/223/209 211/224/210 208/221/207
f 212/225/211 213/226/212 209/222/208
f 209/222/208 208/221/207 212/225/211
f 212/225/211 214/227/213 213/226/212
f 211/224/210 210/223/209 215/228/214
f 215/228/214 216/229/215 211/224/210
f 216/229/215 215/228/214 217/230/216
f 217/230/216 218/231/217 216/229/215
s 16
f 219/232/218 220/233/219 221/234/220
f 221/234/220 222/235/221 219/232/218
f 223/236/222 219/232/218 222/235/221
f 222/235/221 224/237/223 223/236/222
f 223/236/222 224/237/223 225/238/224
f 220/233/219 226/239/225 227/240/226
f 227/240/226 221/234/220 220/233/219
f 226/239/225 228/241/227 229/242/228
f 229/242/228 227/240/226 226/239/225
s 17
f 230/243/229 231/244/230 232/245/231
f 232/245/231 233/246/232 230/243/229
s 18
f 234/247/233 235/248/234 236/249/235
f 236/249/235 237/250/236 234/247/233
f 238/251/237 239/252/238 234/247/233
f 234/247/233 237/250/236 238/251/237
f 240/253/239 239/254/238 238/255/237
f 238/255/237 241/256/240 240/253/239
f 235/248/234 240/253/239 241/256/240
f 241/256/240 236/249/235 235/248/234
f 231/257/230 230/243/241 235/248/234
f 235/248/234 234/247/233 231/257/230
f 239/252/238 232/258/242 231/257/230
f 231/257/230 234/247/233 239/252/238
f 240/253/239 233/246/232 232/259/242
f 232/259/242 239/254/238 240/253/239
f 230/243/241 233/246/232 240/253/239
f 240/253/239 235/248/234 230/243/241
s 19
f 242/260/243 243/261/244 244/262/245
f 243/261/244 245/263/246 244/262/245
f 242/260/243 246/264/247 243/261/244
f 243/261/244 247/265/248 245/263/246
f 243/261/244 248/266/249 247/265/248
f 247/265/248 249/267/250 245/263/246
f 242/260/243 250/268/251 246/264/247
f 246/264/247 251/269/252 243/261/244
f 252/270/253 253/271/254 245/263/246
f 244/262/245 245/263/246 253/271/254
f 253/271/254 254/272/255 244/262/245
f 255/273/256 254/272/255 256/274/257
f 256/274/257 254/272/255 253/271/254
f 255/273/256 256/274/257 257/275/258
f 256/274/257 253/271/254 258/276/259
f 256/274/257 258/276/259 259/277/260
f 258/276/259 253/271/254 260/278/261
f 255/273/256 257/275/258 261/279/262
f 257/275/258 256/274/257 262/280/263
f 242/260/243 255/273/256 263/281/264
f 263/281/264 264/282/264 242/260/243
f 264/282/264 263/281/264 265/283/265
f 265/283/265 266/284/265 264/282/264
f 242/260/243 244/262/245 254/272/255
f 254/272/255 255/273/256 242/260/243
f 267/285/266 266/284/265 265/283/265
s 20
f 268/286/267 269/287/268 270/288/269
f 270/288/269 269/287/268 271/289/270
f 268/286/267 270/288/269 272/290/271
f 270/288/269 271/289/270 273/291/272
f 270/288/269 273/291/272 274/292/273
f 273/291/272 271/289/270 275/293/274
f 268/286/267 272/290/271 276/294/275
f 272/290/271 270/288/269 277/295/276
f 278/296/277 271/289/270 279/297/278
f 269/287/268 280/298/279 279/297/278
f 279/297/278 271/289/270 269/287/268
f 281/299/280 282/300/281 280/298/279
f 282/300/281 279/297/278 280/298/279
f 281/299/280 283/301/282 282/300/281
f 282/300/281 284/302/283 279/297/278
f 282/300/281 285/303/284 284/302/283
f 284/302/283 286/304/285 279/297/278
f 281/299/280 287/305/286 283/301/282
f 283/301/282 288/306/287 282/300/281
f 268/286/267 289/307/288 290/308/288
f 290/308/288 281/299/280 268/286/267
f 289/307/288 291/309/289 292/310/289
f 292/310/289 290/308/288 289/307/288
f 268/286/267 281/299/280 280/298/279
f 280/298/279 269/287/268 268/286/267
f 293/311/290 292/310/289 291/309/289
