# Blender v3.3.0 OBJ File: ''
# www.blender.org
o WatermelonStage02.005
v 0.000000 -0.015361 -0.001509
v 0.000000 0.000845 -0.009738
v 0.009610 0.000007 -0.000164
v -0.009610 0.000007 -0.000164
v 0.000000 -0.000830 0.009409
v 0.065174 0.047208 -0.103770
v 0.064832 0.045110 -0.105132
v 0.064990 0.046465 -0.107257
v 0.065332 0.048562 -0.105894
v 0.004252 0.097124 0.002657
v 0.001922 0.122491 -0.002815
v 0.005338 0.123081 0.000539
v 0.007898 0.097124 0.006304
v 0.000606 0.097124 0.006304
v -0.001484 0.123197 0.000519
v 0.001932 0.123787 0.003873
v 0.004252 0.097124 0.009950
v 0.000000 0.008625 -0.005740
v 0.006306 0.008076 0.000542
v -0.006306 0.008076 0.000542
v 0.000000 0.007526 0.006823
v -0.005068 0.109786 -0.051429
v -0.003130 0.076887 -0.069662
v -0.000250 0.078778 -0.070263
v -0.002343 0.111847 -0.053150
v -0.007753 0.111543 -0.053513
v -0.004710 0.078375 -0.072398
v -0.001830 0.080266 -0.072999
v -0.005028 0.113604 -0.055234
v 0.041018 0.052642 -0.102123
v 0.041950 0.054792 -0.100593
v 0.016184 0.061813 -0.089494
v 0.013972 0.060092 -0.090974
v 0.014853 0.061310 -0.093764
v 0.041343 0.054151 -0.104511
v 0.017065 0.063031 -0.092284
v 0.042275 0.056301 -0.102981
v -0.000408 0.137928 -0.015397
v -0.002738 0.132678 -0.031584
v 0.000217 0.134923 -0.033460
v 0.002778 0.140985 -0.014574
v -0.003574 0.141046 -0.014803
v -0.005663 0.134694 -0.033732
v -0.002708 0.136938 -0.035609
v -0.000388 0.144103 -0.013980
v 0.060507 0.140669 -0.020100
v 0.058507 0.141739 -0.021207
v 0.058351 0.143404 -0.019315
v 0.060351 0.142333 -0.018209
v 0.027272 0.119384 -0.008673
v 0.029635 0.117883 -0.007187
v 0.003339 0.090219 0.004060
v 0.000845 0.091597 0.002534
v 0.000265 0.093490 0.005179
v 0.026916 0.121331 -0.006197
v 0.029279 0.119829 -0.004711
v 0.002442 0.091989 0.006820
v 0.118517 0.182581 -0.065024
v 0.083601 0.172545 -0.060603
v 0.084418 0.161048 -0.046058
v 0.054999 0.149004 -0.031848
v 0.111980 0.202511 -0.081358
v 0.061620 0.194411 -0.083017
v 0.077454 0.189257 -0.077685
v 0.051858 0.185686 -0.072915
v 0.117684 0.197433 -0.076544
v 0.099916 0.197594 -0.078735
v 0.057321 0.139860 -0.017919
v 0.071293 0.133897 -0.010694
v 0.100823 0.145839 -0.024761
v 0.140838 0.161887 -0.036046
v 0.117134 0.141457 -0.017070
v 0.160378 0.157641 -0.018526
v 0.135408 0.126002 0.012779
v 0.135708 0.135251 -0.002058
v 0.119191 0.123262 0.014499
v 0.156681 0.161279 -0.025916
v 0.150627 0.150580 -0.012900
v 0.161517 0.176976 -0.045990
v 0.142705 0.194416 -0.070412
v 0.169564 0.190923 -0.056464
v 0.161178 0.198696 -0.067350
v 0.170221 0.198753 -0.062826
v 0.118540 0.182115 -0.065373
v 0.084440 0.160582 -0.046408
v 0.083624 0.172079 -0.060953
v 0.055021 0.148538 -0.032197
v 0.112002 0.202046 -0.081708
v 0.061642 0.193945 -0.083366
v 0.077477 0.188792 -0.078034
v 0.051880 0.185220 -0.073265
v 0.117707 0.196967 -0.076893
v 0.099938 0.197128 -0.079085
v 0.057343 0.139395 -0.018269
v 0.071315 0.133431 -0.011043
v 0.100845 0.145373 -0.025110
v 0.140860 0.161422 -0.036396
v 0.117156 0.140991 -0.017420
v 0.160400 0.157176 -0.018875
v 0.135430 0.125536 0.012429
v 0.135730 0.134785 -0.002407
v 0.119213 0.122796 0.014150
v 0.156703 0.160813 -0.026266
v 0.150649 0.150114 -0.013250
v 0.142727 0.193951 -0.070762
v 0.161539 0.176510 -0.046339
v 0.161201 0.198231 -0.067699
v 0.169586 0.190457 -0.056813
v 0.170243 0.198288 -0.063175
v -0.043520 0.149722 0.040604
v -0.041358 0.150793 0.041346
v -0.041533 0.152457 0.039456
v -0.043695 0.151387 0.038714
v -0.016894 0.122512 0.023236
v -0.019479 0.121011 0.022183
v 0.000385 0.090219 0.005437
v 0.003106 0.091597 0.006507
v 0.003217 0.093490 0.003802
v -0.016973 0.124458 0.020736
v -0.019558 0.122957 0.019683
v 0.000789 0.091989 0.002563
v -0.092849 0.191634 0.094918
v -0.059231 0.181598 0.084502
v -0.062560 0.170101 0.070319
v -0.036056 0.158057 0.051216
v -0.083574 0.211565 0.109869
v -0.033691 0.203464 0.102757
v -0.050211 0.198311 0.100256
v -0.025832 0.194740 0.091114
v -0.090028 0.206486 0.106118
v -0.072149 0.206647 0.105191
v -0.040761 0.148914 0.037902
v -0.055776 0.142951 0.033213
v -0.082414 0.154892 0.052194
v -0.119862 0.170941 0.070256
v -0.099813 0.150510 0.047452
v -0.142147 0.166695 0.056395
v -0.122992 0.135055 0.021231
v -0.120711 0.144304 0.035893
v -0.107321 0.132315 0.016720
v -0.137223 0.170332 0.063032
v -0.133521 0.159633 0.049162
v -0.138500 0.186029 0.083640
v -0.115733 0.203470 0.104425
v -0.144606 0.199976 0.095352
v -0.134458 0.207750 0.104616
v -0.144148 0.207807 0.101731
v -0.092810 0.191168 0.095266
v -0.062521 0.169635 0.070668
v -0.059192 0.181132 0.084850
v -0.036017 0.157591 0.051564
v -0.083535 0.211099 0.110217
v -0.033652 0.202999 0.103106
v -0.050172 0.197845 0.100604
v -0.025793 0.194274 0.091463
v -0.089989 0.206020 0.106466
v -0.072110 0.206182 0.105539
v -0.040722 0.148448 0.038250
v -0.055737 0.142485 0.033561
v -0.082375 0.154426 0.052542
v -0.119823 0.170475 0.070605
v -0.099774 0.150044 0.047801
v -0.142108 0.166229 0.056744
v -0.122953 0.134590 0.021579
v -0.120673 0.143838 0.036242
v -0.107282 0.131849 0.017068
v -0.137184 0.169867 0.063380
v -0.133482 0.159168 0.049510
v -0.115694 0.203004 0.104773
v -0.138461 0.185564 0.083988
v -0.134419 0.207284 0.104965
v -0.144567 0.199510 0.095700
v -0.144109 0.207341 0.102080
v 0.051229 0.063741 -0.169010
v 0.020665 0.070887 -0.172880
v 0.010613 0.064518 -0.146173
v 0.048336 0.054296 -0.145104
v 0.050014 0.069092 -0.182728
v 0.034261 0.072784 -0.187791
v 0.044554 0.073057 -0.191234
v 0.015376 0.065304 -0.118549
v 0.043316 0.058204 -0.122063
v 0.027481 0.057828 -0.097433
v 0.040440 0.054816 -0.101641
v 0.051179 0.063551 -0.169031
v 0.048285 0.054107 -0.145125
v 0.010562 0.064328 -0.146194
v 0.020614 0.070697 -0.172900
v 0.049963 0.068902 -0.182749
v 0.034210 0.072594 -0.187811
v 0.044503 0.072867 -0.191255
v 0.043265 0.058014 -0.122083
v 0.015325 0.065114 -0.118569
v 0.040390 0.054626 -0.101662
v 0.027430 0.057638 -0.097454
v 0.118479 0.074131 -0.144302
v 0.083539 0.063389 -0.146080
v 0.078724 0.062019 -0.128209
v 0.045554 0.055771 -0.119654
v 0.119040 0.080663 -0.170066
v 0.071729 0.066010 -0.182375
v 0.084515 0.066915 -0.170482
v 0.058627 0.062999 -0.172747
v 0.122477 0.079924 -0.161750
v 0.106511 0.076359 -0.169024
v 0.042509 0.056213 -0.103115
v 0.052860 0.057229 -0.089893
v 0.086079 0.063487 -0.098246
v 0.128487 0.076129 -0.103534
v 0.098573 0.066390 -0.084834
v 0.140739 0.084994 -0.081669
v 0.104811 0.072614 -0.047604
v 0.110632 0.072128 -0.064085
v 0.088814 0.069025 -0.049766
v 0.139961 0.083414 -0.090524
v 0.129246 0.080898 -0.076403
v 0.152202 0.086001 -0.113244
v 0.143768 0.084318 -0.147603
v 0.164143 0.092869 -0.126631
v 0.160384 0.092119 -0.141946
v 0.167378 0.095919 -0.135711
v 0.118588 0.073559 -0.144301
v 0.078833 0.061447 -0.128208
v 0.083648 0.062817 -0.146078
v 0.045663 0.055199 -0.119652
v 0.119149 0.080091 -0.170065
v 0.071838 0.065438 -0.182374
v 0.084624 0.066343 -0.170481
v 0.058735 0.062427 -0.172745
v 0.122586 0.079351 -0.161749
v 0.106619 0.075787 -0.169023
v 0.042617 0.055641 -0.103114
v 0.052968 0.056657 -0.089891
v 0.086188 0.062915 -0.098245
v 0.128595 0.075556 -0.103533
v 0.098681 0.065817 -0.084832
v 0.140847 0.084422 -0.081668
v 0.104920 0.072041 -0.047603
v 0.110740 0.071556 -0.064084
v 0.088923 0.068452 -0.049765
v 0.140069 0.082841 -0.090523
v 0.129355 0.080325 -0.076402
v 0.143876 0.083745 -0.147602
v 0.152310 0.085429 -0.113243
v 0.160492 0.091546 -0.141944
v 0.164252 0.092297 -0.126629
v 0.167487 0.095347 -0.135710
v 0.086309 0.062554 -0.051441
v 0.063276 0.070148 -0.031143
v 0.040856 0.072702 -0.049735
v 0.071745 0.065541 -0.072609
v 0.092426 0.062100 -0.038001
v 0.082366 0.066830 -0.025200
v 0.092409 0.063221 -0.027201
v 0.028109 0.062613 -0.072586
v 0.053441 0.058057 -0.086037
v 0.026559 0.058380 -0.097645
v 0.039777 0.056714 -0.101794
v 0.086318 0.062746 -0.051489
v 0.071755 0.065733 -0.072656
v 0.040865 0.072893 -0.049783
v 0.063285 0.070340 -0.031190
v 0.092436 0.062292 -0.038048
v 0.082376 0.067022 -0.025248
v 0.092419 0.063413 -0.027248
v 0.053450 0.058249 -0.086084
v 0.028118 0.062804 -0.072634
v 0.039787 0.056906 -0.101842
v 0.026568 0.058571 -0.097693
v -0.169285 0.081522 0.008625
v -0.138369 0.070779 0.025002
v -0.126454 0.069410 0.010841
v -0.092776 0.063162 0.017105
v -0.180682 0.088054 0.031738
v -0.143006 0.073401 0.062888
v -0.149567 0.074306 0.046706
v -0.127062 0.070390 0.059699
v -0.180282 0.087314 0.022749
v -0.168886 0.083750 0.036089
v -0.083026 0.063604 0.003403
v -0.086819 0.064620 -0.012955
v -0.120456 0.070878 -0.019423
v -0.161125 0.083519 -0.032553
v -0.126111 0.073780 -0.036859
v -0.162989 0.092385 -0.057547
v -0.116031 0.080004 -0.073237
v -0.128271 0.079519 -0.060760
v -0.102447 0.076415 -0.064517
v -0.166026 0.090804 -0.049193
v -0.150348 0.088288 -0.057463
v -0.186722 0.093392 -0.033775
v -0.193599 0.091708 0.000929
v -0.203202 0.100260 -0.026689
v -0.206267 0.099509 -0.011221
v -0.209972 0.103310 -0.019827
v -0.169383 0.080949 0.008577
v -0.126551 0.068837 0.010794
v -0.138467 0.070207 0.024955
v -0.092873 0.062589 0.017058
v -0.180780 0.087481 0.031691
v -0.143103 0.072828 0.062841
v -0.149665 0.073733 0.046658
v -0.127159 0.069817 0.059652
v -0.180380 0.086742 0.022701
v -0.168984 0.083177 0.036041
v -0.083124 0.063031 0.003356
v -0.086917 0.064047 -0.013002
v -0.120554 0.070305 -0.019470
v -0.161223 0.082946 -0.032600
v -0.126209 0.073208 -0.036906
v -0.163087 0.091812 -0.057594
v -0.116129 0.079432 -0.073284
v -0.128369 0.078946 -0.060807
v -0.102545 0.075843 -0.064564
v -0.166124 0.090232 -0.049240
v -0.150446 0.087715 -0.057510
v -0.193697 0.091136 0.000882
v -0.186820 0.092819 -0.033822
v -0.206365 0.098937 -0.011268
v -0.203300 0.099687 -0.026737
v -0.210070 0.102737 -0.019874
v -0.125391 0.078532 -0.045419
v -0.106652 0.093021 -0.066375
v -0.082177 0.095214 -0.050532
v -0.108301 0.079538 -0.026028
v -0.133335 0.079742 -0.057817
v -0.125897 0.088183 -0.070499
v -0.135047 0.082864 -0.068074
v -0.065107 0.082938 -0.031976
v -0.087468 0.072360 -0.016763
v -0.059385 0.077216 -0.008705
v -0.071561 0.070047 -0.003406
v -0.125415 0.078708 -0.045333
v -0.108325 0.079714 -0.025942
v -0.082202 0.095390 -0.050445
v -0.106677 0.093197 -0.066288
v -0.133360 0.079918 -0.057730
v -0.125921 0.088359 -0.070413
v -0.135071 0.083040 -0.067988
v -0.087492 0.072536 -0.016676
v -0.065131 0.083114 -0.031889
v -0.071585 0.070223 -0.003319
v -0.059409 0.077392 -0.008618
v -0.103928 0.089286 0.056299
v -0.080419 0.110118 0.059981
v -0.062986 0.101934 0.037982
v -0.092271 0.076038 0.037388
v -0.108030 0.098119 0.067410
v -0.096601 0.109698 0.072177
v -0.106641 0.106255 0.074464
v -0.061378 0.092957 0.011463
v -0.084216 0.075348 0.014893
v -0.064477 0.075424 -0.006738
v -0.075757 0.068197 -0.002830
v -0.103812 0.089153 0.056388
v -0.092155 0.075905 0.037476
v -0.062870 0.101801 0.038070
v -0.080303 0.109985 0.060069
v -0.107914 0.097985 0.067499
v -0.096485 0.109565 0.072265
v -0.106525 0.106122 0.074553
v -0.084100 0.075215 0.014981
v -0.061262 0.092823 0.011552
v -0.075641 0.068064 -0.002742
v -0.064361 0.075291 -0.006649
v -0.037287 0.109786 -0.006054
v -0.057992 0.076887 -0.009244
v -0.060304 0.078778 -0.011064
v -0.039239 0.111847 -0.008619
v -0.039128 0.111543 -0.003198
v -0.059072 0.078375 -0.006275
v -0.061384 0.080266 -0.008095
v -0.041080 0.113604 -0.005763
v 0.000056 0.136727 -0.013837
v -0.017719 0.132678 -0.010105
v -0.019846 0.134923 -0.012886
v -0.000442 0.140553 -0.017082
v 0.000096 0.140415 -0.011085
v -0.019605 0.134694 -0.007004
v -0.021732 0.136938 -0.009784
v -0.000388 0.144103 -0.013980
v -0.083908 0.060092 0.002591
v -0.086493 0.061813 0.001957
v -0.083782 0.061310 0.005515
v -0.086367 0.063031 0.004880
v 0.088322 0.047208 0.087568
v 0.089719 0.045110 0.087713
v 0.091661 0.046465 0.088589
v 0.090264 0.048562 0.088444
v 0.063162 0.109786 0.003661
v 0.079632 0.076887 0.011719
v 0.079212 0.078778 0.014631
v 0.063847 0.111847 0.006811
v 0.066038 0.111543 0.001851
v 0.082743 0.078375 0.011170
v 0.082323 0.080266 0.014082
v 0.066723 0.113604 0.005001
v 0.095035 0.052642 0.064307
v 0.093279 0.054792 0.064659
v 0.091662 0.061813 0.036650
v 0.093809 0.060092 0.035078
v 0.096129 0.061310 0.036860
v 0.097168 0.054151 0.065429
v 0.093982 0.063031 0.038433
v 0.095412 0.056301 0.065781
v 0.000018 0.136618 -0.013463
v 0.036170 0.132678 -0.003641
v 0.036922 0.134923 -0.000222
v -0.001650 0.140304 -0.011611
v 0.000397 0.140415 -0.016809
v 0.039189 0.134694 -0.005655
v 0.039942 0.136938 -0.002236
v -0.000388 0.144103 -0.013980
v 0.162352 0.064826 0.077088
v 0.168870 0.071972 0.046977
v 0.143142 0.065603 0.034636
v 0.138789 0.055382 0.072122
v 0.176123 0.070177 0.077073
v 0.182540 0.073870 0.061821
v 0.185073 0.074143 0.072375
v 0.115207 0.066389 0.036973
v 0.116273 0.059289 0.065112
v 0.093117 0.058913 0.047191
v 0.096179 0.055902 0.060468
v 0.162377 0.064637 0.077039
v 0.138814 0.055192 0.072073
v 0.143167 0.065413 0.034587
v 0.168896 0.071782 0.046928
v 0.176149 0.069987 0.077024
v 0.182565 0.073680 0.061772
v 0.185098 0.073953 0.072326
v 0.116298 0.059099 0.065064
v 0.115232 0.066199 0.036924
v 0.096204 0.055712 0.060419
v 0.093142 0.058723 0.047143
v 0.033411 0.059035 0.094232
v 0.019766 0.068594 0.067350
v 0.043528 0.072357 0.050735
v 0.057627 0.062635 0.085882
v 0.018845 0.058407 0.096624
v 0.009085 0.064065 0.083969
v 0.008418 0.059728 0.093900
v 0.068899 0.062756 0.043625
v 0.075335 0.056195 0.071173
v 0.093505 0.058173 0.048295
v 0.094092 0.055514 0.061981
v 0.033455 0.059225 0.094267
v 0.057670 0.062824 0.085917
v 0.043571 0.072546 0.050770
v 0.019809 0.068784 0.067385
v 0.018889 0.058597 0.096659
v 0.009128 0.064255 0.084004
v 0.008461 0.059918 0.093935
v 0.075378 0.056385 0.071208
v 0.068942 0.062945 0.043660
v 0.094135 0.055703 0.062016
v 0.093549 0.058363 0.048330
v 0.136599 0.074219 0.141752
v 0.138377 0.063477 0.106811
v 0.120507 0.062107 0.101997
v 0.111951 0.055859 0.068827
v 0.162364 0.080751 0.142313
v 0.174672 0.066098 0.095002
v 0.162779 0.067003 0.107787
v 0.165044 0.063087 0.081899
v 0.154048 0.080012 0.145750
v 0.161322 0.076447 0.129783
v 0.095412 0.056301 0.065781
v 0.082190 0.057317 0.076132
v 0.090544 0.063575 0.109352
v 0.095832 0.076216 0.151759
v 0.077131 0.066478 0.121845
v 0.073967 0.085082 0.164011
v 0.039901 0.072702 0.128083
v 0.056382 0.072216 0.133904
v 0.042064 0.069113 0.112087
v 0.082822 0.083502 0.163233
v 0.068701 0.080985 0.152518
v 0.105542 0.086089 0.175474
v 0.139901 0.084406 0.167040
v 0.118928 0.092957 0.187416
v 0.134243 0.092207 0.183656
v 0.128009 0.096007 0.190651
v 0.136598 0.073646 0.141860
v 0.120505 0.061535 0.102105
v 0.138376 0.062904 0.106920
v 0.111950 0.055286 0.068935
v 0.162362 0.080179 0.142421
v 0.174671 0.065526 0.095110
v 0.162778 0.066430 0.107896
v 0.165043 0.062515 0.082008
v 0.154046 0.079439 0.145858
v 0.161320 0.075875 0.129892
v 0.095411 0.055729 0.065890
v 0.082189 0.056745 0.076241
v 0.090542 0.063003 0.109460
v 0.095830 0.075644 0.151867
v 0.077130 0.065905 0.121954
v 0.073965 0.084510 0.164120
v 0.039900 0.072129 0.128192
v 0.056381 0.071644 0.134013
v 0.042062 0.068540 0.112195
v 0.082820 0.082929 0.163342
v 0.068699 0.080413 0.152627
v 0.139899 0.083833 0.167149
v 0.105540 0.085517 0.175582
v 0.134242 0.091634 0.183765
v 0.118927 0.092384 0.187524
v 0.128007 0.095435 0.190759
vt 0.948000 0.731700
vt 0.966900 0.754300
vt 0.948500 0.757500
vt 0.986100 0.746300
vt 0.930100 0.755000
vt 0.910700 0.747100
vt 0.949400 0.973700
vt 0.950200 0.977500
vt 0.945500 0.978200
vt 0.944500 0.974400
vt 0.961700 0.901700
vt 0.960800 0.910700
vt 0.951700 0.910300
vt 0.952000 0.901200
vt 0.971600 0.902300
vt 0.970000 0.911300
vt 0.942600 0.910400
vt 0.933500 0.911100
vt 0.932600 0.902100
vt 0.942300 0.901200
vt 0.968200 0.765500
vt 0.948800 0.767500
vt 0.986000 0.764400
vt 0.929100 0.766600
vt 0.911000 0.764800
vt 0.958000 0.937700
vt 0.957100 0.946600
vt 0.950400 0.946500
vt 0.950700 0.937400
vt 0.965400 0.938300
vt 0.963800 0.947300
vt 0.943700 0.947000
vt 0.937000 0.947400
vt 0.936100 0.938300
vt 0.943400 0.937800
vt 0.955300 0.964600
vt 0.949700 0.964600
vt 0.950000 0.955600
vt 0.956200 0.955600
vt 0.962300 0.956300
vt 0.960700 0.965400
vt 0.944000 0.956100
vt 0.944300 0.965300
vt 0.938800 0.965500
vt 0.937900 0.956400
vt 0.959900 0.919700
vt 0.959000 0.928700
vt 0.951000 0.928400
vt 0.951400 0.919300
vt 0.968500 0.920300
vt 0.966900 0.929300
vt 0.943200 0.928700
vt 0.935200 0.929200
vt 0.934400 0.920200
vt 0.942900 0.919500
vt 0.954400 0.973600
vt 0.959200 0.974400
vt 0.939700 0.974500
vt 0.949400 0.973700
vt 0.950200 0.977500
vt 0.945500 0.978200
vt 0.944500 0.974400
vt 0.956200 0.955600
vt 0.950000 0.955600
vt 0.950700 0.937400
vt 0.958000 0.937700
vt 0.965400 0.938300
vt 0.962300 0.956300
vt 0.944000 0.956100
vt 0.937900 0.956400
vt 0.936100 0.938300
vt 0.943400 0.937800
vt 0.954400 0.973600
vt 0.959200 0.974400
vt 0.939700 0.974500
vt 0.151100 0.843000
vt 0.119400 0.737100
vt 0.168100 0.709500
vt 0.168600 0.604300
vt 0.075300 0.869500
vt 0.004000 0.730800
vt 0.048300 0.759500
vt 0.022500 0.684400
vt 0.102400 0.872300
vt 0.068900 0.829900
vt 0.215000 0.583500
vt 0.261200 0.604500
vt 0.261400 0.709600
vt 0.278000 0.843200
vt 0.310100 0.737400
vt 0.353700 0.869900
vt 0.425500 0.731400
vt 0.381100 0.760000
vt 0.407100 0.685000
vt 0.326600 0.872700
vt 0.360200 0.830300
vt 0.267900 0.925500
vt 0.161000 0.925300
vt 0.238200 0.975300
vt 0.190500 0.975300
vt 0.214300 0.994400
vt 0.151100 0.843000
vt 0.168100 0.709500
vt 0.119400 0.737100
vt 0.168600 0.604300
vt 0.075300 0.869500
vt 0.004000 0.730800
vt 0.048300 0.759500
vt 0.022500 0.684400
vt 0.102400 0.872300
vt 0.068900 0.829900
vt 0.215000 0.583500
vt 0.261200 0.604500
vt 0.261400 0.709600
vt 0.278000 0.843200
vt 0.310100 0.737400
vt 0.353700 0.869900
vt 0.425500 0.731400
vt 0.381100 0.760000
vt 0.407100 0.685000
vt 0.326600 0.872700
vt 0.360200 0.830300
vt 0.161000 0.925300
vt 0.267900 0.925500
vt 0.190500 0.975300
vt 0.238200 0.975300
vt 0.214300 0.994400
vt 0.949400 0.973700
vt 0.950200 0.977500
vt 0.945500 0.978200
vt 0.944500 0.974400
vt 0.956200 0.955600
vt 0.950000 0.955600
vt 0.950700 0.937400
vt 0.958000 0.937700
vt 0.965400 0.938300
vt 0.962300 0.956300
vt 0.944000 0.956100
vt 0.937900 0.956400
vt 0.936100 0.938300
vt 0.943400 0.937800
vt 0.954400 0.973600
vt 0.959200 0.974400
vt 0.939700 0.974500
vt 0.151100 0.843000
vt 0.119400 0.737100
vt 0.168100 0.709500
vt 0.168600 0.604300
vt 0.075300 0.869500
vt 0.004000 0.730800
vt 0.048300 0.759500
vt 0.022500 0.684400
vt 0.102400 0.872300
vt 0.068900 0.829900
vt 0.215000 0.583500
vt 0.261200 0.604500
vt 0.261400 0.709600
vt 0.278000 0.843200
vt 0.310100 0.737400
vt 0.353700 0.869900
vt 0.425500 0.731400
vt 0.381100 0.760000
vt 0.407100 0.685000
vt 0.326600 0.872700
vt 0.360200 0.830300
vt 0.267900 0.925500
vt 0.161000 0.925300
vt 0.238200 0.975300
vt 0.190500 0.975300
vt 0.214300 0.994400
vt 0.151100 0.843000
vt 0.168100 0.709500
vt 0.119400 0.737100
vt 0.168600 0.604300
vt 0.075300 0.869500
vt 0.004000 0.730800
vt 0.048300 0.759500
vt 0.022500 0.684400
vt 0.102400 0.872300
vt 0.068900 0.829900
vt 0.215000 0.583500
vt 0.261200 0.604500
vt 0.261400 0.709600
vt 0.278000 0.843200
vt 0.310100 0.737400
vt 0.353700 0.869900
vt 0.425500 0.731400
vt 0.381100 0.760000
vt 0.407100 0.685000
vt 0.326600 0.872700
vt 0.360200 0.830300
vt 0.161000 0.925300
vt 0.267900 0.925500
vt 0.190500 0.975300
vt 0.238200 0.975300
vt 0.214300 0.994400
vt 0.084300 0.578200
vt 0.082500 0.471500
vt 0.179300 0.452800
vt 0.171300 0.584500
vt 0.036100 0.565400
vt 0.025400 0.509200
vt 0.008200 0.541600
vt 0.271200 0.475800
vt 0.251000 0.571700
vt 0.339600 0.527800
vt 0.321600 0.571300
vt 0.084300 0.578200
vt 0.171300 0.584500
vt 0.179300 0.452800
vt 0.082500 0.471500
vt 0.036100 0.565400
vt 0.025400 0.509200
vt 0.008200 0.541600
vt 0.251000 0.571700
vt 0.271200 0.475800
vt 0.321600 0.571300
vt 0.339600 0.527800
vt 0.151100 0.843000
vt 0.119400 0.737100
vt 0.168100 0.709500
vt 0.168600 0.604300
vt 0.075300 0.869500
vt 0.004000 0.730800
vt 0.048300 0.759500
vt 0.022500 0.684400
vt 0.102400 0.872300
vt 0.068900 0.829900
vt 0.215000 0.583500
vt 0.261200 0.604500
vt 0.261400 0.709600
vt 0.278000 0.843200
vt 0.310100 0.737400
vt 0.353700 0.869900
vt 0.425500 0.731400
vt 0.381100 0.760000
vt 0.407100 0.685000
vt 0.326600 0.872700
vt 0.360200 0.830300
vt 0.267900 0.925500
vt 0.161000 0.925300
vt 0.238200 0.975300
vt 0.190500 0.975300
vt 0.214300 0.994400
vt 0.151100 0.843000
vt 0.168100 0.709500
vt 0.119400 0.737100
vt 0.168600 0.604300
vt 0.075300 0.869500
vt 0.004000 0.730800
vt 0.048300 0.759500
vt 0.022500 0.684400
vt 0.102400 0.872300
vt 0.068900 0.829900
vt 0.215000 0.583500
vt 0.261200 0.604500
vt 0.261400 0.709600
vt 0.278000 0.843200
vt 0.310100 0.737400
vt 0.353700 0.869900
vt 0.425500 0.731400
vt 0.381100 0.760000
vt 0.407100 0.685000
vt 0.326600 0.872700
vt 0.360200 0.830300
vt 0.161000 0.925300
vt 0.267900 0.925500
vt 0.190500 0.975300
vt 0.238200 0.975300
vt 0.214300 0.994400
vt 0.084300 0.578200
vt 0.082500 0.471500
vt 0.179300 0.452800
vt 0.171300 0.584500
vt 0.036100 0.565400
vt 0.025400 0.509200
vt 0.008200 0.541600
vt 0.271200 0.475800
vt 0.251000 0.571700
vt 0.339600 0.527800
vt 0.321600 0.571300
vt 0.084300 0.578200
vt 0.171300 0.584500
vt 0.179300 0.452800
vt 0.082500 0.471500
vt 0.036100 0.565400
vt 0.025400 0.509200
vt 0.008200 0.541600
vt 0.251000 0.571700
vt 0.271200 0.475800
vt 0.321600 0.571300
vt 0.339600 0.527800
vt 0.151100 0.843000
vt 0.119400 0.737100
vt 0.168100 0.709500
vt 0.168600 0.604300
vt 0.075300 0.869500
vt 0.004000 0.730800
vt 0.048300 0.759500
vt 0.022500 0.684400
vt 0.102400 0.872300
vt 0.068900 0.829900
vt 0.215000 0.583500
vt 0.261200 0.604500
vt 0.261400 0.709600
vt 0.278000 0.843200
vt 0.310100 0.737400
vt 0.353700 0.869900
vt 0.425500 0.731400
vt 0.381100 0.760000
vt 0.407100 0.685000
vt 0.326600 0.872700
vt 0.360200 0.830300
vt 0.267900 0.925500
vt 0.161000 0.925300
vt 0.238200 0.975300
vt 0.190500 0.975300
vt 0.214300 0.994400
vt 0.151100 0.843000
vt 0.168100 0.709500
vt 0.119400 0.737100
vt 0.168600 0.604300
vt 0.075300 0.869500
vt 0.004000 0.730800
vt 0.048300 0.759500
vt 0.022500 0.684400
vt 0.102400 0.872300
vt 0.068900 0.829900
vt 0.215000 0.583500
vt 0.261200 0.604500
vt 0.261400 0.709600
vt 0.278000 0.843200
vt 0.310100 0.737400
vt 0.353700 0.869900
vt 0.425500 0.731400
vt 0.381100 0.760000
vt 0.407100 0.685000
vt 0.326600 0.872700
vt 0.360200 0.830300
vt 0.161000 0.925300
vt 0.267900 0.925500
vt 0.190500 0.975300
vt 0.238200 0.975300
vt 0.214300 0.994400
vt 0.084300 0.578200
vt 0.082500 0.471500
vt 0.179300 0.452800
vt 0.171300 0.584500
vt 0.036100 0.565400
vt 0.025400 0.509200
vt 0.008200 0.541600
vt 0.271200 0.475800
vt 0.251000 0.571700
vt 0.339600 0.527800
vt 0.321600 0.571300
vt 0.084300 0.578200
vt 0.171300 0.584500
vt 0.179300 0.452800
vt 0.082500 0.471500
vt 0.036100 0.565400
vt 0.025400 0.509200
vt 0.008200 0.541600
vt 0.251000 0.571700
vt 0.271200 0.475800
vt 0.321600 0.571300
vt 0.339600 0.527800
vt 0.084300 0.578200
vt 0.082500 0.471500
vt 0.179300 0.452800
vt 0.171300 0.584500
vt 0.036100 0.565400
vt 0.025400 0.509200
vt 0.008200 0.541600
vt 0.271200 0.475800
vt 0.251000 0.571700
vt 0.339600 0.527800
vt 0.321600 0.571300
vt 0.084300 0.578200
vt 0.171300 0.584500
vt 0.179300 0.452800
vt 0.082500 0.471500
vt 0.036100 0.565400
vt 0.025400 0.509200
vt 0.008200 0.541600
vt 0.251000 0.571700
vt 0.271200 0.475800
vt 0.321600 0.571300
vt 0.339600 0.527800
vt 0.958000 0.937700
vt 0.957100 0.946600
vt 0.950400 0.946500
vt 0.950700 0.937400
vt 0.965400 0.938300
vt 0.963800 0.947300
vt 0.943700 0.947000
vt 0.937000 0.947400
vt 0.936100 0.938300
vt 0.943400 0.937800
vt 0.959900 0.919700
vt 0.959000 0.928700
vt 0.951000 0.928400
vt 0.951400 0.919300
vt 0.968500 0.920300
vt 0.966900 0.929300
vt 0.943200 0.928700
vt 0.935200 0.929200
vt 0.934400 0.920200
vt 0.942900 0.919500
vt 0.956200 0.955600
vt 0.950000 0.955600
vt 0.962300 0.956300
vt 0.944000 0.956100
vt 0.937900 0.956400
vt 0.949400 0.973700
vt 0.950200 0.977500
vt 0.945500 0.978200
vt 0.944500 0.974400
vt 0.958000 0.937700
vt 0.957100 0.946600
vt 0.950400 0.946500
vt 0.950700 0.937400
vt 0.965400 0.938300
vt 0.963800 0.947300
vt 0.943700 0.947000
vt 0.937000 0.947400
vt 0.936100 0.938300
vt 0.943400 0.937800
vt 0.955300 0.964600
vt 0.949700 0.964600
vt 0.950000 0.955600
vt 0.956200 0.955600
vt 0.962300 0.956300
vt 0.960700 0.965400
vt 0.944000 0.956100
vt 0.944300 0.965300
vt 0.938800 0.965500
vt 0.937900 0.956400
vt 0.959900 0.919700
vt 0.959000 0.928700
vt 0.951000 0.928400
vt 0.951400 0.919300
vt 0.968500 0.920300
vt 0.966900 0.929300
vt 0.943200 0.928700
vt 0.935200 0.929200
vt 0.934400 0.920200
vt 0.942900 0.919500
vt 0.954400 0.973600
vt 0.959200 0.974400
vt 0.939700 0.974500
vt 0.084300 0.578200
vt 0.082500 0.471500
vt 0.179300 0.452800
vt 0.171300 0.584500
vt 0.036100 0.565400
vt 0.025400 0.509200
vt 0.008200 0.541600
vt 0.271200 0.475800
vt 0.251000 0.571700
vt 0.339600 0.527800
vt 0.321600 0.571300
vt 0.084300 0.578200
vt 0.171300 0.584500
vt 0.179300 0.452800
vt 0.082500 0.471500
vt 0.036100 0.565400
vt 0.025400 0.509200
vt 0.008200 0.541600
vt 0.251000 0.571700
vt 0.271200 0.475800
vt 0.321600 0.571300
vt 0.339600 0.527800
vt 0.084300 0.578200
vt 0.082500 0.471500
vt 0.179300 0.452800
vt 0.171300 0.584500
vt 0.036100 0.565400
vt 0.025400 0.509200
vt 0.008200 0.541600
vt 0.271200 0.475800
vt 0.251000 0.571700
vt 0.339600 0.527800
vt 0.321600 0.571300
vt 0.084300 0.578200
vt 0.171300 0.584500
vt 0.179300 0.452800
vt 0.082500 0.471500
vt 0.036100 0.565400
vt 0.025400 0.509200
vt 0.008200 0.541600
vt 0.251000 0.571700
vt 0.271200 0.475800
vt 0.321600 0.571300
vt 0.339600 0.527800
vt 0.151100 0.843000
vt 0.119400 0.737100
vt 0.168100 0.709500
vt 0.168600 0.604300
vt 0.075300 0.869500
vt 0.004000 0.730800
vt 0.048300 0.759500
vt 0.022500 0.684400
vt 0.102400 0.872300
vt 0.068900 0.829900
vt 0.215000 0.583500
vt 0.261200 0.604500
vt 0.261400 0.709600
vt 0.278000 0.843200
vt 0.310100 0.737400
vt 0.353700 0.869900
vt 0.425500 0.731400
vt 0.381100 0.760000
vt 0.407100 0.685000
vt 0.326600 0.872700
vt 0.360200 0.830300
vt 0.267900 0.925500
vt 0.161000 0.925300
vt 0.238200 0.975300
vt 0.190500 0.975300
vt 0.214300 0.994400
vt 0.151100 0.843000
vt 0.168100 0.709500
vt 0.119400 0.737100
vt 0.168600 0.604300
vt 0.075300 0.869500
vt 0.004000 0.730800
vt 0.048300 0.759500
vt 0.022500 0.684400
vt 0.102400 0.872300
vt 0.068900 0.829900
vt 0.215000 0.583500
vt 0.261200 0.604500
vt 0.261400 0.709600
vt 0.278000 0.843200
vt 0.310100 0.737400
vt 0.353700 0.869900
vt 0.425500 0.731400
vt 0.381100 0.760000
vt 0.407100 0.685000
vt 0.326600 0.872700
vt 0.360200 0.830300
vt 0.161000 0.925300
vt 0.267900 0.925500
vt 0.190500 0.975300
vt 0.238200 0.975300
vt 0.214300 0.994400
vn 0.0000 -0.9962 -0.0872
vn 0.0000 0.0158 -0.9999
vn 0.9974 -0.0712 -0.0062
vn -0.9974 -0.0712 -0.0062
vn 0.0000 -0.1581 0.9874
vn 0.6513 0.0166 0.7587
vn 0.3979 -0.9088 0.1257
vn 0.4718 -0.3023 -0.8283
vn 0.7288 0.6456 -0.2281
vn 0.0350 -0.0617 -0.9975
vn 0.0134 -0.4647 -0.8854
vn 0.9841 0.1699 0.0527
vn 0.9971 0.0477 0.0593
vn -0.9977 0.0082 0.0671
vn -0.9929 0.0091 0.1190
vn -0.0079 0.4309 0.9024
vn 0.0271 0.0912 0.9955
vn -0.0098 0.2996 -0.9540
vn 0.9792 0.2015 0.0225
vn -0.9688 0.2465 0.0259
vn -0.0093 0.1510 0.9885
vn -0.0524 -0.5554 0.8299
vn -0.3384 -0.6762 0.6544
vn 0.8712 -0.0131 0.4907
vn 0.9988 0.0011 -0.0489
vn -0.9977 0.0233 -0.0640
vn -0.9204 -0.1308 -0.3685
vn 0.1809 0.6409 -0.7460
vn -0.0154 0.5635 -0.8260
vn -0.2471 -0.9592 0.1378
vn 0.3103 0.1409 0.9401
vn 0.5378 -0.1940 0.8204
vn -0.4651 -0.8800 0.0962
vn -0.5142 -0.0299 -0.8571
vn -0.2769 -0.1031 -0.9553
vn 0.2683 0.9381 -0.2188
vn 0.2128 0.9461 -0.2439
vn 0.0011 -0.9521 -0.3058
vn -0.0201 -0.8475 0.5304
vn 0.9893 0.0592 -0.1332
vn 0.9640 0.2651 -0.0198
vn -0.9609 0.2216 0.1660
vn -0.9866 0.1627 0.0138
vn 0.0022 0.8183 -0.5748
vn 0.0057 0.9671 0.2544
vn 0.6513 0.0167 0.7587
vn 0.4717 -0.3024 -0.8283
vn 0.7288 0.6456 -0.2282
vn 0.8724 -0.3035 -0.3831
vn 0.0407 0.2519 -0.9669
vn -0.0580 0.9965 -0.0607
vn 0.7725 0.4236 0.4730
vn -0.3880 0.0097 -0.9216
vn 0.5930 -0.7764 -0.2136
vn 0.6604 -0.7169 -0.2235
vn -0.3641 -0.0292 -0.9309
vn -0.6633 0.7204 0.2026
vn -0.5857 0.7827 0.2105
vn 0.3505 0.0615 0.9346
vn 0.3366 0.0682 0.9392
vn 0.0407 0.2518 -0.9669
vn 0.7725 0.4237 0.4730
vn -0.1342 0.7010 0.7004
vn -0.0412 0.7426 0.6684
vn -0.0713 0.7806 0.6209
vn 0.0012 0.7920 0.6106
vn -0.0910 0.6142 0.7839
vn 0.0292 0.7359 0.6764
vn -0.0032 0.7142 0.6999
vn 0.0211 0.7464 0.6651
vn -0.1271 0.6035 0.7872
vn -0.0825 0.6191 0.7810
vn 0.0802 0.8394 0.5376
vn -0.0324 0.8232 0.5669
vn -0.0775 0.7864 0.6128
vn -0.2048 0.7665 0.6087
vn -0.1191 0.8149 0.5673
vn -0.2926 0.8010 0.5222
vn -0.0978 0.8537 0.5116
vn -0.1405 0.8415 0.5217
vn -0.0876 0.8472 0.5241
vn -0.3165 0.7787 0.5417
vn -0.2842 0.8061 0.5191
vn -0.2280 0.7007 0.6760
vn -0.2919 0.6576 0.6945
vn -0.3588 0.6066 0.7095
vn 0.1342 -0.7010 -0.7004
vn 0.0713 -0.7806 -0.6209
vn 0.0412 -0.7426 -0.6684
vn -0.0013 -0.7920 -0.6106
vn 0.0910 -0.6142 -0.7839
vn -0.0292 -0.7359 -0.6765
vn 0.0033 -0.7142 -0.7000
vn -0.0211 -0.7464 -0.6651
vn 0.1271 -0.6035 -0.7872
vn 0.0826 -0.6191 -0.7810
vn -0.0802 -0.8394 -0.5376
vn 0.0324 -0.8232 -0.5669
vn 0.0775 -0.7864 -0.6129
vn 0.2048 -0.7665 -0.6087
vn 0.1191 -0.8148 -0.5673
vn 0.2926 -0.8011 -0.5222
vn 0.0978 -0.8537 -0.5116
vn 0.1406 -0.8415 -0.5217
vn 0.0875 -0.8472 -0.5240
vn 0.3163 -0.7789 -0.5415
vn 0.2842 -0.8060 -0.5192
vn 0.2280 -0.7007 -0.6760
vn 0.2919 -0.6576 -0.6945
vn 0.3588 -0.6065 -0.7095
vn -0.7914 -0.2328 0.5652
vn 0.1843 0.2877 0.9398
vn 0.1372 0.9904 0.0196
vn -0.8146 0.4786 -0.3277
vn 0.5833 -0.0443 0.8110
vn -0.6229 -0.6824 0.3826
vn -0.6895 -0.6339 0.3503
vn 0.5304 -0.1116 0.8404
vn 0.6602 0.6439 -0.3866
vn 0.6182 0.6948 -0.3675
vn -0.5524 0.0847 -0.8292
vn -0.5652 0.0871 -0.8203
vn 0.1844 0.2877 0.9398
vn 0.1372 0.9903 0.0196
vn -0.8145 0.4787 -0.3278
vn 0.0105 0.7010 -0.7130
vn -0.0755 0.7426 -0.6654
vn -0.0376 0.7806 -0.6238
vn -0.1072 0.7920 -0.6011
vn -0.0465 0.6142 -0.7878
vn -0.1462 0.7359 -0.6611
vn -0.1183 0.7142 -0.6899
vn -0.1364 0.7464 -0.6513
vn -0.0115 0.6034 -0.7973
vn -0.0543 0.6191 -0.7834
vn -0.1724 0.8394 -0.5155
vn -0.0665 0.8232 -0.5639
vn -0.0300 0.7864 -0.6170
vn 0.0960 0.7665 -0.6350
vn 0.0188 0.8148 -0.5794
vn 0.1974 0.8011 -0.5651
vn 0.0075 0.8537 -0.5208
vn 0.0478 0.8414 -0.5382
vn -0.0048 0.8472 -0.5313
vn 0.2174 0.7790 -0.5882
vn 0.1897 0.8060 -0.5607
vn 0.1072 0.7007 -0.7054
vn 0.1669 0.6576 -0.7347
vn 0.2302 0.6065 -0.7611
vn -0.0105 -0.7010 0.7131
vn 0.0376 -0.7806 0.6238
vn 0.0755 -0.7426 0.6654
vn 0.1073 -0.7920 0.6011
vn 0.0465 -0.6142 0.7878
vn 0.1462 -0.7359 0.6611
vn 0.1183 -0.7142 0.6899
vn 0.1363 -0.7464 0.6514
vn 0.0115 -0.6034 0.7973
vn 0.0544 -0.6190 0.7835
vn 0.1724 -0.8394 0.5155
vn 0.0665 -0.8232 0.5639
vn 0.0301 -0.7864 0.6170
vn -0.0960 -0.7665 0.6350
vn -0.0188 -0.8149 0.5794
vn -0.1975 -0.8010 0.5651
vn -0.0075 -0.8537 0.5208
vn -0.0478 -0.8415 0.5382
vn 0.0048 -0.8471 0.5314
vn -0.2176 -0.7788 0.5884
vn -0.1898 -0.8061 0.5605
vn -0.1072 -0.7007 0.7053
vn -0.1072 -0.7007 0.7054
vn -0.1669 -0.6576 0.7346
vn -0.2301 -0.6065 0.7610
vn 0.1947 0.9179 0.3457
vn 0.1732 0.9400 0.2940
vn 0.2396 0.9624 0.1277
vn 0.2461 0.9549 0.1661
vn 0.1470 0.9329 0.3288
vn 0.1320 0.9502 0.2823
vn 0.0985 0.9247 0.3678
vn 0.2594 0.9654 0.0253
vn 0.2500 0.9682 0.0108
vn 0.2709 0.9440 0.1886
vn 0.2818 0.9393 0.1955
vn -0.1947 -0.9179 -0.3457
vn -0.2460 -0.9549 -0.1661
vn -0.2396 -0.9625 -0.1277
vn -0.1732 -0.9400 -0.2940
vn -0.1470 -0.9329 -0.3288
vn -0.1320 -0.9502 -0.2823
vn -0.0985 -0.9247 -0.3678
vn -0.2500 -0.9682 -0.0109
vn -0.2594 -0.9654 -0.0254
vn -0.2818 -0.9393 -0.1955
vn -0.2709 -0.9440 -0.1886
vn -0.3164 0.9433 0.1000
vn -0.2157 0.9731 0.0809
vn -0.2258 0.9741 0.0137
vn -0.1533 0.9879 0.0219
vn -0.3092 0.9237 0.2262
vn -0.1526 0.9818 0.1126
vn -0.1923 0.9723 0.1328
vn -0.1558 0.9832 0.0955
vn -0.3450 0.9116 0.2236
vn -0.2999 0.9273 0.2239
vn -0.0517 0.9980 -0.0362
vn -0.1684 0.9849 -0.0396
vn -0.2286 0.9735 0.0024
vn -0.3481 0.9370 -0.0290
vn -0.2506 0.9661 -0.0614
vn -0.3996 0.9057 -0.1419
vn -0.2096 0.9705 -0.1194
vn -0.2538 0.9600 -0.1180
vn -0.2045 0.9734 -0.1029
vn -0.4298 0.8946 -0.1219
vn -0.3903 0.9093 -0.1446
vn -0.3966 0.9165 0.0524
vn -0.3966 0.9165 0.0525
vn -0.4655 0.8822 0.0711
vn -0.5366 0.8389 0.0906
vn 0.3164 -0.9433 -0.1000
vn 0.2258 -0.9741 -0.0137
vn 0.2157 -0.9731 -0.0809
vn 0.1533 -0.9879 -0.0219
vn 0.3091 -0.9237 -0.2262
vn 0.1526 -0.9818 -0.1126
vn 0.1923 -0.9723 -0.1328
vn 0.1557 -0.9832 -0.0955
vn 0.3448 -0.9117 -0.2236
vn 0.2999 -0.9273 -0.2239
vn 0.0517 -0.9980 0.0362
vn 0.1684 -0.9849 0.0396
vn 0.2286 -0.9735 -0.0024
vn 0.3481 -0.9370 0.0290
vn 0.2506 -0.9661 0.0614
vn 0.3995 -0.9057 0.1419
vn 0.2096 -0.9705 0.1194
vn 0.2540 -0.9600 0.1179
vn 0.2045 -0.9734 0.1029
vn 0.4297 -0.8947 0.1220
vn 0.3904 -0.9093 0.1445
vn 0.3966 -0.9165 -0.0524
vn 0.4655 -0.8822 -0.0710
vn 0.5366 -0.8389 -0.0906
vn -0.2297 -0.9710 0.0667
vn -0.2202 -0.9673 0.1261
vn -0.0743 -0.9698 0.2323
vn -0.0905 -0.9763 0.1966
vn -0.2600 -0.9595 0.1084
vn -0.2476 -0.9558 0.1586
vn -0.3193 -0.9426 0.0973
vn 0.0011 -0.9532 0.3023
vn 0.0017 -0.9478 0.3190
vn -0.0822 -0.9832 0.1631
vn -0.0769 -0.9856 0.1507
vn 0.2297 0.9710 -0.0667
vn 0.0905 0.9763 -0.1966
vn 0.0743 0.9698 -0.2323
vn 0.2202 0.9673 -0.1261
vn 0.2599 0.9595 -0.1085
vn 0.2476 0.9558 -0.1586
vn 0.3194 0.9426 -0.0973
vn -0.0018 0.9478 -0.3189
vn -0.0011 0.9532 -0.3023
vn 0.0769 0.9856 -0.1506
vn 0.0822 0.9832 -0.1631
vn 0.3290 0.9433 0.0431
vn 0.2297 0.9731 0.0179
vn 0.2104 0.9741 0.0830
vn 0.1482 0.9879 0.0449
vn 0.3758 0.9237 -0.0744
vn 0.1859 0.9818 -0.0376
vn 0.2305 0.9723 -0.0391
vn 0.1815 0.9832 -0.0207
vn 0.4070 0.9116 -0.0569
vn 0.3665 0.9273 -0.0762
vn 0.0316 0.9980 0.0547
vn 0.1359 0.9849 0.1071
vn 0.2082 0.9735 0.0944
vn 0.3032 0.9370 0.1734
vn 0.2012 0.9661 0.1616
vn 0.3021 0.9057 0.2975
vn 0.1395 0.9705 0.1968
vn 0.1803 0.9600 0.2142
vn 0.1418 0.9734 0.1797
vn 0.3379 0.8947 0.2922
vn 0.2927 0.9093 0.2959
vn 0.3816 0.9165 0.1201
vn 0.4519 0.8822 0.1324
vn 0.5246 0.8390 0.1447
vn -0.3290 -0.9433 -0.0431
vn -0.2104 -0.9741 -0.0830
vn -0.2297 -0.9731 -0.0179
vn -0.1482 -0.9879 -0.0449
vn -0.3758 -0.9237 0.0744
vn -0.1859 -0.9818 0.0376
vn -0.2304 -0.9723 0.0391
vn -0.1815 -0.9832 0.0207
vn -0.4072 -0.9116 0.0568
vn -0.3664 -0.9273 0.0762
vn -0.0316 -0.9980 -0.0547
vn -0.1359 -0.9849 -0.1071
vn -0.2082 -0.9735 -0.0944
vn -0.3032 -0.9370 -0.1734
vn -0.2012 -0.9661 -0.1616
vn -0.3022 -0.9057 -0.2975
vn -0.1395 -0.9705 -0.1968
vn -0.1802 -0.9600 -0.2142
vn -0.1418 -0.9734 -0.1797
vn -0.3381 -0.8946 -0.2921
vn -0.2927 -0.9093 -0.2959
vn -0.3816 -0.9165 -0.1201
vn -0.4520 -0.8822 -0.1323
vn -0.4519 -0.8822 -0.1323
vn -0.5246 -0.8390 -0.1446
vn 0.3283 -0.8981 -0.2926
vn 0.3098 -0.8847 -0.3483
vn 0.1511 -0.8881 -0.4342
vn 0.1730 -0.8988 -0.4028
vn 0.3505 -0.8748 -0.3345
vn 0.3305 -0.8635 -0.3809
vn 0.4085 -0.8520 -0.3275
vn 0.0965 -0.8857 -0.4542
vn 0.0979 -0.8593 -0.5020
vn 0.2594 -0.8941 -0.3650
vn 0.2812 -0.8316 -0.4789
vn -0.3283 0.8981 0.2926
vn -0.1730 0.8988 0.4028
vn -0.1511 0.8881 0.4342
vn -0.3098 0.8847 0.3483
vn -0.3505 0.8748 0.3345
vn -0.3305 0.8635 0.3809
vn -0.4085 0.8520 0.3274
vn -0.0980 0.8593 0.5020
vn -0.0965 0.8857 0.4542
vn -0.2812 0.8316 0.4789
vn -0.2594 0.8941 0.3650
vn -0.4608 0.6005 -0.6535
vn -0.4619 0.6430 -0.6109
vn -0.5670 0.6776 -0.4683
vn -0.5612 0.6578 -0.5023
vn -0.4280 0.6392 -0.6389
vn -0.4319 0.6733 -0.6001
vn -0.3729 0.6434 -0.6686
vn -0.6087 0.6991 -0.3752
vn -0.6046 0.7096 -0.3618
vn -0.5740 0.6313 -0.5215
vn -0.5803 0.6206 -0.5274
vn 0.4608 -0.6005 0.6535
vn 0.5612 -0.6579 0.5022
vn 0.5670 -0.6776 0.4683
vn 0.4619 -0.6430 0.6109
vn 0.4280 -0.6392 0.6389
vn 0.4319 -0.6733 0.6001
vn 0.3730 -0.6433 0.6686
vn 0.6046 -0.7096 0.3618
vn 0.6086 -0.6991 0.3752
vn 0.5803 -0.6206 0.5274
vn 0.5739 -0.6313 0.5215
vn 0.8059 -0.5920 -0.0086
vn 0.6527 -0.6990 -0.2923
vn -0.2058 -0.0283 -0.9782
vn -0.1008 0.0159 -0.9948
vn 0.0275 -0.0001 0.9996
vn 0.3620 -0.1499 0.9201
vn -0.7059 0.6940 0.1418
vn -0.8002 0.5919 0.0967
vn 0.2388 -0.9703 -0.0376
vn 0.4994 -0.8662 -0.0154
vn -0.2339 0.0606 -0.9704
vn -0.2324 0.0786 -0.9694
vn 0.1327 0.1080 0.9853
vn 0.1042 0.1756 0.9789
vn -0.5637 0.8243 0.0514
vn -0.3073 0.9516 0.0100
vn -0.0103 -0.9821 -0.1882
vn -0.8637 -0.2352 -0.4457
vn 0.0693 -0.4723 0.8787
vn -0.7816 0.2254 0.5817
vn -0.0103 -0.9821 -0.1881
vn -0.7815 0.2254 0.5817
vn -0.9357 0.0167 0.3523
vn -0.2542 -0.9088 0.3308
vn 0.6168 -0.3024 0.7267
vn -0.0348 0.6456 0.7629
vn -0.7164 -0.6236 -0.3128
vn -0.4993 -0.6762 -0.5418
vn -0.7591 -0.0130 0.6509
vn -0.2694 0.0369 0.9623
vn 0.4250 0.0444 -0.9041
vn 0.6611 -0.1308 -0.7388
vn 0.6391 0.6409 0.4251
vn 0.7339 0.6310 0.2513
vn -0.0451 -0.9591 -0.2793
vn -0.9896 0.1410 -0.0299
vn -0.9549 -0.1941 0.2247
vn 0.0687 -0.8800 -0.4699
vn 0.9813 -0.0299 -0.1900
vn 0.9924 -0.1032 0.0665
vn 0.1138 0.9382 0.3270
vn 0.1565 0.9461 0.2834
vn -0.1595 -0.9832 0.0888
vn -0.3180 -0.9393 -0.1290
vn -0.2547 0.1037 0.9615
vn -0.2692 0.0979 0.9581
vn 0.3048 0.0630 -0.9503
vn 0.2987 0.1676 -0.9395
vn 0.4172 0.8953 0.1560
vn 0.1215 0.9858 0.1157
vn -0.2541 -0.9088 0.3308
vn -0.0349 0.6456 0.7629
vn -0.3614 0.9179 0.1638
vn -0.3080 0.9400 0.1469
vn -0.1481 0.9624 0.2275
vn -0.1869 0.9549 0.2306
vn -0.3404 0.9329 0.1178
vn -0.2928 0.9502 0.1069
vn -0.3750 0.9246 0.0661
vn -0.0479 0.9654 0.2562
vn -0.0326 0.9682 0.2481
vn -0.2114 0.9440 0.2534
vn -0.2193 0.9394 0.2636
vn 0.3613 -0.9179 -0.1638
vn 0.1869 -0.9549 -0.2306
vn 0.1481 -0.9625 -0.2275
vn 0.3080 -0.9400 -0.1469
vn 0.3404 -0.9329 -0.1177
vn 0.2928 -0.9502 -0.1069
vn 0.3751 -0.9246 -0.0661
vn 0.0326 -0.9682 -0.2481
vn 0.0479 -0.9654 -0.2562
vn 0.2193 -0.9394 -0.2636
vn 0.2114 -0.9440 -0.2534
vn -0.0050 -0.9512 -0.3086
vn -0.0648 -0.9470 -0.3145
vn -0.2051 -0.9578 -0.2015
vn -0.1664 -0.9638 -0.2084
vn -0.0375 -0.9369 -0.3477
vn -0.0891 -0.9331 -0.3484
vn -0.0113 -0.9161 -0.4008
vn -0.2923 -0.9451 -0.1458
vn -0.3086 -0.9395 -0.1490
vn -0.1362 -0.9718 -0.1922
vn -0.1256 -0.9749 -0.1840
vn 0.0050 0.9512 0.3086
vn 0.1665 0.9638 0.2084
vn 0.2051 0.9578 0.2015
vn 0.0648 0.9470 0.3145
vn 0.0375 0.9369 0.3477
vn 0.0891 0.9331 0.3484
vn 0.0113 0.9161 0.4008
vn 0.3085 0.9395 0.1490
vn 0.2923 0.9452 0.1458
vn 0.1257 0.9748 0.1841
vn 0.1363 0.9718 0.1922
vn -0.1000 0.9433 -0.3164
vn -0.0809 0.9731 -0.2157
vn -0.0137 0.9741 -0.2258
vn -0.0219 0.9879 -0.1533
vn -0.2262 0.9237 -0.3092
vn -0.1126 0.9818 -0.1526
vn -0.1328 0.9723 -0.1924
vn -0.0955 0.9832 -0.1558
vn -0.2236 0.9116 -0.3450
vn -0.2239 0.9273 -0.2999
vn 0.0362 0.9980 -0.0517
vn 0.0396 0.9849 -0.1684
vn -0.0024 0.9735 -0.2286
vn 0.0290 0.9370 -0.3481
vn 0.0614 0.9661 -0.2506
vn 0.1419 0.9057 -0.3996
vn 0.1194 0.9705 -0.2096
vn 0.1180 0.9600 -0.2538
vn 0.1029 0.9734 -0.2045
vn 0.1219 0.8946 -0.4299
vn 0.1445 0.9093 -0.3903
vn -0.0524 0.9165 -0.3966
vn -0.0525 0.9165 -0.3966
vn -0.0711 0.8822 -0.4655
vn -0.0906 0.8390 -0.5366
vn 0.1000 -0.9433 0.3164
vn 0.0137 -0.9741 0.2258
vn 0.0808 -0.9731 0.2157
vn 0.0219 -0.9879 0.1534
vn 0.2263 -0.9237 0.3092
vn 0.1126 -0.9818 0.1526
vn 0.1328 -0.9723 0.1923
vn 0.0955 -0.9832 0.1558
vn 0.2237 -0.9116 0.3449
vn 0.2239 -0.9273 0.2999
vn -0.0362 -0.9980 0.0517
vn -0.0396 -0.9849 0.1684
vn 0.0024 -0.9735 0.2286
vn -0.0290 -0.9370 0.3481
vn -0.0614 -0.9661 0.2506
vn -0.1419 -0.9057 0.3995
vn -0.1194 -0.9705 0.2096
vn -0.1179 -0.9600 0.2539
vn -0.1029 -0.9734 0.2045
vn -0.1220 -0.8947 0.4297
vn -0.1445 -0.9093 0.3903
vn 0.0524 -0.9165 0.3966
vn 0.0711 -0.8822 0.4656
vn 0.0710 -0.8822 0.4655
vn 0.0907 -0.8389 0.5367
s 1
f 1/1/1 2/2/2 3/3/3
f 1/1/1 4/4/4 2/2/2
f 1/1/1 5/5/5 4/6/4
f 1/1/1 3/3/3 5/5/5
s 2
f 6/7/6 7/8/7 8/9/8
f 8/9/8 9/10/9 6/7/6
s 1
f 10/11/10 11/12/11 12/13/12
f 12/13/12 13/14/13 10/11/10
f 14/15/14 15/16/15 11/12/11
f 11/12/11 10/11/10 14/15/14
f 16/17/16 15/18/15 14/19/14
f 14/19/14 17/20/17 16/17/16
f 12/13/12 16/17/16 17/20/17
f 17/20/17 13/14/13 12/13/12
f 18/21/18 19/22/19 3/3/3
f 3/3/3 2/2/2 18/21/18
f 20/23/20 18/21/18 2/2/2
f 2/2/2 4/4/4 20/23/20
f 5/5/5 21/24/21 20/25/20
f 20/25/20 4/6/4 5/5/5
f 3/3/3 19/22/19 21/24/21
f 21/24/21 5/5/5 3/3/3
f 10/11/10 13/14/13 19/22/19
f 19/22/19 18/21/18 10/11/10
f 20/23/20 14/15/14 10/11/10
f 10/11/10 18/21/18 20/23/20
f 21/24/21 17/20/17 14/19/14
f 14/19/14 20/25/20 21/24/21
f 19/22/19 13/14/13 17/20/17
f 17/20/17 21/24/21 19/22/19
f 22/26/22 23/27/23 24/28/24
f 24/28/24 25/29/25 22/26/22
f 26/30/26 27/31/27 23/27/23
f 23/27/23 22/26/22 26/30/26
f 28/32/28 27/33/27 26/34/26
f 26/34/26 29/35/29 28/32/28
f 24/28/24 28/32/28 29/35/29
f 29/35/29 25/29/25 24/28/24
f 30/36/30 31/37/31 32/38/32
f 32/38/32 33/39/33 30/36/30
f 34/40/34 35/41/35 30/36/30
f 30/36/30 33/39/33 34/40/34
f 36/42/36 37/43/37 35/44/35
f 35/44/35 34/45/34 36/42/36
f 31/37/31 37/43/37 36/42/36
f 36/42/36 32/38/32 31/37/31
f 38/46/38 39/47/39 40/48/40
f 40/48/40 41/49/41 38/46/38
f 42/50/42 43/51/43 39/47/39
f 39/47/39 38/46/38 42/50/42
f 44/52/44 43/53/43 42/54/42
f 42/54/42 45/55/45 44/52/44
f 40/48/40 44/52/44 45/55/45
f 45/55/45 41/49/41 40/48/40
f 11/12/11 38/46/38 41/49/41
f 41/49/41 12/13/12 11/12/11
f 15/16/15 42/50/42 38/46/38
f 38/46/38 11/12/11 15/16/15
f 45/55/45 42/54/42 15/18/15
f 15/18/15 16/17/16 45/55/45
f 41/49/41 45/55/45 16/17/16
f 16/17/16 12/13/12 41/49/41
f 39/47/39 22/26/22 25/29/25
f 25/29/25 40/48/40 39/47/39
f 43/51/43 26/30/26 22/26/22
f 22/26/22 39/47/39 43/51/43
f 29/35/29 26/34/26 43/53/43
f 43/53/43 44/52/44 29/35/29
f 25/29/25 29/35/29 44/52/44
f 44/52/44 40/48/40 25/29/25
f 23/27/23 33/39/33 32/38/32
f 32/38/32 24/28/24 23/27/23
f 27/31/27 34/40/34 33/39/33
f 33/39/33 23/27/23 27/31/27
f 36/42/36 34/45/34 27/33/27
f 27/33/27 28/32/28 36/42/36
f 32/38/32 36/42/36 28/32/28
f 28/32/28 24/28/24 32/38/32
f 30/36/30 7/56/7 6/7/46
f 6/7/46 31/37/31 30/36/30
f 8/57/47 7/56/7 30/36/30
f 30/36/30 35/41/35 8/57/47
f 9/10/48 8/58/47 35/44/35
f 35/44/35 37/43/37 9/10/48
f 6/7/46 9/10/48 37/43/37
f 37/43/37 31/37/31 6/7/46
s 3
f 46/59/49 47/60/50 48/61/51
f 48/61/51 49/62/52 46/59/49
s 4
f 50/63/53 51/64/54 52/65/55
f 52/65/55 53/66/56 50/63/53
f 54/67/57 55/68/58 50/63/53
f 50/63/53 53/66/56 54/67/57
f 56/69/59 55/70/58 54/71/57
f 54/71/57 57/72/60 56/69/59
f 51/64/54 56/69/59 57/72/60
f 57/72/60 52/65/55 51/64/54
f 47/73/61 46/59/49 51/64/54
f 51/64/54 50/63/53 47/73/61
f 55/68/58 48/74/51 47/73/61
f 47/73/61 50/63/53 55/68/58
f 56/69/59 49/62/62 48/75/51
f 48/75/51 55/70/58 56/69/59
f 46/59/49 49/62/62 56/69/59
f 56/69/59 51/64/54 46/59/49
s 5
f 58/76/63 59/77/64 60/78/65
f 59/77/64 61/79/66 60/78/65
f 58/76/63 62/80/67 59/77/64
f 59/77/64 63/81/68 61/79/66
f 59/77/64 64/82/69 63/81/68
f 63/81/68 65/83/70 61/79/66
f 58/76/63 66/84/71 62/80/67
f 62/80/67 67/85/72 59/77/64
f 68/86/73 69/87/74 61/79/66
f 60/78/65 61/79/66 69/87/74
f 69/87/74 70/88/75 60/78/65
f 71/89/76 70/88/75 72/90/77
f 72/90/77 70/88/75 69/87/74
f 71/89/76 72/90/77 73/91/78
f 72/90/77 69/87/74 74/92/79
f 72/90/77 74/92/79 75/93/80
f 74/92/79 69/87/74 76/94/81
f 71/89/76 73/91/78 77/95/82
f 73/91/78 72/90/77 78/96/83
f 58/76/63 71/89/76 79/97/84
f 79/97/84 80/98/84 58/76/63
f 80/98/84 79/97/84 81/99/85
f 81/99/85 82/100/85 80/98/84
f 58/76/63 60/78/65 70/88/75
f 70/88/75 71/89/76 58/76/63
f 83/101/86 82/100/85 81/99/85
s 6
f 84/102/87 85/103/88 86/104/89
f 86/104/89 85/103/88 87/105/90
f 84/102/87 86/104/89 88/106/91
f 86/104/89 87/105/90 89/107/92
f 86/104/89 89/107/92 90/108/93
f 89/107/92 87/105/90 91/109/94
f 84/102/87 88/106/91 92/110/95
f 88/106/91 86/104/89 93/111/96
f 94/112/97 87/105/90 95/113/98
f 85/103/88 96/114/99 95/113/98
f 95/113/98 87/105/90 85/103/88
f 97/115/100 98/116/101 96/114/99
f 98/116/101 95/113/98 96/114/99
f 97/115/100 99/117/102 98/116/101
f 98/116/101 100/118/103 95/113/98
f 98/116/101 101/119/104 100/118/103
f 100/118/103 102/120/105 95/113/98
f 97/115/100 103/121/106 99/117/102
f 99/117/102 104/122/107 98/116/101
f 84/102/87 105/123/108 106/124/108
f 106/124/108 97/115/100 84/102/87
f 105/123/108 107/125/109 108/126/109
f 108/126/109 106/124/108 105/123/108
f 84/102/87 97/115/100 96/114/99
f 96/114/99 85/103/88 84/102/87
f 109/127/110 108/126/109 107/125/109
s 7
f 110/128/111 111/129/112 112/130/113
f 112/130/113 113/131/114 110/128/111
s 8
f 114/132/115 115/133/116 116/134/117
f 116/134/117 117/135/118 114/132/115
f 118/136/119 119/137/120 114/132/115
f 114/132/115 117/135/118 118/136/119
f 120/138/121 119/139/120 118/140/119
f 118/140/119 121/141/122 120/138/121
f 115/133/116 120/138/121 121/141/122
f 121/141/122 116/134/117 115/133/116
f 111/142/123 110/128/111 115/133/116
f 115/133/116 114/132/115 111/142/123
f 119/137/120 112/143/124 111/142/123
f 111/142/123 114/132/115 119/137/120
f 120/138/121 113/131/125 112/144/124
f 112/144/124 119/139/120 120/138/121
f 110/128/111 113/131/125 120/138/121
f 120/138/121 115/133/116 110/128/111
s 9
f 122/145/126 123/146/127 124/147/128
f 123/146/127 125/148/129 124/147/128
f 122/145/126 126/149/130 123/146/127
f 123/146/127 127/150/131 125/148/129
f 123/146/127 128/151/132 127/150/131
f 127/150/131 129/152/133 125/148/129
f 122/145/126 130/153/134 126/149/130
f 126/149/130 131/154/135 123/146/127
f 132/155/136 133/156/137 125/148/129
f 124/147/128 125/148/129 133/156/137
f 133/156/137 134/157/138 124/147/128
f 135/158/139 134/157/138 136/159/140
f 136/159/140 134/157/138 133/156/137
f 135/158/139 136/159/140 137/160/141
f 136/159/140 133/156/137 138/161/142
f 136/159/140 138/161/142 139/162/143
f 138/161/142 133/156/137 140/163/144
f 135/158/139 137/160/141 141/164/145
f 137/160/141 136/159/140 142/165/146
f 122/145/126 135/158/139 143/166/147
f 143/166/147 144/167/147 122/145/126
f 144/167/147 143/166/147 145/168/148
f 145/168/148 146/169/148 144/167/147
f 122/145/126 124/147/128 134/157/138
f 134/157/138 135/158/139 122/145/126
f 147/170/149 146/169/148 145/168/148
s 10
f 148/171/150 149/172/151 150/173/152
f 150/173/152 149/172/151 151/174/153
f 148/171/150 150/173/152 152/175/154
f 150/173/152 151/174/153 153/176/155
f 150/173/152 153/176/155 154/177/156
f 153/176/155 151/174/153 155/178/157
f 148/171/150 152/175/154 156/179/158
f 152/175/154 150/173/152 157/180/159
f 158/181/160 151/174/153 159/182/161
f 149/172/151 160/183/162 159/182/161
f 159/182/161 151/174/153 149/172/151
f 161/184/163 162/185/164 160/183/162
f 162/185/164 159/182/161 160/183/162
f 161/184/163 163/186/165 162/185/164
f 162/185/164 164/187/166 159/182/161
f 162/185/164 165/188/167 164/187/166
f 164/187/166 166/189/168 159/182/161
f 161/184/163 167/190/169 163/186/165
f 163/186/165 168/191/170 162/185/164
f 148/171/150 169/192/171 170/193/172
f 170/193/172 161/184/163 148/171/150
f 169/192/171 171/194/173 172/195/173
f 172/195/173 170/193/172 169/192/171
f 148/171/150 161/184/163 160/183/162
f 160/183/162 149/172/151 148/171/150
f 173/196/174 172/195/173 171/194/173
s 11
f 174/197/175 175/198/176 176/199/177
f 176/199/177 177/200/178 174/197/175
f 178/201/179 179/202/180 175/198/176
f 175/198/176 174/197/175 178/201/179
f 178/201/179 180/203/181 179/202/180
f 177/200/178 176/199/177 181/204/182
f 181/204/182 182/205/183 177/200/178
f 182/205/183 181/204/182 183/206/184
f 183/206/184 184/207/185 182/205/183
s 12
f 185/208/186 186/209/187 187/210/188
f 187/210/188 188/211/189 185/208/186
f 189/212/190 185/208/186 188/211/189
f 188/211/189 190/213/191 189/212/190
f 189/212/190 190/213/191 191/214/192
f 186/209/187 192/215/193 193/216/194
f 193/216/194 187/210/188 186/209/187
f 192/215/193 194/217/195 195/218/196
f 195/218/196 193/216/194 192/215/193
s 13
f 196/219/197 197/220/198 198/221/199
f 197/220/198 199/222/200 198/221/199
f 196/219/197 200/223/201 197/220/198
f 197/220/198 201/224/202 199/222/200
f 197/220/198 202/225/203 201/224/202
f 201/224/202 203/226/204 199/222/200
f 196/219/197 204/227/205 200/223/201
f 200/223/201 205/228/206 197/220/198
f 206/229/207 207/230/208 199/222/200
f 198/221/199 199/222/200 207/230/208
f 207/230/208 208/231/209 198/221/199
f 209/232/210 208/231/209 210/233/211
f 210/233/211 208/231/209 207/230/208
f 209/232/210 210/233/211 211/234/212
f 210/233/211 207/230/208 212/235/213
f 210/233/211 212/235/213 213/236/214
f 212/235/213 207/230/208 214/237/215
f 209/232/210 211/234/212 215/238/216
f 211/234/212 210/233/211 216/239/217
f 196/219/197 209/232/210 217/240/218
f 217/240/218 218/241/219 196/219/197
f 218/241/219 217/240/218 219/242/220
f 219/242/220 220/243/220 218/241/219
f 196/219/197 198/221/199 208/231/209
f 208/231/209 209/232/210 196/219/197
f 221/244/221 220/243/220 219/242/220
s 14
f 222/245/222 223/246/223 224/247/224
f 224/247/224 223/246/223 225/248/225
f 222/245/222 224/247/224 226/249/226
f 224/247/224 225/248/225 227/250/227
f 224/247/224 227/250/227 228/251/228
f 227/250/227 225/248/225 229/252/229
f 222/245/222 226/249/226 230/253/230
f 226/249/226 224/247/224 231/254/231
f 232/255/232 225/248/225 233/256/233
f 223/246/223 234/257/234 233/256/233
f 233/256/233 225/248/225 223/246/223
f 235/258/235 236/259/236 234/257/234
f 236/259/236 233/256/233 234/257/234
f 235/258/235 237/260/237 236/259/236
f 236/259/236 238/261/238 233/256/233
f 236/259/236 239/262/239 238/261/238
f 238/261/238 240/263/240 233/256/233
f 235/258/235 241/264/241 237/260/237
f 237/260/237 242/265/242 236/259/236
f 222/245/222 243/266/243 244/267/243
f 244/267/243 235/258/235 222/245/222
f 243/266/243 245/268/244 246/269/244
f 246/269/244 244/267/243 243/266/243
f 222/245/222 235/258/235 234/257/234
f 234/257/234 223/246/223 222/245/222
f 247/270/245 246/269/244 245/268/244
s 15
f 248/271/246 249/272/247 250/273/248
f 250/273/248 251/274/249 248/271/246
f 252/275/250 253/276/251 249/272/247
f 249/272/247 248/271/246 252/275/250
f 252/275/250 254/277/252 253/276/251
f 251/274/249 250/273/248 255/278/253
f 255/278/253 256/279/254 251/274/249
f 256/279/254 255/278/253 257/280/255
f 257/280/255 258/281/256 256/279/254
s 16
f 259/282/257 260/283/258 261/284/259
f 261/284/259 262/285/260 259/282/257
f 263/286/261 259/282/257 262/285/260
f 262/285/260 264/287/262 263/286/261
f 263/286/261 264/287/262 265/288/263
f 260/283/258 266/289/264 267/290/265
f 267/290/265 261/284/259 260/283/258
f 266/289/264 268/291/266 269/292/267
f 269/292/267 267/290/265 266/289/264
s 17
f 270/293/268 271/294/269 272/295/270
f 271/294/269 273/296/271 272/295/270
f 270/293/268 274/297/272 271/294/269
f 271/294/269 275/298/273 273/296/271
f 271/294/269 276/299/274 275/298/273
f 275/298/273 277/300/275 273/296/271
f 270/293/268 278/301/276 274/297/272
f 274/297/272 279/302/277 271/294/269
f 280/303/278 281/304/279 273/296/271
f 272/295/270 273/296/271 281/304/279
f 281/304/279 282/305/280 272/295/270
f 283/306/281 282/305/280 284/307/282
f 284/307/282 282/305/280 281/304/279
f 283/306/281 284/307/282 285/308/283
f 284/307/282 281/304/279 286/309/284
f 284/307/282 286/309/284 287/310/285
f 286/309/284 281/304/279 288/311/286
f 283/306/281 285/308/283 289/312/287
f 285/308/283 284/307/282 290/313/288
f 270/293/268 283/306/281 291/314/289
f 291/314/289 292/315/289 270/293/268
f 292/315/289 291/314/289 293/316/290
f 293/316/290 294/317/290 292/315/289
f 270/293/268 272/295/270 282/305/280
f 282/305/280 283/306/281 270/293/268
f 295/318/291 294/317/290 293/316/290
s 18
f 296/319/292 297/320/293 298/321/294
f 298/321/294 297/320/293 299/322/295
f 296/319/292 298/321/294 300/323/296
f 298/321/294 299/322/295 301/324/297
f 298/321/294 301/324/297 302/325/298
f 301/324/297 299/322/295 303/326/299
f 296/319/292 300/323/296 304/327/300
f 300/323/296 298/321/294 305/328/301
f 306/329/302 299/322/295 307/330/303
f 297/320/293 308/331/304 307/330/303
f 307/330/303 299/322/295 297/320/293
f 309/332/305 310/333/306 308/331/304
f 310/333/306 307/330/303 308/331/304
f 309/332/305 311/334/307 310/333/306
f 310/333/306 312/335/308 307/330/303
f 310/333/306 313/336/309 312/335/308
f 312/335/308 314/337/310 307/330/303
f 309/332/305 315/338/311 311/334/307
f 311/334/307 316/339/312 310/333/306
f 296/319/292 317/340/313 318/341/313
f 318/341/313 309/332/305 296/319/292
f 317/340/313 319/342/314 320/343/315
f 320/343/315 318/341/313 317/340/313
f 296/319/292 309/332/305 308/331/304
f 308/331/304 297/320/293 296/319/292
f 321/344/316 320/343/315 319/342/314
s 19
f 322/345/317 323/346/318 324/347/319
f 324/347/319 325/348/320 322/345/317
f 326/349/321 327/350/322 323/346/318
f 323/346/318 322/345/317 326/349/321
f 326/349/321 328/351/323 327/350/322
f 325/348/320 324/347/319 329/352/324
f 329/352/324 330/353/325 325/348/320
f 330/353/325 329/352/324 331/354/326
f 331/354/326 332/355/327 330/353/325
s 20
f 333/356/328 334/357/329 335/358/330
f 335/358/330 336/359/331 333/356/328
f 337/360/332 333/356/328 336/359/331
f 336/359/331 338/361/333 337/360/332
f 337/360/332 338/361/333 339/362/334
f 334/357/329 340/363/335 341/364/336
f 341/364/336 335/358/330 334/357/329
f 340/363/335 342/365/337 343/366/338
f 343/366/338 341/364/336 340/363/335
s 21
f 344/367/339 345/368/340 346/369/341
f 346/369/341 347/370/342 344/367/339
f 348/371/343 349/372/344 345/368/340
f 345/368/340 344/367/339 348/371/343
f 348/371/343 350/373/345 349/372/344
f 347/370/342 346/369/341 351/374/346
f 351/374/346 352/375/347 347/370/342
f 352/375/347 351/374/346 353/376/348
f 353/376/348 354/377/349 352/375/347
s 22
f 355/378/350 356/379/351 357/380/352
f 357/380/352 358/381/353 355/378/350
f 359/382/354 355/378/350 358/381/353
f 358/381/353 360/383/355 359/382/354
f 359/382/354 360/383/355 361/384/356
f 356/379/351 362/385/357 363/386/358
f 363/386/358 357/380/352 356/379/351
f 362/385/357 364/387/359 365/388/360
f 365/388/360 363/386/358 362/385/357
s 23
f 366/389/361 367/390/362 368/391/363
f 368/391/363 369/392/364 366/389/361
f 370/393/365 371/394/366 367/390/362
f 367/390/362 366/389/361 370/393/365
f 372/395/367 371/396/366 370/397/365
f 370/397/365 373/398/368 372/395/367
f 368/391/363 372/395/367 373/398/368
f 373/398/368 369/392/364 368/391/363
f 374/399/369 375/400/370 376/401/371
f 376/401/371 377/402/372 374/399/369
f 378/403/373 379/404/374 375/400/370
f 375/400/370 374/399/369 378/403/373
f 380/405/375 379/406/374 378/407/373
f 378/407/373 381/408/376 380/405/375
f 376/401/371 380/405/375 381/408/376
f 381/408/376 377/402/372 376/401/371
f 375/400/370 366/389/361 369/392/364
f 369/392/364 376/401/371 375/400/370
f 379/404/374 370/393/365 366/389/361
f 366/389/361 375/400/370 379/404/374
f 373/398/368 370/397/365 379/406/374
f 379/406/374 380/405/375 373/398/368
f 369/392/364 373/398/368 380/405/375
f 380/405/375 376/401/371 369/392/364
f 367/390/362 382/409/377 383/410/378
f 383/410/378 368/391/363 367/390/362
f 371/394/366 384/411/379 382/409/377
f 382/409/377 367/390/362 371/394/366
f 385/412/380 384/413/379 371/396/366
f 371/396/366 372/395/367 385/412/380
f 383/410/378 385/412/380 372/395/367
f 372/395/367 368/391/363 383/410/378
s off
f 385/412/380 383/410/378 382/409/381
f 382/409/381 384/411/379 385/412/382
s 26
f 386/414/383 387/415/384 388/416/385
f 388/416/385 389/417/386 386/414/383
s 27
f 390/418/387 391/419/388 392/420/389
f 392/420/389 393/421/390 390/418/387
f 394/422/391 395/423/392 391/419/388
f 391/419/388 390/418/387 394/422/391
f 396/424/393 395/425/392 394/426/391
f 394/426/391 397/427/394 396/424/393
f 392/420/389 396/424/393 397/427/394
f 397/427/394 393/421/390 392/420/389
f 398/428/395 399/429/396 400/430/397
f 400/430/397 401/431/398 398/428/395
f 402/432/399 403/433/400 398/428/395
f 398/428/395 401/431/398 402/432/399
f 404/434/401 405/435/402 403/436/400
f 403/436/400 402/437/399 404/434/401
f 399/429/396 405/435/402 404/434/401
f 404/434/401 400/430/397 399/429/396
f 406/438/403 407/439/404 408/440/405
f 408/440/405 409/441/406 406/438/403
f 410/442/407 411/443/408 407/439/404
f 407/439/404 406/438/403 410/442/407
f 412/444/409 411/445/408 410/446/407
f 410/446/407 413/447/410 412/444/409
f 408/440/405 412/444/409 413/447/410
f 413/447/410 409/441/406 408/440/405
f 407/439/404 390/418/387 393/421/390
f 393/421/390 408/440/405 407/439/404
f 411/443/408 394/422/391 390/418/387
f 390/418/387 407/439/404 411/443/408
f 397/427/394 394/426/391 411/445/408
f 411/445/408 412/444/409 397/427/394
f 393/421/390 397/427/394 412/444/409
f 412/444/409 408/440/405 393/421/390
f 391/419/388 401/431/398 400/430/397
f 400/430/397 392/420/389 391/419/388
f 395/423/392 402/432/399 401/431/398
f 401/431/398 391/419/388 395/423/392
f 404/434/401 402/437/399 395/425/392
f 395/425/392 396/424/393 404/434/401
f 400/430/397 404/434/401 396/424/393
f 396/424/393 392/420/389 400/430/397
f 398/428/395 387/448/411 386/414/383
f 386/414/383 399/429/396 398/428/395
f 388/449/385 387/448/411 398/428/395
f 398/428/395 403/433/400 388/449/385
f 389/417/412 388/450/385 403/436/400
f 403/436/400 405/435/402 389/417/412
f 386/414/383 389/417/412 405/435/402
f 405/435/402 399/429/396 386/414/383
s 28
f 414/451/413 415/452/414 416/453/415
f 416/453/415 417/454/416 414/451/413
f 418/455/417 419/456/418 415/452/414
f 415/452/414 414/451/413 418/455/417
f 418/455/417 420/457/419 419/456/418
f 417/454/416 416/453/415 421/458/420
f 421/458/420 422/459/421 417/454/416
f 422/459/421 421/458/420 423/460/422
f 423/460/422 424/461/423 422/459/421
s 29
f 425/462/424 426/463/425 427/464/426
f 427/464/426 428/465/427 425/462/424
f 429/466/428 425/462/424 428/465/427
f 428/465/427 430/467/429 429/466/428
f 429/466/428 430/467/429 431/468/430
f 426/463/425 432/469/431 433/470/432
f 433/470/432 427/464/426 426/463/425
f 432/469/431 434/471/433 435/472/434
f 435/472/434 433/470/432 432/469/431
s 30
f 436/473/435 437/474/436 438/475/437
f 438/475/437 439/476/438 436/473/435
f 440/477/439 441/478/440 437/474/436
f 437/474/436 436/473/435 440/477/439
f 440/477/439 442/479/441 441/478/440
f 439/476/438 438/475/437 443/480/442
f 443/480/442 444/481/443 439/476/438
f 444/481/443 443/480/442 445/482/444
f 445/482/444 446/483/445 444/481/443
s 31
f 447/484/446 448/485/447 449/486/448
f 449/486/448 450/487/449 447/484/446
f 451/488/450 447/484/446 450/487/449
f 450/487/449 452/489/451 451/488/450
f 451/488/450 452/489/451 453/490/452
f 448/485/447 454/491/453 455/492/454
f 455/492/454 449/486/448 448/485/447
f 454/491/453 456/493/455 457/494/456
f 457/494/456 455/492/454 454/491/453
s 32
f 458/495/457 459/496/458 460/497/459
f 459/496/458 461/498/460 460/497/459
f 458/495/457 462/499/461 459/496/458
f 459/496/458 463/500/462 461/498/460
f 459/496/458 464/501/463 463/500/462
f 463/500/462 465/502/464 461/498/460
f 458/495/457 466/503/465 462/499/461
f 462/499/461 467/504/466 459/496/458
f 468/505/467 469/506/468 461/498/460
f 460/497/459 461/498/460 469/506/468
f 469/506/468 470/507/469 460/497/459
f 471/508/470 470/507/469 472/509/471
f 472/509/471 470/507/469 469/506/468
f 471/508/470 472/509/471 473/510/472
f 472/509/471 469/506/468 474/511/473
f 472/509/471 474/511/473 475/512/474
f 474/511/473 469/506/468 476/513/475
f 471/508/470 473/510/472 477/514/476
f 473/510/472 472/509/471 478/515/477
f 458/495/457 471/508/470 479/516/478
f 479/516/478 480/517/479 458/495/457
f 480/517/479 479/516/478 481/518/480
f 481/518/480 482/519/480 480/517/479
f 458/495/457 460/497/459 470/507/469
f 470/507/469 471/508/470 458/495/457
f 483/520/481 482/519/480 481/518/480
s 33
f 484/521/482 485/522/483 486/523/484
f 486/523/484 485/522/483 487/524/485
f 484/521/482 486/523/484 488/525/486
f 486/523/484 487/524/485 489/526/487
f 486/523/484 489/526/487 490/527/488
f 489/526/487 487/524/485 491/528/489
f 484/521/482 488/525/486 492/529/490
f 488/525/486 486/523/484 493/530/491
f 494/531/492 487/524/485 495/532/493
f 485/522/483 496/533/494 495/532/493
f 495/532/493 487/524/485 485/522/483
f 497/534/495 498/535/496 496/533/494
f 498/535/496 495/532/493 496/533/494
f 497/534/495 499/536/497 498/535/496
f 498/535/496 500/537/498 495/532/493
f 498/535/496 501/538/499 500/537/498
f 500/537/498 502/539/500 495/532/493
f 497/534/495 503/540/501 499/536/497
f 499/536/497 504/541/502 498/535/496
f 484/521/482 505/542/503 506/543/503
f 506/543/503 497/534/495 484/521/482
f 505/542/503 507/544/504 508/545/505
f 508/545/505 506/543/503 505/542/503
f 484/521/482 497/534/495 496/533/494
f 496/533/494 485/522/483 484/521/482
f 509/546/506 508/545/505 507/544/504
