# Blender v3.3.0 OBJ File: ''
# www.blender.org
o ItemPumpkin_.005
v 0.013258 0.296519 -0.082056
v 0.022383 0.261428 -0.142370
v -0.028572 0.261428 -0.141258
v -0.016755 0.296514 -0.081403
v -0.048639 0.296521 -0.067405
v -0.084844 0.261428 -0.116498
v -0.120088 0.261428 -0.079682
v -0.069418 0.296516 -0.045702
v -0.082056 0.296520 -0.013253
v -0.142370 0.261428 -0.022383
v -0.141258 0.261428 0.028572
v -0.081401 0.296517 0.016791
v -0.067379 0.296518 0.048665
v -0.116498 0.261428 0.084844
v -0.079682 0.261428 0.120088
v -0.045668 0.296518 0.069449
v -0.013251 0.296513 0.082270
v -0.022421 0.261418 0.142586
v 0.028534 0.261418 0.141474
v 0.016750 0.296509 0.081616
v 0.048626 0.296519 0.067596
v 0.084806 0.261428 0.116714
v 0.120050 0.261428 0.079897
v 0.069408 0.296523 0.045886
v 0.082055 0.296522 0.013249
v 0.142370 0.261428 0.022383
v 0.141258 0.261428 -0.028572
v 0.081401 0.296516 -0.016789
v 0.067384 0.296517 -0.048661
v 0.116498 0.261428 -0.084844
v 0.079681 0.261428 -0.120088
v 0.045703 0.296515 -0.069417
v 0.029336 0.199296 -0.181806
v -0.037239 0.199296 -0.180353
v -0.107812 0.199296 -0.149300
v -0.153861 0.199296 -0.101197
v -0.181806 0.199296 -0.029337
v -0.180354 0.199296 0.037239
v -0.149300 0.199296 0.107812
v -0.101197 0.199296 0.153861
v -0.029374 0.199286 0.182022
v 0.037201 0.199286 0.180569
v 0.107774 0.199296 0.149516
v 0.153823 0.199296 0.101413
v 0.181806 0.199296 0.029336
v 0.180353 0.199296 -0.037239
v 0.149300 0.199296 -0.107812
v 0.101197 0.199296 -0.153861
v 0.031778 0.126007 -0.195654
v -0.040282 0.126007 -0.194082
v -0.115878 0.126007 -0.160819
v -0.165721 0.126007 -0.108753
v -0.195654 0.126007 -0.031778
v -0.194082 0.126007 0.040282
v -0.160819 0.126007 0.115878
v -0.108753 0.126007 0.165720
v -0.031778 0.125996 0.195654
v 0.040282 0.125996 0.194082
v 0.115840 0.126007 0.161035
v 0.165682 0.126007 0.108968
v 0.195654 0.126007 0.031778
v 0.194082 0.126007 -0.040282
v 0.160819 0.126007 -0.115878
v 0.108752 0.126007 -0.165721
v 0.029336 0.052717 -0.181806
v -0.037239 0.052717 -0.180353
v -0.107812 0.052717 -0.149300
v -0.153861 0.052717 -0.101197
v -0.181806 0.052717 -0.029337
v -0.180354 0.052717 0.037239
v -0.149300 0.052717 0.107812
v -0.101197 0.052717 0.153861
v -0.029336 0.052706 0.181806
v 0.037239 0.052706 0.180353
v 0.107774 0.052717 0.149516
v 0.153823 0.052717 0.101413
v 0.181806 0.052717 0.029336
v 0.180353 0.052717 -0.037239
v 0.149300 0.052717 -0.107812
v 0.101197 0.052717 -0.153861
v 0.022383 0.009582 -0.142370
v -0.028572 0.009582 -0.141258
v -0.084844 0.009582 -0.116498
v -0.120088 0.009582 -0.079682
v -0.142370 0.009582 -0.022383
v -0.141258 0.009582 0.028572
v -0.116498 0.009582 0.084844
v -0.079682 0.009582 0.120088
v -0.022383 0.009576 0.142370
v 0.028572 0.009576 0.141258
v 0.084806 0.009582 0.116714
v 0.120050 0.009582 0.079897
v 0.142370 0.009582 0.022383
v 0.141258 0.009582 -0.028572
v 0.116498 0.009582 -0.084844
v 0.079681 0.009582 -0.120088
v 0.011976 -0.010699 -0.083350
v -0.015600 -0.010699 -0.082749
v -0.050469 -0.010699 -0.067406
v -0.069543 -0.010699 -0.047481
v -0.083350 -0.010699 -0.011976
v -0.082749 -0.010699 0.015600
v -0.067406 -0.010699 0.050469
v -0.047481 -0.010699 0.069543
v -0.011976 -0.010704 0.083350
v 0.015600 -0.010704 0.082749
v 0.050431 -0.010699 0.067622
v 0.069505 -0.010699 0.047697
v 0.083350 -0.010699 0.011976
v 0.082749 -0.010699 -0.015600
v 0.067406 -0.010699 -0.050469
v 0.047481 -0.010699 -0.069543
v 0.047055 0.242301 -0.121001
v 0.059279 0.188945 -0.152435
v 0.063571 0.126007 -0.163473
v 0.059279 0.063068 -0.152435
v 0.047055 0.018925 -0.121001
v 0.028760 0.001510 -0.073956
v -0.031958 0.001510 -0.072631
v -0.052288 0.018925 -0.118833
v -0.065871 0.063068 -0.149704
v -0.070641 0.126007 -0.160545
v -0.065871 0.188945 -0.149704
v -0.052288 0.242301 -0.118833
v -0.073956 0.001510 -0.028760
v -0.121001 0.018925 -0.047055
v -0.152435 0.063068 -0.059279
v -0.163473 0.126007 -0.063571
v -0.152435 0.188945 -0.059279
v -0.121001 0.242301 -0.047055
v -0.072631 0.001510 0.031958
v -0.118833 0.018925 0.052288
v -0.149704 0.063068 0.065871
v -0.160545 0.126007 0.070641
v -0.149704 0.188945 0.065871
v -0.118833 0.242301 0.052288
v -0.028761 0.001510 0.073962
v -0.047056 0.018925 0.121007
v -0.059280 0.063068 0.152441
v -0.063572 0.126007 0.163479
v -0.059296 0.188945 0.152534
v -0.047072 0.242301 0.121100
v 0.031938 0.001510 0.072745
v 0.052268 0.018925 0.118947
v 0.065851 0.063068 0.149818
v 0.070621 0.126007 0.160659
v 0.065835 0.188945 0.149911
v 0.052251 0.242301 0.119040
v 0.073937 0.001510 0.028868
v 0.120982 0.018925 0.047162
v 0.152416 0.063068 0.059386
v 0.163454 0.126007 0.063679
v 0.152416 0.188945 0.059386
v 0.120982 0.242301 0.047162
v 0.072631 0.001510 -0.031958
v 0.118833 0.018925 -0.052288
v 0.149704 0.063068 -0.065871
v 0.160545 0.126007 -0.070641
v 0.149704 0.188945 -0.065871
v 0.118833 0.242301 -0.052288
v -0.006665 0.333913 -0.008747
v 0.004344 0.340268 -0.003805
v 0.009036 0.299316 -0.023198
v -0.010058 0.299315 -0.022782
v -0.023265 0.299310 -0.008986
v -0.010944 0.331439 0.003969
v -0.022848 0.299306 0.010118
v -0.009041 0.299305 0.023372
v 0.000060 0.337791 0.008944
v 0.010026 0.299304 0.022990
v 0.023241 0.299310 0.009160
v 0.022830 0.299312 -0.009994
v -0.017776 -0.019106 -0.040398
v 0.015997 -0.019106 -0.041135
v -0.041135 -0.019106 -0.015997
v -0.040399 -0.019106 0.017776
v -0.015996 -0.019103 0.041131
v 0.017768 -0.019086 0.040483
v 0.041136 -0.019136 0.016117
v 0.040398 -0.019106 -0.017776
v -0.028373 0.275595 0.073056
v -0.012431 0.291691 0.032249
v -0.071646 0.275593 0.031520
v -0.031558 0.291679 0.013855
v -0.072940 0.275593 -0.028397
v -0.032051 0.291679 -0.012650
v -0.031480 0.275593 -0.071664
v -0.013623 0.291679 -0.031657
v 0.028401 0.275594 -0.072939
v 0.012677 0.291679 -0.032066
v 0.071649 0.275595 -0.031515
v 0.031601 0.291679 -0.013841
v 0.072934 0.275601 0.028478
v 0.032146 0.291711 0.012619
v 0.031480 0.275593 0.071855
v 0.013792 0.291682 0.031760
v 0.048714 0.231814 -0.034859
v 0.047975 0.232883 -0.033701
v 0.048968 0.233784 -0.032592
v 0.050700 0.233615 -0.032640
v 0.051438 0.232546 -0.033797
v 0.050445 0.231645 -0.034907
v 0.045937 0.198871 -0.082201
v 0.046652 0.197303 -0.082444
v 0.046944 0.209965 -0.116296
v 0.046229 0.211533 -0.116053
v 0.044205 0.199039 -0.082153
v 0.044498 0.211702 -0.116004
v 0.043189 0.197640 -0.082348
v 0.043481 0.210303 -0.116199
v 0.043904 0.196072 -0.082591
v 0.044196 0.208735 -0.116443
v 0.045635 0.195904 -0.082639
v 0.045928 0.208566 -0.116491
v 0.045939 0.192283 -0.059019
v 0.046699 0.190880 -0.058215
v 0.044208 0.192452 -0.058971
v 0.043237 0.191217 -0.058118
v 0.043997 0.189819 -0.057312
v 0.045729 0.189650 -0.057360
v 0.046927 0.196984 -0.039951
v 0.047696 0.195659 -0.039125
v 0.046991 0.191417 -0.049610
v 0.046223 0.192742 -0.050436
v 0.045196 0.197152 -0.039903
v 0.044491 0.192911 -0.050388
v 0.044233 0.195996 -0.039029
v 0.043528 0.191755 -0.049513
v 0.045001 0.194671 -0.038203
v 0.044297 0.190429 -0.048688
v 0.046733 0.194502 -0.038252
v 0.046028 0.190261 -0.048736
v 0.047915 0.202928 -0.025258
v 0.048684 0.201602 -0.024432
v 0.046184 0.203096 -0.025210
v 0.045221 0.201940 -0.024336
v 0.045989 0.200615 -0.023510
v 0.047721 0.200446 -0.023559
v 0.048651 0.208861 -0.019590
v 0.049488 0.208098 -0.018269
v 0.046919 0.209030 -0.019542
v 0.046025 0.208435 -0.018172
v 0.046862 0.207672 -0.016851
v 0.048593 0.207503 -0.016899
v 0.049437 0.215412 -0.014279
v 0.050274 0.214649 -0.012958
v 0.047705 0.215580 -0.014231
v 0.046811 0.214986 -0.012862
v 0.047648 0.214223 -0.011540
v 0.049379 0.214054 -0.011589
v 0.050133 0.222397 -0.013723
v 0.051110 0.223090 -0.012461
v 0.048402 0.222566 -0.013675
v 0.047647 0.223428 -0.012365
v 0.048624 0.224121 -0.011103
v 0.050356 0.223952 -0.011151
v 0.051011 0.232415 -0.017239
v 0.051988 0.233108 -0.015977
v 0.049280 0.232584 -0.017191
v 0.048526 0.233445 -0.015880
v 0.049503 0.234139 -0.014618
v 0.051234 0.233970 -0.014666
v 0.051188 0.234463 -0.018060
v 0.052234 0.236032 -0.017391
v 0.049457 0.234632 -0.018012
v 0.048771 0.236369 -0.017295
v 0.049813 0.237923 -0.016717
v 0.051544 0.237754 -0.016764
v 0.051909 0.246853 -0.035547
v 0.052926 0.248242 -0.035291
v 0.052805 0.244417 -0.026227
v 0.051788 0.243028 -0.026484
v 0.050178 0.247022 -0.035499
v 0.050057 0.243197 -0.026436
v 0.049463 0.248579 -0.035195
v 0.049343 0.244754 -0.026131
v 0.050480 0.249968 -0.034938
v 0.050360 0.246143 -0.025874
v 0.052212 0.249799 -0.034986
v 0.052091 0.245974 -0.025922
v 0.051521 0.244660 -0.041810
v 0.052474 0.245744 -0.042782
v 0.049790 0.244829 -0.041762
v 0.049012 0.246082 -0.042686
v 0.049965 0.247166 -0.043658
v 0.051696 0.246997 -0.043706
v 0.050947 0.240901 -0.049292
v 0.051900 0.241985 -0.050264
v 0.049215 0.241070 -0.049244
v 0.048437 0.242322 -0.050168
v 0.049390 0.243407 -0.051140
v 0.051122 0.243238 -0.051188
v 0.050423 0.236618 -0.053125
v 0.051229 0.236345 -0.054643
v 0.048691 0.236787 -0.053076
v 0.047766 0.236683 -0.054547
v 0.048572 0.236410 -0.056065
v 0.050303 0.236241 -0.056113
v 0.049635 0.228721 -0.053780
v 0.050340 0.227407 -0.055295
v 0.047904 0.228890 -0.053732
v 0.046877 0.227744 -0.055199
v 0.047565 0.226184 -0.056437
v 0.049297 0.226015 -0.056485
v 0.048809 0.218585 -0.047989
v 0.049523 0.217070 -0.048463
v 0.049827 0.221740 -0.053862
v 0.049116 0.223204 -0.053128
v 0.047077 0.218753 -0.047941
v 0.047385 0.223373 -0.053080
v 0.046060 0.217407 -0.048367
v 0.046365 0.222077 -0.053765
v 0.046773 0.215893 -0.048840
v 0.047072 0.220551 -0.054430
v 0.048505 0.215724 -0.048889
v 0.048803 0.220382 -0.054478
v 0.048623 0.214735 -0.041177
v 0.049337 0.213220 -0.041651
v 0.046892 0.214904 -0.041129
v 0.045874 0.213558 -0.041555
v 0.046588 0.212043 -0.042028
v 0.048319 0.211875 -0.042076
v 0.048867 0.216093 -0.037174
v 0.049669 0.215036 -0.036048
v 0.047135 0.216262 -0.037125
v 0.046207 0.215374 -0.035952
v 0.047009 0.214317 -0.034826
v 0.048741 0.214148 -0.034875
v 0.049394 0.220033 -0.032024
v 0.050197 0.218977 -0.030899
v 0.047662 0.220202 -0.031976
v 0.046734 0.219314 -0.030802
v 0.047537 0.218257 -0.029677
v 0.049268 0.218088 -0.029725
v 0.049544 0.221222 -0.030788
v 0.050520 0.221844 -0.029314
v 0.047812 0.221391 -0.030740
v 0.047057 0.222182 -0.029217
v 0.048047 0.222989 -0.027904
v 0.049778 0.222820 -0.027952
v 0.050062 0.226965 -0.032294
v 0.051055 0.227866 -0.031185
v 0.050781 0.224528 -0.029321
v 0.049788 0.223627 -0.030430
v 0.048330 0.227134 -0.032246
v 0.048057 0.223796 -0.030382
v 0.047592 0.228204 -0.031088
v 0.047319 0.224865 -0.029225
v 0.048585 0.229104 -0.029979
v 0.048312 0.225766 -0.028115
v 0.050317 0.228935 -0.030027
v 0.050043 0.225597 -0.028163
v 0.052623 0.241053 -0.021016
v 0.051598 0.239620 -0.021376
v 0.049867 0.239788 -0.021328
v 0.049160 0.241391 -0.020920
v 0.050183 0.242821 -0.020582
v 0.051914 0.242652 -0.020631
v 0.000026 -0.020310 0.000023
vt 0.508700 0.922800
vt 0.509000 0.865000
vt 0.539200 0.865000
vt 0.539500 0.922800
vt 0.042600 0.922800
vt 0.043000 0.865000
vt 0.073100 0.865000
vt 0.073400 0.922800
vt 0.109200 0.922800
vt 0.109600 0.865000
vt 0.139700 0.865000
vt 0.140000 0.922800
vt 0.175800 0.922800
vt 0.176100 0.865000
vt 0.206300 0.865000
vt 0.206600 0.922800
vt 0.242400 0.922600
vt 0.242700 0.864900
vt 0.272800 0.864900
vt 0.273100 0.922600
vt 0.308800 0.922600
vt 0.309200 0.864900
vt 0.339300 0.864900
vt 0.339600 0.922700
vt 0.375500 0.922800
vt 0.375900 0.865000
vt 0.406000 0.865000
vt 0.406300 0.922800
vt 0.442100 0.922800
vt 0.442500 0.865000
vt 0.472600 0.865000
vt 0.472900 0.922800
vt 0.508700 0.801900
vt 0.539500 0.801900
vt 0.042600 0.801900
vt 0.073500 0.801900
vt 0.109200 0.801900
vt 0.140000 0.801900
vt 0.175800 0.801900
vt 0.206600 0.801900
vt 0.242400 0.801900
vt 0.273200 0.801900
vt 0.308900 0.801900
vt 0.339700 0.801900
vt 0.375500 0.801900
vt 0.406400 0.801900
vt 0.442100 0.801900
vt 0.472900 0.801900
vt 0.508600 0.735000
vt 0.539600 0.735000
vt 0.042500 0.735000
vt 0.073500 0.735000
vt 0.109100 0.735000
vt 0.140100 0.735000
vt 0.175700 0.735000
vt 0.206700 0.735000
vt 0.242300 0.735000
vt 0.273300 0.735000
vt 0.308800 0.735000
vt 0.339800 0.735000
vt 0.375400 0.735000
vt 0.406400 0.735000
vt 0.442000 0.735000
vt 0.473000 0.735000
vt 0.509300 0.666400
vt 0.539800 0.666400
vt 0.042600 0.666400
vt 0.073500 0.666400
vt 0.109200 0.666400
vt 0.140000 0.666400
vt 0.175800 0.666400
vt 0.206600 0.666400
vt 0.242400 0.666400
vt 0.273200 0.666400
vt 0.308900 0.666500
vt 0.339700 0.666400
vt 0.375500 0.666400
vt 0.406400 0.666400
vt 0.442100 0.666400
vt 0.472900 0.666400
vt 0.509000 0.599100
vt 0.539200 0.599100
vt 0.043000 0.599100
vt 0.073100 0.599100
vt 0.109600 0.599100
vt 0.139700 0.599100
vt 0.176100 0.599100
vt 0.206300 0.599100
vt 0.242700 0.599100
vt 0.272800 0.599100
vt 0.309200 0.599200
vt 0.339300 0.599200
vt 0.375900 0.599100
vt 0.406000 0.599100
vt 0.442500 0.599100
vt 0.472600 0.599100
vt 0.510200 0.534400
vt 0.538000 0.534400
vt 0.044100 0.534400
vt 0.072000 0.534400
vt 0.110700 0.534400
vt 0.138600 0.534400
vt 0.177300 0.534400
vt 0.205100 0.534400
vt 0.243800 0.534400
vt 0.271700 0.534400
vt 0.310300 0.534500
vt 0.338100 0.534400
vt 0.377000 0.534400
vt 0.404900 0.534400
vt 0.443600 0.534400
vt 0.471500 0.534400
vt 0.490800 0.861900
vt 0.490800 0.801100
vt 0.490800 0.736200
vt 0.490800 0.669700
vt 0.490800 0.604300
vt 0.490800 0.541400
vt 0.006500 0.599100
vt 0.005400 0.534400
vt 0.024700 0.541400
vt 0.024700 0.604300
vt 0.006900 0.666400
vt 0.024700 0.669700
vt 0.007000 0.735000
vt 0.024700 0.736200
vt 0.006900 0.801900
vt 0.024700 0.801100
vt 0.006500 0.865000
vt 0.024700 0.861900
vt 0.091300 0.541400
vt 0.091300 0.604300
vt 0.091300 0.669700
vt 0.091300 0.736200
vt 0.091300 0.801100
vt 0.091300 0.861900
vt 0.157900 0.541400
vt 0.157900 0.604300
vt 0.157900 0.669700
vt 0.157900 0.736200
vt 0.157900 0.801100
vt 0.157900 0.861900
vt 0.224500 0.541400
vt 0.224500 0.604300
vt 0.224500 0.669700
vt 0.224500 0.736200
vt 0.224500 0.801000
vt 0.224500 0.861900
vt 0.291000 0.541500
vt 0.291000 0.604400
vt 0.291000 0.669700
vt 0.291000 0.736200
vt 0.291000 0.801000
vt 0.291000 0.861800
vt 0.357500 0.541400
vt 0.357600 0.604300
vt 0.357600 0.669700
vt 0.357600 0.736200
vt 0.357600 0.801100
vt 0.357600 0.861900
vt 0.424200 0.541400
vt 0.424200 0.604300
vt 0.424200 0.669700
vt 0.424200 0.736200
vt 0.424200 0.801100
vt 0.424200 0.861900
vt 0.191600 0.226200
vt 0.218300 0.226200
vt 0.266800 0.385400
vt 0.211600 0.385400
vt 0.163900 0.385400
vt 0.166600 0.226200
vt 0.107400 0.385400
vt 0.065800 0.385400
vt 0.145100 0.226200
vt 0.017000 0.385400
vt 0.358200 0.386700
vt 0.335400 0.386700
vt 0.223200 0.227500
vt 0.315100 0.385400
vt 0.029300 0.497700
vt 0.483200 0.497000
vt 0.539100 0.497000
vt 0.088000 0.497700
vt 0.146300 0.497700
vt 0.224200 0.497700
vt 0.290700 0.497700
vt 0.357900 0.497700
vt 0.425500 0.497700
vt 0.224500 0.918700
vt 0.224700 0.960900
vt 0.157900 0.918800
vt 0.157800 0.961000
vt 0.091300 0.918800
vt 0.090900 0.961000
vt 0.006800 0.922800
vt 0.024700 0.918800
vt 0.024100 0.961000
vt 0.490800 0.918800
vt 0.490300 0.961000
vt 0.424200 0.918800
vt 0.424100 0.961000
vt 0.357500 0.918800
vt 0.357400 0.960900
vt 0.290900 0.918700
vt 0.290700 0.960900
vt 0.290800 0.970200
vt 0.224600 0.970200
vt 0.158100 0.970300
vt 0.091500 0.970300
vt 0.024900 0.970300
vt 0.556700 0.961000
vt 0.557500 0.970300
vt 0.490800 0.970400
vt 0.424100 0.970300
vt 0.357300 0.970300
vt 1.447100 -0.828700
vt 1.030500 -0.828700
vt 0.863800 -0.828700
vt 1.363800 -0.828700
vt 1.530500 -0.828700
vt 1.697100 -0.828700
vt 0.981100 0.726100
vt 0.981000 0.725600
vt 0.984300 0.712600
vt 0.984500 0.713100
vt 0.913100 0.866800
vt 0.913300 0.867000
vt 0.912600 0.884600
vt 0.912400 0.884400
vt 0.980300 0.695700
vt 0.980200 0.695700
vt 0.978600 0.678100
vt 0.978700 0.678100
vt 0.980500 0.695500
vt 0.978900 0.677900
vt 0.907000 0.701600
vt 0.907200 0.701500
vt 0.907100 0.719400
vt 0.906900 0.719400
vt 0.980800 0.725200
vt 0.984100 0.712200
vt 0.979100 0.735400
vt 0.978900 0.735400
vt 0.913700 0.854800
vt 0.913900 0.854900
vt 0.981100 0.708200
vt 0.981000 0.707700
vt 0.981300 0.708600
vt 0.906900 0.688200
vt 0.907200 0.688200
vt 0.978700 0.735600
vt 0.978500 0.745300
vt 0.978300 0.745300
vt 0.978400 0.739500
vt 0.978600 0.739500
vt 0.914200 0.845000
vt 0.914400 0.845100
vt 0.914100 0.850500
vt 0.913900 0.850300
vt 0.980500 0.718100
vt 0.980400 0.717500
vt 0.980900 0.712100
vt 0.981100 0.712700
vt 0.980700 0.718400
vt 0.981200 0.713000
vt 0.906800 0.678200
vt 0.907000 0.678100
vt 0.907100 0.683700
vt 0.906900 0.683700
vt 0.978100 0.745500
vt 0.978300 0.739800
vt 0.978400 0.753400
vt 0.978200 0.753400
vt 0.914700 0.837400
vt 0.914900 0.837600
vt 0.979800 0.725600
vt 0.979600 0.725000
vt 0.980000 0.725900
vt 0.906700 0.670400
vt 0.906900 0.670400
vt 0.978000 0.753600
vt 0.978700 0.757300
vt 0.978600 0.757700
vt 0.982500 0.967600
vt 0.982800 0.967700
vt 0.982500 0.970700
vt 0.982300 0.970600
vt 0.979000 0.728700
vt 0.978900 0.727900
vt 0.979100 0.729300
vt 0.892700 0.794500
vt 0.892500 0.794500
vt 0.892400 0.790800
vt 0.892600 0.790800
vt 0.978400 0.758200
vt 0.979200 0.761200
vt 0.979000 0.761500
vt 0.982800 0.964300
vt 0.983000 0.964300
vt 0.978200 0.731400
vt 0.978100 0.730600
vt 0.978200 0.732000
vt 0.892900 0.797900
vt 0.892700 0.797900
vt 0.978900 0.762100
vt 0.983100 0.960800
vt 0.983200 0.960400
vt 0.983100 0.964700
vt 0.982900 0.960700
vt 0.977100 0.731600
vt 0.977200 0.730800
vt 0.892700 0.802900
vt 0.892500 0.802500
vt 0.892500 0.798200
vt 0.892900 0.802900
vt 0.980000 0.763600
vt 0.980000 0.764400
vt 0.981300 0.763400
vt 0.981300 0.764100
vt 0.980000 0.762900
vt 0.982900 0.955600
vt 0.983100 0.955700
vt 0.975800 0.729700
vt 0.975900 0.728900
vt 0.975700 0.730200
vt 0.977000 0.732100
vt 0.892800 0.808000
vt 0.892600 0.808000
vt 0.981300 0.765000
vt 0.981600 0.763500
vt 0.981700 0.764100
vt 0.982900 0.954600
vt 0.983100 0.954700
vt 0.975500 0.728900
vt 0.975700 0.728500
vt 0.975300 0.729100
vt 0.892700 0.809900
vt 0.892500 0.809900
vt 0.981900 0.764800
vt 0.984000 0.758000
vt 0.984100 0.758400
vt 0.983200 0.761800
vt 0.983000 0.761400
vt 0.968000 0.946900
vt 0.967800 0.946900
vt 0.967900 0.942100
vt 0.968100 0.942100
vt 0.973900 0.719600
vt 0.974100 0.719300
vt 0.974600 0.724100
vt 0.974400 0.724300
vt 0.973800 0.719600
vt 0.974200 0.724300
vt 0.893100 0.602100
vt 0.892900 0.601900
vt 0.893000 0.597200
vt 0.893300 0.597400
vt 0.984300 0.758900
vt 0.983300 0.762300
vt 0.984100 0.754700
vt 0.984300 0.754400
vt 0.968100 0.950200
vt 0.967800 0.950200
vt 0.974200 0.715700
vt 0.974400 0.716100
vt 0.974100 0.715100
vt 0.892800 0.606600
vt 0.892600 0.606400
vt 0.984400 0.754300
vt 0.984100 0.750400
vt 0.984200 0.750100
vt 0.968100 0.954200
vt 0.967900 0.954100
vt 0.974700 0.711900
vt 0.974900 0.712300
vt 0.974600 0.711300
vt 0.892600 0.610400
vt 0.892400 0.610200
vt 0.984400 0.750000
vt 0.983800 0.747700
vt 0.983800 0.746800
vt 0.950300 0.913400
vt 0.950300 0.914300
vt 0.949700 0.914600
vt 0.949800 0.913700
vt 0.975400 0.709700
vt 0.975400 0.710400
vt 0.975500 0.708800
vt 0.913200 0.879800
vt 0.913400 0.879900
vt 0.913200 0.883500
vt 0.913000 0.883400
vt 0.983900 0.746200
vt 0.982900 0.745700
vt 0.982900 0.744600
vt 0.951300 0.913500
vt 0.951300 0.914400
vt 0.976500 0.709400
vt 0.976400 0.710100
vt 0.976700 0.708700
vt 0.913400 0.874600
vt 0.913600 0.874700
vt 0.913200 0.875300
vt 0.913100 0.879900
vt 0.981400 0.746200
vt 0.981300 0.745600
vt 0.982100 0.744100
vt 0.982300 0.744800
vt 0.938300 0.862100
vt 0.938100 0.861900
vt 0.938200 0.859200
vt 0.938400 0.859400
vt 0.977800 0.713000
vt 0.977700 0.713200
vt 0.977100 0.710500
vt 0.977300 0.710200
vt 0.978000 0.712700
vt 0.977500 0.709800
vt 0.978600 0.829600
vt 0.978700 0.828700
vt 0.979400 0.828900
vt 0.979400 0.829800
vt 0.981200 0.745200
vt 0.982000 0.743600
vt 0.980600 0.748500
vt 0.980500 0.747900
vt 0.938200 0.865600
vt 0.938000 0.865400
vt 0.978300 0.716600
vt 0.978200 0.716700
vt 0.978500 0.716300
vt 0.977800 0.829400
vt 0.977800 0.828400
vt 0.980300 0.747500
vt 0.980600 0.750700
vt 0.980400 0.750900
vt 0.938100 0.867700
vt 0.937900 0.867500
vt 0.978100 0.719500
vt 0.978000 0.718800
vt 0.978200 0.720000
vt 0.976800 0.829400
vt 0.976800 0.828500
vt 0.980200 0.751300
vt 0.980700 0.753900
vt 0.980500 0.754100
vt 0.937900 0.870300
vt 0.937700 0.870100
vt 0.977600 0.722100
vt 0.977500 0.721400
vt 0.977700 0.722600
vt 0.976100 0.829600
vt 0.976100 0.828700
vt 0.980400 0.754600
vt 0.980800 0.754700
vt 0.980800 0.755500
vt 0.937900 0.870900
vt 0.937600 0.870700
vt 0.977200 0.722900
vt 0.977300 0.722000
vt 0.981600 0.971400
vt 0.981800 0.970700
vt 0.982200 0.970600
vt 0.982300 0.971500
vt 0.925900 0.981300
vt 0.925900 0.980400
vt 0.926500 0.980200
vt 0.926500 0.981100
vt 0.980800 0.756400
vt 0.981500 0.755300
vt 0.981600 0.755900
vt 0.981100 0.756100
vt 0.981000 0.755400
vt 0.977500 0.704800
vt 0.977700 0.704900
vt 0.977700 0.706600
vt 0.977500 0.706500
vt 0.976500 0.721900
vt 0.976600 0.721200
vt 0.977000 0.722200
vt 0.976900 0.722900
vt 0.976400 0.722400
vt 0.976800 0.723300
vt 0.925100 0.981000
vt 0.925100 0.980100
vt 0.925600 0.980300
vt 0.925500 0.981200
vt 0.981600 0.756800
vt 0.981100 0.756900
vt 0.982200 0.755100
vt 0.982200 0.755700
vt 0.977500 0.702400
vt 0.977700 0.702500
vt 0.975900 0.720500
vt 0.976000 0.719800
vt 0.975800 0.721000
vt 0.924500 0.980700
vt 0.924500 0.979800
vt 0.982300 0.756500
vt 0.977700 0.707800
vt 0.977900 0.706100
vt 0.977900 0.707500
vt 0.977500 0.707700
vt 0.925700 0.979800
vt 0.926000 0.979800
vt 0.952000 0.914600
vt 0.952000 0.913700
vt 0.942700 0.733000
vt 0.943400 0.733100
vt 0.943300 0.734000
vt 0.942500 0.733600
vt 0.913600 0.871900
vt 0.913400 0.871800
vt 0.941600 0.733300
vt 0.942300 0.733100
vt 0.942500 0.734000
vt 0.941700 0.734000
vt 0.982500 0.763500
vt 0.982300 0.763100
vt 0.967900 0.939400
vt 0.968100 0.939400
vt 0.975000 0.726700
vt 0.974800 0.727000
vt 0.974700 0.727100
vt 0.893100 0.594400
vt 0.893400 0.594600
vt 0.982700 0.764100
vt 0.970100 0.633500
vt 0.969300 0.633700
vt 0.969200 0.632800
vt 0.970000 0.632800
vt 0.983100 0.952000
vt 0.982900 0.952000
vt 0.981200 0.740300
vt 0.981000 0.737300
vt 0.981200 0.737500
vt 0.981400 0.740600
vt 0.892400 0.812400
vt 0.892600 0.812400
vt 0.516900 0.433900
vt 0.457500 0.435700
vt 0.392800 0.425200
vt 0.325600 0.424500
vt 0.258700 0.426600
vt 0.186000 0.411800
vt 0.119500 0.435900
vt 0.058700 0.437800
vn 0.4153 0.8920 -0.1785
vn 0.3965 0.6943 -0.6006
vn -0.4072 0.6944 -0.5933
vn -0.4066 0.9016 -0.1474
vn 0.1672 0.8920 -0.4201
vn -0.1444 0.6943 -0.7051
vn -0.7075 0.6943 -0.1317
vn -0.3919 0.9016 0.1829
vn -0.1785 0.8920 -0.4154
vn -0.6006 0.6943 -0.3965
vn -0.5934 0.6943 0.4072
vn -0.1483 0.9016 0.4063
vn -0.4198 0.8919 -0.1680
vn -0.7050 0.6943 0.1443
vn -0.1325 0.6945 0.7072
vn 0.1815 0.9018 0.3921
vn -0.4160 0.8918 0.1779
vn -0.3971 0.6941 0.6004
vn 0.4071 0.6943 0.5935
vn 0.4063 0.9016 0.1483
vn -0.1680 0.8918 0.4200
vn 0.1442 0.6943 0.7051
vn 0.7074 0.6943 0.1323
vn 0.3921 0.9019 -0.1811
vn 0.1786 0.8924 0.4144
vn 0.6009 0.6945 0.3957
vn 0.5934 0.6943 -0.4072
vn 0.1482 0.9016 -0.4064
vn 0.4198 0.8920 0.1679
vn 0.7050 0.6943 -0.1443
vn 0.1316 0.6943 -0.7075
vn -0.1829 0.9017 -0.3919
vn 0.3773 0.3660 -0.8507
vn -0.4068 0.3617 -0.8389
vn -0.3348 0.3660 -0.8683
vn -0.8808 0.3617 -0.3056
vn -0.8507 0.3660 -0.3773
vn -0.8389 0.3617 0.4068
vn -0.8683 0.3660 0.3348
vn -0.3064 0.3616 0.8806
vn -0.3781 0.3646 0.8510
vn 0.4065 0.3607 0.8394
vn 0.3347 0.3660 0.8684
vn 0.8807 0.3617 0.3059
vn 0.8510 0.3660 0.3766
vn 0.8389 0.3617 -0.4068
vn 0.8683 0.3660 -0.3348
vn 0.3056 0.3617 -0.8808
vn 0.3686 0.0022 -0.9296
vn -0.4088 -0.0022 -0.9126
vn -0.3967 0.0022 -0.9179
vn -0.9344 -0.0022 -0.3563
vn -0.9296 0.0022 -0.3686
vn -0.9126 -0.0022 0.4088
vn -0.9179 0.0022 0.3967
vn -0.3563 -0.0022 0.9344
vn -0.3687 0.0010 0.9295
vn 0.4084 -0.0034 0.9128
vn 0.3959 0.0020 0.9183
vn 0.9343 -0.0022 0.3565
vn 0.9298 0.0022 0.3680
vn 0.9126 -0.0022 -0.4088
vn 0.9179 0.0022 -0.3967
vn 0.3563 -0.0022 -0.9344
vn 0.3628 -0.4341 -0.8246
vn -0.3989 -0.4300 -0.8100
vn -0.3266 -0.4341 -0.8396
vn -0.8548 -0.4300 -0.2907
vn -0.8246 -0.4341 -0.3628
vn -0.8100 -0.4300 0.3989
vn -0.8396 -0.4341 0.3266
vn -0.2907 -0.4300 0.8547
vn -0.3628 -0.4341 0.8246
vn 0.3984 -0.4301 0.8101
vn 0.3257 -0.4339 0.8400
vn 0.8547 -0.4300 0.2910
vn 0.8249 -0.4341 0.3621
vn 0.8100 -0.4300 -0.3989
vn 0.8396 -0.4341 -0.3266
vn 0.2907 -0.4300 -0.8548
vn 0.3061 -0.8019 -0.5131
vn -0.3282 -0.8087 -0.4882
vn -0.1464 -0.8018 -0.5793
vn -0.5773 -0.8087 -0.1131
vn -0.5131 -0.8019 -0.3061
vn -0.4882 -0.8087 0.3282
vn -0.5793 -0.8018 0.1464
vn -0.1131 -0.8087 0.5772
vn -0.3061 -0.8019 0.5131
vn 0.3279 -0.8088 0.4881
vn 0.1455 -0.8016 0.5798
vn 0.5771 -0.8087 0.1135
vn 0.5134 -0.8020 0.3054
vn 0.4882 -0.8087 -0.3282
vn 0.5793 -0.8018 -0.1464
vn 0.1131 -0.8087 -0.5773
vn 0.2893 -0.9309 -0.2230
vn -0.3186 -0.9213 -0.2228
vn 0.0469 -0.9309 -0.3623
vn -0.3829 -0.9213 0.0677
vn -0.2230 -0.9309 -0.2893
vn -0.2228 -0.9213 0.3186
vn -0.3623 -0.9309 -0.0469
vn 0.0677 -0.9213 0.3828
vn -0.2893 -0.9309 0.2229
vn 0.3186 -0.9213 0.2228
vn -0.0484 -0.9308 0.3624
vn 0.3823 -0.9216 -0.0666
vn 0.2239 -0.9311 0.2880
vn 0.2229 -0.9213 -0.3187
vn 0.3623 -0.9309 0.0469
vn -0.0677 -0.9213 -0.3829
vn 0.2506 0.6624 -0.7060
vn 0.3314 0.3440 -0.8786
vn 0.3624 0.0000 -0.9320
vn 0.3329 -0.3976 -0.8550
vn 0.2217 -0.8143 -0.5364
vn 0.1723 -0.9023 -0.3951
vn -0.1575 -0.9023 -0.4012
vn -0.2225 -0.8143 -0.5361
vn -0.3692 -0.3976 -0.8400
vn -0.4028 0.0000 -0.9153
vn -0.3869 0.3440 -0.8556
vn -0.3220 0.6624 -0.6764
vn -0.3951 -0.9023 -0.1723
vn -0.5364 -0.8143 -0.2217
vn -0.8550 -0.3976 -0.3329
vn -0.9320 0.0000 -0.3624
vn -0.8786 0.3440 -0.3314
vn -0.7060 0.6624 -0.2506
vn -0.4013 -0.9023 0.1575
vn -0.5361 -0.8143 0.2225
vn -0.8400 -0.3976 0.3692
vn -0.9153 -0.0000 0.4028
vn -0.8556 0.3440 0.3869
vn -0.6764 0.6624 0.3221
vn -0.1724 -0.9024 0.3950
vn -0.2218 -0.8143 0.5364
vn -0.3329 -0.3976 0.8550
vn -0.3626 -0.0005 0.9319
vn -0.3334 0.3431 0.8782
vn -0.2522 0.6625 0.7053
vn 0.1563 -0.9024 0.4015
vn 0.2212 -0.8142 0.5367
vn 0.3676 -0.3975 0.8407
vn 0.4010 -0.0007 0.9161
vn 0.3868 0.3436 0.8558
vn 0.3219 0.6624 0.6764
vn 0.3955 -0.9022 0.1721
vn 0.5365 -0.8143 0.2213
vn 0.8552 -0.3977 0.3324
vn 0.9322 -0.0000 0.3620
vn 0.8787 0.3440 0.3310
vn 0.7061 0.6625 0.2502
vn 0.4012 -0.9023 -0.1575
vn 0.5361 -0.8143 -0.2225
vn 0.8400 -0.3976 -0.3692
vn 0.9153 0.0000 -0.4028
vn 0.8556 0.3440 -0.3869
vn 0.6764 0.6624 -0.3221
vn -0.4456 0.6753 -0.5877
vn 0.3387 0.9069 -0.2505
vn 0.2773 0.6439 -0.7131
vn -0.3091 0.6309 -0.7116
vn -0.7272 0.6273 -0.2787
vn -0.7611 0.5975 0.2525
vn -0.7095 0.6308 0.3142
vn -0.2852 0.6325 0.7201
vn 0.0462 0.8140 0.5791
vn 0.3162 0.6397 0.7006
vn 0.7051 0.6543 0.2732
vn 0.6970 0.6498 -0.3032
vn -0.0698 -0.9849 -0.1586
vn 0.0628 -0.9849 -0.1615
vn -0.1615 -0.9849 -0.0628
vn -0.1586 -0.9849 0.0698
vn -0.0627 -0.9849 0.1614
vn 0.0692 -0.9849 0.1588
vn 0.1615 -0.9849 0.0632
vn 0.1585 -0.9849 -0.0702
vn -0.1548 0.8691 0.4697
vn -0.0909 0.9681 0.2334
vn -0.4412 0.8691 0.2236
vn -0.2301 0.9680 0.1003
vn -0.4699 0.8692 -0.1540
vn -0.2324 0.9683 -0.0918
vn -0.2232 0.8692 -0.4413
vn -0.0990 0.9684 -0.2288
vn 0.1541 0.8691 -0.4700
vn 0.0911 0.9685 -0.2320
vn 0.4412 0.8691 -0.2236
vn 0.2283 0.9684 -0.1007
vn 0.4703 0.8690 0.1537
vn 0.2325 0.9684 0.0905
vn 0.2234 0.8691 0.4412
vn 0.0997 0.9684 0.2287
vn -0.4048 0.1380 -0.9040
vn -0.7536 0.5651 -0.3356
vn -0.3041 0.9283 0.2141
vn 0.4888 0.8510 0.1921
vn 0.8287 0.4113 -0.3796
vn 0.3737 0.0620 -0.9255
vn 0.5871 0.7680 0.2560
vn 0.9933 -0.1109 -0.0321
vn 0.9995 -0.0329 -0.0037
vn 0.5517 0.7796 0.2964
vn -0.4123 0.8664 0.2817
vn -0.3732 0.8700 0.3222
vn -0.9965 0.0806 0.0221
vn -0.9857 0.1606 0.0516
vn -0.5754 -0.7813 -0.2419
vn -0.6058 -0.7435 -0.2833
vn 0.3984 -0.8762 -0.2714
vn 0.4344 -0.8449 -0.3123
vn 0.5563 0.8247 0.1015
vn 0.9830 -0.1697 -0.0707
vn -0.3759 0.9170 0.1334
vn -0.9996 0.0208 -0.0189
vn -0.5363 -0.8426 -0.0500
vn 0.3609 -0.9298 -0.0720
vn 0.5619 0.7530 -0.3424
vn 0.9949 -0.0968 -0.0278
vn 0.9866 -0.1599 -0.0336
vn 0.5803 0.7915 -0.1919
vn -0.4244 0.8490 -0.3149
vn -0.4275 0.8888 -0.1655
vn -0.9949 0.0971 0.0276
vn -0.9991 0.0356 0.0221
vn -0.5622 -0.7528 0.3424
vn -0.5439 -0.8090 0.2229
vn 0.4244 -0.8490 0.3149
vn 0.3897 -0.8998 0.1962
vn 0.5831 0.6457 -0.4929
vn 0.9883 -0.1519 0.0110
vn -0.4739 0.7485 -0.4639
vn -0.9969 0.0414 0.0664
vn -0.5269 -0.6779 0.5126
vn 0.4134 -0.7699 0.4862
vn 0.5345 0.5218 -0.6649
vn 0.9940 -0.1074 -0.0197
vn -0.4593 0.6191 -0.6370
vn -0.9957 0.0858 0.0361
vn -0.5243 -0.5228 0.6722
vn 0.4495 -0.6175 0.6454
vn 0.5495 0.2523 -0.7965
vn 0.9904 -0.1202 0.0679
vn -0.5321 0.3546 -0.7688
vn -0.9894 0.0730 0.1258
vn -0.4661 -0.2732 0.8415
vn 0.4494 -0.3639 0.8158
vn 0.4735 -0.1432 -0.8691
vn 0.9926 -0.1117 0.0485
vn -0.5355 -0.0406 -0.8436
vn -0.9910 0.0802 0.1069
vn -0.4245 0.1800 0.8874
vn 0.4989 0.0914 0.8618
vn 0.4452 -0.3480 -0.8250
vn 0.9959 -0.0892 -0.0173
vn -0.5460 -0.2582 -0.7970
vn -0.9930 0.1082 0.0466
vn -0.4283 0.4015 0.8095
vn 0.5372 0.3031 0.7871
vn 0.4383 -0.4432 -0.7819
vn 0.9967 -0.0799 0.0126
vn -0.5445 -0.3366 -0.7682
vn -0.9910 0.1126 0.0722
vn -0.4062 0.5266 0.7468
vn 0.5459 0.4407 0.7126
vn 0.4690 -0.8828 -0.0250
vn 0.9989 0.0218 -0.0418
vn 0.9973 -0.0726 -0.0065
vn 0.4155 -0.8027 -0.4279
vn -0.6327 -0.7744 0.0024
vn -0.5872 -0.7053 -0.3973
vn -0.9772 0.2119 0.0145
vn -0.9917 0.1194 0.0470
vn -0.3662 0.9289 0.0557
vn -0.3928 0.8210 0.4144
vn 0.5417 0.8401 0.0295
vn 0.5666 0.7266 0.3886
vn 0.4286 -0.8440 0.3223
vn 0.9971 -0.0694 -0.0298
vn -0.5665 -0.7451 0.3519
vn -0.9921 0.1224 0.0259
vn -0.4104 0.8519 -0.3254
vn 0.5493 0.7584 -0.3509
vn 0.4737 -0.7227 0.5033
vn 0.9959 -0.0513 -0.0747
vn -0.5702 -0.6168 0.5425
vn -0.9887 0.1477 -0.0264
vn -0.4179 0.7114 -0.5650
vn 0.5132 0.6249 -0.5883
vn 0.4963 -0.4097 0.7653
vn 0.9930 -0.0187 -0.1167
vn -0.5092 -0.3322 0.7939
vn -0.9801 0.1840 -0.0740
vn -0.4477 0.3164 -0.8363
vn 0.4478 0.2307 -0.8639
vn 0.5299 -0.0377 0.8472
vn 0.9872 -0.0815 -0.1369
vn -0.4817 0.0492 0.8750
vn -0.9909 0.1135 -0.0724
vn -0.4974 -0.0903 -0.8628
vn 0.4356 -0.1953 -0.8787
vn 0.5849 0.6448 0.4920
vn 0.9914 -0.1196 -0.0525
vn 0.9758 -0.1194 -0.1833
vn 0.5366 0.2969 0.7899
vn -0.4198 0.7416 0.5232
vn -0.4581 0.4223 0.7822
vn -0.9974 0.0722 -0.0004
vn -0.9932 0.0671 -0.0952
vn -0.5626 -0.6710 -0.4829
vn -0.5236 -0.4754 -0.7070
vn 0.3938 -0.7658 -0.5085
vn 0.3839 -0.5562 -0.7371
vn 0.6365 0.7704 0.0367
vn 0.9718 -0.2358 -0.0096
vn -0.4746 0.8774 0.0708
vn -0.9982 -0.0416 0.0440
vn -0.5358 -0.8398 -0.0876
vn 0.3587 -0.9267 -0.1118
vn 0.5649 0.7161 -0.4101
vn 0.9861 -0.1651 -0.0188
vn -0.4400 0.8117 -0.3841
vn -0.9989 0.0307 0.0359
vn -0.5278 -0.7309 0.4325
vn 0.4001 -0.8217 0.4060
vn 0.5507 0.6029 -0.5772
vn 0.9934 -0.1130 0.0201
vn -0.4398 0.6844 -0.5815
vn -0.9928 0.0648 0.1011
vn -0.4944 -0.4815 0.7238
vn 0.4217 -0.5827 0.6947
vn 0.5109 0.3375 -0.7906
vn 0.9821 -0.1589 0.1010
vn -0.3405 0.5352 -0.7731
vn -0.9833 -0.0113 0.1814
vn -0.4201 -0.0796 0.9040
vn 0.4551 -0.1483 0.8780
vn 0.4314 -0.4665 -0.7722
vn 0.9949 -0.0970 -0.0277
vn 0.9909 -0.1039 0.0856
vn 0.4585 -0.1567 -0.8748
vn -0.5552 -0.3704 -0.7447
vn -0.5607 -0.0863 -0.8235
vn -0.9949 0.0969 0.0280
vn -0.9885 0.0913 0.1206
vn -0.4313 0.4664 0.7722
vn -0.4079 0.3083 0.8594
vn 0.5552 0.3703 0.7447
vn 0.5085 0.2142 0.8340
vn 0.9970 -0.0569 0.0520
vn 0.4174 -0.6356 -0.6494
vn -0.5781 -0.5422 -0.6098
vn -0.9869 0.1316 0.0929
vn -0.3807 0.7060 0.5972
vn 0.5449 0.6134 0.5716
vn -0.0001 -1.0000 0.0001
s 1
f 1/1/1 2/2/2 3/3/3
f 3/3/3 4/4/4 1/1/1
f 5/5/5 6/6/6 7/7/7
f 7/7/7 8/8/8 5/5/5
f 9/9/9 10/10/10 11/11/11
f 11/11/11 12/12/12 9/9/9
f 13/13/13 14/14/14 15/15/15
f 15/15/15 16/16/16 13/13/13
f 17/17/17 18/18/18 19/19/19
f 19/19/19 20/20/20 17/17/17
f 21/21/21 22/22/22 23/23/23
f 23/23/23 24/24/24 21/21/21
f 25/25/25 26/26/26 27/27/27
f 27/27/27 28/28/28 25/25/25
f 29/29/29 30/30/30 31/31/31
f 31/31/31 32/32/32 29/29/29
f 2/2/2 33/33/33 34/34/34
f 34/34/34 3/3/3 2/2/2
f 6/6/6 35/35/35 36/36/36
f 36/36/36 7/7/7 6/6/6
f 10/10/10 37/37/37 38/38/38
f 38/38/38 11/11/11 10/10/10
f 14/14/14 39/39/39 40/40/40
f 40/40/40 15/15/15 14/14/14
f 18/18/18 41/41/41 42/42/42
f 42/42/42 19/19/19 18/18/18
f 22/22/22 43/43/43 44/44/44
f 44/44/44 23/23/23 22/22/22
f 26/26/26 45/45/45 46/46/46
f 46/46/46 27/27/27 26/26/26
f 30/30/30 47/47/47 48/48/48
f 48/48/48 31/31/31 30/30/30
f 33/33/33 49/49/49 50/50/50
f 50/50/50 34/34/34 33/33/33
f 35/35/35 51/51/51 52/52/52
f 52/52/52 36/36/36 35/35/35
f 37/37/37 53/53/53 54/54/54
f 54/54/54 38/38/38 37/37/37
f 39/39/39 55/55/55 56/56/56
f 56/56/56 40/40/40 39/39/39
f 41/41/41 57/57/57 58/58/58
f 58/58/58 42/42/42 41/41/41
f 43/43/43 59/59/59 60/60/60
f 60/60/60 44/44/44 43/43/43
f 45/45/45 61/61/61 62/62/62
f 62/62/62 46/46/46 45/45/45
f 47/47/47 63/63/63 64/64/64
f 64/64/64 48/48/48 47/47/47
f 49/49/49 65/65/65 66/66/66
f 66/66/66 50/50/50 49/49/49
f 51/51/51 67/67/67 68/68/68
f 68/68/68 52/52/52 51/51/51
f 53/53/53 69/69/69 70/70/70
f 70/70/70 54/54/54 53/53/53
f 55/55/55 71/71/71 72/72/72
f 72/72/72 56/56/56 55/55/55
f 57/57/57 73/73/73 74/74/74
f 74/74/74 58/58/58 57/57/57
f 59/59/59 75/75/75 76/76/76
f 76/76/76 60/60/60 59/59/59
f 61/61/61 77/77/77 78/78/78
f 78/78/78 62/62/62 61/61/61
f 63/63/63 79/79/79 80/80/80
f 80/80/80 64/64/64 63/63/63
f 65/65/65 81/81/81 82/82/82
f 82/82/82 66/66/66 65/65/65
f 67/67/67 83/83/83 84/84/84
f 84/84/84 68/68/68 67/67/67
f 69/69/69 85/85/85 86/86/86
f 86/86/86 70/70/70 69/69/69
f 71/71/71 87/87/87 88/88/88
f 88/88/88 72/72/72 71/71/71
f 73/73/73 89/89/89 90/90/90
f 90/90/90 74/74/74 73/73/73
f 75/75/75 91/91/91 92/92/92
f 92/92/92 76/76/76 75/75/75
f 77/77/77 93/93/93 94/94/94
f 94/94/94 78/78/78 77/77/77
f 79/79/79 95/95/95 96/96/96
f 96/96/96 80/80/80 79/79/79
f 81/81/81 97/97/97 98/98/98
f 98/98/98 82/82/82 81/81/81
f 83/83/83 99/99/99 100/100/100
f 100/100/100 84/84/84 83/83/83
f 85/85/85 101/101/101 102/102/102
f 102/102/102 86/86/86 85/85/85
f 87/87/87 103/103/103 104/104/104
f 104/104/104 88/88/88 87/87/87
f 89/89/89 105/105/105 106/106/106
f 106/106/106 90/90/90 89/89/89
f 91/91/91 107/107/107 108/108/108
f 108/108/108 92/92/92 91/91/91
f 93/93/93 109/109/109 110/110/110
f 110/110/110 94/94/94 93/93/93
f 95/95/95 111/111/111 112/112/112
f 112/112/112 96/96/96 95/95/95
f 33/33/33 2/2/2 113/113/113
f 113/113/113 114/114/114 33/33/33
f 49/49/49 33/33/33 114/114/114
f 114/114/114 115/115/115 49/49/49
f 65/65/65 49/49/49 115/115/115
f 115/115/115 116/116/116 65/65/65
f 81/81/81 65/65/65 116/116/116
f 116/116/116 117/117/117 81/81/81
f 97/97/97 81/81/81 117/117/117
f 117/117/117 118/118/118 97/97/97
f 82/119/82 98/120/98 119/121/119
f 119/121/119 120/122/120 82/119/82
f 66/123/66 82/119/82 120/122/120
f 120/122/120 121/124/121 66/123/66
f 50/125/50 66/123/66 121/124/121
f 121/124/121 122/126/122 50/125/50
f 34/127/34 50/125/50 122/126/122
f 122/126/122 123/128/123 34/127/34
f 3/129/3 34/127/34 123/128/123
f 123/128/123 124/130/124 3/129/3
f 35/35/35 6/6/6 124/130/124
f 124/130/124 123/128/123 35/35/35
f 51/51/51 35/35/35 123/128/123
f 123/128/123 122/126/122 51/51/51
f 67/67/67 51/51/51 122/126/122
f 122/126/122 121/124/121 67/67/67
f 83/83/83 67/67/67 121/124/121
f 121/124/121 120/122/120 83/83/83
f 99/99/99 83/83/83 120/122/120
f 120/122/120 119/121/119 99/99/99
f 84/84/84 100/100/100 125/131/125
f 125/131/125 126/132/126 84/84/84
f 68/68/68 84/84/84 126/132/126
f 126/132/126 127/133/127 68/68/68
f 52/52/52 68/68/68 127/133/127
f 127/133/127 128/134/128 52/52/52
f 36/36/36 52/52/52 128/134/128
f 128/134/128 129/135/129 36/36/36
f 7/7/7 36/36/36 129/135/129
f 129/135/129 130/136/130 7/7/7
f 37/37/37 10/10/10 130/136/130
f 130/136/130 129/135/129 37/37/37
f 53/53/53 37/37/37 129/135/129
f 129/135/129 128/134/128 53/53/53
f 69/69/69 53/53/53 128/134/128
f 128/134/128 127/133/127 69/69/69
f 85/85/85 69/69/69 127/133/127
f 127/133/127 126/132/126 85/85/85
f 101/101/101 85/85/85 126/132/126
f 126/132/126 125/131/125 101/101/101
f 86/86/86 102/102/102 131/137/131
f 131/137/131 132/138/132 86/86/86
f 70/70/70 86/86/86 132/138/132
f 132/138/132 133/139/133 70/70/70
f 54/54/54 70/70/70 133/139/133
f 133/139/133 134/140/134 54/54/54
f 38/38/38 54/54/54 134/140/134
f 134/140/134 135/141/135 38/38/38
f 11/11/11 38/38/38 135/141/135
f 135/141/135 136/142/136 11/11/11
f 39/39/39 14/14/14 136/142/136
f 136/142/136 135/141/135 39/39/39
f 55/55/55 39/39/39 135/141/135
f 135/141/135 134/140/134 55/55/55
f 71/71/71 55/55/55 134/140/134
f 134/140/134 133/139/133 71/71/71
f 87/87/87 71/71/71 133/139/133
f 133/139/133 132/138/132 87/87/87
f 103/103/103 87/87/87 132/138/132
f 132/138/132 131/137/131 103/103/103
f 88/88/88 104/104/104 137/143/137
f 137/143/137 138/144/138 88/88/88
f 72/72/72 88/88/88 138/144/138
f 138/144/138 139/145/139 72/72/72
f 56/56/56 72/72/72 139/145/139
f 139/145/139 140/146/140 56/56/56
f 40/40/40 56/56/56 140/146/140
f 140/146/140 141/147/141 40/40/40
f 15/15/15 40/40/40 141/147/141
f 141/147/141 142/148/142 15/15/15
f 41/41/41 18/18/18 142/148/142
f 142/148/142 141/147/141 41/41/41
f 57/57/57 41/41/41 141/147/141
f 141/147/141 140/146/140 57/57/57
f 73/73/73 57/57/57 140/146/140
f 140/146/140 139/145/139 73/73/73
f 89/89/89 73/73/73 139/145/139
f 139/145/139 138/144/138 89/89/89
f 105/105/105 89/89/89 138/144/138
f 138/144/138 137/143/137 105/105/105
f 90/90/90 106/106/106 143/149/143
f 143/149/143 144/150/144 90/90/90
f 74/74/74 90/90/90 144/150/144
f 144/150/144 145/151/145 74/74/74
f 58/58/58 74/74/74 145/151/145
f 145/151/145 146/152/146 58/58/58
f 42/42/42 58/58/58 146/152/146
f 146/152/146 147/153/147 42/42/42
f 19/19/19 42/42/42 147/153/147
f 147/153/147 148/154/148 19/19/19
f 43/43/43 22/22/22 148/154/148
f 148/154/148 147/153/147 43/43/43
f 59/59/59 43/43/43 147/153/147
f 147/153/147 146/152/146 59/59/59
f 75/75/75 59/59/59 146/152/146
f 146/152/146 145/151/145 75/75/75
f 91/91/91 75/75/75 145/151/145
f 145/151/145 144/150/144 91/91/91
f 107/107/107 91/91/91 144/150/144
f 144/150/144 143/149/143 107/107/107
f 92/92/92 108/108/108 149/155/149
f 149/155/149 150/156/150 92/92/92
f 76/76/76 92/92/92 150/156/150
f 150/156/150 151/157/151 76/76/76
f 60/60/60 76/76/76 151/157/151
f 151/157/151 152/158/152 60/60/60
f 44/44/44 60/60/60 152/158/152
f 152/158/152 153/159/153 44/44/44
f 23/23/23 44/44/44 153/159/153
f 153/159/153 154/160/154 23/23/23
f 45/45/45 26/26/26 154/160/154
f 154/160/154 153/159/153 45/45/45
f 61/61/61 45/45/45 153/159/153
f 153/159/153 152/158/152 61/61/61
f 77/77/77 61/61/61 152/158/152
f 152/158/152 151/157/151 77/77/77
f 93/93/93 77/77/77 151/157/151
f 151/157/151 150/156/150 93/93/93
f 109/109/109 93/93/93 150/156/150
f 150/156/150 149/155/149 109/109/109
f 94/94/94 110/110/110 155/161/155
f 155/161/155 156/162/156 94/94/94
f 78/78/78 94/94/94 156/162/156
f 156/162/156 157/163/157 78/78/78
f 62/62/62 78/78/78 157/163/157
f 157/163/157 158/164/158 62/62/62
f 46/46/46 62/62/62 158/164/158
f 158/164/158 159/165/159 46/46/46
f 27/27/27 46/46/46 159/165/159
f 159/165/159 160/166/160 27/27/27
f 47/47/47 30/30/30 160/166/160
f 160/166/160 159/165/159 47/47/47
f 63/63/63 47/47/47 159/165/159
f 159/165/159 158/164/158 63/63/63
f 79/79/79 63/63/63 158/164/158
f 158/164/158 157/163/157 79/79/79
f 95/95/95 79/79/79 157/163/157
f 157/163/157 156/162/156 95/95/95
f 111/111/111 95/95/95 156/162/156
f 156/162/156 155/161/155 111/111/111
f 96/96/96 112/112/112 118/118/118
f 118/118/118 117/117/117 96/96/96
f 80/80/80 96/96/96 117/117/117
f 117/117/117 116/116/116 80/80/80
f 64/64/64 80/80/80 116/116/116
f 116/116/116 115/115/115 64/64/64
f 48/48/48 64/64/64 115/115/115
f 115/115/115 114/114/114 48/48/48
f 31/31/31 48/48/48 114/114/114
f 114/114/114 113/113/113 31/31/31
f 161/167/161 162/168/162 163/169/163
f 163/169/163 164/170/164 161/167/161
f 164/170/164 165/171/165 161/167/161
f 166/172/166 161/167/161 165/171/165
f 165/171/165 167/173/167 166/172/166
f 167/173/167 168/174/168 166/172/166
f 169/175/169 166/172/166 168/174/168
f 168/174/168 170/176/170 169/175/169
f 170/177/170 171/178/171 169/179/169
f 162/168/162 169/179/169 171/178/171
f 171/178/171 172/180/172 162/168/162
f 172/180/172 163/169/163 162/168/162
f 119/121/119 98/120/98 173/181/173
f 174/182/174 173/183/173 98/98/98
f 98/98/98 97/97/97 174/182/174
f 97/97/97 118/118/118 174/182/174
f 125/131/125 100/100/100 175/184/175
f 173/181/173 175/184/175 100/100/100
f 100/100/100 99/99/99 173/181/173
f 99/99/99 119/121/119 173/181/173
f 131/137/131 102/102/102 176/185/176
f 175/184/175 176/185/176 102/102/102
f 102/102/102 101/101/101 175/184/175
f 101/101/101 125/131/125 175/184/175
f 137/143/137 104/104/104 177/186/177
f 176/185/176 177/186/177 104/104/104
f 104/104/104 103/103/103 176/185/176
f 103/103/103 131/137/131 176/185/176
f 143/149/143 106/106/106 178/187/178
f 177/186/177 178/187/178 106/106/106
f 106/106/106 105/105/105 177/186/177
f 105/105/105 137/143/137 177/186/177
f 149/155/149 108/108/108 179/188/179
f 178/187/178 179/188/179 108/108/108
f 108/108/108 107/107/107 178/187/178
f 107/107/107 143/149/143 178/187/178
f 155/161/155 110/110/110 180/189/180
f 179/188/179 180/189/180 110/110/110
f 110/110/110 109/109/109 179/188/179
f 109/109/109 149/155/149 179/188/179
f 118/118/118 112/112/112 174/182/174
f 180/189/180 174/182/174 112/112/112
f 112/112/112 111/111/111 180/189/180
f 111/111/111 155/161/155 180/189/180
f 16/16/16 181/190/181 182/191/182
f 12/12/12 183/192/183 184/193/184
f 8/8/8 185/194/185 186/195/186
f 4/196/4 187/197/187 188/198/188
f 32/32/32 189/199/189 190/200/190
f 28/28/28 191/201/191 192/202/192
f 24/24/24 193/203/193 194/204/194
f 20/20/20 195/205/195 196/206/196
f 181/190/181 17/17/17 182/191/182
f 195/205/195 21/21/21 196/206/196
f 193/203/193 25/25/25 194/204/194
f 191/201/191 29/29/29 192/202/192
f 189/199/189 1/1/1 190/200/190
f 187/197/187 5/5/5 188/198/188
f 185/194/185 9/9/9 186/195/186
f 183/192/183 13/13/13 184/193/184
f 182/191/182 196/206/196 170/207/170
f 170/207/170 168/208/168 182/191/182
f 184/193/184 182/191/182 168/208/168
f 168/208/168 167/209/167 184/193/184
f 186/195/186 184/193/184 167/209/167
f 167/209/167 165/210/165 186/195/186
f 188/198/188 186/195/186 165/210/165
f 165/210/165 164/211/164 188/198/188
f 190/200/190 188/212/188 164/213/164
f 164/213/164 163/214/163 190/200/190
f 192/202/192 190/200/190 163/214/163
f 163/214/163 172/215/172 192/202/192
f 194/204/194 192/202/192 172/215/172
f 172/215/172 171/216/171 194/204/194
f 196/206/196 194/204/194 171/216/171
f 171/216/171 170/207/170 196/206/196
f 1/1/1 4/4/4 188/212/188
f 188/212/188 190/200/190 1/1/1
f 5/5/5 8/8/8 186/195/186
f 186/195/186 188/198/188 5/5/5
f 9/9/9 12/12/12 184/193/184
f 184/193/184 186/195/186 9/9/9
f 13/13/13 16/16/16 182/191/182
f 182/191/182 184/193/184 13/13/13
f 17/17/17 20/20/20 196/206/196
f 196/206/196 182/191/182 17/17/17
f 21/21/21 24/24/24 194/204/194
f 194/204/194 196/206/196 21/21/21
f 25/25/25 28/28/28 192/202/192
f 192/202/192 194/204/194 25/25/25
f 29/29/29 32/32/32 190/200/190
f 190/200/190 192/202/192 29/29/29
f 142/148/142 181/190/181 16/16/16
f 16/16/16 15/15/15 142/148/142
f 136/142/136 183/192/183 12/12/12
f 12/12/12 11/11/11 136/142/136
f 130/136/130 185/194/185 8/8/8
f 8/8/8 7/7/7 130/136/130
f 124/130/124 187/197/187 4/196/4
f 4/196/4 3/129/3 124/130/124
f 113/113/113 189/199/189 32/32/32
f 32/32/32 31/31/31 113/113/113
f 160/166/160 191/201/191 28/28/28
f 28/28/28 27/27/27 160/166/160
f 154/160/154 193/203/193 24/24/24
f 24/24/24 23/23/23 154/160/154
f 148/154/148 195/205/195 20/20/20
f 20/20/20 19/19/19 148/154/148
f 18/18/18 17/17/17 181/190/181
f 181/190/181 142/148/142 18/18/18
f 22/22/22 21/21/21 195/205/195
f 195/205/195 148/154/148 22/22/22
f 26/26/26 25/25/25 193/203/193
f 193/203/193 154/160/154 26/26/26
f 30/30/30 29/29/29 191/201/191
f 191/201/191 160/166/160 30/30/30
f 2/2/2 1/1/1 189/199/189
f 189/199/189 113/113/113 2/2/2
f 6/6/6 5/5/5 187/197/187
f 187/197/187 124/130/124 6/6/6
f 10/10/10 9/9/9 185/194/185
f 185/194/185 130/136/130 10/10/10
f 14/14/14 13/13/13 183/192/183
f 183/192/183 136/142/136 14/14/14
s 2
f 197/217/197 198/218/198 199/219/199
f 199/219/199 200/220/200 201/221/201
f 197/217/197 199/219/199 201/221/201
f 197/217/197 201/221/201 202/222/202
f 203/223/203 204/224/204 205/225/205
f 205/225/205 206/226/206 203/223/203
f 207/227/207 203/228/203 206/229/206
f 206/229/206 208/230/208 207/227/207
f 209/231/209 207/232/207 208/233/208
f 208/233/208 210/234/210 209/231/209
f 211/235/211 209/231/209 210/234/210
f 210/234/210 212/236/212 211/235/211
f 213/237/213 211/238/211 212/239/212
f 212/239/212 214/240/214 213/237/213
f 204/224/204 213/241/213 214/242/214
f 214/242/214 205/225/205 204/224/204
f 215/243/215 216/244/216 204/224/204
f 204/224/204 203/223/203 215/243/215
f 217/245/217 215/246/215 203/228/203
f 203/228/203 207/227/207 217/245/217
f 218/247/218 217/248/217 207/232/207
f 207/232/207 209/231/209 218/247/218
f 219/249/219 218/247/218 209/231/209
f 209/231/209 211/235/211 219/249/219
f 220/250/220 219/251/219 211/238/211
f 211/238/211 213/237/213 220/250/220
f 216/244/216 220/252/220 213/241/213
f 213/241/213 204/224/204 216/244/216
f 221/253/221 222/254/222 223/255/223
f 223/255/223 224/256/224 221/253/221
f 225/257/225 221/258/221 224/259/224
f 224/259/224 226/260/226 225/257/225
f 227/261/227 225/262/225 226/263/226
f 226/263/226 228/264/228 227/261/227
f 229/265/229 227/261/227 228/264/228
f 228/264/228 230/266/230 229/265/229
f 231/267/231 229/268/229 230/269/230
f 230/269/230 232/270/232 231/267/231
f 222/254/222 231/271/231 232/272/232
f 232/272/232 223/255/223 222/254/222
f 233/273/233 234/274/234 222/254/222
f 222/254/222 221/253/221 233/273/233
f 235/275/235 233/276/233 221/258/221
f 221/258/221 225/257/225 235/275/235
f 236/277/236 235/278/235 225/262/225
f 225/262/225 227/261/227 236/277/236
f 237/279/237 236/277/236 227/261/227
f 227/261/227 229/265/229 237/279/237
f 238/280/238 237/281/237 229/268/229
f 229/268/229 231/267/231 238/280/238
f 234/274/234 238/282/238 231/271/231
f 231/271/231 222/254/222 234/274/234
f 239/283/239 240/284/240 234/274/234
f 234/274/234 233/273/233 239/283/239
f 241/285/241 239/286/239 233/287/233
f 233/287/233 235/288/235 241/285/241
f 242/289/242 241/290/241 235/278/235
f 235/278/235 236/277/236 242/289/242
f 243/291/243 242/289/242 236/277/236
f 236/277/236 237/279/237 243/291/243
f 244/292/244 243/293/243 237/294/237
f 237/294/237 238/295/238 244/292/244
f 240/284/240 244/296/244 238/282/238
f 238/282/238 234/274/234 240/284/240
f 245/297/245 246/298/246 240/284/240
f 240/284/240 239/283/239 245/297/245
f 247/299/247 245/300/245 239/286/239
f 239/286/239 241/285/241 247/299/247
f 248/301/248 247/302/247 241/290/241
f 241/290/241 242/289/242 248/301/248
f 249/303/249 248/301/248 242/289/242
f 242/289/242 243/291/243 249/303/249
f 250/304/250 249/305/249 243/293/243
f 243/293/243 244/292/244 250/304/250
f 246/298/246 250/306/250 244/296/244
f 244/296/244 240/284/240 246/298/246
f 251/307/251 252/308/252 246/309/246
f 246/309/246 245/300/245 251/307/251
f 253/310/253 251/307/251 245/300/245
f 245/300/245 247/299/247 253/310/253
f 254/311/254 253/312/253 247/302/247
f 247/302/247 248/301/248 254/311/254
f 255/313/255 254/314/254 248/315/248
f 248/315/248 249/305/249 255/313/255
f 256/316/256 255/313/255 249/305/249
f 249/305/249 250/304/250 256/316/256
f 252/317/252 256/318/256 250/306/250
f 250/306/250 246/298/246 252/317/252
f 257/319/257 258/320/258 252/317/252
f 252/317/252 251/321/251 257/319/257
f 259/322/259 257/323/257 251/307/251
f 251/307/251 253/310/253 259/322/259
f 260/324/260 259/325/259 253/312/253
f 253/312/253 254/311/254 260/324/260
f 261/326/261 260/324/260 254/311/254
f 254/311/254 255/327/255 261/326/261
f 262/328/262 261/329/261 255/313/255
f 255/313/255 256/316/256 262/328/262
f 258/320/258 262/330/262 256/318/256
f 256/318/256 252/317/252 258/320/258
f 263/331/263 264/332/264 258/320/258
f 258/320/258 257/319/257 263/331/263
f 265/333/265 263/334/263 257/323/257
f 257/323/257 259/322/259 265/333/265
f 266/335/266 265/336/265 259/325/259
f 259/325/259 260/324/260 266/335/266
f 267/337/267 266/335/266 260/324/260
f 260/324/260 261/326/261 267/337/267
f 268/338/268 267/339/267 261/329/261
f 261/329/261 262/328/262 268/338/268
f 264/332/264 268/340/268 262/330/262
f 262/330/262 258/320/258 264/332/264
f 269/341/269 270/342/270 271/343/271
f 271/343/271 272/344/272 269/341/269
f 273/345/273 269/346/269 272/347/272
f 272/347/272 274/348/274 273/345/273
f 275/349/275 273/350/273 274/351/274
f 274/351/274 276/352/276 275/349/275
f 277/353/277 275/349/275 276/352/276
f 276/352/276 278/354/278 277/353/277
f 279/355/279 277/356/277 278/357/278
f 278/357/278 280/358/280 279/355/279
f 270/342/270 279/359/279 280/360/280
f 280/360/280 271/343/271 270/342/270
f 281/361/281 282/362/282 270/342/270
f 270/342/270 269/341/269 281/361/281
f 283/363/283 281/364/281 269/346/269
f 269/346/269 273/345/273 283/363/283
f 284/365/284 283/366/283 273/350/273
f 273/350/273 275/349/275 284/365/284
f 285/367/285 284/365/284 275/349/275
f 275/349/275 277/353/277 285/367/285
f 286/368/286 285/369/285 277/356/277
f 277/356/277 279/355/279 286/368/286
f 282/362/282 286/370/286 279/359/279
f 279/359/279 270/342/270 282/362/282
f 287/371/287 288/372/288 282/362/282
f 282/362/282 281/361/281 287/371/287
f 289/373/289 287/374/287 281/364/281
f 281/364/281 283/363/283 289/373/289
f 290/375/290 289/376/289 283/366/283
f 283/366/283 284/365/284 290/375/290
f 291/377/291 290/375/290 284/365/284
f 284/365/284 285/367/285 291/377/291
f 292/378/292 291/379/291 285/369/285
f 285/369/285 286/368/286 292/378/292
f 288/372/288 292/380/292 286/370/286
f 286/370/286 282/362/282 288/372/288
f 293/381/293 294/382/294 288/372/288
f 288/372/288 287/371/287 293/381/293
f 295/383/295 293/384/293 287/385/287
f 287/385/287 289/386/289 295/383/295
f 296/387/296 295/388/295 289/376/289
f 289/376/289 290/375/290 296/387/296
f 297/389/297 296/387/296 290/375/290
f 290/375/290 291/377/291 297/389/297
f 298/390/298 297/391/297 291/392/291
f 291/392/291 292/393/292 298/390/298
f 294/382/294 298/394/298 292/380/292
f 292/380/292 288/372/288 294/382/294
f 299/395/299 300/396/300 294/382/294
f 294/382/294 293/381/293 299/395/299
f 301/397/301 299/398/299 293/384/293
f 293/384/293 295/383/295 301/397/301
f 302/399/302 301/400/301 295/388/295
f 295/388/295 296/387/296 302/399/302
f 303/401/303 302/399/302 296/387/296
f 296/387/296 297/389/297 303/401/303
f 304/402/304 303/403/303 297/391/297
f 297/391/297 298/390/298 304/402/304
f 300/404/300 304/402/304 298/390/298
f 298/390/298 294/405/294 300/404/300
f 305/406/305 306/407/306 307/408/307
f 307/408/307 308/409/308 305/406/305
f 309/410/309 305/411/305 308/412/308
f 308/412/308 310/413/310 309/410/309
f 311/414/311 309/415/309 310/416/310
f 310/416/310 312/417/312 311/414/311
f 313/418/313 311/414/311 312/417/312
f 312/417/312 314/419/314 313/418/313
f 315/420/315 313/421/313 314/422/314
f 314/422/314 316/423/316 315/420/315
f 306/407/306 315/424/315 316/425/316
f 316/425/316 307/408/307 306/407/306
f 317/426/317 318/427/318 306/407/306
f 306/407/306 305/406/305 317/426/317
f 319/428/319 317/429/317 305/411/305
f 305/411/305 309/410/309 319/428/319
f 320/430/320 319/431/319 309/415/309
f 309/415/309 311/414/311 320/430/320
f 321/432/321 320/430/320 311/414/311
f 311/414/311 313/418/313 321/432/321
f 322/433/322 321/434/321 313/421/313
f 313/421/313 315/420/315 322/433/322
f 318/427/318 322/435/322 315/424/315
f 315/424/315 306/407/306 318/427/318
f 323/436/323 324/437/324 318/427/318
f 318/427/318 317/426/317 323/436/323
f 325/438/325 323/439/323 317/429/317
f 317/429/317 319/428/319 325/438/325
f 326/440/326 325/441/325 319/431/319
f 319/431/319 320/430/320 326/440/326
f 327/442/327 326/440/326 320/430/320
f 320/430/320 321/432/321 327/442/327
f 328/443/328 327/444/327 321/434/321
f 321/434/321 322/433/322 328/443/328
f 324/437/324 328/445/328 322/435/322
f 322/435/322 318/427/318 324/437/324
f 329/446/329 330/447/330 324/437/324
f 324/437/324 323/436/323 329/446/329
f 331/448/331 329/449/329 323/439/323
f 323/439/323 325/438/325 331/448/331
f 332/450/332 331/451/331 325/441/325
f 325/441/325 326/440/326 332/450/332
f 333/452/333 332/450/332 326/440/326
f 326/440/326 327/442/327 333/452/333
f 334/453/334 333/454/333 327/444/327
f 327/444/327 328/443/328 334/453/334
f 330/447/330 334/455/334 328/445/328
f 328/445/328 324/437/324 330/447/330
f 335/456/335 336/457/336 330/447/330
f 330/447/330 329/446/329 335/456/335
f 337/458/337 335/459/335 329/449/329
f 329/449/329 331/448/331 337/458/337
f 338/460/338 337/461/337 331/451/331
f 331/451/331 332/450/332 338/460/338
f 339/462/339 338/463/338 332/464/332
f 332/464/332 333/465/333 339/462/339
f 340/466/340 339/467/339 333/468/333
f 333/468/333 334/469/334 340/466/340
f 336/457/336 340/470/340 334/455/334
f 334/455/334 330/447/330 336/457/336
f 341/471/341 342/472/342 343/473/343
f 343/473/343 344/474/344 341/471/341
f 345/475/345 341/476/341 344/477/344
f 344/477/344 346/478/346 345/475/345
f 347/479/347 345/480/345 346/481/346
f 346/481/346 348/482/348 347/479/347
f 349/483/349 347/479/347 348/482/348
f 348/482/348 350/484/350 349/483/349
f 351/485/351 349/486/349 350/487/350
f 350/487/350 352/488/352 351/485/351
f 342/472/342 351/489/351 352/490/352
f 352/490/352 343/473/343 342/472/342
f 202/491/202 201/492/201 342/472/342
f 342/472/342 341/471/341 202/491/202
f 197/493/197 202/494/202 341/476/341
f 341/476/341 345/475/345 197/493/197
f 198/495/198 197/496/197 345/480/345
f 345/480/345 347/479/347 198/495/198
f 199/497/199 198/495/198 347/479/347
f 347/479/347 349/483/349 199/497/199
f 200/498/200 199/499/199 349/486/349
f 349/486/349 351/485/351 200/498/200
f 201/492/201 200/500/200 351/489/351
f 351/489/351 342/472/342 201/492/201
f 215/243/215 224/256/224 223/255/223
f 223/255/223 216/244/216 215/243/215
f 217/245/217 226/260/226 224/259/224
f 224/259/224 215/246/215 217/245/217
f 218/247/218 228/264/228 226/263/226
f 226/263/226 217/248/217 218/247/218
f 219/249/219 230/266/230 228/264/228
f 228/264/228 218/247/218 219/249/219
f 220/250/220 232/270/232 230/269/230
f 230/269/230 219/251/219 220/250/220
f 216/244/216 223/255/223 232/272/232
f 232/272/232 220/252/220 216/244/216
f 335/501/335 344/477/344 343/502/343
f 343/502/343 336/503/336 335/501/335
f 337/504/337 346/478/346 344/477/344
f 344/477/344 335/501/335 337/504/337
f 338/460/338 348/482/348 346/481/346
f 346/481/346 337/461/337 338/460/338
f 339/467/339 350/487/350 348/505/348
f 348/505/348 338/506/338 339/467/339
f 340/466/340 352/488/352 350/487/350
f 350/487/350 339/467/339 340/466/340
f 336/457/336 343/473/343 352/490/352
f 352/490/352 340/470/340 336/457/336
f 307/408/307 300/396/300 299/395/299
f 299/395/299 308/409/308 307/408/307
f 308/507/308 299/398/299 301/397/301
f 301/397/301 310/508/310 308/507/308
f 310/509/310 301/510/301 302/511/302
f 302/511/302 312/512/312 310/509/310
f 312/417/312 302/399/302 303/401/303
f 303/401/303 314/419/314 312/417/312
f 314/513/314 303/403/303 304/402/304
f 304/402/304 316/514/316 314/513/314
f 316/515/316 304/516/304 300/517/300
f 300/517/300 307/518/307 316/515/316
f 271/343/271 353/519/353 354/520/354
f 354/520/354 272/344/272 271/343/271
f 272/347/272 354/521/354 355/522/355
f 355/522/355 274/348/274 272/347/272
f 274/351/274 355/523/355 356/524/356
f 356/524/356 276/352/276 274/351/274
f 276/352/276 356/524/356 357/525/357
f 357/525/357 278/354/278 276/352/276
f 278/357/278 357/526/357 358/527/358
f 358/527/358 280/358/280 278/357/278
f 280/360/280 358/528/358 353/519/353
f 353/519/353 271/343/271 280/360/280
f 353/529/353 264/530/264 263/531/263
f 263/531/263 354/532/354 353/529/353
f 354/533/354 263/334/263 265/333/265
f 265/333/265 355/534/355 354/533/354
f 355/523/355 265/336/265 266/335/266
f 266/335/266 356/524/356 355/523/355
f 356/535/356 266/536/266 267/537/267
f 267/537/267 357/538/357 356/535/356
f 357/539/357 267/339/267 268/338/268
f 268/338/268 358/540/358 357/539/357
f 358/528/358 268/340/268 264/332/264
f 264/332/264 353/519/353 358/528/358
s 1
f 173/183/173 174/182/174 359/541/359
f 174/182/174 180/189/180 359/542/359
f 180/189/180 179/188/179 359/543/359
f 179/188/179 178/187/178 359/544/359
f 178/187/178 177/186/177 359/545/359
f 177/186/177 176/185/176 359/546/359
f 176/185/176 175/184/175 359/547/359
f 175/184/175 173/181/173 359/548/359
f 162/168/162 161/167/161 166/172/166
f 166/172/166 169/175/169 162/168/162
