# Blender v3.3.0 OBJ File: ''
# www.blender.org
o HadesStage00.005
v 0.065622 0.034818 0.000000
v 0.046402 0.034818 -0.046402
v 0.043799 0.043432 -0.043799
v 0.061941 0.043432 0.000000
v 0.000000 0.034818 -0.065622
v 0.000000 0.043432 -0.061941
v -0.046402 0.034818 -0.046402
v -0.043799 0.043432 -0.043799
v -0.065622 0.034818 0.000000
v -0.061941 0.043432 0.000000
v -0.046402 0.034818 0.046402
v -0.043799 0.043432 0.043799
v 0.000000 0.034818 0.065622
v 0.000000 0.043432 0.061941
v 0.046402 0.034818 0.046402
v 0.043799 0.043432 0.043799
v 0.000000 0.057506 0.000000
v 0.059112 0.026705 0.000000
v 0.041798 0.025285 -0.041939
v 0.000000 0.021857 -0.059310
v -0.041798 0.018429 -0.041939
v -0.059112 0.017009 0.000000
v -0.041798 0.018428 0.041939
v 0.000000 0.021857 0.059310
v 0.041798 0.025285 0.041939
v 0.064693 0.009550 0.000000
v 0.045745 0.009729 -0.045748
v 0.000000 0.010160 -0.064697
v -0.045745 0.010592 -0.045748
v -0.064693 0.010771 0.000000
v -0.045745 0.010592 0.045748
v 0.000000 0.010160 0.064697
v 0.045745 0.009729 0.045748
v 0.049487 -0.016241 0.000425
v 0.034992 -0.017523 -0.034778
v 0.000000 -0.014963 -0.049609
v -0.034992 -0.010060 -0.035379
v -0.049487 -0.005687 -0.000425
v -0.034992 -0.004405 0.034778
v 0.000000 -0.006965 0.049609
v 0.034992 -0.011868 0.035379
v 0.029502 -0.073761 -0.000000
v 0.020861 -0.073679 -0.020862
v 0.000000 -0.073482 -0.029503
v -0.020861 -0.073285 -0.020862
v -0.029502 -0.073204 -0.000000
v -0.020861 -0.073285 0.020862
v 0.000000 -0.073482 0.029503
v 0.020861 -0.073679 0.020862
v 0.000000 -0.106587 -0.000000
v -0.061451 0.060599 0.040884
v -0.087393 0.116749 -0.005575
v -0.124305 0.116401 0.046295
v -0.066403 0.071250 -0.006655
v -0.082559 0.105425 -0.075900
v -0.007240 0.078341 -0.064050
v -0.021727 0.132449 -0.095884
v 0.013088 0.067234 -0.071130
v 0.017045 0.131576 -0.119968
v -0.150206 0.203307 -0.044971
v -0.193570 0.186330 0.004224
v -0.074960 0.212238 -0.132748
v -0.126645 0.157526 -0.111365
v -0.229974 0.231149 -0.064635
v -0.175364 0.219267 -0.150886
v -0.201111 0.242781 -0.110243
v -0.135239 0.245692 -0.180276
v -0.097044 0.248668 -0.203759
v -0.239380 0.255453 -0.149048
v -0.243211 0.248152 -0.201073
v -0.219674 0.249024 -0.226613
v -0.243212 0.245752 -0.225817
v -0.174478 0.259071 -0.221783
v -0.040989 0.036261 0.025452
v -0.035318 0.026800 -0.003295
v -0.046254 0.055809 -0.048076
v -0.003067 0.023120 -0.026579
v 0.005116 0.041831 -0.049061
v -0.017931 0.020036 -0.018242
v -0.017198 0.203219 -0.167663
v -0.061675 0.058220 0.038645
v -0.124529 0.114023 0.044057
v -0.087617 0.114371 -0.007814
v -0.066626 0.068872 -0.008894
v -0.082783 0.103046 -0.078139
v -0.021951 0.130071 -0.098122
v -0.007464 0.075962 -0.066289
v 0.016821 0.129198 -0.122207
v 0.012865 0.064855 -0.073369
v -0.193794 0.183951 0.001985
v -0.150430 0.200929 -0.047210
v -0.126868 0.155148 -0.113604
v -0.075184 0.209859 -0.134987
v -0.230198 0.228771 -0.066874
v -0.201335 0.240402 -0.112482
v -0.175588 0.216889 -0.153125
v -0.135463 0.243314 -0.182515
v -0.097267 0.246289 -0.205997
v -0.239603 0.253075 -0.151287
v -0.243435 0.245773 -0.203312
v -0.243435 0.243373 -0.228056
v -0.219898 0.246645 -0.228852
v -0.174702 0.256693 -0.224022
v -0.041213 0.033883 0.023213
v -0.046478 0.053430 -0.050315
v -0.035541 0.024422 -0.005534
v -0.003290 0.020742 -0.028818
v 0.004892 0.039453 -0.051300
v -0.018155 0.017658 -0.020480
v -0.017422 0.200841 -0.169901
v 0.014879 0.071555 -0.089456
v 0.063046 0.164284 -0.071865
v 0.067033 0.151747 -0.144161
v 0.047788 0.096007 -0.047968
v 0.115288 0.156444 0.006221
v 0.022908 0.095652 0.056555
v 0.055119 0.188651 0.061362
v -0.016708 0.079643 0.066017
v 0.043677 0.182882 0.114865
v 0.151237 0.272384 -0.075698
v 0.156013 0.252245 -0.158590
v 0.134653 0.291230 0.064433
v 0.173733 0.230209 0.005873
v 0.239045 0.319522 -0.120836
v 0.257898 0.305545 0.006644
v 0.246149 0.334542 -0.053212
v 0.238796 0.354365 0.067871
v 0.220565 0.336977 0.121525
v 0.311984 0.359044 -0.046454
v 0.358632 0.355273 0.000697
v 0.356447 0.355660 0.044459
v 0.378900 0.354583 0.024609
v 0.307619 0.361842 0.076468
v 0.003939 0.039015 -0.044316
v 0.028646 0.030913 -0.029104
v 0.061412 0.084091 0.005759
v 0.024332 0.025951 0.023236
v -0.013678 0.053248 0.039982
v 0.032380 0.023266 0.003107
v 0.122308 0.266270 0.150602
v 0.017496 0.069769 -0.089456
v 0.069650 0.149961 -0.144161
v 0.065663 0.162498 -0.071865
v 0.050405 0.094221 -0.047968
v 0.117905 0.154658 0.006221
v 0.057736 0.186865 0.061362
v 0.025525 0.093866 0.056555
v 0.046294 0.181095 0.114865
v -0.014091 0.077857 0.066017
v 0.158630 0.250459 -0.158590
v 0.153854 0.270597 -0.075698
v 0.176350 0.228423 0.005873
v 0.137270 0.289444 0.064433
v 0.241662 0.317736 -0.120836
v 0.248766 0.332756 -0.053212
v 0.260515 0.303759 0.006644
v 0.241413 0.352578 0.067871
v 0.223182 0.335191 0.121525
v 0.314601 0.357258 -0.046454
v 0.361249 0.353487 0.000697
v 0.381517 0.352797 0.024609
v 0.359064 0.353873 0.044459
v 0.310236 0.360056 0.076468
v 0.006556 0.037228 -0.044316
v 0.064029 0.082304 0.005759
v 0.031263 0.029126 -0.029104
v 0.026949 0.024164 0.023236
v -0.011061 0.051462 0.039982
v 0.034997 0.021480 0.003107
v 0.124925 0.264483 0.150602
v 0.004262 0.078777 0.056787
v -0.080994 0.164284 0.102161
v -0.045890 0.151747 0.127600
v -0.031702 0.096007 0.071065
v -0.118636 0.156444 0.054489
v -0.064456 0.095652 -0.008357
v -0.101546 0.188651 -0.008943
v -0.044614 0.079643 -0.037469
v -0.115641 0.182882 -0.061808
v -0.126006 0.272383 0.124278
v -0.109982 0.252245 0.187009
v -0.164862 0.291230 0.022238
v -0.157462 0.230209 0.073643
v -0.175482 0.319522 0.202898
v -0.232803 0.305545 0.111167
v -0.195160 0.334542 0.159164
v -0.243581 0.354365 0.047942
v -0.267330 0.336977 0.010374
v -0.256888 0.359044 0.183033
v -0.319857 0.355273 0.162200
v -0.337778 0.355659 0.122216
v -0.348773 0.354583 0.150096
v -0.308805 0.361842 0.071528
v 0.011556 0.039015 0.029143
v -0.013843 0.030913 0.033029
v -0.067373 0.084091 0.028800
v -0.032229 0.025951 -0.009657
v -0.039547 0.033046 -0.020500
v -0.030261 0.023266 0.011932
v -0.192985 0.266270 -0.060143
v 0.001415 0.074954 0.056787
v -0.048737 0.147924 0.127600
v -0.083841 0.160462 0.102161
v -0.034549 0.092184 0.071065
v -0.121483 0.152622 0.054489
v -0.104392 0.184829 -0.008943
v -0.067303 0.091830 -0.008357
v -0.118488 0.179059 -0.061808
v -0.047461 0.075821 -0.037469
v -0.112829 0.248422 0.187009
v -0.128853 0.268561 0.124278
v -0.160309 0.226386 0.073643
v -0.167709 0.287408 0.022238
v -0.178329 0.315699 0.202898
v -0.198007 0.330719 0.159165
v -0.235650 0.301723 0.111167
v -0.246428 0.350542 0.047942
v -0.270177 0.333154 0.010374
v -0.259734 0.355222 0.183033
v -0.322704 0.351451 0.162200
v -0.351620 0.350761 0.150096
v -0.340625 0.351837 0.122216
v -0.311652 0.358020 0.071528
v 0.008709 0.035192 0.029143
v -0.070220 0.080268 0.028800
v -0.016690 0.027090 0.033029
v -0.035076 0.022128 -0.009657
v -0.042394 0.029223 -0.020500
v -0.033108 0.019444 0.011932
v -0.195832 0.262447 -0.060143
v 0.065211 0.060599 -0.034572
v 0.086107 0.116749 0.010634
v 0.128292 0.116401 -0.033708
v 0.065113 0.071250 0.009622
v 0.069988 0.116417 0.077177
v 0.000837 0.078341 0.064453
v 0.012087 0.132449 0.097569
v -0.036406 0.067234 0.073591
v -0.028887 0.131576 0.117679
v 0.144991 0.203307 0.059681
v 0.193031 0.186330 0.015041
v 0.061391 0.212238 0.139542
v 0.107932 0.168518 0.114777
v 0.222409 0.231149 0.087178
v 0.159495 0.219267 0.167573
v 0.189155 0.242781 0.129690
v 0.116647 0.245692 0.192828
v 0.076306 0.248668 0.212397
v 0.223376 0.255453 0.172108
v 0.222017 0.248151 0.224255
v 0.196057 0.249024 0.247329
v 0.219557 0.245752 0.248877
v 0.151565 0.259071 0.238030
v 0.043316 0.036261 -0.021251
v 0.034815 0.026800 0.006790
v 0.035122 0.064957 0.041791
v 0.000409 0.023120 0.026752
v -0.026279 0.041831 0.052424
v 0.016029 0.020036 0.019934
v 0.000445 0.203219 0.168542
v 0.065211 0.058221 -0.032322
v 0.128292 0.114023 -0.031458
v 0.086107 0.114371 0.012884
v 0.065113 0.068872 0.011872
v 0.069988 0.114038 0.079427
v 0.012087 0.130071 0.099819
v 0.000837 0.075962 0.066703
v -0.028887 0.129198 0.119929
v -0.036406 0.064855 0.075841
v 0.193031 0.183951 0.017291
v 0.144991 0.200929 0.061931
v 0.107932 0.166140 0.117028
v 0.061391 0.209859 0.141792
v 0.222409 0.228771 0.089428
v 0.189155 0.240402 0.131940
v 0.159495 0.216889 0.169823
v 0.116647 0.243314 0.195078
v 0.076306 0.246289 0.214647
v 0.223376 0.253075 0.174358
v 0.222017 0.245773 0.226505
v 0.219557 0.243373 0.251127
v 0.196057 0.246645 0.249579
v 0.151565 0.256693 0.240280
v 0.043316 0.033883 -0.019001
v 0.035122 0.062578 0.044041
v 0.034815 0.024422 0.009040
v 0.000409 0.020741 0.029002
v -0.026279 0.039453 0.054674
v 0.016029 0.017658 0.022184
v 0.000445 0.200841 0.170792
vt 0.552700 0.075400
vt 0.508600 0.053900
vt 0.508600 0.049700
vt 0.551800 0.070000
vt 0.465800 0.027700
vt 0.465800 0.015700
vt 0.423600 0.054900
vt 0.423500 0.050400
vt 0.380100 0.076600
vt 0.380900 0.071200
vt 0.331900 0.076300
vt 0.335300 0.067100
vt 0.283000 0.063000
vt 0.296300 0.040100
vt 0.649600 0.058700
vt 0.601300 0.074600
vt 0.597600 0.065200
vt 0.635700 0.036800
vt 0.557600 0.003200
vt 0.373900 0.004400
vt 0.553900 0.079200
vt 0.509500 0.061700
vt 0.465900 0.046900
vt 0.425100 0.069000
vt 0.381100 0.089700
vt 0.332000 0.094000
vt 0.283300 0.094200
vt 0.650200 0.089800
vt 0.601900 0.085600
vt 0.552000 0.091400
vt 0.508600 0.075900
vt 0.466100 0.064100
vt 0.423700 0.075900
vt 0.380700 0.092000
vt 0.334800 0.103300
vt 0.288400 0.122200
vt 0.645500 0.118400
vt 0.598200 0.102100
vt 0.545600 0.111800
vt 0.505200 0.101000
vt 0.466400 0.096600
vt 0.427700 0.101100
vt 0.387500 0.112400
vt 0.348400 0.128400
vt 0.315400 0.152900
vt 0.619000 0.150300
vt 0.585100 0.127000
vt 0.519400 0.173600
vt 0.494500 0.169600
vt 0.467200 0.172900
vt 0.439900 0.169700
vt 0.414900 0.174100
vt 0.393400 0.184900
vt 0.378400 0.202800
vt 0.556800 0.201300
vt 0.541200 0.183900
vt 0.503800 0.216400
vt 0.431500 0.217100
vt 0.044900 0.057000
vt 0.073200 0.154300
vt 0.006800 0.159700
vt 0.092300 0.087900
vt 0.158800 0.162100
vt 0.198200 0.057900
vt 0.230700 0.146000
vt 0.214800 0.021300
vt 0.279600 0.118700
vt 0.093300 0.277900
vt 0.016300 0.282600
vt 0.256400 0.251100
vt 0.173900 0.251000
vt 0.068100 0.372900
vt 0.193200 0.357300
vt 0.131700 0.372900
vt 0.260900 0.350600
vt 0.311700 0.334200
vt 0.149100 0.434000
vt 0.202000 0.461100
vt 0.236600 0.456300
vt 0.222600 0.474300
vt 0.270800 0.416700
vt 0.077600 0.019900
vt 0.106100 0.026000
vt 0.143000 0.080100
vt 0.144000 0.015300
vt 0.186100 0.006100
vt 0.128600 0.020200
vt 0.329900 0.219300
vt 0.044900 0.057000
vt 0.006800 0.159700
vt 0.073200 0.154300
vt 0.092300 0.087900
vt 0.158800 0.162100
vt 0.230700 0.146000
vt 0.198200 0.057900
vt 0.279600 0.118700
vt 0.214800 0.021300
vt 0.016300 0.282600
vt 0.093300 0.277900
vt 0.173900 0.251000
vt 0.256400 0.251100
vt 0.068100 0.372900
vt 0.131700 0.372900
vt 0.193200 0.357300
vt 0.260900 0.350600
vt 0.311700 0.334200
vt 0.149100 0.434000
vt 0.202000 0.461100
vt 0.222600 0.474300
vt 0.236600 0.456300
vt 0.270800 0.416700
vt 0.077600 0.019900
vt 0.143000 0.080100
vt 0.106100 0.026000
vt 0.144000 0.015300
vt 0.186100 0.006100
vt 0.128600 0.020200
vt 0.329900 0.219300
vt 0.044900 0.057000
vt 0.073200 0.154300
vt 0.006800 0.159700
vt 0.092300 0.087900
vt 0.158800 0.162100
vt 0.198200 0.057900
vt 0.230700 0.146000
vt 0.214800 0.021300
vt 0.279600 0.118700
vt 0.093300 0.277900
vt 0.016300 0.282600
vt 0.256400 0.251100
vt 0.173900 0.251000
vt 0.068100 0.372900
vt 0.193200 0.357300
vt 0.131700 0.372900
vt 0.260900 0.350600
vt 0.311700 0.334200
vt 0.149100 0.434000
vt 0.202000 0.461100
vt 0.236600 0.456300
vt 0.222600 0.474300
vt 0.270800 0.416700
vt 0.077600 0.019900
vt 0.106100 0.026000
vt 0.143000 0.080100
vt 0.144000 0.015300
vt 0.186100 0.006100
vt 0.128600 0.020200
vt 0.329900 0.219300
vt 0.044900 0.057000
vt 0.006800 0.159700
vt 0.073200 0.154300
vt 0.092300 0.087900
vt 0.158800 0.162100
vt 0.230700 0.146000
vt 0.198200 0.057900
vt 0.279600 0.118700
vt 0.214800 0.021300
vt 0.016300 0.282600
vt 0.093300 0.277900
vt 0.173900 0.251000
vt 0.256400 0.251100
vt 0.068100 0.372900
vt 0.131700 0.372900
vt 0.193200 0.357300
vt 0.260900 0.350600
vt 0.311700 0.334200
vt 0.149100 0.434000
vt 0.202000 0.461100
vt 0.222600 0.474300
vt 0.236600 0.456300
vt 0.270800 0.416700
vt 0.077600 0.019900
vt 0.143000 0.080100
vt 0.106100 0.026000
vt 0.144000 0.015300
vt 0.186100 0.006100
vt 0.128600 0.020200
vt 0.329900 0.219300
vt 0.421900 0.236700
vt 0.397700 0.335100
vt 0.337600 0.306500
vt 0.447500 0.287100
vt 0.468000 0.384600
vt 0.554300 0.314200
vt 0.538300 0.406600
vt 0.586900 0.290700
vt 0.594300 0.407500
vt 0.353400 0.452200
vt 0.284400 0.417800
vt 0.508100 0.510500
vt 0.436600 0.469200
vt 0.284100 0.521900
vt 0.400200 0.570900
vt 0.339100 0.553700
vt 0.462200 0.599000
vt 0.514400 0.610100
vt 0.323600 0.615300
vt 0.355900 0.665100
vt 0.388300 0.678300
vt 0.367200 0.687000
vt 0.437700 0.661100
vt 0.468800 0.220900
vt 0.490400 0.240400
vt 0.495300 0.305800
vt 0.528700 0.250100
vt 0.569700 0.263200
vt 0.512800 0.246700
vt 0.587600 0.519800
vt 0.421900 0.236700
vt 0.337600 0.306500
vt 0.397700 0.335100
vt 0.447500 0.287100
vt 0.468000 0.384600
vt 0.538300 0.406600
vt 0.554300 0.314200
vt 0.594300 0.407500
vt 0.586900 0.290700
vt 0.284400 0.417800
vt 0.353400 0.452200
vt 0.436600 0.469200
vt 0.508100 0.510500
vt 0.284100 0.521900
vt 0.339100 0.553700
vt 0.400200 0.570900
vt 0.462200 0.599000
vt 0.514400 0.610100
vt 0.323600 0.615300
vt 0.355900 0.665100
vt 0.367200 0.687000
vt 0.388300 0.678300
vt 0.437700 0.661100
vt 0.468800 0.220900
vt 0.495300 0.305800
vt 0.490400 0.240400
vt 0.528700 0.250100
vt 0.569700 0.263200
vt 0.512800 0.246700
vt 0.587600 0.519800
vt 0.044900 0.057000
vt 0.073200 0.154300
vt 0.006800 0.159700
vt 0.092300 0.087900
vt 0.158800 0.162100
vt 0.198200 0.057900
vt 0.230700 0.146000
vt 0.214800 0.021300
vt 0.279600 0.118700
vt 0.093300 0.277900
vt 0.016300 0.282600
vt 0.256400 0.251100
vt 0.173900 0.251000
vt 0.068100 0.372900
vt 0.193200 0.357300
vt 0.131700 0.372900
vt 0.260900 0.350600
vt 0.311700 0.334200
vt 0.149100 0.434000
vt 0.202000 0.461100
vt 0.236600 0.456300
vt 0.222600 0.474300
vt 0.270800 0.416700
vt 0.077600 0.019900
vt 0.106100 0.026000
vt 0.143000 0.080100
vt 0.144000 0.015300
vt 0.186100 0.006100
vt 0.128600 0.020200
vt 0.329900 0.219300
vt 0.044900 0.057000
vt 0.006800 0.159700
vt 0.073200 0.154300
vt 0.092300 0.087900
vt 0.158800 0.162100
vt 0.230700 0.146000
vt 0.198200 0.057900
vt 0.279600 0.118700
vt 0.214800 0.021300
vt 0.016300 0.282600
vt 0.093300 0.277900
vt 0.173900 0.251000
vt 0.256400 0.251100
vt 0.068100 0.372900
vt 0.131700 0.372900
vt 0.193200 0.357300
vt 0.260900 0.350600
vt 0.311700 0.334200
vt 0.149100 0.434000
vt 0.202000 0.461100
vt 0.222600 0.474300
vt 0.236600 0.456300
vt 0.270800 0.416700
vt 0.077600 0.019900
vt 0.143000 0.080100
vt 0.106100 0.026000
vt 0.144000 0.015300
vt 0.186100 0.006100
vt 0.128600 0.020200
vt 0.329900 0.219300
vn 0.9929 -0.1188 -0.0038
vn 0.7075 -0.0871 -0.7013
vn 0.4937 0.7160 -0.4937
vn 0.6981 0.7160 -0.0000
vn 0.0064 -0.0271 -0.9996
vn -0.0000 0.7160 -0.6981
vn -0.7042 0.0107 -0.7099
vn -0.4937 0.7160 -0.4937
vn -0.9997 0.0233 -0.0016
vn -0.6981 0.7160 0.0000
vn -0.7062 0.0156 0.7078
vn -0.4937 0.7160 0.4937
vn 0.0054 -0.0182 0.9998
vn 0.0000 0.7160 0.6981
vn 0.7108 -0.0790 0.6989
vn 0.4937 0.7160 0.4937
vn -0.0000 1.0000 0.0000
vn 0.9777 -0.2097 -0.0083
vn 0.6989 -0.1437 -0.7007
vn 0.0016 -0.0125 -0.9999
vn -0.6977 0.1352 -0.7035
vn -0.9749 0.2224 -0.0099
vn -0.7057 0.1420 0.6941
vn 0.0017 -0.0117 0.9999
vn 0.7061 -0.1486 0.6924
vn 0.9944 -0.1054 0.0041
vn 0.7029 -0.0788 -0.7069
vn -0.0104 -0.0419 -0.9991
vn -0.7179 0.0039 -0.6962
vn -1.0000 -0.0004 0.0078
vn -0.7100 -0.0837 0.6992
vn -0.0142 -0.1384 0.9903
vn 0.6932 -0.1306 0.7088
vn 0.9062 -0.4219 0.0289
vn 0.6429 -0.4214 -0.6396
vn -0.0240 -0.4390 -0.8981
vn -0.6479 -0.4788 -0.5924
vn -0.8480 -0.5291 0.0313
vn -0.5961 -0.5423 0.5921
vn -0.0363 -0.4989 0.8659
vn 0.6007 -0.4463 0.6634
vn 0.8718 -0.4899 0.0005
vn 0.6137 -0.4894 -0.6196
vn -0.0069 -0.4822 -0.8760
vn -0.6281 -0.4711 -0.6193
vn -0.8868 -0.4622 0.0017
vn -0.6302 -0.4622 0.6239
vn -0.0077 -0.4713 0.8819
vn 0.6151 -0.4831 0.6232
vn -0.0039 -1.0000 -0.0000
vn 0.7867 0.5971 0.1570
vn 0.7888 0.5818 0.1982
vn 0.5714 0.6696 0.4745
vn 0.8511 0.5220 0.0562
vn 0.5303 0.6592 0.5331
vn 0.3077 0.5378 0.7849
vn 0.2859 0.5421 0.7901
vn 0.5030 0.4971 0.7070
vn 0.4533 0.5720 0.6836
vn 0.5702 0.7825 0.2500
vn 0.3007 0.7882 0.5370
vn 0.1671 0.7126 0.6814
vn 0.4603 0.7210 0.5180
vn 0.1715 0.9106 0.3761
vn 0.2947 0.9111 0.2881
vn 0.3649 0.9249 0.1068
vn -0.0148 0.8965 0.4427
vn 0.1939 0.9181 0.3456
vn 0.3734 0.9253 -0.0660
vn 0.4542 0.8837 -0.1126
vn -0.1529 0.8843 0.4411
vn 0.1560 0.9672 0.2006
vn -0.1783 0.8748 0.4505
vn 0.8037 0.5949 0.0121
vn 0.7397 0.6512 0.1694
vn 0.4480 0.6762 0.5848
vn 0.2350 0.6448 0.7274
vn 0.6068 0.4689 0.6418
vn 0.3932 0.7522 0.5287
vn 0.4318 0.7336 0.5248
vn -0.7867 -0.5971 -0.1571
vn -0.5714 -0.6696 -0.4745
vn -0.7888 -0.5818 -0.1982
vn -0.8511 -0.5220 -0.0562
vn -0.5303 -0.6592 -0.5331
vn -0.2859 -0.5421 -0.7901
vn -0.3077 -0.5378 -0.7849
vn -0.4533 -0.5720 -0.6836
vn -0.5030 -0.4971 -0.7070
vn -0.3007 -0.7882 -0.5370
vn -0.5702 -0.7825 -0.2500
vn -0.4603 -0.7210 -0.5180
vn -0.1671 -0.7126 -0.6814
vn -0.1715 -0.9106 -0.3761
vn -0.3649 -0.9249 -0.1068
vn -0.2947 -0.9111 -0.2881
vn 0.0148 -0.8965 -0.4427
vn -0.1939 -0.9181 -0.3456
vn -0.3734 -0.9253 0.0660
vn -0.4542 -0.8837 0.1126
vn -0.1560 -0.9672 -0.2006
vn 0.1529 -0.8843 -0.4411
vn 0.1783 -0.8748 -0.4505
vn -0.8037 -0.5949 -0.0121
vn -0.4480 -0.6762 -0.5848
vn -0.7397 -0.6512 -0.1694
vn -0.2350 -0.6448 -0.7274
vn -0.6068 -0.4689 -0.6418
vn -0.3932 -0.7523 -0.5287
vn -0.4318 -0.7336 -0.5248
vn -0.8289 0.5167 0.2144
vn -0.8219 0.5285 0.2123
vn -0.8110 0.5650 -0.1520
vn -0.7966 0.4286 0.4262
vn -0.8065 0.5647 -0.1753
vn -0.4561 0.3226 -0.8294
vn -0.7208 0.4863 -0.4938
vn -0.4818 0.5313 -0.6968
vn -0.8011 0.5944 -0.0702
vn -0.6749 0.7268 0.1275
vn -0.6711 0.7106 -0.2113
vn -0.6142 0.7082 -0.3482
vn -0.7216 0.6663 -0.1881
vn -0.4860 0.8574 -0.1695
vn -0.4743 0.8735 -0.1097
vn -0.4633 0.8714 0.1613
vn -0.3007 0.9261 -0.2280
vn -0.4386 0.8846 0.1585
vn -0.3596 0.8838 0.2994
vn -0.3861 0.8375 0.3865
vn -0.2343 0.8691 -0.4356
vn -0.3696 0.9281 -0.0441
vn -0.0838 0.9798 -0.1814
vn -0.5876 0.4932 0.6415
vn -0.7446 0.4084 0.5281
vn -0.8554 0.4881 -0.1733
vn -0.6376 0.4089 -0.6529
vn -0.2049 0.5046 -0.8387
vn -0.8952 0.4320 -0.1096
vn -0.6686 0.7344 0.1169
vn 0.8289 -0.5167 -0.2144
vn 0.8110 -0.5650 0.1520
vn 0.8219 -0.5285 -0.2123
vn 0.7966 -0.4286 -0.4262
vn 0.8065 -0.5647 0.1753
vn 0.7209 -0.4863 0.4938
vn 0.4561 -0.3226 0.8294
vn 0.8011 -0.5944 0.0702
vn 0.4818 -0.5313 0.6968
vn 0.6711 -0.7106 0.2113
vn 0.6749 -0.7268 -0.1275
vn 0.7216 -0.6663 0.1881
vn 0.6142 -0.7082 0.3482
vn 0.4860 -0.8574 0.1695
vn 0.4633 -0.8714 -0.1613
vn 0.4743 -0.8735 0.1097
vn 0.3007 -0.9261 0.2280
vn 0.4386 -0.8846 -0.1585
vn 0.3596 -0.8838 -0.2994
vn 0.3861 -0.8375 -0.3865
vn 0.3696 -0.9281 0.0441
vn 0.2343 -0.8691 0.4356
vn 0.0838 -0.9798 0.1814
vn 0.5876 -0.4932 -0.6415
vn 0.8554 -0.4881 0.1733
vn 0.7446 -0.4084 -0.5281
vn 0.6376 -0.4089 0.6529
vn 0.2049 -0.5046 0.8387
vn 0.8952 -0.4321 0.1096
vn 0.6686 -0.7344 -0.1169
vn -0.0077 0.5741 -0.8187
vn 0.6042 0.5275 -0.5972
vn 0.6368 0.6454 -0.4218
vn 0.1329 0.4758 -0.8695
vn 0.8354 0.5310 -0.1420
vn 0.8693 0.3813 0.3144
vn 0.8738 0.4812 0.0701
vn 0.8838 0.3255 0.3362
vn 0.7761 0.5517 -0.3055
vn 0.6315 0.6600 -0.4069
vn 0.7833 0.6217 -0.0005
vn 0.7267 0.6870 0.0041
vn 0.7840 0.5875 -0.2005
vn 0.6050 0.7956 0.0324
vn 0.4738 0.8720 -0.1233
vn 0.4030 0.8681 -0.2900
vn 0.3981 0.9158 -0.0532
vn 0.2491 0.8410 -0.4803
vn 0.1886 0.8866 -0.4223
vn 0.1686 0.8375 -0.5197
vn 0.4065 0.8691 0.2817
vn 0.3493 0.9281 -0.1285
vn 0.1478 0.9843 0.0968
vn -0.2176 0.4657 -0.8577
vn 0.2248 0.5360 -0.8138
vn 0.7859 0.5722 -0.2345
vn 0.8797 0.4692 -0.0771
vn 0.9070 0.3912 -0.1562
vn 0.7650 0.5566 -0.3240
vn 0.5692 0.7126 -0.4102
vn 0.0077 -0.5741 0.8187
vn -0.6369 -0.6454 0.4218
vn -0.6042 -0.5275 0.5972
vn -0.1329 -0.4758 0.8695
vn -0.8354 -0.5310 0.1420
vn -0.8738 -0.4812 -0.0701
vn -0.8693 -0.3813 -0.3145
vn -0.7761 -0.5517 0.3055
vn -0.8838 -0.3255 -0.3362
vn -0.7833 -0.6217 0.0005
vn -0.6315 -0.6600 0.4069
vn -0.7839 -0.5875 0.2005
vn -0.7267 -0.6870 -0.0041
vn -0.6050 -0.7956 -0.0324
vn -0.4030 -0.8681 0.2900
vn -0.4738 -0.8720 0.1232
vn -0.3981 -0.9158 0.0532
vn -0.2491 -0.8410 0.4803
vn -0.1887 -0.8866 0.4223
vn -0.1686 -0.8375 0.5197
vn -0.3493 -0.9281 0.1285
vn -0.4065 -0.8691 -0.2817
vn -0.1478 -0.9843 -0.0968
vn 0.2176 -0.4657 0.8577
vn -0.7859 -0.5722 0.2345
vn -0.2248 -0.5360 0.8138
vn -0.8797 -0.4692 0.0771
vn -0.9070 -0.3911 0.1562
vn -0.7650 -0.5566 0.3240
vn -0.5692 -0.7126 0.4102
vn -0.7683 0.5890 -0.2506
vn -0.7323 0.5842 -0.3500
vn -0.5035 0.6683 -0.5476
vn -0.8086 0.5289 -0.2578
vn -0.4932 0.6485 -0.5798
vn -0.2951 0.5569 -0.7764
vn -0.2691 0.5617 -0.7824
vn -0.3533 0.5309 -0.7703
vn -0.3786 0.5845 -0.7177
vn -0.4981 0.7994 -0.3360
vn -0.2458 0.7882 -0.5643
vn -0.1344 0.7415 -0.6574
vn -0.3739 0.7610 -0.5301
vn -0.1332 0.9106 -0.3913
vn -0.2411 0.9261 -0.2904
vn -0.3525 0.9249 -0.1426
vn 0.0588 0.8965 -0.4391
vn -0.1586 0.9181 -0.3631
vn -0.3781 0.9253 0.0286
vn -0.4631 0.8838 0.0669
vn 0.1960 0.8843 -0.4237
vn -0.1353 0.9672 -0.2151
vn 0.2222 0.8748 -0.4305
vn -0.8032 0.5875 -0.0988
vn -0.7240 0.5581 -0.4055
vn -0.4579 0.6102 -0.6465
vn -0.3027 0.5221 -0.7973
vn -0.3603 0.5223 -0.7729
vn -0.4215 0.5353 -0.7319
vn -0.3775 0.7336 -0.5651
vn 0.7683 -0.5890 0.2506
vn 0.5035 -0.6683 0.5476
vn 0.7323 -0.5842 0.3500
vn 0.8086 -0.5289 0.2578
vn 0.4932 -0.6485 0.5798
vn 0.2691 -0.5617 0.7824
vn 0.2951 -0.5569 0.7764
vn 0.3786 -0.5845 0.7177
vn 0.3533 -0.5309 0.7703
vn 0.2458 -0.7882 0.5643
vn 0.4981 -0.7994 0.3360
vn 0.3739 -0.7610 0.5302
vn 0.1344 -0.7415 0.6574
vn 0.1332 -0.9106 0.3913
vn 0.3525 -0.9249 0.1426
vn 0.2411 -0.9261 0.2904
vn -0.0588 -0.8965 0.4390
vn 0.1586 -0.9181 0.3631
vn 0.3781 -0.9253 -0.0286
vn 0.4632 -0.8837 -0.0669
vn 0.1353 -0.9672 0.2151
vn -0.1960 -0.8843 0.4237
vn -0.2222 -0.8748 0.4305
vn 0.8032 -0.5875 0.0988
vn 0.4579 -0.6102 0.6465
vn 0.7240 -0.5581 0.4055
vn 0.3027 -0.5221 0.7973
vn 0.3603 -0.5223 0.7729
vn 0.4215 -0.5353 0.7319
vn 0.3775 -0.7336 0.5652
s 1
f 1/1/1 2/2/2 3/3/3
f 3/3/3 4/4/4 1/1/1
f 2/2/2 5/5/5 6/6/6
f 6/6/6 3/3/3 2/2/2
f 5/5/5 7/7/7 8/8/8
f 8/8/8 6/6/6 5/5/5
f 7/7/7 9/9/9 10/10/10
f 10/10/10 8/8/8 7/7/7
f 9/9/9 11/11/11 12/12/12
f 12/12/12 10/10/10 9/9/9
f 11/11/11 13/13/13 14/14/14
f 14/14/14 12/12/12 11/11/11
f 13/15/13 15/16/15 16/17/16
f 16/17/16 14/18/14 13/15/13
f 15/16/15 1/1/1 4/4/4
f 4/4/4 16/17/16 15/16/15
f 4/4/4 3/3/3 17/19/17
f 3/3/3 6/6/6 17/19/17
f 6/6/6 8/8/8 17/20/17
f 8/8/8 10/10/10 17/20/17
f 10/10/10 12/12/12 17/20/17
f 12/12/12 14/14/14 17/20/17
f 14/18/14 16/17/16 17/19/17
f 16/17/16 4/4/4 17/19/17
f 2/2/2 1/1/1 18/21/18
f 18/21/18 19/22/19 2/2/2
f 5/5/5 2/2/2 19/22/19
f 19/22/19 20/23/20 5/5/5
f 7/7/7 5/5/5 20/23/20
f 20/23/20 21/24/21 7/7/7
f 9/9/9 7/7/7 21/24/21
f 21/24/21 22/25/22 9/9/9
f 11/11/11 9/9/9 22/25/22
f 22/25/22 23/26/23 11/11/11
f 13/13/13 11/11/11 23/26/23
f 23/26/23 24/27/24 13/13/13
f 15/16/15 13/15/13 24/28/24
f 24/28/24 25/29/25 15/16/15
f 1/1/1 15/16/15 25/29/25
f 25/29/25 18/21/18 1/1/1
f 19/22/19 18/21/18 26/30/26
f 26/30/26 27/31/27 19/22/19
f 20/23/20 19/22/19 27/31/27
f 27/31/27 28/32/28 20/23/20
f 21/24/21 20/23/20 28/32/28
f 28/32/28 29/33/29 21/24/21
f 22/25/22 21/24/21 29/33/29
f 29/33/29 30/34/30 22/25/22
f 23/26/23 22/25/22 30/34/30
f 30/34/30 31/35/31 23/26/23
f 24/27/24 23/26/23 31/35/31
f 31/35/31 32/36/32 24/27/24
f 25/29/25 24/28/24 32/37/32
f 32/37/32 33/38/33 25/29/25
f 18/21/18 25/29/25 33/38/33
f 33/38/33 26/30/26 18/21/18
f 27/31/27 26/30/26 34/39/34
f 34/39/34 35/40/35 27/31/27
f 28/32/28 27/31/27 35/40/35
f 35/40/35 36/41/36 28/32/28
f 29/33/29 28/32/28 36/41/36
f 36/41/36 37/42/37 29/33/29
f 30/34/30 29/33/29 37/42/37
f 37/42/37 38/43/38 30/34/30
f 31/35/31 30/34/30 38/43/38
f 38/43/38 39/44/39 31/35/31
f 32/36/32 31/35/31 39/44/39
f 39/44/39 40/45/40 32/36/32
f 33/38/33 32/37/32 40/46/40
f 40/46/40 41/47/41 33/38/33
f 26/30/26 33/38/33 41/47/41
f 41/47/41 34/39/34 26/30/26
f 35/40/35 34/39/34 42/48/42
f 42/48/42 43/49/43 35/40/35
f 36/41/36 35/40/35 43/49/43
f 43/49/43 44/50/44 36/41/36
f 37/42/37 36/41/36 44/50/44
f 44/50/44 45/51/45 37/42/37
f 38/43/38 37/42/37 45/51/45
f 45/51/45 46/52/46 38/43/38
f 39/44/39 38/43/38 46/52/46
f 46/52/46 47/53/47 39/44/39
f 40/45/40 39/44/39 47/53/47
f 47/53/47 48/54/48 40/45/40
f 41/47/41 40/46/40 48/55/48
f 48/55/48 49/56/49 41/47/41
f 34/39/34 41/47/41 49/56/49
f 49/56/49 42/48/42 34/39/34
f 43/49/43 42/48/42 50/57/50
f 44/50/44 43/49/43 50/57/50
f 45/51/45 44/50/44 50/58/50
f 46/52/46 45/51/45 50/58/50
f 47/53/47 46/52/46 50/58/50
f 48/54/48 47/53/47 50/58/50
f 49/56/49 48/55/48 50/57/50
f 42/48/42 49/56/49 50/57/50
s 2
f 51/59/51 52/60/52 53/61/53
f 54/62/54 55/63/55 52/60/52
f 55/63/55 56/64/56 57/65/57
f 57/65/57 58/66/58 59/67/59
f 53/61/53 60/68/60 61/69/61
f 52/60/52 55/63/55 60/68/60
f 55/63/55 62/70/62 63/71/63
f 57/65/57 59/67/59 62/70/62
f 61/69/61 60/68/60 64/72/64
f 60/68/60 65/73/65 66/74/66
f 63/71/63 62/70/62 65/73/65
f 67/75/67 62/70/62 68/76/68
f 69/77/69 66/74/66 70/78/70
f 66/74/66 65/73/65 70/78/70
f 65/73/65 71/79/71 72/80/72
f 71/79/71 67/75/67 73/81/73
f 51/59/51 74/82/74 54/62/54
f 54/62/54 75/83/75 76/84/76
f 76/84/76 77/85/77 56/64/56
f 56/64/56 78/86/78 58/66/58
f 67/75/67 68/76/68 73/81/73
f 69/77/69 64/72/64 66/74/66
f 56/64/56 77/85/77 78/86/78
f 74/82/74 75/83/75 54/62/54
f 75/83/75 79/87/79 76/84/76
f 76/84/76 79/87/79 77/85/77
f 62/70/62 80/88/80 68/76/68
f 51/59/51 54/62/54 52/60/52
f 54/62/54 76/84/76 55/63/55
f 55/63/55 76/84/76 56/64/56
f 57/65/57 56/64/56 58/66/58
f 60/68/60 63/71/63 65/73/65
f 62/70/62 67/75/67 65/73/65
f 65/73/65 72/80/72 70/78/70
f 65/73/65 67/75/67 71/79/71
f 55/63/55 63/71/63 60/68/60
f 55/63/55 57/65/57 62/70/62
f 59/67/59 80/88/80 62/70/62
f 53/61/53 52/60/52 60/68/60
f 60/68/60 66/74/66 64/72/64
s 3
f 81/89/81 82/90/82 83/91/83
f 84/92/84 83/91/83 85/93/85
f 85/93/85 86/94/86 87/95/87
f 86/94/86 88/96/88 89/97/89
f 82/90/82 90/98/90 91/99/91
f 83/91/83 91/99/91 85/93/85
f 85/93/85 92/100/92 93/101/93
f 86/94/86 93/101/93 88/96/88
f 90/98/90 94/102/94 91/99/91
f 91/99/91 95/103/95 96/104/96
f 92/100/92 96/104/96 93/101/93
f 97/105/97 98/106/98 93/101/93
f 99/107/99 100/108/100 95/103/95
f 95/103/95 100/108/100 96/104/96
f 96/104/96 101/109/101 102/110/102
f 102/110/102 103/111/103 97/105/97
f 81/89/81 84/92/84 104/112/104
f 84/92/84 105/113/105 106/114/106
f 105/113/105 87/95/87 107/115/107
f 87/95/87 89/97/89 108/116/108
f 97/105/97 103/111/103 98/106/98
f 99/107/99 95/103/95 94/102/94
f 87/95/87 108/116/108 107/115/107
f 104/112/104 84/92/84 106/114/106
f 106/114/106 105/113/105 109/117/109
f 105/113/105 107/115/107 109/117/109
f 93/101/93 98/106/98 110/118/110
f 81/89/81 83/91/83 84/92/84
f 84/92/84 85/93/85 105/113/105
f 85/93/85 87/95/87 105/113/105
f 86/94/86 89/97/89 87/95/87
f 91/99/91 96/104/96 92/100/92
f 93/101/93 96/104/96 97/105/97
f 96/104/96 100/108/100 101/109/101
f 96/104/96 102/110/102 97/105/97
f 85/93/85 91/99/91 92/100/92
f 85/93/85 93/101/93 86/94/86
f 88/96/88 93/101/93 110/118/110
f 82/90/82 91/99/91 83/91/83
f 91/99/91 94/102/94 95/103/95
s 4
f 111/119/111 112/120/112 113/121/113
f 114/122/114 115/123/115 112/120/112
f 115/123/115 116/124/116 117/125/117
f 117/125/117 118/126/118 119/127/119
f 113/121/113 120/128/120 121/129/121
f 112/120/112 115/123/115 120/128/120
f 115/123/115 122/130/122 123/131/123
f 117/125/117 119/127/119 122/130/122
f 121/129/121 120/128/120 124/132/124
f 120/128/120 125/133/125 126/134/126
f 123/131/123 122/130/122 125/133/125
f 127/135/127 122/130/122 128/136/128
f 129/137/129 126/134/126 130/138/130
f 126/134/126 125/133/125 130/138/130
f 125/133/125 131/139/131 132/140/132
f 131/139/131 127/135/127 133/141/133
f 111/119/111 134/142/134 114/122/114
f 114/122/114 135/143/135 136/144/136
f 136/144/136 137/145/137 116/124/116
f 116/124/116 138/146/138 118/126/118
f 127/135/127 128/136/128 133/141/133
f 129/137/129 124/132/124 126/134/126
f 116/124/116 137/145/137 138/146/138
f 134/142/134 135/143/135 114/122/114
f 135/143/135 139/147/139 136/144/136
f 136/144/136 139/147/139 137/145/137
f 122/130/122 140/148/140 128/136/128
f 111/119/111 114/122/114 112/120/112
f 114/122/114 136/144/136 115/123/115
f 115/123/115 136/144/136 116/124/116
f 117/125/117 116/124/116 118/126/118
f 120/128/120 123/131/123 125/133/125
f 122/130/122 127/135/127 125/133/125
f 125/133/125 132/140/132 130/138/130
f 125/133/125 127/135/127 131/139/131
f 115/123/115 123/131/123 120/128/120
f 115/123/115 117/125/117 122/130/122
f 119/127/119 140/148/140 122/130/122
f 113/121/113 112/120/112 120/128/120
f 120/128/120 126/134/126 124/132/124
s 5
f 141/149/141 142/150/142 143/151/143
f 144/152/144 143/151/143 145/153/145
f 145/153/145 146/154/146 147/155/147
f 146/154/146 148/156/148 149/157/149
f 142/150/142 150/158/150 151/159/151
f 143/151/143 151/159/151 145/153/145
f 145/153/145 152/160/152 153/161/153
f 146/154/146 153/161/153 148/156/148
f 150/158/150 154/162/154 151/159/151
f 151/159/151 155/163/155 156/164/156
f 152/160/152 156/164/156 153/161/153
f 157/165/157 158/166/158 153/161/153
f 159/167/159 160/168/160 155/163/155
f 155/163/155 160/168/160 156/164/156
f 156/164/156 161/169/161 162/170/162
f 162/170/162 163/171/163 157/165/157
f 141/149/141 144/152/144 164/172/164
f 144/152/144 165/173/165 166/174/166
f 165/173/165 147/155/147 167/175/167
f 147/155/147 149/157/149 168/176/168
f 157/165/157 163/171/163 158/166/158
f 159/167/159 155/163/155 154/162/154
f 147/155/147 168/176/168 167/175/167
f 164/172/164 144/152/144 166/174/166
f 166/174/166 165/173/165 169/177/169
f 165/173/165 167/175/167 169/177/169
f 153/161/153 158/166/158 170/178/170
f 141/149/141 143/151/143 144/152/144
f 144/152/144 145/153/145 165/173/165
f 145/153/145 147/155/147 165/173/165
f 146/154/146 149/157/149 147/155/147
f 151/159/151 156/164/156 152/160/152
f 153/161/153 156/164/156 157/165/157
f 156/164/156 160/168/160 161/169/161
f 156/164/156 162/170/162 157/165/157
f 145/153/145 151/159/151 152/160/152
f 145/153/145 153/161/153 146/154/146
f 148/156/148 153/161/153 170/178/170
f 142/150/142 151/159/151 143/151/143
f 151/159/151 154/162/154 155/163/155
s 6
f 171/179/171 172/180/172 173/181/173
f 174/182/174 175/183/175 172/180/172
f 175/183/175 176/184/176 177/185/177
f 177/185/177 178/186/178 179/187/179
f 173/181/173 180/188/180 181/189/181
f 172/180/172 175/183/175 180/188/180
f 175/183/175 182/190/182 183/191/183
f 177/185/177 179/187/179 182/190/182
f 181/189/181 180/188/180 184/192/184
f 180/188/180 185/193/185 186/194/186
f 183/191/183 182/190/182 185/193/185
f 187/195/187 182/190/182 188/196/188
f 189/197/189 186/194/186 190/198/190
f 186/194/186 185/193/185 190/198/190
f 185/193/185 191/199/191 192/200/192
f 191/199/191 187/195/187 193/201/193
f 171/179/171 194/202/194 174/182/174
f 174/182/174 195/203/195 196/204/196
f 196/204/196 197/205/197 176/184/176
f 176/184/176 198/206/198 178/186/178
f 187/195/187 188/196/188 193/201/193
f 189/197/189 184/192/184 186/194/186
f 176/184/176 197/205/197 198/206/198
f 194/202/194 195/203/195 174/182/174
f 195/203/195 199/207/199 196/204/196
f 196/204/196 199/207/199 197/205/197
f 182/190/182 200/208/200 188/196/188
f 171/179/171 174/182/174 172/180/172
f 174/182/174 196/204/196 175/183/175
f 175/183/175 196/204/196 176/184/176
f 177/185/177 176/184/176 178/186/178
f 180/188/180 183/191/183 185/193/185
f 182/190/182 187/195/187 185/193/185
f 185/193/185 192/200/192 190/198/190
f 185/193/185 187/195/187 191/199/191
f 175/183/175 183/191/183 180/188/180
f 175/183/175 177/185/177 182/190/182
f 179/187/179 200/208/200 182/190/182
f 173/181/173 172/180/172 180/188/180
f 180/188/180 186/194/186 184/192/184
s 7
f 201/209/201 202/210/202 203/211/203
f 204/212/204 203/211/203 205/213/205
f 205/213/205 206/214/206 207/215/207
f 206/214/206 208/216/208 209/217/209
f 202/210/202 210/218/210 211/219/211
f 203/211/203 211/219/211 205/213/205
f 205/213/205 212/220/212 213/221/213
f 206/214/206 213/221/213 208/216/208
f 210/218/210 214/222/214 211/219/211
f 211/219/211 215/223/215 216/224/216
f 212/220/212 216/224/216 213/221/213
f 217/225/217 218/226/218 213/221/213
f 219/227/219 220/228/220 215/223/215
f 215/223/215 220/228/220 216/224/216
f 216/224/216 221/229/221 222/230/222
f 222/230/222 223/231/223 217/225/217
f 201/209/201 204/212/204 224/232/224
f 204/212/204 225/233/225 226/234/226
f 225/233/225 207/215/207 227/235/227
f 207/215/207 209/217/209 228/236/228
f 217/225/217 223/231/223 218/226/218
f 219/227/219 215/223/215 214/222/214
f 207/215/207 228/236/228 227/235/227
f 224/232/224 204/212/204 226/234/226
f 226/234/226 225/233/225 229/237/229
f 225/233/225 227/235/227 229/237/229
f 213/221/213 218/226/218 230/238/230
f 201/209/201 203/211/203 204/212/204
f 204/212/204 205/213/205 225/233/225
f 205/213/205 207/215/207 225/233/225
f 206/214/206 209/217/209 207/215/207
f 211/219/211 216/224/216 212/220/212
f 213/221/213 216/224/216 217/225/217
f 216/224/216 220/228/220 221/229/221
f 216/224/216 222/230/222 217/225/217
f 205/213/205 211/219/211 212/220/212
f 205/213/205 213/221/213 206/214/206
f 208/216/208 213/221/213 230/238/230
f 202/210/202 211/219/211 203/211/203
f 211/219/211 214/222/214 215/223/215
s 8
f 231/239/231 232/240/232 233/241/233
f 234/242/234 235/243/235 232/240/232
f 235/243/235 236/244/236 237/245/237
f 237/245/237 238/246/238 239/247/239
f 233/241/233 240/248/240 241/249/241
f 232/240/232 235/243/235 240/248/240
f 235/243/235 242/250/242 243/251/243
f 237/245/237 239/247/239 242/250/242
f 241/249/241 240/248/240 244/252/244
f 240/248/240 245/253/245 246/254/246
f 243/251/243 242/250/242 245/253/245
f 247/255/247 242/250/242 248/256/248
f 249/257/249 246/254/246 250/258/250
f 246/254/246 245/253/245 250/258/250
f 245/253/245 251/259/251 252/260/252
f 251/259/251 247/255/247 253/261/253
f 231/239/231 254/262/254 234/242/234
f 234/242/234 255/263/255 256/264/256
f 256/264/256 257/265/257 236/244/236
f 236/244/236 258/266/258 238/246/238
f 247/255/247 248/256/248 253/261/253
f 249/257/249 244/252/244 246/254/246
f 236/244/236 257/265/257 258/266/258
f 254/262/254 255/263/255 234/242/234
f 255/263/255 259/267/259 256/264/256
f 256/264/256 259/267/259 257/265/257
f 242/250/242 260/268/260 248/256/248
f 231/239/231 234/242/234 232/240/232
f 234/242/234 256/264/256 235/243/235
f 235/243/235 256/264/256 236/244/236
f 237/245/237 236/244/236 238/246/238
f 240/248/240 243/251/243 245/253/245
f 242/250/242 247/255/247 245/253/245
f 245/253/245 252/260/252 250/258/250
f 245/253/245 247/255/247 251/259/251
f 235/243/235 243/251/243 240/248/240
f 235/243/235 237/245/237 242/250/242
f 239/247/239 260/268/260 242/250/242
f 233/241/233 232/240/232 240/248/240
f 240/248/240 246/254/246 244/252/244
s 9
f 261/269/261 262/270/262 263/271/263
f 264/272/264 263/271/263 265/273/265
f 265/273/265 266/274/266 267/275/267
f 266/274/266 268/276/268 269/277/269
f 262/270/262 270/278/270 271/279/271
f 263/271/263 271/279/271 265/273/265
f 265/273/265 272/280/272 273/281/273
f 266/274/266 273/281/273 268/276/268
f 270/278/270 274/282/274 271/279/271
f 271/279/271 275/283/275 276/284/276
f 272/280/272 276/284/276 273/281/273
f 277/285/277 278/286/278 273/281/273
f 279/287/279 280/288/280 275/283/275
f 275/283/275 280/288/280 276/284/276
f 276/284/276 281/289/281 282/290/282
f 282/290/282 283/291/283 277/285/277
f 261/269/261 264/272/264 284/292/284
f 264/272/264 285/293/285 286/294/286
f 285/293/285 267/275/267 287/295/287
f 267/275/267 269/277/269 288/296/288
f 277/285/277 283/291/283 278/286/278
f 279/287/279 275/283/275 274/282/274
f 267/275/267 288/296/288 287/295/287
f 284/292/284 264/272/264 286/294/286
f 286/294/286 285/293/285 289/297/289
f 285/293/285 287/295/287 289/297/289
f 273/281/273 278/286/278 290/298/290
f 261/269/261 263/271/263 264/272/264
f 264/272/264 265/273/265 285/293/285
f 265/273/265 267/275/267 285/293/285
f 266/274/266 269/277/269 267/275/267
f 271/279/271 276/284/276 272/280/272
f 273/281/273 276/284/276 277/285/277
f 276/284/276 280/288/280 281/289/281
f 276/284/276 282/290/282 277/285/277
f 265/273/265 271/279/271 272/280/272
f 265/273/265 273/281/273 266/274/266
f 268/276/268 273/281/273 290/298/290
f 262/270/262 271/279/271 263/271/263
f 271/279/271 274/282/274 275/283/275
