# Blender v3.3.0 OBJ File: ''
# www.blender.org
o HadesStage01.005
v 0.065622 0.034818 0.000000
v 0.046402 0.034818 -0.046402
v 0.043799 0.043432 -0.043799
v 0.061941 0.043432 0.000000
v 0.000000 0.034818 -0.065622
v 0.000000 0.043432 -0.061941
v -0.046402 0.034818 -0.046402
v -0.043799 0.043432 -0.043799
v -0.065622 0.034818 0.000000
v -0.061941 0.043432 0.000000
v -0.046402 0.034818 0.046402
v -0.043799 0.043432 0.043799
v 0.000000 0.034818 0.065622
v 0.000000 0.043432 0.061941
v 0.046402 0.034818 0.046402
v 0.043799 0.043432 0.043799
v 0.000000 0.057506 0.000000
v 0.059112 0.026705 0.000000
v 0.041798 0.025285 -0.041939
v 0.000000 0.021857 -0.059310
v -0.041798 0.018429 -0.041939
v -0.059112 0.017009 0.000000
v -0.041798 0.018428 0.041939
v 0.000000 0.021857 0.059310
v 0.041798 0.025285 0.041939
v 0.064693 0.009550 0.000000
v 0.045745 0.009729 -0.045748
v 0.000000 0.010160 -0.064697
v -0.045745 0.010592 -0.045748
v -0.064693 0.010771 0.000000
v -0.045745 0.010592 0.045748
v 0.000000 0.010160 0.064697
v 0.045745 0.009729 0.045748
v 0.049487 -0.016241 0.000425
v 0.034992 -0.017523 -0.034778
v 0.000000 -0.014963 -0.049609
v -0.034992 -0.010060 -0.035379
v -0.049487 -0.005687 -0.000425
v -0.034992 -0.004405 0.034778
v 0.000000 -0.006965 0.049609
v 0.034992 -0.011868 0.035379
v 0.029502 -0.073761 -0.000000
v 0.020861 -0.073679 -0.020862
v 0.000000 -0.073482 -0.029503
v -0.020861 -0.073285 -0.020862
v -0.029502 -0.073204 -0.000000
v -0.020861 -0.073285 0.020862
v 0.000000 -0.073482 0.029503
v 0.020861 -0.073679 0.020862
v 0.000000 -0.106587 -0.000000
v -0.032325 0.083359 0.042455
v -0.084492 0.195606 0.009467
v -0.068029 0.182325 0.059565
v -0.055708 0.108600 0.008881
v -0.069044 0.185992 -0.071794
v 0.007589 0.111278 -0.060137
v -0.004671 0.218671 -0.088924
v 0.043226 0.210522 -0.097032
v -0.115780 0.326505 0.000356
v -0.122892 0.297509 0.066959
v -0.026199 0.335664 -0.107520
v -0.104237 0.279069 -0.097733
v -0.200071 0.395737 0.003783
v -0.147604 0.386227 -0.134547
v -0.166154 0.415278 -0.066047
v -0.084747 0.434792 -0.160960
v -0.039457 0.409226 -0.192994
v -0.212397 0.462711 -0.119666
v -0.216661 0.471187 -0.185493
v -0.186425 0.470366 -0.217247
v -0.216106 0.475887 -0.216538
v -0.128462 0.462844 -0.209699
v -0.012401 0.042762 0.036433
v -0.024608 0.032456 0.012514
v -0.037121 0.095012 -0.041499
v 0.000306 0.025120 -0.027642
v 0.036396 0.056599 -0.022166
v 0.043421 0.086870 -0.028974
v -0.018904 0.022720 -0.017510
v 0.037831 0.303012 -0.155280
v -0.034828 0.083359 0.040682
v -0.070531 0.182325 0.057792
v -0.086994 0.195606 0.007694
v -0.058211 0.108600 0.007108
v -0.071547 0.185992 -0.073567
v -0.007174 0.218671 -0.090697
v 0.005086 0.111278 -0.061910
v 0.040724 0.210522 -0.098805
v -0.125395 0.297509 0.065186
v -0.118283 0.326505 -0.001418
v -0.106740 0.279069 -0.099506
v -0.028702 0.335664 -0.109293
v -0.202574 0.395737 0.002010
v -0.168656 0.415278 -0.067820
v -0.150107 0.386227 -0.136320
v -0.087249 0.434792 -0.162733
v -0.041960 0.409226 -0.194767
v -0.214899 0.462711 -0.121439
v -0.219163 0.471187 -0.187266
v -0.218609 0.475887 -0.218311
v -0.188927 0.470366 -0.219020
v -0.130965 0.462844 -0.211472
v -0.014904 0.042762 0.034660
v -0.039623 0.095012 -0.043272
v -0.027111 0.032456 0.010741
v -0.002197 0.025120 -0.029416
v 0.040918 0.086870 -0.030747
v 0.033893 0.056599 -0.023940
v -0.021407 0.022720 -0.019283
v 0.035328 0.303012 -0.157053
v -0.061451 0.060599 0.040884
v -0.087393 0.116749 -0.005575
v -0.124305 0.116401 0.046295
v -0.066403 0.071250 -0.006655
v -0.082559 0.105425 -0.075900
v -0.007240 0.078341 -0.064050
v -0.021727 0.132449 -0.095884
v 0.013088 0.067234 -0.071130
v 0.017045 0.131576 -0.119968
v -0.150206 0.203307 -0.044971
v -0.193570 0.186330 0.004224
v -0.074960 0.212238 -0.132748
v -0.126645 0.157526 -0.111365
v -0.229974 0.231149 -0.064635
v -0.175364 0.219267 -0.150886
v -0.201111 0.242781 -0.110243
v -0.135239 0.245692 -0.180276
v -0.097044 0.248668 -0.203759
v -0.239380 0.255453 -0.149048
v -0.243211 0.248152 -0.201073
v -0.219674 0.249024 -0.226613
v -0.243212 0.245752 -0.225817
v -0.174478 0.259071 -0.221783
v -0.040989 0.036261 0.025452
v -0.035318 0.026800 -0.003295
v -0.046254 0.055809 -0.048076
v -0.003067 0.023120 -0.026579
v 0.005116 0.041831 -0.049061
v -0.017931 0.020036 -0.018242
v -0.017198 0.203219 -0.167663
v -0.061675 0.058220 0.038645
v -0.124529 0.114023 0.044057
v -0.087617 0.114371 -0.007814
v -0.066626 0.068872 -0.008894
v -0.082783 0.103046 -0.078139
v -0.021951 0.130071 -0.098122
v -0.007464 0.075962 -0.066289
v 0.016821 0.129198 -0.122207
v 0.012865 0.064855 -0.073369
v -0.193794 0.183951 0.001985
v -0.150430 0.200929 -0.047210
v -0.126868 0.155148 -0.113604
v -0.075184 0.209859 -0.134987
v -0.230198 0.228771 -0.066874
v -0.201335 0.240402 -0.112482
v -0.175588 0.216889 -0.153125
v -0.135463 0.243314 -0.182515
v -0.097267 0.246289 -0.205997
v -0.239603 0.253075 -0.151287
v -0.243435 0.245773 -0.203312
v -0.243435 0.243373 -0.228056
v -0.219898 0.246645 -0.228852
v -0.174702 0.256693 -0.224022
v -0.041213 0.033883 0.023213
v -0.046478 0.053430 -0.050315
v -0.035541 0.024422 -0.005534
v -0.003290 0.020742 -0.028818
v 0.004892 0.039453 -0.051300
v -0.018155 0.017658 -0.020480
v -0.017422 0.200841 -0.169901
v -0.007128 0.071555 -0.079688
v 0.043951 0.164284 -0.075162
v 0.029090 0.151747 -0.146027
v 0.035398 0.096007 -0.048130
v 0.114623 0.156444 -0.013258
v 0.038418 0.095652 0.059271
v 0.070775 0.188651 0.055577
v 0.002601 0.079643 0.078663
v 0.073571 0.182882 0.110218
v 0.128144 0.272384 -0.101690
v 0.111304 0.252245 -0.182994
v 0.148394 0.291230 0.037959
v 0.170986 0.230209 -0.028721
v 0.201278 0.319522 -0.168016
v 0.252483 0.305545 -0.049760
v 0.225642 0.334542 -0.104535
v 0.249879 0.354365 0.014325
v 0.246155 0.336977 0.070869
v 0.290984 0.359044 -0.115047
v 0.348245 0.355273 -0.081576
v 0.357461 0.355660 -0.038740
v 0.374012 0.354583 -0.063724
v 0.318581 0.361842 0.004816
v -0.006012 0.039015 -0.033254
v 0.021791 0.030913 -0.024955
v 0.062463 0.084091 0.000240
v 0.031170 0.025951 0.026719
v -0.001211 0.053248 0.052732
v 0.033734 0.023266 0.005192
v 0.158773 0.266270 0.124387
v -0.004511 0.069769 -0.079688
v 0.031707 0.149961 -0.146027
v 0.046568 0.162498 -0.075162
v 0.038015 0.094221 -0.048130
v 0.117240 0.154658 -0.013258
v 0.073392 0.186865 0.055577
v 0.041035 0.093866 0.059271
v 0.076188 0.181095 0.110218
v 0.005218 0.077857 0.078663
v 0.113921 0.250459 -0.182994
v 0.130761 0.270597 -0.101690
v 0.173603 0.228423 -0.028721
v 0.151011 0.289444 0.037959
v 0.203895 0.317736 -0.168016
v 0.228259 0.332756 -0.104535
v 0.255100 0.303759 -0.049760
v 0.252496 0.352578 0.014325
v 0.248772 0.335191 0.070869
v 0.293601 0.357258 -0.115047
v 0.350863 0.353487 -0.081576
v 0.376629 0.352797 -0.063724
v 0.360078 0.353873 -0.038740
v 0.321198 0.360056 0.004816
v -0.003395 0.037228 -0.033254
v 0.065080 0.082304 0.000240
v 0.024408 0.029126 -0.024955
v 0.033787 0.024164 0.026719
v 0.001406 0.051462 0.052732
v 0.036351 0.021480 0.005192
v 0.161390 0.264483 0.124387
v 0.004262 0.078777 0.056787
v -0.080994 0.164284 0.102161
v -0.045890 0.151747 0.127600
v -0.031702 0.096007 0.071065
v -0.118636 0.156444 0.054489
v -0.064456 0.095652 -0.008357
v -0.101546 0.188651 -0.008943
v -0.044614 0.079643 -0.037469
v -0.115641 0.182882 -0.061808
v -0.126006 0.272383 0.124278
v -0.109982 0.252245 0.187009
v -0.164862 0.291230 0.022238
v -0.157462 0.230209 0.073643
v -0.175482 0.319522 0.202898
v -0.232803 0.305545 0.111167
v -0.195160 0.334542 0.159164
v -0.243581 0.354365 0.047942
v -0.267330 0.336977 0.010374
v -0.256888 0.359044 0.183033
v -0.319857 0.355273 0.162200
v -0.337778 0.355659 0.122216
v -0.348773 0.354583 0.150096
v -0.308805 0.361842 0.071528
v 0.011556 0.039015 0.029143
v -0.013843 0.030913 0.033029
v -0.067373 0.084091 0.028800
v -0.032229 0.025951 -0.009657
v -0.039547 0.033046 -0.020500
v -0.030261 0.023266 0.011932
v -0.192985 0.266270 -0.060143
v 0.001415 0.074954 0.056787
v -0.048737 0.147924 0.127600
v -0.083841 0.160462 0.102161
v -0.034549 0.092184 0.071065
v -0.121483 0.152622 0.054489
v -0.104392 0.184829 -0.008943
v -0.067303 0.091830 -0.008357
v -0.118488 0.179059 -0.061808
v -0.047461 0.075821 -0.037469
v -0.112829 0.248422 0.187009
v -0.128853 0.268561 0.124278
v -0.160309 0.226386 0.073643
v -0.167709 0.287408 0.022238
v -0.178329 0.315699 0.202898
v -0.198007 0.330719 0.159165
v -0.235650 0.301723 0.111167
v -0.246428 0.350542 0.047942
v -0.270177 0.333154 0.010374
v -0.259734 0.355222 0.183033
v -0.322704 0.351451 0.162200
v -0.351620 0.350761 0.150096
v -0.340625 0.351837 0.122216
v -0.311652 0.358020 0.071528
v 0.008709 0.035192 0.029143
v -0.070220 0.080268 0.028800
v -0.016690 0.027090 0.033029
v -0.035076 0.022128 -0.009657
v -0.042394 0.029223 -0.020500
v -0.033108 0.019444 0.011932
v -0.195832 0.262447 -0.060143
v 0.060983 0.087339 0.000599
v 0.058986 0.196053 0.058984
v 0.109219 0.188598 0.017182
v 0.037304 0.108431 0.042656
v -0.022828 0.178128 0.099511
v -0.056244 0.105612 0.038406
v -0.076986 0.209851 0.073283
v -0.122174 0.201139 0.039085
v 0.055935 0.324016 0.108533
v 0.124191 0.301590 0.071354
v -0.084581 0.324461 0.109388
v -0.023504 0.268110 0.159216
v 0.108414 0.392339 0.175523
v -0.030390 0.371050 0.223050
v 0.032072 0.405917 0.195426
v -0.093929 0.417746 0.194949
v -0.145912 0.389914 0.179010
v 0.017873 0.447838 0.268256
v -0.030210 0.450332 0.314137
v -0.073839 0.447003 0.311192
v -0.054578 0.452237 0.333855
v -0.104828 0.440830 0.261445
v 0.034605 0.045811 -0.012487
v 0.022670 0.032700 0.018057
v -0.013952 0.090193 0.059430
v -0.023560 0.022070 0.024129
v -0.042359 0.054880 -0.011541
v -0.053937 0.084494 -0.010579
v -0.003334 0.020375 0.032222
v -0.162708 0.287274 0.102836
v 0.060983 0.084393 0.003990
v 0.109219 0.185651 0.020573
v 0.058986 0.193106 0.062375
v 0.037304 0.105484 0.046047
v -0.022828 0.175181 0.102901
v -0.076986 0.206905 0.076674
v -0.056244 0.102666 0.041797
v -0.122174 0.198193 0.042476
v 0.124191 0.298643 0.074745
v 0.055935 0.321069 0.111924
v -0.023504 0.265163 0.162607
v -0.084581 0.321514 0.112778
v 0.108414 0.389393 0.178914
v 0.032072 0.402970 0.198816
v -0.030390 0.368104 0.226440
v -0.093929 0.414799 0.198339
v -0.145912 0.386967 0.182401
v 0.017873 0.444891 0.271647
v -0.030210 0.447385 0.317527
v -0.054578 0.449290 0.337245
v -0.073839 0.444057 0.314583
v -0.104828 0.437883 0.264836
v 0.034605 0.042865 -0.009096
v -0.013952 0.087246 0.062821
v 0.022670 0.029753 0.021447
v -0.023560 0.019123 0.027520
v -0.053937 0.081548 -0.007188
v -0.042359 0.051933 -0.008150
v -0.003334 0.017428 0.035613
v -0.162708 0.284327 0.106227
v 0.065211 0.060599 -0.034572
v 0.086107 0.116749 0.010634
v 0.128292 0.116401 -0.033708
v 0.065113 0.071250 0.009622
v 0.069988 0.116417 0.077177
v 0.000837 0.078341 0.064453
v 0.012087 0.132449 0.097569
v -0.036406 0.067234 0.073591
v -0.028887 0.131576 0.117679
v 0.144991 0.203307 0.059681
v 0.193031 0.186330 0.015041
v 0.061391 0.212238 0.139542
v 0.107932 0.168518 0.114777
v 0.222409 0.231149 0.087178
v 0.159495 0.219267 0.167573
v 0.189155 0.242781 0.129690
v 0.116647 0.245692 0.192828
v 0.076306 0.248668 0.212397
v 0.223376 0.255453 0.172108
v 0.222017 0.248151 0.224255
v 0.196057 0.249024 0.247329
v 0.219557 0.245752 0.248877
v 0.151565 0.259071 0.238030
v 0.043316 0.036261 -0.021251
v 0.034815 0.026800 0.006790
v 0.035122 0.064957 0.041791
v 0.000409 0.023120 0.026752
v -0.026279 0.041831 0.052424
v 0.016029 0.020036 0.019934
v 0.000445 0.203219 0.168542
v 0.065211 0.058221 -0.032322
v 0.128292 0.114023 -0.031458
v 0.086107 0.114371 0.012884
v 0.065113 0.068872 0.011872
v 0.069988 0.114038 0.079427
v 0.012087 0.130071 0.099819
v 0.000837 0.075962 0.066703
v -0.028887 0.129198 0.119929
v -0.036406 0.064855 0.075841
v 0.193031 0.183951 0.017291
v 0.144991 0.200929 0.061931
v 0.107932 0.166140 0.117028
v 0.061391 0.209859 0.141792
v 0.222409 0.228771 0.089428
v 0.189155 0.240402 0.131940
v 0.159495 0.216889 0.169823
v 0.116647 0.243314 0.195078
v 0.076306 0.246289 0.214647
v 0.223376 0.253075 0.174358
v 0.222017 0.245773 0.226505
v 0.219557 0.243373 0.251127
v 0.196057 0.246645 0.249579
v 0.151565 0.256693 0.240280
v 0.043316 0.033883 -0.019001
v 0.035122 0.062578 0.044041
v 0.034815 0.024422 0.009040
v 0.000409 0.020741 0.029002
v -0.026279 0.039453 0.054674
v 0.016029 0.017658 0.022184
v 0.000445 0.200841 0.170792
v 0.017390 0.037394 -0.005462
v 0.028578 0.141173 -0.003617
v 0.028052 0.141266 -0.009717
v 0.016979 0.037394 -0.010230
v 0.019515 0.037394 -0.004166
v 0.031295 0.140694 -0.001958
v 0.021984 0.037394 -0.004385
v 0.034453 0.140137 -0.002239
v 0.024412 0.037394 -0.008488
v 0.037559 0.139589 -0.007488
v 0.021319 0.037394 -0.012101
v 0.033603 0.140287 -0.012109
v 0.007364 0.037394 -0.008872
v 0.010276 0.204340 -0.010864
v 0.004726 0.204340 -0.008277
v 0.003026 0.037394 -0.006849
v 0.007844 0.037394 -0.011342
v 0.010890 0.204340 -0.014025
v 0.006781 0.037394 -0.013623
v 0.009529 0.204340 -0.016942
v 0.002082 0.037394 -0.014537
v 0.003519 0.204340 -0.018111
v -0.000239 0.037394 -0.010350
v 0.000550 0.204340 -0.012755
v 0.000869 0.037394 -0.015161
v -0.015622 0.166466 -0.029429
v -0.021172 0.166466 -0.026841
v -0.003469 0.037394 -0.013138
v 0.001350 0.037394 -0.017632
v -0.015008 0.166466 -0.032589
v 0.000286 0.037394 -0.019912
v -0.016369 0.166466 -0.035506
v -0.004413 0.037394 -0.020826
v -0.022379 0.166466 -0.036675
v -0.006734 0.037394 -0.016639
v -0.025348 0.166466 -0.031319
v 0.005687 0.037394 0.011034
v 0.022147 0.166466 0.016399
v 0.028247 0.166466 0.015865
v 0.010455 0.037394 0.010617
v 0.004391 0.037394 0.013191
v 0.020489 0.166466 0.019158
v 0.004610 0.037394 0.015698
v 0.020769 0.166466 0.022365
v 0.008713 0.037394 0.018164
v 0.026018 0.166466 0.025519
v 0.012326 0.037394 0.015023
v 0.030639 0.166466 0.021502
v -0.004118 0.037394 0.009352
v 0.006388 0.163016 0.022162
v 0.010718 0.163016 0.026492
v -0.000733 0.037394 0.012737
v -0.006603 0.037394 0.009746
v 0.003208 0.163016 0.022665
v -0.008383 0.037394 0.011526
v 0.000932 0.163016 0.024942
v -0.007634 0.037394 0.016254
v 0.001890 0.163016 0.030990
v -0.002906 0.037394 0.017002
v 0.007938 0.163016 0.031948
v -0.015431 0.037394 0.003778
v -0.041618 0.197114 -0.016274
v -0.043712 0.197114 -0.010520
v -0.017068 0.037394 0.008276
v -0.016838 0.037394 0.001691
v -0.043418 0.197114 -0.018943
v -0.019203 0.037394 0.000831
v -0.046443 0.197114 -0.020044
v -0.023171 0.037394 0.003507
v -0.051520 0.197114 -0.016620
v -0.021852 0.037394 0.008109
v -0.049832 0.197114 -0.010734
v 0.006835 0.037394 -0.000492
v 0.003354 0.204340 0.000083
v 0.009478 0.204340 0.000083
v 0.011622 0.037394 -0.000492
v 0.005356 0.037394 0.001544
v 0.001462 0.204340 0.002688
v 0.005356 0.037394 0.004060
v 0.001462 0.204340 0.005907
v 0.009229 0.037394 0.006874
v 0.006416 0.204340 0.009506
v 0.013101 0.037394 0.004060
v 0.011370 0.204340 0.005907
v 0.005179 0.168248 0.026533
v 0.005591 0.209194 0.004029
v 0.006582 0.208181 -0.013496
v -0.046090 0.200863 -0.015523
v -0.019316 0.170533 -0.032060
v 0.024718 0.172217 0.020135
v 0.033676 0.145254 -0.006188
vt 0.552700 0.075400
vt 0.508600 0.053900
vt 0.508600 0.049700
vt 0.551800 0.070000
vt 0.465800 0.027700
vt 0.465800 0.015700
vt 0.423600 0.054900
vt 0.423500 0.050400
vt 0.380100 0.076600
vt 0.380900 0.071200
vt 0.331900 0.076300
vt 0.335300 0.067100
vt 0.283000 0.063000
vt 0.296300 0.040100
vt 0.649600 0.058700
vt 0.601300 0.074600
vt 0.597600 0.065200
vt 0.635700 0.036800
vt 0.557600 0.003200
vt 0.373900 0.004400
vt 0.553900 0.079200
vt 0.509500 0.061700
vt 0.465900 0.046900
vt 0.425100 0.069000
vt 0.381100 0.089700
vt 0.332000 0.094000
vt 0.283300 0.094200
vt 0.650200 0.089800
vt 0.601900 0.085600
vt 0.552000 0.091400
vt 0.508600 0.075900
vt 0.466100 0.064100
vt 0.423700 0.075900
vt 0.380700 0.092000
vt 0.334800 0.103300
vt 0.288400 0.122200
vt 0.645500 0.118400
vt 0.598200 0.102100
vt 0.545600 0.111800
vt 0.505200 0.101000
vt 0.466400 0.096600
vt 0.427700 0.101100
vt 0.387500 0.112400
vt 0.348400 0.128400
vt 0.315400 0.152900
vt 0.619000 0.150300
vt 0.585100 0.127000
vt 0.519400 0.173600
vt 0.494500 0.169600
vt 0.467200 0.172900
vt 0.439900 0.169700
vt 0.414900 0.174100
vt 0.393400 0.184900
vt 0.378400 0.202800
vt 0.556800 0.201300
vt 0.541200 0.183900
vt 0.503800 0.216400
vt 0.431500 0.217100
vt 0.044900 0.057000
vt 0.073200 0.154300
vt 0.006800 0.159700
vt 0.092300 0.087900
vt 0.158800 0.162100
vt 0.198200 0.057900
vt 0.230700 0.146000
vt 0.279600 0.118700
vt 0.093300 0.277900
vt 0.016300 0.282600
vt 0.256400 0.251100
vt 0.173900 0.251000
vt 0.068100 0.372900
vt 0.193200 0.357300
vt 0.131700 0.372900
vt 0.260900 0.350600
vt 0.311700 0.334200
vt 0.149100 0.434000
vt 0.202000 0.461100
vt 0.236600 0.456300
vt 0.222600 0.474300
vt 0.270800 0.416700
vt 0.077600 0.019900
vt 0.106100 0.026000
vt 0.143000 0.080100
vt 0.144000 0.015300
vt 0.186100 0.006100
vt 0.214800 0.021300
vt 0.128600 0.020200
vt 0.329900 0.219300
vt 0.044900 0.057000
vt 0.006800 0.159700
vt 0.073200 0.154300
vt 0.092300 0.087900
vt 0.158800 0.162100
vt 0.230700 0.146000
vt 0.198200 0.057900
vt 0.279600 0.118700
vt 0.016300 0.282600
vt 0.093300 0.277900
vt 0.173900 0.251000
vt 0.256400 0.251100
vt 0.068100 0.372900
vt 0.131700 0.372900
vt 0.193200 0.357300
vt 0.260900 0.350600
vt 0.311700 0.334200
vt 0.149100 0.434000
vt 0.202000 0.461100
vt 0.222600 0.474300
vt 0.236600 0.456300
vt 0.270800 0.416700
vt 0.077600 0.019900
vt 0.143000 0.080100
vt 0.106100 0.026000
vt 0.144000 0.015300
vt 0.214800 0.021300
vt 0.186100 0.006100
vt 0.128600 0.020200
vt 0.329900 0.219300
vt 0.044900 0.057000
vt 0.073200 0.154300
vt 0.006800 0.159700
vt 0.092300 0.087900
vt 0.158800 0.162100
vt 0.198200 0.057900
vt 0.230700 0.146000
vt 0.214800 0.021300
vt 0.279600 0.118700
vt 0.093300 0.277900
vt 0.016300 0.282600
vt 0.256400 0.251100
vt 0.173900 0.251000
vt 0.068100 0.372900
vt 0.193200 0.357300
vt 0.131700 0.372900
vt 0.260900 0.350600
vt 0.311700 0.334200
vt 0.149100 0.434000
vt 0.202000 0.461100
vt 0.236600 0.456300
vt 0.222600 0.474300
vt 0.270800 0.416700
vt 0.077600 0.019900
vt 0.106100 0.026000
vt 0.143000 0.080100
vt 0.144000 0.015300
vt 0.186100 0.006100
vt 0.128600 0.020200
vt 0.329900 0.219300
vt 0.044900 0.057000
vt 0.006800 0.159700
vt 0.073200 0.154300
vt 0.092300 0.087900
vt 0.158800 0.162100
vt 0.230700 0.146000
vt 0.198200 0.057900
vt 0.279600 0.118700
vt 0.214800 0.021300
vt 0.016300 0.282600
vt 0.093300 0.277900
vt 0.173900 0.251000
vt 0.256400 0.251100
vt 0.068100 0.372900
vt 0.131700 0.372900
vt 0.193200 0.357300
vt 0.260900 0.350600
vt 0.311700 0.334200
vt 0.149100 0.434000
vt 0.202000 0.461100
vt 0.222600 0.474300
vt 0.236600 0.456300
vt 0.270800 0.416700
vt 0.077600 0.019900
vt 0.143000 0.080100
vt 0.106100 0.026000
vt 0.144000 0.015300
vt 0.186100 0.006100
vt 0.128600 0.020200
vt 0.329900 0.219300
vt 0.044900 0.057000
vt 0.073200 0.154300
vt 0.006800 0.159700
vt 0.092300 0.087900
vt 0.158800 0.162100
vt 0.198200 0.057900
vt 0.230700 0.146000
vt 0.214800 0.021300
vt 0.279600 0.118700
vt 0.093300 0.277900
vt 0.016300 0.282600
vt 0.256400 0.251100
vt 0.173900 0.251000
vt 0.068100 0.372900
vt 0.193200 0.357300
vt 0.131700 0.372900
vt 0.260900 0.350600
vt 0.311700 0.334200
vt 0.149100 0.434000
vt 0.202000 0.461100
vt 0.236600 0.456300
vt 0.222600 0.474300
vt 0.270800 0.416700
vt 0.077600 0.019900
vt 0.106100 0.026000
vt 0.143000 0.080100
vt 0.144000 0.015300
vt 0.186100 0.006100
vt 0.128600 0.020200
vt 0.329900 0.219300
vt 0.044900 0.057000
vt 0.006800 0.159700
vt 0.073200 0.154300
vt 0.092300 0.087900
vt 0.158800 0.162100
vt 0.230700 0.146000
vt 0.198200 0.057900
vt 0.279600 0.118700
vt 0.214800 0.021300
vt 0.016300 0.282600
vt 0.093300 0.277900
vt 0.173900 0.251000
vt 0.256400 0.251100
vt 0.068100 0.372900
vt 0.131700 0.372900
vt 0.193200 0.357300
vt 0.260900 0.350600
vt 0.311700 0.334200
vt 0.149100 0.434000
vt 0.202000 0.461100
vt 0.222600 0.474300
vt 0.236600 0.456300
vt 0.270800 0.416700
vt 0.077600 0.019900
vt 0.143000 0.080100
vt 0.106100 0.026000
vt 0.144000 0.015300
vt 0.186100 0.006100
vt 0.128600 0.020200
vt 0.329900 0.219300
vt 0.421900 0.236700
vt 0.397700 0.335100
vt 0.337600 0.306500
vt 0.447500 0.287100
vt 0.468000 0.384600
vt 0.554300 0.314200
vt 0.538300 0.406600
vt 0.586900 0.290700
vt 0.594300 0.407500
vt 0.353400 0.452200
vt 0.284400 0.417800
vt 0.508100 0.510500
vt 0.436600 0.469200
vt 0.284100 0.521900
vt 0.400200 0.570900
vt 0.339100 0.553700
vt 0.462200 0.599000
vt 0.514400 0.610100
vt 0.323600 0.615300
vt 0.355900 0.665100
vt 0.388300 0.678300
vt 0.367200 0.687000
vt 0.437700 0.661100
vt 0.468800 0.220900
vt 0.490400 0.240400
vt 0.495300 0.305800
vt 0.528700 0.250100
vt 0.569700 0.263200
vt 0.512800 0.246700
vt 0.587600 0.519800
vt 0.421900 0.236700
vt 0.337600 0.306500
vt 0.397700 0.335100
vt 0.447500 0.287100
vt 0.468000 0.384600
vt 0.538300 0.406600
vt 0.554300 0.314200
vt 0.594300 0.407500
vt 0.586900 0.290700
vt 0.284400 0.417800
vt 0.353400 0.452200
vt 0.436600 0.469200
vt 0.508100 0.510500
vt 0.284100 0.521900
vt 0.339100 0.553700
vt 0.400200 0.570900
vt 0.462200 0.599000
vt 0.514400 0.610100
vt 0.323600 0.615300
vt 0.355900 0.665100
vt 0.367200 0.687000
vt 0.388300 0.678300
vt 0.437700 0.661100
vt 0.468800 0.220900
vt 0.495300 0.305800
vt 0.490400 0.240400
vt 0.528700 0.250100
vt 0.569700 0.263200
vt 0.512800 0.246700
vt 0.587600 0.519800
vt 0.044900 0.057000
vt 0.073200 0.154300
vt 0.006800 0.159700
vt 0.092300 0.087900
vt 0.158800 0.162100
vt 0.198200 0.057900
vt 0.230700 0.146000
vt 0.279600 0.118700
vt 0.093300 0.277900
vt 0.016300 0.282600
vt 0.256400 0.251100
vt 0.173900 0.251000
vt 0.068100 0.372900
vt 0.193200 0.357300
vt 0.131700 0.372900
vt 0.260900 0.350600
vt 0.311700 0.334200
vt 0.149100 0.434000
vt 0.202000 0.461100
vt 0.236600 0.456300
vt 0.222600 0.474300
vt 0.270800 0.416700
vt 0.077600 0.019900
vt 0.106100 0.026000
vt 0.143000 0.080100
vt 0.144000 0.015300
vt 0.186100 0.006100
vt 0.214800 0.021300
vt 0.128600 0.020200
vt 0.329900 0.219300
vt 0.044900 0.057000
vt 0.006800 0.159700
vt 0.073200 0.154300
vt 0.092300 0.087900
vt 0.158800 0.162100
vt 0.230700 0.146000
vt 0.198200 0.057900
vt 0.279600 0.118700
vt 0.016300 0.282600
vt 0.093300 0.277900
vt 0.173900 0.251000
vt 0.256400 0.251100
vt 0.068100 0.372900
vt 0.131700 0.372900
vt 0.193200 0.357300
vt 0.260900 0.350600
vt 0.311700 0.334200
vt 0.149100 0.434000
vt 0.202000 0.461100
vt 0.222600 0.474300
vt 0.236600 0.456300
vt 0.270800 0.416700
vt 0.077600 0.019900
vt 0.143000 0.080100
vt 0.106100 0.026000
vt 0.144000 0.015300
vt 0.214800 0.021300
vt 0.186100 0.006100
vt 0.128600 0.020200
vt 0.329900 0.219300
vt 0.044900 0.057000
vt 0.073200 0.154300
vt 0.006800 0.159700
vt 0.092300 0.087900
vt 0.158800 0.162100
vt 0.198200 0.057900
vt 0.230700 0.146000
vt 0.214800 0.021300
vt 0.279600 0.118700
vt 0.093300 0.277900
vt 0.016300 0.282600
vt 0.256400 0.251100
vt 0.173900 0.251000
vt 0.068100 0.372900
vt 0.193200 0.357300
vt 0.131700 0.372900
vt 0.260900 0.350600
vt 0.311700 0.334200
vt 0.149100 0.434000
vt 0.202000 0.461100
vt 0.236600 0.456300
vt 0.222600 0.474300
vt 0.270800 0.416700
vt 0.077600 0.019900
vt 0.106100 0.026000
vt 0.143000 0.080100
vt 0.144000 0.015300
vt 0.186100 0.006100
vt 0.128600 0.020200
vt 0.329900 0.219300
vt 0.044900 0.057000
vt 0.006800 0.159700
vt 0.073200 0.154300
vt 0.092300 0.087900
vt 0.158800 0.162100
vt 0.230700 0.146000
vt 0.198200 0.057900
vt 0.279600 0.118700
vt 0.214800 0.021300
vt 0.016300 0.282600
vt 0.093300 0.277900
vt 0.173900 0.251000
vt 0.256400 0.251100
vt 0.068100 0.372900
vt 0.131700 0.372900
vt 0.193200 0.357300
vt 0.260900 0.350600
vt 0.311700 0.334200
vt 0.149100 0.434000
vt 0.202000 0.461100
vt 0.222600 0.474300
vt 0.236600 0.456300
vt 0.270800 0.416700
vt 0.077600 0.019900
vt 0.143000 0.080100
vt 0.106100 0.026000
vt 0.144000 0.015300
vt 0.186100 0.006100
vt 0.128600 0.020200
vt 0.329900 0.219300
vt 0.730700 0.327400
vt 0.730700 0.383100
vt 0.708700 0.383100
vt 0.708700 0.327400
vt 0.741700 0.327400
vt 0.741700 0.383100
vt 0.697700 0.327400
vt 0.697700 0.383100
vt 0.687500 0.383100
vt 0.687500 0.327400
vt 0.719700 0.327400
vt 0.719700 0.383100
vt 0.741700 0.327400
vt 0.741700 0.383100
vt 0.687500 0.383100
vt 0.687500 0.327400
vt 0.730700 0.327400
vt 0.730700 0.383100
vt 0.708700 0.383100
vt 0.708700 0.327400
vt 0.741700 0.327400
vt 0.741700 0.383100
vt 0.697700 0.327400
vt 0.697700 0.383100
vt 0.687500 0.383100
vt 0.687500 0.327400
vt 0.719700 0.327400
vt 0.719700 0.383100
vt 0.741700 0.327400
vt 0.741700 0.383100
vt 0.687500 0.383100
vt 0.687500 0.327400
vt 0.730700 0.327800
vt 0.730700 0.403400
vt 0.708700 0.403400
vt 0.708700 0.327800
vt 0.741700 0.327800
vt 0.741700 0.403400
vt 0.697700 0.327800
vt 0.697700 0.403400
vt 0.687500 0.403400
vt 0.687500 0.327800
vt 0.719700 0.327800
vt 0.719700 0.403400
vt 0.741700 0.327800
vt 0.741700 0.403400
vt 0.687500 0.403400
vt 0.687500 0.327800
vt 0.730700 0.327800
vt 0.730700 0.403400
vt 0.708700 0.403400
vt 0.708700 0.327800
vt 0.741700 0.327800
vt 0.741700 0.403400
vt 0.697700 0.327800
vt 0.697700 0.403400
vt 0.687500 0.403400
vt 0.687500 0.327800
vt 0.719700 0.327800
vt 0.719700 0.403400
vt 0.741700 0.327800
vt 0.741700 0.403400
vt 0.687500 0.403400
vt 0.687500 0.327800
vt 0.730700 0.327400
vt 0.730700 0.383100
vt 0.708700 0.383100
vt 0.708700 0.327400
vt 0.741700 0.327400
vt 0.741700 0.383100
vt 0.697700 0.327400
vt 0.697700 0.383100
vt 0.687500 0.383100
vt 0.687500 0.327400
vt 0.719700 0.327400
vt 0.719700 0.383100
vt 0.741700 0.327400
vt 0.741700 0.383100
vt 0.687500 0.383100
vt 0.687500 0.327400
vt 0.730700 0.327800
vt 0.730700 0.403400
vt 0.708700 0.403400
vt 0.708700 0.327800
vt 0.741700 0.327800
vt 0.741700 0.403400
vt 0.697700 0.327800
vt 0.697700 0.403400
vt 0.687500 0.403400
vt 0.687500 0.327800
vt 0.719700 0.327800
vt 0.719700 0.403400
vt 0.741700 0.327800
vt 0.741700 0.403400
vt 0.687500 0.403400
vt 0.687500 0.327800
vt 0.730700 0.327400
vt 0.730700 0.383100
vt 0.708700 0.383100
vt 0.708700 0.327400
vt 0.741700 0.327400
vt 0.741700 0.383100
vt 0.697700 0.327400
vt 0.697700 0.383100
vt 0.687500 0.383100
vt 0.687500 0.327400
vt 0.719700 0.327400
vt 0.719700 0.383100
vt 0.741700 0.327400
vt 0.741700 0.383100
vt 0.687500 0.383100
vt 0.687500 0.327400
vt 0.717100 0.383100
vt 0.711600 0.383100
vt 0.717100 0.383100
vt 0.711600 0.383100
vt 0.717100 0.383100
vt 0.711600 0.383100
vt 0.717100 0.403400
vt 0.711600 0.403400
vt 0.717100 0.403400
vt 0.711600 0.403400
vt 0.717100 0.403400
vt 0.711600 0.403400
vt 0.717100 0.383100
vt 0.711600 0.383100
vn 0.9929 -0.1188 -0.0038
vn 0.7075 -0.0871 -0.7013
vn 0.4937 0.7160 -0.4937
vn 0.6981 0.7160 -0.0000
vn 0.0064 -0.0271 -0.9996
vn -0.0000 0.7160 -0.6981
vn -0.7042 0.0107 -0.7099
vn -0.4937 0.7160 -0.4937
vn -0.9997 0.0233 -0.0016
vn -0.6981 0.7160 0.0000
vn -0.7062 0.0156 0.7078
vn -0.4937 0.7160 0.4937
vn 0.0054 -0.0182 0.9998
vn 0.0000 0.7160 0.6981
vn 0.7108 -0.0790 0.6989
vn 0.4937 0.7160 0.4937
vn -0.0000 1.0000 0.0000
vn 0.9777 -0.2097 -0.0083
vn 0.6989 -0.1437 -0.7007
vn 0.0016 -0.0125 -0.9999
vn -0.6977 0.1352 -0.7035
vn -0.9749 0.2224 -0.0099
vn -0.7057 0.1420 0.6941
vn 0.0017 -0.0117 0.9999
vn 0.7061 -0.1486 0.6924
vn 0.9944 -0.1054 0.0041
vn 0.7029 -0.0788 -0.7069
vn -0.0104 -0.0419 -0.9991
vn -0.7179 0.0039 -0.6962
vn -1.0000 -0.0004 0.0078
vn -0.7100 -0.0837 0.6992
vn -0.0142 -0.1384 0.9903
vn 0.6932 -0.1306 0.7088
vn 0.9062 -0.4219 0.0289
vn 0.6429 -0.4214 -0.6396
vn -0.0240 -0.4390 -0.8981
vn -0.6479 -0.4788 -0.5924
vn -0.8480 -0.5291 0.0313
vn -0.5961 -0.5423 0.5921
vn -0.0363 -0.4989 0.8659
vn 0.6007 -0.4463 0.6634
vn 0.8718 -0.4899 0.0005
vn 0.6137 -0.4894 -0.6196
vn -0.0069 -0.4822 -0.8760
vn -0.6281 -0.4711 -0.6193
vn -0.8868 -0.4622 0.0017
vn -0.6302 -0.4622 0.6239
vn -0.0077 -0.4713 0.8819
vn 0.6151 -0.4831 0.6232
vn -0.0039 -1.0000 -0.0000
vn 0.8682 0.4158 -0.2708
vn 0.9603 0.2731 -0.0574
vn 0.9316 0.3303 -0.1521
vn 0.9294 0.3581 -0.0895
vn 0.6490 0.3550 0.6729
vn -0.0829 0.3838 0.9197
vn 0.1739 0.2214 0.9596
vn 0.2418 0.3157 0.9175
vn 0.8347 0.5171 0.1895
vn 0.8026 0.5109 0.3081
vn 0.3470 0.4694 0.8119
vn 0.6246 0.4402 0.6450
vn 0.5358 0.7225 0.4369
vn 0.5132 0.6815 0.5218
vn 0.6639 0.7110 0.2316
vn 0.2851 0.7852 0.5497
vn 0.6317 0.6945 0.3446
vn 0.6416 0.7580 0.1173
vn 0.7413 0.6669 0.0758
vn 0.0642 0.7408 0.6686
vn 0.4661 0.7640 0.4461
vn 0.1500 0.9091 0.3887
vn 0.8169 0.3433 -0.4635
vn 0.9322 0.3253 -0.1588
vn 0.6547 0.4097 0.6352
vn 0.1133 0.3845 0.9162
vn -0.4531 0.3350 0.8261
vn -0.4734 0.3417 0.8119
vn 0.7662 0.3679 0.5268
vn 0.6667 0.5029 0.5500
vn -0.8682 -0.4158 0.2708
vn -0.9316 -0.3303 0.1521
vn -0.9603 -0.2731 0.0574
vn -0.9294 -0.3581 0.0895
vn -0.6490 -0.3550 -0.6729
vn -0.1739 -0.2214 -0.9596
vn 0.0828 -0.3838 -0.9197
vn -0.2418 -0.3157 -0.9175
vn -0.8026 -0.5109 -0.3081
vn -0.8347 -0.5171 -0.1895
vn -0.6246 -0.4402 -0.6450
vn -0.3470 -0.4694 -0.8119
vn -0.5358 -0.7225 -0.4369
vn -0.6639 -0.7110 -0.2316
vn -0.5132 -0.6815 -0.5218
vn -0.2851 -0.7852 -0.5497
vn -0.6317 -0.6945 -0.3446
vn -0.6416 -0.7580 -0.1173
vn -0.7413 -0.6669 -0.0757
vn -0.4661 -0.7640 -0.4461
vn -0.0642 -0.7408 -0.6686
vn -0.1500 -0.9091 -0.3887
vn -0.8169 -0.3433 0.4635
vn -0.6547 -0.4097 -0.6352
vn -0.9322 -0.3253 0.1588
vn -0.1133 -0.3845 -0.9162
vn 0.4734 -0.3417 -0.8119
vn 0.4531 -0.3350 -0.8261
vn -0.7662 -0.3679 -0.5268
vn -0.6667 -0.5029 -0.5500
vn 0.7867 0.5971 0.1570
vn 0.7888 0.5818 0.1982
vn 0.5714 0.6696 0.4745
vn 0.8511 0.5220 0.0562
vn 0.5303 0.6592 0.5331
vn 0.3077 0.5378 0.7849
vn 0.2859 0.5421 0.7901
vn 0.5030 0.4971 0.7070
vn 0.4533 0.5720 0.6836
vn 0.5702 0.7825 0.2500
vn 0.3007 0.7882 0.5370
vn 0.1671 0.7126 0.6814
vn 0.4603 0.7210 0.5180
vn 0.1715 0.9106 0.3761
vn 0.2947 0.9111 0.2881
vn 0.3649 0.9249 0.1068
vn -0.0148 0.8965 0.4427
vn 0.1939 0.9181 0.3456
vn 0.3734 0.9253 -0.0660
vn 0.4542 0.8837 -0.1126
vn -0.1529 0.8843 0.4411
vn 0.1560 0.9672 0.2006
vn -0.1783 0.8748 0.4505
vn 0.8037 0.5949 0.0121
vn 0.7397 0.6512 0.1694
vn 0.4480 0.6762 0.5848
vn 0.2350 0.6448 0.7274
vn 0.6068 0.4689 0.6418
vn 0.3932 0.7522 0.5287
vn 0.4318 0.7336 0.5248
vn -0.7867 -0.5971 -0.1571
vn -0.5714 -0.6696 -0.4745
vn -0.7888 -0.5818 -0.1982
vn -0.8511 -0.5220 -0.0562
vn -0.5303 -0.6592 -0.5331
vn -0.2859 -0.5421 -0.7901
vn -0.3077 -0.5378 -0.7849
vn -0.4533 -0.5720 -0.6836
vn -0.5030 -0.4971 -0.7070
vn -0.3007 -0.7882 -0.5370
vn -0.5702 -0.7825 -0.2500
vn -0.4603 -0.7210 -0.5180
vn -0.1671 -0.7126 -0.6814
vn -0.1715 -0.9106 -0.3761
vn -0.3649 -0.9249 -0.1068
vn -0.2947 -0.9111 -0.2881
vn 0.0148 -0.8965 -0.4427
vn -0.1939 -0.9181 -0.3456
vn -0.3734 -0.9253 0.0660
vn -0.4542 -0.8837 0.1126
vn -0.1560 -0.9672 -0.2006
vn 0.1529 -0.8843 -0.4411
vn 0.1783 -0.8748 -0.4505
vn -0.8037 -0.5949 -0.0121
vn -0.4480 -0.6762 -0.5848
vn -0.7397 -0.6512 -0.1694
vn -0.2350 -0.6448 -0.7274
vn -0.6068 -0.4689 -0.6418
vn -0.3932 -0.7523 -0.5287
vn -0.4318 -0.7336 -0.5248
vn -0.7451 0.5167 0.4216
vn -0.7390 0.5285 0.4178
vn -0.8227 0.5650 0.0631
vn -0.6592 0.4286 0.6179
vn -0.8244 0.5647 0.0394
vn -0.6552 0.3226 -0.6831
vn -0.8241 0.4863 -0.2904
vn -0.6458 0.5313 -0.5484
vn -0.7920 0.5944 0.1395
vn -0.6189 0.7268 0.2979
vn -0.7029 0.7106 -0.0304
vn -0.6834 0.7082 -0.1774
vn -0.7457 0.6663 0.0051
vn -0.5133 0.8574 -0.0379
vn -0.4865 0.8735 0.0168
vn -0.4057 0.8714 0.2757
vn -0.3494 0.9261 -0.1424
vn -0.3826 0.8846 0.2667
vn -0.2699 0.8838 0.3823
vn -0.2729 0.8375 0.4733
vn -0.3391 0.8691 -0.3601
vn -0.3684 0.9281 0.0530
vn -0.1279 0.9798 -0.1535
vn -0.4015 0.4932 0.7717
vn -0.5825 0.4084 0.7028
vn -0.8711 0.4881 0.0541
vn -0.7848 0.4089 -0.4657
vn -0.4150 0.5046 -0.7571
vn -0.8930 0.4320 0.1258
vn -0.6156 0.7344 0.2860
vn 0.7451 -0.5167 -0.4216
vn 0.8227 -0.5650 -0.0631
vn 0.7390 -0.5285 -0.4178
vn 0.6592 -0.4286 -0.6179
vn 0.8244 -0.5647 -0.0394
vn 0.8241 -0.4863 0.2904
vn 0.6552 -0.3226 0.6831
vn 0.7920 -0.5944 -0.1395
vn 0.6458 -0.5313 0.5484
vn 0.7029 -0.7106 0.0304
vn 0.6189 -0.7268 -0.2979
vn 0.7457 -0.6663 -0.0051
vn 0.6834 -0.7082 0.1774
vn 0.5133 -0.8574 0.0379
vn 0.4058 -0.8714 -0.2757
vn 0.4865 -0.8735 -0.0168
vn 0.3494 -0.9261 0.1425
vn 0.3826 -0.8846 -0.2667
vn 0.2699 -0.8838 -0.3823
vn 0.2729 -0.8376 -0.4733
vn 0.3684 -0.9281 -0.0530
vn 0.3391 -0.8691 0.3601
vn 0.1279 -0.9798 0.1535
vn 0.4015 -0.4932 -0.7718
vn 0.8711 -0.4881 -0.0541
vn 0.5825 -0.4084 -0.7028
vn 0.7848 -0.4089 0.4657
vn 0.4150 -0.5046 0.7571
vn 0.8930 -0.4320 -0.1258
vn 0.6156 -0.7344 -0.2860
vn -0.0077 0.5741 -0.8187
vn 0.6042 0.5275 -0.5972
vn 0.6368 0.6454 -0.4218
vn 0.1329 0.4758 -0.8695
vn 0.8354 0.5310 -0.1420
vn 0.8693 0.3813 0.3144
vn 0.8738 0.4812 0.0701
vn 0.8838 0.3255 0.3362
vn 0.7761 0.5517 -0.3055
vn 0.6315 0.6600 -0.4069
vn 0.7833 0.6217 -0.0005
vn 0.7267 0.6870 0.0041
vn 0.7840 0.5875 -0.2005
vn 0.6050 0.7956 0.0324
vn 0.4738 0.8720 -0.1233
vn 0.4030 0.8681 -0.2900
vn 0.3981 0.9158 -0.0532
vn 0.2491 0.8410 -0.4803
vn 0.1886 0.8866 -0.4223
vn 0.1686 0.8375 -0.5197
vn 0.4065 0.8691 0.2817
vn 0.3493 0.9281 -0.1285
vn 0.1478 0.9843 0.0968
vn -0.2176 0.4657 -0.8577
vn 0.2248 0.5360 -0.8138
vn 0.7859 0.5722 -0.2345
vn 0.8797 0.4692 -0.0771
vn 0.9070 0.3912 -0.1562
vn 0.7650 0.5566 -0.3240
vn 0.5692 0.7126 -0.4102
vn 0.0077 -0.5741 0.8187
vn -0.6369 -0.6454 0.4218
vn -0.6042 -0.5275 0.5972
vn -0.1329 -0.4758 0.8695
vn -0.8354 -0.5310 0.1420
vn -0.8738 -0.4812 -0.0701
vn -0.8693 -0.3813 -0.3145
vn -0.7761 -0.5517 0.3055
vn -0.8838 -0.3255 -0.3362
vn -0.7833 -0.6217 0.0005
vn -0.6315 -0.6600 0.4069
vn -0.7839 -0.5875 0.2005
vn -0.7267 -0.6870 -0.0041
vn -0.6050 -0.7956 -0.0324
vn -0.4030 -0.8681 0.2900
vn -0.4738 -0.8720 0.1232
vn -0.3981 -0.9158 0.0532
vn -0.2491 -0.8410 0.4803
vn -0.1887 -0.8866 0.4223
vn -0.1686 -0.8375 0.5197
vn -0.3493 -0.9281 0.1285
vn -0.4065 -0.8691 -0.2817
vn -0.1478 -0.9843 -0.0968
vn 0.2176 -0.4657 0.8577
vn -0.7859 -0.5722 0.2345
vn -0.2248 -0.5360 0.8138
vn -0.8797 -0.4692 0.0771
vn -0.9070 -0.3911 0.1562
vn -0.7650 -0.5566 0.3240
vn -0.5692 -0.7126 0.4102
vn -0.6219 0.4697 -0.6266
vn -0.5460 0.3074 -0.7793
vn -0.5291 0.3652 -0.7659
vn -0.6011 0.3472 -0.7198
vn 0.0695 0.4097 -0.9096
vn 0.7197 0.4544 -0.5249
vn 0.5438 0.3152 -0.7778
vn 0.4500 0.4271 -0.7843
vn -0.3997 0.5456 -0.7365
vn -0.2542 0.5478 -0.7971
vn 0.3203 0.5468 -0.7736
vn 0.0560 0.5416 -0.8388
vn -0.0514 0.7622 -0.6453
vn 0.0272 0.7311 -0.6817
vn -0.2932 0.7362 -0.6099
vn 0.1885 0.8344 -0.5179
vn -0.2106 0.7135 -0.6682
vn -0.3691 0.7726 -0.5166
vn -0.4592 0.6791 -0.5726
vn 0.4240 0.7984 -0.4274
vn -0.0056 0.8061 -0.5918
vn 0.1446 0.9419 -0.3033
vn -0.8444 0.3740 -0.3834
vn -0.7269 0.2891 -0.6229
vn 0.0549 0.3963 -0.9165
vn 0.6302 0.4092 -0.6598
vn 0.9180 0.3758 -0.1265
vn 0.8940 0.4252 -0.1412
vn -0.0976 0.3484 -0.9322
vn -0.1985 0.5588 -0.8052
vn 0.6219 -0.4697 0.6266
vn 0.5291 -0.3652 0.7659
vn 0.5460 -0.3074 0.7793
vn 0.6011 -0.3472 0.7198
vn -0.0695 -0.4097 0.9096
vn -0.5438 -0.3152 0.7778
vn -0.7197 -0.4544 0.5249
vn -0.4500 -0.4271 0.7843
vn 0.2542 -0.5478 0.7971
vn 0.3997 -0.5456 0.7365
vn -0.0560 -0.5416 0.8388
vn -0.3203 -0.5468 0.7736
vn 0.0514 -0.7622 0.6453
vn 0.2932 -0.7362 0.6099
vn -0.0272 -0.7311 0.6817
vn -0.1885 -0.8344 0.5179
vn 0.2106 -0.7135 0.6682
vn 0.3691 -0.7726 0.5166
vn 0.4592 -0.6791 0.5726
vn 0.0055 -0.8061 0.5918
vn -0.4240 -0.7984 0.4274
vn -0.1446 -0.9419 0.3033
vn 0.8445 -0.3740 0.3834
vn -0.0549 -0.3963 0.9165
vn 0.7269 -0.2891 0.6229
vn -0.6302 -0.4092 0.6598
vn -0.8940 -0.4252 0.1412
vn -0.9181 -0.3758 0.1265
vn 0.0976 -0.3484 0.9322
vn 0.1985 -0.5588 0.8052
vn -0.7683 0.5890 -0.2506
vn -0.7323 0.5842 -0.3500
vn -0.5035 0.6683 -0.5476
vn -0.8086 0.5289 -0.2578
vn -0.4932 0.6485 -0.5798
vn -0.2951 0.5569 -0.7764
vn -0.2691 0.5617 -0.7824
vn -0.3533 0.5309 -0.7703
vn -0.3786 0.5845 -0.7177
vn -0.4981 0.7994 -0.3360
vn -0.2458 0.7882 -0.5643
vn -0.1344 0.7415 -0.6574
vn -0.3739 0.7610 -0.5301
vn -0.1332 0.9106 -0.3913
vn -0.2411 0.9261 -0.2904
vn -0.3525 0.9249 -0.1426
vn 0.0588 0.8965 -0.4391
vn -0.1586 0.9181 -0.3631
vn -0.3781 0.9253 0.0286
vn -0.4631 0.8838 0.0669
vn 0.1960 0.8843 -0.4237
vn -0.1353 0.9672 -0.2151
vn 0.2222 0.8748 -0.4305
vn -0.8032 0.5875 -0.0988
vn -0.7240 0.5581 -0.4055
vn -0.4579 0.6102 -0.6465
vn -0.3027 0.5221 -0.7973
vn -0.3603 0.5223 -0.7729
vn -0.4215 0.5353 -0.7319
vn -0.3775 0.7336 -0.5651
vn 0.7683 -0.5890 0.2506
vn 0.5035 -0.6683 0.5476
vn 0.7323 -0.5842 0.3500
vn 0.8086 -0.5289 0.2578
vn 0.4932 -0.6485 0.5798
vn 0.2691 -0.5617 0.7824
vn 0.2951 -0.5569 0.7764
vn 0.3786 -0.5845 0.7177
vn 0.3533 -0.5309 0.7703
vn 0.2458 -0.7882 0.5643
vn 0.4981 -0.7994 0.3360
vn 0.3739 -0.7610 0.5302
vn 0.1344 -0.7415 0.6574
vn 0.1332 -0.9106 0.3913
vn 0.3525 -0.9249 0.1426
vn 0.2411 -0.9261 0.2904
vn -0.0588 -0.8965 0.4390
vn 0.1586 -0.9181 0.3631
vn 0.3781 -0.9253 -0.0286
vn 0.4632 -0.8837 -0.0669
vn 0.1353 -0.9672 0.2151
vn -0.1960 -0.8843 0.4237
vn -0.2222 -0.8748 0.4305
vn 0.8032 -0.5875 0.0988
vn 0.4579 -0.6102 0.6465
vn 0.7240 -0.5581 0.4055
vn 0.3027 -0.5221 0.7973
vn 0.3603 -0.5223 0.7729
vn 0.4215 -0.5353 0.7319
vn 0.3775 -0.7336 0.5652
vn -0.8574 0.0834 0.5078
vn -0.7371 0.4572 0.4976
vn -0.7314 0.4847 -0.4797
vn -0.8633 0.0947 -0.4957
vn -0.2498 0.0077 0.9683
vn -0.1644 0.3572 0.9194
vn 0.5083 -0.0795 0.8575
vn 0.5347 0.2350 0.8117
vn 0.9876 -0.1258 -0.0940
vn 0.9764 0.1960 -0.0911
vn 0.1823 -0.0222 -0.9830
vn 0.2531 0.3413 -0.9053
vn 0.7844 -0.0063 0.6202
vn 0.7335 0.3770 0.5656
vn -0.1811 0.4078 0.8950
vn -0.1938 0.0104 0.9810
vn 0.9927 -0.0200 -0.1191
vn 0.9203 0.3739 -0.1147
vn 0.6154 -0.0258 -0.7878
vn 0.5744 0.3682 -0.7311
vn -0.4283 -0.0157 -0.9035
vn -0.3926 0.3961 -0.8300
vn -0.9919 0.0065 0.1270
vn -0.9003 0.4219 0.1072
vn 0.7756 0.1664 0.6089
vn 0.7077 0.4458 0.5481
vn -0.2178 0.4241 0.8790
vn -0.1361 0.0861 0.9869
vn 0.9887 0.1141 -0.0968
vn 0.8983 0.4212 -0.1255
vn 0.6546 -0.0069 -0.7559
vn 0.5529 0.3579 -0.7524
vn -0.3896 -0.1655 -0.9060
vn -0.4238 0.3183 -0.8480
vn -0.9776 -0.1215 0.1717
vn -0.9324 0.3511 0.0854
vn -0.5468 0.1043 -0.8307
vn -0.4861 0.3490 -0.8012
vn 0.5235 0.3113 -0.7931
vn 0.4690 -0.0288 -0.8827
vn -0.9653 0.1308 -0.2262
vn -0.9085 0.3625 -0.2079
vn -0.8610 0.0819 0.5020
vn -0.7898 0.3370 0.5125
vn 0.0376 -0.0619 0.9974
vn 0.1205 0.2971 0.9472
vn 0.9652 -0.1478 0.2158
vn 0.9338 0.2826 0.2193
vn 0.2786 0.0743 -0.9575
vn 0.3050 0.3517 -0.8850
vn 0.9430 0.3133 -0.1124
vn 0.9770 -0.0669 -0.2025
vn -0.4542 0.1262 -0.8819
vn -0.4178 0.3793 -0.8256
vn -0.9390 0.1046 -0.3277
vn -0.8878 0.3677 -0.2766
vn -0.7423 -0.0223 0.6697
vn -0.6380 0.3323 0.6946
vn 0.4412 -0.1435 0.8858
vn 0.4371 0.3022 0.8471
vn 0.9851 0.1512 -0.0824
vn 0.8835 0.4481 -0.1368
vn 0.4653 0.4900 0.7372
vn 0.5686 0.1891 0.8006
vn 0.6473 0.0092 -0.7622
vn 0.5493 0.3843 -0.7420
vn -0.0751 -0.1418 -0.9870
vn -0.1379 0.3142 -0.9393
vn -0.9276 -0.2041 -0.3129
vn -0.8907 0.3161 -0.3267
vn -0.5525 0.0016 0.8335
vn -0.6001 0.4091 0.6874
vn -0.4488 -0.0063 -0.8936
vn -0.4335 0.3319 -0.8378
vn 0.5528 0.3673 -0.7480
vn 0.5903 0.0104 -0.8071
vn -0.9500 -0.0200 -0.3115
vn -0.8996 0.3259 -0.2906
vn -0.8906 -0.0258 0.4540
vn -0.8444 0.3229 0.4274
vn 0.0064 -0.0157 0.9999
vn 0.0058 0.3554 0.9347
vn 0.9526 0.0065 0.3041
vn 0.8775 0.3832 0.2885
vn -0.0309 0.9977 -0.0607
vn -0.0649 0.9977 -0.0211
vn 0.0662 0.9978 -0.0082
vn 0.0409 0.9978 -0.0523
vn 0.0669 0.9977 -0.0082
vn -0.0656 0.9977 -0.0151
vn 0.2215 0.9728 0.0680
s 1
f 1/1/1 2/2/2 3/3/3
f 3/3/3 4/4/4 1/1/1
f 2/2/2 5/5/5 6/6/6
f 6/6/6 3/3/3 2/2/2
f 5/5/5 7/7/7 8/8/8
f 8/8/8 6/6/6 5/5/5
f 7/7/7 9/9/9 10/10/10
f 10/10/10 8/8/8 7/7/7
f 9/9/9 11/11/11 12/12/12
f 12/12/12 10/10/10 9/9/9
f 11/11/11 13/13/13 14/14/14
f 14/14/14 12/12/12 11/11/11
f 13/15/13 15/16/15 16/17/16
f 16/17/16 14/18/14 13/15/13
f 15/16/15 1/1/1 4/4/4
f 4/4/4 16/17/16 15/16/15
f 4/4/4 3/3/3 17/19/17
f 3/3/3 6/6/6 17/19/17
f 6/6/6 8/8/8 17/20/17
f 8/8/8 10/10/10 17/20/17
f 10/10/10 12/12/12 17/20/17
f 12/12/12 14/14/14 17/20/17
f 14/18/14 16/17/16 17/19/17
f 16/17/16 4/4/4 17/19/17
f 2/2/2 1/1/1 18/21/18
f 18/21/18 19/22/19 2/2/2
f 5/5/5 2/2/2 19/22/19
f 19/22/19 20/23/20 5/5/5
f 7/7/7 5/5/5 20/23/20
f 20/23/20 21/24/21 7/7/7
f 9/9/9 7/7/7 21/24/21
f 21/24/21 22/25/22 9/9/9
f 11/11/11 9/9/9 22/25/22
f 22/25/22 23/26/23 11/11/11
f 13/13/13 11/11/11 23/26/23
f 23/26/23 24/27/24 13/13/13
f 15/16/15 13/15/13 24/28/24
f 24/28/24 25/29/25 15/16/15
f 1/1/1 15/16/15 25/29/25
f 25/29/25 18/21/18 1/1/1
f 19/22/19 18/21/18 26/30/26
f 26/30/26 27/31/27 19/22/19
f 20/23/20 19/22/19 27/31/27
f 27/31/27 28/32/28 20/23/20
f 21/24/21 20/23/20 28/32/28
f 28/32/28 29/33/29 21/24/21
f 22/25/22 21/24/21 29/33/29
f 29/33/29 30/34/30 22/25/22
f 23/26/23 22/25/22 30/34/30
f 30/34/30 31/35/31 23/26/23
f 24/27/24 23/26/23 31/35/31
f 31/35/31 32/36/32 24/27/24
f 25/29/25 24/28/24 32/37/32
f 32/37/32 33/38/33 25/29/25
f 18/21/18 25/29/25 33/38/33
f 33/38/33 26/30/26 18/21/18
f 27/31/27 26/30/26 34/39/34
f 34/39/34 35/40/35 27/31/27
f 28/32/28 27/31/27 35/40/35
f 35/40/35 36/41/36 28/32/28
f 29/33/29 28/32/28 36/41/36
f 36/41/36 37/42/37 29/33/29
f 30/34/30 29/33/29 37/42/37
f 37/42/37 38/43/38 30/34/30
f 31/35/31 30/34/30 38/43/38
f 38/43/38 39/44/39 31/35/31
f 32/36/32 31/35/31 39/44/39
f 39/44/39 40/45/40 32/36/32
f 33/38/33 32/37/32 40/46/40
f 40/46/40 41/47/41 33/38/33
f 26/30/26 33/38/33 41/47/41
f 41/47/41 34/39/34 26/30/26
f 35/40/35 34/39/34 42/48/42
f 42/48/42 43/49/43 35/40/35
f 36/41/36 35/40/35 43/49/43
f 43/49/43 44/50/44 36/41/36
f 37/42/37 36/41/36 44/50/44
f 44/50/44 45/51/45 37/42/37
f 38/43/38 37/42/37 45/51/45
f 45/51/45 46/52/46 38/43/38
f 39/44/39 38/43/38 46/52/46
f 46/52/46 47/53/47 39/44/39
f 40/45/40 39/44/39 47/53/47
f 47/53/47 48/54/48 40/45/40
f 41/47/41 40/46/40 48/55/48
f 48/55/48 49/56/49 41/47/41
f 34/39/34 41/47/41 49/56/49
f 49/56/49 42/48/42 34/39/34
f 43/49/43 42/48/42 50/57/50
f 44/50/44 43/49/43 50/57/50
f 45/51/45 44/50/44 50/58/50
f 46/52/46 45/51/45 50/58/50
f 47/53/47 46/52/46 50/58/50
f 48/54/48 47/53/47 50/58/50
f 49/56/49 48/55/48 50/57/50
f 42/48/42 49/56/49 50/57/50
s 2
f 51/59/51 52/60/52 53/61/53
f 54/62/54 55/63/55 52/60/52
f 55/63/55 56/64/56 57/65/57
f 57/65/57 56/64/56 58/66/58
f 53/61/53 59/67/59 60/68/60
f 52/60/52 55/63/55 59/67/59
f 55/63/55 61/69/61 62/70/62
f 57/65/57 58/66/58 61/69/61
f 60/68/60 59/67/59 63/71/63
f 59/67/59 64/72/64 65/73/65
f 62/70/62 61/69/61 64/72/64
f 66/74/66 61/69/61 67/75/67
f 68/76/68 65/73/65 69/77/69
f 65/73/65 64/72/64 69/77/69
f 64/72/64 70/78/70 71/79/71
f 70/78/70 66/74/66 72/80/72
f 51/59/51 73/81/73 54/62/54
f 54/62/54 74/82/74 75/83/75
f 75/83/75 76/84/76 56/64/56
f 56/64/56 77/85/77 78/86/78
f 66/74/66 67/75/67 72/80/72
f 68/76/68 63/71/63 65/73/65
f 56/64/56 76/84/76 77/85/77
f 73/81/73 74/82/74 54/62/54
f 74/82/74 79/87/79 75/83/75
f 75/83/75 79/87/79 76/84/76
f 61/69/61 80/88/80 67/75/67
f 51/59/51 54/62/54 52/60/52
f 54/62/54 75/83/75 55/63/55
f 55/63/55 75/83/75 56/64/56
f 59/67/59 62/70/62 64/72/64
f 61/69/61 66/74/66 64/72/64
f 64/72/64 71/79/71 69/77/69
f 64/72/64 66/74/66 70/78/70
f 55/63/55 62/70/62 59/67/59
f 55/63/55 57/65/57 61/69/61
f 58/66/58 80/88/80 61/69/61
f 53/61/53 52/60/52 59/67/59
f 59/67/59 65/73/65 63/71/63
f 56/64/56 78/86/78 58/66/58
s 3
f 81/89/81 82/90/82 83/91/83
f 84/92/84 83/91/83 85/93/85
f 85/93/85 86/94/86 87/95/87
f 86/94/86 88/96/88 87/95/87
f 82/90/82 89/97/89 90/98/90
f 83/91/83 90/98/90 85/93/85
f 85/93/85 91/99/91 92/100/92
f 86/94/86 92/100/92 88/96/88
f 89/97/89 93/101/93 90/98/90
f 90/98/90 94/102/94 95/103/95
f 91/99/91 95/103/95 92/100/92
f 96/104/96 97/105/97 92/100/92
f 98/106/98 99/107/99 94/102/94
f 94/102/94 99/107/99 95/103/95
f 95/103/95 100/108/100 101/109/101
f 101/109/101 102/110/102 96/104/96
f 81/89/81 84/92/84 103/111/103
f 84/92/84 104/112/104 105/113/105
f 104/112/104 87/95/87 106/114/106
f 87/95/87 107/115/107 108/116/108
f 96/104/96 102/110/102 97/105/97
f 98/106/98 94/102/94 93/101/93
f 87/95/87 108/116/108 106/114/106
f 103/111/103 84/92/84 105/113/105
f 105/113/105 104/112/104 109/117/109
f 104/112/104 106/114/106 109/117/109
f 92/100/92 97/105/97 110/118/110
f 81/89/81 83/91/83 84/92/84
f 84/92/84 85/93/85 104/112/104
f 85/93/85 87/95/87 104/112/104
f 90/98/90 95/103/95 91/99/91
f 92/100/92 95/103/95 96/104/96
f 95/103/95 99/107/99 100/108/100
f 95/103/95 101/109/101 96/104/96
f 85/93/85 90/98/90 91/99/91
f 85/93/85 92/100/92 86/94/86
f 88/96/88 92/100/92 110/118/110
f 82/90/82 90/98/90 83/91/83
f 90/98/90 93/101/93 94/102/94
f 87/95/87 88/96/88 107/115/107
s 4
f 111/119/111 112/120/112 113/121/113
f 114/122/114 115/123/115 112/120/112
f 115/123/115 116/124/116 117/125/117
f 117/125/117 118/126/118 119/127/119
f 113/121/113 120/128/120 121/129/121
f 112/120/112 115/123/115 120/128/120
f 115/123/115 122/130/122 123/131/123
f 117/125/117 119/127/119 122/130/122
f 121/129/121 120/128/120 124/132/124
f 120/128/120 125/133/125 126/134/126
f 123/131/123 122/130/122 125/133/125
f 127/135/127 122/130/122 128/136/128
f 129/137/129 126/134/126 130/138/130
f 126/134/126 125/133/125 130/138/130
f 125/133/125 131/139/131 132/140/132
f 131/139/131 127/135/127 133/141/133
f 111/119/111 134/142/134 114/122/114
f 114/122/114 135/143/135 136/144/136
f 136/144/136 137/145/137 116/124/116
f 116/124/116 138/146/138 118/126/118
f 127/135/127 128/136/128 133/141/133
f 129/137/129 124/132/124 126/134/126
f 116/124/116 137/145/137 138/146/138
f 134/142/134 135/143/135 114/122/114
f 135/143/135 139/147/139 136/144/136
f 136/144/136 139/147/139 137/145/137
f 122/130/122 140/148/140 128/136/128
f 111/119/111 114/122/114 112/120/112
f 114/122/114 136/144/136 115/123/115
f 115/123/115 136/144/136 116/124/116
f 117/125/117 116/124/116 118/126/118
f 120/128/120 123/131/123 125/133/125
f 122/130/122 127/135/127 125/133/125
f 125/133/125 132/140/132 130/138/130
f 125/133/125 127/135/127 131/139/131
f 115/123/115 123/131/123 120/128/120
f 115/123/115 117/125/117 122/130/122
f 119/127/119 140/148/140 122/130/122
f 113/121/113 112/120/112 120/128/120
f 120/128/120 126/134/126 124/132/124
s 5
f 141/149/141 142/150/142 143/151/143
f 144/152/144 143/151/143 145/153/145
f 145/153/145 146/154/146 147/155/147
f 146/154/146 148/156/148 149/157/149
f 142/150/142 150/158/150 151/159/151
f 143/151/143 151/159/151 145/153/145
f 145/153/145 152/160/152 153/161/153
f 146/154/146 153/161/153 148/156/148
f 150/158/150 154/162/154 151/159/151
f 151/159/151 155/163/155 156/164/156
f 152/160/152 156/164/156 153/161/153
f 157/165/157 158/166/158 153/161/153
f 159/167/159 160/168/160 155/163/155
f 155/163/155 160/168/160 156/164/156
f 156/164/156 161/169/161 162/170/162
f 162/170/162 163/171/163 157/165/157
f 141/149/141 144/152/144 164/172/164
f 144/152/144 165/173/165 166/174/166
f 165/173/165 147/155/147 167/175/167
f 147/155/147 149/157/149 168/176/168
f 157/165/157 163/171/163 158/166/158
f 159/167/159 155/163/155 154/162/154
f 147/155/147 168/176/168 167/175/167
f 164/172/164 144/152/144 166/174/166
f 166/174/166 165/173/165 169/177/169
f 165/173/165 167/175/167 169/177/169
f 153/161/153 158/166/158 170/178/170
f 141/149/141 143/151/143 144/152/144
f 144/152/144 145/153/145 165/173/165
f 145/153/145 147/155/147 165/173/165
f 146/154/146 149/157/149 147/155/147
f 151/159/151 156/164/156 152/160/152
f 153/161/153 156/164/156 157/165/157
f 156/164/156 160/168/160 161/169/161
f 156/164/156 162/170/162 157/165/157
f 145/153/145 151/159/151 152/160/152
f 145/153/145 153/161/153 146/154/146
f 148/156/148 153/161/153 170/178/170
f 142/150/142 151/159/151 143/151/143
f 151/159/151 154/162/154 155/163/155
s 6
f 171/179/171 172/180/172 173/181/173
f 174/182/174 175/183/175 172/180/172
f 175/183/175 176/184/176 177/185/177
f 177/185/177 178/186/178 179/187/179
f 173/181/173 180/188/180 181/189/181
f 172/180/172 175/183/175 180/188/180
f 175/183/175 182/190/182 183/191/183
f 177/185/177 179/187/179 182/190/182
f 181/189/181 180/188/180 184/192/184
f 180/188/180 185/193/185 186/194/186
f 183/191/183 182/190/182 185/193/185
f 187/195/187 182/190/182 188/196/188
f 189/197/189 186/194/186 190/198/190
f 186/194/186 185/193/185 190/198/190
f 185/193/185 191/199/191 192/200/192
f 191/199/191 187/195/187 193/201/193
f 171/179/171 194/202/194 174/182/174
f 174/182/174 195/203/195 196/204/196
f 196/204/196 197/205/197 176/184/176
f 176/184/176 198/206/198 178/186/178
f 187/195/187 188/196/188 193/201/193
f 189/197/189 184/192/184 186/194/186
f 176/184/176 197/205/197 198/206/198
f 194/202/194 195/203/195 174/182/174
f 195/203/195 199/207/199 196/204/196
f 196/204/196 199/207/199 197/205/197
f 182/190/182 200/208/200 188/196/188
f 171/179/171 174/182/174 172/180/172
f 174/182/174 196/204/196 175/183/175
f 175/183/175 196/204/196 176/184/176
f 177/185/177 176/184/176 178/186/178
f 180/188/180 183/191/183 185/193/185
f 182/190/182 187/195/187 185/193/185
f 185/193/185 192/200/192 190/198/190
f 185/193/185 187/195/187 191/199/191
f 175/183/175 183/191/183 180/188/180
f 175/183/175 177/185/177 182/190/182
f 179/187/179 200/208/200 182/190/182
f 173/181/173 172/180/172 180/188/180
f 180/188/180 186/194/186 184/192/184
s 7
f 201/209/201 202/210/202 203/211/203
f 204/212/204 203/211/203 205/213/205
f 205/213/205 206/214/206 207/215/207
f 206/214/206 208/216/208 209/217/209
f 202/210/202 210/218/210 211/219/211
f 203/211/203 211/219/211 205/213/205
f 205/213/205 212/220/212 213/221/213
f 206/214/206 213/221/213 208/216/208
f 210/218/210 214/222/214 211/219/211
f 211/219/211 215/223/215 216/224/216
f 212/220/212 216/224/216 213/221/213
f 217/225/217 218/226/218 213/221/213
f 219/227/219 220/228/220 215/223/215
f 215/223/215 220/228/220 216/224/216
f 216/224/216 221/229/221 222/230/222
f 222/230/222 223/231/223 217/225/217
f 201/209/201 204/212/204 224/232/224
f 204/212/204 225/233/225 226/234/226
f 225/233/225 207/215/207 227/235/227
f 207/215/207 209/217/209 228/236/228
f 217/225/217 223/231/223 218/226/218
f 219/227/219 215/223/215 214/222/214
f 207/215/207 228/236/228 227/235/227
f 224/232/224 204/212/204 226/234/226
f 226/234/226 225/233/225 229/237/229
f 225/233/225 227/235/227 229/237/229
f 213/221/213 218/226/218 230/238/230
f 201/209/201 203/211/203 204/212/204
f 204/212/204 205/213/205 225/233/225
f 205/213/205 207/215/207 225/233/225
f 206/214/206 209/217/209 207/215/207
f 211/219/211 216/224/216 212/220/212
f 213/221/213 216/224/216 217/225/217
f 216/224/216 220/228/220 221/229/221
f 216/224/216 222/230/222 217/225/217
f 205/213/205 211/219/211 212/220/212
f 205/213/205 213/221/213 206/214/206
f 208/216/208 213/221/213 230/238/230
f 202/210/202 211/219/211 203/211/203
f 211/219/211 214/222/214 215/223/215
s 8
f 231/239/231 232/240/232 233/241/233
f 234/242/234 235/243/235 232/240/232
f 235/243/235 236/244/236 237/245/237
f 237/245/237 238/246/238 239/247/239
f 233/241/233 240/248/240 241/249/241
f 232/240/232 235/243/235 240/248/240
f 235/243/235 242/250/242 243/251/243
f 237/245/237 239/247/239 242/250/242
f 241/249/241 240/248/240 244/252/244
f 240/248/240 245/253/245 246/254/246
f 243/251/243 242/250/242 245/253/245
f 247/255/247 242/250/242 248/256/248
f 249/257/249 246/254/246 250/258/250
f 246/254/246 245/253/245 250/258/250
f 245/253/245 251/259/251 252/260/252
f 251/259/251 247/255/247 253/261/253
f 231/239/231 254/262/254 234/242/234
f 234/242/234 255/263/255 256/264/256
f 256/264/256 257/265/257 236/244/236
f 236/244/236 258/266/258 238/246/238
f 247/255/247 248/256/248 253/261/253
f 249/257/249 244/252/244 246/254/246
f 236/244/236 257/265/257 258/266/258
f 254/262/254 255/263/255 234/242/234
f 255/263/255 259/267/259 256/264/256
f 256/264/256 259/267/259 257/265/257
f 242/250/242 260/268/260 248/256/248
f 231/239/231 234/242/234 232/240/232
f 234/242/234 256/264/256 235/243/235
f 235/243/235 256/264/256 236/244/236
f 237/245/237 236/244/236 238/246/238
f 240/248/240 243/251/243 245/253/245
f 242/250/242 247/255/247 245/253/245
f 245/253/245 252/260/252 250/258/250
f 245/253/245 247/255/247 251/259/251
f 235/243/235 243/251/243 240/248/240
f 235/243/235 237/245/237 242/250/242
f 239/247/239 260/268/260 242/250/242
f 233/241/233 232/240/232 240/248/240
f 240/248/240 246/254/246 244/252/244
s 9
f 261/269/261 262/270/262 263/271/263
f 264/272/264 263/271/263 265/273/265
f 265/273/265 266/274/266 267/275/267
f 266/274/266 268/276/268 269/277/269
f 262/270/262 270/278/270 271/279/271
f 263/271/263 271/279/271 265/273/265
f 265/273/265 272/280/272 273/281/273
f 266/274/266 273/281/273 268/276/268
f 270/278/270 274/282/274 271/279/271
f 271/279/271 275/283/275 276/284/276
f 272/280/272 276/284/276 273/281/273
f 277/285/277 278/286/278 273/281/273
f 279/287/279 280/288/280 275/283/275
f 275/283/275 280/288/280 276/284/276
f 276/284/276 281/289/281 282/290/282
f 282/290/282 283/291/283 277/285/277
f 261/269/261 264/272/264 284/292/284
f 264/272/264 285/293/285 286/294/286
f 285/293/285 267/275/267 287/295/287
f 267/275/267 269/277/269 288/296/288
f 277/285/277 283/291/283 278/286/278
f 279/287/279 275/283/275 274/282/274
f 267/275/267 288/296/288 287/295/287
f 284/292/284 264/272/264 286/294/286
f 286/294/286 285/293/285 289/297/289
f 285/293/285 287/295/287 289/297/289
f 273/281/273 278/286/278 290/298/290
f 261/269/261 263/271/263 264/272/264
f 264/272/264 265/273/265 285/293/285
f 265/273/265 267/275/267 285/293/285
f 266/274/266 269/277/269 267/275/267
f 271/279/271 276/284/276 272/280/272
f 273/281/273 276/284/276 277/285/277
f 276/284/276 280/288/280 281/289/281
f 276/284/276 282/290/282 277/285/277
f 265/273/265 271/279/271 272/280/272
f 265/273/265 273/281/273 266/274/266
f 268/276/268 273/281/273 290/298/290
f 262/270/262 271/279/271 263/271/263
f 271/279/271 274/282/274 275/283/275
s 10
f 291/299/291 292/300/292 293/301/293
f 294/302/294 295/303/295 292/300/292
f 295/303/295 296/304/296 297/305/297
f 297/305/297 296/304/296 298/306/298
f 293/301/293 299/307/299 300/308/300
f 292/300/292 295/303/295 299/307/299
f 295/303/295 301/309/301 302/310/302
f 297/305/297 298/306/298 301/309/301
f 300/308/300 299/307/299 303/311/303
f 299/307/299 304/312/304 305/313/305
f 302/310/302 301/309/301 304/312/304
f 306/314/306 301/309/301 307/315/307
f 308/316/308 305/313/305 309/317/309
f 305/313/305 304/312/304 309/317/309
f 304/312/304 310/318/310 311/319/311
f 310/318/310 306/314/306 312/320/312
f 291/299/291 313/321/313 294/302/294
f 294/302/294 314/322/314 315/323/315
f 315/323/315 316/324/316 296/304/296
f 296/304/296 317/325/317 318/326/318
f 306/314/306 307/315/307 312/320/312
f 308/316/308 303/311/303 305/313/305
f 296/304/296 316/324/316 317/325/317
f 313/321/313 314/322/314 294/302/294
f 314/322/314 319/327/319 315/323/315
f 315/323/315 319/327/319 316/324/316
f 301/309/301 320/328/320 307/315/307
f 291/299/291 294/302/294 292/300/292
f 294/302/294 315/323/315 295/303/295
f 295/303/295 315/323/315 296/304/296
f 299/307/299 302/310/302 304/312/304
f 301/309/301 306/314/306 304/312/304
f 304/312/304 311/319/311 309/317/309
f 304/312/304 306/314/306 310/318/310
f 295/303/295 302/310/302 299/307/299
f 295/303/295 297/305/297 301/309/301
f 298/306/298 320/328/320 301/309/301
f 293/301/293 292/300/292 299/307/299
f 299/307/299 305/313/305 303/311/303
f 296/304/296 318/326/318 298/306/298
s 11
f 321/329/321 322/330/322 323/331/323
f 324/332/324 323/331/323 325/333/325
f 325/333/325 326/334/326 327/335/327
f 326/334/326 328/336/328 327/335/327
f 322/330/322 329/337/329 330/338/330
f 323/331/323 330/338/330 325/333/325
f 325/333/325 331/339/331 332/340/332
f 326/334/326 332/340/332 328/336/328
f 329/337/329 333/341/333 330/338/330
f 330/338/330 334/342/334 335/343/335
f 331/339/331 335/343/335 332/340/332
f 336/344/336 337/345/337 332/340/332
f 338/346/338 339/347/339 334/342/334
f 334/342/334 339/347/339 335/343/335
f 335/343/335 340/348/340 341/349/341
f 341/349/341 342/350/342 336/344/336
f 321/329/321 324/332/324 343/351/343
f 324/332/324 344/352/344 345/353/345
f 344/352/344 327/335/327 346/354/346
f 327/335/327 347/355/347 348/356/348
f 336/344/336 342/350/342 337/345/337
f 338/346/338 334/342/334 333/341/333
f 327/335/327 348/356/348 346/354/346
f 343/351/343 324/332/324 345/353/345
f 345/353/345 344/352/344 349/357/349
f 344/352/344 346/354/346 349/357/349
f 332/340/332 337/345/337 350/358/350
f 321/329/321 323/331/323 324/332/324
f 324/332/324 325/333/325 344/352/344
f 325/333/325 327/335/327 344/352/344
f 330/338/330 335/343/335 331/339/331
f 332/340/332 335/343/335 336/344/336
f 335/343/335 339/347/339 340/348/340
f 335/343/335 341/349/341 336/344/336
f 325/333/325 330/338/330 331/339/331
f 325/333/325 332/340/332 326/334/326
f 328/336/328 332/340/332 350/358/350
f 322/330/322 330/338/330 323/331/323
f 330/338/330 333/341/333 334/342/334
f 327/335/327 328/336/328 347/355/347
s 12
f 351/359/351 352/360/352 353/361/353
f 354/362/354 355/363/355 352/360/352
f 355/363/355 356/364/356 357/365/357
f 357/365/357 358/366/358 359/367/359
f 353/361/353 360/368/360 361/369/361
f 352/360/352 355/363/355 360/368/360
f 355/363/355 362/370/362 363/371/363
f 357/365/357 359/367/359 362/370/362
f 361/369/361 360/368/360 364/372/364
f 360/368/360 365/373/365 366/374/366
f 363/371/363 362/370/362 365/373/365
f 367/375/367 362/370/362 368/376/368
f 369/377/369 366/374/366 370/378/370
f 366/374/366 365/373/365 370/378/370
f 365/373/365 371/379/371 372/380/372
f 371/379/371 367/375/367 373/381/373
f 351/359/351 374/382/374 354/362/354
f 354/362/354 375/383/375 376/384/376
f 376/384/376 377/385/377 356/364/356
f 356/364/356 378/386/378 358/366/358
f 367/375/367 368/376/368 373/381/373
f 369/377/369 364/372/364 366/374/366
f 356/364/356 377/385/377 378/386/378
f 374/382/374 375/383/375 354/362/354
f 375/383/375 379/387/379 376/384/376
f 376/384/376 379/387/379 377/385/377
f 362/370/362 380/388/380 368/376/368
f 351/359/351 354/362/354 352/360/352
f 354/362/354 376/384/376 355/363/355
f 355/363/355 376/384/376 356/364/356
f 357/365/357 356/364/356 358/366/358
f 360/368/360 363/371/363 365/373/365
f 362/370/362 367/375/367 365/373/365
f 365/373/365 372/380/372 370/378/370
f 365/373/365 367/375/367 371/379/371
f 355/363/355 363/371/363 360/368/360
f 355/363/355 357/365/357 362/370/362
f 359/367/359 380/388/380 362/370/362
f 353/361/353 352/360/352 360/368/360
f 360/368/360 366/374/366 364/372/364
s 13
f 381/389/381 382/390/382 383/391/383
f 384/392/384 383/391/383 385/393/385
f 385/393/385 386/394/386 387/395/387
f 386/394/386 388/396/388 389/397/389
f 382/390/382 390/398/390 391/399/391
f 383/391/383 391/399/391 385/393/385
f 385/393/385 392/400/392 393/401/393
f 386/394/386 393/401/393 388/396/388
f 390/398/390 394/402/394 391/399/391
f 391/399/391 395/403/395 396/404/396
f 392/400/392 396/404/396 393/401/393
f 397/405/397 398/406/398 393/401/393
f 399/407/399 400/408/400 395/403/395
f 395/403/395 400/408/400 396/404/396
f 396/404/396 401/409/401 402/410/402
f 402/410/402 403/411/403 397/405/397
f 381/389/381 384/392/384 404/412/404
f 384/392/384 405/413/405 406/414/406
f 405/413/405 387/395/387 407/415/407
f 387/395/387 389/397/389 408/416/408
f 397/405/397 403/411/403 398/406/398
f 399/407/399 395/403/395 394/402/394
f 387/395/387 408/416/408 407/415/407
f 404/412/404 384/392/384 406/414/406
f 406/414/406 405/413/405 409/417/409
f 405/413/405 407/415/407 409/417/409
f 393/401/393 398/406/398 410/418/410
f 381/389/381 383/391/383 384/392/384
f 384/392/384 385/393/385 405/413/405
f 385/393/385 387/395/387 405/413/405
f 386/394/386 389/397/389 387/395/387
f 391/399/391 396/404/396 392/400/392
f 393/401/393 396/404/396 397/405/397
f 396/404/396 400/408/400 401/409/401
f 396/404/396 402/410/402 397/405/397
f 385/393/385 391/399/391 392/400/392
f 385/393/385 393/401/393 386/394/386
f 388/396/388 393/401/393 410/418/410
f 382/390/382 391/399/391 383/391/383
f 391/399/391 394/402/394 395/403/395
s 14
f 411/419/411 412/420/412 413/421/413
f 413/421/413 414/422/414 411/419/411
f 415/423/415 416/424/416 412/420/412
f 412/420/412 411/419/411 415/423/415
f 417/425/417 418/426/418 416/427/416
f 416/427/416 415/428/415 417/425/417
f 419/429/419 420/430/420 418/426/418
f 418/426/418 417/425/417 419/429/419
f 421/431/421 422/432/422 420/430/420
f 420/430/420 419/429/419 421/431/421
f 414/422/414 413/421/413 422/433/422
f 422/433/422 421/434/421 414/422/414
s 15
f 423/435/423 424/436/424 425/437/425
f 425/437/425 426/438/426 423/435/423
f 427/439/427 428/440/428 424/436/424
f 424/436/424 423/435/423 427/439/427
f 429/441/429 430/442/430 428/443/428
f 428/443/428 427/444/427 429/441/429
f 431/445/431 432/446/432 430/442/430
f 430/442/430 429/441/429 431/445/431
f 433/447/433 434/448/434 432/446/432
f 432/446/432 431/445/431 433/447/433
f 426/438/426 425/437/425 434/449/434
f 434/449/434 433/450/433 426/438/426
s 16
f 435/451/435 436/452/436 437/453/437
f 437/453/437 438/454/438 435/451/435
f 439/455/439 440/456/440 436/452/436
f 436/452/436 435/451/435 439/455/439
f 441/457/441 442/458/442 440/459/440
f 440/459/440 439/460/439 441/457/441
f 443/461/443 444/462/444 442/458/442
f 442/458/442 441/457/441 443/461/443
f 445/463/445 446/464/446 444/462/444
f 444/462/444 443/461/443 445/463/445
f 438/454/438 437/453/437 446/465/446
f 446/465/446 445/466/445 438/454/438
s 17
f 447/467/447 448/468/448 449/469/449
f 449/469/449 450/470/450 447/467/447
f 451/471/451 452/472/452 448/468/448
f 448/468/448 447/467/447 451/471/451
f 453/473/453 454/474/454 452/475/452
f 452/475/452 451/476/451 453/473/453
f 455/477/455 456/478/456 454/474/454
f 454/474/454 453/473/453 455/477/455
f 457/479/457 458/480/458 456/478/456
f 456/478/456 455/477/455 457/479/457
f 450/470/450 449/469/449 458/481/458
f 458/481/458 457/482/457 450/470/450
s 18
f 459/483/459 460/484/460 461/485/461
f 461/485/461 462/486/462 459/483/459
f 463/487/463 464/488/464 460/484/460
f 460/484/460 459/483/459 463/487/463
f 465/489/465 466/490/466 464/491/464
f 464/491/464 463/492/463 465/489/465
f 467/493/467 468/494/468 466/490/466
f 466/490/466 465/489/465 467/493/467
f 469/495/469 470/496/470 468/494/468
f 468/494/468 467/493/467 469/495/469
f 462/486/462 461/485/461 470/497/470
f 470/497/470 469/498/469 462/486/462
s 19
f 471/499/471 472/500/472 473/501/473
f 473/501/473 474/502/474 471/499/471
f 475/503/475 476/504/476 472/500/472
f 472/500/472 471/499/471 475/503/475
f 477/505/477 478/506/478 476/507/476
f 476/507/476 475/508/475 477/505/477
f 479/509/479 480/510/480 478/506/478
f 478/506/478 477/505/477 479/509/479
f 481/511/481 482/512/482 480/510/480
f 480/510/480 479/509/479 481/511/481
f 474/502/474 473/501/473 482/513/482
f 482/513/482 481/514/481 474/502/474
s 20
f 483/515/483 484/516/484 485/517/485
f 485/517/485 486/518/486 483/515/483
f 487/519/487 488/520/488 484/516/484
f 484/516/484 483/515/483 487/519/487
f 489/521/489 490/522/490 488/523/488
f 488/523/488 487/524/487 489/521/489
f 491/525/491 492/526/492 490/522/490
f 490/522/490 489/521/489 491/525/491
f 493/527/493 494/528/494 492/526/492
f 492/526/492 491/525/491 493/527/493
f 486/518/486 485/517/485 494/529/494
f 494/529/494 493/530/493 486/518/486
s 18
f 461/485/461 460/484/460 495/531/495
f 460/484/460 464/488/464 495/531/495
f 464/491/464 466/490/466 495/532/495
f 466/490/466 468/494/468 495/532/495
f 468/494/468 470/496/470 495/532/495
f 470/497/470 461/485/461 495/531/495
s 20
f 485/517/485 484/516/484 496/533/496
f 484/516/484 488/520/488 496/533/496
f 488/523/488 490/522/490 496/534/496
f 490/522/490 492/526/492 496/534/496
f 492/526/492 494/528/494 496/534/496
f 494/529/494 485/517/485 496/533/496
s 15
f 425/437/425 424/436/424 497/535/497
f 424/436/424 428/440/428 497/535/497
f 428/443/428 430/442/430 497/536/497
f 430/442/430 432/446/432 497/536/497
f 432/446/432 434/448/434 497/536/497
f 434/449/434 425/437/425 497/535/497
s 19
f 473/501/473 472/500/472 498/537/498
f 472/500/472 476/504/476 498/537/498
f 476/507/476 478/506/478 498/538/498
f 478/506/478 480/510/480 498/538/498
f 480/510/480 482/512/482 498/538/498
f 482/513/482 473/501/473 498/537/498
s 16
f 437/453/437 436/452/436 499/539/499
f 436/452/436 440/456/440 499/539/499
f 440/459/440 442/458/442 499/540/499
f 442/458/442 444/462/444 499/540/499
f 444/462/444 446/464/446 499/540/499
f 446/465/446 437/453/437 499/539/499
s 17
f 449/469/449 448/468/448 500/541/500
f 448/468/448 452/472/452 500/541/500
f 452/475/452 454/474/454 500/542/500
f 454/474/454 456/478/456 500/542/500
f 456/478/456 458/480/458 500/542/500
f 458/481/458 449/469/449 500/541/500
s 14
f 413/421/413 412/420/412 501/543/501
f 412/420/412 416/424/416 501/543/501
f 416/427/416 418/426/418 501/544/501
f 418/426/418 420/430/420 501/544/501
f 420/430/420 422/432/422 501/544/501
f 422/433/422 413/421/413 501/543/501
