# Blender v3.3.0 OBJ File: ''
# www.blender.org
o ItemHades.005
v 0.065622 0.034818 0.000000
v 0.046402 0.034818 -0.046402
v 0.043799 0.043432 -0.043799
v 0.061941 0.043432 0.000000
v 0.000000 0.034818 -0.065622
v 0.000000 0.043432 -0.061941
v -0.046402 0.034818 -0.046402
v -0.043799 0.043432 -0.043799
v -0.065622 0.034818 0.000000
v -0.061941 0.043432 0.000000
v -0.046402 0.034818 0.046402
v -0.043799 0.043432 0.043799
v 0.000000 0.034818 0.065622
v 0.000000 0.043432 0.061941
v 0.046402 0.034818 0.046402
v 0.043799 0.043432 0.043799
v 0.000000 0.057506 0.000000
v 0.059112 0.026705 0.000000
v 0.041798 0.025285 -0.041939
v 0.000000 0.021857 -0.059310
v -0.041798 0.018429 -0.041939
v -0.059112 0.017009 0.000000
v -0.041798 0.018428 0.041939
v 0.000000 0.021857 0.059310
v 0.041798 0.025285 0.041939
v 0.064693 0.009550 0.000000
v 0.045745 0.009729 -0.045748
v 0.000000 0.010160 -0.064697
v -0.045745 0.010592 -0.045748
v -0.064693 0.010771 0.000000
v -0.045745 0.010592 0.045748
v 0.000000 0.010160 0.064697
v 0.045745 0.009729 0.045748
v 0.049487 -0.016241 0.000425
v 0.034992 -0.017523 -0.034778
v 0.000000 -0.014963 -0.049609
v -0.034992 -0.010060 -0.035379
v -0.049487 -0.005687 -0.000425
v -0.034992 -0.004405 0.034778
v 0.000000 -0.006965 0.049609
v 0.034992 -0.011868 0.035379
v 0.029502 -0.073761 -0.000000
v 0.020861 -0.073679 -0.020862
v 0.000000 -0.073482 -0.029503
v -0.020861 -0.073285 -0.020862
v -0.029502 -0.073204 -0.000000
v -0.020861 -0.073285 0.020862
v 0.000000 -0.073482 0.029503
v 0.020861 -0.073679 0.020862
v 0.000000 -0.106587 -0.000000
v -0.004563 0.078777 0.057914
v -0.101084 0.164284 0.054581
v -0.083402 0.151747 0.094164
v -0.042848 0.096007 0.052297
v -0.109847 0.156444 -0.005525
v -0.031502 0.095652 -0.032861
v -0.063330 0.188651 -0.051914
v 0.000237 0.079643 -0.048152
v -0.049105 0.182882 -0.104744
v -0.151124 0.272383 0.051229
v -0.168612 0.252245 0.113567
v -0.133755 0.291230 -0.056569
v -0.153048 0.230209 -0.008350
v -0.233282 0.319522 0.094577
v -0.237057 0.305545 -0.013524
v -0.228456 0.334542 0.046865
v -0.214779 0.354365 -0.073668
v -0.216562 0.336977 -0.118076
v -0.293848 0.359044 0.036671
v -0.337965 0.355273 -0.012855
v -0.333493 0.355660 -0.056443
v -0.356954 0.354583 -0.037796
v -0.283057 0.361842 -0.085853
v 0.015576 0.039015 0.037621
v -0.008363 0.030913 0.028287
v -0.052607 0.084091 -0.002141
v -0.019676 0.025951 -0.017856
v 0.001213 0.033046 -0.031931
v -0.022732 0.023266 0.001479
v -0.116919 0.266270 -0.141974
v -0.007410 0.074954 0.057914
v -0.086249 0.147924 0.094164
v -0.103930 0.160462 0.054581
v -0.045694 0.092184 0.052297
v -0.112694 0.152622 -0.005525
v -0.066177 0.184829 -0.051914
v -0.034349 0.091830 -0.032861
v -0.051951 0.179059 -0.104744
v -0.002610 0.075821 -0.048152
v -0.171459 0.248423 0.113567
v -0.153971 0.268561 0.051229
v -0.155895 0.226386 -0.008350
v -0.136601 0.287408 -0.056569
v -0.236129 0.315699 0.094577
v -0.231303 0.330719 0.046865
v -0.239904 0.301723 -0.013524
v -0.217626 0.350542 -0.073668
v -0.219409 0.333154 -0.118076
v -0.296695 0.355222 0.036671
v -0.340812 0.351451 -0.012855
v -0.359801 0.350761 -0.037796
v -0.336340 0.351837 -0.056443
v -0.285904 0.358020 -0.085853
v 0.012729 0.035192 0.037621
v -0.055454 0.080268 -0.002141
v -0.011210 0.027090 0.028287
v -0.022523 0.022128 -0.017856
v -0.001634 0.029223 -0.031931
v -0.025578 0.019444 0.001479
v -0.119765 0.262447 -0.141974
v -0.002729 0.063662 -0.070746
v 0.044013 0.119813 -0.053555
v 0.042487 0.119464 -0.114739
v 0.028452 0.074313 -0.039426
v 0.079667 0.119480 0.004895
v 0.021773 0.081404 0.044796
v 0.053145 0.135512 0.060256
v 0.001900 0.070297 0.077591
v 0.038392 0.134639 0.103449
v 0.120331 0.206371 -0.060512
v 0.122736 0.189393 -0.126046
v 0.117688 0.215301 0.055073
v 0.133086 0.171581 0.004653
v 0.194518 0.234212 -0.095811
v 0.206878 0.222330 0.005523
v 0.201064 0.245844 -0.042236
v 0.194439 0.248755 0.053680
v 0.179750 0.251731 0.096042
v 0.255256 0.258517 -0.036440
v 0.291168 0.251215 0.001395
v 0.289128 0.252087 0.036067
v 0.306839 0.248815 0.020544
v 0.251092 0.262134 0.060952
v -0.008791 0.039325 -0.045844
v 0.005025 0.029863 -0.020005
v 0.029992 0.068020 0.004527
v -0.005187 0.026183 0.018439
v -0.005906 0.044894 0.055463
v 0.001036 0.023100 0.002573
v 0.095098 0.206282 0.118675
v -0.002729 0.058221 -0.068496
v 0.042487 0.114023 -0.112489
v 0.044013 0.114371 -0.051305
v 0.028452 0.068872 -0.037176
v 0.079667 0.114038 0.007145
v 0.053145 0.130071 0.062506
v 0.021773 0.075962 0.047046
v 0.038392 0.129198 0.105700
v 0.001900 0.064855 0.079841
v 0.122736 0.183951 -0.123796
v 0.120331 0.200929 -0.058262
v 0.133086 0.166140 0.006903
v 0.117688 0.209859 0.057323
v 0.194518 0.228771 -0.093561
v 0.201064 0.240402 -0.039986
v 0.206878 0.216889 0.007773
v 0.194439 0.243314 0.055930
v 0.179750 0.246289 0.098293
v 0.255256 0.253075 -0.034190
v 0.291168 0.245773 0.003645
v 0.306840 0.243373 0.022794
v 0.289128 0.246645 0.038317
v 0.251092 0.256693 0.063202
v -0.008791 0.033883 -0.043594
v 0.029992 0.062578 0.006777
v 0.005025 0.024422 -0.017755
v -0.005187 0.020742 0.020690
v -0.005906 0.039453 0.057713
v 0.001036 0.017658 0.004823
v 0.095098 0.200841 0.120925
vt 0.552700 0.075400
vt 0.508600 0.053900
vt 0.508600 0.049700
vt 0.551800 0.070000
vt 0.465800 0.027700
vt 0.465800 0.015700
vt 0.423600 0.054900
vt 0.423500 0.050400
vt 0.380100 0.076600
vt 0.380900 0.071200
vt 0.331900 0.076300
vt 0.335300 0.067100
vt 0.283000 0.063000
vt 0.296300 0.040100
vt 0.649600 0.058700
vt 0.601300 0.074600
vt 0.597600 0.065200
vt 0.635700 0.036800
vt 0.557600 0.003200
vt 0.373900 0.004400
vt 0.553900 0.079200
vt 0.509500 0.061700
vt 0.465900 0.046900
vt 0.425100 0.069000
vt 0.381100 0.089700
vt 0.332000 0.094000
vt 0.283300 0.094200
vt 0.650200 0.089800
vt 0.601900 0.085600
vt 0.552000 0.091400
vt 0.508600 0.075900
vt 0.466100 0.064100
vt 0.423700 0.075900
vt 0.380700 0.092000
vt 0.334800 0.103300
vt 0.288400 0.122200
vt 0.645500 0.118400
vt 0.598200 0.102100
vt 0.545600 0.111800
vt 0.505200 0.101000
vt 0.466400 0.096600
vt 0.427700 0.101100
vt 0.387500 0.112400
vt 0.348400 0.128400
vt 0.315400 0.152900
vt 0.619000 0.150300
vt 0.585100 0.127000
vt 0.519400 0.173600
vt 0.494500 0.169600
vt 0.467200 0.172900
vt 0.439900 0.169700
vt 0.414900 0.174100
vt 0.393400 0.184900
vt 0.378400 0.202800
vt 0.556800 0.201300
vt 0.541200 0.183900
vt 0.503800 0.216400
vt 0.431500 0.217100
vt 0.421900 0.236700
vt 0.397700 0.335100
vt 0.337600 0.306500
vt 0.447500 0.287100
vt 0.468000 0.384600
vt 0.554300 0.314200
vt 0.538300 0.406600
vt 0.586900 0.290700
vt 0.594300 0.407500
vt 0.353400 0.452200
vt 0.284400 0.417800
vt 0.508100 0.510500
vt 0.436600 0.469200
vt 0.284100 0.521900
vt 0.400200 0.570900
vt 0.339100 0.553700
vt 0.462200 0.599000
vt 0.514400 0.610100
vt 0.323600 0.615300
vt 0.355900 0.665100
vt 0.388300 0.678300
vt 0.367200 0.687000
vt 0.437700 0.661100
vt 0.468800 0.220900
vt 0.490400 0.240400
vt 0.495300 0.305800
vt 0.528700 0.250100
vt 0.569700 0.263200
vt 0.512800 0.246700
vt 0.587600 0.519800
vt 0.421900 0.236700
vt 0.337600 0.306500
vt 0.397700 0.335100
vt 0.447500 0.287100
vt 0.468000 0.384600
vt 0.538300 0.406600
vt 0.554300 0.314200
vt 0.594300 0.407500
vt 0.586900 0.290700
vt 0.284400 0.417800
vt 0.353400 0.452200
vt 0.436600 0.469200
vt 0.508100 0.510500
vt 0.284100 0.521900
vt 0.339100 0.553700
vt 0.400200 0.570900
vt 0.462200 0.599000
vt 0.514400 0.610100
vt 0.323600 0.615300
vt 0.355900 0.665100
vt 0.367200 0.687000
vt 0.388300 0.678300
vt 0.437700 0.661100
vt 0.468800 0.220900
vt 0.495300 0.305800
vt 0.490400 0.240400
vt 0.528700 0.250100
vt 0.569700 0.263200
vt 0.512800 0.246700
vt 0.587600 0.519800
vt 0.044900 0.057000
vt 0.073200 0.154300
vt 0.006800 0.159700
vt 0.092300 0.087900
vt 0.158800 0.162100
vt 0.198200 0.057900
vt 0.230700 0.146000
vt 0.214800 0.021300
vt 0.279600 0.118700
vt 0.093300 0.277900
vt 0.016300 0.282600
vt 0.256400 0.251100
vt 0.173900 0.251000
vt 0.068100 0.372900
vt 0.193200 0.357300
vt 0.131700 0.372900
vt 0.260900 0.350600
vt 0.311700 0.334200
vt 0.149100 0.434000
vt 0.202000 0.461100
vt 0.236600 0.456300
vt 0.222600 0.474300
vt 0.270800 0.416700
vt 0.077600 0.019900
vt 0.106100 0.026000
vt 0.143000 0.080100
vt 0.144000 0.015300
vt 0.186100 0.006100
vt 0.128600 0.020200
vt 0.329900 0.219300
vt 0.044900 0.057000
vt 0.006800 0.159700
vt 0.073200 0.154300
vt 0.092300 0.087900
vt 0.158800 0.162100
vt 0.230700 0.146000
vt 0.198200 0.057900
vt 0.279600 0.118700
vt 0.214800 0.021300
vt 0.016300 0.282600
vt 0.093300 0.277900
vt 0.173900 0.251000
vt 0.256400 0.251100
vt 0.068100 0.372900
vt 0.131700 0.372900
vt 0.193200 0.357300
vt 0.260900 0.350600
vt 0.311700 0.334200
vt 0.149100 0.434000
vt 0.202000 0.461100
vt 0.222600 0.474300
vt 0.236600 0.456300
vt 0.270800 0.416700
vt 0.077600 0.019900
vt 0.143000 0.080100
vt 0.106100 0.026000
vt 0.144000 0.015300
vt 0.186100 0.006100
vt 0.128600 0.020200
vt 0.329900 0.219300
vn 0.9929 -0.1188 -0.0038
vn 0.7075 -0.0871 -0.7013
vn 0.4937 0.7160 -0.4937
vn 0.6981 0.7160 -0.0000
vn 0.0064 -0.0271 -0.9996
vn -0.0000 0.7160 -0.6981
vn -0.7042 0.0107 -0.7099
vn -0.4937 0.7160 -0.4937
vn -0.9997 0.0233 -0.0016
vn -0.6981 0.7160 0.0000
vn -0.7062 0.0156 0.7078
vn -0.4937 0.7160 0.4937
vn 0.0054 -0.0182 0.9998
vn 0.0000 0.7160 0.6981
vn 0.7108 -0.0790 0.6989
vn 0.4937 0.7160 0.4937
vn -0.0000 1.0000 0.0000
vn 0.9777 -0.2097 -0.0083
vn 0.6989 -0.1437 -0.7007
vn 0.0016 -0.0125 -0.9999
vn -0.6977 0.1352 -0.7035
vn -0.9749 0.2224 -0.0099
vn -0.7057 0.1420 0.6941
vn 0.0017 -0.0117 0.9999
vn 0.7061 -0.1486 0.6924
vn 0.9944 -0.1054 0.0041
vn 0.7029 -0.0788 -0.7069
vn -0.0104 -0.0419 -0.9991
vn -0.7179 0.0039 -0.6962
vn -1.0000 -0.0004 0.0078
vn -0.7100 -0.0837 0.6992
vn -0.0142 -0.1384 0.9903
vn 0.6932 -0.1306 0.7088
vn 0.9062 -0.4219 0.0289
vn 0.6429 -0.4214 -0.6396
vn -0.0240 -0.4390 -0.8981
vn -0.6479 -0.4788 -0.5924
vn -0.8480 -0.5291 0.0313
vn -0.5961 -0.5423 0.5921
vn -0.0363 -0.4989 0.8659
vn 0.6007 -0.4463 0.6634
vn 0.8718 -0.4899 0.0005
vn 0.6137 -0.4894 -0.6196
vn -0.0069 -0.4822 -0.8760
vn -0.6281 -0.4711 -0.6193
vn -0.8868 -0.4622 0.0017
vn -0.6302 -0.4622 0.6239
vn -0.0077 -0.4713 0.8819
vn 0.6151 -0.4831 0.6232
vn -0.0039 -1.0000 -0.0000
vn 0.4027 0.5741 -0.7129
vn 0.8219 0.5275 -0.2151
vn 0.7624 0.6454 -0.0469
vn 0.5498 0.4758 -0.6865
vn 0.7945 0.5310 0.2947
vn 0.5930 0.3485 0.7259
vn 0.7217 0.4812 0.4976
vn 0.5989 0.3437 0.7233
vn 0.8248 0.5517 0.1234
vn 0.7504 0.6600 -0.0366
vn 0.6786 0.6217 0.3912
vn 0.6273 0.6870 0.3668
vn 0.7792 0.5875 0.2183
vn 0.5077 0.7956 0.3306
vn 0.4719 0.8720 0.1302
vn 0.4940 0.8681 -0.0496
vn 0.3714 0.9158 0.1530
vn 0.4559 0.8410 -0.2914
vn 0.3745 0.8866 -0.2714
vn 0.4058 0.8376 -0.3658
vn 0.2112 0.8691 0.4473
vn 0.3668 0.9281 0.0634
vn 0.0796 0.9843 0.1577
vn 0.2404 0.4657 -0.8516
vn 0.5629 0.4629 -0.6847
vn 0.8335 0.5271 0.1657
vn 0.7407 0.3612 0.5666
vn 0.4916 0.2692 0.8281
vn 0.8859 0.4240 -0.1880
vn 0.6980 0.7126 -0.0707
vn -0.4027 -0.5741 0.7129
vn -0.7624 -0.6454 0.0469
vn -0.8219 -0.5275 0.2151
vn -0.5498 -0.4758 0.6865
vn -0.7945 -0.5310 -0.2947
vn -0.7217 -0.4812 -0.4976
vn -0.5930 -0.3485 -0.7259
vn -0.8248 -0.5517 -0.1235
vn -0.5989 -0.3437 -0.7233
vn -0.6786 -0.6217 -0.3912
vn -0.7504 -0.6600 0.0366
vn -0.7792 -0.5875 -0.2183
vn -0.6273 -0.6870 -0.3668
vn -0.5077 -0.7956 -0.3306
vn -0.4940 -0.8681 0.0496
vn -0.4719 -0.8720 -0.1302
vn -0.3714 -0.9158 -0.1530
vn -0.4559 -0.8410 0.2914
vn -0.3745 -0.8866 0.2714
vn -0.4058 -0.8376 0.3658
vn -0.3668 -0.9281 -0.0634
vn -0.2112 -0.8691 -0.4473
vn -0.0796 -0.9843 -0.1577
vn -0.2404 -0.4657 0.8516
vn -0.8335 -0.5271 -0.1657
vn -0.5629 -0.4629 0.6847
vn -0.7407 -0.3612 -0.5665
vn -0.4916 -0.2692 -0.8281
vn -0.8859 -0.4240 0.1881
vn -0.6980 -0.7126 0.0707
vn -0.7205 0.5890 0.3661
vn -0.7653 0.5842 0.2704
vn -0.7432 0.6683 -0.0312
vn -0.7540 0.5289 0.3894
vn -0.7587 0.6485 -0.0612
vn -0.7576 0.5569 -0.3403
vn -0.7435 0.5617 -0.3630
vn -0.7945 0.5309 -0.2948
vn -0.7752 0.5845 -0.2398
vn -0.5898 0.7994 0.1146
vn -0.5728 0.7882 -0.2252
vn -0.5599 0.7415 -0.3698
vn -0.6392 0.7610 -0.1105
vn -0.3709 0.9106 -0.1825
vn -0.3758 0.9261 -0.0348
vn -0.3501 0.9249 0.1484
vn -0.2689 0.8965 -0.3520
vn -0.3689 0.9181 -0.1446
vn -0.2471 0.9253 0.2876
vn -0.2802 0.8837 0.3748
vn -0.1610 0.8843 -0.4382
vn -0.2478 0.9672 -0.0564
vn -0.1473 0.8748 -0.4615
vn -0.6378 0.5875 0.4981
vn -0.7986 0.5581 0.2252
vn -0.7810 0.6102 -0.1333
vn -0.7779 0.5221 -0.3497
vn -0.8013 0.5222 -0.2918
vn -0.8156 0.5353 -0.2195
vn -0.6665 0.7336 -0.1327
vn 0.7205 -0.5890 -0.3661
vn 0.7432 -0.6683 0.0312
vn 0.7653 -0.5842 -0.2704
vn 0.7540 -0.5289 -0.3894
vn 0.7587 -0.6485 0.0612
vn 0.7435 -0.5617 0.3630
vn 0.7576 -0.5569 0.3403
vn 0.7752 -0.5845 0.2398
vn 0.7945 -0.5309 0.2948
vn 0.5728 -0.7882 0.2252
vn 0.5898 -0.7994 -0.1146
vn 0.6392 -0.7610 0.1105
vn 0.5599 -0.7415 0.3698
vn 0.3709 -0.9106 0.1825
vn 0.3501 -0.9249 -0.1484
vn 0.3758 -0.9261 0.0348
vn 0.2689 -0.8965 0.3520
vn 0.3689 -0.9181 0.1446
vn 0.2471 -0.9253 -0.2876
vn 0.2802 -0.8837 -0.3748
vn 0.2478 -0.9672 0.0564
vn 0.1610 -0.8843 0.4382
vn 0.1473 -0.8748 0.4615
vn 0.6378 -0.5875 -0.4981
vn 0.7810 -0.6102 0.1333
vn 0.7986 -0.5581 -0.2252
vn 0.7779 -0.5221 0.3497
vn 0.8013 -0.5223 0.2918
vn 0.8156 -0.5353 0.2194
vn 0.6665 -0.7336 0.1327
s 1
f 1/1/1 2/2/2 3/3/3
f 3/3/3 4/4/4 1/1/1
f 2/2/2 5/5/5 6/6/6
f 6/6/6 3/3/3 2/2/2
f 5/5/5 7/7/7 8/8/8
f 8/8/8 6/6/6 5/5/5
f 7/7/7 9/9/9 10/10/10
f 10/10/10 8/8/8 7/7/7
f 9/9/9 11/11/11 12/12/12
f 12/12/12 10/10/10 9/9/9
f 11/11/11 13/13/13 14/14/14
f 14/14/14 12/12/12 11/11/11
f 13/15/13 15/16/15 16/17/16
f 16/17/16 14/18/14 13/15/13
f 15/16/15 1/1/1 4/4/4
f 4/4/4 16/17/16 15/16/15
f 4/4/4 3/3/3 17/19/17
f 3/3/3 6/6/6 17/19/17
f 6/6/6 8/8/8 17/20/17
f 8/8/8 10/10/10 17/20/17
f 10/10/10 12/12/12 17/20/17
f 12/12/12 14/14/14 17/20/17
f 14/18/14 16/17/16 17/19/17
f 16/17/16 4/4/4 17/19/17
f 2/2/2 1/1/1 18/21/18
f 18/21/18 19/22/19 2/2/2
f 5/5/5 2/2/2 19/22/19
f 19/22/19 20/23/20 5/5/5
f 7/7/7 5/5/5 20/23/20
f 20/23/20 21/24/21 7/7/7
f 9/9/9 7/7/7 21/24/21
f 21/24/21 22/25/22 9/9/9
f 11/11/11 9/9/9 22/25/22
f 22/25/22 23/26/23 11/11/11
f 13/13/13 11/11/11 23/26/23
f 23/26/23 24/27/24 13/13/13
f 15/16/15 13/15/13 24/28/24
f 24/28/24 25/29/25 15/16/15
f 1/1/1 15/16/15 25/29/25
f 25/29/25 18/21/18 1/1/1
f 19/22/19 18/21/18 26/30/26
f 26/30/26 27/31/27 19/22/19
f 20/23/20 19/22/19 27/31/27
f 27/31/27 28/32/28 20/23/20
f 21/24/21 20/23/20 28/32/28
f 28/32/28 29/33/29 21/24/21
f 22/25/22 21/24/21 29/33/29
f 29/33/29 30/34/30 22/25/22
f 23/26/23 22/25/22 30/34/30
f 30/34/30 31/35/31 23/26/23
f 24/27/24 23/26/23 31/35/31
f 31/35/31 32/36/32 24/27/24
f 25/29/25 24/28/24 32/37/32
f 32/37/32 33/38/33 25/29/25
f 18/21/18 25/29/25 33/38/33
f 33/38/33 26/30/26 18/21/18
f 27/31/27 26/30/26 34/39/34
f 34/39/34 35/40/35 27/31/27
f 28/32/28 27/31/27 35/40/35
f 35/40/35 36/41/36 28/32/28
f 29/33/29 28/32/28 36/41/36
f 36/41/36 37/42/37 29/33/29
f 30/34/30 29/33/29 37/42/37
f 37/42/37 38/43/38 30/34/30
f 31/35/31 30/34/30 38/43/38
f 38/43/38 39/44/39 31/35/31
f 32/36/32 31/35/31 39/44/39
f 39/44/39 40/45/40 32/36/32
f 33/38/33 32/37/32 40/46/40
f 40/46/40 41/47/41 33/38/33
f 26/30/26 33/38/33 41/47/41
f 41/47/41 34/39/34 26/30/26
f 35/40/35 34/39/34 42/48/42
f 42/48/42 43/49/43 35/40/35
f 36/41/36 35/40/35 43/49/43
f 43/49/43 44/50/44 36/41/36
f 37/42/37 36/41/36 44/50/44
f 44/50/44 45/51/45 37/42/37
f 38/43/38 37/42/37 45/51/45
f 45/51/45 46/52/46 38/43/38
f 39/44/39 38/43/38 46/52/46
f 46/52/46 47/53/47 39/44/39
f 40/45/40 39/44/39 47/53/47
f 47/53/47 48/54/48 40/45/40
f 41/47/41 40/46/40 48/55/48
f 48/55/48 49/56/49 41/47/41
f 34/39/34 41/47/41 49/56/49
f 49/56/49 42/48/42 34/39/34
f 43/49/43 42/48/42 50/57/50
f 44/50/44 43/49/43 50/57/50
f 45/51/45 44/50/44 50/58/50
f 46/52/46 45/51/45 50/58/50
f 47/53/47 46/52/46 50/58/50
f 48/54/48 47/53/47 50/58/50
f 49/56/49 48/55/48 50/57/50
f 42/48/42 49/56/49 50/57/50
s 2
f 51/59/51 52/60/52 53/61/53
f 54/62/54 55/63/55 52/60/52
f 55/63/55 56/64/56 57/65/57
f 57/65/57 58/66/58 59/67/59
f 53/61/53 60/68/60 61/69/61
f 52/60/52 55/63/55 60/68/60
f 55/63/55 62/70/62 63/71/63
f 57/65/57 59/67/59 62/70/62
f 61/69/61 60/68/60 64/72/64
f 60/68/60 65/73/65 66/74/66
f 63/71/63 62/70/62 65/73/65
f 67/75/67 62/70/62 68/76/68
f 69/77/69 66/74/66 70/78/70
f 66/74/66 65/73/65 70/78/70
f 65/73/65 71/79/71 72/80/72
f 71/79/71 67/75/67 73/81/73
f 51/59/51 74/82/74 54/62/54
f 54/62/54 75/83/75 76/84/76
f 76/84/76 77/85/77 56/64/56
f 56/64/56 78/86/78 58/66/58
f 67/75/67 68/76/68 73/81/73
f 69/77/69 64/72/64 66/74/66
f 56/64/56 77/85/77 78/86/78
f 74/82/74 75/83/75 54/62/54
f 75/83/75 79/87/79 76/84/76
f 76/84/76 79/87/79 77/85/77
f 62/70/62 80/88/80 68/76/68
f 51/59/51 54/62/54 52/60/52
f 54/62/54 76/84/76 55/63/55
f 55/63/55 76/84/76 56/64/56
f 57/65/57 56/64/56 58/66/58
f 60/68/60 63/71/63 65/73/65
f 62/70/62 67/75/67 65/73/65
f 65/73/65 72/80/72 70/78/70
f 65/73/65 67/75/67 71/79/71
f 55/63/55 63/71/63 60/68/60
f 55/63/55 57/65/57 62/70/62
f 59/67/59 80/88/80 62/70/62
f 53/61/53 52/60/52 60/68/60
f 60/68/60 66/74/66 64/72/64
s 3
f 81/89/81 82/90/82 83/91/83
f 84/92/84 83/91/83 85/93/85
f 85/93/85 86/94/86 87/95/87
f 86/94/86 88/96/88 89/97/89
f 82/90/82 90/98/90 91/99/91
f 83/91/83 91/99/91 85/93/85
f 85/93/85 92/100/92 93/101/93
f 86/94/86 93/101/93 88/96/88
f 90/98/90 94/102/94 91/99/91
f 91/99/91 95/103/95 96/104/96
f 92/100/92 96/104/96 93/101/93
f 97/105/97 98/106/98 93/101/93
f 99/107/99 100/108/100 95/103/95
f 95/103/95 100/108/100 96/104/96
f 96/104/96 101/109/101 102/110/102
f 102/110/102 103/111/103 97/105/97
f 81/89/81 84/92/84 104/112/104
f 84/92/84 105/113/105 106/114/106
f 105/113/105 87/95/87 107/115/107
f 87/95/87 89/97/89 108/116/108
f 97/105/97 103/111/103 98/106/98
f 99/107/99 95/103/95 94/102/94
f 87/95/87 108/116/108 107/115/107
f 104/112/104 84/92/84 106/114/106
f 106/114/106 105/113/105 109/117/109
f 105/113/105 107/115/107 109/117/109
f 93/101/93 98/106/98 110/118/110
f 81/89/81 83/91/83 84/92/84
f 84/92/84 85/93/85 105/113/105
f 85/93/85 87/95/87 105/113/105
f 86/94/86 89/97/89 87/95/87
f 91/99/91 96/104/96 92/100/92
f 93/101/93 96/104/96 97/105/97
f 96/104/96 100/108/100 101/109/101
f 96/104/96 102/110/102 97/105/97
f 85/93/85 91/99/91 92/100/92
f 85/93/85 93/101/93 86/94/86
f 88/96/88 93/101/93 110/118/110
f 82/90/82 91/99/91 83/91/83
f 91/99/91 94/102/94 95/103/95
s 4
f 111/119/111 112/120/112 113/121/113
f 114/122/114 115/123/115 112/120/112
f 115/123/115 116/124/116 117/125/117
f 117/125/117 118/126/118 119/127/119
f 113/121/113 120/128/120 121/129/121
f 112/120/112 115/123/115 120/128/120
f 115/123/115 122/130/122 123/131/123
f 117/125/117 119/127/119 122/130/122
f 121/129/121 120/128/120 124/132/124
f 120/128/120 125/133/125 126/134/126
f 123/131/123 122/130/122 125/133/125
f 127/135/127 122/130/122 128/136/128
f 129/137/129 126/134/126 130/138/130
f 126/134/126 125/133/125 130/138/130
f 125/133/125 131/139/131 132/140/132
f 131/139/131 127/135/127 133/141/133
f 111/119/111 134/142/134 114/122/114
f 114/122/114 135/143/135 136/144/136
f 136/144/136 137/145/137 116/124/116
f 116/124/116 138/146/138 118/126/118
f 127/135/127 128/136/128 133/141/133
f 129/137/129 124/132/124 126/134/126
f 116/124/116 137/145/137 138/146/138
f 134/142/134 135/143/135 114/122/114
f 135/143/135 139/147/139 136/144/136
f 136/144/136 139/147/139 137/145/137
f 122/130/122 140/148/140 128/136/128
f 111/119/111 114/122/114 112/120/112
f 114/122/114 136/144/136 115/123/115
f 115/123/115 136/144/136 116/124/116
f 117/125/117 116/124/116 118/126/118
f 120/128/120 123/131/123 125/133/125
f 122/130/122 127/135/127 125/133/125
f 125/133/125 132/140/132 130/138/130
f 125/133/125 127/135/127 131/139/131
f 115/123/115 123/131/123 120/128/120
f 115/123/115 117/125/117 122/130/122
f 119/127/119 140/148/140 122/130/122
f 113/121/113 112/120/112 120/128/120
f 120/128/120 126/134/126 124/132/124
s 5
f 141/149/141 142/150/142 143/151/143
f 144/152/144 143/151/143 145/153/145
f 145/153/145 146/154/146 147/155/147
f 146/154/146 148/156/148 149/157/149
f 142/150/142 150/158/150 151/159/151
f 143/151/143 151/159/151 145/153/145
f 145/153/145 152/160/152 153/161/153
f 146/154/146 153/161/153 148/156/148
f 150/158/150 154/162/154 151/159/151
f 151/159/151 155/163/155 156/164/156
f 152/160/152 156/164/156 153/161/153
f 157/165/157 158/166/158 153/161/153
f 159/167/159 160/168/160 155/163/155
f 155/163/155 160/168/160 156/164/156
f 156/164/156 161/169/161 162/170/162
f 162/170/162 163/171/163 157/165/157
f 141/149/141 144/152/144 164/172/164
f 144/152/144 165/173/165 166/174/166
f 165/173/165 147/155/147 167/175/167
f 147/155/147 149/157/149 168/176/168
f 157/165/157 163/171/163 158/166/158
f 159/167/159 155/163/155 154/162/154
f 147/155/147 168/176/168 167/175/167
f 164/172/164 144/152/144 166/174/166
f 166/174/166 165/173/165 169/177/169
f 165/173/165 167/175/167 169/177/169
f 153/161/153 158/166/158 170/178/170
f 141/149/141 143/151/143 144/152/144
f 144/152/144 145/153/145 165/173/165
f 145/153/145 147/155/147 165/173/165
f 146/154/146 149/157/149 147/155/147
f 151/159/151 156/164/156 152/160/152
f 153/161/153 156/164/156 157/165/157
f 156/164/156 160/168/160 161/169/161
f 156/164/156 162/170/162 157/165/157
f 145/153/145 151/159/151 152/160/152
f 145/153/145 153/161/153 146/154/146
f 148/156/148 153/161/153 170/178/170
f 142/150/142 151/159/151 143/151/143
f 151/159/151 154/162/154 155/163/155
