# Blender v3.3.0 OBJ File: ''
# www.blender.org
o ItemTomato.005
v 0.044219 0.048526 0.071701
v 0.058492 0.037138 0.086343
v 0.065464 0.024872 0.062171
v 0.049149 0.039853 0.054609
v 0.052148 0.008671 0.043636
v 0.039733 0.028397 0.041502
v 0.026343 -0.001974 0.041595
v 0.021487 0.020870 0.040059
v 0.003167 -0.000828 0.057243
v 0.005098 0.021680 0.051124
v -0.003806 0.011439 0.081415
v 0.000168 0.030354 0.068216
v 0.009511 0.027639 0.099950
v 0.009584 0.041810 0.081323
v 0.035315 0.038285 0.101991
v 0.027831 0.049337 0.082766
v 0.054365 0.020660 0.088769
v 0.059295 0.011986 0.071677
v 0.049879 0.000530 0.058570
v 0.031632 -0.006997 0.057127
v 0.015244 -0.006186 0.068192
v 0.010314 0.002487 0.085284
v 0.019730 0.013943 0.098391
v 0.037976 0.021470 0.099834
v 0.037360 0.000216 0.082780
v 0.023748 0.042183 0.056829
v 0.023435 0.042734 0.057915
v 0.023150 0.041454 0.055995
v 0.021989 0.040976 0.055903
v 0.020947 0.041027 0.056607
v 0.020634 0.041579 0.057694
v 0.021233 0.042307 0.058527
v 0.022393 0.042786 0.058619
v 0.025654 0.058102 0.048481
v 0.026449 0.056778 0.046659
v 0.025720 0.054507 0.045884
v 0.023919 0.052598 0.046639
v 0.022137 0.052124 0.048425
v 0.021386 0.053393 0.050162
v 0.022071 0.055706 0.050905
v 0.023829 0.057669 0.050234
v 0.021810 0.041567 0.057541
v 0.019608 0.040731 0.056337
v 0.000330 0.044768 0.058656
v 0.025363 0.054272 0.072350
v 0.023259 0.040659 0.055522
v 0.041835 0.043946 0.049403
v 0.021057 0.039823 0.054318
v 0.016802 0.034443 0.035710
v -0.019625 0.048559 0.061267
v 0.029086 0.067052 0.087912
v 0.061138 0.046961 0.043262
v 0.012427 0.028468 0.016616
v 0.021810 0.040982 0.057541
v 0.025363 0.053686 0.072350
v 0.000330 0.044182 0.058656
v 0.019608 0.040145 0.056337
v 0.023259 0.040073 0.055522
v 0.041835 0.043361 0.049403
v 0.021057 0.039237 0.054318
v 0.016802 0.033857 0.035710
v 0.029086 0.066466 0.087912
v -0.019625 0.047973 0.061267
v 0.061138 0.046375 0.043262
v 0.012427 0.027882 0.016617
v 0.010354 0.046271 -0.089782
v 0.011741 0.027640 -0.103880
v -0.016022 0.031076 -0.103014
v -0.009277 0.048701 -0.089170
v -0.035561 0.029379 -0.083046
v -0.023093 0.047501 -0.075050
v -0.035430 0.023542 -0.055673
v -0.023000 0.043374 -0.055695
v -0.015705 0.016985 -0.036930
v -0.009053 0.038737 -0.042442
v 0.012058 0.013549 -0.037796
v 0.010579 0.036307 -0.043054
v 0.031596 0.015246 -0.057764
v 0.024395 0.037507 -0.057173
v 0.031465 0.021083 -0.085136
v 0.024302 0.041635 -0.076529
v 0.006025 0.013071 -0.096841
v -0.013607 0.015501 -0.096228
v -0.027422 0.014301 -0.082109
v -0.027330 0.010174 -0.062754
v -0.013382 0.005537 -0.049500
v 0.006249 0.003107 -0.050112
v 0.020065 0.004308 -0.064232
v 0.019972 0.008435 -0.083587
v -0.004769 0.000941 -0.074949
v 0.001073 0.050973 -0.065861
v 0.002321 0.050818 -0.065900
v 0.000194 0.050897 -0.064964
v 0.000200 0.050634 -0.063733
v 0.001087 0.050339 -0.062890
v 0.002335 0.050185 -0.062929
v 0.003214 0.050261 -0.063827
v 0.003208 0.050524 -0.065058
v 0.002059 0.068212 -0.055482
v -0.000536 0.068127 -0.055668
v -0.002336 0.066983 -0.054437
v -0.002288 0.065449 -0.052511
v -0.000419 0.064424 -0.051017
v 0.002175 0.064510 -0.050831
v 0.003976 0.065655 -0.052061
v 0.003928 0.067188 -0.053987
v 0.001241 0.052561 -0.064235
v 0.003611 0.052561 -0.064333
v 0.015388 0.056273 -0.077128
v -0.011553 0.056273 -0.076011
v 0.001339 0.052561 -0.061864
v -0.010437 0.056273 -0.049070
v 0.003710 0.052561 -0.061963
v 0.016504 0.056273 -0.050186
v 0.027601 0.059723 -0.090396
v -0.024822 0.059723 -0.088224
v -0.022650 0.059723 -0.035801
v 0.029773 0.059723 -0.037973
v 0.001241 0.051975 -0.064235
v -0.011553 0.055688 -0.076011
v 0.015388 0.055688 -0.077127
v 0.003611 0.051975 -0.064333
v 0.001339 0.051975 -0.061864
v -0.010437 0.055688 -0.049070
v 0.003710 0.051975 -0.061963
v 0.016504 0.055688 -0.050186
v -0.024823 0.059137 -0.088224
v 0.027601 0.059137 -0.090396
v -0.022650 0.059137 -0.035801
v 0.029773 0.059137 -0.037973
v -0.073439 0.043432 -0.003443
v -0.088099 0.025408 -0.000621
v -0.067190 0.017396 0.016171
v -0.058654 0.037767 0.008430
v -0.040367 0.010353 0.012398
v -0.039687 0.032787 0.005762
v -0.023341 0.008406 -0.009731
v -0.027648 0.031410 -0.009886
v -0.026087 0.012694 -0.037252
v -0.029590 0.034442 -0.029346
v -0.046996 0.020706 -0.054045
v -0.044375 0.040108 -0.041220
v -0.073820 0.027748 -0.050271
v -0.063342 0.045087 -0.038551
v -0.090845 0.029696 -0.028142
v -0.075381 0.046465 -0.022904
v -0.082612 0.010734 -0.007623
v -0.067827 0.005069 0.004251
v -0.048860 0.000089 0.001583
v -0.036821 -0.001288 -0.014065
v -0.038763 0.001744 -0.033526
v -0.053547 0.007409 -0.045399
v -0.072515 0.012389 -0.042731
v -0.084554 0.013766 -0.027084
v -0.062998 -0.001998 -0.021627
v -0.049738 0.046816 -0.013800
v -0.050678 0.047176 -0.014555
v -0.048531 0.046499 -0.013969
v -0.047766 0.046412 -0.014964
v -0.047889 0.046604 -0.016202
v -0.048830 0.046965 -0.016957
v -0.050036 0.047281 -0.016787
v -0.050801 0.047369 -0.015792
v -0.044173 0.060936 -0.014208
v -0.042214 0.059582 -0.012343
v -0.040059 0.057655 -0.012666
v -0.038971 0.056282 -0.014990
v -0.039587 0.056268 -0.017951
v -0.041547 0.057621 -0.019816
v -0.043703 0.059549 -0.019491
v -0.044790 0.060922 -0.017169
v -0.032523 0.077760 -0.019848
v -0.030142 0.076449 -0.017827
v -0.027445 0.074791 -0.018172
v -0.026003 0.073751 -0.020671
v -0.026660 0.073940 -0.023859
v -0.029042 0.075254 -0.025878
v -0.031752 0.076921 -0.025549
v -0.033194 0.077958 -0.023051
v -0.047393 0.047472 -0.017888
v -0.045636 0.047391 -0.015459
v -0.024418 0.053606 -0.011411
v -0.044389 0.054522 -0.039018
v -0.049809 0.047090 -0.016153
v -0.071850 0.050180 -0.019297
v -0.048052 0.047009 -0.013724
v -0.051879 0.049265 0.008310
v -0.002369 0.059550 -0.007262
v -0.041230 0.061331 -0.060981
v -0.094663 0.052883 -0.022607
v -0.055803 0.051102 0.031112
v -0.047393 0.046886 -0.017888
v -0.044389 0.053936 -0.039018
v -0.024418 0.053020 -0.011411
v -0.045636 0.046805 -0.015459
v -0.049809 0.046504 -0.016153
v -0.071849 0.049594 -0.019297
v -0.048052 0.046423 -0.013724
v -0.051879 0.048679 0.008310
v -0.041230 0.060745 -0.060981
v -0.002369 0.058964 -0.007262
v -0.094663 0.052297 -0.022607
v -0.055803 0.050516 0.031112
v -0.020641 0.074138 -0.025190
v -0.022085 0.074325 -0.027057
v -0.009932 0.070208 -0.036763
v -0.006525 0.070246 -0.036385
v -0.020993 0.075820 -0.023991
v -0.004137 0.071581 -0.037755
v -0.022935 0.078382 -0.024163
v -0.004167 0.073430 -0.040068
v -0.025329 0.080326 -0.025604
v -0.006589 0.074707 -0.041960
v -0.026774 0.080517 -0.027470
v -0.009983 0.074667 -0.042323
v -0.026422 0.078841 -0.028669
v -0.012370 0.073335 -0.040954
v -0.012353 0.071489 -0.038656
v -0.024480 0.076274 -0.028497
v 0.044132 0.035749 -0.032958
v 0.049780 0.014118 -0.039886
v 0.021884 0.011932 -0.039243
v 0.024407 0.034203 -0.032503
v 0.002388 0.013227 -0.019204
v 0.010621 0.035118 -0.018333
v 0.002712 0.017244 0.008493
v 0.010850 0.037959 0.001251
v 0.022666 0.021631 0.027623
v 0.024960 0.041061 0.014778
v 0.050562 0.023817 0.026979
v 0.044685 0.042607 0.014323
v 0.070058 0.022522 0.006940
v 0.058471 0.041691 0.000153
v 0.069734 0.018504 -0.020757
v 0.058242 0.038850 -0.019432
v 0.046890 0.001992 -0.028094
v 0.027165 0.000446 -0.027639
v 0.013379 0.001361 -0.013469
v 0.013608 0.004202 0.006115
v 0.027718 0.007304 0.019642
v 0.047443 0.008850 0.019187
v 0.061228 0.007934 0.005017
v 0.060999 0.005093 -0.014567
v 0.037998 -0.003856 -0.003000
v 0.033230 0.046348 -0.011762
v 0.034485 0.046446 -0.011791
v 0.032354 0.046406 -0.010861
v 0.032368 0.046587 -0.009616
v 0.033266 0.046784 -0.008756
v 0.034520 0.046882 -0.008785
v 0.035397 0.046824 -0.009686
v 0.035382 0.046643 -0.010931
v 0.032188 0.061483 -0.011192
v 0.029269 0.060691 -0.011234
v 0.027433 0.059496 -0.009320
v 0.027755 0.058596 -0.006571
v 0.030047 0.058520 -0.004599
v 0.032967 0.059312 -0.004558
v 0.034803 0.060508 -0.006473
v 0.034480 0.061407 -0.009220
v 0.030465 0.066107 -0.008379
v 0.027551 0.065334 -0.008439
v 0.025728 0.064181 -0.006572
v 0.026062 0.063323 -0.003870
v 0.028359 0.063263 -0.001917
v 0.031274 0.064038 -0.001857
v 0.033098 0.065193 -0.003725
v 0.032763 0.066050 -0.006426
v 0.033201 0.045851 -0.010303
v 0.032573 0.045851 -0.012803
v 0.016354 0.049885 -0.022505
v 0.023499 0.049885 0.005916
v 0.035702 0.045851 -0.010931
v 0.051920 0.049885 -0.001229
v 0.035073 0.045851 -0.013432
v 0.044775 0.049885 -0.029650
v -0.000466 0.053634 -0.032567
v 0.013438 0.053634 0.022736
v 0.068740 0.053634 0.008832
v 0.054836 0.053634 -0.046470
v 0.033201 0.045265 -0.010303
v 0.023499 0.049300 0.005916
v 0.016354 0.049300 -0.022505
v 0.032573 0.045265 -0.012803
v 0.035702 0.045265 -0.010931
v 0.051920 0.049300 -0.001229
v 0.035073 0.045265 -0.013432
v 0.044775 0.049300 -0.029650
v 0.013438 0.053048 0.022736
v -0.000466 0.053048 -0.032567
v 0.068740 0.053048 0.008832
v 0.054836 0.053048 -0.046470
v -0.039759 0.039801 0.052900
v -0.047893 0.020074 0.059296
v -0.026643 0.021759 0.075270
v -0.024732 0.040992 0.064196
v -0.000275 0.022394 0.071537
v -0.006088 0.041441 0.061556
v 0.015764 0.021607 0.050283
v 0.005254 0.040884 0.046527
v 0.012079 0.019859 0.023960
v 0.002648 0.039648 0.027913
v -0.009171 0.018174 0.007985
v -0.012378 0.038457 0.016618
v -0.035539 0.017539 0.011719
v -0.031023 0.038008 0.019258
v -0.051578 0.018327 0.032972
v -0.042364 0.038565 0.034286
v -0.038693 0.007314 0.054908
v -0.023666 0.008505 0.066203
v -0.005022 0.008954 0.063564
v 0.006320 0.008398 0.048535
v 0.003714 0.007162 0.029921
v -0.011312 0.005970 0.018626
v -0.029957 0.005522 0.021266
v -0.041298 0.006078 0.036294
v -0.017221 -0.000946 0.042920
v -0.019902 0.045437 0.040663
v -0.021052 0.045346 0.039799
v -0.018476 0.045472 0.040461
v -0.017608 0.045429 0.039311
v -0.017808 0.045334 0.037887
v -0.018957 0.045243 0.037023
v -0.020384 0.045209 0.037225
v -0.021251 0.045252 0.038375
v -0.018870 0.064279 0.037157
v -0.016586 0.064204 0.039138
v -0.013894 0.063102 0.039136
v -0.012370 0.061618 0.037150
v -0.012907 0.060623 0.034345
v -0.015191 0.060698 0.032363
v -0.017884 0.061800 0.032366
v -0.019408 0.063284 0.034352
v -0.016019 0.068512 0.034662
v -0.013752 0.068457 0.036650
v -0.011101 0.067402 0.036662
v -0.009618 0.065964 0.034692
v -0.010172 0.064987 0.031893
v -0.012440 0.065044 0.029905
v -0.015091 0.066101 0.029893
v -0.016574 0.067537 0.031863
v -0.019320 0.046834 0.039409
v -0.018020 0.046954 0.037155
v -0.022766 0.052744 0.019125
v -0.037543 0.051375 0.044743
v -0.017067 0.046620 0.040698
v -0.011928 0.048946 0.059387
v -0.015767 0.046741 0.038444
v 0.002848 0.050315 0.033770
v -0.027710 0.058311 0.000391
v -0.056462 0.055647 0.050239
v -0.006620 0.050920 0.078735
v 0.022132 0.053584 0.028888
v -0.019320 0.046248 0.039409
v -0.037542 0.050789 0.044743
v -0.022766 0.052158 0.019125
v -0.018020 0.046369 0.037155
v -0.017067 0.046034 0.040698
v -0.011928 0.048360 0.059387
v -0.015767 0.046155 0.038444
v 0.002848 0.049729 0.033770
v -0.056461 0.055061 0.050239
v -0.027709 0.057725 0.000391
v -0.006620 0.050334 0.078735
v 0.022132 0.052998 0.028888
v 0.017273 0.072749 0.012049
v 0.015142 0.071932 0.011056
v 0.017631 0.071851 0.009078
v 0.020620 0.072623 0.009275
v 0.018003 0.073934 0.011508
v 0.022528 0.073744 0.007625
v 0.016906 0.074791 0.009751
v 0.022239 0.074556 0.005095
v 0.014622 0.074821 0.007807
v 0.019928 0.074587 0.003177
v 0.012491 0.074008 0.006814
v 0.016950 0.073821 0.002993
v 0.011760 0.072825 0.007353
v 0.015042 0.072703 0.004641
v 0.012858 0.071965 0.009111
v 0.015320 0.071885 0.007157
v 0.006241 0.073169 0.021215
v 0.004882 0.072286 0.019326
v 0.005904 0.074445 0.021913
v 0.004070 0.075366 0.021012
v 0.001811 0.075393 0.019039
v 0.000451 0.074513 0.017150
v 0.000787 0.073240 0.016451
v 0.002623 0.072317 0.017352
v 0.002894 0.073295 0.023988
v 0.002392 0.072368 0.021304
v 0.001379 0.074635 0.025796
v -0.001264 0.075601 0.025668
v -0.003495 0.075627 0.023669
v -0.004008 0.074700 0.020970
v -0.002495 0.073363 0.019163
v 0.000160 0.072397 0.019306
v -0.027082 0.080025 -0.022012
v -0.045074 0.071835 -0.036489
v -0.044971 0.071321 -0.034599
v -0.027056 0.078999 -0.018018
v -0.043652 0.070546 -0.033496
v -0.024681 0.077502 -0.015620
v -0.041888 0.069962 -0.033826
v -0.021346 0.076407 -0.016222
v -0.040713 0.069913 -0.035396
v -0.018992 0.076362 -0.019484
v -0.040816 0.070427 -0.037287
v -0.019002 0.077395 -0.023493
v -0.042136 0.071202 -0.038390
v -0.021381 0.078896 -0.025891
v -0.043899 0.071785 -0.038060
v -0.024732 0.079983 -0.025273
v 0.002426 0.081416 0.007396
v 0.018321 0.071625 0.027438
v 0.020116 0.071551 0.025058
v 0.004892 0.081382 0.004233
v 0.019933 0.070465 0.022411
v 0.004821 0.080089 0.000692
v 0.017877 0.069002 0.021045
v 0.002268 0.078295 -0.001165
v 0.015154 0.068021 0.021763
v -0.001271 0.077054 -0.000251
v 0.013359 0.068095 0.024143
v -0.003735 0.077093 0.002913
v 0.013544 0.069182 0.026791
v -0.003683 0.078386 0.006472
v 0.015599 0.070644 0.028156
v -0.001131 0.080175 0.008328
v -0.014992 0.077564 -0.019277
v -0.016123 0.076471 -0.016340
v -0.015781 0.079151 -0.020203
v -0.018026 0.080298 -0.018576
v -0.020414 0.080338 -0.015349
v -0.021546 0.079249 -0.012412
v -0.020759 0.077666 -0.011485
v -0.018512 0.076515 -0.013112
v -0.001742 0.078126 -0.005382
v -0.004140 0.076944 -0.003395
v -0.000778 0.079835 -0.004996
v -0.001814 0.081067 -0.002464
v -0.004242 0.081103 0.000733
v -0.006641 0.079926 0.002722
v -0.007605 0.078221 0.002337
v -0.006569 0.076985 -0.000197
v 0.020375 0.067671 0.036792
v 0.023239 0.069346 0.035909
v 0.025627 0.069261 0.033741
v 0.026191 0.067497 0.031514
v 0.024700 0.065036 0.030556
v 0.021994 0.063297 0.031457
v 0.019562 0.063335 0.033679
v 0.018842 0.065163 0.035890
vt 0.625800 0.909700
vt 0.625800 0.833000
vt 0.664100 0.833000
vt 0.664100 0.909700
vt 0.702400 0.833000
vt 0.702400 0.909700
vt 0.740800 0.833000
vt 0.740800 0.909700
vt 0.779100 0.833000
vt 0.779100 0.909700
vt 0.817500 0.833000
vt 0.817500 0.909700
vt 0.855800 0.833000
vt 0.855800 0.909700
vt 0.894200 0.833000
vt 0.894200 0.909700
vt 0.932500 0.833000
vt 0.932500 0.909700
vt 0.625800 0.753200
vt 0.664100 0.753200
vt 0.702400 0.753200
vt 0.740800 0.753200
vt 0.779100 0.753200
vt 0.817500 0.753200
vt 0.855800 0.753200
vt 0.894200 0.753200
vt 0.932500 0.753200
vt 0.781300 0.676500
vt 0.664100 0.988700
vt 0.625800 0.988700
vt 0.702400 0.988700
vt 0.740800 0.988700
vt 0.779100 0.988700
vt 0.817500 0.988700
vt 0.855800 0.988700
vt 0.894200 0.988700
vt 0.932500 0.988700
vt 0.944600 0.547500
vt 0.944600 0.473600
vt 0.950900 0.473600
vt 0.950900 0.547300
vt 0.957300 0.473600
vt 0.957300 0.545300
vt 0.963600 0.473600
vt 0.963600 0.542400
vt 0.970000 0.473600
vt 0.970000 0.540200
vt 0.976300 0.540500
vt 0.976300 0.473600
vt 0.982700 0.543200
vt 0.982700 0.473600
vt 0.989000 0.546000
vt 0.989000 0.473600
vt 0.995400 0.547500
vt 0.995400 0.473600
vt 0.522600 0.903900
vt 0.522600 0.895600
vt 0.565700 0.852800
vt 0.565400 0.946900
vt 0.514300 0.903800
vt 0.471300 0.946600
vt 0.514400 0.895600
vt 0.471600 0.852500
vt 0.610300 0.808400
vt 0.609800 0.991500
vt 0.426700 0.991000
vt 0.427200 0.807900
vt 0.522600 0.903900
vt 0.565400 0.946900
vt 0.565700 0.852800
vt 0.522600 0.895600
vt 0.514300 0.903800
vt 0.471300 0.946600
vt 0.514400 0.895600
vt 0.471600 0.852500
vt 0.609800 0.991500
vt 0.610300 0.808400
vt 0.426700 0.991000
vt 0.427200 0.807900
vt 0.625800 0.909700
vt 0.625800 0.833000
vt 0.664100 0.833000
vt 0.664100 0.909700
vt 0.702400 0.833000
vt 0.702400 0.909700
vt 0.740800 0.833000
vt 0.740800 0.909700
vt 0.779100 0.833000
vt 0.779100 0.909700
vt 0.817500 0.833000
vt 0.817500 0.909700
vt 0.855800 0.833000
vt 0.855800 0.909700
vt 0.894200 0.833000
vt 0.894200 0.909700
vt 0.932500 0.833000
vt 0.932500 0.909700
vt 0.625800 0.753200
vt 0.664100 0.753200
vt 0.702400 0.753200
vt 0.740800 0.753200
vt 0.779100 0.753200
vt 0.817500 0.753200
vt 0.855800 0.753200
vt 0.894200 0.753200
vt 0.932500 0.753200
vt 0.781300 0.676500
vt 0.664100 0.988700
vt 0.625800 0.988700
vt 0.702400 0.988700
vt 0.740800 0.988700
vt 0.779100 0.988700
vt 0.817500 0.988700
vt 0.855800 0.988700
vt 0.894200 0.988700
vt 0.932500 0.988700
vt 0.944600 0.652100
vt 0.944600 0.473600
vt 0.950900 0.473600
vt 0.950900 0.652100
vt 0.957300 0.473600
vt 0.957300 0.652100
vt 0.963600 0.473600
vt 0.963600 0.652200
vt 0.970000 0.473600
vt 0.970000 0.652200
vt 0.976300 0.473600
vt 0.976300 0.652200
vt 0.982700 0.473600
vt 0.982700 0.652100
vt 0.989000 0.473600
vt 0.989000 0.652100
vt 0.995400 0.473600
vt 0.995400 0.652100
vt 0.522600 0.903900
vt 0.522600 0.895600
vt 0.565700 0.852800
vt 0.565400 0.946900
vt 0.514300 0.903800
vt 0.471300 0.946600
vt 0.514400 0.895600
vt 0.471600 0.852500
vt 0.610300 0.808400
vt 0.609800 0.991500
vt 0.426700 0.991000
vt 0.427200 0.807900
vt 0.522600 0.903900
vt 0.565400 0.946900
vt 0.565700 0.852800
vt 0.522600 0.895600
vt 0.514300 0.903800
vt 0.471300 0.946600
vt 0.514400 0.895600
vt 0.471600 0.852500
vt 0.609800 0.991500
vt 0.610300 0.808400
vt 0.426700 0.991000
vt 0.427200 0.807900
vt 0.625800 0.909700
vt 0.625800 0.833000
vt 0.664100 0.833000
vt 0.664100 0.909700
vt 0.702400 0.833000
vt 0.702400 0.909700
vt 0.740800 0.833000
vt 0.740800 0.909700
vt 0.779100 0.833000
vt 0.779100 0.909700
vt 0.817500 0.833000
vt 0.817500 0.909700
vt 0.855800 0.833000
vt 0.855800 0.909700
vt 0.894200 0.833000
vt 0.894200 0.909700
vt 0.932500 0.833000
vt 0.932500 0.909700
vt 0.625800 0.753200
vt 0.664100 0.753200
vt 0.702400 0.753200
vt 0.740800 0.753200
vt 0.779100 0.753200
vt 0.817500 0.753200
vt 0.855800 0.753200
vt 0.894200 0.753200
vt 0.932500 0.753200
vt 0.781300 0.676500
vt 0.664100 0.988700
vt 0.625800 0.988700
vt 0.702400 0.988700
vt 0.740800 0.988700
vt 0.779100 0.988700
vt 0.817500 0.988700
vt 0.855800 0.988700
vt 0.894200 0.988700
vt 0.932500 0.988700
vt 0.944600 0.588200
vt 0.944600 0.473600
vt 0.950900 0.473600
vt 0.950900 0.588200
vt 0.957300 0.473600
vt 0.957300 0.588200
vt 0.963600 0.473600
vt 0.963600 0.588200
vt 0.970000 0.473600
vt 0.970000 0.588200
vt 0.976300 0.588200
vt 0.976300 0.473600
vt 0.982700 0.588200
vt 0.982700 0.473600
vt 0.989000 0.588200
vt 0.989000 0.473600
vt 0.995400 0.588200
vt 0.995400 0.473600
vt 0.955200 0.764400
vt 0.958900 0.764400
vt 0.962700 0.764400
vt 0.966500 0.764400
vt 0.970000 0.764400
vt 0.973400 0.764400
vt 0.976900 0.764400
vt 0.980800 0.764400
vt 0.984700 0.764400
vt 0.522600 0.903900
vt 0.522600 0.895600
vt 0.565700 0.852800
vt 0.565400 0.946900
vt 0.514300 0.903800
vt 0.471300 0.946600
vt 0.514400 0.895600
vt 0.471600 0.852500
vt 0.610300 0.808400
vt 0.609800 0.991500
vt 0.426700 0.991000
vt 0.427200 0.807900
vt 0.522600 0.903900
vt 0.565400 0.946900
vt 0.565700 0.852800
vt 0.522600 0.895600
vt 0.514300 0.903800
vt 0.471300 0.946600
vt 0.514400 0.895600
vt 0.471600 0.852500
vt 0.609800 0.991500
vt 0.610300 0.808400
vt 0.426700 0.991000
vt 0.427200 0.807900
vt 0.967900 0.764400
vt 0.970000 0.764400
vt 0.970000 0.764400
vt 0.973500 0.764400
vt 0.965700 0.764400
vt 0.977200 0.764400
vt 0.963600 0.764400
vt 0.981000 0.764400
vt 0.961500 0.764400
vt 0.984700 0.764400
vt 0.976300 0.764400
vt 0.978400 0.764400
vt 0.955200 0.764400
vt 0.959200 0.764400
vt 0.974200 0.764400
vt 0.963000 0.764400
vt 0.966600 0.764400
vt 0.972100 0.764400
vt 0.625800 0.909700
vt 0.625800 0.833000
vt 0.664100 0.833000
vt 0.664100 0.909700
vt 0.702400 0.833000
vt 0.702400 0.909700
vt 0.740800 0.833000
vt 0.740800 0.909700
vt 0.779100 0.833000
vt 0.779100 0.909700
vt 0.817500 0.833000
vt 0.817500 0.909700
vt 0.855800 0.833000
vt 0.855800 0.909700
vt 0.894200 0.833000
vt 0.894200 0.909700
vt 0.932500 0.833000
vt 0.932500 0.909700
vt 0.625800 0.753200
vt 0.664100 0.753200
vt 0.702400 0.753200
vt 0.740800 0.753200
vt 0.779100 0.753200
vt 0.817500 0.753200
vt 0.855800 0.753200
vt 0.894200 0.753200
vt 0.932500 0.753200
vt 0.781300 0.676500
vt 0.664100 0.988700
vt 0.625800 0.988700
vt 0.702400 0.988700
vt 0.740800 0.988700
vt 0.779100 0.988700
vt 0.817500 0.988700
vt 0.855800 0.988700
vt 0.894200 0.988700
vt 0.932500 0.988700
vt 0.944600 0.588200
vt 0.944600 0.473600
vt 0.950900 0.473600
vt 0.950900 0.588200
vt 0.957300 0.473600
vt 0.957300 0.588200
vt 0.963600 0.473600
vt 0.963600 0.588200
vt 0.970000 0.473600
vt 0.970000 0.588200
vt 0.976300 0.588200
vt 0.976300 0.473600
vt 0.982700 0.588200
vt 0.982700 0.473600
vt 0.989000 0.588200
vt 0.989000 0.473600
vt 0.995400 0.588200
vt 0.995400 0.473600
vt 0.944600 0.652100
vt 0.950900 0.652100
vt 0.957300 0.652100
vt 0.963600 0.652200
vt 0.970000 0.652200
vt 0.976300 0.652200
vt 0.982700 0.652100
vt 0.989000 0.652100
vt 0.995400 0.652100
vt 0.522600 0.903900
vt 0.522600 0.895600
vt 0.565700 0.852800
vt 0.565400 0.946900
vt 0.514300 0.903800
vt 0.471300 0.946600
vt 0.514400 0.895600
vt 0.471600 0.852500
vt 0.610300 0.808400
vt 0.609800 0.991500
vt 0.426700 0.991000
vt 0.427200 0.807900
vt 0.522600 0.903900
vt 0.565400 0.946900
vt 0.565700 0.852800
vt 0.522600 0.895600
vt 0.514300 0.903800
vt 0.471300 0.946600
vt 0.514400 0.895600
vt 0.471600 0.852500
vt 0.609800 0.991500
vt 0.610300 0.808400
vt 0.426700 0.991000
vt 0.427200 0.807900
vt 0.625800 0.909700
vt 0.625800 0.833000
vt 0.664100 0.833000
vt 0.664100 0.909700
vt 0.702400 0.833000
vt 0.702400 0.909700
vt 0.740800 0.833000
vt 0.740800 0.909700
vt 0.779100 0.833000
vt 0.779100 0.909700
vt 0.817500 0.833000
vt 0.817500 0.909700
vt 0.855800 0.833000
vt 0.855800 0.909700
vt 0.894200 0.833000
vt 0.894200 0.909700
vt 0.932500 0.833000
vt 0.932500 0.909700
vt 0.625800 0.753200
vt 0.664100 0.753200
vt 0.702400 0.753200
vt 0.740800 0.753200
vt 0.779100 0.753200
vt 0.817500 0.753200
vt 0.855800 0.753200
vt 0.894200 0.753200
vt 0.932500 0.753200
vt 0.781300 0.676500
vt 0.664100 0.988700
vt 0.625800 0.988700
vt 0.702400 0.988700
vt 0.740800 0.988700
vt 0.779100 0.988700
vt 0.817500 0.988700
vt 0.855800 0.988700
vt 0.894200 0.988700
vt 0.932500 0.988700
vt 0.944600 0.588200
vt 0.944600 0.473600
vt 0.950900 0.473600
vt 0.950900 0.588200
vt 0.957300 0.473600
vt 0.957300 0.588200
vt 0.963600 0.473600
vt 0.963600 0.588200
vt 0.970000 0.473600
vt 0.970000 0.588200
vt 0.976300 0.588200
vt 0.976300 0.473600
vt 0.982700 0.588200
vt 0.982700 0.473600
vt 0.989000 0.588200
vt 0.989000 0.473600
vt 0.995400 0.588200
vt 0.995400 0.473600
vt 0.944600 0.652100
vt 0.950900 0.652100
vt 0.957300 0.652100
vt 0.963600 0.652200
vt 0.970000 0.652200
vt 0.976300 0.652200
vt 0.982700 0.652200
vt 0.989000 0.652100
vt 0.995400 0.652100
vt 0.522600 0.903900
vt 0.522600 0.895600
vt 0.565700 0.852800
vt 0.565400 0.946900
vt 0.514300 0.903800
vt 0.471300 0.946600
vt 0.514400 0.895600
vt 0.471600 0.852500
vt 0.610300 0.808400
vt 0.609800 0.991500
vt 0.426700 0.991000
vt 0.427200 0.807900
vt 0.522600 0.903900
vt 0.565400 0.946900
vt 0.565700 0.852800
vt 0.522600 0.895600
vt 0.514300 0.903800
vt 0.471300 0.946600
vt 0.514400 0.895600
vt 0.471600 0.852500
vt 0.609800 0.991500
vt 0.610300 0.808400
vt 0.426700 0.991000
vt 0.427200 0.807900
vt 0.972100 0.764400
vt 0.970000 0.764400
vt 0.970000 0.764400
vt 0.973500 0.764400
vt 0.974200 0.764400
vt 0.977200 0.764400
vt 0.976300 0.764400
vt 0.981000 0.764400
vt 0.978400 0.764400
vt 0.984700 0.764400
vt 0.963600 0.764400
vt 0.961500 0.764400
vt 0.955200 0.764400
vt 0.959200 0.764400
vt 0.965700 0.764400
vt 0.963000 0.764400
vt 0.967900 0.764400
vt 0.966600 0.764400
vt 0.967900 0.764400
vt 0.970000 0.764400
vt 0.965700 0.764400
vt 0.963600 0.764400
vt 0.961500 0.764400
vt 0.976300 0.764400
vt 0.978400 0.764400
vt 0.974200 0.764400
vt 0.972100 0.764400
vt 0.966500 0.764400
vt 0.970000 0.764400
vt 0.962700 0.764400
vt 0.958900 0.764400
vt 0.955200 0.764400
vt 0.980800 0.764400
vt 0.984700 0.764400
vt 0.976900 0.764400
vt 0.973400 0.764400
vt 0.955200 0.764400
vt 0.944600 0.588200
vt 0.950900 0.588200
vt 0.959200 0.764400
vt 0.957300 0.588200
vt 0.963000 0.764400
vt 0.963600 0.588200
vt 0.966600 0.764400
vt 0.970000 0.588200
vt 0.970000 0.764400
vt 0.976300 0.588200
vt 0.973500 0.764400
vt 0.982700 0.588200
vt 0.977200 0.764400
vt 0.989000 0.588200
vt 0.981000 0.764400
vt 0.995400 0.588200
vt 0.984700 0.764400
vt 0.955200 0.764400
vt 0.944600 0.588200
vt 0.950900 0.588200
vt 0.958900 0.764400
vt 0.957300 0.588200
vt 0.962700 0.764400
vt 0.963600 0.588200
vt 0.966500 0.764400
vt 0.970000 0.588200
vt 0.970000 0.764400
vt 0.976300 0.588200
vt 0.973400 0.764400
vt 0.982700 0.588200
vt 0.976900 0.764400
vt 0.989000 0.588200
vt 0.980800 0.764400
vt 0.995400 0.588200
vt 0.984700 0.764400
vt 0.972100 0.764400
vt 0.970000 0.764400
vt 0.974200 0.764400
vt 0.976300 0.764400
vt 0.978400 0.764400
vt 0.963600 0.764400
vt 0.961500 0.764400
vt 0.965700 0.764400
vt 0.967900 0.764400
vt 0.967900 0.764400
vt 0.970000 0.764400
vt 0.965700 0.764400
vt 0.963600 0.764400
vt 0.961500 0.764400
vt 0.976300 0.764400
vt 0.978400 0.764400
vt 0.974200 0.764400
vt 0.972100 0.764400
vt 0.985900 0.588200
vt 0.992200 0.588200
vt 0.974000 0.588200
vt 0.947600 0.588200
vt 0.953800 0.588200
vt 0.960000 0.588200
vt 0.966300 0.588200
vt 0.972700 0.588200
vt 0.979300 0.588200
vn 0.3190 0.9447 -0.0767
vn 0.7797 0.4452 0.4403
vn 0.9696 0.1111 -0.2181
vn 0.4527 0.7095 -0.5401
vn 0.6069 -0.3302 -0.7230
vn 0.1974 0.3988 -0.8955
vn -0.0960 -0.6202 -0.7786
vn -0.2974 0.1947 -0.9347
vn -0.7273 -0.5890 -0.3523
vn -0.7418 0.2167 -0.6346
vn -0.9173 -0.2548 0.3061
vn -0.8755 0.4519 -0.1712
vn -0.5545 0.1865 0.8110
vn -0.6202 0.7625 0.1842
vn 0.1483 0.4765 0.8666
vn -0.1254 0.9666 0.2234
vn 0.6995 -0.3219 0.6380
vn 0.8169 -0.5285 0.2310
vn 0.5926 -0.8014 -0.0812
vn 0.1580 -0.9806 -0.1156
vn -0.2323 -0.9613 0.1479
vn -0.3497 -0.7548 0.5550
vn -0.1254 -0.4819 0.8672
vn 0.3091 -0.3026 0.9016
vn 0.2965 -0.8144 0.4988
vn 0.6974 0.5469 -0.4632
vn 0.4611 0.8809 0.1066
vn 0.3126 0.1793 -0.9328
vn -0.3403 0.1025 -0.9347
vn -0.7416 0.2707 -0.6138
vn -0.8344 0.5056 -0.2193
vn -0.6375 0.7564 0.1468
vn -0.1421 0.9345 0.3263
vn 0.7424 0.4413 0.5040
vn 0.9968 -0.0146 0.0789
vn 0.8017 -0.4839 -0.3509
vn 0.0355 -0.7378 -0.6740
vn -0.7770 -0.4359 -0.4541
vn -0.9990 -0.0020 0.0455
vn -0.6513 0.4281 0.6265
vn 0.0879 0.6238 0.7766
vn -0.1251 0.7676 -0.6286
vn 0.1208 0.8609 -0.4942
vn 0.1054 0.8641 -0.4922
vn -0.1221 0.7777 -0.6167
vn -0.2867 0.8690 -0.4033
vn -0.2718 0.8715 -0.4081
vn -0.0410 0.9623 -0.2689
vn -0.0443 0.9579 -0.2837
vn 0.1000 0.8651 -0.4915
vn -0.1211 0.7811 -0.6125
vn -0.2666 0.8723 -0.4098
vn -0.0455 0.9563 -0.2888
vn 0.1249 -0.7676 0.6287
vn 0.1221 -0.7777 0.6166
vn -0.1054 -0.8641 0.4922
vn -0.1207 -0.8608 0.4944
vn 0.2866 -0.8690 0.4033
vn 0.2717 -0.8715 0.4082
vn 0.0410 -0.9623 0.2689
vn 0.0443 -0.9579 0.2837
vn 0.1211 -0.7811 0.6125
vn -0.1000 -0.8651 0.4915
vn 0.2666 -0.8723 0.4098
vn 0.0455 -0.9563 0.2888
vn 0.3533 0.7940 -0.4948
vn 0.3626 0.0595 -0.9300
vn -0.3936 0.1531 -0.9064
vn -0.1790 0.8598 -0.4782
vn -0.9258 0.1069 -0.3625
vn -0.5536 0.8273 -0.0953
vn -0.9222 -0.0521 0.3831
vn -0.5511 0.7154 0.4296
vn -0.3850 -0.2307 0.8936
vn -0.1729 0.5897 0.7889
vn 0.3713 -0.3243 0.8700
vn 0.3594 0.5238 0.7723
vn 0.9035 -0.2781 0.3261
vn 0.7341 0.5563 0.3895
vn 0.8999 -0.1191 -0.4195
vn 0.7315 0.6682 -0.1354
vn 0.1314 -0.6747 -0.7263
vn -0.3362 -0.6168 -0.7117
vn -0.6652 -0.6454 -0.3754
vn -0.6630 -0.7437 0.0856
vn -0.3308 -0.8542 0.4012
vn 0.1368 -0.9120 0.3867
vn 0.4658 -0.8834 0.0504
vn 0.4636 -0.7852 -0.4106
vn -0.1265 -0.9703 -0.2063
vn -0.1332 0.8796 -0.4566
vn 0.3359 0.8422 -0.4217
vn -0.5986 0.7789 -0.1868
vn -0.7493 0.5245 0.4043
vn -0.2845 0.2855 0.9152
vn 0.4438 0.2733 0.8534
vn 0.8058 0.4833 0.3422
vn 0.6934 0.7057 -0.1453
vn 0.3877 0.7347 -0.5567
vn -0.2855 0.6459 -0.7081
vn -0.8482 0.0990 -0.5203
vn -0.8316 -0.5553 -0.0019
vn -0.3095 -0.8303 0.4634
vn 0.4318 -0.6363 0.6393
vn 0.9290 -0.0585 0.3653
vn 0.8700 0.4691 -0.1518
vn 0.1536 0.9780 0.1414
vn -0.1414 0.9780 0.1536
vn -0.1309 0.9812 0.1422
vn 0.1422 0.9811 0.1309
vn 0.1413 0.9780 -0.1537
vn 0.1309 0.9812 -0.1422
vn -0.1537 0.9780 -0.1413
vn -0.1422 0.9812 -0.1309
vn -0.1273 0.9822 0.1383
vn 0.1383 0.9822 0.1273
vn 0.1273 0.9822 -0.1383
vn -0.1383 0.9822 -0.1272
vn -0.1536 -0.9780 -0.1414
vn -0.1422 -0.9812 -0.1309
vn 0.1309 -0.9812 -0.1422
vn 0.1414 -0.9779 -0.1537
vn -0.1414 -0.9780 0.1537
vn -0.1309 -0.9812 0.1422
vn 0.1537 -0.9779 0.1414
vn 0.1422 -0.9812 0.1309
vn -0.1382 -0.9822 -0.1272
vn 0.1272 -0.9822 -0.1382
vn -0.1272 -0.9822 0.1382
vn 0.1382 -0.9822 0.1272
vn -0.4034 0.8032 0.4383
vn -0.8682 0.0888 0.4881
vn -0.2987 -0.1294 0.9455
vn -0.0025 0.6496 0.7603
vn 0.4320 -0.3212 0.8427
vn 0.5119 0.5146 0.6879
vn 0.8957 -0.3743 0.2400
vn 0.8383 0.4772 0.2636
vn 0.8209 -0.2575 -0.5097
vn 0.7857 0.5595 -0.2641
vn 0.2514 -0.0392 -0.9671
vn 0.3847 0.7131 -0.5861
vn -0.4793 0.1526 -0.8643
vn -0.1296 0.8481 -0.5137
vn -0.9430 0.2057 -0.2615
vn -0.4560 0.8855 -0.0894
vn -0.7334 -0.6458 0.2122
vn -0.3813 -0.7808 0.4950
vn 0.0705 -0.8994 0.4315
vn 0.3572 -0.9322 0.0588
vn 0.3110 -0.8599 -0.4047
vn -0.0411 -0.7250 -0.6875
vn -0.4929 -0.6064 -0.6239
vn -0.7796 -0.5736 -0.2513
vn -0.2681 -0.9556 -0.1221
vn -0.0393 0.6407 0.7668
vn -0.3900 0.8123 0.4336
vn 0.4823 0.4007 0.7790
vn 0.9222 0.2183 0.3191
vn 0.8787 0.2689 -0.3943
vn 0.3332 0.5246 -0.7834
vn -0.2429 0.7777 -0.5798
vn -0.4845 0.8722 -0.0675
vn -0.6963 0.4831 0.5308
vn -0.1767 0.2102 0.9616
vn 0.4336 -0.2392 0.8688
vn 0.7688 -0.5850 0.2582
vn 0.6201 -0.6179 -0.4834
vn 0.0723 -0.3386 -0.9381
vn -0.5722 0.1122 -0.8124
vn -0.8750 0.4499 -0.1790
vn -0.3783 0.8093 0.4494
vn 0.0828 0.5922 0.8015
vn 0.5772 0.1332 0.8057
vn 0.6221 -0.7195 0.3088
vn 0.2404 -0.8716 -0.4273
vn -0.1219 -0.5130 -0.8497
vn -0.5607 0.1738 -0.8095
vn -0.6619 0.7263 -0.1854
vn -0.1181 0.9469 0.2992
vn -0.2911 0.9548 0.0601
vn -0.2761 0.9591 0.0628
vn -0.1160 0.9517 0.2842
vn 0.1197 0.9845 0.1284
vn 0.1041 0.9865 0.1261
vn -0.0533 0.9924 -0.1108
vn -0.0559 0.9939 -0.0953
vn -0.2709 0.9605 0.0638
vn -0.1153 0.9534 0.2790
vn 0.0988 0.9872 0.1253
vn -0.0569 0.9943 -0.0899
vn 0.1181 -0.9469 -0.2992
vn 0.1160 -0.9517 -0.2842
vn 0.2761 -0.9591 -0.0628
vn 0.2911 -0.9548 -0.0601
vn -0.1197 -0.9845 -0.1284
vn -0.1041 -0.9865 -0.1261
vn 0.0533 -0.9924 0.1108
vn 0.0559 -0.9939 0.0953
vn 0.1153 -0.9534 -0.2790
vn 0.2709 -0.9605 -0.0638
vn -0.0988 -0.9872 -0.1253
vn 0.0569 -0.9943 0.0899
vn 0.2655 -0.8465 0.4614
vn -0.2933 -0.9382 -0.1835
vn -0.2309 -0.9594 0.1618
vn 0.3586 -0.6867 0.6324
vn 0.6594 0.1168 0.7427
vn 0.7775 0.0733 0.6246
vn 0.4684 0.6815 0.5623
vn 0.6554 0.7212 0.2244
vn 0.1703 0.9406 0.2937
vn 0.2689 0.9480 -0.1700
vn -0.3010 0.8925 -0.3360
vn -0.3010 0.7573 -0.5795
vn -0.5671 0.0662 -0.8210
vn -0.7474 -0.1208 -0.6533
vn -0.5975 -0.7619 -0.2501
vn -0.4885 -0.6651 -0.5649
vn 0.2025 0.6314 -0.7486
vn 0.3764 -0.1894 -0.9069
vn -0.3835 -0.2489 -0.8894
vn -0.3324 0.5895 -0.7362
vn -0.9145 -0.2136 -0.3435
vn -0.7062 0.6143 -0.3520
vn -0.9057 -0.1042 0.4109
vn -0.7000 0.6913 0.1791
vn -0.3622 0.0153 0.9320
vn -0.3174 0.7754 0.5458
vn 0.3977 0.0748 0.9145
vn 0.2175 0.8174 0.5335
vn 0.9287 0.0395 0.3686
vn 0.5913 0.7925 0.1493
vn 0.9199 -0.0699 -0.3858
vn 0.5851 0.7155 -0.3818
vn 0.2918 -0.8405 -0.4565
vn -0.1780 -0.8773 -0.4456
vn -0.5063 -0.8555 -0.1081
vn -0.5009 -0.7879 0.3583
vn -0.1648 -0.7140 0.6805
vn 0.3050 -0.6772 0.6696
vn 0.6333 -0.6990 0.3321
vn 0.6278 -0.7667 -0.1343
vn 0.0806 -0.9866 0.1422
vn -0.3107 0.5699 -0.7607
vn 0.1972 0.6442 -0.7390
vn -0.7638 0.4930 -0.4167
vn -0.8515 0.4667 0.2388
vn -0.3676 0.5301 0.7641
vn 0.3386 0.6302 0.6987
vn 0.7035 0.6946 0.1501
vn 0.5903 0.6936 -0.4128
vn 0.2972 0.3409 -0.8919
vn -0.3956 0.1462 -0.9067
vn -0.8882 -0.1838 -0.4212
vn -0.8340 -0.4449 0.3263
vn -0.2610 -0.4686 0.8440
vn 0.4825 -0.2625 0.8356
vn 0.9541 0.0683 0.2916
vn 0.8475 0.3154 -0.4270
vn 0.1838 0.7106 -0.6792
vn -0.4410 0.4239 -0.7911
vn -0.8721 -0.2035 -0.4450
vn -0.6846 -0.6933 0.2249
vn -0.1340 -0.7004 0.7010
vn 0.5157 -0.2937 0.8049
vn 0.8715 0.3062 0.3831
vn 0.6989 0.6722 -0.2443
vn 0.1072 0.9780 -0.1791
vn 0.1791 0.9780 0.1072
vn 0.1658 0.9812 0.0992
vn 0.0992 0.9812 -0.1658
vn -0.1791 0.9780 -0.1071
vn -0.1658 0.9812 -0.0992
vn -0.1071 0.9780 0.1792
vn -0.0992 0.9812 0.1658
vn 0.1612 0.9822 0.0964
vn 0.0964 0.9822 -0.1612
vn -0.1612 0.9822 -0.0964
vn -0.0964 0.9822 0.1612
vn -0.1073 -0.9780 0.1791
vn -0.0992 -0.9812 0.1658
vn -0.1658 -0.9812 -0.0992
vn -0.1792 -0.9780 -0.1072
vn 0.1792 -0.9780 0.1072
vn 0.1658 -0.9812 0.0992
vn 0.1072 -0.9780 -0.1792
vn 0.0992 -0.9812 -0.1658
vn -0.0964 -0.9822 0.1612
vn -0.1612 -0.9822 -0.0964
vn 0.1612 -0.9822 0.0964
vn 0.0964 -0.9822 -0.1612
vn -0.6067 0.7364 0.2993
vn -0.8553 -0.0849 0.5111
vn -0.2471 -0.0367 0.9683
vn -0.1926 0.7716 0.6063
vn 0.5075 -0.0185 0.8614
vn 0.3168 0.7847 0.5328
vn 0.9666 -0.0411 0.2532
vn 0.6279 0.7685 0.1229
vn 0.8611 -0.0911 -0.5002
vn 0.5599 0.7321 -0.3881
vn 0.2529 -0.1393 -0.9574
vn 0.1476 0.6963 -0.7024
vn -0.5017 -0.1575 -0.8506
vn -0.3692 0.6825 -0.6308
vn -0.9608 -0.1349 -0.2423
vn -0.6822 0.6994 -0.2134
vn -0.5048 -0.7840 0.3612
vn -0.1288 -0.7542 0.6439
vn 0.3378 -0.7430 0.5778
vn 0.6216 -0.7569 0.2017
vn 0.5564 -0.7878 -0.2641
vn 0.1804 -0.8177 -0.5467
vn -0.2862 -0.8289 -0.4807
vn -0.5700 -0.8150 -0.1046
vn 0.0327 -0.9976 0.0616
vn -0.2218 0.7636 0.6064
vn -0.5948 0.7519 0.2844
vn 0.3207 0.7173 0.6186
vn 0.7561 0.6264 0.1893
vn 0.6962 0.5487 -0.4628
vn 0.1506 0.5412 -0.8273
vn -0.4335 0.6082 -0.6649
vn -0.6931 0.6935 -0.1965
vn -0.8081 0.4248 0.4080
vn -0.2793 0.3796 0.8820
vn 0.4162 0.0892 0.9049
vn 0.8765 -0.2840 0.3887
vn 0.7907 -0.4996 -0.3537
vn 0.2011 -0.4483 -0.8710
vn -0.5458 -0.1431 -0.8256
vn -0.9378 0.2210 -0.2678
vn -0.5909 0.7794 0.2083
vn -0.1092 0.7241 0.6810
vn 0.4973 0.2814 0.8207
vn 0.7980 -0.4118 0.4401
vn 0.5899 -0.7861 -0.1845
vn 0.0732 -0.7088 -0.7016
vn -0.5444 -0.1350 -0.8279
vn -0.7834 0.4881 -0.3848
vn 0.2485 0.9683 0.0246
vn 0.1012 0.9547 0.2799
vn 0.0972 0.9593 0.2653
vn 0.2336 0.9719 0.0288
vn -0.0071 0.9926 -0.1215
vn -0.0028 0.9943 -0.1064
vn -0.1544 0.9789 0.1337
vn -0.1392 0.9817 0.1301
vn 0.0959 0.9608 0.2602
vn 0.2285 0.9731 0.0303
vn -0.0014 0.9949 -0.1011
vn -0.1340 0.9826 0.1288
vn -0.2485 -0.9683 -0.0246
vn -0.2336 -0.9719 -0.0288
vn -0.0972 -0.9593 -0.2653
vn -0.1010 -0.9547 -0.2800
vn 0.0071 -0.9926 0.1215
vn 0.0028 -0.9943 0.1064
vn 0.1544 -0.9789 -0.1339
vn 0.1392 -0.9817 -0.1301
vn -0.2285 -0.9731 -0.0303
vn -0.0959 -0.9608 -0.2602
vn 0.0014 -0.9949 0.1011
vn 0.1340 -0.9826 -0.1288
vn 0.5102 -0.5830 0.6323
vn 0.0963 -0.9824 0.1598
vn 0.0186 -0.9388 0.3440
vn 0.5034 -0.3995 0.7662
vn 0.5601 0.5347 0.6328
vn 0.6588 0.5180 0.5456
vn 0.1561 0.9791 0.1303
vn 0.3987 0.9170 -0.0109
vn -0.0957 0.9825 -0.1599
vn 0.0086 0.9246 -0.3807
vn -0.5116 0.5854 -0.6289
vn -0.4698 0.6022 -0.6454
vn -0.5514 -0.5345 -0.6405
vn -0.7010 -0.4130 -0.5815
vn -0.1462 -0.9794 -0.1390
vn -0.3052 -0.9518 -0.0291
vn 0.4621 -0.6671 0.5844
vn 0.0909 -0.9839 0.1539
vn 0.5976 0.4279 0.6781
vn 0.1696 0.9746 0.1460
vn -0.0910 0.9838 -0.1546
vn -0.4640 0.6687 -0.5810
vn -0.5900 -0.4229 -0.6878
vn -0.1620 -0.9741 -0.1576
vn 0.6019 -0.5867 0.5418
vn 0.2444 -0.9680 0.0574
vn 0.5620 0.4639 0.6848
vn 0.0662 0.9232 0.3786
vn -0.3007 0.9535 -0.0211
vn -0.5681 0.6464 -0.5094
vn -0.5498 -0.2254 -0.8043
vn -0.0842 -0.9391 -0.3330
vn -0.3060 0.9508 0.0484
vn -0.9384 0.0776 -0.3367
vn -0.9629 -0.1739 0.2064
vn -0.6098 0.5835 0.5364
vn -0.5806 -0.7020 0.4126
vn -0.5532 -0.4995 0.6667
vn -0.1617 -0.9764 0.1432
vn -0.0696 -0.9735 0.2178
vn 0.0699 -0.9860 -0.1513
vn 0.2318 -0.9689 -0.0869
vn 0.2279 -0.7641 -0.6036
vn 0.6394 -0.5092 -0.5761
vn -0.0400 -0.2372 -0.9706
vn 0.5136 0.4280 -0.7436
vn -0.5763 0.0610 -0.8150
vn 0.0123 0.9343 -0.3562
vn -0.0099 0.9638 0.2666
vn 0.0361 0.9450 0.3251
vn 0.5547 0.8288 -0.0737
vn 0.4058 0.9083 -0.1017
vn 0.8406 0.1008 -0.5322
vn 0.7094 0.3807 -0.5932
vn 0.4654 -0.6534 -0.5970
vn 0.5229 -0.6289 -0.5754
vn -0.0540 -0.9308 -0.3614
vn 0.0755 -0.9750 -0.2090
vn -0.5607 -0.8268 0.0445
vn -0.2939 -0.9490 0.1139
vn -0.8335 -0.1303 0.5370
vn -0.7710 -0.2309 0.5935
vn -0.4626 0.6633 0.5882
vn -0.4790 0.6805 0.5545
vn 0.5959 -0.5832 -0.5521
vn 0.1528 -0.9825 -0.1069
vn 0.5931 0.5346 -0.6020
vn 0.1192 0.9791 -0.1646
vn -0.1531 0.9825 0.1065
vn -0.5926 0.5853 0.5534
vn -0.6014 -0.5345 0.5938
vn -0.1286 -0.9794 0.1554
vn 0.5514 -0.6672 -0.5008
vn 0.1474 -0.9839 -0.1012
vn 0.6357 0.4279 -0.6425
vn 0.1339 0.9747 -0.1790
vn -0.1479 0.9838 0.1013
vn -0.5479 0.6687 0.5027
vn -0.6458 -0.4230 0.6356
vn -0.1461 -0.9741 0.1724
vn -0.5478 0.6347 0.5451
vn 0.0866 0.8770 0.4726
vn 0.6993 0.7022 0.1334
vn 0.9388 0.1163 -0.3243
vn 0.6365 -0.5340 -0.5566
vn 0.0209 -0.8566 -0.5155
vn -0.6799 -0.7100 -0.1833
vn -0.9495 -0.0116 0.3134
s 1
f 1/1/1 2/2/2 3/3/3
f 3/3/3 4/4/4 1/1/1
f 4/4/4 3/3/3 5/5/5
f 5/5/5 6/6/6 4/4/4
f 6/6/6 5/5/5 7/7/7
f 7/7/7 8/8/8 6/6/6
f 8/8/8 7/7/7 9/9/9
f 9/9/9 10/10/10 8/8/8
f 10/10/10 9/9/9 11/11/11
f 11/11/11 12/12/12 10/10/10
f 12/12/12 11/11/11 13/13/13
f 13/13/13 14/14/14 12/12/12
f 14/14/14 13/13/13 15/15/15
f 15/15/15 16/16/16 14/14/14
f 16/16/16 15/15/15 2/17/2
f 2/17/2 1/18/1 16/16/16
f 2/2/2 17/19/17 18/20/18
f 18/20/18 3/3/3 2/2/2
f 3/3/3 18/20/18 19/21/19
f 19/21/19 5/5/5 3/3/3
f 5/5/5 19/21/19 20/22/20
f 20/22/20 7/7/7 5/5/5
f 7/7/7 20/22/20 21/23/21
f 21/23/21 9/9/9 7/7/7
f 9/9/9 21/23/21 22/24/22
f 22/24/22 11/11/11 9/9/9
f 11/11/11 22/24/22 23/25/23
f 23/25/23 13/13/13 11/11/11
f 13/13/13 23/25/23 24/26/24
f 24/26/24 15/15/15 13/13/13
f 15/15/15 24/26/24 17/27/17
f 17/27/17 2/17/2 15/15/15
f 25/28/25 18/20/18 17/19/17
f 25/28/25 19/21/19 18/20/18
f 25/28/25 20/22/20 19/21/19
f 25/28/25 21/23/21 20/22/20
f 25/28/25 22/24/22 21/23/21
f 25/28/25 23/25/23 22/24/22
f 25/28/25 24/26/24 23/25/23
f 25/28/25 17/27/17 24/26/24
f 26/29/26 27/30/27 1/1/1
f 1/1/1 4/4/4 26/29/26
f 28/31/28 26/29/26 4/4/4
f 4/4/4 6/6/6 28/31/28
f 29/32/29 28/31/28 6/6/6
f 6/6/6 8/8/8 29/32/29
f 30/33/30 29/32/29 8/8/8
f 8/8/8 10/10/10 30/33/30
f 31/34/31 30/33/30 10/10/10
f 10/10/10 12/12/12 31/34/31
f 32/35/32 31/34/31 12/12/12
f 12/12/12 14/14/14 32/35/32
f 33/36/33 32/35/32 14/14/14
f 14/14/14 16/16/16 33/36/33
f 27/37/27 33/36/33 16/16/16
f 16/16/16 1/18/1 27/37/27
f 34/38/34 27/39/27 26/40/26
f 26/40/26 35/41/35 34/38/34
f 35/41/35 26/40/26 28/42/28
f 28/42/28 36/43/36 35/41/35
f 36/43/36 28/42/28 29/44/29
f 29/44/29 37/45/37 36/43/36
f 37/45/37 29/44/29 30/46/30
f 30/46/30 38/47/38 37/45/37
f 39/48/39 38/47/38 30/46/30
f 30/46/30 31/49/31 39/48/39
f 40/50/40 39/48/39 31/49/31
f 31/49/31 32/51/32 40/50/40
f 41/52/41 40/50/40 32/51/32
f 32/51/32 33/53/33 41/52/41
f 34/54/34 41/52/41 33/53/33
f 33/53/33 27/55/27 34/54/34
s 2
f 42/56/42 43/57/43 44/58/44
f 44/58/44 45/59/45 42/56/42
f 46/60/46 42/56/42 45/59/45
f 45/59/45 47/61/47 46/60/46
f 48/62/48 46/60/46 47/61/47
f 47/61/47 49/63/49 48/62/48
f 43/57/43 48/62/48 49/63/49
f 49/63/49 44/58/44 43/57/43
f 45/59/45 44/58/44 50/64/50
f 50/64/50 51/65/51 45/59/45
f 47/61/47 45/59/45 51/65/51
f 51/65/51 52/66/52 47/61/47
f 49/63/49 47/61/47 52/66/52
f 52/66/52 53/67/53 49/63/49
f 44/58/44 49/63/49 53/67/53
f 53/67/53 50/64/50 44/58/44
s 3
f 54/68/54 55/69/55 56/70/56
f 56/70/56 57/71/57 54/68/54
f 58/72/58 59/73/59 55/69/55
f 55/69/55 54/68/54 58/72/58
f 60/74/60 61/75/61 59/73/59
f 59/73/59 58/72/58 60/74/60
f 57/71/57 56/70/56 61/75/61
f 61/75/61 60/74/60 57/71/57
f 55/69/55 62/76/62 63/77/63
f 63/77/63 56/70/56 55/69/55
f 59/73/59 64/78/64 62/76/62
f 62/76/62 55/69/55 59/73/59
f 61/75/61 65/79/65 64/78/64
f 64/78/64 59/73/59 61/75/61
f 56/70/56 63/77/63 65/79/65
f 65/79/65 61/75/61 56/70/56
s 4
f 66/80/66 67/81/67 68/82/68
f 68/82/68 69/83/69 66/80/66
f 69/83/69 68/82/68 70/84/70
f 70/84/70 71/85/71 69/83/69
f 71/85/71 70/84/70 72/86/72
f 72/86/72 73/87/73 71/85/71
f 73/87/73 72/86/72 74/88/74
f 74/88/74 75/89/75 73/87/73
f 75/89/75 74/88/74 76/90/76
f 76/90/76 77/91/77 75/89/75
f 77/91/77 76/90/76 78/92/78
f 78/92/78 79/93/79 77/91/77
f 79/93/79 78/92/78 80/94/80
f 80/94/80 81/95/81 79/93/79
f 81/95/81 80/94/80 67/96/67
f 67/96/67 66/97/66 81/95/81
f 67/81/67 82/98/82 83/99/83
f 83/99/83 68/82/68 67/81/67
f 68/82/68 83/99/83 84/100/84
f 84/100/84 70/84/70 68/82/68
f 70/84/70 84/100/84 85/101/85
f 85/101/85 72/86/72 70/84/70
f 72/86/72 85/101/85 86/102/86
f 86/102/86 74/88/74 72/86/72
f 74/88/74 86/102/86 87/103/87
f 87/103/87 76/90/76 74/88/74
f 76/90/76 87/103/87 88/104/88
f 88/104/88 78/92/78 76/90/76
f 78/92/78 88/104/88 89/105/89
f 89/105/89 80/94/80 78/92/78
f 80/94/80 89/105/89 82/106/82
f 82/106/82 67/96/67 80/94/80
f 90/107/90 83/99/83 82/98/82
f 90/107/90 84/100/84 83/99/83
f 90/107/90 85/101/85 84/100/84
f 90/107/90 86/102/86 85/101/85
f 90/107/90 87/103/87 86/102/86
f 90/107/90 88/104/88 87/103/87
f 90/107/90 89/105/89 88/104/88
f 90/107/90 82/106/82 89/105/89
f 91/108/91 92/109/92 66/80/66
f 66/80/66 69/83/69 91/108/91
f 93/110/93 91/108/91 69/83/69
f 69/83/69 71/85/71 93/110/93
f 94/111/94 93/110/93 71/85/71
f 71/85/71 73/87/73 94/111/94
f 95/112/95 94/111/94 73/87/73
f 73/87/73 75/89/75 95/112/95
f 96/113/96 95/112/95 75/89/75
f 75/89/75 77/91/77 96/113/96
f 97/114/97 96/113/96 77/91/77
f 77/91/77 79/93/79 97/114/97
f 98/115/98 97/114/97 79/93/79
f 79/93/79 81/95/81 98/115/98
f 92/116/92 98/115/98 81/95/81
f 81/95/81 66/97/66 92/116/92
f 99/117/99 92/118/92 91/119/91
f 91/119/91 100/120/100 99/117/99
f 100/120/100 91/119/91 93/121/93
f 93/121/93 101/122/101 100/120/100
f 101/122/101 93/121/93 94/123/94
f 94/123/94 102/124/102 101/122/101
f 102/124/102 94/123/94 95/125/95
f 95/125/95 103/126/103 102/124/102
f 95/125/95 96/127/96 104/128/104
f 104/128/104 103/126/103 95/125/95
f 96/127/96 97/129/97 105/130/105
f 105/130/105 104/128/104 96/127/96
f 97/129/97 98/131/98 106/132/106
f 106/132/106 105/130/105 97/129/97
f 98/131/98 92/133/92 99/134/99
f 99/134/99 106/132/106 98/131/98
s 5
f 107/135/107 108/136/108 109/137/109
f 109/137/109 110/138/110 107/135/107
f 111/139/111 107/135/107 110/138/110
f 110/138/110 112/140/112 111/139/111
f 113/141/113 111/139/111 112/140/112
f 112/140/112 114/142/114 113/141/113
f 108/136/108 113/141/113 114/142/114
f 114/142/114 109/137/109 108/136/108
f 110/138/110 109/137/109 115/143/115
f 115/143/115 116/144/116 110/138/110
f 112/140/112 110/138/110 116/144/116
f 116/144/116 117/145/117 112/140/112
f 114/142/114 112/140/112 117/145/117
f 117/145/117 118/146/118 114/142/114
f 109/137/109 114/142/114 118/146/118
f 118/146/118 115/143/115 109/137/109
s 6
f 119/147/119 120/148/120 121/149/121
f 121/149/121 122/150/122 119/147/119
f 123/151/123 124/152/124 120/148/120
f 120/148/120 119/147/119 123/151/123
f 125/153/125 126/154/126 124/152/124
f 124/152/124 123/151/123 125/153/125
f 122/150/122 121/149/121 126/154/126
f 126/154/126 125/153/125 122/150/122
f 120/148/120 127/155/127 128/156/128
f 128/156/128 121/149/121 120/148/120
f 124/152/124 129/157/129 127/155/127
f 127/155/127 120/148/120 124/152/124
f 126/154/126 130/158/130 129/157/129
f 129/157/129 124/152/124 126/154/126
f 121/149/121 128/156/128 130/158/130
f 130/158/130 126/154/126 121/149/121
s 4
f 131/159/131 132/160/132 133/161/133
f 133/161/133 134/162/134 131/159/131
f 134/162/134 133/161/133 135/163/135
f 135/163/135 136/164/136 134/162/134
f 136/164/136 135/163/135 137/165/137
f 137/165/137 138/166/138 136/164/136
f 138/166/138 137/165/137 139/167/139
f 139/167/139 140/168/140 138/166/138
f 140/168/140 139/167/139 141/169/141
f 141/169/141 142/170/142 140/168/140
f 142/170/142 141/169/141 143/171/143
f 143/171/143 144/172/144 142/170/142
f 144/172/144 143/171/143 145/173/145
f 145/173/145 146/174/146 144/172/144
f 146/174/146 145/173/145 132/175/132
f 132/175/132 131/176/131 146/174/146
f 132/160/132 147/177/147 148/178/148
f 148/178/148 133/161/133 132/160/132
f 133/161/133 148/178/148 149/179/149
f 149/179/149 135/163/135 133/161/133
f 135/163/135 149/179/149 150/180/150
f 150/180/150 137/165/137 135/163/135
f 137/165/137 150/180/150 151/181/151
f 151/181/151 139/167/139 137/165/137
f 139/167/139 151/181/151 152/182/152
f 152/182/152 141/169/141 139/167/139
f 141/169/141 152/182/152 153/183/153
f 153/183/153 143/171/143 141/169/141
f 143/171/143 153/183/153 154/184/154
f 154/184/154 145/173/145 143/171/143
f 145/173/145 154/184/154 147/185/147
f 147/185/147 132/175/132 145/173/145
f 155/186/155 148/178/148 147/177/147
f 155/186/155 149/179/149 148/178/148
f 155/186/155 150/180/150 149/179/149
f 155/186/155 151/181/151 150/180/150
f 155/186/155 152/182/152 151/181/151
f 155/186/155 153/183/153 152/182/152
f 155/186/155 154/184/154 153/183/153
f 155/186/155 147/185/147 154/184/154
f 156/187/156 157/188/157 131/159/131
f 131/159/131 134/162/134 156/187/156
f 158/189/158 156/187/156 134/162/134
f 134/162/134 136/164/136 158/189/158
f 159/190/159 158/189/158 136/164/136
f 136/164/136 138/166/138 159/190/159
f 160/191/160 159/190/159 138/166/138
f 138/166/138 140/168/140 160/191/160
f 161/192/161 160/191/160 140/168/140
f 140/168/140 142/170/142 161/192/161
f 162/193/162 161/192/161 142/170/142
f 142/170/142 144/172/144 162/193/162
f 163/194/163 162/193/162 144/172/144
f 144/172/144 146/174/146 163/194/163
f 157/195/157 163/194/163 146/174/146
f 146/174/146 131/176/131 157/195/157
f 164/196/164 157/197/157 156/198/156
f 156/198/156 165/199/165 164/196/164
f 165/199/165 156/198/156 158/200/158
f 158/200/158 166/201/166 165/199/165
f 166/201/166 158/200/158 159/202/159
f 159/202/159 167/203/167 166/201/166
f 167/203/167 159/202/159 160/204/160
f 160/204/160 168/205/168 167/203/167
f 169/206/169 168/205/168 160/204/160
f 160/204/160 161/207/161 169/206/169
f 170/208/170 169/206/169 161/207/161
f 161/207/161 162/209/162 170/208/170
f 171/210/171 170/208/170 162/209/162
f 162/209/162 163/211/163 171/210/171
f 164/212/164 171/210/171 163/211/163
f 163/211/163 157/213/157 164/212/164
f 172/214/172 164/196/164 165/199/165
f 165/199/165 173/215/173 172/214/172
f 173/215/173 165/199/165 166/201/166
f 166/201/166 174/216/174 173/215/173
f 174/216/174 166/201/166 167/203/167
f 167/203/167 175/217/175 174/216/174
f 175/217/175 167/203/167 168/205/168
f 168/205/168 176/218/176 175/217/175
f 176/218/176 168/205/168 169/206/169
f 169/206/169 177/219/177 176/218/176
f 177/219/177 169/206/169 170/208/170
f 170/208/170 178/220/178 177/219/177
f 178/220/178 170/208/170 171/210/171
f 171/210/171 179/221/179 178/220/178
f 179/221/179 171/210/171 164/212/164
f 164/212/164 172/222/172 179/221/179
s 7
f 180/223/180 181/224/181 182/225/182
f 182/225/182 183/226/183 180/223/180
f 184/227/184 180/223/180 183/226/183
f 183/226/183 185/228/185 184/227/184
f 186/229/186 184/227/184 185/228/185
f 185/228/185 187/230/187 186/229/186
f 181/224/181 186/229/186 187/230/187
f 187/230/187 182/225/182 181/224/181
f 183/226/183 182/225/182 188/231/188
f 188/231/188 189/232/189 183/226/183
f 185/228/185 183/226/183 189/232/189
f 189/232/189 190/233/190 185/228/185
f 187/230/187 185/228/185 190/233/190
f 190/233/190 191/234/191 187/230/187
f 182/225/182 187/230/187 191/234/191
f 191/234/191 188/231/188 182/225/182
s 8
f 192/235/192 193/236/193 194/237/194
f 194/237/194 195/238/195 192/235/192
f 196/239/196 197/240/197 193/236/193
f 193/236/193 192/235/192 196/239/196
f 198/241/198 199/242/199 197/240/197
f 197/240/197 196/239/196 198/241/198
f 195/238/195 194/237/194 199/242/199
f 199/242/199 198/241/198 195/238/195
f 193/236/193 200/243/200 201/244/201
f 201/244/201 194/237/194 193/236/193
f 197/240/197 202/245/202 200/243/200
f 200/243/200 193/236/193 197/240/197
f 199/242/199 203/246/203 202/245/202
f 202/245/202 197/240/197 199/242/199
f 194/237/194 201/244/201 203/246/203
f 203/246/203 199/242/199 194/237/194
s 4
f 204/247/204 205/248/205 206/249/206
f 206/249/206 207/250/207 204/247/204
f 208/251/208 204/247/204 207/250/207
f 207/250/207 209/252/209 208/251/208
f 210/253/210 208/251/208 209/252/209
f 209/252/209 211/254/211 210/253/210
f 212/255/212 210/253/210 211/254/211
f 211/254/211 213/256/213 212/255/212
f 214/257/214 212/258/212 213/259/213
f 213/259/213 215/260/215 214/257/214
f 216/261/216 214/257/214 215/260/215
f 215/260/215 217/262/217 216/261/216
f 216/261/216 217/262/217 218/263/218
f 218/263/218 219/264/219 216/261/216
f 205/248/205 219/264/219 218/263/218
f 218/263/218 206/249/206 205/248/205
f 175/217/175 176/218/176 205/248/205
f 205/248/205 204/247/204 175/217/175
f 174/216/174 175/217/175 204/247/204
f 204/247/204 208/251/208 174/216/174
f 173/215/173 174/216/174 208/251/208
f 208/251/208 210/253/210 173/215/173
f 172/214/172 173/215/173 210/253/210
f 210/253/210 212/255/212 172/214/172
f 179/221/179 172/222/172 212/258/212
f 212/258/212 214/257/214 179/221/179
f 178/220/178 179/221/179 214/257/214
f 214/257/214 216/261/216 178/220/178
f 177/219/177 178/220/178 216/261/216
f 216/261/216 219/264/219 177/219/177
f 176/218/176 177/219/177 219/264/219
f 219/264/219 205/248/205 176/218/176
f 213/259/213 99/117/99 100/120/100
f 100/120/100 215/260/215 213/259/213
f 215/260/215 100/120/100 101/122/101
f 101/122/101 217/262/217 215/260/215
f 217/262/217 101/122/101 102/124/102
f 102/124/102 218/263/218 217/262/217
f 218/263/218 102/124/102 103/126/103
f 103/126/103 206/249/206 218/263/218
f 206/249/206 103/126/103 104/128/104
f 104/128/104 207/250/207 206/249/206
f 207/250/207 104/128/104 105/130/105
f 105/130/105 209/252/209 207/250/207
f 209/252/209 105/130/105 106/132/106
f 106/132/106 211/254/211 209/252/209
f 211/254/211 106/132/106 99/134/99
f 99/134/99 213/256/213 211/254/211
s 9
f 220/265/220 221/266/221 222/267/222
f 222/267/222 223/268/223 220/265/220
f 223/268/223 222/267/222 224/269/224
f 224/269/224 225/270/225 223/268/223
f 225/270/225 224/269/224 226/271/226
f 226/271/226 227/272/227 225/270/225
f 227/272/227 226/271/226 228/273/228
f 228/273/228 229/274/229 227/272/227
f 229/274/229 228/273/228 230/275/230
f 230/275/230 231/276/231 229/274/229
f 231/276/231 230/275/230 232/277/232
f 232/277/232 233/278/233 231/276/231
f 233/278/233 232/277/232 234/279/234
f 234/279/234 235/280/235 233/278/233
f 235/280/235 234/279/234 221/281/221
f 221/281/221 220/282/220 235/280/235
f 221/266/221 236/283/236 237/284/237
f 237/284/237 222/267/222 221/266/221
f 222/267/222 237/284/237 238/285/238
f 238/285/238 224/269/224 222/267/222
f 224/269/224 238/285/238 239/286/239
f 239/286/239 226/271/226 224/269/224
f 226/271/226 239/286/239 240/287/240
f 240/287/240 228/273/228 226/271/226
f 228/273/228 240/287/240 241/288/241
f 241/288/241 230/275/230 228/273/228
f 230/275/230 241/288/241 242/289/242
f 242/289/242 232/277/232 230/275/230
f 232/277/232 242/289/242 243/290/243
f 243/290/243 234/279/234 232/277/232
f 234/279/234 243/290/243 236/291/236
f 236/291/236 221/281/221 234/279/234
f 244/292/244 237/284/237 236/283/236
f 244/292/244 238/285/238 237/284/237
f 244/292/244 239/286/239 238/285/238
f 244/292/244 240/287/240 239/286/239
f 244/292/244 241/288/241 240/287/240
f 244/292/244 242/289/242 241/288/241
f 244/292/244 243/290/243 242/289/242
f 244/292/244 236/291/236 243/290/243
f 245/293/245 246/294/246 220/265/220
f 220/265/220 223/268/223 245/293/245
f 247/295/247 245/293/245 223/268/223
f 223/268/223 225/270/225 247/295/247
f 248/296/248 247/295/247 225/270/225
f 225/270/225 227/272/227 248/296/248
f 249/297/249 248/296/248 227/272/227
f 227/272/227 229/274/229 249/297/249
f 250/298/250 249/297/249 229/274/229
f 229/274/229 231/276/231 250/298/250
f 251/299/251 250/298/250 231/276/231
f 231/276/231 233/278/233 251/299/251
f 252/300/252 251/299/251 233/278/233
f 233/278/233 235/280/235 252/300/252
f 246/301/246 252/300/252 235/280/235
f 235/280/235 220/282/220 246/301/246
f 253/302/253 246/303/246 245/304/245
f 245/304/245 254/305/254 253/302/253
f 254/305/254 245/304/245 247/306/247
f 247/306/247 255/307/255 254/305/254
f 255/307/255 247/306/247 248/308/248
f 248/308/248 256/309/256 255/307/255
f 256/309/256 248/308/248 249/310/249
f 249/310/249 257/311/257 256/309/256
f 258/312/258 257/311/257 249/310/249
f 249/310/249 250/313/250 258/312/258
f 259/314/259 258/312/258 250/313/250
f 250/313/250 251/315/251 259/314/259
f 260/316/260 259/314/259 251/315/251
f 251/315/251 252/317/252 260/316/260
f 253/318/253 260/316/260 252/317/252
f 252/317/252 246/319/246 253/318/253
f 261/320/261 253/302/253 254/305/254
f 254/305/254 262/321/262 261/320/261
f 262/321/262 254/305/254 255/307/255
f 255/307/255 263/322/263 262/321/262
f 263/322/263 255/307/255 256/309/256
f 256/309/256 264/323/264 263/322/263
f 264/323/264 256/309/256 257/311/257
f 257/311/257 265/324/265 264/323/264
f 265/324/265 257/311/257 258/312/258
f 258/312/258 266/325/266 265/324/265
f 266/325/266 258/312/258 259/314/259
f 259/314/259 267/326/267 266/325/266
f 267/326/267 259/314/259 260/316/260
f 260/316/260 268/327/268 267/326/267
f 268/327/268 260/316/260 253/318/253
f 253/318/253 261/328/261 268/327/268
s 10
f 269/329/269 270/330/270 271/331/271
f 271/331/271 272/332/272 269/329/269
f 273/333/273 269/329/269 272/332/272
f 272/332/272 274/334/274 273/333/273
f 275/335/275 273/333/273 274/334/274
f 274/334/274 276/336/276 275/335/275
f 270/330/270 275/335/275 276/336/276
f 276/336/276 271/331/271 270/330/270
f 272/332/272 271/331/271 277/337/277
f 277/337/277 278/338/278 272/332/272
f 274/334/274 272/332/272 278/338/278
f 278/338/278 279/339/279 274/334/274
f 276/336/276 274/334/274 279/339/279
f 279/339/279 280/340/280 276/336/276
f 271/331/271 276/336/276 280/340/280
f 280/340/280 277/337/277 271/331/271
s 11
f 281/341/281 282/342/282 283/343/283
f 283/343/283 284/344/284 281/341/281
f 285/345/285 286/346/286 282/342/282
f 282/342/282 281/341/281 285/345/285
f 287/347/287 288/348/288 286/346/286
f 286/346/286 285/345/285 287/347/287
f 284/344/284 283/343/283 288/348/288
f 288/348/288 287/347/287 284/344/284
f 282/342/282 289/349/289 290/350/290
f 290/350/290 283/343/283 282/342/282
f 286/346/286 291/351/291 289/349/289
f 289/349/289 282/342/282 286/346/286
f 288/348/288 292/352/292 291/351/291
f 291/351/291 286/346/286 288/348/288
f 283/343/283 290/350/290 292/352/292
f 292/352/292 288/348/288 283/343/283
s 9
f 293/353/293 294/354/294 295/355/295
f 295/355/295 296/356/296 293/353/293
f 296/356/296 295/355/295 297/357/297
f 297/357/297 298/358/298 296/356/296
f 298/358/298 297/357/297 299/359/299
f 299/359/299 300/360/300 298/358/298
f 300/360/300 299/359/299 301/361/301
f 301/361/301 302/362/302 300/360/300
f 302/362/302 301/361/301 303/363/303
f 303/363/303 304/364/304 302/362/302
f 304/364/304 303/363/303 305/365/305
f 305/365/305 306/366/306 304/364/304
f 306/366/306 305/365/305 307/367/307
f 307/367/307 308/368/308 306/366/306
f 308/368/308 307/367/307 294/369/294
f 294/369/294 293/370/293 308/368/308
f 294/354/294 309/371/309 310/372/310
f 310/372/310 295/355/295 294/354/294
f 295/355/295 310/372/310 311/373/311
f 311/373/311 297/357/297 295/355/295
f 297/357/297 311/373/311 312/374/312
f 312/374/312 299/359/299 297/357/297
f 299/359/299 312/374/312 313/375/313
f 313/375/313 301/361/301 299/359/299
f 301/361/301 313/375/313 314/376/314
f 314/376/314 303/363/303 301/361/301
f 303/363/303 314/376/314 315/377/315
f 315/377/315 305/365/305 303/363/303
f 305/365/305 315/377/315 316/378/316
f 316/378/316 307/367/307 305/365/305
f 307/367/307 316/378/316 309/379/309
f 309/379/309 294/369/294 307/367/307
f 317/380/317 310/372/310 309/371/309
f 317/380/317 311/373/311 310/372/310
f 317/380/317 312/374/312 311/373/311
f 317/380/317 313/375/313 312/374/312
f 317/380/317 314/376/314 313/375/313
f 317/380/317 315/377/315 314/376/314
f 317/380/317 316/378/316 315/377/315
f 317/380/317 309/379/309 316/378/316
f 318/381/318 319/382/319 293/353/293
f 293/353/293 296/356/296 318/381/318
f 320/383/320 318/381/318 296/356/296
f 296/356/296 298/358/298 320/383/320
f 321/384/321 320/383/320 298/358/298
f 298/358/298 300/360/300 321/384/321
f 322/385/322 321/384/321 300/360/300
f 300/360/300 302/362/302 322/385/322
f 323/386/323 322/385/322 302/362/302
f 302/362/302 304/364/304 323/386/323
f 324/387/324 323/386/323 304/364/304
f 304/364/304 306/366/306 324/387/324
f 325/388/325 324/387/324 306/366/306
f 306/366/306 308/368/308 325/388/325
f 319/389/319 325/388/325 308/368/308
f 308/368/308 293/370/293 319/389/319
f 326/390/326 319/391/319 318/392/318
f 318/392/318 327/393/327 326/390/326
f 327/393/327 318/392/318 320/394/320
f 320/394/320 328/395/328 327/393/327
f 328/395/328 320/394/320 321/396/321
f 321/396/321 329/397/329 328/395/328
f 329/397/329 321/396/321 322/398/322
f 322/398/322 330/399/330 329/397/329
f 331/400/331 330/399/330 322/398/322
f 322/398/322 323/401/323 331/400/331
f 332/402/332 331/400/331 323/401/323
f 323/401/323 324/403/324 332/402/332
f 333/404/333 332/402/332 324/403/324
f 324/403/324 325/405/325 333/404/333
f 326/406/326 333/404/333 325/405/325
f 325/405/325 319/407/319 326/406/326
f 334/408/334 326/390/326 327/393/327
f 327/393/327 335/409/335 334/408/334
f 335/409/335 327/393/327 328/395/328
f 328/395/328 336/410/336 335/409/335
f 336/410/336 328/395/328 329/397/329
f 329/397/329 337/411/337 336/410/336
f 337/411/337 329/397/329 330/399/330
f 330/399/330 338/412/338 337/411/337
f 338/412/338 330/399/330 331/400/331
f 331/400/331 339/413/339 338/412/338
f 339/413/339 331/400/331 332/402/332
f 332/402/332 340/414/340 339/413/339
f 340/414/340 332/402/332 333/404/333
f 333/404/333 341/415/341 340/414/340
f 341/415/341 333/404/333 326/406/326
f 326/406/326 334/416/334 341/415/341
s 12
f 342/417/342 343/418/343 344/419/344
f 344/419/344 345/420/345 342/417/342
f 346/421/346 342/417/342 345/420/345
f 345/420/345 347/422/347 346/421/346
f 348/423/348 346/421/346 347/422/347
f 347/422/347 349/424/349 348/423/348
f 343/418/343 348/423/348 349/424/349
f 349/424/349 344/419/344 343/418/343
f 345/420/345 344/419/344 350/425/350
f 350/425/350 351/426/351 345/420/345
f 347/422/347 345/420/345 351/426/351
f 351/426/351 352/427/352 347/422/347
f 349/424/349 347/422/347 352/427/352
f 352/427/352 353/428/353 349/424/349
f 344/419/344 349/424/349 353/428/353
f 353/428/353 350/425/350 344/419/344
s 13
f 354/429/354 355/430/355 356/431/356
f 356/431/356 357/432/357 354/429/354
f 358/433/358 359/434/359 355/430/355
f 355/430/355 354/429/354 358/433/358
f 360/435/360 361/436/361 359/434/359
f 359/434/359 358/433/358 360/435/360
f 357/432/357 356/431/356 361/436/361
f 361/436/361 360/435/360 357/432/357
f 355/430/355 362/437/362 363/438/363
f 363/438/363 356/431/356 355/430/355
f 359/434/359 364/439/364 362/437/362
f 362/437/362 355/430/355 359/434/359
f 361/436/361 365/440/365 364/439/364
f 364/439/364 359/434/359 361/436/361
f 356/431/356 363/438/363 365/440/365
f 365/440/365 361/436/361 356/431/356
s 9
f 366/441/366 367/442/367 368/443/368
f 368/443/368 369/444/369 366/441/366
f 370/445/370 366/441/366 369/444/369
f 369/444/369 371/446/371 370/445/370
f 372/447/372 370/445/370 371/446/371
f 371/446/371 373/448/373 372/447/372
f 374/449/374 372/447/372 373/448/373
f 373/448/373 375/450/375 374/449/374
f 376/451/376 374/452/374 375/453/375
f 375/453/375 377/454/377 376/451/376
f 378/455/378 376/451/376 377/454/377
f 377/454/377 379/456/379 378/455/378
f 380/457/380 378/455/378 379/456/379
f 379/456/379 381/458/381 380/457/380
f 367/442/367 380/457/380 381/458/381
f 381/458/381 368/443/368 367/442/367
f 382/459/382 383/460/383 367/442/367
f 367/442/367 366/441/366 382/459/382
f 384/461/384 382/459/382 366/441/366
f 366/441/366 370/445/370 384/461/384
f 385/462/385 384/461/384 370/445/370
f 370/445/370 372/447/372 385/462/385
f 386/463/386 385/462/385 372/447/372
f 372/447/372 374/449/374 386/463/386
f 387/464/387 386/465/386 374/452/374
f 374/452/374 376/451/376 387/464/387
f 388/466/388 387/464/387 376/451/376
f 376/451/376 378/455/378 388/466/388
f 389/467/389 388/466/388 378/455/378
f 378/455/378 380/457/380 389/467/389
f 383/460/383 389/467/389 380/457/380
f 380/457/380 367/442/367 383/460/383
f 390/468/390 391/469/391 383/460/383
f 383/460/383 382/459/382 390/468/390
f 392/470/392 390/468/390 382/459/382
f 382/459/382 384/461/384 392/470/392
f 393/471/393 392/470/392 384/461/384
f 384/461/384 385/462/385 393/471/393
f 394/472/394 393/471/393 385/462/385
f 385/462/385 386/463/386 394/472/394
f 395/473/395 394/474/394 386/465/386
f 386/465/386 387/464/387 395/473/395
f 396/475/396 395/473/395 387/464/387
f 387/464/387 388/466/388 396/475/396
f 397/476/397 396/475/396 388/466/388
f 388/466/388 389/467/389 397/476/397
f 391/469/391 397/476/397 389/467/389
f 389/467/389 383/460/383 391/469/391
f 375/453/375 261/320/261 262/321/262
f 262/321/262 377/454/377 375/453/375
f 377/454/377 262/321/262 263/322/263
f 263/322/263 379/456/379 377/454/377
f 379/456/379 263/322/263 264/323/264
f 264/323/264 381/458/381 379/456/379
f 381/458/381 264/323/264 265/324/265
f 265/324/265 368/443/368 381/458/381
f 368/443/368 265/324/265 266/325/266
f 266/325/266 369/444/369 368/443/368
f 369/444/369 266/325/266 267/326/267
f 267/326/267 371/446/371 369/444/369
f 371/446/371 267/326/267 268/327/268
f 268/327/268 373/448/373 371/446/371
f 373/448/373 268/327/268 261/328/261
f 261/328/261 375/450/375 373/448/373
f 394/472/394 334/408/334 335/409/335
f 335/409/335 393/471/393 394/472/394
f 393/471/393 335/409/335 336/410/336
f 336/410/336 392/470/392 393/471/393
f 392/470/392 336/410/336 337/411/337
f 337/411/337 390/468/390 392/470/392
f 390/468/390 337/411/337 338/412/338
f 338/412/338 391/469/391 390/468/390
f 391/469/391 338/412/338 339/413/339
f 339/413/339 397/476/397 391/469/391
f 397/476/397 339/413/339 340/414/340
f 340/414/340 396/475/396 397/476/397
f 396/475/396 340/414/340 341/415/341
f 341/415/341 395/473/395 396/475/396
f 395/473/395 341/415/341 334/416/334
f 334/416/334 394/474/394 395/473/395
s 1
f 398/477/398 399/478/399 400/479/400
f 400/479/400 401/480/401 398/477/398
f 401/480/401 400/479/400 402/481/402
f 402/481/402 403/482/403 401/480/401
f 403/482/403 402/481/402 404/483/404
f 404/483/404 405/484/405 403/482/403
f 405/484/405 404/483/404 406/485/406
f 406/485/406 407/486/407 405/484/405
f 407/486/407 406/485/406 408/487/408
f 408/487/408 409/488/409 407/486/407
f 409/488/409 408/487/408 410/489/410
f 410/489/410 411/490/411 409/488/409
f 411/490/411 410/489/410 412/491/412
f 412/491/412 413/492/413 411/490/411
f 413/492/413 412/491/412 399/493/399
f 399/493/399 398/494/398 413/492/413
f 414/495/414 415/496/415 416/497/416
f 416/497/416 417/498/417 414/495/414
f 417/498/417 416/497/416 418/499/418
f 418/499/418 419/500/419 417/498/417
f 419/500/419 418/499/418 420/501/420
f 420/501/420 421/502/421 419/500/419
f 421/502/421 420/501/420 422/503/422
f 422/503/422 423/504/423 421/502/421
f 423/504/423 422/503/422 424/505/424
f 424/505/424 425/506/425 423/504/423
f 425/506/425 424/505/424 426/507/426
f 426/507/426 427/508/427 425/506/425
f 427/508/427 426/507/426 428/509/428
f 428/509/428 429/510/429 427/508/427
f 429/510/429 428/509/428 415/511/415
f 415/511/415 414/512/414 429/510/429
f 430/513/430 431/514/431 407/486/407
f 407/486/407 409/488/409 430/513/430
f 432/515/432 430/513/430 409/488/409
f 409/488/409 411/490/411 432/515/432
f 433/516/433 432/515/432 411/490/411
f 411/490/411 413/492/413 433/516/433
f 434/517/434 433/516/433 413/492/413
f 413/492/413 398/494/398 434/517/434
f 435/518/435 434/519/434 398/477/398
f 398/477/398 401/480/401 435/518/435
f 436/520/436 435/518/435 401/480/401
f 401/480/401 403/482/403 436/520/436
f 437/521/437 436/520/436 403/482/403
f 403/482/403 405/484/405 437/521/437
f 431/514/431 437/521/437 405/484/405
f 405/484/405 407/486/407 431/514/431
f 438/522/438 439/523/439 431/514/431
f 431/514/431 430/513/430 438/522/438
f 440/524/440 438/522/438 430/513/430
f 430/513/430 432/515/432 440/524/440
f 441/525/441 440/524/440 432/515/432
f 432/515/432 433/516/433 441/525/441
f 442/526/442 441/525/441 433/516/433
f 433/516/433 434/517/434 442/526/442
f 443/527/443 442/528/442 434/519/434
f 434/519/434 435/518/435 443/527/443
f 444/529/444 443/527/443 435/518/435
f 435/518/435 436/520/436 444/529/444
f 445/530/445 444/529/444 436/520/436
f 436/520/436 437/521/437 445/530/445
f 439/523/439 445/530/445 437/521/437
f 437/521/437 431/514/431 439/523/439
f 421/502/421 423/504/423 439/523/439
f 439/523/439 438/522/438 421/502/421
f 419/500/419 421/502/421 438/522/438
f 438/522/438 440/524/440 419/500/419
f 417/498/417 419/500/419 440/524/440
f 440/524/440 441/525/441 417/498/417
f 414/495/414 417/498/417 441/525/441
f 441/525/441 442/526/442 414/495/414
f 429/510/429 414/512/414 442/528/442
f 442/528/442 443/527/443 429/510/429
f 427/508/427 429/510/429 443/527/443
f 443/527/443 444/529/444 427/508/427
f 425/506/425 427/508/427 444/529/444
f 444/529/444 445/530/445 425/506/425
f 423/504/423 425/506/425 445/530/445
f 445/530/445 439/523/439 423/504/423
f 404/483/404 402/481/402 400/479/400
f 400/479/400 399/478/399 412/491/412
f 412/491/412 410/489/410 408/487/408
f 400/479/400 412/491/412 408/487/408
f 404/483/404 400/479/400 408/487/408
f 404/483/404 408/487/408 406/485/406
f 415/511/415 428/509/428 446/531/446
f 446/531/446 447/532/447 415/511/415
f 416/497/416 415/496/415 447/532/447
f 447/532/447 448/533/448 416/497/416
f 418/499/418 416/497/416 448/534/448
f 448/534/448 449/535/449 418/499/418
f 420/501/420 418/499/418 449/535/449
f 449/535/449 450/536/450 420/501/420
f 422/503/422 420/501/420 450/536/450
f 450/536/450 451/537/451 422/503/422
f 424/505/424 422/503/422 451/537/451
f 451/537/451 452/538/452 424/505/424
f 426/507/426 424/505/424 452/538/452
f 452/538/452 453/539/453 426/507/426
f 428/509/428 426/507/426 453/539/453
f 453/539/453 446/531/446 428/509/428
f 448/534/448 34/38/34 35/41/35
f 35/41/35 449/535/449 448/534/448
f 449/535/449 35/41/35 36/43/36
f 36/43/36 450/536/450 449/535/449
f 450/536/450 36/43/36 37/45/37
f 37/45/37 451/537/451 450/536/450
f 451/537/451 37/45/37 38/47/38
f 38/47/38 452/538/452 451/537/451
f 452/538/452 38/47/38 39/48/39
f 39/48/39 453/539/453 452/538/452
f 453/539/453 39/48/39 40/50/40
f 40/50/40 446/531/446 453/539/453
f 446/531/446 40/50/40 41/52/41
f 41/52/41 447/532/447 446/531/446
f 447/532/447 41/52/41 34/54/34
f 34/54/34 448/533/448 447/532/447
