# Blender v3.3.0 OBJ File: ''
# www.blender.org
o PlantTomatoStage00.005
v -0.001082 0.044359 0.001683
v -0.002031 0.044359 -0.000063
v -0.002897 0.000000 -0.000085
v -0.001534 -0.000000 0.002422
v 0.000905 0.044359 0.001734
v 0.001319 -0.000000 0.002495
v 0.001943 0.044359 0.000039
v 0.002809 -0.000000 0.000061
v 0.000993 0.044359 -0.001708
v 0.001445 0.000000 -0.002446
v -0.000994 0.044359 -0.001759
v -0.001408 0.000000 -0.002520
v -0.000227 0.097789 0.000204
v -0.007734 0.064786 -0.000181
v -0.006869 0.064793 0.001409
v 0.000503 0.097789 0.001546
v -0.005104 0.064815 0.001368
v 0.001652 0.097789 0.000890
v -0.004113 0.064811 -0.000089
v 0.002828 0.097789 0.000282
v -0.004978 0.064805 -0.001679
v 0.002098 0.097789 -0.001060
v -0.006789 0.064792 -0.001726
v 0.000571 0.097789 -0.001099
v -0.002499 0.140054 0.000374
v -0.002747 0.140054 -0.000081
v 0.000410 0.115709 -0.000001
v 0.000966 0.115705 0.001022
v -0.001981 0.140054 0.000387
v 0.002132 0.115696 0.001052
v -0.001710 0.140054 -0.000055
v 0.002741 0.115692 0.000059
v -0.001958 0.140054 -0.000511
v 0.002183 0.115696 -0.000964
v -0.002476 0.140054 -0.000524
v 0.001018 0.115705 -0.000994
v -0.009183 0.155259 -0.000246
v -0.000034 0.089175 0.000421
v -0.001076 0.089616 0.000759
v -0.002151 0.089175 0.000552
v -0.002185 0.088293 0.000006
v -0.001143 0.087851 -0.000332
v -0.000067 0.088293 -0.000124
v -0.001418 0.092852 -0.010650
v -0.000372 0.092388 -0.010924
v -0.001392 0.093778 -0.010234
v -0.000321 0.094242 -0.010091
v 0.000725 0.093778 -0.010364
v 0.000699 0.092852 -0.010781
v -0.002266 0.096156 -0.024387
v -0.001216 0.095676 -0.024593
v -0.002249 0.097115 -0.024105
v -0.001182 0.097595 -0.024029
v -0.000132 0.097115 -0.024235
v -0.000149 0.096156 -0.024517
v -0.003134 0.096243 -0.038445
v -0.002080 0.095753 -0.038583
v -0.003126 0.097221 -0.038300
v -0.002062 0.097711 -0.038294
v -0.001008 0.097221 -0.038431
v -0.001017 0.096243 -0.038576
v -0.004098 0.093083 -0.052365
v -0.003174 0.092474 -0.052094
v -0.003874 0.093938 -0.052929
v -0.002725 0.094186 -0.053221
v -0.001800 0.093578 -0.052948
v -0.002025 0.092722 -0.052384
v -0.000841 0.097813 -0.038602
v -0.018099 0.094823 -0.044063
v -0.021175 0.090795 -0.034042
v -0.003918 0.093785 -0.028581
v -0.005651 0.094310 -0.055058
v 0.001405 0.094921 -0.038382
v 0.010450 0.095909 -0.042118
v 0.003395 0.095298 -0.058794
v -0.000806 0.092518 -0.051047
v 0.001467 0.094495 -0.059225
v -0.015569 0.097339 -0.064297
v -0.017842 0.095362 -0.056119
v -0.027511 0.093382 -0.031454
v -0.025012 0.092770 -0.013520
v -0.000749 0.096812 -0.016689
v -0.003249 0.097424 -0.034623
v 0.000777 0.113561 0.000988
v 0.001388 0.113969 0.000178
v 0.002314 0.113561 -0.000236
v 0.002630 0.112743 0.000160
v 0.002018 0.112335 0.000970
v 0.001092 0.112743 0.001384
v 0.010257 0.116967 0.009737
v 0.009608 0.116537 0.010500
v 0.010016 0.117825 0.009434
v 0.009127 0.118255 0.009896
v 0.008479 0.117825 0.010659
v 0.008719 0.116967 0.010961
v 0.021078 0.120970 0.022141
v 0.020878 0.120840 0.022349
v 0.021031 0.121229 0.022081
v 0.020783 0.121359 0.022230
v 0.020582 0.121229 0.022438
v 0.020630 0.120970 0.022498
v 0.029817 0.121445 0.023899
v 0.041207 0.116817 0.020321
v 0.036041 0.116251 0.004361
v 0.024652 0.120879 0.007939
v 0.004398 0.115493 0.004805
v -0.013392 0.113790 0.019452
v -0.009171 0.116041 0.024773
v 0.008619 0.117745 0.010126
v 0.005949 0.120072 0.020041
v 0.000862 0.117105 0.028008
v 0.011717 0.116672 0.034809
v 0.016804 0.119639 0.026842
v -0.003141 0.141727 0.000123
v -0.003102 0.141854 -0.000190
v -0.002917 0.141727 -0.000445
v -0.002771 0.141473 -0.000387
v -0.002810 0.141346 -0.000075
v -0.002994 0.141473 0.000181
v 0.004483 0.144488 0.002626
v 0.004363 0.144328 0.002994
v 0.004224 0.144810 0.002570
v 0.003844 0.144971 0.002882
v 0.003723 0.144810 0.003250
v 0.003983 0.144488 0.003306
v 0.012710 0.146822 0.006235
v 0.012690 0.146785 0.006315
v 0.012690 0.146896 0.006227
v 0.012650 0.146933 0.006299
v 0.012630 0.146896 0.006379
v 0.012650 0.146822 0.006387
v 0.002367 0.144731 0.002260
v -0.003440 0.143507 0.017764
v 0.002084 0.144457 0.019949
v 0.007891 0.145681 0.004445
v -0.000159 0.126530 -0.000414
v 0.000170 0.126666 -0.000345
v 0.000423 0.126530 -0.000125
v 0.000349 0.126260 0.000025
v 0.000020 0.126125 -0.000045
v -0.000234 0.126260 -0.000264
v -0.004204 0.129297 0.007058
v -0.004536 0.129150 0.006967
v -0.004145 0.129592 0.006939
v -0.004418 0.129739 0.006730
v -0.004749 0.129592 0.006639
v -0.004808 0.129297 0.006757
v -0.008297 0.131502 0.015279
v -0.008619 0.131349 0.015169
v -0.008257 0.131807 0.015199
v -0.008539 0.131959 0.015009
v -0.008861 0.131807 0.014898
v -0.008901 0.131502 0.014979
v -0.012486 0.131563 0.023693
v -0.012798 0.131408 0.023564
v -0.012466 0.131874 0.023652
v -0.012757 0.132030 0.023481
v -0.013070 0.131874 0.023351
v -0.013090 0.131563 0.023393
v -0.016749 0.129399 0.032082
v -0.016897 0.129263 0.031927
v -0.016856 0.129590 0.032166
v -0.017110 0.129645 0.032095
v -0.017258 0.129510 0.031939
v -0.017152 0.129319 0.031855
v -0.011044 0.131987 0.018821
v -0.019459 0.132498 0.014430
v -0.022351 0.130682 0.020090
v -0.013936 0.130171 0.024482
v -0.012176 0.129206 0.036104
v -0.016570 0.129784 0.031460
v -0.022559 0.131243 0.037338
v -0.018164 0.130665 0.041982
v 0.001889 0.108262 0.000074
v 0.001176 0.108556 -0.000078
v 0.000625 0.108262 -0.000555
v 0.000787 0.107675 -0.000881
v 0.001500 0.107381 -0.000729
v 0.002051 0.107675 -0.000251
v 0.004758 0.110737 -0.008716
v 0.005390 0.110455 -0.008543
v 0.004645 0.111299 -0.008490
v 0.005165 0.111580 -0.008090
v 0.005797 0.111299 -0.007916
v 0.005910 0.110737 -0.008142
v 0.008936 0.112988 -0.016857
v 0.009443 0.112748 -0.016683
v 0.008873 0.113468 -0.016730
v 0.009317 0.113708 -0.016430
v 0.009824 0.113468 -0.016257
v 0.009887 0.112988 -0.016383
v 0.013167 0.113073 -0.025231
v 0.013608 0.112853 -0.025048
v 0.013138 0.113512 -0.025173
v 0.013550 0.113731 -0.024932
v 0.013990 0.113512 -0.024749
v 0.014019 0.113073 -0.024807
v 0.017426 0.110946 -0.033585
v 0.017647 0.110744 -0.033354
v 0.017584 0.111230 -0.033710
v 0.017963 0.111312 -0.033603
v 0.018183 0.111110 -0.033371
v 0.018025 0.110826 -0.033247
v -0.002484 0.113023 -0.011535
v 0.002809 0.111130 -0.022116
v -0.004569 0.110525 -0.025640
v -0.009863 0.112418 -0.015060
v 0.012688 0.112417 -0.035082
v 0.007153 0.107097 -0.041135
v -0.001670 0.106690 -0.032926
v 0.003864 0.112010 -0.026873
v 0.016641 0.114217 -0.011362
v 0.023692 0.111062 -0.007682
v 0.029176 0.110655 -0.018414
v 0.022125 0.113810 -0.022094
v 0.016032 0.110698 -0.023515
v 0.032177 0.108008 -0.021372
v 0.032949 0.109185 -0.027603
v 0.016804 0.111875 -0.029745
v 0.019621 0.113629 -0.044093
v 0.027753 0.111736 -0.035500
v 0.032924 0.109264 -0.040576
v 0.024792 0.111157 -0.049169
v 0.005855 0.090680 -0.075012
v -0.011181 0.093524 -0.080084
v 0.024020 0.090880 -0.047723
v 0.016965 0.090268 -0.064398
v 0.000980 0.045896 -0.000215
v 0.000491 0.046336 0.000518
v -0.000207 0.045963 0.001131
v -0.000416 0.045151 0.001010
v 0.000074 0.044711 0.000277
v 0.000772 0.045083 -0.000336
v -0.015441 0.047601 -0.013595
v -0.014963 0.047199 -0.014218
v -0.015333 0.048345 -0.013557
v -0.014746 0.048686 -0.014142
v -0.014267 0.048284 -0.014765
v -0.014376 0.047541 -0.014803
v -0.028200 0.048598 -0.025536
v -0.027974 0.048421 -0.025793
v -0.028188 0.048925 -0.025550
v -0.027948 0.049075 -0.025822
v -0.027722 0.048898 -0.026079
v -0.027734 0.048571 -0.026064
v -0.036031 0.045557 -0.003716
v -0.024857 0.050947 0.005766
v -0.010798 0.051635 -0.011405
v -0.021973 0.046245 -0.020887
v -0.029898 0.047860 -0.015222
v -0.027492 0.048868 -0.025398
v -0.041750 0.047648 -0.028071
v -0.044156 0.046640 -0.017895
v -0.007151 0.048756 -0.008371
v 0.001497 0.051256 -0.018066
v -0.015013 0.050607 -0.032641
v -0.023661 0.048107 -0.022945
v 0.012870 0.045351 -0.030817
v -0.003640 0.044702 -0.045391
v -0.003650 0.063044 0.001089
v -0.004029 0.063485 0.000062
v -0.003864 0.063044 -0.001021
v -0.003321 0.062162 -0.001077
v -0.002942 0.061721 -0.000049
v -0.003106 0.062162 0.001034
v 0.008942 0.066721 -0.001833
v 0.009257 0.066257 -0.000799
v 0.008527 0.067647 -0.001791
v 0.008427 0.068111 -0.000714
v 0.008742 0.067647 0.000320
v 0.009156 0.066721 0.000278
v 0.022630 0.070093 -0.003071
v 0.022843 0.069681 -0.002178
v 0.022389 0.070916 -0.003047
v 0.022360 0.071328 -0.002129
v 0.022573 0.070916 -0.001235
v 0.022814 0.070093 -0.001259
v 0.036658 0.070258 -0.004327
v 0.036784 0.069915 -0.003592
v 0.036557 0.070944 -0.004317
v 0.036582 0.071288 -0.003572
v 0.036708 0.070944 -0.002837
v 0.036809 0.070258 -0.002847
v 0.050731 0.067107 -0.005441
v 0.050645 0.066882 -0.005095
v 0.050943 0.067424 -0.005366
v 0.051068 0.067516 -0.004946
v 0.050980 0.067291 -0.004600
v 0.050769 0.066974 -0.004675
v 0.048445 0.067656 -0.008294
v 0.038569 0.070560 -0.004116
v 0.041479 0.071783 0.002929
v 0.051354 0.068939 -0.001249
v 0.039587 0.064838 0.027534
v 0.049848 0.065679 0.023193
v 0.044983 0.070267 0.011413
v 0.034722 0.068161 0.015754
v 0.031218 0.069677 0.007271
v 0.028309 0.068394 0.000226
v 0.059723 0.064099 0.019014
v 0.054858 0.067423 0.007235
v 0.033361 0.067138 -0.003155
v 0.022487 0.070084 -0.003231
v 0.022367 0.071325 0.004498
v 0.033241 0.068440 0.004574
v 0.010722 0.064281 0.026651
v 0.022021 0.065134 0.026730
v 0.022222 0.069787 0.013806
v 0.010923 0.067651 0.013727
v 0.011068 0.069189 0.004420
v 0.011188 0.067887 -0.003309
v 0.032895 0.063532 0.026805
v 0.033096 0.066902 0.013882
v 0.002910 0.065658 0.001916
v 0.017481 0.069687 -0.001065
v 0.015452 0.071384 -0.011440
v 0.000881 0.067438 -0.008460
v 0.024755 0.061750 -0.044379
v 0.009616 0.062918 -0.041283
v 0.013008 0.069281 -0.023934
v 0.028148 0.066360 -0.027031
v 0.030592 0.068463 -0.014536
v 0.032621 0.066683 -0.004161
v -0.004955 0.060726 -0.038303
v -0.001563 0.065335 -0.020954
v -0.053946 0.038752 -0.041713
v -0.056518 0.043152 -0.030839
v -0.039179 0.043248 -0.038945
v -0.024920 0.044468 -0.036272
v -0.058924 0.042144 -0.020663
v 0.003401 0.094627 -0.052422
v -0.013856 0.091637 -0.057883
v -0.032972 0.088465 -0.048769
v -0.036048 0.084436 -0.038749
v -0.028729 0.085278 -0.062590
v -0.020308 0.127313 0.027510
v -0.026296 0.128772 0.033388
v -0.028386 0.128560 0.043057
v -0.023991 0.127982 0.047701
v -0.032123 0.126089 0.039108
v -0.008452 0.130578 0.013749
v -0.016867 0.131089 0.009358
v -0.025482 0.129297 0.011286
v -0.028375 0.127481 0.016946
v -0.022891 0.127888 0.006214
v -0.000841 0.097778 -0.038602
v -0.003918 0.093749 -0.028581
v -0.021175 0.090759 -0.034042
v -0.018099 0.094788 -0.044063
v -0.005651 0.094275 -0.055058
v 0.003395 0.095262 -0.058794
v 0.010450 0.095874 -0.042118
v 0.001405 0.094886 -0.038382
v -0.000806 0.092483 -0.051047
v -0.017842 0.095327 -0.056119
v -0.015569 0.097304 -0.064297
v 0.001467 0.094460 -0.059225
v -0.027511 0.093347 -0.031454
v -0.003249 0.097389 -0.034623
v -0.000749 0.096777 -0.016689
v -0.025012 0.092735 -0.013520
v 0.036041 0.116215 0.004361
v 0.041207 0.116782 0.020321
v 0.029755 0.121421 0.023918
v 0.024590 0.120854 0.007959
v -0.008666 0.115986 0.025409
v -0.013392 0.113755 0.019452
v 0.004398 0.115458 0.004805
v 0.009123 0.117689 0.010762
v 0.011728 0.116640 0.034791
v 0.000873 0.117073 0.027991
v 0.006031 0.120062 0.019913
v 0.016886 0.119629 0.026713
v -0.003440 0.143472 0.017764
v 0.002367 0.144695 0.002260
v 0.013369 0.146588 0.006612
v 0.007562 0.145365 0.022116
v -0.011044 0.131952 0.018821
v -0.013936 0.130136 0.024482
v -0.022351 0.130647 0.020090
v -0.019459 0.132463 0.014430
v -0.012176 0.129170 0.036104
v -0.018164 0.130630 0.041982
v -0.022559 0.131208 0.037338
v -0.016570 0.129749 0.031460
v -0.002711 0.112969 -0.011643
v -0.009863 0.112383 -0.015060
v -0.004569 0.110490 -0.025640
v 0.002583 0.111076 -0.022224
v -0.001670 0.106655 -0.032926
v 0.007153 0.107062 -0.041135
v 0.012703 0.112386 -0.035066
v 0.003879 0.111979 -0.026857
v 0.029176 0.110620 -0.018414
v 0.023692 0.111027 -0.007682
v 0.016602 0.114189 -0.011382
v 0.022086 0.113782 -0.022114
v 0.032965 0.109145 -0.027734
v 0.032177 0.107973 -0.021372
v 0.016032 0.110663 -0.023515
v 0.016821 0.111835 -0.029877
v 0.019638 0.113592 -0.044110
v 0.024792 0.111122 -0.049169
v 0.032924 0.109229 -0.040576
v 0.027770 0.111699 -0.035517
v -0.011181 0.093489 -0.080084
v 0.005855 0.090644 -0.075012
v 0.024020 0.090844 -0.047723
v 0.016965 0.090233 -0.064398
v -0.036031 0.045522 -0.003716
v -0.021973 0.046210 -0.020887
v -0.010798 0.051600 -0.011405
v -0.024857 0.050912 0.005766
v -0.029898 0.047825 -0.015222
v -0.044156 0.046605 -0.017895
v -0.041750 0.047613 -0.028071
v -0.027492 0.048833 -0.025398
v -0.007151 0.048720 -0.008371
v -0.023661 0.048071 -0.022945
v -0.015013 0.050572 -0.032641
v 0.001497 0.051221 -0.018066
v -0.003640 0.044667 -0.045391
v 0.012870 0.045316 -0.030817
v 0.048445 0.067620 -0.008294
v 0.051354 0.068904 -0.001249
v 0.041479 0.071748 0.002929
v 0.038569 0.070525 -0.004116
v 0.039587 0.064803 0.027534
v 0.034722 0.068126 0.015754
v 0.044983 0.070232 0.011413
v 0.049848 0.065644 0.023193
v 0.031218 0.069642 0.007271
v 0.028309 0.068359 0.000226
v 0.054858 0.067387 0.007235
v 0.059723 0.064064 0.019014
v 0.033361 0.067103 -0.003155
v 0.033241 0.068404 0.004574
v 0.022367 0.071289 0.004498
v 0.022487 0.070049 -0.003231
v 0.010722 0.064245 0.026651
v 0.010923 0.067616 0.013727
v 0.022222 0.069752 0.013806
v 0.022021 0.065099 0.026730
v 0.011068 0.069153 0.004420
v 0.011188 0.067852 -0.003309
v 0.033096 0.066867 0.013882
v 0.032895 0.063497 0.026805
v 0.002910 0.065623 0.001916
v 0.000881 0.067403 -0.008460
v 0.015452 0.071349 -0.011440
v 0.017481 0.069652 -0.001065
v 0.024755 0.061715 -0.044379
v 0.028148 0.066324 -0.027031
v 0.013008 0.069246 -0.023934
v 0.009616 0.062883 -0.041283
v 0.030592 0.068427 -0.014536
v 0.032621 0.066647 -0.004161
v -0.001563 0.065300 -0.020954
v -0.004955 0.060691 -0.038303
v -0.053946 0.038717 -0.041713
v -0.039179 0.043213 -0.038945
v -0.056518 0.043117 -0.030839
v -0.024920 0.044433 -0.036272
v -0.058924 0.042109 -0.020663
v 0.003401 0.094592 -0.052422
v -0.013856 0.091602 -0.057883
v -0.032972 0.088430 -0.048769
v -0.036048 0.084401 -0.038749
v -0.028729 0.085243 -0.062590
v -0.026296 0.128737 0.033388
v -0.020308 0.127277 0.027510
v -0.028386 0.128525 0.043057
v -0.023991 0.127947 0.047701
v -0.032123 0.126054 0.039108
v -0.008452 0.130543 0.013749
v -0.016867 0.131054 0.009358
v -0.025482 0.129261 0.011286
v -0.028375 0.127445 0.016946
v -0.022891 0.127852 0.006214
v -0.005289 0.070591 -0.000755
v -0.004653 0.070843 -0.000734
v -0.004071 0.070505 -0.000611
v -0.004124 0.069914 -0.000510
v -0.004760 0.069662 -0.000531
v -0.005343 0.070001 -0.000654
v -0.005062 0.069116 0.013246
v -0.006146 0.068687 0.013142
v -0.004986 0.070124 0.013207
v -0.005994 0.070701 0.013064
v -0.007077 0.070272 0.012960
v -0.007153 0.069264 0.012999
v -0.006835 0.067161 0.027075
v -0.007909 0.066741 0.026904
v -0.006776 0.068149 0.027171
v -0.007792 0.068717 0.027095
v -0.008867 0.068297 0.026924
v -0.008925 0.067309 0.026828
v -0.008720 0.062119 0.040009
v -0.009786 0.061715 0.039772
v -0.008680 0.063075 0.040238
v -0.009705 0.063627 0.040230
v -0.010770 0.063223 0.039991
v -0.010811 0.062267 0.039762
v -0.011462 0.054297 0.051756
v -0.011658 0.054211 0.051613
v -0.011533 0.054436 0.051936
v -0.011799 0.054488 0.051971
v -0.011994 0.054402 0.051828
v -0.011924 0.054264 0.051649
v -0.008176 0.068561 0.024834
v 0.007613 0.064864 0.026008
v 0.009014 0.066824 0.013740
v -0.006774 0.070521 0.012566
v -0.005012 0.069970 0.012005
v -0.011464 0.071209 0.011669
v -0.012642 0.068019 0.019580
v -0.006190 0.066781 0.019916
v -0.010336 0.054435 0.050439
v -0.008499 0.061932 0.040476
v -0.017012 0.063888 0.039828
v -0.018847 0.056454 0.049816
v 0.005434 0.058551 0.036865
v 0.021838 0.050442 0.037707
v 0.024018 0.056755 0.026850
v -0.039922 0.063105 0.021926
v -0.041735 0.059380 0.033906
v -0.027337 0.063095 0.037787
v -0.025555 0.065489 0.025273
v -0.020603 0.070543 0.000403
v -0.028529 0.066542 -0.002206
v -0.029706 0.065895 0.007213
v -0.021780 0.069896 0.009821
v -0.015230 0.066282 0.027314
v -0.006719 0.064264 0.027937
v -0.043539 0.053277 0.044428
v -0.029172 0.055660 0.047775
v -0.010355 0.062247 0.035691
v 0.025419 0.058715 0.014583
v -0.003835 0.070617 0.002587
v -0.010287 0.071856 0.002250
v -0.030884 0.062705 0.015124
v -0.022958 0.066707 0.017732
v -0.008176 0.068528 0.024821
v -0.006775 0.070488 0.012553
v 0.009014 0.066792 0.013727
v 0.007612 0.064832 0.025995
v -0.005013 0.069937 0.011992
v -0.006191 0.066748 0.019903
v -0.012643 0.067987 0.019567
v -0.011465 0.071176 0.011655
v -0.010337 0.054403 0.050426
v -0.018848 0.056421 0.049803
v -0.017012 0.063855 0.039815
v -0.008500 0.061900 0.040463
v 0.005433 0.058518 0.036852
v 0.024017 0.056723 0.026837
v 0.021838 0.050409 0.037694
v -0.039923 0.063073 0.021913
v -0.025556 0.065457 0.025260
v -0.027338 0.063062 0.037774
v -0.041736 0.059347 0.033893
v -0.020604 0.070511 0.000390
v -0.021780 0.069864 0.009808
v -0.029706 0.065862 0.007199
v -0.028530 0.066509 -0.002219
v -0.015231 0.066250 0.027301
v -0.006720 0.064231 0.027924
v -0.029173 0.055628 0.047762
v -0.043540 0.053244 0.044415
v -0.010355 0.062215 0.035678
v 0.025418 0.058683 0.014570
v -0.003836 0.070585 0.002574
v -0.010288 0.071823 0.002237
v -0.022958 0.066674 0.017719
v -0.030884 0.062673 0.015111
v 0.000492 0.029407 0.000916
v 0.008174 0.029847 -0.011173
v -0.000970 0.031986 -0.016937
v -0.008653 0.031546 -0.004848
v 0.016333 0.023841 -0.006314
v 0.024438 0.020669 -0.019914
v 0.016280 0.026675 -0.024772
v 0.008650 0.023401 0.005774
v 0.007135 0.028815 -0.030537
v 0.000476 0.029375 0.000916
v -0.008669 0.031515 -0.004849
v -0.000986 0.031955 -0.016938
v 0.008159 0.029815 -0.011173
v 0.016317 0.023810 -0.006315
v 0.016264 0.026644 -0.024773
v 0.024423 0.020638 -0.019914
v 0.008635 0.023370 0.005774
v 0.007119 0.028783 -0.030537
v -0.010583 0.060432 0.043881
v 0.001441 0.057524 0.047138
v 0.004350 0.059066 0.037868
v -0.007674 0.061975 0.034611
v -0.001858 0.052556 0.055202
v 0.010691 0.046175 0.058295
v 0.013991 0.051143 0.050230
v -0.013882 0.055465 0.051946
v 0.016899 0.052686 0.040960
v -0.010584 0.060400 0.043868
v -0.007675 0.061942 0.034598
v 0.004349 0.059033 0.037855
v 0.001440 0.057491 0.047125
v -0.001859 0.052523 0.055189
v 0.013990 0.051111 0.050217
v 0.010691 0.046143 0.058281
v -0.013883 0.055432 0.051932
v 0.016898 0.052653 0.040947
v 0.007562 0.145400 0.022116
v 0.013369 0.146624 0.006612
v 0.014415 0.119995 0.011155
v 0.019581 0.120562 0.027115
v 0.021032 0.119531 0.020220
v 0.010177 0.119964 0.013420
v -0.003159 0.116425 0.032353
v 0.014631 0.118128 0.017706
v 0.014631 0.118093 0.017706
v -0.003159 0.116389 0.032353
v 0.010188 0.119932 0.013402
v 0.021043 0.119499 0.020203
v 0.019581 0.120526 0.027115
v 0.014416 0.119960 0.011155
v 0.005076 0.113642 -0.007923
v 0.010370 0.111749 -0.018504
v 0.009320 0.113346 -0.020907
v 0.018144 0.113753 -0.029116
v 0.014737 0.113346 -0.025949
v 0.009253 0.113753 -0.015217
v 0.005076 0.113607 -0.007923
v 0.010370 0.111714 -0.018504
v 0.018144 0.113717 -0.029116
v 0.009320 0.113310 -0.020907
v 0.017515 0.110256 -0.035475
v 0.033659 0.107566 -0.033333
v 0.033659 0.107601 -0.033333
v 0.017515 0.110291 -0.035475
v 0.012977 0.112381 -0.037571
v 0.021109 0.110488 -0.028978
v 0.012977 0.112345 -0.037571
v 0.021109 0.110452 -0.028978
v 0.009253 0.113717 -0.015217
v 0.014737 0.113310 -0.025949
v 0.020339 0.093382 -0.011867
v 0.024235 0.092770 -0.029550
v 0.000386 0.096812 -0.035021
v -0.003510 0.097424 -0.017338
v 0.020339 0.093347 -0.011867
v -0.003510 0.097389 -0.017338
v 0.000386 0.096777 -0.035021
v 0.024235 0.092735 -0.029550
v -0.007186 0.058087 -0.000188
v -0.006296 0.058095 0.001453
v -0.004445 0.058114 0.001479
v -0.003462 0.058119 -0.000093
v -0.004351 0.058111 -0.001734
v -0.006213 0.058095 -0.001782
v 0.005305 0.144100 0.006170
v 0.017386 0.143115 0.000532
v 0.015442 0.143880 -0.003838
v 0.003362 0.144866 0.001800
v 0.017370 0.143079 0.000519
v 0.005290 0.144065 0.006157
v 0.001419 0.145589 -0.002548
v 0.013499 0.144604 -0.008186
v 0.013515 0.144639 -0.008173
v 0.001434 0.145625 -0.002535
v -0.010627 0.131987 0.018855
v -0.003071 0.132498 0.024600
v 0.000732 0.130682 0.019506
v -0.006824 0.130171 0.013762
v -0.014035 0.130578 0.023419
v -0.006479 0.131089 0.029163
v 0.002338 0.129297 0.028711
v 0.006141 0.127481 0.023618
v -0.001070 0.127888 0.033275
v -0.010627 0.131952 0.018855
v -0.006824 0.130136 0.013762
v 0.000732 0.130647 0.019506
v -0.003071 0.132463 0.024600
v -0.014035 0.130543 0.023419
v -0.006479 0.131054 0.029163
v 0.002338 0.129261 0.028711
v 0.006141 0.127445 0.023618
v -0.001070 0.127852 0.033275
v -0.006707 0.130892 0.011615
v 0.001010 0.131321 0.013539
v 0.002254 0.129800 0.008360
v -0.005463 0.129371 0.006436
v -0.007821 0.129712 0.016255
v -0.000104 0.130141 0.018179
v 0.006534 0.128638 0.014916
v 0.007778 0.127117 0.009737
v 0.005420 0.127458 0.019556
v -0.006707 0.130857 0.011615
v -0.005463 0.129336 0.006436
v 0.002254 0.129764 0.008360
v 0.001010 0.131286 0.013539
v -0.007821 0.129677 0.016255
v -0.000104 0.130105 0.018179
v 0.006534 0.128603 0.014916
v 0.007778 0.127082 0.009737
v 0.005420 0.127423 0.019556
vt 0.979100 0.278100
vt 0.972100 0.278800
vt 0.972100 0.146100
vt 0.979100 0.145400
vt 0.986100 0.278200
vt 0.986100 0.145400
vt 0.954200 0.278800
vt 0.948600 0.278800
vt 0.948600 0.146000
vt 0.954200 0.146000
vt 0.959400 0.278700
vt 0.960400 0.146000
vt 0.966000 0.278500
vt 0.966000 0.145700
vt 0.972100 0.637100
vt 0.972100 0.445600
vt 0.979100 0.445000
vt 0.979100 0.636400
vt 0.986100 0.445400
vt 0.986100 0.636400
vt 0.948600 0.445900
vt 0.954200 0.445900
vt 0.954200 0.637100
vt 0.948600 0.637100
vt 0.960300 0.445800
vt 0.961200 0.637000
vt 0.966000 0.445400
vt 0.966000 0.636700
vt 0.979100 0.809100
vt 0.972100 0.809900
vt 0.972100 0.690800
vt 0.979100 0.690000
vt 0.986100 0.809300
vt 0.986100 0.690000
vt 0.954200 0.809800
vt 0.948600 0.809800
vt 0.948600 0.690700
vt 0.954200 0.690700
vt 0.959400 0.809800
vt 0.960800 0.690600
vt 0.966000 0.809500
vt 0.966000 0.690300
vt 0.959900 0.855300
vt 0.982600 0.854900
vt 0.982800 0.999300
vt 0.975800 0.999300
vt 0.958200 0.999300
vt 0.947600 0.999300
vt 0.954700 0.999300
vt 0.972300 0.999300
vt 0.947600 0.868000
vt 0.954700 0.868000
vt 0.982800 0.868000
vt 0.989900 0.868000
vt 0.989900 0.999300
vt 0.982800 0.999300
vt 0.975800 0.868000
vt 0.968700 0.868000
vt 0.968700 0.999300
vt 0.961700 0.868000
vt 0.961700 0.999300
vt 0.947600 0.736600
vt 0.954700 0.736600
vt 0.982800 0.736600
vt 0.989900 0.736600
vt 0.975800 0.736600
vt 0.968700 0.736600
vt 0.961700 0.736600
vt 0.947600 0.605300
vt 0.954700 0.605300
vt 0.982800 0.605300
vt 0.989900 0.605300
vt 0.975800 0.605300
vt 0.968700 0.605300
vt 0.961700 0.605300
vt 0.947600 0.473900
vt 0.954700 0.473900
vt 0.982800 0.473900
vt 0.989900 0.473900
vt 0.975800 0.473900
vt 0.968700 0.473900
vt 0.961700 0.473900
vt 0.708200 0.007600
vt 0.708200 0.351200
vt 0.546900 0.351200
vt 0.546900 0.007600
vt 0.546900 0.007600
vt 0.930700 0.007600
vt 0.930700 0.263400
vt 0.546900 0.263400
vt 0.930700 0.007600
vt 0.930700 0.225900
vt 0.546900 0.225900
vt 0.546900 0.007600
vt 0.930700 0.647300
vt 0.546900 0.647300
vt 0.546900 0.007600
vt 0.930700 0.007600
vt 0.982800 0.999300
vt 0.975800 0.999300
vt 0.958200 0.999300
vt 0.947600 0.999300
vt 0.954700 0.999300
vt 0.972300 0.999300
vt 0.947600 0.868000
vt 0.954700 0.868000
vt 0.982800 0.868000
vt 0.989900 0.868000
vt 0.989900 0.999300
vt 0.982800 0.999300
vt 0.975800 0.868000
vt 0.968700 0.868000
vt 0.968700 0.999300
vt 0.961700 0.868000
vt 0.961700 0.999300
vt 0.947600 0.736600
vt 0.954700 0.736600
vt 0.982800 0.736600
vt 0.989900 0.736600
vt 0.975800 0.736600
vt 0.968700 0.736600
vt 0.961700 0.736600
vt 0.930700 0.310400
vt 0.930700 0.647300
vt 0.546900 0.647300
vt 0.546900 0.310400
vt 0.930700 0.007600
vt 0.930700 0.647300
vt 0.772400 0.647300
vt 0.772400 0.007600
vt 0.930700 0.297900
vt 0.930700 0.647300
vt 0.546900 0.647300
vt 0.546900 0.297900
vt 0.982800 0.999300
vt 0.975800 0.999300
vt 0.958200 0.999300
vt 0.947600 0.999300
vt 0.954700 0.999300
vt 0.972300 0.999300
vt 0.947600 0.868000
vt 0.954700 0.868000
vt 0.982800 0.868000
vt 0.989900 0.868000
vt 0.989900 0.999300
vt 0.982800 0.999300
vt 0.975800 0.868000
vt 0.968700 0.868000
vt 0.968700 0.999300
vt 0.961700 0.868000
vt 0.961700 0.999300
vt 0.947600 0.736600
vt 0.954700 0.736600
vt 0.982800 0.736600
vt 0.989900 0.736600
vt 0.975800 0.736600
vt 0.968700 0.736600
vt 0.961700 0.736600
vt 0.930700 0.007600
vt 0.930700 0.647300
vt 0.738000 0.647300
vt 0.738000 0.007600
vt 0.954700 0.473900
vt 0.961700 0.473900
vt 0.979300 0.473900
vt 0.989900 0.473900
vt 0.982800 0.473900
vt 0.965200 0.473900
vt 0.989900 0.605300
vt 0.982800 0.605300
vt 0.954700 0.605300
vt 0.947600 0.605300
vt 0.947600 0.473900
vt 0.954700 0.473900
vt 0.961700 0.605300
vt 0.968700 0.605300
vt 0.968700 0.473900
vt 0.975800 0.605300
vt 0.975800 0.473900
vt 0.989900 0.736600
vt 0.982800 0.736600
vt 0.954700 0.736600
vt 0.947600 0.736600
vt 0.961700 0.736600
vt 0.968700 0.736600
vt 0.975800 0.736600
vt 0.989900 0.868000
vt 0.982800 0.868000
vt 0.954700 0.868000
vt 0.947600 0.868000
vt 0.961700 0.868000
vt 0.968700 0.868000
vt 0.975800 0.868000
vt 0.989900 0.999300
vt 0.982800 0.999300
vt 0.954700 0.999300
vt 0.947600 0.999300
vt 0.961700 0.999300
vt 0.968700 0.999300
vt 0.975800 0.999300
vt 0.749300 0.007600
vt 0.749300 0.380400
vt 0.546900 0.380400
vt 0.546900 0.007600
vt 0.546900 0.007600
vt 0.754300 0.007600
vt 0.754300 0.331800
vt 0.546900 0.331800
vt 0.954700 0.473900
vt 0.961700 0.473900
vt 0.979300 0.473900
vt 0.989900 0.473900
vt 0.982800 0.473900
vt 0.965200 0.473900
vt 0.989900 0.605300
vt 0.982800 0.605300
vt 0.954700 0.605300
vt 0.947600 0.605300
vt 0.947600 0.473900
vt 0.954700 0.473900
vt 0.961700 0.605300
vt 0.968700 0.605300
vt 0.968700 0.473900
vt 0.975800 0.605300
vt 0.975800 0.473900
vt 0.989900 0.736600
vt 0.982800 0.736600
vt 0.954700 0.736600
vt 0.947600 0.736600
vt 0.961700 0.736600
vt 0.968700 0.736600
vt 0.975800 0.736600
vt 0.989900 0.868000
vt 0.982800 0.868000
vt 0.954700 0.868000
vt 0.947600 0.868000
vt 0.961700 0.868000
vt 0.968700 0.868000
vt 0.975800 0.868000
vt 0.989900 0.999300
vt 0.982800 0.999300
vt 0.954700 0.999300
vt 0.947600 0.999300
vt 0.961700 0.999300
vt 0.968700 0.999300
vt 0.975800 0.999300
vt 0.546900 0.331300
vt 0.930700 0.331300
vt 0.930700 0.647300
vt 0.546900 0.647300
vt 0.930700 0.325100
vt 0.930700 0.647300
vt 0.546900 0.647300
vt 0.546900 0.325100
vt 0.930700 0.334900
vt 0.930700 0.647300
vt 0.546900 0.647300
vt 0.546900 0.334900
vt 0.930700 0.007600
vt 0.930700 0.647300
vt 0.730800 0.647300
vt 0.730800 0.007600
vt 0.546900 0.367300
vt 0.930700 0.367300
vt 0.930700 0.647300
vt 0.546900 0.647300
vt 0.930700 0.647300
vt 0.546900 0.647300
vt 0.930700 0.647300
vt 0.546900 0.647300
vt 0.954700 0.473900
vt 0.961700 0.473900
vt 0.979300 0.473900
vt 0.989900 0.473900
vt 0.982800 0.473900
vt 0.965200 0.473900
vt 0.989900 0.605300
vt 0.982800 0.605300
vt 0.954700 0.605300
vt 0.947600 0.605300
vt 0.947600 0.473900
vt 0.954700 0.473900
vt 0.961700 0.605300
vt 0.968700 0.605300
vt 0.968700 0.473900
vt 0.975800 0.605300
vt 0.975800 0.473900
vt 0.989900 0.736600
vt 0.982800 0.736600
vt 0.954700 0.736600
vt 0.947600 0.736600
vt 0.961700 0.736600
vt 0.968700 0.736600
vt 0.975800 0.736600
vt 0.930700 0.647300
vt 0.546900 0.647300
vt 0.546900 0.007600
vt 0.930700 0.007600
vt 0.546900 0.007600
vt 0.732500 0.007600
vt 0.732500 0.321800
vt 0.546900 0.321800
vt 0.930700 0.007600
vt 0.930700 0.283900
vt 0.546900 0.283900
vt 0.546900 0.007600
vt 0.930700 0.647300
vt 0.546900 0.647300
vt 0.982800 0.999300
vt 0.975800 0.999300
vt 0.958200 0.999300
vt 0.947600 0.999300
vt 0.954700 0.999300
vt 0.972300 0.999300
vt 0.947600 0.868000
vt 0.954700 0.868000
vt 0.982800 0.868000
vt 0.989900 0.868000
vt 0.989900 0.999300
vt 0.982800 0.999300
vt 0.975800 0.868000
vt 0.968700 0.868000
vt 0.968700 0.999300
vt 0.961700 0.868000
vt 0.961700 0.999300
vt 0.947600 0.736600
vt 0.954700 0.736600
vt 0.982800 0.736600
vt 0.989900 0.736600
vt 0.975800 0.736600
vt 0.968700 0.736600
vt 0.961700 0.736600
vt 0.947600 0.605300
vt 0.954700 0.605300
vt 0.982800 0.605300
vt 0.989900 0.605300
vt 0.975800 0.605300
vt 0.968700 0.605300
vt 0.961700 0.605300
vt 0.947600 0.473900
vt 0.954700 0.473900
vt 0.982800 0.473900
vt 0.989900 0.473900
vt 0.975800 0.473900
vt 0.968700 0.473900
vt 0.961700 0.473900
vt 0.546900 0.007600
vt 0.735100 0.007600
vt 0.735100 0.172600
vt 0.546900 0.172600
vt 0.930700 0.647300
vt 0.735100 0.647300
vt 0.735100 0.371300
vt 0.930700 0.371300
vt 0.930700 0.172600
vt 0.930700 0.007600
vt 0.546900 0.647300
vt 0.546900 0.371300
vt 0.546900 0.007600
vt 0.735100 0.007600
vt 0.735100 0.172600
vt 0.546900 0.172600
vt 0.930700 0.647300
vt 0.735100 0.647300
vt 0.735100 0.371300
vt 0.930700 0.371300
vt 0.930700 0.172600
vt 0.930700 0.007600
vt 0.546900 0.647300
vt 0.546900 0.371300
vt 0.546900 0.007600
vt 0.735100 0.007600
vt 0.735100 0.172600
vt 0.546900 0.172600
vt 0.930700 0.647300
vt 0.735100 0.647300
vt 0.735100 0.371300
vt 0.930700 0.371300
vt 0.930700 0.172600
vt 0.930700 0.007600
vt 0.546900 0.647300
vt 0.546900 0.371300
vt 0.930700 0.647300
vt 0.732500 0.647300
vt 0.930700 0.321800
vt 0.930700 0.007600
vt 0.546900 0.647300
vt 0.930700 0.007600
vt 0.930700 0.351200
vt 0.708200 0.647300
vt 0.546900 0.647300
vt 0.930700 0.647300
vt 0.930700 0.007600
vt 0.930700 0.331800
vt 0.754300 0.647300
vt 0.546900 0.647300
vt 0.930700 0.647300
vt 0.930700 0.007600
vt 0.930700 0.380400
vt 0.749300 0.647300
vt 0.546900 0.647300
vt 0.930700 0.647300
vt 0.708200 0.007600
vt 0.546900 0.007600
vt 0.546900 0.351200
vt 0.708200 0.351200
vt 0.546900 0.007600
vt 0.546900 0.263400
vt 0.930700 0.263400
vt 0.930700 0.007600
vt 0.930700 0.007600
vt 0.546900 0.007600
vt 0.546900 0.225900
vt 0.930700 0.225900
vt 0.930700 0.647300
vt 0.930700 0.007600
vt 0.546900 0.007600
vt 0.546900 0.647300
vt 0.546900 0.647300
vt 0.930700 0.647300
vt 0.930700 0.308500
vt 0.546900 0.308500
vt 0.753500 0.647300
vt 0.930700 0.647300
vt 0.930700 0.007600
vt 0.753500 0.007600
vt 0.546900 0.647300
vt 0.930700 0.647300
vt 0.930700 0.293000
vt 0.546900 0.293000
vt 0.930700 0.647300
vt 0.930700 0.007600
vt 0.546900 0.007600
vt 0.546900 0.647300
vt 0.749300 0.007600
vt 0.546900 0.007600
vt 0.546900 0.380400
vt 0.749300 0.380400
vt 0.546900 0.007600
vt 0.546900 0.331800
vt 0.754300 0.331800
vt 0.754300 0.007600
vt 0.546900 0.341000
vt 0.546900 0.647300
vt 0.930700 0.647300
vt 0.930700 0.341000
vt 0.546900 0.647300
vt 0.930700 0.647300
vt 0.930700 0.324300
vt 0.546900 0.324300
vt 0.546900 0.647300
vt 0.930700 0.647300
vt 0.930700 0.333200
vt 0.546900 0.333200
vt 0.726600 0.647300
vt 0.930700 0.647300
vt 0.930700 0.007600
vt 0.726600 0.007600
vt 0.546900 0.368200
vt 0.546900 0.647300
vt 0.930700 0.647300
vt 0.930700 0.368200
vt 0.546900 0.647300
vt 0.930700 0.647300
vt 0.930700 0.647300
vt 0.546900 0.647300
vt 0.930700 0.647300
vt 0.930700 0.007600
vt 0.546900 0.007600
vt 0.546900 0.647300
vt 0.546900 0.007600
vt 0.546900 0.321800
vt 0.732500 0.321800
vt 0.732500 0.007600
vt 0.930700 0.007600
vt 0.546900 0.007600
vt 0.546900 0.283900
vt 0.930700 0.283900
vt 0.546900 0.647300
vt 0.930700 0.647300
vt 0.546900 0.007600
vt 0.546900 0.172600
vt 0.735100 0.172600
vt 0.735100 0.007600
vt 0.930700 0.647300
vt 0.930700 0.371300
vt 0.735100 0.371300
vt 0.735100 0.647300
vt 0.930700 0.172600
vt 0.930700 0.007600
vt 0.546900 0.371300
vt 0.546900 0.647300
vt 0.546900 0.007600
vt 0.546900 0.172600
vt 0.735100 0.172600
vt 0.735100 0.007600
vt 0.930700 0.647300
vt 0.930700 0.371300
vt 0.735100 0.371300
vt 0.735100 0.647300
vt 0.930700 0.172600
vt 0.930700 0.007600
vt 0.546900 0.371300
vt 0.546900 0.647300
vt 0.546900 0.007600
vt 0.546900 0.172600
vt 0.735100 0.172600
vt 0.735100 0.007600
vt 0.930700 0.647300
vt 0.930700 0.371300
vt 0.735100 0.371300
vt 0.735100 0.647300
vt 0.930700 0.172600
vt 0.930700 0.007600
vt 0.546900 0.371300
vt 0.546900 0.647300
vt 0.930700 0.647300
vt 0.930700 0.321800
vt 0.732500 0.647300
vt 0.930700 0.007600
vt 0.546900 0.647300
vt 0.930700 0.007600
vt 0.930700 0.351200
vt 0.708200 0.647300
vt 0.546900 0.647300
vt 0.930700 0.647300
vt 0.930700 0.331800
vt 0.930700 0.007600
vt 0.754300 0.647300
vt 0.546900 0.647300
vt 0.930700 0.647300
vt 0.930700 0.007600
vt 0.930700 0.380400
vt 0.749300 0.647300
vt 0.546900 0.647300
vt 0.930700 0.647300
vt 0.954700 0.473900
vt 0.961700 0.473900
vt 0.979300 0.473900
vt 0.989900 0.473900
vt 0.982800 0.473900
vt 0.965200 0.473900
vt 0.989900 0.605300
vt 0.982800 0.605300
vt 0.954700 0.605300
vt 0.947600 0.605300
vt 0.947600 0.473900
vt 0.954700 0.473900
vt 0.961700 0.605300
vt 0.968700 0.605300
vt 0.968700 0.473900
vt 0.975800 0.605300
vt 0.975800 0.473900
vt 0.989900 0.736600
vt 0.982800 0.736600
vt 0.954700 0.736600
vt 0.947600 0.736600
vt 0.961700 0.736600
vt 0.968700 0.736600
vt 0.975800 0.736600
vt 0.989900 0.868000
vt 0.982800 0.868000
vt 0.954700 0.868000
vt 0.947600 0.868000
vt 0.961700 0.868000
vt 0.968700 0.868000
vt 0.975800 0.868000
vt 0.989900 0.999300
vt 0.982800 0.999300
vt 0.954700 0.999300
vt 0.947600 0.999300
vt 0.961700 0.999300
vt 0.968700 0.999300
vt 0.975800 0.999300
vt 0.746400 0.007600
vt 0.746400 0.313700
vt 0.546900 0.313700
vt 0.546900 0.007600
vt 0.733800 0.007600
vt 0.733800 0.176100
vt 0.546900 0.176100
vt 0.546900 0.007600
vt 0.546900 0.007600
vt 0.735100 0.007600
vt 0.735100 0.172600
vt 0.546900 0.172600
vt 0.930700 0.313700
vt 0.930700 0.647300
vt 0.746400 0.647300
vt 0.930700 0.647300
vt 0.735100 0.647300
vt 0.735100 0.371300
vt 0.930700 0.371300
vt 0.930700 0.443600
vt 0.930700 0.647300
vt 0.733800 0.647300
vt 0.733800 0.443600
vt 0.930700 0.172600
vt 0.930700 0.007600
vt 0.546900 0.647300
vt 0.546900 0.371300
vt 0.930700 0.007600
vt 0.546900 0.647300
vt 0.930700 0.007600
vt 0.930700 0.176100
vt 0.546900 0.647300
vt 0.546900 0.443600
vt 0.746400 0.007600
vt 0.546900 0.007600
vt 0.546900 0.313700
vt 0.746400 0.313700
vt 0.733800 0.007600
vt 0.546900 0.007600
vt 0.546900 0.176100
vt 0.733800 0.176100
vt 0.546900 0.007600
vt 0.546900 0.172600
vt 0.735100 0.172600
vt 0.735100 0.007600
vt 0.930700 0.313700
vt 0.746400 0.647300
vt 0.930700 0.647300
vt 0.930700 0.647300
vt 0.930700 0.371300
vt 0.735100 0.371300
vt 0.735100 0.647300
vt 0.930700 0.443600
vt 0.733800 0.443600
vt 0.733800 0.647300
vt 0.930700 0.647300
vt 0.930700 0.172600
vt 0.930700 0.007600
vt 0.546900 0.371300
vt 0.546900 0.647300
vt 0.930700 0.007600
vt 0.546900 0.647300
vt 0.930700 0.007600
vt 0.930700 0.176100
vt 0.546900 0.443600
vt 0.546900 0.647300
vt 0.746400 0.007600
vt 0.746400 0.313700
vt 0.546900 0.313700
vt 0.546900 0.007600
vt 0.930700 0.313700
vt 0.930700 0.647300
vt 0.746400 0.647300
vt 0.930700 0.007600
vt 0.546900 0.647300
vt 0.746400 0.007600
vt 0.546900 0.007600
vt 0.546900 0.313700
vt 0.746400 0.313700
vt 0.930700 0.313700
vt 0.746400 0.647300
vt 0.930700 0.647300
vt 0.930700 0.007600
vt 0.546900 0.647300
vt 0.746400 0.007600
vt 0.746400 0.313700
vt 0.546900 0.313700
vt 0.546900 0.007600
vt 0.930700 0.313700
vt 0.930700 0.647300
vt 0.746400 0.647300
vt 0.930700 0.007600
vt 0.546900 0.647300
vt 0.746400 0.007600
vt 0.546900 0.007600
vt 0.546900 0.313700
vt 0.746400 0.313700
vt 0.930700 0.313700
vt 0.746400 0.647300
vt 0.930700 0.647300
vt 0.930700 0.007600
vt 0.546900 0.647300
vt 0.546900 0.647300
vt 0.546900 0.007600
vt 0.546900 0.007600
vt 0.930700 0.007600
vt 0.546900 0.007600
vt 0.930700 0.007600
vt 0.546900 0.647300
vt 0.546900 0.007600
vt 0.546900 0.007600
vt 0.546900 0.647300
vt 0.930700 0.007600
vt 0.546900 0.007600
vt 0.930700 0.007600
vt 0.546900 0.007600
vt 0.546900 0.007600
vt 0.930700 0.007600
vt 0.546900 0.007600
vt 0.930700 0.007600
vt 0.546900 0.007600
vt 0.930700 0.007600
vt 0.546900 0.007600
vt 0.930700 0.007600
vt 0.930700 0.007600
vt 0.546900 0.007600
vt 0.546900 0.007600
vt 0.546900 0.647300
vt 0.546900 0.647300
vt 0.546900 0.007600
vt 0.546900 0.007600
vt 0.930700 0.007600
vt 0.546900 0.007600
vt 0.930700 0.007600
vt 0.930700 0.007600
vt 0.546900 0.007600
vt 0.930700 0.647300
vt 0.546900 0.647300
vt 0.546900 0.007600
vt 0.930700 0.007600
vt 0.930700 0.647300
vt 0.930700 0.007600
vt 0.546900 0.007600
vt 0.546900 0.647300
vt 0.972100 0.396100
vt 0.979100 0.395500
vt 0.986100 0.395900
vt 0.948600 0.396400
vt 0.954200 0.396500
vt 0.960100 0.396400
vt 0.966000 0.395900
vt 0.930700 0.007600
vt 0.930700 0.647300
vt 0.738000 0.647300
vt 0.738000 0.007600
vt 0.930700 0.647300
vt 0.930700 0.007600
vt 0.546900 0.007600
vt 0.546900 0.647300
vt 0.546900 0.647300
vt 0.546900 0.007600
vt 0.749300 0.007600
vt 0.749300 0.380400
vt 0.546900 0.380400
vt 0.546900 0.007600
vt 0.930700 0.007600
vt 0.930700 0.380400
vt 0.749300 0.647300
vt 0.546900 0.647300
vt 0.930700 0.647300
vt 0.749300 0.007600
vt 0.546900 0.007600
vt 0.546900 0.380400
vt 0.749300 0.380400
vt 0.930700 0.007600
vt 0.930700 0.380400
vt 0.749300 0.647300
vt 0.546900 0.647300
vt 0.930700 0.647300
vt 0.749300 0.007600
vt 0.749300 0.380400
vt 0.546900 0.380400
vt 0.546900 0.007600
vt 0.930700 0.007600
vt 0.930700 0.380400
vt 0.749300 0.647300
vt 0.546900 0.647300
vt 0.930700 0.647300
vt 0.749300 0.007600
vt 0.546900 0.007600
vt 0.546900 0.380400
vt 0.749300 0.380400
vt 0.930700 0.007600
vt 0.930700 0.380400
vt 0.749300 0.647300
vt 0.546900 0.647300
vt 0.930700 0.647300
vn -0.4729 -0.0644 0.8787
vn -0.9833 -0.1800 -0.0251
vn -0.9995 0.0195 -0.0254
vn -0.5219 0.0195 0.8528
vn 0.5115 0.1192 0.8510
vn 0.4775 0.0195 0.8784
vn 0.9823 0.1857 0.0252
vn 0.9995 0.0195 0.0255
vn 0.5546 0.1192 -0.8236
vn 0.5219 0.0195 -0.8528
vn -0.4275 -0.0645 -0.9017
vn -0.4776 0.0195 -0.8784
vn -0.9908 0.1333 -0.0225
vn -0.9974 0.0676 -0.0257
vn -0.5357 0.0457 0.8432
vn -0.2333 0.0242 0.9721
vn 0.4414 -0.0141 0.8972
vn 0.4774 -0.0494 0.8773
vn 0.9970 -0.0584 0.0504
vn 0.9556 -0.0853 0.2822
vn 0.4841 -0.0150 -0.8749
vn 0.5442 -0.0513 -0.8374
vn -0.5117 0.0473 -0.8578
vn -0.4514 0.0651 -0.8899
vn -0.4794 -0.1008 0.8718
vn -0.9616 -0.2733 -0.0240
vn -0.9984 -0.0483 -0.0277
vn -0.5023 -0.0036 0.8647
vn 0.4892 0.1895 0.8514
vn 0.5021 0.0538 0.8631
vn 0.9533 0.3011 0.0247
vn 0.9964 0.0797 0.0295
vn 0.5320 0.1895 -0.8253
vn 0.5386 0.0549 -0.8408
vn -0.4352 -0.1011 -0.8947
vn -0.4554 -0.0144 -0.8902
vn -0.4166 0.9090 -0.0116
vn 0.6893 0.0724 0.7208
vn 0.0299 0.4068 0.9130
vn -0.6633 0.1093 0.7403
vn -0.6907 -0.6367 0.3428
vn -0.0156 -0.9827 0.1846
vn 0.6584 -0.6750 0.3330
vn -0.8655 -0.4742 -0.1615
vn -0.0027 -0.9501 -0.3118
vn -0.8131 0.5539 0.1791
vn 0.0366 0.9476 0.3174
vn 0.8514 0.4979 0.1650
vn 0.8524 -0.4963 -0.1649
vn -0.8633 -0.5047 -0.0106
vn -0.0071 -0.9934 -0.1149
vn -0.8201 0.5603 0.1164
vn 0.0077 0.9920 0.1260
vn 0.8278 0.5608 0.0145
vn 0.8557 -0.5041 -0.1166
vn -0.8550 -0.5087 0.1014
vn 0.0067 -0.9929 0.1191
vn -0.8242 0.5659 -0.0223
vn -0.0059 0.9942 -0.1076
vn 0.8147 0.5664 -0.1246
vn 0.8616 -0.5076 -0.0044
vn -0.8025 -0.4667 -0.3716
vn -0.1822 -0.9503 -0.2525
vn -0.6332 0.2810 -0.7212
vn 0.0827 0.4643 -0.8818
vn 0.7047 0.0020 -0.7095
vn 0.5219 -0.7666 -0.3741
vn -0.1775 0.9839 0.0221
vn -0.2757 0.9612 -0.0103
vn -0.3538 0.9004 0.2533
vn -0.2525 0.9221 0.2931
vn -0.1053 0.9944 0.0081
vn 0.0931 0.9928 -0.0758
vn 0.0920 0.9929 -0.0753
vn 0.0845 0.9629 0.2563
vn 0.1515 0.9874 0.0449
vn 0.1529 0.9874 0.0400
vn -0.1570 0.9860 0.0555
vn -0.9824 0.1173 -0.1457
vn -0.5607 0.4357 -0.7041
vn 0.0778 0.1172 -0.9901
vn 0.3048 -0.6457 -0.7001
vn -0.1386 -0.9750 -0.1737
vn -0.7507 -0.6457 0.1398
vn 0.7455 -0.5118 -0.4269
vn 0.1710 -0.9567 0.2355
vn 0.5524 0.5289 -0.6443
vn -0.1676 0.9665 -0.1944
vn -0.7147 0.5386 0.4462
vn -0.5483 -0.4711 0.6909
vn 0.9603 -0.2579 0.1067
vn 0.5188 -0.5867 0.6218
vn 0.8280 0.5574 -0.0611
vn 0.2776 0.9056 0.3206
vn -0.1737 0.5709 0.8024
vn -0.0428 -0.2416 0.9694
vn 0.1268 0.9890 -0.0761
vn 0.3343 0.9318 -0.1412
vn 0.1258 0.9892 -0.0758
vn -0.2543 0.9465 -0.1988
vn -0.2542 0.9465 -0.1987
vn -0.1700 0.9811 -0.0923
vn -0.1705 0.9810 -0.0930
vn -0.0488 0.9888 0.1408
vn -0.1317 0.9535 0.2710
vn -0.0484 0.9889 0.1402
vn -0.9333 0.0896 0.3478
vn -0.8443 0.4118 -0.3429
vn -0.4218 0.1024 -0.9009
vn -0.0685 -0.6470 -0.7594
vn -0.1909 -0.9782 -0.0814
vn -0.5750 -0.6584 0.4857
vn 0.4813 -0.4552 -0.7491
vn 0.2681 -0.9505 0.1571
vn 0.1603 0.5684 -0.8070
vn -0.2630 0.9540 -0.1442
vn -0.4673 0.4951 0.7324
vn -0.1487 -0.5164 0.8433
vn 0.9006 -0.2479 -0.3572
vn 0.7547 -0.5839 0.2991
vn 0.6967 0.5686 -0.4373
vn 0.3854 0.9104 0.1503
vn 0.2121 0.5686 0.7948
vn 0.4131 -0.2487 0.8761
vn -0.1743 0.9846 0.0125
vn -0.1743 0.9846 0.0124
vn -0.2454 0.0932 -0.9649
vn 0.4231 0.4288 -0.7982
vn 0.9418 0.1244 -0.3125
vn 0.7753 -0.6310 0.0282
vn 0.1152 -0.9769 -0.1797
vn -0.4024 -0.6647 -0.6295
vn 0.6742 -0.4894 0.5532
vn -0.1396 -0.9585 0.2486
vn 0.7926 0.5501 0.2630
vn 0.1161 0.9560 -0.2693
vn -0.6660 0.5007 -0.5530
vn -0.8140 -0.5058 -0.2858
vn 0.7425 -0.5043 0.4410
vn -0.0514 -0.9933 0.1034
vn 0.7679 0.5610 0.3091
vn 0.0564 0.9920 -0.1125
vn -0.7094 0.5612 -0.4263
vn -0.7992 -0.5045 -0.3267
vn 0.7903 -0.5082 0.3423
vn 0.0524 -0.9932 -0.1039
vn 0.7008 0.5663 0.4338
vn -0.0487 0.9939 0.0989
vn -0.7691 0.5656 -0.2977
vn -0.7483 -0.5101 -0.4242
vn 0.5023 -0.4670 0.7277
vn 0.0267 -0.9483 0.3162
vn 0.1834 0.2760 0.9435
vn -0.5125 0.4575 0.7266
vn -0.9633 -0.0015 0.2685
vn -0.6395 -0.7655 0.0717
vn 0.0389 0.9984 0.0417
vn -0.1724 0.9826 -0.0692
vn -0.2955 0.9432 0.1516
vn -0.0809 0.9604 0.2667
vn 0.1861 0.9811 -0.0540
vn 0.0016 0.9709 -0.2393
vn -0.1626 0.9844 -0.0674
vn 0.0076 0.9932 0.1165
vn 0.2857 0.1190 0.9509
vn -0.4003 0.4393 0.8042
vn -0.9309 0.1188 0.3453
vn -0.7641 -0.6449 0.0158
vn -0.0975 -0.9758 0.1958
vn 0.4472 -0.6449 0.6197
vn -0.6939 -0.4972 -0.5208
vn 0.1276 -0.9579 -0.2571
vn -0.8132 0.5277 -0.2456
vn -0.1219 0.9618 0.2450
vn 0.6857 0.5282 0.5008
vn 0.8340 -0.4968 0.2400
vn -0.7383 -0.5025 -0.4498
vn 0.0552 -0.9923 -0.1107
vn -0.7632 0.5630 -0.3171
vn -0.0525 0.9930 0.1058
vn 0.7131 0.5630 0.4177
vn 0.8040 -0.5023 0.3182
vn -0.7882 -0.5081 -0.3472
vn -0.0499 -0.9937 0.1004
vn -0.6979 0.5669 -0.4378
vn 0.0514 0.9935 -0.1020
vn 0.7701 0.5670 0.2924
vn 0.7527 -0.5072 0.4198
vn -0.5011 -0.4691 -0.7272
vn -0.0264 -0.9481 -0.3169
vn -0.1828 0.2760 -0.9436
vn 0.5138 0.4583 -0.7252
vn 0.9634 -0.0026 -0.2681
vn 0.6380 -0.7666 -0.0730
vn 0.0028 0.9846 -0.1748
vn -0.2688 0.9321 -0.2427
vn -0.3914 0.8385 -0.3791
vn -0.2695 0.9317 -0.2435
vn 0.1584 0.9864 0.0436
vn 0.3427 0.9290 0.1399
vn 0.1577 0.9865 0.0432
vn 0.1351 0.9704 0.2001
vn 0.1351 0.9704 0.2000
vn 0.1669 0.9858 -0.0200
vn 0.1670 0.9858 -0.0205
vn 0.1804 0.9825 0.0457
vn 0.1799 0.9826 0.0462
vn 0.3365 0.9349 -0.1125
vn 0.2122 0.9617 -0.1734
vn 0.2861 0.9455 -0.1557
vn 0.2861 0.9454 -0.1558
vn 0.9635 0.2614 -0.0580
vn 0.5875 0.6416 0.4931
vn 0.0579 0.3305 0.9420
vn -0.1046 -0.5053 0.8566
vn 0.3090 -0.8911 0.3324
vn 0.8051 -0.5774 -0.1357
vn -0.6344 -0.4828 0.6037
vn -0.0947 -0.9949 -0.0357
vn -0.5245 0.5907 0.6132
vn 0.0820 0.9966 0.0103
vn 0.6055 0.4984 -0.6205
vn 0.5121 -0.5655 -0.6465
vn -0.9195 -0.3796 0.1023
vn -0.5083 -0.7595 -0.4059
vn -0.8789 0.4701 0.0808
vn -0.4387 0.7883 -0.4315
vn 0.0014 0.4042 -0.9147
vn -0.0414 -0.4460 -0.8941
vn -0.2858 0.9380 -0.1964
vn -0.0989 0.9923 0.0749
vn -0.0543 0.9856 -0.1603
vn -0.1520 0.9730 -0.1739
vn -0.2022 0.9781 0.0491
vn -0.1466 0.9816 0.1224
vn 0.0255 0.9970 -0.0733
vn 0.0249 0.9971 -0.0726
vn 0.1953 0.9447 -0.2633
vn -0.6658 0.1032 0.7389
vn -0.9007 0.4264 0.0835
vn -0.7836 0.1142 -0.6107
vn -0.4079 -0.6432 -0.6481
vn -0.2102 -0.9776 0.0131
vn -0.2935 -0.6550 0.6963
vn 0.0860 -0.4909 -0.8670
vn 0.2931 -0.9557 -0.0250
vn -0.2228 0.5351 -0.8148
vn -0.2868 0.9574 0.0347
vn -0.0815 0.5181 0.8514
vn 0.2285 -0.4969 0.8372
vn -0.0111 -0.5018 -0.8649
vn 0.1252 -0.9920 -0.0131
vn -0.1369 0.5626 -0.8153
vn -0.1157 0.9932 0.0117
vn 0.0297 0.5632 0.8258
vn 0.1628 -0.5015 0.8497
vn -0.1180 -0.5080 -0.8533
vn -0.1040 -0.9945 0.0104
vn 0.0058 0.5659 -0.8245
vn 0.1203 0.9927 -0.0120
vn 0.1718 0.5664 0.8060
vn 0.0561 -0.5072 0.8600
vn 0.3527 -0.4706 -0.8088
vn 0.2593 -0.9469 -0.1904
vn 0.7033 0.2721 -0.6568
vn 0.8895 0.4546 0.0454
vn 0.7441 -0.0046 0.6681
vn 0.4071 -0.7661 0.4974
vn 0.1744 0.9543 -0.2427
vn -0.0258 0.9864 -0.1622
vn 0.0340 0.9993 -0.0124
vn 0.2360 0.9666 -0.1001
vn 0.0059 0.9471 0.3209
vn 0.1766 0.9474 0.2671
vn 0.1343 0.9704 0.2009
vn -0.0879 0.9619 0.2589
vn -0.1728 0.9823 0.0723
vn -0.2375 0.9682 -0.0783
vn 0.2278 0.9576 0.1762
vn 0.2981 0.9463 0.1247
vn 0.2563 0.9543 -0.1538
vn 0.0406 0.9864 -0.1592
vn 0.0362 0.9993 0.0021
vn 0.2564 0.9666 0.0016
vn -0.1217 0.9471 0.2970
vn 0.0564 0.9474 0.3152
vn 0.0437 0.9704 0.2376
vn -0.1833 0.9619 0.2030
vn -0.1873 0.9823 -0.0021
vn -0.1871 0.9682 -0.1660
vn 0.1394 0.9577 0.2519
vn 0.2244 0.9463 0.2326
vn -0.2189 0.9543 0.2036
vn -0.0068 0.9864 0.1642
vn -0.0359 0.9993 0.0055
vn -0.2512 0.9666 0.0516
vn 0.0575 0.9471 -0.3158
vn -0.1204 0.9474 -0.2966
vn -0.0920 0.9704 -0.2234
vn 0.1372 0.9619 -0.2365
vn 0.1837 0.9823 -0.0367
vn 0.2174 0.9682 0.1236
vn -0.1886 0.9577 -0.2176
vn -0.2677 0.9463 -0.1811
vn -0.1953 0.8922 -0.4072
vn -0.2519 0.9478 -0.1956
vn -0.1039 0.9132 -0.3941
vn -0.0086 0.9262 -0.3768
vn -0.2954 0.9551 0.0248
vn -0.0882 0.9644 -0.2494
vn -0.1962 0.9406 -0.2771
vn -0.3819 0.9233 -0.0406
vn -0.4407 0.8715 0.2151
vn -0.2934 0.9079 -0.2994
vn -0.1729 0.9003 -0.3996
vn -0.3385 0.9078 -0.2476
vn -0.3390 0.9361 0.0937
vn -0.1661 0.9470 0.2750
vn -0.4849 0.8704 -0.0857
vn 0.1574 0.9693 -0.1888
vn -0.0648 0.9525 -0.2977
vn -0.3869 0.9045 -0.1796
vn -0.4828 0.8751 0.0340
vn -0.2695 0.8835 -0.3831
vn 0.1775 -0.9839 -0.0222
vn 0.2525 -0.9221 -0.2932
vn 0.3538 -0.9004 -0.2534
vn 0.2758 -0.9612 0.0103
vn 0.1052 -0.9944 -0.0080
vn -0.0920 -0.9929 0.0754
vn -0.0931 -0.9928 0.0758
vn 0.1053 -0.9944 -0.0081
vn -0.0845 -0.9629 -0.2563
vn -0.1529 -0.9874 -0.0400
vn -0.1515 -0.9874 -0.0449
vn 0.1570 -0.9860 -0.0555
vn -0.3333 -0.9322 0.1410
vn -0.1255 -0.9892 0.0758
vn -0.1246 -0.9893 0.0754
vn 0.1611 -0.9836 0.0813
vn 0.2339 -0.9568 0.1728
vn 0.1616 -0.9834 0.0820
vn 0.1308 -0.9541 -0.2695
vn 0.0475 -0.9892 -0.1388
vn 0.0471 -0.9893 -0.1382
vn 0.1743 -0.9846 -0.0124
vn -0.0389 -0.9984 -0.0417
vn 0.0809 -0.9604 -0.2667
vn 0.2956 -0.9432 -0.1516
vn 0.1724 -0.9826 0.0693
vn -0.1862 -0.9810 0.0539
vn -0.0076 -0.9932 -0.1164
vn 0.1626 -0.9844 0.0674
vn -0.0017 -0.9709 0.2393
vn -0.0028 -0.9846 0.1748
vn -0.0028 -0.9846 0.1747
vn 0.3909 -0.8390 0.3786
vn 0.3909 -0.8390 0.3785
vn 0.2685 -0.9323 0.2424
vn 0.2692 -0.9319 0.2431
vn -0.3418 -0.9294 -0.1394
vn -0.1574 -0.9866 -0.0430
vn -0.1567 -0.9867 -0.0426
vn -0.1675 -0.9856 0.0248
vn -0.1358 -0.9712 -0.1957
vn -0.1358 -0.9712 -0.1958
vn -0.1676 -0.9855 0.0251
vn -0.1808 -0.9825 -0.0453
vn -0.3370 -0.9347 0.1130
vn -0.1803 -0.9825 -0.0458
vn -0.2122 -0.9617 0.1734
vn -0.2122 -0.9617 0.1735
vn -0.2861 -0.9455 0.1557
vn 0.2858 -0.9380 0.1964
vn 0.0989 -0.9923 -0.0749
vn 0.2022 -0.9781 -0.0491
vn 0.1520 -0.9730 0.1739
vn 0.0543 -0.9856 0.1603
vn 0.1466 -0.9816 -0.1224
vn -0.0249 -0.9971 0.0726
vn -0.0255 -0.9970 0.0733
vn -0.1953 -0.9447 0.2633
vn -0.1744 -0.9543 0.2427
vn -0.2360 -0.9666 0.1001
vn -0.0341 -0.9993 0.0124
vn 0.0257 -0.9864 0.1622
vn -0.0059 -0.9471 -0.3209
vn 0.0879 -0.9619 -0.2589
vn -0.1343 -0.9704 -0.2009
vn -0.1766 -0.9474 -0.2670
vn 0.1728 -0.9823 -0.0723
vn 0.2375 -0.9682 0.0783
vn -0.2982 -0.9463 -0.1247
vn -0.2277 -0.9577 -0.1761
vn -0.2563 -0.9543 0.1537
vn -0.2564 -0.9666 -0.0016
vn -0.0362 -0.9993 -0.0021
vn -0.0406 -0.9864 0.1591
vn 0.1217 -0.9471 -0.2971
vn 0.1833 -0.9619 -0.2029
vn -0.0437 -0.9704 -0.2376
vn -0.0563 -0.9474 -0.3152
vn 0.1873 -0.9823 0.0021
vn 0.1871 -0.9682 0.1659
vn -0.2244 -0.9463 -0.2326
vn -0.1394 -0.9577 -0.2519
vn 0.2189 -0.9543 -0.2036
vn 0.2512 -0.9666 -0.0516
vn 0.0358 -0.9993 -0.0055
vn 0.0067 -0.9864 -0.1642
vn -0.0576 -0.9471 0.3158
vn -0.1373 -0.9619 0.2365
vn 0.0920 -0.9704 0.2234
vn 0.1204 -0.9474 0.2966
vn -0.1837 -0.9823 0.0367
vn -0.2174 -0.9682 -0.1236
vn 0.2677 -0.9463 0.1811
vn 0.1886 -0.9577 0.2175
vn 0.1953 -0.8922 0.4072
vn 0.1039 -0.9132 0.3941
vn 0.2519 -0.9478 0.1956
vn 0.0086 -0.9262 0.3768
vn 0.2954 -0.9551 -0.0248
vn 0.0882 -0.9644 0.2494
vn 0.1962 -0.9406 0.2771
vn 0.3819 -0.9233 0.0406
vn 0.4407 -0.8715 -0.2152
vn 0.2934 -0.9079 0.2994
vn 0.3385 -0.9078 0.2476
vn 0.1729 -0.9002 0.3997
vn 0.3390 -0.9361 -0.0937
vn 0.1661 -0.9470 -0.2750
vn 0.4849 -0.8704 0.0857
vn -0.1574 -0.9693 0.1888
vn 0.0649 -0.9524 0.2977
vn 0.3870 -0.9044 0.1796
vn 0.4828 -0.8750 -0.0340
vn 0.2696 -0.8834 0.3832
vn -0.5677 0.4153 -0.7108
vn 0.1267 0.7230 -0.6791
vn 0.7593 0.3202 -0.5666
vn 0.6881 -0.5126 -0.5135
vn 0.0057 -0.8157 -0.5784
vn -0.6299 -0.4184 -0.6544
vn 0.8169 -0.5762 0.0247
vn -0.0544 -0.9921 -0.1131
vn 0.8670 0.4822 0.1253
vn 0.0640 0.9947 0.0800
vn -0.7961 0.6029 -0.0523
vn -0.8738 -0.4599 -0.1577
vn 0.8333 -0.5522 -0.0280
vn -0.0369 -0.9640 -0.2632
vn 0.8388 0.4863 0.2446
vn 0.0386 0.9668 0.2524
vn -0.7967 0.6022 0.0515
vn -0.8724 -0.4315 -0.2298
vn 0.8456 -0.5235 -0.1046
vn -0.0088 -0.8893 -0.4572
vn 0.8108 0.4316 0.3954
vn 0.0042 0.8742 0.4855
vn -0.8124 0.5463 0.2039
vn -0.8627 -0.4025 -0.3061
vn 0.6808 -0.6574 0.3230
vn 0.0991 -0.9930 -0.0646
vn 0.4702 -0.0786 0.8791
vn -0.2432 0.0987 0.9649
vn -0.8158 -0.2093 0.5391
vn -0.5896 -0.8077 -0.0088
vn 0.1881 0.9159 0.3545
vn 0.2939 0.8865 0.3574
vn 0.3212 0.9288 0.1851
vn 0.2118 0.9610 0.1777
vn 0.1711 0.9558 0.2390
vn 0.0063 0.9738 0.2271
vn -0.0146 0.9281 0.3720
vn 0.1540 0.9082 0.3891
vn 0.1377 0.7810 0.6091
vn 0.1736 0.8893 0.4231
vn 0.0148 0.9144 0.4045
vn -0.0159 0.8035 0.5951
vn 0.2620 0.8105 0.5239
vn 0.3563 0.7749 0.5221
vn 0.3968 0.8409 0.3681
vn -0.2566 0.9447 0.2042
vn -0.2991 0.8812 0.3661
vn -0.2202 0.9016 0.3723
vn -0.1546 0.9742 0.1644
vn -0.3070 0.9513 0.0270
vn -0.4519 0.8921 0.0048
vn -0.4802 0.8678 0.1278
vn -0.3195 0.9318 0.1722
vn 0.0494 0.9800 0.1929
vn 0.2113 0.9551 0.2076
vn -0.2477 0.8559 0.4540
vn -0.2407 0.8129 0.5304
vn 0.1579 0.8395 0.5199
vn 0.4272 0.8840 0.1900
vn 0.1833 0.9789 0.0901
vn 0.0251 0.9971 0.0716
vn -0.5018 0.8256 0.2582
vn -0.3476 0.8864 0.3056
vn -0.1881 -0.9160 -0.3545
vn -0.2117 -0.9610 -0.1777
vn -0.3212 -0.9288 -0.1851
vn -0.2939 -0.8865 -0.3574
vn -0.1711 -0.9558 -0.2390
vn -0.1541 -0.9082 -0.3891
vn 0.0146 -0.9281 -0.3719
vn -0.0063 -0.9739 -0.2271
vn -0.1376 -0.7810 -0.6091
vn 0.0159 -0.8035 -0.5951
vn -0.0148 -0.9144 -0.4045
vn -0.1735 -0.8893 -0.4231
vn -0.2620 -0.8105 -0.5239
vn -0.3968 -0.8409 -0.3681
vn -0.3562 -0.7749 -0.5221
vn 0.2566 -0.9447 -0.2043
vn 0.1546 -0.9742 -0.1644
vn 0.2201 -0.9016 -0.3724
vn 0.2991 -0.8812 -0.3661
vn 0.3070 -0.9513 -0.0270
vn 0.3196 -0.9318 -0.1723
vn 0.4802 -0.8678 -0.1278
vn 0.4520 -0.8920 -0.0048
vn -0.0494 -0.9800 -0.1929
vn -0.2114 -0.9551 -0.2076
vn 0.2407 -0.8129 -0.5303
vn 0.2478 -0.8559 -0.4540
vn -0.1579 -0.8395 -0.5199
vn -0.4272 -0.8840 -0.1900
vn -0.1832 -0.9789 -0.0902
vn -0.0251 -0.9971 -0.0716
vn 0.3476 -0.8864 -0.3056
vn 0.5017 -0.8256 -0.2581
vn 0.2975 0.9284 0.2228
vn 0.3520 0.9273 0.1275
vn 0.2081 0.9776 0.0326
vn 0.1477 0.9805 0.1295
vn 0.4923 0.8433 0.2156
vn 0.5382 0.8333 0.1264
vn 0.4139 0.9097 0.0345
vn 0.4377 0.8444 0.3089
vn 0.2663 0.9617 -0.0655
vn -0.2975 -0.9284 -0.2228
vn -0.1478 -0.9805 -0.1296
vn -0.2082 -0.9775 -0.0326
vn -0.3520 -0.9273 -0.1275
vn -0.4923 -0.8433 -0.2156
vn -0.4138 -0.9097 -0.0345
vn -0.5381 -0.8333 -0.1264
vn -0.4376 -0.8444 -0.3089
vn -0.2663 -0.9617 0.0656
vn 0.1176 0.9160 0.3837
vn 0.2210 0.8865 0.4066
vn 0.2804 0.9288 0.2425
vn 0.1743 0.9610 0.2147
vn 0.1582 0.8105 0.5640
vn 0.2511 0.7749 0.5801
vn 0.3200 0.8409 0.4365
vn 0.0567 0.8395 0.5403
vn 0.3835 0.8840 0.2674
vn -0.1177 -0.9159 -0.3837
vn -0.1744 -0.9610 -0.2146
vn -0.2804 -0.9287 -0.2425
vn -0.2210 -0.8865 -0.4066
vn -0.1581 -0.8105 -0.5640
vn -0.3199 -0.8409 -0.4365
vn -0.2510 -0.7749 -0.5801
vn -0.0567 -0.8395 -0.5404
vn -0.3835 -0.8840 -0.2674
vn -0.1744 0.9846 0.0124
vn -0.0881 0.9961 -0.0068
vn -0.0881 0.9961 -0.0069
vn 0.0358 0.9993 0.0065
vn -0.0829 0.9964 0.0153
vn -0.0828 0.9964 0.0153
vn 0.0866 -0.9962 -0.0107
vn 0.0865 -0.9962 -0.0108
vn -0.0374 -0.9993 -0.0039
vn 0.0896 -0.9960 0.0064
vn 0.0895 -0.9960 0.0064
vn 0.0029 0.9846 -0.1747
vn -0.1356 0.9860 -0.0968
vn -0.0339 0.9979 -0.0552
vn 0.1355 -0.9861 0.0967
vn -0.1909 -0.9507 0.2445
vn -0.1908 -0.9507 0.2445
vn 0.1904 0.9520 -0.2396
vn 0.1904 0.9520 -0.2395
vn 0.0144 0.9793 0.2021
vn -0.0147 -0.9793 -0.2018
vn 0.0350 -0.9978 0.0557
vn 0.1665 0.9860 0.0026
vn -0.1665 -0.9860 -0.0026
vn -0.9774 -0.2101 -0.0255
vn -0.5399 -0.1196 0.8332
vn 0.4375 0.1130 0.8921
vn 0.9686 0.2465 0.0311
vn 0.4802 0.1121 -0.8700
vn -0.5010 -0.1173 -0.8575
vn 0.1332 0.9846 0.1133
vn 0.1331 0.9846 0.1132
vn 0.1332 0.9846 0.1132
vn -0.1332 -0.9846 -0.1132
vn -0.1332 -0.9846 -0.1133
vn -0.0313 0.9984 -0.0477
vn 0.1583 0.9826 0.0973
vn 0.3168 0.9432 -0.0997
vn 0.1246 0.9604 -0.2494
vn -0.1869 0.9693 0.1597
vn 0.0138 0.9524 0.3044
vn 0.3512 0.9044 0.2421
vn 0.4816 0.8751 0.0476
vn 0.2013 0.8835 0.4231
vn 0.0313 -0.9984 0.0477
vn -0.1246 -0.9604 0.2494
vn -0.3169 -0.9432 0.0997
vn -0.1583 -0.9826 -0.0973
vn 0.1869 -0.9693 -0.1597
vn -0.0139 -0.9524 -0.3044
vn -0.3513 -0.9044 -0.2422
vn -0.4817 -0.8750 -0.0477
vn -0.2013 -0.8834 -0.4231
vn -0.0477 0.9984 -0.0314
vn 0.1838 0.9826 0.0269
vn 0.2517 0.9433 -0.2166
vn 0.0160 0.9604 -0.2782
vn -0.1088 0.9693 0.2204
vn 0.1329 0.9525 0.2741
vn 0.4184 0.9044 0.0839
vn 0.4614 0.8751 -0.1461
vn 0.3520 0.8835 0.3092
vn 0.0476 -0.9984 0.0315
vn -0.0161 -0.9604 0.2782
vn -0.2517 -0.9432 0.2166
vn -0.1838 -0.9826 -0.0269
vn 0.1088 -0.9693 -0.2205
vn -0.1328 -0.9524 -0.2743
vn -0.4183 -0.9044 -0.0838
vn -0.4613 -0.8751 0.1462
vn -0.3519 -0.8835 -0.3093
s 1
f 1/1/1 2/2/2 3/3/3
f 3/3/3 4/4/4 1/1/1
f 5/5/5 1/1/1 4/4/4
f 4/4/4 6/6/6 5/5/5
f 7/7/7 5/8/5 6/9/6
f 6/9/6 8/10/8 7/7/7
f 9/11/9 7/7/7 8/10/8
f 8/10/8 10/12/10 9/11/9
f 11/13/11 9/11/9 10/12/10
f 10/12/10 12/14/12 11/13/11
f 2/2/2 11/13/11 12/14/12
f 12/14/12 3/3/3 2/2/2
f 13/15/13 14/16/14 15/17/15
f 15/17/15 16/18/16 13/15/13
f 15/17/15 17/19/17 18/20/18
f 18/20/18 16/18/16 15/17/15
f 17/21/17 19/22/19 20/23/20
f 20/23/20 18/24/18 17/21/17
f 19/22/19 21/25/21 22/26/22
f 22/26/22 20/23/20 19/22/19
f 21/25/21 23/27/23 24/28/24
f 24/28/24 22/26/22 21/25/21
f 23/27/23 14/16/14 13/15/13
f 13/15/13 24/28/24 23/27/23
f 25/29/25 26/30/26 27/31/27
f 27/31/27 28/32/28 25/29/25
f 29/33/29 25/29/25 28/32/28
f 28/32/28 30/34/30 29/33/29
f 31/35/31 29/36/29 30/37/30
f 30/37/30 32/38/32 31/35/31
f 33/39/33 31/35/31 32/38/32
f 32/38/32 34/40/34 33/39/33
f 35/41/35 33/39/33 34/40/34
f 34/40/34 36/42/36 35/41/35
f 26/30/26 35/41/35 36/42/36
f 36/42/36 27/31/27 26/30/26
f 28/32/28 27/31/27 13/15/13
f 13/15/13 16/18/16 28/32/28
f 30/34/30 28/32/28 16/18/16
f 16/18/16 18/20/18 30/34/30
f 32/38/32 30/37/30 18/24/18
f 18/24/18 20/23/20 32/38/32
f 34/40/34 32/38/32 20/23/20
f 20/23/20 22/26/22 34/40/34
f 36/42/36 34/40/34 22/26/22
f 22/26/22 24/28/24 36/42/36
f 27/31/27 36/42/36 24/28/24
f 24/28/24 13/15/13 27/31/27
f 37/43/37 26/30/26 25/29/25
f 37/44/37 25/29/25 29/33/29
f 37/43/37 29/36/29 31/35/31
f 37/43/37 31/35/31 33/39/33
f 37/43/37 33/39/33 35/41/35
f 37/43/37 35/41/35 26/30/26
s 2
f 38/45/38 39/46/39 40/47/40
f 40/47/40 41/48/41 42/49/42
f 38/45/38 40/47/40 42/49/42
f 38/45/38 42/49/42 43/50/43
f 44/51/44 45/52/45 42/49/42
f 42/49/42 41/48/41 44/51/44
f 46/53/46 44/54/44 41/55/41
f 41/55/41 40/56/40 46/53/46
f 47/57/47 46/53/46 40/56/40
f 40/56/40 39/46/39 47/57/47
f 48/58/48 47/57/47 39/46/39
f 39/46/39 38/59/38 48/58/48
f 49/60/49 48/58/48 38/59/38
f 38/59/38 43/61/43 49/60/49
f 45/52/45 49/60/49 43/61/43
f 43/61/43 42/49/42 45/52/45
f 50/62/50 51/63/51 45/52/45
f 45/52/45 44/51/44 50/62/50
f 52/64/52 50/65/50 44/54/44
f 44/54/44 46/53/46 52/64/52
f 53/66/53 52/64/52 46/53/46
f 46/53/46 47/57/47 53/66/53
f 54/67/54 53/66/53 47/57/47
f 47/57/47 48/58/48 54/67/54
f 55/68/55 54/67/54 48/58/48
f 48/58/48 49/60/49 55/68/55
f 51/63/51 55/68/55 49/60/49
f 49/60/49 45/52/45 51/63/51
f 56/69/56 57/70/57 51/63/51
f 51/63/51 50/62/50 56/69/56
f 58/71/58 56/72/56 50/65/50
f 50/65/50 52/64/52 58/71/58
f 59/73/59 58/71/58 52/64/52
f 52/64/52 53/66/53 59/73/59
f 60/74/60 59/73/59 53/66/53
f 53/66/53 54/67/54 60/74/60
f 61/75/61 60/74/60 54/67/54
f 54/67/54 55/68/55 61/75/61
f 57/70/57 61/75/61 55/68/55
f 55/68/55 51/63/51 57/70/57
f 62/76/62 63/77/63 57/70/57
f 57/70/57 56/69/56 62/76/62
f 64/78/64 62/79/62 56/72/56
f 56/72/56 58/71/58 64/78/64
f 65/80/65 64/78/64 58/71/58
f 58/71/58 59/73/59 65/80/65
f 66/81/66 65/80/65 59/73/59
f 59/73/59 60/74/60 66/81/66
f 67/82/67 66/81/66 60/74/60
f 60/74/60 61/75/61 67/82/67
f 63/77/63 67/82/67 61/75/61
f 61/75/61 57/70/57 63/77/63
f 62/76/62 64/78/64 65/80/65
f 65/80/65 63/77/63 62/76/62
f 66/81/66 67/82/67 63/77/63
f 63/77/63 65/80/65 66/81/66
s 3
f 68/83/68 69/84/69 70/85/70
f 70/85/70 71/86/71 68/83/68
s 4
f 72/87/72 73/88/72 74/89/73
f 74/89/73 75/90/74 72/87/72
s 5
f 76/91/75 77/92/76 78/93/77
f 78/93/77 79/94/75 76/91/75
s 6
f 80/95/78 81/96/78 82/97/78
f 82/97/78 83/98/78 80/95/78
s 7
f 84/99/79 85/100/80 86/101/81
f 86/101/81 87/102/82 88/103/83
f 84/99/79 86/101/81 88/103/83
f 84/99/79 88/103/83 89/104/84
f 90/105/85 91/106/86 88/103/83
f 88/103/83 87/102/82 90/105/85
f 92/107/87 90/108/85 87/109/82
f 87/109/82 86/110/81 92/107/87
f 93/111/88 92/107/87 86/110/81
f 86/110/81 85/100/80 93/111/88
f 94/112/89 93/111/88 85/100/80
f 85/100/80 84/113/79 94/112/89
f 95/114/90 94/112/89 84/113/79
f 84/113/79 89/115/84 95/114/90
f 91/106/86 95/114/90 89/115/84
f 89/115/84 88/103/83 91/106/86
f 96/116/91 97/117/92 91/106/86
f 91/106/86 90/105/85 96/116/91
f 98/118/93 96/119/91 90/108/85
f 90/108/85 92/107/87 98/118/93
f 99/120/94 98/118/93 92/107/87
f 92/107/87 93/111/88 99/120/94
f 100/121/95 99/120/94 93/111/88
f 93/111/88 94/112/89 100/121/95
f 101/122/96 100/121/95 94/112/89
f 94/112/89 95/114/90 101/122/96
f 97/117/92 101/122/96 95/114/90
f 95/114/90 91/106/86 97/117/92
s 8
f 102/123/97 103/124/98 104/125/98
f 104/125/98 105/126/99 102/123/97
s 9
f 106/127/100 107/128/101 108/129/102
f 108/129/102 109/130/103 106/127/100
s 10
f 110/131/104 111/132/105 112/133/105
f 112/133/105 113/134/106 110/131/104
s 11
f 114/135/107 115/136/108 116/137/109
f 116/137/109 117/138/110 118/139/111
f 114/135/107 116/137/109 118/139/111
f 114/135/107 118/139/111 119/140/112
f 120/141/113 121/142/114 118/139/111
f 118/139/111 117/138/110 120/141/113
f 122/143/115 120/144/113 117/145/110
f 117/145/110 116/146/109 122/143/115
f 123/147/116 122/143/115 116/146/109
f 116/146/109 115/136/108 123/147/116
f 124/148/117 123/147/116 115/136/108
f 115/136/108 114/149/107 124/148/117
f 125/150/118 124/148/117 114/149/107
f 114/149/107 119/151/112 125/150/118
f 121/142/114 125/150/118 119/151/112
f 119/151/112 118/139/111 121/142/114
f 126/152/119 127/153/120 121/142/114
f 121/142/114 120/141/113 126/152/119
f 128/154/121 126/155/119 120/144/113
f 120/144/113 122/143/115 128/154/121
f 129/156/122 128/154/121 122/143/115
f 122/143/115 123/147/116 129/156/122
f 130/157/123 129/156/122 123/147/116
f 123/147/116 124/148/117 130/157/123
f 131/158/124 130/157/123 124/148/117
f 124/148/117 125/150/118 131/158/124
f 127/153/120 131/158/124 125/150/118
f 125/150/118 121/142/114 127/153/120
s 12
f 132/159/125 133/160/125 134/161/126
f 134/161/126 135/162/126 132/159/125
s 13
f 136/163/127 137/164/128 138/165/129
f 138/165/129 139/166/130 140/167/131
f 136/163/127 138/165/129 140/167/131
f 136/163/127 140/167/131 141/168/132
f 142/169/133 143/170/134 140/167/131
f 140/167/131 139/166/130 142/169/133
f 144/171/135 142/172/133 139/173/130
f 139/173/130 138/174/129 144/171/135
f 145/175/136 144/171/135 138/174/129
f 138/174/129 137/164/128 145/175/136
f 146/176/137 145/175/136 137/164/128
f 137/164/128 136/177/127 146/176/137
f 147/178/138 146/176/137 136/177/127
f 136/177/127 141/179/132 147/178/138
f 143/170/134 147/178/138 141/179/132
f 141/179/132 140/167/131 143/170/134
f 148/180/139 149/181/140 143/170/134
f 143/170/134 142/169/133 148/180/139
f 150/182/141 148/183/139 142/172/133
f 142/172/133 144/171/135 150/182/141
f 151/184/142 150/182/141 144/171/135
f 144/171/135 145/175/136 151/184/142
f 152/185/143 151/184/142 145/175/136
f 145/175/136 146/176/137 152/185/143
f 153/186/144 152/185/143 146/176/137
f 146/176/137 147/178/138 153/186/144
f 149/181/140 153/186/144 147/178/138
f 147/178/138 143/170/134 149/181/140
f 154/187/145 155/188/146 149/181/140
f 149/181/140 148/180/139 154/187/145
f 156/189/147 154/190/145 148/183/139
f 148/183/139 150/182/141 156/189/147
f 157/191/148 156/189/147 150/182/141
f 150/182/141 151/184/142 157/191/148
f 158/192/149 157/191/148 151/184/142
f 151/184/142 152/185/143 158/192/149
f 159/193/150 158/192/149 152/185/143
f 152/185/143 153/186/144 159/193/150
f 155/188/146 159/193/150 153/186/144
f 153/186/144 149/181/140 155/188/146
f 160/194/151 161/195/152 155/188/146
f 155/188/146 154/187/145 160/194/151
f 162/196/153 160/197/151 154/190/145
f 154/190/145 156/189/147 162/196/153
f 163/198/154 162/196/153 156/189/147
f 156/189/147 157/191/148 163/198/154
f 164/199/155 163/198/154 157/191/148
f 157/191/148 158/192/149 164/199/155
f 165/200/156 164/199/155 158/192/149
f 158/192/149 159/193/150 165/200/156
f 161/195/152 165/200/156 159/193/150
f 159/193/150 155/188/146 161/195/152
f 160/194/151 162/196/153 163/198/154
f 163/198/154 161/195/152 160/194/151
f 164/199/155 165/200/156 161/195/152
f 161/195/152 163/198/154 164/199/155
s 14
f 166/201/157 167/202/158 168/203/159
f 168/203/159 169/204/160 166/201/157
s 15
f 170/205/161 171/206/162 172/207/163
f 172/207/163 173/208/164 170/205/161
s 16
f 174/209/165 175/210/166 176/211/167
f 176/211/167 177/212/168 178/213/169
f 174/209/165 176/211/167 178/213/169
f 174/209/165 178/213/169 179/214/170
f 180/215/171 181/216/172 178/213/169
f 178/213/169 177/212/168 180/215/171
f 182/217/173 180/218/171 177/219/168
f 177/219/168 176/220/167 182/217/173
f 183/221/174 182/217/173 176/220/167
f 176/220/167 175/210/166 183/221/174
f 184/222/175 183/221/174 175/210/166
f 175/210/166 174/223/165 184/222/175
f 185/224/176 184/222/175 174/223/165
f 174/223/165 179/225/170 185/224/176
f 181/216/172 185/224/176 179/225/170
f 179/225/170 178/213/169 181/216/172
f 186/226/177 187/227/178 181/216/172
f 181/216/172 180/215/171 186/226/177
f 188/228/179 186/229/177 180/218/171
f 180/218/171 182/217/173 188/228/179
f 189/230/180 188/228/179 182/217/173
f 182/217/173 183/221/174 189/230/180
f 190/231/181 189/230/180 183/221/174
f 183/221/174 184/222/175 190/231/181
f 191/232/182 190/231/181 184/222/175
f 184/222/175 185/224/176 191/232/182
f 187/227/178 191/232/182 185/224/176
f 185/224/176 181/216/172 187/227/178
f 192/233/183 193/234/184 187/227/178
f 187/227/178 186/226/177 192/233/183
f 194/235/185 192/236/183 186/229/177
f 186/229/177 188/228/179 194/235/185
f 195/237/186 194/235/185 188/228/179
f 188/228/179 189/230/180 195/237/186
f 196/238/187 195/237/186 189/230/180
f 189/230/180 190/231/181 196/238/187
f 197/239/188 196/238/187 190/231/181
f 190/231/181 191/232/182 197/239/188
f 193/234/184 197/239/188 191/232/182
f 191/232/182 187/227/178 193/234/184
f 198/240/189 199/241/190 193/234/184
f 193/234/184 192/233/183 198/240/189
f 200/242/191 198/243/189 192/236/183
f 192/236/183 194/235/185 200/242/191
f 201/244/192 200/242/191 194/235/185
f 194/235/185 195/237/186 201/244/192
f 202/245/193 201/244/192 195/237/186
f 195/237/186 196/238/187 202/245/193
f 203/246/194 202/245/193 196/238/187
f 196/238/187 197/239/188 203/246/194
f 199/241/190 203/246/194 197/239/188
f 197/239/188 193/234/184 199/241/190
f 198/240/189 200/242/191 201/244/192
f 201/244/192 199/241/190 198/240/189
f 202/245/193 203/246/194 199/241/190
f 199/241/190 201/244/192 202/245/193
s 17
f 204/247/195 205/248/195 206/249/195
f 206/249/195 207/250/195 204/247/195
s 18
f 208/251/196 209/252/197 210/253/197
f 210/253/197 211/254/198 208/251/196
s 19
f 212/255/199 213/256/200 214/257/200
f 214/257/200 215/258/201 212/255/199
s 20
f 216/259/202 217/260/203 218/261/204
f 218/261/204 219/262/205 216/259/202
s 21
f 220/263/206 221/264/207 222/265/208
f 222/265/208 223/266/208 220/263/206
s 5
f 77/92/76 224/267/209 225/268/209
f 225/268/209 78/93/77 77/92/76
s 4
f 226/269/210 227/270/211 75/90/74
f 75/90/74 74/89/73 226/269/210
s 22
f 228/271/212 229/272/213 230/273/214
f 230/273/214 231/274/215 232/275/216
f 228/271/212 230/273/214 232/275/216
f 228/271/212 232/275/216 233/276/217
f 234/277/218 235/278/219 232/275/216
f 232/275/216 231/274/215 234/277/218
f 236/279/220 234/280/218 231/281/215
f 231/281/215 230/282/214 236/279/220
f 237/283/221 236/279/220 230/282/214
f 230/282/214 229/272/213 237/283/221
f 238/284/222 237/283/221 229/272/213
f 229/272/213 228/285/212 238/284/222
f 239/286/223 238/284/222 228/285/212
f 228/285/212 233/287/217 239/286/223
f 235/278/219 239/286/223 233/287/217
f 233/287/217 232/275/216 235/278/219
f 240/288/224 241/289/225 235/278/219
f 235/278/219 234/277/218 240/288/224
f 242/290/226 240/291/224 234/280/218
f 234/280/218 236/279/220 242/290/226
f 243/292/227 242/290/226 236/279/220
f 236/279/220 237/283/221 243/292/227
f 244/293/228 243/292/227 237/283/221
f 237/283/221 238/284/222 244/293/228
f 245/294/229 244/293/228 238/284/222
f 238/284/222 239/286/223 245/294/229
f 241/289/225 245/294/229 239/286/223
f 239/286/223 235/278/219 241/289/225
s 23
f 246/295/230 247/296/230 248/297/230
f 248/297/230 249/298/230 246/295/230
s 24
f 250/299/231 251/300/232 252/301/233
f 252/301/233 253/302/234 250/299/231
s 25
f 254/303/235 255/304/236 256/305/237
f 256/305/237 257/306/235 254/303/235
f 255/304/236 258/307/238 259/308/238
f 259/308/238 256/305/237 255/304/236
s 26
f 260/309/239 261/310/240 262/311/241
f 262/311/241 263/312/242 264/313/243
f 260/309/239 262/311/241 264/313/243
f 260/309/239 264/313/243 265/314/244
f 266/315/245 267/316/246 264/313/243
f 264/313/243 263/312/242 266/315/245
f 268/317/247 266/318/245 263/319/242
f 263/319/242 262/320/241 268/317/247
f 269/321/248 268/317/247 262/320/241
f 262/320/241 261/310/240 269/321/248
f 270/322/249 269/321/248 261/310/240
f 261/310/240 260/323/239 270/322/249
f 271/324/250 270/322/249 260/323/239
f 260/323/239 265/325/244 271/324/250
f 267/316/246 271/324/250 265/325/244
f 265/325/244 264/313/243 267/316/246
f 272/326/251 273/327/252 267/316/246
f 267/316/246 266/315/245 272/326/251
f 274/328/253 272/329/251 266/318/245
f 266/318/245 268/317/247 274/328/253
f 275/330/254 274/328/253 268/317/247
f 268/317/247 269/321/248 275/330/254
f 276/331/255 275/330/254 269/321/248
f 269/321/248 270/322/249 276/331/255
f 277/332/256 276/331/255 270/322/249
f 270/322/249 271/324/250 277/332/256
f 273/327/252 277/332/256 271/324/250
f 271/324/250 267/316/246 273/327/252
f 278/333/257 279/334/258 273/327/252
f 273/327/252 272/326/251 278/333/257
f 280/335/259 278/336/257 272/329/251
f 272/329/251 274/328/253 280/335/259
f 281/337/260 280/335/259 274/328/253
f 274/328/253 275/330/254 281/337/260
f 282/338/261 281/337/260 275/330/254
f 275/330/254 276/331/255 282/338/261
f 283/339/262 282/338/261 276/331/255
f 276/331/255 277/332/256 283/339/262
f 279/334/258 283/339/262 277/332/256
f 277/332/256 273/327/252 279/334/258
f 284/340/263 285/341/264 279/334/258
f 279/334/258 278/333/257 284/340/263
f 286/342/265 284/343/263 278/336/257
f 278/336/257 280/335/259 286/342/265
f 287/344/266 286/342/265 280/335/259
f 280/335/259 281/337/260 287/344/266
f 288/345/267 287/344/266 281/337/260
f 281/337/260 282/338/261 288/345/267
f 289/346/268 288/345/267 282/338/261
f 282/338/261 283/339/262 289/346/268
f 285/341/264 289/346/268 283/339/262
f 283/339/262 279/334/258 285/341/264
f 284/340/263 286/342/265 287/344/266
f 287/344/266 285/341/264 284/340/263
f 288/345/267 289/346/268 285/341/264
f 285/341/264 287/344/266 288/345/267
s 27
f 290/347/269 291/348/270 292/349/271
f 292/349/271 293/350/272 290/347/269
f 294/351/273 295/352/274 296/353/275
f 296/353/275 297/354/276 294/351/273
f 297/354/276 296/353/275 292/349/271
f 292/349/271 298/355/277 297/354/276
f 291/348/270 299/356/278 298/355/277
f 298/355/277 292/349/271 291/348/270
f 295/352/274 300/357/279 301/358/280
f 301/358/280 296/353/275 295/352/274
f 296/353/275 301/358/280 293/350/272
f 293/350/272 292/349/271 296/353/275
s 28
f 302/359/281 303/360/282 304/361/283
f 304/361/283 305/362/284 302/359/281
f 306/363/285 307/364/286 308/365/287
f 308/365/287 309/366/288 306/363/285
f 309/366/288 308/365/287 304/361/283
f 304/361/283 310/367/289 309/366/288
f 303/360/282 311/368/290 310/367/289
f 310/367/289 304/361/283 303/360/282
f 307/364/286 312/369/291 313/370/292
f 313/370/292 308/365/287 307/364/286
f 308/365/287 313/370/292 305/362/284
f 305/362/284 304/361/283 308/365/287
s 29
f 314/371/293 315/372/294 316/373/295
f 316/373/295 317/374/296 314/371/293
f 318/375/297 319/376/298 320/377/299
f 320/377/299 321/378/300 318/375/297
f 321/378/300 320/377/299 316/373/295
f 316/373/295 322/379/301 321/378/300
f 315/372/294 323/380/302 322/379/301
f 322/379/301 316/373/295 315/372/294
f 319/376/298 324/381/303 325/382/304
f 325/382/304 320/377/299 319/376/298
f 320/377/299 325/382/304 317/374/296
f 317/374/296 316/373/295 320/377/299
s 24
f 326/383/305 327/384/306 252/301/233
f 252/301/233 328/385/307 326/383/305
f 251/300/232 329/386/308 328/385/307
f 328/385/307 252/301/233 251/300/232
f 327/384/306 330/387/309 253/302/234
f 253/302/234 252/301/233 327/384/306
s 3
f 331/388/310 332/389/311 69/84/69
f 69/84/69 68/83/68 331/388/310
f 333/390/312 334/391/313 70/85/70
f 70/85/70 69/84/69 333/390/312
f 335/392/314 333/390/312 69/84/69
f 69/84/69 332/389/311 335/392/314
s 15
f 171/206/162 336/393/315 337/394/316
f 337/394/316 172/207/163 171/206/162
f 338/395/317 339/396/318 173/208/164
f 173/208/164 172/207/163 338/395/317
f 340/397/319 338/395/317 172/207/163
f 172/207/163 337/394/316 340/397/319
s 14
f 341/398/320 342/399/321 167/202/158
f 167/202/158 166/201/157 341/398/320
f 343/400/322 344/401/323 168/203/159
f 168/203/159 167/202/158 343/400/322
f 345/402/324 343/400/322 167/202/158
f 167/202/158 342/399/321 345/402/324
s 30
f 346/403/325 347/404/326 348/405/327
f 348/405/327 349/406/328 346/403/325
s 31
f 350/407/329 351/408/330 352/409/331
f 352/409/331 353/410/332 350/407/329
s 32
f 354/411/333 355/412/333 356/413/334
f 356/413/334 357/414/335 354/411/333
s 33
f 358/415/336 359/416/336 360/417/336
f 360/417/336 361/418/336 358/415/336
s 34
f 362/419/337 363/420/337 364/421/338
f 364/421/338 365/422/339 362/419/337
s 35
f 366/423/340 367/424/341 368/425/341
f 368/425/341 369/426/342 366/423/340
s 36
f 370/427/343 371/428/343 372/429/344
f 372/429/344 373/430/345 370/427/343
s 37
f 374/431/346 375/432/346 376/433/346
f 376/433/346 377/434/346 374/431/346
s 38
f 378/435/347 379/436/348 380/437/349
f 380/437/349 381/438/350 378/435/347
s 39
f 382/439/351 383/440/352 384/441/353
f 384/441/353 385/442/354 382/439/351
s 40
f 386/443/355 387/444/355 388/445/355
f 388/445/355 389/446/356 386/443/355
s 41
f 390/447/357 391/448/358 392/449/359
f 392/449/359 393/450/360 390/447/357
s 42
f 394/451/361 395/452/361 396/453/362
f 396/453/362 397/454/363 394/451/361
s 43
f 398/455/364 399/456/365 400/457/366
f 400/457/366 401/458/367 398/455/364
s 44
f 402/459/368 403/460/369 404/461/369
f 404/461/369 405/462/370 402/459/368
s 32
f 357/414/335 356/413/334 406/463/371
f 406/463/371 407/464/372 357/414/335
s 31
f 408/465/373 352/409/331 351/408/330
f 351/408/330 409/466/373 408/465/373
s 45
f 410/467/374 411/468/374 412/469/374
f 412/469/374 413/470/374 410/467/374
s 46
f 414/471/375 415/472/376 416/473/377
f 416/473/377 417/474/378 414/471/375
s 47
f 418/475/379 419/476/379 420/477/380
f 420/477/380 421/478/381 418/475/379
f 421/478/381 420/477/380 422/479/382
f 422/479/382 423/480/382 421/478/381
s 48
f 424/481/383 425/482/384 426/483/385
f 426/483/385 427/484/386 424/481/383
f 428/485/387 429/486/388 430/487/389
f 430/487/389 431/488/390 428/485/387
f 429/486/388 432/489/391 426/483/385
f 426/483/385 430/487/389 429/486/388
f 427/484/386 426/483/385 432/489/391
f 432/489/391 433/490/392 427/484/386
f 431/488/390 430/487/389 434/491/393
f 434/491/393 435/492/394 431/488/390
f 430/487/389 426/483/385 425/482/384
f 425/482/384 434/491/393 430/487/389
s 49
f 436/493/395 437/494/396 438/495/397
f 438/495/397 439/496/398 436/493/395
f 440/497/399 441/498/400 442/499/401
f 442/499/401 443/500/402 440/497/399
f 441/498/400 444/501/403 438/495/397
f 438/495/397 442/499/401 441/498/400
f 439/496/398 438/495/397 444/501/403
f 444/501/403 445/502/404 439/496/398
f 443/500/402 442/499/401 446/503/405
f 446/503/405 447/504/406 443/500/402
f 442/499/401 438/495/397 437/494/396
f 437/494/396 446/503/405 442/499/401
s 50
f 448/505/407 449/506/408 450/507/409
f 450/507/409 451/508/410 448/505/407
f 452/509/411 453/510/412 454/511/413
f 454/511/413 455/512/414 452/509/411
f 453/510/412 456/513/415 450/507/409
f 450/507/409 454/511/413 453/510/412
f 451/508/410 450/507/409 456/513/415
f 456/513/415 457/514/416 451/508/410
f 455/512/414 454/511/413 458/515/417
f 458/515/417 459/516/418 455/512/414
f 454/511/413 450/507/409 449/506/408
f 449/506/408 458/515/417 454/511/413
s 46
f 460/517/419 461/518/420 416/473/377
f 416/473/377 462/519/421 460/517/419
f 417/474/378 416/473/377 461/518/420
f 461/518/420 463/520/422 417/474/378
f 462/519/421 416/473/377 415/472/376
f 415/472/376 464/521/423 462/519/421
s 30
f 465/522/424 346/403/325 349/406/328
f 349/406/328 466/523/425 465/522/424
f 467/524/426 349/406/328 348/405/327
f 348/405/327 468/525/427 467/524/426
f 469/526/428 466/523/425 349/406/328
f 349/406/328 467/524/426 469/526/428
s 39
f 385/442/354 384/441/353 470/527/429
f 470/527/429 471/528/430 385/442/354
f 472/529/431 384/441/353 383/440/352
f 383/440/352 473/530/432 472/529/431
f 474/531/433 470/527/429 384/441/353
f 384/441/353 472/529/431 474/531/433
s 38
f 475/532/434 378/435/347 381/438/350
f 381/438/350 476/533/435 475/532/434
f 477/534/436 381/438/350 380/437/349
f 380/437/349 478/535/437 477/534/436
f 479/536/438 476/533/435 381/438/350
f 381/438/350 477/534/436 479/536/438
s 51
f 480/537/439 481/538/440 482/539/441
f 482/539/441 483/540/442 484/541/443
f 480/537/439 482/539/441 484/541/443
f 480/537/439 484/541/443 485/542/444
f 486/543/445 487/544/446 484/541/443
f 484/541/443 483/540/442 486/543/445
f 488/545/447 486/546/445 483/547/442
f 483/547/442 482/548/441 488/545/447
f 489/549/448 488/545/447 482/548/441
f 482/548/441 481/538/440 489/549/448
f 490/550/449 489/549/448 481/538/440
f 481/538/440 480/551/439 490/550/449
f 491/552/450 490/550/449 480/551/439
f 480/551/439 485/553/444 491/552/450
f 487/544/446 491/552/450 485/553/444
f 485/553/444 484/541/443 487/544/446
f 492/554/451 493/555/452 487/544/446
f 487/544/446 486/543/445 492/554/451
f 494/556/453 492/557/451 486/546/445
f 486/546/445 488/545/447 494/556/453
f 495/558/454 494/556/453 488/545/447
f 488/545/447 489/549/448 495/558/454
f 496/559/455 495/558/454 489/549/448
f 489/549/448 490/550/449 496/559/455
f 497/560/456 496/559/455 490/550/449
f 490/550/449 491/552/450 497/560/456
f 493/555/452 497/560/456 491/552/450
f 491/552/450 487/544/446 493/555/452
f 498/561/457 499/562/458 493/555/452
f 493/555/452 492/554/451 498/561/457
f 500/563/459 498/564/457 492/557/451
f 492/557/451 494/556/453 500/563/459
f 501/565/460 500/563/459 494/556/453
f 494/556/453 495/558/454 501/565/460
f 502/566/461 501/565/460 495/558/454
f 495/558/454 496/559/455 502/566/461
f 503/567/462 502/566/461 496/559/455
f 496/559/455 497/560/456 503/567/462
f 499/562/458 503/567/462 497/560/456
f 497/560/456 493/555/452 499/562/458
f 504/568/463 505/569/464 499/562/458
f 499/562/458 498/561/457 504/568/463
f 506/570/465 504/571/463 498/564/457
f 498/564/457 500/563/459 506/570/465
f 507/572/466 506/570/465 500/563/459
f 500/563/459 501/565/460 507/572/466
f 508/573/467 507/572/466 501/565/460
f 501/565/460 502/566/461 508/573/467
f 509/574/468 508/573/467 502/566/461
f 502/566/461 503/567/462 509/574/468
f 505/569/464 509/574/468 503/567/462
f 503/567/462 499/562/458 505/569/464
f 504/568/463 506/570/465 507/572/466
f 507/572/466 505/569/464 504/568/463
f 508/573/467 509/574/468 505/569/464
f 505/569/464 507/572/466 508/573/467
s 52
f 510/575/469 511/576/470 512/577/471
f 512/577/471 513/578/472 510/575/469
s 53
f 514/579/473 515/580/474 516/581/475
f 516/581/475 517/582/476 514/579/473
s 54
f 518/583/477 519/584/478 520/585/479
f 520/585/479 521/586/480 518/583/477
s 52
f 522/587/481 523/588/482 524/589/483
f 524/589/483 511/576/470 522/587/481
s 54
f 525/590/484 526/591/485 527/592/486
f 527/592/486 528/593/487 525/590/484
s 53
f 529/594/488 530/595/489 531/596/490
f 531/596/490 532/597/491 529/594/488
s 54
f 528/593/487 527/592/486 520/585/479
f 520/585/479 533/598/492 528/593/487
f 519/584/478 534/599/493 533/598/492
f 533/598/492 520/585/479 519/584/478
f 526/591/485 535/600/494 536/601/495
f 536/601/495 527/592/486 526/591/485
f 527/592/486 536/601/495 521/586/480
f 521/586/480 520/585/479 527/592/486
s 52
f 537/602/496 522/587/481 511/576/470
f 511/576/470 510/575/469 537/602/496
f 538/603/497 512/577/471 511/576/470
f 511/576/470 524/589/483 538/603/497
s 53
f 539/604/498 540/605/499 515/580/474
f 515/580/474 514/579/473 539/604/498
f 531/596/490 541/606/500 542/607/501
f 542/607/501 532/597/491 531/596/490
f 515/580/474 532/597/491 542/607/501
f 542/607/501 516/581/475 515/580/474
f 540/605/499 529/594/488 532/597/491
f 532/597/491 515/580/474 540/605/499
s 55
f 543/608/502 544/609/503 545/610/504
f 545/610/504 546/611/505 543/608/502
s 56
f 547/612/506 548/613/507 549/614/508
f 549/614/508 550/615/509 547/612/506
s 57
f 551/616/510 552/617/511 553/618/512
f 553/618/512 554/619/513 551/616/510
s 55
f 555/620/514 546/611/505 556/621/515
f 556/621/515 557/622/516 555/620/514
s 57
f 558/623/517 559/624/518 560/625/519
f 560/625/519 561/626/520 558/623/517
s 56
f 562/627/521 563/628/522 564/629/523
f 564/629/523 565/630/524 562/627/521
s 57
f 559/624/518 566/631/525 553/618/512
f 553/618/512 560/625/519 559/624/518
f 554/619/513 553/618/512 566/631/525
f 566/631/525 567/632/526 554/619/513
f 561/626/520 560/625/519 568/633/527
f 568/633/527 569/634/528 561/626/520
f 560/625/519 553/618/512 552/617/511
f 552/617/511 568/633/527 560/625/519
s 55
f 570/635/529 543/608/502 546/611/505
f 546/611/505 555/620/514 570/635/529
f 571/636/530 556/621/515 546/611/505
f 546/611/505 545/610/504 571/636/530
s 56
f 572/637/531 547/612/506 550/615/509
f 550/615/509 573/638/532 572/637/531
f 564/629/523 563/628/522 574/639/533
f 574/639/533 575/640/534 564/629/523
f 550/615/509 549/614/508 574/639/533
f 574/639/533 563/628/522 550/615/509
f 573/638/532 550/615/509 563/628/522
f 563/628/522 562/627/521 573/638/532
s 58
f 576/641/535 577/642/536 578/643/537
f 578/643/537 579/644/538 576/641/535
f 580/645/539 581/646/540 582/647/541
f 582/647/541 577/642/536 580/645/539
f 583/648/542 580/645/539 577/642/536
f 577/642/536 576/641/535 583/648/542
f 584/649/543 578/643/537 577/642/536
f 577/642/536 582/647/541 584/649/543
s 59
f 585/650/544 586/651/545 587/652/546
f 587/652/546 588/653/547 585/650/544
f 589/654/548 588/653/547 590/655/549
f 590/655/549 591/656/550 589/654/548
f 592/657/551 585/650/544 588/653/547
f 588/653/547 589/654/548 592/657/551
f 593/658/552 590/655/549 588/653/547
f 588/653/547 587/652/546 593/658/552
s 60
f 594/659/553 595/660/554 596/661/555
f 596/661/555 597/662/556 594/659/553
f 598/663/557 599/664/558 600/665/559
f 600/665/559 595/660/554 598/663/557
f 601/666/560 598/663/557 595/660/554
f 595/660/554 594/659/553 601/666/560
f 602/667/561 596/661/555 595/660/554
f 595/660/554 600/665/559 602/667/561
s 61
f 603/668/562 604/669/563 605/670/564
f 605/670/564 606/671/565 603/668/562
f 607/672/566 606/671/565 608/673/567
f 608/673/567 609/674/568 607/672/566
f 610/675/569 603/668/562 606/671/565
f 606/671/565 607/672/566 610/675/569
f 611/676/570 608/673/567 606/671/565
f 606/671/565 605/670/564 611/676/570
s 12
f 135/162/126 134/161/126 612/677/571
f 612/677/571 613/678/571 135/162/126
s 8
f 102/123/97 105/126/99 614/679/572
f 614/679/572 615/680/573 102/123/97
s 10
f 110/131/104 113/134/106 616/681/574
f 616/681/574 617/682/574 110/131/104
s 9
f 109/130/103 108/129/102 618/683/575
f 618/683/575 619/684/576 109/130/103
s 35
f 366/423/340 369/426/342 620/685/577
f 620/685/577 621/686/578 366/423/340
s 36
f 373/430/345 372/429/344 622/687/579
f 622/687/579 623/688/579 373/430/345
s 34
f 365/422/339 364/421/338 624/689/580
f 624/689/580 625/690/581 365/422/339
s 17
f 205/248/195 204/247/195 626/691/582
f 626/691/582 627/692/582 205/248/195
s 18
f 208/251/196 211/254/198 628/693/583
f 628/693/583 629/694/583 208/251/196
s 19
f 212/255/199 215/258/201 630/695/584
f 630/695/584 631/696/584 212/255/199
s 40
f 632/697/356 386/443/355 389/446/356
f 389/446/356 633/698/356 632/697/356
s 41
f 393/450/360 392/449/359 634/699/585
f 634/699/585 635/700/585 393/450/360
s 43
f 398/455/364 401/458/367 636/701/586
f 636/701/586 637/702/587 398/455/364
s 20
f 219/262/205 218/261/204 638/703/588
f 638/703/588 639/704/589 219/262/205
s 21
f 221/264/207 220/263/206 640/705/590
f 640/705/590 641/706/590 221/264/207
s 44
f 642/707/591 402/459/368 405/462/370
f 405/462/370 643/708/591 642/707/591
s 42
f 397/454/363 396/453/362 644/709/592
f 644/709/592 645/710/592 397/454/363
s 62
f 646/711/593 647/712/593 648/713/593
f 648/713/593 649/714/593 646/711/593
s 63
f 650/715/594 651/716/594 652/717/594
f 652/717/594 653/718/594 650/715/594
s 22
f 244/293/228 245/294/229 241/289/225
f 241/289/225 240/288/224 242/290/226
f 244/293/228 241/289/225 242/290/226
f 244/293/228 242/290/226 243/292/227
s 1
f 14/16/14 654/719/595 655/720/596
f 655/720/596 15/17/15 14/16/14
f 655/720/596 654/719/595 2/2/2
f 2/2/2 1/1/1 655/720/596
f 15/17/15 655/720/596 656/721/597
f 656/721/597 17/19/17 15/17/15
f 656/721/597 655/720/596 1/1/1
f 1/1/1 5/5/5 656/721/597
f 17/21/17 656/722/597 657/723/598
f 657/723/598 19/22/19 17/21/17
f 657/723/598 656/722/597 5/8/5
f 5/8/5 7/7/7 657/723/598
f 19/22/19 657/723/598 658/724/599
f 658/724/599 21/25/21 19/22/19
f 658/724/599 657/723/598 7/7/7
f 7/7/7 9/11/9 658/724/599
f 21/25/21 658/724/599 659/725/600
f 659/725/600 23/27/23 21/25/21
f 659/725/600 658/724/599 9/11/9
f 9/11/9 11/13/11 659/725/600
f 23/27/23 659/725/600 654/719/595
f 654/719/595 14/16/14 23/27/23
f 654/719/595 659/725/600 11/13/11
f 11/13/11 2/2/2 654/719/595
s 11
f 130/157/123 131/158/124 127/153/120
f 127/153/120 126/152/119 128/154/121
f 130/157/123 127/153/120 128/154/121
f 130/157/123 128/154/121 129/156/122
s 64
f 660/726/601 661/727/602 662/728/603
f 662/728/603 663/729/601 660/726/601
s 65
f 664/730/604 665/731/604 666/732/604
f 666/732/604 667/733/605 664/730/604
s 64
f 663/729/601 662/728/603 668/734/603
f 668/734/603 669/735/603 663/729/601
s 7
f 100/121/95 101/122/96 97/117/92
f 97/117/92 96/116/91 98/118/93
f 100/121/95 97/117/92 98/118/93
f 100/121/95 98/118/93 99/120/94
s 66
f 670/736/606 671/737/607 672/738/608
f 672/738/608 673/739/609 670/736/606
f 674/740/610 675/741/611 671/737/607
f 671/737/607 670/736/606 674/740/610
f 676/742/612 677/743/613 672/738/608
f 672/738/608 671/737/607 676/742/612
f 678/744/614 676/742/612 671/737/607
f 671/737/607 675/741/611 678/744/614
s 67
f 679/745/615 680/746/616 681/747/617
f 681/747/617 682/748/618 679/745/615
f 683/749/619 679/745/615 682/748/618
f 682/748/618 684/750/620 683/749/619
f 685/751/621 682/748/618 681/747/617
f 681/747/617 686/752/622 685/751/621
f 687/753/623 684/750/620 682/748/618
f 682/748/618 685/751/621 687/753/623
s 68
f 688/754/624 689/755/625 690/756/626
f 690/756/626 691/757/627 688/754/624
f 692/758/628 693/759/629 689/755/625
f 689/755/625 688/754/624 692/758/628
f 694/760/630 695/761/631 690/756/626
f 690/756/626 689/755/625 694/760/630
f 696/762/632 694/760/630 689/755/625
f 689/755/625 693/759/629 696/762/632
s 69
f 697/763/633 698/764/634 699/765/635
f 699/765/635 700/766/636 697/763/633
f 701/767/637 697/763/633 700/766/636
f 700/766/636 702/768/638 701/767/637
f 703/769/639 700/766/636 699/765/635
f 699/765/635 704/770/640 703/769/639
f 705/771/641 702/768/638 700/766/636
f 700/766/636 703/769/639 705/771/641
