# Blender v3.3.0 OBJ File: ''
# www.blender.org
o ItemPotato.005
v 0.036944 -0.040966 -0.018415
v 0.000000 -0.050079 -0.000000
v -0.014111 -0.042600 -0.029797
v 0.016294 -0.039796 -0.034406
v -0.024007 -0.022396 -0.050693
v 0.022832 -0.026328 -0.048212
v 0.062852 -0.022396 -0.031330
v -0.045665 -0.042600 -0.000000
v -0.042659 -0.039796 -0.021264
v -0.077690 -0.022396 -0.000000
v -0.059776 -0.026328 -0.029797
v -0.014111 -0.042600 0.029796
v -0.042659 -0.039796 0.021264
v -0.024007 -0.022396 0.050693
v -0.059776 -0.026328 0.029796
v 0.036944 -0.040966 0.018415
v 0.016294 -0.039796 0.034406
v 0.062852 -0.022396 0.031330
v 0.022832 -0.026328 0.048212
v 0.052729 -0.039796 -0.000000
v 0.073887 -0.026328 -0.000000
v 0.051055 0.000000 -0.048212
v 0.026365 -0.009394 -0.055670
v 0.000000 0.000000 -0.059593
v 0.024007 0.022396 -0.050693
v -0.051055 0.000000 -0.048212
v -0.069024 -0.009394 -0.034406
v -0.079116 0.000000 -0.018415
v -0.062852 0.022396 -0.031330
v -0.079116 -0.000000 0.018415
v -0.069024 -0.009395 0.034406
v -0.051055 -0.000000 0.048212
v -0.062852 0.022396 0.031330
v 0.000000 -0.000000 0.059593
v 0.026365 -0.009395 0.055670
v 0.051055 -0.000000 0.048212
v 0.024007 0.022396 0.050693
v 0.079116 -0.000000 0.018415
v 0.085318 -0.009395 -0.000000
v 0.079116 0.000000 -0.018415
v 0.077690 0.022396 0.000000
v 0.069024 0.009395 -0.034406
v 0.059776 0.026328 -0.029796
v -0.026365 0.009395 -0.055670
v -0.022832 0.026328 -0.048212
v -0.085318 0.009395 0.000000
v -0.073887 0.026328 0.000000
v -0.026365 0.009394 0.055670
v -0.022832 0.026328 0.048212
v 0.069024 0.009394 0.034406
v 0.059776 0.026328 0.029797
v 0.045665 0.042600 0.000000
v 0.042659 0.039796 -0.021264
v 0.014111 0.042600 -0.029796
v 0.000000 0.050079 0.000000
v -0.016294 0.039796 -0.034406
v -0.036944 0.040966 -0.018415
v -0.052729 0.039796 0.000000
v -0.036944 0.040966 0.018415
v -0.016294 0.039796 0.034406
v 0.014111 0.042600 0.029797
v 0.042659 0.039796 0.021264
vt 0.344881 0.360244
vt 0.298746 0.372870
vt 0.281123 0.353580
vt 0.319094 0.350033
vt 0.268765 0.333083
vt 0.327259 0.336517
vt 0.377236 0.341285
vt 0.241719 0.372870
vt 0.245473 0.357568
vt 0.181908 0.372870
vt 0.224097 0.345183
vt 0.241719 0.141155
vt 0.298746 0.141155
vt 0.281123 0.160446
vt 0.245473 0.156458
vt 0.268765 0.180942
vt 0.224097 0.168843
vt 0.181908 0.141155
vt 0.344881 0.153781
vt 0.319094 0.163993
vt 0.377236 0.172741
vt 0.327259 0.177509
vt 0.364594 0.372870
vt 0.391017 0.372870
vt 0.391017 0.141155
vt 0.364594 0.141155
vt 0.362503 0.314942
vt 0.331670 0.322387
vt 0.298746 0.314942
vt 0.328726 0.296800
vt 0.234988 0.314942
vt 0.212548 0.326736
vt 0.195583 0.314942
vt 0.220255 0.288598
vt 0.195583 0.199084
vt 0.212548 0.187290
vt 0.234988 0.199084
vt 0.220255 0.225427
vt 0.298746 0.199084
vt 0.331670 0.191638
vt 0.362503 0.199084
vt 0.328726 0.217226
vt 0.398910 0.198281
vt 0.410837 0.141155
vt 0.401908 0.314942
vt 0.410837 0.372870
vt 0.410837 0.257013
vt 0.384943 0.303147
vt 0.373394 0.284701
vt 0.265821 0.307496
vt 0.270232 0.293367
vt 0.181908 0.257013
vt 0.206474 0.257013
vt 0.265821 0.206530
vt 0.270232 0.220659
vt 0.384943 0.210879
vt 0.373394 0.229325
vt 0.355772 0.257013
vt 0.352018 0.272316
vt 0.316368 0.276303
vt 0.298746 0.257013
vt 0.278397 0.279850
vt 0.252610 0.269639
vt 0.232897 0.257013
vt 0.252610 0.244387
vt 0.278397 0.234176
vt 0.316368 0.237722
vt 0.352018 0.241710
vn 0.2829 -0.9060 -0.3148
vn 0.0153 -0.9999 -0.0000
vn -0.0977 -0.8876 -0.4502
vn 0.1202 -0.8587 -0.4981
vn -0.1980 -0.5040 -0.8407
vn 0.1873 -0.6014 -0.7767
vn 0.5958 -0.5588 -0.5768
vn -0.3659 -0.9306 -0.0000
vn -0.3242 -0.8778 -0.3527
vn -0.8157 -0.5785 -0.0000
vn -0.5497 -0.6449 -0.5310
vn -0.0977 -0.8876 0.4502
vn -0.3242 -0.8778 0.3527
vn -0.1980 -0.5040 0.8407
vn -0.5497 -0.6449 0.5310
vn 0.2829 -0.9060 0.3148
vn 0.1202 -0.8587 0.4981
vn 0.5958 -0.5588 0.5768
vn 0.1873 -0.6014 0.7767
vn 0.4154 -0.9097 -0.0000
vn 0.7330 -0.6803 -0.0000
vn 0.4739 -0.0041 -0.8806
vn 0.2252 -0.1893 -0.9557
vn 0.0000 0.0000 -1.0000
vn 0.1980 0.5040 -0.8407
vn -0.4739 0.0041 -0.8806
vn -0.7207 -0.2112 -0.6603
vn -0.8967 -0.0024 -0.4426
vn -0.5958 0.5588 -0.5768
vn -0.8967 -0.0024 0.4426
vn -0.7207 -0.2112 0.6603
vn -0.4739 0.0041 0.8806
vn -0.5958 0.5588 0.5768
vn -0.0000 -0.0000 1.0000
vn 0.2252 -0.1893 0.9557
vn 0.4739 -0.0041 0.8806
vn 0.1980 0.5040 0.8407
vn 0.8967 0.0024 0.4426
vn 0.9768 -0.2141 0.0000
vn 0.8967 0.0024 -0.4426
vn 0.8157 0.5785 0.0000
vn 0.7207 0.2112 -0.6603
vn 0.5497 0.6449 -0.5310
vn -0.2252 0.1893 -0.9557
vn -0.1873 0.6014 -0.7767
vn -0.9768 0.2141 0.0000
vn -0.7330 0.6803 0.0000
vn -0.2252 0.1893 0.9557
vn -0.1873 0.6014 0.7767
vn 0.7207 0.2112 0.6603
vn 0.5497 0.6449 0.5310
vn 0.3659 0.9306 0.0000
vn 0.3242 0.8778 -0.3527
vn 0.0977 0.8876 -0.4502
vn -0.0153 0.9999 0.0000
vn -0.1202 0.8587 -0.4981
vn -0.2829 0.9060 -0.3148
vn -0.4154 0.9097 0.0000
vn -0.2829 0.9060 0.3148
vn -0.1202 0.8587 0.4981
vn 0.0977 0.8876 0.4502
vn 0.3242 0.8778 0.3527
s 1
f 1/1/1 2/2/2 3/3/3 4/4/4
f 3/3/3 5/5/5 6/6/6 4/4/4
f 6/6/6 7/7/7 1/1/1 4/4/4
f 3/3/3 2/2/2 8/8/8 9/9/9
f 8/8/8 10/10/10 11/11/11 9/9/9
f 11/11/11 5/5/5 3/3/3 9/9/9
f 8/12/8 2/13/2 12/14/12 13/15/13
f 12/14/12 14/16/14 15/17/15 13/15/13
f 15/17/15 10/18/10 8/12/8 13/15/13
f 12/14/12 2/13/2 16/19/16 17/20/17
f 16/19/16 18/21/18 19/22/19 17/20/17
f 19/22/19 14/16/14 12/14/12 17/20/17
f 20/23/20 2/2/2 1/1/1
f 1/1/1 7/7/7 21/24/21 20/23/20
f 21/25/21 18/21/18 16/19/16 20/26/20
f 22/27/22 7/7/7 6/6/6 23/28/23
f 6/6/6 5/5/5 24/29/24 23/28/23
f 24/29/24 25/30/25 22/27/22 23/28/23
f 26/31/26 5/5/5 11/11/11 27/32/27
f 11/11/11 10/10/10 28/33/28 27/32/27
f 28/33/28 29/34/29 26/31/26 27/32/27
f 30/35/30 10/18/10 15/17/15 31/36/31
f 15/17/15 14/16/14 32/37/32 31/36/31
f 32/37/32 33/38/33 30/35/30 31/36/31
f 34/39/34 14/16/14 19/22/19 35/40/35
f 19/22/19 18/21/18 36/41/36 35/40/35
f 36/41/36 37/42/37 34/39/34 35/40/35
f 38/43/38 18/21/18 21/25/21 39/44/39
f 21/24/21 7/7/7 40/45/40 39/46/39
f 40/45/40 41/47/41 39/46/39
f 40/45/40 7/7/7 22/27/22 42/48/42
f 22/27/22 25/30/25 43/49/43 42/48/42
f 43/49/43 41/47/41 40/45/40 42/48/42
f 24/29/24 5/5/5 26/31/26 44/50/44
f 26/31/26 29/34/29 45/51/45 44/50/44
f 45/51/45 25/30/25 24/29/24 44/50/44
f 28/33/28 10/10/10 46/52/46
f 30/35/30 33/38/33 47/53/47 46/52/46
f 47/53/47 29/34/29 28/33/28 46/52/46
f 32/37/32 14/16/14 34/39/34 48/54/48
f 34/39/34 37/42/37 49/55/49 48/54/48
f 49/55/49 33/38/33 32/37/32 48/54/48
f 36/41/36 18/21/18 38/43/38 50/56/50
f 38/43/38 41/47/41 51/57/51 50/56/50
f 51/57/51 37/42/37 36/41/36 50/56/50
f 52/58/52 41/47/41 43/49/43 53/59/53
f 43/49/43 25/30/25 54/60/54 53/59/53
f 54/60/54 55/61/55 52/58/52 53/59/53
f 54/60/54 25/30/25 45/51/45 56/62/56
f 45/51/45 29/34/29 57/63/57 56/62/56
f 57/63/57 55/61/55 54/60/54 56/62/56
f 57/63/57 29/34/29 47/53/47 58/64/58
f 47/53/47 33/38/33 59/65/59 58/64/58
f 58/64/58 55/61/55 57/63/57
f 59/65/59 33/38/33 49/55/49 60/66/60
f 49/55/49 37/42/37 61/67/61 60/66/60
f 61/67/61 55/61/55 59/65/59 60/66/60
f 61/67/61 37/42/37 51/57/51 62/68/62
f 51/57/51 41/47/41 52/58/52 62/68/62
f 52/58/52 55/61/55 61/67/61 62/68/62
f 16/19/16 2/13/2 20/26/20
f 46/52/46 10/18/10 30/35/30
f 59/65/59 55/61/55 58/64/58
f 39/44/39 41/47/41 38/43/38
