# Blender v3.3.0 OBJ File: ''
# www.blender.org
o Stage3.005
v 0.085773 0.810637 0.114020
v 0.028075 0.811201 0.036778
v 0.051151 0.733170 0.041056
v 0.100143 0.732650 0.106600
v -0.061722 0.774646 -0.000038
v -0.047427 0.696679 -0.007510
v -0.042235 0.964599 0.093576
v -0.131987 0.928039 0.056778
v 0.015458 0.964069 0.170829
v -0.205052 0.261668 0.220010
v -0.206216 0.182606 0.000542
v -0.030007 0.311910 0.000685
v -0.020666 0.389342 0.114663
v 0.185351 0.162802 0.002912
v 0.186779 0.241377 0.179879
v -0.209240 0.188740 0.519872
v -0.205798 0.267309 0.356366
v -0.009236 0.394971 0.299169
v 0.001731 0.316437 0.519999
v 0.186101 0.247293 0.335583
v 0.182647 0.169022 0.522174
v -0.126611 0.644603 -0.015905
v -0.106886 0.591084 -0.159689
v -0.017431 0.452761 -0.143044
v -0.037243 0.506373 0.000814
v -0.193088 0.558743 0.136093
v -0.103688 0.420428 0.152888
v -0.380380 0.683720 -0.087199
v -0.360667 0.630191 -0.231014
v -0.446865 0.597845 0.064805
v 0.244119 0.185521 -0.132107
v 0.186684 0.028074 0.050680
v 0.013735 0.162197 0.031880
v 0.034098 0.279221 -0.057032
v -0.187976 0.033614 -0.064137
v -0.142573 0.174755 -0.208227
v 0.333496 0.227518 -0.422181
v 0.282500 0.241739 -0.255341
v 0.074150 0.354125 -0.227681
v 0.127218 0.362192 -0.450933
v -0.098897 0.238459 -0.349119
v -0.041493 0.233133 -0.537006
v 0.177645 0.667338 -0.012628
v 0.061095 0.732316 0.043394
v 0.038385 0.612668 -0.004611
v 0.137288 0.557451 -0.052213
v -0.042133 0.706626 0.144545
v -0.082599 0.596832 0.105067
v 0.185627 0.822206 0.203755
v 0.082422 0.796488 0.304857
v 0.302215 0.757240 0.147742
v -0.036965 0.356791 0.004924
v 0.061204 0.313857 -0.057510
v 0.097370 0.202942 0.005808
v -0.000910 0.245969 0.068224
v -0.164418 0.287918 0.042993
v -0.128401 0.177011 0.106365
v -0.124869 0.388129 -0.187367
v -0.026684 0.345185 -0.249830
v -0.252331 0.319241 -0.149301
v 0.090778 0.513647 0.013415
v 0.111033 0.460128 0.157125
v 0.020431 0.321805 0.165519
v 0.000239 0.375417 0.021714
v 0.113259 0.427788 -0.150954
v 0.022669 0.289473 -0.142719
v 0.354371 0.552764 0.012762
v 0.374646 0.499235 0.156499
v 0.376858 0.466889 -0.151614
v -0.050461 0.685892 -0.025283
v -0.076601 0.579844 -0.002264
v -0.069471 0.580771 0.038484
v 0.022222 0.849717 -0.003413
v -0.039285 0.871373 -0.050325
v -0.129432 0.601994 -0.007259
v 0.087872 0.682967 -0.146192
v 0.053841 0.577197 -0.051029
v 0.030309 0.708743 -0.125829
v 0.055314 0.420166 -0.029128
v 0.038307 0.445543 0.006954
v -0.000459 0.442981 -0.008463
v -0.042134 0.750239 0.127322
v -0.122490 0.815217 0.026004
v -0.080679 0.695570 -0.006738
v -0.012429 0.640353 0.079226
v -0.243924 0.789527 -0.052362
v -0.214348 0.679734 -0.100540
v -0.251423 0.905108 0.182850
v -0.372804 0.879390 0.104494
v -0.171068 0.840142 0.284205
v 0.087404 0.811888 0.112791
v 0.101893 0.733388 0.105282
v 0.052553 0.733784 0.039341
v 0.029239 0.812355 0.035058
v -0.046572 0.697089 -0.009584
v -0.061062 0.775589 -0.002075
v -0.041256 0.966260 0.092003
v -0.131557 0.929495 0.054870
v 0.016909 0.965793 0.169736
v -0.206164 0.264158 0.219752
v -0.020665 0.392150 0.114151
v -0.030108 0.314591 -0.000143
v -0.207401 0.184928 -0.000090
v 0.187916 0.243815 0.179464
v 0.186457 0.165102 0.002109
v -0.210111 0.191268 0.520527
v 0.001898 0.319184 0.520668
v -0.009152 0.397834 0.299418
v -0.206751 0.269877 0.356754
v 0.187227 0.249770 0.335859
v 0.183747 0.171442 0.522726
v -0.125621 0.647147 -0.015514
v -0.035592 0.508228 0.001347
v -0.015682 0.454582 -0.143211
v -0.105710 0.593501 -0.160071
v -0.192331 0.561053 0.137218
v -0.102302 0.422134 0.154079
v -0.380151 0.686578 -0.087016
v -0.360241 0.632932 -0.231574
v -0.446862 0.600484 0.065716
v 0.245041 0.187737 -0.130986
v 0.033873 0.281711 -0.055914
v 0.013523 0.164442 0.033287
v 0.187578 0.029984 0.052124
v -0.143852 0.176997 -0.207597
v -0.189329 0.035577 -0.063176
v 0.334439 0.230123 -0.421954
v 0.127162 0.365074 -0.450955
v 0.074054 0.356957 -0.227269
v 0.283446 0.244279 -0.254838
v -0.099975 0.240995 -0.349108
v -0.042467 0.235717 -0.537254
v 0.177564 0.669373 -0.014231
v 0.136840 0.558862 -0.054137
v 0.037481 0.614155 -0.006330
v 0.060437 0.734554 0.042126
v -0.084014 0.598310 0.103731
v -0.043289 0.708820 0.143637
v 0.185398 0.824903 0.202989
v 0.081671 0.799170 0.304500
v 0.302525 0.759722 0.146632
v -0.036625 0.359337 0.005933
v -0.000251 0.247827 0.069826
v 0.098626 0.204766 0.007035
v 0.062253 0.316275 -0.056859
v -0.164787 0.290230 0.044297
v -0.128414 0.178720 0.108191
v -0.124861 0.390988 -0.187073
v -0.025983 0.347926 -0.249864
v -0.253022 0.321881 -0.148709
v 0.089718 0.516192 0.013309
v -0.001495 0.377273 0.021652
v 0.018793 0.323626 0.166157
v 0.110006 0.462545 0.157814
v 0.112224 0.430098 -0.151830
v 0.021011 0.291179 -0.143487
v 0.354101 0.555623 0.012649
v 0.374389 0.501976 0.157154
v 0.376606 0.469529 -0.152490
v -0.049341 0.684897 -0.027092
v 0.023705 0.849022 -0.005038
v -0.067519 0.579604 0.037781
v -0.075367 0.578757 -0.003962
v -0.038256 0.870816 -0.052296
v -0.129480 0.601398 -0.009477
v 0.089175 0.684408 -0.144723
v 0.030993 0.710473 -0.124149
v 0.054748 0.578442 -0.049197
v 0.039190 0.446732 0.008820
v 0.057335 0.420505 -0.028128
v -0.001103 0.444447 -0.006616
v -0.040588 0.752274 0.126889
v -0.010650 0.641764 0.078364
v -0.079201 0.697056 -0.007998
v -0.121398 0.817456 0.025083
v -0.213357 0.681212 -0.102216
v -0.243294 0.791722 -0.053690
v -0.250726 0.907805 0.182456
v -0.372622 0.882072 0.103683
v -0.169916 0.842624 0.284262
v -0.021076 -0.012012 0.010259
v -0.018471 -0.012012 0.021385
v -0.025387 0.353371 0.057004
v -0.027501 0.353371 0.047972
v -0.007084 -0.012012 0.022347
v -0.016143 0.353371 0.057784
v -0.002652 -0.012012 0.011814
v -0.012545 0.353371 0.049234
v -0.011299 -0.012012 0.004344
v -0.019564 0.353371 0.043170
v -0.082700 0.577026 0.002642
v -0.085139 0.576618 -0.003003
v -0.076661 0.578348 0.002049
v -0.075367 0.578757 -0.003962
v -0.080606 0.577688 -0.007083
v -0.104764 0.756865 0.015826
v -0.106454 0.756582 0.011915
v -0.100580 0.757780 0.015415
v -0.099683 0.758064 0.011250
v -0.103314 0.757323 0.009087
v 0.025159 -0.012012 -0.012335
v 0.014752 -0.012012 -0.017054
v 0.015249 0.223077 -0.015144
v 0.023698 0.223077 -0.011313
v 0.007048 -0.012012 -0.008614
v 0.008996 0.223077 -0.008292
v 0.012695 -0.012012 0.001321
v 0.013579 0.223077 -0.000228
v 0.023888 -0.012012 -0.000979
v 0.022665 0.223077 -0.002095
v 0.039190 0.446732 0.008820
v 0.044796 0.446732 0.011362
v 0.035039 0.446732 0.013367
v 0.038081 0.446732 0.018719
v 0.044112 0.446732 0.017480
v 0.055979 0.628473 0.007432
v 0.059699 0.627554 0.009392
v 0.052967 0.628984 0.010427
v 0.054826 0.628380 0.014237
v 0.058986 0.627496 0.013598
v 0.058986 0.627496 0.013597
v 0.059699 0.627554 0.009392
v 0.048959 0.674354 0.017898
v 0.047573 0.673610 0.021010
v 0.055979 0.628473 0.007432
v 0.046391 0.674471 0.015584
v 0.052967 0.628984 0.010427
v 0.043418 0.673799 0.017267
v 0.054826 0.628380 0.014237
v 0.044148 0.673266 0.020621
v 0.042303 0.773286 0.038738
v 0.041269 0.772265 0.040745
v 0.040589 0.773674 0.037092
v 0.038495 0.772893 0.038082
v 0.038916 0.772022 0.040339
v -0.146463 0.104628 -0.105682
v -0.059224 0.183401 0.029943
v 0.016335 0.110367 0.024084
v 0.005192 0.014874 -0.104958
v -0.120849 0.087955 0.183104
v 0.000147 0.004851 0.183436
v -0.370485 0.096347 -0.109779
v -0.359787 0.190956 0.044683
v -0.192652 0.214998 0.037341
v -0.244954 0.128996 -0.106882
v -0.233334 0.115358 0.181725
v -0.375530 0.086323 0.178614
v -0.130439 0.378603 0.152346
v -0.086281 0.471036 0.050118
v -0.003611 0.372118 0.072853
v -0.041027 0.293615 0.159652
v -0.043602 0.468742 -0.090313
v 0.045812 0.383864 -0.083148
v -0.295142 0.495218 -0.021272
v -0.252449 0.492896 -0.161651
v -0.339338 0.402783 0.080968
v -0.130294 0.380728 0.153824
v -0.040217 0.295315 0.161186
v -0.002561 0.374013 0.073988
v -0.085905 0.473500 0.051031
v 0.047091 0.385873 -0.082600
v -0.042986 0.471286 -0.089962
v -0.295511 0.497913 -0.020552
v -0.252593 0.495698 -0.161545
v -0.339901 0.405140 0.082241
v 0.096876 0.664361 0.051885
v 0.016044 0.611299 0.129533
v -0.059006 0.532398 0.053630
v 0.021953 0.585530 -0.024014
v 0.190246 0.601950 -0.047229
v 0.115320 0.523061 -0.123232
v 0.243767 0.620122 0.200717
v 0.162928 0.567042 0.278394
v 0.337144 0.557695 0.101597
v 0.096755 0.667117 0.051855
v 0.021218 0.587875 -0.024660
v -0.060189 0.534633 0.053519
v 0.015348 0.613875 0.130035
v 0.190649 0.604527 -0.047841
v 0.115113 0.525285 -0.124357
v 0.244236 0.622898 0.201296
v 0.162829 0.569655 0.279475
v 0.338130 0.560307 0.101599
v -0.016586 0.062380 0.224874
v -0.155452 -0.011617 0.069309
v -0.028641 0.068525 -0.051666
v 0.048879 0.130678 0.021206
v 0.136689 -0.035806 -0.178373
v 0.248590 0.033619 -0.054196
v 0.174192 0.044359 0.452692
v 0.069883 0.079732 0.325247
v 0.175155 0.152476 0.149187
v 0.326789 0.122429 0.309553
v 0.347473 0.053082 0.060343
v 0.466525 0.020209 0.204749
v -0.017647 0.064028 0.225237
v 0.048470 0.132478 0.020650
v -0.029324 0.070212 -0.052381
v -0.156802 -0.010115 0.069454
v 0.249096 0.035152 -0.055384
v 0.136929 -0.034402 -0.179819
v 0.173891 0.046116 0.453570
v 0.327259 0.124301 0.309762
v 0.175292 0.154386 0.149134
v 0.069349 0.081492 0.325978
v 0.348411 0.054710 0.059666
v 0.467621 0.021828 0.204297
v 0.036592 0.024632 0.014312
v 0.021414 0.025901 0.010408
v 0.028092 0.034460 0.001099
v 0.036881 0.030546 0.006183
v 0.034031 0.045819 -0.001900
v 0.043871 0.035755 0.006692
v 0.048258 0.028104 0.019924
v 0.011368 0.036745 0.003576
v 0.018978 0.039608 -0.001204
v 0.005577 0.049707 0.002314
v 0.018784 0.048453 -0.003659
v 0.009394 0.027745 0.017935
v 0.005634 0.034816 0.010811
v 0.002219 0.034395 0.026743
v 0.000085 0.041738 0.013177
v 0.025036 0.020483 0.024717
v 0.015290 0.022793 0.025623
v 0.028597 0.021044 0.037626
v 0.013616 0.024891 0.033933
v 0.034602 0.020154 0.022763
v 0.040677 0.021193 0.029925
v 0.052676 0.040136 0.018218
v 0.048457 0.042028 0.009246
v 0.044314 0.050549 0.005390
v 0.049012 0.053273 0.017710
v 0.028809 0.058396 -0.001007
v 0.019489 0.056690 -0.002707
v 0.012901 0.060057 0.002128
v 0.022633 0.066624 0.006826
v 0.001344 0.055907 0.012533
v -0.002102 0.048937 0.016734
v -0.001446 0.047532 0.026234
v 0.002972 0.059564 0.024529
v 0.006916 0.037120 0.039062
v 0.013522 0.029483 0.040701
v 0.022422 0.029272 0.045460
v 0.017199 0.041849 0.046353
v 0.038330 0.027611 0.042325
v 0.044770 0.025213 0.036073
v 0.049886 0.031761 0.031920
v 0.045653 0.037961 0.042139
v 0.053333 0.038732 0.027719
v 0.051145 0.045930 0.031276
v 0.037709 0.058186 0.003752
v 0.037614 0.062778 0.010520
v 0.006461 0.062456 0.008380
v 0.010553 0.066476 0.014528
v 0.002773 0.045640 0.035207
v 0.007359 0.051913 0.037761
v 0.031741 0.030978 0.047159
v 0.032447 0.039215 0.048112
v 0.039863 0.050923 0.040877
v 0.045597 0.052852 0.033642
v 0.041836 0.059923 0.026518
v 0.029816 0.061768 0.034044
v 0.035941 0.064876 0.018829
v 0.026195 0.067186 0.019735
v 0.016628 0.067515 0.021690
v 0.014638 0.063036 0.030141
v 0.014349 0.057122 0.038270
v 0.023138 0.053209 0.043354
v 0.032253 0.048061 0.045657
v -0.003107 -0.053449 0.067983
v -0.024346 -0.038119 0.050979
v -0.001487 -0.039059 0.034145
v 0.006328 -0.050698 0.050594
v 0.022195 -0.030424 0.027201
v 0.023414 -0.049941 0.053476
v 0.018017 -0.056632 0.083868
v -0.025336 -0.015933 0.027462
v -0.008939 -0.023200 0.022055
v -0.018379 0.008921 0.015833
v 0.002021 -0.011410 0.013486
v -0.042531 -0.017045 0.056640
v -0.038230 -0.007490 0.038109
v -0.047634 0.007029 0.065473
v -0.039023 0.010604 0.035981
v -0.028474 -0.039843 0.081886
v -0.041066 -0.025278 0.076569
v -0.025139 -0.033485 0.107520
v -0.042997 -0.014321 0.089874
v -0.013528 -0.051982 0.084285
v -0.004409 -0.051740 0.100686
v 0.039855 -0.044421 0.078072
v 0.037584 -0.043531 0.058173
v 0.042311 -0.029017 0.044764
v 0.050166 -0.021034 0.069047
v 0.029089 -0.005203 0.020049
v 0.012881 0.000961 0.011996
v 0.005608 0.016582 0.015351
v 0.027672 0.019480 0.026999
v -0.019759 0.030187 0.029254
v -0.034513 0.026381 0.037971
v -0.037322 0.030417 0.056447
v -0.015485 0.042628 0.050652
v -0.039778 0.015012 0.089755
v -0.039102 -0.002401 0.100201
v -0.026556 -0.008802 0.114470
v -0.019663 0.016419 0.107318
v -0.003076 -0.030586 0.119168
v 0.005457 -0.045608 0.112686
v 0.022291 -0.044192 0.105265
v 0.020911 -0.022925 0.118687
v 0.037045 -0.040386 0.096548
v 0.041556 -0.024609 0.098538
v 0.041634 -0.011604 0.034318
v 0.045530 0.000316 0.044645
v -0.002924 0.031604 0.021833
v 0.006941 0.037736 0.033833
v -0.035052 0.029526 0.076347
v -0.020882 0.035936 0.081043
v -0.010349 -0.014966 0.122523
v 0.000512 -0.002595 0.121033
v 0.027868 0.001928 0.107057
v 0.040763 -0.006515 0.096410
v 0.045063 0.003040 0.077879
v 0.026879 0.024115 0.083540
v 0.043598 0.011273 0.057950
v 0.031006 0.025839 0.052633
v 0.016060 0.037977 0.050234
v 0.005639 0.039444 0.066536
v -0.003796 0.036693 0.083925
v 0.004019 0.025055 0.100375
v 0.011471 0.009196 0.112464
v 0.100546 -0.018496 0.031444
v 0.099876 -0.000833 0.016705
v 0.101902 0.008300 0.035432
v 0.102721 -0.006871 0.040210
v 0.094481 0.014240 0.052193
v 0.098340 -0.009585 0.051907
v 0.093817 -0.031262 0.044734
v 0.093383 0.022102 0.016443
v 0.096920 0.022065 0.029788
v 0.079988 0.037721 0.019887
v 0.090212 0.030961 0.037302
v 0.087729 0.003887 0.000323
v 0.086805 0.018915 0.004732
v 0.070368 0.006731 -0.007538
v 0.076039 0.026548 0.002194
v 0.091787 -0.021223 0.009746
v 0.086355 -0.011968 -0.000330
v 0.078915 -0.035903 0.007818
v 0.075408 -0.016727 -0.004900
v 0.096191 -0.027905 0.021596
v 0.089191 -0.039058 0.025824
v 0.084059 -0.024724 0.059575
v 0.090266 -0.011352 0.060568
v 0.084449 0.002022 0.063959
v 0.070185 -0.011515 0.065239
v 0.079426 0.027081 0.054933
v 0.080880 0.035467 0.043704
v 0.071066 0.039111 0.036103
v 0.061638 0.031119 0.049882
v 0.062307 0.036383 0.014405
v 0.064514 0.030371 0.003164
v 0.056494 0.019940 -0.001874
v 0.046736 0.026478 0.012967
v 0.056104 -0.006805 -0.006258
v 0.063786 -0.019598 -0.005027
v 0.061127 -0.031865 0.002768
v 0.046072 -0.019024 0.005508
v 0.069487 -0.043895 0.021598
v 0.079701 -0.045385 0.030451
v 0.078246 -0.041167 0.043296
v 0.060565 -0.042505 0.037814
v 0.076039 -0.035155 0.054537
v 0.064514 -0.031332 0.055507
v 0.076767 0.014814 0.062728
v 0.065145 0.011943 0.062601
v 0.060852 0.040601 0.027250
v 0.051362 0.034274 0.031877
v 0.050287 0.006568 -0.002867
v 0.042213 0.004801 0.005794
v 0.059673 -0.040251 0.013996
v 0.050341 -0.035745 0.020398
v 0.047169 -0.026886 0.041258
v 0.053748 -0.023699 0.052968
v 0.052824 -0.008671 0.057378
v 0.040677 -0.003951 0.040996
v 0.054198 0.007184 0.058031
v 0.048766 0.016439 0.047955
v 0.044362 0.023121 0.036105
v 0.040007 0.013712 0.026257
v 0.037833 0.002087 0.017491
v 0.038651 -0.013084 0.022269
v 0.043633 -0.026849 0.027913
v 0.063016 0.007773 -0.028889
v 0.049886 0.003314 -0.021475
v 0.046631 0.001998 -0.035339
v 0.057053 0.004916 -0.036467
v 0.043191 0.007237 -0.046916
v 0.059206 0.009405 -0.043640
v 0.071281 0.015916 -0.035598
v 0.033819 0.002972 -0.024114
v 0.036127 0.001970 -0.033203
v 0.021395 0.008893 -0.027818
v 0.029884 0.005278 -0.039067
v 0.042413 0.008675 -0.010524
v 0.033118 0.006735 -0.015494
v 0.036016 0.018596 -0.004697
v 0.025667 0.011955 -0.014252
v 0.060409 0.011899 -0.013552
v 0.052183 0.012625 -0.007812
v 0.066848 0.022936 -0.009505
v 0.052383 0.020209 -0.003488
v 0.066976 0.011501 -0.020774
v 0.073111 0.018633 -0.021651
v 0.066743 0.022364 -0.045846
v 0.059623 0.015809 -0.048712
v 0.050232 0.017262 -0.052498
v 0.056014 0.029283 -0.050669
v 0.032110 0.014711 -0.049672
v 0.025764 0.011042 -0.043432
v 0.020483 0.015947 -0.038316
v 0.025182 0.024943 -0.045860
v 0.017877 0.020073 -0.022979
v 0.020895 0.018752 -0.014778
v 0.025287 0.025515 -0.009520
v 0.020748 0.031963 -0.019768
v 0.041798 0.030616 -0.002867
v 0.051744 0.028283 -0.002348
v 0.059920 0.033167 -0.005693
v 0.048839 0.040642 -0.008450
v 0.071546 0.031932 -0.017050
v 0.075679 0.026464 -0.023321
v 0.074153 0.027805 -0.032386
v 0.070634 0.038986 -0.027548
v 0.071135 0.029126 -0.040588
v 0.066363 0.035924 -0.041114
v 0.040286 0.019595 -0.053017
v 0.039647 0.027670 -0.051878
v 0.016350 0.021415 -0.032044
v 0.018918 0.029245 -0.033715
v 0.032407 0.032070 -0.006653
v 0.032824 0.038473 -0.011726
v 0.066266 0.036836 -0.011933
v 0.062146 0.042601 -0.016298
v 0.058210 0.044907 -0.031252
v 0.058912 0.041144 -0.039872
v 0.049616 0.039203 -0.044842
v 0.042144 0.044565 -0.033890
v 0.039846 0.035253 -0.047553
v 0.031620 0.035980 -0.041813
v 0.025054 0.036378 -0.034592
v 0.029015 0.040106 -0.026477
v 0.034977 0.042963 -0.018899
v 0.045399 0.045880 -0.020027
v 0.055903 0.045909 -0.022162
v -0.051099 0.009113 -0.002923
v -0.037274 0.015914 0.000214
v -0.046783 0.024127 0.007045
v -0.053659 0.016545 0.003350
v -0.056025 0.033502 0.007036
v -0.061839 0.019055 0.001611
v -0.062888 0.007287 -0.009032
v -0.031385 0.030684 0.003733
v -0.039791 0.032221 0.007726
v -0.029828 0.044658 0.001400
v -0.042406 0.041022 0.007742
v -0.025903 0.019328 -0.007759
v -0.024890 0.028797 -0.002839
v -0.020501 0.025338 -0.018151
v -0.021527 0.036224 -0.007062
v -0.038194 0.006147 -0.012073
v -0.029548 0.011004 -0.013744
v -0.040934 0.002241 -0.024598
v -0.028054 0.011291 -0.022343
v -0.047328 0.003432 -0.009919
v -0.052968 0.000681 -0.016983
v -0.070801 0.017408 -0.010496
v -0.067919 0.022746 -0.002428
v -0.066767 0.032817 -0.001051
v -0.071272 0.030699 -0.013561
v -0.054757 0.046393 0.002738
v -0.045481 0.048111 0.004652
v -0.039908 0.051959 -0.001027
v -0.050840 0.053796 -0.007113
v -0.027003 0.048994 -0.010176
v -0.021370 0.042570 -0.012442
v -0.020972 0.038629 -0.021215
v -0.028885 0.048750 -0.022679
v -0.025006 0.023220 -0.030660
v -0.028907 0.013781 -0.030088
v -0.037016 0.009644 -0.034449
v -0.035749 0.022535 -0.038747
v -0.051866 0.004078 -0.030684
v -0.057677 0.001529 -0.023899
v -0.064770 0.007043 -0.021535
v -0.061945 0.011378 -0.033111
v -0.070403 0.013466 -0.019269
v -0.070246 0.019813 -0.024649
v -0.062865 0.042255 -0.001623
v -0.063719 0.044745 -0.009368
v -0.034096 0.054507 -0.007812
v -0.038805 0.055356 -0.014728
v -0.023854 0.033290 -0.029283
v -0.029934 0.036981 -0.033322
v -0.046292 0.007925 -0.036363
v -0.049367 0.015014 -0.039453
v -0.060387 0.025352 -0.035444
v -0.066884 0.027240 -0.028872
v -0.065869 0.036708 -0.023952
v -0.054498 0.040123 -0.031925
v -0.062225 0.045033 -0.017967
v -0.053579 0.049890 -0.019638
v -0.044445 0.052605 -0.021792
v -0.040674 0.046924 -0.028788
v -0.038114 0.039492 -0.035061
v -0.044990 0.031910 -0.038756
v -0.051982 0.023816 -0.039437
v 0.013456 -0.064210 -0.034703
v 0.028015 -0.039286 -0.022782
v 0.005461 -0.042774 -0.005869
v 0.002545 -0.060075 -0.018490
v -0.020110 -0.040290 -0.001016
v -0.013766 -0.065338 -0.021143
v -0.004697 -0.077675 -0.048768
v 0.020830 -0.012573 -0.006017
v 0.007048 -0.022841 0.001435
v 0.006036 0.011090 -0.001267
v -0.007457 -0.013164 0.006777
v 0.039387 -0.015883 -0.034176
v 0.031258 -0.003650 -0.018765
v 0.037607 0.005459 -0.049174
v 0.026468 0.013727 -0.021530
v 0.034423 -0.047590 -0.052197
v 0.041719 -0.029024 -0.051175
v 0.030974 -0.049400 -0.078531
v 0.041126 -0.021827 -0.066944
v 0.023973 -0.063896 -0.051005
v 0.016260 -0.070693 -0.066706
v -0.029509 -0.071648 -0.046005
v -0.028876 -0.064999 -0.027102
v -0.038568 -0.049674 -0.017937
v -0.046893 -0.051025 -0.043313
v -0.034669 -0.017428 -0.000681
v -0.021591 -0.004753 0.005138
v -0.019125 0.010918 -0.002379
v -0.040259 0.003835 -0.013956
v 0.001842 0.027538 -0.019874
v 0.017582 0.026298 -0.027548
v 0.020223 0.026083 -0.046483
v -0.004589 0.032110 -0.043719
v 0.029283 0.004109 -0.074550
v 0.034508 -0.014757 -0.079988
v 0.025384 -0.028137 -0.091806
v 0.010824 -0.005275 -0.091471
v 0.009839 -0.056483 -0.090108
v 0.005796 -0.071182 -0.079712
v -0.011128 -0.073102 -0.072614
v -0.015321 -0.056655 -0.091220
v -0.026867 -0.071863 -0.064939
v -0.035753 -0.059292 -0.070957
v -0.043794 -0.030808 -0.012499
v -0.050412 -0.023738 -0.025543
v -0.015081 0.025617 -0.012775
v -0.025546 0.025128 -0.025782
v 0.019590 0.019434 -0.065386
v 0.004480 0.019773 -0.071344
v 0.012306 -0.040812 -0.097625
v -0.001829 -0.032401 -0.099264
v -0.030115 -0.032992 -0.086470
v -0.040544 -0.041915 -0.073722
v -0.048672 -0.029682 -0.058311
v -0.037300 -0.006279 -0.069705
v -0.051004 -0.016541 -0.041312
v -0.043708 0.002025 -0.040290
v -0.033259 0.018331 -0.041482
v -0.022741 0.018644 -0.057785
v -0.011831 0.014510 -0.073998
v -0.014747 -0.002791 -0.086618
v -0.016333 -0.022724 -0.093923
v -0.098008 -0.054356 -0.006779
v -0.103587 -0.034155 0.002730
v -0.107057 -0.031238 -0.017706
v -0.102997 -0.046629 -0.018272
v -0.100704 -0.027859 -0.035580
v -0.097273 -0.050801 -0.028910
v -0.086940 -0.067438 -0.016331
v -0.104279 -0.011084 -0.003225
v -0.106788 -0.015644 -0.016012
v -0.095977 0.006430 -0.010944
v -0.102585 -0.007383 -0.025744
v -0.094472 -0.021892 0.017039
v -0.097807 -0.008973 0.008784
v -0.079293 -0.011958 0.023532
v -0.089999 0.001964 0.009002
v -0.090229 -0.048580 0.014695
v -0.088465 -0.035836 0.021849
v -0.073707 -0.057610 0.020202
v -0.076909 -0.035678 0.027308
v -0.091672 -0.059109 0.005127
v -0.081404 -0.068289 0.003877
v -0.078662 -0.062301 -0.032558
v -0.088506 -0.052195 -0.036945
v -0.086752 -0.039037 -0.043872
v -0.069041 -0.047423 -0.041786
v -0.090035 -0.012203 -0.041915
v -0.094640 -0.002059 -0.033288
v -0.086869 0.006238 -0.027114
v -0.074627 -0.001771 -0.038456
v -0.079090 0.012014 -0.005640
v -0.080108 0.008733 0.006832
v -0.069672 0.002920 0.014304
v -0.061393 0.008057 -0.001923
v -0.061582 -0.020344 0.025618
v -0.064993 -0.034732 0.027971
v -0.058298 -0.047178 0.023661
v -0.047630 -0.031522 0.017326
v -0.061465 -0.065619 0.008860
v -0.070183 -0.072387 0.000915
v -0.069243 -0.071396 -0.012614
v -0.052356 -0.065811 -0.007311
v -0.068226 -0.068114 -0.025087
v -0.058334 -0.061345 -0.027256
v -0.083341 -0.024649 -0.046226
v -0.071425 -0.023703 -0.045563
v -0.078151 0.013006 -0.019170
v -0.066930 0.008908 -0.022132
v -0.059827 -0.007186 0.018690
v -0.051061 -0.008580 0.010656
v -0.053694 -0.057322 0.015034
v -0.045749 -0.051998 0.007489
v -0.044054 -0.048297 -0.015029
v -0.050527 -0.050407 -0.027039
v -0.053861 -0.037489 -0.035293
v -0.044747 -0.025226 -0.020985
v -0.059869 -0.023545 -0.040103
v -0.058104 -0.010801 -0.032949
v -0.056661 -0.000272 -0.023382
v -0.050326 -0.005025 -0.011476
v -0.045337 -0.012752 0.000017
v -0.041276 -0.028143 -0.000548
v -0.041546 -0.043737 -0.002243
v 0.080345 -0.025168 0.005431
v 0.075539 -0.051461 -0.004257
v 0.100646 -0.047547 -0.009055
v 0.096899 -0.030614 0.000238
v 0.118128 -0.037985 -0.022075
v 0.105392 -0.017992 -0.003988
v 0.083613 -0.001178 0.004364
v 0.086149 -0.069880 -0.024635
v 0.101031 -0.061991 -0.021971
v 0.093464 -0.075980 -0.048582
v 0.111182 -0.061959 -0.035109
v 0.056902 -0.062048 -0.018724
v 0.069814 -0.072339 -0.028872
v 0.043707 -0.062655 -0.038525
v 0.067438 -0.076460 -0.044778
v 0.053310 -0.034130 -0.000545
v 0.046389 -0.047358 -0.010927
v 0.037618 -0.016425 -0.005803
v 0.034613 -0.041454 -0.019633
v 0.063128 -0.021570 0.007063
v 0.058069 -0.005319 0.005576
v 0.098574 0.007497 -0.011370
v 0.109898 -0.006771 -0.012505
v 0.118861 -0.014137 -0.026910
v 0.106529 0.005379 -0.034634
v 0.122440 -0.041311 -0.046144
v 0.116584 -0.057540 -0.048440
v 0.107127 -0.061974 -0.060535
v 0.112617 -0.040851 -0.067356
v 0.080092 -0.070936 -0.066510
v 0.066074 -0.074284 -0.059604
v 0.051661 -0.064773 -0.061789
v 0.066622 -0.056098 -0.077522
v 0.031374 -0.043139 -0.046248
v 0.028170 -0.033863 -0.030570
v 0.027796 -0.015965 -0.027015
v 0.032108 -0.019291 -0.051084
v 0.043109 0.004698 -0.012624
v 0.055255 0.007862 -0.001461
v 0.070144 0.013660 -0.006648
v 0.056772 0.018704 -0.024577
v 0.084161 0.017008 -0.013554
v 0.082797 0.019184 -0.028381
v 0.122065 -0.023413 -0.042589
v 0.115622 -0.015822 -0.053526
v 0.094980 -0.065138 -0.071698
v 0.092166 -0.051957 -0.078735
v 0.040337 -0.050505 -0.060654
v 0.044843 -0.039284 -0.069171
v 0.033651 0.000264 -0.024719
v 0.039053 0.004683 -0.038050
v 0.064087 0.012604 -0.048523
v 0.080421 0.015063 -0.044287
v 0.093333 0.004772 -0.054435
v 0.074697 -0.005815 -0.068902
v 0.103847 -0.009918 -0.062231
v 0.096925 -0.023146 -0.072614
v 0.087107 -0.035706 -0.080222
v 0.069891 -0.032108 -0.078589
v 0.053336 -0.026662 -0.073396
v 0.049590 -0.009729 -0.064104
v 0.049204 0.004715 -0.051187
vt 0.595325 0.742723
vt 0.595325 0.867997
vt 0.682917 0.849022
vt 0.683397 0.742723
vt 0.595325 0.987677
vt 0.683397 0.987677
vt 0.396726 0.867997
vt 0.396726 0.987677
vt 0.396726 0.742723
vt 0.745144 0.408120
vt 0.558036 0.408120
vt 0.558036 0.555077
vt 0.655505 0.561582
vt 0.558036 0.742723
vt 0.709075 0.742723
vt 0.985791 0.408120
vt 0.861473 0.408120
vt 0.812750 0.572075
vt 0.985791 0.584571
vt 0.841868 0.742723
vt 0.985791 0.742723
vt 0.896429 0.883736
vt 0.896429 0.987677
vt 0.985791 0.987677
vt 0.985791 0.883736
vt 0.896429 0.742723
vt 0.985791 0.742723
vt 0.683397 0.883736
vt 0.683397 0.987677
vt 0.683397 0.742723
vt 0.745144 0.408120
vt 0.558036 0.408120
vt 0.558036 0.555077
vt 0.655505 0.561582
vt 0.558036 0.742723
vt 0.709075 0.742723
vt 0.985791 0.408120
vt 0.861473 0.408120
vt 0.812750 0.572075
vt 0.985791 0.584571
vt 0.841868 0.742723
vt 0.985791 0.742723
vt 0.595325 0.742723
vt 0.595325 0.867997
vt 0.682917 0.849022
vt 0.683397 0.742723
vt 0.595325 0.987677
vt 0.683397 0.987677
vt 0.396726 0.867997
vt 0.396726 0.987677
vt 0.396726 0.742723
vt 0.896429 0.883736
vt 0.896429 0.987677
vt 0.985791 0.987677
vt 0.985791 0.883736
vt 0.896429 0.742723
vt 0.985791 0.742723
vt 0.683397 0.883736
vt 0.683397 0.987677
vt 0.683397 0.742723
vt 0.896429 0.883736
vt 0.896429 0.987677
vt 0.985791 0.987677
vt 0.985791 0.883736
vt 0.896429 0.742723
vt 0.985791 0.742723
vt 0.683397 0.883736
vt 0.683397 0.987677
vt 0.683397 0.742723
vt 0.753200 0.340436
vt 0.914206 0.319960
vt 0.921325 0.264895
vt 0.500282 0.264895
vt 0.500282 0.408120
vt 0.921325 0.408120
vt 0.500282 0.242741
vt 0.711184 0.183080
vt 0.500282 0.135704
vt 0.912200 0.242741
vt 0.916545 0.183685
vt 0.915514 0.135704
vt 0.595325 0.742723
vt 0.595325 0.867997
vt 0.682917 0.849022
vt 0.683397 0.742723
vt 0.595325 0.987677
vt 0.683397 0.987677
vt 0.396726 0.867997
vt 0.396726 0.987677
vt 0.396726 0.742723
vt 0.595325 0.742723
vt 0.683397 0.742723
vt 0.682917 0.849022
vt 0.595325 0.867997
vt 0.683397 0.987677
vt 0.595325 0.987677
vt 0.396726 0.867997
vt 0.396726 0.987677
vt 0.396726 0.742723
vt 0.745144 0.408120
vt 0.655505 0.561582
vt 0.558036 0.555077
vt 0.558036 0.408120
vt 0.709075 0.742723
vt 0.558036 0.742723
vt 0.985791 0.408120
vt 0.985791 0.584571
vt 0.812750 0.572075
vt 0.861473 0.408120
vt 0.841868 0.742723
vt 0.985791 0.742723
vt 0.896429 0.883736
vt 0.985791 0.883736
vt 0.985791 0.987677
vt 0.896429 0.987677
vt 0.896429 0.742723
vt 0.985791 0.742723
vt 0.683397 0.883736
vt 0.683397 0.987677
vt 0.683397 0.742723
vt 0.745144 0.408120
vt 0.655505 0.561582
vt 0.558036 0.555077
vt 0.558036 0.408120
vt 0.709075 0.742723
vt 0.558036 0.742723
vt 0.985791 0.408120
vt 0.985791 0.584571
vt 0.812750 0.572075
vt 0.861473 0.408120
vt 0.841868 0.742723
vt 0.985791 0.742723
vt 0.595325 0.742723
vt 0.683397 0.742723
vt 0.682917 0.849022
vt 0.595325 0.867997
vt 0.683397 0.987677
vt 0.595325 0.987677
vt 0.396726 0.867997
vt 0.396726 0.987677
vt 0.396726 0.742723
vt 0.896429 0.883736
vt 0.985791 0.883736
vt 0.985791 0.987677
vt 0.896429 0.987677
vt 0.896429 0.742723
vt 0.985791 0.742723
vt 0.683397 0.883736
vt 0.683397 0.987677
vt 0.683397 0.742723
vt 0.896429 0.883736
vt 0.985791 0.883736
vt 0.985791 0.987677
vt 0.896429 0.987677
vt 0.896429 0.742723
vt 0.985791 0.742723
vt 0.683397 0.883736
vt 0.683397 0.987677
vt 0.683397 0.742723
vt 0.753200 0.340436
vt 0.500282 0.264895
vt 0.921325 0.264895
vt 0.914206 0.319960
vt 0.500282 0.408120
vt 0.921325 0.408120
vt 0.500282 0.242741
vt 0.500282 0.135704
vt 0.711184 0.183080
vt 0.916545 0.183685
vt 0.912200 0.242741
vt 0.915514 0.135704
vt 0.595325 0.742723
vt 0.683397 0.742723
vt 0.682917 0.849022
vt 0.595325 0.867997
vt 0.683397 0.987677
vt 0.595325 0.987677
vt 0.396726 0.867997
vt 0.396726 0.987677
vt 0.396726 0.742723
vt 0.023644 0.044370
vt 0.023714 0.036250
vt 0.316975 0.035463
vt 0.318586 0.043477
vt 0.024198 0.028105
vt 0.317374 0.027382
vt 0.025110 0.019961
vt 0.319763 0.019380
vt 0.026382 0.011841
vt 0.321804 0.011311
vt 0.023912 0.052473
vt 0.319853 0.051552
vt 0.682314 0.034783
vt 0.682921 0.043123
vt 0.682536 0.026332
vt 0.683594 0.018002
vt 0.684590 0.009642
vt 0.683465 0.051490
vt 0.977050 0.033491
vt 0.976324 0.040711
vt 0.977193 0.026248
vt 0.976747 0.019014
vt 0.976690 0.011752
vt 0.975987 0.047970
vt 0.023644 0.044370
vt 0.023714 0.036250
vt 0.316975 0.035463
vt 0.318586 0.043477
vt 0.024198 0.028105
vt 0.317374 0.027382
vt 0.025110 0.019961
vt 0.319763 0.019380
vt 0.026382 0.011841
vt 0.321804 0.011311
vt 0.023912 0.052473
vt 0.319853 0.051552
vt 0.682314 0.034783
vt 0.682921 0.043123
vt 0.682536 0.026332
vt 0.683594 0.018002
vt 0.684590 0.009642
vt 0.683465 0.051490
vt 0.977050 0.033491
vt 0.976324 0.040711
vt 0.977193 0.026248
vt 0.976747 0.019014
vt 0.976690 0.011752
vt 0.975987 0.047970
vt 0.318586 0.043477
vt 0.316975 0.035463
vt 0.682314 0.034783
vt 0.682921 0.043123
vt 0.317374 0.027382
vt 0.682536 0.026332
vt 0.319763 0.019380
vt 0.683594 0.018002
vt 0.321804 0.011311
vt 0.684590 0.009642
vt 0.319853 0.051552
vt 0.683465 0.051490
vt 0.977050 0.033491
vt 0.976324 0.040711
vt 0.977193 0.026248
vt 0.976747 0.019014
vt 0.976690 0.011752
vt 0.975987 0.047970
vt 0.745144 0.408120
vt 0.655505 0.561582
vt 0.558036 0.555077
vt 0.558036 0.408120
vt 0.709075 0.742723
vt 0.558036 0.742723
vt 0.985791 0.408120
vt 0.985791 0.584571
vt 0.812750 0.572075
vt 0.861473 0.408120
vt 0.841868 0.742723
vt 0.985791 0.742723
vt 0.595325 0.742723
vt 0.595325 0.867997
vt 0.682917 0.849022
vt 0.683397 0.742723
vt 0.595325 0.987677
vt 0.683397 0.987677
vt 0.396726 0.867997
vt 0.396726 0.987677
vt 0.396726 0.742723
vt 0.595325 0.742723
vt 0.683397 0.742723
vt 0.682917 0.849022
vt 0.595325 0.867997
vt 0.683397 0.987677
vt 0.595325 0.987677
vt 0.396726 0.867997
vt 0.396726 0.987677
vt 0.396726 0.742723
vt 0.896429 0.883736
vt 0.896429 0.987677
vt 0.985791 0.987677
vt 0.985791 0.883736
vt 0.896429 0.742723
vt 0.985791 0.742723
vt 0.683397 0.883736
vt 0.683397 0.987677
vt 0.683397 0.742723
vt 0.896429 0.883736
vt 0.985791 0.883736
vt 0.985791 0.987677
vt 0.896429 0.987677
vt 0.896429 0.742723
vt 0.985791 0.742723
vt 0.683397 0.883736
vt 0.683397 0.987677
vt 0.683397 0.742723
vt 0.745144 0.408120
vt 0.558036 0.408120
vt 0.558036 0.555077
vt 0.655505 0.561582
vt 0.558036 0.742723
vt 0.709075 0.742723
vt 0.985791 0.408120
vt 0.861473 0.408120
vt 0.812750 0.572075
vt 0.985791 0.584571
vt 0.841868 0.742723
vt 0.985791 0.742723
vt 0.745144 0.408120
vt 0.655505 0.561582
vt 0.558036 0.555077
vt 0.558036 0.408120
vt 0.709075 0.742723
vt 0.558036 0.742723
vt 0.985791 0.408120
vt 0.985791 0.584571
vt 0.812750 0.572075
vt 0.861473 0.408120
vt 0.841868 0.742723
vt 0.985791 0.742723
vt 0.342799 0.359500
vt 0.296540 0.372035
vt 0.278870 0.352884
vt 0.316943 0.349362
vt 0.266479 0.332535
vt 0.325130 0.335943
vt 0.375241 0.340677
vt 0.239360 0.372035
vt 0.243124 0.356843
vt 0.179389 0.372035
vt 0.221691 0.344547
vt 0.239360 0.141991
vt 0.296540 0.141991
vt 0.278870 0.161142
vt 0.243124 0.157183
vt 0.266479 0.181491
vt 0.221691 0.169479
vt 0.179389 0.141991
vt 0.342799 0.154525
vt 0.316943 0.164664
vt 0.375241 0.173349
vt 0.325130 0.178082
vt 0.362565 0.372035
vt 0.389058 0.372035
vt 0.389058 0.141991
vt 0.362565 0.141991
vt 0.360469 0.314524
vt 0.329552 0.321916
vt 0.296540 0.314524
vt 0.326601 0.296513
vt 0.232611 0.314524
vt 0.210112 0.326233
vt 0.193101 0.314524
vt 0.217839 0.288371
vt 0.193101 0.199502
vt 0.210112 0.187792
vt 0.232611 0.199502
vt 0.217839 0.225655
vt 0.296540 0.199502
vt 0.329553 0.192110
vt 0.360468 0.199502
vt 0.326601 0.217513
vt 0.396973 0.198705
vt 0.408932 0.141991
vt 0.399979 0.314524
vt 0.408932 0.372035
vt 0.408932 0.257013
vt 0.382968 0.302814
vt 0.371389 0.284501
vt 0.263527 0.307132
vt 0.267950 0.293104
vt 0.179389 0.257013
vt 0.204021 0.257013
vt 0.263527 0.206894
vt 0.267950 0.220921
vt 0.382968 0.211211
vt 0.371389 0.229525
vt 0.353719 0.257013
vt 0.349955 0.272205
vt 0.314209 0.276164
vt 0.296540 0.257013
vt 0.276137 0.279685
vt 0.250281 0.269548
vt 0.230515 0.257013
vt 0.250281 0.244478
vt 0.276137 0.234340
vt 0.314209 0.237862
vt 0.349955 0.241821
vt 0.342799 0.359500
vt 0.296540 0.372035
vt 0.278870 0.352884
vt 0.316943 0.349362
vt 0.266479 0.332535
vt 0.325130 0.335943
vt 0.375241 0.340677
vt 0.239360 0.372035
vt 0.243124 0.356843
vt 0.179389 0.372035
vt 0.221691 0.344547
vt 0.239360 0.141991
vt 0.296540 0.141991
vt 0.278870 0.161142
vt 0.243124 0.157183
vt 0.266479 0.181491
vt 0.221691 0.169479
vt 0.179389 0.141991
vt 0.342799 0.154525
vt 0.316943 0.164664
vt 0.375241 0.173349
vt 0.325130 0.178082
vt 0.362565 0.372035
vt 0.389058 0.372035
vt 0.389058 0.141991
vt 0.362565 0.141991
vt 0.360469 0.314524
vt 0.329552 0.321916
vt 0.296540 0.314524
vt 0.326601 0.296513
vt 0.232611 0.314524
vt 0.210112 0.326233
vt 0.193101 0.314524
vt 0.217839 0.288371
vt 0.193101 0.199502
vt 0.210112 0.187792
vt 0.232611 0.199502
vt 0.217839 0.225655
vt 0.296540 0.199502
vt 0.329553 0.192110
vt 0.360468 0.199502
vt 0.326601 0.217513
vt 0.396973 0.198705
vt 0.408932 0.141991
vt 0.399979 0.314524
vt 0.408932 0.372035
vt 0.408932 0.257013
vt 0.382968 0.302814
vt 0.371389 0.284501
vt 0.263527 0.307132
vt 0.267950 0.293104
vt 0.179389 0.257013
vt 0.204021 0.257013
vt 0.263527 0.206894
vt 0.267950 0.220921
vt 0.382968 0.211211
vt 0.371389 0.229525
vt 0.353719 0.257013
vt 0.349955 0.272205
vt 0.314209 0.276164
vt 0.296540 0.257013
vt 0.276137 0.279685
vt 0.250281 0.269548
vt 0.230515 0.257013
vt 0.250281 0.244478
vt 0.276137 0.234340
vt 0.314209 0.237862
vt 0.349955 0.241821
vt 0.342799 0.359500
vt 0.296540 0.372035
vt 0.278870 0.352884
vt 0.316943 0.349362
vt 0.266479 0.332535
vt 0.325130 0.335943
vt 0.375241 0.340677
vt 0.239360 0.372035
vt 0.243124 0.356843
vt 0.179389 0.372035
vt 0.221691 0.344547
vt 0.239360 0.141991
vt 0.296540 0.141991
vt 0.278870 0.161142
vt 0.243124 0.157183
vt 0.266479 0.181491
vt 0.221691 0.169479
vt 0.179389 0.141991
vt 0.342799 0.154525
vt 0.316943 0.164664
vt 0.375241 0.173349
vt 0.325130 0.178082
vt 0.362565 0.372035
vt 0.389058 0.372035
vt 0.389058 0.141991
vt 0.362565 0.141991
vt 0.360469 0.314524
vt 0.329552 0.321916
vt 0.296540 0.314524
vt 0.326601 0.296513
vt 0.232611 0.314524
vt 0.210112 0.326233
vt 0.193101 0.314524
vt 0.217839 0.288371
vt 0.193101 0.199502
vt 0.210112 0.187792
vt 0.232611 0.199502
vt 0.217839 0.225655
vt 0.296540 0.199502
vt 0.329553 0.192110
vt 0.360468 0.199502
vt 0.326601 0.217513
vt 0.396973 0.198705
vt 0.408932 0.141991
vt 0.399979 0.314524
vt 0.408932 0.372035
vt 0.408932 0.257013
vt 0.382968 0.302814
vt 0.371389 0.284501
vt 0.263527 0.307132
vt 0.267950 0.293104
vt 0.179389 0.257013
vt 0.204021 0.257013
vt 0.263527 0.206894
vt 0.267950 0.220921
vt 0.382968 0.211211
vt 0.371389 0.229525
vt 0.353719 0.257013
vt 0.349955 0.272205
vt 0.314209 0.276164
vt 0.296540 0.257013
vt 0.276137 0.279685
vt 0.250281 0.269548
vt 0.230515 0.257013
vt 0.250281 0.244478
vt 0.276137 0.234340
vt 0.314209 0.237862
vt 0.349955 0.241821
vt 0.342799 0.359500
vt 0.296540 0.372035
vt 0.278870 0.352884
vt 0.316943 0.349362
vt 0.266479 0.332535
vt 0.325130 0.335943
vt 0.375241 0.340677
vt 0.239360 0.372035
vt 0.243124 0.356843
vt 0.179389 0.372035
vt 0.221691 0.344547
vt 0.239360 0.141991
vt 0.296540 0.141991
vt 0.278870 0.161142
vt 0.243124 0.157183
vt 0.266479 0.181491
vt 0.221691 0.169479
vt 0.179389 0.141991
vt 0.342799 0.154525
vt 0.316943 0.164664
vt 0.375241 0.173349
vt 0.325130 0.178082
vt 0.362565 0.372035
vt 0.389058 0.372035
vt 0.389058 0.141991
vt 0.362565 0.141991
vt 0.360469 0.314524
vt 0.329552 0.321916
vt 0.296540 0.314524
vt 0.326601 0.296513
vt 0.232611 0.314524
vt 0.210112 0.326233
vt 0.193101 0.314524
vt 0.217839 0.288371
vt 0.193101 0.199502
vt 0.210112 0.187792
vt 0.232611 0.199502
vt 0.217839 0.225655
vt 0.296540 0.199502
vt 0.329553 0.192110
vt 0.360468 0.199502
vt 0.326601 0.217513
vt 0.396973 0.198705
vt 0.408932 0.141991
vt 0.399979 0.314524
vt 0.408932 0.372035
vt 0.408932 0.257013
vt 0.382968 0.302814
vt 0.371389 0.284501
vt 0.263527 0.307132
vt 0.267950 0.293104
vt 0.179389 0.257013
vt 0.204021 0.257013
vt 0.263527 0.206894
vt 0.267950 0.220921
vt 0.382968 0.211211
vt 0.371389 0.229525
vt 0.353719 0.257013
vt 0.349955 0.272205
vt 0.314209 0.276164
vt 0.296540 0.257013
vt 0.276137 0.279685
vt 0.250281 0.269548
vt 0.230515 0.257013
vt 0.250281 0.244478
vt 0.276137 0.234340
vt 0.314209 0.237862
vt 0.349955 0.241821
vt 0.342799 0.359500
vt 0.296540 0.372035
vt 0.278870 0.352884
vt 0.316943 0.349362
vt 0.266479 0.332535
vt 0.325130 0.335943
vt 0.375241 0.340677
vt 0.239360 0.372035
vt 0.243124 0.356843
vt 0.179389 0.372035
vt 0.221691 0.344547
vt 0.239360 0.141991
vt 0.296540 0.141991
vt 0.278870 0.161142
vt 0.243124 0.157183
vt 0.266479 0.181491
vt 0.221691 0.169479
vt 0.179389 0.141991
vt 0.342799 0.154525
vt 0.316943 0.164664
vt 0.375241 0.173349
vt 0.325130 0.178082
vt 0.362565 0.372035
vt 0.389058 0.372035
vt 0.389058 0.141991
vt 0.362565 0.141991
vt 0.360469 0.314524
vt 0.329552 0.321916
vt 0.296540 0.314524
vt 0.326601 0.296513
vt 0.232611 0.314524
vt 0.210112 0.326233
vt 0.193101 0.314524
vt 0.217839 0.288371
vt 0.193101 0.199502
vt 0.210112 0.187792
vt 0.232611 0.199502
vt 0.217839 0.225655
vt 0.296540 0.199502
vt 0.329553 0.192110
vt 0.360468 0.199502
vt 0.326601 0.217513
vt 0.396973 0.198705
vt 0.408932 0.141991
vt 0.399979 0.314524
vt 0.408932 0.372035
vt 0.408932 0.257013
vt 0.382968 0.302814
vt 0.371389 0.284501
vt 0.263527 0.307132
vt 0.267950 0.293104
vt 0.179389 0.257013
vt 0.204021 0.257013
vt 0.263527 0.206894
vt 0.267950 0.220921
vt 0.382968 0.211211
vt 0.371389 0.229525
vt 0.353719 0.257013
vt 0.349955 0.272205
vt 0.314209 0.276164
vt 0.296540 0.257013
vt 0.276137 0.279685
vt 0.250281 0.269548
vt 0.230515 0.257013
vt 0.250281 0.244478
vt 0.276137 0.234340
vt 0.314209 0.237862
vt 0.349955 0.241821
vt 0.342799 0.359500
vt 0.296540 0.372035
vt 0.278870 0.352884
vt 0.316943 0.349362
vt 0.266479 0.332535
vt 0.325130 0.335943
vt 0.375241 0.340677
vt 0.239360 0.372035
vt 0.243124 0.356843
vt 0.179389 0.372035
vt 0.221691 0.344547
vt 0.239360 0.141991
vt 0.296540 0.141991
vt 0.278870 0.161142
vt 0.243124 0.157183
vt 0.266479 0.181491
vt 0.221691 0.169479
vt 0.179389 0.141991
vt 0.342799 0.154525
vt 0.316943 0.164664
vt 0.375241 0.173349
vt 0.325130 0.178082
vt 0.362565 0.372035
vt 0.389058 0.372035
vt 0.389058 0.141991
vt 0.362565 0.141991
vt 0.360469 0.314524
vt 0.329552 0.321916
vt 0.296540 0.314524
vt 0.326601 0.296513
vt 0.232611 0.314524
vt 0.210112 0.326233
vt 0.193101 0.314524
vt 0.217839 0.288371
vt 0.193101 0.199502
vt 0.210112 0.187792
vt 0.232611 0.199502
vt 0.217839 0.225655
vt 0.296540 0.199502
vt 0.329553 0.192110
vt 0.360468 0.199502
vt 0.326601 0.217513
vt 0.396973 0.198705
vt 0.408932 0.141991
vt 0.399979 0.314524
vt 0.408932 0.372035
vt 0.408932 0.257013
vt 0.382968 0.302814
vt 0.371389 0.284501
vt 0.263527 0.307132
vt 0.267950 0.293104
vt 0.179389 0.257013
vt 0.204021 0.257013
vt 0.263527 0.206894
vt 0.267950 0.220921
vt 0.382968 0.211211
vt 0.371389 0.229525
vt 0.353719 0.257013
vt 0.349955 0.272205
vt 0.314209 0.276164
vt 0.296540 0.257013
vt 0.276137 0.279685
vt 0.250281 0.269548
vt 0.230515 0.257013
vt 0.250281 0.244478
vt 0.276137 0.234340
vt 0.314209 0.237862
vt 0.349955 0.241821
vt 0.342799 0.359500
vt 0.296540 0.372035
vt 0.278870 0.352884
vt 0.316943 0.349362
vt 0.266479 0.332535
vt 0.325130 0.335943
vt 0.375241 0.340677
vt 0.239360 0.372035
vt 0.243124 0.356843
vt 0.179389 0.372035
vt 0.221691 0.344547
vt 0.239360 0.141991
vt 0.296540 0.141991
vt 0.278870 0.161142
vt 0.243124 0.157183
vt 0.266479 0.181491
vt 0.221691 0.169479
vt 0.179389 0.141991
vt 0.342799 0.154525
vt 0.316943 0.164664
vt 0.375241 0.173349
vt 0.325130 0.178082
vt 0.362565 0.372035
vt 0.389058 0.372035
vt 0.389058 0.141991
vt 0.362565 0.141991
vt 0.360469 0.314524
vt 0.329552 0.321916
vt 0.296540 0.314524
vt 0.326601 0.296513
vt 0.232611 0.314524
vt 0.210112 0.326233
vt 0.193101 0.314524
vt 0.217839 0.288371
vt 0.193101 0.199502
vt 0.210112 0.187792
vt 0.232611 0.199502
vt 0.217839 0.225655
vt 0.296540 0.199502
vt 0.329553 0.192110
vt 0.360468 0.199502
vt 0.326601 0.217513
vt 0.396973 0.198705
vt 0.408932 0.141991
vt 0.399979 0.314524
vt 0.408932 0.372035
vt 0.408932 0.257013
vt 0.382968 0.302814
vt 0.371389 0.284501
vt 0.263527 0.307132
vt 0.267950 0.293104
vt 0.179389 0.257013
vt 0.204021 0.257013
vt 0.263527 0.206894
vt 0.267950 0.220921
vt 0.382968 0.211211
vt 0.371389 0.229525
vt 0.353719 0.257013
vt 0.349955 0.272205
vt 0.314209 0.276164
vt 0.296540 0.257013
vt 0.276137 0.279685
vt 0.250281 0.269548
vt 0.230515 0.257013
vt 0.250281 0.244478
vt 0.276137 0.234340
vt 0.314209 0.237862
vt 0.349955 0.241821
vt 0.342799 0.359500
vt 0.296540 0.372035
vt 0.278870 0.352884
vt 0.316943 0.349362
vt 0.266479 0.332535
vt 0.325130 0.335943
vt 0.375241 0.340677
vt 0.239360 0.372035
vt 0.243124 0.356843
vt 0.179389 0.372035
vt 0.221691 0.344547
vt 0.239360 0.141991
vt 0.296540 0.141991
vt 0.278870 0.161142
vt 0.243124 0.157183
vt 0.266479 0.181491
vt 0.221691 0.169479
vt 0.179389 0.141991
vt 0.342799 0.154525
vt 0.316943 0.164664
vt 0.375241 0.173349
vt 0.325130 0.178082
vt 0.362565 0.372035
vt 0.389058 0.372035
vt 0.389058 0.141991
vt 0.362565 0.141991
vt 0.360469 0.314524
vt 0.329552 0.321916
vt 0.296540 0.314524
vt 0.326601 0.296513
vt 0.232611 0.314524
vt 0.210112 0.326233
vt 0.193101 0.314524
vt 0.217839 0.288371
vt 0.193101 0.199502
vt 0.210112 0.187792
vt 0.232611 0.199502
vt 0.217839 0.225655
vt 0.296540 0.199502
vt 0.329553 0.192110
vt 0.360468 0.199502
vt 0.326601 0.217513
vt 0.396973 0.198705
vt 0.408932 0.141991
vt 0.399979 0.314524
vt 0.408932 0.372035
vt 0.408932 0.257013
vt 0.382968 0.302814
vt 0.371389 0.284501
vt 0.263527 0.307132
vt 0.267950 0.293104
vt 0.179389 0.257013
vt 0.204021 0.257013
vt 0.263527 0.206894
vt 0.267950 0.220921
vt 0.382968 0.211211
vt 0.371389 0.229525
vt 0.353719 0.257013
vt 0.349955 0.272205
vt 0.314209 0.276164
vt 0.296540 0.257013
vt 0.276137 0.279685
vt 0.250281 0.269548
vt 0.230515 0.257013
vt 0.250281 0.244478
vt 0.276137 0.234340
vt 0.314209 0.237862
vt 0.349955 0.241821
vn -0.7494 -0.3575 0.5573
vn -0.5306 -0.3357 0.7783
vn -0.6138 -0.1629 0.7725
vn -0.7856 -0.2003 0.5855
vn -0.2976 -0.2532 0.9205
vn -0.3751 -0.1087 0.9206
vn -0.4744 -0.4886 0.7323
vn -0.1939 -0.4176 0.8877
vn -0.6922 -0.5073 0.5134
vn 0.5879 -0.7972 0.1376
vn 0.6100 -0.7246 0.3208
vn 0.0524 -0.8926 0.4477
vn 0.0014 -0.9629 0.2699
vn -0.5680 -0.7164 0.4052
vn -0.5946 -0.7742 0.2171
vn 0.4638 -0.8169 -0.3430
vn 0.5102 -0.8350 -0.2059
vn -0.0409 -0.9898 -0.1362
vn -0.0857 -0.9265 -0.3663
vn -0.5923 -0.7926 -0.1451
vn -0.5732 -0.7682 -0.2851
vn -0.4839 -0.8540 -0.1913
vn -0.5969 -0.7753 0.2066
vn -0.8414 -0.5340 0.0832
vn -0.7967 -0.5464 -0.2581
vn -0.3775 -0.7258 -0.5751
vn -0.6586 -0.4945 -0.5673
vn -0.1254 -0.9875 -0.0955
vn -0.2297 -0.9220 0.3117
vn 0.0036 -0.8713 -0.4907
vn -0.4685 -0.6783 -0.5661
vn -0.4392 -0.5661 -0.6976
vn 0.1089 -0.6975 -0.7083
vn 0.1172 -0.8147 -0.5679
vn 0.6641 -0.5871 -0.4630
vn 0.6498 -0.6909 -0.3170
vn -0.5078 -0.8528 -0.1220
vn -0.5044 -0.8210 -0.2674
vn 0.0519 -0.9744 -0.2188
vn 0.0289 -0.9995 0.0126
vn 0.5730 -0.8196 -0.0043
vn 0.5216 -0.8425 0.1345
vn 0.0371 -0.6137 0.7887
vn 0.3128 -0.7235 0.6153
vn 0.4204 -0.4221 0.8032
vn 0.2077 -0.3980 0.8935
vn 0.5745 -0.6902 0.4400
vn 0.6619 -0.4192 0.6214
vn 0.1311 -0.9047 0.4053
vn 0.4056 -0.8948 0.1865
vn -0.1675 -0.7988 0.5779
vn -0.1668 -0.8540 -0.4929
vn -0.5436 -0.7752 -0.3219
vn -0.6074 -0.5338 -0.5883
vn -0.3180 -0.5462 -0.7749
vn 0.1950 -0.7257 -0.6598
vn 0.0073 -0.4942 -0.8693
vn -0.0081 -0.9875 -0.1572
vn -0.3864 -0.9219 0.0264
vn 0.3770 -0.8713 -0.3143
vn 0.5177 -0.8540 0.0520
vn 0.5178 -0.7753 -0.3617
vn 0.7867 -0.5340 -0.3097
vn 0.8369 -0.5464 0.0310
vn 0.5201 -0.7258 0.4502
vn 0.7884 -0.4945 0.3660
vn 0.1467 -0.9875 0.0576
vn 0.1359 -0.9220 -0.3625
vn 0.1305 -0.8713 0.4730
vn -0.5144 0.2880 0.8077
vn -0.5864 0.3152 0.7461
vn -0.9018 0.3314 0.2775
vn -0.6418 0.1799 0.7455
vn -0.4750 0.1501 0.8671
vn 0.0606 0.1548 0.9861
vn -0.5821 -0.4327 -0.6885
vn -0.3897 -0.3509 -0.8515
vn -0.3446 -0.5098 -0.7882
vn -0.9163 -0.0637 -0.3954
vn -0.4245 -0.3212 -0.8465
vn 0.3606 -0.4114 -0.8371
vn -0.7611 -0.6137 0.2102
vn -0.5311 -0.7235 0.4409
vn -0.6906 -0.4221 0.5872
vn -0.8257 -0.3980 0.3997
vn -0.3024 -0.6902 0.6574
vn -0.4600 -0.4192 0.7827
vn -0.3664 -0.9047 0.2173
vn -0.0924 -0.8948 0.4368
vn -0.6006 -0.7988 -0.0359
vn 0.7487 0.3577 -0.5581
vn 0.7849 0.2009 -0.5861
vn 0.6136 0.1635 -0.7725
vn 0.5305 0.3358 -0.7783
vn 0.3757 0.1093 -0.9203
vn 0.2983 0.2535 -0.9202
vn 0.4744 0.4883 -0.7324
vn 0.1949 0.4176 -0.8875
vn 0.6915 0.5071 -0.5144
vn -0.5866 0.7981 -0.1377
vn -0.0013 0.9629 -0.2698
vn -0.0524 0.8927 -0.4475
vn -0.6088 0.7255 -0.3210
vn 0.5934 0.7750 -0.2174
vn 0.5668 0.7172 -0.4055
vn -0.4627 0.8174 0.3431
vn 0.0857 0.9266 0.3662
vn 0.0409 0.9898 0.1361
vn -0.5091 0.8357 0.2058
vn 0.5912 0.7934 0.1450
vn 0.5723 0.7689 0.2851
vn 0.4838 0.8540 0.1913
vn 0.7961 0.5473 0.2582
vn 0.8409 0.5349 -0.0827
vn 0.5966 0.7757 -0.2057
vn 0.3776 0.7263 0.5744
vn 0.6583 0.4954 0.5668
vn 0.1261 0.9874 0.0958
vn 0.2301 0.9223 -0.3106
vn -0.0027 0.8716 0.4902
vn 0.4673 0.6790 0.5662
vn -0.1173 0.8148 0.5677
vn -0.1089 0.6976 0.7082
vn 0.4380 0.5669 0.6977
vn -0.6488 0.6915 0.3178
vn -0.6630 0.5876 0.4638
vn 0.5068 0.8534 0.1218
vn -0.0289 0.9995 -0.0124
vn -0.0519 0.9744 0.2188
vn 0.5032 0.8217 0.2674
vn -0.5720 0.8202 0.0050
vn -0.5207 0.8432 -0.1340
vn -0.0375 0.6142 -0.7883
vn -0.2077 0.3990 -0.8931
vn -0.4201 0.4231 -0.8028
vn -0.3128 0.7236 -0.6153
vn -0.6613 0.4202 -0.6214
vn -0.5739 0.6905 -0.4403
vn -0.1316 0.9044 -0.4058
vn -0.4055 0.8947 -0.1875
vn 0.1665 0.7989 -0.5780
vn 0.1666 0.8540 0.4928
vn 0.3175 0.5473 0.7744
vn 0.6065 0.5349 0.5882
vn 0.5425 0.7757 0.3223
vn -0.1943 0.7263 0.6594
vn -0.0071 0.4954 0.8686
vn 0.0084 0.9874 0.1581
vn 0.3857 0.9223 -0.0251
vn -0.3758 0.8716 0.3147
vn -0.5176 0.8540 -0.0521
vn -0.8364 0.5473 -0.0311
vn -0.7864 0.5349 0.3090
vn -0.5178 0.7757 0.3607
vn -0.5200 0.7263 -0.4495
vn -0.7880 0.4954 -0.3657
vn -0.1474 0.9874 -0.0577
vn -0.1366 0.9223 0.3616
vn -0.1312 0.8716 -0.4723
vn 0.5143 -0.2870 -0.8081
vn 0.6420 -0.1803 -0.7452
vn 0.8996 -0.3309 -0.2850
vn 0.5859 -0.3141 -0.7470
vn 0.4746 -0.1505 -0.8672
vn -0.0538 -0.1564 -0.9862
vn 0.5821 0.4321 0.6888
vn 0.3440 0.5094 0.7888
vn 0.3903 0.3519 0.8508
vn 0.4254 0.3223 0.8457
vn 0.9124 0.0688 0.4035
vn -0.3499 0.4130 0.8408
vn 0.7606 0.6142 -0.2105
vn 0.8253 0.3990 -0.3996
vn 0.6903 0.4231 -0.5869
vn 0.5311 0.7236 -0.4408
vn 0.4602 0.4202 -0.7821
vn 0.3028 0.6905 -0.6569
vn 0.3668 0.9044 -0.2179
vn 0.0934 0.8947 -0.4369
vn 0.6005 0.7989 0.0348
vn -0.9062 0.0276 -0.4220
vn -0.6658 -0.0849 0.7413
vn -0.5742 -0.0025 0.8187
vn -0.9383 -0.1491 -0.3119
vn 0.5399 -0.0680 0.8390
vn 0.5372 0.1268 0.8338
vn 0.9640 0.0528 -0.2604
vn 0.9723 0.1291 -0.1949
vn 0.0884 0.1072 -0.9903
vn 0.1083 -0.0406 -0.9933
vn -0.5926 -0.0525 0.8038
vn -0.9292 -0.2064 -0.3065
vn 0.6168 0.1922 0.7633
vn 0.8972 0.1587 -0.4122
vn -0.0590 -0.0663 -0.9961
vn -0.4574 -0.1207 0.8810
vn -0.9750 -0.0990 -0.1989
vn 0.6732 0.0347 0.7387
vn 0.9161 0.1556 -0.3695
vn -0.0828 0.0790 -0.9934
vn 0.8692 0.0076 -0.4943
vn -0.2014 0.0084 -0.9795
vn -0.2144 0.0667 -0.9745
vn 0.8565 -0.0088 -0.5160
vn -0.9937 0.0084 -0.1114
vn -0.9899 0.0667 -0.1248
vn -0.4132 0.0076 0.9106
vn -0.4359 -0.0088 0.8999
vn 0.7386 0.0070 0.6741
vn 0.7371 -0.0626 0.6728
vn -0.1903 0.0690 -0.9793
vn 0.8817 -0.0582 -0.4681
vn -0.9890 0.1096 -0.0992
vn -0.4115 0.0125 0.9113
vn 0.7189 -0.0845 0.6900
vn -0.2232 0.0131 -0.9747
vn 0.8563 -0.0761 -0.5108
vn -0.9841 0.0944 -0.1506
vn -0.4769 0.0657 0.8765
vn 0.7114 -0.0435 0.7015
vn 0.7214 0.0632 0.6896
vn 0.9275 0.2638 -0.2649
vn 0.9497 0.1890 -0.2497
vn 0.5284 -0.0667 0.8464
vn 0.1391 0.2015 -0.9695
vn 0.0147 0.1885 -0.9820
vn -0.9250 -0.1414 -0.3528
vn -0.9315 -0.0565 -0.3592
vn -0.4581 -0.2325 0.8580
vn -0.6438 -0.2129 0.7350
vn 0.9635 0.1155 -0.2414
vn 0.5449 -0.1309 0.8282
vn 0.1446 0.2178 -0.9652
vn -0.8720 0.0589 -0.4859
vn -0.6924 -0.1764 0.6997
vn 0.2972 0.7533 -0.5866
vn 0.4442 0.8959 -0.0098
vn 0.6012 0.7970 -0.0583
vn 0.4563 0.6558 -0.6014
vn 0.3638 0.7316 0.5766
vn 0.5296 0.6473 0.5481
vn -0.1736 0.8585 -0.4825
vn -0.1786 0.9813 0.0721
vn 0.0576 0.9979 0.0290
vn -0.0300 0.8510 -0.5243
vn 0.0161 0.8115 0.5842
vn -0.1315 0.8117 0.5691
vn -0.2020 -0.6815 -0.7034
vn -0.3018 -0.8542 -0.4234
vn -0.5830 -0.6295 -0.5136
vn -0.4642 -0.5480 -0.6959
vn -0.4384 -0.8879 -0.1396
vn -0.6899 -0.6843 -0.2362
vn 0.0086 -0.9393 -0.3431
vn -0.1092 -0.9939 -0.0169
vn 0.1284 -0.7626 -0.6340
vn 0.2020 0.6821 0.7028
vn 0.4636 0.5489 0.6956
vn 0.5823 0.6303 0.5135
vn 0.3017 0.8543 0.4234
vn 0.6890 0.6850 0.2365
vn 0.4380 0.8880 0.1402
vn -0.0079 0.9392 0.3433
vn 0.1097 0.9938 0.0178
vn -0.1275 0.7631 0.6336
vn 0.1366 -0.9822 0.1287
vn 0.4509 -0.8825 -0.1336
vn 0.6397 -0.7536 0.1511
vn 0.4248 -0.8042 0.4157
vn -0.1237 -0.8881 0.4426
vn 0.1610 -0.7597 0.6300
vn -0.1402 -0.9783 -0.1524
vn 0.1688 -0.8868 -0.4302
vn -0.4277 -0.8901 0.1576
vn -0.1365 0.9823 -0.1287
vn -0.4240 0.8050 -0.4151
vn -0.6386 0.7546 -0.1511
vn -0.4499 0.8831 0.1330
vn 0.1233 0.8886 -0.4418
vn -0.1608 0.7606 -0.6290
vn 0.1397 0.9785 0.1517
vn -0.1685 0.8875 0.4289
vn 0.4266 0.8907 -0.1574
vn 0.4395 -0.8890 -0.1290
vn 0.5641 -0.8246 -0.0429
vn 0.2822 -0.9093 0.3057
vn 0.1751 -0.9535 0.2455
vn -0.0932 -0.7843 0.6133
vn -0.2000 -0.8411 0.5026
vn 0.1349 -0.9335 -0.3321
vn 0.2273 -0.9348 -0.2728
vn -0.0441 -0.9980 0.0458
vn -0.1757 -0.9828 -0.0572
vn -0.3711 -0.8798 0.2969
vn -0.4369 -0.8753 0.2073
vn -0.4387 0.8895 0.1281
vn -0.1749 0.9535 -0.2454
vn -0.2821 0.9094 -0.3056
vn -0.5632 0.8252 0.0421
vn 0.1991 0.8416 -0.5021
vn 0.0922 0.7849 -0.6127
vn -0.1342 0.9339 0.3315
vn 0.1756 0.9828 0.0571
vn 0.0441 0.9980 -0.0458
vn -0.2266 0.9352 0.2721
vn 0.3703 0.8803 -0.2964
vn 0.4362 0.8758 -0.2068
vn 0.2770 -0.8254 -0.4919
vn -0.1817 -0.8272 -0.5317
vn 0.0728 -0.5485 -0.8330
vn 0.3009 -0.6472 -0.7004
vn 0.3422 -0.0743 -0.9367
vn 0.5908 -0.4033 -0.6988
vn 0.7276 -0.6307 -0.2699
vn -0.4602 -0.5210 -0.7189
vn -0.1863 -0.4146 -0.8907
vn -0.6715 0.0124 -0.7409
vn -0.1730 -0.0462 -0.9838
vn -0.5725 -0.7803 -0.2519
vn -0.6676 -0.5874 -0.4573
vn -0.8528 -0.5034 0.1392
vn -0.8909 -0.3040 -0.3375
vn -0.1597 -0.9822 -0.0988
vn -0.4200 -0.9061 -0.0513
vn -0.0397 -0.9062 0.4210
vn -0.5178 -0.8014 0.2994
vn 0.1526 -0.9646 -0.2153
vn 0.4082 -0.9083 0.0911
vn 0.9668 -0.0666 -0.2466
vn 0.8189 -0.0573 -0.5711
vn 0.7180 0.2578 -0.6465
vn 0.8528 0.5034 -0.1392
vn 0.2344 0.4980 -0.8349
vn -0.1286 0.3899 -0.9118
vn -0.3513 0.5717 -0.7414
vn 0.0397 0.9062 -0.4210
vn -0.8891 0.3786 -0.2573
vn -0.9869 0.0817 -0.1390
vn -0.9668 0.0666 0.2466
vn -0.7276 0.6307 0.2699
vn -0.7180 -0.2578 0.6465
vn -0.5345 -0.5433 0.6474
vn -0.2344 -0.4980 0.8349
vn -0.3422 0.0743 0.9367
vn 0.3513 -0.5717 0.7414
vn 0.6222 -0.6540 0.4302
vn 0.8891 -0.3786 0.2573
vn 0.6715 -0.0124 0.7409
vn 0.9869 -0.0817 0.1390
vn 0.8909 0.3040 0.3375
vn 0.5345 0.5433 -0.6474
vn 0.5178 0.8014 -0.2994
vn -0.6222 0.6540 -0.4302
vn -0.4082 0.9083 -0.0911
vn -0.8189 0.0573 0.5711
vn -0.5908 0.4033 0.6988
vn 0.1286 -0.3899 0.9118
vn 0.1730 0.0462 0.9838
vn 0.4602 0.5210 0.7189
vn 0.6676 0.5874 0.4573
vn 0.5725 0.7803 0.2519
vn 0.1817 0.8272 0.5317
vn 0.4200 0.9061 0.0513
vn 0.1597 0.9822 0.0988
vn -0.1526 0.9646 0.2153
vn -0.2770 0.8254 0.4919
vn -0.3009 0.6472 0.7004
vn -0.0728 0.5485 0.8330
vn 0.1863 0.4146 0.8907
vn -0.2304 -0.9554 -0.1846
vn -0.5868 -0.7243 -0.3619
vn -0.1832 -0.7590 -0.6248
vn -0.0794 -0.9086 -0.4100
vn 0.3289 -0.5812 -0.7443
vn 0.2965 -0.8787 -0.3741
vn 0.2168 -0.9693 0.1156
vn -0.5975 -0.4096 -0.6894
vn -0.2984 -0.5386 -0.7880
vn -0.4356 0.1017 -0.8944
vn -0.0528 -0.2995 -0.9526
vn -0.8964 -0.3764 -0.2339
vn -0.8303 -0.2533 -0.4964
vn -0.9917 0.1271 -0.0205
vn -0.8462 0.1260 -0.5178
vn -0.7130 -0.6966 0.0799
vn -0.8761 -0.4813 0.0267
vn -0.6312 -0.5145 0.5804
vn -0.9287 -0.2216 0.2974
vn -0.4441 -0.8937 0.0643
vn -0.2438 -0.8772 0.4136
vn 0.7457 -0.6609 0.0842
vn 0.6720 -0.6921 -0.2635
vn 0.7935 -0.4256 -0.4349
vn 0.9917 -0.1271 0.0205
vn 0.5818 -0.0511 -0.8117
vn 0.2398 0.0343 -0.9702
vn 0.1567 0.3543 -0.9219
vn 0.6312 0.5145 -0.5804
vn -0.4377 0.6731 -0.5962
vn -0.7087 0.5430 -0.4504
vn -0.7457 0.6609 -0.0842
vn -0.2168 0.9693 -0.1156
vn -0.7935 0.4256 0.4349
vn -0.8237 0.1102 0.5562
vn -0.5818 0.0511 0.8117
vn -0.3289 0.5812 0.7443
vn -0.1567 -0.3543 0.9219
vn 0.0408 -0.6759 0.7359
vn 0.4377 -0.6731 0.5962
vn 0.4356 -0.1017 0.8944
vn 0.7087 -0.5430 0.4504
vn 0.8462 -0.1260 0.5178
vn 0.8237 -0.1102 -0.5562
vn 0.9287 0.2216 -0.2974
vn -0.0408 0.6759 -0.7359
vn 0.2438 0.8772 -0.4136
vn -0.6720 0.6921 0.2635
vn -0.2965 0.8787 0.3741
vn -0.2398 -0.0343 0.9702
vn 0.0528 0.2995 0.9526
vn 0.5975 0.4096 0.6894
vn 0.8303 0.2533 0.4964
vn 0.8964 0.3764 0.2339
vn 0.5868 0.7243 0.3619
vn 0.8761 0.4813 -0.0267
vn 0.7130 0.6966 -0.0799
vn 0.4441 0.8937 -0.0643
vn 0.2304 0.9554 0.1846
vn 0.0794 0.9086 0.4100
vn 0.1832 0.7590 0.6248
vn 0.2984 0.5386 0.7880
vn 0.9648 -0.2615 -0.0265
vn 0.9253 0.0334 -0.3777
vn 0.9746 0.2136 0.0676
vn 0.9866 -0.0544 0.1536
vn 0.7513 0.3567 0.5553
vn 0.8563 -0.1050 0.5057
vn 0.7408 -0.5715 0.3529
vn 0.7969 0.4692 -0.3807
vn 0.8813 0.4699 -0.0509
vn 0.4036 0.8734 -0.2727
vn 0.6873 0.7046 0.1767
vn 0.6404 0.1095 -0.7602
vn 0.6320 0.3922 -0.6683
vn 0.1325 0.1640 -0.9775
vn 0.3155 0.5888 -0.7441
vn 0.7387 -0.3319 -0.5866
vn 0.6133 -0.1706 -0.7712
vn 0.3435 -0.6953 -0.6314
vn 0.2822 -0.2838 -0.9164
vn 0.8533 -0.4333 -0.2900
vn 0.6398 -0.7509 -0.1639
vn 0.3616 -0.4467 0.8183
vn 0.5574 -0.1485 0.8168
vn 0.3718 0.1158 0.9211
vn -0.1325 -0.1640 0.9775
vn 0.2604 0.6404 0.7225
vn 0.3358 0.8497 0.4065
vn 0.0564 0.9632 0.2627
vn -0.3435 0.6953 0.6314
vn -0.2221 0.8765 -0.4271
vn -0.1086 0.7113 -0.6945
vn -0.3616 0.4467 -0.8183
vn -0.7408 0.5715 -0.3529
vn -0.3718 -0.1158 -0.9211
vn -0.1434 -0.3667 -0.9192
vn -0.2604 -0.6404 -0.7225
vn -0.7513 -0.3567 -0.5553
vn -0.0564 -0.9632 -0.2627
vn 0.2574 -0.9661 0.0175
vn 0.2221 -0.8765 0.4271
vn -0.4036 -0.8734 0.2727
vn 0.1086 -0.7113 0.6944
vn -0.3155 -0.5888 0.7441
vn 0.1434 0.3667 0.9192
vn -0.2822 0.2838 0.9164
vn -0.2574 0.9661 -0.0175
vn -0.6398 0.7509 0.1639
vn -0.5574 0.1485 -0.8168
vn -0.8563 0.1050 -0.5057
vn -0.3358 -0.8497 -0.4065
vn -0.6873 -0.7046 -0.1767
vn -0.7969 -0.4692 0.3807
vn -0.6320 -0.3922 0.6683
vn -0.6404 -0.1095 0.7602
vn -0.9253 -0.0334 0.3777
vn -0.6133 0.1706 0.7712
vn -0.7387 0.3319 0.5866
vn -0.8533 0.4333 0.2900
vn -0.9648 0.2615 0.0265
vn -0.9866 0.0544 -0.1536
vn -0.9746 -0.2136 -0.0676
vn -0.8813 -0.4698 0.0509
vn 0.5392 -0.8422 -0.0009
vn 0.1918 -0.9391 0.2853
vn 0.1135 -0.9752 -0.1899
vn 0.3824 -0.8973 -0.2204
vn -0.0075 -0.7366 -0.6763
vn 0.4487 -0.7099 -0.5429
vn 0.8238 -0.4874 -0.2896
vn -0.2562 -0.9435 0.2103
vn -0.1752 -0.9774 -0.1185
vn -0.7381 -0.6724 0.0555
vn -0.4166 -0.8294 -0.3723
vn -0.0321 -0.7448 0.6665
vn -0.2837 -0.8055 0.5202
vn -0.2770 -0.3099 0.9095
vn -0.5785 -0.5730 0.5805
vn 0.4407 -0.6863 0.5786
vn 0.2198 -0.6399 0.7363
vn 0.6507 -0.2134 0.7287
vn 0.1987 -0.3140 0.9284
vn 0.6210 -0.7240 0.3003
vn 0.8733 -0.4124 0.2594
vn 0.6679 -0.0990 -0.7377
vn 0.4492 -0.3706 -0.8130
vn 0.1619 -0.2564 -0.9529
vn 0.2770 0.3099 -0.9095
vn -0.3970 -0.3300 -0.8565
vn -0.6226 -0.5061 -0.5968
vn -0.8396 -0.2943 -0.4565
vn -0.6507 0.2134 -0.7287
vn -0.9609 -0.1023 0.2572
vn -0.8162 -0.1996 0.5422
vn -0.6679 0.0990 0.7377
vn -0.8238 0.4874 0.2896
vn -0.1619 0.2564 0.9529
vn 0.1440 0.1127 0.9832
vn 0.3970 0.3300 0.8565
vn 0.0075 0.7366 0.6763
vn 0.8397 0.2943 0.4565
vn 0.9868 0.0372 0.1577
vn 0.9609 0.1023 -0.2572
vn 0.7381 0.6724 -0.0555
vn 0.8162 0.1996 -0.5422
vn 0.5785 0.5730 -0.5805
vn -0.1440 -0.1127 -0.9832
vn -0.1987 0.3140 -0.9284
vn -0.9868 -0.0372 -0.1577
vn -0.8733 0.4124 -0.2594
vn -0.4492 0.3706 0.8130
vn -0.4487 0.7099 0.5429
vn 0.6226 0.5061 0.5968
vn 0.4166 0.8294 0.3723
vn 0.2562 0.9435 -0.2103
vn 0.2837 0.8055 -0.5202
vn 0.0321 0.7448 -0.6665
vn -0.1918 0.9391 -0.2853
vn -0.2198 0.6399 -0.7363
vn -0.4407 0.6863 -0.5786
vn -0.6210 0.7240 -0.3003
vn -0.5392 0.8422 0.0009
vn -0.3824 0.8973 0.2204
vn -0.1135 0.9752 0.1899
vn 0.1752 0.9774 0.1185
vn -0.0481 -0.7140 0.6984
vn 0.3866 -0.5655 0.7285
vn 0.0418 -0.3099 0.9499
vn -0.1374 -0.5041 0.8526
vn -0.3630 0.0694 0.9292
vn -0.4863 -0.3694 0.7919
vn -0.5213 -0.7304 0.4414
vn 0.5483 -0.1515 0.8224
vn 0.2448 -0.0931 0.9651
vn 0.5886 0.4076 0.6981
vn 0.1161 0.2646 0.9574
vn 0.7624 -0.4755 0.4389
vn 0.7823 -0.2166 0.5840
vn 0.9713 -0.2372 -0.0168
vn 0.9177 0.0803 0.3890
vn 0.4395 -0.8261 0.3527
vn 0.6676 -0.6891 0.2819
vn 0.3355 -0.9273 -0.1661
vn 0.7517 -0.6539 -0.0858
vn 0.1295 -0.8751 0.4663
vn -0.1113 -0.9807 0.1609
vn -0.9163 -0.2923 0.2738
vn -0.7988 -0.1548 0.5813
vn -0.8018 0.1843 0.5685
vn -0.9713 0.2372 0.0168
vn -0.4251 0.6006 0.6772
vn -0.0520 0.6322 0.7731
vn 0.1165 0.8227 0.5564
vn -0.3355 0.9273 0.1661
vn 0.7170 0.6847 0.1306
vn 0.9064 0.4119 0.0936
vn 0.9163 0.2923 -0.2738
vn 0.5213 0.7304 -0.4414
vn 0.8018 -0.1843 -0.5685
vn 0.7125 -0.5021 -0.4902
vn 0.4251 -0.6006 -0.6772
vn 0.3630 -0.0694 -0.9292
vn -0.1165 -0.8227 -0.5564
vn -0.3695 -0.9005 -0.2293
vn -0.7170 -0.6847 -0.1306
vn -0.5886 -0.4076 -0.6981
vn -0.9064 -0.4119 -0.0936
vn -0.9177 -0.0803 -0.3890
vn -0.7125 0.5021 0.4902
vn -0.7517 0.6539 0.0858
vn 0.3695 0.9005 0.2293
vn 0.1113 0.9807 -0.1609
vn 0.7988 0.1548 -0.5813
vn 0.4863 0.3694 -0.7919
vn 0.0520 -0.6322 -0.7731
vn -0.1161 -0.2646 -0.9574
vn -0.5483 0.1515 -0.8224
vn -0.7823 0.2166 -0.5840
vn -0.7624 0.4755 -0.4389
vn -0.3866 0.5655 -0.7285
vn -0.6676 0.6891 -0.2819
vn -0.4395 0.8261 -0.3527
vn -0.1295 0.8751 -0.4663
vn 0.0481 0.7140 -0.6984
vn 0.1375 0.5041 -0.8526
vn -0.0418 0.3099 -0.9499
vn -0.2448 0.0931 -0.9651
vn 0.4934 -0.7578 0.4270
vn 0.7524 -0.3914 0.5299
vn 0.3617 -0.4784 0.8002
vn 0.3213 -0.7027 0.6348
vn -0.1866 -0.4409 0.8780
vn -0.0433 -0.7993 0.5993
vn 0.0908 -0.9845 0.1499
vn 0.6476 -0.0151 0.7618
vn 0.3951 -0.1992 0.8968
vn 0.3276 0.4572 0.8269
vn 0.0794 -0.0124 0.9968
vn 0.9512 -0.0112 0.3083
vn 0.8348 0.1493 0.5299
vn 0.9049 0.4243 -0.0328
vn 0.7351 0.5074 0.4496
vn 0.8922 -0.4416 0.0942
vn 0.9798 -0.1808 0.0853
vn 0.7917 -0.4289 -0.4350
vn 0.9694 0.0034 -0.2456
vn 0.6942 -0.7003 0.1667
vn 0.5207 -0.8365 -0.1706
vn -0.5071 -0.8551 0.1084
vn -0.4496 -0.7713 0.4504
vn -0.6559 -0.5199 0.5473
vn -0.9049 -0.4243 0.0328
vn -0.5902 -0.0147 0.8071
vn -0.3002 0.2089 0.9307
vn -0.3136 0.5151 0.7977
vn -0.7917 0.4289 0.4350
vn 0.1776 0.9045 0.3878
vn 0.4838 0.8303 0.2766
vn 0.5071 0.8551 -0.1084
vn -0.0908 0.9845 -0.1499
vn 0.6559 0.5199 -0.5473
vn 0.7866 0.2086 -0.5811
vn 0.5902 0.0147 -0.8071
vn 0.1866 0.4409 -0.8780
vn 0.3136 -0.5151 -0.7977
vn 0.2100 -0.8221 -0.5293
vn -0.1776 -0.9045 -0.3878
vn -0.3276 -0.4572 -0.8269
vn -0.4838 -0.8303 -0.2766
vn -0.7351 -0.5074 -0.4496
vn -0.7866 -0.2086 0.5811
vn -0.9694 -0.0034 0.2456
vn -0.2100 0.8221 0.5293
vn -0.5207 0.8365 0.1706
vn 0.4496 0.7713 -0.4504
vn 0.0433 0.7993 -0.5993
vn 0.3002 -0.2089 -0.9307
vn -0.0794 0.0124 -0.9968
vn -0.6476 0.0151 -0.7618
vn -0.8348 -0.1493 -0.5299
vn -0.9512 0.0112 -0.3083
vn -0.7524 0.3914 -0.5299
vn -0.9798 0.1808 -0.0853
vn -0.8922 0.4416 -0.0942
vn -0.6942 0.7003 -0.1667
vn -0.4934 0.7578 -0.4270
vn -0.3213 0.7027 -0.6348
vn -0.3617 0.4784 -0.8002
vn -0.3951 0.1992 -0.8968
vn -0.8421 -0.5272 0.1133
vn -0.9150 -0.1541 0.3729
vn -0.9875 -0.1190 -0.1033
vn -0.9134 -0.3905 -0.1148
vn -0.7867 -0.0457 -0.6156
vn -0.7518 -0.4881 -0.4433
vn -0.5120 -0.8411 -0.1745
vn -0.9232 0.2852 0.2577
vn -0.9828 0.1750 -0.0588
vn -0.6627 0.7478 0.0389
vn -0.8538 0.3905 -0.3442
vn -0.6908 0.1013 0.7159
vn -0.7615 0.3393 0.5522
vn -0.2373 0.3624 0.9013
vn -0.5237 0.6357 0.5671
vn -0.6414 -0.3781 0.6676
vn -0.5819 -0.1443 0.8003
vn -0.1592 -0.5790 0.7996
vn -0.2421 -0.1095 0.9641
vn -0.7013 -0.5826 0.4108
vn -0.3950 -0.8412 0.3694
vn -0.1588 -0.7312 -0.6634
vn -0.4345 -0.5171 -0.7374
vn -0.3302 -0.2452 -0.9115
vn 0.2373 -0.3624 -0.9013
vn -0.3935 0.3210 -0.8615
vn -0.5480 0.5714 -0.6109
vn -0.3250 0.7979 -0.5077
vn 0.1592 0.5790 -0.7996
vn -0.0777 0.9815 0.1749
vn -0.1534 0.8645 0.4787
vn 0.1588 0.7312 0.6634
vn 0.5120 0.8411 0.1745
vn 0.3302 0.2452 0.9115
vn 0.1878 -0.0550 0.9807
vn 0.3935 -0.3210 0.8615
vn 0.7867 0.0457 0.6156
vn 0.3250 -0.7979 0.5077
vn 0.0449 -0.9687 0.2443
vn 0.0777 -0.9815 -0.1749
vn 0.6627 -0.7478 -0.0389
vn 0.1534 -0.8645 -0.4787
vn 0.5237 -0.6357 -0.5671
vn -0.1878 0.0550 -0.9807
vn 0.2421 0.1095 -0.9641
vn -0.0449 0.9687 -0.2443
vn 0.3950 0.8412 -0.3694
vn 0.4345 0.5171 0.7374
vn 0.7518 0.4881 0.4433
vn 0.5480 -0.5714 0.6109
vn 0.8538 -0.3905 0.3442
vn 0.9232 -0.2852 -0.2577
vn 0.7615 -0.3393 -0.5522
vn 0.6908 -0.1013 -0.7159
vn 0.9150 0.1541 -0.3729
vn 0.5819 0.1443 -0.8003
vn 0.6414 0.3781 -0.6676
vn 0.7013 0.5826 -0.4108
vn 0.8421 0.5272 -0.1133
vn 0.9134 0.3905 0.1148
vn 0.9875 0.1190 0.1033
vn 0.9828 -0.1750 0.0588
vn 0.1651 -0.1598 0.9732
vn 0.0050 -0.5651 0.8250
vn 0.4711 -0.4626 0.7511
vn 0.4180 -0.2188 0.8817
vn 0.8663 -0.2127 0.4519
vn 0.6402 0.0652 0.7654
vn 0.2562 0.3655 0.8949
vn 0.1682 -0.8454 0.5070
vn 0.4657 -0.6878 0.5569
vn 0.3218 -0.9461 -0.0370
vn 0.7011 -0.6643 0.2592
vn -0.3639 -0.7394 0.5665
vn -0.1570 -0.8942 0.4193
vn -0.6797 -0.7252 0.1102
vn -0.2278 -0.9722 0.0539
vn -0.3998 -0.3470 0.8484
vn -0.5147 -0.5280 0.6755
vn -0.7365 0.0364 0.6754
vn -0.7941 -0.4103 0.4484
vn -0.1682 -0.1430 0.9753
vn -0.2847 0.2399 0.9281
vn 0.5743 0.6710 0.4690
vn 0.7779 0.3797 0.5006
vn 0.9290 0.3080 0.2053
vn 0.6797 0.7252 -0.1102
vn 0.9798 -0.1558 -0.1254
vn 0.8448 -0.5178 -0.1348
vn 0.6909 -0.5859 -0.4235
vn 0.7365 -0.0364 -0.6754
vn -0.0048 -0.8165 -0.5773
vn -0.2656 -0.8859 -0.3802
vn -0.5743 -0.6710 -0.4690
vn -0.2562 -0.3655 -0.8949
vn -0.9290 -0.3080 -0.2053
vn -0.9730 -0.2007 0.1136
vn -0.9798 0.1558 0.1254
vn -0.8663 0.2127 -0.4519
vn -0.6909 0.5859 0.4235
vn -0.3617 0.6374 0.6803
vn 0.0048 0.8165 0.5773
vn -0.3218 0.9461 0.0370
vn 0.2656 0.8859 0.3802
vn 0.2278 0.9722 -0.0539
vn 0.9730 0.2007 -0.1136
vn 0.7941 0.4103 -0.4484
vn 0.3617 -0.6374 -0.6803
vn 0.2847 -0.2399 -0.9281
vn -0.7779 -0.3798 -0.5006
vn -0.6402 -0.0652 -0.7654
vn -0.8448 0.5178 0.1348
vn -0.7010 0.6643 -0.2592
vn -0.1682 0.8454 -0.5070
vn 0.1570 0.8942 -0.4193
vn 0.3639 0.7394 -0.5665
vn -0.0050 0.5651 -0.8250
vn 0.5147 0.5280 -0.6755
vn 0.3998 0.3470 -0.8484
vn 0.1682 0.1430 -0.9753
vn -0.1651 0.1598 -0.9732
vn -0.4180 0.2188 -0.8817
vn -0.4711 0.4626 -0.7511
vn -0.4657 0.6878 -0.5569
s 1
f 1/1/1 2/2/2 3/3/3 4/4/4
f 2/2/2 5/5/5 6/6/6 3/3/3
f 7/7/7 8/8/8 5/5/5 2/2/2
f 9/9/9 7/7/7 2/2/2 1/1/1
s 2
f 10/10/10 11/11/11 12/12/12 13/13/13
f 12/12/12 14/14/14 15/15/15 13/13/13
f 16/16/16 17/17/17 18/18/18 19/19/19
f 20/20/20 21/21/21 19/19/19 18/18/18
f 15/15/15 20/20/20 18/18/18 13/13/13
f 17/17/17 10/10/10 13/13/13 18/18/18
s 3
f 22/22/22 23/23/23 24/24/24 25/25/25
f 26/26/26 22/22/22 25/25/25 27/27/27
f 28/28/28 29/29/29 23/23/23 22/22/22
f 30/30/30 28/28/28 22/22/22 26/26/26
s 4
f 31/31/31 32/32/32 33/33/33 34/34/34
f 33/33/33 35/35/35 36/36/36 34/34/34
f 37/37/37 38/38/38 39/39/39 40/40/40
f 41/41/41 42/42/42 40/40/40 39/39/39
f 36/36/36 41/41/41 39/39/39 34/34/34
f 38/38/38 31/31/31 34/34/34 39/39/39
s 5
f 43/43/43 44/44/44 45/45/45 46/46/46
f 44/44/44 47/47/47 48/48/48 45/45/45
f 49/49/49 50/50/50 47/47/47 44/44/44
f 51/51/51 49/49/49 44/44/44 43/43/43
s 6
f 52/52/52 53/53/53 54/54/54 55/55/55
f 56/56/56 52/52/52 55/55/55 57/57/57
f 58/58/58 59/59/59 53/53/53 52/52/52
f 60/60/60 58/58/58 52/52/52 56/56/56
s 7
f 61/61/61 62/62/62 63/63/63 64/64/64
f 65/65/65 61/61/61 64/64/64 66/66/66
f 67/67/67 68/68/68 62/62/62 61/61/61
f 69/69/69 67/67/67 61/61/61 65/65/65
s 8
f 70/70/70 71/71/71 72/72/72 73/73/73
f 74/74/74 75/75/75 71/71/71 70/70/70
f 74/74/74 70/70/70 73/73/73
s 9
f 76/76/76 77/77/77 78/78/78
f 76/76/76 79/79/79 80/80/80 77/77/77
f 81/81/81 78/78/78 77/77/77 80/80/80
s 10
f 82/82/82 83/83/83 84/84/84 85/85/85
f 83/83/83 86/86/86 87/87/87 84/84/84
f 88/88/88 89/89/89 86/86/86 83/83/83
f 90/90/90 88/88/88 83/83/83 82/82/82
s 11
f 91/91/91 92/92/92 93/93/93 94/94/94
f 94/94/94 93/93/93 95/95/95 96/96/96
f 97/97/97 94/94/94 96/96/96 98/98/98
f 99/99/99 91/91/91 94/94/94 97/97/97
s 12
f 100/100/100 101/101/101 102/102/102 103/103/103
f 102/102/102 101/101/101 104/104/104 105/105/105
f 106/106/106 107/107/107 108/108/108 109/109/109
f 110/110/110 108/108/108 107/107/107 111/111/111
f 104/104/104 101/101/101 108/108/108 110/110/110
f 109/109/109 108/108/108 101/101/101 100/100/100
s 13
f 112/112/112 113/113/113 114/114/114 115/115/115
f 116/116/116 117/117/117 113/113/113 112/112/112
f 118/118/118 112/112/112 115/115/115 119/119/119
f 120/120/120 116/116/116 112/112/112 118/118/118
s 14
f 121/121/121 122/122/122 123/123/123 124/124/124
f 123/123/123 122/122/122 125/125/125 126/126/126
f 127/127/127 128/128/128 129/129/129 130/130/130
f 131/131/131 129/129/129 128/128/128 132/132/132
f 125/125/125 122/122/122 129/129/129 131/131/131
f 130/130/130 129/129/129 122/122/122 121/121/121
s 15
f 133/133/133 134/134/134 135/135/135 136/136/136
f 136/136/136 135/135/135 137/137/137 138/138/138
f 139/139/139 136/136/136 138/138/138 140/140/140
f 141/141/141 133/133/133 136/136/136 139/139/139
s 16
f 142/142/142 143/143/143 144/144/144 145/145/145
f 146/146/146 147/147/147 143/143/143 142/142/142
f 148/148/148 142/142/142 145/145/145 149/149/149
f 150/150/150 146/146/146 142/142/142 148/148/148
s 17
f 151/151/151 152/152/152 153/153/153 154/154/154
f 155/155/155 156/156/156 152/152/152 151/151/151
f 157/157/157 151/151/151 154/154/154 158/158/158
f 159/159/159 155/155/155 151/151/151 157/157/157
s 18
f 160/160/160 161/161/161 162/162/162 163/163/163
f 164/164/164 160/160/160 163/163/163 165/165/165
f 164/164/164 161/161/161 160/160/160
s 19
f 166/166/166 167/167/167 168/168/168
f 166/166/166 168/168/168 169/169/169 170/170/170
f 171/171/171 169/169/169 168/168/168 167/167/167
s 20
f 172/172/172 173/173/173 174/174/174 175/175/175
f 175/175/175 174/174/174 176/176/176 177/177/177
f 178/178/178 175/175/175 177/177/177 179/179/179
f 180/180/180 172/172/172 175/175/175 178/178/178
s 21
f 181/181/181 182/182/182 183/183/183 184/184/184
f 182/182/182 185/185/185 186/186/186 183/183/183
f 185/185/185 187/187/187 188/188/188 186/186/186
f 187/187/187 189/189/189 190/190/190 188/188/188
f 189/191/189 181/181/181 184/184/184 190/192/190
f 184/184/184 183/183/183 191/193/191 192/194/192
f 183/183/183 186/186/186 193/195/193 191/193/191
f 186/186/186 188/188/188 194/196/194 193/195/193
f 188/188/188 190/190/190 195/197/195 194/196/194
f 190/192/190 184/184/184 192/194/192 195/198/195
f 192/194/192 191/193/191 196/199/196 197/200/197
f 191/193/191 193/195/193 198/201/198 196/199/196
f 193/195/193 194/196/194 199/202/199 198/201/198
f 194/196/194 195/197/195 200/203/200 199/202/199
f 195/198/195 192/194/192 197/200/197 200/204/200
s 22
f 201/205/201 202/206/202 203/207/203 204/208/204
f 202/206/202 205/209/205 206/210/206 203/207/203
f 205/209/205 207/211/207 208/212/208 206/210/206
f 207/211/207 209/213/209 210/214/210 208/212/208
f 209/215/209 201/205/201 204/208/204 210/216/210
f 204/208/204 203/207/203 211/217/211 212/218/212
f 203/207/203 206/210/206 213/219/213 211/217/211
f 206/210/206 208/212/208 214/220/214 213/219/213
f 208/212/208 210/214/210 215/221/215 214/220/214
f 210/216/210 204/208/204 212/218/212 215/222/215
f 212/218/212 211/217/211 216/223/216 217/224/217
f 211/217/211 213/219/213 218/225/218 216/223/216
f 213/219/213 214/220/214 219/226/219 218/225/218
f 214/220/214 215/221/215 220/227/220 219/226/219
f 215/222/215 212/218/212 217/224/217 220/228/220
s 23
f 221/229/221 222/230/222 223/231/223 224/232/224
f 222/230/222 225/233/225 226/234/226 223/231/223
f 225/233/225 227/235/227 228/236/228 226/234/226
f 227/235/227 229/237/229 230/238/230 228/236/228
f 229/239/229 221/229/221 224/232/224 230/240/230
f 224/232/224 223/231/223 231/241/231 232/242/232
f 223/231/223 226/234/226 233/243/233 231/241/231
f 226/234/226 228/236/228 234/244/234 233/243/233
f 228/236/228 230/238/230 235/245/235 234/244/234
f 230/240/230 224/232/224 232/242/232 235/246/235
s 24
f 236/247/236 237/248/237 238/249/238 239/250/239
f 238/249/238 237/248/237 240/251/240 241/252/241
f 242/253/242 243/254/243 244/255/244 245/256/245
f 246/257/246 244/255/244 243/254/243 247/258/247
f 240/251/240 237/248/237 244/255/244 246/257/246
f 245/256/245 244/255/244 237/248/237 236/247/236
s 25
f 248/259/248 249/260/249 250/261/250 251/262/251
f 249/260/249 252/263/252 253/264/253 250/261/250
f 254/265/254 255/266/255 252/263/252 249/260/249
f 256/267/256 254/265/254 249/260/249 248/259/248
s 26
f 257/268/257 258/269/258 259/270/259 260/271/260
f 260/271/260 259/270/259 261/272/261 262/273/262
f 263/274/263 260/271/260 262/273/262 264/275/264
f 265/276/265 257/268/257 260/271/260 263/274/263
s 27
f 266/277/266 267/278/267 268/279/268 269/280/269
f 270/281/270 266/277/266 269/280/269 271/282/271
f 272/283/272 273/284/273 267/278/267 266/277/266
f 274/285/274 272/283/272 266/277/266 270/281/270
s 28
f 275/286/275 276/287/276 277/288/277 278/289/278
f 279/290/279 280/291/280 276/287/276 275/286/275
f 281/292/281 275/286/275 278/289/278 282/293/282
f 283/294/283 279/290/279 275/286/275 281/292/281
s 29
f 284/295/284 285/296/285 286/297/286 287/298/287
f 286/297/286 288/299/288 289/300/289 287/298/287
f 290/301/290 291/302/291 292/303/292 293/304/293
f 294/305/294 295/306/295 293/304/293 292/303/292
f 289/300/289 294/305/294 292/303/292 287/298/287
f 291/302/291 284/295/284 287/298/287 292/303/292
s 30
f 296/307/296 297/308/297 298/309/298 299/310/299
f 298/309/298 297/308/297 300/311/300 301/312/301
f 302/313/302 303/314/303 304/315/304 305/316/305
f 306/317/306 304/315/304 303/314/303 307/318/307
f 300/311/300 297/308/297 304/315/304 306/317/306
f 305/316/305 304/315/304 297/308/297 296/307/296
s 31
f 308/319/308 309/320/309 310/321/310 311/322/311
f 310/321/310 312/323/312 313/324/313 311/322/311
f 313/324/313 314/325/314 308/319/308 311/322/311
f 310/321/310 309/320/309 315/326/315 316/327/316
f 315/326/315 317/328/317 318/329/318 316/327/316
f 318/329/318 312/323/312 310/321/310 316/327/316
f 315/330/315 309/331/309 319/332/319 320/333/320
f 319/332/319 321/334/321 322/335/322 320/333/320
f 322/335/322 317/336/317 315/330/315 320/333/320
f 319/332/319 309/331/309 323/337/323 324/338/324
f 323/337/323 325/339/325 326/340/326 324/338/324
f 326/340/326 321/334/321 319/332/319 324/338/324
f 327/341/327 309/320/309 308/319/308
f 308/319/308 314/325/314 328/342/328 327/341/327
f 328/343/328 325/339/325 323/337/323 327/344/327
f 329/345/329 314/325/314 313/324/313 330/346/330
f 313/324/313 312/323/312 331/347/331 330/346/330
f 331/347/331 332/348/332 329/345/329 330/346/330
f 333/349/333 312/323/312 318/329/318 334/350/334
f 318/329/318 317/328/317 335/351/335 334/350/334
f 335/351/335 336/352/336 333/349/333 334/350/334
f 337/353/337 317/336/317 322/335/322 338/354/338
f 322/335/322 321/334/321 339/355/339 338/354/338
f 339/355/339 340/356/340 337/353/337 338/354/338
f 341/357/341 321/334/321 326/340/326 342/358/342
f 326/340/326 325/339/325 343/359/343 342/358/342
f 343/359/343 344/360/344 341/357/341 342/358/342
f 345/361/345 325/339/325 328/343/328 346/362/346
f 328/342/328 314/325/314 347/363/347 346/364/346
f 347/363/347 348/365/348 346/364/346
f 347/363/347 314/325/314 329/345/329 349/366/349
f 329/345/329 332/348/332 350/367/350 349/366/349
f 350/367/350 348/365/348 347/363/347 349/366/349
f 331/347/331 312/323/312 333/349/333 351/368/351
f 333/349/333 336/352/336 352/369/352 351/368/351
f 352/369/352 332/348/332 331/347/331 351/368/351
f 335/351/335 317/328/317 353/370/353
f 337/353/337 340/356/340 354/371/354 353/370/353
f 354/371/354 336/352/336 335/351/335 353/370/353
f 339/355/339 321/334/321 341/357/341 355/372/355
f 341/357/341 344/360/344 356/373/356 355/372/355
f 356/373/356 340/356/340 339/355/339 355/372/355
f 343/359/343 325/339/325 345/361/345 357/374/357
f 345/361/345 348/365/348 358/375/358 357/374/357
f 358/375/358 344/360/344 343/359/343 357/374/357
f 359/376/359 348/365/348 350/367/350 360/377/360
f 350/367/350 332/348/332 361/378/361 360/377/360
f 361/378/361 362/379/362 359/376/359 360/377/360
f 361/378/361 332/348/332 352/369/352 363/380/363
f 352/369/352 336/352/336 364/381/364 363/380/363
f 364/381/364 362/379/362 361/378/361 363/380/363
f 364/381/364 336/352/336 354/371/354 365/382/365
f 354/371/354 340/356/340 366/383/366 365/382/365
f 365/382/365 362/379/362 364/381/364
f 366/383/366 340/356/340 356/373/356 367/384/367
f 356/373/356 344/360/344 368/385/368 367/384/367
f 368/385/368 362/379/362 366/383/366 367/384/367
f 368/385/368 344/360/344 358/375/358 369/386/369
f 358/375/358 348/365/348 359/376/359 369/386/369
f 359/376/359 362/379/362 368/385/368 369/386/369
f 323/337/323 309/331/309 327/344/327
f 353/370/353 317/336/317 337/353/337
f 366/383/366 362/379/362 365/382/365
f 346/362/346 348/365/348 345/361/345
s 32
f 370/387/370 371/388/371 372/389/372 373/390/373
f 372/389/372 374/391/374 375/392/375 373/390/373
f 375/392/375 376/393/376 370/387/370 373/390/373
f 372/389/372 371/388/371 377/394/377 378/395/378
f 377/394/377 379/396/379 380/397/380 378/395/378
f 380/397/380 374/391/374 372/389/372 378/395/378
f 377/398/377 371/399/371 381/400/381 382/401/382
f 381/400/381 383/402/383 384/403/384 382/401/382
f 384/403/384 379/404/379 377/398/377 382/401/382
f 381/400/381 371/399/371 385/405/385 386/406/386
f 385/405/385 387/407/387 388/408/388 386/406/386
f 388/408/388 383/402/383 381/400/381 386/406/386
f 389/409/389 371/388/371 370/387/370
f 370/387/370 376/393/376 390/410/390 389/409/389
f 390/411/390 387/407/387 385/405/385 389/412/389
f 391/413/391 376/393/376 375/392/375 392/414/392
f 375/392/375 374/391/374 393/415/393 392/414/392
f 393/415/393 394/416/394 391/413/391 392/414/392
f 395/417/395 374/391/374 380/397/380 396/418/396
f 380/397/380 379/396/379 397/419/397 396/418/396
f 397/419/397 398/420/398 395/417/395 396/418/396
f 399/421/399 379/404/379 384/403/384 400/422/400
f 384/403/384 383/402/383 401/423/401 400/422/400
f 401/423/401 402/424/402 399/421/399 400/422/400
f 403/425/403 383/402/383 388/408/388 404/426/404
f 388/408/388 387/407/387 405/427/405 404/426/404
f 405/427/405 406/428/406 403/425/403 404/426/404
f 407/429/407 387/407/387 390/411/390 408/430/408
f 390/410/390 376/393/376 409/431/409 408/432/408
f 409/431/409 410/433/410 408/432/408
f 409/431/409 376/393/376 391/413/391 411/434/411
f 391/413/391 394/416/394 412/435/412 411/434/411
f 412/435/412 410/433/410 409/431/409 411/434/411
f 393/415/393 374/391/374 395/417/395 413/436/413
f 395/417/395 398/420/398 414/437/414 413/436/413
f 414/437/414 394/416/394 393/415/393 413/436/413
f 397/419/397 379/396/379 415/438/415
f 399/421/399 402/424/402 416/439/416 415/438/415
f 416/439/416 398/420/398 397/419/397 415/438/415
f 401/423/401 383/402/383 403/425/403 417/440/417
f 403/425/403 406/428/406 418/441/418 417/440/417
f 418/441/418 402/424/402 401/423/401 417/440/417
f 405/427/405 387/407/387 407/429/407 419/442/419
f 407/429/407 410/433/410 420/443/420 419/442/419
f 420/443/420 406/428/406 405/427/405 419/442/419
f 421/444/421 410/433/410 412/435/412 422/445/422
f 412/435/412 394/416/394 423/446/423 422/445/422
f 423/446/423 424/447/424 421/444/421 422/445/422
f 423/446/423 394/416/394 414/437/414 425/448/425
f 414/437/414 398/420/398 426/449/426 425/448/425
f 426/449/426 424/447/424 423/446/423 425/448/425
f 426/449/426 398/420/398 416/439/416 427/450/427
f 416/439/416 402/424/402 428/451/428 427/450/427
f 427/450/427 424/447/424 426/449/426
f 428/451/428 402/424/402 418/441/418 429/452/429
f 418/441/418 406/428/406 430/453/430 429/452/429
f 430/453/430 424/447/424 428/451/428 429/452/429
f 430/453/430 406/428/406 420/443/420 431/454/431
f 420/443/420 410/433/410 421/444/421 431/454/431
f 421/444/421 424/447/424 430/453/430 431/454/431
f 385/405/385 371/399/371 389/412/389
f 415/438/415 379/404/379 399/421/399
f 428/451/428 424/447/424 427/450/427
f 408/430/408 410/433/410 407/429/407
s 33
f 432/455/432 433/456/433 434/457/434 435/458/435
f 434/457/434 436/459/436 437/460/437 435/458/435
f 437/460/437 438/461/438 432/455/432 435/458/435
f 434/457/434 433/456/433 439/462/439 440/463/440
f 439/462/439 441/464/441 442/465/442 440/463/440
f 442/465/442 436/459/436 434/457/434 440/463/440
f 439/466/439 433/467/433 443/468/443 444/469/444
f 443/468/443 445/470/445 446/471/446 444/469/444
f 446/471/446 441/472/441 439/466/439 444/469/444
f 443/468/443 433/467/433 447/473/447 448/474/448
f 447/473/447 449/475/449 450/476/450 448/474/448
f 450/476/450 445/470/445 443/468/443 448/474/448
f 451/477/451 433/456/433 432/455/432
f 432/455/432 438/461/438 452/478/452 451/477/451
f 452/479/452 449/475/449 447/473/447 451/480/451
f 453/481/453 438/461/438 437/460/437 454/482/454
f 437/460/437 436/459/436 455/483/455 454/482/454
f 455/483/455 456/484/456 453/481/453 454/482/454
f 457/485/457 436/459/436 442/465/442 458/486/458
f 442/465/442 441/464/441 459/487/459 458/486/458
f 459/487/459 460/488/460 457/485/457 458/486/458
f 461/489/461 441/472/441 446/471/446 462/490/462
f 446/471/446 445/470/445 463/491/463 462/490/462
f 463/491/463 464/492/464 461/489/461 462/490/462
f 465/493/465 445/470/445 450/476/450 466/494/466
f 450/476/450 449/475/449 467/495/467 466/494/466
f 467/495/467 468/496/468 465/493/465 466/494/466
f 469/497/469 449/475/449 452/479/452 470/498/470
f 452/478/452 438/461/438 471/499/471 470/500/470
f 471/499/471 472/501/472 470/500/470
f 471/499/471 438/461/438 453/481/453 473/502/473
f 453/481/453 456/484/456 474/503/474 473/502/473
f 474/503/474 472/501/472 471/499/471 473/502/473
f 455/483/455 436/459/436 457/485/457 475/504/475
f 457/485/457 460/488/460 476/505/476 475/504/475
f 476/505/476 456/484/456 455/483/455 475/504/475
f 459/487/459 441/464/441 477/506/477
f 461/489/461 464/492/464 478/507/478 477/506/477
f 478/507/478 460/488/460 459/487/459 477/506/477
f 463/491/463 445/470/445 465/493/465 479/508/479
f 465/493/465 468/496/468 480/509/480 479/508/479
f 480/509/480 464/492/464 463/491/463 479/508/479
f 467/495/467 449/475/449 469/497/469 481/510/481
f 469/497/469 472/501/472 482/511/482 481/510/481
f 482/511/482 468/496/468 467/495/467 481/510/481
f 483/512/483 472/501/472 474/503/474 484/513/484
f 474/503/474 456/484/456 485/514/485 484/513/484
f 485/514/485 486/515/486 483/512/483 484/513/484
f 485/514/485 456/484/456 476/505/476 487/516/487
f 476/505/476 460/488/460 488/517/488 487/516/487
f 488/517/488 486/515/486 485/514/485 487/516/487
f 488/517/488 460/488/460 478/507/478 489/518/489
f 478/507/478 464/492/464 490/519/490 489/518/489
f 489/518/489 486/515/486 488/517/488
f 490/519/490 464/492/464 480/509/480 491/520/491
f 480/509/480 468/496/468 492/521/492 491/520/491
f 492/521/492 486/515/486 490/519/490 491/520/491
f 492/521/492 468/496/468 482/511/482 493/522/493
f 482/511/482 472/501/472 483/512/483 493/522/493
f 483/512/483 486/515/486 492/521/492 493/522/493
f 447/473/447 433/467/433 451/480/451
f 477/506/477 441/472/441 461/489/461
f 490/519/490 486/515/486 489/518/489
f 470/498/470 472/501/472 469/497/469
s 34
f 494/523/494 495/524/495 496/525/496 497/526/497
f 496/525/496 498/527/498 499/528/499 497/526/497
f 499/528/499 500/529/500 494/523/494 497/526/497
f 496/525/496 495/524/495 501/530/501 502/531/502
f 501/530/501 503/532/503 504/533/504 502/531/502
f 504/533/504 498/527/498 496/525/496 502/531/502
f 501/534/501 495/535/495 505/536/505 506/537/506
f 505/536/505 507/538/507 508/539/508 506/537/506
f 508/539/508 503/540/503 501/534/501 506/537/506
f 505/536/505 495/535/495 509/541/509 510/542/510
f 509/541/509 511/543/511 512/544/512 510/542/510
f 512/544/512 507/538/507 505/536/505 510/542/510
f 513/545/513 495/524/495 494/523/494
f 494/523/494 500/529/500 514/546/514 513/545/513
f 514/547/514 511/543/511 509/541/509 513/548/513
f 515/549/515 500/529/500 499/528/499 516/550/516
f 499/528/499 498/527/498 517/551/517 516/550/516
f 517/551/517 518/552/518 515/549/515 516/550/516
f 519/553/519 498/527/498 504/533/504 520/554/520
f 504/533/504 503/532/503 521/555/521 520/554/520
f 521/555/521 522/556/522 519/553/519 520/554/520
f 523/557/523 503/540/503 508/539/508 524/558/524
f 508/539/508 507/538/507 525/559/525 524/558/524
f 525/559/525 526/560/526 523/557/523 524/558/524
f 527/561/527 507/538/507 512/544/512 528/562/528
f 512/544/512 511/543/511 529/563/529 528/562/528
f 529/563/529 530/564/530 527/561/527 528/562/528
f 531/565/531 511/543/511 514/547/514 532/566/532
f 514/546/514 500/529/500 533/567/533 532/568/532
f 533/567/533 534/569/534 532/568/532
f 533/567/533 500/529/500 515/549/515 535/570/535
f 515/549/515 518/552/518 536/571/536 535/570/535
f 536/571/536 534/569/534 533/567/533 535/570/535
f 517/551/517 498/527/498 519/553/519 537/572/537
f 519/553/519 522/556/522 538/573/538 537/572/537
f 538/573/538 518/552/518 517/551/517 537/572/537
f 521/555/521 503/532/503 539/574/539
f 523/557/523 526/560/526 540/575/540 539/574/539
f 540/575/540 522/556/522 521/555/521 539/574/539
f 525/559/525 507/538/507 527/561/527 541/576/541
f 527/561/527 530/564/530 542/577/542 541/576/541
f 542/577/542 526/560/526 525/559/525 541/576/541
f 529/563/529 511/543/511 531/565/531 543/578/543
f 531/565/531 534/569/534 544/579/544 543/578/543
f 544/579/544 530/564/530 529/563/529 543/578/543
f 545/580/545 534/569/534 536/571/536 546/581/546
f 536/571/536 518/552/518 547/582/547 546/581/546
f 547/582/547 548/583/548 545/580/545 546/581/546
f 547/582/547 518/552/518 538/573/538 549/584/549
f 538/573/538 522/556/522 550/585/550 549/584/549
f 550/585/550 548/583/548 547/582/547 549/584/549
f 550/585/550 522/556/522 540/575/540 551/586/551
f 540/575/540 526/560/526 552/587/552 551/586/551
f 551/586/551 548/583/548 550/585/550
f 552/587/552 526/560/526 542/577/542 553/588/553
f 542/577/542 530/564/530 554/589/554 553/588/553
f 554/589/554 548/583/548 552/587/552 553/588/553
f 554/589/554 530/564/530 544/579/544 555/590/555
f 544/579/544 534/569/534 545/580/545 555/590/555
f 545/580/545 548/583/548 554/589/554 555/590/555
f 509/541/509 495/535/495 513/548/513
f 539/574/539 503/540/503 523/557/523
f 552/587/552 548/583/548 551/586/551
f 532/566/532 534/569/534 531/565/531
s 35
f 556/591/556 557/592/557 558/593/558 559/594/559
f 558/593/558 560/595/560 561/596/561 559/594/559
f 561/596/561 562/597/562 556/591/556 559/594/559
f 558/593/558 557/592/557 563/598/563 564/599/564
f 563/598/563 565/600/565 566/601/566 564/599/564
f 566/601/566 560/595/560 558/593/558 564/599/564
f 563/602/563 557/603/557 567/604/567 568/605/568
f 567/604/567 569/606/569 570/607/570 568/605/568
f 570/607/570 565/608/565 563/602/563 568/605/568
f 567/604/567 557/603/557 571/609/571 572/610/572
f 571/609/571 573/611/573 574/612/574 572/610/572
f 574/612/574 569/606/569 567/604/567 572/610/572
f 575/613/575 557/592/557 556/591/556
f 556/591/556 562/597/562 576/614/576 575/613/575
f 576/615/576 573/611/573 571/609/571 575/616/575
f 577/617/577 562/597/562 561/596/561 578/618/578
f 561/596/561 560/595/560 579/619/579 578/618/578
f 579/619/579 580/620/580 577/617/577 578/618/578
f 581/621/581 560/595/560 566/601/566 582/622/582
f 566/601/566 565/600/565 583/623/583 582/622/582
f 583/623/583 584/624/584 581/621/581 582/622/582
f 585/625/585 565/608/565 570/607/570 586/626/586
f 570/607/570 569/606/569 587/627/587 586/626/586
f 587/627/587 588/628/588 585/625/585 586/626/586
f 589/629/589 569/606/569 574/612/574 590/630/590
f 574/612/574 573/611/573 591/631/591 590/630/590
f 591/631/591 592/632/592 589/629/589 590/630/590
f 593/633/593 573/611/573 576/615/576 594/634/594
f 576/614/576 562/597/562 595/635/595 594/636/594
f 595/635/595 596/637/596 594/636/594
f 595/635/595 562/597/562 577/617/577 597/638/597
f 577/617/577 580/620/580 598/639/598 597/638/597
f 598/639/598 596/637/596 595/635/595 597/638/597
f 579/619/579 560/595/560 581/621/581 599/640/599
f 581/621/581 584/624/584 600/641/600 599/640/599
f 600/641/600 580/620/580 579/619/579 599/640/599
f 583/623/583 565/600/565 601/642/601
f 585/625/585 588/628/588 602/643/602 601/642/601
f 602/643/602 584/624/584 583/623/583 601/642/601
f 587/627/587 569/606/569 589/629/589 603/644/603
f 589/629/589 592/632/592 604/645/604 603/644/603
f 604/645/604 588/628/588 587/627/587 603/644/603
f 591/631/591 573/611/573 593/633/593 605/646/605
f 593/633/593 596/637/596 606/647/606 605/646/605
f 606/647/606 592/632/592 591/631/591 605/646/605
f 607/648/607 596/637/596 598/639/598 608/649/608
f 598/639/598 580/620/580 609/650/609 608/649/608
f 609/650/609 610/651/610 607/648/607 608/649/608
f 609/650/609 580/620/580 600/641/600 611/652/611
f 600/641/600 584/624/584 612/653/612 611/652/611
f 612/653/612 610/651/610 609/650/609 611/652/611
f 612/653/612 584/624/584 602/643/602 613/654/613
f 602/643/602 588/628/588 614/655/614 613/654/613
f 613/654/613 610/651/610 612/653/612
f 614/655/614 588/628/588 604/645/604 615/656/615
f 604/645/604 592/632/592 616/657/616 615/656/615
f 616/657/616 610/651/610 614/655/614 615/656/615
f 616/657/616 592/632/592 606/647/606 617/658/617
f 606/647/606 596/637/596 607/648/607 617/658/617
f 607/648/607 610/651/610 616/657/616 617/658/617
f 571/609/571 557/603/557 575/616/575
f 601/642/601 565/608/565 585/625/585
f 614/655/614 610/651/610 613/654/613
f 594/634/594 596/637/596 593/633/593
s 36
f 618/659/618 619/660/619 620/661/620 621/662/621
f 620/661/620 622/663/622 623/664/623 621/662/621
f 623/664/623 624/665/624 618/659/618 621/662/621
f 620/661/620 619/660/619 625/666/625 626/667/626
f 625/666/625 627/668/627 628/669/628 626/667/626
f 628/669/628 622/663/622 620/661/620 626/667/626
f 625/670/625 619/671/619 629/672/629 630/673/630
f 629/672/629 631/674/631 632/675/632 630/673/630
f 632/675/632 627/676/627 625/670/625 630/673/630
f 629/672/629 619/671/619 633/677/633 634/678/634
f 633/677/633 635/679/635 636/680/636 634/678/634
f 636/680/636 631/674/631 629/672/629 634/678/634
f 637/681/637 619/660/619 618/659/618
f 618/659/618 624/665/624 638/682/638 637/681/637
f 638/683/638 635/679/635 633/677/633 637/684/637
f 639/685/639 624/665/624 623/664/623 640/686/640
f 623/664/623 622/663/622 641/687/641 640/686/640
f 641/687/641 642/688/642 639/685/639 640/686/640
f 643/689/643 622/663/622 628/669/628 644/690/644
f 628/669/628 627/668/627 645/691/645 644/690/644
f 645/691/645 646/692/646 643/689/643 644/690/644
f 647/693/647 627/676/627 632/675/632 648/694/648
f 632/675/632 631/674/631 649/695/649 648/694/648
f 649/695/649 650/696/650 647/693/647 648/694/648
f 651/697/651 631/674/631 636/680/636 652/698/652
f 636/680/636 635/679/635 653/699/653 652/698/652
f 653/699/653 654/700/654 651/697/651 652/698/652
f 655/701/655 635/679/635 638/683/638 656/702/656
f 638/682/638 624/665/624 657/703/657 656/704/656
f 657/703/657 658/705/658 656/704/656
f 657/703/657 624/665/624 639/685/639 659/706/659
f 639/685/639 642/688/642 660/707/660 659/706/659
f 660/707/660 658/705/658 657/703/657 659/706/659
f 641/687/641 622/663/622 643/689/643 661/708/661
f 643/689/643 646/692/646 662/709/662 661/708/661
f 662/709/662 642/688/642 641/687/641 661/708/661
f 645/691/645 627/668/627 663/710/663
f 647/693/647 650/696/650 664/711/664 663/710/663
f 664/711/664 646/692/646 645/691/645 663/710/663
f 649/695/649 631/674/631 651/697/651 665/712/665
f 651/697/651 654/700/654 666/713/666 665/712/665
f 666/713/666 650/696/650 649/695/649 665/712/665
f 653/699/653 635/679/635 655/701/655 667/714/667
f 655/701/655 658/705/658 668/715/668 667/714/667
f 668/715/668 654/700/654 653/699/653 667/714/667
f 669/716/669 658/705/658 660/707/660 670/717/670
f 660/707/660 642/688/642 671/718/671 670/717/670
f 671/718/671 672/719/672 669/716/669 670/717/670
f 671/718/671 642/688/642 662/709/662 673/720/673
f 662/709/662 646/692/646 674/721/674 673/720/673
f 674/721/674 672/719/672 671/718/671 673/720/673
f 674/721/674 646/692/646 664/711/664 675/722/675
f 664/711/664 650/696/650 676/723/676 675/722/675
f 675/722/675 672/719/672 674/721/674
f 676/723/676 650/696/650 666/713/666 677/724/677
f 666/713/666 654/700/654 678/725/678 677/724/677
f 678/725/678 672/719/672 676/723/676 677/724/677
f 678/725/678 654/700/654 668/715/668 679/726/679
f 668/715/668 658/705/658 669/716/669 679/726/679
f 669/716/669 672/719/672 678/725/678 679/726/679
f 633/677/633 619/671/619 637/684/637
f 663/710/663 627/676/627 647/693/647
f 676/723/676 672/719/672 675/722/675
f 656/702/656 658/705/658 655/701/655
s 37
f 680/727/680 681/728/681 682/729/682 683/730/683
f 682/729/682 684/731/684 685/732/685 683/730/683
f 685/732/685 686/733/686 680/727/680 683/730/683
f 682/729/682 681/728/681 687/734/687 688/735/688
f 687/734/687 689/736/689 690/737/690 688/735/688
f 690/737/690 684/731/684 682/729/682 688/735/688
f 687/738/687 681/739/681 691/740/691 692/741/692
f 691/740/691 693/742/693 694/743/694 692/741/692
f 694/743/694 689/744/689 687/738/687 692/741/692
f 691/740/691 681/739/681 695/745/695 696/746/696
f 695/745/695 697/747/697 698/748/698 696/746/696
f 698/748/698 693/742/693 691/740/691 696/746/696
f 699/749/699 681/728/681 680/727/680
f 680/727/680 686/733/686 700/750/700 699/749/699
f 700/751/700 697/747/697 695/745/695 699/752/699
f 701/753/701 686/733/686 685/732/685 702/754/702
f 685/732/685 684/731/684 703/755/703 702/754/702
f 703/755/703 704/756/704 701/753/701 702/754/702
f 705/757/705 684/731/684 690/737/690 706/758/706
f 690/737/690 689/736/689 707/759/707 706/758/706
f 707/759/707 708/760/708 705/757/705 706/758/706
f 709/761/709 689/744/689 694/743/694 710/762/710
f 694/743/694 693/742/693 711/763/711 710/762/710
f 711/763/711 712/764/712 709/761/709 710/762/710
f 713/765/713 693/742/693 698/748/698 714/766/714
f 698/748/698 697/747/697 715/767/715 714/766/714
f 715/767/715 716/768/716 713/765/713 714/766/714
f 717/769/717 697/747/697 700/751/700 718/770/718
f 700/750/700 686/733/686 719/771/719 718/772/718
f 719/771/719 720/773/720 718/772/718
f 719/771/719 686/733/686 701/753/701 721/774/721
f 701/753/701 704/756/704 722/775/722 721/774/721
f 722/775/722 720/773/720 719/771/719 721/774/721
f 703/755/703 684/731/684 705/757/705 723/776/723
f 705/757/705 708/760/708 724/777/724 723/776/723
f 724/777/724 704/756/704 703/755/703 723/776/723
f 707/759/707 689/736/689 725/778/725
f 709/761/709 712/764/712 726/779/726 725/778/725
f 726/779/726 708/760/708 707/759/707 725/778/725
f 711/763/711 693/742/693 713/765/713 727/780/727
f 713/765/713 716/768/716 728/781/728 727/780/727
f 728/781/728 712/764/712 711/763/711 727/780/727
f 715/767/715 697/747/697 717/769/717 729/782/729
f 717/769/717 720/773/720 730/783/730 729/782/729
f 730/783/730 716/768/716 715/767/715 729/782/729
f 731/784/731 720/773/720 722/775/722 732/785/732
f 722/775/722 704/756/704 733/786/733 732/785/732
f 733/786/733 734/787/734 731/784/731 732/785/732
f 733/786/733 704/756/704 724/777/724 735/788/735
f 724/777/724 708/760/708 736/789/736 735/788/735
f 736/789/736 734/787/734 733/786/733 735/788/735
f 736/789/736 708/760/708 726/779/726 737/790/737
f 726/779/726 712/764/712 738/791/738 737/790/737
f 737/790/737 734/787/734 736/789/736
f 738/791/738 712/764/712 728/781/728 739/792/739
f 728/781/728 716/768/716 740/793/740 739/792/739
f 740/793/740 734/787/734 738/791/738 739/792/739
f 740/793/740 716/768/716 730/783/730 741/794/741
f 730/783/730 720/773/720 731/784/731 741/794/741
f 731/784/731 734/787/734 740/793/740 741/794/741
f 695/745/695 681/739/681 699/752/699
f 725/778/725 689/744/689 709/761/709
f 738/791/738 734/787/734 737/790/737
f 718/770/718 720/773/720 717/769/717
s 38
f 742/795/742 743/796/743 744/797/744 745/798/745
f 744/797/744 746/799/746 747/800/747 745/798/745
f 747/800/747 748/801/748 742/795/742 745/798/745
f 744/797/744 743/796/743 749/802/749 750/803/750
f 749/802/749 751/804/751 752/805/752 750/803/750
f 752/805/752 746/799/746 744/797/744 750/803/750
f 749/806/749 743/807/743 753/808/753 754/809/754
f 753/808/753 755/810/755 756/811/756 754/809/754
f 756/811/756 751/812/751 749/806/749 754/809/754
f 753/808/753 743/807/743 757/813/757 758/814/758
f 757/813/757 759/815/759 760/816/760 758/814/758
f 760/816/760 755/810/755 753/808/753 758/814/758
f 761/817/761 743/796/743 742/795/742
f 742/795/742 748/801/748 762/818/762 761/817/761
f 762/819/762 759/815/759 757/813/757 761/820/761
f 763/821/763 748/801/748 747/800/747 764/822/764
f 747/800/747 746/799/746 765/823/765 764/822/764
f 765/823/765 766/824/766 763/821/763 764/822/764
f 767/825/767 746/799/746 752/805/752 768/826/768
f 752/805/752 751/804/751 769/827/769 768/826/768
f 769/827/769 770/828/770 767/825/767 768/826/768
f 771/829/771 751/812/751 756/811/756 772/830/772
f 756/811/756 755/810/755 773/831/773 772/830/772
f 773/831/773 774/832/774 771/829/771 772/830/772
f 775/833/775 755/810/755 760/816/760 776/834/776
f 760/816/760 759/815/759 777/835/777 776/834/776
f 777/835/777 778/836/778 775/833/775 776/834/776
f 779/837/779 759/815/759 762/819/762 780/838/780
f 762/818/762 748/801/748 781/839/781 780/840/780
f 781/839/781 782/841/782 780/840/780
f 781/839/781 748/801/748 763/821/763 783/842/783
f 763/821/763 766/824/766 784/843/784 783/842/783
f 784/843/784 782/841/782 781/839/781 783/842/783
f 765/823/765 746/799/746 767/825/767 785/844/785
f 767/825/767 770/828/770 786/845/786 785/844/785
f 786/845/786 766/824/766 765/823/765 785/844/785
f 769/827/769 751/804/751 787/846/787
f 771/829/771 774/832/774 788/847/788 787/846/787
f 788/847/788 770/828/770 769/827/769 787/846/787
f 773/831/773 755/810/755 775/833/775 789/848/789
f 775/833/775 778/836/778 790/849/790 789/848/789
f 790/849/790 774/832/774 773/831/773 789/848/789
f 777/835/777 759/815/759 779/837/779 791/850/791
f 779/837/779 782/841/782 792/851/792 791/850/791
f 792/851/792 778/836/778 777/835/777 791/850/791
f 793/852/793 782/841/782 784/843/784 794/853/794
f 784/843/784 766/824/766 795/854/795 794/853/794
f 795/854/795 796/855/796 793/852/793 794/853/794
f 795/854/795 766/824/766 786/845/786 797/856/797
f 786/845/786 770/828/770 798/857/798 797/856/797
f 798/857/798 796/855/796 795/854/795 797/856/797
f 798/857/798 770/828/770 788/847/788 799/858/799
f 788/847/788 774/832/774 800/859/800 799/858/799
f 799/858/799 796/855/796 798/857/798
f 800/859/800 774/832/774 790/849/790 801/860/801
f 790/849/790 778/836/778 802/861/802 801/860/801
f 802/861/802 796/855/796 800/859/800 801/860/801
f 802/861/802 778/836/778 792/851/792 803/862/803
f 792/851/792 782/841/782 793/852/793 803/862/803
f 793/852/793 796/855/796 802/861/802 803/862/803
f 757/813/757 743/807/743 761/820/761
f 787/846/787 751/812/751 771/829/771
f 800/859/800 796/855/796 799/858/799
f 780/838/780 782/841/782 779/837/779
