# Blender v3.3.0 OBJ File: ''
# www.blender.org
o Dead.005
v 0.029544 0.596932 0.098727
v 0.007934 0.597350 0.030711
v 0.023035 0.539589 0.039301
v 0.041394 0.539204 0.097025
v -0.045931 0.570291 -0.016823
v -0.034121 0.512578 -0.018580
v -0.055016 0.710899 0.053372
v -0.108854 0.683836 0.005863
v -0.033413 0.710506 0.121396
v -0.199555 0.190572 0.102288
v -0.147121 0.132049 -0.051475
v -0.023927 0.227763 -0.008623
v -0.045048 0.285079 0.073353
v 0.126139 0.117390 0.045186
v 0.084201 0.175553 0.169291
v -0.275238 0.136590 0.310975
v -0.233160 0.194748 0.197465
v -0.081820 0.289246 0.205156
v -0.127730 0.231114 0.362251
v 0.045950 0.179932 0.278016
v -0.001737 0.121993 0.407666
v -0.087460 0.474029 -0.043663
v -0.038780 0.434414 -0.139430
v 0.019740 0.332024 -0.106085
v -0.029019 0.371709 -0.010288
v -0.170828 0.410475 0.046505
v -0.112383 0.308091 0.079941
v -0.247631 0.502985 -0.155092
v -0.198952 0.463362 -0.250883
v -0.331006 0.439418 -0.064921
v 0.178201 0.134207 0.088117
v 0.040686 0.017660 0.122818
v -0.014554 0.116942 0.006492
v 0.049398 0.203565 -0.015162
v -0.032272 0.021762 -0.157920
v 0.076179 0.126238 -0.185194
v 0.395744 0.165293 0.031934
v 0.270781 0.175820 0.064507
v 0.172518 0.259011 -0.056112
v 0.333849 0.264983 -0.109263
v 0.181945 0.173392 -0.212315
v 0.322663 0.169450 -0.249014
v 0.124520 0.490858 0.032449
v 0.029421 0.538957 0.043349
v 0.025186 0.450391 0.004267
v 0.105902 0.409518 -0.005025
v -0.067311 0.519940 0.089041
v -0.086032 0.438669 0.051615
v 0.077603 0.605496 0.185709
v -0.019101 0.586458 0.231372
v 0.172726 0.557406 0.174824
v -0.029822 0.260985 -0.007346
v 0.053979 0.229204 -0.027190
v 0.063909 0.147102 0.025865
v -0.019966 0.178952 0.045669
v -0.128190 0.210003 -0.011646
v -0.118378 0.127907 0.041410
v -0.044641 0.284182 -0.163149
v 0.039178 0.252393 -0.183009
v -0.143015 0.233189 -0.167453
v 0.057453 0.377093 0.029586
v 0.036750 0.337477 0.135001
v -0.028647 0.235087 0.118889
v -0.007877 0.274772 0.013422
v 0.113055 0.313538 -0.079908
v 0.047704 0.211154 -0.096129
v 0.241950 0.406048 0.093083
v 0.221255 0.366425 0.198522
v 0.297558 0.342482 -0.016414
v -0.031931 0.504593 -0.031745
v -0.055797 0.426094 -0.021989
v -0.060696 0.426780 0.008237
v 0.013593 0.625860 0.001184
v -0.018039 0.641891 -0.046546
v -0.091531 0.442490 -0.038301
v 0.094145 0.502428 -0.082737
v 0.047258 0.424134 -0.024444
v 0.048949 0.521508 -0.082463
v 0.042974 0.307896 -0.008770
v 0.022326 0.326681 0.012336
v -0.001044 0.324784 -0.007851
v -0.063133 0.552224 0.076996
v -0.094747 0.600323 -0.013354
v -0.057562 0.511756 -0.026107
v -0.030690 0.470884 0.050568
v -0.160656 0.581306 -0.097621
v -0.128282 0.500035 -0.124138
v -0.222968 0.666862 0.065050
v -0.288842 0.647824 -0.019196
v -0.191364 0.618772 0.155428
v 0.030982 0.597858 0.098263
v 0.042937 0.539750 0.096528
v 0.024431 0.540044 0.038442
v 0.009166 0.598204 0.029790
v -0.033020 0.512881 -0.019823
v -0.044975 0.570989 -0.018087
v -0.053950 0.712128 0.052510
v -0.108090 0.684913 0.004632
v -0.032133 0.711783 0.120983
v -0.200270 0.192416 0.101838
v -0.044924 0.287158 0.072995
v -0.023797 0.229747 -0.009226
v -0.147796 0.133767 -0.052204
v 0.085097 0.177357 0.169277
v 0.127107 0.119092 0.044893
v -0.276006 0.138461 0.311222
v -0.127775 0.233147 0.362759
v -0.081822 0.291366 0.205351
v -0.233921 0.196649 0.197505
v 0.046670 0.181765 0.278482
v -0.001102 0.123785 0.408320
v -0.086862 0.475913 -0.043149
v -0.027993 0.373082 -0.009515
v 0.021004 0.333372 -0.105778
v -0.037865 0.436203 -0.139412
v -0.170571 0.412184 0.047476
v -0.111702 0.309353 0.081110
v -0.247516 0.505101 -0.154908
v -0.198519 0.465391 -0.251171
v -0.331225 0.441372 -0.064283
v 0.177852 0.135846 0.089133
v 0.048606 0.205409 -0.014870
v -0.015523 0.118603 0.006904
v 0.040123 0.019074 0.123941
v 0.075286 0.127897 -0.185756
v -0.033403 0.023215 -0.158400
v 0.395967 0.167222 0.032616
v 0.333841 0.267116 -0.109307
v 0.172221 0.261108 -0.056013
v 0.270831 0.177700 0.065299
v 0.181520 0.175269 -0.212991
v 0.322442 0.171363 -0.249725
v 0.124853 0.492365 0.031308
v 0.106055 0.410562 -0.006480
v 0.024972 0.451491 0.002846
v 0.029269 0.540613 0.042302
v -0.086697 0.439762 0.050338
v -0.067899 0.521565 0.088126
v 0.077628 0.607492 0.185117
v -0.019540 0.588444 0.230941
v 0.173212 0.559244 0.174123
v -0.029828 0.262869 -0.006558
v -0.019893 0.180327 0.046950
v 0.064490 0.148452 0.027028
v 0.054555 0.230994 -0.026480
v -0.128764 0.211714 -0.010824
v -0.118829 0.129173 0.042684
v -0.044707 0.286298 -0.162941
v 0.039677 0.254423 -0.182863
v -0.143642 0.235143 -0.167207
v 0.056738 0.378977 0.029254
v -0.009075 0.276146 0.012958
v -0.029947 0.236435 0.118938
v 0.035865 0.339266 0.135233
v 0.112543 0.315248 -0.080772
v 0.046731 0.212417 -0.097068
v 0.241789 0.408164 0.092938
v 0.220916 0.368454 0.198917
v 0.297594 0.344436 -0.017088
v -0.030709 0.503856 -0.032738
v 0.015024 0.625345 0.000408
v -0.059161 0.425916 0.008219
v -0.054521 0.425289 -0.022877
v -0.016841 0.641478 -0.047675
v -0.091026 0.442049 -0.039864
v 0.094700 0.503494 -0.081394
v 0.049020 0.522788 -0.081123
v 0.047447 0.425056 -0.022943
v 0.022491 0.327561 0.013855
v 0.044145 0.308147 -0.007581
v -0.001942 0.325870 -0.006716
v -0.061947 0.553731 0.077069
v -0.029237 0.471928 0.050397
v -0.056224 0.512857 -0.026630
v -0.093759 0.601979 -0.013734
v -0.127183 0.501128 -0.125069
v -0.159893 0.582931 -0.098397
v -0.222385 0.668858 0.064944
v -0.288518 0.649810 -0.019719
v -0.190572 0.620610 0.155747
v -0.020004 -0.012012 0.000240
v -0.020882 -0.012012 0.008653
v -0.034361 0.258453 0.031884
v -0.033647 0.258453 0.025055
v -0.013152 -0.012012 0.012088
v -0.028086 0.258453 0.034673
v -0.007497 -0.012012 0.005798
v -0.023495 0.258453 0.029566
v -0.011732 -0.012012 -0.001525
v -0.026932 0.258453 0.023623
v -0.061252 0.424008 -0.020039
v -0.061588 0.423706 -0.024577
v -0.056885 0.424986 -0.018988
v -0.054521 0.425289 -0.022877
v -0.057428 0.424498 -0.026332
v -0.079881 0.557129 -0.016172
v -0.080114 0.556919 -0.019317
v -0.076855 0.557806 -0.015443
v -0.075217 0.558016 -0.018139
v -0.077231 0.557468 -0.020532
v 0.017811 -0.012012 -0.004343
v 0.011678 -0.012012 -0.010168
v 0.011562 0.162006 -0.008711
v 0.016541 0.162006 -0.003983
v 0.004243 -0.012012 -0.006135
v 0.005527 0.162006 -0.005437
v 0.005781 -0.012012 0.002183
v 0.006776 0.162006 0.001314
v 0.014167 -0.012012 0.003290
v 0.013583 0.162006 0.002213
v 0.022491 0.327561 0.013855
v 0.025795 0.327561 0.016994
v 0.018485 0.327561 0.016029
v 0.019314 0.327561 0.020510
v 0.023831 0.327561 0.021106
v 0.034568 0.462090 0.016958
v 0.036694 0.461410 0.019231
v 0.031736 0.462468 0.018322
v 0.032111 0.462021 0.021438
v 0.035176 0.461367 0.022000
v 0.035176 0.461367 0.022000
v 0.036694 0.461410 0.019231
v 0.027120 0.496052 0.022574
v 0.025396 0.495501 0.024415
v 0.034568 0.462090 0.016958
v 0.025886 0.496139 0.020333
v 0.031736 0.462468 0.018322
v 0.023398 0.495641 0.020789
v 0.032111 0.462021 0.021438
v 0.023095 0.495247 0.023311
v 0.017409 0.569284 0.035534
v 0.016199 0.568528 0.036686
v 0.016610 0.569571 0.033967
v 0.014906 0.568993 0.034151
v 0.014652 0.568348 0.035831
v -0.079561 0.074327 -0.111263
v -0.051458 0.132638 0.004750
v 0.002804 0.078576 0.018985
v 0.026320 0.007890 -0.073961
v -0.131715 0.061986 0.096909
v -0.047179 0.000470 0.126497
v -0.235233 0.068198 -0.168481
v -0.265227 0.138229 -0.057866
v -0.146563 0.156026 -0.022449
v -0.148148 0.092365 -0.135999
v -0.210045 0.082271 0.068653
v -0.308732 0.060778 0.031977
v -0.130959 0.277130 0.073072
v -0.075275 0.345551 0.012295
v -0.022978 0.272330 0.048252
v -0.070203 0.214220 0.099875
v -0.011356 0.343853 -0.075559
v 0.049436 0.281025 -0.048854
v -0.204017 0.363452 -0.088306
v -0.140101 0.361733 -0.176118
v -0.259731 0.295029 -0.027529
v -0.131216 0.278703 0.074140
v -0.070009 0.215478 0.101144
v -0.022518 0.273733 0.049300
v -0.075233 0.347376 0.013024
v 0.050197 0.282512 -0.048160
v -0.011011 0.345737 -0.075163
v -0.204450 0.365446 -0.087891
v -0.140228 0.363807 -0.176079
v -0.260433 0.296774 -0.026776
v 0.052384 0.488655 0.057968
v -0.022984 0.449378 0.092659
v -0.057053 0.390973 0.021368
v 0.018403 0.430303 -0.013288
v 0.141728 0.442457 0.011308
v 0.107770 0.384062 -0.060021
v 0.118999 0.455908 0.197691
v 0.043619 0.416617 0.232399
v 0.208349 0.409698 0.151028
v 0.052306 0.490695 0.057918
v 0.018046 0.432038 -0.013919
v -0.057853 0.392627 0.021004
v -0.023592 0.451284 0.092840
v 0.142158 0.444364 0.010978
v 0.107898 0.385708 -0.060858
v 0.119187 0.457963 0.198209
v 0.043288 0.418552 0.233131
v 0.209039 0.411632 0.151269
v -0.098843 0.024004 0.214589
v -0.181363 -0.052128 0.016546
v -0.017304 0.030326 -0.058279
v 0.033473 0.094273 0.038696
v 0.186130 -0.077015 -0.125687
v 0.253024 -0.005587 0.032753
v 0.009769 0.005463 0.500368
v -0.048642 0.041857 0.341313
v 0.113056 0.116700 0.205680
v 0.206367 0.085786 0.412695
v 0.310514 0.014438 0.177433
v 0.377536 -0.019384 0.357947
v -0.099998 0.025700 0.214583
v 0.033262 0.096126 0.038018
v -0.017727 0.032062 -0.059205
v -0.182724 -0.050582 0.016232
v 0.253916 -0.004010 0.031768
v 0.186850 -0.075571 -0.127011
v 0.009180 0.007271 0.501120
v 0.206754 0.087713 0.413056
v 0.113208 0.118665 0.205675
v -0.049408 0.043668 0.341844
v 0.311654 0.016113 0.177091
v 0.378755 -0.017718 0.357877
v 0.097553 0.007801 -0.183370
v 0.143351 -0.075455 -0.038640
v 0.020909 -0.008595 0.018598
v -0.007501 0.052965 -0.049951
v -0.143994 -0.080334 0.048431
v -0.180566 -0.005769 -0.066291
v 0.030476 0.030841 -0.405246
v 0.068075 0.037730 -0.279108
v -0.056565 0.092604 -0.176850
v -0.117417 0.097298 -0.340101
v -0.214378 0.028145 -0.175640
v -0.257083 0.025995 -0.318043
v 0.098542 0.008984 -0.183133
v -0.007252 0.054270 -0.049236
v 0.021296 -0.007418 0.019496
v 0.144468 -0.074432 -0.038177
v -0.181186 -0.004617 -0.065427
v -0.144513 -0.079329 0.049545
v 0.031089 0.032227 -0.405593
v -0.117556 0.098809 -0.340188
v -0.056544 0.094089 -0.176647
v 0.068809 0.039082 -0.279280
v -0.215142 0.029454 -0.175260
v -0.257892 0.027330 -0.317872
vt 0.295048 0.751597
vt 0.295048 0.663208
vt 0.231484 0.676597
vt 0.231136 0.751597
vt 0.295048 0.578768
vt 0.231136 0.578768
vt 0.439166 0.663208
vt 0.439166 0.578768
vt 0.439166 0.751597
vt 0.186328 0.987677
vt 0.322107 0.987677
vt 0.322107 0.883991
vt 0.251376 0.879401
vt 0.322107 0.751597
vt 0.212502 0.751597
vt 0.011695 0.987677
vt 0.101910 0.987677
vt 0.137267 0.871998
vt 0.011695 0.863181
vt 0.116137 0.751597
vt 0.011695 0.751597
vt 0.076543 0.652104
vt 0.076543 0.578768
vt 0.011695 0.578768
vt 0.011695 0.652104
vt 0.076543 0.751597
vt 0.011695 0.751597
vt 0.231136 0.652104
vt 0.231136 0.578768
vt 0.231136 0.751597
vt 0.186328 0.987677
vt 0.322107 0.987677
vt 0.322107 0.883991
vt 0.251376 0.879401
vt 0.322107 0.751597
vt 0.212502 0.751597
vt 0.011695 0.987677
vt 0.101910 0.987677
vt 0.137267 0.871998
vt 0.011695 0.863181
vt 0.116137 0.751597
vt 0.011695 0.751597
vt 0.295048 0.751597
vt 0.295048 0.663208
vt 0.231484 0.676597
vt 0.231136 0.751597
vt 0.295048 0.578768
vt 0.231136 0.578768
vt 0.439166 0.663208
vt 0.439166 0.578768
vt 0.439166 0.751597
vt 0.076543 0.652104
vt 0.076543 0.578768
vt 0.011695 0.578768
vt 0.011695 0.652104
vt 0.076543 0.751597
vt 0.011695 0.751597
vt 0.231136 0.652104
vt 0.231136 0.578768
vt 0.231136 0.751597
vt 0.076543 0.652104
vt 0.076543 0.578768
vt 0.011695 0.578768
vt 0.011695 0.652104
vt 0.076543 0.751597
vt 0.011695 0.751597
vt 0.231136 0.652104
vt 0.231136 0.578768
vt 0.231136 0.751597
vt 0.163428 0.424726
vt 0.029974 0.437886
vt 0.024073 0.473277
vt 0.373066 0.473277
vt 0.329048 0.399917
vt 0.024073 0.399917
vt 0.341108 0.487516
vt 0.198254 0.525861
vt 0.373066 0.556310
vt 0.031637 0.487516
vt 0.028035 0.525472
vt 0.028889 0.556310
vt 0.295048 0.751597
vt 0.295048 0.663208
vt 0.231484 0.676597
vt 0.231136 0.751597
vt 0.295048 0.578768
vt 0.231136 0.578768
vt 0.439166 0.663208
vt 0.439166 0.578768
vt 0.439166 0.751597
vt 0.295048 0.751597
vt 0.231136 0.751597
vt 0.231484 0.676597
vt 0.295048 0.663208
vt 0.231136 0.578768
vt 0.295048 0.578768
vt 0.439166 0.663208
vt 0.439166 0.578768
vt 0.439166 0.751597
vt 0.186328 0.987677
vt 0.251376 0.879401
vt 0.322107 0.883991
vt 0.322107 0.987677
vt 0.212502 0.751597
vt 0.322107 0.751597
vt 0.011695 0.987677
vt 0.011695 0.863181
vt 0.137267 0.871998
vt 0.101910 0.987677
vt 0.116137 0.751597
vt 0.011695 0.751597
vt 0.076543 0.652104
vt 0.011695 0.652104
vt 0.011695 0.578768
vt 0.076543 0.578768
vt 0.076543 0.751597
vt 0.011695 0.751597
vt 0.231136 0.652104
vt 0.231136 0.578768
vt 0.231136 0.751597
vt 0.186328 0.987677
vt 0.251376 0.879401
vt 0.322107 0.883991
vt 0.322107 0.987677
vt 0.212502 0.751597
vt 0.322107 0.751597
vt 0.011695 0.987677
vt 0.011695 0.863181
vt 0.137267 0.871998
vt 0.101910 0.987677
vt 0.116137 0.751597
vt 0.011695 0.751597
vt 0.295048 0.751597
vt 0.231136 0.751597
vt 0.231484 0.676597
vt 0.295048 0.663208
vt 0.231136 0.578768
vt 0.295048 0.578768
vt 0.439166 0.663208
vt 0.439166 0.578768
vt 0.439166 0.751597
vt 0.076543 0.652104
vt 0.011695 0.652104
vt 0.011695 0.578768
vt 0.076543 0.578768
vt 0.076543 0.751597
vt 0.011695 0.751597
vt 0.231136 0.652104
vt 0.231136 0.578768
vt 0.231136 0.751597
vt 0.076543 0.652104
vt 0.011695 0.652104
vt 0.011695 0.578768
vt 0.076543 0.578768
vt 0.076543 0.751597
vt 0.011695 0.751597
vt 0.231136 0.652104
vt 0.231136 0.578768
vt 0.231136 0.751597
vt 0.163428 0.424726
vt 0.373066 0.473277
vt 0.024073 0.473277
vt 0.029974 0.437886
vt 0.329048 0.399917
vt 0.024073 0.399917
vt 0.341108 0.487516
vt 0.373066 0.556310
vt 0.198254 0.525861
vt 0.028035 0.525472
vt 0.031637 0.487516
vt 0.028889 0.556310
vt 0.295048 0.751597
vt 0.231136 0.751597
vt 0.231484 0.676597
vt 0.295048 0.663208
vt 0.231136 0.578768
vt 0.295048 0.578768
vt 0.439166 0.663208
vt 0.439166 0.578768
vt 0.439166 0.751597
vt 0.322726 0.101270
vt 0.322747 0.093150
vt 0.412136 0.092363
vt 0.412628 0.100376
vt 0.322894 0.085005
vt 0.412258 0.084282
vt 0.323172 0.076860
vt 0.412986 0.076280
vt 0.323560 0.068740
vt 0.413609 0.068210
vt 0.322807 0.109372
vt 0.413014 0.108452
vt 0.523497 0.091682
vt 0.523682 0.100022
vt 0.523564 0.083232
vt 0.523887 0.074901
vt 0.524190 0.066542
vt 0.523847 0.108390
vt 0.613336 0.090391
vt 0.613115 0.097611
vt 0.613380 0.083148
vt 0.613244 0.075913
vt 0.613226 0.068652
vt 0.613012 0.104870
vt 0.322726 0.101270
vt 0.322747 0.093150
vt 0.412136 0.092363
vt 0.412628 0.100376
vt 0.322894 0.085005
vt 0.412258 0.084282
vt 0.323172 0.076860
vt 0.412986 0.076280
vt 0.323560 0.068740
vt 0.413609 0.068210
vt 0.322807 0.109372
vt 0.413014 0.108452
vt 0.523497 0.091682
vt 0.523682 0.100022
vt 0.523564 0.083232
vt 0.523887 0.074901
vt 0.524190 0.066542
vt 0.523847 0.108390
vt 0.613336 0.090391
vt 0.613115 0.097611
vt 0.613380 0.083148
vt 0.613244 0.075913
vt 0.613226 0.068652
vt 0.613012 0.104870
vt 0.412628 0.100376
vt 0.412136 0.092363
vt 0.523497 0.091682
vt 0.523682 0.100022
vt 0.412258 0.084282
vt 0.523564 0.083232
vt 0.412986 0.076280
vt 0.523887 0.074901
vt 0.413609 0.068210
vt 0.524190 0.066542
vt 0.413014 0.108452
vt 0.523847 0.108390
vt 0.613336 0.090391
vt 0.613115 0.097611
vt 0.613380 0.083148
vt 0.613244 0.075913
vt 0.613226 0.068652
vt 0.613012 0.104870
vt 0.186328 0.987677
vt 0.251376 0.879401
vt 0.322107 0.883991
vt 0.322107 0.987677
vt 0.212502 0.751597
vt 0.322107 0.751597
vt 0.011695 0.987677
vt 0.011695 0.863181
vt 0.137267 0.871998
vt 0.101910 0.987677
vt 0.116137 0.751597
vt 0.011695 0.751597
vt 0.295048 0.751597
vt 0.295048 0.663208
vt 0.231484 0.676597
vt 0.231136 0.751597
vt 0.295048 0.578768
vt 0.231136 0.578768
vt 0.439166 0.663208
vt 0.439166 0.578768
vt 0.439166 0.751597
vt 0.295048 0.751597
vt 0.231136 0.751597
vt 0.231484 0.676597
vt 0.295048 0.663208
vt 0.231136 0.578768
vt 0.295048 0.578768
vt 0.439166 0.663208
vt 0.439166 0.578768
vt 0.439166 0.751597
vt 0.076543 0.652104
vt 0.076543 0.578768
vt 0.011695 0.578768
vt 0.011695 0.652104
vt 0.076543 0.751597
vt 0.011695 0.751597
vt 0.231136 0.652104
vt 0.231136 0.578768
vt 0.231136 0.751597
vt 0.076543 0.652104
vt 0.011695 0.652104
vt 0.011695 0.578768
vt 0.076543 0.578768
vt 0.076543 0.751597
vt 0.011695 0.751597
vt 0.231136 0.652104
vt 0.231136 0.578768
vt 0.231136 0.751597
vt 0.186328 0.987677
vt 0.322107 0.987677
vt 0.322107 0.883991
vt 0.251376 0.879401
vt 0.322107 0.751597
vt 0.212502 0.751597
vt 0.011695 0.987677
vt 0.101910 0.987677
vt 0.137267 0.871998
vt 0.011695 0.863181
vt 0.116137 0.751597
vt 0.011695 0.751597
vt 0.186328 0.987677
vt 0.251376 0.879401
vt 0.322107 0.883991
vt 0.322107 0.987677
vt 0.212502 0.751597
vt 0.322107 0.751597
vt 0.011695 0.987677
vt 0.011695 0.863181
vt 0.137267 0.871998
vt 0.101910 0.987677
vt 0.116137 0.751597
vt 0.011695 0.751597
vt 0.186328 0.987677
vt 0.322107 0.987677
vt 0.322107 0.883991
vt 0.251376 0.879401
vt 0.322107 0.751597
vt 0.212502 0.751597
vt 0.011695 0.987677
vt 0.101910 0.987677
vt 0.137267 0.871998
vt 0.011695 0.863181
vt 0.116137 0.751597
vt 0.011695 0.751597
vt 0.186328 0.987677
vt 0.251376 0.879401
vt 0.322107 0.883991
vt 0.322107 0.987677
vt 0.212502 0.751597
vt 0.322107 0.751597
vt 0.011695 0.987677
vt 0.011695 0.863181
vt 0.137267 0.871998
vt 0.101910 0.987677
vt 0.116137 0.751597
vt 0.011695 0.751597
vn -0.8907 -0.3575 0.2809
vn -0.7564 -0.3357 0.5614
vn -0.8331 -0.1629 0.5286
vn -0.9341 -0.2003 0.2956
vn -0.5829 -0.2532 0.7721
vn -0.6561 -0.1087 0.7468
vn -0.6882 -0.4886 0.5363
vn -0.4742 -0.4176 0.7751
vn -0.8222 -0.5073 0.2581
vn 0.5103 -0.7972 0.3227
vn 0.4711 -0.7246 0.5030
vn -0.0972 -0.8926 0.4402
vn -0.0871 -0.9629 0.2555
vn -0.6694 -0.7164 0.1966
vn -0.6329 -0.7742 0.0102
vn 0.5506 -0.8169 -0.1720
vn 0.5495 -0.8350 -0.0273
vn 0.0060 -0.9898 -0.1420
vn 0.0391 -0.9265 -0.3742
vn -0.5120 -0.7926 -0.3312
vn -0.4481 -0.7682 -0.4572
vn -0.3944 -0.8540 -0.3393
vn -0.6316 -0.7753 -0.0004
vn -0.8222 -0.5340 -0.1971
vn -0.6681 -0.5464 -0.5050
vn -0.1682 -0.7258 -0.6670
vn -0.4363 -0.4945 -0.7518
vn -0.0872 -0.9875 -0.1313
vn -0.3192 -0.9220 0.2192
vn 0.1642 -0.8713 -0.4624
vn 0.2366 -0.6783 -0.6957
vn 0.3639 -0.5661 -0.7397
vn 0.6603 -0.6975 -0.2785
vn 0.5451 -0.8147 -0.1977
vn 0.7424 -0.5871 0.3229
vn 0.6105 -0.6909 0.3873
vn -0.1622 -0.8528 -0.4964
vn -0.0365 -0.8210 -0.5697
vn 0.2135 -0.9744 -0.0705
vn 0.0045 -0.9995 0.0312
vn 0.3039 -0.8196 0.4857
vn 0.1588 -0.8425 0.5148
vn -0.2235 -0.6137 0.7573
vn 0.0939 -0.7235 0.6839
vn 0.1339 -0.4221 0.8966
vn -0.0967 -0.3980 0.9123
vn 0.3986 -0.6902 0.6040
vn 0.4217 -0.4192 0.8040
vn -0.0090 -0.9047 0.4259
vn 0.3220 -0.8948 0.3092
vn -0.3477 -0.7988 0.4910
vn 0.0040 -0.8540 -0.5203
vn -0.4081 -0.7752 -0.4823
vn -0.3811 -0.5338 -0.7549
vn -0.0464 -0.5462 -0.8364
vn 0.4005 -0.7257 -0.5594
vn 0.2919 -0.4942 -0.8189
vn 0.0438 -0.9875 -0.1512
vn -0.3737 -0.9219 -0.1017
vn 0.4592 -0.8713 -0.1734
vn 0.4721 -0.8540 0.2188
vn 0.6078 -0.7753 -0.1719
vn 0.8448 -0.5340 -0.0347
vn 0.7806 -0.5464 0.3036
vn 0.3438 -0.7258 0.5958
vn 0.6248 -0.4945 0.6042
vn 0.1197 -0.9875 0.1025
vn 0.2472 -0.9220 -0.2979
vn -0.0318 -0.8713 0.4897
vn -0.7508 0.2880 0.5945
vn -0.7986 0.3152 0.5127
vn -0.9429 0.3314 -0.0334
vn -0.8507 0.1799 0.4939
vn -0.7330 0.1501 0.6635
vn -0.2660 0.1548 0.9515
vn -0.3243 -0.4327 -0.8412
vn -0.0890 -0.3509 -0.9322
vn -0.0672 -0.5098 -0.8576
vn -0.7361 -0.0637 -0.6739
vn -0.1236 -0.3212 -0.9389
vn 0.6150 -0.4114 -0.6727
vn -0.7879 -0.6137 -0.0509
vn -0.6463 -0.7235 0.2424
vn -0.8450 -0.4221 0.3284
vn -0.9111 -0.3980 0.1070
vn -0.5011 -0.6902 0.5220
vn -0.6912 -0.4192 0.5887
vn -0.4174 -0.9047 0.0852
vn -0.2305 -0.8948 0.3823
vn -0.5556 -0.7988 -0.2308
vn 0.8903 0.3577 -0.2818
vn 0.9337 0.2009 -0.2965
vn 0.8329 0.1635 -0.5287
vn 0.7563 0.3358 -0.5615
vn 0.6566 0.1093 -0.7463
vn 0.5835 0.2535 -0.7716
vn 0.6883 0.4883 -0.5365
vn 0.4750 0.4176 -0.7746
vn 0.8220 0.5071 -0.2593
vn -0.5091 0.7981 -0.3224
vn 0.0872 0.9629 -0.2553
vn 0.0972 0.8927 -0.4400
vn -0.4699 0.7255 -0.5028
vn 0.6319 0.7750 -0.0109
vn 0.6684 0.7172 -0.1973
vn -0.5496 0.8174 0.1725
vn -0.0391 0.9266 0.3740
vn -0.0059 0.9898 0.1420
vn -0.5484 0.8357 0.0276
vn 0.5111 0.7934 0.3308
vn 0.4472 0.7689 0.4570
vn 0.3943 0.8540 0.3393
vn 0.6675 0.5473 0.5048
vn 0.8215 0.5349 0.1975
vn 0.6310 0.7757 0.0012
vn 0.1685 0.7263 0.6664
vn 0.4361 0.4954 0.7512
vn 0.0877 0.9874 0.1318
vn 0.3192 0.9223 -0.2180
vn -0.1632 0.8716 0.4622
vn -0.2373 0.6790 0.6947
vn -0.5450 0.8148 0.1976
vn -0.6602 0.6976 0.2784
vn -0.3647 0.5669 0.7387
vn -0.6106 0.6915 -0.3860
vn -0.7425 0.5876 -0.3216
vn 0.1619 0.8534 0.4954
vn -0.0046 0.9995 -0.0311
vn -0.2136 0.9744 0.0705
vn 0.0360 0.8217 0.5687
vn -0.3040 0.8202 -0.4846
vn -0.1587 0.8432 -0.5137
vn 0.2230 0.6142 -0.7570
vn 0.0965 0.3990 -0.9118
vn -0.1338 0.4231 -0.8962
vn -0.0938 0.7236 -0.6838
vn -0.4211 0.4202 -0.8038
vn -0.3979 0.6905 -0.6041
vn 0.0087 0.9044 -0.4265
vn -0.3216 0.8947 -0.3101
vn 0.3467 0.7989 -0.4915
vn -0.0041 0.8540 0.5202
vn 0.0461 0.5473 0.8357
vn 0.3802 0.5349 0.7545
vn 0.4069 0.7757 0.4823
vn -0.3996 0.7263 0.5593
vn -0.2914 0.4954 0.8183
vn -0.0439 0.9874 0.1521
vn 0.3726 0.9223 0.1027
vn -0.4582 0.8716 0.1742
vn -0.4720 0.8540 -0.2189
vn -0.7800 0.5473 -0.3035
vn -0.8442 0.5349 0.0342
vn -0.6074 0.7757 0.1710
vn -0.3440 0.7263 -0.5951
vn -0.6246 0.4954 -0.6037
vn -0.1203 0.9874 -0.1029
vn -0.2476 0.9223 0.2968
vn 0.0309 0.8716 -0.4892
vn 0.7508 -0.2870 -0.5949
vn 0.8508 -0.1803 -0.4936
vn 0.9433 -0.3309 0.0256
vn 0.7984 -0.3141 -0.5137
vn 0.7327 -0.1505 -0.6637
vn 0.2724 -0.1564 -0.9494
vn 0.3242 0.4321 0.8415
vn 0.0665 0.5094 0.8580
vn 0.0898 0.3519 0.9317
vn 0.1247 0.3223 0.9384
vn 0.7297 0.0688 0.6803
vn -0.6062 0.4130 0.6797
vn 0.7875 0.6142 0.0504
vn 0.9107 0.3990 -0.1070
vn 0.8446 0.4231 -0.3282
vn 0.6462 0.7236 -0.2424
vn 0.6911 0.4202 -0.5881
vn 0.5014 0.6905 -0.5214
vn 0.4179 0.9044 -0.0856
vn 0.2315 0.8947 -0.3821
vn 0.5559 0.7989 0.2297
vn -0.7178 0.0276 -0.6957
vn -0.8720 -0.0849 0.4821
vn -0.8108 -0.0025 0.5853
vn -0.7843 -0.1491 -0.6022
vn 0.2350 -0.0680 0.9696
vn 0.2342 0.1268 0.9639
vn 0.9962 0.0528 0.0699
vn 0.9825 0.1291 0.1345
vn 0.4081 0.1072 -0.9066
vn 0.4279 -0.0406 -0.9029
vn -0.8234 -0.0525 0.5651
vn -0.7775 -0.2064 -0.5941
vn 0.3326 0.1922 0.9233
vn 0.9827 0.1587 -0.0954
vn 0.2707 -0.0663 -0.9604
vn -0.7209 -0.1207 0.6824
vn -0.8559 -0.0990 -0.5075
vn 0.3939 0.0347 0.9185
vn 0.9866 0.1556 -0.0488
vn 0.2474 0.0790 -0.9657
vn 0.9832 0.0076 -0.1821
vn 0.1307 0.0084 -0.9914
vn 0.1168 0.0667 -0.9909
vn 0.9784 -0.0088 -0.2068
vn -0.9023 0.0084 -0.4310
vn -0.8943 0.0667 -0.4424
vn -0.6888 0.0076 0.7249
vn -0.7068 -0.0088 0.7074
vn 0.4768 0.0070 0.8790
vn 0.4759 -0.0626 0.8773
vn 0.1412 0.0690 -0.9876
vn 0.9865 -0.0582 -0.1533
vn -0.9019 0.1096 -0.4179
vn -0.6875 0.0125 0.7261
vn 0.4530 -0.0845 0.8875
vn 0.1086 0.0131 -0.9940
vn 0.9765 -0.0761 -0.2019
vn -0.8804 0.0944 -0.4648
vn -0.7378 0.0657 0.6718
vn 0.4422 -0.0435 0.8959
vn 0.4555 0.0632 0.8880
vn 0.9631 0.2638 0.0537
vn 0.9791 0.1890 0.0754
vn 0.2218 -0.0668 0.9728
vn 0.4492 0.2015 -0.8704
vn 0.3358 0.1885 -0.9229
vn -0.7582 -0.1414 -0.6365
vn -0.7623 -0.0565 -0.6447
vn -0.7140 -0.2325 0.6604
vn -0.8491 -0.2129 0.4834
vn 0.9894 0.1155 0.0877
vn 0.2433 -0.1309 0.9611
vn 0.4530 0.2178 -0.8645
vn -0.6646 0.0589 -0.7449
vn -0.8834 -0.1764 0.4341
vn 0.4731 0.7533 -0.4568
vn 0.4229 0.8959 0.1363
vn 0.5871 0.7970 0.1420
vn 0.6282 0.6558 -0.4186
vn 0.1547 0.7316 0.6640
vn 0.3207 0.6473 0.6915
vn -0.0059 0.8585 -0.5128
vn -0.1924 0.9813 0.0096
vn 0.0449 0.9979 0.0463
vn 0.1435 0.8510 -0.5052
vn -0.1762 0.8115 0.5572
vn -0.3108 0.8117 0.4946
vn 0.0397 -0.6815 -0.7307
vn -0.1463 -0.8542 -0.4989
vn -0.3824 -0.6295 -0.6763
vn -0.2105 -0.5480 -0.8096
vn -0.3684 -0.8879 -0.2756
vn -0.5744 -0.6843 -0.4492
vn 0.1205 -0.9393 -0.3214
vn -0.0977 -0.9939 -0.0517
vn 0.3291 -0.7626 -0.5569
vn -0.0395 0.6821 0.7302
vn 0.2100 0.5489 0.8091
vn 0.3818 0.6303 0.6760
vn 0.1462 0.8543 0.4988
vn 0.5734 0.6850 0.4493
vn 0.3678 0.8880 0.2760
vn -0.1199 0.9392 0.3218
vn 0.0978 0.9938 0.0527
vn -0.3282 0.7631 0.5568
vn 0.0869 -0.9822 0.1663
vn 0.4698 -0.8825 0.0215
vn 0.5548 -0.7536 0.3524
vn 0.2651 -0.8042 0.5320
vn -0.2620 -0.8881 0.3776
vn -0.0544 -0.7597 0.6480
vn -0.0825 -0.9783 -0.1900
vn 0.3005 -0.8868 -0.3511
vn -0.4558 -0.8901 0.0087
vn -0.0868 0.9823 -0.1663
vn -0.2645 0.8050 -0.5311
vn -0.5538 0.7546 -0.3520
vn -0.4686 0.8831 -0.0218
vn 0.2613 0.8886 -0.3770
vn 0.0542 0.7606 -0.6469
vn 0.0823 0.9785 0.1891
vn -0.2998 0.8875 0.3500
vn 0.4546 0.8907 -0.0089
vn 0.4574 -0.8890 0.0222
vn 0.5470 -0.8246 0.1444
vn 0.1664 -0.9093 0.3813
vn 0.0850 -0.9535 0.2893
vn -0.2890 -0.7843 0.5489
vn -0.3537 -0.8411 0.4093
vn 0.2363 -0.9335 -0.2696
vn 0.3041 -0.9348 -0.1833
vn -0.0567 -0.9980 0.0288
vn -0.1472 -0.9828 -0.1116
vn -0.4480 -0.8798 0.1588
vn -0.4807 -0.8753 0.0527
vn -0.4564 0.8895 -0.0228
vn -0.0848 0.9535 -0.2892
vn -0.1663 0.9094 -0.3812
vn -0.5459 0.8252 -0.1449
vn 0.3527 0.8416 -0.4091
vn 0.2880 0.7849 -0.5486
vn -0.2354 0.9339 0.2692
vn 0.1471 0.9828 0.1115
vn 0.0567 0.9980 -0.0288
vn -0.3033 0.9352 0.1828
vn 0.4470 0.8803 -0.1587
vn 0.4798 0.8758 -0.0524
vn -0.5336 -0.8278 -0.1732
vn -0.6075 -0.7392 -0.2906
vn -0.2196 -0.8298 -0.5131
vn -0.1496 -0.8936 -0.4232
vn 0.2566 -0.7301 -0.6333
vn 0.3052 -0.8110 -0.4992
vn -0.3398 -0.9325 0.1227
vn -0.4008 -0.9156 0.0330
vn -0.0324 -0.9861 -0.1631
vn 0.0484 -0.9987 -0.0167
vn 0.3766 -0.8917 -0.2512
vn 0.4016 -0.9045 -0.1436
vn 0.5326 0.8284 0.1738
vn 0.1494 0.8937 0.4231
vn 0.2195 0.8299 0.5129
vn 0.6064 0.7399 0.2911
vn -0.3041 0.8114 0.4991
vn -0.2555 0.7306 0.6332
vn 0.3389 0.9328 -0.1223
vn -0.0483 0.9987 0.0168
vn 0.0324 0.9861 0.1632
vn 0.4000 0.9159 -0.0325
vn -0.3756 0.8921 0.2511
vn -0.4007 0.9049 0.1435
s 1
f 1/1/1 2/2/2 3/3/3 4/4/4
f 2/2/2 5/5/5 6/6/6 3/3/3
f 7/7/7 8/8/8 5/5/5 2/2/2
f 9/9/9 7/7/7 2/2/2 1/1/1
s 2
f 10/10/10 11/11/11 12/12/12 13/13/13
f 12/12/12 14/14/14 15/15/15 13/13/13
f 16/16/16 17/17/17 18/18/18 19/19/19
f 20/20/20 21/21/21 19/19/19 18/18/18
f 15/15/15 20/20/20 18/18/18 13/13/13
f 17/17/17 10/10/10 13/13/13 18/18/18
s 3
f 22/22/22 23/23/23 24/24/24 25/25/25
f 26/26/26 22/22/22 25/25/25 27/27/27
f 28/28/28 29/29/29 23/23/23 22/22/22
f 30/30/30 28/28/28 22/22/22 26/26/26
s 4
f 31/31/31 32/32/32 33/33/33 34/34/34
f 33/33/33 35/35/35 36/36/36 34/34/34
f 37/37/37 38/38/38 39/39/39 40/40/40
f 41/41/41 42/42/42 40/40/40 39/39/39
f 36/36/36 41/41/41 39/39/39 34/34/34
f 38/38/38 31/31/31 34/34/34 39/39/39
s 5
f 43/43/43 44/44/44 45/45/45 46/46/46
f 44/44/44 47/47/47 48/48/48 45/45/45
f 49/49/49 50/50/50 47/47/47 44/44/44
f 51/51/51 49/49/49 44/44/44 43/43/43
s 6
f 52/52/52 53/53/53 54/54/54 55/55/55
f 56/56/56 52/52/52 55/55/55 57/57/57
f 58/58/58 59/59/59 53/53/53 52/52/52
f 60/60/60 58/58/58 52/52/52 56/56/56
s 7
f 61/61/61 62/62/62 63/63/63 64/64/64
f 65/65/65 61/61/61 64/64/64 66/66/66
f 67/67/67 68/68/68 62/62/62 61/61/61
f 69/69/69 67/67/67 61/61/61 65/65/65
s 8
f 70/70/70 71/71/71 72/72/72 73/73/73
f 74/74/74 75/75/75 71/71/71 70/70/70
f 74/74/74 70/70/70 73/73/73
s 9
f 76/76/76 77/77/77 78/78/78
f 76/76/76 79/79/79 80/80/80 77/77/77
f 81/81/81 78/78/78 77/77/77 80/80/80
s 10
f 82/82/82 83/83/83 84/84/84 85/85/85
f 83/83/83 86/86/86 87/87/87 84/84/84
f 88/88/88 89/89/89 86/86/86 83/83/83
f 90/90/90 88/88/88 83/83/83 82/82/82
s 11
f 91/91/91 92/92/92 93/93/93 94/94/94
f 94/94/94 93/93/93 95/95/95 96/96/96
f 97/97/97 94/94/94 96/96/96 98/98/98
f 99/99/99 91/91/91 94/94/94 97/97/97
s 12
f 100/100/100 101/101/101 102/102/102 103/103/103
f 102/102/102 101/101/101 104/104/104 105/105/105
f 106/106/106 107/107/107 108/108/108 109/109/109
f 110/110/110 108/108/108 107/107/107 111/111/111
f 104/104/104 101/101/101 108/108/108 110/110/110
f 109/109/109 108/108/108 101/101/101 100/100/100
s 13
f 112/112/112 113/113/113 114/114/114 115/115/115
f 116/116/116 117/117/117 113/113/113 112/112/112
f 118/118/118 112/112/112 115/115/115 119/119/119
f 120/120/120 116/116/116 112/112/112 118/118/118
s 14
f 121/121/121 122/122/122 123/123/123 124/124/124
f 123/123/123 122/122/122 125/125/125 126/126/126
f 127/127/127 128/128/128 129/129/129 130/130/130
f 131/131/131 129/129/129 128/128/128 132/132/132
f 125/125/125 122/122/122 129/129/129 131/131/131
f 130/130/130 129/129/129 122/122/122 121/121/121
s 15
f 133/133/133 134/134/134 135/135/135 136/136/136
f 136/136/136 135/135/135 137/137/137 138/138/138
f 139/139/139 136/136/136 138/138/138 140/140/140
f 141/141/141 133/133/133 136/136/136 139/139/139
s 16
f 142/142/142 143/143/143 144/144/144 145/145/145
f 146/146/146 147/147/147 143/143/143 142/142/142
f 148/148/148 142/142/142 145/145/145 149/149/149
f 150/150/150 146/146/146 142/142/142 148/148/148
s 17
f 151/151/151 152/152/152 153/153/153 154/154/154
f 155/155/155 156/156/156 152/152/152 151/151/151
f 157/157/157 151/151/151 154/154/154 158/158/158
f 159/159/159 155/155/155 151/151/151 157/157/157
s 18
f 160/160/160 161/161/161 162/162/162 163/163/163
f 164/164/164 160/160/160 163/163/163 165/165/165
f 164/164/164 161/161/161 160/160/160
s 19
f 166/166/166 167/167/167 168/168/168
f 166/166/166 168/168/168 169/169/169 170/170/170
f 171/171/171 169/169/169 168/168/168 167/167/167
s 20
f 172/172/172 173/173/173 174/174/174 175/175/175
f 175/175/175 174/174/174 176/176/176 177/177/177
f 178/178/178 175/175/175 177/177/177 179/179/179
f 180/180/180 172/172/172 175/175/175 178/178/178
s 21
f 181/181/181 182/182/182 183/183/183 184/184/184
f 182/182/182 185/185/185 186/186/186 183/183/183
f 185/185/185 187/187/187 188/188/188 186/186/186
f 187/187/187 189/189/189 190/190/190 188/188/188
f 189/191/189 181/181/181 184/184/184 190/192/190
f 184/184/184 183/183/183 191/193/191 192/194/192
f 183/183/183 186/186/186 193/195/193 191/193/191
f 186/186/186 188/188/188 194/196/194 193/195/193
f 188/188/188 190/190/190 195/197/195 194/196/194
f 190/192/190 184/184/184 192/194/192 195/198/195
f 192/194/192 191/193/191 196/199/196 197/200/197
f 191/193/191 193/195/193 198/201/198 196/199/196
f 193/195/193 194/196/194 199/202/199 198/201/198
f 194/196/194 195/197/195 200/203/200 199/202/199
f 195/198/195 192/194/192 197/200/197 200/204/200
s 22
f 201/205/201 202/206/202 203/207/203 204/208/204
f 202/206/202 205/209/205 206/210/206 203/207/203
f 205/209/205 207/211/207 208/212/208 206/210/206
f 207/211/207 209/213/209 210/214/210 208/212/208
f 209/215/209 201/205/201 204/208/204 210/216/210
f 204/208/204 203/207/203 211/217/211 212/218/212
f 203/207/203 206/210/206 213/219/213 211/217/211
f 206/210/206 208/212/208 214/220/214 213/219/213
f 208/212/208 210/214/210 215/221/215 214/220/214
f 210/216/210 204/208/204 212/218/212 215/222/215
f 212/218/212 211/217/211 216/223/216 217/224/217
f 211/217/211 213/219/213 218/225/218 216/223/216
f 213/219/213 214/220/214 219/226/219 218/225/218
f 214/220/214 215/221/215 220/227/220 219/226/219
f 215/222/215 212/218/212 217/224/217 220/228/220
s 23
f 221/229/221 222/230/222 223/231/223 224/232/224
f 222/230/222 225/233/225 226/234/226 223/231/223
f 225/233/225 227/235/227 228/236/228 226/234/226
f 227/235/227 229/237/229 230/238/230 228/236/228
f 229/239/229 221/229/221 224/232/224 230/240/230
f 224/232/224 223/231/223 231/241/231 232/242/232
f 223/231/223 226/234/226 233/243/233 231/241/231
f 226/234/226 228/236/228 234/244/234 233/243/233
f 228/236/228 230/238/230 235/245/235 234/244/234
f 230/240/230 224/232/224 232/242/232 235/246/235
s 24
f 236/247/236 237/248/237 238/249/238 239/250/239
f 238/249/238 237/248/237 240/251/240 241/252/241
f 242/253/242 243/254/243 244/255/244 245/256/245
f 246/257/246 244/255/244 243/254/243 247/258/247
f 240/251/240 237/248/237 244/255/244 246/257/246
f 245/256/245 244/255/244 237/248/237 236/247/236
s 25
f 248/259/248 249/260/249 250/261/250 251/262/251
f 249/260/249 252/263/252 253/264/253 250/261/250
f 254/265/254 255/266/255 252/263/252 249/260/249
f 256/267/256 254/265/254 249/260/249 248/259/248
s 26
f 257/268/257 258/269/258 259/270/259 260/271/260
f 260/271/260 259/270/259 261/272/261 262/273/262
f 263/274/263 260/271/260 262/273/262 264/275/264
f 265/276/265 257/268/257 260/271/260 263/274/263
s 27
f 266/277/266 267/278/267 268/279/268 269/280/269
f 270/281/270 266/277/266 269/280/269 271/282/271
f 272/283/272 273/284/273 267/278/267 266/277/266
f 274/285/274 272/283/272 266/277/266 270/281/270
s 28
f 275/286/275 276/287/276 277/288/277 278/289/278
f 279/290/279 280/291/280 276/287/276 275/286/275
f 281/292/281 275/286/275 278/289/278 282/293/282
f 283/294/283 279/290/279 275/286/275 281/292/281
s 29
f 284/295/284 285/296/285 286/297/286 287/298/287
f 286/297/286 288/299/288 289/300/289 287/298/287
f 290/301/290 291/302/291 292/303/292 293/304/293
f 294/305/294 295/306/295 293/304/293 292/303/292
f 289/300/289 294/305/294 292/303/292 287/298/287
f 291/302/291 284/295/284 287/298/287 292/303/292
s 30
f 296/307/296 297/308/297 298/309/298 299/310/299
f 298/309/298 297/308/297 300/311/300 301/312/301
f 302/313/302 303/314/303 304/315/304 305/316/305
f 306/317/306 304/315/304 303/314/303 307/318/307
f 300/311/300 297/308/297 304/315/304 306/317/306
f 305/316/305 304/315/304 297/308/297 296/307/296
s 31
f 308/319/308 309/320/309 310/321/310 311/322/311
f 310/321/310 312/323/312 313/324/313 311/322/311
f 314/325/314 315/326/315 316/327/316 317/328/317
f 318/329/318 319/330/319 317/328/317 316/327/316
f 313/324/313 318/329/318 316/327/316 311/322/311
f 315/326/315 308/319/308 311/322/311 316/327/316
s 32
f 320/331/320 321/332/321 322/333/322 323/334/323
f 322/333/322 321/332/321 324/335/324 325/336/325
f 326/337/326 327/338/327 328/339/328 329/340/329
f 330/341/330 328/339/328 327/338/327 331/342/331
f 324/335/324 321/332/321 328/339/328 330/341/330
f 329/340/329 328/339/328 321/332/321 320/331/320
