# Blender v3.3.0 OBJ File: ''
# www.blender.org
o Stage0.005
v 0.025011 -0.027735 -0.012467
v 0.000000 -0.033904 -0.000000
v -0.009554 -0.028841 -0.020173
v 0.011031 -0.026942 -0.023293
v -0.016253 -0.015163 -0.034320
v 0.015458 -0.017825 -0.032640
v 0.042552 -0.015163 -0.021211
v -0.030916 -0.028841 -0.000000
v -0.028881 -0.026942 -0.014396
v -0.052597 -0.015163 -0.000000
v -0.040469 -0.017825 -0.020173
v -0.009554 -0.028841 0.020173
v -0.028881 -0.026942 0.014396
v -0.016253 -0.015163 0.034320
v -0.040469 -0.017825 0.020173
v 0.025011 -0.027735 0.012467
v 0.011031 -0.026942 0.023293
v 0.042552 -0.015163 0.021211
v 0.015458 -0.017825 0.032640
v 0.035699 -0.026942 -0.000000
v 0.050023 -0.017825 -0.000000
v 0.034565 0.000000 -0.032640
v 0.017849 -0.006360 -0.037690
v 0.000000 0.000000 -0.040345
v 0.016253 0.015163 -0.034320
v -0.034565 0.000000 -0.032640
v -0.046730 -0.006360 -0.023293
v -0.053563 0.000000 -0.012467
v -0.042552 0.015163 -0.021211
v -0.053563 -0.000000 0.012467
v -0.046730 -0.006360 0.023293
v -0.034565 -0.000000 0.032640
v -0.042552 0.015163 0.021211
v 0.000000 -0.000000 0.040345
v 0.017849 -0.006360 0.037690
v 0.034565 -0.000000 0.032640
v 0.016253 0.015163 0.034320
v 0.053563 -0.000000 0.012467
v 0.057761 -0.006360 -0.000000
v 0.053563 0.000000 -0.012467
v 0.052597 0.015163 0.000000
v 0.046730 0.006360 -0.023293
v 0.040469 0.017825 -0.020173
v -0.017849 0.006360 -0.037690
v -0.015458 0.017825 -0.032640
v -0.057761 0.006360 0.000000
v -0.050023 0.017825 0.000000
v -0.017849 0.006360 0.037690
v -0.015458 0.017825 0.032640
v 0.046730 0.006360 0.023293
v 0.040469 0.017825 0.020173
v 0.030916 0.028841 0.000000
v 0.028881 0.026942 -0.014396
v 0.009554 0.028841 -0.020173
v 0.000000 0.033904 0.000000
v -0.011031 0.026942 -0.023293
v -0.025011 0.027735 -0.012467
v -0.035699 0.026942 0.000000
v -0.025011 0.027735 0.012467
v -0.011031 0.026942 0.023293
v 0.009554 0.028841 0.020173
v 0.028881 0.026942 0.014396
v -0.003642 0.028625 0.008871
v 0.000530 0.028625 0.010656
v -0.010077 0.076467 0.017483
v -0.013007 0.076380 0.016807
v 0.003517 0.028625 0.007240
v -0.008560 0.076750 0.014931
v 0.001191 0.028625 0.003344
v -0.010553 0.076837 0.012679
v -0.003234 0.028625 0.004352
v -0.013302 0.076608 0.013839
v -0.011277 0.114936 0.029999
v -0.013308 0.114875 0.029531
v -0.010226 0.115132 0.028231
v -0.011607 0.115192 0.026670
v -0.013512 0.115034 0.027474
v -0.004738 0.028625 -0.007704
v -0.005168 0.028625 -0.002131
v -0.003380 0.098650 -0.003216
v -0.003129 0.098650 -0.006482
v 0.000000 0.028625 0.000000
v -0.000352 0.098650 -0.001967
v 0.003624 0.028625 -0.004257
v 0.001771 0.098650 -0.004461
v 0.000695 0.028625 -0.009018
v 0.000055 0.098650 -0.007251
v 0.003315 0.159450 -0.018055
v 0.003480 0.159450 -0.020205
v 0.005309 0.159450 -0.017232
v 0.006707 0.159450 -0.018875
v 0.005577 0.159450 -0.020712
v -0.033902 0.138302 0.049778
v 0.012097 0.096960 0.001420
v -0.040226 0.035535 -0.020686
v -0.086225 0.076877 0.027671
v 0.052235 0.149262 0.097494
v 0.098234 0.107920 0.049137
v -0.091566 0.119801 0.183305
v -0.143888 0.058376 0.161198
v -0.005428 0.130761 0.231021
v 0.116901 0.083348 0.062805
v 0.020730 0.124040 -0.014583
v -0.026987 0.073261 0.001619
v 0.014418 0.015040 0.088705
v 0.040583 0.078698 -0.141737
v -0.040292 0.017462 -0.121382
v 0.279199 0.101702 0.020752
v 0.232971 0.160136 -0.084852
v 0.112711 0.156622 -0.045197
v 0.186086 0.107831 0.045070
v 0.119630 0.106409 -0.162003
v 0.224489 0.104124 -0.189336
v -0.086318 0.147901 -0.022526
v -0.058301 0.102353 0.025421
v 0.011427 0.139321 0.003476
v -0.004120 0.191479 -0.048396
v 0.113972 0.133995 -0.045185
v 0.085955 0.179542 -0.093132
v -0.061470 0.196849 -0.185918
v 0.028605 0.184912 -0.230655
v -0.143668 0.153270 -0.160049
v -0.033902 0.136951 0.049778
v -0.086225 0.075526 0.027671
v -0.040226 0.034184 -0.020686
v 0.012097 0.095609 0.001420
v 0.052235 0.147911 0.097494
v 0.098234 0.106569 0.049137
v -0.091566 0.118450 0.183305
v -0.143888 0.057025 0.161198
v -0.005428 0.129410 0.231021
v 0.116901 0.081997 0.062805
v 0.014418 0.013689 0.088705
v -0.026987 0.071910 0.001619
v 0.020730 0.122689 -0.014583
v -0.040292 0.016111 -0.121382
v 0.040583 0.077347 -0.141737
v 0.279199 0.100351 0.020752
v 0.186086 0.106480 0.045070
v 0.112711 0.155271 -0.045197
v 0.232971 0.158785 -0.084852
v 0.119630 0.105058 -0.162003
v 0.224489 0.102773 -0.189336
v -0.086318 0.146550 -0.022526
v -0.004120 0.190128 -0.048396
v 0.011427 0.137970 0.003476
v -0.058301 0.101002 0.025421
v 0.085955 0.178191 -0.093132
v 0.113972 0.132644 -0.045185
v -0.061470 0.195498 -0.185918
v 0.028605 0.183561 -0.230655
v -0.143668 0.151919 -0.160049
vt 0.373161 0.190306
vt 0.364378 0.192686
vt 0.361023 0.189050
vt 0.368252 0.188381
vt 0.358670 0.185186
vt 0.369806 0.185833
vt 0.379321 0.186732
vt 0.353521 0.192686
vt 0.354236 0.189802
vt 0.342134 0.192686
vt 0.350166 0.187467
vt 0.353521 0.149007
vt 0.364378 0.149007
vt 0.361023 0.152644
vt 0.354236 0.151892
vt 0.358670 0.156507
vt 0.350166 0.154226
vt 0.342134 0.149007
vt 0.373161 0.151387
vt 0.368252 0.153312
vt 0.379321 0.154961
vt 0.369806 0.155860
vt 0.376914 0.192686
vt 0.381945 0.192686
vt 0.381945 0.149007
vt 0.376914 0.149007
vt 0.376516 0.181767
vt 0.370646 0.183170
vt 0.364378 0.181767
vt 0.370086 0.178347
vt 0.352240 0.181767
vt 0.347968 0.183990
vt 0.344738 0.181767
vt 0.349435 0.176801
vt 0.344738 0.159927
vt 0.347968 0.157704
vt 0.352240 0.159927
vt 0.349435 0.164893
vt 0.364378 0.159927
vt 0.370646 0.158523
vt 0.376516 0.159927
vt 0.370086 0.163347
vt 0.383447 0.159776
vt 0.385718 0.149007
vt 0.384018 0.181767
vt 0.385718 0.192686
vt 0.385718 0.170847
vt 0.380788 0.179543
vt 0.378590 0.176066
vt 0.358110 0.180363
vt 0.358949 0.177700
vt 0.342134 0.170847
vt 0.346811 0.170847
vt 0.358110 0.161331
vt 0.358949 0.163994
vt 0.380788 0.162150
vt 0.378590 0.165628
vt 0.375235 0.170847
vt 0.374520 0.173731
vt 0.367733 0.174483
vt 0.364378 0.170847
vt 0.360504 0.175152
vt 0.355595 0.173227
vt 0.351842 0.170847
vt 0.355595 0.168467
vt 0.360504 0.166542
vt 0.367733 0.167210
vt 0.374520 0.167962
vt 0.317668 0.041652
vt 0.316059 0.034806
vt 0.681378 0.033174
vt 0.681950 0.040400
vt 0.316461 0.027891
vt 0.681635 0.025843
vt 0.318853 0.021034
vt 0.682729 0.018604
vt 0.320896 0.014121
vt 0.683760 0.011340
vt 0.318932 0.048553
vt 0.682458 0.047649
vt 0.976108 0.031272
vt 0.975341 0.037816
vt 0.976291 0.024718
vt 0.975886 0.018185
vt 0.975870 0.011618
vt 0.974963 0.044388
vt 0.022760 0.044827
vt 0.022812 0.036872
vt 0.275717 0.034806
vt 0.277327 0.041652
vt 0.023278 0.028890
vt 0.276120 0.027891
vt 0.024172 0.020908
vt 0.278511 0.021034
vt 0.025425 0.012949
vt 0.280555 0.014121
vt 0.023046 0.052765
vt 0.278591 0.048553
vt 0.977182 0.033174
vt 0.977754 0.040400
vt 0.977440 0.025843
vt 0.978533 0.018604
vt 0.979564 0.011340
vt 0.978262 0.047649
vt 0.896429 0.883736
vt 0.985791 0.883736
vt 0.985791 0.987677
vt 0.896429 0.987677
vt 0.896429 0.742723
vt 0.985791 0.742723
vt 0.683397 0.883736
vt 0.683397 0.987677
vt 0.683397 0.742723
vt 0.745144 0.408120
vt 0.655505 0.561582
vt 0.558036 0.555077
vt 0.558036 0.408120
vt 0.709075 0.742723
vt 0.558036 0.742723
vt 0.985791 0.408120
vt 0.985791 0.584571
vt 0.812750 0.572075
vt 0.861473 0.408120
vt 0.841868 0.742723
vt 0.985791 0.742723
vt 0.595325 0.742723
vt 0.683397 0.742723
vt 0.682917 0.849022
vt 0.595325 0.867997
vt 0.683397 0.987677
vt 0.595325 0.987677
vt 0.396726 0.867997
vt 0.396726 0.987677
vt 0.396726 0.742723
vt 0.896429 0.883736
vt 0.896429 0.987677
vt 0.985791 0.987677
vt 0.985791 0.883736
vt 0.896429 0.742723
vt 0.985791 0.742723
vt 0.683397 0.883736
vt 0.683397 0.987677
vt 0.683397 0.742723
vt 0.745144 0.408120
vt 0.558036 0.408120
vt 0.558036 0.555077
vt 0.655505 0.561582
vt 0.558036 0.742723
vt 0.709075 0.742723
vt 0.985791 0.408120
vt 0.861473 0.408120
vt 0.812750 0.572075
vt 0.985791 0.584571
vt 0.841868 0.742723
vt 0.985791 0.742723
vt 0.595325 0.742723
vt 0.595325 0.867997
vt 0.682917 0.849022
vt 0.683397 0.742723
vt 0.595325 0.987677
vt 0.683397 0.987677
vt 0.396726 0.867997
vt 0.396726 0.987677
vt 0.396726 0.742723
vn 0.2829 -0.9060 -0.3148
vn 0.0153 -0.9999 -0.0000
vn -0.0977 -0.8876 -0.4502
vn 0.1202 -0.8587 -0.4981
vn -0.1980 -0.5040 -0.8407
vn 0.1873 -0.6014 -0.7767
vn 0.5958 -0.5588 -0.5768
vn -0.3659 -0.9306 -0.0000
vn -0.3242 -0.8778 -0.3527
vn -0.8157 -0.5785 -0.0000
vn -0.5497 -0.6449 -0.5310
vn -0.0977 -0.8876 0.4502
vn -0.3242 -0.8778 0.3527
vn -0.1980 -0.5040 0.8407
vn -0.5497 -0.6449 0.5310
vn 0.2829 -0.9060 0.3148
vn 0.1202 -0.8587 0.4981
vn 0.5958 -0.5588 0.5768
vn 0.1873 -0.6014 0.7767
vn 0.4154 -0.9097 -0.0000
vn 0.7330 -0.6803 -0.0000
vn 0.4739 -0.0041 -0.8806
vn 0.2252 -0.1893 -0.9557
vn 0.0000 0.0000 -1.0000
vn 0.1980 0.5040 -0.8407
vn -0.4739 0.0041 -0.8806
vn -0.7207 -0.2112 -0.6603
vn -0.8967 -0.0024 -0.4426
vn -0.5958 0.5588 -0.5768
vn -0.8967 -0.0024 0.4426
vn -0.7207 -0.2112 0.6603
vn -0.4739 0.0041 0.8806
vn -0.5958 0.5588 0.5768
vn -0.0000 -0.0000 1.0000
vn 0.2252 -0.1893 0.9557
vn 0.4739 -0.0041 0.8806
vn 0.1980 0.5040 0.8407
vn 0.8967 0.0024 0.4426
vn 0.9768 -0.2141 -0.0000
vn 0.8967 0.0024 -0.4426
vn 0.8157 0.5785 0.0000
vn 0.7207 0.2112 -0.6603
vn 0.5497 0.6449 -0.5310
vn -0.2252 0.1893 -0.9557
vn -0.1873 0.6014 -0.7767
vn -0.9768 0.2141 0.0000
vn -0.7330 0.6803 0.0000
vn -0.2252 0.1893 0.9557
vn -0.1873 0.6014 0.7767
vn 0.7207 0.2112 0.6603
vn 0.5497 0.6449 0.5310
vn 0.3659 0.9306 0.0000
vn 0.3242 0.8778 -0.3527
vn 0.0977 0.8876 -0.4502
vn -0.0153 0.9999 0.0000
vn -0.1202 0.8587 -0.4981
vn -0.2829 0.9060 -0.3148
vn -0.4154 0.9097 0.0000
vn -0.2829 0.9060 0.3148
vn -0.1202 0.8587 0.4981
vn 0.0977 0.8876 0.4502
vn 0.3242 0.8778 0.3527
vn -0.8029 -0.2475 0.5422
vn 0.3778 -0.0474 0.9247
vn 0.3363 -0.1837 0.9237
vn -0.7961 -0.2217 0.5631
vn 0.9677 0.2494 -0.0362
vn 0.9830 0.1742 -0.0581
vn 0.3568 0.2603 -0.8972
vn 0.2166 0.2896 -0.9323
vn -0.7289 -0.0191 -0.6844
vn -0.8315 0.0603 -0.5522
vn 0.3733 -0.2765 0.8855
vn -0.6862 -0.2331 0.6891
vn 0.9991 0.0425 0.0025
vn 0.2317 0.3390 -0.9118
vn -0.8956 0.1444 -0.4207
vn -0.7615 0.0288 -0.6475
vn -0.8515 0.0298 0.5236
vn -0.8332 0.1227 0.5392
vn -0.7902 -0.0063 -0.6129
vn 0.2343 0.0285 0.9717
vn 0.2115 0.1222 0.9697
vn 0.9967 0.0266 0.0771
vn 0.9925 -0.0070 0.1223
vn 0.3807 0.0268 -0.9243
vn 0.3792 -0.1093 -0.9188
vn -0.8633 0.2074 0.4601
vn -0.7009 -0.0837 -0.7083
vn 0.2878 0.2079 0.9349
vn 0.9965 -0.0829 -0.0085
vn 0.3706 -0.2327 -0.8992
vn -0.2879 0.8692 -0.4019
vn -0.0711 0.7238 -0.6864
vn -0.3185 0.5493 -0.7726
vn -0.5406 0.6519 -0.5318
vn 0.0177 0.9670 -0.2541
vn 0.1877 0.8276 -0.5290
vn -0.4628 0.8831 -0.0775
vn -0.7054 0.6767 -0.2109
vn -0.1621 0.9845 0.0664
vn -0.2048 0.7653 0.6103
vn -0.4730 0.8636 0.1747
vn -0.5781 0.7780 0.2461
vn -0.3331 0.6586 0.6747
vn -0.5321 0.7752 -0.3404
vn -0.6741 0.6785 -0.2920
vn 0.1344 0.9015 0.4114
vn -0.0042 0.9996 -0.0264
vn -0.1769 0.9824 0.0594
vn 0.0321 0.8785 0.4766
vn -0.2532 0.8773 -0.4077
vn -0.1323 0.8940 -0.4282
vn -0.2811 0.8231 0.4934
vn -0.1326 0.6788 0.7223
vn 0.0805 0.7296 0.6791
vn -0.0064 0.9176 0.3974
vn 0.3453 0.7416 0.5752
vn 0.2521 0.9185 0.3047
vn -0.1480 0.9839 0.1001
vn 0.1249 0.9921 -0.0133
vn -0.4074 0.8900 0.2047
vn 0.2879 -0.8692 0.4019
vn 0.5406 -0.6519 0.5318
vn 0.3185 -0.5493 0.7726
vn 0.0711 -0.7238 0.6864
vn -0.0177 -0.9670 0.2541
vn -0.1877 -0.8276 0.5290
vn 0.4628 -0.8831 0.0775
vn 0.7054 -0.6767 0.2109
vn 0.1621 -0.9845 -0.0664
vn 0.2048 -0.7653 -0.6103
vn 0.3331 -0.6586 -0.6747
vn 0.5781 -0.7780 -0.2461
vn 0.4730 -0.8636 -0.1747
vn 0.6741 -0.6785 0.2920
vn 0.5321 -0.7752 0.3404
vn -0.1344 -0.9015 -0.4114
vn -0.0321 -0.8785 -0.4766
vn 0.1769 -0.9824 -0.0594
vn 0.0042 -0.9996 0.0264
vn 0.2532 -0.8773 0.4077
vn 0.1323 -0.8940 0.4282
vn 0.2811 -0.8231 -0.4934
vn 0.0064 -0.9176 -0.3974
vn -0.0805 -0.7296 -0.6791
vn 0.1326 -0.6788 -0.7223
vn -0.2521 -0.9185 -0.3047
vn -0.3453 -0.7416 -0.5752
vn 0.1480 -0.9839 -0.1001
vn -0.1249 -0.9921 0.0133
vn 0.4074 -0.8900 -0.2047
s 1
f 1/1/1 2/2/2 3/3/3 4/4/4
f 3/3/3 5/5/5 6/6/6 4/4/4
f 6/6/6 7/7/7 1/1/1 4/4/4
f 3/3/3 2/2/2 8/8/8 9/9/9
f 8/8/8 10/10/10 11/11/11 9/9/9
f 11/11/11 5/5/5 3/3/3 9/9/9
f 8/12/8 2/13/2 12/14/12 13/15/13
f 12/14/12 14/16/14 15/17/15 13/15/13
f 15/17/15 10/18/10 8/12/8 13/15/13
f 12/14/12 2/13/2 16/19/16 17/20/17
f 16/19/16 18/21/18 19/22/19 17/20/17
f 19/22/19 14/16/14 12/14/12 17/20/17
f 20/23/20 2/2/2 1/1/1
f 1/1/1 7/7/7 21/24/21 20/23/20
f 21/25/21 18/21/18 16/19/16 20/26/20
f 22/27/22 7/7/7 6/6/6 23/28/23
f 6/6/6 5/5/5 24/29/24 23/28/23
f 24/29/24 25/30/25 22/27/22 23/28/23
f 26/31/26 5/5/5 11/11/11 27/32/27
f 11/11/11 10/10/10 28/33/28 27/32/27
f 28/33/28 29/34/29 26/31/26 27/32/27
f 30/35/30 10/18/10 15/17/15 31/36/31
f 15/17/15 14/16/14 32/37/32 31/36/31
f 32/37/32 33/38/33 30/35/30 31/36/31
f 34/39/34 14/16/14 19/22/19 35/40/35
f 19/22/19 18/21/18 36/41/36 35/40/35
f 36/41/36 37/42/37 34/39/34 35/40/35
f 38/43/38 18/21/18 21/25/21 39/44/39
f 21/24/21 7/7/7 40/45/40 39/46/39
f 40/45/40 41/47/41 39/46/39
f 40/45/40 7/7/7 22/27/22 42/48/42
f 22/27/22 25/30/25 43/49/43 42/48/42
f 43/49/43 41/47/41 40/45/40 42/48/42
f 24/29/24 5/5/5 26/31/26 44/50/44
f 26/31/26 29/34/29 45/51/45 44/50/44
f 45/51/45 25/30/25 24/29/24 44/50/44
f 28/33/28 10/10/10 46/52/46
f 30/35/30 33/38/33 47/53/47 46/52/46
f 47/53/47 29/34/29 28/33/28 46/52/46
f 32/37/32 14/16/14 34/39/34 48/54/48
f 34/39/34 37/42/37 49/55/49 48/54/48
f 49/55/49 33/38/33 32/37/32 48/54/48
f 36/41/36 18/21/18 38/43/38 50/56/50
f 38/43/38 41/47/41 51/57/51 50/56/50
f 51/57/51 37/42/37 36/41/36 50/56/50
f 52/58/52 41/47/41 43/49/43 53/59/53
f 43/49/43 25/30/25 54/60/54 53/59/53
f 54/60/54 55/61/55 52/58/52 53/59/53
f 54/60/54 25/30/25 45/51/45 56/62/56
f 45/51/45 29/34/29 57/63/57 56/62/56
f 57/63/57 55/61/55 54/60/54 56/62/56
f 57/63/57 29/34/29 47/53/47 58/64/58
f 47/53/47 33/38/33 59/65/59 58/64/58
f 58/64/58 55/61/55 57/63/57
f 59/65/59 33/38/33 49/55/49 60/66/60
f 49/55/49 37/42/37 61/67/61 60/66/60
f 61/67/61 55/61/55 59/65/59 60/66/60
f 61/67/61 37/42/37 51/57/51 62/68/62
f 51/57/51 41/47/41 52/58/52 62/68/62
f 52/58/52 55/61/55 61/67/61 62/68/62
f 16/19/16 2/13/2 20/26/20
f 46/52/46 10/18/10 30/35/30
f 59/65/59 55/61/55 58/64/58
f 39/44/39 41/47/41 38/43/38
s 2
f 63/69/63 64/70/64 65/71/65 66/72/66
f 64/70/64 67/73/67 68/74/68 65/71/65
f 67/73/67 69/75/69 70/76/70 68/74/68
f 69/75/69 71/77/71 72/78/72 70/76/70
f 71/79/71 63/69/63 66/72/66 72/80/72
f 66/72/66 65/71/65 73/81/73 74/82/74
f 65/71/65 68/74/68 75/83/75 73/81/73
f 68/74/68 70/76/70 76/84/76 75/83/75
f 70/76/70 72/78/72 77/85/77 76/84/76
f 72/80/72 66/72/66 74/82/74 77/86/77
s 3
f 78/87/78 79/88/79 80/89/80 81/90/81
f 79/88/79 82/91/82 83/92/83 80/89/80
f 82/91/82 84/93/84 85/94/85 83/92/83
f 84/93/84 86/95/86 87/96/87 85/94/85
f 86/97/86 78/87/78 81/90/81 87/98/87
f 81/90/81 80/89/80 88/99/88 89/100/89
f 80/89/80 83/92/83 90/101/90 88/99/88
f 83/92/83 85/94/85 91/102/91 90/101/90
f 85/94/85 87/96/87 92/103/92 91/102/91
f 87/98/87 81/90/81 89/100/89 92/104/92
s 4
f 93/105/93 94/106/94 95/107/95 96/108/96
f 97/109/97 98/110/98 94/106/94 93/105/93
f 99/111/99 93/105/93 96/108/96 100/112/100
f 101/113/101 97/109/97 93/105/93 99/111/99
s 5
f 102/114/102 103/115/103 104/116/104 105/117/105
f 104/116/104 103/115/103 106/118/106 107/119/107
f 108/120/108 109/121/109 110/122/110 111/123/111
f 112/124/112 110/122/110 109/121/109 113/125/113
f 106/118/106 103/115/103 110/122/110 112/124/112
f 111/123/111 110/122/110 103/115/103 102/114/102
s 6
f 114/126/114 115/127/115 116/128/116 117/129/117
f 117/129/117 116/128/116 118/130/118 119/131/119
f 120/132/120 117/129/117 119/131/119 121/133/121
f 122/134/122 114/126/114 117/129/117 120/132/120
s 7
f 123/135/123 124/136/124 125/137/125 126/138/126
f 127/139/127 123/135/123 126/138/126 128/140/128
f 129/141/129 130/142/130 124/136/124 123/135/123
f 131/143/131 129/141/129 123/135/123 127/139/127
s 8
f 132/144/132 133/145/133 134/146/134 135/147/135
f 134/146/134 136/148/136 137/149/137 135/147/135
f 138/150/138 139/151/139 140/152/140 141/153/141
f 142/154/142 143/155/143 141/153/141 140/152/140
f 137/149/137 142/154/142 140/152/140 135/147/135
f 139/151/139 132/144/132 135/147/135 140/152/140
s 9
f 144/156/144 145/157/145 146/158/146 147/159/147
f 145/157/145 148/160/148 149/161/149 146/158/146
f 150/162/150 151/163/151 148/160/148 145/157/145
f 152/164/152 150/162/150 145/157/145 144/156/144
