# Blender v3.3.0 OBJ File: ''
# www.blender.org
o Stage2.005
v 0.029736 0.596932 0.098681
v 0.008126 0.597350 0.030664
v 0.023226 0.539589 0.039255
v 0.041586 0.539204 0.096979
v -0.045739 0.570291 -0.016869
v -0.033929 0.512578 -0.018626
v -0.054824 0.710899 0.053326
v -0.108662 0.683836 0.005816
v -0.033221 0.710506 0.121349
v -0.199363 0.190572 0.102242
v -0.146929 0.132049 -0.051521
v -0.023735 0.227763 -0.008669
v -0.044856 0.285079 0.073306
v 0.126331 0.117390 0.045139
v 0.084393 0.175553 0.169244
v -0.275046 0.136590 0.310929
v -0.232968 0.194748 0.197419
v -0.081628 0.289246 0.205110
v -0.127538 0.231114 0.362204
v 0.046142 0.179932 0.277969
v -0.001545 0.121993 0.407620
v -0.087268 0.474029 -0.043709
v -0.038588 0.434414 -0.139476
v 0.019931 0.332024 -0.106132
v -0.028827 0.371709 -0.010334
v -0.170636 0.410475 0.046459
v -0.112191 0.308091 0.079895
v -0.247439 0.502985 -0.155138
v -0.198761 0.463362 -0.250929
v -0.330814 0.439418 -0.064968
v 0.178393 0.134207 0.088070
v 0.040878 0.017660 0.122771
v -0.014362 0.116942 0.006446
v 0.049590 0.203565 -0.015209
v -0.032080 0.021762 -0.157966
v 0.076371 0.126238 -0.185241
v 0.395936 0.165293 0.031887
v 0.270973 0.175820 0.064460
v 0.172709 0.259011 -0.056159
v 0.334041 0.264983 -0.109310
v 0.182137 0.173392 -0.212362
v 0.322855 0.169450 -0.249060
v 0.124712 0.490858 0.032402
v 0.029613 0.538957 0.043302
v 0.025378 0.450391 0.004221
v 0.106094 0.409518 -0.005072
v -0.067119 0.519940 0.088995
v -0.085840 0.438669 0.051569
v 0.077795 0.605496 0.185663
v -0.018909 0.586458 0.231326
v 0.172918 0.557406 0.174778
v -0.029630 0.260985 -0.007392
v 0.054171 0.229204 -0.027236
v 0.064101 0.147102 0.025819
v -0.019774 0.178952 0.045623
v -0.127998 0.210003 -0.011693
v -0.118186 0.127907 0.041364
v -0.044449 0.284182 -0.163196
v 0.039370 0.252393 -0.183055
v -0.142823 0.233189 -0.167500
v 0.057645 0.377093 0.029539
v 0.036942 0.337477 0.134955
v -0.028455 0.235087 0.118842
v -0.007686 0.274772 0.013376
v 0.113247 0.313538 -0.079955
v 0.047896 0.211154 -0.096175
v 0.242142 0.406048 0.093037
v 0.221447 0.366425 0.198475
v 0.297750 0.342482 -0.016461
v -0.031739 0.504593 -0.031791
v -0.055605 0.426094 -0.022036
v -0.060504 0.426780 0.008190
v 0.013785 0.625860 0.001137
v -0.017847 0.641891 -0.046593
v -0.091339 0.442490 -0.038347
v 0.094337 0.502428 -0.082784
v 0.047450 0.424134 -0.024491
v 0.049141 0.521508 -0.082510
v 0.043166 0.307896 -0.008817
v 0.022518 0.326681 0.012290
v -0.000852 0.324784 -0.007897
v -0.062941 0.552224 0.076950
v -0.094555 0.600323 -0.013401
v -0.057370 0.511756 -0.026154
v -0.030498 0.470884 0.050522
v -0.160464 0.581306 -0.097668
v -0.128091 0.500035 -0.124184
v -0.222776 0.666862 0.065004
v -0.288650 0.647824 -0.019242
v -0.191172 0.618772 0.155381
v 0.031174 0.597858 0.098217
v 0.043129 0.539750 0.096481
v 0.024622 0.540044 0.038396
v 0.009358 0.598204 0.029744
v -0.032828 0.512881 -0.019869
v -0.044783 0.570989 -0.018134
v -0.053758 0.712128 0.052463
v -0.107898 0.684913 0.004586
v -0.031941 0.711783 0.120936
v -0.200078 0.192416 0.101792
v -0.044732 0.287158 0.072948
v -0.023605 0.229747 -0.009273
v -0.147604 0.133767 -0.052251
v 0.085289 0.177357 0.169231
v 0.127299 0.119092 0.044847
v -0.275814 0.138461 0.311175
v -0.127583 0.233147 0.362712
v -0.081630 0.291366 0.205305
v -0.233729 0.196649 0.197459
v 0.046862 0.181765 0.278435
v -0.000910 0.123785 0.408273
v -0.086671 0.475913 -0.043195
v -0.027801 0.373082 -0.009561
v 0.021196 0.333372 -0.105824
v -0.037673 0.436203 -0.139458
v -0.170379 0.412184 0.047430
v -0.111510 0.309353 0.081064
v -0.247324 0.505101 -0.154954
v -0.198327 0.465391 -0.251217
v -0.331033 0.441372 -0.064330
v 0.178044 0.135846 0.089086
v 0.048798 0.205409 -0.014917
v -0.015331 0.118603 0.006858
v 0.040315 0.019074 0.123895
v 0.075478 0.127897 -0.185802
v -0.033211 0.023215 -0.158447
v 0.396159 0.167222 0.032570
v 0.334033 0.267116 -0.109354
v 0.172413 0.261108 -0.056059
v 0.271023 0.177700 0.065252
v 0.181712 0.175269 -0.213038
v 0.322634 0.171363 -0.249771
v 0.125045 0.492365 0.031262
v 0.106247 0.410562 -0.006527
v 0.025164 0.451491 0.002800
v 0.029461 0.540613 0.042256
v -0.086505 0.439762 0.050291
v -0.067707 0.521565 0.088080
v 0.077820 0.607492 0.185071
v -0.019348 0.588444 0.230895
v 0.173404 0.559244 0.174077
v -0.029636 0.262869 -0.006605
v -0.019701 0.180327 0.046903
v 0.064682 0.148452 0.026981
v 0.054747 0.230994 -0.026527
v -0.128572 0.211714 -0.010871
v -0.118637 0.129173 0.042637
v -0.044515 0.286298 -0.162987
v 0.039868 0.254423 -0.182909
v -0.143450 0.235143 -0.167253
v 0.056930 0.378977 0.029208
v -0.008883 0.276146 0.012912
v -0.029755 0.236435 0.118891
v 0.036057 0.339266 0.135187
v 0.112735 0.315248 -0.080819
v 0.046923 0.212417 -0.097114
v 0.241981 0.408164 0.092892
v 0.221108 0.368454 0.198871
v 0.297786 0.344436 -0.017135
v -0.030517 0.503856 -0.032785
v 0.015216 0.625345 0.000361
v -0.058969 0.425916 0.008172
v -0.054329 0.425289 -0.022924
v -0.016649 0.641478 -0.047721
v -0.090834 0.442049 -0.039910
v 0.094892 0.503494 -0.081441
v 0.049212 0.522788 -0.081169
v 0.047639 0.425056 -0.022989
v 0.022683 0.327561 0.013809
v 0.044337 0.308147 -0.007627
v -0.001750 0.325870 -0.006762
v -0.061755 0.553731 0.077023
v -0.029045 0.471928 0.050351
v -0.056032 0.512857 -0.026677
v -0.093567 0.601979 -0.013780
v -0.126991 0.501128 -0.125115
v -0.159701 0.582931 -0.098443
v -0.222193 0.668858 0.064898
v -0.288326 0.649810 -0.019765
v -0.190380 0.620610 0.155701
v -0.019812 -0.012012 0.000193
v -0.020690 -0.012012 0.008606
v -0.034169 0.258453 0.031838
v -0.033456 0.258453 0.025009
v -0.012960 -0.012012 0.012041
v -0.027894 0.258453 0.034626
v -0.007305 -0.012012 0.005751
v -0.023303 0.258453 0.029520
v -0.011540 -0.012012 -0.001571
v -0.026740 0.258453 0.023576
v -0.061060 0.424008 -0.020085
v -0.061396 0.423706 -0.024624
v -0.056693 0.424986 -0.019035
v -0.054330 0.425289 -0.022924
v -0.057236 0.424498 -0.026378
v -0.079689 0.557129 -0.016218
v -0.079922 0.556919 -0.019363
v -0.076663 0.557806 -0.015490
v -0.075025 0.558016 -0.018185
v -0.077039 0.557468 -0.020579
v 0.018003 -0.012012 -0.004390
v 0.011870 -0.012012 -0.010215
v 0.011754 0.162006 -0.008758
v 0.016733 0.162006 -0.004030
v 0.004435 -0.012012 -0.006181
v 0.005719 0.162006 -0.005484
v 0.005973 -0.012012 0.002136
v 0.006967 0.162006 0.001268
v 0.014359 -0.012012 0.003244
v 0.013775 0.162006 0.002167
v 0.022682 0.327561 0.013809
v 0.025987 0.327561 0.016947
v 0.018677 0.327561 0.015982
v 0.019506 0.327561 0.020463
v 0.024023 0.327561 0.021060
v 0.034760 0.462090 0.016912
v 0.036886 0.461410 0.019185
v 0.031928 0.462468 0.018275
v 0.032303 0.462021 0.021391
v 0.035368 0.461367 0.021953
v 0.035368 0.461367 0.021953
v 0.036886 0.461410 0.019185
v 0.027312 0.496052 0.022528
v 0.025587 0.495501 0.024368
v 0.034760 0.462090 0.016912
v 0.026078 0.496139 0.020287
v 0.031928 0.462468 0.018275
v 0.023590 0.495641 0.020743
v 0.032303 0.462021 0.021391
v 0.023287 0.495247 0.023265
v 0.017601 0.569284 0.035487
v 0.016391 0.568528 0.036640
v 0.016802 0.569571 0.033920
v 0.015097 0.568993 0.034104
v 0.014844 0.568348 0.035785
v -0.079369 0.074327 -0.111310
v -0.051266 0.132638 0.004704
v 0.002996 0.078576 0.018938
v 0.026512 0.007890 -0.074008
v -0.131523 0.061986 0.096862
v -0.046987 0.000470 0.126451
v -0.235041 0.068198 -0.168528
v -0.265035 0.138229 -0.057912
v -0.146371 0.156026 -0.022495
v -0.147956 0.092365 -0.136045
v -0.209853 0.082271 0.068606
v -0.308540 0.060778 0.031930
v -0.018236 0.591454 -0.028836
v 0.009522 0.578849 -0.007797
v 0.008706 0.561737 -0.047998
v -0.007618 0.614309 -0.014363
v -0.016752 0.620488 -0.044844
v -0.009192 0.590918 -0.071500
v -0.024921 0.594665 -0.040251
v -0.006179 0.578009 -0.056537
v -0.035217 0.560822 -0.046262
v -0.017132 0.608298 -0.057678
v -0.042259 0.611838 -0.051300
v -0.058555 0.584676 -0.043143
v -0.028447 0.598973 -0.022106
v -0.025364 0.604304 -0.042155
v -0.048862 0.598672 -0.036828
v -0.018120 0.611784 -0.022087
v -0.030388 0.611719 -0.008435
v -0.051248 0.603983 -0.014048
v 0.054516 0.521665 -0.073204
v 0.082274 0.509060 -0.052166
v 0.081458 0.491948 -0.092366
v 0.065134 0.544520 -0.058731
v 0.056000 0.550698 -0.089212
v 0.063560 0.521129 -0.115868
v 0.047831 0.524876 -0.084619
v 0.066572 0.508219 -0.100905
v 0.037535 0.491033 -0.090630
v 0.055620 0.538509 -0.102047
v 0.030493 0.542049 -0.095668
v 0.014197 0.514887 -0.087511
v 0.044304 0.529183 -0.066474
v 0.047388 0.534515 -0.086523
v 0.023889 0.528883 -0.081196
v 0.054632 0.541995 -0.066455
v 0.042364 0.541930 -0.052803
v 0.021503 0.534194 -0.058416
v -0.130767 0.277130 0.073026
v -0.075083 0.345551 0.012248
v -0.022786 0.272330 0.048205
v -0.070011 0.214220 0.099828
v -0.011164 0.343853 -0.075605
v 0.049628 0.281025 -0.048900
v -0.203825 0.363452 -0.088352
v -0.139909 0.361733 -0.176165
v -0.259539 0.295029 -0.027576
v -0.131024 0.278703 0.074094
v -0.069817 0.215478 0.101097
v -0.022327 0.273733 0.049253
v -0.075041 0.347376 0.012978
v 0.050389 0.282512 -0.048207
v -0.010819 0.345737 -0.075210
v -0.204258 0.365446 -0.087938
v -0.140036 0.363807 -0.176126
v -0.260241 0.296774 -0.026822
v 0.015966 0.621349 0.010310
v 0.032277 0.598333 0.034314
v 0.049927 0.597518 -0.005653
v 0.018104 0.635642 0.035523
v 0.022948 0.653771 0.009093
v 0.042776 0.635395 -0.021094
v 0.014806 0.629394 -0.000609
v 0.039537 0.617602 -0.012577
v 0.009766 0.601829 -0.023019
v 0.028789 0.647338 -0.006333
v 0.003270 0.651556 -0.010270
v -0.013668 0.625706 -0.020981
v 0.003501 0.627133 0.014468
v 0.014792 0.639024 0.001391
v -0.008378 0.634977 -0.006292
v 0.012170 0.637552 0.023799
v -0.004816 0.634076 0.029822
v -0.020734 0.631779 0.013456
v 0.052576 0.488655 0.057922
v -0.022792 0.449378 0.092612
v -0.056861 0.390973 0.021322
v 0.018595 0.430303 -0.013335
v 0.141920 0.442457 0.011262
v 0.107962 0.384062 -0.060068
v 0.119191 0.455908 0.197644
v 0.043811 0.416617 0.232352
v 0.208541 0.409698 0.150982
v 0.052498 0.490695 0.057872
v 0.018238 0.432038 -0.013965
v -0.057661 0.392627 0.020957
v -0.023400 0.451284 0.092794
v 0.142350 0.444364 0.010932
v 0.108090 0.385708 -0.060905
v 0.119379 0.457963 0.198162
v 0.043480 0.418552 0.233085
v 0.209230 0.411632 0.151223
v -0.098651 0.024004 0.214542
v -0.181171 -0.052128 0.016500
v -0.017112 0.030326 -0.058326
v 0.033665 0.094273 0.038650
v 0.186322 -0.077015 -0.125733
v 0.253216 -0.005587 0.032706
v 0.009961 0.005463 0.500322
v -0.048450 0.041857 0.341267
v 0.113248 0.116700 0.205634
v 0.206559 0.085786 0.412648
v 0.310706 0.014438 0.177386
v 0.377728 -0.019384 0.357900
v -0.099806 0.025700 0.214536
v 0.033454 0.096126 0.037971
v -0.017535 0.032062 -0.059251
v -0.182533 -0.050582 0.016186
v 0.254108 -0.004010 0.031722
v 0.187042 -0.075571 -0.127058
v 0.009372 0.007271 0.501074
v 0.206946 0.087713 0.413010
v 0.113400 0.118665 0.205628
v -0.049216 0.043668 0.341797
v 0.311846 0.016113 0.177045
v 0.378947 -0.017718 0.357830
v 0.090502 0.478346 -0.071090
v 0.118260 0.465741 -0.050052
v 0.117444 0.448630 -0.090252
v 0.101120 0.501201 -0.056617
v 0.091986 0.507380 -0.087098
v 0.099546 0.477811 -0.113755
v 0.083817 0.481557 -0.082505
v 0.102558 0.464901 -0.098791
v 0.073521 0.447715 -0.088516
v 0.091606 0.495191 -0.099933
v 0.066479 0.498730 -0.093554
v 0.050183 0.471569 -0.085397
v 0.080291 0.485865 -0.064361
v 0.083374 0.491197 -0.084410
v 0.059875 0.485565 -0.079082
v 0.090618 0.498676 -0.064341
v 0.078350 0.498612 -0.050689
v 0.057489 0.490876 -0.056302
v 0.097745 0.007801 -0.183416
v 0.143543 -0.075455 -0.038686
v 0.021101 -0.008595 0.018551
v -0.007309 0.052965 -0.049998
v -0.143802 -0.080334 0.048384
v -0.180374 -0.005769 -0.066338
v 0.030668 0.030841 -0.405293
v 0.068267 0.037730 -0.279154
v -0.056373 0.092604 -0.176897
v -0.117225 0.097298 -0.340147
v -0.214186 0.028145 -0.175687
v -0.256891 0.025995 -0.318089
v 0.098734 0.008984 -0.183180
v -0.007060 0.054270 -0.049283
v 0.021488 -0.007418 0.019450
v 0.144660 -0.074432 -0.038223
v -0.180994 -0.004617 -0.065473
v -0.144321 -0.079329 0.049498
v 0.031281 0.032227 -0.405640
v -0.117364 0.098809 -0.340235
v -0.056352 0.094089 -0.176693
v 0.069001 0.039082 -0.279327
v -0.214950 0.029454 -0.175307
v -0.257700 0.027330 -0.317918
vt 0.595325 0.742723
vt 0.595325 0.867997
vt 0.682917 0.849022
vt 0.683397 0.742723
vt 0.595325 0.987677
vt 0.683397 0.987677
vt 0.396726 0.867997
vt 0.396726 0.987677
vt 0.396726 0.742723
vt 0.745144 0.408120
vt 0.558036 0.408120
vt 0.558036 0.555077
vt 0.655505 0.561582
vt 0.558036 0.742723
vt 0.709075 0.742723
vt 0.985791 0.408120
vt 0.861473 0.408120
vt 0.812750 0.572075
vt 0.985791 0.584571
vt 0.841868 0.742723
vt 0.985791 0.742723
vt 0.896429 0.883736
vt 0.896429 0.987677
vt 0.985791 0.987677
vt 0.985791 0.883736
vt 0.896429 0.742723
vt 0.985791 0.742723
vt 0.683397 0.883736
vt 0.683397 0.987677
vt 0.683397 0.742723
vt 0.745144 0.408120
vt 0.558036 0.408120
vt 0.558036 0.555077
vt 0.655505 0.561582
vt 0.558036 0.742723
vt 0.709075 0.742723
vt 0.985791 0.408120
vt 0.861473 0.408120
vt 0.812750 0.572075
vt 0.985791 0.584571
vt 0.841868 0.742723
vt 0.985791 0.742723
vt 0.595325 0.742723
vt 0.595325 0.867997
vt 0.682917 0.849022
vt 0.683397 0.742723
vt 0.595325 0.987677
vt 0.683397 0.987677
vt 0.396726 0.867997
vt 0.396726 0.987677
vt 0.396726 0.742723
vt 0.896429 0.883736
vt 0.896429 0.987677
vt 0.985791 0.987677
vt 0.985791 0.883736
vt 0.896429 0.742723
vt 0.985791 0.742723
vt 0.683397 0.883736
vt 0.683397 0.987677
vt 0.683397 0.742723
vt 0.896429 0.883736
vt 0.896429 0.987677
vt 0.985791 0.987677
vt 0.985791 0.883736
vt 0.896429 0.742723
vt 0.985791 0.742723
vt 0.683397 0.883736
vt 0.683397 0.987677
vt 0.683397 0.742723
vt 0.753200 0.340436
vt 0.914206 0.319960
vt 0.921325 0.264895
vt 0.500282 0.264895
vt 0.500282 0.408120
vt 0.921325 0.408120
vt 0.500282 0.242741
vt 0.711184 0.183080
vt 0.500282 0.135704
vt 0.912200 0.242741
vt 0.916545 0.183685
vt 0.915514 0.135704
vt 0.595325 0.742723
vt 0.595325 0.867997
vt 0.682917 0.849022
vt 0.683397 0.742723
vt 0.595325 0.987677
vt 0.683397 0.987677
vt 0.396726 0.867997
vt 0.396726 0.987677
vt 0.396726 0.742723
vt 0.595325 0.742723
vt 0.683397 0.742723
vt 0.682917 0.849022
vt 0.595325 0.867997
vt 0.683397 0.987677
vt 0.595325 0.987677
vt 0.396726 0.867997
vt 0.396726 0.987677
vt 0.396726 0.742723
vt 0.745144 0.408120
vt 0.655505 0.561582
vt 0.558036 0.555077
vt 0.558036 0.408120
vt 0.709075 0.742723
vt 0.558036 0.742723
vt 0.985791 0.408120
vt 0.985791 0.584571
vt 0.812750 0.572075
vt 0.861473 0.408120
vt 0.841868 0.742723
vt 0.985791 0.742723
vt 0.896429 0.883736
vt 0.985791 0.883736
vt 0.985791 0.987677
vt 0.896429 0.987677
vt 0.896429 0.742723
vt 0.985791 0.742723
vt 0.683397 0.883736
vt 0.683397 0.987677
vt 0.683397 0.742723
vt 0.745144 0.408120
vt 0.655505 0.561582
vt 0.558036 0.555077
vt 0.558036 0.408120
vt 0.709075 0.742723
vt 0.558036 0.742723
vt 0.985791 0.408120
vt 0.985791 0.584571
vt 0.812750 0.572075
vt 0.861473 0.408120
vt 0.841868 0.742723
vt 0.985791 0.742723
vt 0.595325 0.742723
vt 0.683397 0.742723
vt 0.682917 0.849022
vt 0.595325 0.867997
vt 0.683397 0.987677
vt 0.595325 0.987677
vt 0.396726 0.867997
vt 0.396726 0.987677
vt 0.396726 0.742723
vt 0.896429 0.883736
vt 0.985791 0.883736
vt 0.985791 0.987677
vt 0.896429 0.987677
vt 0.896429 0.742723
vt 0.985791 0.742723
vt 0.683397 0.883736
vt 0.683397 0.987677
vt 0.683397 0.742723
vt 0.896429 0.883736
vt 0.985791 0.883736
vt 0.985791 0.987677
vt 0.896429 0.987677
vt 0.896429 0.742723
vt 0.985791 0.742723
vt 0.683397 0.883736
vt 0.683397 0.987677
vt 0.683397 0.742723
vt 0.753200 0.340436
vt 0.500282 0.264895
vt 0.921325 0.264895
vt 0.914206 0.319960
vt 0.500282 0.408120
vt 0.921325 0.408120
vt 0.500282 0.242741
vt 0.500282 0.135704
vt 0.711184 0.183080
vt 0.916545 0.183685
vt 0.912200 0.242741
vt 0.915514 0.135704
vt 0.595325 0.742723
vt 0.683397 0.742723
vt 0.682917 0.849022
vt 0.595325 0.867997
vt 0.683397 0.987677
vt 0.595325 0.987677
vt 0.396726 0.867997
vt 0.396726 0.987677
vt 0.396726 0.742723
vt 0.023644 0.044370
vt 0.023714 0.036250
vt 0.316975 0.035463
vt 0.318586 0.043477
vt 0.024198 0.028105
vt 0.317374 0.027382
vt 0.025110 0.019961
vt 0.319763 0.019380
vt 0.026382 0.011841
vt 0.321804 0.011311
vt 0.023912 0.052473
vt 0.319853 0.051552
vt 0.682314 0.034783
vt 0.682921 0.043123
vt 0.682536 0.026332
vt 0.683594 0.018002
vt 0.684590 0.009642
vt 0.683465 0.051490
vt 0.977050 0.033491
vt 0.976324 0.040711
vt 0.977193 0.026248
vt 0.976747 0.019014
vt 0.976690 0.011752
vt 0.975987 0.047970
vt 0.023644 0.044370
vt 0.023714 0.036250
vt 0.316975 0.035463
vt 0.318586 0.043477
vt 0.024198 0.028105
vt 0.317374 0.027382
vt 0.025110 0.019961
vt 0.319763 0.019380
vt 0.026382 0.011841
vt 0.321804 0.011311
vt 0.023912 0.052473
vt 0.319853 0.051552
vt 0.682314 0.034783
vt 0.682921 0.043123
vt 0.682536 0.026332
vt 0.683594 0.018002
vt 0.684590 0.009642
vt 0.683465 0.051490
vt 0.977050 0.033491
vt 0.976324 0.040711
vt 0.977193 0.026248
vt 0.976747 0.019014
vt 0.976690 0.011752
vt 0.975987 0.047970
vt 0.318586 0.043477
vt 0.316975 0.035463
vt 0.682314 0.034783
vt 0.682921 0.043123
vt 0.317374 0.027382
vt 0.682536 0.026332
vt 0.319763 0.019380
vt 0.683594 0.018002
vt 0.321804 0.011311
vt 0.684590 0.009642
vt 0.319853 0.051552
vt 0.683465 0.051490
vt 0.977050 0.033491
vt 0.976324 0.040711
vt 0.977193 0.026248
vt 0.976747 0.019014
vt 0.976690 0.011752
vt 0.975987 0.047970
vt 0.745144 0.408120
vt 0.655505 0.561582
vt 0.558036 0.555077
vt 0.558036 0.408120
vt 0.709075 0.742723
vt 0.558036 0.742723
vt 0.985791 0.408120
vt 0.985791 0.584571
vt 0.812750 0.572075
vt 0.861473 0.408120
vt 0.841868 0.742723
vt 0.985791 0.742723
vt 0.466962 0.480390
vt 0.545144 0.447088
vt 0.538245 0.558089
vt 0.446944 0.421968
vt 0.393110 0.484245
vt 0.434776 0.578263
vt 0.466962 0.480390
vt 0.545144 0.447088
vt 0.538245 0.558089
vt 0.446944 0.421968
vt 0.393110 0.484245
vt 0.434776 0.578263
vt 0.466962 0.480390
vt 0.545144 0.447088
vt 0.538245 0.558089
vt 0.446944 0.421968
vt 0.393110 0.484245
vt 0.434776 0.578263
vt 0.466962 0.480390
vt 0.545144 0.447088
vt 0.538245 0.558089
vt 0.446944 0.421968
vt 0.393110 0.484245
vt 0.434776 0.578263
vt 0.466962 0.480390
vt 0.545144 0.447088
vt 0.538245 0.558089
vt 0.446944 0.421968
vt 0.393110 0.484245
vt 0.434776 0.578263
vt 0.466962 0.480390
vt 0.545144 0.447088
vt 0.538245 0.558089
vt 0.446944 0.421968
vt 0.393110 0.484245
vt 0.434776 0.578263
vt 0.595325 0.742723
vt 0.595325 0.867997
vt 0.682917 0.849022
vt 0.683397 0.742723
vt 0.595325 0.987677
vt 0.683397 0.987677
vt 0.396726 0.867997
vt 0.396726 0.987677
vt 0.396726 0.742723
vt 0.595325 0.742723
vt 0.683397 0.742723
vt 0.682917 0.849022
vt 0.595325 0.867997
vt 0.683397 0.987677
vt 0.595325 0.987677
vt 0.396726 0.867997
vt 0.396726 0.987677
vt 0.396726 0.742723
vt 0.466962 0.480390
vt 0.545144 0.447088
vt 0.538245 0.558089
vt 0.446944 0.421968
vt 0.393110 0.484245
vt 0.434776 0.578263
vt 0.466962 0.480390
vt 0.545144 0.447088
vt 0.538245 0.558089
vt 0.446944 0.421968
vt 0.393110 0.484245
vt 0.434776 0.578263
vt 0.466962 0.480390
vt 0.545144 0.447088
vt 0.538245 0.558089
vt 0.446944 0.421968
vt 0.393110 0.484245
vt 0.434776 0.578263
vt 0.896429 0.883736
vt 0.896429 0.987677
vt 0.985791 0.987677
vt 0.985791 0.883736
vt 0.896429 0.742723
vt 0.985791 0.742723
vt 0.683397 0.883736
vt 0.683397 0.987677
vt 0.683397 0.742723
vt 0.896429 0.883736
vt 0.985791 0.883736
vt 0.985791 0.987677
vt 0.896429 0.987677
vt 0.896429 0.742723
vt 0.985791 0.742723
vt 0.683397 0.883736
vt 0.683397 0.987677
vt 0.683397 0.742723
vt 0.745144 0.408120
vt 0.558036 0.408120
vt 0.558036 0.555077
vt 0.655505 0.561582
vt 0.558036 0.742723
vt 0.709075 0.742723
vt 0.985791 0.408120
vt 0.861473 0.408120
vt 0.812750 0.572075
vt 0.985791 0.584571
vt 0.841868 0.742723
vt 0.985791 0.742723
vt 0.745144 0.408120
vt 0.655505 0.561582
vt 0.558036 0.555077
vt 0.558036 0.408120
vt 0.709075 0.742723
vt 0.558036 0.742723
vt 0.985791 0.408120
vt 0.985791 0.584571
vt 0.812750 0.572075
vt 0.861473 0.408120
vt 0.841868 0.742723
vt 0.985791 0.742723
vt 0.466962 0.480390
vt 0.545144 0.447088
vt 0.538245 0.558089
vt 0.446944 0.421968
vt 0.393110 0.484245
vt 0.434776 0.578263
vt 0.466962 0.480390
vt 0.545144 0.447088
vt 0.538245 0.558089
vt 0.446944 0.421968
vt 0.393110 0.484245
vt 0.434776 0.578263
vt 0.466962 0.480390
vt 0.545144 0.447088
vt 0.538245 0.558089
vt 0.446944 0.421968
vt 0.393110 0.484245
vt 0.434776 0.578263
vt 0.745144 0.408120
vt 0.558036 0.408120
vt 0.558036 0.555077
vt 0.655505 0.561582
vt 0.558036 0.742723
vt 0.709075 0.742723
vt 0.985791 0.408120
vt 0.861473 0.408120
vt 0.812750 0.572075
vt 0.985791 0.584571
vt 0.841868 0.742723
vt 0.985791 0.742723
vt 0.745144 0.408120
vt 0.655505 0.561582
vt 0.558036 0.555077
vt 0.558036 0.408120
vt 0.709075 0.742723
vt 0.558036 0.742723
vt 0.985791 0.408120
vt 0.985791 0.584571
vt 0.812750 0.572075
vt 0.861473 0.408120
vt 0.841868 0.742723
vt 0.985791 0.742723
vn -0.8907 -0.3575 0.2809
vn -0.7564 -0.3357 0.5614
vn -0.8331 -0.1629 0.5286
vn -0.9341 -0.2003 0.2956
vn -0.5829 -0.2532 0.7721
vn -0.6561 -0.1087 0.7468
vn -0.6882 -0.4886 0.5363
vn -0.4742 -0.4176 0.7751
vn -0.8222 -0.5073 0.2581
vn 0.5103 -0.7972 0.3227
vn 0.4711 -0.7246 0.5030
vn -0.0972 -0.8926 0.4402
vn -0.0871 -0.9629 0.2555
vn -0.6694 -0.7164 0.1966
vn -0.6329 -0.7742 0.0102
vn 0.5506 -0.8169 -0.1720
vn 0.5495 -0.8350 -0.0273
vn 0.0060 -0.9898 -0.1420
vn 0.0391 -0.9265 -0.3742
vn -0.5120 -0.7926 -0.3312
vn -0.4481 -0.7682 -0.4572
vn -0.3944 -0.8540 -0.3393
vn -0.6316 -0.7753 -0.0004
vn -0.8222 -0.5340 -0.1971
vn -0.6681 -0.5464 -0.5050
vn -0.1682 -0.7258 -0.6670
vn -0.4363 -0.4945 -0.7518
vn -0.0872 -0.9875 -0.1313
vn -0.3192 -0.9220 0.2192
vn 0.1642 -0.8713 -0.4624
vn 0.2366 -0.6783 -0.6957
vn 0.3639 -0.5661 -0.7397
vn 0.6603 -0.6975 -0.2785
vn 0.5451 -0.8147 -0.1977
vn 0.7424 -0.5871 0.3229
vn 0.6105 -0.6909 0.3873
vn -0.1622 -0.8528 -0.4964
vn -0.0365 -0.8210 -0.5697
vn 0.2135 -0.9744 -0.0705
vn 0.0045 -0.9995 0.0312
vn 0.3039 -0.8196 0.4857
vn 0.1588 -0.8425 0.5148
vn -0.2235 -0.6137 0.7573
vn 0.0939 -0.7235 0.6839
vn 0.1339 -0.4221 0.8966
vn -0.0967 -0.3980 0.9123
vn 0.3986 -0.6902 0.6040
vn 0.4217 -0.4192 0.8040
vn -0.0090 -0.9047 0.4259
vn 0.3220 -0.8948 0.3092
vn -0.3477 -0.7988 0.4910
vn 0.0040 -0.8540 -0.5203
vn -0.4081 -0.7752 -0.4823
vn -0.3811 -0.5338 -0.7549
vn -0.0464 -0.5462 -0.8364
vn 0.4005 -0.7257 -0.5594
vn 0.2919 -0.4942 -0.8189
vn 0.0438 -0.9875 -0.1512
vn -0.3737 -0.9219 -0.1017
vn 0.4592 -0.8713 -0.1734
vn 0.4721 -0.8540 0.2188
vn 0.6078 -0.7753 -0.1719
vn 0.8448 -0.5340 -0.0347
vn 0.7806 -0.5464 0.3036
vn 0.3438 -0.7258 0.5958
vn 0.6248 -0.4945 0.6042
vn 0.1197 -0.9875 0.1025
vn 0.2472 -0.9220 -0.2979
vn -0.0318 -0.8713 0.4897
vn -0.7508 0.2880 0.5945
vn -0.7986 0.3152 0.5127
vn -0.9429 0.3314 -0.0334
vn -0.8507 0.1799 0.4939
vn -0.7330 0.1501 0.6635
vn -0.2660 0.1548 0.9515
vn -0.3243 -0.4327 -0.8412
vn -0.0890 -0.3509 -0.9322
vn -0.0672 -0.5098 -0.8576
vn -0.7361 -0.0637 -0.6739
vn -0.1236 -0.3212 -0.9389
vn 0.6150 -0.4114 -0.6727
vn -0.7879 -0.6137 -0.0509
vn -0.6463 -0.7235 0.2424
vn -0.8450 -0.4221 0.3284
vn -0.9111 -0.3980 0.1070
vn -0.5011 -0.6902 0.5220
vn -0.6912 -0.4192 0.5887
vn -0.4174 -0.9047 0.0852
vn -0.2305 -0.8948 0.3823
vn -0.5556 -0.7988 -0.2308
vn 0.8903 0.3577 -0.2818
vn 0.9337 0.2009 -0.2965
vn 0.8329 0.1635 -0.5287
vn 0.7563 0.3358 -0.5615
vn 0.6566 0.1093 -0.7463
vn 0.5835 0.2535 -0.7716
vn 0.6883 0.4883 -0.5365
vn 0.4750 0.4176 -0.7746
vn 0.8220 0.5071 -0.2593
vn -0.5091 0.7981 -0.3224
vn 0.0872 0.9629 -0.2553
vn 0.0972 0.8927 -0.4400
vn -0.4699 0.7255 -0.5028
vn 0.6319 0.7750 -0.0109
vn 0.6684 0.7172 -0.1973
vn -0.5496 0.8174 0.1725
vn -0.0391 0.9266 0.3740
vn -0.0059 0.9898 0.1420
vn -0.5484 0.8357 0.0276
vn 0.5111 0.7934 0.3308
vn 0.4472 0.7689 0.4570
vn 0.3943 0.8540 0.3393
vn 0.6675 0.5473 0.5048
vn 0.8215 0.5349 0.1975
vn 0.6310 0.7757 0.0012
vn 0.1685 0.7263 0.6664
vn 0.4361 0.4954 0.7512
vn 0.0877 0.9874 0.1318
vn 0.3192 0.9223 -0.2180
vn -0.1632 0.8716 0.4622
vn -0.2373 0.6790 0.6947
vn -0.5450 0.8148 0.1976
vn -0.6602 0.6976 0.2784
vn -0.3647 0.5669 0.7387
vn -0.6106 0.6915 -0.3860
vn -0.7425 0.5876 -0.3216
vn 0.1619 0.8534 0.4954
vn -0.0046 0.9995 -0.0311
vn -0.2136 0.9744 0.0705
vn 0.0360 0.8217 0.5687
vn -0.3040 0.8202 -0.4846
vn -0.1587 0.8432 -0.5137
vn 0.2230 0.6142 -0.7570
vn 0.0965 0.3990 -0.9118
vn -0.1338 0.4231 -0.8962
vn -0.0938 0.7236 -0.6838
vn -0.4211 0.4202 -0.8038
vn -0.3979 0.6905 -0.6041
vn 0.0087 0.9044 -0.4265
vn -0.3216 0.8947 -0.3101
vn 0.3467 0.7989 -0.4915
vn -0.0041 0.8540 0.5202
vn 0.0461 0.5473 0.8357
vn 0.3802 0.5349 0.7545
vn 0.4069 0.7757 0.4823
vn -0.3996 0.7263 0.5593
vn -0.2914 0.4954 0.8183
vn -0.0439 0.9874 0.1521
vn 0.3726 0.9223 0.1027
vn -0.4582 0.8716 0.1742
vn -0.4720 0.8540 -0.2189
vn -0.7800 0.5473 -0.3035
vn -0.8442 0.5349 0.0342
vn -0.6074 0.7757 0.1710
vn -0.3440 0.7263 -0.5951
vn -0.6246 0.4954 -0.6037
vn -0.1203 0.9874 -0.1029
vn -0.2476 0.9223 0.2968
vn 0.0309 0.8716 -0.4892
vn 0.7508 -0.2870 -0.5949
vn 0.8508 -0.1803 -0.4936
vn 0.9433 -0.3309 0.0256
vn 0.7984 -0.3141 -0.5137
vn 0.7327 -0.1505 -0.6637
vn 0.2724 -0.1564 -0.9494
vn 0.3242 0.4321 0.8415
vn 0.0665 0.5094 0.8580
vn 0.0898 0.3519 0.9317
vn 0.1247 0.3223 0.9384
vn 0.7297 0.0688 0.6803
vn -0.6062 0.4130 0.6797
vn 0.7875 0.6142 0.0504
vn 0.9107 0.3990 -0.1070
vn 0.8446 0.4231 -0.3282
vn 0.6462 0.7236 -0.2424
vn 0.6911 0.4202 -0.5881
vn 0.5014 0.6905 -0.5214
vn 0.4179 0.9044 -0.0856
vn 0.2315 0.8947 -0.3821
vn 0.5559 0.7989 0.2297
vn -0.7178 0.0276 -0.6957
vn -0.8720 -0.0849 0.4821
vn -0.8108 -0.0025 0.5853
vn -0.7843 -0.1491 -0.6022
vn 0.2350 -0.0680 0.9696
vn 0.2342 0.1268 0.9639
vn 0.9962 0.0528 0.0699
vn 0.9825 0.1291 0.1345
vn 0.4081 0.1072 -0.9066
vn 0.4279 -0.0406 -0.9029
vn -0.8234 -0.0525 0.5651
vn -0.7775 -0.2064 -0.5941
vn 0.3326 0.1922 0.9233
vn 0.9827 0.1587 -0.0954
vn 0.2707 -0.0663 -0.9604
vn -0.7209 -0.1207 0.6824
vn -0.8559 -0.0990 -0.5075
vn 0.3939 0.0347 0.9185
vn 0.9866 0.1556 -0.0488
vn 0.2474 0.0790 -0.9657
vn 0.9832 0.0076 -0.1821
vn 0.1307 0.0084 -0.9914
vn 0.1168 0.0667 -0.9909
vn 0.9784 -0.0088 -0.2068
vn -0.9023 0.0084 -0.4310
vn -0.8943 0.0667 -0.4424
vn -0.6888 0.0076 0.7249
vn -0.7068 -0.0088 0.7074
vn 0.4768 0.0070 0.8790
vn 0.4759 -0.0626 0.8773
vn 0.1412 0.0690 -0.9876
vn 0.9865 -0.0582 -0.1533
vn -0.9019 0.1096 -0.4179
vn -0.6875 0.0125 0.7261
vn 0.4530 -0.0845 0.8875
vn 0.1086 0.0131 -0.9940
vn 0.9765 -0.0761 -0.2019
vn -0.8804 0.0944 -0.4648
vn -0.7378 0.0657 0.6718
vn 0.4422 -0.0435 0.8959
vn 0.4555 0.0632 0.8880
vn 0.9631 0.2638 0.0537
vn 0.9791 0.1890 0.0754
vn 0.2218 -0.0668 0.9728
vn 0.4493 0.2015 -0.8704
vn 0.3358 0.1885 -0.9229
vn -0.7582 -0.1414 -0.6365
vn -0.7623 -0.0565 -0.6447
vn -0.7140 -0.2325 0.6604
vn -0.8491 -0.2129 0.4834
vn 0.9894 0.1155 0.0877
vn 0.2433 -0.1309 0.9611
vn 0.4530 0.2178 -0.8645
vn -0.6646 0.0589 -0.7449
vn -0.8834 -0.1764 0.4341
vn 0.4731 0.7533 -0.4568
vn 0.4229 0.8959 0.1363
vn 0.5871 0.7970 0.1420
vn 0.6282 0.6558 -0.4186
vn 0.1547 0.7316 0.6640
vn 0.3207 0.6473 0.6915
vn -0.0059 0.8585 -0.5128
vn -0.1924 0.9813 0.0096
vn 0.0449 0.9979 0.0463
vn 0.1435 0.8510 -0.5052
vn -0.1762 0.8115 0.5572
vn -0.3108 0.8117 0.4946
vn 0.9102 0.3113 -0.2732
vn 0.6489 0.5483 -0.5276
vn 0.7189 0.6922 -0.0627
vn 0.8286 -0.0309 -0.5590
vn 0.9980 -0.0607 -0.0176
vn 0.9009 0.3922 0.1860
vn -0.3271 -0.2266 -0.9174
vn -0.6245 0.0589 -0.7788
vn -0.1975 0.2294 -0.9531
vn -0.5390 -0.5295 -0.6551
vn -0.0020 -0.5425 -0.8400
vn 0.1067 -0.0722 -0.9917
vn -0.3900 0.8816 -0.2659
vn -0.4456 0.8798 0.1654
vn -0.0042 0.9999 -0.0146
vn -0.7465 0.6022 -0.2831
vn -0.3333 0.6655 -0.6678
vn 0.0460 0.9015 -0.4303
vn -0.0020 -0.5425 -0.8401
vn 0.0397 -0.6815 -0.7307
vn -0.1463 -0.8542 -0.4989
vn -0.3824 -0.6295 -0.6763
vn -0.2105 -0.5480 -0.8096
vn -0.3684 -0.8879 -0.2756
vn -0.5744 -0.6843 -0.4492
vn 0.1205 -0.9393 -0.3214
vn -0.0977 -0.9939 -0.0517
vn 0.3291 -0.7626 -0.5569
vn -0.0395 0.6821 0.7302
vn 0.2100 0.5489 0.8091
vn 0.3818 0.6303 0.6760
vn 0.1462 0.8543 0.4988
vn 0.5734 0.6850 0.4493
vn 0.3678 0.8880 0.2760
vn -0.1199 0.9392 0.3218
vn 0.0978 0.9938 0.0527
vn -0.3282 0.7631 0.5568
vn 0.9224 0.2671 0.2790
vn 0.7880 0.6135 0.0528
vn 0.6408 0.5653 0.5194
vn 0.9901 0.0684 -0.1227
vn 0.9068 -0.1810 0.3809
vn 0.7094 0.1735 0.6832
vn 0.1182 0.1729 -0.9778
vn -0.2228 0.4237 -0.8780
vn 0.2289 0.5885 -0.7754
vn -0.1728 -0.1746 -0.9694
vn 0.3909 -0.1892 -0.9008
vn 0.5330 0.2851 -0.7966
vn -0.2750 0.9607 -0.0390
vn -0.5135 0.8073 0.2908
vn -0.0439 0.9260 0.3750
vn -0.5746 0.7569 -0.3114
vn -0.0382 0.9026 -0.4289
vn 0.1876 0.9821 0.0169
vn 0.0869 -0.9822 0.1663
vn 0.4698 -0.8825 0.0215
vn 0.5548 -0.7536 0.3524
vn 0.2651 -0.8042 0.5320
vn -0.2620 -0.8881 0.3776
vn -0.0544 -0.7597 0.6480
vn -0.0825 -0.9783 -0.1900
vn 0.3005 -0.8868 -0.3511
vn -0.4558 -0.8901 0.0087
vn -0.0868 0.9823 -0.1663
vn -0.2645 0.8050 -0.5311
vn -0.5538 0.7546 -0.3520
vn -0.4686 0.8831 -0.0218
vn 0.2613 0.8886 -0.3770
vn 0.0542 0.7606 -0.6469
vn 0.0823 0.9785 0.1891
vn -0.2998 0.8875 0.3500
vn 0.4546 0.8907 -0.0089
vn 0.4574 -0.8890 0.0222
vn 0.5470 -0.8246 0.1444
vn 0.1664 -0.9093 0.3813
vn 0.0850 -0.9535 0.2893
vn -0.2890 -0.7843 0.5489
vn -0.3537 -0.8411 0.4093
vn 0.2363 -0.9335 -0.2696
vn 0.3041 -0.9348 -0.1833
vn -0.0567 -0.9980 0.0288
vn -0.1472 -0.9828 -0.1116
vn -0.4480 -0.8798 0.1588
vn -0.4807 -0.8753 0.0527
vn -0.4564 0.8895 -0.0228
vn -0.0848 0.9535 -0.2892
vn -0.1663 0.9094 -0.3812
vn -0.5459 0.8252 -0.1449
vn 0.3527 0.8416 -0.4091
vn 0.2880 0.7849 -0.5486
vn -0.2354 0.9339 0.2692
vn 0.1471 0.9828 0.1115
vn 0.0567 0.9980 -0.0288
vn -0.3033 0.9352 0.1828
vn 0.4470 0.8803 -0.1587
vn 0.4798 0.8758 -0.0524
vn -0.5336 -0.8278 -0.1732
vn -0.6075 -0.7392 -0.2906
vn -0.2196 -0.8298 -0.5131
vn -0.1496 -0.8936 -0.4232
vn 0.2566 -0.7301 -0.6333
vn 0.3052 -0.8110 -0.4992
vn -0.3398 -0.9325 0.1227
vn -0.4008 -0.9156 0.0330
vn -0.0324 -0.9861 -0.1631
vn 0.0484 -0.9987 -0.0167
vn 0.3766 -0.8917 -0.2512
vn 0.4016 -0.9045 -0.1436
vn 0.5326 0.8284 0.1738
vn 0.1494 0.8937 0.4231
vn 0.2195 0.8299 0.5129
vn 0.6064 0.7399 0.2911
vn -0.3041 0.8114 0.4991
vn -0.2555 0.7306 0.6332
vn 0.3389 0.9328 -0.1223
vn -0.0483 0.9987 0.0168
vn 0.0324 0.9861 0.1632
vn 0.4000 0.9159 -0.0325
vn -0.3756 0.8921 0.2511
vn -0.4007 0.9049 0.1435
s 1
f 1/1/1 2/2/2 3/3/3 4/4/4
f 2/2/2 5/5/5 6/6/6 3/3/3
f 7/7/7 8/8/8 5/5/5 2/2/2
f 9/9/9 7/7/7 2/2/2 1/1/1
s 2
f 10/10/10 11/11/11 12/12/12 13/13/13
f 12/12/12 14/14/14 15/15/15 13/13/13
f 16/16/16 17/17/17 18/18/18 19/19/19
f 20/20/20 21/21/21 19/19/19 18/18/18
f 15/15/15 20/20/20 18/18/18 13/13/13
f 17/17/17 10/10/10 13/13/13 18/18/18
s 3
f 22/22/22 23/23/23 24/24/24 25/25/25
f 26/26/26 22/22/22 25/25/25 27/27/27
f 28/28/28 29/29/29 23/23/23 22/22/22
f 30/30/30 28/28/28 22/22/22 26/26/26
s 4
f 31/31/31 32/32/32 33/33/33 34/34/34
f 33/33/33 35/35/35 36/36/36 34/34/34
f 37/37/37 38/38/38 39/39/39 40/40/40
f 41/41/41 42/42/42 40/40/40 39/39/39
f 36/36/36 41/41/41 39/39/39 34/34/34
f 38/38/38 31/31/31 34/34/34 39/39/39
s 5
f 43/43/43 44/44/44 45/45/45 46/46/46
f 44/44/44 47/47/47 48/48/48 45/45/45
f 49/49/49 50/50/50 47/47/47 44/44/44
f 51/51/51 49/49/49 44/44/44 43/43/43
s 6
f 52/52/52 53/53/53 54/54/54 55/55/55
f 56/56/56 52/52/52 55/55/55 57/57/57
f 58/58/58 59/59/59 53/53/53 52/52/52
f 60/60/60 58/58/58 52/52/52 56/56/56
s 7
f 61/61/61 62/62/62 63/63/63 64/64/64
f 65/65/65 61/61/61 64/64/64 66/66/66
f 67/67/67 68/68/68 62/62/62 61/61/61
f 69/69/69 67/67/67 61/61/61 65/65/65
s 8
f 70/70/70 71/71/71 72/72/72 73/73/73
f 74/74/74 75/75/75 71/71/71 70/70/70
f 74/74/74 70/70/70 73/73/73
s 9
f 76/76/76 77/77/77 78/78/78
f 76/76/76 79/79/79 80/80/80 77/77/77
f 81/81/81 78/78/78 77/77/77 80/80/80
s 10
f 82/82/82 83/83/83 84/84/84 85/85/85
f 83/83/83 86/86/86 87/87/87 84/84/84
f 88/88/88 89/89/89 86/86/86 83/83/83
f 90/90/90 88/88/88 83/83/83 82/82/82
s 11
f 91/91/91 92/92/92 93/93/93 94/94/94
f 94/94/94 93/93/93 95/95/95 96/96/96
f 97/97/97 94/94/94 96/96/96 98/98/98
f 99/99/99 91/91/91 94/94/94 97/97/97
s 12
f 100/100/100 101/101/101 102/102/102 103/103/103
f 102/102/102 101/101/101 104/104/104 105/105/105
f 106/106/106 107/107/107 108/108/108 109/109/109
f 110/110/110 108/108/108 107/107/107 111/111/111
f 104/104/104 101/101/101 108/108/108 110/110/110
f 109/109/109 108/108/108 101/101/101 100/100/100
s 13
f 112/112/112 113/113/113 114/114/114 115/115/115
f 116/116/116 117/117/117 113/113/113 112/112/112
f 118/118/118 112/112/112 115/115/115 119/119/119
f 120/120/120 116/116/116 112/112/112 118/118/118
s 14
f 121/121/121 122/122/122 123/123/123 124/124/124
f 123/123/123 122/122/122 125/125/125 126/126/126
f 127/127/127 128/128/128 129/129/129 130/130/130
f 131/131/131 129/129/129 128/128/128 132/132/132
f 125/125/125 122/122/122 129/129/129 131/131/131
f 130/130/130 129/129/129 122/122/122 121/121/121
s 15
f 133/133/133 134/134/134 135/135/135 136/136/136
f 136/136/136 135/135/135 137/137/137 138/138/138
f 139/139/139 136/136/136 138/138/138 140/140/140
f 141/141/141 133/133/133 136/136/136 139/139/139
s 16
f 142/142/142 143/143/143 144/144/144 145/145/145
f 146/146/146 147/147/147 143/143/143 142/142/142
f 148/148/148 142/142/142 145/145/145 149/149/149
f 150/150/150 146/146/146 142/142/142 148/148/148
s 17
f 151/151/151 152/152/152 153/153/153 154/154/154
f 155/155/155 156/156/156 152/152/152 151/151/151
f 157/157/157 151/151/151 154/154/154 158/158/158
f 159/159/159 155/155/155 151/151/151 157/157/157
s 18
f 160/160/160 161/161/161 162/162/162 163/163/163
f 164/164/164 160/160/160 163/163/163 165/165/165
f 164/164/164 161/161/161 160/160/160
s 19
f 166/166/166 167/167/167 168/168/168
f 166/166/166 168/168/168 169/169/169 170/170/170
f 171/171/171 169/169/169 168/168/168 167/167/167
s 20
f 172/172/172 173/173/173 174/174/174 175/175/175
f 175/175/175 174/174/174 176/176/176 177/177/177
f 178/178/178 175/175/175 177/177/177 179/179/179
f 180/180/180 172/172/172 175/175/175 178/178/178
s 21
f 181/181/181 182/182/182 183/183/183 184/184/184
f 182/182/182 185/185/185 186/186/186 183/183/183
f 185/185/185 187/187/187 188/188/188 186/186/186
f 187/187/187 189/189/189 190/190/190 188/188/188
f 189/191/189 181/181/181 184/184/184 190/192/190
f 184/184/184 183/183/183 191/193/191 192/194/192
f 183/183/183 186/186/186 193/195/193 191/193/191
f 186/186/186 188/188/188 194/196/194 193/195/193
f 188/188/188 190/190/190 195/197/195 194/196/194
f 190/192/190 184/184/184 192/194/192 195/198/195
f 192/194/192 191/193/191 196/199/196 197/200/197
f 191/193/191 193/195/193 198/201/198 196/199/196
f 193/195/193 194/196/194 199/202/199 198/201/198
f 194/196/194 195/197/195 200/203/200 199/202/199
f 195/198/195 192/194/192 197/200/197 200/204/200
s 22
f 201/205/201 202/206/202 203/207/203 204/208/204
f 202/206/202 205/209/205 206/210/206 203/207/203
f 205/209/205 207/211/207 208/212/208 206/210/206
f 207/211/207 209/213/209 210/214/210 208/212/208
f 209/215/209 201/205/201 204/208/204 210/216/210
f 204/208/204 203/207/203 211/217/211 212/218/212
f 203/207/203 206/210/206 213/219/213 211/217/211
f 206/210/206 208/212/208 214/220/214 213/219/213
f 208/212/208 210/214/210 215/221/215 214/220/214
f 210/216/210 204/208/204 212/218/212 215/222/215
f 212/218/212 211/217/211 216/223/216 217/224/217
f 211/217/211 213/219/213 218/225/218 216/223/216
f 213/219/213 214/220/214 219/226/219 218/225/218
f 214/220/214 215/221/215 220/227/220 219/226/219
f 215/222/215 212/218/212 217/224/217 220/228/220
s 23
f 221/229/221 222/230/222 223/231/223 224/232/224
f 222/230/222 225/233/225 226/234/226 223/231/223
f 225/233/225 227/235/227 228/236/228 226/234/226
f 227/235/227 229/237/229 230/238/230 228/236/228
f 229/239/229 221/229/221 224/232/224 230/240/230
f 224/232/224 223/231/223 231/241/231 232/242/232
f 223/231/223 226/234/226 233/243/233 231/241/231
f 226/234/226 228/236/228 234/244/234 233/243/233
f 228/236/228 230/238/230 235/245/235 234/244/234
f 230/240/230 224/232/224 232/242/232 235/246/235
s 24
f 236/247/236 237/248/237 238/249/238 239/250/239
f 238/249/238 237/248/237 240/251/240 241/252/241
f 242/253/242 243/254/243 244/255/244 245/256/245
f 246/257/246 244/255/244 243/254/243 247/258/247
f 240/251/240 237/248/237 244/255/244 246/257/246
f 245/256/245 244/255/244 237/248/237 236/247/236
s 25
f 248/259/248 249/260/249 250/261/250
f 251/262/251 248/259/248 252/263/252
f 252/263/252 248/259/248 253/264/253
f 253/264/253 248/259/248 250/261/250
f 251/262/251 249/260/249 248/259/248
s 26
f 254/265/254 255/266/255 256/267/256
f 257/268/257 254/265/254 258/269/258
f 258/269/258 254/265/254 259/270/259
f 259/270/259 254/265/254 256/267/256
f 257/268/257 255/266/255 254/265/254
s 27
f 260/271/260 261/272/261 262/273/262
f 263/274/263 260/271/260 264/275/264
f 264/275/264 260/271/260 265/276/265
f 265/276/265 260/271/260 262/273/262
f 263/274/263 261/272/261 260/271/260
s 28
f 266/277/248 267/278/249 268/279/250
f 269/280/251 266/277/248 270/281/252
f 270/281/252 266/277/248 271/282/253
f 271/282/253 266/277/248 268/279/250
f 269/280/251 267/278/249 266/277/248
s 29
f 272/283/254 273/284/255 274/285/256
f 275/286/257 272/283/254 276/287/266
f 276/287/266 272/283/254 277/288/259
f 277/288/259 272/283/254 274/285/256
f 275/286/257 273/284/255 272/283/254
s 30
f 278/289/260 279/290/261 280/291/262
f 281/292/263 278/289/260 282/293/264
f 282/293/264 278/289/260 283/294/265
f 283/294/265 278/289/260 280/291/262
f 281/292/263 279/290/261 278/289/260
s 31
f 284/295/267 285/296/268 286/297/269 287/298/270
f 285/296/268 288/299/271 289/300/272 286/297/269
f 290/301/273 291/302/274 288/299/271 285/296/268
f 292/303/275 290/301/273 285/296/268 284/295/267
s 32
f 293/304/276 294/305/277 295/306/278 296/307/279
f 296/307/279 295/306/278 297/308/280 298/309/281
f 299/310/282 296/307/279 298/309/281 300/311/283
f 301/312/284 293/304/276 296/307/279 299/310/282
s 33
f 302/313/285 303/314/286 304/315/287
f 305/316/288 302/313/285 306/317/289
f 306/317/289 302/313/285 307/318/290
f 307/318/290 302/313/285 304/315/287
f 305/316/288 303/314/286 302/313/285
s 34
f 308/319/291 309/320/292 310/321/293
f 311/322/294 308/319/291 312/323/295
f 312/323/295 308/319/291 313/324/296
f 313/324/296 308/319/291 310/321/293
f 311/322/294 309/320/292 308/319/291
s 35
f 314/325/297 315/326/298 316/327/299
f 317/328/300 314/325/297 318/329/301
f 318/329/301 314/325/297 319/330/302
f 319/330/302 314/325/297 316/327/299
f 317/328/300 315/326/298 314/325/297
s 36
f 320/331/303 321/332/304 322/333/305 323/334/306
f 324/335/307 320/331/303 323/334/306 325/336/308
f 326/337/309 327/338/310 321/332/304 320/331/303
f 328/339/311 326/337/309 320/331/303 324/335/307
s 37
f 329/340/312 330/341/313 331/342/314 332/343/315
f 333/344/316 334/345/317 330/341/313 329/340/312
f 335/346/318 329/340/312 332/343/315 336/347/319
f 337/348/320 333/344/316 329/340/312 335/346/318
s 38
f 338/349/321 339/350/322 340/351/323 341/352/324
f 340/351/323 342/353/325 343/354/326 341/352/324
f 344/355/327 345/356/328 346/357/329 347/358/330
f 348/359/331 349/360/332 347/358/330 346/357/329
f 343/354/326 348/359/331 346/357/329 341/352/324
f 345/356/328 338/349/321 341/352/324 346/357/329
s 39
f 350/361/333 351/362/334 352/363/335 353/364/336
f 352/363/335 351/362/334 354/365/337 355/366/338
f 356/367/339 357/368/340 358/369/341 359/370/342
f 360/371/343 358/369/341 357/368/340 361/372/344
f 354/365/337 351/362/334 358/369/341 360/371/343
f 359/370/342 358/369/341 351/362/334 350/361/333
s 40
f 362/373/248 363/374/249 364/375/250
f 365/376/251 362/373/248 366/377/252
f 366/377/252 362/373/248 367/378/253
f 367/378/253 362/373/248 364/375/250
f 365/376/251 363/374/249 362/373/248
s 41
f 368/379/254 369/380/255 370/381/256
f 371/382/257 368/379/254 372/383/258
f 372/383/258 368/379/254 373/384/259
f 373/384/259 368/379/254 370/381/256
f 371/382/257 369/380/255 368/379/254
s 42
f 374/385/260 375/386/261 376/387/262
f 377/388/263 374/385/260 378/389/264
f 378/389/264 374/385/260 379/390/265
f 379/390/265 374/385/260 376/387/262
f 377/388/263 375/386/261 374/385/260
s 43
f 380/391/345 381/392/346 382/393/347 383/394/348
f 382/393/347 384/395/349 385/396/350 383/394/348
f 386/397/351 387/398/352 388/399/353 389/400/354
f 390/401/355 391/402/356 389/400/354 388/399/353
f 385/396/350 390/401/355 388/399/353 383/394/348
f 387/398/352 380/391/345 383/394/348 388/399/353
s 44
f 392/403/357 393/404/358 394/405/359 395/406/360
f 394/405/359 393/404/358 396/407/361 397/408/362
f 398/409/363 399/410/364 400/411/365 401/412/366
f 402/413/367 400/411/365 399/410/364 403/414/368
f 396/407/361 393/404/358 400/411/365 402/413/367
f 401/412/366 400/411/365 393/404/358 392/403/357
