# Blender v3.3.0 OBJ File: ''
# www.blender.org
o WinterspawnStage04.005
v 0.065622 0.034818 0.000000
v 0.046402 0.034818 -0.046402
v 0.043799 0.043432 -0.043799
v 0.061941 0.043432 0.000000
v 0.000000 0.034818 -0.065622
v 0.000000 0.043432 -0.061941
v -0.046402 0.034818 -0.046402
v -0.043799 0.043432 -0.043799
v -0.065622 0.034818 0.000000
v -0.061941 0.043432 0.000000
v -0.046402 0.034818 0.046402
v -0.043799 0.043432 0.043799
v 0.000000 0.034818 0.065622
v 0.000000 0.043432 0.061941
v 0.046402 0.034818 0.046402
v 0.043799 0.043432 0.043799
v 0.000000 0.057506 0.000000
v 0.059112 0.026705 0.000000
v 0.041798 0.025285 -0.041939
v 0.000000 0.021857 -0.059310
v -0.041798 0.018429 -0.041939
v -0.059112 0.017009 0.000000
v -0.041798 0.018428 0.041939
v 0.000000 0.021857 0.059310
v 0.041798 0.025285 0.041939
v 0.064693 0.009550 0.000000
v 0.045745 0.009729 -0.045748
v 0.000000 0.010160 -0.064697
v -0.045745 0.010592 -0.045748
v -0.064693 0.010771 0.000000
v -0.045745 0.010592 0.045748
v 0.000000 0.010160 0.064697
v 0.045745 0.009729 0.045748
v 0.049487 -0.016241 0.000425
v 0.034992 -0.017523 -0.034778
v 0.000000 -0.014963 -0.049609
v -0.034992 -0.010060 -0.035379
v -0.049487 -0.005687 -0.000425
v -0.034992 -0.004405 0.034778
v 0.000000 -0.006965 0.049609
v 0.034992 -0.011868 0.035379
v 0.029502 -0.073761 -0.000000
v 0.020861 -0.073679 -0.020862
v 0.000000 -0.073482 -0.029503
v -0.020861 -0.073285 -0.020862
v -0.029502 -0.073204 -0.000000
v -0.020861 -0.073285 0.020862
v 0.000000 -0.073482 0.029503
v 0.020861 -0.073679 0.020862
v 0.000000 -0.106587 -0.000000
v -0.061552 0.080889 -0.027909
v -0.053514 0.170088 -0.070726
v -0.105469 0.157550 -0.095743
v -0.029421 0.096007 -0.053117
v 0.037395 0.164811 -0.089898
v 0.056931 0.101191 -0.015135
v 0.077026 0.194455 -0.036597
v 0.110483 0.188685 0.009243
v -0.041997 0.278419 -0.126678
v -0.117132 0.258328 -0.162039
v 0.084025 0.295508 -0.062698
v 0.046428 0.245322 -0.131603
v -0.065823 0.343968 -0.204520
v 0.062175 0.338204 -0.184891
v -0.001085 0.361833 -0.186112
v 0.109536 0.381816 -0.136395
v 0.156740 0.361531 -0.106836
v 0.022557 0.402628 -0.238621
v 0.081649 0.412076 -0.267470
v 0.122464 0.412873 -0.251547
v 0.110477 0.417175 -0.278697
v 0.137557 0.406977 -0.195116
v -0.034061 0.041259 -0.022535
v -0.015629 0.025731 -0.029176
v 0.025831 0.086013 -0.053564
v 0.029687 0.025951 -0.015831
v 0.033687 0.053248 0.025511
v 0.042111 0.079643 0.029653
v 0.013091 0.023266 -0.029778
v 0.159730 0.270159 -0.034581
v -0.061552 0.078495 -0.029174
v -0.105469 0.155157 -0.097008
v -0.053514 0.167695 -0.071991
v -0.029421 0.093614 -0.054382
v 0.037395 0.162418 -0.091163
v 0.077026 0.192062 -0.037862
v 0.056931 0.098798 -0.016400
v 0.110483 0.186292 0.007978
v -0.117132 0.255935 -0.163304
v -0.041997 0.276026 -0.127943
v 0.046428 0.242929 -0.132868
v 0.084025 0.293115 -0.063963
v -0.065823 0.341575 -0.205785
v -0.001085 0.359440 -0.187377
v 0.062175 0.335811 -0.186156
v 0.109536 0.379423 -0.137661
v 0.156740 0.359137 -0.108101
v 0.022557 0.400235 -0.239886
v 0.081649 0.409683 -0.268735
v 0.110477 0.414782 -0.279962
v 0.122464 0.410480 -0.252812
v 0.137557 0.404584 -0.196381
v -0.034061 0.038866 -0.023800
v 0.025831 0.083620 -0.054829
v -0.015629 0.023338 -0.030441
v 0.029687 0.023558 -0.017097
v 0.042111 0.077250 0.028388
v 0.033687 0.050855 0.024246
v 0.013091 0.020873 -0.031043
v 0.159730 0.267766 -0.035846
v -0.032325 0.083359 0.042455
v -0.084492 0.195606 0.009467
v -0.068029 0.182325 0.059565
v -0.055708 0.108600 0.008881
v -0.069044 0.185992 -0.071794
v 0.007589 0.111278 -0.060137
v -0.004671 0.218671 -0.088924
v 0.043226 0.210522 -0.097032
v -0.115780 0.326505 0.000355
v -0.122892 0.297509 0.066959
v -0.026199 0.335664 -0.107520
v -0.104237 0.279069 -0.097733
v -0.200071 0.395737 0.003783
v -0.147604 0.386227 -0.134547
v -0.166154 0.415278 -0.066047
v -0.084747 0.434792 -0.160960
v -0.039457 0.409226 -0.192994
v -0.212397 0.462711 -0.119666
v -0.216661 0.471186 -0.185493
v -0.186425 0.470366 -0.217247
v -0.216106 0.475887 -0.216538
v -0.128462 0.462844 -0.209699
v -0.012401 0.042762 0.036433
v -0.024608 0.032456 0.012514
v -0.037121 0.095012 -0.041499
v 0.000306 0.025120 -0.027642
v 0.036396 0.056599 -0.022166
v 0.043421 0.086870 -0.028974
v -0.018904 0.022720 -0.017510
v 0.037831 0.303012 -0.155280
v -0.034828 0.083359 0.040682
v -0.070531 0.182325 0.057792
v -0.086994 0.195606 0.007694
v -0.058211 0.108600 0.007108
v -0.071547 0.185992 -0.073567
v -0.007174 0.218671 -0.090697
v 0.005086 0.111278 -0.061910
v 0.040724 0.210522 -0.098805
v -0.125395 0.297509 0.065186
v -0.118283 0.326505 -0.001418
v -0.106740 0.279069 -0.099506
v -0.028702 0.335664 -0.109293
v -0.202574 0.395737 0.002010
v -0.168656 0.415278 -0.067820
v -0.150107 0.386227 -0.136320
v -0.087249 0.434792 -0.162733
v -0.041960 0.409226 -0.194767
v -0.214899 0.462711 -0.121440
v -0.219163 0.471186 -0.187266
v -0.218609 0.475887 -0.218311
v -0.188927 0.470366 -0.219021
v -0.130965 0.462844 -0.211472
v -0.014904 0.042762 0.034660
v -0.039623 0.095012 -0.043272
v -0.027111 0.032456 0.010741
v -0.002197 0.025120 -0.029416
v 0.040918 0.086870 -0.030747
v 0.033893 0.056599 -0.023940
v -0.021407 0.022720 -0.019283
v 0.035328 0.303012 -0.157053
v -0.061451 0.060599 0.040884
v -0.087393 0.116749 -0.005575
v -0.124305 0.116401 0.046295
v -0.066403 0.071250 -0.006655
v -0.082559 0.105425 -0.075900
v -0.007240 0.078341 -0.064050
v -0.021727 0.132449 -0.095884
v 0.013088 0.067234 -0.071130
v 0.017045 0.131576 -0.119968
v -0.150206 0.203307 -0.044971
v -0.193570 0.186330 0.004224
v -0.074960 0.212238 -0.132748
v -0.126645 0.157526 -0.111365
v -0.229974 0.231149 -0.064636
v -0.175364 0.219267 -0.150886
v -0.201111 0.242781 -0.110243
v -0.135239 0.245692 -0.180276
v -0.097044 0.248668 -0.203759
v -0.239380 0.255453 -0.149048
v -0.243211 0.248152 -0.201073
v -0.219674 0.249024 -0.226613
v -0.243212 0.245752 -0.225817
v -0.174478 0.259071 -0.221783
v -0.040989 0.036261 0.025452
v -0.035318 0.026800 -0.003295
v -0.046254 0.055809 -0.048076
v -0.003067 0.023120 -0.026579
v 0.005116 0.041831 -0.049061
v -0.017931 0.020036 -0.018242
v -0.017198 0.203219 -0.167663
v -0.061675 0.058221 0.038645
v -0.124529 0.114023 0.044057
v -0.087617 0.114371 -0.007814
v -0.066626 0.068872 -0.008894
v -0.082783 0.103046 -0.078139
v -0.021951 0.130071 -0.098122
v -0.007464 0.075962 -0.066289
v 0.016821 0.129198 -0.122207
v 0.012865 0.064855 -0.073369
v -0.193794 0.183951 0.001985
v -0.150430 0.200929 -0.047210
v -0.126868 0.155148 -0.113604
v -0.075184 0.209859 -0.134987
v -0.230198 0.228771 -0.066874
v -0.201335 0.240402 -0.112482
v -0.175588 0.216889 -0.153125
v -0.135463 0.243314 -0.182515
v -0.097267 0.246289 -0.205997
v -0.239603 0.253075 -0.151287
v -0.243435 0.245773 -0.203312
v -0.243435 0.243373 -0.228056
v -0.219898 0.246645 -0.228852
v -0.174702 0.256693 -0.224022
v -0.041213 0.033883 0.023213
v -0.046478 0.053430 -0.050315
v -0.035541 0.024422 -0.005534
v -0.003290 0.020742 -0.028818
v 0.004892 0.039453 -0.051300
v -0.018155 0.017658 -0.020480
v -0.017422 0.200841 -0.169902
v 0.014879 0.071555 -0.089456
v 0.063046 0.164284 -0.071865
v 0.067033 0.151747 -0.144161
v 0.047788 0.096007 -0.047968
v 0.115288 0.156444 0.006221
v 0.022908 0.095652 0.056555
v 0.055119 0.188651 0.061362
v -0.016708 0.079643 0.066017
v 0.043677 0.182882 0.114865
v 0.151237 0.272383 -0.075698
v 0.156013 0.252245 -0.158590
v 0.134653 0.291230 0.064433
v 0.173733 0.230209 0.005873
v 0.239045 0.319522 -0.120836
v 0.257898 0.305545 0.006644
v 0.246149 0.334542 -0.053212
v 0.238796 0.354365 0.067871
v 0.220565 0.336977 0.121524
v 0.311984 0.359044 -0.046454
v 0.358632 0.355273 0.000696
v 0.356447 0.355660 0.044459
v 0.378900 0.354583 0.024609
v 0.307619 0.361842 0.076467
v 0.003939 0.039015 -0.044316
v 0.028646 0.030913 -0.029104
v 0.061412 0.084091 0.005759
v 0.024332 0.025951 0.023236
v -0.013678 0.053248 0.039982
v 0.032380 0.023266 0.003107
v 0.122308 0.266270 0.150602
v 0.017496 0.069769 -0.089456
v 0.069650 0.149961 -0.144161
v 0.065663 0.162498 -0.071865
v 0.050405 0.094221 -0.047968
v 0.117905 0.154658 0.006221
v 0.057736 0.186865 0.061362
v 0.025525 0.093866 0.056555
v 0.046294 0.181095 0.114865
v -0.014091 0.077857 0.066017
v 0.158630 0.250459 -0.158590
v 0.153854 0.270597 -0.075698
v 0.176350 0.228423 0.005873
v 0.137270 0.289444 0.064433
v 0.241662 0.317736 -0.120836
v 0.248766 0.332756 -0.053212
v 0.260515 0.303759 0.006644
v 0.241413 0.352578 0.067871
v 0.223182 0.335191 0.121524
v 0.314601 0.357258 -0.046454
v 0.361249 0.353487 0.000696
v 0.381517 0.352797 0.024609
v 0.359064 0.353873 0.044459
v 0.310236 0.360056 0.076467
v 0.006556 0.037228 -0.044316
v 0.064029 0.082304 0.005759
v 0.031263 0.029126 -0.029104
v 0.026949 0.024164 0.023236
v -0.011061 0.051462 0.039982
v 0.034997 0.021480 0.003107
v 0.124925 0.264483 0.150602
v 0.004262 0.078777 0.056787
v -0.080994 0.164284 0.102161
v -0.045890 0.151747 0.127600
v -0.031702 0.096007 0.071065
v -0.118636 0.156444 0.054489
v -0.064456 0.095652 -0.008357
v -0.101546 0.188651 -0.008943
v -0.044614 0.079643 -0.037469
v -0.115641 0.182882 -0.061808
v -0.126006 0.272383 0.124278
v -0.109982 0.252245 0.187009
v -0.164862 0.291230 0.022238
v -0.157462 0.230209 0.073643
v -0.175482 0.319522 0.202898
v -0.232803 0.305545 0.111167
v -0.195160 0.334542 0.159164
v -0.243581 0.354365 0.047942
v -0.267330 0.336977 0.010374
v -0.256888 0.359044 0.183033
v -0.319857 0.355273 0.162200
v -0.337778 0.355660 0.122216
v -0.348773 0.354583 0.150096
v -0.308805 0.361842 0.071528
v 0.011556 0.039015 0.029143
v -0.013843 0.030913 0.033029
v -0.067373 0.084091 0.028800
v -0.032229 0.025951 -0.009657
v -0.039547 0.033046 -0.020500
v -0.030261 0.023266 0.011932
v -0.192985 0.266270 -0.060143
v 0.001415 0.074954 0.056787
v -0.048737 0.147924 0.127600
v -0.083841 0.160462 0.102161
v -0.034549 0.092184 0.071065
v -0.121483 0.152622 0.054489
v -0.104392 0.184829 -0.008943
v -0.067303 0.091830 -0.008357
v -0.118488 0.179059 -0.061808
v -0.047461 0.075821 -0.037469
v -0.112829 0.248423 0.187009
v -0.128853 0.268561 0.124278
v -0.160309 0.226386 0.073643
v -0.167709 0.287408 0.022238
v -0.178329 0.315699 0.202898
v -0.198007 0.330719 0.159164
v -0.235650 0.301723 0.111167
v -0.246428 0.350542 0.047942
v -0.270177 0.333154 0.010374
v -0.259734 0.355222 0.183033
v -0.322704 0.351451 0.162200
v -0.351620 0.350761 0.150096
v -0.340625 0.351837 0.122216
v -0.311652 0.358020 0.071528
v 0.008709 0.035192 0.029143
v -0.070220 0.080268 0.028800
v -0.016690 0.027090 0.033029
v -0.035076 0.022128 -0.009657
v -0.042394 0.029223 -0.020500
v -0.033108 0.019444 0.011932
v -0.195832 0.262447 -0.060143
v 0.060983 0.087339 0.000599
v 0.058986 0.196053 0.058984
v 0.109219 0.188598 0.017182
v 0.037304 0.108431 0.042656
v -0.022828 0.178128 0.099511
v -0.056244 0.105612 0.038406
v -0.076986 0.209851 0.073283
v -0.122174 0.201139 0.039085
v 0.055935 0.324016 0.108533
v 0.124191 0.301590 0.071354
v -0.084581 0.324461 0.109388
v -0.023504 0.268110 0.159216
v 0.108414 0.392339 0.175523
v -0.030390 0.371050 0.223049
v 0.032072 0.405917 0.195426
v -0.093929 0.417746 0.194949
v -0.145912 0.389914 0.179010
v 0.017873 0.447838 0.268256
v -0.030210 0.450332 0.314137
v -0.073839 0.447003 0.311192
v -0.054578 0.452237 0.333855
v -0.104828 0.440830 0.261445
v 0.034605 0.045811 -0.012487
v 0.022670 0.032700 0.018057
v -0.013952 0.090193 0.059430
v -0.023560 0.022070 0.024129
v -0.042359 0.054880 -0.011541
v -0.053937 0.084494 -0.010579
v -0.003334 0.020375 0.032222
v -0.162708 0.287274 0.102836
v 0.060983 0.084393 0.003990
v 0.109219 0.185651 0.020573
v 0.058986 0.193106 0.062375
v 0.037304 0.105484 0.046047
v -0.022828 0.175181 0.102901
v -0.076986 0.206905 0.076674
v -0.056244 0.102666 0.041797
v -0.122174 0.198193 0.042476
v 0.124191 0.298643 0.074745
v 0.055935 0.321069 0.111924
v -0.023504 0.265163 0.162607
v -0.084581 0.321514 0.112778
v 0.108414 0.389393 0.178914
v 0.032072 0.402970 0.198816
v -0.030390 0.368104 0.226440
v -0.093929 0.414799 0.198339
v -0.145912 0.386967 0.182401
v 0.017873 0.444891 0.271647
v -0.030210 0.447385 0.317527
v -0.054578 0.449290 0.337245
v -0.073839 0.444057 0.314583
v -0.104828 0.437883 0.264836
v 0.034605 0.042865 -0.009096
v -0.013952 0.087247 0.062821
v 0.022670 0.029753 0.021447
v -0.023560 0.019123 0.027520
v -0.053937 0.081548 -0.007188
v -0.042359 0.051933 -0.008150
v -0.003334 0.017428 0.035613
v -0.162708 0.284327 0.106227
v 0.065211 0.060599 -0.034572
v 0.086107 0.116749 0.010634
v 0.128292 0.116401 -0.033708
v 0.065113 0.071250 0.009622
v 0.069988 0.116417 0.077177
v 0.000837 0.078341 0.064453
v 0.012087 0.132449 0.097569
v -0.036406 0.067234 0.073591
v -0.028887 0.131576 0.117679
v 0.144991 0.203307 0.059681
v 0.193031 0.186330 0.015041
v 0.061391 0.212238 0.139542
v 0.107932 0.168518 0.114777
v 0.222409 0.231149 0.087178
v 0.159495 0.219267 0.167573
v 0.189155 0.242781 0.129690
v 0.116647 0.245692 0.192828
v 0.076306 0.248668 0.212397
v 0.223376 0.255453 0.172108
v 0.222017 0.248151 0.224255
v 0.196057 0.249024 0.247329
v 0.219557 0.245752 0.248877
v 0.151565 0.259071 0.238030
v 0.043316 0.036261 -0.021251
v 0.034815 0.026800 0.006790
v 0.035122 0.064957 0.041791
v 0.000409 0.023120 0.026752
v -0.026279 0.041831 0.052424
v 0.016029 0.020036 0.019934
v 0.000445 0.203219 0.168542
v 0.065211 0.058221 -0.032322
v 0.128292 0.114023 -0.031458
v 0.086107 0.114371 0.012884
v 0.065113 0.068872 0.011872
v 0.069988 0.114038 0.079427
v 0.012087 0.130071 0.099819
v 0.000837 0.075962 0.066703
v -0.028887 0.129198 0.119929
v -0.036406 0.064855 0.075841
v 0.193031 0.183951 0.017291
v 0.144991 0.200929 0.061931
v 0.107932 0.166140 0.117027
v 0.061391 0.209859 0.141792
v 0.222409 0.228771 0.089428
v 0.189155 0.240402 0.131940
v 0.159495 0.216889 0.169823
v 0.116647 0.243314 0.195078
v 0.076306 0.246289 0.214647
v 0.223376 0.253075 0.174358
v 0.222017 0.245773 0.226505
v 0.219557 0.243373 0.251127
v 0.196057 0.246645 0.249579
v 0.151565 0.256693 0.240280
v 0.043316 0.033883 -0.019001
v 0.035122 0.062578 0.044041
v 0.034815 0.024422 0.009040
v 0.000409 0.020742 0.029002
v -0.026279 0.039453 0.054674
v 0.016029 0.017658 0.022184
v 0.000445 0.200841 0.170792
v 0.028858 0.091048 0.039354
v 0.049246 0.434466 0.078886
v -0.065878 0.434466 0.105954
v -0.012620 0.091048 0.043220
v 0.031523 0.091048 -0.006756
v 0.076314 0.434466 -0.050543
v -0.048542 0.091048 -0.019702
v -0.090554 0.434466 -0.081079
v 0.022178 0.434466 -0.104680
v 0.009759 0.091048 -0.042678
v -0.048542 0.091048 0.020681
v -0.120014 0.434466 0.051818
v -0.080739 0.569764 0.131506
v 0.084146 0.558327 0.105345
v 0.012213 0.833070 0.000502
v 0.110207 0.556520 -0.077947
v 0.058084 0.560135 -0.130270
v -0.104389 0.573380 -0.107460
v -0.132862 0.573380 0.079183
v -0.009594 0.012964 -0.001223
v 0.042486 0.574767 -0.056000
v 0.071763 0.724148 -0.109617
v 0.012067 0.743887 -0.078879
v 0.019903 0.580468 -0.047923
v 0.035558 0.563409 -0.079876
v 0.063315 0.690011 -0.179521
v -0.011763 0.569522 -0.074679
v -0.035960 0.701900 -0.170501
v 0.023027 0.683268 -0.199121
v 0.016775 0.557304 -0.094966
v -0.004385 0.579201 -0.054112
v -0.028221 0.737143 -0.098478
v 0.013725 0.832967 -0.082842
v 0.101075 0.808154 -0.122348
v 0.052362 0.954587 -0.213348
v 0.082150 0.777789 -0.225907
v 0.043466 0.776690 -0.246331
v -0.043072 0.801820 -0.209346
v -0.024959 0.831867 -0.103266
v 0.010404 0.528185 -0.050471
v -0.046018 0.258454 -0.042099
v -0.121363 0.379937 -0.117009
v -0.058428 0.402589 -0.137605
v -0.023590 0.267805 -0.046255
v -0.049378 0.267121 -0.016396
v -0.141312 0.399481 -0.043911
v -0.006939 0.289295 -0.013098
v -0.053009 0.446413 -0.035066
v -0.114515 0.423645 -0.016510
v -0.039199 0.279697 0.002473
v -0.005249 0.281134 -0.035496
v -0.031632 0.426753 -0.110204
v -0.082597 0.468664 -0.179637
v -0.169399 0.427959 -0.154838
v -0.202620 0.604007 -0.155288
v -0.190617 0.457730 -0.051551
v -0.165713 0.482843 -0.025784
v -0.080790 0.524539 -0.048970
v -0.057693 0.493777 -0.153870
v -0.007904 0.237028 -0.005795
v -0.016733 0.358144 -0.034263
v 0.038422 0.479727 -0.124938
v 0.018060 0.443358 -0.181158
v -0.021009 0.343593 -0.053698
v 0.007387 0.347804 -0.026625
v 0.107199 0.458025 -0.094573
v 0.009746 0.314700 -0.061297
v 0.113963 0.388156 -0.166341
v 0.132391 0.424484 -0.111694
v 0.024877 0.330840 -0.031535
v -0.011251 0.324627 -0.066924
v 0.043253 0.409817 -0.198280
v 0.041474 0.496505 -0.238985
v 0.060911 0.547263 -0.156206
v 0.187668 0.601052 -0.270818
v 0.157138 0.511242 -0.118160
v 0.182500 0.480300 -0.135886
v 0.165438 0.430320 -0.217734
v 0.066835 0.465564 -0.256711
v -0.019384 0.303545 -0.018717
v 0.040197 0.281299 0.067879
v 0.034854 0.405418 0.174676
v -0.025461 0.377507 0.199781
v 0.017407 0.272999 0.074044
v 0.033413 0.295517 0.045039
v 0.026905 0.448703 0.108548
v -0.014247 0.285586 0.046951
v -0.073067 0.429067 0.110793
v -0.013482 0.455531 0.087631
v 0.014631 0.302487 0.029702
v -0.006985 0.273536 0.066714
v -0.065849 0.384335 0.178865
v -0.041346 0.433901 0.258847
v 0.048326 0.464486 0.225253
v -0.035757 0.618575 0.272795
v 0.030282 0.522781 0.132267
v -0.008962 0.531193 0.113234
v -0.098033 0.502913 0.145541
v -0.080590 0.442313 0.239814
v 0.018091 0.248358 0.025994
v 0.008471 0.197701 -0.032342
v 0.142344 0.356645 -0.061130
v 0.193388 0.320903 0.005155
v 0.023650 0.187072 -0.006196
v -0.017531 0.215908 -0.016382
v 0.063182 0.412075 -0.029380
v 0.000630 0.203191 0.041938
v 0.099094 0.386929 0.093535
v 0.050695 0.420818 0.027509
v -0.030278 0.224833 0.011934
v 0.022668 0.187760 0.026405
v 0.180902 0.329646 0.062044
v 0.271714 0.393119 0.005227
v 0.200439 0.432286 -0.094558
v 0.287115 0.629609 -0.006309
v 0.091402 0.506936 -0.041419
v 0.080866 0.517709 0.013431
v 0.150350 0.481495 0.112899
v 0.261178 0.403892 0.060078
v -0.036011 0.155518 0.008883
vt 0.552700 0.075400
vt 0.508600 0.053900
vt 0.508600 0.049700
vt 0.551800 0.070000
vt 0.465800 0.027700
vt 0.465800 0.015700
vt 0.423600 0.054900
vt 0.423500 0.050400
vt 0.380100 0.076600
vt 0.380900 0.071200
vt 0.331900 0.076300
vt 0.335300 0.067100
vt 0.283000 0.063000
vt 0.296300 0.040100
vt 0.649600 0.058700
vt 0.601300 0.074600
vt 0.597600 0.065200
vt 0.635700 0.036800
vt 0.557600 0.003200
vt 0.373900 0.004400
vt 0.553900 0.079200
vt 0.509500 0.061700
vt 0.465900 0.046900
vt 0.425100 0.069000
vt 0.381100 0.089700
vt 0.332000 0.094000
vt 0.283300 0.094200
vt 0.650200 0.089800
vt 0.601900 0.085600
vt 0.552000 0.091400
vt 0.508600 0.075900
vt 0.466100 0.064100
vt 0.423700 0.075900
vt 0.380700 0.092000
vt 0.334800 0.103300
vt 0.288400 0.122200
vt 0.645500 0.118400
vt 0.598200 0.102100
vt 0.545600 0.111800
vt 0.505200 0.101000
vt 0.466400 0.096600
vt 0.427700 0.101100
vt 0.387500 0.112400
vt 0.348400 0.128400
vt 0.315400 0.152900
vt 0.619000 0.150300
vt 0.585100 0.127000
vt 0.519400 0.173600
vt 0.494500 0.169600
vt 0.467200 0.172900
vt 0.439900 0.169700
vt 0.414900 0.174100
vt 0.393400 0.184900
vt 0.378400 0.202800
vt 0.556800 0.201300
vt 0.541200 0.183900
vt 0.503800 0.216400
vt 0.431500 0.217100
vt 0.421900 0.236700
vt 0.397700 0.335100
vt 0.337600 0.306500
vt 0.447500 0.287100
vt 0.468000 0.384600
vt 0.554300 0.314200
vt 0.538300 0.406600
vt 0.594300 0.407500
vt 0.353400 0.452200
vt 0.284400 0.417800
vt 0.508100 0.510500
vt 0.436600 0.469200
vt 0.284100 0.521900
vt 0.400200 0.570900
vt 0.339100 0.553700
vt 0.462200 0.599000
vt 0.514400 0.610100
vt 0.323600 0.615300
vt 0.355900 0.665100
vt 0.388300 0.678300
vt 0.367200 0.687000
vt 0.437700 0.661100
vt 0.468800 0.220900
vt 0.490400 0.240400
vt 0.495300 0.305800
vt 0.528700 0.250100
vt 0.569700 0.263200
vt 0.586900 0.290700
vt 0.512800 0.246700
vt 0.587600 0.519800
vt 0.044900 0.057000
vt 0.006800 0.159700
vt 0.073200 0.154300
vt 0.092300 0.087900
vt 0.158800 0.162100
vt 0.230700 0.146000
vt 0.198200 0.057900
vt 0.279600 0.118700
vt 0.016300 0.282600
vt 0.093300 0.277900
vt 0.173900 0.251000
vt 0.256400 0.251100
vt 0.068100 0.372900
vt 0.131700 0.372900
vt 0.193200 0.357300
vt 0.260900 0.350600
vt 0.311700 0.334200
vt 0.149100 0.434000
vt 0.202000 0.461100
vt 0.222600 0.474300
vt 0.236600 0.456300
vt 0.270800 0.416700
vt 0.077600 0.019900
vt 0.143000 0.080100
vt 0.106100 0.026000
vt 0.144000 0.015300
vt 0.214800 0.021300
vt 0.186100 0.006100
vt 0.128600 0.020200
vt 0.329900 0.219300
vt 0.044900 0.057000
vt 0.073200 0.154300
vt 0.006800 0.159700
vt 0.092300 0.087900
vt 0.158800 0.162100
vt 0.198200 0.057900
vt 0.230700 0.146000
vt 0.279600 0.118700
vt 0.093300 0.277900
vt 0.016300 0.282600
vt 0.256400 0.251100
vt 0.173900 0.251000
vt 0.068100 0.372900
vt 0.193200 0.357300
vt 0.131700 0.372900
vt 0.260900 0.350600
vt 0.311700 0.334200
vt 0.149100 0.434000
vt 0.202000 0.461100
vt 0.236600 0.456300
vt 0.222600 0.474300
vt 0.270800 0.416700
vt 0.077600 0.019900
vt 0.106100 0.026000
vt 0.143000 0.080100
vt 0.144000 0.015300
vt 0.186100 0.006100
vt 0.214800 0.021300
vt 0.128600 0.020200
vt 0.329900 0.219300
vt 0.044900 0.057000
vt 0.006800 0.159700
vt 0.073200 0.154300
vt 0.092300 0.087900
vt 0.158800 0.162100
vt 0.230700 0.146000
vt 0.198200 0.057900
vt 0.279600 0.118700
vt 0.016300 0.282600
vt 0.093300 0.277900
vt 0.173900 0.251000
vt 0.256400 0.251100
vt 0.068100 0.372900
vt 0.131700 0.372900
vt 0.193200 0.357300
vt 0.260900 0.350600
vt 0.311700 0.334200
vt 0.149100 0.434000
vt 0.202000 0.461100
vt 0.222600 0.474300
vt 0.236600 0.456300
vt 0.270800 0.416700
vt 0.077600 0.019900
vt 0.143000 0.080100
vt 0.106100 0.026000
vt 0.144000 0.015300
vt 0.214800 0.021300
vt 0.186100 0.006100
vt 0.128600 0.020200
vt 0.329900 0.219300
vt 0.044900 0.057000
vt 0.073200 0.154300
vt 0.006800 0.159700
vt 0.092300 0.087900
vt 0.158800 0.162100
vt 0.198200 0.057900
vt 0.230700 0.146000
vt 0.214800 0.021300
vt 0.279600 0.118700
vt 0.093300 0.277900
vt 0.016300 0.282600
vt 0.256400 0.251100
vt 0.173900 0.251000
vt 0.068100 0.372900
vt 0.193200 0.357300
vt 0.131700 0.372900
vt 0.260900 0.350600
vt 0.311700 0.334200
vt 0.149100 0.434000
vt 0.202000 0.461100
vt 0.236600 0.456300
vt 0.222600 0.474300
vt 0.270800 0.416700
vt 0.077600 0.019900
vt 0.106100 0.026000
vt 0.143000 0.080100
vt 0.144000 0.015300
vt 0.186100 0.006100
vt 0.128600 0.020200
vt 0.329900 0.219300
vt 0.044900 0.057000
vt 0.006800 0.159700
vt 0.073200 0.154300
vt 0.092300 0.087900
vt 0.158800 0.162100
vt 0.230700 0.146000
vt 0.198200 0.057900
vt 0.279600 0.118700
vt 0.214800 0.021300
vt 0.016300 0.282600
vt 0.093300 0.277900
vt 0.173900 0.251000
vt 0.256400 0.251100
vt 0.068100 0.372900
vt 0.131700 0.372900
vt 0.193200 0.357300
vt 0.260900 0.350600
vt 0.311700 0.334200
vt 0.149100 0.434000
vt 0.202000 0.461100
vt 0.222600 0.474300
vt 0.236600 0.456300
vt 0.270800 0.416700
vt 0.077600 0.019900
vt 0.143000 0.080100
vt 0.106100 0.026000
vt 0.144000 0.015300
vt 0.186100 0.006100
vt 0.128600 0.020200
vt 0.329900 0.219300
vt 0.044900 0.057000
vt 0.073200 0.154300
vt 0.006800 0.159700
vt 0.092300 0.087900
vt 0.158800 0.162100
vt 0.198200 0.057900
vt 0.230700 0.146000
vt 0.214800 0.021300
vt 0.279600 0.118700
vt 0.093300 0.277900
vt 0.016300 0.282600
vt 0.256400 0.251100
vt 0.173900 0.251000
vt 0.068100 0.372900
vt 0.193200 0.357300
vt 0.131700 0.372900
vt 0.260900 0.350600
vt 0.311700 0.334200
vt 0.149100 0.434000
vt 0.202000 0.461100
vt 0.236600 0.456300
vt 0.222600 0.474300
vt 0.270800 0.416700
vt 0.077600 0.019900
vt 0.106100 0.026000
vt 0.143000 0.080100
vt 0.144000 0.015300
vt 0.186100 0.006100
vt 0.128600 0.020200
vt 0.329900 0.219300
vt 0.044900 0.057000
vt 0.006800 0.159700
vt 0.073200 0.154300
vt 0.092300 0.087900
vt 0.158800 0.162100
vt 0.230700 0.146000
vt 0.198200 0.057900
vt 0.279600 0.118700
vt 0.214800 0.021300
vt 0.016300 0.282600
vt 0.093300 0.277900
vt 0.173900 0.251000
vt 0.256400 0.251100
vt 0.068100 0.372900
vt 0.131700 0.372900
vt 0.193200 0.357300
vt 0.260900 0.350600
vt 0.311700 0.334200
vt 0.149100 0.434000
vt 0.202000 0.461100
vt 0.222600 0.474300
vt 0.236600 0.456300
vt 0.270800 0.416700
vt 0.077600 0.019900
vt 0.143000 0.080100
vt 0.106100 0.026000
vt 0.144000 0.015300
vt 0.186100 0.006100
vt 0.128600 0.020200
vt 0.329900 0.219300
vt 0.421900 0.236700
vt 0.397700 0.335100
vt 0.337600 0.306500
vt 0.447500 0.287100
vt 0.468000 0.384600
vt 0.554300 0.314200
vt 0.538300 0.406600
vt 0.586900 0.290700
vt 0.594300 0.407500
vt 0.353400 0.452200
vt 0.284400 0.417800
vt 0.508100 0.510500
vt 0.436600 0.469200
vt 0.284100 0.521900
vt 0.400200 0.570900
vt 0.339100 0.553700
vt 0.462200 0.599000
vt 0.514400 0.610100
vt 0.323600 0.615300
vt 0.355900 0.665100
vt 0.388300 0.678300
vt 0.367200 0.687000
vt 0.437700 0.661100
vt 0.468800 0.220900
vt 0.490400 0.240400
vt 0.495300 0.305800
vt 0.528700 0.250100
vt 0.569700 0.263200
vt 0.512800 0.246700
vt 0.587600 0.519800
vt 0.421900 0.236700
vt 0.337600 0.306500
vt 0.397700 0.335100
vt 0.447500 0.287100
vt 0.468000 0.384600
vt 0.538300 0.406600
vt 0.554300 0.314200
vt 0.594300 0.407500
vt 0.586900 0.290700
vt 0.284400 0.417800
vt 0.353400 0.452200
vt 0.436600 0.469200
vt 0.508100 0.510500
vt 0.284100 0.521900
vt 0.339100 0.553700
vt 0.400200 0.570900
vt 0.462200 0.599000
vt 0.514400 0.610100
vt 0.323600 0.615300
vt 0.355900 0.665100
vt 0.367200 0.687000
vt 0.388300 0.678300
vt 0.437700 0.661100
vt 0.468800 0.220900
vt 0.495300 0.305800
vt 0.490400 0.240400
vt 0.528700 0.250100
vt 0.569700 0.263200
vt 0.512800 0.246700
vt 0.587600 0.519800
vt 0.044900 0.057000
vt 0.073200 0.154300
vt 0.006800 0.159700
vt 0.092300 0.087900
vt 0.158800 0.162100
vt 0.198200 0.057900
vt 0.230700 0.146000
vt 0.279600 0.118700
vt 0.093300 0.277900
vt 0.016300 0.282600
vt 0.256400 0.251100
vt 0.173900 0.251000
vt 0.068100 0.372900
vt 0.193200 0.357300
vt 0.131700 0.372900
vt 0.260900 0.350600
vt 0.311700 0.334200
vt 0.149100 0.434000
vt 0.202000 0.461100
vt 0.236600 0.456300
vt 0.222600 0.474300
vt 0.270800 0.416700
vt 0.077600 0.019900
vt 0.106100 0.026000
vt 0.143000 0.080100
vt 0.144000 0.015300
vt 0.186100 0.006100
vt 0.214800 0.021300
vt 0.128600 0.020200
vt 0.329900 0.219300
vt 0.044900 0.057000
vt 0.006800 0.159700
vt 0.073200 0.154300
vt 0.092300 0.087900
vt 0.158800 0.162100
vt 0.230700 0.146000
vt 0.198200 0.057900
vt 0.279600 0.118700
vt 0.016300 0.282600
vt 0.093300 0.277900
vt 0.173900 0.251000
vt 0.256400 0.251100
vt 0.068100 0.372900
vt 0.131700 0.372900
vt 0.193200 0.357300
vt 0.260900 0.350600
vt 0.311700 0.334200
vt 0.149100 0.434000
vt 0.202000 0.461100
vt 0.222600 0.474300
vt 0.236600 0.456300
vt 0.270800 0.416700
vt 0.077600 0.019900
vt 0.143000 0.080100
vt 0.106100 0.026000
vt 0.144000 0.015300
vt 0.214800 0.021300
vt 0.186100 0.006100
vt 0.128600 0.020200
vt 0.329900 0.219300
vt 0.044900 0.057000
vt 0.073200 0.154300
vt 0.006800 0.159700
vt 0.092300 0.087900
vt 0.158800 0.162100
vt 0.198200 0.057900
vt 0.230700 0.146000
vt 0.214800 0.021300
vt 0.279600 0.118700
vt 0.093300 0.277900
vt 0.016300 0.282600
vt 0.256400 0.251100
vt 0.173900 0.251000
vt 0.068100 0.372900
vt 0.193200 0.357300
vt 0.131700 0.372900
vt 0.260900 0.350600
vt 0.311700 0.334200
vt 0.149100 0.434000
vt 0.202000 0.461100
vt 0.236600 0.456300
vt 0.222600 0.474300
vt 0.270800 0.416700
vt 0.077600 0.019900
vt 0.106100 0.026000
vt 0.143000 0.080100
vt 0.144000 0.015300
vt 0.186100 0.006100
vt 0.128600 0.020200
vt 0.329900 0.219300
vt 0.044900 0.057000
vt 0.006800 0.159700
vt 0.073200 0.154300
vt 0.092300 0.087900
vt 0.158800 0.162100
vt 0.230700 0.146000
vt 0.198200 0.057900
vt 0.279600 0.118700
vt 0.214800 0.021300
vt 0.016300 0.282600
vt 0.093300 0.277900
vt 0.173900 0.251000
vt 0.256400 0.251100
vt 0.068100 0.372900
vt 0.131700 0.372900
vt 0.193200 0.357300
vt 0.260900 0.350600
vt 0.311700 0.334200
vt 0.149100 0.434000
vt 0.202000 0.461100
vt 0.222600 0.474300
vt 0.236600 0.456300
vt 0.270800 0.416700
vt 0.077600 0.019900
vt 0.143000 0.080100
vt 0.106100 0.026000
vt 0.144000 0.015300
vt 0.186100 0.006100
vt 0.128600 0.020200
vt 0.329900 0.219300
vt 0.119100 0.426500
vt 0.291000 0.602800
vt 0.194300 0.660100
vt 0.077400 0.461500
vt 0.045400 0.472400
vt 0.144000 0.684200
vt 0.059400 0.715900
vt 0.007700 0.479300
vt 0.119100 0.426500
vt 0.291000 0.602800
vt 0.194300 0.660100
vt 0.077400 0.461500
vt 0.045400 0.472400
vt 0.144000 0.684200
vt 0.059400 0.715900
vt 0.007700 0.479300
vt 0.230500 0.759600
vt 0.355200 0.723700
vt 0.315500 0.991000
vt 0.095300 0.838000
vt 0.196000 0.774300
vt 0.230500 0.759600
vt 0.355200 0.723700
vt 0.095300 0.838000
vt 0.196000 0.774300
vt 0.040800 0.396000
vt 0.119100 0.426500
vt 0.291000 0.602800
vt 0.194300 0.660100
vt 0.077400 0.461500
vt 0.045400 0.472400
vt 0.144000 0.684200
vt 0.059400 0.715900
vt 0.007700 0.479300
vt 0.119100 0.426500
vt 0.291000 0.602800
vt 0.194300 0.660100
vt 0.077400 0.461500
vt 0.045400 0.472400
vt 0.144000 0.684200
vt 0.059400 0.715900
vt 0.007700 0.479300
vt 0.230500 0.759600
vt 0.355200 0.723700
vt 0.315500 0.991000
vt 0.095300 0.838000
vt 0.196000 0.774300
vt 0.230500 0.759600
vt 0.355200 0.723700
vt 0.095300 0.838000
vt 0.196000 0.774300
vt 0.040800 0.396000
vt 0.119100 0.426500
vt 0.291000 0.602800
vt 0.194300 0.660100
vt 0.077400 0.461500
vt 0.045400 0.472400
vt 0.144000 0.684200
vt 0.059400 0.715900
vt 0.007700 0.479300
vt 0.119100 0.426500
vt 0.291000 0.602800
vt 0.194300 0.660100
vt 0.077400 0.461500
vt 0.045400 0.472400
vt 0.144000 0.684200
vt 0.059400 0.715900
vt 0.007700 0.479300
vt 0.230500 0.759600
vt 0.355200 0.723700
vt 0.315500 0.991000
vt 0.095300 0.838000
vt 0.196000 0.774300
vt 0.230500 0.759600
vt 0.355200 0.723700
vt 0.095300 0.838000
vt 0.196000 0.774300
vt 0.040800 0.396000
vt 0.119100 0.426500
vt 0.291000 0.602800
vt 0.194300 0.660100
vt 0.077400 0.461500
vt 0.045400 0.472400
vt 0.144000 0.684200
vt 0.059400 0.715900
vt 0.007700 0.479300
vt 0.119100 0.426500
vt 0.291000 0.602800
vt 0.194300 0.660100
vt 0.077400 0.461500
vt 0.045400 0.472400
vt 0.144000 0.684200
vt 0.059400 0.715900
vt 0.007700 0.479300
vt 0.230500 0.759600
vt 0.355200 0.723700
vt 0.315500 0.991000
vt 0.095300 0.838000
vt 0.196000 0.774300
vt 0.230500 0.759600
vt 0.355200 0.723700
vt 0.095300 0.838000
vt 0.196000 0.774300
vt 0.040800 0.396000
vt 0.119100 0.426500
vt 0.291000 0.602800
vt 0.194300 0.660100
vt 0.077400 0.461500
vt 0.045400 0.472400
vt 0.144000 0.684200
vt 0.059400 0.715900
vt 0.007700 0.479300
vt 0.119100 0.426500
vt 0.291000 0.602800
vt 0.194300 0.660100
vt 0.077400 0.461500
vt 0.045400 0.472400
vt 0.144000 0.684200
vt 0.059400 0.715900
vt 0.007700 0.479300
vt 0.230500 0.759600
vt 0.355200 0.723700
vt 0.315500 0.991000
vt 0.095300 0.838000
vt 0.196000 0.774300
vt 0.230500 0.759600
vt 0.355200 0.723700
vt 0.095300 0.838000
vt 0.196000 0.774300
vt 0.040800 0.396000
vt 0.119100 0.426500
vt 0.291000 0.602800
vt 0.194300 0.660100
vt 0.077400 0.461500
vt 0.045400 0.472400
vt 0.144000 0.684200
vt 0.059400 0.715900
vt 0.007700 0.479300
vt 0.119100 0.426500
vt 0.291000 0.602800
vt 0.194300 0.660100
vt 0.077400 0.461500
vt 0.045400 0.472400
vt 0.144000 0.684200
vt 0.059400 0.715900
vt 0.007700 0.479300
vt 0.230500 0.759600
vt 0.355200 0.723700
vt 0.315500 0.991000
vt 0.095300 0.838000
vt 0.196000 0.774300
vt 0.230500 0.759600
vt 0.355200 0.723700
vt 0.095300 0.838000
vt 0.196000 0.774300
vt 0.040800 0.396000
vn 0.9929 -0.1188 -0.0038
vn 0.7075 -0.0871 -0.7013
vn 0.4937 0.7160 -0.4937
vn 0.6981 0.7160 -0.0000
vn 0.0064 -0.0271 -0.9996
vn -0.0000 0.7160 -0.6981
vn -0.7042 0.0107 -0.7099
vn -0.4937 0.7160 -0.4937
vn -0.9997 0.0233 -0.0016
vn -0.6981 0.7160 0.0000
vn -0.7062 0.0156 0.7078
vn -0.4937 0.7160 0.4937
vn 0.0054 -0.0182 0.9998
vn 0.0000 0.7160 0.6981
vn 0.7108 -0.0790 0.6989
vn 0.4937 0.7160 0.4937
vn -0.0000 1.0000 0.0000
vn 0.9777 -0.2097 -0.0083
vn 0.6989 -0.1437 -0.7007
vn 0.0016 -0.0125 -0.9999
vn -0.6977 0.1352 -0.7035
vn -0.9749 0.2224 -0.0099
vn -0.7057 0.1420 0.6941
vn 0.0017 -0.0117 0.9999
vn 0.7061 -0.1486 0.6924
vn 0.9944 -0.1054 0.0041
vn 0.7029 -0.0788 -0.7069
vn -0.0104 -0.0419 -0.9991
vn -0.7179 0.0039 -0.6962
vn -1.0000 -0.0004 0.0078
vn -0.7100 -0.0837 0.6992
vn -0.0142 -0.1384 0.9903
vn 0.6932 -0.1306 0.7088
vn 0.9062 -0.4219 0.0289
vn 0.6429 -0.4214 -0.6396
vn -0.0240 -0.4390 -0.8981
vn -0.6479 -0.4788 -0.5924
vn -0.8480 -0.5291 0.0313
vn -0.5961 -0.5423 0.5921
vn -0.0363 -0.4989 0.8659
vn 0.6007 -0.4463 0.6634
vn 0.8718 -0.4899 0.0005
vn 0.6137 -0.4894 -0.6196
vn -0.0069 -0.4822 -0.8760
vn -0.6281 -0.4711 -0.6193
vn -0.8868 -0.4622 0.0017
vn -0.6302 -0.4622 0.6239
vn -0.0077 -0.4713 0.8819
vn 0.6151 -0.4831 0.6232
vn -0.0039 -1.0000 -0.0000
vn 0.2958 0.4206 0.8577
vn -0.1216 0.4281 0.8955
vn -0.4743 0.4327 0.7666
vn 0.2930 0.3618 0.8850
vn -0.4112 0.4004 0.8189
vn -0.8804 0.3959 0.2610
vn -0.8031 0.2391 0.5458
vn -0.6877 0.3832 0.6166
vn -0.1587 0.5361 0.8291
vn -0.4739 0.5147 0.7145
vn -0.5884 0.4981 0.6369
vn -0.4503 0.4727 0.7574
vn -0.3972 0.6791 0.6173
vn -0.3413 0.7041 0.6227
vn -0.0778 0.7153 0.6945
vn -0.4057 0.8047 0.4334
vn -0.0776 0.7266 0.6826
vn 0.0859 0.7677 0.6351
vn 0.1653 0.7182 0.6759
vn -0.5722 0.7693 0.2843
vn -0.2475 0.8002 0.5463
vn -0.2972 0.9208 0.2527
vn 0.5340 0.3774 0.7566
vn 0.2334 0.3602 0.9032
vn -0.4118 0.3942 0.8216
vn -0.8341 0.3748 0.4048
vn -0.9324 0.3328 -0.1407
vn -0.9138 0.3896 -0.1149
vn -0.2949 0.3905 0.8721
vn -0.1130 0.5673 0.8157
vn -0.2958 -0.4206 -0.8577
vn 0.4743 -0.4327 -0.7666
vn 0.1216 -0.4281 -0.8955
vn -0.2929 -0.3618 -0.8850
vn 0.4112 -0.4004 -0.8189
vn 0.8031 -0.2391 -0.5458
vn 0.8804 -0.3959 -0.2610
vn 0.6877 -0.3832 -0.6166
vn 0.4739 -0.5147 -0.7145
vn 0.1587 -0.5361 -0.8291
vn 0.4503 -0.4727 -0.7574
vn 0.5884 -0.4981 -0.6369
vn 0.3972 -0.6791 -0.6173
vn 0.0778 -0.7153 -0.6945
vn 0.3413 -0.7041 -0.6227
vn 0.4057 -0.8047 -0.4334
vn 0.0776 -0.7266 -0.6826
vn -0.0859 -0.7677 -0.6351
vn -0.1653 -0.7182 -0.6759
vn 0.2475 -0.8002 -0.5463
vn 0.5722 -0.7693 -0.2843
vn 0.2973 -0.9208 -0.2527
vn -0.5340 -0.3774 -0.7566
vn 0.4118 -0.3942 -0.8216
vn -0.2334 -0.3602 -0.9032
vn 0.8341 -0.3748 -0.4048
vn 0.9138 -0.3896 0.1149
vn 0.9324 -0.3328 0.1407
vn 0.2949 -0.3905 -0.8721
vn 0.1130 -0.5673 -0.8157
vn 0.8682 0.4158 -0.2708
vn 0.9603 0.2731 -0.0574
vn 0.9316 0.3303 -0.1521
vn 0.9294 0.3581 -0.0895
vn 0.6490 0.3550 0.6729
vn -0.0829 0.3838 0.9197
vn 0.1739 0.2214 0.9596
vn 0.2418 0.3157 0.9175
vn 0.8347 0.5171 0.1895
vn 0.8026 0.5109 0.3081
vn 0.3470 0.4694 0.8119
vn 0.6246 0.4402 0.6450
vn 0.5358 0.7225 0.4369
vn 0.5132 0.6815 0.5218
vn 0.6639 0.7110 0.2316
vn 0.2851 0.7852 0.5497
vn 0.6317 0.6945 0.3446
vn 0.6416 0.7580 0.1173
vn 0.7413 0.6669 0.0758
vn 0.0642 0.7408 0.6686
vn 0.4661 0.7640 0.4461
vn 0.1500 0.9091 0.3887
vn 0.8169 0.3433 -0.4635
vn 0.9322 0.3253 -0.1588
vn 0.6547 0.4097 0.6352
vn 0.1133 0.3845 0.9162
vn -0.4531 0.3350 0.8261
vn -0.4734 0.3417 0.8119
vn 0.7662 0.3679 0.5268
vn 0.6667 0.5029 0.5500
vn -0.8682 -0.4158 0.2708
vn -0.9316 -0.3303 0.1521
vn -0.9603 -0.2731 0.0574
vn -0.9294 -0.3581 0.0895
vn -0.6490 -0.3550 -0.6729
vn -0.1739 -0.2214 -0.9596
vn 0.0828 -0.3838 -0.9197
vn -0.2418 -0.3157 -0.9175
vn -0.8026 -0.5109 -0.3081
vn -0.8347 -0.5171 -0.1895
vn -0.6246 -0.4402 -0.6450
vn -0.3470 -0.4694 -0.8119
vn -0.5358 -0.7225 -0.4369
vn -0.6639 -0.7110 -0.2316
vn -0.5132 -0.6815 -0.5218
vn -0.2851 -0.7852 -0.5497
vn -0.6317 -0.6945 -0.3446
vn -0.6416 -0.7580 -0.1173
vn -0.7413 -0.6669 -0.0758
vn -0.4661 -0.7640 -0.4461
vn -0.0642 -0.7408 -0.6686
vn -0.1500 -0.9091 -0.3887
vn -0.8169 -0.3433 0.4635
vn -0.6547 -0.4097 -0.6352
vn -0.9322 -0.3253 0.1588
vn -0.1133 -0.3845 -0.9162
vn 0.4734 -0.3417 -0.8119
vn 0.4531 -0.3350 -0.8261
vn -0.7662 -0.3679 -0.5268
vn -0.6667 -0.5029 -0.5500
vn 0.7867 0.5971 0.1570
vn 0.7888 0.5818 0.1982
vn 0.5714 0.6696 0.4745
vn 0.8511 0.5220 0.0562
vn 0.5303 0.6592 0.5331
vn 0.3077 0.5378 0.7849
vn 0.2859 0.5421 0.7901
vn 0.5030 0.4971 0.7070
vn 0.4533 0.5720 0.6836
vn 0.5702 0.7825 0.2500
vn 0.3007 0.7882 0.5370
vn 0.1671 0.7126 0.6814
vn 0.4603 0.7210 0.5180
vn 0.1715 0.9106 0.3761
vn 0.2947 0.9111 0.2881
vn 0.3649 0.9249 0.1069
vn -0.0148 0.8965 0.4427
vn 0.1939 0.9181 0.3456
vn 0.3734 0.9253 -0.0660
vn 0.4542 0.8837 -0.1126
vn -0.1529 0.8843 0.4411
vn 0.1560 0.9672 0.2006
vn -0.1783 0.8748 0.4505
vn 0.8037 0.5949 0.0121
vn 0.7397 0.6512 0.1694
vn 0.4480 0.6762 0.5848
vn 0.2350 0.6448 0.7274
vn 0.6068 0.4689 0.6418
vn 0.3932 0.7522 0.5287
vn 0.4318 0.7336 0.5248
vn -0.7867 -0.5970 -0.1570
vn -0.5714 -0.6696 -0.4745
vn -0.7888 -0.5818 -0.1982
vn -0.8511 -0.5220 -0.0562
vn -0.5303 -0.6592 -0.5331
vn -0.2859 -0.5421 -0.7901
vn -0.3077 -0.5378 -0.7849
vn -0.4533 -0.5720 -0.6836
vn -0.5030 -0.4971 -0.7070
vn -0.3007 -0.7882 -0.5370
vn -0.5702 -0.7825 -0.2500
vn -0.4603 -0.7210 -0.5180
vn -0.1671 -0.7126 -0.6814
vn -0.1715 -0.9106 -0.3761
vn -0.3649 -0.9249 -0.1068
vn -0.2947 -0.9111 -0.2881
vn 0.0148 -0.8965 -0.4427
vn -0.1939 -0.9181 -0.3456
vn -0.3734 -0.9253 0.0660
vn -0.4542 -0.8837 0.1126
vn -0.1560 -0.9672 -0.2006
vn 0.1529 -0.8843 -0.4411
vn 0.1783 -0.8748 -0.4505
vn -0.8037 -0.5949 -0.0121
vn -0.4480 -0.6762 -0.5848
vn -0.7397 -0.6512 -0.1694
vn -0.2350 -0.6448 -0.7274
vn -0.6068 -0.4689 -0.6418
vn -0.3932 -0.7523 -0.5287
vn -0.4318 -0.7336 -0.5248
vn -0.8289 0.5167 0.2144
vn -0.8219 0.5285 0.2123
vn -0.8110 0.5650 -0.1520
vn -0.7966 0.4286 0.4262
vn -0.8065 0.5647 -0.1753
vn -0.4561 0.3226 -0.8294
vn -0.7208 0.4863 -0.4938
vn -0.4818 0.5313 -0.6968
vn -0.8011 0.5944 -0.0702
vn -0.6749 0.7268 0.1275
vn -0.6711 0.7106 -0.2113
vn -0.6142 0.7082 -0.3482
vn -0.7216 0.6663 -0.1881
vn -0.4860 0.8574 -0.1695
vn -0.4743 0.8735 -0.1097
vn -0.4633 0.8714 0.1613
vn -0.3007 0.9261 -0.2280
vn -0.4386 0.8846 0.1585
vn -0.3596 0.8838 0.2994
vn -0.3861 0.8376 0.3865
vn -0.2343 0.8691 -0.4356
vn -0.3696 0.9281 -0.0441
vn -0.0838 0.9798 -0.1814
vn -0.5876 0.4932 0.6415
vn -0.7446 0.4084 0.5281
vn -0.8554 0.4881 -0.1733
vn -0.6376 0.4089 -0.6529
vn -0.2049 0.5046 -0.8387
vn -0.8952 0.4320 -0.1096
vn -0.6686 0.7344 0.1169
vn 0.8289 -0.5167 -0.2144
vn 0.8110 -0.5650 0.1520
vn 0.8219 -0.5285 -0.2123
vn 0.7966 -0.4286 -0.4262
vn 0.8065 -0.5647 0.1753
vn 0.7209 -0.4863 0.4938
vn 0.4561 -0.3226 0.8294
vn 0.8011 -0.5944 0.0702
vn 0.4818 -0.5313 0.6968
vn 0.6711 -0.7106 0.2113
vn 0.6749 -0.7268 -0.1275
vn 0.7216 -0.6663 0.1881
vn 0.6142 -0.7082 0.3482
vn 0.4860 -0.8574 0.1695
vn 0.4633 -0.8714 -0.1613
vn 0.4743 -0.8735 0.1097
vn 0.3007 -0.9261 0.2280
vn 0.4386 -0.8846 -0.1585
vn 0.3596 -0.8838 -0.2994
vn 0.3861 -0.8376 -0.3865
vn 0.3696 -0.9281 0.0441
vn 0.2343 -0.8691 0.4356
vn 0.0838 -0.9798 0.1814
vn 0.5876 -0.4932 -0.6415
vn 0.8554 -0.4881 0.1733
vn 0.7446 -0.4084 -0.5281
vn 0.6376 -0.4089 0.6529
vn 0.2049 -0.5046 0.8387
vn 0.8952 -0.4321 0.1096
vn 0.6686 -0.7344 -0.1169
vn -0.0077 0.5741 -0.8187
vn 0.6042 0.5275 -0.5972
vn 0.6368 0.6454 -0.4218
vn 0.1329 0.4758 -0.8695
vn 0.8354 0.5310 -0.1420
vn 0.8693 0.3813 0.3144
vn 0.8738 0.4812 0.0701
vn 0.8838 0.3255 0.3362
vn 0.7761 0.5517 -0.3055
vn 0.6315 0.6600 -0.4069
vn 0.7833 0.6217 -0.0005
vn 0.7267 0.6870 0.0041
vn 0.7840 0.5875 -0.2005
vn 0.6050 0.7956 0.0324
vn 0.4738 0.8720 -0.1233
vn 0.4030 0.8681 -0.2900
vn 0.3981 0.9158 -0.0532
vn 0.2491 0.8410 -0.4803
vn 0.1886 0.8866 -0.4223
vn 0.1686 0.8375 -0.5197
vn 0.4065 0.8691 0.2818
vn 0.3493 0.9281 -0.1285
vn 0.1478 0.9843 0.0967
vn -0.2176 0.4657 -0.8577
vn 0.2248 0.5360 -0.8138
vn 0.7859 0.5722 -0.2345
vn 0.8797 0.4692 -0.0771
vn 0.9070 0.3912 -0.1562
vn 0.7650 0.5566 -0.3240
vn 0.5692 0.7126 -0.4102
vn 0.0077 -0.5741 0.8187
vn -0.6369 -0.6454 0.4218
vn -0.6042 -0.5275 0.5972
vn -0.1329 -0.4758 0.8695
vn -0.8354 -0.5310 0.1420
vn -0.8738 -0.4812 -0.0701
vn -0.8693 -0.3813 -0.3145
vn -0.7761 -0.5517 0.3055
vn -0.8838 -0.3255 -0.3362
vn -0.7833 -0.6217 0.0005
vn -0.6315 -0.6600 0.4069
vn -0.7839 -0.5875 0.2005
vn -0.7267 -0.6870 -0.0041
vn -0.6050 -0.7956 -0.0324
vn -0.4030 -0.8681 0.2900
vn -0.4738 -0.8720 0.1233
vn -0.3981 -0.9158 0.0532
vn -0.2491 -0.8410 0.4803
vn -0.1886 -0.8866 0.4223
vn -0.1686 -0.8375 0.5197
vn -0.3493 -0.9281 0.1285
vn -0.4065 -0.8691 -0.2817
vn -0.1478 -0.9843 -0.0968
vn 0.2176 -0.4657 0.8577
vn -0.7859 -0.5722 0.2345
vn -0.2248 -0.5360 0.8138
vn -0.8797 -0.4692 0.0771
vn -0.9070 -0.3911 0.1562
vn -0.7650 -0.5566 0.3240
vn -0.5692 -0.7126 0.4102
vn -0.6219 0.4697 -0.6266
vn -0.5460 0.3074 -0.7793
vn -0.5291 0.3652 -0.7659
vn -0.6011 0.3472 -0.7198
vn 0.0695 0.4097 -0.9096
vn 0.7197 0.4544 -0.5249
vn 0.5438 0.3152 -0.7778
vn 0.4500 0.4271 -0.7843
vn -0.3997 0.5456 -0.7365
vn -0.2542 0.5478 -0.7971
vn 0.3203 0.5468 -0.7736
vn 0.0560 0.5416 -0.8388
vn -0.0514 0.7622 -0.6453
vn 0.0272 0.7311 -0.6817
vn -0.2932 0.7362 -0.6099
vn 0.1885 0.8344 -0.5179
vn -0.2106 0.7135 -0.6682
vn -0.3691 0.7726 -0.5166
vn -0.4592 0.6791 -0.5726
vn 0.4240 0.7984 -0.4274
vn -0.0056 0.8061 -0.5918
vn 0.1446 0.9419 -0.3033
vn -0.8444 0.3740 -0.3834
vn -0.7269 0.2891 -0.6229
vn 0.0549 0.3963 -0.9165
vn 0.6302 0.4092 -0.6598
vn 0.9180 0.3758 -0.1265
vn 0.8940 0.4252 -0.1412
vn -0.0976 0.3484 -0.9322
vn -0.1985 0.5588 -0.8052
vn 0.6219 -0.4697 0.6266
vn 0.5291 -0.3652 0.7659
vn 0.5460 -0.3074 0.7793
vn 0.6011 -0.3472 0.7198
vn -0.0695 -0.4097 0.9096
vn -0.5438 -0.3152 0.7778
vn -0.7197 -0.4544 0.5249
vn -0.4500 -0.4271 0.7843
vn 0.2542 -0.5478 0.7971
vn 0.3997 -0.5456 0.7365
vn -0.0560 -0.5416 0.8388
vn -0.3203 -0.5468 0.7736
vn 0.0514 -0.7622 0.6453
vn 0.2932 -0.7362 0.6099
vn -0.0272 -0.7311 0.6817
vn -0.1885 -0.8344 0.5179
vn 0.2106 -0.7135 0.6682
vn 0.3691 -0.7726 0.5166
vn 0.4592 -0.6791 0.5726
vn 0.0055 -0.8061 0.5918
vn -0.4240 -0.7984 0.4274
vn -0.1446 -0.9419 0.3033
vn 0.8445 -0.3740 0.3834
vn -0.0549 -0.3963 0.9165
vn 0.7269 -0.2891 0.6229
vn -0.6302 -0.4092 0.6599
vn -0.8940 -0.4252 0.1412
vn -0.9181 -0.3758 0.1265
vn 0.0976 -0.3484 0.9322
vn 0.1985 -0.5588 0.8052
vn -0.7683 0.5890 -0.2506
vn -0.7323 0.5842 -0.3500
vn -0.5035 0.6683 -0.5476
vn -0.8086 0.5289 -0.2578
vn -0.4932 0.6485 -0.5798
vn -0.2951 0.5569 -0.7764
vn -0.2691 0.5617 -0.7824
vn -0.3533 0.5309 -0.7703
vn -0.3786 0.5845 -0.7177
vn -0.4981 0.7994 -0.3360
vn -0.2458 0.7882 -0.5643
vn -0.1344 0.7415 -0.6574
vn -0.3739 0.7610 -0.5301
vn -0.1332 0.9106 -0.3913
vn -0.2411 0.9261 -0.2904
vn -0.3525 0.9249 -0.1426
vn 0.0588 0.8965 -0.4391
vn -0.1586 0.9181 -0.3631
vn -0.3781 0.9253 0.0286
vn -0.4631 0.8838 0.0669
vn 0.1960 0.8843 -0.4237
vn -0.1353 0.9672 -0.2151
vn 0.2222 0.8748 -0.4305
vn -0.8032 0.5875 -0.0988
vn -0.7240 0.5581 -0.4055
vn -0.4579 0.6102 -0.6465
vn -0.3027 0.5221 -0.7973
vn -0.3603 0.5223 -0.7729
vn -0.4215 0.5353 -0.7319
vn -0.3775 0.7336 -0.5651
vn 0.7683 -0.5890 0.2506
vn 0.5035 -0.6683 0.5476
vn 0.7323 -0.5842 0.3500
vn 0.8086 -0.5289 0.2578
vn 0.4932 -0.6485 0.5798
vn 0.2691 -0.5617 0.7824
vn 0.2951 -0.5569 0.7764
vn 0.3786 -0.5845 0.7177
vn 0.3533 -0.5309 0.7703
vn 0.2458 -0.7882 0.5643
vn 0.4981 -0.7994 0.3360
vn 0.3739 -0.7610 0.5301
vn 0.1344 -0.7415 0.6574
vn 0.1332 -0.9106 0.3913
vn 0.3525 -0.9249 0.1426
vn 0.2411 -0.9261 0.2904
vn -0.0588 -0.8965 0.4390
vn 0.1586 -0.9181 0.3631
vn 0.3781 -0.9253 -0.0286
vn 0.4632 -0.8837 -0.0669
vn 0.1353 -0.9672 0.2151
vn -0.1960 -0.8843 0.4237
vn -0.2222 -0.8748 0.4305
vn 0.8032 -0.5875 0.0988
vn 0.4579 -0.6102 0.6465
vn 0.7240 -0.5581 0.4055
vn 0.3027 -0.5221 0.7973
vn 0.3603 -0.5223 0.7729
vn 0.4215 -0.5353 0.7319
vn 0.3775 -0.7336 0.5652
vn 0.6875 -0.3427 0.6402
vn 0.6961 -0.2310 0.6798
vn -0.2832 -0.2146 0.9347
vn -0.1998 -0.3431 0.9178
vn 0.9341 -0.2831 -0.2176
vn 0.9335 -0.2395 -0.2669
vn -0.7934 -0.3134 -0.5218
vn -0.7047 -0.1975 -0.6815
vn 0.2490 -0.2441 -0.9372
vn 0.3143 -0.3256 -0.8917
vn -0.8319 -0.3423 0.4368
vn -0.9517 -0.1759 0.2517
vn -0.7047 -0.1974 -0.6815
vn -0.3217 0.1453 0.9356
vn 0.7168 0.0438 0.6959
vn 0.0845 0.9964 0.0020
vn 0.9404 0.0234 -0.3393
vn 0.3481 0.0814 -0.9339
vn -0.6882 0.1664 -0.7061
vn -0.6883 0.1664 -0.7061
vn -0.9250 0.1839 0.3324
vn -0.0244 -0.9987 -0.0458
vn -0.0244 -0.9987 -0.0457
vn 0.8224 -0.1997 0.5328
vn 0.8687 -0.1066 0.4837
vn 0.0012 0.1116 0.9938
vn 0.0715 0.0757 0.9946
vn 0.7967 -0.5343 -0.2826
vn 0.7873 -0.4434 -0.4284
vn 0.8223 -0.1997 0.5328
vn -0.9290 -0.3569 -0.0975
vn -0.8757 -0.3028 -0.3762
vn -0.0503 -0.5586 -0.8279
vn 0.0012 -0.7310 -0.6824
vn -0.6755 0.0018 0.7373
vn -0.8448 0.0477 0.5330
vn -0.8757 -0.3027 -0.3762
vn -0.0075 0.4075 0.9132
vn 0.8933 0.1253 0.4317
vn 0.1472 0.9415 -0.3032
vn 0.7960 -0.1544 -0.5853
vn 0.1472 0.9415 -0.3031
vn 0.0448 -0.1616 -0.9858
vn -0.8586 0.1060 -0.5015
vn 0.1471 0.9415 -0.3032
vn -0.7623 0.3896 0.5168
vn -0.0503 -0.5587 -0.8278
vn -0.6755 0.0018 0.7374
vn -0.1038 -0.9060 0.4104
vn -0.1038 -0.9059 0.4105
vn -0.1037 -0.9060 0.4105
vn -0.1038 -0.9060 0.4105
vn -0.4286 -0.8033 -0.4135
vn -0.4778 -0.7262 -0.4943
vn 0.4222 -0.4014 -0.8128
vn 0.3939 -0.5421 -0.7423
vn -0.7350 -0.5632 0.3777
vn -0.7529 -0.5109 0.4148
vn -0.4777 -0.7262 -0.4944
vn 0.8182 0.2162 0.5328
vn 0.6804 0.3317 0.6535
vn -0.1780 -0.0107 0.9840
vn -0.2014 -0.1231 0.9718
vn 0.9323 -0.1186 -0.3418
vn 0.9605 0.1342 -0.2439
vn 0.2977 -0.0640 -0.9525
vn -0.6192 -0.4965 -0.6083
vn -0.4899 0.8058 -0.3327
vn -0.8868 -0.2526 0.3871
vn -0.4156 0.2440 0.8762
vn 0.5054 0.6657 0.5490
vn 0.7863 0.4236 -0.4497
vn -0.2014 -0.1230 0.9717
vn 0.4332 -0.8175 0.3794
vn 0.4332 -0.8176 0.3793
vn 0.4332 -0.8176 0.3794
vn -0.6603 0.4600 0.5936
vn -0.6473 0.5569 0.5205
vn -0.9540 0.0503 -0.2957
vn -0.9894 0.0128 -0.1444
vn 0.1336 0.3031 0.9435
vn 0.1991 0.3048 0.9314
vn -0.6473 0.5568 0.5205
vn 0.2220 -0.9325 -0.2850
vn 0.4259 -0.8704 -0.2471
vn 0.7150 -0.4071 0.5684
vn 0.6408 -0.3980 0.6564
vn -0.6249 -0.5865 -0.5153
vn -0.4025 -0.6263 -0.6677
vn -0.7837 0.2807 -0.5541
vn -0.5247 0.7705 0.3620
vn 0.4729 0.7065 -0.5265
vn -0.5247 0.7704 0.3620
vn 0.3958 0.4682 0.7900
vn 0.4728 0.7066 -0.5265
vn 0.8908 -0.1148 0.4396
vn 0.6349 -0.6190 -0.4623
vn 0.6349 -0.6191 -0.4623
vn -0.2913 -0.3257 -0.8995
vn -0.4025 -0.6262 -0.6677
vn 0.6409 -0.3980 0.6564
vn 0.7150 -0.4070 0.5684
vn -0.6248 -0.5865 -0.5153
vn -0.4299 -0.6883 0.5844
vn -0.4299 -0.6882 0.5844
vn -0.4300 -0.6882 0.5844
vn 0.8896 -0.4120 0.1971
vn 0.8924 -0.3406 0.2961
vn 0.0458 -0.7382 0.6731
vn 0.1437 -0.8098 0.5688
vn 0.8571 0.1282 -0.4990
vn 0.8330 0.1863 -0.5210
vn -0.8467 -0.2464 -0.4716
vn -0.8299 -0.0476 -0.5558
vn -0.0064 0.3131 -0.9497
vn 0.0827 0.2419 -0.9668
vn -0.5945 -0.7524 0.2835
vn -0.7871 -0.5619 0.2544
vn -0.8466 -0.2464 -0.4717
vn -0.0447 -0.4380 0.8979
vn 0.8774 -0.1042 0.4683
vn -0.0677 0.8395 0.5392
vn 0.7813 0.4574 -0.4247
vn -0.0677 0.8394 0.5392
vn 0.0365 0.6304 -0.7754
vn -0.8847 0.2897 -0.3651
vn -0.8848 0.2896 -0.3651
vn -0.7997 -0.2797 0.5313
vn -0.7996 -0.2797 0.5313
vn 0.1115 -0.8023 -0.5864
vn 0.1115 -0.8024 -0.5863
vn 0.1116 -0.8023 -0.5864
vn -0.0399 -0.4120 -0.9103
vn 0.0551 -0.3406 -0.9386
vn 0.6383 -0.7382 -0.2185
vn 0.5123 -0.8098 -0.2860
vn -0.7038 0.1282 -0.6987
vn -0.7188 0.1863 -0.6698
vn 0.0550 -0.3406 -0.9386
vn -0.2364 -0.2464 0.9399
vn -0.3221 -0.0476 0.9455
vn -0.9157 0.3131 0.2521
vn -0.9552 0.2419 0.1703
vn 0.4277 -0.7524 0.5009
vn 0.4494 -0.5619 0.6945
vn -0.2365 -0.2464 0.9399
vn 0.8788 -0.4380 -0.1892
vn 0.2252 -0.1042 -0.9687
vn 0.5383 0.8395 -0.0742
vn -0.6124 0.4574 -0.6448
vn 0.5384 0.8394 -0.0742
vn -0.7584 0.6304 0.1655
vn -0.1236 0.2897 0.9491
vn -0.1236 0.2896 0.9491
vn 0.7202 -0.2797 0.6349
vn 0.4495 -0.5619 0.6945
vn -0.9157 0.3131 0.2520
vn -0.5953 -0.8023 0.0440
vn -0.5952 -0.8023 0.0440
s 1
f 1/1/1 2/2/2 3/3/3
f 3/3/3 4/4/4 1/1/1
f 2/2/2 5/5/5 6/6/6
f 6/6/6 3/3/3 2/2/2
f 5/5/5 7/7/7 8/8/8
f 8/8/8 6/6/6 5/5/5
f 7/7/7 9/9/9 10/10/10
f 10/10/10 8/8/8 7/7/7
f 9/9/9 11/11/11 12/12/12
f 12/12/12 10/10/10 9/9/9
f 11/11/11 13/13/13 14/14/14
f 14/14/14 12/12/12 11/11/11
f 13/15/13 15/16/15 16/17/16
f 16/17/16 14/18/14 13/15/13
f 15/16/15 1/1/1 4/4/4
f 4/4/4 16/17/16 15/16/15
f 4/4/4 3/3/3 17/19/17
f 3/3/3 6/6/6 17/19/17
f 6/6/6 8/8/8 17/20/17
f 8/8/8 10/10/10 17/20/17
f 10/10/10 12/12/12 17/20/17
f 12/12/12 14/14/14 17/20/17
f 14/18/14 16/17/16 17/19/17
f 16/17/16 4/4/4 17/19/17
f 2/2/2 1/1/1 18/21/18
f 18/21/18 19/22/19 2/2/2
f 5/5/5 2/2/2 19/22/19
f 19/22/19 20/23/20 5/5/5
f 7/7/7 5/5/5 20/23/20
f 20/23/20 21/24/21 7/7/7
f 9/9/9 7/7/7 21/24/21
f 21/24/21 22/25/22 9/9/9
f 11/11/11 9/9/9 22/25/22
f 22/25/22 23/26/23 11/11/11
f 13/13/13 11/11/11 23/26/23
f 23/26/23 24/27/24 13/13/13
f 15/16/15 13/15/13 24/28/24
f 24/28/24 25/29/25 15/16/15
f 1/1/1 15/16/15 25/29/25
f 25/29/25 18/21/18 1/1/1
f 19/22/19 18/21/18 26/30/26
f 26/30/26 27/31/27 19/22/19
f 20/23/20 19/22/19 27/31/27
f 27/31/27 28/32/28 20/23/20
f 21/24/21 20/23/20 28/32/28
f 28/32/28 29/33/29 21/24/21
f 22/25/22 21/24/21 29/33/29
f 29/33/29 30/34/30 22/25/22
f 23/26/23 22/25/22 30/34/30
f 30/34/30 31/35/31 23/26/23
f 24/27/24 23/26/23 31/35/31
f 31/35/31 32/36/32 24/27/24
f 25/29/25 24/28/24 32/37/32
f 32/37/32 33/38/33 25/29/25
f 18/21/18 25/29/25 33/38/33
f 33/38/33 26/30/26 18/21/18
f 27/31/27 26/30/26 34/39/34
f 34/39/34 35/40/35 27/31/27
f 28/32/28 27/31/27 35/40/35
f 35/40/35 36/41/36 28/32/28
f 29/33/29 28/32/28 36/41/36
f 36/41/36 37/42/37 29/33/29
f 30/34/30 29/33/29 37/42/37
f 37/42/37 38/43/38 30/34/30
f 31/35/31 30/34/30 38/43/38
f 38/43/38 39/44/39 31/35/31
f 32/36/32 31/35/31 39/44/39
f 39/44/39 40/45/40 32/36/32
f 33/38/33 32/37/32 40/46/40
f 40/46/40 41/47/41 33/38/33
f 26/30/26 33/38/33 41/47/41
f 41/47/41 34/39/34 26/30/26
f 35/40/35 34/39/34 42/48/42
f 42/48/42 43/49/43 35/40/35
f 36/41/36 35/40/35 43/49/43
f 43/49/43 44/50/44 36/41/36
f 37/42/37 36/41/36 44/50/44
f 44/50/44 45/51/45 37/42/37
f 38/43/38 37/42/37 45/51/45
f 45/51/45 46/52/46 38/43/38
f 39/44/39 38/43/38 46/52/46
f 46/52/46 47/53/47 39/44/39
f 40/45/40 39/44/39 47/53/47
f 47/53/47 48/54/48 40/45/40
f 41/47/41 40/46/40 48/55/48
f 48/55/48 49/56/49 41/47/41
f 34/39/34 41/47/41 49/56/49
f 49/56/49 42/48/42 34/39/34
f 43/49/43 42/48/42 50/57/50
f 44/50/44 43/49/43 50/57/50
f 45/51/45 44/50/44 50/58/50
f 46/52/46 45/51/45 50/58/50
f 47/53/47 46/52/46 50/58/50
f 48/54/48 47/53/47 50/58/50
f 49/56/49 48/55/48 50/57/50
f 42/48/42 49/56/49 50/57/50
s 2
f 51/59/51 52/60/52 53/61/53
f 54/62/54 55/63/55 52/60/52
f 55/63/55 56/64/56 57/65/57
f 57/65/57 56/64/56 58/66/58
f 53/61/53 59/67/59 60/68/60
f 52/60/52 55/63/55 59/67/59
f 55/63/55 61/69/61 62/70/62
f 57/65/57 58/66/58 61/69/61
f 60/68/60 59/67/59 63/71/63
f 59/67/59 64/72/64 65/73/65
f 62/70/62 61/69/61 64/72/64
f 66/74/66 61/69/61 67/75/67
f 68/76/68 65/73/65 69/77/69
f 65/73/65 64/72/64 69/77/69
f 64/72/64 70/78/70 71/79/71
f 70/78/70 66/74/66 72/80/72
f 51/59/51 73/81/73 54/62/54
f 54/62/54 74/82/74 75/83/75
f 75/83/75 76/84/76 56/64/56
f 56/64/56 77/85/77 78/86/78
f 66/74/66 67/75/67 72/80/72
f 68/76/68 63/71/63 65/73/65
f 56/64/56 76/84/76 77/85/77
f 73/81/73 74/82/74 54/62/54
f 74/82/74 79/87/79 75/83/75
f 75/83/75 79/87/79 76/84/76
f 61/69/61 80/88/80 67/75/67
f 51/59/51 54/62/54 52/60/52
f 54/62/54 75/83/75 55/63/55
f 55/63/55 75/83/75 56/64/56
f 59/67/59 62/70/62 64/72/64
f 61/69/61 66/74/66 64/72/64
f 64/72/64 71/79/71 69/77/69
f 64/72/64 66/74/66 70/78/70
f 55/63/55 62/70/62 59/67/59
f 55/63/55 57/65/57 61/69/61
f 58/66/58 80/88/80 61/69/61
f 53/61/53 52/60/52 59/67/59
f 59/67/59 65/73/65 63/71/63
f 56/64/56 78/86/78 58/66/58
s 3
f 81/89/81 82/90/82 83/91/83
f 84/92/84 83/91/83 85/93/85
f 85/93/85 86/94/86 87/95/87
f 86/94/86 88/96/88 87/95/87
f 82/90/82 89/97/89 90/98/90
f 83/91/83 90/98/90 85/93/85
f 85/93/85 91/99/91 92/100/92
f 86/94/86 92/100/92 88/96/88
f 89/97/89 93/101/93 90/98/90
f 90/98/90 94/102/94 95/103/95
f 91/99/91 95/103/95 92/100/92
f 96/104/96 97/105/97 92/100/92
f 98/106/98 99/107/99 94/102/94
f 94/102/94 99/107/99 95/103/95
f 95/103/95 100/108/100 101/109/101
f 101/109/101 102/110/102 96/104/96
f 81/89/81 84/92/84 103/111/103
f 84/92/84 104/112/104 105/113/105
f 104/112/104 87/95/87 106/114/106
f 87/95/87 107/115/107 108/116/108
f 96/104/96 102/110/102 97/105/97
f 98/106/98 94/102/94 93/101/93
f 87/95/87 108/116/108 106/114/106
f 103/111/103 84/92/84 105/113/105
f 105/113/105 104/112/104 109/117/109
f 104/112/104 106/114/106 109/117/109
f 92/100/92 97/105/97 110/118/110
f 81/89/81 83/91/83 84/92/84
f 84/92/84 85/93/85 104/112/104
f 85/93/85 87/95/87 104/112/104
f 90/98/90 95/103/95 91/99/91
f 92/100/92 95/103/95 96/104/96
f 95/103/95 99/107/99 100/108/100
f 95/103/95 101/109/101 96/104/96
f 85/93/85 90/98/90 91/99/91
f 85/93/85 92/100/92 86/94/86
f 88/96/88 92/100/92 110/118/110
f 82/90/82 90/98/90 83/91/83
f 90/98/90 93/101/93 94/102/94
f 87/95/87 88/96/88 107/115/107
s 4
f 111/119/111 112/120/112 113/121/113
f 114/122/114 115/123/115 112/120/112
f 115/123/115 116/124/116 117/125/117
f 117/125/117 116/124/116 118/126/118
f 113/121/113 119/127/119 120/128/120
f 112/120/112 115/123/115 119/127/119
f 115/123/115 121/129/121 122/130/122
f 117/125/117 118/126/118 121/129/121
f 120/128/120 119/127/119 123/131/123
f 119/127/119 124/132/124 125/133/125
f 122/130/122 121/129/121 124/132/124
f 126/134/126 121/129/121 127/135/127
f 128/136/128 125/133/125 129/137/129
f 125/133/125 124/132/124 129/137/129
f 124/132/124 130/138/130 131/139/131
f 130/138/130 126/134/126 132/140/132
f 111/119/111 133/141/133 114/122/114
f 114/122/114 134/142/134 135/143/135
f 135/143/135 136/144/136 116/124/116
f 116/124/116 137/145/137 138/146/138
f 126/134/126 127/135/127 132/140/132
f 128/136/128 123/131/123 125/133/125
f 116/124/116 136/144/136 137/145/137
f 133/141/133 134/142/134 114/122/114
f 134/142/134 139/147/139 135/143/135
f 135/143/135 139/147/139 136/144/136
f 121/129/121 140/148/140 127/135/127
f 111/119/111 114/122/114 112/120/112
f 114/122/114 135/143/135 115/123/115
f 115/123/115 135/143/135 116/124/116
f 119/127/119 122/130/122 124/132/124
f 121/129/121 126/134/126 124/132/124
f 124/132/124 131/139/131 129/137/129
f 124/132/124 126/134/126 130/138/130
f 115/123/115 122/130/122 119/127/119
f 115/123/115 117/125/117 121/129/121
f 118/126/118 140/148/140 121/129/121
f 113/121/113 112/120/112 119/127/119
f 119/127/119 125/133/125 123/131/123
f 116/124/116 138/146/138 118/126/118
s 5
f 141/149/141 142/150/142 143/151/143
f 144/152/144 143/151/143 145/153/145
f 145/153/145 146/154/146 147/155/147
f 146/154/146 148/156/148 147/155/147
f 142/150/142 149/157/149 150/158/150
f 143/151/143 150/158/150 145/153/145
f 145/153/145 151/159/151 152/160/152
f 146/154/146 152/160/152 148/156/148
f 149/157/149 153/161/153 150/158/150
f 150/158/150 154/162/154 155/163/155
f 151/159/151 155/163/155 152/160/152
f 156/164/156 157/165/157 152/160/152
f 158/166/158 159/167/159 154/162/154
f 154/162/154 159/167/159 155/163/155
f 155/163/155 160/168/160 161/169/161
f 161/169/161 162/170/162 156/164/156
f 141/149/141 144/152/144 163/171/163
f 144/152/144 164/172/164 165/173/165
f 164/172/164 147/155/147 166/174/166
f 147/155/147 167/175/167 168/176/168
f 156/164/156 162/170/162 157/165/157
f 158/166/158 154/162/154 153/161/153
f 147/155/147 168/176/168 166/174/166
f 163/171/163 144/152/144 165/173/165
f 165/173/165 164/172/164 169/177/169
f 164/172/164 166/174/166 169/177/169
f 152/160/152 157/165/157 170/178/170
f 141/149/141 143/151/143 144/152/144
f 144/152/144 145/153/145 164/172/164
f 145/153/145 147/155/147 164/172/164
f 150/158/150 155/163/155 151/159/151
f 152/160/152 155/163/155 156/164/156
f 155/163/155 159/167/159 160/168/160
f 155/163/155 161/169/161 156/164/156
f 145/153/145 150/158/150 151/159/151
f 145/153/145 152/160/152 146/154/146
f 148/156/148 152/160/152 170/178/170
f 142/150/142 150/158/150 143/151/143
f 150/158/150 153/161/153 154/162/154
f 147/155/147 148/156/148 167/175/167
s 6
f 171/179/171 172/180/172 173/181/173
f 174/182/174 175/183/175 172/180/172
f 175/183/175 176/184/176 177/185/177
f 177/185/177 178/186/178 179/187/179
f 173/181/173 180/188/180 181/189/181
f 172/180/172 175/183/175 180/188/180
f 175/183/175 182/190/182 183/191/183
f 177/185/177 179/187/179 182/190/182
f 181/189/181 180/188/180 184/192/184
f 180/188/180 185/193/185 186/194/186
f 183/191/183 182/190/182 185/193/185
f 187/195/187 182/190/182 188/196/188
f 189/197/189 186/194/186 190/198/190
f 186/194/186 185/193/185 190/198/190
f 185/193/185 191/199/191 192/200/192
f 191/199/191 187/195/187 193/201/193
f 171/179/171 194/202/194 174/182/174
f 174/182/174 195/203/195 196/204/196
f 196/204/196 197/205/197 176/184/176
f 176/184/176 198/206/198 178/186/178
f 187/195/187 188/196/188 193/201/193
f 189/197/189 184/192/184 186/194/186
f 176/184/176 197/205/197 198/206/198
f 194/202/194 195/203/195 174/182/174
f 195/203/195 199/207/199 196/204/196
f 196/204/196 199/207/199 197/205/197
f 182/190/182 200/208/200 188/196/188
f 171/179/171 174/182/174 172/180/172
f 174/182/174 196/204/196 175/183/175
f 175/183/175 196/204/196 176/184/176
f 177/185/177 176/184/176 178/186/178
f 180/188/180 183/191/183 185/193/185
f 182/190/182 187/195/187 185/193/185
f 185/193/185 192/200/192 190/198/190
f 185/193/185 187/195/187 191/199/191
f 175/183/175 183/191/183 180/188/180
f 175/183/175 177/185/177 182/190/182
f 179/187/179 200/208/200 182/190/182
f 173/181/173 172/180/172 180/188/180
f 180/188/180 186/194/186 184/192/184
s 7
f 201/209/201 202/210/202 203/211/203
f 204/212/204 203/211/203 205/213/205
f 205/213/205 206/214/206 207/215/207
f 206/214/206 208/216/208 209/217/209
f 202/210/202 210/218/210 211/219/211
f 203/211/203 211/219/211 205/213/205
f 205/213/205 212/220/212 213/221/213
f 206/214/206 213/221/213 208/216/208
f 210/218/210 214/222/214 211/219/211
f 211/219/211 215/223/215 216/224/216
f 212/220/212 216/224/216 213/221/213
f 217/225/217 218/226/218 213/221/213
f 219/227/219 220/228/220 215/223/215
f 215/223/215 220/228/220 216/224/216
f 216/224/216 221/229/221 222/230/222
f 222/230/222 223/231/223 217/225/217
f 201/209/201 204/212/204 224/232/224
f 204/212/204 225/233/225 226/234/226
f 225/233/225 207/215/207 227/235/227
f 207/215/207 209/217/209 228/236/228
f 217/225/217 223/231/223 218/226/218
f 219/227/219 215/223/215 214/222/214
f 207/215/207 228/236/228 227/235/227
f 224/232/224 204/212/204 226/234/226
f 226/234/226 225/233/225 229/237/229
f 225/233/225 227/235/227 229/237/229
f 213/221/213 218/226/218 230/238/230
f 201/209/201 203/211/203 204/212/204
f 204/212/204 205/213/205 225/233/225
f 205/213/205 207/215/207 225/233/225
f 206/214/206 209/217/209 207/215/207
f 211/219/211 216/224/216 212/220/212
f 213/221/213 216/224/216 217/225/217
f 216/224/216 220/228/220 221/229/221
f 216/224/216 222/230/222 217/225/217
f 205/213/205 211/219/211 212/220/212
f 205/213/205 213/221/213 206/214/206
f 208/216/208 213/221/213 230/238/230
f 202/210/202 211/219/211 203/211/203
f 211/219/211 214/222/214 215/223/215
s 8
f 231/239/231 232/240/232 233/241/233
f 234/242/234 235/243/235 232/240/232
f 235/243/235 236/244/236 237/245/237
f 237/245/237 238/246/238 239/247/239
f 233/241/233 240/248/240 241/249/241
f 232/240/232 235/243/235 240/248/240
f 235/243/235 242/250/242 243/251/243
f 237/245/237 239/247/239 242/250/242
f 241/249/241 240/248/240 244/252/244
f 240/248/240 245/253/245 246/254/246
f 243/251/243 242/250/242 245/253/245
f 247/255/247 242/250/242 248/256/248
f 249/257/249 246/254/246 250/258/250
f 246/254/246 245/253/245 250/258/250
f 245/253/245 251/259/251 252/260/252
f 251/259/251 247/255/247 253/261/253
f 231/239/231 254/262/254 234/242/234
f 234/242/234 255/263/255 256/264/256
f 256/264/256 257/265/257 236/244/236
f 236/244/236 258/266/258 238/246/238
f 247/255/247 248/256/248 253/261/253
f 249/257/249 244/252/244 246/254/246
f 236/244/236 257/265/257 258/266/258
f 254/262/254 255/263/255 234/242/234
f 255/263/255 259/267/259 256/264/256
f 256/264/256 259/267/259 257/265/257
f 242/250/242 260/268/260 248/256/248
f 231/239/231 234/242/234 232/240/232
f 234/242/234 256/264/256 235/243/235
f 235/243/235 256/264/256 236/244/236
f 237/245/237 236/244/236 238/246/238
f 240/248/240 243/251/243 245/253/245
f 242/250/242 247/255/247 245/253/245
f 245/253/245 252/260/252 250/258/250
f 245/253/245 247/255/247 251/259/251
f 235/243/235 243/251/243 240/248/240
f 235/243/235 237/245/237 242/250/242
f 239/247/239 260/268/260 242/250/242
f 233/241/233 232/240/232 240/248/240
f 240/248/240 246/254/246 244/252/244
s 9
f 261/269/261 262/270/262 263/271/263
f 264/272/264 263/271/263 265/273/265
f 265/273/265 266/274/266 267/275/267
f 266/274/266 268/276/268 269/277/269
f 262/270/262 270/278/270 271/279/271
f 263/271/263 271/279/271 265/273/265
f 265/273/265 272/280/272 273/281/273
f 266/274/266 273/281/273 268/276/268
f 270/278/270 274/282/274 271/279/271
f 271/279/271 275/283/275 276/284/276
f 272/280/272 276/284/276 273/281/273
f 277/285/277 278/286/278 273/281/273
f 279/287/279 280/288/280 275/283/275
f 275/283/275 280/288/280 276/284/276
f 276/284/276 281/289/281 282/290/282
f 282/290/282 283/291/283 277/285/277
f 261/269/261 264/272/264 284/292/284
f 264/272/264 285/293/285 286/294/286
f 285/293/285 267/275/267 287/295/287
f 267/275/267 269/277/269 288/296/288
f 277/285/277 283/291/283 278/286/278
f 279/287/279 275/283/275 274/282/274
f 267/275/267 288/296/288 287/295/287
f 284/292/284 264/272/264 286/294/286
f 286/294/286 285/293/285 289/297/289
f 285/293/285 287/295/287 289/297/289
f 273/281/273 278/286/278 290/298/290
f 261/269/261 263/271/263 264/272/264
f 264/272/264 265/273/265 285/293/285
f 265/273/265 267/275/267 285/293/285
f 266/274/266 269/277/269 267/275/267
f 271/279/271 276/284/276 272/280/272
f 273/281/273 276/284/276 277/285/277
f 276/284/276 280/288/280 281/289/281
f 276/284/276 282/290/282 277/285/277
f 265/273/265 271/279/271 272/280/272
f 265/273/265 273/281/273 266/274/266
f 268/276/268 273/281/273 290/298/290
f 262/270/262 271/279/271 263/271/263
f 271/279/271 274/282/274 275/283/275
s 10
f 291/299/291 292/300/292 293/301/293
f 294/302/294 295/303/295 292/300/292
f 295/303/295 296/304/296 297/305/297
f 297/305/297 298/306/298 299/307/299
f 293/301/293 300/308/300 301/309/301
f 292/300/292 295/303/295 300/308/300
f 295/303/295 302/310/302 303/311/303
f 297/305/297 299/307/299 302/310/302
f 301/309/301 300/308/300 304/312/304
f 300/308/300 305/313/305 306/314/306
f 303/311/303 302/310/302 305/313/305
f 307/315/307 302/310/302 308/316/308
f 309/317/309 306/314/306 310/318/310
f 306/314/306 305/313/305 310/318/310
f 305/313/305 311/319/311 312/320/312
f 311/319/311 307/315/307 313/321/313
f 291/299/291 314/322/314 294/302/294
f 294/302/294 315/323/315 316/324/316
f 316/324/316 317/325/317 296/304/296
f 296/304/296 318/326/318 298/306/298
f 307/315/307 308/316/308 313/321/313
f 309/317/309 304/312/304 306/314/306
f 296/304/296 317/325/317 318/326/318
f 314/322/314 315/323/315 294/302/294
f 315/323/315 319/327/319 316/324/316
f 316/324/316 319/327/319 317/325/317
f 302/310/302 320/328/320 308/316/308
f 291/299/291 294/302/294 292/300/292
f 294/302/294 316/324/316 295/303/295
f 295/303/295 316/324/316 296/304/296
f 297/305/297 296/304/296 298/306/298
f 300/308/300 303/311/303 305/313/305
f 302/310/302 307/315/307 305/313/305
f 305/313/305 312/320/312 310/318/310
f 305/313/305 307/315/307 311/319/311
f 295/303/295 303/311/303 300/308/300
f 295/303/295 297/305/297 302/310/302
f 299/307/299 320/328/320 302/310/302
f 293/301/293 292/300/292 300/308/300
f 300/308/300 306/314/306 304/312/304
s 11
f 321/329/321 322/330/322 323/331/323
f 324/332/324 323/331/323 325/333/325
f 325/333/325 326/334/326 327/335/327
f 326/334/326 328/336/328 329/337/329
f 322/330/322 330/338/330 331/339/331
f 323/331/323 331/339/331 325/333/325
f 325/333/325 332/340/332 333/341/333
f 326/334/326 333/341/333 328/336/328
f 330/338/330 334/342/334 331/339/331
f 331/339/331 335/343/335 336/344/336
f 332/340/332 336/344/336 333/341/333
f 337/345/337 338/346/338 333/341/333
f 339/347/339 340/348/340 335/343/335
f 335/343/335 340/348/340 336/344/336
f 336/344/336 341/349/341 342/350/342
f 342/350/342 343/351/343 337/345/337
f 321/329/321 324/332/324 344/352/344
f 324/332/324 345/353/345 346/354/346
f 345/353/345 327/335/327 347/355/347
f 327/335/327 329/337/329 348/356/348
f 337/345/337 343/351/343 338/346/338
f 339/347/339 335/343/335 334/342/334
f 327/335/327 348/356/348 347/355/347
f 344/352/344 324/332/324 346/354/346
f 346/354/346 345/353/345 349/357/349
f 345/353/345 347/355/347 349/357/349
f 333/341/333 338/346/338 350/358/350
f 321/329/321 323/331/323 324/332/324
f 324/332/324 325/333/325 345/353/345
f 325/333/325 327/335/327 345/353/345
f 326/334/326 329/337/329 327/335/327
f 331/339/331 336/344/336 332/340/332
f 333/341/333 336/344/336 337/345/337
f 336/344/336 340/348/340 341/349/341
f 336/344/336 342/350/342 337/345/337
f 325/333/325 331/339/331 332/340/332
f 325/333/325 333/341/333 326/334/326
f 328/336/328 333/341/333 350/358/350
f 322/330/322 331/339/331 323/331/323
f 331/339/331 334/342/334 335/343/335
s 12
f 351/359/351 352/360/352 353/361/353
f 354/362/354 355/363/355 352/360/352
f 355/363/355 356/364/356 357/365/357
f 357/365/357 356/364/356 358/366/358
f 353/361/353 359/367/359 360/368/360
f 352/360/352 355/363/355 359/367/359
f 355/363/355 361/369/361 362/370/362
f 357/365/357 358/366/358 361/369/361
f 360/368/360 359/367/359 363/371/363
f 359/367/359 364/372/364 365/373/365
f 362/370/362 361/369/361 364/372/364
f 366/374/366 361/369/361 367/375/367
f 368/376/368 365/373/365 369/377/369
f 365/373/365 364/372/364 369/377/369
f 364/372/364 370/378/370 371/379/371
f 370/378/370 366/374/366 372/380/372
f 351/359/351 373/381/373 354/362/354
f 354/362/354 374/382/374 375/383/375
f 375/383/375 376/384/376 356/364/356
f 356/364/356 377/385/377 378/386/378
f 366/374/366 367/375/367 372/380/372
f 368/376/368 363/371/363 365/373/365
f 356/364/356 376/384/376 377/385/377
f 373/381/373 374/382/374 354/362/354
f 374/382/374 379/387/379 375/383/375
f 375/383/375 379/387/379 376/384/376
f 361/369/361 380/388/380 367/375/367
f 351/359/351 354/362/354 352/360/352
f 354/362/354 375/383/375 355/363/355
f 355/363/355 375/383/375 356/364/356
f 359/367/359 362/370/362 364/372/364
f 361/369/361 366/374/366 364/372/364
f 364/372/364 371/379/371 369/377/369
f 364/372/364 366/374/366 370/378/370
f 355/363/355 362/370/362 359/367/359
f 355/363/355 357/365/357 361/369/361
f 358/366/358 380/388/380 361/369/361
f 353/361/353 352/360/352 359/367/359
f 359/367/359 365/373/365 363/371/363
f 356/364/356 378/386/378 358/366/358
s 13
f 381/389/381 382/390/382 383/391/383
f 384/392/384 383/391/383 385/393/385
f 385/393/385 386/394/386 387/395/387
f 386/394/386 388/396/388 387/395/387
f 382/390/382 389/397/389 390/398/390
f 383/391/383 390/398/390 385/393/385
f 385/393/385 391/399/391 392/400/392
f 386/394/386 392/400/392 388/396/388
f 389/397/389 393/401/393 390/398/390
f 390/398/390 394/402/394 395/403/395
f 391/399/391 395/403/395 392/400/392
f 396/404/396 397/405/397 392/400/392
f 398/406/398 399/407/399 394/402/394
f 394/402/394 399/407/399 395/403/395
f 395/403/395 400/408/400 401/409/401
f 401/409/401 402/410/402 396/404/396
f 381/389/381 384/392/384 403/411/403
f 384/392/384 404/412/404 405/413/405
f 404/412/404 387/395/387 406/414/406
f 387/395/387 407/415/407 408/416/408
f 396/404/396 402/410/402 397/405/397
f 398/406/398 394/402/394 393/401/393
f 387/395/387 408/416/408 406/414/406
f 403/411/403 384/392/384 405/413/405
f 405/413/405 404/412/404 409/417/409
f 404/412/404 406/414/406 409/417/409
f 392/400/392 397/405/397 410/418/410
f 381/389/381 383/391/383 384/392/384
f 384/392/384 385/393/385 404/412/404
f 385/393/385 387/395/387 404/412/404
f 390/398/390 395/403/395 391/399/391
f 392/400/392 395/403/395 396/404/396
f 395/403/395 399/407/399 400/408/400
f 395/403/395 401/409/401 396/404/396
f 385/393/385 390/398/390 391/399/391
f 385/393/385 392/400/392 386/394/386
f 388/396/388 392/400/392 410/418/410
f 382/390/382 390/398/390 383/391/383
f 390/398/390 393/401/393 394/402/394
f 387/395/387 388/396/388 407/415/407
s 14
f 411/419/411 412/420/412 413/421/413
f 414/422/414 415/423/415 412/420/412
f 415/423/415 416/424/416 417/425/417
f 417/425/417 418/426/418 419/427/419
f 413/421/413 420/428/420 421/429/421
f 412/420/412 415/423/415 420/428/420
f 415/423/415 422/430/422 423/431/423
f 417/425/417 419/427/419 422/430/422
f 421/429/421 420/428/420 424/432/424
f 420/428/420 425/433/425 426/434/426
f 423/431/423 422/430/422 425/433/425
f 427/435/427 422/430/422 428/436/428
f 429/437/429 426/434/426 430/438/430
f 426/434/426 425/433/425 430/438/430
f 425/433/425 431/439/431 432/440/432
f 431/439/431 427/435/427 433/441/433
f 411/419/411 434/442/434 414/422/414
f 414/422/414 435/443/435 436/444/436
f 436/444/436 437/445/437 416/424/416
f 416/424/416 438/446/438 418/426/418
f 427/435/427 428/436/428 433/441/433
f 429/437/429 424/432/424 426/434/426
f 416/424/416 437/445/437 438/446/438
f 434/442/434 435/443/435 414/422/414
f 435/443/435 439/447/439 436/444/436
f 436/444/436 439/447/439 437/445/437
f 422/430/422 440/448/440 428/436/428
f 411/419/411 414/422/414 412/420/412
f 414/422/414 436/444/436 415/423/415
f 415/423/415 436/444/436 416/424/416
f 417/425/417 416/424/416 418/426/418
f 420/428/420 423/431/423 425/433/425
f 422/430/422 427/435/427 425/433/425
f 425/433/425 432/440/432 430/438/430
f 425/433/425 427/435/427 431/439/431
f 415/423/415 423/431/423 420/428/420
f 415/423/415 417/425/417 422/430/422
f 419/427/419 440/448/440 422/430/422
f 413/421/413 412/420/412 420/428/420
f 420/428/420 426/434/426 424/432/424
s 15
f 441/449/441 442/450/442 443/451/443
f 444/452/444 443/451/443 445/453/445
f 445/453/445 446/454/446 447/455/447
f 446/454/446 448/456/448 449/457/449
f 442/450/442 450/458/450 451/459/451
f 443/451/443 451/459/451 445/453/445
f 445/453/445 452/460/452 453/461/453
f 446/454/446 453/461/453 448/456/448
f 450/458/450 454/462/454 451/459/451
f 451/459/451 455/463/455 456/464/456
f 452/460/452 456/464/456 453/461/453
f 457/465/457 458/466/458 453/461/453
f 459/467/459 460/468/460 455/463/455
f 455/463/455 460/468/460 456/464/456
f 456/464/456 461/469/461 462/470/462
f 462/470/462 463/471/463 457/465/457
f 441/449/441 444/452/444 464/472/464
f 444/452/444 465/473/465 466/474/466
f 465/473/465 447/455/447 467/475/467
f 447/455/447 449/457/449 468/476/468
f 457/465/457 463/471/463 458/466/458
f 459/467/459 455/463/455 454/462/454
f 447/455/447 468/476/468 467/475/467
f 464/472/464 444/452/444 466/474/466
f 466/474/466 465/473/465 469/477/469
f 465/473/465 467/475/467 469/477/469
f 453/461/453 458/466/458 470/478/470
f 441/449/441 443/451/443 444/452/444
f 444/452/444 445/453/445 465/473/465
f 445/453/445 447/455/447 465/473/465
f 446/454/446 449/457/449 447/455/447
f 451/459/451 456/464/456 452/460/452
f 453/461/453 456/464/456 457/465/457
f 456/464/456 460/468/460 461/469/461
f 456/464/456 462/470/462 457/465/457
f 445/453/445 451/459/451 452/460/452
f 445/453/445 453/461/453 446/454/446
f 448/456/448 453/461/453 470/478/470
f 442/450/442 451/459/451 443/451/443
f 451/459/451 454/462/454 455/463/455
s 16
f 471/479/471 472/480/472 473/481/473
f 473/481/473 474/482/474 471/479/471
s 17
f 475/483/475 476/484/476 472/485/472
f 472/485/472 471/486/471 475/483/475
s 18
f 477/487/477 478/488/478 479/489/479
f 479/489/479 480/490/480 477/487/477
s 19
f 481/491/481 482/492/482 478/493/483
f 478/493/483 477/494/477 481/491/481
s 16
f 483/495/484 484/496/485 485/497/486
s 17
f 484/498/485 486/499/487 485/497/486
s 18
f 487/500/488 488/501/489 485/497/486
s 19
f 488/502/490 489/503/491 485/497/486
s 16
f 484/496/485 483/495/484 473/481/473
f 473/481/473 472/480/472 484/496/485
s 17
f 486/499/487 484/498/485 472/485/472
f 472/485/472 476/484/476 486/499/487
s 18
f 488/501/489 487/500/488 479/489/479
f 479/489/479 478/488/478 488/501/489
s 19
f 489/503/491 488/502/490 478/493/483
f 478/493/483 482/492/482 489/503/491
s 16
f 483/495/484 489/503/491 482/492/482
f 482/492/482 473/481/473 483/495/484
s 17
f 475/483/475 480/490/480 479/489/479
f 479/489/479 476/484/476 475/483/475
s 16
f 489/503/491 483/495/484 485/497/486
s 17
f 486/499/487 487/500/488 485/497/486
s 16
f 473/481/473 482/492/482 481/491/481
f 481/491/481 474/482/474 473/481/473
s 17
f 476/484/476 479/489/479 487/500/488
f 487/500/488 486/499/487 476/484/476
s 19
f 481/491/481 477/494/477 490/504/492
s 17
f 475/483/475 471/486/471 490/504/493
s 16
f 471/479/471 474/482/474 490/504/493
f 474/482/474 481/491/481 490/504/493
s 18
f 477/487/477 480/490/480 490/504/493
s 17
f 480/490/480 475/483/475 490/504/493
s 20
f 491/505/494 492/506/495 493/507/496
f 493/507/496 494/508/497 491/505/494
s 21
f 495/509/498 496/510/499 492/511/495
f 492/511/495 491/512/500 495/509/498
s 22
f 497/513/501 498/514/502 499/515/503
f 499/515/503 500/516/504 497/513/501
s 23
f 501/517/505 502/518/506 498/519/507
f 498/519/507 497/520/501 501/517/505
s 20
f 503/521/508 504/522/509 505/523/510
s 21
f 504/524/509 506/525/511 505/523/512
s 22
f 507/526/513 508/527/514 505/523/515
s 23
f 508/528/514 509/529/516 505/523/512
s 20
f 504/522/509 503/521/508 493/507/496
f 493/507/496 492/506/495 504/522/509
s 21
f 506/525/511 504/524/509 492/511/495
f 492/511/495 496/510/499 506/525/511
s 22
f 508/527/514 507/526/513 499/515/503
f 499/515/503 498/514/502 508/527/514
s 23
f 509/529/516 508/528/514 498/519/507
f 498/519/507 502/518/506 509/529/516
s 20
f 503/521/508 509/529/516 502/518/506
f 502/518/506 493/507/496 503/521/508
s 21
f 495/509/498 500/516/504 499/515/517
f 499/515/517 496/510/499 495/509/498
s 20
f 509/529/516 503/521/508 505/523/510
s 21
f 506/525/511 507/526/513 505/523/512
s 20
f 493/507/496 502/518/506 501/517/518
f 501/517/518 494/508/497 493/507/496
s 21
f 496/510/499 499/515/517 507/526/513
f 507/526/513 506/525/511 496/510/499
s 23
f 501/517/505 497/520/501 510/530/519
s 21
f 495/509/498 491/512/500 510/530/520
s 20
f 491/505/494 494/508/497 510/530/521
f 494/508/497 501/517/518 510/530/521
s 22
f 497/513/501 500/516/504 510/530/522
s 21
f 500/516/504 495/509/498 510/530/520
s 24
f 511/531/523 512/532/524 513/533/525
f 513/533/525 514/534/526 511/531/523
s 25
f 515/535/527 516/536/528 512/537/529
f 512/537/529 511/538/523 515/535/527
s 26
f 517/539/530 518/540/531 519/541/532
f 519/541/532 520/542/533 517/539/530
s 27
f 521/543/534 522/544/535 518/545/531
f 518/545/531 517/546/530 521/543/534
s 24
f 523/547/536 524/548/537 525/549/538
s 25
f 524/550/537 526/551/539 525/549/538
s 26
f 527/552/540 528/553/541 525/549/538
s 27
f 528/554/541 529/555/542 525/549/538
s 24
f 524/548/537 523/547/536 513/533/525
f 513/533/525 512/532/524 524/548/537
s 25
f 526/551/539 524/550/537 512/537/529
f 512/537/529 516/536/528 526/551/539
s 26
f 528/553/541 527/552/540 519/541/532
f 519/541/532 518/540/531 528/553/541
s 27
f 529/555/542 528/554/541 518/545/531
f 518/545/531 522/544/535 529/555/542
s 24
f 523/547/536 529/555/542 522/544/535
f 522/544/535 513/533/525 523/547/536
s 25
f 515/535/527 520/542/543 519/541/532
f 519/541/532 516/536/528 515/535/527
s 24
f 529/555/542 523/547/536 525/549/538
s 25
f 526/551/539 527/552/540 525/549/538
s 24
f 513/533/525 522/544/535 521/543/534
f 521/543/534 514/534/526 513/533/525
s 25
f 516/536/528 519/541/532 527/552/540
f 527/552/540 526/551/539 516/536/528
s 27
f 521/543/534 517/546/530 530/556/544
s 25
f 515/535/527 511/538/523 530/556/545
s 24
f 511/531/523 514/534/526 530/556/545
f 514/534/526 521/543/534 530/556/545
s 26
f 517/539/530 520/542/533 530/556/546
s 25
f 520/542/543 515/535/527 530/556/545
s 28
f 531/557/547 532/558/548 533/559/549
f 533/559/549 534/560/550 531/557/547
s 29
f 535/561/551 536/562/552 532/563/553
f 532/563/553 531/564/547 535/561/551
s 30
f 537/565/554 538/566/555 539/567/556
f 539/567/556 540/568/557 537/565/554
s 31
f 541/569/558 542/570/559 538/571/555
f 538/571/555 537/572/554 541/569/558
s 28
f 543/573/560 544/574/561 545/575/562
s 29
f 544/576/563 546/577/564 545/575/565
s 30
f 547/578/566 548/579/567 545/575/562
s 31
f 548/580/568 549/581/569 545/575/565
s 28
f 544/574/561 543/573/560 533/559/549
f 533/559/549 532/558/548 544/574/561
s 29
f 546/577/564 544/576/563 532/563/553
f 532/563/553 536/562/552 546/577/564
s 30
f 548/579/567 547/578/566 539/567/556
f 539/567/556 538/566/555 548/579/567
s 31
f 549/581/569 548/580/568 538/571/555
f 538/571/555 542/570/559 549/581/569
s 28
f 543/573/560 549/581/569 542/570/570
f 542/570/570 533/559/549 543/573/560
s 29
f 535/561/551 540/568/571 539/567/572
f 539/567/572 536/562/552 535/561/551
s 28
f 549/581/569 543/573/560 545/575/562
s 29
f 546/577/564 547/578/566 545/575/565
s 28
f 533/559/549 542/570/570 541/569/573
f 541/569/573 534/560/550 533/559/549
s 29
f 536/562/552 539/567/572 547/578/566
f 547/578/566 546/577/564 536/562/552
s 31
f 541/569/558 537/572/554 550/582/574
s 29
f 535/561/551 531/564/547 550/582/575
s 28
f 531/557/547 534/560/550 550/582/576
f 534/560/550 541/569/573 550/582/576
s 30
f 537/565/554 540/568/557 550/582/576
s 29
f 540/568/571 535/561/551 550/582/575
s 32
f 551/583/577 552/584/578 553/585/579
f 553/585/579 554/586/580 551/583/577
s 33
f 555/587/581 556/588/582 552/589/578
f 552/589/578 551/590/577 555/587/581
s 34
f 557/591/583 558/592/584 559/593/585
f 559/593/585 560/594/586 557/591/583
s 35
f 561/595/587 562/596/588 558/597/584
f 558/597/584 557/598/589 561/595/587
s 32
f 563/599/590 564/600/591 565/601/592
s 33
f 564/602/591 566/603/593 565/601/594
s 34
f 567/604/595 568/605/596 565/601/592
s 35
f 568/606/597 569/607/598 565/601/594
s 32
f 564/600/591 563/599/590 553/585/579
f 553/585/579 552/584/578 564/600/591
s 33
f 566/603/593 564/602/591 552/589/578
f 552/589/578 556/588/582 566/603/593
s 34
f 568/605/596 567/604/595 559/593/585
f 559/593/585 558/592/584 568/605/596
s 35
f 569/607/598 568/606/597 558/597/584
f 558/597/584 562/596/588 569/607/598
s 32
f 563/599/590 569/607/599 562/596/588
f 562/596/588 553/585/579 563/599/590
s 33
f 555/587/581 560/594/586 559/593/585
f 559/593/585 556/588/582 555/587/581
s 32
f 569/607/599 563/599/590 565/601/592
s 33
f 566/603/593 567/604/595 565/601/594
s 32
f 553/585/579 562/596/588 561/595/587
f 561/595/587 554/586/580 553/585/579
s 33
f 556/588/582 559/593/585 567/604/595
f 567/604/595 566/603/593 556/588/582
s 35
f 561/595/587 557/598/589 570/608/600
s 33
f 555/587/581 551/590/577 570/608/601
s 32
f 551/583/577 554/586/580 570/608/602
f 554/586/580 561/595/587 570/608/602
s 34
f 557/591/583 560/594/586 570/608/602
s 33
f 560/594/586 555/587/581 570/608/601
s 36
f 571/609/603 572/610/604 573/611/605
f 573/611/605 574/612/606 571/609/603
s 37
f 575/613/607 576/614/608 572/615/609
f 572/615/609 571/616/603 575/613/607
s 38
f 577/617/610 578/618/611 579/619/612
f 579/619/612 580/620/613 577/617/610
s 39
f 581/621/614 582/622/615 578/623/611
f 578/623/611 577/624/616 581/621/614
s 36
f 583/625/617 584/626/618 585/627/619
s 37
f 584/628/618 586/629/620 585/627/621
s 38
f 587/630/622 588/631/623 585/627/619
s 39
f 588/632/624 589/633/625 585/627/619
s 36
f 584/626/618 583/625/617 573/611/605
f 573/611/605 572/610/604 584/626/618
s 37
f 586/629/620 584/628/618 572/615/609
f 572/615/609 576/614/608 586/629/620
s 38
f 588/631/623 587/630/622 579/619/612
f 579/619/612 578/618/611 588/631/623
s 39
f 589/633/625 588/632/624 578/623/611
f 578/623/611 582/622/615 589/633/625
s 36
f 583/625/617 589/633/625 582/622/626
f 582/622/626 573/611/605 583/625/617
s 37
f 575/613/607 580/620/613 579/619/627
f 579/619/627 576/614/608 575/613/607
s 36
f 589/633/625 583/625/617 585/627/619
s 37
f 586/629/620 587/630/622 585/627/621
s 36
f 573/611/605 582/622/626 581/621/614
f 581/621/614 574/612/606 573/611/605
s 37
f 576/614/608 579/619/627 587/630/622
f 587/630/622 586/629/620 576/614/608
s 39
f 581/621/614 577/624/616 590/634/628
s 37
f 575/613/607 571/616/603 590/634/629
s 36
f 571/609/603 574/612/606 590/634/628
f 574/612/606 581/621/614 590/634/628
s 38
f 577/617/610 580/620/613 590/634/628
s 37
f 580/620/613 575/613/607 590/634/629
