# Blender v3.3.0 OBJ File: ''
# www.blender.org
o ItemSugarcaneStickBundle.005
v -0.125604 -0.013811 -0.000000
v -0.125604 0.009175 0.000000
v -0.125604 0.009175 -0.024006
v -0.125604 -0.013811 -0.024006
v 0.131261 -0.013811 -0.000000
v 0.131261 0.009175 0.000000
v 0.131261 0.009175 -0.024006
v 0.131261 -0.013811 -0.024006
v -0.131261 -0.009175 0.024006
v -0.131261 0.013811 0.024006
v -0.131261 0.013811 0.000000
v -0.131261 -0.009175 -0.000000
v 0.125604 -0.009175 0.024006
v 0.125604 0.013811 0.024006
v 0.125604 0.013811 0.000000
v 0.125604 -0.009175 -0.000000
v -0.128203 -0.011965 0.048012
v -0.128203 0.011021 0.048012
v -0.128203 0.011021 0.024006
v -0.128203 -0.011965 0.024006
v 0.128662 -0.011965 0.048011
v 0.128662 0.011021 0.048011
v 0.128662 0.011021 0.024006
v 0.128662 -0.011965 0.024006
v -0.128203 -0.011965 -0.024006
v -0.128203 0.011021 -0.024006
v -0.128203 0.011021 -0.048011
v -0.128203 -0.011965 -0.048011
v 0.128662 -0.011965 -0.024006
v 0.128662 0.011021 -0.024006
v 0.128662 0.011021 -0.048012
v 0.128662 -0.011965 -0.048012
v -0.072907 0.016121 0.050442
v -0.072907 0.016121 -0.050441
v -0.072907 -0.016134 -0.050441
v -0.072907 -0.016134 0.050442
v -0.062191 -0.013484 0.053091
v -0.062191 0.013471 0.053091
v -0.072907 0.013471 0.053092
v -0.072907 -0.013484 0.053092
v -0.062191 0.016121 0.050441
v -0.062191 0.016121 -0.050442
v -0.062191 0.013471 -0.053092
v -0.062191 -0.013484 -0.053092
v -0.072907 -0.013484 -0.053091
v -0.072907 0.013471 -0.053091
v -0.062191 -0.016134 -0.050442
v -0.062191 -0.016134 0.050441
v 0.069247 0.016121 0.050442
v 0.069247 0.016121 -0.050441
v 0.069247 -0.016134 -0.050441
v 0.069247 -0.016134 0.050442
v 0.079963 -0.013484 0.053091
v 0.079963 0.013471 0.053091
v 0.069247 0.013471 0.053092
v 0.069247 -0.013484 0.053092
v 0.079963 0.016121 0.050441
v 0.079963 0.016121 -0.050442
v 0.079963 0.013471 -0.053092
v 0.079963 -0.013484 -0.053092
v 0.069247 -0.013484 -0.053091
v 0.069247 0.013471 -0.053091
v 0.079963 -0.016134 -0.050442
v 0.079963 -0.016134 0.050441
vt 0.048400 0.958300
vt 0.048400 0.999500
vt 0.000500 0.999500
vt 0.000500 0.958300
vt 0.048400 0.326700
vt 0.089100 0.326700
vt 0.089100 0.958300
vt 0.137000 0.326700
vt 0.137000 0.958300
vt 0.177800 0.326700
vt 0.177800 0.958300
vt 0.000500 0.326700
vt 0.048400 0.958300
vt 0.000500 0.958300
vt 0.000500 0.999500
vt 0.048400 0.999500
vt 0.048400 0.958300
vt 0.048400 0.999500
vt 0.000500 0.999500
vt 0.000500 0.958300
vt 0.048400 0.958300
vt 0.089100 0.958300
vt 0.089100 0.326700
vt 0.048400 0.326700
vt 0.137000 0.958300
vt 0.137000 0.326700
vt 0.177800 0.958300
vt 0.177800 0.326700
vt 0.000500 0.958300
vt 0.000500 0.326700
vt 0.000500 0.999500
vt 0.048400 0.999500
vt 0.048400 0.958300
vt 0.048400 0.999500
vt 0.000500 0.999500
vt 0.000500 0.958300
vt 0.048400 0.326700
vt 0.089100 0.326700
vt 0.089100 0.958300
vt 0.137000 0.326700
vt 0.137000 0.958300
vt 0.177800 0.326700
vt 0.177800 0.958300
vt 0.000500 0.326700
vt 0.048400 0.958300
vt 0.000500 0.958300
vt 0.000500 0.999500
vt 0.048400 0.999500
vt 0.048400 0.958300
vt 0.048400 0.999500
vt 0.000500 0.999500
vt 0.000500 0.958300
vt 0.130000 0.326700
vt 0.089200 0.326700
vt 0.089200 0.958300
vt 0.130000 0.958300
vt 0.041400 0.326700
vt 0.041400 0.958300
vt 0.000500 0.326700
vt 0.177800 0.326700
vt 0.177800 0.958300
vt 0.048400 0.958300
vt 0.000500 0.958300
vt 0.000500 0.999500
vt 0.048400 0.999500
vt 0.112400 0.989900
vt 0.112100 0.989900
vt 0.112100 0.989700
vt 0.112400 0.989700
vt 0.091200 0.991700
vt 0.091400 0.991700
vt 0.091400 0.987900
vt 0.091200 0.987900
vt 0.091400 0.991700
vt 0.091700 0.991700
vt 0.091700 0.987900
vt 0.091400 0.987900
vt 0.091700 0.991700
vt 0.091900 0.991700
vt 0.091900 0.987900
vt 0.091700 0.987900
vt 0.090900 0.991700
vt 0.091100 0.991700
vt 0.091100 0.987900
vt 0.090900 0.987900
vt 0.112400 0.989700
vt 0.112400 0.989900
vt 0.112400 0.989900
vt 0.112400 0.989700
vt 0.094100 0.991700
vt 0.094100 0.987900
vt 0.112400 0.989700
vt 0.112400 0.989900
vt 0.112100 0.989700
vt 0.112100 0.989900
vt 0.112100 0.989900
vt 0.112100 0.989700
vt 0.112100 0.989700
vt 0.112100 0.989900
vt 0.112400 0.989900
vt 0.112100 0.989900
vt 0.112100 0.989700
vt 0.112400 0.989700
vt 0.091200 0.991700
vt 0.091400 0.991700
vt 0.091400 0.987900
vt 0.091200 0.987900
vt 0.091400 0.991700
vt 0.091700 0.991700
vt 0.091700 0.987900
vt 0.091400 0.987900
vt 0.091700 0.991700
vt 0.091900 0.991700
vt 0.091900 0.987900
vt 0.091700 0.987900
vt 0.090900 0.991700
vt 0.091100 0.991700
vt 0.091100 0.987900
vt 0.090900 0.987900
vt 0.112400 0.989700
vt 0.112400 0.989900
vt 0.112400 0.989900
vt 0.112400 0.989700
vt 0.094100 0.991700
vt 0.094100 0.987900
vt 0.112400 0.989700
vt 0.112400 0.989900
vt 0.112100 0.989700
vt 0.112100 0.989900
vt 0.112100 0.989900
vt 0.112100 0.989700
vt 0.112100 0.989700
vt 0.112100 0.989900
vn -0.5774 -0.5773 0.5774
vn -0.5774 0.5773 0.5774
vn -0.5774 0.5773 -0.5774
vn -0.5774 -0.5773 -0.5774
vn 0.5773 -0.5773 0.5775
vn 0.5774 0.5775 0.5771
vn -0.5773 0.5773 0.5774
vn -0.5774 -0.5773 0.5773
vn 0.5773 0.5772 -0.5775
vn -0.5774 0.5775 -0.5772
vn 0.5774 -0.5774 -0.5773
vn -0.5773 -0.5774 -0.5774
vn 0.5774 -0.5773 0.5774
vn 0.5774 -0.5773 -0.5774
vn 0.5774 0.5773 -0.5774
vn 0.5774 0.5773 0.5774
vn 0.5773 -0.5773 0.5774
vn -0.5773 0.5774 0.5774
vn -0.5774 -0.5774 0.5772
vn 0.5773 0.5774 -0.5774
vn -0.5774 0.5773 -0.5773
vn 0.5774 -0.5774 -0.5772
vn -0.5773 -0.5773 -0.5774
vn -0.5774 -0.5774 -0.5773
vn 0.5773 -0.5775 0.5773
vn 0.5774 0.5773 0.5773
vn -0.5774 -0.5772 0.5774
vn 0.5773 0.5774 -0.5773
vn -0.5774 0.5774 -0.5772
vn -0.5773 -0.5775 -0.5772
vn 0.5774 -0.5774 0.5773
vn 0.5774 0.5774 -0.5773
vn 0.5774 0.5774 0.5773
vn -0.5774 0.5774 0.5773
vn -0.5774 0.5774 -0.5773
vn -0.5773 0.5775 0.5773
vn 0.5773 0.5775 -0.5772
vn 0.5774 -0.5772 -0.5775
vn -0.5773 -0.5773 -0.5775
vn -0.6303 0.7173 0.2972
vn -0.6303 0.7173 -0.2971
vn -0.6303 -0.7173 -0.2971
vn -0.6302 -0.7173 0.2972
vn 0.6303 -0.2972 0.7172
vn 0.6303 0.2971 0.7173
vn -0.6302 0.2972 0.7173
vn -0.6302 -0.2972 0.7173
vn 0.6303 0.7173 0.2969
vn 0.6303 0.7173 -0.2971
vn -0.6303 0.7172 -0.2971
vn -0.6303 0.7173 0.2970
vn 0.6302 0.2972 -0.7173
vn 0.6302 -0.2971 -0.7173
vn -0.6303 -0.2971 -0.7172
vn -0.6303 0.2971 -0.7173
vn 0.6302 -0.7173 -0.2970
vn 0.6303 -0.7173 0.2971
vn 0.6303 0.7173 0.2971
vn 0.6303 0.2971 0.7172
vn 0.6303 -0.2971 0.7172
vn -0.6302 -0.2971 0.7173
vn -0.6302 0.2971 0.7173
vn 0.6302 -0.7173 -0.2972
vn 0.6302 0.7173 -0.2972
vn -0.6303 0.2971 -0.7172
vn 0.6302 0.2971 -0.7173
vn -0.6302 0.7173 0.2972
vn -0.6302 -0.2969 0.7175
vn 0.6303 0.7171 -0.2974
vn -0.6303 0.7173 0.2971
vn -0.6303 0.2969 -0.7173
vn 0.6302 -0.7173 -0.2971
vn 0.6303 -0.7172 0.2972
vn -0.6302 -0.7173 0.2970
vn -0.6303 -0.7173 -0.2969
vn 0.6303 -0.7173 -0.2972
vn 0.6303 0.7173 -0.2972
s 1
f 1/1/1 2/2/2 3/3/3
f 3/3/3 4/4/4 1/1/1
s 2
f 5/5/5 6/6/6 2/7/7
f 2/7/7 1/1/8 5/5/5
f 6/6/6 7/8/9 3/9/10
f 3/9/10 2/7/7 6/6/6
f 7/8/9 8/10/11 4/11/12
f 4/11/12 3/9/10 7/8/9
f 8/12/11 5/5/5 1/1/8
f 1/1/8 4/4/12 8/12/11
s 3
f 5/13/13 8/14/14 7/15/15
f 7/15/15 6/16/16 5/13/13
s 4
f 9/17/1 10/18/2 11/19/3
f 11/19/3 12/20/4 9/17/1
s 5
f 13/21/17 14/22/16 10/23/18
f 10/23/18 9/24/19 13/21/17
f 14/22/16 15/25/20 11/26/21
f 11/26/21 10/23/18 14/22/16
f 15/25/20 16/27/22 12/28/23
f 12/28/23 11/26/21 15/25/20
f 16/29/22 13/21/17 9/24/19
f 9/24/19 12/30/23 16/29/22
s 6
f 13/21/13 16/29/14 15/31/15
f 15/31/15 14/32/16 13/21/13
s 7
f 17/33/1 18/34/2 19/35/3
f 19/35/3 20/36/24 17/33/1
s 8
f 21/37/25 22/38/26 18/39/7
f 18/39/7 17/33/27 21/37/25
f 22/38/26 23/40/28 19/41/29
f 19/41/29 18/39/7 22/38/26
f 23/40/28 24/42/11 20/43/30
f 20/43/30 19/41/29 23/40/28
f 24/44/11 21/37/25 17/33/27
f 17/33/27 20/36/30 24/44/11
s 9
f 21/45/31 24/46/14 23/47/32
f 23/47/32 22/48/33 21/45/31
s 10
f 25/49/1 26/50/34 27/51/35
f 27/51/35 28/52/24 25/49/1
s 11
f 29/53/17 30/54/33 26/55/36
f 26/55/36 25/56/8 29/53/17
f 30/54/33 31/57/37 27/58/21
f 27/58/21 26/55/36 30/54/33
f 31/57/37 32/59/38 28/52/39
f 28/52/39 27/58/21 31/57/37
f 32/60/38 29/53/17 25/56/8
f 25/56/8 28/61/39 32/60/38
s 12
f 29/62/13 32/63/14 31/64/15
f 31/64/15 30/65/16 29/62/13
s 13
f 33/66/40 34/67/41 35/68/42
f 35/68/42 36/69/43 33/66/40
s 14
f 37/70/44 38/71/45 39/72/46
f 39/72/46 40/73/47 37/70/44
f 41/74/48 42/75/49 34/76/50
f 34/76/50 33/77/51 41/74/48
f 43/78/52 44/79/53 45/80/54
f 45/80/54 46/81/55 43/78/52
f 47/82/56 48/83/57 36/84/43
f 36/84/43 35/85/42 47/82/56
s 15
f 48/86/57 41/87/58 38/88/59
f 38/88/59 37/89/60 48/86/57
s 14
f 38/71/45 41/74/48 33/77/51
f 33/77/51 39/72/46 38/71/45
f 40/73/47 36/84/43 48/83/57
f 48/83/57 37/70/44 40/73/47
f 42/75/49 43/78/52 46/81/55
f 46/81/55 34/76/50 42/75/49
f 44/90/53 47/82/56 35/85/42
f 35/85/42 45/91/54 44/90/53
s 13
f 40/92/61 39/93/62 33/66/40
f 33/66/40 36/69/43 40/92/61
s 15
f 47/94/63 42/95/64 41/87/58
f 41/87/58 48/86/57 47/94/63
s 13
f 46/96/65 45/97/54 35/68/42
f 35/68/42 34/67/41 46/96/65
s 15
f 47/94/63 44/98/53 43/99/66
f 43/99/66 42/95/64 47/94/63
s 16
f 49/100/67 50/101/41 51/102/42
f 51/102/42 52/103/43 49/100/67
s 17
f 53/104/60 54/105/45 55/106/46
f 55/106/46 56/107/68 53/104/60
f 57/108/48 58/109/69 50/110/50
f 50/110/50 49/111/70 57/108/48
f 59/112/52 60/113/53 61/114/54
f 61/114/54 62/115/71 59/112/52
f 63/116/72 64/117/73 52/118/74
f 52/118/74 51/119/75 63/116/72
s 18
f 64/120/57 57/121/58 54/122/59
f 54/122/59 53/123/60 64/120/57
s 17
f 54/105/45 57/108/48 49/111/70
f 49/111/70 55/106/46 54/105/45
f 56/107/68 52/118/74 64/117/73
f 64/117/73 53/104/60 56/107/68
f 58/109/69 59/112/52 62/115/71
f 62/115/71 50/110/50 58/109/69
f 60/124/53 63/116/72 51/119/75
f 51/119/75 61/125/54 60/124/53
s 16
f 56/126/61 55/127/62 49/100/67
f 49/100/67 52/103/43 56/126/61
s 18
f 63/128/76 58/129/77 57/121/58
f 57/121/58 64/120/57 63/128/76
s 16
f 62/130/65 61/131/54 51/102/42
f 51/102/42 50/101/41 62/130/65
s 18
f 63/128/76 60/132/53 59/133/66
f 59/133/66 58/129/77 63/128/76
