# Blender v3.3.0 OBJ File: ''
# www.blender.org
o SugarCaneStage04.005
v -0.011493 0.573561 0.012003
v 0.011493 0.573561 0.012003
v 0.011493 0.573561 -0.012003
v -0.011493 0.573561 -0.012003
v -0.011493 -0.000000 0.012003
v 0.011493 -0.000000 0.012003
v 0.011493 0.000000 -0.012003
v -0.011493 0.000000 -0.012003
v -0.009601 0.563278 -0.000379
v 0.007141 0.562841 -0.000310
v 0.011943 0.634947 -0.062504
v -0.011212 0.635384 -0.062574
v 0.016224 0.710016 -0.098136
v -0.006932 0.710453 -0.098205
v 0.006174 0.773411 -0.157634
v -0.016981 0.773848 -0.157704
v 0.011663 0.809587 -0.267928
v -0.011492 0.810024 -0.267998
v 0.007142 0.564300 0.000557
v -0.009600 0.563892 0.000349
v -0.008350 0.612960 0.088919
v 0.009015 0.625986 0.080847
v -0.027194 0.672002 0.151130
v -0.009829 0.685028 0.143058
v -0.019512 0.727919 0.224575
v -0.002147 0.740945 0.216503
v 0.010797 0.750012 0.337510
v 0.028162 0.763038 0.329438
v -0.011237 0.549994 -0.002504
v 0.010256 0.548283 -0.001670
v 0.030961 0.748683 0.058296
v 0.007167 0.740879 0.078346
v 0.028358 0.944250 0.107270
v 0.004565 0.936446 0.127320
v 0.068929 1.120518 0.203472
v 0.045135 1.112713 0.223522
v 0.161377 1.234568 0.346018
v 0.137583 1.226764 0.366068
v -0.011198 0.550034 -0.003376
v 0.006605 0.740939 0.077680
v 0.030399 0.748743 0.057630
v 0.010294 0.548322 -0.002542
v 0.004010 0.936662 0.126705
v 0.027804 0.944466 0.106655
v 0.044581 1.112929 0.222907
v 0.068374 1.120733 0.202857
v 0.137028 1.226979 0.365453
v 0.160822 1.234784 0.345403
v -0.000854 0.563278 0.008055
v -0.000785 0.562841 -0.008687
v -0.070035 0.628656 -0.005717
v -0.062760 0.636378 0.014870
v -0.106035 0.701549 -0.023435
v -0.098760 0.709270 -0.002848
v -0.159989 0.770185 -0.017263
v -0.152714 0.777906 0.003324
v -0.266731 0.813002 -0.000636
v -0.259456 0.820723 0.019951
v 0.004079 0.549994 -0.010107
v 0.003245 0.548283 0.011385
v -0.054325 0.755803 0.026696
v -0.070030 0.750194 -0.000707
v -0.076944 0.899700 0.030607
v -0.092649 0.894091 0.003204
v -0.159514 1.068226 0.058194
v -0.175218 1.062616 0.030790
v -0.316028 1.175850 0.134312
v -0.331732 1.170240 0.106909
v 0.004951 0.550034 -0.010069
v -0.069278 0.750292 -0.001142
v -0.053574 0.755902 0.026261
v 0.004117 0.548322 0.011424
v -0.091949 0.894345 0.002781
v -0.076245 0.899954 0.030184
v -0.174519 1.062870 0.030367
v -0.158814 1.068480 0.057771
v -0.331033 1.170494 0.106486
v -0.315328 1.176103 0.133890
v -0.010565 0.564300 -0.005787
v -0.010774 0.563892 0.010955
v 0.076178 0.615136 -0.003102
v 0.069854 0.629053 -0.020501
v 0.137607 0.671971 0.023498
v 0.131283 0.685888 0.006099
v 0.212436 0.726555 0.024504
v 0.206112 0.740472 0.007105
v 0.327927 0.747450 0.004845
v 0.321603 0.761367 -0.012554
v -0.006964 0.549994 0.012437
v -0.006130 0.548283 -0.009055
v 0.063099 0.743812 -0.045253
v 0.074922 0.735826 -0.016521
v 0.126589 0.927308 -0.038779
v 0.138412 0.919323 -0.010048
v 0.235143 1.088402 -0.054511
v 0.246966 1.080417 -0.025780
v 0.401693 1.189389 -0.104416
v 0.413516 1.181404 -0.075685
v -0.007836 0.550034 0.012399
v 0.074113 0.735859 -0.016195
v 0.062290 0.743845 -0.044926
v -0.007002 0.548322 -0.009094
v 0.137649 0.919513 -0.009710
v 0.125826 0.927498 -0.038441
v 0.246203 1.080606 -0.025442
v 0.234380 1.088592 -0.054173
v 0.412753 1.181594 -0.075347
v 0.400929 1.189579 -0.104078
v -0.005953 0.570422 -0.006138
v 0.075228 0.684345 0.002902
v 0.087028 0.673136 0.026021
v -0.004815 0.569377 0.011116
v 0.147502 0.787565 0.025553
v 0.159303 0.776355 0.048672
v 0.256562 0.875973 0.018846
v 0.268363 0.864763 0.041965
v 0.394869 0.926042 -0.027327
v 0.406670 0.914833 -0.004208
v -0.006599 0.570574 -0.006101
v -0.005462 0.569528 0.011153
v 0.086476 0.673228 0.026383
v 0.074675 0.684437 0.003264
v 0.158818 0.776529 0.049045
v 0.147017 0.787738 0.025926
v 0.267878 0.864937 0.042339
v 0.256077 0.876146 0.019220
v 0.406185 0.915006 -0.003834
v 0.394385 0.926215 -0.026953
v -0.000837 0.445813 0.011258
v -0.013763 0.445376 -0.008826
v -0.059654 0.508771 0.026401
v -0.046728 0.509208 0.046485
v -0.158249 0.544947 0.070814
v -0.145324 0.545384 0.090898
v -0.010211 0.222372 0.010950
v -0.001263 0.221935 -0.010788
v -0.061028 0.285330 -0.019487
v -0.069976 0.285767 0.002250
v -0.162565 0.321506 -0.058278
v -0.171513 0.321943 -0.036540
v 0.009521 0.331139 -0.011714
v 0.002732 0.330702 0.010637
v 0.089502 0.415468 0.016678
v 0.096291 0.415905 -0.005672
v 0.220414 0.489327 0.044186
v 0.227202 0.489764 0.021836
vt 0.048400 0.958300
vt 0.048400 0.999500
vt 0.000500 0.999500
vt 0.000500 0.958300
vt 0.424000 0.000600
vt 0.464800 0.000600
vt 0.464800 0.847000
vt 0.424000 0.847000
vt 0.512600 0.000600
vt 0.512600 0.847000
vt 0.553500 0.000600
vt 0.553500 0.847000
vt 0.376200 0.000600
vt 0.376200 0.847000
vt 0.568400 0.000100
vt 0.604800 0.000100
vt 0.604800 0.250100
vt 0.568400 0.250100
vt 0.604800 0.500100
vt 0.568400 0.500100
vt 0.604800 0.750100
vt 0.568400 0.750100
vt 0.604800 1.000100
vt 0.568400 1.000100
vt 0.568400 0.000100
vt 0.604800 0.000100
vt 0.604800 0.250100
vt 0.568400 0.250100
vt 0.604800 0.500100
vt 0.568400 0.500100
vt 0.604800 0.750100
vt 0.568400 0.750100
vt 0.604800 1.000100
vt 0.568400 1.000100
vt 0.277800 0.000000
vt 0.314100 0.000000
vt 0.314100 0.250000
vt 0.277800 0.250000
vt 0.314100 0.500000
vt 0.277800 0.500000
vt 0.314100 0.750000
vt 0.277800 0.750000
vt 0.314100 1.000000
vt 0.277800 1.000000
vt 0.277800 0.000000
vt 0.277800 0.250000
vt 0.314100 0.250000
vt 0.314100 0.000000
vt 0.277800 0.500000
vt 0.314100 0.500000
vt 0.277800 0.750000
vt 0.314100 0.750000
vt 0.277800 1.000000
vt 0.314100 1.000000
vt 0.568400 0.000100
vt 0.604800 0.000100
vt 0.604800 0.250100
vt 0.568400 0.250100
vt 0.604800 0.500100
vt 0.568400 0.500100
vt 0.604800 0.750100
vt 0.568400 0.750100
vt 0.604800 1.000100
vt 0.568400 1.000100
vt 0.277800 0.000000
vt 0.314100 0.000000
vt 0.314100 0.250000
vt 0.277800 0.250000
vt 0.314100 0.500000
vt 0.277800 0.500000
vt 0.314100 0.750000
vt 0.277800 0.750000
vt 0.314100 1.000000
vt 0.277800 1.000000
vt 0.277800 0.000000
vt 0.277800 0.250000
vt 0.314100 0.250000
vt 0.314100 0.000000
vt 0.277800 0.500000
vt 0.314100 0.500000
vt 0.277800 0.750000
vt 0.314100 0.750000
vt 0.277800 1.000000
vt 0.314100 1.000000
vt 0.568400 0.000100
vt 0.604800 0.000100
vt 0.604800 0.250100
vt 0.568400 0.250100
vt 0.604800 0.500100
vt 0.568400 0.500100
vt 0.604800 0.750100
vt 0.568400 0.750100
vt 0.604800 1.000100
vt 0.568400 1.000100
vt 0.277800 0.000000
vt 0.314100 0.000000
vt 0.314100 0.250000
vt 0.277800 0.250000
vt 0.314100 0.500000
vt 0.277800 0.500000
vt 0.314100 0.750000
vt 0.277800 0.750000
vt 0.314100 1.000000
vt 0.277800 1.000000
vt 0.277800 0.000000
vt 0.277800 0.250000
vt 0.314100 0.250000
vt 0.314100 0.000000
vt 0.277800 0.500000
vt 0.314100 0.500000
vt 0.277800 0.750000
vt 0.314100 0.750000
vt 0.277800 1.000000
vt 0.314100 1.000000
vt 0.568400 0.000100
vt 0.568400 0.250100
vt 0.604800 0.250100
vt 0.604800 0.000100
vt 0.568400 0.500100
vt 0.604800 0.500100
vt 0.568400 0.750100
vt 0.604800 0.750100
vt 0.568400 1.000100
vt 0.604800 1.000100
vt 0.568400 0.000100
vt 0.604800 0.000100
vt 0.604800 0.250100
vt 0.568400 0.250100
vt 0.604800 0.500100
vt 0.568400 0.500100
vt 0.604800 0.750100
vt 0.568400 0.750100
vt 0.604800 1.000100
vt 0.568400 1.000100
vt 0.568400 0.500100
vt 0.604800 0.500100
vt 0.604800 0.750100
vt 0.568400 0.750100
vt 0.604800 1.000100
vt 0.568400 1.000100
vt 0.568400 0.500100
vt 0.604800 0.500100
vt 0.604800 0.750100
vt 0.568400 0.750100
vt 0.604800 1.000100
vt 0.568400 1.000100
vt 0.568400 0.500100
vt 0.604800 0.500100
vt 0.604800 0.750100
vt 0.568400 0.750100
vt 0.604800 1.000100
vt 0.568400 1.000100
vn -0.5774 0.5774 0.5774
vn 0.5774 0.5774 0.5774
vn 0.5774 0.5774 -0.5774
vn -0.5774 0.5774 -0.5773
vn -0.7071 -0.0000 0.7071
vn 0.7071 -0.0000 0.7071
vn 0.7071 0.0000 -0.7071
vn -0.7071 0.0000 -0.7071
vn 0.0133 0.6527 0.7575
vn 0.0139 0.6525 0.7576
vn 0.0079 0.5434 0.8395
vn 0.0078 0.5458 0.8379
vn 0.0081 0.5595 0.8288
vn 0.0083 0.5676 0.8233
vn 0.0142 0.8397 0.5429
vn 0.0144 0.8478 0.5302
vn 0.0170 0.9498 0.3124
vn -0.1066 0.8630 -0.4939
vn -0.0153 0.8747 -0.4844
vn -0.6254 0.5542 -0.5493
vn -0.6509 0.5321 -0.5415
vn -0.6532 0.5450 -0.5257
vn -0.6541 0.5503 -0.5190
vn -0.6478 0.7312 -0.2138
vn -0.6460 0.7363 -0.2015
vn -0.5989 0.8008 0.0041
vn 0.0104 -0.2946 0.9556
vn -0.0595 -0.2805 0.9580
vn 0.6529 -0.2549 0.7133
vn 0.6707 -0.2626 0.6937
vn 0.6690 -0.3339 0.6640
vn 0.6697 -0.3206 0.6699
vn 0.5993 -0.6587 0.4548
vn 0.6037 -0.6483 0.4641
vn 0.5181 -0.7996 0.3037
vn -0.0102 0.2954 -0.9553
vn -0.6707 0.2619 -0.6940
vn -0.6529 0.2545 -0.7134
vn 0.0596 0.2815 -0.9577
vn -0.6697 0.3206 -0.6699
vn -0.6690 0.3340 -0.6640
vn -0.6037 0.6483 -0.4641
vn -0.5993 0.6587 -0.4548
vn -0.5182 0.7996 -0.3037
vn 0.6930 0.7164 -0.0802
vn 0.6884 0.7251 -0.0161
vn 0.7709 0.4759 -0.4233
vn 0.7677 0.4616 -0.4444
vn 0.7770 0.4477 -0.4425
vn 0.7716 0.4558 -0.4436
vn 0.5007 0.7373 -0.4535
vn 0.4886 0.7460 -0.4525
vn 0.2800 0.8621 -0.4223
vn -0.9623 -0.2721 -0.0053
vn -0.9631 -0.2629 -0.0583
vn -0.8336 -0.2274 0.5033
vn -0.8210 -0.2376 0.5192
vn -0.7968 -0.3083 0.5197
vn -0.8034 -0.2904 0.5199
vn -0.5754 -0.6713 0.4672
vn -0.5872 -0.6581 0.4712
vn -0.3845 -0.8360 0.3915
vn 0.9621 0.2726 0.0054
vn 0.8211 0.2372 -0.5191
vn 0.8337 0.2272 -0.5033
vn 0.9629 0.2634 0.0583
vn 0.8034 0.2905 -0.5198
vn 0.7968 0.3083 -0.5197
vn 0.5872 0.6581 -0.4712
vn 0.5754 0.6713 -0.4672
vn 0.3845 0.8360 -0.3915
vn -0.5055 0.8573 0.0975
vn -0.5059 0.8625 0.0147
vn -0.5441 0.5729 0.6130
vn -0.5521 0.5417 0.6339
vn -0.5696 0.5283 0.6296
vn -0.5630 0.5334 0.6313
vn -0.2551 0.7077 0.6588
vn -0.2426 0.7126 0.6582
vn -0.0327 0.7747 0.6315
vn 0.9416 -0.3365 0.0132
vn 0.9444 -0.3228 0.0623
vn 0.8399 -0.3413 -0.4221
vn 0.8247 -0.3571 -0.4386
vn 0.7943 -0.4162 -0.4425
vn 0.8012 -0.4036 -0.4419
vn 0.5639 -0.7061 -0.4283
vn 0.5764 -0.6947 -0.4303
vn 0.3884 -0.8341 -0.3917
vn -0.9415 0.3367 -0.0132
vn -0.8248 0.3568 0.4386
vn -0.8399 0.3411 0.4221
vn -0.9443 0.3232 -0.0624
vn -0.8012 0.4036 0.4419
vn -0.7943 0.4162 0.4425
vn -0.5764 0.6947 0.4303
vn -0.5638 0.7061 0.4283
vn -0.3884 0.8341 0.3917
vn 0.7560 -0.6362 -0.1537
vn 0.7108 -0.4182 -0.5656
vn 0.7179 -0.4271 -0.5498
vn 0.7521 -0.6530 -0.0892
vn 0.6268 -0.5259 -0.5749
vn 0.6194 -0.5342 -0.5752
vn 0.3303 -0.7721 -0.5430
vn 0.3262 -0.7745 -0.5420
vn 0.1468 -0.8586 -0.4912
vn -0.7557 0.6366 0.1538
vn -0.7518 0.6534 0.0892
vn -0.7180 0.4269 0.5498
vn -0.7109 0.4180 0.5656
vn -0.6194 0.5343 0.5752
vn -0.6267 0.5260 0.5749
vn -0.3262 0.7745 0.5420
vn -0.3303 0.7721 0.5430
vn -0.1468 0.8586 0.4912
vn 0.6150 0.6733 -0.4105
vn 0.4492 0.8389 -0.3073
vn 0.4568 0.8330 -0.3121
vn 0.2620 0.9463 -0.1892
vn 0.6826 0.6802 0.2673
vn 0.5191 0.8317 0.1969
vn 0.4922 0.8505 0.1855
vn 0.2984 0.9488 0.1038
vn -0.6789 0.7086 -0.1923
vn -0.5873 0.7928 -0.1629
vn -0.5697 0.8067 -0.1573
vn -0.4675 0.8751 -0.1249
s 1
f 1/1/1 2/2/2 3/3/3
f 3/3/3 4/4/4 1/1/1
f 5/5/5 6/6/6 2/7/2
f 2/7/2 1/8/1 5/5/5
f 6/6/6 7/9/7 3/10/3
f 3/10/3 2/7/2 6/6/6
f 7/9/7 8/11/8 4/12/4
f 4/12/4 3/10/3 7/9/7
f 8/13/8 5/5/5 1/8/1
f 1/8/1 4/14/4 8/13/8
s 2
f 9/15/9 10/16/10 11/17/11
f 11/17/11 12/18/12 9/15/9
f 12/18/12 11/17/11 13/19/13
f 13/19/13 14/20/14 12/18/12
f 14/20/14 13/19/13 15/21/15
f 15/21/15 16/22/16 14/20/14
f 16/22/16 15/21/15 17/23/17
f 17/23/17 18/24/17 16/22/16
s 3
f 19/25/18 20/26/19 21/27/20
f 21/27/20 22/28/21 19/25/18
f 22/28/21 21/27/20 23/29/22
f 23/29/22 24/30/23 22/28/21
f 24/30/23 23/29/22 25/31/24
f 25/31/24 26/32/25 24/30/23
f 26/32/25 25/31/24 27/33/26
f 27/33/26 28/34/26 26/32/25
s 4
f 29/35/27 30/36/28 31/37/29
f 31/37/29 32/38/30 29/35/27
f 32/38/30 31/37/29 33/39/31
f 33/39/31 34/40/32 32/38/30
f 34/40/32 33/39/31 35/41/33
f 35/41/33 36/42/34 34/40/32
f 36/42/34 35/41/33 37/43/35
f 37/43/35 38/44/35 36/42/34
s 5
f 39/45/36 40/46/37 41/47/38
f 41/47/38 42/48/39 39/45/36
f 40/46/37 43/49/40 44/50/41
f 44/50/41 41/47/38 40/46/37
f 43/49/40 45/51/42 46/52/43
f 46/52/43 44/50/41 43/49/40
f 45/51/42 47/53/44 48/54/44
f 48/54/44 46/52/43 45/51/42
s 6
f 49/55/45 50/56/46 51/57/47
f 51/57/47 52/58/48 49/55/45
f 52/58/48 51/57/47 53/59/49
f 53/59/49 54/60/50 52/58/48
f 54/60/50 53/59/49 55/61/51
f 55/61/51 56/62/52 54/60/50
f 56/62/52 55/61/51 57/63/53
f 57/63/53 58/64/53 56/62/52
s 7
f 59/65/54 60/66/55 61/67/56
f 61/67/56 62/68/57 59/65/54
f 62/68/57 61/67/56 63/69/58
f 63/69/58 64/70/59 62/68/57
f 64/70/59 63/69/58 65/71/60
f 65/71/60 66/72/61 64/70/59
f 66/72/61 65/71/60 67/73/62
f 67/73/62 68/74/62 66/72/61
s 8
f 69/75/63 70/76/64 71/77/65
f 71/77/65 72/78/66 69/75/63
f 70/76/64 73/79/67 74/80/68
f 74/80/68 71/77/65 70/76/64
f 73/79/67 75/81/69 76/82/70
f 76/82/70 74/80/68 73/79/67
f 75/81/69 77/83/71 78/84/71
f 78/84/71 76/82/70 75/81/69
s 9
f 79/85/72 80/86/73 81/87/74
f 81/87/74 82/88/75 79/85/72
f 82/88/75 81/87/74 83/89/76
f 83/89/76 84/90/77 82/88/75
f 84/90/77 83/89/76 85/91/78
f 85/91/78 86/92/79 84/90/77
f 86/92/79 85/91/78 87/93/80
f 87/93/80 88/94/80 86/92/79
s 10
f 89/95/81 90/96/82 91/97/83
f 91/97/83 92/98/84 89/95/81
f 92/98/84 91/97/83 93/99/85
f 93/99/85 94/100/86 92/98/84
f 94/100/86 93/99/85 95/101/87
f 95/101/87 96/102/88 94/100/86
f 96/102/88 95/101/87 97/103/89
f 97/103/89 98/104/89 96/102/88
s 11
f 99/105/90 100/106/91 101/107/92
f 101/107/92 102/108/93 99/105/90
f 100/106/91 103/109/94 104/110/95
f 104/110/95 101/107/92 100/106/91
f 103/109/94 105/111/96 106/112/97
f 106/112/97 104/110/95 103/109/94
f 105/111/96 107/113/98 108/114/98
f 108/114/98 106/112/97 105/111/96
s 12
f 109/115/99 110/116/100 111/117/101
f 111/117/101 112/118/102 109/115/99
f 110/116/100 113/119/103 114/120/104
f 114/120/104 111/117/101 110/116/100
f 113/119/103 115/121/105 116/122/106
f 116/122/106 114/120/104 113/119/103
f 115/121/105 117/123/107 118/124/107
f 118/124/107 116/122/106 115/121/105
s 13
f 119/125/108 120/126/109 121/127/110
f 121/127/110 122/128/111 119/125/108
f 122/128/111 121/127/110 123/129/112
f 123/129/112 124/130/113 122/128/111
f 124/130/113 123/129/112 125/131/114
f 125/131/114 126/132/115 124/130/113
f 126/132/115 125/131/114 127/133/116
f 127/133/116 128/134/116 126/132/115
s 14
f 129/135/117 130/136/117 131/137/118
f 131/137/118 132/138/119 129/135/117
f 132/138/119 131/137/118 133/139/120
f 133/139/120 134/140/120 132/138/119
s 15
f 135/141/121 136/142/121 137/143/122
f 137/143/122 138/144/123 135/141/121
f 138/144/123 137/143/122 139/145/124
f 139/145/124 140/146/124 138/144/123
s 16
f 141/147/125 142/148/125 143/149/126
f 143/149/126 144/150/127 141/147/125
f 144/150/127 143/149/126 145/151/128
f 145/151/128 146/152/128 144/150/127
