# Blender v3.3.0 OBJ File: ''
# www.blender.org
o SugarCaneDead.005
v -0.011493 0.648086 0.012003
v 0.011493 0.648086 0.012003
v 0.011493 0.648086 -0.012003
v -0.011493 0.648086 -0.012003
v -0.011493 -0.000000 0.012003
v 0.011493 -0.000000 0.012003
v 0.011493 0.000000 -0.012003
v -0.011493 0.000000 -0.012003
v -0.009601 0.626164 -0.000379
v 0.007141 0.625727 -0.000310
v 0.011943 0.697833 -0.062504
v -0.011212 0.698270 -0.062574
v 0.016224 0.772902 -0.098136
v -0.006932 0.773339 -0.098205
v 0.006174 0.757136 -0.165103
v -0.016981 0.757573 -0.165172
v 0.011663 0.665742 -0.224968
v -0.011492 0.666179 -0.225037
v 0.007142 0.627186 0.000557
v -0.009600 0.626778 0.000349
v -0.008350 0.675846 0.088919
v 0.009015 0.688872 0.080847
v -0.027194 0.734888 0.151130
v -0.009829 0.747914 0.143058
v 0.005198 0.677298 0.224575
v 0.022563 0.690323 0.216503
v 0.041020 0.554189 0.250334
v 0.058385 0.567215 0.242263
v 0.008529 0.633308 0.000570
v 0.007467 0.743198 0.086312
v -0.014154 0.730362 0.099242
v -0.008725 0.632262 0.001708
v -0.022836 0.832237 0.157614
v -0.044457 0.819401 0.170544
v 0.013218 0.782622 0.235144
v -0.008403 0.769786 0.248074
v 0.130773 0.642319 0.325551
v 0.109152 0.629483 0.338481
v 0.008492 0.633460 -0.000076
v -0.008762 0.632414 0.001061
v -0.014538 0.730398 0.098698
v 0.007083 0.743234 0.085768
v -0.044859 0.819519 0.170065
v -0.023238 0.832355 0.157135
v -0.008805 0.769904 0.247595
v 0.012816 0.782740 0.234665
v 0.108750 0.629601 0.338002
v 0.130371 0.642437 0.325072
v -0.000854 0.626164 0.008055
v -0.000785 0.625727 -0.008687
v -0.070035 0.691542 -0.005717
v -0.062760 0.699264 0.014870
v -0.106035 0.764435 -0.023435
v -0.098760 0.772156 -0.002848
v -0.159989 0.833071 -0.017263
v -0.152714 0.840792 0.003324
v -0.266731 0.875887 -0.000636
v -0.259456 0.883609 0.019951
v 0.000929 0.632827 0.008587
v -0.052892 0.756802 -0.004055
v -0.065555 0.749059 -0.028124
v -0.000418 0.631955 -0.008666
v -0.102471 0.869411 -0.023005
v -0.115133 0.861667 -0.047073
v -0.192320 0.969950 -0.013835
v -0.204983 0.962206 -0.037903
v -0.320119 1.033526 0.032589
v -0.332782 1.025782 0.008521
v 0.001599 0.632887 0.008550
v 0.000251 0.632015 -0.008703
v -0.064979 0.749106 -0.028473
v -0.052316 0.756849 -0.004404
v -0.114608 0.861804 -0.047431
v -0.101945 0.869547 -0.023363
v -0.204457 0.962343 -0.038261
v -0.191794 0.970086 -0.014193
v -0.332256 1.025919 0.008162
v -0.319593 1.033662 0.032231
v -0.005953 0.633308 -0.006138
v 0.075228 0.747231 0.002902
v 0.087028 0.736022 0.026021
v -0.004815 0.632262 0.011116
v 0.147502 0.850451 0.025553
v 0.159303 0.839241 0.048672
v 0.256562 0.938859 0.018846
v 0.268363 0.927649 0.041965
v 0.394869 0.988928 -0.027327
v 0.406670 0.977719 -0.004208
v -0.006599 0.633460 -0.006101
v -0.005462 0.632414 0.011153
v 0.086476 0.736114 0.026383
v 0.074675 0.747323 0.003264
v 0.158818 0.839415 0.049045
v 0.147017 0.850624 0.025926
v 0.267878 0.927823 0.042339
v 0.256077 0.939032 0.019220
v 0.406185 0.977892 -0.003834
v 0.394385 0.989101 -0.026953
v -0.000837 0.445813 0.011258
v -0.013763 0.445376 -0.008826
v -0.059654 0.508771 0.026401
v -0.046728 0.509208 0.046485
v -0.158249 0.441236 0.070814
v -0.145324 0.441673 0.090898
v -0.006557 0.565546 -0.009650
v 0.016952 0.565109 0.000192
v 0.038692 0.649875 -0.074945
v 0.015183 0.650312 -0.084787
v 0.091810 0.527850 -0.185111
v 0.068301 0.528287 -0.194953
v -0.010211 0.222372 0.010950
v -0.001263 0.221935 -0.010788
v -0.061028 0.285330 -0.019487
v -0.069976 0.285767 0.002250
v -0.162565 0.214303 -0.058278
v -0.171513 0.214740 -0.036540
v 0.009521 0.331139 -0.011714
v 0.002732 0.330702 0.010637
v 0.089502 0.415468 0.016678
v 0.096291 0.415905 -0.005672
v 0.220414 0.358656 0.044186
v 0.227202 0.359093 0.021836
vt 0.668200 0.958300
vt 0.668200 0.999500
vt 0.620300 0.999500
vt 0.620300 0.958300
vt 0.668200 0.000500
vt 0.708900 0.000500
vt 0.708900 0.958300
vt 0.756800 0.000500
vt 0.756800 0.958300
vt 0.797600 0.000500
vt 0.797600 0.958300
vt 0.620300 0.000500
vt 0.905500 0.000100
vt 0.941800 0.000100
vt 0.941800 0.250100
vt 0.905500 0.250100
vt 0.941800 0.500100
vt 0.905500 0.500100
vt 0.941800 0.750100
vt 0.905500 0.750100
vt 0.941800 1.000100
vt 0.905500 1.000100
vt 0.905500 0.000100
vt 0.941800 0.000100
vt 0.941800 0.250100
vt 0.905500 0.250100
vt 0.941800 0.500100
vt 0.905500 0.500100
vt 0.941800 0.750100
vt 0.905500 0.750100
vt 0.941800 1.000100
vt 0.905500 1.000100
vt 0.858600 0.000100
vt 0.858600 0.250100
vt 0.895000 0.250100
vt 0.895000 0.000100
vt 0.858600 0.500100
vt 0.895000 0.500100
vt 0.858600 0.750100
vt 0.895000 0.750100
vt 0.858600 1.000100
vt 0.895000 1.000100
vt 0.858600 0.000100
vt 0.895000 0.000100
vt 0.895000 0.250100
vt 0.858600 0.250100
vt 0.895000 0.500100
vt 0.858600 0.500100
vt 0.895000 0.750100
vt 0.858600 0.750100
vt 0.895000 1.000100
vt 0.858600 1.000100
vt 0.905500 0.000100
vt 0.941800 0.000100
vt 0.941800 0.250100
vt 0.905500 0.250100
vt 0.941800 0.500100
vt 0.905500 0.500100
vt 0.941800 0.750100
vt 0.905500 0.750100
vt 0.941800 1.000100
vt 0.905500 1.000100
vt 0.858600 0.000100
vt 0.858600 0.250100
vt 0.895000 0.250100
vt 0.895000 0.000100
vt 0.858600 0.500100
vt 0.895000 0.500100
vt 0.858600 0.750100
vt 0.895000 0.750100
vt 0.858600 1.000100
vt 0.895000 1.000100
vt 0.858600 0.000100
vt 0.895000 0.000100
vt 0.895000 0.250100
vt 0.858600 0.250100
vt 0.895000 0.500100
vt 0.858600 0.500100
vt 0.895000 0.750100
vt 0.858600 0.750100
vt 0.895000 1.000100
vt 0.858600 1.000100
vt 0.858600 0.000100
vt 0.858600 0.250100
vt 0.895000 0.250100
vt 0.895000 0.000100
vt 0.858600 0.500100
vt 0.895000 0.500100
vt 0.858600 0.750100
vt 0.895000 0.750100
vt 0.858600 1.000100
vt 0.895000 1.000100
vt 0.858600 0.000100
vt 0.895000 0.000100
vt 0.895000 0.250100
vt 0.858600 0.250100
vt 0.895000 0.500100
vt 0.858600 0.500100
vt 0.895000 0.750100
vt 0.858600 0.750100
vt 0.895000 1.000100
vt 0.858600 1.000100
vt 0.893800 0.500100
vt 0.930100 0.500100
vt 0.930100 0.750100
vt 0.893800 0.750100
vt 0.930100 1.000100
vt 0.893800 1.000100
vt 0.893800 0.500100
vt 0.930100 0.500100
vt 0.930100 0.750100
vt 0.893800 0.750100
vt 0.930100 1.000100
vt 0.893800 1.000100
vt 0.893800 0.500100
vt 0.930100 0.500100
vt 0.930100 0.750100
vt 0.893800 0.750100
vt 0.930100 1.000100
vt 0.893800 1.000100
vt 0.893800 0.500100
vt 0.930100 0.500100
vt 0.930100 0.750100
vt 0.893800 0.750100
vt 0.930100 1.000100
vt 0.893800 1.000100
vn -0.5774 0.5774 0.5774
vn 0.5774 0.5774 0.5774
vn 0.5773 0.5774 -0.5774
vn -0.5774 0.5774 -0.5774
vn -0.7071 -0.0000 0.7071
vn 0.7071 -0.0000 0.7071
vn 0.7071 0.0000 -0.7071
vn -0.7071 0.0000 -0.7071
vn 0.0133 0.6527 0.7575
vn 0.0139 0.6525 0.7576
vn 0.0079 0.5434 0.8395
vn 0.0078 0.5458 0.8379
vn 0.0154 0.8882 0.4592
vn 0.0160 0.9129 0.4078
vn 0.0172 0.8237 -0.5668
vn 0.0171 0.8121 -0.5833
vn 0.0128 0.5484 -0.8361
vn -0.1066 0.8630 -0.4939
vn -0.0153 0.8747 -0.4844
vn -0.6254 0.5542 -0.5493
vn -0.6509 0.5321 -0.5415
vn -0.5592 0.8202 0.1207
vn -0.6247 0.7753 -0.0928
vn 0.0622 0.4645 0.8834
vn -0.0562 0.5790 0.8134
vn 0.2363 0.2644 0.9350
vn 0.1621 -0.6846 0.7107
vn 0.6350 -0.4102 0.6546
vn 0.6178 -0.4181 0.6660
vn 0.0892 -0.6998 0.7088
vn 0.5929 -0.7736 0.2234
vn 0.4949 -0.8683 -0.0345
vn 0.0243 -0.7295 -0.6836
vn -0.0068 -0.7039 -0.7102
vn -0.1136 -0.6036 -0.7891
vn -0.1621 0.6851 -0.7102
vn -0.0891 0.7004 -0.7082
vn -0.6177 0.4179 -0.6662
vn -0.6350 0.4100 -0.6548
vn -0.4949 0.8683 0.0345
vn -0.5929 0.7737 -0.2234
vn 0.0068 0.7039 0.7102
vn -0.0243 0.7295 0.6836
vn 0.1136 0.6036 0.7891
vn 0.6930 0.7164 -0.0802
vn 0.6884 0.7251 -0.0161
vn 0.7709 0.4759 -0.4233
vn 0.7677 0.4616 -0.4444
vn 0.7770 0.4477 -0.4425
vn 0.7716 0.4558 -0.4436
vn 0.5007 0.7373 -0.4535
vn 0.4886 0.7460 -0.4525
vn 0.2800 0.8621 -0.4223
vn -0.8779 -0.4542 0.1518
vn -0.8080 -0.2838 0.5164
vn -0.8147 -0.2912 0.5015
vn -0.8766 -0.4723 0.0923
vn -0.7304 -0.4370 0.5249
vn -0.7242 -0.4472 0.5249
vn -0.4588 -0.7467 0.4816
vn -0.4545 -0.7500 0.4805
vn -0.2758 -0.8632 0.4228
vn 0.8777 0.4544 -0.1519
vn 0.8764 0.4726 -0.0924
vn 0.8147 0.2910 -0.5015
vn 0.8080 0.2836 -0.5164
vn 0.7242 0.4472 -0.5249
vn 0.7304 0.4370 -0.5249
vn 0.4545 0.7501 -0.4804
vn 0.4588 0.7467 -0.4816
vn 0.2758 0.8632 -0.4228
vn 0.7560 -0.6362 -0.1538
vn 0.7108 -0.4182 -0.5656
vn 0.7179 -0.4271 -0.5498
vn 0.7521 -0.6529 -0.0892
vn 0.6268 -0.5259 -0.5749
vn 0.6194 -0.5342 -0.5752
vn 0.3303 -0.7721 -0.5430
vn 0.3262 -0.7745 -0.5420
vn 0.1468 -0.8586 -0.4912
vn -0.7557 0.6366 0.1538
vn -0.7518 0.6534 0.0892
vn -0.7180 0.4269 0.5498
vn -0.7109 0.4180 0.5656
vn -0.6194 0.5343 0.5752
vn -0.6267 0.5260 0.5749
vn -0.3262 0.7745 0.5420
vn -0.3303 0.7721 0.5429
vn -0.1468 0.8586 0.4912
vn 0.6150 0.6733 -0.4105
vn 0.0898 0.9928 -0.0794
vn 0.1195 0.9880 -0.0984
vn -0.4559 0.8465 0.2750
vn -0.2737 0.6764 0.6838
vn 0.0024 0.9993 0.0386
vn 0.0129 0.9998 0.0135
vn 0.2840 0.7077 -0.6469
vn 0.6826 0.6802 0.2673
vn 0.1643 0.9852 0.0478
vn 0.0688 0.9976 0.0082
vn -0.5002 0.8368 -0.2227
vn -0.6789 0.7086 -0.1923
vn -0.2335 0.9710 -0.0519
vn -0.1337 0.9908 -0.0212
vn 0.3714 0.9192 0.1308
s 1
f 1/1/1 2/2/2 3/3/3
f 3/3/3 4/4/4 1/1/1
f 5/5/5 6/6/6 2/7/2
f 2/7/2 1/1/1 5/5/5
f 6/6/6 7/8/7 3/9/3
f 3/9/3 2/7/2 6/6/6
f 7/8/7 8/10/8 4/11/4
f 4/11/4 3/9/3 7/8/7
f 8/12/8 5/5/5 1/1/1
f 1/1/1 4/4/4 8/12/8
s 2
f 9/13/9 10/14/10 11/15/11
f 11/15/11 12/16/12 9/13/9
f 12/16/12 11/15/11 13/17/13
f 13/17/13 14/18/14 12/16/12
f 14/18/14 13/17/13 15/19/15
f 15/19/15 16/20/16 14/18/14
f 16/20/16 15/19/15 17/21/17
f 17/21/17 18/22/17 16/20/16
s 3
f 19/23/18 20/24/19 21/25/20
f 21/25/20 22/26/21 19/23/18
f 22/26/21 21/25/20 23/27/22
f 23/27/22 24/28/23 22/26/21
f 24/28/23 23/27/22 25/29/24
f 25/29/24 26/30/25 24/28/23
f 26/30/25 25/29/24 27/31/26
f 27/31/26 28/32/26 26/30/25
s 4
f 29/33/27 30/34/28 31/35/29
f 31/35/29 32/36/30 29/33/27
f 30/34/28 33/37/31 34/38/32
f 34/38/32 31/35/29 30/34/28
f 33/37/31 35/39/33 36/40/34
f 36/40/34 34/38/32 33/37/31
f 35/39/33 37/41/35 38/42/35
f 38/42/35 36/40/34 35/39/33
s 5
f 39/43/36 40/44/37 41/45/38
f 41/45/38 42/46/39 39/43/36
f 42/46/39 41/45/38 43/47/40
f 43/47/40 44/48/41 42/46/39
f 44/48/41 43/47/40 45/49/42
f 45/49/42 46/50/43 44/48/41
f 46/50/43 45/49/42 47/51/44
f 47/51/44 48/52/44 46/50/43
s 6
f 49/53/45 50/54/46 51/55/47
f 51/55/47 52/56/48 49/53/45
f 52/56/48 51/55/47 53/57/49
f 53/57/49 54/58/50 52/56/48
f 54/58/50 53/57/49 55/59/51
f 55/59/51 56/60/52 54/58/50
f 56/60/52 55/59/51 57/61/53
f 57/61/53 58/62/53 56/60/52
s 7
f 59/63/54 60/64/55 61/65/56
f 61/65/56 62/66/57 59/63/54
f 60/64/55 63/67/58 64/68/59
f 64/68/59 61/65/56 60/64/55
f 63/67/58 65/69/60 66/70/61
f 66/70/61 64/68/59 63/67/58
f 65/69/60 67/71/62 68/72/62
f 68/72/62 66/70/61 65/69/60
s 8
f 69/73/63 70/74/64 71/75/65
f 71/75/65 72/76/66 69/73/63
f 72/76/66 71/75/65 73/77/67
f 73/77/67 74/78/68 72/76/66
f 74/78/68 73/77/67 75/79/69
f 75/79/69 76/80/70 74/78/68
f 76/80/70 75/79/69 77/81/71
f 77/81/71 78/82/71 76/80/70
s 9
f 79/83/72 80/84/73 81/85/74
f 81/85/74 82/86/75 79/83/72
f 80/84/73 83/87/76 84/88/77
f 84/88/77 81/85/74 80/84/73
f 83/87/76 85/89/78 86/90/79
f 86/90/79 84/88/77 83/87/76
f 85/89/78 87/91/80 88/92/80
f 88/92/80 86/90/79 85/89/78
s 10
f 89/93/81 90/94/82 91/95/83
f 91/95/83 92/96/84 89/93/81
f 92/96/84 91/95/83 93/97/85
f 93/97/85 94/98/86 92/96/84
f 94/98/86 93/97/85 95/99/87
f 95/99/87 96/100/88 94/98/86
f 96/100/88 95/99/87 97/101/89
f 97/101/89 98/102/89 96/100/88
s 11
f 99/103/90 100/104/90 101/105/91
f 101/105/91 102/106/92 99/103/90
f 102/106/92 101/105/91 103/107/93
f 103/107/93 104/108/93 102/106/92
s 12
f 105/109/94 106/110/94 107/111/95
f 107/111/95 108/112/96 105/109/94
f 108/112/96 107/111/95 109/113/97
f 109/113/97 110/114/97 108/112/96
s 13
f 111/115/98 112/116/98 113/117/99
f 113/117/99 114/118/100 111/115/98
f 114/118/100 113/117/99 115/119/101
f 115/119/101 116/120/101 114/118/100
s 14
f 117/121/102 118/122/102 119/123/103
f 119/123/103 120/124/104 117/121/102
f 120/124/104 119/123/103 121/125/105
f 121/125/105 122/126/105 120/124/104
