# Blender v3.3.0 OBJ File: ''
# www.blender.org
o SugarCaneStage05.005
v -0.011493 0.648086 0.012003
v 0.011493 0.648086 0.012003
v 0.011493 0.648086 -0.012003
v -0.011493 0.648086 -0.012003
v -0.011493 -0.000000 0.012003
v 0.011493 -0.000000 0.012003
v 0.011493 0.000000 -0.012003
v -0.011493 0.000000 -0.012003
v -0.009601 0.626164 -0.000379
v 0.007141 0.625727 -0.000310
v 0.011943 0.697833 -0.062504
v -0.011212 0.698270 -0.062574
v 0.016224 0.772902 -0.098136
v -0.006932 0.773339 -0.098205
v 0.006174 0.836297 -0.157634
v -0.016981 0.836734 -0.157704
v 0.011663 0.872473 -0.267928
v -0.011492 0.872910 -0.267998
v 0.011683 0.612328 0.005391
v -0.009810 0.610759 0.004197
v -0.032082 0.809940 -0.029834
v -0.000060 0.811509 -0.028641
v -0.001254 1.018196 -0.036296
v -0.025689 1.017424 -0.015520
v -0.077981 1.237066 -0.050128
v -0.053545 1.237838 -0.070904
v -0.168140 1.420078 -0.140406
v -0.143705 1.420850 -0.161182
v 0.011644 0.612246 0.006258
v -0.000099 0.811427 -0.027774
v -0.032121 0.809857 -0.028967
v -0.009849 0.610677 0.005064
v -0.000710 1.018225 -0.035622
v -0.025145 1.017453 -0.014846
v -0.053002 1.237867 -0.070230
v -0.077437 1.237095 -0.049454
v -0.143161 1.420879 -0.160507
v -0.167597 1.420106 -0.139732
v -0.007424 0.632519 -0.004446
v 0.008331 0.759514 -0.044059
v 0.030976 0.752227 -0.059349
v 0.009829 0.631744 -0.005883
v 0.028446 0.874901 -0.082754
v 0.051091 0.867614 -0.098043
v 0.016511 0.981877 -0.160255
v 0.039157 0.974590 -0.175544
v -0.037585 1.055682 -0.276148
v -0.014940 1.048395 -0.291437
v -0.007387 0.632532 -0.003772
v 0.009866 0.631757 -0.005210
v 0.031376 0.752223 -0.058803
v 0.008731 0.759510 -0.043513
v 0.051500 0.867703 -0.097538
v 0.028855 0.874991 -0.082248
v 0.039565 0.974679 -0.175039
v 0.016920 0.981966 -0.159749
v -0.014531 1.048484 -0.290932
v -0.037176 1.055771 -0.275642
v 0.007142 0.627186 0.000557
v -0.009600 0.626778 0.000349
v -0.008350 0.675846 0.088919
v 0.009015 0.688872 0.080847
v -0.027194 0.734888 0.151130
v -0.009829 0.747914 0.143058
v -0.019512 0.790805 0.224575
v -0.002147 0.803831 0.216503
v 0.010797 0.812898 0.337510
v 0.028162 0.825924 0.329438
v -0.011237 0.612880 -0.002504
v 0.010256 0.611169 -0.001670
v 0.030961 0.811569 0.058296
v 0.007167 0.803765 0.078346
v 0.028358 1.007136 0.107270
v 0.004565 0.999332 0.127320
v 0.068929 1.183403 0.203472
v 0.045135 1.175599 0.223522
v 0.161377 1.297454 0.346018
v 0.137583 1.289650 0.366068
v -0.011198 0.612920 -0.003376
v 0.006605 0.803825 0.077680
v 0.030399 0.811629 0.057630
v 0.010294 0.611208 -0.002542
v 0.004010 0.999548 0.126705
v 0.027804 1.007352 0.106655
v 0.044581 1.175815 0.222907
v 0.068374 1.183619 0.202857
v 0.137028 1.289865 0.365453
v 0.160822 1.297670 0.345403
v 0.008529 0.633308 0.000570
v 0.007467 0.743198 0.086312
v -0.014154 0.730362 0.099242
v -0.008725 0.632262 0.001708
v -0.022836 0.846674 0.155343
v -0.044457 0.833839 0.168273
v -0.021509 0.939637 0.260752
v -0.043130 0.926802 0.273682
v 0.023525 0.999322 0.395576
v 0.001903 0.986487 0.408506
v 0.008492 0.633460 -0.000076
v -0.008762 0.632414 0.001061
v -0.014538 0.730398 0.098698
v 0.007083 0.743234 0.085768
v -0.044859 0.833957 0.167794
v -0.023238 0.846792 0.154864
v -0.043532 0.926920 0.273203
v -0.021911 0.939755 0.260273
v 0.001502 0.986605 0.408027
v 0.023123 0.999441 0.395097
v -0.000854 0.626164 0.008055
v -0.000785 0.625727 -0.008687
v -0.070035 0.691542 -0.005717
v -0.062760 0.699264 0.014870
v -0.106035 0.764435 -0.023435
v -0.098760 0.772156 -0.002848
v -0.159989 0.833071 -0.017263
v -0.152714 0.840792 0.003324
v -0.266731 0.875887 -0.000636
v -0.259456 0.883609 0.019951
v 0.004079 0.612880 -0.010107
v 0.003245 0.611169 0.011385
v -0.054325 0.818689 0.026696
v -0.070030 0.813080 -0.000707
v -0.076944 0.962586 0.030607
v -0.092649 0.956976 0.003204
v -0.159514 1.131112 0.058194
v -0.175218 1.125502 0.030790
v -0.316028 1.238735 0.134312
v -0.331732 1.233126 0.106909
v 0.004951 0.612920 -0.010069
v -0.069278 0.813178 -0.001142
v -0.053574 0.818788 0.026261
v 0.004117 0.611208 0.011424
v -0.091949 0.957231 0.002781
v -0.076245 0.962840 0.030184
v -0.174519 1.125756 0.030367
v -0.158814 1.131366 0.057771
v -0.331033 1.233380 0.106486
v -0.315328 1.238989 0.133890
v 0.000929 0.632827 0.008587
v -0.052892 0.756802 -0.004055
v -0.065555 0.749059 -0.028124
v -0.000418 0.631955 -0.008666
v -0.102471 0.869411 -0.023005
v -0.115133 0.861667 -0.047073
v -0.192320 0.969950 -0.013835
v -0.204983 0.962206 -0.037903
v -0.320119 1.033526 0.032589
v -0.332782 1.025782 0.008521
v 0.001599 0.632887 0.008550
v 0.000251 0.632015 -0.008703
v -0.064979 0.749106 -0.028473
v -0.052316 0.756849 -0.004404
v -0.114608 0.861804 -0.047431
v -0.101945 0.869547 -0.023363
v -0.204457 0.962343 -0.038261
v -0.191794 0.970086 -0.014193
v -0.332256 1.025919 0.008162
v -0.319593 1.033662 0.032231
v -0.010565 0.627186 -0.005787
v -0.010774 0.626778 0.010955
v 0.076178 0.678022 -0.003102
v 0.069854 0.691938 -0.020501
v 0.137607 0.734857 0.023498
v 0.131283 0.748773 0.006099
v 0.212436 0.789441 0.024504
v 0.206112 0.803358 0.007105
v 0.327927 0.810336 0.004845
v 0.321603 0.824252 -0.012554
v -0.006964 0.612880 0.012437
v -0.006130 0.611169 -0.009055
v 0.063099 0.806698 -0.045253
v 0.074922 0.798712 -0.016521
v 0.126589 0.990194 -0.038779
v 0.138412 0.982209 -0.010048
v 0.235143 1.151288 -0.054511
v 0.246966 1.143302 -0.025780
v 0.401693 1.252275 -0.104416
v 0.413516 1.244290 -0.075685
v -0.007836 0.612920 0.012399
v 0.074113 0.798745 -0.016195
v 0.062290 0.806730 -0.044926
v -0.007002 0.611208 -0.009094
v 0.137649 0.982399 -0.009710
v 0.125826 0.990384 -0.038441
v 0.246203 1.143492 -0.025442
v 0.234380 1.151478 -0.054173
v 0.412753 1.244480 -0.075347
v 0.400929 1.252465 -0.104078
v -0.005953 0.633308 -0.006138
v 0.075228 0.747231 0.002902
v 0.087028 0.736022 0.026021
v -0.004815 0.632262 0.011116
v 0.147502 0.850451 0.025553
v 0.159303 0.839241 0.048672
v 0.256562 0.938859 0.018846
v 0.268363 0.927649 0.041965
v 0.394869 0.988928 -0.027327
v 0.406670 0.977719 -0.004208
v -0.006599 0.633460 -0.006101
v -0.005462 0.632414 0.011153
v 0.086476 0.736114 0.026383
v 0.074675 0.747323 0.003264
v 0.158818 0.839415 0.049045
v 0.147017 0.850624 0.025926
v 0.267878 0.927823 0.042339
v 0.256077 0.939032 0.019220
v 0.406185 0.977892 -0.003834
v 0.394385 0.989101 -0.026953
v 0.010137 0.612328 -0.003601
v -0.007094 0.610759 0.009300
v -0.040182 0.809940 0.012007
v -0.014885 0.811509 -0.007662
v -0.042466 1.018265 0.053431
v -0.014331 1.028719 0.042100
v -0.212481 1.064282 -0.142864
v -0.095904 1.114671 -0.064031
v -0.102227 1.092805 -0.041396
v -0.218803 1.042415 -0.120229
v -0.357902 0.925900 -0.272604
v -0.351580 0.947766 -0.295239
v 0.010665 0.612246 -0.002912
v -0.014357 0.811427 -0.006973
v -0.039654 0.809858 0.012697
v -0.006566 0.610677 0.009989
v -0.014009 1.028655 0.042901
v -0.042145 1.018201 0.054233
v -0.212914 1.064726 -0.142516
v -0.219236 1.042859 -0.119882
v -0.102660 1.093249 -0.041049
v -0.096337 1.115115 -0.063684
v -0.352013 0.948210 -0.294892
v -0.358335 0.926344 -0.272257
v -0.008014 0.612328 0.009637
v 0.009217 0.610759 -0.003265
v 0.042305 0.809940 -0.005972
v 0.017008 0.811509 0.013697
v 0.059013 0.975447 -0.033167
v 0.033716 0.977017 -0.013498
v 0.215344 1.016847 0.147738
v 0.112461 1.063388 0.049796
v 0.124020 1.042535 0.028302
v 0.226903 0.995995 0.126244
v 0.342188 0.882498 0.299364
v 0.330629 0.903351 0.320858
v -0.008542 0.612246 0.008947
v 0.016480 0.811427 0.013008
v 0.041778 0.809858 -0.006661
v 0.008689 0.610677 -0.003954
v 0.033207 0.977096 -0.014195
v 0.058504 0.975527 -0.033864
v 0.215807 1.017323 0.147485
v 0.227366 0.996470 0.125990
v 0.124483 1.043011 0.028048
v 0.112924 1.063864 0.049542
v 0.331092 0.903827 0.320604
v 0.342651 0.882974 0.299110
v -0.005950 0.612328 -0.009535
v 0.003763 0.610759 0.009674
v 0.000684 0.809940 0.042730
v -0.014294 0.811509 0.014401
v 0.045468 1.054660 0.051601
v 0.030491 1.056230 0.023273
v -0.193013 1.120492 0.157288
v -0.080280 1.141000 0.061296
v -0.072660 1.168161 0.076615
v -0.185393 1.147653 0.172607
v -0.319284 1.080804 0.356310
v -0.326904 1.053643 0.340990
v -0.005179 0.612246 -0.009936
v -0.013524 0.811427 0.014001
v 0.001454 0.809858 0.042330
v 0.004533 0.610677 0.009274
v 0.031265 1.056309 0.022892
v 0.046243 1.054739 0.051221
v -0.193442 1.120879 0.156874
v -0.185822 1.148040 0.172193
v -0.073089 1.168547 0.076200
v -0.080709 1.141386 0.060881
v -0.327333 1.054029 0.340577
v -0.319713 1.081190 0.355896
v 0.003065 0.612328 0.011491
v -0.006648 0.610759 -0.007719
v -0.003568 0.809940 -0.040774
v 0.011409 0.811509 -0.012446
v -0.027449 0.933853 -0.061951
v -0.012472 0.935422 -0.033622
v 0.180980 0.975635 -0.184609
v 0.068080 1.031230 -0.127280
v 0.051415 1.015931 -0.150054
v 0.164314 0.960336 -0.207383
v 0.352442 0.823406 -0.252111
v 0.369107 0.838704 -0.229337
v 0.002295 0.612246 0.011891
v 0.010639 0.811427 -0.012046
v -0.004339 0.809857 -0.040374
v -0.007418 0.610677 -0.007319
v -0.013246 0.935502 -0.033242
v -0.028224 0.933932 -0.061571
v 0.181036 0.976183 -0.185058
v 0.164370 0.960885 -0.207831
v 0.051471 1.016480 -0.150504
v 0.068137 1.031778 -0.127729
v 0.369163 0.839253 -0.229786
v 0.352498 0.823954 -0.252560
v -0.000837 0.445813 0.011258
v -0.013763 0.445376 -0.008826
v -0.059654 0.508771 0.026401
v -0.046728 0.509208 0.046485
v -0.158249 0.544947 0.070814
v -0.145324 0.545384 0.090898
v -0.006557 0.565546 -0.009650
v 0.016952 0.565109 0.000192
v 0.038692 0.649875 -0.074945
v 0.015183 0.650312 -0.084787
v 0.091810 0.723734 -0.185111
v 0.068301 0.724171 -0.194953
v -0.010211 0.222372 0.010950
v -0.001263 0.221935 -0.010788
v -0.061028 0.285330 -0.019487
v -0.069976 0.285767 0.002250
v -0.162565 0.321506 -0.058278
v -0.171513 0.321943 -0.036540
v 0.009521 0.331139 -0.011714
v 0.002732 0.330702 0.010637
v 0.089502 0.415468 0.016678
v 0.096291 0.415905 -0.005672
v 0.220414 0.489327 0.044186
v 0.227202 0.489764 0.021836
vt 0.048400 0.958300
vt 0.048400 0.999500
vt 0.000500 0.999500
vt 0.000500 0.958300
vt 0.048400 0.000500
vt 0.089100 0.000500
vt 0.089100 0.958300
vt 0.137000 0.000500
vt 0.137000 0.958300
vt 0.177800 0.000500
vt 0.177800 0.958300
vt 0.000500 0.000500
vt 0.277500 0.000100
vt 0.313900 0.000100
vt 0.313900 0.250100
vt 0.277500 0.250100
vt 0.313900 0.500100
vt 0.277500 0.500100
vt 0.313900 0.750100
vt 0.277500 0.750100
vt 0.313900 1.000100
vt 0.277500 1.000100
vt 0.187200 0.000000
vt 0.223500 0.000000
vt 0.223500 0.250000
vt 0.187200 0.250000
vt 0.187200 0.500000
vt 0.223500 0.500000
vt 0.223500 0.750000
vt 0.187200 0.750000
vt 0.223500 1.000000
vt 0.187200 1.000000
vt 0.187200 0.000000
vt 0.187200 0.250000
vt 0.223500 0.250000
vt 0.223500 0.000000
vt 0.187200 0.500000
vt 0.223500 0.500000
vt 0.187200 0.750000
vt 0.223500 0.750000
vt 0.187200 1.000000
vt 0.223500 1.000000
vt 0.230700 0.000100
vt 0.230700 0.250100
vt 0.267000 0.250100
vt 0.267000 0.000100
vt 0.230700 0.500100
vt 0.267000 0.500100
vt 0.230700 0.750100
vt 0.267000 0.750100
vt 0.230700 1.000100
vt 0.267000 1.000100
vt 0.230700 0.000100
vt 0.267000 0.000100
vt 0.267000 0.250100
vt 0.230700 0.250100
vt 0.267000 0.500100
vt 0.230700 0.500100
vt 0.267000 0.750100
vt 0.230700 0.750100
vt 0.267000 1.000100
vt 0.230700 1.000100
vt 0.277500 0.000100
vt 0.313900 0.000100
vt 0.313900 0.250100
vt 0.277500 0.250100
vt 0.313900 0.500100
vt 0.277500 0.500100
vt 0.313900 0.750100
vt 0.277500 0.750100
vt 0.313900 1.000100
vt 0.277500 1.000100
vt 0.187200 0.000000
vt 0.223500 0.000000
vt 0.223500 0.250000
vt 0.187200 0.250000
vt 0.223500 0.500000
vt 0.187200 0.500000
vt 0.223500 0.750000
vt 0.187200 0.750000
vt 0.223500 1.000000
vt 0.187200 1.000000
vt 0.187200 0.000000
vt 0.187200 0.250000
vt 0.223500 0.250000
vt 0.223500 0.000000
vt 0.187200 0.500000
vt 0.223500 0.500000
vt 0.187200 0.750000
vt 0.223500 0.750000
vt 0.187200 1.000000
vt 0.223500 1.000000
vt 0.230700 0.000100
vt 0.230700 0.250100
vt 0.267000 0.250100
vt 0.267000 0.000100
vt 0.230700 0.500100
vt 0.267000 0.500100
vt 0.230700 0.750100
vt 0.267000 0.750100
vt 0.230700 1.000100
vt 0.267000 1.000100
vt 0.230700 0.000100
vt 0.267000 0.000100
vt 0.267000 0.250100
vt 0.230700 0.250100
vt 0.267000 0.500100
vt 0.230700 0.500100
vt 0.267000 0.750100
vt 0.230700 0.750100
vt 0.267000 1.000100
vt 0.230700 1.000100
vt 0.277500 0.000100
vt 0.313900 0.000100
vt 0.313900 0.250100
vt 0.277500 0.250100
vt 0.313900 0.500100
vt 0.277500 0.500100
vt 0.313900 0.750100
vt 0.277500 0.750100
vt 0.313900 1.000100
vt 0.277500 1.000100
vt 0.187200 0.000000
vt 0.223500 0.000000
vt 0.223500 0.250000
vt 0.187200 0.250000
vt 0.223500 0.500000
vt 0.187200 0.500000
vt 0.223500 0.750000
vt 0.187200 0.750000
vt 0.223500 1.000000
vt 0.187200 1.000000
vt 0.187200 0.000000
vt 0.187200 0.250000
vt 0.223500 0.250000
vt 0.223500 0.000000
vt 0.187200 0.500000
vt 0.223500 0.500000
vt 0.187200 0.750000
vt 0.223500 0.750000
vt 0.187200 1.000000
vt 0.223500 1.000000
vt 0.230700 0.000100
vt 0.230700 0.250100
vt 0.267000 0.250100
vt 0.267000 0.000100
vt 0.230700 0.500100
vt 0.267000 0.500100
vt 0.230700 0.750100
vt 0.267000 0.750100
vt 0.230700 1.000100
vt 0.267000 1.000100
vt 0.230700 0.000100
vt 0.267000 0.000100
vt 0.267000 0.250100
vt 0.230700 0.250100
vt 0.267000 0.500100
vt 0.230700 0.500100
vt 0.267000 0.750100
vt 0.230700 0.750100
vt 0.267000 1.000100
vt 0.230700 1.000100
vt 0.277500 0.000100
vt 0.313900 0.000100
vt 0.313900 0.250100
vt 0.277500 0.250100
vt 0.313900 0.500100
vt 0.277500 0.500100
vt 0.313900 0.750100
vt 0.277500 0.750100
vt 0.313900 1.000100
vt 0.277500 1.000100
vt 0.187200 0.000000
vt 0.223500 0.000000
vt 0.223500 0.250000
vt 0.187200 0.250000
vt 0.223500 0.500000
vt 0.187200 0.500000
vt 0.223500 0.750000
vt 0.187200 0.750000
vt 0.223500 1.000000
vt 0.187200 1.000000
vt 0.187200 0.000000
vt 0.187200 0.250000
vt 0.223500 0.250000
vt 0.223500 0.000000
vt 0.187200 0.500000
vt 0.223500 0.500000
vt 0.187200 0.750000
vt 0.223500 0.750000
vt 0.187200 1.000000
vt 0.223500 1.000000
vt 0.230700 0.000100
vt 0.230700 0.250100
vt 0.267000 0.250100
vt 0.267000 0.000100
vt 0.230700 0.500100
vt 0.267000 0.500100
vt 0.230700 0.750100
vt 0.267000 0.750100
vt 0.230700 1.000100
vt 0.267000 1.000100
vt 0.230700 0.000100
vt 0.267000 0.000100
vt 0.267000 0.250100
vt 0.230700 0.250100
vt 0.267000 0.500100
vt 0.230700 0.500100
vt 0.267000 0.750100
vt 0.230700 0.750100
vt 0.267000 1.000100
vt 0.230700 1.000100
vt 0.325400 0.000000
vt 0.361700 0.000000
vt 0.361700 0.250000
vt 0.325400 0.250000
vt 0.361700 0.500000
vt 0.325400 0.500000
vt 0.325400 0.750000
vt 0.325400 0.625000
vt 0.361700 0.625000
vt 0.361700 0.750000
vt 0.361700 1.000000
vt 0.325400 1.000000
vt 0.325400 0.000000
vt 0.325400 0.250000
vt 0.361700 0.250000
vt 0.361700 0.000000
vt 0.325400 0.500000
vt 0.361700 0.500000
vt 0.325400 0.750000
vt 0.361700 0.750000
vt 0.361700 0.625000
vt 0.325400 0.625000
vt 0.325400 1.000000
vt 0.361700 1.000000
vt 0.325400 0.000000
vt 0.361700 0.000000
vt 0.361700 0.250000
vt 0.325400 0.250000
vt 0.361700 0.500000
vt 0.325400 0.500000
vt 0.325400 0.750000
vt 0.325400 0.625000
vt 0.361700 0.625000
vt 0.361700 0.750000
vt 0.361700 1.000000
vt 0.325400 1.000000
vt 0.325400 0.000000
vt 0.325400 0.250000
vt 0.361700 0.250000
vt 0.361700 0.000000
vt 0.325400 0.500000
vt 0.361700 0.500000
vt 0.325400 0.750000
vt 0.361700 0.750000
vt 0.361700 0.625000
vt 0.325400 0.625000
vt 0.325400 1.000000
vt 0.361700 1.000000
vt 0.325400 0.000000
vt 0.361700 0.000000
vt 0.361700 0.250000
vt 0.325400 0.250000
vt 0.361700 0.500000
vt 0.325400 0.500000
vt 0.325400 0.750000
vt 0.325400 0.625000
vt 0.361700 0.625000
vt 0.361700 0.750000
vt 0.361700 1.000000
vt 0.325400 1.000000
vt 0.325400 0.000000
vt 0.325400 0.250000
vt 0.361700 0.250000
vt 0.361700 0.000000
vt 0.325400 0.500000
vt 0.361700 0.500000
vt 0.325400 0.750000
vt 0.361700 0.750000
vt 0.361700 0.625000
vt 0.325400 0.625000
vt 0.325400 1.000000
vt 0.361700 1.000000
vt 0.325400 0.000000
vt 0.361700 0.000000
vt 0.361700 0.250000
vt 0.325400 0.250000
vt 0.361700 0.500000
vt 0.325400 0.500000
vt 0.325400 0.750000
vt 0.325400 0.625000
vt 0.361700 0.625000
vt 0.361700 0.750000
vt 0.361700 1.000000
vt 0.325400 1.000000
vt 0.325400 0.000000
vt 0.325400 0.250000
vt 0.361700 0.250000
vt 0.361700 0.000000
vt 0.325400 0.500000
vt 0.361700 0.500000
vt 0.325400 0.750000
vt 0.361700 0.750000
vt 0.361700 0.625000
vt 0.325400 0.625000
vt 0.325400 1.000000
vt 0.361700 1.000000
vt 0.277500 0.500100
vt 0.313900 0.500100
vt 0.313900 0.750100
vt 0.277500 0.750100
vt 0.313900 1.000100
vt 0.277500 1.000100
vt 0.277500 0.500100
vt 0.313900 0.500100
vt 0.313900 0.750100
vt 0.277500 0.750100
vt 0.313900 1.000100
vt 0.277500 1.000100
vt 0.277500 0.500100
vt 0.313900 0.500100
vt 0.313900 0.750100
vt 0.277500 0.750100
vt 0.313900 1.000100
vt 0.277500 1.000100
vt 0.277500 0.500100
vt 0.313900 0.500100
vt 0.313900 0.750100
vt 0.277500 0.750100
vt 0.313900 1.000100
vt 0.277500 1.000100
vn -0.5774 0.5774 0.5774
vn 0.5774 0.5774 0.5774
vn 0.5773 0.5774 -0.5774
vn -0.5774 0.5774 -0.5774
vn -0.7071 -0.0000 0.7071
vn 0.7071 -0.0000 0.7071
vn 0.7071 0.0000 -0.7071
vn -0.7071 0.0000 -0.7071
vn 0.0133 0.6527 0.7575
vn 0.0139 0.6525 0.7576
vn 0.0079 0.5434 0.8395
vn 0.0078 0.5458 0.8379
vn 0.0081 0.5595 0.8288
vn 0.0083 0.5676 0.8233
vn 0.0142 0.8397 0.5429
vn 0.0144 0.8478 0.5302
vn 0.0170 0.9498 0.3124
vn 0.0643 -0.1613 -0.9848
vn 0.0664 -0.1608 -0.9847
vn 0.0404 -0.0497 -0.9979
vn 0.0068 -0.0523 -0.9986
vn -0.6378 -0.1487 -0.7557
vn -0.6127 -0.1464 -0.7766
vn -0.5778 -0.4271 -0.6955
vn -0.5803 -0.4193 -0.6982
vn -0.5217 -0.5701 -0.6347
vn -0.0643 0.1613 0.9848
vn -0.0069 0.0526 0.9986
vn -0.0404 0.0503 0.9979
vn -0.0664 0.1608 0.9847
vn 0.6379 0.1482 0.7557
vn 0.6128 0.1459 0.7766
vn 0.5804 0.4193 0.6981
vn 0.5778 0.4271 0.6955
vn 0.5216 0.5701 0.6348
vn 0.5216 0.5701 0.6347
vn -0.1653 -0.3669 -0.9155
vn -0.5882 -0.1684 -0.7910
vn -0.5717 -0.1778 -0.8010
vn -0.0938 -0.3900 -0.9160
vn -0.5989 -0.3414 -0.7244
vn -0.5989 -0.3523 -0.7191
vn -0.5449 -0.6882 -0.4791
vn -0.5435 -0.6920 -0.4751
vn -0.4725 -0.8266 -0.3058
vn 0.1654 0.3673 0.9153
vn 0.0939 0.3906 0.9157
vn 0.5717 0.1775 0.8010
vn 0.5882 0.1680 0.7911
vn 0.5989 0.3524 0.7191
vn 0.5990 0.3414 0.7243
vn 0.5435 0.6920 0.4751
vn 0.5449 0.6881 0.4791
vn 0.4725 0.8266 0.3058
vn -0.1066 0.8630 -0.4939
vn -0.0153 0.8747 -0.4844
vn -0.6254 0.5542 -0.5493
vn -0.6509 0.5321 -0.5415
vn -0.6532 0.5450 -0.5257
vn -0.6541 0.5503 -0.5190
vn -0.6478 0.7312 -0.2138
vn -0.6460 0.7363 -0.2015
vn -0.5989 0.8008 0.0041
vn 0.0104 -0.2946 0.9556
vn -0.0595 -0.2805 0.9580
vn 0.6529 -0.2549 0.7133
vn 0.6707 -0.2626 0.6937
vn 0.6690 -0.3339 0.6640
vn 0.6697 -0.3206 0.6699
vn 0.5993 -0.6587 0.4548
vn 0.6037 -0.6483 0.4641
vn 0.5181 -0.7996 0.3037
vn -0.0102 0.2954 -0.9553
vn -0.6707 0.2619 -0.6940
vn -0.6529 0.2545 -0.7134
vn 0.0596 0.2815 -0.9577
vn -0.6697 0.3206 -0.6699
vn -0.6690 0.3340 -0.6640
vn -0.6037 0.6483 -0.4641
vn -0.5993 0.6587 -0.4548
vn -0.5182 0.7996 -0.3037
vn 0.1621 -0.6846 0.7107
vn 0.6317 -0.3881 0.6710
vn 0.6144 -0.3985 0.6810
vn 0.0892 -0.6998 0.7088
vn 0.6392 -0.4443 0.6277
vn 0.6400 -0.4528 0.6207
vn 0.6224 -0.7041 0.3419
vn 0.6216 -0.7067 0.3379
vn 0.5740 -0.8024 0.1635
vn -0.1621 0.6851 -0.7102
vn -0.0891 0.7004 -0.7082
vn -0.6143 0.3982 -0.6812
vn -0.6317 0.3879 -0.6712
vn -0.6400 0.4529 -0.6207
vn -0.6392 0.4444 -0.6277
vn -0.6216 0.7067 -0.3379
vn -0.6224 0.7041 -0.3419
vn -0.5741 0.8023 -0.1634
vn 0.6930 0.7164 -0.0802
vn 0.6884 0.7251 -0.0161
vn 0.7709 0.4759 -0.4233
vn 0.7677 0.4616 -0.4444
vn 0.7770 0.4477 -0.4425
vn 0.7716 0.4558 -0.4436
vn 0.5007 0.7373 -0.4535
vn 0.4886 0.7460 -0.4525
vn 0.2800 0.8621 -0.4223
vn -0.9623 -0.2721 -0.0053
vn -0.9631 -0.2629 -0.0583
vn -0.8336 -0.2274 0.5033
vn -0.8210 -0.2376 0.5192
vn -0.7968 -0.3083 0.5197
vn -0.8034 -0.2904 0.5199
vn -0.5754 -0.6713 0.4672
vn -0.5872 -0.6581 0.4712
vn -0.3845 -0.8360 0.3915
vn 0.9621 0.2726 0.0054
vn 0.8211 0.2372 -0.5191
vn 0.8337 0.2272 -0.5033
vn 0.9629 0.2634 0.0583
vn 0.8034 0.2905 -0.5198
vn 0.7968 0.3083 -0.5197
vn 0.5872 0.6581 -0.4712
vn 0.5754 0.6713 -0.4672
vn 0.3845 0.8360 -0.3915
vn -0.8779 -0.4542 0.1518
vn -0.8080 -0.2838 0.5164
vn -0.8147 -0.2912 0.5015
vn -0.8766 -0.4723 0.0923
vn -0.7304 -0.4370 0.5249
vn -0.7242 -0.4472 0.5249
vn -0.4588 -0.7467 0.4816
vn -0.4545 -0.7500 0.4805
vn -0.2758 -0.8632 0.4228
vn 0.8777 0.4544 -0.1519
vn 0.8764 0.4726 -0.0924
vn 0.8147 0.2910 -0.5015
vn 0.8080 0.2836 -0.5164
vn 0.7242 0.4472 -0.5249
vn 0.7304 0.4370 -0.5249
vn 0.4545 0.7501 -0.4804
vn 0.4588 0.7467 -0.4816
vn 0.2758 0.8632 -0.4228
vn -0.5055 0.8573 0.0975
vn -0.5059 0.8625 0.0147
vn -0.5441 0.5729 0.6130
vn -0.5521 0.5417 0.6339
vn -0.5696 0.5283 0.6296
vn -0.5630 0.5334 0.6313
vn -0.2551 0.7077 0.6588
vn -0.2426 0.7127 0.6582
vn -0.0327 0.7747 0.6315
vn 0.9416 -0.3365 0.0132
vn 0.9444 -0.3228 0.0623
vn 0.8399 -0.3413 -0.4221
vn 0.8247 -0.3571 -0.4386
vn 0.7943 -0.4162 -0.4425
vn 0.8012 -0.4036 -0.4419
vn 0.5638 -0.7061 -0.4283
vn 0.5764 -0.6947 -0.4303
vn 0.3884 -0.8341 -0.3917
vn -0.9415 0.3367 -0.0132
vn -0.8248 0.3568 0.4386
vn -0.8399 0.3411 0.4221
vn -0.9443 0.3232 -0.0624
vn -0.8012 0.4036 0.4419
vn -0.7943 0.4162 0.4425
vn -0.5764 0.6947 0.4303
vn -0.5638 0.7061 0.4283
vn -0.3884 0.8341 0.3917
vn 0.7560 -0.6362 -0.1538
vn 0.7108 -0.4182 -0.5656
vn 0.7179 -0.4271 -0.5498
vn 0.7521 -0.6529 -0.0892
vn 0.6268 -0.5259 -0.5749
vn 0.6194 -0.5342 -0.5752
vn 0.3303 -0.7721 -0.5430
vn 0.3262 -0.7745 -0.5420
vn 0.1468 -0.8586 -0.4912
vn -0.7557 0.6366 0.1538
vn -0.7518 0.6534 0.0892
vn -0.7180 0.4269 0.5498
vn -0.7109 0.4180 0.5656
vn -0.6194 0.5343 0.5752
vn -0.6267 0.5260 0.5749
vn -0.3262 0.7745 0.5420
vn -0.3303 0.7721 0.5429
vn -0.1468 0.8586 0.4912
vn -0.5935 -0.0879 -0.8000
vn -0.5919 -0.0874 -0.8012
vn -0.6142 0.0345 -0.7884
vn -0.6068 0.0257 -0.7945
vn -0.2691 -0.2895 -0.9186
vn -0.2213 -0.3786 -0.8987
vn 0.6971 -0.6030 -0.3878
vn 0.4552 -0.7042 -0.5449
vn 0.3311 -0.7232 -0.6061
vn 0.6977 -0.6027 -0.3874
vn 0.7848 -0.5406 -0.3030
vn 0.5935 0.0879 0.8000
vn 0.6068 -0.0256 0.7944
vn 0.6143 -0.0345 0.7884
vn 0.5919 0.0874 0.8012
vn 0.2218 0.3777 0.8990
vn 0.2690 0.2899 0.9185
vn -0.6971 0.6030 0.3878
vn -0.6977 0.6027 0.3874
vn -0.3300 0.7233 0.6066
vn -0.4545 0.7043 0.5453
vn -0.7848 0.5406 0.3030
vn 0.5936 -0.0880 0.8000
vn 0.5920 -0.0874 0.8012
vn 0.6130 -0.0071 0.7901
vn 0.6131 -0.0171 0.7898
vn 0.5221 -0.4111 0.7473
vn 0.5644 -0.3384 0.7529
vn -0.7213 -0.6491 0.2418
vn -0.3642 -0.7749 0.5166
vn -0.2581 -0.7591 0.5976
vn -0.7217 -0.6488 0.2413
vn -0.7954 -0.5889 0.1436
vn -0.5935 0.0879 -0.8000
vn -0.6130 0.0172 -0.7899
vn -0.6130 0.0071 -0.7901
vn -0.5919 0.0874 -0.8012
vn -0.5643 0.3390 -0.7528
vn -0.5217 0.4126 -0.7467
vn 0.7213 0.6491 -0.2418
vn 0.7217 0.6488 -0.2413
vn 0.2589 0.7591 -0.5972
vn 0.3642 0.7749 -0.5167
vn 0.7954 0.5889 -0.1436
vn -0.8909 -0.0879 0.4456
vn -0.8918 -0.0874 0.4438
vn -0.8832 0.0313 0.4679
vn -0.8834 0.0213 0.4682
vn -0.8512 -0.2955 0.4337
vn -0.8180 -0.3373 0.4659
vn 0.7061 -0.4877 0.5134
vn 0.2452 -0.5275 0.8134
vn 0.3207 -0.5736 0.7538
vn 0.7066 -0.4875 0.5129
vn 0.7906 -0.4537 0.4112
vn 0.8909 0.0879 -0.4456
vn 0.8834 -0.0212 -0.4682
vn 0.8832 -0.0313 -0.4679
vn 0.8919 0.0874 -0.4438
vn 0.8176 0.3392 -0.4653
vn 0.8509 0.2966 -0.4335
vn -0.7061 0.4877 -0.5134
vn -0.7066 0.4875 -0.5129
vn -0.3203 0.5733 -0.7541
vn -0.2452 0.5275 -0.8134
vn -0.7906 0.4537 -0.4112
vn 0.8909 -0.0879 -0.4456
vn 0.8919 -0.0874 -0.4438
vn 0.8842 0.0063 -0.4671
vn 0.8842 -0.0085 -0.4670
vn 0.8116 -0.4414 -0.3827
vn 0.8482 -0.3072 -0.4314
vn -0.2038 -0.7371 0.6443
vn 0.3389 -0.8854 0.3183
vn 0.3645 -0.8743 0.3206
vn -0.2082 -0.7346 0.6458
vn -0.3200 -0.6613 0.6784
vn -0.8909 0.0879 0.4456
vn -0.8842 0.0086 0.4670
vn -0.8842 -0.0062 0.4671
vn -0.8919 0.0874 0.4438
vn -0.8480 0.3082 0.4313
vn -0.8110 0.4427 0.3824
vn 0.2038 0.7371 -0.6443
vn 0.2082 0.7346 -0.6458
vn -0.3637 0.8744 -0.3212
vn -0.3382 0.8854 -0.3189
vn 0.3200 0.6613 -0.6784
vn 0.6150 0.6733 -0.4105
vn 0.4492 0.8389 -0.3073
vn 0.4568 0.8330 -0.3121
vn 0.2620 0.9463 -0.1892
vn -0.2737 0.6764 0.6838
vn -0.2332 0.7721 0.5912
vn -0.2316 0.7752 0.5877
vn -0.1865 0.8553 0.4835
vn 0.6826 0.6802 0.2673
vn 0.5191 0.8317 0.1969
vn 0.4922 0.8505 0.1855
vn 0.2984 0.9488 0.1038
vn -0.6789 0.7086 -0.1923
vn -0.5873 0.7928 -0.1629
vn -0.5697 0.8067 -0.1573
vn -0.4675 0.8751 -0.1249
s 1
f 1/1/1 2/2/2 3/3/3
f 3/3/3 4/4/4 1/1/1
f 5/5/5 6/6/6 2/7/2
f 2/7/2 1/1/1 5/5/5
f 6/6/6 7/8/7 3/9/3
f 3/9/3 2/7/2 6/6/6
f 7/8/7 8/10/8 4/11/4
f 4/11/4 3/9/3 7/8/7
f 8/12/8 5/5/5 1/1/1
f 1/1/1 4/4/4 8/12/8
s 2
f 9/13/9 10/14/10 11/15/11
f 11/15/11 12/16/12 9/13/9
f 12/16/12 11/15/11 13/17/13
f 13/17/13 14/18/14 12/16/12
f 14/18/14 13/17/13 15/19/15
f 15/19/15 16/20/16 14/18/14
f 16/20/16 15/19/15 17/21/17
f 17/21/17 18/22/17 16/20/16
s 3
f 19/23/18 20/24/19 21/25/20
f 21/25/20 22/26/21 19/23/18
f 23/27/22 22/26/21 24/28/23
f 23/27/22 24/28/23 25/29/24
f 25/29/24 26/30/25 23/27/22
f 26/30/25 25/29/24 27/31/26
f 27/31/26 28/32/26 26/30/25
s 4
f 29/33/27 30/34/28 31/35/29
f 31/35/29 32/36/30 29/33/27
f 33/37/31 34/38/32 30/34/28
f 33/37/31 35/39/33 36/40/34
f 36/40/34 34/38/32 33/37/31
f 35/39/33 37/41/35 38/42/36
f 38/42/36 36/40/34 35/39/33
s 5
f 39/43/37 40/44/38 41/45/39
f 41/45/39 42/46/40 39/43/37
f 40/44/38 43/47/41 44/48/42
f 44/48/42 41/45/39 40/44/38
f 43/47/41 45/49/43 46/50/44
f 46/50/44 44/48/42 43/47/41
f 45/49/43 47/51/45 48/52/45
f 48/52/45 46/50/44 45/49/43
s 6
f 49/53/46 50/54/47 51/55/48
f 51/55/48 52/56/49 49/53/46
f 52/56/49 51/55/48 53/57/50
f 53/57/50 54/58/51 52/56/49
f 54/58/51 53/57/50 55/59/52
f 55/59/52 56/60/53 54/58/51
f 56/60/53 55/59/52 57/61/54
f 57/61/54 58/62/54 56/60/53
s 7
f 59/63/55 60/64/56 61/65/57
f 61/65/57 62/66/58 59/63/55
f 62/66/58 61/65/57 63/67/59
f 63/67/59 64/68/60 62/66/58
f 64/68/60 63/67/59 65/69/61
f 65/69/61 66/70/62 64/68/60
f 66/70/62 65/69/61 67/71/63
f 67/71/63 68/72/63 66/70/62
s 8
f 69/73/64 70/74/65 71/75/66
f 71/75/66 72/76/67 69/73/64
f 72/76/67 71/75/66 73/77/68
f 73/77/68 74/78/69 72/76/67
f 74/78/69 73/77/68 75/79/70
f 75/79/70 76/80/71 74/78/69
f 76/80/71 75/79/70 77/81/72
f 77/81/72 78/82/72 76/80/71
s 9
f 79/83/73 80/84/74 81/85/75
f 81/85/75 82/86/76 79/83/73
f 80/84/74 83/87/77 84/88/78
f 84/88/78 81/85/75 80/84/74
f 83/87/77 85/89/79 86/90/80
f 86/90/80 84/88/78 83/87/77
f 85/89/79 87/91/81 88/92/81
f 88/92/81 86/90/80 85/89/79
s 10
f 89/93/82 90/94/83 91/95/84
f 91/95/84 92/96/85 89/93/82
f 90/94/83 93/97/86 94/98/87
f 94/98/87 91/95/84 90/94/83
f 93/97/86 95/99/88 96/100/89
f 96/100/89 94/98/87 93/97/86
f 95/99/88 97/101/90 98/102/90
f 98/102/90 96/100/89 95/99/88
s 11
f 99/103/91 100/104/92 101/105/93
f 101/105/93 102/106/94 99/103/91
f 102/106/94 101/105/93 103/107/95
f 103/107/95 104/108/96 102/106/94
f 104/108/96 103/107/95 105/109/97
f 105/109/97 106/110/98 104/108/96
f 106/110/98 105/109/97 107/111/99
f 107/111/99 108/112/99 106/110/98
s 12
f 109/113/100 110/114/101 111/115/102
f 111/115/102 112/116/103 109/113/100
f 112/116/103 111/115/102 113/117/104
f 113/117/104 114/118/105 112/116/103
f 114/118/105 113/117/104 115/119/106
f 115/119/106 116/120/107 114/118/105
f 116/120/107 115/119/106 117/121/108
f 117/121/108 118/122/108 116/120/107
s 13
f 119/123/109 120/124/110 121/125/111
f 121/125/111 122/126/112 119/123/109
f 122/126/112 121/125/111 123/127/113
f 123/127/113 124/128/114 122/126/112
f 124/128/114 123/127/113 125/129/115
f 125/129/115 126/130/116 124/128/114
f 126/130/116 125/129/115 127/131/117
f 127/131/117 128/132/117 126/130/116
s 14
f 129/133/118 130/134/119 131/135/120
f 131/135/120 132/136/121 129/133/118
f 130/134/119 133/137/122 134/138/123
f 134/138/123 131/135/120 130/134/119
f 133/137/122 135/139/124 136/140/125
f 136/140/125 134/138/123 133/137/122
f 135/139/124 137/141/126 138/142/126
f 138/142/126 136/140/125 135/139/124
s 15
f 139/143/127 140/144/128 141/145/129
f 141/145/129 142/146/130 139/143/127
f 140/144/128 143/147/131 144/148/132
f 144/148/132 141/145/129 140/144/128
f 143/147/131 145/149/133 146/150/134
f 146/150/134 144/148/132 143/147/131
f 145/149/133 147/151/135 148/152/135
f 148/152/135 146/150/134 145/149/133
s 16
f 149/153/136 150/154/137 151/155/138
f 151/155/138 152/156/139 149/153/136
f 152/156/139 151/155/138 153/157/140
f 153/157/140 154/158/141 152/156/139
f 154/158/141 153/157/140 155/159/142
f 155/159/142 156/160/143 154/158/141
f 156/160/143 155/159/142 157/161/144
f 157/161/144 158/162/144 156/160/143
s 17
f 159/163/145 160/164/146 161/165/147
f 161/165/147 162/166/148 159/163/145
f 162/166/148 161/165/147 163/167/149
f 163/167/149 164/168/150 162/166/148
f 164/168/150 163/167/149 165/169/151
f 165/169/151 166/170/152 164/168/150
f 166/170/152 165/169/151 167/171/153
f 167/171/153 168/172/153 166/170/152
s 18
f 169/173/154 170/174/155 171/175/156
f 171/175/156 172/176/157 169/173/154
f 172/176/157 171/175/156 173/177/158
f 173/177/158 174/178/159 172/176/157
f 174/178/159 173/177/158 175/179/160
f 175/179/160 176/180/161 174/178/159
f 176/180/161 175/179/160 177/181/162
f 177/181/162 178/182/162 176/180/161
s 19
f 179/183/163 180/184/164 181/185/165
f 181/185/165 182/186/166 179/183/163
f 180/184/164 183/187/167 184/188/168
f 184/188/168 181/185/165 180/184/164
f 183/187/167 185/189/169 186/190/170
f 186/190/170 184/188/168 183/187/167
f 185/189/169 187/191/171 188/192/171
f 188/192/171 186/190/170 185/189/169
s 20
f 189/193/172 190/194/173 191/195/174
f 191/195/174 192/196/175 189/193/172
f 190/194/173 193/197/176 194/198/177
f 194/198/177 191/195/174 190/194/173
f 193/197/176 195/199/178 196/200/179
f 196/200/179 194/198/177 193/197/176
f 195/199/178 197/201/180 198/202/180
f 198/202/180 196/200/179 195/199/178
s 21
f 199/203/181 200/204/182 201/205/183
f 201/205/183 202/206/184 199/203/181
f 202/206/184 201/205/183 203/207/185
f 203/207/185 204/208/186 202/206/184
f 204/208/186 203/207/185 205/209/187
f 205/209/187 206/210/188 204/208/186
f 206/210/188 205/209/187 207/211/189
f 207/211/189 208/212/189 206/210/188
s 22
f 209/213/190 210/214/191 211/215/192
f 211/215/192 212/216/193 209/213/190
f 212/216/193 211/215/192 213/217/194
f 213/217/194 214/218/195 212/216/193
f 215/219/196 216/220/197 217/221/198
f 217/221/198 218/222/199 215/219/196
f 215/219/196 218/222/199 219/223/200
f 219/223/200 220/224/200 215/219/196
s 23
f 221/225/201 222/226/202 223/227/203
f 223/227/203 224/228/204 221/225/201
f 222/226/202 225/229/205 226/230/206
f 226/230/206 223/227/203 222/226/202
f 227/231/207 228/232/208 229/233/209
f 229/233/209 230/234/210 227/231/207
f 227/231/207 231/235/211 232/236/211
f 232/236/211 228/232/208 227/231/207
s 22
f 216/220/197 214/218/195 213/217/194
f 213/217/194 217/221/198 216/220/197
s 23
f 226/230/206 225/229/205 230/234/210
f 230/234/210 229/233/209 226/230/206
s 24
f 233/237/212 234/238/213 235/239/214
f 235/239/214 236/240/215 233/237/212
f 236/240/215 235/239/214 237/241/216
f 237/241/216 238/242/217 236/240/215
f 239/243/218 240/244/219 241/245/220
f 241/245/220 242/246/221 239/243/218
f 239/243/218 242/246/221 243/247/222
f 243/247/222 244/248/222 239/243/218
s 25
f 245/249/223 246/250/224 247/251/225
f 247/251/225 248/252/226 245/249/223
f 246/250/224 249/253/227 250/254/228
f 250/254/228 247/251/225 246/250/224
f 251/255/229 252/256/230 253/257/231
f 253/257/231 254/258/232 251/255/229
f 251/255/229 255/259/233 256/260/233
f 256/260/233 252/256/230 251/255/229
s 24
f 240/244/219 237/241/216 241/245/220
s 25
f 253/257/231 250/254/228 254/258/232
s 26
f 257/261/234 258/262/235 259/263/236
f 259/263/236 260/264/237 257/261/234
f 260/264/237 259/263/236 261/265/238
f 261/265/238 262/266/239 260/264/237
f 263/267/240 264/268/241 265/269/242
f 265/269/242 266/270/243 263/267/240
f 263/267/240 266/270/243 267/271/244
f 267/271/244 268/272/244 263/267/240
s 27
f 269/273/245 270/274/246 271/275/247
f 271/275/247 272/276/248 269/273/245
f 270/274/246 273/277/249 274/278/250
f 274/278/250 271/275/247 270/274/246
f 275/279/251 276/280/252 277/281/253
f 277/281/253 278/282/254 275/279/251
f 275/279/251 279/283/255 280/284/255
f 280/284/255 276/280/252 275/279/251
s 26
f 264/268/241 262/266/239 265/269/242
s 27
f 277/281/253 273/277/249 278/282/254
s 28
f 281/285/256 282/286/257 283/287/258
f 283/287/258 284/288/259 281/285/256
f 284/288/259 283/287/258 285/289/260
f 285/289/260 286/290/261 284/288/259
f 287/291/262 288/292/263 289/293/264
f 289/293/264 290/294/265 287/291/262
f 287/291/262 290/294/265 291/295/266
f 291/295/266 292/296/266 287/291/262
s 29
f 293/297/267 294/298/268 295/299/269
f 295/299/269 296/300/270 293/297/267
f 294/298/268 297/301/271 298/302/272
f 298/302/272 295/299/269 294/298/268
f 299/303/273 300/304/274 301/305/275
f 301/305/275 302/306/276 299/303/273
f 299/303/273 303/307/277 304/308/277
f 304/308/277 300/304/274 299/303/273
s 28
f 288/292/263 285/289/260 289/293/264
s 29
f 301/305/275 298/302/272 302/306/276
s 30
f 305/309/278 306/310/278 307/311/279
f 307/311/279 308/312/280 305/309/278
f 308/312/280 307/311/279 309/313/281
f 309/313/281 310/314/281 308/312/280
s 31
f 311/315/282 312/316/282 313/317/283
f 313/317/283 314/318/284 311/315/282
f 314/318/284 313/317/283 315/319/285
f 315/319/285 316/320/285 314/318/284
s 32
f 317/321/286 318/322/286 319/323/287
f 319/323/287 320/324/288 317/321/286
f 320/324/288 319/323/287 321/325/289
f 321/325/289 322/326/289 320/324/288
s 33
f 323/327/290 324/328/290 325/329/291
f 325/329/291 326/330/292 323/327/290
f 326/330/292 325/329/291 327/331/293
f 327/331/293 328/332/293 326/330/292
s 26
f 262/266/239 261/265/238 265/269/242
s 27
f 277/281/253 274/278/250 273/277/249
s 24
f 240/244/219 238/242/217 237/241/216
s 25
f 250/254/228 249/253/227 254/258/232
s 28
f 288/292/263 286/290/261 285/289/260
s 29
f 298/302/272 297/301/271 302/306/276
s 3
f 22/26/21 21/25/20 24/28/23
s 4
f 34/38/32 31/35/29 30/34/28
