# Blender v3.3.0 OBJ File: ''
# www.blender.org
o SugarCaneStage01.005
v -0.011493 0.249616 0.012003
v 0.011493 0.249616 0.012003
v 0.011493 0.249616 -0.012003
v -0.011493 0.249616 -0.012003
v -0.011493 -0.000000 0.012003
v 0.011493 -0.000000 0.012003
v 0.011493 0.000000 -0.012003
v -0.011493 0.000000 -0.012003
v -0.007681 0.239341 0.007799
v -0.017060 0.340243 -0.081560
v 0.007008 0.332500 -0.094223
v 0.009524 0.233797 -0.001268
v -0.063482 0.403820 -0.209359
v -0.039414 0.396076 -0.222022
v -0.007425 0.239439 0.008175
v 0.009781 0.233895 -0.000891
v 0.007367 0.332637 -0.093697
v -0.016701 0.340380 -0.081034
v -0.039056 0.396213 -0.221496
v -0.063124 0.403956 -0.208833
v -0.004759 0.235626 -0.008488
v 0.007142 0.236596 0.008689
v -0.027197 0.420023 0.037119
v -0.043819 0.418669 0.009715
v -0.150523 0.564489 0.113237
v -0.167144 0.563135 0.085834
v -0.004228 0.235672 -0.008791
v -0.043077 0.418734 0.009292
v -0.026456 0.420088 0.036696
v 0.007672 0.236642 0.008386
v -0.166403 0.563199 0.085411
v -0.149782 0.564553 0.112815
v 0.002920 0.245100 -0.009720
v 0.073376 0.354724 0.018498
v 0.072912 0.347436 0.045817
v 0.002588 0.239883 0.009840
v 0.199339 0.428529 0.040659
v 0.198875 0.421242 0.067978
v 0.002456 0.245164 -0.009688
v 0.002124 0.239947 0.009872
v 0.072264 0.347526 0.045862
v 0.072728 0.354813 0.018543
v 0.198227 0.421331 0.068023
v 0.198691 0.428618 0.040704
vt 0.048400 0.958300
vt 0.048400 0.999500
vt 0.000500 0.999500
vt 0.000500 0.958300
vt 0.424000 0.000600
vt 0.464800 0.000600
vt 0.464800 0.326500
vt 0.424000 0.326500
vt 0.512600 0.000600
vt 0.512600 0.326500
vt 0.553500 0.000600
vt 0.553500 0.326500
vt 0.376200 0.000600
vt 0.376200 0.326500
vt 0.568400 0.500100
vt 0.568400 0.750100
vt 0.604800 0.750100
vt 0.604800 0.500100
vt 0.568400 1.000100
vt 0.604800 1.000100
vt 0.568400 0.500100
vt 0.604800 0.500100
vt 0.604800 0.750100
vt 0.568400 0.750100
vt 0.604800 1.000100
vt 0.568400 1.000100
vt 0.277800 0.500000
vt 0.314100 0.500000
vt 0.314100 0.750000
vt 0.277800 0.750000
vt 0.314100 1.000000
vt 0.277800 1.000000
vt 0.277800 0.500000
vt 0.277800 0.750000
vt 0.314100 0.750000
vt 0.314100 0.500000
vt 0.277800 1.000000
vt 0.314100 1.000000
vt 0.568400 0.500100
vt 0.568400 0.750100
vt 0.604800 0.750100
vt 0.604800 0.500100
vt 0.568400 1.000100
vt 0.604800 1.000100
vt 0.568400 0.500100
vt 0.604800 0.500100
vt 0.604800 0.750100
vt 0.568400 0.750100
vt 0.604800 1.000100
vt 0.568400 1.000100
vn -0.5774 0.5774 0.5774
vn 0.5774 0.5774 0.5774
vn 0.5774 0.5774 -0.5774
vn -0.5774 0.5774 -0.5774
vn -0.7071 -0.0000 0.7071
vn 0.7071 -0.0000 0.7071
vn 0.7071 0.0000 -0.7071
vn -0.7071 0.0000 -0.7071
vn -0.5164 -0.5941 -0.6168
vn -0.4819 -0.7459 -0.4598
vn -0.4799 -0.7517 -0.4524
vn -0.5165 -0.5940 -0.6168
vn -0.4229 -0.8632 -0.2758
vn 0.5164 0.5931 0.6176
vn 0.5165 0.5931 0.6176
vn 0.4800 0.7513 0.4529
vn 0.4820 0.7456 0.4602
vn 0.4228 0.8632 0.2758
vn -0.7965 -0.2347 0.5572
vn -0.7926 -0.2356 0.5624
vn -0.7303 -0.4958 0.4700
vn -0.7381 -0.4825 0.4716
vn -0.5878 -0.7080 0.3915
vn 0.7968 0.2335 -0.5573
vn 0.7384 0.4819 -0.4717
vn 0.7306 0.4952 -0.4701
vn 0.7929 0.2343 -0.5625
vn 0.5878 0.7080 -0.3915
vn 0.8489 -0.5140 -0.1227
vn 0.7035 -0.6896 -0.1720
vn 0.7017 -0.6913 -0.1725
vn 0.5215 -0.8266 -0.2116
vn -0.8496 0.5130 0.1224
vn -0.7022 0.6909 0.1724
vn -0.7039 0.6892 0.1719
vn -0.5215 0.8266 0.2116
s 1
f 1/1/1 2/2/2 3/3/3
f 3/3/3 4/4/4 1/1/1
f 5/5/5 6/6/6 2/7/2
f 2/7/2 1/8/1 5/5/5
f 6/6/6 7/9/7 3/10/3
f 3/10/3 2/7/2 6/6/6
f 7/9/7 8/11/8 4/12/4
f 4/12/4 3/10/3 7/9/7
f 8/13/8 5/5/5 1/8/1
f 1/8/1 4/14/4 8/13/8
s 2
f 9/15/9 10/16/10 11/17/11
f 11/17/11 12/18/12 9/15/9
f 10/16/10 13/19/13 14/20/13
f 14/20/13 11/17/11 10/16/10
s 3
f 15/21/14 16/22/15 17/23/16
f 17/23/16 18/24/17 15/21/14
f 18/24/17 17/23/16 19/25/18
f 19/25/18 20/26/18 18/24/17
s 4
f 21/27/19 22/28/20 23/29/21
f 23/29/21 24/30/22 21/27/19
f 24/30/22 23/29/21 25/31/23
f 25/31/23 26/32/23 24/30/22
s 5
f 27/33/24 28/34/25 29/35/26
f 29/35/26 30/36/27 27/33/24
f 28/34/25 31/37/28 32/38/28
f 32/38/28 29/35/26 28/34/25
s 6
f 33/39/29 34/40/30 35/41/31
f 35/41/31 36/42/29 33/39/29
f 34/40/30 37/43/32 38/44/32
f 38/44/32 35/41/31 34/40/30
s 7
f 39/45/33 40/46/33 41/47/34
f 41/47/34 42/48/35 39/45/33
f 42/48/35 41/47/34 43/49/36
f 43/49/36 44/50/36 42/48/35
