# Blender v3.3.0 OBJ File: ''
# www.blender.org
o SugarCaneStage02.005
v -0.011493 0.337201 0.012003
v 0.011493 0.337201 0.012003
v 0.011493 0.337201 -0.012003
v -0.011493 0.337201 -0.012003
v -0.011493 -0.000000 0.012003
v 0.011493 -0.000000 0.012003
v 0.011493 0.000000 -0.012003
v -0.011493 0.000000 -0.012003
v 0.009117 0.327374 -0.007830
v -0.006692 0.319773 0.003110
v -0.039409 0.432995 0.054272
v -0.017787 0.443391 0.039310
v -0.038082 0.542850 0.141937
v -0.016461 0.553246 0.126975
v 0.006952 0.625041 0.264349
v 0.028573 0.635436 0.249387
v 0.005640 0.322814 0.009110
v -0.041802 0.435780 -0.006535
v -0.054464 0.428036 -0.030603
v -0.003619 0.317152 -0.008488
v -0.131651 0.536318 0.002635
v -0.144314 0.528575 -0.021433
v -0.259450 0.599895 0.049058
v -0.272113 0.592151 0.024990
v 0.006060 0.322848 0.008855
v -0.003198 0.317186 -0.008744
v -0.053939 0.428173 -0.030961
v -0.041276 0.435916 -0.006893
v -0.143788 0.528712 -0.021791
v -0.131125 0.536455 0.002277
v -0.271587 0.592288 0.024631
v -0.258924 0.600031 0.048700
v -0.010211 0.222372 0.010950
v -0.001263 0.221935 -0.010788
v -0.061028 0.285330 -0.019487
v -0.069976 0.285767 0.002250
v -0.162565 0.321506 -0.058278
v -0.171513 0.321943 -0.036540
v -0.006135 0.319221 -0.005196
v 0.001848 0.319871 0.007965
v 0.020709 0.464244 0.019536
v 0.004088 0.462890 -0.007867
v -0.015429 0.648397 0.047122
v -0.032050 0.647043 0.019718
v -0.138755 0.792863 0.123240
v -0.155376 0.791509 0.095837
v -0.005774 0.319173 -0.005405
v 0.004830 0.462954 -0.008290
v 0.021451 0.464308 0.019113
v 0.002209 0.319823 0.007756
v -0.031309 0.647108 0.019296
v -0.014688 0.648462 0.046699
v -0.154634 0.791573 0.095414
v -0.138013 0.792927 0.122818
v 0.006060 0.322848 0.008855
v -0.002584 0.328687 -0.010089
v 0.060020 0.514700 -0.010192
v 0.071843 0.506714 0.018539
v 0.168573 0.675794 -0.025925
v 0.180396 0.667808 0.002806
v 0.335123 0.776781 -0.075831
v 0.346946 0.768795 -0.047099
v 0.005468 0.322872 0.009094
v 0.071080 0.506905 0.018877
v 0.059257 0.514890 -0.009854
v -0.003176 0.328711 -0.009850
v 0.179633 0.667998 0.003144
v 0.167810 0.675984 -0.025587
v 0.346183 0.768985 -0.046761
v 0.334360 0.776971 -0.075493
v 0.000117 0.316782 -0.007302
v 0.008304 0.441870 0.002894
v 0.002509 0.440142 0.030513
v -0.002758 0.315925 0.006398
v 0.064131 0.568466 0.027630
v 0.058336 0.566738 0.055249
v 0.176572 0.669572 0.057671
v 0.170776 0.667844 0.085291
v -0.000203 0.316721 -0.007358
v -0.003078 0.315864 0.006342
v 0.001880 0.440122 0.030415
v 0.007676 0.441850 0.002796
v 0.057708 0.566718 0.055151
v 0.063503 0.568445 0.027532
v 0.170148 0.667824 0.085193
v 0.175944 0.669552 0.057573
v -0.008251 0.328018 0.010176
v 0.008894 0.445676 -0.024822
v 0.031539 0.438389 -0.040112
v 0.008306 0.322690 -0.001004
v -0.003041 0.552652 -0.102323
v 0.019604 0.545365 -0.117613
v -0.057137 0.626457 -0.218218
v -0.034492 0.619170 -0.233507
v -0.007959 0.328016 0.010575
v 0.008599 0.322687 -0.000605
v 0.031948 0.438478 -0.039607
v 0.009303 0.445765 -0.024317
v 0.020013 0.545454 -0.117108
v -0.002632 0.552741 -0.101818
v -0.034083 0.619259 -0.233002
v -0.056728 0.626546 -0.217712
v 0.001674 0.329278 -0.011001
v 0.017125 0.435488 0.056015
v 0.006830 0.422652 0.079008
v -0.005854 0.319893 0.003747
v 0.078672 0.528451 0.141601
v 0.068377 0.515615 0.164593
v 0.192893 0.588136 0.226212
v 0.182598 0.575300 0.249204
vt 0.048400 0.958300
vt 0.048400 0.999500
vt 0.000500 0.999500
vt 0.000500 0.958300
vt 0.424000 0.000600
vt 0.464800 0.000600
vt 0.464800 0.499700
vt 0.424000 0.499700
vt 0.512600 0.000600
vt 0.512600 0.499700
vt 0.553500 0.000600
vt 0.553500 0.499700
vt 0.376200 0.000600
vt 0.376200 0.499700
vt 0.568400 0.250100
vt 0.604800 0.250100
vt 0.604800 0.500100
vt 0.568400 0.500100
vt 0.604800 0.750100
vt 0.568400 0.750100
vt 0.604800 1.000100
vt 0.568400 1.000100
vt 0.568400 0.250100
vt 0.568400 0.500100
vt 0.604800 0.500100
vt 0.604800 0.250100
vt 0.568400 0.750100
vt 0.604800 0.750100
vt 0.568400 1.000100
vt 0.604800 1.000100
vt 0.568400 0.250100
vt 0.604800 0.250100
vt 0.604800 0.500100
vt 0.568400 0.500100
vt 0.604800 0.750100
vt 0.568400 0.750100
vt 0.604800 1.000100
vt 0.568400 1.000100
vt 0.568400 0.500100
vt 0.604800 0.500100
vt 0.604800 0.750100
vt 0.568400 0.750100
vt 0.604800 1.000100
vt 0.568400 1.000100
vt 0.277800 0.250000
vt 0.314100 0.250000
vt 0.314100 0.500000
vt 0.277800 0.500000
vt 0.314100 0.750000
vt 0.277800 0.750000
vt 0.314100 1.000000
vt 0.277800 1.000000
vt 0.277800 0.250000
vt 0.277800 0.500000
vt 0.314100 0.500000
vt 0.314100 0.250000
vt 0.277800 0.750000
vt 0.314100 0.750000
vt 0.277800 1.000000
vt 0.314100 1.000000
vt 0.277800 0.250000
vt 0.314100 0.250000
vt 0.314100 0.500000
vt 0.277800 0.500000
vt 0.314100 0.750000
vt 0.277800 0.750000
vt 0.314100 1.000000
vt 0.277800 1.000000
vt 0.277800 0.250000
vt 0.277800 0.500000
vt 0.314100 0.500000
vt 0.314100 0.250000
vt 0.277800 0.750000
vt 0.314100 0.750000
vt 0.277800 1.000000
vt 0.314100 1.000000
vt 0.568400 0.250100
vt 0.568400 0.500100
vt 0.604800 0.500100
vt 0.604800 0.250100
vt 0.568400 0.750100
vt 0.604800 0.750100
vt 0.568400 1.000100
vt 0.604800 1.000100
vt 0.568400 0.250100
vt 0.604800 0.250100
vt 0.604800 0.500100
vt 0.568400 0.500100
vt 0.604800 0.750100
vt 0.568400 0.750100
vt 0.604800 1.000100
vt 0.568400 1.000100
vt 0.568400 0.250100
vt 0.568400 0.500100
vt 0.604800 0.500100
vt 0.604800 0.250100
vt 0.568400 0.750100
vt 0.604800 0.750100
vt 0.568400 1.000100
vt 0.604800 1.000100
vt 0.568400 0.250100
vt 0.604800 0.250100
vt 0.604800 0.500100
vt 0.568400 0.500100
vt 0.604800 0.750100
vt 0.568400 0.750100
vt 0.604800 1.000100
vt 0.568400 1.000100
vt 0.568400 0.250100
vt 0.568400 0.500100
vt 0.604800 0.500100
vt 0.604800 0.250100
vt 0.568400 0.750100
vt 0.604800 0.750100
vt 0.568400 1.000100
vt 0.604800 1.000100
vn -0.5774 0.5774 0.5774
vn 0.5774 0.5774 0.5774
vn 0.5774 0.5774 -0.5774
vn -0.5774 0.5774 -0.5774
vn -0.7071 -0.0000 0.7071
vn 0.7071 -0.0000 0.7071
vn 0.7071 0.0000 -0.7071
vn -0.7071 0.0000 -0.7071
vn -0.6148 0.1703 -0.7701
vn -0.6400 0.3377 -0.6902
vn -0.6392 0.3288 -0.6953
vn -0.6216 0.6373 -0.4555
vn -0.6224 0.6340 -0.4589
vn -0.5740 0.7618 -0.3003
vn -0.8135 -0.2703 0.5150
vn -0.7297 -0.4381 0.5249
vn -0.7235 -0.4484 0.5249
vn -0.4588 -0.7467 0.4816
vn -0.4545 -0.7501 0.4804
vn -0.2758 -0.8632 0.4229
vn 0.8140 0.2691 -0.5148
vn 0.7238 0.4479 -0.5249
vn 0.7301 0.4375 -0.5249
vn 0.4545 0.7501 -0.4804
vn 0.4588 0.7467 -0.4816
vn 0.2758 0.8632 -0.4228
vn 0.6826 0.6802 0.2673
vn 0.5191 0.8317 0.1969
vn 0.4922 0.8505 0.1855
vn 0.2984 0.9488 0.1038
vn -0.8544 0.0704 0.5148
vn -0.8488 -0.0977 0.5196
vn -0.8506 -0.0787 0.5198
vn -0.7295 -0.4995 0.4672
vn -0.7375 -0.4837 0.4712
vn -0.5878 -0.7080 0.3915
vn 0.8543 -0.0733 -0.5146
vn 0.8508 0.0772 -0.5198
vn 0.8489 0.0964 -0.5197
vn 0.7375 0.4837 -0.4712
vn 0.7295 0.4995 -0.4672
vn 0.5878 0.7080 -0.3915
vn 0.8392 -0.2822 -0.4648
vn 0.8371 -0.2820 -0.4689
vn 0.7923 -0.4186 -0.4440
vn 0.8002 -0.4054 -0.4420
vn 0.8392 -0.2822 -0.4649
vn 0.5638 -0.7061 -0.4283
vn 0.5764 -0.6947 -0.4303
vn 0.3884 -0.8341 -0.3917
vn -0.8397 0.2811 0.4647
vn -0.8005 0.4049 0.4419
vn -0.7926 0.4181 0.4439
vn -0.7925 0.4181 0.4439
vn -0.8375 0.2809 0.4687
vn -0.8396 0.2811 0.4648
vn -0.5764 0.6947 0.4303
vn -0.5638 0.7061 0.4283
vn -0.3884 0.8341 0.3917
vn -0.5638 0.7062 0.4283
vn 0.9765 -0.0802 0.1999
vn 0.9496 -0.2541 0.1834
vn 0.9469 -0.2651 0.1821
vn 0.7901 -0.5993 0.1283
vn 0.7873 -0.6032 0.1275
vn 0.6525 -0.7524 0.0899
vn -0.9767 0.0777 -0.2001
vn -0.9471 0.2640 -0.1822
vn -0.9499 0.2529 -0.1835
vn -0.7873 0.6032 -0.1275
vn -0.7901 0.5993 -0.1283
vn -0.6525 0.7524 -0.0899
vn -0.5862 -0.1513 -0.7959
vn -0.5989 -0.3379 -0.7260
vn -0.5990 -0.3481 -0.7211
vn -0.5449 -0.6881 -0.4791
vn -0.5435 -0.6920 -0.4751
vn -0.4725 -0.8266 -0.3058
vn 0.5860 0.1501 0.7963
vn 0.5990 0.3476 0.7214
vn 0.5989 0.3373 0.7263
vn 0.5435 0.6920 0.4751
vn 0.5449 0.6881 0.4791
vn 0.4725 0.8266 0.3058
vn 0.9137 -0.3071 0.2662
vn 0.8849 -0.4409 0.1501
vn 0.8816 -0.4489 0.1457
vn 0.9122 -0.3094 0.2687
vn 0.7060 -0.7041 -0.0770
vn 0.7030 -0.7067 -0.0798
vn 0.5640 -0.8023 -0.1954
s 1
f 1/1/1 2/2/2 3/3/3
f 3/3/3 4/4/4 1/1/1
f 5/5/5 6/6/6 2/7/2
f 2/7/2 1/8/1 5/5/5
f 6/6/6 7/9/7 3/10/3
f 3/10/3 2/7/2 6/6/6
f 7/9/7 8/11/8 4/12/4
f 4/12/4 3/10/3 7/9/7
f 8/13/8 5/5/5 1/8/1
f 1/8/1 4/14/4 8/13/8
s 2
f 9/15/9 10/16/9 11/17/10
f 11/17/10 12/18/11 9/15/9
f 12/18/11 11/17/10 13/19/12
f 13/19/12 14/20/13 12/18/11
f 14/20/13 13/19/12 15/21/14
f 15/21/14 16/22/14 14/20/13
s 3
f 17/23/15 18/24/16 19/25/17
f 19/25/17 20/26/15 17/23/15
f 18/24/16 21/27/18 22/28/19
f 22/28/19 19/25/17 18/24/16
f 21/27/18 23/29/20 24/30/20
f 24/30/20 22/28/19 21/27/18
s 4
f 25/31/21 26/32/21 27/33/22
f 27/33/22 28/34/23 25/31/21
f 28/34/23 27/33/22 29/35/24
f 29/35/24 30/36/25 28/34/23
f 30/36/25 29/35/24 31/37/26
f 31/37/26 32/38/26 30/36/25
s 5
f 33/39/27 34/40/27 35/41/28
f 35/41/28 36/42/29 33/39/27
f 36/42/29 35/41/28 37/43/30
f 37/43/30 38/44/30 36/42/29
s 6
f 39/45/31 40/46/31 41/47/32
f 41/47/32 42/48/33 39/45/31
f 42/48/33 41/47/32 43/49/34
f 43/49/34 44/50/35 42/48/33
f 44/50/35 43/49/34 45/51/36
f 45/51/36 46/52/36 44/50/35
s 7
f 47/53/37 48/54/38 49/55/39
f 49/55/39 50/56/37 47/53/37
f 48/54/38 51/57/40 52/58/41
f 52/58/41 49/55/39 48/54/38
f 51/57/40 53/59/42 54/60/42
f 54/60/42 52/58/41 51/57/40
s off
f 55/61/43 56/62/44 57/63/45
f 57/63/45 58/64/46 55/61/47
f 58/64/46 57/63/45 59/65/48
f 59/65/48 60/66/49 58/64/46
f 60/66/49 59/65/48 61/67/50
f 61/67/50 62/68/50 60/66/49
f 63/69/51 64/70/52 65/71/53
f 65/71/54 66/72/55 63/69/56
f 64/70/52 67/73/57 68/74/58
f 68/74/58 65/71/53 64/70/52
f 67/73/57 69/75/59 70/76/59
f 70/76/59 68/74/60 67/73/57
s 20
f 71/77/61 72/78/62 73/79/63
f 73/79/63 74/80/61 71/77/61
f 72/78/62 75/81/64 76/82/65
f 76/82/65 73/79/63 72/78/62
f 75/81/64 77/83/66 78/84/66
f 78/84/66 76/82/65 75/81/64
s 21
f 79/85/67 80/86/67 81/87/68
f 81/87/68 82/88/69 79/85/67
f 82/88/69 81/87/68 83/89/70
f 83/89/70 84/90/71 82/88/69
f 84/90/71 83/89/70 85/91/72
f 85/91/72 86/92/72 84/90/71
s 22
f 87/93/73 88/94/74 89/95/75
f 89/95/75 90/96/73 87/93/73
f 88/94/74 91/97/76 92/98/77
f 92/98/77 89/95/75 88/94/74
f 91/97/76 93/99/78 94/100/78
f 94/100/78 92/98/77 91/97/76
s 23
f 95/101/79 96/102/79 97/103/80
f 97/103/80 98/104/81 95/101/79
f 98/104/81 97/103/80 99/105/82
f 99/105/82 100/106/83 98/104/81
f 100/106/83 99/105/82 101/107/84
f 101/107/84 102/108/84 100/106/83
s 24
f 103/109/85 104/110/86 105/111/87
f 105/111/87 106/112/88 103/109/85
f 104/110/86 107/113/89 108/114/90
f 108/114/90 105/111/87 104/110/86
f 107/113/89 109/115/91 110/116/91
f 110/116/91 108/114/90 107/113/89
