# Blender v3.3.0 OBJ File: ''
# www.blender.org
o CocoaTreeStage00.005
v -0.015644 -0.000000 0.016608
v 0.020350 -0.000000 0.016608
v 0.013617 0.110452 0.011067
v -0.010597 0.104341 0.011067
v 0.020350 0.000000 -0.016608
v 0.013617 0.110452 -0.011067
v -0.015644 0.000000 -0.016608
v -0.010597 0.104341 -0.011067
v -0.003872 0.141853 0.011067
v 0.023009 0.162426 0.018117
v 0.004904 0.171225 0.018117
v 0.023009 0.162426 -0.003609
v -0.003872 0.141853 -0.011067
v 0.004904 0.171225 -0.003609
v -0.040926 0.180302 -0.007247
v -0.030490 0.189487 -0.005407
v -0.043504 0.180302 0.007368
v -0.033067 0.189487 0.009209
v -0.060163 0.203132 -0.017064
v -0.049727 0.212318 -0.015224
v -0.062740 0.203132 -0.002449
v -0.052304 0.212318 -0.000609
v 0.038587 0.207737 0.039023
v 0.025974 0.213773 0.040087
v 0.038587 0.210365 0.024116
v 0.025974 0.216402 0.025180
v 0.051710 0.283381 0.057364
v -0.103224 0.243203 -0.041080
v -0.076500 0.195643 -0.037296
v -0.074137 0.170680 -0.054425
v -0.065967 0.169738 -0.054643
v -0.068281 0.195027 -0.037721
v -0.060483 0.169653 -0.051378
v -0.062981 0.193427 -0.035822
v -0.056030 0.193983 -0.034020
v -0.053030 0.168737 -0.050475
v -0.050392 0.192778 -0.031235
v -0.046973 0.168727 -0.047209
v -0.070761 0.158741 -0.059039
v -0.064851 0.157124 -0.058990
v -0.060034 0.157615 -0.055659
v -0.054556 0.156235 -0.055682
v -0.049298 0.156768 -0.055160
v -0.061293 0.144786 -0.062261
v -0.058289 0.142201 -0.062372
v -0.056470 0.144521 -0.060300
v -0.074266 0.204038 -0.030449
v -0.069679 0.206904 -0.027633
v -0.058731 0.205818 -0.024684
v -0.064524 0.207739 -0.023431
v -0.053892 0.202408 -0.026491
v -0.065914 0.207912 -0.023862
v -0.065877 0.214424 -0.017475
v -0.067267 0.214597 -0.017907
v -0.076524 0.195918 -0.037503
v -0.068305 0.195303 -0.037928
v -0.065991 0.170014 -0.054850
v -0.074161 0.170956 -0.054632
v -0.063005 0.193703 -0.036029
v -0.060507 0.169929 -0.051585
v -0.056054 0.194258 -0.034227
v -0.053054 0.169012 -0.050682
v -0.050417 0.193054 -0.031442
v -0.046997 0.169002 -0.047416
v -0.064875 0.157400 -0.059197
v -0.070785 0.159017 -0.059246
v -0.060058 0.157891 -0.055865
v -0.054580 0.156511 -0.055889
v -0.049322 0.157044 -0.055366
v -0.061318 0.145062 -0.062468
v -0.058313 0.142477 -0.062578
v -0.056494 0.144797 -0.060507
v -0.074290 0.204314 -0.030656
v -0.069703 0.207180 -0.027840
v -0.064549 0.208015 -0.023638
v -0.058755 0.206093 -0.024891
v -0.053916 0.202684 -0.026698
v -0.065939 0.208188 -0.024069
v -0.067291 0.214873 -0.018114
v -0.065901 0.214699 -0.017682
v 0.060199 0.211626 0.047705
v 0.075197 0.191652 0.066912
v 0.069837 0.191505 0.073553
v 0.054915 0.211865 0.054439
v 0.063573 0.191017 0.075648
v 0.050035 0.210224 0.057661
v 0.043769 0.210907 0.061677
v 0.057856 0.190524 0.081002
v 0.037926 0.209448 0.064480
v 0.051184 0.190161 0.083516
v 0.078101 0.181320 0.075482
v 0.074204 0.180224 0.080385
v 0.068267 0.180232 0.081781
v 0.064690 0.179354 0.086341
v 0.060571 0.180213 0.089899
v 0.076022 0.169142 0.088317
v 0.074401 0.166866 0.091336
v 0.071231 0.168773 0.090801
v 0.052232 0.218316 0.042858
v 0.046498 0.220812 0.043824
v 0.036833 0.219902 0.050565
v 0.039618 0.220954 0.044825
v 0.035347 0.217432 0.056304
v 0.040883 0.221120 0.043998
v 0.035062 0.225863 0.038236
v 0.036327 0.226029 0.037409
v 0.059983 0.211889 0.047858
v 0.054699 0.212129 0.054591
v 0.069621 0.191769 0.073706
v 0.074981 0.191916 0.067064
v 0.049819 0.210488 0.057813
v 0.063357 0.191280 0.075800
v 0.043553 0.211171 0.061829
v 0.057640 0.190788 0.081154
v 0.037710 0.209712 0.064632
v 0.050968 0.190425 0.083668
v 0.073988 0.180488 0.080538
v 0.077885 0.181584 0.075635
v 0.068052 0.180496 0.081934
v 0.064474 0.179618 0.086493
v 0.060356 0.180477 0.090052
v 0.075806 0.169406 0.088470
v 0.074185 0.167130 0.091488
v 0.071015 0.169037 0.090954
v 0.052016 0.218580 0.043011
v 0.046282 0.221076 0.043976
v 0.039402 0.221218 0.044978
v 0.036617 0.220165 0.050717
v 0.035131 0.217696 0.056456
v 0.040667 0.221384 0.044150
v 0.036111 0.226293 0.037561
v 0.034846 0.226127 0.038389
vt 0.076800 0.013400
vt 0.054300 0.012700
vt 0.052800 0.232800
vt 0.078300 0.226200
vt 0.036600 0.027600
vt 0.031800 0.264800
vt 0.049900 0.267700
vt 0.063900 0.031900
vt 0.056100 0.008300
vt 0.084100 0.006500
vt 0.083700 0.222200
vt 0.064900 0.232800
vt 0.054200 0.032300
vt 0.048300 0.254100
vt 0.030500 0.253600
vt 0.027500 0.031700
vt 0.067100 0.282300
vt 0.035000 0.450500
vt 0.052300 0.463500
vt 0.028500 0.501800
vt 0.046300 0.504700
vt 0.079300 0.281100
vt 0.059300 0.467200
vt 0.045000 0.454200
vt 0.108000 0.340100
vt 0.098800 0.352200
vt 0.044600 0.387200
vt 0.032700 0.385300
vt 0.083600 0.361700
vt 0.093900 0.352000
vt 0.117300 0.439100
vt 0.132700 0.448100
vt 0.112700 0.620100
vt 0.097600 0.611200
vt 0.111100 0.693700
vt 0.099900 0.690700
vt 0.108000 0.607200
vt 0.124400 0.614600
vt 0.128100 0.470700
vt 0.117300 0.473900
vt 0.038800 0.533000
vt 0.026900 0.531100
vt 0.107700 0.491800
vt 0.115600 0.485500
vt 0.102100 0.830800
vt 0.090900 0.827900
vt 0.010900 0.654700
vt 0.019500 0.661900
vt 0.040600 0.732700
vt 0.053000 0.730600
vt 0.016700 0.670000
vt 0.006800 0.660800
vt 0.098700 0.817100
vt 0.087900 0.814300
vt 0.011800 0.834100
vt 0.082100 0.915200
vt 0.002200 0.850800
vt 0.107300 0.979800
vt 0.131800 0.615000
vt 0.011500 0.674800
vt 0.131400 0.625800
vt 0.102100 0.974600
vt 0.298100 0.143300
vt 0.289900 0.379300
vt 0.352100 0.391800
vt 0.360500 0.156700
vt 0.400800 0.384500
vt 0.405300 0.163000
vt 0.460900 0.158100
vt 0.458800 0.392400
vt 0.510500 0.158800
vt 0.511400 0.384200
vt 0.310000 0.480800
vt 0.355400 0.494600
vt 0.399500 0.483800
vt 0.441100 0.496300
vt 0.482200 0.493300
vt 0.380100 0.594100
vt 0.403100 0.614500
vt 0.420300 0.592800
vt 0.326100 0.062000
vt 0.365900 0.036000
vt 0.456000 0.039700
vt 0.414000 0.016100
vt 0.489700 0.073900
vt 0.402700 0.015700
vt 0.414300 0.008700
vt 0.403000 0.008200
vt 0.298100 0.143300
vt 0.360500 0.156700
vt 0.352100 0.391800
vt 0.289900 0.379300
vt 0.405300 0.163000
vt 0.400800 0.384500
vt 0.460900 0.158100
vt 0.458800 0.392400
vt 0.510500 0.158800
vt 0.511400 0.384200
vt 0.355400 0.494600
vt 0.310000 0.480800
vt 0.399500 0.483800
vt 0.441100 0.496300
vt 0.482200 0.493300
vt 0.380100 0.594100
vt 0.403100 0.614500
vt 0.420300 0.592800
vt 0.326100 0.062000
vt 0.365900 0.036000
vt 0.414000 0.016100
vt 0.456000 0.039700
vt 0.489700 0.073900
vt 0.402700 0.015700
vt 0.403000 0.008200
vt 0.414300 0.008700
vt 0.298100 0.143300
vt 0.289900 0.379300
vt 0.352100 0.391800
vt 0.360500 0.156700
vt 0.400800 0.384500
vt 0.405300 0.163000
vt 0.460900 0.158100
vt 0.458800 0.392400
vt 0.510500 0.158800
vt 0.511400 0.384200
vt 0.310000 0.480800
vt 0.355400 0.494600
vt 0.399500 0.483800
vt 0.441100 0.496300
vt 0.482200 0.493300
vt 0.380100 0.594100
vt 0.403100 0.614500
vt 0.420300 0.592800
vt 0.326100 0.062000
vt 0.365900 0.036000
vt 0.456000 0.039700
vt 0.414000 0.016100
vt 0.489700 0.073900
vt 0.402700 0.015700
vt 0.414300 0.008700
vt 0.403000 0.008200
vt 0.298100 0.143300
vt 0.360500 0.156700
vt 0.352100 0.391800
vt 0.289900 0.379300
vt 0.405300 0.163000
vt 0.400800 0.384500
vt 0.460900 0.158100
vt 0.458800 0.392400
vt 0.510500 0.158800
vt 0.511400 0.384200
vt 0.355400 0.494600
vt 0.310000 0.480800
vt 0.399500 0.483800
vt 0.441100 0.496300
vt 0.482200 0.493300
vt 0.380100 0.594100
vt 0.403100 0.614500
vt 0.420300 0.592800
vt 0.326100 0.062000
vt 0.365900 0.036000
vt 0.414000 0.016100
vt 0.456000 0.039700
vt 0.489700 0.073900
vt 0.402700 0.015700
vt 0.403000 0.008200
vt 0.414300 0.008700
vn -0.7050 0.0698 0.7058
vn 0.7072 0.0784 0.7026
vn 0.6821 -0.0435 0.7299
vn -0.6495 -0.0897 0.7550
vn 0.7065 0.0801 -0.7032
vn 0.6810 0.0031 -0.7322
vn -0.7043 0.0716 -0.7063
vn -0.6493 -0.0882 -0.7554
vn -0.1568 0.1794 0.9712
vn 0.6191 -0.3747 0.6901
vn -0.7757 0.0907 0.6245
vn 0.7100 0.0594 -0.7017
vn 0.0859 0.2755 -0.9575
vn -0.5419 0.4749 -0.6935
vn -0.4753 -0.3698 -0.7983
vn 0.7276 0.4501 -0.5177
vn -0.7033 -0.2816 0.6528
vn 0.3934 0.4678 0.7915
vn -0.2466 -0.6230 -0.7423
vn 0.6650 0.4951 -0.5592
vn -0.7574 -0.2827 0.5886
vn 0.1916 0.6942 0.6938
vn 0.6383 -0.4025 0.6561
vn -0.6787 0.0097 0.7343
vn 0.7762 0.1119 -0.6205
vn -0.5749 0.5664 -0.5904
vn 0.2508 0.9131 0.3216
vn -0.7004 0.5322 -0.4756
vn -0.0069 -0.5959 0.8030
vn -0.0422 -0.4807 0.8759
vn -0.2510 -0.4360 0.8643
vn -0.2215 -0.5976 0.7706
vn -0.3152 -0.4542 0.8333
vn -0.2919 -0.5876 0.7546
vn -0.2998 -0.5719 0.7636
vn -0.2772 -0.4738 0.8359
vn -0.4599 -0.5235 0.7173
vn -0.4103 -0.5051 0.7593
vn -0.1057 -0.3582 0.9276
vn -0.2814 -0.3400 0.8973
vn -0.3121 -0.3567 0.8806
vn -0.0751 -0.3586 0.9305
vn -0.1199 -0.3871 0.9142
vn -0.2179 -0.3083 0.9260
vn -0.3806 -0.3749 0.8454
vn -0.3350 -0.3957 0.8551
vn -0.0446 -0.6452 0.7627
vn -0.3440 -0.6393 0.6877
vn -0.0972 -0.6483 0.7552
vn -0.2340 -0.6599 0.7140
vn -0.2321 -0.6147 0.7538
vn -0.3420 -0.6481 0.6804
vn -0.2954 -0.6682 0.6829
vn -0.2953 -0.6682 0.6829
vn 0.0068 0.5959 -0.8031
vn 0.2215 0.5976 -0.7706
vn 0.2510 0.4360 -0.8643
vn 0.0422 0.4807 -0.8759
vn 0.2920 0.5876 -0.7546
vn 0.3152 0.4541 -0.8333
vn 0.2998 0.5719 -0.7636
vn 0.2772 0.4738 -0.8359
vn 0.4599 0.5235 -0.7173
vn 0.4103 0.5051 -0.7593
vn 0.2815 0.3400 -0.8973
vn 0.1057 0.3582 -0.9276
vn 0.3121 0.3566 -0.8806
vn 0.0751 0.3586 -0.9305
vn 0.1200 0.3871 -0.9142
vn 0.2181 0.3084 -0.9259
vn 0.3805 0.3749 -0.8454
vn 0.3348 0.3957 -0.8552
vn 0.0446 0.6452 -0.7627
vn 0.3441 0.6393 -0.6877
vn 0.2341 0.6599 -0.7139
vn 0.0972 0.6483 -0.7552
vn 0.2320 0.6147 -0.7538
vn 0.3420 0.6481 -0.6804
vn 0.2957 0.6682 -0.6827
vn 0.2958 0.6682 -0.6827
vn -0.4982 -0.7852 -0.3678
vn -0.5440 -0.6968 -0.4675
vn -0.4024 -0.6688 -0.6251
vn -0.3309 -0.7968 -0.5057
vn -0.3344 -0.6836 -0.6487
vn -0.2735 -0.7891 -0.5501
vn -0.2771 -0.7770 -0.5653
vn -0.3588 -0.6999 -0.6176
vn -0.1430 -0.7320 -0.6661
vn -0.2095 -0.7212 -0.6603
vn -0.5568 -0.5983 -0.5763
vn -0.4197 -0.5880 -0.6914
vn -0.3847 -0.6022 -0.6995
vn -0.5791 -0.5968 -0.5554
vn -0.5332 -0.6238 -0.5715
vn -0.4877 -0.5596 -0.6701
vn -0.3107 -0.6163 -0.7236
vn -0.3453 -0.6350 -0.6911
vn -0.4366 -0.8252 -0.3585
vn -0.1826 -0.8255 -0.5341
vn -0.3956 -0.8306 -0.3919
vn -0.2723 -0.8428 -0.4643
vn -0.3091 -0.8097 -0.4988
vn -0.1773 -0.8319 -0.5259
vn -0.2078 -0.8478 -0.4880
vn 0.4982 0.7852 0.3678
vn 0.3309 0.7967 0.5057
vn 0.4024 0.6688 0.6251
vn 0.5440 0.6968 0.4674
vn 0.2735 0.7891 0.5501
vn 0.3343 0.6837 0.6487
vn 0.2771 0.7770 0.5653
vn 0.3588 0.6999 0.6175
vn 0.1430 0.7320 0.6661
vn 0.2095 0.7212 0.6602
vn 0.4197 0.5880 0.6914
vn 0.5567 0.5983 0.5762
vn 0.3846 0.6022 0.6996
vn 0.5791 0.5968 0.5553
vn 0.5334 0.6238 0.5713
vn 0.4875 0.5597 0.6702
vn 0.3107 0.6163 0.7236
vn 0.3455 0.6350 0.6910
vn 0.4366 0.8252 0.3585
vn 0.1826 0.8255 0.5341
vn 0.2724 0.8428 0.4642
vn 0.3955 0.8306 0.3920
vn 0.3092 0.8097 0.4988
vn 0.1775 0.8319 0.5258
vn 0.2080 0.8478 0.4878
s 1
f 1/1/1 2/2/2 3/3/3
f 3/3/3 4/4/4 1/1/1
f 5/5/5 6/6/6 3/7/3
f 3/7/3 2/8/2 5/5/5
f 5/9/5 7/10/7 8/11/8
f 8/11/8 6/12/6 5/9/5
f 1/13/1 4/14/4 8/15/8
f 8/15/8 7/16/7 1/13/1
f 9/17/9 3/3/3 10/18/10
f 10/18/10 11/19/11 9/17/9
f 3/7/3 6/6/6 12/20/12
f 12/20/12 10/21/10 3/7/3
f 6/12/6 13/22/13 14/23/14
f 14/23/14 12/24/12 6/12/6
f 13/22/13 8/11/8 15/25/15
f 15/25/15 16/26/16 13/22/13
f 8/15/8 4/14/4 17/27/17
f 17/27/17 15/28/15 8/15/8
f 4/4/4 9/17/9 18/29/18
f 18/29/18 17/30/17 4/4/4
f 13/31/13 9/32/9 11/33/11
f 11/33/11 14/34/14 13/31/13
f 16/35/16 18/36/18 9/37/9
f 9/37/9 13/38/13 16/35/16
f 16/26/16 15/25/15 19/39/19
f 19/39/19 20/40/20 16/26/16
f 15/28/15 17/27/17 21/41/21
f 21/41/21 19/42/19 15/28/15
f 17/30/17 18/29/18 22/43/22
f 22/43/22 21/44/21 17/30/17
f 18/36/18 16/35/16 20/45/20
f 20/45/20 22/46/22 18/36/18
f 3/3/3 9/17/9 4/4/4
f 8/11/8 13/22/13 6/12/6
f 11/19/11 10/18/10 23/47/23
f 23/47/23 24/48/24 11/19/11
f 10/21/10 12/20/12 25/49/25
f 25/49/25 23/50/23 10/21/10
f 12/24/12 14/23/14 26/51/26
f 26/51/26 25/52/25 12/24/12
f 14/34/14 11/33/11 24/53/24
f 24/53/24 26/54/26 14/34/14
f 24/48/24 23/47/23 27/55/27
f 23/50/23 25/49/25 27/56/27
f 25/52/25 26/51/26 27/57/27
f 26/54/26 24/53/24 27/58/27
f 20/40/20 19/39/19 28/59/28
f 19/42/19 21/41/21 28/60/28
f 21/44/21 22/43/22 28/61/28
f 22/46/22 20/45/20 28/62/28
s 2
f 29/63/29 30/64/30 31/65/31
f 31/65/31 32/66/32 29/63/29
f 32/66/32 31/65/31 33/67/33
f 33/67/33 34/68/34 32/66/32
f 35/69/35 34/68/34 33/67/33
f 33/67/33 36/70/36 35/69/35
f 37/71/37 35/69/35 36/70/36
f 36/70/36 38/72/38 37/71/37
f 30/64/30 39/73/39 40/74/40
f 40/74/40 31/65/31 30/64/30
f 31/65/31 40/74/40 41/75/41
f 41/75/41 33/67/33 31/65/31
f 33/67/33 41/75/41 42/76/42
f 42/76/42 36/70/36 33/67/33
f 42/76/42 43/77/43 36/70/36
f 39/73/39 44/78/44 40/74/40
f 40/74/40 44/78/44 45/79/45
f 45/79/45 41/75/41 40/74/40
f 41/75/41 45/79/45 46/80/46
f 46/80/46 42/76/42 41/75/41
f 46/80/46 43/77/43 42/76/42
f 29/63/29 32/66/32 47/81/47
f 32/66/32 34/68/34 48/82/48
f 34/68/34 35/69/35 49/83/49
f 49/83/49 50/84/50 34/68/34
f 35/69/35 37/71/37 51/85/51
f 35/69/35 51/85/51 49/83/49
f 47/81/47 32/66/32 48/82/48
f 34/68/34 50/84/50 52/86/52
f 48/82/48 34/68/34 52/86/52
f 36/70/36 43/77/43 38/72/38
f 50/84/50 53/87/53 54/88/54
f 54/88/54 52/86/52 50/84/50
s 3
f 55/89/55 56/90/56 57/91/57
f 57/91/57 58/92/58 55/89/55
f 56/90/56 59/93/59 60/94/60
f 60/94/60 57/91/57 56/90/56
f 61/95/61 62/96/62 60/94/60
f 60/94/60 59/93/59 61/95/61
f 63/97/63 64/98/64 62/96/62
f 62/96/62 61/95/61 63/97/63
f 58/92/58 57/91/57 65/99/65
f 65/99/65 66/100/66 58/92/58
f 57/91/57 60/94/60 67/101/67
f 67/101/67 65/99/65 57/91/57
f 60/94/60 62/96/62 68/102/68
f 68/102/68 67/101/67 60/94/60
f 68/102/68 62/96/62 69/103/69
f 66/100/66 65/99/65 70/104/70
f 65/99/65 67/101/67 71/105/71
f 71/105/71 70/104/70 65/99/65
f 67/101/67 68/102/68 72/106/72
f 72/106/72 71/105/71 67/101/67
f 72/106/72 68/102/68 69/103/69
f 55/89/55 73/107/73 56/90/56
f 56/90/56 74/108/74 59/93/59
f 59/93/59 75/109/75 76/110/76
f 76/110/76 61/95/61 59/93/59
f 61/95/61 77/111/77 63/97/63
f 61/95/61 76/110/76 77/111/77
f 73/107/73 74/108/74 56/90/56
f 59/93/59 78/112/78 75/109/75
f 74/108/74 78/112/78 59/93/59
f 62/96/62 64/98/64 69/103/69
f 75/109/75 78/112/78 79/113/79
f 79/113/79 80/114/80 75/109/75
s 4
f 81/115/81 82/116/82 83/117/83
f 83/117/83 84/118/84 81/115/81
f 84/118/84 83/117/83 85/119/85
f 85/119/85 86/120/86 84/118/84
f 87/121/87 86/120/86 85/119/85
f 85/119/85 88/122/88 87/121/87
f 89/123/89 87/121/87 88/122/88
f 88/122/88 90/124/90 89/123/89
f 82/116/82 91/125/91 92/126/92
f 92/126/92 83/117/83 82/116/82
f 83/117/83 92/126/92 93/127/93
f 93/127/93 85/119/85 83/117/83
f 85/119/85 93/127/93 94/128/94
f 94/128/94 88/122/88 85/119/85
f 94/128/94 95/129/95 88/122/88
f 91/125/91 96/130/96 92/126/92
f 92/126/92 96/130/96 97/131/97
f 97/131/97 93/127/93 92/126/92
f 93/127/93 97/131/97 98/132/98
f 98/132/98 94/128/94 93/127/93
f 98/132/98 95/129/95 94/128/94
f 81/115/81 84/118/84 99/133/99
f 84/118/84 86/120/86 100/134/100
f 86/120/86 87/121/87 101/135/101
f 101/135/101 102/136/102 86/120/86
f 87/121/87 89/123/89 103/137/103
f 87/121/87 103/137/103 101/135/101
f 99/133/99 84/118/84 100/134/100
f 86/120/86 102/136/102 104/138/104
f 100/134/100 86/120/86 104/138/104
f 88/122/88 95/129/95 90/124/90
f 102/136/102 105/139/105 106/140/105
f 106/140/105 104/138/104 102/136/102
s 5
f 107/141/106 108/142/107 109/143/108
f 109/143/108 110/144/109 107/141/106
f 108/142/107 111/145/110 112/146/111
f 112/146/111 109/143/108 108/142/107
f 113/147/112 114/148/113 112/146/111
f 112/146/111 111/145/110 113/147/112
f 115/149/114 116/150/115 114/148/113
f 114/148/113 113/147/112 115/149/114
f 110/144/109 109/143/108 117/151/116
f 117/151/116 118/152/117 110/144/109
f 109/143/108 112/146/111 119/153/118
f 119/153/118 117/151/116 109/143/108
f 112/146/111 114/148/113 120/154/119
f 120/154/119 119/153/118 112/146/111
f 120/154/119 114/148/113 121/155/120
f 118/152/117 117/151/116 122/156/121
f 117/151/116 119/153/118 123/157/122
f 123/157/122 122/156/121 117/151/116
f 119/153/118 120/154/119 124/158/123
f 124/158/123 123/157/122 119/153/118
f 124/158/123 120/154/119 121/155/120
f 107/141/106 125/159/124 108/142/107
f 108/142/107 126/160/125 111/145/110
f 111/145/110 127/161/126 128/162/127
f 128/162/127 113/147/112 111/145/110
f 113/147/112 129/163/128 115/149/114
f 113/147/112 128/162/127 129/163/128
f 125/159/124 126/160/125 108/142/107
f 111/145/110 130/164/129 127/161/126
f 126/160/125 130/164/129 111/145/110
f 114/148/113 116/150/115 121/155/120
f 127/161/126 130/164/129 131/165/130
f 131/165/130 132/166/130 127/161/126
