# Blender v3.3.0 OBJ File: ''
# www.blender.org
o CocoaTreeStage01.005
v -0.021698 -0.000000 0.023035
v 0.028225 -0.000000 0.023035
v 0.018887 0.153197 0.015350
v -0.014698 0.144722 0.015350
v 0.028225 0.000000 -0.023035
v 0.018887 0.153197 -0.015350
v -0.021698 0.000000 -0.023035
v -0.014698 0.144722 -0.015350
v -0.005370 0.196751 0.015350
v 0.031913 0.225285 0.025128
v 0.006802 0.237489 0.025128
v 0.031913 0.225285 -0.005006
v -0.005370 0.196751 -0.015350
v 0.006802 0.237489 -0.005006
v -0.056765 0.250079 -0.010052
v -0.042290 0.262819 -0.007500
v -0.060340 0.250079 0.010220
v -0.045865 0.262819 0.012772
v -0.083447 0.281745 -0.023668
v -0.068972 0.294485 -0.021116
v -0.087021 0.281745 -0.003397
v -0.072546 0.294485 -0.000844
v 0.053520 0.288131 0.054124
v 0.036025 0.296503 0.055601
v 0.053520 0.291776 0.033449
v 0.036025 0.300149 0.034925
v 0.071722 0.393049 0.079564
v -0.143172 0.337323 -0.056978
v 0.022616 0.200006 -0.003282
v 0.004652 0.188254 -0.008427
v -0.007585 0.260201 -0.046298
v 0.001877 0.269776 -0.040729
v -0.003857 0.196153 0.003243
v -0.018226 0.264810 -0.036141
v 0.014107 0.207904 0.008388
v -0.008765 0.274385 -0.030572
v -0.021330 0.286191 -0.070942
v -0.011868 0.295766 -0.065373
v -0.031971 0.290800 -0.060785
v -0.022510 0.300374 -0.055216
v -0.045219 0.321543 -0.103722
v -0.032043 0.228963 -0.036751
v -0.049967 0.200235 -0.054258
v -0.051494 0.204335 -0.063612
v -0.033882 0.233397 -0.045930
v -0.048386 0.208396 -0.069781
v -0.032209 0.235438 -0.052788
v -0.031251 0.240794 -0.060009
v -0.048410 0.212310 -0.078431
v -0.028599 0.243657 -0.067034
v -0.045410 0.216811 -0.085164
v -0.054503 0.188672 -0.065295
v -0.055217 0.190686 -0.072684
v -0.051997 0.194954 -0.077769
v -0.052760 0.196933 -0.084535
v -0.053091 0.200925 -0.089864
v -0.058068 0.179099 -0.084271
v -0.058341 0.178217 -0.089162
v -0.056431 0.182274 -0.089755
v -0.025190 0.240764 -0.034188
v -0.022913 0.247305 -0.037447
v -0.020983 0.253676 -0.050101
v -0.018725 0.252336 -0.042733
v -0.023545 0.252712 -0.057372
v -0.019046 0.251553 -0.041099
v -0.012113 0.259867 -0.037371
v -0.012433 0.259083 -0.035738
v -0.032365 0.229221 -0.036508
v -0.034205 0.233656 -0.045688
v -0.051816 0.204594 -0.063369
v -0.050289 0.200494 -0.054015
v -0.032531 0.235697 -0.052545
v -0.048708 0.208655 -0.069538
v -0.031573 0.241053 -0.059766
v -0.048732 0.212569 -0.078188
v -0.028921 0.243916 -0.066791
v -0.045732 0.217070 -0.084921
v -0.055539 0.190945 -0.072441
v -0.054825 0.188931 -0.065052
v -0.052319 0.195212 -0.077526
v -0.053082 0.197192 -0.084292
v -0.053413 0.201184 -0.089621
v -0.058390 0.179357 -0.084028
v -0.058663 0.178476 -0.088919
v -0.056753 0.182532 -0.089512
v -0.025512 0.241023 -0.033945
v -0.023235 0.247564 -0.037204
v -0.019047 0.252595 -0.042490
v -0.021305 0.253935 -0.049858
v -0.023867 0.252971 -0.057129
v -0.019368 0.251811 -0.040856
v -0.012755 0.259342 -0.035495
v -0.012435 0.260126 -0.037128
v 0.047258 0.296586 0.086711
v 0.033448 0.273689 0.110995
v 0.024067 0.273520 0.108213
v 0.037813 0.296861 0.084049
v 0.019112 0.272960 0.102488
v 0.032267 0.294979 0.080283
v 0.025274 0.295762 0.075395
v 0.010940 0.272395 0.098766
v 0.019752 0.294089 0.070426
v 0.005362 0.271979 0.092791
v 0.025631 0.261843 0.117815
v 0.018732 0.260588 0.115825
v 0.014660 0.260596 0.110142
v 0.008265 0.259590 0.108340
v 0.002695 0.260575 0.105529
v 0.011118 0.247883 0.121215
v 0.007210 0.245273 0.120816
v 0.006392 0.247459 0.117221
v 0.048917 0.304256 0.076149
v 0.045390 0.307117 0.070493
v 0.034025 0.306074 0.063191
v 0.041324 0.307280 0.063637
v 0.027292 0.303243 0.064122
v 0.042754 0.307471 0.064616
v 0.046320 0.312908 0.055931
v 0.047749 0.313099 0.056911
v 0.046948 0.296952 0.086514
v 0.037504 0.297227 0.083853
v 0.023758 0.273886 0.108017
v 0.033138 0.274055 0.110799
v 0.031958 0.295345 0.080087
v 0.018802 0.273326 0.102291
v 0.024965 0.296128 0.075199
v 0.010631 0.272761 0.098569
v 0.019442 0.294456 0.070229
v 0.005053 0.272345 0.092594
v 0.018422 0.260954 0.115629
v 0.025321 0.262210 0.117619
v 0.014351 0.260962 0.109945
v 0.007956 0.259956 0.108144
v 0.002385 0.260941 0.105332
v 0.010808 0.248249 0.121019
v 0.006901 0.245639 0.120619
v 0.006083 0.247825 0.117025
v 0.048607 0.304623 0.075953
v 0.045080 0.307483 0.070297
v 0.041015 0.307646 0.063440
v 0.033715 0.306440 0.062995
v 0.026983 0.303610 0.063925
v 0.042444 0.307837 0.064420
v 0.047440 0.313465 0.056714
v 0.046010 0.313274 0.055735
v -0.091530 0.255786 0.010329
v -0.112924 0.214954 0.019337
v -0.123767 0.216477 0.012854
v -0.102560 0.257751 0.004212
v -0.128081 0.219271 0.004424
v -0.108026 0.257855 -0.003004
v -0.115363 0.261716 -0.010446
v -0.137053 0.220888 -0.002909
v -0.120454 0.262777 -0.018873
v -0.142091 0.224002 -0.011751
v -0.123025 0.197253 0.017373
v -0.130842 0.197032 0.012016
v -0.134152 0.200452 0.004270
v -0.141435 0.200404 -0.000556
v -0.147677 0.203253 -0.005072
v -0.140106 0.179188 0.008039
v -0.144468 0.176435 0.004723
v -0.144699 0.181107 0.001694
v -0.087314 0.270928 0.003571
v -0.090392 0.277626 -0.002314
v -0.102160 0.280842 -0.015024
v -0.093348 0.281922 -0.011274
v -0.110444 0.277061 -0.017978
v -0.091896 0.281550 -0.009573
v -0.085538 0.292981 -0.014858
v -0.084086 0.292608 -0.013157
v -0.091641 0.256161 0.010771
v -0.102671 0.258126 0.004654
v -0.123878 0.216853 0.013296
v -0.113035 0.215329 0.019779
v -0.108137 0.258230 -0.002562
v -0.128192 0.219647 0.004866
v -0.115474 0.262092 -0.010004
v -0.137164 0.221264 -0.002467
v -0.120565 0.263153 -0.018431
v -0.142202 0.224377 -0.011309
v -0.130953 0.197407 0.012458
v -0.123136 0.197628 0.017815
v -0.134262 0.200828 0.004712
v -0.141546 0.200780 -0.000114
v -0.147788 0.203629 -0.004630
v -0.140217 0.179563 0.008481
v -0.144579 0.176810 0.005165
v -0.144810 0.181482 0.002136
v -0.087425 0.271304 0.004013
v -0.090503 0.278001 -0.001872
v -0.093459 0.282298 -0.010832
v -0.102271 0.281218 -0.014582
v -0.110555 0.277437 -0.017536
v -0.092007 0.281925 -0.009131
v -0.084197 0.292984 -0.012715
v -0.085648 0.293357 -0.014416
vt 0.076800 0.013400
vt 0.054300 0.012700
vt 0.052800 0.232800
vt 0.078300 0.226200
vt 0.036600 0.027600
vt 0.031800 0.264800
vt 0.049900 0.267700
vt 0.063900 0.031900
vt 0.056100 0.008300
vt 0.084100 0.006500
vt 0.083700 0.222200
vt 0.064900 0.232800
vt 0.054200 0.032300
vt 0.048300 0.254100
vt 0.030500 0.253600
vt 0.027500 0.031700
vt 0.067100 0.282300
vt 0.035000 0.450500
vt 0.052300 0.463500
vt 0.028500 0.501800
vt 0.046300 0.504700
vt 0.079300 0.281100
vt 0.059300 0.467200
vt 0.045000 0.454200
vt 0.108000 0.340100
vt 0.098800 0.352200
vt 0.044600 0.387200
vt 0.032700 0.385300
vt 0.083600 0.361700
vt 0.093900 0.352000
vt 0.117300 0.439100
vt 0.132700 0.448100
vt 0.112700 0.620100
vt 0.097600 0.611200
vt 0.111100 0.693700
vt 0.099900 0.690700
vt 0.108000 0.607200
vt 0.124400 0.614600
vt 0.128100 0.470700
vt 0.117300 0.473900
vt 0.038800 0.533000
vt 0.026900 0.531100
vt 0.107700 0.491800
vt 0.115600 0.485500
vt 0.102100 0.830800
vt 0.090900 0.827900
vt 0.010900 0.654700
vt 0.019500 0.661900
vt 0.040600 0.732700
vt 0.053000 0.730600
vt 0.016700 0.670000
vt 0.006800 0.660800
vt 0.098700 0.817100
vt 0.087900 0.814300
vt 0.011800 0.834100
vt 0.082100 0.915200
vt 0.002200 0.850800
vt 0.107300 0.979800
vt 0.131800 0.615000
vt 0.011500 0.674800
vt 0.131400 0.625800
vt 0.102100 0.974600
vt 0.079300 0.281100
vt 0.083700 0.222200
vt 0.108000 0.340100
vt 0.098800 0.352200
vt 0.030500 0.253600
vt 0.048300 0.254100
vt 0.044600 0.387200
vt 0.032700 0.385300
vt 0.078300 0.226200
vt 0.067100 0.282300
vt 0.083600 0.361700
vt 0.093900 0.352000
vt 0.111100 0.693700
vt 0.099900 0.690700
vt 0.108000 0.607200
vt 0.124400 0.614600
vt 0.128100 0.470700
vt 0.117300 0.473900
vt 0.038800 0.533000
vt 0.026900 0.531100
vt 0.107700 0.491800
vt 0.115600 0.485500
vt 0.102100 0.830800
vt 0.090900 0.827900
vt 0.131800 0.615000
vt 0.011500 0.674800
vt 0.131400 0.625800
vt 0.102100 0.974600
vt 0.298100 0.143300
vt 0.289900 0.379300
vt 0.352100 0.391800
vt 0.360500 0.156700
vt 0.400800 0.384500
vt 0.405300 0.163000
vt 0.460900 0.158100
vt 0.458800 0.392400
vt 0.510500 0.158800
vt 0.511400 0.384200
vt 0.310000 0.480800
vt 0.355400 0.494600
vt 0.399500 0.483800
vt 0.441100 0.496300
vt 0.482200 0.493300
vt 0.380100 0.594100
vt 0.403100 0.614500
vt 0.420300 0.592800
vt 0.326100 0.062000
vt 0.365900 0.036000
vt 0.456000 0.039700
vt 0.414000 0.016100
vt 0.489700 0.073900
vt 0.402700 0.015700
vt 0.414300 0.008700
vt 0.403000 0.008200
vt 0.298100 0.143300
vt 0.360500 0.156700
vt 0.352100 0.391800
vt 0.289900 0.379300
vt 0.405300 0.163000
vt 0.400800 0.384500
vt 0.460900 0.158100
vt 0.458800 0.392400
vt 0.510500 0.158800
vt 0.511400 0.384200
vt 0.355400 0.494600
vt 0.310000 0.480800
vt 0.399500 0.483800
vt 0.441100 0.496300
vt 0.482200 0.493300
vt 0.380100 0.594100
vt 0.403100 0.614500
vt 0.420300 0.592800
vt 0.326100 0.062000
vt 0.365900 0.036000
vt 0.414000 0.016100
vt 0.456000 0.039700
vt 0.489700 0.073900
vt 0.402700 0.015700
vt 0.403000 0.008200
vt 0.414300 0.008700
vt 0.298100 0.143300
vt 0.289900 0.379300
vt 0.352100 0.391800
vt 0.360500 0.156700
vt 0.400800 0.384500
vt 0.405300 0.163000
vt 0.460900 0.158100
vt 0.458800 0.392400
vt 0.510500 0.158800
vt 0.511400 0.384200
vt 0.310000 0.480800
vt 0.355400 0.494600
vt 0.399500 0.483800
vt 0.441100 0.496300
vt 0.482200 0.493300
vt 0.380100 0.594100
vt 0.403100 0.614500
vt 0.420300 0.592800
vt 0.326100 0.062000
vt 0.365900 0.036000
vt 0.456000 0.039700
vt 0.414000 0.016100
vt 0.489700 0.073900
vt 0.402700 0.015700
vt 0.414300 0.008700
vt 0.403000 0.008200
vt 0.298100 0.143300
vt 0.360500 0.156700
vt 0.352100 0.391800
vt 0.289900 0.379300
vt 0.405300 0.163000
vt 0.400800 0.384500
vt 0.460900 0.158100
vt 0.458800 0.392400
vt 0.510500 0.158800
vt 0.511400 0.384200
vt 0.355400 0.494600
vt 0.310000 0.480800
vt 0.399500 0.483800
vt 0.441100 0.496300
vt 0.482200 0.493300
vt 0.380100 0.594100
vt 0.403100 0.614500
vt 0.420300 0.592800
vt 0.326100 0.062000
vt 0.365900 0.036000
vt 0.414000 0.016100
vt 0.456000 0.039700
vt 0.489700 0.073900
vt 0.402700 0.015700
vt 0.403000 0.008200
vt 0.414300 0.008700
vt 0.298100 0.143300
vt 0.289900 0.379300
vt 0.352100 0.391800
vt 0.360500 0.156700
vt 0.400800 0.384500
vt 0.405300 0.163000
vt 0.460900 0.158100
vt 0.458800 0.392400
vt 0.510500 0.158800
vt 0.511400 0.384200
vt 0.310000 0.480800
vt 0.355400 0.494600
vt 0.399500 0.483800
vt 0.441100 0.496300
vt 0.482200 0.493300
vt 0.380100 0.594100
vt 0.403100 0.614500
vt 0.420300 0.592800
vt 0.326100 0.062000
vt 0.365900 0.036000
vt 0.456000 0.039700
vt 0.414000 0.016100
vt 0.489700 0.073900
vt 0.402700 0.015700
vt 0.414300 0.008700
vt 0.403000 0.008200
vt 0.298100 0.143300
vt 0.360500 0.156700
vt 0.352100 0.391800
vt 0.289900 0.379300
vt 0.405300 0.163000
vt 0.400800 0.384500
vt 0.460900 0.158100
vt 0.458800 0.392400
vt 0.510500 0.158800
vt 0.511400 0.384200
vt 0.355400 0.494600
vt 0.310000 0.480800
vt 0.399500 0.483800
vt 0.441100 0.496300
vt 0.482200 0.493300
vt 0.380100 0.594100
vt 0.403100 0.614500
vt 0.420300 0.592800
vt 0.326100 0.062000
vt 0.365900 0.036000
vt 0.414000 0.016100
vt 0.456000 0.039700
vt 0.489700 0.073900
vt 0.402700 0.015700
vt 0.403000 0.008200
vt 0.414300 0.008700
vn -0.7050 0.0698 0.7058
vn 0.7072 0.0784 0.7026
vn 0.6821 -0.0435 0.7299
vn -0.6495 -0.0897 0.7550
vn 0.7065 0.0801 -0.7032
vn 0.6810 0.0031 -0.7322
vn -0.7043 0.0716 -0.7063
vn -0.6493 -0.0882 -0.7554
vn -0.1568 0.1795 0.9712
vn 0.6191 -0.3747 0.6901
vn -0.7757 0.0907 0.6245
vn 0.7100 0.0594 -0.7017
vn 0.0859 0.2755 -0.9575
vn -0.5418 0.4749 -0.6935
vn -0.4753 -0.3698 -0.7983
vn 0.7276 0.4501 -0.5177
vn -0.7032 -0.2816 0.6528
vn 0.3934 0.4678 0.7915
vn -0.2467 -0.6230 -0.7423
vn 0.6650 0.4951 -0.5592
vn -0.7574 -0.2827 0.5886
vn 0.1916 0.6942 0.6938
vn 0.6384 -0.4025 0.6561
vn -0.6787 0.0097 0.7343
vn 0.7762 0.1119 -0.6205
vn -0.5749 0.5664 -0.5904
vn 0.2508 0.9131 0.3215
vn -0.7004 0.5322 -0.4756
vn 0.9018 0.0006 -0.4322
vn -0.2780 -0.5074 -0.8156
vn 0.0215 -0.5487 -0.8357
vn 0.9472 0.2804 -0.1555
vn -0.9686 -0.1002 0.2276
vn -0.9629 -0.1708 0.2091
vn 0.2868 0.5308 0.7975
vn 0.0215 0.6233 0.7817
vn 0.0466 -0.6668 -0.7438
vn 0.8765 0.3882 -0.2848
vn -0.9541 -0.2120 0.2116
vn -0.0765 0.7886 0.6101
vn -0.4238 0.5208 -0.7411
vn 0.8602 -0.3727 -0.3481
vn 0.9233 -0.2805 -0.2625
vn 0.9350 -0.3493 -0.0605
vn 0.8577 -0.4874 -0.1638
vn 0.9154 -0.4022 -0.0132
vn 0.8503 -0.5171 -0.0976
vn 0.8584 -0.5061 -0.0833
vn 0.9151 -0.3994 -0.0560
vn 0.8290 -0.5533 0.0811
vn 0.8615 -0.5057 0.0458
vn 0.9686 -0.1996 -0.1480
vn 0.9606 -0.2776 0.0132
vn 0.9502 -0.3100 0.0318
vn 0.9673 -0.1842 -0.1744
vn 0.9607 -0.2336 -0.1501
vn 0.9765 -0.2141 -0.0261
vn 0.9270 -0.3658 0.0829
vn 0.9328 -0.3589 0.0326
vn 0.8313 -0.4403 -0.3391
vn 0.7976 -0.5983 -0.0761
vn 0.8314 -0.4706 -0.2954
vn 0.8108 -0.5564 -0.1818
vn 0.8446 -0.5101 -0.1628
vn 0.7911 -0.6063 -0.0816
vn 0.7898 -0.5989 -0.1328
vn 0.7897 -0.5989 -0.1327
vn -0.8601 0.3727 0.3482
vn -0.8576 0.4874 0.1638
vn -0.9351 0.3493 0.0605
vn -0.9233 0.2805 0.2625
vn -0.8503 0.5171 0.0976
vn -0.9154 0.4022 0.0132
vn -0.8584 0.5061 0.0833
vn -0.9151 0.3994 0.0560
vn -0.8290 0.5533 -0.0811
vn -0.8615 0.5057 -0.0458
vn -0.9606 0.2776 -0.0133
vn -0.9686 0.1996 0.1480
vn -0.9502 0.3100 -0.0318
vn -0.9673 0.1842 0.1744
vn -0.9607 0.2336 0.1500
vn -0.9765 0.2141 0.0262
vn -0.9270 0.3658 -0.0829
vn -0.9328 0.3589 -0.0326
vn -0.8313 0.4403 0.3392
vn -0.7976 0.5984 0.0760
vn -0.8108 0.5563 0.1820
vn -0.8314 0.4706 0.2954
vn -0.8446 0.5101 0.1628
vn -0.7911 0.6062 0.0817
vn -0.7898 0.5989 0.1327
vn 0.1504 -0.7852 -0.6007
vn 0.2250 -0.6968 -0.6810
vn 0.4248 -0.6688 -0.6101
vn 0.3416 -0.7968 -0.4985
vn 0.4725 -0.6836 -0.5562
vn 0.4044 -0.7891 -0.4624
vn 0.4171 -0.7770 -0.4715
vn 0.4343 -0.6999 -0.5670
vn 0.5614 -0.7320 -0.3859
vn 0.5307 -0.7212 -0.4452
vn 0.3207 -0.5982 -0.7344
vn 0.4794 -0.5880 -0.6515
vn 0.5004 -0.6022 -0.6221
vn 0.2929 -0.5968 -0.7470
vn 0.3251 -0.6238 -0.7108
vn 0.4337 -0.5595 -0.7063
vn 0.5507 -0.6163 -0.5629
vn 0.5075 -0.6350 -0.5824
vn 0.1652 -0.8252 -0.5402
vn 0.4242 -0.8255 -0.3723
vn 0.2117 -0.8306 -0.5150
vn 0.3256 -0.8427 -0.4287
vn 0.3434 -0.8097 -0.4759
vn 0.4187 -0.8319 -0.3643
vn 0.3724 -0.8477 -0.3777
vn 0.3723 -0.8477 -0.3778
vn -0.1503 0.7851 0.6008
vn -0.3416 0.7967 0.4985
vn -0.4248 0.6688 0.6101
vn -0.2251 0.6968 0.6810
vn -0.4044 0.7891 0.4624
vn -0.4725 0.6836 0.5562
vn -0.4171 0.7770 0.4715
vn -0.4344 0.6999 0.5670
vn -0.5613 0.7320 0.3860
vn -0.5307 0.7212 0.4452
vn -0.4795 0.5880 0.6514
vn -0.3207 0.5983 0.7343
vn -0.5004 0.6022 0.6221
vn -0.2929 0.5968 0.7470
vn -0.3252 0.6238 0.7107
vn -0.4340 0.5596 0.7060
vn -0.5508 0.6163 0.5628
vn -0.5074 0.6350 0.5825
vn -0.1653 0.8252 0.5402
vn -0.4243 0.8255 0.3722
vn -0.3258 0.8427 0.4285
vn -0.2116 0.8306 0.5151
vn -0.3434 0.8097 0.4759
vn -0.4189 0.8318 0.3641
vn -0.3721 0.8477 0.3780
vn -0.3720 0.8477 0.3780
vn 0.3838 -0.4239 -0.8204
vn 0.4646 -0.3090 -0.8299
vn 0.6364 -0.3176 -0.7029
vn 0.5445 -0.4820 -0.6864
vn 0.6711 -0.3557 -0.6504
vn 0.5954 -0.4920 -0.6352
vn 0.6084 -0.4771 -0.6342
vn 0.6389 -0.3650 -0.6772
vn 0.7212 -0.4771 -0.5023
vn 0.7046 -0.4402 -0.5565
vn 0.5580 -0.1975 -0.8060
vn 0.6895 -0.2271 -0.6878
vn 0.7042 -0.2533 -0.6633
vn 0.5340 -0.1902 -0.8238
vn 0.5595 -0.2309 -0.7960
vn 0.6555 -0.1767 -0.7342
vn 0.7400 -0.2932 -0.6053
vn 0.7053 -0.3005 -0.6421
vn 0.3882 -0.4872 -0.7823
vn 0.5970 -0.5657 -0.5688
vn 0.4275 -0.5039 -0.7506
vn 0.5178 -0.5548 -0.6513
vn 0.5423 -0.5039 -0.6723
vn 0.5905 -0.5751 -0.5663
vn 0.5506 -0.5826 -0.5978
vn 0.5507 -0.5826 -0.5978
vn -0.3838 0.4239 0.8204
vn -0.5445 0.4820 0.6864
vn -0.6364 0.3176 0.7029
vn -0.4646 0.3089 0.8299
vn -0.5954 0.4920 0.6352
vn -0.6711 0.3557 0.6505
vn -0.6084 0.4771 0.6342
vn -0.6389 0.3650 0.6772
vn -0.7212 0.4771 0.5023
vn -0.7047 0.4402 0.5565
vn -0.6895 0.2271 0.6878
vn -0.5580 0.1975 0.8060
vn -0.7042 0.2533 0.6633
vn -0.5340 0.1902 0.8238
vn -0.5595 0.2309 0.7960
vn -0.6555 0.1767 0.7342
vn -0.7400 0.2932 0.6053
vn -0.7053 0.3005 0.6421
vn -0.3882 0.4872 0.7822
vn -0.5970 0.5657 0.5688
vn -0.5176 0.5547 0.6514
vn -0.4275 0.5038 0.7506
vn -0.5423 0.5039 0.6723
vn -0.5904 0.5750 0.5664
vn -0.5508 0.5827 0.5976
s 1
f 1/1/1 2/2/2 3/3/3
f 3/3/3 4/4/4 1/1/1
f 5/5/5 6/6/6 3/7/3
f 3/7/3 2/8/2 5/5/5
f 5/9/5 7/10/7 8/11/8
f 8/11/8 6/12/6 5/9/5
f 1/13/1 4/14/4 8/15/8
f 8/15/8 7/16/7 1/13/1
f 9/17/9 3/3/3 10/18/10
f 10/18/10 11/19/11 9/17/9
f 3/7/3 6/6/6 12/20/12
f 12/20/12 10/21/10 3/7/3
f 6/12/6 13/22/13 14/23/14
f 14/23/14 12/24/12 6/12/6
f 13/22/13 8/11/8 15/25/15
f 15/25/15 16/26/16 13/22/13
f 8/15/8 4/14/4 17/27/17
f 17/27/17 15/28/15 8/15/8
f 4/4/4 9/17/9 18/29/18
f 18/29/18 17/30/17 4/4/4
f 13/31/13 9/32/9 11/33/11
f 11/33/11 14/34/14 13/31/13
f 16/35/16 18/36/18 9/37/9
f 9/37/9 13/38/13 16/35/16
f 16/26/16 15/25/15 19/39/19
f 19/39/19 20/40/20 16/26/16
f 15/28/15 17/27/17 21/41/21
f 21/41/21 19/42/19 15/28/15
f 17/30/17 18/29/18 22/43/22
f 22/43/22 21/44/21 17/30/17
f 18/36/18 16/35/16 20/45/20
f 20/45/20 22/46/22 18/36/18
f 3/3/3 9/17/9 4/4/4
f 8/11/8 13/22/13 6/12/6
f 11/19/11 10/18/10 23/47/23
f 23/47/23 24/48/24 11/19/11
f 10/21/10 12/20/12 25/49/25
f 25/49/25 23/50/23 10/21/10
f 12/24/12 14/23/14 26/51/26
f 26/51/26 25/52/25 12/24/12
f 14/34/14 11/33/11 24/53/24
f 24/53/24 26/54/26 14/34/14
f 24/48/24 23/47/23 27/55/27
f 23/50/23 25/49/25 27/56/27
f 25/52/25 26/51/26 27/57/27
f 26/54/26 24/53/24 27/58/27
f 20/40/20 19/39/19 28/59/28
f 19/42/19 21/41/21 28/60/28
f 21/44/21 22/43/22 28/61/28
f 22/46/22 20/45/20 28/62/28
s 2
f 29/63/29 30/64/30 31/65/31
f 31/65/31 32/66/32 29/63/29
f 30/67/30 33/68/33 34/69/34
f 34/69/34 31/70/31 30/67/30
f 33/71/33 35/72/35 36/73/36
f 36/73/36 34/74/34 33/71/33
f 32/75/32 36/76/36 35/77/35
f 35/77/35 29/78/29 32/75/32
f 32/66/32 31/65/31 37/79/37
f 37/79/37 38/80/38 32/66/32
f 31/70/31 34/69/34 39/81/39
f 39/81/39 37/82/37 31/70/31
f 34/74/34 36/73/36 40/83/40
f 40/83/40 39/84/39 34/74/34
f 36/76/36 32/75/32 38/85/38
f 38/85/38 40/86/40 36/76/36
f 38/80/38 37/79/37 41/87/41
f 37/82/37 39/81/39 41/88/41
f 39/84/39 40/83/40 41/89/41
f 40/86/40 38/85/38 41/90/41
s 3
f 42/91/42 43/92/43 44/93/44
f 44/93/44 45/94/45 42/91/42
f 45/94/45 44/93/44 46/95/46
f 46/95/46 47/96/47 45/94/45
f 48/97/48 47/96/47 46/95/46
f 46/95/46 49/98/49 48/97/48
f 50/99/50 48/97/48 49/98/49
f 49/98/49 51/100/51 50/99/50
f 43/92/43 52/101/52 53/102/53
f 53/102/53 44/93/44 43/92/43
f 44/93/44 53/102/53 54/103/54
f 54/103/54 46/95/46 44/93/44
f 46/95/46 54/103/54 55/104/55
f 55/104/55 49/98/49 46/95/46
f 55/104/55 56/105/56 49/98/49
f 52/101/52 57/106/57 53/102/53
f 53/102/53 57/106/57 58/107/58
f 58/107/58 54/103/54 53/102/53
f 54/103/54 58/107/58 59/108/59
f 59/108/59 55/104/55 54/103/54
f 59/108/59 56/105/56 55/104/55
f 42/91/42 45/94/45 60/109/60
f 45/94/45 47/96/47 61/110/61
f 47/96/47 48/97/48 62/111/62
f 62/111/62 63/112/63 47/96/47
f 48/97/48 50/99/50 64/113/64
f 48/97/48 64/113/64 62/111/62
f 60/109/60 45/94/45 61/110/61
f 47/96/47 63/112/63 65/114/65
f 61/110/61 47/96/47 65/114/65
f 49/98/49 56/105/56 51/100/51
f 63/112/63 66/115/66 67/116/67
f 67/116/67 65/114/65 63/112/63
s 4
f 68/117/68 69/118/69 70/119/70
f 70/119/70 71/120/71 68/117/68
f 69/118/69 72/121/72 73/122/73
f 73/122/73 70/119/70 69/118/69
f 74/123/74 75/124/75 73/122/73
f 73/122/73 72/121/72 74/123/74
f 76/125/76 77/126/77 75/124/75
f 75/124/75 74/123/74 76/125/76
f 71/120/71 70/119/70 78/127/78
f 78/127/78 79/128/79 71/120/71
f 70/119/70 73/122/73 80/129/80
f 80/129/80 78/127/78 70/119/70
f 73/122/73 75/124/75 81/130/81
f 81/130/81 80/129/80 73/122/73
f 81/130/81 75/124/75 82/131/82
f 79/128/79 78/127/78 83/132/83
f 78/127/78 80/129/80 84/133/84
f 84/133/84 83/132/83 78/127/78
f 80/129/80 81/130/81 85/134/85
f 85/134/85 84/133/84 80/129/80
f 85/134/85 81/130/81 82/131/82
f 68/117/68 86/135/86 69/118/69
f 69/118/69 87/136/87 72/121/72
f 72/121/72 88/137/88 89/138/89
f 89/138/89 74/123/74 72/121/72
f 74/123/74 90/139/90 76/125/76
f 74/123/74 89/138/89 90/139/90
f 86/135/86 87/136/87 69/118/69
f 72/121/72 91/140/91 88/137/88
f 87/136/87 91/140/91 72/121/72
f 75/124/75 77/126/77 82/131/82
f 88/137/88 91/140/91 92/141/92
f 92/141/92 93/142/92 88/137/88
s 5
f 94/143/93 95/144/94 96/145/95
f 96/145/95 97/146/96 94/143/93
f 97/146/96 96/145/95 98/147/97
f 98/147/97 99/148/98 97/146/96
f 100/149/99 99/148/98 98/147/97
f 98/147/97 101/150/100 100/149/99
f 102/151/101 100/149/99 101/150/100
f 101/150/100 103/152/102 102/151/101
f 95/144/94 104/153/103 105/154/104
f 105/154/104 96/145/95 95/144/94
f 96/145/95 105/154/104 106/155/105
f 106/155/105 98/147/97 96/145/95
f 98/147/97 106/155/105 107/156/106
f 107/156/106 101/150/100 98/147/97
f 107/156/106 108/157/107 101/150/100
f 104/153/103 109/158/108 105/154/104
f 105/154/104 109/158/108 110/159/109
f 110/159/109 106/155/105 105/154/104
f 106/155/105 110/159/109 111/160/110
f 111/160/110 107/156/106 106/155/105
f 111/160/110 108/157/107 107/156/106
f 94/143/93 97/146/96 112/161/111
f 97/146/96 99/148/98 113/162/112
f 99/148/98 100/149/99 114/163/113
f 114/163/113 115/164/114 99/148/98
f 100/149/99 102/151/101 116/165/115
f 100/149/99 116/165/115 114/163/113
f 112/161/111 97/146/96 113/162/112
f 99/148/98 115/164/114 117/166/116
f 113/162/112 99/148/98 117/166/116
f 101/150/100 108/157/107 103/152/102
f 115/164/114 118/167/117 119/168/118
f 119/168/118 117/166/116 115/164/114
s 6
f 120/169/119 121/170/120 122/171/121
f 122/171/121 123/172/122 120/169/119
f 121/170/120 124/173/123 125/174/124
f 125/174/124 122/171/121 121/170/120
f 126/175/125 127/176/126 125/174/124
f 125/174/124 124/173/123 126/175/125
f 128/177/127 129/178/128 127/176/126
f 127/176/126 126/175/125 128/177/127
f 123/172/122 122/171/121 130/179/129
f 130/179/129 131/180/130 123/172/122
f 122/171/121 125/174/124 132/181/131
f 132/181/131 130/179/129 122/171/121
f 125/174/124 127/176/126 133/182/132
f 133/182/132 132/181/131 125/174/124
f 133/182/132 127/176/126 134/183/133
f 131/180/130 130/179/129 135/184/134
f 130/179/129 132/181/131 136/185/135
f 136/185/135 135/184/134 130/179/129
f 132/181/131 133/182/132 137/186/136
f 137/186/136 136/185/135 132/181/131
f 137/186/136 133/182/132 134/183/133
f 120/169/119 138/187/137 121/170/120
f 121/170/120 139/188/138 124/173/123
f 124/173/123 140/189/139 141/190/140
f 141/190/140 126/175/125 124/173/123
f 126/175/125 142/191/141 128/177/127
f 126/175/125 141/190/140 142/191/141
f 138/187/137 139/188/138 121/170/120
f 124/173/123 143/192/142 140/189/139
f 139/188/138 143/192/142 124/173/123
f 127/176/126 129/178/128 134/183/133
f 140/189/139 143/192/142 144/193/143
f 144/193/143 145/194/144 140/189/139
s 7
f 146/195/145 147/196/146 148/197/147
f 148/197/147 149/198/148 146/195/145
f 149/198/148 148/197/147 150/199/149
f 150/199/149 151/200/150 149/198/148
f 152/201/151 151/200/150 150/199/149
f 150/199/149 153/202/152 152/201/151
f 154/203/153 152/201/151 153/202/152
f 153/202/152 155/204/154 154/203/153
f 147/196/146 156/205/155 157/206/156
f 157/206/156 148/197/147 147/196/146
f 148/197/147 157/206/156 158/207/157
f 158/207/157 150/199/149 148/197/147
f 150/199/149 158/207/157 159/208/158
f 159/208/158 153/202/152 150/199/149
f 159/208/158 160/209/159 153/202/152
f 156/205/155 161/210/160 157/206/156
f 157/206/156 161/210/160 162/211/161
f 162/211/161 158/207/157 157/206/156
f 158/207/157 162/211/161 163/212/162
f 163/212/162 159/208/158 158/207/157
f 163/212/162 160/209/159 159/208/158
f 146/195/145 149/198/148 164/213/163
f 149/198/148 151/200/150 165/214/164
f 151/200/150 152/201/151 166/215/165
f 166/215/165 167/216/166 151/200/150
f 152/201/151 154/203/153 168/217/167
f 152/201/151 168/217/167 166/215/165
f 164/213/163 149/198/148 165/214/164
f 151/200/150 167/216/166 169/218/168
f 165/214/164 151/200/150 169/218/168
f 153/202/152 160/209/159 155/204/154
f 167/216/166 170/219/169 171/220/170
f 171/220/170 169/218/168 167/216/166
s 8
f 172/221/171 173/222/172 174/223/173
f 174/223/173 175/224/174 172/221/171
f 173/222/172 176/225/175 177/226/176
f 177/226/176 174/223/173 173/222/172
f 178/227/177 179/228/178 177/226/176
f 177/226/176 176/225/175 178/227/177
f 180/229/179 181/230/180 179/228/178
f 179/228/178 178/227/177 180/229/179
f 175/224/174 174/223/173 182/231/181
f 182/231/181 183/232/182 175/224/174
f 174/223/173 177/226/176 184/233/183
f 184/233/183 182/231/181 174/223/173
f 177/226/176 179/228/178 185/234/184
f 185/234/184 184/233/183 177/226/176
f 185/234/184 179/228/178 186/235/185
f 183/232/182 182/231/181 187/236/186
f 182/231/181 184/233/183 188/237/187
f 188/237/187 187/236/186 182/231/181
f 184/233/183 185/234/184 189/238/188
f 189/238/188 188/237/187 184/233/183
f 189/238/188 185/234/184 186/235/185
f 172/221/171 190/239/189 173/222/172
f 173/222/172 191/240/190 176/225/175
f 176/225/175 192/241/191 193/242/192
f 193/242/192 178/227/177 176/225/175
f 178/227/177 194/243/193 180/229/179
f 178/227/177 193/242/192 194/243/193
f 190/239/189 191/240/190 173/222/172
f 176/225/175 195/244/194 192/241/191
f 191/240/190 195/244/194 176/225/175
f 179/228/178 181/230/180 186/235/185
f 192/241/191 195/244/194 196/245/195
f 196/245/195 197/246/195 192/241/191
