# Blender v3.3.0 OBJ File: ''
# www.blender.org
o CocoaTreeStage03.005
v -0.026088 -0.000000 0.027696
v 0.033936 -0.000000 0.027696
v 0.022708 0.240002 0.018456
v -0.017672 0.229811 0.018456
v 0.033936 0.000000 -0.027696
v 0.022708 0.240002 -0.018456
v -0.026088 0.000000 -0.027696
v -0.017672 0.229811 -0.018456
v -0.006457 0.292368 0.018456
v 0.071511 0.474816 0.030213
v 0.041319 0.489489 0.030213
v 0.071511 0.474816 -0.006019
v -0.006457 0.292368 -0.018456
v 0.041319 0.489489 -0.006019
v -0.068251 0.356486 -0.012086
v -0.050847 0.371804 -0.009017
v -0.072548 0.356486 0.012288
v -0.055145 0.371804 0.015357
v -0.132280 0.439413 -0.028457
v -0.114877 0.454731 -0.025389
v -0.136578 0.439413 -0.004084
v -0.119174 0.454731 -0.001015
v 0.143195 0.636658 0.065076
v 0.122161 0.646725 0.066851
v 0.143195 0.641041 0.040217
v 0.122161 0.651108 0.041992
v 0.165079 0.762805 0.095663
v -0.204090 0.506237 -0.068506
v 0.073642 0.530969 0.022495
v 0.076807 0.536309 0.041147
v 0.045866 0.595098 0.078356
v 0.040987 0.603966 0.069004
v 0.085388 0.549305 0.040990
v 0.058426 0.602496 0.078817
v 0.077448 0.554323 0.022338
v 0.053547 0.611364 0.069465
v 0.020100 0.632658 0.125495
v 0.015220 0.641526 0.116143
v 0.032660 0.640056 0.125956
v 0.027780 0.648924 0.116604
v -0.006284 0.667605 0.182857
v 0.123761 0.595246 0.045825
v 0.108594 0.589405 0.033719
v 0.146624 0.630929 0.006517
v 0.154800 0.637648 0.014695
v 0.100973 0.601984 0.037198
v 0.136797 0.640995 0.008071
v 0.116140 0.607825 0.049304
v 0.144972 0.647714 0.016249
v 0.181822 0.666299 -0.041201
v 0.189998 0.673018 -0.033023
v 0.171995 0.676364 -0.039646
v 0.180170 0.683083 -0.031468
v 0.213581 0.692899 -0.117797
v 0.027192 0.296281 -0.003946
v 0.005593 0.282152 -0.010132
v -0.009119 0.368656 -0.055665
v 0.002256 0.380169 -0.048970
v -0.004638 0.291650 0.003899
v -0.021914 0.374198 -0.043453
v 0.016961 0.305778 0.010085
v -0.010538 0.385710 -0.036758
v -0.025645 0.417698 -0.099940
v -0.014270 0.429210 -0.093245
v -0.038440 0.423239 -0.087728
v -0.027064 0.434751 -0.081033
v -0.054369 0.469003 -0.147900
v 0.029442 0.394932 0.020891
v 0.043504 0.387282 -0.000278
v 0.102378 0.452822 0.044565
v 0.092642 0.461621 0.056165
v 0.038096 0.403755 -0.003655
v 0.099229 0.466004 0.031922
v 0.029803 0.411405 0.011345
v 0.089493 0.474803 0.043521
v 0.191979 0.511094 0.082998
v 0.182243 0.519893 0.094597
v 0.188829 0.524275 0.070354
v 0.179093 0.533075 0.081953
v 0.295533 0.545930 0.115689
v -0.101659 0.407162 0.001064
v -0.085391 0.414012 -0.008893
v -0.103611 0.442698 0.022366
v -0.115967 0.440415 0.026946
v -0.094369 0.421960 -0.018094
v -0.108949 0.450572 0.011887
v -0.110637 0.415110 -0.008136
v -0.121306 0.448289 0.016467
v -0.101523 0.487808 0.052637
v -0.113880 0.485525 0.057217
v -0.106862 0.495682 0.042158
v -0.119218 0.493399 0.046738
v -0.078715 0.521199 0.070299
v 0.185270 0.584302 0.003670
v 0.179207 0.577691 0.020312
v 0.211383 0.515627 0.020552
v 0.217871 0.522853 0.004401
v 0.170578 0.571507 0.028504
v 0.199806 0.513075 0.029114
v 0.160929 0.568962 0.041645
v 0.191537 0.506716 0.042949
v 0.150161 0.563718 0.050110
v 0.179483 0.503971 0.052728
v 0.218750 0.486020 0.017398
v 0.223954 0.493221 0.006529
v 0.207637 0.485163 0.024952
v 0.202969 0.478727 0.035163
v 0.197469 0.476774 0.045837
v 0.221790 0.455840 0.018569
v 0.219301 0.448294 0.022967
v 0.213532 0.452886 0.026677
v 0.169441 0.603429 0.008744
v 0.159798 0.607726 0.017892
v 0.146573 0.607689 0.025694
v 0.144218 0.599476 0.037130
v 0.143732 0.588436 0.046014
v 0.148675 0.608795 0.023321
v 0.137637 0.626143 0.020591
v 0.135535 0.625037 0.022964
v 0.184740 0.583818 0.003226
v 0.217342 0.522369 0.003956
v 0.210853 0.515143 0.020108
v 0.178677 0.577207 0.019867
v 0.199276 0.512591 0.028669
v 0.170049 0.571023 0.028060
v 0.160399 0.568478 0.041201
v 0.191008 0.506232 0.042505
v 0.149631 0.563234 0.049665
v 0.178954 0.503486 0.052283
v 0.223424 0.492737 0.006084
v 0.218221 0.485536 0.016954
v 0.207107 0.484678 0.024507
v 0.202440 0.478243 0.034719
v 0.196939 0.476290 0.045393
v 0.221260 0.455356 0.018125
v 0.218771 0.447809 0.022523
v 0.213002 0.452401 0.026233
v 0.168912 0.602945 0.008299
v 0.159268 0.607242 0.017448
v 0.143688 0.598992 0.036685
v 0.146043 0.607205 0.025250
v 0.143203 0.587952 0.045569
v 0.148145 0.608310 0.022876
v 0.135005 0.624553 0.022520
v 0.137107 0.625659 0.020146
v 0.114602 0.590162 0.002832
v 0.095041 0.536029 -0.022469
v 0.098917 0.538601 -0.038854
v 0.117929 0.593322 -0.013627
v 0.107895 0.542699 -0.047645
v 0.124931 0.593829 -0.023506
v 0.131413 0.599434 -0.035712
v 0.113609 0.545354 -0.061982
v 0.140098 0.601241 -0.045561
v 0.122817 0.549915 -0.071849
v 0.093717 0.512739 -0.036857
v 0.097402 0.512845 -0.048997
v 0.105904 0.517730 -0.056205
v 0.109124 0.518036 -0.067446
v 0.112329 0.522175 -0.077115
v 0.098988 0.489386 -0.063135
v 0.101498 0.485935 -0.070147
v 0.105205 0.492271 -0.071475
v 0.124716 0.610450 0.006094
v 0.130891 0.619665 0.000063
v 0.142318 0.624691 -0.019946
v 0.141073 0.625742 -0.007148
v 0.142797 0.619989 -0.031858
v 0.139493 0.625151 -0.004625
v 0.148646 0.640364 0.001815
v 0.147066 0.639773 0.004338
v 0.113960 0.590672 0.002681
v 0.117287 0.593832 -0.013778
v 0.098275 0.539111 -0.039005
v 0.094399 0.536539 -0.022620
v 0.124289 0.594339 -0.023657
v 0.107253 0.543209 -0.047796
v 0.130771 0.599944 -0.035863
v 0.112968 0.545864 -0.062133
v 0.139456 0.601751 -0.045712
v 0.122176 0.550425 -0.072000
v 0.096760 0.513355 -0.049148
v 0.093076 0.513249 -0.037008
v 0.105262 0.518241 -0.056356
v 0.108482 0.518546 -0.067596
v 0.111687 0.522685 -0.077266
v 0.098346 0.489896 -0.063286
v 0.100856 0.486445 -0.070298
v 0.104563 0.492781 -0.071626
v 0.124075 0.610960 0.005943
v 0.130249 0.620175 -0.000088
v 0.140431 0.626252 -0.007299
v 0.141676 0.625201 -0.020097
v 0.142155 0.620499 -0.032009
v 0.138852 0.625661 -0.004776
v 0.146424 0.640283 0.004187
v 0.148004 0.640874 0.001664
v -0.043246 0.369050 -0.044107
v -0.068477 0.324240 -0.037542
v -0.077317 0.324592 -0.048450
v -0.052422 0.369919 -0.054763
v -0.078662 0.326444 -0.059104
v -0.055393 0.368905 -0.064250
v -0.060255 0.371889 -0.075143
v -0.085242 0.326896 -0.070206
v -0.062392 0.371802 -0.085862
v -0.087186 0.329013 -0.081595
v -0.078074 0.304084 -0.041057
v -0.084179 0.302811 -0.049457
v -0.084743 0.305483 -0.059112
v -0.090495 0.304489 -0.066789
v -0.095307 0.306762 -0.074129
v -0.092151 0.282306 -0.054719
v -0.095414 0.278674 -0.059408
v -0.094559 0.283429 -0.063215
v -0.036468 0.385075 -0.051447
v -0.037516 0.391569 -0.059516
v -0.044999 0.392999 -0.077408
v -0.037265 0.395077 -0.070405
v -0.052460 0.388082 -0.083047
v -0.036392 0.394943 -0.068064
v -0.027910 0.407183 -0.072616
v -0.027037 0.407048 -0.070274
v -0.043633 0.369361 -0.043815
v -0.052809 0.370230 -0.054471
v -0.077705 0.324903 -0.048158
v -0.068864 0.324551 -0.037250
v -0.055780 0.369217 -0.063958
v -0.079049 0.326756 -0.058812
v -0.060643 0.372200 -0.074851
v -0.085629 0.327207 -0.069914
v -0.062779 0.372113 -0.085570
v -0.087573 0.329324 -0.081303
v -0.084567 0.303123 -0.049165
v -0.078461 0.304395 -0.040765
v -0.085130 0.305794 -0.058821
v -0.090883 0.304801 -0.066497
v -0.095694 0.307073 -0.073838
v -0.092539 0.282617 -0.054427
v -0.095801 0.278985 -0.059116
v -0.094946 0.283740 -0.062923
v -0.036856 0.385386 -0.051155
v -0.037904 0.391880 -0.059224
v -0.037652 0.395388 -0.070113
v -0.045387 0.393311 -0.077116
v -0.052847 0.388393 -0.082755
v -0.036780 0.395254 -0.067772
v -0.027424 0.407360 -0.069982
v -0.028297 0.407494 -0.072324
v -0.000584 0.577419 0.112942
v 0.003177 0.576171 0.096281
v -0.020642 0.518703 0.084411
v -0.024896 0.520551 0.100842
v 0.010301 0.573638 0.086773
v -0.011223 0.519739 0.075154
v 0.017399 0.575518 0.073753
v -0.005145 0.518311 0.060752
v 0.026323 0.574102 0.064012
v 0.004556 0.519511 0.050343
v -0.024450 0.491425 0.080740
v -0.028246 0.494607 0.092452
v -0.015447 0.493651 0.072815
v -0.012104 0.490922 0.061915
v -0.008435 0.492289 0.051613
v -0.024914 0.465124 0.072726
v -0.022666 0.459851 0.066822
v -0.018367 0.465337 0.064113
v 0.011361 0.596970 0.111517
v 0.018432 0.603879 0.103616
v 0.029221 0.607111 0.095453
v 0.030481 0.602862 0.083304
v 0.030630 0.595361 0.072878
v 0.027567 0.607292 0.097999
v 0.036399 0.622971 0.103408
v 0.038053 0.622790 0.100862
v 0.000110 0.576900 0.113311
v -0.024201 0.520032 0.101211
v -0.019947 0.518184 0.084780
v 0.003872 0.575652 0.096649
v -0.010528 0.519220 0.075523
v 0.010996 0.573119 0.087142
v 0.018093 0.574999 0.074122
v -0.004450 0.517792 0.061121
v 0.027018 0.573584 0.064381
v 0.005251 0.518993 0.050712
v -0.027551 0.494089 0.092821
v -0.023755 0.490906 0.081108
v -0.014752 0.493132 0.073184
v -0.011409 0.490403 0.062284
v -0.007740 0.491770 0.051982
v -0.024219 0.464605 0.073095
v -0.021971 0.459333 0.067191
v -0.017672 0.464818 0.064482
v 0.012056 0.596452 0.111885
v 0.019127 0.603361 0.103985
v 0.031176 0.602343 0.083673
v 0.029916 0.606592 0.095822
v 0.031325 0.594842 0.073247
v 0.028262 0.606774 0.098368
v 0.038748 0.622271 0.101231
v 0.037094 0.622453 0.103777
v 0.068826 0.568493 0.084984
v 0.091197 0.515161 0.097449
v 0.090130 0.515138 0.113441
v 0.068277 0.569023 0.101044
v 0.083140 0.517456 0.123463
v 0.063309 0.567905 0.111248
v 0.059159 0.571215 0.124238
v 0.080049 0.517745 0.137868
v 0.052618 0.571260 0.134858
v 0.073011 0.520334 0.148979
v 0.094783 0.491519 0.107107
v 0.093248 0.489805 0.118822
v 0.086451 0.493090 0.127433
v 0.085206 0.491702 0.138280
v 0.083710 0.494100 0.148233
v 0.094096 0.465957 0.128671
v 0.092874 0.461690 0.134993
v 0.089606 0.467289 0.137685
v 0.058824 0.587527 0.086444
v 0.053980 0.595071 0.094240
v 0.046456 0.596604 0.115061
v 0.045618 0.599415 0.103280
v 0.047886 0.590543 0.125387
v 0.046696 0.599265 0.100640
v 0.037121 0.614053 0.098310
v 0.038199 0.613904 0.095670
v 0.069618 0.569016 0.085167
v 0.069069 0.569545 0.101227
v 0.090922 0.515660 0.113624
v 0.091989 0.515683 0.097632
v 0.064102 0.568427 0.111431
v 0.083933 0.517978 0.123646
v 0.059951 0.571737 0.124421
v 0.080841 0.518267 0.138051
v 0.053410 0.571782 0.135041
v 0.073803 0.520856 0.149162
v 0.094040 0.490327 0.119005
v 0.095575 0.492041 0.107290
v 0.087243 0.493612 0.127616
v 0.085998 0.492225 0.138462
v 0.084503 0.494622 0.148415
v 0.094889 0.466479 0.128854
v 0.093667 0.462212 0.135175
v 0.090398 0.467811 0.137868
v 0.059616 0.588049 0.086627
v 0.054773 0.595593 0.094423
v 0.046410 0.599937 0.103463
v 0.047248 0.597126 0.115243
v 0.048678 0.591065 0.125570
v 0.047488 0.599787 0.100823
v 0.038991 0.614426 0.095853
v 0.037913 0.614576 0.098493
v 0.131816 0.645090 0.097012
v 0.116809 0.620207 0.123401
v 0.106615 0.620024 0.120378
v 0.121553 0.645388 0.094120
v 0.101230 0.619415 0.114156
v 0.115526 0.643344 0.090027
v 0.107927 0.644194 0.084715
v 0.092350 0.618801 0.110112
v 0.101925 0.642377 0.079315
v 0.086289 0.618350 0.103619
v 0.108314 0.607335 0.130813
v 0.100817 0.605970 0.128650
v 0.096393 0.605980 0.122474
v 0.089443 0.604887 0.120516
v 0.083390 0.605956 0.117461
v 0.092543 0.592165 0.134508
v 0.088297 0.589329 0.134073
v 0.087408 0.591704 0.130167
v 0.133619 0.653425 0.085535
v 0.129786 0.656534 0.079388
v 0.117436 0.655400 0.071453
v 0.125368 0.656711 0.071937
v 0.110120 0.652324 0.072465
v 0.126921 0.656918 0.073002
v 0.130797 0.662826 0.063564
v 0.132350 0.663033 0.064629
v 0.131444 0.645530 0.096775
v 0.121180 0.645828 0.093883
v 0.106243 0.620464 0.120142
v 0.116436 0.620648 0.123165
v 0.115154 0.643784 0.089791
v 0.100858 0.619855 0.113920
v 0.107555 0.644634 0.084479
v 0.091978 0.619241 0.109875
v 0.101553 0.642817 0.079079
v 0.085916 0.618790 0.103383
v 0.100445 0.606411 0.128414
v 0.107942 0.607775 0.130577
v 0.096020 0.606420 0.122238
v 0.089071 0.605327 0.120280
v 0.083018 0.606397 0.117225
v 0.092171 0.592605 0.134271
v 0.087925 0.589769 0.133837
v 0.087036 0.592144 0.129931
v 0.133247 0.653865 0.085298
v 0.129414 0.656974 0.079152
v 0.124996 0.657151 0.071701
v 0.117063 0.655840 0.071217
v 0.109748 0.652764 0.072229
v 0.126549 0.657358 0.072766
v 0.131978 0.663474 0.064393
v 0.130424 0.663267 0.063328
v -0.009119 0.377797 -0.058450
v -0.009119 0.354269 -0.084108
v -0.027463 0.352430 -0.073678
v -0.027463 0.348752 -0.052818
v -0.009119 0.346913 -0.042388
v 0.009225 0.348752 -0.052818
v 0.009225 0.352430 -0.073678
v -0.009119 0.327711 -0.092582
v -0.030697 0.325548 -0.080314
v -0.030697 0.321221 -0.055776
v -0.009119 0.319058 -0.043508
v 0.012458 0.321221 -0.055776
v 0.012458 0.325548 -0.080314
v -0.009119 0.266242 -0.078121
v -0.017326 0.283397 -0.079907
v -0.009119 0.284220 -0.084573
v -0.017326 0.281752 -0.070574
v -0.009119 0.280929 -0.065908
v -0.000912 0.281752 -0.070574
v -0.000912 0.283397 -0.079907
v -0.009119 0.303641 -0.093035
v -0.027463 0.301802 -0.082605
v -0.027463 0.298124 -0.061745
v -0.009119 0.296285 -0.051315
v 0.009225 0.298124 -0.061745
v 0.009225 0.301802 -0.082605
v 0.102378 0.457297 0.042775
v 0.102378 0.424419 0.012670
v 0.078888 0.423237 0.026181
v 0.078888 0.420872 0.053203
v 0.102378 0.419690 0.066714
v 0.125869 0.420872 0.053203
v 0.125869 0.423237 0.026181
v 0.102378 0.389593 0.004824
v 0.074747 0.388202 0.020716
v 0.074747 0.385421 0.052501
v 0.102378 0.384031 0.068394
v 0.130010 0.385421 0.052501
v 0.130010 0.388202 0.020716
v 0.102378 0.312790 0.030133
v 0.091869 0.334476 0.025939
v 0.102378 0.335005 0.019894
v 0.091869 0.333419 0.038028
v 0.102378 0.332890 0.044073
v 0.112888 0.333419 0.038028
v 0.112888 0.334476 0.025939
v 0.102378 0.358836 0.006933
v 0.078888 0.357654 0.020443
v 0.078888 0.355290 0.047465
v 0.102378 0.354108 0.060976
v 0.125869 0.355290 0.047465
v 0.125869 0.357654 0.020443
v -0.072402 0.365930 0.001978
v -0.079552 0.339245 -0.019203
v -0.097271 0.343993 -0.008612
v -0.097271 0.343993 0.012569
v -0.079552 0.339245 0.023160
v -0.061833 0.334497 0.012569
v -0.061833 0.334497 -0.008612
v -0.086702 0.312560 -0.022937
v -0.107545 0.318145 -0.010479
v -0.107545 0.318145 0.014436
v -0.086702 0.312560 0.026894
v -0.065860 0.306975 0.014436
v -0.065860 0.306975 -0.010479
v -0.101720 0.256513 0.001978
v -0.105355 0.274657 -0.002760
v -0.097428 0.272533 -0.007498
v -0.105355 0.274657 0.006717
v -0.097428 0.272533 0.011455
v -0.089500 0.270409 0.006717
v -0.089500 0.270409 -0.002760
v -0.092858 0.289588 -0.019203
v -0.110577 0.294335 -0.008612
v -0.110577 0.294335 0.012569
v -0.092858 0.289588 0.023160
v -0.075139 0.284840 0.012569
v -0.075139 0.284840 -0.008612
v -0.150004 0.419536 0.004240
v -0.173676 0.374358 0.014206
v -0.185672 0.376044 0.007033
v -0.162208 0.421711 -0.002528
v -0.190446 0.379135 -0.002294
v -0.168256 0.421825 -0.010512
v -0.176374 0.426098 -0.018746
v -0.200372 0.380925 -0.010407
v -0.182007 0.427272 -0.028070
v -0.205946 0.384369 -0.020190
v -0.184852 0.354774 0.012033
v -0.193500 0.354529 0.006107
v -0.197162 0.358314 -0.002464
v -0.205221 0.358261 -0.007803
v -0.212127 0.361413 -0.012801
v -0.203750 0.334786 0.001706
v -0.208577 0.331740 -0.001963
v -0.208832 0.336909 -0.005314
v -0.145340 0.436290 -0.003238
v -0.148745 0.443700 -0.009749
v -0.161766 0.447259 -0.023812
v -0.152016 0.448454 -0.019662
v -0.170932 0.443076 -0.027080
v -0.150409 0.448042 -0.017780
v -0.143374 0.460690 -0.023628
v -0.141768 0.460278 -0.021746
v -0.150127 0.419952 0.004729
v -0.162331 0.422126 -0.002039
v -0.185795 0.376460 0.007522
v -0.173798 0.374774 0.014695
v -0.168379 0.422241 -0.010023
v -0.190569 0.379551 -0.001805
v -0.176497 0.426513 -0.018257
v -0.200495 0.381340 -0.009918
v -0.182129 0.427687 -0.027581
v -0.206069 0.384785 -0.019701
v -0.193623 0.354945 0.006596
v -0.184975 0.355189 0.012522
v -0.197285 0.358729 -0.001975
v -0.205344 0.358676 -0.007314
v -0.212249 0.361829 -0.012312
v -0.203873 0.335202 0.002195
v -0.208699 0.332156 -0.001474
v -0.208955 0.337325 -0.004825
v -0.145463 0.436705 -0.002749
v -0.148868 0.444116 -0.009260
v -0.152138 0.448870 -0.019173
v -0.161889 0.447675 -0.023323
v -0.171055 0.443491 -0.026591
v -0.150532 0.448458 -0.017291
v -0.141891 0.460693 -0.021257
v -0.143497 0.461105 -0.023139
vt 0.076800 0.013400
vt 0.054300 0.012700
vt 0.052800 0.232800
vt 0.078300 0.226200
vt 0.036600 0.027600
vt 0.031800 0.264800
vt 0.049900 0.267700
vt 0.063900 0.031900
vt 0.056100 0.008300
vt 0.084100 0.006500
vt 0.083700 0.222200
vt 0.064900 0.232800
vt 0.054200 0.032300
vt 0.048300 0.254100
vt 0.030500 0.253600
vt 0.027500 0.031700
vt 0.067100 0.282300
vt 0.035000 0.450500
vt 0.052300 0.463500
vt 0.028500 0.501800
vt 0.046300 0.504700
vt 0.079300 0.281100
vt 0.059300 0.467200
vt 0.045000 0.454200
vt 0.108000 0.340100
vt 0.098800 0.352200
vt 0.044600 0.387200
vt 0.032700 0.385300
vt 0.083600 0.361700
vt 0.093900 0.352000
vt 0.117300 0.439100
vt 0.132700 0.448100
vt 0.112700 0.620100
vt 0.097600 0.611200
vt 0.111100 0.693700
vt 0.099900 0.690700
vt 0.108000 0.607200
vt 0.124400 0.614600
vt 0.128100 0.470700
vt 0.117300 0.473900
vt 0.038800 0.533000
vt 0.026900 0.531100
vt 0.107700 0.491800
vt 0.115600 0.485500
vt 0.102100 0.830800
vt 0.090900 0.827900
vt 0.010900 0.654700
vt 0.019500 0.661900
vt 0.040600 0.732700
vt 0.053000 0.730600
vt 0.016700 0.670000
vt 0.006800 0.660800
vt 0.098700 0.817100
vt 0.087900 0.814300
vt 0.011800 0.834100
vt 0.082100 0.915200
vt 0.002200 0.850800
vt 0.107300 0.979800
vt 0.131800 0.615000
vt 0.011500 0.674800
vt 0.131400 0.625800
vt 0.102100 0.974600
vt 0.079300 0.281100
vt 0.083700 0.222200
vt 0.108000 0.340100
vt 0.098800 0.352200
vt 0.030500 0.253600
vt 0.048300 0.254100
vt 0.044600 0.387200
vt 0.032700 0.385300
vt 0.078300 0.226200
vt 0.067100 0.282300
vt 0.083600 0.361700
vt 0.093900 0.352000
vt 0.111100 0.693700
vt 0.099900 0.690700
vt 0.108000 0.607200
vt 0.124400 0.614600
vt 0.128100 0.470700
vt 0.117300 0.473900
vt 0.038800 0.533000
vt 0.026900 0.531100
vt 0.107700 0.491800
vt 0.115600 0.485500
vt 0.102100 0.830800
vt 0.090900 0.827900
vt 0.131800 0.615000
vt 0.011500 0.674800
vt 0.131400 0.625800
vt 0.102100 0.974600
vt 0.079300 0.281100
vt 0.083700 0.222200
vt 0.108000 0.340100
vt 0.098800 0.352200
vt 0.030500 0.253600
vt 0.048300 0.254100
vt 0.044600 0.387200
vt 0.032700 0.385300
vt 0.078300 0.226200
vt 0.067100 0.282300
vt 0.083600 0.361700
vt 0.093900 0.352000
vt 0.111100 0.693700
vt 0.099900 0.690700
vt 0.108000 0.607200
vt 0.124400 0.614600
vt 0.128100 0.470700
vt 0.117300 0.473900
vt 0.038800 0.533000
vt 0.026900 0.531100
vt 0.107700 0.491800
vt 0.115600 0.485500
vt 0.102100 0.830800
vt 0.090900 0.827900
vt 0.131800 0.615000
vt 0.011500 0.674800
vt 0.131400 0.625800
vt 0.102100 0.974600
vt 0.079300 0.281100
vt 0.083700 0.222200
vt 0.108000 0.340100
vt 0.098800 0.352200
vt 0.030500 0.253600
vt 0.048300 0.254100
vt 0.044600 0.387200
vt 0.032700 0.385300
vt 0.078300 0.226200
vt 0.067100 0.282300
vt 0.083600 0.361700
vt 0.093900 0.352000
vt 0.111100 0.693700
vt 0.099900 0.690700
vt 0.108000 0.607200
vt 0.124400 0.614600
vt 0.128100 0.470700
vt 0.117300 0.473900
vt 0.038800 0.533000
vt 0.026900 0.531100
vt 0.107700 0.491800
vt 0.115600 0.485500
vt 0.102100 0.830800
vt 0.090900 0.827900
vt 0.131800 0.615000
vt 0.011500 0.674800
vt 0.131400 0.625800
vt 0.102100 0.974600
vt 0.079300 0.281100
vt 0.083700 0.222200
vt 0.108000 0.340100
vt 0.098800 0.352200
vt 0.030500 0.253600
vt 0.048300 0.254100
vt 0.044600 0.387200
vt 0.032700 0.385300
vt 0.078300 0.226200
vt 0.067100 0.282300
vt 0.083600 0.361700
vt 0.093900 0.352000
vt 0.111100 0.693700
vt 0.099900 0.690700
vt 0.108000 0.607200
vt 0.124400 0.614600
vt 0.128100 0.470700
vt 0.117300 0.473900
vt 0.038800 0.533000
vt 0.026900 0.531100
vt 0.107700 0.491800
vt 0.115600 0.485500
vt 0.102100 0.830800
vt 0.090900 0.827900
vt 0.131800 0.615000
vt 0.011500 0.674800
vt 0.131400 0.625800
vt 0.102100 0.974600
vt 0.079300 0.281100
vt 0.083700 0.222200
vt 0.108000 0.340100
vt 0.098800 0.352200
vt 0.030500 0.253600
vt 0.048300 0.254100
vt 0.044600 0.387200
vt 0.032700 0.385300
vt 0.078300 0.226200
vt 0.067100 0.282300
vt 0.083600 0.361700
vt 0.093900 0.352000
vt 0.111100 0.693700
vt 0.099900 0.690700
vt 0.108000 0.607200
vt 0.124400 0.614600
vt 0.128100 0.470700
vt 0.117300 0.473900
vt 0.038800 0.533000
vt 0.026900 0.531100
vt 0.107700 0.491800
vt 0.115600 0.485500
vt 0.102100 0.830800
vt 0.090900 0.827900
vt 0.131800 0.615000
vt 0.011500 0.674800
vt 0.131400 0.625800
vt 0.102100 0.974600
vt 0.298100 0.143300
vt 0.360500 0.156700
vt 0.352100 0.391800
vt 0.289900 0.379300
vt 0.405300 0.163000
vt 0.400800 0.384500
vt 0.460900 0.158100
vt 0.458800 0.392400
vt 0.510500 0.158800
vt 0.511400 0.384200
vt 0.355400 0.494600
vt 0.310000 0.480800
vt 0.399500 0.483800
vt 0.441100 0.496300
vt 0.482200 0.493300
vt 0.380100 0.594100
vt 0.403100 0.614500
vt 0.420300 0.592800
vt 0.326100 0.062000
vt 0.365900 0.036000
vt 0.414000 0.016100
vt 0.456000 0.039700
vt 0.489700 0.073900
vt 0.402700 0.015700
vt 0.403000 0.008200
vt 0.414300 0.008700
vt 0.298100 0.143300
vt 0.289900 0.379300
vt 0.352100 0.391800
vt 0.360500 0.156700
vt 0.400800 0.384500
vt 0.405300 0.163000
vt 0.460900 0.158100
vt 0.458800 0.392400
vt 0.510500 0.158800
vt 0.511400 0.384200
vt 0.310000 0.480800
vt 0.355400 0.494600
vt 0.399500 0.483800
vt 0.441100 0.496300
vt 0.482200 0.493300
vt 0.380100 0.594100
vt 0.403100 0.614500
vt 0.420300 0.592800
vt 0.326100 0.062000
vt 0.365900 0.036000
vt 0.456000 0.039700
vt 0.414000 0.016100
vt 0.489700 0.073900
vt 0.402700 0.015700
vt 0.414300 0.008700
vt 0.403000 0.008200
vt 0.298100 0.143300
vt 0.289900 0.379300
vt 0.352100 0.391800
vt 0.360500 0.156700
vt 0.400800 0.384500
vt 0.405300 0.163000
vt 0.460900 0.158100
vt 0.458800 0.392400
vt 0.510500 0.158800
vt 0.511400 0.384200
vt 0.310000 0.480800
vt 0.355400 0.494600
vt 0.399500 0.483800
vt 0.441100 0.496300
vt 0.482200 0.493300
vt 0.380100 0.594100
vt 0.403100 0.614500
vt 0.420300 0.592800
vt 0.326100 0.062000
vt 0.365900 0.036000
vt 0.456000 0.039700
vt 0.414000 0.016100
vt 0.489700 0.073900
vt 0.402700 0.015700
vt 0.414300 0.008700
vt 0.403000 0.008200
vt 0.298100 0.143300
vt 0.360500 0.156700
vt 0.352100 0.391800
vt 0.289900 0.379300
vt 0.405300 0.163000
vt 0.400800 0.384500
vt 0.460900 0.158100
vt 0.458800 0.392400
vt 0.510500 0.158800
vt 0.511400 0.384200
vt 0.355400 0.494600
vt 0.310000 0.480800
vt 0.399500 0.483800
vt 0.441100 0.496300
vt 0.482200 0.493300
vt 0.380100 0.594100
vt 0.403100 0.614500
vt 0.420300 0.592800
vt 0.326100 0.062000
vt 0.365900 0.036000
vt 0.414000 0.016100
vt 0.456000 0.039700
vt 0.489700 0.073900
vt 0.402700 0.015700
vt 0.403000 0.008200
vt 0.414300 0.008700
vt 0.298100 0.143300
vt 0.289900 0.379300
vt 0.352100 0.391800
vt 0.360500 0.156700
vt 0.400800 0.384500
vt 0.405300 0.163000
vt 0.460900 0.158100
vt 0.458800 0.392400
vt 0.510500 0.158800
vt 0.511400 0.384200
vt 0.310000 0.480800
vt 0.355400 0.494600
vt 0.399500 0.483800
vt 0.441100 0.496300
vt 0.482200 0.493300
vt 0.380100 0.594100
vt 0.403100 0.614500
vt 0.420300 0.592800
vt 0.326100 0.062000
vt 0.365900 0.036000
vt 0.456000 0.039700
vt 0.414000 0.016100
vt 0.489700 0.073900
vt 0.402700 0.015700
vt 0.414300 0.008700
vt 0.403000 0.008200
vt 0.298100 0.143300
vt 0.360500 0.156700
vt 0.352100 0.391800
vt 0.289900 0.379300
vt 0.405300 0.163000
vt 0.400800 0.384500
vt 0.460900 0.158100
vt 0.458800 0.392400
vt 0.510500 0.158800
vt 0.511400 0.384200
vt 0.355400 0.494600
vt 0.310000 0.480800
vt 0.399500 0.483800
vt 0.441100 0.496300
vt 0.482200 0.493300
vt 0.380100 0.594100
vt 0.403100 0.614500
vt 0.420300 0.592800
vt 0.326100 0.062000
vt 0.365900 0.036000
vt 0.414000 0.016100
vt 0.456000 0.039700
vt 0.489700 0.073900
vt 0.402700 0.015700
vt 0.403000 0.008200
vt 0.414300 0.008700
vt 0.298100 0.143300
vt 0.360500 0.156700
vt 0.352100 0.391800
vt 0.289900 0.379300
vt 0.405300 0.163000
vt 0.400800 0.384500
vt 0.460900 0.158100
vt 0.458800 0.392400
vt 0.510500 0.158800
vt 0.511400 0.384200
vt 0.355400 0.494600
vt 0.310000 0.480800
vt 0.399500 0.483800
vt 0.441100 0.496300
vt 0.482200 0.493300
vt 0.380100 0.594100
vt 0.403100 0.614500
vt 0.420300 0.592800
vt 0.326100 0.062000
vt 0.365900 0.036000
vt 0.414000 0.016100
vt 0.456000 0.039700
vt 0.489700 0.073900
vt 0.402700 0.015700
vt 0.403000 0.008200
vt 0.414300 0.008700
vt 0.298100 0.143300
vt 0.289900 0.379300
vt 0.352100 0.391800
vt 0.360500 0.156700
vt 0.400800 0.384500
vt 0.405300 0.163000
vt 0.460900 0.158100
vt 0.458800 0.392400
vt 0.510500 0.158800
vt 0.511400 0.384200
vt 0.310000 0.480800
vt 0.355400 0.494600
vt 0.399500 0.483800
vt 0.441100 0.496300
vt 0.482200 0.493300
vt 0.380100 0.594100
vt 0.403100 0.614500
vt 0.420300 0.592800
vt 0.326100 0.062000
vt 0.365900 0.036000
vt 0.456000 0.039700
vt 0.414000 0.016100
vt 0.489700 0.073900
vt 0.402700 0.015700
vt 0.414300 0.008700
vt 0.403000 0.008200
vt 0.298100 0.143300
vt 0.289900 0.379300
vt 0.352100 0.391800
vt 0.360500 0.156700
vt 0.400800 0.384500
vt 0.405300 0.163000
vt 0.460900 0.158100
vt 0.458800 0.392400
vt 0.510500 0.158800
vt 0.511400 0.384200
vt 0.310000 0.480800
vt 0.355400 0.494600
vt 0.399500 0.483800
vt 0.441100 0.496300
vt 0.482200 0.493300
vt 0.380100 0.594100
vt 0.403100 0.614500
vt 0.420300 0.592800
vt 0.326100 0.062000
vt 0.365900 0.036000
vt 0.456000 0.039700
vt 0.414000 0.016100
vt 0.489700 0.073900
vt 0.402700 0.015700
vt 0.414300 0.008700
vt 0.403000 0.008200
vt 0.298100 0.143300
vt 0.360500 0.156700
vt 0.352100 0.391800
vt 0.289900 0.379300
vt 0.405300 0.163000
vt 0.400800 0.384500
vt 0.460900 0.158100
vt 0.458800 0.392400
vt 0.510500 0.158800
vt 0.511400 0.384200
vt 0.355400 0.494600
vt 0.310000 0.480800
vt 0.399500 0.483800
vt 0.441100 0.496300
vt 0.482200 0.493300
vt 0.380100 0.594100
vt 0.403100 0.614500
vt 0.420300 0.592800
vt 0.326100 0.062000
vt 0.365900 0.036000
vt 0.414000 0.016100
vt 0.456000 0.039700
vt 0.489700 0.073900
vt 0.402700 0.015700
vt 0.403000 0.008200
vt 0.414300 0.008700
vt 0.298100 0.143300
vt 0.289900 0.379300
vt 0.352100 0.391800
vt 0.360500 0.156700
vt 0.400800 0.384500
vt 0.405300 0.163000
vt 0.460900 0.158100
vt 0.458800 0.392400
vt 0.510500 0.158800
vt 0.511400 0.384200
vt 0.310000 0.480800
vt 0.355400 0.494600
vt 0.399500 0.483800
vt 0.441100 0.496300
vt 0.482200 0.493300
vt 0.380100 0.594100
vt 0.403100 0.614500
vt 0.420300 0.592800
vt 0.326100 0.062000
vt 0.365900 0.036000
vt 0.456000 0.039700
vt 0.414000 0.016100
vt 0.489700 0.073900
vt 0.402700 0.015700
vt 0.414300 0.008700
vt 0.403000 0.008200
vt 0.298100 0.143300
vt 0.360500 0.156700
vt 0.352100 0.391800
vt 0.289900 0.379300
vt 0.405300 0.163000
vt 0.400800 0.384500
vt 0.460900 0.158100
vt 0.458800 0.392400
vt 0.510500 0.158800
vt 0.511400 0.384200
vt 0.355400 0.494600
vt 0.310000 0.480800
vt 0.399500 0.483800
vt 0.441100 0.496300
vt 0.482200 0.493300
vt 0.380100 0.594100
vt 0.403100 0.614500
vt 0.420300 0.592800
vt 0.326100 0.062000
vt 0.365900 0.036000
vt 0.414000 0.016100
vt 0.456000 0.039700
vt 0.489700 0.073900
vt 0.402700 0.015700
vt 0.403000 0.008200
vt 0.414300 0.008700
vt 0.758300 0.491800
vt 0.840400 0.612900
vt 0.758300 0.627800
vt 0.676200 0.612900
vt 0.840400 0.612900
vt 0.758300 0.627800
vt 0.676200 0.612900
vt 0.840400 0.612900
vt 0.758300 0.627800
vt 0.676200 0.612900
vt 0.857900 0.732100
vt 0.758300 0.732000
vt 0.658700 0.732100
vt 0.857900 0.732100
vt 0.758300 0.732000
vt 0.658700 0.732100
vt 0.857900 0.732100
vt 0.758300 0.732000
vt 0.658700 0.732100
vt 0.758300 0.979800
vt 0.758300 0.903100
vt 0.796900 0.912600
vt 0.719800 0.912600
vt 0.758300 0.903100
vt 0.796900 0.912600
vt 0.719800 0.912600
vt 0.758300 0.903100
vt 0.796900 0.912600
vt 0.719800 0.912600
vt 0.841400 0.835400
vt 0.758300 0.821400
vt 0.675200 0.835400
vt 0.841400 0.835400
vt 0.758300 0.821400
vt 0.675200 0.835400
vt 0.841400 0.835400
vt 0.758300 0.821400
vt 0.675200 0.835400
vt 0.758300 0.491800
vt 0.840400 0.612900
vt 0.758300 0.627800
vt 0.676200 0.612900
vt 0.840400 0.612900
vt 0.758300 0.627800
vt 0.676200 0.612900
vt 0.840400 0.612900
vt 0.758300 0.627800
vt 0.676200 0.612900
vt 0.857900 0.732100
vt 0.758300 0.732000
vt 0.658700 0.732100
vt 0.857900 0.732100
vt 0.758300 0.732000
vt 0.658700 0.732100
vt 0.857900 0.732100
vt 0.758300 0.732000
vt 0.658700 0.732100
vt 0.758300 0.979800
vt 0.758300 0.903100
vt 0.796900 0.912600
vt 0.719800 0.912600
vt 0.758300 0.903100
vt 0.796900 0.912600
vt 0.719800 0.912600
vt 0.758300 0.903100
vt 0.796900 0.912600
vt 0.719800 0.912600
vt 0.841400 0.835400
vt 0.758300 0.821400
vt 0.675200 0.835400
vt 0.841400 0.835400
vt 0.758300 0.821400
vt 0.675200 0.835400
vt 0.841400 0.835400
vt 0.758300 0.821400
vt 0.675200 0.835400
vt 0.758300 0.491800
vt 0.840400 0.612900
vt 0.758300 0.627800
vt 0.676200 0.612900
vt 0.840400 0.612900
vt 0.758300 0.627800
vt 0.676200 0.612900
vt 0.840400 0.612900
vt 0.758300 0.627800
vt 0.676200 0.612900
vt 0.857900 0.732100
vt 0.758300 0.732000
vt 0.658700 0.732100
vt 0.857900 0.732100
vt 0.758300 0.732000
vt 0.658700 0.732100
vt 0.857900 0.732100
vt 0.758300 0.732000
vt 0.658700 0.732100
vt 0.758300 0.979800
vt 0.758300 0.903100
vt 0.796900 0.912600
vt 0.719800 0.912600
vt 0.758300 0.903100
vt 0.796900 0.912600
vt 0.719800 0.912600
vt 0.758300 0.903100
vt 0.796900 0.912600
vt 0.719800 0.912600
vt 0.841400 0.835400
vt 0.758300 0.821400
vt 0.675200 0.835400
vt 0.841400 0.835400
vt 0.758300 0.821400
vt 0.675200 0.835400
vt 0.841400 0.835400
vt 0.758300 0.821400
vt 0.675200 0.835400
vt 0.298100 0.143300
vt 0.289900 0.379300
vt 0.352100 0.391800
vt 0.360500 0.156700
vt 0.400800 0.384500
vt 0.405300 0.163000
vt 0.460900 0.158100
vt 0.458800 0.392400
vt 0.510500 0.158800
vt 0.511400 0.384200
vt 0.310000 0.480800
vt 0.355400 0.494600
vt 0.399500 0.483800
vt 0.441100 0.496300
vt 0.482200 0.493300
vt 0.380100 0.594100
vt 0.403100 0.614500
vt 0.420300 0.592800
vt 0.326100 0.062000
vt 0.365900 0.036000
vt 0.456000 0.039700
vt 0.414000 0.016100
vt 0.489700 0.073900
vt 0.402700 0.015700
vt 0.414300 0.008700
vt 0.403000 0.008200
vt 0.298100 0.143300
vt 0.360500 0.156700
vt 0.352100 0.391800
vt 0.289900 0.379300
vt 0.405300 0.163000
vt 0.400800 0.384500
vt 0.460900 0.158100
vt 0.458800 0.392400
vt 0.510500 0.158800
vt 0.511400 0.384200
vt 0.355400 0.494600
vt 0.310000 0.480800
vt 0.399500 0.483800
vt 0.441100 0.496300
vt 0.482200 0.493300
vt 0.380100 0.594100
vt 0.403100 0.614500
vt 0.420300 0.592800
vt 0.326100 0.062000
vt 0.365900 0.036000
vt 0.414000 0.016100
vt 0.456000 0.039700
vt 0.489700 0.073900
vt 0.402700 0.015700
vt 0.403000 0.008200
vt 0.414300 0.008700
vn -0.7057 0.0532 0.7065
vn 0.7076 0.0602 0.7040
vn 0.6780 -0.0487 0.7334
vn -0.6478 -0.0994 0.7553
vn 0.7072 0.0613 -0.7044
vn 0.6779 -0.0325 -0.7344
vn -0.7053 0.0542 -0.7068
vn -0.6480 -0.0972 -0.7554
vn -0.0912 0.1903 0.9775
vn 0.6325 -0.2958 0.7159
vn -0.7316 0.1873 0.6555
vn 0.6715 -0.0917 -0.7353
vn -0.0311 0.2206 -0.9749
vn -0.6239 0.3454 -0.7010
vn -0.5073 -0.2986 -0.8084
vn 0.6973 0.4556 -0.5534
vn -0.6976 -0.3259 0.6381
vn 0.4490 0.4132 0.7923
vn -0.3069 -0.5771 -0.7568
vn 0.6515 0.5351 -0.5378
vn -0.7245 -0.2856 0.6273
vn 0.2335 0.6399 0.7321
vn 0.6913 -0.3549 0.6294
vn -0.6596 0.1042 0.7444
vn 0.7238 0.0129 -0.6899
vn -0.5678 0.5052 -0.6500
vn 0.2508 0.9131 0.3215
vn -0.7004 0.5322 -0.4756
vn -0.9261 -0.3055 -0.2213
vn -0.4458 -0.6507 0.6147
vn -0.4387 -0.7126 0.5474
vn -0.8240 0.1032 -0.5571
vn 0.8821 0.0913 0.4622
vn 0.8482 0.0103 0.5296
vn -0.2330 0.4636 -0.8548
vn 0.3835 0.7624 -0.5212
vn -0.3527 -0.8414 0.4094
vn -0.8686 0.1752 -0.4636
vn 0.8440 -0.0126 0.5362
vn 0.2808 0.9003 -0.3326
vn -0.4088 0.3657 0.8362
vn 0.8328 -0.5143 0.2046
vn -0.0465 -0.5501 -0.8338
vn 0.1845 -0.7371 -0.6502
vn 0.8442 -0.1980 0.4982
vn -0.8079 0.3421 -0.4799
vn -0.8197 0.3212 -0.4742
vn -0.0056 0.6124 0.7905
vn -0.1104 0.7821 0.6133
vn 0.0622 -0.9024 -0.4264
vn 0.9196 -0.0784 0.3851
vn -0.8608 0.2821 -0.4237
vn 0.0365 0.9186 0.3936
vn 0.3638 0.2054 -0.9085
vn 0.9018 0.0006 -0.4322
vn -0.2779 -0.5074 -0.8156
vn -0.0059 -0.5470 -0.8371
vn 0.9650 0.2334 -0.1198
vn -0.9686 -0.1002 0.2276
vn -0.9773 -0.1297 0.1673
vn 0.2868 0.5308 0.7975
vn -0.0029 0.6096 0.7927
vn 0.0569 -0.6616 -0.7477
vn 0.9207 0.3240 -0.2174
vn -0.9747 -0.1584 0.1577
vn -0.0473 0.7740 0.6314
vn -0.3638 0.5589 -0.7452
vn -0.0732 -0.4533 0.8883
vn 0.7474 -0.6406 -0.1762
vn 0.6371 -0.7648 0.0955
vn -0.3430 -0.1388 0.9290
vn 0.1787 0.3309 -0.9266
vn 0.2932 0.2364 -0.9264
vn -0.7400 0.6715 0.0397
vn -0.6136 0.7883 -0.0464
vn 0.4306 -0.9026 -0.0037
vn -0.2522 -0.0555 0.9661
vn 0.3022 0.2481 -0.9204
vn -0.3658 0.9294 0.0493
vn 0.9368 0.2054 0.2832
vn 0.0018 -0.6546 0.7560
vn 0.9330 0.2214 0.2837
vn 0.8721 -0.1279 0.4724
vn -0.4339 -0.5649 0.7019
vn 0.3121 0.7363 -0.6003
vn 0.3033 0.6616 -0.6858
vn -0.9409 -0.1201 -0.3167
vn -0.9358 0.1401 -0.3234
vn 0.8574 -0.4561 0.2382
vn -0.4255 -0.2528 0.8689
vn 0.2586 0.5884 -0.7661
vn -0.8628 0.5001 -0.0742
vn 0.6419 0.6360 0.4283
vn 0.7634 0.4516 0.4618
vn 0.6543 0.3993 0.6422
vn 0.7253 0.2242 0.6509
vn 0.8143 0.3220 0.4830
vn 0.6133 0.3729 0.6963
vn 0.6735 0.2284 0.7030
vn 0.6183 0.3545 0.7015
vn 0.6905 0.2571 0.6761
vn 0.5147 0.2714 0.8133
vn 0.5715 0.2615 0.7778
vn 0.7416 0.1199 0.6600
vn 0.8350 0.1809 0.5196
vn 0.7154 0.1298 0.6866
vn 0.8489 0.1892 0.4935
vn 0.8183 0.2064 0.5365
vn 0.7906 0.1031 0.6036
vn 0.6581 0.1335 0.7410
vn 0.6846 0.1643 0.7102
vn 0.7136 0.4940 0.4967
vn 0.5337 0.4173 0.7355
vn 0.5991 0.4632 0.6531
vn 0.6875 0.4836 0.5417
vn 0.6355 0.4152 0.6510
vn 0.5278 0.4273 0.7341
vn 0.5481 0.4588 0.6993
vn -0.7634 -0.4516 -0.4618
vn -0.8143 -0.3220 -0.4830
vn -0.7252 -0.2242 -0.6510
vn -0.6544 -0.3993 -0.6422
vn -0.6735 -0.2284 -0.7030
vn -0.6133 -0.3729 -0.6963
vn -0.6182 -0.3545 -0.7015
vn -0.6905 -0.2571 -0.6761
vn -0.5147 -0.2713 -0.8133
vn -0.5714 -0.2615 -0.7779
vn -0.8351 -0.1809 -0.5195
vn -0.7416 -0.1199 -0.6600
vn -0.7154 -0.1298 -0.6866
vn -0.8489 -0.1892 -0.4935
vn -0.8182 -0.2064 -0.5365
vn -0.7907 -0.1030 -0.6035
vn -0.6581 -0.1335 -0.7410
vn -0.6846 -0.1643 -0.7102
vn -0.7136 -0.4940 -0.4967
vn -0.5337 -0.4173 -0.7356
vn -0.6875 -0.4836 -0.5418
vn -0.5992 -0.4633 -0.6530
vn -0.6355 -0.4152 -0.6510
vn -0.5280 -0.4273 -0.7339
vn -0.5482 -0.4589 -0.6992
vn 0.9023 -0.4178 0.1061
vn 0.9345 -0.3048 0.1837
vn 0.8654 -0.3202 0.3854
vn 0.8237 -0.4825 0.2979
vn 0.8262 -0.3602 0.4331
vn 0.7902 -0.4948 0.3615
vn 0.7931 -0.4803 0.3746
vn 0.8421 -0.3682 0.3941
vn 0.7013 -0.4856 0.5219
vn 0.7476 -0.4473 0.4909
vn 0.9387 -0.1963 0.2832
vn 0.8660 -0.2314 0.4433
vn 0.8474 -0.2584 0.4638
vn 0.9484 -0.1880 0.2553
vn 0.9300 -0.2299 0.2868
vn 0.8995 -0.1793 0.3985
vn 0.8033 -0.3004 0.5143
vn 0.8280 -0.3061 0.4699
vn 0.8679 -0.4820 0.1199
vn 0.7282 -0.5698 0.3808
vn 0.8498 -0.5002 0.1664
vn 0.7828 -0.5553 0.2808
vn 0.8098 -0.5046 0.2994
vn 0.7239 -0.5790 0.3751
vn 0.7419 -0.5850 0.3276
vn -0.9023 0.4178 -0.1061
vn -0.8237 0.4825 -0.2979
vn -0.8654 0.3202 -0.3854
vn -0.9345 0.3048 -0.1837
vn -0.7902 0.4948 -0.3615
vn -0.8262 0.3602 -0.4332
vn -0.7931 0.4803 -0.3746
vn -0.8421 0.3682 -0.3941
vn -0.7013 0.4856 -0.5219
vn -0.7476 0.4473 -0.4909
vn -0.8660 0.2314 -0.4433
vn -0.9388 0.1962 -0.2832
vn -0.8474 0.2584 -0.4638
vn -0.9484 0.1880 -0.2553
vn -0.9300 0.2299 -0.2867
vn -0.8995 0.1793 -0.3985
vn -0.8033 0.3004 -0.5143
vn -0.8279 0.3061 -0.4699
vn -0.8680 0.4820 -0.1199
vn -0.7282 0.5698 -0.3808
vn -0.7829 0.5552 -0.2807
vn -0.8498 0.5002 -0.1664
vn -0.8098 0.5046 -0.2994
vn -0.7240 0.5790 -0.3749
vn -0.7419 0.5850 -0.3275
vn -0.7419 0.5850 -0.3276
vn 0.6428 -0.4902 -0.5886
vn 0.7212 -0.3733 -0.5835
vn 0.8397 -0.3604 -0.4061
vn 0.7490 -0.5262 -0.4026
vn 0.8549 -0.3911 -0.3410
vn 0.7795 -0.5284 -0.3364
vn 0.7913 -0.5129 -0.3329
vn 0.8337 -0.4047 -0.3757
vn 0.8526 -0.4936 -0.1716
vn 0.8552 -0.4634 -0.2321
vn 0.8000 -0.2558 -0.5427
vn 0.8838 -0.2664 -0.3846
vn 0.8895 -0.2892 -0.3538
vn 0.7835 -0.2515 -0.5682
vn 0.7983 -0.2878 -0.5290
vn 0.8672 -0.2229 -0.4453
vn 0.9039 -0.3210 -0.2828
vn 0.8837 -0.3338 -0.3280
vn 0.6346 -0.5489 -0.5441
vn 0.7591 -0.5945 -0.2653
vn 0.6609 -0.5602 -0.4994
vn 0.7125 -0.5961 -0.3703
vn 0.7423 -0.5466 -0.3877
vn 0.7521 -0.6038 -0.2641
vn 0.7255 -0.6165 -0.3060
vn -0.6429 0.4902 0.5886
vn -0.7490 0.5262 0.4026
vn -0.8398 0.3604 0.4061
vn -0.7212 0.3733 0.5836
vn -0.7795 0.5284 0.3364
vn -0.8549 0.3911 0.3410
vn -0.7913 0.5129 0.3329
vn -0.8337 0.4047 0.3757
vn -0.8526 0.4936 0.1716
vn -0.8552 0.4634 0.2321
vn -0.8838 0.2664 0.3846
vn -0.8000 0.2557 0.5428
vn -0.8895 0.2891 0.3538
vn -0.7835 0.2515 0.5682
vn -0.7984 0.2878 0.5288
vn -0.8673 0.2229 0.4452
vn -0.9039 0.3210 0.2828
vn -0.8837 0.3338 0.3280
vn -0.6346 0.5489 0.5441
vn -0.7591 0.5945 0.2653
vn -0.7125 0.5961 0.3701
vn -0.6609 0.5602 0.4994
vn -0.7423 0.5466 0.3876
vn -0.7522 0.6038 0.2639
vn -0.7256 0.6165 0.3057
vn -0.8588 0.4568 -0.2320
vn -0.7728 0.4657 -0.4311
vn -0.8286 0.2913 -0.4782
vn -0.9006 0.3316 -0.2810
vn -0.7378 0.4591 -0.4948
vn -0.7854 0.3148 -0.5329
vn -0.7419 0.4422 -0.5041
vn -0.8008 0.3334 -0.4975
vn -0.6487 0.4034 -0.6453
vn -0.6986 0.3780 -0.6075
vn -0.8369 0.1914 -0.5128
vn -0.9140 0.2028 -0.3513
vn -0.8157 0.2109 -0.5387
vn -0.9246 0.2025 -0.3226
vn -0.9021 0.2337 -0.3627
vn -0.8755 0.1549 -0.4577
vn -0.7674 0.2353 -0.5964
vn -0.7918 0.2538 -0.5555
vn -0.8185 0.5124 -0.2598
vn -0.6690 0.5215 -0.5297
vn -0.7256 0.5366 -0.4308
vn -0.7984 0.5170 -0.3087
vn -0.7569 0.4854 -0.4375
vn -0.6640 0.5314 -0.5261
vn -0.6818 0.5503 -0.4820
vn 0.8588 -0.4568 0.2320
vn 0.9006 -0.3316 0.2810
vn 0.8286 -0.2913 0.4782
vn 0.7728 -0.4657 0.4312
vn 0.7854 -0.3148 0.5329
vn 0.7378 -0.4591 0.4948
vn 0.7419 -0.4422 0.5041
vn 0.8009 -0.3334 0.4974
vn 0.6486 -0.4034 0.6454
vn 0.6986 -0.3780 0.6075
vn 0.9140 -0.2028 0.3513
vn 0.8369 -0.1914 0.5128
vn 0.8157 -0.2109 0.5387
vn 0.9246 -0.2025 0.3226
vn 0.9021 -0.2337 0.3626
vn 0.8755 -0.1549 0.4577
vn 0.7674 -0.2352 0.5964
vn 0.7918 -0.2538 0.5555
vn 0.8185 -0.5124 0.2598
vn 0.6690 -0.5215 0.5297
vn 0.7984 -0.5171 0.3087
vn 0.7256 -0.5366 0.4309
vn 0.7569 -0.4854 0.4375
vn 0.6639 -0.5314 0.5262
vn 0.6817 -0.5503 0.4822
vn -0.9051 -0.4248 -0.0207
vn -0.9503 -0.3025 -0.0740
vn -0.9153 -0.2855 -0.2842
vn -0.8588 -0.4577 -0.2303
vn -0.8843 -0.3167 -0.3431
vn -0.8362 -0.4593 -0.2996
vn -0.8413 -0.4431 -0.3097
vn -0.8935 -0.3309 -0.3037
vn -0.7750 -0.4235 -0.4690
vn -0.8158 -0.3917 -0.4255
vn -0.9715 -0.1805 -0.1537
vn -0.9260 -0.1891 -0.3269
vn -0.9108 -0.2121 -0.3541
vn -0.9764 -0.1768 -0.1237
vn -0.9632 -0.2129 -0.1638
vn -0.9519 -0.1453 -0.2698
vn -0.8754 -0.2447 -0.4168
vn -0.8924 -0.2577 -0.3705
vn -0.8731 -0.4851 -0.0495
vn -0.7778 -0.5286 -0.3399
vn -0.8627 -0.4956 -0.1005
vn -0.8152 -0.5309 -0.2314
vn -0.8452 -0.4788 -0.2374
vn -0.7726 -0.5384 -0.3364
vn -0.7824 -0.5520 -0.2883
vn 0.9051 0.4248 0.0207
vn 0.8588 0.4577 0.2303
vn 0.9153 0.2855 0.2842
vn 0.9503 0.3025 0.0740
vn 0.8362 0.4593 0.2996
vn 0.8843 0.3166 0.3431
vn 0.8413 0.4431 0.3098
vn 0.8935 0.3309 0.3038
vn 0.7750 0.4235 0.4690
vn 0.8158 0.3917 0.4255
vn 0.9259 0.1891 0.3269
vn 0.9715 0.1805 0.1537
vn 0.9108 0.2121 0.3541
vn 0.9765 0.1768 0.1237
vn 0.9632 0.2130 0.1637
vn 0.9519 0.1453 0.2698
vn 0.8754 0.2447 0.4169
vn 0.8923 0.2578 0.3705
vn 0.8731 0.4851 0.0495
vn 0.7778 0.5286 0.3399
vn 0.8152 0.5309 0.2314
vn 0.8627 0.4956 0.1005
vn 0.8452 0.4788 0.2374
vn 0.7726 0.5384 0.3365
vn 0.7825 0.5520 0.2882
vn 0.7825 0.5520 0.2881
vn 0.1504 -0.7852 -0.6007
vn 0.2250 -0.6968 -0.6811
vn 0.4248 -0.6688 -0.6101
vn 0.3416 -0.7967 -0.4985
vn 0.4725 -0.6836 -0.5562
vn 0.4044 -0.7891 -0.4624
vn 0.4171 -0.7770 -0.4715
vn 0.4343 -0.6999 -0.5670
vn 0.5613 -0.7321 -0.3860
vn 0.5307 -0.7212 -0.4452
vn 0.3208 -0.5983 -0.7342
vn 0.4795 -0.5880 -0.6514
vn 0.5003 -0.6022 -0.6221
vn 0.2929 -0.5968 -0.7470
vn 0.3253 -0.6238 -0.7107
vn 0.4340 -0.5597 -0.7060
vn 0.5508 -0.6164 -0.5628
vn 0.5075 -0.6350 -0.5825
vn 0.1653 -0.8252 -0.5402
vn 0.4243 -0.8255 -0.3723
vn 0.2117 -0.8306 -0.5150
vn 0.3257 -0.8428 -0.4285
vn 0.3433 -0.8097 -0.4759
vn 0.4188 -0.8319 -0.3642
vn 0.3721 -0.8478 -0.3779
vn -0.1504 0.7852 0.6007
vn -0.3416 0.7967 0.4985
vn -0.4248 0.6688 0.6101
vn -0.2251 0.6968 0.6810
vn -0.4045 0.7891 0.4624
vn -0.4725 0.6837 0.5562
vn -0.4171 0.7770 0.4715
vn -0.4343 0.6999 0.5670
vn -0.5613 0.7321 0.3860
vn -0.5306 0.7213 0.4453
vn -0.4795 0.5880 0.6515
vn -0.3207 0.5982 0.7343
vn -0.5003 0.6022 0.6221
vn -0.2929 0.5968 0.7470
vn -0.3252 0.6238 0.7108
vn -0.4338 0.5596 0.7062
vn -0.5508 0.6163 0.5628
vn -0.5075 0.6350 0.5825
vn -0.1652 0.8251 0.5402
vn -0.4242 0.8255 0.3723
vn -0.3257 0.8427 0.4286
vn -0.2117 0.8306 0.5150
vn -0.3434 0.8097 0.4759
vn -0.4188 0.8319 0.3642
vn -0.3720 0.8478 0.3780
vn 0.0000 0.9848 0.1737
vn -0.0000 0.5144 -0.8575
vn -0.8087 0.4334 -0.3977
vn -0.8087 0.2712 0.5219
vn 0.0000 0.1901 0.9818
vn 0.8087 0.2712 0.5219
vn 0.8087 0.4334 -0.3977
vn 0.0000 0.1636 -0.9865
vn -0.8660 0.0767 -0.4942
vn -0.8660 -0.0969 0.4906
vn 0.0000 -0.1837 0.9830
vn 0.8660 -0.0969 0.4906
vn 0.8660 0.0767 -0.4942
vn 0.0000 -0.9848 -0.1737
vn -0.7347 -0.4478 -0.5097
vn 0.0000 -0.3741 -0.9274
vn -0.7347 -0.5951 0.3258
vn 0.0000 -0.6687 0.7435
vn 0.7347 -0.5951 0.3258
vn 0.7347 -0.4477 -0.5097
vn 0.0000 -0.1726 -0.9850
vn -0.8141 -0.2542 -0.5221
vn -0.8141 -0.4174 0.4037
vn -0.0000 -0.4991 0.8666
vn 0.8141 -0.4174 0.4037
vn 0.8141 -0.2542 -0.5221
vn -0.0000 0.9962 0.0872
vn -0.0000 0.4377 -0.8991
vn -0.8087 0.3970 -0.4340
vn -0.8087 0.3156 0.4963
vn -0.0000 0.2750 0.9615
vn 0.8087 0.3157 0.4963
vn 0.8087 0.3971 -0.4340
vn -0.0000 0.0770 -0.9970
vn -0.8660 0.0334 -0.4990
vn -0.8660 -0.0538 0.4972
vn -0.0000 -0.0973 0.9953
vn 0.8660 -0.0538 0.4972
vn 0.8660 0.0334 -0.4990
vn -0.0000 -0.9962 -0.0871
vn -0.7347 -0.4905 -0.4687
vn -0.0000 -0.4535 -0.8913
vn -0.7347 -0.5644 0.3764
vn -0.0000 -0.6014 0.7990
vn 0.7347 -0.5644 0.3764
vn 0.7347 -0.4905 -0.4687
vn -0.0000 -0.2578 -0.9662
vn -0.8141 -0.2987 -0.4980
vn -0.8141 -0.3807 0.4385
vn -0.0000 -0.4216 0.9068
vn 0.8141 -0.3807 0.4385
vn 0.8141 -0.2987 -0.4980
vn 0.2588 0.9659 -0.0000
vn 0.0926 0.3455 -0.9338
vn -0.6886 0.5548 -0.4669
vn -0.6886 0.5548 0.4669
vn 0.0926 0.3455 0.9338
vn 0.8738 0.1362 0.4669
vn 0.8738 0.1362 -0.4669
vn -0.0026 -0.0099 -0.9999
vn -0.8391 0.2143 -0.5000
vn -0.8391 0.2143 0.5000
vn -0.0026 -0.0099 0.9999
vn 0.8338 -0.2340 0.5000
vn 0.8338 -0.2340 -0.5000
vn -0.2588 -0.9659 -0.0000
vn -0.8467 -0.3213 -0.4242
vn -0.1370 -0.5114 -0.8484
vn -0.8467 -0.3213 0.4242
vn -0.1370 -0.5114 0.8483
vn 0.5726 -0.7016 0.4242
vn 0.5726 -0.7015 -0.4242
vn -0.0883 -0.3294 -0.9401
vn -0.8746 -0.1187 -0.4700
vn -0.8746 -0.1187 0.4700
vn -0.0883 -0.3294 0.9401
vn 0.6981 -0.5401 0.4700
vn 0.6981 -0.5401 -0.4700
vn 0.3838 -0.4239 -0.8204
vn 0.4646 -0.3090 -0.8299
vn 0.6364 -0.3176 -0.7029
vn 0.5445 -0.4820 -0.6864
vn 0.6711 -0.3557 -0.6505
vn 0.5954 -0.4920 -0.6352
vn 0.6084 -0.4771 -0.6342
vn 0.6389 -0.3650 -0.6772
vn 0.7212 -0.4771 -0.5023
vn 0.7047 -0.4402 -0.5565
vn 0.5579 -0.1975 -0.8060
vn 0.6895 -0.2271 -0.6878
vn 0.7041 -0.2533 -0.6634
vn 0.5341 -0.1902 -0.8238
vn 0.5596 -0.2310 -0.7959
vn 0.6555 -0.1766 -0.7343
vn 0.7400 -0.2932 -0.6053
vn 0.7053 -0.3006 -0.6420
vn 0.3882 -0.4872 -0.7822
vn 0.5970 -0.5658 -0.5688
vn 0.4275 -0.5039 -0.7506
vn 0.5177 -0.5548 -0.6514
vn 0.5423 -0.5039 -0.6723
vn 0.5904 -0.5750 -0.5664
vn 0.5508 -0.5827 -0.5976
vn -0.3838 0.4239 0.8204
vn -0.5445 0.4820 0.6864
vn -0.6364 0.3176 0.7029
vn -0.4646 0.3090 0.8299
vn -0.5954 0.4920 0.6352
vn -0.6711 0.3557 0.6505
vn -0.6084 0.4771 0.6342
vn -0.6389 0.3650 0.6772
vn -0.7212 0.4771 0.5022
vn -0.7047 0.4402 0.5565
vn -0.6895 0.2271 0.6878
vn -0.5579 0.1975 0.8061
vn -0.7041 0.2533 0.6634
vn -0.5341 0.1902 0.8238
vn -0.5596 0.2310 0.7959
vn -0.6555 0.1767 0.7342
vn -0.7400 0.2932 0.6053
vn -0.7052 0.3005 0.6421
vn -0.3882 0.4872 0.7823
vn -0.5970 0.5657 0.5688
vn -0.5178 0.5548 0.6512
vn -0.4275 0.5039 0.7506
vn -0.5423 0.5039 0.6723
vn -0.5905 0.5751 0.5663
vn -0.5508 0.5827 0.5976
s 1
f 1/1/1 2/2/2 3/3/3
f 3/3/3 4/4/4 1/1/1
f 5/5/5 6/6/6 3/7/3
f 3/7/3 2/8/2 5/5/5
f 5/9/5 7/10/7 8/11/8
f 8/11/8 6/12/6 5/9/5
f 1/13/1 4/14/4 8/15/8
f 8/15/8 7/16/7 1/13/1
f 9/17/9 3/3/3 10/18/10
f 10/18/10 11/19/11 9/17/9
f 3/7/3 6/6/6 12/20/12
f 12/20/12 10/21/10 3/7/3
f 6/12/6 13/22/13 14/23/14
f 14/23/14 12/24/12 6/12/6
f 13/22/13 8/11/8 15/25/15
f 15/25/15 16/26/16 13/22/13
f 8/15/8 4/14/4 17/27/17
f 17/27/17 15/28/15 8/15/8
f 4/4/4 9/17/9 18/29/18
f 18/29/18 17/30/17 4/4/4
f 13/31/13 9/32/9 11/33/11
f 11/33/11 14/34/14 13/31/13
f 16/35/16 18/36/18 9/37/9
f 9/37/9 13/38/13 16/35/16
f 16/26/16 15/25/15 19/39/19
f 19/39/19 20/40/20 16/26/16
f 15/28/15 17/27/17 21/41/21
f 21/41/21 19/42/19 15/28/15
f 17/30/17 18/29/18 22/43/22
f 22/43/22 21/44/21 17/30/17
f 18/36/18 16/35/16 20/45/20
f 20/45/20 22/46/22 18/36/18
f 3/3/3 9/17/9 4/4/4
f 8/11/8 13/22/13 6/12/6
f 11/19/11 10/18/10 23/47/23
f 23/47/23 24/48/24 11/19/11
f 10/21/10 12/20/12 25/49/25
f 25/49/25 23/50/23 10/21/10
f 12/24/12 14/23/14 26/51/26
f 26/51/26 25/52/25 12/24/12
f 14/34/14 11/33/11 24/53/24
f 24/53/24 26/54/26 14/34/14
f 24/48/24 23/47/23 27/55/27
f 23/50/23 25/49/25 27/56/27
f 25/52/25 26/51/26 27/57/27
f 26/54/26 24/53/24 27/58/27
f 20/40/20 19/39/19 28/59/28
f 19/42/19 21/41/21 28/60/28
f 21/44/21 22/43/22 28/61/28
f 22/46/22 20/45/20 28/62/28
s 2
f 29/63/29 30/64/30 31/65/31
f 31/65/31 32/66/32 29/63/29
f 30/67/30 33/68/33 34/69/34
f 34/69/34 31/70/31 30/67/30
f 33/71/33 35/72/35 36/73/36
f 36/73/36 34/74/34 33/71/33
f 32/75/32 36/76/36 35/77/35
f 35/77/35 29/78/29 32/75/32
f 32/66/32 31/65/31 37/79/37
f 37/79/37 38/80/38 32/66/32
f 31/70/31 34/69/34 39/81/39
f 39/81/39 37/82/37 31/70/31
f 34/74/34 36/73/36 40/83/40
f 40/83/40 39/84/39 34/74/34
f 36/76/36 32/75/32 38/85/38
f 38/85/38 40/86/40 36/76/36
f 38/80/38 37/79/37 41/87/41
f 37/82/37 39/81/39 41/88/41
f 39/84/39 40/83/40 41/89/41
f 40/86/40 38/85/38 41/90/41
s 3
f 42/91/42 43/92/43 44/93/44
f 44/93/44 45/94/45 42/91/42
f 43/95/43 46/96/46 47/97/47
f 47/97/47 44/98/44 43/95/43
f 46/99/46 48/100/48 49/101/49
f 49/101/49 47/102/47 46/99/46
f 45/103/45 49/104/49 48/105/48
f 48/105/48 42/106/42 45/103/45
f 45/94/45 44/93/44 50/107/50
f 50/107/50 51/108/51 45/94/45
f 44/98/44 47/97/47 52/109/52
f 52/109/52 50/110/50 44/98/44
f 47/102/47 49/101/49 53/111/53
f 53/111/53 52/112/52 47/102/47
f 49/104/49 45/103/45 51/113/51
f 51/113/51 53/114/53 49/104/49
f 51/108/51 50/107/50 54/115/54
f 50/110/50 52/109/52 54/116/54
f 52/112/52 53/111/53 54/117/54
f 53/114/53 51/113/51 54/118/54
s 4
f 55/119/55 56/120/56 57/121/57
f 57/121/57 58/122/58 55/119/55
f 56/123/56 59/124/59 60/125/60
f 60/125/60 57/126/57 56/123/56
f 59/127/59 61/128/61 62/129/62
f 62/129/62 60/130/60 59/127/59
f 58/131/58 62/132/62 61/133/61
f 61/133/61 55/134/55 58/131/58
f 58/122/58 57/121/57 63/135/63
f 63/135/63 64/136/64 58/122/58
f 57/126/57 60/125/60 65/137/65
f 65/137/65 63/138/63 57/126/57
f 60/130/60 62/129/62 66/139/66
f 66/139/66 65/140/65 60/130/60
f 62/132/62 58/131/58 64/141/64
f 64/141/64 66/142/66 62/132/62
f 64/136/64 63/135/63 67/143/67
f 63/138/63 65/137/65 67/144/67
f 65/140/65 66/139/66 67/145/67
f 66/142/66 64/141/64 67/146/67
s 5
f 68/147/68 69/148/69 70/149/70
f 70/149/70 71/150/71 68/147/68
f 69/151/69 72/152/72 73/153/73
f 73/153/73 70/154/70 69/151/69
f 72/155/72 74/156/74 75/157/75
f 75/157/75 73/158/73 72/155/72
f 71/159/71 75/160/75 74/161/74
f 74/161/74 68/162/68 71/159/71
f 71/150/71 70/149/70 76/163/76
f 76/163/76 77/164/77 71/150/71
f 70/154/70 73/153/73 78/165/78
f 78/165/78 76/166/76 70/154/70
f 73/158/73 75/157/75 79/167/79
f 79/167/79 78/168/78 73/158/73
f 75/160/75 71/159/71 77/169/77
f 77/169/77 79/170/79 75/160/75
f 77/164/77 76/163/76 80/171/80
f 76/166/76 78/165/78 80/172/80
f 78/168/78 79/167/79 80/173/80
f 79/170/79 77/169/77 80/174/80
s 6
f 81/175/81 82/176/82 83/177/83
f 83/177/83 84/178/84 81/175/81
f 82/179/82 85/180/85 86/181/86
f 86/181/86 83/182/83 82/179/82
f 85/183/85 87/184/87 88/185/88
f 88/185/88 86/186/86 85/183/85
f 84/187/84 88/188/88 87/189/87
f 87/189/87 81/190/81 84/187/84
f 84/178/84 83/177/83 89/191/89
f 89/191/89 90/192/90 84/178/84
f 83/182/83 86/181/86 91/193/91
f 91/193/91 89/194/89 83/182/83
f 86/186/86 88/185/88 92/195/92
f 92/195/92 91/196/91 86/186/86
f 88/188/88 84/187/84 90/197/90
f 90/197/90 92/198/92 88/188/88
f 90/192/90 89/191/89 93/199/93
f 89/194/89 91/193/91 93/200/93
f 91/196/91 92/195/92 93/201/93
f 92/198/92 90/197/90 93/202/93
s 7
f 94/203/94 95/204/95 96/205/96
f 96/205/96 97/206/97 94/203/94
f 95/204/95 98/207/98 99/208/99
f 99/208/99 96/205/96 95/204/95
f 100/209/100 101/210/101 99/208/99
f 99/208/99 98/207/98 100/209/100
f 102/211/102 103/212/103 101/210/101
f 101/210/101 100/209/100 102/211/102
f 97/206/97 96/205/96 104/213/104
f 104/213/104 105/214/105 97/206/97
f 96/205/96 99/208/99 106/215/106
f 106/215/106 104/213/104 96/205/96
f 99/208/99 101/210/101 107/216/107
f 107/216/107 106/215/106 99/208/99
f 107/216/107 101/210/101 108/217/108
f 105/214/105 104/213/104 109/218/109
f 104/213/104 106/215/106 110/219/110
f 110/219/110 109/218/109 104/213/104
f 106/215/106 107/216/107 111/220/111
f 111/220/111 110/219/110 106/215/106
f 111/220/111 107/216/107 108/217/108
f 94/203/94 112/221/112 95/204/95
f 95/204/95 113/222/113 98/207/98
f 98/207/98 114/223/114 115/224/115
f 115/224/115 100/209/100 98/207/98
f 100/209/100 116/225/116 102/211/102
f 100/209/100 115/224/115 116/225/116
f 112/221/112 113/222/113 95/204/95
f 98/207/98 117/226/117 114/223/114
f 113/222/113 117/226/117 98/207/98
f 101/210/101 103/212/103 108/217/108
f 114/223/114 117/226/117 118/227/118
f 118/227/118 119/228/118 114/223/114
s 8
f 120/229/119 121/230/120 122/231/121
f 122/231/121 123/232/122 120/229/119
f 123/232/122 122/231/121 124/233/123
f 124/233/123 125/234/124 123/232/122
f 126/235/125 125/234/124 124/233/123
f 124/233/123 127/236/126 126/235/125
f 128/237/127 126/235/125 127/236/126
f 127/236/126 129/238/128 128/237/127
f 121/230/120 130/239/129 131/240/130
f 131/240/130 122/231/121 121/230/120
f 122/231/121 131/240/130 132/241/131
f 132/241/131 124/233/123 122/231/121
f 124/233/123 132/241/131 133/242/132
f 133/242/132 127/236/126 124/233/123
f 133/242/132 134/243/133 127/236/126
f 130/239/129 135/244/134 131/240/130
f 131/240/130 135/244/134 136/245/135
f 136/245/135 132/241/131 131/240/130
f 132/241/131 136/245/135 137/246/136
f 137/246/136 133/242/132 132/241/131
f 137/246/136 134/243/133 133/242/132
f 120/229/119 123/232/122 138/247/137
f 123/232/122 125/234/124 139/248/138
f 125/234/124 126/235/125 140/249/139
f 140/249/139 141/250/140 125/234/124
f 126/235/125 128/237/127 142/251/141
f 126/235/125 142/251/141 140/249/139
f 138/247/137 123/232/122 139/248/138
f 125/234/124 141/250/140 143/252/142
f 139/248/138 125/234/124 143/252/142
f 127/236/126 134/243/133 129/238/128
f 141/250/140 144/253/143 145/254/143
f 145/254/143 143/252/142 141/250/140
s 9
f 146/255/144 147/256/145 148/257/146
f 148/257/146 149/258/147 146/255/144
f 149/258/147 148/257/146 150/259/148
f 150/259/148 151/260/149 149/258/147
f 152/261/150 151/260/149 150/259/148
f 150/259/148 153/262/151 152/261/150
f 154/263/152 152/261/150 153/262/151
f 153/262/151 155/264/153 154/263/152
f 147/256/145 156/265/154 157/266/155
f 157/266/155 148/257/146 147/256/145
f 148/257/146 157/266/155 158/267/156
f 158/267/156 150/259/148 148/257/146
f 150/259/148 158/267/156 159/268/157
f 159/268/157 153/262/151 150/259/148
f 159/268/157 160/269/158 153/262/151
f 156/265/154 161/270/159 157/266/155
f 157/266/155 161/270/159 162/271/160
f 162/271/160 158/267/156 157/266/155
f 158/267/156 162/271/160 163/272/161
f 163/272/161 159/268/157 158/267/156
f 163/272/161 160/269/158 159/268/157
f 146/255/144 149/258/147 164/273/162
f 149/258/147 151/260/149 165/274/163
f 151/260/149 152/261/150 166/275/164
f 166/275/164 167/276/165 151/260/149
f 152/261/150 154/263/152 168/277/166
f 152/261/150 168/277/166 166/275/164
f 164/273/162 149/258/147 165/274/163
f 151/260/149 167/276/165 169/278/167
f 165/274/163 151/260/149 169/278/167
f 153/262/151 160/269/158 155/264/153
f 167/276/165 170/279/168 171/280/168
f 171/280/168 169/278/167 167/276/165
s 10
f 172/281/169 173/282/170 174/283/171
f 174/283/171 175/284/172 172/281/169
f 173/282/170 176/285/173 177/286/174
f 177/286/174 174/283/171 173/282/170
f 178/287/175 179/288/176 177/286/174
f 177/286/174 176/285/173 178/287/175
f 180/289/177 181/290/178 179/288/176
f 179/288/176 178/287/175 180/289/177
f 175/284/172 174/283/171 182/291/179
f 182/291/179 183/292/180 175/284/172
f 174/283/171 177/286/174 184/293/181
f 184/293/181 182/291/179 174/283/171
f 177/286/174 179/288/176 185/294/182
f 185/294/182 184/293/181 177/286/174
f 185/294/182 179/288/176 186/295/183
f 183/292/180 182/291/179 187/296/184
f 182/291/179 184/293/181 188/297/185
f 188/297/185 187/296/184 182/291/179
f 184/293/181 185/294/182 189/298/186
f 189/298/186 188/297/185 184/293/181
f 189/298/186 185/294/182 186/295/183
f 172/281/169 190/299/187 173/282/170
f 173/282/170 191/300/188 176/285/173
f 176/285/173 192/301/189 193/302/190
f 193/302/190 178/287/175 176/285/173
f 178/287/175 194/303/191 180/289/177
f 178/287/175 193/302/190 194/303/191
f 190/299/187 191/300/188 173/282/170
f 176/285/173 195/304/192 192/301/189
f 191/300/188 195/304/192 176/285/173
f 179/288/176 181/290/178 186/295/183
f 192/301/189 195/304/192 196/305/193
f 196/305/193 197/306/194 192/301/189
s 11
f 198/307/195 199/308/196 200/309/197
f 200/309/197 201/310/198 198/307/195
f 201/310/198 200/309/197 202/311/199
f 202/311/199 203/312/200 201/310/198
f 204/313/201 203/312/200 202/311/199
f 202/311/199 205/314/202 204/313/201
f 206/315/203 204/313/201 205/314/202
f 205/314/202 207/316/204 206/315/203
f 199/308/196 208/317/205 209/318/206
f 209/318/206 200/309/197 199/308/196
f 200/309/197 209/318/206 210/319/207
f 210/319/207 202/311/199 200/309/197
f 202/311/199 210/319/207 211/320/208
f 211/320/208 205/314/202 202/311/199
f 211/320/208 212/321/209 205/314/202
f 208/317/205 213/322/210 209/318/206
f 209/318/206 213/322/210 214/323/211
f 214/323/211 210/319/207 209/318/206
f 210/319/207 214/323/211 215/324/212
f 215/324/212 211/320/208 210/319/207
f 215/324/212 212/321/209 211/320/208
f 198/307/195 201/310/198 216/325/213
f 201/310/198 203/312/200 217/326/214
f 203/312/200 204/313/201 218/327/215
f 218/327/215 219/328/216 203/312/200
f 204/313/201 206/315/203 220/329/217
f 204/313/201 220/329/217 218/327/215
f 216/325/213 201/310/198 217/326/214
f 203/312/200 219/328/216 221/330/218
f 217/326/214 203/312/200 221/330/218
f 205/314/202 212/321/209 207/316/204
f 219/328/216 222/331/219 223/332/219
f 223/332/219 221/330/218 219/328/216
s 12
f 224/333/220 225/334/221 226/335/222
f 226/335/222 227/336/223 224/333/220
f 225/334/221 228/337/224 229/338/225
f 229/338/225 226/335/222 225/334/221
f 230/339/226 231/340/227 229/338/225
f 229/338/225 228/337/224 230/339/226
f 232/341/228 233/342/229 231/340/227
f 231/340/227 230/339/226 232/341/228
f 227/336/223 226/335/222 234/343/230
f 234/343/230 235/344/231 227/336/223
f 226/335/222 229/338/225 236/345/232
f 236/345/232 234/343/230 226/335/222
f 229/338/225 231/340/227 237/346/233
f 237/346/233 236/345/232 229/338/225
f 237/346/233 231/340/227 238/347/234
f 235/344/231 234/343/230 239/348/235
f 234/343/230 236/345/232 240/349/236
f 240/349/236 239/348/235 234/343/230
f 236/345/232 237/346/233 241/350/237
f 241/350/237 240/349/236 236/345/232
f 241/350/237 237/346/233 238/347/234
f 224/333/220 242/351/238 225/334/221
f 225/334/221 243/352/239 228/337/224
f 228/337/224 244/353/240 245/354/241
f 245/354/241 230/339/226 228/337/224
f 230/339/226 246/355/242 232/341/228
f 230/339/226 245/354/241 246/355/242
f 242/351/238 243/352/239 225/334/221
f 228/337/224 247/356/243 244/353/240
f 243/352/239 247/356/243 228/337/224
f 231/340/227 233/342/229 238/347/234
f 244/353/240 247/356/243 248/357/244
f 248/357/244 249/358/244 244/353/240
s 13
f 250/359/245 251/360/246 252/361/247
f 252/361/247 253/362/248 250/359/245
f 251/360/246 254/363/249 255/364/250
f 255/364/250 252/361/247 251/360/246
f 256/365/251 257/366/252 255/364/250
f 255/364/250 254/363/249 256/365/251
f 258/367/253 259/368/254 257/366/252
f 257/366/252 256/365/251 258/367/253
f 253/362/248 252/361/247 260/369/255
f 260/369/255 261/370/256 253/362/248
f 252/361/247 255/364/250 262/371/257
f 262/371/257 260/369/255 252/361/247
f 255/364/250 257/366/252 263/372/258
f 263/372/258 262/371/257 255/364/250
f 263/372/258 257/366/252 264/373/259
f 261/370/256 260/369/255 265/374/260
f 260/369/255 262/371/257 266/375/261
f 266/375/261 265/374/260 260/369/255
f 262/371/257 263/372/258 267/376/262
f 267/376/262 266/375/261 262/371/257
f 267/376/262 263/372/258 264/373/259
f 250/359/245 268/377/263 251/360/246
f 251/360/246 269/378/264 254/363/249
f 254/363/249 270/379/265 271/380/266
f 271/380/266 256/365/251 254/363/249
f 256/365/251 272/381/267 258/367/253
f 256/365/251 271/380/266 272/381/267
f 268/377/263 269/378/264 251/360/246
f 254/363/249 273/382/268 270/379/265
f 269/378/264 273/382/268 254/363/249
f 257/366/252 259/368/254 264/373/259
f 270/379/265 273/382/268 274/383/269
f 274/383/269 275/384/269 270/379/265
s 14
f 276/385/270 277/386/271 278/387/272
f 278/387/272 279/388/273 276/385/270
f 279/388/273 278/387/272 280/389/274
f 280/389/274 281/390/275 279/388/273
f 282/391/276 281/390/275 280/389/274
f 280/389/274 283/392/277 282/391/276
f 284/393/278 282/391/276 283/392/277
f 283/392/277 285/394/279 284/393/278
f 277/386/271 286/395/280 287/396/281
f 287/396/281 278/387/272 277/386/271
f 278/387/272 287/396/281 288/397/282
f 288/397/282 280/389/274 278/387/272
f 280/389/274 288/397/282 289/398/283
f 289/398/283 283/392/277 280/389/274
f 289/398/283 290/399/284 283/392/277
f 286/395/280 291/400/285 287/396/281
f 287/396/281 291/400/285 292/401/286
f 292/401/286 288/397/282 287/396/281
f 288/397/282 292/401/286 293/402/287
f 293/402/287 289/398/283 288/397/282
f 293/402/287 290/399/284 289/398/283
f 276/385/270 279/388/273 294/403/288
f 279/388/273 281/390/275 295/404/289
f 281/390/275 282/391/276 296/405/290
f 296/405/290 297/406/291 281/390/275
f 282/391/276 284/393/278 298/407/292
f 282/391/276 298/407/292 296/405/290
f 294/403/288 279/388/273 295/404/289
f 281/390/275 297/406/291 299/408/293
f 295/404/289 281/390/275 299/408/293
f 283/392/277 290/399/284 285/394/279
f 297/406/291 300/409/294 301/410/294
f 301/410/294 299/408/293 297/406/291
s 15
f 302/411/295 303/412/296 304/413/297
f 304/413/297 305/414/298 302/411/295
f 305/414/298 304/413/297 306/415/299
f 306/415/299 307/416/300 305/414/298
f 308/417/301 307/416/300 306/415/299
f 306/415/299 309/418/302 308/417/301
f 310/419/303 308/417/301 309/418/302
f 309/418/302 311/420/304 310/419/303
f 303/412/296 312/421/305 313/422/306
f 313/422/306 304/413/297 303/412/296
f 304/413/297 313/422/306 314/423/307
f 314/423/307 306/415/299 304/413/297
f 306/415/299 314/423/307 315/424/308
f 315/424/308 309/418/302 306/415/299
f 315/424/308 316/425/309 309/418/302
f 312/421/305 317/426/310 313/422/306
f 313/422/306 317/426/310 318/427/311
f 318/427/311 314/423/307 313/422/306
f 314/423/307 318/427/311 319/428/312
f 319/428/312 315/424/308 314/423/307
f 319/428/312 316/425/309 315/424/308
f 302/411/295 305/414/298 320/429/313
f 305/414/298 307/416/300 321/430/314
f 307/416/300 308/417/301 322/431/315
f 322/431/315 323/432/316 307/416/300
f 308/417/301 310/419/303 324/433/317
f 308/417/301 324/433/317 322/431/315
f 320/429/313 305/414/298 321/430/314
f 307/416/300 323/432/316 325/434/318
f 321/430/314 307/416/300 325/434/318
f 309/418/302 316/425/309 311/420/304
f 323/432/316 326/435/319 327/436/319
f 327/436/319 325/434/318 323/432/316
s 16
f 328/437/320 329/438/321 330/439/322
f 330/439/322 331/440/323 328/437/320
f 329/438/321 332/441/324 333/442/325
f 333/442/325 330/439/322 329/438/321
f 334/443/326 335/444/327 333/442/325
f 333/442/325 332/441/324 334/443/326
f 336/445/328 337/446/329 335/444/327
f 335/444/327 334/443/326 336/445/328
f 331/440/323 330/439/322 338/447/330
f 338/447/330 339/448/331 331/440/323
f 330/439/322 333/442/325 340/449/332
f 340/449/332 338/447/330 330/439/322
f 333/442/325 335/444/327 341/450/333
f 341/450/333 340/449/332 333/442/325
f 341/450/333 335/444/327 342/451/334
f 339/448/331 338/447/330 343/452/335
f 338/447/330 340/449/332 344/453/336
f 344/453/336 343/452/335 338/447/330
f 340/449/332 341/450/333 345/454/337
f 345/454/337 344/453/336 340/449/332
f 345/454/337 341/450/333 342/451/334
f 328/437/320 346/455/338 329/438/321
f 329/438/321 347/456/339 332/441/324
f 332/441/324 348/457/340 349/458/341
f 349/458/341 334/443/326 332/441/324
f 334/443/326 350/459/342 336/445/328
f 334/443/326 349/458/341 350/459/342
f 346/455/338 347/456/339 329/438/321
f 332/441/324 351/460/343 348/457/340
f 347/456/339 351/460/343 332/441/324
f 335/444/327 337/446/329 342/451/334
f 348/457/340 351/460/343 352/461/344
f 352/461/344 353/462/345 348/457/340
s 17
f 354/463/346 355/464/347 356/465/348
f 356/465/348 357/466/349 354/463/346
f 357/466/349 356/465/348 358/467/350
f 358/467/350 359/468/351 357/466/349
f 360/469/352 359/468/351 358/467/350
f 358/467/350 361/470/353 360/469/352
f 362/471/354 360/469/352 361/470/353
f 361/470/353 363/472/355 362/471/354
f 355/464/347 364/473/356 365/474/357
f 365/474/357 356/465/348 355/464/347
f 356/465/348 365/474/357 366/475/358
f 366/475/358 358/467/350 356/465/348
f 358/467/350 366/475/358 367/476/359
f 367/476/359 361/470/353 358/467/350
f 367/476/359 368/477/360 361/470/353
f 364/473/356 369/478/361 365/474/357
f 365/474/357 369/478/361 370/479/362
f 370/479/362 366/475/358 365/474/357
f 366/475/358 370/479/362 371/480/363
f 371/480/363 367/476/359 366/475/358
f 371/480/363 368/477/360 367/476/359
f 354/463/346 357/466/349 372/481/364
f 357/466/349 359/468/351 373/482/365
f 359/468/351 360/469/352 374/483/366
f 374/483/366 375/484/367 359/468/351
f 360/469/352 362/471/354 376/485/368
f 360/469/352 376/485/368 374/483/366
f 372/481/364 357/466/349 373/482/365
f 359/468/351 375/484/367 377/486/369
f 373/482/365 359/468/351 377/486/369
f 361/470/353 368/477/360 363/472/355
f 375/484/367 378/487/370 379/488/370
f 379/488/370 377/486/369 375/484/367
s 18
f 380/489/371 381/490/372 382/491/373
f 382/491/373 383/492/374 380/489/371
f 381/490/372 384/493/375 385/494/376
f 385/494/376 382/491/373 381/490/372
f 386/495/377 387/496/378 385/494/376
f 385/494/376 384/493/375 386/495/377
f 388/497/379 389/498/380 387/496/378
f 387/496/378 386/495/377 388/497/379
f 383/492/374 382/491/373 390/499/381
f 390/499/381 391/500/382 383/492/374
f 382/491/373 385/494/376 392/501/383
f 392/501/383 390/499/381 382/491/373
f 385/494/376 387/496/378 393/502/384
f 393/502/384 392/501/383 385/494/376
f 393/502/384 387/496/378 394/503/385
f 391/500/382 390/499/381 395/504/386
f 390/499/381 392/501/383 396/505/387
f 396/505/387 395/504/386 390/499/381
f 392/501/383 393/502/384 397/506/388
f 397/506/388 396/505/387 392/501/383
f 397/506/388 393/502/384 394/503/385
f 380/489/371 398/507/389 381/490/372
f 381/490/372 399/508/390 384/493/375
f 384/493/375 400/509/391 401/510/392
f 401/510/392 386/495/377 384/493/375
f 386/495/377 402/511/393 388/497/379
f 386/495/377 401/510/392 402/511/393
f 398/507/389 399/508/390 381/490/372
f 384/493/375 403/512/394 400/509/391
f 399/508/390 403/512/394 384/493/375
f 387/496/378 389/498/380 394/503/385
f 400/509/391 403/512/394 404/513/395
f 404/513/395 405/514/395 400/509/391
s 19
f 406/515/396 407/516/397 408/517/398
f 406/515/396 408/517/398 409/518/399
f 406/515/396 409/519/399 410/520/400
f 406/515/396 410/520/400 411/521/401
f 406/515/396 411/522/401 412/523/402
f 406/515/396 412/523/402 407/524/397
f 413/525/403 414/526/404 408/517/398
f 408/517/398 407/516/397 413/525/403
f 414/526/404 415/527/405 409/518/399
f 409/518/399 408/517/398 414/526/404
f 415/528/405 416/529/406 410/520/400
f 410/520/400 409/519/399 415/528/405
f 416/529/406 417/530/407 411/521/401
f 411/521/401 410/520/400 416/529/406
f 417/531/407 418/532/408 412/523/402
f 412/523/402 411/522/401 417/531/407
f 418/532/408 413/533/403 407/524/397
f 407/524/397 412/523/402 418/532/408
f 419/534/409 420/535/410 421/536/411
f 419/534/409 422/537/412 420/535/410
f 419/534/409 423/538/413 422/539/412
f 419/534/409 424/540/414 423/538/413
f 419/534/409 425/541/415 424/542/414
f 419/534/409 421/543/411 425/541/415
f 426/544/416 427/545/417 414/526/404
f 414/526/404 413/525/403 426/544/416
f 427/545/417 428/546/418 415/527/405
f 415/527/405 414/526/404 427/545/417
f 428/547/418 429/548/419 416/529/406
f 416/529/406 415/528/405 428/547/418
f 429/548/419 430/549/420 417/530/407
f 417/530/407 416/529/406 429/548/419
f 430/550/420 431/551/421 418/532/408
f 418/532/408 417/531/407 430/550/420
f 431/551/421 426/552/416 413/533/403
f 413/533/403 418/532/408 431/551/421
f 426/544/416 421/536/411 420/535/410
f 420/535/410 427/545/417 426/544/416
f 428/546/418 427/545/417 420/535/410
f 420/535/410 422/537/412 428/546/418
f 429/548/419 428/547/418 422/539/412
f 422/539/412 423/538/413 429/548/419
f 430/549/420 429/548/419 423/538/413
f 423/538/413 424/540/414 430/549/420
f 431/551/421 430/550/420 424/542/414
f 424/542/414 425/541/415 431/551/421
f 431/551/421 425/541/415 421/543/411
f 421/543/411 426/552/416 431/551/421
s 20
f 432/553/422 433/554/423 434/555/424
f 432/553/422 434/555/424 435/556/425
f 432/553/422 435/557/425 436/558/426
f 432/553/422 436/558/426 437/559/427
f 432/553/422 437/560/427 438/561/428
f 432/553/422 438/561/428 433/562/423
f 439/563/429 440/564/430 434/555/424
f 434/555/424 433/554/423 439/563/429
f 440/564/430 441/565/431 435/556/425
f 435/556/425 434/555/424 440/564/430
f 441/566/431 442/567/432 436/558/426
f 436/558/426 435/557/425 441/566/431
f 442/567/432 443/568/433 437/559/427
f 437/559/427 436/558/426 442/567/432
f 443/569/433 444/570/434 438/561/428
f 438/561/428 437/560/427 443/569/433
f 444/570/434 439/571/429 433/562/423
f 433/562/423 438/561/428 444/570/434
f 445/572/435 446/573/436 447/574/437
f 445/572/435 448/575/438 446/573/436
f 445/572/435 449/576/439 448/577/438
f 445/572/435 450/578/440 449/576/439
f 445/572/435 451/579/441 450/580/440
f 445/572/435 447/581/437 451/579/441
f 452/582/442 453/583/443 440/564/430
f 440/564/430 439/563/429 452/582/442
f 453/583/443 454/584/444 441/565/431
f 441/565/431 440/564/430 453/583/443
f 454/585/444 455/586/445 442/567/432
f 442/567/432 441/566/431 454/585/444
f 455/586/445 456/587/446 443/568/433
f 443/568/433 442/567/432 455/586/445
f 456/588/446 457/589/447 444/570/434
f 444/570/434 443/569/433 456/588/446
f 457/589/447 452/590/442 439/571/429
f 439/571/429 444/570/434 457/589/447
f 452/582/442 447/574/437 446/573/436
f 446/573/436 453/583/443 452/582/442
f 454/584/444 453/583/443 446/573/436
f 446/573/436 448/575/438 454/584/444
f 455/586/445 454/585/444 448/577/438
f 448/577/438 449/576/439 455/586/445
f 456/587/446 455/586/445 449/576/439
f 449/576/439 450/578/440 456/587/446
f 457/589/447 456/588/446 450/580/440
f 450/580/440 451/579/441 457/589/447
f 457/589/447 451/579/441 447/581/437
f 447/581/437 452/590/442 457/589/447
s 21
f 458/591/448 459/592/449 460/593/450
f 458/591/448 460/593/450 461/594/451
f 458/591/448 461/595/451 462/596/452
f 458/591/448 462/596/452 463/597/453
f 458/591/448 463/598/453 464/599/454
f 458/591/448 464/599/454 459/600/449
f 465/601/455 466/602/456 460/593/450
f 460/593/450 459/592/449 465/601/455
f 466/602/456 467/603/457 461/594/451
f 461/594/451 460/593/450 466/602/456
f 467/604/457 468/605/458 462/596/452
f 462/596/452 461/595/451 467/604/457
f 468/605/458 469/606/459 463/597/453
f 463/597/453 462/596/452 468/605/458
f 469/607/459 470/608/460 464/599/454
f 464/599/454 463/598/453 469/607/459
f 470/608/460 465/609/455 459/600/449
f 459/600/449 464/599/454 470/608/460
f 471/610/461 472/611/462 473/612/463
f 471/610/461 474/613/464 472/611/462
f 471/610/461 475/614/465 474/615/464
f 471/610/461 476/616/466 475/614/465
f 471/610/461 477/617/467 476/618/466
f 471/610/461 473/619/463 477/617/467
f 478/620/468 479/621/469 466/602/456
f 466/602/456 465/601/455 478/620/468
f 479/621/469 480/622/470 467/603/457
f 467/603/457 466/602/456 479/621/469
f 480/623/470 481/624/471 468/605/458
f 468/605/458 467/604/457 480/623/470
f 481/624/471 482/625/472 469/606/459
f 469/606/459 468/605/458 481/624/471
f 482/626/472 483/627/473 470/608/460
f 470/608/460 469/607/459 482/626/472
f 483/627/473 478/628/468 465/609/455
f 465/609/455 470/608/460 483/627/473
f 478/620/468 473/612/463 472/611/462
f 472/611/462 479/621/469 478/620/468
f 480/622/470 479/621/469 472/611/462
f 472/611/462 474/613/464 480/622/470
f 481/624/471 480/623/470 474/615/464
f 474/615/464 475/614/465 481/624/471
f 482/625/472 481/624/471 475/614/465
f 475/614/465 476/616/466 482/625/472
f 483/627/473 482/626/472 476/618/466
f 476/618/466 477/617/467 483/627/473
f 483/627/473 477/617/467 473/619/463
f 473/619/463 478/628/468 483/627/473
s 22
f 484/629/474 485/630/475 486/631/476
f 486/631/476 487/632/477 484/629/474
f 487/632/477 486/631/476 488/633/478
f 488/633/478 489/634/479 487/632/477
f 490/635/480 489/634/479 488/633/478
f 488/633/478 491/636/481 490/635/480
f 492/637/482 490/635/480 491/636/481
f 491/636/481 493/638/483 492/637/482
f 485/630/475 494/639/484 495/640/485
f 495/640/485 486/631/476 485/630/475
f 486/631/476 495/640/485 496/641/486
f 496/641/486 488/633/478 486/631/476
f 488/633/478 496/641/486 497/642/487
f 497/642/487 491/636/481 488/633/478
f 497/642/487 498/643/488 491/636/481
f 494/639/484 499/644/489 495/640/485
f 495/640/485 499/644/489 500/645/490
f 500/645/490 496/641/486 495/640/485
f 496/641/486 500/645/490 501/646/491
f 501/646/491 497/642/487 496/641/486
f 501/646/491 498/643/488 497/642/487
f 484/629/474 487/632/477 502/647/492
f 487/632/477 489/634/479 503/648/493
f 489/634/479 490/635/480 504/649/494
f 504/649/494 505/650/495 489/634/479
f 490/635/480 492/637/482 506/651/496
f 490/635/480 506/651/496 504/649/494
f 502/647/492 487/632/477 503/648/493
f 489/634/479 505/650/495 507/652/497
f 503/648/493 489/634/479 507/652/497
f 491/636/481 498/643/488 493/638/483
f 505/650/495 508/653/498 509/654/498
f 509/654/498 507/652/497 505/650/495
s 23
f 510/655/499 511/656/500 512/657/501
f 512/657/501 513/658/502 510/655/499
f 511/656/500 514/659/503 515/660/504
f 515/660/504 512/657/501 511/656/500
f 516/661/505 517/662/506 515/660/504
f 515/660/504 514/659/503 516/661/505
f 518/663/507 519/664/508 517/662/506
f 517/662/506 516/661/505 518/663/507
f 513/658/502 512/657/501 520/665/509
f 520/665/509 521/666/510 513/658/502
f 512/657/501 515/660/504 522/667/511
f 522/667/511 520/665/509 512/657/501
f 515/660/504 517/662/506 523/668/512
f 523/668/512 522/667/511 515/660/504
f 523/668/512 517/662/506 524/669/513
f 521/666/510 520/665/509 525/670/514
f 520/665/509 522/667/511 526/671/515
f 526/671/515 525/670/514 520/665/509
f 522/667/511 523/668/512 527/672/516
f 527/672/516 526/671/515 522/667/511
f 527/672/516 523/668/512 524/669/513
f 510/655/499 528/673/517 511/656/500
f 511/656/500 529/674/518 514/659/503
f 514/659/503 530/675/519 531/676/520
f 531/676/520 516/661/505 514/659/503
f 516/661/505 532/677/521 518/663/507
f 516/661/505 531/676/520 532/677/521
f 528/673/517 529/674/518 511/656/500
f 514/659/503 533/678/522 530/675/519
f 529/674/518 533/678/522 514/659/503
f 517/662/506 519/664/508 524/669/513
f 530/675/519 533/678/522 534/679/523
f 534/679/523 535/680/523 530/675/519
