# Blender v3.3.0 OBJ File: ''
# www.blender.org
o CocoaTreeStage02.005
v -0.023579 -0.000000 0.025032
v 0.030672 -0.000000 0.025032
v 0.020524 0.166477 0.016681
v -0.015972 0.157267 0.016681
v 0.030672 0.000000 -0.025032
v 0.020524 0.166477 -0.016681
v -0.023579 0.000000 -0.025032
v -0.015972 0.157267 -0.016681
v -0.005835 0.213806 0.016681
v 0.061416 0.333469 0.027307
v 0.034128 0.346730 0.027307
v 0.061416 0.333469 -0.005440
v -0.005835 0.213806 -0.016681
v 0.034128 0.346730 -0.005440
v -0.061686 0.271757 -0.010923
v -0.045956 0.285602 -0.008150
v -0.065570 0.271757 0.011106
v -0.049840 0.285602 0.013879
v -0.090680 0.306168 -0.025720
v -0.074950 0.320013 -0.022947
v -0.094564 0.306168 -0.003691
v -0.078835 0.320013 -0.000917
v 0.126205 0.479743 0.058816
v 0.107194 0.488842 0.060420
v 0.126205 0.483705 0.036349
v 0.107194 0.492804 0.037953
v 0.145984 0.593757 0.086461
v -0.155583 0.366564 -0.061917
v 0.063342 0.384220 0.020331
v 0.066202 0.389047 0.037189
v 0.038238 0.442181 0.070819
v 0.033827 0.450196 0.062366
v 0.073958 0.400792 0.037048
v 0.049590 0.448867 0.071236
v 0.066782 0.405328 0.020190
v 0.045179 0.456882 0.062783
v 0.014950 0.476128 0.113424
v 0.010540 0.484143 0.104971
v 0.026302 0.482814 0.113840
v 0.021892 0.490829 0.105388
v -0.008896 0.507713 0.165269
v 0.024577 0.217343 -0.003567
v 0.005055 0.204573 -0.009157
v -0.008242 0.282757 -0.050311
v 0.002039 0.293162 -0.044260
v -0.004192 0.213157 0.003524
v -0.019806 0.287765 -0.039274
v 0.015330 0.225927 0.009115
v -0.009525 0.298170 -0.033223
v -0.023179 0.310999 -0.077091
v -0.012897 0.321404 -0.071040
v -0.034743 0.316008 -0.066054
v -0.024461 0.326413 -0.060003
v -0.049139 0.349417 -0.112713
v -0.034752 0.247862 -0.035920
v -0.052356 0.219648 -0.053114
v -0.053855 0.223674 -0.062302
v -0.036558 0.252218 -0.044936
v -0.050803 0.227663 -0.068361
v -0.034914 0.254222 -0.051671
v -0.033974 0.259483 -0.058763
v -0.050827 0.231507 -0.076856
v -0.031369 0.262295 -0.065662
v -0.047880 0.235928 -0.083469
v -0.056811 0.208291 -0.063954
v -0.057512 0.210269 -0.071212
v -0.054349 0.214460 -0.076206
v -0.055099 0.216404 -0.082852
v -0.055424 0.220325 -0.088085
v -0.060312 0.198888 -0.082592
v -0.060580 0.198022 -0.087396
v -0.058704 0.202006 -0.087979
v -0.028021 0.259453 -0.033402
v -0.025784 0.265877 -0.036603
v -0.023889 0.272135 -0.049032
v -0.021672 0.270819 -0.041795
v -0.026405 0.271189 -0.056173
v -0.021986 0.270049 -0.040191
v -0.015177 0.278215 -0.036529
v -0.015491 0.277445 -0.034925
v -0.035102 0.248144 -0.035656
v -0.036908 0.252499 -0.044672
v -0.054205 0.223956 -0.062038
v -0.052706 0.219929 -0.052851
v -0.035264 0.254503 -0.051407
v -0.051153 0.227944 -0.068097
v -0.034324 0.259764 -0.058499
v -0.051177 0.231788 -0.076592
v -0.031719 0.262576 -0.065399
v -0.048230 0.236209 -0.083206
v -0.057862 0.210550 -0.070948
v -0.057161 0.208572 -0.063691
v -0.054699 0.214741 -0.075942
v -0.055449 0.216685 -0.082588
v -0.055774 0.220606 -0.087821
v -0.060662 0.199169 -0.082329
v -0.060930 0.198304 -0.087132
v -0.059054 0.202288 -0.087715
v -0.028371 0.259734 -0.033139
v -0.026134 0.266159 -0.036340
v -0.022022 0.271100 -0.041531
v -0.024239 0.272416 -0.048768
v -0.026755 0.271470 -0.055909
v -0.022336 0.270331 -0.039927
v -0.015841 0.277727 -0.034661
v -0.015527 0.278496 -0.036265
v -0.003745 0.426202 0.102078
v -0.000345 0.425074 0.087020
v -0.021873 0.373134 0.076292
v -0.025718 0.374804 0.091142
v 0.006093 0.422785 0.078426
v -0.013360 0.374071 0.067925
v 0.012508 0.424484 0.066659
v -0.007867 0.372779 0.054909
v 0.020574 0.423205 0.057855
v 0.000901 0.373865 0.045501
v -0.025314 0.348480 0.072973
v -0.028745 0.351356 0.083559
v -0.017178 0.350492 0.065811
v -0.014157 0.348026 0.055959
v -0.010840 0.349261 0.046648
v -0.025734 0.324709 0.065730
v -0.023703 0.319943 0.060395
v -0.019817 0.324901 0.057946
v 0.007052 0.443873 0.100790
v 0.013442 0.450118 0.093649
v 0.023194 0.453038 0.086271
v 0.024332 0.449198 0.075291
v 0.024467 0.442419 0.065868
v 0.021699 0.453202 0.088573
v 0.029681 0.467373 0.093462
v 0.031176 0.467209 0.091161
v -0.003117 0.425734 0.102412
v -0.025090 0.374335 0.091475
v -0.021245 0.372665 0.076625
v 0.000283 0.424605 0.087353
v -0.012732 0.373602 0.068258
v 0.006721 0.422316 0.078760
v 0.013136 0.424015 0.066992
v -0.007239 0.372311 0.055242
v 0.021202 0.422736 0.058188
v 0.001529 0.373396 0.045834
v -0.028117 0.350887 0.083893
v -0.024686 0.348011 0.073307
v -0.016550 0.350023 0.066145
v -0.013529 0.347557 0.056293
v -0.010212 0.348792 0.046982
v -0.025106 0.324240 0.066064
v -0.023075 0.319475 0.060728
v -0.019189 0.324432 0.058280
v 0.007680 0.443404 0.101123
v 0.014070 0.449649 0.093983
v 0.024960 0.448729 0.075625
v 0.023822 0.452569 0.086605
v 0.025095 0.441950 0.066202
v 0.022327 0.452734 0.088906
v 0.031804 0.466740 0.091494
v 0.030309 0.466904 0.093795
v 0.058989 0.418135 0.076810
v 0.079208 0.369933 0.088075
v 0.078243 0.369912 0.102529
v 0.058493 0.418614 0.091325
v 0.071927 0.372007 0.111587
v 0.054003 0.417603 0.100547
v 0.050252 0.420595 0.112288
v 0.069132 0.372268 0.124607
v 0.044340 0.420636 0.121887
v 0.062771 0.374609 0.134649
v 0.082449 0.348565 0.096805
v 0.081062 0.347016 0.107393
v 0.074919 0.349985 0.115175
v 0.073793 0.348731 0.124979
v 0.072442 0.350898 0.133974
v 0.081829 0.325462 0.116294
v 0.080724 0.321605 0.122008
v 0.077770 0.326665 0.124441
v 0.049949 0.435338 0.078129
v 0.045571 0.442156 0.085175
v 0.038771 0.443542 0.103993
v 0.038013 0.446083 0.093346
v 0.040063 0.438064 0.113326
v 0.038987 0.445947 0.090960
v 0.030334 0.459313 0.088854
v 0.031308 0.459178 0.086467
v 0.059705 0.418607 0.076975
v 0.059209 0.419086 0.091490
v 0.078960 0.370384 0.102694
v 0.079924 0.370405 0.088241
v 0.054719 0.418075 0.100713
v 0.072643 0.372479 0.111753
v 0.050968 0.421067 0.112453
v 0.069849 0.372740 0.124772
v 0.045056 0.421108 0.122052
v 0.063488 0.375080 0.134814
v 0.081778 0.347488 0.107558
v 0.083166 0.349037 0.096970
v 0.075635 0.350457 0.115340
v 0.074510 0.349203 0.125144
v 0.073158 0.351370 0.134140
v 0.082545 0.325934 0.116460
v 0.081440 0.322077 0.122173
v 0.078487 0.327137 0.124606
v 0.050665 0.435810 0.078295
v 0.046288 0.442628 0.085340
v 0.038730 0.446554 0.093511
v 0.039487 0.444014 0.104158
v 0.040779 0.438536 0.113491
v 0.039704 0.446419 0.091125
v 0.032024 0.459650 0.086633
v 0.031050 0.459785 0.089019
v 0.115920 0.487364 0.087680
v 0.102356 0.464875 0.111532
v 0.093143 0.464709 0.108799
v 0.106644 0.487634 0.085066
v 0.088276 0.464159 0.103176
v 0.101197 0.485786 0.081368
v 0.094329 0.486555 0.076567
v 0.080251 0.463604 0.099520
v 0.088905 0.484912 0.071686
v 0.074772 0.463196 0.093652
v 0.094679 0.453241 0.118230
v 0.087903 0.452008 0.116275
v 0.083904 0.452016 0.110693
v 0.077623 0.451028 0.108924
v 0.072152 0.451995 0.106162
v 0.080425 0.439530 0.121570
v 0.076587 0.436966 0.121177
v 0.075784 0.439114 0.117647
v 0.117550 0.494897 0.077307
v 0.114086 0.497707 0.071752
v 0.102923 0.496682 0.064580
v 0.110093 0.497867 0.065018
v 0.096311 0.493902 0.065494
v 0.111496 0.498054 0.065980
v 0.114999 0.503395 0.057450
v 0.116403 0.503582 0.058412
v 0.115584 0.487762 0.087467
v 0.106308 0.488032 0.084853
v 0.092807 0.465107 0.108586
v 0.102020 0.465273 0.111318
v 0.100861 0.486184 0.081154
v 0.087940 0.464557 0.102962
v 0.093993 0.486952 0.076353
v 0.079914 0.464002 0.099307
v 0.088568 0.485310 0.071472
v 0.074436 0.463594 0.093439
v 0.087567 0.452405 0.116062
v 0.094343 0.453639 0.118017
v 0.083568 0.452414 0.110480
v 0.077287 0.451426 0.108711
v 0.071816 0.452393 0.105949
v 0.080089 0.439928 0.121356
v 0.076251 0.437364 0.120963
v 0.075447 0.439511 0.117433
v 0.117213 0.495295 0.077094
v 0.113749 0.498105 0.071539
v 0.109756 0.498265 0.064804
v 0.102587 0.497080 0.064367
v 0.095975 0.494300 0.065281
v 0.111160 0.498452 0.065767
v 0.116066 0.503979 0.058199
v 0.114662 0.503792 0.057236
v -0.097876 0.264709 0.012624
v -0.121547 0.219531 0.022590
v -0.133543 0.221217 0.015417
v -0.110079 0.266883 0.005856
v -0.138317 0.224308 0.006091
v -0.116127 0.266998 -0.002128
v -0.124245 0.271270 -0.010362
v -0.148243 0.226097 -0.002022
v -0.129878 0.272444 -0.019686
v -0.153817 0.229542 -0.011806
v -0.132723 0.199946 0.020417
v -0.141371 0.199702 0.014491
v -0.145033 0.203486 0.005921
v -0.153092 0.203433 0.000581
v -0.159998 0.206585 -0.004416
v -0.151621 0.179958 0.010090
v -0.156448 0.176912 0.006421
v -0.156703 0.182082 0.003070
v -0.093211 0.281462 0.005147
v -0.096616 0.288873 -0.001365
v -0.109637 0.292431 -0.015427
v -0.099887 0.293627 -0.011278
v -0.118803 0.288248 -0.018696
v -0.098281 0.293214 -0.009396
v -0.091245 0.305862 -0.015244
v -0.089639 0.305450 -0.013362
v -0.097998 0.265124 0.013113
v -0.110202 0.267298 0.006345
v -0.133666 0.221632 0.015906
v -0.121670 0.219946 0.023079
v -0.116250 0.267413 -0.001639
v -0.138440 0.224723 0.006580
v -0.124368 0.271685 -0.009873
v -0.148366 0.226513 -0.001533
v -0.130001 0.272860 -0.019197
v -0.153940 0.229957 -0.011317
v -0.141494 0.200117 0.014980
v -0.132846 0.200362 0.020906
v -0.145156 0.203902 0.006410
v -0.153215 0.203849 0.001070
v -0.160121 0.207001 -0.003927
v -0.151744 0.180374 0.010579
v -0.156571 0.177328 0.006910
v -0.156826 0.182497 0.003559
v -0.093334 0.281878 0.005636
v -0.096739 0.289288 -0.000876
v -0.100009 0.294042 -0.010789
v -0.109760 0.292847 -0.014938
v -0.118926 0.288664 -0.018207
v -0.098403 0.293630 -0.008907
v -0.089762 0.305866 -0.012873
v -0.091368 0.306278 -0.014755
vt 0.076800 0.013400
vt 0.054300 0.012700
vt 0.052800 0.232800
vt 0.078300 0.226200
vt 0.036600 0.027600
vt 0.031800 0.264800
vt 0.049900 0.267700
vt 0.063900 0.031900
vt 0.056100 0.008300
vt 0.084100 0.006500
vt 0.083700 0.222200
vt 0.064900 0.232800
vt 0.054200 0.032300
vt 0.048300 0.254100
vt 0.030500 0.253600
vt 0.027500 0.031700
vt 0.067100 0.282300
vt 0.035000 0.450500
vt 0.052300 0.463500
vt 0.028500 0.501800
vt 0.046300 0.504700
vt 0.079300 0.281100
vt 0.059300 0.467200
vt 0.045000 0.454200
vt 0.108000 0.340100
vt 0.098800 0.352200
vt 0.044600 0.387200
vt 0.032700 0.385300
vt 0.083600 0.361700
vt 0.093900 0.352000
vt 0.117300 0.439100
vt 0.132700 0.448100
vt 0.112700 0.620100
vt 0.097600 0.611200
vt 0.111100 0.693700
vt 0.099900 0.690700
vt 0.108000 0.607200
vt 0.124400 0.614600
vt 0.128100 0.470700
vt 0.117300 0.473900
vt 0.038800 0.533000
vt 0.026900 0.531100
vt 0.107700 0.491800
vt 0.115600 0.485500
vt 0.102100 0.830800
vt 0.090900 0.827900
vt 0.010900 0.654700
vt 0.019500 0.661900
vt 0.040600 0.732700
vt 0.053000 0.730600
vt 0.016700 0.670000
vt 0.006800 0.660800
vt 0.098700 0.817100
vt 0.087900 0.814300
vt 0.011800 0.834100
vt 0.082100 0.915200
vt 0.002200 0.850800
vt 0.107300 0.979800
vt 0.131800 0.615000
vt 0.011500 0.674800
vt 0.131400 0.625800
vt 0.102100 0.974600
vt 0.079300 0.281100
vt 0.083700 0.222200
vt 0.108000 0.340100
vt 0.098800 0.352200
vt 0.030500 0.253600
vt 0.048300 0.254100
vt 0.044600 0.387200
vt 0.032700 0.385300
vt 0.078300 0.226200
vt 0.067100 0.282300
vt 0.083600 0.361700
vt 0.093900 0.352000
vt 0.111100 0.693700
vt 0.099900 0.690700
vt 0.108000 0.607200
vt 0.124400 0.614600
vt 0.128100 0.470700
vt 0.117300 0.473900
vt 0.038800 0.533000
vt 0.026900 0.531100
vt 0.107700 0.491800
vt 0.115600 0.485500
vt 0.102100 0.830800
vt 0.090900 0.827900
vt 0.131800 0.615000
vt 0.011500 0.674800
vt 0.131400 0.625800
vt 0.102100 0.974600
vt 0.079300 0.281100
vt 0.083700 0.222200
vt 0.108000 0.340100
vt 0.098800 0.352200
vt 0.030500 0.253600
vt 0.048300 0.254100
vt 0.044600 0.387200
vt 0.032700 0.385300
vt 0.078300 0.226200
vt 0.067100 0.282300
vt 0.083600 0.361700
vt 0.093900 0.352000
vt 0.111100 0.693700
vt 0.099900 0.690700
vt 0.108000 0.607200
vt 0.124400 0.614600
vt 0.128100 0.470700
vt 0.117300 0.473900
vt 0.038800 0.533000
vt 0.026900 0.531100
vt 0.107700 0.491800
vt 0.115600 0.485500
vt 0.102100 0.830800
vt 0.090900 0.827900
vt 0.131800 0.615000
vt 0.011500 0.674800
vt 0.131400 0.625800
vt 0.102100 0.974600
vt 0.298100 0.143300
vt 0.289900 0.379300
vt 0.352100 0.391800
vt 0.360500 0.156700
vt 0.400800 0.384500
vt 0.405300 0.163000
vt 0.460900 0.158100
vt 0.458800 0.392400
vt 0.510500 0.158800
vt 0.511400 0.384200
vt 0.310000 0.480800
vt 0.355400 0.494600
vt 0.399500 0.483800
vt 0.441100 0.496300
vt 0.482200 0.493300
vt 0.380100 0.594100
vt 0.403100 0.614500
vt 0.420300 0.592800
vt 0.326100 0.062000
vt 0.365900 0.036000
vt 0.456000 0.039700
vt 0.414000 0.016100
vt 0.489700 0.073900
vt 0.402700 0.015700
vt 0.414300 0.008700
vt 0.403000 0.008200
vt 0.298100 0.143300
vt 0.360500 0.156700
vt 0.352100 0.391800
vt 0.289900 0.379300
vt 0.405300 0.163000
vt 0.400800 0.384500
vt 0.460900 0.158100
vt 0.458800 0.392400
vt 0.510500 0.158800
vt 0.511400 0.384200
vt 0.355400 0.494600
vt 0.310000 0.480800
vt 0.399500 0.483800
vt 0.441100 0.496300
vt 0.482200 0.493300
vt 0.380100 0.594100
vt 0.403100 0.614500
vt 0.420300 0.592800
vt 0.326100 0.062000
vt 0.365900 0.036000
vt 0.414000 0.016100
vt 0.456000 0.039700
vt 0.489700 0.073900
vt 0.402700 0.015700
vt 0.403000 0.008200
vt 0.414300 0.008700
vt 0.298100 0.143300
vt 0.360500 0.156700
vt 0.352100 0.391800
vt 0.289900 0.379300
vt 0.405300 0.163000
vt 0.400800 0.384500
vt 0.460900 0.158100
vt 0.458800 0.392400
vt 0.510500 0.158800
vt 0.511400 0.384200
vt 0.355400 0.494600
vt 0.310000 0.480800
vt 0.399500 0.483800
vt 0.441100 0.496300
vt 0.482200 0.493300
vt 0.380100 0.594100
vt 0.403100 0.614500
vt 0.420300 0.592800
vt 0.326100 0.062000
vt 0.365900 0.036000
vt 0.414000 0.016100
vt 0.456000 0.039700
vt 0.489700 0.073900
vt 0.402700 0.015700
vt 0.403000 0.008200
vt 0.414300 0.008700
vt 0.298100 0.143300
vt 0.289900 0.379300
vt 0.352100 0.391800
vt 0.360500 0.156700
vt 0.400800 0.384500
vt 0.405300 0.163000
vt 0.460900 0.158100
vt 0.458800 0.392400
vt 0.510500 0.158800
vt 0.511400 0.384200
vt 0.310000 0.480800
vt 0.355400 0.494600
vt 0.399500 0.483800
vt 0.441100 0.496300
vt 0.482200 0.493300
vt 0.380100 0.594100
vt 0.403100 0.614500
vt 0.420300 0.592800
vt 0.326100 0.062000
vt 0.365900 0.036000
vt 0.456000 0.039700
vt 0.414000 0.016100
vt 0.489700 0.073900
vt 0.402700 0.015700
vt 0.414300 0.008700
vt 0.403000 0.008200
vt 0.298100 0.143300
vt 0.289900 0.379300
vt 0.352100 0.391800
vt 0.360500 0.156700
vt 0.400800 0.384500
vt 0.405300 0.163000
vt 0.460900 0.158100
vt 0.458800 0.392400
vt 0.510500 0.158800
vt 0.511400 0.384200
vt 0.310000 0.480800
vt 0.355400 0.494600
vt 0.399500 0.483800
vt 0.441100 0.496300
vt 0.482200 0.493300
vt 0.380100 0.594100
vt 0.403100 0.614500
vt 0.420300 0.592800
vt 0.326100 0.062000
vt 0.365900 0.036000
vt 0.456000 0.039700
vt 0.414000 0.016100
vt 0.489700 0.073900
vt 0.402700 0.015700
vt 0.414300 0.008700
vt 0.403000 0.008200
vt 0.298100 0.143300
vt 0.360500 0.156700
vt 0.352100 0.391800
vt 0.289900 0.379300
vt 0.405300 0.163000
vt 0.400800 0.384500
vt 0.460900 0.158100
vt 0.458800 0.392400
vt 0.510500 0.158800
vt 0.511400 0.384200
vt 0.355400 0.494600
vt 0.310000 0.480800
vt 0.399500 0.483800
vt 0.441100 0.496300
vt 0.482200 0.493300
vt 0.380100 0.594100
vt 0.403100 0.614500
vt 0.420300 0.592800
vt 0.326100 0.062000
vt 0.365900 0.036000
vt 0.414000 0.016100
vt 0.456000 0.039700
vt 0.489700 0.073900
vt 0.402700 0.015700
vt 0.403000 0.008200
vt 0.414300 0.008700
vt 0.298100 0.143300
vt 0.289900 0.379300
vt 0.352100 0.391800
vt 0.360500 0.156700
vt 0.400800 0.384500
vt 0.405300 0.163000
vt 0.460900 0.158100
vt 0.458800 0.392400
vt 0.510500 0.158800
vt 0.511400 0.384200
vt 0.310000 0.480800
vt 0.355400 0.494600
vt 0.399500 0.483800
vt 0.441100 0.496300
vt 0.482200 0.493300
vt 0.380100 0.594100
vt 0.403100 0.614500
vt 0.420300 0.592800
vt 0.326100 0.062000
vt 0.365900 0.036000
vt 0.456000 0.039700
vt 0.414000 0.016100
vt 0.489700 0.073900
vt 0.402700 0.015700
vt 0.414300 0.008700
vt 0.403000 0.008200
vt 0.298100 0.143300
vt 0.360500 0.156700
vt 0.352100 0.391800
vt 0.289900 0.379300
vt 0.405300 0.163000
vt 0.400800 0.384500
vt 0.460900 0.158100
vt 0.458800 0.392400
vt 0.510500 0.158800
vt 0.511400 0.384200
vt 0.355400 0.494600
vt 0.310000 0.480800
vt 0.399500 0.483800
vt 0.441100 0.496300
vt 0.482200 0.493300
vt 0.380100 0.594100
vt 0.403100 0.614500
vt 0.420300 0.592800
vt 0.326100 0.062000
vt 0.365900 0.036000
vt 0.414000 0.016100
vt 0.456000 0.039700
vt 0.489700 0.073900
vt 0.402700 0.015700
vt 0.403000 0.008200
vt 0.414300 0.008700
vt 0.298100 0.143300
vt 0.289900 0.379300
vt 0.352100 0.391800
vt 0.360500 0.156700
vt 0.400800 0.384500
vt 0.405300 0.163000
vt 0.460900 0.158100
vt 0.458800 0.392400
vt 0.510500 0.158800
vt 0.511400 0.384200
vt 0.310000 0.480800
vt 0.355400 0.494600
vt 0.399500 0.483800
vt 0.441100 0.496300
vt 0.482200 0.493300
vt 0.380100 0.594100
vt 0.403100 0.614500
vt 0.420300 0.592800
vt 0.326100 0.062000
vt 0.365900 0.036000
vt 0.456000 0.039700
vt 0.414000 0.016100
vt 0.489700 0.073900
vt 0.402700 0.015700
vt 0.414300 0.008700
vt 0.403000 0.008200
vt 0.298100 0.143300
vt 0.360500 0.156700
vt 0.352100 0.391800
vt 0.289900 0.379300
vt 0.405300 0.163000
vt 0.400800 0.384500
vt 0.460900 0.158100
vt 0.458800 0.392400
vt 0.510500 0.158800
vt 0.511400 0.384200
vt 0.355400 0.494600
vt 0.310000 0.480800
vt 0.399500 0.483800
vt 0.441100 0.496300
vt 0.482200 0.493300
vt 0.380100 0.594100
vt 0.403100 0.614500
vt 0.420300 0.592800
vt 0.326100 0.062000
vt 0.365900 0.036000
vt 0.414000 0.016100
vt 0.456000 0.039700
vt 0.489700 0.073900
vt 0.402700 0.015700
vt 0.403000 0.008200
vt 0.414300 0.008700
vn -0.7050 0.0698 0.7058
vn 0.7072 0.0784 0.7026
vn 0.6720 -0.0536 0.7386
vn -0.6495 -0.0897 0.7550
vn 0.7065 0.0801 -0.7032
vn 0.6721 -0.0321 -0.7397
vn -0.7043 0.0716 -0.7063
vn -0.6493 -0.0882 -0.7554
vn -0.0953 0.2045 0.9742
vn 0.6276 -0.3137 0.7125
vn -0.7215 0.1971 0.6638
vn 0.6763 -0.1008 -0.7297
vn -0.0168 0.2393 -0.9708
vn -0.6094 0.3667 -0.7030
vn -0.4753 -0.3698 -0.7983
vn 0.7276 0.4501 -0.5177
vn -0.7032 -0.2815 0.6529
vn 0.3935 0.4678 0.7914
vn -0.2467 -0.6230 -0.7423
vn 0.6650 0.4951 -0.5592
vn -0.7574 -0.2827 0.5886
vn 0.1916 0.6942 0.6939
vn 0.6913 -0.3549 0.6295
vn -0.6596 0.1042 0.7444
vn 0.7238 0.0129 -0.6899
vn -0.5678 0.5052 -0.6500
vn 0.2508 0.9131 0.3215
vn -0.7004 0.5322 -0.4756
vn -0.9261 -0.3054 -0.2213
vn -0.4459 -0.6507 0.6147
vn -0.4387 -0.7126 0.5475
vn -0.8240 0.1031 -0.5571
vn 0.8820 0.0912 0.4623
vn 0.8482 0.0103 0.5296
vn -0.2329 0.4637 -0.8548
vn 0.3835 0.7624 -0.5212
vn -0.3527 -0.8414 0.4094
vn -0.8685 0.1753 -0.4636
vn 0.8440 -0.0127 0.5362
vn 0.2809 0.9003 -0.3326
vn -0.4088 0.3657 0.8362
vn 0.9018 0.0005 -0.4323
vn -0.2780 -0.5074 -0.8156
vn 0.0215 -0.5487 -0.8357
vn 0.9472 0.2804 -0.1555
vn -0.9686 -0.1002 0.2276
vn -0.9629 -0.1708 0.2091
vn 0.2868 0.5308 0.7975
vn 0.0215 0.6233 0.7816
vn 0.0466 -0.6668 -0.7438
vn 0.8765 0.3881 -0.2849
vn -0.9541 -0.2120 0.2116
vn -0.0764 0.7886 0.6101
vn -0.4238 0.5208 -0.7411
vn 0.8602 -0.3727 -0.3481
vn 0.9233 -0.2805 -0.2624
vn 0.9350 -0.3493 -0.0604
vn 0.8576 -0.4875 -0.1638
vn 0.9155 -0.4022 -0.0133
vn 0.8503 -0.5171 -0.0976
vn 0.8584 -0.5061 -0.0833
vn 0.9151 -0.3994 -0.0560
vn 0.8290 -0.5533 0.0812
vn 0.8615 -0.5057 0.0458
vn 0.9686 -0.1996 -0.1480
vn 0.9606 -0.2777 0.0133
vn 0.9502 -0.3100 0.0318
vn 0.9673 -0.1841 -0.1744
vn 0.9607 -0.2336 -0.1500
vn 0.9765 -0.2141 -0.0261
vn 0.9270 -0.3658 0.0829
vn 0.9328 -0.3589 0.0326
vn 0.8313 -0.4404 -0.3391
vn 0.7976 -0.5984 -0.0760
vn 0.8315 -0.4706 -0.2954
vn 0.8109 -0.5561 -0.1824
vn 0.8446 -0.5101 -0.1628
vn 0.7912 -0.6060 -0.0822
vn 0.7897 -0.5989 -0.1329
vn -0.8602 0.3728 0.3481
vn -0.8576 0.4875 0.1638
vn -0.9350 0.3493 0.0604
vn -0.9233 0.2805 0.2625
vn -0.8503 0.5171 0.0976
vn -0.9155 0.4022 0.0133
vn -0.8584 0.5061 0.0833
vn -0.9151 0.3994 0.0560
vn -0.8290 0.5533 -0.0811
vn -0.8615 0.5057 -0.0458
vn -0.9606 0.2776 -0.0133
vn -0.9686 0.1996 0.1480
vn -0.9502 0.3100 -0.0318
vn -0.9673 0.1841 0.1744
vn -0.9607 0.2336 0.1500
vn -0.9765 0.2141 0.0262
vn -0.9270 0.3658 -0.0829
vn -0.9328 0.3589 -0.0326
vn -0.8313 0.4404 0.3391
vn -0.7976 0.5984 0.0760
vn -0.8108 0.5562 0.1822
vn -0.8315 0.4706 0.2954
vn -0.8446 0.5101 0.1628
vn -0.7912 0.6061 0.0819
vn -0.7897 0.5990 0.1326
vn -0.8588 0.4568 -0.2320
vn -0.7728 0.4657 -0.4311
vn -0.8286 0.2912 -0.4782
vn -0.9006 0.3315 -0.2810
vn -0.7378 0.4591 -0.4947
vn -0.7855 0.3148 -0.5329
vn -0.7419 0.4422 -0.5041
vn -0.8008 0.3334 -0.4974
vn -0.6487 0.4034 -0.6453
vn -0.6986 0.3780 -0.6075
vn -0.8369 0.1914 -0.5128
vn -0.9140 0.2028 -0.3513
vn -0.8157 0.2109 -0.5387
vn -0.9246 0.2025 -0.3226
vn -0.9021 0.2337 -0.3627
vn -0.8755 0.1549 -0.4577
vn -0.7674 0.2353 -0.5964
vn -0.7918 0.2538 -0.5555
vn -0.8186 0.5123 -0.2598
vn -0.6689 0.5215 -0.5297
vn -0.7256 0.5366 -0.4307
vn -0.7984 0.5171 -0.3087
vn -0.7569 0.4854 -0.4375
vn -0.6640 0.5314 -0.5261
vn -0.6817 0.5503 -0.4821
vn 0.8588 -0.4568 0.2320
vn 0.9006 -0.3315 0.2810
vn 0.8286 -0.2912 0.4782
vn 0.7728 -0.4657 0.4312
vn 0.7855 -0.3148 0.5329
vn 0.7378 -0.4591 0.4948
vn 0.7419 -0.4422 0.5041
vn 0.8008 -0.3334 0.4975
vn 0.6487 -0.4035 0.6453
vn 0.6986 -0.3780 0.6075
vn 0.9140 -0.2028 0.3513
vn 0.8369 -0.1914 0.5128
vn 0.8157 -0.2109 0.5387
vn 0.9246 -0.2025 0.3226
vn 0.9021 -0.2337 0.3627
vn 0.8756 -0.1549 0.4576
vn 0.7674 -0.2353 0.5964
vn 0.7917 -0.2538 0.5556
vn 0.8185 -0.5124 0.2598
vn 0.6690 -0.5215 0.5297
vn 0.7984 -0.5171 0.3087
vn 0.7255 -0.5366 0.4310
vn 0.7569 -0.4854 0.4375
vn 0.6638 -0.5314 0.5263
vn 0.6817 -0.5503 0.4821
vn -0.9051 -0.4248 -0.0207
vn -0.9503 -0.3025 -0.0740
vn -0.9153 -0.2855 -0.2842
vn -0.8588 -0.4577 -0.2303
vn -0.8843 -0.3166 -0.3431
vn -0.8362 -0.4593 -0.2996
vn -0.8413 -0.4431 -0.3097
vn -0.8935 -0.3309 -0.3038
vn -0.7750 -0.4235 -0.4690
vn -0.8158 -0.3917 -0.4255
vn -0.9715 -0.1805 -0.1537
vn -0.9259 -0.1891 -0.3269
vn -0.9108 -0.2121 -0.3541
vn -0.9764 -0.1768 -0.1237
vn -0.9633 -0.2130 -0.1637
vn -0.9519 -0.1453 -0.2699
vn -0.8754 -0.2447 -0.4169
vn -0.8923 -0.2578 -0.3705
vn -0.8731 -0.4851 -0.0495
vn -0.7778 -0.5286 -0.3399
vn -0.8627 -0.4956 -0.1005
vn -0.8153 -0.5309 -0.2312
vn -0.8452 -0.4788 -0.2375
vn -0.7727 -0.5384 -0.3363
vn -0.7825 -0.5520 -0.2881
vn 0.9051 0.4248 0.0207
vn 0.8588 0.4577 0.2303
vn 0.9153 0.2854 0.2841
vn 0.9503 0.3025 0.0739
vn 0.8362 0.4593 0.2996
vn 0.8843 0.3166 0.3431
vn 0.8413 0.4431 0.3097
vn 0.8935 0.3309 0.3037
vn 0.7750 0.4235 0.4690
vn 0.8158 0.3917 0.4255
vn 0.9259 0.1891 0.3270
vn 0.9715 0.1805 0.1538
vn 0.9108 0.2121 0.3541
vn 0.9764 0.1768 0.1237
vn 0.9632 0.2130 0.1638
vn 0.9518 0.1454 0.2700
vn 0.8754 0.2447 0.4169
vn 0.8924 0.2577 0.3704
vn 0.8731 0.4851 0.0495
vn 0.7778 0.5286 0.3399
vn 0.8152 0.5309 0.2314
vn 0.8627 0.4956 0.1005
vn 0.8452 0.4788 0.2375
vn 0.7726 0.5384 0.3365
vn 0.7825 0.5520 0.2882
vn 0.1504 -0.7852 -0.6007
vn 0.2251 -0.6968 -0.6810
vn 0.4248 -0.6688 -0.6101
vn 0.3416 -0.7968 -0.4985
vn 0.4725 -0.6836 -0.5562
vn 0.4044 -0.7891 -0.4624
vn 0.4171 -0.7770 -0.4715
vn 0.4343 -0.6999 -0.5670
vn 0.5614 -0.7320 -0.3859
vn 0.5306 -0.7212 -0.4453
vn 0.3207 -0.5982 -0.7343
vn 0.4795 -0.5880 -0.6514
vn 0.5003 -0.6022 -0.6221
vn 0.2929 -0.5968 -0.7470
vn 0.3252 -0.6238 -0.7107
vn 0.4340 -0.5597 -0.7059
vn 0.5507 -0.6164 -0.5628
vn 0.5073 -0.6350 -0.5826
vn 0.1652 -0.8252 -0.5402
vn 0.4242 -0.8255 -0.3723
vn 0.2117 -0.8306 -0.5150
vn 0.3257 -0.8428 -0.4286
vn 0.3434 -0.8097 -0.4758
vn 0.4187 -0.8319 -0.3642
vn 0.3720 -0.8478 -0.3781
vn -0.1504 0.7852 0.6008
vn -0.3416 0.7968 0.4985
vn -0.4248 0.6688 0.6101
vn -0.2250 0.6968 0.6810
vn -0.4045 0.7891 0.4624
vn -0.4725 0.6837 0.5562
vn -0.4171 0.7770 0.4715
vn -0.4343 0.6999 0.5670
vn -0.5613 0.7321 0.3860
vn -0.5306 0.7212 0.4452
vn -0.4795 0.5880 0.6514
vn -0.3208 0.5983 0.7343
vn -0.5003 0.6022 0.6221
vn -0.2929 0.5968 0.7470
vn -0.3253 0.6238 0.7107
vn -0.4341 0.5597 0.7059
vn -0.5508 0.6163 0.5628
vn -0.5074 0.6350 0.5826
vn -0.1652 0.8252 0.5402
vn -0.4243 0.8255 0.3722
vn -0.3257 0.8428 0.4286
vn -0.2117 0.8306 0.5150
vn -0.3434 0.8097 0.4759
vn -0.4187 0.8319 0.3642
vn -0.3721 0.8478 0.3779
vn 0.3838 -0.4239 -0.8204
vn 0.4646 -0.3090 -0.8299
vn 0.6364 -0.3176 -0.7029
vn 0.5445 -0.4820 -0.6864
vn 0.6711 -0.3557 -0.6505
vn 0.5954 -0.4920 -0.6352
vn 0.6084 -0.4771 -0.6342
vn 0.6389 -0.3650 -0.6772
vn 0.7212 -0.4771 -0.5023
vn 0.7047 -0.4402 -0.5565
vn 0.5579 -0.1975 -0.8061
vn 0.6895 -0.2271 -0.6878
vn 0.7041 -0.2533 -0.6634
vn 0.5341 -0.1902 -0.8238
vn 0.5596 -0.2309 -0.7960
vn 0.6555 -0.1766 -0.7343
vn 0.7400 -0.2932 -0.6053
vn 0.7053 -0.3005 -0.6421
vn 0.3882 -0.4872 -0.7822
vn 0.5970 -0.5657 -0.5688
vn 0.4275 -0.5039 -0.7506
vn 0.5177 -0.5548 -0.6513
vn 0.5424 -0.5039 -0.6723
vn 0.5904 -0.5750 -0.5664
vn 0.5508 -0.5827 -0.5976
vn -0.3838 0.4239 0.8204
vn -0.5445 0.4820 0.6864
vn -0.6364 0.3176 0.7029
vn -0.4646 0.3090 0.8299
vn -0.5954 0.4920 0.6352
vn -0.6711 0.3557 0.6505
vn -0.6084 0.4771 0.6342
vn -0.6389 0.3650 0.6772
vn -0.7212 0.4771 0.5023
vn -0.7047 0.4402 0.5564
vn -0.6895 0.2271 0.6878
vn -0.5579 0.1975 0.8060
vn -0.7041 0.2533 0.6634
vn -0.5341 0.1902 0.8238
vn -0.5596 0.2309 0.7960
vn -0.6555 0.1766 0.7343
vn -0.7400 0.2932 0.6053
vn -0.7053 0.3005 0.6420
vn -0.3883 0.4872 0.7822
vn -0.5970 0.5657 0.5688
vn -0.5178 0.5548 0.6512
vn -0.4275 0.5038 0.7506
vn -0.5423 0.5038 0.6723
vn -0.5905 0.5751 0.5663
vn -0.5508 0.5827 0.5976
s 1
f 1/1/1 2/2/2 3/3/3
f 3/3/3 4/4/4 1/1/1
f 5/5/5 6/6/6 3/7/3
f 3/7/3 2/8/2 5/5/5
f 5/9/5 7/10/7 8/11/8
f 8/11/8 6/12/6 5/9/5
f 1/13/1 4/14/4 8/15/8
f 8/15/8 7/16/7 1/13/1
f 9/17/9 3/3/3 10/18/10
f 10/18/10 11/19/11 9/17/9
f 3/7/3 6/6/6 12/20/12
f 12/20/12 10/21/10 3/7/3
f 6/12/6 13/22/13 14/23/14
f 14/23/14 12/24/12 6/12/6
f 13/22/13 8/11/8 15/25/15
f 15/25/15 16/26/16 13/22/13
f 8/15/8 4/14/4 17/27/17
f 17/27/17 15/28/15 8/15/8
f 4/4/4 9/17/9 18/29/18
f 18/29/18 17/30/17 4/4/4
f 13/31/13 9/32/9 11/33/11
f 11/33/11 14/34/14 13/31/13
f 16/35/16 18/36/18 9/37/9
f 9/37/9 13/38/13 16/35/16
f 16/26/16 15/25/15 19/39/19
f 19/39/19 20/40/20 16/26/16
f 15/28/15 17/27/17 21/41/21
f 21/41/21 19/42/19 15/28/15
f 17/30/17 18/29/18 22/43/22
f 22/43/22 21/44/21 17/30/17
f 18/36/18 16/35/16 20/45/20
f 20/45/20 22/46/22 18/36/18
f 3/3/3 9/17/9 4/4/4
f 8/11/8 13/22/13 6/12/6
f 11/19/11 10/18/10 23/47/23
f 23/47/23 24/48/24 11/19/11
f 10/21/10 12/20/12 25/49/25
f 25/49/25 23/50/23 10/21/10
f 12/24/12 14/23/14 26/51/26
f 26/51/26 25/52/25 12/24/12
f 14/34/14 11/33/11 24/53/24
f 24/53/24 26/54/26 14/34/14
f 24/48/24 23/47/23 27/55/27
f 23/50/23 25/49/25 27/56/27
f 25/52/25 26/51/26 27/57/27
f 26/54/26 24/53/24 27/58/27
f 20/40/20 19/39/19 28/59/28
f 19/42/19 21/41/21 28/60/28
f 21/44/21 22/43/22 28/61/28
f 22/46/22 20/45/20 28/62/28
s 2
f 29/63/29 30/64/30 31/65/31
f 31/65/31 32/66/32 29/63/29
f 30/67/30 33/68/33 34/69/34
f 34/69/34 31/70/31 30/67/30
f 33/71/33 35/72/35 36/73/36
f 36/73/36 34/74/34 33/71/33
f 32/75/32 36/76/36 35/77/35
f 35/77/35 29/78/29 32/75/32
f 32/66/32 31/65/31 37/79/37
f 37/79/37 38/80/38 32/66/32
f 31/70/31 34/69/34 39/81/39
f 39/81/39 37/82/37 31/70/31
f 34/74/34 36/73/36 40/83/40
f 40/83/40 39/84/39 34/74/34
f 36/76/36 32/75/32 38/85/38
f 38/85/38 40/86/40 36/76/36
f 38/80/38 37/79/37 41/87/41
f 37/82/37 39/81/39 41/88/41
f 39/84/39 40/83/40 41/89/41
f 40/86/40 38/85/38 41/90/41
s 3
f 42/91/42 43/92/43 44/93/44
f 44/93/44 45/94/45 42/91/42
f 43/95/43 46/96/46 47/97/47
f 47/97/47 44/98/44 43/95/43
f 46/99/46 48/100/48 49/101/49
f 49/101/49 47/102/47 46/99/46
f 45/103/45 49/104/49 48/105/48
f 48/105/48 42/106/42 45/103/45
f 45/94/45 44/93/44 50/107/50
f 50/107/50 51/108/51 45/94/45
f 44/98/44 47/97/47 52/109/52
f 52/109/52 50/110/50 44/98/44
f 47/102/47 49/101/49 53/111/53
f 53/111/53 52/112/52 47/102/47
f 49/104/49 45/103/45 51/113/51
f 51/113/51 53/114/53 49/104/49
f 51/108/51 50/107/50 54/115/54
f 50/110/50 52/109/52 54/116/54
f 52/112/52 53/111/53 54/117/54
f 53/114/53 51/113/51 54/118/54
s 4
f 55/119/55 56/120/56 57/121/57
f 57/121/57 58/122/58 55/119/55
f 58/122/58 57/121/57 59/123/59
f 59/123/59 60/124/60 58/122/58
f 61/125/61 60/124/60 59/123/59
f 59/123/59 62/126/62 61/125/61
f 63/127/63 61/125/61 62/126/62
f 62/126/62 64/128/64 63/127/63
f 56/120/56 65/129/65 66/130/66
f 66/130/66 57/121/57 56/120/56
f 57/121/57 66/130/66 67/131/67
f 67/131/67 59/123/59 57/121/57
f 59/123/59 67/131/67 68/132/68
f 68/132/68 62/126/62 59/123/59
f 68/132/68 69/133/69 62/126/62
f 65/129/65 70/134/70 66/130/66
f 66/130/66 70/134/70 71/135/71
f 71/135/71 67/131/67 66/130/66
f 67/131/67 71/135/71 72/136/72
f 72/136/72 68/132/68 67/131/67
f 72/136/72 69/133/69 68/132/68
f 55/119/55 58/122/58 73/137/73
f 58/122/58 60/124/60 74/138/74
f 60/124/60 61/125/61 75/139/75
f 75/139/75 76/140/76 60/124/60
f 61/125/61 63/127/63 77/141/77
f 61/125/61 77/141/77 75/139/75
f 73/137/73 58/122/58 74/138/74
f 60/124/60 76/140/76 78/142/78
f 74/138/74 60/124/60 78/142/78
f 62/126/62 69/133/69 64/128/64
f 76/140/76 79/143/79 80/144/79
f 80/144/79 78/142/78 76/140/76
s 5
f 81/145/80 82/146/81 83/147/82
f 83/147/82 84/148/83 81/145/80
f 82/146/81 85/149/84 86/150/85
f 86/150/85 83/147/82 82/146/81
f 87/151/86 88/152/87 86/150/85
f 86/150/85 85/149/84 87/151/86
f 89/153/88 90/154/89 88/152/87
f 88/152/87 87/151/86 89/153/88
f 84/148/83 83/147/82 91/155/90
f 91/155/90 92/156/91 84/148/83
f 83/147/82 86/150/85 93/157/92
f 93/157/92 91/155/90 83/147/82
f 86/150/85 88/152/87 94/158/93
f 94/158/93 93/157/92 86/150/85
f 94/158/93 88/152/87 95/159/94
f 92/156/91 91/155/90 96/160/95
f 91/155/90 93/157/92 97/161/96
f 97/161/96 96/160/95 91/155/90
f 93/157/92 94/158/93 98/162/97
f 98/162/97 97/161/96 93/157/92
f 98/162/97 94/158/93 95/159/94
f 81/145/80 99/163/98 82/146/81
f 82/146/81 100/164/99 85/149/84
f 85/149/84 101/165/100 102/166/101
f 102/166/101 87/151/86 85/149/84
f 87/151/86 103/167/102 89/153/88
f 87/151/86 102/166/101 103/167/102
f 99/163/98 100/164/99 82/146/81
f 85/149/84 104/168/103 101/165/100
f 100/164/99 104/168/103 85/149/84
f 88/152/87 90/154/89 95/159/94
f 101/165/100 104/168/103 105/169/104
f 105/169/104 106/170/104 101/165/100
s 6
f 107/171/105 108/172/106 109/173/107
f 109/173/107 110/174/108 107/171/105
f 108/172/106 111/175/109 112/176/110
f 112/176/110 109/173/107 108/172/106
f 113/177/111 114/178/112 112/176/110
f 112/176/110 111/175/109 113/177/111
f 115/179/113 116/180/114 114/178/112
f 114/178/112 113/177/111 115/179/113
f 110/174/108 109/173/107 117/181/115
f 117/181/115 118/182/116 110/174/108
f 109/173/107 112/176/110 119/183/117
f 119/183/117 117/181/115 109/173/107
f 112/176/110 114/178/112 120/184/118
f 120/184/118 119/183/117 112/176/110
f 120/184/118 114/178/112 121/185/119
f 118/182/116 117/181/115 122/186/120
f 117/181/115 119/183/117 123/187/121
f 123/187/121 122/186/120 117/181/115
f 119/183/117 120/184/118 124/188/122
f 124/188/122 123/187/121 119/183/117
f 124/188/122 120/184/118 121/185/119
f 107/171/105 125/189/123 108/172/106
f 108/172/106 126/190/124 111/175/109
f 111/175/109 127/191/125 128/192/126
f 128/192/126 113/177/111 111/175/109
f 113/177/111 129/193/127 115/179/113
f 113/177/111 128/192/126 129/193/127
f 125/189/123 126/190/124 108/172/106
f 111/175/109 130/194/128 127/191/125
f 126/190/124 130/194/128 111/175/109
f 114/178/112 116/180/114 121/185/119
f 127/191/125 130/194/128 131/195/129
f 131/195/129 132/196/129 127/191/125
s 7
f 133/197/130 134/198/131 135/199/132
f 135/199/132 136/200/133 133/197/130
f 136/200/133 135/199/132 137/201/134
f 137/201/134 138/202/135 136/200/133
f 139/203/136 138/202/135 137/201/134
f 137/201/134 140/204/137 139/203/136
f 141/205/138 139/203/136 140/204/137
f 140/204/137 142/206/139 141/205/138
f 134/198/131 143/207/140 144/208/141
f 144/208/141 135/199/132 134/198/131
f 135/199/132 144/208/141 145/209/142
f 145/209/142 137/201/134 135/199/132
f 137/201/134 145/209/142 146/210/143
f 146/210/143 140/204/137 137/201/134
f 146/210/143 147/211/144 140/204/137
f 143/207/140 148/212/145 144/208/141
f 144/208/141 148/212/145 149/213/146
f 149/213/146 145/209/142 144/208/141
f 145/209/142 149/213/146 150/214/147
f 150/214/147 146/210/143 145/209/142
f 150/214/147 147/211/144 146/210/143
f 133/197/130 136/200/133 151/215/148
f 136/200/133 138/202/135 152/216/149
f 138/202/135 139/203/136 153/217/150
f 153/217/150 154/218/151 138/202/135
f 139/203/136 141/205/138 155/219/152
f 139/203/136 155/219/152 153/217/150
f 151/215/148 136/200/133 152/216/149
f 138/202/135 154/218/151 156/220/153
f 152/216/149 138/202/135 156/220/153
f 140/204/137 147/211/144 142/206/139
f 154/218/151 157/221/154 158/222/154
f 158/222/154 156/220/153 154/218/151
s 8
f 159/223/155 160/224/156 161/225/157
f 161/225/157 162/226/158 159/223/155
f 162/226/158 161/225/157 163/227/159
f 163/227/159 164/228/160 162/226/158
f 165/229/161 164/228/160 163/227/159
f 163/227/159 166/230/162 165/229/161
f 167/231/163 165/229/161 166/230/162
f 166/230/162 168/232/164 167/231/163
f 160/224/156 169/233/165 170/234/166
f 170/234/166 161/225/157 160/224/156
f 161/225/157 170/234/166 171/235/167
f 171/235/167 163/227/159 161/225/157
f 163/227/159 171/235/167 172/236/168
f 172/236/168 166/230/162 163/227/159
f 172/236/168 173/237/169 166/230/162
f 169/233/165 174/238/170 170/234/166
f 170/234/166 174/238/170 175/239/171
f 175/239/171 171/235/167 170/234/166
f 171/235/167 175/239/171 176/240/172
f 176/240/172 172/236/168 171/235/167
f 176/240/172 173/237/169 172/236/168
f 159/223/155 162/226/158 177/241/173
f 162/226/158 164/228/160 178/242/174
f 164/228/160 165/229/161 179/243/175
f 179/243/175 180/244/176 164/228/160
f 165/229/161 167/231/163 181/245/177
f 165/229/161 181/245/177 179/243/175
f 177/241/173 162/226/158 178/242/174
f 164/228/160 180/244/176 182/246/178
f 178/242/174 164/228/160 182/246/178
f 166/230/162 173/237/169 168/232/164
f 180/244/176 183/247/179 184/248/179
f 184/248/179 182/246/178 180/244/176
s 9
f 185/249/180 186/250/181 187/251/182
f 187/251/182 188/252/183 185/249/180
f 186/250/181 189/253/184 190/254/185
f 190/254/185 187/251/182 186/250/181
f 191/255/186 192/256/187 190/254/185
f 190/254/185 189/253/184 191/255/186
f 193/257/188 194/258/189 192/256/187
f 192/256/187 191/255/186 193/257/188
f 188/252/183 187/251/182 195/259/190
f 195/259/190 196/260/191 188/252/183
f 187/251/182 190/254/185 197/261/192
f 197/261/192 195/259/190 187/251/182
f 190/254/185 192/256/187 198/262/193
f 198/262/193 197/261/192 190/254/185
f 198/262/193 192/256/187 199/263/194
f 196/260/191 195/259/190 200/264/195
f 195/259/190 197/261/192 201/265/196
f 201/265/196 200/264/195 195/259/190
f 197/261/192 198/262/193 202/266/197
f 202/266/197 201/265/196 197/261/192
f 202/266/197 198/262/193 199/263/194
f 185/249/180 203/267/198 186/250/181
f 186/250/181 204/268/199 189/253/184
f 189/253/184 205/269/200 206/270/201
f 206/270/201 191/255/186 189/253/184
f 191/255/186 207/271/202 193/257/188
f 191/255/186 206/270/201 207/271/202
f 203/267/198 204/268/199 186/250/181
f 189/253/184 208/272/203 205/269/200
f 204/268/199 208/272/203 189/253/184
f 192/256/187 194/258/189 199/263/194
f 205/269/200 208/272/203 209/273/204
f 209/273/204 210/274/204 205/269/200
s 10
f 211/275/205 212/276/206 213/277/207
f 213/277/207 214/278/208 211/275/205
f 214/278/208 213/277/207 215/279/209
f 215/279/209 216/280/210 214/278/208
f 217/281/211 216/280/210 215/279/209
f 215/279/209 218/282/212 217/281/211
f 219/283/213 217/281/211 218/282/212
f 218/282/212 220/284/214 219/283/213
f 212/276/206 221/285/215 222/286/216
f 222/286/216 213/277/207 212/276/206
f 213/277/207 222/286/216 223/287/217
f 223/287/217 215/279/209 213/277/207
f 215/279/209 223/287/217 224/288/218
f 224/288/218 218/282/212 215/279/209
f 224/288/218 225/289/219 218/282/212
f 221/285/215 226/290/220 222/286/216
f 222/286/216 226/290/220 227/291/221
f 227/291/221 223/287/217 222/286/216
f 223/287/217 227/291/221 228/292/222
f 228/292/222 224/288/218 223/287/217
f 228/292/222 225/289/219 224/288/218
f 211/275/205 214/278/208 229/293/223
f 214/278/208 216/280/210 230/294/224
f 216/280/210 217/281/211 231/295/225
f 231/295/225 232/296/226 216/280/210
f 217/281/211 219/283/213 233/297/227
f 217/281/211 233/297/227 231/295/225
f 229/293/223 214/278/208 230/294/224
f 216/280/210 232/296/226 234/298/228
f 230/294/224 216/280/210 234/298/228
f 218/282/212 225/289/219 220/284/214
f 232/296/226 235/299/229 236/300/229
f 236/300/229 234/298/228 232/296/226
s 11
f 237/301/230 238/302/231 239/303/232
f 239/303/232 240/304/233 237/301/230
f 238/302/231 241/305/234 242/306/235
f 242/306/235 239/303/232 238/302/231
f 243/307/236 244/308/237 242/306/235
f 242/306/235 241/305/234 243/307/236
f 245/309/238 246/310/239 244/308/237
f 244/308/237 243/307/236 245/309/238
f 240/304/233 239/303/232 247/311/240
f 247/311/240 248/312/241 240/304/233
f 239/303/232 242/306/235 249/313/242
f 249/313/242 247/311/240 239/303/232
f 242/306/235 244/308/237 250/314/243
f 250/314/243 249/313/242 242/306/235
f 250/314/243 244/308/237 251/315/244
f 248/312/241 247/311/240 252/316/245
f 247/311/240 249/313/242 253/317/246
f 253/317/246 252/316/245 247/311/240
f 249/313/242 250/314/243 254/318/247
f 254/318/247 253/317/246 249/313/242
f 254/318/247 250/314/243 251/315/244
f 237/301/230 255/319/248 238/302/231
f 238/302/231 256/320/249 241/305/234
f 241/305/234 257/321/250 258/322/251
f 258/322/251 243/307/236 241/305/234
f 243/307/236 259/323/252 245/309/238
f 243/307/236 258/322/251 259/323/252
f 255/319/248 256/320/249 238/302/231
f 241/305/234 260/324/253 257/321/250
f 256/320/249 260/324/253 241/305/234
f 244/308/237 246/310/239 251/315/244
f 257/321/250 260/324/253 261/325/254
f 261/325/254 262/326/254 257/321/250
s 12
f 263/327/255 264/328/256 265/329/257
f 265/329/257 266/330/258 263/327/255
f 266/330/258 265/329/257 267/331/259
f 267/331/259 268/332/260 266/330/258
f 269/333/261 268/332/260 267/331/259
f 267/331/259 270/334/262 269/333/261
f 271/335/263 269/333/261 270/334/262
f 270/334/262 272/336/264 271/335/263
f 264/328/256 273/337/265 274/338/266
f 274/338/266 265/329/257 264/328/256
f 265/329/257 274/338/266 275/339/267
f 275/339/267 267/331/259 265/329/257
f 267/331/259 275/339/267 276/340/268
f 276/340/268 270/334/262 267/331/259
f 276/340/268 277/341/269 270/334/262
f 273/337/265 278/342/270 274/338/266
f 274/338/266 278/342/270 279/343/271
f 279/343/271 275/339/267 274/338/266
f 275/339/267 279/343/271 280/344/272
f 280/344/272 276/340/268 275/339/267
f 280/344/272 277/341/269 276/340/268
f 263/327/255 266/330/258 281/345/273
f 266/330/258 268/332/260 282/346/274
f 268/332/260 269/333/261 283/347/275
f 283/347/275 284/348/276 268/332/260
f 269/333/261 271/335/263 285/349/277
f 269/333/261 285/349/277 283/347/275
f 281/345/273 266/330/258 282/346/274
f 268/332/260 284/348/276 286/350/278
f 282/346/274 268/332/260 286/350/278
f 270/334/262 277/341/269 272/336/264
f 284/348/276 287/351/279 288/352/279
f 288/352/279 286/350/278 284/348/276
s 13
f 289/353/280 290/354/281 291/355/282
f 291/355/282 292/356/283 289/353/280
f 290/354/281 293/357/284 294/358/285
f 294/358/285 291/355/282 290/354/281
f 295/359/286 296/360/287 294/358/285
f 294/358/285 293/357/284 295/359/286
f 297/361/288 298/362/289 296/360/287
f 296/360/287 295/359/286 297/361/288
f 292/356/283 291/355/282 299/363/290
f 299/363/290 300/364/291 292/356/283
f 291/355/282 294/358/285 301/365/292
f 301/365/292 299/363/290 291/355/282
f 294/358/285 296/360/287 302/366/293
f 302/366/293 301/365/292 294/358/285
f 302/366/293 296/360/287 303/367/294
f 300/364/291 299/363/290 304/368/295
f 299/363/290 301/365/292 305/369/296
f 305/369/296 304/368/295 299/363/290
f 301/365/292 302/366/293 306/370/297
f 306/370/297 305/369/296 301/365/292
f 306/370/297 302/366/293 303/367/294
f 289/353/280 307/371/298 290/354/281
f 290/354/281 308/372/299 293/357/284
f 293/357/284 309/373/300 310/374/301
f 310/374/301 295/359/286 293/357/284
f 295/359/286 311/375/302 297/361/288
f 295/359/286 310/374/301 311/375/302
f 307/371/298 308/372/299 290/354/281
f 293/357/284 312/376/303 309/373/300
f 308/372/299 312/376/303 293/357/284
f 296/360/287 298/362/289 303/367/294
f 309/373/300 312/376/303 313/377/304
f 313/377/304 314/378/304 309/373/300
