# Blender v3.3.0 OBJ File: ''
# www.blender.org
o ItemCocoa.010
v 0.000000 -0.000240 -0.113055
v 0.000000 -0.042529 -0.057900
v -0.036623 -0.021384 -0.057900
v -0.036623 0.020904 -0.057900
v 0.000000 0.042048 -0.057900
v 0.036623 0.020904 -0.057900
v 0.036623 -0.021384 -0.057900
v 0.000000 -0.049983 -0.002746
v -0.043079 -0.025112 -0.002746
v -0.043079 0.024631 -0.002746
v 0.000000 0.049503 -0.002746
v 0.043079 0.024631 -0.002746
v 0.043079 -0.025112 -0.002746
v 0.000000 -0.000240 0.113097
v -0.016385 -0.009700 0.079986
v 0.000000 -0.019160 0.079986
v -0.016385 0.009220 0.079986
v 0.000000 0.018679 0.079986
v 0.016385 0.009220 0.079986
v 0.016385 -0.009700 0.079986
v 0.000000 -0.042529 0.044736
v -0.036623 -0.021384 0.044736
v -0.036623 0.020904 0.044736
v 0.000000 0.042048 0.044736
v 0.036623 0.020904 0.044736
v 0.036623 -0.021384 0.044736
vt 0.518200 0.491800
vt 0.600300 0.612900
vt 0.518200 0.627800
vt 0.436100 0.612900
vt 0.600300 0.612900
vt 0.518200 0.627800
vt 0.436100 0.612900
vt 0.600300 0.612900
vt 0.518200 0.627800
vt 0.436100 0.612900
vt 0.617800 0.732100
vt 0.518200 0.732000
vt 0.418600 0.732100
vt 0.617800 0.732100
vt 0.518200 0.732000
vt 0.418600 0.732100
vt 0.617800 0.732100
vt 0.518200 0.732000
vt 0.418600 0.732100
vt 0.518200 0.979800
vt 0.518200 0.903100
vt 0.556700 0.912600
vt 0.479600 0.912600
vt 0.518200 0.903100
vt 0.556700 0.912600
vt 0.479600 0.912600
vt 0.518200 0.903100
vt 0.556700 0.912600
vt 0.479600 0.912600
vt 0.601300 0.835400
vt 0.518200 0.821400
vt 0.435100 0.835400
vt 0.601300 0.835400
vt 0.518200 0.821400
vt 0.435100 0.835400
vt 0.601300 0.835400
vt 0.518200 0.821400
vt 0.435100 0.835400
vn 0.0000 0.0000 -1.0000
vn -0.0000 -0.9338 -0.3577
vn -0.8087 -0.4669 -0.3577
vn -0.8087 0.4669 -0.3577
vn -0.0000 0.9338 -0.3577
vn 0.8087 0.4669 -0.3577
vn 0.8087 -0.4669 -0.3577
vn 0.0000 -0.9999 0.0102
vn -0.8660 -0.5000 0.0102
vn -0.8660 0.5000 0.0102
vn 0.0000 0.9999 0.0102
vn 0.8660 0.5000 0.0102
vn 0.8660 -0.5000 0.0102
vn -0.0000 0.0000 1.0000
vn -0.7347 -0.4242 0.5294
vn 0.0000 -0.8483 0.5295
vn -0.7347 0.4242 0.5295
vn 0.0000 0.8483 0.5294
vn 0.7347 0.4242 0.5294
vn 0.7347 -0.4242 0.5294
vn 0.0000 -0.9401 0.3410
vn -0.8141 -0.4700 0.3410
vn -0.8141 0.4700 0.3410
vn 0.0000 0.9401 0.3410
vn 0.8141 0.4700 0.3410
vn 0.8141 -0.4700 0.3410
s 1
f 1/1/1 2/2/2 3/3/3
f 1/1/1 3/3/3 4/4/4
f 1/1/1 4/5/4 5/6/5
f 1/1/1 5/6/5 6/7/6
f 1/1/1 6/8/6 7/9/7
f 1/1/1 7/9/7 2/10/2
f 8/11/8 9/12/9 3/3/3
f 3/3/3 2/2/2 8/11/8
f 9/12/9 10/13/10 4/4/4
f 4/4/4 3/3/3 9/12/9
f 10/14/10 11/15/11 5/6/5
f 5/6/5 4/5/4 10/14/10
f 11/15/11 12/16/12 6/7/6
f 6/7/6 5/6/5 11/15/11
f 12/17/12 13/18/13 7/9/7
f 7/9/7 6/8/6 12/17/12
f 13/18/13 8/19/8 2/10/2
f 2/10/2 7/9/7 13/18/13
f 14/20/14 15/21/15 16/22/16
f 14/20/14 17/23/17 15/21/15
f 14/20/14 18/24/18 17/25/17
f 14/20/14 19/26/19 18/24/18
f 14/20/14 20/27/20 19/28/19
f 14/20/14 16/29/16 20/27/20
f 21/30/21 22/31/22 9/12/9
f 9/12/9 8/11/8 21/30/21
f 22/31/22 23/32/23 10/13/10
f 10/13/10 9/12/9 22/31/22
f 23/33/23 24/34/24 11/15/11
f 11/15/11 10/14/10 23/33/23
f 24/34/24 25/35/25 12/16/12
f 12/16/12 11/15/11 24/34/24
f 25/36/25 26/37/26 13/18/13
f 13/18/13 12/17/12 25/36/25
f 26/37/26 21/38/21 8/19/8
f 8/19/8 13/18/13 26/37/26
f 21/30/21 16/22/16 15/21/15
f 15/21/15 22/31/22 21/30/21
f 23/32/23 22/31/22 15/21/15
f 15/21/15 17/23/17 23/32/23
f 24/34/24 23/33/23 17/25/17
f 17/25/17 18/24/18 24/34/24
f 25/35/25 24/34/24 18/24/18
f 18/24/18 19/26/19 25/35/25
f 26/37/26 25/36/25 19/28/19
f 19/28/19 20/27/20 26/37/26
f 26/37/26 20/27/20 16/29/16
f 16/29/16 21/38/21 26/37/26
