# Blender v3.3.0 OBJ File: ''
# www.blender.org
o DargaFernStage00.005
v -0.012460 -0.013500 -0.004243
v -0.016420 0.021255 -0.003970
v -0.014011 0.021680 0.001277
v -0.010328 -0.013124 0.000401
v -0.015064 -0.013959 -0.004757
v -0.019362 0.020736 -0.004551
v -0.017468 -0.014383 -0.003618
v -0.022079 0.020257 -0.003264
v -0.018431 -0.014553 0.001411
v -0.023166 0.020066 0.002418
v -0.014018 -0.013775 0.003895
v -0.018180 0.020945 0.005225
v -0.039108 0.101365 -0.005750
v -0.036886 0.102894 -0.000648
v -0.022389 0.062590 -0.000925
v -0.024672 0.061801 -0.006171
v -0.041827 0.100078 -0.006203
v -0.027460 0.060837 -0.006752
v -0.044340 0.099072 -0.004814
v -0.030033 0.059947 -0.005466
v -0.045352 0.099183 0.000867
v -0.031064 0.059591 0.000217
v -0.040745 0.101546 0.003442
v -0.026340 0.061224 0.003023
v -0.043785 0.104883 -0.001624
v -0.049913 0.108290 0.042662
v -0.040168 0.114775 0.016249
v -0.082770 0.165184 0.015466
v -0.094713 0.161679 0.042966
v -0.048081 0.111459 -0.003464
v -0.091066 0.161416 -0.005720
v -0.039504 0.111104 -0.027117
v -0.084456 0.162992 -0.032774
v -0.047436 0.105437 -0.048502
v -0.094190 0.158708 -0.053862
v -0.139972 0.211175 0.011451
v -0.144655 0.201218 0.035130
v -0.145353 0.204470 -0.006920
v -0.142053 0.211077 -0.029352
v -0.147011 0.204852 -0.049390
v -0.196111 0.241665 0.009782
v -0.196395 0.233390 0.023916
v -0.197654 0.234400 -0.003363
v -0.196856 0.242641 -0.016453
v -0.197250 0.243200 -0.029113
v -0.238393 0.254045 0.014526
v -0.253782 0.252055 0.002446
v -0.257024 0.251707 -0.002684
v -0.253095 0.252308 -0.005558
v -0.239172 0.255727 -0.014607
v -0.033075 0.080825 0.033664
v -0.024397 0.083214 0.017115
v -0.026984 0.082081 -0.010075
v -0.028265 0.081921 -0.036880
v -0.023166 0.081134 -0.021443
v -0.032640 0.081299 0.000757
v -0.032648 0.080886 -0.004196
v -0.050457 0.107976 0.042511
v -0.095302 0.161461 0.042826
v -0.083380 0.164966 0.015471
v -0.040731 0.114462 0.016224
v -0.091669 0.161198 -0.005697
v -0.048646 0.111148 -0.003453
v -0.085060 0.162779 -0.032666
v -0.040073 0.110798 -0.027021
v -0.094742 0.158516 -0.053598
v -0.047966 0.105168 -0.048250
v -0.145011 0.200694 0.034976
v -0.140319 0.210626 0.011427
v -0.145697 0.203926 -0.006906
v -0.142403 0.210552 -0.029240
v -0.147335 0.204357 -0.049131
v -0.196358 0.232766 0.023747
v -0.196058 0.241037 0.009676
v -0.197627 0.233763 -0.003386
v -0.196869 0.241985 -0.016461
v -0.197291 0.242539 -0.029115
v -0.238308 0.253415 0.014433
v -0.253694 0.251416 0.002434
v -0.256936 0.251067 -0.002696
v -0.253006 0.251669 -0.005571
v -0.239122 0.255088 -0.014618
v -0.033587 0.080464 0.033509
v -0.024923 0.082856 0.017051
v -0.027522 0.081724 -0.010068
v -0.033186 0.080529 -0.004189
v -0.028798 0.081586 -0.036733
v -0.023711 0.080774 -0.021416
v -0.033181 0.080939 0.000757
v 0.005784 -0.013500 -0.008147
v 0.008392 0.021255 -0.011140
v 0.002978 0.021680 -0.013147
v 0.000993 -0.013124 -0.009923
v 0.007989 -0.013959 -0.009625
v 0.010883 0.020736 -0.012810
v 0.008884 -0.014383 -0.012130
v 0.011894 0.020257 -0.015640
v 0.006009 -0.014553 -0.016367
v 0.008645 0.020066 -0.020428
v 0.001132 -0.013775 -0.015003
v 0.003135 0.020945 -0.018886
v 0.025693 0.101365 -0.025924
v 0.020514 0.102894 -0.027961
v 0.010459 0.062590 -0.017514
v 0.015783 0.061801 -0.015419
v 0.027936 0.100078 -0.027527
v 0.018165 0.060837 -0.016979
v 0.028731 0.099072 -0.030286
v 0.019075 0.059947 -0.019709
v 0.025429 0.099183 -0.035018
v 0.015786 0.059591 -0.024456
v 0.020351 0.101546 -0.033581
v 0.010461 0.061224 -0.023099
v 0.026083 0.104883 -0.032149
v -0.000899 0.108290 -0.067797
v 0.010887 0.114775 -0.042230
v 0.041565 0.165184 -0.071800
v 0.030565 0.161679 -0.099691
v 0.030421 0.111459 -0.033885
v 0.062412 0.161416 -0.062685
v 0.041082 0.111104 -0.011096
v 0.076868 0.162992 -0.038882
v 0.061812 0.105437 -0.001583
v 0.098663 0.158708 -0.030853
v 0.084852 0.211175 -0.109408
v 0.071420 0.201218 -0.129464
v 0.101647 0.204470 -0.100224
v 0.115175 0.211077 -0.082028
v 0.132850 0.204852 -0.071366
v 0.125728 0.241665 -0.147925
v 0.115935 0.233390 -0.158120
v 0.136114 0.234400 -0.139721
v 0.144806 0.242641 -0.129900
v 0.154036 0.243200 -0.121228
v 0.152271 0.254045 -0.181178
v 0.171695 0.252055 -0.183518
v 0.177615 0.251707 -0.182183
v 0.176869 0.252308 -0.177371
v 0.173423 0.255727 -0.161128
v -0.006443 0.080825 -0.049528
v -0.000877 0.083214 -0.031691
v 0.020179 0.082081 -0.014293
v 0.040039 0.081921 0.003755
v 0.025517 0.081134 -0.003555
v 0.016519 0.081299 -0.025952
v 0.020027 0.080886 -0.022455
v -0.000407 0.107976 -0.068075
v 0.031080 0.161461 -0.100008
v 0.041993 0.164966 -0.072235
v 0.011303 0.114462 -0.042610
v 0.062822 0.161198 -0.063128
v 0.030814 0.111148 -0.034293
v 0.077219 0.162779 -0.039385
v 0.041417 0.110798 -0.011566
v 0.098866 0.158516 -0.031430
v 0.062009 0.105168 -0.002136
v 0.071781 0.200694 -0.129607
v 0.085115 0.210626 -0.109637
v 0.101881 0.203926 -0.100476
v 0.115344 0.210552 -0.082355
v 0.132896 0.204357 -0.071778
v 0.116029 0.232766 -0.157974
v 0.125766 0.241037 -0.147812
v 0.136112 0.233763 -0.139686
v 0.144821 0.241985 -0.129905
v 0.154067 0.242539 -0.121255
v 0.152277 0.253415 -0.181051
v 0.171642 0.251416 -0.183446
v 0.177561 0.251067 -0.182111
v 0.176815 0.251669 -0.177300
v 0.173395 0.255088 -0.161085
v -0.005971 0.080464 -0.049781
v -0.000460 0.082856 -0.032016
v 0.020554 0.081724 -0.014678
v 0.020402 0.080529 -0.022841
v 0.040311 0.081586 0.003274
v 0.025884 0.080774 -0.003959
v 0.016901 0.080939 -0.026334
v 0.008618 -0.013500 0.012228
v 0.011114 0.021255 0.015316
v 0.014029 0.021680 0.010333
v 0.011199 -0.013124 0.007818
v 0.009691 -0.013959 0.014656
v 0.012325 0.020736 0.018059
v 0.012002 -0.014383 0.015973
v 0.014937 0.020257 0.019546
v 0.016674 -0.014553 0.013876
v 0.020216 0.020066 0.017178
v 0.016178 -0.013775 0.008837
v 0.019655 0.020945 0.011484
v 0.022668 0.101365 0.034922
v 0.025573 0.102894 0.030175
v 0.017032 0.062590 0.018459
v 0.014043 0.061801 0.023338
v 0.023857 0.100078 0.037409
v 0.015167 0.060837 0.025955
v 0.026436 0.099071 0.038671
v 0.017696 0.059947 0.027325
v 0.031670 0.099183 0.036241
v 0.022942 0.059591 0.024910
v 0.031137 0.101546 0.030990
v 0.022532 0.061224 0.019430
v 0.028731 0.104883 0.036386
v 0.068523 0.108290 0.016005
v 0.041297 0.114775 0.023172
v 0.065091 0.165184 0.058519
v 0.094468 0.161679 0.052529
v 0.029688 0.111459 0.040961
v 0.052495 0.161416 0.077466
v 0.005393 0.111104 0.047502
v 0.026542 0.162992 0.087569
v -0.007575 0.105437 0.066265
v 0.014852 0.158708 0.107639
v 0.094611 0.211175 0.107679
v 0.116695 0.201218 0.097933
v 0.082650 0.204470 0.122623
v 0.062381 0.211077 0.132787
v 0.048812 0.204852 0.148342
v 0.125445 0.241665 0.154622
v 0.137185 0.233390 0.146748
v 0.115562 0.234400 0.163426
v 0.104381 0.242641 0.170280
v 0.094238 0.243200 0.177864
v 0.153583 0.254045 0.186536
v 0.152515 0.252055 0.206071
v 0.150172 0.251707 0.211669
v 0.145563 0.252308 0.210099
v 0.130165 0.255727 0.203885
v 0.051493 0.080825 0.007373
v 0.032961 0.083214 0.009756
v 0.012171 0.082081 0.027472
v -0.009051 0.081921 0.043895
v 0.000669 0.081134 0.030864
v 0.024289 0.081299 0.025891
v 0.020236 0.080886 0.028739
v 0.068711 0.107976 0.016537
v 0.094691 0.161461 0.053091
v 0.065445 0.164966 0.059015
v 0.041600 0.114462 0.023648
v 0.052859 0.161198 0.077947
v 0.030021 0.111148 0.041417
v 0.026978 0.162778 0.088002
v 0.005798 0.110798 0.047913
v 0.015384 0.158516 0.107939
v -0.007065 0.105168 0.066555
v 0.116773 0.200694 0.098313
v 0.094791 0.210626 0.107977
v 0.082858 0.203926 0.122897
v 0.062674 0.210552 0.133009
v 0.049210 0.204357 0.148458
v 0.137026 0.232766 0.146815
v 0.125327 0.241037 0.154640
v 0.115527 0.233763 0.163417
v 0.104383 0.241985 0.170296
v 0.094259 0.242539 0.177899
v 0.153458 0.253415 0.186520
v 0.152453 0.251416 0.206006
v 0.150111 0.251067 0.211604
v 0.145502 0.251669 0.210034
v 0.130128 0.255088 0.203850
v 0.051661 0.080464 0.007881
v 0.033209 0.082856 0.010224
v 0.012485 0.081724 0.027908
v 0.020550 0.080529 0.029176
v -0.008625 0.081586 0.044247
v 0.001004 0.080774 0.031295
v 0.024599 0.080939 0.026335
vt 0.017200 0.990700
vt 0.017200 0.915100
vt 0.035800 0.915100
vt 0.035800 0.990700
vt 0.007900 0.990700
vt 0.007900 0.915100
vt 0.045100 0.990700
vt 0.045100 0.915100
vt 0.053700 0.915100
vt 0.053700 0.990700
vt 0.026500 0.990700
vt 0.026500 0.915100
vt 0.007900 0.990700
vt 0.007900 0.915100
vt 0.053700 0.915100
vt 0.053700 0.990700
vt 0.017200 0.764000
vt 0.035800 0.764000
vt 0.035800 0.839600
vt 0.017200 0.839600
vt 0.007900 0.764000
vt 0.007900 0.839600
vt 0.045100 0.764000
vt 0.053700 0.764000
vt 0.053700 0.839600
vt 0.045100 0.839600
vt 0.026500 0.764000
vt 0.026500 0.839600
vt 0.007900 0.764000
vt 0.007900 0.839600
vt 0.053700 0.764000
vt 0.053700 0.839600
vt 0.031000 0.688400
vt 0.032800 0.134500
vt 0.109300 0.144600
vt 0.099500 0.350900
vt 0.020500 0.352000
vt 0.176900 0.149000
vt 0.174000 0.347400
vt 0.258800 0.141400
vt 0.266600 0.347100
vt 0.341000 0.140200
vt 0.349100 0.344100
vt 0.114000 0.600700
vt 0.043900 0.624000
vt 0.174700 0.592000
vt 0.254400 0.597000
vt 0.331500 0.612500
vt 0.140600 0.777400
vt 0.083200 0.777700
vt 0.177200 0.775000
vt 0.229600 0.774100
vt 0.271500 0.772300
vt 0.126300 0.933600
vt 0.169900 0.973500
vt 0.186400 0.982800
vt 0.202700 0.957900
vt 0.232100 0.919400
vt 0.077300 0.030700
vt 0.128600 0.025400
vt 0.222300 0.035400
vt 0.306700 0.043800
vt 0.258600 0.030200
vt 0.180400 0.039900
vt 0.197000 0.042200
vt 0.032800 0.134500
vt 0.020500 0.352000
vt 0.099500 0.350900
vt 0.109300 0.144600
vt 0.174000 0.347400
vt 0.176900 0.149000
vt 0.266600 0.347100
vt 0.258800 0.141400
vt 0.349100 0.344100
vt 0.341000 0.140200
vt 0.043900 0.624000
vt 0.114000 0.600700
vt 0.174700 0.592000
vt 0.254400 0.597000
vt 0.331500 0.612500
vt 0.083200 0.777700
vt 0.140600 0.777400
vt 0.177200 0.775000
vt 0.229600 0.774100
vt 0.271500 0.772300
vt 0.126300 0.933600
vt 0.169900 0.973500
vt 0.186400 0.982800
vt 0.202700 0.957900
vt 0.232100 0.919400
vt 0.077300 0.030700
vt 0.128600 0.025400
vt 0.222300 0.035400
vt 0.197000 0.042200
vt 0.306700 0.043800
vt 0.258600 0.030200
vt 0.180400 0.039900
vt 0.017200 0.990700
vt 0.017200 0.915100
vt 0.035800 0.915100
vt 0.035800 0.990700
vt 0.007900 0.990700
vt 0.007900 0.915100
vt 0.045100 0.990700
vt 0.045100 0.915100
vt 0.053700 0.915100
vt 0.053700 0.990700
vt 0.026500 0.990700
vt 0.026500 0.915100
vt 0.007900 0.990700
vt 0.007900 0.915100
vt 0.053700 0.915100
vt 0.053700 0.990700
vt 0.017200 0.764000
vt 0.035800 0.764000
vt 0.035800 0.839600
vt 0.017200 0.839600
vt 0.007900 0.764000
vt 0.007900 0.839600
vt 0.045100 0.764000
vt 0.053700 0.764000
vt 0.053700 0.839600
vt 0.045100 0.839600
vt 0.026500 0.764000
vt 0.026500 0.839600
vt 0.007900 0.764000
vt 0.007900 0.839600
vt 0.053700 0.764000
vt 0.053700 0.839600
vt 0.031000 0.688400
vt 0.032800 0.134500
vt 0.109300 0.144600
vt 0.099500 0.350900
vt 0.020500 0.352000
vt 0.176900 0.149000
vt 0.174000 0.347400
vt 0.258800 0.141400
vt 0.266600 0.347100
vt 0.341000 0.140200
vt 0.349100 0.344100
vt 0.114000 0.600700
vt 0.043900 0.624000
vt 0.174700 0.592000
vt 0.254400 0.597000
vt 0.331500 0.612500
vt 0.140600 0.777400
vt 0.083200 0.777700
vt 0.177200 0.775000
vt 0.229600 0.774100
vt 0.271500 0.772300
vt 0.126300 0.933600
vt 0.169900 0.973500
vt 0.186400 0.982800
vt 0.202700 0.957900
vt 0.232100 0.919400
vt 0.077300 0.030700
vt 0.128600 0.025400
vt 0.222300 0.035400
vt 0.306700 0.043800
vt 0.258600 0.030200
vt 0.180400 0.039900
vt 0.197000 0.042200
vt 0.032800 0.134500
vt 0.020500 0.352000
vt 0.099500 0.350900
vt 0.109300 0.144600
vt 0.174000 0.347400
vt 0.176900 0.149000
vt 0.266600 0.347100
vt 0.258800 0.141400
vt 0.349100 0.344100
vt 0.341000 0.140200
vt 0.043900 0.624000
vt 0.114000 0.600700
vt 0.174700 0.592000
vt 0.254400 0.597000
vt 0.331500 0.612500
vt 0.083200 0.777700
vt 0.140600 0.777400
vt 0.177200 0.775000
vt 0.229600 0.774100
vt 0.271500 0.772300
vt 0.126300 0.933600
vt 0.169900 0.973500
vt 0.186400 0.982800
vt 0.202700 0.957900
vt 0.232100 0.919400
vt 0.077300 0.030700
vt 0.128600 0.025400
vt 0.222300 0.035400
vt 0.197000 0.042200
vt 0.306700 0.043800
vt 0.258600 0.030200
vt 0.180400 0.039900
vt 0.017200 0.990700
vt 0.017200 0.915100
vt 0.035800 0.915100
vt 0.035800 0.990700
vt 0.007900 0.990700
vt 0.007900 0.915100
vt 0.045100 0.990700
vt 0.045100 0.915100
vt 0.053700 0.915100
vt 0.053700 0.990700
vt 0.026500 0.990700
vt 0.026500 0.915100
vt 0.007900 0.990700
vt 0.007900 0.915100
vt 0.053700 0.915100
vt 0.053700 0.990700
vt 0.017200 0.764000
vt 0.035800 0.764000
vt 0.035800 0.839600
vt 0.017200 0.839600
vt 0.007900 0.764000
vt 0.007900 0.839600
vt 0.045100 0.764000
vt 0.053700 0.764000
vt 0.053700 0.839600
vt 0.045100 0.839600
vt 0.026500 0.764000
vt 0.026500 0.839600
vt 0.007900 0.764000
vt 0.007900 0.839600
vt 0.053700 0.764000
vt 0.053700 0.839600
vt 0.031000 0.688400
vt 0.032800 0.134500
vt 0.109300 0.144600
vt 0.099500 0.350900
vt 0.020500 0.352000
vt 0.176900 0.149000
vt 0.174000 0.347400
vt 0.258800 0.141400
vt 0.266600 0.347100
vt 0.341000 0.140200
vt 0.349100 0.344100
vt 0.114000 0.600700
vt 0.043900 0.624000
vt 0.174700 0.592000
vt 0.254400 0.597000
vt 0.331500 0.612500
vt 0.140600 0.777400
vt 0.083200 0.777700
vt 0.177200 0.775000
vt 0.229600 0.774100
vt 0.271500 0.772300
vt 0.126300 0.933600
vt 0.169900 0.973500
vt 0.186400 0.982800
vt 0.202700 0.957900
vt 0.232100 0.919400
vt 0.077300 0.030700
vt 0.128600 0.025400
vt 0.222300 0.035400
vt 0.306700 0.043800
vt 0.258600 0.030200
vt 0.180400 0.039900
vt 0.197000 0.042200
vt 0.032800 0.134500
vt 0.020500 0.352000
vt 0.099500 0.350900
vt 0.109300 0.144600
vt 0.174000 0.347400
vt 0.176900 0.149000
vt 0.266600 0.347100
vt 0.258800 0.141400
vt 0.349100 0.344100
vt 0.341000 0.140200
vt 0.043900 0.624000
vt 0.114000 0.600700
vt 0.174700 0.592000
vt 0.254400 0.597000
vt 0.331500 0.612500
vt 0.083200 0.777700
vt 0.140600 0.777400
vt 0.177200 0.775000
vt 0.229600 0.774100
vt 0.271500 0.772300
vt 0.126300 0.933600
vt 0.169900 0.973500
vt 0.186400 0.982800
vt 0.202700 0.957900
vt 0.232100 0.919400
vt 0.077300 0.030700
vt 0.128600 0.025400
vt 0.222300 0.035400
vt 0.197000 0.042200
vt 0.306700 0.043800
vt 0.258600 0.030200
vt 0.180400 0.039900
vn 0.5993 0.0745 -0.7970
vn 0.6231 0.0806 -0.7780
vn 0.9676 0.1527 0.2013
vn 0.9776 0.0988 0.1860
vn -0.1319 -0.0105 -0.9912
vn -0.1095 -0.0421 -0.9931
vn -0.7854 -0.0983 -0.6111
vn -0.7760 -0.1431 -0.6143
vn -0.9028 -0.1354 0.4082
vn -0.8866 -0.1433 0.4399
vn 0.1086 -0.0250 0.9938
vn 0.1309 0.0291 0.9910
vn 0.3713 0.5165 -0.7716
vn 0.7115 0.6908 0.1283
vn 0.9463 0.2723 0.1745
vn 0.6078 0.1561 -0.7786
vn -0.2632 0.2514 -0.9314
vn -0.0976 -0.0487 -0.9940
vn -0.8175 0.0078 -0.5758
vn -0.7448 -0.2218 -0.6294
vn -0.9034 -0.0059 0.4288
vn -0.8765 -0.2324 0.4216
vn 0.0057 0.4135 0.9105
vn 0.1391 0.0610 0.9884
vn -0.4732 0.8796 -0.0485
vn 0.7662 0.5011 0.4022
vn 0.8404 0.5418 0.0102
vn 0.7048 0.7095 0.0002
vn 0.6327 0.6792 0.3721
vn 0.8174 0.5736 -0.0531
vn 0.6902 0.7194 -0.0777
vn 0.8185 0.5694 -0.0765
vn 0.7033 0.7002 -0.1230
vn 0.7463 0.5185 -0.4175
vn 0.6347 0.6459 -0.4242
vn 0.5464 0.8375 -0.0128
vn 0.4786 0.7697 0.4225
vn 0.5728 0.8186 -0.0420
vn 0.5763 0.8162 -0.0420
vn 0.5329 0.7595 -0.3729
vn 0.3796 0.9249 -0.0191
vn 0.3549 0.8037 0.4777
vn 0.4055 0.9140 0.0119
vn 0.3891 0.8773 0.2811
vn 0.4202 0.9073 -0.0141
vn 0.2347 0.9209 -0.3111
vn 0.2016 0.9498 -0.2393
vn 0.2426 0.9683 0.0590
vn 0.2470 0.8070 0.5363
vn 0.2598 0.7550 0.6021
vn 0.8057 0.3948 0.4415
vn 0.8994 0.4361 0.0304
vn 0.7850 0.4484 0.4274
vn 0.8452 0.4312 -0.3159
vn 0.8768 0.4806 0.0139
vn 0.8719 0.4087 -0.2697
vn 0.8259 0.4076 0.3896
vn -0.7660 -0.5005 -0.4035
vn -0.6318 -0.6793 -0.3733
vn -0.7045 -0.7097 -0.0009
vn -0.8405 -0.5417 -0.0106
vn -0.6899 -0.7198 0.0774
vn -0.8175 -0.5734 0.0531
vn -0.7031 -0.7003 0.1231
vn -0.8186 -0.5693 0.0763
vn -0.6342 -0.6460 0.4249
vn -0.7462 -0.5180 0.4181
vn -0.4777 -0.7694 -0.4240
vn -0.5464 -0.8374 0.0124
vn -0.5728 -0.8186 0.0414
vn -0.5762 -0.8162 0.0415
vn -0.5326 -0.7594 0.3737
vn -0.3551 -0.8026 -0.4793
vn -0.3806 -0.9245 0.0203
vn -0.4068 -0.9135 -0.0094
vn -0.3899 -0.8773 -0.2799
vn -0.4206 -0.9071 0.0154
vn -0.2343 -0.9202 0.3136
vn -0.2012 -0.9498 0.2398
vn -0.2425 -0.9684 -0.0588
vn -0.2473 -0.8068 -0.5366
vn -0.2604 -0.7550 -0.6018
vn -0.8051 -0.3944 -0.4430
vn -0.8994 -0.4361 -0.0302
vn -0.7852 -0.4480 -0.4276
vn -0.8257 -0.4076 -0.3899
vn -0.8450 -0.4313 0.3161
vn -0.8769 -0.4804 -0.0134
vn -0.8717 -0.4086 0.2705
vn 0.1398 0.0745 0.9874
vn 0.1096 0.0806 0.9907
vn -0.8265 0.1527 0.5418
vn -0.8228 0.0988 0.5597
vn 0.7941 -0.0105 0.6077
vn 0.7797 -0.0421 0.6247
vn 0.9875 -0.0983 -0.1232
vn 0.9831 -0.1431 -0.1142
vn 0.3497 -0.1354 -0.9270
vn 0.3158 -0.1432 -0.9379
vn -0.7795 -0.0250 -0.6259
vn -0.7933 0.0291 -0.6081
vn 0.2830 0.5165 0.8082
vn -0.5939 0.6908 0.4123
vn -0.7925 0.2723 0.5457
vn 0.1208 0.1562 0.9803
vn 0.8448 0.2513 0.4725
vn 0.7719 -0.0487 0.6339
vn 0.9853 0.0078 -0.1709
vn 0.9717 -0.2218 -0.0817
vn 0.3355 -0.0059 -0.9420
vn 0.3217 -0.2324 -0.9179
vn -0.6478 0.4135 -0.6398
vn -0.7973 0.0610 -0.6005
vn 0.3689 0.8796 -0.3004
vn -0.8262 0.5011 0.2574
vn -0.6015 0.5418 0.5871
vn -0.4985 0.7095 0.4982
vn -0.7105 0.6792 0.1842
vn -0.5405 0.5736 0.6156
vn -0.4331 0.7194 0.5430
vn -0.5247 0.5694 0.6328
vn -0.4103 0.7002 0.5843
vn -0.2325 0.5185 0.8229
vn -0.1489 0.6459 0.7488
vn -0.3773 0.8374 0.3954
vn -0.6372 0.7697 0.0397
vn -0.3753 0.8186 0.4347
vn -0.3778 0.8162 0.4372
vn -0.1131 0.7595 0.6406
vn -0.2549 0.9249 0.2819
vn -0.5887 0.8037 -0.0868
vn -0.2951 0.9140 0.2784
vn -0.4739 0.8773 0.0764
vn -0.2871 0.9073 0.3071
vn 0.0540 0.9209 0.3860
vn 0.0267 0.9498 0.3117
vn -0.2132 0.9683 0.1298
vn -0.5539 0.8071 -0.2045
vn -0.6094 0.7550 -0.2420
vn -0.8819 0.3948 0.2575
vn -0.6575 0.4360 0.6145
vn -0.8573 0.4483 0.2529
vn -0.3743 0.4312 0.8210
vn -0.6298 0.4806 0.6102
vn -0.4259 0.4086 0.8072
vn -0.8595 0.4075 0.3085
vn 0.8269 -0.5005 -0.2563
vn 0.7107 -0.6793 -0.1828
vn 0.4988 -0.7097 -0.4975
vn 0.6018 -0.5418 -0.5868
vn 0.4331 -0.7198 -0.5425
vn 0.5405 -0.5734 -0.6156
vn 0.4102 -0.7003 -0.5842
vn 0.5249 -0.5693 -0.6328
vn 0.1480 -0.6460 -0.7489
vn 0.2320 -0.5180 -0.8233
vn 0.6376 -0.7694 -0.0380
vn 0.3776 -0.8374 -0.3952
vn 0.3758 -0.8186 -0.4343
vn 0.3781 -0.8162 -0.4368
vn 0.1124 -0.7594 -0.6408
vn 0.5901 -0.8026 0.0878
vn 0.2548 -0.9245 -0.2835
vn 0.2943 -0.9135 -0.2810
vn 0.4737 -0.8773 -0.0778
vn 0.2866 -0.9071 -0.3083
vn -0.0561 -0.9202 -0.3874
vn -0.0273 -0.9498 -0.3118
vn 0.2130 -0.9684 -0.1298
vn 0.5543 -0.8068 0.2046
vn 0.6096 -0.7550 0.2414
vn 0.8826 -0.3944 -0.2560
vn 0.6573 -0.4361 -0.6146
vn 0.8575 -0.4480 -0.2529
vn 0.8596 -0.4076 -0.3082
vn 0.3740 -0.4313 -0.8211
vn 0.6295 -0.4804 -0.6107
vn 0.4251 -0.4086 -0.8077
vn -0.9966 0.0746 -0.0337
vn -0.9947 0.0806 -0.0641
vn -0.3902 0.1527 -0.9080
vn -0.4083 0.0988 -0.9075
vn -0.7364 -0.0104 0.6764
vn -0.7507 -0.0421 0.6593
vn -0.0502 -0.0983 0.9939
vn -0.0582 -0.1431 0.9880
vn 0.8523 -0.1354 0.5053
vn 0.8688 -0.1433 0.4740
vn 0.7518 -0.0251 -0.6590
vn 0.7367 0.0291 -0.6756
vn -0.8450 0.5165 0.1384
vn -0.3030 0.6908 -0.6565
vn -0.3998 0.2723 -0.8752
vn -0.9864 0.1561 -0.0512
vn -0.6119 0.2514 0.7499
vn -0.7582 -0.0488 0.6501
vn -0.0028 0.0077 1.0000
vn -0.0883 -0.2218 0.9711
vn 0.8694 -0.0059 0.4941
vn 0.8480 -0.2324 0.4763
vn 0.7426 0.4135 -0.5269
vn 0.7299 0.0610 -0.6808
vn 0.2317 0.8796 0.4154
vn -0.1100 0.5011 -0.8584
vn -0.4737 0.5418 -0.6943
vn -0.4041 0.7095 -0.5774
vn -0.0581 0.6792 -0.7317
vn -0.5124 0.5736 -0.6392
vn -0.4595 0.7194 -0.5208
vn -0.5321 0.5694 -0.6266
vn -0.5042 0.7002 -0.5055
vn -0.7700 0.5185 -0.3719
vn -0.7116 0.6459 -0.2766
vn -0.3239 0.8374 -0.4402
vn 0.0716 0.7697 -0.6344
vn -0.3630 0.8186 -0.4451
vn -0.3650 0.8162 -0.4479
vn -0.6112 0.7595 -0.2226
vn -0.2334 0.9249 -0.3000
vn 0.1877 0.8037 -0.5647
vn -0.2229 0.9140 -0.3390
vn 0.0070 0.8773 -0.4799
vn -0.2526 0.9073 -0.3360
vn -0.3895 0.9209 -0.0138
vn -0.3116 0.9498 -0.0278
vn -0.0909 0.9683 -0.2325
vn 0.2976 0.8071 -0.5099
vn 0.3442 0.7550 -0.5581
vn -0.1004 0.3948 -0.9132
vn -0.4910 0.4361 -0.7542
vn -0.1002 0.4484 -0.8882
vn -0.7435 0.4312 -0.5111
vn -0.4915 0.4806 -0.7262
vn -0.7210 0.4087 -0.5596
vn -0.1546 0.4076 -0.9000
vn 0.1089 -0.5005 0.8589
vn 0.0566 -0.6793 0.7317
vn 0.4033 -0.7097 0.5776
vn 0.4734 -0.5418 0.6946
vn 0.4591 -0.7198 0.5207
vn 0.5124 -0.5734 0.6392
vn 0.5041 -0.7003 0.5054
vn 0.5320 -0.5693 0.6268
vn 0.7117 -0.6460 0.2758
vn 0.7705 -0.5180 0.3715
vn -0.0733 -0.7695 0.6345
vn 0.3236 -0.8374 0.4405
vn 0.3625 -0.8186 0.4455
vn 0.3646 -0.8162 0.4482
vn 0.6116 -0.7594 0.2220
vn -0.1889 -0.8026 0.5658
vn 0.2349 -0.9245 0.3001
vn 0.2256 -0.9135 0.3386
vn -0.0057 -0.8773 0.4800
vn 0.2538 -0.9071 0.3357
vn 0.3912 -0.9202 0.0121
vn 0.3118 -0.9497 0.0272
vn 0.0909 -0.9684 0.2323
vn -0.2977 -0.8068 0.5104
vn -0.3436 -0.7550 0.5585
vn 0.0989 -0.3944 0.9136
vn 0.4912 -0.4361 0.7540
vn 0.1001 -0.4480 0.8884
vn 0.1542 -0.4075 0.9001
vn 0.7436 -0.4313 0.5109
vn 0.4920 -0.4804 0.7260
vn 0.7216 -0.4086 0.5589
s 1
f 1/1/1 2/2/2 3/3/3
f 3/3/3 4/4/4 1/1/1
f 5/5/5 6/6/6 2/2/2
f 2/2/2 1/1/1 5/5/5
f 7/7/7 8/8/8 6/9/6
f 6/9/6 5/10/5 7/7/7
f 9/11/9 10/12/10 8/8/8
f 8/8/8 7/7/7 9/11/9
f 11/13/11 12/14/12 10/12/10
f 10/12/10 9/11/9 11/13/11
f 4/4/4 3/3/3 12/15/12
f 12/15/12 11/16/11 4/4/4
f 13/17/13 14/18/14 15/19/15
f 15/19/15 16/20/16 13/17/13
f 17/21/17 13/17/13 16/20/16
f 16/20/16 18/22/18 17/21/17
f 19/23/19 17/24/17 18/25/18
f 18/25/18 20/26/20 19/23/19
f 21/27/21 19/23/19 20/26/20
f 20/26/20 22/28/22 21/27/21
f 23/29/23 21/27/21 22/28/22
f 22/28/22 24/30/24 23/29/23
f 14/18/14 23/31/23 24/32/24
f 24/32/24 15/19/15 14/18/14
f 16/20/16 15/19/15 3/3/3
f 3/3/3 2/2/2 16/20/16
f 18/22/18 16/20/16 2/2/2
f 2/2/2 6/6/6 18/22/18
f 20/26/20 18/25/18 6/9/6
f 6/9/6 8/8/8 20/26/20
f 10/12/10 22/28/22 20/26/20
f 20/26/20 8/8/8 10/12/10
f 12/14/12 24/30/24 22/28/22
f 22/28/22 10/12/10 12/14/12
f 3/3/3 15/19/15 24/32/24
f 24/32/24 12/15/12 3/3/3
f 13/17/13 25/33/25 14/18/14
f 17/21/17 25/33/25 13/17/13
f 19/23/19 25/33/25 17/24/17
f 21/27/21 25/33/25 19/23/19
f 23/29/23 25/33/25 21/27/21
f 14/18/14 25/33/25 23/31/23
s 2
f 26/34/26 27/35/27 28/36/28
f 28/36/28 29/37/29 26/34/26
f 27/35/27 30/38/30 31/39/31
f 31/39/31 28/36/28 27/35/27
f 31/39/31 30/38/30 32/40/32
f 32/40/32 33/41/33 31/39/31
f 33/41/33 32/40/32 34/42/34
f 34/42/34 35/43/35 33/41/33
f 29/37/29 28/36/28 36/44/36
f 36/44/36 37/45/37 29/37/29
f 28/36/28 31/39/31 38/46/38
f 38/46/38 36/44/36 28/36/28
f 31/39/31 33/41/33 39/47/39
f 39/47/39 38/46/38 31/39/31
f 33/41/33 35/43/35 40/48/40
f 40/48/40 39/47/39 33/41/33
f 37/45/37 36/44/36 41/49/41
f 41/49/41 42/50/42 37/45/37
f 36/44/36 38/46/38 43/51/43
f 43/51/43 41/49/41 36/44/36
f 38/46/38 39/47/39 44/52/44
f 44/52/44 43/51/43 38/46/38
f 44/52/44 39/47/39 45/53/45
f 46/54/46 41/49/41 47/55/47
f 41/49/41 43/51/43 48/56/48
f 48/56/48 47/55/47 41/49/41
f 43/51/43 44/52/44 49/57/49
f 49/57/49 48/56/48 43/51/43
f 49/57/49 44/52/44 50/58/50
f 26/34/26 51/59/51 27/35/27
f 27/35/27 52/60/52 30/38/30
f 30/38/30 53/61/53 32/40/32
f 32/40/32 54/62/54 34/42/34
f 44/52/44 45/53/45 50/58/50
f 46/54/46 42/50/42 41/49/41
f 32/40/32 55/63/55 54/62/54
f 32/40/32 53/61/53 55/63/55
f 51/59/51 52/60/52 27/35/27
f 30/38/30 56/64/56 57/65/57
s 3
f 58/66/58 59/67/59 60/68/60
f 60/68/60 61/69/61 58/66/58
f 61/69/61 60/68/60 62/70/62
f 62/70/62 63/71/63 61/69/61
f 62/70/62 64/72/64 65/73/65
f 65/73/65 63/71/63 62/70/62
f 64/72/64 66/74/66 67/75/67
f 67/75/67 65/73/65 64/72/64
f 59/67/59 68/76/68 69/77/69
f 69/77/69 60/68/60 59/67/59
f 60/68/60 69/77/69 70/78/70
f 70/78/70 62/70/62 60/68/60
f 62/70/62 70/78/70 71/79/71
f 71/79/71 64/72/64 62/70/62
f 64/72/64 71/79/71 72/80/72
f 72/80/72 66/74/66 64/72/64
f 68/76/68 73/81/73 74/82/74
f 74/82/74 69/77/69 68/76/68
f 69/77/69 74/82/74 75/83/75
f 75/83/75 70/78/70 69/77/69
f 70/78/70 75/83/75 76/84/76
f 76/84/76 71/79/71 70/78/70
f 76/84/76 77/85/77 71/79/71
f 78/86/78 79/87/79 74/82/74
f 74/82/74 79/87/79 80/88/80
f 80/88/80 75/83/75 74/82/74
f 75/83/75 80/88/80 81/89/81
f 81/89/81 76/84/76 75/83/75
f 81/89/81 82/90/82 76/84/76
f 58/66/58 61/69/61 83/91/83
f 61/69/61 63/71/63 84/92/84
f 63/71/63 85/93/85 86/94/86
f 65/73/65 67/75/67 87/95/87
f 76/84/76 82/90/82 77/85/77
f 78/86/78 74/82/74 73/81/73
f 65/73/65 87/95/87 88/96/88
f 65/73/65 88/96/88 85/93/85
f 83/91/83 61/69/61 84/92/84
f 63/71/63 86/94/86 89/97/89
s 2
f 52/60/52 56/64/56 30/38/30
f 30/38/30 57/65/57 53/61/53
s 3
f 63/71/63 89/97/89 84/92/84
f 63/71/63 65/73/65 85/93/85
s 2
f 39/47/39 40/48/40 45/53/45
s 3
f 77/85/77 72/80/72 71/79/71
s 4
f 90/98/90 91/99/91 92/100/92
f 92/100/92 93/101/93 90/98/90
f 94/102/94 95/103/95 91/99/91
f 91/99/91 90/98/90 94/102/94
f 96/104/96 97/105/97 95/106/95
f 95/106/95 94/107/94 96/104/96
f 98/108/98 99/109/99 97/105/97
f 97/105/97 96/104/96 98/108/98
f 100/110/100 101/111/101 99/109/99
f 99/109/99 98/108/98 100/110/100
f 93/101/93 92/100/92 101/112/101
f 101/112/101 100/113/100 93/101/93
f 102/114/102 103/115/103 104/116/104
f 104/116/104 105/117/105 102/114/102
f 106/118/106 102/114/102 105/117/105
f 105/117/105 107/119/107 106/118/106
f 108/120/108 106/121/106 107/122/107
f 107/122/107 109/123/109 108/120/108
f 110/124/110 108/120/108 109/123/109
f 109/123/109 111/125/111 110/124/110
f 112/126/112 110/124/110 111/125/111
f 111/125/111 113/127/113 112/126/112
f 103/115/103 112/128/112 113/129/113
f 113/129/113 104/116/104 103/115/103
f 105/117/105 104/116/104 92/100/92
f 92/100/92 91/99/91 105/117/105
f 107/119/107 105/117/105 91/99/91
f 91/99/91 95/103/95 107/119/107
f 109/123/109 107/122/107 95/106/95
f 95/106/95 97/105/97 109/123/109
f 99/109/99 111/125/111 109/123/109
f 109/123/109 97/105/97 99/109/99
f 101/111/101 113/127/113 111/125/111
f 111/125/111 99/109/99 101/111/101
f 92/100/92 104/116/104 113/129/113
f 113/129/113 101/112/101 92/100/92
f 102/114/102 114/130/114 103/115/103
f 106/118/106 114/130/114 102/114/102
f 108/120/108 114/130/114 106/121/106
f 110/124/110 114/130/114 108/120/108
f 112/126/112 114/130/114 110/124/110
f 103/115/103 114/130/114 112/128/112
s 5
f 115/131/115 116/132/116 117/133/117
f 117/133/117 118/134/118 115/131/115
f 116/132/116 119/135/119 120/136/120
f 120/136/120 117/133/117 116/132/116
f 120/136/120 119/135/119 121/137/121
f 121/137/121 122/138/122 120/136/120
f 122/138/122 121/137/121 123/139/123
f 123/139/123 124/140/124 122/138/122
f 118/134/118 117/133/117 125/141/125
f 125/141/125 126/142/126 118/134/118
f 117/133/117 120/136/120 127/143/127
f 127/143/127 125/141/125 117/133/117
f 120/136/120 122/138/122 128/144/128
f 128/144/128 127/143/127 120/136/120
f 122/138/122 124/140/124 129/145/129
f 129/145/129 128/144/128 122/138/122
f 126/142/126 125/141/125 130/146/130
f 130/146/130 131/147/131 126/142/126
f 125/141/125 127/143/127 132/148/132
f 132/148/132 130/146/130 125/141/125
f 127/143/127 128/144/128 133/149/133
f 133/149/133 132/148/132 127/143/127
f 133/149/133 128/144/128 134/150/134
f 135/151/135 130/146/130 136/152/136
f 130/146/130 132/148/132 137/153/137
f 137/153/137 136/152/136 130/146/130
f 132/148/132 133/149/133 138/154/138
f 138/154/138 137/153/137 132/148/132
f 138/154/138 133/149/133 139/155/139
f 115/131/115 140/156/140 116/132/116
f 116/132/116 141/157/141 119/135/119
f 119/135/119 142/158/142 121/137/121
f 121/137/121 143/159/143 123/139/123
f 133/149/133 134/150/134 139/155/139
f 135/151/135 131/147/131 130/146/130
f 121/137/121 144/160/144 143/159/143
f 121/137/121 142/158/142 144/160/144
f 140/156/140 141/157/141 116/132/116
f 119/135/119 145/161/145 146/162/146
s 6
f 147/163/147 148/164/148 149/165/149
f 149/165/149 150/166/150 147/163/147
f 150/166/150 149/165/149 151/167/151
f 151/167/151 152/168/152 150/166/150
f 151/167/151 153/169/153 154/170/154
f 154/170/154 152/168/152 151/167/151
f 153/169/153 155/171/155 156/172/156
f 156/172/156 154/170/154 153/169/153
f 148/164/148 157/173/157 158/174/158
f 158/174/158 149/165/149 148/164/148
f 149/165/149 158/174/158 159/175/159
f 159/175/159 151/167/151 149/165/149
f 151/167/151 159/175/159 160/176/160
f 160/176/160 153/169/153 151/167/151
f 153/169/153 160/176/160 161/177/161
f 161/177/161 155/171/155 153/169/153
f 157/173/157 162/178/162 163/179/163
f 163/179/163 158/174/158 157/173/157
f 158/174/158 163/179/163 164/180/164
f 164/180/164 159/175/159 158/174/158
f 159/175/159 164/180/164 165/181/165
f 165/181/165 160/176/160 159/175/159
f 165/181/165 166/182/166 160/176/160
f 167/183/167 168/184/168 163/179/163
f 163/179/163 168/184/168 169/185/169
f 169/185/169 164/180/164 163/179/163
f 164/180/164 169/185/169 170/186/170
f 170/186/170 165/181/165 164/180/164
f 170/186/170 171/187/171 165/181/165
f 147/163/147 150/166/150 172/188/172
f 150/166/150 152/168/152 173/189/173
f 152/168/152 174/190/174 175/191/175
f 154/170/154 156/172/156 176/192/176
f 165/181/165 171/187/171 166/182/166
f 167/183/167 163/179/163 162/178/162
f 154/170/154 176/192/176 177/193/177
f 154/170/154 177/193/177 174/190/174
f 172/188/172 150/166/150 173/189/173
f 152/168/152 175/191/175 178/194/178
s 5
f 141/157/141 145/161/145 119/135/119
f 119/135/119 146/162/146 142/158/142
s 6
f 152/168/152 178/194/178 173/189/173
f 152/168/152 154/170/154 174/190/174
s 5
f 128/144/128 129/145/129 134/150/134
s 6
f 166/182/166 161/177/161 160/176/160
s 7
f 179/195/179 180/196/180 181/197/181
f 181/197/181 182/198/182 179/195/179
f 183/199/183 184/200/184 180/196/180
f 180/196/180 179/195/179 183/199/183
f 185/201/185 186/202/186 184/203/184
f 184/203/184 183/204/183 185/201/185
f 187/205/187 188/206/188 186/202/186
f 186/202/186 185/201/185 187/205/187
f 189/207/189 190/208/190 188/206/188
f 188/206/188 187/205/187 189/207/189
f 182/198/182 181/197/181 190/209/190
f 190/209/190 189/210/189 182/198/182
f 191/211/191 192/212/192 193/213/193
f 193/213/193 194/214/194 191/211/191
f 195/215/195 191/211/191 194/214/194
f 194/214/194 196/216/196 195/215/195
f 197/217/197 195/218/195 196/219/196
f 196/219/196 198/220/198 197/217/197
f 199/221/199 197/217/197 198/220/198
f 198/220/198 200/222/200 199/221/199
f 201/223/201 199/221/199 200/222/200
f 200/222/200 202/224/202 201/223/201
f 192/212/192 201/225/201 202/226/202
f 202/226/202 193/213/193 192/212/192
f 194/214/194 193/213/193 181/197/181
f 181/197/181 180/196/180 194/214/194
f 196/216/196 194/214/194 180/196/180
f 180/196/180 184/200/184 196/216/196
f 198/220/198 196/219/196 184/203/184
f 184/203/184 186/202/186 198/220/198
f 188/206/188 200/222/200 198/220/198
f 198/220/198 186/202/186 188/206/188
f 190/208/190 202/224/202 200/222/200
f 200/222/200 188/206/188 190/208/190
f 181/197/181 193/213/193 202/226/202
f 202/226/202 190/209/190 181/197/181
f 191/211/191 203/227/203 192/212/192
f 195/215/195 203/227/203 191/211/191
f 197/217/197 203/227/203 195/218/195
f 199/221/199 203/227/203 197/217/197
f 201/223/201 203/227/203 199/221/199
f 192/212/192 203/227/203 201/225/201
s 8
f 204/228/204 205/229/205 206/230/206
f 206/230/206 207/231/207 204/228/204
f 205/229/205 208/232/208 209/233/209
f 209/233/209 206/230/206 205/229/205
f 209/233/209 208/232/208 210/234/210
f 210/234/210 211/235/211 209/233/209
f 211/235/211 210/234/210 212/236/212
f 212/236/212 213/237/213 211/235/211
f 207/231/207 206/230/206 214/238/214
f 214/238/214 215/239/215 207/231/207
f 206/230/206 209/233/209 216/240/216
f 216/240/216 214/238/214 206/230/206
f 209/233/209 211/235/211 217/241/217
f 217/241/217 216/240/216 209/233/209
f 211/235/211 213/237/213 218/242/218
f 218/242/218 217/241/217 211/235/211
f 215/239/215 214/238/214 219/243/219
f 219/243/219 220/244/220 215/239/215
f 214/238/214 216/240/216 221/245/221
f 221/245/221 219/243/219 214/238/214
f 216/240/216 217/241/217 222/246/222
f 222/246/222 221/245/221 216/240/216
f 222/246/222 217/241/217 223/247/223
f 224/248/224 219/243/219 225/249/225
f 219/243/219 221/245/221 226/250/226
f 226/250/226 225/249/225 219/243/219
f 221/245/221 222/246/222 227/251/227
f 227/251/227 226/250/226 221/245/221
f 227/251/227 222/246/222 228/252/228
f 204/228/204 229/253/229 205/229/205
f 205/229/205 230/254/230 208/232/208
f 208/232/208 231/255/231 210/234/210
f 210/234/210 232/256/232 212/236/212
f 222/246/222 223/247/223 228/252/228
f 224/248/224 220/244/220 219/243/219
f 210/234/210 233/257/233 232/256/232
f 210/234/210 231/255/231 233/257/233
f 229/253/229 230/254/230 205/229/205
f 208/232/208 234/258/234 235/259/235
s 9
f 236/260/236 237/261/237 238/262/238
f 238/262/238 239/263/239 236/260/236
f 239/263/239 238/262/238 240/264/240
f 240/264/240 241/265/241 239/263/239
f 240/264/240 242/266/242 243/267/243
f 243/267/243 241/265/241 240/264/240
f 242/266/242 244/268/244 245/269/245
f 245/269/245 243/267/243 242/266/242
f 237/261/237 246/270/246 247/271/247
f 247/271/247 238/262/238 237/261/237
f 238/262/238 247/271/247 248/272/248
f 248/272/248 240/264/240 238/262/238
f 240/264/240 248/272/248 249/273/249
f 249/273/249 242/266/242 240/264/240
f 242/266/242 249/273/249 250/274/250
f 250/274/250 244/268/244 242/266/242
f 246/270/246 251/275/251 252/276/252
f 252/276/252 247/271/247 246/270/246
f 247/271/247 252/276/252 253/277/253
f 253/277/253 248/272/248 247/271/247
f 248/272/248 253/277/253 254/278/254
f 254/278/254 249/273/249 248/272/248
f 254/278/254 255/279/255 249/273/249
f 256/280/256 257/281/257 252/276/252
f 252/276/252 257/281/257 258/282/258
f 258/282/258 253/277/253 252/276/252
f 253/277/253 258/282/258 259/283/259
f 259/283/259 254/278/254 253/277/253
f 259/283/259 260/284/260 254/278/254
f 236/260/236 239/263/239 261/285/261
f 239/263/239 241/265/241 262/286/262
f 241/265/241 263/287/263 264/288/264
f 243/267/243 245/269/245 265/289/265
f 254/278/254 260/284/260 255/279/255
f 256/280/256 252/276/252 251/275/251
f 243/267/243 265/289/265 266/290/266
f 243/267/243 266/290/266 263/287/263
f 261/285/261 239/263/239 262/286/262
f 241/265/241 264/288/264 267/291/267
s 8
f 230/254/230 234/258/234 208/232/208
f 208/232/208 235/259/235 231/255/231
s 9
f 241/265/241 267/291/267 262/286/262
f 241/265/241 243/267/243 263/287/263
s 8
f 217/241/217 218/242/218 223/247/223
s 9
f 255/279/255 250/274/250 249/273/249
