# Blender v3.3.0 OBJ File: ''
# www.blender.org
o DargaFernDead.005
v 0.006326 -0.012558 -0.011866
v 0.005767 0.083478 -0.012836
v -0.004970 0.083478 -0.007829
v -0.003178 -0.012558 -0.007435
v 0.007378 -0.012558 -0.017278
v 0.006955 0.083478 -0.018950
v 0.005048 -0.012558 -0.022274
v 0.004323 0.083478 -0.024595
v -0.005245 -0.012558 -0.024275
v -0.007307 0.083478 -0.026856
v -0.010329 -0.012558 -0.015104
v -0.013051 0.083478 -0.016493
v 0.007439 0.252386 -0.104802
v -0.003174 0.256606 -0.101791
v -0.001404 0.195090 -0.040256
v 0.009334 0.192689 -0.044577
v 0.008524 0.247645 -0.108690
v 0.010522 0.189755 -0.049853
v 0.005812 0.243397 -0.112345
v 0.007890 0.187047 -0.054724
v -0.005808 0.242060 -0.113996
v -0.003740 0.185963 -0.056675
v -0.011361 0.250224 -0.107473
v -0.009484 0.190934 -0.047733
v -0.001432 0.254218 -0.116324
v -0.075979 0.271936 -0.146944
v -0.034046 0.295016 -0.135904
v -0.039156 0.347598 -0.253507
v -0.082714 0.321735 -0.262537
v -0.002310 0.285490 -0.150656
v -0.004533 0.331485 -0.259082
v 0.036025 0.294315 -0.136538
v 0.038630 0.346379 -0.253924
v 0.070745 0.280522 -0.149779
v 0.073181 0.327315 -0.260550
v -0.034659 0.311492 -0.419786
v -0.072314 0.295565 -0.402159
v -0.004654 0.300586 -0.407570
v 0.031111 0.312384 -0.418976
v 0.063756 0.302707 -0.407522
v -0.026458 0.193541 -0.477150
v -0.049208 0.194086 -0.460205
v -0.005241 0.194716 -0.462114
v 0.015780 0.195081 -0.479163
v 0.036165 0.195724 -0.480298
v -0.029679 0.134409 -0.472400
v -0.008723 0.105720 -0.463064
v -0.000154 0.099985 -0.461269
v 0.004070 0.108047 -0.463913
v 0.017224 0.136004 -0.475856
v -0.056733 0.228726 -0.085556
v -0.029909 0.241076 -0.072476
v 0.013573 0.241676 -0.081107
v 0.056393 0.244879 -0.087676
v 0.032224 0.243851 -0.074845
v -0.004104 0.235135 -0.090068
v 0.003886 0.235111 -0.090615
v -0.075718 0.270957 -0.147766
v -0.082452 0.320534 -0.262962
v -0.039127 0.346351 -0.253954
v -0.033989 0.294007 -0.136751
v -0.004533 0.330248 -0.259521
v -0.002310 0.284478 -0.151505
v 0.038492 0.345138 -0.254369
v 0.035888 0.293300 -0.137390
v 0.072790 0.326172 -0.260956
v 0.070354 0.279584 -0.150565
v -0.072035 0.294682 -0.401223
v -0.034590 0.310601 -0.418802
v -0.004644 0.299699 -0.406595
v 0.030962 0.311479 -0.418046
v 0.063369 0.301848 -0.406648
v -0.048945 0.194404 -0.458963
v -0.026297 0.193885 -0.475905
v -0.005212 0.194999 -0.460841
v 0.015788 0.195289 -0.477836
v 0.036168 0.195877 -0.478951
v -0.029544 0.134816 -0.471161
v -0.008717 0.106128 -0.461806
v -0.000148 0.100393 -0.460012
v 0.004076 0.108454 -0.462656
v 0.017231 0.136333 -0.474587
v -0.056472 0.227747 -0.086378
v -0.029793 0.240081 -0.073311
v 0.013573 0.240664 -0.081957
v 0.003886 0.234098 -0.091465
v 0.056166 0.243890 -0.088505
v 0.032192 0.242827 -0.075704
v -0.004093 0.234116 -0.090923
v -0.007728 -0.025485 -0.011122
v -0.008787 0.181710 -0.010548
v -0.003485 0.181710 -0.001365
v -0.003036 -0.025485 -0.002994
v -0.012635 -0.025485 -0.011637
v -0.014331 0.181710 -0.011130
v -0.016908 -0.025485 -0.009170
v -0.019159 0.181710 -0.008343
v -0.017889 -0.025485 0.000163
v -0.020268 0.181710 0.002203
v -0.009316 -0.025485 0.003980
v -0.010581 0.181710 0.006516
v -0.079110 0.368635 -0.007937
v -0.074529 0.371986 0.000982
v -0.021246 0.280576 -0.003381
v -0.025936 0.278426 -0.012618
v -0.083917 0.365839 -0.008300
v -0.030733 0.275801 -0.013266
v -0.088109 0.363663 -0.005342
v -0.034870 0.273377 -0.010539
v -0.089091 0.363942 0.005180
v -0.035702 0.272406 -0.000017
v -0.080698 0.369086 0.009089
v -0.027282 0.276855 0.004407
v -0.087544 0.374486 0.000230
v -0.092405 0.381565 0.058087
v -0.079802 0.393843 0.023258
v -0.169485 0.459303 0.025960
v -0.183970 0.448025 0.062357
v -0.096695 0.385730 -0.000913
v -0.184280 0.445959 -0.000036
v -0.084692 0.385458 -0.031968
v -0.177671 0.450629 -0.035243
v -0.101500 0.372982 -0.058220
v -0.194596 0.435509 -0.060946
v -0.280929 0.472969 0.026233
v -0.274790 0.455813 0.057093
v -0.284000 0.455213 0.003560
v -0.288545 0.466040 -0.025496
v -0.291677 0.449257 -0.050348
v -0.388304 0.433540 0.029678
v -0.375229 0.426476 0.047867
v -0.379903 0.421707 0.013248
v -0.392321 0.429656 -0.003668
v -0.394427 0.427821 -0.019756
v -0.450869 0.384039 0.040119
v -0.464821 0.357207 0.026463
v -0.468041 0.351254 0.020293
v -0.465020 0.357342 0.016189
v -0.456175 0.380425 0.003072
v -0.058759 0.333741 0.045312
v -0.045919 0.338786 0.023241
v -0.054633 0.335186 -0.011079
v -0.061070 0.333586 -0.045068
v -0.049291 0.333591 -0.025955
v -0.063120 0.333314 0.003351
v -0.063833 0.332356 -0.002947
v -0.093365 0.380899 0.057985
v -0.184862 0.447272 0.062272
v -0.170393 0.458547 0.026062
v -0.080779 0.393181 0.023319
v -0.185174 0.445210 0.000088
v -0.097671 0.385073 -0.000806
v -0.178559 0.449894 -0.035009
v -0.085663 0.384815 -0.031752
v -0.195385 0.434857 -0.060520
v -0.102381 0.372418 -0.057810
v -0.274789 0.454637 0.056971
v -0.280874 0.471780 0.026276
v -0.283941 0.454039 0.003650
v -0.288504 0.464899 -0.025280
v -0.291612 0.448206 -0.049948
v -0.374264 0.425852 0.047685
v -0.387314 0.432945 0.029574
v -0.378922 0.421076 0.013253
v -0.391351 0.428946 -0.003638
v -0.393476 0.427066 -0.019717
v -0.449840 0.383492 0.040028
v -0.463770 0.356666 0.026474
v -0.466990 0.350714 0.020304
v -0.463969 0.356802 0.016201
v -0.455165 0.379827 0.003091
v -0.059657 0.332995 0.045204
v -0.046826 0.338047 0.023248
v -0.055552 0.334450 -0.010979
v -0.064752 0.331620 -0.002847
v -0.061962 0.332896 -0.044791
v -0.050221 0.332851 -0.025829
v -0.064046 0.332572 0.003443
v 0.024545 -0.025485 -0.014700
v 0.025366 0.225275 -0.015273
v 0.020064 0.225275 -0.024456
v 0.019853 -0.025485 -0.022827
v 0.029452 -0.025485 -0.014184
v 0.030910 0.225275 -0.014691
v 0.033725 -0.025485 -0.016651
v 0.035738 0.225275 -0.017478
v 0.034706 -0.025485 -0.025984
v 0.036846 0.225275 -0.028024
v 0.026132 -0.025485 -0.029801
v 0.027159 0.225275 -0.032337
v 0.118539 0.467448 -0.002559
v 0.112944 0.472548 -0.009939
v 0.043280 0.364092 -0.022440
v 0.047970 0.361942 -0.013204
v 0.123317 0.464702 -0.003386
v 0.052767 0.359317 -0.012555
v 0.127086 0.463256 -0.007227
v 0.056905 0.356893 -0.015282
v 0.126775 0.465764 -0.017492
v 0.057737 0.355922 -0.025804
v 0.118035 0.471507 -0.019168
v 0.049316 0.360371 -0.030228
v 0.125984 0.475003 -0.010275
v 0.120896 0.499239 -0.059659
v 0.114664 0.500530 -0.025892
v 0.200342 0.585756 -0.023482
v 0.210641 0.590013 -0.058290
v 0.135565 0.485507 -0.006736
v 0.222395 0.569265 -0.002892
v 0.129101 0.475684 0.021908
v 0.221077 0.561247 0.029530
v 0.150224 0.455765 0.042338
v 0.245562 0.543741 0.049503
v 0.320040 0.628621 -0.048061
v 0.305852 0.619604 -0.074607
v 0.333785 0.605847 -0.032586
v 0.346818 0.608985 -0.007976
v 0.361258 0.586544 0.009459
v 0.419680 0.612153 -0.083440
v 0.403382 0.606215 -0.095261
v 0.421203 0.594611 -0.068156
v 0.436238 0.601501 -0.057041
v 0.444364 0.596447 -0.044360
v 0.483604 0.586275 -0.123210
v 0.507630 0.561773 -0.120897
v 0.514202 0.555604 -0.117746
v 0.511478 0.559441 -0.112172
v 0.502564 0.575340 -0.094083
v 0.089121 0.448189 -0.052093
v 0.080319 0.446271 -0.030685
v 0.094943 0.432479 -0.001207
v 0.107277 0.420711 0.028426
v 0.092233 0.426347 0.012283
v 0.100808 0.435129 -0.015017
v 0.102609 0.432295 -0.009578
v 0.121863 0.498562 -0.059829
v 0.211702 0.589508 -0.058460
v 0.201386 0.585310 -0.023821
v 0.115619 0.499908 -0.026209
v 0.223421 0.568829 -0.003248
v 0.136510 0.484903 -0.007093
v 0.222074 0.560854 0.029079
v 0.130022 0.475126 0.021456
v 0.246410 0.543457 0.048897
v 0.151024 0.455342 0.041730
v 0.306047 0.618426 -0.074768
v 0.320127 0.627467 -0.048346
v 0.333849 0.604719 -0.032907
v 0.346848 0.607928 -0.008404
v 0.361186 0.585620 0.008897
v 0.402718 0.605287 -0.094933
v 0.418957 0.611265 -0.083164
v 0.420458 0.593717 -0.067983
v 0.435513 0.600543 -0.056905
v 0.443666 0.595455 -0.044247
v 0.482830 0.585424 -0.122924
v 0.506797 0.560946 -0.120689
v 0.513371 0.554778 -0.117538
v 0.510646 0.558614 -0.111963
v 0.501781 0.574474 -0.093905
v 0.090025 0.447431 -0.052263
v 0.081213 0.445556 -0.030958
v 0.095833 0.431794 -0.001564
v 0.103498 0.431610 -0.009935
v 0.108108 0.420125 0.027919
v 0.093128 0.425666 0.011902
v 0.101706 0.434436 -0.015368
v -0.008746 -0.024494 0.006874
v -0.009452 0.218684 0.035137
v 0.000069 0.218684 0.033458
v -0.000319 -0.024494 0.005388
v -0.010718 -0.024494 0.010917
v -0.011680 0.218684 0.039705
v -0.009937 -0.024494 0.015347
v -0.010798 0.218684 0.044711
v -0.002246 -0.024494 0.019099
v -0.002108 0.218684 0.048950
v 0.003698 -0.024494 0.012943
v 0.004608 0.218684 0.041995
v -0.011489 0.382775 0.075915
v -0.003080 0.386334 0.072825
v 0.002957 0.303413 0.049355
v -0.006460 0.301768 0.050645
v -0.012613 0.381501 0.080703
v -0.008561 0.299759 0.054739
v -0.010792 0.381284 0.085442
v -0.007561 0.297903 0.059306
v -0.001953 0.383921 0.088240
v 0.001176 0.297161 0.063369
v 0.002814 0.387042 0.080442
v 0.007677 0.300566 0.057219
v -0.007298 0.391524 0.082911
v 0.056472 0.411455 0.082705
v 0.022936 0.422115 0.071117
v 0.013744 0.500870 0.111401
v 0.047980 0.494788 0.127058
v -0.004556 0.418635 0.087714
v -0.015392 0.489870 0.125091
v -0.034911 0.417950 0.078433
v -0.049888 0.491291 0.117262
v -0.064748 0.410640 0.095691
v -0.079124 0.479039 0.133065
v -0.006102 0.559605 0.191573
v 0.024910 0.558341 0.202232
v -0.027268 0.539579 0.200638
v -0.055875 0.536557 0.192919
v -0.079105 0.516259 0.201126
v -0.027769 0.571781 0.283264
v -0.007128 0.568686 0.282289
v -0.039239 0.551631 0.283128
v -0.058619 0.555512 0.283311
v -0.073553 0.547784 0.283413
v -0.028763 0.555864 0.336801
v -0.041698 0.532654 0.354124
v -0.047343 0.526103 0.357080
v -0.050728 0.528107 0.351008
v -0.062247 0.537648 0.330791
v 0.041402 0.343152 0.079008
v 0.022716 0.339711 0.064272
v -0.013017 0.345667 0.065972
v -0.047668 0.351397 0.065105
v -0.027150 0.342309 0.061137
v -0.000516 0.348887 0.074787
v -0.007004 0.349215 0.074738
v 0.056270 0.411016 0.083681
v 0.047792 0.494243 0.127977
v 0.013743 0.500336 0.112342
v 0.022901 0.421674 0.072101
v -0.015369 0.489340 0.126020
v -0.004544 0.418196 0.088695
v -0.049752 0.490779 0.118187
v -0.034786 0.417518 0.079404
v -0.078776 0.478596 0.133901
v -0.064407 0.410255 0.096566
v 0.024913 0.557494 0.202935
v -0.005929 0.558792 0.192273
v -0.027051 0.538795 0.201333
v -0.055549 0.535860 0.193625
v -0.078606 0.515688 0.201791
v -0.006894 0.567643 0.282069
v -0.027460 0.570778 0.283021
v -0.038832 0.550664 0.282930
v -0.058185 0.554515 0.283174
v -0.073114 0.546775 0.283320
v -0.028379 0.555055 0.336193
v -0.041219 0.531889 0.353527
v -0.046864 0.525338 0.356483
v -0.050249 0.527343 0.350410
v -0.061768 0.536855 0.330252
v 0.041070 0.343268 0.080035
v 0.022498 0.339830 0.065320
v -0.013145 0.345788 0.067042
v -0.007132 0.349336 0.075808
v -0.047608 0.351516 0.066160
v -0.027254 0.342432 0.062221
v -0.000655 0.349009 0.075864
v 0.021294 -0.010192 0.006377
v 0.021935 0.067747 0.007020
v 0.029301 0.067747 0.000839
v 0.027813 -0.010192 0.000907
v 0.021606 -0.010192 0.010840
v 0.022288 0.067747 0.012062
v 0.024482 -0.010192 0.014267
v 0.025537 0.067747 0.015935
v 0.032971 -0.010192 0.013674
v 0.035129 0.067747 0.015264
v 0.035029 -0.010192 0.005417
v 0.037455 0.067747 0.005935
v 0.039942 0.204826 0.079464
v 0.047629 0.208250 0.074875
v 0.033316 0.158327 0.027009
v 0.025806 0.156378 0.032651
v 0.039908 0.200978 0.082740
v 0.025983 0.153997 0.037037
v 0.042802 0.197530 0.085035
v 0.029070 0.151800 0.040302
v 0.052257 0.196445 0.083889
v 0.038596 0.150919 0.039389
v 0.055241 0.203071 0.077609
v 0.041221 0.154954 0.031173
v 0.049316 0.206312 0.086633
v 0.114186 0.220692 0.094977
v 0.078995 0.239423 0.095131
v 0.107703 0.282095 0.186248
v 0.143745 0.261106 0.184177
v 0.057215 0.231692 0.113361
v 0.081733 0.269019 0.197890
v 0.024199 0.238853 0.110346
v 0.046814 0.281106 0.202914
v -0.000237 0.227659 0.128018
v 0.021121 0.265635 0.215365
v 0.139104 0.252792 0.317539
v 0.164920 0.239867 0.295812
v 0.113017 0.243942 0.314265
v 0.087377 0.253516 0.330719
v 0.059380 0.245663 0.328597
v 0.144724 0.157069 0.364230
v 0.158999 0.157512 0.346168
v 0.124935 0.158023 0.356900
v 0.112037 0.158320 0.374680
v 0.096295 0.158841 0.379851
v 0.146252 0.109080 0.359829
v 0.127863 0.085798 0.356912
v 0.120769 0.081144 0.357306
v 0.118013 0.087686 0.360264
v 0.110210 0.110375 0.372390
v 0.086204 0.185624 0.050897
v 0.062430 0.195647 0.046279
v 0.030157 0.196133 0.062178
v -0.002030 0.198733 0.076321
v 0.014220 0.197899 0.061186
v 0.045896 0.190826 0.065489
v 0.039747 0.190806 0.067597
v 0.114153 0.219897 0.095677
v 0.143629 0.260132 0.184566
v 0.107774 0.281083 0.186605
v 0.079128 0.238603 0.095807
v 0.081825 0.268015 0.198235
v 0.057394 0.230870 0.114027
v 0.047015 0.280099 0.203233
v 0.024486 0.238030 0.110985
v 0.021513 0.264707 0.215601
v 0.000235 0.226898 0.128553
v 0.164504 0.239150 0.295137
v 0.138843 0.252069 0.316782
v 0.112805 0.243222 0.313503
v 0.087298 0.252782 0.329959
v 0.059500 0.244966 0.327831
v 0.158532 0.157770 0.345249
v 0.144337 0.157348 0.363288
v 0.124644 0.158252 0.355908
v 0.111752 0.158488 0.373641
v 0.096010 0.158965 0.378796
v 0.145885 0.109411 0.358887
v 0.127594 0.086129 0.355928
v 0.120501 0.081474 0.356322
v 0.117744 0.088017 0.359280
v 0.109938 0.110642 0.371397
v 0.086172 0.184829 0.051597
v 0.062514 0.194840 0.046958
v 0.030335 0.195312 0.062844
v 0.039926 0.189984 0.068262
v -0.001678 0.197930 0.076924
v 0.014426 0.197068 0.061853
v 0.046066 0.189999 0.066162
v 0.010893 -0.010993 0.005320
v 0.011781 0.073072 0.004907
v 0.008234 0.073072 -0.004838
v 0.007754 -0.010993 -0.003305
v 0.015532 -0.010993 0.006650
v 0.017022 0.073072 0.006410
v 0.020066 -0.010993 0.005000
v 0.022145 0.073072 0.004545
v 0.022596 -0.010993 -0.003823
v 0.025004 0.073072 -0.005424
v 0.014987 -0.010993 -0.008956
v 0.016406 0.073072 -0.011223
v 0.091850 0.220926 0.013382
v 0.090034 0.224620 0.003897
v 0.036239 0.170772 0.000746
v 0.039188 0.168670 0.010439
v 0.095157 0.216776 0.014624
v 0.043698 0.166102 0.011878
v 0.098552 0.213057 0.012538
v 0.048146 0.163732 0.009954
v 0.100878 0.211887 0.002532
v 0.050735 0.162783 -0.000039
v 0.095614 0.219034 -0.002809
v 0.043376 0.167134 -0.005729
v 0.102574 0.222529 0.006525
v 0.134963 0.238039 -0.056146
v 0.122136 0.258243 -0.020422
v 0.225079 0.304270 -0.015905
v 0.236276 0.281630 -0.053200
v 0.132579 0.249904 0.008378
v 0.227299 0.290165 0.014712
v 0.117343 0.257629 0.040730
v 0.219508 0.303203 0.051957
v 0.126241 0.245555 0.072017
v 0.222651 0.286515 0.082592
v 0.369734 0.272664 0.000702
v 0.357236 0.258723 -0.033479
v 0.356792 0.263118 0.025935
v 0.364011 0.273445 0.057992
v 0.351532 0.264975 0.085586
v 0.419131 0.169416 0.012230
v 0.406091 0.169893 -0.008901
v 0.404401 0.170444 0.029584
v 0.417664 0.170764 0.049216
v 0.417098 0.171327 0.067078
v 0.415235 0.117655 0.009059
v 0.405494 0.092542 0.026620
v 0.403276 0.087522 0.033955
v 0.405258 0.094579 0.037841
v 0.414670 0.119051 0.050223
v 0.079962 0.200216 -0.044046
v 0.066511 0.211026 -0.021653
v 0.070720 0.211551 0.016922
v 0.073181 0.214354 0.054763
v 0.063836 0.213455 0.032709
v 0.079882 0.205826 0.002191
v 0.079750 0.205804 0.009201
v 0.135659 0.237182 -0.055855
v 0.236628 0.280580 -0.052939
v 0.225467 0.303178 -0.015846
v 0.122871 0.257359 -0.020307
v 0.227682 0.289082 0.014746
v 0.133319 0.249018 0.008443
v 0.219907 0.302116 0.051871
v 0.118096 0.256740 0.040675
v 0.223034 0.285515 0.082282
v 0.126956 0.244734 0.071735
v 0.356399 0.257950 -0.033307
v 0.368871 0.271884 0.000687
v 0.355942 0.262342 0.025869
v 0.363211 0.272653 0.057792
v 0.350799 0.264222 0.085182
v 0.404987 0.170171 -0.008767
v 0.418033 0.169717 0.012275
v 0.403289 0.170692 0.029512
v 0.416506 0.170946 0.049121
v 0.415924 0.171461 0.066978
v 0.414144 0.118011 0.009082
v 0.404398 0.092899 0.026529
v 0.402180 0.087879 0.033865
v 0.404162 0.094935 0.037750
v 0.413563 0.119339 0.050131
v 0.080659 0.199358 -0.043756
v 0.067230 0.210155 -0.021489
v 0.071460 0.210665 0.016987
v 0.080491 0.204918 0.009266
v 0.073921 0.213489 0.054628
v 0.064588 0.212559 0.032747
v 0.080627 0.204934 0.002267
v -0.022028 -0.010993 0.003861
v -0.022363 0.073072 0.004781
v -0.012964 0.073072 0.009164
v -0.013709 -0.010993 0.007740
v -0.026248 -0.010993 0.006200
v -0.027132 0.073072 0.007424
v -0.028287 -0.010993 0.010574
v -0.029436 0.073072 0.012366
v -0.023837 -0.010993 0.018602
v -0.024408 0.073072 0.021436
v -0.014828 -0.010993 0.016850
v -0.014228 0.073072 0.019457
v -0.084973 0.220926 0.055406
v -0.076982 0.224620 0.060829
v -0.036715 0.170772 0.025018
v -0.045654 0.168670 0.020249
v -0.088191 0.216776 0.056866
v -0.049861 0.166102 0.022421
v -0.089115 0.213057 0.060742
v -0.051646 0.163732 0.026927
v -0.083685 0.211887 0.069462
v -0.046411 0.162783 0.035823
v -0.076186 0.219034 0.069516
v -0.037183 0.167134 0.034643
v -0.087707 0.222529 0.067838
v -0.066295 0.238039 0.135055
v -0.082486 0.258243 0.100725
v -0.158471 0.304270 0.170322
v -0.140018 0.281630 0.204611
v -0.110235 0.249904 0.087744
v -0.181690 0.290165 0.150242
v -0.122338 0.257629 0.054094
v -0.202518 0.303203 0.118397
v -0.150752 0.245555 0.038263
v -0.226402 0.286515 0.098957
v -0.272501 0.272664 0.260866
v -0.239494 0.258723 0.276198
v -0.281192 0.263118 0.233872
v -0.308964 0.273445 0.216308
v -0.319652 0.264975 0.187972
v -0.315582 0.169416 0.287643
v -0.291418 0.169893 0.293364
v -0.317437 0.170444 0.264956
v -0.340697 0.170764 0.260453
v -0.352928 0.171327 0.247422
v -0.310584 0.117655 0.287130
v -0.316114 0.092542 0.267825
v -0.319732 0.087522 0.261070
v -0.323881 0.094579 0.259724
v -0.339292 0.119051 0.257624
v -0.035959 0.200216 0.087608
v -0.042282 0.211026 0.062262
v -0.072535 0.211551 0.037961
v -0.101033 0.214354 0.012944
v -0.078830 0.213455 0.021931
v -0.068597 0.205826 0.054856
v -0.073461 0.205804 0.049806
v -0.066993 0.237182 0.135342
v -0.140450 0.280580 0.204675
v -0.158788 0.303178 0.170554
v -0.083086 0.257359 0.101163
v -0.181985 0.289082 0.150489
v -0.110804 0.249018 0.088221
v -0.202739 0.302116 0.118740
v -0.122832 0.256740 0.054665
v -0.226454 0.285515 0.099448
v -0.151059 0.244734 0.038968
v -0.239023 0.257950 0.275484
v -0.271880 0.271884 0.260266
v -0.280544 0.262342 0.233317
v -0.308257 0.272653 0.215885
v -0.318848 0.264222 0.187741
v -0.290733 0.170171 0.292489
v -0.314837 0.169717 0.286835
v -0.316600 0.170692 0.264220
v -0.339811 0.170946 0.259701
v -0.352026 0.171461 0.246663
v -0.309829 0.118011 0.286343
v -0.315274 0.092899 0.267114
v -0.318893 0.087879 0.260359
v -0.323042 0.094935 0.259013
v -0.338444 0.119339 0.256905
v -0.036658 0.199358 0.087895
v -0.042907 0.210155 0.062654
v -0.073105 0.210665 0.038439
v -0.074030 0.204918 0.050284
v -0.101462 0.213489 0.013563
v -0.079389 0.212559 0.022436
v -0.069177 0.204934 0.055329
vt 0.314000 0.994900
vt 0.314000 0.919400
vt 0.327000 0.919400
vt 0.327000 0.994900
vt 0.307400 0.994900
vt 0.307400 0.919400
vt 0.333500 0.994900
vt 0.333500 0.919400
vt 0.339500 0.919400
vt 0.339500 0.994900
vt 0.320500 0.994900
vt 0.320500 0.919400
vt 0.307400 0.994900
vt 0.307400 0.919400
vt 0.339500 0.919400
vt 0.339500 0.994900
vt 0.314000 0.768300
vt 0.327000 0.768300
vt 0.327000 0.843800
vt 0.314000 0.843800
vt 0.307400 0.768300
vt 0.307400 0.843800
vt 0.333500 0.768300
vt 0.339500 0.768300
vt 0.339500 0.843800
vt 0.333500 0.843800
vt 0.320500 0.768300
vt 0.320500 0.843800
vt 0.307400 0.768300
vt 0.307400 0.843800
vt 0.339500 0.768300
vt 0.339500 0.843800
vt 0.323600 0.692700
vt 0.673900 0.134500
vt 0.750300 0.144600
vt 0.740500 0.350900
vt 0.661500 0.352000
vt 0.817900 0.149000
vt 0.815000 0.347400
vt 0.899800 0.141400
vt 0.907600 0.347100
vt 0.982000 0.140200
vt 0.990100 0.344100
vt 0.755000 0.600700
vt 0.684900 0.624000
vt 0.815700 0.592000
vt 0.895400 0.597000
vt 0.972500 0.612500
vt 0.781700 0.777400
vt 0.724300 0.777700
vt 0.818200 0.775000
vt 0.870600 0.774100
vt 0.912600 0.772300
vt 0.767300 0.933600
vt 0.810900 0.973500
vt 0.827400 0.982800
vt 0.843700 0.957900
vt 0.873100 0.919400
vt 0.718300 0.030700
vt 0.769600 0.025400
vt 0.863300 0.035400
vt 0.947800 0.043800
vt 0.899600 0.030200
vt 0.821400 0.039900
vt 0.838000 0.042200
vt 0.673900 0.134500
vt 0.661500 0.352000
vt 0.740500 0.350900
vt 0.750300 0.144600
vt 0.815000 0.347400
vt 0.817900 0.149000
vt 0.907600 0.347100
vt 0.899800 0.141400
vt 0.990100 0.344100
vt 0.982000 0.140200
vt 0.684900 0.624000
vt 0.755000 0.600700
vt 0.815700 0.592000
vt 0.895400 0.597000
vt 0.972500 0.612500
vt 0.724300 0.777700
vt 0.781700 0.777400
vt 0.818200 0.775000
vt 0.870600 0.774100
vt 0.912600 0.772300
vt 0.767300 0.933600
vt 0.810900 0.973500
vt 0.827400 0.982800
vt 0.843700 0.957900
vt 0.873100 0.919400
vt 0.718300 0.030700
vt 0.769600 0.025400
vt 0.863300 0.035400
vt 0.838000 0.042200
vt 0.947800 0.043800
vt 0.899600 0.030200
vt 0.821400 0.039900
vt 0.313300 0.995800
vt 0.313300 0.920300
vt 0.327000 0.920300
vt 0.327000 0.995800
vt 0.306500 0.995800
vt 0.306500 0.920300
vt 0.333800 0.995800
vt 0.333800 0.920300
vt 0.340100 0.920300
vt 0.340100 0.995800
vt 0.320100 0.995800
vt 0.320100 0.920300
vt 0.306500 0.995800
vt 0.306500 0.920300
vt 0.340100 0.920300
vt 0.340100 0.995800
vt 0.313300 0.769100
vt 0.327000 0.769100
vt 0.327000 0.844700
vt 0.313300 0.844700
vt 0.306500 0.769100
vt 0.306500 0.844700
vt 0.333800 0.769100
vt 0.340100 0.769100
vt 0.340100 0.844700
vt 0.333800 0.844700
vt 0.320100 0.769100
vt 0.320100 0.844700
vt 0.306500 0.769100
vt 0.306500 0.844700
vt 0.340100 0.769100
vt 0.340100 0.844700
vt 0.323400 0.693600
vt 0.674000 0.134500
vt 0.750400 0.144600
vt 0.740600 0.350900
vt 0.661600 0.352000
vt 0.818000 0.149000
vt 0.815100 0.347400
vt 0.899900 0.141400
vt 0.907700 0.347100
vt 0.982100 0.140200
vt 0.990200 0.344100
vt 0.755100 0.600700
vt 0.685000 0.624000
vt 0.815800 0.592000
vt 0.895500 0.597000
vt 0.972600 0.612500
vt 0.781800 0.777400
vt 0.724400 0.777700
vt 0.818300 0.775000
vt 0.870700 0.774100
vt 0.912700 0.772300
vt 0.767400 0.933600
vt 0.811000 0.973500
vt 0.827500 0.982800
vt 0.843800 0.957900
vt 0.873200 0.919400
vt 0.718400 0.030700
vt 0.769700 0.025400
vt 0.863400 0.035400
vt 0.947900 0.043800
vt 0.899700 0.030200
vt 0.821500 0.039900
vt 0.838100 0.042200
vt 0.674000 0.134500
vt 0.661600 0.352000
vt 0.740600 0.350900
vt 0.750400 0.144600
vt 0.815100 0.347400
vt 0.818000 0.149000
vt 0.907700 0.347100
vt 0.899900 0.141400
vt 0.990200 0.344100
vt 0.982100 0.140200
vt 0.685000 0.624000
vt 0.755100 0.600700
vt 0.815800 0.592000
vt 0.895500 0.597000
vt 0.972600 0.612500
vt 0.724400 0.777700
vt 0.781800 0.777400
vt 0.818300 0.775000
vt 0.870700 0.774100
vt 0.912700 0.772300
vt 0.767400 0.933600
vt 0.811000 0.973500
vt 0.827500 0.982800
vt 0.843800 0.957900
vt 0.873200 0.919400
vt 0.718400 0.030700
vt 0.769700 0.025400
vt 0.863400 0.035400
vt 0.838100 0.042200
vt 0.947900 0.043800
vt 0.899700 0.030200
vt 0.821500 0.039900
vt 0.313300 0.995800
vt 0.313300 0.920300
vt 0.327000 0.920300
vt 0.327000 0.995800
vt 0.306500 0.995800
vt 0.306500 0.920300
vt 0.333800 0.995800
vt 0.333800 0.920300
vt 0.340100 0.920300
vt 0.340100 0.995800
vt 0.320100 0.995800
vt 0.320100 0.920300
vt 0.306500 0.995800
vt 0.306500 0.920300
vt 0.340100 0.920300
vt 0.340100 0.995800
vt 0.313300 0.769100
vt 0.327000 0.769100
vt 0.327000 0.844700
vt 0.313300 0.844700
vt 0.306500 0.769100
vt 0.306500 0.844700
vt 0.333800 0.769100
vt 0.340100 0.769100
vt 0.340100 0.844700
vt 0.333800 0.844700
vt 0.320100 0.769100
vt 0.320100 0.844700
vt 0.306500 0.769100
vt 0.306500 0.844700
vt 0.340100 0.769100
vt 0.340100 0.844700
vt 0.323400 0.693600
vt 0.674000 0.134500
vt 0.750400 0.144600
vt 0.740600 0.350900
vt 0.661600 0.352000
vt 0.818000 0.149000
vt 0.815100 0.347400
vt 0.899900 0.141400
vt 0.907700 0.347100
vt 0.982100 0.140200
vt 0.990200 0.344100
vt 0.755100 0.600700
vt 0.685000 0.624000
vt 0.815800 0.592000
vt 0.895500 0.597000
vt 0.972600 0.612500
vt 0.781800 0.777400
vt 0.724400 0.777700
vt 0.818300 0.775000
vt 0.870700 0.774100
vt 0.912700 0.772300
vt 0.767400 0.933600
vt 0.811000 0.973500
vt 0.827500 0.982800
vt 0.843800 0.957900
vt 0.873200 0.919400
vt 0.718400 0.030700
vt 0.769700 0.025400
vt 0.863400 0.035400
vt 0.947900 0.043800
vt 0.899700 0.030200
vt 0.821500 0.039900
vt 0.838100 0.042200
vt 0.674000 0.134500
vt 0.661600 0.352000
vt 0.740600 0.350900
vt 0.750400 0.144600
vt 0.815100 0.347400
vt 0.818000 0.149000
vt 0.907700 0.347100
vt 0.899900 0.141400
vt 0.990200 0.344100
vt 0.982100 0.140200
vt 0.685000 0.624000
vt 0.755100 0.600700
vt 0.815800 0.592000
vt 0.895500 0.597000
vt 0.972600 0.612500
vt 0.724400 0.777700
vt 0.781800 0.777400
vt 0.818300 0.775000
vt 0.870700 0.774100
vt 0.912700 0.772300
vt 0.767400 0.933600
vt 0.811000 0.973500
vt 0.827500 0.982800
vt 0.843800 0.957900
vt 0.873200 0.919400
vt 0.718400 0.030700
vt 0.769700 0.025400
vt 0.863400 0.035400
vt 0.838100 0.042200
vt 0.947900 0.043800
vt 0.899700 0.030200
vt 0.821500 0.039900
vt 0.313300 0.995800
vt 0.313300 0.920300
vt 0.327000 0.920300
vt 0.327000 0.995800
vt 0.306500 0.995800
vt 0.306500 0.920300
vt 0.333800 0.995800
vt 0.333800 0.920300
vt 0.340100 0.920300
vt 0.340100 0.995800
vt 0.320100 0.995800
vt 0.320100 0.920300
vt 0.306500 0.995800
vt 0.306500 0.920300
vt 0.340100 0.920300
vt 0.340100 0.995800
vt 0.313300 0.769100
vt 0.327000 0.769100
vt 0.327000 0.844700
vt 0.313300 0.844700
vt 0.306500 0.769100
vt 0.306500 0.844700
vt 0.333800 0.769100
vt 0.340100 0.769100
vt 0.340100 0.844700
vt 0.333800 0.844700
vt 0.320100 0.769100
vt 0.320100 0.844700
vt 0.306500 0.769100
vt 0.306500 0.844700
vt 0.340100 0.769100
vt 0.340100 0.844700
vt 0.323400 0.693600
vt 0.674000 0.134500
vt 0.750400 0.144600
vt 0.740600 0.350900
vt 0.661600 0.352000
vt 0.818000 0.149000
vt 0.815100 0.347400
vt 0.899900 0.141400
vt 0.907700 0.347100
vt 0.982100 0.140200
vt 0.990200 0.344100
vt 0.755100 0.600700
vt 0.685000 0.624000
vt 0.815800 0.592000
vt 0.895500 0.597000
vt 0.972600 0.612500
vt 0.781800 0.777400
vt 0.724400 0.777700
vt 0.818300 0.775000
vt 0.870700 0.774100
vt 0.912700 0.772300
vt 0.767400 0.933600
vt 0.811000 0.973500
vt 0.827500 0.982800
vt 0.843800 0.957900
vt 0.873200 0.919400
vt 0.718400 0.030700
vt 0.769700 0.025400
vt 0.863400 0.035400
vt 0.947900 0.043800
vt 0.899700 0.030200
vt 0.821500 0.039900
vt 0.838100 0.042200
vt 0.674000 0.134500
vt 0.661600 0.352000
vt 0.740600 0.350900
vt 0.750400 0.144600
vt 0.815100 0.347400
vt 0.818000 0.149000
vt 0.907700 0.347100
vt 0.899900 0.141400
vt 0.990200 0.344100
vt 0.982100 0.140200
vt 0.685000 0.624000
vt 0.755100 0.600700
vt 0.815800 0.592000
vt 0.895500 0.597000
vt 0.972600 0.612500
vt 0.724400 0.777700
vt 0.781800 0.777400
vt 0.818300 0.775000
vt 0.870700 0.774100
vt 0.912700 0.772300
vt 0.767400 0.933600
vt 0.811000 0.973500
vt 0.827500 0.982800
vt 0.843800 0.957900
vt 0.873200 0.919400
vt 0.718400 0.030700
vt 0.769700 0.025400
vt 0.863400 0.035400
vt 0.838100 0.042200
vt 0.947900 0.043800
vt 0.899700 0.030200
vt 0.821500 0.039900
vt 0.314000 0.994900
vt 0.314000 0.919400
vt 0.327000 0.919400
vt 0.327000 0.994900
vt 0.307400 0.994900
vt 0.307400 0.919400
vt 0.333500 0.994900
vt 0.333500 0.919400
vt 0.339500 0.919400
vt 0.339500 0.994900
vt 0.320500 0.994900
vt 0.320500 0.919400
vt 0.307400 0.994900
vt 0.307400 0.919400
vt 0.339500 0.919400
vt 0.339500 0.994900
vt 0.314000 0.768300
vt 0.327000 0.768300
vt 0.327000 0.843800
vt 0.314000 0.843800
vt 0.307400 0.768300
vt 0.307400 0.843800
vt 0.333500 0.768300
vt 0.339500 0.768300
vt 0.339500 0.843800
vt 0.333500 0.843800
vt 0.320500 0.768300
vt 0.320500 0.843800
vt 0.307400 0.768300
vt 0.307400 0.843800
vt 0.339500 0.768300
vt 0.339500 0.843800
vt 0.323600 0.692700
vt 0.673900 0.134500
vt 0.750300 0.144600
vt 0.740500 0.350900
vt 0.661500 0.352000
vt 0.817900 0.149000
vt 0.815000 0.347400
vt 0.899800 0.141400
vt 0.907600 0.347100
vt 0.982000 0.140200
vt 0.990100 0.344100
vt 0.755000 0.600700
vt 0.684900 0.624000
vt 0.815700 0.592000
vt 0.895400 0.597000
vt 0.972500 0.612500
vt 0.781700 0.777400
vt 0.724300 0.777700
vt 0.818200 0.775000
vt 0.870600 0.774100
vt 0.912600 0.772300
vt 0.767300 0.933600
vt 0.810900 0.973500
vt 0.827400 0.982800
vt 0.843700 0.957900
vt 0.873100 0.919400
vt 0.718300 0.030700
vt 0.769600 0.025400
vt 0.863300 0.035400
vt 0.947800 0.043800
vt 0.899600 0.030200
vt 0.821400 0.039900
vt 0.838000 0.042200
vt 0.673900 0.134500
vt 0.661500 0.352000
vt 0.740500 0.350900
vt 0.750300 0.144600
vt 0.815000 0.347400
vt 0.817900 0.149000
vt 0.907600 0.347100
vt 0.899800 0.141400
vt 0.990100 0.344100
vt 0.982000 0.140200
vt 0.684900 0.624000
vt 0.755000 0.600700
vt 0.815700 0.592000
vt 0.895400 0.597000
vt 0.972500 0.612500
vt 0.724300 0.777700
vt 0.781700 0.777400
vt 0.818200 0.775000
vt 0.870600 0.774100
vt 0.912600 0.772300
vt 0.767300 0.933600
vt 0.810900 0.973500
vt 0.827400 0.982800
vt 0.843700 0.957900
vt 0.873100 0.919400
vt 0.718300 0.030700
vt 0.769600 0.025400
vt 0.863300 0.035400
vt 0.838000 0.042200
vt 0.947800 0.043800
vt 0.899600 0.030200
vt 0.821400 0.039900
vt 0.314000 0.994900
vt 0.314000 0.919400
vt 0.327000 0.919400
vt 0.327000 0.994900
vt 0.307400 0.994900
vt 0.307400 0.919400
vt 0.333500 0.994900
vt 0.333500 0.919400
vt 0.339500 0.919400
vt 0.339500 0.994900
vt 0.320500 0.994900
vt 0.320500 0.919400
vt 0.307400 0.994900
vt 0.307400 0.919400
vt 0.339500 0.919400
vt 0.339500 0.994900
vt 0.314000 0.768300
vt 0.327000 0.768300
vt 0.327000 0.843800
vt 0.314000 0.843800
vt 0.307400 0.768300
vt 0.307400 0.843800
vt 0.333500 0.768300
vt 0.339500 0.768300
vt 0.339500 0.843800
vt 0.333500 0.843800
vt 0.320500 0.768300
vt 0.320500 0.843800
vt 0.307400 0.768300
vt 0.307400 0.843800
vt 0.339500 0.768300
vt 0.339500 0.843800
vt 0.323600 0.692700
vt 0.673900 0.134500
vt 0.750300 0.144600
vt 0.740500 0.350900
vt 0.661500 0.352000
vt 0.817900 0.149000
vt 0.815000 0.347400
vt 0.899800 0.141400
vt 0.907600 0.347100
vt 0.982000 0.140200
vt 0.990100 0.344100
vt 0.755000 0.600700
vt 0.684900 0.624000
vt 0.815700 0.592000
vt 0.895400 0.597000
vt 0.972500 0.612500
vt 0.781700 0.777400
vt 0.724300 0.777700
vt 0.818200 0.775000
vt 0.870600 0.774100
vt 0.912600 0.772300
vt 0.767300 0.933600
vt 0.810900 0.973500
vt 0.827400 0.982800
vt 0.843700 0.957900
vt 0.873100 0.919400
vt 0.718300 0.030700
vt 0.769600 0.025400
vt 0.863300 0.035400
vt 0.947800 0.043800
vt 0.899600 0.030200
vt 0.821400 0.039900
vt 0.838000 0.042200
vt 0.673900 0.134500
vt 0.661500 0.352000
vt 0.740500 0.350900
vt 0.750300 0.144600
vt 0.815000 0.347400
vt 0.817900 0.149000
vt 0.907600 0.347100
vt 0.899800 0.141400
vt 0.990100 0.344100
vt 0.982000 0.140200
vt 0.684900 0.624000
vt 0.755000 0.600700
vt 0.815700 0.592000
vt 0.895400 0.597000
vt 0.972500 0.612500
vt 0.724300 0.777700
vt 0.781700 0.777400
vt 0.818200 0.775000
vt 0.870600 0.774100
vt 0.912600 0.772300
vt 0.767300 0.933600
vt 0.810900 0.973500
vt 0.827400 0.982800
vt 0.843700 0.957900
vt 0.873100 0.919400
vt 0.718300 0.030700
vt 0.769600 0.025400
vt 0.863300 0.035400
vt 0.838000 0.042200
vt 0.947800 0.043800
vt 0.899600 0.030200
vt 0.821400 0.039900
vt 0.314000 0.994900
vt 0.314000 0.919400
vt 0.327000 0.919400
vt 0.327000 0.994900
vt 0.307400 0.994900
vt 0.307400 0.919400
vt 0.333500 0.994900
vt 0.333500 0.919400
vt 0.339500 0.919400
vt 0.339500 0.994900
vt 0.320500 0.994900
vt 0.320500 0.919400
vt 0.307400 0.994900
vt 0.307400 0.919400
vt 0.339500 0.919400
vt 0.339500 0.994900
vt 0.314000 0.768300
vt 0.327000 0.768300
vt 0.327000 0.843800
vt 0.314000 0.843800
vt 0.307400 0.768300
vt 0.307400 0.843800
vt 0.333500 0.768300
vt 0.339500 0.768300
vt 0.339500 0.843800
vt 0.333500 0.843800
vt 0.320500 0.768300
vt 0.320500 0.843800
vt 0.307400 0.768300
vt 0.307400 0.843800
vt 0.339500 0.768300
vt 0.339500 0.843800
vt 0.323600 0.692700
vt 0.673900 0.134500
vt 0.750300 0.144600
vt 0.740500 0.350900
vt 0.661500 0.352000
vt 0.817900 0.149000
vt 0.815000 0.347400
vt 0.899800 0.141400
vt 0.907600 0.347100
vt 0.982000 0.140200
vt 0.990100 0.344100
vt 0.755000 0.600700
vt 0.684900 0.624000
vt 0.815700 0.592000
vt 0.895400 0.597000
vt 0.972500 0.612500
vt 0.781700 0.777400
vt 0.724300 0.777700
vt 0.818200 0.775000
vt 0.870600 0.774100
vt 0.912600 0.772300
vt 0.767300 0.933600
vt 0.810900 0.973500
vt 0.827400 0.982800
vt 0.843700 0.957900
vt 0.873100 0.919400
vt 0.718300 0.030700
vt 0.769600 0.025400
vt 0.863300 0.035400
vt 0.947800 0.043800
vt 0.899600 0.030200
vt 0.821400 0.039900
vt 0.838000 0.042200
vt 0.673900 0.134500
vt 0.661500 0.352000
vt 0.740500 0.350900
vt 0.750300 0.144600
vt 0.815000 0.347400
vt 0.817900 0.149000
vt 0.907600 0.347100
vt 0.899800 0.141400
vt 0.990100 0.344100
vt 0.982000 0.140200
vt 0.684900 0.624000
vt 0.755000 0.600700
vt 0.815700 0.592000
vt 0.895400 0.597000
vt 0.972500 0.612500
vt 0.724300 0.777700
vt 0.781700 0.777400
vt 0.818200 0.775000
vt 0.870600 0.774100
vt 0.912600 0.772300
vt 0.767300 0.933600
vt 0.810900 0.973500
vt 0.827400 0.982800
vt 0.843700 0.957900
vt 0.873100 0.919400
vt 0.718300 0.030700
vt 0.769600 0.025400
vt 0.863300 0.035400
vt 0.838000 0.042200
vt 0.947800 0.043800
vt 0.899600 0.030200
vt 0.821400 0.039900
vn 0.7872 0.0108 0.6166
vn 0.7656 0.0870 0.6374
vn -0.1895 0.1348 0.9726
vn -0.1838 0.0006 0.9830
vn 0.9930 0.0023 -0.1184
vn 0.9951 -0.0256 -0.0958
vn 0.6203 -0.0143 -0.7842
vn 0.6269 -0.1304 -0.7681
vn -0.4196 -0.0334 -0.9071
vn -0.4494 -0.1388 -0.8825
vn -0.9914 -0.0262 0.1285
vn -0.9854 0.0343 0.1667
vn 0.7463 0.6573 0.1048
vn -0.1596 0.9252 0.3442
vn -0.1660 0.5020 0.8488
vn 0.7549 0.3335 0.5647
vn 0.9229 0.1492 -0.3550
vn 0.9974 -0.0391 -0.0612
vn 0.5819 -0.3241 -0.7459
vn 0.6558 -0.3907 -0.6460
vn -0.4179 -0.4144 -0.8085
vn -0.4534 -0.4571 -0.7652
vn -0.9269 0.3377 -0.1640
vn -0.9763 0.1162 0.1825
vn -0.0055 0.5865 -0.8099
vn -0.5179 0.7089 0.4789
vn -0.0420 0.8391 0.5424
vn -0.0554 0.9911 0.1215
vn -0.5186 0.8524 0.0661
vn 0.0395 0.8685 0.4941
vn 0.0547 0.9950 0.0840
vn 0.0562 0.8551 0.5154
vn 0.0833 0.9888 0.1240
vn 0.4751 0.7675 0.4305
vn 0.4927 0.8671 0.0743
vn -0.0337 0.7714 -0.6355
vn -0.5275 0.6931 -0.4913
vn 0.0262 0.8171 -0.5759
vn -0.0007 0.7947 -0.6070
vn 0.4107 0.7665 -0.4938
vn -0.0123 0.1902 -0.9817
vn -0.5839 0.1875 -0.7899
vn -0.0343 0.2588 -0.9653
vn -0.3445 0.1891 -0.9195
vn -0.0179 0.2613 -0.9651
vn 0.1649 -0.0879 -0.9824
vn 0.1444 -0.1282 -0.9812
vn -0.0366 -0.0751 -0.9965
vn -0.5114 -0.0384 -0.8585
vn -0.5465 -0.0601 -0.8353
vn -0.5389 0.6186 0.5717
vn -0.0647 0.7509 0.6573
vn -0.4939 0.6653 0.5599
vn 0.3428 0.7280 0.5937
vn -0.0326 0.7746 0.6316
vn 0.3247 0.7227 0.6102
vn -0.4363 0.6666 0.6044
vn 0.5192 -0.7081 -0.4786
vn 0.5200 -0.8516 -0.0660
vn 0.0562 -0.9910 -0.1214
vn 0.0425 -0.8392 -0.5422
vn -0.0542 -0.9950 -0.0840
vn -0.0394 -0.8687 -0.4938
vn -0.0833 -0.9888 -0.1239
vn -0.0559 -0.8552 -0.5153
vn -0.4935 -0.8666 -0.0742
vn -0.4758 -0.7672 -0.4302
vn 0.5290 -0.6928 0.4901
vn 0.0343 -0.7720 0.6347
vn -0.0255 -0.8180 0.5747
vn 0.0012 -0.7951 0.6065
vn -0.4115 -0.7666 0.4930
vn 0.5856 -0.1878 0.7886
vn 0.0112 -0.1915 0.9814
vn 0.0313 -0.2608 0.9649
vn 0.3434 -0.1902 0.9197
vn 0.0163 -0.2619 0.9650
vn -0.1669 0.0880 0.9820
vn -0.1444 0.1287 0.9811
vn 0.0365 0.0754 0.9965
vn 0.5117 0.0382 0.8583
vn 0.5469 0.0594 0.8351
vn 0.5405 -0.6177 -0.5713
vn 0.0646 -0.7508 -0.6574
vn 0.4939 -0.6651 -0.5601
vn 0.4367 -0.6665 -0.6043
vn -0.3430 -0.7280 -0.5936
vn 0.0324 -0.7745 -0.6318
vn -0.3258 -0.7223 -0.6100
vn 0.5453 0.0051 -0.8382
vn 0.5621 0.0444 -0.8259
vn 0.9906 0.0860 0.1060
vn 0.9948 0.0014 0.1016
vn -0.2063 0.0007 -0.9785
vn -0.1926 -0.0262 -0.9809
vn -0.8372 -0.0069 -0.5469
vn -0.8303 -0.0821 -0.5512
vn -0.8665 -0.0149 0.4990
vn -0.8523 -0.0742 0.5178
vn 0.2110 -0.0107 0.9774
vn 0.2344 0.0292 0.9717
vn 0.2266 0.5483 -0.8050
vn 0.6217 0.7810 0.0596
vn 0.9315 0.3518 0.0923
vn 0.5449 0.2122 -0.8112
vn -0.3707 0.1993 -0.9071
vn -0.1587 -0.0503 -0.9860
vn -0.8587 -0.1155 -0.4992
vn -0.7712 -0.2715 -0.5757
vn -0.8537 -0.1178 0.5072
vn -0.8083 -0.2896 0.5126
vn 0.0270 0.4253 0.9046
vn 0.2593 0.0732 0.9630
vn -0.5510 0.8342 -0.0210
vn 0.6643 0.5972 0.4496
vn 0.7413 0.6663 -0.0805
vn 0.3927 0.9155 -0.0877
vn 0.3019 0.8622 0.4069
vn 0.6778 0.7116 -0.1848
vn 0.3108 0.9308 -0.1926
vn 0.7050 0.6820 -0.1945
vn 0.3722 0.8980 -0.2348
vn 0.5426 0.5634 -0.6230
vn 0.2237 0.7686 -0.5994
vn -0.1275 0.9891 -0.0742
vn -0.1004 0.8607 0.4991
vn -0.1148 0.9856 -0.1243
vn -0.1051 0.9881 -0.1120
vn -0.1237 0.8312 -0.5420
vn -0.4985 0.8638 -0.0732
vn -0.3412 0.7671 0.5432
vn -0.4580 0.8874 -0.0522
vn -0.4430 0.8463 0.2958
vn -0.4727 0.8778 -0.0775
vn -0.5878 0.6381 -0.4973
vn -0.6519 0.6686 -0.3578
vn -0.6537 0.7560 0.0327
vn -0.4474 0.6300 0.6348
vn -0.3821 0.5927 0.7090
vn 0.7461 0.4435 0.4967
vn 0.8571 0.5116 -0.0597
vn 0.7391 0.5011 0.4502
vn 0.7270 0.4598 -0.5098
vn 0.8272 0.5530 -0.1001
vn 0.7670 0.4545 -0.4529
vn 0.7920 0.4729 0.3861
vn -0.6638 -0.5966 -0.4511
vn -0.2998 -0.8622 -0.4083
vn -0.3915 -0.9161 0.0868
vn -0.7412 -0.6665 0.0799
vn -0.3090 -0.9315 0.1918
vn -0.6776 -0.7119 0.1847
vn -0.3711 -0.8984 0.2347
vn -0.7050 -0.6821 0.1942
vn -0.2218 -0.7690 0.5996
vn -0.5422 -0.5631 0.6236
vn 0.1020 -0.8595 -0.5009
vn 0.1281 -0.9890 0.0738
vn 0.1154 -0.9857 0.1231
vn 0.1060 -0.9881 0.1113
vn 0.1245 -0.8307 0.5426
vn 0.3398 -0.7664 -0.5450
vn 0.4975 -0.8643 0.0743
vn 0.4565 -0.8880 0.0555
vn 0.4426 -0.8471 -0.2942
vn 0.4724 -0.8778 0.0795
vn 0.5871 -0.6366 0.5000
vn 0.6522 -0.6683 0.3579
vn 0.6538 -0.7559 -0.0327
vn 0.4470 -0.6300 -0.6350
vn 0.3819 -0.5932 -0.7087
vn -0.7452 -0.4428 -0.4986
vn -0.8571 -0.5116 0.0597
vn -0.7393 -0.5007 -0.4503
vn -0.7918 -0.4729 -0.3866
vn -0.7268 -0.4599 0.5102
vn -0.8273 -0.5528 0.1005
vn -0.7667 -0.4543 0.4537
vn -0.5450 0.0037 0.8384
vn -0.5607 0.0427 0.8269
vn -0.9913 0.0797 -0.1050
vn -0.9948 0.0002 -0.1021
vn 0.2067 0.0008 0.9784
vn 0.1934 -0.0219 0.9809
vn 0.8375 -0.0049 0.5464
vn 0.8307 -0.0746 0.5518
vn 0.8665 -0.0115 -0.4991
vn 0.8538 -0.0703 -0.5159
vn -0.2102 -0.0090 -0.9776
vn -0.2336 0.0250 -0.9720
vn -0.1136 0.3601 0.9259
vn -0.6037 0.7752 0.1862
vn -0.9186 0.3776 -0.1164
vn -0.5725 0.1875 0.7982
vn 0.4799 -0.0064 0.8773
vn 0.1274 -0.1003 0.9868
vn 0.9074 -0.2306 0.3513
vn 0.7605 -0.3125 0.5691
vn 0.7818 -0.0152 -0.6233
vn 0.8049 -0.2616 -0.5326
vn -0.1247 0.6056 -0.7860
vn -0.2334 0.1312 -0.9635
vn 0.5603 0.8181 0.1291
vn -0.7710 0.6157 -0.1626
vn -0.7456 0.5594 0.3622
vn -0.4906 0.7737 0.4008
vn -0.4896 0.8704 -0.0516
vn -0.6781 0.5616 0.4741
vn -0.3725 0.7891 0.4884
vn -0.6831 0.5512 0.4791
vn -0.4237 0.7290 0.5376
vn -0.4606 0.3459 0.8174
vn -0.2011 0.6011 0.7734
vn 0.0108 0.9484 0.3168
vn -0.1775 0.9552 -0.2370
vn 0.0120 0.9189 0.3942
vn 0.0104 0.9252 0.3794
vn 0.1650 0.6793 0.7151
vn 0.3257 0.9362 0.1319
vn 0.0283 0.8770 -0.4796
vn 0.2745 0.9577 0.0860
vn 0.1655 0.9706 -0.1750
vn 0.3257 0.9209 0.2142
vn 0.5655 0.6802 0.4664
vn 0.5732 0.7419 0.3480
vn 0.4267 0.9044 0.0038
vn 0.0350 0.8208 -0.5702
vn -0.0610 0.7606 -0.6464
vn -0.8142 0.5233 -0.2516
vn -0.8092 0.4657 0.3583
vn -0.8030 0.5733 -0.1631
vn -0.5946 0.3233 0.7361
vn -0.7627 0.4869 0.4257
vn -0.6520 0.3383 0.6786
vn -0.8323 0.5250 -0.1781
vn 0.7710 -0.6152 0.1646
vn 0.4881 -0.8712 0.0533
vn 0.4900 -0.7746 -0.3999
vn 0.7459 -0.5595 -0.3615
vn 0.3712 -0.7903 -0.4875
vn 0.6783 -0.5616 -0.4738
vn 0.4230 -0.7295 -0.5374
vn 0.6835 -0.5511 -0.4787
vn 0.1995 -0.6019 -0.7733
vn 0.4603 -0.3454 -0.8178
vn 0.1760 -0.9546 0.2404
vn -0.0113 -0.9488 -0.3156
vn -0.0124 -0.9195 -0.3930
vn -0.0110 -0.9258 -0.3779
vn -0.1658 -0.6789 -0.7152
vn -0.0273 -0.8755 0.4824
vn -0.3251 -0.9363 -0.1331
vn -0.2743 -0.9575 -0.0888
vn -0.1658 -0.9708 0.1731
vn -0.3259 -0.9204 -0.2160
vn -0.5660 -0.6784 -0.4684
vn -0.5735 -0.7417 -0.3478
vn -0.4269 -0.9043 -0.0040
vn -0.0347 -0.8209 0.5700
vn 0.0614 -0.7609 0.6460
vn 0.8136 -0.5230 0.2541
vn 0.8092 -0.4658 -0.3581
vn 0.8032 -0.5729 0.1633
vn 0.8322 -0.5250 0.1785
vn 0.5943 -0.3233 -0.7363
vn 0.7627 -0.4866 -0.4261
vn 0.6517 -0.3381 -0.6790
vn -0.5832 0.0921 -0.8071
vn -0.5975 0.1286 -0.7915
vn 0.4278 0.1265 -0.8950
vn 0.4196 0.1034 -0.9018
vn -0.9867 0.0153 -0.1619
vn -0.9888 0.0401 -0.1439
vn -0.8130 -0.0726 0.5777
vn -0.8043 -0.0735 0.5897
vn 0.1804 -0.1199 0.9762
vn 0.1664 -0.1548 0.9738
vn 0.9953 -0.0151 0.0952
vn 0.9913 -0.0386 0.1257
vn -0.7753 0.3537 -0.5233
vn 0.1487 0.5849 -0.7974
vn 0.4319 0.2260 -0.8731
vn -0.5905 0.1880 -0.7848
vn -0.9809 0.1621 0.1074
vn -0.9913 0.0282 -0.1284
vn -0.6672 0.0276 0.7444
vn -0.7885 -0.1383 0.5993
vn 0.3192 0.1724 0.9319
vn 0.2009 -0.2172 0.9552
vn 0.8513 0.5236 0.0346
vn 0.9942 -0.0108 0.1072
vn -0.2946 0.9253 0.2388
vn 0.3795 0.2034 -0.9026
vn -0.0437 0.2656 -0.9631
vn -0.0543 0.6453 -0.7620
vn 0.3975 0.6378 -0.6598
vn -0.1399 0.3165 -0.9382
vn -0.1909 0.6563 -0.7299
vn -0.1145 0.3526 -0.9288
vn -0.2124 0.6543 -0.7258
vn -0.5338 0.2895 -0.7945
vn -0.5627 0.5686 -0.6001
vn -0.2869 0.8536 -0.4348
vn 0.1677 0.9162 -0.3640
vn -0.3923 0.8324 -0.3915
vn -0.3409 0.8551 -0.3906
vn -0.6681 0.6703 -0.3230
vn -0.4333 0.9011 0.0152
vn 0.1509 0.9865 0.0633
vn -0.4370 0.8994 0.0120
vn -0.1414 0.9866 0.0810
vn -0.4875 0.8729 0.0188
vn -0.7322 0.6565 0.1816
vn -0.6992 0.6751 0.2353
vn -0.4936 0.8258 0.2727
vn 0.0153 0.9434 0.3313
vn 0.0721 0.9317 0.3560
vn 0.5464 0.0442 -0.8364
vn 0.1575 0.1081 -0.9816
vn 0.4636 0.1993 -0.8633
vn -0.1939 0.2282 -0.9541
vn 0.1119 0.2324 -0.9662
vn -0.2049 0.1669 -0.9645
vn 0.5163 0.1397 -0.8449
vn -0.3807 -0.2025 0.9022
vn -0.3991 -0.6377 0.6588
vn 0.0536 -0.6457 0.7617
vn 0.0429 -0.2656 0.9631
vn 0.1902 -0.6570 0.7295
vn 0.1398 -0.3167 0.9382
vn 0.2125 -0.6546 0.7255
vn 0.1139 -0.3530 0.9287
vn 0.5633 -0.5687 0.5994
vn 0.5344 -0.2899 0.7939
vn -0.1694 -0.9164 0.3626
vn 0.2862 -0.8542 0.4341
vn 0.3916 -0.8332 0.3904
vn 0.3401 -0.8560 0.3894
vn 0.6687 -0.6704 0.3216
vn -0.1533 -0.9861 -0.0641
vn 0.4340 -0.9008 -0.0145
vn 0.4387 -0.8986 -0.0113
vn 0.1419 -0.9865 -0.0811
vn 0.4882 -0.8725 -0.0194
vn 0.7331 -0.6555 -0.1812
vn 0.6992 -0.6749 -0.2358
vn 0.4937 -0.8258 -0.2727
vn -0.0167 -0.9436 -0.3306
vn -0.0726 -0.9320 -0.3551
vn -0.5480 -0.0425 0.8354
vn -0.1573 -0.1075 0.9817
vn -0.4633 -0.1986 0.8636
vn -0.5176 -0.1386 0.8443
vn 0.1936 -0.2290 0.9540
vn -0.1120 -0.2323 0.9662
vn 0.2054 -0.1673 0.9643
vn -0.9200 0.0108 -0.3919
vn -0.9045 0.0870 -0.4176
vn -0.0686 0.1348 -0.9885
vn -0.0768 0.0006 -0.9970
vn -0.9285 0.0023 0.3714
vn -0.9364 -0.0256 0.3501
vn -0.3963 -0.0143 0.9180
vn -0.4067 -0.1304 0.9042
vn 0.6401 -0.0334 0.7676
vn 0.6625 -0.1388 0.7361
vn 0.9243 -0.0262 -0.3807
vn 0.9087 0.0343 -0.4160
vn -0.7480 0.6573 0.0919
vn 0.0651 0.9252 -0.3738
vn -0.0593 0.5020 -0.8628
vn -0.8753 0.3335 -0.3501
vn -0.7996 0.1491 0.5818
vn -0.9475 -0.0391 0.3173
vn -0.3690 -0.3241 0.8711
vn -0.4662 -0.3908 0.7937
vn 0.6128 -0.4144 0.6728
vn 0.6359 -0.4571 0.6218
vn 0.9377 0.3377 -0.0814
vn 0.8958 0.1162 -0.4290
vn 0.2150 0.5865 0.7809
vn 0.3763 0.7089 -0.5966
vn -0.0998 0.8391 -0.5348
vn 0.0220 0.9911 -0.1316
vn 0.4839 0.8524 -0.1981
vn -0.1660 0.8685 -0.4670
vn -0.0746 0.9950 -0.0670
vn -0.1877 0.8551 -0.4833
vn -0.1125 0.9888 -0.0982
vn -0.5703 0.7675 -0.2929
vn -0.4951 0.8671 0.0558
vn 0.1970 0.7714 0.6051
vn 0.6366 0.6931 0.3381
vn 0.1238 0.8171 0.5630
vn 0.1578 0.7947 0.5862
vn -0.2689 0.7665 0.5833
vn 0.2660 0.1902 0.9450
vn 0.7684 0.1875 0.6119
vn 0.2829 0.2588 0.9236
vn 0.5707 0.1891 0.7991
vn 0.2670 0.2613 0.9276
vn 0.0950 -0.0879 0.9916
vn 0.1145 -0.1283 0.9851
vn 0.2932 -0.0751 0.9531
vn 0.7160 -0.0384 0.6970
vn 0.7441 -0.0601 0.6654
vn 0.3726 0.6187 -0.6917
vn -0.1076 0.7508 -0.6516
vn 0.3322 0.6653 -0.6686
vn -0.4848 0.7280 -0.4847
vn -0.1319 0.7746 -0.6185
vn -0.4716 0.7226 -0.5054
vn 0.2650 0.6666 -0.6967
vn -0.3776 -0.7081 0.5966
vn -0.4852 -0.8516 0.1983
vn -0.0228 -0.9910 0.1318
vn 0.0993 -0.8392 0.5347
vn 0.0741 -0.9950 0.0671
vn 0.1658 -0.8687 0.4668
vn 0.1126 -0.9888 0.0981
vn 0.1874 -0.8552 0.4833
vn 0.4959 -0.8666 -0.0561
vn 0.5709 -0.7672 0.2924
vn -0.6378 -0.6928 -0.3365
vn -0.1974 -0.7720 -0.6042
vn -0.1241 -0.8180 -0.5617
vn -0.1582 -0.7951 -0.5855
vn 0.2699 -0.7666 -0.5827
vn -0.7697 -0.1878 -0.6101
vn -0.2648 -0.1915 -0.9451
vn -0.2800 -0.2607 -0.9239
vn -0.5697 -0.1902 -0.7995
vn -0.2655 -0.2619 -0.9279
vn -0.0930 0.0881 -0.9918
vn -0.1146 0.1287 -0.9850
vn -0.2930 0.0754 -0.9531
vn -0.7162 0.0382 -0.6969
vn -0.7444 0.0594 -0.6651
vn -0.3742 -0.6177 0.6917
vn 0.1077 -0.7508 0.6517
vn -0.3321 -0.6651 0.6689
vn -0.2654 -0.6665 0.6967
vn 0.4850 -0.7280 0.4845
vn 0.1322 -0.7745 0.6186
vn 0.4725 -0.7223 0.5049
vn -0.6829 0.0108 0.7305
vn -0.7018 0.0870 0.7071
vn -0.9524 0.1348 -0.2736
vn -0.9632 0.0006 -0.2688
vn 0.0314 0.0023 0.9995
vn 0.0087 -0.0256 0.9996
vn 0.7271 -0.0143 0.6864
vn 0.7106 -0.1304 0.6914
vn 0.9402 -0.0334 -0.3389
vn 0.9183 -0.1388 -0.3708
vn -0.0416 -0.0262 -0.9988
vn -0.0801 0.0343 -0.9962
vn -0.1694 0.6573 0.7344
vn -0.3290 0.9252 -0.1890
vn -0.8311 0.5020 -0.2393
vn -0.6283 0.3335 0.7028
vn 0.2732 0.1491 0.9503
vn -0.0259 -0.0391 0.9989
vn 0.6923 -0.3241 0.6447
vn 0.5864 -0.3907 0.7096
vn 0.8419 -0.4144 -0.3458
vn 0.8018 -0.4571 -0.3850
vn 0.2442 0.3377 -0.9090
vn -0.0967 0.1162 -0.9885
vn 0.8073 0.5865 0.0651
vn -0.4319 0.7089 -0.5577
vn -0.5367 0.8391 -0.0891
vn -0.1162 0.9911 -0.0657
vn -0.0207 0.8524 -0.5224
vn -0.4956 0.8685 -0.0037
vn -0.0884 0.9950 0.0472
vn -0.5183 0.8551 0.0110
vn -0.1307 0.9888 0.0721
vn -0.4703 0.7674 0.4357
vn -0.1169 0.8670 0.4843
vn 0.6360 0.7714 0.0218
vn 0.5354 0.6931 -0.4826
vn 0.5714 0.8171 0.0763
vn 0.6048 0.7947 0.0522
vn 0.4561 0.7665 0.4522
vn 0.9790 0.1902 0.0733
vn 0.8378 0.1875 -0.5128
vn 0.9646 0.2588 0.0500
vn 0.9461 0.1891 -0.2630
vn 0.9630 0.2613 0.0663
vn 0.9643 -0.0879 0.2500
vn 0.9649 -0.1282 0.2293
vn 0.9959 -0.0751 0.0505
vn 0.8999 -0.0384 -0.4345
vn 0.8797 -0.0601 -0.4716
vn -0.5226 0.6187 -0.5867
vn -0.6492 0.7508 -0.1217
vn -0.5147 0.6653 -0.5408
vn -0.6213 0.7280 0.2898
vn -0.6264 0.7746 -0.0876
vn -0.6362 0.7226 0.2703
vn -0.5641 0.6666 -0.4873
vn 0.4315 -0.7081 0.5589
vn 0.0204 -0.8516 0.5238
vn 0.1160 -0.9910 0.0665
vn 0.5364 -0.8392 0.0896
vn 0.0884 -0.9950 -0.0467
vn 0.4953 -0.8687 0.0038
vn 0.1307 -0.9888 -0.0722
vn 0.5182 -0.8552 -0.0108
vn 0.1169 -0.8666 -0.4851
vn 0.4700 -0.7672 -0.4365
vn -0.5344 -0.6928 0.4842
vn -0.6353 -0.7720 -0.0211
vn -0.5702 -0.8180 -0.0755
vn -0.6043 -0.7951 -0.0516
vn -0.4553 -0.7666 -0.4529
vn -0.8366 -0.1878 0.5146
vn -0.9787 -0.1915 -0.0744
vn -0.9640 -0.2608 -0.0529
vn -0.9462 -0.1902 0.2619
vn -0.9627 -0.2619 -0.0679
vn -0.9638 0.0880 -0.2518
vn -0.9648 0.1287 -0.2293
vn -0.9959 0.0754 -0.0506
vn -0.8997 0.0382 0.4348
vn -0.8796 0.0594 0.4721
vn 0.5220 -0.6177 0.5882
vn 0.6493 -0.7508 0.1217
vn 0.5149 -0.6651 0.5409
vn 0.5639 -0.6664 0.4877
vn 0.6212 -0.7280 -0.2900
vn 0.6265 -0.7745 0.0873
vn 0.6361 -0.7223 -0.2713
vn -0.0336 0.0108 -0.9994
vn -0.0037 0.0871 -0.9962
vn 0.8669 0.1348 -0.4800
vn 0.8711 0.0006 -0.4910
vn -0.7290 0.0023 -0.6845
vn -0.7130 -0.0256 -0.7007
vn -0.9995 -0.0143 0.0289
vn -0.9914 -0.1304 0.0137
vn -0.4251 -0.0334 0.9045
vn -0.3871 -0.1388 0.9115
vn 0.7357 -0.0262 0.6768
vn 0.7611 0.0343 0.6478
vn -0.3994 0.6573 -0.6390
vn 0.3662 0.9252 -0.0990
vn 0.7569 0.5020 -0.4184
vn -0.0527 0.3335 -0.9413
vn -0.8652 0.1492 -0.4788
vn -0.6880 -0.0391 -0.7247
vn -0.9454 -0.3241 0.0338
vn -0.9164 -0.3907 -0.0871
vn -0.3508 -0.4144 0.8398
vn -0.2948 -0.4571 0.8392
vn 0.4701 0.3377 0.8155
vn 0.7674 0.1162 0.6306
vn -0.6169 0.5865 0.5249
vn 0.6997 0.7089 0.0889
vn 0.4425 0.8391 -0.3164
vn 0.1286 0.9911 -0.0357
vn 0.3840 0.8524 0.3548
vn 0.3531 0.8685 -0.3478
vn 0.0292 0.9950 -0.0959
vn 0.3587 0.8551 -0.3743
vn 0.0414 0.9888 -0.1435
vn 0.0244 0.7674 -0.6406
vn -0.2598 0.8670 -0.4251
vn -0.4651 0.7714 0.4343
vn -0.0374 0.6931 0.7199
vn -0.4580 0.8171 0.3501
vn -0.4646 0.7947 0.3907
vn -0.6423 0.7665 0.0028
vn -0.7441 0.1902 0.6405
vn -0.2298 0.1875 0.9550
vn -0.7175 0.2588 0.6467
vn -0.4830 0.1891 0.8550
vn -0.7278 0.2613 0.6341
vn -0.8586 -0.0879 0.5051
vn -0.8444 -0.1282 0.5201
vn -0.7399 -0.0751 0.6685
vn -0.3290 -0.0384 0.9435
vn -0.2886 -0.0601 0.9556
vn 0.7844 0.6187 0.0453
vn 0.5451 0.7509 -0.3730
vn 0.7464 0.6653 0.0185
vn 0.2344 0.7280 -0.6442
vn 0.5048 0.7746 -0.3810
vn 0.2587 0.7226 -0.6410
vn 0.7434 0.6666 -0.0543
vn -0.7003 -0.7081 -0.0901
vn -0.3848 -0.8516 -0.3559
vn -0.1291 -0.9910 0.0350
vn -0.4427 -0.8392 0.3160
vn -0.0295 -0.9950 0.0956
vn -0.3529 -0.8687 0.3476
vn -0.0414 -0.9888 0.1435
vn -0.3588 -0.8552 0.3741
vn 0.2603 -0.8666 0.4257
vn -0.0237 -0.7672 0.6410
vn 0.0355 -0.6928 -0.7203
vn 0.4642 -0.7720 -0.4343
vn 0.4566 -0.8180 -0.3498
vn 0.4638 -0.7951 -0.3908
vn 0.6422 -0.7666 -0.0017
vn 0.2277 -0.1878 -0.9555
vn 0.7446 -0.1915 -0.6394
vn 0.7190 -0.2607 -0.6442
vn 0.4838 -0.1902 -0.8542
vn 0.7287 -0.2619 -0.6328
vn 0.8596 0.0880 -0.5034
vn 0.8443 0.1287 -0.5201
vn 0.7399 0.0754 -0.6685
vn 0.3287 0.0382 -0.9436
vn 0.2882 0.0594 -0.9557
vn -0.7850 -0.6177 -0.0469
vn -0.5452 -0.7508 0.3730
vn -0.7466 -0.6651 -0.0184
vn -0.7436 -0.6665 0.0540
vn -0.2342 -0.7280 0.6443
vn -0.5048 -0.7745 0.3813
vn -0.2579 -0.7223 0.6417
s 1
f 1/1/1 2/2/2 3/3/3
f 3/3/3 4/4/4 1/1/1
f 5/5/5 6/6/6 2/2/2
f 2/2/2 1/1/1 5/5/5
f 7/7/7 8/8/8 6/9/6
f 6/9/6 5/10/5 7/7/7
f 9/11/9 10/12/10 8/8/8
f 8/8/8 7/7/7 9/11/9
f 11/13/11 12/14/12 10/12/10
f 10/12/10 9/11/9 11/13/11
f 4/4/4 3/3/3 12/15/12
f 12/15/12 11/16/11 4/4/4
f 13/17/13 14/18/14 15/19/15
f 15/19/15 16/20/16 13/17/13
f 17/21/17 13/17/13 16/20/16
f 16/20/16 18/22/18 17/21/17
f 19/23/19 17/24/17 18/25/18
f 18/25/18 20/26/20 19/23/19
f 21/27/21 19/23/19 20/26/20
f 20/26/20 22/28/22 21/27/21
f 23/29/23 21/27/21 22/28/22
f 22/28/22 24/30/24 23/29/23
f 14/18/14 23/31/23 24/32/24
f 24/32/24 15/19/15 14/18/14
f 16/20/16 15/19/15 3/3/3
f 3/3/3 2/2/2 16/20/16
f 18/22/18 16/20/16 2/2/2
f 2/2/2 6/6/6 18/22/18
f 20/26/20 18/25/18 6/9/6
f 6/9/6 8/8/8 20/26/20
f 10/12/10 22/28/22 20/26/20
f 20/26/20 8/8/8 10/12/10
f 12/14/12 24/30/24 22/28/22
f 22/28/22 10/12/10 12/14/12
f 3/3/3 15/19/15 24/32/24
f 24/32/24 12/15/12 3/3/3
f 13/17/13 25/33/25 14/18/14
f 17/21/17 25/33/25 13/17/13
f 19/23/19 25/33/25 17/24/17
f 21/27/21 25/33/25 19/23/19
f 23/29/23 25/33/25 21/27/21
f 14/18/14 25/33/25 23/31/23
s 2
f 26/34/26 27/35/27 28/36/28
f 28/36/28 29/37/29 26/34/26
f 27/35/27 30/38/30 31/39/31
f 31/39/31 28/36/28 27/35/27
f 31/39/31 30/38/30 32/40/32
f 32/40/32 33/41/33 31/39/31
f 33/41/33 32/40/32 34/42/34
f 34/42/34 35/43/35 33/41/33
f 29/37/29 28/36/28 36/44/36
f 36/44/36 37/45/37 29/37/29
f 28/36/28 31/39/31 38/46/38
f 38/46/38 36/44/36 28/36/28
f 31/39/31 33/41/33 39/47/39
f 39/47/39 38/46/38 31/39/31
f 33/41/33 35/43/35 40/48/40
f 40/48/40 39/47/39 33/41/33
f 37/45/37 36/44/36 41/49/41
f 41/49/41 42/50/42 37/45/37
f 36/44/36 38/46/38 43/51/43
f 43/51/43 41/49/41 36/44/36
f 38/46/38 39/47/39 44/52/44
f 44/52/44 43/51/43 38/46/38
f 44/52/44 39/47/39 45/53/45
f 46/54/46 41/49/41 47/55/47
f 41/49/41 43/51/43 48/56/48
f 48/56/48 47/55/47 41/49/41
f 43/51/43 44/52/44 49/57/49
f 49/57/49 48/56/48 43/51/43
f 49/57/49 44/52/44 50/58/50
f 26/34/26 51/59/51 27/35/27
f 27/35/27 52/60/52 30/38/30
f 30/38/30 53/61/53 32/40/32
f 32/40/32 54/62/54 34/42/34
f 44/52/44 45/53/45 50/58/50
f 46/54/46 42/50/42 41/49/41
f 32/40/32 55/63/55 54/62/54
f 32/40/32 53/61/53 55/63/55
f 51/59/51 52/60/52 27/35/27
f 30/38/30 56/64/56 57/65/57
s 3
f 58/66/58 59/67/59 60/68/60
f 60/68/60 61/69/61 58/66/58
f 61/69/61 60/68/60 62/70/62
f 62/70/62 63/71/63 61/69/61
f 62/70/62 64/72/64 65/73/65
f 65/73/65 63/71/63 62/70/62
f 64/72/64 66/74/66 67/75/67
f 67/75/67 65/73/65 64/72/64
f 59/67/59 68/76/68 69/77/69
f 69/77/69 60/68/60 59/67/59
f 60/68/60 69/77/69 70/78/70
f 70/78/70 62/70/62 60/68/60
f 62/70/62 70/78/70 71/79/71
f 71/79/71 64/72/64 62/70/62
f 64/72/64 71/79/71 72/80/72
f 72/80/72 66/74/66 64/72/64
f 68/76/68 73/81/73 74/82/74
f 74/82/74 69/77/69 68/76/68
f 69/77/69 74/82/74 75/83/75
f 75/83/75 70/78/70 69/77/69
f 70/78/70 75/83/75 76/84/76
f 76/84/76 71/79/71 70/78/70
f 76/84/76 77/85/77 71/79/71
f 78/86/78 79/87/79 74/82/74
f 74/82/74 79/87/79 80/88/80
f 80/88/80 75/83/75 74/82/74
f 75/83/75 80/88/80 81/89/81
f 81/89/81 76/84/76 75/83/75
f 81/89/81 82/90/82 76/84/76
f 58/66/58 61/69/61 83/91/83
f 61/69/61 63/71/63 84/92/84
f 63/71/63 85/93/85 86/94/86
f 65/73/65 67/75/67 87/95/87
f 76/84/76 82/90/82 77/85/77
f 78/86/78 74/82/74 73/81/73
f 65/73/65 87/95/87 88/96/88
f 65/73/65 88/96/88 85/93/85
f 83/91/83 61/69/61 84/92/84
f 63/71/63 86/94/86 89/97/89
s 2
f 52/60/52 56/64/56 30/38/30
f 30/38/30 57/65/57 53/61/53
s 3
f 63/71/63 89/97/89 84/92/84
f 63/71/63 65/73/65 85/93/85
s 2
f 39/47/39 40/48/40 45/53/45
s 3
f 77/85/77 72/80/72 71/79/71
s 4
f 90/98/90 91/99/91 92/100/92
f 92/100/92 93/101/93 90/98/90
f 94/102/94 95/103/95 91/99/91
f 91/99/91 90/98/90 94/102/94
f 96/104/96 97/105/97 95/106/95
f 95/106/95 94/107/94 96/104/96
f 98/108/98 99/109/99 97/105/97
f 97/105/97 96/104/96 98/108/98
f 100/110/100 101/111/101 99/109/99
f 99/109/99 98/108/98 100/110/100
f 93/101/93 92/100/92 101/112/101
f 101/112/101 100/113/100 93/101/93
f 102/114/102 103/115/103 104/116/104
f 104/116/104 105/117/105 102/114/102
f 106/118/106 102/114/102 105/117/105
f 105/117/105 107/119/107 106/118/106
f 108/120/108 106/121/106 107/122/107
f 107/122/107 109/123/109 108/120/108
f 110/124/110 108/120/108 109/123/109
f 109/123/109 111/125/111 110/124/110
f 112/126/112 110/124/110 111/125/111
f 111/125/111 113/127/113 112/126/112
f 103/115/103 112/128/112 113/129/113
f 113/129/113 104/116/104 103/115/103
f 105/117/105 104/116/104 92/100/92
f 92/100/92 91/99/91 105/117/105
f 107/119/107 105/117/105 91/99/91
f 91/99/91 95/103/95 107/119/107
f 109/123/109 107/122/107 95/106/95
f 95/106/95 97/105/97 109/123/109
f 99/109/99 111/125/111 109/123/109
f 109/123/109 97/105/97 99/109/99
f 101/111/101 113/127/113 111/125/111
f 111/125/111 99/109/99 101/111/101
f 92/100/92 104/116/104 113/129/113
f 113/129/113 101/112/101 92/100/92
f 102/114/102 114/130/114 103/115/103
f 106/118/106 114/130/114 102/114/102
f 108/120/108 114/130/114 106/121/106
f 110/124/110 114/130/114 108/120/108
f 112/126/112 114/130/114 110/124/110
f 103/115/103 114/130/114 112/128/112
s 5
f 115/131/115 116/132/116 117/133/117
f 117/133/117 118/134/118 115/131/115
f 116/132/116 119/135/119 120/136/120
f 120/136/120 117/133/117 116/132/116
f 120/136/120 119/135/119 121/137/121
f 121/137/121 122/138/122 120/136/120
f 122/138/122 121/137/121 123/139/123
f 123/139/123 124/140/124 122/138/122
f 118/134/118 117/133/117 125/141/125
f 125/141/125 126/142/126 118/134/118
f 117/133/117 120/136/120 127/143/127
f 127/143/127 125/141/125 117/133/117
f 120/136/120 122/138/122 128/144/128
f 128/144/128 127/143/127 120/136/120
f 122/138/122 124/140/124 129/145/129
f 129/145/129 128/144/128 122/138/122
f 126/142/126 125/141/125 130/146/130
f 130/146/130 131/147/131 126/142/126
f 125/141/125 127/143/127 132/148/132
f 132/148/132 130/146/130 125/141/125
f 127/143/127 128/144/128 133/149/133
f 133/149/133 132/148/132 127/143/127
f 133/149/133 128/144/128 134/150/134
f 135/151/135 130/146/130 136/152/136
f 130/146/130 132/148/132 137/153/137
f 137/153/137 136/152/136 130/146/130
f 132/148/132 133/149/133 138/154/138
f 138/154/138 137/153/137 132/148/132
f 138/154/138 133/149/133 139/155/139
f 115/131/115 140/156/140 116/132/116
f 116/132/116 141/157/141 119/135/119
f 119/135/119 142/158/142 121/137/121
f 121/137/121 143/159/143 123/139/123
f 133/149/133 134/150/134 139/155/139
f 135/151/135 131/147/131 130/146/130
f 121/137/121 144/160/144 143/159/143
f 121/137/121 142/158/142 144/160/144
f 140/156/140 141/157/141 116/132/116
f 119/135/119 145/161/145 146/162/146
s 6
f 147/163/147 148/164/148 149/165/149
f 149/165/149 150/166/150 147/163/147
f 150/166/150 149/165/149 151/167/151
f 151/167/151 152/168/152 150/166/150
f 151/167/151 153/169/153 154/170/154
f 154/170/154 152/168/152 151/167/151
f 153/169/153 155/171/155 156/172/156
f 156/172/156 154/170/154 153/169/153
f 148/164/148 157/173/157 158/174/158
f 158/174/158 149/165/149 148/164/148
f 149/165/149 158/174/158 159/175/159
f 159/175/159 151/167/151 149/165/149
f 151/167/151 159/175/159 160/176/160
f 160/176/160 153/169/153 151/167/151
f 153/169/153 160/176/160 161/177/161
f 161/177/161 155/171/155 153/169/153
f 157/173/157 162/178/162 163/179/163
f 163/179/163 158/174/158 157/173/157
f 158/174/158 163/179/163 164/180/164
f 164/180/164 159/175/159 158/174/158
f 159/175/159 164/180/164 165/181/165
f 165/181/165 160/176/160 159/175/159
f 165/181/165 166/182/166 160/176/160
f 167/183/167 168/184/168 163/179/163
f 163/179/163 168/184/168 169/185/169
f 169/185/169 164/180/164 163/179/163
f 164/180/164 169/185/169 170/186/170
f 170/186/170 165/181/165 164/180/164
f 170/186/170 171/187/171 165/181/165
f 147/163/147 150/166/150 172/188/172
f 150/166/150 152/168/152 173/189/173
f 152/168/152 174/190/174 175/191/175
f 154/170/154 156/172/156 176/192/176
f 165/181/165 171/187/171 166/182/166
f 167/183/167 163/179/163 162/178/162
f 154/170/154 176/192/176 177/193/177
f 154/170/154 177/193/177 174/190/174
f 172/188/172 150/166/150 173/189/173
f 152/168/152 175/191/175 178/194/178
s 5
f 141/157/141 145/161/145 119/135/119
f 119/135/119 146/162/146 142/158/142
s 6
f 152/168/152 178/194/178 173/189/173
f 152/168/152 154/170/154 174/190/174
s 5
f 128/144/128 129/145/129 134/150/134
s 6
f 166/182/166 161/177/161 160/176/160
s 7
f 179/195/179 180/196/180 181/197/181
f 181/197/181 182/198/182 179/195/179
f 183/199/183 184/200/184 180/196/180
f 180/196/180 179/195/179 183/199/183
f 185/201/185 186/202/186 184/203/184
f 184/203/184 183/204/183 185/201/185
f 187/205/187 188/206/188 186/202/186
f 186/202/186 185/201/185 187/205/187
f 189/207/189 190/208/190 188/206/188
f 188/206/188 187/205/187 189/207/189
f 182/198/182 181/197/181 190/209/190
f 190/209/190 189/210/189 182/198/182
f 191/211/191 192/212/192 193/213/193
f 193/213/193 194/214/194 191/211/191
f 195/215/195 191/211/191 194/214/194
f 194/214/194 196/216/196 195/215/195
f 197/217/197 195/218/195 196/219/196
f 196/219/196 198/220/198 197/217/197
f 199/221/199 197/217/197 198/220/198
f 198/220/198 200/222/200 199/221/199
f 201/223/201 199/221/199 200/222/200
f 200/222/200 202/224/202 201/223/201
f 192/212/192 201/225/201 202/226/202
f 202/226/202 193/213/193 192/212/192
f 194/214/194 193/213/193 181/197/181
f 181/197/181 180/196/180 194/214/194
f 196/216/196 194/214/194 180/196/180
f 180/196/180 184/200/184 196/216/196
f 198/220/198 196/219/196 184/203/184
f 184/203/184 186/202/186 198/220/198
f 188/206/188 200/222/200 198/220/198
f 198/220/198 186/202/186 188/206/188
f 190/208/190 202/224/202 200/222/200
f 200/222/200 188/206/188 190/208/190
f 181/197/181 193/213/193 202/226/202
f 202/226/202 190/209/190 181/197/181
f 191/211/191 203/227/203 192/212/192
f 195/215/195 203/227/203 191/211/191
f 197/217/197 203/227/203 195/218/195
f 199/221/199 203/227/203 197/217/197
f 201/223/201 203/227/203 199/221/199
f 192/212/192 203/227/203 201/225/201
s 8
f 204/228/204 205/229/205 206/230/206
f 206/230/206 207/231/207 204/228/204
f 205/229/205 208/232/208 209/233/209
f 209/233/209 206/230/206 205/229/205
f 209/233/209 208/232/208 210/234/210
f 210/234/210 211/235/211 209/233/209
f 211/235/211 210/234/210 212/236/212
f 212/236/212 213/237/213 211/235/211
f 207/231/207 206/230/206 214/238/214
f 214/238/214 215/239/215 207/231/207
f 206/230/206 209/233/209 216/240/216
f 216/240/216 214/238/214 206/230/206
f 209/233/209 211/235/211 217/241/217
f 217/241/217 216/240/216 209/233/209
f 211/235/211 213/237/213 218/242/218
f 218/242/218 217/241/217 211/235/211
f 215/239/215 214/238/214 219/243/219
f 219/243/219 220/244/220 215/239/215
f 214/238/214 216/240/216 221/245/221
f 221/245/221 219/243/219 214/238/214
f 216/240/216 217/241/217 222/246/222
f 222/246/222 221/245/221 216/240/216
f 222/246/222 217/241/217 223/247/223
f 224/248/224 219/243/219 225/249/225
f 219/243/219 221/245/221 226/250/226
f 226/250/226 225/249/225 219/243/219
f 221/245/221 222/246/222 227/251/227
f 227/251/227 226/250/226 221/245/221
f 227/251/227 222/246/222 228/252/228
f 204/228/204 229/253/229 205/229/205
f 205/229/205 230/254/230 208/232/208
f 208/232/208 231/255/231 210/234/210
f 210/234/210 232/256/232 212/236/212
f 222/246/222 223/247/223 228/252/228
f 224/248/224 220/244/220 219/243/219
f 210/234/210 233/257/233 232/256/232
f 210/234/210 231/255/231 233/257/233
f 229/253/229 230/254/230 205/229/205
f 208/232/208 234/258/234 235/259/235
s 9
f 236/260/236 237/261/237 238/262/238
f 238/262/238 239/263/239 236/260/236
f 239/263/239 238/262/238 240/264/240
f 240/264/240 241/265/241 239/263/239
f 240/264/240 242/266/242 243/267/243
f 243/267/243 241/265/241 240/264/240
f 242/266/242 244/268/244 245/269/245
f 245/269/245 243/267/243 242/266/242
f 237/261/237 246/270/246 247/271/247
f 247/271/247 238/262/238 237/261/237
f 238/262/238 247/271/247 248/272/248
f 248/272/248 240/264/240 238/262/238
f 240/264/240 248/272/248 249/273/249
f 249/273/249 242/266/242 240/264/240
f 242/266/242 249/273/249 250/274/250
f 250/274/250 244/268/244 242/266/242
f 246/270/246 251/275/251 252/276/252
f 252/276/252 247/271/247 246/270/246
f 247/271/247 252/276/252 253/277/253
f 253/277/253 248/272/248 247/271/247
f 248/272/248 253/277/253 254/278/254
f 254/278/254 249/273/249 248/272/248
f 254/278/254 255/279/255 249/273/249
f 256/280/256 257/281/257 252/276/252
f 252/276/252 257/281/257 258/282/258
f 258/282/258 253/277/253 252/276/252
f 253/277/253 258/282/258 259/283/259
f 259/283/259 254/278/254 253/277/253
f 259/283/259 260/284/260 254/278/254
f 236/260/236 239/263/239 261/285/261
f 239/263/239 241/265/241 262/286/262
f 241/265/241 263/287/263 264/288/264
f 243/267/243 245/269/245 265/289/265
f 254/278/254 260/284/260 255/279/255
f 256/280/256 252/276/252 251/275/251
f 243/267/243 265/289/265 266/290/266
f 243/267/243 266/290/266 263/287/263
f 261/285/261 239/263/239 262/286/262
f 241/265/241 264/288/264 267/291/267
s 8
f 230/254/230 234/258/234 208/232/208
f 208/232/208 235/259/235 231/255/231
s 9
f 241/265/241 267/291/267 262/286/262
f 241/265/241 243/267/243 263/287/263
s 8
f 217/241/217 218/242/218 223/247/223
s 9
f 255/279/255 250/274/250 249/273/249
s 10
f 268/292/268 269/293/269 270/294/270
f 270/294/270 271/295/271 268/292/268
f 272/296/272 273/297/273 269/293/269
f 269/293/269 268/292/268 272/296/272
f 274/298/274 275/299/275 273/300/273
f 273/300/273 272/301/272 274/298/274
f 276/302/276 277/303/277 275/299/275
f 275/299/275 274/298/274 276/302/276
f 278/304/278 279/305/279 277/303/277
f 277/303/277 276/302/276 278/304/278
f 271/295/271 270/294/270 279/306/279
f 279/306/279 278/307/278 271/295/271
f 280/308/280 281/309/281 282/310/282
f 282/310/282 283/311/283 280/308/280
f 284/312/284 280/308/280 283/311/283
f 283/311/283 285/313/285 284/312/284
f 286/314/286 284/315/284 285/316/285
f 285/316/285 287/317/287 286/314/286
f 288/318/288 286/314/286 287/317/287
f 287/317/287 289/319/289 288/318/288
f 290/320/290 288/318/288 289/319/289
f 289/319/289 291/321/291 290/320/290
f 281/309/281 290/322/290 291/323/291
f 291/323/291 282/310/282 281/309/281
f 283/311/283 282/310/282 270/294/270
f 270/294/270 269/293/269 283/311/283
f 285/313/285 283/311/283 269/293/269
f 269/293/269 273/297/273 285/313/285
f 287/317/287 285/316/285 273/300/273
f 273/300/273 275/299/275 287/317/287
f 277/303/277 289/319/289 287/317/287
f 287/317/287 275/299/275 277/303/277
f 279/305/279 291/321/291 289/319/289
f 289/319/289 277/303/277 279/305/279
f 270/294/270 282/310/282 291/323/291
f 291/323/291 279/306/279 270/294/270
f 280/308/280 292/324/292 281/309/281
f 284/312/284 292/324/292 280/308/280
f 286/314/286 292/324/292 284/315/284
f 288/318/288 292/324/292 286/314/286
f 290/320/290 292/324/292 288/318/288
f 281/309/281 292/324/292 290/322/290
s 11
f 293/325/293 294/326/294 295/327/295
f 295/327/295 296/328/296 293/325/293
f 294/326/294 297/329/297 298/330/298
f 298/330/298 295/327/295 294/326/294
f 298/330/298 297/329/297 299/331/299
f 299/331/299 300/332/300 298/330/298
f 300/332/300 299/331/299 301/333/301
f 301/333/301 302/334/302 300/332/300
f 296/328/296 295/327/295 303/335/303
f 303/335/303 304/336/304 296/328/296
f 295/327/295 298/330/298 305/337/305
f 305/337/305 303/335/303 295/327/295
f 298/330/298 300/332/300 306/338/306
f 306/338/306 305/337/305 298/330/298
f 300/332/300 302/334/302 307/339/307
f 307/339/307 306/338/306 300/332/300
f 304/336/304 303/335/303 308/340/308
f 308/340/308 309/341/309 304/336/304
f 303/335/303 305/337/305 310/342/310
f 310/342/310 308/340/308 303/335/303
f 305/337/305 306/338/306 311/343/311
f 311/343/311 310/342/310 305/337/305
f 311/343/311 306/338/306 312/344/312
f 313/345/313 308/340/308 314/346/314
f 308/340/308 310/342/310 315/347/315
f 315/347/315 314/346/314 308/340/308
f 310/342/310 311/343/311 316/348/316
f 316/348/316 315/347/315 310/342/310
f 316/348/316 311/343/311 317/349/317
f 293/325/293 318/350/318 294/326/294
f 294/326/294 319/351/319 297/329/297
f 297/329/297 320/352/320 299/331/299
f 299/331/299 321/353/321 301/333/301
f 311/343/311 312/344/312 317/349/317
f 313/345/313 309/341/309 308/340/308
f 299/331/299 322/354/322 321/353/321
f 299/331/299 320/352/320 322/354/322
f 318/350/318 319/351/319 294/326/294
f 297/329/297 323/355/323 324/356/324
s 12
f 325/357/325 326/358/326 327/359/327
f 327/359/327 328/360/328 325/357/325
f 328/360/328 327/359/327 329/361/329
f 329/361/329 330/362/330 328/360/328
f 329/361/329 331/363/331 332/364/332
f 332/364/332 330/362/330 329/361/329
f 331/363/331 333/365/333 334/366/334
f 334/366/334 332/364/332 331/363/331
f 326/358/326 335/367/335 336/368/336
f 336/368/336 327/359/327 326/358/326
f 327/359/327 336/368/336 337/369/337
f 337/369/337 329/361/329 327/359/327
f 329/361/329 337/369/337 338/370/338
f 338/370/338 331/363/331 329/361/329
f 331/363/331 338/370/338 339/371/339
f 339/371/339 333/365/333 331/363/331
f 335/367/335 340/372/340 341/373/341
f 341/373/341 336/368/336 335/367/335
f 336/368/336 341/373/341 342/374/342
f 342/374/342 337/369/337 336/368/336
f 337/369/337 342/374/342 343/375/343
f 343/375/343 338/370/338 337/369/337
f 343/375/343 344/376/344 338/370/338
f 345/377/345 346/378/346 341/373/341
f 341/373/341 346/378/346 347/379/347
f 347/379/347 342/374/342 341/373/341
f 342/374/342 347/379/347 348/380/348
f 348/380/348 343/375/343 342/374/342
f 348/380/348 349/381/349 343/375/343
f 325/357/325 328/360/328 350/382/350
f 328/360/328 330/362/330 351/383/351
f 330/362/330 352/384/352 353/385/353
f 332/364/332 334/366/334 354/386/354
f 343/375/343 349/381/349 344/376/344
f 345/377/345 341/373/341 340/372/340
f 332/364/332 354/386/354 355/387/355
f 332/364/332 355/387/355 352/384/352
f 350/382/350 328/360/328 351/383/351
f 330/362/330 353/385/353 356/388/356
s 11
f 319/351/319 323/355/323 297/329/297
f 297/329/297 324/356/324 320/352/320
s 12
f 330/362/330 356/388/356 351/383/351
f 330/362/330 332/364/332 352/384/352
s 11
f 306/338/306 307/339/307 312/344/312
s 12
f 344/376/344 339/371/339 338/370/338
s 13
f 357/389/357 358/390/358 359/391/359
f 359/391/359 360/392/360 357/389/357
f 361/393/361 362/394/362 358/390/358
f 358/390/358 357/389/357 361/393/361
f 363/395/363 364/396/364 362/397/362
f 362/397/362 361/398/361 363/395/363
f 365/399/365 366/400/366 364/396/364
f 364/396/364 363/395/363 365/399/365
f 367/401/367 368/402/368 366/400/366
f 366/400/366 365/399/365 367/401/367
f 360/392/360 359/391/359 368/403/368
f 368/403/368 367/404/367 360/392/360
f 369/405/369 370/406/370 371/407/371
f 371/407/371 372/408/372 369/405/369
f 373/409/373 369/405/369 372/408/372
f 372/408/372 374/410/374 373/409/373
f 375/411/375 373/412/373 374/413/374
f 374/413/374 376/414/376 375/411/375
f 377/415/377 375/411/375 376/414/376
f 376/414/376 378/416/378 377/415/377
f 379/417/379 377/415/377 378/416/378
f 378/416/378 380/418/380 379/417/379
f 370/406/370 379/419/379 380/420/380
f 380/420/380 371/407/371 370/406/370
f 372/408/372 371/407/371 359/391/359
f 359/391/359 358/390/358 372/408/372
f 374/410/374 372/408/372 358/390/358
f 358/390/358 362/394/362 374/410/374
f 376/414/376 374/413/374 362/397/362
f 362/397/362 364/396/364 376/414/376
f 366/400/366 378/416/378 376/414/376
f 376/414/376 364/396/364 366/400/366
f 368/402/368 380/418/380 378/416/378
f 378/416/378 366/400/366 368/402/368
f 359/391/359 371/407/371 380/420/380
f 380/420/380 368/403/368 359/391/359
f 369/405/369 381/421/381 370/406/370
f 373/409/373 381/421/381 369/405/369
f 375/411/375 381/421/381 373/412/373
f 377/415/377 381/421/381 375/411/375
f 379/417/379 381/421/381 377/415/377
f 370/406/370 381/421/381 379/419/379
s 14
f 382/422/382 383/423/383 384/424/384
f 384/424/384 385/425/385 382/422/382
f 383/423/383 386/426/386 387/427/387
f 387/427/387 384/424/384 383/423/383
f 387/427/387 386/426/386 388/428/388
f 388/428/388 389/429/389 387/427/387
f 389/429/389 388/428/388 390/430/390
f 390/430/390 391/431/391 389/429/389
f 385/425/385 384/424/384 392/432/392
f 392/432/392 393/433/393 385/425/385
f 384/424/384 387/427/387 394/434/394
f 394/434/394 392/432/392 384/424/384
f 387/427/387 389/429/389 395/435/395
f 395/435/395 394/434/394 387/427/387
f 389/429/389 391/431/391 396/436/396
f 396/436/396 395/435/395 389/429/389
f 393/433/393 392/432/392 397/437/397
f 397/437/397 398/438/398 393/433/393
f 392/432/392 394/434/394 399/439/399
f 399/439/399 397/437/397 392/432/392
f 394/434/394 395/435/395 400/440/400
f 400/440/400 399/439/399 394/434/394
f 400/440/400 395/435/395 401/441/401
f 402/442/402 397/437/397 403/443/403
f 397/437/397 399/439/399 404/444/404
f 404/444/404 403/443/403 397/437/397
f 399/439/399 400/440/400 405/445/405
f 405/445/405 404/444/404 399/439/399
f 405/445/405 400/440/400 406/446/406
f 382/422/382 407/447/407 383/423/383
f 383/423/383 408/448/408 386/426/386
f 386/426/386 409/449/409 388/428/388
f 388/428/388 410/450/410 390/430/390
f 400/440/400 401/441/401 406/446/406
f 402/442/402 398/438/398 397/437/397
f 388/428/388 411/451/411 410/450/410
f 388/428/388 409/449/409 411/451/411
f 407/447/407 408/448/408 383/423/383
f 386/426/386 412/452/412 413/453/413
s 15
f 414/454/414 415/455/415 416/456/416
f 416/456/416 417/457/417 414/454/414
f 417/457/417 416/456/416 418/458/418
f 418/458/418 419/459/419 417/457/417
f 418/458/418 420/460/420 421/461/421
f 421/461/421 419/459/419 418/458/418
f 420/460/420 422/462/422 423/463/423
f 423/463/423 421/461/421 420/460/420
f 415/455/415 424/464/424 425/465/425
f 425/465/425 416/456/416 415/455/415
f 416/456/416 425/465/425 426/466/426
f 426/466/426 418/458/418 416/456/416
f 418/458/418 426/466/426 427/467/427
f 427/467/427 420/460/420 418/458/418
f 420/460/420 427/467/427 428/468/428
f 428/468/428 422/462/422 420/460/420
f 424/464/424 429/469/429 430/470/430
f 430/470/430 425/465/425 424/464/424
f 425/465/425 430/470/430 431/471/431
f 431/471/431 426/466/426 425/465/425
f 426/466/426 431/471/431 432/472/432
f 432/472/432 427/467/427 426/466/426
f 432/472/432 433/473/433 427/467/427
f 434/474/434 435/475/435 430/470/430
f 430/470/430 435/475/435 436/476/436
f 436/476/436 431/471/431 430/470/430
f 431/471/431 436/476/436 437/477/437
f 437/477/437 432/472/432 431/471/431
f 437/477/437 438/478/438 432/472/432
f 414/454/414 417/457/417 439/479/439
f 417/457/417 419/459/419 440/480/440
f 419/459/419 441/481/441 442/482/442
f 421/461/421 423/463/423 443/483/443
f 432/472/432 438/478/438 433/473/433
f 434/474/434 430/470/430 429/469/429
f 421/461/421 443/483/443 444/484/444
f 421/461/421 444/484/444 441/481/441
f 439/479/439 417/457/417 440/480/440
f 419/459/419 442/482/442 445/485/445
s 14
f 408/448/408 412/452/412 386/426/386
f 386/426/386 413/453/413 409/449/409
s 15
f 419/459/419 445/485/445 440/480/440
f 419/459/419 421/461/421 441/481/441
s 14
f 395/435/395 396/436/396 401/441/401
s 15
f 433/473/433 428/468/428 427/467/427
s 16
f 446/486/446 447/487/447 448/488/448
f 448/488/448 449/489/449 446/486/446
f 450/490/450 451/491/451 447/487/447
f 447/487/447 446/486/446 450/490/450
f 452/492/452 453/493/453 451/494/451
f 451/494/451 450/495/450 452/492/452
f 454/496/454 455/497/455 453/493/453
f 453/493/453 452/492/452 454/496/454
f 456/498/456 457/499/457 455/497/455
f 455/497/455 454/496/454 456/498/456
f 449/489/449 448/488/448 457/500/457
f 457/500/457 456/501/456 449/489/449
f 458/502/458 459/503/459 460/504/460
f 460/504/460 461/505/461 458/502/458
f 462/506/462 458/502/458 461/505/461
f 461/505/461 463/507/463 462/506/462
f 464/508/464 462/509/462 463/510/463
f 463/510/463 465/511/465 464/508/464
f 466/512/466 464/508/464 465/511/465
f 465/511/465 467/513/467 466/512/466
f 468/514/468 466/512/466 467/513/467
f 467/513/467 469/515/469 468/514/468
f 459/503/459 468/516/468 469/517/469
f 469/517/469 460/504/460 459/503/459
f 461/505/461 460/504/460 448/488/448
f 448/488/448 447/487/447 461/505/461
f 463/507/463 461/505/461 447/487/447
f 447/487/447 451/491/451 463/507/463
f 465/511/465 463/510/463 451/494/451
f 451/494/451 453/493/453 465/511/465
f 455/497/455 467/513/467 465/511/465
f 465/511/465 453/493/453 455/497/455
f 457/499/457 469/515/469 467/513/467
f 467/513/467 455/497/455 457/499/457
f 448/488/448 460/504/460 469/517/469
f 469/517/469 457/500/457 448/488/448
f 458/502/458 470/518/470 459/503/459
f 462/506/462 470/518/470 458/502/458
f 464/508/464 470/518/470 462/509/462
f 466/512/466 470/518/470 464/508/464
f 468/514/468 470/518/470 466/512/466
f 459/503/459 470/518/470 468/516/468
s 17
f 471/519/471 472/520/472 473/521/473
f 473/521/473 474/522/474 471/519/471
f 472/520/472 475/523/475 476/524/476
f 476/524/476 473/521/473 472/520/472
f 476/524/476 475/523/475 477/525/477
f 477/525/477 478/526/478 476/524/476
f 478/526/478 477/525/477 479/527/479
f 479/527/479 480/528/480 478/526/478
f 474/522/474 473/521/473 481/529/481
f 481/529/481 482/530/482 474/522/474
f 473/521/473 476/524/476 483/531/483
f 483/531/483 481/529/481 473/521/473
f 476/524/476 478/526/478 484/532/484
f 484/532/484 483/531/483 476/524/476
f 478/526/478 480/528/480 485/533/485
f 485/533/485 484/532/484 478/526/478
f 482/530/482 481/529/481 486/534/486
f 486/534/486 487/535/487 482/530/482
f 481/529/481 483/531/483 488/536/488
f 488/536/488 486/534/486 481/529/481
f 483/531/483 484/532/484 489/537/489
f 489/537/489 488/536/488 483/531/483
f 489/537/489 484/532/484 490/538/490
f 491/539/491 486/534/486 492/540/492
f 486/534/486 488/536/488 493/541/493
f 493/541/493 492/540/492 486/534/486
f 488/536/488 489/537/489 494/542/494
f 494/542/494 493/541/493 488/536/488
f 494/542/494 489/537/489 495/543/495
f 471/519/471 496/544/496 472/520/472
f 472/520/472 497/545/497 475/523/475
f 475/523/475 498/546/498 477/525/477
f 477/525/477 499/547/499 479/527/479
f 489/537/489 490/538/490 495/543/495
f 491/539/491 487/535/487 486/534/486
f 477/525/477 500/548/500 499/547/499
f 477/525/477 498/546/498 500/548/500
f 496/544/496 497/545/497 472/520/472
f 475/523/475 501/549/501 502/550/502
s 18
f 503/551/503 504/552/504 505/553/505
f 505/553/505 506/554/506 503/551/503
f 506/554/506 505/553/505 507/555/507
f 507/555/507 508/556/508 506/554/506
f 507/555/507 509/557/509 510/558/510
f 510/558/510 508/556/508 507/555/507
f 509/557/509 511/559/511 512/560/512
f 512/560/512 510/558/510 509/557/509
f 504/552/504 513/561/513 514/562/514
f 514/562/514 505/553/505 504/552/504
f 505/553/505 514/562/514 515/563/515
f 515/563/515 507/555/507 505/553/505
f 507/555/507 515/563/515 516/564/516
f 516/564/516 509/557/509 507/555/507
f 509/557/509 516/564/516 517/565/517
f 517/565/517 511/559/511 509/557/509
f 513/561/513 518/566/518 519/567/519
f 519/567/519 514/562/514 513/561/513
f 514/562/514 519/567/519 520/568/520
f 520/568/520 515/563/515 514/562/514
f 515/563/515 520/568/520 521/569/521
f 521/569/521 516/564/516 515/563/515
f 521/569/521 522/570/522 516/564/516
f 523/571/523 524/572/524 519/567/519
f 519/567/519 524/572/524 525/573/525
f 525/573/525 520/568/520 519/567/519
f 520/568/520 525/573/525 526/574/526
f 526/574/526 521/569/521 520/568/520
f 526/574/526 527/575/527 521/569/521
f 503/551/503 506/554/506 528/576/528
f 506/554/506 508/556/508 529/577/529
f 508/556/508 530/578/530 531/579/531
f 510/558/510 512/560/512 532/580/532
f 521/569/521 527/575/527 522/570/522
f 523/571/523 519/567/519 518/566/518
f 510/558/510 532/580/532 533/581/533
f 510/558/510 533/581/533 530/578/530
f 528/576/528 506/554/506 529/577/529
f 508/556/508 531/579/531 534/582/534
s 17
f 497/545/497 501/549/501 475/523/475
f 475/523/475 502/550/502 498/546/498
s 18
f 508/556/508 534/582/534 529/577/529
f 508/556/508 510/558/510 530/578/530
s 17
f 484/532/484 485/533/485 490/538/490
s 18
f 522/570/522 517/565/517 516/564/516
s 19
f 535/583/535 536/584/536 537/585/537
f 537/585/537 538/586/538 535/583/535
f 539/587/539 540/588/540 536/584/536
f 536/584/536 535/583/535 539/587/539
f 541/589/541 542/590/542 540/591/540
f 540/591/540 539/592/539 541/589/541
f 543/593/543 544/594/544 542/590/542
f 542/590/542 541/589/541 543/593/543
f 545/595/545 546/596/546 544/594/544
f 544/594/544 543/593/543 545/595/545
f 538/586/538 537/585/537 546/597/546
f 546/597/546 545/598/545 538/586/538
f 547/599/547 548/600/548 549/601/549
f 549/601/549 550/602/550 547/599/547
f 551/603/551 547/599/547 550/602/550
f 550/602/550 552/604/552 551/603/551
f 553/605/553 551/606/551 552/607/552
f 552/607/552 554/608/554 553/605/553
f 555/609/555 553/605/553 554/608/554
f 554/608/554 556/610/556 555/609/555
f 557/611/557 555/609/555 556/610/556
f 556/610/556 558/612/558 557/611/557
f 548/600/548 557/613/557 558/614/558
f 558/614/558 549/601/549 548/600/548
f 550/602/550 549/601/549 537/585/537
f 537/585/537 536/584/536 550/602/550
f 552/604/552 550/602/550 536/584/536
f 536/584/536 540/588/540 552/604/552
f 554/608/554 552/607/552 540/591/540
f 540/591/540 542/590/542 554/608/554
f 544/594/544 556/610/556 554/608/554
f 554/608/554 542/590/542 544/594/544
f 546/596/546 558/612/558 556/610/556
f 556/610/556 544/594/544 546/596/546
f 537/585/537 549/601/549 558/614/558
f 558/614/558 546/597/546 537/585/537
f 547/599/547 559/615/559 548/600/548
f 551/603/551 559/615/559 547/599/547
f 553/605/553 559/615/559 551/606/551
f 555/609/555 559/615/559 553/605/553
f 557/611/557 559/615/559 555/609/555
f 548/600/548 559/615/559 557/613/557
s 20
f 560/616/560 561/617/561 562/618/562
f 562/618/562 563/619/563 560/616/560
f 561/617/561 564/620/564 565/621/565
f 565/621/565 562/618/562 561/617/561
f 565/621/565 564/620/564 566/622/566
f 566/622/566 567/623/567 565/621/565
f 567/623/567 566/622/566 568/624/568
f 568/624/568 569/625/569 567/623/567
f 563/619/563 562/618/562 570/626/570
f 570/626/570 571/627/571 563/619/563
f 562/618/562 565/621/565 572/628/572
f 572/628/572 570/626/570 562/618/562
f 565/621/565 567/623/567 573/629/573
f 573/629/573 572/628/572 565/621/565
f 567/623/567 569/625/569 574/630/574
f 574/630/574 573/629/573 567/623/567
f 571/627/571 570/626/570 575/631/575
f 575/631/575 576/632/576 571/627/571
f 570/626/570 572/628/572 577/633/577
f 577/633/577 575/631/575 570/626/570
f 572/628/572 573/629/573 578/634/578
f 578/634/578 577/633/577 572/628/572
f 578/634/578 573/629/573 579/635/579
f 580/636/580 575/631/575 581/637/581
f 575/631/575 577/633/577 582/638/582
f 582/638/582 581/637/581 575/631/575
f 577/633/577 578/634/578 583/639/583
f 583/639/583 582/638/582 577/633/577
f 583/639/583 578/634/578 584/640/584
f 560/616/560 585/641/585 561/617/561
f 561/617/561 586/642/586 564/620/564
f 564/620/564 587/643/587 566/622/566
f 566/622/566 588/644/588 568/624/568
f 578/634/578 579/635/579 584/640/584
f 580/636/580 576/632/576 575/631/575
f 566/622/566 589/645/589 588/644/588
f 566/622/566 587/643/587 589/645/589
f 585/641/585 586/642/586 561/617/561
f 564/620/564 590/646/590 591/647/591
s 21
f 592/648/592 593/649/593 594/650/594
f 594/650/594 595/651/595 592/648/592
f 595/651/595 594/650/594 596/652/596
f 596/652/596 597/653/597 595/651/595
f 596/652/596 598/654/598 599/655/599
f 599/655/599 597/653/597 596/652/596
f 598/654/598 600/656/600 601/657/601
f 601/657/601 599/655/599 598/654/598
f 593/649/593 602/658/602 603/659/603
f 603/659/603 594/650/594 593/649/593
f 594/650/594 603/659/603 604/660/604
f 604/660/604 596/652/596 594/650/594
f 596/652/596 604/660/604 605/661/605
f 605/661/605 598/654/598 596/652/596
f 598/654/598 605/661/605 606/662/606
f 606/662/606 600/656/600 598/654/598
f 602/658/602 607/663/607 608/664/608
f 608/664/608 603/659/603 602/658/602
f 603/659/603 608/664/608 609/665/609
f 609/665/609 604/660/604 603/659/603
f 604/660/604 609/665/609 610/666/610
f 610/666/610 605/661/605 604/660/604
f 610/666/610 611/667/611 605/661/605
f 612/668/612 613/669/613 608/664/608
f 608/664/608 613/669/613 614/670/614
f 614/670/614 609/665/609 608/664/608
f 609/665/609 614/670/614 615/671/615
f 615/671/615 610/666/610 609/665/609
f 615/671/615 616/672/616 610/666/610
f 592/648/592 595/651/595 617/673/617
f 595/651/595 597/653/597 618/674/618
f 597/653/597 619/675/619 620/676/620
f 599/655/599 601/657/601 621/677/621
f 610/666/610 616/672/616 611/667/611
f 612/668/612 608/664/608 607/663/607
f 599/655/599 621/677/621 622/678/622
f 599/655/599 622/678/622 619/675/619
f 617/673/617 595/651/595 618/674/618
f 597/653/597 620/676/620 623/679/623
s 20
f 586/642/586 590/646/590 564/620/564
f 564/620/564 591/647/591 587/643/587
s 21
f 597/653/597 623/679/623 618/674/618
f 597/653/597 599/655/599 619/675/619
s 20
f 573/629/573 574/630/574 579/635/579
s 21
f 611/667/611 606/662/606 605/661/605
