# Blender v3.3.0 OBJ File: ''
# www.blender.org
o DargaFernStage02.005
v -0.008114 -0.023034 -0.004845
v -0.008348 0.203606 -0.003971
v 0.000657 0.203606 -0.000693
v -0.000143 -0.023034 -0.001944
v -0.011811 -0.023034 -0.002351
v -0.012526 0.203606 -0.001153
v -0.013336 -0.023034 0.001839
v -0.014249 0.203606 0.003581
v -0.008593 -0.023034 0.008871
v -0.008890 0.203606 0.011527
v -0.000439 -0.023034 0.006533
v 0.000323 0.203606 0.008885
v -0.038479 0.528543 0.024246
v -0.029964 0.530916 0.027873
v -0.009154 0.377970 0.005038
v -0.017969 0.376664 0.001569
v -0.042116 0.526013 0.026643
v -0.021912 0.375068 0.004152
v -0.043361 0.523795 0.030990
v -0.023419 0.373595 0.008671
v -0.037863 0.523237 0.038785
v -0.017973 0.373005 0.016530
v -0.029583 0.527637 0.036859
v -0.009157 0.375709 0.014285
v -0.039239 0.533121 0.035156
v 0.002007 0.555063 0.102385
v -0.018035 0.569551 0.061444
v -0.058186 0.638872 0.109025
v -0.039978 0.627540 0.154164
v -0.050905 0.566392 0.048160
v -0.091728 0.631786 0.092216
v -0.069465 0.569194 0.010970
v -0.115378 0.638333 0.053094
v -0.104527 0.562372 -0.004461
v -0.150414 0.629965 0.037883
v -0.136173 0.716336 0.180472
v -0.116013 0.700057 0.215074
v -0.162921 0.705072 0.163584
v -0.183414 0.715817 0.132066
v -0.211465 0.705332 0.112641
v -0.197687 0.749874 0.230060
v -0.182521 0.736298 0.247978
v -0.213946 0.737731 0.215464
v -0.227332 0.751261 0.198279
v -0.241680 0.752075 0.182982
v -0.245095 0.770389 0.282152
v -0.277420 0.766981 0.284002
v -0.287060 0.766357 0.281180
v -0.285328 0.767330 0.273305
v -0.277958 0.772918 0.246805
v 0.011951 0.506670 0.067725
v 0.001144 0.510056 0.038667
v -0.035789 0.513250 0.012704
v -0.070558 0.517507 -0.014625
v -0.046310 0.512138 -0.004169
v -0.028426 0.512285 0.031567
v -0.034744 0.512376 0.026296
v 0.001183 0.554544 0.102828
v -0.040796 0.627018 0.154601
v -0.058861 0.638331 0.109658
v -0.018730 0.569018 0.062055
v -0.092375 0.631247 0.092863
v -0.051560 0.565857 0.048814
v -0.115929 0.637795 0.053846
v -0.070022 0.568658 0.011726
v -0.150727 0.629468 0.038766
v -0.104848 0.561877 -0.003570
v -0.116621 0.699187 0.215275
v -0.136627 0.715427 0.180826
v -0.163330 0.704171 0.163980
v -0.183723 0.714948 0.132591
v -0.211581 0.704515 0.113320
v -0.182656 0.735264 0.247732
v -0.197734 0.748834 0.229873
v -0.213935 0.736677 0.215410
v -0.227353 0.750174 0.198289
v -0.241730 0.750980 0.183027
v -0.245087 0.769345 0.281947
v -0.277320 0.765922 0.283893
v -0.286960 0.765299 0.281071
v -0.285228 0.766271 0.273196
v -0.277904 0.771861 0.246741
v 0.011105 0.506288 0.068255
v 0.000398 0.509669 0.039309
v -0.036459 0.512857 0.013439
v -0.035413 0.511985 0.027031
v -0.071040 0.517127 -0.013749
v -0.046963 0.511743 -0.003403
v -0.029109 0.511891 0.032299
v -0.013133 -0.023034 0.011927
v -0.013054 0.071883 0.012829
v -0.003471 0.071883 0.012829
v -0.004651 -0.023034 0.011927
v -0.015754 -0.023034 0.015535
v -0.016016 0.071883 0.016905
v -0.015754 -0.023034 0.019994
v -0.016016 0.071883 0.021944
v -0.008892 -0.023034 0.024980
v -0.008263 0.071883 0.027577
v -0.002029 -0.023034 0.019994
v -0.000509 0.071883 0.021944
v -0.041405 0.266078 0.066653
v -0.032032 0.267932 0.066541
v -0.015540 0.154365 0.030090
v -0.024889 0.152422 0.029586
v -0.044115 0.264762 0.070690
v -0.027565 0.150050 0.033048
v -0.043884 0.263843 0.075637
v -0.027300 0.147859 0.037519
v -0.036044 0.264316 0.081077
v -0.019441 0.146982 0.042926
v -0.028719 0.266843 0.075456
v -0.012173 0.151003 0.038334
v -0.038009 0.273159 0.075535
v 0.024632 0.280476 0.114689
v -0.007497 0.288247 0.080118
v -0.031902 0.382682 0.129388
v 0.000705 0.380401 0.167190
v -0.042931 0.285116 0.078881
v -0.069865 0.378923 0.127805
v -0.072555 0.282070 0.049751
v -0.105713 0.379594 0.098698
v -0.110797 0.275111 0.047986
v -0.144582 0.375407 0.099444
v -0.071754 0.474112 0.199120
v -0.040661 0.459224 0.225203
v -0.103840 0.464727 0.195965
v -0.134423 0.474551 0.173672
v -0.168662 0.465826 0.168601
v -0.109235 0.539962 0.272964
v -0.089230 0.526553 0.285428
v -0.130905 0.528561 0.267939
v -0.148996 0.541768 0.255454
v -0.168194 0.542792 0.247033
v -0.129747 0.572303 0.335536
v -0.158719 0.573483 0.350343
v -0.168692 0.573847 0.351635
v -0.170225 0.573697 0.343660
v -0.173793 0.575269 0.315865
v 0.019395 0.230854 0.090666
v 0.000835 0.232255 0.065643
v -0.041884 0.231151 0.050737
v -0.083006 0.231260 0.033917
v -0.056425 0.228509 0.037387
v -0.029623 0.231502 0.066877
v -0.037111 0.230832 0.063531
v 0.023992 0.280120 0.115467
v 0.000062 0.380214 0.168018
v -0.032341 0.382501 0.130349
v -0.007960 0.287898 0.081015
v -0.070273 0.378741 0.128768
v -0.043342 0.284771 0.079805
v -0.105993 0.379419 0.099722
v -0.072840 0.281736 0.050739
v -0.144590 0.375253 0.100493
v -0.110816 0.274825 0.049015
v -0.041201 0.458471 0.225758
v -0.072096 0.473316 0.199760
v -0.104124 0.463938 0.196625
v -0.134560 0.473795 0.174405
v -0.168556 0.465113 0.169390
v -0.089534 0.525525 0.285418
v -0.109435 0.538923 0.272974
v -0.130999 0.527516 0.268049
v -0.149095 0.540702 0.255639
v -0.168306 0.541726 0.247264
v -0.129904 0.571251 0.335509
v -0.158754 0.572415 0.350370
v -0.168728 0.572779 0.351662
v -0.170260 0.572630 0.343687
v -0.173852 0.574213 0.315951
v 0.018766 0.230413 0.091409
v 0.000332 0.231823 0.066467
v -0.042288 0.230724 0.051629
v -0.037514 0.230405 0.064424
v -0.083192 0.230867 0.034894
v -0.056804 0.228080 0.038305
v -0.030040 0.231071 0.067770
v -0.020628 -0.022350 -0.011869
v -0.027185 0.035190 -0.011417
v -0.023196 0.035893 -0.002731
v -0.017098 -0.021728 -0.004182
v -0.024939 -0.023110 -0.012720
v -0.032056 0.034331 -0.012378
v -0.028919 -0.023812 -0.010835
v -0.036553 0.033538 -0.010249
v -0.030513 -0.024093 -0.002509
v -0.038354 0.033220 -0.000841
v -0.023207 -0.022805 0.001603
v -0.030099 0.034676 0.003805
v -0.064746 0.167817 -0.014364
v -0.061068 0.170349 -0.005917
v -0.037067 0.103623 -0.006375
v -0.040846 0.102316 -0.015061
v -0.069248 0.165687 -0.015114
v -0.045462 0.100721 -0.016023
v -0.073408 0.164021 -0.012815
v -0.049722 0.099248 -0.013893
v -0.075083 0.164206 -0.003409
v -0.051429 0.098658 -0.004486
v -0.067456 0.168117 0.000853
v -0.043607 0.101362 0.000161
v -0.072490 0.173643 -0.007533
v -0.082636 0.179283 0.065786
v -0.066502 0.190019 0.022057
v -0.137033 0.273475 0.020761
v -0.156806 0.267673 0.066289
v -0.079601 0.184530 -0.010580
v -0.150767 0.267237 -0.014315
v -0.065403 0.183941 -0.049739
v -0.139824 0.269846 -0.059104
v -0.078534 0.174559 -0.085144
v -0.155940 0.262753 -0.094017
v -0.231734 0.349617 0.014113
v -0.239488 0.333133 0.053316
v -0.240643 0.338516 -0.016301
v -0.235180 0.349455 -0.053439
v -0.243389 0.339149 -0.086613
v -0.324677 0.400095 0.011351
v -0.325147 0.386396 0.034750
v -0.327231 0.388067 -0.010413
v -0.325910 0.401712 -0.032085
v -0.326563 0.402636 -0.053043
v -0.394678 0.420591 0.019205
v -0.420156 0.417297 -0.000795
v -0.425524 0.416720 -0.009288
v -0.419018 0.417716 -0.014047
v -0.395968 0.423376 -0.029028
v -0.054758 0.133812 0.050888
v -0.040392 0.137767 0.023491
v -0.044674 0.135891 -0.021525
v -0.046796 0.135627 -0.065902
v -0.038353 0.134323 -0.040346
v -0.054038 0.134597 -0.003592
v -0.054052 0.133913 -0.011792
v -0.083535 0.178763 0.065535
v -0.157780 0.267311 0.066056
v -0.138042 0.273113 0.020769
v -0.067434 0.189500 0.022016
v -0.151765 0.266876 -0.014277
v -0.080537 0.184014 -0.010562
v -0.140824 0.269493 -0.058925
v -0.066345 0.183435 -0.049580
v -0.156853 0.262436 -0.093580
v -0.079411 0.174113 -0.084726
v -0.240077 0.332264 0.053060
v -0.232310 0.348708 0.014073
v -0.241212 0.337616 -0.016279
v -0.235759 0.348586 -0.053254
v -0.243925 0.338330 -0.086184
v -0.325086 0.385363 0.034470
v -0.324589 0.399056 0.011175
v -0.327188 0.387014 -0.010451
v -0.325933 0.400625 -0.032097
v -0.326630 0.401542 -0.053047
v -0.394537 0.419549 0.019051
v -0.420010 0.416239 -0.000816
v -0.425377 0.415662 -0.009309
v -0.418871 0.416658 -0.014068
v -0.395886 0.422319 -0.029045
v -0.055606 0.133214 0.050632
v -0.041261 0.137175 0.023384
v -0.045565 0.135300 -0.021514
v -0.054943 0.133322 -0.011781
v -0.047677 0.135073 -0.065659
v -0.039256 0.133728 -0.040301
v -0.054934 0.134000 -0.003592
v 0.009577 -0.022350 -0.018174
v 0.013893 0.035190 -0.023129
v 0.004931 0.035893 -0.026451
v 0.001644 -0.021728 -0.021113
v 0.013226 -0.023110 -0.020620
v 0.018017 0.034331 -0.025894
v 0.014708 -0.023812 -0.024767
v 0.019691 0.033538 -0.030579
v 0.009948 -0.024093 -0.031782
v 0.014313 0.033220 -0.038505
v 0.001874 -0.022805 -0.029524
v 0.005190 0.034676 -0.035954
v 0.042537 0.167817 -0.047605
v 0.033963 0.170349 -0.050977
v 0.017316 0.103623 -0.033682
v 0.026130 0.102316 -0.030213
v 0.046251 0.165687 -0.050258
v 0.030073 0.100721 -0.032796
v 0.047566 0.164021 -0.054826
v 0.031581 0.099248 -0.037315
v 0.042100 0.164206 -0.062661
v 0.026135 0.098658 -0.045174
v 0.033693 0.168117 -0.060282
v 0.017319 0.101362 -0.042929
v 0.043182 0.173643 -0.057911
v -0.001488 0.179283 -0.116930
v 0.018025 0.190019 -0.074600
v 0.068814 0.273475 -0.123557
v 0.050603 0.267673 -0.169731
v 0.050365 0.184530 -0.060786
v 0.103328 0.267237 -0.108466
v 0.068015 0.183941 -0.023055
v 0.127261 0.269846 -0.069057
v 0.102335 0.174559 -0.007306
v 0.163344 0.262753 -0.055766
v 0.140479 0.349617 -0.185820
v 0.118241 0.333133 -0.219022
v 0.168284 0.338516 -0.170614
v 0.190682 0.349455 -0.140489
v 0.219944 0.339149 -0.122837
v 0.208153 0.400095 -0.249587
v 0.191940 0.386396 -0.266464
v 0.225348 0.388067 -0.236004
v 0.239738 0.401712 -0.219746
v 0.255019 0.402636 -0.205388
v 0.252097 0.420591 -0.304638
v 0.284255 0.417297 -0.308512
v 0.294056 0.416720 -0.306302
v 0.292821 0.417716 -0.298337
v 0.287115 0.423376 -0.271445
v -0.010666 0.133812 -0.086683
v -0.001452 0.137767 -0.057152
v 0.033408 0.135891 -0.028349
v 0.066287 0.135627 0.001531
v 0.042246 0.134323 -0.010571
v 0.027348 0.134597 -0.047651
v 0.033156 0.133913 -0.041862
v -0.000674 0.178763 -0.117388
v 0.051456 0.267311 -0.170256
v 0.069522 0.273113 -0.124276
v 0.018713 0.189500 -0.075231
v 0.104007 0.266876 -0.109198
v 0.051014 0.184014 -0.061460
v 0.127842 0.269493 -0.069891
v 0.068569 0.183435 -0.023834
v 0.163681 0.262436 -0.056720
v 0.102660 0.174113 -0.008222
v 0.118838 0.332264 -0.219258
v 0.140914 0.348708 -0.186199
v 0.168671 0.337616 -0.171032
v 0.190961 0.348586 -0.141031
v 0.220020 0.338330 -0.123519
v 0.192094 0.385363 -0.266223
v 0.208215 0.399056 -0.249400
v 0.225344 0.387014 -0.235945
v 0.239762 0.400625 -0.219752
v 0.255070 0.401542 -0.205431
v 0.252106 0.419549 -0.304430
v 0.284166 0.416239 -0.308394
v 0.293967 0.415662 -0.306184
v 0.292731 0.416658 -0.298218
v 0.287069 0.422319 -0.271374
v -0.009885 0.133214 -0.087101
v -0.000761 0.137175 -0.057691
v 0.034029 0.135300 -0.028986
v 0.033778 0.133322 -0.042500
v 0.066738 0.135073 0.000735
v 0.042853 0.133728 -0.011240
v 0.027982 0.134000 -0.048284
v 0.014268 -0.022350 0.015559
v 0.018399 0.035190 0.020671
v 0.023226 0.035893 0.012422
v 0.018541 -0.021728 0.008258
v 0.016044 -0.023110 0.019579
v 0.020405 0.034331 0.025212
v 0.019870 -0.023812 0.021758
v 0.024729 0.033538 0.027675
v 0.027605 -0.024093 0.018288
v 0.033469 0.033220 0.023754
v 0.026783 -0.022805 0.009945
v 0.032540 0.034676 0.014327
v 0.037529 0.167817 0.053130
v 0.042339 0.170349 0.045272
v 0.028197 0.103623 0.025874
v 0.023250 0.102316 0.033952
v 0.039497 0.165687 0.057248
v 0.025110 0.100721 0.038284
v 0.043767 0.164021 0.059337
v 0.029298 0.099248 0.040553
v 0.052432 0.164206 0.055314
v 0.037983 0.098658 0.036555
v 0.051549 0.168117 0.046622
v 0.037303 0.101362 0.027483
v 0.047566 0.173643 0.055555
v 0.113445 0.179283 0.021812
v 0.068370 0.190019 0.033678
v 0.107764 0.273475 0.092197
v 0.156399 0.267673 0.082280
v 0.049150 0.184530 0.063128
v 0.086909 0.267237 0.123565
v 0.008928 0.183941 0.073958
v 0.043943 0.269846 0.140292
v -0.012542 0.174559 0.105022
v 0.024588 0.262753 0.173518
v 0.156637 0.349616 0.173585
v 0.193197 0.333133 0.157450
v 0.136833 0.338515 0.198327
v 0.103277 0.349454 0.215153
v 0.080812 0.339148 0.240906
v 0.207684 0.400094 0.251303
v 0.227121 0.386395 0.238268
v 0.191322 0.388066 0.265879
v 0.172811 0.401711 0.277227
v 0.156018 0.402635 0.289783
v 0.254269 0.420590 0.304140
v 0.252500 0.417296 0.336482
v 0.248622 0.416719 0.345750
v 0.240991 0.417715 0.343150
v 0.215499 0.423375 0.332862
v 0.085252 0.133812 0.007521
v 0.054569 0.137767 0.011467
v 0.020150 0.135891 0.040796
v -0.014984 0.135627 0.067987
v 0.001108 0.134323 0.046412
v 0.040212 0.134597 0.038180
v 0.033502 0.133913 0.042895
v 0.113756 0.178763 0.022693
v 0.156768 0.267311 0.083211
v 0.108349 0.273113 0.093018
v 0.068872 0.189500 0.034465
v 0.087513 0.266876 0.124362
v 0.049702 0.184014 0.063884
v 0.044664 0.269493 0.141008
v 0.009599 0.183435 0.074638
v 0.025469 0.262436 0.174016
v -0.011696 0.174113 0.105501
v 0.193326 0.332263 0.158079
v 0.156934 0.348707 0.174079
v 0.137178 0.337616 0.198781
v 0.103762 0.348585 0.215522
v 0.081470 0.338329 0.241099
v 0.226857 0.385362 0.238378
v 0.207489 0.399055 0.251332
v 0.191265 0.387013 0.265865
v 0.172814 0.400624 0.277252
v 0.156053 0.401541 0.289840
v 0.254062 0.419548 0.304112
v 0.252399 0.416238 0.336374
v 0.248520 0.415661 0.345642
v 0.240890 0.416657 0.343042
v 0.215437 0.422318 0.332804
v 0.085528 0.133214 0.008362
v 0.054980 0.137175 0.012241
v 0.020671 0.135300 0.041518
v 0.034023 0.133322 0.043617
v -0.014279 0.135073 0.068569
v 0.001662 0.133728 0.047126
v 0.040725 0.134000 0.038914
v 0.026679 -0.023034 0.005993
v 0.027421 0.203606 0.005475
v 0.022629 0.203606 -0.002825
v 0.022438 -0.023034 -0.001352
v 0.031114 -0.023034 0.006460
v 0.032432 0.203606 0.006002
v 0.034976 -0.023034 0.004230
v 0.036795 0.203606 0.003482
v 0.035862 -0.023034 -0.004206
v 0.037797 0.203606 -0.006049
v 0.028114 -0.023034 -0.007656
v 0.029042 0.203606 -0.009947
v 0.089920 0.439078 0.016967
v 0.083844 0.442221 0.010297
v 0.043612 0.329070 -0.001003
v 0.047851 0.327127 0.007346
v 0.094734 0.437798 0.016219
v 0.052186 0.324755 0.007931
v 0.098364 0.437417 0.012747
v 0.055926 0.322564 0.005467
v 0.097505 0.439534 0.003469
v 0.056678 0.321687 -0.004043
v 0.088531 0.442503 0.001955
v 0.049068 0.325708 -0.008041
v 0.094653 0.447415 0.009992
v 0.084542 0.467383 -0.060785
v 0.078799 0.467053 -0.013302
v 0.133661 0.561498 -0.009914
v 0.141656 0.567624 -0.058862
v 0.100560 0.458827 0.013636
v 0.156771 0.552260 0.019042
v 0.097215 0.448738 0.053916
v 0.157496 0.544953 0.064635
v 0.120316 0.436291 0.082645
v 0.182967 0.535395 0.092721
v 0.214079 0.652826 -0.008393
v 0.213874 0.645157 -0.050936
v 0.232126 0.638723 0.016162
v 0.234830 0.641853 0.055043
v 0.252800 0.627906 0.082550
v 0.295739 0.719704 -0.015677
v 0.292240 0.710568 -0.040969
v 0.305632 0.704905 0.001872
v 0.307881 0.714112 0.025700
v 0.313773 0.711564 0.045683
v 0.357355 0.754862 -0.034365
v 0.387326 0.753390 -0.021734
v 0.394727 0.752464 -0.014978
v 0.389597 0.751308 -0.008788
v 0.370612 0.749591 0.011812
v 0.068744 0.415383 -0.050146
v 0.061508 0.411649 -0.020041
v 0.077502 0.403030 0.021411
v 0.091022 0.395641 0.063082
v 0.076569 0.397043 0.040382
v 0.082002 0.406715 0.001991
v 0.084237 0.404662 0.009639
v 0.085544 0.467019 -0.060859
v 0.142701 0.567431 -0.058935
v 0.134677 0.561353 -0.010224
v 0.079779 0.466733 -0.013582
v 0.157769 0.552119 0.018706
v 0.101527 0.458520 0.013300
v 0.158458 0.544842 0.064166
v 0.098150 0.448467 0.053446
v 0.183774 0.535347 0.092034
v 0.121112 0.436108 0.081957
v 0.214635 0.644394 -0.051011
v 0.214777 0.652057 -0.008679
v 0.232801 0.637972 0.015821
v 0.235468 0.641163 0.054550
v 0.253326 0.627297 0.081847
v 0.292412 0.709511 -0.040911
v 0.295859 0.718653 -0.015712
v 0.305761 0.703873 0.001693
v 0.308072 0.713066 0.025474
v 0.314006 0.710521 0.045438
v 0.357419 0.753802 -0.034410
v 0.387354 0.752336 -0.021909
v 0.394754 0.751410 -0.015153
v 0.389624 0.750254 -0.008962
v 0.370699 0.748551 0.011620
v 0.069710 0.414933 -0.050220
v 0.062455 0.411234 -0.020260
v 0.078438 0.402640 0.021074
v 0.085173 0.404272 0.009303
v 0.091885 0.395325 0.062535
v 0.077510 0.396657 0.040011
v 0.082948 0.406320 0.001663
v 0.024664 -0.022138 -0.006029
v 0.025456 0.122833 -0.018560
v 0.016750 0.122833 -0.017798
v 0.016960 -0.022138 -0.005355
v 0.026758 -0.022138 -0.009514
v 0.027822 0.122833 -0.022498
v 0.026404 -0.022138 -0.013565
v 0.027421 0.122833 -0.027074
v 0.019775 -0.022138 -0.017548
v 0.019931 0.122833 -0.031575
v 0.013938 -0.022138 -0.012474
v 0.013336 0.122833 -0.025842
v 0.041989 0.325609 -0.068783
v 0.034175 0.328825 -0.066664
v 0.022780 0.201888 -0.035364
v 0.031361 0.200400 -0.035784
v 0.043379 0.324457 -0.073006
v 0.033575 0.198585 -0.039304
v 0.042112 0.324262 -0.077416
v 0.033034 0.196908 -0.043495
v 0.034374 0.326645 -0.080632
v 0.025487 0.196236 -0.047841
v 0.029468 0.329465 -0.073987
v 0.019150 0.199314 -0.042816
v 0.038767 0.333517 -0.075413
v -0.031616 0.351531 -0.087728
v 0.006766 0.361165 -0.069399
v 0.015973 0.432345 -0.106240
v -0.023325 0.426848 -0.128638
v 0.037443 0.358020 -0.079512
v 0.048603 0.422403 -0.113201
v 0.072147 0.357401 -0.064085
v 0.087959 0.423688 -0.098287
v 0.105463 0.350793 -0.074333
v 0.120638 0.412615 -0.107263
v 0.040997 0.530719 -0.149670
v 0.006825 0.529463 -0.169272
v 0.068255 0.518582 -0.156534
v 0.100516 0.516798 -0.141469
v 0.130097 0.504398 -0.146991
v 0.070025 0.598780 -0.196399
v 0.048374 0.593996 -0.207342
v 0.088299 0.585908 -0.200851
v 0.108226 0.590654 -0.189577
v 0.126689 0.586869 -0.186256
v 0.083400 0.648106 -0.239555
v 0.106971 0.652728 -0.256998
v 0.115664 0.652813 -0.259931
v 0.118228 0.649499 -0.253825
v 0.125905 0.639792 -0.231424
v -0.014414 0.289797 -0.080946
v 0.007222 0.286687 -0.062758
v 0.047694 0.292070 -0.056760
v 0.087017 0.297249 -0.048520
v 0.063867 0.289035 -0.049082
v 0.033251 0.294981 -0.067922
v 0.040610 0.295277 -0.066489
v -0.031314 0.351133 -0.088565
v -0.023037 0.426356 -0.129424
v 0.016049 0.431862 -0.107086
v 0.006879 0.360767 -0.070280
v 0.048651 0.421925 -0.114041
v 0.037502 0.357623 -0.080400
v 0.087880 0.423225 -0.099148
v 0.072078 0.357010 -0.064987
v 0.120320 0.412214 -0.108084
v 0.105153 0.350445 -0.075189
v 0.007085 0.528948 -0.170069
v 0.041062 0.530214 -0.150509
v 0.068265 0.518094 -0.157375
v 0.100391 0.516377 -0.142331
v 0.129756 0.504054 -0.147836
v 0.048492 0.593125 -0.207769
v 0.070045 0.597915 -0.196826
v 0.088210 0.585084 -0.201339
v 0.108126 0.589842 -0.190135
v 0.126593 0.586073 -0.186853
v 0.083386 0.647219 -0.239947
v 0.106838 0.651857 -0.257415
v 0.115532 0.651943 -0.260348
v 0.118096 0.648628 -0.254241
v 0.125786 0.638953 -0.231889
v -0.013966 0.289902 -0.081805
v 0.007540 0.286795 -0.063662
v 0.047910 0.292180 -0.057704
v 0.040826 0.295386 -0.067433
v 0.087019 0.297357 -0.049489
v 0.064056 0.289146 -0.050044
v 0.033479 0.295091 -0.068870
v -0.010752 -0.023034 -0.016740
v -0.011445 0.071883 -0.017322
v -0.018222 0.071883 -0.010545
v -0.016750 -0.023034 -0.010742
v -0.011450 -0.023034 -0.021144
v -0.012233 0.071883 -0.022298
v -0.014603 -0.023034 -0.024297
v -0.015796 0.071883 -0.025861
v -0.022981 -0.023034 -0.022970
v -0.025262 0.071883 -0.024362
v -0.024308 -0.023034 -0.014593
v -0.026761 0.071883 -0.014896
v -0.029458 0.266078 -0.075428
v -0.036006 0.267932 -0.068722
v -0.021893 0.154365 -0.031285
v -0.014926 0.152422 -0.037540
v -0.030396 0.264762 -0.080198
v -0.015482 0.150050 -0.041879
v -0.034057 0.263843 -0.083533
v -0.018831 0.147859 -0.044854
v -0.043448 0.264316 -0.081837
v -0.028211 0.146982 -0.043119
v -0.044653 0.266844 -0.072682
v -0.030103 0.151003 -0.034733
v -0.038139 0.273159 -0.079307
v -0.110119 0.280476 -0.062699
v -0.062955 0.288247 -0.060973
v -0.080537 0.382683 -0.113068
v -0.130324 0.380402 -0.116742
v -0.037025 0.285116 -0.085153
v -0.052574 0.378924 -0.138793
v 0.004520 0.282071 -0.085503
v -0.006644 0.379594 -0.143560
v 0.032810 0.275111 -0.111295
v 0.020313 0.375407 -0.171572
v -0.101666 0.474113 -0.190555
v -0.142095 0.459225 -0.187012
v -0.076747 0.464728 -0.211013
v -0.039358 0.474552 -0.216874
v -0.011562 0.465827 -0.237499
v -0.127378 0.539963 -0.269274
v -0.150338 0.526554 -0.263942
v -0.108502 0.528562 -0.281044
v -0.086882 0.541770 -0.285007
v -0.067352 0.542793 -0.292628
v -0.157119 0.572304 -0.328023
v -0.147103 0.573484 -0.358979
v -0.140965 0.573848 -0.366945
v -0.134242 0.573698 -0.362390
v -0.112064 0.575270 -0.345259
v -0.089430 0.230854 -0.049416
v -0.058612 0.232255 -0.044846
v -0.017864 0.231151 -0.064512
v 0.023106 0.231260 -0.081696
v 0.001857 0.228509 -0.065355
v -0.037947 0.231502 -0.067255
v -0.030286 0.230832 -0.070184
v -0.110217 0.280120 -0.063702
v -0.130456 0.380215 -0.117782
v -0.080906 0.382502 -0.114059
v -0.063262 0.287898 -0.061934
v -0.052967 0.378742 -0.139763
v -0.037388 0.284771 -0.086098
v -0.007171 0.379419 -0.144482
v 0.004023 0.281736 -0.086403
v 0.019577 0.375253 -0.172319
v 0.032095 0.274825 -0.112037
v -0.142106 0.458472 -0.187787
v -0.101877 0.473317 -0.191250
v -0.077013 0.463939 -0.211679
v -0.039779 0.473796 -0.217489
v -0.012194 0.465114 -0.237982
v -0.150116 0.525526 -0.264149
v -0.127245 0.538924 -0.269422
v -0.108513 0.527517 -0.281188
v -0.086942 0.540704 -0.285209
v -0.067436 0.541727 -0.292871
v -0.156989 0.571252 -0.328115
v -0.147097 0.572416 -0.359023
v -0.140959 0.572780 -0.366989
v -0.134236 0.572631 -0.362434
v -0.112083 0.574214 -0.345361
v -0.089511 0.230413 -0.050386
v -0.058839 0.231823 -0.045784
v -0.018210 0.230724 -0.065429
v -0.030632 0.230405 -0.071100
v 0.022548 0.230867 -0.082519
v 0.001476 0.228080 -0.066272
v -0.038284 0.231071 -0.068181
vt 0.017200 0.990700
vt 0.017200 0.915100
vt 0.035800 0.915100
vt 0.035800 0.990700
vt 0.007900 0.990700
vt 0.007900 0.915100
vt 0.045100 0.990700
vt 0.045100 0.915100
vt 0.053700 0.915100
vt 0.053700 0.990700
vt 0.026500 0.990700
vt 0.026500 0.915100
vt 0.007900 0.990700
vt 0.007900 0.915100
vt 0.053700 0.915100
vt 0.053700 0.990700
vt 0.017200 0.764000
vt 0.035800 0.764000
vt 0.035800 0.839600
vt 0.017200 0.839600
vt 0.007900 0.764000
vt 0.007900 0.839600
vt 0.045100 0.764000
vt 0.053700 0.764000
vt 0.053700 0.839600
vt 0.045100 0.839600
vt 0.026500 0.764000
vt 0.026500 0.839600
vt 0.007900 0.764000
vt 0.007900 0.839600
vt 0.053700 0.764000
vt 0.053700 0.839600
vt 0.031000 0.688400
vt 0.032800 0.134500
vt 0.109300 0.144600
vt 0.099500 0.350900
vt 0.020500 0.352000
vt 0.176900 0.149000
vt 0.174000 0.347400
vt 0.258800 0.141400
vt 0.266600 0.347100
vt 0.341000 0.140200
vt 0.349100 0.344100
vt 0.114000 0.600700
vt 0.043900 0.624000
vt 0.174700 0.592000
vt 0.254400 0.597000
vt 0.331500 0.612500
vt 0.140600 0.777400
vt 0.083200 0.777700
vt 0.177200 0.775000
vt 0.229600 0.774100
vt 0.271500 0.772300
vt 0.126300 0.933600
vt 0.169900 0.973500
vt 0.186400 0.982800
vt 0.202700 0.957900
vt 0.232100 0.919400
vt 0.077300 0.030700
vt 0.128600 0.025400
vt 0.222300 0.035400
vt 0.306700 0.043800
vt 0.258600 0.030200
vt 0.180400 0.039900
vt 0.197000 0.042200
vt 0.032800 0.134500
vt 0.020500 0.352000
vt 0.099500 0.350900
vt 0.109300 0.144600
vt 0.174000 0.347400
vt 0.176900 0.149000
vt 0.266600 0.347100
vt 0.258800 0.141400
vt 0.349100 0.344100
vt 0.341000 0.140200
vt 0.043900 0.624000
vt 0.114000 0.600700
vt 0.174700 0.592000
vt 0.254400 0.597000
vt 0.331500 0.612500
vt 0.083200 0.777700
vt 0.140600 0.777400
vt 0.177200 0.775000
vt 0.229600 0.774100
vt 0.271500 0.772300
vt 0.126300 0.933600
vt 0.169900 0.973500
vt 0.186400 0.982800
vt 0.202700 0.957900
vt 0.232100 0.919400
vt 0.077300 0.030700
vt 0.128600 0.025400
vt 0.222300 0.035400
vt 0.197000 0.042200
vt 0.306700 0.043800
vt 0.258600 0.030200
vt 0.180400 0.039900
vt 0.017200 0.990700
vt 0.017200 0.915100
vt 0.035800 0.915100
vt 0.035800 0.990700
vt 0.007900 0.990700
vt 0.007900 0.915100
vt 0.045100 0.990700
vt 0.045100 0.915100
vt 0.053700 0.915100
vt 0.053700 0.990700
vt 0.026500 0.990700
vt 0.026500 0.915100
vt 0.007900 0.990700
vt 0.007900 0.915100
vt 0.053700 0.915100
vt 0.053700 0.990700
vt 0.017200 0.764000
vt 0.035800 0.764000
vt 0.035800 0.839600
vt 0.017200 0.839600
vt 0.007900 0.764000
vt 0.007900 0.839600
vt 0.045100 0.764000
vt 0.053700 0.764000
vt 0.053700 0.839600
vt 0.045100 0.839600
vt 0.026500 0.764000
vt 0.026500 0.839600
vt 0.007900 0.764000
vt 0.007900 0.839600
vt 0.053700 0.764000
vt 0.053700 0.839600
vt 0.031000 0.688400
vt 0.032800 0.134500
vt 0.109300 0.144600
vt 0.099500 0.350900
vt 0.020500 0.352000
vt 0.176900 0.149000
vt 0.174000 0.347400
vt 0.258800 0.141400
vt 0.266600 0.347100
vt 0.341000 0.140200
vt 0.349100 0.344100
vt 0.114000 0.600700
vt 0.043900 0.624000
vt 0.174700 0.592000
vt 0.254400 0.597000
vt 0.331500 0.612500
vt 0.140600 0.777400
vt 0.083200 0.777700
vt 0.177200 0.775000
vt 0.229600 0.774100
vt 0.271500 0.772300
vt 0.126300 0.933600
vt 0.169900 0.973500
vt 0.186400 0.982800
vt 0.202700 0.957900
vt 0.232100 0.919400
vt 0.077300 0.030700
vt 0.128600 0.025400
vt 0.222300 0.035400
vt 0.306700 0.043800
vt 0.258600 0.030200
vt 0.180400 0.039900
vt 0.197000 0.042200
vt 0.032800 0.134500
vt 0.020500 0.352000
vt 0.099500 0.350900
vt 0.109300 0.144600
vt 0.174000 0.347400
vt 0.176900 0.149000
vt 0.266600 0.347100
vt 0.258800 0.141400
vt 0.349100 0.344100
vt 0.341000 0.140200
vt 0.043900 0.624000
vt 0.114000 0.600700
vt 0.174700 0.592000
vt 0.254400 0.597000
vt 0.331500 0.612500
vt 0.083200 0.777700
vt 0.140600 0.777400
vt 0.177200 0.775000
vt 0.229600 0.774100
vt 0.271500 0.772300
vt 0.126300 0.933600
vt 0.169900 0.973500
vt 0.186400 0.982800
vt 0.202700 0.957900
vt 0.232100 0.919400
vt 0.077300 0.030700
vt 0.128600 0.025400
vt 0.222300 0.035400
vt 0.197000 0.042200
vt 0.306700 0.043800
vt 0.258600 0.030200
vt 0.180400 0.039900
vt 0.017200 0.990700
vt 0.017200 0.915100
vt 0.035800 0.915100
vt 0.035800 0.990700
vt 0.007900 0.990700
vt 0.007900 0.915100
vt 0.045100 0.990700
vt 0.045100 0.915100
vt 0.053700 0.915100
vt 0.053700 0.990700
vt 0.026500 0.990700
vt 0.026500 0.915100
vt 0.007900 0.990700
vt 0.007900 0.915100
vt 0.053700 0.915100
vt 0.053700 0.990700
vt 0.017200 0.764000
vt 0.035800 0.764000
vt 0.035800 0.839600
vt 0.017200 0.839600
vt 0.007900 0.764000
vt 0.007900 0.839600
vt 0.045100 0.764000
vt 0.053700 0.764000
vt 0.053700 0.839600
vt 0.045100 0.839600
vt 0.026500 0.764000
vt 0.026500 0.839600
vt 0.007900 0.764000
vt 0.007900 0.839600
vt 0.053700 0.764000
vt 0.053700 0.839600
vt 0.031000 0.688400
vt 0.032800 0.134500
vt 0.109300 0.144600
vt 0.099500 0.350900
vt 0.020500 0.352000
vt 0.176900 0.149000
vt 0.174000 0.347400
vt 0.258800 0.141400
vt 0.266600 0.347100
vt 0.341000 0.140200
vt 0.349100 0.344100
vt 0.114000 0.600700
vt 0.043900 0.624000
vt 0.174700 0.592000
vt 0.254400 0.597000
vt 0.331500 0.612500
vt 0.140600 0.777400
vt 0.083200 0.777700
vt 0.177200 0.775000
vt 0.229600 0.774100
vt 0.271500 0.772300
vt 0.126300 0.933600
vt 0.169900 0.973500
vt 0.186400 0.982800
vt 0.202700 0.957900
vt 0.232100 0.919400
vt 0.077300 0.030700
vt 0.128600 0.025400
vt 0.222300 0.035400
vt 0.306700 0.043800
vt 0.258600 0.030200
vt 0.180400 0.039900
vt 0.197000 0.042200
vt 0.032800 0.134500
vt 0.020500 0.352000
vt 0.099500 0.350900
vt 0.109300 0.144600
vt 0.174000 0.347400
vt 0.176900 0.149000
vt 0.266600 0.347100
vt 0.258800 0.141400
vt 0.349100 0.344100
vt 0.341000 0.140200
vt 0.043900 0.624000
vt 0.114000 0.600700
vt 0.174700 0.592000
vt 0.254400 0.597000
vt 0.331500 0.612500
vt 0.083200 0.777700
vt 0.140600 0.777400
vt 0.177200 0.775000
vt 0.229600 0.774100
vt 0.271500 0.772300
vt 0.126300 0.933600
vt 0.169900 0.973500
vt 0.186400 0.982800
vt 0.202700 0.957900
vt 0.232100 0.919400
vt 0.077300 0.030700
vt 0.128600 0.025400
vt 0.222300 0.035400
vt 0.197000 0.042200
vt 0.306700 0.043800
vt 0.258600 0.030200
vt 0.180400 0.039900
vt 0.017200 0.990700
vt 0.017200 0.915100
vt 0.035800 0.915100
vt 0.035800 0.990700
vt 0.007900 0.990700
vt 0.007900 0.915100
vt 0.045100 0.990700
vt 0.045100 0.915100
vt 0.053700 0.915100
vt 0.053700 0.990700
vt 0.026500 0.990700
vt 0.026500 0.915100
vt 0.007900 0.990700
vt 0.007900 0.915100
vt 0.053700 0.915100
vt 0.053700 0.990700
vt 0.017200 0.764000
vt 0.035800 0.764000
vt 0.035800 0.839600
vt 0.017200 0.839600
vt 0.007900 0.764000
vt 0.007900 0.839600
vt 0.045100 0.764000
vt 0.053700 0.764000
vt 0.053700 0.839600
vt 0.045100 0.839600
vt 0.026500 0.764000
vt 0.026500 0.839600
vt 0.007900 0.764000
vt 0.007900 0.839600
vt 0.053700 0.764000
vt 0.053700 0.839600
vt 0.031000 0.688400
vt 0.032800 0.134500
vt 0.109300 0.144600
vt 0.099500 0.350900
vt 0.020500 0.352000
vt 0.176900 0.149000
vt 0.174000 0.347400
vt 0.258800 0.141400
vt 0.266600 0.347100
vt 0.341000 0.140200
vt 0.349100 0.344100
vt 0.114000 0.600700
vt 0.043900 0.624000
vt 0.174700 0.592000
vt 0.254400 0.597000
vt 0.331500 0.612500
vt 0.140600 0.777400
vt 0.083200 0.777700
vt 0.177200 0.775000
vt 0.229600 0.774100
vt 0.271500 0.772300
vt 0.126300 0.933600
vt 0.169900 0.973500
vt 0.186400 0.982800
vt 0.202700 0.957900
vt 0.232100 0.919400
vt 0.077300 0.030700
vt 0.128600 0.025400
vt 0.222300 0.035400
vt 0.306700 0.043800
vt 0.258600 0.030200
vt 0.180400 0.039900
vt 0.197000 0.042200
vt 0.032800 0.134500
vt 0.020500 0.352000
vt 0.099500 0.350900
vt 0.109300 0.144600
vt 0.174000 0.347400
vt 0.176900 0.149000
vt 0.266600 0.347100
vt 0.258800 0.141400
vt 0.349100 0.344100
vt 0.341000 0.140200
vt 0.043900 0.624000
vt 0.114000 0.600700
vt 0.174700 0.592000
vt 0.254400 0.597000
vt 0.331500 0.612500
vt 0.083200 0.777700
vt 0.140600 0.777400
vt 0.177200 0.775000
vt 0.229600 0.774100
vt 0.271500 0.772300
vt 0.126300 0.933600
vt 0.169900 0.973500
vt 0.186400 0.982800
vt 0.202700 0.957900
vt 0.232100 0.919400
vt 0.077300 0.030700
vt 0.128600 0.025400
vt 0.222300 0.035400
vt 0.197000 0.042200
vt 0.306700 0.043800
vt 0.258600 0.030200
vt 0.180400 0.039900
vt 0.017200 0.990700
vt 0.017200 0.915100
vt 0.035800 0.915100
vt 0.035800 0.990700
vt 0.007900 0.990700
vt 0.007900 0.915100
vt 0.045100 0.990700
vt 0.045100 0.915100
vt 0.053700 0.915100
vt 0.053700 0.990700
vt 0.026500 0.990700
vt 0.026500 0.915100
vt 0.007900 0.990700
vt 0.007900 0.915100
vt 0.053700 0.915100
vt 0.053700 0.990700
vt 0.017200 0.764000
vt 0.035800 0.764000
vt 0.035800 0.839600
vt 0.017200 0.839600
vt 0.007900 0.764000
vt 0.007900 0.839600
vt 0.045100 0.764000
vt 0.053700 0.764000
vt 0.053700 0.839600
vt 0.045100 0.839600
vt 0.026500 0.764000
vt 0.026500 0.839600
vt 0.007900 0.764000
vt 0.007900 0.839600
vt 0.053700 0.764000
vt 0.053700 0.839600
vt 0.031000 0.688400
vt 0.032800 0.134500
vt 0.109300 0.144600
vt 0.099500 0.350900
vt 0.020500 0.352000
vt 0.176900 0.149000
vt 0.174000 0.347400
vt 0.258800 0.141400
vt 0.266600 0.347100
vt 0.341000 0.140200
vt 0.349100 0.344100
vt 0.114000 0.600700
vt 0.043900 0.624000
vt 0.174700 0.592000
vt 0.254400 0.597000
vt 0.331500 0.612500
vt 0.140600 0.777400
vt 0.083200 0.777700
vt 0.177200 0.775000
vt 0.229600 0.774100
vt 0.271500 0.772300
vt 0.126300 0.933600
vt 0.169900 0.973500
vt 0.186400 0.982800
vt 0.202700 0.957900
vt 0.232100 0.919400
vt 0.077300 0.030700
vt 0.128600 0.025400
vt 0.222300 0.035400
vt 0.306700 0.043800
vt 0.258600 0.030200
vt 0.180400 0.039900
vt 0.197000 0.042200
vt 0.032800 0.134500
vt 0.020500 0.352000
vt 0.099500 0.350900
vt 0.109300 0.144600
vt 0.174000 0.347400
vt 0.176900 0.149000
vt 0.266600 0.347100
vt 0.258800 0.141400
vt 0.349100 0.344100
vt 0.341000 0.140200
vt 0.043900 0.624000
vt 0.114000 0.600700
vt 0.174700 0.592000
vt 0.254400 0.597000
vt 0.331500 0.612500
vt 0.083200 0.777700
vt 0.140600 0.777400
vt 0.177200 0.775000
vt 0.229600 0.774100
vt 0.271500 0.772300
vt 0.126300 0.933600
vt 0.169900 0.973500
vt 0.186400 0.982800
vt 0.202700 0.957900
vt 0.232100 0.919400
vt 0.077300 0.030700
vt 0.128600 0.025400
vt 0.222300 0.035400
vt 0.197000 0.042200
vt 0.306700 0.043800
vt 0.258600 0.030200
vt 0.180400 0.039900
vt 0.017200 0.990700
vt 0.017200 0.915100
vt 0.035800 0.915100
vt 0.035800 0.990700
vt 0.007900 0.990700
vt 0.007900 0.915100
vt 0.045100 0.990700
vt 0.045100 0.915100
vt 0.053700 0.915100
vt 0.053700 0.990700
vt 0.026500 0.990700
vt 0.026500 0.915100
vt 0.007900 0.990700
vt 0.007900 0.915100
vt 0.053700 0.915100
vt 0.053700 0.990700
vt 0.017200 0.764000
vt 0.035800 0.764000
vt 0.035800 0.839600
vt 0.017200 0.839600
vt 0.007900 0.764000
vt 0.007900 0.839600
vt 0.045100 0.764000
vt 0.053700 0.764000
vt 0.053700 0.839600
vt 0.045100 0.839600
vt 0.026500 0.764000
vt 0.026500 0.839600
vt 0.007900 0.764000
vt 0.007900 0.839600
vt 0.053700 0.764000
vt 0.053700 0.839600
vt 0.031000 0.688400
vt 0.032800 0.134500
vt 0.109300 0.144600
vt 0.099500 0.350900
vt 0.020500 0.352000
vt 0.176900 0.149000
vt 0.174000 0.347400
vt 0.258800 0.141400
vt 0.266600 0.347100
vt 0.341000 0.140200
vt 0.349100 0.344100
vt 0.114000 0.600700
vt 0.043900 0.624000
vt 0.174700 0.592000
vt 0.254400 0.597000
vt 0.331500 0.612500
vt 0.140600 0.777400
vt 0.083200 0.777700
vt 0.177200 0.775000
vt 0.229600 0.774100
vt 0.271500 0.772300
vt 0.126300 0.933600
vt 0.169900 0.973500
vt 0.186400 0.982800
vt 0.202700 0.957900
vt 0.232100 0.919400
vt 0.077300 0.030700
vt 0.128600 0.025400
vt 0.222300 0.035400
vt 0.306700 0.043800
vt 0.258600 0.030200
vt 0.180400 0.039900
vt 0.197000 0.042200
vt 0.032800 0.134500
vt 0.020500 0.352000
vt 0.099500 0.350900
vt 0.109300 0.144600
vt 0.174000 0.347400
vt 0.176900 0.149000
vt 0.266600 0.347100
vt 0.258800 0.141400
vt 0.349100 0.344100
vt 0.341000 0.140200
vt 0.043900 0.624000
vt 0.114000 0.600700
vt 0.174700 0.592000
vt 0.254400 0.597000
vt 0.331500 0.612500
vt 0.083200 0.777700
vt 0.140600 0.777400
vt 0.177200 0.775000
vt 0.229600 0.774100
vt 0.271500 0.772300
vt 0.126300 0.933600
vt 0.169900 0.973500
vt 0.186400 0.982800
vt 0.202700 0.957900
vt 0.232100 0.919400
vt 0.077300 0.030700
vt 0.128600 0.025400
vt 0.222300 0.035400
vt 0.197000 0.042200
vt 0.306700 0.043800
vt 0.258600 0.030200
vt 0.180400 0.039900
vt 0.017200 0.990700
vt 0.017200 0.915100
vt 0.035800 0.915100
vt 0.035800 0.990700
vt 0.007900 0.990700
vt 0.007900 0.915100
vt 0.045100 0.990700
vt 0.045100 0.915100
vt 0.053700 0.915100
vt 0.053700 0.990700
vt 0.026500 0.990700
vt 0.026500 0.915100
vt 0.007900 0.990700
vt 0.007900 0.915100
vt 0.053700 0.915100
vt 0.053700 0.990700
vt 0.017200 0.764000
vt 0.035800 0.764000
vt 0.035800 0.839600
vt 0.017200 0.839600
vt 0.007900 0.764000
vt 0.007900 0.839600
vt 0.045100 0.764000
vt 0.053700 0.764000
vt 0.053700 0.839600
vt 0.045100 0.839600
vt 0.026500 0.764000
vt 0.026500 0.839600
vt 0.007900 0.764000
vt 0.007900 0.839600
vt 0.053700 0.764000
vt 0.053700 0.839600
vt 0.031000 0.688400
vt 0.659000 0.873700
vt 0.582500 0.863700
vt 0.592300 0.657400
vt 0.671300 0.656200
vt 0.514900 0.859200
vt 0.517800 0.660800
vt 0.433000 0.866900
vt 0.425200 0.661100
vt 0.350800 0.868000
vt 0.342700 0.664100
vt 0.577800 0.407500
vt 0.647900 0.384200
vt 0.517100 0.416200
vt 0.437400 0.411200
vt 0.360300 0.395700
vt 0.551200 0.230800
vt 0.608600 0.230500
vt 0.514600 0.233200
vt 0.462200 0.234100
vt 0.420300 0.236000
vt 0.565500 0.074600
vt 0.521900 0.034700
vt 0.505400 0.025400
vt 0.489100 0.050300
vt 0.459700 0.088800
vt 0.614500 0.977500
vt 0.563200 0.982800
vt 0.469500 0.972800
vt 0.385100 0.964500
vt 0.433200 0.978000
vt 0.511400 0.968400
vt 0.494800 0.966000
vt 0.659000 0.873700
vt 0.671300 0.656200
vt 0.592300 0.657400
vt 0.582500 0.863700
vt 0.517800 0.660800
vt 0.514900 0.859200
vt 0.425200 0.661100
vt 0.433000 0.866900
vt 0.342700 0.664100
vt 0.350800 0.868000
vt 0.647900 0.384200
vt 0.577800 0.407500
vt 0.517100 0.416200
vt 0.437400 0.411200
vt 0.360300 0.395700
vt 0.608600 0.230500
vt 0.551200 0.230800
vt 0.514600 0.233200
vt 0.462200 0.234100
vt 0.420300 0.236000
vt 0.565500 0.074600
vt 0.521900 0.034700
vt 0.505400 0.025400
vt 0.489100 0.050300
vt 0.459700 0.088800
vt 0.614500 0.977500
vt 0.563200 0.982800
vt 0.469500 0.972800
vt 0.494800 0.966000
vt 0.385100 0.964500
vt 0.433200 0.978000
vt 0.511400 0.968400
vt 0.017200 0.990700
vt 0.017200 0.915100
vt 0.035800 0.915100
vt 0.035800 0.990700
vt 0.007900 0.990700
vt 0.007900 0.915100
vt 0.045100 0.990700
vt 0.045100 0.915100
vt 0.053700 0.915100
vt 0.053700 0.990700
vt 0.026500 0.990700
vt 0.026500 0.915100
vt 0.007900 0.990700
vt 0.007900 0.915100
vt 0.053700 0.915100
vt 0.053700 0.990700
vt 0.017200 0.764000
vt 0.035800 0.764000
vt 0.035800 0.839600
vt 0.017200 0.839600
vt 0.007900 0.764000
vt 0.007900 0.839600
vt 0.045100 0.764000
vt 0.053700 0.764000
vt 0.053700 0.839600
vt 0.045100 0.839600
vt 0.026500 0.764000
vt 0.026500 0.839600
vt 0.007900 0.764000
vt 0.007900 0.839600
vt 0.053700 0.764000
vt 0.053700 0.839600
vt 0.031000 0.688400
vt 0.032800 0.134500
vt 0.109300 0.144600
vt 0.099500 0.350900
vt 0.020500 0.352000
vt 0.176900 0.149000
vt 0.174000 0.347400
vt 0.258800 0.141400
vt 0.266600 0.347100
vt 0.341000 0.140200
vt 0.349100 0.344100
vt 0.114000 0.600700
vt 0.043900 0.624000
vt 0.174700 0.592000
vt 0.254400 0.597000
vt 0.331500 0.612500
vt 0.140600 0.777400
vt 0.083200 0.777700
vt 0.177200 0.775000
vt 0.229600 0.774100
vt 0.271500 0.772300
vt 0.126300 0.933600
vt 0.169900 0.973500
vt 0.186400 0.982800
vt 0.202700 0.957900
vt 0.232100 0.919400
vt 0.077300 0.030700
vt 0.128600 0.025400
vt 0.222300 0.035400
vt 0.306700 0.043800
vt 0.258600 0.030200
vt 0.180400 0.039900
vt 0.197000 0.042200
vt 0.032800 0.134500
vt 0.020500 0.352000
vt 0.099500 0.350900
vt 0.109300 0.144600
vt 0.174000 0.347400
vt 0.176900 0.149000
vt 0.266600 0.347100
vt 0.258800 0.141400
vt 0.349100 0.344100
vt 0.341000 0.140200
vt 0.043900 0.624000
vt 0.114000 0.600700
vt 0.174700 0.592000
vt 0.254400 0.597000
vt 0.331500 0.612500
vt 0.083200 0.777700
vt 0.140600 0.777400
vt 0.177200 0.775000
vt 0.229600 0.774100
vt 0.271500 0.772300
vt 0.126300 0.933600
vt 0.169900 0.973500
vt 0.186400 0.982800
vt 0.202700 0.957900
vt 0.232100 0.919400
vt 0.077300 0.030700
vt 0.128600 0.025400
vt 0.222300 0.035400
vt 0.197000 0.042200
vt 0.306700 0.043800
vt 0.258600 0.030200
vt 0.180400 0.039900
vn -0.1215 0.0037 -0.9926
vn -0.1136 0.0147 -0.9934
vn 0.8297 0.0315 -0.5573
vn 0.8277 0.0002 -0.5612
vn -0.7873 0.0008 -0.6166
vn -0.7848 -0.0113 -0.6196
vn -0.9928 -0.0049 0.1198
vn -0.9924 -0.0312 0.1194
vn -0.3430 -0.0115 0.9393
vn -0.3340 -0.0288 0.9421
vn 0.7894 -0.0090 0.6138
vn 0.7938 0.0085 0.6082
vn -0.2485 0.5313 -0.8099
vn 0.6187 0.6783 -0.3964
vn 0.8166 0.1332 -0.5616
vn -0.1033 0.0797 -0.9915
vn -0.8375 0.2767 -0.4711
vn -0.7796 -0.0199 -0.6259
vn -0.9856 0.0505 0.1614
vn -0.9886 -0.1014 0.1114
vn -0.3479 0.0055 0.9375
vn -0.3358 -0.1097 0.9355
vn 0.6681 0.3782 0.6407
vn 0.8041 0.0182 0.5942
vn -0.3924 0.8281 0.4003
vn 0.8363 0.4966 -0.2323
vn 0.6048 0.5573 -0.5689
vn 0.5133 0.7366 -0.4405
vn 0.7291 0.6738 -0.1204
vn 0.5501 0.5864 -0.5946
vn 0.4410 0.7466 -0.4981
vn 0.5452 0.5628 -0.6213
vn 0.4241 0.7329 -0.5319
vn 0.2480 0.5327 -0.8091
vn 0.1470 0.6837 -0.7148
vn 0.3648 0.8728 -0.3244
vn 0.6132 0.7896 0.0225
vn 0.3535 0.8562 -0.3769
vn 0.3675 0.8522 -0.3724
vn 0.1047 0.7986 -0.5926
vn 0.2358 0.9411 -0.2424
vn 0.5376 0.8258 0.1707
vn 0.2747 0.9337 -0.2298
vn 0.4499 0.8928 -0.0214
vn 0.2637 0.9273 -0.2655
vn -0.0330 0.9194 -0.3921
vn -0.0106 0.9485 -0.3165
vn 0.2174 0.9687 -0.1198
vn 0.5369 0.8099 0.2362
vn 0.5901 0.7583 0.2772
vn 0.8761 0.3893 -0.2845
vn 0.6498 0.4334 -0.6244
vn 0.8550 0.4083 -0.3198
vn 0.3941 0.4011 -0.8269
vn 0.6306 0.4277 -0.6476
vn 0.3936 0.4151 -0.8203
vn 0.8402 0.3997 -0.3665
vn -0.8369 -0.4961 0.2312
vn -0.7294 -0.6736 0.1191
vn -0.5136 -0.7368 0.4398
vn -0.6050 -0.5573 0.5687
vn -0.4410 -0.7468 0.4977
vn -0.5502 -0.5864 0.5945
vn -0.4239 -0.7331 0.5318
vn -0.5452 -0.5628 0.6213
vn -0.1462 -0.6837 0.7149
vn -0.2474 -0.5325 0.8095
vn -0.6138 -0.7891 -0.0239
vn -0.3653 -0.8727 0.3241
vn -0.3540 -0.8560 0.3766
vn -0.3679 -0.8522 0.3721
vn -0.1041 -0.7984 0.5930
vn -0.5386 -0.8248 -0.1720
vn -0.2357 -0.9407 0.2440
vn -0.2740 -0.9333 0.2323
vn -0.4498 -0.8929 0.0226
vn -0.2632 -0.9272 0.2666
vn 0.0349 -0.9186 0.3936
vn 0.0111 -0.9486 0.3164
vn -0.2172 -0.9688 0.1198
vn -0.5372 -0.8097 -0.2360
vn -0.5904 -0.7582 -0.2766
vn -0.8767 -0.3890 0.2831
vn -0.6500 -0.4333 0.6243
vn -0.8550 -0.4084 0.3197
vn -0.8402 -0.3999 0.3663
vn -0.3939 -0.4011 0.8270
vn -0.6306 -0.4276 0.6477
vn -0.3927 -0.4146 0.8209
vn -0.4531 0.0088 -0.8914
vn -0.4267 0.0686 -0.9018
vn 0.5857 0.1192 -0.8017
vn 0.5830 0.0005 -0.8125
vn -0.9502 0.0019 -0.3117
vn -0.9433 -0.0320 -0.3303
vn -0.8932 -0.0117 0.4495
vn -0.8918 -0.1181 0.4367
vn -0.0025 -0.0273 0.9996
vn 0.0324 -0.1134 0.9930
vn 0.9525 -0.0215 0.3037
vn 0.9616 0.0372 0.2719
vn -0.5264 0.4803 -0.7016
vn 0.4392 0.6219 -0.6483
vn 0.5588 0.2908 -0.7767
vn -0.4477 0.1702 -0.8778
vn -0.9440 0.2732 -0.1851
vn -0.9430 -0.0519 -0.3288
vn -0.8641 0.0768 0.4974
vn -0.8781 -0.2383 0.4150
vn 0.0064 0.0809 0.9967
vn 0.0073 -0.2497 0.9683
vn 0.8423 0.4107 0.3490
vn 0.9521 0.0553 0.3009
vn -0.1763 0.9484 0.2635
vn 0.7202 0.3604 -0.5927
vn 0.3988 0.3876 -0.8311
vn 0.3456 0.5763 -0.7406
vn 0.6504 0.5590 -0.5143
vn 0.3342 0.4229 -0.8423
vn 0.2696 0.5886 -0.7621
vn 0.3131 0.4187 -0.8525
vn 0.2326 0.5674 -0.7899
vn -0.0297 0.3810 -0.9241
vn -0.0729 0.5259 -0.8474
vn 0.2772 0.7299 -0.6249
vn 0.6386 0.6749 -0.3698
vn 0.2604 0.7067 -0.6578
vn 0.2616 0.7037 -0.6606
vn -0.0605 0.6555 -0.7528
vn 0.2086 0.8450 -0.4925
vn 0.6396 0.7298 -0.2414
vn 0.2466 0.8297 -0.5008
vn 0.4810 0.7964 -0.3666
vn 0.2286 0.8206 -0.5238
vn -0.1167 0.8662 -0.4859
vn -0.0634 0.9003 -0.4306
vn 0.2254 0.9115 -0.3440
vn 0.6481 0.7519 -0.1208
vn 0.7092 0.6984 -0.0962
vn 0.7645 0.2489 -0.5947
vn 0.4339 0.2732 -0.8585
vn 0.7470 0.3052 -0.5906
vn 0.0971 0.2779 -0.9557
vn 0.4128 0.3211 -0.8524
vn 0.1485 0.2510 -0.9565
vn 0.7267 0.2579 -0.6366
vn -0.7212 -0.3599 0.5920
vn -0.6511 -0.5593 0.5131
vn -0.3461 -0.5766 0.7401
vn -0.3992 -0.3876 0.8309
vn -0.2698 -0.5891 0.7617
vn -0.3343 -0.4228 0.8423
vn -0.2325 -0.5676 0.7898
vn -0.3133 -0.4185 0.8525
vn 0.0737 -0.5261 0.8472
vn 0.0303 -0.3806 0.9242
vn -0.6395 -0.6748 0.3683
vn -0.2776 -0.7298 0.6248
vn -0.2610 -0.7067 0.6576
vn -0.2621 -0.7038 0.6603
vn 0.0612 -0.6554 0.7528
vn -0.6411 -0.7287 0.2407
vn -0.2079 -0.8444 0.4938
vn -0.2448 -0.8290 0.5029
vn -0.4803 -0.7962 0.3678
vn -0.2277 -0.8203 0.5247
vn 0.1192 -0.8655 0.4865
vn 0.0638 -0.9004 0.4303
vn -0.2253 -0.9116 0.3439
vn -0.6485 -0.7516 0.1209
vn -0.7092 -0.6983 0.0969
vn -0.7656 -0.2486 0.5934
vn -0.4337 -0.2733 0.8586
vn -0.7472 -0.3048 0.5906
vn -0.7269 -0.2580 0.6364
vn -0.0968 -0.2780 0.9557
vn -0.4124 -0.3208 0.8527
vn -0.1476 -0.2510 0.9567
vn 0.5993 0.0746 -0.7971
vn 0.6230 0.0806 -0.7781
vn 0.9676 0.1527 0.2013
vn 0.9776 0.0988 0.1860
vn -0.1318 -0.0104 -0.9912
vn -0.1095 -0.0421 -0.9931
vn -0.7854 -0.0983 -0.6111
vn -0.7759 -0.1431 -0.6144
vn -0.9028 -0.1354 0.4083
vn -0.8866 -0.1433 0.4399
vn 0.1087 -0.0250 0.9938
vn 0.1309 0.0291 0.9910
vn 0.3714 0.5165 -0.7716
vn 0.7115 0.6908 0.1284
vn 0.9463 0.2723 0.1745
vn 0.6078 0.1562 -0.7786
vn -0.2632 0.2514 -0.9314
vn -0.0976 -0.0488 -0.9940
vn -0.8175 0.0077 -0.5759
vn -0.7448 -0.2218 -0.6293
vn -0.9034 -0.0059 0.4288
vn -0.8765 -0.2324 0.4215
vn 0.0057 0.4134 0.9105
vn 0.1391 0.0610 0.9884
vn -0.4732 0.8796 -0.0484
vn 0.7662 0.5011 0.4022
vn 0.8404 0.5418 0.0102
vn 0.7048 0.7095 0.0002
vn 0.6327 0.6792 0.3721
vn 0.8174 0.5736 -0.0531
vn 0.6902 0.7194 -0.0777
vn 0.8185 0.5694 -0.0765
vn 0.7033 0.7002 -0.1230
vn 0.7463 0.5185 -0.4174
vn 0.6347 0.6459 -0.4242
vn 0.5464 0.8374 -0.0128
vn 0.4786 0.7697 0.4225
vn 0.5728 0.8186 -0.0420
vn 0.5763 0.8162 -0.0420
vn 0.5329 0.7595 -0.3729
vn 0.3796 0.9249 -0.0191
vn 0.3549 0.8037 0.4776
vn 0.4055 0.9140 0.0119
vn 0.3891 0.8773 0.2810
vn 0.4201 0.9073 -0.0142
vn 0.2347 0.9209 -0.3111
vn 0.2016 0.9498 -0.2394
vn 0.2426 0.9683 0.0590
vn 0.2470 0.8070 0.5364
vn 0.2597 0.7550 0.6020
vn 0.8057 0.3948 0.4415
vn 0.8994 0.4361 0.0304
vn 0.7850 0.4484 0.4274
vn 0.8452 0.4312 -0.3159
vn 0.8768 0.4806 0.0138
vn 0.8719 0.4086 -0.2697
vn 0.8259 0.4076 0.3896
vn -0.7660 -0.5005 -0.4034
vn -0.6318 -0.6793 -0.3733
vn -0.7045 -0.7097 -0.0009
vn -0.8405 -0.5418 -0.0106
vn -0.6899 -0.7198 0.0773
vn -0.8175 -0.5734 0.0531
vn -0.7031 -0.7003 0.1231
vn -0.8186 -0.5693 0.0763
vn -0.6342 -0.6460 0.4249
vn -0.7462 -0.5180 0.4181
vn -0.4777 -0.7694 -0.4240
vn -0.5464 -0.8374 0.0124
vn -0.5728 -0.8186 0.0414
vn -0.5762 -0.8162 0.0416
vn -0.5326 -0.7594 0.3737
vn -0.3551 -0.8026 -0.4793
vn -0.3806 -0.9245 0.0203
vn -0.4068 -0.9135 -0.0094
vn -0.3899 -0.8773 -0.2799
vn -0.4206 -0.9071 0.0153
vn -0.2343 -0.9202 0.3136
vn -0.2012 -0.9498 0.2397
vn -0.2425 -0.9684 -0.0588
vn -0.2473 -0.8068 -0.5366
vn -0.2604 -0.7550 -0.6018
vn -0.8051 -0.3944 -0.4431
vn -0.8994 -0.4361 -0.0302
vn -0.7852 -0.4480 -0.4276
vn -0.8258 -0.4075 -0.3899
vn -0.8450 -0.4313 0.3161
vn -0.8769 -0.4804 -0.0134
vn -0.8717 -0.4085 0.2705
vn 0.1399 0.0745 0.9874
vn 0.1096 0.0806 0.9907
vn -0.8265 0.1527 0.5418
vn -0.8227 0.0988 0.5598
vn 0.7941 -0.0104 0.6077
vn 0.7797 -0.0421 0.6247
vn 0.9875 -0.0983 -0.1232
vn 0.9831 -0.1431 -0.1141
vn 0.3497 -0.1354 -0.9270
vn 0.3160 -0.1433 -0.9379
vn -0.7795 -0.0250 -0.6259
vn -0.7933 0.0291 -0.6082
vn 0.2829 0.5165 0.8082
vn -0.5939 0.6908 0.4124
vn -0.7925 0.2723 0.5457
vn 0.1208 0.1561 0.9803
vn 0.8448 0.2514 0.4724
vn 0.7718 -0.0487 0.6340
vn 0.9852 0.0077 -0.1710
vn 0.9717 -0.2217 -0.0816
vn 0.3356 -0.0059 -0.9420
vn 0.3217 -0.2324 -0.9179
vn -0.6479 0.4134 -0.6398
vn -0.7973 0.0610 -0.6005
vn 0.3688 0.8796 -0.3003
vn -0.8262 0.5011 0.2574
vn -0.6015 0.5418 0.5871
vn -0.4985 0.7095 0.4982
vn -0.7105 0.6792 0.1843
vn -0.5405 0.5736 0.6156
vn -0.4331 0.7194 0.5430
vn -0.5247 0.5694 0.6328
vn -0.4103 0.7002 0.5843
vn -0.2325 0.5185 0.8229
vn -0.1488 0.6459 0.7488
vn -0.3773 0.8375 0.3954
vn -0.6372 0.7697 0.0397
vn -0.3753 0.8186 0.4347
vn -0.3778 0.8162 0.4372
vn -0.1131 0.7595 0.6406
vn -0.2549 0.9249 0.2819
vn -0.5887 0.8037 -0.0868
vn -0.2951 0.9140 0.2783
vn -0.4739 0.8773 0.0764
vn -0.2870 0.9073 0.3071
vn 0.0540 0.9209 0.3860
vn 0.0267 0.9498 0.3118
vn -0.2132 0.9683 0.1298
vn -0.5539 0.8070 -0.2047
vn -0.6094 0.7550 -0.2420
vn -0.8819 0.3948 0.2575
vn -0.6575 0.4361 0.6145
vn -0.8573 0.4483 0.2529
vn -0.3743 0.4312 0.8210
vn -0.6298 0.4806 0.6102
vn -0.4259 0.4087 0.8072
vn -0.8595 0.4076 0.3085
vn 0.8269 -0.5005 -0.2564
vn 0.7107 -0.6793 -0.1828
vn 0.4988 -0.7097 -0.4975
vn 0.6018 -0.5418 -0.5868
vn 0.4331 -0.7198 -0.5425
vn 0.5406 -0.5734 -0.6156
vn 0.4102 -0.7003 -0.5842
vn 0.5249 -0.5693 -0.6328
vn 0.1480 -0.6460 -0.7488
vn 0.2320 -0.5180 -0.8233
vn 0.6376 -0.7694 -0.0380
vn 0.3776 -0.8374 -0.3952
vn 0.3758 -0.8186 -0.4343
vn 0.3781 -0.8162 -0.4368
vn 0.1124 -0.7594 -0.6408
vn 0.5901 -0.8026 0.0878
vn 0.2548 -0.9245 -0.2834
vn 0.2943 -0.9135 -0.2810
vn 0.4736 -0.8773 -0.0778
vn 0.2866 -0.9071 -0.3083
vn -0.0561 -0.9202 -0.3874
vn -0.0273 -0.9498 -0.3117
vn 0.2130 -0.9684 -0.1298
vn 0.5543 -0.8068 0.2046
vn 0.6097 -0.7550 0.2414
vn 0.8826 -0.3944 -0.2560
vn 0.6573 -0.4361 -0.6146
vn 0.8575 -0.4480 -0.2529
vn 0.8596 -0.4075 -0.3082
vn 0.3740 -0.4313 -0.8211
vn 0.6295 -0.4804 -0.6106
vn 0.4251 -0.4086 -0.8077
vn -0.9966 0.0745 -0.0337
vn -0.9947 0.0806 -0.0641
vn -0.3901 0.1527 -0.9080
vn -0.4083 0.0988 -0.9075
vn -0.7364 -0.0104 0.6765
vn -0.7507 -0.0421 0.6593
vn -0.0501 -0.0983 0.9939
vn -0.0583 -0.1431 0.9880
vn 0.8522 -0.1354 0.5054
vn 0.8688 -0.1433 0.4740
vn 0.7517 -0.0251 -0.6590
vn 0.7366 0.0291 -0.6757
vn -0.8451 0.5165 0.1383
vn -0.3029 0.6908 -0.6565
vn -0.3998 0.2723 -0.8752
vn -0.9864 0.1561 -0.0512
vn -0.6120 0.2514 0.7499
vn -0.7583 -0.0488 0.6501
vn -0.0027 0.0077 1.0000
vn -0.0884 -0.2218 0.9711
vn 0.8694 -0.0059 0.4940
vn 0.8481 -0.2324 0.4762
vn 0.7426 0.4134 -0.5269
vn 0.7299 0.0610 -0.6809
vn 0.2317 0.8796 0.4154
vn -0.1100 0.5011 -0.8584
vn -0.4737 0.5418 -0.6943
vn -0.4040 0.7095 -0.5774
vn -0.0581 0.6792 -0.7317
vn -0.5124 0.5736 -0.6392
vn -0.4595 0.7194 -0.5208
vn -0.5321 0.5694 -0.6266
vn -0.5042 0.7002 -0.5055
vn -0.7700 0.5185 -0.3719
vn -0.7116 0.6459 -0.2766
vn -0.3239 0.8375 -0.4402
vn 0.0716 0.7697 -0.6344
vn -0.3629 0.8186 -0.4451
vn -0.3650 0.8162 -0.4479
vn -0.6112 0.7595 -0.2226
vn -0.2334 0.9249 -0.3000
vn 0.1877 0.8037 -0.5647
vn -0.2229 0.9140 -0.3390
vn 0.0070 0.8773 -0.4799
vn -0.2526 0.9074 -0.3360
vn -0.3895 0.9209 -0.0139
vn -0.3117 0.9498 -0.0278
vn -0.0908 0.9683 -0.2325
vn 0.2977 0.8070 -0.5100
vn 0.3442 0.7550 -0.5581
vn -0.1005 0.3948 -0.9132
vn -0.4910 0.4361 -0.7542
vn -0.1002 0.4483 -0.8882
vn -0.7435 0.4312 -0.5111
vn -0.4916 0.4806 -0.7262
vn -0.7210 0.4086 -0.5596
vn -0.1546 0.4075 -0.9000
vn 0.1089 -0.5005 0.8589
vn 0.0566 -0.6793 0.7317
vn 0.4033 -0.7097 0.5776
vn 0.4734 -0.5418 0.6946
vn 0.4591 -0.7198 0.5207
vn 0.5124 -0.5735 0.6392
vn 0.5041 -0.7003 0.5054
vn 0.5320 -0.5693 0.6268
vn 0.7118 -0.6460 0.2758
vn 0.7705 -0.5180 0.3714
vn -0.0733 -0.7694 0.6345
vn 0.3236 -0.8374 0.4405
vn 0.3625 -0.8186 0.4455
vn 0.3645 -0.8162 0.4482
vn 0.6116 -0.7594 0.2220
vn -0.1890 -0.8026 0.5658
vn 0.2349 -0.9245 0.3001
vn 0.2256 -0.9135 0.3386
vn -0.0057 -0.8773 0.4800
vn 0.2538 -0.9071 0.3357
vn 0.3912 -0.9202 0.0121
vn 0.3117 -0.9498 0.0273
vn 0.0909 -0.9684 0.2324
vn -0.2977 -0.8068 0.5104
vn -0.3436 -0.7550 0.5585
vn 0.0988 -0.3944 0.9136
vn 0.4912 -0.4361 0.7540
vn 0.1001 -0.4480 0.8884
vn 0.1542 -0.4076 0.9001
vn 0.7436 -0.4313 0.5109
vn 0.4920 -0.4804 0.7260
vn 0.7216 -0.4086 0.5589
vn -0.5451 0.0037 0.8384
vn -0.5608 0.0427 0.8268
vn -0.9913 0.0797 -0.1050
vn -0.9948 0.0002 -0.1021
vn 0.2067 0.0008 0.9784
vn 0.1934 -0.0219 0.9809
vn 0.8376 -0.0049 0.5463
vn 0.8307 -0.0746 0.5517
vn 0.8665 -0.0115 -0.4991
vn 0.8538 -0.0703 -0.5159
vn -0.2101 -0.0090 -0.9776
vn -0.2336 0.0250 -0.9720
vn -0.1957 0.3227 0.9261
vn -0.7736 0.6051 0.1884
vn -0.9555 0.2702 -0.1186
vn -0.5759 0.1154 0.8094
vn 0.4676 0.1115 0.8769
vn 0.1609 -0.0870 0.9831
vn 0.9374 -0.0027 0.3483
vn 0.8069 -0.2242 0.5465
vn 0.7609 0.1753 -0.6247
vn 0.8414 -0.1804 -0.5095
vn -0.2693 0.5552 -0.7869
vn -0.2084 0.0973 -0.9732
vn 0.3295 0.9353 0.1291
vn -0.9114 0.3982 -0.1043
vn -0.8872 0.3558 0.2939
vn -0.7808 0.5430 0.3090
vn -0.8034 0.5917 -0.0672
vn -0.8537 0.3803 0.3557
vn -0.7483 0.5423 0.3820
vn -0.8480 0.3721 0.3773
vn -0.7461 0.5134 0.4239
vn -0.6834 0.2793 0.6745
vn -0.5947 0.4235 0.6834
vn -0.6459 0.6961 0.3135
vn -0.6833 0.7185 -0.1301
vn -0.6607 0.6677 0.3431
vn -0.6636 0.6646 0.3434
vn -0.5282 0.5623 0.6363
vn -0.4986 0.8129 0.3011
vn -0.5847 0.7855 -0.2028
vn -0.5296 0.8024 0.2750
vn -0.5778 0.8161 0.0075
vn -0.5358 0.7886 0.3017
vn -0.2844 0.7884 0.5455
vn -0.2757 0.8351 0.4761
vn -0.3946 0.8956 0.2056
vn -0.4974 0.8204 -0.2820
vn -0.5186 0.7789 -0.3528
vn -0.9429 0.2944 -0.1556
vn -0.9325 0.2454 0.2651
vn -0.9277 0.3478 -0.1353
vn -0.7906 0.1926 0.5813
vn -0.9135 0.2901 0.2854
vn -0.8246 0.1733 0.5385
vn -0.9507 0.2938 -0.0989
vn 0.9114 -0.3978 0.1056
vn 0.8029 -0.5922 0.0685
vn 0.7807 -0.5435 -0.3084
vn 0.8873 -0.3558 -0.2935
vn 0.7481 -0.5428 -0.3817
vn 0.8538 -0.3801 -0.3557
vn 0.7460 -0.5136 -0.4239
vn 0.8482 -0.3719 -0.3771
vn 0.5940 -0.4236 -0.6839
vn 0.6831 -0.2788 -0.6750
vn 0.6828 -0.7187 0.1317
vn 0.6461 -0.6961 -0.3131
vn 0.6609 -0.6677 -0.3426
vn 0.6637 -0.6647 -0.3429
vn 0.5277 -0.5621 -0.6369
vn 0.5852 -0.7847 0.2046
vn 0.4991 -0.8121 -0.3023
vn 0.5301 -0.8012 -0.2776
vn 0.5783 -0.8158 -0.0088
vn 0.5359 -0.7881 -0.3028
vn 0.2832 -0.7873 -0.5477
vn 0.2752 -0.8351 -0.4763
vn 0.3945 -0.8956 -0.2057
vn 0.4978 -0.8201 0.2821
vn 0.5191 -0.7786 0.3524
vn 0.9426 -0.2945 0.1572
vn 0.9324 -0.2454 -0.2653
vn 0.9279 -0.3475 0.1355
vn 0.9507 -0.2939 0.0993
vn 0.7904 -0.1926 -0.5815
vn 0.9134 -0.2898 -0.2858
vn 0.8242 -0.1731 -0.5392
vn 0.5166 0.0709 0.8533
vn 0.5135 0.1109 0.8509
vn -0.5113 0.1445 0.8472
vn -0.4996 0.0734 0.8631
vn 0.9702 0.0145 0.2419
vn 0.9712 -0.0010 0.2384
vn 0.8584 -0.0536 -0.5102
vn 0.8489 -0.1168 -0.5155
vn -0.0905 -0.0958 -0.9913
vn -0.1047 -0.1544 -0.9825
vn -0.9811 -0.0218 -0.1920
vn -0.9798 0.0079 -0.2000
vn 0.7249 0.3456 0.5959
vn -0.2195 0.5761 0.7874
vn -0.5005 0.2423 0.8311
vn 0.5292 0.1618 0.8329
vn 0.9863 0.1638 -0.0180
vn 0.9743 -0.0190 0.2245
vn 0.7334 0.0428 -0.6785
vn 0.8376 -0.1835 -0.5145
vn -0.2334 0.1878 -0.9541
vn -0.0946 -0.2177 -0.9714
vn -0.8433 0.5274 -0.1034
vn -0.9748 0.0275 -0.2214
vn 0.3142 0.9253 -0.2122
vn -0.4676 0.2235 0.8552
vn -0.1024 0.2718 0.9569
vn -0.1133 0.4524 0.8846
vn -0.4848 0.4542 0.7474
vn -0.0347 0.3323 0.9425
vn -0.0130 0.4414 0.8972
vn -0.0493 0.3709 0.9274
vn 0.0220 0.4348 0.9003
vn 0.3409 0.3436 0.8751
vn 0.3575 0.3546 0.8640
vn -0.0440 0.4985 0.8658
vn -0.4411 0.5302 0.7241
vn 0.0118 0.4628 0.8864
vn -0.0187 0.4704 0.8823
vn 0.3276 0.3833 0.8636
vn 0.0325 0.6048 0.7957
vn -0.4518 0.6520 0.6089
vn -0.0043 0.5982 0.8013
vn -0.2675 0.6351 0.7246
vn 0.0184 0.5799 0.8145
vn 0.3373 0.5664 0.7519
vn 0.2818 0.6249 0.7281
vn -0.0117 0.6943 0.7196
vn -0.4864 0.6780 0.5510
vn -0.5585 0.6451 0.5215
vn -0.5756 0.0387 0.8168
vn -0.2665 0.1127 0.9572
vn -0.5305 0.1981 0.8242
vn 0.0088 0.2525 0.9675
vn -0.2597 0.2369 0.9362
vn -0.0055 0.1812 0.9834
vn -0.5714 0.1390 0.8088
vn 0.4685 -0.2227 -0.8549
vn 0.4861 -0.4540 -0.7467
vn 0.1140 -0.4526 -0.8844
vn 0.1031 -0.2717 -0.9569
vn 0.0134 -0.4415 -0.8972
vn 0.0346 -0.3324 -0.9425
vn -0.0221 -0.4347 -0.9003
vn 0.0498 -0.3712 -0.9272
vn -0.3582 -0.3544 -0.8638
vn -0.3416 -0.3442 -0.8745
vn 0.4425 -0.5300 -0.7234
vn 0.0447 -0.4981 -0.8660
vn -0.0112 -0.4624 -0.8866
vn 0.0193 -0.4702 -0.8824
vn -0.3282 -0.3828 -0.8636
vn 0.4536 -0.6515 -0.6081
vn -0.0334 -0.6039 -0.7964
vn 0.0025 -0.5968 -0.8024
vn 0.2667 -0.6346 -0.7254
vn -0.0193 -0.5794 -0.8148
vn -0.3398 -0.5654 -0.7516
vn -0.2822 -0.6250 -0.7278
vn 0.0116 -0.6944 -0.7195
vn 0.4867 -0.6777 -0.5512
vn 0.5585 -0.6446 -0.5220
vn 0.5768 -0.0369 -0.8161
vn 0.2659 -0.1122 -0.9574
vn 0.5303 -0.1975 -0.8245
vn 0.5726 -0.1378 -0.8082
vn -0.0087 -0.2535 -0.9673
vn 0.2597 -0.2368 -0.9362
vn 0.0049 -0.1816 -0.9834
vn 0.9507 0.0088 0.3099
vn 0.9394 0.0686 0.3359
vn 0.1528 0.1192 0.9810
vn 0.1622 0.0005 0.9868
vn 0.8923 0.0019 -0.4515
vn 0.9006 -0.0320 -0.4335
vn 0.3137 -0.0117 -0.9495
vn 0.3218 -0.1181 -0.9394
vn -0.7051 -0.0273 -0.7086
vn -0.7251 -0.1134 -0.6792
vn -0.8883 -0.0215 0.4588
vn -0.8722 0.0372 0.4877
vn 0.8683 0.4803 0.1239
vn 0.1480 0.6219 0.7690
vn 0.1541 0.2908 0.9443
vn 0.9373 0.1702 0.3041
vn 0.7984 0.2732 -0.5365
vn 0.8993 -0.0519 -0.4343
vn 0.2594 0.0768 -0.9627
vn 0.3275 -0.2383 -0.9143
vn -0.7092 0.0809 -0.7003
vn -0.6899 -0.2497 -0.6795
vn -0.8424 0.4107 0.3488
vn -0.8859 0.0554 0.4605
vn -0.0616 0.9484 -0.3110
vn -0.0901 0.3604 0.9284
vn 0.3057 0.3876 0.8697
vn 0.2793 0.5763 0.7680
vn -0.0962 0.5590 0.8236
vn 0.3593 0.4229 0.8319
vn 0.3482 0.5886 0.7295
vn 0.3814 0.4187 0.8242
vn 0.3941 0.5674 0.7230
vn 0.6744 0.3810 0.6324
vn 0.6508 0.5259 0.5477
vn 0.2458 0.7299 0.6379
vn -0.1901 0.6749 0.7130
vn 0.2810 0.7067 0.6493
vn 0.2821 0.7037 0.6521
vn 0.5751 0.6555 0.4895
vn 0.2008 0.8450 0.4957
vn -0.2816 0.7298 0.6229
vn 0.1797 0.8297 0.5285
vn -0.0809 0.7964 0.5994
vn 0.2087 0.8206 0.5320
vn 0.4261 0.8662 0.2611
vn 0.3493 0.9003 0.2596
vn 0.0839 0.9115 0.4026
vn -0.3728 0.7519 0.5437
vn -0.4334 0.6985 0.5695
vn -0.1201 0.2489 0.9611
vn 0.3003 0.2732 0.9139
vn -0.1106 0.3052 0.9458
vn 0.6071 0.2778 0.7445
vn 0.3108 0.3211 0.8946
vn 0.5713 0.2510 0.7814
vn -0.0637 0.2579 0.9641
vn 0.0914 -0.3599 -0.9285
vn 0.0976 -0.5593 -0.8232
vn -0.2786 -0.5766 -0.7680
vn -0.3053 -0.3876 -0.8698
vn -0.3478 -0.5890 -0.7294
vn -0.3593 -0.4228 -0.8320
vn -0.3940 -0.5676 -0.7229
vn -0.3812 -0.4185 -0.8244
vn -0.6512 -0.5261 -0.5470
vn -0.6750 -0.3806 -0.6321
vn 0.1918 -0.6748 -0.7126
vn -0.2454 -0.7298 -0.6381
vn -0.2805 -0.7067 -0.6495
vn -0.2816 -0.7038 -0.6522
vn -0.5756 -0.6554 -0.4890
vn 0.2831 -0.7287 -0.6236
vn -0.2021 -0.8444 -0.4961
vn -0.1824 -0.8290 -0.5287
vn 0.0796 -0.7963 -0.5997
vn -0.2100 -0.8203 -0.5320
vn -0.4282 -0.8655 -0.2597
vn -0.3494 -0.9004 -0.2591
vn -0.0839 -0.9116 -0.4025
vn 0.3729 -0.7516 -0.5440
vn 0.4330 -0.6983 -0.5700
vn 0.1217 -0.2486 -0.9609
vn -0.3005 -0.2733 -0.9138
vn 0.1107 -0.3048 -0.9459
vn 0.0640 -0.2580 -0.9640
vn -0.6073 -0.2780 -0.7443
vn -0.3113 -0.3208 -0.8945
vn -0.5721 -0.2510 -0.7809
s 1
f 1/1/1 2/2/2 3/3/3
f 3/3/3 4/4/4 1/1/1
f 5/5/5 6/6/6 2/2/2
f 2/2/2 1/1/1 5/5/5
f 7/7/7 8/8/8 6/9/6
f 6/9/6 5/10/5 7/7/7
f 9/11/9 10/12/10 8/8/8
f 8/8/8 7/7/7 9/11/9
f 11/13/11 12/14/12 10/12/10
f 10/12/10 9/11/9 11/13/11
f 4/4/4 3/3/3 12/15/12
f 12/15/12 11/16/11 4/4/4
f 13/17/13 14/18/14 15/19/15
f 15/19/15 16/20/16 13/17/13
f 17/21/17 13/17/13 16/20/16
f 16/20/16 18/22/18 17/21/17
f 19/23/19 17/24/17 18/25/18
f 18/25/18 20/26/20 19/23/19
f 21/27/21 19/23/19 20/26/20
f 20/26/20 22/28/22 21/27/21
f 23/29/23 21/27/21 22/28/22
f 22/28/22 24/30/24 23/29/23
f 14/18/14 23/31/23 24/32/24
f 24/32/24 15/19/15 14/18/14
f 16/20/16 15/19/15 3/3/3
f 3/3/3 2/2/2 16/20/16
f 18/22/18 16/20/16 2/2/2
f 2/2/2 6/6/6 18/22/18
f 20/26/20 18/25/18 6/9/6
f 6/9/6 8/8/8 20/26/20
f 10/12/10 22/28/22 20/26/20
f 20/26/20 8/8/8 10/12/10
f 12/14/12 24/30/24 22/28/22
f 22/28/22 10/12/10 12/14/12
f 3/3/3 15/19/15 24/32/24
f 24/32/24 12/15/12 3/3/3
f 13/17/13 25/33/25 14/18/14
f 17/21/17 25/33/25 13/17/13
f 19/23/19 25/33/25 17/24/17
f 21/27/21 25/33/25 19/23/19
f 23/29/23 25/33/25 21/27/21
f 14/18/14 25/33/25 23/31/23
s 2
f 26/34/26 27/35/27 28/36/28
f 28/36/28 29/37/29 26/34/26
f 27/35/27 30/38/30 31/39/31
f 31/39/31 28/36/28 27/35/27
f 31/39/31 30/38/30 32/40/32
f 32/40/32 33/41/33 31/39/31
f 33/41/33 32/40/32 34/42/34
f 34/42/34 35/43/35 33/41/33
f 29/37/29 28/36/28 36/44/36
f 36/44/36 37/45/37 29/37/29
f 28/36/28 31/39/31 38/46/38
f 38/46/38 36/44/36 28/36/28
f 31/39/31 33/41/33 39/47/39
f 39/47/39 38/46/38 31/39/31
f 33/41/33 35/43/35 40/48/40
f 40/48/40 39/47/39 33/41/33
f 37/45/37 36/44/36 41/49/41
f 41/49/41 42/50/42 37/45/37
f 36/44/36 38/46/38 43/51/43
f 43/51/43 41/49/41 36/44/36
f 38/46/38 39/47/39 44/52/44
f 44/52/44 43/51/43 38/46/38
f 44/52/44 39/47/39 45/53/45
f 46/54/46 41/49/41 47/55/47
f 41/49/41 43/51/43 48/56/48
f 48/56/48 47/55/47 41/49/41
f 43/51/43 44/52/44 49/57/49
f 49/57/49 48/56/48 43/51/43
f 49/57/49 44/52/44 50/58/50
f 26/34/26 51/59/51 27/35/27
f 27/35/27 52/60/52 30/38/30
f 30/38/30 53/61/53 32/40/32
f 32/40/32 54/62/54 34/42/34
f 44/52/44 45/53/45 50/58/50
f 46/54/46 42/50/42 41/49/41
f 32/40/32 55/63/55 54/62/54
f 32/40/32 53/61/53 55/63/55
f 51/59/51 52/60/52 27/35/27
f 30/38/30 56/64/56 57/65/57
s 3
f 58/66/58 59/67/59 60/68/60
f 60/68/60 61/69/61 58/66/58
f 61/69/61 60/68/60 62/70/62
f 62/70/62 63/71/63 61/69/61
f 62/70/62 64/72/64 65/73/65
f 65/73/65 63/71/63 62/70/62
f 64/72/64 66/74/66 67/75/67
f 67/75/67 65/73/65 64/72/64
f 59/67/59 68/76/68 69/77/69
f 69/77/69 60/68/60 59/67/59
f 60/68/60 69/77/69 70/78/70
f 70/78/70 62/70/62 60/68/60
f 62/70/62 70/78/70 71/79/71
f 71/79/71 64/72/64 62/70/62
f 64/72/64 71/79/71 72/80/72
f 72/80/72 66/74/66 64/72/64
f 68/76/68 73/81/73 74/82/74
f 74/82/74 69/77/69 68/76/68
f 69/77/69 74/82/74 75/83/75
f 75/83/75 70/78/70 69/77/69
f 70/78/70 75/83/75 76/84/76
f 76/84/76 71/79/71 70/78/70
f 76/84/76 77/85/77 71/79/71
f 78/86/78 79/87/79 74/82/74
f 74/82/74 79/87/79 80/88/80
f 80/88/80 75/83/75 74/82/74
f 75/83/75 80/88/80 81/89/81
f 81/89/81 76/84/76 75/83/75
f 81/89/81 82/90/82 76/84/76
f 58/66/58 61/69/61 83/91/83
f 61/69/61 63/71/63 84/92/84
f 63/71/63 85/93/85 86/94/86
f 65/73/65 67/75/67 87/95/87
f 76/84/76 82/90/82 77/85/77
f 78/86/78 74/82/74 73/81/73
f 65/73/65 87/95/87 88/96/88
f 65/73/65 88/96/88 85/93/85
f 83/91/83 61/69/61 84/92/84
f 63/71/63 86/94/86 89/97/89
s 2
f 52/60/52 56/64/56 30/38/30
f 30/38/30 57/65/57 53/61/53
s 3
f 63/71/63 89/97/89 84/92/84
f 63/71/63 65/73/65 85/93/85
s 2
f 39/47/39 40/48/40 45/53/45
s 3
f 77/85/77 72/80/72 71/79/71
s 4
f 90/98/90 91/99/91 92/100/92
f 92/100/92 93/101/93 90/98/90
f 94/102/94 95/103/95 91/99/91
f 91/99/91 90/98/90 94/102/94
f 96/104/96 97/105/97 95/106/95
f 95/106/95 94/107/94 96/104/96
f 98/108/98 99/109/99 97/105/97
f 97/105/97 96/104/96 98/108/98
f 100/110/100 101/111/101 99/109/99
f 99/109/99 98/108/98 100/110/100
f 93/101/93 92/100/92 101/112/101
f 101/112/101 100/113/100 93/101/93
f 102/114/102 103/115/103 104/116/104
f 104/116/104 105/117/105 102/114/102
f 106/118/106 102/114/102 105/117/105
f 105/117/105 107/119/107 106/118/106
f 108/120/108 106/121/106 107/122/107
f 107/122/107 109/123/109 108/120/108
f 110/124/110 108/120/108 109/123/109
f 109/123/109 111/125/111 110/124/110
f 112/126/112 110/124/110 111/125/111
f 111/125/111 113/127/113 112/126/112
f 103/115/103 112/128/112 113/129/113
f 113/129/113 104/116/104 103/115/103
f 105/117/105 104/116/104 92/100/92
f 92/100/92 91/99/91 105/117/105
f 107/119/107 105/117/105 91/99/91
f 91/99/91 95/103/95 107/119/107
f 109/123/109 107/122/107 95/106/95
f 95/106/95 97/105/97 109/123/109
f 99/109/99 111/125/111 109/123/109
f 109/123/109 97/105/97 99/109/99
f 101/111/101 113/127/113 111/125/111
f 111/125/111 99/109/99 101/111/101
f 92/100/92 104/116/104 113/129/113
f 113/129/113 101/112/101 92/100/92
f 102/114/102 114/130/114 103/115/103
f 106/118/106 114/130/114 102/114/102
f 108/120/108 114/130/114 106/121/106
f 110/124/110 114/130/114 108/120/108
f 112/126/112 114/130/114 110/124/110
f 103/115/103 114/130/114 112/128/112
s 5
f 115/131/115 116/132/116 117/133/117
f 117/133/117 118/134/118 115/131/115
f 116/132/116 119/135/119 120/136/120
f 120/136/120 117/133/117 116/132/116
f 120/136/120 119/135/119 121/137/121
f 121/137/121 122/138/122 120/136/120
f 122/138/122 121/137/121 123/139/123
f 123/139/123 124/140/124 122/138/122
f 118/134/118 117/133/117 125/141/125
f 125/141/125 126/142/126 118/134/118
f 117/133/117 120/136/120 127/143/127
f 127/143/127 125/141/125 117/133/117
f 120/136/120 122/138/122 128/144/128
f 128/144/128 127/143/127 120/136/120
f 122/138/122 124/140/124 129/145/129
f 129/145/129 128/144/128 122/138/122
f 126/142/126 125/141/125 130/146/130
f 130/146/130 131/147/131 126/142/126
f 125/141/125 127/143/127 132/148/132
f 132/148/132 130/146/130 125/141/125
f 127/143/127 128/144/128 133/149/133
f 133/149/133 132/148/132 127/143/127
f 133/149/133 128/144/128 134/150/134
f 135/151/135 130/146/130 136/152/136
f 130/146/130 132/148/132 137/153/137
f 137/153/137 136/152/136 130/146/130
f 132/148/132 133/149/133 138/154/138
f 138/154/138 137/153/137 132/148/132
f 138/154/138 133/149/133 139/155/139
f 115/131/115 140/156/140 116/132/116
f 116/132/116 141/157/141 119/135/119
f 119/135/119 142/158/142 121/137/121
f 121/137/121 143/159/143 123/139/123
f 133/149/133 134/150/134 139/155/139
f 135/151/135 131/147/131 130/146/130
f 121/137/121 144/160/144 143/159/143
f 121/137/121 142/158/142 144/160/144
f 140/156/140 141/157/141 116/132/116
f 119/135/119 145/161/145 146/162/146
s 6
f 147/163/147 148/164/148 149/165/149
f 149/165/149 150/166/150 147/163/147
f 150/166/150 149/165/149 151/167/151
f 151/167/151 152/168/152 150/166/150
f 151/167/151 153/169/153 154/170/154
f 154/170/154 152/168/152 151/167/151
f 153/169/153 155/171/155 156/172/156
f 156/172/156 154/170/154 153/169/153
f 148/164/148 157/173/157 158/174/158
f 158/174/158 149/165/149 148/164/148
f 149/165/149 158/174/158 159/175/159
f 159/175/159 151/167/151 149/165/149
f 151/167/151 159/175/159 160/176/160
f 160/176/160 153/169/153 151/167/151
f 153/169/153 160/176/160 161/177/161
f 161/177/161 155/171/155 153/169/153
f 157/173/157 162/178/162 163/179/163
f 163/179/163 158/174/158 157/173/157
f 158/174/158 163/179/163 164/180/164
f 164/180/164 159/175/159 158/174/158
f 159/175/159 164/180/164 165/181/165
f 165/181/165 160/176/160 159/175/159
f 165/181/165 166/182/166 160/176/160
f 167/183/167 168/184/168 163/179/163
f 163/179/163 168/184/168 169/185/169
f 169/185/169 164/180/164 163/179/163
f 164/180/164 169/185/169 170/186/170
f 170/186/170 165/181/165 164/180/164
f 170/186/170 171/187/171 165/181/165
f 147/163/147 150/166/150 172/188/172
f 150/166/150 152/168/152 173/189/173
f 152/168/152 174/190/174 175/191/175
f 154/170/154 156/172/156 176/192/176
f 165/181/165 171/187/171 166/182/166
f 167/183/167 163/179/163 162/178/162
f 154/170/154 176/192/176 177/193/177
f 154/170/154 177/193/177 174/190/174
f 172/188/172 150/166/150 173/189/173
f 152/168/152 175/191/175 178/194/178
s 5
f 141/157/141 145/161/145 119/135/119
f 119/135/119 146/162/146 142/158/142
s 6
f 152/168/152 178/194/178 173/189/173
f 152/168/152 154/170/154 174/190/174
s 5
f 128/144/128 129/145/129 134/150/134
s 6
f 166/182/166 161/177/161 160/176/160
s 7
f 179/195/179 180/196/180 181/197/181
f 181/197/181 182/198/182 179/195/179
f 183/199/183 184/200/184 180/196/180
f 180/196/180 179/195/179 183/199/183
f 185/201/185 186/202/186 184/203/184
f 184/203/184 183/204/183 185/201/185
f 187/205/187 188/206/188 186/202/186
f 186/202/186 185/201/185 187/205/187
f 189/207/189 190/208/190 188/206/188
f 188/206/188 187/205/187 189/207/189
f 182/198/182 181/197/181 190/209/190
f 190/209/190 189/210/189 182/198/182
f 191/211/191 192/212/192 193/213/193
f 193/213/193 194/214/194 191/211/191
f 195/215/195 191/211/191 194/214/194
f 194/214/194 196/216/196 195/215/195
f 197/217/197 195/218/195 196/219/196
f 196/219/196 198/220/198 197/217/197
f 199/221/199 197/217/197 198/220/198
f 198/220/198 200/222/200 199/221/199
f 201/223/201 199/221/199 200/222/200
f 200/222/200 202/224/202 201/223/201
f 192/212/192 201/225/201 202/226/202
f 202/226/202 193/213/193 192/212/192
f 194/214/194 193/213/193 181/197/181
f 181/197/181 180/196/180 194/214/194
f 196/216/196 194/214/194 180/196/180
f 180/196/180 184/200/184 196/216/196
f 198/220/198 196/219/196 184/203/184
f 184/203/184 186/202/186 198/220/198
f 188/206/188 200/222/200 198/220/198
f 198/220/198 186/202/186 188/206/188
f 190/208/190 202/224/202 200/222/200
f 200/222/200 188/206/188 190/208/190
f 181/197/181 193/213/193 202/226/202
f 202/226/202 190/209/190 181/197/181
f 191/211/191 203/227/203 192/212/192
f 195/215/195 203/227/203 191/211/191
f 197/217/197 203/227/203 195/218/195
f 199/221/199 203/227/203 197/217/197
f 201/223/201 203/227/203 199/221/199
f 192/212/192 203/227/203 201/225/201
s 8
f 204/228/204 205/229/205 206/230/206
f 206/230/206 207/231/207 204/228/204
f 205/229/205 208/232/208 209/233/209
f 209/233/209 206/230/206 205/229/205
f 209/233/209 208/232/208 210/234/210
f 210/234/210 211/235/211 209/233/209
f 211/235/211 210/234/210 212/236/212
f 212/236/212 213/237/213 211/235/211
f 207/231/207 206/230/206 214/238/214
f 214/238/214 215/239/215 207/231/207
f 206/230/206 209/233/209 216/240/216
f 216/240/216 214/238/214 206/230/206
f 209/233/209 211/235/211 217/241/217
f 217/241/217 216/240/216 209/233/209
f 211/235/211 213/237/213 218/242/218
f 218/242/218 217/241/217 211/235/211
f 215/239/215 214/238/214 219/243/219
f 219/243/219 220/244/220 215/239/215
f 214/238/214 216/240/216 221/245/221
f 221/245/221 219/243/219 214/238/214
f 216/240/216 217/241/217 222/246/222
f 222/246/222 221/245/221 216/240/216
f 222/246/222 217/241/217 223/247/223
f 224/248/224 219/243/219 225/249/225
f 219/243/219 221/245/221 226/250/226
f 226/250/226 225/249/225 219/243/219
f 221/245/221 222/246/222 227/251/227
f 227/251/227 226/250/226 221/245/221
f 227/251/227 222/246/222 228/252/228
f 204/228/204 229/253/229 205/229/205
f 205/229/205 230/254/230 208/232/208
f 208/232/208 231/255/231 210/234/210
f 210/234/210 232/256/232 212/236/212
f 222/246/222 223/247/223 228/252/228
f 224/248/224 220/244/220 219/243/219
f 210/234/210 233/257/233 232/256/232
f 210/234/210 231/255/231 233/257/233
f 229/253/229 230/254/230 205/229/205
f 208/232/208 234/258/234 235/259/235
s 9
f 236/260/236 237/261/237 238/262/238
f 238/262/238 239/263/239 236/260/236
f 239/263/239 238/262/238 240/264/240
f 240/264/240 241/265/241 239/263/239
f 240/264/240 242/266/242 243/267/243
f 243/267/243 241/265/241 240/264/240
f 242/266/242 244/268/244 245/269/245
f 245/269/245 243/267/243 242/266/242
f 237/261/237 246/270/246 247/271/247
f 247/271/247 238/262/238 237/261/237
f 238/262/238 247/271/247 248/272/248
f 248/272/248 240/264/240 238/262/238
f 240/264/240 248/272/248 249/273/249
f 249/273/249 242/266/242 240/264/240
f 242/266/242 249/273/249 250/274/250
f 250/274/250 244/268/244 242/266/242
f 246/270/246 251/275/251 252/276/252
f 252/276/252 247/271/247 246/270/246
f 247/271/247 252/276/252 253/277/253
f 253/277/253 248/272/248 247/271/247
f 248/272/248 253/277/253 254/278/254
f 254/278/254 249/273/249 248/272/248
f 254/278/254 255/279/255 249/273/249
f 256/280/256 257/281/257 252/276/252
f 252/276/252 257/281/257 258/282/258
f 258/282/258 253/277/253 252/276/252
f 253/277/253 258/282/258 259/283/259
f 259/283/259 254/278/254 253/277/253
f 259/283/259 260/284/260 254/278/254
f 236/260/236 239/263/239 261/285/261
f 239/263/239 241/265/241 262/286/262
f 241/265/241 263/287/263 264/288/264
f 243/267/243 245/269/245 265/289/265
f 254/278/254 260/284/260 255/279/255
f 256/280/256 252/276/252 251/275/251
f 243/267/243 265/289/265 266/290/266
f 243/267/243 266/290/266 263/287/263
f 261/285/261 239/263/239 262/286/262
f 241/265/241 264/288/264 267/291/267
s 8
f 230/254/230 234/258/234 208/232/208
f 208/232/208 235/259/235 231/255/231
s 9
f 241/265/241 267/291/267 262/286/262
f 241/265/241 243/267/243 263/287/263
s 8
f 217/241/217 218/242/218 223/247/223
s 9
f 255/279/255 250/274/250 249/273/249
s 10
f 268/292/268 269/293/269 270/294/270
f 270/294/270 271/295/271 268/292/268
f 272/296/272 273/297/273 269/293/269
f 269/293/269 268/292/268 272/296/272
f 274/298/274 275/299/275 273/300/273
f 273/300/273 272/301/272 274/298/274
f 276/302/276 277/303/277 275/299/275
f 275/299/275 274/298/274 276/302/276
f 278/304/278 279/305/279 277/303/277
f 277/303/277 276/302/276 278/304/278
f 271/295/271 270/294/270 279/306/279
f 279/306/279 278/307/278 271/295/271
f 280/308/280 281/309/281 282/310/282
f 282/310/282 283/311/283 280/308/280
f 284/312/284 280/308/280 283/311/283
f 283/311/283 285/313/285 284/312/284
f 286/314/286 284/315/284 285/316/285
f 285/316/285 287/317/287 286/314/286
f 288/318/288 286/314/286 287/317/287
f 287/317/287 289/319/289 288/318/288
f 290/320/290 288/318/288 289/319/289
f 289/319/289 291/321/291 290/320/290
f 281/309/281 290/322/290 291/323/291
f 291/323/291 282/310/282 281/309/281
f 283/311/283 282/310/282 270/294/270
f 270/294/270 269/293/269 283/311/283
f 285/313/285 283/311/283 269/293/269
f 269/293/269 273/297/273 285/313/285
f 287/317/287 285/316/285 273/300/273
f 273/300/273 275/299/275 287/317/287
f 277/303/277 289/319/289 287/317/287
f 287/317/287 275/299/275 277/303/277
f 279/305/279 291/321/291 289/319/289
f 289/319/289 277/303/277 279/305/279
f 270/294/270 282/310/282 291/323/291
f 291/323/291 279/306/279 270/294/270
f 280/308/280 292/324/292 281/309/281
f 284/312/284 292/324/292 280/308/280
f 286/314/286 292/324/292 284/315/284
f 288/318/288 292/324/292 286/314/286
f 290/320/290 292/324/292 288/318/288
f 281/309/281 292/324/292 290/322/290
s 11
f 293/325/293 294/326/294 295/327/295
f 295/327/295 296/328/296 293/325/293
f 294/326/294 297/329/297 298/330/298
f 298/330/298 295/327/295 294/326/294
f 298/330/298 297/329/297 299/331/299
f 299/331/299 300/332/300 298/330/298
f 300/332/300 299/331/299 301/333/301
f 301/333/301 302/334/302 300/332/300
f 296/328/296 295/327/295 303/335/303
f 303/335/303 304/336/304 296/328/296
f 295/327/295 298/330/298 305/337/305
f 305/337/305 303/335/303 295/327/295
f 298/330/298 300/332/300 306/338/306
f 306/338/306 305/337/305 298/330/298
f 300/332/300 302/334/302 307/339/307
f 307/339/307 306/338/306 300/332/300
f 304/336/304 303/335/303 308/340/308
f 308/340/308 309/341/309 304/336/304
f 303/335/303 305/337/305 310/342/310
f 310/342/310 308/340/308 303/335/303
f 305/337/305 306/338/306 311/343/311
f 311/343/311 310/342/310 305/337/305
f 311/343/311 306/338/306 312/344/312
f 313/345/313 308/340/308 314/346/314
f 308/340/308 310/342/310 315/347/315
f 315/347/315 314/346/314 308/340/308
f 310/342/310 311/343/311 316/348/316
f 316/348/316 315/347/315 310/342/310
f 316/348/316 311/343/311 317/349/317
f 293/325/293 318/350/318 294/326/294
f 294/326/294 319/351/319 297/329/297
f 297/329/297 320/352/320 299/331/299
f 299/331/299 321/353/321 301/333/301
f 311/343/311 312/344/312 317/349/317
f 313/345/313 309/341/309 308/340/308
f 299/331/299 322/354/322 321/353/321
f 299/331/299 320/352/320 322/354/322
f 318/350/318 319/351/319 294/326/294
f 297/329/297 323/355/323 324/356/324
s 12
f 325/357/325 326/358/326 327/359/327
f 327/359/327 328/360/328 325/357/325
f 328/360/328 327/359/327 329/361/329
f 329/361/329 330/362/330 328/360/328
f 329/361/329 331/363/331 332/364/332
f 332/364/332 330/362/330 329/361/329
f 331/363/331 333/365/333 334/366/334
f 334/366/334 332/364/332 331/363/331
f 326/358/326 335/367/335 336/368/336
f 336/368/336 327/359/327 326/358/326
f 327/359/327 336/368/336 337/369/337
f 337/369/337 329/361/329 327/359/327
f 329/361/329 337/369/337 338/370/338
f 338/370/338 331/363/331 329/361/329
f 331/363/331 338/370/338 339/371/339
f 339/371/339 333/365/333 331/363/331
f 335/367/335 340/372/340 341/373/341
f 341/373/341 336/368/336 335/367/335
f 336/368/336 341/373/341 342/374/342
f 342/374/342 337/369/337 336/368/336
f 337/369/337 342/374/342 343/375/343
f 343/375/343 338/370/338 337/369/337
f 343/375/343 344/376/344 338/370/338
f 345/377/345 346/378/346 341/373/341
f 341/373/341 346/378/346 347/379/347
f 347/379/347 342/374/342 341/373/341
f 342/374/342 347/379/347 348/380/348
f 348/380/348 343/375/343 342/374/342
f 348/380/348 349/381/349 343/375/343
f 325/357/325 328/360/328 350/382/350
f 328/360/328 330/362/330 351/383/351
f 330/362/330 352/384/352 353/385/353
f 332/364/332 334/366/334 354/386/354
f 343/375/343 349/381/349 344/376/344
f 345/377/345 341/373/341 340/372/340
f 332/364/332 354/386/354 355/387/355
f 332/364/332 355/387/355 352/384/352
f 350/382/350 328/360/328 351/383/351
f 330/362/330 353/385/353 356/388/356
s 11
f 319/351/319 323/355/323 297/329/297
f 297/329/297 324/356/324 320/352/320
s 12
f 330/362/330 356/388/356 351/383/351
f 330/362/330 332/364/332 352/384/352
s 11
f 306/338/306 307/339/307 312/344/312
s 12
f 344/376/344 339/371/339 338/370/338
s 13
f 357/389/357 358/390/358 359/391/359
f 359/391/359 360/392/360 357/389/357
f 361/393/361 362/394/362 358/390/358
f 358/390/358 357/389/357 361/393/361
f 363/395/363 364/396/364 362/397/362
f 362/397/362 361/398/361 363/395/363
f 365/399/365 366/400/366 364/396/364
f 364/396/364 363/395/363 365/399/365
f 367/401/367 368/402/368 366/400/366
f 366/400/366 365/399/365 367/401/367
f 360/392/360 359/391/359 368/403/368
f 368/403/368 367/404/367 360/392/360
f 369/405/369 370/406/370 371/407/371
f 371/407/371 372/408/372 369/405/369
f 373/409/373 369/405/369 372/408/372
f 372/408/372 374/410/374 373/409/373
f 375/411/375 373/412/373 374/413/374
f 374/413/374 376/414/376 375/411/375
f 377/415/377 375/411/375 376/414/376
f 376/414/376 378/416/378 377/415/377
f 379/417/379 377/415/377 378/416/378
f 378/416/378 380/418/380 379/417/379
f 370/406/370 379/419/379 380/420/380
f 380/420/380 371/407/371 370/406/370
f 372/408/372 371/407/371 359/391/359
f 359/391/359 358/390/358 372/408/372
f 374/410/374 372/408/372 358/390/358
f 358/390/358 362/394/362 374/410/374
f 376/414/376 374/413/374 362/397/362
f 362/397/362 364/396/364 376/414/376
f 366/400/366 378/416/378 376/414/376
f 376/414/376 364/396/364 366/400/366
f 368/402/368 380/418/380 378/416/378
f 378/416/378 366/400/366 368/402/368
f 359/391/359 371/407/371 380/420/380
f 380/420/380 368/403/368 359/391/359
f 369/405/369 381/421/381 370/406/370
f 373/409/373 381/421/381 369/405/369
f 375/411/375 381/421/381 373/412/373
f 377/415/377 381/421/381 375/411/375
f 379/417/379 381/421/381 377/415/377
f 370/406/370 381/421/381 379/419/379
s 14
f 382/422/382 383/423/383 384/424/384
f 384/424/384 385/425/385 382/422/382
f 383/423/383 386/426/386 387/427/387
f 387/427/387 384/424/384 383/423/383
f 387/427/387 386/426/386 388/428/388
f 388/428/388 389/429/389 387/427/387
f 389/429/389 388/428/388 390/430/390
f 390/430/390 391/431/391 389/429/389
f 385/425/385 384/424/384 392/432/392
f 392/432/392 393/433/393 385/425/385
f 384/424/384 387/427/387 394/434/394
f 394/434/394 392/432/392 384/424/384
f 387/427/387 389/429/389 395/435/395
f 395/435/395 394/434/394 387/427/387
f 389/429/389 391/431/391 396/436/396
f 396/436/396 395/435/395 389/429/389
f 393/433/393 392/432/392 397/437/397
f 397/437/397 398/438/398 393/433/393
f 392/432/392 394/434/394 399/439/399
f 399/439/399 397/437/397 392/432/392
f 394/434/394 395/435/395 400/440/400
f 400/440/400 399/439/399 394/434/394
f 400/440/400 395/435/395 401/441/401
f 402/442/402 397/437/397 403/443/403
f 397/437/397 399/439/399 404/444/404
f 404/444/404 403/443/403 397/437/397
f 399/439/399 400/440/400 405/445/405
f 405/445/405 404/444/404 399/439/399
f 405/445/405 400/440/400 406/446/406
f 382/422/382 407/447/407 383/423/383
f 383/423/383 408/448/408 386/426/386
f 386/426/386 409/449/409 388/428/388
f 388/428/388 410/450/410 390/430/390
f 400/440/400 401/441/401 406/446/406
f 402/442/402 398/438/398 397/437/397
f 388/428/388 411/451/411 410/450/410
f 388/428/388 409/449/409 411/451/411
f 407/447/407 408/448/408 383/423/383
f 386/426/386 412/452/412 413/453/413
s 15
f 414/454/414 415/455/415 416/456/416
f 416/456/416 417/457/417 414/454/414
f 417/457/417 416/456/416 418/458/418
f 418/458/418 419/459/419 417/457/417
f 418/458/418 420/460/420 421/461/421
f 421/461/421 419/459/419 418/458/418
f 420/460/420 422/462/422 423/463/423
f 423/463/423 421/461/421 420/460/420
f 415/455/415 424/464/424 425/465/425
f 425/465/425 416/456/416 415/455/415
f 416/456/416 425/465/425 426/466/426
f 426/466/426 418/458/418 416/456/416
f 418/458/418 426/466/426 427/467/427
f 427/467/427 420/460/420 418/458/418
f 420/460/420 427/467/427 428/468/428
f 428/468/428 422/462/422 420/460/420
f 424/464/424 429/469/429 430/470/430
f 430/470/430 425/465/425 424/464/424
f 425/465/425 430/470/430 431/471/431
f 431/471/431 426/466/426 425/465/425
f 426/466/426 431/471/431 432/472/432
f 432/472/432 427/467/427 426/466/426
f 432/472/432 433/473/433 427/467/427
f 434/474/434 435/475/435 430/470/430
f 430/470/430 435/475/435 436/476/436
f 436/476/436 431/471/431 430/470/430
f 431/471/431 436/476/436 437/477/437
f 437/477/437 432/472/432 431/471/431
f 437/477/437 438/478/438 432/472/432
f 414/454/414 417/457/417 439/479/439
f 417/457/417 419/459/419 440/480/440
f 419/459/419 441/481/441 442/482/442
f 421/461/421 423/463/423 443/483/443
f 432/472/432 438/478/438 433/473/433
f 434/474/434 430/470/430 429/469/429
f 421/461/421 443/483/443 444/484/444
f 421/461/421 444/484/444 441/481/441
f 439/479/439 417/457/417 440/480/440
f 419/459/419 442/482/442 445/485/445
s 14
f 408/448/408 412/452/412 386/426/386
f 386/426/386 413/453/413 409/449/409
s 15
f 419/459/419 445/485/445 440/480/440
f 419/459/419 421/461/421 441/481/441
s 14
f 395/435/395 396/436/396 401/441/401
s 15
f 433/473/433 428/468/428 427/467/427
s 16
f 446/486/446 447/487/447 448/488/448
f 448/488/448 449/489/449 446/486/446
f 450/490/450 451/491/451 447/487/447
f 447/487/447 446/486/446 450/490/450
f 452/492/452 453/493/453 451/494/451
f 451/494/451 450/495/450 452/492/452
f 454/496/454 455/497/455 453/493/453
f 453/493/453 452/492/452 454/496/454
f 456/498/456 457/499/457 455/497/455
f 455/497/455 454/496/454 456/498/456
f 449/489/449 448/488/448 457/500/457
f 457/500/457 456/501/456 449/489/449
f 458/502/458 459/503/459 460/504/460
f 460/504/460 461/505/461 458/502/458
f 462/506/462 458/502/458 461/505/461
f 461/505/461 463/507/463 462/506/462
f 464/508/464 462/509/462 463/510/463
f 463/510/463 465/511/465 464/508/464
f 466/512/466 464/508/464 465/511/465
f 465/511/465 467/513/467 466/512/466
f 468/514/468 466/512/466 467/513/467
f 467/513/467 469/515/469 468/514/468
f 459/503/459 468/516/468 469/517/469
f 469/517/469 460/504/460 459/503/459
f 461/505/461 460/504/460 448/488/448
f 448/488/448 447/487/447 461/505/461
f 463/507/463 461/505/461 447/487/447
f 447/487/447 451/491/451 463/507/463
f 465/511/465 463/510/463 451/494/451
f 451/494/451 453/493/453 465/511/465
f 455/497/455 467/513/467 465/511/465
f 465/511/465 453/493/453 455/497/455
f 457/499/457 469/515/469 467/513/467
f 467/513/467 455/497/455 457/499/457
f 448/488/448 460/504/460 469/517/469
f 469/517/469 457/500/457 448/488/448
f 458/502/458 470/518/470 459/503/459
f 462/506/462 470/518/470 458/502/458
f 464/508/464 470/518/470 462/509/462
f 466/512/466 470/518/470 464/508/464
f 468/514/468 470/518/470 466/512/466
f 459/503/459 470/518/470 468/516/468
s 17
f 471/519/471 472/520/472 473/521/473
f 473/521/473 474/522/474 471/519/471
f 472/520/472 475/523/475 476/524/476
f 476/524/476 473/521/473 472/520/472
f 476/524/476 475/523/475 477/525/477
f 477/525/477 478/526/478 476/524/476
f 478/526/478 477/525/477 479/527/479
f 479/527/479 480/528/480 478/526/478
f 474/522/474 473/521/473 481/529/481
f 481/529/481 482/530/482 474/522/474
f 473/521/473 476/524/476 483/531/483
f 483/531/483 481/529/481 473/521/473
f 476/524/476 478/526/478 484/532/484
f 484/532/484 483/531/483 476/524/476
f 478/526/478 480/528/480 485/533/485
f 485/533/485 484/532/484 478/526/478
f 482/530/482 481/529/481 486/534/486
f 486/534/486 487/535/487 482/530/482
f 481/529/481 483/531/483 488/536/488
f 488/536/488 486/534/486 481/529/481
f 483/531/483 484/532/484 489/537/489
f 489/537/489 488/536/488 483/531/483
f 489/537/489 484/532/484 490/538/490
f 491/539/491 486/534/486 492/540/492
f 486/534/486 488/536/488 493/541/493
f 493/541/493 492/540/492 486/534/486
f 488/536/488 489/537/489 494/542/494
f 494/542/494 493/541/493 488/536/488
f 494/542/494 489/537/489 495/543/495
f 471/519/471 496/544/496 472/520/472
f 472/520/472 497/545/497 475/523/475
f 475/523/475 498/546/498 477/525/477
f 477/525/477 499/547/499 479/527/479
f 489/537/489 490/538/490 495/543/495
f 491/539/491 487/535/487 486/534/486
f 477/525/477 500/548/500 499/547/499
f 477/525/477 498/546/498 500/548/500
f 496/544/496 497/545/497 472/520/472
f 475/523/475 501/549/501 502/550/502
s 18
f 503/551/503 504/552/504 505/553/505
f 505/553/505 506/554/506 503/551/503
f 506/554/506 505/553/505 507/555/507
f 507/555/507 508/556/508 506/554/506
f 507/555/507 509/557/509 510/558/510
f 510/558/510 508/556/508 507/555/507
f 509/557/509 511/559/511 512/560/512
f 512/560/512 510/558/510 509/557/509
f 504/552/504 513/561/513 514/562/514
f 514/562/514 505/553/505 504/552/504
f 505/553/505 514/562/514 515/563/515
f 515/563/515 507/555/507 505/553/505
f 507/555/507 515/563/515 516/564/516
f 516/564/516 509/557/509 507/555/507
f 509/557/509 516/564/516 517/565/517
f 517/565/517 511/559/511 509/557/509
f 513/561/513 518/566/518 519/567/519
f 519/567/519 514/562/514 513/561/513
f 514/562/514 519/567/519 520/568/520
f 520/568/520 515/563/515 514/562/514
f 515/563/515 520/568/520 521/569/521
f 521/569/521 516/564/516 515/563/515
f 521/569/521 522/570/522 516/564/516
f 523/571/523 524/572/524 519/567/519
f 519/567/519 524/572/524 525/573/525
f 525/573/525 520/568/520 519/567/519
f 520/568/520 525/573/525 526/574/526
f 526/574/526 521/569/521 520/568/520
f 526/574/526 527/575/527 521/569/521
f 503/551/503 506/554/506 528/576/528
f 506/554/506 508/556/508 529/577/529
f 508/556/508 530/578/530 531/579/531
f 510/558/510 512/560/512 532/580/532
f 521/569/521 527/575/527 522/570/522
f 523/571/523 519/567/519 518/566/518
f 510/558/510 532/580/532 533/581/533
f 510/558/510 533/581/533 530/578/530
f 528/576/528 506/554/506 529/577/529
f 508/556/508 531/579/531 534/582/534
s 17
f 497/545/497 501/549/501 475/523/475
f 475/523/475 502/550/502 498/546/498
s 18
f 508/556/508 534/582/534 529/577/529
f 508/556/508 510/558/510 530/578/530
s 17
f 484/532/484 485/533/485 490/538/490
s 18
f 522/570/522 517/565/517 516/564/516
s 19
f 535/583/535 536/584/536 537/585/537
f 537/585/537 538/586/538 535/583/535
f 539/587/539 540/588/540 536/584/536
f 536/584/536 535/583/535 539/587/539
f 541/589/541 542/590/542 540/591/540
f 540/591/540 539/592/539 541/589/541
f 543/593/543 544/594/544 542/590/542
f 542/590/542 541/589/541 543/593/543
f 545/595/545 546/596/546 544/594/544
f 544/594/544 543/593/543 545/595/545
f 538/586/538 537/585/537 546/597/546
f 546/597/546 545/598/545 538/586/538
f 547/599/547 548/600/548 549/601/549
f 549/601/549 550/602/550 547/599/547
f 551/603/551 547/599/547 550/602/550
f 550/602/550 552/604/552 551/603/551
f 553/605/553 551/606/551 552/607/552
f 552/607/552 554/608/554 553/605/553
f 555/609/555 553/605/553 554/608/554
f 554/608/554 556/610/556 555/609/555
f 557/611/557 555/609/555 556/610/556
f 556/610/556 558/612/558 557/611/557
f 548/600/548 557/613/557 558/614/558
f 558/614/558 549/601/549 548/600/548
f 550/602/550 549/601/549 537/585/537
f 537/585/537 536/584/536 550/602/550
f 552/604/552 550/602/550 536/584/536
f 536/584/536 540/588/540 552/604/552
f 554/608/554 552/607/552 540/591/540
f 540/591/540 542/590/542 554/608/554
f 544/594/544 556/610/556 554/608/554
f 554/608/554 542/590/542 544/594/544
f 546/596/546 558/612/558 556/610/556
f 556/610/556 544/594/544 546/596/546
f 537/585/537 549/601/549 558/614/558
f 558/614/558 546/597/546 537/585/537
f 547/599/547 559/615/559 548/600/548
f 551/603/551 559/615/559 547/599/547
f 553/605/553 559/615/559 551/606/551
f 555/609/555 559/615/559 553/605/553
f 557/611/557 559/615/559 555/609/555
f 548/600/548 559/615/559 557/613/557
s 20
f 560/616/560 561/617/561 562/618/562
f 562/618/562 563/619/563 560/616/560
f 561/617/561 564/620/564 565/621/565
f 565/621/565 562/618/562 561/617/561
f 565/621/565 564/620/564 566/622/566
f 566/622/566 567/623/567 565/621/565
f 567/623/567 566/622/566 568/624/568
f 568/624/568 569/625/569 567/623/567
f 563/619/563 562/618/562 570/626/570
f 570/626/570 571/627/571 563/619/563
f 562/618/562 565/621/565 572/628/572
f 572/628/572 570/626/570 562/618/562
f 565/621/565 567/623/567 573/629/573
f 573/629/573 572/628/572 565/621/565
f 567/623/567 569/625/569 574/630/574
f 574/630/574 573/629/573 567/623/567
f 571/627/571 570/626/570 575/631/575
f 575/631/575 576/632/576 571/627/571
f 570/626/570 572/628/572 577/633/577
f 577/633/577 575/631/575 570/626/570
f 572/628/572 573/629/573 578/634/578
f 578/634/578 577/633/577 572/628/572
f 578/634/578 573/629/573 579/635/579
f 580/636/580 575/631/575 581/637/581
f 575/631/575 577/633/577 582/638/582
f 582/638/582 581/637/581 575/631/575
f 577/633/577 578/634/578 583/639/583
f 583/639/583 582/638/582 577/633/577
f 583/639/583 578/634/578 584/640/584
f 560/616/560 585/641/585 561/617/561
f 561/617/561 586/642/586 564/620/564
f 564/620/564 587/643/587 566/622/566
f 566/622/566 588/644/588 568/624/568
f 578/634/578 579/635/579 584/640/584
f 580/636/580 576/632/576 575/631/575
f 566/622/566 589/645/589 588/644/588
f 566/622/566 587/643/587 589/645/589
f 585/641/585 586/642/586 561/617/561
f 564/620/564 590/646/590 591/647/591
s 21
f 592/648/592 593/649/593 594/650/594
f 594/650/594 595/651/595 592/648/592
f 595/651/595 594/650/594 596/652/596
f 596/652/596 597/653/597 595/651/595
f 596/652/596 598/654/598 599/655/599
f 599/655/599 597/653/597 596/652/596
f 598/654/598 600/656/600 601/657/601
f 601/657/601 599/655/599 598/654/598
f 593/649/593 602/658/602 603/659/603
f 603/659/603 594/650/594 593/649/593
f 594/650/594 603/659/603 604/660/604
f 604/660/604 596/652/596 594/650/594
f 596/652/596 604/660/604 605/661/605
f 605/661/605 598/654/598 596/652/596
f 598/654/598 605/661/605 606/662/606
f 606/662/606 600/656/600 598/654/598
f 602/658/602 607/663/607 608/664/608
f 608/664/608 603/659/603 602/658/602
f 603/659/603 608/664/608 609/665/609
f 609/665/609 604/660/604 603/659/603
f 604/660/604 609/665/609 610/666/610
f 610/666/610 605/661/605 604/660/604
f 610/666/610 611/667/611 605/661/605
f 612/668/612 613/669/613 608/664/608
f 608/664/608 613/669/613 614/670/614
f 614/670/614 609/665/609 608/664/608
f 609/665/609 614/670/614 615/671/615
f 615/671/615 610/666/610 609/665/609
f 615/671/615 616/672/616 610/666/610
f 592/648/592 595/651/595 617/673/617
f 595/651/595 597/653/597 618/674/618
f 597/653/597 619/675/619 620/676/620
f 599/655/599 601/657/601 621/677/621
f 610/666/610 616/672/616 611/667/611
f 612/668/612 608/664/608 607/663/607
f 599/655/599 621/677/621 622/678/622
f 599/655/599 622/678/622 619/675/619
f 617/673/617 595/651/595 618/674/618
f 597/653/597 620/676/620 623/679/623
s 20
f 586/642/586 590/646/590 564/620/564
f 564/620/564 591/647/591 587/643/587
s 21
f 597/653/597 623/679/623 618/674/618
f 597/653/597 599/655/599 619/675/619
s 20
f 573/629/573 574/630/574 579/635/579
s 21
f 611/667/611 606/662/606 605/661/605
s 22
f 624/680/624 625/681/625 626/682/626
f 626/682/626 627/683/627 624/680/624
f 628/684/628 629/685/629 625/681/625
f 625/681/625 624/680/624 628/684/628
f 630/686/630 631/687/631 629/688/629
f 629/688/629 628/689/628 630/686/630
f 632/690/632 633/691/633 631/687/631
f 631/687/631 630/686/630 632/690/632
f 634/692/634 635/693/635 633/691/633
f 633/691/633 632/690/632 634/692/634
f 627/683/627 626/682/626 635/694/635
f 635/694/635 634/695/634 627/683/627
f 636/696/636 637/697/637 638/698/638
f 638/698/638 639/699/639 636/696/636
f 640/700/640 636/696/636 639/699/639
f 639/699/639 641/701/641 640/700/640
f 642/702/642 640/703/640 641/704/641
f 641/704/641 643/705/643 642/702/642
f 644/706/644 642/702/642 643/705/643
f 643/705/643 645/707/645 644/706/644
f 646/708/646 644/706/644 645/707/645
f 645/707/645 647/709/647 646/708/646
f 637/697/637 646/710/646 647/711/647
f 647/711/647 638/698/638 637/697/637
f 639/699/639 638/698/638 626/682/626
f 626/682/626 625/681/625 639/699/639
f 641/701/641 639/699/639 625/681/625
f 625/681/625 629/685/629 641/701/641
f 643/705/643 641/704/641 629/688/629
f 629/688/629 631/687/631 643/705/643
f 633/691/633 645/707/645 643/705/643
f 643/705/643 631/687/631 633/691/633
f 635/693/635 647/709/647 645/707/645
f 645/707/645 633/691/633 635/693/635
f 626/682/626 638/698/638 647/711/647
f 647/711/647 635/694/635 626/682/626
f 636/696/636 648/712/648 637/697/637
f 640/700/640 648/712/648 636/696/636
f 642/702/642 648/712/648 640/703/640
f 644/706/644 648/712/648 642/702/642
f 646/708/646 648/712/648 644/706/644
f 637/697/637 648/712/648 646/710/646
s 23
f 649/713/649 650/714/650 651/715/651
f 651/715/651 652/716/652 649/713/649
f 650/714/650 653/717/653 654/718/654
f 654/718/654 651/715/651 650/714/650
f 654/718/654 653/717/653 655/719/655
f 655/719/655 656/720/656 654/718/654
f 656/720/656 655/719/655 657/721/657
f 657/721/657 658/722/658 656/720/656
f 652/716/652 651/715/651 659/723/659
f 659/723/659 660/724/660 652/716/652
f 651/715/651 654/718/654 661/725/661
f 661/725/661 659/723/659 651/715/651
f 654/718/654 656/720/656 662/726/662
f 662/726/662 661/725/661 654/718/654
f 656/720/656 658/722/658 663/727/663
f 663/727/663 662/726/662 656/720/656
f 660/724/660 659/723/659 664/728/664
f 664/728/664 665/729/665 660/724/660
f 659/723/659 661/725/661 666/730/666
f 666/730/666 664/728/664 659/723/659
f 661/725/661 662/726/662 667/731/667
f 667/731/667 666/730/666 661/725/661
f 667/731/667 662/726/662 668/732/668
f 669/733/669 664/728/664 670/734/670
f 664/728/664 666/730/666 671/735/671
f 671/735/671 670/734/670 664/728/664
f 666/730/666 667/731/667 672/736/672
f 672/736/672 671/735/671 666/730/666
f 672/736/672 667/731/667 673/737/673
f 649/713/649 674/738/674 650/714/650
f 650/714/650 675/739/675 653/717/653
f 653/717/653 676/740/676 655/719/655
f 655/719/655 677/741/677 657/721/657
f 667/731/667 668/732/668 673/737/673
f 669/733/669 665/729/665 664/728/664
f 655/719/655 678/742/678 677/741/677
f 655/719/655 676/740/676 678/742/678
f 674/738/674 675/739/675 650/714/650
f 653/717/653 679/743/679 680/744/680
s 24
f 681/745/681 682/746/682 683/747/683
f 683/747/683 684/748/684 681/745/681
f 684/748/684 683/747/683 685/749/685
f 685/749/685 686/750/686 684/748/684
f 685/749/685 687/751/687 688/752/688
f 688/752/688 686/750/686 685/749/685
f 687/751/687 689/753/689 690/754/690
f 690/754/690 688/752/688 687/751/687
f 682/746/682 691/755/691 692/756/692
f 692/756/692 683/747/683 682/746/682
f 683/747/683 692/756/692 693/757/693
f 693/757/693 685/749/685 683/747/683
f 685/749/685 693/757/693 694/758/694
f 694/758/694 687/751/687 685/749/685
f 687/751/687 694/758/694 695/759/695
f 695/759/695 689/753/689 687/751/687
f 691/755/691 696/760/696 697/761/697
f 697/761/697 692/756/692 691/755/691
f 692/756/692 697/761/697 698/762/698
f 698/762/698 693/757/693 692/756/692
f 693/757/693 698/762/698 699/763/699
f 699/763/699 694/758/694 693/757/693
f 699/763/699 700/764/700 694/758/694
f 701/765/701 702/766/702 697/761/697
f 697/761/697 702/766/702 703/767/703
f 703/767/703 698/762/698 697/761/697
f 698/762/698 703/767/703 704/768/704
f 704/768/704 699/763/699 698/762/698
f 704/768/704 705/769/705 699/763/699
f 681/745/681 684/748/684 706/770/706
f 684/748/684 686/750/686 707/771/707
f 686/750/686 708/772/708 709/773/709
f 688/752/688 690/754/690 710/774/710
f 699/763/699 705/769/705 700/764/700
f 701/765/701 697/761/697 696/760/696
f 688/752/688 710/774/710 711/775/711
f 688/752/688 711/775/711 708/772/708
f 706/770/706 684/748/684 707/771/707
f 686/750/686 709/773/709 712/776/712
s 23
f 675/739/675 679/743/679 653/717/653
f 653/717/653 680/744/680 676/740/676
s 24
f 686/750/686 712/776/712 707/771/707
f 686/750/686 688/752/688 708/772/708
s 23
f 662/726/662 663/727/663 668/732/668
s 24
f 700/764/700 695/759/695 694/758/694
