# Blender v3.3.0 OBJ File: ''
# www.blender.org
o DargaFernStage01.005
v -0.011703 -0.020291 0.010507
v -0.011634 0.063324 0.011302
v -0.003192 0.063324 0.011302
v -0.004231 -0.020291 0.010507
v -0.014012 -0.020291 0.013685
v -0.014243 0.063324 0.014893
v -0.014012 -0.020291 0.017614
v -0.014243 0.063324 0.019331
v -0.007967 -0.020291 0.022006
v -0.007413 0.063324 0.024294
v -0.001922 -0.020291 0.017614
v -0.000583 0.063324 0.019331
v -0.036609 0.234397 0.058717
v -0.028353 0.236030 0.058619
v -0.013824 0.135985 0.026507
v -0.022060 0.134274 0.026064
v -0.038996 0.233237 0.062273
v -0.024417 0.132184 0.029113
v -0.038793 0.232428 0.066631
v -0.024184 0.130254 0.033052
v -0.031886 0.232845 0.071424
v -0.017260 0.129481 0.037815
v -0.025434 0.235071 0.066472
v -0.010858 0.133023 0.033769
v -0.033618 0.240635 0.066541
v 0.021565 0.247080 0.101033
v -0.006739 0.253926 0.070579
v -0.028238 0.337118 0.113982
v 0.000487 0.335108 0.147283
v -0.037953 0.251168 0.069489
v -0.061681 0.333806 0.112587
v -0.064051 0.248485 0.043828
v -0.093260 0.334396 0.086946
v -0.097739 0.242354 0.042272
v -0.127502 0.330708 0.087603
v -0.063345 0.417660 0.175412
v -0.035954 0.404545 0.198388
v -0.091611 0.409393 0.172632
v -0.118552 0.418047 0.152993
v -0.148714 0.410361 0.148527
v -0.096363 0.475670 0.240463
v -0.078740 0.463857 0.251443
v -0.115453 0.465626 0.236036
v -0.131389 0.477261 0.225037
v -0.148302 0.478163 0.217620
v -0.114433 0.504160 0.295585
v -0.139955 0.505199 0.308629
v -0.148741 0.505520 0.309767
v -0.150091 0.505388 0.302742
v -0.153234 0.506773 0.278256
v 0.016952 0.203367 0.079871
v 0.000601 0.204601 0.057827
v -0.037031 0.203628 0.044695
v -0.073257 0.203724 0.029878
v -0.049841 0.201301 0.032936
v -0.026230 0.203938 0.058914
v -0.032826 0.203347 0.055967
v 0.021001 0.246767 0.101719
v -0.000079 0.334944 0.148013
v -0.028625 0.336958 0.114829
v -0.007147 0.253619 0.071369
v -0.062040 0.333646 0.113436
v -0.038316 0.250864 0.070303
v -0.093506 0.334243 0.087849
v -0.064302 0.248191 0.044698
v -0.127508 0.330573 0.088528
v -0.097755 0.242102 0.043179
v -0.036430 0.403882 0.198877
v -0.063646 0.416959 0.175975
v -0.091860 0.408698 0.173213
v -0.118672 0.417382 0.153639
v -0.148621 0.409733 0.149221
v -0.079007 0.462952 0.251434
v -0.096539 0.474755 0.240472
v -0.115536 0.464705 0.236133
v -0.131477 0.476322 0.225201
v -0.148401 0.477224 0.217823
v -0.114571 0.503234 0.295561
v -0.139986 0.504259 0.308652
v -0.148772 0.504579 0.309790
v -0.150122 0.504448 0.302765
v -0.153286 0.505843 0.278331
v 0.016398 0.202978 0.080526
v 0.000159 0.204220 0.058553
v -0.037387 0.203252 0.045482
v -0.033182 0.202971 0.056753
v -0.073421 0.203378 0.030739
v -0.050175 0.200923 0.033745
v -0.026597 0.203558 0.059701
v -0.018306 -0.019689 -0.010456
v -0.024082 0.031000 -0.010058
v -0.020568 0.031619 -0.002406
v -0.015196 -0.019141 -0.003684
v -0.022104 -0.020359 -0.011205
v -0.028373 0.030243 -0.010905
v -0.025610 -0.020977 -0.009545
v -0.032335 0.029545 -0.009029
v -0.027014 -0.021225 -0.002210
v -0.033921 0.029265 -0.000741
v -0.020578 -0.020090 0.001412
v -0.026649 0.030547 0.003352
v -0.057171 0.147836 -0.012654
v -0.053931 0.150066 -0.005213
v -0.032788 0.091285 -0.005616
v -0.036117 0.090134 -0.013268
v -0.061137 0.145959 -0.013315
v -0.040183 0.088728 -0.014115
v -0.064802 0.144491 -0.011289
v -0.043936 0.087430 -0.012239
v -0.066278 0.144654 -0.003003
v -0.045439 0.086911 -0.003951
v -0.059559 0.148100 0.000752
v -0.038549 0.089293 0.000142
v -0.063993 0.152968 -0.006636
v -0.072931 0.157936 0.057953
v -0.058718 0.167394 0.019431
v -0.120851 0.240913 0.018289
v -0.138269 0.235801 0.058396
v -0.070258 0.162558 -0.009320
v -0.132950 0.235417 -0.012610
v -0.057749 0.162040 -0.043817
v -0.123310 0.237716 -0.052067
v -0.069317 0.153774 -0.075006
v -0.137507 0.231468 -0.082823
v -0.204277 0.307989 0.012432
v -0.211107 0.293467 0.046968
v -0.212124 0.298210 -0.014360
v -0.207312 0.307847 -0.047077
v -0.214543 0.298767 -0.076300
v -0.286153 0.352456 0.009999
v -0.286567 0.340389 0.030612
v -0.288403 0.341861 -0.009173
v -0.287239 0.353881 -0.028264
v -0.287814 0.354696 -0.046727
v -0.347819 0.370513 0.016918
v -0.370264 0.367611 -0.000700
v -0.374992 0.367102 -0.008182
v -0.369261 0.367979 -0.012374
v -0.348955 0.372965 -0.025572
v -0.048372 0.117879 0.044829
v -0.035717 0.121364 0.020694
v -0.039489 0.119711 -0.018962
v -0.041358 0.119479 -0.058055
v -0.033920 0.118330 -0.035542
v -0.047738 0.118570 -0.003164
v -0.047750 0.117969 -0.010388
v -0.073723 0.157478 0.057732
v -0.139128 0.235483 0.058191
v -0.121740 0.240594 0.018296
v -0.059539 0.166937 0.019395
v -0.133829 0.235100 -0.012577
v -0.071082 0.162104 -0.009304
v -0.124191 0.237405 -0.051909
v -0.058579 0.161594 -0.043677
v -0.138311 0.231188 -0.082438
v -0.070090 0.153382 -0.074638
v -0.211626 0.292702 0.046743
v -0.204783 0.307188 0.012398
v -0.212626 0.297417 -0.014340
v -0.207822 0.307081 -0.046913
v -0.215015 0.298046 -0.075923
v -0.286513 0.339479 0.030366
v -0.286075 0.351541 0.009844
v -0.288364 0.340933 -0.009207
v -0.287259 0.352924 -0.028275
v -0.287873 0.353731 -0.046731
v -0.347695 0.369594 0.016783
v -0.370135 0.366678 -0.000718
v -0.374863 0.366170 -0.008200
v -0.369131 0.367047 -0.012393
v -0.348883 0.372034 -0.025587
v -0.049119 0.117352 0.044603
v -0.036482 0.120842 0.020600
v -0.040274 0.119190 -0.018952
v -0.048535 0.117448 -0.010378
v -0.042135 0.118990 -0.057841
v -0.034716 0.117806 -0.035503
v -0.048527 0.118045 -0.003164
v 0.008302 -0.019689 -0.016010
v 0.012105 0.031000 -0.020376
v 0.004210 0.031619 -0.023301
v 0.001314 -0.019141 -0.018599
v 0.011517 -0.020359 -0.018165
v 0.015738 0.030243 -0.022811
v 0.012823 -0.020977 -0.021818
v 0.017213 0.029545 -0.026938
v 0.008629 -0.021225 -0.027998
v 0.012474 0.029265 -0.033920
v 0.001517 -0.020090 -0.026008
v 0.004438 0.030547 -0.031673
v 0.037338 0.147836 -0.041937
v 0.029785 0.150066 -0.044907
v 0.015120 0.091285 -0.029672
v 0.022885 0.090134 -0.026615
v 0.040610 0.145959 -0.044274
v 0.026359 0.088728 -0.028891
v 0.041768 0.144491 -0.048298
v 0.027686 0.087430 -0.032872
v 0.036953 0.144654 -0.055200
v 0.022889 0.086911 -0.039795
v 0.029547 0.148100 -0.053104
v 0.015123 0.089293 -0.037817
v 0.037907 0.152968 -0.051015
v -0.001445 0.157937 -0.103007
v 0.015744 0.167394 -0.065718
v 0.060486 0.240913 -0.108845
v 0.044443 0.235801 -0.149522
v 0.044234 0.162558 -0.053548
v 0.090891 0.235417 -0.095551
v 0.059783 0.162040 -0.020310
v 0.111975 0.237716 -0.060835
v 0.090016 0.153774 -0.006436
v 0.143761 0.231468 -0.049126
v 0.123619 0.307989 -0.163695
v 0.104028 0.293467 -0.192945
v 0.148113 0.298210 -0.150299
v 0.167844 0.307847 -0.123762
v 0.193622 0.298767 -0.108211
v 0.183234 0.352456 -0.219869
v 0.168952 0.340389 -0.234737
v 0.198382 0.341861 -0.207903
v 0.211059 0.353881 -0.193581
v 0.224521 0.354696 -0.180933
v 0.221947 0.370513 -0.268366
v 0.250275 0.367611 -0.271778
v 0.258909 0.367102 -0.269831
v 0.257821 0.367979 -0.262814
v 0.252795 0.372965 -0.239124
v -0.009530 0.117879 -0.076361
v -0.001413 0.121364 -0.050347
v 0.029296 0.119711 -0.024973
v 0.058260 0.119479 0.001348
v 0.037082 0.118330 -0.009312
v 0.023958 0.118571 -0.041977
v 0.029074 0.117969 -0.036878
v -0.000728 0.157478 -0.103411
v 0.045195 0.235483 -0.149984
v 0.061110 0.240595 -0.109479
v 0.016351 0.166937 -0.066273
v 0.091489 0.235100 -0.096196
v 0.044806 0.162104 -0.054142
v 0.112486 0.237405 -0.061569
v 0.060270 0.161594 -0.020996
v 0.144057 0.231188 -0.049967
v 0.090302 0.153382 -0.007243
v 0.104554 0.292702 -0.193153
v 0.124002 0.307188 -0.164029
v 0.148454 0.297417 -0.150668
v 0.168089 0.307081 -0.124238
v 0.193689 0.298046 -0.108812
v 0.169088 0.339479 -0.234526
v 0.183289 0.351541 -0.219705
v 0.198379 0.340933 -0.207852
v 0.211080 0.352924 -0.193588
v 0.224565 0.353731 -0.180972
v 0.221954 0.369594 -0.268182
v 0.250197 0.366678 -0.271674
v 0.258831 0.366170 -0.269727
v 0.257742 0.367047 -0.262710
v 0.252754 0.372034 -0.239062
v -0.008843 0.117352 -0.076730
v -0.000805 0.120842 -0.050822
v 0.029843 0.119190 -0.025535
v 0.029622 0.117448 -0.037440
v 0.058658 0.118990 0.000647
v 0.037616 0.117806 -0.009902
v 0.024516 0.118045 -0.042535
v 0.012435 -0.019689 0.013707
v 0.016074 0.031000 0.018210
v 0.020327 0.031619 0.010943
v 0.016199 -0.019141 0.007275
v 0.013999 -0.020359 0.017248
v 0.017842 0.030243 0.022211
v 0.017370 -0.020977 0.019167
v 0.021651 0.029545 0.024380
v 0.024184 -0.021225 0.016110
v 0.029349 0.029265 0.020926
v 0.023460 -0.020090 0.008761
v 0.028531 0.030547 0.012621
v 0.032926 0.147836 0.046804
v 0.037163 0.150066 0.039881
v 0.024706 0.091285 0.022793
v 0.020347 0.090134 0.029910
v 0.034660 0.145959 0.050432
v 0.021986 0.088728 0.033726
v 0.038421 0.144491 0.052271
v 0.025675 0.087430 0.035725
v 0.046055 0.144654 0.048728
v 0.033326 0.086911 0.032202
v 0.045277 0.148100 0.041070
v 0.032727 0.089293 0.024211
v 0.041768 0.152968 0.048940
v 0.099803 0.157937 0.019215
v 0.060096 0.167394 0.029668
v 0.094798 0.240913 0.081219
v 0.137643 0.235801 0.072483
v 0.043164 0.162558 0.055611
v 0.076427 0.235417 0.108853
v 0.007731 0.162040 0.065152
v 0.038577 0.237716 0.123588
v -0.011183 0.153774 0.092517
v 0.021526 0.231467 0.152858
v 0.137852 0.307989 0.152917
v 0.170060 0.293467 0.138703
v 0.120407 0.298210 0.174713
v 0.090846 0.307847 0.189536
v 0.071056 0.298767 0.212222
v 0.182822 0.352455 0.221381
v 0.199944 0.340388 0.209898
v 0.168407 0.341860 0.234221
v 0.152101 0.353880 0.244218
v 0.137307 0.354694 0.255279
v 0.223859 0.370512 0.267927
v 0.222301 0.367610 0.296418
v 0.218885 0.367101 0.304582
v 0.212163 0.367978 0.302292
v 0.189706 0.372964 0.293229
v 0.074967 0.117879 0.006625
v 0.047938 0.121364 0.010102
v 0.017617 0.119711 0.035938
v -0.013334 0.119479 0.059892
v 0.000842 0.118330 0.040886
v 0.035289 0.118570 0.033634
v 0.029379 0.117969 0.037787
v 0.100077 0.157478 0.019991
v 0.137968 0.235483 0.073304
v 0.095314 0.240594 0.081943
v 0.060537 0.166937 0.030361
v 0.076958 0.235100 0.109554
v 0.043650 0.162104 0.056278
v 0.039211 0.237405 0.124219
v 0.008322 0.161594 0.065752
v 0.022303 0.231188 0.153296
v -0.010438 0.153382 0.092939
v 0.170173 0.292702 0.139257
v 0.138114 0.307188 0.153352
v 0.120710 0.297417 0.175113
v 0.091273 0.307081 0.189860
v 0.071636 0.298046 0.212392
v 0.199711 0.339477 0.209995
v 0.182650 0.351540 0.221407
v 0.168357 0.340932 0.234209
v 0.152104 0.352923 0.244240
v 0.137338 0.353730 0.255330
v 0.223677 0.369593 0.267903
v 0.222212 0.366677 0.296323
v 0.218795 0.366169 0.304487
v 0.212074 0.367046 0.302197
v 0.189651 0.372033 0.293178
v 0.075210 0.117352 0.007367
v 0.048300 0.120842 0.010783
v 0.018075 0.119190 0.036575
v 0.029837 0.117448 0.038424
v -0.012713 0.118990 0.060405
v 0.001330 0.117805 0.041515
v 0.035742 0.118045 0.034280
v 0.021593 -0.019502 -0.005311
v 0.022290 0.108208 -0.016350
v 0.014622 0.108208 -0.015679
v 0.014806 -0.019502 -0.004718
v 0.023438 -0.019502 -0.008382
v 0.024375 0.108208 -0.019819
v 0.023126 -0.019502 -0.011950
v 0.024022 0.108208 -0.023851
v 0.017286 -0.019502 -0.015459
v 0.017424 0.108208 -0.027816
v 0.012144 -0.019502 -0.010989
v 0.011614 0.108208 -0.022765
v 0.036855 0.286840 -0.060594
v 0.029972 0.289673 -0.058726
v 0.019933 0.177849 -0.031154
v 0.027492 0.176539 -0.031523
v 0.038080 0.285825 -0.064314
v 0.029443 0.174940 -0.034624
v 0.036964 0.285653 -0.068199
v 0.028966 0.173463 -0.038316
v 0.030147 0.287752 -0.071031
v 0.022319 0.172871 -0.042145
v 0.025825 0.290237 -0.065177
v 0.016736 0.175582 -0.037718
v 0.034017 0.293806 -0.066434
v -0.027986 0.309675 -0.077282
v 0.005826 0.318162 -0.061136
v 0.013937 0.380867 -0.093590
v -0.020682 0.376025 -0.113321
v 0.032850 0.315391 -0.070044
v 0.042681 0.372109 -0.099723
v 0.063422 0.314846 -0.056455
v 0.077352 0.373241 -0.086584
v 0.092771 0.309025 -0.065483
v 0.106139 0.363486 -0.094491
v 0.035982 0.467527 -0.131850
v 0.005878 0.466421 -0.149117
v 0.059994 0.456835 -0.137896
v 0.088414 0.455264 -0.124624
v 0.114472 0.444341 -0.129489
v 0.061553 0.527485 -0.173014
v 0.042480 0.523271 -0.182654
v 0.077652 0.516145 -0.176936
v 0.095206 0.520327 -0.167004
v 0.111470 0.516992 -0.164079
v 0.073335 0.570937 -0.211031
v 0.094100 0.575009 -0.226397
v 0.101758 0.575085 -0.228981
v 0.104017 0.572164 -0.223602
v 0.110779 0.563614 -0.203869
v -0.012832 0.255292 -0.071308
v 0.006228 0.252552 -0.055285
v 0.041881 0.257294 -0.050002
v 0.076521 0.261856 -0.042743
v 0.056129 0.254621 -0.043238
v 0.029158 0.259858 -0.059835
v 0.035640 0.260119 -0.058572
v -0.027720 0.309325 -0.078020
v -0.020428 0.375591 -0.114013
v 0.014004 0.380441 -0.094336
v 0.005926 0.317811 -0.061912
v 0.042724 0.371687 -0.100463
v 0.032903 0.315042 -0.070827
v 0.077282 0.372833 -0.087343
v 0.063362 0.314502 -0.057249
v 0.105860 0.363133 -0.095214
v 0.092499 0.308719 -0.066237
v 0.006108 0.465967 -0.149820
v 0.036039 0.467083 -0.132588
v 0.060003 0.456406 -0.138637
v 0.088304 0.454893 -0.125384
v 0.114172 0.444038 -0.130234
v 0.042584 0.522503 -0.183030
v 0.061571 0.526723 -0.173390
v 0.077573 0.515419 -0.177366
v 0.095118 0.519611 -0.167496
v 0.111386 0.516290 -0.164605
v 0.073323 0.570156 -0.211377
v 0.093983 0.574242 -0.226765
v 0.101642 0.574318 -0.229349
v 0.103900 0.571397 -0.223969
v 0.110675 0.562874 -0.204278
v -0.012437 0.255384 -0.072065
v 0.006509 0.252647 -0.056082
v 0.042071 0.257391 -0.050833
v 0.035831 0.260215 -0.059404
v 0.076524 0.261951 -0.043597
v 0.056295 0.254718 -0.044086
v 0.029359 0.259955 -0.060670
v -0.009606 -0.020291 -0.014746
v -0.010217 0.063324 -0.015259
v -0.016186 0.063324 -0.009289
v -0.014890 -0.020291 -0.009463
v -0.010221 -0.020291 -0.018626
v -0.010911 0.063324 -0.019643
v -0.012998 -0.020291 -0.021404
v -0.014049 0.063324 -0.022782
v -0.020379 -0.020291 -0.020235
v -0.022388 0.063324 -0.021461
v -0.021548 -0.020291 -0.012855
v -0.023709 0.063324 -0.013122
v -0.026084 0.234397 -0.066447
v -0.031853 0.236030 -0.060539
v -0.019420 0.135985 -0.027560
v -0.013283 0.134274 -0.033070
v -0.026911 0.233237 -0.070649
v -0.013773 0.132184 -0.036893
v -0.030136 0.232428 -0.073587
v -0.016723 0.130254 -0.039513
v -0.038409 0.232845 -0.072092
v -0.024986 0.129481 -0.037985
v -0.039470 0.235071 -0.064028
v -0.026653 0.133023 -0.030597
v -0.033732 0.240635 -0.069864
v -0.097141 0.247080 -0.055234
v -0.055593 0.253926 -0.053713
v -0.071082 0.337118 -0.099606
v -0.114941 0.335108 -0.102842
v -0.032751 0.251168 -0.075014
v -0.046448 0.333806 -0.122267
v 0.003848 0.248485 -0.075323
v -0.005987 0.334396 -0.126466
v 0.028769 0.242354 -0.098044
v 0.017761 0.330708 -0.151143
v -0.089695 0.417661 -0.167866
v -0.125310 0.404546 -0.164746
v -0.067743 0.409394 -0.185889
v -0.034806 0.418048 -0.191051
v -0.010319 0.410362 -0.209221
v -0.112346 0.475671 -0.237212
v -0.132571 0.463858 -0.232515
v -0.095717 0.465627 -0.247581
v -0.076671 0.477262 -0.251072
v -0.059467 0.478164 -0.257786
v -0.138546 0.504161 -0.288966
v -0.129722 0.505200 -0.316236
v -0.124315 0.505521 -0.323254
v -0.118392 0.505390 -0.319241
v -0.098855 0.506774 -0.304150
v -0.078916 0.203367 -0.043532
v -0.051767 0.204601 -0.039506
v -0.015871 0.203628 -0.056831
v 0.020221 0.203724 -0.071969
v 0.001502 0.201301 -0.057573
v -0.033563 0.203938 -0.059247
v -0.026814 0.203347 -0.061827
v -0.097228 0.246767 -0.056117
v -0.115057 0.334944 -0.103758
v -0.071407 0.336958 -0.100478
v -0.055863 0.253619 -0.054560
v -0.046794 0.333646 -0.123122
v -0.033070 0.250864 -0.075846
v -0.006451 0.334243 -0.127278
v 0.003410 0.248191 -0.076115
v 0.017112 0.330573 -0.151801
v 0.028139 0.242102 -0.098697
v -0.125319 0.403883 -0.165428
v -0.089880 0.416961 -0.168478
v -0.067977 0.408699 -0.186476
v -0.035177 0.417383 -0.191593
v -0.010876 0.409734 -0.209647
v -0.132376 0.462953 -0.232698
v -0.112228 0.474756 -0.237343
v -0.095727 0.464706 -0.247708
v -0.076724 0.476323 -0.251250
v -0.059540 0.477225 -0.257999
v -0.138431 0.503235 -0.289047
v -0.129717 0.504260 -0.316275
v -0.124309 0.504580 -0.323293
v -0.118387 0.504449 -0.319279
v -0.098872 0.505844 -0.304240
v -0.078987 0.202978 -0.044386
v -0.051967 0.204220 -0.040332
v -0.016176 0.203252 -0.057638
v -0.027119 0.202971 -0.062635
v 0.019729 0.203378 -0.072694
v 0.001166 0.200923 -0.058381
v -0.033860 0.203558 -0.060063
vt 0.017200 0.990700
vt 0.017200 0.915100
vt 0.035800 0.915100
vt 0.035800 0.990700
vt 0.007900 0.990700
vt 0.007900 0.915100
vt 0.045100 0.990700
vt 0.045100 0.915100
vt 0.053700 0.915100
vt 0.053700 0.990700
vt 0.026500 0.990700
vt 0.026500 0.915100
vt 0.007900 0.990700
vt 0.007900 0.915100
vt 0.053700 0.915100
vt 0.053700 0.990700
vt 0.017200 0.764000
vt 0.035800 0.764000
vt 0.035800 0.839600
vt 0.017200 0.839600
vt 0.007900 0.764000
vt 0.007900 0.839600
vt 0.045100 0.764000
vt 0.053700 0.764000
vt 0.053700 0.839600
vt 0.045100 0.839600
vt 0.026500 0.764000
vt 0.026500 0.839600
vt 0.007900 0.764000
vt 0.007900 0.839600
vt 0.053700 0.764000
vt 0.053700 0.839600
vt 0.031000 0.688400
vt 0.032800 0.134500
vt 0.109300 0.144600
vt 0.099500 0.350900
vt 0.020500 0.352000
vt 0.176900 0.149000
vt 0.174000 0.347400
vt 0.258800 0.141400
vt 0.266600 0.347100
vt 0.341000 0.140200
vt 0.349100 0.344100
vt 0.114000 0.600700
vt 0.043900 0.624000
vt 0.174700 0.592000
vt 0.254400 0.597000
vt 0.331500 0.612500
vt 0.140600 0.777400
vt 0.083200 0.777700
vt 0.177200 0.775000
vt 0.229600 0.774100
vt 0.271500 0.772300
vt 0.126300 0.933600
vt 0.169900 0.973500
vt 0.186400 0.982800
vt 0.202700 0.957900
vt 0.232100 0.919400
vt 0.077300 0.030700
vt 0.128600 0.025400
vt 0.222300 0.035400
vt 0.306700 0.043800
vt 0.258600 0.030200
vt 0.180400 0.039900
vt 0.197000 0.042200
vt 0.032800 0.134500
vt 0.020500 0.352000
vt 0.099500 0.350900
vt 0.109300 0.144600
vt 0.174000 0.347400
vt 0.176900 0.149000
vt 0.266600 0.347100
vt 0.258800 0.141400
vt 0.349100 0.344100
vt 0.341000 0.140200
vt 0.043900 0.624000
vt 0.114000 0.600700
vt 0.174700 0.592000
vt 0.254400 0.597000
vt 0.331500 0.612500
vt 0.083200 0.777700
vt 0.140600 0.777400
vt 0.177200 0.775000
vt 0.229600 0.774100
vt 0.271500 0.772300
vt 0.126300 0.933600
vt 0.169900 0.973500
vt 0.186400 0.982800
vt 0.202700 0.957900
vt 0.232100 0.919400
vt 0.077300 0.030700
vt 0.128600 0.025400
vt 0.222300 0.035400
vt 0.197000 0.042200
vt 0.306700 0.043800
vt 0.258600 0.030200
vt 0.180400 0.039900
vt 0.017200 0.990700
vt 0.017200 0.915100
vt 0.035800 0.915100
vt 0.035800 0.990700
vt 0.007900 0.990700
vt 0.007900 0.915100
vt 0.045100 0.990700
vt 0.045100 0.915100
vt 0.053700 0.915100
vt 0.053700 0.990700
vt 0.026500 0.990700
vt 0.026500 0.915100
vt 0.007900 0.990700
vt 0.007900 0.915100
vt 0.053700 0.915100
vt 0.053700 0.990700
vt 0.017200 0.764000
vt 0.035800 0.764000
vt 0.035800 0.839600
vt 0.017200 0.839600
vt 0.007900 0.764000
vt 0.007900 0.839600
vt 0.045100 0.764000
vt 0.053700 0.764000
vt 0.053700 0.839600
vt 0.045100 0.839600
vt 0.026500 0.764000
vt 0.026500 0.839600
vt 0.007900 0.764000
vt 0.007900 0.839600
vt 0.053700 0.764000
vt 0.053700 0.839600
vt 0.031000 0.688400
vt 0.032800 0.134500
vt 0.109300 0.144600
vt 0.099500 0.350900
vt 0.020500 0.352000
vt 0.176900 0.149000
vt 0.174000 0.347400
vt 0.258800 0.141400
vt 0.266600 0.347100
vt 0.341000 0.140200
vt 0.349100 0.344100
vt 0.114000 0.600700
vt 0.043900 0.624000
vt 0.174700 0.592000
vt 0.254400 0.597000
vt 0.331500 0.612500
vt 0.140600 0.777400
vt 0.083200 0.777700
vt 0.177200 0.775000
vt 0.229600 0.774100
vt 0.271500 0.772300
vt 0.126300 0.933600
vt 0.169900 0.973500
vt 0.186400 0.982800
vt 0.202700 0.957900
vt 0.232100 0.919400
vt 0.077300 0.030700
vt 0.128600 0.025400
vt 0.222300 0.035400
vt 0.306700 0.043800
vt 0.258600 0.030200
vt 0.180400 0.039900
vt 0.197000 0.042200
vt 0.032800 0.134500
vt 0.020500 0.352000
vt 0.099500 0.350900
vt 0.109300 0.144600
vt 0.174000 0.347400
vt 0.176900 0.149000
vt 0.266600 0.347100
vt 0.258800 0.141400
vt 0.349100 0.344100
vt 0.341000 0.140200
vt 0.043900 0.624000
vt 0.114000 0.600700
vt 0.174700 0.592000
vt 0.254400 0.597000
vt 0.331500 0.612500
vt 0.083200 0.777700
vt 0.140600 0.777400
vt 0.177200 0.775000
vt 0.229600 0.774100
vt 0.271500 0.772300
vt 0.126300 0.933600
vt 0.169900 0.973500
vt 0.186400 0.982800
vt 0.202700 0.957900
vt 0.232100 0.919400
vt 0.077300 0.030700
vt 0.128600 0.025400
vt 0.222300 0.035400
vt 0.197000 0.042200
vt 0.306700 0.043800
vt 0.258600 0.030200
vt 0.180400 0.039900
vt 0.017200 0.990700
vt 0.017200 0.915100
vt 0.035800 0.915100
vt 0.035800 0.990700
vt 0.007900 0.990700
vt 0.007900 0.915100
vt 0.045100 0.990700
vt 0.045100 0.915100
vt 0.053700 0.915100
vt 0.053700 0.990700
vt 0.026500 0.990700
vt 0.026500 0.915100
vt 0.007900 0.990700
vt 0.007900 0.915100
vt 0.053700 0.915100
vt 0.053700 0.990700
vt 0.017200 0.764000
vt 0.035800 0.764000
vt 0.035800 0.839600
vt 0.017200 0.839600
vt 0.007900 0.764000
vt 0.007900 0.839600
vt 0.045100 0.764000
vt 0.053700 0.764000
vt 0.053700 0.839600
vt 0.045100 0.839600
vt 0.026500 0.764000
vt 0.026500 0.839600
vt 0.007900 0.764000
vt 0.007900 0.839600
vt 0.053700 0.764000
vt 0.053700 0.839600
vt 0.031000 0.688400
vt 0.032800 0.134500
vt 0.109300 0.144600
vt 0.099500 0.350900
vt 0.020500 0.352000
vt 0.176900 0.149000
vt 0.174000 0.347400
vt 0.258800 0.141400
vt 0.266600 0.347100
vt 0.341000 0.140200
vt 0.349100 0.344100
vt 0.114000 0.600700
vt 0.043900 0.624000
vt 0.174700 0.592000
vt 0.254400 0.597000
vt 0.331500 0.612500
vt 0.140600 0.777400
vt 0.083200 0.777700
vt 0.177200 0.775000
vt 0.229600 0.774100
vt 0.271500 0.772300
vt 0.126300 0.933600
vt 0.169900 0.973500
vt 0.186400 0.982800
vt 0.202700 0.957900
vt 0.232100 0.919400
vt 0.077300 0.030700
vt 0.128600 0.025400
vt 0.222300 0.035400
vt 0.306700 0.043800
vt 0.258600 0.030200
vt 0.180400 0.039900
vt 0.197000 0.042200
vt 0.032800 0.134500
vt 0.020500 0.352000
vt 0.099500 0.350900
vt 0.109300 0.144600
vt 0.174000 0.347400
vt 0.176900 0.149000
vt 0.266600 0.347100
vt 0.258800 0.141400
vt 0.349100 0.344100
vt 0.341000 0.140200
vt 0.043900 0.624000
vt 0.114000 0.600700
vt 0.174700 0.592000
vt 0.254400 0.597000
vt 0.331500 0.612500
vt 0.083200 0.777700
vt 0.140600 0.777400
vt 0.177200 0.775000
vt 0.229600 0.774100
vt 0.271500 0.772300
vt 0.126300 0.933600
vt 0.169900 0.973500
vt 0.186400 0.982800
vt 0.202700 0.957900
vt 0.232100 0.919400
vt 0.077300 0.030700
vt 0.128600 0.025400
vt 0.222300 0.035400
vt 0.197000 0.042200
vt 0.306700 0.043800
vt 0.258600 0.030200
vt 0.180400 0.039900
vt 0.017200 0.990700
vt 0.017200 0.915100
vt 0.035800 0.915100
vt 0.035800 0.990700
vt 0.007900 0.990700
vt 0.007900 0.915100
vt 0.045100 0.990700
vt 0.045100 0.915100
vt 0.053700 0.915100
vt 0.053700 0.990700
vt 0.026500 0.990700
vt 0.026500 0.915100
vt 0.007900 0.990700
vt 0.007900 0.915100
vt 0.053700 0.915100
vt 0.053700 0.990700
vt 0.017200 0.764000
vt 0.035800 0.764000
vt 0.035800 0.839600
vt 0.017200 0.839600
vt 0.007900 0.764000
vt 0.007900 0.839600
vt 0.045100 0.764000
vt 0.053700 0.764000
vt 0.053700 0.839600
vt 0.045100 0.839600
vt 0.026500 0.764000
vt 0.026500 0.839600
vt 0.007900 0.764000
vt 0.007900 0.839600
vt 0.053700 0.764000
vt 0.053700 0.839600
vt 0.031000 0.688400
vt 0.032800 0.134500
vt 0.109300 0.144600
vt 0.099500 0.350900
vt 0.020500 0.352000
vt 0.176900 0.149000
vt 0.174000 0.347400
vt 0.258800 0.141400
vt 0.266600 0.347100
vt 0.341000 0.140200
vt 0.349100 0.344100
vt 0.114000 0.600700
vt 0.043900 0.624000
vt 0.174700 0.592000
vt 0.254400 0.597000
vt 0.331500 0.612500
vt 0.140600 0.777400
vt 0.083200 0.777700
vt 0.177200 0.775000
vt 0.229600 0.774100
vt 0.271500 0.772300
vt 0.126300 0.933600
vt 0.169900 0.973500
vt 0.186400 0.982800
vt 0.202700 0.957900
vt 0.232100 0.919400
vt 0.077300 0.030700
vt 0.128600 0.025400
vt 0.222300 0.035400
vt 0.306700 0.043800
vt 0.258600 0.030200
vt 0.180400 0.039900
vt 0.197000 0.042200
vt 0.032800 0.134500
vt 0.020500 0.352000
vt 0.099500 0.350900
vt 0.109300 0.144600
vt 0.174000 0.347400
vt 0.176900 0.149000
vt 0.266600 0.347100
vt 0.258800 0.141400
vt 0.349100 0.344100
vt 0.341000 0.140200
vt 0.043900 0.624000
vt 0.114000 0.600700
vt 0.174700 0.592000
vt 0.254400 0.597000
vt 0.331500 0.612500
vt 0.083200 0.777700
vt 0.140600 0.777400
vt 0.177200 0.775000
vt 0.229600 0.774100
vt 0.271500 0.772300
vt 0.126300 0.933600
vt 0.169900 0.973500
vt 0.186400 0.982800
vt 0.202700 0.957900
vt 0.232100 0.919400
vt 0.077300 0.030700
vt 0.128600 0.025400
vt 0.222300 0.035400
vt 0.197000 0.042200
vt 0.306700 0.043800
vt 0.258600 0.030200
vt 0.180400 0.039900
vt 0.017200 0.990700
vt 0.017200 0.915100
vt 0.035800 0.915100
vt 0.035800 0.990700
vt 0.007900 0.990700
vt 0.007900 0.915100
vt 0.045100 0.990700
vt 0.045100 0.915100
vt 0.053700 0.915100
vt 0.053700 0.990700
vt 0.026500 0.990700
vt 0.026500 0.915100
vt 0.007900 0.990700
vt 0.007900 0.915100
vt 0.053700 0.915100
vt 0.053700 0.990700
vt 0.017200 0.764000
vt 0.035800 0.764000
vt 0.035800 0.839600
vt 0.017200 0.839600
vt 0.007900 0.764000
vt 0.007900 0.839600
vt 0.045100 0.764000
vt 0.053700 0.764000
vt 0.053700 0.839600
vt 0.045100 0.839600
vt 0.026500 0.764000
vt 0.026500 0.839600
vt 0.007900 0.764000
vt 0.007900 0.839600
vt 0.053700 0.764000
vt 0.053700 0.839600
vt 0.031000 0.688400
vt 0.032800 0.134500
vt 0.109300 0.144600
vt 0.099500 0.350900
vt 0.020500 0.352000
vt 0.176900 0.149000
vt 0.174000 0.347400
vt 0.258800 0.141400
vt 0.266600 0.347100
vt 0.341000 0.140200
vt 0.349100 0.344100
vt 0.114000 0.600700
vt 0.043900 0.624000
vt 0.174700 0.592000
vt 0.254400 0.597000
vt 0.331500 0.612500
vt 0.140600 0.777400
vt 0.083200 0.777700
vt 0.177200 0.775000
vt 0.229600 0.774100
vt 0.271500 0.772300
vt 0.126300 0.933600
vt 0.169900 0.973500
vt 0.186400 0.982800
vt 0.202700 0.957900
vt 0.232100 0.919400
vt 0.077300 0.030700
vt 0.128600 0.025400
vt 0.222300 0.035400
vt 0.306700 0.043800
vt 0.258600 0.030200
vt 0.180400 0.039900
vt 0.197000 0.042200
vt 0.032800 0.134500
vt 0.020500 0.352000
vt 0.099500 0.350900
vt 0.109300 0.144600
vt 0.174000 0.347400
vt 0.176900 0.149000
vt 0.266600 0.347100
vt 0.258800 0.141400
vt 0.349100 0.344100
vt 0.341000 0.140200
vt 0.043900 0.624000
vt 0.114000 0.600700
vt 0.174700 0.592000
vt 0.254400 0.597000
vt 0.331500 0.612500
vt 0.083200 0.777700
vt 0.140600 0.777400
vt 0.177200 0.775000
vt 0.229600 0.774100
vt 0.271500 0.772300
vt 0.126300 0.933600
vt 0.169900 0.973500
vt 0.186400 0.982800
vt 0.202700 0.957900
vt 0.232100 0.919400
vt 0.077300 0.030700
vt 0.128600 0.025400
vt 0.222300 0.035400
vt 0.197000 0.042200
vt 0.306700 0.043800
vt 0.258600 0.030200
vt 0.180400 0.039900
vt 0.017200 0.990700
vt 0.017200 0.915100
vt 0.035800 0.915100
vt 0.035800 0.990700
vt 0.007900 0.990700
vt 0.007900 0.915100
vt 0.045100 0.990700
vt 0.045100 0.915100
vt 0.053700 0.915100
vt 0.053700 0.990700
vt 0.026500 0.990700
vt 0.026500 0.915100
vt 0.007900 0.990700
vt 0.007900 0.915100
vt 0.053700 0.915100
vt 0.053700 0.990700
vt 0.017200 0.764000
vt 0.035800 0.764000
vt 0.035800 0.839600
vt 0.017200 0.839600
vt 0.007900 0.764000
vt 0.007900 0.839600
vt 0.045100 0.764000
vt 0.053700 0.764000
vt 0.053700 0.839600
vt 0.045100 0.839600
vt 0.026500 0.764000
vt 0.026500 0.839600
vt 0.007900 0.764000
vt 0.007900 0.839600
vt 0.053700 0.764000
vt 0.053700 0.839600
vt 0.031000 0.688400
vt 0.032800 0.134500
vt 0.109300 0.144600
vt 0.099500 0.350900
vt 0.020500 0.352000
vt 0.176900 0.149000
vt 0.174000 0.347400
vt 0.258800 0.141400
vt 0.266600 0.347100
vt 0.341000 0.140200
vt 0.349100 0.344100
vt 0.114000 0.600700
vt 0.043900 0.624000
vt 0.174700 0.592000
vt 0.254400 0.597000
vt 0.331500 0.612500
vt 0.140600 0.777400
vt 0.083200 0.777700
vt 0.177200 0.775000
vt 0.229600 0.774100
vt 0.271500 0.772300
vt 0.126300 0.933600
vt 0.169900 0.973500
vt 0.186400 0.982800
vt 0.202700 0.957900
vt 0.232100 0.919400
vt 0.077300 0.030700
vt 0.128600 0.025400
vt 0.222300 0.035400
vt 0.306700 0.043800
vt 0.258600 0.030200
vt 0.180400 0.039900
vt 0.197000 0.042200
vt 0.032800 0.134500
vt 0.020500 0.352000
vt 0.099500 0.350900
vt 0.109300 0.144600
vt 0.174000 0.347400
vt 0.176900 0.149000
vt 0.266600 0.347100
vt 0.258800 0.141400
vt 0.349100 0.344100
vt 0.341000 0.140200
vt 0.043900 0.624000
vt 0.114000 0.600700
vt 0.174700 0.592000
vt 0.254400 0.597000
vt 0.331500 0.612500
vt 0.083200 0.777700
vt 0.140600 0.777400
vt 0.177200 0.775000
vt 0.229600 0.774100
vt 0.271500 0.772300
vt 0.126300 0.933600
vt 0.169900 0.973500
vt 0.186400 0.982800
vt 0.202700 0.957900
vt 0.232100 0.919400
vt 0.077300 0.030700
vt 0.128600 0.025400
vt 0.222300 0.035400
vt 0.197000 0.042200
vt 0.306700 0.043800
vt 0.258600 0.030200
vt 0.180400 0.039900
vn -0.4530 0.0089 -0.8914
vn -0.4268 0.0686 -0.9018
vn 0.5857 0.1192 -0.8017
vn 0.5831 0.0005 -0.8124
vn -0.9502 0.0019 -0.3117
vn -0.9433 -0.0320 -0.3303
vn -0.8932 -0.0117 0.4495
vn -0.8918 -0.1181 0.4367
vn -0.0025 -0.0273 0.9996
vn 0.0324 -0.1134 0.9930
vn 0.9525 -0.0215 0.3037
vn 0.9616 0.0372 0.2719
vn -0.5264 0.4803 -0.7016
vn 0.4392 0.6219 -0.6483
vn 0.5587 0.2908 -0.7767
vn -0.4477 0.1702 -0.8778
vn -0.9440 0.2731 -0.1852
vn -0.9430 -0.0519 -0.3289
vn -0.8642 0.0768 0.4973
vn -0.8781 -0.2383 0.4149
vn 0.0064 0.0810 0.9967
vn 0.0074 -0.2497 0.9683
vn 0.8423 0.4107 0.3490
vn 0.9521 0.0554 0.3008
vn -0.1763 0.9484 0.2634
vn 0.7202 0.3604 -0.5928
vn 0.3988 0.3876 -0.8311
vn 0.3456 0.5763 -0.7406
vn 0.6504 0.5590 -0.5143
vn 0.3342 0.4229 -0.8423
vn 0.2696 0.5886 -0.7621
vn 0.3131 0.4187 -0.8525
vn 0.2326 0.5674 -0.7899
vn -0.0297 0.3810 -0.9241
vn -0.0729 0.5259 -0.8474
vn 0.2772 0.7299 -0.6249
vn 0.6386 0.6749 -0.3698
vn 0.2604 0.7067 -0.6578
vn 0.2616 0.7037 -0.6606
vn -0.0605 0.6555 -0.7528
vn 0.2086 0.8450 -0.4925
vn 0.6396 0.7298 -0.2414
vn 0.2466 0.8297 -0.5008
vn 0.4810 0.7964 -0.3666
vn 0.2286 0.8206 -0.5238
vn -0.1167 0.8662 -0.4859
vn -0.0633 0.9004 -0.4305
vn 0.2254 0.9115 -0.3440
vn 0.6481 0.7519 -0.1208
vn 0.7092 0.6984 -0.0962
vn 0.7645 0.2489 -0.5947
vn 0.4339 0.2733 -0.8585
vn 0.7470 0.3052 -0.5906
vn 0.0971 0.2779 -0.9557
vn 0.4128 0.3211 -0.8524
vn 0.1485 0.2510 -0.9565
vn 0.7267 0.2579 -0.6367
vn -0.7212 -0.3599 0.5920
vn -0.6511 -0.5593 0.5131
vn -0.3461 -0.5766 0.7401
vn -0.3992 -0.3876 0.8309
vn -0.2698 -0.5891 0.7617
vn -0.3343 -0.4228 0.8423
vn -0.2325 -0.5676 0.7898
vn -0.3133 -0.4185 0.8525
vn 0.0737 -0.5261 0.8472
vn 0.0303 -0.3806 0.9242
vn -0.6395 -0.6748 0.3683
vn -0.2776 -0.7298 0.6248
vn -0.2610 -0.7067 0.6576
vn -0.2621 -0.7038 0.6603
vn 0.0612 -0.6554 0.7528
vn -0.6411 -0.7287 0.2407
vn -0.2079 -0.8444 0.4938
vn -0.2449 -0.8290 0.5029
vn -0.4804 -0.7962 0.3678
vn -0.2277 -0.8203 0.5247
vn 0.1192 -0.8655 0.4865
vn 0.0639 -0.9004 0.4303
vn -0.2253 -0.9116 0.3440
vn -0.6485 -0.7516 0.1209
vn -0.7092 -0.6983 0.0969
vn -0.7656 -0.2486 0.5934
vn -0.4337 -0.2733 0.8586
vn -0.7472 -0.3048 0.5906
vn -0.7270 -0.2580 0.6364
vn -0.0969 -0.2780 0.9557
vn -0.4124 -0.3208 0.8527
vn -0.1476 -0.2510 0.9567
vn 0.5992 0.0745 -0.7971
vn 0.6230 0.0806 -0.7781
vn 0.9676 0.1527 0.2013
vn 0.9776 0.0988 0.1860
vn -0.1319 -0.0105 -0.9912
vn -0.1095 -0.0421 -0.9931
vn -0.7854 -0.0983 -0.6111
vn -0.7759 -0.1431 -0.6144
vn -0.9028 -0.1354 0.4083
vn -0.8866 -0.1433 0.4399
vn 0.1087 -0.0250 0.9938
vn 0.1309 0.0291 0.9910
vn 0.3714 0.5165 -0.7715
vn 0.7116 0.6908 0.1284
vn 0.9463 0.2723 0.1745
vn 0.6078 0.1561 -0.7786
vn -0.2632 0.2514 -0.9314
vn -0.0976 -0.0488 -0.9940
vn -0.8175 0.0077 -0.5758
vn -0.7448 -0.2218 -0.6293
vn -0.9034 -0.0059 0.4288
vn -0.8765 -0.2324 0.4216
vn 0.0057 0.4134 0.9105
vn 0.1391 0.0610 0.9884
vn -0.4732 0.8796 -0.0484
vn 0.7662 0.5011 0.4023
vn 0.8404 0.5418 0.0102
vn 0.7048 0.7095 0.0002
vn 0.6327 0.6792 0.3721
vn 0.8174 0.5736 -0.0531
vn 0.6902 0.7194 -0.0777
vn 0.8185 0.5694 -0.0765
vn 0.7033 0.7002 -0.1230
vn 0.7463 0.5185 -0.4175
vn 0.6347 0.6459 -0.4242
vn 0.5464 0.8375 -0.0128
vn 0.4786 0.7697 0.4225
vn 0.5728 0.8186 -0.0420
vn 0.5763 0.8162 -0.0420
vn 0.5329 0.7595 -0.3730
vn 0.3796 0.9249 -0.0191
vn 0.3549 0.8037 0.4776
vn 0.4055 0.9140 0.0119
vn 0.3891 0.8773 0.2811
vn 0.4201 0.9074 -0.0142
vn 0.2348 0.9209 -0.3111
vn 0.2016 0.9497 -0.2395
vn 0.2426 0.9683 0.0589
vn 0.2470 0.8070 0.5364
vn 0.2597 0.7551 0.6020
vn 0.8057 0.3948 0.4415
vn 0.8994 0.4361 0.0304
vn 0.7850 0.4484 0.4274
vn 0.8452 0.4312 -0.3159
vn 0.8768 0.4806 0.0139
vn 0.8719 0.4087 -0.2696
vn 0.8259 0.4076 0.3896
vn -0.7660 -0.5005 -0.4034
vn -0.6318 -0.6793 -0.3733
vn -0.7045 -0.7097 -0.0009
vn -0.8405 -0.5418 -0.0106
vn -0.6899 -0.7198 0.0773
vn -0.8175 -0.5734 0.0531
vn -0.7031 -0.7003 0.1231
vn -0.8186 -0.5693 0.0763
vn -0.6342 -0.6460 0.4249
vn -0.7462 -0.5180 0.4181
vn -0.4777 -0.7694 -0.4240
vn -0.5464 -0.8374 0.0124
vn -0.5728 -0.8186 0.0414
vn -0.5762 -0.8162 0.0415
vn -0.5326 -0.7594 0.3736
vn -0.3552 -0.8026 -0.4793
vn -0.3806 -0.9245 0.0203
vn -0.4068 -0.9135 -0.0094
vn -0.3899 -0.8773 -0.2799
vn -0.4206 -0.9071 0.0154
vn -0.2343 -0.9202 0.3136
vn -0.2011 -0.9498 0.2397
vn -0.2424 -0.9684 -0.0588
vn -0.2473 -0.8068 -0.5365
vn -0.2604 -0.7550 -0.6018
vn -0.8051 -0.3944 -0.4431
vn -0.8994 -0.4361 -0.0302
vn -0.7852 -0.4480 -0.4276
vn -0.8258 -0.4076 -0.3899
vn -0.8450 -0.4313 0.3161
vn -0.8769 -0.4804 -0.0134
vn -0.8717 -0.4086 0.2705
vn 0.1399 0.0745 0.9874
vn 0.1097 0.0806 0.9907
vn -0.8265 0.1527 0.5419
vn -0.8228 0.0988 0.5597
vn 0.7940 -0.0104 0.6078
vn 0.7796 -0.0421 0.6248
vn 0.9875 -0.0983 -0.1231
vn 0.9831 -0.1431 -0.1142
vn 0.3496 -0.1354 -0.9271
vn 0.3159 -0.1433 -0.9379
vn -0.7795 -0.0250 -0.6259
vn -0.7933 0.0291 -0.6082
vn 0.2829 0.5165 0.8082
vn -0.5939 0.6908 0.4124
vn -0.7925 0.2723 0.5457
vn 0.1208 0.1561 0.9803
vn 0.8448 0.2513 0.4724
vn 0.7719 -0.0488 0.6338
vn 0.9852 0.0076 -0.1710
vn 0.9717 -0.2218 -0.0817
vn 0.3356 -0.0059 -0.9420
vn 0.3217 -0.2324 -0.9179
vn -0.6479 0.4134 -0.6398
vn -0.7973 0.0610 -0.6005
vn 0.3689 0.8796 -0.3003
vn -0.8262 0.5011 0.2574
vn -0.6015 0.5418 0.5871
vn -0.4985 0.7095 0.4982
vn -0.7105 0.6792 0.1842
vn -0.5405 0.5736 0.6156
vn -0.4331 0.7194 0.5430
vn -0.5246 0.5694 0.6328
vn -0.4103 0.7002 0.5843
vn -0.2325 0.5185 0.8229
vn -0.1489 0.6459 0.7488
vn -0.3773 0.8375 0.3954
vn -0.6372 0.7697 0.0397
vn -0.3753 0.8186 0.4347
vn -0.3778 0.8162 0.4372
vn -0.1131 0.7595 0.6406
vn -0.2549 0.9249 0.2819
vn -0.5887 0.8037 -0.0868
vn -0.2951 0.9140 0.2783
vn -0.4739 0.8773 0.0764
vn -0.2871 0.9074 0.3071
vn 0.0540 0.9209 0.3860
vn 0.0268 0.9497 0.3119
vn -0.2132 0.9683 0.1299
vn -0.5539 0.8070 -0.2046
vn -0.6094 0.7550 -0.2420
vn -0.8819 0.3948 0.2575
vn -0.6575 0.4361 0.6145
vn -0.8573 0.4484 0.2529
vn -0.3743 0.4312 0.8210
vn -0.6298 0.4806 0.6102
vn -0.4259 0.4087 0.8072
vn -0.8595 0.4076 0.3085
vn 0.8269 -0.5005 -0.2564
vn 0.7107 -0.6793 -0.1828
vn 0.4988 -0.7097 -0.4975
vn 0.6018 -0.5418 -0.5868
vn 0.4331 -0.7198 -0.5425
vn 0.5406 -0.5734 -0.6156
vn 0.4102 -0.7003 -0.5842
vn 0.5249 -0.5693 -0.6328
vn 0.1480 -0.6460 -0.7489
vn 0.2320 -0.5180 -0.8233
vn 0.6376 -0.7694 -0.0380
vn 0.3776 -0.8374 -0.3952
vn 0.3758 -0.8186 -0.4343
vn 0.3781 -0.8162 -0.4368
vn 0.1124 -0.7594 -0.6408
vn 0.5901 -0.8026 0.0878
vn 0.2548 -0.9245 -0.2835
vn 0.2943 -0.9135 -0.2810
vn 0.4736 -0.8773 -0.0778
vn 0.2865 -0.9071 -0.3083
vn -0.0561 -0.9202 -0.3874
vn -0.0272 -0.9498 -0.3117
vn 0.2130 -0.9684 -0.1298
vn 0.5543 -0.8068 0.2046
vn 0.6097 -0.7550 0.2414
vn 0.8825 -0.3944 -0.2560
vn 0.6573 -0.4361 -0.6146
vn 0.8575 -0.4480 -0.2528
vn 0.8596 -0.4075 -0.3082
vn 0.3740 -0.4313 -0.8211
vn 0.6296 -0.4804 -0.6106
vn 0.4251 -0.4086 -0.8077
vn -0.9966 0.0746 -0.0337
vn -0.9947 0.0806 -0.0640
vn -0.3901 0.1527 -0.9080
vn -0.4083 0.0988 -0.9075
vn -0.7363 -0.0104 0.6766
vn -0.7506 -0.0421 0.6594
vn -0.0501 -0.0983 0.9939
vn -0.0582 -0.1431 0.9880
vn 0.8522 -0.1354 0.5053
vn 0.8688 -0.1433 0.4740
vn 0.7517 -0.0250 -0.6590
vn 0.7367 0.0291 -0.6756
vn -0.8450 0.5165 0.1384
vn -0.3030 0.6908 -0.6565
vn -0.3997 0.2723 -0.8753
vn -0.9864 0.1561 -0.0512
vn -0.6119 0.2513 0.7499
vn -0.7583 -0.0488 0.6501
vn -0.0027 0.0077 1.0000
vn -0.0883 -0.2218 0.9711
vn 0.8694 -0.0059 0.4941
vn 0.8481 -0.2324 0.4762
vn 0.7426 0.4134 -0.5269
vn 0.7299 0.0610 -0.6808
vn 0.2317 0.8796 0.4154
vn -0.1100 0.5011 -0.8584
vn -0.4737 0.5418 -0.6943
vn -0.4041 0.7095 -0.5774
vn -0.0581 0.6792 -0.7317
vn -0.5124 0.5736 -0.6392
vn -0.4595 0.7194 -0.5208
vn -0.5321 0.5694 -0.6266
vn -0.5042 0.7002 -0.5055
vn -0.7700 0.5185 -0.3719
vn -0.7116 0.6459 -0.2766
vn -0.3239 0.8375 -0.4402
vn 0.0716 0.7697 -0.6344
vn -0.3629 0.8186 -0.4451
vn -0.3650 0.8162 -0.4479
vn -0.6112 0.7595 -0.2226
vn -0.2334 0.9249 -0.3000
vn 0.1877 0.8037 -0.5647
vn -0.2228 0.9140 -0.3390
vn 0.0070 0.8773 -0.4799
vn -0.2526 0.9074 -0.3360
vn -0.3895 0.9209 -0.0139
vn -0.3118 0.9497 -0.0278
vn -0.0909 0.9683 -0.2325
vn 0.2977 0.8070 -0.5100
vn 0.3442 0.7551 -0.5581
vn -0.1005 0.3948 -0.9132
vn -0.4910 0.4361 -0.7542
vn -0.1002 0.4484 -0.8882
vn -0.7435 0.4312 -0.5111
vn -0.4916 0.4806 -0.7262
vn -0.7210 0.4087 -0.5596
vn -0.1546 0.4076 -0.9000
vn 0.1089 -0.5005 0.8589
vn 0.0566 -0.6793 0.7316
vn 0.4033 -0.7097 0.5776
vn 0.4734 -0.5418 0.6946
vn 0.4591 -0.7198 0.5208
vn 0.5124 -0.5734 0.6392
vn 0.5041 -0.7003 0.5054
vn 0.5320 -0.5693 0.6268
vn 0.7118 -0.6460 0.2758
vn 0.7705 -0.5180 0.3715
vn -0.0733 -0.7694 0.6345
vn 0.3236 -0.8374 0.4405
vn 0.3625 -0.8186 0.4455
vn 0.3645 -0.8162 0.4482
vn 0.6116 -0.7594 0.2220
vn -0.1890 -0.8026 0.5658
vn 0.2349 -0.9245 0.3002
vn 0.2256 -0.9135 0.3386
vn -0.0057 -0.8773 0.4799
vn 0.2539 -0.9071 0.3357
vn 0.3913 -0.9202 0.0120
vn 0.3117 -0.9498 0.0273
vn 0.0909 -0.9684 0.2323
vn -0.2977 -0.8068 0.5103
vn -0.3436 -0.7550 0.5585
vn 0.0988 -0.3944 0.9136
vn 0.4911 -0.4361 0.7541
vn 0.1001 -0.4480 0.8884
vn 0.1542 -0.4076 0.9001
vn 0.7436 -0.4313 0.5109
vn 0.4920 -0.4804 0.7260
vn 0.7216 -0.4086 0.5589
vn 0.5166 0.0709 0.8533
vn 0.5134 0.1109 0.8509
vn -0.5112 0.1445 0.8472
vn -0.4997 0.0734 0.8631
vn 0.9702 0.0145 0.2418
vn 0.9711 -0.0010 0.2385
vn 0.8584 -0.0536 -0.5102
vn 0.8489 -0.1168 -0.5154
vn -0.0905 -0.0958 -0.9913
vn -0.1047 -0.1543 -0.9825
vn -0.9811 -0.0218 -0.1920
vn -0.9798 0.0079 -0.1999
vn 0.7249 0.3456 0.5959
vn -0.2194 0.5761 0.7874
vn -0.5006 0.2423 0.8311
vn 0.5291 0.1619 0.8330
vn 0.9863 0.1638 -0.0179
vn 0.9743 -0.0190 0.2246
vn 0.7333 0.0428 -0.6785
vn 0.8376 -0.1835 -0.5145
vn -0.2335 0.1877 -0.9541
vn -0.0945 -0.2177 -0.9714
vn -0.8433 0.5274 -0.1034
vn -0.9748 0.0275 -0.2214
vn 0.3142 0.9253 -0.2122
vn -0.4676 0.2235 0.8553
vn -0.1024 0.2718 0.9569
vn -0.1133 0.4524 0.8846
vn -0.4848 0.4542 0.7474
vn -0.0347 0.3323 0.9425
vn -0.0129 0.4414 0.8972
vn -0.0493 0.3709 0.9274
vn 0.0220 0.4348 0.9003
vn 0.3409 0.3436 0.8751
vn 0.3575 0.3546 0.8640
vn -0.0440 0.4985 0.8658
vn -0.4411 0.5302 0.7241
vn 0.0118 0.4628 0.8864
vn -0.0187 0.4704 0.8823
vn 0.3276 0.3833 0.8636
vn 0.0325 0.6048 0.7957
vn -0.4518 0.6520 0.6089
vn -0.0043 0.5982 0.8013
vn -0.2675 0.6351 0.7246
vn 0.0185 0.5799 0.8145
vn 0.3373 0.5664 0.7519
vn 0.2818 0.6249 0.7281
vn -0.0117 0.6943 0.7196
vn -0.4863 0.6781 0.5511
vn -0.5586 0.6450 0.5214
vn -0.5756 0.0387 0.8168
vn -0.2665 0.1127 0.9572
vn -0.5305 0.1981 0.8242
vn 0.0088 0.2526 0.9675
vn -0.2597 0.2369 0.9362
vn -0.0055 0.1812 0.9834
vn -0.5714 0.1390 0.8088
vn 0.4685 -0.2228 -0.8549
vn 0.4861 -0.4540 -0.7467
vn 0.1139 -0.4526 -0.8844
vn 0.1031 -0.2717 -0.9569
vn 0.0134 -0.4415 -0.8972
vn 0.0346 -0.3324 -0.9425
vn -0.0221 -0.4347 -0.9003
vn 0.0498 -0.3712 -0.9272
vn -0.3582 -0.3544 -0.8638
vn -0.3417 -0.3442 -0.8745
vn 0.4425 -0.5300 -0.7234
vn 0.0447 -0.4981 -0.8659
vn -0.0112 -0.4624 -0.8866
vn 0.0193 -0.4702 -0.8824
vn -0.3282 -0.3828 -0.8636
vn 0.4536 -0.6515 -0.6081
vn -0.0334 -0.6038 -0.7964
vn 0.0025 -0.5968 -0.8024
vn 0.2666 -0.6346 -0.7254
vn -0.0194 -0.5793 -0.8148
vn -0.3397 -0.5654 -0.7516
vn -0.2822 -0.6250 -0.7278
vn 0.0116 -0.6944 -0.7195
vn 0.4867 -0.6777 -0.5512
vn 0.5585 -0.6446 -0.5220
vn 0.5768 -0.0369 -0.8161
vn 0.2659 -0.1122 -0.9574
vn 0.5303 -0.1974 -0.8245
vn 0.5726 -0.1378 -0.8082
vn -0.0087 -0.2535 -0.9673
vn 0.2597 -0.2368 -0.9362
vn 0.0049 -0.1816 -0.9834
vn 0.9507 0.0088 0.3100
vn 0.9394 0.0686 0.3359
vn 0.1528 0.1192 0.9810
vn 0.1622 0.0005 0.9868
vn 0.8923 0.0019 -0.4514
vn 0.9006 -0.0320 -0.4334
vn 0.3138 -0.0117 -0.9494
vn 0.3218 -0.1181 -0.9394
vn -0.7051 -0.0273 -0.7086
vn -0.7251 -0.1134 -0.6792
vn -0.8883 -0.0215 0.4588
vn -0.8722 0.0372 0.4877
vn 0.8683 0.4803 0.1238
vn 0.1479 0.6219 0.7690
vn 0.1542 0.2908 0.9443
vn 0.9373 0.1702 0.3041
vn 0.7984 0.2731 -0.5366
vn 0.8993 -0.0519 -0.4343
vn 0.2594 0.0768 -0.9627
vn 0.3275 -0.2383 -0.9143
vn -0.7093 0.0809 -0.7003
vn -0.6899 -0.2497 -0.6795
vn -0.8424 0.4107 0.3488
vn -0.8859 0.0554 0.4605
vn -0.0616 0.9484 -0.3109
vn -0.0902 0.3604 0.9284
vn 0.3057 0.3876 0.8697
vn 0.2793 0.5763 0.7680
vn -0.0962 0.5590 0.8236
vn 0.3593 0.4229 0.8319
vn 0.3482 0.5886 0.7295
vn 0.3814 0.4187 0.8242
vn 0.3941 0.5674 0.7230
vn 0.6744 0.3810 0.6324
vn 0.6508 0.5259 0.5477
vn 0.2458 0.7299 0.6379
vn -0.1901 0.6749 0.7130
vn 0.2810 0.7067 0.6493
vn 0.2821 0.7037 0.6521
vn 0.5751 0.6555 0.4895
vn 0.2007 0.8450 0.4957
vn -0.2816 0.7298 0.6229
vn 0.1797 0.8297 0.5285
vn -0.0809 0.7964 0.5994
vn 0.2087 0.8206 0.5320
vn 0.4261 0.8662 0.2611
vn 0.3492 0.9003 0.2596
vn 0.0838 0.9115 0.4027
vn -0.3729 0.7519 0.5437
vn -0.4334 0.6985 0.5695
vn -0.1201 0.2489 0.9611
vn 0.3003 0.2733 0.9139
vn -0.1106 0.3052 0.9458
vn 0.6071 0.2779 0.7445
vn 0.3108 0.3211 0.8946
vn 0.5713 0.2510 0.7814
vn -0.0637 0.2579 0.9641
vn 0.0914 -0.3599 -0.9285
vn 0.0976 -0.5593 -0.8232
vn -0.2786 -0.5766 -0.7680
vn -0.3053 -0.3876 -0.8698
vn -0.3478 -0.5891 -0.7294
vn -0.3593 -0.4228 -0.8320
vn -0.3940 -0.5676 -0.7229
vn -0.3812 -0.4185 -0.8244
vn -0.6512 -0.5261 -0.5470
vn -0.6750 -0.3806 -0.6321
vn 0.1918 -0.6748 -0.7126
vn -0.2455 -0.7298 -0.6381
vn -0.2805 -0.7067 -0.6495
vn -0.2816 -0.7038 -0.6522
vn -0.5756 -0.6554 -0.4890
vn 0.2831 -0.7287 -0.6236
vn -0.2022 -0.8444 -0.4961
vn -0.1824 -0.8290 -0.5287
vn 0.0796 -0.7962 -0.5997
vn -0.2100 -0.8203 -0.5320
vn -0.4282 -0.8655 -0.2597
vn -0.3495 -0.9004 -0.2591
vn -0.0839 -0.9116 -0.4025
vn 0.3731 -0.7515 -0.5440
vn 0.4330 -0.6983 -0.5700
vn 0.1217 -0.2486 -0.9609
vn -0.3005 -0.2733 -0.9138
vn 0.1107 -0.3048 -0.9459
vn 0.0641 -0.2580 -0.9640
vn -0.6073 -0.2780 -0.7443
vn -0.3113 -0.3208 -0.8945
vn -0.5721 -0.2510 -0.7808
s 1
f 1/1/1 2/2/2 3/3/3
f 3/3/3 4/4/4 1/1/1
f 5/5/5 6/6/6 2/2/2
f 2/2/2 1/1/1 5/5/5
f 7/7/7 8/8/8 6/9/6
f 6/9/6 5/10/5 7/7/7
f 9/11/9 10/12/10 8/8/8
f 8/8/8 7/7/7 9/11/9
f 11/13/11 12/14/12 10/12/10
f 10/12/10 9/11/9 11/13/11
f 4/4/4 3/3/3 12/15/12
f 12/15/12 11/16/11 4/4/4
f 13/17/13 14/18/14 15/19/15
f 15/19/15 16/20/16 13/17/13
f 17/21/17 13/17/13 16/20/16
f 16/20/16 18/22/18 17/21/17
f 19/23/19 17/24/17 18/25/18
f 18/25/18 20/26/20 19/23/19
f 21/27/21 19/23/19 20/26/20
f 20/26/20 22/28/22 21/27/21
f 23/29/23 21/27/21 22/28/22
f 22/28/22 24/30/24 23/29/23
f 14/18/14 23/31/23 24/32/24
f 24/32/24 15/19/15 14/18/14
f 16/20/16 15/19/15 3/3/3
f 3/3/3 2/2/2 16/20/16
f 18/22/18 16/20/16 2/2/2
f 2/2/2 6/6/6 18/22/18
f 20/26/20 18/25/18 6/9/6
f 6/9/6 8/8/8 20/26/20
f 10/12/10 22/28/22 20/26/20
f 20/26/20 8/8/8 10/12/10
f 12/14/12 24/30/24 22/28/22
f 22/28/22 10/12/10 12/14/12
f 3/3/3 15/19/15 24/32/24
f 24/32/24 12/15/12 3/3/3
f 13/17/13 25/33/25 14/18/14
f 17/21/17 25/33/25 13/17/13
f 19/23/19 25/33/25 17/24/17
f 21/27/21 25/33/25 19/23/19
f 23/29/23 25/33/25 21/27/21
f 14/18/14 25/33/25 23/31/23
s 2
f 26/34/26 27/35/27 28/36/28
f 28/36/28 29/37/29 26/34/26
f 27/35/27 30/38/30 31/39/31
f 31/39/31 28/36/28 27/35/27
f 31/39/31 30/38/30 32/40/32
f 32/40/32 33/41/33 31/39/31
f 33/41/33 32/40/32 34/42/34
f 34/42/34 35/43/35 33/41/33
f 29/37/29 28/36/28 36/44/36
f 36/44/36 37/45/37 29/37/29
f 28/36/28 31/39/31 38/46/38
f 38/46/38 36/44/36 28/36/28
f 31/39/31 33/41/33 39/47/39
f 39/47/39 38/46/38 31/39/31
f 33/41/33 35/43/35 40/48/40
f 40/48/40 39/47/39 33/41/33
f 37/45/37 36/44/36 41/49/41
f 41/49/41 42/50/42 37/45/37
f 36/44/36 38/46/38 43/51/43
f 43/51/43 41/49/41 36/44/36
f 38/46/38 39/47/39 44/52/44
f 44/52/44 43/51/43 38/46/38
f 44/52/44 39/47/39 45/53/45
f 46/54/46 41/49/41 47/55/47
f 41/49/41 43/51/43 48/56/48
f 48/56/48 47/55/47 41/49/41
f 43/51/43 44/52/44 49/57/49
f 49/57/49 48/56/48 43/51/43
f 49/57/49 44/52/44 50/58/50
f 26/34/26 51/59/51 27/35/27
f 27/35/27 52/60/52 30/38/30
f 30/38/30 53/61/53 32/40/32
f 32/40/32 54/62/54 34/42/34
f 44/52/44 45/53/45 50/58/50
f 46/54/46 42/50/42 41/49/41
f 32/40/32 55/63/55 54/62/54
f 32/40/32 53/61/53 55/63/55
f 51/59/51 52/60/52 27/35/27
f 30/38/30 56/64/56 57/65/57
s 3
f 58/66/58 59/67/59 60/68/60
f 60/68/60 61/69/61 58/66/58
f 61/69/61 60/68/60 62/70/62
f 62/70/62 63/71/63 61/69/61
f 62/70/62 64/72/64 65/73/65
f 65/73/65 63/71/63 62/70/62
f 64/72/64 66/74/66 67/75/67
f 67/75/67 65/73/65 64/72/64
f 59/67/59 68/76/68 69/77/69
f 69/77/69 60/68/60 59/67/59
f 60/68/60 69/77/69 70/78/70
f 70/78/70 62/70/62 60/68/60
f 62/70/62 70/78/70 71/79/71
f 71/79/71 64/72/64 62/70/62
f 64/72/64 71/79/71 72/80/72
f 72/80/72 66/74/66 64/72/64
f 68/76/68 73/81/73 74/82/74
f 74/82/74 69/77/69 68/76/68
f 69/77/69 74/82/74 75/83/75
f 75/83/75 70/78/70 69/77/69
f 70/78/70 75/83/75 76/84/76
f 76/84/76 71/79/71 70/78/70
f 76/84/76 77/85/77 71/79/71
f 78/86/78 79/87/79 74/82/74
f 74/82/74 79/87/79 80/88/80
f 80/88/80 75/83/75 74/82/74
f 75/83/75 80/88/80 81/89/81
f 81/89/81 76/84/76 75/83/75
f 81/89/81 82/90/82 76/84/76
f 58/66/58 61/69/61 83/91/83
f 61/69/61 63/71/63 84/92/84
f 63/71/63 85/93/85 86/94/86
f 65/73/65 67/75/67 87/95/87
f 76/84/76 82/90/82 77/85/77
f 78/86/78 74/82/74 73/81/73
f 65/73/65 87/95/87 88/96/88
f 65/73/65 88/96/88 85/93/85
f 83/91/83 61/69/61 84/92/84
f 63/71/63 86/94/86 89/97/89
s 2
f 52/60/52 56/64/56 30/38/30
f 30/38/30 57/65/57 53/61/53
s 3
f 63/71/63 89/97/89 84/92/84
f 63/71/63 65/73/65 85/93/85
s 2
f 39/47/39 40/48/40 45/53/45
s 3
f 77/85/77 72/80/72 71/79/71
s 4
f 90/98/90 91/99/91 92/100/92
f 92/100/92 93/101/93 90/98/90
f 94/102/94 95/103/95 91/99/91
f 91/99/91 90/98/90 94/102/94
f 96/104/96 97/105/97 95/106/95
f 95/106/95 94/107/94 96/104/96
f 98/108/98 99/109/99 97/105/97
f 97/105/97 96/104/96 98/108/98
f 100/110/100 101/111/101 99/109/99
f 99/109/99 98/108/98 100/110/100
f 93/101/93 92/100/92 101/112/101
f 101/112/101 100/113/100 93/101/93
f 102/114/102 103/115/103 104/116/104
f 104/116/104 105/117/105 102/114/102
f 106/118/106 102/114/102 105/117/105
f 105/117/105 107/119/107 106/118/106
f 108/120/108 106/121/106 107/122/107
f 107/122/107 109/123/109 108/120/108
f 110/124/110 108/120/108 109/123/109
f 109/123/109 111/125/111 110/124/110
f 112/126/112 110/124/110 111/125/111
f 111/125/111 113/127/113 112/126/112
f 103/115/103 112/128/112 113/129/113
f 113/129/113 104/116/104 103/115/103
f 105/117/105 104/116/104 92/100/92
f 92/100/92 91/99/91 105/117/105
f 107/119/107 105/117/105 91/99/91
f 91/99/91 95/103/95 107/119/107
f 109/123/109 107/122/107 95/106/95
f 95/106/95 97/105/97 109/123/109
f 99/109/99 111/125/111 109/123/109
f 109/123/109 97/105/97 99/109/99
f 101/111/101 113/127/113 111/125/111
f 111/125/111 99/109/99 101/111/101
f 92/100/92 104/116/104 113/129/113
f 113/129/113 101/112/101 92/100/92
f 102/114/102 114/130/114 103/115/103
f 106/118/106 114/130/114 102/114/102
f 108/120/108 114/130/114 106/121/106
f 110/124/110 114/130/114 108/120/108
f 112/126/112 114/130/114 110/124/110
f 103/115/103 114/130/114 112/128/112
s 5
f 115/131/115 116/132/116 117/133/117
f 117/133/117 118/134/118 115/131/115
f 116/132/116 119/135/119 120/136/120
f 120/136/120 117/133/117 116/132/116
f 120/136/120 119/135/119 121/137/121
f 121/137/121 122/138/122 120/136/120
f 122/138/122 121/137/121 123/139/123
f 123/139/123 124/140/124 122/138/122
f 118/134/118 117/133/117 125/141/125
f 125/141/125 126/142/126 118/134/118
f 117/133/117 120/136/120 127/143/127
f 127/143/127 125/141/125 117/133/117
f 120/136/120 122/138/122 128/144/128
f 128/144/128 127/143/127 120/136/120
f 122/138/122 124/140/124 129/145/129
f 129/145/129 128/144/128 122/138/122
f 126/142/126 125/141/125 130/146/130
f 130/146/130 131/147/131 126/142/126
f 125/141/125 127/143/127 132/148/132
f 132/148/132 130/146/130 125/141/125
f 127/143/127 128/144/128 133/149/133
f 133/149/133 132/148/132 127/143/127
f 133/149/133 128/144/128 134/150/134
f 135/151/135 130/146/130 136/152/136
f 130/146/130 132/148/132 137/153/137
f 137/153/137 136/152/136 130/146/130
f 132/148/132 133/149/133 138/154/138
f 138/154/138 137/153/137 132/148/132
f 138/154/138 133/149/133 139/155/139
f 115/131/115 140/156/140 116/132/116
f 116/132/116 141/157/141 119/135/119
f 119/135/119 142/158/142 121/137/121
f 121/137/121 143/159/143 123/139/123
f 133/149/133 134/150/134 139/155/139
f 135/151/135 131/147/131 130/146/130
f 121/137/121 144/160/144 143/159/143
f 121/137/121 142/158/142 144/160/144
f 140/156/140 141/157/141 116/132/116
f 119/135/119 145/161/145 146/162/146
s 6
f 147/163/147 148/164/148 149/165/149
f 149/165/149 150/166/150 147/163/147
f 150/166/150 149/165/149 151/167/151
f 151/167/151 152/168/152 150/166/150
f 151/167/151 153/169/153 154/170/154
f 154/170/154 152/168/152 151/167/151
f 153/169/153 155/171/155 156/172/156
f 156/172/156 154/170/154 153/169/153
f 148/164/148 157/173/157 158/174/158
f 158/174/158 149/165/149 148/164/148
f 149/165/149 158/174/158 159/175/159
f 159/175/159 151/167/151 149/165/149
f 151/167/151 159/175/159 160/176/160
f 160/176/160 153/169/153 151/167/151
f 153/169/153 160/176/160 161/177/161
f 161/177/161 155/171/155 153/169/153
f 157/173/157 162/178/162 163/179/163
f 163/179/163 158/174/158 157/173/157
f 158/174/158 163/179/163 164/180/164
f 164/180/164 159/175/159 158/174/158
f 159/175/159 164/180/164 165/181/165
f 165/181/165 160/176/160 159/175/159
f 165/181/165 166/182/166 160/176/160
f 167/183/167 168/184/168 163/179/163
f 163/179/163 168/184/168 169/185/169
f 169/185/169 164/180/164 163/179/163
f 164/180/164 169/185/169 170/186/170
f 170/186/170 165/181/165 164/180/164
f 170/186/170 171/187/171 165/181/165
f 147/163/147 150/166/150 172/188/172
f 150/166/150 152/168/152 173/189/173
f 152/168/152 174/190/174 175/191/175
f 154/170/154 156/172/156 176/192/176
f 165/181/165 171/187/171 166/182/166
f 167/183/167 163/179/163 162/178/162
f 154/170/154 176/192/176 177/193/177
f 154/170/154 177/193/177 174/190/174
f 172/188/172 150/166/150 173/189/173
f 152/168/152 175/191/175 178/194/178
s 5
f 141/157/141 145/161/145 119/135/119
f 119/135/119 146/162/146 142/158/142
s 6
f 152/168/152 178/194/178 173/189/173
f 152/168/152 154/170/154 174/190/174
s 5
f 128/144/128 129/145/129 134/150/134
s 6
f 166/182/166 161/177/161 160/176/160
s 7
f 179/195/179 180/196/180 181/197/181
f 181/197/181 182/198/182 179/195/179
f 183/199/183 184/200/184 180/196/180
f 180/196/180 179/195/179 183/199/183
f 185/201/185 186/202/186 184/203/184
f 184/203/184 183/204/183 185/201/185
f 187/205/187 188/206/188 186/202/186
f 186/202/186 185/201/185 187/205/187
f 189/207/189 190/208/190 188/206/188
f 188/206/188 187/205/187 189/207/189
f 182/198/182 181/197/181 190/209/190
f 190/209/190 189/210/189 182/198/182
f 191/211/191 192/212/192 193/213/193
f 193/213/193 194/214/194 191/211/191
f 195/215/195 191/211/191 194/214/194
f 194/214/194 196/216/196 195/215/195
f 197/217/197 195/218/195 196/219/196
f 196/219/196 198/220/198 197/217/197
f 199/221/199 197/217/197 198/220/198
f 198/220/198 200/222/200 199/221/199
f 201/223/201 199/221/199 200/222/200
f 200/222/200 202/224/202 201/223/201
f 192/212/192 201/225/201 202/226/202
f 202/226/202 193/213/193 192/212/192
f 194/214/194 193/213/193 181/197/181
f 181/197/181 180/196/180 194/214/194
f 196/216/196 194/214/194 180/196/180
f 180/196/180 184/200/184 196/216/196
f 198/220/198 196/219/196 184/203/184
f 184/203/184 186/202/186 198/220/198
f 188/206/188 200/222/200 198/220/198
f 198/220/198 186/202/186 188/206/188
f 190/208/190 202/224/202 200/222/200
f 200/222/200 188/206/188 190/208/190
f 181/197/181 193/213/193 202/226/202
f 202/226/202 190/209/190 181/197/181
f 191/211/191 203/227/203 192/212/192
f 195/215/195 203/227/203 191/211/191
f 197/217/197 203/227/203 195/218/195
f 199/221/199 203/227/203 197/217/197
f 201/223/201 203/227/203 199/221/199
f 192/212/192 203/227/203 201/225/201
s 8
f 204/228/204 205/229/205 206/230/206
f 206/230/206 207/231/207 204/228/204
f 205/229/205 208/232/208 209/233/209
f 209/233/209 206/230/206 205/229/205
f 209/233/209 208/232/208 210/234/210
f 210/234/210 211/235/211 209/233/209
f 211/235/211 210/234/210 212/236/212
f 212/236/212 213/237/213 211/235/211
f 207/231/207 206/230/206 214/238/214
f 214/238/214 215/239/215 207/231/207
f 206/230/206 209/233/209 216/240/216
f 216/240/216 214/238/214 206/230/206
f 209/233/209 211/235/211 217/241/217
f 217/241/217 216/240/216 209/233/209
f 211/235/211 213/237/213 218/242/218
f 218/242/218 217/241/217 211/235/211
f 215/239/215 214/238/214 219/243/219
f 219/243/219 220/244/220 215/239/215
f 214/238/214 216/240/216 221/245/221
f 221/245/221 219/243/219 214/238/214
f 216/240/216 217/241/217 222/246/222
f 222/246/222 221/245/221 216/240/216
f 222/246/222 217/241/217 223/247/223
f 224/248/224 219/243/219 225/249/225
f 219/243/219 221/245/221 226/250/226
f 226/250/226 225/249/225 219/243/219
f 221/245/221 222/246/222 227/251/227
f 227/251/227 226/250/226 221/245/221
f 227/251/227 222/246/222 228/252/228
f 204/228/204 229/253/229 205/229/205
f 205/229/205 230/254/230 208/232/208
f 208/232/208 231/255/231 210/234/210
f 210/234/210 232/256/232 212/236/212
f 222/246/222 223/247/223 228/252/228
f 224/248/224 220/244/220 219/243/219
f 210/234/210 233/257/233 232/256/232
f 210/234/210 231/255/231 233/257/233
f 229/253/229 230/254/230 205/229/205
f 208/232/208 234/258/234 235/259/235
s 9
f 236/260/236 237/261/237 238/262/238
f 238/262/238 239/263/239 236/260/236
f 239/263/239 238/262/238 240/264/240
f 240/264/240 241/265/241 239/263/239
f 240/264/240 242/266/242 243/267/243
f 243/267/243 241/265/241 240/264/240
f 242/266/242 244/268/244 245/269/245
f 245/269/245 243/267/243 242/266/242
f 237/261/237 246/270/246 247/271/247
f 247/271/247 238/262/238 237/261/237
f 238/262/238 247/271/247 248/272/248
f 248/272/248 240/264/240 238/262/238
f 240/264/240 248/272/248 249/273/249
f 249/273/249 242/266/242 240/264/240
f 242/266/242 249/273/249 250/274/250
f 250/274/250 244/268/244 242/266/242
f 246/270/246 251/275/251 252/276/252
f 252/276/252 247/271/247 246/270/246
f 247/271/247 252/276/252 253/277/253
f 253/277/253 248/272/248 247/271/247
f 248/272/248 253/277/253 254/278/254
f 254/278/254 249/273/249 248/272/248
f 254/278/254 255/279/255 249/273/249
f 256/280/256 257/281/257 252/276/252
f 252/276/252 257/281/257 258/282/258
f 258/282/258 253/277/253 252/276/252
f 253/277/253 258/282/258 259/283/259
f 259/283/259 254/278/254 253/277/253
f 259/283/259 260/284/260 254/278/254
f 236/260/236 239/263/239 261/285/261
f 239/263/239 241/265/241 262/286/262
f 241/265/241 263/287/263 264/288/264
f 243/267/243 245/269/245 265/289/265
f 254/278/254 260/284/260 255/279/255
f 256/280/256 252/276/252 251/275/251
f 243/267/243 265/289/265 266/290/266
f 243/267/243 266/290/266 263/287/263
f 261/285/261 239/263/239 262/286/262
f 241/265/241 264/288/264 267/291/267
s 8
f 230/254/230 234/258/234 208/232/208
f 208/232/208 235/259/235 231/255/231
s 9
f 241/265/241 267/291/267 262/286/262
f 241/265/241 243/267/243 263/287/263
s 8
f 217/241/217 218/242/218 223/247/223
s 9
f 255/279/255 250/274/250 249/273/249
s 10
f 268/292/268 269/293/269 270/294/270
f 270/294/270 271/295/271 268/292/268
f 272/296/272 273/297/273 269/293/269
f 269/293/269 268/292/268 272/296/272
f 274/298/274 275/299/275 273/300/273
f 273/300/273 272/301/272 274/298/274
f 276/302/276 277/303/277 275/299/275
f 275/299/275 274/298/274 276/302/276
f 278/304/278 279/305/279 277/303/277
f 277/303/277 276/302/276 278/304/278
f 271/295/271 270/294/270 279/306/279
f 279/306/279 278/307/278 271/295/271
f 280/308/280 281/309/281 282/310/282
f 282/310/282 283/311/283 280/308/280
f 284/312/284 280/308/280 283/311/283
f 283/311/283 285/313/285 284/312/284
f 286/314/286 284/315/284 285/316/285
f 285/316/285 287/317/287 286/314/286
f 288/318/288 286/314/286 287/317/287
f 287/317/287 289/319/289 288/318/288
f 290/320/290 288/318/288 289/319/289
f 289/319/289 291/321/291 290/320/290
f 281/309/281 290/322/290 291/323/291
f 291/323/291 282/310/282 281/309/281
f 283/311/283 282/310/282 270/294/270
f 270/294/270 269/293/269 283/311/283
f 285/313/285 283/311/283 269/293/269
f 269/293/269 273/297/273 285/313/285
f 287/317/287 285/316/285 273/300/273
f 273/300/273 275/299/275 287/317/287
f 277/303/277 289/319/289 287/317/287
f 287/317/287 275/299/275 277/303/277
f 279/305/279 291/321/291 289/319/289
f 289/319/289 277/303/277 279/305/279
f 270/294/270 282/310/282 291/323/291
f 291/323/291 279/306/279 270/294/270
f 280/308/280 292/324/292 281/309/281
f 284/312/284 292/324/292 280/308/280
f 286/314/286 292/324/292 284/315/284
f 288/318/288 292/324/292 286/314/286
f 290/320/290 292/324/292 288/318/288
f 281/309/281 292/324/292 290/322/290
s 11
f 293/325/293 294/326/294 295/327/295
f 295/327/295 296/328/296 293/325/293
f 294/326/294 297/329/297 298/330/298
f 298/330/298 295/327/295 294/326/294
f 298/330/298 297/329/297 299/331/299
f 299/331/299 300/332/300 298/330/298
f 300/332/300 299/331/299 301/333/301
f 301/333/301 302/334/302 300/332/300
f 296/328/296 295/327/295 303/335/303
f 303/335/303 304/336/304 296/328/296
f 295/327/295 298/330/298 305/337/305
f 305/337/305 303/335/303 295/327/295
f 298/330/298 300/332/300 306/338/306
f 306/338/306 305/337/305 298/330/298
f 300/332/300 302/334/302 307/339/307
f 307/339/307 306/338/306 300/332/300
f 304/336/304 303/335/303 308/340/308
f 308/340/308 309/341/309 304/336/304
f 303/335/303 305/337/305 310/342/310
f 310/342/310 308/340/308 303/335/303
f 305/337/305 306/338/306 311/343/311
f 311/343/311 310/342/310 305/337/305
f 311/343/311 306/338/306 312/344/312
f 313/345/313 308/340/308 314/346/314
f 308/340/308 310/342/310 315/347/315
f 315/347/315 314/346/314 308/340/308
f 310/342/310 311/343/311 316/348/316
f 316/348/316 315/347/315 310/342/310
f 316/348/316 311/343/311 317/349/317
f 293/325/293 318/350/318 294/326/294
f 294/326/294 319/351/319 297/329/297
f 297/329/297 320/352/320 299/331/299
f 299/331/299 321/353/321 301/333/301
f 311/343/311 312/344/312 317/349/317
f 313/345/313 309/341/309 308/340/308
f 299/331/299 322/354/322 321/353/321
f 299/331/299 320/352/320 322/354/322
f 318/350/318 319/351/319 294/326/294
f 297/329/297 323/355/323 324/356/324
s 12
f 325/357/325 326/358/326 327/359/327
f 327/359/327 328/360/328 325/357/325
f 328/360/328 327/359/327 329/361/329
f 329/361/329 330/362/330 328/360/328
f 329/361/329 331/363/331 332/364/332
f 332/364/332 330/362/330 329/361/329
f 331/363/331 333/365/333 334/366/334
f 334/366/334 332/364/332 331/363/331
f 326/358/326 335/367/335 336/368/336
f 336/368/336 327/359/327 326/358/326
f 327/359/327 336/368/336 337/369/337
f 337/369/337 329/361/329 327/359/327
f 329/361/329 337/369/337 338/370/338
f 338/370/338 331/363/331 329/361/329
f 331/363/331 338/370/338 339/371/339
f 339/371/339 333/365/333 331/363/331
f 335/367/335 340/372/340 341/373/341
f 341/373/341 336/368/336 335/367/335
f 336/368/336 341/373/341 342/374/342
f 342/374/342 337/369/337 336/368/336
f 337/369/337 342/374/342 343/375/343
f 343/375/343 338/370/338 337/369/337
f 343/375/343 344/376/344 338/370/338
f 345/377/345 346/378/346 341/373/341
f 341/373/341 346/378/346 347/379/347
f 347/379/347 342/374/342 341/373/341
f 342/374/342 347/379/347 348/380/348
f 348/380/348 343/375/343 342/374/342
f 348/380/348 349/381/349 343/375/343
f 325/357/325 328/360/328 350/382/350
f 328/360/328 330/362/330 351/383/351
f 330/362/330 352/384/352 353/385/353
f 332/364/332 334/366/334 354/386/354
f 343/375/343 349/381/349 344/376/344
f 345/377/345 341/373/341 340/372/340
f 332/364/332 354/386/354 355/387/355
f 332/364/332 355/387/355 352/384/352
f 350/382/350 328/360/328 351/383/351
f 330/362/330 353/385/353 356/388/356
s 11
f 319/351/319 323/355/323 297/329/297
f 297/329/297 324/356/324 320/352/320
s 12
f 330/362/330 356/388/356 351/383/351
f 330/362/330 332/364/332 352/384/352
s 11
f 306/338/306 307/339/307 312/344/312
s 12
f 344/376/344 339/371/339 338/370/338
s 13
f 357/389/357 358/390/358 359/391/359
f 359/391/359 360/392/360 357/389/357
f 361/393/361 362/394/362 358/390/358
f 358/390/358 357/389/357 361/393/361
f 363/395/363 364/396/364 362/397/362
f 362/397/362 361/398/361 363/395/363
f 365/399/365 366/400/366 364/396/364
f 364/396/364 363/395/363 365/399/365
f 367/401/367 368/402/368 366/400/366
f 366/400/366 365/399/365 367/401/367
f 360/392/360 359/391/359 368/403/368
f 368/403/368 367/404/367 360/392/360
f 369/405/369 370/406/370 371/407/371
f 371/407/371 372/408/372 369/405/369
f 373/409/373 369/405/369 372/408/372
f 372/408/372 374/410/374 373/409/373
f 375/411/375 373/412/373 374/413/374
f 374/413/374 376/414/376 375/411/375
f 377/415/377 375/411/375 376/414/376
f 376/414/376 378/416/378 377/415/377
f 379/417/379 377/415/377 378/416/378
f 378/416/378 380/418/380 379/417/379
f 370/406/370 379/419/379 380/420/380
f 380/420/380 371/407/371 370/406/370
f 372/408/372 371/407/371 359/391/359
f 359/391/359 358/390/358 372/408/372
f 374/410/374 372/408/372 358/390/358
f 358/390/358 362/394/362 374/410/374
f 376/414/376 374/413/374 362/397/362
f 362/397/362 364/396/364 376/414/376
f 366/400/366 378/416/378 376/414/376
f 376/414/376 364/396/364 366/400/366
f 368/402/368 380/418/380 378/416/378
f 378/416/378 366/400/366 368/402/368
f 359/391/359 371/407/371 380/420/380
f 380/420/380 368/403/368 359/391/359
f 369/405/369 381/421/381 370/406/370
f 373/409/373 381/421/381 369/405/369
f 375/411/375 381/421/381 373/412/373
f 377/415/377 381/421/381 375/411/375
f 379/417/379 381/421/381 377/415/377
f 370/406/370 381/421/381 379/419/379
s 14
f 382/422/382 383/423/383 384/424/384
f 384/424/384 385/425/385 382/422/382
f 383/423/383 386/426/386 387/427/387
f 387/427/387 384/424/384 383/423/383
f 387/427/387 386/426/386 388/428/388
f 388/428/388 389/429/389 387/427/387
f 389/429/389 388/428/388 390/430/390
f 390/430/390 391/431/391 389/429/389
f 385/425/385 384/424/384 392/432/392
f 392/432/392 393/433/393 385/425/385
f 384/424/384 387/427/387 394/434/394
f 394/434/394 392/432/392 384/424/384
f 387/427/387 389/429/389 395/435/395
f 395/435/395 394/434/394 387/427/387
f 389/429/389 391/431/391 396/436/396
f 396/436/396 395/435/395 389/429/389
f 393/433/393 392/432/392 397/437/397
f 397/437/397 398/438/398 393/433/393
f 392/432/392 394/434/394 399/439/399
f 399/439/399 397/437/397 392/432/392
f 394/434/394 395/435/395 400/440/400
f 400/440/400 399/439/399 394/434/394
f 400/440/400 395/435/395 401/441/401
f 402/442/402 397/437/397 403/443/403
f 397/437/397 399/439/399 404/444/404
f 404/444/404 403/443/403 397/437/397
f 399/439/399 400/440/400 405/445/405
f 405/445/405 404/444/404 399/439/399
f 405/445/405 400/440/400 406/446/406
f 382/422/382 407/447/407 383/423/383
f 383/423/383 408/448/408 386/426/386
f 386/426/386 409/449/409 388/428/388
f 388/428/388 410/450/410 390/430/390
f 400/440/400 401/441/401 406/446/406
f 402/442/402 398/438/398 397/437/397
f 388/428/388 411/451/411 410/450/410
f 388/428/388 409/449/409 411/451/411
f 407/447/407 408/448/408 383/423/383
f 386/426/386 412/452/412 413/453/413
s 15
f 414/454/414 415/455/415 416/456/416
f 416/456/416 417/457/417 414/454/414
f 417/457/417 416/456/416 418/458/418
f 418/458/418 419/459/419 417/457/417
f 418/458/418 420/460/420 421/461/421
f 421/461/421 419/459/419 418/458/418
f 420/460/420 422/462/422 423/463/423
f 423/463/423 421/461/421 420/460/420
f 415/455/415 424/464/424 425/465/425
f 425/465/425 416/456/416 415/455/415
f 416/456/416 425/465/425 426/466/426
f 426/466/426 418/458/418 416/456/416
f 418/458/418 426/466/426 427/467/427
f 427/467/427 420/460/420 418/458/418
f 420/460/420 427/467/427 428/468/428
f 428/468/428 422/462/422 420/460/420
f 424/464/424 429/469/429 430/470/430
f 430/470/430 425/465/425 424/464/424
f 425/465/425 430/470/430 431/471/431
f 431/471/431 426/466/426 425/465/425
f 426/466/426 431/471/431 432/472/432
f 432/472/432 427/467/427 426/466/426
f 432/472/432 433/473/433 427/467/427
f 434/474/434 435/475/435 430/470/430
f 430/470/430 435/475/435 436/476/436
f 436/476/436 431/471/431 430/470/430
f 431/471/431 436/476/436 437/477/437
f 437/477/437 432/472/432 431/471/431
f 437/477/437 438/478/438 432/472/432
f 414/454/414 417/457/417 439/479/439
f 417/457/417 419/459/419 440/480/440
f 419/459/419 441/481/441 442/482/442
f 421/461/421 423/463/423 443/483/443
f 432/472/432 438/478/438 433/473/433
f 434/474/434 430/470/430 429/469/429
f 421/461/421 443/483/443 444/484/444
f 421/461/421 444/484/444 441/481/441
f 439/479/439 417/457/417 440/480/440
f 419/459/419 442/482/442 445/485/445
s 14
f 408/448/408 412/452/412 386/426/386
f 386/426/386 413/453/413 409/449/409
s 15
f 419/459/419 445/485/445 440/480/440
f 419/459/419 421/461/421 441/481/441
s 14
f 395/435/395 396/436/396 401/441/401
s 15
f 433/473/433 428/468/428 427/467/427
s 16
f 446/486/446 447/487/447 448/488/448
f 448/488/448 449/489/449 446/486/446
f 450/490/450 451/491/451 447/487/447
f 447/487/447 446/486/446 450/490/450
f 452/492/452 453/493/453 451/494/451
f 451/494/451 450/495/450 452/492/452
f 454/496/454 455/497/455 453/493/453
f 453/493/453 452/492/452 454/496/454
f 456/498/456 457/499/457 455/497/455
f 455/497/455 454/496/454 456/498/456
f 449/489/449 448/488/448 457/500/457
f 457/500/457 456/501/456 449/489/449
f 458/502/458 459/503/459 460/504/460
f 460/504/460 461/505/461 458/502/458
f 462/506/462 458/502/458 461/505/461
f 461/505/461 463/507/463 462/506/462
f 464/508/464 462/509/462 463/510/463
f 463/510/463 465/511/465 464/508/464
f 466/512/466 464/508/464 465/511/465
f 465/511/465 467/513/467 466/512/466
f 468/514/468 466/512/466 467/513/467
f 467/513/467 469/515/469 468/514/468
f 459/503/459 468/516/468 469/517/469
f 469/517/469 460/504/460 459/503/459
f 461/505/461 460/504/460 448/488/448
f 448/488/448 447/487/447 461/505/461
f 463/507/463 461/505/461 447/487/447
f 447/487/447 451/491/451 463/507/463
f 465/511/465 463/510/463 451/494/451
f 451/494/451 453/493/453 465/511/465
f 455/497/455 467/513/467 465/511/465
f 465/511/465 453/493/453 455/497/455
f 457/499/457 469/515/469 467/513/467
f 467/513/467 455/497/455 457/499/457
f 448/488/448 460/504/460 469/517/469
f 469/517/469 457/500/457 448/488/448
f 458/502/458 470/518/470 459/503/459
f 462/506/462 470/518/470 458/502/458
f 464/508/464 470/518/470 462/509/462
f 466/512/466 470/518/470 464/508/464
f 468/514/468 470/518/470 466/512/466
f 459/503/459 470/518/470 468/516/468
s 17
f 471/519/471 472/520/472 473/521/473
f 473/521/473 474/522/474 471/519/471
f 472/520/472 475/523/475 476/524/476
f 476/524/476 473/521/473 472/520/472
f 476/524/476 475/523/475 477/525/477
f 477/525/477 478/526/478 476/524/476
f 478/526/478 477/525/477 479/527/479
f 479/527/479 480/528/480 478/526/478
f 474/522/474 473/521/473 481/529/481
f 481/529/481 482/530/482 474/522/474
f 473/521/473 476/524/476 483/531/483
f 483/531/483 481/529/481 473/521/473
f 476/524/476 478/526/478 484/532/484
f 484/532/484 483/531/483 476/524/476
f 478/526/478 480/528/480 485/533/485
f 485/533/485 484/532/484 478/526/478
f 482/530/482 481/529/481 486/534/486
f 486/534/486 487/535/487 482/530/482
f 481/529/481 483/531/483 488/536/488
f 488/536/488 486/534/486 481/529/481
f 483/531/483 484/532/484 489/537/489
f 489/537/489 488/536/488 483/531/483
f 489/537/489 484/532/484 490/538/490
f 491/539/491 486/534/486 492/540/492
f 486/534/486 488/536/488 493/541/493
f 493/541/493 492/540/492 486/534/486
f 488/536/488 489/537/489 494/542/494
f 494/542/494 493/541/493 488/536/488
f 494/542/494 489/537/489 495/543/495
f 471/519/471 496/544/496 472/520/472
f 472/520/472 497/545/497 475/523/475
f 475/523/475 498/546/498 477/525/477
f 477/525/477 499/547/499 479/527/479
f 489/537/489 490/538/490 495/543/495
f 491/539/491 487/535/487 486/534/486
f 477/525/477 500/548/500 499/547/499
f 477/525/477 498/546/498 500/548/500
f 496/544/496 497/545/497 472/520/472
f 475/523/475 501/549/501 502/550/502
s 18
f 503/551/503 504/552/504 505/553/505
f 505/553/505 506/554/506 503/551/503
f 506/554/506 505/553/505 507/555/507
f 507/555/507 508/556/508 506/554/506
f 507/555/507 509/557/509 510/558/510
f 510/558/510 508/556/508 507/555/507
f 509/557/509 511/559/511 512/560/512
f 512/560/512 510/558/510 509/557/509
f 504/552/504 513/561/513 514/562/514
f 514/562/514 505/553/505 504/552/504
f 505/553/505 514/562/514 515/563/515
f 515/563/515 507/555/507 505/553/505
f 507/555/507 515/563/515 516/564/516
f 516/564/516 509/557/509 507/555/507
f 509/557/509 516/564/516 517/565/517
f 517/565/517 511/559/511 509/557/509
f 513/561/513 518/566/518 519/567/519
f 519/567/519 514/562/514 513/561/513
f 514/562/514 519/567/519 520/568/520
f 520/568/520 515/563/515 514/562/514
f 515/563/515 520/568/520 521/569/521
f 521/569/521 516/564/516 515/563/515
f 521/569/521 522/570/522 516/564/516
f 523/571/523 524/572/524 519/567/519
f 519/567/519 524/572/524 525/573/525
f 525/573/525 520/568/520 519/567/519
f 520/568/520 525/573/525 526/574/526
f 526/574/526 521/569/521 520/568/520
f 526/574/526 527/575/527 521/569/521
f 503/551/503 506/554/506 528/576/528
f 506/554/506 508/556/508 529/577/529
f 508/556/508 530/578/530 531/579/531
f 510/558/510 512/560/512 532/580/532
f 521/569/521 527/575/527 522/570/522
f 523/571/523 519/567/519 518/566/518
f 510/558/510 532/580/532 533/581/533
f 510/558/510 533/581/533 530/578/530
f 528/576/528 506/554/506 529/577/529
f 508/556/508 531/579/531 534/582/534
s 17
f 497/545/497 501/549/501 475/523/475
f 475/523/475 502/550/502 498/546/498
s 18
f 508/556/508 534/582/534 529/577/529
f 508/556/508 510/558/510 530/578/530
s 17
f 484/532/484 485/533/485 490/538/490
s 18
f 522/570/522 517/565/517 516/564/516
