# Blender v3.3.0 OBJ File: ''
# www.blender.org
o ItemDargaFern.005
v 0.002778 -0.012322 0.001027
v -0.006922 0.031831 0.001008
v -0.001555 0.033003 -0.001541
v 0.008266 -0.012322 -0.001532
v 0.002170 -0.012322 0.004152
v -0.007473 0.031457 0.004122
v 0.003516 -0.012322 0.007038
v -0.006104 0.031443 0.006996
v 0.009461 -0.012322 0.008193
v -0.000232 0.032376 0.008147
v 0.012397 -0.012322 0.002897
v 0.002579 0.033340 0.002871
v -0.003280 0.089981 0.020240
v 0.001988 0.090923 0.017265
v -0.002623 0.067025 0.004401
v -0.008278 0.066912 0.006746
v -0.003595 0.089383 0.023388
v -0.009115 0.065704 0.009610
v -0.001972 0.089005 0.026142
v -0.007989 0.064253 0.012255
v 0.004105 0.089344 0.026814
v -0.002155 0.062723 0.013314
v 0.006552 0.090529 0.021328
v 0.001161 0.064436 0.008460
v 0.001606 0.095357 0.023888
v 0.038752 0.084820 0.023409
v 0.020704 0.097444 0.032141
v 0.031178 0.098177 0.052529
v 0.051216 0.084207 0.046712
v 0.007771 0.087221 0.039117
v 0.015855 0.087663 0.057066
v -0.010809 0.094854 0.041451
v -0.003813 0.095168 0.062832
v -0.025827 0.083224 0.046814
v -0.019050 0.082913 0.067365
v 0.042473 0.086808 0.086521
v 0.058781 0.074971 0.078903
v 0.028507 0.077011 0.088637
v 0.012630 0.085007 0.094628
v -0.002567 0.075935 0.097045
v 0.050303 0.069990 0.115979
v 0.059564 0.061835 0.109779
v 0.039751 0.061659 0.115627
v 0.031095 0.070085 0.121171
v 0.021853 0.070198 0.123754
v 0.056678 0.058334 0.127326
v 0.052368 0.047614 0.142509
v 0.049539 0.045380 0.146137
v 0.046200 0.048104 0.143214
v 0.035434 0.059060 0.133358
v 0.023532 0.087464 0.009341
v 0.010711 0.096600 0.011725
v -0.007358 0.092557 0.021139
v -0.025172 0.090385 0.030496
v -0.016541 0.095142 0.021821
v 0.001332 0.087110 0.020230
v -0.002177 0.086672 0.021500
v 0.038650 0.083201 0.023272
v 0.051112 0.082590 0.046570
v 0.031180 0.096539 0.052358
v 0.020695 0.095809 0.031977
v 0.015869 0.086033 0.056889
v 0.007787 0.085586 0.038945
v -0.003736 0.093539 0.062639
v -0.010731 0.093221 0.041262
v -0.018862 0.081350 0.067136
v -0.025636 0.081655 0.046590
v 0.058618 0.073359 0.078634
v 0.042398 0.085183 0.086205
v 0.028460 0.075393 0.088317
v 0.012663 0.083399 0.094310
v -0.002423 0.074374 0.096706
v 0.059312 0.060331 0.109266
v 0.050092 0.068493 0.115439
v 0.039609 0.060140 0.115095
v 0.030975 0.068524 0.120664
v 0.021745 0.068617 0.123270
v 0.056466 0.056852 0.126753
v 0.052214 0.046126 0.141916
v 0.049385 0.043892 0.145544
v 0.046045 0.046617 0.142621
v 0.035294 0.057552 0.132802
v 0.023430 0.085845 0.009204
v 0.010675 0.094973 0.011569
v -0.007342 0.090923 0.020968
v -0.002160 0.085037 0.021329
v -0.025054 0.088773 0.030294
v -0.016510 0.093499 0.021645
v 0.001343 0.085470 0.020060
v -0.004072 -0.010950 0.002078
v 0.005806 0.031330 -0.003910
v -0.000135 0.032474 -0.004172
v -0.010128 -0.010950 0.002078
v -0.002201 -0.011616 -0.000410
v 0.007621 0.030299 -0.006314
v -0.002201 -0.012440 -0.003485
v 0.007596 0.029461 -0.009385
v -0.007100 -0.013362 -0.006924
v 0.002761 0.029451 -0.013031
v -0.011999 -0.012440 -0.003485
v -0.002017 0.031312 -0.009809
v 0.007246 0.116081 -0.024843
v 0.001214 0.117133 -0.024815
v 0.002956 0.081412 -0.006590
v 0.009073 0.081276 -0.006336
v 0.008861 0.114390 -0.027056
v 0.011042 0.080267 -0.008675
v 0.008554 0.112702 -0.029780
v 0.011139 0.079073 -0.011663
v 0.003331 0.111666 -0.032803
v 0.006299 0.077847 -0.015208
v -0.001206 0.114405 -0.029735
v 0.001242 0.079292 -0.012073
v 0.004358 0.118683 -0.031983
v -0.028355 0.106570 -0.043036
v -0.008874 0.118690 -0.046580
v -0.009726 0.113470 -0.068893
v -0.029762 0.099149 -0.068365
v 0.005381 0.108594 -0.044760
v 0.005633 0.103927 -0.063888
v 0.022704 0.117452 -0.041195
v 0.025322 0.111974 -0.062850
v 0.038132 0.106603 -0.036749
v 0.040604 0.100740 -0.057426
v -0.005713 0.093280 -0.100318
v -0.023204 0.081849 -0.097244
v 0.007456 0.084848 -0.093935
v 0.023899 0.092903 -0.094767
v 0.038276 0.085235 -0.088332
v -0.000511 0.069269 -0.124950
v -0.011214 0.061833 -0.121192
v 0.008637 0.062458 -0.118179
v 0.018537 0.070243 -0.121679
v 0.027737 0.070757 -0.120197
v -0.001466 0.054650 -0.134469
v 0.008565 0.041206 -0.143227
v 0.012547 0.038507 -0.144671
v 0.014288 0.042189 -0.141453
v 0.019721 0.056261 -0.131266
v -0.020728 0.114089 -0.025191
v -0.008458 0.123756 -0.024409
v 0.011322 0.119621 -0.024227
v 0.030854 0.117275 -0.024585
v 0.019690 0.122962 -0.021745
v 0.003296 0.113622 -0.025569
v 0.006907 0.113284 -0.025136
v -0.028324 0.105192 -0.042212
v -0.029731 0.097775 -0.067536
v -0.009801 0.112070 -0.068077
v -0.008936 0.117293 -0.045766
v 0.005545 0.102535 -0.063074
v 0.005293 0.107196 -0.043951
v 0.025173 0.110580 -0.062048
v 0.022554 0.116053 -0.040395
v 0.040341 0.099406 -0.056655
v 0.037870 0.105261 -0.035982
v -0.023174 0.080515 -0.096281
v -0.005780 0.091935 -0.099347
v 0.007363 0.083508 -0.092973
v 0.023737 0.091563 -0.093843
v 0.038007 0.083934 -0.087446
v -0.011205 0.060670 -0.120008
v -0.000549 0.068115 -0.123761
v 0.008541 0.061273 -0.117019
v 0.018432 0.069010 -0.120539
v 0.027631 0.069499 -0.119076
v -0.001517 0.053519 -0.133254
v 0.008455 0.040067 -0.142017
v 0.012437 0.037368 -0.143460
v 0.014178 0.041051 -0.140243
v 0.019614 0.055093 -0.130088
v -0.020697 0.112711 -0.024367
v -0.008492 0.122369 -0.023594
v 0.011235 0.118222 -0.023418
v 0.006820 0.111886 -0.024326
v 0.030664 0.115896 -0.023796
v 0.019588 0.121555 -0.020935
v 0.003214 0.112218 -0.024757
vt 0.044400 0.688500
vt 0.044400 0.764100
vt 0.026300 0.764100
vt 0.026300 0.688500
vt 0.053400 0.688500
vt 0.053400 0.764100
vt 0.017300 0.688500
vt 0.017300 0.764100
vt 0.008900 0.764100
vt 0.008900 0.688500
vt 0.035300 0.688500
vt 0.035300 0.764100
vt 0.053400 0.688500
vt 0.053400 0.764100
vt 0.008900 0.764100
vt 0.008900 0.688500
vt 0.044400 0.915300
vt 0.026300 0.915300
vt 0.026300 0.839700
vt 0.044400 0.839700
vt 0.053400 0.915300
vt 0.053400 0.839700
vt 0.017300 0.915300
vt 0.008900 0.915300
vt 0.008900 0.839700
vt 0.017300 0.839700
vt 0.035300 0.915300
vt 0.035300 0.839700
vt 0.053400 0.915300
vt 0.053400 0.839700
vt 0.008900 0.915300
vt 0.008900 0.839700
vt 0.031000 0.988700
vt 0.035500 0.136200
vt 0.112000 0.159700
vt 0.099700 0.352500
vt 0.022000 0.353600
vt 0.178500 0.170600
vt 0.174300 0.349500
vt 0.261400 0.152300
vt 0.266200 0.348900
vt 0.343600 0.149600
vt 0.348700 0.341800
vt 0.114000 0.600700
vt 0.043900 0.624000
vt 0.174700 0.592000
vt 0.254400 0.597000
vt 0.331500 0.612500
vt 0.140600 0.777400
vt 0.083200 0.777700
vt 0.177200 0.775000
vt 0.229600 0.774100
vt 0.271500 0.772300
vt 0.126300 0.933600
vt 0.169900 0.973500
vt 0.186400 0.982800
vt 0.202700 0.957900
vt 0.232100 0.919400
vt 0.079600 0.033900
vt 0.127700 0.027500
vt 0.225500 0.038700
vt 0.305900 0.047200
vt 0.256900 0.032800
vt 0.180400 0.043000
vt 0.195600 0.045000
vt 0.035500 0.136200
vt 0.022000 0.353600
vt 0.099700 0.352500
vt 0.112000 0.159700
vt 0.174300 0.349500
vt 0.178500 0.170600
vt 0.266200 0.348900
vt 0.261400 0.152300
vt 0.348700 0.341800
vt 0.343600 0.149600
vt 0.043900 0.624000
vt 0.114000 0.600700
vt 0.174700 0.592000
vt 0.254400 0.597000
vt 0.331500 0.612500
vt 0.083200 0.777700
vt 0.140600 0.777400
vt 0.177200 0.775000
vt 0.229600 0.774100
vt 0.271500 0.772300
vt 0.126300 0.933600
vt 0.169900 0.973500
vt 0.186400 0.982800
vt 0.202700 0.957900
vt 0.232100 0.919400
vt 0.079600 0.033900
vt 0.127700 0.027500
vt 0.225500 0.038700
vt 0.195600 0.045000
vt 0.305900 0.047200
vt 0.256900 0.032800
vt 0.180400 0.043000
vt 0.044400 0.688500
vt 0.044400 0.764100
vt 0.026300 0.764100
vt 0.026300 0.688500
vt 0.053400 0.688500
vt 0.053400 0.764100
vt 0.017300 0.688500
vt 0.017300 0.764100
vt 0.008900 0.764100
vt 0.008900 0.688500
vt 0.035300 0.688500
vt 0.035300 0.764100
vt 0.053400 0.688500
vt 0.053400 0.764100
vt 0.008900 0.764100
vt 0.008900 0.688500
vt 0.044400 0.915300
vt 0.026300 0.915300
vt 0.026300 0.839700
vt 0.044400 0.839700
vt 0.053400 0.915300
vt 0.053400 0.839700
vt 0.017300 0.915300
vt 0.008900 0.915300
vt 0.008900 0.839700
vt 0.017300 0.839700
vt 0.035300 0.915300
vt 0.035300 0.839700
vt 0.053400 0.915300
vt 0.053400 0.839700
vt 0.008900 0.915300
vt 0.008900 0.839700
vt 0.031000 0.988700
vt 0.035500 0.136200
vt 0.112000 0.159700
vt 0.099700 0.352500
vt 0.022000 0.353600
vt 0.178500 0.170600
vt 0.174300 0.349500
vt 0.261400 0.152300
vt 0.266200 0.348900
vt 0.343600 0.149600
vt 0.348700 0.341800
vt 0.114000 0.600700
vt 0.043900 0.624000
vt 0.174700 0.592000
vt 0.254400 0.597000
vt 0.331500 0.612500
vt 0.140600 0.777400
vt 0.083200 0.777700
vt 0.177200 0.775000
vt 0.229600 0.774100
vt 0.271500 0.772300
vt 0.126300 0.933600
vt 0.169900 0.973500
vt 0.186400 0.982800
vt 0.202700 0.957900
vt 0.232100 0.919400
vt 0.079600 0.033900
vt 0.127700 0.027500
vt 0.225500 0.038700
vt 0.305900 0.047200
vt 0.256900 0.032800
vt 0.180400 0.043000
vt 0.195600 0.045000
vt 0.035500 0.136200
vt 0.022000 0.353600
vt 0.099700 0.352500
vt 0.112000 0.159700
vt 0.174300 0.349500
vt 0.178500 0.170600
vt 0.266200 0.348900
vt 0.261400 0.152300
vt 0.348700 0.341800
vt 0.343600 0.149600
vt 0.043900 0.624000
vt 0.114000 0.600700
vt 0.174700 0.592000
vt 0.254400 0.597000
vt 0.331500 0.612500
vt 0.083200 0.777700
vt 0.140600 0.777400
vt 0.177200 0.775000
vt 0.229600 0.774100
vt 0.271500 0.772300
vt 0.126300 0.933600
vt 0.169900 0.973500
vt 0.186400 0.982800
vt 0.202700 0.957900
vt 0.232100 0.919400
vt 0.079600 0.033900
vt 0.127700 0.027500
vt 0.225500 0.038700
vt 0.195600 0.045000
vt 0.305900 0.047200
vt 0.256900 0.032800
vt 0.180400 0.043000
vn -0.7513 -0.1645 -0.6392
vn -0.7874 -0.0549 -0.6140
vn 0.1412 0.1048 -0.9844
vn 0.2642 0.0561 -0.9628
vn -0.9691 -0.2131 0.1243
vn -0.9841 -0.1425 0.1064
vn -0.5691 -0.1246 0.8128
vn -0.6245 -0.1468 0.7671
vn 0.4811 0.1049 0.8703
vn 0.4189 -0.0159 0.9079
vn 0.9715 0.2098 -0.1102
vn 0.9764 0.1460 -0.1592
vn -0.7610 0.5527 -0.3396
vn 0.1231 0.6134 -0.7801
vn 0.1985 0.3147 -0.9282
vn -0.7360 0.2910 -0.6113
vn -0.8990 0.3251 0.2933
vn -0.9966 0.0664 0.0496
vn -0.5013 0.0540 0.8636
vn -0.6997 -0.1804 0.6913
vn 0.4986 -0.0056 0.8668
vn 0.3489 -0.3057 0.8859
vn 0.9511 0.2912 -0.1036
vn 0.9898 -0.0255 -0.1401
vn 0.0031 0.9725 0.2327
vn 0.4647 0.8394 -0.2819
vn -0.0359 0.9987 -0.0355
vn 0.0624 0.9905 0.1228
vn 0.5613 0.8246 -0.0704
vn -0.0826 0.9961 0.0307
vn -0.0619 0.9809 0.1843
vn -0.0983 0.9928 0.0685
vn -0.1096 0.9783 0.1761
vn -0.5445 0.8025 0.2437
vn -0.5328 0.7820 0.3234
vn 0.1060 0.9159 0.3872
vn 0.6392 0.7517 0.1625
vn 0.0459 0.9306 0.3631
vn 0.0505 0.9377 0.3438
vn -0.4062 0.7786 0.4784
vn 0.1255 0.8497 0.5121
vn 0.7288 0.6374 0.2503
vn 0.1201 0.8897 0.4404
vn 0.4520 0.8178 0.3563
vn 0.0653 0.8562 0.5124
vn 0.4024 0.7420 0.5362
vn 0.2097 0.7554 0.6208
vn 0.0961 0.8349 0.5419
vn 0.4480 0.8340 0.3222
vn 0.2093 0.7611 0.6140
vn 0.4795 0.8242 -0.3013
vn -0.0284 0.9985 -0.0473
vn 0.4420 0.8817 -0.1648
vn -0.4392 0.8709 0.2205
vn -0.0234 0.9995 0.0215
vn -0.3964 0.9088 0.1298
vn 0.4097 0.8748 -0.2586
vn -0.4657 -0.8385 0.2828
vn -0.5628 -0.8236 0.0705
vn -0.0635 -0.9904 -0.1230
vn 0.0353 -0.9987 0.0357
vn 0.0613 -0.9809 -0.1844
vn 0.0825 -0.9961 -0.0306
vn 0.1096 -0.9782 -0.1763
vn 0.0979 -0.9929 -0.0682
vn 0.5334 -0.7814 -0.3238
vn 0.5452 -0.8020 -0.2440
vn -0.6409 -0.7501 -0.1630
vn -0.1068 -0.9155 -0.3878
vn -0.0470 -0.9303 -0.3636
vn -0.0516 -0.9375 -0.3443
vn 0.4067 -0.7779 -0.4790
vn -0.7303 -0.6357 -0.2502
vn -0.1241 -0.8496 -0.5127
vn -0.1184 -0.8898 -0.4408
vn -0.4518 -0.8177 -0.3568
vn -0.0650 -0.8556 -0.5135
vn -0.4034 -0.7417 -0.5359
vn -0.2103 -0.7551 -0.6210
vn -0.0962 -0.8346 -0.5423
vn -0.4482 -0.8339 -0.3220
vn -0.2110 -0.7613 -0.6131
vn -0.4808 -0.8230 0.3024
vn 0.0286 -0.9985 0.0474
vn -0.4420 -0.8816 0.1655
vn -0.4100 -0.8746 0.2588
vn 0.4393 -0.8709 -0.2205
vn 0.0240 -0.9995 -0.0212
vn 0.3973 -0.9084 -0.1300
vn 0.4027 0.0367 0.9146
vn 0.4500 0.0194 0.8928
vn -0.5867 0.1555 0.7947
vn -0.6574 0.2524 0.7100
vn 0.9232 -0.1671 0.3461
vn 0.9382 -0.1076 0.3290
vn 0.8518 -0.2632 -0.4530
vn 0.8877 -0.1762 -0.4253
vn -0.0778 -0.1235 -0.9893
vn 0.0486 -0.1026 -0.9935
vn -0.9171 0.1579 -0.3660
vn -0.9234 0.1072 -0.3685
vn 0.5205 0.6792 0.5174
vn -0.4643 0.7179 0.5186
vn -0.5634 0.2258 0.7947
vn 0.4152 0.2444 0.8763
vn 0.9264 0.3762 0.0127
vn 0.9283 0.0910 0.3605
vn 0.8199 0.0080 -0.5724
vn 0.9301 -0.1008 -0.3532
vn -0.0894 -0.2238 -0.9705
vn 0.0640 -0.2442 -0.9676
vn -0.9171 0.2060 -0.3412
vn -0.9630 -0.0673 -0.2609
vn 0.0955 0.7917 -0.6033
vn -0.5511 0.8192 -0.1586
vn 0.0178 0.9770 -0.2126
vn -0.0044 0.9211 -0.3892
vn -0.5492 0.7451 -0.3784
vn 0.0895 0.9638 -0.2512
vn 0.1364 0.9107 -0.3900
vn 0.1201 0.9533 -0.2772
vn 0.1758 0.9153 -0.3625
vn 0.6075 0.7695 -0.1971
vn 0.6304 0.7297 -0.2649
vn 0.0682 0.7822 -0.6193
vn -0.5213 0.6130 -0.5937
vn 0.1139 0.8086 -0.5772
vn 0.1010 0.8194 -0.5642
vn 0.5811 0.6778 -0.4504
vn 0.1032 0.6866 -0.7197
vn -0.5658 0.4730 -0.6754
vn 0.0774 0.7428 -0.6650
vn -0.2645 0.6556 -0.7073
vn 0.1595 0.6989 -0.6972
vn -0.1390 0.5467 -0.8257
vn 0.0742 0.5610 -0.8245
vn 0.1456 0.6676 -0.7301
vn -0.2759 0.6802 -0.6791
vn 0.0716 0.5682 -0.8198
vn -0.5733 0.8065 -0.1443
vn 0.0056 0.9787 -0.2052
vn -0.4784 0.8378 -0.2631
vn 0.5004 0.8329 -0.2366
vn 0.0320 0.9629 -0.2678
vn 0.4221 0.8871 -0.1866
vn -0.4867 0.8574 -0.1671
vn 0.5524 -0.8185 0.1579
vn 0.5506 -0.7439 0.3787
vn 0.0053 -0.9209 0.3898
vn -0.0172 -0.9770 0.2127
vn -0.1359 -0.9106 0.3904
vn -0.0894 -0.9638 0.2511
vn -0.1759 -0.9152 0.3626
vn -0.1197 -0.9533 0.2771
vn -0.6312 -0.7290 0.2649
vn -0.6081 -0.7690 0.1969
vn 0.5225 -0.6112 0.5945
vn -0.0677 -0.7816 0.6201
vn -0.1130 -0.8081 0.5781
vn -0.1002 -0.8190 0.5650
vn -0.5819 -0.6770 0.4506
vn 0.5671 -0.4712 0.6755
vn -0.1047 -0.6865 0.7195
vn -0.0791 -0.7429 0.6647
vn 0.2642 -0.6554 0.7076
vn -0.1603 -0.6981 0.6978
vn 0.1400 -0.5464 0.8258
vn -0.0740 -0.5606 0.8248
vn -0.1457 -0.6673 0.7304
vn 0.2766 -0.6801 0.6790
vn -0.0697 -0.5684 0.8198
vn 0.5750 -0.8055 0.1435
vn -0.0057 -0.9787 0.2051
vn 0.4787 -0.8379 0.2624
vn 0.4873 -0.8572 0.1669
vn -0.5004 -0.8328 0.2366
vn -0.0323 -0.9631 0.2674
vn -0.4230 -0.8868 0.1862
s 1
f 1/1/1 2/2/2 3/3/3
f 3/3/3 4/4/4 1/1/1
f 5/5/5 6/6/6 2/2/2
f 2/2/2 1/1/1 5/5/5
f 7/7/7 8/8/8 6/9/6
f 6/9/6 5/10/5 7/7/7
f 9/11/9 10/12/10 8/8/8
f 8/8/8 7/7/7 9/11/9
f 11/13/11 12/14/12 10/12/10
f 10/12/10 9/11/9 11/13/11
f 4/4/4 3/3/3 12/15/12
f 12/15/12 11/16/11 4/4/4
f 13/17/13 14/18/14 15/19/15
f 15/19/15 16/20/16 13/17/13
f 17/21/17 13/17/13 16/20/16
f 16/20/16 18/22/18 17/21/17
f 19/23/19 17/24/17 18/25/18
f 18/25/18 20/26/20 19/23/19
f 21/27/21 19/23/19 20/26/20
f 20/26/20 22/28/22 21/27/21
f 23/29/23 21/27/21 22/28/22
f 22/28/22 24/30/24 23/29/23
f 14/18/14 23/31/23 24/32/24
f 24/32/24 15/19/15 14/18/14
f 16/20/16 15/19/15 3/3/3
f 3/3/3 2/2/2 16/20/16
f 18/22/18 16/20/16 2/2/2
f 2/2/2 6/6/6 18/22/18
f 20/26/20 18/25/18 6/9/6
f 6/9/6 8/8/8 20/26/20
f 10/12/10 22/28/22 20/26/20
f 20/26/20 8/8/8 10/12/10
f 12/14/12 24/30/24 22/28/22
f 22/28/22 10/12/10 12/14/12
f 3/3/3 15/19/15 24/32/24
f 24/32/24 12/15/12 3/3/3
f 13/17/13 25/33/25 14/18/14
f 17/21/17 25/33/25 13/17/13
f 19/23/19 25/33/25 17/24/17
f 21/27/21 25/33/25 19/23/19
f 23/29/23 25/33/25 21/27/21
f 14/18/14 25/33/25 23/31/23
s 2
f 26/34/26 27/35/27 28/36/28
f 28/36/28 29/37/29 26/34/26
f 27/35/27 30/38/30 31/39/31
f 31/39/31 28/36/28 27/35/27
f 31/39/31 30/38/30 32/40/32
f 32/40/32 33/41/33 31/39/31
f 33/41/33 32/40/32 34/42/34
f 34/42/34 35/43/35 33/41/33
f 29/37/29 28/36/28 36/44/36
f 36/44/36 37/45/37 29/37/29
f 28/36/28 31/39/31 38/46/38
f 38/46/38 36/44/36 28/36/28
f 31/39/31 33/41/33 39/47/39
f 39/47/39 38/46/38 31/39/31
f 33/41/33 35/43/35 40/48/40
f 40/48/40 39/47/39 33/41/33
f 37/45/37 36/44/36 41/49/41
f 41/49/41 42/50/42 37/45/37
f 36/44/36 38/46/38 43/51/43
f 43/51/43 41/49/41 36/44/36
f 38/46/38 39/47/39 44/52/44
f 44/52/44 43/51/43 38/46/38
f 44/52/44 39/47/39 45/53/45
f 46/54/46 41/49/41 47/55/47
f 41/49/41 43/51/43 48/56/48
f 48/56/48 47/55/47 41/49/41
f 43/51/43 44/52/44 49/57/49
f 49/57/49 48/56/48 43/51/43
f 49/57/49 44/52/44 50/58/50
f 26/34/26 51/59/51 27/35/27
f 27/35/27 52/60/52 30/38/30
f 30/38/30 53/61/53 32/40/32
f 32/40/32 54/62/54 34/42/34
f 44/52/44 45/53/45 50/58/50
f 46/54/46 42/50/42 41/49/41
f 32/40/32 55/63/55 54/62/54
f 32/40/32 53/61/53 55/63/55
f 51/59/51 52/60/52 27/35/27
f 30/38/30 56/64/56 57/65/57
s 3
f 58/66/58 59/67/59 60/68/60
f 60/68/60 61/69/61 58/66/58
f 61/69/61 60/68/60 62/70/62
f 62/70/62 63/71/63 61/69/61
f 62/70/62 64/72/64 65/73/65
f 65/73/65 63/71/63 62/70/62
f 64/72/64 66/74/66 67/75/67
f 67/75/67 65/73/65 64/72/64
f 59/67/59 68/76/68 69/77/69
f 69/77/69 60/68/60 59/67/59
f 60/68/60 69/77/69 70/78/70
f 70/78/70 62/70/62 60/68/60
f 62/70/62 70/78/70 71/79/71
f 71/79/71 64/72/64 62/70/62
f 64/72/64 71/79/71 72/80/72
f 72/80/72 66/74/66 64/72/64
f 68/76/68 73/81/73 74/82/74
f 74/82/74 69/77/69 68/76/68
f 69/77/69 74/82/74 75/83/75
f 75/83/75 70/78/70 69/77/69
f 70/78/70 75/83/75 76/84/76
f 76/84/76 71/79/71 70/78/70
f 76/84/76 77/85/77 71/79/71
f 78/86/78 79/87/79 74/82/74
f 74/82/74 79/87/79 80/88/80
f 80/88/80 75/83/75 74/82/74
f 75/83/75 80/88/80 81/89/81
f 81/89/81 76/84/76 75/83/75
f 81/89/81 82/90/82 76/84/76
f 58/66/58 61/69/61 83/91/83
f 61/69/61 63/71/63 84/92/84
f 63/71/63 85/93/85 86/94/86
f 65/73/65 67/75/67 87/95/87
f 76/84/76 82/90/82 77/85/77
f 78/86/78 74/82/74 73/81/73
f 65/73/65 87/95/87 88/96/88
f 65/73/65 88/96/88 85/93/85
f 83/91/83 61/69/61 84/92/84
f 63/71/63 86/94/86 89/97/89
s 2
f 52/60/52 56/64/56 30/38/30
f 30/38/30 57/65/57 53/61/53
s 3
f 63/71/63 89/97/89 84/92/84
f 63/71/63 65/73/65 85/93/85
s 2
f 39/47/39 40/48/40 45/53/45
s 3
f 77/85/77 72/80/72 71/79/71
s 4
f 90/98/90 91/99/91 92/100/92
f 92/100/92 93/101/93 90/98/90
f 94/102/94 95/103/95 91/99/91
f 91/99/91 90/98/90 94/102/94
f 96/104/96 97/105/97 95/106/95
f 95/106/95 94/107/94 96/104/96
f 98/108/98 99/109/99 97/105/97
f 97/105/97 96/104/96 98/108/98
f 100/110/100 101/111/101 99/109/99
f 99/109/99 98/108/98 100/110/100
f 93/101/93 92/100/92 101/112/101
f 101/112/101 100/113/100 93/101/93
f 102/114/102 103/115/103 104/116/104
f 104/116/104 105/117/105 102/114/102
f 106/118/106 102/114/102 105/117/105
f 105/117/105 107/119/107 106/118/106
f 108/120/108 106/121/106 107/122/107
f 107/122/107 109/123/109 108/120/108
f 110/124/110 108/120/108 109/123/109
f 109/123/109 111/125/111 110/124/110
f 112/126/112 110/124/110 111/125/111
f 111/125/111 113/127/113 112/126/112
f 103/115/103 112/128/112 113/129/113
f 113/129/113 104/116/104 103/115/103
f 105/117/105 104/116/104 92/100/92
f 92/100/92 91/99/91 105/117/105
f 107/119/107 105/117/105 91/99/91
f 91/99/91 95/103/95 107/119/107
f 109/123/109 107/122/107 95/106/95
f 95/106/95 97/105/97 109/123/109
f 99/109/99 111/125/111 109/123/109
f 109/123/109 97/105/97 99/109/99
f 101/111/101 113/127/113 111/125/111
f 111/125/111 99/109/99 101/111/101
f 92/100/92 104/116/104 113/129/113
f 113/129/113 101/112/101 92/100/92
f 102/114/102 114/130/114 103/115/103
f 106/118/106 114/130/114 102/114/102
f 108/120/108 114/130/114 106/121/106
f 110/124/110 114/130/114 108/120/108
f 112/126/112 114/130/114 110/124/110
f 103/115/103 114/130/114 112/128/112
s 5
f 115/131/115 116/132/116 117/133/117
f 117/133/117 118/134/118 115/131/115
f 116/132/116 119/135/119 120/136/120
f 120/136/120 117/133/117 116/132/116
f 120/136/120 119/135/119 121/137/121
f 121/137/121 122/138/122 120/136/120
f 122/138/122 121/137/121 123/139/123
f 123/139/123 124/140/124 122/138/122
f 118/134/118 117/133/117 125/141/125
f 125/141/125 126/142/126 118/134/118
f 117/133/117 120/136/120 127/143/127
f 127/143/127 125/141/125 117/133/117
f 120/136/120 122/138/122 128/144/128
f 128/144/128 127/143/127 120/136/120
f 122/138/122 124/140/124 129/145/129
f 129/145/129 128/144/128 122/138/122
f 126/142/126 125/141/125 130/146/130
f 130/146/130 131/147/131 126/142/126
f 125/141/125 127/143/127 132/148/132
f 132/148/132 130/146/130 125/141/125
f 127/143/127 128/144/128 133/149/133
f 133/149/133 132/148/132 127/143/127
f 133/149/133 128/144/128 134/150/134
f 135/151/135 130/146/130 136/152/136
f 130/146/130 132/148/132 137/153/137
f 137/153/137 136/152/136 130/146/130
f 132/148/132 133/149/133 138/154/138
f 138/154/138 137/153/137 132/148/132
f 138/154/138 133/149/133 139/155/139
f 115/131/115 140/156/140 116/132/116
f 116/132/116 141/157/141 119/135/119
f 119/135/119 142/158/142 121/137/121
f 121/137/121 143/159/143 123/139/123
f 133/149/133 134/150/134 139/155/139
f 135/151/135 131/147/131 130/146/130
f 121/137/121 144/160/144 143/159/143
f 121/137/121 142/158/142 144/160/144
f 140/156/140 141/157/141 116/132/116
f 119/135/119 145/161/145 146/162/146
s 6
f 147/163/147 148/164/148 149/165/149
f 149/165/149 150/166/150 147/163/147
f 150/166/150 149/165/149 151/167/151
f 151/167/151 152/168/152 150/166/150
f 151/167/151 153/169/153 154/170/154
f 154/170/154 152/168/152 151/167/151
f 153/169/153 155/171/155 156/172/156
f 156/172/156 154/170/154 153/169/153
f 148/164/148 157/173/157 158/174/158
f 158/174/158 149/165/149 148/164/148
f 149/165/149 158/174/158 159/175/159
f 159/175/159 151/167/151 149/165/149
f 151/167/151 159/175/159 160/176/160
f 160/176/160 153/169/153 151/167/151
f 153/169/153 160/176/160 161/177/161
f 161/177/161 155/171/155 153/169/153
f 157/173/157 162/178/162 163/179/163
f 163/179/163 158/174/158 157/173/157
f 158/174/158 163/179/163 164/180/164
f 164/180/164 159/175/159 158/174/158
f 159/175/159 164/180/164 165/181/165
f 165/181/165 160/176/160 159/175/159
f 165/181/165 166/182/166 160/176/160
f 167/183/167 168/184/168 163/179/163
f 163/179/163 168/184/168 169/185/169
f 169/185/169 164/180/164 163/179/163
f 164/180/164 169/185/169 170/186/170
f 170/186/170 165/181/165 164/180/164
f 170/186/170 171/187/171 165/181/165
f 147/163/147 150/166/150 172/188/172
f 150/166/150 152/168/152 173/189/173
f 152/168/152 174/190/174 175/191/175
f 154/170/154 156/172/156 176/192/176
f 165/181/165 171/187/171 166/182/166
f 167/183/167 163/179/163 162/178/162
f 154/170/154 176/192/176 177/193/177
f 154/170/154 177/193/177 174/190/174
f 172/188/172 150/166/150 173/189/173
f 152/168/152 175/191/175 178/194/178
s 5
f 141/157/141 145/161/145 119/135/119
f 119/135/119 146/162/146 142/158/142
s 6
f 152/168/152 178/194/178 173/189/173
f 152/168/152 154/170/154 174/190/174
s 5
f 128/144/128 129/145/129 134/150/134
s 6
f 166/182/166 161/177/161 160/176/160
