# This file uses centimeters as units for non-parametric coordinates.

g default
v -37.014992 6.974926 23.256561
v -37.014992 6.974926 4.651276
v -37.014992 3.253872 8.372360
v -37.014992 3.253872 19.535507
v -37.014992 6.979023 4.651306
v -37.014992 -11.626242 4.651306
v -37.014992 -11.626242 23.256592
v -37.014992 6.979023 23.256592
v -37.014992 -7.905189 19.535522
v -37.014992 -7.905189 8.372375
v -37.014992 11.630339 0.000000
v -37.014992 11.630339 -23.256561
v -37.014992 -11.626242 -23.256561
v -37.014992 -11.626242 0.000000
v -37.014992 -6.974926 0.000000
v -37.014992 -6.974926 -18.605255
v -37.014992 6.979023 -18.605255
v -37.014992 6.979023 0.000000
v 37.014992 6.974926 -23.256561
v 37.014992 6.974926 -4.651276
v 37.014992 3.253872 -8.372360
v 37.014992 3.253872 -19.535507
v 37.014992 6.979023 -4.651306
v 37.014992 -11.626242 -4.651306
v 37.014992 -11.626242 -23.256592
v 37.014992 6.979023 -23.256592
v 37.014992 -7.905189 -19.535522
v 37.014992 -7.905189 -8.372375
v 37.014992 11.630339 0.000000
v 37.014992 11.630339 23.256561
v 37.014992 -11.626242 23.256561
v 37.014992 -11.626242 0.000000
v 37.014992 -6.974926 0.000000
v 37.014992 -6.974926 18.605255
v 37.014992 6.979023 18.605255
v 37.014992 6.979023 0.000000
v 23.256561 6.974926 37.014992
v 4.651276 6.974926 37.014992
v 8.372360 3.253872 37.014992
v 19.535507 3.253872 37.014992
v 4.651306 6.979023 37.014992
v 4.651306 -11.626242 37.014992
v 23.256592 -11.626242 37.014992
v 23.256592 6.979023 37.014992
v 19.535522 -7.905189 37.014992
v 8.372375 -7.905189 37.014992
v 0.000000 11.630339 37.014992
v -23.256561 11.630339 37.014992
v -23.256561 -11.626242 37.014992
v 0.000000 -11.626242 37.014992
v 0.000000 -6.974926 37.014992
v -18.605255 -6.974926 37.014992
v -18.605255 6.979023 37.014992
v 0.000000 6.979023 37.014992
v -23.256561 6.974926 -37.014992
v -4.651276 6.974926 -37.014992
v -8.372360 3.253872 -37.014992
v -19.535507 3.253872 -37.014992
v -4.651306 6.979023 -37.014992
v -4.651306 -11.626242 -37.014992
v -23.256592 -11.626242 -37.014992
v -23.256592 6.979023 -37.014992
v -19.535522 -7.905189 -37.014992
v -8.372375 -7.905189 -37.014992
v 0.000000 11.630339 -37.014992
v 23.256561 11.630339 -37.014992
v 23.256561 -11.626242 -37.014992
v 0.000000 -11.626242 -37.014992
v 0.000000 -6.974926 -37.014992
v 18.605255 -6.974926 -37.014992
v 18.605255 6.979023 -37.014992
v 0.000000 6.979023 -37.014992
v 6.974926 -37.014992 -23.256561
v 6.974926 -37.014992 -4.651276
v 3.253872 -37.014992 -8.372360
v 3.253872 -37.014992 -19.535507
v 6.979023 -37.014992 -4.651306
v -11.626242 -37.014992 -4.651306
v -11.626242 -37.014992 -23.256592
v 6.979023 -37.014992 -23.256592
v -7.905189 -37.014992 -19.535522
v -7.905189 -37.014992 -8.372375
v 11.630339 -37.014992 0.000000
v 11.630339 -37.014992 23.256561
v -11.626242 -37.014992 23.256561
v -11.626242 -37.014992 0.000000
v -6.974926 -37.014992 0.000000
v -6.974926 -37.014992 18.605255
v 6.979023 -37.014992 18.605255
v 6.979023 -37.014992 0.000000
v -33.313862 -37.014992 33.313862
v -33.313862 -33.313862 37.014992
v -37.014992 -33.313862 33.313862
v 37.014992 -33.313862 33.313862
v 33.313862 -33.313862 37.014992
v 33.313862 -37.014992 33.313862
v -37.014992 33.313862 33.313862
v -33.313862 33.313862 37.014992
v -33.313862 37.014992 33.313862
v 33.313862 37.014992 33.313862
v 33.313862 33.313862 37.014992
v 37.014992 33.313862 33.313862
v -37.014992 33.313862 -33.313862
v -33.313862 37.014992 -33.313862
v -33.313862 33.313862 -37.014992
v 33.313862 33.313862 -37.014992
v 33.313862 37.014992 -33.313862
v 37.014992 33.313862 -33.313862
v -37.014992 -33.313862 -33.313862
v -33.313862 -33.313862 -37.014992
v -33.313862 -37.014992 -33.313862
v 33.313862 -37.014992 -33.313862
v 33.313862 -33.313862 -37.014992
v 37.014992 -33.313862 -33.313862
v -6.974926 37.014992 -23.256561
v -6.974926 37.014992 -4.651276
v -3.253872 37.014992 -8.372360
v -3.253872 37.014992 -19.535507
v -6.979023 37.014992 -4.651306
v 11.626242 37.014992 -4.651306
v 11.626242 37.014992 -23.256592
v -6.979023 37.014992 -23.256592
v 7.905189 37.014992 -19.535522
v 7.905189 37.014992 -8.372375
v -11.630339 37.014992 0.000000
v -11.630339 37.014992 23.256561
v 11.626242 37.014992 23.256561
v 11.626242 37.014992 0.000000
v 6.974926 37.014992 0.000000
v 6.974926 37.014992 18.605255
v -6.979023 37.014992 18.605255
v -6.979023 37.014992 0.000000
vt 0.854397 0.889093
vt 0.841451 0.902039
vt 0.841451 0.837306
vt 0.854397 0.850253
vt 0.854397 0.889093
vt 0.906184 0.889093
vt 0.906184 0.902039
vt 0.841451 0.902039
vt 0.841451 0.837306
vt 0.854397 0.850253
vt 0.906184 0.837306
vt 0.906184 0.850253
vt 0.906184 0.889093
vt 0.906184 0.902039
vt 0.841451 0.902039
vt 0.854397 0.889093
vt 0.841451 0.837306
vt 0.854397 0.850253
vt 0.906184 0.837306
vt 0.906184 0.850253
vt 0.854397 0.889093
vt 0.841451 0.902039
vt 0.841451 0.837306
vt 0.854397 0.850253
vt 0.854397 0.889093
vt 0.906184 0.889093
vt 0.906184 0.902039
vt 0.841451 0.902039
vt 0.841451 0.837306
vt 0.854397 0.850253
vt 0.906184 0.837306
vt 0.906184 0.850253
vt 0.906184 0.889093
vt 0.906184 0.902039
vt 0.841451 0.902039
vt 0.854397 0.889093
vt 0.841451 0.837306
vt 0.854397 0.850253
vt 0.906184 0.837306
vt 0.906184 0.850253
vt 0.854397 0.889093
vt 0.841451 0.902039
vt 0.841451 0.837306
vt 0.854397 0.850253
vt 0.854397 0.889093
vt 0.906184 0.889093
vt 0.906184 0.902039
vt 0.841451 0.902039
vt 0.841451 0.837306
vt 0.854397 0.850253
vt 0.906184 0.837306
vt 0.906184 0.850253
vt 0.906184 0.889093
vt 0.906184 0.902039
vt 0.841451 0.902039
vt 0.854397 0.889093
vt 0.841451 0.837306
vt 0.854397 0.850253
vt 0.906184 0.837306
vt 0.906184 0.850253
vt 0.854397 0.889093
vt 0.841451 0.902039
vt 0.841451 0.837306
vt 0.854397 0.850253
vt 0.854397 0.889093
vt 0.906184 0.889093
vt 0.906184 0.902039
vt 0.841451 0.902039
vt 0.841451 0.837306
vt 0.854397 0.850253
vt 0.906184 0.837306
vt 0.906184 0.850253
vt 0.906184 0.889093
vt 0.906184 0.902039
vt 0.841451 0.902039
vt 0.854397 0.889093
vt 0.841451 0.837306
vt 0.854397 0.850253
vt 0.906184 0.837306
vt 0.906184 0.850253
vt 0.854397 0.889093
vt 0.841451 0.902039
vt 0.841451 0.837306
vt 0.854397 0.850253
vt 0.854397 0.889093
vt 0.906184 0.889093
vt 0.906184 0.902039
vt 0.841451 0.902039
vt 0.841451 0.837306
vt 0.854397 0.850253
vt 0.906184 0.837306
vt 0.906184 0.850253
vt 0.906184 0.889093
vt 0.906184 0.902039
vt 0.841451 0.902039
vt 0.854397 0.889093
vt 0.841451 0.837306
vt 0.854397 0.850253
vt 0.906184 0.837306
vt 0.906184 0.850253
vt 0.162112 0.583969
vt 0.162112 0.587790
vt 0.093327 0.587790
vt 0.093327 0.583969
vt 0.165933 0.587790
vt 0.162112 0.583969
vt 0.165933 0.587790
vt 0.165933 0.656576
vt 0.162112 0.656576
vt 0.162112 0.587790
vt 0.093327 0.583969
vt 0.093327 0.587790
vt 0.091416 0.660397
vt 0.091416 0.656576
vt 0.160202 0.656576
vt 0.160202 0.660397
vt 0.162112 0.660397
vt 0.093327 0.660397
vt 0.093327 0.656576
vt 0.164023 0.656576
vt 0.160202 0.660397
vt 0.164023 0.656576
vt 0.160202 0.587790
vt 0.164023 0.587790
vt 0.089506 0.656576
vt 0.089506 0.587790
vt 0.126492 0.656576
vt 0.122671 0.656576
vt 0.122671 0.587790
vt 0.126492 0.587790
vt 0.160202 0.583969
vt 0.091416 0.587790
vt 0.091416 0.583969
vt 0.089506 0.587790
vt 0.854397 0.889093
vt 0.841451 0.902039
vt 0.841451 0.837306
vt 0.854397 0.850253
vt 0.854397 0.889093
vt 0.906184 0.889093
vt 0.906184 0.902039
vt 0.841451 0.902039
vt 0.841451 0.837306
vt 0.854397 0.850253
vt 0.906184 0.837306
vt 0.906184 0.850253
vt 0.906184 0.889093
vt 0.906184 0.902039
vt 0.841451 0.902039
vt 0.854397 0.889093
vt 0.841451 0.837306
vt 0.854397 0.850253
vt 0.906184 0.837306
vt 0.906184 0.850253
vn -1.000000 0.000000 0.000000
vn -1.000000 0.000000 0.000000
vn -1.000000 0.000000 0.000000
vn -1.000000 0.000000 0.000000
vn -1.000000 0.000000 0.000000
vn -1.000000 0.000000 0.000000
vn -1.000000 0.000000 0.000000
vn -1.000000 0.000000 0.000000
vn -1.000000 0.000000 0.000000
vn -1.000000 0.000000 0.000000
vn -1.000000 0.000000 0.000000
vn -1.000000 0.000000 0.000000
vn -1.000000 0.000000 0.000000
vn -1.000000 0.000000 0.000000
vn -1.000000 0.000000 0.000000
vn -1.000000 0.000000 0.000000
vn -1.000000 0.000000 0.000000
vn -1.000000 0.000000 0.000000
vn -1.000000 0.000000 0.000000
vn -1.000000 0.000000 0.000000
vn -1.000000 0.000000 0.000000
vn -1.000000 0.000000 0.000000
vn -1.000000 0.000000 0.000000
vn -1.000000 0.000000 0.000000
vn -1.000000 0.000000 0.000000
vn -1.000000 0.000000 0.000000
vn -1.000000 0.000000 0.000000
vn -1.000000 0.000000 0.000000
vn 1.000000 0.000000 0.000000
vn 1.000000 0.000000 0.000000
vn 1.000000 0.000000 0.000000
vn 1.000000 0.000000 0.000000
vn 1.000000 0.000000 0.000000
vn 1.000000 0.000000 0.000000
vn 1.000000 0.000000 0.000000
vn 1.000000 0.000000 0.000000
vn 1.000000 0.000000 0.000000
vn 1.000000 0.000000 0.000000
vn 1.000000 0.000000 0.000000
vn 1.000000 0.000000 0.000000
vn 1.000000 0.000000 0.000000
vn 1.000000 0.000000 0.000000
vn 1.000000 0.000000 0.000000
vn 1.000000 0.000000 0.000000
vn 1.000000 0.000000 0.000000
vn 1.000000 0.000000 0.000000
vn 1.000000 0.000000 0.000000
vn 1.000000 0.000000 0.000000
vn 1.000000 0.000000 0.000000
vn 1.000000 0.000000 0.000000
vn 1.000000 0.000000 0.000000
vn 1.000000 0.000000 0.000000
vn 1.000000 0.000000 0.000000
vn 1.000000 0.000000 0.000000
vn 1.000000 0.000000 0.000000
vn 1.000000 0.000000 0.000000
vn 0.000000 0.000000 1.000000
vn 0.000000 0.000000 1.000000
vn 0.000000 0.000000 1.000000
vn 0.000000 0.000000 1.000000
vn -0.000000 0.000000 1.000000
vn -0.000000 0.000000 1.000000
vn -0.000000 0.000000 1.000000
vn -0.000000 0.000000 1.000000
vn -0.000000 0.000000 1.000000
vn -0.000000 0.000000 1.000000
vn -0.000000 0.000000 1.000000
vn -0.000000 0.000000 1.000000
vn -0.000000 0.000000 1.000000
vn -0.000000 0.000000 1.000000
vn -0.000001 0.000000 1.000000
vn -0.000001 0.000000 1.000000
vn 0.000000 0.000000 1.000000
vn 0.000000 0.000000 1.000000
vn -0.000000 0.000000 1.000000
vn -0.000000 0.000000 1.000000
vn -0.000000 0.000000 1.000000
vn -0.000000 0.000000 1.000000
vn -0.000000 0.000000 1.000000
vn -0.000000 0.000000 1.000000
vn -0.000000 0.000000 1.000000
vn -0.000000 0.000000 1.000000
vn 0.000000 0.000000 1.000000
vn 0.000000 0.000000 1.000000
vn 0.000000 0.000000 -1.000000
vn 0.000000 0.000000 -1.000000
vn 0.000000 0.000000 -1.000000
vn 0.000000 0.000000 -1.000000
vn 0.000000 0.000000 -1.000000
vn 0.000000 0.000000 -1.000000
vn 0.000000 0.000000 -1.000000
vn 0.000000 0.000000 -1.000000
vn 0.000000 0.000000 -1.000000
vn 0.000000 0.000000 -1.000000
vn 0.000000 0.000000 -1.000000
vn 0.000000 0.000000 -1.000000
vn 0.000000 0.000000 -1.000000
vn 0.000000 0.000000 -1.000000
vn 0.000001 0.000000 -1.000000
vn 0.000001 0.000000 -1.000000
vn 0.000000 0.000000 -1.000000
vn 0.000000 0.000000 -1.000000
vn 0.000000 0.000000 -1.000000
vn 0.000000 0.000000 -1.000000
vn 0.000000 0.000000 -1.000000
vn 0.000000 0.000000 -1.000000
vn 0.000000 0.000000 -1.000000
vn 0.000000 0.000000 -1.000000
vn 0.000000 0.000000 -1.000000
vn 0.000000 0.000000 -1.000000
vn 0.000000 0.000000 -1.000000
vn 0.000000 0.000000 -1.000000
vn 0.000000 -1.000000 0.000000
vn 0.000000 -1.000000 0.000000
vn 0.000000 -1.000000 0.000000
vn 0.000000 -1.000000 0.000000
vn 0.000000 -1.000000 0.000000
vn 0.000000 -1.000000 0.000000
vn 0.000000 -1.000000 0.000000
vn 0.000000 -1.000000 0.000000
vn 0.000000 -1.000000 0.000000
vn 0.000000 -1.000000 0.000000
vn 0.000000 -1.000000 0.000000
vn 0.000000 -1.000000 0.000000
vn 0.000000 -1.000000 0.000000
vn 0.000000 -1.000000 0.000000
vn 0.000000 -1.000000 0.000001
vn 0.000000 -1.000000 0.000001
vn 0.000000 -1.000000 0.000000
vn 0.000000 -1.000000 0.000000
vn 0.000000 -1.000000 0.000000
vn 0.000000 -1.000000 0.000000
vn 0.000000 -1.000000 0.000000
vn 0.000000 -1.000000 0.000000
vn 0.000000 -1.000000 0.000000
vn 0.000000 -1.000000 0.000000
vn 0.000000 -1.000000 0.000000
vn 0.000000 -1.000000 0.000000
vn 0.000000 -1.000000 0.000000
vn 0.000000 -1.000000 0.000000
vn -0.707107 -0.707107 0.000000
vn -0.707107 -0.707107 0.000000
vn -0.707107 -0.707107 0.000000
vn -0.707107 -0.707107 0.000000
vn 0.000000 -0.707107 0.707107
vn 0.000000 -0.707107 0.707107
vn 0.000000 -0.707107 0.707107
vn 0.000000 -0.707107 0.707107
vn -0.707107 0.000000 0.707107
vn -0.707107 0.000000 0.707107
vn -0.707107 0.000000 0.707107
vn -0.707107 0.000000 0.707107
vn 0.707107 -0.707107 0.000000
vn 0.707107 -0.707107 0.000000
vn 0.707107 -0.707107 0.000000
vn 0.707107 -0.707107 0.000000
vn 0.707107 0.000000 0.707107
vn 0.707107 0.000000 0.707107
vn 0.707107 0.000000 0.707107
vn 0.707107 0.000000 0.707107
vn -0.707107 0.707107 0.000000
vn -0.707107 0.707107 0.000000
vn -0.707107 0.707107 0.000000
vn -0.707107 0.707107 0.000000
vn 0.000000 0.707107 0.707107
vn 0.000000 0.707107 0.707107
vn 0.000000 0.707107 0.707107
vn 0.000000 0.707107 0.707107
vn 0.707107 0.707107 0.000000
vn 0.707107 0.707107 0.000000
vn 0.707107 0.707107 0.000000
vn 0.707107 0.707107 0.000000
vn -0.707107 0.000000 -0.707107
vn -0.707107 0.000000 -0.707107
vn -0.707107 0.000000 -0.707107
vn -0.707107 0.000000 -0.707107
vn 0.000000 0.707107 -0.707107
vn 0.000000 0.707107 -0.707107
vn 0.000000 0.707107 -0.707107
vn 0.000000 0.707107 -0.707107
vn 0.707107 0.000000 -0.707107
vn 0.707107 0.000000 -0.707107
vn 0.707107 0.000000 -0.707107
vn 0.707107 0.000000 -0.707107
vn 0.000000 -0.707107 -0.707107
vn 0.000000 -0.707107 -0.707107
vn 0.000000 -0.707107 -0.707107
vn 0.000000 -0.707107 -0.707107
vn -0.577350 -0.577350 0.577350
vn -0.577350 -0.577350 0.577350
vn -0.577350 -0.577350 0.577350
vn 0.577350 -0.577350 0.577350
vn 0.577350 -0.577350 0.577350
vn 0.577350 -0.577350 0.577350
vn -0.577350 0.577350 0.577350
vn -0.577350 0.577350 0.577350
vn -0.577350 0.577350 0.577350
vn 0.577350 0.577350 0.577350
vn 0.577350 0.577350 0.577350
vn 0.577350 0.577350 0.577350
vn -0.577350 0.577350 -0.577350
vn -0.577350 0.577350 -0.577350
vn -0.577350 0.577350 -0.577350
vn 0.577350 0.577350 -0.577350
vn 0.577350 0.577350 -0.577350
vn 0.577350 0.577350 -0.577350
vn -0.577350 -0.577350 -0.577350
vn -0.577350 -0.577350 -0.577350
vn -0.577350 -0.577350 -0.577350
vn 0.577350 -0.577350 -0.577350
vn 0.577350 -0.577350 -0.577350
vn 0.577350 -0.577350 -0.577350
vn 0.000000 1.000000 0.000000
vn 0.000000 1.000000 0.000000
vn 0.000000 1.000000 0.000000
vn 0.000000 1.000000 0.000000
vn 0.000000 1.000000 0.000000
vn 0.000000 1.000000 0.000000
vn 0.000000 1.000000 0.000000
vn 0.000000 1.000000 0.000000
vn 0.000000 1.000000 0.000000
vn 0.000000 1.000000 0.000000
vn 0.000000 1.000000 0.000000
vn 0.000000 1.000000 0.000000
vn 0.000000 1.000000 0.000000
vn 0.000000 1.000000 0.000000
vn 0.000000 1.000000 0.000001
vn 0.000000 1.000000 0.000001
vn 0.000000 1.000000 0.000000
vn 0.000000 1.000000 0.000000
vn 0.000000 1.000000 0.000000
vn 0.000000 1.000000 0.000000
vn 0.000000 1.000000 0.000000
vn 0.000000 1.000000 0.000000
vn 0.000000 1.000000 0.000000
vn 0.000000 1.000000 0.000000
vn 0.000000 1.000000 0.000000
vn 0.000000 1.000000 0.000000
vn 0.000000 1.000000 0.000000
vn 0.000000 1.000000 0.000000
s off
g OreCobaltIcon
f 4/1/1 1/2/2 2/3/3 3/4/4
f 10/5/5 3/6/6 5/7/7 6/8/8
f 10/5/9 6/8/10 7/9/11 9/10/12
f 9/10/13 7/9/14 8/11/15 4/12/16
f 18/13/17 11/14/18 12/15/19 17/16/20
f 17/16/21 12/15/22 13/17/23 16/18/24
f 16/18/25 13/17/26 14/19/27 15/20/28
f 22/21/29 19/22/30 20/23/31 21/24/32
f 28/25/33 21/26/34 23/27/35 24/28/36
f 28/25/37 24/28/38 25/29/39 27/30/40
f 27/30/41 25/29/42 26/31/43 22/32/44
f 36/33/45 29/34/46 30/35/47 35/36/48
f 35/36/49 30/35/50 31/37/51 34/38/52
f 34/38/53 31/37/54 32/39/55 33/40/56
f 40/41/57 37/42/58 38/43/59 39/44/60
f 46/45/61 39/46/62 41/47/63 42/48/64
f 46/45/65 42/48/66 43/49/67 45/50/68
f 45/50/69 43/49/70 44/51/71 40/52/72
f 54/53/73 47/54/74 48/55/75 53/56/76
f 53/56/77 48/55/78 49/57/79 52/58/80
f 52/58/81 49/57/82 50/59/83 51/60/84
f 58/61/85 55/62/86 56/63/87 57/64/88
f 64/65/89 57/66/90 59/67/91 60/68/92
f 64/65/93 60/68/94 61/69/95 63/70/96
f 63/70/97 61/69/98 62/71/99 58/72/100
f 72/73/101 65/74/102 66/75/103 71/76/104
f 71/76/105 66/75/106 67/77/107 70/78/108
f 70/78/109 67/77/110 68/79/111 69/80/112
f 76/81/113 73/82/114 74/83/115 75/84/116
f 82/85/117 75/86/118 77/87/119 78/88/120
f 82/85/121 78/88/122 79/89/123 81/90/124
f 81/90/125 79/89/126 80/91/127 76/92/128
f 90/93/129 83/94/130 84/95/131 89/96/132
f 89/96/133 84/95/134 85/97/135 88/98/136
f 88/98/137 85/97/138 86/99/139 87/100/140
f 91/101/141 93/102/142 109/103/143 111/104/144
f 92/105/145 91/101/146 96/106/147 95/107/148
f 93/102/149 92/105/150 98/108/151 97/109/152
f 94/110/153 96/106/154 112/111/155 114/112/156
f 95/113/157 94/114/158 102/115/159 101/116/160
f 97/109/161 99/117/162 104/118/163 103/119/164
f 99/120/165 98/121/166 101/116/167 100/122/168
f 100/122/169 102/115/170 108/123/171 107/124/172
f 103/119/173 105/125/174 110/126/175 109/103/176
f 105/127/177 104/128/178 107/129/179 106/130/180
f 106/131/181 108/123/182 114/132/183 113/133/184
f 111/104/185 110/126/186 113/134/187 112/111/188
f 91/101/189 92/105/190 93/102/191
f 94/110/192 95/107/193 96/106/194
f 97/109/195 98/108/196 99/117/197
f 100/122/198 101/116/199 102/115/200
f 103/119/201 104/118/202 105/125/203
f 106/131/204 107/124/205 108/123/206
f 109/103/207 110/126/208 111/104/209
f 112/111/210 113/134/211 114/112/212
f 118/135/213 115/136/214 116/137/215 117/138/216
f 124/139/217 117/140/218 119/141/219 120/142/220
f 124/139/221 120/142/222 121/143/223 123/144/224
f 123/144/225 121/143/226 122/145/227 118/146/228
f 132/147/229 125/148/230 126/149/231 131/150/232
f 131/150/233 126/149/234 127/151/235 130/152/236
f 130/152/237 127/151/238 128/153/239 129/154/240
