# This file uses centimeters as units for non-parametric coordinates.

g default
v -33.313862 -37.014992 33.313862
v -33.313862 -33.313862 37.014992
v -37.014992 -33.313862 33.313862
v 37.014992 -33.313862 33.313862
v 33.313862 -33.313862 37.014992
v 33.313862 -37.014992 33.313862
v -37.014992 33.313862 33.313862
v -33.313862 33.313862 37.014992
v -33.313862 37.014992 33.313862
v 33.313862 37.014992 33.313862
v 33.313862 33.313862 37.014992
v 37.014992 33.313862 33.313862
v -37.014992 33.313862 -33.313862
v -33.313862 37.014992 -33.313862
v -33.313862 33.313862 -37.014992
v 33.313862 33.313862 -37.014992
v 33.313862 37.014992 -33.313862
v 37.014992 33.313862 -33.313862
v -37.014992 -33.313862 -33.313862
v -33.313862 -33.313862 -37.014992
v -33.313862 -37.014992 -33.313862
v 33.313862 -37.014992 -33.313862
v 33.313862 -33.313862 -37.014992
v 37.014992 -33.313862 -33.313862
v 37.014992 11.630339 0.000000
v 37.014992 11.630339 23.256561
v 37.014992 -11.626242 23.256561
v 37.014992 -11.626242 18.605255
v 37.014992 -2.323609 18.605255
v 37.014992 -2.323609 4.651306
v 37.014992 -11.626242 4.651306
v 37.014992 -11.626242 0.000000
v 37.014992 6.967396 4.686188
v 37.014992 2.339334 4.686188
v 37.014992 2.339334 18.570374
v 37.014992 6.967396 18.570374
v 37.014992 6.979023 -8.372375
v 37.014992 6.979023 -4.651276
v 37.014992 -11.626242 -4.651276
v 37.014992 -11.626242 -23.256561
v 37.014992 6.979023 -23.256561
v 37.014992 6.979023 -19.535492
v 37.014992 -7.905189 -19.535492
v 37.014992 -7.905189 -8.372375
v 11.630339 -37.014992 0.000000
v 11.630339 -37.014992 23.256561
v -11.626242 -37.014992 23.256561
v -11.626242 -37.014992 18.605255
v -2.323609 -37.014992 18.605255
v -2.323609 -37.014992 4.651306
v -11.626242 -37.014992 4.651306
v -11.626242 -37.014992 0.000000
v 6.967396 -37.014992 4.686188
v 2.339334 -37.014992 4.686188
v 2.339334 -37.014992 18.570374
v 6.967396 -37.014992 18.570374
v 6.979023 -37.014992 -8.372375
v 6.979023 -37.014992 -4.651276
v -11.626242 -37.014992 -4.651276
v -11.626242 -37.014992 -23.256561
v 6.979023 -37.014992 -23.256561
v 6.979023 -37.014992 -19.535492
v -7.905189 -37.014992 -19.535492
v -7.905189 -37.014992 -8.372375
v -11.630339 37.014992 0.000000
v -11.630339 37.014992 23.256561
v 11.626242 37.014992 23.256561
v 11.626242 37.014992 18.605255
v 2.323609 37.014992 18.605255
v 2.323609 37.014992 4.651306
v 11.626242 37.014992 4.651306
v 11.626242 37.014992 0.000000
v -6.967396 37.014992 4.686188
v -2.339334 37.014992 4.686188
v -2.339334 37.014992 18.570374
v -6.967396 37.014992 18.570374
v -6.979023 37.014992 -8.372375
v -6.979023 37.014992 -4.651276
v 11.626242 37.014992 -4.651276
v 11.626242 37.014992 -23.256561
v -6.979023 37.014992 -23.256561
v -6.979023 37.014992 -19.535492
v 7.905189 37.014992 -19.535492
v 7.905189 37.014992 -8.372375
v 0.000000 11.630339 -37.014992
v 23.256561 11.630339 -37.014992
v 23.256561 -11.626242 -37.014992
v 18.605255 -11.626242 -37.014992
v 18.605255 -2.323609 -37.014992
v 4.651306 -2.323609 -37.014992
v 4.651306 -11.626242 -37.014992
v 0.000000 -11.626242 -37.014992
v 4.686188 6.967396 -37.014992
v 4.686188 2.339334 -37.014992
v 18.570374 2.339334 -37.014992
v 18.570374 6.967396 -37.014992
v -8.372375 6.979023 -37.014992
v -4.651276 6.979023 -37.014992
v -4.651276 -11.626242 -37.014992
v -23.256561 -11.626242 -37.014992
v -23.256561 6.979023 -37.014992
v -19.535492 6.979023 -37.014992
v -19.535492 -7.905189 -37.014992
v -8.372375 -7.905189 -37.014992
v -37.014992 11.630339 0.000000
v -37.014992 11.630339 -23.256561
v -37.014992 -11.626242 -23.256561
v -37.014992 -11.626242 -18.605255
v -37.014992 -2.323609 -18.605255
v -37.014992 -2.323609 -4.651306
v -37.014992 -11.626242 -4.651306
v -37.014992 -11.626242 0.000000
v -37.014992 6.967396 -4.686188
v -37.014992 2.339334 -4.686188
v -37.014992 2.339334 -18.570374
v -37.014992 6.967396 -18.570374
v -37.014992 6.979023 8.372375
v -37.014992 6.979023 4.651276
v -37.014992 -11.626242 4.651276
v -37.014992 -11.626242 23.256561
v -37.014992 6.979023 23.256561
v -37.014992 6.979023 19.535492
v -37.014992 -7.905189 19.535492
v -37.014992 -7.905189 8.372375
v 0.000000 11.630339 37.014992
v -23.256561 11.630339 37.014992
v -23.256561 -11.626242 37.014992
v -18.605255 -11.626242 37.014992
v -18.605255 -2.323609 37.014992
v -4.651306 -2.323609 37.014992
v -4.651306 -11.626242 37.014992
v 0.000000 -11.626242 37.014992
v -4.686188 6.967396 37.014992
v -4.686188 2.339334 37.014992
v -18.570374 2.339334 37.014992
v -18.570374 6.967396 37.014992
v 8.372375 6.979023 37.014992
v 4.651276 6.979023 37.014992
v 4.651276 -11.626242 37.014992
v 23.256561 -11.626242 37.014992
v 23.256561 6.979023 37.014992
v 19.535492 6.979023 37.014992
v 19.535492 -7.905189 37.014992
v 8.372375 -7.905189 37.014992
vt 0.162112 0.583969
vt 0.162112 0.587790
vt 0.093327 0.587790
vt 0.093327 0.583969
vt 0.165933 0.587790
vt 0.089506 0.587790
vt 0.162112 0.583969
vt 0.165933 0.587790
vt 0.165933 0.656576
vt 0.162112 0.656576
vt 0.093327 0.656576
vt 0.089506 0.656576
vt 0.089506 0.587790
vt 0.093327 0.583969
vt 0.162112 0.587790
vt 0.162112 0.660397
vt 0.093327 0.660397
vt 0.093327 0.587790
vt 0.091416 0.660397
vt 0.091416 0.656576
vt 0.160202 0.656576
vt 0.160202 0.660397
vt 0.164023 0.656576
vt 0.164023 0.656576
vt 0.160202 0.660397
vt 0.160202 0.587790
vt 0.164023 0.587790
vt 0.160202 0.583969
vt 0.091416 0.587790
vt 0.091416 0.583969
vt 0.126492 0.661071
vt 0.122671 0.661071
vt 0.122671 0.592286
vt 0.126492 0.592286
vt 0.906184 0.902039
vt 0.841451 0.902039
vt 0.841451 0.889093
vt 0.867344 0.889093
vt 0.893205 0.888996
vt 0.880323 0.888996
vt 0.906184 0.837306
vt 0.893205 0.850350
vt 0.841451 0.837306
vt 0.880323 0.850350
vt 0.867344 0.850253
vt 0.841451 0.850253
vt 0.854397 0.889093
vt 0.906184 0.889093
vt 0.906184 0.902039
vt 0.841451 0.902039
vt 0.841451 0.837306
vt 0.854397 0.850253
vt 0.906184 0.837306
vt 0.906184 0.850253
vt 0.906184 0.902039
vt 0.841451 0.902039
vt 0.841451 0.889093
vt 0.867344 0.889093
vt 0.893205 0.888996
vt 0.880323 0.888996
vt 0.906184 0.837306
vt 0.893205 0.850350
vt 0.841451 0.837306
vt 0.880323 0.850350
vt 0.867344 0.850253
vt 0.841451 0.850253
vt 0.854397 0.889093
vt 0.906184 0.889093
vt 0.906184 0.902039
vt 0.841451 0.902039
vt 0.841451 0.837306
vt 0.854397 0.850253
vt 0.906184 0.837306
vt 0.906184 0.850253
vt 0.906184 0.902039
vt 0.841451 0.902039
vt 0.841451 0.889093
vt 0.867344 0.889093
vt 0.893205 0.888996
vt 0.880323 0.888996
vt 0.906184 0.837306
vt 0.893205 0.850350
vt 0.841451 0.837306
vt 0.880323 0.850350
vt 0.867344 0.850253
vt 0.841451 0.850253
vt 0.854397 0.889093
vt 0.906184 0.889093
vt 0.906184 0.902039
vt 0.841451 0.902039
vt 0.841451 0.837306
vt 0.854397 0.850253
vt 0.906184 0.837306
vt 0.906184 0.850253
vt 0.906184 0.902039
vt 0.841451 0.902039
vt 0.841451 0.889093
vt 0.867344 0.889093
vt 0.893205 0.888996
vt 0.880323 0.888996
vt 0.906184 0.837306
vt 0.893205 0.850350
vt 0.841451 0.837306
vt 0.880323 0.850350
vt 0.867344 0.850253
vt 0.841451 0.850253
vt 0.854397 0.889093
vt 0.906184 0.889093
vt 0.906184 0.902039
vt 0.841451 0.902039
vt 0.841451 0.837306
vt 0.854397 0.850253
vt 0.906184 0.837306
vt 0.906184 0.850253
vt 0.906184 0.902039
vt 0.841451 0.902039
vt 0.841451 0.889093
vt 0.867344 0.889093
vt 0.893205 0.888996
vt 0.880323 0.888996
vt 0.906184 0.837306
vt 0.893205 0.850350
vt 0.841451 0.837306
vt 0.880323 0.850350
vt 0.867344 0.850253
vt 0.841451 0.850253
vt 0.854397 0.889093
vt 0.906184 0.889093
vt 0.906184 0.902039
vt 0.841451 0.902039
vt 0.841451 0.837306
vt 0.854397 0.850253
vt 0.906184 0.837306
vt 0.906184 0.850253
vt 0.906184 0.902039
vt 0.841451 0.902039
vt 0.841451 0.889093
vt 0.867344 0.889093
vt 0.893205 0.888996
vt 0.880323 0.888996
vt 0.906184 0.837306
vt 0.893205 0.850350
vt 0.841451 0.837306
vt 0.880323 0.850350
vt 0.867344 0.850253
vt 0.841451 0.850253
vt 0.854397 0.889093
vt 0.906184 0.889093
vt 0.906184 0.902039
vt 0.841451 0.902039
vt 0.841451 0.837306
vt 0.854397 0.850253
vt 0.906184 0.837306
vt 0.906184 0.850253
vn -0.707107 -0.707107 0.000000
vn -0.707107 -0.707107 0.000000
vn -0.707107 -0.707107 0.000000
vn -0.707107 -0.707107 0.000000
vn 0.000000 -0.707107 0.707107
vn 0.000000 -0.707107 0.707107
vn 0.000000 -0.707107 0.707107
vn 0.000000 -0.707107 0.707107
vn -0.707107 0.000000 0.707107
vn -0.707107 0.000000 0.707107
vn -0.707107 0.000000 0.707107
vn -0.707107 0.000000 0.707107
vn 0.707107 -0.707107 0.000000
vn 0.707107 -0.707107 0.000000
vn 0.707107 -0.707107 0.000000
vn 0.707107 -0.707107 0.000000
vn 0.707107 0.000000 0.707107
vn 0.707107 0.000000 0.707107
vn 0.707107 0.000000 0.707107
vn 0.707107 0.000000 0.707107
vn -0.707107 0.707107 0.000000
vn -0.707107 0.707107 0.000000
vn -0.707107 0.707107 0.000000
vn -0.707107 0.707107 0.000000
vn 0.000000 0.707107 0.707107
vn 0.000000 0.707107 0.707107
vn 0.000000 0.707107 0.707107
vn 0.000000 0.707107 0.707107
vn 0.707107 0.707107 0.000000
vn 0.707107 0.707107 0.000000
vn 0.707107 0.707107 0.000000
vn 0.707107 0.707107 0.000000
vn -0.707107 0.000000 -0.707107
vn -0.707107 0.000000 -0.707107
vn -0.707107 0.000000 -0.707107
vn -0.707107 0.000000 -0.707107
vn 0.000000 0.707107 -0.707107
vn 0.000000 0.707107 -0.707107
vn 0.000000 0.707107 -0.707107
vn 0.000000 0.707107 -0.707107
vn 0.707107 0.000000 -0.707107
vn 0.707107 0.000000 -0.707107
vn 0.707107 0.000000 -0.707107
vn 0.707107 0.000000 -0.707107
vn 0.000000 -0.707107 -0.707107
vn 0.000000 -0.707107 -0.707107
vn 0.000000 -0.707107 -0.707107
vn 0.000000 -0.707107 -0.707107
vn -0.577350 -0.577350 0.577350
vn -0.577350 -0.577350 0.577350
vn -0.577350 -0.577350 0.577350
vn 0.577350 -0.577350 0.577350
vn 0.577350 -0.577350 0.577350
vn 0.577350 -0.577350 0.577350
vn -0.577350 0.577350 0.577350
vn -0.577350 0.577350 0.577350
vn -0.577350 0.577350 0.577350
vn 0.577350 0.577350 0.577350
vn 0.577350 0.577350 0.577350
vn 0.577350 0.577350 0.577350
vn -0.577350 0.577350 -0.577350
vn -0.577350 0.577350 -0.577350
vn -0.577350 0.577350 -0.577350
vn 0.577350 0.577350 -0.577350
vn 0.577350 0.577350 -0.577350
vn 0.577350 0.577350 -0.577350
vn -0.577350 -0.577350 -0.577350
vn -0.577350 -0.577350 -0.577350
vn -0.577350 -0.577350 -0.577350
vn 0.577350 -0.577350 -0.577350
vn 0.577350 -0.577350 -0.577350
vn 0.577350 -0.577350 -0.577350
vn 1.000000 0.000000 0.000000
vn 1.000000 0.000000 0.000000
vn 1.000000 0.000000 0.000000
vn 1.000000 0.000000 0.000000
vn 1.000000 0.000000 0.000000
vn 1.000000 0.000000 0.000000
vn 1.000000 0.000000 0.000000
vn 1.000000 0.000000 0.000000
vn 1.000000 0.000000 0.000000
vn 1.000000 0.000000 0.000000
vn 1.000000 0.000000 0.000000
vn 1.000000 0.000000 0.000000
vn 1.000000 0.000000 0.000000
vn 1.000000 0.000000 0.000000
vn 1.000000 0.000000 0.000000
vn 1.000000 0.000000 0.000000
vn 1.000000 0.000000 0.000000
vn 1.000000 0.000000 0.000000
vn 1.000000 0.000000 0.000000
vn 1.000000 0.000000 0.000000
vn 1.000000 0.000000 0.000000
vn 1.000000 0.000000 0.000000
vn 1.000000 0.000000 0.000000
vn 1.000000 0.000000 0.000000
vn 1.000000 0.000000 0.000000
vn 1.000000 0.000000 0.000000
vn 1.000000 -0.000000 0.000000
vn 1.000000 0.000000 0.000000
vn 1.000000 0.000000 0.000000
vn 1.000000 -0.000000 0.000000
vn 1.000000 -0.000000 0.000000
vn 1.000000 -0.000000 0.000000
vn 1.000000 -0.000000 0.000000
vn 1.000000 -0.000000 0.000000
vn 1.000000 -0.000000 0.000000
vn 1.000000 -0.000000 0.000000
vn 1.000000 0.000000 0.000000
vn 1.000000 0.000000 0.000000
vn 0.000000 -1.000000 0.000000
vn 0.000000 -1.000000 0.000000
vn 0.000000 -1.000000 0.000000
vn 0.000000 -1.000000 0.000000
vn 0.000000 -1.000000 0.000000
vn 0.000000 -1.000000 0.000000
vn 0.000000 -1.000000 0.000000
vn 0.000000 -1.000000 0.000000
vn 0.000000 -1.000000 0.000000
vn 0.000000 -1.000000 0.000000
vn 0.000000 -1.000000 0.000000
vn 0.000000 -1.000000 0.000000
vn 0.000000 -1.000000 0.000000
vn 0.000000 -1.000000 0.000000
vn 0.000000 -1.000000 0.000000
vn 0.000000 -1.000000 0.000000
vn 0.000000 -1.000000 0.000000
vn 0.000000 -1.000000 0.000000
vn 0.000000 -1.000000 0.000000
vn 0.000000 -1.000000 0.000000
vn 0.000000 -1.000000 0.000000
vn 0.000000 -1.000000 0.000000
vn 0.000000 -1.000000 0.000000
vn 0.000000 -1.000000 0.000000
vn 0.000000 -1.000000 0.000000
vn 0.000000 -1.000000 0.000000
vn 0.000000 -1.000000 -0.000000
vn 0.000000 -1.000000 -0.000001
vn 0.000000 -1.000000 -0.000001
vn 0.000000 -1.000000 -0.000000
vn 0.000000 -1.000000 -0.000000
vn 0.000000 -1.000000 -0.000000
vn 0.000000 -1.000000 0.000001
vn 0.000000 -1.000000 0.000001
vn 0.000000 -1.000000 0.000001
vn 0.000000 -1.000000 0.000001
vn 0.000000 -1.000000 0.000001
vn 0.000000 -1.000000 0.000001
vn 0.000000 1.000000 0.000000
vn 0.000000 1.000000 0.000000
vn 0.000000 1.000000 0.000000
vn 0.000000 1.000000 0.000000
vn 0.000000 1.000000 0.000000
vn 0.000000 1.000000 0.000000
vn 0.000000 1.000000 0.000000
vn 0.000000 1.000000 0.000000
vn 0.000000 1.000000 0.000000
vn 0.000000 1.000000 0.000000
vn 0.000000 1.000000 0.000000
vn 0.000000 1.000000 0.000000
vn 0.000000 1.000000 0.000000
vn 0.000000 1.000000 0.000000
vn 0.000000 1.000000 0.000000
vn 0.000000 1.000000 0.000000
vn 0.000000 1.000000 0.000000
vn 0.000000 1.000000 0.000000
vn 0.000000 1.000000 0.000000
vn 0.000000 1.000000 0.000000
vn 0.000000 1.000000 0.000000
vn 0.000000 1.000000 0.000000
vn 0.000000 1.000000 0.000000
vn 0.000000 1.000000 0.000000
vn 0.000000 1.000000 0.000000
vn 0.000000 1.000000 0.000000
vn 0.000000 1.000000 -0.000000
vn 0.000000 1.000000 -0.000001
vn 0.000000 1.000000 -0.000001
vn 0.000000 1.000000 -0.000000
vn 0.000000 1.000000 -0.000000
vn 0.000000 1.000000 -0.000000
vn 0.000000 1.000000 0.000001
vn 0.000000 1.000000 0.000001
vn 0.000000 1.000000 0.000001
vn 0.000000 1.000000 0.000001
vn 0.000000 1.000000 0.000001
vn 0.000000 1.000000 0.000001
vn 0.000000 0.000000 -1.000000
vn 0.000000 0.000000 -1.000000
vn 0.000000 0.000000 -1.000000
vn 0.000000 0.000000 -1.000000
vn 0.000000 0.000000 -1.000000
vn 0.000000 0.000000 -1.000000
vn 0.000000 0.000000 -1.000000
vn 0.000000 0.000000 -1.000000
vn 0.000000 0.000000 -1.000000
vn 0.000000 0.000000 -1.000000
vn 0.000000 0.000000 -1.000000
vn 0.000000 0.000000 -1.000000
vn 0.000000 0.000000 -1.000000
vn 0.000000 0.000000 -1.000000
vn 0.000000 0.000000 -1.000000
vn 0.000000 0.000000 -1.000000
vn 0.000000 0.000000 -1.000000
vn 0.000000 0.000000 -1.000000
vn 0.000000 0.000000 -1.000000
vn 0.000000 0.000000 -1.000000
vn 0.000000 0.000000 -1.000000
vn 0.000000 0.000000 -1.000000
vn 0.000000 0.000000 -1.000000
vn 0.000000 0.000000 -1.000000
vn 0.000000 0.000000 -1.000000
vn 0.000000 0.000000 -1.000000
vn -0.000000 0.000000 -1.000000
vn -0.000001 0.000000 -1.000000
vn -0.000001 0.000000 -1.000000
vn -0.000000 0.000000 -1.000000
vn -0.000000 0.000000 -1.000000
vn -0.000000 0.000000 -1.000000
vn 0.000001 0.000000 -1.000000
vn 0.000001 0.000000 -1.000000
vn 0.000001 0.000000 -1.000000
vn 0.000001 0.000000 -1.000000
vn 0.000001 0.000000 -1.000000
vn 0.000001 0.000000 -1.000000
vn -1.000000 0.000000 0.000000
vn -1.000000 0.000000 0.000000
vn -1.000000 0.000000 0.000000
vn -1.000000 0.000000 0.000000
vn -1.000000 0.000000 0.000000
vn -1.000000 0.000000 0.000000
vn -1.000000 0.000000 0.000000
vn -1.000000 0.000000 0.000000
vn -1.000000 0.000000 0.000000
vn -1.000000 0.000000 0.000000
vn -1.000000 0.000000 0.000000
vn -1.000000 0.000000 0.000000
vn -1.000000 0.000000 0.000000
vn -1.000000 0.000000 0.000000
vn -1.000000 0.000000 0.000000
vn -1.000000 0.000000 0.000000
vn -1.000000 0.000000 0.000000
vn -1.000000 0.000000 0.000000
vn -1.000000 0.000000 0.000000
vn -1.000000 0.000000 0.000000
vn -1.000000 0.000000 0.000000
vn -1.000000 0.000000 0.000000
vn -1.000000 0.000000 0.000000
vn -1.000000 0.000000 0.000000
vn -1.000000 0.000000 0.000000
vn -1.000000 0.000000 0.000000
vn -1.000000 -0.000000 0.000000
vn -1.000000 0.000000 0.000000
vn -1.000000 0.000000 0.000000
vn -1.000000 -0.000000 0.000000
vn -1.000000 -0.000000 0.000000
vn -1.000000 -0.000000 0.000000
vn -1.000000 -0.000000 0.000000
vn -1.000000 -0.000000 0.000000
vn -1.000000 -0.000000 0.000000
vn -1.000000 -0.000000 0.000000
vn -1.000000 0.000000 0.000000
vn -1.000000 0.000000 0.000000
vn -0.000000 0.000000 1.000000
vn 0.000000 0.000000 1.000000
vn 0.000000 0.000000 1.000000
vn -0.000000 0.000000 1.000000
vn -0.000000 0.000000 1.000000
vn -0.000000 0.000000 1.000000
vn -0.000000 0.000000 1.000000
vn -0.000000 0.000000 1.000000
vn 0.000000 0.000000 1.000000
vn -0.000000 0.000000 1.000000
vn -0.000000 0.000000 1.000000
vn 0.000000 0.000000 1.000000
vn 0.000000 0.000000 1.000000
vn 0.000000 0.000000 1.000000
vn 0.000000 0.000000 1.000000
vn 0.000000 0.000000 1.000000
vn -0.000000 0.000000 1.000000
vn -0.000000 0.000000 1.000000
vn 0.000000 0.000000 1.000000
vn 0.000000 0.000000 1.000000
vn 0.000000 0.000000 1.000000
vn 0.000000 0.000000 1.000000
vn 0.000000 0.000000 1.000000
vn 0.000000 0.000000 1.000000
vn 0.000000 0.000000 1.000000
vn 0.000000 0.000000 1.000000
vn 0.000000 0.000000 1.000000
vn 0.000001 0.000000 1.000000
vn 0.000001 0.000000 1.000000
vn 0.000000 0.000000 1.000000
vn 0.000000 0.000000 1.000000
vn 0.000000 0.000000 1.000000
vn -0.000001 0.000000 1.000000
vn -0.000001 0.000000 1.000000
vn -0.000001 0.000000 1.000000
vn -0.000001 0.000000 1.000000
vn -0.000001 0.000000 1.000000
vn -0.000001 0.000000 1.000000
s off
g OreGoldIcon
f 1/1/1 3/2/2 19/3/3 21/4/4
f 2/5/5 1/1/6 6/7/7 5/8/8
f 3/2/9 2/5/10 8/9/11 7/10/12
f 4/15/13 6/7/14 22/14/15 24/18/16
f 5/19/17 4/20/18 12/21/19 11/22/20
f 7/10/21 9/16/22 14/17/23 13/11/24
f 9/24/25 8/25/26 11/22/27 10/23/28
f 10/23/29 12/21/30 18/26/31 17/27/32
f 13/11/33 15/12/34 20/6/35 19/3/36
f 15/31/37 14/32/38 17/33/39 16/34/40
f 16/28/41 18/26/42 24/29/43 23/30/44
f 21/4/45 20/6/46 23/13/47 22/14/48
f 1/1/49 2/5/50 3/2/51
f 4/15/52 5/8/53 6/7/54
f 7/10/55 8/9/56 9/16/57
f 10/23/58 11/22/59 12/21/60
f 13/11/61 14/17/62 15/12/63
f 16/28/64 17/27/65 18/26/66
f 19/3/67 20/6/68 21/4/69
f 22/14/70 23/13/71 24/18/72
f 26/35/73 27/36/74 28/37/75 29/38/76
f 36/39/77 26/35/78 29/38/79 35/40/80
f 25/41/81 26/35/82 36/39/83 33/42/84
f 32/43/85 25/41/86 33/42/87 34/44/88
f 35/40/89 29/38/90 30/45/91 34/44/92
f 34/44/93 30/45/94 32/43/95
f 30/45/96 31/46/97 32/43/98
f 44/47/99 37/48/100 38/49/101 39/50/102
f 44/47/103 39/50/104 40/51/105 43/52/106
f 43/52/107 40/51/108 41/53/109 42/54/110
f 46/55/111 47/56/112 48/57/113 49/58/114
f 56/59/115 46/55/116 49/58/117 55/60/118
f 45/61/119 46/55/120 56/59/121 53/62/122
f 52/63/123 45/61/124 53/62/125 54/64/126
f 55/60/127 49/58/128 50/65/129 54/64/130
f 54/64/131 50/65/132 52/63/133
f 50/65/134 51/66/135 52/63/136
f 64/67/137 57/68/138 58/69/139 59/70/140
f 64/67/141 59/70/142 60/71/143 63/72/144
f 63/72/145 60/71/146 61/73/147 62/74/148
f 66/75/149 67/76/150 68/77/151 69/78/152
f 76/79/153 66/75/154 69/78/155 75/80/156
f 65/81/157 66/75/158 76/79/159 73/82/160
f 72/83/161 65/81/162 73/82/163 74/84/164
f 75/80/165 69/78/166 70/85/167 74/84/168
f 74/84/169 70/85/170 72/83/171
f 70/85/172 71/86/173 72/83/174
f 84/87/175 77/88/176 78/89/177 79/90/178
f 84/87/179 79/90/180 80/91/181 83/92/182
f 83/92/183 80/91/184 81/93/185 82/94/186
f 86/95/187 87/96/188 88/97/189 89/98/190
f 96/99/191 86/95/192 89/98/193 95/100/194
f 85/101/195 86/95/196 96/99/197 93/102/198
f 92/103/199 85/101/200 93/102/201 94/104/202
f 95/100/203 89/98/204 90/105/205 94/104/206
f 94/104/207 90/105/208 92/103/209
f 90/105/210 91/106/211 92/103/212
f 104/107/213 97/108/214 98/109/215 99/110/216
f 104/107/217 99/110/218 100/111/219 103/112/220
f 103/112/221 100/111/222 101/113/223 102/114/224
f 106/115/225 107/116/226 108/117/227 109/118/228
f 116/119/229 106/115/230 109/118/231 115/120/232
f 105/121/233 106/115/234 116/119/235 113/122/236
f 112/123/237 105/121/238 113/122/239 114/124/240
f 115/120/241 109/118/242 110/125/243 114/124/244
f 114/124/245 110/125/246 112/123/247
f 110/125/248 111/126/249 112/123/250
f 124/127/251 117/128/252 118/129/253 119/130/254
f 124/127/255 119/130/256 120/131/257 123/132/258
f 123/132/259 120/131/260 121/133/261 122/134/262
f 126/135/263 127/136/264 128/137/265 129/138/266
f 136/139/267 126/135/268 129/138/269 135/140/270
f 125/141/271 126/135/272 136/139/273 133/142/274
f 132/143/275 125/141/276 133/142/277 134/144/278
f 135/140/279 129/138/280 130/145/281 134/144/282
f 134/144/283 130/145/284 132/143/285
f 130/145/286 131/146/287 132/143/288
f 144/147/289 137/148/290 138/149/291 139/150/292
f 144/147/293 139/150/294 140/151/295 143/152/296
f 143/152/297 140/151/298 141/153/299 142/154/300
