# This file uses centimeters as units for non-parametric coordinates.

g default
v -33.313862 -37.014992 33.313862
v -33.313862 -33.313862 37.014992
v -37.014992 -33.313862 33.313862
v 37.014992 -33.313862 33.313862
v 33.313862 -33.313862 37.014992
v 33.313862 -37.014992 33.313862
v -37.014992 33.313862 33.313862
v -33.313862 33.313862 37.014992
v -33.313862 37.014992 33.313862
v 33.313862 37.014992 33.313862
v 33.313862 33.313862 37.014992
v 37.014992 33.313862 33.313862
v -37.014992 33.313862 -33.313862
v -33.313862 37.014992 -33.313862
v -33.313862 33.313862 -37.014992
v 33.313862 33.313862 -37.014992
v 33.313862 37.014992 -33.313862
v 37.014992 33.313862 -33.313862
v -37.014992 -33.313862 -33.313862
v -33.313862 -33.313862 -37.014992
v -33.313862 -37.014992 -33.313862
v 33.313862 -37.014992 -33.313862
v 33.313862 -33.313862 -37.014992
v 37.014992 -33.313862 -33.313862
v 37.014992 6.979023 -23.256561
v 37.014992 6.979023 -4.651306
v 37.014992 -11.626242 -4.651306
v 37.014992 -11.626242 -23.256561
v 37.014992 -7.905189 -23.256561
v 37.014992 -7.905189 -8.372375
v 37.014992 -4.184136 -8.372375
v 37.014992 -4.184136 -15.814453
v 37.014992 -0.463084 -15.814453
v 37.014992 -0.463084 -8.372375
v 37.014992 3.257970 -8.372375
v 37.014992 3.257970 -23.256561
v 37.014992 11.630339 0.000000
v 37.014992 11.630339 23.256592
v 37.014992 -11.626242 23.256592
v 37.014992 -11.626242 18.605286
v 37.014992 -2.323609 18.605286
v 37.014992 -2.323609 9.302673
v 37.014992 2.327705 9.302673
v 37.014992 2.327705 18.605286
v 37.014992 6.979023 18.605286
v 37.014992 6.979023 0.000000
v -37.014992 6.979023 23.256561
v -37.014992 6.979023 4.651306
v -37.014992 -11.626242 4.651306
v -37.014992 -11.626242 23.256561
v -37.014992 -7.905189 23.256561
v -37.014992 -7.905189 8.372375
v -37.014992 -4.184136 8.372375
v -37.014992 -4.184136 15.814453
v -37.014992 -0.463084 15.814453
v -37.014992 -0.463084 8.372375
v -37.014992 3.257970 8.372375
v -37.014992 3.257970 23.256561
v -37.014992 11.630339 0.000000
v -37.014992 11.630339 -23.256592
v -37.014992 -11.626242 -23.256592
v -37.014992 -11.626242 -18.605286
v -37.014992 -2.323609 -18.605286
v -37.014992 -2.323609 -9.302673
v -37.014992 2.327705 -9.302673
v -37.014992 2.327705 -18.605286
v -37.014992 6.979023 -18.605286
v -37.014992 6.979023 0.000000
v 6.979023 -37.014992 -23.256561
v 6.979023 -37.014992 -4.651306
v -11.626242 -37.014992 -4.651306
v -11.626242 -37.014992 -23.256561
v -7.905189 -37.014992 -23.256561
v -7.905189 -37.014992 -8.372375
v -4.184136 -37.014992 -8.372375
v -4.184136 -37.014992 -15.814453
v -0.463084 -37.014992 -15.814453
v -0.463084 -37.014992 -8.372375
v 3.257970 -37.014992 -8.372375
v 3.257970 -37.014992 -23.256561
v 11.630339 -37.014992 0.000000
v 11.630339 -37.014992 23.256592
v -11.626242 -37.014992 23.256592
v -11.626242 -37.014992 18.605286
v -2.323609 -37.014992 18.605286
v -2.323609 -37.014992 9.302673
v 2.327705 -37.014992 9.302673
v 2.327705 -37.014992 18.605286
v 6.979023 -37.014992 18.605286
v 6.979023 -37.014992 0.000000
v -6.979023 37.014992 -23.256561
v -6.979023 37.014992 -4.651306
v 11.626242 37.014992 -4.651306
v 11.626242 37.014992 -23.256561
v 7.905189 37.014992 -23.256561
v 7.905189 37.014992 -8.372375
v 4.184136 37.014992 -8.372375
v 4.184136 37.014992 -15.814453
v 0.463084 37.014992 -15.814453
v 0.463084 37.014992 -8.372375
v -3.257970 37.014992 -8.372375
v -3.257970 37.014992 -23.256561
v -11.630339 37.014992 0.000000
v -11.630339 37.014992 23.256592
v 11.626242 37.014992 23.256592
v 11.626242 37.014992 18.605286
v 2.323609 37.014992 18.605286
v 2.323609 37.014992 9.302673
v -2.327705 37.014992 9.302673
v -2.327705 37.014992 18.605286
v -6.979023 37.014992 18.605286
v -6.979023 37.014992 0.000000
v -23.256561 6.979023 -37.014992
v -4.651306 6.979023 -37.014992
v -4.651306 -11.626242 -37.014992
v -23.256561 -11.626242 -37.014992
v -23.256561 -7.905189 -37.014992
v -8.372375 -7.905189 -37.014992
v -8.372375 -4.184136 -37.014992
v -15.814453 -4.184136 -37.014992
v -15.814453 -0.463084 -37.014992
v -8.372375 -0.463084 -37.014992
v -8.372375 3.257970 -37.014992
v -23.256561 3.257970 -37.014992
v 0.000000 11.630339 -37.014992
v 23.256592 11.630339 -37.014992
v 23.256592 -11.626242 -37.014992
v 18.605286 -11.626242 -37.014992
v 18.605286 -2.323609 -37.014992
v 9.302673 -2.323609 -37.014992
v 9.302673 2.327705 -37.014992
v 18.605286 2.327705 -37.014992
v 18.605286 6.979023 -37.014992
v 0.000000 6.979023 -37.014992
v 23.256561 6.979023 37.014992
v 4.651306 6.979023 37.014992
v 4.651306 -11.626242 37.014992
v 23.256561 -11.626242 37.014992
v 23.256561 -7.905189 37.014992
v 8.372375 -7.905189 37.014992
v 8.372375 -4.184136 37.014992
v 15.814453 -4.184136 37.014992
v 15.814453 -0.463084 37.014992
v 8.372375 -0.463084 37.014992
v 8.372375 3.257970 37.014992
v 23.256561 3.257970 37.014992
v 0.000000 11.630339 37.014992
v -23.256592 11.630339 37.014992
v -23.256592 -11.626242 37.014992
v -18.605286 -11.626242 37.014992
v -18.605286 -2.323609 37.014992
v -9.302673 -2.323609 37.014992
v -9.302673 2.327705 37.014992
v -18.605286 2.327705 37.014992
v -18.605286 6.979023 37.014992
v 0.000000 6.979023 37.014992
vt 0.162112 0.583969
vt 0.162112 0.587790
vt 0.093327 0.587790
vt 0.093327 0.583969
vt 0.165933 0.587790
vt 0.089506 0.587790
vt 0.162112 0.583969
vt 0.165933 0.587790
vt 0.165933 0.656576
vt 0.162112 0.656576
vt 0.093327 0.656576
vt 0.089506 0.656576
vt 0.089506 0.587790
vt 0.093327 0.583969
vt 0.162112 0.587790
vt 0.162112 0.660397
vt 0.093327 0.660397
vt 0.093327 0.587790
vt 0.091416 0.660397
vt 0.091416 0.656576
vt 0.160202 0.656576
vt 0.160202 0.660397
vt 0.164023 0.656576
vt 0.164023 0.656576
vt 0.160202 0.660397
vt 0.160202 0.587790
vt 0.164023 0.587790
vt 0.160202 0.583969
vt 0.091416 0.587790
vt 0.091416 0.583969
vt 0.128739 0.647585
vt 0.124918 0.647585
vt 0.124918 0.578799
vt 0.128739 0.578799
vt 0.906184 0.889093
vt 0.906184 0.902039
vt 0.841451 0.902039
vt 0.854397 0.889093
vt 0.841451 0.837306
vt 0.854397 0.876146
vt 0.854397 0.863199
vt 0.906184 0.837306
vt 0.906184 0.850253
vt 0.854397 0.850253
vt 0.880291 0.863199
vt 0.880291 0.876146
vt 0.893237 0.837306
vt 0.906184 0.837306
vt 0.906184 0.902039
vt 0.893237 0.889093
vt 0.841451 0.902039
vt 0.880291 0.889093
vt 0.867344 0.889093
vt 0.841451 0.889093
vt 0.867344 0.863199
vt 0.880291 0.863199
vt 0.906184 0.889093
vt 0.906184 0.902039
vt 0.841451 0.902039
vt 0.854397 0.889093
vt 0.841451 0.837306
vt 0.854397 0.876146
vt 0.854397 0.863199
vt 0.906184 0.837306
vt 0.906184 0.850253
vt 0.854397 0.850253
vt 0.880291 0.863199
vt 0.880291 0.876146
vt 0.893237 0.837306
vt 0.906184 0.837306
vt 0.906184 0.902039
vt 0.893237 0.889093
vt 0.841451 0.902039
vt 0.880291 0.889093
vt 0.867344 0.889093
vt 0.841451 0.889093
vt 0.867344 0.863199
vt 0.880291 0.863199
vt 0.906184 0.889093
vt 0.906184 0.902039
vt 0.841451 0.902039
vt 0.854397 0.889093
vt 0.841451 0.837306
vt 0.854397 0.876146
vt 0.854397 0.863199
vt 0.906184 0.837306
vt 0.906184 0.850253
vt 0.854397 0.850253
vt 0.880291 0.863199
vt 0.880291 0.876146
vt 0.893237 0.837306
vt 0.906184 0.837306
vt 0.906184 0.902039
vt 0.893237 0.889093
vt 0.841451 0.902039
vt 0.880291 0.889093
vt 0.867344 0.889093
vt 0.841451 0.889093
vt 0.867344 0.863199
vt 0.880291 0.863199
vt 0.906184 0.889093
vt 0.906184 0.902039
vt 0.841451 0.902039
vt 0.854397 0.889093
vt 0.841451 0.837306
vt 0.854397 0.876146
vt 0.854397 0.863199
vt 0.906184 0.837306
vt 0.906184 0.850253
vt 0.854397 0.850253
vt 0.880291 0.863199
vt 0.880291 0.876146
vt 0.893237 0.837306
vt 0.906184 0.837306
vt 0.906184 0.902039
vt 0.893237 0.889093
vt 0.841451 0.902039
vt 0.880291 0.889093
vt 0.867344 0.889093
vt 0.841451 0.889093
vt 0.867344 0.863199
vt 0.880291 0.863199
vt 0.906184 0.889093
vt 0.906184 0.902039
vt 0.841451 0.902039
vt 0.854397 0.889093
vt 0.841451 0.837306
vt 0.854397 0.876146
vt 0.854397 0.863199
vt 0.906184 0.837306
vt 0.906184 0.850253
vt 0.854397 0.850253
vt 0.880291 0.863199
vt 0.880291 0.876146
vt 0.893237 0.837306
vt 0.906184 0.837306
vt 0.906184 0.902039
vt 0.893237 0.889093
vt 0.841451 0.902039
vt 0.880291 0.889093
vt 0.867344 0.889093
vt 0.841451 0.889093
vt 0.867344 0.863199
vt 0.880291 0.863199
vt 0.906184 0.889093
vt 0.906184 0.902039
vt 0.841451 0.902039
vt 0.854397 0.889093
vt 0.841451 0.837306
vt 0.854397 0.876146
vt 0.854397 0.863199
vt 0.906184 0.837306
vt 0.906184 0.850253
vt 0.854397 0.850253
vt 0.880291 0.863199
vt 0.880291 0.876146
vt 0.893237 0.837306
vt 0.906184 0.837306
vt 0.906184 0.902039
vt 0.893237 0.889093
vt 0.841451 0.902039
vt 0.880291 0.889093
vt 0.867344 0.889093
vt 0.841451 0.889093
vt 0.867344 0.863199
vt 0.880291 0.863199
vn -0.707107 -0.707107 0.000000
vn -0.707107 -0.707107 0.000000
vn -0.707107 -0.707107 0.000000
vn -0.707107 -0.707107 0.000000
vn 0.000000 -0.707107 0.707107
vn 0.000000 -0.707107 0.707107
vn 0.000000 -0.707107 0.707107
vn 0.000000 -0.707107 0.707107
vn -0.707107 0.000000 0.707107
vn -0.707107 0.000000 0.707107
vn -0.707107 0.000000 0.707107
vn -0.707107 0.000000 0.707107
vn 0.707107 -0.707107 0.000000
vn 0.707107 -0.707107 0.000000
vn 0.707107 -0.707107 0.000000
vn 0.707107 -0.707107 0.000000
vn 0.707107 0.000000 0.707107
vn 0.707107 0.000000 0.707107
vn 0.707107 0.000000 0.707107
vn 0.707107 0.000000 0.707107
vn -0.707107 0.707107 0.000000
vn -0.707107 0.707107 0.000000
vn -0.707107 0.707107 0.000000
vn -0.707107 0.707107 0.000000
vn 0.000000 0.707107 0.707107
vn 0.000000 0.707107 0.707107
vn 0.000000 0.707107 0.707107
vn 0.000000 0.707107 0.707107
vn 0.707107 0.707107 0.000000
vn 0.707107 0.707107 0.000000
vn 0.707107 0.707107 0.000000
vn 0.707107 0.707107 0.000000
vn -0.707107 0.000000 -0.707107
vn -0.707107 0.000000 -0.707107
vn -0.707107 0.000000 -0.707107
vn -0.707107 0.000000 -0.707107
vn 0.000000 0.707107 -0.707107
vn 0.000000 0.707107 -0.707107
vn 0.000000 0.707107 -0.707107
vn 0.000000 0.707107 -0.707107
vn 0.707107 0.000000 -0.707107
vn 0.707107 0.000000 -0.707107
vn 0.707107 0.000000 -0.707107
vn 0.707107 0.000000 -0.707107
vn 0.000000 -0.707107 -0.707107
vn 0.000000 -0.707107 -0.707107
vn 0.000000 -0.707107 -0.707107
vn 0.000000 -0.707107 -0.707107
vn -0.577350 -0.577350 0.577350
vn -0.577350 -0.577350 0.577350
vn -0.577350 -0.577350 0.577350
vn 0.577350 -0.577350 0.577350
vn 0.577350 -0.577350 0.577350
vn 0.577350 -0.577350 0.577350
vn -0.577350 0.577350 0.577350
vn -0.577350 0.577350 0.577350
vn -0.577350 0.577350 0.577350
vn 0.577350 0.577350 0.577350
vn 0.577350 0.577350 0.577350
vn 0.577350 0.577350 0.577350
vn -0.577350 0.577350 -0.577350
vn -0.577350 0.577350 -0.577350
vn -0.577350 0.577350 -0.577350
vn 0.577350 0.577350 -0.577350
vn 0.577350 0.577350 -0.577350
vn 0.577350 0.577350 -0.577350
vn -0.577350 -0.577350 -0.577350
vn -0.577350 -0.577350 -0.577350
vn -0.577350 -0.577350 -0.577350
vn 0.577350 -0.577350 -0.577350
vn 0.577350 -0.577350 -0.577350
vn 0.577350 -0.577350 -0.577350
vn 1.000000 0.000000 0.000000
vn 1.000000 0.000000 0.000000
vn 1.000000 0.000000 0.000000
vn 1.000000 0.000000 0.000000
vn 1.000000 0.000000 0.000000
vn 1.000000 0.000000 0.000000
vn 1.000000 0.000000 0.000000
vn 1.000000 0.000000 0.000000
vn 1.000000 0.000000 0.000000
vn 1.000000 0.000000 0.000000
vn 1.000000 0.000000 0.000000
vn 1.000000 0.000000 0.000000
vn 1.000000 0.000000 0.000000
vn 1.000000 0.000000 0.000000
vn 1.000000 0.000000 0.000000
vn 1.000000 0.000000 0.000000
vn 1.000000 0.000000 0.000000
vn 1.000000 0.000000 0.000000
vn 1.000000 0.000000 0.000000
vn 1.000000 0.000000 0.000000
vn 1.000000 0.000000 0.000000
vn 1.000000 0.000000 0.000000
vn 1.000000 0.000001 0.000000
vn 1.000000 0.000001 0.000000
vn 1.000000 0.000000 0.000000
vn 1.000000 0.000000 0.000000
vn 1.000000 0.000000 0.000000
vn 1.000000 0.000000 0.000000
vn 1.000000 0.000000 0.000000
vn 1.000000 0.000000 0.000000
vn 1.000000 0.000000 0.000000
vn 1.000000 0.000000 0.000000
vn 1.000000 0.000000 0.000000
vn 1.000000 0.000000 0.000000
vn 1.000000 0.000000 0.000000
vn 1.000000 0.000000 0.000000
vn 1.000000 0.000000 0.000000
vn 1.000000 0.000000 0.000000
vn 1.000000 0.000000 0.000000
vn 1.000000 0.000000 0.000000
vn -1.000000 0.000000 0.000000
vn -1.000000 0.000000 0.000000
vn -1.000000 0.000000 0.000000
vn -1.000000 0.000000 0.000000
vn -1.000000 0.000000 0.000000
vn -1.000000 0.000000 0.000000
vn -1.000000 0.000000 0.000000
vn -1.000000 0.000000 0.000000
vn -1.000000 0.000000 0.000000
vn -1.000000 0.000000 0.000000
vn -1.000000 0.000000 0.000000
vn -1.000000 0.000000 0.000000
vn -1.000000 0.000000 0.000000
vn -1.000000 0.000000 0.000000
vn -1.000000 0.000000 0.000000
vn -1.000000 0.000000 0.000000
vn -1.000000 0.000000 0.000000
vn -1.000000 0.000000 0.000000
vn -1.000000 0.000000 0.000000
vn -1.000000 0.000000 0.000000
vn -1.000000 0.000000 0.000000
vn -1.000000 0.000000 0.000000
vn -1.000000 0.000001 0.000000
vn -1.000000 0.000001 0.000000
vn -1.000000 0.000000 0.000000
vn -1.000000 0.000000 0.000000
vn -1.000000 0.000000 0.000000
vn -1.000000 0.000000 0.000000
vn -1.000000 0.000000 0.000000
vn -1.000000 0.000000 0.000000
vn -1.000000 0.000000 0.000000
vn -1.000000 0.000000 0.000000
vn -1.000000 0.000000 0.000000
vn -1.000000 0.000000 0.000000
vn -1.000000 0.000000 0.000000
vn -1.000000 0.000000 0.000000
vn -1.000000 0.000000 0.000000
vn -1.000000 0.000000 0.000000
vn -1.000000 0.000000 0.000000
vn -1.000000 0.000000 0.000000
vn 0.000000 -1.000000 0.000000
vn 0.000000 -1.000000 0.000000
vn 0.000000 -1.000000 -0.000000
vn 0.000000 -1.000000 -0.000000
vn 0.000000 -1.000000 -0.000000
vn 0.000000 -1.000000 0.000000
vn 0.000000 -1.000000 -0.000000
vn 0.000000 -1.000000 0.000001
vn 0.000000 -1.000000 -0.000000
vn 0.000000 -1.000000 0.000000
vn 0.000000 -1.000000 0.000001
vn 0.000000 -1.000000 0.000000
vn 0.000000 -1.000000 0.000000
vn 0.000000 -1.000000 0.000000
vn 0.000000 -1.000000 0.000000
vn 0.000000 -1.000000 0.000001
vn 0.000000 -1.000000 0.000000
vn 0.000000 -1.000000 0.000000
vn 0.000000 -1.000000 0.000001
vn 0.000000 -1.000000 0.000000
vn 0.000000 -1.000000 0.000000
vn 0.000000 -1.000000 0.000001
vn 0.000000 -1.000000 0.000000
vn 0.000000 -1.000000 0.000000
vn 0.000000 -1.000000 0.000000
vn 0.000000 -1.000000 0.000000
vn 0.000000 -1.000000 0.000000
vn 0.000000 -1.000000 0.000000
vn 0.000000 -1.000000 0.000000
vn 0.000000 -1.000000 -0.000000
vn 0.000000 -1.000000 0.000000
vn 0.000000 -1.000000 0.000000
vn 0.000000 -1.000000 -0.000000
vn 0.000000 -1.000000 0.000000
vn 0.000000 -1.000000 -0.000000
vn 0.000000 -1.000000 0.000000
vn 0.000000 -1.000000 -0.000000
vn 0.000000 -1.000000 -0.000000
vn 0.000000 -1.000000 0.000000
vn 0.000000 -1.000000 0.000000
vn 0.000000 1.000000 0.000000
vn 0.000000 1.000000 0.000000
vn 0.000000 1.000000 -0.000000
vn 0.000000 1.000000 -0.000000
vn 0.000000 1.000000 -0.000000
vn 0.000000 1.000000 0.000000
vn 0.000000 1.000000 -0.000000
vn 0.000000 1.000000 0.000001
vn 0.000000 1.000000 -0.000000
vn 0.000000 1.000000 0.000000
vn 0.000000 1.000000 0.000001
vn 0.000000 1.000000 0.000000
vn 0.000000 1.000000 0.000000
vn 0.000000 1.000000 0.000000
vn 0.000000 1.000000 0.000000
vn 0.000000 1.000000 0.000001
vn 0.000000 1.000000 0.000000
vn 0.000000 1.000000 0.000000
vn 0.000000 1.000000 0.000001
vn 0.000000 1.000000 0.000000
vn 0.000000 1.000000 0.000000
vn 0.000000 1.000000 0.000001
vn 0.000000 1.000000 0.000000
vn 0.000000 1.000000 0.000000
vn 0.000000 1.000000 0.000000
vn 0.000000 1.000000 0.000000
vn 0.000000 1.000000 0.000000
vn 0.000000 1.000000 0.000000
vn 0.000000 1.000000 0.000000
vn 0.000000 1.000000 -0.000000
vn 0.000000 1.000000 0.000000
vn 0.000000 1.000000 0.000000
vn 0.000000 1.000000 -0.000000
vn 0.000000 1.000000 0.000000
vn 0.000000 1.000000 -0.000000
vn 0.000000 1.000000 0.000000
vn 0.000000 1.000000 -0.000000
vn 0.000000 1.000000 -0.000000
vn 0.000000 1.000000 0.000000
vn 0.000000 1.000000 0.000000
vn 0.000000 0.000000 -1.000000
vn 0.000000 0.000000 -1.000000
vn -0.000000 0.000000 -1.000000
vn -0.000000 0.000000 -1.000000
vn -0.000000 0.000000 -1.000000
vn 0.000000 0.000000 -1.000000
vn -0.000000 0.000000 -1.000000
vn 0.000001 0.000000 -1.000000
vn -0.000000 0.000000 -1.000000
vn 0.000000 0.000000 -1.000000
vn 0.000001 0.000000 -1.000000
vn 0.000000 0.000000 -1.000000
vn 0.000000 0.000000 -1.000000
vn 0.000000 0.000000 -1.000000
vn 0.000000 0.000000 -1.000000
vn 0.000001 0.000000 -1.000000
vn 0.000000 0.000000 -1.000000
vn 0.000000 0.000000 -1.000000
vn 0.000001 0.000000 -1.000000
vn 0.000000 0.000000 -1.000000
vn 0.000000 0.000000 -1.000000
vn 0.000001 0.000000 -1.000000
vn 0.000000 0.000000 -1.000000
vn 0.000000 0.000000 -1.000000
vn 0.000000 0.000000 -1.000000
vn 0.000000 0.000000 -1.000000
vn 0.000000 0.000000 -1.000000
vn 0.000000 0.000000 -1.000000
vn 0.000000 0.000000 -1.000000
vn -0.000000 0.000000 -1.000000
vn 0.000000 0.000000 -1.000000
vn 0.000000 0.000000 -1.000000
vn -0.000000 0.000000 -1.000000
vn 0.000000 0.000000 -1.000000
vn -0.000000 0.000000 -1.000000
vn 0.000000 0.000000 -1.000000
vn -0.000000 0.000000 -1.000000
vn -0.000000 0.000000 -1.000000
vn 0.000000 0.000000 -1.000000
vn 0.000000 0.000000 -1.000000
vn 0.000000 0.000000 1.000000
vn 0.000000 0.000000 1.000000
vn 0.000000 0.000000 1.000000
vn 0.000000 0.000000 1.000000
vn 0.000000 0.000000 1.000000
vn -0.000000 0.000000 1.000000
vn 0.000000 0.000000 1.000000
vn -0.000001 0.000000 1.000000
vn 0.000000 0.000000 1.000000
vn -0.000000 0.000000 1.000000
vn -0.000001 0.000000 1.000000
vn -0.000000 0.000000 1.000000
vn 0.000000 0.000000 1.000000
vn 0.000000 0.000000 1.000000
vn 0.000000 0.000000 1.000000
vn -0.000001 0.000000 1.000000
vn 0.000000 0.000000 1.000000
vn 0.000000 0.000000 1.000000
vn -0.000001 0.000000 1.000000
vn -0.000000 0.000000 1.000000
vn 0.000000 0.000000 1.000000
vn -0.000001 0.000000 1.000000
vn 0.000000 0.000000 1.000000
vn 0.000000 0.000000 1.000000
vn -0.000000 0.000000 1.000000
vn -0.000000 0.000000 1.000000
vn -0.000000 0.000000 1.000000
vn -0.000000 0.000000 1.000000
vn -0.000000 0.000000 1.000000
vn 0.000000 0.000000 1.000000
vn -0.000000 0.000000 1.000000
vn -0.000000 0.000000 1.000000
vn 0.000000 0.000000 1.000000
vn 0.000000 0.000000 1.000000
vn 0.000000 0.000000 1.000000
vn -0.000000 0.000000 1.000000
vn 0.000000 0.000000 1.000000
vn 0.000000 0.000000 1.000000
vn 0.000000 0.000000 1.000000
vn 0.000000 0.000000 1.000000
s off
g OreIronIcon
f 1/1/1 3/2/2 19/3/3 21/4/4
f 2/5/5 1/1/6 6/7/7 5/8/8
f 3/2/9 2/5/10 8/9/11 7/10/12
f 4/15/13 6/7/14 22/14/15 24/18/16
f 5/19/17 4/20/18 12/21/19 11/22/20
f 7/10/21 9/16/22 14/17/23 13/11/24
f 9/24/25 8/25/26 11/22/27 10/23/28
f 10/23/29 12/21/30 18/26/31 17/27/32
f 13/11/33 15/12/34 20/6/35 19/3/36
f 15/31/37 14/32/38 17/33/39 16/34/40
f 16/28/41 18/26/42 24/29/43 23/30/44
f 21/4/45 20/6/46 23/13/47 22/14/48
f 1/1/49 2/5/50 3/2/51
f 4/15/52 5/8/53 6/7/54
f 7/10/55 8/9/56 9/16/57
f 10/23/58 11/22/59 12/21/60
f 13/11/61 14/17/62 15/12/63
f 16/28/64 17/27/65 18/26/66
f 19/3/67 20/6/68 21/4/69
f 22/14/70 23/13/71 24/18/72
f 36/35/73 25/36/74 26/37/75 35/38/76
f 26/37/77 27/39/78 35/38/79
f 34/40/80 35/38/81 27/39/82 31/41/83
f 27/39/84 28/42/85 29/43/86 30/44/87
f 31/41/88 32/45/89 33/46/90 34/40/91
f 27/39/92 30/44/93 31/41/94
f 46/47/95 37/48/96 38/49/97 45/50/98
f 38/49/99 39/51/100 45/50/101
f 44/52/102 45/50/103 39/51/104 41/53/105
f 40/54/106 41/53/107 39/51/108
f 44/52/109 41/53/110 42/55/111 43/56/112
f 58/57/113 47/58/114 48/59/115 57/60/116
f 48/59/117 49/61/118 57/60/119
f 56/62/120 57/60/121 49/61/122 53/63/123
f 49/61/124 50/64/125 51/65/126 52/66/127
f 53/63/128 54/67/129 55/68/130 56/62/131
f 49/61/132 52/66/133 53/63/134
f 68/69/135 59/70/136 60/71/137 67/72/138
f 60/71/139 61/73/140 67/72/141
f 66/74/142 67/72/143 61/73/144 63/75/145
f 62/76/146 63/75/147 61/73/148
f 66/74/149 63/75/150 64/77/151 65/78/152
f 80/79/153 69/80/154 70/81/155 79/82/156
f 70/81/157 71/83/158 79/82/159
f 78/84/160 79/82/161 71/83/162 75/85/163
f 71/83/164 72/86/165 73/87/166 74/88/167
f 75/85/168 76/89/169 77/90/170 78/84/171
f 71/83/172 74/88/173 75/85/174
f 90/91/175 81/92/176 82/93/177 89/94/178
f 82/93/179 83/95/180 89/94/181
f 88/96/182 89/94/183 83/95/184 85/97/185
f 84/98/186 85/97/187 83/95/188
f 88/96/189 85/97/190 86/99/191 87/100/192
f 102/101/193 91/102/194 92/103/195 101/104/196
f 92/103/197 93/105/198 101/104/199
f 100/106/200 101/104/201 93/105/202 97/107/203
f 93/105/204 94/108/205 95/109/206 96/110/207
f 97/107/208 98/111/209 99/112/210 100/106/211
f 93/105/212 96/110/213 97/107/214
f 112/113/215 103/114/216 104/115/217 111/116/218
f 104/115/219 105/117/220 111/116/221
f 110/118/222 111/116/223 105/117/224 107/119/225
f 106/120/226 107/119/227 105/117/228
f 110/118/229 107/119/230 108/121/231 109/122/232
f 124/123/233 113/124/234 114/125/235 123/126/236
f 114/125/237 115/127/238 123/126/239
f 122/128/240 123/126/241 115/127/242 119/129/243
f 115/127/244 116/130/245 117/131/246 118/132/247
f 119/129/248 120/133/249 121/134/250 122/128/251
f 115/127/252 118/132/253 119/129/254
f 134/135/255 125/136/256 126/137/257 133/138/258
f 126/137/259 127/139/260 133/138/261
f 132/140/262 133/138/263 127/139/264 129/141/265
f 128/142/266 129/141/267 127/139/268
f 132/140/269 129/141/270 130/143/271 131/144/272
f 146/145/273 135/146/274 136/147/275 145/148/276
f 136/147/277 137/149/278 145/148/279
f 144/150/280 145/148/281 137/149/282 141/151/283
f 137/149/284 138/152/285 139/153/286 140/154/287
f 141/151/288 142/155/289 143/156/290 144/150/291
f 137/149/292 140/154/293 141/151/294
f 156/157/295 147/158/296 148/159/297 155/160/298
f 148/159/299 149/161/300 155/160/301
f 154/162/302 155/160/303 149/161/304 151/163/305
f 150/164/306 151/163/307 149/161/308
f 154/162/309 151/163/310 152/165/311 153/166/312
