# This file uses centimeters as units for non-parametric coordinates.

g default
v 2.325251 11.626242 -37.014992
v 25.577734 11.626242 -37.014992
v 25.577734 -11.626242 -37.014992
v 20.927237 -11.626242 -37.014992
v 20.927237 -2.325248 -37.014992
v 2.325251 -2.325248 -37.014992
v 7.010624 6.964121 -37.014992
v 7.010624 2.336875 -37.014992
v 20.892357 2.336875 -37.014992
v 20.892357 6.964121 -37.014992
v -2.325245 11.626242 -37.014992
v -2.325245 -11.626242 -37.014992
v -25.577730 -11.626242 -37.014992
v -20.892359 -2.336874 -37.014992
v -20.892359 -6.964118 -37.014992
v -7.010622 -6.964118 -37.014992
v -7.010622 -2.336874 -37.014992
v -25.577730 2.336875 -37.014992
v -7.010622 2.336875 -37.014992
v -7.010622 11.626242 -37.014992
v -37.014992 11.626242 -2.325251
v -37.014992 11.626242 -25.577734
v -37.014992 -11.626242 -25.577734
v -37.014992 -11.626242 -20.927237
v -37.014992 -2.325248 -20.927237
v -37.014992 -2.325248 -2.325251
v -37.014992 6.964121 -7.010624
v -37.014992 2.336875 -7.010624
v -37.014992 2.336875 -20.892357
v -37.014992 6.964121 -20.892357
v -37.014992 11.626242 2.325245
v -37.014992 -11.626242 2.325245
v -37.014992 -11.626242 25.577730
v -37.014992 -2.336874 20.892359
v -37.014992 -6.964118 20.892359
v -37.014992 -6.964118 7.010622
v -37.014992 -2.336874 7.010622
v -37.014992 2.336875 25.577730
v -37.014992 2.336875 7.010622
v -37.014992 11.626242 7.010622
v 11.626242 -37.014992 2.325251
v 11.626242 -37.014992 25.577734
v -11.626242 -37.014992 25.577734
v -11.626242 -37.014992 20.927237
v -2.325248 -37.014992 20.927237
v -2.325248 -37.014992 2.325251
v 6.964121 -37.014992 7.010624
v 2.336875 -37.014992 7.010624
v 2.336875 -37.014992 20.892357
v 6.964121 -37.014992 20.892357
v 11.626242 -37.014992 -2.325245
v -11.626242 -37.014992 -2.325245
v -11.626242 -37.014992 -25.577730
v -2.336874 -37.014992 -20.892359
v -6.964118 -37.014992 -20.892359
v -6.964118 -37.014992 -7.010622
v -2.336874 -37.014992 -7.010622
v 2.336875 -37.014992 -25.577730
v 2.336875 -37.014992 -7.010622
v 11.626242 -37.014992 -7.010622
v -2.325251 11.626242 37.014992
v -25.577734 11.626242 37.014992
v -25.577734 -11.626242 37.014992
v -20.927237 -11.626242 37.014992
v -20.927237 -2.325248 37.014992
v -2.325251 -2.325248 37.014992
v -7.010624 6.964121 37.014992
v -7.010624 2.336875 37.014992
v -20.892357 2.336875 37.014992
v -20.892357 6.964121 37.014992
v 2.325245 11.626242 37.014992
v 2.325245 -11.626242 37.014992
v 25.577730 -11.626242 37.014992
v 20.892359 -2.336874 37.014992
v 20.892359 -6.964118 37.014992
v 7.010622 -6.964118 37.014992
v 7.010622 -2.336874 37.014992
v 25.577730 2.336875 37.014992
v 7.010622 2.336875 37.014992
v 7.010622 11.626242 37.014992
v -11.626242 37.014992 2.325251
v -11.626242 37.014992 25.577734
v 11.626242 37.014992 25.577734
v 11.626242 37.014992 20.927237
v 2.325248 37.014992 20.927237
v 2.325248 37.014992 2.325251
v -6.964121 37.014992 7.010624
v -2.336875 37.014992 7.010624
v -2.336875 37.014992 20.892357
v -6.964121 37.014992 20.892357
v -11.626242 37.014992 -2.325245
v 11.626242 37.014992 -2.325245
v 11.626242 37.014992 -25.577730
v 2.336874 37.014992 -20.892359
v 6.964118 37.014992 -20.892359
v 6.964118 37.014992 -7.010622
v 2.336874 37.014992 -7.010622
v -2.336875 37.014992 -25.577730
v -2.336875 37.014992 -7.010622
v -11.626242 37.014992 -7.010622
v 37.014992 11.626242 2.325251
v 37.014992 11.626242 25.577734
v 37.014992 -11.626242 25.577734
v 37.014992 -11.626242 20.927237
v 37.014992 -2.325248 20.927237
v 37.014992 -2.325248 2.325251
v 37.014992 6.964121 7.010624
v 37.014992 2.336875 7.010624
v 37.014992 2.336875 20.892357
v 37.014992 6.964121 20.892357
v 37.014992 11.626242 -2.325245
v 37.014992 -11.626242 -2.325245
v 37.014992 -11.626242 -25.577730
v 37.014992 -2.336874 -20.892359
v 37.014992 -6.964118 -20.892359
v 37.014992 -6.964118 -7.010622
v 37.014992 -2.336874 -7.010622
v 37.014992 2.336875 -25.577730
v 37.014992 2.336875 -7.010622
v 37.014992 11.626242 -7.010622
v 33.313862 -37.014992 33.313862
v 37.014992 -33.313862 33.313862
v 33.313862 -33.313862 37.014992
v 33.313862 -33.313862 -37.014992
v 37.014992 -33.313862 -33.313862
v 33.313862 -37.014992 -33.313862
v 33.313862 33.313862 37.014992
v 37.014992 33.313862 33.313862
v 33.313862 37.014992 33.313862
v 33.313862 37.014992 -33.313862
v 37.014992 33.313862 -33.313862
v 33.313862 33.313862 -37.014992
v -33.313862 33.313862 37.014992
v -33.313862 37.014992 33.313862
v -37.014992 33.313862 33.313862
v -37.014992 33.313862 -33.313862
v -33.313862 37.014992 -33.313862
v -33.313862 33.313862 -37.014992
v -33.313862 -33.313862 37.014992
v -37.014992 -33.313862 33.313862
v -33.313862 -37.014992 33.313862
v -33.313862 -37.014992 -33.313862
v -37.014992 -33.313862 -33.313862
v -33.313862 -33.313862 -37.014992
vt 0.913809 0.864837
vt 0.913809 0.908432
vt 0.899168 0.893864
vt 0.899168 0.879405
vt 0.841150 0.908432
vt 0.855791 0.893864
vt 0.855682 0.864837
vt 0.855791 0.879405
vt 0.841150 0.835774
vt 0.855682 0.835774
vt 0.855791 0.908432
vt 0.841150 0.908432
vt 0.841150 0.835774
vt 0.855791 0.879405
vt 0.855791 0.864801
vt 0.855791 0.850342
vt 0.913809 0.879405
vt 0.899168 0.864801
vt 0.913809 0.835774
vt 0.899168 0.850342
vt 0.913809 0.864837
vt 0.913809 0.908432
vt 0.899168 0.893864
vt 0.899168 0.879405
vt 0.841150 0.908432
vt 0.855791 0.893864
vt 0.855682 0.864837
vt 0.855791 0.879405
vt 0.841150 0.835774
vt 0.855682 0.835774
vt 0.913809 0.893792
vt 0.913809 0.908432
vt 0.841150 0.908432
vt 0.884782 0.893792
vt 0.870177 0.893792
vt 0.855718 0.893792
vt 0.884782 0.835774
vt 0.870177 0.850414
vt 0.841150 0.835774
vt 0.855718 0.850414
vt 0.913809 0.864837
vt 0.913809 0.908432
vt 0.899168 0.893864
vt 0.899168 0.879405
vt 0.841150 0.908432
vt 0.855791 0.893864
vt 0.855682 0.864837
vt 0.855791 0.879405
vt 0.841150 0.835774
vt 0.855682 0.835774
vt 0.855791 0.908432
vt 0.841150 0.908432
vt 0.841150 0.835774
vt 0.855791 0.879405
vt 0.855791 0.864801
vt 0.855791 0.850342
vt 0.913809 0.879405
vt 0.899168 0.864801
vt 0.913809 0.835774
vt 0.899168 0.850342
vt 0.913809 0.864837
vt 0.913809 0.908432
vt 0.899168 0.893864
vt 0.899168 0.879405
vt 0.841150 0.908432
vt 0.855791 0.893864
vt 0.855682 0.864837
vt 0.855791 0.879405
vt 0.841150 0.835774
vt 0.855682 0.835774
vt 0.855791 0.908432
vt 0.841150 0.908432
vt 0.841150 0.835774
vt 0.855791 0.879405
vt 0.855791 0.864801
vt 0.855791 0.850342
vt 0.913809 0.879405
vt 0.899168 0.864801
vt 0.913809 0.835774
vt 0.899168 0.850342
vt 0.841150 0.879369
vt 0.841150 0.835774
vt 0.855791 0.850342
vt 0.855791 0.864801
vt 0.913809 0.835774
vt 0.899168 0.850342
vt 0.899277 0.879369
vt 0.899168 0.864801
vt 0.913809 0.908432
vt 0.899277 0.908432
vt 0.841150 0.850414
vt 0.841150 0.835774
vt 0.913809 0.835774
vt 0.870177 0.850414
vt 0.884782 0.850414
vt 0.899241 0.850414
vt 0.870177 0.908432
vt 0.884782 0.893792
vt 0.913809 0.908432
vt 0.899241 0.893792
vt 0.913809 0.864837
vt 0.913809 0.908432
vt 0.899168 0.893864
vt 0.899168 0.879405
vt 0.841150 0.908432
vt 0.855791 0.893864
vt 0.855682 0.864837
vt 0.855791 0.879405
vt 0.841150 0.835774
vt 0.855682 0.835774
vt 0.855791 0.908432
vt 0.841150 0.908432
vt 0.841150 0.835774
vt 0.855791 0.879405
vt 0.855791 0.864801
vt 0.855791 0.850342
vt 0.913809 0.879405
vt 0.899168 0.864801
vt 0.913809 0.835774
vt 0.899168 0.850342
vt 0.162112 0.583969
vt 0.162112 0.587790
vt 0.093327 0.587790
vt 0.093327 0.583969
vt 0.165933 0.587790
vt 0.089506 0.587790
vt 0.162112 0.583969
vt 0.165933 0.587790
vt 0.165933 0.656576
vt 0.162112 0.656576
vt 0.093327 0.656576
vt 0.089506 0.656576
vt 0.089506 0.587790
vt 0.093327 0.583969
vt 0.162112 0.587790
vt 0.162112 0.660397
vt 0.093327 0.660397
vt 0.093327 0.587790
vt 0.091416 0.660397
vt 0.091416 0.656576
vt 0.160202 0.656576
vt 0.160202 0.660397
vt 0.164023 0.656576
vt 0.164023 0.656576
vt 0.160202 0.660397
vt 0.160202 0.587790
vt 0.164023 0.587790
vt 0.160202 0.583969
vt 0.091416 0.587790
vt 0.091416 0.583969
vt 0.127178 0.658094
vt 0.123357 0.658094
vt 0.123357 0.589309
vt 0.127178 0.589309
vn -0.000000 0.000000 -1.000000
vn -0.000000 0.000000 -1.000000
vn -0.000000 0.000000 -1.000000
vn -0.000000 0.000000 -1.000000
vn 0.000000 0.000000 -1.000000
vn 0.000000 0.000000 -1.000000
vn 0.000000 0.000000 -1.000000
vn 0.000000 0.000000 -1.000000
vn 0.000000 0.000000 -1.000000
vn 0.000000 0.000000 -1.000000
vn 0.000000 0.000000 -1.000000
vn 0.000000 0.000000 -1.000000
vn 0.000000 0.000000 -1.000000
vn 0.000000 0.000000 -1.000000
vn 0.000000 0.000000 -1.000000
vn 0.000000 0.000000 -1.000000
vn -0.000001 0.000000 -1.000000
vn -0.000001 0.000000 -1.000000
vn -0.000001 0.000000 -1.000000
vn 0.000000 0.000000 -1.000000
vn 0.000000 0.000000 -1.000000
vn 0.000000 0.000000 -1.000000
vn 0.000000 0.000000 -1.000000
vn 0.000000 0.000000 -1.000000
vn 0.000000 0.000000 -1.000000
vn 0.000000 0.000000 -1.000000
vn 0.000000 0.000000 -1.000000
vn 0.000000 0.000000 -1.000000
vn 0.000000 0.000000 -1.000000
vn 0.000000 0.000000 -1.000000
vn 0.000001 0.000000 -1.000000
vn 0.000001 0.000000 -1.000000
vn 0.000001 0.000000 -1.000000
vn -0.000006 0.000000 -1.000000
vn -0.000006 0.000000 -1.000000
vn -0.000006 0.000000 -1.000000
vn 0.000000 0.000000 -1.000000
vn 0.000000 0.000000 -1.000000
vn 0.000000 0.000000 -1.000000
vn 0.000000 0.000000 -1.000000
vn 0.000000 0.000000 -1.000000
vn 0.000000 0.000000 -1.000000
vn 0.000000 0.000000 -1.000000
vn 0.000000 0.000000 -1.000000
vn -1.000000 0.000000 0.000000
vn -1.000000 0.000000 0.000000
vn -1.000000 0.000000 0.000000
vn -1.000000 0.000000 0.000000
vn -1.000000 0.000000 0.000000
vn -1.000000 0.000000 0.000000
vn -1.000000 0.000000 0.000000
vn -1.000000 0.000000 0.000000
vn -1.000000 0.000000 0.000000
vn -1.000000 0.000000 0.000000
vn -1.000000 0.000000 0.000000
vn -1.000000 0.000000 0.000000
vn -1.000000 0.000000 0.000000
vn -1.000000 0.000000 0.000000
vn -1.000000 0.000000 0.000000
vn -1.000000 0.000000 0.000000
vn -1.000000 -0.000001 0.000000
vn -1.000000 -0.000001 0.000000
vn -1.000000 -0.000001 0.000000
vn -1.000000 0.000000 0.000000
vn -1.000000 0.000000 0.000000
vn -1.000000 0.000000 0.000000
vn -1.000000 0.000000 0.000000
vn -1.000000 0.000000 0.000000
vn -1.000000 0.000000 0.000000
vn -1.000000 0.000000 0.000000
vn -1.000000 0.000000 0.000000
vn -1.000000 0.000000 0.000000
vn -1.000000 0.000000 0.000000
vn -1.000000 0.000000 0.000000
vn -1.000000 0.000000 0.000000
vn -1.000000 0.000000 0.000000
vn -1.000000 0.000000 0.000000
vn -1.000000 0.000000 0.000000
vn -1.000000 0.000000 0.000000
vn -1.000000 0.000000 0.000000
vn -1.000000 0.000000 0.000000
vn -1.000000 0.000000 0.000000
vn -1.000000 0.000000 0.000000
vn -1.000000 0.000000 0.000000
vn -1.000000 0.000000 0.000000
vn -1.000000 0.000000 0.000000
vn -1.000000 0.000000 0.000000
vn -1.000000 0.000000 0.000000
vn 0.000000 -1.000000 -0.000000
vn 0.000000 -1.000000 -0.000000
vn 0.000000 -1.000000 -0.000000
vn 0.000000 -1.000000 -0.000000
vn 0.000000 -1.000000 0.000000
vn 0.000000 -1.000000 0.000000
vn 0.000000 -1.000000 0.000000
vn 0.000000 -1.000000 0.000000
vn 0.000000 -1.000000 0.000000
vn 0.000000 -1.000000 0.000000
vn 0.000000 -1.000000 0.000000
vn 0.000000 -1.000000 0.000000
vn 0.000000 -1.000000 0.000000
vn 0.000000 -1.000000 0.000000
vn 0.000000 -1.000000 0.000000
vn 0.000000 -1.000000 0.000000
vn 0.000000 -1.000000 -0.000001
vn 0.000000 -1.000000 -0.000001
vn 0.000000 -1.000000 -0.000001
vn 0.000000 -1.000000 0.000000
vn 0.000000 -1.000000 0.000000
vn 0.000000 -1.000000 0.000000
vn 0.000000 -1.000000 0.000000
vn 0.000000 -1.000000 0.000000
vn 0.000000 -1.000000 0.000000
vn 0.000000 -1.000000 0.000000
vn 0.000000 -1.000000 0.000000
vn 0.000000 -1.000000 0.000000
vn 0.000000 -1.000000 0.000000
vn 0.000000 -1.000000 0.000000
vn 0.000000 -1.000000 0.000001
vn 0.000000 -1.000000 0.000001
vn 0.000000 -1.000000 0.000001
vn 0.000000 -1.000000 -0.000006
vn 0.000000 -1.000000 -0.000006
vn 0.000000 -1.000000 -0.000006
vn 0.000000 -1.000000 0.000000
vn 0.000000 -1.000000 0.000000
vn 0.000000 -1.000000 0.000000
vn 0.000000 -1.000000 0.000000
vn 0.000000 -1.000000 0.000000
vn 0.000000 -1.000000 0.000000
vn 0.000000 -1.000000 0.000000
vn 0.000000 -1.000000 0.000000
vn 0.000000 0.000000 1.000000
vn 0.000000 0.000000 1.000000
vn 0.000000 0.000000 1.000000
vn 0.000000 0.000000 1.000000
vn 0.000000 0.000000 1.000000
vn 0.000000 0.000000 1.000000
vn 0.000000 0.000000 1.000000
vn 0.000000 0.000000 1.000000
vn 0.000000 0.000000 1.000000
vn 0.000000 0.000000 1.000000
vn 0.000000 0.000000 1.000000
vn 0.000000 0.000000 1.000000
vn 0.000000 0.000000 1.000000
vn 0.000000 0.000000 1.000000
vn 0.000000 0.000000 1.000000
vn 0.000000 0.000000 1.000000
vn 0.000001 0.000000 1.000000
vn 0.000001 0.000000 1.000000
vn 0.000001 0.000000 1.000000
vn 0.000000 0.000000 1.000000
vn 0.000000 0.000000 1.000000
vn 0.000000 0.000000 1.000000
vn 0.000000 0.000000 1.000000
vn 0.000000 0.000000 1.000000
vn 0.000000 0.000000 1.000000
vn 0.000000 0.000000 1.000000
vn 0.000000 0.000000 1.000000
vn 0.000000 0.000000 1.000000
vn 0.000000 0.000000 1.000000
vn 0.000000 0.000000 1.000000
vn -0.000001 0.000000 1.000000
vn -0.000001 0.000000 1.000000
vn -0.000001 0.000000 1.000000
vn 0.000006 0.000000 1.000000
vn 0.000006 0.000000 1.000000
vn 0.000006 0.000000 1.000000
vn 0.000000 0.000000 1.000000
vn 0.000000 0.000000 1.000000
vn 0.000000 0.000000 1.000000
vn 0.000000 0.000000 1.000000
vn -0.000000 0.000000 1.000000
vn -0.000000 0.000000 1.000000
vn -0.000000 0.000000 1.000000
vn -0.000000 0.000000 1.000000
vn 0.000000 1.000000 -0.000000
vn 0.000000 1.000000 -0.000000
vn 0.000000 1.000000 -0.000000
vn 0.000000 1.000000 -0.000000
vn 0.000000 1.000000 0.000000
vn 0.000000 1.000000 0.000000
vn 0.000000 1.000000 0.000000
vn 0.000000 1.000000 0.000000
vn 0.000000 1.000000 0.000000
vn 0.000000 1.000000 0.000000
vn 0.000000 1.000000 0.000000
vn 0.000000 1.000000 0.000000
vn 0.000000 1.000000 0.000000
vn 0.000000 1.000000 0.000000
vn 0.000000 1.000000 0.000000
vn 0.000000 1.000000 0.000000
vn 0.000000 1.000000 -0.000001
vn 0.000000 1.000000 -0.000001
vn 0.000000 1.000000 -0.000001
vn 0.000000 1.000000 0.000000
vn 0.000000 1.000000 0.000000
vn 0.000000 1.000000 0.000000
vn 0.000000 1.000000 0.000000
vn 0.000000 1.000000 0.000000
vn 0.000000 1.000000 0.000000
vn 0.000000 1.000000 0.000000
vn 0.000000 1.000000 0.000000
vn 0.000000 1.000000 0.000000
vn 0.000000 1.000000 0.000000
vn 0.000000 1.000000 0.000000
vn 0.000000 1.000000 0.000001
vn 0.000000 1.000000 0.000001
vn 0.000000 1.000000 0.000001
vn 0.000000 1.000000 -0.000006
vn 0.000000 1.000000 -0.000006
vn 0.000000 1.000000 -0.000006
vn 0.000000 1.000000 0.000000
vn 0.000000 1.000000 0.000000
vn 0.000000 1.000000 0.000000
vn 0.000000 1.000000 0.000000
vn 0.000000 1.000000 0.000000
vn 0.000000 1.000000 0.000000
vn 0.000000 1.000000 0.000000
vn 0.000000 1.000000 0.000000
vn 1.000000 0.000000 0.000000
vn 1.000000 0.000000 0.000000
vn 1.000000 0.000000 0.000000
vn 1.000000 0.000000 0.000000
vn 1.000000 0.000000 0.000000
vn 1.000000 0.000000 0.000000
vn 1.000000 0.000000 0.000000
vn 1.000000 0.000000 0.000000
vn 1.000000 0.000000 0.000000
vn 1.000000 0.000000 0.000000
vn 1.000000 0.000000 0.000000
vn 1.000000 0.000000 0.000000
vn 1.000000 0.000000 0.000000
vn 1.000000 0.000000 0.000000
vn 1.000000 0.000000 0.000000
vn 1.000000 0.000000 0.000000
vn 1.000000 -0.000001 0.000000
vn 1.000000 -0.000001 0.000000
vn 1.000000 -0.000001 0.000000
vn 1.000000 0.000000 0.000000
vn 1.000000 0.000000 0.000000
vn 1.000000 0.000000 0.000000
vn 1.000000 0.000000 0.000000
vn 1.000000 0.000000 0.000000
vn 1.000000 0.000000 0.000000
vn 1.000000 0.000000 0.000000
vn 1.000000 0.000000 0.000000
vn 1.000000 0.000000 0.000000
vn 1.000000 0.000000 0.000000
vn 1.000000 0.000000 0.000000
vn 1.000000 0.000000 0.000000
vn 1.000000 0.000000 0.000000
vn 1.000000 0.000000 0.000000
vn 1.000000 0.000000 0.000000
vn 1.000000 0.000000 0.000000
vn 1.000000 0.000000 0.000000
vn 1.000000 0.000000 0.000000
vn 1.000000 0.000000 0.000000
vn 1.000000 0.000000 0.000000
vn 1.000000 0.000000 0.000000
vn 1.000000 0.000000 0.000000
vn 1.000000 0.000000 0.000000
vn 1.000000 0.000000 0.000000
vn 1.000000 0.000000 0.000000
vn 0.000000 -0.707107 0.707107
vn 0.000000 -0.707107 0.707107
vn 0.000000 -0.707107 0.707107
vn 0.000000 -0.707107 0.707107
vn 0.707107 -0.707107 0.000000
vn 0.707107 -0.707107 0.000000
vn 0.707107 -0.707107 0.000000
vn 0.707107 -0.707107 0.000000
vn 0.707107 0.000000 0.707107
vn 0.707107 0.000000 0.707107
vn 0.707107 0.000000 0.707107
vn 0.707107 0.000000 0.707107
vn 0.000000 -0.707107 -0.707107
vn 0.000000 -0.707107 -0.707107
vn 0.000000 -0.707107 -0.707107
vn 0.000000 -0.707107 -0.707107
vn 0.707107 0.000000 -0.707107
vn 0.707107 0.000000 -0.707107
vn 0.707107 0.000000 -0.707107
vn 0.707107 0.000000 -0.707107
vn 0.000000 0.707107 0.707107
vn 0.000000 0.707107 0.707107
vn 0.000000 0.707107 0.707107
vn 0.000000 0.707107 0.707107
vn 0.707107 0.707107 0.000000
vn 0.707107 0.707107 0.000000
vn 0.707107 0.707107 0.000000
vn 0.707107 0.707107 0.000000
vn 0.000000 0.707107 -0.707107
vn 0.000000 0.707107 -0.707107
vn 0.000000 0.707107 -0.707107
vn 0.000000 0.707107 -0.707107
vn -0.707107 0.000000 0.707107
vn -0.707107 0.000000 0.707107
vn -0.707107 0.000000 0.707107
vn -0.707107 0.000000 0.707107
vn -0.707107 0.707107 0.000000
vn -0.707107 0.707107 0.000000
vn -0.707107 0.707107 0.000000
vn -0.707107 0.707107 0.000000
vn -0.707107 0.000000 -0.707107
vn -0.707107 0.000000 -0.707107
vn -0.707107 0.000000 -0.707107
vn -0.707107 0.000000 -0.707107
vn -0.707107 -0.707107 0.000000
vn -0.707107 -0.707107 0.000000
vn -0.707107 -0.707107 0.000000
vn -0.707107 -0.707107 0.000000
vn 0.577350 -0.577350 0.577350
vn 0.577350 -0.577350 0.577350
vn 0.577350 -0.577350 0.577350
vn 0.577350 -0.577350 -0.577350
vn 0.577350 -0.577350 -0.577350
vn 0.577350 -0.577350 -0.577350
vn 0.577350 0.577350 0.577350
vn 0.577350 0.577350 0.577350
vn 0.577350 0.577350 0.577350
vn 0.577350 0.577350 -0.577350
vn 0.577350 0.577350 -0.577350
vn 0.577350 0.577350 -0.577350
vn -0.577350 0.577350 0.577350
vn -0.577350 0.577350 0.577350
vn -0.577350 0.577350 0.577350
vn -0.577350 0.577350 -0.577350
vn -0.577350 0.577350 -0.577350
vn -0.577350 0.577350 -0.577350
vn -0.577350 -0.577350 0.577350
vn -0.577350 -0.577350 0.577350
vn -0.577350 -0.577350 0.577350
vn -0.577350 -0.577350 -0.577350
vn -0.577350 -0.577350 -0.577350
vn -0.577350 -0.577350 -0.577350
s off
g OreLeadIcon
f 6/1/1 1/2/2 7/3/3 8/4/4
f 7/3/5 1/2/6 2/5/7 10/6/8
f 10/6/9 2/5/10 3/9/11 9/8/12
f 5/7/13 6/1/14 8/4/15 9/8/16
f 9/8/17 3/9/18 5/7/19
f 3/9/20 4/10/21 5/7/22
f 20/11/23 11/12/24 12/13/25 19/14/26
f 16/16/27 12/13/28 13/19/29 15/20/30
f 16/16/31 17/15/32 12/13/33
f 12/13/34 17/15/35 19/14/36
f 18/17/37 19/14/38 17/15/39 14/18/40
f 13/19/41 18/17/42 14/18/43 15/20/44
f 26/81/45 21/82/46 27/83/47 28/84/48
f 27/83/49 21/82/50 22/85/51 30/86/52
f 30/86/53 22/85/54 23/89/55 29/88/56
f 25/87/57 26/81/58 28/84/59 29/88/60
f 29/88/61 23/89/62 25/87/63
f 23/89/64 24/90/65 25/87/66
f 40/91/67 31/92/68 32/93/69 39/94/70
f 36/96/71 32/93/72 33/99/73 35/100/74
f 36/96/75 37/95/76 32/93/77
f 32/93/78 37/95/79 39/94/80
f 38/97/81 39/94/82 37/95/83 34/98/84
f 33/99/85 38/97/86 34/98/87 35/100/88
f 46/41/89 41/42/90 47/43/91 48/44/92
f 47/43/93 41/42/94 42/45/95 50/46/96
f 50/46/97 42/45/98 43/49/99 49/48/100
f 45/47/101 46/41/102 48/44/103 49/48/104
f 49/48/105 43/49/106 45/47/107
f 43/49/108 44/50/109 45/47/110
f 60/51/111 51/52/112 52/53/113 59/54/114
f 56/56/115 52/53/116 53/59/117 55/60/118
f 56/56/119 57/55/120 52/53/121
f 52/53/122 57/55/123 59/54/124
f 58/57/125 59/54/126 57/55/127 54/58/128
f 53/59/129 58/57/130 54/58/131 55/60/132
f 66/21/133 61/22/134 67/23/135 68/24/136
f 67/23/137 61/22/138 62/25/139 70/26/140
f 70/26/141 62/25/142 63/29/143 69/28/144
f 65/27/145 66/21/146 68/24/147 69/28/148
f 69/28/149 63/29/150 65/27/151
f 63/29/152 64/30/153 65/27/154
f 80/31/155 71/32/156 72/33/157 79/34/158
f 76/36/159 72/33/160 73/39/161 75/40/162
f 76/36/163 77/35/164 72/33/165
f 72/33/166 77/35/167 79/34/168
f 78/37/169 79/34/170 77/35/171 74/38/172
f 73/39/173 78/37/174 74/38/175 75/40/176
f 86/61/177 81/62/178 87/63/179 88/64/180
f 87/63/181 81/62/182 82/65/183 90/66/184
f 90/66/185 82/65/186 83/69/187 89/68/188
f 85/67/189 86/61/190 88/64/191 89/68/192
f 89/68/193 83/69/194 85/67/195
f 83/69/196 84/70/197 85/67/198
f 100/71/199 91/72/200 92/73/201 99/74/202
f 96/76/203 92/73/204 93/79/205 95/80/206
f 96/76/207 97/75/208 92/73/209
f 92/73/210 97/75/211 99/74/212
f 98/77/213 99/74/214 97/75/215 94/78/216
f 93/79/217 98/77/218 94/78/219 95/80/220
f 106/101/221 101/102/222 107/103/223 108/104/224
f 107/103/225 101/102/226 102/105/227 110/106/228
f 110/106/229 102/105/230 103/109/231 109/108/232
f 105/107/233 106/101/234 108/104/235 109/108/236
f 109/108/237 103/109/238 105/107/239
f 103/109/240 104/110/241 105/107/242
f 120/111/243 111/112/244 112/113/245 119/114/246
f 116/116/247 112/113/248 113/119/249 115/120/250
f 116/116/251 117/115/252 112/113/253
f 112/113/254 117/115/255 119/114/256
f 118/117/257 119/114/258 117/115/259 114/118/260
f 113/119/261 118/117/262 114/118/263 115/120/264
f 121/121/265 123/122/266 139/123/267 141/124/268
f 122/125/269 121/121/270 126/127/271 125/128/272
f 123/122/273 122/125/274 128/129/275 127/130/276
f 124/135/277 126/127/278 142/134/279 144/138/280
f 125/139/281 124/140/282 132/141/283 131/142/284
f 127/130/285 129/136/286 134/137/287 133/131/288
f 129/144/289 128/145/290 131/142/291 130/143/292
f 130/143/293 132/141/294 138/146/295 137/147/296
f 133/131/297 135/132/298 140/126/299 139/123/300
f 135/151/301 134/152/302 137/153/303 136/154/304
f 136/148/305 138/146/306 144/149/307 143/150/308
f 141/124/309 140/126/310 143/133/311 142/134/312
f 121/121/313 122/125/314 123/122/315
f 124/135/316 125/128/317 126/127/318
f 127/130/319 128/129/320 129/136/321
f 130/143/322 131/142/323 132/141/324
f 133/131/325 134/137/326 135/132/327
f 136/148/328 137/147/329 138/146/330
f 139/123/331 140/126/332 141/124/333
f 142/134/334 143/133/335 144/138/336
