# This file uses centimeters as units for non-parametric coordinates.

g default
v -1.398830 -37.014992 -23.619225
v -1.398835 -37.014992 -6.402788
v -4.842124 -37.014992 -6.402788
v -4.842124 -37.014992 -20.175938
v -8.285414 -37.014992 -20.175941
v -8.285414 -37.014992 -6.402786
v -18.615280 -37.014992 -6.402790
v -18.615280 -37.014992 -23.619221
v -15.171989 -37.014992 -23.619221
v -15.171991 -37.014992 -9.846073
v -11.728701 -37.014992 -9.846069
v -11.728699 -37.014992 -23.619221
v 18.615280 -37.014992 -3.281484
v 18.615280 -37.014992 23.619221
v -8.285414 -37.014992 23.619217
v -8.285416 -37.014992 18.239098
v 13.235144 -37.014992 18.239094
v 13.235140 -37.014992 2.098640
v -8.285414 -37.014992 2.098643
v -8.285414 -37.014992 -3.281486
v 1.398835 37.014992 -23.619221
v 1.398835 37.014992 -6.402788
v 4.842124 37.014992 -6.402788
v 4.842124 37.014992 -20.175938
v 8.285414 37.014992 -20.175938
v 8.285414 37.014992 -6.402788
v 18.615280 37.014992 -6.402788
v 18.615280 37.014992 -23.619221
v 15.171989 37.014992 -23.619221
v 15.171989 37.014992 -9.846071
v 11.728701 37.014992 -9.846071
v 11.728701 37.014992 -23.619221
v -18.615280 37.014992 -3.281486
v -18.615280 37.014992 23.619221
v 8.285414 37.014992 23.619221
v 8.285414 37.014992 18.239094
v -13.235142 37.014992 18.239094
v -13.235142 37.014992 2.098642
v 8.285414 37.014992 2.098642
v 8.285414 37.014992 -3.281486
v -37.014992 -1.398835 23.619221
v -37.014992 -1.398835 6.402788
v -37.014992 -4.842124 6.402788
v -37.014992 -4.842124 20.175938
v -37.014992 -8.285414 20.175938
v -37.014992 -8.285414 6.402788
v -37.014992 -18.615280 6.402788
v -37.014992 -18.615280 23.619221
v -37.014992 -15.171989 23.619221
v -37.014992 -15.171989 9.846071
v -37.014992 -11.728701 9.846071
v -37.014992 -11.728701 23.619221
v -37.014992 18.615280 3.281486
v -37.014992 18.615280 -23.619221
v -37.014992 -8.285414 -23.619221
v -37.014992 -8.285414 -18.239094
v -37.014992 13.235142 -18.239094
v -37.014992 13.235142 -2.098642
v -37.014992 -8.285414 -2.098642
v -37.014992 -8.285414 3.281486
v 23.619221 -1.398835 37.014992
v 6.402788 -1.398835 37.014992
v 6.402788 -4.842124 37.014992
v 20.175938 -4.842124 37.014992
v 20.175938 -8.285414 37.014992
v 6.402788 -8.285414 37.014992
v 6.402788 -18.615280 37.014992
v 23.619221 -18.615280 37.014992
v 23.619221 -15.171989 37.014992
v 9.846071 -15.171989 37.014992
v 9.846071 -11.728701 37.014992
v 23.619221 -11.728701 37.014992
v 3.281486 18.615280 37.014992
v -23.619221 18.615280 37.014992
v -23.619221 -8.285414 37.014992
v -18.239094 -8.285414 37.014992
v -18.239094 13.235142 37.014992
v -2.098642 13.235142 37.014992
v -2.098642 -8.285414 37.014992
v 3.281486 -8.285414 37.014992
v -23.619221 -1.398835 -37.014992
v -6.402788 -1.398835 -37.014992
v -6.402788 -4.842124 -37.014992
v -20.175938 -4.842124 -37.014992
v -20.175938 -8.285414 -37.014992
v -6.402788 -8.285414 -37.014992
v -6.402788 -18.615280 -37.014992
v -23.619221 -18.615280 -37.014992
v -23.619221 -15.171989 -37.014992
v -9.846071 -15.171989 -37.014992
v -9.846071 -11.728701 -37.014992
v -23.619221 -11.728701 -37.014992
v -3.281486 18.615280 -37.014992
v 23.619221 18.615280 -37.014992
v 23.619221 -8.285414 -37.014992
v 18.239094 -8.285414 -37.014992
v 18.239094 13.235142 -37.014992
v 2.098642 13.235142 -37.014992
v 2.098642 -8.285414 -37.014992
v -3.281486 -8.285414 -37.014992
v -33.313862 -37.014992 33.313862
v -33.313862 -33.313862 37.014992
v -37.014992 -33.313862 33.313862
v 37.014992 -33.313862 33.313862
v 33.313862 -33.313862 37.014992
v 33.313862 -37.014992 33.313862
v -37.014992 33.313862 33.313862
v -33.313862 33.313862 37.014992
v -33.313862 37.014992 33.313862
v 33.313862 37.014992 33.313862
v 33.313862 33.313862 37.014992
v 37.014992 33.313862 33.313862
v -37.014992 33.313862 -33.313862
v -33.313862 37.014992 -33.313862
v -33.313862 33.313862 -37.014992
v 33.313862 33.313862 -37.014992
v 33.313862 37.014992 -33.313862
v 37.014992 33.313862 -33.313862
v -37.014992 -33.313862 -33.313862
v -33.313862 -33.313862 -37.014992
v -33.313862 -37.014992 -33.313862
v 33.313862 -37.014992 -33.313862
v 33.313862 -33.313862 -37.014992
v 37.014992 -33.313862 -33.313862
v 37.014992 -1.398835 -23.619221
v 37.014992 -1.398835 -6.402788
v 37.014992 -4.842124 -6.402788
v 37.014992 -4.842124 -20.175938
v 37.014992 -8.285414 -20.175938
v 37.014992 -8.285414 -6.402788
v 37.014992 -18.615280 -6.402788
v 37.014992 -18.615280 -23.619221
v 37.014992 -15.171989 -23.619221
v 37.014992 -15.171989 -9.846071
v 37.014992 -11.728701 -9.846071
v 37.014992 -11.728701 -23.619221
v 37.014992 18.615280 -3.281486
v 37.014992 18.615280 23.619221
v 37.014992 -8.285414 23.619221
v 37.014992 -8.285414 18.239094
v 37.014992 13.235142 18.239094
v 37.014992 13.235142 2.098642
v 37.014992 -8.285414 2.098642
v 37.014992 -8.285414 -3.281486
vt 0.906184 0.902039
vt 0.841451 0.902039
vt 0.841451 0.889093
vt 0.893237 0.889093
vt 0.906184 0.863199
vt 0.893237 0.876146
vt 0.854397 0.863199
vt 0.841451 0.876146
vt 0.841451 0.837306
vt 0.854397 0.850253
vt 0.906184 0.837306
vt 0.906184 0.850253
vt 0.841451 0.902039
vt 0.841451 0.837306
vt 0.854397 0.837306
vt 0.854397 0.889093
vt 0.906184 0.902039
vt 0.893237 0.889093
vt 0.906184 0.837306
vt 0.893237 0.837306
vt 0.906184 0.902039
vt 0.841451 0.902039
vt 0.841451 0.889093
vt 0.893237 0.889093
vt 0.906184 0.863199
vt 0.893237 0.876146
vt 0.854397 0.863199
vt 0.841451 0.876146
vt 0.841451 0.837306
vt 0.854397 0.850253
vt 0.906184 0.837306
vt 0.906184 0.850253
vt 0.841451 0.902039
vt 0.841451 0.837306
vt 0.854397 0.837306
vt 0.854397 0.889093
vt 0.906184 0.902039
vt 0.893237 0.889093
vt 0.906184 0.837306
vt 0.893237 0.837306
vt 0.906184 0.902039
vt 0.841451 0.902039
vt 0.841451 0.889093
vt 0.893237 0.889093
vt 0.906184 0.863199
vt 0.893237 0.876146
vt 0.854397 0.863199
vt 0.841451 0.876146
vt 0.841451 0.837306
vt 0.854397 0.850253
vt 0.906184 0.837306
vt 0.906184 0.850253
vt 0.841451 0.902039
vt 0.841451 0.837306
vt 0.854397 0.837306
vt 0.854397 0.889093
vt 0.906184 0.902039
vt 0.893237 0.889093
vt 0.906184 0.837306
vt 0.893237 0.837306
vt 0.906184 0.902039
vt 0.841451 0.902039
vt 0.841451 0.889093
vt 0.893237 0.889093
vt 0.906184 0.863199
vt 0.893237 0.876146
vt 0.854397 0.863199
vt 0.841451 0.876146
vt 0.841451 0.837306
vt 0.854397 0.850253
vt 0.906184 0.837306
vt 0.906184 0.850253
vt 0.841451 0.902039
vt 0.841451 0.837306
vt 0.854397 0.837306
vt 0.854397 0.889093
vt 0.906184 0.902039
vt 0.893237 0.889093
vt 0.906184 0.837306
vt 0.893237 0.837306
vt 0.906184 0.902039
vt 0.841451 0.902039
vt 0.841451 0.889093
vt 0.893237 0.889093
vt 0.906184 0.863199
vt 0.893237 0.876146
vt 0.854397 0.863199
vt 0.841451 0.876146
vt 0.841451 0.837306
vt 0.854397 0.850253
vt 0.906184 0.837306
vt 0.906184 0.850253
vt 0.841451 0.902039
vt 0.841451 0.837306
vt 0.854397 0.837306
vt 0.854397 0.889093
vt 0.906184 0.902039
vt 0.893237 0.889093
vt 0.906184 0.837306
vt 0.893237 0.837306
vt 0.162112 0.583969
vt 0.162112 0.587790
vt 0.093327 0.587790
vt 0.093327 0.583969
vt 0.165933 0.587790
vt 0.162112 0.583969
vt 0.165933 0.587790
vt 0.165933 0.656576
vt 0.162112 0.656576
vt 0.162112 0.587790
vt 0.093327 0.583969
vt 0.093327 0.587790
vt 0.091416 0.660397
vt 0.091416 0.656576
vt 0.160202 0.656576
vt 0.160202 0.660397
vt 0.162112 0.660397
vt 0.093327 0.660397
vt 0.093327 0.656576
vt 0.164023 0.656576
vt 0.160202 0.660397
vt 0.164023 0.656576
vt 0.160202 0.587790
vt 0.164023 0.587790
vt 0.089506 0.656576
vt 0.089506 0.587790
vt 0.127178 0.658094
vt 0.123357 0.658094
vt 0.123357 0.589309
vt 0.127178 0.589309
vt 0.160202 0.583969
vt 0.091416 0.587790
vt 0.091416 0.583969
vt 0.089506 0.587790
vt 0.906184 0.902039
vt 0.841451 0.902039
vt 0.841451 0.889093
vt 0.893237 0.889093
vt 0.906184 0.863199
vt 0.893237 0.876146
vt 0.854397 0.863199
vt 0.841451 0.876146
vt 0.841451 0.837306
vt 0.854397 0.850253
vt 0.906184 0.837306
vt 0.906184 0.850253
vt 0.841451 0.902039
vt 0.841451 0.837306
vt 0.854397 0.837306
vt 0.854397 0.889093
vt 0.906184 0.902039
vt 0.893237 0.889093
vt 0.906184 0.837306
vt 0.893237 0.837306
vn 0.000000 -1.000000 0.000000
vn 0.000000 -1.000000 0.000000
vn 0.000000 -1.000000 0.000000
vn 0.000000 -1.000000 0.000000
vn 0.000000 -1.000000 -0.000000
vn 0.000000 -1.000000 0.000000
vn 0.000000 -1.000000 0.000000
vn 0.000000 -1.000000 0.000000
vn 0.000000 -1.000000 0.000000
vn 0.000000 -1.000000 -0.000000
vn 0.000000 -1.000000 0.000000
vn 0.000000 -1.000000 -0.000000
vn 0.000000 -1.000000 0.000000
vn 0.000000 -1.000000 -0.000000
vn 0.000000 -1.000000 0.000000
vn 0.000000 -1.000000 0.000000
vn 0.000000 -1.000000 0.000000
vn 0.000000 -1.000000 0.000000
vn 0.000000 -1.000000 -0.000000
vn 0.000000 -1.000000 -0.000000
vn 0.000000 -1.000000 0.000000
vn 0.000000 -1.000000 0.000000
vn 0.000000 -1.000000 0.000000
vn 0.000000 -1.000000 0.000000
vn 0.000000 -1.000000 0.000000
vn 0.000000 -1.000000 0.000000
vn 0.000000 -1.000000 0.000000
vn 0.000000 -1.000000 0.000000
vn 0.000000 -1.000000 0.000000
vn 0.000000 -1.000000 0.000000
vn 0.000000 -1.000000 0.000000
vn 0.000000 -1.000000 0.000000
vn 0.000000 1.000000 0.000000
vn 0.000000 1.000000 0.000000
vn 0.000000 1.000000 0.000000
vn 0.000000 1.000000 0.000000
vn 0.000000 1.000000 0.000000
vn 0.000000 1.000000 0.000000
vn 0.000000 1.000000 0.000000
vn 0.000000 1.000000 0.000000
vn 0.000000 1.000000 0.000000
vn 0.000000 1.000000 0.000000
vn 0.000000 1.000000 0.000000
vn 0.000000 1.000000 0.000000
vn 0.000000 1.000000 0.000000
vn 0.000000 1.000000 0.000000
vn 0.000000 1.000000 0.000000
vn 0.000000 1.000000 0.000000
vn 0.000000 1.000000 0.000000
vn 0.000000 1.000000 0.000000
vn 0.000000 1.000000 0.000000
vn 0.000000 1.000000 0.000000
vn 0.000000 1.000000 0.000000
vn 0.000000 1.000000 0.000000
vn 0.000000 1.000000 0.000000
vn 0.000000 1.000000 0.000000
vn 0.000000 1.000000 -0.000000
vn 0.000000 1.000000 0.000000
vn 0.000000 1.000000 0.000000
vn 0.000000 1.000000 -0.000000
vn 0.000000 1.000000 -0.000000
vn 0.000000 1.000000 -0.000000
vn 0.000000 1.000000 -0.000000
vn 0.000000 1.000000 -0.000000
vn -1.000000 0.000000 0.000000
vn -1.000000 0.000000 0.000000
vn -1.000000 0.000000 0.000000
vn -1.000000 0.000000 0.000000
vn -1.000000 0.000000 0.000000
vn -1.000000 0.000000 0.000000
vn -1.000000 0.000000 0.000000
vn -1.000000 0.000000 0.000000
vn -1.000000 0.000000 0.000000
vn -1.000000 0.000000 0.000000
vn -1.000000 0.000000 0.000000
vn -1.000000 0.000000 0.000000
vn -1.000000 0.000000 0.000000
vn -1.000000 0.000000 0.000000
vn -1.000000 0.000000 0.000000
vn -1.000000 0.000000 0.000000
vn -1.000000 0.000000 0.000000
vn -1.000000 0.000000 0.000000
vn -1.000000 0.000000 0.000000
vn -1.000000 0.000000 0.000000
vn -1.000000 -0.000000 0.000000
vn -1.000000 0.000000 0.000000
vn -1.000000 0.000000 0.000000
vn -1.000000 -0.000000 0.000000
vn -1.000000 -0.000000 0.000000
vn -1.000000 -0.000000 0.000000
vn -1.000000 -0.000000 0.000000
vn -1.000000 -0.000000 0.000000
vn -1.000000 0.000000 0.000000
vn -1.000000 -0.000000 0.000000
vn -1.000000 -0.000000 0.000000
vn -1.000000 0.000000 0.000000
vn -0.000000 0.000000 1.000000
vn 0.000000 0.000000 1.000000
vn 0.000000 0.000000 1.000000
vn -0.000000 0.000000 1.000000
vn -0.000000 0.000000 1.000000
vn -0.000000 0.000000 1.000000
vn -0.000000 0.000000 1.000000
vn -0.000000 0.000000 1.000000
vn -0.000000 0.000000 1.000000
vn -0.000000 0.000000 1.000000
vn -0.000000 0.000000 1.000000
vn -0.000000 0.000000 1.000000
vn -0.000000 0.000000 1.000000
vn -0.000000 0.000000 1.000000
vn -0.000000 0.000000 1.000000
vn -0.000000 0.000000 1.000000
vn -0.000000 0.000000 1.000000
vn -0.000000 0.000000 1.000000
vn 0.000000 0.000000 1.000000
vn 0.000000 0.000000 1.000000
vn -0.000000 0.000000 1.000000
vn -0.000000 0.000000 1.000000
vn -0.000000 0.000000 1.000000
vn -0.000000 0.000000 1.000000
vn 0.000000 0.000000 1.000000
vn -0.000000 0.000000 1.000000
vn -0.000000 0.000000 1.000000
vn 0.000000 0.000000 1.000000
vn 0.000000 0.000000 1.000000
vn 0.000000 0.000000 1.000000
vn 0.000000 0.000000 1.000000
vn 0.000000 0.000000 1.000000
vn 0.000000 0.000000 -1.000000
vn 0.000000 0.000000 -1.000000
vn 0.000000 0.000000 -1.000000
vn 0.000000 0.000000 -1.000000
vn 0.000000 0.000000 -1.000000
vn 0.000000 0.000000 -1.000000
vn 0.000000 0.000000 -1.000000
vn 0.000000 0.000000 -1.000000
vn 0.000000 0.000000 -1.000000
vn 0.000000 0.000000 -1.000000
vn 0.000000 0.000000 -1.000000
vn 0.000000 0.000000 -1.000000
vn 0.000000 0.000000 -1.000000
vn 0.000000 0.000000 -1.000000
vn 0.000000 0.000000 -1.000000
vn 0.000000 0.000000 -1.000000
vn 0.000000 0.000000 -1.000000
vn 0.000000 0.000000 -1.000000
vn 0.000000 0.000000 -1.000000
vn 0.000000 0.000000 -1.000000
vn 0.000000 0.000000 -1.000000
vn 0.000000 0.000000 -1.000000
vn 0.000000 0.000000 -1.000000
vn 0.000000 0.000000 -1.000000
vn -0.000000 0.000000 -1.000000
vn 0.000000 0.000000 -1.000000
vn 0.000000 0.000000 -1.000000
vn -0.000000 0.000000 -1.000000
vn -0.000000 0.000000 -1.000000
vn -0.000000 0.000000 -1.000000
vn -0.000000 0.000000 -1.000000
vn -0.000000 0.000000 -1.000000
vn -0.707107 -0.707107 0.000000
vn -0.707107 -0.707107 0.000000
vn -0.707107 -0.707107 0.000000
vn -0.707107 -0.707107 0.000000
vn 0.000000 -0.707107 0.707107
vn 0.000000 -0.707107 0.707107
vn 0.000000 -0.707107 0.707107
vn 0.000000 -0.707107 0.707107
vn -0.707107 0.000000 0.707107
vn -0.707107 0.000000 0.707107
vn -0.707107 0.000000 0.707107
vn -0.707107 0.000000 0.707107
vn 0.707107 -0.707107 0.000000
vn 0.707107 -0.707107 0.000000
vn 0.707107 -0.707107 0.000000
vn 0.707107 -0.707107 0.000000
vn 0.707107 0.000000 0.707107
vn 0.707107 0.000000 0.707107
vn 0.707107 0.000000 0.707107
vn 0.707107 0.000000 0.707107
vn -0.707107 0.707107 0.000000
vn -0.707107 0.707107 0.000000
vn -0.707107 0.707107 0.000000
vn -0.707107 0.707107 0.000000
vn 0.000000 0.707107 0.707107
vn 0.000000 0.707107 0.707107
vn 0.000000 0.707107 0.707107
vn 0.000000 0.707107 0.707107
vn 0.707107 0.707107 0.000000
vn 0.707107 0.707107 0.000000
vn 0.707107 0.707107 0.000000
vn 0.707107 0.707107 0.000000
vn -0.707107 0.000000 -0.707107
vn -0.707107 0.000000 -0.707107
vn -0.707107 0.000000 -0.707107
vn -0.707107 0.000000 -0.707107
vn 0.000000 0.707107 -0.707107
vn 0.000000 0.707107 -0.707107
vn 0.000000 0.707107 -0.707107
vn 0.000000 0.707107 -0.707107
vn 0.707107 0.000000 -0.707107
vn 0.707107 0.000000 -0.707107
vn 0.707107 0.000000 -0.707107
vn 0.707107 0.000000 -0.707107
vn 0.000000 -0.707107 -0.707107
vn 0.000000 -0.707107 -0.707107
vn 0.000000 -0.707107 -0.707107
vn 0.000000 -0.707107 -0.707107
vn -0.577350 -0.577350 0.577350
vn -0.577350 -0.577350 0.577350
vn -0.577350 -0.577350 0.577350
vn 0.577350 -0.577350 0.577350
vn 0.577350 -0.577350 0.577350
vn 0.577350 -0.577350 0.577350
vn -0.577350 0.577350 0.577350
vn -0.577350 0.577350 0.577350
vn -0.577350 0.577350 0.577350
vn 0.577350 0.577350 0.577350
vn 0.577350 0.577350 0.577350
vn 0.577350 0.577350 0.577350
vn -0.577350 0.577350 -0.577350
vn -0.577350 0.577350 -0.577350
vn -0.577350 0.577350 -0.577350
vn 0.577350 0.577350 -0.577350
vn 0.577350 0.577350 -0.577350
vn 0.577350 0.577350 -0.577350
vn -0.577350 -0.577350 -0.577350
vn -0.577350 -0.577350 -0.577350
vn -0.577350 -0.577350 -0.577350
vn 0.577350 -0.577350 -0.577350
vn 0.577350 -0.577350 -0.577350
vn 0.577350 -0.577350 -0.577350
vn 1.000000 0.000000 0.000000
vn 1.000000 0.000000 0.000000
vn 1.000000 0.000000 0.000000
vn 1.000000 0.000000 0.000000
vn 1.000000 0.000000 0.000000
vn 1.000000 0.000000 0.000000
vn 1.000000 0.000000 0.000000
vn 1.000000 0.000000 0.000000
vn 1.000000 0.000000 0.000000
vn 1.000000 0.000000 0.000000
vn 1.000000 0.000000 0.000000
vn 1.000000 0.000000 0.000000
vn 1.000000 0.000000 0.000000
vn 1.000000 0.000000 0.000000
vn 1.000000 0.000000 0.000000
vn 1.000000 0.000000 0.000000
vn 1.000000 0.000000 0.000000
vn 1.000000 0.000000 0.000000
vn 1.000000 0.000000 0.000000
vn 1.000000 0.000000 0.000000
vn 1.000000 -0.000000 0.000000
vn 1.000000 0.000000 0.000000
vn 1.000000 0.000000 0.000000
vn 1.000000 -0.000000 0.000000
vn 1.000000 -0.000000 0.000000
vn 1.000000 -0.000000 0.000000
vn 1.000000 -0.000000 0.000000
vn 1.000000 -0.000000 0.000000
vn 1.000000 0.000000 0.000000
vn 1.000000 -0.000000 0.000000
vn 1.000000 -0.000000 0.000000
vn 1.000000 0.000000 0.000000
s off
g OreNitrogenIcon
f 1/1/1 2/2/2 3/3/3 4/4/4
f 12/5/5 1/1/6 4/4/7 5/6/8
f 11/7/9 12/5/10 5/6/11 6/8/12
f 11/7/13 6/8/14 7/9/15 10/10/16
f 10/10/17 7/9/18 8/11/19 9/12/20
f 14/13/21 15/14/22 16/15/23 17/16/24
f 13/17/25 14/13/26 17/16/27 18/18/28
f 20/19/29 13/17/30 18/18/31 19/20/32
f 21/21/33 22/22/34 23/23/35 24/24/36
f 32/25/37 21/21/38 24/24/39 25/26/40
f 31/27/41 32/25/42 25/26/43 26/28/44
f 31/27/45 26/28/46 27/29/47 30/30/48
f 30/30/49 27/29/50 28/31/51 29/32/52
f 34/33/53 35/34/54 36/35/55 37/36/56
f 33/37/57 34/33/58 37/36/59 38/38/60
f 40/39/61 33/37/62 38/38/63 39/40/64
f 41/41/65 42/42/66 43/43/67 44/44/68
f 52/45/69 41/41/70 44/44/71 45/46/72
f 51/47/73 52/45/74 45/46/75 46/48/76
f 51/47/77 46/48/78 47/49/79 50/50/80
f 50/50/81 47/49/82 48/51/83 49/52/84
f 54/53/85 55/54/86 56/55/87 57/56/88
f 53/57/89 54/53/90 57/56/91 58/58/92
f 60/59/93 53/57/94 58/58/95 59/60/96
f 61/61/97 62/62/98 63/63/99 64/64/100
f 72/65/101 61/61/102 64/64/103 65/66/104
f 71/67/105 72/65/106 65/66/107 66/68/108
f 71/67/109 66/68/110 67/69/111 70/70/112
f 70/70/113 67/69/114 68/71/115 69/72/116
f 74/73/117 75/74/118 76/75/119 77/76/120
f 73/77/121 74/73/122 77/76/123 78/78/124
f 80/79/125 73/77/126 78/78/127 79/80/128
f 81/81/129 82/82/130 83/83/131 84/84/132
f 92/85/133 81/81/134 84/84/135 85/86/136
f 91/87/137 92/85/138 85/86/139 86/88/140
f 91/87/141 86/88/142 87/89/143 90/90/144
f 90/90/145 87/89/146 88/91/147 89/92/148
f 94/93/149 95/94/150 96/95/151 97/96/152
f 93/97/153 94/93/154 97/96/155 98/98/156
f 100/99/157 93/97/158 98/98/159 99/100/160
f 101/101/161 103/102/162 119/103/163 121/104/164
f 102/105/165 101/101/166 106/106/167 105/107/168
f 103/102/169 102/105/170 108/108/171 107/109/172
f 104/110/173 106/106/174 122/111/175 124/112/176
f 105/113/177 104/114/178 112/115/179 111/116/180
f 107/109/181 109/117/182 114/118/183 113/119/184
f 109/120/185 108/121/186 111/116/187 110/122/188
f 110/122/189 112/115/190 118/123/191 117/124/192
f 113/119/193 115/125/194 120/126/195 119/103/196
f 115/127/197 114/128/198 117/129/199 116/130/200
f 116/131/201 118/123/202 124/132/203 123/133/204
f 121/104/205 120/126/206 123/134/207 122/111/208
f 101/101/209 102/105/210 103/102/211
f 104/110/212 105/107/213 106/106/214
f 107/109/215 108/108/216 109/117/217
f 110/122/218 111/116/219 112/115/220
f 113/119/221 114/118/222 115/125/223
f 116/131/224 117/124/225 118/123/226
f 119/103/227 120/126/228 121/104/229
f 122/111/230 123/134/231 124/112/232
f 125/135/233 126/136/234 127/137/235 128/138/236
f 136/139/237 125/135/238 128/138/239 129/140/240
f 135/141/241 136/139/242 129/140/243 130/142/244
f 135/141/245 130/142/246 131/143/247 134/144/248
f 134/144/249 131/143/250 132/145/251 133/146/252
f 138/147/253 139/148/254 140/149/255 141/150/256
f 137/151/257 138/147/258 141/150/259 142/152/260
f 144/153/261 137/151/262 142/152/263 143/154/264
