# This file uses centimeters as units for non-parametric coordinates.

g default
v -33.313862 -37.014992 33.313873
v -33.313862 -33.313862 37.014984
v -37.014992 -33.313862 33.313873
v 37.014992 -33.313862 33.313873
v 33.313862 -33.313862 37.014984
v 33.313862 -37.014992 33.313873
v -37.014992 33.313862 33.313873
v -33.313862 33.313862 37.014984
v -33.313862 37.014992 33.313873
v 33.313862 37.014992 33.313873
v 33.313862 33.313862 37.014984
v 37.014992 33.313862 33.313873
v -37.014992 33.313862 -33.313873
v -33.313862 37.014992 -33.313873
v -33.313862 33.313862 -37.014984
v 33.313862 33.313862 -37.014984
v 33.313862 37.014992 -33.313873
v 37.014992 33.313862 -33.313873
v -37.014992 -33.313862 -33.313873
v -33.313862 -33.313862 -37.014984
v -33.313862 -37.014992 -33.313873
v 33.313862 -37.014992 -33.313873
v 33.313862 -33.313862 -37.014984
v 37.014992 -33.313862 -33.313873
v -37.014992 15.176373 0.000000
v -37.014992 15.176373 -23.256592
v -37.014992 -8.080208 -23.256592
v -37.014992 -8.080208 0.000000
v -37.014992 10.490171 -4.686218
v -37.014992 -3.394007 -4.686218
v -37.014992 -3.394007 -18.570374
v -37.014992 10.490171 -18.570374
v -37.014992 3.428875 23.256592
v -37.014992 3.428875 4.651306
v -37.014992 -0.292173 4.651306
v -37.014992 -0.292173 19.535522
v -37.014992 -4.013227 19.535522
v -37.014992 -4.013227 4.651306
v -37.014992 -15.176373 4.651306
v -37.014992 -15.176373 23.256592
v -37.014992 -11.455334 23.256592
v -37.014992 -11.455334 8.372345
v -37.014992 -7.734271 8.372345
v -37.014992 -7.734271 23.256592
v 0.000015 15.176373 -37.014984
v 23.256592 15.176373 -37.014984
v 23.256592 -8.080208 -37.014984
v 0.000015 -8.080208 -37.014984
v 4.686218 10.490171 -37.014984
v 4.686218 -3.394007 -37.014984
v 18.570389 -3.394007 -37.014984
v 18.570389 10.490171 -37.014984
v -23.256577 3.428875 -37.014984
v -4.651306 3.428875 -37.014984
v -4.651306 -0.292173 -37.014984
v -19.535507 -0.292173 -37.014984
v -19.535507 -4.013227 -37.014984
v -4.651306 -4.013227 -37.014984
v -4.651306 -15.176373 -37.014984
v -23.256577 -15.176373 -37.014984
v -23.256577 -11.455334 -37.014984
v -8.372345 -11.455334 -37.014984
v -8.372345 -7.734271 -37.014984
v -23.256577 -7.734271 -37.014984
v -0.000015 15.176373 37.014984
v -23.256592 15.176373 37.014984
v -23.256592 -8.080208 37.014984
v -0.000015 -8.080208 37.014984
v -4.686218 10.490171 37.014984
v -4.686218 -3.394007 37.014984
v -18.570389 -3.394007 37.014984
v -18.570389 10.490171 37.014984
v 23.256577 3.428875 37.014984
v 4.651306 3.428875 37.014984
v 4.651306 -0.292173 37.014984
v 19.535507 -0.292173 37.014984
v 19.535507 -4.013227 37.014984
v 4.651306 -4.013227 37.014984
v 4.651306 -15.176373 37.014984
v 23.256577 -15.176373 37.014984
v 23.256577 -11.455334 37.014984
v 8.372345 -11.455334 37.014984
v 8.372345 -7.734271 37.014984
v 23.256577 -7.734271 37.014984
v 37.014992 15.176373 0.000000
v 37.014992 15.176373 23.256592
v 37.014992 -8.080208 23.256592
v 37.014992 -8.080208 0.000000
v 37.014992 10.490171 4.686218
v 37.014992 -3.394007 4.686218
v 37.014992 -3.394007 18.570374
v 37.014992 10.490171 18.570374
v 37.014992 3.428875 -23.256592
v 37.014992 3.428875 -4.651306
v 37.014992 -0.292173 -4.651306
v 37.014992 -0.292173 -19.535522
v 37.014992 -4.013227 -19.535522
v 37.014992 -4.013227 -4.651306
v 37.014992 -15.176373 -4.651306
v 37.014992 -15.176373 -23.256592
v 37.014992 -11.455334 -23.256592
v 37.014992 -11.455334 -8.372345
v 37.014992 -7.734271 -8.372345
v 37.014992 -7.734271 -23.256592
v 15.176373 -37.014992 0.000000
v 15.176373 -37.014992 23.256592
v -8.080208 -37.014992 23.256592
v -8.080208 -37.014992 0.000000
v 10.490171 -37.014992 4.686218
v -3.394009 -37.014992 4.686218
v -3.394009 -37.014992 18.570374
v 10.490171 -37.014992 18.570374
v 3.428875 -37.014992 -23.256592
v 3.428875 -37.014992 -4.651306
v -0.292175 -37.014992 -4.651306
v -0.292175 -37.014992 -19.535522
v -4.013229 -37.014992 -19.535522
v -4.013229 -37.014992 -4.651306
v -15.176373 -37.014992 -4.651306
v -15.176373 -37.014992 -23.256592
v -11.455334 -37.014992 -23.256592
v -11.455334 -37.014992 -8.372345
v -7.734272 -37.014992 -8.372345
v -7.734272 -37.014992 -23.256592
v -15.176373 37.014992 0.000000
v -15.176373 37.014992 23.256592
v 8.080208 37.014992 23.256592
v 8.080208 37.014992 0.000000
v -10.490173 37.014992 4.686218
v 3.394005 37.014992 4.686218
v 3.394005 37.014992 18.570374
v -10.490173 37.014992 18.570374
v -3.428875 37.014992 -23.256592
v -3.428875 37.014992 -4.651306
v 0.292171 37.014992 -4.651306
v 0.292171 37.014992 -19.535522
v 4.013226 37.014992 -19.535522
v 4.013226 37.014992 -4.651306
v 15.176373 37.014992 -4.651306
v 15.176373 37.014992 -23.256592
v 11.455334 37.014992 -23.256592
v 11.455334 37.014992 -8.372345
v 7.734270 37.014992 -8.372345
v 7.734270 37.014992 -23.256592
vt 0.162112 0.583969
vt 0.162112 0.587790
vt 0.093327 0.587790
vt 0.093327 0.583969
vt 0.165933 0.587790
vt 0.089506 0.587790
vt 0.162112 0.583969
vt 0.165933 0.587790
vt 0.165933 0.656576
vt 0.162112 0.656576
vt 0.093327 0.656576
vt 0.089506 0.656576
vt 0.089506 0.587790
vt 0.093327 0.583969
vt 0.162112 0.587790
vt 0.162112 0.660397
vt 0.093327 0.660397
vt 0.093327 0.587790
vt 0.091416 0.660397
vt 0.091416 0.656576
vt 0.160202 0.656576
vt 0.160202 0.660397
vt 0.164023 0.656576
vt 0.164023 0.656576
vt 0.160202 0.660397
vt 0.160202 0.587790
vt 0.164023 0.587790
vt 0.160202 0.583969
vt 0.091416 0.587790
vt 0.091416 0.583969
vt 0.127178 0.658094
vt 0.123357 0.658094
vt 0.123357 0.589309
vt 0.127178 0.589309
vt 0.906184 0.837306
vt 0.906184 0.902039
vt 0.893140 0.888996
vt 0.893140 0.850350
vt 0.841451 0.902039
vt 0.854494 0.888996
vt 0.841451 0.837306
vt 0.854494 0.850350
vt 0.906184 0.902039
vt 0.841451 0.902039
vt 0.841451 0.889093
vt 0.893237 0.889093
vt 0.906184 0.863199
vt 0.893237 0.876146
vt 0.854397 0.863199
vt 0.841451 0.876146
vt 0.841451 0.837306
vt 0.854397 0.850253
vt 0.906184 0.837306
vt 0.906184 0.850253
vt 0.906184 0.837306
vt 0.906184 0.902039
vt 0.893140 0.888996
vt 0.893140 0.850350
vt 0.841451 0.902039
vt 0.854494 0.888996
vt 0.841451 0.837306
vt 0.854494 0.850350
vt 0.906184 0.902039
vt 0.841451 0.902039
vt 0.841451 0.889093
vt 0.893237 0.889093
vt 0.906184 0.863199
vt 0.893237 0.876146
vt 0.854397 0.863199
vt 0.841451 0.876146
vt 0.841451 0.837306
vt 0.854397 0.850253
vt 0.906184 0.837306
vt 0.906184 0.850253
vt 0.906184 0.837306
vt 0.906184 0.902039
vt 0.893140 0.888996
vt 0.893140 0.850350
vt 0.841451 0.902039
vt 0.854494 0.888996
vt 0.841451 0.837306
vt 0.854494 0.850350
vt 0.906184 0.902039
vt 0.841451 0.902039
vt 0.841451 0.889093
vt 0.893237 0.889093
vt 0.906184 0.863199
vt 0.893237 0.876146
vt 0.854397 0.863199
vt 0.841451 0.876146
vt 0.841451 0.837306
vt 0.854397 0.850253
vt 0.906184 0.837306
vt 0.906184 0.850253
vt 0.906184 0.837306
vt 0.906184 0.902039
vt 0.893140 0.888996
vt 0.893140 0.850350
vt 0.841451 0.902039
vt 0.854494 0.888996
vt 0.841451 0.837306
vt 0.854494 0.850350
vt 0.906184 0.902039
vt 0.841451 0.902039
vt 0.841451 0.889093
vt 0.893237 0.889093
vt 0.906184 0.863199
vt 0.893237 0.876146
vt 0.854397 0.863199
vt 0.841451 0.876146
vt 0.841451 0.837306
vt 0.854397 0.850253
vt 0.906184 0.837306
vt 0.906184 0.850253
vt 0.906184 0.837306
vt 0.906184 0.902039
vt 0.893140 0.888996
vt 0.893140 0.850350
vt 0.841451 0.902039
vt 0.854494 0.888996
vt 0.841451 0.837306
vt 0.854494 0.850350
vt 0.906184 0.902039
vt 0.841451 0.902039
vt 0.841451 0.889093
vt 0.893237 0.889093
vt 0.906184 0.863199
vt 0.893237 0.876146
vt 0.854397 0.863199
vt 0.841451 0.876146
vt 0.841451 0.837306
vt 0.854397 0.850253
vt 0.906184 0.837306
vt 0.906184 0.850253
vt 0.906184 0.837306
vt 0.906184 0.902039
vt 0.893140 0.888996
vt 0.893140 0.850350
vt 0.841451 0.902039
vt 0.854494 0.888996
vt 0.841451 0.837306
vt 0.854494 0.850350
vt 0.906184 0.902039
vt 0.841451 0.902039
vt 0.841451 0.889093
vt 0.893237 0.889093
vt 0.906184 0.863199
vt 0.893237 0.876146
vt 0.854397 0.863199
vt 0.841451 0.876146
vt 0.841451 0.837306
vt 0.854397 0.850253
vt 0.906184 0.837306
vt 0.906184 0.850253
vn -0.707106 -0.707107 0.000000
vn -0.707106 -0.707107 0.000000
vn -0.707106 -0.707107 0.000000
vn -0.707106 -0.707107 0.000000
vn 0.000000 -0.707105 0.707109
vn 0.000000 -0.707105 0.707109
vn 0.000000 -0.707105 0.707109
vn 0.000000 -0.707105 0.707109
vn -0.707105 0.000000 0.707108
vn -0.707105 0.000000 0.707108
vn -0.707105 0.000000 0.707108
vn -0.707105 0.000000 0.707108
vn 0.707106 -0.707107 0.000000
vn 0.707106 -0.707107 0.000000
vn 0.707106 -0.707107 0.000000
vn 0.707106 -0.707107 0.000000
vn 0.707105 0.000000 0.707108
vn 0.707105 0.000000 0.707108
vn 0.707105 0.000000 0.707108
vn 0.707105 0.000000 0.707108
vn -0.707106 0.707107 0.000000
vn -0.707106 0.707107 0.000000
vn -0.707106 0.707107 0.000000
vn -0.707106 0.707107 0.000000
vn 0.000000 0.707105 0.707109
vn 0.000000 0.707105 0.707109
vn 0.000000 0.707105 0.707109
vn 0.000000 0.707105 0.707109
vn 0.707106 0.707107 0.000000
vn 0.707106 0.707107 0.000000
vn 0.707106 0.707107 0.000000
vn 0.707106 0.707107 0.000000
vn -0.707105 0.000000 -0.707108
vn -0.707105 0.000000 -0.707108
vn -0.707105 0.000000 -0.707108
vn -0.707105 0.000000 -0.707108
vn 0.000000 0.707105 -0.707109
vn 0.000000 0.707105 -0.707109
vn 0.000000 0.707105 -0.707109
vn 0.000000 0.707105 -0.707109
vn 0.707105 0.000000 -0.707108
vn 0.707105 0.000000 -0.707108
vn 0.707105 0.000000 -0.707108
vn 0.707105 0.000000 -0.707108
vn 0.000000 -0.707105 -0.707109
vn 0.000000 -0.707105 -0.707109
vn 0.000000 -0.707105 -0.707109
vn 0.000000 -0.707105 -0.707109
vn -0.577349 -0.577349 0.577353
vn -0.577349 -0.577349 0.577353
vn -0.577349 -0.577349 0.577353
vn 0.577349 -0.577349 0.577353
vn 0.577349 -0.577349 0.577353
vn 0.577349 -0.577349 0.577353
vn -0.577349 0.577349 0.577353
vn -0.577349 0.577349 0.577353
vn -0.577349 0.577349 0.577353
vn 0.577349 0.577349 0.577353
vn 0.577349 0.577349 0.577353
vn 0.577349 0.577349 0.577353
vn -0.577349 0.577349 -0.577353
vn -0.577349 0.577349 -0.577353
vn -0.577349 0.577349 -0.577353
vn 0.577349 0.577349 -0.577353
vn 0.577349 0.577349 -0.577353
vn 0.577349 0.577349 -0.577353
vn -0.577349 -0.577349 -0.577353
vn -0.577349 -0.577349 -0.577353
vn -0.577349 -0.577349 -0.577353
vn 0.577349 -0.577349 -0.577353
vn 0.577349 -0.577349 -0.577353
vn 0.577349 -0.577349 -0.577353
vn -1.000000 0.000000 0.000000
vn -1.000000 0.000000 0.000000
vn -1.000000 0.000000 0.000000
vn -1.000000 0.000000 0.000000
vn -1.000000 0.000000 0.000000
vn -1.000000 0.000000 0.000000
vn -1.000000 0.000000 0.000000
vn -1.000000 0.000000 0.000000
vn -1.000000 0.000000 0.000000
vn -1.000000 0.000000 0.000000
vn -1.000000 0.000000 0.000000
vn -1.000000 0.000000 0.000000
vn -1.000000 0.000000 0.000000
vn -1.000000 0.000000 0.000000
vn -1.000000 0.000000 0.000000
vn -1.000000 0.000000 0.000000
vn -1.000000 0.000000 0.000000
vn -1.000000 0.000000 0.000000
vn -1.000000 0.000000 0.000000
vn -1.000000 0.000000 0.000000
vn -1.000000 -0.000000 0.000000
vn -1.000000 0.000000 0.000000
vn -1.000000 0.000000 0.000000
vn -1.000000 -0.000000 0.000000
vn -1.000000 -0.000000 0.000000
vn -1.000000 -0.000000 0.000000
vn -1.000000 -0.000000 0.000000
vn -1.000000 -0.000000 0.000000
vn -1.000000 -0.000000 0.000000
vn -1.000000 -0.000000 0.000000
vn -1.000000 0.000001 0.000000
vn -1.000000 0.000001 0.000000
vn -1.000000 0.000001 0.000000
vn -1.000000 0.000001 0.000000
vn -1.000000 0.000001 0.000000
vn -1.000000 0.000001 0.000000
vn 0.000000 0.000000 -1.000000
vn 0.000000 0.000000 -1.000000
vn 0.000000 0.000000 -1.000000
vn 0.000000 0.000000 -1.000000
vn 0.000000 0.000000 -1.000000
vn 0.000000 0.000000 -1.000000
vn -0.000000 0.000000 -1.000000
vn -0.000000 0.000000 -1.000000
vn -0.000000 0.000000 -1.000000
vn -0.000000 0.000000 -1.000000
vn -0.000000 0.000000 -1.000000
vn -0.000000 0.000000 -1.000000
vn -0.000000 0.000000 -1.000000
vn -0.000000 0.000000 -1.000000
vn 0.000000 0.000000 -1.000000
vn 0.000000 0.000000 -1.000000
vn -0.000000 0.000000 -1.000000
vn 0.000000 0.000000 -1.000000
vn 0.000000 0.000000 -1.000000
vn -0.000000 0.000000 -1.000000
vn -0.000000 0.000000 -1.000000
vn -0.000000 0.000000 -1.000000
vn -0.000000 0.000000 -1.000000
vn -0.000000 0.000000 -1.000000
vn 0.000000 0.000000 -1.000000
vn -0.000000 0.000000 -1.000000
vn -0.000000 0.000000 -1.000000
vn 0.000000 0.000000 -1.000000
vn 0.000000 0.000000 -1.000000
vn 0.000000 0.000000 -1.000000
vn 0.000000 0.000000 -1.000000
vn 0.000000 0.000000 -1.000000
vn 0.000000 0.000000 -1.000000
vn 0.000000 0.000000 -1.000000
vn 0.000000 0.000000 -1.000000
vn 0.000000 0.000000 -1.000000
vn -0.000000 0.000000 1.000000
vn -0.000000 0.000000 1.000000
vn -0.000000 0.000000 1.000000
vn -0.000000 0.000000 1.000000
vn -0.000000 0.000000 1.000000
vn -0.000000 0.000000 1.000000
vn 0.000000 0.000000 1.000000
vn 0.000000 0.000000 1.000000
vn 0.000000 0.000000 1.000000
vn 0.000000 0.000000 1.000000
vn 0.000000 0.000000 1.000000
vn 0.000000 0.000000 1.000000
vn 0.000000 0.000000 1.000000
vn 0.000000 0.000000 1.000000
vn -0.000000 0.000000 1.000000
vn -0.000000 0.000000 1.000000
vn 0.000000 0.000000 1.000000
vn 0.000000 0.000000 1.000000
vn 0.000000 0.000000 1.000000
vn 0.000000 0.000000 1.000000
vn 0.000000 0.000000 1.000000
vn 0.000000 0.000000 1.000000
vn 0.000000 0.000000 1.000000
vn 0.000000 0.000000 1.000000
vn 0.000000 0.000000 1.000000
vn 0.000000 0.000000 1.000000
vn 0.000000 0.000000 1.000000
vn 0.000000 0.000000 1.000000
vn 0.000000 0.000000 1.000000
vn 0.000000 0.000000 1.000000
vn 0.000000 0.000000 1.000000
vn 0.000000 0.000000 1.000000
vn 0.000000 0.000000 1.000000
vn 0.000000 0.000000 1.000000
vn 0.000000 0.000000 1.000000
vn 0.000000 0.000000 1.000000
vn 1.000000 0.000000 0.000000
vn 1.000000 0.000000 0.000000
vn 1.000000 0.000000 0.000000
vn 1.000000 0.000000 0.000000
vn 1.000000 0.000000 0.000000
vn 1.000000 0.000000 0.000000
vn 1.000000 0.000000 0.000000
vn 1.000000 0.000000 0.000000
vn 1.000000 0.000000 0.000000
vn 1.000000 0.000000 0.000000
vn 1.000000 0.000000 0.000000
vn 1.000000 0.000000 0.000000
vn 1.000000 0.000000 0.000000
vn 1.000000 0.000000 0.000000
vn 1.000000 0.000000 0.000000
vn 1.000000 0.000000 0.000000
vn 1.000000 0.000000 0.000000
vn 1.000000 0.000000 0.000000
vn 1.000000 0.000000 0.000000
vn 1.000000 0.000000 0.000000
vn 1.000000 -0.000000 0.000000
vn 1.000000 0.000000 0.000000
vn 1.000000 0.000000 0.000000
vn 1.000000 -0.000000 0.000000
vn 1.000000 -0.000000 0.000000
vn 1.000000 -0.000000 0.000000
vn 1.000000 -0.000000 0.000000
vn 1.000000 -0.000000 0.000000
vn 1.000000 -0.000000 0.000000
vn 1.000000 -0.000000 0.000000
vn 1.000000 0.000001 0.000000
vn 1.000000 0.000001 0.000000
vn 1.000000 0.000001 0.000000
vn 1.000000 0.000001 0.000000
vn 1.000000 0.000001 0.000000
vn 1.000000 0.000001 0.000000
vn 0.000000 -1.000000 -0.000000
vn 0.000000 -1.000000 -0.000000
vn 0.000000 -1.000000 -0.000000
vn 0.000000 -1.000000 -0.000000
vn 0.000000 -1.000000 -0.000000
vn 0.000000 -1.000000 -0.000000
vn 0.000000 -1.000000 0.000000
vn 0.000000 -1.000000 0.000000
vn 0.000000 -1.000000 0.000000
vn 0.000000 -1.000000 0.000000
vn 0.000000 -1.000000 0.000000
vn 0.000000 -1.000000 0.000000
vn 0.000000 -1.000000 0.000000
vn 0.000000 -1.000000 0.000000
vn 0.000000 -1.000000 -0.000000
vn 0.000000 -1.000000 -0.000000
vn 0.000000 -1.000000 0.000000
vn 0.000000 -1.000000 0.000000
vn 0.000000 -1.000000 0.000000
vn 0.000000 -1.000000 0.000000
vn 0.000000 -1.000000 0.000000
vn 0.000000 -1.000000 0.000000
vn 0.000000 -1.000000 0.000000
vn 0.000000 -1.000000 0.000000
vn 0.000000 -1.000000 -0.000000
vn 0.000000 -1.000000 0.000000
vn 0.000000 -1.000000 0.000000
vn 0.000000 -1.000000 -0.000000
vn 0.000000 -1.000000 -0.000000
vn 0.000000 -1.000000 -0.000000
vn 0.000000 -1.000000 -0.000000
vn 0.000000 -1.000000 -0.000000
vn 0.000000 -1.000000 -0.000000
vn 0.000000 -1.000000 -0.000000
vn 0.000000 -1.000000 0.000000
vn 0.000000 -1.000000 0.000000
vn 0.000000 1.000000 -0.000000
vn 0.000000 1.000000 -0.000000
vn 0.000000 1.000000 -0.000000
vn 0.000000 1.000000 -0.000000
vn 0.000000 1.000000 -0.000000
vn 0.000000 1.000000 -0.000000
vn 0.000000 1.000000 0.000000
vn 0.000000 1.000000 0.000000
vn 0.000000 1.000000 0.000000
vn 0.000000 1.000000 0.000000
vn 0.000000 1.000000 0.000000
vn 0.000000 1.000000 0.000000
vn 0.000000 1.000000 0.000000
vn 0.000000 1.000000 0.000000
vn 0.000000 1.000000 -0.000000
vn 0.000000 1.000000 -0.000000
vn 0.000000 1.000000 0.000000
vn 0.000000 1.000000 0.000000
vn 0.000000 1.000000 0.000000
vn 0.000000 1.000000 0.000000
vn 0.000000 1.000000 0.000000
vn 0.000000 1.000000 0.000000
vn 0.000000 1.000000 0.000000
vn 0.000000 1.000000 0.000000
vn 0.000000 1.000000 0.000000
vn 0.000000 1.000000 0.000000
vn 0.000000 1.000000 0.000000
vn 0.000000 1.000000 0.000000
vn 0.000000 1.000000 0.000000
vn 0.000000 1.000000 0.000000
vn 0.000000 1.000000 0.000000
vn 0.000000 1.000000 0.000000
vn 0.000000 1.000000 0.000000
vn 0.000000 1.000000 0.000000
vn 0.000000 1.000000 0.000000
vn 0.000000 1.000000 0.000000
s off
g OreOxiteIcon
f 1/1/1 3/2/2 19/3/3 21/4/4
f 2/5/5 1/1/6 6/7/7 5/8/8
f 3/2/9 2/5/10 8/9/11 7/10/12
f 4/15/13 6/7/14 22/14/15 24/18/16
f 5/19/17 4/20/18 12/21/19 11/22/20
f 7/10/21 9/16/22 14/17/23 13/11/24
f 9/24/25 8/25/26 11/22/27 10/23/28
f 10/23/29 12/21/30 18/26/31 17/27/32
f 13/11/33 15/12/34 20/6/35 19/3/36
f 15/31/37 14/32/38 17/33/39 16/34/40
f 16/28/41 18/26/42 24/29/43 23/30/44
f 21/4/45 20/6/46 23/13/47 22/14/48
f 1/1/49 2/5/50 3/2/51
f 4/15/52 5/8/53 6/7/54
f 7/10/55 8/9/56 9/16/57
f 10/23/58 11/22/59 12/21/60
f 13/11/61 14/17/62 15/12/63
f 16/28/64 17/27/65 18/26/66
f 19/3/67 20/6/68 21/4/69
f 22/14/70 23/13/71 24/18/72
f 28/35/73 25/36/74 29/37/75 30/38/76
f 29/37/77 25/36/78 26/39/79 32/40/80
f 32/40/81 26/39/82 27/41/83 31/42/84
f 31/42/85 27/41/86 28/35/87 30/38/88
f 33/43/89 34/44/90 35/45/91 36/46/92
f 44/47/93 33/43/94 36/46/95 37/48/96
f 43/49/97 44/47/98 37/48/99 38/50/100
f 43/49/101 38/50/102 39/51/103 42/52/104
f 42/52/105 39/51/106 40/53/107 41/54/108
f 48/55/109 45/56/110 49/57/111 50/58/112
f 49/57/113 45/56/114 46/59/115 52/60/116
f 52/60/117 46/59/118 47/61/119 51/62/120
f 51/62/121 47/61/122 48/55/123 50/58/124
f 53/63/125 54/64/126 55/65/127 56/66/128
f 64/67/129 53/63/130 56/66/131 57/68/132
f 63/69/133 64/67/134 57/68/135 58/70/136
f 63/69/137 58/70/138 59/71/139 62/72/140
f 62/72/141 59/71/142 60/73/143 61/74/144
f 68/75/145 65/76/146 69/77/147 70/78/148
f 69/77/149 65/76/150 66/79/151 72/80/152
f 72/80/153 66/79/154 67/81/155 71/82/156
f 71/82/157 67/81/158 68/75/159 70/78/160
f 73/83/161 74/84/162 75/85/163 76/86/164
f 84/87/165 73/83/166 76/86/167 77/88/168
f 83/89/169 84/87/170 77/88/171 78/90/172
f 83/89/173 78/90/174 79/91/175 82/92/176
f 82/92/177 79/91/178 80/93/179 81/94/180
f 88/95/181 85/96/182 89/97/183 90/98/184
f 89/97/185 85/96/186 86/99/187 92/100/188
f 92/100/189 86/99/190 87/101/191 91/102/192
f 91/102/193 87/101/194 88/95/195 90/98/196
f 93/103/197 94/104/198 95/105/199 96/106/200
f 104/107/201 93/103/202 96/106/203 97/108/204
f 103/109/205 104/107/206 97/108/207 98/110/208
f 103/109/209 98/110/210 99/111/211 102/112/212
f 102/112/213 99/111/214 100/113/215 101/114/216
f 108/115/217 105/116/218 109/117/219 110/118/220
f 109/117/221 105/116/222 106/119/223 112/120/224
f 112/120/225 106/119/226 107/121/227 111/122/228
f 111/122/229 107/121/230 108/115/231 110/118/232
f 113/123/233 114/124/234 115/125/235 116/126/236
f 124/127/237 113/123/238 116/126/239 117/128/240
f 123/129/241 124/127/242 117/128/243 118/130/244
f 123/129/245 118/130/246 119/131/247 122/132/248
f 122/132/249 119/131/250 120/133/251 121/134/252
f 128/135/253 125/136/254 129/137/255 130/138/256
f 129/137/257 125/136/258 126/139/259 132/140/260
f 132/140/261 126/139/262 127/141/263 131/142/264
f 131/142/265 127/141/266 128/135/267 130/138/268
f 133/143/269 134/144/270 135/145/271 136/146/272
f 144/147/273 133/143/274 136/146/275 137/148/276
f 143/149/277 144/147/278 137/148/279 138/150/280
f 143/149/281 138/150/282 139/151/283 142/152/284
f 142/152/285 139/151/286 140/153/287 141/154/288
