# This file uses centimeters as units for non-parametric coordinates.

g default
v -33.313862 -37.014992 33.313862
v -33.313862 -33.313862 37.014992
v -37.014992 -33.313862 33.313862
v 37.014992 -33.313862 33.313862
v 33.313862 -33.313862 37.014992
v 33.313862 -37.014992 33.313862
v -37.014992 33.313862 33.313862
v -33.313862 33.313862 37.014992
v -33.313862 37.014992 33.313862
v 33.313862 37.014992 33.313862
v 33.313862 33.313862 37.014992
v 37.014992 33.313862 33.313862
v -37.014992 33.313862 -33.313862
v -33.313862 37.014992 -33.313862
v -33.313862 33.313862 -37.014992
v 33.313862 33.313862 -37.014992
v 33.313862 37.014992 -33.313862
v 37.014992 33.313862 -33.313862
v -37.014992 -33.313862 -33.313862
v -33.313862 -33.313862 -37.014992
v -33.313862 -37.014992 -33.313862
v 33.313862 -37.014992 -33.313862
v 33.313862 -33.313862 -37.014992
v 37.014992 -33.313862 -33.313862
v 37.014992 6.979023 -23.256592
v 37.014992 6.979023 -4.651306
v 37.014992 -11.626242 -4.651306
v 37.014992 -11.626242 -23.256592
v 37.014992 -0.463084 -23.256592
v 37.014992 -0.463084 -12.093445
v 37.014992 -4.184136 -12.093445
v 37.014992 -4.184136 -19.535522
v 37.014992 -7.905189 -19.535522
v 37.014992 -7.905189 -8.372375
v 37.014992 3.257970 -8.372375
v 37.014992 3.257970 -23.256592
v 37.014992 11.630339 -0.000061
v 37.014992 11.630339 23.256561
v 37.014992 -11.626242 23.256561
v 37.014992 -11.626242 18.605225
v 37.014992 -2.323609 18.605225
v 37.014992 -2.323609 4.651306
v 37.014992 -11.626242 4.651306
v 37.014992 -11.626242 -0.000061
v 37.014992 6.967396 4.686157
v 37.014992 2.339334 4.686157
v 37.014992 2.339334 18.570374
v 37.014992 6.967396 18.570374
v -37.014992 6.979023 23.256592
v -37.014992 6.979023 4.651306
v -37.014992 -11.626242 4.651306
v -37.014992 -11.626242 23.256592
v -37.014992 -0.463084 23.256592
v -37.014992 -0.463084 12.093445
v -37.014992 -4.184136 12.093445
v -37.014992 -4.184136 19.535522
v -37.014992 -7.905189 19.535522
v -37.014992 -7.905189 8.372375
v -37.014992 3.257970 8.372375
v -37.014992 3.257970 23.256592
v -37.014992 11.630339 0.000061
v -37.014992 11.630339 -23.256561
v -37.014992 -11.626242 -23.256561
v -37.014992 -11.626242 -18.605225
v -37.014992 -2.323609 -18.605225
v -37.014992 -2.323609 -4.651306
v -37.014992 -11.626242 -4.651306
v -37.014992 -11.626242 0.000061
v -37.014992 6.967396 -4.686157
v -37.014992 2.339334 -4.686157
v -37.014992 2.339334 -18.570374
v -37.014992 6.967396 -18.570374
v -6.976974 37.017040 -23.256592
v -6.976974 37.017040 -4.651306
v 11.628290 37.017040 -4.651306
v 11.628290 37.017040 -23.256592
v 0.465132 37.017040 -23.256592
v 0.465132 37.017040 -12.093445
v 4.186184 37.017040 -12.093445
v 4.186184 37.017040 -19.535522
v 7.907237 37.017040 -19.535522
v 7.907237 37.017040 -8.372375
v -3.255922 37.017040 -8.372375
v -3.255922 37.017040 -23.256592
v -11.628290 37.017040 -0.000061
v -11.628290 37.017040 23.256561
v 11.628290 37.017040 23.256561
v 11.628290 37.017040 18.605225
v 2.325658 37.017040 18.605225
v 2.325658 37.017040 4.651306
v 11.628290 37.017040 4.651306
v 11.628290 37.017040 -0.000061
v -6.965347 37.017040 4.686157
v -2.337286 37.017040 4.686157
v -2.337286 37.017040 18.570374
v -6.965347 37.017040 18.570374
v 6.976974 -37.012943 -23.256592
v 6.976974 -37.012943 -4.651306
v -11.628290 -37.012943 -4.651306
v -11.628290 -37.012943 -23.256592
v -0.465132 -37.012943 -23.256592
v -0.465132 -37.012943 -12.093445
v -4.186184 -37.012943 -12.093445
v -4.186184 -37.012943 -19.535522
v -7.907237 -37.012943 -19.535522
v -7.907237 -37.012943 -8.372375
v 3.255922 -37.012943 -8.372375
v 3.255922 -37.012943 -23.256592
v 11.628290 -37.012943 -0.000061
v 11.628290 -37.012943 23.256561
v -11.628290 -37.012943 23.256561
v -11.628290 -37.012943 18.605225
v -2.325658 -37.012943 18.605225
v -2.325658 -37.012943 4.651306
v -11.628290 -37.012943 4.651306
v -11.628290 -37.012943 -0.000061
v 6.965347 -37.012943 4.686157
v 2.337286 -37.012943 4.686157
v 2.337286 -37.012943 18.570374
v 6.965347 -37.012943 18.570374
v -23.256592 6.979023 -37.014992
v -4.651306 6.979023 -37.014992
v -4.651306 -11.626242 -37.014992
v -23.256592 -11.626242 -37.014992
v -23.256592 -0.463084 -37.014992
v -12.093445 -0.463084 -37.014992
v -12.093445 -4.184136 -37.014992
v -19.535522 -4.184136 -37.014992
v -19.535522 -7.905189 -37.014992
v -8.372375 -7.905189 -37.014992
v -8.372375 3.257970 -37.014992
v -23.256592 3.257970 -37.014992
v -0.000061 11.630339 -37.014992
v 23.256561 11.630339 -37.014992
v 23.256561 -11.626242 -37.014992
v 18.605225 -11.626242 -37.014992
v 18.605225 -2.323609 -37.014992
v 4.651306 -2.323609 -37.014992
v 4.651306 -11.626242 -37.014992
v -0.000061 -11.626242 -37.014992
v 4.686157 6.967396 -37.014992
v 4.686157 2.339334 -37.014992
v 18.570374 2.339334 -37.014992
v 18.570374 6.967396 -37.014992
v 23.256592 6.979023 37.014992
v 4.651306 6.979023 37.014992
v 4.651306 -11.626242 37.014992
v 23.256592 -11.626242 37.014992
v 23.256592 -0.463084 37.014992
v 12.093445 -0.463084 37.014992
v 12.093445 -4.184136 37.014992
v 19.535522 -4.184136 37.014992
v 19.535522 -7.905189 37.014992
v 8.372375 -7.905189 37.014992
v 8.372375 3.257970 37.014992
v 23.256592 3.257970 37.014992
v 0.000061 11.630339 37.014992
v -23.256561 11.630339 37.014992
v -23.256561 -11.626242 37.014992
v -18.605225 -11.626242 37.014992
v -18.605225 -2.323609 37.014992
v -4.651306 -2.323609 37.014992
v -4.651306 -11.626242 37.014992
v 0.000061 -11.626242 37.014992
v -4.686157 6.967396 37.014992
v -4.686157 2.339334 37.014992
v -18.570374 2.339334 37.014992
v -18.570374 6.967396 37.014992
vt 0.162112 0.583969
vt 0.162112 0.587790
vt 0.093327 0.587790
vt 0.093327 0.583969
vt 0.165933 0.587790
vt 0.089506 0.587790
vt 0.162112 0.583969
vt 0.165933 0.587790
vt 0.165933 0.656576
vt 0.162112 0.656576
vt 0.093327 0.656576
vt 0.089506 0.656576
vt 0.089506 0.587790
vt 0.093327 0.583969
vt 0.162112 0.587790
vt 0.162112 0.660397
vt 0.093327 0.660397
vt 0.093327 0.587790
vt 0.091416 0.660397
vt 0.091416 0.656576
vt 0.160202 0.656576
vt 0.160202 0.660397
vt 0.164023 0.656576
vt 0.164023 0.656576
vt 0.160202 0.660397
vt 0.160202 0.587790
vt 0.164023 0.587790
vt 0.160202 0.583969
vt 0.091416 0.587790
vt 0.091416 0.583969
vt 0.124244 0.645337
vt 0.120423 0.645337
vt 0.120423 0.576552
vt 0.124244 0.576552
vt 0.893237 0.837306
vt 0.906184 0.837306
vt 0.906184 0.902039
vt 0.893237 0.889093
vt 0.841451 0.902039
vt 0.854397 0.889093
vt 0.841451 0.837306
vt 0.854397 0.850253
vt 0.880291 0.837306
vt 0.867344 0.850253
vt 0.880291 0.876146
vt 0.867344 0.876146
vt 0.906184 0.902039
vt 0.841451 0.902039
vt 0.841451 0.889093
vt 0.867344 0.889093
vt 0.893205 0.888996
vt 0.880323 0.888996
vt 0.906184 0.837306
vt 0.893205 0.850350
vt 0.841451 0.837306
vt 0.880323 0.850350
vt 0.867344 0.850253
vt 0.841451 0.850253
vt 0.893237 0.837306
vt 0.906184 0.837306
vt 0.906184 0.902039
vt 0.893237 0.889093
vt 0.841451 0.902039
vt 0.854397 0.889093
vt 0.841451 0.837306
vt 0.854397 0.850253
vt 0.880291 0.837306
vt 0.867344 0.850253
vt 0.880291 0.876146
vt 0.867344 0.876146
vt 0.906184 0.902039
vt 0.841451 0.902039
vt 0.841451 0.889093
vt 0.867344 0.889093
vt 0.893205 0.888996
vt 0.880323 0.888996
vt 0.906184 0.837306
vt 0.893205 0.850350
vt 0.841451 0.837306
vt 0.880323 0.850350
vt 0.867344 0.850253
vt 0.841451 0.850253
vt 0.893237 0.837306
vt 0.906184 0.837306
vt 0.906184 0.902039
vt 0.893237 0.889093
vt 0.841451 0.902039
vt 0.854397 0.889093
vt 0.841451 0.837306
vt 0.854397 0.850253
vt 0.880291 0.837306
vt 0.867344 0.850253
vt 0.880291 0.876146
vt 0.867344 0.876146
vt 0.906184 0.902039
vt 0.841451 0.902039
vt 0.841451 0.889093
vt 0.867344 0.889093
vt 0.893205 0.888996
vt 0.880323 0.888996
vt 0.906184 0.837306
vt 0.893205 0.850350
vt 0.841451 0.837306
vt 0.880323 0.850350
vt 0.867344 0.850253
vt 0.841451 0.850253
vt 0.893237 0.837306
vt 0.906184 0.837306
vt 0.906184 0.902039
vt 0.893237 0.889093
vt 0.841451 0.902039
vt 0.854397 0.889093
vt 0.841451 0.837306
vt 0.854397 0.850253
vt 0.880291 0.837306
vt 0.867344 0.850253
vt 0.880291 0.876146
vt 0.867344 0.876146
vt 0.906184 0.902039
vt 0.841451 0.902039
vt 0.841451 0.889093
vt 0.867344 0.889093
vt 0.893205 0.888996
vt 0.880323 0.888996
vt 0.906184 0.837306
vt 0.893205 0.850350
vt 0.841451 0.837306
vt 0.880323 0.850350
vt 0.867344 0.850253
vt 0.841451 0.850253
vt 0.893237 0.837306
vt 0.906184 0.837306
vt 0.906184 0.902039
vt 0.893237 0.889093
vt 0.841451 0.902039
vt 0.854397 0.889093
vt 0.841451 0.837306
vt 0.854397 0.850253
vt 0.880291 0.837306
vt 0.867344 0.850253
vt 0.880291 0.876146
vt 0.867344 0.876146
vt 0.906184 0.902039
vt 0.841451 0.902039
vt 0.841451 0.889093
vt 0.867344 0.889093
vt 0.893205 0.888996
vt 0.880323 0.888996
vt 0.906184 0.837306
vt 0.893205 0.850350
vt 0.841451 0.837306
vt 0.880323 0.850350
vt 0.867344 0.850253
vt 0.841451 0.850253
vt 0.893237 0.837306
vt 0.906184 0.837306
vt 0.906184 0.902039
vt 0.893237 0.889093
vt 0.841451 0.902039
vt 0.854397 0.889093
vt 0.841451 0.837306
vt 0.854397 0.850253
vt 0.880291 0.837306
vt 0.867344 0.850253
vt 0.880291 0.876146
vt 0.867344 0.876146
vt 0.906184 0.902039
vt 0.841451 0.902039
vt 0.841451 0.889093
vt 0.867344 0.889093
vt 0.893205 0.888996
vt 0.880323 0.888996
vt 0.906184 0.837306
vt 0.893205 0.850350
vt 0.841451 0.837306
vt 0.880323 0.850350
vt 0.867344 0.850253
vt 0.841451 0.850253
vn -0.707107 -0.707107 0.000000
vn -0.707107 -0.707107 0.000000
vn -0.707107 -0.707107 0.000000
vn -0.707107 -0.707107 0.000000
vn 0.000000 -0.707107 0.707107
vn 0.000000 -0.707107 0.707107
vn 0.000000 -0.707107 0.707107
vn 0.000000 -0.707107 0.707107
vn -0.707107 0.000000 0.707107
vn -0.707107 0.000000 0.707107
vn -0.707107 0.000000 0.707107
vn -0.707107 0.000000 0.707107
vn 0.707107 -0.707107 0.000000
vn 0.707107 -0.707107 0.000000
vn 0.707107 -0.707107 0.000000
vn 0.707107 -0.707107 0.000000
vn 0.707107 0.000000 0.707107
vn 0.707107 0.000000 0.707107
vn 0.707107 0.000000 0.707107
vn 0.707107 0.000000 0.707107
vn -0.707107 0.707107 0.000000
vn -0.707107 0.707107 0.000000
vn -0.707107 0.707107 0.000000
vn -0.707107 0.707107 0.000000
vn 0.000000 0.707107 0.707107
vn 0.000000 0.707107 0.707107
vn 0.000000 0.707107 0.707107
vn 0.000000 0.707107 0.707107
vn 0.707107 0.707107 0.000000
vn 0.707107 0.707107 0.000000
vn 0.707107 0.707107 0.000000
vn 0.707107 0.707107 0.000000
vn -0.707107 0.000000 -0.707107
vn -0.707107 0.000000 -0.707107
vn -0.707107 0.000000 -0.707107
vn -0.707107 0.000000 -0.707107
vn 0.000000 0.707107 -0.707107
vn 0.000000 0.707107 -0.707107
vn 0.000000 0.707107 -0.707107
vn 0.000000 0.707107 -0.707107
vn 0.707107 0.000000 -0.707107
vn 0.707107 0.000000 -0.707107
vn 0.707107 0.000000 -0.707107
vn 0.707107 0.000000 -0.707107
vn 0.000000 -0.707107 -0.707107
vn 0.000000 -0.707107 -0.707107
vn 0.000000 -0.707107 -0.707107
vn 0.000000 -0.707107 -0.707107
vn -0.577350 -0.577350 0.577350
vn -0.577350 -0.577350 0.577350
vn -0.577350 -0.577350 0.577350
vn 0.577350 -0.577350 0.577350
vn 0.577350 -0.577350 0.577350
vn 0.577350 -0.577350 0.577350
vn -0.577350 0.577350 0.577350
vn -0.577350 0.577350 0.577350
vn -0.577350 0.577350 0.577350
vn 0.577350 0.577350 0.577350
vn 0.577350 0.577350 0.577350
vn 0.577350 0.577350 0.577350
vn -0.577350 0.577350 -0.577350
vn -0.577350 0.577350 -0.577350
vn -0.577350 0.577350 -0.577350
vn 0.577350 0.577350 -0.577350
vn 0.577350 0.577350 -0.577350
vn 0.577350 0.577350 -0.577350
vn -0.577350 -0.577350 -0.577350
vn -0.577350 -0.577350 -0.577350
vn -0.577350 -0.577350 -0.577350
vn 0.577350 -0.577350 -0.577350
vn 0.577350 -0.577350 -0.577350
vn 0.577350 -0.577350 -0.577350
vn 1.000000 0.000000 0.000000
vn 1.000000 0.000000 0.000000
vn 1.000000 0.000000 0.000000
vn 1.000000 0.000000 0.000000
vn 1.000000 0.000000 0.000000
vn 1.000000 0.000000 0.000000
vn 1.000000 0.000000 0.000000
vn 1.000000 0.000000 0.000000
vn 1.000000 0.000000 0.000000
vn 1.000000 0.000000 0.000000
vn 1.000000 0.000000 0.000000
vn 1.000000 0.000000 0.000000
vn 1.000000 0.000000 0.000000
vn 1.000000 0.000000 0.000000
vn 1.000000 0.000000 0.000000
vn 1.000000 0.000000 0.000000
vn 1.000000 0.000000 0.000000
vn 1.000000 0.000000 0.000000
vn 1.000000 0.000000 0.000000
vn 1.000000 0.000000 0.000000
vn 1.000000 -0.000000 0.000000
vn 1.000000 0.000000 0.000000
vn 1.000000 0.000000 0.000000
vn 1.000000 -0.000000 0.000000
vn 1.000000 -0.000001 0.000000
vn 1.000000 -0.000000 0.000000
vn 1.000000 -0.000000 0.000000
vn 1.000000 -0.000000 0.000000
vn 1.000000 -0.000000 0.000000
vn 1.000000 -0.000000 0.000000
vn 1.000000 -0.000001 0.000000
vn 1.000000 -0.000000 0.000000
vn 1.000000 0.000000 0.000000
vn 1.000000 -0.000000 0.000000
vn 1.000000 -0.000000 0.000000
vn 1.000000 -0.000000 0.000000
vn 1.000000 -0.000000 0.000000
vn 1.000000 -0.000000 0.000000
vn 1.000000 -0.000001 0.000000
vn 1.000000 -0.000000 0.000000
vn 1.000000 -0.000000 0.000000
vn 1.000000 -0.000001 0.000000
vn 1.000000 0.000000 0.000000
vn 1.000000 -0.000001 0.000000
vn 1.000000 0.000000 0.000000
vn 1.000000 0.000000 0.000000
vn -1.000000 0.000000 0.000000
vn -1.000000 0.000000 0.000000
vn -1.000000 0.000000 0.000000
vn -1.000000 0.000000 0.000000
vn -1.000000 0.000000 0.000000
vn -1.000000 0.000000 0.000000
vn -1.000000 0.000000 0.000000
vn -1.000000 0.000000 0.000000
vn -1.000000 0.000000 0.000000
vn -1.000000 0.000000 0.000000
vn -1.000000 0.000000 0.000000
vn -1.000000 0.000000 0.000000
vn -1.000000 0.000000 0.000000
vn -1.000000 0.000000 0.000000
vn -1.000000 0.000000 0.000000
vn -1.000000 0.000000 0.000000
vn -1.000000 0.000000 0.000000
vn -1.000000 0.000000 0.000000
vn -1.000000 0.000000 0.000000
vn -1.000000 0.000000 0.000000
vn -1.000000 -0.000000 0.000000
vn -1.000000 0.000000 0.000000
vn -1.000000 0.000000 0.000000
vn -1.000000 -0.000000 0.000000
vn -1.000000 -0.000001 0.000000
vn -1.000000 -0.000000 0.000000
vn -1.000000 -0.000000 0.000000
vn -1.000000 -0.000000 0.000000
vn -1.000000 -0.000000 0.000000
vn -1.000000 -0.000000 0.000000
vn -1.000000 -0.000001 0.000000
vn -1.000000 -0.000000 0.000000
vn -1.000000 0.000000 0.000000
vn -1.000000 -0.000000 0.000000
vn -1.000000 -0.000000 0.000000
vn -1.000000 -0.000000 0.000000
vn -1.000000 -0.000000 0.000000
vn -1.000000 -0.000000 0.000000
vn -1.000000 -0.000001 0.000000
vn -1.000000 -0.000000 0.000000
vn -1.000000 -0.000000 0.000000
vn -1.000000 -0.000001 0.000000
vn -1.000000 0.000000 0.000000
vn -1.000000 -0.000001 0.000000
vn -1.000000 0.000000 0.000000
vn -1.000000 0.000000 0.000000
vn 0.000000 1.000000 0.000000
vn 0.000000 1.000000 0.000000
vn 0.000000 1.000000 -0.000000
vn 0.000000 1.000000 -0.000000
vn 0.000000 1.000000 -0.000000
vn 0.000000 1.000000 -0.000000
vn 0.000000 1.000000 -0.000000
vn 0.000000 1.000000 -0.000000
vn 0.000000 1.000000 -0.000000
vn 0.000000 1.000000 -0.000000
vn 0.000000 1.000000 0.000000
vn 0.000000 1.000000 0.000000
vn 0.000000 1.000000 0.000000
vn 0.000000 1.000000 0.000000
vn 0.000000 1.000000 0.000000
vn 0.000000 1.000000 0.000000
vn 0.000000 1.000000 0.000000
vn 0.000000 1.000000 0.000000
vn 0.000000 1.000000 0.000000
vn 0.000000 1.000000 0.000000
vn 0.000000 1.000000 0.000000
vn 0.000000 1.000000 0.000001
vn 0.000000 1.000000 0.000001
vn 0.000000 1.000000 0.000001
vn 0.000000 1.000000 -0.000000
vn 0.000000 1.000000 0.000000
vn 0.000000 1.000000 0.000001
vn 0.000000 1.000000 -0.000000
vn 0.000000 1.000000 0.000000
vn 0.000000 1.000000 0.000000
vn 0.000000 1.000000 -0.000000
vn 0.000000 1.000000 0.000000
vn 0.000000 1.000000 0.000000
vn 0.000000 1.000000 0.000000
vn 0.000000 1.000000 0.000000
vn 0.000000 1.000000 0.000000
vn 0.000000 1.000000 -0.000000
vn 0.000000 1.000000 0.000001
vn 0.000000 1.000000 0.000000
vn 0.000000 1.000000 0.000000
vn 0.000000 1.000000 0.000000
vn 0.000000 1.000000 0.000000
vn 0.000000 1.000000 0.000000
vn 0.000000 1.000000 0.000000
vn 0.000000 1.000000 0.000000
vn 0.000000 1.000000 0.000000
vn 0.000000 -1.000000 0.000000
vn 0.000000 -1.000000 0.000000
vn 0.000000 -1.000000 -0.000001
vn 0.000000 -1.000000 -0.000001
vn 0.000000 -1.000000 -0.000001
vn 0.000000 -1.000000 -0.000001
vn 0.000000 -1.000000 -0.000001
vn 0.000000 -1.000000 -0.000001
vn 0.000000 -1.000000 -0.000001
vn 0.000000 -1.000000 -0.000001
vn 0.000000 -1.000000 -0.000000
vn 0.000000 -1.000000 -0.000000
vn 0.000000 -1.000000 -0.000000
vn 0.000000 -1.000000 -0.000000
vn 0.000000 -1.000000 -0.000000
vn 0.000000 -1.000000 -0.000000
vn 0.000000 -1.000000 -0.000000
vn 0.000000 -1.000000 -0.000000
vn 0.000000 -1.000000 0.000000
vn 0.000000 -1.000000 0.000000
vn 0.000000 -1.000000 0.000000
vn 0.000000 -1.000000 0.000000
vn 0.000000 -1.000000 0.000000
vn 0.000000 -1.000000 0.000000
vn 0.000000 -1.000000 0.000000
vn 0.000000 -1.000000 0.000000
vn 0.000000 -1.000000 0.000000
vn 0.000000 -1.000000 0.000000
vn 0.000000 -1.000000 0.000000
vn 0.000000 -1.000000 0.000000
vn 0.000000 -1.000000 0.000000
vn 0.000000 -1.000000 0.000000
vn 0.000000 -1.000000 0.000000
vn 0.000000 -1.000000 0.000000
vn 0.000000 -1.000000 0.000000
vn 0.000000 -1.000000 0.000000
vn 0.000000 -1.000000 0.000000
vn 0.000000 -1.000000 0.000000
vn 0.000000 -1.000000 0.000000
vn 0.000000 -1.000000 0.000000
vn 0.000000 -1.000000 0.000000
vn 0.000000 -1.000000 0.000000
vn 0.000000 -1.000000 0.000000
vn 0.000000 -1.000000 0.000000
vn 0.000000 -1.000000 0.000000
vn 0.000000 -1.000000 0.000000
vn 0.000000 0.000000 -1.000000
vn 0.000000 0.000000 -1.000000
vn 0.000000 0.000000 -1.000000
vn 0.000000 0.000000 -1.000000
vn 0.000000 0.000000 -1.000000
vn 0.000000 0.000000 -1.000000
vn 0.000000 0.000000 -1.000000
vn 0.000000 0.000000 -1.000000
vn 0.000000 0.000000 -1.000000
vn 0.000000 0.000000 -1.000000
vn -0.000000 0.000000 -1.000000
vn -0.000000 0.000000 -1.000000
vn -0.000000 0.000000 -1.000000
vn -0.000000 0.000000 -1.000000
vn -0.000000 0.000000 -1.000000
vn -0.000000 0.000000 -1.000000
vn -0.000000 0.000000 -1.000000
vn -0.000000 0.000000 -1.000000
vn 0.000000 0.000000 -1.000000
vn 0.000000 0.000000 -1.000000
vn 0.000000 0.000000 -1.000000
vn 0.000000 0.000000 -1.000000
vn 0.000000 0.000000 -1.000000
vn 0.000000 0.000000 -1.000000
vn 0.000000 0.000000 -1.000000
vn 0.000000 0.000000 -1.000000
vn 0.000000 0.000000 -1.000000
vn 0.000000 0.000000 -1.000000
vn 0.000000 0.000000 -1.000000
vn 0.000000 0.000000 -1.000000
vn 0.000000 0.000000 -1.000000
vn 0.000000 0.000000 -1.000000
vn 0.000000 0.000000 -1.000000
vn 0.000000 0.000000 -1.000000
vn 0.000000 0.000000 -1.000000
vn 0.000000 0.000000 -1.000000
vn 0.000000 0.000000 -1.000000
vn 0.000000 0.000000 -1.000000
vn 0.000000 0.000000 -1.000000
vn 0.000000 0.000000 -1.000000
vn 0.000000 0.000000 -1.000000
vn 0.000000 0.000000 -1.000000
vn 0.000000 0.000000 -1.000000
vn 0.000000 0.000000 -1.000000
vn 0.000000 0.000000 -1.000000
vn 0.000000 0.000000 -1.000000
vn 0.000000 0.000000 1.000000
vn 0.000000 0.000000 1.000000
vn 0.000000 0.000000 1.000000
vn 0.000000 0.000000 1.000000
vn 0.000000 0.000000 1.000000
vn 0.000000 0.000000 1.000000
vn 0.000000 0.000000 1.000000
vn 0.000000 0.000000 1.000000
vn 0.000000 0.000000 1.000000
vn 0.000000 0.000000 1.000000
vn 0.000000 0.000000 1.000000
vn 0.000000 0.000000 1.000000
vn 0.000000 0.000000 1.000000
vn 0.000000 0.000000 1.000000
vn 0.000000 0.000000 1.000000
vn 0.000000 0.000000 1.000000
vn 0.000000 0.000000 1.000000
vn 0.000000 0.000000 1.000000
vn 0.000000 0.000000 1.000000
vn 0.000000 0.000000 1.000000
vn -0.000000 0.000000 1.000000
vn 0.000000 0.000000 1.000000
vn 0.000000 0.000000 1.000000
vn -0.000000 0.000000 1.000000
vn -0.000000 0.000000 1.000000
vn -0.000000 0.000000 1.000000
vn -0.000000 0.000000 1.000000
vn -0.000000 0.000000 1.000000
vn 0.000000 0.000000 1.000000
vn -0.000000 0.000000 1.000000
vn -0.000000 0.000000 1.000000
vn 0.000000 0.000000 1.000000
vn 0.000000 0.000000 1.000000
vn 0.000000 0.000000 1.000000
vn 0.000000 0.000000 1.000000
vn 0.000000 0.000000 1.000000
vn -0.000000 0.000000 1.000000
vn -0.000000 0.000000 1.000000
vn 0.000000 0.000000 1.000000
vn 0.000000 0.000000 1.000000
vn 0.000000 0.000000 1.000000
vn 0.000000 0.000000 1.000000
vn 0.000000 0.000000 1.000000
vn 0.000000 0.000000 1.000000
vn 0.000000 0.000000 1.000000
vn 0.000000 0.000000 1.000000
s off
g OreSilverIcon
f 1/1/1 3/2/2 19/3/3 21/4/4
f 2/5/5 1/1/6 6/7/7 5/8/8
f 3/2/9 2/5/10 8/9/11 7/10/12
f 4/15/13 6/7/14 22/14/15 24/18/16
f 5/19/17 4/20/18 12/21/19 11/22/20
f 7/10/21 9/16/22 14/17/23 13/11/24
f 9/24/25 8/25/26 11/22/27 10/23/28
f 10/23/29 12/21/30 18/26/31 17/27/32
f 13/11/33 15/12/34 20/6/35 19/3/36
f 15/31/37 14/32/38 17/33/39 16/34/40
f 16/28/41 18/26/42 24/29/43 23/30/44
f 21/4/45 20/6/46 23/13/47 22/14/48
f 1/1/49 2/5/50 3/2/51
f 4/15/52 5/8/53 6/7/54
f 7/10/55 8/9/56 9/16/57
f 10/23/58 11/22/59 12/21/60
f 13/11/61 14/17/62 15/12/63
f 16/28/64 17/27/65 18/26/66
f 19/3/67 20/6/68 21/4/69
f 22/14/70 23/13/71 24/18/72
f 36/35/73 25/36/74 26/37/75 35/38/76
f 35/38/77 26/37/78 27/39/79 34/40/80
f 34/40/81 27/39/82 28/41/83 33/42/84
f 33/42/85 28/41/86 29/43/87 32/44/88
f 32/44/89 29/43/90 30/45/91 31/46/92
f 38/47/93 39/48/94 40/49/95 41/50/96
f 48/51/97 38/47/98 41/50/99 47/52/100
f 37/53/101 38/47/102 48/51/103 45/54/104
f 44/55/105 37/53/106 45/54/107 46/56/108
f 47/52/109 41/50/110 42/57/111 46/56/112
f 46/56/113 42/57/114 44/55/115
f 42/57/116 43/58/117 44/55/118
f 60/59/119 49/60/120 50/61/121 59/62/122
f 59/62/123 50/61/124 51/63/125 58/64/126
f 58/64/127 51/63/128 52/65/129 57/66/130
f 57/66/131 52/65/132 53/67/133 56/68/134
f 56/68/135 53/67/136 54/69/137 55/70/138
f 62/71/139 63/72/140 64/73/141 65/74/142
f 72/75/143 62/71/144 65/74/145 71/76/146
f 61/77/147 62/71/148 72/75/149 69/78/150
f 68/79/151 61/77/152 69/78/153 70/80/154
f 71/76/155 65/74/156 66/81/157 70/80/158
f 70/80/159 66/81/160 68/79/161
f 66/81/162 67/82/163 68/79/164
f 84/83/165 73/84/166 74/85/167 83/86/168
f 83/86/169 74/85/170 75/87/171 82/88/172
f 82/88/173 75/87/174 76/89/175 81/90/176
f 81/90/177 76/89/178 77/91/179 80/92/180
f 80/92/181 77/91/182 78/93/183 79/94/184
f 86/95/185 87/96/186 88/97/187 89/98/188
f 96/99/189 86/95/190 89/98/191 95/100/192
f 85/101/193 86/95/194 96/99/195 93/102/196
f 92/103/197 85/101/198 93/102/199 94/104/200
f 95/100/201 89/98/202 90/105/203 94/104/204
f 94/104/205 90/105/206 92/103/207
f 90/105/208 91/106/209 92/103/210
f 108/107/211 97/108/212 98/109/213 107/110/214
f 107/110/215 98/109/216 99/111/217 106/112/218
f 106/112/219 99/111/220 100/113/221 105/114/222
f 105/114/223 100/113/224 101/115/225 104/116/226
f 104/116/227 101/115/228 102/117/229 103/118/230
f 110/119/231 111/120/232 112/121/233 113/122/234
f 120/123/235 110/119/236 113/122/237 119/124/238
f 109/125/239 110/119/240 120/123/241 117/126/242
f 116/127/243 109/125/244 117/126/245 118/128/246
f 119/124/247 113/122/248 114/129/249 118/128/250
f 118/128/251 114/129/252 116/127/253
f 114/129/254 115/130/255 116/127/256
f 132/131/257 121/132/258 122/133/259 131/134/260
f 131/134/261 122/133/262 123/135/263 130/136/264
f 130/136/265 123/135/266 124/137/267 129/138/268
f 129/138/269 124/137/270 125/139/271 128/140/272
f 128/140/273 125/139/274 126/141/275 127/142/276
f 134/143/277 135/144/278 136/145/279 137/146/280
f 144/147/281 134/143/282 137/146/283 143/148/284
f 133/149/285 134/143/286 144/147/287 141/150/288
f 140/151/289 133/149/290 141/150/291 142/152/292
f 143/148/293 137/146/294 138/153/295 142/152/296
f 142/152/297 138/153/298 140/151/299
f 138/153/300 139/154/301 140/151/302
f 156/155/303 145/156/304 146/157/305 155/158/306
f 155/158/307 146/157/308 147/159/309 154/160/310
f 154/160/311 147/159/312 148/161/313 153/162/314
f 153/162/315 148/161/316 149/163/317 152/164/318
f 152/164/319 149/163/320 150/165/321 151/166/322
f 158/167/323 159/168/324 160/169/325 161/170/326
f 168/171/327 158/167/328 161/170/329 167/172/330
f 157/173/331 158/167/332 168/171/333 165/174/334
f 164/175/335 157/173/336 165/174/337 166/176/338
f 167/172/339 161/170/340 162/177/341 166/176/342
f 166/176/343 162/177/344 164/175/345
f 162/177/346 163/178/347 164/175/348
