# This file uses centimeters as units for non-parametric coordinates.

g default
v -8.930525 13.953947 -37.014992
v 18.977369 13.953947 -37.014992
v 18.977369 -2.790788 -37.014992
v -3.348949 -2.790788 -37.014992
v -3.348949 -8.372368 -37.014992
v 18.977369 -8.372368 -37.014992
v 18.977369 -13.953947 -37.014992
v -8.930525 -13.953947 -37.014992
v -8.930525 2.790789 -37.014992
v 13.395790 2.790789 -37.014992
v 13.395790 8.372372 -37.014992
v -8.930525 8.372372 -37.014992
v -18.977369 8.372370 -37.014992
v -14.512102 8.372370 -37.014992
v -14.512102 -13.953947 -37.014992
v -18.977369 -13.953947 -37.014992
v 8.930525 13.953947 37.014992
v -18.977369 13.953947 37.014992
v -18.977369 -2.790788 37.014992
v 3.348949 -2.790788 37.014992
v 3.348949 -8.372368 37.014992
v -18.977369 -8.372368 37.014992
v -18.977369 -13.953947 37.014992
v 8.930525 -13.953947 37.014992
v 8.930525 2.790789 37.014992
v -13.395790 2.790789 37.014992
v -13.395790 8.372372 37.014992
v 8.930525 8.372372 37.014992
v 18.977369 8.372370 37.014992
v 14.512102 8.372370 37.014992
v 14.512102 -13.953947 37.014992
v 18.977369 -13.953947 37.014992
v -37.014992 13.953947 8.930525
v -37.014992 13.953947 -18.977369
v -37.014992 -2.790788 -18.977369
v -37.014992 -2.790788 3.348949
v -37.014992 -8.372368 3.348949
v -37.014992 -8.372368 -18.977369
v -37.014992 -13.953947 -18.977369
v -37.014992 -13.953947 8.930525
v -37.014992 2.790789 8.930525
v -37.014992 2.790789 -13.395790
v -37.014992 8.372372 -13.395790
v -37.014992 8.372372 8.930525
v -37.014992 8.372370 18.977369
v -37.014992 8.372370 14.512102
v -37.014992 -13.953947 14.512102
v -37.014992 -13.953947 18.977369
v 37.014992 13.953947 -8.930525
v 37.014992 13.953947 18.977369
v 37.014992 -2.790788 18.977369
v 37.014992 -2.790788 -3.348949
v 37.014992 -8.372368 -3.348949
v 37.014992 -8.372368 18.977369
v 37.014992 -13.953947 18.977369
v 37.014992 -13.953947 -8.930525
v 37.014992 2.790789 -8.930525
v 37.014992 2.790789 13.395790
v 37.014992 8.372372 13.395790
v 37.014992 8.372372 -8.930525
v 37.014992 8.372370 -18.977369
v 37.014992 8.372370 -14.512102
v 37.014992 -13.953947 -14.512102
v 37.014992 -13.953947 -18.977369
v -33.313862 -37.014992 33.313873
v -33.313862 -33.313862 37.014984
v -37.014992 -33.313862 33.313873
v 37.014992 -33.313862 33.313873
v 33.313862 -33.313862 37.014984
v 33.313862 -37.014992 33.313873
v -37.014992 33.313862 33.313873
v -33.313862 33.313862 37.014984
v -33.313862 37.014992 33.313873
v 33.313862 37.014992 33.313873
v 33.313862 33.313862 37.014984
v 37.014992 33.313862 33.313873
v -37.014992 33.313862 -33.313873
v -33.313862 37.014992 -33.313873
v -33.313862 33.313862 -37.014984
v 33.313862 33.313862 -37.014984
v 33.313862 37.014992 -33.313873
v 37.014992 33.313862 -33.313873
v -37.014992 -33.313862 -33.313873
v -33.313862 -33.313862 -37.014984
v -33.313862 -37.014992 -33.313873
v 33.313862 -37.014992 -33.313873
v 33.313862 -33.313862 -37.014984
v 37.014992 -33.313862 -33.313873
v 13.953947 -37.014992 -8.930525
v 13.953947 -37.014992 18.977369
v -2.790788 -37.014992 18.977369
v -2.790788 -37.014992 -3.348949
v -8.372368 -37.014992 -3.348949
v -8.372368 -37.014992 18.977369
v -13.953947 -37.014992 18.977369
v -13.953947 -37.014992 -8.930525
v 2.790789 -37.014992 -8.930525
v 2.790789 -37.014992 13.395790
v 8.372372 -37.014992 13.395790
v 8.372372 -37.014992 -8.930525
v 8.372370 -37.014992 -18.977369
v 8.372370 -37.014992 -14.512102
v -13.953947 -37.014992 -14.512102
v -13.953947 -37.014992 -18.977369
v -13.953947 37.014992 -8.930525
v -13.953947 37.014992 18.977369
v 2.790788 37.014992 18.977369
v 2.790788 37.014992 -3.348949
v 8.372368 37.014992 -3.348949
v 8.372368 37.014992 18.977369
v 13.953947 37.014992 18.977369
v 13.953947 37.014992 -8.930525
v -2.790789 37.014992 -8.930525
v -2.790789 37.014992 13.395790
v -8.372372 37.014992 13.395790
v -8.372372 37.014992 -8.930525
v -8.372370 37.014992 -18.977369
v -8.372370 37.014992 -14.512102
v 13.953947 37.014992 -14.512102
v 13.953947 37.014992 -18.977369
vt 0.893851 0.896501
vt 0.847256 0.896501
vt 0.847256 0.868544
vt 0.884532 0.868544
vt 0.884532 0.859225
vt 0.847256 0.859225
vt 0.847256 0.849906
vt 0.893851 0.849906
vt 0.893851 0.877863
vt 0.856575 0.877863
vt 0.856575 0.887182
vt 0.893851 0.887182
vt 0.921476 0.913180
vt 0.905786 0.913180
vt 0.905786 0.834730
vt 0.921476 0.834730
vt 0.893851 0.896501
vt 0.847256 0.896501
vt 0.847256 0.868544
vt 0.884532 0.868544
vt 0.884532 0.859225
vt 0.847256 0.859225
vt 0.847256 0.849906
vt 0.893851 0.849906
vt 0.893851 0.877863
vt 0.856575 0.877863
vt 0.856575 0.887182
vt 0.893851 0.887182
vt 0.921476 0.913180
vt 0.905786 0.913180
vt 0.905786 0.834730
vt 0.921476 0.834730
vt 0.893851 0.896501
vt 0.847256 0.896501
vt 0.847256 0.868544
vt 0.884532 0.868544
vt 0.884532 0.859225
vt 0.847256 0.859225
vt 0.847256 0.849906
vt 0.893851 0.849906
vt 0.893851 0.877863
vt 0.856575 0.877863
vt 0.856575 0.887182
vt 0.893851 0.887182
vt 0.921476 0.913180
vt 0.905786 0.913180
vt 0.905786 0.834730
vt 0.921476 0.834730
vt 0.893851 0.896501
vt 0.847256 0.896501
vt 0.847256 0.868544
vt 0.884532 0.868544
vt 0.884532 0.859225
vt 0.847256 0.859225
vt 0.847256 0.849906
vt 0.893851 0.849906
vt 0.893851 0.877863
vt 0.856575 0.877863
vt 0.856575 0.887182
vt 0.893851 0.887182
vt 0.921476 0.913180
vt 0.905786 0.913180
vt 0.905786 0.834730
vt 0.921476 0.834730
vt 0.162112 0.583969
vt 0.162112 0.587790
vt 0.093327 0.587790
vt 0.093327 0.583969
vt 0.165933 0.587790
vt 0.162112 0.583969
vt 0.165933 0.587790
vt 0.165933 0.656576
vt 0.162112 0.656576
vt 0.162112 0.587790
vt 0.093327 0.583969
vt 0.093327 0.587790
vt 0.091416 0.660397
vt 0.091416 0.656576
vt 0.160202 0.656576
vt 0.160202 0.660397
vt 0.162112 0.660397
vt 0.093327 0.660397
vt 0.093327 0.656576
vt 0.164023 0.656576
vt 0.160202 0.660397
vt 0.164023 0.656576
vt 0.160202 0.587790
vt 0.164023 0.587790
vt 0.089506 0.656576
vt 0.089506 0.587790
vt 0.127178 0.658094
vt 0.123357 0.658094
vt 0.123357 0.589309
vt 0.127178 0.589309
vt 0.160202 0.583969
vt 0.091416 0.587790
vt 0.091416 0.583969
vt 0.089506 0.587790
vt 0.893851 0.896501
vt 0.847256 0.896501
vt 0.847256 0.868544
vt 0.884532 0.868544
vt 0.884532 0.859225
vt 0.847256 0.859225
vt 0.847256 0.849906
vt 0.893851 0.849906
vt 0.893851 0.877863
vt 0.856575 0.877863
vt 0.856575 0.887182
vt 0.893851 0.887182
vt 0.921476 0.913180
vt 0.905786 0.913180
vt 0.905786 0.834730
vt 0.921476 0.834730
vt 0.893851 0.896501
vt 0.847256 0.896501
vt 0.847256 0.868544
vt 0.884532 0.868544
vt 0.884532 0.859225
vt 0.847256 0.859225
vt 0.847256 0.849906
vt 0.893851 0.849906
vt 0.893851 0.877863
vt 0.856575 0.877863
vt 0.856575 0.887182
vt 0.893851 0.887182
vt 0.921476 0.913180
vt 0.905786 0.913180
vt 0.905786 0.834730
vt 0.921476 0.834730
vn 0.000000 0.000000 -1.000000
vn 0.000000 0.000000 -1.000000
vn 0.000000 0.000000 -1.000000
vn 0.000000 0.000000 -1.000000
vn 0.000000 0.000000 -1.000000
vn 0.000000 0.000000 -1.000000
vn 0.000000 0.000000 -1.000000
vn 0.000000 0.000000 -1.000000
vn 0.000000 0.000000 -1.000000
vn 0.000000 0.000000 -1.000000
vn 0.000000 0.000000 -1.000000
vn 0.000000 0.000000 -1.000000
vn 0.000000 0.000000 -1.000000
vn 0.000000 0.000000 -1.000000
vn 0.000000 0.000000 -1.000000
vn 0.000000 0.000000 -1.000000
vn 0.000000 0.000000 1.000000
vn 0.000000 0.000000 1.000000
vn 0.000000 0.000000 1.000000
vn 0.000000 0.000000 1.000000
vn 0.000000 0.000000 1.000000
vn 0.000000 0.000000 1.000000
vn 0.000000 0.000000 1.000000
vn 0.000000 0.000000 1.000000
vn 0.000000 0.000000 1.000000
vn 0.000000 0.000000 1.000000
vn 0.000000 0.000000 1.000000
vn 0.000000 0.000000 1.000000
vn 0.000000 0.000000 1.000000
vn 0.000000 0.000000 1.000000
vn 0.000000 0.000000 1.000000
vn 0.000000 0.000000 1.000000
vn -1.000000 0.000000 0.000000
vn -1.000000 0.000000 0.000000
vn -1.000000 0.000000 0.000000
vn -1.000000 0.000000 0.000000
vn -1.000000 0.000000 0.000000
vn -1.000000 0.000000 0.000000
vn -1.000000 0.000000 0.000000
vn -1.000000 0.000000 0.000000
vn -1.000000 0.000000 0.000000
vn -1.000000 0.000000 0.000000
vn -1.000000 0.000000 0.000000
vn -1.000000 0.000000 0.000000
vn -1.000000 0.000000 0.000000
vn -1.000000 0.000000 0.000000
vn -1.000000 0.000000 0.000000
vn -1.000000 0.000000 0.000000
vn 1.000000 0.000000 0.000000
vn 1.000000 0.000000 0.000000
vn 1.000000 0.000000 0.000000
vn 1.000000 0.000000 0.000000
vn 1.000000 0.000000 0.000000
vn 1.000000 0.000000 0.000000
vn 1.000000 0.000000 0.000000
vn 1.000000 0.000000 0.000000
vn 1.000000 0.000000 0.000000
vn 1.000000 0.000000 0.000000
vn 1.000000 0.000000 0.000000
vn 1.000000 0.000000 0.000000
vn 1.000000 0.000000 0.000000
vn 1.000000 0.000000 0.000000
vn 1.000000 0.000000 0.000000
vn 1.000000 0.000000 0.000000
vn -0.707106 -0.707107 0.000000
vn -0.707106 -0.707107 0.000000
vn -0.707106 -0.707107 0.000000
vn -0.707106 -0.707107 0.000000
vn 0.000000 -0.707105 0.707109
vn 0.000000 -0.707105 0.707109
vn 0.000000 -0.707105 0.707109
vn 0.000000 -0.707105 0.707109
vn -0.707105 0.000000 0.707108
vn -0.707105 0.000000 0.707108
vn -0.707105 0.000000 0.707108
vn -0.707105 0.000000 0.707108
vn 0.707106 -0.707107 0.000000
vn 0.707106 -0.707107 0.000000
vn 0.707106 -0.707107 0.000000
vn 0.707106 -0.707107 0.000000
vn 0.707105 0.000000 0.707108
vn 0.707105 0.000000 0.707108
vn 0.707105 0.000000 0.707108
vn 0.707105 0.000000 0.707108
vn -0.707106 0.707107 0.000000
vn -0.707106 0.707107 0.000000
vn -0.707106 0.707107 0.000000
vn -0.707106 0.707107 0.000000
vn 0.000000 0.707105 0.707109
vn 0.000000 0.707105 0.707109
vn 0.000000 0.707105 0.707109
vn 0.000000 0.707105 0.707109
vn 0.707106 0.707107 0.000000
vn 0.707106 0.707107 0.000000
vn 0.707106 0.707107 0.000000
vn 0.707106 0.707107 0.000000
vn -0.707105 0.000000 -0.707108
vn -0.707105 0.000000 -0.707108
vn -0.707105 0.000000 -0.707108
vn -0.707105 0.000000 -0.707108
vn 0.000000 0.707105 -0.707109
vn 0.000000 0.707105 -0.707109
vn 0.000000 0.707105 -0.707109
vn 0.000000 0.707105 -0.707109
vn 0.707105 0.000000 -0.707108
vn 0.707105 0.000000 -0.707108
vn 0.707105 0.000000 -0.707108
vn 0.707105 0.000000 -0.707108
vn 0.000000 -0.707105 -0.707109
vn 0.000000 -0.707105 -0.707109
vn 0.000000 -0.707105 -0.707109
vn 0.000000 -0.707105 -0.707109
vn -0.577349 -0.577349 0.577353
vn -0.577349 -0.577349 0.577353
vn -0.577349 -0.577349 0.577353
vn 0.577349 -0.577349 0.577353
vn 0.577349 -0.577349 0.577353
vn 0.577349 -0.577349 0.577353
vn -0.577349 0.577349 0.577353
vn -0.577349 0.577349 0.577353
vn -0.577349 0.577349 0.577353
vn 0.577349 0.577349 0.577353
vn 0.577349 0.577349 0.577353
vn 0.577349 0.577349 0.577353
vn -0.577349 0.577349 -0.577353
vn -0.577349 0.577349 -0.577353
vn -0.577349 0.577349 -0.577353
vn 0.577349 0.577349 -0.577353
vn 0.577349 0.577349 -0.577353
vn 0.577349 0.577349 -0.577353
vn -0.577349 -0.577349 -0.577353
vn -0.577349 -0.577349 -0.577353
vn -0.577349 -0.577349 -0.577353
vn 0.577349 -0.577349 -0.577353
vn 0.577349 -0.577349 -0.577353
vn 0.577349 -0.577349 -0.577353
vn 0.000000 -1.000000 0.000000
vn 0.000000 -1.000000 0.000000
vn 0.000000 -1.000000 0.000000
vn 0.000000 -1.000000 0.000000
vn 0.000000 -1.000000 0.000000
vn 0.000000 -1.000000 0.000000
vn 0.000000 -1.000000 0.000000
vn 0.000000 -1.000000 0.000000
vn 0.000000 -1.000000 0.000000
vn 0.000000 -1.000000 0.000000
vn 0.000000 -1.000000 0.000000
vn 0.000000 -1.000000 0.000000
vn 0.000000 -1.000000 0.000000
vn 0.000000 -1.000000 0.000000
vn 0.000000 -1.000000 0.000000
vn 0.000000 -1.000000 0.000000
vn 0.000000 1.000000 0.000000
vn 0.000000 1.000000 0.000000
vn 0.000000 1.000000 0.000000
vn 0.000000 1.000000 0.000000
vn 0.000000 1.000000 0.000000
vn 0.000000 1.000000 0.000000
vn 0.000000 1.000000 0.000000
vn 0.000000 1.000000 0.000000
vn 0.000000 1.000000 0.000000
vn 0.000000 1.000000 0.000000
vn 0.000000 1.000000 0.000000
vn 0.000000 1.000000 0.000000
vn 0.000000 1.000000 0.000000
vn 0.000000 1.000000 0.000000
vn 0.000000 1.000000 0.000000
vn 0.000000 1.000000 0.000000
s 1
g OreSiliconIcon
f 12/12/1 1/1/2 2/2/3 11/11/4
f 11/11/4 2/2/3 3/3/5 10/10/6
f 10/10/6 3/3/5 4/4/7 9/9/8
f 8/8/9 9/9/8 4/4/7 5/5/10
f 7/7/11 8/8/9 5/5/10 6/6/12
s off
f 16/16/13 13/13/14 14/14/15 15/15/16
s 2
f 28/28/17 17/17/18 18/18/19 27/27/20
f 27/27/20 18/18/19 19/19/21 26/26/22
f 26/26/22 19/19/21 20/20/23 25/25/24
f 24/24/25 25/25/24 20/20/23 21/21/26
f 23/23/27 24/24/25 21/21/26 22/22/28
s off
f 32/32/29 29/29/30 30/30/31 31/31/32
s 3
f 44/44/33 33/33/34 34/34/35 43/43/36
f 43/43/36 34/34/35 35/35/37 42/42/38
f 42/42/38 35/35/37 36/36/39 41/41/40
f 40/40/41 41/41/40 36/36/39 37/37/42
f 39/39/43 40/40/41 37/37/42 38/38/44
s off
f 48/48/45 45/45/46 46/46/47 47/47/48
s 4
f 60/60/49 49/49/50 50/50/51 59/59/52
f 59/59/52 50/50/51 51/51/53 58/58/54
f 58/58/54 51/51/53 52/52/55 57/57/56
f 56/56/57 57/57/56 52/52/55 53/53/58
f 55/55/59 56/56/57 53/53/58 54/54/60
s off
f 64/64/61 61/61/62 62/62/63 63/63/64
f 85/68/65 65/65/66 67/66/67 83/67/68
f 69/71/69 66/69/70 65/65/71 70/70/72
f 71/73/73 67/66/74 66/69/75 72/72/76
f 88/76/77 68/74/78 70/70/79 86/75/80
f 75/80/81 69/77/82 68/78/83 76/79/84
f 77/83/85 71/73/86 73/81/87 78/82/88
f 74/86/89 73/84/90 72/85/91 75/80/92
f 81/88/93 74/86/94 76/79/95 82/87/96
f 83/67/97 77/83/98 79/89/99 84/90/100
f 80/94/101 79/91/102 78/92/103 81/93/104
f 87/97/105 80/95/106 82/87/107 88/96/108
f 86/75/109 85/68/110 84/90/111 87/98/112
f 65/65/113 66/69/114 67/66/115
f 68/74/116 69/71/117 70/70/118
f 71/73/119 72/72/120 73/81/121
f 74/86/122 75/80/123 76/79/124
f 77/83/125 78/82/126 79/89/127
f 80/95/128 81/88/129 82/87/130
f 83/67/131 84/90/132 85/68/133
f 86/75/134 87/98/135 88/76/136
s 5
f 100/110/137 89/99/138 90/100/139 99/109/140
f 99/109/140 90/100/139 91/101/141 98/108/142
f 98/108/142 91/101/141 92/102/143 97/107/144
f 96/106/145 97/107/144 92/102/143 93/103/146
f 95/105/147 96/106/145 93/103/146 94/104/148
s off
f 104/114/149 101/111/150 102/112/151 103/113/152
s 6
f 116/126/153 105/115/154 106/116/155 115/125/156
f 115/125/156 106/116/155 107/117/157 114/124/158
f 114/124/158 107/117/157 108/118/159 113/123/160
f 112/122/161 113/123/160 108/118/159 109/119/162
f 111/121/163 112/122/161 109/119/162 110/120/164
s off
f 120/130/165 117/127/166 118/128/167 119/129/168
