# This file uses centimeters as units for non-parametric coordinates.

g default
v -33.313862 -37.014992 33.313858
v -33.313862 -33.313862 37.014984
v -37.014992 -33.313862 33.313858
v 37.014992 -33.313862 33.313858
v 33.313862 -33.313862 37.014984
v 33.313862 -37.014992 33.313858
v -37.014992 33.313862 33.313858
v -33.313862 33.313862 37.014984
v -33.313862 37.014992 33.313858
v 33.313862 37.014992 33.313858
v 33.313862 33.313862 37.014984
v 37.014992 33.313862 33.313858
v -37.014992 33.313862 -33.313858
v -33.313862 37.014992 -33.313858
v -33.313862 33.313862 -37.014984
v 33.313862 33.313862 -37.014984
v 33.313862 37.014992 -33.313858
v 37.014992 33.313862 -33.313858
v -37.014992 -33.313862 -33.313858
v -33.313862 -33.313862 -37.014984
v -33.313862 -37.014992 -33.313858
v 33.313862 -37.014992 -33.313858
v 33.313862 -33.313862 -37.014984
v 37.014992 -33.313862 -33.313858
v 37.014992 -13.301623 -4.433874
v 37.014992 -13.301623 4.433872
v 37.014992 -22.169374 4.433872
v 37.014992 -22.169374 -4.433874
v 37.014992 22.169374 -22.169374
v 37.014992 22.169374 22.169374
v 37.014992 13.301630 22.169374
v 37.014992 13.301630 -13.301630
v 37.014992 4.433874 -13.301630
v 37.014992 4.433874 4.433872
v 37.014992 -4.433872 4.433872
v 37.014992 -4.433872 -22.169374
v 13.301623 37.014992 -4.433878
v 13.301623 37.014992 4.433868
v 22.169374 37.014992 4.433868
v 22.169374 37.014992 -4.433878
v -22.169374 37.014992 -22.169378
v -22.169374 37.014992 22.169371
v -13.301630 37.014992 22.169371
v -13.301630 37.014992 -13.301634
v -4.433874 37.014992 -13.301634
v -4.433874 37.014992 4.433868
v 4.433872 37.014992 4.433868
v 4.433872 37.014992 -22.169378
v -4.433874 -13.301623 -37.014996
v 4.433872 -13.301623 -37.014996
v 4.433872 -22.169374 -37.014996
v -4.433874 -22.169374 -37.014996
v -22.169374 22.169374 -37.014996
v 22.169374 22.169374 -37.014996
v 22.169374 13.301630 -37.014996
v -13.301630 13.301630 -37.014996
v -13.301630 4.433874 -37.014996
v 4.433872 4.433874 -37.014996
v 4.433872 -4.433872 -37.014996
v -22.169374 -4.433872 -37.014996
v 4.433874 -13.301623 37.014992
v -4.433872 -13.301623 37.014992
v -4.433872 -22.169374 37.014992
v 4.433874 -22.169374 37.014992
v 22.169374 22.169374 37.014992
v -22.169374 22.169374 37.014992
v -22.169374 13.301630 37.014992
v 13.301630 13.301630 37.014992
v 13.301630 4.433874 37.014992
v -4.433872 4.433874 37.014992
v -4.433872 -4.433872 37.014992
v 22.169374 -4.433872 37.014992
v -13.301623 -37.014992 -4.433874
v -13.301623 -37.014992 4.433872
v -22.169374 -37.014992 4.433872
v -22.169374 -37.014992 -4.433874
v 22.169374 -37.014992 -22.169374
v 22.169374 -37.014992 22.169374
v 13.301630 -37.014992 22.169374
v 13.301630 -37.014992 -13.301630
v 4.433874 -37.014992 -13.301630
v 4.433874 -37.014992 4.433872
v -4.433872 -37.014992 4.433872
v -4.433872 -37.014992 -22.169374
v -37.014992 -13.301623 4.433874
v -37.014992 -13.301623 -4.433872
v -37.014992 -22.169374 -4.433872
v -37.014992 -22.169374 4.433874
v -37.014992 22.169374 22.169374
v -37.014992 22.169374 -22.169374
v -37.014992 13.301630 -22.169374
v -37.014992 13.301630 13.301630
v -37.014992 4.433874 13.301630
v -37.014992 4.433874 -4.433872
v -37.014992 -4.433872 -4.433872
v -37.014992 -4.433872 22.169374
vt 0.162112 0.583969
vt 0.162112 0.587790
vt 0.093327 0.587790
vt 0.093327 0.583969
vt 0.165933 0.587790
vt 0.089506 0.587790
vt 0.162112 0.583969
vt 0.165933 0.587790
vt 0.165933 0.656576
vt 0.162112 0.656576
vt 0.093327 0.656576
vt 0.089506 0.656576
vt 0.089506 0.587790
vt 0.093327 0.583969
vt 0.162112 0.587790
vt 0.162112 0.660397
vt 0.093327 0.660397
vt 0.093327 0.587790
vt 0.091416 0.660397
vt 0.091416 0.656576
vt 0.160202 0.656576
vt 0.160202 0.660397
vt 0.164023 0.656576
vt 0.164023 0.656576
vt 0.160202 0.660397
vt 0.160202 0.587790
vt 0.164023 0.587790
vt 0.160202 0.583969
vt 0.091416 0.587790
vt 0.091416 0.583969
vt 0.131733 0.658094
vt 0.127912 0.658094
vt 0.127912 0.589309
vt 0.131733 0.589309
vt 0.913562 0.838790
vt 0.900243 0.838790
vt 0.900243 0.825471
vt 0.913562 0.825471
vt 0.899809 0.825471
vt 0.899809 0.892066
vt 0.886490 0.892066
vt 0.886490 0.838790
vt 0.873170 0.838790
vt 0.859851 0.825471
vt 0.873170 0.865428
vt 0.859851 0.865428
vt 0.913562 0.838790
vt 0.900243 0.838790
vt 0.900243 0.825471
vt 0.913562 0.825471
vt 0.899809 0.825471
vt 0.899809 0.892066
vt 0.886490 0.892066
vt 0.886490 0.838790
vt 0.873170 0.838790
vt 0.859851 0.825471
vt 0.873170 0.865428
vt 0.859851 0.865428
vt 0.913562 0.838790
vt 0.900243 0.838790
vt 0.900243 0.825471
vt 0.913562 0.825471
vt 0.899809 0.825471
vt 0.899809 0.892066
vt 0.886490 0.892066
vt 0.886490 0.838790
vt 0.873170 0.838790
vt 0.859851 0.825471
vt 0.873170 0.865428
vt 0.859851 0.865428
vt 0.913562 0.838790
vt 0.900243 0.838790
vt 0.900243 0.825471
vt 0.913562 0.825471
vt 0.899809 0.825471
vt 0.899809 0.892066
vt 0.886490 0.892066
vt 0.886490 0.838790
vt 0.873170 0.838790
vt 0.859851 0.825471
vt 0.873170 0.865428
vt 0.859851 0.865428
vt 0.913562 0.838790
vt 0.900243 0.838790
vt 0.900243 0.825471
vt 0.913562 0.825471
vt 0.899809 0.825471
vt 0.899809 0.892066
vt 0.886490 0.892066
vt 0.886490 0.838790
vt 0.873170 0.838790
vt 0.859851 0.825471
vt 0.873170 0.865428
vt 0.859851 0.865428
vt 0.913562 0.838790
vt 0.900243 0.838790
vt 0.900243 0.825471
vt 0.913562 0.825471
vt 0.899809 0.825471
vt 0.899809 0.892066
vt 0.886490 0.892066
vt 0.886490 0.838790
vt 0.873170 0.838790
vt 0.859851 0.825471
vt 0.873170 0.865428
vt 0.859851 0.865428
vn -0.707107 -0.707107 0.000000
vn -0.707107 -0.707107 0.000000
vn -0.707107 -0.707107 0.000000
vn -0.707107 -0.707107 0.000000
vn 0.000000 -0.707106 0.707107
vn 0.000000 -0.707106 0.707107
vn 0.000000 -0.707106 0.707107
vn 0.000000 -0.707106 0.707107
vn -0.707107 0.000000 0.707107
vn -0.707107 0.000000 0.707107
vn -0.707107 0.000000 0.707107
vn -0.707107 0.000000 0.707107
vn 0.707107 -0.707107 0.000000
vn 0.707107 -0.707107 0.000000
vn 0.707107 -0.707107 0.000000
vn 0.707107 -0.707107 0.000000
vn 0.707107 0.000000 0.707107
vn 0.707107 0.000000 0.707107
vn 0.707107 0.000000 0.707107
vn 0.707107 0.000000 0.707107
vn -0.707107 0.707107 0.000000
vn -0.707107 0.707107 0.000000
vn -0.707107 0.707107 0.000000
vn -0.707107 0.707107 0.000000
vn 0.000000 0.707106 0.707107
vn 0.000000 0.707106 0.707107
vn 0.000000 0.707106 0.707107
vn 0.000000 0.707106 0.707107
vn 0.707107 0.707107 0.000000
vn 0.707107 0.707107 0.000000
vn 0.707107 0.707107 0.000000
vn 0.707107 0.707107 0.000000
vn -0.707107 0.000000 -0.707107
vn -0.707107 0.000000 -0.707107
vn -0.707107 0.000000 -0.707107
vn -0.707107 0.000000 -0.707107
vn 0.000000 0.707106 -0.707107
vn 0.000000 0.707106 -0.707107
vn 0.000000 0.707106 -0.707107
vn 0.000000 0.707106 -0.707107
vn 0.707107 0.000000 -0.707107
vn 0.707107 0.000000 -0.707107
vn 0.707107 0.000000 -0.707107
vn 0.707107 0.000000 -0.707107
vn 0.000000 -0.707106 -0.707107
vn 0.000000 -0.707106 -0.707107
vn 0.000000 -0.707106 -0.707107
vn 0.000000 -0.707106 -0.707107
vn -0.577349 -0.577350 0.577351
vn -0.577349 -0.577350 0.577351
vn -0.577349 -0.577350 0.577351
vn 0.577349 -0.577350 0.577351
vn 0.577349 -0.577350 0.577351
vn 0.577349 -0.577350 0.577351
vn -0.577349 0.577350 0.577351
vn -0.577349 0.577350 0.577351
vn -0.577349 0.577350 0.577351
vn 0.577349 0.577350 0.577351
vn 0.577349 0.577350 0.577351
vn 0.577349 0.577350 0.577351
vn -0.577349 0.577350 -0.577351
vn -0.577349 0.577350 -0.577351
vn -0.577349 0.577350 -0.577351
vn 0.577349 0.577350 -0.577351
vn 0.577349 0.577350 -0.577351
vn 0.577349 0.577350 -0.577351
vn -0.577349 -0.577350 -0.577351
vn -0.577349 -0.577350 -0.577351
vn -0.577349 -0.577350 -0.577351
vn 0.577349 -0.577350 -0.577351
vn 0.577349 -0.577350 -0.577351
vn 0.577349 -0.577350 -0.577351
vn 1.000000 0.000000 0.000000
vn 1.000000 0.000000 0.000000
vn 1.000000 0.000000 0.000000
vn 1.000000 0.000000 0.000000
vn 1.000000 0.000000 0.000000
vn 1.000000 0.000000 0.000000
vn 1.000000 0.000000 0.000000
vn 1.000000 0.000000 0.000000
vn 1.000000 0.000000 0.000000
vn 1.000000 0.000000 0.000000
vn 1.000000 -0.000000 0.000000
vn 1.000000 -0.000000 0.000000
vn 1.000000 -0.000000 0.000000
vn 1.000000 -0.000000 0.000000
vn 1.000000 -0.000000 0.000000
vn 1.000000 -0.000000 0.000000
vn 0.000000 1.000000 0.000000
vn 0.000000 1.000000 0.000000
vn 0.000000 1.000000 0.000000
vn 0.000000 1.000000 0.000000
vn 0.000000 1.000000 0.000000
vn 0.000000 1.000000 0.000000
vn 0.000000 1.000000 0.000000
vn 0.000000 1.000000 0.000000
vn 0.000000 1.000000 0.000000
vn 0.000000 1.000000 0.000000
vn 0.000000 1.000000 0.000000
vn 0.000000 1.000000 0.000000
vn 0.000000 1.000000 0.000000
vn 0.000000 1.000000 0.000000
vn 0.000000 1.000000 0.000000
vn 0.000000 1.000000 0.000000
vn 0.000000 0.000000 -1.000000
vn 0.000000 0.000000 -1.000000
vn 0.000000 0.000000 -1.000000
vn 0.000000 0.000000 -1.000000
vn -0.000000 0.000000 -1.000000
vn 0.000000 0.000000 -1.000000
vn 0.000000 0.000000 -1.000000
vn -0.000000 0.000000 -1.000000
vn -0.000000 0.000000 -1.000000
vn -0.000000 0.000000 -1.000000
vn -0.000000 0.000000 -1.000000
vn -0.000000 0.000000 -1.000000
vn -0.000000 0.000000 -1.000000
vn -0.000000 0.000000 -1.000000
vn 0.000000 0.000000 -1.000000
vn 0.000000 0.000000 -1.000000
vn 0.000000 0.000000 1.000000
vn 0.000000 0.000000 1.000000
vn 0.000000 0.000000 1.000000
vn 0.000000 0.000000 1.000000
vn 0.000000 0.000000 1.000000
vn 0.000000 0.000000 1.000000
vn 0.000000 0.000000 1.000000
vn 0.000000 0.000000 1.000000
vn 0.000000 0.000000 1.000000
vn 0.000000 0.000000 1.000000
vn 0.000000 0.000000 1.000000
vn 0.000000 0.000000 1.000000
vn 0.000000 0.000000 1.000000
vn 0.000000 0.000000 1.000000
vn 0.000000 0.000000 1.000000
vn 0.000000 0.000000 1.000000
vn 0.000000 -1.000000 0.000000
vn 0.000000 -1.000000 0.000000
vn 0.000000 -1.000000 0.000000
vn 0.000000 -1.000000 0.000000
vn 0.000000 -1.000000 0.000000
vn 0.000000 -1.000000 0.000000
vn 0.000000 -1.000000 0.000000
vn 0.000000 -1.000000 0.000000
vn 0.000000 -1.000000 0.000000
vn 0.000000 -1.000000 0.000000
vn 0.000000 -1.000000 0.000000
vn 0.000000 -1.000000 0.000000
vn 0.000000 -1.000000 0.000000
vn 0.000000 -1.000000 0.000000
vn 0.000000 -1.000000 0.000000
vn 0.000000 -1.000000 0.000000
vn -1.000000 0.000000 0.000000
vn -1.000000 0.000000 0.000000
vn -1.000000 0.000000 0.000000
vn -1.000000 0.000000 0.000000
vn -1.000000 0.000000 0.000000
vn -1.000000 0.000000 0.000000
vn -1.000000 0.000000 0.000000
vn -1.000000 0.000000 0.000000
vn -1.000000 0.000000 0.000000
vn -1.000000 0.000000 0.000000
vn -1.000000 -0.000000 0.000000
vn -1.000000 -0.000000 0.000000
vn -1.000000 -0.000000 0.000000
vn -1.000000 -0.000000 0.000000
vn -1.000000 -0.000000 0.000000
vn -1.000000 -0.000000 0.000000
s off
g OreUnknownIcon
f 1/1/1 3/2/2 19/3/3 21/4/4
f 2/5/5 1/1/6 6/7/7 5/8/8
f 3/2/9 2/5/10 8/9/11 7/10/12
f 4/15/13 6/7/14 22/14/15 24/18/16
f 5/19/17 4/20/18 12/21/19 11/22/20
f 7/10/21 9/16/22 14/17/23 13/11/24
f 9/24/25 8/25/26 11/22/27 10/23/28
f 10/23/29 12/21/30 18/26/31 17/27/32
f 13/11/33 15/12/34 20/6/35 19/3/36
f 15/31/37 14/32/38 17/33/39 16/34/40
f 16/28/41 18/26/42 24/29/43 23/30/44
f 21/4/45 20/6/46 23/13/47 22/14/48
f 1/1/49 2/5/50 3/2/51
f 4/15/52 5/8/53 6/7/54
f 7/10/55 8/9/56 9/16/57
f 10/23/58 11/22/59 12/21/60
f 13/11/61 14/17/62 15/12/63
f 16/28/64 17/27/65 18/26/66
f 19/3/67 20/6/68 21/4/69
f 22/14/70 23/13/71 24/18/72
f 25/35/73 26/36/74 27/37/75 28/38/76
f 29/39/77 30/40/78 31/41/79 32/42/80
f 29/39/81 32/42/82 33/43/83 36/44/84
f 36/44/85 33/43/86 34/45/87 35/46/88
f 37/47/89 38/48/90 39/49/91 40/50/92
f 41/51/93 42/52/94 43/53/95 44/54/96
f 41/51/97 44/54/98 45/55/99 48/56/100
f 48/56/101 45/55/102 46/57/103 47/58/104
f 49/59/105 50/60/106 51/61/107 52/62/108
f 53/63/109 54/64/110 55/65/111 56/66/112
f 53/63/113 56/66/114 57/67/115 60/68/116
f 60/68/117 57/67/118 58/69/119 59/70/120
f 61/71/121 62/72/122 63/73/123 64/74/124
f 65/75/125 66/76/126 67/77/127 68/78/128
f 65/75/129 68/78/130 69/79/131 72/80/132
f 72/80/133 69/79/134 70/81/135 71/82/136
f 73/83/137 74/84/138 75/85/139 76/86/140
f 77/87/141 78/88/142 79/89/143 80/90/144
f 77/87/145 80/90/146 81/91/147 84/92/148
f 84/92/149 81/91/150 82/93/151 83/94/152
f 85/95/153 86/96/154 87/97/155 88/98/156
f 89/99/157 90/100/158 91/101/159 92/102/160
f 89/99/161 92/102/162 93/103/163 96/104/164
f 96/104/165 93/103/166 94/105/167 95/106/168
