# This file uses centimeters as units for non-parametric coordinates.

g default
v -33.313862 -37.014992 33.313862
v -33.313862 -33.313862 37.014992
v -37.014992 -33.313862 33.313862
v 37.014992 -33.313862 33.313862
v 33.313862 -33.313862 37.014992
v 33.313862 -37.014992 33.313862
v -37.014992 33.313862 33.313862
v -33.313862 33.313862 37.014992
v -33.313862 37.014992 33.313862
v 33.313862 37.014992 33.313862
v 33.313862 33.313862 37.014992
v 37.014992 33.313862 33.313862
v -37.014992 33.313862 -33.313862
v -33.313862 37.014992 -33.313862
v -33.313862 33.313862 -37.014992
v 33.313862 33.313862 -37.014992
v 33.313862 37.014992 -33.313862
v 37.014992 33.313862 -33.313862
v -37.014992 -33.313862 -33.313862
v -33.313862 -33.313862 -37.014992
v -33.313862 -37.014992 -33.313862
v 33.313862 -37.014992 -33.313862
v 33.313862 -33.313862 -37.014992
v 37.014992 -33.313862 -33.313862
v 37.014992 16.746786 10.046875
v 37.014992 16.746786 16.744690
v 37.014992 -16.742691 16.744690
v 37.014992 -16.742691 -16.744690
v 37.014992 16.746786 -16.744690
v 37.014992 16.746786 -10.046814
v 37.014992 -10.044794 -10.046814
v 37.014992 -10.044794 10.046875
v -37.014992 16.746786 -10.046875
v -37.014992 16.746786 -16.744690
v -37.014992 -16.742691 -16.744690
v -37.014992 -16.742691 16.744690
v -37.014992 16.746786 16.744690
v -37.014992 16.746786 10.046814
v -37.014992 -10.044794 10.046814
v -37.014992 -10.044794 -10.046875
v -10.046875 16.746786 37.014992
v -16.744690 16.746786 37.014992
v -16.744690 -16.742691 37.014992
v 16.744690 -16.742691 37.014992
v 16.744690 16.746786 37.014992
v 10.046814 16.746786 37.014992
v 10.046814 -10.044794 37.014992
v -10.046875 -10.044794 37.014992
v -16.746786 37.014992 10.046875
v -16.746786 37.014992 16.744690
v 16.742691 37.014992 16.744690
v 16.742691 37.014992 -16.744690
v -16.746786 37.014992 -16.744690
v -16.746786 37.014992 -10.046814
v 10.044794 37.014992 -10.046814
v 10.044794 37.014992 10.046875
v 10.046875 16.746786 -37.014992
v 16.744690 16.746786 -37.014992
v 16.744690 -16.742691 -37.014992
v -16.744690 -16.742691 -37.014992
v -16.744690 16.746786 -37.014992
v -10.046814 16.746786 -37.014992
v -10.046814 -10.044794 -37.014992
v 10.046875 -10.044794 -37.014992
v 16.746786 -37.014992 10.046875
v 16.746786 -37.014992 16.744690
v -16.742691 -37.014992 16.744690
v -16.742691 -37.014992 -16.744690
v 16.746786 -37.014992 -16.744690
v 16.746786 -37.014992 -10.046814
v -10.044794 -37.014992 -10.046814
v -10.044794 -37.014992 10.046875
vt 0.162112 0.583969
vt 0.162112 0.587790
vt 0.093327 0.587790
vt 0.093327 0.583969
vt 0.165933 0.587790
vt 0.089506 0.587790
vt 0.162112 0.583969
vt 0.165933 0.587790
vt 0.165933 0.656576
vt 0.162112 0.656576
vt 0.093327 0.656576
vt 0.089506 0.656576
vt 0.089506 0.587790
vt 0.093327 0.583969
vt 0.162112 0.587790
vt 0.162112 0.660397
vt 0.093327 0.660397
vt 0.093327 0.587790
vt 0.091416 0.660397
vt 0.091416 0.656576
vt 0.160202 0.656576
vt 0.160202 0.660397
vt 0.164023 0.656576
vt 0.164023 0.656576
vt 0.160202 0.660397
vt 0.160202 0.587790
vt 0.164023 0.587790
vt 0.160202 0.583969
vt 0.091416 0.587790
vt 0.091416 0.583969
vt 0.135483 0.649832
vt 0.131662 0.649832
vt 0.131662 0.581047
vt 0.135483 0.581047
vt 0.854397 0.850253
vt 0.854397 0.902039
vt 0.841451 0.902039
vt 0.841451 0.837306
vt 0.906184 0.837306
vt 0.893237 0.850253
vt 0.906184 0.902039
vt 0.893237 0.902039
vt 0.854397 0.850253
vt 0.854397 0.902039
vt 0.841451 0.902039
vt 0.841451 0.837306
vt 0.906184 0.837306
vt 0.893237 0.850253
vt 0.906184 0.902039
vt 0.893237 0.902039
vt 0.854397 0.850253
vt 0.854397 0.902039
vt 0.841451 0.902039
vt 0.841451 0.837306
vt 0.906184 0.837306
vt 0.893237 0.850253
vt 0.906184 0.902039
vt 0.893237 0.902039
vt 0.854397 0.850253
vt 0.854397 0.902039
vt 0.841451 0.902039
vt 0.841451 0.837306
vt 0.906184 0.837306
vt 0.893237 0.850253
vt 0.906184 0.902039
vt 0.893237 0.902039
vt 0.854397 0.850253
vt 0.854397 0.902039
vt 0.841451 0.902039
vt 0.841451 0.837306
vt 0.906184 0.837306
vt 0.893237 0.850253
vt 0.906184 0.902039
vt 0.893237 0.902039
vt 0.854397 0.850253
vt 0.854397 0.902039
vt 0.841451 0.902039
vt 0.841451 0.837306
vt 0.906184 0.837306
vt 0.893237 0.850253
vt 0.906184 0.902039
vt 0.893237 0.902039
vn -0.707107 -0.707107 0.000000
vn -0.707107 -0.707107 0.000000
vn -0.707107 -0.707107 0.000000
vn -0.707107 -0.707107 0.000000
vn 0.000000 -0.707107 0.707107
vn 0.000000 -0.707107 0.707107
vn 0.000000 -0.707107 0.707107
vn 0.000000 -0.707107 0.707107
vn -0.707107 0.000000 0.707107
vn -0.707107 0.000000 0.707107
vn -0.707107 0.000000 0.707107
vn -0.707107 0.000000 0.707107
vn 0.707107 -0.707107 0.000000
vn 0.707107 -0.707107 0.000000
vn 0.707107 -0.707107 0.000000
vn 0.707107 -0.707107 0.000000
vn 0.707107 0.000000 0.707107
vn 0.707107 0.000000 0.707107
vn 0.707107 0.000000 0.707107
vn 0.707107 0.000000 0.707107
vn -0.707107 0.707107 0.000000
vn -0.707107 0.707107 0.000000
vn -0.707107 0.707107 0.000000
vn -0.707107 0.707107 0.000000
vn 0.000000 0.707107 0.707107
vn 0.000000 0.707107 0.707107
vn 0.000000 0.707107 0.707107
vn 0.000000 0.707107 0.707107
vn 0.707107 0.707107 0.000000
vn 0.707107 0.707107 0.000000
vn 0.707107 0.707107 0.000000
vn 0.707107 0.707107 0.000000
vn -0.707107 0.000000 -0.707107
vn -0.707107 0.000000 -0.707107
vn -0.707107 0.000000 -0.707107
vn -0.707107 0.000000 -0.707107
vn 0.000000 0.707107 -0.707107
vn 0.000000 0.707107 -0.707107
vn 0.000000 0.707107 -0.707107
vn 0.000000 0.707107 -0.707107
vn 0.707107 0.000000 -0.707107
vn 0.707107 0.000000 -0.707107
vn 0.707107 0.000000 -0.707107
vn 0.707107 0.000000 -0.707107
vn 0.000000 -0.707107 -0.707107
vn 0.000000 -0.707107 -0.707107
vn 0.000000 -0.707107 -0.707107
vn 0.000000 -0.707107 -0.707107
vn -0.577350 -0.577350 0.577350
vn -0.577350 -0.577350 0.577350
vn -0.577350 -0.577350 0.577350
vn 0.577350 -0.577350 0.577350
vn 0.577350 -0.577350 0.577350
vn 0.577350 -0.577350 0.577350
vn -0.577350 0.577350 0.577350
vn -0.577350 0.577350 0.577350
vn -0.577350 0.577350 0.577350
vn 0.577350 0.577350 0.577350
vn 0.577350 0.577350 0.577350
vn 0.577350 0.577350 0.577350
vn -0.577350 0.577350 -0.577350
vn -0.577350 0.577350 -0.577350
vn -0.577350 0.577350 -0.577350
vn 0.577350 0.577350 -0.577350
vn 0.577350 0.577350 -0.577350
vn 0.577350 0.577350 -0.577350
vn -0.577350 -0.577350 -0.577350
vn -0.577350 -0.577350 -0.577350
vn -0.577350 -0.577350 -0.577350
vn 0.577350 -0.577350 -0.577350
vn 0.577350 -0.577350 -0.577350
vn 0.577350 -0.577350 -0.577350
vn 1.000000 0.000000 0.000000
vn 1.000000 0.000000 0.000000
vn 1.000000 0.000000 0.000000
vn 1.000000 0.000000 0.000000
vn 1.000000 0.000000 0.000000
vn 1.000000 0.000000 0.000000
vn 1.000000 0.000000 0.000000
vn 1.000000 0.000000 0.000000
vn 1.000000 0.000000 0.000000
vn 1.000000 0.000000 0.000000
vn 1.000000 0.000000 0.000000
vn 1.000000 0.000000 0.000000
vn -1.000000 0.000000 0.000000
vn -1.000000 0.000000 0.000000
vn -1.000000 0.000000 0.000000
vn -1.000000 0.000000 0.000000
vn -1.000000 0.000000 0.000000
vn -1.000000 0.000000 0.000000
vn -1.000000 0.000000 0.000000
vn -1.000000 0.000000 0.000000
vn -1.000000 0.000000 0.000000
vn -1.000000 0.000000 0.000000
vn -1.000000 0.000000 0.000000
vn -1.000000 0.000000 0.000000
vn 0.000000 0.000000 1.000000
vn 0.000000 0.000000 1.000000
vn 0.000000 0.000000 1.000000
vn 0.000000 0.000000 1.000000
vn 0.000000 0.000000 1.000000
vn 0.000000 0.000000 1.000000
vn -0.000000 0.000000 1.000000
vn -0.000000 0.000000 1.000000
vn -0.000000 0.000000 1.000000
vn -0.000000 0.000000 1.000000
vn -0.000000 0.000000 1.000000
vn -0.000000 0.000000 1.000000
vn 0.000000 1.000000 -0.000000
vn 0.000000 1.000000 -0.000000
vn 0.000000 1.000000 -0.000000
vn 0.000000 1.000000 -0.000000
vn 0.000000 1.000000 -0.000000
vn 0.000000 1.000000 -0.000000
vn 0.000000 1.000000 0.000000
vn 0.000000 1.000000 0.000000
vn 0.000000 1.000000 0.000000
vn 0.000000 1.000000 0.000000
vn 0.000000 1.000000 0.000000
vn 0.000000 1.000000 0.000000
vn -0.000000 0.000000 -1.000000
vn -0.000000 0.000000 -1.000000
vn -0.000000 0.000000 -1.000000
vn -0.000000 0.000000 -1.000000
vn -0.000000 0.000000 -1.000000
vn -0.000000 0.000000 -1.000000
vn 0.000000 0.000000 -1.000000
vn 0.000000 0.000000 -1.000000
vn 0.000000 0.000000 -1.000000
vn 0.000000 0.000000 -1.000000
vn 0.000000 0.000000 -1.000000
vn 0.000000 0.000000 -1.000000
vn 0.000000 -1.000000 -0.000000
vn 0.000000 -1.000000 -0.000000
vn 0.000000 -1.000000 -0.000000
vn 0.000000 -1.000000 -0.000000
vn 0.000000 -1.000000 -0.000000
vn 0.000000 -1.000000 -0.000000
vn 0.000000 -1.000000 0.000000
vn 0.000000 -1.000000 0.000000
vn 0.000000 -1.000000 0.000000
vn 0.000000 -1.000000 0.000000
vn 0.000000 -1.000000 0.000000
vn 0.000000 -1.000000 0.000000
s off
g OreUraniumIcon
f 1/1/1 3/2/2 19/3/3 21/4/4
f 2/5/5 1/1/6 6/7/7 5/8/8
f 3/2/9 2/5/10 8/9/11 7/10/12
f 4/15/13 6/7/14 22/14/15 24/18/16
f 5/19/17 4/20/18 12/21/19 11/22/20
f 7/10/21 9/16/22 14/17/23 13/11/24
f 9/24/25 8/25/26 11/22/27 10/23/28
f 10/23/29 12/21/30 18/26/31 17/27/32
f 13/11/33 15/12/34 20/6/35 19/3/36
f 15/31/37 14/32/38 17/33/39 16/34/40
f 16/28/41 18/26/42 24/29/43 23/30/44
f 21/4/45 20/6/46 23/13/47 22/14/48
f 1/1/49 2/5/50 3/2/51
f 4/15/52 5/8/53 6/7/54
f 7/10/55 8/9/56 9/16/57
f 10/23/58 11/22/59 12/21/60
f 13/11/61 14/17/62 15/12/63
f 16/28/64 17/27/65 18/26/66
f 19/3/67 20/6/68 21/4/69
f 22/14/70 23/13/71 24/18/72
f 32/35/73 25/36/74 26/37/75 27/38/76
f 32/35/77 27/38/78 28/39/79 31/40/80
f 31/40/81 28/39/82 29/41/83 30/42/84
f 40/43/85 33/44/86 34/45/87 35/46/88
f 40/43/89 35/46/90 36/47/91 39/48/92
f 39/48/93 36/47/94 37/49/95 38/50/96
f 48/51/97 41/52/98 42/53/99 43/54/100
f 48/51/101 43/54/102 44/55/103 47/56/104
f 47/56/105 44/55/106 45/57/107 46/58/108
f 56/59/109 49/60/110 50/61/111 51/62/112
f 56/59/113 51/62/114 52/63/115 55/64/116
f 55/64/117 52/63/118 53/65/119 54/66/120
f 64/67/121 57/68/122 58/69/123 59/70/124
f 64/67/125 59/70/126 60/71/127 63/72/128
f 63/72/129 60/71/130 61/73/131 62/74/132
f 72/75/133 65/76/134 66/77/135 67/78/136
f 72/75/137 67/78/138 68/79/139 71/80/140
f 71/80/141 68/79/142 69/81/143 70/82/144
