# This file uses centimeters as units for non-parametric coordinates.

g default
v -33.313862 -37.014992 33.313858
v -33.313862 -33.313862 37.014984
v -37.014992 -33.313862 33.313858
v 37.014992 -33.313862 33.313858
v 33.313862 -33.313862 37.014984
v 33.313862 -37.014992 33.313858
v -37.014992 33.313862 33.313858
v -33.313862 33.313862 37.014984
v -33.313862 37.014992 33.313858
v 33.313862 37.014992 33.313858
v 33.313862 33.313862 37.014984
v 37.014992 33.313862 33.313858
v -37.014992 33.313862 -33.313858
v -33.313862 37.014992 -33.313858
v -33.313862 33.313862 -37.014984
v 33.313862 33.313862 -37.014984
v 33.313862 37.014992 -33.313858
v 37.014992 33.313862 -33.313858
v -37.014992 -33.313862 -33.313858
v -33.313862 -33.313862 -37.014984
v -33.313862 -37.014992 -33.313858
v 33.313862 -37.014992 -33.313858
v 33.313862 -33.313862 -37.014984
v 37.014992 -33.313862 -33.313858
v 12.723389 20.335327 37.014984
v -1.364250 6.184014 37.014984
v -13.865074 18.684837 37.014984
v -19.005630 13.481901 37.014984
v -6.504158 0.980429 37.014984
v -19.766548 -12.154598 37.014984
v -14.119148 -17.866327 37.014984
v -0.856750 -5.428534 37.014984
v 14.182831 -20.403790 37.014984
v 19.766548 -14.693362 37.014984
v 4.283142 0.472935 37.014984
v 18.370773 14.623598 37.014984
v -37.014992 20.335327 12.723389
v -37.014992 6.184014 -1.364258
v -37.014992 18.684837 -13.865082
v -37.014992 13.481901 -19.005630
v -37.014992 0.980429 -6.504150
v -37.014992 -12.154598 -19.766541
v -37.014992 -17.866327 -14.119141
v -37.014992 -5.428534 -0.856750
v -37.014992 -20.403790 14.182831
v -37.014992 -14.693362 19.766541
v -37.014992 0.472935 4.283142
v -37.014992 14.623598 18.370773
v 20.335327 -37.014992 -12.723389
v 6.184014 -37.014992 1.364258
v 18.684837 -37.014992 13.865082
v 13.481901 -37.014992 19.005630
v 0.980429 -37.014992 6.504150
v -12.154598 -37.014992 19.766541
v -17.866327 -37.014992 14.119141
v -5.428534 -37.014992 0.856750
v -20.403790 -37.014992 -14.182831
v -14.693362 -37.014992 -19.766541
v 0.472935 -37.014992 -4.283142
v 14.623598 -37.014992 -18.370773
v -20.335327 37.014992 -12.723389
v -6.184014 37.014992 1.364258
v -18.684837 37.014992 13.865082
v -13.481901 37.014992 19.005630
v -0.980429 37.014992 6.504150
v 12.154598 37.014992 19.766541
v 17.866327 37.014992 14.119141
v 5.428534 37.014992 0.856750
v 20.403790 37.014992 -14.182831
v 14.693362 37.014992 -19.766541
v -0.472935 37.014992 -4.283142
v -14.623598 37.014992 -18.370773
v -12.723389 20.335327 -37.014984
v 1.364250 6.184014 -37.014984
v 13.865074 18.684837 -37.014984
v 19.005630 13.481901 -37.014984
v 6.504158 0.980429 -37.014984
v 19.766548 -12.154598 -37.014984
v 14.119148 -17.866327 -37.014984
v 0.856750 -5.428534 -37.014984
v -14.182831 -20.403790 -37.014984
v -19.766548 -14.693362 -37.014984
v -4.283142 0.472935 -37.014984
v -18.370773 14.623598 -37.014984
v 37.014992 20.335327 -12.723389
v 37.014992 6.184014 1.364258
v 37.014992 18.684837 13.865082
v 37.014992 13.481901 19.005630
v 37.014992 0.980429 6.504150
v 37.014992 -12.154598 19.766541
v 37.014992 -17.866327 14.119141
v 37.014992 -5.428534 0.856750
v 37.014992 -20.403790 -14.182831
v 37.014992 -14.693362 -19.766541
v 37.014992 0.472935 -4.283142
v 37.014992 14.623598 -18.370773
vt 0.162112 0.583969
vt 0.162112 0.587790
vt 0.093327 0.587790
vt 0.093327 0.583969
vt 0.165933 0.587790
vt 0.089506 0.587790
vt 0.162112 0.583969
vt 0.165933 0.587790
vt 0.165933 0.656576
vt 0.162112 0.656576
vt 0.093327 0.656576
vt 0.089506 0.656576
vt 0.089506 0.587790
vt 0.093327 0.583969
vt 0.162112 0.587790
vt 0.162112 0.660397
vt 0.093327 0.660397
vt 0.093327 0.587790
vt 0.091416 0.660397
vt 0.091416 0.656576
vt 0.160202 0.656576
vt 0.160202 0.660397
vt 0.164023 0.656576
vt 0.164023 0.656576
vt 0.160202 0.660397
vt 0.160202 0.587790
vt 0.164023 0.587790
vt 0.160202 0.583969
vt 0.091416 0.587790
vt 0.091416 0.583969
vt 0.131733 0.658094
vt 0.127912 0.658094
vt 0.127912 0.589309
vt 0.131733 0.589309
vt 0.926227 0.903378
vt 0.914828 0.914906
vt 0.886395 0.886344
vt 0.897794 0.874817
vt 0.861165 0.911574
vt 0.850790 0.901073
vt 0.876021 0.875842
vt 0.887420 0.862906
vt 0.917774 0.832682
vt 0.929044 0.844207
vt 0.849254 0.849331
vt 0.860652 0.837803
vt 0.926227 0.903378
vt 0.914828 0.914906
vt 0.886395 0.886344
vt 0.897794 0.874817
vt 0.861165 0.911574
vt 0.850790 0.901073
vt 0.876021 0.875842
vt 0.887420 0.862906
vt 0.917774 0.832682
vt 0.929044 0.844207
vt 0.849254 0.849331
vt 0.860652 0.837803
vt 0.926227 0.903378
vt 0.914828 0.914906
vt 0.886395 0.886344
vt 0.897794 0.874817
vt 0.861165 0.911574
vt 0.850790 0.901073
vt 0.876021 0.875842
vt 0.887420 0.862906
vt 0.917774 0.832682
vt 0.929044 0.844207
vt 0.849254 0.849331
vt 0.860652 0.837803
vt 0.926227 0.903378
vt 0.914828 0.914906
vt 0.886395 0.886344
vt 0.897794 0.874817
vt 0.861165 0.911574
vt 0.850790 0.901073
vt 0.876021 0.875842
vt 0.887420 0.862906
vt 0.917774 0.832682
vt 0.929044 0.844207
vt 0.849254 0.849331
vt 0.860652 0.837803
vt 0.926227 0.903378
vt 0.914828 0.914906
vt 0.886395 0.886344
vt 0.897794 0.874817
vt 0.861165 0.911574
vt 0.850790 0.901073
vt 0.876021 0.875842
vt 0.887420 0.862906
vt 0.917774 0.832682
vt 0.929044 0.844207
vt 0.849254 0.849331
vt 0.860652 0.837803
vt 0.926227 0.903378
vt 0.914828 0.914906
vt 0.886395 0.886344
vt 0.897794 0.874817
vt 0.861165 0.911574
vt 0.850790 0.901073
vt 0.876021 0.875842
vt 0.887420 0.862906
vt 0.917774 0.832682
vt 0.929044 0.844207
vt 0.849254 0.849331
vt 0.860652 0.837803
vn -0.707107 -0.707107 0.000000
vn -0.707107 -0.707107 0.000000
vn -0.707107 -0.707107 0.000000
vn -0.707107 -0.707107 0.000000
vn 0.000000 -0.707106 0.707107
vn 0.000000 -0.707106 0.707107
vn 0.000000 -0.707106 0.707107
vn 0.000000 -0.707106 0.707107
vn -0.707107 0.000000 0.707107
vn -0.707107 0.000000 0.707107
vn -0.707107 0.000000 0.707107
vn -0.707107 0.000000 0.707107
vn 0.707107 -0.707107 0.000000
vn 0.707107 -0.707107 0.000000
vn 0.707107 -0.707107 0.000000
vn 0.707107 -0.707107 0.000000
vn 0.707107 0.000000 0.707107
vn 0.707107 0.000000 0.707107
vn 0.707107 0.000000 0.707107
vn 0.707107 0.000000 0.707107
vn -0.707107 0.707107 0.000000
vn -0.707107 0.707107 0.000000
vn -0.707107 0.707107 0.000000
vn -0.707107 0.707107 0.000000
vn 0.000000 0.707106 0.707107
vn 0.000000 0.707106 0.707107
vn 0.000000 0.707106 0.707107
vn 0.000000 0.707106 0.707107
vn 0.707107 0.707107 0.000000
vn 0.707107 0.707107 0.000000
vn 0.707107 0.707107 0.000000
vn 0.707107 0.707107 0.000000
vn -0.707107 0.000000 -0.707107
vn -0.707107 0.000000 -0.707107
vn -0.707107 0.000000 -0.707107
vn -0.707107 0.000000 -0.707107
vn 0.000000 0.707106 -0.707107
vn 0.000000 0.707106 -0.707107
vn 0.000000 0.707106 -0.707107
vn 0.000000 0.707106 -0.707107
vn 0.707107 0.000000 -0.707107
vn 0.707107 0.000000 -0.707107
vn 0.707107 0.000000 -0.707107
vn 0.707107 0.000000 -0.707107
vn 0.000000 -0.707106 -0.707107
vn 0.000000 -0.707106 -0.707107
vn 0.000000 -0.707106 -0.707107
vn 0.000000 -0.707106 -0.707107
vn -0.577349 -0.577350 0.577351
vn -0.577349 -0.577350 0.577351
vn -0.577349 -0.577350 0.577351
vn 0.577349 -0.577350 0.577351
vn 0.577349 -0.577350 0.577351
vn 0.577349 -0.577350 0.577351
vn -0.577349 0.577350 0.577351
vn -0.577349 0.577350 0.577351
vn -0.577349 0.577350 0.577351
vn 0.577349 0.577350 0.577351
vn 0.577349 0.577350 0.577351
vn 0.577349 0.577350 0.577351
vn -0.577349 0.577350 -0.577351
vn -0.577349 0.577350 -0.577351
vn -0.577349 0.577350 -0.577351
vn 0.577349 0.577350 -0.577351
vn 0.577349 0.577350 -0.577351
vn 0.577349 0.577350 -0.577351
vn -0.577349 -0.577350 -0.577351
vn -0.577349 -0.577350 -0.577351
vn -0.577349 -0.577350 -0.577351
vn 0.577349 -0.577350 -0.577351
vn 0.577349 -0.577350 -0.577351
vn 0.577349 -0.577350 -0.577351
vn 0.000000 0.000000 1.000000
vn 0.000000 0.000000 1.000000
vn -0.000000 0.000000 1.000000
vn 0.000000 0.000000 1.000000
vn -0.000000 0.000000 1.000000
vn -0.000000 0.000000 1.000000
vn -0.000000 0.000000 1.000000
vn -0.000000 0.000000 1.000000
vn 0.000000 0.000000 1.000000
vn -0.000000 0.000000 1.000000
vn -0.000000 0.000000 1.000000
vn 0.000000 0.000000 1.000000
vn 0.000000 0.000000 1.000000
vn 0.000000 0.000000 1.000000
vn 0.000000 0.000000 1.000000
vn 0.000000 0.000000 1.000000
vn 0.000000 0.000000 1.000000
vn -0.000000 0.000000 1.000000
vn 0.000000 0.000000 1.000000
vn 0.000000 0.000000 1.000000
vn -1.000000 0.000000 0.000000
vn -1.000000 0.000000 0.000000
vn -1.000000 0.000000 0.000000
vn -1.000000 0.000000 0.000000
vn -1.000000 0.000000 0.000000
vn -1.000000 0.000000 0.000000
vn -1.000000 0.000000 0.000000
vn -1.000000 -0.000000 0.000000
vn -1.000000 0.000000 0.000000
vn -1.000000 0.000000 0.000000
vn -1.000000 -0.000000 0.000000
vn -1.000000 -0.000000 0.000000
vn -1.000000 -0.000000 0.000000
vn -1.000000 0.000000 0.000000
vn -1.000000 0.000000 0.000000
vn -1.000000 0.000000 0.000000
vn -1.000000 -0.000000 0.000000
vn -1.000000 -0.000000 0.000000
vn -1.000000 -0.000000 0.000000
vn -1.000000 -0.000000 0.000000
vn 0.000000 -1.000000 0.000000
vn 0.000000 -1.000000 0.000000
vn 0.000000 -1.000000 0.000000
vn 0.000000 -1.000000 0.000000
vn 0.000000 -1.000000 0.000000
vn 0.000000 -1.000000 0.000000
vn 0.000000 -1.000000 0.000000
vn 0.000000 -1.000000 0.000000
vn 0.000000 -1.000000 0.000000
vn 0.000000 -1.000000 0.000000
vn 0.000000 -1.000000 0.000000
vn 0.000000 -1.000000 -0.000000
vn 0.000000 -1.000000 -0.000000
vn 0.000000 -1.000000 0.000000
vn 0.000000 -1.000000 0.000000
vn 0.000000 -1.000000 0.000000
vn 0.000000 -1.000000 -0.000000
vn 0.000000 -1.000000 0.000000
vn 0.000000 -1.000000 -0.000000
vn 0.000000 -1.000000 -0.000000
vn 0.000000 1.000000 0.000000
vn 0.000000 1.000000 0.000000
vn 0.000000 1.000000 0.000000
vn 0.000000 1.000000 0.000000
vn 0.000000 1.000000 0.000000
vn 0.000000 1.000000 0.000000
vn 0.000000 1.000000 0.000000
vn 0.000000 1.000000 0.000000
vn 0.000000 1.000000 0.000000
vn 0.000000 1.000000 0.000000
vn 0.000000 1.000000 0.000000
vn 0.000000 1.000000 -0.000000
vn 0.000000 1.000000 -0.000000
vn 0.000000 1.000000 0.000000
vn 0.000000 1.000000 0.000000
vn 0.000000 1.000000 0.000000
vn 0.000000 1.000000 -0.000000
vn 0.000000 1.000000 0.000000
vn 0.000000 1.000000 -0.000000
vn 0.000000 1.000000 -0.000000
vn 0.000000 0.000000 -1.000000
vn 0.000000 0.000000 -1.000000
vn 0.000000 0.000000 -1.000000
vn 0.000000 0.000000 -1.000000
vn 0.000000 0.000000 -1.000000
vn 0.000000 0.000000 -1.000000
vn 0.000000 0.000000 -1.000000
vn 0.000000 0.000000 -1.000000
vn 0.000000 0.000000 -1.000000
vn 0.000000 0.000000 -1.000000
vn 0.000000 0.000000 -1.000000
vn 0.000000 0.000000 -1.000000
vn 0.000000 0.000000 -1.000000
vn 0.000000 0.000000 -1.000000
vn 0.000000 0.000000 -1.000000
vn 0.000000 0.000000 -1.000000
vn 0.000000 0.000000 -1.000000
vn 0.000000 0.000000 -1.000000
vn 0.000000 0.000000 -1.000000
vn 0.000000 0.000000 -1.000000
vn 1.000000 0.000000 0.000000
vn 1.000000 0.000000 0.000000
vn 1.000000 0.000000 0.000000
vn 1.000000 0.000000 0.000000
vn 1.000000 0.000000 0.000000
vn 1.000000 0.000000 0.000000
vn 1.000000 0.000000 0.000000
vn 1.000000 -0.000000 0.000000
vn 1.000000 0.000000 0.000000
vn 1.000000 0.000000 0.000000
vn 1.000000 -0.000000 0.000000
vn 1.000000 -0.000000 0.000000
vn 1.000000 -0.000000 0.000000
vn 1.000000 0.000000 0.000000
vn 1.000000 0.000000 0.000000
vn 1.000000 0.000000 0.000000
vn 1.000000 -0.000000 0.000000
vn 1.000000 -0.000000 0.000000
vn 1.000000 -0.000000 0.000000
vn 1.000000 -0.000000 0.000000
s off
g OreVolatilesIcon
f 1/1/1 3/2/2 19/3/3 21/4/4
f 2/5/5 1/1/6 6/7/7 5/8/8
f 3/2/9 2/5/10 8/9/11 7/10/12
f 4/15/13 6/7/14 22/14/15 24/18/16
f 5/19/17 4/20/18 12/21/19 11/22/20
f 7/10/21 9/16/22 14/17/23 13/11/24
f 9/24/25 8/25/26 11/22/27 10/23/28
f 10/23/29 12/21/30 18/26/31 17/27/32
f 13/11/33 15/12/34 20/6/35 19/3/36
f 15/31/37 14/32/38 17/33/39 16/34/40
f 16/28/41 18/26/42 24/29/43 23/30/44
f 21/4/45 20/6/46 23/13/47 22/14/48
f 1/1/49 2/5/50 3/2/51
f 4/15/52 5/8/53 6/7/54
f 7/10/55 8/9/56 9/16/57
f 10/23/58 11/22/59 12/21/60
f 13/11/61 14/17/62 15/12/63
f 16/28/64 17/27/65 18/26/66
f 19/3/67 20/6/68 21/4/69
f 22/14/70 23/13/71 24/18/72
f 36/35/73 25/36/74 26/37/75 35/38/76
f 26/37/77 27/39/78 28/40/79 29/41/80
f 35/38/81 26/37/82 29/41/83 32/42/84
f 32/42/85 33/43/86 34/44/87 35/38/88
f 32/42/89 29/41/90 30/45/91 31/46/92
f 48/47/93 37/48/94 38/49/95 47/50/96
f 38/49/97 39/51/98 40/52/99 41/53/100
f 47/50/101 38/49/102 41/53/103 44/54/104
f 44/54/105 45/55/106 46/56/107 47/50/108
f 44/54/109 41/53/110 42/57/111 43/58/112
f 60/59/113 49/60/114 50/61/115 59/62/116
f 50/61/117 51/63/118 52/64/119 53/65/120
f 59/62/121 50/61/122 53/65/123 56/66/124
f 56/66/125 57/67/126 58/68/127 59/62/128
f 56/66/129 53/65/130 54/69/131 55/70/132
f 72/71/133 61/72/134 62/73/135 71/74/136
f 62/73/137 63/75/138 64/76/139 65/77/140
f 71/74/141 62/73/142 65/77/143 68/78/144
f 68/78/145 69/79/146 70/80/147 71/74/148
f 68/78/149 65/77/150 66/81/151 67/82/152
f 84/83/153 73/84/154 74/85/155 83/86/156
f 74/85/157 75/87/158 76/88/159 77/89/160
f 83/86/161 74/85/162 77/89/163 80/90/164
f 80/90/165 81/91/166 82/92/167 83/86/168
f 80/90/169 77/89/170 78/93/171 79/94/172
f 96/95/173 85/96/174 86/97/175 95/98/176
f 86/97/177 87/99/178 88/100/179 89/101/180
f 95/98/181 86/97/182 89/101/183 92/102/184
f 92/102/185 93/103/186 94/104/187 95/98/188
f 92/102/189 89/101/190 90/105/191 91/106/192
