# Blender v3.3.0 OBJ File: ''
# www.blender.org
o ItemMushroom.005
v 0.012391 0.094691 -0.030561
v -0.001849 0.082777 -0.031713
v 0.006751 0.090415 0.007185
v -0.017963 0.090956 -0.024026
v -0.028424 0.089341 -0.012273
v -0.031638 0.078210 0.001482
v -0.031942 0.087947 0.018299
v -0.023920 0.085754 0.031902
v -0.009953 0.079144 0.040678
v 0.005178 0.083427 0.044518
v 0.021062 0.083747 0.041084
v 0.033999 0.085018 0.031669
v 0.042976 0.080203 0.017263
v 0.044505 0.082531 0.001713
v 0.038301 0.091626 -0.012451
v 0.026542 0.098416 -0.023642
v 0.014005 0.047221 0.002271
v 0.004242 0.053922 -0.040136
v 0.022245 0.056916 -0.039879
v -0.012170 0.050352 -0.032993
v -0.024155 0.046826 -0.019687
v -0.029640 0.043951 -0.002517
v -0.027676 0.042226 0.015547
v -0.018603 0.041949 0.031382
v -0.003990 0.043167 0.042249
v 0.013637 0.045670 0.046271
v 0.031229 0.049025 0.042751
v 0.045745 0.052652 0.032298
v 0.054675 0.055924 0.016719
v 0.056475 0.058275 -0.001291
v 0.050833 0.059299 -0.018619
v 0.038725 0.058818 -0.032269
v 0.022599 0.078107 -0.054619
v -0.002475 0.073932 -0.054849
v -0.004737 0.079479 -0.061908
v 0.021513 0.094297 -0.059936
v -0.025280 0.068968 -0.044824
v -0.033061 0.089213 -0.049124
v -0.041915 0.064068 -0.026277
v -0.052397 0.086184 -0.027856
v -0.049534 0.060072 -0.002391
v -0.059282 0.070942 -0.001879
v -0.046832 0.057665 0.022740
v -0.058467 0.081806 0.028235
v -0.034270 0.057259 0.044806
v -0.043586 0.077993 0.052704
v -0.013989 0.058926 0.060021
v -0.018821 0.069067 0.068193
v 0.010581 0.062214 0.065695
v 0.008382 0.074226 0.074011
v 0.035246 0.065752 0.060468
v 0.036076 0.074845 0.067304
v 0.055463 0.069953 0.045681
v 0.058385 0.077017 0.050322
v 0.069255 0.065604 0.023004
v 0.073252 0.071894 0.025354
v 0.071764 0.069001 -0.001949
v 0.076028 0.075997 -0.001803
v 0.062543 0.079573 -0.025025
v 0.066182 0.088683 -0.027107
v 0.044638 0.086075 -0.043349
v 0.046485 0.098293 -0.047426
v 0.017191 0.103793 -0.051557
v -0.005824 0.088841 -0.053075
v -0.030890 0.098711 -0.041358
v -0.047689 0.096051 -0.022603
v -0.053423 0.081323 -0.000081
v -0.053144 0.092718 0.026464
v -0.040288 0.089337 0.048094
v -0.018475 0.080683 0.062029
v 0.005535 0.085951 0.067758
v 0.030445 0.086549 0.062260
v 0.050830 0.088609 0.047311
v 0.064678 0.083265 0.024641
v 0.067129 0.086970 -0.000128
v 0.057744 0.099105 -0.022873
v 0.039579 0.108170 -0.040755
v 0.020974 0.029186 0.002917
v 0.016469 0.030513 -0.015400
v 0.019051 0.057732 -0.008993
v 0.023088 0.056543 0.007418
v -0.000490 0.028590 -0.023539
v 0.003856 0.056010 -0.016286
v -0.017133 0.024866 -0.015372
v -0.011056 0.052673 -0.008968
v -0.020927 0.022144 0.002952
v -0.014455 0.050234 0.007450
v -0.009015 0.022474 0.017634
v -0.003782 0.050530 0.020605
v 0.009633 0.025608 0.017619
v 0.012926 0.053338 0.020591
v 0.032304 -0.017304 0.007467
v 0.026459 -0.015582 -0.016299
v 0.017589 -0.021945 0.026542
v -0.006607 -0.026012 0.026562
v -0.022062 -0.026440 0.007512
v -0.017140 -0.022909 -0.016263
v 0.004454 -0.018076 -0.026860
v 0.006986 -0.033006 -0.000108
vt 0.219100 0.842900
vt 0.205600 0.840100
vt 0.220000 0.810500
vt 0.194000 0.831200
vt 0.188000 0.820700
vt 0.186900 0.807400
vt 0.191300 0.793700
vt 0.199900 0.784600
vt 0.212700 0.779300
vt 0.225400 0.779500
vt 0.237200 0.785000
vt 0.245900 0.794600
vt 0.250800 0.807500
vt 0.249600 0.819900
vt 0.242300 0.831800
vt 0.231400 0.840100
vt 0.736600 0.713700
vt 0.770400 0.712800
vt 0.767700 0.726400
vt 0.767200 0.699400
vt 0.759000 0.688400
vt 0.747200 0.681800
vt 0.733900 0.680200
vt 0.720800 0.684000
vt 0.710100 0.692700
vt 0.704000 0.705200
vt 0.703400 0.719300
vt 0.708600 0.732500
vt 0.719200 0.742500
vt 0.733000 0.747200
vt 0.747500 0.745400
vt 0.759600 0.738000
vt 0.785800 0.733700
vt 0.790400 0.712000
vt 0.797900 0.711900
vt 0.797900 0.739800
vt 0.784700 0.690900
vt 0.799700 0.681600
vt 0.771700 0.673800
vt 0.784600 0.660000
vt 0.753300 0.662900
vt 0.756800 0.651600
vt 0.732200 0.660900
vt 0.729100 0.640100
vt 0.712100 0.666900
vt 0.704500 0.649600
vt 0.695400 0.680000
vt 0.687000 0.672400
vt 0.685200 0.699200
vt 0.674300 0.695500
vt 0.684300 0.721100
vt 0.675200 0.721600
vt 0.692000 0.741700
vt 0.685600 0.745000
vt 0.711300 0.755000
vt 0.707800 0.760200
vt 0.732000 0.761800
vt 0.731800 0.768300
vt 0.755300 0.762800
vt 0.759000 0.769900
vt 0.776300 0.753700
vt 0.784000 0.760700
vt 0.220500 0.861100
vt 0.198900 0.857400
vt 0.181000 0.843200
vt 0.171600 0.826600
vt 0.168800 0.805100
vt 0.176800 0.784000
vt 0.189800 0.769600
vt 0.209600 0.760600
vt 0.230000 0.761500
vt 0.248400 0.770100
vt 0.261700 0.785500
vt 0.269400 0.805400
vt 0.267200 0.825800
vt 0.256000 0.844500
vt 0.239200 0.856900
vt 0.219600 0.871600
vt 0.195200 0.866900
vt 0.176000 0.850800
vt 0.162500 0.829000
vt 0.159300 0.804000
vt 0.168600 0.779700
vt 0.186000 0.760700
vt 0.209400 0.749900
vt 0.234200 0.751600
vt 0.256900 0.762900
vt 0.272300 0.782300
vt 0.280800 0.805900
vt 0.278400 0.827600
vt 0.266100 0.848600
vt 0.245300 0.865400
vt 0.882600 0.510900
vt 0.880100 0.495800
vt 0.902500 0.494800
vt 0.905200 0.507600
vt 0.876900 0.481300
vt 0.899000 0.481800
vt 0.874000 0.467200
vt 0.896700 0.467800
vt 0.873900 0.452700
vt 0.896700 0.453700
vt 0.877300 0.438300
vt 0.900400 0.440600
vt 0.883800 0.424700
vt 0.906100 0.428300
vt 0.884800 0.525900
vt 0.905900 0.520700
vt 0.845600 0.523100
vt 0.843300 0.503900
vt 0.849400 0.542300
vt 0.839900 0.425800
vt 0.848300 0.408100
vt 0.836300 0.445100
vt 0.837000 0.464900
vt 0.840000 0.484600
vt 0.822100 0.516100
vt 0.825400 0.537000
vt 0.823800 0.407300
vt 0.816000 0.431400
vt 0.814200 0.455800
vt 0.816300 0.478100
vt 0.819500 0.497800
vn -0.4896 0.8542 0.1750
vn -0.1224 0.9894 0.0782
vn -0.0195 0.9914 0.1295
vn 0.2523 0.9659 0.0582
vn -0.0293 0.9136 0.4055
vn -0.0914 0.9919 0.0881
vn 0.0203 0.9722 -0.2331
vn 0.2019 0.9672 0.1544
vn 0.0261 0.9923 0.1213
vn -0.1521 0.9882 0.0152
vn -0.0430 0.9987 0.0288
vn 0.0335 0.9955 -0.0885
vn 0.0544 0.9974 -0.0476
vn 0.0244 0.9451 0.3258
vn 0.0813 0.8751 0.4771
vn -0.1223 0.9371 0.3269
vn 0.1646 -0.9800 -0.1115
vn 0.0435 -0.8245 -0.5642
vn 0.2633 -0.7789 -0.5693
vn -0.1363 -0.8624 -0.4875
vn -0.2682 -0.9004 -0.3425
vn -0.3286 -0.9318 -0.1544
vn -0.3066 -0.9508 0.0434
vn -0.2064 -0.9543 0.2160
vn -0.0460 -0.9417 0.3334
vn 0.1457 -0.9159 0.3741
vn 0.3303 -0.8851 0.3278
vn 0.4795 -0.8519 0.2104
vn 0.4351 -0.8990 0.0498
vn 0.4293 -0.8934 -0.1328
vn 0.4820 -0.8027 -0.3511
vn 0.4159 -0.7443 -0.5225
vn 0.3514 -0.4320 -0.8306
vn -0.1124 -0.6721 -0.7319
vn -0.2583 -0.2231 -0.9399
vn 0.1829 0.2486 -0.9512
vn -0.4253 -0.5042 -0.7516
vn -0.5165 0.1895 -0.8350
vn -0.6418 -0.5687 -0.5145
vn -0.8849 0.1223 -0.4494
vn -0.7143 -0.6891 -0.1221
vn -0.9732 -0.2198 -0.0675
vn -0.7436 -0.6389 0.1970
vn -0.9666 0.0481 0.2516
vn -0.5602 -0.6721 0.4842
vn -0.7031 -0.0044 0.7111
vn -0.2146 -0.7234 0.6562
vn -0.3550 -0.1819 0.9170
vn 0.0788 -0.6589 0.7481
vn 0.0119 -0.0308 0.9995
vn 0.3976 -0.6452 0.6524
vn 0.4364 -0.0382 0.8990
vn 0.5746 -0.6504 0.4969
vn 0.7605 0.0259 0.6488
vn 0.6501 -0.7272 0.2202
vn 0.9445 -0.0511 0.3246
vn 0.7370 -0.6323 -0.2388
vn 0.9910 0.0237 -0.1315
vn 0.6637 -0.4473 -0.5995
vn 0.8664 0.1604 -0.4730
vn 0.5434 -0.3691 -0.7540
vn 0.6042 0.2653 -0.7514
vn -0.2606 0.9080 -0.3279
vn -0.2039 0.8915 -0.4046
vn -0.1145 0.9487 -0.2947
vn -0.4711 0.8793 0.0697
vn -0.5790 0.8150 0.0218
vn -0.4716 0.8816 0.0202
vn -0.2473 0.8460 0.4723
vn -0.1774 0.8058 0.5650
vn -0.1164 0.8499 0.5139
vn 0.1585 0.8600 0.4850
vn 0.3429 0.8975 0.2774
vn 0.4621 0.8770 0.1313
vn 0.4436 0.8703 0.2139
vn 0.4239 0.8931 0.1504
vn 0.1815 0.9748 -0.1300
vn 0.9801 0.0692 0.1859
vn 0.7350 0.1325 -0.6650
vn 0.8146 0.0586 -0.5771
vn 0.9767 -0.1061 0.1864
vn -0.0609 0.1714 -0.9833
vn 0.0495 0.2481 -0.9675
vn -0.7928 0.1472 -0.5914
vn -0.7653 0.2986 -0.5702
vn -0.9724 0.1082 0.2068
vn -0.9427 0.1713 0.2864
vn -0.4747 0.0764 0.8768
vn -0.3451 -0.0350 0.9379
vn 0.4154 0.0505 0.9082
vn 0.5212 -0.1519 0.8398
vn 0.9336 -0.3091 0.1813
vn 0.7517 -0.3163 -0.5787
vn 0.4552 -0.3971 0.7969
vn -0.3216 -0.5084 0.7988
vn -0.8111 -0.5542 0.1871
vn -0.6406 -0.5068 -0.5769
vn 0.0559 -0.4045 -0.9128
s 1
f 1/1/1 2/2/2 3/3/3
f 2/2/2 4/4/4 3/3/3
f 4/4/4 5/5/5 3/3/3
f 5/5/5 6/6/6 3/3/3
f 6/6/6 7/7/7 3/3/3
f 7/7/7 8/8/8 3/3/3
f 8/8/8 9/9/9 3/3/3
f 9/9/9 10/10/10 3/3/3
f 10/10/10 11/11/11 3/3/3
f 11/11/11 12/12/12 3/3/3
f 12/12/12 13/13/13 3/3/3
f 13/13/13 14/14/14 3/3/3
f 14/14/14 15/15/15 3/3/3
f 15/15/15 16/16/16 3/3/3
f 3/3/3 16/16/16 1/1/1
f 17/17/17 18/18/18 19/19/19
f 17/17/17 20/20/20 18/18/18
f 17/17/17 21/21/21 20/20/20
f 17/17/17 22/22/22 21/21/21
f 17/17/17 23/23/23 22/22/22
f 17/17/17 24/24/24 23/23/23
f 17/17/17 25/25/25 24/24/24
f 17/17/17 26/26/26 25/25/25
f 17/17/17 27/27/27 26/26/26
f 17/17/17 28/28/28 27/27/27
f 17/17/17 29/29/29 28/28/28
f 17/17/17 30/30/30 29/29/29
f 17/17/17 31/31/31 30/30/30
f 17/17/17 32/32/32 31/31/31
f 17/17/17 19/19/19 32/32/32
f 33/33/33 34/34/34 35/35/35
f 35/35/35 36/36/36 33/33/33
f 34/34/34 37/37/37 38/38/38
f 38/38/38 35/35/35 34/34/34
f 37/37/37 39/39/39 40/40/40
f 40/40/40 38/38/38 37/37/37
f 39/39/39 41/41/41 42/42/42
f 42/42/42 40/40/40 39/39/39
f 41/41/41 43/43/43 44/44/44
f 44/44/44 42/42/42 41/41/41
f 43/43/43 45/45/45 46/46/46
f 46/46/46 44/44/44 43/43/43
f 45/45/45 47/47/47 48/48/48
f 48/48/48 46/46/46 45/45/45
f 47/47/47 49/49/49 50/50/50
f 50/50/50 48/48/48 47/47/47
f 49/49/49 51/51/51 52/52/52
f 52/52/52 50/50/50 49/49/49
f 51/51/51 53/53/53 54/54/54
f 54/54/54 52/52/52 51/51/51
f 53/53/53 55/55/55 56/56/56
f 56/56/56 54/54/54 53/53/53
f 55/55/55 57/57/57 58/58/58
f 58/58/58 56/56/56 55/55/55
f 57/57/57 59/59/59 60/60/60
f 60/60/60 58/58/58 57/57/57
f 59/59/59 61/61/61 62/62/62
f 62/62/62 60/60/60 59/59/59
f 61/61/61 33/33/33 36/36/36
f 36/36/36 62/62/62 61/61/61
f 1/1/1 63/63/63 64/64/64
f 64/64/64 2/2/2 1/1/1
f 2/2/2 64/64/64 65/65/65
f 65/65/65 4/4/4 2/2/2
f 4/4/4 65/65/65 66/66/66
f 66/66/66 5/5/5 4/4/4
f 5/5/5 66/66/66 67/67/67
f 67/67/67 6/6/6 5/5/5
f 6/6/6 67/67/67 68/68/68
f 68/68/68 7/7/7 6/6/6
f 7/7/7 68/68/68 69/69/69
f 69/69/69 8/8/8 7/7/7
f 8/8/8 69/69/69 70/70/70
f 70/70/70 9/9/9 8/8/8
f 9/9/9 70/70/70 71/71/71
f 71/71/71 10/10/10 9/9/9
f 10/10/10 71/71/71 72/72/72
f 72/72/72 11/11/11 10/10/10
f 11/11/11 72/72/72 73/73/73
f 73/73/73 12/12/12 11/11/11
f 12/12/12 73/73/73 74/74/74
f 74/74/74 13/13/13 12/12/12
f 13/13/13 74/74/74 75/75/75
f 75/75/75 14/14/14 13/13/13
f 14/14/14 75/75/75 76/76/76
f 76/76/76 15/15/15 14/14/14
f 15/15/15 76/76/76 77/77/77
f 77/77/77 16/16/16 15/15/15
f 16/16/16 77/77/77 63/63/63
f 63/63/63 1/1/1 16/16/16
f 63/63/63 36/78/36 35/79/35
f 35/79/35 64/64/64 63/63/63
f 64/64/64 35/79/35 38/80/38
f 38/80/38 65/65/65 64/64/64
f 65/65/65 38/80/38 40/81/40
f 40/81/40 66/66/66 65/65/65
f 66/66/66 40/81/40 42/82/42
f 42/82/42 67/67/67 66/66/66
f 67/67/67 42/82/42 44/83/44
f 44/83/44 68/68/68 67/67/67
f 68/68/68 44/83/44 46/84/46
f 46/84/46 69/69/69 68/68/68
f 69/69/69 46/84/46 48/85/48
f 48/85/48 70/70/70 69/69/69
f 70/70/70 48/85/48 50/86/50
f 50/86/50 71/71/71 70/70/70
f 71/71/71 50/86/50 52/87/52
f 52/87/52 72/72/72 71/71/71
f 72/72/72 52/87/52 54/88/54
f 54/88/54 73/73/73 72/72/72
f 73/73/73 54/88/54 56/89/56
f 56/89/56 74/74/74 73/73/73
f 74/74/74 56/89/56 58/90/58
f 58/90/58 75/75/75 74/74/74
f 75/75/75 58/90/58 60/91/60
f 60/91/60 76/76/76 75/75/75
f 76/76/76 60/91/60 62/92/62
f 62/92/62 77/77/77 76/76/76
f 77/77/77 62/92/62 36/78/36
f 36/78/36 63/63/63 77/77/77
f 33/33/33 19/19/19 18/18/18
f 18/18/18 34/34/34 33/33/33
f 34/34/34 18/18/18 20/20/20
f 20/20/20 37/37/37 34/34/34
f 37/37/37 20/20/20 21/21/21
f 21/21/21 39/39/39 37/37/37
f 39/39/39 21/21/21 22/22/22
f 22/22/22 41/41/41 39/39/39
f 41/41/41 22/22/22 23/23/23
f 23/23/23 43/43/43 41/41/41
f 43/43/43 23/23/23 24/24/24
f 24/24/24 45/45/45 43/43/43
f 45/45/45 24/24/24 25/25/25
f 25/25/25 47/47/47 45/45/45
f 47/47/47 25/25/25 26/26/26
f 26/26/26 49/49/49 47/47/47
f 49/49/49 26/26/26 27/27/27
f 27/27/27 51/51/51 49/49/49
f 51/51/51 27/27/27 28/28/28
f 28/28/28 53/53/53 51/51/51
f 53/53/53 28/28/28 29/29/29
f 29/29/29 55/55/55 53/53/53
f 55/55/55 29/29/29 30/30/30
f 30/30/30 57/57/57 55/55/55
f 57/57/57 30/30/30 31/31/31
f 31/31/31 59/59/59 57/57/57
f 59/59/59 31/31/31 32/32/32
f 32/32/32 61/61/61 59/59/59
f 61/61/61 32/32/32 19/19/19
f 19/19/19 33/33/33 61/61/61
s 2
f 78/93/78 79/94/79 80/95/80
f 80/95/80 81/96/81 78/93/78
f 79/94/79 82/97/82 83/98/83
f 83/98/83 80/95/80 79/94/79
f 82/97/82 84/99/84 85/100/85
f 85/100/85 83/98/83 82/97/82
f 84/99/84 86/101/86 87/102/87
f 87/102/87 85/100/85 84/99/84
f 86/101/86 88/103/88 89/104/89
f 89/104/89 87/102/87 86/101/86
f 88/103/88 90/105/90 91/106/91
f 91/106/91 89/104/89 88/103/88
f 90/107/90 78/93/78 81/96/81
f 81/96/81 91/108/91 90/107/90
f 79/94/79 78/93/78 92/109/92
f 92/109/92 93/110/93 79/94/79
f 78/93/78 90/107/90 94/111/94
f 94/111/94 92/109/92 78/93/78
f 90/105/90 88/103/88 95/112/95
f 95/112/95 94/113/94 90/105/90
f 88/103/88 86/101/86 96/114/96
f 96/114/96 95/112/95 88/103/88
f 86/101/86 84/99/84 97/115/97
f 97/115/97 96/114/96 86/101/86
f 84/99/84 82/97/82 98/116/98
f 98/116/98 97/115/97 84/99/84
f 82/97/82 79/94/79 93/110/93
f 93/110/93 98/116/98 82/97/82
f 93/110/93 92/109/92 99/117/17
f 92/109/92 94/111/94 99/118/17
f 94/113/94 95/112/95 99/119/17
f 95/112/95 96/114/96 99/120/17
f 96/114/96 97/115/97 99/121/17
f 97/115/97 98/116/98 99/122/17
f 98/116/98 93/110/93 99/123/17
