# Blender v3.3.0 OBJ File: ''
# www.blender.org
o MushroomStage02.005
v -0.017289 0.015148 -0.016341
v -0.030626 0.015148 -0.022498
v -0.033315 0.033209 -0.014894
v -0.023704 0.033209 -0.010458
v -0.042591 0.015148 -0.012581
v -0.041936 0.033209 -0.007748
v -0.044173 0.015148 0.005942
v -0.043076 0.033209 0.005599
v -0.034181 0.015148 0.019122
v -0.035876 0.033209 0.015096
v -0.020139 0.015148 0.017035
v -0.025758 0.033209 0.013592
v -0.012621 0.015148 0.001252
v -0.020341 0.033209 0.002220
v -0.033479 0.063362 -0.018790
v -0.025680 0.063362 -0.015190
v -0.040476 0.063362 -0.012991
v -0.041402 0.063362 -0.002159
v -0.035558 0.063362 0.005548
v -0.027347 0.063362 0.004328
v -0.022950 0.063362 -0.004902
v -0.027056 0.087393 -0.013950
v -0.034855 0.087393 -0.017550
v -0.032280 0.108145 -0.018978
v -0.024480 0.108145 -0.015378
v -0.041852 0.087393 -0.011750
v -0.039277 0.108145 -0.013178
v -0.042778 0.087393 -0.000919
v -0.040202 0.108145 -0.002347
v -0.036934 0.087393 0.006789
v -0.034359 0.108145 0.005361
v -0.028723 0.087393 0.005569
v -0.026147 0.108145 0.004140
v -0.024326 0.087393 -0.003661
v -0.021751 0.108145 -0.005089
v -0.015716 0.000000 -0.018416
v -0.030875 0.000000 -0.025413
v -0.010412 -0.000000 0.001581
v -0.018956 -0.000000 0.019519
v -0.034916 -0.000000 0.021891
v -0.046272 -0.000000 0.006910
v -0.044474 0.000000 -0.014142
v -0.004714 0.133918 -0.026563
v -0.014946 0.136431 -0.035953
v -0.031015 0.131137 -0.006197
v -0.024072 0.146423 -0.048778
v -0.037662 0.147681 -0.047448
v -0.049520 0.140011 -0.040838
v -0.061744 0.139238 -0.021531
v -0.064994 0.137544 -0.008201
v -0.062500 0.132793 0.005416
v -0.054570 0.135922 0.016846
v -0.042636 0.133594 0.023972
v -0.028915 0.128631 0.025577
v -0.015809 0.121866 0.021518
v -0.005462 0.122123 0.012547
v 0.000420 0.129367 0.000104
v 0.000730 0.135732 -0.013757
v 0.007892 0.126906 -0.033440
v -0.001108 0.111323 -0.027138
v -0.011964 0.110658 -0.038205
v -0.002313 0.130402 -0.055543
v -0.025972 0.110693 -0.043051
v -0.020992 0.141227 -0.062085
v -0.040764 0.110804 -0.041907
v -0.040858 0.143018 -0.060355
v -0.052642 0.110395 -0.036072
v -0.058370 0.135462 -0.050643
v -0.064063 0.111371 -0.021591
v -0.074371 0.134355 -0.026179
v -0.067484 0.111356 -0.006816
v -0.078799 0.131959 -0.006808
v -0.064608 0.111335 0.008072
v -0.074853 0.127559 0.012506
v -0.055944 0.111277 0.020522
v -0.063305 0.125121 0.028319
v -0.042975 0.111025 0.028480
v -0.046339 0.121866 0.037880
v -0.027719 0.106987 0.031653
v -0.027092 0.112175 0.039710
v -0.012875 0.103177 0.026535
v -0.008847 0.105074 0.033831
v -0.001106 0.103230 0.016332
v 0.005648 0.105446 0.021364
v 0.004782 0.110919 0.002051
v 0.014176 0.120536 0.004108
v 0.004069 0.112389 -0.013030
v 0.015077 0.127737 -0.015282
v -0.031015 0.100606 -0.006197
v 0.048574 0.007873 0.050460
v 0.043185 0.007873 0.046052
v 0.037731 0.028619 0.050854
v 0.041361 0.028619 0.053824
v 0.036379 0.007873 0.047517
v 0.033147 0.028619 0.051841
v 0.033280 0.007873 0.053751
v 0.031059 0.028619 0.056040
v 0.036223 0.007873 0.060061
v 0.033041 0.028619 0.060291
v 0.042990 0.007873 0.061695
v 0.037600 0.028619 0.061391
v 0.048487 0.007873 0.057422
v 0.041303 0.028619 0.058513
v 0.036890 0.049365 0.050605
v 0.041019 0.049365 0.053983
v 0.031674 0.049365 0.051727
v 0.029299 0.049365 0.056505
v 0.031554 0.049365 0.061341
v 0.036740 0.049365 0.062593
v 0.040953 0.049365 0.059318
v 0.039054 0.059738 0.050147
v 0.042754 0.059738 0.053174
v 0.034381 0.059738 0.051153
v 0.032253 0.059738 0.055434
v 0.034273 0.059738 0.059766
v 0.038920 0.059738 0.060888
v 0.042695 0.059738 0.057954
v 0.050422 -0.001204 0.049599
v 0.043664 -0.001204 0.044071
v 0.050313 -0.001204 0.058329
v 0.043419 -0.001204 0.063688
v 0.034932 -0.001204 0.061639
v 0.031242 -0.001204 0.053726
v 0.035128 -0.001204 0.045907
v -0.010144 0.051072 0.044923
v -0.009732 0.051746 0.042834
v -0.014894 0.050186 0.044165
v -0.010192 0.051255 0.040892
v -0.011284 0.049999 0.039437
v -0.012755 0.048799 0.038569
v -0.014485 0.050210 0.038318
v -0.016329 0.050352 0.038803
v -0.017944 0.050042 0.040103
v -0.018902 0.049049 0.042035
v -0.018955 0.049352 0.044152
v -0.018176 0.049711 0.045977
v -0.016823 0.049539 0.047231
v -0.015113 0.049596 0.047822
v -0.013212 0.049886 0.047662
v -0.011413 0.050403 0.046661
v 0.001157 0.049202 0.051650
v -0.014894 0.042111 0.044165
v 0.002908 0.051085 0.044538
v 0.001539 0.053628 0.037287
v -0.002724 0.054043 0.031194
v -0.009125 0.049974 0.027350
v -0.016525 0.049378 0.026439
v -0.023605 0.051924 0.028621
v -0.029107 0.047784 0.033496
v -0.032060 0.048241 0.040173
v -0.031984 0.044810 0.047434
v -0.028987 0.043528 0.053991
v -0.023687 0.041382 0.058786
v -0.016958 0.041582 0.061143
v -0.009797 0.045772 0.060679
v -0.003367 0.049650 0.057355
v -0.003414 0.052978 0.048861
v -0.002289 0.054332 0.043807
v -0.003333 0.056426 0.038773
v -0.006296 0.056553 0.034633
v -0.010641 0.052423 0.032036
v -0.015672 0.052007 0.031383
v -0.020582 0.054931 0.032819
v -0.024514 0.051290 0.036163
v -0.026726 0.052287 0.040855
v -0.026803 0.049356 0.046037
v -0.024763 0.048453 0.050767
v -0.021009 0.046489 0.054242
v -0.016183 0.046627 0.055911
v -0.011068 0.050528 0.055491
v -0.006535 0.053955 0.053007
v -0.016769 0.007486 0.046308
v -0.013739 0.007486 0.046270
v -0.013305 0.015614 0.044414
v -0.016383 0.015614 0.044440
v -0.011880 0.007486 0.043878
v -0.011415 0.015614 0.042770
v -0.012591 0.007486 0.040933
v -0.012138 0.015614 0.040745
v -0.015337 0.007486 0.039653
v -0.014928 0.015614 0.039865
v -0.018050 0.007486 0.041001
v -0.017684 0.015614 0.040792
v -0.018687 0.007486 0.043963
v -0.018332 0.015614 0.042828
v -0.013423 0.031870 0.042909
v -0.015194 0.031870 0.042932
v -0.012335 0.031870 0.041511
v -0.012751 0.031870 0.039788
v -0.014357 0.031870 0.039040
v -0.015943 0.031870 0.039828
v -0.016316 0.031870 0.041560
v -0.013373 0.039997 0.042802
v -0.015144 0.039997 0.042824
v -0.012285 0.039997 0.041403
v -0.012701 0.039997 0.039681
v -0.014307 0.039997 0.038932
v -0.015893 0.039997 0.039721
v -0.016266 0.039997 0.041453
v -0.013773 0.048125 0.043660
v -0.015544 0.048125 0.043682
v -0.012685 0.048125 0.042261
v -0.013101 0.048125 0.040538
v -0.014707 0.048125 0.039790
v -0.016293 0.046769 0.040578
v -0.016666 0.046769 0.042310
v -0.016959 0.000267 0.046716
v -0.013539 0.000267 0.046673
v -0.019125 0.000267 0.044069
v -0.018405 0.000267 0.040725
v -0.015342 0.000267 0.039202
v -0.012242 0.000267 0.040648
v -0.011440 0.000267 0.043973
v 0.032827 0.063804 0.036755
v 0.026597 0.060992 0.041034
v 0.040496 0.065421 0.053201
v 0.023052 0.065182 0.047772
v 0.022395 0.065866 0.055368
v 0.024834 0.062970 0.062635
v 0.030086 0.066652 0.068211
v 0.037092 0.065735 0.071158
v 0.044642 0.062787 0.071011
v 0.051337 0.063123 0.067636
v 0.056049 0.061882 0.061883
v 0.058004 0.060975 0.054769
v 0.057281 0.058146 0.047429
v 0.053490 0.058292 0.041055
v 0.047363 0.061376 0.036901
v 0.040137 0.064129 0.035351
v 0.031968 0.057825 0.034913
v 0.040496 0.052204 0.053201
v 0.026130 0.055732 0.040682
v 0.020566 0.059273 0.047047
v 0.019559 0.060017 0.055734
v 0.023457 0.057110 0.063451
v 0.028281 0.060926 0.070749
v 0.036531 0.059882 0.073899
v 0.044965 0.056954 0.072485
v 0.052390 0.057162 0.069009
v 0.057057 0.056071 0.062405
v 0.058676 0.055403 0.054802
v 0.056750 0.054571 0.047605
v 0.053123 0.054593 0.041423
v 0.047736 0.055682 0.036105
v 0.040118 0.058047 0.033086
v 0.030969 0.061963 0.032771
v 0.023625 0.058767 0.038446
v 0.018705 0.063654 0.046431
v 0.017812 0.064499 0.055923
v 0.021177 0.060987 0.064835
v 0.027415 0.065483 0.072045
v 0.036225 0.064339 0.075677
v 0.045598 0.060772 0.075141
v 0.053925 0.061140 0.071075
v 0.059643 0.059669 0.063879
v 0.061940 0.058625 0.055114
v 0.060563 0.055772 0.046299
v 0.056045 0.055916 0.038674
v 0.048933 0.059082 0.033197
v 0.040054 0.062327 0.030893
v 0.064839 0.004769 0.012937
v 0.069433 0.004769 0.012879
v 0.069913 0.023368 0.007783
v 0.067226 0.023368 0.007816
v 0.072252 0.004769 0.009252
v 0.071562 0.023368 0.005662
v 0.071174 0.004769 0.004786
v 0.070931 0.023368 0.003050
v 0.067010 0.004769 0.002844
v 0.068496 0.023368 0.001914
v 0.062896 0.004769 0.004889
v 0.066090 0.023368 0.003110
v 0.061930 0.004769 0.009380
v 0.065525 0.023368 0.005737
v 0.069383 0.035767 0.008920
v 0.066696 0.035767 0.008954
v 0.071031 0.035767 0.006799
v 0.070401 0.035767 0.004187
v 0.067966 0.035767 0.003052
v 0.065560 0.035767 0.004248
v 0.064995 0.035767 0.006874
v 0.064976 -0.000000 0.012642
v 0.069288 -0.000000 0.012589
v 0.062245 -0.000000 0.009304
v 0.063152 -0.000000 0.005088
v 0.067014 -0.000000 0.003168
v 0.070923 -0.000000 0.004991
v 0.071935 -0.000000 0.009184
v 0.066868 0.082266 -0.060478
v 0.062737 0.083115 -0.065872
v 0.052466 0.081327 -0.052900
v 0.056798 0.086490 -0.069068
v 0.050137 0.086915 -0.069582
v 0.043862 0.084324 -0.067404
v 0.038964 0.084063 -0.062899
v 0.036266 0.083491 -0.056753
v 0.036310 0.081208 -0.049980
v 0.039160 0.081833 -0.043799
v 0.044304 0.081047 -0.039352
v 0.050779 0.080481 -0.037413
v 0.057438 0.078196 -0.038255
v 0.063185 0.078282 -0.041699
v 0.067077 0.080729 -0.047194
v 0.068403 0.082879 -0.053846
v 0.052466 0.071688 -0.052900
v 0.062961 0.072622 -0.064969
v 0.066965 0.072618 -0.059661
v 0.057144 0.072624 -0.068191
v 0.050519 0.072626 -0.068770
v 0.044231 0.072626 -0.066604
v 0.039367 0.072625 -0.062069
v 0.036767 0.072623 -0.055948
v 0.036881 0.072620 -0.049300
v 0.039684 0.072613 -0.043270
v 0.044689 0.072584 -0.038876
v 0.051064 0.072563 -0.036902
v 0.057774 0.072158 -0.037484
v 0.063585 0.072165 -0.040979
v 0.067241 0.072572 -0.046632
v 0.068297 0.072736 -0.053179
v 0.073258 0.081671 -0.062691
v 0.067592 0.082819 -0.070280
v 0.059258 0.086447 -0.074878
v 0.049719 0.087034 -0.075677
v 0.040643 0.084478 -0.072542
v 0.033611 0.084115 -0.066020
v 0.029849 0.083330 -0.057245
v 0.030022 0.080765 -0.047755
v 0.034092 0.081085 -0.039220
v 0.041314 0.080015 -0.033135
v 0.050380 0.079232 -0.030524
v 0.059717 0.076844 -0.031756
v 0.067800 0.076966 -0.036578
v 0.073311 0.079578 -0.044226
v 0.075268 0.081984 -0.053460
v 0.071295 0.076282 -0.061680
v 0.066075 0.076285 -0.068534
v 0.058531 0.076286 -0.072681
v 0.049957 0.076287 -0.073413
v 0.041822 0.076287 -0.070608
v 0.035522 0.076287 -0.064748
v 0.032136 0.076285 -0.056835
v 0.032249 0.076283 -0.048224
v 0.035862 0.076239 -0.040400
v 0.042411 0.075964 -0.034795
v 0.050656 0.075763 -0.032342
v 0.059171 0.073643 -0.033423
v 0.066529 0.073674 -0.037830
v 0.071501 0.075852 -0.044837
v 0.073211 0.077555 -0.053277
v 0.060014 0.010458 -0.036634
v 0.066265 0.010458 -0.044275
v 0.058948 0.035526 -0.051227
v 0.055293 0.035526 -0.046759
v 0.064189 0.010458 -0.053926
v 0.057734 0.035526 -0.056871
v 0.055348 0.010458 -0.058320
v 0.052564 0.035526 -0.059441
v 0.046401 0.010458 -0.054148
v 0.047332 0.035526 -0.057001
v 0.044085 0.010458 -0.044551
v 0.045977 0.035526 -0.051389
v 0.050143 0.010458 -0.036757
v 0.049520 0.035526 -0.046831
v 0.058376 0.060594 -0.052455
v 0.054721 0.060594 -0.047986
v 0.057162 0.060594 -0.058099
v 0.051992 0.060594 -0.060668
v 0.046760 0.060594 -0.058228
v 0.045405 0.060594 -0.052616
v 0.048948 0.060594 -0.048058
v 0.059680 0.073128 -0.049660
v 0.056024 0.073128 -0.045191
v 0.058465 0.073128 -0.055303
v 0.053295 0.073128 -0.057873
v 0.048063 0.073128 -0.055433
v 0.046709 0.073128 -0.049821
v 0.050251 0.073128 -0.045263
v 0.060463 0.000000 -0.035672
v 0.067297 0.000000 -0.044026
v 0.049671 0.000000 -0.035807
v 0.043048 0.000000 -0.044328
v 0.045580 0.000000 -0.054819
v 0.055362 0.000000 -0.059381
v 0.065026 0.000000 -0.054577
v 0.074917 0.041408 0.010793
v 0.075608 0.041980 0.007690
v 0.067869 0.040775 0.007910
v 0.074967 0.040359 0.004600
v 0.073148 0.040716 0.002058
v 0.070480 0.042795 0.000464
v 0.067392 0.042619 0.000063
v 0.064378 0.042234 0.000944
v 0.061963 0.040695 0.002997
v 0.060605 0.041116 0.005878
v 0.060558 0.040586 0.009059
v 0.061811 0.040205 0.011963
v 0.064115 0.038665 0.014097
v 0.067078 0.038723 0.015121
v 0.070218 0.040372 0.014863
v 0.073002 0.041821 0.013338
v 0.076679 0.037375 0.012018
v 0.077567 0.037377 0.008086
v 0.078799 0.040608 0.008139
v 0.077723 0.039812 0.012505
v 0.076784 0.037378 0.004135
v 0.077958 0.039176 0.003687
v 0.074467 0.037379 0.000841
v 0.075341 0.039655 -0.000053
v 0.071015 0.037379 -0.001231
v 0.071411 0.041760 -0.002413
v 0.067020 0.037378 -0.001727
v 0.066868 0.041508 -0.002972
v 0.063165 0.037378 -0.000560
v 0.062521 0.040962 -0.001633
v 0.060113 0.037376 0.002070
v 0.059144 0.039212 0.001360
v 0.058395 0.037346 0.005718
v 0.057331 0.039406 0.005459
v 0.058355 0.037161 0.009751
v 0.057377 0.038665 0.009917
v 0.059956 0.037026 0.013445
v 0.059217 0.038123 0.013942
v 0.062904 0.035597 0.016171
v 0.062471 0.036506 0.016886
v 0.066697 0.035618 0.017483
v 0.066602 0.036591 0.018333
v 0.070704 0.037085 0.017158
v 0.070999 0.038362 0.018049
v 0.074244 0.038233 0.015232
v 0.074946 0.040001 0.016008
v 0.067869 0.033826 0.007910
vt 0.648500 0.337200
vt 0.627500 0.341300
vt 0.619400 0.310000
vt 0.637400 0.307100
vt 0.605000 0.341000
vt 0.600200 0.311400
vt 0.577200 0.341100
vt 0.578200 0.312700
vt 0.551700 0.340800
vt 0.559400 0.313100
vt 0.530500 0.336800
vt 0.543700 0.310100
vt 0.506000 0.325500
vt 0.526000 0.301900
vt 0.673200 0.326300
vt 0.658000 0.301600
vt 0.614200 0.261500
vt 0.627200 0.260900
vt 0.600200 0.262600
vt 0.582800 0.263700
vt 0.566700 0.263900
vt 0.553000 0.262200
vt 0.537100 0.258400
vt 0.643400 0.259600
vt 0.626100 0.223300
vt 0.612600 0.224200
vt 0.613200 0.191100
vt 0.626300 0.190100
vt 0.598700 0.225200
vt 0.599400 0.192500
vt 0.582400 0.225700
vt 0.582700 0.193100
vt 0.568100 0.225300
vt 0.567600 0.192900
vt 0.555700 0.224500
vt 0.554700 0.191600
vt 0.540200 0.223300
vt 0.538800 0.190300
vt 0.642900 0.222800
vt 0.642700 0.190400
vt 0.655300 0.360100
vt 0.631000 0.365200
vt 0.684500 0.347700
vt 0.523600 0.359600
vt 0.495200 0.347100
vt 0.547800 0.364600
vt 0.575600 0.365000
vt 0.605600 0.365400
vt 0.594700 0.145400
vt 0.574000 0.138200
vt 0.605200 0.093400
vt 0.546400 0.132300
vt 0.538900 0.113200
vt 0.540800 0.089800
vt 0.560200 0.059900
vt 0.576700 0.046400
vt 0.598400 0.039700
vt 0.619600 0.043700
vt 0.637500 0.054800
vt 0.650700 0.072400
vt 0.658400 0.094600
vt 0.653700 0.115600
vt 0.636800 0.133000
vt 0.616000 0.143000
vt 0.321800 0.592700
vt 0.292800 0.600000
vt 0.284600 0.578100
vt 0.317100 0.549600
vt 0.268700 0.562600
vt 0.297600 0.516300
vt 0.248100 0.554500
vt 0.266900 0.501800
vt 0.228800 0.554200
vt 0.230900 0.509700
vt 0.203500 0.563800
vt 0.183200 0.530300
vt 0.187800 0.579800
vt 0.159600 0.557300
vt 0.179300 0.600800
vt 0.150000 0.592200
vt 0.179700 0.624100
vt 0.152500 0.627100
vt 0.189500 0.646100
vt 0.168800 0.657100
vt 0.209300 0.662900
vt 0.200700 0.675400
vt 0.235300 0.667600
vt 0.234800 0.681100
vt 0.260300 0.662400
vt 0.266500 0.674500
vt 0.283400 0.646100
vt 0.303000 0.655600
vt 0.292700 0.623600
vt 0.322200 0.626100
vt 0.596000 0.170800
vt 0.557700 0.172600
vt 0.531700 0.149100
vt 0.517500 0.117500
vt 0.520000 0.082700
vt 0.544700 0.043600
vt 0.570200 0.024000
vt 0.601400 0.015600
vt 0.633800 0.019800
vt 0.660900 0.038700
vt 0.683200 0.066100
vt 0.692800 0.096900
vt 0.686500 0.126100
vt 0.656600 0.149700
vt 0.627200 0.165500
vt 0.236400 0.611300
vt 0.333600 0.827400
vt 0.344000 0.827900
vt 0.344200 0.863200
vt 0.336400 0.863200
vt 0.354300 0.830200
vt 0.351800 0.864000
vt 0.364700 0.833200
vt 0.359200 0.865000
vt 0.375300 0.836100
vt 0.366700 0.865500
vt 0.304000 0.838400
vt 0.313600 0.833500
vt 0.321300 0.865800
vt 0.314100 0.867400
vt 0.323300 0.829500
vt 0.328600 0.864100
vt 0.345500 0.896900
vt 0.337300 0.897300
vt 0.353700 0.896500
vt 0.361800 0.896300
vt 0.370000 0.896500
vt 0.320800 0.897800
vt 0.312500 0.898200
vt 0.329100 0.897600
vt 0.345200 0.913700
vt 0.338200 0.914300
vt 0.352400 0.912800
vt 0.359900 0.912500
vt 0.367300 0.913500
vt 0.324000 0.913900
vt 0.316600 0.914400
vt 0.331100 0.914200
vt 0.332200 0.813000
vt 0.345300 0.813300
vt 0.319400 0.815500
vt 0.307300 0.820100
vt 0.295500 0.826600
vt 0.369800 0.819300
vt 0.381900 0.823900
vt 0.357800 0.815700
vt 0.420800 0.929700
vt 0.422600 0.932600
vt 0.413500 0.932900
vt 0.422400 0.935800
vt 0.420800 0.938700
vt 0.418600 0.940600
vt 0.416000 0.942300
vt 0.413200 0.942100
vt 0.410200 0.940700
vt 0.408000 0.937700
vt 0.407100 0.934500
vt 0.407600 0.931300
vt 0.409100 0.928800
vt 0.411500 0.927100
vt 0.414600 0.926800
vt 0.417900 0.927700
vt 0.062300 0.978300
vt 0.042100 0.956800
vt 0.070300 0.969400
vt 0.074900 0.958000
vt 0.073600 0.946400
vt 0.064400 0.936600
vt 0.054700 0.929900
vt 0.043300 0.925400
vt 0.030900 0.930200
vt 0.021400 0.936700
vt 0.016200 0.948300
vt 0.015600 0.959800
vt 0.019700 0.970800
vt 0.027600 0.978900
vt 0.039700 0.984000
vt 0.052600 0.984400
vt 0.430600 0.920900
vt 0.436700 0.912600
vt 0.442900 0.923100
vt 0.434700 0.928200
vt 0.444500 0.935900
vt 0.435700 0.936400
vt 0.440100 0.948100
vt 0.433200 0.943400
vt 0.430400 0.957900
vt 0.426100 0.950300
vt 0.419600 0.962700
vt 0.418500 0.953800
vt 0.406800 0.961700
vt 0.409800 0.953700
vt 0.393600 0.956500
vt 0.401400 0.949900
vt 0.387000 0.945900
vt 0.396700 0.943500
vt 0.383200 0.933200
vt 0.394200 0.934900
vt 0.385600 0.921500
vt 0.395400 0.926800
vt 0.390800 0.910800
vt 0.399000 0.919000
vt 0.399900 0.904100
vt 0.405600 0.914200
vt 0.413100 0.903400
vt 0.415500 0.914000
vt 0.426400 0.906600
vt 0.424100 0.916600
vt 0.300500 0.325100
vt 0.305200 0.325300
vt 0.305200 0.338300
vt 0.300400 0.338100
vt 0.309800 0.326000
vt 0.309000 0.338800
vt 0.314500 0.326700
vt 0.312300 0.339300
vt 0.319200 0.327500
vt 0.316800 0.340000
vt 0.286600 0.327100
vt 0.291300 0.326300
vt 0.293200 0.338900
vt 0.288700 0.339800
vt 0.295900 0.325600
vt 0.296400 0.338300
vt 0.303900 0.364000
vt 0.301100 0.363900
vt 0.306700 0.364200
vt 0.309500 0.364500
vt 0.312300 0.364700
vt 0.295600 0.364200
vt 0.292800 0.364600
vt 0.298400 0.364000
vt 0.303800 0.376900
vt 0.301100 0.377000
vt 0.306600 0.376900
vt 0.309400 0.376800
vt 0.312100 0.376900
vt 0.295500 0.376800
vt 0.292700 0.376700
vt 0.298300 0.376900
vt 0.303700 0.389800
vt 0.301000 0.389900
vt 0.306400 0.389600
vt 0.309100 0.389400
vt 0.311900 0.389500
vt 0.295700 0.387400
vt 0.292800 0.389200
vt 0.298400 0.387700
vt 0.300300 0.314000
vt 0.305700 0.314100
vt 0.294900 0.314400
vt 0.289600 0.315100
vt 0.284300 0.316000
vt 0.316300 0.315500
vt 0.321500 0.316500
vt 0.311100 0.314700
vt 0.943300 0.355600
vt 0.955800 0.356100
vt 0.944400 0.384300
vt 0.965800 0.365100
vt 0.971600 0.375300
vt 0.973700 0.387800
vt 0.968500 0.399900
vt 0.960300 0.408300
vt 0.948800 0.413300
vt 0.937300 0.412100
vt 0.926800 0.407000
vt 0.919400 0.398200
vt 0.914100 0.387200
vt 0.915100 0.375800
vt 0.922500 0.365800
vt 0.932400 0.358800
vt 0.709500 0.936900
vt 0.677400 0.934000
vt 0.705500 0.924500
vt 0.702300 0.910600
vt 0.691600 0.902000
vt 0.677600 0.902600
vt 0.663000 0.901000
vt 0.652400 0.910000
vt 0.648200 0.923300
vt 0.646100 0.935800
vt 0.651100 0.947600
vt 0.659700 0.956400
vt 0.671200 0.959800
vt 0.682700 0.960100
vt 0.694600 0.957400
vt 0.705600 0.949500
vt 0.943100 0.348200
vt 0.958300 0.349500
vt 0.971100 0.359900
vt 0.978700 0.373000
vt 0.981000 0.388600
vt 0.974800 0.403900
vt 0.964100 0.414700
vt 0.949600 0.420600
vt 0.935200 0.419200
vt 0.922100 0.412500
vt 0.913000 0.401400
vt 0.907500 0.387800
vt 0.908800 0.374100
vt 0.916600 0.361500
vt 0.928900 0.352200
vt 0.716800 0.938000
vt 0.712000 0.922100
vt 0.707300 0.904900
vt 0.694800 0.895300
vt 0.677500 0.895500
vt 0.659600 0.894400
vt 0.647300 0.904400
vt 0.641500 0.920400
vt 0.638800 0.935800
vt 0.644400 0.950400
vt 0.654700 0.961700
vt 0.669700 0.966200
vt 0.684200 0.966600
vt 0.699600 0.962600
vt 0.712500 0.952600
vt 0.931000 0.484900
vt 0.930000 0.477900
vt 0.959400 0.470800
vt 0.960000 0.475000
vt 0.929900 0.470900
vt 0.959200 0.466600
vt 0.930100 0.463900
vt 0.959100 0.462400
vt 0.930100 0.456800
vt 0.959100 0.458200
vt 0.929800 0.449800
vt 0.959200 0.453900
vt 0.929900 0.442800
vt 0.959400 0.449700
vt 0.930900 0.435700
vt 0.959900 0.445500
vt 0.979100 0.470700
vt 0.979300 0.474900
vt 0.978700 0.466500
vt 0.978400 0.462400
vt 0.978300 0.458100
vt 0.978700 0.454000
vt 0.979100 0.449800
vt 0.979300 0.445600
vt 0.923300 0.485000
vt 0.922700 0.478100
vt 0.922500 0.442700
vt 0.923000 0.435700
vt 0.922400 0.449800
vt 0.922600 0.456800
vt 0.922600 0.463900
vt 0.922500 0.471000
vt 0.927000 0.831200
vt 0.920500 0.822900
vt 0.944600 0.812400
vt 0.917200 0.811700
vt 0.919000 0.801600
vt 0.925800 0.792900
vt 0.934600 0.787400
vt 0.944900 0.785900
vt 0.955600 0.788900
vt 0.963800 0.795700
vt 0.968500 0.805300
vt 0.968900 0.815800
vt 0.965300 0.826200
vt 0.957900 0.833400
vt 0.947400 0.836900
vt 0.936400 0.836200
vt 0.780500 0.908200
vt 0.757300 0.900800
vt 0.762100 0.892200
vt 0.756400 0.910600
vt 0.759300 0.919900
vt 0.765500 0.927300
vt 0.774200 0.931700
vt 0.784100 0.932400
vt 0.793500 0.929000
vt 0.800800 0.921900
vt 0.804600 0.912300
vt 0.804100 0.901800
vt 0.799200 0.892300
vt 0.790600 0.885800
vt 0.780200 0.883700
vt 0.770200 0.886100
vt 0.921200 0.840100
vt 0.911900 0.828600
vt 0.907500 0.813300
vt 0.910000 0.798400
vt 0.919400 0.785900
vt 0.932100 0.778100
vt 0.946900 0.776100
vt 0.961600 0.780300
vt 0.972800 0.789900
vt 0.979200 0.803300
vt 0.979600 0.818100
vt 0.974400 0.832300
vt 0.964000 0.842600
vt 0.949600 0.847600
vt 0.934400 0.846800
vt 0.755000 0.886500
vt 0.748500 0.898500
vt 0.737900 0.896500
vt 0.747500 0.881100
vt 0.747600 0.911600
vt 0.732100 0.914900
vt 0.751500 0.924200
vt 0.737300 0.931600
vt 0.759900 0.934200
vt 0.751300 0.943700
vt 0.771600 0.940300
vt 0.767400 0.952000
vt 0.785000 0.941400
vt 0.785300 0.952900
vt 0.798000 0.937000
vt 0.801600 0.944100
vt 0.808200 0.927300
vt 0.814600 0.932500
vt 0.813300 0.914100
vt 0.820100 0.916000
vt 0.812600 0.899800
vt 0.818800 0.899000
vt 0.804500 0.887800
vt 0.809100 0.884300
vt 0.793400 0.879400
vt 0.795300 0.873900
vt 0.779600 0.874900
vt 0.778500 0.868400
vt 0.765100 0.876800
vt 0.761100 0.870300
vt 0.673700 0.815000
vt 0.676100 0.801100
vt 0.718600 0.807500
vt 0.717800 0.817100
vt 0.681400 0.787700
vt 0.720600 0.798400
vt 0.688100 0.774300
vt 0.723000 0.789600
vt 0.689400 0.871400
vt 0.684200 0.856900
vt 0.721700 0.845400
vt 0.723500 0.854300
vt 0.679100 0.842900
vt 0.719800 0.836200
vt 0.675000 0.829100
vt 0.718200 0.826900
vt 0.759300 0.807900
vt 0.759200 0.817100
vt 0.759300 0.798800
vt 0.759400 0.789700
vt 0.759500 0.844300
vt 0.760100 0.853200
vt 0.759200 0.835300
vt 0.759200 0.826200
vt 0.779800 0.808900
vt 0.780400 0.817100
vt 0.778700 0.800700
vt 0.778400 0.791900
vt 0.778700 0.842300
vt 0.779800 0.851300
vt 0.778800 0.833500
vt 0.779800 0.825300
vt 0.657500 0.814500
vt 0.660100 0.797500
vt 0.658900 0.831400
vt 0.663200 0.847300
vt 0.668500 0.862600
vt 0.674400 0.878200
vt 0.665900 0.781500
vt 0.673200 0.766400
vt 0.839800 0.706700
vt 0.842600 0.710600
vt 0.831400 0.715600
vt 0.844200 0.715800
vt 0.843200 0.720600
vt 0.839800 0.725100
vt 0.835800 0.727600
vt 0.831000 0.728100
vt 0.825800 0.726700
vt 0.822300 0.723200
vt 0.820200 0.718800
vt 0.820000 0.713900
vt 0.821400 0.708700
vt 0.824900 0.705300
vt 0.830200 0.703900
vt 0.835500 0.704500
vt 0.353600 0.022200
vt 0.349400 0.027000
vt 0.345000 0.024200
vt 0.351000 0.018900
vt 0.347500 0.033000
vt 0.344000 0.032600
vt 0.348200 0.039300
vt 0.344500 0.040800
vt 0.351400 0.044600
vt 0.346700 0.049500
vt 0.356400 0.048300
vt 0.353300 0.054100
vt 0.362300 0.049900
vt 0.361300 0.055800
vt 0.368500 0.049200
vt 0.369500 0.052500
vt 0.373900 0.045800
vt 0.376300 0.048500
vt 0.377400 0.040400
vt 0.380000 0.041600
vt 0.378600 0.033900
vt 0.380800 0.034100
vt 0.376000 0.027500
vt 0.377800 0.026700
vt 0.371800 0.022600
vt 0.372800 0.020900
vt 0.365800 0.019200
vt 0.365900 0.016700
vt 0.359100 0.018700
vt 0.358000 0.015600
vt 0.842900 0.701800
vt 0.847300 0.707800
vt 0.849400 0.715100
vt 0.848000 0.722100
vt 0.843300 0.728600
vt 0.836900 0.732500
vt 0.829500 0.733200
vt 0.822200 0.731100
vt 0.817200 0.726000
vt 0.814200 0.719300
vt 0.814400 0.712200
vt 0.816500 0.705100
vt 0.821300 0.700300
vt 0.828500 0.698300
vt 0.836100 0.698800
vt 0.363100 0.034400
vn 0.7348 0.2919 -0.6122
vn -0.1038 0.2765 -0.9554
vn -0.1687 0.1292 -0.9772
vn 0.7631 0.2155 -0.6092
vn -0.8656 0.1601 -0.4745
vn -0.9065 0.0576 -0.4183
vn -0.9557 0.1074 0.2739
vn -0.9490 0.0985 0.2995
vn -0.3540 0.1806 0.9177
vn -0.3849 0.2192 0.8966
vn 0.5931 0.2450 0.7669
vn 0.5364 0.2957 0.7905
vn 0.9615 0.2625 0.0810
vn 0.9573 0.2622 0.1218
vn -0.1170 -0.0404 -0.9923
vn 0.7514 0.0095 -0.6598
vn -0.8712 -0.0352 -0.4896
vn -0.9685 0.0219 0.2482
vn -0.3885 0.1144 0.9143
vn 0.6164 0.1350 0.7758
vn 0.9953 0.0748 0.0608
vn 0.7629 -0.0316 -0.6457
vn -0.1629 -0.0019 -0.9866
vn -0.0863 -0.0577 -0.9946
vn 0.7626 -0.1381 -0.6319
vn -0.8961 0.0262 -0.4431
vn -0.8695 0.0743 -0.4883
vn -0.9580 0.0333 0.2847
vn -0.9536 0.1368 0.2682
vn -0.3949 0.0208 0.9185
vn -0.3475 0.1072 0.9315
vn 0.5682 -0.0109 0.8228
vn 0.6273 -0.0243 0.7784
vn 0.9937 -0.0325 0.1077
vn 0.9902 -0.1177 0.0753
vn 0.7490 0.1656 -0.6416
vn -0.1246 0.1895 -0.9740
vn 0.9849 0.1457 0.0931
vn 0.5779 0.1758 0.7969
vn -0.3648 0.1845 0.9126
vn -0.9484 0.1493 0.2796
vn -0.8716 0.1562 -0.4646
vn 0.1974 0.9778 -0.0703
vn 0.3670 0.9196 0.1405
vn 0.1205 0.9741 0.1913
vn 0.3880 0.9216 -0.0089
vn -0.1682 0.9850 0.0377
vn -0.3108 0.9441 0.1100
vn -0.1100 0.9933 0.0361
vn -0.1173 0.9743 0.1922
vn -0.1491 0.9665 0.2088
vn -0.2176 0.9584 0.1847
vn 0.1161 0.9100 0.3979
vn 0.3634 0.8263 0.4303
vn 0.4452 0.7912 0.4193
vn 0.2777 0.7977 0.5354
vn 0.2086 0.8611 0.4637
vn 0.2164 0.9709 0.1025
vn 0.8926 0.1704 -0.4174
vn 0.5386 -0.7916 -0.2885
vn 0.3263 -0.8391 -0.4352
vn 0.6754 0.1294 -0.7260
vn 0.0267 -0.7984 -0.6015
vn 0.3032 0.3768 -0.8753
vn -0.1527 -0.7714 -0.6177
vn -0.3064 0.3947 -0.8662
vn -0.4209 -0.7711 -0.4778
vn -0.6860 0.2265 -0.6914
vn -0.6121 -0.7384 -0.2832
vn -0.8670 0.3594 -0.3452
vn -0.6458 -0.7630 -0.0291
vn -0.9416 0.3331 0.0504
vn -0.5654 -0.7930 0.2269
vn -0.8552 0.2579 0.4495
vn -0.4144 -0.8126 0.4099
vn -0.6606 0.1646 0.7324
vn -0.3270 -0.8294 0.4529
vn -0.2335 0.1273 0.9640
vn -0.2346 -0.8957 0.3778
vn 0.0712 -0.1249 0.9896
vn -0.0244 -0.9818 0.1883
vn 0.4386 -0.3556 0.8253
vn 0.2720 -0.9585 -0.0858
vn 0.7863 -0.3700 0.4948
vn 0.5523 -0.8099 -0.1974
vn 0.9327 0.1448 0.3302
vn 0.5888 -0.7934 -0.1544
vn 0.9563 0.2767 -0.0946
vn -0.0356 -0.9980 -0.0522
vn 0.8690 0.2840 -0.4052
vn 0.2477 0.2494 -0.9362
vn 0.2087 0.1379 -0.9682
vn 0.8879 0.2007 -0.4140
vn -0.5811 0.1553 -0.7988
vn -0.6350 0.0022 -0.7725
vn -0.9977 0.0624 -0.0282
vn -0.9954 -0.0959 -0.0018
vn -0.6196 0.0624 0.7824
vn -0.6385 -0.0959 0.7636
vn 0.2384 0.1554 0.9587
vn 0.1836 0.0022 0.9830
vn 0.8764 0.2495 0.4119
vn 0.8759 0.1379 0.4624
vn 0.2022 -0.0424 -0.9784
vn 0.9031 -0.0844 -0.4211
vn -0.6424 0.0399 -0.7653
vn -0.9957 0.0924 0.0029
vn -0.6423 0.0925 0.7608
vn 0.1733 0.0399 0.9841
vn 0.8795 -0.0424 0.4740
vn 0.2818 -0.1009 -0.9542
vn 0.8912 -0.1815 -0.4156
vn -0.5562 0.0995 -0.8251
vn -0.9620 0.2696 -0.0426
vn -0.5858 0.2696 0.7643
vn 0.2745 0.0995 0.9564
vn 0.9121 -0.1009 0.3973
vn 0.8843 0.2191 -0.4123
vn 0.2290 0.2191 -0.9485
vn 0.8737 0.2192 0.4342
vn 0.2052 0.2191 0.9539
vn -0.6178 0.2191 0.7552
vn -0.9756 0.2191 -0.0121
vn -0.5987 0.2191 -0.7704
vn -0.3196 0.9388 0.1286
vn -0.3175 0.9482 0.0084
vn -0.1658 0.9852 0.0427
vn -0.4789 0.8625 -0.1637
vn -0.5935 0.8004 -0.0845
vn -0.0371 0.9884 0.1471
vn 0.3083 0.9225 0.2323
vn 0.1496 0.9635 0.2219
vn -0.1118 0.9300 0.3502
vn -0.0009 0.9956 0.0933
vn -0.0046 0.9972 -0.0748
vn -0.0826 0.9952 0.0517
vn -0.0704 0.9674 0.2433
vn -0.1218 0.9601 0.2518
vn -0.2417 0.9602 0.1401
vn -0.3577 0.9312 0.0702
vn 0.9000 -0.1866 0.3939
vn 0.1530 -0.9685 -0.1967
vn 0.9988 -0.0467 0.0124
vn 0.9352 0.1019 -0.3392
vn 0.6321 0.1669 -0.7567
vn 0.3453 -0.1389 -0.9282
vn -0.1098 -0.1443 -0.9834
vn -0.4974 0.1983 -0.8445
vn -0.7406 -0.2486 -0.6243
vn -0.9820 -0.0066 -0.1888
vn -0.9486 -0.2902 0.1261
vn -0.8044 -0.2591 0.5346
vn -0.4985 -0.4260 0.7550
vn 0.0023 -0.4297 0.9030
vn 0.3041 -0.1936 0.9328
vn 0.5858 0.0100 0.8104
vn 0.2144 0.9667 0.1396
vn 0.1136 0.9503 0.2899
vn 0.0416 0.9832 0.1778
vn -0.2498 0.9599 -0.1274
vn -0.3465 0.9181 -0.1925
vn 0.1618 0.9651 -0.2061
vn -0.0231 0.9991 -0.0351
vn -0.3470 0.9335 0.0907
vn -0.2051 0.9766 0.0643
vn -0.3118 0.8687 0.3849
vn -0.2466 0.8663 0.4344
vn -0.1622 0.8170 0.5534
vn -0.3371 0.7969 0.5014
vn -0.4091 0.7997 0.4395
vn -0.0414 0.9661 0.2549
vn -0.4129 0.1399 0.9000
vn 0.4190 0.1108 0.9012
vn 0.3654 0.1449 0.9195
vn -0.3488 0.1555 0.9242
vn 0.9739 0.0260 0.2256
vn 0.9729 0.0338 0.2289
vn 0.7677 0.0130 -0.6407
vn 0.7081 -0.0469 -0.7046
vn -0.0118 0.0339 -0.9994
vn -0.0030 -0.0190 -0.9998
vn -0.7907 0.0354 -0.6112
vn -0.7252 0.0407 -0.6874
vn -0.9624 0.0857 0.2577
vn -0.9574 0.1108 0.2668
vn 0.4475 0.0476 0.8930
vn -0.4132 0.0727 0.9077
vn 0.9777 0.0270 0.2083
vn 0.7669 -0.0080 -0.6417
vn -0.0123 -0.0258 -0.9996
vn -0.7784 0.0139 -0.6277
vn -0.9714 0.0710 0.2267
vn 0.4577 -0.0309 0.8886
vn -0.4220 -0.0516 0.9051
vn 0.9810 0.0130 0.1934
vn 0.7684 0.0453 -0.6383
vn -0.0073 0.0482 -0.9988
vn -0.7769 0.0163 -0.6295
vn -0.9747 -0.0333 0.2211
vn 0.4219 -0.0746 0.9036
vn -0.2746 -0.1207 0.9540
vn 0.9702 0.0223 0.2411
vn 0.7787 0.1036 -0.6188
vn 0.0711 0.1081 -0.9916
vn -0.7736 0.0272 -0.6330
vn -0.9130 -0.1039 0.3946
vn -0.4217 0.0622 0.9046
vn 0.4442 0.0622 0.8937
vn -0.9702 0.0623 0.2342
vn -0.7880 0.0622 -0.6125
vn -0.0124 0.0623 -0.9980
vn 0.7726 0.0623 -0.6319
vn 0.9757 0.0623 0.2101
vn -0.2669 0.9515 -0.1531
vn -0.2451 0.9151 -0.3203
vn 0.1297 0.9888 -0.0733
vn -0.0852 0.9442 -0.3183
vn -0.1299 0.9804 0.1484
vn -0.2887 0.9501 0.1178
vn -0.1890 0.9820 -0.0045
vn 0.2073 0.9588 0.1944
vn 0.2336 0.9360 0.2635
vn 0.2281 0.9546 0.1918
vn 0.3788 0.9245 0.0434
vn 0.3985 0.8990 -0.1817
vn 0.4096 0.8608 -0.3022
vn 0.4759 0.8574 -0.1960
vn 0.4548 0.8695 -0.1929
vn 0.1506 0.9591 -0.2399
vn -0.2302 -0.7416 -0.6301
vn -0.0758 -0.9963 0.0415
vn -0.3541 -0.8950 -0.2715
vn -0.7166 -0.6934 -0.0754
vn -0.7563 -0.6506 0.0687
vn -0.4669 -0.8331 0.2967
vn -0.3833 -0.6194 0.6852
vn -0.2152 -0.6658 0.7145
vn 0.0364 -0.8154 0.5777
vn 0.3759 -0.7801 0.5001
vn 0.4584 -0.8343 0.3062
vn 0.4942 -0.8659 0.0769
vn 0.2621 -0.9650 -0.0040
vn 0.1324 -0.9719 -0.1948
vn 0.0402 -0.8680 -0.4949
vn -0.0744 -0.7303 -0.6791
vn -0.4694 0.3247 -0.8211
vn -0.7078 -0.0677 -0.7032
vn -0.8187 0.4161 -0.3958
vn -0.8685 0.4579 0.1901
vn -0.8767 0.0854 0.4734
vn -0.5556 0.5130 0.6544
vn -0.0447 0.4104 0.9108
vn 0.2495 0.1450 0.9574
vn 0.6192 0.2836 0.7322
vn 0.8938 0.1545 0.4209
vn 0.9932 0.1149 -0.0180
vn 0.9305 -0.2167 -0.2954
vn 0.7634 -0.1827 -0.6196
vn 0.5054 0.1334 -0.8525
vn 0.0670 0.3761 -0.9242
vn -0.4201 0.1080 0.9010
vn 0.4284 0.0799 0.9001
vn 0.4722 0.0846 0.8774
vn -0.4205 0.1025 0.9015
vn 0.9723 0.0085 0.2335
vn 0.9840 0.0466 0.1719
vn 0.7800 -0.0573 -0.6232
vn 0.7632 0.0200 -0.6459
vn -0.0239 -0.0573 -0.9981
vn 0.0043 0.0200 -0.9998
vn -0.8039 0.0085 -0.5947
vn -0.7642 0.0466 -0.6433
vn -0.9648 0.0800 0.2504
vn -0.9757 0.0845 0.2022
vn 0.4252 -0.0646 0.9028
vn -0.4204 -0.1007 0.9017
vn 0.9713 0.0198 0.2370
vn 0.7787 0.0903 -0.6209
vn -0.0250 0.0903 -0.9956
vn -0.8059 0.0199 -0.5917
vn -0.9649 -0.0646 0.2546
vn -0.4217 -0.0680 0.9042
vn 0.4439 -0.0678 0.8935
vn -0.9698 -0.0678 0.2341
vn -0.7878 -0.0678 -0.6122
vn -0.0125 -0.0678 -0.9976
vn 0.7722 -0.0678 -0.6317
vn 0.9754 -0.0678 0.2099
vn 0.0319 0.9994 0.0099
vn 0.2047 0.9584 0.1989
vn 0.0436 0.9825 0.1810
vn 0.2037 0.9586 0.1990
vn -0.1122 0.9780 0.1761
vn -0.1323 0.9735 0.1864
vn 0.0273 0.9950 0.0956
vn 0.0205 0.9803 0.1963
vn -0.0085 0.9888 0.1489
vn -0.0350 0.9988 0.0336
vn 0.0450 0.9908 0.1277
vn 0.1780 0.9760 0.1256
vn 0.2136 0.9683 0.1298
vn 0.0131 0.9658 0.2590
vn -0.0212 0.9433 0.3313
vn 0.0204 0.9935 0.1123
vn -0.0031 -1.0000 -0.0077
vn 0.2510 -0.9233 -0.2907
vn 0.3705 -0.9183 -0.1393
vn 0.1120 -0.9225 -0.3693
vn -0.0477 -0.9220 -0.3843
vn -0.1995 -0.9219 -0.3322
vn -0.3167 -0.9221 -0.2224
vn -0.3783 -0.9227 -0.0745
vn -0.3740 -0.9235 0.0848
vn -0.3061 -0.9251 0.2248
vn -0.1859 -0.9294 0.3187
vn -0.0703 -0.9328 0.3536
vn 0.0076 -0.9724 0.2332
vn 0.1636 -0.9787 0.1239
vn 0.3471 -0.9362 0.0555
vn 0.4291 -0.9027 -0.0327
vn 0.8211 0.4402 -0.3633
vn 0.6470 0.4651 -0.6043
vn 0.3743 0.6094 -0.6990
vn -0.1439 0.6298 -0.7633
vn -0.5195 0.5187 -0.6790
vn -0.6925 0.5653 -0.4481
vn -0.8261 0.5597 -0.0649
vn -0.8740 0.3992 0.2770
vn -0.6905 0.4873 0.5346
vn -0.3928 0.4221 0.8170
vn -0.0009 0.4274 0.9041
vn 0.3453 0.3240 0.8808
vn 0.6132 0.3373 0.7143
vn 0.7894 0.4063 0.4601
vn 0.8684 0.4921 0.0615
vn 0.7435 -0.5935 -0.3081
vn 0.5295 -0.5562 -0.6406
vn 0.2461 -0.5157 -0.8207
vn -0.0972 -0.5160 -0.8511
vn -0.4323 -0.5377 -0.7238
vn -0.6826 -0.5464 -0.4853
vn -0.8034 -0.5688 -0.1758
vn -0.7632 -0.6210 0.1785
vn -0.6422 -0.6059 0.4696
vn -0.3854 -0.6322 0.6721
vn -0.1300 -0.6479 0.7505
vn 0.1371 -0.7499 0.6472
vn 0.5054 -0.7351 0.4518
vn 0.7596 -0.6202 0.1958
vn 0.8310 -0.5550 -0.0373
vn 0.4095 0.2470 0.8782
vn 0.9446 0.2137 0.2491
vn 0.9606 0.1859 0.2066
vn 0.4096 0.2467 0.8783
vn 0.8020 0.1225 -0.5847
vn 0.7707 0.0517 -0.6351
vn 0.0279 0.0312 -0.9991
vn 0.0009 -0.0475 -0.9989
vn -0.7834 0.0312 -0.6208
vn -0.7658 -0.0475 -0.6413
vn -0.9634 0.1225 0.2385
vn -0.9819 0.0517 0.1821
vn -0.4164 0.2137 0.8837
vn -0.4592 0.1859 0.8687
vn 0.9779 -0.0556 0.2014
vn 0.4207 -0.0975 0.9020
vn 0.7649 0.0282 -0.6435
vn -0.0036 0.0829 -0.9966
vn -0.7611 0.0829 -0.6433
vn -0.9846 0.0282 0.1723
vn -0.4743 -0.0556 0.8786
vn 0.9470 -0.1605 0.2781
vn 0.4104 -0.2389 0.8801
vn 0.8278 0.0388 -0.5597
vn 0.0429 0.2132 -0.9761
vn -0.7753 0.2132 -0.5945
vn -0.9609 0.0388 0.2743
vn -0.3957 -0.1605 0.9043
vn 0.4204 0.1010 0.9017
vn 0.9671 0.1010 0.2334
vn -0.4428 0.1009 0.8909
vn -0.9726 0.1009 0.2093
vn -0.7701 0.1009 -0.6299
vn 0.0124 0.1009 -0.9948
vn 0.7855 0.1009 -0.6106
vn 0.1892 0.9745 0.1210
vn 0.1316 0.9832 -0.1264
vn -0.0643 0.9874 0.1448
vn 0.1481 0.9552 -0.2562
vn 0.3746 0.9247 0.0678
vn 0.2611 0.9652 0.0166
vn -0.0928 0.9920 -0.0850
vn -0.2735 0.9616 0.0236
vn -0.3184 0.9479 0.0054
vn -0.2394 0.9698 -0.0473
vn -0.2703 0.9433 0.1925
vn -0.1211 0.9159 0.3826
vn -0.0467 0.8754 0.4812
vn -0.2715 0.8704 0.4107
vn -0.2961 0.8623 0.4109
vn 0.0194 0.9711 0.2377
vn 0.6034 -0.7185 0.3460
vn 0.7148 -0.6984 0.0361
vn 0.9029 0.4296 0.0168
vn 0.8638 0.2503 0.4372
vn 0.5835 -0.7677 -0.2649
vn 0.8740 0.1739 -0.4537
vn 0.4484 -0.7163 -0.5346
vn 0.6984 0.2554 -0.6686
vn 0.2493 -0.6529 -0.7153
vn 0.4050 0.4909 -0.7714
vn -0.0577 -0.6614 -0.7478
vn -0.1172 0.4281 -0.8961
vn -0.3266 -0.6863 -0.6499
vn -0.5359 0.4244 -0.7299
vn -0.5232 -0.7583 -0.3888
vn -0.8311 0.1859 -0.5242
vn -0.6560 -0.7334 -0.1784
vn -0.9298 0.3145 -0.1912
vn -0.6278 -0.7731 0.0898
vn -0.9470 0.2069 0.2455
vn -0.5752 -0.7870 0.2231
vn -0.7559 0.1929 0.6257
vn -0.3697 -0.8578 0.3570
vn -0.5115 0.0212 0.8590
vn 0.0782 -0.8505 0.5201
vn -0.1271 0.0448 0.9909
vn 0.4057 -0.7592 0.5090
vn 0.1920 0.1753 0.9656
vn 0.4999 -0.6941 0.5179
vn 0.5470 0.3141 0.7760
vn 0.0266 -0.9988 -0.0417
s 1
f 1/1/1 2/2/2 3/3/3
f 3/3/3 4/4/4 1/1/1
f 2/2/2 5/5/5 6/6/6
f 6/6/6 3/3/3 2/2/2
f 5/5/5 7/7/7 8/8/8
f 8/8/8 6/6/6 5/5/5
f 7/7/7 9/9/9 10/10/10
f 10/10/10 8/8/8 7/7/7
f 9/9/9 11/11/11 12/12/12
f 12/12/12 10/10/10 9/9/9
f 11/11/11 13/13/13 14/14/14
f 14/14/14 12/12/12 11/11/11
f 13/15/13 1/1/1 4/4/4
f 4/4/4 14/16/14 13/15/13
f 4/4/4 3/3/3 15/17/15
f 15/17/15 16/18/16 4/4/4
f 3/3/3 6/6/6 17/19/17
f 17/19/17 15/17/15 3/3/3
f 6/6/6 8/8/8 18/20/18
f 18/20/18 17/19/17 6/6/6
f 8/8/8 10/10/10 19/21/19
f 19/21/19 18/20/18 8/8/8
f 10/10/10 12/12/12 20/22/20
f 20/22/20 19/21/19 10/10/10
f 12/12/12 14/14/14 21/23/21
f 21/23/21 20/22/20 12/12/12
f 14/16/14 4/4/4 16/18/16
f 16/18/16 21/24/21 14/16/14
f 22/25/22 23/26/23 24/27/24
f 24/27/24 25/28/25 22/25/22
f 23/26/23 26/29/26 27/30/27
f 27/30/27 24/27/24 23/26/23
f 26/29/26 28/31/28 29/32/29
f 29/32/29 27/30/27 26/29/26
f 28/31/28 30/33/30 31/34/31
f 31/34/31 29/32/29 28/31/28
f 30/33/30 32/35/32 33/36/33
f 33/36/33 31/34/31 30/33/30
f 32/35/32 34/37/34 35/38/35
f 35/38/35 33/36/33 32/35/32
f 34/39/34 22/25/22 25/28/25
f 25/28/25 35/40/35 34/39/34
f 2/2/2 1/1/1 36/41/36
f 36/41/36 37/42/37 2/2/2
f 1/1/1 13/15/13 38/43/38
f 38/43/38 36/41/36 1/1/1
f 13/13/13 11/11/11 39/44/39
f 39/44/39 38/45/38 13/13/13
f 11/11/11 9/9/9 40/46/40
f 40/46/40 39/44/39 11/11/11
f 9/9/9 7/7/7 41/47/41
f 41/47/41 40/46/40 9/9/9
f 7/7/7 5/5/5 42/48/42
f 42/48/42 41/47/41 7/7/7
f 5/5/5 2/2/2 37/42/37
f 37/42/37 42/48/42 5/5/5
f 23/26/23 22/25/22 16/18/16
f 16/18/16 15/17/15 23/26/23
f 26/29/26 23/26/23 15/17/15
f 15/17/15 17/19/17 26/29/26
f 28/31/28 26/29/26 17/19/17
f 17/19/17 18/20/18 28/31/28
f 30/33/30 28/31/28 18/20/18
f 18/20/18 19/21/19 30/33/30
f 32/35/32 30/33/30 19/21/19
f 19/21/19 20/22/20 32/35/32
f 34/37/34 32/35/32 20/22/20
f 20/22/20 21/23/21 34/37/34
f 22/25/22 34/39/34 21/24/21
f 21/24/21 16/18/16 22/25/22
s 2
f 43/49/43 44/50/44 45/51/45
f 44/50/44 46/52/46 45/51/45
f 46/52/46 47/53/47 45/51/45
f 47/53/47 48/54/48 45/51/45
f 48/54/48 49/55/49 45/51/45
f 49/55/49 50/56/50 45/51/45
f 50/56/50 51/57/51 45/51/45
f 51/57/51 52/58/52 45/51/45
f 52/58/52 53/59/53 45/51/45
f 53/59/53 54/60/54 45/51/45
f 54/60/54 55/61/55 45/51/45
f 55/61/55 56/62/56 45/51/45
f 56/62/56 57/63/57 45/51/45
f 57/63/57 58/64/58 45/51/45
f 45/51/45 58/64/58 43/49/43
f 59/65/59 60/66/60 61/67/61
f 61/67/61 62/68/62 59/65/59
f 62/68/62 61/67/61 63/69/63
f 63/69/63 64/70/64 62/68/62
f 63/69/63 65/71/65 66/72/66
f 66/72/66 64/70/64 63/69/63
f 65/71/65 67/73/67 68/74/68
f 68/74/68 66/72/66 65/71/65
f 67/73/67 69/75/69 70/76/70
f 70/76/70 68/74/68 67/73/67
f 69/75/69 71/77/71 72/78/72
f 72/78/72 70/76/70 69/75/69
f 71/77/71 73/79/73 74/80/74
f 74/80/74 72/78/72 71/77/71
f 73/79/73 75/81/75 76/82/76
f 76/82/76 74/80/74 73/79/73
f 75/81/75 77/83/77 78/84/78
f 78/84/78 76/82/76 75/81/75
f 77/83/77 79/85/79 80/86/80
f 80/86/80 78/84/78 77/83/77
f 79/85/79 81/87/81 82/88/82
f 82/88/82 80/86/80 79/85/79
f 82/88/82 81/87/81 83/89/83
f 83/89/83 84/90/84 82/88/82
f 84/90/84 83/89/83 85/91/85
f 85/91/85 86/92/86 84/90/84
f 86/92/86 85/91/85 87/93/87
f 87/93/87 88/94/88 86/92/86
f 87/93/87 60/66/60 59/65/59
f 59/65/59 88/94/88 87/93/87
f 43/49/43 59/95/59 62/96/62
f 62/96/62 44/50/44 43/49/43
f 44/50/44 62/96/62 64/97/64
f 64/97/64 46/52/46 44/50/44
f 46/52/46 64/97/64 66/98/66
f 66/98/66 47/53/47 46/52/46
f 47/53/47 66/98/66 68/99/68
f 68/99/68 48/54/48 47/53/47
f 48/54/48 68/99/68 70/100/70
f 70/100/70 49/55/49 48/54/48
f 49/55/49 70/100/70 72/101/72
f 72/101/72 50/56/50 49/55/49
f 50/56/50 72/101/72 74/102/74
f 74/102/74 51/57/51 50/56/50
f 51/57/51 74/102/74 76/103/76
f 76/103/76 52/58/52 51/57/51
f 52/58/52 76/103/76 78/104/78
f 78/104/78 53/59/53 52/58/52
f 53/59/53 78/104/78 80/105/80
f 80/105/80 54/60/54 53/59/53
f 54/60/54 80/105/80 82/106/82
f 82/106/82 55/61/55 54/60/54
f 55/61/55 82/106/82 84/107/84
f 84/107/84 56/62/56 55/61/55
f 56/62/56 84/107/84 86/108/86
f 86/108/86 57/63/57 56/62/56
f 57/63/57 86/108/86 88/109/88
f 88/109/88 58/64/58 57/63/57
f 58/64/58 88/109/88 59/95/59
f 59/95/59 43/49/43 58/64/58
f 60/66/60 89/110/89 61/67/61
f 61/67/61 89/110/89 63/69/63
f 63/69/63 89/110/89 65/71/65
f 65/71/65 89/110/89 67/73/67
f 67/73/67 89/110/89 69/75/69
f 69/75/69 89/110/89 71/77/71
f 71/77/71 89/110/89 73/79/73
f 73/79/73 89/110/89 75/81/75
f 75/81/75 89/110/89 77/83/77
f 77/83/77 89/110/89 79/85/79
f 79/85/79 89/110/89 81/87/81
f 81/87/81 89/110/89 83/89/83
f 83/89/83 89/110/89 85/91/85
f 85/91/85 89/110/89 87/93/87
f 87/93/87 89/110/89 60/66/60
s 3
f 90/111/90 91/112/91 92/113/92
f 92/113/92 93/114/93 90/111/90
f 91/112/91 94/115/94 95/116/95
f 95/116/95 92/113/92 91/112/91
f 94/115/94 96/117/96 97/118/97
f 97/118/97 95/116/95 94/115/94
f 96/117/96 98/119/98 99/120/99
f 99/120/99 97/118/97 96/117/96
f 98/121/98 100/122/100 101/123/101
f 101/123/101 99/124/99 98/121/98
f 100/122/100 102/125/102 103/126/103
f 103/126/103 101/123/101 100/122/100
f 102/125/102 90/111/90 93/114/93
f 93/114/93 103/126/103 102/125/102
f 93/114/93 92/113/92 104/127/104
f 104/127/104 105/128/105 93/114/93
f 92/113/92 95/116/95 106/129/106
f 106/129/106 104/127/104 92/113/92
f 95/116/95 97/118/97 107/130/107
f 107/130/107 106/129/106 95/116/95
f 97/118/97 99/120/99 108/131/108
f 108/131/108 107/130/107 97/118/97
f 99/124/99 101/123/101 109/132/109
f 109/132/109 108/133/108 99/124/99
f 101/123/101 103/126/103 110/134/110
f 110/134/110 109/132/109 101/123/101
f 103/126/103 93/114/93 105/128/105
f 105/128/105 110/134/110 103/126/103
f 105/128/105 104/127/104 111/135/111
f 111/135/111 112/136/112 105/128/105
f 104/127/104 106/129/106 113/137/113
f 113/137/113 111/135/111 104/127/104
f 106/129/106 107/130/107 114/138/114
f 114/138/114 113/137/113 106/129/106
f 107/130/107 108/131/108 115/139/115
f 115/139/115 114/138/114 107/130/107
f 108/133/108 109/132/109 116/140/116
f 116/140/116 115/141/115 108/133/108
f 109/132/109 110/134/110 117/142/117
f 117/142/117 116/140/116 109/132/109
f 110/134/110 105/128/105 112/136/112
f 112/136/112 117/142/117 110/134/110
f 91/112/91 90/111/90 118/143/118
f 118/143/118 119/144/119 91/112/91
f 90/111/90 102/125/102 120/145/120
f 120/145/120 118/143/118 90/111/90
f 102/125/102 100/122/100 121/146/121
f 121/146/121 120/145/120 102/125/102
f 100/122/100 98/121/98 122/147/122
f 122/147/122 121/146/121 100/122/100
f 98/119/98 96/117/96 123/148/123
f 123/148/123 122/149/122 98/119/98
f 96/117/96 94/115/94 124/150/124
f 124/150/124 123/148/123 96/117/96
f 94/115/94 91/112/91 119/144/119
f 119/144/119 124/150/124 94/115/94
s 4
f 125/151/125 126/152/126 127/153/127
f 126/152/126 128/154/128 127/153/127
f 128/154/128 129/155/129 127/153/127
f 129/155/129 130/156/130 127/153/127
f 130/156/130 131/157/131 127/153/127
f 131/157/131 132/158/132 127/153/127
f 132/158/132 133/159/133 127/153/127
f 133/159/133 134/160/134 127/153/127
f 134/160/134 135/161/135 127/153/127
f 135/161/135 136/162/136 127/153/127
f 136/162/136 137/163/137 127/153/127
f 137/163/137 138/164/138 127/153/127
f 138/164/138 139/165/139 127/153/127
f 139/165/139 140/166/140 127/153/127
f 127/153/127 140/166/140 125/151/125
f 141/167/141 142/168/142 143/169/143
f 143/169/143 142/168/142 144/170/144
f 144/170/144 142/168/142 145/171/145
f 145/171/145 142/168/142 146/172/146
f 146/172/146 142/168/142 147/173/147
f 147/173/147 142/168/142 148/174/148
f 148/174/148 142/168/142 149/175/149
f 149/175/149 142/168/142 150/176/150
f 150/176/150 142/168/142 151/177/151
f 151/177/151 142/168/142 152/178/152
f 152/178/152 142/168/142 153/179/153
f 153/179/153 142/168/142 154/180/154
f 154/180/154 142/168/142 155/181/155
f 155/181/155 142/168/142 156/182/156
f 156/182/156 142/168/142 141/167/141
f 157/183/157 141/184/141 143/185/143
f 143/185/143 158/186/158 157/183/157
f 158/186/158 143/185/143 144/187/144
f 144/187/144 159/188/159 158/186/158
f 159/188/159 144/187/144 145/189/145
f 145/189/145 160/190/160 159/188/159
f 160/190/160 145/189/145 146/191/146
f 146/191/146 161/192/161 160/190/160
f 161/192/161 146/191/146 147/193/147
f 147/193/147 162/194/162 161/192/161
f 162/194/162 147/193/147 148/195/148
f 148/195/148 163/196/163 162/194/162
f 163/196/163 148/195/148 149/197/149
f 149/197/149 164/198/164 163/196/163
f 164/198/164 149/197/149 150/199/150
f 150/199/150 165/200/165 164/198/164
f 165/200/165 150/199/150 151/201/151
f 151/201/151 166/202/166 165/200/165
f 166/202/166 151/201/151 152/203/152
f 152/203/152 167/204/167 166/202/166
f 167/204/167 152/203/152 153/205/153
f 153/205/153 168/206/168 167/204/167
f 168/206/168 153/205/153 154/207/154
f 154/207/154 169/208/169 168/206/168
f 169/208/169 154/207/154 155/209/155
f 155/209/155 170/210/170 169/208/169
f 170/210/170 155/209/155 156/211/156
f 156/211/156 171/212/171 170/210/170
f 171/212/171 156/211/156 141/184/141
f 141/184/141 157/183/157 171/212/171
f 157/183/157 158/186/158 126/152/126
f 126/152/126 125/151/125 157/183/157
f 158/186/158 159/188/159 128/154/128
f 128/154/128 126/152/126 158/186/158
f 159/188/159 160/190/160 129/155/129
f 129/155/129 128/154/128 159/188/159
f 160/190/160 161/192/161 130/156/130
f 130/156/130 129/155/129 160/190/160
f 161/192/161 162/194/162 131/157/131
f 131/157/131 130/156/130 161/192/161
f 162/194/162 163/196/163 132/158/132
f 132/158/132 131/157/131 162/194/162
f 163/196/163 164/198/164 133/159/133
f 133/159/133 132/158/132 163/196/163
f 164/198/164 165/200/165 134/160/134
f 134/160/134 133/159/133 164/198/164
f 165/200/165 166/202/166 135/161/135
f 135/161/135 134/160/134 165/200/165
f 166/202/166 167/204/167 136/162/136
f 136/162/136 135/161/135 166/202/166
f 167/204/167 168/206/168 137/163/137
f 137/163/137 136/162/136 167/204/167
f 168/206/168 169/208/169 138/164/138
f 138/164/138 137/163/137 168/206/168
f 169/208/169 170/210/170 139/165/139
f 139/165/139 138/164/138 169/208/169
f 170/210/170 171/212/171 140/166/140
f 140/166/140 139/165/139 170/210/170
f 171/212/171 157/183/157 125/151/125
f 125/151/125 140/166/140 171/212/171
s 5
f 172/213/172 173/214/173 174/215/174
f 174/215/174 175/216/175 172/213/172
f 173/214/173 176/217/176 177/218/177
f 177/218/177 174/215/174 173/214/173
f 176/217/176 178/219/178 179/220/179
f 179/220/179 177/218/177 176/217/176
f 178/219/178 180/221/180 181/222/181
f 181/222/181 179/220/179 178/219/178
f 180/223/180 182/224/182 183/225/183
f 183/225/183 181/226/181 180/223/180
f 182/224/182 184/227/184 185/228/185
f 185/228/185 183/225/183 182/224/182
f 184/227/184 172/213/172 175/216/175
f 175/216/175 185/228/185 184/227/184
f 175/216/175 174/215/174 186/229/186
f 186/229/186 187/230/187 175/216/175
f 174/215/174 177/218/177 188/231/188
f 188/231/188 186/229/186 174/215/174
f 177/218/177 179/220/179 189/232/189
f 189/232/189 188/231/188 177/218/177
f 179/220/179 181/222/181 190/233/190
f 190/233/190 189/232/189 179/220/179
f 181/226/181 183/225/183 191/234/191
f 191/234/191 190/235/190 181/226/181
f 183/225/183 185/228/185 192/236/192
f 192/236/192 191/234/191 183/225/183
f 185/228/185 175/216/175 187/230/187
f 187/230/187 192/236/192 185/228/185
f 187/230/187 186/229/186 193/237/193
f 193/237/193 194/238/194 187/230/187
f 186/229/186 188/231/188 195/239/195
f 195/239/195 193/237/193 186/229/186
f 188/231/188 189/232/189 196/240/196
f 196/240/196 195/239/195 188/231/188
f 189/232/189 190/233/190 197/241/197
f 197/241/197 196/240/196 189/232/189
f 190/235/190 191/234/191 198/242/198
f 198/242/198 197/243/197 190/235/190
f 191/234/191 192/236/192 199/244/199
f 199/244/199 198/242/198 191/234/191
f 192/236/192 187/230/187 194/238/194
f 194/238/194 199/244/199 192/236/192
f 194/238/194 193/237/193 200/245/200
f 200/245/200 201/246/201 194/238/194
f 193/237/193 195/239/195 202/247/202
f 202/247/202 200/245/200 193/237/193
f 195/239/195 196/240/196 203/248/203
f 203/248/203 202/247/202 195/239/195
f 196/240/196 197/241/197 204/249/204
f 204/249/204 203/248/203 196/240/196
f 197/243/197 198/242/198 205/250/205
f 205/250/205 204/251/204 197/243/197
f 198/242/198 199/244/199 206/252/206
f 206/252/206 205/250/205 198/242/198
f 199/244/199 194/238/194 201/246/201
f 201/246/201 206/252/206 199/244/199
f 173/214/173 172/213/172 207/253/207
f 207/253/207 208/254/208 173/214/173
f 172/213/172 184/227/184 209/255/209
f 209/255/209 207/253/207 172/213/172
f 184/227/184 182/224/182 210/256/210
f 210/256/210 209/255/209 184/227/184
f 182/224/182 180/223/180 211/257/211
f 211/257/211 210/256/210 182/224/182
f 180/221/180 178/219/178 212/258/212
f 212/258/212 211/259/211 180/221/180
f 178/219/178 176/217/176 213/260/213
f 213/260/213 212/258/212 178/219/178
f 176/217/176 173/214/173 208/254/208
f 208/254/208 213/260/213 176/217/176
s 6
f 214/261/214 215/262/215 216/263/216
f 215/262/215 217/264/217 216/263/216
f 217/264/217 218/265/218 216/263/216
f 218/265/218 219/266/219 216/263/216
f 219/266/219 220/267/220 216/263/216
f 220/267/220 221/268/221 216/263/216
f 221/268/221 222/269/222 216/263/216
f 222/269/222 223/270/223 216/263/216
f 223/270/223 224/271/224 216/263/216
f 224/271/224 225/272/225 216/263/216
f 225/272/225 226/273/226 216/263/216
f 226/273/226 227/274/227 216/263/216
f 227/274/227 228/275/228 216/263/216
f 228/275/228 229/276/229 216/263/216
f 216/263/216 229/276/229 214/261/214
f 230/277/230 231/278/231 232/279/232
f 232/279/232 231/278/231 233/280/233
f 233/280/233 231/278/231 234/281/234
f 234/281/234 231/278/231 235/282/235
f 235/282/235 231/278/231 236/283/236
f 236/283/236 231/278/231 237/284/237
f 237/284/237 231/278/231 238/285/238
f 238/285/238 231/278/231 239/286/239
f 239/286/239 231/278/231 240/287/240
f 240/287/240 231/278/231 241/288/241
f 241/288/241 231/278/231 242/289/242
f 242/289/242 231/278/231 243/290/243
f 243/290/243 231/278/231 244/291/244
f 244/291/244 231/278/231 245/292/245
f 245/292/245 231/278/231 230/277/230
f 214/261/214 246/293/246 247/294/247
f 247/294/247 215/262/215 214/261/214
f 215/262/215 247/294/247 248/295/248
f 248/295/248 217/264/217 215/262/215
f 217/264/217 248/295/248 249/296/249
f 249/296/249 218/265/218 217/264/217
f 218/265/218 249/296/249 250/297/250
f 250/297/250 219/266/219 218/265/218
f 219/266/219 250/297/250 251/298/251
f 251/298/251 220/267/220 219/266/219
f 220/267/220 251/298/251 252/299/252
f 252/299/252 221/268/221 220/267/220
f 221/268/221 252/299/252 253/300/253
f 253/300/253 222/269/222 221/268/221
f 222/269/222 253/300/253 254/301/254
f 254/301/254 223/270/223 222/269/222
f 223/270/223 254/301/254 255/302/255
f 255/302/255 224/271/224 223/270/223
f 224/271/224 255/302/255 256/303/256
f 256/303/256 225/272/225 224/271/224
f 225/272/225 256/303/256 257/304/257
f 257/304/257 226/273/226 225/272/225
f 226/273/226 257/304/257 258/305/258
f 258/305/258 227/274/227 226/273/226
f 227/274/227 258/305/258 259/306/259
f 259/306/259 228/275/228 227/274/227
f 228/275/228 259/306/259 260/307/260
f 260/307/260 229/276/229 228/275/228
f 229/276/229 260/307/260 246/293/246
f 246/293/246 214/261/214 229/276/229
f 246/308/246 230/277/230 232/279/232
f 232/279/232 247/309/247 246/308/246
f 247/309/247 232/279/232 233/280/233
f 233/280/233 248/310/248 247/309/247
f 248/310/248 233/280/233 234/281/234
f 234/281/234 249/311/249 248/310/248
f 249/311/249 234/281/234 235/282/235
f 235/282/235 250/312/250 249/311/249
f 250/312/250 235/282/235 236/283/236
f 236/283/236 251/313/251 250/312/250
f 251/313/251 236/283/236 237/284/237
f 237/284/237 252/314/252 251/313/251
f 252/314/252 237/284/237 238/285/238
f 238/285/238 253/315/253 252/314/252
f 253/315/253 238/285/238 239/286/239
f 239/286/239 254/316/254 253/315/253
f 254/316/254 239/286/239 240/287/240
f 240/287/240 255/317/255 254/316/254
f 255/317/255 240/287/240 241/288/241
f 241/288/241 256/318/256 255/317/255
f 256/318/256 241/288/241 242/289/242
f 242/289/242 257/319/257 256/318/256
f 257/319/257 242/289/242 243/290/243
f 243/290/243 258/320/258 257/319/257
f 258/320/258 243/290/243 244/291/244
f 244/291/244 259/321/259 258/320/258
f 259/321/259 244/291/244 245/292/245
f 245/292/245 260/322/260 259/321/259
f 260/322/260 245/292/245 230/277/230
f 230/277/230 246/308/246 260/322/260
s 7
f 261/323/261 262/324/262 263/325/263
f 263/325/263 264/326/264 261/323/261
f 262/324/262 265/327/265 266/328/266
f 266/328/266 263/325/263 262/324/262
f 265/327/265 267/329/267 268/330/268
f 268/330/268 266/328/266 265/327/265
f 267/329/267 269/331/269 270/332/270
f 270/332/270 268/330/268 267/329/267
f 269/331/269 271/333/271 272/334/272
f 272/334/272 270/332/270 269/331/269
f 271/333/271 273/335/273 274/336/274
f 274/336/274 272/334/272 271/333/271
f 273/335/273 261/337/261 264/338/264
f 264/338/264 274/336/274 273/335/273
f 264/326/264 263/325/263 275/339/275
f 275/339/275 276/340/276 264/326/264
f 263/325/263 266/328/266 277/341/277
f 277/341/277 275/339/275 263/325/263
f 266/328/266 268/330/268 278/342/278
f 278/342/278 277/341/277 266/328/266
f 268/330/268 270/332/270 279/343/279
f 279/343/279 278/342/278 268/330/268
f 270/332/270 272/334/272 280/344/280
f 280/344/280 279/343/279 270/332/270
f 272/334/272 274/336/274 281/345/281
f 281/345/281 280/344/280 272/334/272
f 274/336/274 264/338/264 276/346/276
f 276/346/276 281/345/281 274/336/274
f 262/324/262 261/323/261 282/347/282
f 282/347/282 283/348/283 262/324/262
f 261/337/261 273/335/273 284/349/284
f 284/349/284 282/350/282 261/337/261
f 273/335/273 271/333/271 285/351/285
f 285/351/285 284/349/284 273/335/273
f 271/333/271 269/331/269 286/352/286
f 286/352/286 285/351/285 271/333/271
f 269/331/269 267/329/267 287/353/287
f 287/353/287 286/352/286 269/331/269
f 267/329/267 265/327/265 288/354/288
f 288/354/288 287/353/287 267/329/267
f 265/327/265 262/324/262 283/348/283
f 283/348/283 288/354/288 265/327/265
s 8
f 289/355/289 290/356/290 291/357/291
f 290/356/290 292/358/292 291/357/291
f 292/358/292 293/359/293 291/357/291
f 293/359/293 294/360/294 291/357/291
f 294/360/294 295/361/295 291/357/291
f 295/361/295 296/362/296 291/357/291
f 296/362/296 297/363/297 291/357/291
f 297/363/297 298/364/298 291/357/291
f 298/364/298 299/365/299 291/357/291
f 299/365/299 300/366/300 291/357/291
f 300/366/300 301/367/301 291/357/291
f 301/367/301 302/368/302 291/357/291
f 302/368/302 303/369/303 291/357/291
f 303/369/303 304/370/304 291/357/291
f 291/357/291 304/370/304 289/355/289
f 305/371/305 306/372/306 307/373/307
f 305/371/305 308/374/308 306/372/306
f 305/371/305 309/375/309 308/374/308
f 305/371/305 310/376/310 309/375/309
f 305/371/305 311/377/311 310/376/310
f 305/371/305 312/378/312 311/377/311
f 305/371/305 313/379/313 312/378/312
f 305/371/305 314/380/314 313/379/313
f 305/371/305 315/381/315 314/380/314
f 305/371/305 316/382/316 315/381/315
f 305/371/305 317/383/317 316/382/316
f 305/371/305 318/384/318 317/383/317
f 305/371/305 319/385/319 318/384/318
f 305/371/305 320/386/320 319/385/319
f 305/371/305 307/373/307 320/386/320
f 289/355/289 321/387/321 322/388/322
f 322/388/322 290/356/290 289/355/289
f 290/356/290 322/388/322 323/389/323
f 323/389/323 292/358/292 290/356/290
f 292/358/292 323/389/323 324/390/324
f 324/390/324 293/359/293 292/358/292
f 293/359/293 324/390/324 325/391/325
f 325/391/325 294/360/294 293/359/293
f 294/360/294 325/391/325 326/392/326
f 326/392/326 295/361/295 294/360/294
f 295/361/295 326/392/326 327/393/327
f 327/393/327 296/362/296 295/361/295
f 296/362/296 327/393/327 328/394/328
f 328/394/328 297/363/297 296/362/296
f 297/363/297 328/394/328 329/395/329
f 329/395/329 298/364/298 297/363/297
f 298/364/298 329/395/329 330/396/330
f 330/396/330 299/365/299 298/364/298
f 299/365/299 330/396/330 331/397/331
f 331/397/331 300/366/300 299/365/299
f 300/366/300 331/397/331 332/398/332
f 332/398/332 301/367/301 300/366/300
f 301/367/301 332/398/332 333/399/333
f 333/399/333 302/368/302 301/367/301
f 302/368/302 333/399/333 334/400/334
f 334/400/334 303/369/303 302/368/302
f 303/369/303 334/400/334 335/401/335
f 335/401/335 304/370/304 303/369/303
f 304/370/304 335/401/335 321/387/321
f 321/387/321 289/355/289 304/370/304
f 336/402/336 337/403/337 322/404/322
f 322/404/322 321/405/321 336/402/336
f 337/403/337 338/406/338 323/407/323
f 323/407/323 322/404/322 337/403/337
f 338/406/338 339/408/339 324/409/324
f 324/409/324 323/407/323 338/406/338
f 339/408/339 340/410/340 325/411/325
f 325/411/325 324/409/324 339/408/339
f 340/410/340 341/412/341 326/413/326
f 326/413/326 325/411/325 340/410/340
f 341/412/341 342/414/342 327/415/327
f 327/415/327 326/413/326 341/412/341
f 342/414/342 343/416/343 328/417/328
f 328/417/328 327/415/327 342/414/342
f 343/416/343 344/418/344 329/419/329
f 329/419/329 328/417/328 343/416/343
f 344/418/344 345/420/345 330/421/330
f 330/421/330 329/419/329 344/418/344
f 345/420/345 346/422/346 331/423/331
f 331/423/331 330/421/330 345/420/345
f 346/422/346 347/424/347 332/425/332
f 332/425/332 331/423/331 346/422/346
f 347/424/347 348/426/348 333/427/333
f 333/427/333 332/425/332 347/424/347
f 348/426/348 349/428/349 334/429/334
f 334/429/334 333/427/333 348/426/348
f 349/428/349 350/430/350 335/431/335
f 335/431/335 334/429/334 349/428/349
f 350/430/350 336/402/336 321/405/321
f 321/405/321 335/431/335 350/430/350
f 336/402/336 307/373/307 306/372/306
f 306/372/306 337/403/337 336/402/336
f 337/403/337 306/372/306 308/374/308
f 308/374/308 338/406/338 337/403/337
f 338/406/338 308/374/308 309/375/309
f 309/375/309 339/408/339 338/406/338
f 339/408/339 309/375/309 310/376/310
f 310/376/310 340/410/340 339/408/339
f 340/410/340 310/376/310 311/377/311
f 311/377/311 341/412/341 340/410/340
f 341/412/341 311/377/311 312/378/312
f 312/378/312 342/414/342 341/412/341
f 342/414/342 312/378/312 313/379/313
f 313/379/313 343/416/343 342/414/342
f 343/416/343 313/379/313 314/380/314
f 314/380/314 344/418/344 343/416/343
f 344/418/344 314/380/314 315/381/315
f 315/381/315 345/420/345 344/418/344
f 345/420/345 315/381/315 316/382/316
f 316/382/316 346/422/346 345/420/345
f 346/422/346 316/382/316 317/383/317
f 317/383/317 347/424/347 346/422/346
f 347/424/347 317/383/317 318/384/318
f 318/384/318 348/426/348 347/424/347
f 348/426/348 318/384/318 319/385/319
f 319/385/319 349/428/349 348/426/348
f 349/428/349 319/385/319 320/386/320
f 320/386/320 350/430/350 349/428/349
f 350/430/350 320/386/320 307/373/307
f 307/373/307 336/402/336 350/430/350
s 9
f 351/432/351 352/433/352 353/434/353
f 353/434/353 354/435/354 351/432/351
f 352/433/352 355/436/355 356/437/356
f 356/437/356 353/434/353 352/433/352
f 355/436/355 357/438/357 358/439/358
f 358/439/358 356/437/356 355/436/355
f 357/440/357 359/441/359 360/442/360
f 360/442/360 358/443/358 357/440/357
f 359/441/359 361/444/361 362/445/362
f 362/445/362 360/442/360 359/441/359
f 361/444/361 363/446/363 364/447/364
f 364/447/364 362/445/362 361/444/361
f 363/446/363 351/432/351 354/435/354
f 354/435/354 364/447/364 363/446/363
f 354/435/354 353/434/353 365/448/365
f 365/448/365 366/449/366 354/435/354
f 353/434/353 356/437/356 367/450/367
f 367/450/367 365/448/365 353/434/353
f 356/437/356 358/439/358 368/451/368
f 368/451/368 367/450/367 356/437/356
f 358/443/358 360/442/360 369/452/369
f 369/452/369 368/453/368 358/443/358
f 360/442/360 362/445/362 370/454/370
f 370/454/370 369/452/369 360/442/360
f 362/445/362 364/447/364 371/455/371
f 371/455/371 370/454/370 362/445/362
f 364/447/364 354/435/354 366/449/366
f 366/449/366 371/455/371 364/447/364
f 366/449/366 365/448/365 372/456/372
f 372/456/372 373/457/373 366/449/366
f 365/448/365 367/450/367 374/458/374
f 374/458/374 372/456/372 365/448/365
f 367/450/367 368/451/368 375/459/375
f 375/459/375 374/458/374 367/450/367
f 368/453/368 369/452/369 376/460/376
f 376/460/376 375/461/375 368/453/368
f 369/452/369 370/454/370 377/462/377
f 377/462/377 376/460/376 369/452/369
f 370/454/370 371/455/371 378/463/378
f 378/463/378 377/462/377 370/454/370
f 371/455/371 366/449/366 373/457/373
f 373/457/373 378/463/378 371/455/371
f 352/433/352 351/432/351 379/464/379
f 379/464/379 380/465/380 352/433/352
f 351/432/351 363/446/363 381/466/381
f 381/466/381 379/464/379 351/432/351
f 363/446/363 361/444/361 382/467/382
f 382/467/382 381/466/381 363/446/363
f 361/444/361 359/441/359 383/468/383
f 383/468/383 382/467/382 361/444/361
f 359/441/359 357/440/357 384/469/384
f 384/469/384 383/468/383 359/441/359
f 357/438/357 355/436/355 385/470/385
f 385/470/385 384/471/384 357/438/357
f 355/436/355 352/433/352 380/465/380
f 380/465/380 385/470/385 355/436/355
s 10
f 386/472/386 387/473/387 388/474/388
f 387/473/387 389/475/389 388/474/388
f 389/475/389 390/476/390 388/474/388
f 390/476/390 391/477/391 388/474/388
f 391/477/391 392/478/392 388/474/388
f 392/478/392 393/479/393 388/474/388
f 393/479/393 394/480/394 388/474/388
f 394/480/394 395/481/395 388/474/388
f 395/481/395 396/482/396 388/474/388
f 396/482/396 397/483/397 388/474/388
f 397/483/397 398/484/398 388/474/388
f 398/484/398 399/485/399 388/474/388
f 399/485/399 400/486/400 388/474/388
f 400/486/400 401/487/401 388/474/388
f 388/474/388 401/487/401 386/472/386
f 402/488/402 403/489/403 404/490/404
f 404/490/404 405/491/405 402/488/402
f 403/489/403 406/492/406 407/493/407
f 407/493/407 404/490/404 403/489/403
f 406/492/406 408/494/408 409/495/409
f 409/495/409 407/493/407 406/492/406
f 408/494/408 410/496/410 411/497/411
f 411/497/411 409/495/409 408/494/408
f 410/496/410 412/498/412 413/499/413
f 413/499/413 411/497/411 410/496/410
f 412/498/412 414/500/414 415/501/415
f 415/501/415 413/499/413 412/498/412
f 414/500/414 416/502/416 417/503/417
f 417/503/417 415/501/415 414/500/414
f 416/502/416 418/504/418 419/505/419
f 419/505/419 417/503/417 416/502/416
f 418/504/418 420/506/420 421/507/421
f 421/507/421 419/505/419 418/504/418
f 420/506/420 422/508/422 423/509/423
f 423/509/423 421/507/421 420/506/420
f 422/508/422 424/510/424 425/511/425
f 425/511/425 423/509/423 422/508/422
f 424/510/424 426/512/426 427/513/427
f 427/513/427 425/511/425 424/510/424
f 426/512/426 428/514/428 429/515/429
f 429/515/429 427/513/427 426/512/426
f 428/514/428 430/516/430 431/517/431
f 431/517/431 429/515/429 428/514/428
f 430/516/430 402/488/402 405/491/405
f 405/491/405 431/517/431 430/516/430
f 386/472/386 405/518/405 404/519/404
f 404/519/404 387/473/387 386/472/386
f 387/473/387 404/519/404 407/520/407
f 407/520/407 389/475/389 387/473/387
f 389/475/389 407/520/407 409/521/409
f 409/521/409 390/476/390 389/475/389
f 390/476/390 409/521/409 411/522/411
f 411/522/411 391/477/391 390/476/390
f 391/477/391 411/522/411 413/523/413
f 413/523/413 392/478/392 391/477/391
f 392/478/392 413/523/413 415/524/415
f 415/524/415 393/479/393 392/478/392
f 393/479/393 415/524/415 417/525/417
f 417/525/417 394/480/394 393/479/393
f 394/480/394 417/525/417 419/526/419
f 419/526/419 395/481/395 394/480/394
f 395/481/395 419/526/419 421/527/421
f 421/527/421 396/482/396 395/481/395
f 396/482/396 421/527/421 423/528/423
f 423/528/423 397/483/397 396/482/396
f 397/483/397 423/528/423 425/529/425
f 425/529/425 398/484/398 397/483/397
f 398/484/398 425/529/425 427/530/427
f 427/530/427 399/485/399 398/484/398
f 399/485/399 427/530/427 429/531/429
f 429/531/429 400/486/400 399/485/399
f 400/486/400 429/531/429 431/532/431
f 431/532/431 401/487/401 400/486/400
f 401/487/401 431/532/431 405/518/405
f 405/518/405 386/472/386 401/487/401
f 402/488/402 432/533/432 403/489/403
f 403/489/403 432/533/432 406/492/406
f 406/492/406 432/533/432 408/494/408
f 408/494/408 432/533/432 410/496/410
f 410/496/410 432/533/432 412/498/412
f 412/498/412 432/533/432 414/500/414
f 414/500/414 432/533/432 416/502/416
f 416/502/416 432/533/432 418/504/418
f 418/504/418 432/533/432 420/506/420
f 420/506/420 432/533/432 422/508/422
f 422/508/422 432/533/432 424/510/424
f 424/510/424 432/533/432 426/512/426
f 426/512/426 432/533/432 428/514/428
f 428/514/428 432/533/432 430/516/430
f 430/516/430 432/533/432 402/488/402
