# Blender v3.3.0 OBJ File: ''
# www.blender.org
o MushroomStage03.005
v 0.087748 0.019215 -0.021979
v 0.103414 0.019215 -0.041129
v 0.085076 0.046474 -0.058555
v 0.075914 0.046474 -0.047356
v 0.098209 0.019215 -0.065318
v 0.082032 0.046474 -0.072700
v 0.076053 0.019215 -0.076330
v 0.069075 0.046474 -0.079140
v 0.053629 0.019215 -0.065873
v 0.055962 0.046474 -0.073025
v 0.047823 0.019215 -0.041822
v 0.052567 0.046474 -0.058960
v 0.063007 0.019215 -0.022287
v 0.061446 0.046474 -0.047536
v 0.083641 0.092531 -0.061631
v 0.074480 0.092531 -0.050432
v 0.080598 0.092531 -0.075776
v 0.067641 0.092531 -0.082216
v 0.054528 0.092531 -0.076101
v 0.051132 0.092531 -0.062036
v 0.060012 0.092531 -0.050612
v 0.086908 0.115560 -0.054625
v 0.077747 0.115560 -0.043426
v 0.083865 0.115560 -0.068770
v 0.070908 0.115560 -0.075210
v 0.057794 0.115560 -0.069095
v 0.054399 0.115560 -0.055030
v 0.063279 0.115560 -0.043606
v 0.088871 0.000000 -0.019569
v 0.105999 0.000000 -0.040505
v 0.061824 0.000000 -0.019906
v 0.045224 0.000000 -0.041263
v 0.051571 0.000000 -0.067557
v 0.076086 0.000000 -0.078989
v 0.100309 0.000000 -0.066949
v 0.081854 0.008846 0.031548
v 0.094208 0.008846 0.031394
v 0.095499 0.043345 0.017689
v 0.088274 0.043345 0.017779
v 0.101790 0.008846 0.021639
v 0.099933 0.043345 0.011985
v 0.098891 0.008846 0.009630
v 0.098237 0.043345 0.004961
v 0.087693 0.008846 0.004408
v 0.091689 0.043345 0.001908
v 0.076629 0.008846 0.009907
v 0.085219 0.043345 0.005124
v 0.074031 0.008846 0.021986
v 0.083699 0.043345 0.012187
v 0.094072 0.047545 0.020749
v 0.086848 0.047545 0.020839
v 0.098506 0.047545 0.015044
v 0.096811 0.047545 0.008021
v 0.090263 0.047545 0.004967
v 0.083793 0.047545 0.008183
v 0.082273 0.047545 0.015246
v 0.082222 -0.000000 0.030758
v 0.093819 -0.000000 0.030613
v 0.074879 -0.000000 0.021781
v 0.077318 -0.000000 0.010443
v 0.087704 -0.000000 0.005281
v 0.098215 -0.000000 0.010182
v 0.100937 -0.000000 0.021456
v 0.106783 0.148279 -0.078185
v 0.096371 0.151377 -0.091775
v 0.070491 0.144851 -0.059089
v 0.081406 0.163696 -0.099829
v 0.064621 0.165246 -0.101124
v 0.048811 0.155790 -0.095637
v 0.036467 0.154837 -0.084284
v 0.029668 0.152749 -0.068797
v 0.029781 0.144414 -0.051731
v 0.036962 0.146696 -0.036156
v 0.049924 0.143827 -0.024950
v 0.066240 0.141761 -0.020064
v 0.083020 0.133421 -0.022187
v 0.097502 0.133738 -0.030863
v 0.107307 0.142669 -0.044711
v 0.110650 0.150516 -0.061472
v 0.070491 0.109670 -0.059089
v 0.096937 0.113077 -0.089501
v 0.107026 0.113065 -0.076125
v 0.082280 0.113087 -0.097620
v 0.065586 0.113093 -0.099078
v 0.049740 0.113094 -0.093621
v 0.037483 0.113090 -0.082193
v 0.030933 0.113082 -0.066770
v 0.031219 0.113071 -0.050018
v 0.038282 0.113045 -0.034823
v 0.050893 0.112941 -0.023751
v 0.066959 0.112861 -0.018777
v 0.083866 0.111385 -0.020244
v 0.098510 0.111411 -0.029049
v 0.107721 0.112897 -0.043295
v 0.110384 0.113493 -0.059792
v 0.122883 0.146106 -0.083761
v 0.108607 0.150297 -0.102884
v 0.087605 0.163539 -0.114470
v 0.063569 0.165679 -0.116483
v 0.040700 0.156350 -0.108583
v 0.022978 0.155027 -0.092148
v 0.013501 0.152162 -0.070038
v 0.013937 0.142798 -0.046123
v 0.024192 0.143966 -0.024616
v 0.042389 0.140060 -0.009284
v 0.065234 0.137205 -0.002704
v 0.088761 0.128489 -0.005810
v 0.109129 0.128934 -0.017960
v 0.123017 0.138465 -0.037231
v 0.127948 0.147247 -0.060501
v 0.117936 0.126437 -0.081213
v 0.104785 0.126446 -0.098485
v 0.085774 0.126452 -0.108933
v 0.064168 0.126455 -0.110779
v 0.043670 0.126456 -0.103711
v 0.027794 0.126454 -0.088943
v 0.019263 0.126449 -0.069004
v 0.019548 0.126442 -0.047307
v 0.028652 0.126280 -0.027590
v 0.045154 0.125277 -0.013467
v 0.065931 0.124543 -0.007285
v 0.087385 0.116805 -0.010009
v 0.105927 0.116919 -0.021114
v 0.118455 0.124867 -0.038772
v 0.122766 0.131081 -0.060040
v 0.075541 0.015035 0.065211
v 0.063372 0.015035 0.055256
v 0.051056 0.049399 0.066101
v 0.059253 0.049399 0.072806
v 0.048002 0.015035 0.058563
v 0.040703 0.049399 0.068328
v 0.041005 0.015035 0.072642
v 0.035989 0.049399 0.077812
v 0.047649 0.015035 0.086891
v 0.040465 0.049399 0.087410
v 0.062932 0.015035 0.090581
v 0.050760 0.049399 0.089895
v 0.075345 0.015035 0.080932
v 0.059121 0.049399 0.083396
v 0.049156 0.064963 0.065537
v 0.058481 0.064963 0.073166
v 0.037377 0.064963 0.068072
v 0.032014 0.064963 0.078861
v 0.037106 0.064963 0.089781
v 0.048818 0.064963 0.092608
v 0.058331 0.064963 0.085214
v 0.054044 0.077661 0.064504
v 0.062399 0.077661 0.071340
v 0.043490 0.077661 0.066775
v 0.038685 0.077661 0.076442
v 0.043247 0.077661 0.086226
v 0.053741 0.077661 0.088759
v 0.062265 0.077661 0.082134
v 0.079713 -0.000000 0.063266
v 0.064453 -0.000000 0.050781
v 0.079468 -0.000000 0.082981
v 0.063900 -0.000000 0.095081
v 0.044734 -0.000000 0.090454
v 0.036401 -0.000000 0.072585
v 0.045177 -0.000000 0.054929
v 0.108522 0.064548 0.024598
v 0.110378 0.066096 0.016253
v 0.089568 0.062837 0.016845
v 0.108656 0.061710 0.007943
v 0.103763 0.062676 0.001107
v 0.096590 0.068299 -0.003179
v 0.088285 0.067823 -0.004257
v 0.080178 0.066781 -0.001887
v 0.073686 0.062619 0.003634
v 0.070034 0.063758 0.011380
v 0.069908 0.062325 0.019935
v 0.073276 0.061294 0.027745
v 0.079473 0.057129 0.033482
v 0.087441 0.057287 0.036237
v 0.095885 0.061747 0.035543
v 0.103370 0.065665 0.031442
v 0.089568 0.044042 0.016845
v 0.108284 0.046508 0.017172
v 0.106533 0.046508 0.024756
v 0.106799 0.046508 0.009531
v 0.102334 0.046508 0.003155
v 0.095662 0.046508 -0.000854
v 0.087937 0.046508 -0.001802
v 0.080493 0.046508 0.000473
v 0.074619 0.046508 0.005580
v 0.071329 0.046508 0.012634
v 0.071194 0.046641 0.020417
v 0.074235 0.046508 0.027582
v 0.079927 0.046508 0.032890
v 0.087287 0.046508 0.035424
v 0.095041 0.046508 0.034746
v 0.101849 0.046508 0.030972
v 0.113260 0.053642 0.027893
v 0.115645 0.053646 0.017318
v 0.118960 0.062384 0.017461
v 0.116068 0.060232 0.029202
v 0.113540 0.053649 0.006692
v 0.116698 0.058511 0.005490
v 0.107311 0.053651 -0.002165
v 0.109661 0.059806 -0.004569
v 0.098028 0.053651 -0.007737
v 0.099093 0.065499 -0.010916
v 0.087283 0.053650 -0.009070
v 0.086876 0.064818 -0.012420
v 0.076918 0.053648 -0.005933
v 0.075186 0.063343 -0.008818
v 0.068709 0.053644 0.001140
v 0.066104 0.058610 -0.000769
v 0.064089 0.053563 0.010951
v 0.061228 0.059133 0.010255
v 0.063984 0.053062 0.021796
v 0.061353 0.057129 0.022242
v 0.068288 0.052696 0.031728
v 0.066302 0.055663 0.033067
v 0.076216 0.048832 0.039061
v 0.075052 0.051292 0.040984
v 0.086416 0.048889 0.042589
v 0.086160 0.051521 0.044874
v 0.097191 0.052858 0.041714
v 0.097984 0.056310 0.044109
v 0.106711 0.055961 0.036536
v 0.108599 0.060743 0.038622
v 0.113307 0.064902 0.027432
v 0.115695 0.066793 0.016965
v 0.113565 0.062697 0.006433
v 0.107335 0.063849 -0.002333
v 0.098104 0.069512 -0.007858
v 0.087433 0.068920 -0.009220
v 0.077128 0.067633 -0.006159
v 0.068983 0.063148 0.000841
v 0.064456 0.063936 0.010574
v 0.064348 0.062176 0.021312
v 0.068637 0.060895 0.031158
v 0.076526 0.056612 0.038435
v 0.086664 0.056811 0.041947
v 0.097367 0.061460 0.041098
v 0.106807 0.065674 0.035977
v -0.000220 0.027162 -0.021757
v -0.033064 0.027162 -0.033250
v -0.039684 0.040749 -0.014242
v -0.016017 0.040749 -0.005960
v -0.062526 0.027162 -0.014737
v -0.060914 0.040749 -0.000902
v -0.066422 0.027162 0.019840
v -0.063721 0.040749 0.024014
v -0.041818 0.027162 0.044445
v -0.045992 0.040749 0.041744
v -0.007241 0.027162 0.040549
v -0.021076 0.040749 0.038936
v 0.011272 0.027162 0.011086
v -0.007736 0.040749 0.017706
v -0.040089 0.094817 -0.031846
v -0.020883 0.094817 -0.025125
v -0.057319 0.094817 -0.021020
v -0.059597 0.094817 -0.000799
v -0.045209 0.094817 0.013589
v -0.024988 0.094817 0.011311
v -0.014162 0.094817 -0.005919
v -0.024271 0.137909 -0.017292
v -0.043478 0.137909 -0.024013
v -0.037136 0.175119 -0.026679
v -0.017930 0.175119 -0.019958
v -0.060707 0.137909 -0.013187
v -0.054366 0.175119 -0.015853
v -0.062986 0.137909 0.007034
v -0.056644 0.175119 0.004368
v -0.048597 0.137909 0.021422
v -0.042256 0.175119 0.018756
v -0.028377 0.137909 0.019144
v -0.022035 0.175119 0.016478
v -0.017550 0.137909 0.001914
v -0.011209 0.175119 -0.000752
v 0.003652 0.000000 -0.025630
v -0.033677 0.000000 -0.038691
v 0.016714 -0.000000 0.011699
v -0.004327 -0.000000 0.045185
v -0.043627 -0.000000 0.049613
v -0.071591 -0.000000 0.021649
v -0.067163 0.000000 -0.017651
v -0.072198 0.218185 -0.048809
v -0.085150 0.222542 -0.028513
v -0.029506 0.213364 -0.010034
v -0.104300 0.239866 -0.009070
v -0.097937 0.242046 0.013734
v -0.083082 0.228748 0.031990
v -0.046436 0.227408 0.047049
v -0.022699 0.224471 0.048584
v -0.000200 0.216233 0.040227
v 0.016929 0.221659 0.023246
v 0.025503 0.217624 0.000725
v 0.024112 0.209018 -0.023186
v 0.013236 0.197290 -0.044341
v -0.005196 0.197735 -0.059307
v -0.028213 0.210294 -0.065603
v -0.051971 0.221330 -0.061960
v -0.087734 0.206027 -0.068262
v -0.083827 0.194274 -0.064355
v -0.110869 0.196504 -0.040297
v -0.122402 0.212088 -0.044184
v -0.124360 0.203393 -0.011065
v -0.127948 0.230857 -0.010323
v -0.116046 0.204534 0.019827
v -0.119013 0.233962 0.023077
v -0.101247 0.199730 0.043282
v -0.097159 0.220862 0.050053
v -0.049209 0.199025 0.064147
v -0.050570 0.218942 0.070009
v -0.017306 0.197498 0.065846
v -0.016163 0.214789 0.071736
v 0.012423 0.194693 0.054396
v 0.015625 0.207160 0.059184
v 0.034778 0.192999 0.031794
v 0.039148 0.202933 0.034706
v 0.045684 0.190036 0.002003
v 0.050364 0.197289 0.002860
v 0.043549 0.175196 -0.029522
v 0.047694 0.180488 -0.030554
v 0.029039 0.163789 -0.057422
v 0.032164 0.168176 -0.059935
v 0.004691 0.164127 -0.077257
v 0.006513 0.168821 -0.080931
v -0.025649 0.188825 -0.085798
v -0.025517 0.194983 -0.090296
v -0.057002 0.198938 -0.081351
v -0.058895 0.207468 -0.085998
v -0.087311 0.215129 -0.067404
v -0.121421 0.221022 -0.043547
v -0.126631 0.239645 -0.010220
v -0.117729 0.242655 0.022512
v -0.096288 0.229534 0.048935
v -0.066045 0.227675 0.064450
v -0.016563 0.223645 0.070548
v 0.014832 0.216177 0.058469
v 0.038321 0.217819 0.034571
v 0.049830 0.206626 0.003149
v 0.047538 0.189938 -0.030207
v 0.032117 0.177680 -0.059806
v 0.006263 0.178306 -0.080878
v -0.025884 0.204383 -0.089963
v -0.059008 0.216733 -0.085286
v -0.074266 0.179011 -0.054794
v -0.029506 0.160430 -0.010034
v -0.089893 0.177858 -0.032926
v -0.093951 0.177918 -0.007550
v -0.087542 0.178111 0.017363
v -0.074005 0.177402 0.035885
v -0.045840 0.179094 0.051026
v -0.019583 0.179068 0.052419
v 0.004970 0.179031 0.043027
v 0.023619 0.178930 0.024485
v 0.033302 0.178493 -0.000054
v 0.034127 0.171494 -0.027058
v 0.020919 0.164888 -0.050861
v -0.000045 0.164980 -0.067884
v -0.026202 0.178310 -0.073638
v -0.051736 0.180859 -0.067880
v -0.023858 0.013022 0.081202
v -0.008108 0.013022 0.081005
v -0.005848 0.027682 0.071355
v -0.021851 0.027682 0.071490
v 0.001558 0.013022 0.068569
v 0.003974 0.027682 0.062807
v -0.002138 0.013022 0.053258
v 0.000218 0.027682 0.052283
v -0.016413 0.013022 0.046601
v -0.014286 0.027682 0.047708
v -0.030518 0.013022 0.053612
v -0.028618 0.027682 0.052526
v -0.033831 0.013022 0.069011
v -0.031985 0.027682 0.063110
v -0.006462 0.038204 0.063533
v -0.015673 0.038204 0.063648
v -0.000809 0.038204 0.056261
v -0.002971 0.038204 0.047307
v -0.011319 0.038204 0.043414
v -0.019567 0.038204 0.047514
v -0.021505 0.038204 0.056519
v -0.006201 0.052864 0.062974
v -0.015412 0.052864 0.063089
v -0.000548 0.052864 0.055701
v -0.002710 0.052864 0.046747
v -0.011058 0.052864 0.042854
v -0.019306 0.052864 0.046954
v -0.021244 0.052864 0.055959
v -0.008281 0.067525 0.067434
v -0.017491 0.067525 0.067548
v -0.002628 0.067525 0.060161
v -0.004790 0.067525 0.051207
v -0.013138 0.067525 0.047314
v -0.021386 0.065079 0.051414
v -0.023324 0.065079 0.060419
v -0.024847 -0.000000 0.083323
v -0.007066 -0.000000 0.083102
v -0.036107 -0.000000 0.069560
v -0.032366 -0.000000 0.052175
v -0.016442 -0.000000 0.044261
v -0.000326 -0.000000 0.051776
v 0.003847 -0.000000 0.069062
v -0.004026 0.086424 0.064053
v -0.003157 0.087406 0.059656
v -0.014023 0.085132 0.062457
v -0.004126 0.086691 0.055568
v -0.006424 0.084860 0.052506
v -0.009521 0.083111 0.050679
v -0.013162 0.085168 0.050149
v -0.017043 0.085375 0.051171
v -0.020443 0.084923 0.053908
v -0.022458 0.083475 0.057973
v -0.022570 0.083917 0.062429
v -0.020930 0.084441 0.066271
v -0.018083 0.084190 0.068910
v -0.014484 0.084273 0.070154
v -0.010482 0.084696 0.069818
v -0.006696 0.085449 0.067711
v -0.014023 0.063058 0.062457
v 0.009837 0.065265 0.062873
v 0.007605 0.065265 0.072542
v 0.007944 0.065265 0.053133
v 0.002252 0.065265 0.045004
v -0.006254 0.065265 0.039893
v -0.016103 0.062819 0.038684
v -0.025592 0.062819 0.041585
v -0.033081 0.062819 0.048095
v -0.037275 0.062819 0.057089
v -0.037448 0.065265 0.067011
v -0.033571 0.065265 0.076145
v -0.026314 0.065265 0.082912
v -0.016931 0.065265 0.086143
v -0.007046 0.065265 0.085278
v 0.001633 0.065265 0.080467
v 0.023447 0.086443 0.063243
v 0.019760 0.083699 0.078210
v 0.020564 0.090149 0.047980
v 0.011592 0.090753 0.035157
v -0.001880 0.084823 0.027065
v -0.017455 0.083954 0.025148
v -0.032358 0.087665 0.029740
v -0.043937 0.081631 0.040001
v -0.050153 0.082298 0.054055
v -0.049993 0.077298 0.069338
v -0.043685 0.075429 0.083138
v -0.032530 0.072302 0.093231
v -0.018368 0.072593 0.098191
v -0.003294 0.078700 0.097215
v 0.010239 0.084351 0.090219
v 0.010140 0.089202 0.072341
v 0.016241 0.089653 0.075955
v 0.019285 0.092064 0.062610
v 0.012507 0.091175 0.061703
v 0.016570 0.095486 0.049184
v 0.010311 0.094226 0.051109
v 0.008628 0.095908 0.038008
v 0.004074 0.094413 0.042394
v -0.003141 0.089939 0.030963
v -0.005071 0.088393 0.036928
v -0.016745 0.089185 0.029227
v -0.015659 0.087786 0.035555
v -0.029883 0.093135 0.033129
v -0.025994 0.092048 0.038577
v -0.040266 0.087416 0.042054
v -0.034270 0.086742 0.045615
v -0.046038 0.088422 0.054463
v -0.038927 0.088195 0.055490
v -0.046176 0.083732 0.068152
v -0.039088 0.083922 0.066397
v -0.040708 0.082099 0.080704
v -0.034794 0.082607 0.076353
v -0.030650 0.079084 0.089981
v -0.026893 0.079744 0.083667
v -0.017726 0.079338 0.094459
v -0.016735 0.079945 0.087180
v -0.004081 0.085265 0.093377
v -0.005970 0.085631 0.086295
v 0.007955 0.090637 0.086848
v 0.003572 0.090626 0.081067
v 0.043812 0.100969 0.051781
v 0.035710 0.094941 0.057988
v 0.055450 0.101572 0.073298
v 0.030909 0.102285 0.066910
v 0.030137 0.103209 0.076916
v 0.033408 0.097572 0.086341
v 0.040176 0.104879 0.093699
v 0.049408 0.103634 0.097752
v 0.059582 0.098665 0.097685
v 0.068867 0.100026 0.093404
v 0.075547 0.098315 0.085677
v 0.078460 0.097084 0.075951
v 0.077195 0.092112 0.065948
v 0.072022 0.092301 0.057314
v 0.063767 0.097625 0.051469
v 0.053775 0.102303 0.049476
v 0.055450 0.073490 0.073298
v 0.034342 0.075685 0.054949
v 0.043630 0.075685 0.047950
v 0.028704 0.075685 0.065121
v 0.027690 0.075685 0.076706
v 0.031476 0.075685 0.087702
v 0.039408 0.075685 0.096208
v 0.050113 0.075685 0.100752
v 0.061741 0.075685 0.100549
v 0.072281 0.075685 0.095634
v 0.079911 0.075685 0.086857
v 0.083311 0.075685 0.075735
v 0.081894 0.075685 0.064192
v 0.075904 0.075685 0.054223
v 0.066378 0.075685 0.047553
v 0.054962 0.075685 0.045334
v 0.038943 0.087834 0.037899
v 0.026056 0.087840 0.047712
v 0.022401 0.091040 0.044364
v 0.036987 0.097680 0.033704
v 0.018261 0.087845 0.061895
v 0.013492 0.100997 0.060239
v 0.016884 0.087847 0.078015
v 0.011886 0.102644 0.078511
v 0.022157 0.087848 0.093309
v 0.017886 0.095694 0.095924
v 0.033176 0.087846 0.105154
v 0.030425 0.104532 0.109379
v 0.048052 0.087843 0.111519
v 0.047264 0.102328 0.116483
v 0.064241 0.087837 0.111307
v 0.065389 0.095257 0.115994
v 0.078951 0.087717 0.104514
v 0.081558 0.096039 0.108059
v 0.089488 0.086968 0.092202
v 0.092927 0.093044 0.094218
v 0.094100 0.086421 0.076700
v 0.097659 0.090854 0.077076
v 0.092068 0.080647 0.060693
v 0.095248 0.084323 0.059611
v 0.083783 0.080732 0.046859
v 0.086270 0.084665 0.044489
v 0.070609 0.086662 0.037512
v 0.072002 0.091821 0.034009
v 0.054741 0.091299 0.034296
v 0.054582 0.098445 0.030095
v 0.038447 0.104659 0.038381
v 0.025661 0.097628 0.048068
v 0.017984 0.107252 0.062167
v 0.016695 0.108686 0.078184
v 0.021955 0.101690 0.093375
v 0.032860 0.110662 0.105182
v 0.047595 0.108739 0.111576
v 0.063640 0.102037 0.111386
v 0.078170 0.103215 0.104593
v 0.088607 0.100586 0.092406
v 0.093154 0.098672 0.077018
v 0.091113 0.092272 0.061113
v 0.082882 0.092569 0.047356
v 0.069817 0.099515 0.038048
v 0.054093 0.105811 0.034843
vt 0.332700 0.458400
vt 0.308700 0.443400
vt 0.336700 0.407100
vt 0.354100 0.413200
vt 0.506600 0.432600
vt 0.476700 0.441200
vt 0.451900 0.408500
vt 0.470200 0.404900
vt 0.445900 0.443600
vt 0.433000 0.410100
vt 0.415000 0.447700
vt 0.413800 0.412500
vt 0.387000 0.455300
vt 0.394200 0.415000
vt 0.360100 0.461400
vt 0.374000 0.415900
vt 0.340000 0.353200
vt 0.358500 0.353700
vt 0.445400 0.352100
vt 0.462900 0.349400
vt 0.428400 0.354600
vt 0.411400 0.355600
vt 0.394200 0.355600
vt 0.376600 0.354800
vt 0.340300 0.324300
vt 0.357400 0.322100
vt 0.447300 0.322100
vt 0.465200 0.318300
vt 0.428600 0.325100
vt 0.409300 0.326800
vt 0.391100 0.326100
vt 0.374400 0.323500
vt 0.326200 0.481400
vt 0.295500 0.465600
vt 0.360100 0.485300
vt 0.391100 0.479200
vt 0.419700 0.471900
vt 0.449700 0.468100
vt 0.482100 0.464700
vt 0.514700 0.455600
vt 0.895900 0.074800
vt 0.896100 0.060700
vt 0.942900 0.059000
vt 0.943500 0.069000
vt 0.899100 0.046800
vt 0.943700 0.049600
vt 0.903000 0.032400
vt 0.945600 0.040700
vt 0.906400 0.017200
vt 0.948400 0.032300
vt 0.912800 0.114600
vt 0.905800 0.101300
vt 0.948400 0.087700
vt 0.952800 0.095700
vt 0.899600 0.088400
vt 0.945300 0.078700
vt 0.949100 0.060900
vt 0.950500 0.068100
vt 0.948500 0.053400
vt 0.950900 0.044100
vt 0.954700 0.035500
vt 0.952000 0.082700
vt 0.956400 0.090400
vt 0.950800 0.075500
vt 0.885200 0.076200
vt 0.885100 0.060200
vt 0.889200 0.091600
vt 0.895600 0.105500
vt 0.902000 0.118700
vt 0.891800 0.030100
vt 0.895000 0.015600
vt 0.888000 0.044800
vt 0.759500 0.256800
vt 0.739400 0.264200
vt 0.734200 0.210400
vt 0.714000 0.264600
vt 0.695800 0.255100
vt 0.683800 0.235000
vt 0.678900 0.214700
vt 0.682500 0.193900
vt 0.695800 0.174300
vt 0.714100 0.163100
vt 0.735400 0.159900
vt 0.755800 0.165500
vt 0.775000 0.178600
vt 0.784300 0.197300
vt 0.783700 0.220900
vt 0.774800 0.242100
vt 0.428600 0.594000
vt 0.472400 0.575500
vt 0.476200 0.594700
vt 0.461200 0.559700
vt 0.444600 0.549400
vt 0.425500 0.546700
vt 0.406700 0.552100
vt 0.391500 0.564600
vt 0.382500 0.582200
vt 0.381300 0.602100
vt 0.388400 0.620900
vt 0.402800 0.635200
vt 0.421800 0.642900
vt 0.442300 0.641300
vt 0.459800 0.630700
vt 0.471400 0.614000
vt 0.773100 0.273600
vt 0.745300 0.284100
vt 0.711200 0.284200
vt 0.684200 0.270100
vt 0.666200 0.242900
vt 0.659400 0.213700
vt 0.664900 0.183800
vt 0.683200 0.157300
vt 0.708800 0.142000
vt 0.738600 0.137900
vt 0.767300 0.146200
vt 0.792800 0.164800
vt 0.806000 0.191000
vt 0.806000 0.222900
vt 0.794100 0.252400
vt 0.497400 0.594400
vt 0.491400 0.567000
vt 0.517300 0.551900
vt 0.522800 0.593900
vt 0.475200 0.545200
vt 0.500500 0.509900
vt 0.451200 0.530000
vt 0.467900 0.489100
vt 0.424400 0.526200
vt 0.424600 0.490300
vt 0.397600 0.533800
vt 0.384100 0.502200
vt 0.375700 0.551800
vt 0.353900 0.528900
vt 0.362200 0.576300
vt 0.340800 0.569500
vt 0.360200 0.605200
vt 0.338400 0.607600
vt 0.370900 0.631700
vt 0.353700 0.641000
vt 0.391300 0.651400
vt 0.380000 0.664500
vt 0.419600 0.657500
vt 0.416000 0.673000
vt 0.446800 0.655700
vt 0.452900 0.670100
vt 0.474100 0.645100
vt 0.488800 0.656000
vt 0.494800 0.623600
vt 0.514500 0.630000
vt 0.782700 0.513700
vt 0.786300 0.532700
vt 0.739400 0.544600
vt 0.737100 0.530700
vt 0.785100 0.552400
vt 0.739300 0.558700
vt 0.782500 0.572900
vt 0.738400 0.572600
vt 0.780800 0.594100
vt 0.737800 0.586400
vt 0.779300 0.614800
vt 0.737300 0.599900
vt 0.775400 0.634400
vt 0.736200 0.613100
vt 0.773000 0.496900
vt 0.732300 0.518100
vt 0.718300 0.546900
vt 0.716500 0.532400
vt 0.719400 0.560400
vt 0.719800 0.573200
vt 0.718800 0.585800
vt 0.717800 0.598700
vt 0.716200 0.612800
vt 0.714600 0.517300
vt 0.695400 0.546300
vt 0.693500 0.533900
vt 0.697300 0.558700
vt 0.697400 0.572300
vt 0.697000 0.586600
vt 0.695600 0.600800
vt 0.692900 0.614100
vt 0.693400 0.521100
vt 0.800800 0.506300
vt 0.806000 0.530100
vt 0.788700 0.485000
vt 0.798200 0.619100
vt 0.792600 0.642100
vt 0.800300 0.596900
vt 0.802400 0.575300
vt 0.805200 0.553400
vt 0.473700 0.942300
vt 0.474700 0.931800
vt 0.500000 0.940600
vt 0.480500 0.921900
vt 0.488800 0.915900
vt 0.500600 0.913200
vt 0.510500 0.915400
vt 0.518900 0.921500
vt 0.524700 0.931500
vt 0.525800 0.942200
vt 0.522600 0.952500
vt 0.515700 0.960400
vt 0.505400 0.965600
vt 0.494900 0.965700
vt 0.484400 0.960800
vt 0.476900 0.952400
vt 0.161700 0.919100
vt 0.151500 0.939300
vt 0.144200 0.933400
vt 0.160500 0.941700
vt 0.169800 0.940200
vt 0.177500 0.935100
vt 0.182600 0.927300
vt 0.184200 0.918200
vt 0.182000 0.909100
vt 0.176200 0.901700
vt 0.167900 0.897200
vt 0.158400 0.896600
vt 0.149300 0.899800
vt 0.142500 0.906500
vt 0.139300 0.915500
vt 0.140000 0.925000
vt 0.134600 0.941300
vt 0.145900 0.950000
vt 0.140100 0.959400
vt 0.127200 0.947000
vt 0.159800 0.954000
vt 0.158900 0.961900
vt 0.174300 0.951600
vt 0.178100 0.959800
vt 0.185900 0.943600
vt 0.197200 0.952500
vt 0.193800 0.931700
vt 0.206900 0.937100
vt 0.196200 0.917700
vt 0.208900 0.918700
vt 0.193200 0.903900
vt 0.200400 0.900600
vt 0.184300 0.892400
vt 0.189300 0.886700
vt 0.171500 0.885900
vt 0.173600 0.880000
vt 0.157400 0.885000
vt 0.157300 0.880100
vt 0.144300 0.891700
vt 0.142300 0.887900
vt 0.134400 0.901400
vt 0.130400 0.899400
vt 0.127400 0.914500
vt 0.121900 0.914800
vt 0.126500 0.929200
vt 0.120100 0.931600
vt 0.466800 0.943900
vt 0.468500 0.930600
vt 0.474900 0.918000
vt 0.486200 0.909900
vt 0.500800 0.907300
vt 0.513500 0.909700
vt 0.524100 0.917500
vt 0.531600 0.929900
vt 0.532500 0.943500
vt 0.528800 0.956300
vt 0.519900 0.966300
vt 0.507100 0.972500
vt 0.493500 0.972700
vt 0.480200 0.966900
vt 0.471200 0.956300
vt 0.459700 0.945000
vt 0.462100 0.928800
vt 0.470000 0.913400
vt 0.482700 0.904600
vt 0.500100 0.901200
vt 0.516600 0.904000
vt 0.529900 0.914500
vt 0.538600 0.929100
vt 0.539600 0.944700
vt 0.534800 0.961000
vt 0.522300 0.973300
vt 0.507300 0.980300
vt 0.493700 0.980100
vt 0.478600 0.974200
vt 0.465500 0.960700
vt 0.070300 0.055700
vt 0.107700 0.050900
vt 0.120500 0.078800
vt 0.083600 0.086300
vt 0.145500 0.053400
vt 0.157700 0.074100
vt 0.186300 0.053900
vt 0.190800 0.070700
vt 0.229500 0.054100
vt 0.222000 0.070000
vt 0.271100 0.062000
vt 0.252000 0.076400
vt 0.308600 0.082400
vt 0.278400 0.092700
vt 0.035700 0.074300
vt 0.051900 0.095700
vt 0.129400 0.150100
vt 0.105700 0.151300
vt 0.153500 0.147200
vt 0.179300 0.144900
vt 0.207400 0.145400
vt 0.235200 0.149700
vt 0.260200 0.157300
vt 0.081700 0.153800
vt 0.107200 0.206000
vt 0.133200 0.203000
vt 0.131800 0.251100
vt 0.107400 0.254600
vt 0.158200 0.200700
vt 0.156000 0.248100
vt 0.181900 0.200400
vt 0.180900 0.247700
vt 0.205000 0.202500
vt 0.206200 0.249300
vt 0.228400 0.204300
vt 0.231300 0.252000
vt 0.252700 0.205800
vt 0.256800 0.254000
vt 0.081300 0.208400
vt 0.082400 0.255200
vt 0.057900 0.023400
vt 0.103600 0.015600
vt 0.015600 0.045900
vt 0.282900 0.029600
vt 0.327700 0.052400
vt 0.235100 0.020200
vt 0.189500 0.018800
vt 0.147000 0.017300
vt 0.375200 0.264600
vt 0.349500 0.248500
vt 0.403800 0.195600
vt 0.313200 0.234200
vt 0.308100 0.205800
vt 0.317700 0.174900
vt 0.352100 0.138700
vt 0.377900 0.123900
vt 0.409200 0.121100
vt 0.437900 0.131500
vt 0.459700 0.152400
vt 0.472600 0.180700
vt 0.474600 0.213000
vt 0.461900 0.239800
vt 0.435700 0.259900
vt 0.404800 0.268500
vt 0.136100 0.268500
vt 0.140400 0.284600
vt 0.094500 0.300200
vt 0.075000 0.283500
vt 0.061500 0.327800
vt 0.028400 0.319000
vt 0.051100 0.368900
vt 0.015600 0.368100
vt 0.057100 0.405600
vt 0.035900 0.423300
vt 0.102800 0.464600
vt 0.086000 0.483000
vt 0.141300 0.485200
vt 0.133300 0.506500
vt 0.184500 0.488400
vt 0.185800 0.505700
vt 0.224900 0.474800
vt 0.231500 0.487300
vt 0.254800 0.446200
vt 0.262700 0.454000
vt 0.267400 0.405000
vt 0.275200 0.408500
vt 0.265800 0.364200
vt 0.273300 0.363300
vt 0.250000 0.329300
vt 0.255200 0.323700
vt 0.219500 0.293800
vt 0.221900 0.284400
vt 0.181500 0.276500
vt 0.182000 0.264200
vt 0.368000 0.294700
vt 0.316000 0.285400
vt 0.289000 0.247100
vt 0.281700 0.206500
vt 0.292700 0.162600
vt 0.321600 0.130300
vt 0.372300 0.095300
vt 0.416900 0.091600
vt 0.456000 0.108000
vt 0.488800 0.136400
vt 0.510500 0.179000
vt 0.512200 0.223300
vt 0.494800 0.260200
vt 0.452100 0.286800
vt 0.409800 0.298600
vt 0.367200 0.306200
vt 0.313700 0.296600
vt 0.281400 0.254300
vt 0.271300 0.204800
vt 0.284100 0.155200
vt 0.329800 0.110500
vt 0.370500 0.084600
vt 0.420200 0.080300
vt 0.468700 0.095200
vt 0.500600 0.135000
vt 0.522300 0.182400
vt 0.523100 0.228300
vt 0.506700 0.263200
vt 0.462900 0.292200
vt 0.413100 0.309500
vt 0.148200 0.308300
vt 0.174800 0.383900
vt 0.119400 0.325100
vt 0.101700 0.351300
vt 0.095400 0.382300
vt 0.100300 0.409500
vt 0.122400 0.442800
vt 0.150300 0.459200
vt 0.182600 0.463200
vt 0.213800 0.453700
vt 0.238800 0.432400
vt 0.254800 0.401600
vt 0.253200 0.367000
vt 0.239600 0.336700
vt 0.212000 0.312300
vt 0.180300 0.304800
vt 0.865400 0.747000
vt 0.872600 0.765200
vt 0.854400 0.776700
vt 0.846100 0.758400
vt 0.874100 0.784800
vt 0.856000 0.791600
vt 0.874000 0.805400
vt 0.854700 0.804300
vt 0.874400 0.825600
vt 0.855000 0.823800
vt 0.874600 0.845500
vt 0.856200 0.842300
vt 0.872000 0.865400
vt 0.856400 0.855000
vt 0.864900 0.883700
vt 0.848300 0.868400
vt 0.839100 0.784400
vt 0.835200 0.773100
vt 0.841100 0.797000
vt 0.841100 0.809200
vt 0.840800 0.821100
vt 0.841000 0.832900
vt 0.839100 0.845300
vt 0.834900 0.856800
vt 0.820300 0.787700
vt 0.818500 0.776500
vt 0.822400 0.798800
vt 0.823500 0.809600
vt 0.823300 0.820400
vt 0.822200 0.831200
vt 0.820200 0.842200
vt 0.818400 0.853400
vt 0.800500 0.786800
vt 0.799300 0.775400
vt 0.803100 0.797700
vt 0.804700 0.809000
vt 0.804700 0.820900
vt 0.806100 0.832900
vt 0.803300 0.843500
vt 0.799300 0.854800
vt 0.880600 0.740200
vt 0.888400 0.761200
vt 0.887900 0.869500
vt 0.880100 0.890600
vt 0.891000 0.847400
vt 0.891000 0.825900
vt 0.890800 0.805100
vt 0.890800 0.783500
vt 0.080000 0.856700
vt 0.082100 0.861800
vt 0.067100 0.861000
vt 0.081500 0.867100
vt 0.078600 0.871600
vt 0.074800 0.874500
vt 0.070100 0.876300
vt 0.065300 0.875500
vt 0.060500 0.872700
vt 0.057200 0.867800
vt 0.056200 0.862300
vt 0.057700 0.857300
vt 0.060800 0.853500
vt 0.065200 0.851300
vt 0.070400 0.851200
vt 0.075700 0.852900
vt 0.064300 0.559800
vt 0.089800 0.573000
vt 0.082400 0.582100
vt 0.092900 0.561600
vt 0.091200 0.549700
vt 0.085200 0.539700
vt 0.074900 0.533700
vt 0.063400 0.531800
vt 0.052000 0.534300
vt 0.042700 0.541600
vt 0.036200 0.551700
vt 0.035300 0.563800
vt 0.039500 0.575200
vt 0.048100 0.584000
vt 0.059500 0.588200
vt 0.071600 0.587500
vt 0.117000 0.585400
vt 0.100500 0.602700
vt 0.126000 0.562900
vt 0.123200 0.539900
vt 0.106400 0.520600
vt 0.086000 0.506700
vt 0.063300 0.499400
vt 0.041000 0.508900
vt 0.023000 0.522300
vt 0.015600 0.544200
vt 0.015600 0.565400
vt 0.024500 0.584400
vt 0.038800 0.599100
vt 0.058200 0.610600
vt 0.080800 0.613300
vt 0.097500 0.843300
vt 0.104600 0.836400
vt 0.111400 0.853200
vt 0.102700 0.856200
vt 0.109800 0.871500
vt 0.101900 0.870200
vt 0.102100 0.886600
vt 0.095800 0.882300
vt 0.087600 0.898600
vt 0.083600 0.891300
vt 0.070100 0.903300
vt 0.070500 0.895000
vt 0.052900 0.901000
vt 0.056500 0.893800
vt 0.037600 0.891900
vt 0.044600 0.885900
vt 0.030000 0.876500
vt 0.037400 0.874400
vt 0.023300 0.859800
vt 0.034100 0.860200
vt 0.031600 0.844200
vt 0.038300 0.848100
vt 0.039300 0.829800
vt 0.046400 0.836200
vt 0.054500 0.821100
vt 0.057700 0.830200
vt 0.073700 0.821400
vt 0.073100 0.830100
vt 0.091000 0.826700
vt 0.087200 0.834500
vt 0.110500 0.828700
vt 0.119900 0.851000
vt 0.117600 0.873400
vt 0.107500 0.892600
vt 0.089600 0.906600
vt 0.070800 0.911700
vt 0.049400 0.908400
vt 0.029700 0.896500
vt 0.021900 0.878700
vt 0.015600 0.857800
vt 0.023000 0.839800
vt 0.032700 0.822800
vt 0.050300 0.812100
vt 0.070400 0.812500
vt 0.091100 0.817400
vt 0.775800 0.075500
vt 0.778600 0.061900
vt 0.808200 0.076300
vt 0.787400 0.050300
vt 0.798000 0.044300
vt 0.811300 0.043300
vt 0.825000 0.047600
vt 0.834100 0.056200
vt 0.839400 0.069000
vt 0.839200 0.081700
vt 0.833700 0.093600
vt 0.824100 0.102200
vt 0.811200 0.107100
vt 0.798800 0.105900
vt 0.786900 0.098700
vt 0.778600 0.087700
vt 0.341700 0.740800
vt 0.375400 0.741200
vt 0.372400 0.754800
vt 0.372500 0.727500
vt 0.364400 0.716200
vt 0.352500 0.709000
vt 0.338700 0.707400
vt 0.325500 0.711400
vt 0.314900 0.720400
vt 0.308900 0.733100
vt 0.308500 0.747100
vt 0.314000 0.760200
vt 0.324300 0.770000
vt 0.337800 0.774600
vt 0.351900 0.773100
vt 0.364000 0.766000
vt 0.390500 0.763100
vt 0.395100 0.741400
vt 0.402600 0.741500
vt 0.402100 0.769900
vt 0.390100 0.719700
vt 0.405300 0.711300
vt 0.377300 0.702000
vt 0.390900 0.688800
vt 0.358600 0.690600
vt 0.362200 0.679500
vt 0.337000 0.688400
vt 0.333500 0.667600
vt 0.316300 0.694600
vt 0.308300 0.677600
vt 0.299500 0.708300
vt 0.290800 0.701500
vt 0.289900 0.728200
vt 0.278700 0.725300
vt 0.289700 0.750100
vt 0.280800 0.751300
vt 0.298200 0.769800
vt 0.292000 0.773400
vt 0.316500 0.782600
vt 0.313100 0.787700
vt 0.336400 0.789400
vt 0.336100 0.795900
vt 0.359000 0.790700
vt 0.362400 0.798000
vt 0.379700 0.782500
vt 0.387000 0.789800
vt 0.757600 0.076800
vt 0.761200 0.055200
vt 0.775500 0.037400
vt 0.792100 0.027900
vt 0.813600 0.025100
vt 0.834700 0.033200
vt 0.849100 0.046100
vt 0.858100 0.065900
vt 0.857200 0.086300
vt 0.848600 0.104700
vt 0.833200 0.118000
vt 0.813300 0.125700
vt 0.792900 0.123500
vt 0.774200 0.112300
vt 0.761800 0.095600
vt 0.747100 0.075900
vt 0.751800 0.051500
vt 0.767900 0.032300
vt 0.789700 0.018900
vt 0.814700 0.015600
vt 0.838900 0.025000
vt 0.858000 0.042300
vt 0.868800 0.065700
vt 0.867100 0.090600
vt 0.855800 0.113200
vt 0.836400 0.128600
vt 0.812800 0.137100
vt 0.791100 0.134800
vt 0.770100 0.122500
vt 0.753300 0.101600
vn 0.3838 0.4185 0.8231
vn 0.8924 0.3796 0.2437
vn 0.9158 0.3647 0.1682
vn 0.3741 0.4654 0.8022
vn 0.7993 0.2379 -0.5519
vn 0.7416 0.0995 -0.6635
vn 0.0482 0.0291 -0.9984
vn -0.0151 -0.0904 -0.9958
vn -0.7958 0.0291 -0.6048
vn -0.7531 -0.0904 -0.6516
vn -0.9365 0.2379 0.2575
vn -0.9849 0.0995 0.1416
vn -0.3869 0.3796 0.8403
vn -0.4598 0.3647 0.8096
vn 0.9792 -0.0733 0.1890
vn 0.4189 -0.1322 0.8983
vn 0.7563 0.0413 -0.6530
vn -0.0082 0.1102 -0.9939
vn -0.7560 0.1102 -0.6452
vn -0.9863 0.0413 0.1596
vn -0.4846 -0.0733 0.8717
vn 0.9317 -0.2201 0.2891
vn 0.4007 -0.3182 0.8592
vn 0.8403 0.0452 -0.5403
vn 0.0535 0.2837 -0.9574
vn -0.7678 0.2837 -0.5745
vn -0.9540 0.0452 0.2964
vn -0.3774 -0.2201 0.8995
vn 0.4186 0.1371 0.8978
vn 0.9629 0.1371 0.2324
vn -0.4409 0.1371 0.8870
vn -0.9684 0.1370 0.2084
vn -0.7667 0.1371 -0.6272
vn 0.0123 0.1371 -0.9905
vn 0.7821 0.1371 -0.6079
vn -0.4180 0.1477 0.8964
vn 0.4220 0.1120 0.8996
vn 0.5449 -0.0324 0.8379
vn -0.4176 -0.1543 0.8955
vn 0.9700 0.0145 0.2429
vn 0.9776 0.1884 0.0934
vn 0.7819 -0.0822 -0.6179
vn 0.7207 0.2561 -0.6442
vn -0.0292 -0.0823 -0.9962
vn 0.0302 0.2561 -0.9662
vn -0.8095 0.0145 -0.5869
vn -0.7000 0.1884 -0.6888
vn -0.9604 0.1120 0.2551
vn -0.9921 -0.0323 0.1211
vn 0.2911 -0.4968 0.8176
vn -0.3294 -0.6265 0.7064
vn 0.9204 0.0286 0.3900
vn 0.6868 0.5657 -0.4563
vn -0.0918 0.5657 -0.8195
vn -0.8903 0.0287 -0.4544
vn -0.8135 -0.4966 0.3026
vn -0.4206 -0.0981 0.9019
vn 0.4429 -0.0981 0.8912
vn -0.9674 -0.0981 0.2335
vn -0.7858 -0.0982 -0.6107
vn -0.0124 -0.0982 -0.9951
vn 0.7702 -0.0982 -0.6302
vn 0.9729 -0.0982 0.2094
vn 0.0462 0.9988 0.0141
vn 0.2777 0.9209 0.2735
vn 0.0620 0.9651 0.2546
vn 0.2710 0.9244 0.2683
vn -0.1512 0.9591 0.2394
vn -0.1802 0.9487 0.2597
vn 0.0388 0.9898 0.1373
vn 0.0284 0.9612 0.2743
vn -0.0142 0.9782 0.2070
vn -0.0501 0.9976 0.0481
vn 0.0646 0.9811 0.1826
vn 0.2462 0.9529 0.1774
vn 0.2959 0.9375 0.1832
vn 0.0211 0.9330 0.3592
vn -0.0283 0.8920 0.4512
vn 0.0282 0.9878 0.1530
vn -0.0045 -0.9999 -0.0111
vn 0.3166 -0.8750 -0.3664
vn 0.4634 -0.8682 -0.1774
vn 0.1411 -0.8739 -0.4652
vn -0.0599 -0.8732 -0.4836
vn -0.2511 -0.8730 -0.4180
vn -0.3987 -0.8733 -0.2799
vn -0.4766 -0.8741 -0.0938
vn -0.4719 -0.8751 0.1070
vn -0.3871 -0.8771 0.2843
vn -0.2365 -0.8829 0.4057
vn -0.0920 -0.8863 0.4539
vn 0.0143 -0.9483 0.3170
vn 0.2260 -0.9591 0.1706
vn 0.4456 -0.8925 0.0699
vn 0.5259 -0.8497 -0.0377
vn 0.8136 0.4602 -0.3554
vn 0.6688 0.4789 -0.5687
vn 0.4213 0.6339 -0.6486
vn -0.1659 0.6669 -0.7265
vn -0.5416 0.5297 -0.6528
vn -0.6792 0.6021 -0.4197
vn -0.8041 0.5943 -0.0140
vn -0.8601 0.4214 0.2874
vn -0.6652 0.5284 0.5275
vn -0.3697 0.4483 0.8138
vn 0.0361 0.4573 0.8886
vn 0.3566 0.3303 0.8739
vn 0.5987 0.3469 0.7220
vn 0.7541 0.4237 0.5018
vn 0.8404 0.5340 0.0929
vn 0.8138 -0.4767 -0.3324
vn 0.5763 -0.4406 -0.6883
vn 0.2626 -0.4111 -0.8729
vn -0.1058 -0.4125 -0.9048
vn -0.4639 -0.4280 -0.7756
vn -0.7345 -0.4352 -0.5206
vn -0.8707 -0.4551 -0.1866
vn -0.8468 -0.4944 0.1963
vn -0.7063 -0.4840 0.5165
vn -0.4289 -0.5095 0.7459
vn -0.1486 -0.5204 0.8409
vn 0.1442 -0.6630 0.7346
vn 0.5746 -0.6421 0.5075
vn 0.8447 -0.4903 0.2148
vn 0.9060 -0.4215 -0.0388
vn 0.8416 0.3710 -0.3925
vn 0.2460 0.3314 -0.9109
vn 0.2077 0.1836 -0.9608
vn 0.8697 0.2814 -0.4056
vn -0.5669 0.2136 -0.7957
vn -0.6316 -0.0382 -0.7743
vn -0.9958 0.0855 -0.0341
vn -0.9798 -0.1998 -0.0047
vn -0.6140 0.0854 0.7847
vn -0.6262 -0.1998 0.7536
vn 0.2452 0.2136 0.9457
vn 0.1871 -0.0382 0.9816
vn 0.8559 0.3314 0.3971
vn 0.8695 0.1836 0.4585
vn 0.1682 -0.0731 -0.9830
vn 0.8969 -0.1440 -0.4182
vn -0.6675 0.0497 -0.7429
vn -0.9940 0.1082 0.0153
vn -0.6506 0.1082 0.7516
vn 0.1400 0.0497 0.9889
vn 0.8612 -0.0731 0.5031
vn 0.3119 -0.1957 -0.9298
vn 0.8580 -0.3223 -0.4000
vn -0.5069 0.1575 -0.8475
vn -0.8884 0.4547 -0.0634
vn -0.5225 0.4546 0.7213
vn 0.3234 0.1574 0.9331
vn 0.9127 -0.1957 0.3588
vn 0.8666 0.2928 -0.4041
vn 0.2244 0.2928 -0.9295
vn 0.8562 0.2928 0.4256
vn 0.2011 0.2928 0.9348
vn -0.6054 0.2928 0.7401
vn -0.9561 0.2928 -0.0119
vn -0.5868 0.2927 -0.7549
vn -0.0801 0.9968 -0.0005
vn -0.1502 0.9786 -0.1406
vn -0.0647 0.9872 0.1456
vn -0.1320 0.9839 -0.1203
vn 0.1632 0.9398 0.3002
vn 0.1819 0.9337 0.3085
vn -0.0712 0.9705 0.2304
vn -0.1454 0.9450 0.2930
vn -0.0763 0.9805 0.1812
vn 0.0350 0.9992 0.0180
vn 0.0049 0.9890 0.1480
vn 0.1078 0.9611 0.2544
vn 0.1028 0.9608 0.2575
vn -0.2538 0.9568 0.1418
vn -0.4013 0.8984 0.1784
vn -0.1659 0.9850 0.0466
vn -0.0009 -1.0000 0.0002
vn 0.4675 -0.8840 0.0074
vn 0.4275 -0.8752 0.2263
vn 0.4318 -0.8830 -0.1840
vn 0.3207 -0.8824 -0.3444
vn 0.1533 -0.8822 -0.4453
vn -0.0407 -0.8824 -0.4687
vn -0.2271 -0.8831 -0.4106
vn -0.3729 -0.8840 -0.2818
vn -0.4527 -0.8862 -0.0983
vn -0.4454 -0.8918 0.0791
vn -0.3634 -0.8992 0.2438
vn -0.1970 -0.9588 0.2048
vn -0.0276 -0.9722 0.2324
vn 0.1734 -0.9133 0.3686
vn 0.3590 -0.8586 0.3659
vn 0.7222 -0.5718 0.3892
vn 0.8331 -0.5520 0.0359
vn 0.9822 0.1861 0.0237
vn 0.8944 0.0374 0.4457
vn 0.7068 -0.6327 -0.3166
vn 0.9077 -0.0293 -0.4186
vn 0.5347 -0.5705 -0.6234
vn 0.6832 0.0248 -0.7298
vn 0.2848 -0.4974 -0.8194
vn 0.3829 0.2374 -0.8928
vn -0.0681 -0.5077 -0.8588
vn -0.1064 0.1878 -0.9764
vn -0.3846 -0.5378 -0.7502
vn -0.5319 0.1907 -0.8250
vn -0.6268 -0.6239 -0.4667
vn -0.8236 -0.0176 -0.5669
vn -0.7745 -0.6006 -0.1986
vn -0.9758 0.0793 -0.2040
vn -0.7484 -0.6525 0.1191
vn -0.9747 -0.0090 0.2232
vn -0.6418 -0.7006 0.3120
vn -0.8004 -0.0275 0.5988
vn -0.3939 -0.8262 0.4027
vn -0.5327 -0.1693 0.8292
vn 0.0266 -0.8001 0.5993
vn -0.0949 -0.1545 0.9834
vn 0.3982 -0.6369 0.6601
vn 0.2750 -0.0382 0.9607
vn 0.5765 -0.5522 0.6023
vn 0.6123 0.0767 0.7869
vn 0.4431 0.8627 0.2439
vn 0.4113 0.9093 -0.0628
vn 0.3709 0.8729 -0.3171
vn 0.4626 0.8793 -0.1132
vn 0.2932 0.9207 -0.2577
vn -0.1045 0.9183 -0.3818
vn -0.3718 0.8964 -0.2415
vn -0.4858 0.8564 -0.1746
vn -0.4786 0.8744 -0.0799
vn -0.5098 0.8323 0.2176
vn -0.3382 0.8161 0.4687
vn -0.1886 0.7716 0.6075
vn -0.2434 0.7803 0.5762
vn -0.1533 0.7897 0.5940
vn 0.2112 0.8683 0.4488
vn 0.6009 0.5271 -0.6009
vn -0.0760 0.4996 -0.8629
vn -0.1706 0.3385 -0.9254
vn 0.6472 0.4927 -0.5818
vn -0.7534 0.3869 -0.5317
vn -0.9015 0.1803 -0.3933
vn -0.9451 0.1594 0.2852
vn -0.8977 0.1489 0.4147
vn -0.2852 0.1594 0.9451
vn -0.3565 0.2424 0.9023
vn 0.5317 0.3869 0.7534
vn 0.3750 0.4294 0.8216
vn 0.8629 0.4996 0.0760
vn 0.8019 0.5657 0.1924
vn -0.0956 -0.0663 -0.9932
vn 0.6727 -0.0116 -0.7398
vn -0.8062 -0.0630 -0.5883
vn -0.9664 0.0247 0.2558
vn -0.3470 0.1423 0.9270
vn 0.5686 0.1746 0.8039
vn 0.9953 0.0927 0.0285
vn 0.7074 0.0065 -0.7067
vn -0.1502 0.0639 -0.9866
vn -0.0647 -0.0603 -0.9961
vn 0.7091 -0.1699 -0.6843
vn -0.8689 0.0647 -0.4908
vn -0.8190 0.0991 -0.5652
vn -0.9368 0.0210 0.3494
vn -0.9293 0.1814 0.3217
vn -0.3487 -0.0321 0.9367
vn -0.2909 0.1176 0.9495
vn 0.4909 -0.0686 0.8685
vn 0.5725 -0.0389 0.8189
vn 0.9870 -0.0565 0.1507
vn 0.9830 -0.1612 0.0878
vn 0.6932 0.1976 -0.6932
vn -0.1098 0.1976 -0.9741
vn 0.9741 0.1976 0.1098
vn 0.5215 0.1976 0.8300
vn -0.3238 0.1976 0.9253
vn -0.9253 0.1976 0.3238
vn -0.8300 0.1976 -0.5215
vn -0.0005 0.9988 -0.0484
vn 0.1698 0.9286 -0.3299
vn 0.1675 0.9741 -0.1519
vn 0.1194 0.9219 -0.3685
vn 0.2417 0.9676 0.0730
vn 0.2793 0.9526 0.1204
vn 0.0943 0.9932 -0.0687
vn 0.1862 0.9760 -0.1129
vn 0.0885 0.9943 -0.0594
vn 0.0359 0.9988 0.0328
vn 0.2435 0.9437 -0.2239
vn 0.2606 0.8662 -0.4263
vn 0.2485 0.8511 -0.4626
vn 0.4524 0.8515 -0.2650
vn 0.4336 0.8920 -0.1277
vn 0.1341 0.9878 -0.0789
vn -0.5577 -0.1968 -0.8064
vn -0.4954 -0.5581 -0.6657
vn -0.6311 -0.6784 -0.3762
vn -0.8268 -0.2217 -0.5169
vn -0.8788 -0.4742 0.0530
vn -0.9990 0.0252 0.0372
vn -0.8378 -0.4189 0.3501
vn -0.8868 0.0301 0.4612
vn -0.6487 -0.4299 0.6280
vn -0.5925 -0.0129 0.8054
vn -0.2172 -0.4322 0.8752
vn -0.1495 0.1218 0.9812
vn 0.1040 -0.4582 0.8828
vn 0.1407 -0.0723 0.9874
vn 0.4351 -0.5315 0.7268
vn 0.5371 -0.1518 0.8297
vn 0.6678 -0.5732 0.4748
vn 0.8207 -0.1992 0.5355
vn 0.7331 -0.6210 0.2774
vn 0.9600 -0.2179 0.1758
vn 0.6481 -0.7542 0.1053
vn 0.9401 -0.3085 -0.1450
vn 0.3847 -0.9100 -0.1546
vn 0.7571 -0.3737 -0.5359
vn -0.0240 -0.8832 -0.4684
vn 0.2937 -0.3790 -0.8775
vn -0.2788 -0.6202 -0.7332
vn -0.0315 -0.2436 -0.9694
vn -0.3468 -0.5519 -0.7584
vn -0.3496 -0.1884 -0.9178
vn -0.3937 0.6656 -0.6340
vn -0.5868 0.5834 -0.5616
vn -0.6459 0.7388 -0.1922
vn -0.5316 0.7609 0.3721
vn -0.3256 0.6638 0.6733
vn -0.2901 0.6053 0.7412
vn 0.1843 0.7054 0.6844
vn 0.4636 0.6625 0.5884
vn 0.6516 0.6805 0.3352
vn 0.8383 0.5412 -0.0663
vn 0.8267 0.4114 -0.3837
vn 0.6832 0.3680 -0.6307
vn 0.5209 0.3430 -0.7817
vn 0.3076 0.5686 -0.7630
vn -0.1520 0.6698 -0.7268
vn -0.3435 -0.8261 -0.4467
vn -0.0453 -0.9980 0.0441
vn -0.4454 -0.8674 -0.2218
vn -0.4901 -0.8709 0.0366
vn -0.4616 -0.8652 0.1956
vn -0.3104 -0.8407 0.4437
vn -0.1538 -0.7858 0.5991
vn 0.0811 -0.8039 0.5892
vn 0.2989 -0.8266 0.4768
vn 0.4431 -0.8408 0.3110
vn 0.4619 -0.8531 0.2426
vn 0.3105 -0.9279 0.2062
vn 0.0531 -0.9926 0.1092
vn -0.2205 -0.9708 -0.0941
vn -0.3052 -0.8278 -0.4707
vn -0.2366 -0.8114 -0.5345
vn -0.3853 0.3539 0.8523
vn 0.3804 0.3120 0.8706
vn 0.3379 0.5315 0.7768
vn -0.3199 0.5853 0.7450
vn 0.9635 0.0824 0.2548
vn 0.9558 0.2137 0.2020
vn 0.7573 0.0286 -0.6524
vn 0.7617 -0.1247 -0.6358
vn -0.0134 0.1088 -0.9940
vn -0.0238 -0.1517 -0.9881
vn -0.7899 0.1075 -0.6037
vn -0.7443 0.2589 -0.6157
vn -0.9289 0.2400 0.2822
vn -0.8645 0.4600 0.2023
vn 0.4500 0.3274 0.8308
vn -0.3362 0.4327 0.8365
vn 0.9599 0.2286 0.1621
vn 0.7240 -0.0811 -0.6851
vn -0.0037 -0.1848 -0.9828
vn -0.7040 0.0253 -0.7098
vn -0.8822 0.4423 0.1614
vn 0.4813 -0.0829 0.8726
vn -0.4180 -0.1479 0.8963
vn 0.9855 0.0453 0.1638
vn 0.7561 0.1241 -0.6426
vn 0.0020 0.1287 -0.9917
vn -0.7539 0.0577 -0.6545
vn -0.9769 -0.0927 0.1923
vn 0.3774 -0.2201 0.8995
vn -0.3344 -0.3325 0.8819
vn 0.9540 0.0452 0.2963
vn 0.7678 0.2837 -0.5745
vn -0.0449 0.2849 -0.9575
vn -0.8334 0.0466 -0.5507
vn -0.8806 -0.2875 0.3767
vn -0.4159 0.1769 0.8920
vn 0.4380 0.1770 0.8814
vn -0.9567 0.1769 0.2309
vn -0.7771 0.1769 -0.6040
vn -0.0123 0.1769 -0.9842
vn 0.7618 0.1769 -0.6232
vn 0.9622 0.1770 0.2070
vn -0.2288 0.9691 0.0925
vn -0.2255 0.9742 0.0061
vn -0.1160 0.9928 0.0296
vn -0.3583 0.9257 -0.1214
vn -0.4574 0.8873 -0.0591
vn -0.0288 0.9925 0.1185
vn 0.2298 0.9586 0.1684
vn 0.1096 0.9810 0.1601
vn -0.0780 0.9637 0.2555
vn -0.0021 0.9977 0.0679
vn -0.0029 0.9987 -0.0516
vn -0.0572 0.9977 0.0360
vn -0.0496 0.9838 0.1721
vn -0.0863 0.9801 0.1786
vn -0.1707 0.9803 0.0993
vn -0.2614 0.9641 0.0476
vn 0.0320 -0.9988 0.0368
vn 0.5592 -0.8290 0.0094
vn 0.4955 -0.8405 0.2191
vn 0.5288 -0.8143 -0.2392
vn 0.4029 -0.8050 -0.4354
vn 0.3017 -0.8110 -0.5013
vn 0.0419 -0.8639 -0.5020
vn -0.2749 -0.8402 -0.4675
vn -0.3972 -0.8565 -0.3297
vn -0.4994 -0.8663 -0.0111
vn -0.4807 -0.8652 0.1430
vn -0.3530 -0.9061 0.2331
vn -0.2056 -0.9355 0.2875
vn -0.0387 -0.9415 0.3348
vn 0.1743 -0.8948 0.4111
vn 0.3599 -0.8517 0.3808
vn 0.9986 0.0272 0.0445
vn 0.9026 -0.0456 0.4281
vn 0.9247 0.1082 -0.3649
vn 0.6502 0.1329 -0.7480
vn 0.3406 -0.0152 -0.9401
vn -0.0833 0.0049 -0.9965
vn -0.5070 0.1588 -0.8472
vn -0.7922 -0.0618 -0.6071
vn -0.9845 0.0408 -0.1707
vn -0.9704 -0.1555 0.1847
vn -0.8008 -0.1596 0.5773
vn -0.5135 -0.2832 0.8100
vn -0.1098 -0.2708 0.9564
vn 0.2670 -0.0713 0.9610
vn 0.6181 0.0518 0.7844
vn -0.1113 0.9936 -0.0202
vn 0.4432 0.8626 0.2440
vn 0.4289 0.8850 0.1813
vn -0.2113 0.9555 0.2056
vn 0.3983 0.9163 -0.0416
vn -0.2506 0.9342 0.2540
vn 0.1326 0.9193 -0.3706
vn -0.4029 0.9071 0.1216
vn -0.0857 0.8818 -0.4638
vn -0.3267 0.9317 0.1590
vn 0.0639 0.8976 -0.4362
vn 0.1375 0.9746 0.1770
vn -0.2074 0.9275 -0.3110
vn 0.1202 0.9671 0.2242
vn -0.4858 0.8565 -0.1746
vn -0.0058 0.9712 0.2383
vn -0.4773 0.8786 -0.0132
vn 0.1032 0.9875 0.1195
vn -0.5043 0.8124 0.2928
vn 0.0334 0.9696 0.2425
vn -0.3844 0.8176 0.4287
vn 0.0349 0.9806 0.1926
vn -0.2419 0.7916 0.5611
vn 0.0234 0.9799 0.1980
vn -0.2434 0.7802 0.5762
vn -0.2418 0.9635 0.1146
vn -0.4149 0.9028 0.1130
vn 0.2113 0.8683 0.4488
vn -0.2124 0.9771 0.0118
vn -0.2262 0.9372 0.2653
vn 0.0137 0.9985 -0.0528
vn 0.1264 0.9892 -0.0736
vn 0.2962 0.9116 -0.2852
vn 0.2819 0.9454 0.1635
vn 0.0444 0.9970 -0.0638
vn -0.0643 0.9235 -0.3782
vn 0.3151 0.9318 -0.1802
vn 0.1575 0.9817 -0.1071
vn -0.0483 0.9953 -0.0845
vn 0.0470 0.9890 -0.1402
vn 0.0358 0.9603 -0.2767
vn 0.0773 0.9632 -0.2574
vn 0.2777 0.9586 0.0634
vn 0.4105 0.8974 0.1617
vn 0.1619 0.9750 0.1523
vn 0.0000 -1.0000 0.0000
vn -0.3616 -0.8781 -0.3133
vn -0.1881 -0.8701 -0.4555
vn -0.4594 -0.8771 -0.1398
vn -0.4778 -0.8765 0.0590
vn -0.4129 -0.8763 0.2482
vn -0.2763 -0.8765 0.3941
vn -0.0921 -0.8772 0.4712
vn 0.1070 -0.8782 0.4663
vn 0.2850 -0.8799 0.3803
vn 0.4046 -0.8853 0.2292
vn 0.4532 -0.8904 0.0428
vn 0.3172 -0.9471 -0.0482
vn 0.2017 -0.9610 -0.1892
vn 0.1161 -0.9052 -0.4088
vn -0.0368 -0.8562 -0.5154
vn -0.2557 -0.5738 -0.7780
vn -0.5774 -0.7218 -0.3817
vn -0.7910 -0.2809 -0.5435
vn -0.4191 0.1075 -0.9015
vn -0.8261 -0.5079 -0.2442
vn -0.9050 0.1777 -0.3865
vn -0.8568 -0.5090 0.0818
vn -0.9655 0.2154 0.1462
vn -0.6828 -0.5714 0.4554
vn -0.8243 -0.0627 0.5626
vn -0.5083 -0.4818 0.7138
vn -0.6078 0.2343 0.7587
vn -0.1905 -0.5125 0.8373
vn -0.1229 0.1906 0.9739
vn 0.1842 -0.6004 0.7782
vn 0.2665 -0.0176 0.9637
vn 0.4762 -0.5753 0.6650
vn 0.6164 0.0793 0.7834
vn 0.6708 -0.6250 0.3992
vn 0.8902 -0.0091 0.4556
vn 0.7156 -0.6766 0.1737
vn 0.9981 -0.0276 0.0558
vn 0.6019 -0.7951 -0.0736
vn 0.9411 -0.1694 -0.2927
vn 0.3970 -0.7676 -0.5032
vn 0.7048 -0.1545 -0.6924
vn 0.1310 -0.6145 -0.7780
vn 0.4069 -0.0381 -0.9127
vn -0.0533 -0.5352 -0.8430
vn 0.0367 0.0767 -0.9964
vn -0.3482 0.8963 -0.2748
vn -0.3511 0.8622 -0.3653
vn -0.2098 0.9157 -0.3427
vn -0.2742 0.9471 0.1670
vn -0.3927 0.8965 0.2052
vn -0.3045 0.9439 0.1280
vn 0.1459 0.9225 0.3573
vn 0.2551 0.8819 0.3964
vn 0.2750 0.9094 0.3120
vn 0.4754 0.8708 0.1253
vn 0.4970 0.8541 -0.1535
vn 0.5010 0.7981 -0.3348
vn 0.5362 0.8038 -0.2577
vn 0.4834 0.8223 -0.3003
vn 0.1261 0.9110 -0.3927
s 1
f 1/1/1 2/2/2 3/3/3
f 3/3/3 4/4/4 1/1/1
f 2/5/2 5/6/5 6/7/6
f 6/7/6 3/8/3 2/5/2
f 5/6/5 7/9/7 8/10/8
f 8/10/8 6/7/6 5/6/5
f 7/9/7 9/11/9 10/12/10
f 10/12/10 8/10/8 7/9/7
f 9/11/9 11/13/11 12/14/12
f 12/14/12 10/12/10 9/11/9
f 11/13/11 13/15/13 14/16/14
f 14/16/14 12/14/12 11/13/11
f 13/15/13 1/1/1 4/4/4
f 4/4/4 14/16/14 13/15/13
f 4/4/4 3/3/3 15/17/15
f 15/17/15 16/18/16 4/4/4
f 3/8/3 6/7/6 17/19/17
f 17/19/17 15/20/15 3/8/3
f 6/7/6 8/10/8 18/21/18
f 18/21/18 17/19/17 6/7/6
f 8/10/8 10/12/10 19/22/19
f 19/22/19 18/21/18 8/10/8
f 10/12/10 12/14/12 20/23/20
f 20/23/20 19/22/19 10/12/10
f 12/14/12 14/16/14 21/24/21
f 21/24/21 20/23/20 12/14/12
f 14/16/14 4/4/4 16/18/16
f 16/18/16 21/24/21 14/16/14
f 16/18/16 15/17/15 22/25/22
f 22/25/22 23/26/23 16/18/16
f 15/20/15 17/19/17 24/27/24
f 24/27/24 22/28/22 15/20/15
f 17/19/17 18/21/18 25/29/25
f 25/29/25 24/27/24 17/19/17
f 18/21/18 19/22/19 26/30/26
f 26/30/26 25/29/25 18/21/18
f 19/22/19 20/23/20 27/31/27
f 27/31/27 26/30/26 19/22/19
f 20/23/20 21/24/21 28/32/28
f 28/32/28 27/31/27 20/23/20
f 21/24/21 16/18/16 23/26/23
f 23/26/23 28/32/28 21/24/21
f 2/2/2 1/1/1 29/33/29
f 29/33/29 30/34/30 2/2/2
f 1/1/1 13/15/13 31/35/31
f 31/35/31 29/33/29 1/1/1
f 13/15/13 11/13/11 32/36/32
f 32/36/32 31/35/31 13/15/13
f 11/13/11 9/11/9 33/37/33
f 33/37/33 32/36/32 11/13/11
f 9/11/9 7/9/7 34/38/34
f 34/38/34 33/37/33 9/11/9
f 7/9/7 5/6/5 35/39/35
f 35/39/35 34/38/34 7/9/7
f 5/6/5 2/5/2 30/40/30
f 30/40/30 35/39/35 5/6/5
s 2
f 36/41/36 37/42/37 38/43/38
f 38/43/38 39/44/39 36/41/36
f 37/42/37 40/45/40 41/46/41
f 41/46/41 38/43/38 37/42/37
f 40/45/40 42/47/42 43/48/43
f 43/48/43 41/46/41 40/45/40
f 42/47/42 44/49/44 45/50/45
f 45/50/45 43/48/43 42/47/42
f 44/51/44 46/52/46 47/53/47
f 47/53/47 45/54/45 44/51/44
f 46/52/46 48/55/48 49/56/49
f 49/56/49 47/53/47 46/52/46
f 48/55/48 36/41/36 39/44/39
f 39/44/39 49/56/49 48/55/48
f 39/44/39 38/43/38 50/57/50
f 50/57/50 51/58/51 39/44/39
f 38/43/38 41/46/41 52/59/52
f 52/59/52 50/57/50 38/43/38
f 41/46/41 43/48/43 53/60/53
f 53/60/53 52/59/52 41/46/41
f 43/48/43 45/50/45 54/61/54
f 54/61/54 53/60/53 43/48/43
f 45/54/45 47/53/47 55/62/55
f 55/62/55 54/63/54 45/54/45
f 47/53/47 49/56/49 56/64/56
f 56/64/56 55/62/55 47/53/47
f 49/56/49 39/44/39 51/58/51
f 51/58/51 56/64/56 49/56/49
f 37/42/37 36/41/36 57/65/57
f 57/65/57 58/66/58 37/42/37
f 36/41/36 48/55/48 59/67/59
f 59/67/59 57/65/57 36/41/36
f 48/55/48 46/52/46 60/68/60
f 60/68/60 59/67/59 48/55/48
f 46/52/46 44/51/44 61/69/61
f 61/69/61 60/68/60 46/52/46
f 44/49/44 42/47/42 62/70/62
f 62/70/62 61/71/61 44/49/44
f 42/47/42 40/45/40 63/72/63
f 63/72/63 62/70/62 42/47/42
f 40/45/40 37/42/37 58/66/58
f 58/66/58 63/72/63 40/45/40
s 3
f 64/73/64 65/74/65 66/75/66
f 65/74/65 67/76/67 66/75/66
f 67/76/67 68/77/68 66/75/66
f 68/77/68 69/78/69 66/75/66
f 69/78/69 70/79/70 66/75/66
f 70/79/70 71/80/71 66/75/66
f 71/80/71 72/81/72 66/75/66
f 72/81/72 73/82/73 66/75/66
f 73/82/73 74/83/74 66/75/66
f 74/83/74 75/84/75 66/75/66
f 75/84/75 76/85/76 66/75/66
f 76/85/76 77/86/77 66/75/66
f 77/86/77 78/87/78 66/75/66
f 78/87/78 79/88/79 66/75/66
f 66/75/66 79/88/79 64/73/64
f 80/89/80 81/90/81 82/91/82
f 80/89/80 83/92/83 81/90/81
f 80/89/80 84/93/84 83/92/83
f 80/89/80 85/94/85 84/93/84
f 80/89/80 86/95/86 85/94/85
f 80/89/80 87/96/87 86/95/86
f 80/89/80 88/97/88 87/96/87
f 80/89/80 89/98/89 88/97/88
f 80/89/80 90/99/90 89/98/89
f 80/89/80 91/100/91 90/99/90
f 80/89/80 92/101/92 91/100/91
f 80/89/80 93/102/93 92/101/92
f 80/89/80 94/103/94 93/102/93
f 80/89/80 95/104/95 94/103/94
f 80/89/80 82/91/82 95/104/95
f 64/73/64 96/105/96 97/106/97
f 97/106/97 65/74/65 64/73/64
f 65/74/65 97/106/97 98/107/98
f 98/107/98 67/76/67 65/74/65
f 67/76/67 98/107/98 99/108/99
f 99/108/99 68/77/68 67/76/67
f 68/77/68 99/108/99 100/109/100
f 100/109/100 69/78/69 68/77/68
f 69/78/69 100/109/100 101/110/101
f 101/110/101 70/79/70 69/78/69
f 70/79/70 101/110/101 102/111/102
f 102/111/102 71/80/71 70/79/70
f 71/80/71 102/111/102 103/112/103
f 103/112/103 72/81/72 71/80/71
f 72/81/72 103/112/103 104/113/104
f 104/113/104 73/82/73 72/81/72
f 73/82/73 104/113/104 105/114/105
f 105/114/105 74/83/74 73/82/73
f 74/83/74 105/114/105 106/115/106
f 106/115/106 75/84/75 74/83/74
f 75/84/75 106/115/106 107/116/107
f 107/116/107 76/85/76 75/84/75
f 76/85/76 107/116/107 108/117/108
f 108/117/108 77/86/77 76/85/76
f 77/86/77 108/117/108 109/118/109
f 109/118/109 78/87/78 77/86/77
f 78/87/78 109/118/109 110/119/110
f 110/119/110 79/88/79 78/87/78
f 79/88/79 110/119/110 96/105/96
f 96/105/96 64/73/64 79/88/79
f 111/120/111 112/121/112 97/122/97
f 97/122/97 96/123/96 111/120/111
f 112/121/112 113/124/113 98/125/98
f 98/125/98 97/122/97 112/121/112
f 113/124/113 114/126/114 99/127/99
f 99/127/99 98/125/98 113/124/113
f 114/126/114 115/128/115 100/129/100
f 100/129/100 99/127/99 114/126/114
f 115/128/115 116/130/116 101/131/101
f 101/131/101 100/129/100 115/128/115
f 116/130/116 117/132/117 102/133/102
f 102/133/102 101/131/101 116/130/116
f 117/132/117 118/134/118 103/135/103
f 103/135/103 102/133/102 117/132/117
f 118/134/118 119/136/119 104/137/104
f 104/137/104 103/135/103 118/134/118
f 119/136/119 120/138/120 105/139/105
f 105/139/105 104/137/104 119/136/119
f 120/138/120 121/140/121 106/141/106
f 106/141/106 105/139/105 120/138/120
f 121/140/121 122/142/122 107/143/107
f 107/143/107 106/141/106 121/140/121
f 122/142/122 123/144/123 108/145/108
f 108/145/108 107/143/107 122/142/122
f 123/144/123 124/146/124 109/147/109
f 109/147/109 108/145/108 123/144/123
f 124/146/124 125/148/125 110/149/110
f 110/149/110 109/147/109 124/146/124
f 125/148/125 111/120/111 96/123/96
f 96/123/96 110/149/110 125/148/125
f 111/120/111 82/91/82 81/90/81
f 81/90/81 112/121/112 111/120/111
f 112/121/112 81/90/81 83/92/83
f 83/92/83 113/124/113 112/121/112
f 113/124/113 83/92/83 84/93/84
f 84/93/84 114/126/114 113/124/113
f 114/126/114 84/93/84 85/94/85
f 85/94/85 115/128/115 114/126/114
f 115/128/115 85/94/85 86/95/86
f 86/95/86 116/130/116 115/128/115
f 116/130/116 86/95/86 87/96/87
f 87/96/87 117/132/117 116/130/116
f 117/132/117 87/96/87 88/97/88
f 88/97/88 118/134/118 117/132/117
f 118/134/118 88/97/88 89/98/89
f 89/98/89 119/136/119 118/134/118
f 119/136/119 89/98/89 90/99/90
f 90/99/90 120/138/120 119/136/119
f 120/138/120 90/99/90 91/100/91
f 91/100/91 121/140/121 120/138/120
f 121/140/121 91/100/91 92/101/92
f 92/101/92 122/142/122 121/140/121
f 122/142/122 92/101/92 93/102/93
f 93/102/93 123/144/123 122/142/122
f 123/144/123 93/102/93 94/103/94
f 94/103/94 124/146/124 123/144/123
f 124/146/124 94/103/94 95/104/95
f 95/104/95 125/148/125 124/146/124
f 125/148/125 95/104/95 82/91/82
f 82/91/82 111/120/111 125/148/125
s 4
f 126/150/126 127/151/127 128/152/128
f 128/152/128 129/153/129 126/150/126
f 127/151/127 130/154/130 131/155/131
f 131/155/131 128/152/128 127/151/127
f 130/154/130 132/156/132 133/157/133
f 133/157/133 131/155/131 130/154/130
f 132/156/132 134/158/134 135/159/135
f 135/159/135 133/157/133 132/156/132
f 134/158/134 136/160/136 137/161/137
f 137/161/137 135/159/135 134/158/134
f 136/160/136 138/162/138 139/163/139
f 139/163/139 137/161/137 136/160/136
f 138/164/138 126/150/126 129/153/129
f 129/153/129 139/165/139 138/164/138
f 129/153/129 128/152/128 140/166/140
f 140/166/140 141/167/141 129/153/129
f 128/152/128 131/155/131 142/168/142
f 142/168/142 140/166/140 128/152/128
f 131/155/131 133/157/133 143/169/143
f 143/169/143 142/168/142 131/155/131
f 133/157/133 135/159/135 144/170/144
f 144/170/144 143/169/143 133/157/133
f 135/159/135 137/161/137 145/171/145
f 145/171/145 144/170/144 135/159/135
f 137/161/137 139/163/139 146/172/146
f 146/172/146 145/171/145 137/161/137
f 139/165/139 129/153/129 141/167/141
f 141/167/141 146/173/146 139/165/139
f 141/167/141 140/166/140 147/174/147
f 147/174/147 148/175/148 141/167/141
f 140/166/140 142/168/142 149/176/149
f 149/176/149 147/174/147 140/166/140
f 142/168/142 143/169/143 150/177/150
f 150/177/150 149/176/149 142/168/142
f 143/169/143 144/170/144 151/178/151
f 151/178/151 150/177/150 143/169/143
f 144/170/144 145/171/145 152/179/152
f 152/179/152 151/178/151 144/170/144
f 145/171/145 146/172/146 153/180/153
f 153/180/153 152/179/152 145/171/145
f 146/173/146 141/167/141 148/175/148
f 148/175/148 153/181/153 146/173/146
f 127/151/127 126/150/126 154/182/154
f 154/182/154 155/183/155 127/151/127
f 126/150/126 138/164/138 156/184/156
f 156/184/156 154/182/154 126/150/126
f 138/162/138 136/160/136 157/185/157
f 157/185/157 156/186/156 138/162/138
f 136/160/136 134/158/134 158/187/158
f 158/187/158 157/185/157 136/160/136
f 134/158/134 132/156/132 159/188/159
f 159/188/159 158/187/158 134/158/134
f 132/156/132 130/154/130 160/189/160
f 160/189/160 159/188/159 132/156/132
f 130/154/130 127/151/127 155/183/155
f 155/183/155 160/189/160 130/154/130
s 5
f 161/190/161 162/191/162 163/192/163
f 162/191/162 164/193/164 163/192/163
f 164/193/164 165/194/165 163/192/163
f 165/194/165 166/195/166 163/192/163
f 166/195/166 167/196/167 163/192/163
f 167/196/167 168/197/168 163/192/163
f 168/197/168 169/198/169 163/192/163
f 169/198/169 170/199/170 163/192/163
f 170/199/170 171/200/171 163/192/163
f 171/200/171 172/201/172 163/192/163
f 172/201/172 173/202/173 163/192/163
f 173/202/173 174/203/174 163/192/163
f 174/203/174 175/204/175 163/192/163
f 175/204/175 176/205/176 163/192/163
f 163/192/163 176/205/176 161/190/161
f 177/206/177 178/207/178 179/208/179
f 177/206/177 180/209/180 178/207/178
f 177/206/177 181/210/181 180/209/180
f 177/206/177 182/211/182 181/210/181
f 177/206/177 183/212/183 182/211/182
f 177/206/177 184/213/184 183/212/183
f 177/206/177 185/214/185 184/213/184
f 177/206/177 186/215/186 185/214/185
f 177/206/177 187/216/187 186/215/186
f 177/206/177 188/217/188 187/216/187
f 177/206/177 189/218/189 188/217/188
f 177/206/177 190/219/190 189/218/189
f 177/206/177 191/220/191 190/219/190
f 177/206/177 192/221/192 191/220/191
f 177/206/177 179/208/179 192/221/192
f 193/222/193 194/223/194 195/224/195
f 195/224/195 196/225/196 193/222/193
f 194/223/194 197/226/197 198/227/198
f 198/227/198 195/224/195 194/223/194
f 197/226/197 199/228/199 200/229/200
f 200/229/200 198/227/198 197/226/197
f 199/228/199 201/230/201 202/231/202
f 202/231/202 200/229/200 199/228/199
f 201/230/201 203/232/203 204/233/204
f 204/233/204 202/231/202 201/230/201
f 203/232/203 205/234/205 206/235/206
f 206/235/206 204/233/204 203/232/203
f 205/234/205 207/236/207 208/237/208
f 208/237/208 206/235/206 205/234/205
f 207/236/207 209/238/209 210/239/210
f 210/239/210 208/237/208 207/236/207
f 209/238/209 211/240/211 212/241/212
f 212/241/212 210/239/210 209/238/209
f 211/240/211 213/242/213 214/243/214
f 214/243/214 212/241/212 211/240/211
f 213/242/213 215/244/215 216/245/216
f 216/245/216 214/243/214 213/242/213
f 215/244/215 217/246/217 218/247/218
f 218/247/218 216/245/216 215/244/215
f 217/246/217 219/248/219 220/249/220
f 220/249/220 218/247/218 217/246/217
f 219/248/219 221/250/221 222/251/222
f 222/251/222 220/249/220 219/248/219
f 221/250/221 193/222/193 196/225/196
f 196/225/196 222/251/222 221/250/221
f 161/190/161 223/252/223 224/253/224
f 224/253/224 162/191/162 161/190/161
f 162/191/162 224/253/224 225/254/225
f 225/254/225 164/193/164 162/191/162
f 164/193/164 225/254/225 226/255/226
f 226/255/226 165/194/165 164/193/164
f 165/194/165 226/255/226 227/256/227
f 227/256/227 166/195/166 165/194/165
f 166/195/166 227/256/227 228/257/228
f 228/257/228 167/196/167 166/195/166
f 167/196/167 228/257/228 229/258/229
f 229/258/229 168/197/168 167/196/167
f 168/197/168 229/258/229 230/259/230
f 230/259/230 169/198/169 168/197/168
f 169/198/169 230/259/230 231/260/231
f 231/260/231 170/199/170 169/198/169
f 170/199/170 231/260/231 232/261/232
f 232/261/232 171/200/171 170/199/170
f 171/200/171 232/261/232 233/262/233
f 233/262/233 172/201/172 171/200/171
f 172/201/172 233/262/233 234/263/234
f 234/263/234 173/202/173 172/201/172
f 173/202/173 234/263/234 235/264/235
f 235/264/235 174/203/174 173/202/173
f 174/203/174 235/264/235 236/265/236
f 236/265/236 175/204/175 174/203/174
f 175/204/175 236/265/236 237/266/237
f 237/266/237 176/205/176 175/204/175
f 176/205/176 237/266/237 223/252/223
f 223/252/223 161/190/161 176/205/176
f 223/252/223 196/267/196 195/268/195
f 195/268/195 224/253/224 223/252/223
f 224/253/224 195/268/195 198/269/198
f 198/269/198 225/254/225 224/253/224
f 225/254/225 198/269/198 200/270/200
f 200/270/200 226/255/226 225/254/225
f 226/255/226 200/270/200 202/271/202
f 202/271/202 227/256/227 226/255/226
f 227/256/227 202/271/202 204/272/204
f 204/272/204 228/257/228 227/256/227
f 228/257/228 204/272/204 206/273/206
f 206/273/206 229/258/229 228/257/228
f 229/258/229 206/273/206 208/274/208
f 208/274/208 230/259/230 229/258/229
f 230/259/230 208/274/208 210/275/210
f 210/275/210 231/260/231 230/259/230
f 231/260/231 210/275/210 212/276/212
f 212/276/212 232/261/232 231/260/231
f 232/261/232 212/276/212 214/277/214
f 214/277/214 233/262/233 232/261/232
f 233/262/233 214/277/214 216/278/216
f 216/278/216 234/263/234 233/262/233
f 234/263/234 216/278/216 218/279/218
f 218/279/218 235/264/235 234/263/234
f 235/264/235 218/279/218 220/280/220
f 220/280/220 236/265/236 235/264/235
f 236/265/236 220/280/220 222/281/222
f 222/281/222 237/266/237 236/265/236
f 237/266/237 222/281/222 196/267/196
f 196/267/196 223/252/223 237/266/237
f 193/222/193 179/208/179 178/207/178
f 178/207/178 194/223/194 193/222/193
f 194/223/194 178/207/178 180/209/180
f 180/209/180 197/226/197 194/223/194
f 197/226/197 180/209/180 181/210/181
f 181/210/181 199/228/199 197/226/197
f 199/228/199 181/210/181 182/211/182
f 182/211/182 201/230/201 199/228/199
f 201/230/201 182/211/182 183/212/183
f 183/212/183 203/232/203 201/230/201
f 203/232/203 183/212/183 184/213/184
f 184/213/184 205/234/205 203/232/203
f 205/234/205 184/213/184 185/214/185
f 185/214/185 207/236/207 205/234/205
f 207/236/207 185/214/185 186/215/186
f 186/215/186 209/238/209 207/236/207
f 209/238/209 186/215/186 187/216/187
f 187/216/187 211/240/211 209/238/209
f 211/240/211 187/216/187 188/217/188
f 188/217/188 213/242/213 211/240/211
f 213/242/213 188/217/188 189/218/189
f 189/218/189 215/244/215 213/242/213
f 215/244/215 189/218/189 190/219/190
f 190/219/190 217/246/217 215/244/215
f 217/246/217 190/219/190 191/220/191
f 191/220/191 219/248/219 217/246/217
f 219/248/219 191/220/191 192/221/192
f 192/221/192 221/250/221 219/248/219
f 221/250/221 192/221/192 179/208/179
f 179/208/179 193/222/193 221/250/221
s 6
f 238/282/238 239/283/239 240/284/240
f 240/284/240 241/285/241 238/282/238
f 239/283/239 242/286/242 243/287/243
f 243/287/243 240/284/240 239/283/239
f 242/286/242 244/288/244 245/289/245
f 245/289/245 243/287/243 242/286/242
f 244/288/244 246/290/246 247/291/247
f 247/291/247 245/289/245 244/288/244
f 246/290/246 248/292/248 249/293/249
f 249/293/249 247/291/247 246/290/246
f 248/292/248 250/294/250 251/295/251
f 251/295/251 249/293/249 248/292/248
f 250/296/250 238/282/238 241/285/241
f 241/285/241 251/297/251 250/296/250
f 241/285/241 240/284/240 252/298/252
f 252/298/252 253/299/253 241/285/241
f 240/284/240 243/287/243 254/300/254
f 254/300/254 252/298/252 240/284/240
f 243/287/243 245/289/245 255/301/255
f 255/301/255 254/300/254 243/287/243
f 245/289/245 247/291/247 256/302/256
f 256/302/256 255/301/255 245/289/245
f 247/291/247 249/293/249 257/303/257
f 257/303/257 256/302/256 247/291/247
f 249/293/249 251/295/251 258/304/258
f 258/304/258 257/303/257 249/293/249
f 251/297/251 241/285/241 253/299/253
f 253/299/253 258/305/258 251/297/251
f 259/306/259 260/307/260 261/308/261
f 261/308/261 262/309/262 259/306/259
f 260/307/260 263/310/263 264/311/264
f 264/311/264 261/308/261 260/307/260
f 263/310/263 265/312/265 266/313/266
f 266/313/266 264/311/264 263/310/263
f 265/312/265 267/314/267 268/315/268
f 268/315/268 266/313/266 265/312/265
f 267/314/267 269/316/269 270/317/270
f 270/317/270 268/315/268 267/314/267
f 269/316/269 271/318/271 272/319/272
f 272/319/272 270/317/270 269/316/269
f 271/320/271 259/306/259 262/309/262
f 262/309/262 272/321/272 271/320/271
f 239/283/239 238/282/238 273/322/273
f 273/322/273 274/323/274 239/283/239
f 238/282/238 250/296/250 275/324/275
f 275/324/275 273/322/273 238/282/238
f 250/294/250 248/292/248 276/325/276
f 276/325/276 275/326/275 250/294/250
f 248/292/248 246/290/246 277/327/277
f 277/327/277 276/325/276 248/292/248
f 246/290/246 244/288/244 278/328/278
f 278/328/278 277/327/277 246/290/246
f 244/288/244 242/286/242 279/329/279
f 279/329/279 278/328/278 244/288/244
f 242/286/242 239/283/239 274/323/274
f 274/323/274 279/329/279 242/286/242
f 260/307/260 259/306/259 253/299/253
f 253/299/253 252/298/252 260/307/260
f 263/310/263 260/307/260 252/298/252
f 252/298/252 254/300/254 263/310/263
f 265/312/265 263/310/263 254/300/254
f 254/300/254 255/301/255 265/312/265
f 267/314/267 265/312/265 255/301/255
f 255/301/255 256/302/256 267/314/267
f 269/316/269 267/314/267 256/302/256
f 256/302/256 257/303/257 269/316/269
f 271/318/271 269/316/269 257/303/257
f 257/303/257 258/304/258 271/318/271
f 259/306/259 271/320/271 258/305/258
f 258/305/258 253/299/253 259/306/259
s 7
f 280/330/280 281/331/281 282/332/282
f 281/331/281 283/333/283 282/332/282
f 283/333/283 284/334/284 282/332/282
f 284/334/284 285/335/285 282/332/282
f 285/335/285 286/336/286 282/332/282
f 286/336/286 287/337/287 282/332/282
f 287/337/287 288/338/288 282/332/282
f 288/338/288 289/339/289 282/332/282
f 289/339/289 290/340/290 282/332/282
f 290/340/290 291/341/291 282/332/282
f 291/341/291 292/342/292 282/332/282
f 292/342/292 293/343/293 282/332/282
f 293/343/293 294/344/294 282/332/282
f 294/344/294 295/345/295 282/332/282
f 282/332/282 295/345/295 280/330/280
f 296/346/296 297/347/297 298/348/298
f 298/348/298 299/349/299 296/346/296
f 299/349/299 298/348/298 300/350/300
f 300/350/300 301/351/301 299/349/299
f 300/350/300 302/352/302 303/353/303
f 303/353/303 301/351/301 300/350/300
f 302/352/302 304/354/304 305/355/305
f 305/355/305 303/353/303 302/352/302
f 304/354/304 306/356/306 307/357/307
f 307/357/307 305/355/305 304/354/304
f 306/356/306 308/358/308 309/359/309
f 309/359/309 307/357/307 306/356/306
f 308/358/308 310/360/310 311/361/311
f 311/361/311 309/359/309 308/358/308
f 310/360/310 312/362/312 313/363/313
f 313/363/313 311/361/311 310/360/310
f 312/362/312 314/364/314 315/365/315
f 315/365/315 313/363/313 312/362/312
f 314/364/314 316/366/316 317/367/317
f 317/367/317 315/365/315 314/364/314
f 316/366/316 318/368/318 319/369/319
f 319/369/319 317/367/317 316/366/316
f 319/369/319 318/368/318 320/370/320
f 320/370/320 321/371/321 319/369/319
f 321/371/321 320/370/320 322/372/322
f 322/372/322 323/373/323 321/371/321
f 323/373/323 322/372/322 324/374/324
f 324/374/324 325/375/325 323/373/323
f 324/374/324 297/347/297 296/346/296
f 296/346/296 325/375/325 324/374/324
f 280/330/280 326/376/326 327/377/327
f 327/377/327 281/331/281 280/330/280
f 281/331/281 327/377/327 328/378/328
f 328/378/328 283/333/283 281/331/281
f 283/333/283 328/378/328 329/379/329
f 329/379/329 284/334/284 283/333/283
f 284/334/284 329/379/329 330/380/330
f 330/380/330 285/335/285 284/334/284
f 285/335/285 330/380/330 331/381/331
f 331/381/331 286/336/286 285/335/285
f 286/336/286 331/381/331 332/382/332
f 332/382/332 287/337/287 286/336/286
f 287/337/287 332/382/332 333/383/333
f 333/383/333 288/338/288 287/337/287
f 288/338/288 333/383/333 334/384/334
f 334/384/334 289/339/289 288/338/288
f 289/339/289 334/384/334 335/385/335
f 335/385/335 290/340/290 289/339/289
f 290/340/290 335/385/335 336/386/336
f 336/386/336 291/341/291 290/340/290
f 291/341/291 336/386/336 337/387/337
f 337/387/337 292/342/292 291/341/291
f 292/342/292 337/387/337 338/388/338
f 338/388/338 293/343/293 292/342/292
f 293/343/293 338/388/338 339/389/339
f 339/389/339 294/344/294 293/343/293
f 294/344/294 339/389/339 340/390/340
f 340/390/340 295/345/295 294/344/294
f 295/345/295 340/390/340 326/376/326
f 326/376/326 280/330/280 295/345/295
f 326/376/326 296/391/296 299/392/299
f 299/392/299 327/377/327 326/376/326
f 327/377/327 299/392/299 301/393/301
f 301/393/301 328/378/328 327/377/327
f 328/378/328 301/393/301 303/394/303
f 303/394/303 329/379/329 328/378/328
f 329/379/329 303/394/303 305/395/305
f 305/395/305 330/380/330 329/379/329
f 330/380/330 305/395/305 307/396/307
f 307/396/307 331/381/331 330/380/330
f 331/381/331 307/396/307 309/397/309
f 309/397/309 332/382/332 331/381/331
f 332/382/332 309/397/309 311/398/311
f 311/398/311 333/383/333 332/382/332
f 333/383/333 311/398/311 313/399/313
f 313/399/313 334/384/334 333/383/333
f 334/384/334 313/399/313 315/400/315
f 315/400/315 335/385/335 334/384/334
f 335/385/335 315/400/315 317/401/317
f 317/401/317 336/386/336 335/385/335
f 336/386/336 317/401/317 319/402/319
f 319/402/319 337/387/337 336/386/336
f 337/387/337 319/402/319 321/403/321
f 321/403/321 338/388/338 337/387/337
f 338/388/338 321/403/321 323/404/323
f 323/404/323 339/389/339 338/388/338
f 339/389/339 323/404/323 325/405/325
f 325/405/325 340/390/340 339/389/339
f 340/390/340 325/405/325 296/391/296
f 296/391/296 326/376/326 340/390/340
f 341/406/341 342/407/342 343/408/343
f 343/408/343 342/407/342 344/409/344
f 344/409/344 342/407/342 345/410/345
f 345/410/345 342/407/342 346/411/346
f 346/411/346 342/407/342 347/412/347
f 347/412/347 342/407/342 348/413/348
f 348/413/348 342/407/342 349/414/349
f 349/414/349 342/407/342 350/415/350
f 350/415/350 342/407/342 351/416/351
f 351/416/351 342/407/342 352/417/352
f 352/417/352 342/407/342 353/418/353
f 353/418/353 342/407/342 354/419/354
f 354/419/354 342/407/342 355/420/355
f 355/420/355 342/407/342 356/421/356
f 356/421/356 342/407/342 341/406/341
f 297/347/297 341/406/341 343/408/343
f 343/408/343 298/348/298 297/347/297
f 298/348/298 343/408/343 344/409/344
f 344/409/344 300/350/300 298/348/298
f 344/409/344 345/410/345 302/352/302
f 302/352/302 300/350/300 344/409/344
f 345/410/345 346/411/346 304/354/304
f 304/354/304 302/352/302 345/410/345
f 346/411/346 347/412/347 306/356/306
f 306/356/306 304/354/304 346/411/346
f 347/412/347 348/413/348 308/358/308
f 308/358/308 306/356/306 347/412/347
f 348/413/348 349/414/349 310/360/310
f 310/360/310 308/358/308 348/413/348
f 349/414/349 350/415/350 312/362/312
f 312/362/312 310/360/310 349/414/349
f 350/415/350 351/416/351 314/364/314
f 314/364/314 312/362/312 350/415/350
f 351/416/351 352/417/352 316/366/316
f 316/366/316 314/364/314 351/416/351
f 352/417/352 353/418/353 318/368/318
f 318/368/318 316/366/316 352/417/352
f 353/418/353 354/419/354 320/370/320
f 320/370/320 318/368/318 353/418/353
f 320/370/320 354/419/354 355/420/355
f 355/420/355 322/372/322 320/370/320
f 322/372/322 355/420/355 356/421/356
f 356/421/356 324/374/324 322/372/322
f 356/421/356 341/406/341 297/347/297
f 297/347/297 324/374/324 356/421/356
s 8
f 357/422/357 358/423/358 359/424/359
f 359/424/359 360/425/360 357/422/357
f 358/423/358 361/426/361 362/427/362
f 362/427/362 359/424/359 358/423/358
f 361/426/361 363/428/363 364/429/364
f 364/429/364 362/427/362 361/426/361
f 363/428/363 365/430/365 366/431/366
f 366/431/366 364/429/364 363/428/363
f 365/430/365 367/432/367 368/433/368
f 368/433/368 366/431/366 365/430/365
f 367/432/367 369/434/369 370/435/370
f 370/435/370 368/433/368 367/432/367
f 369/434/369 357/436/357 360/437/360
f 360/437/360 370/435/370 369/434/369
f 360/425/360 359/424/359 371/438/371
f 371/438/371 372/439/372 360/425/360
f 359/424/359 362/427/362 373/440/373
f 373/440/373 371/438/371 359/424/359
f 362/427/362 364/429/364 374/441/374
f 374/441/374 373/440/373 362/427/362
f 364/429/364 366/431/366 375/442/375
f 375/442/375 374/441/374 364/429/364
f 366/431/366 368/433/368 376/443/376
f 376/443/376 375/442/375 366/431/366
f 368/433/368 370/435/370 377/444/377
f 377/444/377 376/443/376 368/433/368
f 370/435/370 360/437/360 372/445/372
f 372/445/372 377/444/377 370/435/370
f 372/439/372 371/438/371 378/446/378
f 378/446/378 379/447/379 372/439/372
f 371/438/371 373/440/373 380/448/380
f 380/448/380 378/446/378 371/438/371
f 373/440/373 374/441/374 381/449/381
f 381/449/381 380/448/380 373/440/373
f 374/441/374 375/442/375 382/450/382
f 382/450/382 381/449/381 374/441/374
f 375/442/375 376/443/376 383/451/383
f 383/451/383 382/450/382 375/442/375
f 376/443/376 377/444/377 384/452/384
f 384/452/384 383/451/383 376/443/376
f 377/444/377 372/445/372 379/453/379
f 379/453/379 384/452/384 377/444/377
f 379/447/379 378/446/378 385/454/385
f 385/454/385 386/455/386 379/447/379
f 378/446/378 380/448/380 387/456/387
f 387/456/387 385/454/385 378/446/378
f 380/448/380 381/449/381 388/457/388
f 388/457/388 387/456/387 380/448/380
f 381/449/381 382/450/382 389/458/389
f 389/458/389 388/457/388 381/449/381
f 382/450/382 383/451/383 390/459/390
f 390/459/390 389/458/389 382/450/382
f 383/451/383 384/452/384 391/460/391
f 391/460/391 390/459/390 383/451/383
f 384/452/384 379/453/379 386/461/386
f 386/461/386 391/460/391 384/452/384
f 358/423/358 357/422/357 392/462/392
f 392/462/392 393/463/393 358/423/358
f 357/436/357 369/434/369 394/464/394
f 394/464/394 392/465/392 357/436/357
f 369/434/369 367/432/367 395/466/395
f 395/466/395 394/464/394 369/434/369
f 367/432/367 365/430/365 396/467/396
f 396/467/396 395/466/395 367/432/367
f 365/430/365 363/428/363 397/468/397
f 397/468/397 396/467/396 365/430/365
f 363/428/363 361/426/361 398/469/398
f 398/469/398 397/468/397 363/428/363
f 361/426/361 358/423/358 393/463/393
f 393/463/393 398/469/398 361/426/361
s 9
f 399/470/399 400/471/400 401/472/401
f 400/471/400 402/473/402 401/472/401
f 402/473/402 403/474/403 401/472/401
f 403/474/403 404/475/404 401/472/401
f 404/475/404 405/476/405 401/472/401
f 405/476/405 406/477/406 401/472/401
f 406/477/406 407/478/407 401/472/401
f 407/478/407 408/479/408 401/472/401
f 408/479/408 409/480/409 401/472/401
f 409/480/409 410/481/410 401/472/401
f 410/481/410 411/482/411 401/472/401
f 411/482/411 412/483/412 401/472/401
f 412/483/412 413/484/413 401/472/401
f 413/484/413 414/485/414 401/472/401
f 401/472/401 414/485/414 399/470/399
f 415/486/415 416/487/416 417/488/417
f 415/486/415 418/489/418 416/487/416
f 415/486/415 419/490/419 418/489/418
f 415/486/415 420/491/420 419/490/419
f 415/486/415 421/492/421 420/491/420
f 415/486/415 422/493/422 421/492/421
f 415/486/415 423/494/423 422/493/422
f 415/486/415 424/495/424 423/494/423
f 415/486/415 425/496/425 424/495/424
f 415/486/415 426/497/426 425/496/425
f 415/486/415 427/498/427 426/497/426
f 415/486/415 428/499/428 427/498/427
f 415/486/415 429/500/429 428/499/428
f 415/486/415 430/501/430 429/500/429
f 415/486/415 417/488/417 430/501/430
f 417/488/417 416/487/416 431/502/431
f 431/502/431 432/503/432 417/488/417
f 431/502/431 416/487/416 418/489/418
f 418/489/418 433/504/433 431/502/431
f 434/505/434 419/490/419 420/491/420
f 420/491/420 435/506/435 434/505/434
f 435/506/435 420/491/420 421/492/421
f 421/492/421 436/507/436 435/506/435
f 436/507/436 421/492/421 422/493/422
f 422/493/422 437/508/437 436/507/436
f 437/508/437 422/493/422 423/494/423
f 423/494/423 438/509/438 437/508/437
f 438/509/438 423/494/423 424/495/424
f 424/495/424 439/510/439 438/509/438
f 439/510/439 424/495/424 425/496/425
f 425/496/425 440/511/440 439/510/439
f 440/511/440 425/496/425 426/497/426
f 426/497/426 441/512/441 440/511/440
f 441/512/441 426/497/426 427/498/427
f 427/498/427 442/513/442 441/512/441
f 442/513/442 427/498/427 428/499/428
f 428/499/428 443/514/443 442/513/442
f 443/514/443 428/499/428 429/500/429
f 429/500/429 444/515/444 443/514/443
f 444/515/444 429/500/429 430/501/430
f 430/501/430 445/516/445 444/515/444
f 430/501/430 417/488/417 432/503/432
f 432/503/432 445/516/445 430/501/430
f 446/517/446 447/518/447 448/519/448
f 448/519/448 449/520/449 446/517/446
f 449/520/449 448/519/448 450/521/450
f 450/521/450 451/522/451 449/520/449
f 451/522/451 450/521/450 452/523/452
f 452/523/452 453/524/453 451/522/451
f 453/524/453 452/523/452 454/525/454
f 454/525/454 455/526/455 453/524/453
f 455/526/455 454/525/454 456/527/456
f 456/527/456 457/528/457 455/526/455
f 457/528/457 456/527/456 458/529/458
f 458/529/458 459/530/459 457/528/457
f 459/530/459 458/529/458 460/531/460
f 460/531/460 461/532/461 459/530/459
f 461/532/461 460/531/460 462/533/462
f 462/533/462 463/534/463 461/532/461
f 463/534/463 462/533/462 464/535/464
f 464/535/464 465/536/465 463/534/463
f 465/536/465 464/535/464 466/537/466
f 466/537/466 467/538/467 465/536/465
f 467/538/467 466/537/466 468/539/468
f 468/539/468 469/540/469 467/538/467
f 469/540/469 468/539/468 470/541/470
f 470/541/470 471/542/471 469/540/469
f 471/542/471 470/541/470 472/543/236
f 472/543/236 473/544/472 471/542/471
f 473/544/472 472/543/236 474/545/473
f 474/545/473 475/546/474 473/544/472
f 475/546/474 474/545/473 447/518/447
f 447/518/447 446/517/446 475/546/474
f 447/518/447 432/547/432 431/548/431
f 431/548/431 448/519/448 447/518/447
f 448/519/448 431/548/431 433/549/433
f 433/549/433 450/521/450 448/519/448
f 450/521/450 433/549/433 434/550/434
f 434/550/434 452/523/452 450/521/450
f 452/523/452 434/550/434 435/551/435
f 435/551/435 454/525/454 452/523/452
f 454/525/454 435/551/435 436/552/436
f 436/552/436 456/527/456 454/525/454
f 456/527/456 436/552/436 437/553/437
f 437/553/437 458/529/458 456/527/456
f 458/529/458 437/553/437 438/554/438
f 438/554/438 460/531/460 458/529/458
f 460/531/460 438/554/438 439/555/439
f 439/555/439 462/533/462 460/531/460
f 462/533/462 439/555/439 440/556/440
f 440/556/440 464/535/464 462/533/462
f 464/535/464 440/556/440 441/557/441
f 441/557/441 466/537/466 464/535/464
f 466/537/466 441/557/441 442/558/442
f 442/558/442 468/539/468 466/537/466
f 468/539/468 442/558/442 443/559/443
f 443/559/443 470/541/470 468/539/468
f 470/541/470 443/559/443 444/560/444
f 444/560/444 472/543/236 470/541/470
f 472/543/236 444/560/444 445/561/445
f 445/561/445 474/545/473 472/543/236
f 474/545/473 445/561/445 432/547/432
f 432/547/432 447/518/447 474/545/473
f 446/517/446 449/520/449 400/471/400
f 400/471/400 399/470/399 446/517/446
f 449/520/449 451/522/451 402/473/402
f 402/473/402 400/471/400 449/520/449
f 451/522/451 453/524/453 403/474/403
f 403/474/403 402/473/402 451/522/451
f 453/524/453 455/526/455 404/475/404
f 404/475/404 403/474/403 453/524/453
f 455/526/455 457/528/457 405/476/405
f 405/476/405 404/475/404 455/526/455
f 457/528/457 459/530/459 406/477/406
f 406/477/406 405/476/405 457/528/457
f 459/530/459 461/532/461 407/478/407
f 407/478/407 406/477/406 459/530/459
f 461/532/461 463/534/463 408/479/408
f 408/479/408 407/478/407 461/532/461
f 463/534/463 465/536/465 409/480/409
f 409/480/409 408/479/408 463/534/463
f 465/536/465 467/538/467 410/481/410
f 410/481/410 409/480/409 465/536/465
f 467/538/467 469/540/469 411/482/411
f 411/482/411 410/481/410 467/538/467
f 469/540/469 471/542/471 412/483/412
f 412/483/412 411/482/411 469/540/469
f 471/542/471 473/544/472 413/484/413
f 413/484/413 412/483/412 471/542/471
f 473/544/472 475/546/474 414/485/414
f 414/485/414 413/484/413 473/544/472
f 475/546/474 446/517/446 399/470/399
f 399/470/399 414/485/414 475/546/474
f 433/504/433 418/489/418 419/490/419
f 419/490/419 434/505/434 433/504/433
s 10
f 476/562/475 477/563/476 478/564/477
f 477/563/476 479/565/478 478/564/477
f 479/565/478 480/566/479 478/564/477
f 480/566/479 481/567/480 478/564/477
f 481/567/480 482/568/481 478/564/477
f 482/568/481 483/569/482 478/564/477
f 483/569/482 484/570/483 478/564/477
f 484/570/483 485/571/484 478/564/477
f 485/571/484 486/572/485 478/564/477
f 486/572/485 487/573/486 478/564/477
f 487/573/486 488/574/487 478/564/477
f 488/574/487 489/575/488 478/564/477
f 489/575/488 490/576/489 478/564/477
f 490/576/489 491/577/490 478/564/477
f 478/564/477 491/577/490 476/562/475
f 492/578/491 493/579/492 494/580/493
f 492/578/491 495/581/494 493/579/492
f 492/578/491 496/582/495 495/581/494
f 492/578/491 497/583/496 496/582/495
f 492/578/491 498/584/497 497/583/496
f 492/578/491 499/585/498 498/584/497
f 492/578/491 500/586/499 499/585/498
f 492/578/491 501/587/500 500/586/499
f 492/578/491 502/588/501 501/587/500
f 492/578/491 503/589/502 502/588/501
f 492/578/491 504/590/503 503/589/502
f 492/578/491 505/591/504 504/590/503
f 492/578/491 506/592/505 505/591/504
f 492/578/491 507/593/506 506/592/505
f 492/578/491 494/580/493 507/593/506
f 508/594/507 509/595/508 510/596/509
f 510/596/509 511/597/510 508/594/507
f 509/595/508 512/598/511 513/599/512
f 513/599/512 510/596/509 509/595/508
f 512/598/511 514/600/513 515/601/514
f 515/601/514 513/599/512 512/598/511
f 514/600/513 516/602/515 517/603/516
f 517/603/516 515/601/514 514/600/513
f 516/602/515 518/604/517 519/605/518
f 519/605/518 517/603/516 516/602/515
f 518/604/517 520/606/519 521/607/520
f 521/607/520 519/605/518 518/604/517
f 520/606/519 522/608/521 523/609/522
f 523/609/522 521/607/520 520/606/519
f 522/608/521 524/610/523 525/611/524
f 525/611/524 523/609/522 522/608/521
f 524/610/523 526/612/525 527/613/526
f 527/613/526 525/611/524 524/610/523
f 526/612/525 528/614/527 529/615/528
f 529/615/528 527/613/526 526/612/525
f 528/614/527 530/616/529 531/617/530
f 531/617/530 529/615/528 528/614/527
f 530/616/529 532/618/531 533/619/532
f 533/619/532 531/617/530 530/616/529
f 532/618/531 534/620/533 535/621/534
f 535/621/534 533/619/532 532/618/531
f 534/620/533 536/622/535 537/623/536
f 537/623/536 535/621/534 534/620/533
f 536/622/535 508/594/507 511/597/510
f 511/597/510 537/623/536 536/622/535
f 476/562/475 538/624/537 539/625/538
f 539/625/538 477/563/476 476/562/475
f 477/563/476 539/625/538 540/626/539
f 540/626/539 479/565/478 477/563/476
f 479/565/478 540/626/539 541/627/540
f 541/627/540 480/566/479 479/565/478
f 480/566/479 541/627/540 542/628/541
f 542/628/541 481/567/480 480/566/479
f 481/567/480 542/628/541 543/629/542
f 543/629/542 482/568/481 481/567/480
f 482/568/481 543/629/542 544/630/543
f 544/630/543 483/569/482 482/568/481
f 483/569/482 544/630/543 545/631/544
f 545/631/544 484/570/483 483/569/482
f 484/570/483 545/631/544 546/632/545
f 546/632/545 485/571/484 484/570/483
f 485/571/484 546/632/545 547/633/546
f 547/633/546 486/572/485 485/571/484
f 486/572/485 547/633/546 548/634/547
f 548/634/547 487/573/486 486/572/485
f 487/573/486 548/634/547 549/635/548
f 549/635/548 488/574/487 487/573/486
f 488/574/487 549/635/548 550/636/549
f 550/636/549 489/575/488 488/574/487
f 489/575/488 550/636/549 551/637/550
f 551/637/550 490/576/489 489/575/488
f 490/576/489 551/637/550 552/638/551
f 552/638/551 491/577/490 490/576/489
f 491/577/490 552/638/551 538/624/537
f 538/624/537 476/562/475 491/577/490
f 538/624/537 511/639/510 510/640/509
f 510/640/509 539/625/538 538/624/537
f 539/625/538 510/640/509 513/641/512
f 513/641/512 540/626/539 539/625/538
f 540/626/539 513/641/512 515/642/514
f 515/642/514 541/627/540 540/626/539
f 541/627/540 515/642/514 517/643/516
f 517/643/516 542/628/541 541/627/540
f 542/628/541 517/643/516 519/644/518
f 519/644/518 543/629/542 542/628/541
f 543/629/542 519/644/518 521/645/520
f 521/645/520 544/630/543 543/629/542
f 544/630/543 521/645/520 523/646/522
f 523/646/522 545/631/544 544/630/543
f 545/631/544 523/646/522 525/647/524
f 525/647/524 546/632/545 545/631/544
f 546/632/545 525/647/524 527/648/526
f 527/648/526 547/633/546 546/632/545
f 547/633/546 527/648/526 529/649/528
f 529/649/528 548/634/547 547/633/546
f 548/634/547 529/649/528 531/650/530
f 531/650/530 549/635/548 548/634/547
f 549/635/548 531/650/530 533/651/532
f 533/651/532 550/636/549 549/635/548
f 550/636/549 533/651/532 535/652/534
f 535/652/534 551/637/550 550/636/549
f 551/637/550 535/652/534 537/653/536
f 537/653/536 552/638/551 551/637/550
f 552/638/551 537/653/536 511/639/510
f 511/639/510 538/624/537 552/638/551
f 508/594/507 494/580/493 493/579/492
f 493/579/492 509/595/508 508/594/507
f 509/595/508 493/579/492 495/581/494
f 495/581/494 512/598/511 509/595/508
f 512/598/511 495/581/494 496/582/495
f 496/582/495 514/600/513 512/598/511
f 514/600/513 496/582/495 497/583/496
f 497/583/496 516/602/515 514/600/513
f 516/602/515 497/583/496 498/584/497
f 498/584/497 518/604/517 516/602/515
f 518/604/517 498/584/497 499/585/498
f 499/585/498 520/606/519 518/604/517
f 520/606/519 499/585/498 500/586/499
f 500/586/499 522/608/521 520/606/519
f 522/608/521 500/586/499 501/587/500
f 501/587/500 524/610/523 522/608/521
f 524/610/523 501/587/500 502/588/501
f 502/588/501 526/612/525 524/610/523
f 526/612/525 502/588/501 503/589/502
f 503/589/502 528/614/527 526/612/525
f 528/614/527 503/589/502 504/590/503
f 504/590/503 530/616/529 528/614/527
f 530/616/529 504/590/503 505/591/504
f 505/591/504 532/618/531 530/616/529
f 532/618/531 505/591/504 506/592/505
f 506/592/505 534/620/533 532/618/531
f 534/620/533 506/592/505 507/593/506
f 507/593/506 536/622/535 534/620/533
f 536/622/535 507/593/506 494/580/493
f 494/580/493 508/594/507 536/622/535
