# Blender v3.3.0 OBJ File: ''
# www.blender.org
o MushroomStage01.005
v 0.060350 0.061415 -0.019373
v 0.057265 0.062049 -0.023399
v 0.049598 0.060714 -0.013715
v 0.052832 0.064568 -0.025785
v 0.047859 0.064885 -0.026169
v 0.043175 0.062951 -0.024543
v 0.039518 0.062757 -0.021179
v 0.037504 0.062329 -0.016591
v 0.037537 0.060625 -0.011535
v 0.039665 0.061091 -0.006921
v 0.043505 0.060505 -0.003601
v 0.048339 0.060082 -0.002153
v 0.053310 0.058376 -0.002782
v 0.057601 0.058441 -0.005353
v 0.060505 0.060268 -0.009455
v 0.061496 0.061873 -0.014421
v 0.049598 0.053518 -0.013715
v 0.057433 0.054215 -0.022725
v 0.060422 0.054212 -0.018762
v 0.053091 0.054217 -0.025130
v 0.048145 0.054218 -0.025562
v 0.043450 0.054218 -0.023946
v 0.039819 0.054218 -0.020560
v 0.037878 0.054216 -0.015991
v 0.037963 0.054214 -0.011028
v 0.040056 0.054208 -0.006526
v 0.043792 0.054187 -0.003246
v 0.048552 0.054171 -0.001772
v 0.053560 0.053869 -0.002207
v 0.057899 0.053874 -0.004815
v 0.060628 0.054178 -0.009036
v 0.061417 0.054300 -0.013923
v 0.065120 0.060971 -0.021025
v 0.060890 0.061828 -0.026690
v 0.054668 0.064536 -0.030123
v 0.047547 0.064974 -0.030719
v 0.040772 0.063066 -0.028378
v 0.035522 0.062795 -0.023509
v 0.032714 0.062209 -0.016959
v 0.032843 0.060294 -0.009874
v 0.035881 0.060533 -0.003502
v 0.041272 0.059734 0.001040
v 0.048041 0.059150 0.002990
v 0.055011 0.057367 0.002070
v 0.061045 0.057458 -0.001530
v 0.065160 0.059408 -0.007239
v 0.066621 0.061204 -0.014133
v 0.063654 0.056948 -0.020270
v 0.059758 0.056949 -0.025387
v 0.054126 0.056951 -0.028482
v 0.047725 0.056951 -0.029029
v 0.041652 0.056951 -0.026935
v 0.036948 0.056951 -0.022560
v 0.034421 0.056950 -0.016652
v 0.034505 0.056949 -0.010224
v 0.037203 0.056915 -0.004383
v 0.042092 0.056710 -0.000199
v 0.048247 0.056560 0.001632
v 0.054603 0.054977 0.000825
v 0.060096 0.055001 -0.002464
v 0.063808 0.056626 -0.007696
v 0.065085 0.057897 -0.013997
v 0.055233 0.007807 -0.001572
v 0.059900 0.007807 -0.007276
v 0.054437 0.026522 -0.012466
v 0.051708 0.026522 -0.009131
v 0.058350 0.007807 -0.014481
v 0.053531 0.026522 -0.016680
v 0.051750 0.007807 -0.017761
v 0.049671 0.026522 -0.018598
v 0.045071 0.007807 -0.014647
v 0.045765 0.026522 -0.016777
v 0.043341 0.007807 -0.007482
v 0.044754 0.026522 -0.012587
v 0.047864 0.007807 -0.001664
v 0.047399 0.026522 -0.009184
v 0.054010 0.045236 -0.013383
v 0.051281 0.045236 -0.010047
v 0.053104 0.045236 -0.017596
v 0.049244 0.045236 -0.019514
v 0.045338 0.045236 -0.017693
v 0.044327 0.045236 -0.013503
v 0.046972 0.045236 -0.010101
v 0.054983 0.054593 -0.011296
v 0.052254 0.054593 -0.007960
v 0.054077 0.054593 -0.015509
v 0.050217 0.054593 -0.017428
v 0.046311 0.054593 -0.015606
v 0.045300 0.054593 -0.011417
v 0.047945 0.054593 -0.008014
v 0.055568 0.000000 -0.000854
v 0.060670 0.000000 -0.007090
v 0.047512 0.000000 -0.000954
v 0.042567 0.000000 -0.007316
v 0.044458 0.000000 -0.015148
v 0.051760 0.000000 -0.018553
v 0.058975 0.000000 -0.014967
v 0.022744 0.047327 0.020459
v 0.018093 0.045227 0.023654
v 0.028469 0.048534 0.032738
v 0.015447 0.048356 0.028685
v 0.014956 0.048867 0.034355
v 0.016777 0.046704 0.039780
v 0.020698 0.049453 0.043943
v 0.025928 0.048769 0.046143
v 0.031564 0.046568 0.046033
v 0.036563 0.046819 0.043514
v 0.040080 0.045892 0.039219
v 0.041540 0.045215 0.033908
v 0.041000 0.043103 0.028428
v 0.038170 0.043212 0.023670
v 0.033596 0.045514 0.020569
v 0.028201 0.047569 0.019411
v 0.022102 0.042863 0.019084
v 0.028469 0.038667 0.032738
v 0.017744 0.041301 0.023391
v 0.013591 0.043944 0.028143
v 0.012839 0.044500 0.034628
v 0.015749 0.042329 0.040389
v 0.019350 0.045178 0.045838
v 0.025509 0.044399 0.048189
v 0.031805 0.042213 0.047134
v 0.037348 0.042368 0.044538
v 0.040833 0.041554 0.039608
v 0.042042 0.041055 0.033932
v 0.040604 0.040434 0.028560
v 0.037896 0.040450 0.023945
v 0.033874 0.041264 0.019974
v 0.028187 0.043029 0.017720
v 0.021357 0.045953 0.017486
v 0.015874 0.043566 0.021722
v 0.012201 0.047215 0.027684
v 0.011535 0.047846 0.034769
v 0.014047 0.045224 0.041423
v 0.018704 0.048580 0.046805
v 0.025281 0.047726 0.049516
v 0.032278 0.045064 0.049117
v 0.038495 0.045338 0.046081
v 0.042763 0.044240 0.040709
v 0.044478 0.043461 0.034166
v 0.043450 0.041331 0.027585
v 0.040077 0.041438 0.021892
v 0.034768 0.043802 0.017803
v 0.028140 0.046224 0.016083
v 0.034500 0.005572 0.030691
v 0.030477 0.005572 0.027400
v 0.026405 0.021060 0.030985
v 0.029115 0.021060 0.033202
v 0.025396 0.005572 0.028494
v 0.022983 0.021060 0.031722
v 0.023083 0.005572 0.033148
v 0.021425 0.021060 0.034857
v 0.025279 0.005572 0.037858
v 0.022904 0.021060 0.038030
v 0.030331 0.005572 0.039078
v 0.026307 0.021060 0.038852
v 0.034435 0.005572 0.035888
v 0.029072 0.021060 0.036703
v 0.025777 0.036548 0.030799
v 0.028860 0.036548 0.033321
v 0.021883 0.036548 0.031637
v 0.020110 0.036548 0.035204
v 0.021794 0.036548 0.038814
v 0.025666 0.036548 0.039748
v 0.028810 0.036548 0.037304
v 0.027393 0.044292 0.030458
v 0.030155 0.044292 0.032717
v 0.023904 0.044292 0.031208
v 0.022316 0.044292 0.034404
v 0.023824 0.044292 0.037638
v 0.027293 0.044292 0.038476
v 0.030111 0.044292 0.036286
v 0.035879 -0.001204 0.030048
v 0.030834 -0.001204 0.025921
v 0.035798 -0.001204 0.036566
v 0.030652 -0.001204 0.040566
v 0.024315 -0.001204 0.039036
v 0.021561 -0.001204 0.033129
v 0.024462 -0.001204 0.027292
v -0.011595 0.099975 -0.037554
v -0.019233 0.101851 -0.044564
v -0.031230 0.097899 -0.022349
v -0.026046 0.109311 -0.054138
v -0.036192 0.110249 -0.053145
v -0.045044 0.104524 -0.048211
v -0.054170 0.103947 -0.033797
v -0.056596 0.102682 -0.023846
v -0.054734 0.099135 -0.013680
v -0.048814 0.101471 -0.005147
v -0.039905 0.099733 0.000173
v -0.029661 0.096028 0.001371
v -0.019878 0.090978 -0.001660
v -0.012153 0.091169 -0.008357
v -0.007762 0.096578 -0.017646
v -0.007531 0.101329 -0.027993
v -0.002184 0.094740 -0.042687
v -0.008902 0.083107 -0.037983
v -0.017007 0.082611 -0.046245
v -0.009802 0.097350 -0.059188
v -0.027464 0.082636 -0.049863
v -0.023747 0.105432 -0.064072
v -0.038508 0.082720 -0.049008
v -0.038578 0.106769 -0.062781
v -0.047374 0.082414 -0.044653
v -0.051651 0.101128 -0.055531
v -0.055901 0.083143 -0.033842
v -0.063597 0.100301 -0.037267
v -0.058455 0.083131 -0.022812
v -0.066902 0.098513 -0.022806
v -0.056308 0.083116 -0.011697
v -0.063956 0.095228 -0.008387
v -0.049840 0.083072 -0.002403
v -0.055335 0.093408 0.003418
v -0.040158 0.082884 0.003538
v -0.042669 0.090977 0.010555
v -0.028769 0.079870 0.005907
v -0.028300 0.083743 0.011922
v -0.017687 0.077026 0.002086
v -0.014680 0.078442 0.007533
v -0.008901 0.077065 -0.005531
v -0.003859 0.078719 -0.001775
v -0.004506 0.082805 -0.016192
v 0.002507 0.089985 -0.014657
v -0.005038 0.083903 -0.027451
v 0.003180 0.095361 -0.029132
v -0.031230 0.075106 -0.022349
v -0.020982 0.011308 -0.029923
v -0.030939 0.011308 -0.034519
v -0.032946 0.024792 -0.028842
v -0.025771 0.024792 -0.025531
v -0.039871 0.011308 -0.027115
v -0.039383 0.024792 -0.023508
v -0.041053 0.011308 -0.013288
v -0.040234 0.024792 -0.013544
v -0.033593 0.011308 -0.003448
v -0.034859 0.024792 -0.006454
v -0.023110 0.011308 -0.005006
v -0.027305 0.024792 -0.007576
v -0.017498 0.011308 -0.016789
v -0.023261 0.024792 -0.016066
v -0.033069 0.047302 -0.031751
v -0.027246 0.047302 -0.029064
v -0.038293 0.047302 -0.027422
v -0.038983 0.047302 -0.019335
v -0.034621 0.047302 -0.013581
v -0.028491 0.047302 -0.014492
v -0.025209 0.047302 -0.021383
v -0.028273 0.065243 -0.028137
v -0.034096 0.065243 -0.030825
v -0.032174 0.080734 -0.031891
v -0.026351 0.080734 -0.029203
v -0.039320 0.065243 -0.026496
v -0.037397 0.080734 -0.027562
v -0.040011 0.065243 -0.018409
v -0.038088 0.080734 -0.019475
v -0.035648 0.065243 -0.012655
v -0.033726 0.080734 -0.013721
v -0.029518 0.065243 -0.013566
v -0.027596 0.080734 -0.014632
v -0.026236 0.065243 -0.020456
v -0.024313 0.080734 -0.021523
v -0.019808 0.000000 -0.031471
v -0.031125 0.000000 -0.036695
v -0.015848 0.000000 -0.016543
v -0.022227 0.000000 -0.003152
v -0.034141 0.000000 -0.001381
v -0.042620 0.000000 -0.012564
v -0.041277 0.000000 -0.028281
vt 0.927000 0.831200
vt 0.920500 0.822900
vt 0.944600 0.812400
vt 0.917200 0.811700
vt 0.919000 0.801600
vt 0.925800 0.792900
vt 0.934600 0.787400
vt 0.944900 0.785900
vt 0.955600 0.788900
vt 0.963800 0.795700
vt 0.968500 0.805300
vt 0.968900 0.815800
vt 0.965300 0.826200
vt 0.957900 0.833400
vt 0.947400 0.836900
vt 0.936400 0.836200
vt 0.780500 0.908200
vt 0.757300 0.900800
vt 0.762100 0.892200
vt 0.756400 0.910600
vt 0.759300 0.919900
vt 0.765500 0.927300
vt 0.774200 0.931700
vt 0.784100 0.932400
vt 0.793500 0.929000
vt 0.800800 0.921900
vt 0.804600 0.912300
vt 0.804100 0.901800
vt 0.799200 0.892300
vt 0.790600 0.885800
vt 0.780200 0.883700
vt 0.770200 0.886100
vt 0.921200 0.840100
vt 0.911900 0.828600
vt 0.907500 0.813300
vt 0.910000 0.798400
vt 0.919400 0.785900
vt 0.932100 0.778100
vt 0.946900 0.776100
vt 0.961600 0.780300
vt 0.972800 0.789900
vt 0.979200 0.803300
vt 0.979600 0.818100
vt 0.974400 0.832300
vt 0.964000 0.842600
vt 0.949600 0.847600
vt 0.934400 0.846800
vt 0.755000 0.886500
vt 0.748500 0.898500
vt 0.737900 0.896500
vt 0.747500 0.881100
vt 0.747600 0.911600
vt 0.732100 0.914900
vt 0.751500 0.924200
vt 0.737300 0.931600
vt 0.759900 0.934200
vt 0.751300 0.943700
vt 0.771600 0.940300
vt 0.767400 0.952000
vt 0.785000 0.941400
vt 0.785300 0.952900
vt 0.798000 0.937000
vt 0.801600 0.944100
vt 0.808200 0.927300
vt 0.814600 0.932500
vt 0.813300 0.914100
vt 0.820100 0.916000
vt 0.812600 0.899800
vt 0.818800 0.899000
vt 0.804500 0.887800
vt 0.809100 0.884300
vt 0.793400 0.879400
vt 0.795300 0.873900
vt 0.779600 0.874900
vt 0.778500 0.868400
vt 0.765100 0.876800
vt 0.761100 0.870300
vt 0.673700 0.815000
vt 0.676100 0.801100
vt 0.718600 0.807500
vt 0.717800 0.817100
vt 0.681400 0.787700
vt 0.720600 0.798400
vt 0.688100 0.774300
vt 0.723000 0.789600
vt 0.689400 0.871400
vt 0.684200 0.856900
vt 0.721700 0.845400
vt 0.723500 0.854300
vt 0.679100 0.842900
vt 0.719800 0.836200
vt 0.675000 0.829100
vt 0.718200 0.826900
vt 0.759300 0.807900
vt 0.759200 0.817100
vt 0.759300 0.798800
vt 0.759400 0.789700
vt 0.759500 0.844300
vt 0.760100 0.853200
vt 0.759200 0.835300
vt 0.759200 0.826200
vt 0.779800 0.808900
vt 0.780400 0.817100
vt 0.778700 0.800700
vt 0.778400 0.791900
vt 0.778700 0.842300
vt 0.779800 0.851300
vt 0.778800 0.833500
vt 0.779800 0.825300
vt 0.657500 0.814500
vt 0.660100 0.797500
vt 0.658900 0.831400
vt 0.663200 0.847300
vt 0.668500 0.862600
vt 0.674400 0.878200
vt 0.665900 0.781500
vt 0.673200 0.766400
vt 0.943300 0.355600
vt 0.955800 0.356100
vt 0.944400 0.384300
vt 0.965800 0.365100
vt 0.971600 0.375300
vt 0.973700 0.387800
vt 0.968500 0.399900
vt 0.960300 0.408300
vt 0.948800 0.413300
vt 0.937300 0.412100
vt 0.926800 0.407000
vt 0.919400 0.398200
vt 0.914100 0.387200
vt 0.915100 0.375800
vt 0.922500 0.365800
vt 0.932400 0.358800
vt 0.709500 0.936900
vt 0.677400 0.934000
vt 0.705500 0.924500
vt 0.702300 0.910600
vt 0.691600 0.902000
vt 0.677600 0.902600
vt 0.663000 0.901000
vt 0.652400 0.910000
vt 0.648200 0.923300
vt 0.646100 0.935800
vt 0.651100 0.947600
vt 0.659700 0.956400
vt 0.671200 0.959800
vt 0.682700 0.960100
vt 0.694600 0.957400
vt 0.705600 0.949500
vt 0.943100 0.348200
vt 0.958300 0.349500
vt 0.971100 0.359900
vt 0.978700 0.373000
vt 0.981000 0.388600
vt 0.974800 0.403900
vt 0.964100 0.414700
vt 0.949600 0.420600
vt 0.935200 0.419200
vt 0.922100 0.412500
vt 0.913000 0.401400
vt 0.907500 0.387800
vt 0.908800 0.374100
vt 0.916600 0.361500
vt 0.928900 0.352200
vt 0.716800 0.938000
vt 0.712000 0.922100
vt 0.707300 0.904900
vt 0.694800 0.895300
vt 0.677500 0.895500
vt 0.659600 0.894400
vt 0.647300 0.904400
vt 0.641500 0.920400
vt 0.638800 0.935800
vt 0.644400 0.950400
vt 0.654700 0.961700
vt 0.669700 0.966200
vt 0.684200 0.966600
vt 0.699600 0.962600
vt 0.712500 0.952600
vt 0.333600 0.827400
vt 0.344000 0.827900
vt 0.344200 0.863200
vt 0.336400 0.863200
vt 0.354300 0.830200
vt 0.351800 0.864000
vt 0.364700 0.833200
vt 0.359200 0.865000
vt 0.375300 0.836100
vt 0.366700 0.865500
vt 0.304000 0.838400
vt 0.313600 0.833500
vt 0.321300 0.865800
vt 0.314100 0.867400
vt 0.323300 0.829500
vt 0.328600 0.864100
vt 0.345500 0.896900
vt 0.337300 0.897300
vt 0.353700 0.896500
vt 0.361800 0.896300
vt 0.370000 0.896500
vt 0.320800 0.897800
vt 0.312500 0.898200
vt 0.329100 0.897600
vt 0.345200 0.913700
vt 0.338200 0.914300
vt 0.352400 0.912800
vt 0.359900 0.912500
vt 0.367300 0.913500
vt 0.324000 0.913900
vt 0.316600 0.914400
vt 0.331100 0.914200
vt 0.332200 0.813000
vt 0.345300 0.813300
vt 0.319400 0.815500
vt 0.307300 0.820100
vt 0.295500 0.826600
vt 0.369800 0.819300
vt 0.381900 0.823900
vt 0.357800 0.815700
vt 0.594700 0.145400
vt 0.574000 0.138200
vt 0.605200 0.093400
vt 0.546400 0.132300
vt 0.538900 0.113200
vt 0.540800 0.089800
vt 0.560200 0.059900
vt 0.576700 0.046400
vt 0.598400 0.039700
vt 0.619600 0.043700
vt 0.637500 0.054800
vt 0.650700 0.072400
vt 0.658400 0.094600
vt 0.653700 0.115600
vt 0.636800 0.133000
vt 0.616000 0.143000
vt 0.321800 0.592700
vt 0.292800 0.600000
vt 0.284600 0.578100
vt 0.317100 0.549600
vt 0.268700 0.562600
vt 0.297600 0.516300
vt 0.248100 0.554500
vt 0.266900 0.501800
vt 0.228800 0.554200
vt 0.230900 0.509700
vt 0.203500 0.563800
vt 0.183200 0.530300
vt 0.187800 0.579800
vt 0.159600 0.557300
vt 0.179300 0.600800
vt 0.150000 0.592200
vt 0.179700 0.624100
vt 0.152500 0.627100
vt 0.189500 0.646100
vt 0.168800 0.657100
vt 0.209300 0.662900
vt 0.200700 0.675400
vt 0.235300 0.667600
vt 0.234800 0.681100
vt 0.260300 0.662400
vt 0.266500 0.674500
vt 0.283400 0.646100
vt 0.303000 0.655600
vt 0.292700 0.623600
vt 0.322200 0.626100
vt 0.596000 0.170800
vt 0.557700 0.172600
vt 0.531700 0.149100
vt 0.517500 0.117500
vt 0.520000 0.082700
vt 0.544700 0.043600
vt 0.570200 0.024000
vt 0.601400 0.015600
vt 0.633800 0.019800
vt 0.660900 0.038700
vt 0.683200 0.066100
vt 0.692800 0.096900
vt 0.686500 0.126100
vt 0.656600 0.149700
vt 0.627200 0.165500
vt 0.236400 0.611300
vt 0.648500 0.337200
vt 0.627500 0.341300
vt 0.619400 0.310000
vt 0.637400 0.307100
vt 0.605000 0.341000
vt 0.600200 0.311400
vt 0.577200 0.341100
vt 0.578200 0.312700
vt 0.551700 0.340800
vt 0.559400 0.313100
vt 0.530500 0.336800
vt 0.543700 0.310100
vt 0.506000 0.325500
vt 0.526000 0.301900
vt 0.673200 0.326300
vt 0.658000 0.301600
vt 0.614200 0.261500
vt 0.627200 0.260900
vt 0.600200 0.262600
vt 0.582800 0.263700
vt 0.566700 0.263900
vt 0.553000 0.262200
vt 0.537100 0.258400
vt 0.643400 0.259600
vt 0.626100 0.223300
vt 0.612600 0.224200
vt 0.613200 0.191100
vt 0.626300 0.190100
vt 0.598700 0.225200
vt 0.599400 0.192500
vt 0.582400 0.225700
vt 0.582700 0.193100
vt 0.568100 0.225300
vt 0.567600 0.192900
vt 0.555700 0.224500
vt 0.554700 0.191600
vt 0.540200 0.223300
vt 0.538800 0.190300
vt 0.642900 0.222800
vt 0.642700 0.190400
vt 0.655300 0.360100
vt 0.631000 0.365200
vt 0.684500 0.347700
vt 0.523600 0.359600
vt 0.495200 0.347100
vt 0.547800 0.364600
vt 0.575600 0.365000
vt 0.605600 0.365400
vn 0.0319 0.9994 0.0099
vn 0.2047 0.9584 0.1989
vn 0.0436 0.9825 0.1810
vn 0.2036 0.9586 0.1990
vn -0.1122 0.9780 0.1761
vn -0.1323 0.9735 0.1864
vn 0.0273 0.9951 0.0955
vn 0.0204 0.9803 0.1964
vn -0.0085 0.9888 0.1489
vn -0.0350 0.9988 0.0336
vn 0.0449 0.9908 0.1277
vn 0.1781 0.9760 0.1256
vn 0.2136 0.9683 0.1299
vn 0.0131 0.9657 0.2592
vn -0.0211 0.9433 0.3313
vn 0.0205 0.9935 0.1123
vn -0.0031 -1.0000 -0.0077
vn 0.2510 -0.9233 -0.2906
vn 0.3705 -0.9183 -0.1393
vn 0.1120 -0.9225 -0.3693
vn -0.0476 -0.9220 -0.3842
vn -0.1996 -0.9219 -0.3322
vn -0.3166 -0.9221 -0.2223
vn -0.3783 -0.9227 -0.0745
vn -0.3741 -0.9235 0.0847
vn -0.3061 -0.9251 0.2248
vn -0.1859 -0.9294 0.3187
vn -0.0703 -0.9328 0.3536
vn 0.0075 -0.9724 0.2332
vn 0.1637 -0.9787 0.1239
vn 0.3470 -0.9362 0.0555
vn 0.4290 -0.9027 -0.0326
vn 0.8211 0.4401 -0.3634
vn 0.6470 0.4652 -0.6042
vn 0.3742 0.6094 -0.6990
vn -0.1439 0.6298 -0.7633
vn -0.5195 0.5188 -0.6790
vn -0.6925 0.5653 -0.4481
vn -0.8262 0.5597 -0.0648
vn -0.8741 0.3992 0.2769
vn -0.6905 0.4873 0.5346
vn -0.3929 0.4220 0.8170
vn -0.0008 0.4273 0.9041
vn 0.3453 0.3240 0.8808
vn 0.6131 0.3373 0.7143
vn 0.7895 0.4062 0.4601
vn 0.8684 0.4920 0.0615
vn 0.7435 -0.5934 -0.3082
vn 0.5295 -0.5562 -0.6405
vn 0.2460 -0.5157 -0.8207
vn -0.0971 -0.5160 -0.8511
vn -0.4323 -0.5377 -0.7239
vn -0.6826 -0.5464 -0.4853
vn -0.8035 -0.5688 -0.1757
vn -0.7632 -0.6210 0.1785
vn -0.6421 -0.6059 0.4696
vn -0.3854 -0.6323 0.6721
vn -0.1300 -0.6480 0.7504
vn 0.1370 -0.7500 0.6471
vn 0.5054 -0.7351 0.4519
vn 0.7595 -0.6204 0.1958
vn 0.8310 -0.5550 -0.0373
vn 0.4095 0.2470 0.8782
vn 0.9446 0.2137 0.2491
vn 0.9606 0.1859 0.2068
vn 0.4096 0.2467 0.8783
vn 0.8019 0.1225 -0.5847
vn 0.7706 0.0517 -0.6352
vn 0.0280 0.0312 -0.9991
vn 0.0009 -0.0476 -0.9989
vn -0.7833 0.0312 -0.6209
vn -0.7658 -0.0476 -0.6413
vn -0.9634 0.1225 0.2385
vn -0.9819 0.0517 0.1821
vn -0.4164 0.2137 0.8837
vn -0.4591 0.1859 0.8687
vn 0.9779 -0.0556 0.2015
vn 0.4206 -0.0975 0.9020
vn 0.7649 0.0282 -0.6435
vn -0.0036 0.0829 -0.9966
vn -0.7611 0.0829 -0.6433
vn -0.9846 0.0282 0.1724
vn -0.4743 -0.0556 0.8786
vn 0.9470 -0.1605 0.2782
vn 0.4104 -0.2390 0.8801
vn 0.8278 0.0387 -0.5596
vn 0.0428 0.2132 -0.9761
vn -0.7753 0.2132 -0.5945
vn -0.9609 0.0388 0.2743
vn -0.3957 -0.1605 0.9043
vn 0.4205 0.1010 0.9017
vn 0.9671 0.1009 0.2335
vn -0.4428 0.1010 0.8909
vn -0.9726 0.1009 0.2093
vn -0.7700 0.1009 -0.6300
vn 0.0124 0.1009 -0.9948
vn 0.7855 0.1009 -0.6106
vn -0.2669 0.9515 -0.1531
vn -0.2452 0.9151 -0.3202
vn 0.1297 0.9888 -0.0733
vn -0.0851 0.9441 -0.3184
vn -0.1299 0.9804 0.1484
vn -0.2886 0.9502 0.1179
vn -0.1891 0.9820 -0.0045
vn 0.2072 0.9588 0.1944
vn 0.2336 0.9360 0.2634
vn 0.2281 0.9545 0.1919
vn 0.3788 0.9245 0.0433
vn 0.3985 0.8990 -0.1817
vn 0.4095 0.8608 -0.3022
vn 0.4760 0.8573 -0.1960
vn 0.4547 0.8695 -0.1928
vn 0.1506 0.9591 -0.2398
vn -0.2304 -0.7415 -0.6302
vn -0.0758 -0.9963 0.0415
vn -0.3540 -0.8950 -0.2715
vn -0.7166 -0.6934 -0.0754
vn -0.7563 -0.6506 0.0687
vn -0.4670 -0.8331 0.2966
vn -0.3833 -0.6193 0.6852
vn -0.2152 -0.6657 0.7145
vn 0.0364 -0.8154 0.5778
vn 0.3758 -0.7802 0.5001
vn 0.4584 -0.8343 0.3062
vn 0.4944 -0.8659 0.0768
vn 0.2622 -0.9650 -0.0040
vn 0.1324 -0.9719 -0.1949
vn 0.0402 -0.8680 -0.4949
vn -0.0743 -0.7303 -0.6791
vn -0.4695 0.3249 -0.8210
vn -0.7077 -0.0677 -0.7032
vn -0.8187 0.4160 -0.3957
vn -0.8685 0.4578 0.1901
vn -0.8767 0.0855 0.4734
vn -0.5556 0.5130 0.6544
vn -0.0448 0.4103 0.9108
vn 0.2496 0.1451 0.9574
vn 0.6192 0.2834 0.7323
vn 0.8938 0.1545 0.4209
vn 0.9932 0.1150 -0.0180
vn 0.9305 -0.2166 -0.2954
vn 0.7634 -0.1827 -0.6196
vn 0.5055 0.1335 -0.8525
vn 0.0671 0.3761 -0.9241
vn 0.8690 0.2840 -0.4052
vn 0.2477 0.2494 -0.9362
vn 0.2086 0.1379 -0.9682
vn 0.8878 0.2007 -0.4141
vn -0.5812 0.1553 -0.7988
vn -0.6351 0.0022 -0.7724
vn -0.9977 0.0624 -0.0282
vn -0.9954 -0.0959 -0.0017
vn -0.6197 0.0624 0.7823
vn -0.6387 -0.0959 0.7635
vn 0.2383 0.1554 0.9587
vn 0.1834 0.0022 0.9830
vn 0.8764 0.2495 0.4119
vn 0.8759 0.1379 0.4624
vn 0.2021 -0.0423 -0.9784
vn 0.9031 -0.0844 -0.4211
vn -0.6424 0.0399 -0.7653
vn -0.9957 0.0925 0.0030
vn -0.6422 0.0924 0.7609
vn 0.1734 0.0399 0.9840
vn 0.8795 -0.0424 0.4741
vn 0.2819 -0.1009 -0.9541
vn 0.8912 -0.1815 -0.4157
vn -0.5562 0.0995 -0.8251
vn -0.9620 0.2696 -0.0426
vn -0.5858 0.2697 0.7643
vn 0.2744 0.0995 0.9564
vn 0.9121 -0.1010 0.3974
vn 0.8843 0.2191 -0.4124
vn 0.2289 0.2191 -0.9485
vn 0.8737 0.2192 0.4343
vn 0.2053 0.2192 0.9538
vn -0.6178 0.2192 0.7551
vn -0.9756 0.2192 -0.0122
vn -0.5988 0.2192 -0.7703
vn 0.1975 0.9778 -0.0703
vn 0.3670 0.9196 0.1405
vn 0.1205 0.9741 0.1913
vn 0.3880 0.9216 -0.0089
vn -0.1682 0.9850 0.0377
vn -0.3108 0.9441 0.1100
vn -0.1100 0.9933 0.0361
vn -0.1173 0.9743 0.1922
vn -0.1491 0.9665 0.2088
vn -0.2176 0.9584 0.1847
vn 0.1160 0.9100 0.3980
vn 0.3634 0.8263 0.4303
vn 0.4452 0.7912 0.4192
vn 0.2777 0.7976 0.5354
vn 0.2086 0.8610 0.4638
vn 0.2164 0.9709 0.1025
vn 0.8926 0.1703 -0.4174
vn 0.5386 -0.7916 -0.2885
vn 0.3263 -0.8391 -0.4352
vn 0.6754 0.1294 -0.7260
vn 0.0267 -0.7984 -0.6015
vn 0.3033 0.3768 -0.8753
vn -0.1528 -0.7714 -0.6177
vn -0.3064 0.3947 -0.8662
vn -0.4208 -0.7711 -0.4778
vn -0.6860 0.2265 -0.6914
vn -0.6121 -0.7384 -0.2832
vn -0.8670 0.3594 -0.3452
vn -0.6458 -0.7630 -0.0291
vn -0.9415 0.3331 0.0505
vn -0.5655 -0.7930 0.2269
vn -0.8552 0.2579 0.4495
vn -0.4144 -0.8126 0.4099
vn -0.6606 0.1647 0.7324
vn -0.3270 -0.8294 0.4529
vn -0.2335 0.1273 0.9640
vn -0.2346 -0.8957 0.3778
vn 0.0712 -0.1248 0.9896
vn -0.0245 -0.9818 0.1883
vn 0.4386 -0.3556 0.8253
vn 0.2720 -0.9585 -0.0858
vn 0.7863 -0.3700 0.4948
vn 0.5523 -0.8099 -0.1974
vn 0.9327 0.1448 0.3302
vn 0.5889 -0.7934 -0.1544
vn 0.9563 0.2767 -0.0946
vn -0.0356 -0.9980 -0.0522
vn 0.7348 0.2919 -0.6122
vn -0.1038 0.2765 -0.9554
vn -0.1686 0.1292 -0.9772
vn 0.7632 0.2155 -0.6092
vn -0.8656 0.1600 -0.4745
vn -0.9065 0.0575 -0.4183
vn -0.9557 0.1075 0.2739
vn -0.9490 0.0985 0.2995
vn -0.3540 0.1806 0.9177
vn -0.3849 0.2192 0.8965
vn 0.5931 0.2450 0.7669
vn 0.5363 0.2957 0.7905
vn 0.9615 0.2625 0.0810
vn 0.9573 0.2622 0.1219
vn -0.1170 -0.0404 -0.9923
vn 0.7514 0.0095 -0.6598
vn -0.8712 -0.0352 -0.4896
vn -0.9685 0.0219 0.2482
vn -0.3885 0.1144 0.9143
vn 0.6164 0.1350 0.7758
vn 0.9953 0.0748 0.0608
vn 0.7630 -0.0316 -0.6456
vn -0.1628 -0.0019 -0.9867
vn -0.0863 -0.0577 -0.9946
vn 0.7626 -0.1381 -0.6319
vn -0.8961 0.0262 -0.4431
vn -0.8695 0.0743 -0.4883
vn -0.9580 0.0333 0.2848
vn -0.9536 0.1368 0.2682
vn -0.3949 0.0208 0.9185
vn -0.3476 0.1072 0.9315
vn 0.5682 -0.0109 0.8228
vn 0.6273 -0.0243 0.7784
vn 0.9936 -0.0325 0.1077
vn 0.9902 -0.1177 0.0752
vn 0.7490 0.1656 -0.6416
vn -0.1246 0.1895 -0.9740
vn 0.9849 0.1457 0.0932
vn 0.5779 0.1758 0.7969
vn -0.3647 0.1845 0.9127
vn -0.9484 0.1493 0.2796
vn -0.8716 0.1563 -0.4646
s 1
f 1/1/1 2/2/2 3/3/3
f 2/2/2 4/4/4 3/3/3
f 4/4/4 5/5/5 3/3/3
f 5/5/5 6/6/6 3/3/3
f 6/6/6 7/7/7 3/3/3
f 7/7/7 8/8/8 3/3/3
f 8/8/8 9/9/9 3/3/3
f 9/9/9 10/10/10 3/3/3
f 10/10/10 11/11/11 3/3/3
f 11/11/11 12/12/12 3/3/3
f 12/12/12 13/13/13 3/3/3
f 13/13/13 14/14/14 3/3/3
f 14/14/14 15/15/15 3/3/3
f 15/15/15 16/16/16 3/3/3
f 3/3/3 16/16/16 1/1/1
f 17/17/17 18/18/18 19/19/19
f 17/17/17 20/20/20 18/18/18
f 17/17/17 21/21/21 20/20/20
f 17/17/17 22/22/22 21/21/21
f 17/17/17 23/23/23 22/22/22
f 17/17/17 24/24/24 23/23/23
f 17/17/17 25/25/25 24/24/24
f 17/17/17 26/26/26 25/25/25
f 17/17/17 27/27/27 26/26/26
f 17/17/17 28/28/28 27/27/27
f 17/17/17 29/29/29 28/28/28
f 17/17/17 30/30/30 29/29/29
f 17/17/17 31/31/31 30/30/30
f 17/17/17 32/32/32 31/31/31
f 17/17/17 19/19/19 32/32/32
f 1/1/1 33/33/33 34/34/34
f 34/34/34 2/2/2 1/1/1
f 2/2/2 34/34/34 35/35/35
f 35/35/35 4/4/4 2/2/2
f 4/4/4 35/35/35 36/36/36
f 36/36/36 5/5/5 4/4/4
f 5/5/5 36/36/36 37/37/37
f 37/37/37 6/6/6 5/5/5
f 6/6/6 37/37/37 38/38/38
f 38/38/38 7/7/7 6/6/6
f 7/7/7 38/38/38 39/39/39
f 39/39/39 8/8/8 7/7/7
f 8/8/8 39/39/39 40/40/40
f 40/40/40 9/9/9 8/8/8
f 9/9/9 40/40/40 41/41/41
f 41/41/41 10/10/10 9/9/9
f 10/10/10 41/41/41 42/42/42
f 42/42/42 11/11/11 10/10/10
f 11/11/11 42/42/42 43/43/43
f 43/43/43 12/12/12 11/11/11
f 12/12/12 43/43/43 44/44/44
f 44/44/44 13/13/13 12/12/12
f 13/13/13 44/44/44 45/45/45
f 45/45/45 14/14/14 13/13/13
f 14/14/14 45/45/45 46/46/46
f 46/46/46 15/15/15 14/14/14
f 15/15/15 46/46/46 47/47/47
f 47/47/47 16/16/16 15/15/15
f 16/16/16 47/47/47 33/33/33
f 33/33/33 1/1/1 16/16/16
f 48/48/48 49/49/49 34/50/34
f 34/50/34 33/51/33 48/48/48
f 49/49/49 50/52/50 35/53/35
f 35/53/35 34/50/34 49/49/49
f 50/52/50 51/54/51 36/55/36
f 36/55/36 35/53/35 50/52/50
f 51/54/51 52/56/52 37/57/37
f 37/57/37 36/55/36 51/54/51
f 52/56/52 53/58/53 38/59/38
f 38/59/38 37/57/37 52/56/52
f 53/58/53 54/60/54 39/61/39
f 39/61/39 38/59/38 53/58/53
f 54/60/54 55/62/55 40/63/40
f 40/63/40 39/61/39 54/60/54
f 55/62/55 56/64/56 41/65/41
f 41/65/41 40/63/40 55/62/55
f 56/64/56 57/66/57 42/67/42
f 42/67/42 41/65/41 56/64/56
f 57/66/57 58/68/58 43/69/43
f 43/69/43 42/67/42 57/66/57
f 58/68/58 59/70/59 44/71/44
f 44/71/44 43/69/43 58/68/58
f 59/70/59 60/72/60 45/73/45
f 45/73/45 44/71/44 59/70/59
f 60/72/60 61/74/61 46/75/46
f 46/75/46 45/73/45 60/72/60
f 61/74/61 62/76/62 47/77/47
f 47/77/47 46/75/46 61/74/61
f 62/76/62 48/48/48 33/51/33
f 33/51/33 47/77/47 62/76/62
f 48/48/48 19/19/19 18/18/18
f 18/18/18 49/49/49 48/48/48
f 49/49/49 18/18/18 20/20/20
f 20/20/20 50/52/50 49/49/49
f 50/52/50 20/20/20 21/21/21
f 21/21/21 51/54/51 50/52/50
f 51/54/51 21/21/21 22/22/22
f 22/22/22 52/56/52 51/54/51
f 52/56/52 22/22/22 23/23/23
f 23/23/23 53/58/53 52/56/52
f 53/58/53 23/23/23 24/24/24
f 24/24/24 54/60/54 53/58/53
f 54/60/54 24/24/24 25/25/25
f 25/25/25 55/62/55 54/60/54
f 55/62/55 25/25/25 26/26/26
f 26/26/26 56/64/56 55/62/55
f 56/64/56 26/26/26 27/27/27
f 27/27/27 57/66/57 56/64/56
f 57/66/57 27/27/27 28/28/28
f 28/28/28 58/68/58 57/66/57
f 58/68/58 28/28/28 29/29/29
f 29/29/29 59/70/59 58/68/58
f 59/70/59 29/29/29 30/30/30
f 30/30/30 60/72/60 59/70/59
f 60/72/60 30/30/30 31/31/31
f 31/31/31 61/74/61 60/72/60
f 61/74/61 31/31/31 32/32/32
f 32/32/32 62/76/62 61/74/61
f 62/76/62 32/32/32 19/19/19
f 19/19/19 48/48/48 62/76/62
s 2
f 63/78/63 64/79/64 65/80/65
f 65/80/65 66/81/66 63/78/63
f 64/79/64 67/82/67 68/83/68
f 68/83/68 65/80/65 64/79/64
f 67/82/67 69/84/69 70/85/70
f 70/85/70 68/83/68 67/82/67
f 69/86/69 71/87/71 72/88/72
f 72/88/72 70/89/70 69/86/69
f 71/87/71 73/90/73 74/91/74
f 74/91/74 72/88/72 71/87/71
f 73/90/73 75/92/75 76/93/76
f 76/93/76 74/91/74 73/90/73
f 75/92/75 63/78/63 66/81/66
f 66/81/66 76/93/76 75/92/75
f 66/81/66 65/80/65 77/94/77
f 77/94/77 78/95/78 66/81/66
f 65/80/65 68/83/68 79/96/79
f 79/96/79 77/94/77 65/80/65
f 68/83/68 70/85/70 80/97/80
f 80/97/80 79/96/79 68/83/68
f 70/89/70 72/88/72 81/98/81
f 81/98/81 80/99/80 70/89/70
f 72/88/72 74/91/74 82/100/82
f 82/100/82 81/98/81 72/88/72
f 74/91/74 76/93/76 83/101/83
f 83/101/83 82/100/82 74/91/74
f 76/93/76 66/81/66 78/95/78
f 78/95/78 83/101/83 76/93/76
f 78/95/78 77/94/77 84/102/84
f 84/102/84 85/103/85 78/95/78
f 77/94/77 79/96/79 86/104/86
f 86/104/86 84/102/84 77/94/77
f 79/96/79 80/97/80 87/105/87
f 87/105/87 86/104/86 79/96/79
f 80/99/80 81/98/81 88/106/88
f 88/106/88 87/107/87 80/99/80
f 81/98/81 82/100/82 89/108/89
f 89/108/89 88/106/88 81/98/81
f 82/100/82 83/101/83 90/109/90
f 90/109/90 89/108/89 82/100/82
f 83/101/83 78/95/78 85/103/85
f 85/103/85 90/109/90 83/101/83
f 64/79/64 63/78/63 91/110/91
f 91/110/91 92/111/92 64/79/64
f 63/78/63 75/92/75 93/112/93
f 93/112/93 91/110/91 63/78/63
f 75/92/75 73/90/73 94/113/94
f 94/113/94 93/112/93 75/92/75
f 73/90/73 71/87/71 95/114/95
f 95/114/95 94/113/94 73/90/73
f 71/87/71 69/86/69 96/115/96
f 96/115/96 95/114/95 71/87/71
f 69/84/69 67/82/67 97/116/97
f 97/116/97 96/117/96 69/84/69
f 67/82/67 64/79/64 92/111/92
f 92/111/92 97/116/97 67/82/67
s 3
f 98/118/98 99/119/99 100/120/100
f 99/119/99 101/121/101 100/120/100
f 101/121/101 102/122/102 100/120/100
f 102/122/102 103/123/103 100/120/100
f 103/123/103 104/124/104 100/120/100
f 104/124/104 105/125/105 100/120/100
f 105/125/105 106/126/106 100/120/100
f 106/126/106 107/127/107 100/120/100
f 107/127/107 108/128/108 100/120/100
f 108/128/108 109/129/109 100/120/100
f 109/129/109 110/130/110 100/120/100
f 110/130/110 111/131/111 100/120/100
f 111/131/111 112/132/112 100/120/100
f 112/132/112 113/133/113 100/120/100
f 100/120/100 113/133/113 98/118/98
f 114/134/114 115/135/115 116/136/116
f 116/136/116 115/135/115 117/137/117
f 117/137/117 115/135/115 118/138/118
f 118/138/118 115/135/115 119/139/119
f 119/139/119 115/135/115 120/140/120
f 120/140/120 115/135/115 121/141/121
f 121/141/121 115/135/115 122/142/122
f 122/142/122 115/135/115 123/143/123
f 123/143/123 115/135/115 124/144/124
f 124/144/124 115/135/115 125/145/125
f 125/145/125 115/135/115 126/146/126
f 126/146/126 115/135/115 127/147/127
f 127/147/127 115/135/115 128/148/128
f 128/148/128 115/135/115 129/149/129
f 129/149/129 115/135/115 114/134/114
f 98/118/98 130/150/130 131/151/131
f 131/151/131 99/119/99 98/118/98
f 99/119/99 131/151/131 132/152/132
f 132/152/132 101/121/101 99/119/99
f 101/121/101 132/152/132 133/153/133
f 133/153/133 102/122/102 101/121/101
f 102/122/102 133/153/133 134/154/134
f 134/154/134 103/123/103 102/122/102
f 103/123/103 134/154/134 135/155/135
f 135/155/135 104/124/104 103/123/103
f 104/124/104 135/155/135 136/156/136
f 136/156/136 105/125/105 104/124/104
f 105/125/105 136/156/136 137/157/137
f 137/157/137 106/126/106 105/125/105
f 106/126/106 137/157/137 138/158/138
f 138/158/138 107/127/107 106/126/106
f 107/127/107 138/158/138 139/159/139
f 139/159/139 108/128/108 107/127/107
f 108/128/108 139/159/139 140/160/140
f 140/160/140 109/129/109 108/128/108
f 109/129/109 140/160/140 141/161/141
f 141/161/141 110/130/110 109/129/109
f 110/130/110 141/161/141 142/162/142
f 142/162/142 111/131/111 110/130/110
f 111/131/111 142/162/142 143/163/143
f 143/163/143 112/132/112 111/131/111
f 112/132/112 143/163/143 144/164/144
f 144/164/144 113/133/113 112/132/112
f 113/133/113 144/164/144 130/150/130
f 130/150/130 98/118/98 113/133/113
f 130/165/130 114/134/114 116/136/116
f 116/136/116 131/166/131 130/165/130
f 131/166/131 116/136/116 117/137/117
f 117/137/117 132/167/132 131/166/131
f 132/167/132 117/137/117 118/138/118
f 118/138/118 133/168/133 132/167/132
f 133/168/133 118/138/118 119/139/119
f 119/139/119 134/169/134 133/168/133
f 134/169/134 119/139/119 120/140/120
f 120/140/120 135/170/135 134/169/134
f 135/170/135 120/140/120 121/141/121
f 121/141/121 136/171/136 135/170/135
f 136/171/136 121/141/121 122/142/122
f 122/142/122 137/172/137 136/171/136
f 137/172/137 122/142/122 123/143/123
f 123/143/123 138/173/138 137/172/137
f 138/173/138 123/143/123 124/144/124
f 124/144/124 139/174/139 138/173/138
f 139/174/139 124/144/124 125/145/125
f 125/145/125 140/175/140 139/174/139
f 140/175/140 125/145/125 126/146/126
f 126/146/126 141/176/141 140/175/140
f 141/176/141 126/146/126 127/147/127
f 127/147/127 142/177/142 141/176/141
f 142/177/142 127/147/127 128/148/128
f 128/148/128 143/178/143 142/177/142
f 143/178/143 128/148/128 129/149/129
f 129/149/129 144/179/144 143/178/143
f 144/179/144 129/149/129 114/134/114
f 114/134/114 130/165/130 144/179/144
s 4
f 145/180/145 146/181/146 147/182/147
f 147/182/147 148/183/148 145/180/145
f 146/181/146 149/184/149 150/185/150
f 150/185/150 147/182/147 146/181/146
f 149/184/149 151/186/151 152/187/152
f 152/187/152 150/185/150 149/184/149
f 151/186/151 153/188/153 154/189/154
f 154/189/154 152/187/152 151/186/151
f 153/190/153 155/191/155 156/192/156
f 156/192/156 154/193/154 153/190/153
f 155/191/155 157/194/157 158/195/158
f 158/195/158 156/192/156 155/191/155
f 157/194/157 145/180/145 148/183/148
f 148/183/148 158/195/158 157/194/157
f 148/183/148 147/182/147 159/196/159
f 159/196/159 160/197/160 148/183/148
f 147/182/147 150/185/150 161/198/161
f 161/198/161 159/196/159 147/182/147
f 150/185/150 152/187/152 162/199/162
f 162/199/162 161/198/161 150/185/150
f 152/187/152 154/189/154 163/200/163
f 163/200/163 162/199/162 152/187/152
f 154/193/154 156/192/156 164/201/164
f 164/201/164 163/202/163 154/193/154
f 156/192/156 158/195/158 165/203/165
f 165/203/165 164/201/164 156/192/156
f 158/195/158 148/183/148 160/197/160
f 160/197/160 165/203/165 158/195/158
f 160/197/160 159/196/159 166/204/166
f 166/204/166 167/205/167 160/197/160
f 159/196/159 161/198/161 168/206/168
f 168/206/168 166/204/166 159/196/159
f 161/198/161 162/199/162 169/207/169
f 169/207/169 168/206/168 161/198/161
f 162/199/162 163/200/163 170/208/170
f 170/208/170 169/207/169 162/199/162
f 163/202/163 164/201/164 171/209/171
f 171/209/171 170/210/170 163/202/163
f 164/201/164 165/203/165 172/211/172
f 172/211/172 171/209/171 164/201/164
f 165/203/165 160/197/160 167/205/167
f 167/205/167 172/211/172 165/203/165
f 146/181/146 145/180/145 173/212/173
f 173/212/173 174/213/174 146/181/146
f 145/180/145 157/194/157 175/214/175
f 175/214/175 173/212/173 145/180/145
f 157/194/157 155/191/155 176/215/176
f 176/215/176 175/214/175 157/194/157
f 155/191/155 153/190/153 177/216/177
f 177/216/177 176/215/176 155/191/155
f 153/188/153 151/186/151 178/217/178
f 178/217/178 177/218/177 153/188/153
f 151/186/151 149/184/149 179/219/179
f 179/219/179 178/217/178 151/186/151
f 149/184/149 146/181/146 174/213/174
f 174/213/174 179/219/179 149/184/149
s 5
f 180/220/180 181/221/181 182/222/182
f 181/221/181 183/223/183 182/222/182
f 183/223/183 184/224/184 182/222/182
f 184/224/184 185/225/185 182/222/182
f 185/225/185 186/226/186 182/222/182
f 186/226/186 187/227/187 182/222/182
f 187/227/187 188/228/188 182/222/182
f 188/228/188 189/229/189 182/222/182
f 189/229/189 190/230/190 182/222/182
f 190/230/190 191/231/191 182/222/182
f 191/231/191 192/232/192 182/222/182
f 192/232/192 193/233/193 182/222/182
f 193/233/193 194/234/194 182/222/182
f 194/234/194 195/235/195 182/222/182
f 182/222/182 195/235/195 180/220/180
f 196/236/196 197/237/197 198/238/198
f 198/238/198 199/239/199 196/236/196
f 199/239/199 198/238/198 200/240/200
f 200/240/200 201/241/201 199/239/199
f 200/240/200 202/242/202 203/243/203
f 203/243/203 201/241/201 200/240/200
f 202/242/202 204/244/204 205/245/205
f 205/245/205 203/243/203 202/242/202
f 204/244/204 206/246/206 207/247/207
f 207/247/207 205/245/205 204/244/204
f 206/246/206 208/248/208 209/249/209
f 209/249/209 207/247/207 206/246/206
f 208/248/208 210/250/210 211/251/211
f 211/251/211 209/249/209 208/248/208
f 210/250/210 212/252/212 213/253/213
f 213/253/213 211/251/211 210/250/210
f 212/252/212 214/254/214 215/255/215
f 215/255/215 213/253/213 212/252/212
f 214/254/214 216/256/216 217/257/217
f 217/257/217 215/255/215 214/254/214
f 216/256/216 218/258/218 219/259/219
f 219/259/219 217/257/217 216/256/216
f 219/259/219 218/258/218 220/260/220
f 220/260/220 221/261/221 219/259/219
f 221/261/221 220/260/220 222/262/222
f 222/262/222 223/263/223 221/261/221
f 223/263/223 222/262/222 224/264/224
f 224/264/224 225/265/225 223/263/223
f 224/264/224 197/237/197 196/236/196
f 196/236/196 225/265/225 224/264/224
f 180/220/180 196/266/196 199/267/199
f 199/267/199 181/221/181 180/220/180
f 181/221/181 199/267/199 201/268/201
f 201/268/201 183/223/183 181/221/181
f 183/223/183 201/268/201 203/269/203
f 203/269/203 184/224/184 183/223/183
f 184/224/184 203/269/203 205/270/205
f 205/270/205 185/225/185 184/224/184
f 185/225/185 205/270/205 207/271/207
f 207/271/207 186/226/186 185/225/185
f 186/226/186 207/271/207 209/272/209
f 209/272/209 187/227/187 186/226/186
f 187/227/187 209/272/209 211/273/211
f 211/273/211 188/228/188 187/227/187
f 188/228/188 211/273/211 213/274/213
f 213/274/213 189/229/189 188/228/188
f 189/229/189 213/274/213 215/275/215
f 215/275/215 190/230/190 189/229/189
f 190/230/190 215/275/215 217/276/217
f 217/276/217 191/231/191 190/230/190
f 191/231/191 217/276/217 219/277/219
f 219/277/219 192/232/192 191/231/191
f 192/232/192 219/277/219 221/278/221
f 221/278/221 193/233/193 192/232/192
f 193/233/193 221/278/221 223/279/223
f 223/279/223 194/234/194 193/233/193
f 194/234/194 223/279/223 225/280/225
f 225/280/225 195/235/195 194/234/194
f 195/235/195 225/280/225 196/266/196
f 196/266/196 180/220/180 195/235/195
f 197/237/197 226/281/226 198/238/198
f 198/238/198 226/281/226 200/240/200
f 200/240/200 226/281/226 202/242/202
f 202/242/202 226/281/226 204/244/204
f 204/244/204 226/281/226 206/246/206
f 206/246/206 226/281/226 208/248/208
f 208/248/208 226/281/226 210/250/210
f 210/250/210 226/281/226 212/252/212
f 212/252/212 226/281/226 214/254/214
f 214/254/214 226/281/226 216/256/216
f 216/256/216 226/281/226 218/258/218
f 218/258/218 226/281/226 220/260/220
f 220/260/220 226/281/226 222/262/222
f 222/262/222 226/281/226 224/264/224
f 224/264/224 226/281/226 197/237/197
s 6
f 227/282/227 228/283/228 229/284/229
f 229/284/229 230/285/230 227/282/227
f 228/283/228 231/286/231 232/287/232
f 232/287/232 229/284/229 228/283/228
f 231/286/231 233/288/233 234/289/234
f 234/289/234 232/287/232 231/286/231
f 233/288/233 235/290/235 236/291/236
f 236/291/236 234/289/234 233/288/233
f 235/290/235 237/292/237 238/293/238
f 238/293/238 236/291/236 235/290/235
f 237/292/237 239/294/239 240/295/240
f 240/295/240 238/293/238 237/292/237
f 239/296/239 227/282/227 230/285/230
f 230/285/230 240/297/240 239/296/239
f 230/285/230 229/284/229 241/298/241
f 241/298/241 242/299/242 230/285/230
f 229/284/229 232/287/232 243/300/243
f 243/300/243 241/298/241 229/284/229
f 232/287/232 234/289/234 244/301/244
f 244/301/244 243/300/243 232/287/232
f 234/289/234 236/291/236 245/302/245
f 245/302/245 244/301/244 234/289/234
f 236/291/236 238/293/238 246/303/246
f 246/303/246 245/302/245 236/291/236
f 238/293/238 240/295/240 247/304/247
f 247/304/247 246/303/246 238/293/238
f 240/297/240 230/285/230 242/299/242
f 242/299/242 247/305/247 240/297/240
f 248/306/248 249/307/249 250/308/250
f 250/308/250 251/309/251 248/306/248
f 249/307/249 252/310/252 253/311/253
f 253/311/253 250/308/250 249/307/249
f 252/310/252 254/312/254 255/313/255
f 255/313/255 253/311/253 252/310/252
f 254/312/254 256/314/256 257/315/257
f 257/315/257 255/313/255 254/312/254
f 256/314/256 258/316/258 259/317/259
f 259/317/259 257/315/257 256/314/256
f 258/316/258 260/318/260 261/319/261
f 261/319/261 259/317/259 258/316/258
f 260/320/260 248/306/248 251/309/251
f 251/309/251 261/321/261 260/320/260
f 228/283/228 227/282/227 262/322/262
f 262/322/262 263/323/263 228/283/228
f 227/282/227 239/296/239 264/324/264
f 264/324/264 262/322/262 227/282/227
f 239/294/239 237/292/237 265/325/265
f 265/325/265 264/326/264 239/294/239
f 237/292/237 235/290/235 266/327/266
f 266/327/266 265/325/265 237/292/237
f 235/290/235 233/288/233 267/328/267
f 267/328/267 266/327/266 235/290/235
f 233/288/233 231/286/231 268/329/268
f 268/329/268 267/328/267 233/288/233
f 231/286/231 228/283/228 263/323/263
f 263/323/263 268/329/268 231/286/231
f 249/307/249 248/306/248 242/299/242
f 242/299/242 241/298/241 249/307/249
f 252/310/252 249/307/249 241/298/241
f 241/298/241 243/300/243 252/310/252
f 254/312/254 252/310/252 243/300/243
f 243/300/243 244/301/244 254/312/254
f 256/314/256 254/312/254 244/301/244
f 244/301/244 245/302/245 256/314/256
f 258/316/258 256/314/256 245/302/245
f 245/302/245 246/303/246 258/316/258
f 260/318/260 258/316/258 246/303/246
f 246/303/246 247/304/247 260/318/260
f 248/306/248 260/320/260 247/305/247
f 247/305/247 242/299/242 248/306/248
