# Blender v3.3.0 OBJ File: ''
# www.blender.org
o MushroomStage00.005
v -0.023552 0.065315 -0.027949
v -0.025849 0.063863 -0.015199
v -0.017529 0.059683 -0.021203
v -0.027997 0.066023 -0.027454
v -0.034642 0.062572 -0.019506
v -0.035557 0.061682 -0.015547
v -0.034901 0.059999 -0.011532
v -0.032575 0.059040 -0.008160
v -0.029077 0.057694 -0.005940
v -0.024857 0.053206 -0.004701
v -0.016784 0.049781 -0.008696
v -0.015863 0.057061 -0.013164
v -0.012194 0.044568 -0.024760
v -0.025849 0.035633 -0.015199
v -0.023547 0.044042 -0.032026
v -0.030301 0.044135 -0.031504
v -0.040939 0.044608 -0.022227
v -0.042501 0.044595 -0.015481
v -0.041188 0.044578 -0.008684
v -0.037232 0.044529 -0.002999
v -0.031310 0.044319 0.000635
v -0.024344 0.040953 0.002083
v -0.012193 0.037821 -0.004912
v -0.009504 0.044231 -0.011433
v -0.013370 0.053183 -0.024101
v -0.022900 0.061194 -0.032429
v -0.029101 0.062201 -0.031904
v -0.039408 0.057344 -0.021744
v -0.040845 0.056016 -0.015646
v -0.039722 0.053574 -0.009475
v -0.036138 0.052232 -0.004321
v -0.030774 0.050447 -0.000997
v -0.024450 0.045302 0.000315
v -0.013331 0.041879 -0.005961
v -0.010921 0.049680 -0.011951
v -0.021211 0.015163 -0.015430
v -0.025599 0.015163 -0.017456
v -0.025674 0.028931 -0.021762
v -0.022113 0.028931 -0.020118
v -0.029536 0.015163 -0.014193
v -0.028869 0.028931 -0.019114
v -0.030056 0.015163 -0.008099
v -0.029292 0.028931 -0.014168
v -0.026769 0.015163 -0.003762
v -0.026624 0.028931 -0.010648
v -0.022149 0.015163 -0.004449
v -0.022874 0.028931 -0.011206
v -0.019675 0.015163 -0.009642
v -0.020867 0.028931 -0.015420
v -0.017564 0.000000 -0.020241
v -0.024485 0.000000 -0.023436
v -0.015142 0.000000 -0.011111
v -0.019043 0.000000 -0.002920
v -0.026330 0.000000 -0.001837
v -0.031516 0.000000 -0.008677
v -0.030695 0.000000 -0.018289
v -0.026303 0.039904 -0.019846
v -0.022741 0.039904 -0.018202
v -0.029498 0.039904 -0.017198
v -0.029920 0.039904 -0.012252
v -0.027252 0.039904 -0.008733
v -0.023503 0.039904 -0.009290
v -0.021495 0.039904 -0.013504
v 0.015654 0.033149 0.017074
v 0.013162 0.031378 0.018786
v 0.018721 0.036054 0.023653
v 0.011481 0.034447 0.024520
v 0.014557 0.034942 0.029657
v 0.020380 0.032508 0.030777
v 0.024943 0.031938 0.027126
v 0.025435 0.029586 0.021344
v 0.021468 0.031619 0.017133
v 0.018578 0.033353 0.016513
v 0.015310 0.020831 0.016338
v 0.018721 0.017292 0.023653
v 0.012975 0.019513 0.018645
v 0.010346 0.022211 0.024666
v 0.013835 0.022784 0.030672
v 0.020509 0.020283 0.031367
v 0.025346 0.019727 0.027335
v 0.025223 0.018782 0.021415
v 0.021617 0.019482 0.016815
v 0.018570 0.020971 0.015607
v 0.014911 0.023437 0.015481
v 0.011973 0.021424 0.017751
v 0.009648 0.025034 0.024742
v 0.013489 0.025653 0.031191
v 0.020762 0.022687 0.032429
v 0.026380 0.021992 0.027924
v 0.026748 0.019539 0.020892
v 0.022096 0.021623 0.015651
v 0.018545 0.023666 0.014730
v 0.023990 0.003631 0.022148
v 0.021835 0.003631 0.020385
v 0.019653 0.011929 0.022306
v 0.021105 0.011929 0.023494
v 0.019112 0.003631 0.020971
v 0.017819 0.011929 0.022701
v 0.017873 0.003631 0.023465
v 0.016984 0.011929 0.024380
v 0.019050 0.003631 0.025989
v 0.017777 0.011929 0.026081
v 0.021757 0.003631 0.026642
v 0.019601 0.011929 0.026521
v 0.023956 0.003631 0.024933
v 0.021082 0.011929 0.025369
v 0.019317 0.020228 0.022206
v 0.020968 0.020228 0.023557
v 0.017230 0.020228 0.022655
v 0.016280 0.020228 0.024566
v 0.017182 0.020228 0.026500
v 0.019257 0.020228 0.027001
v 0.020942 0.020228 0.025691
v 0.024729 -0.000000 0.021804
v 0.022026 -0.000000 0.019592
v 0.024686 -0.000000 0.025296
v 0.021928 -0.000000 0.027439
v 0.018533 -0.000000 0.026620
v 0.017057 -0.000000 0.023454
v 0.018612 -0.000000 0.020327
v 0.041367 0.019652 -0.005948
v 0.041386 0.019261 -0.008258
v 0.038738 0.020956 -0.007024
v 0.039712 0.020169 -0.009801
v 0.037436 0.019960 -0.009621
v 0.036029 0.019543 -0.007782
v 0.036479 0.019203 -0.005512
v 0.038443 0.018651 -0.004334
v 0.042024 0.013083 -0.005492
v 0.042063 0.013084 -0.008432
v 0.042501 0.013754 -0.008598
v 0.042413 0.013991 -0.005310
v 0.039912 0.013084 -0.010433
v 0.040059 0.014718 -0.010874
v 0.036984 0.013084 -0.010183
v 0.036744 0.014420 -0.010583
v 0.035205 0.013072 -0.007841
v 0.034808 0.013840 -0.007938
v 0.035787 0.012952 -0.004960
v 0.035512 0.013361 -0.004774
v 0.038301 0.012427 -0.003453
v 0.038266 0.012790 -0.003136
v 0.038738 0.011759 -0.007024
v 0.037526 0.001779 -0.004567
v 0.039239 0.001779 -0.004588
v 0.039418 0.008715 -0.006489
v 0.038416 0.008715 -0.006477
v 0.040290 0.001779 -0.005941
v 0.040033 0.008715 -0.007280
v 0.039888 0.001779 -0.007607
v 0.039798 0.008715 -0.008254
v 0.038335 0.001779 -0.008331
v 0.038890 0.008715 -0.008678
v 0.036801 0.001779 -0.007568
v 0.037992 0.008715 -0.008232
v 0.036441 0.001779 -0.005893
v 0.037782 0.008715 -0.007252
v 0.039220 0.013339 -0.006065
v 0.038218 0.013339 -0.006052
v 0.039835 0.013339 -0.006856
v 0.039600 0.013339 -0.007830
v 0.038692 0.013339 -0.008253
v 0.037795 0.013339 -0.007807
v 0.037584 0.013339 -0.006828
v 0.037577 0.000000 -0.004677
v 0.039185 0.000000 -0.004697
v 0.036558 0.000000 -0.005922
v 0.036897 0.000000 -0.007494
v 0.038337 0.000000 -0.008210
v 0.039795 0.000000 -0.007530
v 0.040172 0.000000 -0.005967
vt 0.627100 0.502500
vt 0.651100 0.524200
vt 0.623700 0.531000
vt 0.627600 0.489800
vt 0.658800 0.493400
vt 0.626700 0.461200
vt 0.650600 0.466500
vt 0.627600 0.449300
vt 0.651200 0.456600
vt 0.628300 0.436700
vt 0.652400 0.447000
vt 0.630000 0.425000
vt 0.654600 0.436000
vt 0.631900 0.413600
vt 0.657000 0.427600
vt 0.626000 0.624500
vt 0.620700 0.609500
vt 0.655000 0.625500
vt 0.618100 0.580200
vt 0.657700 0.605600
vt 0.623900 0.555300
vt 0.654200 0.544100
vt 0.650400 0.537200
vt 0.581400 0.538200
vt 0.534200 0.533300
vt 0.572100 0.506100
vt 0.525000 0.499200
vt 0.570600 0.488300
vt 0.531500 0.460300
vt 0.577300 0.453200
vt 0.536000 0.429800
vt 0.582000 0.437000
vt 0.542400 0.411300
vt 0.587900 0.421600
vt 0.547600 0.397300
vt 0.593700 0.406100
vt 0.554400 0.380300
vt 0.600200 0.390400
vt 0.586700 0.625300
vt 0.544000 0.604400
vt 0.588300 0.609300
vt 0.548900 0.589400
vt 0.589100 0.583200
vt 0.547000 0.576900
vt 0.591700 0.567700
vt 0.545100 0.567200
vt 0.603300 0.534700
vt 0.612500 0.503800
vt 0.613900 0.491200
vt 0.608600 0.458300
vt 0.609000 0.444400
vt 0.608900 0.429500
vt 0.611000 0.414700
vt 0.614000 0.398700
vt 0.604100 0.625700
vt 0.599000 0.610100
vt 0.597900 0.581700
vt 0.604400 0.565100
vt 0.846200 0.295200
vt 0.847700 0.308200
vt 0.812600 0.311100
vt 0.812600 0.302100
vt 0.848800 0.321900
vt 0.813300 0.320600
vt 0.850200 0.337300
vt 0.814000 0.332500
vt 0.850800 0.350300
vt 0.813900 0.344000
vt 0.848400 0.361100
vt 0.812500 0.354100
vt 0.842100 0.373200
vt 0.809300 0.365200
vt 0.843000 0.280500
vt 0.812300 0.290800
vt 0.885100 0.283100
vt 0.889200 0.299500
vt 0.875600 0.263700
vt 0.882800 0.376600
vt 0.873500 0.396900
vt 0.886500 0.359000
vt 0.887300 0.338400
vt 0.888100 0.317000
vt 0.786700 0.311900
vt 0.786100 0.302200
vt 0.786700 0.321900
vt 0.786000 0.333100
vt 0.784900 0.342700
vt 0.785000 0.351100
vt 0.785100 0.361700
vt 0.784400 0.290400
vt 0.841500 0.204100
vt 0.849000 0.199600
vt 0.850500 0.221000
vt 0.865300 0.205900
vt 0.854300 0.220700
vt 0.880800 0.206600
vt 0.872400 0.222900
vt 0.896800 0.201800
vt 0.891700 0.221300
vt 0.912100 0.201300
vt 0.904500 0.220300
vt 0.927800 0.196400
vt 0.921100 0.219400
vt 0.942400 0.200600
vt 0.933900 0.219200
vt 0.826100 0.202000
vt 0.834100 0.205100
vt 0.827100 0.222500
vt 0.839200 0.223100
vt 0.839000 0.173200
vt 0.841200 0.151300
vt 0.847500 0.169700
vt 0.857000 0.152700
vt 0.863900 0.175600
vt 0.872500 0.153300
vt 0.881000 0.176700
vt 0.888400 0.152800
vt 0.897700 0.171300
vt 0.906700 0.152500
vt 0.913300 0.170800
vt 0.920700 0.152600
vt 0.927900 0.168300
vt 0.932000 0.151900
vt 0.942300 0.168500
vt 0.822500 0.170500
vt 0.828600 0.152500
vt 0.830600 0.174000
vt 0.833400 0.152400
vt 0.839400 0.180000
vt 0.847200 0.175000
vt 0.864100 0.182600
vt 0.881000 0.184000
vt 0.897300 0.177700
vt 0.913100 0.176900
vt 0.928300 0.172000
vt 0.944500 0.175000
vt 0.821700 0.176700
vt 0.830900 0.181100
vt 0.963400 0.537300
vt 0.960700 0.543400
vt 0.941900 0.535200
vt 0.943000 0.530700
vt 0.962800 0.496000
vt 0.963600 0.502800
vt 0.943400 0.507400
vt 0.943600 0.502800
vt 0.963700 0.509800
vt 0.943000 0.512000
vt 0.964000 0.516900
vt 0.943000 0.516600
vt 0.964500 0.523800
vt 0.943200 0.521300
vt 0.964600 0.530600
vt 0.943400 0.526000
vt 0.922500 0.535800
vt 0.922700 0.530600
vt 0.923200 0.505400
vt 0.924000 0.500400
vt 0.922700 0.510500
vt 0.922400 0.515600
vt 0.922500 0.520600
vt 0.922700 0.525600
vt 0.971900 0.540100
vt 0.968600 0.547900
vt 0.973400 0.532000
vt 0.973500 0.524200
vt 0.973200 0.516700
vt 0.973000 0.509200
vt 0.972700 0.501400
vt 0.971200 0.493200
vt 0.022400 0.238800
vt 0.023900 0.244700
vt 0.015800 0.242700
vt 0.022400 0.250900
vt 0.015900 0.247100
vt 0.022900 0.256900
vt 0.015700 0.254400
vt 0.023500 0.263000
vt 0.016100 0.260300
vt 0.023400 0.269100
vt 0.016200 0.265700
vt 0.023500 0.275100
vt 0.015700 0.271000
vt 0.022700 0.229800
vt 0.015600 0.235100
vt 0.038300 0.235500
vt 0.039400 0.242800
vt 0.037600 0.243000
vt 0.036000 0.235900
vt 0.040100 0.250100
vt 0.035900 0.250300
vt 0.040100 0.257500
vt 0.036700 0.257500
vt 0.039600 0.264900
vt 0.037600 0.264800
vt 0.039000 0.272200
vt 0.037800 0.272100
vt 0.039500 0.279500
vt 0.038200 0.279800
vt 0.038500 0.225000
vt 0.037400 0.224600
vt 0.047500 0.238200
vt 0.048400 0.245400
vt 0.048800 0.253900
vt 0.048600 0.261900
vt 0.047900 0.269500
vt 0.047600 0.275200
vt 0.046000 0.230300
vt 0.713200 0.019900
vt 0.717100 0.020700
vt 0.713500 0.038000
vt 0.711000 0.037700
vt 0.720900 0.022000
vt 0.715900 0.038500
vt 0.693100 0.022000
vt 0.697300 0.021600
vt 0.700900 0.038100
vt 0.698500 0.038400
vt 0.701400 0.021100
vt 0.703400 0.037900
vt 0.705300 0.020400
vt 0.705900 0.037700
vt 0.709300 0.019900
vt 0.708400 0.037600
vt 0.713000 0.049400
vt 0.710700 0.049400
vt 0.715400 0.049300
vt 0.701200 0.049200
vt 0.698800 0.049400
vt 0.703600 0.049000
vt 0.706000 0.049100
vt 0.708300 0.049300
vt 0.713500 0.015700
vt 0.717700 0.016400
vt 0.709100 0.015600
vt 0.704900 0.016100
vt 0.700900 0.016700
vt 0.696900 0.017200
vt 0.692900 0.017600
vt 0.721700 0.017300
vn 0.4380 0.8535 -0.2824
vn 0.1866 0.9036 0.3855
vn 0.7181 0.6955 -0.0232
vn -0.2219 0.9403 -0.2580
vn -0.5219 0.8530 -0.0028
vn -0.5109 0.8284 0.2295
vn -0.4672 0.7625 0.4476
vn -0.2982 0.7468 0.5945
vn 0.1203 0.6818 0.7216
vn 0.4564 0.5537 0.6965
vn 0.4685 0.4926 0.7334
vn 0.5780 0.6542 0.4877
vn 0.7692 -0.3835 -0.5111
vn -0.0604 -0.9941 -0.0905
vn 0.2302 -0.4893 -0.8412
vn -0.3642 -0.4716 -0.8031
vn -0.7884 -0.4125 -0.4563
vn -0.9085 -0.4177 -0.0107
vn -0.8421 -0.4010 0.3607
vn -0.6321 -0.3815 0.6745
vn -0.3725 -0.2877 0.8823
vn 0.0310 -0.4022 0.9150
vn 0.7050 -0.5737 0.4169
vn 0.9709 -0.2159 0.1040
vn 0.8533 0.3175 -0.4135
vn 0.4025 0.3750 -0.8351
vn -0.3838 0.4332 -0.8155
vn -0.8394 0.3898 -0.3787
vn -0.9023 0.4211 0.0917
vn -0.8091 0.3869 0.4423
vn -0.5602 0.4083 0.7207
vn -0.1301 0.4241 0.8962
vn 0.3140 0.4079 0.8573
vn 0.5954 0.3797 0.7081
vn 0.8374 0.4187 0.3514
vn 0.7938 0.1212 -0.5960
vn -0.1595 0.0330 -0.9867
vn -0.1118 -0.0630 -0.9917
vn 0.7333 -0.0150 -0.6798
vn -0.9144 0.0445 -0.4023
vn -0.8557 -0.0534 -0.5148
vn -0.9370 0.1409 0.3197
vn -0.9762 0.0202 0.2161
vn -0.3608 0.2571 0.8965
vn -0.4061 0.1363 0.9036
vn 0.5344 0.2918 0.7933
vn 0.6373 0.1535 0.7552
vn 0.9654 0.2183 0.1425
vn 0.9972 0.0683 0.0292
vn 0.7015 0.3633 -0.6131
vn -0.0900 0.3597 -0.9287
vn 0.9578 0.2800 0.0659
vn 0.6044 0.2015 0.7707
vn -0.3543 0.1077 0.9289
vn -0.9611 0.0825 0.2636
vn -0.8470 0.1980 -0.4933
vn -0.1560 0.1612 -0.9745
vn 0.7740 0.1516 -0.6148
vn -0.9056 0.0220 -0.4235
vn -0.9453 -0.1079 0.3079
vn -0.3680 -0.1803 0.9122
vn 0.5566 -0.1118 0.8232
vn 0.9907 0.0338 0.1316
vn -0.4603 0.6251 -0.6303
vn -0.7417 0.4158 -0.5263
vn 0.1875 0.9778 -0.0931
vn -0.7535 0.6554 -0.0517
vn -0.3421 0.6912 0.6366
vn 0.3042 0.5122 0.8031
vn 0.7884 0.5378 0.2985
vn 0.8745 0.3743 -0.3084
vn 0.5903 0.4681 -0.6575
vn 0.1451 0.6477 -0.7479
vn -0.2603 -0.6202 -0.7400
vn -0.1191 -0.9907 0.0662
vn -0.4690 -0.8095 -0.3533
vn -0.8246 -0.5322 0.1918
vn -0.5172 -0.4873 0.7036
vn 0.0697 -0.6884 0.7220
vn 0.6065 -0.7093 0.3593
vn 0.3668 -0.9286 -0.0560
vn 0.1546 -0.7791 -0.6076
vn -0.0912 -0.6082 -0.7885
vn -0.4222 -0.0602 -0.9045
vn -0.7467 -0.2904 -0.5985
vn -0.9944 -0.0025 0.1053
vn -0.5548 0.0122 0.8319
vn 0.2170 -0.1433 0.9656
vn 0.8780 -0.1447 0.4562
vn 0.8435 -0.4790 -0.2430
vn 0.4673 -0.1808 -0.8654
vn 0.0220 -0.0282 -0.9994
vn 0.8689 0.2839 -0.4053
vn 0.2478 0.2495 -0.9361
vn 0.2086 0.1379 -0.9682
vn 0.8878 0.2007 -0.4141
vn -0.5812 0.1553 -0.7988
vn -0.6350 0.0022 -0.7725
vn -0.9977 0.0624 -0.0281
vn -0.9954 -0.0959 -0.0018
vn -0.6196 0.0624 0.7825
vn -0.6385 -0.0959 0.7636
vn 0.2385 0.1553 0.9586
vn 0.1838 0.0022 0.9830
vn 0.8765 0.2494 0.4118
vn 0.8760 0.1380 0.4622
vn 0.2234 -0.0027 -0.9747
vn 0.9061 0.0182 -0.4226
vn -0.6241 -0.0486 -0.7798
vn -0.9964 -0.0844 -0.0062
vn -0.6357 -0.0843 0.7673
vn 0.1962 -0.0485 0.9794
vn 0.8903 -0.0026 0.4553
vn 0.8843 0.2191 -0.4123
vn 0.2290 0.2192 -0.9484
vn 0.8737 0.2191 0.4343
vn 0.2052 0.2191 0.9539
vn -0.6178 0.2192 0.7552
vn -0.9756 0.2193 -0.0123
vn -0.5988 0.2192 -0.7703
vn 0.6777 0.6018 0.4226
vn 0.8148 0.4885 -0.3123
vn -0.0079 0.9843 0.1763
vn 0.3151 0.6622 -0.6798
vn -0.4326 0.6073 -0.6664
vn -0.8251 0.5519 -0.1207
vn -0.6469 0.5261 0.5520
vn -0.0230 0.4291 0.9030
vn 0.6421 -0.6762 0.3611
vn 0.6003 -0.7395 -0.3046
vn 0.8903 -0.2128 -0.4027
vn 0.8493 -0.0799 0.5218
vn 0.2591 -0.6285 -0.7334
vn 0.3353 -0.0171 -0.9419
vn -0.3526 -0.6535 -0.6698
vn -0.4932 -0.0473 -0.8686
vn -0.6796 -0.7114 -0.1791
vn -0.9707 -0.1196 -0.2086
vn -0.5507 -0.7818 0.2924
vn -0.8034 -0.2028 0.5599
vn 0.0031 -0.8311 0.5560
vn -0.0293 -0.2747 0.9611
vn 0.0114 -0.9987 -0.0507
vn -0.4202 0.1080 0.9010
vn 0.4283 0.0798 0.9001
vn 0.4721 0.0846 0.8775
vn -0.4206 0.1025 0.9014
vn 0.9723 0.0085 0.2335
vn 0.9840 0.0466 0.1720
vn 0.7799 -0.0573 -0.6233
vn 0.7634 0.0200 -0.6457
vn -0.0241 -0.0574 -0.9981
vn 0.0046 0.0201 -0.9998
vn -0.8041 0.0084 -0.5945
vn -0.7643 0.0467 -0.6431
vn -0.9648 0.0800 0.2506
vn -0.9756 0.0845 0.2025
vn 0.4252 -0.0647 0.9028
vn -0.4205 -0.1008 0.9017
vn 0.9713 0.0198 0.2371
vn 0.7786 0.0903 -0.6210
vn -0.0251 0.0903 -0.9956
vn -0.8058 0.0200 -0.5918
vn -0.9650 -0.0645 0.2543
vn -0.4216 -0.0680 0.9042
vn 0.4441 -0.0682 0.8934
vn -0.9699 -0.0676 0.2339
vn -0.7877 -0.0678 -0.6123
vn -0.0124 -0.0678 -0.9976
vn 0.7724 -0.0677 -0.6316
vn 0.9754 -0.0677 0.2098
s 1
f 1/1/1 2/2/2 3/3/3
f 1/1/1 4/4/4 2/5/2
f 5/6/5 2/7/2 4/4/4
f 5/6/5 6/8/6 2/9/2
f 6/8/6 7/10/7 2/11/2
f 7/10/7 8/12/8 2/13/2
f 8/12/8 9/14/9 2/15/2
f 9/16/9 10/17/10 2/18/2
f 11/19/11 2/20/2 10/17/10
f 11/19/11 12/21/12 2/22/2
f 2/23/2 12/21/12 3/3/3
f 13/24/13 14/25/14 15/26/15
f 15/26/15 14/27/14 16/28/16
f 16/28/16 14/29/14 17/30/17
f 17/30/17 14/31/14 18/32/18
f 18/32/18 14/33/14 19/34/19
f 19/34/19 14/35/14 20/36/20
f 20/36/20 14/37/14 21/38/21
f 21/39/21 14/40/14 22/41/22
f 22/41/22 14/42/14 23/43/23
f 23/43/23 14/44/14 24/45/24
f 24/45/24 14/46/14 13/24/13
f 3/3/3 25/47/25 26/48/26
f 26/48/26 1/1/1 3/3/3
f 25/47/25 13/24/13 15/26/15
f 15/26/15 26/48/26 25/47/25
f 1/1/1 26/48/26 27/49/27
f 27/49/27 4/4/4 1/1/1
f 15/26/15 16/28/16 27/49/27
f 27/49/27 26/48/26 15/26/15
f 4/4/4 27/49/27 28/50/28
f 28/50/28 5/6/5 4/4/4
f 16/28/16 17/30/17 28/50/28
f 28/50/28 27/49/27 16/28/16
f 5/6/5 28/50/28 29/51/29
f 29/51/29 6/8/6 5/6/5
f 17/30/17 18/32/18 29/51/29
f 29/51/29 28/50/28 17/30/17
f 6/8/6 29/51/29 30/52/30
f 30/52/30 7/10/7 6/8/6
f 18/32/18 19/34/19 30/52/30
f 30/52/30 29/51/29 18/32/18
f 7/10/7 30/52/30 31/53/31
f 31/53/31 8/12/8 7/10/7
f 19/34/19 20/36/20 31/53/31
f 31/53/31 30/52/30 19/34/19
f 8/12/8 31/53/31 32/54/32
f 32/54/32 9/14/9 8/12/8
f 20/36/20 21/38/21 32/54/32
f 32/54/32 31/53/31 20/36/20
f 9/16/9 32/55/32 33/56/33
f 33/56/33 10/17/10 9/16/9
f 21/39/21 22/41/22 33/56/33
f 33/56/33 32/55/32 21/39/21
f 10/17/10 33/56/33 34/57/34
f 34/57/34 11/19/11 10/17/10
f 22/41/22 23/43/23 34/57/34
f 34/57/34 33/56/33 22/41/22
f 11/19/11 34/57/34 35/58/35
f 35/58/35 12/21/12 11/19/11
f 34/57/34 23/43/23 24/45/24
f 24/45/24 35/58/35 34/57/34
f 12/21/12 35/58/35 25/47/25
f 25/47/25 3/3/3 12/21/12
f 35/58/35 24/45/24 13/24/13
f 13/24/13 25/47/25 35/58/35
s 2
f 36/59/36 37/60/37 38/61/38
f 38/61/38 39/62/39 36/59/36
f 37/60/37 40/63/40 41/64/41
f 41/64/41 38/61/38 37/60/37
f 40/63/40 42/65/42 43/66/43
f 43/66/43 41/64/41 40/63/40
f 42/65/42 44/67/44 45/68/45
f 45/68/45 43/66/43 42/65/42
f 44/67/44 46/69/46 47/70/47
f 47/70/47 45/68/45 44/67/44
f 46/69/46 48/71/48 49/72/49
f 49/72/49 47/70/47 46/69/46
f 48/73/48 36/59/36 39/62/39
f 39/62/39 49/74/49 48/73/48
f 37/60/37 36/59/36 50/75/50
f 50/75/50 51/76/51 37/60/37
f 36/59/36 48/73/48 52/77/52
f 52/77/52 50/75/50 36/59/36
f 48/71/48 46/69/46 53/78/53
f 53/78/53 52/79/52 48/71/48
f 46/69/46 44/67/44 54/80/54
f 54/80/54 53/78/53 46/69/46
f 44/67/44 42/65/42 55/81/55
f 55/81/55 54/80/54 44/67/44
f 42/65/42 40/63/40 56/82/56
f 56/82/56 55/81/55 42/65/42
f 40/63/40 37/60/37 51/76/51
f 51/76/51 56/82/56 40/63/40
f 57/83/57 58/84/58 39/62/39
f 39/62/39 38/61/38 57/83/57
f 59/85/59 57/83/57 38/61/38
f 38/61/38 41/64/41 59/85/59
f 60/86/60 59/85/59 41/64/41
f 41/64/41 43/66/43 60/86/60
f 61/87/61 60/86/60 43/66/43
f 43/66/43 45/68/45 61/87/61
f 62/88/62 61/87/61 45/68/45
f 45/68/45 47/70/47 62/88/62
f 63/89/63 62/88/62 47/70/47
f 47/70/47 49/72/49 63/89/63
f 58/84/58 63/90/63 49/74/49
f 49/74/49 39/62/39 58/84/58
s 3
f 64/91/64 65/92/65 66/93/66
f 67/94/67 66/95/66 65/92/65
f 68/96/68 66/97/66 67/94/67
f 69/98/69 66/99/66 68/96/68
f 70/100/70 66/101/66 69/98/69
f 71/102/71 66/103/66 70/100/70
f 72/104/72 66/105/66 71/102/71
f 72/106/72 73/107/73 66/108/66
f 66/109/66 73/107/73 64/91/64
f 74/110/74 75/111/75 76/112/76
f 76/112/76 75/113/75 77/114/77
f 77/114/77 75/115/75 78/116/78
f 78/116/78 75/117/75 79/118/79
f 79/118/79 75/119/75 80/120/80
f 80/120/80 75/121/75 81/122/81
f 81/122/81 75/123/75 82/124/82
f 82/125/82 75/126/75 83/127/83
f 83/127/83 75/128/75 74/110/74
f 64/91/64 84/129/84 85/130/85
f 85/130/85 65/92/65 64/91/64
f 65/92/65 85/130/85 86/131/86
f 86/131/86 67/94/67 65/92/65
f 67/94/67 86/131/86 87/132/87
f 87/132/87 68/96/68 67/94/67
f 68/96/68 87/132/87 88/133/88
f 88/133/88 69/98/69 68/96/68
f 69/98/69 88/133/88 89/134/89
f 89/134/89 70/100/70 69/98/69
f 70/100/70 89/134/89 90/135/90
f 90/135/90 71/102/71 70/100/70
f 71/102/71 90/135/90 91/136/91
f 91/136/91 72/104/72 71/102/71
f 72/106/72 91/137/91 92/138/92
f 92/138/92 73/107/73 72/106/72
f 73/107/73 92/138/92 84/129/84
f 84/129/84 64/91/64 73/107/73
f 84/129/84 74/110/74 76/112/76
f 76/112/76 85/130/85 84/129/84
f 85/130/85 76/112/76 77/114/77
f 77/114/77 86/131/86 85/130/85
f 86/131/86 77/114/77 78/116/78
f 78/116/78 87/132/87 86/131/86
f 87/132/87 78/116/78 79/118/79
f 79/118/79 88/133/88 87/132/87
f 88/133/88 79/118/79 80/120/80
f 80/120/80 89/134/89 88/133/88
f 89/134/89 80/120/80 81/122/81
f 81/122/81 90/135/90 89/134/89
f 90/135/90 81/122/81 82/124/82
f 82/124/82 91/136/91 90/135/90
f 91/137/91 82/125/82 83/127/83
f 83/127/83 92/138/92 91/137/91
f 92/138/92 83/127/83 74/110/74
f 74/110/74 84/129/84 92/138/92
s 4
f 93/139/93 94/140/94 95/141/95
f 95/141/95 96/142/96 93/139/93
f 94/143/94 97/144/97 98/145/98
f 98/145/98 95/146/95 94/143/94
f 97/144/97 99/147/99 100/148/100
f 100/148/100 98/145/98 97/144/97
f 99/147/99 101/149/101 102/150/102
f 102/150/102 100/148/100 99/147/99
f 101/149/101 103/151/103 104/152/104
f 104/152/104 102/150/102 101/149/101
f 103/151/103 105/153/105 106/154/106
f 106/154/106 104/152/104 103/151/103
f 105/153/105 93/139/93 96/142/96
f 96/142/96 106/154/106 105/153/105
f 96/142/96 95/141/95 107/155/107
f 107/155/107 108/156/108 96/142/96
f 95/146/95 98/145/98 109/157/109
f 109/157/109 107/158/107 95/146/95
f 98/145/98 100/148/100 110/159/110
f 110/159/110 109/157/109 98/145/98
f 100/148/100 102/150/102 111/160/111
f 111/160/111 110/159/110 100/148/100
f 102/150/102 104/152/104 112/161/112
f 112/161/112 111/160/111 102/150/102
f 104/152/104 106/154/106 113/162/113
f 113/162/113 112/161/112 104/152/104
f 106/154/106 96/142/96 108/156/108
f 108/156/108 113/162/113 106/154/106
f 94/140/94 93/139/93 114/163/114
f 114/163/114 115/164/115 94/140/94
f 93/139/93 105/153/105 116/165/116
f 116/165/116 114/163/114 93/139/93
f 105/153/105 103/151/103 117/166/117
f 117/166/117 116/165/116 105/153/105
f 103/151/103 101/149/101 118/167/118
f 118/167/118 117/166/117 103/151/103
f 101/149/101 99/147/99 119/168/119
f 119/168/119 118/167/118 101/149/101
f 99/147/99 97/144/97 120/169/120
f 120/169/120 119/168/119 99/147/99
f 97/144/97 94/143/94 115/170/115
f 115/170/115 120/169/120 97/144/97
s 5
f 121/171/121 122/172/122 123/173/123
f 122/172/122 124/174/124 123/175/123
f 124/174/124 125/176/125 123/177/123
f 125/176/125 126/178/126 123/179/123
f 126/178/126 127/180/127 123/181/123
f 127/180/127 128/182/128 123/183/123
f 128/184/128 121/171/121 123/185/123
f 129/186/129 130/187/130 131/188/131
f 131/188/131 132/189/132 129/186/129
f 130/187/130 133/190/133 134/191/134
f 134/191/134 131/188/131 130/187/130
f 133/190/133 135/192/135 136/193/136
f 136/193/136 134/191/134 133/190/133
f 135/192/135 137/194/137 138/195/138
f 138/195/138 136/193/136 135/192/135
f 137/194/137 139/196/139 140/197/140
f 140/197/140 138/195/138 137/194/137
f 139/196/139 141/198/141 142/199/142
f 142/199/142 140/197/140 139/196/139
f 141/200/141 129/186/129 132/189/132
f 132/189/132 142/201/142 141/200/141
f 121/171/121 132/189/132 131/188/131
f 131/188/131 122/172/122 121/171/121
f 122/172/122 131/188/131 134/191/134
f 134/191/134 124/174/124 122/172/122
f 124/174/124 134/191/134 136/193/136
f 136/193/136 125/176/125 124/174/124
f 125/176/125 136/193/136 138/195/138
f 138/195/138 126/178/126 125/176/125
f 126/178/126 138/195/138 140/197/140
f 140/197/140 127/180/127 126/178/126
f 127/180/127 140/197/140 142/199/142
f 142/199/142 128/182/128 127/180/127
f 128/184/128 142/201/142 132/189/132
f 132/189/132 121/171/121 128/184/128
f 129/186/129 143/202/143 130/187/130
f 130/187/130 143/203/143 133/190/133
f 133/190/133 143/204/143 135/192/135
f 135/192/135 143/205/143 137/194/137
f 137/194/137 143/206/143 139/196/139
f 139/196/139 143/207/143 141/198/141
f 141/200/141 143/208/143 129/186/129
s 6
f 144/209/144 145/210/145 146/211/146
f 146/211/146 147/212/147 144/209/144
f 145/210/145 148/213/148 149/214/149
f 149/214/149 146/211/146 145/210/145
f 148/215/148 150/216/150 151/217/151
f 151/217/151 149/218/149 148/215/148
f 150/216/150 152/219/152 153/220/153
f 153/220/153 151/217/151 150/216/150
f 152/219/152 154/221/154 155/222/155
f 155/222/155 153/220/153 152/219/152
f 154/221/154 156/223/156 157/224/157
f 157/224/157 155/222/155 154/221/154
f 156/223/156 144/209/144 147/212/147
f 147/212/147 157/224/157 156/223/156
f 147/212/147 146/211/146 158/225/158
f 158/225/158 159/226/159 147/212/147
f 146/211/146 149/214/149 160/227/160
f 160/227/160 158/225/158 146/211/146
f 149/218/149 151/217/151 161/228/161
f 161/228/161 160/229/160 149/218/149
f 151/217/151 153/220/153 162/230/162
f 162/230/162 161/228/161 151/217/151
f 153/220/153 155/222/155 163/231/163
f 163/231/163 162/230/162 153/220/153
f 155/222/155 157/224/157 164/232/164
f 164/232/164 163/231/163 155/222/155
f 157/224/157 147/212/147 159/226/159
f 159/226/159 164/232/164 157/224/157
f 145/210/145 144/209/144 165/233/165
f 165/233/165 166/234/166 145/210/145
f 144/209/144 156/223/156 167/235/167
f 167/235/167 165/233/165 144/209/144
f 156/223/156 154/221/154 168/236/168
f 168/236/168 167/235/167 156/223/156
f 154/221/154 152/219/152 169/237/169
f 169/237/169 168/236/168 154/221/154
f 152/219/152 150/216/150 170/238/170
f 170/238/170 169/237/169 152/219/152
f 150/216/150 148/215/148 171/239/171
f 171/239/171 170/238/170 150/216/150
f 148/213/148 145/210/145 166/234/166
f 166/234/166 171/240/171 148/213/148
