# Blender v3.3.0 OBJ File: ''
# www.blender.org
o MushroomDead.005
v 0.041224 0.083370 0.054513
v 0.035248 0.082728 0.058809
v 0.049060 0.081495 0.069403
v 0.032722 0.086138 0.064982
v 0.032292 0.086597 0.071907
v 0.033954 0.084054 0.078429
v 0.039158 0.085379 0.083521
v 0.045213 0.083293 0.086326
v 0.051551 0.079745 0.086280
v 0.057884 0.078555 0.083317
v 0.062190 0.076764 0.077970
v 0.064023 0.075815 0.071239
v 0.062715 0.074316 0.064317
v 0.059275 0.075307 0.058342
v 0.054252 0.078635 0.054297
v 0.048008 0.082048 0.052918
v 0.046447 0.071744 0.069403
v 0.032542 0.076287 0.056705
v 0.038750 0.074624 0.051862
v 0.028773 0.077297 0.063744
v 0.028096 0.077478 0.071762
v 0.030627 0.076800 0.079371
v 0.035928 0.075380 0.085257
v 0.043084 0.073462 0.088402
v 0.050857 0.071380 0.088261
v 0.057902 0.069492 0.084860
v 0.063002 0.068125 0.078786
v 0.065275 0.067516 0.071090
v 0.064328 0.067770 0.063102
v 0.060324 0.068843 0.056203
v 0.053956 0.070549 0.051587
v 0.046325 0.072594 0.050051
v 0.035725 0.072842 0.044907
v 0.027111 0.075153 0.051697
v 0.024965 0.076918 0.049381
v 0.035333 0.076611 0.042003
v 0.021901 0.076550 0.061512
v 0.019937 0.081971 0.060366
v 0.020981 0.076798 0.072668
v 0.019017 0.082831 0.073010
v 0.024506 0.075853 0.083251
v 0.022380 0.079343 0.085061
v 0.031871 0.073879 0.091448
v 0.031584 0.080166 0.094372
v 0.041814 0.071214 0.095853
v 0.042635 0.076385 0.099288
v 0.052635 0.068312 0.095706
v 0.054093 0.070683 0.098949
v 0.062457 0.065636 0.091005
v 0.064973 0.068058 0.093458
v 0.069430 0.063489 0.082485
v 0.072294 0.064982 0.083880
v 0.072462 0.062472 0.071758
v 0.075254 0.063374 0.072018
v 0.070567 0.060832 0.060680
v 0.073034 0.061538 0.059931
v 0.065037 0.062345 0.051107
v 0.067065 0.063265 0.049467
v 0.056782 0.066764 0.044639
v 0.058193 0.068306 0.042214
v 0.046607 0.071216 0.042413
v 0.047165 0.073725 0.039506
v 0.036958 0.078773 0.045240
v 0.027758 0.078622 0.051944
v 0.023521 0.083339 0.061701
v 0.022793 0.084067 0.072785
v 0.025658 0.080696 0.083297
v 0.033782 0.081858 0.091467
v 0.043453 0.078551 0.095892
v 0.053555 0.073350 0.095761
v 0.063377 0.071157 0.091060
v 0.070108 0.068375 0.082627
v 0.072969 0.066896 0.071978
v 0.071010 0.065039 0.060971
v 0.065536 0.066616 0.051451
v 0.057448 0.071369 0.045010
v 0.047524 0.076371 0.042791
v 0.055647 0.010314 0.066918
v 0.050059 0.010314 0.062347
v 0.044403 0.033886 0.067327
v 0.048167 0.033886 0.070406
v 0.043001 0.010314 0.063866
v 0.039648 0.033886 0.068350
v 0.039787 0.010314 0.070331
v 0.037484 0.033886 0.072705
v 0.042838 0.010314 0.076875
v 0.039539 0.033886 0.077113
v 0.049857 0.010314 0.078569
v 0.044267 0.033886 0.078254
v 0.055557 0.010314 0.074138
v 0.048107 0.033886 0.075269
v 0.043530 0.057459 0.067068
v 0.047813 0.057459 0.070572
v 0.038121 0.057459 0.068232
v 0.035658 0.057459 0.073187
v 0.037997 0.057459 0.078202
v 0.043375 0.057459 0.079500
v 0.047744 0.057459 0.076104
v 0.045775 0.077462 0.066594
v 0.049612 0.077462 0.069733
v 0.040928 0.077462 0.067637
v 0.038722 0.077462 0.072076
v 0.040817 0.077462 0.076569
v 0.045636 0.077462 0.077732
v 0.049550 0.077462 0.074690
v 0.057563 -0.000000 0.066025
v 0.050555 -0.000000 0.060292
v 0.057450 -0.000000 0.075079
v 0.050301 -0.000000 0.080636
v 0.041500 -0.000000 0.078511
v 0.037673 -0.000000 0.070305
v 0.041703 -0.000000 0.062196
v 0.090839 0.045454 0.016842
v 0.091716 0.047153 0.013263
v 0.081883 0.047573 0.013714
v 0.090903 0.047504 0.009212
v 0.088591 0.048828 0.006256
v 0.085201 0.050792 0.004815
v 0.081276 0.050859 0.004298
v 0.077445 0.050240 0.005264
v 0.074377 0.048406 0.007374
v 0.072651 0.047412 0.010907
v 0.072592 0.045705 0.014588
v 0.074183 0.044210 0.017971
v 0.077112 0.042341 0.020176
v 0.080877 0.041932 0.021413
v 0.084868 0.043052 0.021471
v 0.088405 0.044601 0.019973
v 0.081883 0.043324 0.012167
v 0.090727 0.043829 0.012515
v 0.089899 0.042603 0.015883
v 0.090025 0.045064 0.009122
v 0.087915 0.046094 0.006291
v 0.084762 0.046742 0.004511
v 0.081112 0.046896 0.004090
v 0.077594 0.046528 0.005100
v 0.074818 0.045703 0.007368
v 0.073264 0.044562 0.010500
v 0.073199 0.043335 0.013967
v 0.074637 0.042147 0.017138
v 0.077327 0.041289 0.019495
v 0.080805 0.040879 0.020621
v 0.084469 0.040989 0.020319
v 0.087686 0.041599 0.018644
v 0.093078 0.040893 0.017140
v 0.094206 0.042603 0.012445
v 0.095772 0.044555 0.013228
v 0.094405 0.042171 0.018264
v 0.093211 0.044321 0.007727
v 0.094703 0.045615 0.007593
v 0.090267 0.045753 0.003794
v 0.091377 0.047533 0.003233
v 0.085880 0.046654 0.001319
v 0.086384 0.049846 0.000883
v 0.080803 0.046869 0.000727
v 0.080610 0.049935 0.000159
v 0.075904 0.046361 0.002120
v 0.075086 0.049019 0.001637
v 0.072025 0.045217 0.005261
v 0.070794 0.046649 0.004822
v 0.069842 0.043613 0.009611
v 0.068490 0.044985 0.009760
v 0.069792 0.041747 0.014386
v 0.068549 0.042595 0.014918
v 0.071826 0.040059 0.018766
v 0.070888 0.040514 0.019604
v 0.075573 0.038000 0.021704
v 0.075023 0.038246 0.022760
v 0.080393 0.037443 0.023276
v 0.080272 0.037669 0.024507
v 0.085485 0.038482 0.023213
v 0.085860 0.038875 0.024561
v 0.089983 0.040020 0.021170
v 0.090876 0.040764 0.022489
v 0.093101 0.043513 0.017863
v 0.094229 0.045632 0.013370
v 0.093223 0.046409 0.008356
v 0.090279 0.048086 0.004558
v 0.085916 0.050259 0.002571
v 0.080874 0.050345 0.001917
v 0.076004 0.049560 0.003171
v 0.072155 0.047414 0.005910
v 0.070015 0.046019 0.010297
v 0.069964 0.043886 0.014921
v 0.071991 0.042005 0.019187
v 0.075719 0.039861 0.022066
v 0.080510 0.039338 0.023642
v 0.085568 0.040526 0.023648
v 0.090029 0.042306 0.021721
v -0.025439 0.009336 0.064011
v -0.019282 0.009336 0.063934
v -0.018399 0.019848 0.060162
v -0.024655 0.019848 0.060214
v -0.015503 0.009336 0.059073
v -0.014559 0.019848 0.056820
v -0.016948 0.009336 0.053087
v -0.016027 0.019848 0.052706
v -0.022529 0.009336 0.050485
v -0.021697 0.019848 0.050917
v -0.028043 0.009336 0.053225
v -0.027300 0.019848 0.052801
v -0.029338 0.009336 0.059245
v -0.028616 0.019848 0.056939
v -0.018639 0.040870 0.057104
v -0.022239 0.040870 0.057149
v -0.016429 0.040870 0.054261
v -0.017274 0.040870 0.050761
v -0.020537 0.040870 0.049239
v -0.023762 0.040870 0.050842
v -0.024519 0.040870 0.054362
v -0.018537 0.051382 0.056885
v -0.022137 0.051382 0.056930
v -0.016327 0.051382 0.054042
v -0.017172 0.051382 0.050542
v -0.020435 0.051382 0.049020
v -0.023660 0.051382 0.050623
v -0.024417 0.051382 0.054143
v -0.019350 0.064267 0.058629
v -0.022950 0.064267 0.058674
v -0.017140 0.064267 0.055786
v -0.017985 0.064267 0.052285
v -0.021248 0.064267 0.050764
v -0.024473 0.062513 0.052366
v -0.025230 0.062513 0.055887
v -0.025826 -0.000000 0.064840
v -0.018875 -0.000000 0.064754
v -0.030228 -0.000000 0.059460
v -0.028765 -0.000000 0.052664
v -0.022540 -0.000000 0.049570
v -0.016240 -0.000000 0.052508
v -0.014609 -0.000000 0.059265
v 0.078061 0.006264 0.019101
v 0.083861 0.006264 0.019028
v 0.084467 0.030693 0.012594
v 0.081075 0.030693 0.012637
v 0.087420 0.006264 0.014449
v 0.086549 0.030693 0.009916
v 0.086059 0.006264 0.008810
v 0.085753 0.030693 0.006619
v 0.080802 0.006264 0.006359
v 0.082678 0.030693 0.005185
v 0.075608 0.006264 0.008941
v 0.079641 0.030693 0.006695
v 0.074388 0.006264 0.014611
v 0.078927 0.030693 0.010011
v 0.083797 0.046978 0.014030
v 0.080405 0.046978 0.014073
v 0.085879 0.046978 0.011352
v 0.085083 0.046978 0.008055
v 0.082009 0.046978 0.006621
v 0.078971 0.046978 0.008131
v 0.078257 0.046978 0.011447
v 0.078234 -0.000000 0.018730
v 0.083678 -0.000000 0.018662
v 0.074786 -0.000000 0.014515
v 0.075931 -0.000000 0.009192
v 0.080807 -0.000000 0.006768
v 0.085742 -0.000000 0.009070
v 0.087020 -0.000000 0.014363
v 0.070174 0.012862 -0.046993
v 0.076114 0.012862 -0.054254
v 0.069161 0.043692 -0.060862
v 0.065687 0.043692 -0.056615
v 0.074140 0.012862 -0.063426
v 0.068006 0.043692 -0.066225
v 0.065739 0.012862 -0.067601
v 0.063094 0.043692 -0.068667
v 0.057237 0.012862 -0.063637
v 0.058121 0.043692 -0.066348
v 0.055035 0.012862 -0.054517
v 0.056834 0.043692 -0.061015
v 0.060793 0.012862 -0.047110
v 0.060201 0.043692 -0.056683
v 0.068617 0.074523 -0.062028
v 0.065143 0.074523 -0.057782
v 0.067463 0.074523 -0.067391
v 0.062550 0.074523 -0.069833
v 0.057577 0.074523 -0.067515
v 0.056290 0.074523 -0.062182
v 0.059657 0.074523 -0.057850
v 0.069855 0.096861 -0.059371
v 0.066381 0.096861 -0.055125
v 0.068701 0.096861 -0.064735
v 0.063788 0.096861 -0.067177
v 0.058816 0.096861 -0.064858
v 0.057529 0.096861 -0.059525
v 0.060896 0.096861 -0.055193
v 0.070600 0.000000 -0.046079
v 0.077094 0.000000 -0.054018
v 0.060344 0.000000 -0.046207
v 0.054050 0.000000 -0.054305
v 0.056456 0.000000 -0.064275
v 0.065752 0.000000 -0.068610
v 0.074937 0.000000 -0.064045
v 0.087786 0.109578 -0.074528
v 0.080581 0.113264 -0.083276
v 0.062672 0.110834 -0.060510
v 0.070225 0.119685 -0.087326
v 0.058609 0.120544 -0.088024
v 0.047668 0.115739 -0.085380
v 0.039126 0.113321 -0.077894
v 0.034422 0.109703 -0.067768
v 0.034499 0.103277 -0.057263
v 0.039469 0.101410 -0.046606
v 0.048439 0.098244 -0.039426
v 0.059730 0.096533 -0.036383
v 0.071342 0.093543 -0.038705
v 0.081364 0.095225 -0.044471
v 0.088149 0.101315 -0.052760
v 0.090462 0.107488 -0.063114
v 0.062672 0.096615 -0.064320
v 0.080972 0.103439 -0.084279
v 0.087954 0.101038 -0.075340
v 0.070829 0.104897 -0.089705
v 0.059277 0.105161 -0.090679
v 0.048312 0.104184 -0.087032
v 0.039830 0.102135 -0.079393
v 0.035297 0.099370 -0.069085
v 0.035494 0.096365 -0.057889
v 0.040382 0.093633 -0.047734
v 0.049109 0.091608 -0.040345
v 0.060227 0.090685 -0.037028
v 0.071927 0.090351 -0.038169
v 0.082061 0.091938 -0.044052
v 0.088435 0.095090 -0.053413
v 0.090278 0.098286 -0.064376
v 0.098928 0.101586 -0.079100
v 0.089048 0.106705 -0.091429
v 0.074515 0.114132 -0.097740
v 0.057882 0.115357 -0.098853
v 0.042055 0.110172 -0.094583
v 0.029792 0.106694 -0.083741
v 0.023233 0.101575 -0.069272
v 0.023535 0.093508 -0.054300
v 0.030632 0.090128 -0.039798
v 0.043224 0.085803 -0.029972
v 0.059033 0.083471 -0.025883
v 0.075315 0.080504 -0.028903
v 0.089410 0.082860 -0.036976
v 0.099021 0.090164 -0.048825
v 0.102433 0.097881 -0.063429
v 0.095504 0.093180 -0.079527
v 0.086403 0.096277 -0.091072
v 0.073248 0.098151 -0.098055
v 0.058296 0.098483 -0.099288
v 0.044111 0.097217 -0.094564
v 0.033124 0.094571 -0.084693
v 0.027221 0.090998 -0.071365
v 0.027418 0.087109 -0.056862
v 0.033718 0.083512 -0.043700
v 0.045138 0.080577 -0.034369
v 0.059516 0.079173 -0.030316
v 0.074363 0.076534 -0.032975
v 0.087194 0.078569 -0.040385
v 0.095863 0.084944 -0.051328
v 0.098847 0.091265 -0.064871
v -0.065846 0.150939 -0.031522
v -0.074108 0.154737 -0.017476
v -0.036426 0.146587 -0.004689
v -0.085334 0.164044 -0.004021
v -0.080882 0.163643 0.011760
v -0.072161 0.156472 0.024393
v -0.047787 0.149454 0.034814
v -0.032188 0.144206 0.035876
v -0.017897 0.137381 0.030093
v -0.005955 0.136154 0.018342
v -0.000590 0.133250 0.002757
v -0.002302 0.130579 -0.013790
v -0.010638 0.128549 -0.028429
v -0.022918 0.132001 -0.038786
v -0.037162 0.140384 -0.043143
v -0.052040 0.148383 -0.040622
v -0.077711 0.140793 -0.044983
v -0.076168 0.136106 -0.042279
v -0.094041 0.141706 -0.025631
v -0.100333 0.149058 -0.028321
v -0.102433 0.146459 -0.005402
v -0.102335 0.156419 -0.004888
v -0.096772 0.145357 0.015976
v -0.096080 0.155872 0.018225
v -0.087316 0.141077 0.032207
v -0.082663 0.147514 0.036893
v -0.052597 0.131518 0.046646
v -0.051696 0.138518 0.050702
v -0.031410 0.125285 0.047822
v -0.029074 0.130946 0.051898
v -0.011793 0.119009 0.039898
v -0.008519 0.122665 0.043212
v 0.002996 0.114431 0.024257
v 0.006820 0.117018 0.026272
v 0.010016 0.111472 0.003641
v 0.013804 0.113094 0.004235
v 0.007241 0.106820 -0.018175
v 0.010493 0.107873 -0.018889
v -0.003495 0.105549 -0.037482
v -0.001008 0.106478 -0.039221
v -0.019740 0.110025 -0.051208
v -0.018095 0.111291 -0.053750
v -0.037775 0.123838 -0.057118
v -0.037127 0.125903 -0.060231
v -0.057814 0.132884 -0.054041
v -0.058304 0.136117 -0.057257
v -0.076602 0.143805 -0.044390
v -0.098866 0.151913 -0.027880
v -0.100656 0.159164 -0.004817
v -0.094432 0.158591 0.017834
v -0.081293 0.150300 0.036119
v -0.061246 0.144252 0.046856
v -0.028537 0.134022 0.051075
v -0.008230 0.125866 0.042717
v 0.007620 0.122216 0.026179
v 0.014296 0.116357 0.004434
v 0.011247 0.111107 -0.018649
v -0.000175 0.109711 -0.039131
v -0.017400 0.114553 -0.053714
v -0.036518 0.129158 -0.060001
v -0.057537 0.139280 -0.056764
v -0.069428 0.143387 -0.035564
v -0.041238 0.128630 -0.004689
v -0.079657 0.146694 -0.020380
v -0.082091 0.148059 -0.002816
v -0.077612 0.147273 0.014394
v -0.068583 0.144571 0.027174
v -0.049683 0.139551 0.037545
v -0.032350 0.134085 0.038431
v -0.016242 0.128760 0.031863
v -0.004122 0.124468 0.018984
v 0.001992 0.121818 0.001987
v 0.001544 0.118774 -0.016616
v -0.008091 0.118855 -0.032970
v -0.022070 0.122931 -0.044684
v -0.037968 0.132744 -0.048732
v -0.054490 0.139043 -0.044702
v -0.030201 0.016559 -0.009458
v -0.041378 0.016559 -0.013369
v -0.043631 0.036303 -0.006901
v -0.035577 0.036303 -0.004082
v -0.051405 0.016559 -0.007069
v -0.050856 0.036303 -0.002361
v -0.052730 0.016559 0.004698
v -0.051811 0.036303 0.006118
v -0.044357 0.016559 0.013071
v -0.045778 0.036303 0.012152
v -0.032590 0.016559 0.011745
v -0.037299 0.036303 0.011196
v -0.026290 0.016559 0.001719
v -0.032759 0.036303 0.003972
v -0.043769 0.069264 -0.012892
v -0.037233 0.069264 -0.010604
v -0.049633 0.069264 -0.009207
v -0.050408 0.069264 -0.002326
v -0.045511 0.069264 0.002571
v -0.038630 0.069264 0.001795
v -0.034946 0.069264 -0.004068
v -0.038386 0.095535 -0.007939
v -0.044922 0.095535 -0.010226
v -0.042764 0.136435 -0.011133
v -0.036228 0.136435 -0.008846
v -0.050786 0.095535 -0.006542
v -0.048628 0.136435 -0.007449
v -0.051561 0.095535 0.000340
v -0.049403 0.136435 -0.000568
v -0.046664 0.095535 0.005236
v -0.044506 0.136435 0.004329
v -0.039783 0.095535 0.004461
v -0.037625 0.136435 0.003554
v -0.036099 0.095535 -0.001403
v -0.033941 0.136435 -0.002310
v -0.028883 0.000000 -0.010776
v -0.041587 0.000000 -0.015221
v -0.024438 -0.000000 0.001927
v -0.031599 -0.000000 0.013323
v -0.044973 -0.000000 0.014830
v -0.054489 -0.000000 0.005313
v -0.052983 0.000000 -0.008061
v -0.015414 0.070449 0.059365
v -0.014870 0.070824 0.056323
v -0.022164 0.068891 0.058261
v -0.015496 0.070511 0.053494
v -0.016973 0.069729 0.051375
v -0.018998 0.068874 0.050110
v -0.021579 0.069005 0.049744
v -0.024234 0.068595 0.050451
v -0.026530 0.068062 0.052345
v -0.027832 0.067420 0.055159
v -0.027930 0.067529 0.058242
v -0.026838 0.067870 0.060900
v -0.024885 0.068143 0.062727
v -0.022437 0.068599 0.063588
v -0.019730 0.069196 0.063355
v -0.017186 0.069859 0.061897
v -0.021090 0.062799 0.058261
v -0.004937 0.066275 0.058550
v -0.006458 0.066007 0.065240
v -0.006227 0.066048 0.051809
v -0.010106 0.065364 0.046184
v -0.015903 0.064342 0.042647
v -0.022496 0.062483 0.041810
v -0.028963 0.061343 0.043818
v -0.034067 0.060443 0.048323
v -0.036925 0.059939 0.054546
v -0.037162 0.060593 0.061412
v -0.034520 0.061059 0.067733
v -0.029574 0.061931 0.072417
v -0.023180 0.063059 0.074652
v -0.016443 0.064247 0.074054
v -0.010528 0.065290 0.070725
v 0.003951 0.068568 0.058805
v 0.001571 0.067367 0.069163
v 0.001805 0.069244 0.048243
v -0.004338 0.068333 0.039369
v -0.013231 0.065077 0.033770
v -0.023804 0.062966 0.032443
v -0.034141 0.062199 0.035621
v -0.041738 0.059142 0.042721
v -0.046007 0.058580 0.052447
v -0.045655 0.057219 0.063023
v -0.041264 0.057461 0.072573
v -0.033510 0.057938 0.079557
v -0.023873 0.059721 0.082990
v -0.013897 0.063217 0.082315
v -0.004949 0.066403 0.077473
v -0.005561 0.071022 0.065101
v -0.001117 0.068588 0.067602
v 0.000840 0.069619 0.058367
v -0.004044 0.071851 0.057739
v -0.001176 0.070237 0.049076
v -0.005689 0.072429 0.050408
v -0.006610 0.069399 0.041342
v -0.009948 0.071731 0.044377
v -0.014340 0.066337 0.036467
v -0.015888 0.068971 0.040595
v -0.023574 0.064495 0.035266
v -0.023074 0.067531 0.039644
v -0.032720 0.064006 0.037966
v -0.030325 0.067465 0.041736
v -0.039518 0.061180 0.044142
v -0.035707 0.065006 0.046606
v -0.043500 0.060764 0.052729
v -0.038951 0.064848 0.053440
v -0.043366 0.059453 0.062202
v -0.038853 0.063649 0.060988
v -0.039560 0.059660 0.070889
v -0.035863 0.063802 0.067877
v -0.032559 0.060036 0.077308
v -0.030338 0.063961 0.072939
v -0.023763 0.061659 0.080407
v -0.023426 0.065238 0.075370
v -0.014753 0.064935 0.079658
v -0.016366 0.068100 0.074757
v -0.006812 0.067863 0.075140
v -0.010106 0.070626 0.071139
vt 0.913400 0.915400
vt 0.916400 0.906800
vt 0.933400 0.921100
vt 0.923900 0.901600
vt 0.932000 0.899400
vt 0.940800 0.899800
vt 0.948000 0.905300
vt 0.952900 0.912100
vt 0.954900 0.920700
vt 0.952500 0.929100
vt 0.947200 0.936000
vt 0.939600 0.940000
vt 0.930800 0.941400
vt 0.922600 0.938600
vt 0.916500 0.932100
vt 0.913400 0.923900
vt 0.942500 0.721000
vt 0.934100 0.698500
vt 0.944000 0.697100
vt 0.925700 0.703900
vt 0.920200 0.712200
vt 0.918500 0.722000
vt 0.921000 0.731600
vt 0.927100 0.739400
vt 0.935900 0.744200
vt 0.945800 0.744900
vt 0.955200 0.741500
vt 0.962400 0.734600
vt 0.966000 0.725300
vt 0.965600 0.715200
vt 0.961400 0.706100
vt 0.953700 0.699600
vt 0.945300 0.687600
vt 0.931300 0.689600
vt 0.929800 0.685200
vt 0.946100 0.681700
vt 0.919500 0.697400
vt 0.914100 0.692300
vt 0.911900 0.709100
vt 0.904700 0.706100
vt 0.909500 0.722900
vt 0.903800 0.723200
vt 0.913100 0.736400
vt 0.905600 0.740500
vt 0.921600 0.747400
vt 0.916400 0.753200
vt 0.933800 0.754300
vt 0.932200 0.759400
vt 0.947900 0.755400
vt 0.948400 0.760700
vt 0.961300 0.750500
vt 0.963400 0.754400
vt 0.971700 0.740700
vt 0.974600 0.743000
vt 0.977700 0.727400
vt 0.980900 0.728200
vt 0.977200 0.713400
vt 0.980500 0.712300
vt 0.970400 0.700600
vt 0.973100 0.697800
vt 0.959100 0.691400
vt 0.961200 0.687000
vt 0.899700 0.913900
vt 0.904400 0.900000
vt 0.916900 0.891500
vt 0.930800 0.887400
vt 0.945600 0.888000
vt 0.957400 0.897200
vt 0.965700 0.909100
vt 0.969100 0.923400
vt 0.964800 0.937200
vt 0.956000 0.948500
vt 0.943200 0.955100
vt 0.928800 0.957300
vt 0.915300 0.952700
vt 0.905300 0.942000
vt 0.900100 0.928300
vt 0.894500 0.913300
vt 0.899900 0.897500
vt 0.913800 0.887400
vt 0.930200 0.882500
vt 0.947300 0.883300
vt 0.961100 0.893800
vt 0.970700 0.907900
vt 0.974300 0.924500
vt 0.969200 0.940200
vt 0.958800 0.953000
vt 0.944100 0.960200
vt 0.928000 0.962400
vt 0.913000 0.957300
vt 0.901500 0.945600
vt 0.895100 0.930100
vt 0.924700 0.248200
vt 0.933400 0.248500
vt 0.933500 0.280200
vt 0.927100 0.280200
vt 0.942000 0.250300
vt 0.939800 0.280900
vt 0.950700 0.252600
vt 0.946000 0.281600
vt 0.959500 0.254900
vt 0.952100 0.282000
vt 0.899900 0.256800
vt 0.907900 0.253000
vt 0.914700 0.282200
vt 0.908700 0.283500
vt 0.916100 0.249800
vt 0.920800 0.280900
vt 0.934800 0.310700
vt 0.928000 0.310900
vt 0.941600 0.310400
vt 0.948300 0.310200
vt 0.955200 0.310200
vt 0.914300 0.311400
vt 0.907300 0.311600
vt 0.921100 0.311200
vt 0.935000 0.332300
vt 0.929000 0.332800
vt 0.941000 0.331600
vt 0.947200 0.331300
vt 0.953400 0.331700
vt 0.916800 0.332600
vt 0.910700 0.332800
vt 0.922900 0.332800
vt 0.923500 0.235100
vt 0.934400 0.235300
vt 0.912800 0.237100
vt 0.902500 0.240800
vt 0.892600 0.245900
vt 0.955100 0.240000
vt 0.965200 0.243600
vt 0.944900 0.237100
vt 0.327300 0.959700
vt 0.322300 0.959200
vt 0.326100 0.947700
vt 0.317600 0.957100
vt 0.314600 0.953200
vt 0.313800 0.948100
vt 0.314500 0.943300
vt 0.317200 0.939200
vt 0.321400 0.936200
vt 0.326400 0.935700
vt 0.331200 0.937100
vt 0.335000 0.940300
vt 0.337600 0.944700
vt 0.337900 0.949700
vt 0.335700 0.954300
vt 0.331900 0.957800
vt 0.203000 0.712500
vt 0.212900 0.707900
vt 0.213900 0.712400
vt 0.210300 0.704200
vt 0.206300 0.702000
vt 0.201800 0.701600
vt 0.197500 0.703100
vt 0.194100 0.706100
vt 0.192200 0.710200
vt 0.192200 0.714700
vt 0.194000 0.718900
vt 0.197400 0.722000
vt 0.201800 0.723400
vt 0.206400 0.722900
vt 0.210400 0.720600
vt 0.213100 0.716900
vt 0.218600 0.712600
vt 0.217200 0.706300
vt 0.220200 0.705100
vt 0.221300 0.712600
vt 0.213400 0.701100
vt 0.215100 0.699300
vt 0.207800 0.698000
vt 0.208600 0.695400
vt 0.201400 0.697500
vt 0.200800 0.693500
vt 0.195400 0.699500
vt 0.193500 0.696100
vt 0.190600 0.703600
vt 0.187900 0.701400
vt 0.187900 0.709400
vt 0.185500 0.708900
vt 0.187800 0.716000
vt 0.185400 0.716400
vt 0.190400 0.722000
vt 0.188800 0.723000
vt 0.195300 0.726400
vt 0.194400 0.727800
vt 0.201600 0.728700
vt 0.201400 0.730200
vt 0.208000 0.728000
vt 0.208600 0.729400
vt 0.213600 0.724400
vt 0.215000 0.725600
vt 0.217400 0.719000
vt 0.219500 0.719700
vt 0.328600 0.963400
vt 0.322100 0.962800
vt 0.316000 0.960200
vt 0.312100 0.955000
vt 0.310800 0.948400
vt 0.311800 0.941900
vt 0.315500 0.936500
vt 0.320900 0.932700
vt 0.327400 0.932100
vt 0.333600 0.933900
vt 0.338500 0.938200
vt 0.341800 0.943800
vt 0.342100 0.950300
vt 0.339400 0.956300
vt 0.334600 0.960800
vt 0.329300 0.965700
vt 0.321700 0.965100
vt 0.314700 0.962100
vt 0.310100 0.956200
vt 0.308600 0.948500
vt 0.309800 0.940800
vt 0.314100 0.934600
vt 0.320500 0.930300
vt 0.327900 0.929800
vt 0.335100 0.932000
vt 0.340600 0.936900
vt 0.344100 0.943300
vt 0.344500 0.950500
vt 0.341600 0.957300
vt 0.336200 0.962600
vt 0.466700 0.034000
vt 0.466700 0.041400
vt 0.452900 0.042600
vt 0.452800 0.034800
vt 0.465700 0.048800
vt 0.452200 0.048900
vt 0.464500 0.056600
vt 0.451300 0.054100
vt 0.463300 0.064300
vt 0.450300 0.061400
vt 0.461800 0.071900
vt 0.449300 0.068700
vt 0.462700 0.019400
vt 0.465100 0.026700
vt 0.451800 0.028400
vt 0.450000 0.023300
vt 0.425900 0.042700
vt 0.425800 0.038100
vt 0.425600 0.047300
vt 0.425100 0.051900
vt 0.424700 0.056400
vt 0.424300 0.060900
vt 0.425400 0.033600
vt 0.424400 0.029200
vt 0.412200 0.042700
vt 0.412000 0.038200
vt 0.412300 0.047200
vt 0.412300 0.051600
vt 0.412100 0.056000
vt 0.411700 0.060500
vt 0.412100 0.033700
vt 0.412200 0.029100
vt 0.396500 0.042400
vt 0.396300 0.038100
vt 0.397000 0.046800
vt 0.397200 0.051200
vt 0.397000 0.055700
vt 0.398500 0.060500
vt 0.398800 0.033900
vt 0.399400 0.029500
vt 0.478100 0.032600
vt 0.478400 0.041400
vt 0.476400 0.024000
vt 0.473900 0.015600
vt 0.474800 0.066700
vt 0.472800 0.075100
vt 0.476200 0.058400
vt 0.477500 0.050100
vt 0.065400 0.200300
vt 0.058200 0.201200
vt 0.051000 0.170400
vt 0.055300 0.169800
vt 0.051200 0.201300
vt 0.046800 0.170600
vt 0.044100 0.201200
vt 0.042500 0.170700
vt 0.036900 0.201200
vt 0.038300 0.170700
vt 0.029800 0.201400
vt 0.034000 0.170700
vt 0.022700 0.201400
vt 0.029700 0.170500
vt 0.015600 0.200500
vt 0.025500 0.169900
vt 0.050900 0.149700
vt 0.055100 0.149500
vt 0.046700 0.150200
vt 0.042500 0.150500
vt 0.038200 0.150500
vt 0.034000 0.150200
vt 0.029800 0.149800
vt 0.025600 0.149600
vt 0.065400 0.208400
vt 0.058500 0.208900
vt 0.022700 0.209100
vt 0.015600 0.208700
vt 0.029900 0.209200
vt 0.037000 0.209100
vt 0.044100 0.209100
vt 0.051300 0.209100
vt 0.860300 0.573500
vt 0.871300 0.573600
vt 0.871700 0.614600
vt 0.864600 0.614800
vt 0.882300 0.575500
vt 0.878800 0.615200
vt 0.893300 0.578100
vt 0.885800 0.616100
vt 0.904700 0.580900
vt 0.892600 0.616800
vt 0.828700 0.584800
vt 0.839100 0.579800
vt 0.850600 0.617500
vt 0.844000 0.619400
vt 0.849500 0.575800
vt 0.857400 0.615800
vt 0.873600 0.654400
vt 0.866700 0.654800
vt 0.880500 0.654000
vt 0.887300 0.653600
vt 0.894200 0.653400
vt 0.853000 0.655500
vt 0.846100 0.655800
vt 0.859900 0.655200
vt 0.874800 0.682900
vt 0.868200 0.683600
vt 0.881400 0.682000
vt 0.888100 0.681200
vt 0.895000 0.681100
vt 0.854900 0.683300
vt 0.848100 0.683200
vt 0.861600 0.683600
vt 0.858600 0.557800
vt 0.871800 0.557600
vt 0.845600 0.560400
vt 0.833400 0.564700
vt 0.821700 0.569900
vt 0.897100 0.562200
vt 0.909400 0.565400
vt 0.884700 0.559300
vt 0.619600 0.873900
vt 0.613100 0.887300
vt 0.585100 0.864000
vt 0.600300 0.896100
vt 0.586700 0.899500
vt 0.571900 0.898300
vt 0.559900 0.890300
vt 0.552000 0.878200
vt 0.548500 0.863300
vt 0.553200 0.849200
vt 0.562300 0.837600
vt 0.575400 0.830900
vt 0.590400 0.828300
vt 0.604200 0.833300
vt 0.614200 0.844900
vt 0.619100 0.859200
vt 0.458500 0.828200
vt 0.426800 0.839100
vt 0.425000 0.825400
vt 0.433900 0.850700
vt 0.444900 0.858400
vt 0.457900 0.861600
vt 0.471300 0.859200
vt 0.482700 0.851600
vt 0.490200 0.839900
vt 0.492200 0.826000
vt 0.488200 0.812300
vt 0.478900 0.801500
vt 0.465800 0.795400
vt 0.451100 0.795400
vt 0.437900 0.801300
vt 0.428700 0.811900
vt 0.637700 0.873500
vt 0.628800 0.893500
vt 0.610000 0.907700
vt 0.587700 0.914400
vt 0.564500 0.911600
vt 0.546300 0.898700
vt 0.534900 0.879500
vt 0.530600 0.857500
vt 0.537800 0.836900
vt 0.551800 0.820100
vt 0.571400 0.810600
vt 0.593000 0.807600
vt 0.613000 0.814600
vt 0.628100 0.830700
vt 0.636300 0.851500
vt 0.411300 0.823400
vt 0.413800 0.843000
vt 0.401700 0.848600
vt 0.400000 0.822900
vt 0.424200 0.859200
vt 0.411100 0.873700
vt 0.439700 0.870500
vt 0.431100 0.888400
vt 0.458300 0.874700
vt 0.457100 0.890600
vt 0.477400 0.871300
vt 0.482300 0.886000
vt 0.493800 0.860500
vt 0.503100 0.871400
vt 0.504700 0.843700
vt 0.513800 0.847800
vt 0.507500 0.823400
vt 0.517900 0.823400
vt 0.501700 0.803700
vt 0.509900 0.800300
vt 0.488200 0.787700
vt 0.493900 0.782300
vt 0.469500 0.778300
vt 0.471700 0.771400
vt 0.449700 0.778000
vt 0.447200 0.771200
vt 0.431200 0.787300
vt 0.424700 0.782100
vt 0.417300 0.803700
vt 0.408300 0.800000
vt 0.043000 0.698100
vt 0.053000 0.679900
vt 0.090400 0.714700
vt 0.062500 0.657600
vt 0.081700 0.653400
vt 0.101800 0.656300
vt 0.126800 0.679200
vt 0.138000 0.695900
vt 0.141700 0.716200
vt 0.134800 0.735600
vt 0.121400 0.751300
vt 0.102900 0.760900
vt 0.081900 0.763300
vt 0.062800 0.755500
vt 0.049100 0.738900
vt 0.042500 0.718700
vt 0.586700 0.792200
vt 0.584900 0.785300
vt 0.616100 0.776400
vt 0.625400 0.785200
vt 0.637800 0.758200
vt 0.649700 0.762200
vt 0.644600 0.731400
vt 0.658300 0.731000
vt 0.642800 0.707800
vt 0.649300 0.698700
vt 0.615300 0.668300
vt 0.622600 0.661400
vt 0.591400 0.652400
vt 0.595100 0.644000
vt 0.563100 0.647200
vt 0.563100 0.639800
vt 0.534900 0.654400
vt 0.532400 0.648600
vt 0.511700 0.673000
vt 0.508200 0.669100
vt 0.496400 0.699500
vt 0.492500 0.697600
vt 0.493600 0.728600
vt 0.489600 0.728900
vt 0.503000 0.755100
vt 0.499900 0.757800
vt 0.526700 0.775300
vt 0.525100 0.779700
vt 0.555400 0.786000
vt 0.554900 0.791700
vt 0.019700 0.696400
vt 0.026100 0.659500
vt 0.051000 0.641800
vt 0.081600 0.634000
vt 0.113000 0.639000
vt 0.135100 0.658300
vt 0.161500 0.692700
vt 0.165600 0.723100
vt 0.155000 0.751400
vt 0.135800 0.775100
vt 0.108300 0.790200
vt 0.077800 0.792900
vt 0.049500 0.782000
vt 0.030800 0.755800
vt 0.020500 0.727100
vt 0.015600 0.696300
vt 0.022400 0.657900
vt 0.048800 0.638600
vt 0.081600 0.630000
vt 0.115200 0.635400
vt 0.147600 0.666100
vt 0.165400 0.691700
vt 0.169600 0.724000
vt 0.160100 0.755300
vt 0.137400 0.778800
vt 0.108400 0.794300
vt 0.076800 0.796900
vt 0.047800 0.785800
vt 0.028100 0.758800
vt 0.016700 0.728500
vt 0.582700 0.771000
vt 0.568400 0.718400
vt 0.603800 0.761600
vt 0.617600 0.744200
vt 0.623100 0.722900
vt 0.620800 0.703200
vt 0.606700 0.679700
vt 0.588100 0.667300
vt 0.566000 0.663600
vt 0.544100 0.669200
vt 0.526500 0.683100
vt 0.514600 0.702900
vt 0.513900 0.726400
vt 0.521900 0.748500
vt 0.539100 0.764600
vt 0.560300 0.771600
vt 0.782000 0.445300
vt 0.768000 0.449500
vt 0.758300 0.424600
vt 0.768900 0.422700
vt 0.753700 0.451500
vt 0.747500 0.426200
vt 0.739200 0.452400
vt 0.736900 0.427700
vt 0.724500 0.452800
vt 0.726500 0.428500
vt 0.709700 0.452200
vt 0.716100 0.428000
vt 0.695400 0.449800
vt 0.705800 0.425800
vt 0.681600 0.444900
vt 0.695800 0.422100
vt 0.754400 0.383300
vt 0.763000 0.383000
vt 0.745800 0.384000
vt 0.737000 0.384700
vt 0.727900 0.385200
vt 0.718700 0.384900
vt 0.709900 0.383900
vt 0.701300 0.382500
vt 0.762200 0.350900
vt 0.753500 0.351300
vt 0.754000 0.299900
vt 0.762700 0.299600
vt 0.744900 0.351500
vt 0.745400 0.300300
vt 0.736500 0.351500
vt 0.736700 0.300500
vt 0.728200 0.351300
vt 0.728000 0.300300
vt 0.719800 0.351200
vt 0.719400 0.299900
vt 0.711300 0.351100
vt 0.710800 0.299600
vt 0.702800 0.351100
vt 0.702100 0.299700
vt 0.788800 0.465100
vt 0.772700 0.469700
vt 0.690500 0.469800
vt 0.674300 0.464700
vt 0.707100 0.472700
vt 0.723600 0.473700
vt 0.739900 0.473500
vt 0.756200 0.472300
vt 0.939200 0.629800
vt 0.936900 0.626800
vt 0.946400 0.624900
vt 0.936200 0.623300
vt 0.936800 0.620000
vt 0.938500 0.617400
vt 0.941200 0.615600
vt 0.944500 0.615000
vt 0.948200 0.615900
vt 0.951300 0.618300
vt 0.953000 0.621700
vt 0.953100 0.625300
vt 0.951900 0.628400
vt 0.949600 0.630700
vt 0.946400 0.631900
vt 0.942700 0.631600
vt 0.264600 0.913000
vt 0.280400 0.899700
vt 0.284400 0.907300
vt 0.273600 0.894400
vt 0.265300 0.892400
vt 0.256800 0.893900
vt 0.249700 0.898700
vt 0.245200 0.906000
vt 0.244000 0.914500
vt 0.246300 0.922700
vt 0.251900 0.929300
vt 0.259600 0.933100
vt 0.268100 0.933300
vt 0.276000 0.930000
vt 0.282000 0.923900
vt 0.284900 0.915800
vt 0.289200 0.892300
vt 0.295300 0.904300
vt 0.278600 0.883900
vt 0.265500 0.880700
vt 0.252100 0.883200
vt 0.240800 0.890900
vt 0.233600 0.902300
vt 0.232100 0.915700
vt 0.235900 0.928400
vt 0.244800 0.938400
vt 0.256900 0.944000
vt 0.270100 0.944400
vt 0.282200 0.939400
vt 0.291100 0.929800
vt 0.295800 0.917500
vt 0.931300 0.641600
vt 0.927700 0.647700
vt 0.920000 0.638100
vt 0.925600 0.634300
vt 0.917100 0.626100
vt 0.923500 0.625300
vt 0.919200 0.614000
vt 0.925100 0.616400
vt 0.925700 0.603300
vt 0.929800 0.608300
vt 0.936000 0.596700
vt 0.937500 0.603200
vt 0.948300 0.595400
vt 0.946800 0.602200
vt 0.960400 0.598200
vt 0.956000 0.604200
vt 0.969500 0.606400
vt 0.963000 0.610400
vt 0.975200 0.617300
vt 0.967500 0.618700
vt 0.975500 0.629500
vt 0.967800 0.628000
vt 0.971300 0.640900
vt 0.964700 0.636800
vt 0.962800 0.649500
vt 0.958100 0.643400
vt 0.951200 0.653600
vt 0.949100 0.646400
vt 0.938900 0.652700
vt 0.939700 0.645600
vt 0.925600 0.651300
vt 0.916700 0.640500
vt 0.913100 0.626800
vt 0.915500 0.612700
vt 0.923000 0.600400
vt 0.934900 0.592800
vt 0.949100 0.591400
vt 0.962900 0.594900
vt 0.973100 0.604300
vt 0.979300 0.616800
vt 0.979400 0.630500
vt 0.974600 0.643200
vt 0.965300 0.652800
vt 0.952400 0.657500
vt 0.938400 0.656900
vn -0.0199 0.9829 -0.1828
vn -0.0323 0.9592 -0.2810
vn 0.3237 0.9453 -0.0398
vn 0.0427 0.9678 -0.2479
vn 0.0143 0.9906 0.1357
vn -0.0736 0.9822 0.1729
vn -0.0039 0.9943 0.1067
vn 0.3281 0.9076 0.2620
vn 0.4025 0.8695 0.2863
vn 0.4157 0.8800 0.2299
vn 0.5419 0.8357 0.0896
vn 0.5620 0.8197 -0.1104
vn 0.5629 0.7917 -0.2374
vn 0.5997 0.7794 -0.1814
vn 0.5610 0.8011 -0.2086
vn 0.3137 0.9122 -0.2635
vn -0.2588 -0.9659 -0.0000
vn -0.1259 -0.9856 0.1127
vn -0.1719 -0.9766 0.1294
vn -0.0881 -0.9948 0.0512
vn -0.0807 -0.9965 -0.0219
vn -0.1057 -0.9903 -0.0906
vn -0.1568 -0.9776 -0.1402
vn -0.2217 -0.9616 -0.1617
vn -0.2870 -0.9455 -0.1539
vn -0.3433 -0.9312 -0.1226
vn -0.3949 -0.9156 -0.0754
vn -0.4242 -0.9055 -0.0117
vn -0.4842 -0.8669 0.1187
vn -0.4538 -0.8679 0.2022
vn -0.3576 -0.9170 0.1768
vn -0.2823 -0.9547 0.0941
vn -0.2826 -0.9114 -0.2991
vn -0.3582 -0.9336 0.0071
vn -0.8182 -0.0019 -0.5750
vn -0.3613 0.2111 -0.9082
vn -0.5774 -0.8109 -0.0950
vn -0.8330 0.4146 -0.3663
vn -0.5978 -0.8015 0.0140
vn -0.8730 0.4709 0.1271
vn -0.4366 -0.8833 0.1709
vn -0.8087 0.1823 0.5593
vn -0.4736 -0.8162 0.3310
vn -0.5077 0.3960 0.7651
vn -0.3427 -0.8659 0.3643
vn -0.0841 0.2392 0.9673
vn -0.1929 -0.9518 0.2383
vn 0.2651 -0.0772 0.9611
vn -0.0924 -0.9649 0.2459
vn 0.6120 -0.0857 0.7862
vn -0.0730 -0.9890 0.1290
vn 0.8577 -0.2406 0.4544
vn -0.1152 -0.9886 0.0973
vn 0.9530 -0.2971 0.0594
vn -0.1895 -0.9795 0.0675
vn 0.8664 -0.3890 -0.3130
vn -0.2598 -0.9598 -0.1060
vn 0.6615 -0.3207 -0.6780
vn -0.3091 -0.9164 -0.2541
vn 0.3872 -0.1460 -0.9103
vn -0.2924 -0.8949 -0.3373
vn 0.0425 0.0543 -0.9976
vn -0.1028 0.8810 -0.4619
vn -0.1816 0.9022 -0.3911
vn -0.2106 0.9342 -0.2880
vn -0.2702 0.9531 0.1362
vn -0.2437 0.9316 0.2698
vn -0.1423 0.9208 0.3631
vn 0.2330 0.8227 0.5186
vn 0.4106 0.7563 0.5093
vn 0.5513 0.7157 0.4287
vn 0.7263 0.6506 0.2217
vn 0.7820 0.6210 -0.0535
vn 0.7439 0.6079 -0.2775
vn 0.6986 0.6244 -0.3493
vn 0.5804 0.6751 -0.4554
vn 0.2796 0.7859 -0.5516
vn 0.8747 0.2616 -0.4079
vn 0.2477 0.2288 -0.9414
vn 0.2112 0.1265 -0.9692
vn 0.8908 0.1839 -0.4155
vn -0.5844 0.1414 -0.7991
vn -0.6333 0.0026 -0.7739
vn -0.9980 0.0568 -0.0269
vn -0.9962 -0.0875 -0.0025
vn -0.6210 0.0568 0.7818
vn -0.6384 -0.0875 0.7647
vn 0.2365 0.1414 0.9613
vn 0.1859 0.0027 0.9826
vn 0.8804 0.2288 0.4153
vn 0.8783 0.1265 0.4612
vn 0.2152 -0.0245 -0.9763
vn 0.9055 -0.0418 -0.4222
vn -0.6322 0.0112 -0.7747
vn -0.9993 0.0363 -0.0023
vn -0.6406 0.0363 0.7670
vn 0.1871 0.0112 0.9823
vn 0.8862 -0.0245 0.4627
vn 0.2613 -0.0522 -0.9638
vn 0.9019 -0.0987 -0.4205
vn -0.5837 0.0578 -0.8099
vn -0.9883 0.1498 -0.0288
vn -0.6132 0.1498 0.7756
vn 0.2453 0.0578 0.9677
vn 0.9063 -0.0522 0.4194
vn 0.8879 0.2008 -0.4140
vn 0.2299 0.2008 -0.9523
vn 0.8773 0.2008 0.4360
vn 0.2060 0.2008 0.9577
vn -0.6203 0.2008 0.7583
vn -0.9796 0.2008 -0.0122
vn -0.6012 0.2009 -0.7735
vn 0.2839 0.8423 0.4583
vn 0.2940 0.9230 0.2483
vn -0.0349 0.9091 0.4152
vn 0.3005 0.9488 0.0976
vn 0.3657 0.9138 0.1766
vn 0.2237 0.9690 0.1049
vn -0.0619 0.9974 0.0366
vn -0.2532 0.9591 0.1264
vn -0.3419 0.9214 0.1847
vn -0.3300 0.9116 0.2452
vn -0.3325 0.8328 0.4425
vn -0.2123 0.7676 0.6048
vn -0.1106 0.7166 0.6887
vn -0.1685 0.7198 0.6734
vn -0.1121 0.7254 0.6791
vn 0.1368 0.8060 0.5759
vn -0.0005 -0.9397 -0.3419
vn -0.1543 -0.9284 -0.3380
vn -0.1311 -0.9186 -0.3729
vn -0.1473 -0.9498 -0.2761
vn -0.1124 -0.9687 -0.2212
vn -0.0548 -0.9811 -0.1854
vn 0.0145 -0.9841 -0.1770
vn 0.0802 -0.9769 -0.1981
vn 0.1288 -0.9613 -0.2436
vn 0.1535 -0.9420 -0.2986
vn 0.1654 -0.9135 -0.3716
vn 0.1438 -0.8881 -0.4366
vn 0.1088 -0.8235 -0.5568
vn 0.0355 -0.8053 -0.5918
vn -0.0247 -0.8551 -0.5179
vn -0.0345 -0.9079 -0.4178
vn 0.2726 -0.9474 -0.1677
vn 0.3500 -0.8908 -0.2897
vn 0.9809 0.1679 0.0987
vn 0.8929 -0.0987 0.4393
vn 0.1896 -0.8846 -0.4261
vn 0.9046 0.1316 -0.4056
vn 0.1619 -0.8165 -0.5541
vn 0.6899 0.2856 -0.6652
vn 0.1389 -0.7197 -0.6803
vn 0.3637 0.5505 -0.7515
vn -0.0248 -0.7235 -0.6899
vn -0.1010 0.5389 -0.8363
vn -0.1458 -0.7608 -0.6324
vn -0.5117 0.4811 -0.7118
vn -0.1848 -0.8697 -0.4577
vn -0.8294 0.1860 -0.5268
vn -0.2625 -0.8762 -0.4041
vn -0.9752 0.1419 -0.1699
vn -0.2058 -0.9248 -0.3201
vn -0.9744 -0.0862 0.2075
vn -0.1615 -0.9308 -0.3279
vn -0.8023 -0.2413 0.5460
vn -0.0925 -0.9313 -0.3524
vn -0.5168 -0.4292 0.7407
vn 0.0685 -0.9602 -0.2708
vn -0.1178 -0.4652 0.8773
vn 0.2042 -0.9602 -0.1904
vn 0.2696 -0.3675 0.8901
vn 0.2485 -0.9619 -0.1140
vn 0.6208 -0.2082 0.7558
vn 0.4813 0.7053 0.5205
vn 0.5275 0.8068 0.2662
vn 0.4703 0.8821 0.0278
vn 0.4474 0.8942 0.0158
vn 0.2732 0.9518 -0.1396
vn -0.0809 0.9748 -0.2078
vn -0.3497 0.9323 -0.0922
vn -0.4833 0.8746 0.0381
vn -0.5477 0.8159 0.1851
vn -0.5497 0.7086 0.4423
vn -0.4138 0.6153 0.6710
vn -0.2404 0.5561 0.7956
vn -0.1656 0.5543 0.8156
vn -0.0072 0.5650 0.8251
vn 0.2958 0.6310 0.7172
vn -0.4053 0.2126 0.8891
vn 0.4057 0.1756 0.8970
vn 0.3685 0.2226 0.9026
vn -0.3523 0.2427 0.9038
vn 0.9712 0.0419 0.2346
vn 0.9752 0.0450 0.2166
vn 0.7643 0.0187 -0.6446
vn 0.7152 -0.0705 -0.6954
vn -0.0118 0.0554 -0.9984
vn 0.0003 -0.0284 -0.9996
vn -0.7908 0.0567 -0.6094
vn -0.7308 0.0633 -0.6796
vn -0.9541 0.1340 0.2679
vn -0.9519 0.1689 0.2556
vn 0.4486 0.0750 0.8906
vn -0.4069 0.1133 0.9064
vn 0.9775 0.0431 0.2063
vn 0.7632 -0.0138 -0.6461
vn -0.0119 -0.0410 -0.9991
vn -0.7720 0.0200 -0.6353
vn -0.9687 0.1114 0.2216
vn 0.4619 -0.0379 0.8861
vn -0.4217 -0.0641 0.9044
vn 0.9820 0.0167 0.1881
vn 0.7667 0.0558 -0.6396
vn -0.0048 0.0586 -0.9983
vn -0.7734 0.0202 -0.6335
vn -0.9755 -0.0405 0.2164
vn 0.4154 -0.0962 0.9046
vn -0.3187 -0.1540 0.9353
vn 0.9680 0.0273 0.2496
vn 0.7788 0.1321 -0.6132
vn 0.0248 0.1356 -0.9905
vn -0.7890 0.0318 -0.6135
vn -0.9224 -0.1246 0.3655
vn -0.4206 0.0976 0.9020
vn 0.4429 0.0976 0.8912
vn -0.9674 0.0976 0.2335
vn -0.7858 0.0975 -0.6108
vn -0.0124 0.0975 -0.9952
vn 0.7703 0.0975 -0.6302
vn 0.9730 0.0975 0.2093
vn -0.4203 0.1043 0.9014
vn 0.4290 0.0771 0.9000
vn 0.4714 0.0813 0.8782
vn -0.4205 0.0987 0.9019
vn 0.9725 0.0081 0.2327
vn 0.9838 0.0449 0.1734
vn 0.7797 -0.0552 -0.6237
vn 0.7636 0.0193 -0.6454
vn -0.0235 -0.0551 -0.9982
vn 0.0036 0.0193 -0.9998
vn -0.8034 0.0081 -0.5954
vn -0.7652 0.0449 -0.6422
vn -0.9652 0.0771 0.2500
vn -0.9757 0.0813 0.2033
vn 0.4259 -0.0621 0.9026
vn -0.4206 -0.0968 0.9021
vn 0.9716 0.0192 0.2360
vn 0.7786 0.0868 -0.6214
vn -0.0243 0.0868 -0.9959
vn -0.8052 0.0191 -0.5926
vn -0.9652 -0.0621 0.2539
vn -0.4217 -0.0652 0.9044
vn 0.4441 -0.0652 0.8936
vn -0.9700 -0.0652 0.2342
vn -0.7879 -0.0652 -0.6123
vn -0.0124 -0.0652 -0.9978
vn 0.7724 -0.0653 -0.6318
vn 0.9755 -0.0652 0.2099
vn 0.4143 0.1969 0.8886
vn 0.9541 0.1682 0.2480
vn 0.9660 0.1456 0.2136
vn 0.4147 0.1933 0.8892
vn 0.8008 0.0939 -0.5915
vn 0.7751 0.0414 -0.6304
vn 0.0244 0.0238 -0.9994
vn 0.0035 -0.0365 -0.9993
vn -0.7813 0.0238 -0.6237
vn -0.7678 -0.0365 -0.6397
vn -0.9679 0.0939 0.2333
vn -0.9812 0.0414 0.1886
vn -0.4233 0.1682 0.8903
vn -0.4572 0.1456 0.8774
vn 0.9760 -0.0268 0.2159
vn 0.4222 -0.0454 0.9054
vn 0.7752 0.0119 -0.6316
vn 0.0027 0.0396 -0.9992
vn -0.7671 0.0396 -0.6403
vn -0.9821 0.0119 0.1879
vn -0.4620 -0.0268 0.8865
vn 0.9619 -0.0843 0.2602
vn 0.4190 -0.1301 0.8986
vn 0.8106 0.0246 -0.5851
vn 0.0286 0.1165 -0.9928
vn -0.7790 0.1165 -0.6162
vn -0.9692 0.0246 0.2449
vn -0.4190 -0.0843 0.9041
vn 0.4213 0.0781 0.9035
vn 0.9691 0.0782 0.2339
vn -0.4437 0.0782 0.8927
vn -0.9746 0.0781 0.2097
vn -0.7717 0.0781 -0.6312
vn 0.0124 0.0782 -0.9969
vn 0.7871 0.0782 -0.6118
vn 0.4052 0.9123 0.0586
vn 0.4457 0.8935 0.0541
vn 0.0392 0.9094 0.4142
vn 0.2781 0.9603 -0.0219
vn -0.1516 0.9867 -0.0578
vn -0.3528 0.9356 -0.0162
vn -0.3438 0.9379 0.0461
vn -0.3970 0.8697 0.2932
vn -0.4042 0.8093 0.4262
vn -0.3346 0.8139 0.4750
vn -0.1450 0.7575 0.6365
vn 0.1098 0.7389 0.6648
vn 0.2828 0.7091 0.6460
vn 0.2532 0.6992 0.6686
vn 0.3163 0.7302 0.6056
vn 0.4008 0.8650 0.3020
vn -0.0027 -0.9642 -0.2653
vn -0.2914 -0.9510 0.1033
vn -0.3758 -0.9260 -0.0348
vn -0.1323 -0.9707 0.2005
vn 0.0561 -0.9740 0.2194
vn 0.2332 -0.9601 0.1547
vn 0.3614 -0.9322 0.0223
vn 0.4178 -0.8967 -0.1466
vn 0.3982 -0.8608 -0.3169
vn 0.3146 -0.8296 -0.4612
vn 0.1876 -0.7995 -0.5707
vn 0.0152 -0.7852 -0.6190
vn -0.1932 -0.7350 -0.6499
vn -0.3355 -0.7410 -0.5816
vn -0.3882 -0.8177 -0.4250
vn -0.3572 -0.8990 -0.2534
vn 0.8987 0.2775 -0.3396
vn 0.6712 0.3773 -0.6381
vn 0.3616 0.5409 -0.7594
vn -0.1403 0.5555 -0.8196
vn -0.5372 0.4373 -0.7213
vn -0.7988 0.4045 -0.4454
vn -0.9467 0.3191 -0.0433
vn -0.9516 0.0853 0.2953
vn -0.7642 0.0852 0.6393
vn -0.4440 -0.0313 0.8955
vn -0.0406 -0.0508 0.9979
vn 0.3353 -0.1269 0.9335
vn 0.6654 -0.0679 0.7434
vn 0.8780 0.0677 0.4738
vn 0.9695 0.2235 0.1008
vn 0.2372 -0.9193 -0.3139
vn 0.1429 -0.8688 -0.4741
vn 0.0801 -0.8400 -0.5366
vn -0.0182 -0.8384 -0.5447
vn -0.1383 -0.8600 -0.4912
vn -0.2272 -0.8764 -0.4247
vn -0.2704 -0.9007 -0.3400
vn -0.2272 -0.9528 -0.2015
vn -0.2306 -0.9670 -0.1082
vn -0.1367 -0.9890 -0.0574
vn -0.1083 -0.9929 -0.0498
vn -0.0438 -0.9938 -0.1021
vn 0.1617 -0.9649 -0.2068
vn 0.2859 -0.9060 -0.3121
vn 0.3165 -0.8977 -0.3066
vn 0.0596 0.9639 -0.2594
vn 0.1374 0.9423 -0.3053
vn 0.3507 0.9328 -0.0829
vn -0.0498 0.9606 -0.2735
vn 0.0683 0.9782 0.1959
vn 0.1721 0.9239 0.3418
vn 0.2237 0.9289 0.2953
vn 0.3728 0.8895 0.2643
vn 0.4465 0.8631 0.2359
vn 0.4881 0.8547 0.1768
vn 0.6035 0.7944 -0.0695
vn 0.5851 0.7585 -0.2869
vn 0.5320 0.7492 -0.3946
vn 0.5573 0.7477 -0.3610
vn 0.4590 0.8165 -0.3502
vn 0.1945 0.9265 -0.3221
vn -0.5996 -0.1408 -0.7878
vn -0.2727 -0.9586 -0.0818
vn -0.3498 -0.9348 -0.0610
vn -0.8548 -0.0914 -0.5109
vn -0.7520 -0.6506 0.1059
vn -0.9561 0.2899 0.0424
vn -0.6795 -0.7018 0.2137
vn -0.8471 0.2661 0.4600
vn -0.6397 -0.6915 0.3355
vn -0.5589 0.1333 0.8184
vn -0.3081 -0.9259 0.2187
vn -0.1000 0.1995 0.9748
vn -0.2711 -0.9341 0.2324
vn 0.1007 -0.1673 0.9807
vn -0.2022 -0.9651 0.1662
vn 0.4532 -0.3693 0.8113
vn -0.1573 -0.9802 0.1203
vn 0.6865 -0.5145 0.5138
vn -0.1905 -0.9691 0.1568
vn 0.8035 -0.5734 0.1600
vn -0.2570 -0.9458 0.1985
vn 0.7401 -0.6508 -0.1697
vn -0.2944 -0.9454 0.1398
vn 0.5485 -0.6553 -0.5193
vn -0.4505 -0.8927 0.0160
vn 0.1810 -0.5621 -0.8070
vn -0.5170 -0.8551 -0.0382
vn -0.1100 -0.3595 -0.9266
vn -0.3647 -0.9253 -0.1040
vn -0.4031 -0.2127 -0.8901
vn -0.2939 0.6539 -0.6972
vn -0.4720 0.7309 -0.4928
vn -0.5804 0.8084 -0.0976
vn -0.5082 0.7623 0.4008
vn -0.2834 0.6702 0.6859
vn -0.2696 0.3791 0.8852
vn 0.2980 0.5370 0.7892
vn 0.6076 0.4320 0.6665
vn 0.8388 0.3489 0.4178
vn 0.9641 0.2634 0.0341
vn 0.9294 0.1903 -0.3163
vn 0.7717 0.1945 -0.6055
vn 0.5629 0.2388 -0.7913
vn 0.3061 0.4382 -0.8451
vn -0.0923 0.5874 -0.8040
vn 0.0012 -0.9562 0.2928
vn -0.3229 -0.9449 0.0534
vn -0.0378 -0.9864 0.1598
vn -0.1281 -0.9907 0.0464
vn -0.1417 -0.9870 -0.0761
vn -0.1423 -0.9639 -0.2250
vn -0.1631 -0.9322 -0.3230
vn -0.3276 -0.8959 -0.3000
vn -0.4387 -0.8689 -0.2291
vn -0.5097 -0.8523 -0.1172
vn -0.5587 -0.8273 0.0583
vn -0.6268 -0.7420 0.2378
vn -0.5591 -0.7439 0.3660
vn -0.5420 -0.7272 0.4211
vn -0.3965 -0.8385 0.3737
vn -0.1797 -0.9401 0.2895
vn 0.6882 0.2298 -0.6882
vn -0.0938 0.2031 -0.9746
vn -0.1362 0.0631 -0.9887
vn 0.7167 0.1451 -0.6821
vn -0.8269 0.1337 -0.5463
vn -0.8737 0.0366 -0.4850
vn -0.9453 0.0679 0.3190
vn -0.9271 0.0763 0.3669
vn -0.3189 0.0679 0.9453
vn -0.3291 0.1399 0.9339
vn 0.5463 0.1337 0.8268
vn 0.4866 0.1952 0.8515
vn 0.9746 0.2031 0.0939
vn 0.9653 0.2059 0.1605
vn -0.1025 -0.0399 -0.9939
vn 0.6869 -0.0044 -0.7267
vn -0.8240 -0.0339 -0.5655
vn -0.9573 0.0188 0.2886
vn -0.3405 0.0835 0.9365
vn 0.5547 0.1008 0.8259
vn 0.9963 0.0567 0.0646
vn 0.7089 0.0251 -0.7049
vn -0.1272 0.0403 -0.9911
vn -0.0970 -0.0170 -0.9951
vn 0.7102 -0.0530 -0.7020
vn -0.8578 0.0234 -0.5135
vn -0.8392 0.0322 -0.5428
vn -0.9400 -0.0096 0.3410
vn -0.9427 0.0570 0.3288
vn -0.3365 -0.0348 0.9410
vn -0.3188 0.0378 0.9471
vn 0.5147 -0.0363 0.8566
vn 0.5451 -0.0102 0.8383
vn 0.9914 -0.0104 0.1304
vn 0.9933 -0.0501 0.1043
vn 0.7027 0.1119 -0.7027
vn -0.1113 0.1118 -0.9875
vn 0.9875 0.1118 0.1113
vn 0.5287 0.1118 0.8414
vn -0.3282 0.1118 0.9380
vn -0.9380 0.1118 0.3282
vn -0.8414 0.1119 -0.5287
vn -0.1787 0.9809 0.0763
vn -0.1656 0.9862 -0.0012
vn -0.2201 0.9754 0.0120
vn -0.2333 0.9674 -0.0981
vn -0.3053 0.9467 -0.1023
vn -0.1512 0.9875 -0.0442
vn -0.0792 0.9963 -0.0348
vn -0.1714 0.9849 -0.0248
vn -0.2771 0.9597 0.0458
vn -0.2646 0.9644 0.0047
vn -0.2634 0.9647 -0.0039
vn -0.2681 0.9611 0.0662
vn -0.2367 0.9605 0.1461
vn -0.2165 0.9629 0.1609
vn -0.2137 0.9686 0.1274
vn -0.2208 0.9713 0.0881
vn 0.1864 -0.9824 0.0149
vn 0.2327 -0.9725 0.0010
vn 0.2004 -0.9797 -0.0026
vn 0.2644 -0.9626 -0.0592
vn 0.2576 -0.9614 -0.0970
vn 0.2654 -0.9638 -0.0273
vn 0.2071 -0.9778 -0.0325
vn 0.1170 -0.9909 -0.0659
vn 0.1714 -0.9844 -0.0387
vn 0.1519 -0.9871 0.0505
vn 0.2358 -0.9718 -0.0056
vn 0.2676 -0.9601 -0.0810
vn 0.2470 -0.9555 -0.1610
vn 0.1939 -0.9633 -0.1854
vn 0.1725 -0.9792 -0.1066
vn 0.1928 -0.9811 -0.0170
vn 0.9977 -0.0164 0.0656
vn 0.9071 -0.1004 0.4088
vn 0.9246 0.0549 -0.3770
vn 0.6625 0.0224 -0.7488
vn 0.3754 -0.1559 -0.9136
vn -0.0338 -0.2086 -0.9774
vn -0.5039 -0.1756 -0.8457
vn -0.7123 -0.3900 -0.5835
vn -0.9181 -0.3759 -0.1258
vn -0.8320 -0.5159 0.2043
vn -0.6508 -0.5044 0.5675
vn -0.3862 -0.5266 0.7573
vn -0.0968 -0.4711 0.8767
vn 0.2778 -0.2730 0.9210
vn 0.6439 -0.0880 0.7600
vn 0.1722 0.9716 0.1625
vn 0.3177 0.9174 0.2398
vn 0.3519 0.9326 0.0803
vn 0.1833 0.9800 0.0770
vn 0.3260 0.9325 -0.1553
vn 0.1326 0.9879 -0.0803
vn 0.1381 0.8982 -0.4174
vn -0.0365 0.9609 -0.2745
vn -0.0763 0.8622 -0.5008
vn -0.1490 0.9167 -0.3707
vn -0.1551 0.8500 -0.5035
vn -0.1354 0.9157 -0.3783
vn -0.3980 0.8125 -0.4259
vn -0.3088 0.9108 -0.2740
vn -0.5847 0.7722 -0.2489
vn -0.4815 0.8630 -0.1528
vn -0.6533 0.7534 -0.0743
vn -0.4869 0.8725 -0.0407
vn -0.6495 0.7370 0.1870
vn -0.5089 0.8449 0.1650
vn -0.5623 0.7403 0.3684
vn -0.4416 0.8508 0.2848
vn -0.4047 0.7580 0.5115
vn -0.3359 0.8555 0.3941
vn -0.2869 0.7797 0.5565
vn -0.2951 0.8601 0.4162
vn -0.1248 0.8169 0.5631
vn -0.2120 0.8895 0.4047
vn 0.1528 0.8822 0.4454
vn 0.0081 0.9549 0.2967
s 1
f 1/1/1 2/2/2 3/3/3
f 2/2/2 4/4/4 3/3/3
f 4/4/4 5/5/5 3/3/3
f 5/5/5 6/6/6 3/3/3
f 6/6/6 7/7/7 3/3/3
f 7/7/7 8/8/8 3/3/3
f 8/8/8 9/9/9 3/3/3
f 9/9/9 10/10/10 3/3/3
f 10/10/10 11/11/11 3/3/3
f 11/11/11 12/12/12 3/3/3
f 12/12/12 13/13/13 3/3/3
f 13/13/13 14/14/14 3/3/3
f 14/14/14 15/15/15 3/3/3
f 15/15/15 16/16/16 3/3/3
f 3/3/3 16/16/16 1/1/1
f 17/17/17 18/18/18 19/19/19
f 17/17/17 20/20/20 18/18/18
f 17/17/17 21/21/21 20/20/20
f 17/17/17 22/22/22 21/21/21
f 17/17/17 23/23/23 22/22/22
f 17/17/17 24/24/24 23/23/23
f 17/17/17 25/25/25 24/24/24
f 17/17/17 26/26/26 25/25/25
f 17/17/17 27/27/27 26/26/26
f 17/17/17 28/28/28 27/27/27
f 17/17/17 29/29/29 28/28/28
f 17/17/17 30/30/30 29/29/29
f 17/17/17 31/31/31 30/30/30
f 17/17/17 32/32/32 31/31/31
f 17/17/17 19/19/19 32/32/32
f 33/33/33 34/34/34 35/35/35
f 35/35/35 36/36/36 33/33/33
f 34/34/34 37/37/37 38/38/38
f 38/38/38 35/35/35 34/34/34
f 37/37/37 39/39/39 40/40/40
f 40/40/40 38/38/38 37/37/37
f 39/39/39 41/41/41 42/42/42
f 42/42/42 40/40/40 39/39/39
f 41/41/41 43/43/43 44/44/44
f 44/44/44 42/42/42 41/41/41
f 43/43/43 45/45/45 46/46/46
f 46/46/46 44/44/44 43/43/43
f 45/45/45 47/47/47 48/48/48
f 48/48/48 46/46/46 45/45/45
f 47/47/47 49/49/49 50/50/50
f 50/50/50 48/48/48 47/47/47
f 49/49/49 51/51/51 52/52/52
f 52/52/52 50/50/50 49/49/49
f 51/51/51 53/53/53 54/54/54
f 54/54/54 52/52/52 51/51/51
f 53/53/53 55/55/55 56/56/56
f 56/56/56 54/54/54 53/53/53
f 55/55/55 57/57/57 58/58/58
f 58/58/58 56/56/56 55/55/55
f 57/57/57 59/59/59 60/60/60
f 60/60/60 58/58/58 57/57/57
f 59/59/59 61/61/61 62/62/62
f 62/62/62 60/60/60 59/59/59
f 61/61/61 33/33/33 36/36/36
f 36/36/36 62/62/62 61/61/61
f 1/1/1 63/63/63 64/64/64
f 64/64/64 2/2/2 1/1/1
f 2/2/2 64/64/64 65/65/65
f 65/65/65 4/4/4 2/2/2
f 4/4/4 65/65/65 66/66/66
f 66/66/66 5/5/5 4/4/4
f 5/5/5 66/66/66 67/67/67
f 67/67/67 6/6/6 5/5/5
f 6/6/6 67/67/67 68/68/68
f 68/68/68 7/7/7 6/6/6
f 7/7/7 68/68/68 69/69/69
f 69/69/69 8/8/8 7/7/7
f 8/8/8 69/69/69 70/70/70
f 70/70/70 9/9/9 8/8/8
f 9/9/9 70/70/70 71/71/71
f 71/71/71 10/10/10 9/9/9
f 10/10/10 71/71/71 72/72/72
f 72/72/72 11/11/11 10/10/10
f 11/11/11 72/72/72 73/73/73
f 73/73/73 12/12/12 11/11/11
f 12/12/12 73/73/73 74/74/74
f 74/74/74 13/13/13 12/12/12
f 13/13/13 74/74/74 75/75/75
f 75/75/75 14/14/14 13/13/13
f 14/14/14 75/75/75 76/76/76
f 76/76/76 15/15/15 14/14/14
f 15/15/15 76/76/76 77/77/77
f 77/77/77 16/16/16 15/15/15
f 16/16/16 77/77/77 63/63/63
f 63/63/63 1/1/1 16/16/16
f 63/63/63 36/78/36 35/79/35
f 35/79/35 64/64/64 63/63/63
f 64/64/64 35/79/35 38/80/38
f 38/80/38 65/65/65 64/64/64
f 65/65/65 38/80/38 40/81/40
f 40/81/40 66/66/66 65/65/65
f 66/66/66 40/81/40 42/82/42
f 42/82/42 67/67/67 66/66/66
f 67/67/67 42/82/42 44/83/44
f 44/83/44 68/68/68 67/67/67
f 68/68/68 44/83/44 46/84/46
f 46/84/46 69/69/69 68/68/68
f 69/69/69 46/84/46 48/85/48
f 48/85/48 70/70/70 69/69/69
f 70/70/70 48/85/48 50/86/50
f 50/86/50 71/71/71 70/70/70
f 71/71/71 50/86/50 52/87/52
f 52/87/52 72/72/72 71/71/71
f 72/72/72 52/87/52 54/88/54
f 54/88/54 73/73/73 72/72/72
f 73/73/73 54/88/54 56/89/56
f 56/89/56 74/74/74 73/73/73
f 74/74/74 56/89/56 58/90/58
f 58/90/58 75/75/75 74/74/74
f 75/75/75 58/90/58 60/91/60
f 60/91/60 76/76/76 75/75/75
f 76/76/76 60/91/60 62/92/62
f 62/92/62 77/77/77 76/76/76
f 77/77/77 62/92/62 36/78/36
f 36/78/36 63/63/63 77/77/77
f 33/33/33 19/19/19 18/18/18
f 18/18/18 34/34/34 33/33/33
f 34/34/34 18/18/18 20/20/20
f 20/20/20 37/37/37 34/34/34
f 37/37/37 20/20/20 21/21/21
f 21/21/21 39/39/39 37/37/37
f 39/39/39 21/21/21 22/22/22
f 22/22/22 41/41/41 39/39/39
f 41/41/41 22/22/22 23/23/23
f 23/23/23 43/43/43 41/41/41
f 43/43/43 23/23/23 24/24/24
f 24/24/24 45/45/45 43/43/43
f 45/45/45 24/24/24 25/25/25
f 25/25/25 47/47/47 45/45/45
f 47/47/47 25/25/25 26/26/26
f 26/26/26 49/49/49 47/47/47
f 49/49/49 26/26/26 27/27/27
f 27/27/27 51/51/51 49/49/49
f 51/51/51 27/27/27 28/28/28
f 28/28/28 53/53/53 51/51/51
f 53/53/53 28/28/28 29/29/29
f 29/29/29 55/55/55 53/53/53
f 55/55/55 29/29/29 30/30/30
f 30/30/30 57/57/57 55/55/55
f 57/57/57 30/30/30 31/31/31
f 31/31/31 59/59/59 57/57/57
f 59/59/59 31/31/31 32/32/32
f 32/32/32 61/61/61 59/59/59
f 61/61/61 32/32/32 19/19/19
f 19/19/19 33/33/33 61/61/61
s 2
f 78/93/78 79/94/79 80/95/80
f 80/95/80 81/96/81 78/93/78
f 79/94/79 82/97/82 83/98/83
f 83/98/83 80/95/80 79/94/79
f 82/97/82 84/99/84 85/100/85
f 85/100/85 83/98/83 82/97/82
f 84/99/84 86/101/86 87/102/87
f 87/102/87 85/100/85 84/99/84
f 86/103/86 88/104/88 89/105/89
f 89/105/89 87/106/87 86/103/86
f 88/104/88 90/107/90 91/108/91
f 91/108/91 89/105/89 88/104/88
f 90/107/90 78/93/78 81/96/81
f 81/96/81 91/108/91 90/107/90
f 81/96/81 80/95/80 92/109/92
f 92/109/92 93/110/93 81/96/81
f 80/95/80 83/98/83 94/111/94
f 94/111/94 92/109/92 80/95/80
f 83/98/83 85/100/85 95/112/95
f 95/112/95 94/111/94 83/98/83
f 85/100/85 87/102/87 96/113/96
f 96/113/96 95/112/95 85/100/85
f 87/106/87 89/105/89 97/114/97
f 97/114/97 96/115/96 87/106/87
f 89/105/89 91/108/91 98/116/98
f 98/116/98 97/114/97 89/105/89
f 91/108/91 81/96/81 93/110/93
f 93/110/93 98/116/98 91/108/91
f 93/110/93 92/109/92 99/117/99
f 99/117/99 100/118/100 93/110/93
f 92/109/92 94/111/94 101/119/101
f 101/119/101 99/117/99 92/109/92
f 94/111/94 95/112/95 102/120/102
f 102/120/102 101/119/101 94/111/94
f 95/112/95 96/113/96 103/121/103
f 103/121/103 102/120/102 95/112/95
f 96/115/96 97/114/97 104/122/104
f 104/122/104 103/123/103 96/115/96
f 97/114/97 98/116/98 105/124/105
f 105/124/105 104/122/104 97/114/97
f 98/116/98 93/110/93 100/118/100
f 100/118/100 105/124/105 98/116/98
f 79/94/79 78/93/78 106/125/106
f 106/125/106 107/126/107 79/94/79
f 78/93/78 90/107/90 108/127/108
f 108/127/108 106/125/106 78/93/78
f 90/107/90 88/104/88 109/128/109
f 109/128/109 108/127/108 90/107/90
f 88/104/88 86/103/86 110/129/110
f 110/129/110 109/128/109 88/104/88
f 86/101/86 84/99/84 111/130/111
f 111/130/111 110/131/110 86/101/86
f 84/99/84 82/97/82 112/132/112
f 112/132/112 111/130/111 84/99/84
f 82/97/82 79/94/79 107/126/107
f 107/126/107 112/132/112 82/97/82
s 3
f 113/133/113 114/134/114 115/135/115
f 114/134/114 116/136/116 115/135/115
f 116/136/116 117/137/117 115/135/115
f 117/137/117 118/138/118 115/135/115
f 118/138/118 119/139/119 115/135/115
f 119/139/119 120/140/120 115/135/115
f 120/140/120 121/141/121 115/135/115
f 121/141/121 122/142/122 115/135/115
f 122/142/122 123/143/123 115/135/115
f 123/143/123 124/144/124 115/135/115
f 124/144/124 125/145/125 115/135/115
f 125/145/125 126/146/126 115/135/115
f 126/146/126 127/147/127 115/135/115
f 127/147/127 128/148/128 115/135/115
f 115/135/115 128/148/128 113/133/113
f 129/149/129 130/150/130 131/151/131
f 129/149/129 132/152/132 130/150/130
f 129/149/129 133/153/133 132/152/132
f 129/149/129 134/154/134 133/153/133
f 129/149/129 135/155/135 134/154/134
f 129/149/129 136/156/136 135/155/135
f 129/149/129 137/157/137 136/156/136
f 129/149/129 138/158/138 137/157/137
f 129/149/129 139/159/139 138/158/138
f 129/149/129 140/160/140 139/159/139
f 129/149/129 141/161/141 140/160/140
f 129/149/129 142/162/142 141/161/141
f 129/149/129 143/163/143 142/162/142
f 129/149/129 144/164/144 143/163/143
f 129/149/129 131/151/131 144/164/144
f 145/165/145 146/166/146 147/167/147
f 147/167/147 148/168/148 145/165/145
f 146/166/146 149/169/149 150/170/150
f 150/170/150 147/167/147 146/166/146
f 149/169/149 151/171/151 152/172/152
f 152/172/152 150/170/150 149/169/149
f 151/171/151 153/173/153 154/174/154
f 154/174/154 152/172/152 151/171/151
f 153/173/153 155/175/155 156/176/156
f 156/176/156 154/174/154 153/173/153
f 155/175/155 157/177/157 158/178/158
f 158/178/158 156/176/156 155/175/155
f 157/177/157 159/179/159 160/180/160
f 160/180/160 158/178/158 157/177/157
f 159/179/159 161/181/161 162/182/162
f 162/182/162 160/180/160 159/179/159
f 161/181/161 163/183/163 164/184/164
f 164/184/164 162/182/162 161/181/161
f 163/183/163 165/185/165 166/186/166
f 166/186/166 164/184/164 163/183/163
f 165/185/165 167/187/167 168/188/168
f 168/188/168 166/186/166 165/185/165
f 167/187/167 169/189/169 170/190/170
f 170/190/170 168/188/168 167/187/167
f 169/189/169 171/191/171 172/192/172
f 172/192/172 170/190/170 169/189/169
f 171/191/171 173/193/173 174/194/174
f 174/194/174 172/192/172 171/191/171
f 173/193/173 145/165/145 148/168/148
f 148/168/148 174/194/174 173/193/173
f 113/133/113 175/195/175 176/196/176
f 176/196/176 114/134/114 113/133/113
f 114/134/114 176/196/176 177/197/177
f 177/197/177 116/136/116 114/134/114
f 116/136/116 177/197/177 178/198/178
f 178/198/178 117/137/117 116/136/116
f 117/137/117 178/198/178 179/199/179
f 179/199/179 118/138/118 117/137/117
f 118/138/118 179/199/179 180/200/180
f 180/200/180 119/139/119 118/138/118
f 119/139/119 180/200/180 181/201/181
f 181/201/181 120/140/120 119/139/119
f 120/140/120 181/201/181 182/202/182
f 182/202/182 121/141/121 120/140/120
f 121/141/121 182/202/182 183/203/183
f 183/203/183 122/142/122 121/141/121
f 122/142/122 183/203/183 184/204/184
f 184/204/184 123/143/123 122/142/122
f 123/143/123 184/204/184 185/205/185
f 185/205/185 124/144/124 123/143/123
f 124/144/124 185/205/185 186/206/186
f 186/206/186 125/145/125 124/144/124
f 125/145/125 186/206/186 187/207/187
f 187/207/187 126/146/126 125/145/125
f 126/146/126 187/207/187 188/208/188
f 188/208/188 127/147/127 126/146/126
f 127/147/127 188/208/188 189/209/189
f 189/209/189 128/148/128 127/147/127
f 128/148/128 189/209/189 175/195/175
f 175/195/175 113/133/113 128/148/128
f 175/195/175 148/210/148 147/211/147
f 147/211/147 176/196/176 175/195/175
f 176/196/176 147/211/147 150/212/150
f 150/212/150 177/197/177 176/196/176
f 177/197/177 150/212/150 152/213/152
f 152/213/152 178/198/178 177/197/177
f 178/198/178 152/213/152 154/214/154
f 154/214/154 179/199/179 178/198/178
f 179/199/179 154/214/154 156/215/156
f 156/215/156 180/200/180 179/199/179
f 180/200/180 156/215/156 158/216/158
f 158/216/158 181/201/181 180/200/180
f 181/201/181 158/216/158 160/217/160
f 160/217/160 182/202/182 181/201/181
f 182/202/182 160/217/160 162/218/162
f 162/218/162 183/203/183 182/202/182
f 183/203/183 162/218/162 164/219/164
f 164/219/164 184/204/184 183/203/183
f 184/204/184 164/219/164 166/220/166
f 166/220/166 185/205/185 184/204/184
f 185/205/185 166/220/166 168/221/168
f 168/221/168 186/206/186 185/205/185
f 186/206/186 168/221/168 170/222/170
f 170/222/170 187/207/187 186/206/186
f 187/207/187 170/222/170 172/223/172
f 172/223/172 188/208/188 187/207/187
f 188/208/188 172/223/172 174/224/174
f 174/224/174 189/209/189 188/208/188
f 189/209/189 174/224/174 148/210/148
f 148/210/148 175/195/175 189/209/189
f 145/165/145 131/151/131 130/150/130
f 130/150/130 146/166/146 145/165/145
f 146/166/146 130/150/130 132/152/132
f 132/152/132 149/169/149 146/166/146
f 149/169/149 132/152/132 133/153/133
f 133/153/133 151/171/151 149/169/149
f 151/171/151 133/153/133 134/154/134
f 134/154/134 153/173/153 151/171/151
f 153/173/153 134/154/134 135/155/135
f 135/155/135 155/175/155 153/173/153
f 155/175/155 135/155/135 136/156/136
f 136/156/136 157/177/157 155/175/155
f 157/177/157 136/156/136 137/157/137
f 137/157/137 159/179/159 157/177/157
f 159/179/159 137/157/137 138/158/138
f 138/158/138 161/181/161 159/179/159
f 161/181/161 138/158/138 139/159/139
f 139/159/139 163/183/163 161/181/161
f 163/183/163 139/159/139 140/160/140
f 140/160/140 165/185/165 163/183/163
f 165/185/165 140/160/140 141/161/141
f 141/161/141 167/187/167 165/185/165
f 167/187/167 141/161/141 142/162/142
f 142/162/142 169/189/169 167/187/167
f 169/189/169 142/162/142 143/163/143
f 143/163/143 171/191/171 169/189/169
f 171/191/171 143/163/143 144/164/144
f 144/164/144 173/193/173 171/191/171
f 173/193/173 144/164/144 131/151/131
f 131/151/131 145/165/145 173/193/173
s 4
f 190/225/190 191/226/191 192/227/192
f 192/227/192 193/228/193 190/225/190
f 191/226/191 194/229/194 195/230/195
f 195/230/195 192/227/192 191/226/191
f 194/229/194 196/231/196 197/232/197
f 197/232/197 195/230/195 194/229/194
f 196/231/196 198/233/198 199/234/199
f 199/234/199 197/232/197 196/231/196
f 198/233/198 200/235/200 201/236/201
f 201/236/201 199/234/199 198/233/198
f 200/237/200 202/238/202 203/239/203
f 203/239/203 201/240/201 200/237/200
f 202/238/202 190/225/190 193/228/193
f 193/228/193 203/239/203 202/238/202
f 193/228/193 192/227/192 204/241/204
f 204/241/204 205/242/205 193/228/193
f 192/227/192 195/230/195 206/243/206
f 206/243/206 204/241/204 192/227/192
f 195/230/195 197/232/197 207/244/207
f 207/244/207 206/243/206 195/230/195
f 197/232/197 199/234/199 208/245/208
f 208/245/208 207/244/207 197/232/197
f 199/234/199 201/236/201 209/246/209
f 209/246/209 208/245/208 199/234/199
f 201/240/201 203/239/203 210/247/210
f 210/247/210 209/248/209 201/240/201
f 203/239/203 193/228/193 205/242/205
f 205/242/205 210/247/210 203/239/203
f 205/242/205 204/241/204 211/249/211
f 211/249/211 212/250/212 205/242/205
f 204/241/204 206/243/206 213/251/213
f 213/251/213 211/249/211 204/241/204
f 206/243/206 207/244/207 214/252/214
f 214/252/214 213/251/213 206/243/206
f 207/244/207 208/245/208 215/253/215
f 215/253/215 214/252/214 207/244/207
f 208/245/208 209/246/209 216/254/216
f 216/254/216 215/253/215 208/245/208
f 209/248/209 210/247/210 217/255/217
f 217/255/217 216/256/216 209/248/209
f 210/247/210 205/242/205 212/250/212
f 212/250/212 217/255/217 210/247/210
f 212/250/212 211/249/211 218/257/218
f 218/257/218 219/258/219 212/250/212
f 211/249/211 213/251/213 220/259/220
f 220/259/220 218/257/218 211/249/211
f 213/251/213 214/252/214 221/260/221
f 221/260/221 220/259/220 213/251/213
f 214/252/214 215/253/215 222/261/222
f 222/261/222 221/260/221 214/252/214
f 215/253/215 216/254/216 223/262/223
f 223/262/223 222/261/222 215/253/215
f 216/256/216 217/255/217 224/263/224
f 224/263/224 223/264/223 216/256/216
f 217/255/217 212/250/212 219/258/219
f 219/258/219 224/263/224 217/255/217
f 191/226/191 190/225/190 225/265/225
f 225/265/225 226/266/226 191/226/191
f 190/225/190 202/238/202 227/267/227
f 227/267/227 225/265/225 190/225/190
f 202/238/202 200/237/200 228/268/228
f 228/268/228 227/267/227 202/238/202
f 200/235/200 198/233/198 229/269/229
f 229/269/229 228/270/228 200/235/200
f 198/233/198 196/231/196 230/271/230
f 230/271/230 229/269/229 198/233/198
f 196/231/196 194/229/194 231/272/231
f 231/272/231 230/271/230 196/231/196
f 194/229/194 191/226/191 226/266/226
f 226/266/226 231/272/231 194/229/194
s 5
f 232/273/232 233/274/233 234/275/234
f 234/275/234 235/276/235 232/273/232
f 233/274/233 236/277/236 237/278/237
f 237/278/237 234/275/234 233/274/233
f 236/277/236 238/279/238 239/280/239
f 239/280/239 237/278/237 236/277/236
f 238/279/238 240/281/240 241/282/241
f 241/282/241 239/280/239 238/279/238
f 240/281/240 242/283/242 243/284/243
f 243/284/243 241/282/241 240/281/240
f 242/283/242 244/285/244 245/286/245
f 245/286/245 243/284/243 242/283/242
f 244/285/244 232/287/232 235/288/235
f 235/288/235 245/286/245 244/285/244
f 235/276/235 234/275/234 246/289/246
f 246/289/246 247/290/247 235/276/235
f 234/275/234 237/278/237 248/291/248
f 248/291/248 246/289/246 234/275/234
f 237/278/237 239/280/239 249/292/249
f 249/292/249 248/291/248 237/278/237
f 239/280/239 241/282/241 250/293/250
f 250/293/250 249/292/249 239/280/239
f 241/282/241 243/284/243 251/294/251
f 251/294/251 250/293/250 241/282/241
f 243/284/243 245/286/245 252/295/252
f 252/295/252 251/294/251 243/284/243
f 245/286/245 235/288/235 247/296/247
f 247/296/247 252/295/252 245/286/245
f 233/274/233 232/273/232 253/297/253
f 253/297/253 254/298/254 233/274/233
f 232/287/232 244/285/244 255/299/255
f 255/299/255 253/300/253 232/287/232
f 244/285/244 242/283/242 256/301/256
f 256/301/256 255/299/255 244/285/244
f 242/283/242 240/281/240 257/302/257
f 257/302/257 256/301/256 242/283/242
f 240/281/240 238/279/238 258/303/258
f 258/303/258 257/302/257 240/281/240
f 238/279/238 236/277/236 259/304/259
f 259/304/259 258/303/258 238/279/238
f 236/277/236 233/274/233 254/298/254
f 254/298/254 259/304/259 236/277/236
s 6
f 260/305/260 261/306/261 262/307/262
f 262/307/262 263/308/263 260/305/260
f 261/306/261 264/309/264 265/310/265
f 265/310/265 262/307/262 261/306/261
f 264/309/264 266/311/266 267/312/267
f 267/312/267 265/310/265 264/309/264
f 266/311/266 268/313/268 269/314/269
f 269/314/269 267/312/267 266/311/266
f 268/315/268 270/316/270 271/317/271
f 271/317/271 269/318/269 268/315/268
f 270/316/270 272/319/272 273/320/273
f 273/320/273 271/317/271 270/316/270
f 272/319/272 260/305/260 263/308/263
f 263/308/263 273/320/273 272/319/272
f 263/308/263 262/307/262 274/321/274
f 274/321/274 275/322/275 263/308/263
f 262/307/262 265/310/265 276/323/276
f 276/323/276 274/321/274 262/307/262
f 265/310/265 267/312/267 277/324/277
f 277/324/277 276/323/276 265/310/265
f 267/312/267 269/314/269 278/325/278
f 278/325/278 277/324/277 267/312/267
f 269/318/269 271/317/271 279/326/279
f 279/326/279 278/327/278 269/318/269
f 271/317/271 273/320/273 280/328/280
f 280/328/280 279/326/279 271/317/271
f 273/320/273 263/308/263 275/322/275
f 275/322/275 280/328/280 273/320/273
f 275/322/275 274/321/274 281/329/281
f 281/329/281 282/330/282 275/322/275
f 274/321/274 276/323/276 283/331/283
f 283/331/283 281/329/281 274/321/274
f 276/323/276 277/324/277 284/332/284
f 284/332/284 283/331/283 276/323/276
f 277/324/277 278/325/278 285/333/285
f 285/333/285 284/332/284 277/324/277
f 278/327/278 279/326/279 286/334/286
f 286/334/286 285/335/285 278/327/278
f 279/326/279 280/328/280 287/336/287
f 287/336/287 286/334/286 279/326/279
f 280/328/280 275/322/275 282/330/282
f 282/330/282 287/336/287 280/328/280
f 261/306/261 260/305/260 288/337/288
f 288/337/288 289/338/289 261/306/261
f 260/305/260 272/319/272 290/339/290
f 290/339/290 288/337/288 260/305/260
f 272/319/272 270/316/270 291/340/291
f 291/340/291 290/339/290 272/319/272
f 270/316/270 268/315/268 292/341/292
f 292/341/292 291/340/291 270/316/270
f 268/313/268 266/311/266 293/342/293
f 293/342/293 292/343/292 268/313/268
f 266/311/266 264/309/264 294/344/294
f 294/344/294 293/342/293 266/311/266
f 264/309/264 261/306/261 289/338/289
f 289/338/289 294/344/294 264/309/264
s 7
f 295/345/295 296/346/296 297/347/297
f 296/346/296 298/348/298 297/347/297
f 298/348/298 299/349/299 297/347/297
f 299/349/299 300/350/300 297/347/297
f 300/350/300 301/351/301 297/347/297
f 301/351/301 302/352/302 297/347/297
f 302/352/302 303/353/303 297/347/297
f 303/353/303 304/354/304 297/347/297
f 304/354/304 305/355/305 297/347/297
f 305/355/305 306/356/306 297/347/297
f 306/356/306 307/357/307 297/347/297
f 307/357/307 308/358/308 297/347/297
f 308/358/308 309/359/309 297/347/297
f 309/359/309 310/360/310 297/347/297
f 297/347/297 310/360/310 295/345/295
f 311/361/311 312/362/312 313/363/313
f 311/361/311 314/364/314 312/362/312
f 311/361/311 315/365/315 314/364/314
f 311/361/311 316/366/316 315/365/315
f 311/361/311 317/367/317 316/366/316
f 311/361/311 318/368/318 317/367/317
f 311/361/311 319/369/319 318/368/318
f 311/361/311 320/370/320 319/369/319
f 311/361/311 321/371/321 320/370/320
f 311/361/311 322/372/322 321/371/321
f 311/361/311 323/373/323 322/372/322
f 311/361/311 324/374/324 323/373/323
f 311/361/311 325/375/325 324/374/324
f 311/361/311 326/376/326 325/375/325
f 311/361/311 313/363/313 326/376/326
f 295/345/295 327/377/327 328/378/328
f 328/378/328 296/346/296 295/345/295
f 296/346/296 328/378/328 329/379/329
f 329/379/329 298/348/298 296/346/296
f 298/348/298 329/379/329 330/380/330
f 330/380/330 299/349/299 298/348/298
f 299/349/299 330/380/330 331/381/331
f 331/381/331 300/350/300 299/349/299
f 300/350/300 331/381/331 332/382/332
f 332/382/332 301/351/301 300/350/300
f 301/351/301 332/382/332 333/383/333
f 333/383/333 302/352/302 301/351/301
f 302/352/302 333/383/333 334/384/334
f 334/384/334 303/353/303 302/352/302
f 303/353/303 334/384/334 335/385/335
f 335/385/335 304/354/304 303/353/303
f 304/354/304 335/385/335 336/386/336
f 336/386/336 305/355/305 304/354/304
f 305/355/305 336/386/336 337/387/337
f 337/387/337 306/356/306 305/355/305
f 306/356/306 337/387/337 338/388/338
f 338/388/338 307/357/307 306/356/306
f 307/357/307 338/388/338 339/389/339
f 339/389/339 308/358/308 307/357/307
f 308/358/308 339/389/339 340/390/340
f 340/390/340 309/359/309 308/358/308
f 309/359/309 340/390/340 341/391/341
f 341/391/341 310/360/310 309/359/309
f 310/360/310 341/391/341 327/377/327
f 327/377/327 295/345/295 310/360/310
f 342/392/342 343/393/343 328/394/328
f 328/394/328 327/395/327 342/392/342
f 343/393/343 344/396/344 329/397/329
f 329/397/329 328/394/328 343/393/343
f 344/396/344 345/398/345 330/399/330
f 330/399/330 329/397/329 344/396/344
f 345/398/345 346/400/346 331/401/331
f 331/401/331 330/399/330 345/398/345
f 346/400/346 347/402/347 332/403/332
f 332/403/332 331/401/331 346/400/346
f 347/402/347 348/404/348 333/405/333
f 333/405/333 332/403/332 347/402/347
f 348/404/348 349/406/349 334/407/334
f 334/407/334 333/405/333 348/404/348
f 349/406/349 350/408/350 335/409/335
f 335/409/335 334/407/334 349/406/349
f 350/408/350 351/410/351 336/411/336
f 336/411/336 335/409/335 350/408/350
f 351/410/351 352/412/352 337/413/337
f 337/413/337 336/411/336 351/410/351
f 352/412/352 353/414/353 338/415/338
f 338/415/338 337/413/337 352/412/352
f 353/414/353 354/416/354 339/417/339
f 339/417/339 338/415/338 353/414/353
f 354/416/354 355/418/355 340/419/340
f 340/419/340 339/417/339 354/416/354
f 355/418/355 356/420/356 341/421/341
f 341/421/341 340/419/340 355/418/355
f 356/420/356 342/392/342 327/395/327
f 327/395/327 341/421/341 356/420/356
f 342/392/342 313/363/313 312/362/312
f 312/362/312 343/393/343 342/392/342
f 343/393/343 312/362/312 314/364/314
f 314/364/314 344/396/344 343/393/343
f 344/396/344 314/364/314 315/365/315
f 315/365/315 345/398/345 344/396/344
f 345/398/345 315/365/315 316/366/316
f 316/366/316 346/400/346 345/398/345
f 346/400/346 316/366/316 317/367/317
f 317/367/317 347/402/347 346/400/346
f 347/402/347 317/367/317 318/368/318
f 318/368/318 348/404/348 347/402/347
f 348/404/348 318/368/318 319/369/319
f 319/369/319 349/406/349 348/404/348
f 349/406/349 319/369/319 320/370/320
f 320/370/320 350/408/350 349/406/349
f 350/408/350 320/370/320 321/371/321
f 321/371/321 351/410/351 350/408/350
f 351/410/351 321/371/321 322/372/322
f 322/372/322 352/412/352 351/410/351
f 352/412/352 322/372/322 323/373/323
f 323/373/323 353/414/353 352/412/352
f 353/414/353 323/373/323 324/374/324
f 324/374/324 354/416/354 353/414/353
f 354/416/354 324/374/324 325/375/325
f 325/375/325 355/418/355 354/416/354
f 355/418/355 325/375/325 326/376/326
f 326/376/326 356/420/356 355/418/355
f 356/420/356 326/376/326 313/363/313
f 313/363/313 342/392/342 356/420/356
s 8
f 357/422/357 358/423/358 359/424/359
f 358/423/358 360/425/360 359/424/359
f 360/425/360 361/426/361 359/424/359
f 361/426/361 362/427/362 359/424/359
f 362/427/362 363/428/363 359/424/359
f 363/428/363 364/429/364 359/424/359
f 364/429/364 365/430/365 359/424/359
f 365/430/365 366/431/366 359/424/359
f 366/431/366 367/432/367 359/424/359
f 367/432/367 368/433/368 359/424/359
f 368/433/368 369/434/369 359/424/359
f 369/434/369 370/435/370 359/424/359
f 370/435/370 371/436/371 359/424/359
f 371/436/371 372/437/372 359/424/359
f 359/424/359 372/437/372 357/422/357
f 373/438/373 374/439/374 375/440/375
f 375/440/375 376/441/376 373/438/373
f 376/441/376 375/440/375 377/442/377
f 377/442/377 378/443/378 376/441/376
f 377/442/377 379/444/379 380/445/380
f 380/445/380 378/443/378 377/442/377
f 379/444/379 381/446/381 382/447/382
f 382/447/382 380/445/380 379/444/379
f 381/446/381 383/448/383 384/449/384
f 384/449/384 382/447/382 381/446/381
f 383/448/383 385/450/385 386/451/386
f 386/451/386 384/449/384 383/448/383
f 385/450/385 387/452/387 388/453/388
f 388/453/388 386/451/386 385/450/385
f 387/452/387 389/454/389 390/455/390
f 390/455/390 388/453/388 387/452/387
f 389/454/389 391/456/391 392/457/392
f 392/457/392 390/455/390 389/454/389
f 391/456/391 393/458/393 394/459/394
f 394/459/394 392/457/392 391/456/391
f 393/458/393 395/460/395 396/461/396
f 396/461/396 394/459/394 393/458/393
f 396/461/396 395/460/395 397/462/397
f 397/462/397 398/463/398 396/461/396
f 398/463/398 397/462/397 399/464/399
f 399/464/399 400/465/400 398/463/398
f 400/465/400 399/464/399 401/466/401
f 401/466/401 402/467/402 400/465/400
f 401/466/401 374/439/374 373/438/373
f 373/438/373 402/467/402 401/466/401
f 357/422/357 403/468/403 404/469/404
f 404/469/404 358/423/358 357/422/357
f 358/423/358 404/469/404 405/470/405
f 405/470/405 360/425/360 358/423/358
f 360/425/360 405/470/405 406/471/406
f 406/471/406 361/426/361 360/425/360
f 361/426/361 406/471/406 407/472/407
f 407/472/407 362/427/362 361/426/361
f 362/427/362 407/472/407 408/473/408
f 408/473/408 363/428/363 362/427/362
f 363/428/363 408/473/408 409/474/409
f 409/474/409 364/429/364 363/428/363
f 364/429/364 409/474/409 410/475/410
f 410/475/410 365/430/365 364/429/364
f 365/430/365 410/475/410 411/476/411
f 411/476/411 366/431/366 365/430/365
f 366/431/366 411/476/411 412/477/412
f 412/477/412 367/432/367 366/431/366
f 367/432/367 412/477/412 413/478/413
f 413/478/413 368/433/368 367/432/367
f 368/433/368 413/478/413 414/479/414
f 414/479/414 369/434/369 368/433/368
f 369/434/369 414/479/414 415/480/415
f 415/480/415 370/435/370 369/434/369
f 370/435/370 415/480/415 416/481/416
f 416/481/416 371/436/371 370/435/370
f 371/436/371 416/481/416 417/482/417
f 417/482/417 372/437/372 371/436/371
f 372/437/372 417/482/417 403/468/403
f 403/468/403 357/422/357 372/437/372
f 403/468/403 373/483/373 376/484/376
f 376/484/376 404/469/404 403/468/403
f 404/469/404 376/484/376 378/485/378
f 378/485/378 405/470/405 404/469/404
f 405/470/405 378/485/378 380/486/380
f 380/486/380 406/471/406 405/470/405
f 406/471/406 380/486/380 382/487/382
f 382/487/382 407/472/407 406/471/406
f 407/472/407 382/487/382 384/488/384
f 384/488/384 408/473/408 407/472/407
f 408/473/408 384/488/384 386/489/386
f 386/489/386 409/474/409 408/473/408
f 409/474/409 386/489/386 388/490/388
f 388/490/388 410/475/410 409/474/409
f 410/475/410 388/490/388 390/491/390
f 390/491/390 411/476/411 410/475/410
f 411/476/411 390/491/390 392/492/392
f 392/492/392 412/477/412 411/476/411
f 412/477/412 392/492/392 394/493/394
f 394/493/394 413/478/413 412/477/412
f 413/478/413 394/493/394 396/494/396
f 396/494/396 414/479/414 413/478/413
f 414/479/414 396/494/396 398/495/398
f 398/495/398 415/480/415 414/479/414
f 415/480/415 398/495/398 400/496/400
f 400/496/400 416/481/416 415/480/415
f 416/481/416 400/496/400 402/497/402
f 402/497/402 417/482/417 416/481/416
f 417/482/417 402/497/402 373/483/373
f 373/483/373 403/468/403 417/482/417
f 418/498/418 419/499/419 420/500/420
f 420/500/420 419/499/419 421/501/421
f 421/501/421 419/499/419 422/502/422
f 422/502/422 419/499/419 423/503/423
f 423/503/423 419/499/419 424/504/424
f 424/504/424 419/499/419 425/505/425
f 425/505/425 419/499/419 426/506/426
f 426/506/426 419/499/419 427/507/427
f 427/507/427 419/499/419 428/508/428
f 428/508/428 419/499/419 429/509/429
f 429/509/429 419/499/419 430/510/430
f 430/510/430 419/499/419 431/511/431
f 431/511/431 419/499/419 432/512/432
f 432/512/432 419/499/419 433/513/433
f 433/513/433 419/499/419 418/498/418
f 374/439/374 418/498/418 420/500/420
f 420/500/420 375/440/375 374/439/374
f 375/440/375 420/500/420 421/501/421
f 421/501/421 377/442/377 375/440/375
f 421/501/421 422/502/422 379/444/379
f 379/444/379 377/442/377 421/501/421
f 422/502/422 423/503/423 381/446/381
f 381/446/381 379/444/379 422/502/422
f 423/503/423 424/504/424 383/448/383
f 383/448/383 381/446/381 423/503/423
f 424/504/424 425/505/425 385/450/385
f 385/450/385 383/448/383 424/504/424
f 425/505/425 426/506/426 387/452/387
f 387/452/387 385/450/385 425/505/425
f 426/506/426 427/507/427 389/454/389
f 389/454/389 387/452/387 426/506/426
f 427/507/427 428/508/428 391/456/391
f 391/456/391 389/454/389 427/507/427
f 428/508/428 429/509/429 393/458/393
f 393/458/393 391/456/391 428/508/428
f 429/509/429 430/510/430 395/460/395
f 395/460/395 393/458/393 429/509/429
f 430/510/430 431/511/431 397/462/397
f 397/462/397 395/460/395 430/510/430
f 397/462/397 431/511/431 432/512/432
f 432/512/432 399/464/399 397/462/397
f 399/464/399 432/512/432 433/513/433
f 433/513/433 401/466/401 399/464/399
f 433/513/433 418/498/418 374/439/374
f 374/439/374 401/466/401 433/513/433
s 9
f 434/514/434 435/515/435 436/516/436
f 436/516/436 437/517/437 434/514/434
f 435/515/435 438/518/438 439/519/439
f 439/519/439 436/516/436 435/515/435
f 438/518/438 440/520/440 441/521/441
f 441/521/441 439/519/439 438/518/438
f 440/520/440 442/522/442 443/523/443
f 443/523/443 441/521/441 440/520/440
f 442/522/442 444/524/444 445/525/445
f 445/525/445 443/523/443 442/522/442
f 444/524/444 446/526/446 447/527/447
f 447/527/447 445/525/445 444/524/444
f 446/526/446 434/528/434 437/529/437
f 437/529/437 447/527/447 446/526/446
f 437/517/437 436/516/436 448/530/448
f 448/530/448 449/531/449 437/517/437
f 436/516/436 439/519/439 450/532/450
f 450/532/450 448/530/448 436/516/436
f 439/519/439 441/521/441 451/533/451
f 451/533/451 450/532/450 439/519/439
f 441/521/441 443/523/443 452/534/452
f 452/534/452 451/533/451 441/521/441
f 443/523/443 445/525/445 453/535/453
f 453/535/453 452/534/452 443/523/443
f 445/525/445 447/527/447 454/536/454
f 454/536/454 453/535/453 445/525/445
f 447/527/447 437/529/437 449/537/449
f 449/537/449 454/536/454 447/527/447
f 455/538/455 456/539/456 457/540/457
f 457/540/457 458/541/458 455/538/455
f 456/539/456 459/542/459 460/543/460
f 460/543/460 457/540/457 456/539/456
f 459/542/459 461/544/461 462/545/462
f 462/545/462 460/543/460 459/542/459
f 461/544/461 463/546/463 464/547/464
f 464/547/464 462/545/462 461/544/461
f 463/546/463 465/548/465 466/549/466
f 466/549/466 464/547/464 463/546/463
f 465/548/465 467/550/467 468/551/468
f 468/551/468 466/549/466 465/548/465
f 467/550/467 455/552/455 458/553/458
f 458/553/458 468/551/468 467/550/467
f 435/515/435 434/514/434 469/554/469
f 469/554/469 470/555/470 435/515/435
f 434/528/434 446/526/446 471/556/471
f 471/556/471 469/557/469 434/528/434
f 446/526/446 444/524/444 472/558/472
f 472/558/472 471/556/471 446/526/446
f 444/524/444 442/522/442 473/559/473
f 473/559/473 472/558/472 444/524/444
f 442/522/442 440/520/440 474/560/474
f 474/560/474 473/559/473 442/522/442
f 440/520/440 438/518/438 475/561/475
f 475/561/475 474/560/474 440/520/440
f 438/518/438 435/515/435 470/555/470
f 470/555/470 475/561/475 438/518/438
f 456/539/456 455/538/455 449/531/449
f 449/531/449 448/530/448 456/539/456
f 459/542/459 456/539/456 448/530/448
f 448/530/448 450/532/450 459/542/459
f 461/544/461 459/542/459 450/532/450
f 450/532/450 451/533/451 461/544/461
f 463/546/463 461/544/461 451/533/451
f 451/533/451 452/534/452 463/546/463
f 465/548/465 463/546/463 452/534/452
f 452/534/452 453/535/453 465/548/465
f 467/550/467 465/548/465 453/535/453
f 453/535/453 454/536/454 467/550/467
f 455/552/455 467/550/467 454/536/454
f 454/536/454 449/537/449 455/552/455
s 10
f 476/562/476 477/563/477 478/564/478
f 477/563/477 479/565/479 478/564/478
f 479/565/479 480/566/480 478/564/478
f 480/566/480 481/567/481 478/564/478
f 481/567/481 482/568/482 478/564/478
f 482/568/482 483/569/483 478/564/478
f 483/569/483 484/570/484 478/564/478
f 484/570/484 485/571/485 478/564/478
f 485/571/485 486/572/486 478/564/478
f 486/572/486 487/573/487 478/564/478
f 487/573/487 488/574/488 478/564/478
f 488/574/488 489/575/489 478/564/478
f 489/575/489 490/576/490 478/564/478
f 490/576/490 491/577/491 478/564/478
f 478/564/478 491/577/491 476/562/476
f 492/578/492 493/579/493 494/580/494
f 492/578/492 495/581/495 493/579/493
f 492/578/492 496/582/496 495/581/495
f 492/578/492 497/583/497 496/582/496
f 492/578/492 498/584/498 497/583/497
f 492/578/492 499/585/499 498/584/498
f 492/578/492 500/586/500 499/585/499
f 492/578/492 501/587/501 500/586/500
f 492/578/492 502/588/502 501/587/501
f 492/578/492 503/589/503 502/588/502
f 492/578/492 504/590/504 503/589/503
f 492/578/492 505/591/505 504/590/504
f 492/578/492 506/592/506 505/591/505
f 492/578/492 507/593/507 506/592/506
f 492/578/492 494/580/494 507/593/507
f 494/580/494 493/579/493 508/594/508
f 508/594/508 509/595/509 494/580/494
f 508/594/508 493/579/493 495/581/495
f 495/581/495 510/596/510 508/594/508
f 510/596/510 495/581/495 496/582/496
f 496/582/496 511/597/511 510/596/510
f 511/597/511 496/582/496 497/583/497
f 497/583/497 512/598/512 511/597/511
f 512/598/512 497/583/497 498/584/498
f 498/584/498 513/599/513 512/598/512
f 513/599/513 498/584/498 499/585/499
f 499/585/499 514/600/514 513/599/513
f 514/600/514 499/585/499 500/586/500
f 500/586/500 515/601/515 514/600/514
f 515/601/515 500/586/500 501/587/501
f 501/587/501 516/602/516 515/601/515
f 516/602/516 501/587/501 502/588/502
f 502/588/502 517/603/517 516/602/516
f 517/603/517 502/588/502 503/589/503
f 503/589/503 518/604/518 517/603/517
f 518/604/518 503/589/503 504/590/504
f 504/590/504 519/605/519 518/604/518
f 519/605/519 504/590/504 505/591/505
f 505/591/505 520/606/520 519/605/519
f 520/606/520 505/591/505 506/592/506
f 506/592/506 521/607/521 520/606/520
f 521/607/521 506/592/506 507/593/507
f 507/593/507 522/608/522 521/607/521
f 507/593/507 494/580/494 509/595/509
f 509/595/509 522/608/522 507/593/507
f 523/609/523 524/610/524 525/611/525
f 525/611/525 526/612/526 523/609/523
f 526/612/526 525/611/525 527/613/527
f 527/613/527 528/614/528 526/612/526
f 528/614/528 527/613/527 529/615/529
f 529/615/529 530/616/530 528/614/528
f 530/616/530 529/615/529 531/617/531
f 531/617/531 532/618/532 530/616/530
f 532/618/532 531/617/531 533/619/533
f 533/619/533 534/620/534 532/618/532
f 534/620/534 533/619/533 535/621/535
f 535/621/535 536/622/536 534/620/534
f 536/622/536 535/621/535 537/623/537
f 537/623/537 538/624/538 536/622/536
f 538/624/538 537/623/537 539/625/539
f 539/625/539 540/626/540 538/624/538
f 540/626/540 539/625/539 541/627/541
f 541/627/541 542/628/542 540/626/540
f 542/628/542 541/627/541 543/629/543
f 543/629/543 544/630/544 542/628/542
f 544/630/544 543/629/543 545/631/545
f 545/631/545 546/632/546 544/630/544
f 546/632/546 545/631/545 547/633/547
f 547/633/547 548/634/548 546/632/546
f 548/634/548 547/633/547 549/635/549
f 549/635/549 550/636/550 548/634/548
f 550/636/550 549/635/549 551/637/551
f 551/637/551 552/638/552 550/636/550
f 552/638/552 551/637/551 524/610/524
f 524/610/524 523/609/523 552/638/552
f 524/610/524 509/639/509 508/640/508
f 508/640/508 525/611/525 524/610/524
f 525/611/525 508/640/508 510/641/510
f 510/641/510 527/613/527 525/611/525
f 527/613/527 510/641/510 511/642/511
f 511/642/511 529/615/529 527/613/527
f 529/615/529 511/642/511 512/643/512
f 512/643/512 531/617/531 529/615/529
f 531/617/531 512/643/512 513/644/513
f 513/644/513 533/619/533 531/617/531
f 533/619/533 513/644/513 514/645/514
f 514/645/514 535/621/535 533/619/533
f 535/621/535 514/645/514 515/646/515
f 515/646/515 537/623/537 535/621/535
f 537/623/537 515/646/515 516/647/516
f 516/647/516 539/625/539 537/623/537
f 539/625/539 516/647/516 517/648/517
f 517/648/517 541/627/541 539/625/539
f 541/627/541 517/648/517 518/649/518
f 518/649/518 543/629/543 541/627/541
f 543/629/543 518/649/518 519/650/519
f 519/650/519 545/631/545 543/629/543
f 545/631/545 519/650/519 520/651/520
f 520/651/520 547/633/547 545/631/545
f 547/633/547 520/651/520 521/652/521
f 521/652/521 549/635/549 547/633/547
f 549/635/549 521/652/521 522/653/522
f 522/653/522 551/637/551 549/635/549
f 551/637/551 522/653/522 509/639/509
f 509/639/509 524/610/524 551/637/551
f 523/609/523 526/612/526 477/563/477
f 477/563/477 476/562/476 523/609/523
f 526/612/526 528/614/528 479/565/479
f 479/565/479 477/563/477 526/612/526
f 528/614/528 530/616/530 480/566/480
f 480/566/480 479/565/479 528/614/528
f 530/616/530 532/618/532 481/567/481
f 481/567/481 480/566/480 530/616/530
f 532/618/532 534/620/534 482/568/482
f 482/568/482 481/567/481 532/618/532
f 534/620/534 536/622/536 483/569/483
f 483/569/483 482/568/482 534/620/534
f 536/622/536 538/624/538 484/570/484
f 484/570/484 483/569/483 536/622/536
f 538/624/538 540/626/540 485/571/485
f 485/571/485 484/570/484 538/624/538
f 540/626/540 542/628/542 486/572/486
f 486/572/486 485/571/485 540/626/540
f 542/628/542 544/630/544 487/573/487
f 487/573/487 486/572/486 542/628/542
f 544/630/544 546/632/546 488/574/488
f 488/574/488 487/573/487 544/630/544
f 546/632/546 548/634/548 489/575/489
f 489/575/489 488/574/488 546/632/546
f 548/634/548 550/636/550 490/576/490
f 490/576/490 489/575/489 548/634/548
f 550/636/550 552/638/552 491/577/491
f 491/577/491 490/576/490 550/636/550
f 552/638/552 523/609/523 476/562/476
f 476/562/476 491/577/491 552/638/552
